<?xml version="1.0" encoding="UTF-8" standalone="no"?>
<svg xmlns:xlink="http://www.w3.org/1999/xlink" height="7.55px" width="11.55px" xmlns="http://www.w3.org/2000/svg">
  <g transform="matrix(1.0, 0.0, 0.0, 1.0, 4.0, 7.4)">
    <path d="M5.15 -1.9 L5.0 -0.5 3.7 0.15 1.5 -0.45 1.55 -1.1 5.15 -1.9" fill="#000000" fill-rule="evenodd" stroke="none"/>
    <path d="M1.55 -1.1 L-2.85 -0.15 -2.95 -0.15 -3.15 -0.1 -3.95 0.15 -4.0 -0.35 -3.55 -0.95 -3.8 -3.75 -2.35 -6.6 3.25 -7.4 5.8 -3.1 7.05 -3.1 7.55 -2.4 5.15 -1.9 1.55 -1.1" fill="url(#gradient0)" fill-rule="evenodd" stroke="none"/>
    <path d="M1.55 -1.1 L-2.85 -0.15 -2.95 -0.15 -3.15 -0.1 -3.95 0.15 -4.0 -0.35 -3.55 -0.95 -3.8 -3.75 -2.35 -6.6 3.25 -7.4 5.8 -3.1 7.05 -3.1 7.55 -2.4 5.15 -1.9 5.0 -0.5 3.7 0.15 1.5 -0.45 1.55 -1.1 5.15 -1.9" fill="none" stroke="#000000" stroke-linecap="round" stroke-linejoin="round" stroke-width="0.05"/>
    <path d="M4.2 -0.45 L3.8 -0.25 Q3.55 -0.25 3.4 -0.45 3.25 -0.65 3.25 -0.9 L3.4 -1.35 Q3.55 -1.55 3.8 -1.55 L4.2 -1.35 4.35 -0.9 4.2 -0.45 Z" fill="none" stroke="#000000" stroke-linecap="round" stroke-linejoin="round" stroke-width="0.05"/>
  </g>
  <defs>
    <radialGradient cx="0" cy="0" gradientTransform="matrix(0.0114, 0.0, 0.0, 0.0114, -0.85, -6.45)" gradientUnits="userSpaceOnUse" id="gradient0" r="819.2" spreadMethod="pad">
      <stop offset="0.0" stop-color="#eea600"/>
      <stop offset="1.0" stop-color="#a04001"/>
    </radialGradient>
  </defs>
</svg>
