<?xml version="1.0" encoding="UTF-8" standalone="no"?>
<svg xmlns:xlink="http://www.w3.org/1999/xlink" height="15.0px" width="11.9px" xmlns="http://www.w3.org/2000/svg">
  <g transform="matrix(1.0, 0.0, 0.0, 1.0, 6.45, 8.25)">
    <path d="M4.75 -2.15 L4.95 4.55 1.25 3.6 -0.05 4.4 -2.3 -0.5 2.65 -4.7 4.75 -2.15" fill="#181412" fill-rule="evenodd" stroke="none"/>
    <path d="M4.75 -2.15 L4.95 4.55 1.25 3.6 -0.05 4.4 -2.3 -0.5 2.65 -4.7 4.75 -2.15 Z" fill="none" stroke="#000000" stroke-linecap="round" stroke-linejoin="round" stroke-width="0.05"/>
    <path d="M4.35 -2.4 L4.25 -1.85 4.2 0.6 3.7 1.15 3.7 1.25 2.7 4.8 -1.4 1.7 -2.15 0.3 -2.4 0.1 -2.55 -0.1 Q-3.75 -1.35 -3.75 -3.15 -3.75 -4.95 -2.55 -6.25 -1.35 -7.55 0.35 -7.55 2.0 -7.55 3.2 -6.25 4.4 -4.95 4.4 -3.15 L4.35 -2.4" fill="url(#gradient0)" fill-rule="evenodd" stroke="none"/>
    <path d="M4.35 -2.4 L4.25 -1.85 4.2 0.6 3.7 1.15 3.7 1.25 2.7 4.8 -1.4 1.7 -2.15 0.3 -2.4 0.1 -2.55 -0.1 Q-3.75 -1.35 -3.75 -3.15 -3.75 -4.95 -2.55 -6.25 -1.35 -7.55 0.35 -7.55 2.0 -7.55 3.2 -6.25 4.4 -4.95 4.4 -3.15 L4.35 -2.4 Z" fill="none" stroke="#000000" stroke-linecap="round" stroke-linejoin="round" stroke-width="0.05"/>
    <path d="M2.4 -1.25 L1.55 -1.4 Q1.8 -2.2 2.8 -2.2 3.4 -2.2 3.4 -1.7 3.4 -1.25 2.4 -1.25" fill="#000000" fill-rule="evenodd" stroke="none"/>
    <path d="M3.4 1.15 Q3.4 2.1 2.65 2.1 2.1 2.1 1.95 1.75 1.85 2.05 1.85 1.6 L3.15 0.95 Q3.4 0.95 3.4 1.15" fill="#e75c5c" fill-rule="evenodd" stroke="none"/>
    <path d="M0.85 -1.05 Q1.0 -0.1 0.65 1.1 L0.05 3.7 -0.85 6.75 Q-3.15 4.5 -6.45 3.15 L-6.35 3.0 -6.45 2.95 -6.2 2.3 -4.85 0.25 Q-3.85 -1.15 -4.05 -2.45 -4.2 -3.9 -3.75 -4.55 L-3.35 -5.75 Q-3.0 -6.8 -2.15 -7.4 -1.15 -8.25 0.05 -8.2 1.8 -8.5 2.9 -7.35 L4.45 -5.4 5.45 -2.35 0.85 -1.05" fill="url(#gradient1)" fill-rule="evenodd" stroke="none"/>
    <path d="M0.85 -1.05 Q1.0 -0.1 0.65 1.1 L0.05 3.7 -0.85 6.75 Q-3.15 4.5 -6.45 3.15 L-6.35 3.0 -6.45 2.95 -6.2 2.3 -4.85 0.25 Q-3.85 -1.15 -4.05 -2.45 -4.2 -3.9 -3.75 -4.55 L-3.35 -5.75 Q-3.0 -6.8 -2.15 -7.4 -1.15 -8.25 0.05 -8.2 1.8 -8.5 2.9 -7.35 L4.45 -5.4 5.45 -2.35 0.85 -1.05 Z" fill="none" stroke="#000000" stroke-linecap="round" stroke-linejoin="round" stroke-width="0.05"/>
  </g>
  <defs>
    <radialGradient cx="0" cy="0" gradientTransform="matrix(0.0085, 0.0, 0.0, 0.0085, 0.5, -0.55)" gradientUnits="userSpaceOnUse" id="gradient0" r="819.2" spreadMethod="pad">
      <stop offset="0.20392156862745098" stop-color="#e2c2a5"/>
      <stop offset="0.5607843137254902" stop-color="#e1b87b"/>
      <stop offset="1.0" stop-color="#cca277"/>
    </radialGradient>
    <radialGradient cx="0" cy="0" gradientTransform="matrix(0.0117, 0.0, 0.0, 0.0117, 0.5, -2.0)" gradientUnits="userSpaceOnUse" id="gradient1" r="819.2" spreadMethod="pad">
      <stop offset="0.0" stop-color="#5f4d41"/>
      <stop offset="1.0" stop-color="#1c1a17"/>
    </radialGradient>
  </defs>
</svg>
