<?xml version="1.0" encoding="UTF-8" standalone="no"?>
<svg xmlns:xlink="http://www.w3.org/1999/xlink" height="20.4px" width="8.0px" xmlns="http://www.w3.org/2000/svg">
  <g transform="matrix(1.0, 0.0, 0.0, 1.0, 3.6, 8.5)">
    <path d="M-3.6 -3.55 Q-3.6 -5.65 -2.4 -7.1 -1.2 -8.55 0.45 -8.5 2.1 -8.5 3.25 -7.0 4.4 -5.55 4.4 -3.45 L3.0 5.7 2.95 5.9 -3.0 5.55 2.95 5.9 2.5 8.75 1.55 10.95 Q0.45 12.4 -0.75 11.65 -1.9 10.95 -2.5 8.6 L-2.55 8.4 -3.0 5.55 -2.95 4.1 -3.6 -3.55 M2.5 8.75 L-2.5 8.6 2.5 8.75" fill="url(#gradient0)" fill-rule="evenodd" stroke="none"/>
    <path d="M-3.6 -3.55 L-2.95 4.1 -3.0 5.55 2.95 5.9 3.0 5.7 4.4 -3.45 M2.5 8.75 L2.95 5.9 M2.5 8.75 L1.55 10.95 Q0.45 12.4 -0.75 11.65 -1.9 10.95 -2.5 8.6 L-2.55 8.4 -3.0 5.55 M-2.5 8.6 L2.5 8.75" fill="none" stroke="#000000" stroke-linecap="round" stroke-linejoin="round" stroke-width="0.05"/>
  </g>
  <defs>
    <radialGradient cx="0" cy="0" gradientTransform="matrix(0.0224, 0.0, 0.0, 0.0224, -0.15, -6.35)" gradientUnits="userSpaceOnUse" id="gradient0" r="819.2" spreadMethod="pad">
      <stop offset="0.0" stop-color="#76717d"/>
      <stop offset="0.30980392156862746" stop-color="#2f2f2f"/>
      <stop offset="1.0" stop-color="#090909"/>
    </radialGradient>
  </defs>
</svg>
