<?xml version="1.0" encoding="UTF-8" standalone="no"?>
<svg xmlns:xlink="http://www.w3.org/1999/xlink" height="34.6px" width="20.45px" xmlns="http://www.w3.org/2000/svg">
  <g transform="matrix(1.0, 0.0, 0.0, 1.0, 10.4, 16.4)">
    <path d="M7.85 -7.65 L7.5 -6.95 7.4 -7.8 7.85 -7.65 M-5.85 -4.35 L-6.4 -5.55 -6.15 -5.6 -5.85 -4.35" fill="url(#gradient0)" fill-rule="evenodd" stroke="none"/>
    <path d="M5.7 10.05 L5.8 10.05 5.85 11.2 Q1.6 11.55 -4.8 9.75 L-4.7 8.75 -2.3 9.05 5.7 10.05 M5.95 12.95 L5.95 13.05 2.15 16.45 -5.0 12.6 -4.95 11.7 Q1.55 13.4 5.95 12.95" fill="url(#gradient1)" fill-rule="evenodd" stroke="none"/>
    <path d="M5.85 11.2 L5.95 12.95 Q1.55 13.4 -4.95 11.7 L-4.8 9.75 Q1.6 11.55 5.85 11.2" fill="url(#gradient2)" fill-rule="evenodd" stroke="none"/>
    <path d="M6.55 -1.7 L6.55 -1.65 4.95 5.05 5.0 5.05 Q6.0 7.7 5.7 10.05 L-2.3 9.05 -2.5 6.7 Q-2.5 2.85 -0.65 0.1 1.2 -2.6 3.8 -2.6 L4.65 -2.5 Q5.65 -2.35 6.55 -1.7" fill="url(#gradient3)" fill-rule="evenodd" stroke="none"/>
    <path d="M7.5 -6.95 L7.75 -4.2 7.3 -3.3 7.1 -2.95 6.55 -1.7 Q5.65 -2.35 4.65 -2.5 L3.8 -2.6 Q1.2 -2.6 -0.65 0.1 -2.5 2.85 -2.5 6.7 L-2.3 9.05 -4.7 8.75 -5.1 4.45 -4.95 4.45 -4.95 4.4 Q-4.6 -0.75 -5.85 -4.35 L-6.15 -5.6 Q-3.4 -6.7 -2.4 -9.3 -1.95 -10.55 -1.9 -12.15 L-1.9 -12.65 -1.95 -14.05 -1.75 -14.1 -0.05 -16.4 4.4 -13.1 3.35 -12.35 5.4 -11.5 7.4 -7.8 7.5 -6.95" fill="url(#gradient4)" fill-rule="evenodd" stroke="none"/>
    <path d="M-6.15 -5.6 L-6.2 -5.7 -6.25 -5.7 -9.9 -7.8 Q-9.9 -11.6 -5.2 -13.65 L-1.95 -14.05 -1.9 -12.65 -1.9 -12.15 Q-1.95 -10.55 -2.4 -9.3 -3.4 -6.7 -6.15 -5.6" fill="url(#gradient5)" fill-rule="evenodd" stroke="none"/>
    <path d="M4.4 -13.1 L4.65 -13.1 Q9.15 -11.95 9.95 -9.1 L7.85 -7.65 7.4 -7.8 5.4 -11.5 3.35 -12.35 4.4 -13.1" fill="url(#gradient6)" fill-rule="evenodd" stroke="none"/>
    <path d="M4.65 -13.1 Q9.15 -11.95 9.95 -9.1 M7.85 -7.65 L7.5 -6.95 7.75 -4.2 7.3 -3.3 7.1 -2.95 6.55 -1.7 6.55 -1.65 4.95 5.05 5.0 5.05 Q6.0 7.7 5.7 10.05 L5.8 10.05 5.85 11.2 5.95 12.95 5.95 13.05 M-5.0 12.6 L-4.95 11.7 -4.8 9.75 -4.7 8.75 -5.1 4.45 -5.1 4.4 -4.95 4.45 -4.95 4.4 Q-4.6 -0.75 -5.85 -4.35 L-6.15 -5.6 -6.2 -5.7 -6.25 -5.7 M-9.9 -7.8 Q-9.9 -11.6 -5.2 -13.65 L-1.95 -14.05 -1.75 -14.1 -0.05 -16.4 4.4 -13.1 3.35 -12.35 M7.4 -7.8 L7.5 -6.95 M-2.3 9.05 L5.7 10.05 M-2.3 9.05 L-4.7 8.75 M-4.8 9.75 Q1.6 11.55 5.85 11.2 M-4.95 11.7 Q1.55 13.4 5.95 12.95" fill="none" stroke="#000000" stroke-linecap="round" stroke-linejoin="round" stroke-width="0.05"/>
    <path d="M0.9 -13.6 Q0.7 -15.15 1.4 -15.15 2.4 -15.15 3.05 -13.75 L3.55 -12.35 4.6 -12.35 Q5.25 -12.35 5.25 -11.75 L4.8 -11.1 4.7 -11.15 4.7 -11.1 4.2 -10.7 4.95 -11.15 5.6 -11.0 5.7 -10.95 Q3.85 -9.9 3.65 -9.9 2.2 -9.9 -2.0 -11.9 L-2.0 -12.0 -3.0 -12.2 -3.8 -11.85 -4.5 -11.85 -4.55 -12.05 Q-4.55 -12.45 -2.1 -12.95 L-1.85 -12.85 -0.65 -12.5 1.2 -12.4 0.9 -13.6 M4.35 -9.35 Q4.95 -7.85 4.95 -4.5 L4.65 -2.8 5.1 -2.5 Q5.65 -2.15 6.5 -2.1 L6.6 -1.8 Q6.6 -1.5 5.9 -1.5 L4.35 -2.2 4.25 -2.0 4.25 -1.95 4.25 -1.3 5.0 -0.75 4.2 -0.65 3.65 4.1 4.6 4.25 4.95 4.55 4.95 4.65 3.6 4.65 3.3 6.65 3.2 6.75 2.7 5.6 2.7 4.7 1.15 5.1 Q0.6 5.4 0.35 5.85 L0.3 5.55 Q0.3 4.2 2.75 4.1 2.8 1.2 3.3 -0.5 0.9 -0.1 0.8 0.75 L0.75 0.8 Q0.3 0.8 0.3 0.45 0.3 -1.25 3.55 -1.35 L4.0 -2.15 3.9 -2.3 Q3.9 -3.0 4.4 -4.65 L4.4 -4.75 3.95 -8.85 Q3.95 -9.3 4.35 -9.35" fill="#000000" fill-opacity="0.3019608" fill-rule="evenodd" stroke="none"/>
    <path d="M3.45 -12.4 L3.7 -12.6 4.4 -13.1 4.55 -13.1 4.35 -11.95 3.6 -12.25 3.7 -12.6 3.6 -12.25 3.35 -12.35 3.45 -12.4" fill="url(#gradient7)" fill-rule="evenodd" stroke="none"/>
    <path d="M-5.85 -4.35 L-6.4 -5.55 -6.15 -5.6 -5.85 -4.35" fill="url(#gradient8)" fill-rule="evenodd" stroke="none"/>
    <path d="M2.5 9.65 L1.25 9.5 1.35 8.6 2.5 9.65" fill="url(#gradient9)" fill-rule="evenodd" stroke="none"/>
    <path d="M-2.75 -13.95 L-1.95 -14.05 -1.9 -12.65 -1.9 -12.15 -2.0 -11.05 -2.75 -13.95" fill="url(#gradient10)" fill-rule="evenodd" stroke="none"/>
    <path d="M1.25 9.5 L-10.4 16.5 -4.9 6.5 -5.1 4.45 -4.95 4.45 -4.95 4.4 Q-4.6 -0.75 -5.85 -4.35 L-6.15 -5.6 -6.2 -5.7 -6.25 -5.7 -9.9 -7.8 Q-9.9 -11.6 -5.2 -13.65 L-2.85 -13.95 -4.3 -11.7 -2.3 -9.8 -4.05 -7.4 1.35 1.85 1.4 2.05 1.95 4.3 1.35 8.6 1.25 9.5 M1.35 4.65 L1.45 4.4 1.35 4.1 1.1 4.0 0.85 4.1 0.75 4.4 0.85 4.65 1.1 4.8 1.35 4.65 M1.05 6.5 L0.8 6.4 0.55 6.5 0.45 6.85 0.55 7.15 0.8 7.3 1.05 7.15 1.15 6.85 1.05 6.5" fill="url(#gradient11)" fill-rule="evenodd" stroke="none"/>
    <path d="M4.75 -13.1 Q9.15 -11.9 9.95 -9.1 L7.85 -7.65 7.5 -6.95 7.75 -4.2 7.3 -3.3 7.1 -2.95 6.55 -1.7 6.55 -1.65 4.95 5.05 5.0 5.05 5.2 5.65 5.65 7.45 6.05 8.9 10.05 18.2 2.5 9.65 1.35 8.6 1.95 4.3 1.4 2.05 1.45 1.85 5.95 -5.85 4.65 -8.2 6.05 -8.95 4.75 -13.1" fill="url(#gradient12)" fill-rule="evenodd" stroke="none"/>
    <path d="M-2.85 -13.95 L-2.75 -13.95 -2.0 -11.05 -0.1 -3.6 0.5 -1.25 1.35 1.85 -4.05 -7.4 -2.3 -9.8 -4.3 -11.7 -2.85 -13.95" fill="url(#gradient13)" fill-rule="evenodd" stroke="none"/>
    <path d="M4.65 -13.1 L4.75 -13.1 6.05 -8.95 4.65 -8.2 5.95 -5.85 1.45 1.85 2.35 -2.35 2.9 -4.95 4.35 -11.95 4.55 -13.1 4.65 -13.1" fill="url(#gradient14)" fill-rule="evenodd" stroke="none"/>
    <path d="M1.35 4.65 L1.1 4.8 0.85 4.65 0.75 4.4 0.85 4.1 1.1 4.0 1.35 4.1 1.45 4.4 1.35 4.65 M1.05 6.5 L1.15 6.85 1.05 7.15 0.8 7.3 0.55 7.15 0.45 6.85 0.55 6.5 0.8 6.4 1.05 6.5" fill="#333333" fill-rule="evenodd" stroke="none"/>
    <path d="M3.45 -12.4 L3.35 -12.4 3.45 -12.4 3.35 -12.35 3.35 -12.4 2.75 -12.2 0.2 -12.2 -1.75 -14.1 -0.05 -16.4 4.4 -13.1 3.7 -12.6 3.45 -12.4 M-1.95 -14.05 L-1.8 -14.1 -1.75 -14.1 1.45 -8.7 -0.1 -3.6 -2.0 -11.05 -1.9 -12.15 -1.9 -12.65 -1.95 -14.05 M1.65 -8.85 L3.6 -12.25 4.35 -11.95 2.9 -4.95 1.65 -8.85" fill="url(#gradient15)" fill-rule="evenodd" stroke="none"/>
    <path d="M2.35 -2.35 L1.45 1.85 1.4 2.05 1.35 1.85 0.5 -1.25 Q1.35 -2.05 2.35 -2.35" fill="url(#gradient16)" fill-rule="evenodd" stroke="none"/>
    <path d="M1.45 -8.7 L1.5 -8.6 1.65 -8.85 2.9 -4.95 2.35 -2.35 Q1.35 -2.05 0.5 -1.25 L-0.1 -3.6 1.45 -8.7" fill="url(#gradient17)" fill-rule="evenodd" stroke="none"/>
    <path d="M-1.75 -14.1 L0.2 -12.2 2.75 -12.2 3.35 -12.4 3.35 -12.35 3.6 -12.25 1.65 -8.85 1.5 -8.6 1.45 -8.7 -1.75 -14.1" fill="url(#gradient18)" fill-rule="evenodd" stroke="none"/>
    <path d="M3.35 -12.4 L3.45 -12.4 3.7 -12.6 4.4 -13.1 -0.05 -16.4 -1.75 -14.1 0.2 -12.2 2.75 -12.2 3.35 -12.4 M3.35 -12.35 L3.45 -12.4 M4.65 -13.1 L4.75 -13.1 Q9.15 -11.9 9.95 -9.1 M7.85 -7.65 L7.5 -6.95 7.75 -4.2 7.3 -3.3 7.1 -2.95 6.55 -1.7 6.55 -1.65 4.95 5.05 5.0 5.05 5.2 5.65 5.65 7.45 6.05 8.9 10.05 18.2 2.5 9.65 1.35 8.6 1.95 4.3 1.4 2.05 1.45 1.85 5.95 -5.85 4.65 -8.2 6.05 -8.95 4.75 -13.1 M1.25 9.5 L-10.4 16.5 -4.9 6.5 -5.1 4.45 -5.1 4.4 -4.95 4.45 -4.95 4.4 Q-4.6 -0.75 -5.85 -4.35 L-6.15 -5.6 -6.2 -5.7 -6.25 -5.7 M-9.9 -7.8 Q-9.9 -11.6 -5.2 -13.65 L-2.85 -13.95 -2.75 -13.95 -1.95 -14.05 -1.8 -14.1 -1.75 -14.1 1.45 -8.7 1.5 -8.6 1.65 -8.85 3.6 -12.25 3.7 -12.6 M4.55 -13.1 L4.35 -11.95 2.9 -4.95 2.35 -2.35 1.45 1.85 M0.5 -1.25 L1.35 1.85 1.4 2.05 M1.65 -8.85 L2.9 -4.95 M1.35 4.65 L1.1 4.8 0.85 4.65 0.75 4.4 0.85 4.1 1.1 4.0 1.35 4.1 1.45 4.4 1.35 4.65 M1.05 6.5 L1.15 6.85 1.05 7.15 0.8 7.3 0.55 7.15 0.45 6.85 0.55 6.5 0.8 6.4 1.05 6.5 M1.25 9.5 L1.35 8.6 M-2.85 -13.95 L-4.3 -11.7 -2.3 -9.8 -4.05 -7.4 1.35 1.85 M-2.0 -11.05 L-0.1 -3.6 1.45 -8.7 M-2.75 -13.95 L-2.0 -11.05 M0.5 -1.25 L-0.1 -3.6" fill="none" stroke="#000000" stroke-linecap="round" stroke-linejoin="round" stroke-width="0.05"/>
  </g>
  <defs>
    <radialGradient cx="0" cy="0" gradientTransform="matrix(0.0222, 0.0, 0.0, 0.0222, 2.85, -1.75)" gradientUnits="userSpaceOnUse" id="gradient0" r="819.2" spreadMethod="pad">
      <stop offset="0.0" stop-color="#6a7249"/>
      <stop offset="1.0" stop-color="#393a2c"/>
    </radialGradient>
    <radialGradient cx="0" cy="0" gradientTransform="matrix(0.0076, 0.0, 0.0, 0.0076, 0.4, 10.45)" gradientUnits="userSpaceOnUse" id="gradient1" r="819.2" spreadMethod="pad">
      <stop offset="0.0" stop-color="#f3efe9"/>
      <stop offset="0.6196078431372549" stop-color="#c4b699"/>
      <stop offset="1.0" stop-color="#949bb8"/>
    </radialGradient>
    <radialGradient cx="0" cy="0" gradientTransform="matrix(0.0076, 0.0, 0.0, 0.0076, 0.4, 10.45)" gradientUnits="userSpaceOnUse" id="gradient2" r="819.2" spreadMethod="pad">
      <stop offset="0.0" stop-color="#756260"/>
      <stop offset="0.6196078431372549" stop-color="#3d3a3a"/>
      <stop offset="1.0" stop-color="#595959"/>
    </radialGradient>
    <radialGradient cx="0" cy="0" gradientTransform="matrix(0.0148, 0.0, 0.0, 0.0148, 3.45, 9.45)" gradientUnits="userSpaceOnUse" id="gradient3" r="819.2" spreadMethod="pad">
      <stop offset="0.0" stop-color="#5a5958"/>
      <stop offset="0.6196078431372549" stop-color="#473d38"/>
      <stop offset="1.0" stop-color="#13100f"/>
    </radialGradient>
    <radialGradient cx="0" cy="0" gradientTransform="matrix(0.0098, 0.0011, -0.0018, 0.0157, 0.8, -3.65)" gradientUnits="userSpaceOnUse" id="gradient4" r="819.2" spreadMethod="pad">
      <stop offset="0.0" stop-color="#5a5958"/>
      <stop offset="0.6196078431372549" stop-color="#473d38"/>
      <stop offset="1.0" stop-color="#13100f"/>
    </radialGradient>
    <radialGradient cx="0" cy="0" gradientTransform="matrix(0.0076, 0.0, 0.0, 0.0076, -6.55, -9.95)" gradientUnits="userSpaceOnUse" id="gradient5" r="819.2" spreadMethod="pad">
      <stop offset="0.0" stop-color="#5a5958"/>
      <stop offset="0.6196078431372549" stop-color="#473d38"/>
      <stop offset="1.0" stop-color="#13100f"/>
    </radialGradient>
    <radialGradient cx="0" cy="0" gradientTransform="matrix(0.0065, 0.0, 0.0, 0.0065, 7.6, -9.15)" gradientUnits="userSpaceOnUse" id="gradient6" r="819.2" spreadMethod="pad">
      <stop offset="0.0" stop-color="#5a5958"/>
      <stop offset="0.6196078431372549" stop-color="#473d38"/>
      <stop offset="1.0" stop-color="#13100f"/>
    </radialGradient>
    <radialGradient cx="0" cy="0" gradientTransform="matrix(0.0065, 0.0, 0.0, 0.0065, 7.6, -9.15)" gradientUnits="userSpaceOnUse" id="gradient7" r="819.2" spreadMethod="pad">
      <stop offset="0.0" stop-color="#5a5958"/>
      <stop offset="0.6196078431372549" stop-color="#473d38"/>
      <stop offset="1.0" stop-color="#13100f"/>
    </radialGradient>
    <radialGradient cx="0" cy="0" gradientTransform="matrix(0.0222, 0.0, 0.0, 0.0222, 2.85, -1.75)" gradientUnits="userSpaceOnUse" id="gradient8" r="819.2" spreadMethod="pad">
      <stop offset="0.0" stop-color="#6a7249"/>
      <stop offset="1.0" stop-color="#393a2c"/>
    </radialGradient>
    <radialGradient cx="0" cy="0" gradientTransform="matrix(0.0148, 0.0, 0.0, 0.0148, 3.45, 9.45)" gradientUnits="userSpaceOnUse" id="gradient9" r="819.2" spreadMethod="pad">
      <stop offset="0.0" stop-color="#5a5958"/>
      <stop offset="0.6196078431372549" stop-color="#473d38"/>
      <stop offset="1.0" stop-color="#13100f"/>
    </radialGradient>
    <radialGradient cx="0" cy="0" gradientTransform="matrix(0.0076, 0.0, 0.0, 0.0076, -6.55, -9.95)" gradientUnits="userSpaceOnUse" id="gradient10" r="819.2" spreadMethod="pad">
      <stop offset="0.0" stop-color="#5a5958"/>
      <stop offset="0.6196078431372549" stop-color="#473d38"/>
      <stop offset="1.0" stop-color="#13100f"/>
    </radialGradient>
    <radialGradient cx="0" cy="0" gradientTransform="matrix(0.0314, 0.0, 0.0, 0.0314, -5.6, -11.3)" gradientUnits="userSpaceOnUse" id="gradient11" r="819.2" spreadMethod="pad">
      <stop offset="0.0" stop-color="#f3efe9"/>
      <stop offset="0.6196078431372549" stop-color="#c4b699"/>
      <stop offset="1.0" stop-color="#949bb8"/>
    </radialGradient>
    <radialGradient cx="0" cy="0" gradientTransform="matrix(0.0294, 0.0, 0.0, 0.0294, 7.2, -10.6)" gradientUnits="userSpaceOnUse" id="gradient12" r="819.2" spreadMethod="pad">
      <stop offset="0.0" stop-color="#f3efe9"/>
      <stop offset="0.6196078431372549" stop-color="#c4b699"/>
      <stop offset="1.0" stop-color="#949bb8"/>
    </radialGradient>
    <radialGradient cx="0" cy="0" gradientTransform="matrix(0.0106, 0.0, 0.0, 0.0106, -1.2, -5.4)" gradientUnits="userSpaceOnUse" id="gradient13" r="819.2" spreadMethod="pad">
      <stop offset="0.0" stop-color="#f3efe9"/>
      <stop offset="0.6196078431372549" stop-color="#c4b699"/>
      <stop offset="1.0" stop-color="#949bb8"/>
    </radialGradient>
    <radialGradient cx="0" cy="0" gradientTransform="matrix(0.0137, 0.0, 0.0, 0.0137, 3.2, -2.0)" gradientUnits="userSpaceOnUse" id="gradient14" r="819.2" spreadMethod="pad">
      <stop offset="0.0" stop-color="#f3efe9"/>
      <stop offset="0.6196078431372549" stop-color="#c4b699"/>
      <stop offset="1.0" stop-color="#949bb8"/>
    </radialGradient>
    <radialGradient cx="0" cy="0" gradientTransform="matrix(0.0146, 0.0, 0.0, 0.0146, 1.0, -2.8)" gradientUnits="userSpaceOnUse" id="gradient15" r="819.2" spreadMethod="pad">
      <stop offset="0.0" stop-color="#5a5958"/>
      <stop offset="0.47058823529411764" stop-color="#463c37"/>
      <stop offset="1.0" stop-color="#13100f"/>
    </radialGradient>
    <radialGradient cx="0" cy="0" gradientTransform="matrix(0.0148, 0.0, 0.0, 0.0148, 3.45, 9.45)" gradientUnits="userSpaceOnUse" id="gradient16" r="819.2" spreadMethod="pad">
      <stop offset="0.0" stop-color="#f3efe9"/>
      <stop offset="0.6196078431372549" stop-color="#c4b699"/>
      <stop offset="1.0" stop-color="#949bb8"/>
    </radialGradient>
    <radialGradient cx="0" cy="0" gradientTransform="matrix(0.0051, 0.0, 0.0, 0.0051, 1.4, -5.35)" gradientUnits="userSpaceOnUse" id="gradient17" r="819.2" spreadMethod="pad">
      <stop offset="0.0" stop-color="#f3efe9"/>
      <stop offset="0.6196078431372549" stop-color="#c4b699"/>
      <stop offset="1.0" stop-color="#949bb8"/>
    </radialGradient>
    <radialGradient cx="0" cy="0" gradientTransform="matrix(0.0046, 0.0, 0.0, 0.0046, 0.25, -10.85)" gradientUnits="userSpaceOnUse" id="gradient18" r="819.2" spreadMethod="pad">
      <stop offset="0.0" stop-color="#f3efe9"/>
      <stop offset="0.6196078431372549" stop-color="#c4b699"/>
      <stop offset="1.0" stop-color="#949bb8"/>
    </radialGradient>
  </defs>
</svg>
