<?xml version="1.0" encoding="UTF-8" standalone="no"?>
<svg xmlns:xlink="http://www.w3.org/1999/xlink" height="17.8px" width="13.5px" xmlns="http://www.w3.org/2000/svg">
  <g transform="matrix(1.0, 0.0, 0.0, 1.0, 4.25, 8.05)">
    <path d="M3.15 -3.6 L3.3 -3.65 3.3 -3.75 3.35 -3.8 3.65 -3.85 3.75 -3.85 3.8 -3.95 3.8 -4.0 3.9 -4.0 3.95 -4.0 4.05 -3.95 4.1 -3.95 4.15 -3.9 4.3 -3.95 4.65 -4.1 4.75 -4.2 4.75 -4.3 4.8 -4.35 4.85 -4.4 4.9 -4.4 5.6 -4.1 6.2 -3.65 6.75 -3.15 6.75 -3.05 6.75 -3.0 6.75 -2.9 6.75 -2.85 6.75 -2.75 6.7 -2.65 6.7 -2.55 6.75 -2.5 6.75 -2.4 6.75 -2.3 6.75 -2.2 6.7 -2.1 6.5 -2.1 6.3 -2.35 6.15 -2.6 5.95 -2.75 5.9 -2.8 5.95 -2.65 6.1 -2.45 6.3 -2.2 6.35 -2.0 6.3 -1.85 6.15 -1.8 6.15 -1.7 6.05 -1.1 6.0 -1.1 5.9 -1.2 5.8 -1.25 5.9 -0.9 6.0 -0.55 6.05 -0.15 6.0 -0.1 Q5.6 -0.2 5.4 -0.75 L5.05 -1.45 4.9 -1.55 4.6 -1.8 4.2 -2.0 4.1 -1.95 4.0 -1.9 Q3.65 -2.0 3.4 -2.2 L3.0 -2.55 2.45 -3.0 2.3 -3.15 Q2.25 -2.95 1.65 -2.8 1.1 -2.65 0.75 -2.2 L0.4 -1.8 0.35 -1.0 0.35 -0.95 0.3 -0.3 Q0.35 0.45 1.1 0.85 L1.5 1.0 3.5 1.45 4.25 1.65 4.8 2.2 Q5.3 2.9 5.4 3.85 L5.7 5.4 Q6.1 6.6 5.85 7.85 L5.85 8.4 Q5.9 10.3 4.15 9.55 L1.65 8.45 1.05 7.85 Q0.65 6.7 -0.4 6.15 -0.95 5.85 -1.05 5.2 -1.15 4.45 -1.4 3.8 L-1.55 4.1 -1.7 4.8 -1.95 5.45 -2.0 5.45 -2.4 4.9 -2.45 4.2 -2.35 3.55 -2.35 3.5 -2.35 3.55 -2.6 3.75 -2.8 4.1 -3.05 4.25 -3.15 4.0 -3.1 3.8 -3.1 3.5 -3.1 3.4 -3.25 3.5 -3.35 3.65 -3.55 3.7 -3.7 3.5 -3.65 3.3 -3.65 3.1 -3.65 3.05 -3.8 3.15 -4.0 3.3 -4.1 3.4 Q-4.35 2.85 -3.9 2.3 L-3.3 1.45 -3.45 1.4 -3.45 1.35 -3.5 1.25 -3.5 1.15 -3.5 1.05 -3.6 1.2 -3.75 1.35 -3.9 1.35 Q-4.0 0.85 -3.55 0.45 L-3.15 -0.05 -3.35 -0.05 -3.4 -0.1 -3.4 -0.15 -3.4 -0.25 -3.35 -0.4 -3.35 -0.45 -3.45 -0.6 -3.45 -0.8 -3.55 -0.8 -3.6 -0.8 -3.75 -1.0 -3.7 -1.3 -3.7 -1.5 -3.65 -1.65 -3.8 -1.45 -4.0 -1.2 -4.15 -1.1 -4.25 -1.15 -3.8 -2.15 -3.0 -3.05 -2.75 -3.35 -2.8 -3.4 -2.7 -3.4 -2.65 -3.65 -2.0 -4.7 -2.15 -4.1 -1.95 -4.35 -1.6 -4.55 Q-1.15 -4.65 -0.85 -4.35 L-0.35 -3.85 -0.15 -3.7 0.0 -4.3 0.1 -3.4 0.1 -3.35 0.1 -3.25 0.85 -3.4 Q1.9 -3.3 2.35 -3.8 L2.35 -3.85 2.6 -3.9 2.85 -3.8 3.05 -3.65 3.15 -3.6 M2.6 2.45 L2.25 2.5 2.2 2.55 2.1 2.9 2.1 3.25 2.45 3.65 3.1 4.05 3.3 4.1 Q3.35 3.6 3.75 3.3 L4.2 2.8 2.6 2.45" fill="url(#gradient0)" fill-rule="evenodd" stroke="none"/>
    <path d="M7.2 -5.2 L9.25 -4.45 -2.95 -2.95 Q-2.8 -4.75 -1.85 -6.85 -0.35 -8.05 1.45 -8.05 4.0 -6.85 5.1 -5.15 L7.2 -5.2" fill="url(#gradient1)" fill-rule="evenodd" stroke="none"/>
    <path d="M7.2 -5.2 L5.1 -5.15 Q4.0 -6.85 1.45 -8.05 -0.35 -8.05 -1.85 -6.85 -2.8 -4.75 -2.95 -2.95 L9.25 -4.45 7.2 -5.2 Z" fill="none" stroke="#000000" stroke-linecap="round" stroke-linejoin="round" stroke-width="0.05"/>
  </g>
  <defs>
    <radialGradient cx="0" cy="0" gradientTransform="matrix(0.0233, 0.0, 0.0, 0.0134, 1.1, 0.9)" gradientUnits="userSpaceOnUse" id="gradient0" r="819.2" spreadMethod="pad">
      <stop offset="0.0" stop-color="#000000"/>
      <stop offset="1.0" stop-color="#000000"/>
    </radialGradient>
    <radialGradient cx="0" cy="0" gradientTransform="matrix(0.0135, 0.0, 0.0, 0.0135, -0.75, -6.0)" gradientUnits="userSpaceOnUse" id="gradient1" r="819.2" spreadMethod="pad">
      <stop offset="0.0" stop-color="#a25e5e"/>
      <stop offset="1.0" stop-color="#311313"/>
    </radialGradient>
  </defs>
</svg>
