<?xml version="1.0" encoding="UTF-8" standalone="no"?>
<svg xmlns:xlink="http://www.w3.org/1999/xlink" height="30.4px" width="9.3px" xmlns="http://www.w3.org/2000/svg">
  <g transform="matrix(1.0, 0.0, 0.0, 1.0, 4.6, 15.2)">
    <path d="M-3.1 -14.5 L-3.1 -14.55 -2.75 -14.8 -3.1 -14.5" fill="url(#gradient0)" fill-rule="evenodd" stroke="none"/>
    <path d="M2.3 -15.2 L3.85 -11.35 4.65 -5.5 4.05 -4.65 3.0 -0.15 2.85 4.95 1.6 13.4 0.15 14.95 Q-2.05 1.1 -2.0 -14.55 0.3 -13.95 2.3 -15.2" fill="url(#gradient1)" fill-rule="evenodd" stroke="none"/>
    <path d="M0.15 14.95 L-0.1 15.2 -3.55 13.15 -3.7 0.5 -4.6 -4.9 -3.1 -14.5 -2.75 -14.8 -2.0 -14.55 Q-2.05 1.1 0.15 14.95" fill="url(#gradient2)" fill-rule="evenodd" stroke="none"/>
    <path d="M2.3 -15.2 L3.85 -11.35 4.65 -5.5 4.05 -4.65 3.0 -0.15 2.85 4.95 1.6 13.4 M-3.55 13.15 L-3.7 0.5 -4.6 -4.9 -3.1 -14.5 -3.1 -14.55 -2.75 -14.8" fill="none" stroke="#000000" stroke-linecap="round" stroke-linejoin="round" stroke-width="0.05"/>
    <path d="M1.1 -7.2 L2.7 -6.75 2.85 -6.75 3.65 -7.55 3.8 -7.45 3.9 -8.3 4.2 -8.4 4.45 -7.75 4.65 -7.5 4.55 -6.8 4.55 -6.1 4.7 -5.7 Q3.15 -2.0 3.15 0.2 3.25 0.35 2.85 0.35 L2.85 0.3 2.85 0.9 2.85 1.4 2.9 2.9 2.75 5.55 2.6 5.55 2.35 1.85 2.25 0.75 Q1.45 -1.25 0.6 -4.3 L-0.3 -8.15 -0.3 -8.2 -0.3 -8.25 -0.05 -8.85 0.05 -8.65 1.1 -7.15 1.1 -7.2 M3.75 -7.05 L3.75 -7.1 3.55 -6.85 3.75 -6.95 3.75 -7.05" fill="#000000" fill-opacity="0.3019608" fill-rule="evenodd" stroke="none"/>
    <path d="M-3.55 4.25 L-3.9 2.1 -3.5 2.2 2.9 3.85 3.35 3.95 2.9 6.85 2.6 6.8 -3.55 4.25" fill="url(#gradient3)" fill-rule="evenodd" stroke="none"/>
    <path d="M-3.55 11.3 L-3.5 7.15 1.9 10.25 -3.5 11.45 -3.55 11.3" fill="url(#gradient4)" fill-rule="evenodd" stroke="none"/>
    <path d="M1.9 10.25 L-3.5 7.15 -3.9 6.9 -3.55 4.25 2.6 6.8 2.4 10.25 1.9 10.25" fill="url(#gradient5)" fill-rule="evenodd" stroke="none"/>
    <path d="M-3.5 11.45 L1.9 10.25 2.05 10.35 2.0 13.3 -3.7 13.1 -3.55 11.3 -3.55 11.45 -3.5 11.45" fill="url(#gradient6)" fill-rule="evenodd" stroke="none"/>
    <path d="M-3.65 0.35 L3.15 0.35 3.3 0.4 2.9 3.85 -3.5 2.2 -3.8 0.4 -3.65 0.35" fill="url(#gradient7)" fill-rule="evenodd" stroke="none"/>
    <path d="M3.35 -0.75 L-4.1 -1.95 -4.5 -3.4 Q0.05 -3.0 4.25 -3.95 L3.35 -0.75" fill="url(#gradient8)" fill-rule="evenodd" stroke="none"/>
    <path d="M3.35 -0.75 L3.55 -0.7 3.15 0.35 -3.65 0.35 -4.3 -1.85 -4.1 -1.95 3.35 -0.75" fill="url(#gradient9)" fill-rule="evenodd" stroke="none"/>
    <path d="M3.55 -0.7 L3.55 -0.75 3.35 -0.75 -4.1 -1.95 -4.5 -3.4 Q0.05 -3.0 4.25 -3.95 L3.35 -0.75 M-4.3 -1.85 L-3.65 0.35 3.15 0.35 3.55 -0.7 M-4.3 -1.85 L-4.35 -2.0 -4.1 -1.95 M-3.55 4.25 L-3.9 2.1 -3.5 2.2 -3.8 0.4 -3.8 0.35 -3.65 0.35 M-3.5 7.15 L-3.55 11.3 -3.7 13.1 2.0 13.3 2.05 10.35 1.9 10.25 -3.5 7.15 -3.9 6.9 -3.55 4.25 2.6 6.8 2.9 6.9 2.9 6.85 3.35 3.95 2.9 3.85 -3.5 2.2 M-3.5 11.45 L1.9 10.25 M-3.5 11.45 L-3.55 11.45 -3.55 11.3 M2.4 10.25 L2.6 6.8 M3.3 0.4 L3.3 0.35 3.15 0.35 M3.3 0.4 L2.9 3.85 M2.05 10.35 L2.35 10.5 2.4 10.25" fill="none" stroke="#000000" stroke-linecap="round" stroke-linejoin="round" stroke-width="0.05"/>
  </g>
  <defs>
    <radialGradient cx="0" cy="0" gradientTransform="matrix(0.008, 0.0, 0.0, 0.0211, -5.75, -1.05)" gradientUnits="userSpaceOnUse" id="gradient0" r="819.2" spreadMethod="pad">
      <stop offset="0.0" stop-color="#515b6a"/>
      <stop offset="0.6196078431372549" stop-color="#313036"/>
      <stop offset="1.0" stop-color="#202435"/>
    </radialGradient>
    <radialGradient cx="0" cy="0" gradientTransform="matrix(0.006, 0.0, 0.0, 0.0248, 1.6, -8.65)" gradientUnits="userSpaceOnUse" id="gradient1" r="819.2" spreadMethod="pad">
      <stop offset="0.0" stop-color="#44453a"/>
      <stop offset="0.6196078431372549" stop-color="#1a1c17"/>
      <stop offset="1.0" stop-color="#302e25"/>
    </radialGradient>
    <radialGradient cx="0" cy="0" gradientTransform="matrix(0.008, 0.0, 0.0, 0.0211, -5.75, -1.05)" gradientUnits="userSpaceOnUse" id="gradient2" r="819.2" spreadMethod="pad">
      <stop offset="0.0" stop-color="#44453a"/>
      <stop offset="0.6196078431372549" stop-color="#1a1c17"/>
      <stop offset="1.0" stop-color="#302e25"/>
    </radialGradient>
    <linearGradient gradientTransform="matrix(3.0E-4, -0.0023, 0.0045, 6.0E-4, -0.5, 4.5)" gradientUnits="userSpaceOnUse" id="gradient3" spreadMethod="pad" x1="-819.2" x2="819.2">
      <stop offset="0.0" stop-color="#44453a"/>
      <stop offset="1.0" stop-color="#7c6a50"/>
    </linearGradient>
    <linearGradient gradientTransform="matrix(3.0E-4, -0.0026, 0.0035, 4.0E-4, -0.95, 9.65)" gradientUnits="userSpaceOnUse" id="gradient4" spreadMethod="pad" x1="-819.2" x2="819.2">
      <stop offset="0.0" stop-color="#44453a"/>
      <stop offset="1.0" stop-color="#7c6a50"/>
    </linearGradient>
    <linearGradient gradientTransform="matrix(0.004, 0.0, 0.0, 0.0037, -0.65, 7.25)" gradientUnits="userSpaceOnUse" id="gradient5" spreadMethod="pad" x1="-819.2" x2="819.2">
      <stop offset="0.0" stop-color="#777865"/>
      <stop offset="1.0" stop-color="#7c6a50"/>
    </linearGradient>
    <linearGradient gradientTransform="matrix(0.0035, 0.0, 0.0, 0.0019, -0.85, 11.75)" gradientUnits="userSpaceOnUse" id="gradient6" spreadMethod="pad" x1="-819.2" x2="819.2">
      <stop offset="0.0" stop-color="#777865"/>
      <stop offset="1.0" stop-color="#7c6a50"/>
    </linearGradient>
    <linearGradient gradientTransform="matrix(-2.0E-4, 0.0022, -0.0043, -4.0E-4, -0.35, 1.8)" gradientUnits="userSpaceOnUse" id="gradient7" spreadMethod="pad" x1="-819.2" x2="819.2">
      <stop offset="0.0" stop-color="#777865"/>
      <stop offset="1.0" stop-color="#7c6a50"/>
    </linearGradient>
    <linearGradient gradientTransform="matrix(-2.0E-4, 0.002, -0.0053, -4.0E-4, -0.25, -2.75)" gradientUnits="userSpaceOnUse" id="gradient8" spreadMethod="pad" x1="-819.2" x2="819.2">
      <stop offset="0.0" stop-color="#777865"/>
      <stop offset="1.0" stop-color="#7c6a50"/>
    </linearGradient>
    <linearGradient gradientTransform="matrix(1.0E-4, -0.0014, 0.0049, 5.0E-4, -0.45, -0.45)" gradientUnits="userSpaceOnUse" id="gradient9" spreadMethod="pad" x1="-819.2" x2="819.2">
      <stop offset="0.0" stop-color="#44453a"/>
      <stop offset="1.0" stop-color="#7c6a50"/>
    </linearGradient>
  </defs>
</svg>
