<?xml version="1.0" encoding="UTF-8" standalone="no"?>
<svg xmlns:xlink="http://www.w3.org/1999/xlink" height="11.15px" width="16.5px" xmlns="http://www.w3.org/2000/svg">
  <g transform="matrix(1.0, 0.0, 0.0, 1.0, 0.0, 0.05)">
    <path d="M16.5 2.6 Q14.7 3.85 13.65 4.2 L13.7 4.4 Q14.2 6.45 15.15 7.85 L14.9 8.1 13.4 6.85 13.3 6.85 13.05 9.3 12.65 9.6 Q12.15 8.9 12.2 8.15 L12.4 7.2 12.3 6.65 12.15 6.45 Q8.75 6.8 6.6 8.5 4.95 9.75 4.65 11.1 L4.35 11.1 4.2 10.9 4.15 10.45 Q4.15 8.6 8.3 6.6 L10.0 5.75 10.85 4.35 11.3 3.7 10.8 2.95 Q9.3 1.8 3.8 2.1 3.55 3.85 1.55 3.85 L0.6 3.5 0.0 2.95 Q0.85 0.7 2.35 0.1 3.55 -0.35 3.8 0.8 L5.25 0.4 Q7.75 0.1 10.65 2.35 L11.6 3.1 11.75 2.45 11.9 2.45 12.0 1.9 12.4 1.7 13.45 3.55 Q13.6 3.05 14.2 2.75 L16.5 2.6 M1.75 2.35 L1.4 2.85 Q2.35 3.1 2.8 2.45 L3.1 1.4 Q3.1 0.15 2.25 0.75 1.35 1.4 1.25 2.55 L1.75 2.35" fill="#ffffff" fill-rule="evenodd" stroke="none"/>
  </g>
</svg>
