<?xml version="1.0" encoding="UTF-8" standalone="no"?>
<svg xmlns:xlink="http://www.w3.org/1999/xlink" height="20.75px" width="15.05px" xmlns="http://www.w3.org/2000/svg">
  <g transform="matrix(1.0, 0.0, 0.0, 1.0, 10.75, 11.45)">
    <path d="M4.3 -3.35 Q3.25 -0.85 3.2 2.25 0.95 3.15 -0.05 6.3 -0.5 4.6 -2.75 3.9 -7.55 5.55 -10.75 9.3 -8.9 4.0 -5.2 0.75 L-2.1 1.8 Q1.2 0.95 2.25 -4.05 L3.1 -11.45 4.3 -3.35" fill="url(#gradient0)" fill-rule="evenodd" stroke="none"/>
    <path d="M4.3 -3.35 Q3.25 -0.85 3.2 2.25 0.95 3.15 -0.05 6.3 -0.5 4.6 -2.75 3.9 -7.55 5.55 -10.75 9.3 -8.9 4.0 -5.2 0.75 L-2.1 1.8 Q1.2 0.95 2.25 -4.05 L3.1 -11.45 4.3 -3.35 Z" fill="none" stroke="#000000" stroke-linecap="round" stroke-linejoin="round" stroke-width="0.05"/>
  </g>
  <defs>
    <radialGradient cx="0" cy="0" gradientTransform="matrix(0.024, 0.0, 0.0, 0.024, -7.6, 5.05)" gradientUnits="userSpaceOnUse" id="gradient0" r="819.2" spreadMethod="pad">
      <stop offset="0.0" stop-color="#cfd3a3"/>
      <stop offset="0.6901960784313725" stop-color="#5e5e4d"/>
      <stop offset="0.803921568627451" stop-color="#584838"/>
      <stop offset="1.0" stop-color="#634747"/>
    </radialGradient>
  </defs>
</svg>
