<?xml version="1.0" encoding="UTF-8" standalone="no"?>
<svg xmlns:xlink="http://www.w3.org/1999/xlink" height="61.15px" width="26.75px" xmlns="http://www.w3.org/2000/svg">
  <g transform="matrix(1.0, 0.0, 0.0, 1.0, 13.25, 26.15)">
    <path d="M8.6 -0.85 Q8.85 0.05 8.5 1.0 8.25 1.75 7.5 1.75 L6.85 1.6 6.6 0.85 6.45 -0.25 Q6.4 -0.9 6.9 -1.15 L7.5 -1.5 Q8.4 -1.65 8.6 -0.85 M13.5 8.0 L13.25 8.7 12.7 9.45 Q12.15 10.0 11.35 10.15 L10.75 10.25 10.8 9.5 Q10.85 8.85 10.55 8.25 10.2 7.75 10.7 7.35 L11.45 6.95 11.5 6.85 12.0 6.9 12.5 7.0 13.0 7.35 13.5 8.0 M4.5 6.85 Q6.4 10.1 4.2 14.3 L3.05 16.65 6.5 12.0 Q8.0 14.1 6.1 17.2 4.6 19.7 3.2 22.35 1.85 24.9 1.25 27.6 -0.2 28.35 -0.45 30.0 -0.65 31.4 -1.1 32.65 -1.5 34.0 -2.6 34.8 L-3.0 35.0 Q-4.25 33.1 -4.15 30.95 -6.9 29.5 -8.1 25.45 -9.35 21.5 -10.85 17.75 -12.15 14.45 -11.25 11.5 -9.5 11.0 -8.8 12.35 L-7.1 5.3 -5.4 -1.4 Q-6.8 -4.5 -6.55 -8.5 -6.25 -12.25 -6.35 -16.0 -6.4 -20.0 -5.25 -23.5 L-3.95 -23.35 Q-3.15 -23.15 -3.0 -22.35 -2.85 -21.8 -2.5 -21.4 -1.95 -21.8 -2.1 -22.65 L-2.05 -24.6 Q-1.8 -25.5 -1.0 -25.95 L-0.5 -26.15 Q1.1 -18.95 0.65 -10.45 0.2 -2.3 -1.25 5.8 L-1.55 7.45 -1.35 7.3 -0.5 6.85 Q0.3 7.05 0.75 7.75 L1.6 8.65 Q2.35 9.3 1.85 10.1 L1.6 10.5 Q1.6 11.4 2.05 10.4 L2.6 9.25 3.6 7.45 Q3.85 6.9 4.5 6.85 M-10.9 -2.65 L-12.4 -2.6 Q-13.3 -3.65 -12.0 -3.9 -10.3 -3.95 -10.9 -2.65 M-6.2 10.4 L-5.8 10.3 -5.8 9.75 Q-5.8 9.45 -6.0 9.75 L-6.2 10.4 M-11.45 4.7 L-10.75 5.45 -10.5 6.1 -10.65 6.85 Q-10.8 7.85 -11.55 7.6 -13.05 7.15 -13.25 5.95 -13.35 5.25 -12.65 4.75 L-12.0 4.35 -11.45 4.7" fill="#ffffff" fill-rule="evenodd" stroke="none"/>
  </g>
</svg>
