<?xml version="1.0" encoding="UTF-8" standalone="no"?>
<svg xmlns:xlink="http://www.w3.org/1999/xlink" height="83.65px" width="33.0px" xmlns="http://www.w3.org/2000/svg">
  <g transform="matrix(1.0, 0.0, 0.0, 1.0, 19.05, 32.15)">
    <path d="M-3.75 -32.15 Q-2.8 -31.2 -3.9 -30.25 -5.0 -29.25 -5.1 -30.65 -5.25 -31.95 -4.0 -32.1 L-3.75 -32.15 M-1.75 -29.0 Q-1.1 -28.5 -1.75 -27.85 -2.55 -27.0 -2.9 -27.95 -3.1 -28.55 -2.35 -28.9 L-1.75 -29.0 M-3.05 -26.55 Q-3.25 -25.95 -3.1 -25.15 L-3.05 -24.6 -2.05 -24.55 -1.4 -24.35 -1.0 -24.0 Q-0.3 -22.6 -0.05 -21.0 0.35 -18.25 0.15 -15.7 0.0 -13.9 -1.05 -12.75 0.3 -10.25 -0.3 -6.8 L-1.25 0.3 Q-1.5 3.0 -2.7 4.95 -2.0 7.25 -1.8 10.15 -1.5 14.7 -2.1 19.2 L-2.1 19.3 Q-0.5 21.65 -0.95 24.9 L-1.25 28.0 -0.7 26.15 Q0.15 23.05 1.55 20.9 L1.75 20.85 Q2.75 22.45 1.85 24.3 1.05 25.85 0.4 27.5 -0.35 29.45 0.0 30.6 0.6 31.05 0.75 31.7 L1.5 30.9 1.6 30.85 Q2.15 31.6 2.0 32.35 L1.6 33.8 Q1.35 34.5 1.35 35.35 L1.25 36.1 Q1.65 36.1 2.05 35.3 L2.65 33.8 Q2.95 32.8 4.0 33.0 L4.55 33.3 4.8 33.65 4.9 34.35 4.85 34.75 Q3.3 37.4 2.35 40.4 L0.85 45.0 Q0.1 47.6 -2.0 49.0 L-2.5 49.55 Q-3.15 50.0 -3.45 50.75 L-4.0 51.5 Q-6.3 47.45 -7.7 42.35 -9.15 37.3 -11.05 32.3 -12.55 28.45 -12.25 24.7 -12.7 23.05 -13.3 21.55 -13.95 21.35 -13.85 20.6 L-13.8 20.35 Q-14.5 18.15 -13.0 17.0 -11.5 18.55 -10.8 20.95 L-10.1 23.4 -10.1 23.1 -9.95 22.4 -9.75 22.15 -9.5 22.0 Q-7.55 22.3 -7.1 24.7 L-6.25 28.85 Q-5.8 30.7 -5.9 32.6 -5.45 30.55 -5.55 28.1 L-5.65 25.8 Q-6.3 24.75 -6.1 23.2 L-5.95 21.95 Q-7.55 21.45 -8.05 19.15 -8.55 17.05 -9.5 15.05 L-9.85 13.75 -11.05 14.3 Q-11.95 14.55 -12.3 13.7 L-12.4 13.35 -11.85 12.7 -11.5 12.5 -10.4 12.4 -9.75 12.35 -9.55 12.5 -9.0 11.75 -8.9 11.75 -7.5 15.2 -6.0 18.4 -5.8 18.8 -5.5 15.1 Q-7.15 12.95 -6.45 9.5 -5.85 6.4 -6.05 3.1 L-6.1 -2.85 -5.75 -2.9 -4.7 -1.8 -4.2 -0.9 -3.85 -4.0 Q-3.6 -6.45 -4.4 -8.5 L-3.95 -9.95 -3.6 -11.35 -4.75 -11.65 Q-5.35 -12.85 -5.25 -14.25 L-4.65 -18.75 Q-4.15 -21.2 -4.8 -23.35 -5.05 -24.15 -4.55 -24.45 L-4.55 -25.9 Q-4.6 -26.65 -4.25 -27.3 L-4.0 -27.5 Q-2.7 -27.55 -3.05 -26.55 M-12.9 4.25 Q-11.7 4.9 -12.15 5.95 -12.75 7.2 -13.5 5.8 -14.1 4.6 -12.9 4.25 M-17.75 7.6 L-17.0 8.45 -16.25 9.3 Q-15.95 10.0 -16.4 10.5 -17.5 11.25 -18.65 9.95 -19.45 9.0 -18.7 7.95 -18.45 7.55 -18.0 7.6 L-17.75 7.6 M-16.95 13.7 Q-17.95 12.45 -16.5 12.1 -15.05 12.5 -15.55 13.75 L-16.95 13.7 M-3.4 40.0 L-3.05 41.85 -2.5 39.15 -3.4 40.0 M5.05 20.05 L5.35 19.6 5.85 19.2 6.15 18.9 6.5 18.75 6.6 18.75 6.7 19.5 6.65 20.25 6.4 20.9 6.0 21.25 Q5.35 21.0 5.0 20.55 4.85 20.35 5.05 20.05 M13.95 21.35 Q13.9 22.45 12.7 21.25 11.5 20.05 12.95 19.7 L13.0 19.6 Q14.0 20.1 13.95 21.35 M8.95 26.5 Q9.05 27.5 8.35 28.15 7.8 28.65 7.6 29.5 L7.5 29.75 6.5 29.4 5.85 28.55 5.6 27.7 5.5 27.0 Q5.65 26.6 5.95 26.4 L7.1 25.8 7.5 25.65 8.0 25.5 Q8.85 25.65 8.95 26.5" fill="#ffffff" fill-rule="evenodd" stroke="none"/>
  </g>
</svg>
