<?xml version="1.0" encoding="UTF-8" standalone="no"?>
<svg xmlns:xlink="http://www.w3.org/1999/xlink" height="126.85px" width="47.45px" xmlns="http://www.w3.org/2000/svg">
  <g transform="matrix(1.0, 0.0, 0.0, 1.0, 25.85, 43.5)">
    <path d="M-2.55 -43.45 L-2.5 -43.5 Q-1.3 -43.65 -1.1 -42.5 -0.95 -41.6 -1.35 -40.85 -1.75 -40.2 -2.5 -40.25 L-3.15 -40.4 -3.65 -40.75 -3.9 -41.15 -3.95 -41.85 -3.75 -42.65 -3.4 -43.0 -3.15 -43.25 -3.0 -43.35 -2.55 -43.45 M-4.0 -31.0 Q-2.55 -30.55 -2.9 -29.35 -3.3 -27.85 -4.5 -29.15 -5.7 -30.5 -4.05 -30.95 L-4.0 -31.0 M-2.5 -21.45 Q-2.2 -20.95 -1.6 -20.8 -0.9 -20.65 -0.65 -20.0 L-0.15 -16.65 0.2 -12.9 Q0.25 -10.7 -0.5 -8.8 L-0.75 -8.4 -1.5 -8.2 -2.5 -8.45 -3.5 -9.0 -4.0 -13.1 -4.6 -17.95 Q-4.8 -20.45 -3.65 -22.35 L-3.25 -22.5 -2.5 -21.45 M-3.3 -0.6 L-2.7 -0.2 -2.3 0.55 -2.4 1.1 -3.0 1.35 Q-4.6 1.9 -4.95 0.5 -5.1 -0.15 -4.6 -0.55 L-4.0 -0.9 -3.3 -0.6 M-2.5 4.6 Q-1.3 5.05 -1.85 6.3 -2.3 7.2 -2.2 8.25 L-2.2 9.7 -2.5 10.0 Q-3.85 9.85 -3.9 8.35 L-3.85 6.1 Q-3.8 5.25 -3.0 4.8 L-2.5 4.6 M-19.25 15.0 Q-17.55 15.25 -18.05 16.75 -18.65 18.45 -19.6 17.15 -20.8 15.55 -19.5 15.05 L-19.25 15.0 M-4.1 21.1 Q-3.6 19.5 -2.75 18.35 -1.1 22.4 -1.3 27.0 L-1.45 33.05 -1.2 33.15 -0.45 33.7 -0.15 34.0 Q0.25 34.65 0.15 35.5 L0.1 36.6 0.05 38.5 0.0 39.25 0.15 39.6 0.65 40.35 1.3 41.15 1.5 41.5 Q0.85 45.75 0.9 50.1 L0.9 50.25 Q2.15 47.2 2.9 44.1 3.9 40.3 6.6 39.1 7.4 38.05 7.65 36.7 L7.95 34.1 Q8.0 32.5 9.0 32.05 L9.25 32.0 Q10.85 36.7 8.6 41.5 L4.9 49.95 6.5 47.5 6.75 47.25 7.7 46.95 8.5 46.55 9.0 46.35 9.55 46.7 10.0 47.4 10.2 48.1 10.35 48.5 10.85 48.8 10.9 48.8 12.05 49.35 12.35 49.6 Q12.15 51.7 11.1 53.8 L8.5 58.65 5.5 63.35 4.2 63.8 Q3.35 64.15 2.65 64.6 L2.4 64.8 4.6 65.15 Q6.35 65.2 6.6 66.75 L6.25 67.35 Q5.2 68.25 6.2 68.7 7.0 69.05 6.75 69.75 L1.6 69.9 -0.7 69.6 Q-0.25 70.35 -0.65 71.1 L-1.05 71.35 -3.0 71.5 -3.75 71.35 -5.55 69.15 Q-8.0 71.2 -12.0 71.1 L-16.75 71.35 -16.75 71.75 -16.75 72.1 -16.75 72.5 -16.5 73.25 -16.25 74.0 Q-13.3 75.1 -9.9 75.3 -5.55 75.55 -1.5 77.0 9.6 80.9 19.6 76.0 20.7 75.45 21.5 76.35 L21.6 76.75 Q21.35 79.3 18.7 80.45 L16.25 81.05 7.2 81.95 Q5.5 82.2 4.5 83.35 0.7 82.3 -4.0 82.05 L-14.4 81.0 Q-18.15 80.45 -20.7 77.9 -23.05 75.6 -23.7 72.35 -24.0 70.9 -23.2 69.8 L-22.5 68.65 -24.5 68.4 -25.5 68.0 -25.7 67.8 Q-25.35 67.35 -24.85 67.5 -22.4 68.15 -21.75 66.55 L-21.5 66.35 -18.6 66.65 -17.05 66.3 -17.0 66.25 Q-12.9 66.25 -8.8 66.4 L-9.55 65.65 -9.65 65.35 -9.25 64.85 Q-10.6 63.0 -11.3 60.9 L-12.15 57.85 Q-12.0 56.95 -11.05 57.05 L-9.35 56.75 -8.4 56.6 Q-7.75 57.25 -7.7 58.1 L-7.05 60.0 Q-6.5 60.85 -6.35 61.85 L-6.25 62.0 Q-6.05 61.15 -6.2 60.25 L-6.2 59.1 Q-8.25 55.6 -9.85 51.2 L-14.2 38.8 Q-16.25 32.85 -15.0 28.85 -13.45 29.8 -13.0 31.7 L-11.9 35.5 -10.65 39.1 Q-7.65 41.2 -6.9 45.95 -6.2 50.05 -4.8 54.0 L-4.45 55.1 -4.45 54.0 -4.45 42.35 -4.15 38.3 -4.5 34.85 -4.5 34.7 -5.65 32.85 -5.8 33.05 -6.25 33.5 -6.5 33.9 -6.65 34.25 Q-7.55 34.65 -8.0 33.85 L-9.2 32.45 -10.5 31.35 -10.35 30.8 Q-9.7 30.15 -9.65 29.5 L-9.2 28.4 Q-8.85 28.05 -8.5 28.0 -7.6 27.85 -7.1 28.6 L-6.55 29.65 -6.75 27.25 Q-6.75 22.5 -7.1 18.25 -7.5 13.9 -6.0 11.1 -3.6 14.5 -4.0 19.25 L-4.1 21.1 M-20.0 70.5 Q-20.85 71.25 -19.95 72.05 -19.1 72.85 -19.05 71.65 -18.95 70.55 -19.8 70.45 L-20.0 70.5 M-25.65 72.85 L-25.4 72.75 -25.25 73.8 Q-25.25 74.05 -25.5 73.9 -26.1 73.45 -25.65 72.85 M-8.75 77.6 L-9.4 77.5 -9.9 77.4 -13.0 77.35 Q-11.45 78.55 -9.55 78.8 L-8.75 78.9 -2.4 79.0 -8.75 77.6 M-19.75 75.35 L-19.1 76.1 -18.3 76.75 -17.4 77.1 -17.85 76.55 -18.9 75.75 -19.75 75.3 -19.75 75.35 M4.85 2.55 L4.8 4.0 4.6 4.75 3.95 4.95 3.5 4.9 2.4 4.3 2.1 4.0 1.95 3.25 1.8 2.1 Q1.8 1.55 2.05 1.05 2.4 0.4 3.0 0.35 3.9 0.2 4.4 0.95 4.95 1.75 4.85 2.55 M9.75 24.35 Q10.5 24.95 9.9 25.65 9.1 26.5 8.8 25.45 8.5 24.4 9.5 24.35 L9.75 24.35 M13.55 24.2 L14.25 24.9 14.6 25.6 14.55 26.35 Q14.5 27.05 13.95 27.45 12.75 28.25 14.05 29.05 L14.35 29.35 Q14.1 30.8 12.7 30.15 11.35 29.5 10.45 28.25 L9.85 27.1 Q9.9 26.75 10.15 26.55 10.8 26.0 11.0 25.25 11.25 24.05 12.5 23.95 L12.5 23.85 12.95 23.9 13.55 24.2 M3.45 28.95 Q2.65 30.45 1.95 29.05 1.1 27.45 2.5 27.0 4.25 27.55 3.45 28.95 M11.25 40.75 Q10.0 41.9 10.0 40.35 10.0 38.95 11.25 38.85 12.25 39.85 11.25 40.75 M0.7 58.05 L2.05 55.7 0.75 57.45 0.7 58.05 M15.5 66.35 L13.55 67.05 Q12.4 67.35 11.3 66.65 L11.1 66.35 Q11.5 65.55 12.25 65.0 L13.95 63.75 Q14.7 63.25 15.5 63.2 L15.5 63.1 Q16.45 62.9 16.75 63.75 17.0 64.45 16.25 64.9 15.7 65.3 15.6 66.0 L15.5 66.35 M15.1 68.85 L16.1 69.25 16.35 69.65 16.4 70.0 16.5 70.3 16.55 70.4 Q17.2 70.05 18.0 69.95 L18.75 69.85 19.0 70.6 18.85 71.4 18.65 72.1 18.5 72.5 Q18.3 72.65 18.05 72.75 L18.1 73.0 18.1 73.35 18.0 73.75 17.85 74.1 17.7 74.5 17.55 75.6 17.4 76.3 17.0 77.0 16.5 77.05 Q16.1 77.0 15.85 76.75 L15.45 76.1 15.35 75.0 15.4 73.85 15.5 73.1 14.35 72.25 Q13.65 71.6 12.5 71.35 11.1 71.1 11.05 69.75 11.0 68.6 12.0 68.5 L12.5 68.5 14.45 68.7 15.1 68.85" fill="#ffffff" fill-rule="evenodd" stroke="none"/>
  </g>
</svg>
