<?xml version="1.0" encoding="UTF-8" standalone="no"?>
<svg xmlns:xlink="http://www.w3.org/1999/xlink" height="113.95px" width="86.05px" xmlns="http://www.w3.org/2000/svg">
  <g transform="matrix(1.0, 0.0, 0.0, 1.0, 53.4, 31.65)">
    <path d="M-3.25 -31.65 Q-2.25 -30.6 -3.3 -29.55 -4.75 -28.15 -4.75 -30.0 -4.75 -31.5 -3.25 -31.65 M-0.85 -13.45 Q-1.05 -11.6 -1.4 -9.8 L-2.0 -6.0 Q-3.65 -6.05 -4.15 -8.05 -4.55 -9.7 -4.55 -11.5 L-4.5 -14.15 -4.05 -14.65 Q-3.65 -14.95 -3.6 -15.4 -3.5 -16.3 -2.5 -16.3 L-2.5 -16.4 Q-0.55 -15.95 -0.85 -13.45 M-0.85 12.4 Q-0.55 11.05 -0.9 9.8 -1.4 8.15 0.45 7.7 L0.5 7.6 Q1.3 7.75 1.35 8.6 L1.3 10.1 Q1.25 10.9 1.5 11.6 L1.6 12.0 1.1 12.75 0.7 13.85 Q0.55 14.8 -0.4 14.6 -1.15 13.7 -0.85 12.4 M-31.0 47.3 L-30.5 47.1 -29.65 47.75 -29.05 48.15 -28.3 48.8 -28.15 49.1 Q-28.3 50.55 -29.8 50.05 -31.45 49.5 -31.45 48.0 -31.5 47.5 -31.0 47.3 M-27.0 39.1 Q-25.45 39.25 -24.7 40.75 L-23.0 43.6 Q-22.1 44.9 -21.75 46.5 L-21.65 46.85 Q-23.0 47.5 -24.75 45.5 L-27.0 42.7 Q-28.65 40.45 -27.05 39.2 L-27.0 39.1 M-6.0 36.6 Q-4.4 37.5 -4.3 39.45 L-3.85 42.8 Q-3.5 44.65 -4.15 46.25 -5.0 47.05 -5.15 45.55 -5.2 44.7 -5.55 43.7 L-5.9 41.75 -6.0 41.1 -6.45 44.05 -6.9 47.1 Q-7.05 48.85 -7.6 50.4 L-8.0 50.85 Q-9.35 50.15 -9.05 48.35 -8.8 46.8 -9.25 45.3 L-10.25 42.35 -10.5 41.6 Q-12.05 41.15 -12.85 39.7 -13.6 38.3 -13.6 36.6 -13.65 35.05 -12.85 33.85 L-12.5 33.6 Q-11.35 34.7 -10.65 36.45 L-9.3 39.85 -8.0 43.1 -7.8 41.5 -7.4 39.25 -6.55 37.1 -6.0 36.6 M-16.2 29.6 Q-16.85 30.45 -17.45 29.45 -18.15 28.3 -16.75 28.35 -15.65 28.85 -16.2 29.6 M-53.4 69.35 Q-53.1 67.1 -50.9 65.75 -49.2 64.7 -47.4 63.9 -43.45 62.05 -38.9 61.35 L-38.5 61.25 -37.5 61.4 -37.0 61.45 -36.25 61.4 -35.9 61.35 Q-37.2 63.1 -39.85 63.5 L-44.0 64.15 Q-45.25 64.35 -46.4 64.85 L-46.6 65.25 -46.7 65.6 -46.9 65.95 -47.25 66.4 -47.4 66.6 -47.55 66.7 -48.5 67.05 -49.05 67.3 -48.75 68.25 -48.65 68.6 -48.8 69.35 Q-48.95 69.9 -49.5 69.95 L-52.4 69.95 -53.0 69.7 -53.4 69.35 M-41.9 65.7 Q-39.15 64.1 -36.0 63.95 -31.95 63.75 -28.5 62.35 L-25.75 62.6 -23.05 62.5 Q-21.2 62.25 -20.35 63.8 L-20.25 64.1 -20.7 64.8 -21.05 65.0 -27.7 65.75 -27.65 66.1 Q-27.25 66.5 -27.3 66.8 L-28.3 66.9 Q-31.5 65.9 -34.15 67.65 L-35.3 68.4 Q-37.15 69.45 -39.25 70.1 -37.65 71.1 -35.8 71.55 -32.85 72.25 -30.0 73.25 L-25.0 74.6 Q-20.15 75.5 -16.5 77.75 L-16.75 78.45 Q-17.3 79.45 -18.55 79.15 -24.4 77.9 -29.0 78.5 L-28.5 78.6 -28.0 78.75 -27.5 78.85 -25.9 79.0 Q-23.75 78.85 -23.0 80.5 -24.75 82.9 -27.75 81.3 -30.25 79.95 -33.0 79.25 -37.0 78.25 -40.65 76.6 -43.9 75.15 -44.9 72.6 -44.2 71.65 -44.3 70.8 -44.5 69.25 -43.8 67.8 -43.15 66.45 -41.9 65.7 M-41.05 68.55 Q-39.95 67.45 -38.35 67.0 -36.35 66.45 -37.25 66.25 L-38.75 66.5 Q-39.65 66.65 -40.4 67.1 -41.25 67.6 -41.6 68.5 L-41.75 68.85 Q-41.85 69.35 -41.05 68.55 M-40.65 72.85 Q-39.7 73.95 -38.15 74.4 L-35.25 75.1 -32.15 75.55 -30.5 75.75 -34.55 74.4 Q-35.7 73.9 -37.0 73.7 L-39.0 73.2 -40.65 72.8 -40.65 72.85 M-11.3 58.35 L-11.15 59.45 -10.9 60.25 -11.25 60.25 Q-12.55 60.2 -13.5 59.35 -14.5 58.45 -14.5 57.25 -14.5 56.8 -14.0 56.8 L-14.0 56.75 -12.3 57.0 Q-12.0 57.05 -11.75 57.25 L-11.5 57.65 -11.3 58.35 M-24.05 59.85 L-26.2 56.95 Q-27.55 55.45 -26.0 54.6 L-24.45 54.95 Q-23.4 55.4 -22.95 56.4 L-21.9 58.0 -21.25 58.75 -21.2 59.1 -21.25 59.85 -21.25 60.6 -21.25 61.35 -21.25 61.6 Q-23.0 61.6 -24.05 59.85 M-1.6 79.95 L0.15 80.55 1.1 81.1 -2.65 81.0 Q-7.05 82.15 -11.5 82.3 L-12.75 82.05 -13.15 81.75 Q-13.2 80.8 -12.05 80.35 -8.95 79.2 -5.1 79.45 L-3.5 79.5 -1.95 79.85 -1.6 79.95 M20.15 34.95 L23.0 32.45 25.45 30.45 Q25.65 30.25 26.0 30.1 L27.0 30.2 27.5 30.15 27.95 30.15 28.45 29.35 28.75 29.0 29.0 28.75 30.5 28.6 32.0 28.4 32.25 28.35 Q33.2 29.4 31.75 30.3 L29.85 31.55 28.5 31.85 Q27.55 32.9 25.85 33.6 24.25 34.3 23.2 35.9 21.55 38.5 20.0 37.4 L19.6 36.85 Q19.35 35.7 20.15 34.95 M7.25 35.1 Q7.8 35.95 7.3 36.85 6.6 38.2 6.3 36.75 6.05 35.5 7.0 35.15 L7.25 35.1 M13.7 45.6 L14.75 45.1 15.5 44.9 15.75 44.85 Q16.5 45.45 15.85 46.1 L14.45 47.55 12.9 47.6 12.75 47.25 Q12.75 46.6 13.2 46.1 L13.7 45.6 M23.1 40.35 Q22.1 41.0 22.05 40.0 22.05 38.95 23.0 38.9 L23.25 38.85 Q24.2 39.65 23.1 40.35 M23.6 68.75 L24.3 70.25 Q24.55 70.95 24.4 71.75 24.25 72.6 24.95 72.2 25.3 72.05 25.6 71.85 26.85 71.35 25.85 70.4 L24.2 68.9 Q23.65 68.3 23.6 68.75 M21.5 71.0 Q17.15 67.75 14.6 64.25 L15.0 64.1 16.45 64.55 17.95 65.1 19.75 65.75 20.35 65.75 Q25.85 62.95 29.6 69.15 30.55 70.8 30.2 72.6 28.3 82.25 17.5 79.95 15.6 79.55 14.75 78.35 17.55 75.6 21.3 73.25 23.1 72.15 21.5 71.0 M26.35 73.75 L25.4 74.5 24.55 75.15 23.4 75.85 23.25 76.1 Q22.55 76.9 24.0 76.15 L26.15 74.9 Q26.8 74.55 26.6 73.8 L26.35 73.75 M14.25 57.85 Q15.2 57.55 15.65 58.4 16.2 59.45 15.9 60.4 L15.65 62.25 15.6 62.6 Q14.15 63.15 13.85 61.45 L13.3 59.25 12.5 60.35 10.75 62.5 Q10.25 63.2 9.5 63.35 L9.0 63.35 8.15 62.7 Q7.8 62.3 7.4 63.15 7.1 63.9 7.2 64.75 7.3 65.5 6.5 65.5 L5.65 64.85 Q5.4 64.6 5.5 64.3 5.7 63.75 5.25 63.0 5.1 62.75 5.1 62.35 5.45 61.3 6.05 60.35 L7.65 57.75 Q8.1 57.0 8.9 56.45 L9.5 56.1 10.1 56.4 10.5 56.6 11.05 56.95 11.25 57.25 11.35 57.6 11.35 58.0 11.3 58.35 11.1 59.1 10.85 59.85 10.95 59.9 11.5 59.75 12.1 59.4 Q12.65 59.1 13.2 58.9 13.1 58.0 14.0 57.9 L14.25 57.85" fill="#ffffff" fill-rule="evenodd" stroke="none"/>
  </g>
</svg>
