<?xml version="1.0" encoding="UTF-8" standalone="no"?>
<svg xmlns:xlink="http://www.w3.org/1999/xlink" height="115.75px" width="101.75px" xmlns="http://www.w3.org/2000/svg">
  <g transform="matrix(1.0, 0.0, 0.0, 1.0, 55.65, 26.9)">
    <path d="M-2.55 -26.8 L-2.5 -26.9 Q-1.3 -27.05 -1.5 -25.95 L-2.05 -24.3 Q-2.6 -23.25 -3.6 -23.95 L-3.9 -24.25 -3.9 -25.0 -3.75 -25.7 -3.2 -26.4 -2.55 -26.8 M-3.0 -10.9 Q-1.75 -11.0 -1.8 -9.9 -1.85 -8.85 -3.0 -9.15 -4.5 -9.6 -3.4 -10.65 L-3.0 -10.9 M-0.45 14.4 Q-0.2 15.4 -1.05 16.2 -1.85 17.0 -2.45 16.05 L-2.75 15.6 -2.95 15.25 -3.0 14.5 -2.75 13.85 -2.05 13.2 -2.0 13.1 Q-0.7 13.3 -0.45 14.4 M-37.0 48.7 L-36.0 48.6 -35.5 48.6 -35.25 48.6 Q-34.9 49.3 -35.55 49.95 -36.2 50.55 -37.0 50.6 -38.15 50.6 -37.9 49.5 L-37.55 48.95 Q-37.35 48.75 -37.0 48.7 M-31.4 44.45 Q-31.7 46.05 -32.85 44.65 -33.95 43.35 -32.5 42.75 -31.2 43.05 -31.4 44.45 M-45.25 61.35 L-45.2 61.0 -44.95 60.25 -44.75 60.0 Q-42.05 58.9 -38.95 59.2 L-29.0 58.75 -27.1 58.8 -22.65 58.35 -22.6 58.25 -22.1 57.9 -23.75 56.95 -24.75 56.5 -25.7 55.9 -26.1 55.2 Q-26.4 53.85 -25.0 53.8 L-25.0 53.75 -21.55 54.8 -19.25 55.3 Q-17.45 55.6 -15.95 56.6 L-15.25 57.25 -15.5 57.9 -16.15 58.85 -16.1 59.1 -15.9 59.45 -15.5 59.85 -14.65 60.6 -14.6 61.0 -14.65 61.35 -14.85 61.75 -14.9 62.1 -14.9 62.45 -14.7 62.9 -14.55 62.95 Q-13.55 63.3 -14.15 64.0 L-14.5 64.35 -14.6 64.45 -14.8 64.75 -15.95 65.75 -18.65 65.7 -19.1 65.15 -19.35 65.2 Q-20.8 65.65 -22.25 64.9 -22.85 64.6 -22.75 63.85 L-22.55 63.55 Q-24.9 63.7 -25.7 62.15 -27.35 63.15 -29.65 63.45 -35.2 64.25 -40.7 66.3 -44.65 67.75 -48.4 69.75 L-48.6 70.05 -48.2 70.4 Q-47.0 71.4 -45.1 72.1 -42.45 73.05 -41.2 75.55 -40.7 76.5 -40.75 77.6 -43.1 78.7 -45.15 76.75 -47.0 75.0 -49.15 73.85 -52.1 72.25 -52.95 69.1 -54.4 68.95 -55.45 67.95 L-55.65 67.6 -55.55 67.3 Q-54.45 65.3 -52.35 64.35 -49.25 62.9 -45.9 62.1 L-45.35 61.65 -45.25 61.35 M-40.95 63.45 L-40.45 63.1 -43.4 63.8 Q-46.4 64.6 -48.55 66.2 L-47.9 66.15 -44.7 65.4 -40.95 63.45 M-2.8 59.75 Q-2.0 61.2 -2.35 61.65 L-2.65 62.85 -3.0 63.5 -3.55 63.85 -4.5 64.0 -4.75 63.85 Q-5.25 63.4 -5.35 62.75 L-5.55 60.85 Q-5.65 60.05 -5.2 59.45 -4.85 59.05 -4.5 59.0 -3.3 58.85 -2.8 59.75 M-6.75 86.0 L-5.75 85.05 -4.5 84.7 -2.75 84.5 -1.5 84.25 Q6.3 88.0 15.6 85.6 16.75 85.35 16.35 84.75 L16.0 84.35 15.65 83.95 15.5 83.6 15.55 83.25 15.75 82.9 16.0 82.6 Q20.45 82.35 24.65 80.85 30.25 78.9 35.6 76.45 L39.85 74.1 39.6 72.95 38.65 71.8 37.9 71.1 36.8 70.35 Q36.15 70.1 36.2 69.35 L36.25 69.0 Q35.55 68.35 33.45 67.8 32.55 67.55 31.8 67.15 30.7 66.6 30.75 65.35 30.85 64.3 32.0 64.3 L32.0 64.25 Q34.65 64.95 37.2 66.05 39.5 67.1 42.0 67.55 45.4 68.2 46.1 70.85 L45.95 71.2 45.7 71.45 45.5 71.55 44.25 71.45 43.45 71.3 43.1 71.35 43.6 72.15 44.0 72.85 44.35 73.6 44.65 74.4 44.75 75.1 44.75 75.85 44.75 76.25 Q38.3 83.4 29.1 86.1 10.95 91.4 -6.65 86.4 L-6.75 86.0 M26.85 36.1 L27.35 35.75 27.85 35.5 28.1 35.4 28.5 35.35 28.75 35.35 Q29.5 35.85 28.9 36.45 L28.35 36.8 27.5 37.0 Q26.45 37.0 26.85 36.1 M30.0 58.9 L30.25 58.85 Q31.2 59.7 30.45 60.95 29.65 62.2 28.95 60.7 28.3 59.2 30.0 58.9 M9.15 62.9 L9.7 62.4 Q10.05 62.2 10.45 62.05 L10.5 62.0 Q11.7 62.2 11.85 63.4 11.95 64.35 11.05 64.75 10.0 65.25 9.3 64.3 L9.0 63.6 9.0 63.25 9.15 62.9 M0.85 62.45 Q1.2 61.6 2.25 61.6 3.0 62.15 1.75 62.8 0.45 63.55 0.85 62.45 M37.75 78.3 L37.5 78.35 36.45 78.7 35.65 79.05 34.95 79.35 34.25 79.75 Q33.85 79.95 33.5 80.1 L35.35 79.65 37.05 78.9 37.8 78.3 37.75 78.3" fill="#ffffff" fill-rule="evenodd" stroke="none"/>
  </g>
</svg>
