<?xml version="1.0" encoding="UTF-8" standalone="no"?>
<svg xmlns:xlink="http://www.w3.org/1999/xlink" height="36.55px" width="88.35px" xmlns="http://www.w3.org/2000/svg">
  <g transform="matrix(1.0, 0.0, 0.0, 1.0, 47.4, -54.85)">
    <path d="M9.05 90.55 L9.3 90.9 Q9.6 91.5 8.85 91.35 8.05 91.15 7.5 90.55 L9.05 90.55 M-12.6 90.55 Q-15.75 91.9 -19.65 90.55 L-12.6 90.55" fill="#dedede" fill-rule="evenodd" stroke="none"/>
    <path d="M28.25 61.6 L27.7 62.05 Q26.3 62.55 26.5 61.4 26.55 60.9 27.0 60.75 28.25 60.7 28.25 61.6 M32.5 67.85 Q33.05 68.0 33.5 68.3 34.1 68.65 34.35 69.25 34.65 69.8 34.35 70.35 L34.1 70.75 32.0 70.8 Q31.15 70.75 30.65 69.95 L30.5 69.6 30.55 69.25 30.75 68.9 31.45 68.35 32.0 68.05 32.5 67.85 M7.5 90.55 L7.1 90.0 6.75 89.25 Q6.85 88.85 7.1 88.7 7.75 88.25 8.45 87.95 L10.55 87.25 10.5 87.1 9.75 86.85 8.3 86.25 8.05 85.95 7.85 85.25 Q20.65 81.55 34.6 79.7 37.0 79.4 38.75 77.6 L38.45 77.25 38.1 76.85 37.75 76.5 37.35 76.1 37.1 75.85 37.0 75.75 36.25 75.65 35.6 75.75 34.45 75.65 34.0 75.1 33.85 74.75 33.9 74.35 34.0 74.0 34.25 73.6 34.5 73.25 34.75 73.0 35.0 72.9 35.45 72.8 35.5 72.75 Q45.75 76.75 36.1 81.9 29.65 85.4 22.05 86.8 14.9 88.15 8.5 90.1 L9.05 90.55 7.5 90.55 M18.0 59.45 L18.95 59.65 19.8 60.2 20.0 60.5 19.5 61.1 Q18.55 61.85 17.45 61.45 16.45 61.05 16.45 60.0 16.4 59.15 17.25 59.35 L18.0 59.45 M-19.65 90.55 L-21.5 89.8 -26.5 87.0 Q-27.35 86.45 -28.3 86.15 -31.95 85.0 -34.8 82.55 -35.35 82.1 -35.25 81.35 -34.3 79.75 -32.1 79.0 -28.95 77.9 -25.0 78.3 L-25.0 78.25 -23.55 78.4 Q-23.0 78.55 -22.65 78.95 L-22.25 79.6 -22.45 80.35 Q-22.85 81.3 -24.0 81.7 L-27.0 82.75 Q-18.2 84.5 -9.3 84.9 L-9.65 85.35 Q-13.25 87.5 -7.0 87.1 -1.0 86.7 4.45 88.75 4.85 88.9 4.85 89.5 3.05 90.95 -0.25 90.0 -4.95 88.65 -9.9 88.75 -11.2 89.95 -12.6 90.55 L-19.65 90.55 M40.65 75.45 Q40.4 75.6 40.2 75.35 39.75 74.65 40.5 74.6 L40.75 74.6 Q41.2 75.1 40.65 75.45 M-43.65 65.5 L-43.65 65.7 -43.05 66.1 -42.15 66.6 -42.1 67.0 Q-42.2 67.7 -42.75 68.15 L-43.0 68.5 -43.15 68.85 -43.45 69.2 -44.05 69.45 -44.5 69.5 -45.65 68.75 -46.45 67.7 -46.5 67.35 -46.5 67.0 Q-46.5 66.8 -46.65 66.65 L-47.0 66.25 -47.3 65.85 -47.4 65.5 Q-45.95 63.6 -43.5 62.45 L-35.75 58.9 Q-31.45 57.05 -26.15 56.5 L-26.15 56.1 -26.1 55.75 -25.7 55.15 -25.5 55.05 -25.05 54.95 -25.0 54.85 Q-23.1 55.9 -21.0 56.4 L-17.9 56.65 Q-15.5 56.5 -14.1 57.95 -13.8 58.3 -13.9 58.75 L-12.5 58.85 -12.05 58.95 -11.15 59.5 Q-10.75 59.95 -10.9 60.6 L-11.05 61.35 -11.3 62.1 -11.55 62.35 -12.1 62.7 -12.45 62.95 -14.0 63.6 -14.55 63.25 -14.95 62.65 -15.45 61.8 -15.55 61.5 -15.75 61.1 -15.9 60.9 -16.0 60.75 Q-16.5 61.9 -19.0 61.85 L-24.0 61.85 -29.9 62.1 -30.3 62.5 -30.75 62.9 -30.9 63.1 -34.95 63.7 -36.75 64.2 Q-39.85 65.35 -43.25 65.3 L-43.65 65.5 M-23.05 59.05 L-22.3 59.1 -21.25 58.85 -23.25 58.3 -23.55 58.2 -24.75 57.8 -24.75 58.4 Q-24.1 58.95 -23.05 59.05 M-13.0 87.8 Q-16.3 86.95 -19.75 87.0 L-20.25 87.0 Q-19.0 87.75 -17.55 87.95 L-14.95 88.55 -11.9 89.0 -11.0 88.85 Q-10.15 88.5 -13.0 87.8" fill="#ffffff" fill-rule="evenodd" stroke="none"/>
  </g>
</svg>
