<?xml version="1.0" encoding="UTF-8" standalone="no"?>
<svg xmlns:xlink="http://www.w3.org/1999/xlink" height="34.7px" width="83.05px" xmlns="http://www.w3.org/2000/svg">
  <g transform="matrix(1.0, 0.0, 0.0, 1.0, 46.65, -54.35)">
    <path d="M30.0 63.85 L32.45 64.2 Q33.3 64.35 34.0 64.9 L34.5 65.5 34.3 65.8 Q32.85 67.05 30.6 66.55 29.45 66.3 29.35 65.1 29.3 64.75 29.4 64.4 29.6 63.9 30.0 63.85 M21.45 68.9 L21.0 68.85 Q20.35 68.65 20.8 68.35 20.9 68.25 21.1 68.25 L21.45 68.9 M12.65 84.6 Q15.8 83.15 19.5 83.2 23.4 83.25 26.95 81.6 29.45 80.45 32.0 79.55 L32.25 79.5 Q31.4 82.8 26.9 84.2 L18.6 86.85 Q14.2 88.25 10.55 86.4 2.0 88.9 -6.3 87.35 L-6.4 87.35 Q-6.7 89.05 -8.5 89.05 L-16.5 88.75 -17.05 88.5 -17.4 87.85 -17.25 87.5 -17.0 87.3 -16.05 86.65 -16.1 86.1 -16.1 85.75 -16.0 85.4 -15.75 85.1 -9.55 84.8 Q-7.4 83.5 -3.8 84.2 L-3.3 84.3 0.25 84.05 0.5 84.0 1.0 83.85 2.0 83.95 2.95 84.0 3.5 84.25 3.45 84.45 4.5 84.25 6.6 83.95 6.75 83.9 7.0 83.85 7.1 83.85 7.8 84.5 Q9.55 84.85 11.25 84.45 L12.65 84.6 M34.7 75.45 Q33.95 74.1 35.25 74.0 36.8 74.35 36.25 75.45 35.5 76.9 34.7 75.45 M-41.95 72.75 L-38.0 74.3 Q-35.95 75.05 -34.15 76.0 L-33.95 76.4 -33.9 76.75 -33.95 77.1 -34.1 77.5 -34.25 77.85 -33.75 78.25 -33.3 78.65 -32.9 79.0 -32.7 79.4 -32.65 79.75 -32.75 80.1 -33.25 80.45 -32.25 81.6 Q-31.7 82.0 -31.0 82.05 -29.85 82.25 -29.05 83.05 L-28.5 83.75 -28.5 84.1 -28.65 84.45 -29.45 85.15 -30.0 85.45 -30.5 85.6 Q-34.35 84.6 -37.8 82.55 -41.05 80.55 -43.9 78.25 -47.35 75.45 -46.5 71.8 -46.35 71.35 -46.0 71.25 L-41.95 72.75 M-16.85 55.45 Q-15.45 55.75 -14.7 56.9 L-14.5 57.25 -14.5 57.6 -14.65 58.0 -14.9 58.35 -15.2 58.75 -15.4 59.1 -15.65 59.5 -15.6 59.85 -15.4 60.25 -15.2 60.6 -14.9 61.0 -14.75 61.25 -14.3 61.7 -14.0 62.35 Q-14.1 63.35 -15.0 63.5 L-17.2 63.2 -18.1 63.0 -18.4 62.75 -18.35 62.35 -18.2 62.0 -18.25 61.9 Q-18.5 61.2 -17.65 60.85 L-17.1 60.65 -17.15 60.6 -19.5 60.8 Q-22.95 61.25 -25.45 62.35 L-24.5 62.85 Q-24.2 62.85 -23.95 63.0 L-23.95 63.2 -24.3 63.6 -24.75 64.0 -27.0 63.75 -31.55 63.9 Q-33.35 64.25 -34.0 62.6 -33.85 61.45 -32.55 61.0 -28.4 59.5 -24.0 59.15 -20.6 58.85 -20.4 57.75 L-20.75 57.35 -21.05 57.15 -22.05 56.4 -22.5 55.7 Q-22.7 55.1 -22.2 54.7 L-21.5 54.35 -19.05 54.95 -16.85 55.45 M-25.9 81.9 Q-25.55 82.85 -27.0 82.75 -28.15 82.7 -27.75 81.4 L-27.5 81.1 Q-26.3 80.9 -25.9 81.9 M-20.6 87.65 Q-21.0 88.55 -21.7 88.15 -22.75 87.55 -21.85 87.05 L-21.5 86.85 Q-20.25 86.8 -20.6 87.65" fill="#ffffff" fill-rule="evenodd" stroke="none"/>
  </g>
</svg>
