<?xml version="1.0" encoding="UTF-8" standalone="no"?>
<svg xmlns:xlink="http://www.w3.org/1999/xlink" height="32.8px" width="70.4px" xmlns="http://www.w3.org/2000/svg">
  <g transform="matrix(1.0, 0.0, 0.0, 1.0, 37.05, -54.85)">
    <path d="M30.05 63.2 L30.95 62.55 31.0 62.5 32.0 62.55 32.45 62.7 33.1 63.3 33.35 64.0 33.0 64.5 32.1 65.15 Q30.95 65.95 30.35 64.65 L30.1 64.25 30.0 63.85 30.0 63.5 30.05 63.2 M16.7 83.5 Q18.5 82.75 20.5 82.85 21.6 82.9 22.5 82.35 26.5 83.7 21.95 84.95 19.1 85.7 16.45 87.0 L11.0 86.85 Q11.55 84.6 14.15 84.2 L16.7 83.5 M32.05 80.0 Q32.05 81.35 30.5 80.95 28.85 80.45 29.95 79.35 L30.5 79.0 Q32.05 78.6 32.05 80.0 M-19.05 56.8 L-22.15 56.65 Q-22.85 56.2 -22.4 55.45 -22.0 54.9 -21.5 54.85 L-20.05 55.05 Q-19.6 55.2 -19.25 55.55 L-18.75 56.25 -19.05 56.8 M-29.0 56.6 L-24.5 56.6 -24.0 56.95 -23.55 57.25 Q-22.95 57.4 -22.5 57.85 -22.2 58.1 -22.0 58.5 L-22.2 58.8 Q-25.8 61.5 -30.6 59.5 L-30.9 59.25 -30.85 58.85 -30.65 57.9 Q-30.55 57.3 -29.85 56.95 L-29.0 56.6 M-33.9 78.15 Q-32.85 78.55 -32.2 79.4 -31.45 80.3 -31.5 81.25 L-31.65 81.6 Q-32.25 82.5 -33.15 81.7 L-36.3 79.25 Q-37.9 78.05 -36.05 77.45 L-36.0 77.35 -33.9 78.15 M-18.0 84.0 L-17.05 84.05 -16.4 84.3 -16.0 84.6 -15.75 85.0 -15.65 85.35 -15.85 86.05 -16.0 86.6 -15.75 87.0 -17.4 87.2 Q-19.0 87.05 -19.1 85.5 -19.15 84.85 -18.7 84.4 -18.35 84.05 -18.0 84.0" fill="#ffffff" fill-rule="evenodd" stroke="none"/>
  </g>
</svg>
