<?xml version="1.0" encoding="UTF-8" standalone="no"?>
<svg xmlns:xlink="http://www.w3.org/1999/xlink" height="30.5px" width="12.15px" xmlns="http://www.w3.org/2000/svg">
  <g transform="matrix(1.0, 0.0, 0.0, 1.0, 5.3, 15.3)">
    <path d="M-3.1 -14.5 L-3.1 -14.55 -2.75 -14.8 -2.0 -14.55 -2.0 -14.5 -3.1 -14.5" fill="url(#gradient0)" fill-rule="evenodd" stroke="none"/>
    <path d="M2.3 -15.2 L3.85 -11.35 4.65 -5.5 4.05 -4.65 3.0 -0.15 2.85 4.95 1.6 13.4 0.15 14.95 Q-2.05 1.15 -2.0 -14.5 L-2.0 -14.55 Q0.3 -13.95 2.3 -15.2" fill="url(#gradient1)" fill-rule="evenodd" stroke="none"/>
    <path d="M0.15 14.95 L-0.1 15.2 -3.55 13.15 -3.7 0.5 -4.6 -4.9 -3.1 -14.5 -2.0 -14.5 Q-2.05 1.15 0.15 14.95" fill="url(#gradient2)" fill-rule="evenodd" stroke="none"/>
    <path d="M2.3 -15.2 L3.85 -11.35 4.65 -5.5 4.05 -4.65 3.0 -0.15 2.85 4.95 1.6 13.4 M-3.55 13.15 L-3.7 0.5 -4.6 -4.9 -3.1 -14.5 -3.1 -14.55 -2.75 -14.8" fill="none" stroke="#000000" stroke-linecap="round" stroke-linejoin="round" stroke-width="0.05"/>
    <path d="M0.6 0.0 L0.25 -3.35 Q-2.9 -4.05 -5.3 -6.35 L-4.5 -12.25 Q-1.65 -9.95 2.25 -9.65 5.4 -10.4 5.35 -15.3 8.6 -9.05 4.7 -2.85 L4.15 0.3 Q2.4 0.85 0.6 0.0" fill="url(#gradient3)" fill-rule="evenodd" stroke="none"/>
    <path d="M0.6 0.0 Q2.4 0.85 4.15 0.3 L2.35 12.25 Q-1.2 14.75 -4.3 11.5 L-4.0 5.9 Q-1.8 8.5 0.4 7.9 0.95 4.95 0.6 0.0" fill="url(#gradient4)" fill-rule="evenodd" stroke="none"/>
    <path d="M4.15 0.3 L4.7 -2.85 Q8.6 -9.05 5.35 -15.3 5.4 -10.4 2.25 -9.65 -1.65 -9.95 -4.5 -12.25 L-5.3 -6.35 Q-2.9 -4.05 0.25 -3.35 L0.6 0.0 Q2.4 0.85 4.15 0.3 L2.35 12.25 Q-1.2 14.75 -4.3 11.5 L-4.0 5.9 Q-1.8 8.5 0.4 7.9 0.95 4.95 0.6 0.0" fill="none" stroke="#000000" stroke-linecap="round" stroke-linejoin="round" stroke-width="0.05"/>
  </g>
  <defs>
    <radialGradient cx="0" cy="0" gradientTransform="matrix(0.008, 0.0, 0.0, 0.0211, -5.75, -1.05)" gradientUnits="userSpaceOnUse" id="gradient0" r="819.2" spreadMethod="pad">
      <stop offset="0.0" stop-color="#8c7148"/>
      <stop offset="0.792156862745098" stop-color="#241c17"/>
      <stop offset="1.0" stop-color="#3e3728"/>
    </radialGradient>
    <radialGradient cx="0" cy="0" gradientTransform="matrix(0.006, 0.0, 0.0, 0.0248, 1.6, -8.65)" gradientUnits="userSpaceOnUse" id="gradient1" r="819.2" spreadMethod="pad">
      <stop offset="0.0" stop-color="#626973"/>
      <stop offset="0.792156862745098" stop-color="#181b23"/>
      <stop offset="1.0" stop-color="#28333e"/>
    </radialGradient>
    <radialGradient cx="0" cy="0" gradientTransform="matrix(0.008, 0.0, 0.0, 0.0211, -5.75, -1.05)" gradientUnits="userSpaceOnUse" id="gradient2" r="819.2" spreadMethod="pad">
      <stop offset="0.0" stop-color="#626973"/>
      <stop offset="0.792156862745098" stop-color="#181b23"/>
      <stop offset="1.0" stop-color="#28333e"/>
    </radialGradient>
    <radialGradient cx="0" cy="0" gradientTransform="matrix(0.0106, 0.0, 0.0, 0.0106, 2.05, -7.8)" gradientUnits="userSpaceOnUse" id="gradient3" r="819.2" spreadMethod="pad">
      <stop offset="0.0" stop-color="#315057"/>
      <stop offset="1.0" stop-color="#0c1030"/>
    </radialGradient>
    <radialGradient cx="0" cy="0" gradientTransform="matrix(0.009, 0.0, 0.0, 0.0184, 2.1, -0.55)" gradientUnits="userSpaceOnUse" id="gradient4" r="819.2" spreadMethod="pad">
      <stop offset="0.0" stop-color="#aec6c8"/>
      <stop offset="0.6901960784313725" stop-color="#505a5a"/>
      <stop offset="0.803921568627451" stop-color="#414f50"/>
      <stop offset="1.0" stop-color="#326478"/>
    </radialGradient>
  </defs>
</svg>
