<?xml version="1.0" encoding="UTF-8" standalone="no"?>
<svg xmlns:xlink="http://www.w3.org/1999/xlink" height="39.25px" width="9.6px" xmlns="http://www.w3.org/2000/svg">
  <g transform="matrix(1.0, 0.0, 0.0, 1.0, 5.55, 9.15)">
    <path d="M2.0 4.95 L2.0 5.0 1.95 5.05 1.9 4.85 2.0 4.95" fill="url(#gradient0)" fill-rule="evenodd" stroke="none"/>
    <path d="M1.9 4.85 L2.0 4.9 2.0 4.95 1.9 4.85" fill="url(#gradient1)" fill-rule="evenodd" stroke="none"/>
    <path d="M3.0 -6.9 Q3.7 -4.25 3.45 -2.1 2.75 -0.55 2.4 0.8 0.9 3.15 1.9 4.85 L1.95 5.05 Q-0.9 6.25 -2.95 4.05 L-2.95 4.0 Q-2.25 1.55 -3.15 -1.05 L-3.0 -4.55 Q-2.8 -6.1 -0.75 -9.15 L3.0 -6.9" fill="url(#gradient2)" fill-rule="evenodd" stroke="none"/>
    <path d="M1.95 5.05 L0.9 6.85 1.3 8.4 0.15 9.2 -3.55 6.1 -2.95 4.05 Q-0.9 6.25 1.95 5.05" fill="url(#gradient3)" fill-rule="evenodd" stroke="none"/>
    <path d="M3.0 -6.9 Q3.7 -4.25 3.45 -2.1 2.75 -0.55 2.4 0.8 0.9 3.15 1.9 4.85 L2.0 4.95 2.0 5.0 1.95 5.05 0.9 6.85 1.3 8.4 0.15 9.2 -3.55 6.1 -2.95 4.05 -2.95 4.0 Q-2.25 1.55 -3.15 -1.05 L-3.0 -4.55 Q-2.8 -6.1 -0.75 -9.15 M2.0 4.9 L2.0 4.95" fill="none" stroke="#000000" stroke-linecap="round" stroke-linejoin="round" stroke-width="0.05"/>
    <path d="M2.0 4.95 L2.0 5.0 1.95 5.05 1.9 4.85 2.0 4.95" fill="url(#gradient4)" fill-rule="evenodd" stroke="none"/>
    <path d="M1.9 4.85 L2.0 4.9 2.0 4.95 1.9 4.85" fill="url(#gradient5)" fill-rule="evenodd" stroke="none"/>
    <path d="M1.95 5.05 L0.9 6.85 1.3 8.4 0.15 9.2 -0.25 8.85 -0.25 5.45 1.95 5.05 M-0.6 5.4 L-2.1 5.4 -2.1 7.3 -3.55 6.1 -2.95 4.05 -2.25 4.65 Q-1.5 5.25 -0.6 5.4" fill="url(#gradient6)" fill-rule="evenodd" stroke="none"/>
    <path d="M-2.95 4.05 L-2.95 4.0 Q-2.25 1.55 -3.15 -1.05 L-3.0 -4.55 -2.25 -6.6 Q0.5 -5.25 3.3 -5.65 L3.45 -2.1 Q2.75 -0.55 2.4 0.8 1.0 3.05 1.8 4.65 L1.9 4.85 1.95 5.05 -0.25 5.45 -0.25 5.4 -0.6 5.4 Q-1.5 5.25 -2.25 4.65 L-2.95 4.05" fill="url(#gradient7)" fill-rule="evenodd" stroke="none"/>
    <path d="M-2.95 4.05 L-2.95 4.0 Q-2.25 1.55 -3.15 -1.05 L-3.0 -4.55 -2.25 -6.6 Q0.5 -5.25 3.3 -5.65 L3.45 -2.1 Q2.75 -0.55 2.4 0.8 1.0 3.05 1.8 4.65 L1.9 4.85 2.0 4.95 2.0 5.0 1.95 5.05 0.9 6.85 1.3 8.4 0.15 9.2 -0.25 8.85 M2.0 4.9 L2.0 4.95 M-2.1 7.3 L-3.55 6.1 -2.95 4.05" fill="none" stroke="#000000" stroke-linecap="round" stroke-linejoin="round" stroke-width="0.05"/>
    <path d="M-2.1 11.05 Q-4.0 19.5 -2.8 30.1 -6.9 18.45 -4.9 7.7 -2.9 7.1 -2.1 11.05" fill="url(#gradient8)" fill-rule="evenodd" stroke="none"/>
    <path d="M-2.1 11.05 Q-4.0 19.5 -2.8 30.1 -6.9 18.45 -4.9 7.7 -2.9 7.1 -2.1 11.05 Z" fill="none" stroke="#000000" stroke-linecap="round" stroke-linejoin="round" stroke-width="0.05"/>
    <path d="M-2.0 8.25 Q-3.4 7.15 -3.9 5.55 L-3.25 2.65 Q-2.85 0.6 -3.95 -0.85 L-3.65 -3.7 Q-0.15 -0.9 4.05 -2.0 L2.65 1.65 1.7 3.2 2.5 5.4 1.45 6.9 2.1 8.6 0.65 10.35 -2.0 8.3 -2.0 8.25" fill="url(#gradient9)" fill-rule="evenodd" stroke="none"/>
    <path d="M-2.0 8.3 L-2.1 8.2 -2.0 8.25 -2.0 8.3" fill="url(#gradient10)" fill-rule="evenodd" stroke="none"/>
    <path d="M-2.0 8.25 Q-3.4 7.15 -3.9 5.55 L-3.25 2.65 Q-2.85 0.6 -3.95 -0.85 L-3.65 -3.7 Q-0.15 -0.9 4.05 -2.0 L2.65 1.65 1.7 3.2 2.5 5.4 1.45 6.9 2.1 8.6 0.65 10.35 -2.0 8.3 -2.1 8.2" fill="none" stroke="#000000" stroke-linecap="round" stroke-linejoin="round" stroke-width="0.05"/>
  </g>
  <defs>
    <radialGradient cx="0" cy="0" gradientTransform="matrix(0.0133, 0.0026, -0.0018, 0.0144, 0.8, -7.0)" gradientUnits="userSpaceOnUse" id="gradient0" r="819.2" spreadMethod="pad">
      <stop offset="0.0" stop-color="#6a7249"/>
      <stop offset="1.0" stop-color="#393a2c"/>
    </radialGradient>
    <radialGradient cx="0" cy="0" gradientTransform="matrix(0.0038, 7.0E-4, -5.0E-4, 0.0041, -0.45, 6.05)" gradientUnits="userSpaceOnUse" id="gradient1" r="819.2" spreadMethod="pad">
      <stop offset="0.0" stop-color="#6a7249"/>
      <stop offset="1.0" stop-color="#393a2c"/>
    </radialGradient>
    <radialGradient cx="0" cy="0" gradientTransform="matrix(0.0104, 0.0, 0.0, 0.0104, 0.0, -2.6)" gradientUnits="userSpaceOnUse" id="gradient2" r="819.2" spreadMethod="pad">
      <stop offset="0.0" stop-color="#b63030"/>
      <stop offset="0.6980392156862745" stop-color="#3f1616"/>
      <stop offset="1.0" stop-color="#412525"/>
    </radialGradient>
    <radialGradient cx="0" cy="0" gradientTransform="matrix(0.0062, 0.0, 0.0, 0.0062, 0.1, 8.1)" gradientUnits="userSpaceOnUse" id="gradient3" r="819.2" spreadMethod="pad">
      <stop offset="0.0" stop-color="#b63030"/>
      <stop offset="0.6980392156862745" stop-color="#3f1616"/>
      <stop offset="1.0" stop-color="#412525"/>
    </radialGradient>
    <radialGradient cx="0" cy="0" gradientTransform="matrix(0.0133, 0.0026, -0.0018, 0.0144, 0.8, -7.0)" gradientUnits="userSpaceOnUse" id="gradient4" r="819.2" spreadMethod="pad">
      <stop offset="0.0" stop-color="#6a7249"/>
      <stop offset="1.0" stop-color="#393a2c"/>
    </radialGradient>
    <radialGradient cx="0" cy="0" gradientTransform="matrix(0.0038, 7.0E-4, -5.0E-4, 0.0041, -0.45, 6.05)" gradientUnits="userSpaceOnUse" id="gradient5" r="819.2" spreadMethod="pad">
      <stop offset="0.0" stop-color="#6a7249"/>
      <stop offset="1.0" stop-color="#393a2c"/>
    </radialGradient>
    <radialGradient cx="0" cy="0" gradientTransform="matrix(0.0049, 0.0, 0.0, 0.0049, -0.2, 7.0)" gradientUnits="userSpaceOnUse" id="gradient6" r="819.2" spreadMethod="pad">
      <stop offset="0.0" stop-color="#ddd0c4"/>
      <stop offset="0.396078431372549" stop-color="#b39577"/>
      <stop offset="1.0" stop-color="#4b3834"/>
    </radialGradient>
    <radialGradient cx="0" cy="0" gradientTransform="matrix(0.0076, 0.0, 0.0, 0.0076, -0.5, -5.75)" gradientUnits="userSpaceOnUse" id="gradient7" r="819.2" spreadMethod="pad">
      <stop offset="0.0" stop-color="#c1a668"/>
      <stop offset="0.4588235294117647" stop-color="#8d6850"/>
      <stop offset="1.0" stop-color="#342121"/>
    </radialGradient>
    <radialGradient cx="0" cy="0" gradientTransform="matrix(0.0166, 0.0021, -0.0017, 0.0202, -3.85, 24.15)" gradientUnits="userSpaceOnUse" id="gradient8" r="819.2" spreadMethod="pad">
      <stop offset="0.0" stop-color="#940e0e"/>
      <stop offset="0.4117647058823529" stop-color="#ad3e1a"/>
      <stop offset="0.5686274509803921" stop-color="#cd7b29"/>
      <stop offset="1.0" stop-color="#532d2d"/>
    </radialGradient>
    <radialGradient cx="0" cy="0" gradientTransform="matrix(0.0115, 0.0, 0.0, 0.0115, -1.3, 1.15)" gradientUnits="userSpaceOnUse" id="gradient9" r="819.2" spreadMethod="pad">
      <stop offset="0.0" stop-color="#5f2929"/>
      <stop offset="1.0" stop-color="#242017"/>
    </radialGradient>
    <radialGradient cx="0" cy="0" gradientTransform="matrix(0.016, 0.0, 0.0, 0.016, -0.55, -2.7)" gradientUnits="userSpaceOnUse" id="gradient10" r="819.2" spreadMethod="pad">
      <stop offset="0.0" stop-color="#5f2929"/>
      <stop offset="1.0" stop-color="#242017"/>
    </radialGradient>
  </defs>
</svg>
