<?xml version="1.0" encoding="UTF-8" standalone="no"?>
<svg xmlns:xlink="http://www.w3.org/1999/xlink" height="44.2px" width="32.4px" xmlns="http://www.w3.org/2000/svg">
  <g transform="matrix(1.0, 0.0, 0.0, 1.0, 18.0, 19.25)">
    <path d="M7.15 -0.1 L6.7 1.7 Q6.3 2.8 5.1 2.1 L4.9 1.35 4.8 -0.1 Q4.75 -1.3 6.0 -1.45 L6.0 -1.5 Q7.35 -1.25 7.15 -0.1 M2.5 -4.9 L2.0 -4.0 Q1.8 -3.75 1.5 -3.75 1.15 -3.75 0.9 -3.9 -2.9 -5.95 -3.25 -4.2 L-3.15 -3.9 -3.1 -3.5 -3.2 -3.15 -4.15 -2.0 -4.4 -1.8 -5.55 -1.15 -6.5 -0.5 -6.5 -0.15 -6.5 0.25 -6.5 1.35 -6.5 1.75 -6.5 2.85 Q-6.45 3.65 -6.7 4.35 L-6.9 4.75 Q-8.4 5.45 -9.35 3.95 L-9.55 3.65 Q-10.3 1.95 -9.8 -0.05 -9.55 -1.0 -9.55 -2.0 L-9.8 -3.05 Q-10.15 -4.0 -9.75 -5.0 L-9.55 -5.4 -9.35 -5.7 -8.4 -6.5 -8.0 -6.75 -7.4 -7.0 -6.55 -7.3 -6.5 -7.4 -4.5 -7.35 -4.5 -7.5 -4.45 -7.85 -4.1 -8.2 -3.5 -8.5 -2.55 -8.35 -1.9 -8.15 -1.0 -7.85 -0.4 -7.65 -0.25 -7.25 -0.15 -6.9 0.95 -6.75 Q2.55 -6.5 2.5 -4.9 M5.0 5.6 Q6.4 6.05 5.95 7.25 5.55 8.3 4.55 7.4 3.7 6.6 4.55 5.85 4.75 5.7 5.0 5.6 M0.85 9.25 L0.2 10.0 0.1 10.1 0.65 10.0 1.95 8.85 Q2.7 8.1 3.6 8.35 3.95 9.35 3.55 10.2 2.15 13.5 -1.7 12.1 -4.5 11.1 -5.55 8.9 -5.9 8.05 -5.0 8.0 L-3.4 8.25 -1.5 8.45 0.4 8.8 0.85 9.25 M1.45 21.65 L1.95 22.35 2.2 22.2 2.6 22.0 3.0 21.9 4.45 21.45 4.5 21.35 Q6.9 21.35 5.75 22.7 L6.0 22.7 8.45 22.5 Q10.05 22.2 10.1 23.35 8.85 25.1 5.9 24.65 L3.0 24.8 Q1.15 25.25 0.9 24.1 L-1.6 24.05 Q-2.85 23.45 -3.0 22.25 L-3.0 21.85 -2.85 21.5 -2.5 21.1 -2.1 20.8 -1.55 20.55 -1.5 20.5 0.1 20.85 Q0.9 21.05 1.45 21.65 M14.4 19.95 Q14.45 20.55 13.95 20.95 13.55 21.25 13.0 21.35 L12.1 20.65 11.75 20.0 11.85 19.35 12.5 19.15 13.6 18.95 14.1 18.85 14.4 19.95 M12.1 21.25 Q12.3 21.85 11.65 22.05 11.1 22.2 11.05 21.85 10.9 21.35 11.75 21.25 L12.1 21.25 M-3.5 -19.25 L-2.35 -18.95 Q-1.5 -18.65 -1.55 -17.95 L-1.85 -16.9 -2.0 -16.5 -3.35 -16.55 -3.8 -16.65 Q-4.25 -16.1 -5.2 -15.75 -6.85 -15.15 -8.0 -16.25 L-8.4 -16.65 -8.25 -17.3 -7.25 -18.5 -7.0 -18.7 -6.55 -18.8 -6.5 -18.9 Q-5.75 -18.75 -5.4 -18.15 -5.25 -17.85 -4.75 -17.85 L-4.75 -18.25 Q-4.6 -19.3 -3.5 -19.2 L-3.5 -19.25 M-10.6 -16.4 Q-11.1 -15.6 -12.05 -15.55 L-13.75 -15.75 -13.7 -16.05 -12.3 -17.3 -11.85 -17.6 Q-11.7 -17.7 -11.5 -17.75 L-11.25 -17.75 Q-10.05 -17.4 -10.6 -16.4 M-16.9 -10.5 Q-17.9 -9.3 -18.0 -10.75 -18.1 -11.85 -17.0 -12.0 L-16.75 -12.0 Q-16.15 -11.35 -16.9 -10.5" fill="#ffffff" fill-rule="evenodd" stroke="none"/>
    <path d="M-1.4 -2.25 L-1.0 -2.45 Q0.4 -2.8 1.2 -1.7 1.95 -0.65 2.05 0.7 2.1 1.95 1.4 3.15 -0.45 4.4 -2.15 3.2 -4.0 1.85 -3.2 -0.35 -2.7 -1.65 -1.4 -2.25" fill="#ffffff" fill-rule="evenodd" stroke="none"/>
  </g>
</svg>
