<?xml version="1.0" encoding="UTF-8" standalone="no"?>
<svg xmlns:xlink="http://www.w3.org/1999/xlink" height="80.4px" width="79.2px" xmlns="http://www.w3.org/2000/svg">
  <g transform="matrix(1.0, 0.0, 0.0, 1.0, 38.7, 37.65)">
    <path d="M23.3 -31.3 L24.35 -29.55 Q25.35 -28.1 25.2 -27.2 25.15 -26.95 24.6 -26.75 L24.5 -26.0 Q24.4 -25.65 24.6 -25.45 L24.8 -25.15 26.7 -24.45 Q28.65 -23.5 29.1 -21.55 29.45 -20.05 30.75 -18.65 L31.5 -18.5 Q32.35 -18.3 32.7 -17.5 L33.5 -16.4 34.85 -14.9 34.85 -14.15 Q34.7 -13.55 34.9 -13.0 L35.2 -12.3 35.45 -11.15 Q35.4 -10.55 35.6 -10.0 L35.8 -9.65 36.0 -9.5 36.55 -9.2 36.85 -8.9 37.05 -6.25 37.0 -2.9 Q37.0 -1.0 37.15 0.85 L37.3 2.2 38.1 1.2 Q38.25 1.05 38.5 1.0 L39.5 1.4 Q40.05 1.75 39.95 2.35 39.9 3.05 39.4 3.55 L39.25 3.85 39.6 4.25 39.85 4.65 40.0 5.0 39.95 5.35 40.0 6.0 40.25 5.85 Q41.3 10.9 37.8 15.35 34.7 19.2 31.95 23.45 28.95 28.1 24.5 27.85 26.25 24.65 28.75 21.65 L27.35 21.5 27.0 21.1 26.9 20.75 26.85 20.35 26.85 20.0 26.85 19.6 28.6 17.15 28.45 17.0 27.5 16.35 27.45 15.6 27.6 14.5 Q27.95 13.65 28.6 13.0 29.35 12.25 28.5 12.1 27.1 11.8 27.2 10.35 27.3 8.8 27.65 7.3 28.1 5.55 29.45 4.95 L29.5 4.85 30.5 4.9 30.95 5.0 31.55 5.3 31.85 5.6 32.05 6.75 31.85 8.6 Q31.65 9.75 31.7 10.85 L31.8 11.45 32.05 10.9 Q33.9 6.9 33.25 2.5 32.9 0.3 33.8 -2.0 L34.15 -2.6 Q33.55 -6.55 31.65 -10.05 30.9 -11.4 31.0 -12.9 32.55 -13.9 31.55 -15.35 L29.25 -18.5 Q27.5 -20.85 25.9 -19.55 L25.75 -19.0 25.4 -19.05 25.15 -19.6 25.0 -20.4 25.1 -21.15 25.25 -21.4 24.3 -21.75 Q22.35 -21.35 19.95 -22.65 18.25 -23.5 16.55 -24.7 L15.85 -25.25 Q14.0 -27.05 12.0 -28.5 12.25 -31.9 7.35 -30.4 6.5 -30.15 6.5 -31.0 L6.55 -31.75 6.7 -32.5 6.75 -32.9 6.65 -33.1 6.0 -33.25 4.1 -32.8 2.75 -32.65 1.7 -33.3 0.65 -33.95 0.25 -34.25 0.6 -34.95 1.35 -35.75 1.6 -35.9 1.6 -36.0 1.6 -36.4 2.4 -37.1 2.55 -37.2 3.25 -37.55 3.6 -37.65 3.7 -37.2 3.8 -36.9 3.95 -36.1 3.8 -35.4 3.5 -34.75 2.55 -34.8 2.6 -34.5 2.75 -34.15 6.1 -34.3 Q7.95 -35.25 8.1 -33.75 9.6 -31.5 14.25 -30.45 15.35 -30.2 15.95 -29.1 16.5 -28.2 17.5 -27.65 L20.05 -27.15 19.85 -27.7 Q19.15 -30.0 19.3 -32.35 19.35 -33.1 20.0 -33.15 L20.6 -32.85 21.1 -32.7 21.95 -32.55 22.6 -32.4 23.3 -31.3 M20.0 -21.15 L20.6 -20.85 21.0 -20.75 21.85 -20.75 22.6 -20.75 Q22.6 -20.0 23.15 -19.55 24.0 -18.9 25.0 -18.55 L27.0 -17.7 Q27.7 -17.35 27.5 -16.75 L27.15 -16.25 Q26.85 -16.0 26.45 -15.9 L22.35 -15.75 21.2 -17.05 19.25 -19.45 Q18.65 -20.15 19.35 -20.7 L20.0 -21.15 M3.6 -16.15 L3.05 -15.45 Q2.35 -14.8 1.5 -14.8 L-3.05 -14.15 -4.75 -13.65 -5.05 -13.2 -5.1 -12.9 -5.3 -12.5 -5.65 -12.15 -5.9 -11.9 -6.0 -11.8 -9.0 -11.85 Q-9.85 -11.95 -10.55 -12.4 L-11.0 -13.0 -10.55 -13.65 -9.15 -15.05 Q-7.35 -16.9 -4.55 -17.0 L-3.0 -17.05 -3.0 -17.15 -0.55 -16.95 1.5 -16.8 Q2.75 -16.8 3.6 -16.15 M7.15 -14.85 L7.4 -15.1 8.0 -15.4 8.45 -15.35 9.2 -15.1 9.7 -14.7 10.25 -14.0 Q10.15 -13.35 9.5 -13.25 5.95 -12.55 7.15 -14.85 M22.0 -0.4 Q23.2 0.2 23.1 1.75 L22.45 4.4 Q21.75 5.85 22.55 6.7 L22.75 7.0 21.9 8.15 20.75 9.55 Q20.3 10.35 19.5 10.6 17.7 8.95 18.85 6.35 L20.3 2.85 Q20.85 1.35 21.55 -0.05 L22.0 -0.4 M13.0 15.5 Q14.5 15.4 14.35 16.85 14.2 18.05 13.0 18.4 11.5 18.85 10.7 17.7 L10.6 17.35 10.75 16.65 Q10.9 16.15 11.45 16.0 L12.95 15.55 13.0 15.5 M4.0 42.25 Q-5.95 44.0 -14.65 39.6 -16.15 38.85 -16.85 37.8 -19.0 37.45 -21.05 36.0 -22.45 34.95 -24.0 34.05 -25.2 33.35 -25.25 32.0 -25.35 30.15 -24.0 29.6 L-23.45 29.95 -23.3 30.25 -23.15 31.0 -23.15 31.35 -21.5 32.1 Q-20.25 32.75 -19.55 33.85 L-18.4 34.75 -15.45 34.95 Q-13.8 34.6 -13.9 35.75 L-14.55 36.0 -15.2 36.2 Q-14.15 36.35 -13.0 37.0 L-8.8 39.5 Q-7.7 40.2 -5.5 40.1 L-4.85 39.85 -4.7 39.65 -4.5 39.25 -4.25 39.0 -4.0 38.85 5.5 38.35 Q7.5 37.95 6.75 36.1 8.3 35.0 10.4 34.45 L13.4 33.45 Q15.6 32.6 17.7 31.25 17.9 31.1 18.25 31.1 18.2 34.2 14.85 35.4 11.65 36.5 8.9 38.4 6.0 40.4 4.0 42.25 M23.55 30.85 L23.25 31.25 22.65 32.0 22.5 32.25 Q21.9 32.2 21.65 31.85 L20.55 30.85 Q19.7 30.2 20.65 29.5 21.1 29.2 21.6 29.25 L22.1 29.3 23.2 29.5 Q23.4 29.55 23.55 29.75 L23.75 30.1 23.7 30.5 23.55 30.85 M-10.95 -31.9 L-11.0 -32.25 Q-9.95 -33.6 -8.15 -33.85 -7.2 -33.95 -6.55 -34.5 L-4.0 -36.1 -3.9 -36.15 -4.2 -35.35 -4.45 -34.65 -4.75 -33.9 -5.55 -33.4 -7.15 -32.9 -8.3 -30.75 -9.6 -29.35 Q-11.0 -28.25 -12.6 -28.85 L-13.0 -29.15 Q-13.2 -29.85 -12.6 -30.15 -11.6 -30.6 -10.95 -31.4 L-10.95 -31.9 M-13.75 -32.75 L-13.0 -32.2 -13.0 -32.05 Q-13.7 -32.05 -14.15 -32.6 -14.4 -32.9 -13.75 -32.75 M-17.9 -27.75 L-17.5 -27.55 -17.0 -27.15 -16.5 -26.5 -23.2 -18.5 Q-26.35 -14.65 -28.75 -10.35 -31.05 -6.15 -31.0 -1.4 L-31.25 -1.0 -31.55 -0.75 -32.2 -0.4 -32.5 -0.15 Q-32.4 0.5 -32.7 1.0 L-32.85 1.25 Q-32.55 1.85 -33.0 2.8 L-33.4 3.75 -33.35 3.8 Q-32.9 4.3 -32.95 4.85 L-33.0 5.95 -33.25 6.1 Q-33.85 4.75 -33.65 6.9 L-33.55 8.7 Q-32.5 9.7 -32.4 11.4 L-32.05 11.75 -31.9 12.1 Q-31.7 13.6 -31.65 15.1 L-31.6 15.4 Q-30.0 16.2 -31.2 17.65 -31.4 17.9 -30.9 18.8 L-30.35 19.1 Q-29.95 19.35 -29.85 19.8 L-29.8 20.3 Q-29.25 20.8 -28.5 21.1 L-27.9 21.6 -28.25 22.0 -28.5 22.15 -27.1 23.2 Q-25.2 24.5 -24.3 26.55 -23.9 27.45 -24.4 28.25 L-25.1 28.65 -25.55 28.9 -26.5 29.0 -27.25 28.85 -30.05 24.8 Q-33.75 24.3 -34.75 18.15 L-34.9 17.25 Q-35.15 17.2 -35.4 17.5 L-35.5 18.25 Q-35.55 18.8 -36.05 18.95 L-38.25 18.85 Q-38.8 18.05 -38.7 17.0 L-38.4 14.7 Q-38.25 13.5 -37.5 12.5 L-37.2 12.2 -36.5 11.9 -36.0 11.75 -35.95 11.6 -36.6 11.2 -37.0 10.85 -37.05 7.85 Q-37.15 5.85 -36.7 4.05 -36.25 2.3 -35.25 0.85 L-35.25 0.75 -34.8 -1.25 Q-34.5 -1.9 -34.5 -2.65 -34.5 -3.35 -34.9 -2.75 -36.9 -2.3 -36.25 -4.55 L-35.3 -6.75 Q-34.6 -7.85 -34.1 -9.1 -33.95 -9.55 -35.0 -8.9 -37.6 -12.7 -32.7 -15.95 -28.35 -18.8 -24.45 -22.55 L-18.5 -28.0 -17.9 -27.75 M-1.4 -33.4 Q-1.8 -32.4 -2.6 -32.9 -3.9 -33.65 -2.55 -34.2 L-2.5 -34.25 Q-0.95 -34.45 -1.4 -33.4 M-18.0 -4.75 Q-17.0 -5.35 -16.3 -6.3 -15.7 -7.1 -14.75 -7.15 -14.0 -6.65 -14.45 -5.95 -14.8 -5.35 -15.3 -4.9 -15.8 -4.5 -15.8 -3.9 -15.75 -3.75 -15.4 -3.65 -15.25 -2.8 -16.8 -2.5 L-17.95 -2.75 -18.9 -3.25 Q-18.9 -4.2 -18.0 -4.75 M-16.0 12.5 Q-14.8 12.7 -14.65 13.9 -14.55 14.85 -15.45 15.25 -16.5 15.75 -17.2 14.8 L-17.5 14.1 -17.5 13.75 -17.35 13.4 -16.8 12.9 -16.05 12.55 -16.0 12.5 M-11.25 20.2 L-10.65 20.75 Q-10.35 21.0 -9.9 21.1 L-9.4 21.25 -9.35 21.6 -9.5 22.4 -9.5 22.75 -9.6 23.1 -9.9 23.75 -10.0 23.85 Q-11.1 23.95 -12.0 23.1 -12.6 22.55 -12.85 21.7 -13.4 20.15 -12.05 19.7 L-12.0 19.6 -11.25 20.2" fill="#ffffff" fill-rule="evenodd" stroke="none"/>
    <path d="M0.8 -0.9 L1.05 -0.55 1.05 -0.35 1.05 -0.2 1.05 0.2 0.95 0.55 0.9 0.7 0.75 0.75 0.25 0.95 -0.25 1.0 -0.6 0.95 -0.8 0.75 -1.1 0.2 -0.9 -0.5 -0.25 -1.05 0.5 -1.0 0.8 -0.9" fill="#ffffff" fill-rule="evenodd" stroke="none"/>
  </g>
</svg>
