<?xml version="1.0" encoding="UTF-8" standalone="no"?>
<svg xmlns:xlink="http://www.w3.org/1999/xlink" height="75.3px" width="71.45px" xmlns="http://www.w3.org/2000/svg">
  <g transform="matrix(1.0, 0.0, 0.0, 1.0, 36.25, 30.9)">
    <path d="M4.7 -30.35 Q4.9 -30.9 5.5 -30.8 L5.5 -30.9 6.6 -30.65 Q7.15 -30.5 7.55 -30.15 L7.7 -29.65 7.6 -29.25 6.85 -28.6 Q5.9 -28.15 5.0 -29.0 4.45 -29.55 4.7 -30.35 M19.5 -22.65 Q20.7 -21.8 22.0 -21.35 23.55 -20.85 23.85 -19.1 L23.9 -16.15 23.75 -15.75 Q21.95 -15.1 20.4 -16.8 19.05 -18.35 18.3 -20.2 17.4 -22.3 19.5 -22.65 M33.15 -7.45 L33.95 -7.8 34.0 -7.9 Q34.9 -7.6 34.75 -6.55 L34.35 -4.95 33.6 -3.25 33.5 -3.15 Q32.55 -2.8 32.3 -3.7 L31.8 -5.1 Q31.5 -5.95 32.0 -6.65 L32.25 -6.95 33.15 -7.45 M34.0 13.6 Q35.35 13.6 35.2 14.95 35.15 15.95 33.95 15.45 32.5 14.9 33.55 13.85 L34.0 13.6 M26.0 24.0 Q26.9 23.85 27.55 24.45 27.9 24.8 28.5 24.95 29.4 25.2 29.85 26.0 L30.1 26.35 Q30.15 27.15 29.65 27.8 29.1 28.5 28.4 28.85 26.85 29.7 25.5 30.8 25.1 31.15 24.5 31.1 L23.8 30.8 23.45 30.5 22.85 29.75 22.55 29.35 22.5 29.0 22.55 28.65 22.7 28.2 22.7 27.5 22.65 27.1 22.6 26.75 23.25 26.0 23.85 25.35 24.0 25.25 24.95 24.55 Q25.5 24.15 26.0 24.0 M1.6 40.8 L1.85 41.5 1.75 41.85 1.6 42.15 1.85 42.9 Q1.95 43.85 1.05 44.25 0.0 44.75 -0.7 43.8 L-0.95 43.15 Q-1.85 43.05 -2.5 42.35 L-2.45 42.0 -2.15 41.25 -1.65 40.6 -1.05 40.2 -1.0 40.1 0.95 40.35 Q1.35 40.45 1.6 40.8 M-16.0 -28.9 L-13.9 -29.15 -15.0 -27.9 Q-15.4 -27.2 -16.3 -27.1 L-18.0 -27.35 -18.65 -27.65 -18.7 -28.0 -18.6 -28.35 -18.35 -28.6 -18.0 -28.75 -16.0 -28.9 M-23.0 -24.5 Q-22.1 -24.65 -21.7 -23.85 -21.35 -22.95 -22.1 -22.35 L-21.65 -21.4 Q-22.4 -20.25 -23.6 -19.6 L-26.4 -17.95 Q-27.75 -17.0 -29.15 -17.25 L-29.45 -18.05 Q-29.65 -18.65 -29.35 -19.15 -29.0 -19.7 -29.1 -20.2 L-29.0 -21.4 -27.45 -22.75 Q-26.0 -23.85 -24.25 -24.2 L-23.0 -24.5 M-32.4 -4.65 Q-32.3 -3.35 -32.7 -2.3 L-33.35 -0.4 Q-33.7 0.9 -34.9 1.0 -35.3 0.35 -35.25 -0.5 L-35.05 -2.1 -34.6 -3.1 -34.4 -3.5 Q-34.0 -3.75 -33.65 -4.05 L-32.95 -4.55 -32.75 -4.65 -32.4 -4.65 M-33.75 10.0 L-33.55 11.1 -33.35 11.85 -33.0 12.25 Q-32.85 12.8 -33.25 13.4 L-33.85 14.5 Q-34.2 15.3 -35.0 15.5 -36.5 14.8 -36.2 12.95 L-35.8 10.65 Q-35.6 9.8 -34.95 9.3 -34.5 8.9 -33.9 8.85 L-33.75 10.0 M-30.85 18.2 L-30.5 18.35 -30.05 18.4 -29.4 18.6 Q-28.2 20.75 -27.55 23.15 L-26.2 28.05 -24.8 32.9 -24.9 33.25 Q-26.1 33.75 -26.8 32.45 -27.3 31.5 -28.1 30.85 -28.8 30.25 -28.9 29.35 -29.05 28.7 -28.7 28.2 -28.35 27.7 -28.75 27.2 L-29.3 25.6 Q-29.4 24.65 -29.9 25.35 L-31.25 25.25 -31.65 25.0 -31.95 24.6 -32.15 24.25 Q-32.0 23.3 -32.2 22.4 L-32.4 20.1 Q-32.35 18.95 -31.9 18.05 -31.7 17.75 -31.25 17.85 L-30.85 18.2 M-18.25 35.8 Q-18.05 34.65 -17.0 34.4 L-16.9 34.35 Q-16.85 35.35 -17.45 35.95 -18.5 37.1 -18.25 35.8" fill="#ffffff" fill-rule="evenodd" stroke="none"/>
  </g>
</svg>
