<?xml version="1.0" encoding="UTF-8" standalone="no"?>
<svg xmlns:xlink="http://www.w3.org/1999/xlink" height="21.5px" width="12.35px" xmlns="http://www.w3.org/2000/svg">
  <g transform="matrix(1.0, 0.0, 0.0, 1.0, 6.6, 9.65)">
    <path d="M3.9 -7.0 Q5.5 -5.75 5.6 -3.9 6.05 -2.95 4.9 -3.55 4.35 -3.8 3.9 -4.15 L2.15 -5.3 Q1.25 -5.8 0.6 -6.65 -0.6 -5.85 -2.0 -6.35 -3.0 -6.7 -3.65 -7.6 L-3.75 -7.75 -4.15 -7.25 Q-4.9 -6.55 -5.9 -6.85 L-6.4 -7.0 -6.6 -7.4 -6.55 -7.7 -5.9 -8.55 -5.6 -8.8 -5.05 -9.2 -5.0 -9.25 -3.95 -9.2 -3.5 -9.65 Q-1.45 -9.4 0.5 -8.75 2.35 -8.15 3.9 -7.0 M0.65 -2.1 L1.3 -1.75 Q2.25 -1.1 2.8 -0.1 3.35 0.85 3.55 1.75 L3.6 2.1 Q3.15 1.95 2.85 1.65 2.2 1.05 1.8 0.25 L1.55 -0.2 1.55 -0.15 1.5 0.25 1.1 1.0 Q0.6 2.1 -0.85 1.5 -1.5 1.15 -1.75 0.5 L-1.65 -0.25 -1.55 -0.95 -1.05 -1.6 -1.25 -1.5 Q-2.15 -1.25 -2.1 -0.4 L-1.9 1.1 -1.15 2.75 Q-0.6 3.45 -1.5 2.85 -2.45 2.9 -2.85 2.05 L-3.15 0.5 -3.25 -1.0 Q-3.35 -1.7 -2.75 -2.15 L-2.35 -2.45 -1.55 -2.8 -1.4 -2.85 -1.0 -3.0 0.0 -2.55 0.65 -2.1 M1.25 9.1 L1.3 9.45 1.0 10.25 0.75 10.6 0.1 11.6 0.0 11.75 Q-1.7 12.1 -3.25 11.3 -4.8 10.4 -5.3 8.7 -5.75 7.3 -4.5 7.2 L-4.5 7.1 -3.65 7.75 -3.25 8.1 Q-2.75 8.5 -2.55 9.0 L-2.0 9.6 -1.0 9.7 -0.55 9.6 0.65 9.2 1.25 9.1" fill="#ffffff" fill-rule="evenodd" stroke="none"/>
    <path d="M2.65 -0.2 Q3.0 1.7 1.6 2.7 L-1.35 2.75 -1.55 2.55 -1.85 1.8 -1.8 0.9 -1.75 -0.25 -1.75 -0.45 -1.55 -0.6 -1.15 -1.0 -0.8 -1.4 Q-0.5 -1.8 0.0 -1.85 2.3 -2.25 2.65 -0.2" fill="#ffffff" fill-rule="evenodd" stroke="none"/>
  </g>
</svg>
