<?xml version="1.0" encoding="UTF-8" standalone="no"?>
<svg xmlns:xlink="http://www.w3.org/1999/xlink" height="19.65px" width="13.05px" xmlns="http://www.w3.org/2000/svg">
  <g transform="matrix(1.0, 0.0, 0.0, 1.0, 6.8, 13.15)">
    <path d="M-2.2 -7.9 L-1.85 -8.35 -1.8 -8.3 -1.95 -8.15 -2.2 -7.9" fill="#666666" fill-rule="evenodd" stroke="none"/>
    <path d="M4.05 -0.2 L4.05 0.0 4.0 0.0 4.05 -0.2 M-5.35 -6.5 L-5.3 -6.65 -5.2 -6.7 -5.35 -6.5 M-1.95 -8.15 L-2.2 -7.9 -1.95 -8.15 -1.8 -8.3 -1.95 -8.15" fill="#333333" fill-rule="evenodd" stroke="none"/>
    <path d="M6.2 -11.9 L6.25 -11.9 5.35 -6.45 4.95 -4.9 4.9 -4.6 6.2 -11.9" fill="#ffbbff" fill-rule="evenodd" stroke="none"/>
    <path d="M4.05 0.0 L3.95 1.25 Q2.35 4.55 -0.4 6.5 -2.95 2.4 -6.7 1.0 L-6.8 -0.55 Q-6.85 -3.55 -5.35 -6.5 -2.95 -1.0 4.0 0.0 L4.05 0.0" fill="url(#gradient0)" fill-rule="evenodd" stroke="none"/>
    <path d="M4.9 -4.6 L4.75 -4.25 Q1.2 -4.55 -1.95 -8.15 L-1.8 -8.3 -1.85 -8.35 -1.55 -9.7 -0.75 -13.15 6.2 -11.9 4.9 -4.6" fill="url(#gradient1)" fill-rule="evenodd" stroke="none"/>
    <path d="M6.2 -11.9 L6.25 -11.9 M4.9 -4.6 L4.75 -4.25 Q4.05 -1.45 4.05 -0.2 L4.05 0.0 3.95 1.25 Q2.35 4.55 -0.4 6.5 -2.95 2.4 -6.7 1.0 L-6.8 -0.55 Q-6.85 -3.55 -5.35 -6.5 L-5.3 -6.65 -5.2 -6.7 -2.2 -7.9 -1.85 -8.35 -1.55 -9.7 -0.75 -13.15 6.2 -11.9 4.9 -4.6 M4.0 0.0 L4.05 0.0 M-1.85 -8.35 L-1.8 -8.3" fill="none" stroke="#000000" stroke-linecap="round" stroke-linejoin="round" stroke-width="0.05"/>
  </g>
  <defs>
    <radialGradient cx="0" cy="0" gradientTransform="matrix(0.0132, 0.0, 0.0, 0.0132, -5.75, -2.9)" gradientUnits="userSpaceOnUse" id="gradient0" r="819.2" spreadMethod="pad">
      <stop offset="0.0" stop-color="#efece4"/>
      <stop offset="0.41568627450980394" stop-color="#8d662e"/>
      <stop offset="0.4666666666666667" stop-color="#422c0b"/>
      <stop offset="0.7294117647058823" stop-color="#bf8837"/>
      <stop offset="1.0" stop-color="#cba670"/>
    </radialGradient>
    <radialGradient cx="0" cy="0" gradientTransform="matrix(0.0103, 0.0, 0.0, 0.0103, 0.25, -11.4)" gradientUnits="userSpaceOnUse" id="gradient1" r="819.2" spreadMethod="pad">
      <stop offset="0.0" stop-color="#efece4"/>
      <stop offset="0.41568627450980394" stop-color="#8d662e"/>
      <stop offset="0.4666666666666667" stop-color="#422c0b"/>
      <stop offset="0.7294117647058823" stop-color="#bf8837"/>
      <stop offset="1.0" stop-color="#cba670"/>
    </radialGradient>
  </defs>
</svg>
