<?xml version="1.0" encoding="UTF-8" standalone="no"?>
<svg xmlns:xlink="http://www.w3.org/1999/xlink" height="14.75px" width="9.75px" xmlns="http://www.w3.org/2000/svg">
  <g transform="matrix(1.0, 0.0, 0.0, 1.0, 3.95, 8.2)">
    <path d="M4.35 -1.35 L3.3 -0.3 Q2.15 -0.7 2.15 -1.25 L2.25 -1.5 3.35 -1.65 4.2 -1.55 4.35 -1.35 M4.8 1.5 L4.5 1.6 3.9 1.65 3.75 1.25 Q3.75 0.8 4.6 0.5 5.0 0.5 5.3 1.05 L4.8 1.5 M2.85 2.85 L3.35 2.45 3.8 2.55 3.8 2.85 3.3 2.9 2.85 2.85" fill="#000000" fill-rule="evenodd" stroke="none"/>
    <path d="M4.35 -1.35 L4.2 -1.55 3.35 -1.65 2.25 -1.5 2.15 -1.25 Q2.15 -0.7 3.3 -0.3 L4.35 -1.35 M5.1 -1.85 L5.0 -1.3 5.3 1.05 5.35 1.4 4.8 1.5 5.3 1.05 Q5.0 0.5 4.6 0.5 3.75 0.8 3.75 1.25 L3.9 1.65 4.5 1.6 3.7 4.65 -0.6 3.7 -1.05 0.7 -1.3 0.5 -1.45 0.35 Q-2.55 -0.85 -2.55 -2.55 -2.55 -4.25 -1.45 -5.5 -0.3 -6.7 1.3 -6.7 2.9 -6.7 4.0 -5.5 5.15 -4.25 5.15 -2.55 L5.1 -1.85 M2.85 2.85 L3.3 2.9 3.8 2.85 3.8 2.55 3.35 2.45 2.85 2.85" fill="url(#gradient0)" fill-rule="evenodd" stroke="none"/>
    <path d="M5.0 -1.3 L5.05 -1.6 5.1 -1.85 5.0 -1.3 5.3 1.05 5.35 1.4 4.8 1.5 M4.5 1.6 L3.7 4.65 -0.6 3.7 -1.05 0.7 -1.3 0.5 -1.45 0.35 Q-2.55 -0.85 -2.55 -2.55 -2.55 -4.25 -1.45 -5.5 -0.3 -6.7 1.3 -6.7 2.9 -6.7 4.0 -5.5 5.15 -4.25 5.15 -2.55 L5.1 -1.85" fill="none" stroke="#000000" stroke-linecap="round" stroke-linejoin="round" stroke-width="0.05"/>
    <path d="M5.8 1.25 Q4.2 3.7 4.35 6.55 L-1.05 4.45 -1.05 2.2 -3.95 1.1 -2.8 -5.0 Q4.6 -13.7 5.8 1.25" fill="url(#gradient1)" fill-rule="evenodd" stroke="none"/>
    <path d="M5.8 1.25 Q4.6 -13.7 -2.8 -5.0 L-3.95 1.1 -1.05 2.2 -1.05 4.45 4.35 6.55 Q4.2 3.7 5.8 1.25 Z" fill="none" stroke="#000000" stroke-linecap="round" stroke-linejoin="round" stroke-width="0.05"/>
    <path d="M3.95 -0.2 L0.05 -3.5 5.3 -1.65 5.25 -1.4 4.8 -0.65 5.1 -0.6 3.95 4.6 3.95 -0.2" fill="#000000" fill-rule="evenodd" stroke="none"/>
  </g>
  <defs>
    <radialGradient cx="0" cy="0" gradientTransform="matrix(0.0101, 0.0, 0.0, 0.0101, 4.7, -2.65)" gradientUnits="userSpaceOnUse" id="gradient0" r="819.2" spreadMethod="pad">
      <stop offset="0.0" stop-color="#9a5c5c"/>
      <stop offset="0.6196078431372549" stop-color="#613838"/>
      <stop offset="1.0" stop-color="#402626"/>
    </radialGradient>
    <radialGradient cx="0" cy="0" gradientTransform="matrix(0.0149, 0.0, 0.0, 0.0149, 2.5, -5.5)" gradientUnits="userSpaceOnUse" id="gradient1" r="819.2" spreadMethod="pad">
      <stop offset="0.0" stop-color="#b3adb8"/>
      <stop offset="0.4235294117647059" stop-color="#222024"/>
      <stop offset="0.44313725490196076" stop-color="#222024"/>
      <stop offset="0.6470588235294118" stop-color="#4e434d"/>
      <stop offset="1.0" stop-color="#3c2b3a"/>
    </radialGradient>
  </defs>
</svg>
