<?xml version="1.0" encoding="UTF-8" standalone="no"?>
<svg xmlns:xlink="http://www.w3.org/1999/xlink" height="21.95px" width="11.75px" xmlns="http://www.w3.org/2000/svg">
  <g transform="matrix(1.0, 0.0, 0.0, 1.0, 5.9, 10.95)">
    <path d="M0.45 -8.8 L1.1 -7.7 Q1.35 -7.3 1.2 -6.9 L0.9 -6.65 0.7 -6.55 -3.55 -6.25 -3.75 -6.7 -3.75 -6.85 -4.0 -7.75 -4.2 -8.8 -4.3 -9.55 -4.3 -9.65 -5.5 -9.8 -5.75 -9.85 -5.9 -10.0 -5.85 -10.3 -5.75 -10.45 -5.5 -10.5 Q-5.1 -10.6 -4.85 -10.85 L-4.7 -10.95 -4.1 -10.75 -0.1 -10.65 0.25 -10.5 0.25 -10.05 0.2 -9.9 Q0.15 -9.4 0.45 -8.8 M1.7 -3.55 Q2.3 -3.35 2.25 -2.85 L1.9 -2.65 Q0.05 -3.15 0.45 -2.15 L0.5 -2.0 0.5 -1.7 0.55 -1.55 Q0.9 -1.35 1.3 -1.3 L1.65 -1.1 1.6 -0.8 1.55 -0.7 0.8 -0.4 0.75 -0.3 0.85 0.15 0.85 0.6 1.0 1.05 1.15 1.5 0.95 1.95 Q0.35 2.15 0.2 1.5 L-0.3 0.85 -1.6 -0.1 -1.7 -0.25 -1.7 -0.4 -1.45 -0.65 -1.1 -0.9 Q-0.7 -1.05 -0.35 -1.35 L-0.3 -1.55 -0.45 -2.1 Q-1.15 -3.0 -2.35 -2.25 -2.65 -2.05 -2.9 -2.4 -2.9 -2.85 -2.45 -2.95 -1.05 -3.3 -0.9 -3.8 L-0.3 -4.35 0.7 -4.0 Q1.15 -3.7 1.7 -3.55 M2.45 -0.35 L2.7 -0.5 2.7 -0.55 Q3.2 -0.7 3.35 -0.25 3.55 0.15 3.1 0.35 2.65 0.6 2.3 0.2 L2.3 0.05 2.3 -0.1 2.45 -0.35 M1.3 4.6 Q0.95 4.85 1.75 4.95 L2.85 5.3 3.35 5.8 3.55 6.1 3.75 6.0 4.05 5.75 Q4.2 5.5 4.5 5.55 L4.85 5.7 4.5 6.5 3.85 7.2 3.4 7.9 2.75 8.55 Q1.2 9.1 -0.25 8.55 L-1.5 7.65 Q-0.45 6.85 1.2 6.85 L2.75 6.6 Q2.6 6.15 2.05 6.0 L0.65 5.5 0.1 4.9 0.1 4.75 0.2 4.5 0.75 3.85 0.9 3.7 1.5 3.5 1.5 3.45 2.1 3.65 Q2.45 3.85 2.1 4.1 L1.7 4.4 1.3 4.6 M4.3 4.4 Q3.85 3.85 4.5 3.65 5.25 3.65 5.0 4.35 L4.3 4.4 M2.55 7.6 L2.5 7.6 2.3 7.65 1.4 7.75 2.45 7.7 2.55 7.65 2.55 7.6 M4.5 9.05 L5.5 9.15 5.85 9.3 5.85 9.4 Q4.85 10.25 3.2 10.25 L2.8 10.3 2.65 10.45 2.5 10.75 2.1 11.0 1.85 10.95 1.7 10.8 1.7 10.65 1.7 10.5 1.7 10.35 1.7 10.2 1.75 10.05 1.85 9.95 1.9 9.9 2.7 9.45 3.0 9.35 3.3 9.3 4.25 9.15 4.5 9.1 4.5 9.05 M-0.7 -9.7 L-3.55 -9.85 -3.35 -9.0 -3.15 -8.25 Q-3.05 -7.85 -3.1 -7.45 L-3.1 -7.3 0.1 -7.6 -0.25 -8.3 -0.5 -8.95 -0.7 -9.55 -0.7 -9.7 M-0.45 -0.25 L-0.15 0.05 Q0.1 0.25 -0.05 -0.05 L-0.15 -0.2 -0.45 -0.25" fill="#ffffcc" fill-rule="evenodd" stroke="none"/>
  </g>
</svg>
