<?xml version="1.0" encoding="UTF-8" standalone="no"?>
<svg xmlns:xlink="http://www.w3.org/1999/xlink" height="18.8px" width="16.2px" xmlns="http://www.w3.org/2000/svg">
  <g transform="matrix(1.0, 0.0, 0.0, 1.0, 11.7, 9.35)">
    <path d="M1.45 -9.35 Q1.0 -5.4 4.5 -3.55 L2.55 0.45 2.35 0.6 Q-3.35 4.2 -9.05 3.4 L-10.2 3.2 Q-3.25 -0.75 1.45 -9.35" fill="url(#gradient0)" fill-rule="evenodd" stroke="none"/>
    <path d="M1.0 4.5 L0.7 6.75 Q-5.4 9.8 -11.7 9.4 -10.45 8.0 -10.0 6.5 -4.95 7.15 1.0 4.5" fill="url(#gradient1)" fill-rule="evenodd" stroke="none"/>
    <path d="M1.45 -9.35 Q-3.25 -0.75 -10.2 3.2 L-9.05 3.4 Q-3.35 4.2 2.35 0.6 L2.55 0.45 4.5 -3.55 Q1.0 -5.4 1.45 -9.35 M1.0 4.5 L1.95 4.05 2.35 0.6 M1.0 4.5 Q-4.95 7.15 -10.0 6.5 -10.45 8.0 -11.7 9.4 -5.4 9.8 0.7 6.75 L1.0 4.5 M-9.05 3.4 Q-9.9 5.05 -11.65 6.15 L-10.0 6.5" fill="none" stroke="#000000" stroke-linecap="round" stroke-linejoin="round" stroke-width="0.05"/>
  </g>
  <defs>
    <radialGradient cx="0" cy="0" gradientTransform="matrix(0.0137, 0.0, 0.0, 0.0137, -3.25, 0.85)" gradientUnits="userSpaceOnUse" id="gradient0" r="819.2" spreadMethod="pad">
      <stop offset="0.0" stop-color="#f5cb23"/>
      <stop offset="1.0" stop-color="#c73916"/>
    </radialGradient>
    <radialGradient cx="0" cy="0" gradientTransform="matrix(0.0089, 0.0, 0.0, 0.0089, -4.85, 7.0)" gradientUnits="userSpaceOnUse" id="gradient1" r="819.2" spreadMethod="pad">
      <stop offset="0.0" stop-color="#f5cb23"/>
      <stop offset="1.0" stop-color="#c73916"/>
    </radialGradient>
  </defs>
</svg>
