<?xml version="1.0" encoding="UTF-8" standalone="no"?>
<svg xmlns:xlink="http://www.w3.org/1999/xlink" height="15.05px" width="7.45px" xmlns="http://www.w3.org/2000/svg">
  <g transform="matrix(1.0, 0.0, 0.0, 1.0, -4.6, 16.6)">
    <path d="M11.0 -5.95 Q9.05 -5.9 7.1 -6.85 L6.3 -7.25 4.6 -11.85 Q6.4 -13.3 6.05 -16.6 7.75 -11.35 12.05 -6.1 L11.0 -5.95" fill="url(#gradient0)" fill-rule="evenodd" stroke="none"/>
    <path d="M11.05 -3.7 Q10.8 -2.65 11.55 -1.65 9.9 -1.25 8.1 -2.2 L7.6 -4.45 Q9.25 -3.65 11.05 -3.7" fill="url(#gradient1)" fill-rule="evenodd" stroke="none"/>
    <path d="M11.0 -5.95 Q9.05 -5.9 7.1 -6.85 L6.3 -7.25 4.6 -11.85 Q6.4 -13.3 6.05 -16.6 7.75 -11.35 12.05 -6.1 L11.0 -5.95 Q10.95 -4.85 11.85 -3.75 L11.05 -3.7 Q10.8 -2.65 11.55 -1.65 9.9 -1.25 8.1 -2.2 M7.6 -4.45 Q9.25 -3.65 11.05 -3.7" fill="none" stroke="#000000" stroke-linecap="round" stroke-linejoin="round" stroke-width="0.05"/>
  </g>
  <defs>
    <radialGradient cx="0" cy="0" gradientTransform="matrix(0.0118, 0.0, 0.0, 0.0118, 6.0, -13.25)" gradientUnits="userSpaceOnUse" id="gradient0" r="819.2" spreadMethod="pad">
      <stop offset="0.0" stop-color="#f5cb23"/>
      <stop offset="1.0" stop-color="#c73916"/>
    </radialGradient>
    <radialGradient cx="0" cy="0" gradientTransform="matrix(0.0041, 0.0, 0.0, 0.0041, 9.15, -3.15)" gradientUnits="userSpaceOnUse" id="gradient1" r="819.2" spreadMethod="pad">
      <stop offset="0.0" stop-color="#f5cb23"/>
      <stop offset="1.0" stop-color="#c73916"/>
    </radialGradient>
  </defs>
</svg>
