<?xml version="1.0" encoding="UTF-8" standalone="no"?>
<svg xmlns:xlink="http://www.w3.org/1999/xlink" height="66.3px" width="10.8px" xmlns="http://www.w3.org/2000/svg">
  <g transform="matrix(1.0, 0.0, 0.0, 1.0, 5.75, 39.6)">
    <path d="M1.65 26.7 L-2.05 26.7 -2.05 10.85 1.65 10.85 1.65 26.7" fill="url(#gradient0)" fill-rule="evenodd" stroke="none"/>
    <path d="M1.65 26.7 L-2.05 26.7 -2.05 10.85 1.65 10.85 1.65 26.7 Z" fill="none" stroke="#000000" stroke-linecap="round" stroke-linejoin="round" stroke-width="0.05"/>
    <path d="M0.25 -35.6 L2.5 -34.1 Q5.45 -10.95 5.0 15.4 L2.15 13.9 Q4.7 -10.0 0.25 -35.6" fill="url(#gradient1)" fill-rule="evenodd" stroke="none"/>
    <path d="M0.25 -35.6 Q4.7 -10.0 2.15 13.9 L1.6 13.6 -4.95 10.15 Q0.15 -6.35 -0.25 -31.1 L-5.75 -39.6 0.25 -35.6" fill="url(#gradient2)" fill-rule="evenodd" stroke="none"/>
    <path d="M5.0 15.4 Q5.45 -10.95 2.5 -34.1 L0.25 -35.6 -5.75 -39.6 -0.25 -31.1 Q0.15 -6.35 -4.95 10.15 L1.6 13.6" fill="none" stroke="#000000" stroke-linecap="round" stroke-linejoin="round" stroke-width="0.05"/>
    <path d="M-2.0 -2.5 L-0.85 -3.6 1.55 2.9 -4.35 8.25 Q-2.95 3.25 -2.0 -2.5 M-1.5 -5.3 L-1.3 -4.75 -1.75 -4.3 -1.65 -4.85 -1.5 -5.3 M5.0 15.2 L5.0 15.4 4.8 15.3 5.0 15.2 M2.25 4.7 L3.1 6.9 -0.95 10.5 -2.15 11.65 -4.55 10.35 2.25 4.7 M4.05 9.45 L4.2 9.85 1.0 12.8 0.65 13.1 -0.05 12.75 0.0 12.7 4.05 9.45 M5.05 12.05 L5.05 12.15 4.35 12.75 2.75 14.2 2.3 14.0 4.1 12.4 4.95 11.75 5.05 12.05 M4.4 9.2 Q4.7 8.9 5.05 8.7 L5.05 9.05 4.55 9.55 4.4 9.2 M2.3 3.55 L2.15 3.1 4.8 0.85 4.9 1.45 2.3 3.55 M5.0 2.55 L5.05 5.15 3.4 6.6 2.6 4.45 5.0 2.55 M1.75 3.45 L1.9 3.85 -1.3 6.4 -4.65 9.25 -2.5 7.25 1.75 3.45 M3.25 -7.35 L4.25 -1.7 2.25 0.05 4.3 -1.45 4.65 0.2 1.95 2.6 -0.45 -4.0 0.65 -5.0 3.25 -7.35 M4.75 -1.75 L4.9 -1.9 4.95 -0.7 4.75 -1.75 M3.45 -9.25 L3.25 -10.45 4.55 -11.55 4.6 -10.35 3.45 -9.25 M1.3 -8.75 L2.8 -10.05 3.0 -8.8 2.15 -8.05 -0.85 -5.15 -1.2 -6.05 -1.0 -6.55 1.3 -8.75 M3.7 -7.75 L4.7 -8.65 4.9 -2.25 4.7 -2.05 3.7 -7.75 M1.8 -14.85 L1.25 -13.55 -0.85 -11.9 -0.75 -13.05 1.8 -14.85 M1.65 -18.05 L1.9 -16.25 0.05 -14.75 -0.7 -14.1 -0.45 -18.25 1.45 -19.75 1.65 -18.05 M3.0 -15.65 L4.25 -16.5 4.25 -16.0 3.4 -15.35 2.65 -14.7 2.6 -14.9 3.0 -15.65 M4.1 -18.05 L4.1 -18.0 4.1 -18.05 M3.4 -21.4 L3.8 -21.75 4.0 -19.7 2.95 -17.5 2.7 -16.9 2.4 -16.65 1.9 -20.1 3.4 -21.4 M1.15 -21.65 L1.35 -20.25 -0.4 -18.85 -0.4 -19.25 Q0.65 -19.9 -0.25 -20.2 L-0.2 -20.25 1.15 -21.65 M3.6 -24.2 L3.75 -22.25 2.45 -21.2 1.8 -20.65 1.6 -22.1 2.75 -23.35 3.6 -24.2" fill="url(#gradient3)" fill-rule="evenodd" stroke="none"/>
  </g>
  <defs>
    <linearGradient gradientTransform="matrix(0.0, 0.0097, -0.0023, 0.0, -0.2, 18.75)" gradientUnits="userSpaceOnUse" id="gradient0" spreadMethod="pad" x1="-819.2" x2="819.2">
      <stop offset="0.0" stop-color="#0f1013"/>
      <stop offset="1.0" stop-color="#424a4f"/>
    </linearGradient>
    <linearGradient gradientTransform="matrix(-0.0045, -0.0309, 0.0044, -6.0E-4, 2.3, -10.05)" gradientUnits="userSpaceOnUse" id="gradient1" spreadMethod="pad" x1="-819.2" x2="819.2">
      <stop offset="0.0" stop-color="#444444"/>
      <stop offset="0.4235294117647059" stop-color="#ffffff"/>
      <stop offset="0.49411764705882355" stop-color="#888888"/>
      <stop offset="1.0" stop-color="#ffffff"/>
    </linearGradient>
    <linearGradient gradientTransform="matrix(-0.0064, -3.0E-4, 0.0014, -0.0324, -1.65, -12.85)" gradientUnits="userSpaceOnUse" id="gradient2" spreadMethod="pad" x1="-819.2" x2="819.2">
      <stop offset="0.0" stop-color="#bfbfbf"/>
      <stop offset="0.49411764705882355" stop-color="#888888"/>
      <stop offset="1.0" stop-color="#ffffff"/>
    </linearGradient>
    <linearGradient gradientTransform="matrix(0.0018, 0.0241, -0.0066, 5.0E-4, -0.2, -4.1)" gradientUnits="userSpaceOnUse" id="gradient3" spreadMethod="pad" x1="-819.2" x2="819.2">
      <stop offset="0.0" stop-color="#c80d0d" stop-opacity="0.0"/>
      <stop offset="1.0" stop-color="#512f2f"/>
    </linearGradient>
  </defs>
</svg>
