<?xml version="1.0" encoding="UTF-8" standalone="no"?>
<svg xmlns:xlink="http://www.w3.org/1999/xlink" height="14.6px" width="14.9px" xmlns="http://www.w3.org/2000/svg">
  <g transform="matrix(1.0, 0.0, 0.0, 1.0, 6.95, 9.0)">
    <path d="M5.4 -1.4 L5.3 -0.85 5.25 1.45 4.8 1.95 4.8 2.05 3.85 5.4 -0.05 2.5 -0.75 1.15 -1.0 0.95 -1.15 0.8 Q-2.25 -0.4 -2.25 -2.1 -2.25 -3.8 -1.15 -5.05 0.0 -6.25 1.6 -6.25 3.2 -6.25 4.3 -5.05 5.45 -3.8 5.45 -2.1 L5.4 -1.4" fill="url(#gradient0)" fill-rule="evenodd" stroke="none"/>
    <path d="M5.4 -1.4 L5.3 -0.85 5.25 1.45 4.8 1.95 4.8 2.05 3.85 5.4 -0.05 2.5 -0.75 1.15 -1.0 0.95 -1.15 0.8 Q-2.25 -0.4 -2.25 -2.1 -2.25 -3.8 -1.15 -5.05 0.0 -6.25 1.6 -6.25 3.2 -6.25 4.3 -5.05 5.45 -3.8 5.45 -2.1 L5.4 -1.4 Z" fill="none" stroke="#000000" stroke-linecap="round" stroke-linejoin="round" stroke-width="0.05"/>
    <path d="M3.55 -0.3 L2.75 -0.45 Q3.0 -1.2 3.95 -1.2 4.5 -1.2 4.5 -0.75 4.5 -0.3 3.55 -0.3" fill="#000000" fill-rule="evenodd" stroke="none"/>
    <path d="M4.5 1.95 Q4.5 2.85 3.8 2.85 3.25 2.85 3.15 2.55 3.05 2.8 3.05 2.4 L4.25 1.8 Q4.5 1.8 4.5 1.95" fill="#e75c5c" fill-rule="evenodd" stroke="none"/>
    <path d="M5.45 -6.2 L5.55 -6.15 5.55 -6.05 5.55 -5.95 5.75 -5.8 6.45 -5.1 7.15 -4.4 7.2 -4.3 Q6.85 -3.95 6.2 -3.9 L5.9 -3.9 Q5.95 -3.6 6.15 -3.35 L6.25 -3.2 7.05 -2.65 7.0 -2.6 6.15 -2.7 6.4 -2.35 6.95 -1.9 7.95 -1.0 7.95 -0.95 5.8 -1.25 2.75 -2.55 2.95 -2.0 3.3 -1.55 3.85 -0.75 4.05 -0.3 Q3.05 -0.35 1.95 -0.95 L1.55 -1.15 1.45 -0.8 1.35 -0.75 0.9 -0.7 0.6 -0.75 0.75 -0.45 0.9 -0.15 0.9 -0.1 1.0 -0.2 Q1.15 0.35 0.8 1.1 L0.5 2.05 0.3 3.35 0.35 4.3 0.5 5.35 0.55 5.5 Q-0.2 5.85 -0.85 5.15 L-1.2 4.6 -1.4 3.75 -1.45 3.5 -1.5 3.5 -1.6 3.6 -1.65 3.7 -1.7 3.8 -1.75 3.85 -1.75 3.95 -2.25 4.1 -2.95 3.8 -3.5 2.45 -4.0 1.4 Q-4.4 0.5 -5.35 0.1 -6.25 -0.25 -6.95 -0.55 -6.55 -1.1 -5.7 -1.2 L-4.75 -1.35 Q-4.2 -1.45 -3.9 -1.9 L-5.5 -2.3 -6.15 -2.5 -5.4 -3.15 -4.8 -3.55 -4.3 -3.85 -4.1 -4.1 -4.15 -4.1 -4.2 -4.15 -4.0 -4.25 -3.95 -4.25 -3.45 -4.7 -2.7 -5.4 -2.9 -5.45 -3.15 -5.55 -3.1 -5.65 -3.1 -5.8 -3.15 -5.8 -3.5 -5.9 -3.6 -5.95 -3.4 -6.3 -2.15 -7.0 -1.85 -7.15 -1.9 -7.2 -1.9 -7.25 -1.8 -7.45 -1.2 -7.9 -0.2 -8.45 0.15 -8.5 0.1 -8.55 0.15 -8.65 0.15 -8.7 0.2 -8.8 0.35 -8.85 0.45 -8.9 0.6 -8.95 1.3 -8.95 2.2 -8.65 2.7 -8.4 2.7 -8.45 2.85 -8.45 3.1 -8.4 3.8 -8.2 4.75 -7.6 4.9 -7.5 5.0 -7.25 5.15 -6.75 5.35 -6.35 5.45 -6.2" fill="url(#gradient1)" fill-rule="evenodd" stroke="none"/>
  </g>
  <defs>
    <radialGradient cx="0" cy="0" gradientTransform="matrix(0.0081, 0.0, 0.0, 0.0081, 1.75, 0.35)" gradientUnits="userSpaceOnUse" id="gradient0" r="819.2" spreadMethod="pad">
      <stop offset="0.20392156862745098" stop-color="#7c95a5"/>
      <stop offset="0.5529411764705883" stop-color="#626c84"/>
      <stop offset="1.0" stop-color="#73718e"/>
    </radialGradient>
    <radialGradient cx="0" cy="0" gradientTransform="matrix(0.0095, 0.0, 0.0, 0.0095, -0.25, -4.1)" gradientUnits="userSpaceOnUse" id="gradient1" r="819.2" spreadMethod="pad">
      <stop offset="0.0" stop-color="#604e42"/>
      <stop offset="1.0" stop-color="#1c1a17"/>
    </radialGradient>
  </defs>
</svg>
