<?xml version="1.0" encoding="UTF-8" standalone="no"?>
<svg xmlns:xlink="http://www.w3.org/1999/xlink" height="30.7px" width="13.9px" xmlns="http://www.w3.org/2000/svg">
  <g transform="matrix(1.0, 0.0, 0.0, 1.0, 6.1, 14.25)">
    <path d="M-4.6 8.8 L-3.75 10.35 2.7 10.45 5.7 10.05 5.8 10.05 5.95 13.05 2.15 16.45 -5.0 12.6 -4.7 8.75 -4.6 8.8" fill="url(#gradient0)" fill-rule="evenodd" stroke="none"/>
    <path d="M5.3 7.35 L3.5 -1.15 1.15 -3.0 Q-0.05 -2.35 -2.95 -2.35 -1.95 -4.3 -2.8 -6.65 L-2.95 -7.05 Q-2.6 -8.4 -5.45 -10.35 -4.95 -11.85 -6.1 -13.35 L-2.0 -14.25 Q-2.4 -12.25 0.2 -9.9 2.05 -8.55 3.1 -9.65 3.2 -6.95 4.9 -5.85 4.0 -7.05 4.9 -8.25 6.3 -6.6 7.15 -7.3 L7.8 -5.1 7.3 -2.35 5.85 0.95 Q4.95 3.65 5.4 7.35 L5.3 7.35" fill="url(#gradient1)" fill-rule="evenodd" stroke="none"/>
    <path d="M5.3 7.35 L3.5 -1.15 1.15 -3.0 Q-0.05 -2.35 -2.95 -2.35 -1.95 -4.3 -2.8 -6.65 L-2.95 -7.05 Q-2.6 -8.4 -5.45 -10.35 -4.95 -11.85 -6.1 -13.35 L-2.0 -14.25 Q-2.4 -12.25 0.2 -9.9 2.05 -8.55 3.1 -9.65 3.2 -6.95 4.9 -5.85 4.0 -7.05 4.9 -8.25 6.3 -6.6 7.15 -7.3 L7.8 -5.1 7.3 -2.35 5.85 0.95 Q4.95 3.65 5.4 7.35 M-4.6 8.8 L-3.75 10.35 2.7 10.45 5.7 10.05 5.8 10.05 5.95 13.05 M-5.0 12.6 L-4.7 8.75" fill="none" stroke="#000000" stroke-linecap="round" stroke-linejoin="round" stroke-width="0.05"/>
  </g>
  <defs>
    <radialGradient cx="0" cy="0" gradientTransform="matrix(0.0076, 0.0, 0.0, 0.0076, 0.4, 10.45)" gradientUnits="userSpaceOnUse" id="gradient0" r="819.2" spreadMethod="pad">
      <stop offset="0.0" stop-color="#ff6600"/>
      <stop offset="0.6196078431372549" stop-color="#c44e00"/>
      <stop offset="1.0" stop-color="#522203"/>
    </radialGradient>
    <radialGradient cx="0" cy="0" gradientTransform="matrix(0.0246, 0.0, 0.0, 0.0246, -2.1, -10.7)" gradientUnits="userSpaceOnUse" id="gradient1" r="819.2" spreadMethod="pad">
      <stop offset="0.0" stop-color="#ff6600"/>
      <stop offset="0.6196078431372549" stop-color="#c44e00"/>
      <stop offset="1.0" stop-color="#522203"/>
    </radialGradient>
  </defs>
</svg>
