<?xml version="1.0" encoding="UTF-8" standalone="no"?>
<svg xmlns:xlink="http://www.w3.org/1999/xlink" height="33.5px" width="13.2px" xmlns="http://www.w3.org/2000/svg">
  <g transform="matrix(1.0, 0.0, 0.0, 1.0, 6.05, 17.95)">
    <path d="M-3.45 -16.9 L-3.55 -16.75 -3.55 -16.9 -3.45 -16.9 M4.35 1.1 L4.3 1.3 4.25 1.25 4.35 1.1" fill="#ffffff" fill-rule="evenodd" stroke="none"/>
    <path d="M3.5 3.35 L3.4 5.25 -0.7 1.6 -4.25 -1.6 Q-4.35 -3.05 -5.05 -4.1 L-6.05 -5.25 Q-4.95 -6.35 -4.65 -8.8 -3.45 -7.3 -2.9 -5.45 L-2.7 -4.35 -2.65 -4.3 -0.55 -2.6 -0.4 -0.05 3.5 3.35" fill="url(#gradient0)" fill-rule="evenodd" stroke="none"/>
    <path d="M3.65 0.8 L3.5 3.35 -0.4 -0.05 -0.55 -2.6 3.65 0.8" fill="#0d0e15" fill-rule="evenodd" stroke="none"/>
    <path d="M3.45 -5.3 Q4.45 -3.1 4.35 1.1 L4.25 1.25 3.65 0.8 -0.55 -2.6 -2.65 -4.3 -2.7 -4.35 -2.9 -5.45 Q-3.45 -7.3 -4.65 -8.8 L-4.9 -9.1 -5.85 -10.0 Q-4.1 -13.1 -3.55 -16.75 -0.75 -13.45 -0.25 -8.95 L3.4 -5.35 3.45 -5.3" fill="url(#gradient1)" fill-rule="evenodd" stroke="none"/>
    <path d="M5.55 -10.15 L3.45 -5.3 3.4 -5.35 -0.25 -8.95 Q-0.75 -13.45 -3.55 -16.75 L-3.45 -16.9 Q0.4 -16.3 3.35 -17.95 4.2 -14.1 5.55 -10.15" fill="url(#gradient2)" fill-rule="evenodd" stroke="none"/>
    <path d="M1.1 14.7 L-0.15 15.55 -3.85 12.85 -3.9 4.35 -0.65 7.05 -0.45 11.9 1.1 14.7" fill="url(#gradient3)" fill-rule="evenodd" stroke="none"/>
    <path d="M3.45 -5.3 L5.55 -10.15 7.15 -5.85 Q5.3 -2.7 4.35 1.1 4.45 -3.1 3.45 -5.3 M2.5 9.7 L2.25 13.3 1.1 14.7 -0.45 11.9 -0.65 7.05 2.5 9.7" fill="#5e5e5e" fill-rule="evenodd" stroke="none"/>
    <path d="M2.8 8.7 L2.65 9.75 2.5 9.7 -0.65 7.05 -3.9 4.35 -4.2 4.1 Q-4.25 2.15 -5.85 0.65 -4.85 -0.75 -5.05 -4.1 -4.35 -3.05 -4.25 -1.6 L-0.7 1.6 -0.5 5.35 2.8 8.7" fill="url(#gradient4)" fill-rule="evenodd" stroke="none"/>
    <path d="M3.4 5.25 L3.45 5.3 2.8 8.7 -0.5 5.35 -0.7 1.6 3.4 5.25" fill="#602828" fill-rule="evenodd" stroke="none"/>
    <path d="M4.35 1.1 Q5.3 -2.7 7.15 -5.85 L5.55 -10.15 Q4.2 -14.1 3.35 -17.95 0.4 -16.3 -3.45 -16.9 L-3.55 -16.9 -3.55 -16.75 Q-4.1 -13.1 -5.85 -10.0 L-4.9 -9.1 -4.65 -8.8 Q-3.45 -7.3 -2.9 -5.45 L-2.7 -4.35 -2.65 -4.3 -0.55 -2.6 3.65 0.8 3.5 3.35 3.4 5.25 3.45 5.3 2.8 8.7 2.65 9.75 2.6 9.8 2.5 9.7 2.25 13.3 1.1 14.7 -0.15 15.55 -3.85 12.85 -3.9 4.35 -4.2 4.1 Q-4.25 2.15 -5.85 0.65 -4.85 -0.75 -5.05 -4.1 L-6.05 -5.25 Q-4.95 -6.35 -4.65 -8.8 M4.25 1.25 L4.3 1.3 4.35 1.1 M4.25 1.25 L3.65 0.8 M2.5 9.7 L-0.65 7.05 -3.9 4.35 M-5.05 -4.1 Q-4.35 -3.05 -4.25 -1.6 L-0.7 1.6 3.4 5.25" fill="none" stroke="#000000" stroke-linecap="round" stroke-linejoin="round" stroke-width="0.05"/>
  </g>
  <defs>
    <radialGradient cx="0" cy="0" gradientTransform="matrix(0.012, 0.0, 0.0, 0.012, 0.7, -0.55)" gradientUnits="userSpaceOnUse" id="gradient0" r="819.2" spreadMethod="pad">
      <stop offset="0.0" stop-color="#203346"/>
      <stop offset="0.5333333333333333" stop-color="#141427"/>
      <stop offset="0.9176470588235294" stop-color="#324178"/>
    </radialGradient>
    <radialGradient cx="0" cy="0" gradientTransform="matrix(0.0181, 0.0, 0.0, 0.0181, 1.6, -2.9)" gradientUnits="userSpaceOnUse" id="gradient1" r="819.2" spreadMethod="pad">
      <stop offset="0.0" stop-color="#ffffff"/>
      <stop offset="0.5333333333333333" stop-color="#f3c7c7"/>
      <stop offset="0.9019607843137255" stop-color="#e6cccc"/>
    </radialGradient>
    <radialGradient cx="0" cy="0" gradientTransform="matrix(0.013, 0.0, 0.0, 0.013, 0.85, -15.65)" gradientUnits="userSpaceOnUse" id="gradient2" r="819.2" spreadMethod="pad">
      <stop offset="0.0" stop-color="#ffffff"/>
      <stop offset="0.4666666666666667" stop-color="#6f6f6f"/>
      <stop offset="0.48627450980392156" stop-color="#c2c4c5"/>
      <stop offset="1.0" stop-color="#2e2e30"/>
    </radialGradient>
    <radialGradient cx="0" cy="0" gradientTransform="matrix(0.0097, 0.0, 0.0, 0.0097, -1.5, 11.95)" gradientUnits="userSpaceOnUse" id="gradient3" r="819.2" spreadMethod="pad">
      <stop offset="0.0" stop-color="#ffffff"/>
      <stop offset="0.4666666666666667" stop-color="#6f6f6f"/>
      <stop offset="0.48627450980392156" stop-color="#c2c4c5"/>
      <stop offset="1.0" stop-color="#2e2e30"/>
    </radialGradient>
    <radialGradient cx="0" cy="0" gradientTransform="matrix(0.0111, 0.0, 0.0, 0.0111, -1.55, 4.3)" gradientUnits="userSpaceOnUse" id="gradient4" r="819.2" spreadMethod="pad">
      <stop offset="0.0" stop-color="#bf4848"/>
      <stop offset="0.5333333333333333" stop-color="#5c2323"/>
      <stop offset="0.9019607843137255" stop-color="#b74848"/>
    </radialGradient>
  </defs>
</svg>
