<?xml version="1.0" encoding="UTF-8" standalone="no"?>
<svg xmlns:xlink="http://www.w3.org/1999/xlink" height="16.6px" width="12.0px" xmlns="http://www.w3.org/2000/svg">
  <g transform="matrix(1.0, 0.0, 0.0, 1.0, 6.65, 8.05)">
    <path d="M3.35 -1.65 L2.25 -1.5 2.15 -1.25 Q2.15 -0.7 3.3 -0.3 L4.35 -1.35 4.2 -1.55 3.35 -1.65 M5.0 -1.3 L5.3 1.05 5.35 1.4 4.8 1.5 5.3 1.05 Q5.0 0.5 4.6 0.5 3.75 0.8 3.75 1.25 L3.9 1.65 4.5 1.6 3.7 4.65 -0.6 3.7 -1.05 0.7 -1.3 0.5 -1.45 0.35 Q-2.55 -0.85 -2.55 -2.55 -2.55 -4.25 -1.45 -5.5 -0.3 -6.7 1.3 -6.7 2.9 -6.7 4.0 -5.5 5.15 -4.25 5.15 -2.55 L5.1 -1.85 5.0 -1.3 M2.85 2.85 L3.3 2.9 3.8 2.85 3.8 2.55 3.35 2.45 2.85 2.85" fill="url(#gradient0)" fill-rule="evenodd" stroke="none"/>
    <path d="M3.35 -1.65 L4.2 -1.55 4.35 -1.35 3.3 -0.3 Q2.15 -0.7 2.15 -1.25 L2.25 -1.5 3.35 -1.65 M4.8 1.5 L4.5 1.6 3.9 1.65 3.75 1.25 Q3.75 0.8 4.6 0.5 5.0 0.5 5.3 1.05 L4.8 1.5 M2.85 2.85 L3.35 2.45 3.8 2.55 3.8 2.85 3.3 2.9 2.85 2.85" fill="#000000" fill-rule="evenodd" stroke="none"/>
    <path d="M5.1 -1.85 L5.05 -1.6 5.0 -1.3 5.3 1.05 5.35 1.4 4.8 1.5 M4.5 1.6 L3.7 4.65 -0.6 3.7 -1.05 0.7 -1.3 0.5 -1.45 0.35 Q-2.55 -0.85 -2.55 -2.55 -2.55 -4.25 -1.45 -5.5 -0.3 -6.7 1.3 -6.7 2.9 -6.7 4.0 -5.5 5.15 -4.25 5.15 -2.55 L5.1 -1.85 5.0 -1.3" fill="none" stroke="#000000" stroke-linecap="round" stroke-linejoin="round" stroke-width="0.05"/>
    <path d="M1.5 -7.15 Q3.35 -6.15 4.65 -4.85 5.05 -2.45 4.75 -0.6 L5.25 2.25 4.25 2.65 3.6 4.85 -0.7 1.1 -1.3 -1.3 -2.75 -3.15 1.5 -7.15" fill="url(#gradient1)" fill-rule="evenodd" stroke="none"/>
    <path d="M3.6 4.85 L3.55 4.95 5.15 6.6 3.6 8.55 Q1.6 5.65 -4.25 2.45 L-4.95 -1.25 -6.65 -4.25 -0.55 -8.05 1.5 -7.15 -2.75 -3.15 -1.3 -1.3 -0.7 1.1 3.6 4.85" fill="url(#gradient2)" fill-rule="evenodd" stroke="none"/>
    <path d="M1.5 -7.15 Q3.35 -6.15 4.65 -4.85 5.05 -2.45 4.75 -0.6 L5.25 2.25 4.25 2.65 3.6 4.85 3.55 4.95 5.15 6.6 3.6 8.55 Q1.6 5.65 -4.25 2.45 L-4.95 -1.25 -6.65 -4.25 -0.55 -8.05 1.5 -7.15 Z" fill="none" stroke="#000000" stroke-linecap="round" stroke-linejoin="round" stroke-width="0.05"/>
  </g>
  <defs>
    <radialGradient cx="0" cy="0" gradientTransform="matrix(0.0101, 0.0, 0.0, 0.0101, 4.7, -2.65)" gradientUnits="userSpaceOnUse" id="gradient0" r="819.2" spreadMethod="pad">
      <stop offset="0.0" stop-color="#7e5c3d"/>
      <stop offset="0.6196078431372549" stop-color="#604731"/>
      <stop offset="1.0" stop-color="#946f49"/>
    </radialGradient>
    <radialGradient cx="0" cy="0" gradientTransform="matrix(0.0129, 0.0, 0.0, 0.0129, 2.3, -5.6)" gradientUnits="userSpaceOnUse" id="gradient1" r="819.2" spreadMethod="pad">
      <stop offset="0.0" stop-color="#c4cbd5"/>
      <stop offset="0.40784313725490196" stop-color="#58647c"/>
      <stop offset="0.4588235294117647" stop-color="#4a5468"/>
      <stop offset="0.48627450980392156" stop-color="#6c7893"/>
      <stop offset="1.0" stop-color="#2d2637"/>
    </radialGradient>
    <radialGradient cx="0" cy="0" gradientTransform="matrix(0.0198, 0.0, 0.0, 0.0198, -0.6, -7.1)" gradientUnits="userSpaceOnUse" id="gradient2" r="819.2" spreadMethod="pad">
      <stop offset="0.0" stop-color="#38352e"/>
      <stop offset="0.5333333333333333" stop-color="#0e0d0c"/>
      <stop offset="0.9176470588235294" stop-color="#5a5750"/>
    </radialGradient>
  </defs>
</svg>
