<?xml version="1.0" encoding="UTF-8" standalone="no"?>
<svg xmlns:xlink="http://www.w3.org/1999/xlink" height="28.65px" width="12.15px" xmlns="http://www.w3.org/2000/svg">
  <g transform="matrix(1.0, 0.0, 0.0, 1.0, 5.3, 15.3)">
    <path d="M0.6 0.0 Q2.4 0.85 4.15 0.3 L2.35 12.25 Q-1.2 14.75 -4.3 11.5 L-4.0 5.9 Q-1.8 8.5 0.4 7.9 0.95 4.95 0.6 0.0" fill="url(#gradient0)" fill-rule="evenodd" stroke="none"/>
    <path d="M0.6 0.0 L0.25 -3.35 Q-2.9 -4.05 -5.3 -6.35 L-4.5 -12.25 Q-1.65 -9.95 2.25 -9.65 5.4 -10.4 5.35 -15.3 8.6 -9.05 4.7 -2.85 L4.15 0.3 Q2.4 0.85 0.6 0.0" fill="url(#gradient1)" fill-rule="evenodd" stroke="none"/>
    <path d="M4.15 0.3 L4.7 -2.85 Q8.6 -9.05 5.35 -15.3 5.4 -10.4 2.25 -9.65 -1.65 -9.95 -4.5 -12.25 L-5.3 -6.35 Q-2.9 -4.05 0.25 -3.35 L0.6 0.0 Q2.4 0.85 4.15 0.3 L2.35 12.25 Q-1.2 14.75 -4.3 11.5 L-4.0 5.9 Q-1.8 8.5 0.4 7.9 0.95 4.95 0.6 0.0" fill="none" stroke="#000000" stroke-linecap="round" stroke-linejoin="round" stroke-width="0.05"/>
  </g>
  <defs>
    <radialGradient cx="0" cy="0" gradientTransform="matrix(0.009, 0.0, 0.0, 0.0184, 2.1, -0.55)" gradientUnits="userSpaceOnUse" id="gradient0" r="819.2" spreadMethod="pad">
      <stop offset="0.0" stop-color="#ffffff"/>
      <stop offset="0.47843137254901963" stop-color="#779bb3"/>
      <stop offset="1.0" stop-color="#47446f"/>
    </radialGradient>
    <radialGradient cx="0" cy="0" gradientTransform="matrix(0.0106, 0.0, 0.0, 0.0106, 2.05, -7.8)" gradientUnits="userSpaceOnUse" id="gradient1" r="819.2" spreadMethod="pad">
      <stop offset="0.0" stop-color="#4a423e"/>
      <stop offset="1.0" stop-color="#0a0707"/>
    </radialGradient>
  </defs>
</svg>
