<?xml version="1.0" encoding="UTF-8" standalone="no"?>
<svg xmlns:xlink="http://www.w3.org/1999/xlink" height="21.7px" width="4.2px" xmlns="http://www.w3.org/2000/svg">
  <g transform="matrix(1.0, 0.0, 0.0, 1.0, 3.95, -5.3)">
    <path d="M-3.75 8.9 Q-1.8 8.15 -0.65 11.35 -1.8 18.5 0.25 27.0 -4.85 17.95 -3.75 8.9" fill="url(#gradient0)" fill-rule="evenodd" stroke="none"/>
    <path d="M-0.25 9.25 L-0.55 10.8 -0.65 11.35 Q-1.8 8.15 -3.75 8.9 L-3.6 7.85 -3.35 6.6 Q-0.85 3.05 -0.25 9.25" fill="url(#gradient1)" fill-rule="evenodd" stroke="none"/>
    <path d="M-0.65 11.35 L-0.55 10.8 -0.25 9.25 M-3.35 6.6 L-3.6 7.85 -3.75 8.9 Q-1.8 8.15 -0.65 11.35 -1.8 18.5 0.25 27.0 -4.85 17.95 -3.75 8.9" fill="none" stroke="#000000" stroke-linecap="round" stroke-linejoin="round" stroke-width="0.05"/>
  </g>
  <defs>
    <radialGradient cx="0" cy="0" gradientTransform="matrix(0.0153, 0.0, 0.0, 0.0153, -2.35, 21.15)" gradientUnits="userSpaceOnUse" id="gradient0" r="819.2" spreadMethod="pad">
      <stop offset="0.0" stop-color="#ffffff"/>
      <stop offset="0.49411764705882355" stop-color="#779bb3"/>
      <stop offset="1.0" stop-color="#47446f"/>
    </radialGradient>
    <radialGradient cx="0" cy="0" gradientTransform="matrix(0.007, 0.0, 0.0, 0.007, -2.0, 5.75)" gradientUnits="userSpaceOnUse" id="gradient1" r="819.2" spreadMethod="pad">
      <stop offset="0.0" stop-color="#4a423e"/>
      <stop offset="1.0" stop-color="#0a0707"/>
    </radialGradient>
  </defs>
</svg>
