<?xml version="1.0" encoding="UTF-8" standalone="no"?>
<svg xmlns:xlink="http://www.w3.org/1999/xlink" height="18.35px" width="7.05px" xmlns="http://www.w3.org/2000/svg">
  <g transform="matrix(1.0, 0.0, 0.0, 1.0, 3.55, 9.15)">
    <path d="M3.0 -6.9 Q3.7 -4.25 3.45 -2.1 2.75 -0.55 2.4 0.8 1.0 3.05 1.8 4.65 L1.9 4.85 1.95 5.05 Q-0.45 6.05 -2.25 4.65 L-2.95 4.05 -2.95 4.0 Q-2.25 1.55 -3.15 -1.05 L-3.0 -4.55 Q-2.8 -6.1 -0.75 -9.15 L3.0 -6.9" fill="url(#gradient0)" fill-rule="evenodd" stroke="none"/>
    <path d="M2.0 4.95 L2.0 5.0 1.95 5.05 1.9 4.85 2.0 4.95" fill="url(#gradient1)" fill-rule="evenodd" stroke="none"/>
    <path d="M1.9 4.85 L2.0 4.9 2.0 4.95 1.9 4.85" fill="url(#gradient2)" fill-rule="evenodd" stroke="none"/>
    <path d="M1.95 5.05 L0.9 6.85 1.3 8.4 0.15 9.2 -3.55 6.1 -2.95 4.05 -2.25 4.65 Q-0.45 6.05 1.95 5.05" fill="url(#gradient3)" fill-rule="evenodd" stroke="none"/>
    <path d="M3.0 -6.9 Q3.7 -4.25 3.45 -2.1 2.75 -0.55 2.4 0.8 1.0 3.05 1.8 4.65 L1.9 4.85 2.0 4.95 2.0 5.0 1.95 5.05 0.9 6.85 1.3 8.4 0.15 9.2 -3.55 6.1 -2.95 4.05 -2.95 4.0 Q-2.25 1.55 -3.15 -1.05 L-3.0 -4.55 Q-2.8 -6.1 -0.75 -9.15 M2.0 4.9 L2.0 4.95" fill="none" stroke="#000000" stroke-linecap="round" stroke-linejoin="round" stroke-width="0.05"/>
    <path d="M1.0 -3.85 L0.95 -3.85 0.9 -3.8 0.25 -3.8 -0.05 -3.9 -0.2 -4.05 0.25 -3.85 1.0 -3.85 M-0.65 -3.0 L-0.65 -3.05 -0.35 -2.95 -0.2 -2.7 -0.3 -2.4 -0.4 -2.35 -0.45 -2.65 -0.65 -3.0" fill="#000000" fill-opacity="0.5019608" fill-rule="evenodd" stroke="none"/>
    <path d="M-0.2 -4.05 L-0.4 -4.25 -0.45 -4.35 -0.5 -4.75 -0.45 -5.1 -0.25 -5.55 -0.15 -5.75 -0.05 -5.8 0.1 -5.85 0.2 -5.9 0.35 -5.9 1.2 -5.75 1.8 -5.15 1.85 -4.4 1.55 -4.1 1.0 -3.85 0.25 -3.85 -0.2 -4.05 M1.7 -3.15 L1.75 -3.05 1.85 -2.75 1.95 -2.4 1.9 -2.0 1.9 -1.9 Q1.7 -1.55 1.25 -1.65 0.6 -1.75 0.5 -2.4 L0.5 -2.85 0.55 -2.95 0.65 -3.0 1.1 -3.2 1.5 -3.2 1.7 -3.15 M-0.4 -2.35 L-0.45 -2.25 -0.5 -2.15 -0.65 -2.1 Q-1.0 -1.95 -1.35 -2.1 L-1.45 -2.2 -1.45 -2.3 -1.45 -2.5 -1.45 -2.65 -1.4 -2.95 -1.4 -3.05 -1.3 -3.1 -1.15 -3.1 -0.9 -3.15 -0.65 -3.0 -0.45 -2.65 -0.4 -2.35" fill="#000000" fill-opacity="0.6117647" fill-rule="evenodd" stroke="none"/>
  </g>
  <defs>
    <radialGradient cx="0" cy="0" gradientTransform="matrix(0.0126, 0.0, 0.0, 0.0126, -0.45, -4.35)" gradientUnits="userSpaceOnUse" id="gradient0" r="819.2" spreadMethod="pad">
      <stop offset="0.11764705882352941" stop-color="#74a59a"/>
      <stop offset="0.7450980392156863" stop-color="#2d2d53"/>
      <stop offset="1.0" stop-color="#54507c"/>
    </radialGradient>
    <radialGradient cx="0" cy="0" gradientTransform="matrix(0.0133, 0.0026, -0.0018, 0.0144, 0.8, -7.0)" gradientUnits="userSpaceOnUse" id="gradient1" r="819.2" spreadMethod="pad">
      <stop offset="0.0" stop-color="#6a7249"/>
      <stop offset="1.0" stop-color="#393a2c"/>
    </radialGradient>
    <radialGradient cx="0" cy="0" gradientTransform="matrix(0.0038, 7.0E-4, -5.0E-4, 0.0041, -0.45, 6.05)" gradientUnits="userSpaceOnUse" id="gradient2" r="819.2" spreadMethod="pad">
      <stop offset="0.0" stop-color="#6a7249"/>
      <stop offset="1.0" stop-color="#393a2c"/>
    </radialGradient>
    <radialGradient cx="0" cy="0" gradientTransform="matrix(0.0049, 0.0, 0.0, 0.0049, -0.2, 7.0)" gradientUnits="userSpaceOnUse" id="gradient3" r="819.2" spreadMethod="pad">
      <stop offset="0.11764705882352941" stop-color="#74a59a"/>
      <stop offset="0.7450980392156863" stop-color="#2d2d53"/>
      <stop offset="1.0" stop-color="#54507c"/>
    </radialGradient>
  </defs>
</svg>
