<?xml version="1.0" encoding="UTF-8" standalone="no"?>
<svg xmlns:xlink="http://www.w3.org/1999/xlink" height="8.3px" width="7.3px" xmlns="http://www.w3.org/2000/svg">
  <g transform="matrix(1.0, 0.0, 0.0, 1.0, 3.2, 8.05)">
    <path d="M2.2 -7.75 Q3.05 -7.45 3.55 -6.8 4.1 -6.1 4.1 -5.25 L4.0 -5.1 3.9 -5.05 3.7 -5.0 3.4 -5.0 3.3 -5.0 2.1 -4.95 1.3 -5.35 0.4 -5.6 -0.15 -5.0 -0.25 -4.6 -0.25 -4.55 -0.3 -4.45 -0.35 -4.3 -0.35 -4.25 -0.15 -4.2 0.05 -4.05 0.35 -3.85 0.6 -3.6 0.55 -3.35 0.4 -2.95 Q0.3 -2.4 -0.25 -2.25 L-0.45 -2.15 Q-0.3 -1.95 -0.4 -1.5 L-0.8 -0.25 Q-1.1 0.45 -1.8 0.15 L-2.05 -0.35 -2.45 0.05 Q-2.2 -0.75 -2.35 -0.8 L-2.5 -0.95 -2.6 -1.05 -2.6 -1.1 -3.05 -1.45 -3.15 -1.95 -3.1 -2.45 -3.05 -2.5 -3.1 -2.6 -3.15 -2.7 -3.15 -3.75 Q-3.3 -4.8 -2.6 -5.4 -1.5 -6.35 -0.55 -7.45 -0.15 -7.95 0.5 -8.05 L2.2 -7.75" fill="url(#gradient0)" fill-rule="evenodd" stroke="none"/>
  </g>
  <defs>
    <radialGradient cx="0" cy="0" gradientTransform="matrix(0.0102, 0.0, 0.0, 0.0102, 1.7, -7.45)" gradientUnits="userSpaceOnUse" id="gradient0" r="819.2" spreadMethod="pad">
      <stop offset="0.0" stop-color="#583016"/>
      <stop offset="1.0" stop-color="#130f0f"/>
    </radialGradient>
  </defs>
</svg>
