<?xml version="1.0" encoding="UTF-8" standalone="no"?>
<svg xmlns:xlink="http://www.w3.org/1999/xlink" height="20.4px" width="8.0px" xmlns="http://www.w3.org/2000/svg">
  <g transform="matrix(1.0, 0.0, 0.0, 1.0, 3.6, 8.5)">
    <path d="M-3.6 -3.55 Q-3.6 -5.65 -2.4 -7.1 -1.2 -8.55 0.45 -8.5 2.1 -8.5 3.25 -7.0 4.4 -5.55 4.4 -3.45 L3.0 5.7 Q0.1 5.9 -2.95 4.1 L-3.6 -3.55" fill="url(#gradient0)" fill-rule="evenodd" stroke="none"/>
    <path d="M-2.95 4.1 Q0.1 5.9 3.0 5.7 2.65 9.5 1.55 10.95 0.45 12.4 -0.75 11.65 -1.95 10.9 -2.55 8.4 -3.15 5.85 -2.95 4.1" fill="url(#gradient1)" fill-rule="evenodd" stroke="none"/>
    <path d="M-3.6 -3.55 L-2.95 4.1 Q-3.15 5.85 -2.55 8.4 -1.95 10.9 -0.75 11.65 0.45 12.4 1.55 10.95 2.65 9.5 3.0 5.7 L4.4 -3.45" fill="none" stroke="#000000" stroke-linecap="round" stroke-linejoin="round" stroke-width="0.05"/>
  </g>
  <defs>
    <radialGradient cx="0" cy="0" gradientTransform="matrix(0.0102, 0.0, 0.0, 0.0102, 0.95, -6.35)" gradientUnits="userSpaceOnUse" id="gradient0" r="819.2" spreadMethod="pad">
      <stop offset="0.0" stop-color="#f7c85e"/>
      <stop offset="0.6352941176470588" stop-color="#f79d44"/>
      <stop offset="1.0" stop-color="#f1ad6b"/>
    </radialGradient>
    <radialGradient cx="0" cy="0" gradientTransform="matrix(0.0063, 0.0, 0.0, 0.0063, -1.0, 7.3)" gradientUnits="userSpaceOnUse" id="gradient1" r="819.2" spreadMethod="pad">
      <stop offset="0.0" stop-color="#f7c85e"/>
      <stop offset="0.6352941176470588" stop-color="#f79d44"/>
      <stop offset="1.0" stop-color="#f1ad6b"/>
    </radialGradient>
  </defs>
</svg>
