<?xml version="1.0" encoding="UTF-8" standalone="no"?>
<svg xmlns:xlink="http://www.w3.org/1999/xlink" height="100.0px" width="100.0px" xmlns="http://www.w3.org/2000/svg">
  <g transform="matrix(1.0, 0.0, 0.0, 1.0, 50.0, 50.0)">
    <path d="M9.85 -38.7 Q5.15 -39.9 0.0 -39.9 -5.15 -39.9 -9.8 -38.7 -19.7 -36.15 -27.4 -28.25 -38.75 -16.55 -38.75 0.0 -38.75 16.55 -27.4 28.2 -16.05 39.9 0.0 39.9 16.05 39.9 27.4 28.2 38.75 16.55 38.75 0.0 38.75 -16.55 27.4 -28.25 19.7 -36.15 9.85 -38.7 M35.3 -35.35 Q50.0 -20.7 50.0 0.0 50.0 20.7 35.3 35.35 24.25 46.35 9.85 49.1 L0.0 50.0 -9.8 49.1 Q-24.35 46.4 -35.4 35.35 -50.05 20.7 -50.0 0.0 -50.05 -20.7 -35.4 -35.35 -20.7 -50.0 0.0 -50.0 20.65 -50.0 35.3 -35.35" fill="url(#gradient0)" fill-rule="evenodd" stroke="none"/>
    <path d="M35.3 -35.35 Q50.0 -20.7 50.0 0.0 50.0 20.7 35.3 35.35 24.25 46.35 9.85 49.1 L0.0 50.0 -9.8 49.1 Q-24.35 46.4 -35.4 35.35 -50.05 20.7 -50.0 0.0 -50.05 -20.7 -35.4 -35.35 -20.7 -50.0 0.0 -50.0 20.65 -50.0 35.3 -35.35 Z" fill="none" stroke="#ffffff" stroke-linecap="round" stroke-linejoin="round" stroke-width="0.05"/>
  </g>
  <defs>
    <radialGradient cx="0" cy="0" gradientTransform="matrix(0.062, 0.0, 0.0, 0.062, 0.0, 0.0)" gradientUnits="userSpaceOnUse" id="gradient0" r="819.2" spreadMethod="pad">
      <stop offset="0.7607843137254902" stop-color="#ffffff" stop-opacity="0.0"/>
      <stop offset="1.0" stop-color="#ffffff" stop-opacity="0.6"/>
    </radialGradient>
  </defs>
</svg>
