<?xml version="1.0" encoding="UTF-8" standalone="no"?>
<svg xmlns:xlink="http://www.w3.org/1999/xlink" height="67.05px" width="9.7px" xmlns="http://www.w3.org/2000/svg">
  <g transform="matrix(1.0, 0.0, 0.0, 1.0, 5.1, 39.35)">
    <path d="M-1.45 12.05 L1.4 14.7 0.9 27.7 -1.35 27.7 -1.85 12.45 -1.45 12.05" fill="url(#gradient0)" fill-rule="evenodd" stroke="none"/>
    <path d="M-1.85 12.45 L-1.35 27.7" fill="none" stroke="#000000" stroke-linecap="round" stroke-linejoin="round" stroke-width="0.05"/>
    <path d="M-1.35 27.7 L0.9 27.7 1.4 14.7 -1.45 12.05 -2.1 11.45" fill="none" stroke="#000000" stroke-linecap="round" stroke-linejoin="round" stroke-width="0.05"/>
    <path d="M-0.5 -25.9 Q4.95 -1.1 4.6 23.65 3.95 19.1 -2.7 8.4 0.2 -10.15 -5.1 -39.35 L-0.5 -25.9" fill="url(#gradient1)" fill-rule="evenodd" stroke="none"/>
    <path d="M-0.5 -25.9 Q4.95 -1.1 4.6 23.65 3.95 19.1 -2.7 8.4 0.2 -10.15 -5.1 -39.35 L-0.5 -25.9 Z" fill="none" stroke="#000000" stroke-linecap="round" stroke-linejoin="round" stroke-width="0.05"/>
    <path d="M-4.3 -35.15 L-1.5 -21.45 Q-0.85 0.75 4.35 23.0 2.6 16.45 -3.5 11.1 -0.25 -5.95 -4.3 -35.15" fill="url(#gradient2)" fill-rule="evenodd" stroke="none"/>
    <path d="M4.35 23.0 L4.6 24.05 M4.35 23.0 Q2.6 16.45 -3.5 11.1 -0.25 -5.95 -4.3 -35.15" fill="none" stroke="#000000" stroke-linecap="round" stroke-linejoin="round" stroke-width="0.05"/>
  </g>
  <defs>
    <linearGradient gradientTransform="matrix(7.0E-4, -0.0095, 0.0023, 2.0E-4, -0.5, 19.95)" gradientUnits="userSpaceOnUse" id="gradient0" spreadMethod="pad" x1="-819.2" x2="819.2">
      <stop offset="0.0" stop-color="#404040"/>
      <stop offset="1.0" stop-color="#211b1b"/>
    </linearGradient>
    <linearGradient gradientTransform="matrix(-0.0164, 0.018, -0.0224, -0.0204, -0.2, -7.8)" gradientUnits="userSpaceOnUse" id="gradient1" spreadMethod="pad" x1="-819.2" x2="819.2">
      <stop offset="0.0" stop-color="#efece4"/>
      <stop offset="0.41568627450980394" stop-color="#5a4836"/>
      <stop offset="0.4392156862745098" stop-color="#876456"/>
      <stop offset="0.7294117647058823" stop-color="#d2c5bd"/>
      <stop offset="0.8627450980392157" stop-color="#ffffff"/>
      <stop offset="1.0" stop-color="#9f9171"/>
    </linearGradient>
    <linearGradient gradientTransform="matrix(0.0071, -0.0021, 0.0101, 0.0347, -1.9, -5.0)" gradientUnits="userSpaceOnUse" id="gradient2" spreadMethod="pad" x1="-819.2" x2="819.2">
      <stop offset="0.0" stop-color="#404040"/>
      <stop offset="1.0" stop-color="#211b1b"/>
    </linearGradient>
  </defs>
</svg>
