<?xml version="1.0" encoding="UTF-8" standalone="no"?>
<svg xmlns:xlink="http://www.w3.org/1999/xlink" height="15.35px" width="14.8px" xmlns="http://www.w3.org/2000/svg">
  <g transform="matrix(1.0, 0.0, 0.0, 1.0, 5.95, 7.15)">
    <path d="M-0.5 -5.95 Q1.7 -7.85 4.65 -6.5 L5.85 -4.85 6.25 -3.3 -0.65 -4.4 -0.5 -5.95 M6.25 -0.15 L6.1 0.95 5.5 1.85 5.45 2.1 Q1.8 0.8 -0.5 -1.85 L-0.6 -2.3 6.25 -0.15" fill="#33ffff" fill-rule="evenodd" stroke="none"/>
    <path d="M5.45 2.1 L5.75 2.3 5.85 2.5 Q6.6 4.7 8.85 6.55 L8.15 8.2 4.7 4.95 -0.55 3.3 -1.5 3.4 Q-2.65 0.6 -5.95 -1.6 -2.85 -3.9 -0.7 -6.75 L-0.7 -6.8 -0.3 -7.15 -0.5 -5.95 -0.65 -4.4 -0.65 -3.25 -0.6 -2.45 -0.6 -2.3 -0.5 -1.85 Q1.8 0.8 5.45 2.1" fill="url(#gradient0)" fill-rule="evenodd" stroke="none"/>
    <path d="M6.25 -3.3 L6.25 -3.2 6.25 -0.15 -0.6 -2.3 -0.6 -2.45 -0.65 -3.25 -0.65 -4.4 6.25 -3.3" fill="url(#gradient1)" fill-rule="evenodd" stroke="none"/>
    <path d="M-0.5 -5.95 Q1.7 -7.85 4.65 -6.5 L5.85 -4.85 6.25 -3.3 M6.25 -3.2 L6.25 -0.15 6.1 0.95 5.5 1.85 5.45 2.1 5.75 2.3 5.85 2.5 Q6.6 4.7 8.85 6.55 L8.15 8.2 4.7 4.95 -0.55 3.3 -1.5 3.4 Q-2.65 0.6 -5.95 -1.6 -2.85 -3.9 -0.7 -6.75 L-0.7 -6.8 -0.3 -7.15 -0.5 -5.95 -0.65 -4.4 -0.65 -3.25 -0.6 -2.45 M-0.6 -2.3 L-0.5 -1.85 Q1.8 0.8 5.45 2.1" fill="none" stroke="#000000" stroke-linecap="round" stroke-linejoin="round" stroke-width="0.05"/>
    <path d="M6.25 -3.3 L6.25 -3.2 M-0.65 -4.4 L6.25 -3.3 M-0.6 -2.45 L-0.6 -2.3 6.25 -0.15" fill="none" stroke="#000000" stroke-linecap="round" stroke-linejoin="round" stroke-width="0.05"/>
  </g>
  <defs>
    <radialGradient cx="0" cy="0" gradientTransform="matrix(0.0118, 0.0, 0.0, 0.0118, 0.55, 2.25)" gradientUnits="userSpaceOnUse" id="gradient0" r="819.2" spreadMethod="pad">
      <stop offset="0.0" stop-color="#ffffff"/>
      <stop offset="0.42745098039215684" stop-color="#7c9aad"/>
      <stop offset="0.44313725490196076" stop-color="#58607c"/>
      <stop offset="0.6470588235294118" stop-color="#7e8aa3"/>
      <stop offset="1.0" stop-color="#c2cde7"/>
    </radialGradient>
    <radialGradient cx="0" cy="0" gradientTransform="matrix(0.0071, 0.0, 0.0, 0.0071, 1.0, -2.25)" gradientUnits="userSpaceOnUse" id="gradient1" r="819.2" spreadMethod="pad">
      <stop offset="0.0" stop-color="#ffffff"/>
      <stop offset="0.42745098039215684" stop-color="#7c9aad"/>
      <stop offset="0.44313725490196076" stop-color="#58607c"/>
      <stop offset="0.6470588235294118" stop-color="#7e8aa3"/>
      <stop offset="1.0" stop-color="#c2cde7"/>
    </radialGradient>
  </defs>
</svg>
