<?xml version="1.0" encoding="UTF-8" standalone="no"?>
<svg xmlns:xlink="http://www.w3.org/1999/xlink" height="37.45px" width="6.75px" xmlns="http://www.w3.org/2000/svg">
  <g transform="matrix(1.0, 0.0, 0.0, 1.0, 3.4, 18.75)">
    <path d="M0.3 -10.8 L-0.65 -10.75 Q-1.55 -10.75 -2.15 -13.25 -2.15 -14.25 -1.65 -14.25 2.3 -14.25 3.1 -10.8 3.1 -10.05 1.4 -8.55 -0.3 -7.1 -0.3 -5.45 -0.3 -4.05 0.2 -4.05 L2.65 -4.35 2.7 -5.05 0.95 -5.5 0.85 -6.0 1.9 -6.25 Q3.1 -6.25 3.35 -5.1 L2.95 -4.15 Q2.5 -3.4 2.1 -3.4 -1.7 -3.4 -0.9 -5.3 -0.9 -7.25 0.8 -8.9 L2.45 -10.9 1.45 -12.3 -0.05 -13.55 -1.65 -13.55 Q-1.4 -11.4 0.2 -11.0 L0.3 -10.8 M-2.4 -15.9 Q-3.45 -16.0 -3.3 -16.3 L-2.9 -16.9 Q-2.9 -17.55 -3.4 -18.4 L-3.15 -18.75 Q-1.0 -18.75 -1.3 -16.75 -1.45 -16.15 -2.4 -15.9 M-1.9 -17.15 Q-1.9 -17.8 -2.9 -18.05 -2.5 -17.55 -2.4 -16.65 L-1.9 -16.9 -1.9 -17.15 M-0.05 8.95 Q1.95 8.95 1.75 7.5 1.75 5.65 0.2 4.05 -1.4 2.45 -1.4 1.1 -1.4 -0.75 -0.15 -0.75 1.85 -0.75 2.35 0.65 2.35 2.25 1.6 2.5 L0.7 1.85 Q0.7 1.5 0.95 1.25 L1.1 1.2 Q1.4 1.4 1.1 1.75 L1.5 2.0 1.85 1.35 Q1.85 0.0 0.35 0.0 -1.2 0.0 -0.8 1.1 -0.8 1.75 0.8 3.65 2.35 5.55 2.35 7.5 2.35 9.5 0.4 9.5 -1.15 9.5 -1.25 9.05 L-1.15 7.85 -1.15 6.75 Q-1.3 6.5 -0.65 6.5 0.2 6.5 0.95 7.5 L0.85 7.85 Q0.1 7.75 -0.2 7.45 L-0.55 7.5 -0.05 8.95 M0.85 14.35 L1.35 14.0 Q1.35 13.3 0.4 12.95 0.7 13.1 0.7 14.25 L0.85 14.35 M1.75 14.7 L0.45 15.0 Q-0.15 13.7 -0.15 12.75 -0.15 12.15 0.35 12.25 1.85 13.15 1.85 13.95 L1.75 14.7 M1.1 17.5 L1.85 18.2 1.85 18.5 1.3 18.7 0.6 18.0 Q0.6 17.5 1.1 17.5" fill="#ffffff" fill-rule="evenodd" stroke="none"/>
  </g>
</svg>
