<?xml version="1.0" encoding="UTF-8" standalone="no"?>
<svg xmlns:xlink="http://www.w3.org/1999/xlink" height="10.4px" width="13.2px" xmlns="http://www.w3.org/2000/svg">
  <g transform="matrix(1.0, 0.0, 0.0, 1.0, 6.55, 8.3)">
    <path d="M5.0 -0.95 L6.2 -0.35 6.65 2.1 4.35 1.9 3.35 1.55 5.0 -0.95" fill="url(#gradient0)" fill-rule="evenodd" stroke="none"/>
    <path d="M0.55 -7.2 L0.7 -7.2 2.6 -7.1 Q3.4 -7.05 3.95 -6.45 L4.35 -5.95 4.35 -5.9 4.3 -5.85 4.3 -5.8 4.25 -5.75 4.0 -5.65 3.35 -5.5 1.7 -5.7 1.05 -5.9 0.95 -6.0 0.9 -6.05 0.75 -5.85 0.15 -5.1 0.6 -5.0 Q1.0 -4.95 1.0 -4.5 0.95 -4.2 1.05 -3.95 L1.2 -3.0 1.2 -2.55 1.05 -1.8 1.05 -1.7 1.05 -1.45 1.0 -0.65 Q1.7 -0.1 1.45 1.0 1.1 2.45 0.65 1.0 L0.35 0.25 0.05 -0.85 -0.05 -0.85 -0.2 -0.65 Q-0.3 -0.15 -0.65 0.0 L-1.25 0.15 -1.3 0.2 -1.35 0.25 -1.4 0.35 -2.05 0.15 Q-2.55 0.35 -3.0 -0.15 L-3.35 -0.65 -4.75 -1.8 -4.95 -2.65 -4.8 -3.35 -4.9 -3.65 -5.05 -4.05 -5.6 -4.85 -5.7 -5.7 -5.85 -5.95 -6.4 -6.5 -6.55 -7.05 -6.4 -7.7 -6.25 -7.75 -6.15 -7.7 -6.1 -7.7 -6.05 -7.75 -4.8 -7.7 -4.75 -7.75 -4.5 -7.95 -4.1 -8.2 -3.7 -8.3 Q-2.8 -8.35 -1.95 -7.8 L-1.35 -7.75 Q-0.3 -8.1 0.4 -7.35 L0.55 -7.2" fill="url(#gradient1)" fill-rule="evenodd" stroke="none"/>
    <path d="M5.0 -0.95 L6.2 -0.35 6.65 2.1 4.35 1.9" fill="none" stroke="#000000" stroke-linecap="round" stroke-linejoin="round" stroke-width="0.05"/>
  </g>
  <defs>
    <radialGradient cx="0" cy="0" gradientTransform="matrix(0.0062, 0.0, 0.0, 0.0062, 4.15, 0.4)" gradientUnits="userSpaceOnUse" id="gradient0" r="819.2" spreadMethod="pad">
      <stop offset="0.0" stop-color="#f8cba0"/>
      <stop offset="0.6196078431372549" stop-color="#ebba72"/>
      <stop offset="1.0" stop-color="#c58c87"/>
    </radialGradient>
    <radialGradient cx="0" cy="0" gradientTransform="matrix(0.0075, 0.0, 0.0, 0.0086, -1.3, -4.75)" gradientUnits="userSpaceOnUse" id="gradient1" r="819.2" spreadMethod="pad">
      <stop offset="0.10588235294117647" stop-color="#515151"/>
      <stop offset="1.0" stop-color="#4a2424"/>
    </radialGradient>
  </defs>
</svg>
