<?xml version="1.0" encoding="UTF-8" standalone="no"?>
<svg xmlns:xlink="http://www.w3.org/1999/xlink" height="32.35px" width="29.45px" xmlns="http://www.w3.org/2000/svg">
  <g transform="matrix(1.0, 0.0, 0.0, 1.0, 15.5, 17.05)">
    <path d="M11.35 -3.35 L10.75 -3.25 11.1 -4.8 11.35 -3.35 M-1.05 14.8 L-0.45 14.65 -0.45 14.7 -0.4 14.8 -1.05 14.8" fill="url(#gradient0)" fill-rule="evenodd" stroke="none"/>
    <path d="M-7.55 5.8 L-1.05 14.8 -8.3 14.8 -10.05 11.35 -12.55 10.75 -15.0 5.6 -15.0 -13.55 -14.85 -14.9 Q-13.5 -4.75 -9.1 3.6 L-7.55 5.8" fill="url(#gradient1)" fill-rule="evenodd" stroke="none"/>
    <path d="M10.75 -3.25 L11.35 -3.35 12.95 7.3 12.0 8.3 -0.45 14.65 -1.05 14.8 -7.55 5.8 10.75 -3.25 -7.55 5.8 -9.1 3.6 Q-13.5 -4.75 -14.85 -14.9 L-14.7 -16.3 -14.65 -16.55 7.35 -14.75 7.65 -14.1 11.1 -4.8 10.75 -3.25" fill="url(#gradient2)" fill-rule="evenodd" stroke="none"/>
    <path d="M-0.45 14.65 L12.0 8.3 13.45 14.8 -0.4 14.8 -0.45 14.7 -0.45 14.65" fill="url(#gradient3)" fill-rule="evenodd" stroke="none"/>
    <path d="M10.75 -3.25 L-7.55 5.8 -1.05 14.8 M-0.45 14.65 L12.0 8.3 12.95 7.3 11.35 -3.35 11.1 -4.8 7.65 -14.1 M7.35 -14.75 L-14.65 -16.55 M-14.7 -16.3 L-14.85 -14.9 Q-13.5 -4.75 -9.1 3.6 L-7.55 5.8 M13.45 14.8 L12.0 8.3 M-14.85 -14.9 L-15.0 -13.55 M-15.0 5.6 L-12.55 10.75 -10.05 11.35 -8.3 14.8 M-0.4 14.8 L-0.45 14.7 -0.45 14.65" fill="none" stroke="#000000" stroke-linecap="round" stroke-linejoin="round" stroke-width="1.0"/>
  </g>
  <defs>
    <radialGradient cx="0" cy="0" gradientTransform="matrix(0.019, 0.0348, -0.0163, 0.0089, 1.85, -5.25)" gradientUnits="userSpaceOnUse" id="gradient0" r="819.2" spreadMethod="pad">
      <stop offset="0.0" stop-color="#d2d2c6"/>
      <stop offset="0.44313725490196076" stop-color="#4d4653"/>
      <stop offset="1.0" stop-color="#20263e"/>
    </radialGradient>
    <linearGradient gradientTransform="matrix(-0.0153, -0.0197, 0.0101, -0.0078, -5.1, 3.35)" gradientUnits="userSpaceOnUse" id="gradient1" spreadMethod="pad" x1="-819.2" x2="819.2">
      <stop offset="0.0" stop-color="#471616"/>
      <stop offset="0.2784313725490196" stop-color="#242528"/>
      <stop offset="1.0" stop-color="#0c0c0e"/>
    </linearGradient>
    <radialGradient cx="0" cy="0" gradientTransform="matrix(0.019, 0.0348, -0.0163, 0.0089, 1.85, -5.25)" gradientUnits="userSpaceOnUse" id="gradient2" r="819.2" spreadMethod="pad">
      <stop offset="0.0" stop-color="#d7dadb"/>
      <stop offset="0.2235294117647059" stop-color="#4f545a"/>
      <stop offset="0.5568627450980392" stop-color="#29272e"/>
      <stop offset="1.0" stop-color="#000000"/>
    </radialGradient>
    <linearGradient gradientTransform="matrix(-0.0153, -0.0197, 0.0101, -0.0078, -5.1, 3.35)" gradientUnits="userSpaceOnUse" id="gradient3" spreadMethod="pad" x1="-819.2" x2="819.2">
      <stop offset="0.0" stop-color="#272d36"/>
      <stop offset="0.2784313725490196" stop-color="#242528"/>
      <stop offset="1.0" stop-color="#0c0c0e"/>
    </linearGradient>
  </defs>
</svg>
