<?xml version="1.0" encoding="UTF-8" standalone="no"?>
<svg xmlns:xlink="http://www.w3.org/1999/xlink" height="31.45px" width="29.9px" xmlns="http://www.w3.org/2000/svg">
  <g transform="matrix(1.0, 0.0, 0.0, 1.0, 16.15, 15.9)">
    <path d="M1.85 -10.3 L8.25 -6.05 7.0 -3.95 2.0 4.4 1.75 4.8 -1.7 3.55 -1.05 2.35 -3.95 0.65 1.85 -10.3" fill="url(#gradient0)" fill-rule="evenodd" stroke="none"/>
    <path d="M-4.05 -15.35 L2.7 -11.95 1.85 -10.3 -3.95 0.65 -8.85 -2.25 -4.4 -14.7 -4.05 -15.35" fill="url(#gradient1)" fill-rule="evenodd" stroke="none"/>
    <path d="M-15.65 4.8 L-15.65 -1.7 -11.9 -8.55 -4.4 -14.7 -8.85 -2.25 -11.6 -3.9 -15.65 4.8" fill="url(#gradient2)" fill-rule="evenodd" stroke="none"/>
    <path d="M1.5 15.05 L-15.65 15.05 -15.65 4.8 -11.6 -3.9 -8.85 -2.25 -3.95 0.65 -1.05 2.35 -1.7 3.55 -2.9 5.75 -7.2 5.5 -7.25 6.05 -2.6 8.25 -2.2 7.95 2.0 11.4 1.5 15.05 M-9.45 10.75 L-8.2 5.45 -7.2 5.5 -8.2 5.45 -9.45 10.75" fill="url(#gradient3)" fill-rule="evenodd" stroke="none"/>
    <path d="M7.35 15.05 L1.5 15.05 2.0 11.4 -2.2 7.95 -2.6 8.25 -7.25 6.05 -7.2 5.5 -2.9 5.75 -1.7 3.55 1.75 4.8 1.9 4.85 1.45 6.35 5.45 8.95 5.4 9.2 4.55 13.2 7.35 15.05 M5.4 9.2 L2.35 11.65 2.0 11.4 2.35 11.65 5.4 9.2 M0.8 5.45 L-2.2 7.95 0.8 5.45" fill="#1a1e22" fill-rule="evenodd" stroke="none"/>
    <path d="M7.0 -3.95 L11.7 0.45 9.55 3.65 5.8 9.15 5.45 8.95 1.45 6.35 1.9 4.85 2.0 4.4 7.0 -3.95" fill="url(#gradient4)" fill-rule="evenodd" stroke="none"/>
    <path d="M1.75 4.8 L2.0 4.4 1.9 4.85 1.75 4.8" fill="#01376d" fill-rule="evenodd" stroke="none"/>
    <path d="M9.55 3.65 L13.25 8.25 7.35 15.05 4.55 13.2 5.4 9.2 5.45 8.95 5.8 9.15 9.55 3.65" fill="url(#gradient5)" fill-rule="evenodd" stroke="none"/>
    <path d="M-4.05 -15.35 L2.7 -11.95 1.85 -10.3 8.25 -6.05 7.0 -3.95 11.7 0.45 9.55 3.65 13.25 8.25 7.35 15.05 1.5 15.05 -15.65 15.05 -15.65 4.8 -15.65 -1.7 -11.9 -8.55 -4.4 -14.7 -4.15 -15.4 -4.05 -15.35 M-4.4 -14.7 L-8.85 -2.25 -3.95 0.65 1.85 -10.3 M1.75 4.8 L2.0 4.4 7.0 -3.95 M2.0 4.4 L1.9 4.85 1.45 6.35 5.45 8.95 5.8 9.15 9.55 3.65 M1.75 4.8 L-1.7 3.55 -2.9 5.75 -7.2 5.5 -8.2 5.45 -9.45 10.75 M-7.25 6.05 L-2.6 8.25 -2.2 7.95 0.8 5.45 M2.0 11.4 L2.35 11.65 5.4 9.2 5.45 8.95 M5.4 9.2 L4.55 13.2 7.35 15.05 M2.0 11.4 L1.5 15.05 M-15.65 4.8 L-11.6 -3.9 -8.85 -2.25 M-3.95 0.65 L-1.05 2.35 -1.7 3.55 M-2.2 7.95 L2.0 11.4" fill="none" stroke="#000000" stroke-linecap="round" stroke-linejoin="round" stroke-width="1.0"/>
  </g>
  <defs>
    <radialGradient cx="0" cy="0" gradientTransform="matrix(0.0092, 0.0, 0.0, 0.0092, 2.15, -2.75)" gradientUnits="userSpaceOnUse" id="gradient0" r="819.2" spreadMethod="pad">
      <stop offset="0.0" stop-color="#3f535a"/>
      <stop offset="1.0" stop-color="#332f2b"/>
    </radialGradient>
    <radialGradient cx="0" cy="0" gradientTransform="matrix(0.0098, 0.0, 0.0, 0.0098, -3.05, -7.35)" gradientUnits="userSpaceOnUse" id="gradient1" r="819.2" spreadMethod="pad">
      <stop offset="0.0" stop-color="#3f535a"/>
      <stop offset="1.0" stop-color="#332f2b"/>
    </radialGradient>
    <radialGradient cx="0" cy="0" gradientTransform="matrix(0.0137, 0.0, 0.0, 0.0137, -10.0, -4.95)" gradientUnits="userSpaceOnUse" id="gradient2" r="819.2" spreadMethod="pad">
      <stop offset="0.0" stop-color="#3f535a"/>
      <stop offset="1.0" stop-color="#332f2b"/>
    </radialGradient>
    <radialGradient cx="0" cy="0" gradientTransform="matrix(0.0158, 0.0, 0.0, 0.0158, -6.8, 5.6)" gradientUnits="userSpaceOnUse" id="gradient3" r="819.2" spreadMethod="pad">
      <stop offset="0.0" stop-color="#3f535a"/>
      <stop offset="1.0" stop-color="#332f2b"/>
    </radialGradient>
    <radialGradient cx="0" cy="0" gradientTransform="matrix(0.0081, 0.0, 0.0, 0.0081, 6.6, 2.6)" gradientUnits="userSpaceOnUse" id="gradient4" r="819.2" spreadMethod="pad">
      <stop offset="0.0" stop-color="#3f535a"/>
      <stop offset="1.0" stop-color="#332f2b"/>
    </radialGradient>
    <radialGradient cx="0" cy="0" gradientTransform="matrix(0.0072, 0.0, 0.0, 0.0072, 8.9, 9.35)" gradientUnits="userSpaceOnUse" id="gradient5" r="819.2" spreadMethod="pad">
      <stop offset="0.0" stop-color="#3f535a"/>
      <stop offset="1.0" stop-color="#332f2b"/>
    </radialGradient>
  </defs>
</svg>
