<?xml version="1.0" encoding="UTF-8" standalone="no"?>
<svg xmlns:xlink="http://www.w3.org/1999/xlink" height="31.25px" width="25.35px" xmlns="http://www.w3.org/2000/svg">
  <g transform="matrix(1.0, 0.0, 0.0, 1.0, 12.1, 15.75)">
    <path d="M-7.05 -10.05 L-7.0 -10.3 -7.0 -9.8 -7.05 -10.05" fill="#1a1e22" fill-rule="evenodd" stroke="none"/>
    <path d="M5.2 -15.25 L1.0 -5.35 Q-2.05 -6.1 -5.0 -8.65 L-5.15 -8.85 -3.65 -15.25 5.2 -15.25" fill="url(#gradient0)" fill-rule="evenodd" stroke="none"/>
    <path d="M-5.0 -8.65 Q-2.05 -6.1 1.0 -5.35 L-0.1 -2.85 1.4 -0.5 Q0.2 1.8 -1.45 3.3 L-5.45 -1.95 -5.0 -8.65" fill="url(#gradient1)" fill-rule="evenodd" stroke="none"/>
    <path d="M1.4 -0.5 Q4.35 3.85 6.5 9.0 L2.85 9.1 -1.45 3.3 Q0.2 1.8 1.4 -0.5" fill="url(#gradient2)" fill-rule="evenodd" stroke="none"/>
    <path d="M-3.65 -15.25 L-5.15 -8.85 -5.0 -8.65 -5.45 -1.95 -1.45 3.3 2.85 9.1 6.5 9.0 7.35 10.9 10.35 11.25 12.75 15.0 2.65 14.9 Q-0.5 8.65 -5.85 5.85 -7.2 5.1 -8.65 4.65 -14.65 1.15 -8.35 -4.85 -7.55 -7.55 -7.05 -10.05 L-8.25 -15.1 -8.25 -15.25 -3.65 -15.25 M-7.05 -10.05 L-7.0 -9.8 -7.0 -10.3 -7.05 -10.05" fill="url(#gradient3)" fill-rule="evenodd" stroke="none"/>
    <path d="M1.0 -5.35 L5.2 -15.25 M-3.65 -15.25 L-5.15 -8.85 M-5.0 -8.65 Q-2.05 -6.1 1.0 -5.35 L-0.1 -2.85 1.4 -0.5 Q4.35 3.85 6.5 9.0 L7.35 10.9 10.35 11.25 12.75 15.0 2.65 14.9 Q-0.5 8.65 -5.85 5.85 -7.2 5.1 -8.65 4.65 -14.65 1.15 -8.35 -4.85 -7.55 -7.55 -7.05 -10.05 L-8.25 -15.1 -8.25 -15.25 M6.5 9.0 L2.85 9.1 -1.45 3.3 -5.45 -1.95 -5.0 -8.65 M-7.05 -10.05 L-7.0 -9.8 -7.0 -10.3 -7.05 -10.05 M-1.45 3.3 Q0.2 1.8 1.4 -0.5" fill="none" stroke="#000000" stroke-linecap="round" stroke-linejoin="round" stroke-width="1.0"/>
  </g>
  <defs>
    <radialGradient cx="0" cy="0" gradientTransform="matrix(0.0113, 0.0, 0.0, 0.0113, 1.6, -14.6)" gradientUnits="userSpaceOnUse" id="gradient0" r="819.2" spreadMethod="pad">
      <stop offset="0.0" stop-color="#c7c5b8"/>
      <stop offset="0.24705882352941178" stop-color="#312736"/>
      <stop offset="0.6666666666666666" stop-color="#362d27"/>
      <stop offset="1.0" stop-color="#6f4a33"/>
    </radialGradient>
    <radialGradient cx="0" cy="0" gradientTransform="matrix(0.0084, 0.0, 0.0, 0.0084, -1.65, -3.6)" gradientUnits="userSpaceOnUse" id="gradient1" r="819.2" spreadMethod="pad">
      <stop offset="0.0" stop-color="#c7c5b8"/>
      <stop offset="0.24705882352941178" stop-color="#312736"/>
      <stop offset="0.6666666666666666" stop-color="#362d27"/>
      <stop offset="1.0" stop-color="#6f4a33"/>
    </radialGradient>
    <radialGradient cx="0" cy="0" gradientTransform="matrix(0.0096, 0.0, 0.0, 0.0096, 4.6, 6.65)" gradientUnits="userSpaceOnUse" id="gradient2" r="819.2" spreadMethod="pad">
      <stop offset="0.0" stop-color="#c7c5b8"/>
      <stop offset="0.24705882352941178" stop-color="#312736"/>
      <stop offset="0.6666666666666666" stop-color="#362d27"/>
      <stop offset="1.0" stop-color="#6f4a33"/>
    </radialGradient>
    <radialGradient cx="0" cy="0" gradientTransform="matrix(0.0421, 0.0, 0.0, 0.0421, 10.75, 13.5)" gradientUnits="userSpaceOnUse" id="gradient3" r="819.2" spreadMethod="pad">
      <stop offset="0.0" stop-color="#463428"/>
      <stop offset="1.0" stop-color="#100e14"/>
    </radialGradient>
  </defs>
</svg>
