<?xml version="1.0" encoding="UTF-8" standalone="no"?>
<svg xmlns:xlink="http://www.w3.org/1999/xlink" height="59.25px" width="37.6px" xmlns="http://www.w3.org/2000/svg">
  <g transform="matrix(1.0, 0.0, 0.0, 1.0, 21.1, 22.35)">
    <path d="M1.95 -9.7 L2.3 -9.7 2.35 -7.65 0.3 -8.55 1.95 -9.7" fill="url(#gradient0)" fill-rule="evenodd" stroke="none"/>
    <path d="M7.15 2.9 L7.25 4.3 6.95 4.95 7.15 2.9 M-12.4 24.75 L-13.05 17.95 -12.8 17.95 -12.8 17.9 Q-12.5 13.5 -12.95 9.8 L-8.4 16.65 Q-8.95 18.9 -8.95 21.5 L-8.65 25.25 -12.4 24.75 M-12.4 -10.65 Q-11.65 -15.65 -6.75 -21.15 L1.95 -9.7 0.3 -8.55 2.35 -7.65 2.4 -5.7 3.15 -4.25 Q-1.65 -2.4 -6.5 -4.65 L-6.65 -4.65 -8.25 -5.75 Q-8.05 -6.9 -8.0 -8.2 L-8.0 -9.0 -8.1 -11.2 -10.75 -10.85 -12.5 -10.6 -12.4 -10.65 -10.75 -10.85 -12.4 -10.65" fill="url(#gradient1)" fill-rule="evenodd" stroke="none"/>
    <path d="M3.15 19.55 Q4.4 23.4 4.0 26.8 L-8.65 25.25 -8.95 21.5 Q-8.95 18.9 -8.4 16.65 L-6.5 19.55 -6.25 19.55 3.05 19.8 3.15 19.55" fill="url(#gradient2)" fill-rule="evenodd" stroke="none"/>
    <path d="M4.0 26.8 L4.15 26.8 4.4 31.55 -1.6 36.9 -12.9 30.85 -12.4 24.75 -8.65 25.25 4.0 26.8" fill="url(#gradient3)" fill-rule="evenodd" stroke="none"/>
    <path d="M-15.35 1.65 L-20.6 -1.35 Q-20.6 -7.35 -13.2 -10.6 L-12.4 -10.65 -12.5 -10.6 -10.75 -10.85 -8.1 -11.2 -8.0 -9.0 -8.0 -8.2 Q-8.05 -6.9 -8.25 -5.75 -10.85 -7.75 -12.65 -10.45 L-18.25 -6.7 -14.85 -3.0 -15.4 1.5 -15.35 1.65" fill="url(#gradient4)" fill-rule="evenodd" stroke="none"/>
    <path d="M2.3 -9.7 L2.0 -21.85 5.15 -21.65 5.15 -18.1 5.5 -17.75 Q4.45 -13.2 5.35 -8.7 L5.95 -6.3 Q7.9 -4.45 10.3 -4.45 L13.2 -5.05 16.0 -4.9 15.8 -1.5 8.35 -0.05 6.05 -5.15 4.3 -4.9 4.05 -4.65 3.15 -4.25 2.4 -5.7 2.35 -7.65 2.3 -9.7" fill="url(#gradient5)" fill-rule="evenodd" stroke="none"/>
    <path d="M5.5 -17.75 Q10.7 -12.85 13.2 -5.05 L10.3 -4.45 Q7.9 -4.45 5.95 -6.3 L5.35 -8.7 Q4.45 -13.2 5.5 -17.75" fill="url(#gradient6)" fill-rule="evenodd" stroke="none"/>
    <path d="M3.15 -4.25 L4.05 -4.65 4.3 -4.9 5.95 4.9 5.8 5.1 5.5 5.1 Q-0.6 7.1 -7.3 4.95 L-6.5 -4.65 Q-1.65 -2.4 3.15 -4.25" fill="url(#gradient7)" fill-rule="evenodd" stroke="none"/>
    <path d="M8.35 -0.05 L8.7 0.7 7.15 2.6 7.1 2.7 5.95 4.9 4.3 -4.9 6.05 -5.15 8.35 -0.05" fill="url(#gradient8)" fill-rule="evenodd" stroke="none"/>
    <path d="M-14.85 -3.0 L-18.25 -6.7 -12.65 -10.45 Q-10.85 -7.75 -8.25 -5.75 L-6.65 -4.65 -6.5 -4.65 -7.3 4.95 -7.7 4.95 -10.3 2.1 -14.85 -3.0" fill="url(#gradient9)" fill-rule="evenodd" stroke="none"/>
    <path d="M5.5 5.1 L3.15 19.55 3.05 19.8 -6.25 19.55 -10.3 2.1 -7.7 4.95 -7.3 4.95 Q-0.6 7.1 5.5 5.1" fill="url(#gradient10)" fill-rule="evenodd" stroke="none"/>
    <path d="M7.15 2.6 L7.15 2.9 6.95 4.95 6.75 6.55 3.15 19.55 5.5 5.1 5.8 5.1 5.95 4.9 7.1 2.7 7.15 2.6 M-12.95 9.8 L-13.35 9.2 -15.35 1.65 -15.4 1.5 -14.85 -3.0 -10.3 2.1 -6.25 19.55 -6.5 19.55 -8.4 16.65 -12.95 9.8" fill="#301d1d" fill-rule="evenodd" stroke="none"/>
    <path d="M2.3 -9.7 L2.0 -21.85 5.15 -21.65 5.15 -18.1 5.5 -17.75 Q10.7 -12.85 13.2 -5.05 L16.0 -4.9 15.8 -1.5 8.35 -0.05 8.7 0.7 7.15 2.6 7.15 2.9 7.25 4.3 6.95 4.95 6.75 6.55 3.15 19.55 Q4.4 23.4 4.0 26.8 L4.15 26.8 4.4 31.55 M-12.9 30.85 L-12.4 24.75 -13.05 17.95 -13.05 17.9 -12.8 17.95 -12.8 17.9 Q-12.5 13.5 -12.95 9.8 L-13.35 9.2 -15.35 1.65 -15.4 1.5 -14.85 -3.0 -10.3 2.1 -6.25 19.55 -6.5 19.55 -8.4 16.65 -12.95 9.8 M-20.6 -1.35 Q-20.6 -7.35 -13.2 -10.6 L-12.4 -10.65 Q-11.65 -15.65 -6.75 -21.15 L1.95 -9.7 0.3 -8.55 M2.3 -9.7 L2.35 -7.65 2.4 -5.7 3.15 -4.25 4.05 -4.65 4.3 -4.9 6.05 -5.15 8.35 -0.05 M5.5 -17.75 Q4.45 -13.2 5.35 -8.7 L5.95 -6.3 Q7.9 -4.45 10.3 -4.45 L13.2 -5.05 M7.15 2.6 L7.1 2.7 5.95 4.9 5.8 5.1 5.5 5.1 3.15 19.55 3.05 19.8 -6.25 19.55 M-8.65 25.25 L4.0 26.8 M7.15 2.9 L6.95 4.95 M5.95 4.9 L4.3 -4.9 M-12.4 -10.65 L-12.5 -10.6 -10.75 -10.85 -12.4 -10.65 M-14.85 -3.0 L-18.25 -6.7 -12.65 -10.45 Q-10.85 -7.75 -8.25 -5.75 L-6.65 -4.65 -6.5 -4.65 Q-1.65 -2.4 3.15 -4.25 M-8.1 -11.2 L-10.75 -10.85 M-10.3 2.1 L-7.7 4.95 -7.3 4.95 -6.5 -4.65 M-12.4 24.75 L-8.65 25.25 M-7.3 4.95 Q-0.6 7.1 5.5 5.1" fill="none" stroke="#000000" stroke-linecap="round" stroke-linejoin="round" stroke-width="1.0"/>
  </g>
  <defs>
    <radialGradient cx="0" cy="0" gradientTransform="matrix(0.0102, 0.0, 0.0, 0.0102, 7.0, -3.5)" gradientUnits="userSpaceOnUse" id="gradient0" r="819.2" spreadMethod="pad">
      <stop offset="0.0" stop-color="#333333"/>
      <stop offset="1.0" stop-color="#000000"/>
    </radialGradient>
    <radialGradient cx="0" cy="0" gradientTransform="matrix(0.0154, 0.0018, -0.0028, 0.0247, -3.75, 5.2)" gradientUnits="userSpaceOnUse" id="gradient1" r="819.2" spreadMethod="pad">
      <stop offset="0.0" stop-color="#333333"/>
      <stop offset="1.0" stop-color="#000000"/>
    </radialGradient>
    <radialGradient cx="0" cy="0" gradientTransform="matrix(0.0233, 0.0, 0.0, 0.0233, 0.45, 25.85)" gradientUnits="userSpaceOnUse" id="gradient2" r="819.2" spreadMethod="pad">
      <stop offset="0.0" stop-color="#111111"/>
      <stop offset="1.0" stop-color="#000000"/>
    </radialGradient>
    <radialGradient cx="0" cy="0" gradientTransform="matrix(0.0164, 0.0, 0.0, 0.0164, 0.15, 29.5)" gradientUnits="userSpaceOnUse" id="gradient3" r="819.2" spreadMethod="pad">
      <stop offset="0.0" stop-color="#b1c0cd"/>
      <stop offset="0.24705882352941178" stop-color="#515151"/>
      <stop offset="0.6666666666666666" stop-color="#1e1e1e"/>
      <stop offset="0.7137254901960784" stop-color="#384750"/>
      <stop offset="1.0" stop-color="#111111"/>
    </radialGradient>
    <radialGradient cx="0" cy="0" gradientTransform="matrix(0.0108, 0.0, 0.0, 0.0108, -14.85, -5.6)" gradientUnits="userSpaceOnUse" id="gradient4" r="819.2" spreadMethod="pad">
      <stop offset="0.0" stop-color="#333333"/>
      <stop offset="1.0" stop-color="#000000"/>
    </radialGradient>
    <radialGradient cx="0" cy="0" fx="-19.200000000000003" fy="0" gradientTransform="matrix(0.0286, 0.0, 0.0, 0.0286, 15.1, 1.5)" gradientUnits="userSpaceOnUse" id="gradient5" r="819.2" spreadMethod="pad">
      <stop offset="0.0" stop-color="#c7c5b8"/>
      <stop offset="0.24705882352941178" stop-color="#bf7748"/>
      <stop offset="0.6666666666666666" stop-color="#683f17"/>
      <stop offset="0.7137254901960784" stop-color="#ba6934"/>
      <stop offset="1.0" stop-color="#523625"/>
    </radialGradient>
    <radialGradient cx="0" cy="0" gradientTransform="matrix(0.0143, 0.0, 0.0, 0.0143, 6.85, -14.85)" gradientUnits="userSpaceOnUse" id="gradient6" r="819.2" spreadMethod="pad">
      <stop offset="0.0" stop-color="#b1c0cd"/>
      <stop offset="0.24705882352941178" stop-color="#515151"/>
      <stop offset="0.6666666666666666" stop-color="#1e1e1e"/>
      <stop offset="0.7137254901960784" stop-color="#384750"/>
      <stop offset="1.0" stop-color="#111111"/>
    </radialGradient>
    <radialGradient cx="0" cy="0" gradientTransform="matrix(0.0133, 0.0, 0.0, 0.0133, -1.45, -3.0)" gradientUnits="userSpaceOnUse" id="gradient7" r="819.2" spreadMethod="pad">
      <stop offset="0.0" stop-color="#c7c5b8"/>
      <stop offset="0.24705882352941178" stop-color="#312736"/>
      <stop offset="0.6666666666666666" stop-color="#362d27"/>
      <stop offset="1.0" stop-color="#6f4a33"/>
    </radialGradient>
    <radialGradient cx="0" cy="0" gradientTransform="matrix(0.0109, 0.0, 0.0, 0.0109, 5.65, -4.05)" gradientUnits="userSpaceOnUse" id="gradient8" r="819.2" spreadMethod="pad">
      <stop offset="0.0" stop-color="#c7c5b8"/>
      <stop offset="0.24705882352941178" stop-color="#312736"/>
      <stop offset="0.6666666666666666" stop-color="#362d27"/>
      <stop offset="1.0" stop-color="#6f4a33"/>
    </radialGradient>
    <radialGradient cx="0" cy="0" gradientTransform="matrix(0.0175, 0.0, 0.0, 0.0175, -13.45, -8.0)" gradientUnits="userSpaceOnUse" id="gradient9" r="819.2" spreadMethod="pad">
      <stop offset="0.0" stop-color="#c7c5b8"/>
      <stop offset="0.24705882352941178" stop-color="#312736"/>
      <stop offset="0.6666666666666666" stop-color="#362d27"/>
      <stop offset="1.0" stop-color="#6f4a33"/>
    </radialGradient>
    <radialGradient cx="0" cy="0" gradientTransform="matrix(0.0175, 0.0, 0.0, 0.0175, -3.25, 6.85)" gradientUnits="userSpaceOnUse" id="gradient10" r="819.2" spreadMethod="pad">
      <stop offset="0.0" stop-color="#b1c0cd"/>
      <stop offset="0.24705882352941178" stop-color="#515151"/>
      <stop offset="0.6666666666666666" stop-color="#1e1e1e"/>
      <stop offset="0.7137254901960784" stop-color="#384750"/>
      <stop offset="1.0" stop-color="#111111"/>
    </radialGradient>
  </defs>
</svg>
