<?xml version="1.0" encoding="UTF-8" standalone="no"?>
<svg xmlns:xlink="http://www.w3.org/1999/xlink" height="35.9px" width="33.95px" xmlns="http://www.w3.org/2000/svg">
  <g transform="matrix(1.0, 0.0, 0.0, 1.0, 15.35, 16.8)">
    <path d="M-3.65 -2.8 L-3.9 -2.8 -3.65 -2.95 -3.65 -2.8" fill="url(#gradient0)" fill-rule="evenodd" stroke="none"/>
    <path d="M4.5 -2.8 L-3.65 -2.8 -3.65 -2.95 -3.8 -3.05 -1.25 -15.15 4.25 -15.15 4.5 -2.8" fill="url(#gradient1)" fill-rule="evenodd" stroke="none"/>
    <path d="M12.25 -3.0 L12.25 -2.8 4.5 -2.8 4.25 -15.15 10.4 -15.15 12.25 -3.0" fill="url(#gradient2)" fill-rule="evenodd" stroke="none"/>
    <path d="M10.4 -15.15 L14.8 -15.15 14.8 -5.15 12.25 -3.0 10.4 -15.15" fill="url(#gradient3)" fill-rule="evenodd" stroke="none"/>
    <path d="M-3.8 -3.05 L-6.9 -5.25 -9.15 -6.8 -10.5 -15.15 -1.25 -15.15 -3.8 -3.05" fill="url(#gradient4)" fill-rule="evenodd" stroke="none"/>
    <path d="M4.65 7.75 L4.7 10.1 4.65 10.1 4.7 10.1 4.75 12.4 4.65 10.1 4.65 7.75" fill="url(#gradient5)" fill-rule="evenodd" stroke="none"/>
    <path d="M4.5 -2.8 L12.25 -2.8 12.25 -3.0 14.8 -5.15 14.8 14.85 12.45 14.85 8.85 0.7 4.55 0.65 0.6 0.7 -1.1 14.0 -2.85 12.45 -3.45 6.7 -3.5 4.7 -7.4 0.35 -6.9 -5.25 -3.8 -3.05 -3.85 -3.0 -3.9 -2.8 -3.65 -2.8 4.5 -2.8" fill="url(#gradient6)" fill-rule="evenodd" stroke="none"/>
    <path d="M-3.45 6.7 L-2.85 12.45 -1.1 14.0 -0.15 14.85 -8.0 14.85 Q-6.8 10.15 -3.45 6.7" fill="url(#gradient7)" fill-rule="evenodd" stroke="none"/>
    <path d="M-1.1 14.0 L0.6 0.7 4.55 0.65 4.6 1.6 4.65 5.85 1.5 5.95 4.65 5.85 4.65 7.75 4.65 10.1 1.85 10.1 4.65 10.1 4.75 12.4 4.8 14.7 4.8 14.85 -0.15 14.85 -1.1 14.0" fill="url(#gradient8)" fill-rule="evenodd" stroke="none"/>
    <path d="M4.55 0.65 L8.85 0.7 12.45 14.85 4.8 14.85 4.8 14.7 4.75 12.4 4.7 10.1 4.65 7.75 4.65 5.85 4.6 1.6 4.55 0.65 M8.0 5.7 L4.65 5.85 8.0 5.7 M8.25 10.1 L4.7 10.1 8.25 10.1" fill="url(#gradient9)" fill-rule="evenodd" stroke="none"/>
    <path d="M10.4 -15.15 L10.2 -16.3 M10.4 -15.15 L14.8 -15.15 14.8 -5.15 16.35 -6.65 18.1 -15.05 M12.25 -3.0 L12.25 -2.8 4.5 -2.8 -3.65 -2.8 -3.9 -2.8 -3.85 -3.0 -3.8 -3.05 -6.9 -5.25 -7.4 0.35 -3.5 4.7 -3.45 6.7 -2.85 12.45 -1.1 14.0 -0.15 14.85 0.5 15.45 M12.45 14.85 L14.8 14.85 14.8 -5.15 12.25 -3.0 10.4 -15.15 4.25 -15.15 -1.25 -15.15 -3.8 -3.05 -3.65 -2.95 -3.85 -3.0 M4.6 1.6 L4.65 5.85 8.0 5.7 M1.5 5.95 L4.65 5.85 4.65 7.75 4.65 10.1 4.7 10.1 8.25 10.1 M4.65 10.1 L1.85 10.1 M4.75 12.4 L4.8 14.7 M4.8 14.85 L12.45 14.85 M4.8 14.85 L4.85 18.6 M4.75 12.4 L4.65 10.1 M-10.5 -15.15 L-14.85 -15.15 -14.85 14.85 -8.0 14.85 Q-6.8 10.15 -3.45 6.7 M-3.9 -2.8 L-3.65 -2.95 M-6.9 -5.25 L-9.15 -6.8 -10.5 -15.15 -1.25 -15.15 M-8.0 14.85 L-8.4 16.6 M-8.0 14.85 L-0.15 14.85 4.8 14.85" fill="none" stroke="#000000" stroke-linecap="round" stroke-linejoin="round" stroke-width="1.0"/>
  </g>
  <defs>
    <linearGradient gradientTransform="matrix(0.0051, 0.0, 0.0, 0.0075, 0.3, -9.0)" gradientUnits="userSpaceOnUse" id="gradient0" spreadMethod="pad" x1="-819.2" x2="819.2">
      <stop offset="0.0" stop-color="#21201b"/>
      <stop offset="1.0" stop-color="#20263e"/>
    </linearGradient>
    <linearGradient gradientTransform="matrix(-9.0E-4, -0.0078, 0.0057, -6.0E-4, 0.2, -8.85)" gradientUnits="userSpaceOnUse" id="gradient1" spreadMethod="pad" x1="-819.2" x2="819.2">
      <stop offset="0.0" stop-color="#21201b"/>
      <stop offset="1.0" stop-color="#20263e"/>
    </linearGradient>
    <linearGradient gradientTransform="matrix(1.0E-4, -0.0076, 0.005, 0.0, 8.25, -9.0)" gradientUnits="userSpaceOnUse" id="gradient2" spreadMethod="pad" x1="-819.2" x2="819.2">
      <stop offset="0.0" stop-color="#171613"/>
      <stop offset="1.0" stop-color="#141827"/>
    </linearGradient>
    <linearGradient gradientTransform="matrix(-1.0E-4, -0.0074, 0.0027, 0.0, 12.65, -9.05)" gradientUnits="userSpaceOnUse" id="gradient3" spreadMethod="pad" x1="-819.2" x2="819.2">
      <stop offset="0.0" stop-color="#171613"/>
      <stop offset="1.0" stop-color="#141827"/>
    </linearGradient>
    <linearGradient gradientTransform="matrix(-2.0E-4, -0.0075, 0.0056, -1.0E-4, -5.75, -9.15)" gradientUnits="userSpaceOnUse" id="gradient4" spreadMethod="pad" x1="-819.2" x2="819.2">
      <stop offset="0.0" stop-color="#2b2822"/>
      <stop offset="1.0" stop-color="#28314f"/>
    </linearGradient>
    <radialGradient cx="0" cy="0" gradientTransform="matrix(0.0172, 0.0, 0.0, 0.0172, 3.75, 14.4)" gradientUnits="userSpaceOnUse" id="gradient5" r="819.2" spreadMethod="pad">
      <stop offset="0.0" stop-color="#acac97"/>
      <stop offset="0.44313725490196076" stop-color="#4d4653"/>
      <stop offset="1.0" stop-color="#20263e"/>
    </radialGradient>
    <radialGradient cx="0" cy="0" gradientTransform="matrix(0.0255, 0.0, 0.0, 0.0255, -1.65, 2.0)" gradientUnits="userSpaceOnUse" id="gradient6" r="819.2" spreadMethod="pad">
      <stop offset="0.0" stop-color="#d7dadb"/>
      <stop offset="0.2235294117647059" stop-color="#4f545a"/>
      <stop offset="0.5568627450980392" stop-color="#29272e"/>
      <stop offset="1.0" stop-color="#000000"/>
    </radialGradient>
    <radialGradient cx="0" cy="0" gradientTransform="matrix(0.0086, 0.0, 0.0, 0.0086, -6.5, 15.9)" gradientUnits="userSpaceOnUse" id="gradient7" r="819.2" spreadMethod="pad">
      <stop offset="0.0" stop-color="#d7dadb"/>
      <stop offset="0.2235294117647059" stop-color="#4f545a"/>
      <stop offset="0.5568627450980392" stop-color="#29272e"/>
      <stop offset="1.0" stop-color="#000000"/>
    </radialGradient>
    <radialGradient cx="0" cy="0" gradientTransform="matrix(0.0172, 0.0, 0.0, 0.0172, 3.75, 14.4)" gradientUnits="userSpaceOnUse" id="gradient8" r="819.2" spreadMethod="pad">
      <stop offset="0.0" stop-color="#67676d"/>
      <stop offset="0.44313725490196076" stop-color="#443f49"/>
      <stop offset="1.0" stop-color="#0f121c"/>
    </radialGradient>
    <radialGradient cx="0" cy="0" gradientTransform="matrix(0.0169, 0.0, 0.0, 0.0169, 5.0, 14.0)" gradientUnits="userSpaceOnUse" id="gradient9" r="819.2" spreadMethod="pad">
      <stop offset="0.0" stop-color="#67676d"/>
      <stop offset="0.44313725490196076" stop-color="#443f49"/>
      <stop offset="1.0" stop-color="#0f121c"/>
    </radialGradient>
  </defs>
</svg>
