<?xml version="1.0" encoding="UTF-8" standalone="no"?>
<svg xmlns:xlink="http://www.w3.org/1999/xlink" height="23.2px" width="31.15px" xmlns="http://www.w3.org/2000/svg">
  <g transform="matrix(1.0, 0.0, 0.0, 1.0, 15.5, 7.35)">
    <path d="M7.45 -6.7 L8.65 -6.85 7.5 -6.3 7.45 -6.7 M-7.45 -6.4 L-6.1 -6.3 -6.1 -5.85 -7.45 -6.4" fill="url(#gradient0)" fill-rule="evenodd" stroke="none"/>
    <path d="M8.65 -6.85 L11.25 -6.0 15.15 -4.45 15.15 9.25 11.5 10.65 10.55 13.0 Q7.1 13.05 6.0 9.45 -3.7 9.55 -10.25 15.35 L-10.5 15.35 -11.85 9.6 -15.0 8.0 -15.0 -3.5 Q-12.65 -4.7 -10.35 -5.85 -8.2 -6.75 -7.45 -6.4 L-6.1 -5.85 -4.65 -4.6 Q-3.45 -3.75 -2.2 -3.3 L1.0 -3.05 Q2.6 -3.25 4.3 -4.15 L7.15 -6.15 7.5 -6.3 8.65 -6.85 M6.8 8.85 L6.8 5.6 -5.45 5.6 -5.45 8.85 6.8 8.85" fill="url(#gradient1)" fill-rule="evenodd" stroke="none"/>
    <path d="M7.1 -6.65 L7.45 -6.7 7.5 -6.3 7.15 -6.15 7.1 -6.65 M-6.1 -6.3 L-4.45 -6.2 -4.45 -5.3 -6.1 -5.85 -6.1 -6.3" fill="url(#gradient2)" fill-rule="evenodd" stroke="none"/>
    <path d="M10.55 13.0 L11.05 15.35 -10.25 15.35 Q-3.7 9.55 6.0 9.45 7.1 13.05 10.55 13.0" fill="url(#gradient3)" fill-rule="evenodd" stroke="none"/>
    <path d="M-4.45 -6.2 L7.1 -6.65 7.15 -6.15 Q5.35 -5.4 3.65 -5.0 L0.75 -4.65 -1.95 -4.75 -4.45 -5.3 -4.45 -6.2" fill="url(#gradient4)" fill-rule="evenodd" stroke="none"/>
    <path d="M-4.45 -5.3 L-1.95 -4.75 0.75 -4.65 3.65 -5.0 Q5.35 -5.4 7.15 -6.15 L4.3 -4.15 Q2.6 -3.25 1.0 -3.05 L-2.2 -3.3 Q-3.45 -3.75 -4.65 -4.6 L-6.1 -5.85 -4.45 -5.3 -4.65 -4.6 -4.45 -5.3 M4.3 -4.15 L3.65 -5.0 4.3 -4.15 M0.75 -4.65 L1.0 -3.05 0.75 -4.65 M-1.95 -4.75 L-2.2 -3.3 -1.95 -4.75" fill="url(#gradient5)" fill-rule="evenodd" stroke="none"/>
    <path d="M6.8 8.85 L-5.45 8.85 -5.45 5.6 6.8 5.6 6.8 8.85" fill="#ffffff" fill-rule="evenodd" stroke="none"/>
    <path d="M7.1 -6.65 L7.45 -6.7 8.65 -6.85 11.25 -6.0 15.15 -4.45 M15.15 9.25 L11.5 10.65 10.55 13.0 11.05 15.35 M-10.5 15.35 L-11.85 9.6 -15.0 8.0 M-15.0 -3.5 Q-12.65 -4.7 -10.35 -5.85 -8.2 -6.75 -7.45 -6.4 L-6.1 -6.3 -4.45 -6.2 7.1 -6.65 M7.15 -6.15 L7.5 -6.3 8.65 -6.85 M-4.45 -5.3 L-1.95 -4.75 0.75 -4.65 3.65 -5.0 Q5.35 -5.4 7.15 -6.15 L4.3 -4.15 Q2.6 -3.25 1.0 -3.05 L-2.2 -3.3 Q-3.45 -3.75 -4.65 -4.6 L-6.1 -5.85 -7.45 -6.4 M1.0 -3.05 L0.75 -4.65 M3.65 -5.0 L4.3 -4.15 M6.8 8.85 L-5.45 8.85 -5.45 5.6 6.8 5.6 6.8 8.85 M-2.2 -3.3 L-1.95 -4.75 M-4.65 -4.6 L-4.45 -5.3 -6.1 -5.85" fill="none" stroke="#000000" stroke-linecap="round" stroke-linejoin="round" stroke-width="1.0"/>
  </g>
  <defs>
    <radialGradient cx="0" cy="0" gradientTransform="matrix(0.0103, 0.0, 0.0, 0.0103, 0.3, -10.85)" gradientUnits="userSpaceOnUse" id="gradient0" r="819.2" spreadMethod="pad">
      <stop offset="0.0" stop-color="#ffffff"/>
      <stop offset="1.0" stop-color="#2b2b2b"/>
    </radialGradient>
    <radialGradient cx="0" cy="0" gradientTransform="matrix(0.0341, 0.0, 0.0, 0.0341, 8.95, -4.2)" gradientUnits="userSpaceOnUse" id="gradient1" r="819.2" spreadMethod="pad">
      <stop offset="0.0" stop-color="#fb8c1e"/>
      <stop offset="1.0" stop-color="#e86128"/>
    </radialGradient>
    <radialGradient cx="0" cy="0" gradientTransform="matrix(0.0103, 0.0, 0.0, 0.0103, 0.3, -10.85)" gradientUnits="userSpaceOnUse" id="gradient2" r="819.2" spreadMethod="pad">
      <stop offset="0.0" stop-color="#d55500"/>
      <stop offset="1.0" stop-color="#562607"/>
    </radialGradient>
    <radialGradient cx="0" cy="0" gradientTransform="matrix(0.0184, 0.0, 0.0, 0.0184, 2.25, 23.7)" gradientUnits="userSpaceOnUse" id="gradient3" r="819.2" spreadMethod="pad">
      <stop offset="0.0" stop-color="#fd751c"/>
      <stop offset="1.0" stop-color="#94430e"/>
    </radialGradient>
    <radialGradient cx="0" cy="0" gradientTransform="matrix(0.0103, 0.0, 0.0, 0.0103, 0.3, -10.85)" gradientUnits="userSpaceOnUse" id="gradient4" r="819.2" spreadMethod="pad">
      <stop offset="0.0" stop-color="#fd751c"/>
      <stop offset="1.0" stop-color="#94430e"/>
    </radialGradient>
    <radialGradient cx="0" cy="0" gradientTransform="matrix(0.0092, 0.0, 0.0, 0.0092, 0.3, -8.25)" gradientUnits="userSpaceOnUse" id="gradient5" r="819.2" spreadMethod="pad">
      <stop offset="0.0" stop-color="#fb8c1e"/>
      <stop offset="1.0" stop-color="#e86128"/>
    </radialGradient>
  </defs>
</svg>
