<?xml version="1.0" encoding="UTF-8" standalone="no"?>
<svg xmlns:xlink="http://www.w3.org/1999/xlink" height="33.25px" width="33.3px" xmlns="http://www.w3.org/2000/svg">
  <g transform="matrix(1.0, 0.0, 0.0, 1.0, 15.7, 15.9)">
    <path d="M6.1 -10.2 L5.9 -9.9 Q-5.85 -6.9 -9.4 3.45 L-11.2 -0.6 Q-8.25 -11.85 2.25 -12.4 L6.1 -10.2" fill="url(#gradient0)" fill-rule="evenodd" stroke="none"/>
    <path d="M14.55 9.0 L14.55 9.75 14.45 9.65 14.35 9.55 14.55 9.0" fill="url(#gradient1)" fill-rule="evenodd" stroke="none"/>
    <path d="M13.1 -6.25 Q13.85 -5.85 14.55 -5.4 L14.55 7.95 14.3 7.25 13.7 6.8 Q13.35 6.8 13.05 7.25 12.8 7.75 12.8 8.45 L12.8 8.6 11.3 8.35 Q9.45 8.35 8.1 9.65 6.8 11.0 6.8 12.85 6.8 13.95 7.25 14.85 L-4.05 14.85 -5.85 11.0 Q0.7 -0.6 13.1 -6.25 M11.85 4.95 Q11.85 4.05 11.3 3.4 10.75 2.8 9.95 2.8 9.15 2.8 8.6 3.4 8.05 4.05 8.05 4.95 8.05 5.85 8.6 6.45 9.15 7.1 9.95 7.1 10.75 7.1 11.3 6.45 11.85 5.85 11.85 4.95 M0.55 9.85 Q1.05 9.85 1.4 9.45 1.8 9.05 1.8 8.45 1.8 7.85 1.4 7.45 1.05 7.05 0.55 7.05 0.05 7.05 -0.35 7.45 -0.7 7.85 -0.7 8.45 -0.7 9.05 -0.35 9.45 0.05 9.85 0.55 9.85" fill="url(#gradient2)" fill-rule="evenodd" stroke="none"/>
    <path d="M7.25 14.85 Q6.8 13.95 6.8 12.85 6.8 11.0 8.1 9.65 9.45 8.35 11.3 8.35 L12.8 8.6 12.8 8.45 Q12.8 7.75 13.05 7.25 13.35 6.8 13.7 6.8 L14.3 7.25 14.55 7.95 14.6 8.45 14.55 9.0 14.35 9.55 14.45 9.65 14.55 9.75 Q15.8 11.05 15.8 12.85 15.8 14.7 14.45 16.0 13.15 17.35 11.3 17.35 9.45 17.35 8.1 16.0 L7.25 14.85 M11.85 4.95 Q11.85 5.85 11.3 6.45 10.75 7.1 9.95 7.1 9.15 7.1 8.6 6.45 8.05 5.85 8.05 4.95 8.05 4.05 8.6 3.4 9.15 2.8 9.95 2.8 10.75 2.8 11.3 3.4 11.85 4.05 11.85 4.95 M0.55 9.85 Q0.05 9.85 -0.35 9.45 -0.7 9.05 -0.7 8.45 -0.7 7.85 -0.35 7.45 0.05 7.05 0.55 7.05 1.05 7.05 1.4 7.45 1.8 7.85 1.8 8.45 1.8 9.05 1.4 9.45 1.05 9.85 0.55 9.85" fill="url(#gradient3)" fill-rule="evenodd" stroke="none"/>
    <path d="M13.1 -6.25 Q0.7 -0.6 -5.85 11.0 L-9.4 3.45 Q-5.85 -6.9 5.9 -9.9 L6.1 -10.2 13.1 -6.25" fill="url(#gradient4)" fill-rule="evenodd" stroke="none"/>
    <path d="M14.55 7.95 L14.55 -5.4 Q13.85 -5.85 13.1 -6.25 L6.1 -10.2 2.25 -12.4 Q-8.25 -11.85 -11.2 -0.6 L-9.4 3.45 -5.85 11.0 -4.05 14.85 7.25 14.85 M14.55 9.0 L14.55 9.75 M5.9 -9.9 Q-5.85 -6.9 -9.4 3.45 M-3.25 16.6 L-4.05 14.85 -15.2 14.85 -15.2 -15.4 14.55 -15.4 14.55 -5.4 17.1 -4.0" fill="none" stroke="#000000" stroke-linecap="round" stroke-linejoin="round" stroke-width="1.0"/>
  </g>
  <defs>
    <linearGradient gradientTransform="matrix(0.0095, -0.0083, 0.003, 0.0034, -4.1, -6.15)" gradientUnits="userSpaceOnUse" id="gradient0" spreadMethod="pad" x1="-819.2" x2="819.2">
      <stop offset="0.0" stop-color="#91725e"/>
      <stop offset="1.0" stop-color="#4f4839"/>
    </linearGradient>
    <radialGradient cx="0" cy="0" gradientTransform="matrix(-0.0104, 0.0095, -0.0132, -0.0144, 8.0, 7.75)" gradientUnits="userSpaceOnUse" id="gradient1" r="819.2" spreadMethod="pad">
      <stop offset="0.0" stop-color="#bbcc22"/>
      <stop offset="0.37254901960784315" stop-color="#6dac42"/>
      <stop offset="0.788235294117647" stop-color="#39621e"/>
      <stop offset="1.0" stop-color="#202417"/>
    </radialGradient>
    <radialGradient cx="0" cy="0" gradientTransform="matrix(-0.0104, 0.0095, -0.0132, -0.0144, 8.0, 7.75)" gradientUnits="userSpaceOnUse" id="gradient2" r="819.2" spreadMethod="pad">
      <stop offset="0.0" stop-color="#91f84b"/>
      <stop offset="0.37254901960784315" stop-color="#67c727"/>
      <stop offset="0.788235294117647" stop-color="#39621e"/>
      <stop offset="1.0" stop-color="#202417"/>
    </radialGradient>
    <linearGradient gradientTransform="matrix(-0.0062, -0.0076, 0.0061, -0.0049, 8.75, 10.45)" gradientUnits="userSpaceOnUse" id="gradient3" spreadMethod="pad" x1="-819.2" x2="819.2">
      <stop offset="0.0" stop-color="#ffffff"/>
      <stop offset="1.0" stop-color="#67c727"/>
    </linearGradient>
    <linearGradient gradientTransform="matrix(0.0119, -0.0101, 0.0043, 0.0051, 0.35, -1.45)" gradientUnits="userSpaceOnUse" id="gradient4" spreadMethod="pad" x1="-819.2" x2="819.2">
      <stop offset="0.0" stop-color="#000000"/>
      <stop offset="0.25098039215686274" stop-color="#000000" stop-opacity="0.0"/>
      <stop offset="0.7725490196078432" stop-color="#000000" stop-opacity="0.0"/>
      <stop offset="1.0" stop-color="#000000"/>
    </linearGradient>
  </defs>
</svg>
