<?xml version="1.0" encoding="UTF-8" standalone="no"?>
<svg xmlns:xlink="http://www.w3.org/1999/xlink" height="53.0px" width="36.75px" xmlns="http://www.w3.org/2000/svg">
  <g transform="matrix(1.0, 0.0, 0.0, 1.0, 17.8, 17.85)">
    <path d="M4.4 -13.1 L3.55 -12.5 4.4 -13.1 4.65 -13.1 Q9.15 -11.95 9.95 -9.1 L7.85 -7.65 7.5 -6.95 7.75 -4.2 7.3 -3.3 7.1 -2.95 6.6 -1.8 6.55 -1.6 4.95 5.05 5.0 5.05 Q6.0 7.7 5.7 10.05 L-4.7 8.75 5.7 10.05 5.8 10.05 5.95 13.05 2.15 16.45 -5.0 12.6 -4.7 8.75 -5.1 4.45 -4.95 4.45 -4.95 4.4 Q-4.6 -0.75 -5.85 -4.35 L-6.15 -5.6 -5.85 -4.35 -6.4 -5.55 -6.15 -5.6 -6.2 -5.7 -6.25 -5.7 -9.9 -7.8 Q-9.9 -11.6 -5.2 -13.65 L-1.95 -14.05 -1.75 -14.1 -0.05 -16.4 4.4 -13.1 M7.4 -7.8 L7.5 -6.95 7.4 -7.8" fill="url(#gradient0)" fill-rule="evenodd" stroke="none"/>
    <path d="M3.55 -12.5 L4.4 -13.1 -0.05 -16.4 -1.75 -14.1 -1.95 -14.05 -5.2 -13.65 Q-9.9 -11.6 -9.9 -7.8 M-6.25 -5.7 L-6.2 -5.7 -6.15 -5.6 -5.85 -4.35 Q-4.6 -0.75 -4.95 4.4 L-4.95 4.45 -5.1 4.4 -5.1 4.45 -4.7 8.75 5.7 10.05 Q6.0 7.7 5.0 5.05 L4.95 5.05 6.55 -1.6 M6.6 -1.8 L7.1 -2.95 7.3 -3.3 7.75 -4.2 7.5 -6.95 7.4 -7.8 M4.65 -13.1 Q9.15 -11.95 9.95 -9.1 M7.85 -7.65 L7.5 -6.95 M-5.0 12.6 L-4.7 8.75 M5.7 10.05 L5.8 10.05 5.95 13.05" fill="none" stroke="#000000" stroke-linecap="round" stroke-linejoin="round" stroke-width="0.05"/>
    <path d="M17.5 -4.85 Q18.05 -3.75 18.95 -3.15 L15.45 2.75 Q11.45 -4.65 6.7 -8.45 L7.75 -10.25 Q11.55 -6.6 14.85 -0.5 L17.5 -4.85" fill="url(#gradient1)" fill-rule="evenodd" stroke="none"/>
    <path d="M7.2 -13.5 L5.55 -14.95 9.4 -17.85 Q13.45 -12.0 18.0 -9.9 L16.9 -8.1 14.25 -3.75 Q11.0 -9.85 7.2 -13.5" fill="url(#gradient2)" fill-rule="evenodd" stroke="none"/>
    <path d="M7.2 -13.5 Q11.0 -9.85 14.25 -3.75 L16.9 -8.1 Q17.5 -7.0 18.45 -6.45 L17.5 -4.85 14.85 -0.5 Q11.55 -6.6 7.75 -10.25 L6.1 -11.7 7.2 -13.5" fill="url(#gradient3)" fill-rule="evenodd" stroke="none"/>
    <path d="M16.9 -8.1 L18.0 -9.9 Q13.45 -12.0 9.4 -17.85 L5.55 -14.95 7.2 -13.5 6.1 -11.7 7.75 -10.25 6.7 -8.45 Q11.45 -4.65 15.45 2.75 L18.95 -3.15 Q18.05 -3.75 17.5 -4.85 L18.45 -6.45 Q17.5 -7.0 16.9 -8.1 Z" fill="none" stroke="#000000" stroke-linecap="round" stroke-linejoin="round" stroke-width="0.05"/>
    <path d="M5.85 12.0 L-5.1 12.0 -5.1 9.15 5.85 9.15 5.85 12.0" fill="url(#gradient4)" fill-rule="evenodd" stroke="none"/>
    <path d="M5.85 12.0 L-5.1 12.0 -5.1 9.15 5.85 9.15 5.85 12.0 Z" fill="none" stroke="#000000" stroke-linecap="round" stroke-linejoin="round" stroke-width="0.05"/>
    <path d="M-3.55 -10.45 L6.1 -10.85 6.1 -13.2 7.85 -13.2 7.85 -11.0 10.5 -11.45 10.45 -6.9 Q1.05 -5.45 -9.9 -6.85 L-12.35 -10.6 -6.0 -10.45 -6.0 -13.45 -3.55 -13.45 -3.55 -10.45 M10.1 -3.35 L9.45 -0.25 Q2.5 1.45 -7.45 -0.75 L-8.5 -3.8 Q1.9 -1.85 10.1 -3.35 M8.05 3.25 L6.3 5.85 Q-0.65 6.85 -6.25 4.8 L-6.65 2.45 Q1.7 4.2 8.05 3.25" fill="url(#gradient5)" fill-rule="evenodd" stroke="none"/>
    <path d="M10.45 -6.9 L10.1 -3.35 Q1.9 -1.85 -8.5 -3.8 L-9.9 -6.85 Q1.05 -5.45 10.45 -6.9 M9.45 -0.25 Q8.85 1.7 8.05 3.25 1.7 4.2 -6.65 2.45 L-7.45 -0.75 Q2.5 1.45 9.45 -0.25" fill="url(#gradient6)" fill-rule="evenodd" stroke="none"/>
    <path d="M-6.0 -10.45 L-6.0 -13.45 -3.55 -13.45 -3.55 -10.45" fill="none" stroke="#000000" stroke-linecap="round" stroke-linejoin="round" stroke-width="0.05"/>
    <path d="M-3.55 -10.45 L6.1 -10.85 6.1 -13.2 7.85 -13.2 7.85 -11.0 10.5 -11.45 10.45 -6.9 10.1 -3.35 9.45 -0.25 Q8.85 1.7 8.05 3.25 L6.3 5.85 Q-0.65 6.85 -6.25 4.8 L-6.65 2.45 -7.45 -0.75 -8.5 -3.8 -9.9 -6.85 -12.35 -10.6 -6.0 -10.45" fill="none" stroke="#000000" stroke-linecap="round" stroke-linejoin="round" stroke-width="0.05"/>
    <path d="M-2.8 23.35 Q-8.25 21.55 -10.4 18.6 -7.0 14.25 -4.65 9.0 L-4.45 9.15 -0.5 9.4 -2.8 23.35 M-12.2 20.75 Q-9.35 25.1 -3.4 27.0 L-4.15 31.5 Q-12.15 29.1 -15.25 23.8 L-12.2 20.75" fill="url(#gradient7)" fill-rule="evenodd" stroke="none"/>
    <path d="M-10.4 18.6 Q-8.25 21.55 -2.8 23.35 L-3.4 27.0 Q-9.35 25.1 -12.2 20.75 L-10.4 18.6" fill="url(#gradient8)" fill-rule="evenodd" stroke="none"/>
    <path d="M-4.15 31.5 L-4.65 34.4 Q-13.7 31.95 -17.8 25.95 L-15.25 23.8 Q-12.15 29.1 -4.15 31.5" fill="url(#gradient9)" fill-rule="evenodd" stroke="none"/>
    <path d="M2.35 9.25 L5.9 9.25 9.15 32.35 Q5.0 31.6 0.8 35.15 L2.35 9.25" fill="url(#gradient10)" fill-rule="evenodd" stroke="none"/>
    <path d="M2.35 9.25 L5.9 9.25 9.15 32.35 Q5.0 31.6 0.8 35.15 L2.35 9.25" fill="none" stroke="#000000" stroke-linecap="round" stroke-linejoin="round" stroke-width="0.05"/>
    <path d="M-10.4 18.6 L-12.2 20.75 -15.25 23.8 -17.8 25.95 Q-13.7 31.95 -4.65 34.4 L-4.15 31.5 -3.4 27.0 -2.8 23.35 -0.5 9.4 -4.45 9.15 M-4.65 9.0 Q-7.0 14.25 -10.4 18.6" fill="none" stroke="#000000" stroke-linecap="round" stroke-linejoin="round" stroke-width="0.05"/>
  </g>
  <defs>
    <linearGradient gradientTransform="matrix(0.012, -0.0019, 0.0031, 0.0198, 1.4, 0.0)" gradientUnits="userSpaceOnUse" id="gradient0" spreadMethod="pad" x1="-819.2" x2="819.2">
      <stop offset="0.0" stop-color="#efece4"/>
      <stop offset="0.41568627450980394" stop-color="#8d662e"/>
      <stop offset="0.4666666666666667" stop-color="#422c0b"/>
      <stop offset="0.7294117647058823" stop-color="#bf8837"/>
      <stop offset="1.0" stop-color="#cba670"/>
    </linearGradient>
    <radialGradient cx="0" cy="0" gradientTransform="matrix(-0.0124, 0.0032, 0.0058, 0.0228, 13.2, 10.45)" gradientUnits="userSpaceOnUse" id="gradient1" r="819.2" spreadMethod="pad">
      <stop offset="0.0" stop-color="#404040"/>
      <stop offset="1.0" stop-color="#000000"/>
    </radialGradient>
    <radialGradient cx="0" cy="0" gradientTransform="matrix(-0.0084, 0.0021, 0.0039, 0.0153, 12.7, -15.35)" gradientUnits="userSpaceOnUse" id="gradient2" r="819.2" spreadMethod="pad">
      <stop offset="0.0" stop-color="#382d39"/>
      <stop offset="0.6941176470588235" stop-color="#111012"/>
      <stop offset="0.9803921568627451" stop-color="#120e14"/>
    </radialGradient>
    <radialGradient cx="0" cy="0" gradientTransform="matrix(0.0173, -0.0044, 0.0044, 0.0173, 7.2, -13.05)" gradientUnits="userSpaceOnUse" id="gradient3" r="819.2" spreadMethod="pad">
      <stop offset="0.0" stop-color="#9b8c53"/>
      <stop offset="0.6588235294117647" stop-color="#51352f"/>
      <stop offset="1.0" stop-color="#202835"/>
    </radialGradient>
    <radialGradient cx="0" cy="0" gradientTransform="matrix(0.0081, 0.0, 0.0, 0.0081, -5.25, 10.5)" gradientUnits="userSpaceOnUse" id="gradient4" r="819.2" spreadMethod="pad">
      <stop offset="0.0" stop-color="#402e26"/>
      <stop offset="0.6941176470588235" stop-color="#13110f"/>
      <stop offset="0.9803921568627451" stop-color="#130f0f"/>
    </radialGradient>
    <radialGradient cx="0" cy="0" gradientTransform="matrix(0.0214, 0.0, 0.0, 0.0214, 4.8, -7.05)" gradientUnits="userSpaceOnUse" id="gradient5" r="819.2" spreadMethod="pad">
      <stop offset="0.0" stop-color="#382d39"/>
      <stop offset="0.6941176470588235" stop-color="#111012"/>
      <stop offset="0.9803921568627451" stop-color="#120e14"/>
    </radialGradient>
    <radialGradient cx="0" cy="0" gradientTransform="matrix(0.0214, 0.0, 0.0, 0.0214, 4.8, -7.05)" gradientUnits="userSpaceOnUse" id="gradient6" r="819.2" spreadMethod="pad">
      <stop offset="0.0" stop-color="#9b8c53"/>
      <stop offset="0.6588235294117647" stop-color="#51352f"/>
      <stop offset="1.0" stop-color="#202835"/>
    </radialGradient>
    <radialGradient cx="0" cy="0" gradientTransform="matrix(0.0198, 0.0, 0.0, 0.0198, -2.45, 19.95)" gradientUnits="userSpaceOnUse" id="gradient7" r="819.2" spreadMethod="pad">
      <stop offset="0.0" stop-color="#402e26"/>
      <stop offset="0.6941176470588235" stop-color="#13110f"/>
      <stop offset="0.9803921568627451" stop-color="#130f0f"/>
    </radialGradient>
    <radialGradient cx="0" cy="0" gradientTransform="matrix(0.0078, 0.0, 0.0, 0.0078, -7.9, 22.5)" gradientUnits="userSpaceOnUse" id="gradient8" r="819.2" spreadMethod="pad">
      <stop offset="0.0" stop-color="#9b8c53"/>
      <stop offset="0.6588235294117647" stop-color="#51352f"/>
      <stop offset="1.0" stop-color="#202835"/>
    </radialGradient>
    <radialGradient cx="0" cy="0" gradientTransform="matrix(0.011, 0.0, 0.0, 0.011, -11.5, 28.65)" gradientUnits="userSpaceOnUse" id="gradient9" r="819.2" spreadMethod="pad">
      <stop offset="0.0" stop-color="#9b8c53"/>
      <stop offset="0.6588235294117647" stop-color="#51352f"/>
      <stop offset="1.0" stop-color="#202835"/>
    </radialGradient>
    <radialGradient cx="0" cy="0" gradientTransform="matrix(0.0276, 0.0, 0.0, 0.0276, 5.25, 13.0)" gradientUnits="userSpaceOnUse" id="gradient10" r="819.2" spreadMethod="pad">
      <stop offset="0.0" stop-color="#6b1d1d"/>
      <stop offset="1.0" stop-color="#281313"/>
    </radialGradient>
  </defs>
</svg>
