<?xml version="1.0" encoding="UTF-8" standalone="no"?>
<svg xmlns:xlink="http://www.w3.org/1999/xlink" height="75.55px" width="31.9px" xmlns="http://www.w3.org/2000/svg">
  <g transform="matrix(1.0, 0.0, 0.0, 1.0, 15.7, 17.95)">
    <path d="M0.2 -13.15 L0.25 -13.35 4.3 -10.6 5.9 -11.15 4.35 -10.4 2.75 -11.5 0.2 -13.15 -0.6 -12.0 -2.05 -12.4 -1.95 -12.45 -0.6 -12.0 0.15 -13.2 0.2 -13.15 M4.5 -0.4 L4.5 -0.45 4.5 -0.65 4.6 -0.65 4.5 -0.45 4.6 -0.65 4.5 -0.4" fill="#8776cd" fill-rule="evenodd" stroke="none"/>
    <path d="M0.25 -13.35 L0.2 -13.15 0.15 -13.2 0.25 -13.35" fill="url(#gradient0)" fill-rule="evenodd" stroke="none"/>
    <path d="M-5.85 -14.55 L-3.5 -17.2 Q0.9 -18.15 4.5 -16.45 L6.15 -14.65 7.75 -12.8 6.65 -12.45 6.4 -12.4 6.4 -11.45 6.45 -11.4 5.9 -11.15 4.3 -10.6 0.25 -13.35 0.15 -13.2 -0.6 -12.0 -1.95 -12.45 -4.6 -13.35 -7.2 -13.15 -5.85 -14.55" fill="url(#gradient1)" fill-rule="evenodd" stroke="none"/>
    <path d="M13.4 -8.95 L14.45 -6.8 11.85 -2.65 11.45 -3.95 Q10.05 -8.45 7.35 -11.75 L6.65 -12.45 7.75 -12.8 8.75 -12.8 Q10.2 -12.7 11.4 -11.6 12.5 -10.65 13.4 -8.95" fill="url(#gradient2)" fill-rule="evenodd" stroke="none"/>
    <path d="M9.8 -1.9 L9.15 -0.65 8.7 0.75 8.4 0.85 7.8 3.6 Q4.85 1.6 1.25 3.6 L1.2 3.5 0.65 0.6 0.45 0.55 Q-3.85 -3.75 -10.05 -2.85 L-11.4 -2.6 -11.35 -3.55 -13.1 -6.0 -12.75 -7.8 -12.7 -8.0 Q-12.15 -9.9 -10.95 -11.15 L-10.65 -11.45 -8.75 -12.6 -7.2 -13.15 -4.6 -13.35 -1.95 -12.45 -2.05 -12.4 0.85 -1.35 4.5 -0.4 4.6 -0.65 7.55 -1.85 5.9 -11.15 6.45 -11.4 Q8.5 -6.75 9.25 -2.0 L9.8 -1.9" fill="url(#gradient3)" fill-rule="evenodd" stroke="none"/>
    <path d="M2.75 -11.5 L4.35 -10.4 5.9 -11.15 7.55 -1.85 4.6 -0.65 4.5 -0.65 2.75 -11.5" fill="url(#gradient4)" fill-rule="evenodd" stroke="none"/>
    <path d="M0.2 -13.15 L2.75 -11.5 4.5 -0.65 4.5 -0.45 4.5 -0.4 0.85 -1.35 -2.05 -12.4 -0.6 -12.0 0.2 -13.15" fill="url(#gradient5)" fill-rule="evenodd" stroke="none"/>
    <path d="M9.15 -0.65 L9.45 1.2 7.45 5.6 7.8 3.6 8.4 0.85 8.7 0.75 9.15 -0.65" fill="url(#gradient6)" fill-rule="evenodd" stroke="none"/>
    <path d="M-4.8 15.4 L-5.45 11.7 Q-5.15 5.8 -6.6 -0.7 L-10.05 -2.85 Q-3.85 -3.75 0.45 0.55 L0.65 0.6 1.2 3.5 1.15 3.55 Q-2.85 6.9 -2.25 15.85 L-4.8 15.4" fill="url(#gradient7)" fill-rule="evenodd" stroke="none"/>
    <path d="M6.15 11.25 Q7.05 13.0 6.85 14.8 L1.3 14.3 0.95 16.4 -2.25 15.85 Q-2.85 6.9 1.15 3.55 L1.25 3.6 Q1.75 7.45 1.65 10.8 L6.15 11.25" fill="url(#gradient8)" fill-rule="evenodd" stroke="none"/>
    <path d="M6.85 14.8 L6.85 15.95 7.55 16.7 7.75 20.55 7.2 21.05 Q9.75 36.15 16.2 49.75 L2.6 57.6 Q-0.7 44.55 -1.15 31.0 L-1.3 24.85 -1.2 22.4 -5.65 19.55 -5.25 17.6 -4.85 15.4 -4.8 15.4 -2.25 15.85 0.95 16.4 1.3 14.3 6.85 14.8 M7.4 26.85 L6.8 27.45 6.45 24.7 5.65 17.85 5.65 17.8 5.4 15.65 5.65 17.8 5.65 17.85 6.45 24.7 6.8 27.45 7.4 26.85 M9.0 42.75 L4.5 55.55 9.0 42.75 1.05 37.75 -0.15 34.15 6.8 27.45 -0.15 34.15 1.05 37.75 9.0 42.75 10.7 37.75 9.0 42.75 M-1.3 24.85 L1.35 24.8 6.45 24.7 1.35 24.8 -1.3 24.85 M-1.15 31.0 L-0.15 34.15 -1.15 31.0 M-3.35 19.2 L-5.25 17.6 -3.35 19.2 -2.45 17.15 -2.2 17.2 5.65 17.8 -2.2 17.2 -2.45 17.15 -3.35 19.2 1.35 24.8 -3.35 19.2 M-3.05 17.1 L-2.45 17.15 -3.05 17.1 M1.05 37.75 L-0.05 37.05 1.05 37.75" fill="url(#gradient9)" fill-rule="evenodd" stroke="none"/>
    <path d="M7.45 5.6 Q7.05 8.45 6.95 11.3 L6.15 11.25 1.65 10.8 Q1.75 7.45 1.25 3.6 4.85 1.6 7.8 3.6 L7.45 5.6" fill="#29241b" fill-rule="evenodd" stroke="none"/>
    <path d="M11.4 -11.6 L14.05 -14.2 15.5 -12.45 13.4 -8.95 14.45 -6.8 11.85 -2.65 11.05 -1.7 9.8 -1.9 9.15 -0.65 9.45 1.2 7.45 5.6 Q7.05 8.45 6.95 11.3 L6.15 11.25 Q7.05 13.0 6.85 14.8 L6.85 15.95 7.55 16.7 7.75 20.55 7.2 21.05 Q9.75 36.15 16.2 49.75 L2.6 57.6 Q-0.7 44.55 -1.15 31.0 L-1.3 24.85 -1.2 22.4 -5.65 19.55 -5.25 17.6 -4.85 15.4 -4.8 15.4 -5.45 11.7 Q-5.15 5.8 -6.6 -0.7 L-10.05 -2.85 -11.4 -2.6 -11.35 -3.55 -13.1 -6.0 -12.75 -7.8 -12.7 -8.0 -15.7 -10.75 -14.55 -13.15 -10.95 -11.15 -10.65 -11.45 -8.75 -12.6 -10.25 -17.3 -8.75 -17.95 -5.85 -14.55 -3.5 -17.2 Q0.9 -18.15 4.5 -16.45 L6.15 -14.65 8.0 -17.4 9.4 -17.0 8.75 -12.8 Q10.2 -12.7 11.4 -11.6 12.5 -10.65 13.4 -8.95 M0.25 -13.35 L0.2 -13.15 2.75 -11.5 4.35 -10.4 5.9 -11.15 4.3 -10.6 0.25 -13.35 M0.15 -13.2 L0.2 -13.15 -0.6 -12.0 -2.05 -12.4 0.85 -1.35 4.5 -0.4 4.5 -0.45 4.5 -0.65 2.75 -11.5 M7.75 -12.8 L8.75 -12.8 M7.75 -12.8 L6.15 -14.65 M6.45 -11.4 L6.4 -11.45 6.4 -12.4 6.65 -12.45 7.75 -12.8 M5.9 -11.15 L6.45 -11.4 Q8.5 -6.75 9.25 -2.0 L9.8 -1.9 M4.6 -0.65 L4.5 -0.45 M4.5 -0.4 L4.6 -0.65 7.55 -1.85 5.9 -11.15 M4.5 -0.65 L4.6 -0.65 M6.65 -12.45 L7.35 -11.75 Q10.05 -8.45 11.45 -3.95 L11.85 -2.65 M7.8 3.6 L8.4 0.85 8.7 0.75 9.15 -0.65 M7.45 5.6 L7.8 3.6 M1.25 3.6 Q1.75 7.45 1.65 10.8 L6.15 11.25 M1.2 3.5 L0.65 0.6 0.45 0.55 Q-3.85 -3.75 -10.05 -2.85 M1.25 3.6 L1.2 3.5 1.15 3.55 M-2.25 15.85 L0.95 16.4 1.3 14.3 6.85 14.8 M-1.95 -12.45 L-4.6 -13.35 -7.2 -13.15 -8.75 -12.6 M-7.2 -13.15 L-5.85 -14.55 M-12.7 -8.0 Q-12.15 -9.9 -10.95 -11.15 M-0.6 -12.0 L-1.95 -12.45 M-2.25 15.85 L-4.8 15.4 M-0.6 -12.0 L0.15 -13.2" fill="none" stroke="#000000" stroke-linecap="round" stroke-linejoin="round" stroke-width="0.05"/>
    <path d="M5.4 15.65 L5.65 17.8 5.65 17.85 6.45 24.7 6.8 27.45 7.4 26.85 M6.8 27.45 L-0.15 34.15 1.05 37.75 9.0 42.75 10.7 37.75 M6.45 24.7 L1.35 24.8 -1.3 24.85 M4.5 55.55 L9.0 42.75 M5.65 17.8 L-2.2 17.2 -2.45 17.15 -3.35 19.2 1.35 24.8 M-2.45 17.15 L-3.05 17.1 M-5.25 17.6 L-3.35 19.2 M-0.15 34.15 L-1.15 31.0 M-0.05 37.05 L1.05 37.75" fill="none" stroke="#111a16" stroke-linecap="round" stroke-linejoin="round" stroke-width="0.05"/>
  </g>
  <defs>
    <radialGradient cx="0" cy="0" gradientTransform="matrix(0.0117, 0.0, 0.0, 0.0117, 2.2, -15.0)" gradientUnits="userSpaceOnUse" id="gradient0" r="819.2" spreadMethod="pad">
      <stop offset="0.0" stop-color="#372f26"/>
      <stop offset="1.0" stop-color="#160d0c"/>
    </radialGradient>
    <radialGradient cx="0" cy="0" gradientTransform="matrix(0.0117, 0.0, 0.0, 0.0117, 2.2, -15.0)" gradientUnits="userSpaceOnUse" id="gradient1" r="819.2" spreadMethod="pad">
      <stop offset="0.0" stop-color="#1e2540"/>
      <stop offset="1.0" stop-color="#0c0c16"/>
    </radialGradient>
    <radialGradient cx="0" cy="0" gradientTransform="matrix(0.0099, 0.0, 0.0, 0.0099, 12.45, -6.85)" gradientUnits="userSpaceOnUse" id="gradient2" r="819.2" spreadMethod="pad">
      <stop offset="0.0" stop-color="#efece4"/>
      <stop offset="0.41568627450980394" stop-color="#8d662e"/>
      <stop offset="0.4666666666666667" stop-color="#422c0b"/>
      <stop offset="0.7294117647058823" stop-color="#bf8837"/>
      <stop offset="1.0" stop-color="#cba670"/>
    </radialGradient>
    <radialGradient cx="0" cy="0" gradientTransform="matrix(0.0275, 0.0, 0.0, 0.0275, 6.15, 2.25)" gradientUnits="userSpaceOnUse" id="gradient3" r="819.2" spreadMethod="pad">
      <stop offset="0.0" stop-color="#efece4"/>
      <stop offset="0.41568627450980394" stop-color="#8d662e"/>
      <stop offset="0.4666666666666667" stop-color="#422c0b"/>
      <stop offset="0.7294117647058823" stop-color="#bf8837"/>
      <stop offset="1.0" stop-color="#cba670"/>
    </radialGradient>
    <linearGradient gradientTransform="matrix(-6.0E-4, -0.0067, 0.0024, -2.0E-4, 5.2, -6.15)" gradientUnits="userSpaceOnUse" id="gradient4" spreadMethod="pad" x1="-819.2" x2="819.2">
      <stop offset="0.0" stop-color="#88884d"/>
      <stop offset="0.4980392156862745" stop-color="#171c1c"/>
      <stop offset="1.0" stop-color="#140f0e"/>
    </linearGradient>
    <linearGradient gradientTransform="matrix(-6.0E-4, -0.0079, 0.0035, -2.0E-4, 1.25, -6.65)" gradientUnits="userSpaceOnUse" id="gradient5" spreadMethod="pad" x1="-819.2" x2="819.2">
      <stop offset="0.0" stop-color="#88884d"/>
      <stop offset="0.4980392156862745" stop-color="#171c1c"/>
      <stop offset="1.0" stop-color="#140f0e"/>
    </linearGradient>
    <radialGradient cx="0" cy="0" gradientTransform="matrix(0.0053, 0.0, 0.0, 0.0053, 7.85, 3.4)" gradientUnits="userSpaceOnUse" id="gradient6" r="819.2" spreadMethod="pad">
      <stop offset="0.0" stop-color="#1e2540"/>
      <stop offset="1.0" stop-color="#0c0c16"/>
    </radialGradient>
    <radialGradient cx="0" cy="0" gradientTransform="matrix(0.019, 0.0, 0.0, 0.019, -3.8, 11.4)" gradientUnits="userSpaceOnUse" id="gradient7" r="819.2" spreadMethod="pad">
      <stop offset="0.0" stop-color="#1e2540"/>
      <stop offset="1.0" stop-color="#0c0c16"/>
    </radialGradient>
    <radialGradient cx="0" cy="0" gradientTransform="matrix(0.0349, 0.0, 0.0, 0.0125, 3.95, 13.4)" gradientUnits="userSpaceOnUse" id="gradient8" r="819.2" spreadMethod="pad">
      <stop offset="0.0" stop-color="#0e131d"/>
      <stop offset="1.0" stop-color="#06060b"/>
    </radialGradient>
    <radialGradient cx="0" cy="0" gradientTransform="matrix(0.036, 0.0, 0.0, 0.036, 3.1, 28.05)" gradientUnits="userSpaceOnUse" id="gradient9" r="819.2" spreadMethod="pad">
      <stop offset="0.0" stop-color="#fbe795"/>
      <stop offset="0.4235294117647059" stop-color="#946827"/>
      <stop offset="1.0" stop-color="#3b4f67"/>
    </radialGradient>
  </defs>
</svg>
