<?xml version="1.0" encoding="UTF-8" standalone="no"?>
<svg xmlns:xlink="http://www.w3.org/1999/xlink" height="23.6px" width="22.4px" xmlns="http://www.w3.org/2000/svg">
  <g transform="matrix(1.0, 0.0, 0.0, 1.0, 11.35, 12.0)">
    <path d="M-0.5 -5.05 L-0.9 -4.1 Q-2.5 -0.35 -2.9 3.1 -6.85 1.85 -9.05 -1.35 -9.3 -4.15 -6.7 -6.95 -4.8 -5.5 -0.9 -5.05 L-0.5 -5.05" fill="url(#gradient0)" fill-rule="evenodd" stroke="none"/>
    <path d="M-10.4 0.5 L-10.85 -0.35 Q-9.9 -5.2 -7.75 -9.7 -6.65 -10.8 -4.7 -11.5 L-4.45 -11.45 -3.35 -11.5 -4.75 -10.15 -2.35 -11.5 -1.85 -11.5 -0.9 -11.5 -0.15 -11.45 -1.9 -9.75 1.0 -11.4 3.65 -11.1 1.95 -9.1 4.65 -10.95 Q7.25 -10.55 9.45 -9.75 L9.45 -5.55 Q8.05 -5.15 7.6 -4.35 5.75 -1.35 5.45 2.1 9.4 2.75 10.05 4.2 11.65 7.15 8.0 9.2 L1.1 8.85 -3.2 8.1 -5.65 6.05 Q-8.75 3.25 -10.4 0.5 M-0.5 -5.05 L-0.9 -5.05 Q-4.8 -5.5 -6.7 -6.95 -9.3 -4.15 -9.05 -1.35 -6.85 1.85 -2.9 3.1 -2.5 -0.35 -0.9 -4.1 L-0.5 -5.05" fill="url(#gradient1)" fill-rule="evenodd" stroke="none"/>
    <path d="M1.1 8.85 L-0.95 11.0 Q-7.7 11.8 -9.95 6.05 L-10.3 5.05 -10.4 0.5 Q-8.75 3.25 -5.65 6.05 L-3.2 8.1 1.1 8.85" fill="url(#gradient2)" fill-rule="evenodd" stroke="none"/>
    <path d="M-10.4 0.5 L-10.85 -0.35 Q-9.9 -5.2 -7.75 -9.7 -6.65 -10.8 -4.7 -11.5 L-4.45 -11.45 -3.35 -11.5 -4.75 -10.15 -2.35 -11.5 -1.85 -11.5 -0.9 -11.5 -0.15 -11.45 -1.9 -9.75 1.0 -11.4 3.65 -11.1 1.95 -9.1 4.65 -10.95 Q7.25 -10.55 9.45 -9.75 L9.45 -5.55 Q8.05 -5.15 7.6 -4.35 5.75 -1.35 5.45 2.1 9.4 2.75 10.05 4.2 11.65 7.15 8.0 9.2 L1.1 8.85 -0.95 11.0 Q-7.7 11.8 -9.95 6.05 L-10.3 5.05 -10.4 0.5 Q-8.75 3.25 -5.65 6.05 L-3.2 8.1 1.1 8.85 M-0.5 -5.05 L-0.9 -5.05 Q-4.8 -5.5 -6.7 -6.95 -9.3 -4.15 -9.05 -1.35 -6.85 1.85 -2.9 3.1 -2.5 -0.35 -0.9 -4.1 L-0.5 -5.05 Z" fill="none" stroke="#000000" stroke-linecap="round" stroke-linejoin="round" stroke-width="1.0"/>
  </g>
  <defs>
    <radialGradient cx="0" cy="0" fx="-76.80000000000001" fy="0" gradientTransform="matrix(0.0076, 0.0, 0.0, 0.0076, -4.5, -3.0)" gradientUnits="userSpaceOnUse" id="gradient0" r="819.2" spreadMethod="pad">
      <stop offset="0.0" stop-color="#0e0d0c"/>
      <stop offset="1.0" stop-color="#000000"/>
    </radialGradient>
    <radialGradient cx="0" cy="0" gradientTransform="matrix(0.0198, 0.0, 0.0, 0.0198, 3.45, -5.65)" gradientUnits="userSpaceOnUse" id="gradient1" r="819.2" spreadMethod="pad">
      <stop offset="0.0" stop-color="#333333"/>
      <stop offset="1.0" stop-color="#000000"/>
    </radialGradient>
    <radialGradient cx="0" cy="0" gradientTransform="matrix(0.0146, 0.0, 0.0, 0.0146, -9.85, 4.35)" gradientUnits="userSpaceOnUse" id="gradient2" r="819.2" spreadMethod="pad">
      <stop offset="0.0" stop-color="#404040"/>
      <stop offset="1.0" stop-color="#222222"/>
    </radialGradient>
  </defs>
</svg>
