<?xml version="1.0" encoding="UTF-8" standalone="no"?>
<svg xmlns:xlink="http://www.w3.org/1999/xlink" height="36.85px" width="30.95px" xmlns="http://www.w3.org/2000/svg">
  <g transform="matrix(1.0, 0.0, 0.0, 1.0, 15.6, 15.55)">
    <path d="M-12.3 14.75 L-10.8 9.55 -11.2 6.2 -11.05 5.9 -6.5 7.65 -6.2 10.45 -7.1 14.75 -12.3 14.75" fill="url(#gradient0)" fill-rule="evenodd" stroke="none"/>
    <path d="M14.45 2.25 L14.85 2.25 14.85 14.75 11.1 14.75 11.1 10.7 11.55 10.15 13.8 5.4 14.05 4.85 14.45 2.25" fill="url(#gradient1)" fill-rule="evenodd" stroke="none"/>
    <path d="M-9.7 -1.35 L-7.0 -10.6 -2.5 -13.5 3.75 -13.6 9.6 -10.2 11.8 -0.8 11.1 -0.65 9.8 0.25 1.6 1.05 -9.7 -1.35" fill="url(#gradient2)" fill-rule="evenodd" stroke="none"/>
    <path d="M12.35 1.6 L12.8 1.75 12.6 2.35 12.35 1.6" fill="url(#gradient3)" fill-rule="evenodd" stroke="none"/>
    <path d="M12.8 1.75 L14.45 2.25 14.05 4.85 13.8 5.4 11.55 10.15 11.1 10.2 1.9 10.8 -6.5 7.65 -11.05 5.9 -13.45 5.0 -13.7 4.95 -13.05 2.25 -10.7 0.1 -10.2 0.25 -10.95 2.75 1.6 6.95 10.45 6.45 12.6 2.35 12.8 1.75" fill="url(#gradient4)" fill-rule="evenodd" stroke="none"/>
    <path d="M11.8 -0.8 L12.35 1.6 12.6 2.35 10.45 6.45 1.6 6.95 -10.95 2.75 -10.2 0.25 -9.7 -1.35 1.6 1.05 9.8 0.25 11.1 -0.65 11.8 -0.8" fill="url(#gradient5)" fill-rule="evenodd" stroke="none"/>
    <path d="M11.1 10.7 L11.1 14.75 -7.1 14.75 -6.2 10.45 -6.5 7.65 1.9 10.8 11.1 10.2 11.1 10.7" fill="url(#gradient6)" fill-rule="evenodd" stroke="none"/>
    <path d="M11.8 -0.8 L12.35 1.6 12.8 1.75 14.45 2.25 14.05 4.85 M14.85 2.25 L14.85 -15.05 -15.1 -15.05 -15.1 14.75 -12.3 14.75 -10.8 9.55 -11.2 6.2 M-11.05 5.9 L-13.45 5.0 M-13.7 4.95 L-13.05 2.25 -10.7 0.1 M-10.2 0.25 L-9.7 -1.35 -7.0 -10.6 -2.5 -13.5 3.75 -13.6 9.6 -10.2 11.8 -0.8 M12.6 2.35 L10.45 6.45 1.6 6.95 -10.95 2.75 -10.2 0.25 M13.8 5.4 L11.55 10.15 11.1 10.2 1.9 10.8 -6.5 7.65 -6.2 10.45 -7.1 14.75 11.1 14.75 14.85 14.75 14.85 2.25 M11.1 10.7 L11.1 14.75 11.1 15.2 12.05 20.2 M-12.3 14.75 L-14.1 20.8 M-7.1 14.75 L-8.3 20.1 M-6.5 7.65 L-11.05 5.9 M-12.3 14.75 L-7.1 14.75" fill="none" stroke="#000000" stroke-linecap="round" stroke-linejoin="round" stroke-width="1.0"/>
  </g>
  <defs>
    <radialGradient cx="0" cy="0" gradientTransform="matrix(0.0088, 0.0, 0.0, 0.0088, -10.0, 13.0)" gradientUnits="userSpaceOnUse" id="gradient0" r="819.2" spreadMethod="pad">
      <stop offset="0.0" stop-color="#302925"/>
      <stop offset="1.0" stop-color="#0d0e0c"/>
    </radialGradient>
    <radialGradient cx="0" cy="0" gradientTransform="matrix(0.0129, 0.0, 0.0, 0.0129, 12.6, 12.55)" gradientUnits="userSpaceOnUse" id="gradient1" r="819.2" spreadMethod="pad">
      <stop offset="0.0" stop-color="#302925"/>
      <stop offset="1.0" stop-color="#0d0e0c"/>
    </radialGradient>
    <radialGradient cx="0" cy="0" gradientTransform="matrix(0.0204, 0.0, 0.0, 0.0204, 3.25, -12.0)" gradientUnits="userSpaceOnUse" id="gradient2" r="819.2" spreadMethod="pad">
      <stop offset="0.0" stop-color="#44453a"/>
      <stop offset="0.6196078431372549" stop-color="#1a1c17"/>
      <stop offset="1.0" stop-color="#302e25"/>
    </radialGradient>
    <radialGradient cx="0" cy="0" gradientTransform="matrix(0.0198, 0.0, 0.0, 0.0198, 5.25, 2.25)" gradientUnits="userSpaceOnUse" id="gradient3" r="819.2" spreadMethod="pad">
      <stop offset="0.0" stop-color="#44453a"/>
      <stop offset="0.6196078431372549" stop-color="#1a1c17"/>
      <stop offset="1.0" stop-color="#302e25"/>
    </radialGradient>
    <radialGradient cx="0" cy="0" gradientTransform="matrix(0.0273, 0.0, 0.0, 0.0273, 8.5, 8.05)" gradientUnits="userSpaceOnUse" id="gradient4" r="819.2" spreadMethod="pad">
      <stop offset="0.0" stop-color="#44453a"/>
      <stop offset="0.6196078431372549" stop-color="#1a1c17"/>
      <stop offset="1.0" stop-color="#302e25"/>
    </radialGradient>
    <radialGradient cx="0" cy="0" gradientTransform="matrix(0.0198, 0.0, 0.0, 0.0198, 5.25, 2.25)" gradientUnits="userSpaceOnUse" id="gradient5" r="819.2" spreadMethod="pad">
      <stop offset="0.0" stop-color="#777865"/>
      <stop offset="0.6196078431372549" stop-color="#33372f"/>
      <stop offset="1.0" stop-color="#302e25"/>
    </radialGradient>
    <radialGradient cx="0" cy="0" gradientTransform="matrix(0.0125, 0.0, 0.0, 0.0125, 0.45, 19.1)" gradientUnits="userSpaceOnUse" id="gradient6" r="819.2" spreadMethod="pad">
      <stop offset="0.0" stop-color="#302925"/>
      <stop offset="1.0" stop-color="#0d0e0c"/>
    </radialGradient>
  </defs>
</svg>
