<?xml version="1.0" encoding="UTF-8" standalone="no"?>
<svg xmlns:xlink="http://www.w3.org/1999/xlink" height="21.7px" width="16.05px" xmlns="http://www.w3.org/2000/svg">
  <g transform="matrix(1.0, 0.0, 0.0, 1.0, 8.05, 10.85)">
    <path d="M3.25 -6.55 L4.2 -3.8 Q6.4 -3.95 6.85 -4.6 L7.6 -6.05 Q8.0 -5.8 8.0 -5.45 8.0 -3.3 4.35 -3.0 L4.35 -2.3 Q4.35 -1.6 2.3 -0.55 0.25 0.5 0.25 2.2 0.25 3.4 1.45 3.55 2.35 3.45 2.45 3.2 L2.45 2.5 1.9 2.75 1.45 2.45 1.45 1.9 Q1.8 1.55 2.4 1.55 L3.1 1.85 Q3.35 1.75 3.35 2.4 3.35 4.35 1.6 4.35 0.5 4.35 -0.15 3.45 L-0.65 2.4 Q-0.65 -0.05 1.5 -1.05 3.25 -1.9 3.55 -2.95 L2.9 -2.95 Q1.15 -2.95 -0.35 -5.15 L-0.4 -5.3 -0.4 -5.15 Q-0.4 -4.05 -0.65 -3.55 L-1.0 -3.55 Q-0.3 -8.4 -4.9 -10.6 L-4.4 -10.85 Q-1.2 -10.85 -0.5 -6.1 L0.55 -5.0 Q1.85 -3.8 2.9 -3.8 L3.55 -3.8 2.95 -6.3 3.25 -6.55 M2.75 7.95 L2.5 8.45 Q2.5 8.85 4.2 10.5 L4.15 10.7 3.6 10.85 Q1.8 10.85 1.6 8.4 1.6 7.7 2.6 7.15 3.45 6.7 4.0 6.7 5.85 6.7 5.45 7.85 L5.4 8.35 Q5.6 8.55 5.0 8.55 4.55 8.55 4.6 8.1 4.6 7.6 4.1 7.6 L2.75 7.95 M-8.05 -9.7 Q-7.9 -9.9 -7.75 -9.9 -3.25 -9.9 -1.9 -2.8 -1.9 -0.75 -3.65 2.45 L-3.95 2.45 -2.55 -2.85 Q-2.55 -4.4 -4.0 -6.45 -5.7 -8.75 -8.0 -9.3 L-8.05 -9.7" fill="#fe8989" fill-rule="evenodd" stroke="none"/>
  </g>
</svg>
