<?xml version="1.0" encoding="UTF-8" standalone="no"?>
<svg xmlns:xlink="http://www.w3.org/1999/xlink" height="29.5px" width="47.45px" xmlns="http://www.w3.org/2000/svg">
  <g transform="matrix(1.0, 0.0, 0.0, 1.0, 13.9, 14.25)">
    <path d="M10.75 -9.65 Q15.0 -5.35 15.0 0.65 15.0 6.65 10.75 10.9 6.55 15.25 0.55 15.25 -5.4 15.25 -9.65 10.9 -13.9 6.65 -13.9 0.65 -13.9 -5.35 -9.65 -9.65 -5.4 -13.9 0.55 -13.9 6.55 -13.9 10.75 -9.65" fill="url(#gradient0)" fill-rule="evenodd" stroke="none"/>
    <path d="M11.75 -7.6 L11.6 -7.85 12.4 -8.5 11.75 -7.6 M33.55 1.55 Q33.35 1.7 33.1 1.8 L33.15 1.55 33.55 1.55" fill="#ffffff" fill-rule="evenodd" stroke="none"/>
    <path d="M2.9 -14.1 L2.25 -14.15 1.7 -14.25 2.25 -14.2 2.9 -14.1" fill="url(#gradient1)" fill-rule="evenodd" stroke="none"/>
    <path d="M-2.2 -5.65 L-6.55 -11.8 -0.35 -13.6 -2.2 -5.65" fill="url(#gradient2)" fill-rule="evenodd" stroke="none"/>
    <path d="M2.25 -14.15 L2.9 -14.1 Q6.85 -13.35 9.85 -10.1 L11.6 -7.85 11.75 -7.6 Q12.8 -5.9 13.35 -3.95 L6.2 -3.1 2.9 -1.3 0.0 -4.05 2.25 -14.15" fill="url(#gradient3)" fill-rule="evenodd" stroke="none"/>
    <path d="M10.85 9.8 L9.85 10.85 9.4 11.35 8.75 11.9 Q5.1 15.25 0.15 15.25 -5.05 15.25 -8.9 11.5 L-9.5 10.85 Q-13.55 6.55 -13.55 0.4 -13.55 -2.55 -12.6 -5.0 L-11.8 -4.65 -10.2 -6.45 -4.2 -0.35 -6.3 8.8 -5.65 8.45 -5.65 11.55 -3.05 11.7 -3.4 7.2 1.75 2.6 8.4 11.45 9.15 10.9 5.45 2.65 11.75 5.15 10.9 9.7 10.85 9.8" fill="url(#gradient4)" fill-rule="evenodd" stroke="none"/>
  </g>
  <defs>
    <radialGradient cx="0" cy="0" gradientTransform="matrix(0.0185, 0.0, 0.0, 0.019, 0.55, 0.65)" gradientUnits="userSpaceOnUse" id="gradient0" r="819.2" spreadMethod="pad">
      <stop offset="0.27058823529411763" stop-color="#d66921"/>
      <stop offset="1.0" stop-color="#2e0505"/>
    </radialGradient>
    <radialGradient cx="0" cy="0" gradientTransform="matrix(0.0137, 0.0, 0.0, 0.014, -1.6, 1.65)" gradientUnits="userSpaceOnUse" id="gradient1" r="819.2" spreadMethod="pad">
      <stop offset="0.10196078431372549" stop-color="#ccacdb"/>
      <stop offset="0.9803921568627451" stop-color="#242839"/>
    </radialGradient>
    <radialGradient cx="0" cy="0" gradientTransform="matrix(0.0137, 0.0, 0.0, 0.014, -1.6, 1.65)" gradientUnits="userSpaceOnUse" id="gradient2" r="819.2" spreadMethod="pad">
      <stop offset="0.10196078431372549" stop-color="#a27d6f"/>
      <stop offset="0.9803921568627451" stop-color="#14161f"/>
    </radialGradient>
    <radialGradient cx="0" cy="0" gradientTransform="matrix(0.0137, 0.0, 0.0, 0.014, -1.6, 1.65)" gradientUnits="userSpaceOnUse" id="gradient3" r="819.2" spreadMethod="pad">
      <stop offset="0.10196078431372549" stop-color="#ffcc00"/>
      <stop offset="1.0" stop-color="#a8390b"/>
    </radialGradient>
    <radialGradient cx="0" cy="0" gradientTransform="matrix(0.0158, 0.0, 0.0, 0.0161, 0.45, -2.0)" gradientUnits="userSpaceOnUse" id="gradient4" r="819.2" spreadMethod="pad">
      <stop offset="0.10196078431372549" stop-color="#ffcc00"/>
      <stop offset="1.0" stop-color="#a8390b"/>
    </radialGradient>
  </defs>
</svg>
