<?xml version="1.0" encoding="UTF-8" standalone="no"?>
<svg xmlns:xlink="http://www.w3.org/1999/xlink" height="19.9px" width="26.05px" xmlns="http://www.w3.org/2000/svg">
  <g transform="matrix(1.0, 0.0, 0.0, 1.0, 13.05, 9.95)">
    <path d="M8.55 -9.95 L8.65 -9.9 8.75 -9.85 8.8 -9.8 8.9 -9.7 Q7.35 -8.3 6.25 -6.1 5.45 -4.45 5.15 -2.65 L5.4 -3.1 Q6.8 -5.3 9.1 -6.6 9.6 -6.95 10.15 -7.1 L10.35 -7.1 10.45 -7.05 10.55 -6.9 10.6 -6.75 10.5 -6.6 9.8 -6.3 9.55 -6.15 10.7 -6.1 11.45 -5.9 11.5 -5.75 11.35 -5.55 10.25 -5.15 10.0 -5.05 11.15 -4.8 11.7 -4.7 Q12.2 -4.6 12.5 -4.3 11.75 -3.55 10.55 -3.2 L8.7 -2.6 7.2 -1.85 Q9.3 -2.6 11.55 -1.9 L12.85 -1.35 13.0 -1.15 8.4 -0.35 Q7.05 0.0 6.1 1.0 L6.0 1.2 Q8.1 0.0 10.35 1.15 11.3 1.65 11.85 2.5 L12.25 3.6 Q9.35 2.9 6.25 3.7 5.7 3.85 5.2 4.15 L5.25 4.5 5.35 4.95 5.4 5.2 5.4 5.55 5.6 5.8 5.65 5.85 5.6 5.95 5.6 6.0 5.6 6.1 5.75 6.65 5.9 7.15 6.0 7.5 6.05 7.75 6.15 8.0 Q6.3 8.3 6.05 8.5 L5.95 8.5 5.85 8.5 5.7 8.5 5.75 8.6 5.8 8.85 5.95 9.3 6.0 9.5 6.05 9.7 6.0 9.95 Q4.1 8.8 3.75 6.2 3.55 4.4 3.65 2.65 L4.05 0.2 Q3.55 -0.6 3.9 -1.95 4.35 -3.9 5.25 -5.75 6.35 -8.1 8.2 -9.85 L8.45 -9.95 8.55 -9.95 M9.9 -4.45 L8.75 -4.0 7.75 -3.25 6.85 -2.25 8.7 -3.15 11.2 -4.15 11.35 -4.2 10.95 -4.3 10.55 -4.4 9.9 -4.45 M9.15 -5.6 L9.1 -5.6 8.8 -5.5 8.55 -5.35 8.35 -5.2 8.3 -5.1 8.5 -5.2 8.95 -5.4 9.15 -5.6 M10.9 2.2 Q10.05 1.25 8.85 1.1 L7.45 1.15 6.75 1.4 6.0 1.8 5.35 2.45 5.2 2.6 5.2 2.65 5.2 2.75 5.2 2.85 5.15 3.0 5.1 3.2 5.15 3.35 5.15 3.5 Q6.85 2.6 9.0 2.55 L11.4 2.85 10.9 2.2 M8.25 -1.65 L6.9 -1.1 5.75 -0.2 Q5.25 0.3 5.3 1.1 L6.35 0.15 Q7.55 -0.9 9.2 -1.1 L11.0 -1.5 10.25 -1.7 8.25 -1.65 M4.6 3.85 L4.65 3.6 4.6 3.6 4.6 3.85 M4.7 4.55 L4.65 4.85 4.75 5.1 4.85 5.45 4.9 5.5 4.85 5.2 4.8 4.9 4.75 4.55 4.7 4.55 M4.0 3.65 L4.05 5.4 Q4.05 6.45 4.5 7.45 L5.45 9.1 4.6 7.0 4.1 4.95 4.0 3.65 M4.9 6.0 L5.0 6.25 5.05 6.45 5.15 6.7 5.25 6.8 5.2 6.55 5.15 6.25 4.9 6.0 M0.5 6.2 Q-1.0 4.8 -2.75 6.05 -3.6 6.65 -4.3 7.35 L-4.4 7.35 -4.5 7.05 -4.05 6.0 -3.05 4.55 -1.55 3.3 -1.45 3.25 -1.55 3.05 -1.6 2.85 -1.65 2.85 -1.7 2.8 -2.25 2.8 -5.1 3.6 -7.65 3.85 -7.7 3.75 -7.75 3.65 -7.75 3.55 -7.75 3.45 -7.75 3.4 -7.7 3.3 -7.65 3.2 -7.6 3.1 -7.6 2.95 -7.5 2.9 -6.95 2.55 Q-6.35 1.85 -5.45 1.7 L-4.35 1.55 -3.15 1.6 -2.25 1.75 -2.2 1.75 -3.45 0.35 -3.95 -0.05 -6.8 0.2 Q-7.8 0.25 -8.65 0.9 L-10.05 2.1 Q-10.75 2.8 -11.45 2.75 -11.55 2.45 -11.25 2.2 L-11.05 2.0 -10.75 1.7 -10.5 1.4 -10.25 1.25 -10.15 1.15 -10.15 1.1 -10.15 0.95 -10.1 0.8 -8.95 0.35 -8.4 0.05 -8.05 -0.25 -9.35 0.25 -9.85 0.55 -10.4 0.45 -8.2 -0.7 -6.45 -1.3 -8.7 -1.55 Q-9.3 -1.55 -9.6 -1.85 L-9.55 -1.9 -7.55 -2.0 -6.85 -1.75 -5.95 -1.55 -5.8 -1.55 -6.4 -2.0 -8.1 -2.4 Q-9.8 -2.55 -11.25 -1.45 -11.55 -1.25 -11.75 -1.45 L-11.75 -1.55 -11.7 -1.8 -11.55 -2.15 -11.35 -2.4 -11.05 -2.8 -10.65 -3.15 -10.5 -3.3 -10.45 -3.35 -11.05 -3.25 -11.7 -2.95 -12.25 -2.55 -12.8 -2.2 -13.0 -2.15 -13.05 -2.25 -12.85 -2.9 -12.45 -3.5 -11.65 -4.5 -10.35 -5.5 Q-6.25 -5.7 -3.75 -2.55 L-0.45 2.1 Q1.6 5.25 2.95 8.75 L2.9 9.5 2.85 9.55 2.65 9.5 2.45 9.3 2.35 9.05 2.3 8.85 2.2 8.65 2.1 8.35 2.05 8.4 2.0 8.45 2.0 8.5 1.95 8.55 1.85 8.55 1.75 8.55 1.6 8.5 1.55 8.45 1.5 8.3 1.1 7.6 0.85 7.15 0.75 7.2 0.55 7.35 Q0.2 7.45 -0.1 7.65 L-0.7 7.6 -0.7 7.55 -0.65 7.4 -0.4 7.15 0.05 7.0 0.7 6.55 0.5 6.2 M-10.9 -4.5 L-11.45 -3.95 -12.0 -3.4 Q-9.55 -4.55 -6.95 -3.3 L-5.25 -2.3 -4.65 -1.95 -4.35 -2.0 -4.25 -2.0 -5.3 -3.3 -6.35 -4.15 -8.7 -5.0 -10.3 -4.95 -10.9 -4.5 M-9.85 -3.1 L-10.25 -2.95 -10.55 -2.6 -10.85 -2.3 -10.6 -2.4 -10.05 -2.6 -10.05 -2.65 -10.05 -2.75 -10.0 -2.9 -9.85 -3.05 -9.85 -3.1 M-8.75 -3.15 L-8.85 -3.1 -9.05 -3.05 -9.2 -2.95 -9.25 -2.9 -8.5 -2.8 -7.65 -2.8 -7.9 -2.95 -8.35 -3.1 -8.45 -3.1 -8.6 -3.15 -8.75 -3.15 M-3.95 -1.55 L-3.95 -1.5 -3.85 -1.45 -3.9 -1.55 -3.95 -1.55 M-4.45 2.05 L-5.5 2.2 Q-6.05 2.35 -6.5 2.65 L-7.3 3.45 -4.75 3.1 -2.55 2.4 -2.45 2.35 -2.95 2.05 -4.45 2.05 M-5.1 -0.8 L-5.75 -0.75 -5.35 -0.7 -5.2 -0.65 -4.85 -0.65 -5.1 -0.8 M-0.6 3.9 L-0.65 3.95 -0.75 4.0 -1.1 3.7 -1.5 3.95 -2.35 4.55 -3.05 5.4 -3.15 5.55 -2.85 5.45 Q-1.45 4.5 0.05 5.2 L0.5 5.45 0.35 5.05 -0.45 3.55 Q-0.6 3.35 -0.55 3.55 L-0.5 3.65 -0.5 3.75 -0.55 3.85 -0.6 3.9" fill="#ffffff" fill-rule="evenodd" stroke="none"/>
  </g>
</svg>
