<?xml version="1.0" encoding="UTF-8" standalone="no"?>
<svg xmlns:xlink="http://www.w3.org/1999/xlink" height="22.4px" width="22.2px" xmlns="http://www.w3.org/2000/svg">
  <g transform="matrix(1.0, 0.0, 0.0, 1.0, 10.55, 8.4)">
    <path d="M-3.6 10.65 L-3.6 10.6 -4.45 11.2 -8.05 8.6 Q-10.55 6.65 -10.55 5.65 -10.55 4.4 -9.4 4.4 -7.05 5.5 -6.15 5.5 L-6.35 3.85 Q-6.15 -3.65 -3.4 -3.65 -2.1 -3.65 -2.4 -2.1 L-2.7 0.3 -2.25 -0.1 Q-1.6 -0.6 -1.2 -0.6 0.05 -0.6 0.1 0.7 0.1 1.25 -0.5 1.75 -1.15 2.35 -1.7 2.35 -2.55 2.35 -2.85 1.55 L-3.05 3.5 Q-2.6 3.7 -2.6 4.2 -2.6 4.9 -3.1 5.1 L-3.1 5.4 Q-3.1 6.45 -2.5 7.35 L-2.6 7.6 -3.9 5.45 Q-5.0 5.45 -5.0 6.45 -5.0 7.15 -4.4 8.4 -3.95 9.5 -3.3 9.9 L-3.35 10.15 -3.3 10.25 -3.6 10.65 M-1.7 5.55 L-1.9 4.95 Q-1.9 4.25 -1.1 4.2 L-0.45 2.6 0.25 0.95 3.5 -6.25 4.7 -8.4 Q3.95 -6.65 3.95 -6.05 3.95 -4.95 1.95 -0.15 L0.35 6.45 0.55 6.45 0.55 6.5 0.45 6.65 -1.5 8.45 -0.4 5.55 0.9 1.5 0.5 1.1 -0.3 2.7 -1.05 4.25 -1.1 4.3 -1.7 5.55 M11.35 -6.0 L11.45 -6.1 11.65 -5.7 11.35 -6.0 M4.0 7.5 Q3.35 7.9 2.85 8.3 L2.8 8.1 Q3.25 7.7 3.85 7.3 L4.0 7.5 M10.2 7.2 L9.3 7.0 Q9.15 6.95 9.15 6.4 9.15 5.65 10.0 5.65 10.9 5.65 10.9 6.45 10.9 7.2 10.2 7.2 M7.5 8.75 Q8.55 8.75 8.85 10.35 8.85 11.35 8.0 11.35 6.1 11.35 6.4 10.15 L6.6 9.25 6.3 9.3 Q5.3 9.3 5.25 8.35 5.25 7.5 6.1 7.5 7.05 7.5 7.05 8.45 L7.0 8.85 7.5 8.75" fill="url(#gradient0)" fill-rule="evenodd" stroke="none"/>
    <path d="M-2.5 7.35 L-1.7 5.55 -1.1 4.3 -1.05 4.25 -0.3 2.7 0.5 1.1 0.9 1.5 -0.4 5.55 -1.5 8.45 0.45 6.65 0.55 6.5 0.55 6.45 Q7.65 -2.1 11.35 -6.0 L11.65 -5.7 6.8 1.1 2.4 6.6 3.5 6.0 Q6.05 4.55 7.4 4.1 L7.5 4.25 7.5 4.2 7.95 4.6 6.8 5.5 4.0 7.5 3.85 7.3 3.95 7.2 4.7 6.7 2.7 7.7 2.8 8.1 2.85 8.3 2.8 8.35 2.75 9.35 2.3 10.3 4.1 11.2 4.05 12.0 4.5 12.05 4.65 12.6 4.55 13.15 Q4.75 13.3 4.2 13.3 L3.9 13.3 Q3.7 14.0 2.8 14.0 L-1.7 11.65 -3.2 11.85 -3.8 11.2 -3.6 10.9 -3.6 10.7 -3.6 10.65 -3.3 10.25 -3.35 10.15 -3.3 9.9 Q-3.95 9.5 -4.4 8.4 -5.0 7.15 -5.0 6.45 -5.0 5.45 -3.9 5.45 L-2.6 7.6 -2.5 7.35" fill="url(#gradient1)" fill-rule="evenodd" stroke="none"/>
  </g>
  <defs>
    <radialGradient cx="0" cy="0" gradientTransform="matrix(0.0263, 0.0, 0.0, 0.0263, -2.4, 10.4)" gradientUnits="userSpaceOnUse" id="gradient0" r="819.2" spreadMethod="pad">
      <stop offset="0.0" stop-color="#ffffff"/>
      <stop offset="0.9137254901960784" stop-color="#9e7db5"/>
    </radialGradient>
    <radialGradient cx="0" cy="0" gradientTransform="matrix(0.0212, 0.0, 0.0, 0.0212, -0.85, 6.15)" gradientUnits="userSpaceOnUse" id="gradient1" r="819.2" spreadMethod="pad">
      <stop offset="0.0" stop-color="#ffffff"/>
      <stop offset="0.9137254901960784" stop-color="#9e7db5"/>
    </radialGradient>
  </defs>
</svg>
