<?xml version="1.0" encoding="UTF-8" standalone="no"?>
<svg xmlns:xlink="http://www.w3.org/1999/xlink" height="18.0px" width="18.45px" xmlns="http://www.w3.org/2000/svg">
  <g transform="matrix(1.0, 0.0, 0.0, 1.0, 0.0, 0.0)">
    <path d="M15.05 1.15 L13.35 2.95 Q12.45 2.95 12.3 2.25 L12.3 1.5 Q12.3 -0.05 13.7 0.0 15.05 0.0 15.05 1.15 M8.7 4.75 L7.65 5.75 7.2 5.65 Q7.05 5.55 7.05 5.05 7.05 4.4 7.25 4.3 L8.25 4.3 8.7 4.75 M15.15 6.85 Q15.15 7.45 13.35 8.2 12.3 8.2 12.3 6.85 12.3 5.3 13.75 5.4 15.15 5.45 15.15 6.85 M16.1 10.65 L15.95 9.85 Q15.95 8.55 17.2 8.35 18.45 8.2 18.45 9.7 18.45 11.35 17.3 11.35 16.4 11.35 16.1 10.65 M6.75 8.85 Q8.1 8.85 8.1 10.1 8.1 10.85 7.5 11.2 L6.6 11.5 Q5.7 11.5 5.4 10.0 5.4 8.9 6.75 8.85 M1.8 9.3 L1.95 10.0 1.65 10.7 1.0 11.2 0.0 10.3 Q0.0 9.65 0.55 9.4 L1.8 9.3 M0.75 17.4 L0.75 16.7 Q0.75 15.05 2.5 14.9 4.2 14.75 4.2 16.35 4.2 17.0 3.6 17.5 3.0 18.0 2.2 18.0 0.95 18.0 0.75 17.4" fill="#ffffff" fill-rule="evenodd" stroke="none"/>
  </g>
</svg>
