<?xml version="1.0" encoding="UTF-8" standalone="no"?>
<svg xmlns:xlink="http://www.w3.org/1999/xlink" height="20.75px" width="21.15px" xmlns="http://www.w3.org/2000/svg">
  <g transform="matrix(1.0, 0.0, 0.0, 1.0, 10.6, 10.35)">
    <path d="M6.75 -9.35 L6.8 -9.2 6.75 -9.15 6.5 -8.7 6.4 -8.2 6.2 -7.55 6.35 -7.45 6.45 -7.35 7.75 -6.7 9.05 -5.75 9.0 -5.65 8.95 -5.6 8.9 -5.55 8.65 -5.4 8.45 -5.25 Q7.95 -3.9 8.0 -2.4 L8.4 1.2 Q8.85 3.7 9.75 6.2 L10.55 8.85 Q9.35 7.95 8.9 6.05 L7.95 1.9 Q7.4 -0.75 7.45 -3.45 7.5 -4.7 8.05 -5.75 L7.75 -5.9 7.65 -6.0 6.75 -6.6 5.65 -7.1 5.6 -7.3 5.6 -7.35 5.8 -7.75 5.9 -8.35 6.0 -8.9 6.0 -8.95 5.05 -9.05 Q4.45 -9.05 4.45 -9.45 L4.65 -9.65 5.0 -9.65 6.45 -9.55 6.75 -9.35 M0.75 -9.35 L0.85 -9.35 1.95 -9.35 2.3 -9.25 2.35 -9.3 Q2.65 -9.05 2.55 -8.6 L2.4 -7.8 2.4 -6.95 Q4.3 -6.1 5.45 -4.8 L5.5 -4.3 4.95 -1.15 Q4.75 0.8 4.85 2.8 L4.9 2.85 4.95 2.95 5.0 3.0 5.0 3.15 5.0 3.35 5.25 4.2 5.9 5.95 6.35 7.6 5.95 7.45 5.75 7.0 Q5.65 6.8 5.65 7.15 L5.6 7.2 5.55 7.25 5.3 7.2 5.25 7.15 4.8 5.65 4.55 4.2 4.45 3.6 4.4 3.55 4.35 2.9 4.3 2.75 4.3 2.65 4.25 0.85 4.35 -0.9 Q4.5 -2.35 4.8 -3.8 L4.95 -5.1 3.05 -5.95 Q2.45 -6.2 1.95 -6.5 L1.95 -7.4 2.05 -8.4 2.2 -8.95 0.7 -9.15 Q0.55 -9.2 0.7 -9.3 L0.75 -9.35 M0.65 -4.05 L-1.1 -4.9 Q-0.85 -5.55 -0.9 -6.35 L-0.8 -7.85 -0.75 -8.65 -1.05 -8.55 Q-1.9 -8.45 -2.4 -8.9 L-2.4 -8.95 -2.4 -9.05 -2.3 -9.1 -2.25 -9.2 -2.15 -9.25 -2.05 -9.3 -0.85 -9.25 -0.4 -8.9 -0.45 -8.85 Q-0.25 -8.45 -0.35 -7.85 L-0.5 -6.5 -0.55 -5.3 Q1.55 -4.5 2.4 -2.75 L2.45 -2.4 2.05 0.95 Q1.85 2.95 2.15 4.9 L2.4 5.85 2.6 7.35 3.0 8.7 2.6 8.75 2.35 8.25 2.35 7.9 2.25 7.8 2.15 7.75 2.0 7.7 1.95 7.65 1.7 6.7 1.55 5.65 1.55 5.1 Q1.35 3.95 1.45 2.75 L1.55 0.35 1.8 -2.05 2.0 -2.9 0.65 -4.05 M0.0 7.8 L-0.2 8.5 -0.4 9.2 -0.4 9.3 -0.55 9.4 -0.85 9.7 -1.05 9.95 -1.1 10.05 -2.9 9.8 -2.85 9.85 -2.7 10.0 -2.6 10.15 -2.6 10.2 Q-2.85 10.55 -3.2 10.3 L-3.55 10.0 -4.05 9.7 -4.4 9.55 -4.45 9.45 -4.5 9.4 -4.5 9.35 -4.5 9.25 -4.55 9.2 -5.1 8.75 -5.75 8.2 Q-6.0 7.95 -6.3 7.9 L-6.15 8.05 -6.1 8.15 -6.0 8.3 -5.95 8.45 Q-6.6 8.55 -7.1 7.8 L-8.0 6.7 -9.0 5.7 -9.15 5.6 Q-9.15 5.25 -9.4 5.05 L-9.85 4.7 -10.15 5.15 Q-10.5 5.0 -10.3 4.65 L-10.2 4.4 -10.45 4.0 -10.35 3.9 -10.15 4.05 -10.05 3.4 Q-10.0 3.2 -10.1 3.15 -10.8 3.05 -10.55 2.0 L-10.35 1.25 -10.4 -0.05 -10.25 -1.25 -10.1 -2.9 -10.05 -3.8 -9.0 -4.65 -8.05 -5.3 -7.5 -5.75 -7.45 -6.65 -7.05 -8.05 -6.45 -9.65 -6.3 -9.95 -6.2 -10.0 -6.2 -10.05 -6.15 -10.15 -6.15 -10.2 -6.05 -10.3 -5.95 -10.35 -5.45 -10.3 -4.95 -10.2 -4.8 -10.25 -4.65 -10.2 -4.45 -10.1 -4.25 -10.0 -4.1 -9.9 -4.05 -9.15 -3.9 -8.65 -3.75 -7.0 -3.85 -5.4 Q-3.4 -4.85 -2.75 -4.45 -1.95 -4.0 -1.25 -3.35 L-1.1 -3.0 -1.05 -2.95 -0.95 -2.9 -0.65 -1.6 Q-0.35 -0.75 -0.3 0.2 L0.15 4.15 Q0.4 5.9 0.15 7.55 L0.0 7.6 0.0 7.8 M-9.65 -3.2 L-9.65 -3.15 -9.6 -3.3 -9.65 -3.3 -9.65 -3.2 M-1.35 9.6 L-1.2 9.4 -1.35 9.45 -1.4 9.45 -1.9 9.5 -1.35 9.6" fill="#000000" fill-rule="evenodd" stroke="none"/>
  </g>
</svg>
