<?xml version="1.0" encoding="UTF-8" standalone="no"?>
<svg xmlns:xlink="http://www.w3.org/1999/xlink" height="28.2px" width="25.35px" xmlns="http://www.w3.org/2000/svg">
  <g transform="matrix(1.0, 0.0, 0.0, 1.0, 12.85, 15.4)">
    <path d="M7.9 9.75 Q4.4 12.8 -0.35 12.8 -4.5 12.8 -7.65 10.5 L-7.4 10.1 Q-4.2 12.5 0.0 12.5 4.55 12.5 7.9 9.75 M-10.5 7.6 Q-12.85 4.45 -12.85 0.3 -12.85 -4.9 -9.2 -8.55 L-8.35 -9.3 -8.85 -8.85 Q-11.05 -6.65 -11.9 -3.85 L-12.35 -1.95 -12.5 0.0 -12.35 2.05 -11.7 4.5 -10.15 7.3 -10.5 7.6" fill="url(#gradient0)" fill-rule="evenodd" stroke="none"/>
    <path d="M-7.65 10.5 L-8.3 11.25 -9.25 10.25 Q-11.4 9.9 -10.8 7.85 L-10.5 7.6 -10.15 7.3 -8.85 8.85 -7.4 10.1 -7.65 10.5 M3.25 -12.1 L5.75 -15.4 7.05 -13.8 Q7.05 -13.25 5.95 -11.05 L3.25 -12.1" fill="#fdcef9" fill-rule="evenodd" stroke="none"/>
    <path d="M5.95 -11.05 Q7.5 -10.2 8.85 -8.85 10.65 -7.05 11.6 -4.8 12.5 -2.6 12.5 0.0 12.5 5.2 8.85 8.85 L7.9 9.75 Q4.55 12.5 0.0 12.5 -4.2 12.5 -7.4 10.1 L-8.85 8.85 -10.15 7.3 -11.7 4.5 -12.35 2.05 -12.5 0.0 -12.35 -1.95 -11.9 -3.85 Q-11.05 -6.65 -8.85 -8.85 L-8.35 -9.3 -8.25 -9.4 Q-4.8 -12.5 0.0 -12.5 L3.25 -12.1 5.95 -11.05" fill="url(#gradient1)" fill-rule="evenodd" stroke="none"/>
  </g>
  <defs>
    <radialGradient cx="0" cy="0" gradientTransform="matrix(0.017, 0.0, 0.0, 0.017, 0.55, 0.0)" gradientUnits="userSpaceOnUse" id="gradient0" r="819.2" spreadMethod="pad">
      <stop offset="0.0" stop-color="#b81da9"/>
      <stop offset="1.0" stop-color="#34212f"/>
    </radialGradient>
    <radialGradient cx="0" cy="0" gradientTransform="matrix(0.0289, 0.0, 0.0, 0.0289, 7.35, 7.9)" gradientUnits="userSpaceOnUse" id="gradient1" r="819.2" spreadMethod="pad">
      <stop offset="0.0" stop-color="#5c3270"/>
      <stop offset="0.42745098039215684" stop-color="#2b1a29"/>
      <stop offset="0.8509803921568627" stop-color="#000000"/>
    </radialGradient>
  </defs>
</svg>
