<?xml version="1.0" encoding="UTF-8" standalone="no"?>
<svg xmlns:xlink="http://www.w3.org/1999/xlink" height="26.9px" width="25.05px" xmlns="http://www.w3.org/2000/svg">
  <g transform="matrix(1.0, 0.0, 0.0, 1.0, 0.0, 0.0)">
    <path d="M16.8 12.85 Q16.8 10.6 15.15 9.0 13.65 7.4 11.4 7.4 9.1 7.4 7.55 9.0 5.9 10.6 5.9 12.85 5.9 15.15 7.55 16.75 9.1 18.35 11.4 18.35 13.65 18.35 15.15 16.75 16.8 15.15 16.8 12.85 M18.65 12.85 Q18.65 16.1 16.55 18.4 14.4 20.65 11.4 20.65 8.35 20.65 6.2 18.4 4.1 16.1 4.1 12.85 4.1 9.65 6.2 7.35 8.35 5.05 11.4 5.05 14.4 5.05 16.55 7.35 18.65 9.65 18.65 12.85 M21.85 13.4 Q21.85 9.6 19.05 6.8 16.4 4.0 12.55 4.0 8.65 4.0 5.9 6.8 3.25 9.6 3.25 13.4 3.25 17.4 5.9 20.2 8.65 22.9 12.55 22.9 16.4 22.9 19.05 20.2 21.85 17.4 21.85 13.4 M25.05 13.4 Q25.05 19.05 21.35 22.95 17.7 26.9 12.55 26.9 7.35 26.9 3.65 22.95 1.95 21.1 1.1 18.95 0.0 16.45 0.0 13.4 0.0 10.5 1.1 7.95 1.95 5.8 3.65 4.0 7.35 0.0 12.55 0.0 17.7 0.0 21.35 4.0 25.05 7.9 25.05 13.4 M12.35 10.25 Q11.8 9.65 10.9 9.65 10.05 9.65 9.45 10.25 8.8 10.85 8.8 11.75 8.8 12.6 9.45 13.15 10.05 13.85 10.9 13.85 11.8 13.85 12.35 13.15 12.95 12.6 12.95 11.75 12.95 10.85 12.35 10.25 M12.85 9.65 Q13.7 10.5 13.7 11.75 13.7 12.95 12.85 13.85 12.1 14.65 10.9 14.65 9.75 14.65 8.95 13.85 8.1 12.95 8.1 11.75 8.1 10.5 8.95 9.65 9.75 8.7 10.9 8.7 12.1 8.7 12.85 9.65" fill="#ffffff" fill-rule="evenodd" stroke="none"/>
  </g>
</svg>
