<?xml version="1.0" encoding="UTF-8" standalone="no"?>
<svg xmlns:xlink="http://www.w3.org/1999/xlink" height="26.05px" width="17.4px" xmlns="http://www.w3.org/2000/svg">
  <g transform="matrix(1.0, 0.0, 0.0, 1.0, 0.0, 0.0)">
    <path d="M13.7 11.55 L12.05 11.5 Q10.7 12.25 9.4 14.15 7.95 16.45 7.55 18.3 6.85 20.1 7.6 20.75 L9.5 20.6 9.55 20.55 Q9.95 18.7 11.3 17.05 12.2 15.2 13.55 14.5 13.35 14.2 13.65 14.4 14.0 12.3 13.7 11.55 M15.1 13.45 Q16.1 13.2 16.65 14.3 L16.8 15.25 17.35 15.9 Q17.55 16.75 17.15 19.05 L15.35 22.9 12.75 25.65 10.6 25.8 Q10.1 25.45 10.2 25.1 9.75 25.15 9.55 24.85 8.8 24.15 8.95 22.7 7.55 23.05 7.1 22.45 5.7 21.5 6.35 18.7 6.25 17.9 6.65 17.2 5.8 17.25 5.45 17.9 3.0 18.7 1.6 17.45 -0.2 15.8 0.05 12.05 0.1 7.9 2.65 4.45 4.7 0.55 7.65 0.05 10.1 -0.35 11.4 2.4 12.25 4.6 11.8 8.2 11.3 8.9 11.2 10.15 11.7 9.8 12.4 9.4 14.05 8.85 14.95 10.45 15.3 11.65 15.1 13.45 M9.85 7.4 Q10.3 4.85 9.9 3.6 8.95 1.95 7.4 2.9 5.45 3.75 4.05 6.55 2.1 9.0 1.8 11.6 1.25 14.05 2.4 15.2 L4.85 15.25 7.8 12.1 9.85 7.4 M14.45 16.1 Q14.8 15.7 15.3 15.5 15.25 15.45 15.55 15.3 15.2 14.7 14.85 15.05 14.5 15.55 14.45 16.1 M15.55 16.6 L15.0 17.0 Q13.9 17.7 12.85 19.4 11.75 21.05 11.25 22.55 11.0 23.05 11.05 23.3 L11.7 22.9 13.75 20.6 15.35 17.55 15.55 16.6 M10.25 23.1 Q10.3 22.3 10.7 21.8 L10.05 22.3 Q9.75 22.9 10.15 23.35 10.0 23.15 10.25 23.1" fill="#ffffff" fill-rule="evenodd" stroke="none"/>
  </g>
</svg>
