<?xml version="1.0" encoding="UTF-8" standalone="no"?>
<svg xmlns:xlink="http://www.w3.org/1999/xlink" height="23.8px" width="8.15px" xmlns="http://www.w3.org/2000/svg">
  <g transform="matrix(1.0, 0.0, 0.0, 1.0, 0.0, 0.0)">
    <path d="M7.1 10.85 Q8.15 11.35 8.15 11.95 8.15 13.15 7.0 13.45 L1.25 13.8 0.65 13.9 0.4 14.2 Q1.7 14.85 2.1 15.3 2.5 15.8 2.5 16.7 L2.25 17.3 Q2.0 17.55 2.0 17.85 L4.1 19.05 Q6.15 20.05 6.15 20.7 6.15 21.2 3.15 23.8 2.35 23.8 2.35 22.85 2.35 22.35 2.95 21.55 L4.15 20.1 Q2.9 18.6 1.95 18.4 1.4 18.3 1.4 18.0 L1.65 17.15 1.9 16.3 Q1.9 15.95 0.95 15.15 L0.0 14.15 Q0.0 13.5 1.95 13.25 L6.9 12.45 5.3 11.7 Q4.1 11.25 3.9 10.45 3.75 9.4 2.55 8.85 1.4 8.35 1.4 8.05 4.05 2.7 5.9 0.15 6.05 -0.25 6.05 0.4 6.05 1.0 2.9 6.65 L5.1 8.0 Q5.85 8.6 5.9 9.2 6.05 10.3 7.1 10.85" fill="#ffffff" fill-rule="evenodd" stroke="none"/>
  </g>
</svg>
