<?xml version="1.0" encoding="UTF-8" standalone="no"?>
<svg xmlns:xlink="http://www.w3.org/1999/xlink" height="22.2px" width="12.0px" xmlns="http://www.w3.org/2000/svg">
  <g transform="matrix(1.0, 0.0, 0.0, 1.0, 0.0, 0.0)">
    <path d="M8.1 1.7 L8.25 3.35 8.15 4.95 9.25 5.9 10.75 7.0 10.9 7.35 10.95 7.4 11.05 7.45 11.35 8.75 11.6 9.6 Q6.25 13.65 0.95 9.95 1.5 8.15 1.95 7.2 L1.95 6.55 3.0 5.7 3.95 5.05 4.5 4.6 4.55 3.7 4.95 2.3 5.55 0.7 5.7 0.4 5.8 0.35 5.8 0.3 5.85 0.2 5.85 0.15 5.95 0.05 6.05 0.0 6.55 0.05 7.05 0.15 Q7.05 0.05 7.2 0.1 L7.35 0.15 7.55 0.25 7.75 0.35 7.9 0.45 7.95 1.2 8.1 1.7 M12.0 19.75 Q6.0 24.7 0.0 19.75 L0.45 18.15 Q6.1 22.5 11.8 18.0 L12.0 19.75 M12.0 16.3 Q6.0 21.25 0.0 16.3 L0.45 14.7 Q6.1 19.05 11.8 14.55 L12.0 16.3 M12.0 12.4 Q6.0 17.35 0.0 12.4 L0.45 10.8 Q6.1 15.15 11.8 10.65 L12.0 12.4" fill="#ffffff" fill-rule="evenodd" stroke="none"/>
  </g>
</svg>
