<?xml version="1.0" encoding="UTF-8" standalone="no"?>
<svg xmlns:xlink="http://www.w3.org/1999/xlink" height="26.25px" width="27.95px" xmlns="http://www.w3.org/2000/svg">
  <g transform="matrix(1.0, 0.0, 0.0, 1.0, 0.0, 0.0)">
    <path d="M19.85 5.5 L19.7 5.85 Q19.7 6.2 10.7 12.85 L11.6 13.9 11.75 14.1 14.2 12.5 Q15.65 11.45 16.3 11.55 L14.55 13.0 Q12.85 14.25 11.95 14.25 L11.9 14.25 13.25 15.8 20.55 12.3 Q25.7 9.95 27.85 10.15 L27.95 10.3 Q27.95 10.55 21.65 13.6 L16.35 16.15 16.4 16.75 16.2 17.2 15.75 17.4 Q15.3 17.4 15.2 17.0 L15.2 16.65 14.3 17.05 17.5 21.45 19.55 20.7 Q20.85 19.95 22.0 19.95 L24.05 19.95 24.1 20.15 Q24.1 20.65 18.0 22.35 19.15 24.4 19.15 25.6 L19.1 25.95 18.65 26.1 Q18.4 26.1 18.05 25.65 L17.95 26.05 17.5 26.25 Q12.85 18.7 10.85 16.4 7.85 13.05 3.4 9.9 0.0 7.55 0.0 7.0 0.0 6.75 0.35 6.5 L0.65 5.85 0.35 5.35 Q2.5 5.15 6.4 8.55 L7.6 4.8 Q8.65 2.0 9.55 0.8 9.7 0.45 9.95 0.25 L10.25 0.0 10.35 0.25 10.4 0.45 10.35 0.8 Q10.3 2.0 8.6 5.85 L7.05 9.2 8.4 10.5 Q9.1 8.95 10.25 8.95 L10.25 9.45 9.5 10.75 9.15 11.2 10.2 12.35 Q12.0 9.5 19.9 4.8 L20.0 5.15 19.85 5.5 M15.5 13.35 Q15.5 13.0 16.25 12.75 L16.4 12.85 16.4 13.15 16.15 13.8 15.95 13.8 Q15.55 13.8 15.5 13.6 L15.5 13.35 M14.0 8.55 L13.55 8.8 12.4 7.65 Q12.4 7.2 13.1 7.2 14.0 7.2 14.0 8.25 L14.0 8.55 M16.9 10.45 Q17.25 10.55 17.3 10.95 L17.15 11.15 16.9 11.25 Q16.55 11.15 16.55 10.85 L16.65 10.5 16.9 10.45 M20.35 11.95 L19.85 12.0 19.4 11.85 19.4 11.6 19.6 11.35 Q19.85 11.15 20.15 11.05 L20.45 11.5 20.35 11.95 M17.9 18.15 L18.55 18.5 Q19.1 18.5 19.3 18.8 L19.0 19.2 18.5 18.9 17.75 19.2 17.45 18.6 Q17.45 18.1 17.9 18.15 M13.65 16.3 L13.75 16.4 13.85 16.35 13.85 16.25 13.65 16.3 M5.65 5.4 L5.75 5.7 Q5.75 6.3 5.15 6.3 L4.7 6.25 4.65 5.9 Q4.65 5.3 5.4 5.25 L5.65 5.4 M9.8 8.25 L9.25 8.35 8.9 8.25 8.85 7.9 Q8.85 7.55 9.65 7.35 L9.95 7.65 9.8 8.25" fill="#ffffff" fill-rule="evenodd" stroke="none"/>
  </g>
</svg>
