<?xml version="1.0" encoding="UTF-8" standalone="no"?>
<svg xmlns:xlink="http://www.w3.org/1999/xlink" height="27.5px" width="25.15px" xmlns="http://www.w3.org/2000/svg">
  <g transform="matrix(1.0, 0.0, 0.0, 1.0, 0.0, 0.0)">
    <path d="M24.1 9.0 L23.35 8.9 Q23.25 8.5 23.5 8.1 23.75 7.5 24.35 7.5 25.15 7.5 25.15 8.3 25.15 9.0 24.1 9.0 M24.7 11.65 L24.2 12.55 Q23.25 12.4 23.3 11.7 23.25 11.0 23.95 11.0 24.65 10.95 24.7 11.65 M21.15 18.95 Q21.1 18.0 22.1 18.1 L22.8 18.7 Q22.75 19.1 21.9 19.55 L21.15 18.95 M21.15 12.85 Q14.25 27.5 13.95 27.5 12.65 27.5 12.9 26.4 12.9 24.85 15.85 19.65 L19.15 13.95 19.15 13.75 16.7 14.2 15.95 14.15 15.9 13.1 17.35 8.5 Q16.1 8.45 15.75 8.1 16.2 6.3 17.2 6.3 L18.0 6.5 Q19.5 2.15 19.85 2.15 20.55 2.15 20.55 2.75 L17.35 12.6 Q18.45 12.6 20.45 11.75 21.3 11.75 21.15 12.85 M11.65 0.8 Q11.65 2.3 10.45 10.1 L13.8 9.2 Q15.15 9.2 14.85 10.85 L14.4 14.25 14.4 14.7 14.15 16.0 Q12.6 26.15 12.15 26.15 11.1 26.15 11.35 24.2 L12.15 18.1 12.4 16.35 Q11.7 16.0 11.85 15.1 11.85 14.05 12.8 13.8 L13.3 11.05 13.25 10.9 10.15 11.75 Q8.45 11.75 8.95 10.75 9.75 2.2 11.1 0.0 L11.65 0.8 M7.65 5.85 Q6.05 5.85 6.05 4.9 6.05 4.6 6.65 4.2 7.2 3.85 7.4 3.85 L8.35 5.1 Q8.35 5.85 7.65 5.85 M0.4 2.45 Q1.35 3.95 1.9 6.65 L2.85 10.85 Q5.85 7.8 6.6 7.8 7.05 7.75 8.8 16.5 L10.45 25.35 Q10.45 26.45 9.65 26.45 8.85 26.4 7.7 20.1 L6.0 9.95 4.55 11.35 Q3.2 12.55 2.7 12.55 1.55 12.55 0.0 3.15 0.0 2.7 0.4 2.45 M6.2 20.0 Q5.65 19.85 5.65 19.1 5.65 17.95 6.4 17.95 L7.15 19.1 Q7.15 20.0 6.2 20.0" fill="url(#gradient0)" fill-rule="evenodd" stroke="none"/>
  </g>
  <defs>
    <linearGradient gradientTransform="matrix(-0.001, 0.0166, -0.0155, -9.0E-4, 12.15, 13.75)" gradientUnits="userSpaceOnUse" id="gradient0" spreadMethod="pad" x1="-819.2" x2="819.2">
      <stop offset="0.0" stop-color="#ed86f9"/>
      <stop offset="1.0" stop-color="#ffffff"/>
    </linearGradient>
  </defs>
</svg>
