<?xml version="1.0" encoding="UTF-8" standalone="no"?>
<svg xmlns:xlink="http://www.w3.org/1999/xlink" height="19.9px" width="23.7px" xmlns="http://www.w3.org/2000/svg">
  <g transform="matrix(1.0, 0.0, 0.0, 1.0, 0.0, 0.0)">
    <path d="M13.05 5.75 Q13.15 5.6 12.55 5.6 L12.35 5.6 Q12.8 5.75 12.9 6.25 L13.05 5.75 M13.3 7.6 L14.55 7.3 15.95 7.0 Q17.15 7.0 17.45 7.6 L17.55 8.25 17.15 9.9 16.7 11.35 16.95 12.6 Q17.3 13.65 17.7 13.65 20.35 13.65 21.55 12.15 L23.05 10.35 23.7 11.25 23.45 14.25 Q23.45 14.75 22.8 15.1 L21.9 15.4 Q21.25 15.4 21.15 14.85 L21.15 14.25 19.55 14.85 18.05 15.25 Q16.85 15.25 16.05 14.25 L15.45 13.25 12.55 16.65 Q10.25 19.1 8.8 19.1 7.9 19.1 7.65 17.65 10.5 9.75 14.55 9.75 L15.4 10.0 16.3 10.4 16.9 8.35 16.85 7.75 Q17.2 7.7 16.55 7.7 13.4 7.7 10.1 11.4 L6.3 16.0 Q5.8 15.85 5.8 15.25 5.8 13.45 8.35 11.2 L7.95 11.75 Q7.25 12.9 6.3 15.15 L6.3 15.25 Q9.25 12.7 12.0 8.9 11.0 9.2 10.2 9.7 L9.9 9.9 5.25 13.5 4.3 13.5 4.05 13.35 5.3 12.5 4.3 12.25 4.3 11.15 Q4.35 10.65 4.95 9.95 L5.55 9.25 5.35 8.8 3.55 9.75 Q3.3 10.15 3.3 9.5 3.3 8.85 4.85 8.0 L3.9 7.25 Q3.25 7.25 2.5 7.8 1.8 8.35 1.05 8.35 -0.15 8.35 0.0 7.1 0.0 5.4 0.35 4.7 0.9 3.55 3.0 2.1 L1.2 4.35 Q0.65 5.2 0.65 6.3 L0.9 7.5 Q1.4 7.65 2.4 7.05 L3.55 6.45 Q4.8 6.45 5.55 7.5 L5.6 7.6 Q6.6 7.1 8.1 6.5 L9.4 6.05 Q10.95 5.0 12.3 5.0 13.7 5.0 13.65 6.05 L13.3 7.45 13.3 7.6 M18.65 5.75 L18.55 5.35 Q18.55 4.4 19.65 4.4 20.7 4.4 20.7 5.35 20.7 6.1 19.65 6.25 18.9 6.25 18.65 5.75 M21.8 13.65 L21.55 14.0 22.15 13.5 22.15 13.4 21.8 13.65 M12.95 11.75 Q10.65 13.9 9.15 17.6 L9.3 17.85 12.75 15.05 15.3 12.35 Q15.3 9.55 12.95 11.75 M13.45 19.25 L13.3 18.55 Q13.3 17.45 14.65 17.5 15.95 17.6 15.95 18.7 15.95 19.9 14.8 19.9 13.85 19.9 13.45 19.25 M10.8 0.75 L10.35 1.45 9.8 1.6 Q9.2 1.6 9.05 1.2 L9.05 0.7 Q9.05 -0.3 10.55 0.1 10.8 0.1 10.8 0.75 M6.0 8.5 L6.05 8.65 6.75 8.1 6.0 8.5 M8.55 7.3 Q6.65 8.45 6.55 9.15 6.95 9.95 6.55 11.2 L6.25 11.85 8.95 9.9 Q11.65 7.8 12.15 6.5 12.4 6.25 11.8 6.25 10.85 6.25 8.55 7.3 M5.3 10.6 Q4.9 11.25 4.9 11.75 L4.9 11.85 Q6.25 11.6 6.25 9.9 L6.05 9.75 Q5.7 9.95 5.3 10.6" fill="#ffffff" fill-rule="evenodd" stroke="none"/>
  </g>
</svg>
