<?xml version="1.0" encoding="UTF-8" standalone="no"?>
<svg xmlns:xlink="http://www.w3.org/1999/xlink" height="18.6px" width="25.05px" xmlns="http://www.w3.org/2000/svg">
  <g transform="matrix(1.0, 0.0, 0.0, 1.0, 0.0, 0.0)">
    <path d="M15.8 9.3 Q15.8 9.95 14.9 10.35 13.7 10.95 13.4 11.25 L14.0 12.9 13.75 13.25 Q13.2 12.85 12.5 10.75 L13.3 10.05 14.25 9.45 12.4 7.0 Q11.75 8.75 10.8 8.75 9.85 8.75 8.15 7.55 L6.35 6.2 3.35 9.4 0.15 12.6 0.0 12.5 Q1.05 10.75 3.0 8.35 4.75 6.15 6.4 4.5 L8.0 5.8 Q9.45 7.0 10.3 7.0 L10.9 6.95 11.25 5.5 Q10.25 3.95 10.25 3.1 10.25 2.7 10.95 1.55 11.75 0.15 12.5 0.0 12.7 0.55 12.25 1.8 L11.75 3.25 11.9 3.85 Q13.15 1.5 15.4 1.95 16.7 2.2 17.65 3.35 18.65 4.55 18.65 5.8 L18.15 7.75 19.1 8.1 20.3 8.25 21.5 7.1 Q22.6 5.95 24.15 5.95 L24.6 6.0 24.9 6.25 25.05 6.6 22.9 8.8 Q21.45 10.4 20.75 10.4 17.95 10.4 16.5 8.45 L17.15 4.75 13.15 4.35 12.9 5.5 15.8 9.3 M20.4 13.5 L19.55 12.65 19.65 12.1 20.2 12.1 Q20.75 12.15 21.25 12.6 21.1 13.5 20.4 13.5 M16.15 18.6 L15.7 18.5 15.55 18.25 15.5 17.9 Q15.5 17.5 15.75 17.4 L16.15 17.35 16.75 17.85 16.55 18.4 Q16.75 18.6 16.15 18.6 M12.65 17.5 L12.4 17.75 12.25 17.6 12.15 17.05 12.15 16.75 12.5 16.75 12.65 17.5 M11.65 13.9 L11.85 13.85 12.0 14.25 Q12.0 14.85 9.8 16.5 8.85 16.5 8.6 15.7 L8.3 13.9 Q7.8 11.25 4.15 11.25 L2.65 13.1 Q1.15 15.05 0.5 15.25 0.4 15.55 0.4 14.9 0.4 14.15 1.55 12.3 3.0 9.95 4.65 10.25 8.3 10.05 10.15 14.6 L11.65 13.9" fill="#ffffff" fill-rule="evenodd" stroke="none"/>
  </g>
</svg>
