<?xml version="1.0" encoding="UTF-8" standalone="no"?>
<svg xmlns:xlink="http://www.w3.org/1999/xlink" height="24.25px" width="26.1px" xmlns="http://www.w3.org/2000/svg">
  <g transform="matrix(1.0, 0.0, 0.0, 1.0, 0.0, 0.0)">
    <path d="M18.75 2.35 Q21.7 3.3 23.75 7.8 24.75 10.15 25.15 12.25 L26.1 15.6 Q26.1 17.65 21.9 20.6 20.0 21.9 18.0 22.75 14.55 24.25 12.0 24.25 9.45 24.25 7.5 22.85 L7.5 22.9 7.0 22.95 Q5.75 22.95 4.7 20.45 L4.0 20.6 Q3.4 20.6 3.05 19.35 L1.95 17.3 Q1.7 19.45 1.7 21.6 L1.65 22.1 1.45 22.1 Q0.8 21.0 0.65 19.95 L0.6 18.0 Q0.6 16.5 1.0 14.45 L0.0 10.05 Q0.0 9.0 2.2 4.85 4.35 0.75 5.2 0.1 5.45 -0.2 5.45 0.45 L3.65 4.55 Q1.85 8.55 1.85 10.85 L1.9 10.9 Q3.25 5.85 4.85 5.1 5.0 4.7 5.0 5.35 L3.35 10.85 3.15 11.55 Q3.4 10.85 3.8 10.25 L7.5 6.1 7.95 6.25 8.1 6.85 6.85 9.75 Q5.6 12.6 5.6 14.9 L5.6 15.3 6.7 17.85 7.15 17.75 7.25 17.75 7.7 16.25 8.3 14.85 8.5 13.95 Q9.1 11.6 10.1 10.35 L10.2 10.45 10.25 10.85 9.5 14.5 9.5 14.75 9.0 17.45 8.9 17.9 9.75 17.7 Q10.2 17.7 10.7 19.0 L10.9 19.4 12.3 19.55 14.15 19.8 14.5 19.3 Q14.45 17.7 14.65 16.45 14.6 16.25 15.25 16.25 16.1 16.25 16.6 17.65 L17.0 19.25 17.1 19.35 18.4 15.25 18.15 13.75 17.9 12.25 18.0 11.05 18.35 10.95 Q19.35 12.25 19.6 14.65 L19.85 16.7 20.0 16.85 20.0 18.35 22.0 16.6 22.0 16.25 Q21.95 14.2 21.5 12.85 20.95 11.3 19.8 9.5 18.65 7.65 17.35 6.35 L17.5 6.35 18.55 6.65 19.25 6.6 Q20.8 6.6 22.2 11.35 L22.65 12.95 Q22.45 10.55 20.65 6.95 L18.65 2.95 18.75 2.35 M16.75 5.35 L16.65 5.85 15.6 5.95 15.5 5.85 15.4 5.35 15.5 4.95 Q15.8 4.8 16.65 4.95 L16.75 5.35 M10.4 7.55 L10.75 7.45 11.35 8.1 11.2 8.55 10.75 8.7 10.4 8.6 Q10.25 8.5 10.25 8.1 10.25 7.7 10.4 7.55 M2.85 12.75 L2.9 12.4 2.85 12.7 2.85 12.75 M9.3 19.3 L9.25 19.2 9.2 19.3 9.3 19.3" fill="#000000" fill-rule="evenodd" stroke="none"/>
  </g>
</svg>
