<?xml version="1.0" encoding="UTF-8" standalone="no"?>
<svg xmlns:xlink="http://www.w3.org/1999/xlink" height="13.9px" width="23.0px" xmlns="http://www.w3.org/2000/svg">
  <g transform="matrix(1.0, 0.0, 0.0, 1.0, 0.0, 0.0)">
    <path d="M14.25 5.15 L16.5 2.75 Q14.5 1.35 14.5 0.6 L14.55 0.15 14.75 0.0 17.5 1.85 Q18.35 1.05 19.35 0.4 L18.05 2.3 Q19.5 3.55 19.5 4.4 L19.45 4.75 19.25 4.65 17.2 3.25 14.75 5.5 14.25 5.15 M22.5 13.9 L19.35 12.6 18.75 12.9 Q18.35 13.25 18.35 12.65 L18.55 12.25 17.95 12.0 16.4 11.4 16.25 11.55 16.05 11.45 16.0 11.3 13.0 10.45 12.75 11.5 Q12.25 10.95 12.05 10.25 L9.75 10.05 8.85 10.1 9.25 11.65 9.2 11.8 Q8.5 11.35 8.1 10.2 6.55 10.45 4.75 11.2 5.5 12.35 5.75 13.4 L4.95 13.55 3.5 11.8 Q1.7 12.65 0.25 13.55 0.0 13.95 0.0 13.3 0.0 12.55 3.1 11.3 2.2 9.95 2.2 9.25 3.2 9.25 4.4 10.75 L4.65 10.65 Q6.45 9.95 7.9 9.6 L7.25 7.65 Q8.0 7.7 8.5 9.05 L8.65 9.4 11.9 9.15 11.9 6.9 12.35 6.9 12.85 9.3 16.25 10.1 16.75 8.95 Q17.6 7.3 18.1 7.15 L18.3 7.3 18.35 7.75 17.5 9.65 17.1 10.4 18.65 10.9 19.5 11.25 Q20.4 10.25 20.85 10.05 L21.05 10.15 21.1 10.5 Q21.1 10.95 20.5 11.65 22.7 12.6 23.0 13.3 L22.85 13.8 22.5 13.9 M1.85 0.5 Q2.9 0.7 3.95 1.8 5.2 0.7 6.35 1.5 L5.05 2.95 6.45 4.4 6.35 4.55 6.0 4.75 4.35 3.75 Q3.1 5.0 1.85 5.4 1.75 5.7 1.75 5.15 L3.05 2.85 Q1.6 1.75 1.6 1.4 1.6 0.9 1.85 0.5" fill="#ffffff" fill-rule="evenodd" stroke="none"/>
  </g>
</svg>
