<?xml version="1.0" encoding="UTF-8" standalone="no"?>
<svg xmlns:xlink="http://www.w3.org/1999/xlink" height="30.0px" width="33.95px" xmlns="http://www.w3.org/2000/svg">
  <g transform="matrix(1.0, 0.0, 0.0, 1.0, 0.0, 0.0)">
    <path d="M20.25 0.25 L17.85 8.45 16.1 8.25 15.5 8.3 15.15 0.1 16.95 0.0 20.25 0.25 M22.95 14.1 L33.95 14.05 33.95 15.0 Q33.95 17.55 33.1 19.8 L22.9 16.35 23.0 15.0 22.95 14.1 M22.0 11.45 L20.95 10.2 20.3 9.65 27.0 2.9 28.95 4.4 Q30.4 5.7 31.45 7.15 L22.0 11.45 M28.95 25.6 L26.2 27.6 20.55 20.15 20.95 19.75 21.5 19.25 29.2 25.4 28.95 25.6 M17.0 21.75 L17.3 30.0 12.8 29.35 15.1 21.5 17.0 21.75 M4.9 4.4 L7.35 2.6 12.4 9.3 Q11.75 9.65 11.2 10.2 L10.8 10.65 4.05 5.25 4.9 4.4 M9.9 12.75 Q9.4 13.75 9.25 14.9 L0.0 14.95 Q0.1 12.2 1.25 9.9 L9.9 12.75 M11.55 20.3 L5.45 26.45 Q3.2 24.35 2.0 21.9 L10.3 18.1 Q10.65 19.3 11.55 20.3" fill="#d699dd" fill-rule="evenodd" stroke="none"/>
  </g>
</svg>
