<?xml version="1.0" encoding="UTF-8" standalone="no"?>
<svg xmlns:xlink="http://www.w3.org/1999/xlink" height="29.25px" width="25.0px" xmlns="http://www.w3.org/2000/svg">
  <g transform="matrix(1.0, 0.0, 0.0, 1.0, 12.65, 14.6)">
    <path d="M12.35 -0.5 Q12.35 4.7 8.7 8.35 5.05 12.0 -0.15 12.0 -5.35 12.0 -9.0 8.35 -12.65 4.7 -12.65 -0.5 -12.65 -5.7 -9.0 -9.35 -5.35 -13.0 -0.15 -13.0 5.05 -13.0 8.7 -9.35 12.35 -5.7 12.35 -0.5" fill="url(#gradient0)" fill-rule="evenodd" stroke="none"/>
    <path d="M10.85 -14.6 L10.85 14.65 9.1 14.65 9.1 -14.6 10.85 -14.6 M5.85 -14.6 L5.85 14.65 4.1 14.65 4.1 -14.6 5.85 -14.6 M0.85 14.65 L-0.9 14.65 -0.9 -14.6 0.85 -14.6 0.85 14.65 M-9.15 -14.6 L-9.15 14.65 -10.9 14.65 -10.9 -14.6 -9.15 -14.6 M-4.15 -14.6 L-4.15 14.65 -5.9 14.65 -5.9 -14.6 -4.15 -14.6" fill="url(#gradient1)" fill-rule="evenodd" stroke="none"/>
  </g>
  <defs>
    <radialGradient cx="0" cy="0" gradientTransform="matrix(0.0289, 0.0, 0.0, 0.0289, 7.2, 7.4)" gradientUnits="userSpaceOnUse" id="gradient0" r="819.2" spreadMethod="pad">
      <stop offset="0.0" stop-color="#5a376a"/>
      <stop offset="0.42745098039215684" stop-color="#1a0d37"/>
      <stop offset="0.8509803921568627" stop-color="#000000"/>
    </radialGradient>
    <linearGradient gradientTransform="matrix(5.0E-4, 0.0182, -0.0138, 4.0E-4, 0.0, 0.0)" gradientUnits="userSpaceOnUse" id="gradient1" spreadMethod="pad" x1="-819.2" x2="819.2">
      <stop offset="0.27058823529411763" stop-color="#5a376a"/>
      <stop offset="0.6470588235294118" stop-color="#d5a55e"/>
      <stop offset="0.7764705882352941" stop-color="#f4ab02"/>
    </linearGradient>
  </defs>
</svg>
