<?xml version="1.0" encoding="UTF-8" standalone="no"?>
<svg xmlns:xlink="http://www.w3.org/1999/xlink" height="16.7px" width="21.15px" xmlns="http://www.w3.org/2000/svg">
  <g transform="matrix(1.0, 0.0, 0.0, 1.0, 0.0, 0.05)">
    <path d="M16.0 0.75 L15.25 1.65 Q14.5 1.5 14.5 0.6 L14.75 0.1 Q15.1 -0.15 15.75 0.1 16.0 0.1 16.0 0.75 M12.45 4.25 L12.35 4.4 11.25 4.6 Q10.1 4.6 10.1 3.6 L10.15 2.9 11.95 3.05 Q12.5 3.45 12.5 3.9 L12.45 4.25 M17.8 7.1 L17.9 7.1 Q19.1 5.65 20.5 5.65 L20.6 6.25 20.0 7.6 21.15 8.65 20.0 9.15 18.65 9.4 18.25 9.9 18.5 12.3 18.0 12.65 Q17.6 12.5 17.2 11.25 L16.35 12.25 15.65 12.15 15.6 11.45 16.4 9.5 15.35 9.5 Q13.8 9.5 13.4 9.15 L13.35 8.8 Q15.0 7.75 16.4 7.35 L16.25 5.6 16.35 5.1 16.75 4.9 17.8 7.1 M13.65 15.3 L12.85 15.5 12.35 15.4 12.15 15.25 12.1 14.8 Q12.1 14.45 12.45 14.25 L13.65 14.15 13.75 14.7 13.65 15.3 M7.2 0.5 L7.25 1.05 6.4 2.45 6.7 3.05 6.6 3.65 Q6.55 3.65 6.45 3.75 L5.9 3.85 5.15 3.65 Q4.2 4.4 3.65 4.4 L3.1 4.25 2.95 4.15 2.85 3.65 Q2.85 3.2 3.3 2.6 L2.7 2.5 2.7 1.15 2.85 0.9 4.6 1.35 Q5.35 0.7 6.5 0.0 L7.2 0.5 M6.25 8.5 L5.25 11.5 Q8.2 10.25 8.95 10.3 L9.25 10.8 6.55 12.7 Q8.35 13.7 8.35 14.45 L8.25 15.3 7.25 15.4 5.4 15.2 5.5 15.8 5.0 16.05 Q4.5 15.5 4.15 14.75 L3.9 14.6 2.75 16.65 Q2.0 16.15 2.0 15.65 L2.1 15.0 2.0 15.0 Q1.3 15.0 1.0 14.65 L0.95 14.3 Q0.95 13.85 1.95 13.2 0.9 12.25 0.0 10.95 L0.0 10.4 Q0.7 10.15 3.05 11.05 L2.5 9.65 3.95 10.8 Q5.2 8.45 5.75 7.9 L6.15 8.05 6.25 8.5" fill="#ffffff" fill-rule="evenodd" stroke="none"/>
  </g>
</svg>
