<?xml version="1.0" encoding="UTF-8" standalone="no"?>
<svg xmlns:xlink="http://www.w3.org/1999/xlink" height="24.8px" width="23.3px" xmlns="http://www.w3.org/2000/svg">
  <g transform="matrix(1.0, 0.0, 0.0, 1.0, 0.0, 0.0)">
    <path d="M12.5 0.45 L12.5 0.0 Q17.25 0.05 20.35 1.5 23.3 2.85 23.3 4.6 23.3 5.8 22.65 5.8 L22.15 6.25 22.1 6.3 21.8 6.55 21.6 6.5 18.75 8.0 Q14.8 10.5 11.9 14.25 8.95 18.15 7.9 21.55 L9.05 20.5 Q12.65 17.3 13.85 16.95 L13.95 17.0 14.0 17.25 10.25 20.4 10.15 20.55 10.3 20.45 10.35 20.45 Q12.45 18.95 13.05 18.95 L13.6 19.05 13.7 19.4 13.25 19.65 Q12.65 19.8 12.35 20.3 L12.35 20.4 13.0 20.4 13.1 20.75 11.7 21.6 13.25 21.45 13.4 21.95 13.35 22.25 13.15 22.25 12.95 22.4 14.65 22.65 14.7 22.65 14.75 22.9 11.5 23.45 7.7 24.0 7.6 23.95 6.05 24.8 5.55 24.75 5.45 24.35 5.65 23.9 5.6 23.85 5.6 23.65 5.55 23.6 5.2 23.45 5.0 23.4 4.75 23.4 Q4.35 23.4 3.05 22.6 L2.85 22.65 2.45 22.25 2.15 22.05 2.25 21.95 0.0 17.8 Q0.0 17.45 0.35 17.0 0.9 17.05 1.15 17.55 L1.65 18.3 Q0.55 15.05 0.35 13.85 1.1 14.7 2.5 18.2 L3.0 19.35 2.75 17.8 2.3 12.8 Q2.3 11.95 2.7 11.65 L3.65 17.0 4.3 20.15 6.2 11.1 Q7.65 5.35 12.35 0.45 L12.5 0.5 12.55 0.5 12.55 0.45 12.5 0.45 M16.2 18.25 Q16.85 18.25 16.85 18.9 16.85 19.65 16.0 19.65 15.5 19.65 15.5 19.0 15.5 18.25 16.2 18.25 M13.7 15.9 L13.75 16.2 13.55 16.6 12.8 16.85 12.5 16.45 Q12.5 15.75 13.6 15.9 L13.7 15.9 M2.9 8.8 L2.3 8.7 2.3 8.25 3.2 8.2 3.35 8.5 2.9 8.8" fill="#ffffff" fill-rule="evenodd" stroke="none"/>
  </g>
</svg>
