<?xml version="1.0" encoding="UTF-8" standalone="no"?>
<svg xmlns:xlink="http://www.w3.org/1999/xlink" height="27.4px" width="19.05px" xmlns="http://www.w3.org/2000/svg">
  <g transform="matrix(1.0, 0.0, 0.0, 1.0, 0.0, 0.0)">
    <path d="M8.6 4.8 L8.6 4.9 8.85 7.15 9.15 9.2 10.15 8.8 Q10.8 8.5 11.45 8.8 11.4 10.45 11.9 12.2 L13.0 15.6 13.85 18.15 13.8 18.75 Q13.3 19.0 12.9 19.3 L12.3 19.8 12.7 20.15 13.3 20.55 13.55 20.7 13.95 19.65 Q14.15 19.0 14.5 18.45 L15.0 17.5 14.45 16.15 13.9 14.7 Q13.65 14.05 13.75 13.45 14.6 13.75 15.05 14.85 L16.05 16.75 16.7 17.85 16.9 17.3 16.95 16.65 Q16.95 16.15 17.4 16.05 L18.0 17.4 Q18.1 18.25 18.55 19.05 L18.85 19.75 18.9 19.8 19.0 19.95 19.05 20.0 18.9 20.1 18.85 20.35 18.8 20.35 18.6 20.35 18.55 20.35 Q17.35 21.2 17.2 22.95 17.0 25.15 14.45 25.95 L12.75 26.45 Q11.95 26.65 12.1 27.25 L12.05 27.3 12.05 27.35 12.0 27.4 11.9 27.4 11.75 27.4 11.0 26.5 10.4 25.8 9.75 24.9 7.0 23.2 Q5.3 22.3 3.45 21.9 L1.95 21.65 Q2.7 21.15 3.5 20.9 L8.2 21.1 9.25 21.4 6.55 19.15 5.45 18.35 4.35 17.8 2.1 16.7 Q0.65 16.1 0.25 15.1 L0.3 15.1 Q1.4 15.4 2.45 16.0 L3.75 16.7 6.2 17.8 Q7.85 18.6 9.65 18.85 L9.65 18.55 9.65 18.3 9.7 18.0 9.8 17.7 11.7 17.45 10.65 15.65 9.5 13.65 8.55 11.95 7.7 12.6 7.1 13.55 6.8 14.3 4.8 11.15 2.95 7.6 2.1 5.85 2.0 5.75 1.0 4.4 0.0 3.65 0.0 3.55 0.0 3.5 0.0 3.4 0.0 3.35 0.0 3.25 0.0 3.2 0.0 3.1 0.8 2.45 Q2.2 1.35 3.85 0.7 4.85 0.3 5.8 0.05 7.2 -0.25 8.0 0.8 8.7 1.7 8.65 3.0 L8.6 4.65 8.6 4.8 M16.8 12.4 L16.9 12.75 16.85 13.1 16.85 13.2 16.5 13.3 16.05 13.2 16.0 13.15 15.95 12.95 15.95 12.85 15.95 12.65 16.1 12.45 16.2 12.4 16.3 12.35 16.5 12.3 16.8 12.4 M3.6 21.5 L3.6 21.45 3.5 21.5 3.6 21.5" fill="url(#gradient0)" fill-rule="evenodd" stroke="none"/>
  </g>
  <defs>
    <radialGradient cx="0" cy="0" gradientTransform="matrix(0.0327, 0.0, 0.0, 0.0327, 14.3, 24.8)" gradientUnits="userSpaceOnUse" id="gradient0" r="819.2" spreadMethod="pad">
      <stop offset="0.01568627450980392" stop-color="#ffffff"/>
      <stop offset="1.0" stop-color="#1798ce"/>
    </radialGradient>
  </defs>
</svg>
