<?xml version="1.0" encoding="UTF-8" standalone="no"?>
<svg xmlns:xlink="http://www.w3.org/1999/xlink" height="20.65px" width="21.35px" xmlns="http://www.w3.org/2000/svg">
  <g transform="matrix(1.0, 0.0, 0.0, 1.0, 0.0, 0.0)">
    <path d="M12.35 0.05 Q13.65 0.35 16.55 1.95 L18.65 4.6 Q19.0 5.15 19.8 5.15 21.1 5.15 21.35 11.3 L21.05 14.35 Q20.4 17.0 18.55 17.0 L18.1 16.95 Q18.05 17.45 17.35 17.45 L16.55 17.15 16.3 16.8 Q16.3 16.5 16.65 16.4 L17.3 16.35 17.3 16.3 17.3 15.5 17.9 12.8 18.5 10.5 Q18.5 8.75 16.55 5.35 14.45 1.6 12.8 1.65 L14.85 3.4 Q16.45 4.95 16.45 5.25 L16.3 7.4 11.9 7.35 11.1 7.55 10.1 7.65 9.65 7.85 10.2 8.55 10.55 9.2 10.45 9.65 9.8 9.8 Q8.65 9.8 8.45 7.7 8.45 6.55 10.0 6.15 L14.45 6.5 15.05 6.35 12.75 3.75 Q10.7 1.65 10.7 1.0 10.7 -0.3 12.35 0.05 M13.7 9.2 Q15.65 9.2 16.1 11.3 16.1 12.05 15.4 13.15 14.5 14.5 13.25 14.5 L8.65 13.7 Q4.8 12.75 4.2 11.75 L3.8 9.9 Q3.55 8.6 2.75 8.1 2.45 8.45 2.4 9.45 L2.8 11.8 3.3 13.8 4.8 16.05 5.4 16.15 6.55 16.95 7.5 17.75 10.85 17.9 11.7 18.15 12.05 18.65 Q12.05 19.0 11.1 19.4 L9.35 20.0 9.4 20.2 9.35 20.6 8.85 20.65 Q7.95 20.65 6.0 19.0 L4.65 18.35 4.9 18.75 5.45 20.0 5.45 20.45 5.1 20.5 Q4.6 20.5 3.1 18.3 L1.1 15.35 Q0.7 14.85 0.35 13.0 0.0 11.3 0.0 10.3 L0.2 7.7 0.75 7.7 0.65 7.55 0.95 6.2 0.65 4.95 Q1.8 2.05 3.35 2.15 L3.65 3.4 Q3.65 4.35 2.75 6.2 L2.5 6.75 Q3.8 5.75 4.8 8.9 L5.15 10.55 Q5.35 11.7 5.9 11.75 L10.85 12.25 Q10.55 12.45 11.15 12.5 11.6 12.5 12.05 12.8 L12.85 13.1 Q13.9 13.1 14.45 11.45 14.45 10.95 14.0 10.85 L13.25 10.85 12.55 10.25 12.55 9.35 13.7 9.2 M14.05 19.05 L13.7 19.45 14.75 19.85 13.25 19.9 12.8 19.45 Q12.8 19.1 13.15 18.8 L14.0 18.7 14.05 19.05 M8.6 1.45 Q8.6 1.05 9.0 0.75 L10.2 0.65 10.25 1.25 Q10.25 2.0 9.6 2.0 8.5 2.0 8.6 1.45 M4.8 4.4 L5.25 4.85 5.1 5.25 4.85 5.3 4.5 5.25 Q4.5 4.65 4.8 4.4 M0.9 7.9 L0.95 8.3 1.0 8.0 0.9 7.9 M0.95 11.9 L1.5 14.2 Q2.0 15.65 2.9 16.45 L2.3 15.4 Q1.3 13.5 1.0 11.95 L0.95 11.9" fill="url(#gradient0)" fill-rule="evenodd" stroke="none"/>
  </g>
  <defs>
    <linearGradient gradientTransform="matrix(-0.0012, -0.0123, 0.0129, -0.0012, 10.6, 10.25)" gradientUnits="userSpaceOnUse" id="gradient0" spreadMethod="pad" x1="-819.2" x2="819.2">
      <stop offset="0.0" stop-color="#ffffff"/>
      <stop offset="0.40784313725490196" stop-color="#fbdb62"/>
      <stop offset="1.0" stop-color="#59e236"/>
    </linearGradient>
  </defs>
</svg>
