<?xml version="1.0" encoding="UTF-8" standalone="no"?>
<svg xmlns:xlink="http://www.w3.org/1999/xlink" height="26.15px" width="24.0px" xmlns="http://www.w3.org/2000/svg">
  <g transform="matrix(1.0, 0.0, 0.0, 1.0, 12.0, 13.05)">
    <path d="M1.9 -5.15 L2.7 -4.1 3.55 -3.15 4.35 -2.2 3.65 -3.2 2.85 -4.2 1.9 -5.15 M6.9 -0.1 L4.7 -2.35 6.55 0.3 8.4 2.95 10.05 5.3 Q9.65 3.85 8.8 2.5 L6.9 -0.1 M3.15 -0.65 L3.6 0.5 4.15 1.55 3.8 0.4 3.25 -0.65 2.65 -1.75 3.15 -0.65 M1.95 2.15 L1.8 2.05 1.85 2.15 1.9 2.2 1.95 2.3 2.0 2.35 1.95 2.15 M3.35 2.05 L3.95 3.1 4.5 4.1 4.15 3.05 3.55 1.9 Q3.25 1.3 2.8 1.0 L3.35 2.05 M6.7 1.8 Q6.15 0.65 5.25 -0.2 L3.45 -1.95 1.75 -3.75 3.4 -1.75 5.2 0.1 6.7 1.8 M4.8 0.35 L3.6 -0.9 4.5 1.35 Q4.85 2.55 5.85 3.35 6.8 4.1 7.75 4.3 L6.35 2.2 4.8 0.35 M3.1 0.3 L2.3 -1.65 1.1 -3.55 -0.5 -5.05 0.65 -3.2 Q1.2 -2.2 1.85 -1.35 L3.1 0.3 M5.55 3.45 L5.2 3.25 5.75 4.85 6.5 6.9 7.35 9.0 8.1 11.3 Q8.35 12.05 7.8 12.5 7.6 12.5 7.55 12.35 L7.35 11.95 7.2 11.7 7.05 11.3 6.95 10.9 6.9 10.8 6.75 10.7 6.7 10.65 6.6 10.6 5.65 7.75 4.1 4.35 1.9 0.6 Q0.7 -1.35 -1.1 -2.85 L0.85 -0.15 3.05 3.1 4.75 6.85 Q5.45 8.7 5.25 10.65 4.1 9.3 3.4 7.2 L1.75 2.8 Q0.55 -0.05 -1.6 -2.3 L-4.65 -5.25 -2.65 -2.45 -0.8 0.9 1.2 4.7 3.1 8.1 3.05 8.15 2.9 8.2 2.45 8.3 2.6 8.6 3.05 9.7 3.5 10.8 3.85 11.95 3.7 13.1 Q3.15 12.8 2.95 11.95 2.7 11.05 2.1 10.3 L0.85 8.8 0.65 8.55 0.3 8.55 0.8 9.45 1.45 10.35 Q1.7 10.7 1.6 11.1 0.4 10.75 -0.55 9.3 L-1.1 8.5 Q-2.9 8.2 -4.7 7.35 -7.95 5.7 -10.35 3.15 L-11.15 1.85 Q-11.5 1.05 -11.05 0.35 -10.75 2.6 -8.85 4.05 -6.15 6.1 -3.1 7.45 L-1.45 8.0 -3.1 5.8 Q-5.05 3.4 -7.8 1.9 L-10.1 0.25 Q-9.9 -0.2 -9.25 0.05 L-8.1 0.6 Q-9.4 -0.6 -10.05 -2.1 L-9.95 -2.1 -8.15 -0.2 -9.65 -1.95 -11.05 -3.85 Q-11.75 -4.9 -12.0 -6.05 L-11.95 -6.1 Q-10.55 -5.5 -9.3 -4.25 L-6.35 -1.55 -3.05 1.5 -2.3 2.2 -4.2 -0.05 -7.0 -2.85 Q-8.8 -4.55 -10.9 -5.85 -11.45 -6.2 -11.6 -6.7 -9.55 -6.25 -7.65 -4.4 L-3.95 -0.7 -0.5 3.4 0.35 4.4 Q-0.35 2.95 -1.25 1.65 -2.35 -0.1 -3.8 -1.6 -5.45 -3.3 -6.65 -5.3 L-8.2 -8.15 -8.65 -8.45 -9.2 -8.85 -9.55 -9.0 -9.7 -9.25 -9.65 -9.4 -9.15 -9.35 -8.85 -9.15 -8.6 -9.05 -8.6 -9.25 -7.7 -9.2 -6.55 -8.25 -5.5 -7.2 -4.65 -6.5 -5.4 -7.3 -6.35 -8.35 -7.4 -9.4 Q-8.1 -9.9 -8.4 -10.45 -7.35 -10.4 -6.35 -9.6 L-3.8 -7.65 -1.85 -5.85 -1.25 -5.3 -2.2 -6.45 -3.65 -7.95 -5.2 -9.5 -6.6 -10.65 -6.65 -10.75 -6.7 -10.85 -6.7 -10.9 -6.6 -11.0 -6.6 -11.05 -6.7 -11.1 -6.85 -11.25 -6.95 -11.35 -7.0 -11.4 -7.0 -11.45 -6.95 -11.55 -6.9 -11.6 -6.6 -11.65 -6.25 -11.5 -6.05 -11.4 -5.8 -11.25 -5.8 -11.3 -6.1 -11.55 -6.45 -11.8 -6.7 -11.95 -6.9 -12.2 -6.95 -12.25 -6.95 -12.35 -6.95 -12.4 -6.95 -12.5 -6.95 -12.55 -6.95 -12.65 -6.95 -12.7 -6.9 -12.8 -6.9 -12.85 -6.8 -12.95 -6.7 -13.0 -6.6 -13.05 -6.5 -13.05 Q-2.05 -11.25 1.7 -7.95 5.4 -4.75 8.5 -0.95 10.85 1.9 11.95 5.2 12.15 5.85 11.55 5.85 11.5 3.95 10.15 2.05 L6.65 -2.25 1.45 -7.4 -0.5 -8.9 2.75 -5.3 7.15 -0.55 Q9.3 1.85 10.45 4.8 10.95 5.95 10.6 7.1 10.2 7.1 10.1 6.7 L9.9 6.05 9.45 5.35 9.0 4.75 8.65 4.2 9.0 5.1 9.6 6.2 10.2 7.45 10.75 8.6 Q11.0 9.05 10.9 9.5 L10.15 8.9 9.6 7.9 9.05 6.75 8.55 5.7 8.25 5.05 7.3 4.75 6.3 4.1 5.55 3.45 M5.2 4.95 L5.3 5.25 5.4 5.5 5.5 5.8 5.55 5.9 5.5 5.6 5.35 5.3 5.25 5.0 5.2 4.95 M2.2 2.75 L3.1 4.95 3.95 7.1 4.75 9.05 4.2 6.9 3.3 4.7 2.2 2.75 M2.4 7.8 L2.2 7.65 2.2 7.7 2.45 7.85 2.4 7.8 M9.45 6.65 L9.35 6.55 9.45 6.75 9.55 7.0 9.7 7.2 9.75 7.3 9.7 7.1 9.55 6.85 9.45 6.65 M6.9 9.25 L6.65 8.55 6.8 9.3 7.05 10.0 7.35 10.7 7.2 10.0 6.9 9.25 M1.8 -4.7 L0.95 -5.75 0.1 -6.75 0.85 -5.55 1.75 -4.45 2.7 -3.55 1.8 -4.7 M-6.35 -12.55 Q-5.9 -11.85 -5.05 -11.3 L-3.55 -10.2 -2.25 -9.0 -3.2 -10.1 -4.1 -11.0 -5.2 -12.05 -5.3 -12.2 -5.9 -12.55 -6.35 -12.55 M-7.95 -8.8 L-7.75 -8.5 -7.4 -8.25 -7.1 -8.05 -7.0 -8.05 -7.35 -8.3 -7.6 -8.55 -7.95 -8.8 M-6.45 -7.45 L-6.4 -7.35 -6.3 -7.3 -6.25 -7.2 -6.2 -7.2 -6.25 -7.3 -6.35 -7.35 -6.5 -7.5 -6.55 -7.55 -6.55 -7.5 -6.45 -7.45 M-4.45 -5.75 L-4.6 -5.9 -4.65 -5.9 -4.55 -5.8 -4.45 -5.75 -4.4 -5.65 -4.3 -5.6 -4.45 -5.75 M-3.6 -5.95 Q-2.5 -4.65 -1.2 -3.5 L1.1 -1.35 Q0.45 -2.85 -0.65 -4.0 L-3.05 -6.45 Q-4.35 -7.75 -5.9 -8.5 L-3.6 -5.95 M-7.3 -7.45 L-5.65 -4.65 -3.6 -2.1 -1.75 0.15 -3.35 -2.7 -5.15 -5.25 -7.3 -7.45 M0.65 -7.0 L-0.35 -8.25 -1.45 -9.45 -2.6 -10.4 -1.45 -9.25 -0.4 -8.0 0.65 -7.0 M-1.65 -8.0 L-1.25 -7.55 -0.75 -7.1 -0.35 -6.65 -0.6 -7.05 -0.95 -7.45 -1.65 -8.0 M-2.5 -3.75 L-1.85 -3.0 -2.25 -3.65 -2.85 -4.35 -3.6 -4.95 -3.05 -4.4 -2.5 -3.75 M-3.0 -8.5 Q-4.1 -9.65 -5.35 -10.2 L-3.3 -8.3 -1.25 -6.4 0.6 -4.7 Q-0.05 -5.75 -1.0 -6.6 L-3.0 -8.5 M-5.8 1.85 L-1.15 5.25 0.55 6.45 Q-0.25 5.2 -1.3 4.05 -3.65 1.4 -6.3 -0.85 L-11.25 -5.2 Q-9.45 -2.25 -7.15 0.4 L-5.8 1.85 M-2.0 5.2 Q-0.35 6.5 1.05 8.15 L1.5 8.1 1.15 7.4 -2.85 4.5 -2.0 5.2 M-2.55 5.75 L-1.75 6.8 -0.9 7.85 -0.7 8.1 -0.55 8.15 -0.85 7.7 -1.7 6.7 -2.55 5.75 M-0.35 8.55 L-0.15 8.8 -0.25 8.55 -0.35 8.55 M0.1 8.15 L0.35 8.15 -0.65 7.05 -0.8 6.9 -0.35 7.6 0.1 8.15 M1.35 8.5 L2.15 9.6 1.65 8.45 1.35 8.5" fill="#ffffff" fill-rule="evenodd" stroke="none"/>
  </g>
</svg>
