<?xml version="1.0" encoding="UTF-8" standalone="no"?>
<svg xmlns:xlink="http://www.w3.org/1999/xlink" height="23.1px" width="24.55px" xmlns="http://www.w3.org/2000/svg">
  <g transform="matrix(1.0, 0.0, 0.0, 1.0, 0.0, 0.0)">
    <path d="M10.35 8.7 Q7.05 12.15 6.55 12.95 5.7 14.2 2.75 19.6 L3.4 19.05 3.55 18.95 Q4.0 18.45 4.6 18.0 7.2 14.9 11.4 11.1 L24.55 0.0 12.15 11.5 8.0 15.5 Q12.25 12.65 19.4 9.1 17.25 10.4 10.7 14.65 L5.7 17.9 5.75 18.25 Q5.75 18.8 4.25 19.75 L3.65 20.15 4.0 20.25 4.2 20.1 4.55 19.75 5.3 20.4 4.9 20.75 8.55 20.1 8.65 20.25 Q8.35 20.8 6.2 21.4 L4.5 21.8 3.65 22.1 Q3.4 22.6 2.45 22.6 L1.55 22.5 1.5 22.5 Q0.6 22.25 0.25 21.5 L0.0 20.25 Q0.0 17.9 1.1 18.65 L1.45 16.5 1.4 16.5 1.3 15.95 1.3 15.6 1.4 15.5 1.65 15.5 Q2.4 11.9 3.65 10.75 L2.75 16.2 2.6 17.25 6.1 12.8 Q11.55 6.05 13.65 4.25 13.2 5.75 10.35 8.7 M0.55 12.1 Q0.25 12.4 0.25 11.75 0.25 11.35 0.6 11.3 L1.25 11.25 1.5 11.6 0.55 12.1 M5.05 8.0 L5.9 8.25 5.5 9.35 5.25 9.45 Q5.05 9.25 5.05 8.65 L5.05 8.0 M7.15 18.0 L7.05 17.55 Q7.05 17.2 8.05 16.75 L8.4 16.85 8.55 17.3 8.4 17.9 7.55 18.15 7.15 18.0 M11.55 19.9 L11.3 20.25 Q10.7 20.25 10.7 19.85 L11.55 19.9 M11.8 22.9 L10.9 23.0 Q11.3 22.35 11.65 22.15 L11.9 22.5 11.8 22.9 M14.55 21.25 L14.4 20.65 Q14.65 20.4 15.05 20.65 L14.9 21.25 14.55 21.25" fill="#ffffff" fill-rule="evenodd" stroke="none"/>
  </g>
</svg>
