<?xml version="1.0" encoding="UTF-8" standalone="no"?>
<svg xmlns:xlink="http://www.w3.org/1999/xlink" height="24.0px" width="15.4px" xmlns="http://www.w3.org/2000/svg">
  <g transform="matrix(1.0, 0.0, 0.0, 1.0, 0.0, 0.0)">
    <path d="M15.4 8.85 Q15.4 9.65 12.95 12.25 L10.1 15.0 10.1 15.15 12.8 15.85 Q13.6 16.15 13.6 16.8 L12.6 19.95 Q11.6 22.85 11.5 23.75 11.6 24.0 11.0 24.0 9.85 24.0 10.1 21.7 L10.2 19.65 11.15 17.3 6.75 17.75 5.75 17.65 5.7 16.9 Q5.7 15.75 7.95 12.9 9.85 10.5 10.9 9.65 4.8 10.35 3.05 11.35 L0.5 13.15 0.15 13.0 Q0.0 12.95 0.0 12.55 0.0 10.55 2.2 6.2 4.2 2.2 5.7 1.75 8.25 -1.65 8.25 1.5 8.25 1.95 6.45 4.7 L4.5 7.55 Q4.9 7.25 5.65 7.0 L13.25 6.4 Q14.55 6.4 15.0 7.0 L15.25 7.55 15.05 8.05 Q15.4 8.35 15.4 8.85" fill="url(#gradient0)" fill-rule="evenodd" stroke="none"/>
  </g>
  <defs>
    <linearGradient gradientTransform="matrix(9.0E-4, 0.0147, -0.0095, 6.0E-4, 7.8, 12.0)" gradientUnits="userSpaceOnUse" id="gradient0" spreadMethod="pad" x1="-819.2" x2="819.2">
      <stop offset="0.0" stop-color="#501f1f"/>
      <stop offset="1.0" stop-color="#050303"/>
    </linearGradient>
  </defs>
</svg>
