<?xml version="1.0" encoding="UTF-8" standalone="no"?>
<svg xmlns:xlink="http://www.w3.org/1999/xlink" height="62.55px" width="37.9px" xmlns="http://www.w3.org/2000/svg">
  <g transform="matrix(1.0, 0.0, 0.0, 1.0, 19.55, 15.3)">
    <path d="M-10.55 -3.6 L-10.65 -3.7 Q-11.05 -4.15 -13.25 -4.35 -7.25 -7.9 -4.1 -15.3 7.3 -1.45 14.8 35.7 8.05 21.3 -3.0 6.2 L-10.55 -3.6" fill="url(#gradient0)" fill-rule="evenodd" stroke="none"/>
    <path d="M-10.55 -3.6 L-3.0 6.2 -5.85 6.75 Q1.6 15.75 5.3 25.5 -2.8 13.45 -16.85 3.25 L-10.55 -3.6" fill="url(#gradient1)" fill-rule="evenodd" stroke="none"/>
    <path d="M-3.0 6.2 Q8.05 21.3 14.8 35.7 7.3 -1.45 -4.1 -15.3 -7.25 -7.9 -13.25 -4.35 -11.05 -4.15 -10.65 -3.7 L-10.55 -3.6 -3.0 6.2 -5.85 6.75 Q1.6 15.75 5.3 25.5 -2.8 13.45 -16.85 3.25 L-10.55 -3.6" fill="none" stroke="#000000" stroke-linecap="round" stroke-linejoin="round" stroke-width="0.05"/>
    <path d="M-8.05 18.7 L-11.25 19.45 -19.05 9.65 -16.55 -5.05 -3.5 -13.4 4.85 -12.75 17.85 29.6 14.6 30.95 9.65 33.0 -2.45 17.4 -8.05 18.7" fill="url(#gradient2)" fill-rule="evenodd" stroke="none"/>
    <path d="M-8.05 18.7 L-2.45 17.4 9.65 33.0 14.6 30.95 15.65 38.2 15.2 38.4 8.55 40.75 6.7 41.4 -8.05 18.7" fill="url(#gradient3)" fill-rule="evenodd" stroke="none"/>
    <path d="M15.2 38.4 L15.4 38.95 16.95 44.8 11.25 46.75 8.55 40.75 15.2 38.4" fill="url(#gradient4)" fill-rule="evenodd" stroke="none"/>
    <path d="M14.6 30.95 L17.85 29.6 4.85 -12.75 -3.5 -13.4 -16.55 -5.05 -19.05 9.65 -11.25 19.45 -8.05 18.7 -2.45 17.4 9.65 33.0 14.6 30.95 15.65 38.2 15.2 38.4 8.55 40.75 6.7 41.4 -8.05 18.7 M15.4 38.95 L16.95 44.8 11.25 46.75 8.55 40.75" fill="none" stroke="#000000" stroke-linecap="round" stroke-linejoin="round" stroke-width="1.0"/>
    <path d="M-11.05 18.3 L-2.15 3.8 M-17.1 -0.1 L10.2 5.8" fill="none" stroke="#000000" stroke-linecap="round" stroke-linejoin="round" stroke-width="1.0"/>
  </g>
  <defs>
    <radialGradient cx="0" cy="0" gradientTransform="matrix(0.0404, 0.0, 0.0, 0.0404, 5.9, 4.4)" gradientUnits="userSpaceOnUse" id="gradient0" r="819.2" spreadMethod="pad">
      <stop offset="0.0" stop-color="#806a3c"/>
      <stop offset="0.2549019607843137" stop-color="#39361c"/>
      <stop offset="0.6235294117647059" stop-color="#17130b"/>
      <stop offset="1.0" stop-color="#000000"/>
    </radialGradient>
    <radialGradient cx="0" cy="0" gradientTransform="matrix(0.0297, 0.0, 0.0, 0.0297, -9.65, 6.3)" gradientUnits="userSpaceOnUse" id="gradient1" r="819.2" spreadMethod="pad">
      <stop offset="0.0" stop-color="#806a3c"/>
      <stop offset="0.2549019607843137" stop-color="#39361c"/>
      <stop offset="0.6235294117647059" stop-color="#17130b"/>
      <stop offset="1.0" stop-color="#000000"/>
    </radialGradient>
    <radialGradient cx="0" cy="0" gradientTransform="matrix(0.0509, 0.0, 0.0, 0.0509, -2.5, -6.8)" gradientUnits="userSpaceOnUse" id="gradient2" r="819.2" spreadMethod="pad">
      <stop offset="0.0" stop-color="#ffffff"/>
      <stop offset="0.43529411764705883" stop-color="#7c9aad"/>
      <stop offset="0.44313725490196076" stop-color="#58607c"/>
      <stop offset="0.6470588235294118" stop-color="#7e8aa3"/>
      <stop offset="1.0" stop-color="#c2cde7"/>
    </radialGradient>
    <radialGradient cx="0" cy="0" gradientTransform="matrix(0.0336, 0.0, 0.0, 0.0336, 13.5, 35.8)" gradientUnits="userSpaceOnUse" id="gradient3" r="819.2" spreadMethod="pad">
      <stop offset="0.0" stop-color="#ffffff"/>
      <stop offset="0.42745098039215684" stop-color="#836549"/>
      <stop offset="0.44313725490196076" stop-color="#392d24"/>
      <stop offset="0.6980392156862745" stop-color="#7a615a"/>
      <stop offset="1.0" stop-color="#a27a77"/>
    </radialGradient>
    <radialGradient cx="0" cy="0" gradientTransform="matrix(0.007, 0.0, 0.0, 0.007, 13.8, 42.95)" gradientUnits="userSpaceOnUse" id="gradient4" r="819.2" spreadMethod="pad">
      <stop offset="0.0" stop-color="#313546"/>
      <stop offset="1.0" stop-color="#111111"/>
    </radialGradient>
  </defs>
</svg>
