<?xml version="1.0" encoding="UTF-8" standalone="no"?>
<svg xmlns:xlink="http://www.w3.org/1999/xlink" height="50.65px" width="35.8px" xmlns="http://www.w3.org/2000/svg">
  <g transform="matrix(1.0, 0.0, 0.0, 1.0, 19.35, 34.3)">
    <path d="M-14.0 -15.75 L-3.15 -24.9 -2.4 -33.8 9.55 -22.25 15.95 -0.25 11.45 15.85 7.3 6.1 2.45 3.15 -18.85 11.7 -16.3 5.75 -3.55 -5.45 -5.0 -12.2 -14.0 -15.75" fill="url(#gradient0)" fill-rule="evenodd" stroke="none"/>
    <path d="M-14.0 -15.75 L-3.15 -24.9 -2.4 -33.8 9.55 -22.25 15.95 -0.25 11.45 15.85 7.3 6.1 2.45 3.15 -18.85 11.7 -16.3 5.75 -3.55 -5.45 -5.0 -12.2 -14.0 -15.75 -14.75 -15.15" fill="none" stroke="#000000" stroke-linecap="round" stroke-linejoin="round" stroke-width="1.0"/>
  </g>
  <defs>
    <radialGradient cx="0" cy="0" gradientTransform="matrix(0.0471, 0.0, 0.0, 0.0471, -2.25, -20.2)" gradientUnits="userSpaceOnUse" id="gradient0" r="819.2" spreadMethod="pad">
      <stop offset="0.0" stop-color="#ffffff"/>
      <stop offset="0.43529411764705883" stop-color="#7c9aad"/>
      <stop offset="0.44313725490196076" stop-color="#58607c"/>
      <stop offset="0.6470588235294118" stop-color="#7e8aa3"/>
      <stop offset="1.0" stop-color="#c2cde7"/>
    </radialGradient>
  </defs>
</svg>
