<?xml version="1.0" encoding="UTF-8" standalone="no"?>
<svg xmlns:xlink="http://www.w3.org/1999/xlink" height="58.9px" width="33.9px" xmlns="http://www.w3.org/2000/svg">
  <g transform="matrix(1.0, 0.0, 0.0, 1.0, 17.85, 29.5)">
    <path d="M-3.9 19.6 L-8.0 5.75 3.95 -4.35 14.4 16.2 15.55 26.7 2.85 28.9 -3.9 19.6" fill="url(#gradient0)" fill-rule="evenodd" stroke="none"/>
    <path d="M-4.6 -15.65 Q-6.8 -13.3 -9.9 -13.3 -12.95 -13.3 -15.15 -15.65 -17.35 -17.95 -17.35 -21.15 -17.35 -24.35 -15.15 -26.7 -12.95 -29.0 -9.9 -29.0 -6.8 -29.0 -4.6 -26.7 -2.4 -24.35 -2.4 -21.15 -2.4 -17.95 -4.6 -15.65" fill="url(#gradient1)" fill-rule="evenodd" stroke="none"/>
    <path d="M-4.6 -15.65 Q-6.8 -13.3 -9.9 -13.3 -12.95 -13.3 -15.15 -15.65 -17.35 -17.95 -17.35 -21.15 -17.35 -24.35 -15.15 -26.7 -12.95 -29.0 -9.9 -29.0 -6.8 -29.0 -4.6 -26.7 -2.4 -24.35 -2.4 -21.15 -2.4 -17.95 -4.6 -15.65 M-3.9 19.6 L2.85 28.9 15.55 26.7 14.4 16.2 3.95 -4.35 -8.0 5.75 -3.9 19.6 Z" fill="none" stroke="#000000" stroke-linecap="round" stroke-linejoin="round" stroke-width="1.0"/>
  </g>
  <defs>
    <radialGradient cx="0" cy="0" gradientTransform="matrix(0.0347, 0.0, 0.0, 0.0347, 11.2, 23.15)" gradientUnits="userSpaceOnUse" id="gradient0" r="819.2" spreadMethod="pad">
      <stop offset="0.0" stop-color="#262626"/>
      <stop offset="1.0" stop-color="#111111"/>
    </radialGradient>
    <radialGradient cx="0" cy="0" gradientTransform="matrix(0.017, 0.0, 0.0, 0.017, -13.1, -26.15)" gradientUnits="userSpaceOnUse" id="gradient1" r="819.2" spreadMethod="pad">
      <stop offset="0.0" stop-color="#ffffff"/>
      <stop offset="0.42745098039215684" stop-color="#836549"/>
      <stop offset="0.44313725490196076" stop-color="#392d24"/>
      <stop offset="0.6980392156862745" stop-color="#7a615a"/>
      <stop offset="1.0" stop-color="#a27a77"/>
    </radialGradient>
  </defs>
</svg>
