<?xml version="1.0" encoding="UTF-8" standalone="no"?>
<svg xmlns:xlink="http://www.w3.org/1999/xlink" height="42.35px" width="69.75px" xmlns="http://www.w3.org/2000/svg">
  <g transform="matrix(1.0, 0.0, 0.0, 1.0, 56.5, 35.65)">
    <path d="M-55.95 -1.05 L-56.0 -1.1 -55.85 -1.3 -55.95 -1.05 M-48.15 -14.2 L-48.6 -14.85 -48.05 -14.5 -48.15 -14.2" fill="#cccccc" fill-rule="evenodd" stroke="none"/>
    <path d="M-48.6 -14.85 L-56.0 -25.05 -56.0 -25.35 Q-46.5 -25.0 -37.65 -27.9 -30.15 -30.35 -23.1 -35.15 L3.4 -23.9 12.75 -13.85 12.5 -13.4 Q-15.1 -18.2 -31.7 -10.85 L-32.1 -10.65 -32.65 -10.45 Q-45.6 -10.15 -48.0 -14.45 L-48.05 -14.5 -48.6 -14.85 M-32.1 -10.65 L-33.05 -19.7 -37.65 -27.9 -33.05 -19.7 Q-20.65 -25.95 -2.95 -26.15 -20.65 -25.95 -33.05 -19.7 L-32.1 -10.65" fill="url(#gradient0)" fill-rule="evenodd" stroke="none"/>
    <path d="M-48.05 -14.5 L-48.0 -14.45 -48.15 -14.2 -48.05 -14.5" fill="url(#gradient1)" fill-rule="evenodd" stroke="none"/>
    <path d="M-55.85 -1.3 L-48.15 -14.2 -48.0 -14.45 Q-45.6 -10.15 -32.65 -10.45 L-55.85 -1.3" fill="#5d6581" fill-rule="evenodd" stroke="none"/>
    <path d="M12.5 -13.4 L4.9 -1.5 -9.0 3.35 Q-24.0 -3.5 -32.8 6.2 L-55.95 -1.05 -55.85 -1.3 -32.65 -10.45 -32.1 -10.65 -31.7 -10.85 Q-15.1 -18.2 12.5 -13.4" fill="url(#gradient2)" fill-rule="evenodd" stroke="none"/>
    <path d="M12.5 -13.4 L4.9 -1.5 -9.0 3.35 Q-24.0 -3.5 -32.8 6.2 L-55.95 -1.05 -56.0 -1.1 -55.85 -1.3 -48.15 -14.2 -48.6 -14.85 -56.0 -25.05 M-56.0 -25.35 Q-46.5 -25.0 -37.65 -27.9 -30.15 -30.35 -23.1 -35.15 L3.4 -23.9 12.75 -13.85 12.5 -13.4 Q-15.1 -18.2 -31.7 -10.85 L-32.1 -10.65 -32.65 -10.45 -55.85 -1.3 M-48.05 -14.5 L-48.0 -14.45 M-48.05 -14.5 L-48.6 -14.85 M-37.65 -27.9 L-33.05 -19.7 Q-20.65 -25.95 -2.95 -26.15 M-33.05 -19.7 L-32.1 -10.65" fill="none" stroke="#000000" stroke-linecap="round" stroke-linejoin="round" stroke-width="1.0"/>
  </g>
  <defs>
    <radialGradient cx="0" cy="0" gradientTransform="matrix(0.0601, 0.0, 0.0, 0.0601, -6.75, -24.3)" gradientUnits="userSpaceOnUse" id="gradient0" r="819.2" spreadMethod="pad">
      <stop offset="0.0" stop-color="#ffffff"/>
      <stop offset="0.43529411764705883" stop-color="#7c9aad"/>
      <stop offset="0.44313725490196076" stop-color="#58607c"/>
      <stop offset="0.6470588235294118" stop-color="#7e8aa3"/>
      <stop offset="1.0" stop-color="#c2cde7"/>
    </radialGradient>
    <radialGradient cx="0" cy="0" gradientTransform="matrix(0.0187, 0.0, 0.0, 0.0187, -44.5, -11.6)" gradientUnits="userSpaceOnUse" id="gradient1" r="819.2" spreadMethod="pad">
      <stop offset="0.0" stop-color="#ffffff"/>
      <stop offset="0.42745098039215684" stop-color="#836549"/>
      <stop offset="0.44313725490196076" stop-color="#392d24"/>
      <stop offset="0.6980392156862745" stop-color="#7a615a"/>
      <stop offset="1.0" stop-color="#a27a77"/>
    </radialGradient>
    <radialGradient cx="0" cy="0" gradientTransform="matrix(0.0551, 0.0, 0.0, 0.0551, -10.85, -3.0)" gradientUnits="userSpaceOnUse" id="gradient2" r="819.2" spreadMethod="pad">
      <stop offset="0.0" stop-color="#313546"/>
      <stop offset="1.0" stop-color="#111111"/>
    </radialGradient>
  </defs>
</svg>
