<?xml version="1.0" encoding="UTF-8" standalone="no"?>
<svg xmlns:xlink="http://www.w3.org/1999/xlink" height="51.0px" width="31.65px" xmlns="http://www.w3.org/2000/svg">
  <g transform="matrix(1.0, 0.0, 0.0, 1.0, 16.85, 15.3)">
    <path d="M-10.55 -3.6 L-10.65 -3.7 Q-11.05 -4.15 -13.25 -4.35 -7.25 -7.9 -4.1 -15.3 7.3 -1.45 14.8 35.7 8.05 21.3 -3.0 6.2 L-10.55 -3.6" fill="url(#gradient0)" fill-rule="evenodd" stroke="none"/>
    <path d="M-10.55 -3.6 L-3.0 6.2 -5.85 6.75 Q1.6 15.75 5.3 25.5 -2.8 13.45 -16.85 3.25 L-10.55 -3.6" fill="url(#gradient1)" fill-rule="evenodd" stroke="none"/>
    <path d="M-3.0 6.2 Q8.05 21.3 14.8 35.7 7.3 -1.45 -4.1 -15.3 -7.25 -7.9 -13.25 -4.35 -11.05 -4.15 -10.65 -3.7 L-10.55 -3.6 -3.0 6.2 -5.85 6.75 Q1.6 15.75 5.3 25.5 -2.8 13.45 -16.85 3.25 L-10.55 -3.6" fill="none" stroke="#000000" stroke-linecap="round" stroke-linejoin="round" stroke-width="0.05"/>
  </g>
  <defs>
    <radialGradient cx="0" cy="0" gradientTransform="matrix(0.0404, 0.0, 0.0, 0.0404, 5.9, 4.4)" gradientUnits="userSpaceOnUse" id="gradient0" r="819.2" spreadMethod="pad">
      <stop offset="0.0" stop-color="#806a3c"/>
      <stop offset="0.2549019607843137" stop-color="#39361c"/>
      <stop offset="0.6235294117647059" stop-color="#17130b"/>
      <stop offset="1.0" stop-color="#000000"/>
    </radialGradient>
    <radialGradient cx="0" cy="0" gradientTransform="matrix(0.0297, 0.0, 0.0, 0.0297, -9.65, 6.3)" gradientUnits="userSpaceOnUse" id="gradient1" r="819.2" spreadMethod="pad">
      <stop offset="0.0" stop-color="#806a3c"/>
      <stop offset="0.2549019607843137" stop-color="#39361c"/>
      <stop offset="0.6235294117647059" stop-color="#17130b"/>
      <stop offset="1.0" stop-color="#000000"/>
    </radialGradient>
  </defs>
</svg>
