<?xml version="1.0" encoding="UTF-8" standalone="no"?>
<svg xmlns:xlink="http://www.w3.org/1999/xlink" height="61.5px" width="31.65px" xmlns="http://www.w3.org/2000/svg">
  <g transform="matrix(1.0, 0.0, 0.0, 1.0, 17.2, 29.4)">
    <path d="M-6.0 -27.2 Q-4.05 -24.95 -4.05 -21.85 -4.05 -18.7 -6.0 -16.5 -7.95 -14.3 -10.65 -14.3 -11.95 -14.3 -13.1 -14.85 -14.25 -15.4 -15.25 -16.5 L-15.35 -16.65 Q-17.2 -18.8 -17.2 -21.85 -17.2 -24.95 -15.25 -27.2 -13.3 -29.4 -10.65 -29.4 -7.95 -29.4 -6.0 -27.2" fill="url(#gradient0)" fill-rule="evenodd" stroke="none"/>
    <path d="M-6.0 -27.2 Q-4.05 -24.95 -4.05 -21.85 -4.05 -18.7 -6.0 -16.5 -7.95 -14.3 -10.65 -14.3 -11.95 -14.3 -13.1 -14.85 -14.25 -15.4 -15.25 -16.5 L-15.35 -16.65 Q-17.2 -18.8 -17.2 -21.85 -17.2 -24.95 -15.25 -27.2 -13.3 -29.4 -10.65 -29.4 -7.95 -29.4 -6.0 -27.2 Z" fill="none" stroke="#000000" stroke-linecap="round" stroke-linejoin="round" stroke-width="0.05"/>
    <path d="M9.95 15.2 Q10.65 20.65 14.45 25.45 14.05 28.95 12.3 30.35 7.45 33.6 3.1 30.8 L1.65 23.1 -5.55 6.55 Q1.8 12.85 5.6 21.2 L9.95 15.2" fill="#141614" fill-rule="evenodd" stroke="none"/>
    <path d="M-5.55 6.55 L-6.05 6.15 Q-7.95 4.55 -10.1 3.1 -12.65 -3.85 -13.1 -11.15 L-13.15 -16.65 -13.15 -16.7 Q-8.1 -15.15 -4.5 -20.4 -2.3 -24.2 -3.4 -29.4 11.4 -10.05 11.2 13.4 L9.95 15.2 Q10.65 20.65 14.45 25.45 14.05 28.95 12.3 30.35 7.45 33.6 3.1 30.8 L1.65 23.1 -5.55 6.55 Q1.8 12.85 5.6 21.2 L9.95 15.2" fill="none" stroke="#000000" stroke-linecap="round" stroke-linejoin="round" stroke-width="0.05"/>
  </g>
  <defs>
    <radialGradient cx="0" cy="0" gradientTransform="matrix(0.0166, 0.0, 0.0, 0.0166, -10.45, -27.25)" gradientUnits="userSpaceOnUse" id="gradient0" r="819.2" spreadMethod="pad">
      <stop offset="0.0" stop-color="#ffffff"/>
      <stop offset="0.16862745098039217" stop-color="#606364"/>
      <stop offset="0.6392156862745098" stop-color="#111111"/>
      <stop offset="1.0" stop-color="#000000"/>
    </radialGradient>
  </defs>
</svg>
