<?xml version="1.0" encoding="UTF-8" standalone="no"?>
<svg xmlns:xlink="http://www.w3.org/1999/xlink" height="30.45px" width="35.75px" xmlns="http://www.w3.org/2000/svg">
  <g transform="matrix(1.0, 0.0, 0.0, 1.0, 11.45, 14.9)">
    <path d="M10.1 -7.8 L9.9 -8.05 Q9.5 -12.7 12.2 -14.9 11.55 -10.45 13.6 -3.2 L10.1 -7.8" fill="url(#gradient0)" fill-rule="evenodd" stroke="none"/>
    <path d="M9.9 -8.05 Q9.5 -12.7 12.2 -14.9 11.55 -10.45 13.6 -3.2 L10.1 -7.8" fill="none" stroke="#000000" stroke-linecap="round" stroke-linejoin="round" stroke-width="0.05"/>
    <path d="M13.4 4.35 L13.05 4.25 13.1 4.15 13.4 4.35" fill="#a7c79e" fill-rule="evenodd" stroke="none"/>
    <path d="M21.65 0.25 L24.3 2.0 21.15 7.45 13.4 4.35 15.1 3.7 20.7 6.25 22.75 3.6 21.2 1.85 21.65 0.3 21.65 0.25" fill="#1a1a1a" fill-rule="evenodd" stroke="none"/>
    <path d="M3.95 6.6 L4.1 6.45 4.2 6.5 3.95 6.6" fill="#cadcc5" fill-rule="evenodd" stroke="none"/>
    <path d="M13.9 -2.7 L13.95 -2.8 14.1 -2.75 13.9 -2.7" fill="url(#gradient1)" fill-rule="evenodd" stroke="none"/>
    <path d="M21.55 0.25 L21.65 0.25 21.65 0.3 21.55 0.25" fill="url(#gradient2)" fill-rule="evenodd" stroke="none"/>
    <path d="M13.75 -4.95 L9.6 -4.6 7.85 -3.6 Q11.4 -3.75 13.0 -2.65 L10.45 -2.45 6.45 0.8 6.15 3.2 4.1 6.45 3.95 6.6 3.75 6.7 Q-1.75 9.25 -3.9 12.55 -4.0 6.5 -0.1 3.5 -5.4 2.75 -11.45 4.6 -9.2 1.4 -9.2 -0.05 -1.1 -3.85 -9.65 -6.15 -6.35 -9.3 -1.8 -8.1 L7.25 -8.55 Q9.75 -8.55 12.0 -7.35 L13.75 -4.95" fill="url(#gradient3)" fill-rule="evenodd" stroke="none"/>
    <path d="M4.1 6.45 L6.15 3.2 6.45 0.8 10.45 -2.45 13.0 -2.65 13.9 -2.7 14.1 -2.75 13.95 -2.8 15.8 -3.5 21.4 0.1 21.55 0.25 21.65 0.3 21.2 1.85 22.75 3.6 20.7 6.25 15.1 3.7 13.4 4.35 13.1 4.15 13.05 4.25 12.9 4.4 9.75 8.0 8.55 9.15 Q6.8 11.55 9.2 15.55 5.4 13.55 4.2 6.55 L4.2 6.5 4.1 6.45" fill="url(#gradient4)" fill-rule="evenodd" stroke="none"/>
    <path d="M13.75 -4.95 L12.0 -7.35 Q9.75 -8.55 7.25 -8.55 L-1.8 -8.1 Q-6.35 -9.3 -9.65 -6.15 -1.1 -3.85 -9.2 -0.05 -9.2 1.4 -11.45 4.6 -5.4 2.75 -0.1 3.5 -4.0 6.5 -3.9 12.55 -1.75 9.25 3.75 6.7 L3.95 6.6 M15.8 -3.5 L13.8 -4.85 13.75 -4.95 M21.65 0.25 L24.3 2.0 21.15 7.45 13.4 4.35 13.05 4.25 12.9 4.4 9.75 8.0 8.55 9.15 Q6.8 11.55 9.2 15.55 5.4 13.55 4.2 6.55 L4.2 6.5 M21.55 0.25 L21.65 0.25 M15.8 -3.5 L21.4 0.1" fill="none" stroke="#000000" stroke-linecap="round" stroke-linejoin="round" stroke-width="0.05"/>
  </g>
  <defs>
    <radialGradient cx="0" cy="0" gradientTransform="matrix(0.0114, 0.0, 0.0, 0.0114, 11.05, -11.7)" gradientUnits="userSpaceOnUse" id="gradient0" r="819.2" spreadMethod="pad">
      <stop offset="0.0" stop-color="#404040"/>
      <stop offset="1.0" stop-color="#13110f"/>
    </radialGradient>
    <radialGradient cx="0" cy="0" gradientTransform="matrix(0.0268, 0.0, 0.0, 0.0268, 3.1, 13.4)" gradientUnits="userSpaceOnUse" id="gradient1" r="819.2" spreadMethod="pad">
      <stop offset="0.0" stop-color="#a7c79e"/>
      <stop offset="1.0" stop-color="#718d69"/>
    </radialGradient>
    <radialGradient color-interpolation="linearRGB" cx="0" cy="0" gradientTransform="matrix(0.013, 0.0, 0.0, 0.013, 14.4, 7.25)" gradientUnits="userSpaceOnUse" id="gradient2" r="819.2" spreadMethod="pad">
      <stop offset="0.22745098039215686" stop-color="#ffffff"/>
      <stop offset="1.0" stop-color="#f9d8a8"/>
    </radialGradient>
    <radialGradient cx="0" cy="0" gradientTransform="matrix(0.0268, 0.0, 0.0, 0.0268, 3.1, 13.4)" gradientUnits="userSpaceOnUse" id="gradient3" r="819.2" spreadMethod="pad">
      <stop offset="0.0" stop-color="#404040"/>
      <stop offset="1.0" stop-color="#13110f"/>
    </radialGradient>
    <radialGradient color-interpolation="linearRGB" cx="0" cy="0" gradientTransform="matrix(0.021, 0.0082, -0.0047, 0.0121, 16.15, 6.35)" gradientUnits="userSpaceOnUse" id="gradient4" r="819.2" spreadMethod="pad">
      <stop offset="0.0" stop-color="#c2a881"/>
      <stop offset="0.3843137254901961" stop-color="#a58274"/>
      <stop offset="1.0" stop-color="#784743"/>
    </radialGradient>
  </defs>
</svg>
