<?xml version="1.0" encoding="UTF-8" standalone="no"?>
<svg xmlns:xlink="http://www.w3.org/1999/xlink" height="15.65px" width="16.4px" xmlns="http://www.w3.org/2000/svg">
  <g transform="matrix(1.0, 0.0, 0.0, 1.0, 8.2, 7.85)">
    <path d="M-1.95 -7.5 L-1.8 -7.65 -1.6 -7.75 -1.25 -7.8 -1.25 -7.85 Q0.45 -7.1 1.8 -5.8 3.15 -4.45 3.75 -2.65 L4.25 -0.95 5.35 -0.2 6.75 1.15 Q7.55 1.85 7.45 2.8 L7.2 2.85 7.5 3.15 8.2 4.15 Q7.6 4.45 7.2 3.7 L6.6 2.8 Q5.95 2.65 5.45 1.95 L3.7 0.2 Q3.25 -0.2 3.2 -0.5 L2.3 -1.55 Q1.15 -3.35 -0.55 -4.5 -2.4 -5.75 -1.95 -7.5 M-7.3 -6.1 Q-3.8 -4.8 -2.35 -1.5 -1.0 1.45 1.95 3.55 4.3 5.25 5.95 7.5 L6.0 7.8 Q2.65 7.15 -0.1 4.35 -1.6 2.8 -3.3 1.55 -4.05 1.0 -4.4 0.05 -5.35 -2.5 -7.7 -4.2 -8.55 -4.85 -8.0 -5.75 L-7.85 -5.9 -7.65 -6.0 -7.3 -6.05 -7.3 -6.1 M-7.1 2.25 Q-6.0 2.6 -5.05 3.25 L-3.1 4.65 Q-2.1 5.4 -1.95 6.4 L-3.85 6.3 -6.1 5.0 Q-7.35 4.3 -7.85 3.1 L-7.9 2.85 -7.85 2.75 -7.8 2.6 -7.65 2.5 -7.55 2.4 -7.35 2.3 -7.1 2.3 -7.1 2.25" fill="#fd3535" fill-rule="evenodd" stroke="none"/>
  </g>
</svg>
