<?xml version="1.0" encoding="UTF-8" standalone="no"?>
<svg xmlns:xlink="http://www.w3.org/1999/xlink" height="35.1px" width="43.85px" xmlns="http://www.w3.org/2000/svg">
  <g transform="matrix(1.0, 0.0, 0.0, 1.0, 23.6, 17.3)">
    <path d="M-23.55 4.05 Q-23.8 -4.55 -23.05 -11.2 L-14.35 -12.7 -13.75 -14.2 Q-9.8 -13.65 -6.25 -14.3 -5.75 -15.25 -8.4 -16.6 -0.35 -18.05 7.35 -16.4 L13.6 -14.2 Q16.75 -13.85 20.05 -11.05 19.25 -9.75 20.05 -8.05 L19.1 -6.9 Q14.45 -1.35 13.9 1.95 10.2 -0.95 6.85 -1.3 8.7 3.9 8.6 8.2 -4.35 11.85 -15.45 9.45 -18.55 6.25 -23.55 4.05" fill="url(#gradient0)" fill-rule="evenodd" stroke="none"/>
    <path d="M19.1 -6.9 Q18.6 -5.75 20.25 -4.7 L16.2 -0.7 Q18.15 6.6 17.55 12.45 16.75 8.7 12.7 5.3 14.0 9.95 13.1 13.7 12.55 11.65 11.05 11.55 L9.2 12.05 Q-2.7 18.6 -9.0 17.7 L-21.85 15.35 Q-23.25 8.7 -23.55 4.05 -18.55 6.25 -15.45 9.45 -4.35 11.85 8.6 8.2 8.7 3.9 6.85 -1.3 10.2 -0.95 13.9 1.95 14.45 -1.35 19.1 -6.9" fill="url(#gradient1)" fill-rule="evenodd" stroke="none"/>
    <path d="M19.1 -6.9 Q18.6 -5.75 20.25 -4.7 L16.2 -0.7 Q18.15 6.6 17.55 12.45 16.75 8.7 12.7 5.3 14.0 9.95 13.1 13.7 12.55 11.65 11.05 11.55 L9.2 12.05 Q-2.7 18.6 -9.0 17.7 L-21.85 15.35 M-23.05 -11.2 L-14.35 -12.7 -13.75 -14.2 Q-9.8 -13.65 -6.25 -14.3 -5.75 -15.25 -8.4 -16.6 -0.35 -18.05 7.35 -16.4 L13.6 -14.2 Q16.75 -13.85 20.05 -11.05 19.25 -9.75 20.05 -8.05 L19.1 -6.9" fill="none" stroke="#000000" stroke-linecap="round" stroke-linejoin="round" stroke-width="0.05"/>
    <path d="M5.8 -13.85 Q4.85 -13.65 4.1 -13.05 5.8 -12.15 7.9 -11.75 10.3 -11.3 11.3 -9.25 11.5 -8.85 11.35 -8.45 10.7 -6.15 8.55 -4.95 6.8 -3.95 4.85 -3.85 L4.8 -3.9 Q6.2 -4.65 7.15 -6.05 8.15 -7.55 6.9 -8.85 3.65 -12.2 -0.55 -9.9 L-0.85 -9.5 Q-1.4 -7.9 -1.2 -6.05 -0.7 -2.35 -3.8 -0.05 -6.15 1.75 -9.1 2.05 -12.3 2.4 -14.2 -0.05 L-14.3 -0.1 -14.35 -0.15 -14.45 -0.3 -14.8 -1.15 -15.05 -1.9 -15.3 -2.85 -15.35 -3.35 -15.35 -4.15 -15.2 -4.4 -14.75 -5.45 -14.3 -6.15 -13.4 -6.85 -12.3 -6.9 Q-13.4 -6.25 -13.55 -5.0 -13.6 -4.0 -12.7 -3.5 -9.55 -1.75 -7.3 -4.4 -6.9 -4.8 -6.95 -5.4 -7.1 -9.15 -10.5 -10.9 -12.7 -12.0 -13.8 -14.0 L-13.75 -14.2 Q-9.8 -13.65 -6.25 -14.3 L-6.15 -14.55 -6.1 -14.5 -4.9 -14.15 Q-4.2 -13.75 -3.45 -13.5 L-2.85 -13.25 -2.7 -13.3 -2.65 -13.35 -2.55 -13.4 -2.45 -13.45 -2.45 -13.65 -2.6 -13.95 -3.85 -14.8 Q-4.8 -15.6 -5.95 -15.9 L-8.1 -16.55 -8.25 -16.6 Q-0.3 -18.05 7.35 -16.4 L9.35 -13.45 9.6 -13.1 Q8.45 -12.6 7.55 -13.45 6.85 -14.1 5.8 -13.85 M-20.25 -11.7 L-19.05 -11.9 -18.6 -12.0 -18.25 -12.05 -16.4 -12.25 -15.8 -12.3 -15.15 -12.35 Q-14.75 -11.75 -14.85 -10.75 -15.05 -8.45 -17.0 -7.0 -18.15 -6.1 -18.75 -4.8 -19.9 -2.35 -18.65 -0.1 -20.3 -0.3 -20.55 -2.05 -20.85 -4.15 -19.75 -5.95 -18.85 -7.45 -18.55 -9.05 L-18.65 -9.35 -20.0 -11.7 -20.3 -11.7 -20.25 -11.7 M-13.5 -13.75 L-13.4 -13.85 -13.55 -13.8 -13.5 -13.75 M-16.4 -12.55 L-16.35 -12.55 -16.45 -12.5 -16.4 -12.55" fill="#000000" fill-opacity="0.15294118" fill-rule="evenodd" stroke="none"/>
  </g>
  <defs>
    <radialGradient cx="0" cy="0" gradientTransform="matrix(0.0443, 0.0, 0.0, 0.0443, -21.45, -0.15)" gradientUnits="userSpaceOnUse" id="gradient0" r="819.2" spreadMethod="pad">
      <stop offset="0.0" stop-color="#404040"/>
      <stop offset="1.0" stop-color="#13110f"/>
    </radialGradient>
    <radialGradient color-interpolation="linearRGB" cx="0" cy="0" gradientTransform="matrix(-0.001, -0.0307, 0.0555, -0.0018, -21.65, 14.6)" gradientUnits="userSpaceOnUse" id="gradient1" r="819.2" spreadMethod="pad">
      <stop offset="0.0" stop-color="#c2a881"/>
      <stop offset="0.3843137254901961" stop-color="#a58274"/>
      <stop offset="1.0" stop-color="#784743"/>
    </radialGradient>
  </defs>
</svg>
