<?xml version="1.0" encoding="UTF-8" standalone="no"?>
<svg xmlns:xlink="http://www.w3.org/1999/xlink" height="26.65px" width="16.1px" xmlns="http://www.w3.org/2000/svg">
  <g transform="matrix(1.0, 0.0, 0.0, 1.0, 8.05, 13.3)">
    <path d="M-5.9 -4.75 Q-1.95 -2.7 -1.2 2.65 L-0.75 6.0 1.3 8.25 Q2.95 10.3 2.95 11.15 L5.95 11.15 6.9 8.5 7.0 12.1 Q2.95 14.7 -1.55 11.9 -1.85 10.1 -2.5 8.25 -4.15 3.4 -8.05 -2.05 -6.1 -2.15 -4.95 -0.25 -4.85 -2.05 -6.2 -3.25 L-5.9 -4.75" fill="url(#gradient0)" fill-rule="evenodd" stroke="none"/>
    <path d="M-5.9 -4.75 Q-5.45 -7.45 -5.8 -9.2 -6.25 -11.45 -2.85 -13.0 0.55 -14.55 8.05 -7.85 6.8 -0.1 6.9 8.25 L6.9 8.5 5.95 11.15 2.95 11.15 Q2.95 10.3 1.3 8.25 L-0.75 6.0 -1.2 2.65 Q-1.95 -2.7 -5.9 -4.75" fill="url(#gradient1)" fill-rule="evenodd" stroke="none"/>
    <path d="M-5.8 -9.2 Q-5.45 -7.45 -5.9 -4.75 L-6.2 -3.25 Q-4.85 -2.05 -4.95 -0.25 -6.1 -2.15 -8.05 -2.05 -4.15 3.4 -2.5 8.25 -1.85 10.1 -1.55 11.9 M6.9 8.5 L6.9 8.25 Q6.8 -0.1 8.05 -7.85 M7.0 12.1 L6.9 8.5" fill="none" stroke="#000000" stroke-linecap="round" stroke-linejoin="round" stroke-width="0.05"/>
    <path d="M8.05 -7.7 Q7.5 -4.6 7.25 -1.35 L7.0 -1.95 Q6.35 -3.25 5.1 -4.4 4.4 -5.1 3.05 -5.1 L2.15 -5.1 0.15 -5.45 Q-1.45 -6.0 -2.15 -7.35 L-2.5 -8.1 -2.5 -8.3 -2.65 -9.15 -2.25 -9.75 -2.25 -9.0 -2.0 -8.5 -1.85 -8.4 Q-0.9 -7.8 0.3 -7.4 L0.8 -7.4 3.6 -7.7 4.3 -7.8 5.25 -8.0 6.7 -7.9 8.05 -7.7 M2.7 -1.55 Q4.75 -1.0 6.1 0.15 L7.1 0.75 7.15 0.75 7.2 0.65 7.0 3.55 6.95 3.55 Q6.05 3.45 5.15 2.8 L4.1 1.9 3.45 1.05 3.3 1.0 3.2 1.0 Q2.65 -0.15 1.05 -0.6 -0.25 -1.0 -1.0 -1.9 -1.45 -2.4 -1.35 -2.8 L-1.65 -3.25 -1.35 -2.9 -1.35 -3.05 -1.3 -2.8 Q-0.35 -1.9 1.35 -1.8 L2.7 -1.55 M6.9 5.4 L6.9 7.65 5.4 6.65 Q4.6 5.95 3.35 5.6 2.55 5.35 2.2 4.9 L2.0 4.65 2.0 4.6 2.05 4.6 1.75 4.4 1.75 4.3 1.6 4.1 1.9 4.25 2.55 4.55 3.45 4.75 5.7 5.05 Q6.45 5.1 6.9 5.4 M3.8 5.4 L3.8 5.35 3.65 5.35 3.8 5.4 M-1.5 -7.6 L-1.45 -7.65 -1.6 -7.75 -1.5 -7.6 M-1.65 -7.55 L-1.8 -7.6 -1.7 -7.5 -1.65 -7.55" fill="#000000" fill-opacity="0.15294118" fill-rule="evenodd" stroke="none"/>
  </g>
  <defs>
    <radialGradient color-interpolation="linearRGB" cx="0" cy="0" gradientTransform="matrix(0.022, 0.0, 0.0, 0.022, 1.15, 11.85)" gradientUnits="userSpaceOnUse" id="gradient0" r="819.2" spreadMethod="pad">
      <stop offset="0.0" stop-color="#a6e2fb"/>
      <stop offset="1.0" stop-color="#7475a5"/>
    </radialGradient>
    <radialGradient cx="0" cy="0" gradientTransform="matrix(0.0256, 0.0, 0.0, 0.0256, 2.85, 6.75)" gradientUnits="userSpaceOnUse" id="gradient1" r="819.2" spreadMethod="pad">
      <stop offset="0.0" stop-color="#96c4e1"/>
      <stop offset="0.43529411764705883" stop-color="#363f52"/>
      <stop offset="1.0" stop-color="#1a1a1a"/>
    </radialGradient>
  </defs>
</svg>
