<?xml version="1.0" encoding="UTF-8" standalone="no"?>
<svg xmlns:xlink="http://www.w3.org/1999/xlink" height="15.6px" width="15.55px" xmlns="http://www.w3.org/2000/svg">
  <g transform="matrix(1.0, 0.0, 0.0, 1.0, 7.75, 7.8)">
    <path d="M-7.0 -6.5 L-7.75 -7.8 -6.5 -7.05 -6.25 -6.95 -7.0 -6.5" fill="url(#gradient0)" fill-rule="evenodd" stroke="none"/>
    <path d="M2.25 -6.8 L4.1 -7.7 Q1.65 -3.65 2.0 2.45 L7.8 3.9 7.4 7.8 Q2.4 6.4 -2.6 7.15 -1.7 3.25 -3.85 -0.95 L-7.0 -6.5 -6.25 -6.95 Q-1.6 -5.55 2.25 -6.8" fill="url(#gradient1)" fill-rule="evenodd" stroke="none"/>
    <path d="M2.25 -6.8 L4.1 -7.7 Q1.65 -3.65 2.0 2.45 L7.8 3.9 7.4 7.8 Q2.4 6.4 -2.6 7.15 -1.7 3.25 -3.85 -0.95 L-7.0 -6.5 -7.75 -7.8 -6.5 -7.05" fill="none" stroke="#000000" stroke-linecap="round" stroke-linejoin="round" stroke-width="0.05"/>
  </g>
  <defs>
    <radialGradient cx="0" cy="0" gradientTransform="matrix(0.0194, 0.0, 0.0, 0.0194, -0.75, -5.85)" gradientUnits="userSpaceOnUse" id="gradient0" r="819.2" spreadMethod="pad">
      <stop offset="0.0" stop-color="#f9d8a8"/>
      <stop offset="1.0" stop-color="#b9a693"/>
    </radialGradient>
    <radialGradient color-interpolation="linearRGB" cx="0" cy="0" gradientTransform="matrix(0.0172, 0.0, 0.0, 0.0172, 1.5, 4.7)" gradientUnits="userSpaceOnUse" id="gradient1" r="819.2" spreadMethod="pad">
      <stop offset="0.0" stop-color="#ffffff"/>
      <stop offset="0.5098039215686274" stop-color="#a6e2fb"/>
      <stop offset="1.0" stop-color="#7475a5"/>
    </radialGradient>
  </defs>
</svg>
