<?xml version="1.0" encoding="UTF-8" standalone="no"?>
<svg xmlns:xlink="http://www.w3.org/1999/xlink" height="11.45px" width="24.15px" xmlns="http://www.w3.org/2000/svg">
  <g transform="matrix(1.0, 0.0, 0.0, 1.0, 12.1, 5.75)">
    <path d="M5.05 -5.65 L5.25 -5.75 Q6.0 -5.5 6.1 -4.75 6.25 -4.05 6.55 -3.4 6.85 -2.65 7.3 -2.25 L7.3 -2.45 7.3 -2.85 7.4 -3.35 7.65 -3.7 7.7 -3.75 8.25 -3.75 Q8.85 -3.7 9.25 -3.2 L9.55 -2.75 Q10.3 -2.6 10.85 -3.05 L12.0 -3.0 Q12.25 -2.3 11.65 -1.7 10.25 -0.45 8.5 -1.45 L8.45 -1.1 8.3 -0.55 8.05 0.0 7.9 0.4 7.5 0.5 6.85 0.35 6.45 0.05 Q6.4 -0.95 5.95 -1.85 L4.85 -3.9 Q4.25 -4.95 5.05 -5.65 M0.4 -2.0 L1.0 -2.25 2.25 -2.25 Q2.7 -2.25 2.9 -1.9 L3.0 -1.5 2.85 -1.3 Q1.4 -0.6 0.35 -1.5 L0.25 -1.75 0.4 -2.0 M1.05 2.3 L0.75 2.65 -0.15 2.7 -1.05 2.55 -1.6 4.0 Q-1.7 4.75 -2.3 5.2 L-4.6 5.25 Q-4.55 4.55 -3.95 4.0 L-3.25 3.2 -2.55 2.05 -2.35 1.65 -2.5 0.7 -2.75 0.0 -2.8 -0.6 -3.0 -1.5 -3.1 -1.7 -4.1 -2.3 -5.4 -2.65 Q-5.8 -2.85 -5.45 -3.1 L-5.25 -3.25 -4.3 -3.0 -3.45 -2.75 -2.5 -2.7 -2.2 -2.65 Q-1.8 -2.25 -1.7 -1.7 L-1.5 -1.0 -1.45 -0.4 -1.3 0.55 -1.25 0.75 Q-0.95 1.05 -0.45 1.05 0.45 1.1 0.95 1.75 L1.05 2.3 M-10.5 -2.2 L-8.0 -2.75 -7.5 -2.75 -7.2 -2.6 -7.0 -2.45 Q-6.8 -1.95 -6.85 -1.35 -7.0 -0.45 -6.4 0.1 -5.85 0.65 -5.6 1.4 L-5.6 1.75 -6.85 1.8 Q-7.65 1.35 -7.95 0.55 L-8.1 -0.7 -8.1 -0.9 -8.2 -1.1 -10.75 -0.75 -10.75 0.0 -10.55 1.3 Q-10.35 1.9 -10.45 2.6 L-10.75 3.1 Q-11.65 3.15 -11.75 2.1 L-11.95 0.2 -12.1 -1.1 -12.0 -1.65 Q-11.4 -2.1 -10.5 -2.2" fill="#56fefe" fill-rule="evenodd" stroke="none"/>
  </g>
</svg>
