<?xml version="1.0" encoding="UTF-8" standalone="no"?>
<svg xmlns:xlink="http://www.w3.org/1999/xlink" height="17.95px" width="20.2px" xmlns="http://www.w3.org/2000/svg">
  <g transform="matrix(1.0, 0.0, 0.0, 1.0, 10.55, 5.05)">
    <path d="M-10.55 -0.1 Q-8.35 -3.9 -4.6 -4.6 -0.2 -6.05 4.15 -2.6 7.75 0.9 9.65 6.15 L9.15 9.15 3.4 9.4 -2.35 12.9 Q-6.8 12.05 -10.35 6.9 L-10.35 0.15 -10.55 -0.1" fill="url(#gradient0)" fill-rule="evenodd" stroke="none"/>
    <path d="M-10.55 -0.1 Q-8.35 -3.9 -4.6 -4.6 -0.2 -6.05 4.15 -2.6 7.75 0.9 9.65 6.15 L9.15 9.15 3.4 9.4 -2.35 12.9" fill="none" stroke="#000000" stroke-linecap="round" stroke-linejoin="round" stroke-width="0.05"/>
    <path d="M1.9 2.45 L2.2 1.75 1.9 1.0 Q1.6 0.7 1.2 0.7 0.85 0.7 0.55 1.0 0.25 1.3 0.25 1.7 0.25 2.15 0.55 2.45 0.85 2.75 1.2 2.75 1.6 2.75 1.9 2.45 M0.75 5.45 Q-0.2 5.45 -0.95 4.6 -1.65 3.8 -1.65 2.7 -1.65 1.6 -0.95 0.75 -0.2 -0.05 0.75 -0.05 1.75 -0.05 2.45 0.75 3.15 1.6 3.15 2.7 3.15 3.8 2.45 4.6 1.75 5.45 0.75 5.45" fill="#000000" fill-rule="evenodd" stroke="none"/>
    <path d="M1.9 2.45 Q1.6 2.75 1.2 2.75 0.85 2.75 0.55 2.45 0.25 2.15 0.25 1.7 0.25 1.3 0.55 1.0 0.85 0.7 1.2 0.7 1.6 0.7 1.9 1.0 L2.2 1.75 1.9 2.45" fill="#ffffff" fill-rule="evenodd" stroke="none"/>
  </g>
  <defs>
    <radialGradient cx="0" cy="0" gradientTransform="matrix(0.0211, 0.0, 0.0, 0.0211, -3.7, -2.4)" gradientUnits="userSpaceOnUse" id="gradient0" r="819.2" spreadMethod="pad">
      <stop offset="0.0" stop-color="#ee99d5"/>
      <stop offset="1.0" stop-color="#a91b8d"/>
    </radialGradient>
  </defs>
</svg>
