<?xml version="1.0" encoding="UTF-8" standalone="no"?>
<svg xmlns:xlink="http://www.w3.org/1999/xlink" height="51.3px" width="57.25px" xmlns="http://www.w3.org/2000/svg">
  <g transform="matrix(1.0, 0.0, 0.0, 1.0, 29.15, 28.15)">
    <path d="M10.7 -28.15 Q17.25 -22.15 21.35 -12.65 23.3 -4.25 28.1 4.9 25.35 4.2 23.8 6.15 25.85 8.95 26.6 12.35 24.95 9.8 22.35 10.4 L22.05 12.55 Q17.6 12.6 13.5 9.15 8.8 7.45 0.85 9.0 -6.75 9.45 -12.75 12.25 -18.0 14.65 -24.0 14.35 -27.2 10.9 -29.15 7.1 -28.9 -0.25 -26.9 -5.7 -21.3 -8.55 -16.15 -12.4 -18.4 -14.05 -21.15 -12.9 -16.75 -16.25 -11.05 -16.75 -12.5 -18.9 -15.15 -18.9 -10.2 -20.45 -5.25 -20.1 -3.25 -23.85 2.2 -26.35 5.5 -26.35 10.7 -28.15" fill="url(#gradient0)" fill-rule="evenodd" stroke="none"/>
    <path d="M22.05 12.55 L22.05 12.6 Q21.5 15.05 20.2 16.85 14.8 18.95 9.35 22.35 4.6 24.65 -5.0 20.45 -7.9 17.15 -17.65 19.9 -21.3 17.25 -24.0 14.35 -18.0 14.65 -12.75 12.25 -6.75 9.45 0.85 9.0 8.8 7.45 13.5 9.15 17.6 12.6 22.05 12.55" fill="url(#gradient1)" fill-rule="evenodd" stroke="none"/>
    <path d="M21.35 -12.65 Q23.3 -4.25 28.1 4.9 25.35 4.2 23.8 6.15 25.85 8.95 26.6 12.35 24.95 9.8 22.35 10.4 L22.05 12.55 M22.05 12.6 Q21.5 15.05 20.2 16.85 14.8 18.95 9.35 22.35 4.6 24.65 -5.0 20.45 -7.9 17.15 -17.65 19.9 M-26.9 -5.7 Q-21.3 -8.55 -16.15 -12.4 -18.4 -14.05 -21.15 -12.9 -16.75 -16.25 -11.05 -16.75 -12.5 -18.9 -15.15 -18.9 -10.2 -20.45 -5.25 -20.1 -3.25 -23.85 2.2 -26.35 5.5 -26.35 10.7 -28.15" fill="none" stroke="#000000" stroke-linecap="round" stroke-linejoin="round" stroke-width="0.05"/>
    <path d="M4.6 -26.55 Q9.8 -25.4 11.85 -17.75 8.55 -20.5 5.25 -19.0 8.55 -15.1 9.5 -7.75 7.7 -11.65 5.55 -12.35 1.95 -3.7 3.9 5.6 0.2 -2.95 1.0 -12.25 -1.15 -0.6 -8.5 9.4 -4.85 2.05 -5.65 -8.75 -9.1 1.55 -15.6 5.0 -12.3 2.35 -11.75 -7.0 -17.35 -0.6 -24.25 -1.0 -18.9 -2.95 -15.9 -7.85 -19.7 -9.1 -24.4 -7.0 -20.15 -9.45 -16.15 -12.4 -18.4 -14.05 -21.15 -12.9 -16.75 -16.25 -11.05 -16.75 -12.5 -18.9 -15.15 -18.9 -10.2 -20.45 -5.25 -20.1 -3.25 -23.85 2.2 -26.35 L4.6 -26.55" fill="#000000" fill-opacity="0.4" fill-rule="evenodd" stroke="none"/>
  </g>
  <defs>
    <radialGradient cx="0" cy="0" gradientTransform="matrix(0.0464, 0.0, 0.0, 0.0464, -0.25, 8.25)" gradientUnits="userSpaceOnUse" id="gradient0" r="819.2" spreadMethod="pad">
      <stop offset="0.0" stop-color="#3c332b"/>
      <stop offset="1.0" stop-color="#130a06"/>
    </radialGradient>
    <radialGradient cx="0" cy="0" gradientTransform="matrix(0.0017, 0.0165, -0.0472, 0.0048, -17.0, 16.0)" gradientUnits="userSpaceOnUse" id="gradient1" r="819.2" spreadMethod="pad">
      <stop offset="0.0" stop-color="#493e2e"/>
      <stop offset="1.0" stop-color="#1e2622"/>
    </radialGradient>
  </defs>
</svg>
