<?xml version="1.0" encoding="UTF-8" standalone="no"?>
<svg xmlns:xlink="http://www.w3.org/1999/xlink" height="14.4px" width="17.8px" xmlns="http://www.w3.org/2000/svg">
  <g transform="matrix(1.0, 0.0, 0.0, 1.0, 8.85, 2.9)">
    <path d="M-8.6 0.7 L-3.2 -2.9 -1.9 -1.55 -3.6 2.3 1.6 8.2 2.4 8.3 0.95 8.75 0.1 9.05 -7.7 4.8 -8.85 0.8 -8.6 0.7" fill="url(#gradient0)" fill-rule="evenodd" stroke="none"/>
    <path d="M7.75 6.5 L7.25 11.5 3.35 11.5 0.95 8.75 2.4 8.3 1.6 8.2 5.25 7.4 7.75 6.5" fill="url(#gradient1)" fill-rule="evenodd" stroke="none"/>
    <path d="M-1.9 -1.55 L1.5 -1.95 6.7 1.95 8.95 6.05 7.75 6.5 5.25 7.4 1.6 8.2 -3.6 2.3 -1.9 -1.55" fill="url(#gradient2)" fill-rule="evenodd" stroke="none"/>
    <path d="M-8.6 0.7 L-3.2 -2.9 -1.9 -1.55 1.5 -1.95 6.7 1.95 8.95 6.05 7.75 6.5 7.25 11.5 3.35 11.5 0.95 8.75 0.1 9.05 -7.7 4.8 -8.85 0.8 M0.95 8.75 L2.4 8.3 1.6 8.2 -3.6 2.3 -1.9 -1.55 M1.6 8.2 L5.25 7.4 7.75 6.5" fill="none" stroke="#000000" stroke-linecap="round" stroke-linejoin="round" stroke-width="0.05"/>
  </g>
  <defs>
    <radialGradient cx="0" cy="0" gradientTransform="matrix(0.0151, 0.0, 0.0, 0.0151, -4.65, -1.85)" gradientUnits="userSpaceOnUse" id="gradient0" r="819.2" spreadMethod="pad">
      <stop offset="0.00392156862745098" stop-color="#d1bb8b"/>
      <stop offset="0.24705882352941178" stop-color="#66482b"/>
      <stop offset="0.8941176470588236" stop-color="#120907"/>
    </radialGradient>
    <radialGradient cx="0" cy="0" gradientTransform="matrix(0.0075, 0.0, 0.0, 0.0075, 7.1, 9.15)" gradientUnits="userSpaceOnUse" id="gradient1" r="819.2" spreadMethod="pad">
      <stop offset="0.00392156862745098" stop-color="#d1bb8b"/>
      <stop offset="0.24705882352941178" stop-color="#66482b"/>
      <stop offset="0.8941176470588236" stop-color="#120907"/>
    </radialGradient>
    <radialGradient cx="0" cy="0" gradientTransform="matrix(0.0102, 0.0, 0.0, 0.0102, 4.7, 1.3)" gradientUnits="userSpaceOnUse" id="gradient2" r="819.2" spreadMethod="pad">
      <stop offset="0.0" stop-color="#ddc5a2"/>
      <stop offset="0.25098039215686274" stop-color="#5f5e43"/>
      <stop offset="0.6470588235294118" stop-color="#2c2621"/>
      <stop offset="1.0" stop-color="#22262b"/>
      <stop offset="1.0" stop-color="#070a0a"/>
    </radialGradient>
  </defs>
</svg>
