<?xml version="1.0" encoding="UTF-8" standalone="no"?>
<svg xmlns:xlink="http://www.w3.org/1999/xlink" height="20.75px" width="19.2px" xmlns="http://www.w3.org/2000/svg">
  <g transform="matrix(1.0, 0.0, 0.0, 1.0, 9.95, -6.95)">
    <path d="M4.1 9.7 L3.55 14.35 2.8 18.95 3.45 17.95 4.45 16.45 6.65 13.8 Q7.5 12.9 8.5 12.45 9.7 13.05 8.95 14.45 8.35 15.5 8.05 16.65 7.7 17.95 6.55 17.35 L6.5 17.3 4.3 20.45 4.65 20.15 5.3 19.5 Q5.65 19.15 6.1 19.3 L6.45 19.75 6.35 20.55 5.95 21.25 5.9 21.35 3.75 22.75 Q2.25 24.15 1.1 23.25 L0.65 23.6 Q0.4 26.3 -1.6 27.65 -1.8 27.8 -1.95 27.55 -4.3 23.9 -6.25 20.0 -7.3 19.0 -7.35 17.75 -9.05 13.95 -9.9 9.85 -10.0 9.3 -9.7 8.8 -7.9 8.6 -7.05 10.75 L-5.45 14.65 -4.25 17.35 -3.7 17.6 Q-3.25 17.7 -3.2 18.2 L-3.05 18.6 Q-2.15 16.85 -2.15 14.75 L-2.35 10.55 Q-2.5 8.4 -1.9 6.95 L-1.7 7.05 -1.6 7.1 -1.5 7.2 Q-0.9 9.2 -0.9 11.35 -0.9 13.6 -1.05 15.85 L-1.15 19.95 -1.1 20.0 -0.95 20.0 -0.4 19.95 -0.25 20.0 0.0 18.7 Q0.15 17.9 0.55 17.25 L1.75 17.2 2.45 14.6 2.7 11.55 Q2.7 9.8 4.1 9.7 M6.4 16.5 L6.4 16.45 6.3 16.6 6.4 16.6 6.4 16.5" fill="#400d0d" fill-rule="evenodd" stroke="none"/>
    <path d="M3.65 11.9 L3.5 12.5 3.05 12.95 Q2.75 12.9 2.75 12.65 L2.85 12.2 2.95 11.7 3.05 11.5 3.1 11.45 3.2 11.4 3.35 11.35 Q3.75 11.45 3.65 11.9 M7.75 14.65 L7.8 14.95 7.7 15.3 7.6 15.5 7.1 15.7 Q6.7 15.8 6.45 15.4 L6.45 15.3 6.5 15.05 6.85 14.55 Q7.05 14.3 7.35 14.3 L7.55 14.4 7.65 14.45 7.75 14.65 M1.6 18.65 Q2.5 18.8 2.1 19.6 L1.2 20.65 -0.05 20.7 Q-0.25 20.4 -0.05 20.05 L0.65 19.25 Q1.05 18.85 1.6 18.65 M-7.55 11.15 L-7.05 12.2 Q-6.75 12.85 -7.2 13.3 -7.9 13.45 -8.15 12.75 L-8.65 11.5 Q-9.0 10.7 -8.4 10.4 -7.8 10.6 -7.55 11.15 M-1.05 9.3 L-1.25 10.05 Q-1.4 10.5 -1.75 10.55 L-1.95 10.0 -1.8 9.25 Q-1.75 8.8 -1.4 8.75 L-1.4 8.7 Q-0.95 8.8 -1.05 9.3 M-1.5 12.25 L-1.35 12.45 -1.25 12.7 -1.3 13.0 -1.35 13.1 Q-1.7 13.25 -1.75 12.9 L-1.75 12.5 -1.5 12.3 -1.5 12.25 M-6.85 14.3 L-6.75 14.25 Q-6.55 14.2 -6.4 14.4 L-6.25 14.7 -6.25 14.95 -6.3 15.05 -6.7 15.1 -7.0 14.65 -6.85 14.3" fill="#ffffff" fill-rule="evenodd" stroke="none"/>
  </g>
</svg>
