<?xml version="1.0" encoding="UTF-8" standalone="no"?>
<svg xmlns:xlink="http://www.w3.org/1999/xlink" height="28.05px" width="35.8px" xmlns="http://www.w3.org/2000/svg">
  <g transform="matrix(1.0, 0.0, 0.0, 1.0, 20.6, 0.75)">
    <path d="M0.15 -0.5 L0.2 5.3 0.05 11.5 -0.05 15.45 0.4 15.05 0.5 15.05 0.85 13.15 1.45 10.5 Q1.35 9.05 1.8 7.55 L2.25 4.3 2.3 1.6 2.35 1.2 2.45 1.1 2.6 1.05 2.85 1.0 2.85 0.95 3.0 0.95 3.25 1.05 3.3 1.1 3.3 1.05 3.25 0.95 3.25 0.8 3.35 0.6 3.4 0.5 3.45 0.4 3.6 0.35 3.85 0.25 4.05 0.3 4.2 0.35 4.4 0.55 4.5 0.7 4.45 0.9 4.1 1.3 3.5 1.35 3.45 1.3 Q3.7 2.1 3.5 2.95 L3.3 4.8 Q4.9 4.75 4.7 7.05 4.5 9.15 3.9 11.15 3.25 13.2 3.2 15.35 L4.85 12.75 Q5.75 11.15 7.0 9.8 7.35 9.45 7.95 9.4 8.5 9.35 8.9 9.75 8.65 11.85 7.3 13.9 6.25 15.5 5.95 17.3 L6.75 16.8 7.85 15.9 8.55 15.4 8.7 15.2 8.95 15.05 11.35 13.15 14.1 11.25 14.15 11.2 14.15 11.1 14.3 10.95 14.6 10.75 14.75 10.8 14.95 10.85 15.15 11.05 15.2 11.3 15.1 11.5 14.75 11.7 14.45 11.7 12.85 13.3 12.7 13.45 Q13.85 14.35 11.8 15.55 9.8 16.7 7.9 18.0 L7.3 18.4 8.75 18.95 8.7 19.05 8.7 19.15 8.65 19.25 8.65 19.35 8.65 19.5 9.2 20.1 9.75 21.05 Q9.95 21.55 9.55 21.95 10.0 22.7 9.25 23.0 8.35 23.3 7.6 22.45 L7.2 21.9 7.0 22.1 6.85 22.2 Q6.95 23.75 4.75 23.95 4.3 24.0 3.9 24.35 3.0 25.15 2.05 24.6 L1.95 24.4 1.85 24.15 Q0.3 25.75 -1.9 25.0 L-1.8 25.25 Q-3.05 26.2 -4.1 24.55 L-4.3 24.65 -6.8 26.4 Q-9.6 28.4 -9.9 26.0 L-9.9 25.95 -10.6 25.65 -10.9 25.2 Q-10.85 24.6 -10.35 24.25 L-10.05 23.95 -10.2 23.3 Q-10.15 22.6 -9.5 22.15 L-8.15 21.25 -7.7 21.05 -7.8 20.95 -9.25 19.85 -11.05 18.8 -11.2 18.8 -11.25 18.8 -11.4 18.9 -11.65 19.0 -13.55 17.7 Q-14.45 17.0 -15.5 16.6 -16.55 16.2 -16.8 15.3 L-16.75 15.15 -16.45 14.9 -15.65 14.8 -15.7 14.75 -16.75 13.1 Q-17.3 12.15 -18.1 11.4 L-20.05 9.9 Q-20.8 9.35 -20.55 8.5 L-20.5 8.4 -20.4 8.3 -20.25 8.25 -20.0 8.15 -16.0 11.1 -11.8 13.9 Q-10.0 14.9 -9.7 16.25 L-9.45 16.35 -10.65 14.25 -10.7 13.75 -12.65 11.95 Q-13.3 11.25 -12.95 10.45 L-13.65 9.7 Q-14.15 9.4 -14.15 8.85 -14.2 8.2 -13.65 7.9 L-13.4 7.8 -12.6 8.35 -12.1 9.0 -11.45 9.75 -11.4 9.85 -11.35 9.95 -11.35 10.0 -11.4 10.1 -11.4 10.2 -11.45 10.3 -9.65 12.6 -7.5 14.5 Q-7.85 13.8 -8.35 13.25 -10.1 11.25 -11.2 8.95 L-11.75 7.55 -11.75 7.1 -11.45 6.85 -10.85 6.4 -10.35 6.2 -10.3 6.2 -10.15 6.05 -10.05 6.05 -9.9 5.9 -9.5 5.7 Q-8.15 7.45 -7.2 9.75 L-5.2 14.15 Q-4.6 15.35 -4.35 16.55 L-4.3 16.5 -3.75 16.45 -5.0 12.95 Q-5.7 10.1 -7.25 7.8 -8.4 6.1 -8.35 4.4 L-8.45 4.3 -8.55 3.95 -8.55 3.85 -8.45 3.65 -8.25 3.5 -8.2 3.15 -7.9 2.9 -7.75 2.9 -7.5 3.0 -7.3 3.05 -7.2 3.15 -6.95 3.5 -6.7 4.2 -6.45 4.95 -6.3 5.3 -6.25 5.35 -6.15 5.35 -5.75 5.3 Q-5.45 5.25 -5.2 5.5 -4.8 6.8 -4.55 8.2 -4.3 9.75 -3.3 11.0 -2.25 12.3 -2.45 13.9 L-2.55 14.3 -1.95 15.25 -1.65 11.95 -1.5 5.1 Q-1.55 2.05 -0.75 -0.55 L-0.5 -0.75 -0.4 -0.75 -0.15 -0.7 0.05 -0.6 0.15 -0.5 M6.1 2.05 L6.35 2.15 6.5 2.2 6.55 2.3 6.6 2.4 6.65 2.5 6.65 2.6 6.65 2.75 6.6 2.95 6.55 3.05 6.4 3.15 6.1 3.25 Q5.65 3.3 5.35 3.0 L5.3 2.9 5.25 2.8 5.25 2.7 5.25 2.6 5.25 2.5 5.3 2.45 5.35 2.35 5.4 2.25 5.65 2.1 5.85 2.05 6.1 2.05 M-7.15 0.7 L-6.95 0.95 -6.95 1.0 -7.1 1.3 Q-7.35 1.55 -7.75 1.5 -8.2 1.5 -8.25 1.1 L-8.3 1.0 -8.25 0.8 -8.2 0.75 -8.0 0.55 -7.75 0.45 -7.5 0.5 -7.15 0.7 M-10.8 4.45 Q-10.65 4.5 -10.55 4.65 L-10.45 4.9 -10.45 5.1 -10.5 5.2 -10.55 5.25 -10.65 5.35 -10.9 5.45 -11.1 5.4 -11.25 5.3 -11.45 5.1 -11.45 5.0 -11.45 4.95 -11.45 4.85 -11.4 4.65 -11.15 4.4 -11.0 4.35 -10.8 4.45 M-7.2 17.2 L-6.9 17.65 -6.85 17.4 -7.2 17.2" fill="#400d0d" fill-rule="evenodd" stroke="none"/>
    <path d="M3.75 7.05 L3.3 7.7 3.1 7.7 3.0 7.7 2.65 7.55 2.55 7.45 2.4 7.0 2.6 6.25 Q2.8 5.75 3.25 5.7 3.75 5.7 3.85 6.2 L3.75 7.05 M7.3 10.8 L7.45 10.9 7.6 11.35 7.35 12.05 6.8 12.55 6.6 12.6 Q6.1 12.5 6.05 12.0 6.05 11.55 6.3 11.25 L7.1 10.75 7.3 10.8 M3.95 16.95 L3.85 17.2 3.55 17.55 3.35 17.6 3.0 17.45 2.85 17.2 2.85 16.8 2.95 16.6 3.0 16.55 3.1 16.45 3.15 16.45 3.35 16.4 3.5 16.4 3.7 16.5 3.85 16.55 3.95 16.75 3.95 16.95 M3.35 19.3 L3.6 19.4 3.75 19.45 Q4.05 19.85 3.85 20.3 L3.2 21.2 Q2.7 21.65 2.05 21.55 1.65 21.25 1.6 20.7 1.6 20.05 2.1 19.65 2.65 19.2 3.35 19.3 M11.85 13.45 L12.0 13.45 12.2 13.5 12.3 13.6 12.45 13.75 12.3 14.2 11.35 14.65 10.85 14.35 10.9 14.2 Q10.9 13.95 11.15 13.8 11.4 13.6 11.7 13.5 L11.85 13.45 M-0.75 0.8 Q-0.65 0.45 -0.25 0.4 L-0.25 0.35 Q0.15 0.5 0.1 0.9 L-0.05 1.55 -0.5 2.0 -0.7 1.9 -0.8 1.85 -0.85 1.75 -0.85 1.65 -0.85 1.25 -0.75 0.8 M-6.95 4.5 L-6.8 4.75 -6.7 4.95 -6.75 5.0 -6.8 5.1 -6.8 5.2 -6.9 5.4 -7.0 5.5 Q-7.35 5.6 -7.55 5.3 L-7.8 4.6 Q-7.85 4.35 -7.55 4.25 L-7.4 4.2 -7.2 4.3 -6.95 4.5 M-8.7 8.0 L-8.25 9.35 Q-8.05 10.05 -8.3 10.65 -9.5 11.1 -10.1 9.9 -10.5 9.05 -10.45 8.05 -10.4 7.3 -9.75 7.1 -9.0 7.25 -8.7 8.0 M-7.6 11.9 L-7.45 11.95 -7.4 12.05 -7.35 12.25 -7.3 12.5 -7.4 12.8 -7.5 12.95 -7.95 12.85 -8.1 12.5 -8.2 12.1 -8.2 12.0 -8.1 11.9 -7.9 11.85 -7.75 11.8 -7.6 11.9 M-0.35 6.3 L-0.15 7.05 -0.35 8.0 Q-0.45 8.55 -0.85 8.65 L-1.05 7.9 -0.95 6.95 -0.65 6.15 -0.5 6.2 -0.35 6.3 M-18.55 10.85 L-18.5 10.8 -18.45 10.7 -18.25 10.55 -18.0 10.5 -18.0 10.45 -17.1 10.85 -16.35 11.5 Q-16.05 11.95 -16.4 12.35 L-16.45 12.4 Q-17.05 12.65 -17.55 12.15 L-18.35 11.4 -18.55 10.85 M-9.2 24.2 L-9.25 23.7 -9.0 23.0 -8.4 22.35 -8.25 22.3 -8.0 22.35 -7.9 22.35 -7.65 22.45 -7.55 22.5 Q-7.3 22.85 -7.4 23.25 -7.55 23.95 -8.15 24.3 L-9.2 24.2" fill="#ffffff" fill-rule="evenodd" stroke="none"/>
  </g>
</svg>
