<?xml version="1.0" encoding="UTF-8" standalone="no"?>
<svg xmlns:xlink="http://www.w3.org/1999/xlink" height="46.2px" width="62.25px" xmlns="http://www.w3.org/2000/svg">
  <g transform="matrix(1.0, 0.0, 0.0, 1.0, 29.45, 13.7)">
    <path d="M0.35 -13.7 L0.6 -13.6 0.75 -13.55 0.9 -12.05 0.7 -11.25 0.75 -11.25 0.85 -10.6 0.9 -10.3 0.85 -9.9 0.8 -8.85 Q0.6 -7.5 0.75 -6.2 0.85 -4.6 0.0 -3.75 -0.8 -4.7 -0.8 -6.3 L-0.9 -9.3 -0.9 -9.65 -0.95 -9.7 -1.05 -11.0 -0.8 -12.5 Q-0.6 -13.45 0.25 -13.7 L0.35 -13.7 M9.35 -11.35 L9.6 -11.3 9.75 -11.2 9.85 -11.15 Q10.1 -10.6 9.75 -10.05 L9.05 -8.9 8.4 -7.7 8.3 -7.5 8.0 -7.45 8.1 -7.4 8.25 -7.3 8.35 -7.25 8.45 -6.85 8.2 -6.25 7.5 -5.8 7.35 -5.75 7.1 -5.85 6.95 -5.9 6.85 -6.0 6.75 -6.4 7.05 -7.05 7.45 -7.35 7.2 -7.55 Q6.95 -8.2 7.25 -8.85 L8.0 -10.25 Q8.4 -11.1 9.25 -11.4 L9.35 -11.35 M6.05 -7.85 L5.85 -7.3 5.5 -6.95 5.2 -7.15 5.0 -7.55 5.05 -7.95 5.15 -8.05 5.35 -8.15 5.6 -8.25 5.75 -8.3 6.05 -7.85 M1.55 -8.65 L1.7 -8.35 1.7 -7.9 1.45 -7.45 1.25 -7.3 Q0.9 -7.4 0.8 -7.75 L0.8 -8.4 Q0.9 -8.8 1.25 -8.75 L1.25 -8.8 1.45 -8.7 1.55 -8.65 M5.0 -3.7 L5.1 -3.8 5.15 -3.8 5.35 -3.85 5.55 -3.75 5.7 -3.7 5.75 -3.6 5.8 -3.5 5.85 -3.35 6.0 -3.5 6.25 -3.6 6.25 -3.65 Q6.6 -3.65 6.65 -3.3 L6.45 -2.85 6.05 -2.6 5.9 -2.6 5.85 -2.7 5.8 -2.8 5.8 -2.9 5.75 -3.05 5.45 -2.4 5.0 -1.75 4.85 -1.65 Q4.45 -1.6 4.4 -2.05 L4.55 -2.8 4.8 -3.45 4.9 -3.65 5.0 -3.7 M0.6 -3.75 L0.75 -3.8 0.95 -3.75 1.15 -3.55 1.3 -3.3 1.3 -3.1 1.2 -3.0 1.15 -2.9 1.05 -2.85 1.0 -2.85 0.85 -2.8 0.6 -2.9 0.4 -3.05 0.3 -3.25 0.3 -3.3 0.3 -3.4 0.3 -3.5 0.45 -3.7 0.6 -3.75 M8.55 -4.4 L8.8 -4.15 8.75 -3.85 8.7 -3.75 8.5 -3.55 8.2 -3.45 Q7.95 -3.4 7.8 -3.6 L7.8 -3.8 7.8 -4.05 8.05 -4.4 8.25 -4.5 8.55 -4.4 M14.4 -1.6 L14.5 -1.4 14.5 -1.3 14.5 -1.25 14.6 -1.3 14.75 -1.3 Q15.2 -1.35 15.25 -0.9 L15.0 -0.3 14.4 -0.2 14.25 -0.3 14.1 -0.55 14.2 -0.85 13.5 -0.95 Q13.35 -1.05 13.35 -1.25 L13.35 -1.3 13.4 -1.4 13.55 -1.6 13.85 -1.75 14.1 -1.75 14.25 -1.7 14.4 -1.6 M16.4 -4.0 L16.5 -3.85 16.5 -3.75 16.5 -3.65 16.45 -3.6 16.2 -3.3 16.05 -3.15 15.85 -3.1 15.75 -3.1 15.4 -3.3 15.25 -3.55 15.25 -3.65 15.25 -3.7 15.35 -3.9 15.65 -4.15 15.85 -4.25 16.0 -4.2 16.2 -4.1 16.4 -4.0 M32.25 6.3 L32.6 6.5 32.8 6.85 32.55 7.25 31.1 7.15 30.85 6.7 30.9 6.55 30.95 6.45 31.15 6.3 31.35 6.2 31.5 6.2 31.75 6.2 32.25 6.3 M23.55 8.7 L23.1 9.15 22.3 9.3 21.6 9.35 21.45 9.35 Q21.65 8.85 22.4 9.05 L22.85 8.95 23.15 8.85 23.35 8.75 23.55 8.7 M20.6 10.2 Q21.2 10.6 20.4 11.0 L19.2 11.55 Q18.4 12.0 18.1 11.25 18.2 10.75 18.75 10.65 L19.6 10.4 20.45 10.25 20.6 10.2 M30.35 6.85 L30.4 7.1 30.35 7.25 30.4 7.25 30.35 7.3 Q30.15 7.6 29.75 7.65 29.3 7.75 29.1 7.4 L29.0 7.2 29.0 7.1 29.0 7.05 29.1 6.85 29.45 6.6 29.6 6.55 29.8 6.6 30.0 6.6 30.15 6.65 30.35 6.85 M25.8 8.6 L25.8 8.55 26.0 8.35 26.25 8.2 26.5 8.2 26.65 8.25 26.8 8.3 26.85 8.4 26.75 8.6 26.35 8.9 25.9 8.85 25.8 8.7 25.8 8.6 M11.6 3.85 L11.95 4.05 11.95 4.5 11.6 4.85 11.5 4.85 11.35 4.8 11.3 4.7 11.2 4.5 11.2 4.35 11.25 4.05 Q11.3 3.95 11.45 3.9 L11.6 3.85 M4.85 0.6 L4.6 1.1 4.5 1.2 4.55 1.2 4.75 1.25 4.95 1.45 5.05 1.6 5.05 1.7 5.0 1.9 4.9 2.2 4.7 2.55 4.6 2.65 4.35 2.7 4.1 2.65 3.95 2.55 3.85 2.45 3.8 2.25 3.75 2.0 3.75 1.6 3.9 1.35 4.05 1.25 4.15 1.2 4.25 1.2 4.05 1.05 4.0 0.75 4.2 0.4 4.45 0.2 4.6 0.2 Q4.95 0.25 4.85 0.6 M0.1 0.65 Q0.6 1.75 0.25 3.25 -0.05 4.65 0.1 6.05 0.2 7.45 -0.4 8.3 -0.95 7.65 -1.1 6.65 L-1.15 4.75 Q-1.1 3.9 -0.65 3.25 L-0.65 2.6 -0.5 1.75 -0.45 1.6 -0.5 1.6 Q-1.1 1.4 -1.05 0.65 L-0.85 -0.4 -0.4 -0.95 -0.4 -1.0 -0.05 -0.15 0.0 0.7 0.1 0.65 M2.85 5.8 L3.05 5.9 3.15 6.0 Q3.5 6.5 3.05 6.95 2.4 7.55 2.05 6.75 1.65 5.9 2.6 5.75 L2.85 5.8 M2.5 12.0 Q2.25 13.15 2.5 14.55 2.65 15.4 3.2 16.0 L3.75 15.35 5.4 12.8 5.95 11.4 6.05 11.3 6.1 11.25 6.2 11.2 6.35 11.2 6.55 11.25 6.7 11.35 6.75 11.45 Q6.65 13.7 5.5 15.75 L5.15 16.35 5.25 16.3 7.0 15.55 Q9.45 14.45 12.05 13.85 L16.3 12.95 16.35 12.95 15.5 13.75 14.35 14.25 13.15 14.6 12.85 14.7 12.65 14.9 12.55 15.05 12.45 15.15 12.35 15.25 12.2 15.35 12.4 15.55 12.45 15.6 12.5 15.7 12.55 15.8 12.55 15.9 Q11.0 17.15 8.65 17.55 L7.1 17.8 Q6.6 18.4 5.5 18.45 4.95 18.45 4.5 18.8 3.9 19.25 3.6 19.95 L3.55 20.1 Q4.35 20.75 5.55 21.1 L6.8 21.5 7.1 21.8 7.15 21.9 7.1 22.0 7.05 22.2 6.8 22.45 6.7 22.5 3.65 21.6 2.7 21.2 2.75 21.6 3.0 22.45 3.75 23.45 Q4.1 23.8 4.1 24.3 L4.15 24.25 4.35 24.2 4.5 24.2 4.7 24.25 4.8 24.35 4.95 24.5 4.95 24.8 4.5 25.15 Q4.15 25.25 3.9 24.95 L3.9 24.85 3.85 24.85 Q3.0 24.9 2.6 24.05 L1.75 22.4 Q1.35 21.65 1.3 20.85 L1.2 19.5 1.1 19.4 1.1 19.5 1.0 19.7 0.95 19.9 0.7 20.05 0.5 20.05 0.1 20.0 0.0 20.1 -0.05 20.2 -0.15 20.25 -0.25 20.35 -3.95 21.15 Q-5.65 21.55 -7.2 22.35 L-8.6 22.2 -8.15 21.8 -8.2 21.75 Q-7.3 20.8 -5.85 20.25 L-5.9 20.2 -6.05 20.25 -6.25 20.3 -6.65 20.45 Q-7.55 21.3 -8.3 21.0 L-8.45 21.35 -11.15 22.0 -13.15 21.75 Q-13.35 21.0 -12.6 20.6 -11.0 19.75 -9.8 19.4 L-9.6 19.35 Q-10.0 18.65 -10.65 18.25 -12.75 17.0 -14.3 15.15 -15.15 14.1 -16.3 13.35 L-16.25 13.45 -16.2 13.55 -16.1 13.7 -16.05 13.9 -17.2 12.75 -18.45 11.55 Q-18.95 11.1 -19.0 10.45 -19.0 9.85 -18.5 9.75 -17.35 11.1 -15.65 12.05 L-12.45 14.15 Q-11.1 15.15 -9.8 16.35 L-9.55 16.15 -8.75 16.1 -8.4 16.3 -8.0 16.0 -7.95 16.0 -7.9 15.95 Q-8.05 15.25 -8.5 14.65 L-9.8 12.95 -10.3 12.25 Q-11.7 11.35 -12.5 9.65 L-14.0 6.8 -15.7 3.9 -15.7 3.8 -15.65 3.7 -15.55 3.6 -15.35 3.5 -15.15 3.45 Q-13.9 4.2 -13.0 5.7 L-11.2 8.2 Q-10.1 9.35 -10.3 10.75 L-9.0 12.8 Q-8.15 13.85 -7.45 14.95 L-7.3 14.95 -7.0 15.35 -6.6 15.7 -6.7 14.65 -7.2 13.5 Q-7.55 12.9 -7.15 12.4 L-7.0 12.3 Q-6.6 12.6 -6.35 13.0 L-7.7 8.85 -8.15 5.35 -8.3 4.9 Q-8.8 3.65 -8.25 2.9 L-7.8 3.6 -7.65 3.55 Q-7.1 4.65 -6.9 6.25 L-6.35 9.15 -5.65 11.7 -5.6 11.75 -5.55 11.75 -5.4 11.7 -5.15 11.6 -4.9 11.7 -4.75 11.8 -4.65 11.85 -3.25 14.55 -1.65 16.8 -1.55 16.3 -1.1 13.05 -0.9 11.85 -0.9 11.4 -0.9 10.4 Q-1.0 9.75 -0.5 9.65 L-0.5 9.6 Q0.0 9.85 0.0 10.45 L0.0 10.65 0.05 10.6 Q0.35 11.5 0.25 12.5 L0.0 14.25 -0.2 15.95 0.75 14.2 0.95 13.7 1.1 13.25 Q1.6 11.8 2.25 10.4 L3.3 8.2 Q3.1 10.15 2.5 12.0 M8.0 8.85 L8.35 8.85 8.4 8.85 Q8.65 9.05 8.5 9.3 L8.15 9.75 7.65 9.8 7.55 9.75 7.45 9.45 7.55 9.15 7.8 8.9 8.0 8.85 M1.45 15.1 Q1.25 15.9 1.55 16.6 L1.75 17.05 2.1 16.95 2.8 16.4 2.5 16.0 Q1.9 15.05 1.85 13.95 L1.85 13.9 1.5 14.85 1.45 15.1 M1.05 17.15 L0.9 16.85 1.0 17.15 1.05 17.15 M6.45 25.55 L6.3 25.85 5.85 26.1 5.6 26.05 5.5 25.95 5.4 25.85 5.4 25.7 5.4 25.4 5.4 25.3 5.45 25.2 5.55 25.15 5.7 25.05 5.85 25.05 5.85 25.0 6.0 25.05 6.2 25.1 6.3 25.2 6.45 25.35 6.45 25.55 M-22.4 -5.35 L-22.2 -5.25 -22.0 -5.1 -21.9 -4.8 -21.95 -4.75 -22.0 -4.65 -22.1 -4.5 -22.4 -4.3 -22.6 -4.35 -22.8 -4.45 -22.95 -4.65 -23.0 -4.8 -23.0 -4.9 -22.95 -5.0 -22.85 -5.15 -22.5 -5.35 -22.4 -5.35 M-10.9 -10.25 L-10.75 -10.15 -10.5 -9.95 -10.4 -9.7 -10.45 -9.6 -10.55 -9.5 -11.0 -9.35 -11.4 -9.75 -11.35 -9.8 -11.35 -9.9 -11.2 -10.1 -11.05 -10.2 -10.9 -10.25 M-10.55 -7.2 L-10.45 -7.1 -10.3 -6.75 Q-10.3 -6.4 -10.45 -6.1 -10.7 -5.75 -11.15 -5.95 L-11.25 -6.3 -11.15 -6.9 -10.75 -7.25 -10.55 -7.2 M-18.9 -3.5 L-18.75 -3.5 -18.6 -3.4 -18.4 -3.25 -18.3 -3.05 -18.3 -3.0 -18.3 -2.9 -18.4 -2.8 -18.5 -2.7 -18.6 -2.65 -19.15 -2.75 Q-19.45 -2.9 -19.35 -3.2 L-18.9 -3.5 M-9.7 -1.0 L-9.0 -1.5 -9.0 -1.55 -8.8 -1.45 -8.7 -1.4 -8.5 -0.95 -8.5 -0.2 -8.7 0.15 -8.7 0.35 -8.7 0.45 -8.85 0.3 -8.95 0.4 -9.15 0.4 -9.5 0.25 -9.65 0.2 -9.75 -0.4 -9.7 -1.0 M-15.9 0.0 Q-16.1 -0.35 -15.75 -0.4 -15.3 -0.35 -15.5 0.0 -15.7 0.35 -15.9 0.0 M-12.9 24.5 L-12.65 24.55 -12.45 24.6 -12.25 24.8 -12.2 24.85 Q-12.2 25.4 -12.65 25.7 L-13.75 26.5 -14.95 26.45 -14.95 26.35 -14.95 26.25 -14.95 26.2 -14.95 26.1 -14.9 25.9 -14.4 25.45 -13.6 24.85 -12.9 24.55 -12.9 24.5 M-3.0 17.8 L-3.0 18.15 -2.85 18.0 -2.9 17.95 -3.0 17.8 M-4.7 17.3 L-4.7 17.35 -4.7 17.3 M-5.25 16.95 L-5.05 17.1 -5.25 16.9 -5.25 16.95 M-5.4 18.7 L-5.4 18.4 -5.5 18.75 -5.4 18.7 M-24.05 5.65 L-23.7 5.9 Q-23.45 6.05 -23.35 6.35 L-23.35 6.45 Q-23.5 6.9 -24.0 6.8 L-24.8 6.15 Q-24.95 5.8 -24.65 5.6 L-24.4 5.45 -24.05 5.65 M-27.4 2.0 L-26.9 2.7 -26.9 2.8 Q-27.05 3.25 -27.5 3.25 -28.25 3.25 -28.8 2.75 L-29.45 1.7 -29.45 1.6 -29.4 1.55 -29.25 1.35 -29.15 1.3 -29.1 1.25 -29.05 1.25 -29.0 1.15 Q-28.8 0.95 -28.5 0.9 L-28.25 0.85 -28.05 0.9 -27.95 1.0 -27.85 1.2 -27.8 1.55 -27.75 1.7 -27.4 2.0 M-20.9 32.25 L-21.4 32.5 -21.8 32.4 -21.85 32.3 -21.85 32.2 -21.85 32.0 -21.8 31.85 -21.8 31.75 -21.7 31.65 -21.55 31.6 -21.25 31.55 -21.25 31.5 -21.05 31.6 -20.95 31.7 -20.85 31.85 -20.8 32.05 -20.9 32.25 M-14.4 29.45 Q-14.05 29.55 -14.15 29.85 L-14.4 30.35 -14.9 30.65 -15.2 30.45 -15.35 30.2 -15.35 29.95 -15.3 29.75 -15.05 29.6 -14.4 29.45 M-18.4 28.75 L-18.1 28.95 Q-17.95 29.1 -17.75 29.2 L-17.5 29.4 -17.4 29.5 -17.4 29.6 -17.35 29.7 -17.35 29.75 -17.35 29.85 -17.4 29.95 -17.45 30.05 -17.45 30.15 -18.75 30.8 Q-19.75 31.25 -20.2 30.3 L-20.25 29.75 -20.15 29.55 -19.65 29.3 -19.1 29.05 -18.4 28.75" fill="#400d0d" fill-rule="evenodd" stroke="none"/>
    <path d="M8.35 -10.15 L8.4 -10.15 8.75 -9.85 Q8.8 -9.55 8.5 -9.5 8.15 -9.45 8.1 -9.75 L8.1 -9.85 8.15 -9.95 8.15 -10.0 8.35 -10.15 M0.55 -11.95 L0.65 -11.35 0.55 -10.8 0.55 -10.7 0.4 -10.6 -0.15 -10.55 -0.45 -10.65 -0.55 -11.1 -0.5 -11.65 -0.2 -12.15 0.0 -12.25 Q0.4 -12.25 0.55 -11.95 M31.25 6.7 L31.55 6.95 31.4 7.3 31.0 7.25 30.85 7.05 30.85 6.95 30.9 6.85 30.95 6.8 31.1 6.75 31.25 6.75 31.25 6.7 M5.75 12.3 L5.9 12.35 6.0 12.45 6.1 12.6 6.1 12.8 6.05 13.0 5.8 13.2 5.6 13.3 5.3 13.1 Q5.15 13.05 5.15 12.85 L5.2 12.6 5.3 12.5 5.35 12.4 5.45 12.3 5.6 12.25 5.75 12.3 M10.05 15.75 Q10.15 15.55 10.35 15.55 L10.55 15.6 10.75 15.75 10.9 15.9 10.95 16.0 10.75 16.25 10.1 16.1 10.05 15.75 M2.25 21.85 L2.35 21.9 2.5 21.95 2.6 22.05 2.7 22.1 2.7 22.3 2.65 22.6 2.45 22.75 2.2 22.75 1.9 22.5 1.9 22.15 Q2.0 21.85 2.25 21.85 M-0.45 2.4 Q-0.55 2.0 -0.2 2.0 0.15 2.15 -0.1 2.5 -0.35 2.9 -0.45 2.4 M-7.75 5.95 L-7.7 6.4 -7.75 6.9 Q-8.15 7.0 -8.2 6.5 L-8.25 5.85 -8.1 5.55 -7.95 5.5 -7.75 5.95 M-14.15 4.9 L-14.0 4.85 -13.3 5.5 -12.85 6.5 -12.7 7.5 Q-13.35 7.75 -13.7 7.05 L-14.3 5.8 Q-14.6 5.25 -14.15 4.9 M-18.25 10.8 L-18.1 10.9 -17.9 11.1 -17.85 11.25 -17.85 11.45 -18.05 11.75 -18.65 11.75 -18.8 11.6 -18.95 11.2 -18.8 10.85 Q-18.7 10.7 -18.5 10.7 L-18.4 10.7 -18.25 10.8 M-4.6 13.2 L-4.5 13.8 Q-4.35 14.05 -4.35 14.35 L-4.4 14.45 -4.5 14.5 -4.75 14.5 -5.05 14.35 -5.35 13.8 -5.45 13.15 Q-5.4 12.75 -5.0 12.7 -4.6 12.8 -4.6 13.2 M-29.3 2.1 L-29.25 2.0 -29.2 1.9 -28.75 1.75 Q-28.45 1.8 -28.25 2.05 L-28.1 2.55 Q-28.1 2.85 -28.45 3.0 L-28.95 2.9 -29.3 2.45 -29.3 2.1 M-15.15 27.1 L-15.25 26.9 -15.35 26.6 -15.15 26.35 -14.9 26.25 -14.7 26.3 -14.55 26.4 -14.45 26.5 -14.4 26.6 -14.4 26.65 -14.5 26.85 -14.75 27.05 -15.15 27.1 M-19.15 30.15 L-19.2 30.4 -19.25 30.6 -19.3 30.7 -19.35 30.7 -19.65 30.75 -20.05 30.6 -20.1 30.45 -20.1 30.05 -19.85 29.7 -19.65 29.6 -19.5 29.65 -19.3 29.7 -19.2 29.75 -19.15 29.85 -19.15 29.95 -19.15 30.15" fill="#ffffff" fill-rule="evenodd" stroke="none"/>
  </g>
</svg>
