<?xml version="1.0" encoding="UTF-8" standalone="no"?>
<svg xmlns:xlink="http://www.w3.org/1999/xlink" height="201.7px" width="208.5px" xmlns="http://www.w3.org/2000/svg">
  <g transform="matrix(1.0, 0.0, 0.0, 1.0, 104.25, 100.8)">
    <path d="M59.1 -80.95 Q58.6 -76.65 56.75 -72.85 57.05 -77.3 57.95 -82.1 58.8 -86.75 59.25 -91.45 59.75 -96.2 61.5 -99.35 61.35 -94.9 60.5 -90.3 59.65 -85.65 59.1 -80.95 M70.75 -71.95 L71.0 -71.95 Q71.7 -71.6 71.5 -70.95 71.15 -69.95 70.45 -70.8 69.6 -71.75 70.75 -71.95 M67.75 -56.45 Q70.15 -53.6 68.85 -48.9 67.8 -44.95 67.5 -40.8 67.2 -36.6 64.75 -34.1 61.8 -37.05 62.85 -41.95 L64.5 -50.2 Q65.25 -54.35 67.75 -56.45 M79.5 -4.65 Q80.0 -5.15 80.75 -5.0 L80.75 -5.1 81.55 -4.75 82.25 -4.05 82.6 -3.35 82.75 -2.95 82.45 -2.2 Q82.15 -1.5 81.4 -1.35 79.9 -1.05 79.25 -2.35 L79.15 -2.7 79.05 -3.45 Q79.0 -4.15 79.5 -4.65 M90.9 -50.2 Q87.35 -43.2 82.1 -39.35 84.95 -46.5 89.3 -53.7 93.45 -60.6 97.1 -67.75 100.4 -74.15 104.25 -79.45 103.1 -72.75 98.7 -64.85 94.65 -57.6 90.9 -50.2 M83.5 -68.15 Q81.2 -64.25 78.95 -68.3 76.85 -72.15 81.25 -72.95 85.8 -71.9 83.5 -68.15 M85.85 -27.75 L86.35 -27.7 87.0 -24.65 Q87.25 -23.15 86.05 -22.1 85.05 -21.2 83.7 -21.1 L82.6 -21.2 Q80.95 -22.25 81.25 -24.2 81.5 -25.85 83.0 -26.8 84.3 -27.55 85.85 -27.75 M93.2 47.5 Q83.85 52.15 75.75 59.0 70.4 63.55 65.5 68.45 L66.25 69.15 66.55 70.25 Q66.7 71.05 66.35 71.8 65.9 72.8 64.85 73.3 73.45 76.7 82.9 75.95 88.15 75.5 92.35 77.4 83.7 86.45 70.75 82.5 66.35 81.15 62.2 80.25 L58.6 79.35 55.35 79.55 52.3 83.25 Q45.2 92.15 38.75 100.9 37.45 95.9 41.95 90.65 L50.4 81.25 51.2 80.4 Q46.05 82.45 41.1 85.05 36.4 87.5 31.6 88.8 29.2 82.95 37.0 79.45 L39.5 78.4 39.0 78.05 38.75 77.65 38.65 77.3 38.6 76.9 38.6 76.55 38.65 76.15 38.75 75.8 30.35 66.25 23.55 58.5 17.55 52.05 Q14.85 49.2 16.75 47.55 20.4 49.7 23.25 53.4 25.95 56.9 29.2 59.95 32.45 63.0 36.6 64.55 L36.95 64.35 37.25 64.1 37.75 63.8 Q39.9 64.15 41.8 65.35 L46.2 67.75 47.0 68.3 46.9 69.05 Q46.85 69.75 47.45 70.2 L48.25 71.0 48.65 71.65 48.85 71.9 52.5 72.45 52.2 67.8 52.05 67.6 Q51.55 66.7 51.95 65.95 L51.65 64.05 Q50.65 58.35 50.05 52.55 L49.05 44.4 Q48.85 42.95 49.35 41.3 L49.75 40.95 50.1 40.7 50.75 40.55 51.2 40.5 51.25 40.4 51.7 40.45 52.2 40.55 52.8 40.85 53.1 41.15 Q53.3 45.6 54.25 49.85 L56.15 58.75 Q57.1 63.15 56.75 67.8 57.9 67.1 59.1 66.85 61.15 61.45 66.25 56.25 70.65 51.75 74.55 46.6 L89.9 26.65 Q95.65 19.2 101.75 12.9 104.65 17.05 99.1 23.75 L88.2 36.95 77.05 50.35 76.0 51.8 Q80.65 47.75 86.5 43.85 L100.35 34.7 Q101.7 33.8 103.0 35.05 102.75 42.75 93.2 47.5 M74.85 15.4 L75.35 16.6 Q75.6 17.25 74.9 17.5 L73.95 17.45 73.5 16.9 73.75 16.55 74.05 16.15 74.45 15.55 74.5 15.45 74.75 15.4 74.85 15.4 M69.05 30.65 L69.8 31.35 70.2 32.05 70.35 32.4 70.15 33.15 69.65 34.4 Q69.2 35.2 68.35 35.6 L67.75 35.8 Q67.05 35.5 66.45 35.0 65.85 34.5 65.7 33.7 L65.65 32.15 65.75 31.8 65.9 31.45 Q66.3 31.05 66.8 30.85 L68.2 30.35 68.25 30.3 Q68.65 30.4 69.05 30.65 M40.1 73.3 Q42.15 75.55 45.0 75.9 46.0 75.15 47.2 74.95 L50.6 75.15 51.8 74.3 51.3 74.1 48.65 74.15 47.6 74.15 Q46.4 71.6 44.4 69.25 41.35 65.65 36.5 65.1 L32.35 64.55 36.45 69.05 40.1 73.3 M56.1 73.55 Q56.3 74.35 57.35 73.75 L57.75 73.3 58.05 70.7 57.2 71.4 56.65 72.1 56.45 72.5 56.25 72.85 Q56.1 73.15 56.1 73.55 M-83.25 -100.6 L-83.1 -100.15 Q-80.15 -94.5 -77.7 -88.55 -76.45 -86.2 -75.5 -83.3 L-73.6 -76.8 -73.5 -76.5 Q-69.1 -67.4 -65.95 -57.7 -63.3 -49.6 -62.2 -41.65 L-61.45 -41.4 -61.05 -41.05 -60.8 -40.7 -60.65 -40.35 -60.7 -39.6 Q-60.95 -38.7 -61.55 -38.0 -62.45 -37.1 -63.65 -37.7 L-64.0 -38.1 -64.05 -38.15 Q-63.6 -34.55 -63.5 -31.35 L-66.8 -44.1 -67.5 -46.9 -69.55 -54.9 -71.9 -63.75 Q-75.35 -71.8 -79.5 -79.25 -80.2 -80.5 -81.5 -81.1 L-82.35 -87.1 -83.3 -93.85 Q-83.8 -96.8 -83.85 -99.7 -83.85 -100.4 -83.4 -100.55 L-83.5 -100.8 -83.35 -100.55 -83.25 -100.6 M-74.75 -44.25 L-74.75 -44.35 -73.8 -44.05 Q-73.0 -43.75 -72.55 -43.0 L-72.1 -41.8 -72.0 -41.1 -72.3 -40.35 Q-72.95 -39.15 -74.25 -39.1 -75.75 -39.05 -76.75 -40.1 L-76.95 -40.45 -77.1 -41.2 -77.1 -42.3 -76.6 -43.45 -76.25 -43.85 -75.75 -44.1 -75.5 -44.15 -74.75 -44.25 M-73.1 -31.95 L-72.9 -32.2 -72.75 -32.3 -72.3 -32.4 -72.25 -32.45 Q-71.25 -32.15 -70.9 -31.1 -70.45 -29.8 -71.75 -29.8 -72.8 -29.75 -73.15 -30.85 L-73.25 -31.2 -73.25 -31.6 -73.1 -31.95 M-65.55 -26.3 L-65.05 -25.95 -64.75 -25.6 Q-64.7 -25.2 -64.8 -24.85 L-65.05 -23.75 Q-65.25 -23.0 -65.95 -22.65 -66.35 -22.45 -66.75 -22.35 L-67.6 -22.65 -67.95 -23.0 -68.3 -23.75 -68.4 -24.45 -68.3 -24.8 -67.9 -25.6 Q-67.3 -26.5 -66.25 -26.5 L-66.25 -26.6 -65.55 -26.3 M-69.75 -5.45 Q-68.65 -5.6 -68.9 -4.8 -69.15 -3.95 -69.85 -4.55 -70.6 -5.2 -69.75 -5.45 M-11.25 19.6 L-10.65 19.5 -10.25 19.45 -10.15 19.4 Q-13.45 29.75 -15.45 41.15 -17.45 52.3 -21.6 62.8 -23.8 68.3 -25.25 73.7 L-25.25 73.8 Q-25.3 74.75 -25.75 75.55 L-26.1 76.95 -24.75 76.55 Q-20.2 77.6 -22.45 81.35 -24.8 85.25 -27.05 81.2 L-27.15 81.65 Q-28.35 81.25 -29.15 80.65 L-29.45 81.65 Q-30.2 83.8 -31.55 85.65 L-31.9 86.5 -31.9 86.55 -31.6 87.25 -30.85 88.8 Q-30.55 89.5 -30.55 90.3 L-30.5 91.4 Q-30.8 92.35 -31.7 92.8 -35.35 94.7 -38.4 92.0 -39.85 90.7 -41.9 89.8 L-43.8 85.75 -44.25 85.7 Q-45.95 86.8 -48.85 87.15 L-51.25 87.25 -54.9 89.4 Q-57.95 91.25 -60.75 90.4 -59.05 86.9 -55.55 84.95 L-64.5 85.9 -64.5 86.3 -64.55 86.65 -64.65 87.0 -64.9 87.4 -65.8 87.7 Q-70.5 88.9 -75.25 89.0 L-92.75 88.5 Q-93.3 88.45 -93.75 88.0 L-94.0 87.4 -94.0 87.05 Q-94.05 86.4 -93.6 86.5 -84.5 87.8 -75.2 84.9 L-71.75 83.9 -68.0 83.05 -59.25 81.3 -52.25 81.35 -53.0 79.85 -54.0 79.8 Q-54.1 79.1 -53.4 78.8 L-53.5 78.45 -53.85 75.7 Q-55.8 74.75 -57.65 73.1 L-60.5 70.65 Q-68.3 66.95 -76.15 61.1 -85.5 54.15 -93.8 45.85 -101.45 38.2 -104.25 30.05 -95.0 38.35 -84.65 45.3 -75.7 51.4 -67.1 58.05 L-66.75 57.25 Q-65.65 55.35 -63.25 55.75 L-63.25 55.65 Q-61.35 55.6 -60.1 56.9 -58.8 58.2 -58.65 60.0 -58.55 61.65 -59.5 63.05 L-60.35 63.5 -52.1 70.7 -51.45 70.2 Q-51.35 69.6 -50.5 69.4 L-50.3 69.65 -48.75 69.35 -48.75 69.3 Q-45.35 70.9 -43.6 74.35 -41.45 73.35 -39.1 72.75 L-38.25 72.4 -37.0 72.45 Q-36.3 68.8 -36.1 65.1 L-36.15 64.65 -36.1 64.3 -36.05 64.1 Q-35.95 60.35 -36.35 56.55 -37.6 44.3 -35.2 32.6 -33.1 22.05 -26.5 14.4 -26.3 24.35 -27.55 34.6 -27.45 34.95 -27.5 35.4 -27.6 36.2 -27.25 36.8 -26.8 37.6 -27.25 38.4 L-28.05 38.4 Q-28.9 44.25 -30.2 50.1 -29.95 50.85 -30.45 52.0 L-30.8 52.75 -31.05 53.7 Q-28.7 54.95 -30.45 57.85 -31.45 59.5 -32.4 59.75 L-32.9 63.0 -32.25 63.75 -31.75 64.8 -31.75 65.15 -31.9 65.55 -32.15 65.9 -32.9 66.5 -33.15 66.65 -33.3 66.7 -33.4 72.9 -31.75 69.8 -30.1 66.0 Q-29.5 64.4 -28.25 63.4 -28.1 66.55 -30.2 70.25 L-30.4 70.65 Q-29.85 70.3 -29.25 70.05 -24.85 59.45 -22.35 48.25 -19.8 36.8 -15.25 26.05 -13.95 22.9 -12.25 19.9 L-11.25 19.6 M-34.75 48.05 L-34.5 51.6 -32.7 49.6 Q-32.05 49.0 -31.3 48.9 L-31.25 48.4 -29.3 32.65 Q-28.35 24.7 -27.9 17.65 -33.0 23.9 -34.15 31.95 -35.3 39.8 -34.75 48.05 M-70.0 16.15 L-67.1 25.95 Q-65.5 31.0 -63.5 35.95 -61.7 40.3 -60.4 44.65 -65.0 41.6 -67.0 35.1 L-69.75 24.55 Q-70.9 19.5 -70.0 16.15 M-79.7 14.35 L-80.15 14.8 Q-81.85 15.7 -83.35 14.4 -84.6 13.35 -85.45 12.05 -86.35 10.8 -86.4 9.3 L-86.35 8.95 -86.1 8.55 -85.45 7.95 -84.3 7.5 -84.25 7.4 -83.75 7.45 -82.75 7.65 -81.1 9.4 Q-80.05 10.5 -79.4 11.8 -78.75 13.1 -79.7 14.35 M-80.35 36.7 Q-81.15 37.55 -81.45 36.5 -81.75 35.45 -80.75 35.4 L-80.5 35.4 Q-79.75 36.0 -80.35 36.7 M-50.75 62.6 L-49.95 62.9 Q-49.5 63.15 -49.15 63.55 -48.7 64.0 -48.75 64.65 -48.9 65.3 -49.3 65.75 -50.5 67.05 -52.25 66.2 -53.1 65.8 -53.25 64.8 L-53.25 64.4 -53.2 64.05 -52.85 63.3 Q-52.3 62.45 -51.25 62.6 L-51.25 62.55 -50.75 62.6 M-53.1 72.1 L-62.9 63.85 Q-65.0 63.55 -66.65 61.2 L-67.0 60.6 Q-69.85 58.35 -72.8 56.2 -82.4 49.05 -91.6 41.45 L-103.25 31.65 Q-96.8 41.2 -88.25 49.3 -79.8 57.4 -69.85 63.7 L-65.85 66.1 -66.8 65.35 Q-72.0 61.05 -74.15 57.15 L-74.0 57.15 Q-69.4 60.45 -64.9 63.95 L-55.45 70.95 -53.45 72.35 -53.25 72.45 -53.1 72.1 M-42.2 78.7 L-37.95 75.9 -38.05 75.75 -38.25 75.05 -38.25 74.65 -38.1 74.35 Q-40.4 74.5 -43.0 75.7 L-42.2 78.7 M-27.25 56.2 L-26.45 56.5 -25.7 57.2 -25.25 57.9 Q-25.3 58.5 -25.7 59.0 -26.45 60.05 -27.75 59.9 -29.15 59.75 -29.6 58.5 L-29.65 58.15 -29.6 57.8 -29.5 57.45 -28.95 56.75 -28.35 56.35 -27.75 56.15 -27.25 56.2 M-34.1 59.05 L-34.0 61.9 -33.35 59.6 -34.1 59.05 M-35.55 72.75 L-35.25 73.05 -35.3 73.4 -35.3 73.5 -35.1 73.6 Q-35.1 72.05 -35.25 70.55 L-35.95 72.55 -35.55 72.75 M-94.65 39.0 L-94.5 39.15 -94.75 39.2 -96.4 38.9 -96.3 38.85 -96.25 38.8 -94.65 39.0" fill="#b4fefd" fill-rule="evenodd" stroke="none"/>
  </g>
</svg>
