<?xml version="1.0" encoding="UTF-8" standalone="no"?>
<svg xmlns:xlink="http://www.w3.org/1999/xlink" height="3.15px" width="19.1px" xmlns="http://www.w3.org/2000/svg">
  <g transform="matrix(1.0, 0.0, 0.0, 1.0, 9.35, 1.35)">
    <path d="M8.0 -0.85 L8.9 -0.6 9.65 0.15 9.75 0.5 9.45 0.95 Q8.05 2.25 6.05 1.6 5.15 1.3 5.1 0.45 5.05 -0.1 5.45 -0.5 L5.65 -0.65 5.9 -0.8 6.25 -0.85 6.75 -0.9 6.75 -0.95 8.0 -0.85 M-6.25 -1.3 L-5.45 -1.1 -4.75 -0.5 -4.6 -0.1 Q-4.6 0.45 -5.05 0.75 -7.25 2.5 -9.25 0.6 L-9.35 0.3 -9.35 -0.05 -8.95 -0.65 Q-7.95 -1.45 -6.75 -1.35 L-6.25 -1.3" fill="#66ffff" fill-rule="evenodd" stroke="none"/>
  </g>
</svg>
