<?xml version="1.0" encoding="UTF-8" standalone="no"?>
<svg xmlns:xlink="http://www.w3.org/1999/xlink" height="230.2px" width="204.1px" xmlns="http://www.w3.org/2000/svg">
  <g transform="matrix(1.0, 0.0, 0.0, 1.0, 102.05, 115.1)">
    <path d="M83.65 -115.0 L83.7 -114.6 83.6 -114.25 82.85 -113.55 81.95 -112.9 81.15 -112.25 81.1 -111.85 81.15 -111.5 81.2 -111.1 81.2 -110.35 81.15 -109.95 Q74.85 -106.65 70.15 -101.45 66.3 -97.25 63.65 -92.2 62.15 -89.35 60.2 -87.25 56.5 -76.85 50.2 -67.5 L37.65 -48.85 Q41.2 -59.6 48.3 -69.95 52.8 -76.5 55.65 -83.65 L55.0 -83.35 Q54.65 -85.75 56.85 -88.1 L57.4 -88.7 58.7 -93.55 Q60.55 -101.55 66.3 -106.5 61.2 -104.85 56.75 -101.35 48.15 -94.55 40.85 -86.5 33.7 -78.55 28.55 -70.05 28.4 -69.8 27.9 -69.7 28.55 -73.5 31.2 -77.25 36.1 -84.1 42.05 -90.05 51.0 -99.0 61.45 -106.0 65.0 -108.35 69.15 -108.85 L69.5 -108.85 Q71.85 -110.3 74.65 -111.35 L74.65 -111.75 74.65 -112.1 Q75.3 -113.35 76.6 -113.7 L80.7 -114.65 83.65 -115.0" fill="url(#gradient0)" fill-rule="evenodd" stroke="none"/>
    <path d="M83.65 -115.0 L81.15 -115.1 82.15 -115.1 82.75 -115.1 83.65 -115.0" fill="url(#gradient1)" fill-rule="evenodd" stroke="none"/>
    <path d="M92.55 -76.05 L95.1 -77.35 96.65 -78.1 Q99.05 -77.95 98.0 -76.2 L96.45 -73.75 94.4 -71.2 92.65 -71.2 Q92.0 -71.3 91.45 -71.65 L91.15 -71.95 91.05 -72.35 91.05 -72.7 91.35 -73.4 Q91.65 -73.95 91.6 -74.6 L91.65 -75.35 92.55 -76.05" fill="url(#gradient2)" fill-rule="evenodd" stroke="none"/>
    <path d="M101.5 -45.35 Q100.9 -44.8 100.15 -44.75 L99.5 -44.85 99.35 -45.6 99.55 -46.3 100.1 -47.1 100.35 -47.35 100.9 -47.45 Q102.05 -47.45 102.05 -46.45 102.05 -45.8 101.5 -45.35" fill="url(#gradient3)" fill-rule="evenodd" stroke="none"/>
    <path d="M93.75 -41.95 L93.6 -41.35 92.75 -40.1 Q92.45 -39.4 91.65 -39.3 90.65 -39.2 90.0 -39.95 L89.9 -40.35 89.95 -40.7 90.3 -41.4 90.95 -41.95 91.6 -42.25 91.65 -42.35 92.25 -42.25 93.1 -42.2 93.75 -41.95" fill="url(#gradient4)" fill-rule="evenodd" stroke="none"/>
    <path d="M86.75 -31.45 Q85.95 -30.65 85.35 -31.45 84.8 -32.15 85.8 -32.6 L86.4 -32.7 Q87.55 -32.3 86.75 -31.45" fill="url(#gradient5)" fill-rule="evenodd" stroke="none"/>
    <path d="M89.4 -34.2 L90.15 -34.9 Q90.85 -35.5 91.65 -35.65 L91.65 -35.7 Q92.9 -35.8 92.3 -35.1 L91.15 -33.7 Q90.45 -32.9 89.4 -32.75 L88.9 -32.7 88.95 -33.4 89.4 -34.2" fill="url(#gradient6)" fill-rule="evenodd" stroke="none"/>
    <path d="M84.65 -25.85 Q86.65 -26.0 86.15 -24.3 85.8 -23.2 84.65 -22.85 83.05 -22.45 82.15 -23.55 L81.9 -24.2 81.95 -24.55 82.3 -24.9 83.15 -25.3 84.65 -25.85" fill="url(#gradient7)" fill-rule="evenodd" stroke="none"/>
    <path d="M88.55 -13.55 L89.2 -14.0 89.75 -14.15 90.4 -14.2 Q91.15 -13.6 90.95 -12.7 90.65 -11.65 89.65 -11.45 88.35 -11.25 88.05 -12.45 L88.0 -12.85 88.55 -13.55" fill="url(#gradient8)" fill-rule="evenodd" stroke="none"/>
    <path d="M81.05 -1.1 L80.75 -1.3 Q81.1 -4.35 84.05 -6.35 86.7 -8.15 88.9 -10.45 90.8 -12.35 93.15 -13.2 95.2 -11.0 92.25 -8.3 L87.95 -4.6 83.75 -1.05 82.25 -1.0 81.05 -1.1" fill="url(#gradient9)" fill-rule="evenodd" stroke="none"/>
    <path d="M90.35 -0.45 L89.65 0.7 89.4 0.95 88.7 1.0 87.65 0.4 Q87.45 0.2 87.4 -0.2 87.25 -0.85 87.75 -1.2 88.45 -1.7 88.75 -2.45 89.0 -3.15 89.65 -3.1 L89.9 -3.05 Q90.65 -2.6 90.55 -1.9 L90.35 -0.45" fill="url(#gradient10)" fill-rule="evenodd" stroke="none"/>
    <path d="M91.25 5.5 L90.4 5.85 Q89.4 6.15 89.7 5.25 L90.0 4.8 90.5 4.55 90.8 4.45 91.15 4.45 91.4 4.45 Q92.15 5.0 91.25 5.5" fill="url(#gradient11)" fill-rule="evenodd" stroke="none"/>
    <path d="M62.6 20.15 Q63.25 19.55 64.0 19.2 L65.05 18.75 Q65.3 18.6 65.65 18.55 L67.15 18.65 67.8 18.9 68.35 19.55 68.5 19.95 68.15 20.55 Q66.65 21.8 64.95 22.4 L63.65 22.55 Q62.75 22.45 62.4 21.55 L62.3 21.2 Q62.1 20.55 62.6 20.15" fill="url(#gradient12)" fill-rule="evenodd" stroke="none"/>
    <path d="M60.25 83.3 L59.2 85.95 57.55 88.5 55.65 91.05 Q55.0 89.5 56.35 87.95 L58.5 85.55 60.05 83.4 60.25 83.3" fill="url(#gradient13)" fill-rule="evenodd" stroke="none"/>
    <path d="M42.85 93.4 L43.25 93.2 Q43.45 94.05 42.7 94.8 42.1 95.4 41.9 96.25 41.8 96.9 41.1 97.2 L40.25 97.45 Q39.65 96.55 40.65 95.8 L41.95 94.5 42.85 93.4" fill="url(#gradient14)" fill-rule="evenodd" stroke="none"/>
    <path d="M48.65 95.95 Q48.5 95.1 49.05 94.5 49.8 93.6 50.65 92.85 51.1 92.4 51.75 92.45 L52.4 92.45 Q52.9 93.05 52.75 93.95 L52.3 95.4 51.6 96.55 51.25 96.85 50.15 96.8 48.95 96.25 48.65 95.95" fill="url(#gradient15)" fill-rule="evenodd" stroke="none"/>
    <path d="M55.4 93.95 Q56.45 92.65 57.65 92.05 59.85 93.85 57.7 96.8 L54.4 101.55 53.4 103.35 53.5 103.25 54.15 103.1 54.25 103.1 54.65 103.1 54.9 103.1 55.25 103.85 55.4 104.6 55.25 105.35 56.65 103.65 58.7 100.6 Q59.65 99.15 59.0 100.85 L58.8 101.2 58.4 101.95 Q58.3 102.15 58.35 102.3 L58.45 102.25 58.75 101.95 67.9 91.95 77.3 82.45 Q81.6 78.2 86.65 75.55 83.45 81.55 76.15 88.1 69.5 94.05 63.75 100.95 59.9 105.6 55.8 108.9 L55.75 108.95 55.2 109.35 54.25 110.1 57.25 109.75 58.15 109.6 62.65 109.7 Q63.85 109.75 64.0 110.95 63.6 112.45 61.9 112.55 L53.1 113.2 48.7 113.95 Q47.9 114.65 46.9 115.1 L47.5 113.95 Q46.9 113.7 46.75 112.85 L46.75 112.45 46.75 112.1 46.8 111.7 47.05 111.4 47.65 111.1 47.25 110.95 Q47.55 108.95 49.05 106.8 L51.95 102.65 Q53.7 100.1 53.7 99.25 L53.65 99.35 Q51.0 99.0 53.0 96.8 L55.4 93.95 M50.95 107.35 L51.3 106.8 51.15 106.85 50.95 107.35" fill="url(#gradient16)" fill-rule="evenodd" stroke="none"/>
    <path d="M78.15 98.7 L78.25 98.7 Q78.7 99.6 78.2 100.4 L77.4 101.7 Q76.95 102.45 76.15 102.55 L75.65 102.6 Q74.65 102.5 74.55 101.55 74.5 101.0 74.75 100.45 L75.15 99.7 Q75.4 98.85 76.15 99.05 L77.1 98.9 78.15 98.7" fill="url(#gradient17)" fill-rule="evenodd" stroke="none"/>
    <path d="M64.15 107.45 L64.4 107.1 Q65.6 106.65 66.65 105.9 67.1 105.6 67.65 105.55 L68.75 105.35 Q68.55 106.25 67.95 107.05 L66.5 108.95 Q65.65 110.0 64.4 109.35 L64.15 108.95 64.05 108.55 64.05 107.85 64.15 107.45" fill="url(#gradient18)" fill-rule="evenodd" stroke="none"/>
    <path d="M48.75 103.85 Q47.35 104.95 45.45 105.85 L44.55 106.2 43.4 106.2 Q43.35 105.5 43.85 104.95 L44.2 104.35 44.5 103.95 44.75 103.55 44.9 103.4 45.25 103.35 Q45.15 104.05 45.5 104.5 L46.35 104.6 48.05 104.0 48.75 103.85" fill="url(#gradient19)" fill-rule="evenodd" stroke="none"/>
    <path d="M46.5 109.3 L45.5 111.1 Q44.95 111.8 44.1 111.9 L43.5 111.85 Q43.0 110.55 43.8 109.6 44.55 108.7 45.75 108.05 L46.95 107.4 47.25 107.35 46.5 109.3" fill="url(#gradient20)" fill-rule="evenodd" stroke="none"/>
    <path d="M36.85 108.95 Q36.35 108.55 36.2 107.95 36.05 107.35 36.25 106.85 36.5 106.3 37.05 106.15 L39.1 105.75 39.9 105.85 Q40.6 106.25 40.6 106.95 40.6 107.55 40.2 108.15 L39.2 109.15 38.75 109.35 Q37.75 109.6 36.85 108.95" fill="url(#gradient21)" fill-rule="evenodd" stroke="none"/>
    <path d="M-46.85 -112.2 Q-46.65 -113.65 -45.4 -114.6 L-44.65 -114.3 -44.15 -113.95 -43.75 -113.6 Q-43.05 -111.2 -41.9 -109.0 -40.35 -106.1 -37.15 -106.65 -35.15 -107.0 -33.35 -108.0 L-32.3 -110.05 -31.25 -111.1 -30.4 -111.3 -29.9 -111.25 -28.65 -110.75 Q-29.85 -102.25 -34.65 -94.0 -39.25 -86.2 -41.8 -77.5 -44.55 -68.45 -44.4 -58.95 -44.4 -57.15 -44.9 -55.7 L-46.4 -56.05 Q-45.65 -50.65 -44.5 -45.2 -40.2 -24.6 -40.8 -3.45 -41.55 22.7 -49.9 46.7 -47.45 30.85 -45.0 12.25 -41.35 -15.55 -45.95 -43.0 -49.45 -63.85 -51.1 -85.15 -51.9 -95.25 -50.0 -103.95 L-49.95 -104.55 Q-51.65 -107.75 -53.7 -110.8 L-53.75 -111.1 -53.6 -111.45 -53.25 -111.85 -52.75 -112.15 -51.9 -112.4 -51.9 -112.5 Q-49.85 -112.15 -48.8 -110.55 -48.15 -111.65 -46.9 -112.25 L-46.85 -112.2 M-37.85 -103.5 L-38.05 -103.55 -37.95 -103.4 -37.85 -103.5 M-47.35 -66.7 L-46.75 -69.7 -47.4 -69.85 -47.8 -69.95 -47.5 -65.75 -47.35 -66.7" fill="url(#gradient22)" fill-rule="evenodd" stroke="none"/>
    <path d="M-58.9 -102.6 L-57.7 -102.2 Q-57.05 -101.9 -56.95 -101.2 -56.9 -100.65 -57.15 -100.1 L-57.4 -99.7 -57.8 -99.4 -60.05 -99.3 -60.65 -99.85 -60.6 -100.6 -60.4 -101.35 Q-60.25 -101.95 -59.7 -102.25 L-58.9 -102.6" fill="url(#gradient23)" fill-rule="evenodd" stroke="none"/>
    <path d="M-30.0 -72.35 L-30.0 -72.7 -29.85 -73.1 -29.6 -73.35 -28.9 -73.65 -28.9 -73.7 Q-27.55 -73.75 -27.65 -72.45 -27.7 -71.2 -28.9 -71.2 -30.1 -71.15 -30.0 -72.35" fill="url(#gradient24)" fill-rule="evenodd" stroke="none"/>
    <path d="M-60.9 -65.1 L-60.15 -64.8 -59.65 -64.45 -58.8 -63.7 Q-58.3 -63.2 -58.65 -62.6 L-59.2 -62.05 Q-59.7 -61.65 -60.4 -61.7 -61.65 -61.8 -62.25 -63.0 L-62.4 -63.35 -62.4 -63.7 -62.35 -64.05 -62.1 -64.4 -60.9 -65.0 -60.9 -65.1" fill="url(#gradient25)" fill-rule="evenodd" stroke="none"/>
    <path d="M-51.9 -68.7 Q-51.1 -68.5 -50.75 -67.7 L-50.4 -66.25 Q-50.3 -65.45 -51.05 -64.75 L-51.4 -64.45 Q-52.35 -64.1 -53.1 -64.85 -53.8 -65.55 -53.8 -66.45 L-53.75 -67.6 -53.5 -67.95 -53.0 -68.3 -52.4 -68.55 -51.9 -68.7" fill="url(#gradient26)" fill-rule="evenodd" stroke="none"/>
    <path d="M-58.7 -50.7 L-58.7 -51.85 Q-58.75 -52.65 -57.9 -52.75 -57.75 -52.75 -57.65 -52.85 -56.7 -52.6 -56.3 -51.7 -55.95 -50.75 -56.5 -49.9 -57.15 -49.0 -58.15 -49.6 -58.75 -50.0 -58.7 -50.7" fill="url(#gradient27)" fill-rule="evenodd" stroke="none"/>
    <path d="M-48.9 -52.8 L-49.25 -47.2 Q-49.3 -44.7 -50.4 -42.45 L-49.95 -47.6 Q-49.65 -50.4 -49.65 -53.2 -49.65 -56.0 -49.9 -57.7 L-49.9 -57.85 Q-48.6 -56.0 -48.9 -52.8" fill="url(#gradient28)" fill-rule="evenodd" stroke="none"/>
    <path d="M-57.75 -47.35 L-57.8 -46.95 -57.9 -46.6 -58.1 -46.25 -59.0 -45.45 -59.4 -45.1 -60.35 -45.1 Q-61.85 -45.4 -62.35 -46.75 -62.7 -47.8 -61.7 -48.35 L-60.9 -48.7 -59.4 -48.65 -58.7 -48.35 -57.95 -47.65 -57.75 -47.35" fill="url(#gradient29)" fill-rule="evenodd" stroke="none"/>
    <path d="M-57.95 -33.45 Q-58.55 -34.75 -57.4 -34.95 -56.1 -34.55 -56.8 -33.3 -57.4 -32.15 -57.95 -33.45" fill="url(#gradient30)" fill-rule="evenodd" stroke="none"/>
    <path d="M-58.5 -25.2 Q-58.45 -24.6 -58.85 -24.15 L-59.25 -23.7 -59.9 -23.65 -61.2 -23.95 Q-61.9 -24.25 -61.9 -24.95 L-61.85 -25.3 -61.45 -26.0 -60.6 -26.6 -59.9 -26.9 -59.9 -26.95 -58.95 -26.2 -58.5 -25.2" fill="url(#gradient31)" fill-rule="evenodd" stroke="none"/>
    <path d="M-54.35 -12.05 Q-54.65 -18.35 -53.9 -24.45 -53.25 -30.3 -51.75 -35.2 -52.0 -9.5 -51.15 16.55 -50.3 42.05 -49.9 67.75 L-48.05 75.1 Q-46.35 81.7 -43.9 87.95 -40.7 89.9 -39.2 94.1 -37.8 97.95 -35.35 101.3 -33.9 103.35 -34.65 105.45 -40.35 103.15 -43.85 95.25 -45.85 90.8 -47.5 86.2 -46.95 88.75 -47.65 91.3 L-48.4 91.4 -48.55 91.4 Q-47.35 102.35 -45.15 112.85 -50.1 111.45 -51.45 104.75 -52.45 99.75 -54.25 94.85 -55.45 91.65 -55.75 88.2 -56.15 93.05 -57.55 97.75 -59.05 102.75 -61.05 107.6 -63.05 112.5 -67.4 110.85 -57.15 97.4 -58.05 79.3 -58.8 63.3 -57.65 47.7 -57.2 41.35 -57.2 34.7 L-57.15 21.95 -56.35 21.25 -55.25 20.55 Q-55.9 17.05 -56.15 13.45 L-56.65 6.35 Q-56.95 2.65 -55.15 -0.05 -54.1 -5.9 -54.35 -12.05 M-55.1 64.15 Q-54.8 63.45 -54.95 62.75 L-55.0 62.8 -55.35 64.3 Q-55.5 65.2 -55.1 64.15 M-51.3 90.75 L-51.7 91.0 -50.75 95.35 Q-51.2 93.1 -51.3 90.75" fill="url(#gradient32)" fill-rule="evenodd" stroke="none"/>
    <path d="M-33.95 -34.8 L-33.9 -34.45 -34.2 -33.75 Q-34.7 -32.65 -35.9 -32.6 -37.1 -32.6 -37.65 -33.6 L-37.75 -33.95 -37.85 -34.35 -37.9 -34.7 -37.85 -35.05 -37.5 -35.85 -37.1 -36.15 -36.6 -36.4 -35.9 -36.5 -35.9 -36.6 -35.1 -36.25 -34.3 -35.55 -33.95 -34.8" fill="url(#gradient33)" fill-rule="evenodd" stroke="none"/>
    <path d="M-71.4 65.75 Q-71.1 67.0 -72.4 67.15 -73.75 67.35 -74.15 66.2 L-74.15 65.8 -74.05 65.5 -73.75 65.15 -72.9 64.75 -72.9 64.7 Q-71.7 64.6 -71.4 65.75" fill="url(#gradient34)" fill-rule="evenodd" stroke="none"/>
    <path d="M-96.3 37.75 Q-95.8 38.2 -96.15 38.8 L-96.4 39.2 Q-97.55 39.45 -98.45 38.45 -99.15 37.65 -98.5 36.8 -98.0 36.15 -97.4 36.05 L-96.9 36.75 -96.3 37.75" fill="url(#gradient35)" fill-rule="evenodd" stroke="none"/>
    <path d="M-100.6 60.3 Q-101.45 61.3 -101.9 60.05 -102.45 58.55 -101.15 58.45 -99.7 59.2 -100.6 60.3" fill="url(#gradient36)" fill-rule="evenodd" stroke="none"/>
    <path d="M-88.8 79.8 Q-88.35 81.0 -89.0 82.1 L-89.1 82.3 -88.55 83.1 -88.4 83.45 Q-89.45 85.1 -91.05 84.1 L-91.9 84.15 -92.65 83.95 -93.3 83.15 -93.55 82.45 -93.5 82.1 -95.25 80.8 Q-97.8 79.0 -95.45 77.9 L-95.4 77.8 Q-94.0 78.15 -93.0 79.15 L-91.15 80.75 -89.3 79.9 -88.8 79.8" fill="url(#gradient37)" fill-rule="evenodd" stroke="none"/>
    <path d="M-85.5 81.9 Q-86.35 82.8 -86.3 81.55 -86.3 80.45 -85.15 80.55 -84.95 81.3 -85.5 81.9" fill="url(#gradient38)" fill-rule="evenodd" stroke="none"/>
    <path d="M-93.4 94.95 L-91.7 95.35 -90.6 95.9 -89.3 96.75 -88.9 97.1 -88.7 97.45 -88.55 97.85 -88.55 98.2 -88.6 98.6 -88.65 98.95 -88.75 99.7 -88.9 100.1 -91.25 100.05 Q-92.35 99.0 -93.6 98.35 -95.65 97.4 -94.4 95.55 -93.95 94.95 -93.4 94.95" fill="url(#gradient39)" fill-rule="evenodd" stroke="none"/>
    <path d="M-71.55 103.7 Q-71.55 104.75 -72.35 105.45 -73.15 106.1 -74.0 105.6 L-74.25 104.8 -74.25 103.65 Q-74.1 103.05 -73.55 102.7 L-72.9 102.35 Q-71.6 102.6 -71.55 103.7" fill="url(#gradient40)" fill-rule="evenodd" stroke="none"/>
    <path d="M69.05 -100.6 L68.55 -100.15 Q65.25 -97.0 62.85 -95.75 65.05 -99.2 68.2 -102.05 L74.65 -107.25 80.25 -111.05 77.55 -108.8 72.5 -104.5 Q70.4 -102.65 69.05 -100.6 M54.0 -76.15 L52.5 -73.8 51.25 -71.9 Q50.75 -73.05 52.15 -74.6 53.1 -75.6 53.7 -76.85 54.15 -77.8 54.85 -78.55 L55.1 -78.65 Q54.75 -77.3 54.0 -76.15 M93.05 -9.25 L90.0 -6.85 Q88.4 -5.55 86.55 -5.2 L86.35 -5.4 Q87.25 -7.0 89.1 -8.05 90.9 -9.05 92.45 -10.55 93.7 -11.7 95.25 -12.1 L95.6 -12.15 Q94.6 -10.55 93.05 -9.25 M58.6 100.35 Q57.95 102.4 56.05 104.05 L53.2 106.95 53.25 107.25 52.75 108.0 Q52.15 109.05 50.95 109.2 L49.75 110.1 50.25 109.2 49.6 109.1 Q49.0 108.45 49.0 107.6 49.1 106.35 49.5 105.25 50.0 103.9 51.45 103.65 L51.5 103.6 52.45 104.35 53.0 105.35 53.05 105.55 56.0 102.6 58.5 100.4 58.6 100.35 M-49.3 -95.4 L-48.95 -97.0 -48.4 -100.4 Q-48.35 -100.75 -47.9 -100.65 -46.55 -99.3 -47.6 -97.3 L-48.55 -94.9 -48.9 -95.65 -49.2 -95.55 -49.3 -95.4 M-47.0 -93.55 L-46.8 -94.5 Q-46.5 -95.85 -45.8 -97.1 L-45.4 -97.25 -45.2 -96.5 Q-45.15 -96.15 -45.25 -95.75 L-45.45 -95.0 -45.5 -94.65 -45.25 -95.0 Q-44.9 -95.4 -44.5 -95.4 L-43.8 -94.95 -43.75 -94.75 -43.5 -94.75 -43.0 -94.8 -42.4 -94.65 -41.7 -93.1 Q-41.2 -92.3 -41.15 -91.75 L-43.0 -91.85 -43.75 -92.0 -44.45 -91.8 Q-44.9 -91.25 -44.25 -90.85 -43.7 -90.5 -43.1 -90.3 L-43.15 -90.3 -45.45 -90.25 -46.5 -90.75 -46.55 -91.6 -46.9 -90.05 Q-47.05 -89.5 -47.55 -89.05 L-48.0 -88.75 -47.45 -91.9 -47.2 -92.8 -46.25 -92.9 -47.0 -93.55 M-39.5 -91.7 L-39.45 -92.0 -39.25 -92.4 -38.55 -93.4 -38.3 -93.5 -37.55 -93.8 -36.75 -93.9 Q-36.3 -92.9 -37.0 -92.0 L-37.45 -91.25 -37.85 -91.4 -39.5 -91.7 M-37.75 -90.35 L-37.8 -90.1 Q-37.95 -88.95 -39.1 -88.55 L-39.4 -88.65 Q-39.65 -89.25 -39.25 -89.85 L-39.2 -89.95 -37.75 -90.35 M-48.9 -93.35 L-49.25 -90.65 Q-50.5 -91.45 -49.85 -93.55 L-49.65 -94.25 -49.5 -93.95 -49.1 -93.5 -48.9 -93.35 M-47.65 -68.7 L-47.85 -69.4 Q-48.15 -70.65 -47.95 -72.15 -47.85 -72.65 -47.4 -72.65 L-46.7 -70.3 -46.15 -67.75 Q-45.85 -66.3 -46.35 -64.65 L-46.5 -64.4 -47.15 -66.5 -47.1 -66.75 Q-46.65 -68.05 -47.65 -68.7 M-56.7 38.8 L-56.5 39.0 Q-55.3 38.0 -54.8 36.5 L-53.95 33.6 Q-53.6 32.45 -54.05 31.5 -53.55 26.8 -52.25 23.35 -51.65 28.5 -52.7 33.9 L-54.85 44.75 -55.2 46.8 Q-55.0 49.15 -55.15 51.6 L-55.3 54.05 -55.25 54.5 -55.3 54.35 -55.55 57.9 -55.75 63.5 Q-56.55 61.15 -56.55 57.25 L-56.4 51.15 Q-56.9 48.6 -56.45 45.65 -57.6 44.3 -57.2 41.75 L-56.7 38.8 M-55.55 41.35 L-55.8 42.7 -55.2 39.75 -55.55 41.35 M-51.5 82.55 Q-52.1 84.85 -53.5 86.6 -55.3 86.45 -55.15 84.75 L-55.0 82.5 Q-54.95 80.65 -55.25 81.6 L-55.5 82.35 -55.9 82.9 -56.25 82.75 -56.25 82.5 -55.35 78.75 Q-54.85 76.7 -54.9 74.6 -55.0 72.05 -53.05 72.25 -53.7 68.35 -54.5 64.55 -55.65 59.0 -54.9 53.85 -53.65 59.45 -52.55 65.95 L-52.15 68.2 -52.15 68.05 -51.5 66.4 -51.4 66.35 Q-50.55 69.85 -50.7 73.45 L-50.85 76.15 -51.25 75.1 -51.5 75.15 Q-52.85 75.85 -52.7 77.75 L-52.0 81.1 -51.5 82.55 M-50.55 78.5 Q-49.7 84.15 -48.4 89.6 -49.9 86.85 -50.85 83.85 L-50.55 81.1 -50.55 78.5" fill="#f43535" fill-rule="evenodd" stroke="none"/>
    <path d="M80.25 -111.05 L81.6 -112.25 Q81.15 -109.4 78.6 -106.9 76.15 -104.5 73.2 -102.65 L68.25 -99.25 69.05 -100.6 Q70.4 -102.65 72.5 -104.5 L77.55 -108.8 80.25 -111.05 M54.2 107.65 L54.75 107.5 Q55.55 108.25 54.75 109.05 L53.4 110.5 Q52.7 111.35 51.65 111.0 L51.25 110.75 Q51.05 109.8 51.65 109.15 L53.25 108.15 54.2 107.65 M-48.55 -94.9 L-48.25 -94.35 -47.4 -93.75 -47.0 -93.55 -46.25 -92.9 -47.2 -92.8 Q-48.05 -92.9 -48.9 -93.35 L-49.1 -93.5 -49.5 -93.95 -49.65 -94.25 -49.65 -94.95 -49.3 -95.4 -49.2 -95.55 -48.9 -95.65 -48.55 -94.9 M-41.15 -91.75 L-40.75 -91.75 -40.0 -91.75 -39.5 -91.7 -37.85 -91.4 -37.45 -91.25 -36.9 -90.9 -37.75 -90.35 -39.2 -89.95 -40.0 -89.9 -41.4 -90.0 -43.1 -90.3 Q-43.7 -90.5 -44.25 -90.85 -44.9 -91.25 -44.45 -91.8 L-43.75 -92.0 -43.0 -91.85 -41.15 -91.75 M-33.75 -99.9 Q-33.35 -99.3 -34.0 -98.7 -34.95 -97.85 -35.15 -98.7 -35.45 -99.75 -34.5 -99.8 L-33.75 -99.9 M-47.15 -66.5 Q-47.65 -65.35 -48.55 -66.7 -49.6 -68.2 -48.05 -68.8 L-48.0 -68.9 -47.65 -68.7 Q-46.65 -68.05 -47.1 -66.75 L-47.15 -66.5 M-41.85 -2.8 Q-41.7 -3.1 -41.25 -3.0 -40.35 -2.1 -40.45 -0.75 -40.55 0.4 -41.1 1.4 L-42.0 3.6 Q-42.6 2.65 -42.65 1.5 L-42.45 -0.8 -41.85 -2.8 M-44.3 19.75 Q-44.3 20.35 -44.7 20.7 L-45.45 21.9 -45.75 22.1 Q-46.25 21.45 -45.8 20.65 -45.5 20.1 -45.7 19.4 -45.85 18.7 -45.0 18.6 L-44.75 18.6 Q-44.3 19.1 -44.3 19.75 M-54.05 31.5 Q-53.6 32.45 -53.95 33.6 L-54.8 36.5 Q-55.3 38.0 -56.5 39.0 L-56.7 38.8 Q-57.5 37.85 -57.05 36.15 L-56.05 32.95 -55.15 30.6 -54.75 30.5 -54.05 31.5 M-50.85 76.15 L-50.55 78.1 -50.55 78.4 -50.55 78.5 -50.55 81.1 -50.85 83.85 -50.9 84.1 -51.5 82.55 -52.0 81.1 -52.7 77.75 Q-52.85 75.85 -51.5 75.15 L-51.25 75.1 -50.85 76.15" fill="#ffffff" fill-rule="evenodd" stroke="none"/>
  </g>
  <defs>
    <radialGradient cx="0" cy="0" gradientTransform="matrix(0.0529, 0.0, 0.0, 0.0529, 55.8, -81.9)" gradientUnits="userSpaceOnUse" id="gradient0" r="819.2" spreadMethod="pad">
      <stop offset="0.0" stop-color="#740c0c"/>
      <stop offset="1.0" stop-color="#1f0c0c"/>
    </radialGradient>
    <radialGradient cx="0" cy="0" gradientTransform="matrix(0.0015, 0.0, 0.0, 0.0015, 82.4, -115.05)" gradientUnits="userSpaceOnUse" id="gradient1" r="819.2" spreadMethod="pad">
      <stop offset="0.0" stop-color="#740c0c"/>
      <stop offset="1.0" stop-color="#1f0c0c"/>
    </radialGradient>
    <radialGradient cx="0" cy="0" gradientTransform="matrix(0.0058, 0.0, 0.0, 0.0058, 94.65, -74.6)" gradientUnits="userSpaceOnUse" id="gradient2" r="819.2" spreadMethod="pad">
      <stop offset="0.0" stop-color="#740c0c"/>
      <stop offset="1.0" stop-color="#1f0c0c"/>
    </radialGradient>
    <radialGradient cx="0" cy="0" gradientTransform="matrix(0.0023, 0.0, 0.0, 0.0023, 100.7, -46.1)" gradientUnits="userSpaceOnUse" id="gradient3" r="819.2" spreadMethod="pad">
      <stop offset="0.0" stop-color="#740c0c"/>
      <stop offset="1.0" stop-color="#1f0c0c"/>
    </radialGradient>
    <radialGradient cx="0" cy="0" gradientTransform="matrix(0.0029, 0.0, 0.0, 0.0029, 91.85, -40.8)" gradientUnits="userSpaceOnUse" id="gradient4" r="819.2" spreadMethod="pad">
      <stop offset="0.0" stop-color="#740c0c"/>
      <stop offset="1.0" stop-color="#1f0c0c"/>
    </radialGradient>
    <radialGradient cx="0" cy="0" gradientTransform="matrix(0.0015, 0.0, 0.0, 0.0015, 86.1, -31.85)" gradientUnits="userSpaceOnUse" id="gradient5" r="819.2" spreadMethod="pad">
      <stop offset="0.0" stop-color="#740c0c"/>
      <stop offset="1.0" stop-color="#1f0c0c"/>
    </radialGradient>
    <radialGradient cx="0" cy="0" gradientTransform="matrix(0.0029, 0.0, 0.0, 0.0029, 90.7, -34.2)" gradientUnits="userSpaceOnUse" id="gradient6" r="819.2" spreadMethod="pad">
      <stop offset="0.0" stop-color="#740c0c"/>
      <stop offset="1.0" stop-color="#1f0c0c"/>
    </radialGradient>
    <radialGradient cx="0" cy="0" gradientTransform="matrix(0.0034, 0.0, 0.0, 0.0034, 84.1, -24.3)" gradientUnits="userSpaceOnUse" id="gradient7" r="819.2" spreadMethod="pad">
      <stop offset="0.0" stop-color="#740c0c"/>
      <stop offset="1.0" stop-color="#1f0c0c"/>
    </radialGradient>
    <radialGradient cx="0" cy="0" gradientTransform="matrix(0.0021, 0.0, 0.0, 0.0021, 89.5, -12.8)" gradientUnits="userSpaceOnUse" id="gradient8" r="819.2" spreadMethod="pad">
      <stop offset="0.0" stop-color="#740c0c"/>
      <stop offset="1.0" stop-color="#1f0c0c"/>
    </radialGradient>
    <radialGradient cx="0" cy="0" gradientTransform="matrix(0.0108, 0.0, 0.0, 0.0108, 87.35, -7.1)" gradientUnits="userSpaceOnUse" id="gradient9" r="819.2" spreadMethod="pad">
      <stop offset="0.0" stop-color="#740c0c"/>
      <stop offset="1.0" stop-color="#1f0c0c"/>
    </radialGradient>
    <radialGradient cx="0" cy="0" gradientTransform="matrix(0.0034, 0.0, 0.0, 0.0034, 88.95, -1.05)" gradientUnits="userSpaceOnUse" id="gradient10" r="819.2" spreadMethod="pad">
      <stop offset="0.0" stop-color="#740c0c"/>
      <stop offset="1.0" stop-color="#1f0c0c"/>
    </radialGradient>
    <radialGradient cx="0" cy="0" gradientTransform="matrix(0.0013, 0.0, 0.0, 0.0013, 90.7, 5.2)" gradientUnits="userSpaceOnUse" id="gradient11" r="819.2" spreadMethod="pad">
      <stop offset="0.0" stop-color="#740c0c"/>
      <stop offset="1.0" stop-color="#1f0c0c"/>
    </radialGradient>
    <radialGradient cx="0" cy="0" gradientTransform="matrix(0.0048, 0.0, 0.0, 0.0048, 65.35, 20.55)" gradientUnits="userSpaceOnUse" id="gradient12" r="819.2" spreadMethod="pad">
      <stop offset="0.0" stop-color="#740c0c"/>
      <stop offset="1.0" stop-color="#1f0c0c"/>
    </radialGradient>
    <radialGradient cx="0" cy="0" gradientTransform="matrix(0.0056, 0.0, 0.0, 0.0056, 57.85, 87.2)" gradientUnits="userSpaceOnUse" id="gradient13" r="819.2" spreadMethod="pad">
      <stop offset="0.0" stop-color="#740c0c"/>
      <stop offset="1.0" stop-color="#1f0c0c"/>
    </radialGradient>
    <radialGradient cx="0" cy="0" gradientTransform="matrix(0.0033, 0.0, 0.0, 0.0033, 41.65, 95.35)" gradientUnits="userSpaceOnUse" id="gradient14" r="819.2" spreadMethod="pad">
      <stop offset="0.0" stop-color="#740c0c"/>
      <stop offset="1.0" stop-color="#1f0c0c"/>
    </radialGradient>
    <radialGradient cx="0" cy="0" gradientTransform="matrix(0.0035, 0.0, 0.0, 0.0035, 50.7, 94.65)" gradientUnits="userSpaceOnUse" id="gradient15" r="819.2" spreadMethod="pad">
      <stop offset="0.0" stop-color="#740c0c"/>
      <stop offset="1.0" stop-color="#1f0c0c"/>
    </radialGradient>
    <radialGradient cx="0" cy="0" gradientTransform="matrix(0.0343, 0.0, 0.0, 0.0343, 66.7, 95.35)" gradientUnits="userSpaceOnUse" id="gradient16" r="819.2" spreadMethod="pad">
      <stop offset="0.0" stop-color="#740c0c"/>
      <stop offset="1.0" stop-color="#1f0c0c"/>
    </radialGradient>
    <radialGradient cx="0" cy="0" gradientTransform="matrix(0.0035, 0.0, 0.0, 0.0035, 76.5, 100.65)" gradientUnits="userSpaceOnUse" id="gradient17" r="819.2" spreadMethod="pad">
      <stop offset="0.0" stop-color="#740c0c"/>
      <stop offset="1.0" stop-color="#1f0c0c"/>
    </radialGradient>
    <radialGradient cx="0" cy="0" gradientTransform="matrix(0.0038, 0.0, 0.0, 0.0038, 66.4, 107.45)" gradientUnits="userSpaceOnUse" id="gradient18" r="819.2" spreadMethod="pad">
      <stop offset="0.0" stop-color="#740c0c"/>
      <stop offset="1.0" stop-color="#1f0c0c"/>
    </radialGradient>
    <radialGradient cx="0" cy="0" gradientTransform="matrix(0.0038, 0.0, 0.0, 0.0038, 46.05, 104.8)" gradientUnits="userSpaceOnUse" id="gradient19" r="819.2" spreadMethod="pad">
      <stop offset="0.0" stop-color="#740c0c"/>
      <stop offset="1.0" stop-color="#1f0c0c"/>
    </radialGradient>
    <radialGradient cx="0" cy="0" gradientTransform="matrix(0.0037, 0.0, 0.0, 0.0037, 45.3, 109.65)" gradientUnits="userSpaceOnUse" id="gradient20" r="819.2" spreadMethod="pad">
      <stop offset="0.0" stop-color="#740c0c"/>
      <stop offset="1.0" stop-color="#1f0c0c"/>
    </radialGradient>
    <radialGradient cx="0" cy="0" gradientTransform="matrix(0.0038, 0.0, 0.0, 0.0038, 38.35, 107.6)" gradientUnits="userSpaceOnUse" id="gradient21" r="819.2" spreadMethod="pad">
      <stop offset="0.0" stop-color="#740c0c"/>
      <stop offset="1.0" stop-color="#1f0c0c"/>
    </radialGradient>
    <radialGradient cx="0" cy="0" gradientTransform="matrix(0.0998, 0.0, 0.0, 0.0998, -41.2, -33.95)" gradientUnits="userSpaceOnUse" id="gradient22" r="819.2" spreadMethod="pad">
      <stop offset="0.0" stop-color="#740c0c"/>
      <stop offset="1.0" stop-color="#1f0c0c"/>
    </radialGradient>
    <radialGradient cx="0" cy="0" gradientTransform="matrix(0.0031, 0.0, 0.0, 0.0031, -58.8, -100.8)" gradientUnits="userSpaceOnUse" id="gradient23" r="819.2" spreadMethod="pad">
      <stop offset="0.0" stop-color="#740c0c"/>
      <stop offset="1.0" stop-color="#1f0c0c"/>
    </radialGradient>
    <radialGradient cx="0" cy="0" gradientTransform="matrix(0.0016, 0.0, 0.0, 0.0016, -28.85, -72.45)" gradientUnits="userSpaceOnUse" id="gradient24" r="819.2" spreadMethod="pad">
      <stop offset="0.0" stop-color="#740c0c"/>
      <stop offset="1.0" stop-color="#1f0c0c"/>
    </radialGradient>
    <radialGradient cx="0" cy="0" gradientTransform="matrix(0.003, 0.0, 0.0, 0.003, -60.45, -63.4)" gradientUnits="userSpaceOnUse" id="gradient25" r="819.2" spreadMethod="pad">
      <stop offset="0.0" stop-color="#740c0c"/>
      <stop offset="1.0" stop-color="#1f0c0c"/>
    </radialGradient>
    <radialGradient cx="0" cy="0" gradientTransform="matrix(0.0031, 0.0, 0.0, 0.0031, -52.1, -66.5)" gradientUnits="userSpaceOnUse" id="gradient26" r="819.2" spreadMethod="pad">
      <stop offset="0.0" stop-color="#740c0c"/>
      <stop offset="1.0" stop-color="#1f0c0c"/>
    </radialGradient>
    <radialGradient cx="0" cy="0" gradientTransform="matrix(0.0029, 0.0, 0.0, 0.0029, -57.45, -51.1)" gradientUnits="userSpaceOnUse" id="gradient27" r="819.2" spreadMethod="pad">
      <stop offset="0.0" stop-color="#740c0c"/>
      <stop offset="1.0" stop-color="#1f0c0c"/>
    </radialGradient>
    <radialGradient cx="0" cy="0" gradientTransform="matrix(0.0098, 0.0, 0.0, 0.0098, -49.6, -50.15)" gradientUnits="userSpaceOnUse" id="gradient28" r="819.2" spreadMethod="pad">
      <stop offset="0.0" stop-color="#740c0c"/>
      <stop offset="1.0" stop-color="#1f0c0c"/>
    </radialGradient>
    <radialGradient cx="0" cy="0" gradientTransform="matrix(0.0031, 0.0, 0.0, 0.0031, -60.1, -46.85)" gradientUnits="userSpaceOnUse" id="gradient29" r="819.2" spreadMethod="pad">
      <stop offset="0.0" stop-color="#740c0c"/>
      <stop offset="1.0" stop-color="#1f0c0c"/>
    </radialGradient>
    <radialGradient cx="0" cy="0" gradientTransform="matrix(0.002, 0.0, 0.0, 0.002, -57.35, -33.85)" gradientUnits="userSpaceOnUse" id="gradient30" r="819.2" spreadMethod="pad">
      <stop offset="0.0" stop-color="#740c0c"/>
      <stop offset="1.0" stop-color="#1f0c0c"/>
    </radialGradient>
    <radialGradient cx="0" cy="0" gradientTransform="matrix(0.0031, 0.0, 0.0, 0.0031, -60.2, -25.3)" gradientUnits="userSpaceOnUse" id="gradient31" r="819.2" spreadMethod="pad">
      <stop offset="0.0" stop-color="#740c0c"/>
      <stop offset="1.0" stop-color="#1f0c0c"/>
    </radialGradient>
    <radialGradient cx="0" cy="0" gradientTransform="matrix(0.0912, 0.0, 0.0, 0.0912, -50.9, 38.85)" gradientUnits="userSpaceOnUse" id="gradient32" r="819.2" spreadMethod="pad">
      <stop offset="0.0" stop-color="#740c0c"/>
      <stop offset="1.0" stop-color="#1f0c0c"/>
    </radialGradient>
    <radialGradient cx="0" cy="0" gradientTransform="matrix(0.003, 0.0, 0.0, 0.003, -35.9, -34.6)" gradientUnits="userSpaceOnUse" id="gradient33" r="819.2" spreadMethod="pad">
      <stop offset="0.0" stop-color="#740c0c"/>
      <stop offset="1.0" stop-color="#1f0c0c"/>
    </radialGradient>
    <radialGradient cx="0" cy="0" gradientTransform="matrix(0.0018, 0.0, 0.0, 0.0018, -72.75, 65.95)" gradientUnits="userSpaceOnUse" id="gradient34" r="819.2" spreadMethod="pad">
      <stop offset="0.0" stop-color="#740c0c"/>
      <stop offset="1.0" stop-color="#1f0c0c"/>
    </radialGradient>
    <radialGradient cx="0" cy="0" gradientTransform="matrix(0.0026, 0.0, 0.0, 0.0026, -97.4, 37.65)" gradientUnits="userSpaceOnUse" id="gradient35" r="819.2" spreadMethod="pad">
      <stop offset="0.0" stop-color="#740c0c"/>
      <stop offset="1.0" stop-color="#1f0c0c"/>
    </radialGradient>
    <radialGradient cx="0" cy="0" gradientTransform="matrix(0.002, 0.0, 0.0, 0.002, -101.15, 59.6)" gradientUnits="userSpaceOnUse" id="gradient36" r="819.2" spreadMethod="pad">
      <stop offset="0.0" stop-color="#740c0c"/>
      <stop offset="1.0" stop-color="#1f0c0c"/>
    </radialGradient>
    <radialGradient cx="0" cy="0" gradientTransform="matrix(0.0063, 0.0, 0.0, 0.0063, -92.5, 81.15)" gradientUnits="userSpaceOnUse" id="gradient37" r="819.2" spreadMethod="pad">
      <stop offset="0.0" stop-color="#740c0c"/>
      <stop offset="1.0" stop-color="#1f0c0c"/>
    </radialGradient>
    <radialGradient cx="0" cy="0" gradientTransform="matrix(0.0014, 0.0, 0.0, 0.0014, -85.7, 81.4)" gradientUnits="userSpaceOnUse" id="gradient38" r="819.2" spreadMethod="pad">
      <stop offset="0.0" stop-color="#740c0c"/>
      <stop offset="1.0" stop-color="#1f0c0c"/>
    </radialGradient>
    <radialGradient cx="0" cy="0" gradientTransform="matrix(0.005, 0.0, 0.0, 0.005, -91.7, 97.8)" gradientUnits="userSpaceOnUse" id="gradient39" r="819.2" spreadMethod="pad">
      <stop offset="0.0" stop-color="#740c0c"/>
      <stop offset="1.0" stop-color="#1f0c0c"/>
    </radialGradient>
    <radialGradient cx="0" cy="0" gradientTransform="matrix(0.0027, 0.0, 0.0, 0.0027, -72.95, 104.1)" gradientUnits="userSpaceOnUse" id="gradient40" r="819.2" spreadMethod="pad">
      <stop offset="0.0" stop-color="#740c0c"/>
      <stop offset="1.0" stop-color="#1f0c0c"/>
    </radialGradient>
  </defs>
</svg>
