<?xml version="1.0" encoding="UTF-8" standalone="no"?>
<svg xmlns:xlink="http://www.w3.org/1999/xlink" height="98.8px" width="197.2px" xmlns="http://www.w3.org/2000/svg">
  <g transform="matrix(1.0, 0.0, 0.0, 1.0, 98.6, 49.4)">
    <path d="M62.85 -48.45 L63.65 -48.85 65.35 -49.2 66.45 -49.4 66.8 -49.4 Q67.0 -48.3 65.85 -47.85 L64.4 -47.25 62.9 -47.1 62.55 -47.55 Q62.5 -48.1 62.85 -48.45 M82.2 -14.5 L83.2 -14.8 Q85.35 -13.65 83.35 -12.15 L80.9 -10.65 Q78.65 -9.5 77.65 -11.2 L77.55 -11.55 Q77.1 -12.55 78.05 -13.05 L80.95 -14.25 82.2 -14.5 M61.7 -12.3 L62.8 -12.0 63.7 -11.8 65.15 -11.4 66.3 -10.9 Q65.55 -9.55 63.7 -9.4 61.45 -9.2 60.8 -10.85 60.7 -11.15 60.75 -11.5 60.95 -12.25 61.7 -12.2 L61.7 -12.3 M44.65 -7.2 Q43.35 -6.6 42.7 -7.7 42.55 -7.9 42.8 -8.2 L43.15 -8.45 43.2 -8.55 44.2 -8.5 44.7 -8.4 45.4 -8.05 45.7 -7.8 44.65 -7.2 M14.85 -24.0 L14.9 -23.65 Q14.4 -22.3 12.95 -21.8 11.25 -21.2 9.75 -20.25 L7.1 -20.1 6.65 -20.4 Q6.55 -21.35 7.45 -21.8 9.15 -22.65 10.15 -23.8 10.75 -24.5 11.7 -24.9 L12.15 -25.05 13.15 -24.95 14.2 -24.65 14.85 -24.0 M17.4 -8.4 Q18.15 -7.65 17.55 -6.9 16.95 -6.1 16.6 -7.2 16.2 -8.4 17.4 -8.4 M93.95 -17.15 L94.35 -17.45 95.2 -17.7 95.2 -17.8 Q96.85 -17.05 97.6 -15.45 98.4 -13.75 98.6 -11.9 98.8 -9.95 96.95 -8.9 L95.7 -8.8 Q94.65 -8.85 93.85 -9.55 L92.95 -10.8 92.95 -11.9 92.9 -13.4 Q92.85 -14.4 92.95 -15.3 L93.55 -16.8 93.95 -17.15 M-81.65 36.85 L-72.35 31.75 Q-69.05 35.9 -77.8 39.5 -83.4 41.8 -88.1 45.8 -93.55 50.5 -98.6 49.1 L-90.15 42.3 Q-86.15 39.2 -81.65 36.85 M-61.1 -4.4 Q-59.95 -4.2 -60.0 -3.3 -60.05 -2.2 -61.25 -2.8 -62.6 -3.45 -61.6 -4.25 L-61.1 -4.4 M-38.6 9.6 Q-37.55 11.3 -40.1 12.2 -42.1 12.9 -43.5 14.4 -45.2 16.15 -46.85 15.1 -47.1 13.7 -45.8 13.05 -44.1 12.3 -42.55 11.15 -40.85 9.95 -38.85 9.6 L-38.6 9.6" fill="#ffcc00" fill-rule="evenodd" stroke="none"/>
  </g>
</svg>
