<?xml version="1.0" encoding="UTF-8" standalone="no"?>
<svg xmlns:xlink="http://www.w3.org/1999/xlink" height="37.2px" width="27.0px" xmlns="http://www.w3.org/2000/svg">
  <g transform="matrix(1.0, 0.0, 0.0, 1.0, 13.55, 18.9)">
    <path d="M-1.2 17.55 L-6.6 18.3 -7.15 17.95 -10.3 18.0 -12.9 17.95 Q-13.7 4.85 -13.05 -8.6 -12.85 -12.85 -12.9 -17.2 L-13.55 -18.15 Q-2.55 -18.3 8.85 -18.8 11.1 -19.2 13.05 -18.3 L13.1 -18.05 12.85 -17.25 Q13.3 -6.55 12.95 4.1 12.75 10.85 13.45 17.55 L13.4 18.0 13.2 18.05 13.0 18.1 12.3 17.5 0.4 17.9 1.15 17.55 1.5 17.35 1.85 17.0 2.1 16.55 2.6 16.65 2.1 16.2 0.4 15.55 -1.15 16.35 -1.2 17.55 M11.65 -13.5 Q12.15 -13.55 11.5 -13.65 L11.65 -13.5 M4.75 -16.0 L4.25 -15.85 Q5.5 -14.55 7.05 -13.65 L8.5 -12.55 4.75 -16.0 M9.75 -13.45 L7.4 -15.3 9.95 -12.55 9.75 -13.45 M7.55 -16.8 L10.85 -14.35 Q10.5 -16.8 8.15 -16.9 L7.55 -16.8 M7.9 -7.35 Q6.4 -7.55 5.75 -8.8 L5.35 -9.9 4.85 -10.2 4.6 -8.5 6.45 -6.25 7.55 -6.8 7.9 -7.35 M6.55 -11.3 Q5.8 -12.4 4.65 -13.3 4.95 -12.4 5.75 -11.8 L6.2 -11.55 6.55 -11.3 M10.75 -7.3 Q10.55 -8.4 10.9 -9.05 L9.85 -10.8 Q10.7 -9.1 10.35 -6.9 L10.85 -5.8 10.75 -7.3 M3.4 -7.05 Q3.0 -8.05 2.8 -9.35 0.7 -11.8 -0.5 -14.85 L-0.75 -13.95 Q-1.0 -12.65 -2.25 -11.75 L-2.4 -9.6 -1.1 -9.3 0.6 -9.0 0.15 -8.7 -0.1 -8.65 -0.4 -8.65 -2.2 -8.6 -3.0 -8.1 -6.5 -8.9 -7.25 -5.4 -2.65 -4.75 -1.75 -6.1 Q-1.0 -5.3 -1.05 -4.4 -1.25 1.65 -7.65 2.9 L-6.8 1.9 Q-7.95 1.0 -9.55 0.65 L-10.0 0.55 -10.0 0.85 -10.05 0.95 -10.25 1.2 -10.65 1.5 -10.2 1.95 -10.95 2.75 -10.05 2.7 -9.95 2.95 -10.5 3.75 -8.8 3.25 -8.95 3.9 -9.6 4.35 -9.2 4.95 -8.45 4.5 -8.6 5.3 -7.15 4.25 -6.75 4.7 -7.55 6.1 -5.9 5.4 -6.05 6.3 -6.2 6.65 -6.45 7.15 -6.15 6.65 -5.25 5.4 -5.1 5.55 Q-5.85 7.55 -5.65 9.7 L-5.2 12.8 -4.15 14.1 -5.65 13.5 Q-7.6 12.6 -8.9 10.75 L-9.05 11.7 -6.9 14.5 -4.3 15.5 -0.65 14.15 -1.4 14.1 -2.55 13.15 1.65 12.55 1.8 11.5 -3.2 11.9 -3.65 12.25 -4.3 12.05 Q-4.5 11.1 -3.55 10.6 -1.85 9.85 -0.85 8.65 L-0.4 8.9 -0.1 9.0 0.5 9.15 0.7 8.85 0.85 8.1 -0.8 8.1 -0.8 7.1 -1.5 6.9 -2.9 6.4 Q-3.75 5.9 -3.75 4.9 L-2.7 3.15 -2.7 4.3 -1.65 4.15 -1.15 4.45 -0.7 4.7 0.25 4.6 0.55 4.2 -0.1 3.9 Q0.85 0.35 0.6 -3.25 L0.85 -3.6 0.75 -4.7 1.4 -5.55 1.85 -4.7 3.95 -6.25 3.4 -7.05 M8.4 0.1 L5.5 3.4 6.5 4.7 6.9 3.35 7.6 4.25 7.7 3.4 8.2 2.95 8.5 2.95 9.65 2.1 8.4 0.1 M1.4 8.1 L1.3 8.85 1.8 9.4 2.35 9.35 1.4 8.1 M-7.35 -16.3 Q-8.9 -14.3 -8.1 -12.15 L-6.55 -16.4 -7.35 -16.3 M-9.3 -13.05 L-9.05 -15.1 -9.8 -13.45 -9.3 -13.05 M-6.25 -15.4 L-6.1 -15.4 Q-6.0 -15.85 -6.05 -16.3 L-6.5 -15.0 -6.25 -15.4 M-9.25 -15.9 L-10.45 -15.15 -9.8 -15.0 -9.25 -15.9 M-4.25 -16.0 L-4.45 -16.55 -5.2 -16.5 Q-4.25 -15.1 -4.45 -13.25 -3.85 -14.65 -4.25 -16.0 M-11.0 -12.55 L-10.95 -10.95 -10.55 -12.05 -10.8 -12.6 -11.0 -12.55 M-10.55 -8.0 L-10.6 -7.95 -10.35 -7.65 -10.35 -7.75 -9.9 -10.45 -9.85 -11.3 -10.15 -10.0 -11.15 -9.0 -10.55 -8.0 M-11.9 -7.65 L-11.65 -4.3 -11.55 -4.35 Q-11.15 -5.75 -11.6 -6.85 L-11.9 -7.65 M-9.45 -11.9 L-9.15 -10.9 -9.2 -10.25 -8.85 -10.8 -9.35 -12.15 -9.75 -12.35 -9.45 -11.9 M-8.7 -10.45 L-8.65 -8.95 -8.95 -8.3 -8.4 -8.2 Q-7.4 -9.7 -8.2 -11.4 L-8.35 -10.75 -8.7 -10.45" fill="#000000" fill-rule="evenodd" stroke="none"/>
    <path d="M0.4 17.9 L-0.2 17.9 -1.2 17.55 -1.15 16.35 0.4 15.55 2.1 16.2 2.6 16.65 2.1 16.55 1.85 17.0 1.5 17.35 1.15 17.55 0.4 17.9 M11.65 -13.5 L11.5 -13.65 Q12.15 -13.55 11.65 -13.5 M4.75 -16.0 L8.5 -12.55 7.05 -13.65 Q5.5 -14.55 4.25 -15.85 L4.75 -16.0 M6.55 -11.3 L6.2 -11.55 5.75 -11.8 Q4.95 -12.4 4.65 -13.3 5.8 -12.4 6.55 -11.3 M7.9 -7.35 L7.55 -6.8 6.45 -6.25 4.6 -8.5 4.85 -10.2 5.35 -9.9 5.75 -8.8 Q6.4 -7.55 7.9 -7.35 M7.55 -16.8 L8.15 -16.9 Q10.5 -16.8 10.85 -14.35 L7.55 -16.8 M9.75 -13.45 L9.95 -12.55 7.4 -15.3 9.75 -13.45 M3.4 -7.05 L3.95 -6.25 1.85 -4.7 1.4 -5.55 0.75 -4.7 0.85 -3.6 0.6 -3.25 Q0.85 0.35 -0.1 3.9 L0.55 4.2 0.25 4.6 -0.7 4.7 -1.15 4.45 -1.65 4.15 -2.7 4.3 -2.7 3.15 -3.75 4.9 Q-3.75 5.9 -2.9 6.4 L-1.5 6.9 -0.8 7.1 -0.8 8.1 0.85 8.1 0.7 8.85 0.5 9.15 -0.1 9.0 -0.4 8.9 -0.85 8.65 Q-1.85 9.85 -3.55 10.6 -4.5 11.1 -4.3 12.05 L-3.65 12.25 -3.2 11.9 1.8 11.5 1.65 12.55 -2.55 13.15 -1.4 14.1 -0.65 14.15 -4.3 15.5 -6.9 14.5 -9.05 11.7 -8.9 10.75 Q-7.6 12.6 -5.65 13.5 L-4.15 14.1 -5.2 12.8 -5.65 9.7 Q-5.85 7.55 -5.1 5.55 L-5.25 5.4 -6.15 6.65 -6.45 7.15 -6.2 6.65 -6.05 6.3 -5.9 5.4 -7.55 6.1 -6.75 4.7 -7.15 4.25 -8.6 5.3 -8.45 4.5 -9.2 4.95 -9.6 4.35 -8.95 3.9 -8.8 3.25 -10.5 3.75 -9.95 2.95 -10.05 2.7 -10.95 2.75 -10.2 1.95 -10.65 1.5 -10.25 1.2 -10.05 0.95 -10.0 0.85 -10.0 0.55 -9.55 0.65 Q-7.95 1.0 -6.8 1.9 L-7.65 2.9 Q-1.25 1.65 -1.05 -4.4 -1.0 -5.3 -1.75 -6.1 L-2.65 -4.75 -7.25 -5.4 -6.5 -8.9 -3.0 -8.1 -2.2 -8.6 -0.4 -8.65 -0.1 -8.65 0.15 -8.7 0.6 -9.0 -1.1 -9.3 -2.4 -9.6 -2.25 -11.75 Q-1.0 -12.65 -0.75 -13.95 L-0.5 -14.85 Q0.7 -11.8 2.8 -9.35 3.0 -8.05 3.4 -7.05 M10.75 -7.3 L10.85 -5.8 10.35 -6.9 Q10.7 -9.1 9.85 -10.8 L10.9 -9.05 Q10.55 -8.4 10.75 -7.3 M8.4 0.1 L9.65 2.1 8.5 2.95 8.2 2.95 7.7 3.4 7.6 4.25 6.9 3.35 6.5 4.7 5.5 3.4 8.4 0.1 M1.4 8.1 L2.35 9.35 1.8 9.4 1.3 8.85 1.4 8.1 M-8.7 -10.45 L-8.35 -10.75 -8.2 -11.4 Q-7.4 -9.7 -8.4 -8.2 L-8.95 -8.3 -8.65 -8.95 -8.7 -10.45 M-9.45 -11.9 L-9.75 -12.35 -9.35 -12.15 -8.85 -10.8 -9.2 -10.25 -9.15 -10.9 -9.45 -11.9 M-11.9 -7.65 L-11.6 -6.85 Q-11.15 -5.75 -11.55 -4.35 L-11.65 -4.3 -11.9 -7.65 M-10.55 -8.0 L-11.15 -9.0 -10.15 -10.0 -9.85 -11.3 -9.9 -10.45 -10.35 -7.75 -10.35 -7.65 -10.6 -7.95 -10.55 -8.0 M-11.0 -12.55 L-10.8 -12.6 -10.55 -12.05 -10.95 -10.95 -11.0 -12.55 M-4.25 -16.0 Q-3.85 -14.65 -4.45 -13.25 -4.25 -15.1 -5.2 -16.5 L-4.45 -16.55 -4.25 -16.0 M-9.25 -15.9 L-9.8 -15.0 -10.45 -15.15 -9.25 -15.9 M-6.25 -15.4 L-6.5 -15.0 -6.05 -16.3 Q-6.0 -15.85 -6.1 -15.4 L-6.25 -15.4 M-9.3 -13.05 L-9.8 -13.45 -9.05 -15.1 -9.3 -13.05 M-7.35 -16.3 L-6.55 -16.4 -8.1 -12.15 Q-8.9 -14.3 -7.35 -16.3" fill="#706372" fill-rule="evenodd" stroke="none"/>
  </g>
</svg>
