<?xml version="1.0" encoding="UTF-8" standalone="no"?>
<svg xmlns:xlink="http://www.w3.org/1999/xlink" height="36.8px" width="26.6px" xmlns="http://www.w3.org/2000/svg">
  <g transform="matrix(1.0, 0.0, 0.0, 1.0, 13.45, 18.65)">
    <path d="M13.15 -18.65 L13.15 18.15 -13.45 18.15 -13.45 -18.65 13.15 -18.65" fill="#000000" fill-rule="evenodd" stroke="none"/>
    <path d="M1.1 -1.35 L1.8 -2.65 2.55 0.9 0.95 1.7 0.25 1.5 -1.15 2.15 2.25 4.15 2.0 5.7 3.7 7.35 3.45 8.25 0.05 7.1 -1.45 7.6 1.55 7.75 -0.1 8.35 -3.55 8.25 -4.7 7.5 -3.4 7.6 -4.6 7.1 -5.25 9.0 -3.6 11.85 -3.8 12.55 -4.7 14.05 -5.3 14.85 -6.4 10.75 Q-6.55 9.35 -6.85 8.1 L-7.3 5.9 Q-7.85 3.85 -7.55 1.8 -6.05 3.6 -5.85 6.0 L-5.45 5.65 -4.95 6.5 -4.6 5.5 -2.9 6.85 -2.15 6.3 -1.4 5.7 -0.4 5.55 -0.25 5.55 0.65 5.45 -0.3 4.8 -0.8 4.5 -4.0 2.25 -4.55 1.2 -3.6 1.3 -2.2 1.55 -2.1 0.9 0.75 0.25 2.0 0.35 1.65 -0.65 1.1 -1.35 M0.85 8.95 L2.25 9.55 -1.4 10.9 -1.5 10.25 -4.6 9.6 -3.4 9.45 0.85 8.95 M-9.0 -0.15 L-9.95 -0.6 -11.8 -0.15 -10.7 -4.65 Q-10.65 -2.75 -9.5 -1.1 L-9.0 -0.15 M-0.7 -4.2 L-0.05 -6.7 0.85 -1.7 -0.55 -1.05 -0.7 -4.2 M-4.7 -14.9 L-5.2 -15.1 -1.25 -15.1 -4.7 -14.9" fill="#000000" fill-rule="evenodd" stroke="none"/>
    <path d="M0.85 -1.7 L1.1 -1.35 1.65 -0.65 0.75 0.25 -2.1 0.9 -2.2 1.55 -3.6 1.3 -2.4 -7.1 Q-2.4 -6.75 -2.0 -6.5 -1.7 -6.25 -1.25 -6.25 L-0.7 -4.2 -0.55 -1.05 0.85 -1.7 M-0.1 8.35 L0.85 8.95 -3.4 9.45 -4.45 9.3 -4.95 8.85 -4.6 8.5 -3.55 8.25 -0.1 8.35 M-3.8 12.55 L1.65 14.5 1.05 15.35 -3.55 15.7 -4.7 14.05 -3.8 12.55 M-6.4 10.75 L-7.0 9.2 -8.05 5.75 -8.2 4.05 Q-8.0 1.8 -9.0 -0.15 L-9.5 -1.1 Q-10.65 -2.75 -10.7 -4.65 L-10.35 -6.95 -9.35 -5.0 -9.85 -5.0 -9.95 -4.75 -10.0 -4.55 -9.7 -4.2 -7.85 -4.15 Q-6.65 -4.85 -5.25 -5.0 L-7.1 -2.45 -6.8 -1.45 -4.75 1.95 -4.0 2.25 -0.8 4.5 -1.5 5.45 -0.3 4.8 0.65 5.45 -0.25 5.55 -0.4 5.5 -0.4 5.55 -1.4 5.7 -2.15 6.3 -3.85 5.2 -4.6 5.5 -4.95 6.5 -5.45 5.65 -5.85 6.0 Q-6.05 3.6 -7.55 1.8 -7.85 3.85 -7.3 5.9 L-6.85 8.1 Q-6.55 9.35 -6.4 10.75 M9.05 -6.65 L10.55 -6.1 6.5 -2.0 7.3 0.0 3.8 -4.1 5.0 -3.85 9.05 -6.65 M1.35 -11.0 L0.75 -10.55 0.0 -10.9 -1.25 -11.2 -2.4 -10.8 Q-3.85 -12.9 -6.45 -12.45 L-9.25 -12.55 -9.4 -15.1 -6.65 -15.1 -6.3 -14.6 Q-5.0 -13.1 -3.4 -12.4 L-3.85 -14.25 -3.7 -14.8 -2.75 -13.05 -3.0 -14.45 -2.15 -14.2 Q-0.45 -13.7 -0.25 -12.5 L-1.15 -12.45 0.6 -11.6 Q4.0 -12.8 7.75 -12.8 L7.9 -12.2 Q4.5 -12.45 1.35 -11.0 M-7.8 -10.0 L-6.85 -10.65 -3.7 -9.7 -3.8 -9.1 -7.75 -9.85 -7.8 -10.0 M-7.0 -5.5 L-8.1 -5.35 -9.2 -6.5 -7.0 -5.5 M-4.75 5.05 L-4.7 5.3 -4.55 5.05 -4.75 5.05" fill="#d0bb9d" fill-rule="evenodd" stroke="none"/>
    <path d="M-7.75 -9.85 L-8.55 -9.45 -7.8 -10.0 -7.75 -9.85" fill="#ffffff" fill-rule="evenodd" stroke="none"/>
  </g>
</svg>
