<?xml version="1.0" encoding="UTF-8" standalone="no"?>
<svg xmlns:xlink="http://www.w3.org/1999/xlink" height="42.3px" width="30.3px" xmlns="http://www.w3.org/2000/svg">
  <g transform="matrix(1.0, 0.0, 0.0, 1.0, 16.85, 24.15)">
    <path d="M13.45 -18.6 L13.45 18.15 -12.9 18.15 -12.9 -18.6 13.45 -18.6" fill="#000000" fill-rule="evenodd" stroke="none"/>
    <path d="M0.25 -24.15 Q1.25 -24.0 2.1 -23.4 4.1 -22.1 6.3 -22.1 L10.0 -16.9 7.35 -18.7 8.05 -16.3 3.85 -15.45 1.6 -14.7 5.25 -12.95 2.1 -13.15 3.6 -11.0 2.5 -10.9 -0.6 -12.35 -0.9 -12.55 -1.7 -12.5 Q-2.0 -12.9 -2.2 -12.0 L-2.7 -10.65 -6.6 -11.5 -4.35 -11.7 Q-6.05 -11.95 -5.3 -13.05 L-5.35 -13.15 -12.2 -10.6 -11.25 -9.7 -10.9 -9.95 Q-9.95 -10.2 -10.3 -9.55 L-10.15 -9.55 -6.2 -9.35 -4.15 -8.8 -4.1 -9.1 -1.65 -8.6 -1.55 -8.95 Q-1.35 -9.5 -0.6 -8.6 L-1.3 -8.0 1.05 -6.65 1.4 -5.0 1.5 2.15 3.65 1.6 2.05 4.05 0.1 4.35 -3.1 2.65 -2.35 0.3 -0.85 2.15 -0.7 -4.35 Q-1.2 -5.7 -2.2 -6.45 -4.1 -7.9 -6.8 -8.6 -9.9 -9.1 -10.45 -7.05 -7.85 -5.45 -5.3 -5.1 L-3.6 -5.2 -3.25 -1.0 -4.95 3.25 -1.9 5.2 -6.55 7.35 -6.05 3.3 -7.55 1.2 -6.7 -1.75 -7.75 1.05 -10.5 -1.55 -7.8 -4.45 -12.05 -2.7 -12.35 -1.75 -12.55 -0.8 -13.4 -5.7 -12.7 -8.3 -12.65 -8.7 Q-13.4 -9.45 -12.7 -8.3 L-15.3 -7.85 -16.15 -3.2 -16.3 -7.75 Q-16.8 -7.95 -16.85 -8.45 L-16.8 -8.8 -16.7 -9.05 -13.65 -10.0 -13.5 -12.05 Q-14.5 -12.1 -14.05 -12.9 -12.95 -14.9 -12.2 -16.9 -11.55 -18.5 -10.2 -19.65 L-9.85 -20.05 -8.15 -21.45 -7.05 -22.15 Q-3.65 -23.9 0.25 -24.15 M10.6 -12.8 L10.6 -13.1 Q11.7 -12.65 11.4 -11.5 L11.3 -8.4 Q10.6 -10.45 10.6 -12.8 M1.05 -15.15 L-0.25 -15.3 -6.75 -14.75 0.8 -15.1 1.05 -15.15 M3.0 14.9 L3.7 13.5 5.35 12.25 4.15 16.05 4.15 15.75 Q4.0 14.8 3.85 15.5 3.65 16.35 3.2 15.85 3.0 15.75 2.6 16.55 L2.35 16.55 0.85 16.7 -3.15 16.5 Q-5.2 15.95 -6.45 14.3 L-6.65 10.9 -3.45 14.9 Q-2.85 14.1 -2.1 13.65 -1.05 12.95 0.15 13.15 L1.3 13.65 3.0 14.9 M4.85 -2.75 L4.9 -3.45 5.7 -3.1 Q6.55 -2.9 8.6 -3.1 10.55 -3.3 9.75 -2.65 L8.15 -1.45 Q7.4 -0.95 6.6 -0.95 5.85 -0.95 5.3 -1.45 4.85 -2.05 4.85 -2.75 M8.95 -6.35 Q8.6 -6.65 8.45 -7.05 6.55 -7.2 4.95 -6.6 3.75 -6.25 3.75 -7.25 L5.9 -8.1 4.25 -9.35 10.0 -9.05 7.65 -8.4 10.05 -6.75 10.0 -6.65 Q9.45 -6.1 8.95 -6.35 M-3.7 -16.8 L-5.3 -16.9 Q-5.9 -16.55 -4.65 -16.5 -3.5 -16.6 -3.7 -16.8 M-11.85 -8.4 Q-12.95 -8.45 -12.7 -7.65 -12.55 -7.05 -11.65 -7.55 L-11.4 -7.7 Q-10.65 -7.9 -10.9 -8.8 -11.55 -9.3 -11.85 -8.6 L-11.85 -8.4 M-12.25 -6.55 Q-13.2 -4.6 -11.55 -6.25 -11.1 -6.65 -11.25 -6.75 -11.75 -7.2 -12.25 -6.55 M-2.6 -7.8 Q-1.5 -7.0 -2.8 -8.2 -4.05 -8.95 -2.6 -7.8 M-4.15 8.8 Q-4.85 8.0 -3.45 8.5 L4.0 9.15 -1.45 11.15 Q-3.05 10.1 -4.15 8.8 M-8.3 7.85 L-8.0 10.5 -10.15 7.6 -11.85 13.35 -11.8 5.2 -13.05 -0.2 -10.3 3.65 -8.3 7.85" fill="#ffffff" fill-rule="evenodd" stroke="none"/>
  </g>
</svg>
