<?xml version="1.0" encoding="UTF-8" standalone="no"?>
<svg xmlns:xlink="http://www.w3.org/1999/xlink" height="37.8px" width="28.6px" xmlns="http://www.w3.org/2000/svg">
  <g transform="matrix(1.0, 0.0, 0.0, 1.0, 0.0, 0.0)">
    <path d="M2.85 0.0 L3.3 0.4 2.8 0.55 2.7 0.0 2.85 0.0 M0.3 2.8 L0.5 2.95 0.45 3.05 0.3 2.8 M0.1 29.55 L0.0 30.4 0.0 29.65 0.1 29.55 M0.1 29.05 L0.0 29.1 0.0 29.05 0.1 29.05 M0.05 0.85 L0.0 0.9 0.0 0.0 0.45 0.0 0.05 0.85 M1.1 36.6 L1.1 36.8 0.0 36.8 0.0 36.4 1.1 36.6" fill="url(#gradient0)" fill-rule="evenodd" stroke="none"/>
    <path d="M1.1 36.8 L1.1 36.6 1.1 0.85 28.1 0.85 28.1 37.3 1.1 37.3 1.1 36.8" fill="url(#gradient1)" fill-rule="evenodd" stroke="none"/>
    <path d="M1.1 36.8 L1.1 36.6 1.1 0.85 28.1 0.85 28.1 37.3 1.1 37.3 1.1 36.8 Z" fill="none" stroke="#756c4f" stroke-linecap="round" stroke-linejoin="round" stroke-width="1.0"/>
  </g>
  <defs>
    <radialGradient cx="0" cy="0" gradientTransform="matrix(0.018, 0.0, 0.0, 0.0279, 13.25, 19.2)" gradientUnits="userSpaceOnUse" id="gradient0" r="819.2" spreadMethod="pad">
      <stop offset="0.16470588235294117" stop-color="#eccd57"/>
      <stop offset="0.8470588235294118" stop-color="#5f8a53"/>
    </radialGradient>
    <radialGradient cx="0" cy="0" gradientTransform="matrix(0.0271, 0.0, 0.0, 0.0553, 13.75, 6.05)" gradientUnits="userSpaceOnUse" id="gradient1" r="819.2" spreadMethod="pad">
      <stop offset="0.17647058823529413" stop-color="#ffffff"/>
      <stop offset="0.49411764705882355" stop-color="#d0c773"/>
      <stop offset="0.8470588235294118" stop-color="#5f8a53"/>
    </radialGradient>
  </defs>
</svg>
