<?xml version="1.0" encoding="UTF-8" standalone="no"?>
<svg xmlns:xlink="http://www.w3.org/1999/xlink" height="37.5px" width="27.2px" xmlns="http://www.w3.org/2000/svg">
  <g transform="matrix(1.0, 0.0, 0.0, 1.0, 13.7, 19.15)">
    <path d="M13.15 -18.65 L13.15 18.15 -13.45 18.15 -13.45 -18.65 13.15 -18.65" fill="#000000" fill-rule="evenodd" stroke="none"/>
    <path d="M5.55 -19.15 L7.55 -19.15 5.65 -15.4 Q6.75 -14.35 7.45 -12.9 8.05 -11.8 7.6 -10.55 L6.95 -12.05 Q6.55 -13.25 5.55 -14.35 L3.5 -16.6 5.55 -19.15 M2.0 -14.4 L1.3 -13.85 Q-1.7 -11.5 -5.45 -11.6 L-7.5 -11.9 -8.1 -11.9 -10.1 -11.95 -10.55 -12.6 -9.05 -12.5 -8.25 -12.9 -7.7 -12.8 Q-3.5 -12.85 0.45 -14.4 L1.2 -14.85 2.0 -15.45 3.15 -16.55 3.45 -16.15 2.0 -14.4 M-1.8 -6.1 L-1.5 -4.8 0.35 -4.05 1.7 -4.7 1.75 -4.0 2.55 -3.3 1.75 -2.5 0.65 -2.4 0.4 -1.95 0.6 -1.45 2.55 -0.3 2.55 0.15 1.85 0.25 -0.65 -0.7 -1.45 0.3 -1.9 -0.35 -2.65 -1.4 -2.35 -1.9 -3.1 -2.65 -3.8 3.75 Q-3.75 4.5 -4.65 4.0 L-5.2 3.6 -5.25 3.0 -3.95 -3.25 -4.3 -5.45 -3.55 -5.4 Q-2.5 -5.4 -1.8 -6.1 M1.9 0.45 L2.75 0.65 2.85 0.75 3.55 1.6 3.55 1.8 3.2 1.9 2.95 1.85 2.5 1.5 2.0 1.3 0.25 1.2 0.1 0.7 1.9 0.45 M2.15 2.55 L2.65 2.55 2.8 2.95 2.75 3.2 2.35 3.3 2.25 3.3 1.35 3.2 1.25 2.7 2.15 2.55 M-11.75 -7.55 L-11.8 -6.15 Q-14.35 -9.1 -12.75 -14.7 L-13.1 -16.0 -12.2 -18.15 -11.8 -17.6 -11.1 -19.15 -6.45 -19.15 -8.75 -17.2 -9.45 -16.5 -9.55 -16.25 -10.5 -13.65 -11.0 -12.25 -11.75 -7.55 M0.2 1.35 L1.1 1.5 1.25 1.8 Q1.1 2.15 0.5 2.15 0.0 2.15 -0.6 1.65 L-0.7 1.6 -1.35 1.7 -1.55 1.05 -1.15 1.05 -1.25 0.8 Q-0.75 0.8 -0.15 1.15 L0.2 1.35 M-3.6 5.75 L-3.8 5.1 -3.7 4.75 -2.6 4.45 -2.15 5.0 -0.3 3.9 0.2 3.95 -0.5 5.3 -1.3 5.7 -2.4 5.95 -3.6 5.75 M-8.2 7.0 L-8.2 5.9 -8.15 5.2 Q-7.35 5.35 -6.85 6.7 L-6.6 7.6 -6.6 7.15 -6.2 7.0 Q-5.85 7.85 -5.85 10.3 L-5.9 13.0 Q-5.35 15.45 -5.35 16.5 -5.35 17.2 -5.85 17.35 L-6.35 17.5 -11.75 17.75 -12.4 17.6 -12.7 17.65 -13.25 17.3 -13.65 17.1 -13.7 17.05 -13.65 16.9 -13.3 15.35 -13.1 12.75 Q-13.1 12.0 -13.5 11.0 L-13.15 10.7 -12.9 10.85 -12.85 10.05 Q-13.0 9.9 -12.5 9.9 -11.9 9.9 -11.8 10.8 L-11.75 12.05 -11.75 12.1 -11.7 12.05 -11.45 10.45 Q-11.3 9.25 -10.85 8.5 -10.15 8.55 -10.0 9.3 L-9.95 10.5 -9.95 10.55 -9.9 10.55 -9.25 9.35 -8.6 8.1 Q-8.4 8.3 -8.15 9.35 L-8.2 7.0 M-8.7 9.95 L-8.6 10.1 -8.6 9.75 -8.7 9.9 -8.7 9.95 M-0.55 13.7 L-1.1 13.6 -1.4 13.2 -1.2 12.75 Q-1.0 12.55 -0.7 12.5 L-0.15 12.65 0.1 13.05 -0.05 13.5 Q-0.25 13.7 -0.55 13.7 M-6.5 15.2 L-6.4 15.25 -6.4 14.95 -6.4 14.85 -6.5 15.2" fill="#000000" fill-rule="evenodd" stroke="none"/>
    <path d="M-6.35 17.5 L-6.25 18.0 -6.15 18.35 -13.65 18.35 -13.65 17.1 -13.25 17.3 -12.7 17.65 -12.4 17.6 -11.75 17.75 -6.35 17.5 M-13.65 16.9 L-13.65 11.0 -13.5 11.0 Q-13.1 12.0 -13.1 12.75 L-13.3 15.35 -13.65 16.9 M-9.9 10.55 L-9.95 10.55 -9.95 10.5 -9.9 10.55 M-11.7 12.05 L-11.75 12.1 -11.75 12.05 -11.7 12.05 M-8.7 9.95 L-8.7 9.9 -8.6 9.75 -8.6 10.1 -8.7 9.95" fill="#777777" fill-rule="evenodd" stroke="none"/>
    <path d="M5.55 -19.15 L3.5 -16.6 5.55 -14.35 6.05 -12.25 6.35 -11.65 6.9 -10.65 2.2 -9.35 2.0 -14.4 3.45 -16.15 3.15 -16.55 2.0 -15.45 Q2.4 -16.55 3.35 -17.55 L4.4 -19.15 5.55 -19.15 M2.85 0.75 L2.85 0.6 Q7.7 1.8 10.65 -2.1 L11.3 -3.25 11.45 -1.9 Q9.45 4.85 3.1 3.65 L2.95 1.85 3.2 1.9 3.55 1.8 3.55 1.6 2.85 0.75 M-5.2 3.6 L-5.4 5.85 Q-9.2 3.35 -11.2 -0.95 -9.4 2.7 -5.45 2.05 L-5.25 3.0 -5.2 3.6 M-7.4 -7.9 L-11.75 -7.55 -11.0 -12.25 -10.5 -13.65 -9.55 -16.25 -8.25 -12.9 -9.05 -12.5 -10.55 -12.6 -10.1 -11.95 -8.1 -11.9 -7.55 -8.2 -7.4 -7.9 M10.55 3.8 Q11.3 5.2 10.45 6.4 L8.4 9.15 Q7.05 6.15 9.65 3.45 10.5 2.65 10.85 1.2 L11.7 -1.55 Q11.95 0.6 11.05 2.6 L10.55 3.8" fill="#51406a" fill-rule="evenodd" stroke="none"/>
    <path d="M5.5 11.35 L4.65 10.95 5.85 9.55 6.4 9.55 6.45 9.75 Q6.5 10.8 5.5 11.35 M-0.5 5.3 L0.6 4.8 Q2.55 5.5 4.5 8.3 1.4 6.4 -0.95 6.6 L-1.55 7.55 -2.6 6.8 -3.8 7.3 -3.6 5.75 -2.4 5.95 -2.45 6.45 -1.8 6.85 -1.2 6.55 -1.3 5.7 -0.5 5.3 M-4.3 11.05 L-3.85 11.4 -4.45 11.85 -4.7 11.35 -4.3 11.05 M-2.25 12.35 L-0.1 11.6 Q2.05 11.7 3.9 12.6 1.75 14.9 -0.15 14.5 L-2.4 14.45 -2.4 12.5 -1.85 12.5 -2.25 12.35 M-0.55 13.7 Q-0.25 13.7 -0.05 13.5 L0.1 13.05 -0.15 12.65 -0.7 12.5 Q-1.0 12.55 -1.2 12.75 L-1.4 13.2 -1.1 13.6 -0.55 13.7" fill="#b6a285" fill-rule="evenodd" stroke="none"/>
    <path d="M-3.15 9.9 L-4.3 9.45 Q2.5 8.55 2.95 9.45 -0.1 10.6 -3.15 9.9" fill="#bb9780" fill-rule="evenodd" stroke="none"/>
    <path d="M1.3 -13.85 L1.5 -9.25 1.05 -9.15 -1.8 -6.1 Q-2.5 -5.4 -3.55 -5.4 L-4.3 -5.45 Q-5.75 -5.85 -6.75 -7.1 L-7.4 -7.9 -7.55 -8.2 -6.9 -8.6 -7.5 -11.9 -5.45 -11.6 Q-1.7 -11.5 1.3 -13.85 M1.85 0.25 L1.9 0.45 0.1 0.7 0.25 1.2 2.0 1.3 2.15 2.55 1.25 2.7 1.35 3.2 2.25 3.3 2.45 4.9 -0.2 3.3 -1.15 3.75 -3.8 3.75 -3.1 -2.65 -2.35 -1.9 -2.65 -1.4 -1.9 -0.35 -1.45 0.3 -0.65 -0.7 1.85 0.25 M-6.45 -19.15 L3.0 -19.15 1.2 -14.85 0.45 -14.4 Q-3.5 -12.85 -7.7 -12.8 -7.8 -15.15 -8.75 -17.2 L-6.45 -19.15 M0.2 1.35 L-0.15 1.15 Q-0.75 0.8 -1.25 0.8 L-1.15 1.05 -1.55 1.05 -1.35 1.7 -0.7 1.6 -0.6 1.65 Q0.0 2.15 0.5 2.15 1.1 2.15 1.25 1.8 L1.1 1.5 0.2 1.35 M6.2 18.0 Q7.3 15.75 9.25 12.45 12.0 7.75 13.5 5.7 L13.5 18.35 6.05 18.35 6.2 18.0 M-13.65 11.0 L-13.65 9.4 -13.45 9.3 -13.1 9.15 Q-9.4 7.25 -8.2 7.0 L-8.15 9.35 Q-8.4 8.3 -8.6 8.1 L-9.25 9.35 -9.9 10.55 -9.95 10.5 -10.0 9.3 Q-10.15 8.55 -10.85 8.5 -11.3 9.25 -11.45 10.45 L-11.7 12.05 -11.75 12.05 -11.8 10.8 Q-11.9 9.9 -12.5 9.9 -13.0 9.9 -12.85 10.05 L-12.9 10.85 -13.15 10.7 -13.5 11.0 -13.65 11.0" fill="#e6e6e6" fill-rule="evenodd" stroke="none"/>
  </g>
</svg>
