<?xml version="1.0" encoding="UTF-8" standalone="no"?>
<svg xmlns:xlink="http://www.w3.org/1999/xlink" height="36.75px" width="26.35px" xmlns="http://www.w3.org/2000/svg">
  <g transform="matrix(1.0, 0.0, 0.0, 1.0, 12.9, 18.6)">
    <path d="M-12.9 -18.6 L13.45 -18.6 13.45 18.15 -12.9 18.15 -12.9 -18.6" fill="#000000" fill-rule="evenodd" stroke="none"/>
    <path d="M7.2 -16.4 L7.3 -16.1 Q7.3 -14.85 5.85 -14.25 3.75 -13.4 -2.15 -13.3 -0.85 -14.45 1.5 -14.3 4.55 -14.15 5.3 -14.35 6.4 -14.7 6.7 -15.5 L7.2 -16.4 M8.85 -8.5 L8.85 -8.25 3.45 -8.1 2.9 -8.25 Q3.55 -9.05 6.35 -9.05 L8.15 -8.85 8.85 -8.5 M2.45 -11.85 Q7.25 -13.3 11.1 -10.25 5.7 -12.55 -0.5 -10.7 -4.1 -9.65 -7.65 -10.25 -9.75 -10.4 -11.4 -9.2 L-9.6 -10.5 -8.25 -11.25 -5.55 -11.85 -8.75 -11.85 Q-1.55 -13.95 5.3 -12.55 L3.7 -12.2 2.45 -11.85 M2.9 -4.7 L3.75 -3.9 4.1 -3.6 7.8 -4.2 7.9 -4.05 Q8.25 -4.5 8.25 -5.05 L9.1 -4.85 Q9.55 -4.7 9.55 -4.55 L9.5 -4.2 8.75 -4.35 8.05 -3.45 3.75 -2.55 3.15 -3.25 Q2.6 -4.05 2.6 -4.55 L2.65 -4.6 2.9 -4.7 M0.15 -1.65 L0.05 -2.0 0.05 -1.65 0.15 -1.65 M0.5 -0.9 L0.6 -0.9 Q1.4 -0.95 2.2 -1.35 L4.25 0.55 3.75 1.1 1.3 0.0 Q-0.75 2.2 -2.6 0.6 L-3.0 0.2 -3.2 0.0 -4.7 1.95 -5.6 1.95 -5.85 1.2 -5.05 0.05 -4.5 0.1 Q-3.4 0.1 -3.4 -0.55 L-3.5 -0.95 -3.55 -1.0 -3.5 -1.0 -3.0 -1.25 Q-2.75 -5.3 -1.05 -5.65 0.85 -6.1 0.85 -1.3 L0.8 -1.0 0.6 -0.95 Q0.35 -1.0 0.2 -1.45 L0.2 -1.2 0.5 -0.9 M9.1 -5.5 Q8.8 -5.6 8.4 -6.15 8.95 -6.75 10.15 -5.85 L10.15 -5.45 9.85 -5.4 9.1 -5.5 M8.75 -2.3 Q10.35 -1.85 11.2 -0.45 L11.2 -0.2 9.2 2.1 Q6.15 1.4 4.65 -1.45 6.7 -2.55 8.75 -2.3 M0.7 4.55 L0.85 4.25 0.95 4.2 0.7 4.55 M1.75 3.7 L1.5 3.7 1.95 3.1 Q4.35 3.75 4.55 6.9 L-1.2 6.3 -1.25 6.3 Q-4.05 5.6 -2.9 4.4 L-5.2 6.3 -6.35 6.5 -4.0 3.5 -2.9 4.25 -2.85 4.25 -2.85 4.4 -1.0 4.9 -1.05 5.5 -1.05 6.2 0.0 6.2 1.1 5.2 1.8 4.0 1.75 3.7 M5.0 12.05 L5.15 12.35 4.55 13.35 Q3.9 14.0 3.4 14.0 L0.55 13.65 -2.5 13.1 -3.45 13.8 Q-4.4 14.45 -5.2 14.45 -5.8 14.45 -5.95 13.45 L-5.9 13.1 -5.35 12.9 Q-5.0 13.3 -5.0 13.65 L-4.85 13.85 Q-4.25 13.85 -3.45 13.3 L-2.55 12.85 -1.7 12.7 -0.1 12.95 1.7 12.8 2.2 12.95 2.75 13.15 Q3.45 13.15 4.0 12.65 L4.8 12.0 5.0 12.05 M4.25 10.45 L-1.75 10.9 Q-2.8 10.4 -6.1 10.05 -3.75 8.2 6.15 10.45 L4.25 10.45 M2.45 16.35 L-3.15 16.55 -3.6 15.3 Q-1.5 14.0 0.95 14.95 1.75 15.15 2.4 15.65 L2.45 16.35 M-8.2 -14.4 Q-5.55 -16.15 3.4 -16.2 2.9 -15.45 -1.65 -15.15 L-7.85 -14.35 -8.2 -14.4 M-10.65 -7.45 Q-9.65 -8.8 -8.05 -8.7 -6.7 -8.6 -5.45 -7.6 L-5.45 -7.45 -8.25 -7.55 -10.5 -7.35 -10.65 -7.45 M-10.55 -4.2 L-10.5 -3.95 -11.65 -3.15 -11.75 -3.2 -11.8 -3.45 -11.3 -4.0 -10.55 -4.2 M-5.6 -3.6 Q-5.0 -3.6 -4.95 -3.1 L-6.1 -2.35 -6.85 -2.0 -7.05 -1.85 -8.15 -1.7 Q-9.1 -1.6 -9.7 -2.75 L-9.65 -2.75 -9.85 -3.3 -9.85 -3.4 Q-9.6 -2.9 -7.95 -2.6 L-6.75 -2.9 -6.6 -2.85 -6.4 -3.1 Q-6.0 -3.6 -5.6 -3.6 M-9.7 -4.35 L-9.45 -4.35 -9.65 -4.1 -9.7 -4.35 M-7.35 -0.75 L-6.8 0.1 -7.95 3.55 Q-9.25 3.85 -10.45 2.9 -11.4 2.1 -11.65 1.0 -11.1 -0.2 -9.5 -0.5 L-7.35 -0.75 M-0.5 -3.45 L-0.5 -3.4 -0.45 -3.3 -0.5 -3.45" fill="#b9a068" fill-rule="evenodd" stroke="none"/>
  </g>
</svg>
