<?xml version="1.0" encoding="UTF-8" standalone="no"?>
<svg xmlns:xlink="http://www.w3.org/1999/xlink" height="36.8px" width="27.35px" xmlns="http://www.w3.org/2000/svg">
  <g transform="matrix(1.0, 0.0, 0.0, 1.0, 13.45, 18.65)">
    <path d="M13.15 18.15 L-13.45 18.15 -13.45 -18.65 13.15 -18.65 13.15 18.15" fill="#000000" fill-rule="evenodd" stroke="none"/>
    <path d="M-7.2 -9.5 L-6.55 -8.95 -0.85 -9.1 -0.4 -9.8 0.05 -9.4 0.7 -9.4 1.2 -9.7 -0.5 -10.1 0.5 -10.55 1.5 -10.9 3.55 -11.15 3.5 -11.2 3.15 -11.7 3.1 -12.2 2.4 -13.0 3.05 -13.05 2.25 -16.3 2.35 -16.9 Q3.75 -17.05 4.5 -16.35 L4.55 -16.35 5.1 -15.55 5.65 -13.0 7.25 -12.95 7.15 -13.55 10.6 -11.65 9.75 -12.5 9.85 -13.0 12.05 -11.95 12.3 -10.8 12.8 -10.25 13.25 -9.7 13.65 -9.05 13.9 -8.4 12.45 -6.95 12.5 -4.7 12.35 -4.25 11.5 -2.95 12.1 -2.6 11.45 -1.25 11.8 -0.65 10.8 -1.05 10.1 -0.9 8.75 0.55 5.45 0.35 5.8 1.15 2.55 0.25 4.85 1.35 6.7 1.85 7.6 1.7 8.4 1.9 7.35 2.15 Q4.75 2.55 2.8 1.05 L1.8 0.15 1.4 -0.9 3.1 -0.3 2.5 -1.35 5.0 -0.9 5.1 -1.65 4.8 -1.3 4.35 -1.3 3.95 -1.4 3.3 -1.65 3.4 -2.2 3.1 -2.75 4.25 -3.2 5.2 -2.25 5.3 -3.2 4.15 -3.9 2.85 -3.35 2.4 -1.8 1.35 -3.1 1.4 -3.65 2.55 -4.35 3.5 -4.35 3.45 -4.9 4.3 -5.9 6.9 -6.15 7.45 -6.05 8.5 -5.3 8.05 -5.05 8.7 -4.85 10.3 -4.0 9.95 -4.65 9.05 -5.05 10.0 -5.9 8.7 -5.4 7.95 -6.2 7.65 -6.55 8.35 -8.05 7.6 -7.0 5.55 -7.6 4.55 -7.75 2.7 -8.05 2.45 -7.35 2.25 -6.35 1.6 -6.4 1.4 -5.8 0.85 -5.35 0.9 -3.2 -0.45 -3.3 -1.2 -4.5 -1.35 -2.8 -1.8 -2.35 -4.9 1.0 -6.4 1.65 -5.95 2.0 -6.35 2.25 -8.25 1.35 -9.0 -0.05 -9.95 1.65 -8.5 3.2 Q-7.45 4.15 -7.2 5.5 L-7.1 6.35 -7.55 6.4 -9.2 5.05 -10.7 2.4 -11.2 2.45 -11.8 -0.8 -11.9 -2.6 -11.75 -1.85 -10.85 -4.15 -11.05 -4.85 -10.3 -6.6 -10.0 -4.85 -9.65 -6.95 -7.2 -9.5 M-0.15 4.35 L0.5 4.55 1.9 3.95 1.8 5.2 2.45 5.45 2.25 4.8 Q2.25 4.3 2.7 4.2 3.25 4.1 3.85 4.9 L4.5 5.3 4.1 4.55 3.8 3.6 Q6.95 4.6 9.0 7.3 L10.0 6.85 10.0 7.9 10.85 8.25 10.6 10.25 11.2 10.95 Q10.65 13.15 8.7 14.25 7.45 14.95 6.0 15.1 L3.7 13.85 3.8 13.5 3.7 13.3 Q3.4 13.75 2.8 13.75 L2.35 13.75 2.25 12.85 Q2.25 12.15 2.8 10.7 L2.95 10.3 2.55 10.2 2.2 10.8 1.85 11.2 1.45 10.65 -4.5 10.9 -4.35 11.65 -3.25 12.1 -2.25 12.65 -0.4 14.3 -4.85 12.65 -6.1 12.8 -6.75 13.6 -7.15 13.75 -7.7 13.25 Q-6.7 11.15 -6.8 8.65 L-6.1 9.15 -5.05 9.25 -4.2 9.75 -3.9 9.35 -2.95 9.25 -2.15 9.3 -0.65 9.35 -0.3 9.4 0.2 9.4 0.3 9.4 0.65 9.4 0.45 9.15 -0.2 9.0 -1.05 8.75 -1.55 8.55 -2.0 8.65 -2.8 8.75 -3.95 8.9 -4.95 8.95 -4.5 7.9 -0.7 8.15 -0.55 8.15 -0.15 8.25 -0.25 8.15 -0.85 7.25 -0.85 7.2 -0.9 7.2 -1.7 6.8 -4.1 5.05 -5.6 5.65 Q-4.75 3.9 -3.35 2.95 L-2.45 2.25 -3.05 3.95 -2.5 4.15 -1.9 3.8 -0.15 4.35 M-9.8 -8.85 Q-8.9 -12.55 -6.45 -15.5 L-5.9 -16.15 -6.2 -16.6 Q-6.2 -17.5 -4.0 -17.85 -1.85 -18.2 -1.85 -17.55 -1.85 -17.1 -2.3 -16.55 -0.85 -16.6 -0.95 -15.85 -1.7 -14.6 -1.7 -14.15 L-1.55 -13.85 -1.4 -13.5 Q-1.4 -13.1 -1.95 -12.8 L-3.5 -11.95 -3.9 -12.65 -3.85 -13.25 -3.95 -13.4 -5.0 -12.45 Q-5.45 -11.75 -5.8 -11.75 -6.45 -11.75 -6.65 -12.05 L-6.95 -10.45 -9.65 -7.15 -9.8 -8.85 M7.3 -9.55 L7.1 -9.5 7.45 -9.5 7.3 -9.55 M6.9 -9.55 L6.55 -9.9 6.05 -10.1 6.9 -9.55 M3.9 -9.35 L3.95 -9.65 3.85 -10.0 3.9 -9.35 M1.65 -9.35 L1.75 -9.1 1.9 -9.35 1.65 -9.35 M11.7 -8.1 L10.4 -9.15 10.35 -8.95 11.2 -7.05 10.7 -6.1 11.4 -4.55 11.8 -6.7 11.7 -8.1 M2.4 6.9 L2.85 6.95 2.45 5.5 0.7 6.6 2.0 6.8 2.45 6.95 2.4 6.9 M1.05 10.0 L1.0 10.05 1.05 10.05 1.05 10.0 M6.6 7.9 L6.5 8.35 7.95 9.3 6.6 7.9 M7.2 9.9 L6.2 9.55 5.85 10.6 5.2 12.5 6.05 11.6 7.2 9.9 M-4.7 -6.75 L-4.4 -7.1 -4.25 -6.8 -4.2 -6.6 -4.15 -5.65 -3.7 -4.15 -2.95 -4.75 -2.5 -5.5 -2.85 -7.15 -2.9 -7.9 -1.95 -7.5 -0.95 -7.05 -0.8 -8.2 -0.9 -8.85 Q-3.85 -7.3 -6.95 -8.25 L-7.0 -8.3 -7.05 -8.25 -7.55 -8.3 -8.15 -8.05 -8.4 -7.65 -8.2 -7.2 Q-8.05 -7.0 -7.6 -6.9 L-7.75 -6.4 -8.3 -5.65 -10.05 -2.15 -9.4 -2.95 -7.85 -4.25 -7.85 -3.2 -8.6 -1.5 -8.4 -0.65 Q-8.2 -0.3 -7.95 -0.3 L-6.25 0.85 -5.35 0.25 -5.55 -1.1 -4.4 -3.45 -4.9 -5.3 -4.95 -5.7 -4.95 -5.8 -4.9 -6.35 -4.7 -6.75 M-9.5 -8.95 L-6.95 -11.3 -8.35 -10.2 -9.5 -8.95 M-9.9 -0.75 L-10.55 -0.3 -10.95 1.15 -9.35 -0.7 -9.9 -0.75 M-1.9 -1.3 L-1.4 1.3 -2.15 -0.25 -1.9 -1.3 M-2.35 0.3 L-2.0 0.65 -1.65 2.75 -2.6 0.9 -2.35 0.3 M-3.4 4.85 L-3.1 5.25 -2.8 4.85 -3.4 4.85" fill="#000000" fill-rule="evenodd" stroke="none"/>
    <path d="M4.5 -16.35 L4.55 -16.45 4.55 -16.35 4.5 -16.35 M8.75 0.55 L7.6 1.7 6.7 1.85 4.85 1.35 2.55 0.25 5.8 1.15 5.45 0.35 8.75 0.55 M7.35 2.15 Q4.0 4.3 2.25 1.05 L1.8 0.15 2.8 1.05 Q4.75 2.55 7.35 2.15 M2.5 -1.35 L2.4 -1.8 2.85 -3.35 4.15 -3.9 5.3 -3.2 5.2 -2.25 4.25 -3.2 3.1 -2.75 3.4 -2.2 3.3 -1.65 3.95 -1.4 4.35 -1.3 4.8 -1.3 5.1 -1.65 5.0 -0.9 2.5 -1.35 M6.9 -6.15 L7.05 -6.6 5.55 -7.6 7.6 -7.0 8.35 -8.05 7.65 -6.55 7.95 -6.2 7.5 -6.3 7.45 -6.05 6.9 -6.15 M4.55 -7.75 L2.45 -7.35 2.7 -8.05 4.55 -7.75 M-0.45 -3.3 L-0.15 4.35 -1.9 3.8 -2.5 4.15 -3.05 3.95 -2.45 2.25 -3.35 2.95 Q-4.75 3.9 -5.6 5.65 -5.65 3.15 -3.6 1.65 L-2.6 0.9 -1.65 2.75 -2.0 0.65 -2.35 0.3 -2.15 -0.25 -1.4 1.3 -1.9 -1.3 -1.8 -2.35 -1.35 -2.8 -1.2 -4.5 -0.45 -3.3 M-3.25 12.1 L-3.5 11.2 Q-1.0 12.4 1.5 11.2 L0.0 12.45 -1.7 12.8 -2.25 12.65 -3.25 12.1 M-4.85 12.65 L-2.45 14.05 -4.5 13.5 -2.8 15.25 -3.75 15.7 Q-3.95 15.55 -4.1 15.45 L-5.1 14.25 -6.1 12.8 -4.85 12.65 M-5.05 9.25 Q-7.1 7.95 -8.5 6.15 L-9.2 5.05 -7.55 6.4 -6.05 7.85 -3.8 5.7 -1.7 6.8 -0.9 7.2 -0.85 7.25 -0.25 8.15 -0.55 8.15 -0.7 8.15 -4.1 6.55 -5.7 8.2 -5.05 9.25 M-10.3 -6.6 Q-11.15 -11.3 -8.3 -15.1 L-7.45 -16.15 Q-9.55 -12.85 -9.8 -8.85 L-9.65 -7.15 -6.95 -10.45 -3.25 -10.75 -3.95 -10.2 Q-5.3 -9.2 -7.2 -9.5 L-9.65 -6.95 -10.0 -4.85 -10.3 -6.6 M8.5 -5.3 L8.7 -5.4 10.0 -5.9 9.05 -5.05 8.7 -4.85 8.05 -5.05 8.5 -5.3 M3.9 -9.35 L3.85 -10.0 3.95 -9.65 3.9 -9.35 M1.65 -9.35 L1.9 -9.35 1.75 -9.1 1.65 -9.35 M2.3 2.95 L1.5 3.5 1.0 3.25 1.55 2.65 2.3 2.95 M0.3 9.4 L0.25 9.35 0.2 9.4 -0.3 9.4 -0.2 9.0 0.45 9.15 0.65 9.4 0.3 9.4 M-4.4 -7.1 L-4.7 -6.75 -7.75 -6.4 -7.6 -6.9 -4.4 -7.1 -2.85 -7.15 -2.5 -5.5 -2.95 -4.75 Q-2.95 -5.1 -3.3 -5.35 L-4.15 -5.65 -4.2 -6.6 -3.05 -7.0 -4.25 -6.8 -4.4 -7.1 M-4.9 -6.35 L-4.95 -5.8 Q-6.8 -5.25 -8.35 -3.9 L-9.4 -2.95 -10.05 -2.15 -8.3 -5.65 -4.9 -6.35 M-4.95 -5.7 L-4.9 -5.3 Q-6.7 -4.2 -8.05 -2.35 L-8.6 -1.5 -7.85 -3.2 -4.95 -5.7 M-5.55 -1.1 L-5.35 0.25 -6.25 0.85 -7.95 -0.3 -5.55 -1.1 M-1.95 -7.5 L-0.8 -8.2 -0.95 -7.05 -1.95 -7.5 M-6.95 -8.25 L-7.05 -8.25 -7.0 -8.3 -6.95 -8.25 M-9.5 -8.95 L-8.35 -10.2 -6.95 -11.3 -9.5 -8.95 M-9.9 -0.75 L-9.35 -0.7 -10.95 1.15 -10.55 -0.3 -9.9 -0.75 M-5.95 2.0 L-6.4 1.65 -4.9 1.0 -5.95 2.0 M-6.35 2.25 L-7.2 2.35 -8.0 2.0 -7.05 3.35 -8.5 3.2 -9.95 1.65 -9.0 -0.05 -8.25 1.35 -6.35 2.25 M-2.0 8.65 L-1.55 8.55 -1.05 8.75 -0.65 9.35 -2.15 9.3 -2.0 8.65 M-3.95 8.9 L-2.8 8.75 -2.95 9.25 -3.9 9.35 -3.95 8.9" fill="#ffffff" fill-rule="evenodd" stroke="none"/>
  </g>
</svg>
