<?xml version="1.0" encoding="UTF-8" standalone="no"?>
<svg xmlns:xlink="http://www.w3.org/1999/xlink" height="36.8px" width="26.6px" xmlns="http://www.w3.org/2000/svg">
  <g transform="matrix(1.0, 0.0, 0.0, 1.0, 13.45, 18.65)">
    <path d="M13.15 18.15 L-13.45 18.15 -13.45 -18.65 13.15 -18.65 13.15 18.15" fill="#000000" fill-rule="evenodd" stroke="none"/>
    <path d="M8.9 3.65 L8.8 3.8 8.9 3.5 8.9 3.65" fill="url(#gradient0)" fill-rule="evenodd" stroke="none"/>
    <path d="M3.85 -15.5 L4.15 -15.4 4.75 -15.15 7.0 -14.25 7.85 -8.1 8.2 -5.7 Q8.3 -5.1 8.85 -4.8 7.95 -3.2 6.5 -2.05 L4.35 -0.45 Q2.55 0.65 1.85 1.65 1.15 2.6 1.05 4.55 0.9 6.5 1.05 8.5 L1.2 12.8 1.2 13.65 1.25 13.9 1.95 13.85 2.55 13.55 2.5 13.5 4.9 12.35 6.5 10.9 6.7 10.75 7.1 10.35 7.55 9.85 9.6 7.25 9.15 8.1 7.95 9.8 5.25 13.15 Q3.4 15.1 0.55 15.2 L-0.6 1.7 Q2.25 0.35 4.4 -1.95 L6.9 -4.65 6.55 -6.5 Q4.5 -4.0 1.45 -3.2 L-1.4 -2.8 Q-3.3 -2.85 -5.05 -3.45 -7.0 -4.15 -8.8 -5.15 L-8.9 -3.7 -4.65 1.1 Q-4.05 7.15 -4.4 13.75 L-4.5 15.05 Q-5.8 14.45 -6.8 13.05 -7.8 11.65 -7.3 10.95 -6.45 13.1 -5.15 13.25 L-5.1 12.3 Q-4.75 8.75 -4.75 7.0 -4.8 5.25 -5.2 4.0 L-6.3 1.4 -7.4 -0.6 -9.75 -3.85 -9.25 -6.0 Q-6.85 -4.35 -4.0 -3.95 L-0.65 -3.45 0.75 -5.7 0.35 -5.45 0.65 -6.05 3.3 -8.45 3.75 -8.75 1.55 -9.35 3.3 -10.4 3.4 -10.55 1.65 -10.95 2.55 -12.1 0.85 -12.0 Q-0.4 -12.15 -1.3 -13.0 L-1.85 -13.55 Q-0.85 -15.75 1.35 -15.95 L3.85 -15.5" fill="url(#gradient1)" fill-rule="evenodd" stroke="none"/>
  </g>
  <defs>
    <radialGradient cx="0" cy="0" gradientTransform="matrix(2.0E-4, 0.0, 0.0, 2.0E-4, 8.85, 3.65)" gradientUnits="userSpaceOnUse" id="gradient0" r="819.2" spreadMethod="pad">
      <stop offset="0.3686274509803922" stop-color="#aeb8bf"/>
      <stop offset="0.41568627450980394" stop-color="#000000"/>
      <stop offset="1.0" stop-color="#c9dce0"/>
    </radialGradient>
    <radialGradient cx="0" cy="0" gradientTransform="matrix(0.0204, 0.0, 0.0, 0.0204, -0.05, -0.35)" gradientUnits="userSpaceOnUse" id="gradient1" r="819.2" spreadMethod="pad">
      <stop offset="0.3686274509803922" stop-color="#aeb8bf"/>
      <stop offset="0.41568627450980394" stop-color="#000000"/>
      <stop offset="1.0" stop-color="#c9dce0"/>
    </radialGradient>
  </defs>
</svg>
