<?xml version="1.0" encoding="UTF-8" standalone="no"?>
<svg xmlns:xlink="http://www.w3.org/1999/xlink" height="42.35px" width="34.35px" xmlns="http://www.w3.org/2000/svg">
  <g transform="matrix(1.0, 0.0, 0.0, 1.0, 0.0, 0.0)">
    <path d="M27.0 7.2 Q27.55 8.9 32.25 9.45 L31.35 9.6 Q27.9 9.6 26.85 8.15 26.45 7.6 26.45 6.45 L20.15 4.65 Q19.4 4.65 17.7 5.5 16.4 6.1 15.75 6.55 L16.05 7.45 Q16.05 8.2 15.4 8.75 14.45 9.6 13.9 10.8 L13.75 10.8 Q14.05 10.15 14.85 9.2 15.45 8.45 15.45 7.85 L15.3 7.2 15.1 6.55 Q15.1 5.4 17.75 4.7 L16.85 4.15 Q16.1 3.45 15.9 3.45 14.45 3.45 13.45 5.05 L12.25 6.6 11.05 6.4 11.1 6.0 Q12.45 5.45 14.65 3.55 16.65 2.4 18.7 4.45 L20.7 4.5 23.4 4.9 24.3 5.05 23.7 4.4 22.85 3.3 22.95 3.0 Q23.8 3.15 24.95 5.2 L25.0 5.25 Q26.55 5.75 26.95 6.95 27.1 5.75 26.0 3.85 L24.0 0.0 Q25.25 0.3 26.4 2.3 27.45 4.1 27.45 5.3 L27.2 7.2 27.0 7.2 M20.6 16.3 Q21.05 16.3 21.2 16.7 21.35 17.05 21.85 17.05 L22.6 16.7 Q23.2 16.3 24.15 16.3 25.1 16.3 26.0 17.5 L26.4 17.5 26.2 17.8 Q27.15 19.2 28.3 19.2 L29.9 18.15 Q31.55 17.1 33.15 17.1 33.75 17.1 34.35 17.5 L34.25 17.85 34.2 17.5 Q33.3 17.5 30.8 18.7 L28.4 19.9 Q27.0 19.9 25.75 18.35 L25.6 18.15 25.4 18.2 23.8 18.55 Q23.35 18.55 23.25 18.3 23.45 18.15 24.8 17.75 L25.25 17.65 24.75 16.8 Q23.25 16.8 22.85 17.2 L21.95 17.55 Q21.3 17.55 20.75 16.5 L20.1 16.65 Q19.75 16.65 19.25 16.25 L18.65 15.7 19.65 16.0 20.6 16.3 M25.2 32.25 Q26.9 33.3 27.1 34.25 L27.0 36.0 Q27.0 37.1 27.7 38.2 L29.3 40.65 28.95 40.95 26.4 36.9 26.45 36.8 24.5 35.4 24.6 35.15 24.6 35.1 25.75 35.65 26.55 36.15 26.6 34.2 Q26.6 33.8 25.8 33.35 25.0 32.9 24.95 32.25 L25.2 32.25 M25.35 38.45 Q26.25 39.9 25.95 40.65 L25.8 40.8 23.55 37.1 Q24.45 36.95 25.35 38.45 M18.0 36.3 L16.95 39.3 Q16.3 41.05 16.2 42.3 L16.05 42.35 Q15.9 42.15 15.9 41.45 15.9 40.4 16.35 38.8 16.95 36.45 18.0 36.3 M7.3 7.5 Q7.75 7.2 7.9 7.2 8.3 7.2 8.8 7.85 L9.3 8.7 8.75 8.15 Q8.4 7.8 7.95 7.8 L7.05 8.25 Q6.2 8.25 5.2 7.1 4.35 6.05 2.1 6.55 L1.95 6.3 1.95 6.1 Q4.35 5.4 5.4 6.5 6.05 7.8 6.45 7.8 L7.3 7.5 M10.95 32.0 L11.1 32.1 11.1 32.35 9.8 33.35 11.1 33.1 13.5 32.75 12.6 33.5 11.35 34.05 9.3 33.8 9.2 33.8 Q8.5 34.35 8.5 34.85 L8.65 35.25 8.8 35.55 9.0 35.55 8.55 36.25 8.45 36.5 Q9.55 35.7 11.5 34.65 L11.6 34.75 11.65 35.0 Q11.65 35.65 10.05 36.45 8.3 37.3 8.1 38.0 L7.65 39.5 Q7.3 40.5 6.55 41.0 L6.25 40.8 7.1 39.0 7.5 37.2 8.05 36.75 7.95 36.55 8.2 35.9 8.55 35.65 8.35 35.1 8.1 34.35 Q8.1 33.75 9.05 33.2 L10.95 32.0 M6.45 29.6 Q6.45 30.6 5.1 31.55 3.75 32.45 3.75 32.9 3.75 33.25 4.2 33.75 L4.45 34.1 Q5.7 33.1 6.6 33.0 L6.7 33.3 Q6.7 33.75 4.4 35.4 2.1 37.05 1.95 37.95 L1.8 37.95 1.65 37.05 Q1.65 36.55 3.45 34.9 L4.05 34.4 3.6 33.9 Q3.25 33.55 3.25 33.0 3.25 31.85 4.65 31.35 5.8 30.85 6.0 29.8 L4.6 28.55 Q3.85 27.75 3.85 26.85 3.85 25.3 2.35 24.75 0.25 24.0 0.0 23.7 2.25 23.5 3.5 24.5 4.5 25.25 4.45 26.15 L4.5 26.4 Q5.35 26.75 5.95 28.0 L6.2 28.6 6.45 29.35 6.45 29.45 6.45 29.6 M14.35 38.35 Q14.0 39.75 13.65 40.2 L13.45 40.1 13.35 39.8 13.65 37.9 13.95 36.15 13.95 36.0 Q14.65 35.95 14.65 36.85 L14.35 38.35" fill="#980101" fill-rule="evenodd" stroke="none"/>
  </g>
</svg>
