<?xml version="1.0" encoding="UTF-8" standalone="no"?>
<svg xmlns:xlink="http://www.w3.org/1999/xlink" height="32.7px" width="25.0px" xmlns="http://www.w3.org/2000/svg">
  <g transform="matrix(1.0, 0.0, 0.0, 1.0, 12.5, 18.6)">
    <path d="M8.1 -18.6 L9.65 -18.6 Q10.25 -17.65 10.65 -15.65 12.5 -11.8 12.5 -8.9 L12.45 -7.05 Q12.15 -5.85 11.25 -5.7 13.2 -13.15 8.1 -18.6 M-10.8 -18.6 L-5.35 -18.6 Q-8.65 -16.8 -10.85 -13.3 -12.45 -9.2 -12.15 -5.45 -12.55 -5.9 -12.5 -6.8 L-12.15 -13.35 -11.7 -15.0 Q-11.15 -15.95 -11.1 -16.5 L-10.85 -18.4 -10.8 -18.6 M-4.7 6.35 L-5.0 5.75 -3.45 7.35 Q-4.1 7.3 -4.7 6.35" fill="#000000" fill-rule="evenodd" stroke="none"/>
    <path d="M1.1 12.7 L1.15 12.7 1.35 12.7 1.25 12.75 1.1 12.75 1.1 12.7" fill="#cfb75a" fill-rule="evenodd" stroke="none"/>
    <path d="M3.4 10.6 L4.55 9.3 4.8 9.35 4.95 9.9 Q4.95 10.65 3.4 12.25 1.7 14.1 0.3 14.1 -0.85 14.1 -2.0 13.1 L-2.9 11.9 -2.75 11.6 -2.55 11.25 Q-3.8 9.25 -3.8 8.55 L-3.65 8.25 -3.45 7.9 -4.1 6.7 -0.65 10.35 -0.65 11.65 Q1.45 11.4 3.4 10.6" fill="#000000" fill-rule="evenodd" stroke="none"/>
  </g>
</svg>
