<?xml version="1.0" encoding="UTF-8" standalone="no"?>
<svg xmlns:xlink="http://www.w3.org/1999/xlink" height="36.9px" width="27.15px" xmlns="http://www.w3.org/2000/svg">
  <g transform="matrix(1.0, 0.0, 0.0, 1.0, 13.65, 18.85)">
    <path d="M13.45 -16.8 L13.1 -16.8 13.1 17.9 -13.5 17.9 -13.5 -7.05 -13.55 -7.05 -13.55 -18.6 -5.4 -18.6 Q-8.65 -16.8 -10.85 -13.3 -14.35 -4.45 -8.85 2.7 L-8.75 3.1 -7.7 5.05 -7.1 5.4 -5.35 5.45 -5.2 5.55 -0.65 10.35 -0.65 11.65 Q1.45 11.4 3.4 10.6 8.4 5.05 11.2 -1.15 L11.35 -2.6 11.25 -3.0 10.8 -3.5 10.4 -2.95 10.4 -2.85 Q10.4 -2.25 9.9 -2.2 L10.15 -3.1 10.5 -3.45 Q13.95 -12.35 8.1 -18.6 L13.45 -18.6 13.45 -16.8" fill="#000000" fill-rule="evenodd" stroke="none"/>
    <path d="M-7.9 5.0 L-8.0 5.0 -8.0 4.9 -7.9 5.0" fill="#ffffff" fill-rule="evenodd" stroke="none"/>
    <path d="M8.55 -18.85 L9.9 -18.85 Q11.8 -16.4 12.55 -13.65 L13.4 -15.2 13.5 -15.1 13.5 1.9 Q12.45 2.95 11.85 4.45 11.7 4.6 11.7 4.85 L11.95 5.25 13.1 6.3 13.5 6.7 13.5 9.55 12.9 11.15 Q10.7 11.6 9.75 13.6 L9.65 13.95 9.7 14.2 10.25 14.45 10.7 14.4 7.45 18.05 -5.7 18.05 Q-7.0 14.9 -9.9 13.55 L-11.65 11.4 -13.6 6.45 Q-11.95 5.7 -10.8 4.75 L-10.2 4.4 Q-10.0 2.9 -11.15 1.75 L-13.65 -0.75 -13.65 -1.95 Q-13.35 -1.85 -13.0 -2.3 L-13.0 -3.25 Q-13.45 -5.2 -13.4 -7.15 L-13.65 -8.3 -13.65 -12.9 -13.2 -11.7 -12.45 -13.6 -10.65 -18.6 -8.3 -18.6 -8.3 -18.5 -9.9 -16.75 -8.0 -18.6 -7.65 -18.85 -7.55 -18.85 -9.0 -17.55 -9.8 -13.75 -9.8 -11.55 -9.9 -11.2 -10.2 -8.85 -10.05 -7.45 -9.9 -6.85 -9.85 -6.85 -9.55 -6.65 Q-8.65 -7.45 -8.7 -9.5 L-8.75 -10.75 -5.65 -10.75 -4.9 -10.65 -4.1 -12.35 -3.8 -9.4 Q-3.5 -6.55 -4.2 -4.9 -3.85 -4.65 -3.65 -4.65 L-3.25 -4.65 -3.2 -10.4 -2.55 -9.85 -1.5 -8.45 0.0 -7.2 2.1 -9.4 2.65 -9.6 2.9 -9.7 2.7 -5.45 Q2.0 -5.25 1.9 -4.05 L2.3 -3.6 4.1 -1.55 4.65 -0.9 4.85 -1.05 4.8 -1.45 5.05 -1.45 4.95 -1.15 Q5.5 -1.75 5.6 -0.9 L5.85 -1.6 Q6.85 -1.9 7.55 -2.45 8.4 -3.3 8.4 -4.15 8.4 -4.7 7.6 -4.7 L3.55 -5.45 3.85 -8.6 3.85 -10.3 3.85 -13.35 4.0 -13.1 5.4 -11.05 6.65 -11.15 9.45 -11.05 9.65 -10.05 9.85 -9.35 9.45 -9.35 Q10.1 -7.05 10.2 -5.55 L10.65 -5.5 Q11.05 -5.5 10.75 -5.55 L11.05 -6.7 11.05 -6.8 11.05 -7.15 11.05 -7.45 11.05 -8.4 11.0 -8.75 10.75 -11.0 10.85 -11.0 10.6 -11.7 10.45 -12.45 9.75 -16.05 9.2 -17.8 8.55 -18.85 M2.95 -14.55 L3.0 -11.7 3.0 -11.0 2.3 -10.6 Q1.3 -10.1 -0.5 -10.1 -1.2 -10.1 -2.6 -10.8 L-3.2 -11.0 -3.2 -11.45 -3.2 -13.65 Q-2.2 -14.75 -0.95 -14.9 L2.3 -14.95 2.95 -14.55 M4.1 0.8 L4.2 0.35 3.85 -0.05 2.2 -2.1 1.85 -2.15 2.25 -0.65 2.55 0.2 2.3 0.1 1.6 1.55 1.3 2.1 1.55 1.95 2.85 1.65 Q3.5 1.65 3.7 2.1 L3.85 1.95 4.1 1.1 4.1 0.8 M0.45 -0.6 L0.6 -1.4 Q0.6 -3.75 -0.35 -3.8 -1.25 -3.95 -1.25 -1.05 -1.25 -0.25 -0.45 -0.25 L-0.25 -0.25 0.15 -0.35 0.45 -0.6 M6.45 -0.7 L6.15 -0.7 6.1 0.45 5.95 6.15 Q6.45 5.8 6.8 5.75 L6.9 3.7 6.9 3.25 6.8 0.95 6.45 -0.7 M11.55 -3.35 L11.95 -4.4 12.05 -4.7 11.8 -5.1 Q11.65 -3.9 11.15 -2.95 10.5 -1.7 9.3 -0.85 L8.4 -0.1 8.35 4.4 9.05 2.65 Q9.6 0.9 11.5 0.7 L11.55 0.7 12.35 -1.2 12.35 -1.25 12.45 -2.4 12.35 -2.85 11.85 -3.4 11.45 -2.8 11.8 -3.35 11.65 -3.6 11.55 -3.35 M11.3 -2.15 L10.9 -1.95 11.15 -2.95 11.25 -3.0 11.35 -2.6 11.3 -2.15 M11.0 10.25 Q10.15 9.3 9.0 10.75 L8.2 12.1 8.7 12.45 9.4 12.45 10.7 10.75 11.0 10.25 M1.8 4.8 L1.8 4.9 2.95 5.55 3.05 5.3 Q2.95 5.05 2.5 4.85 L1.8 4.8 M1.15 5.05 Q0.75 4.55 0.65 5.1 L1.45 6.1 1.55 5.7 1.15 5.05 M0.25 3.5 L0.45 4.3 0.75 3.2 0.45 2.75 Q0.25 2.9 0.25 3.5 M1.8 3.65 L2.1 3.15 2.0 2.75 Q1.05 3.0 1.05 3.95 L1.25 4.2 1.8 3.65 M3.55 2.9 L3.45 2.85 Q2.55 3.4 2.55 4.1 L3.2 3.6 3.6 3.05 3.55 2.9 M4.9 6.1 L4.85 6.2 4.8 6.55 4.8 6.75 4.75 7.0 4.8 6.95 5.3 6.6 5.3 6.4 5.15 6.05 4.9 6.1 M1.6 7.05 L-1.9 7.0 -2.05 7.05 -2.15 7.1 -2.3 7.2 -2.35 7.2 -2.75 7.4 -2.9 7.5 -2.4 7.85 -1.6 7.65 -0.4 7.6 Q0.9 7.6 2.3 8.2 L2.6 7.9 2.2 7.55 1.65 7.1 1.6 7.05 M9.35 8.0 L8.0 8.1 6.55 9.0 6.45 9.25 6.5 9.4 6.6 9.55 6.85 9.55 6.45 10.55 Q6.25 11.0 6.65 11.0 L6.85 11.35 7.3 11.7 Q8.3 11.25 8.9 10.1 L9.7 8.6 9.35 8.0 M5.45 13.4 Q4.95 13.6 4.55 13.9 L3.95 14.4 Q2.35 15.65 0.25 15.55 -1.35 15.4 -2.65 14.65 L-4.9 13.4 -5.5 13.35 -6.0 14.25 Q-3.9 16.75 -0.35 17.3 2.35 17.6 4.75 16.4 6.9 15.35 6.05 13.3 L5.45 13.4 M-13.15 -9.8 L-12.65 -11.95 -13.15 -9.9 -13.15 -9.8 M-7.9 5.0 L-7.75 4.8 Q-7.85 2.05 -8.2 -0.6 L-9.75 -1.25 Q-10.65 -1.75 -10.95 -2.5 L-11.8 -1.75 -12.0 -0.3 -12.0 -0.25 -11.8 0.1 -11.55 0.6 -11.0 0.6 Q-8.1 1.45 -8.0 4.9 L-8.0 5.0 -7.9 5.0 M-5.4 -1.45 Q-6.0 -1.45 -6.9 -0.85 -6.75 -0.7 -6.6 -0.7 L-5.6 -0.7 -5.6 -0.15 -5.3 -0.5 -4.8 -1.2 -4.7 -1.3 -2.65 -3.85 -2.3 -4.15 Q-2.45 -4.45 -2.75 -4.35 L-3.65 -4.6 -6.2 -4.7 Q-8.65 -4.7 -8.65 -3.45 -7.1 -1.9 -5.4 -1.45 M-4.85 -1.25 L-5.05 -1.4 -4.75 -1.35 -4.85 -1.25 M-2.7 0.85 L-2.1 -2.05 -2.4 -1.7 Q-3.55 -0.25 -4.35 0.45 -3.75 0.5 -3.35 1.15 L-3.25 1.3 Q-2.85 1.25 -2.15 1.55 L-0.85 2.2 -0.6 2.2 -2.05 0.5 -2.7 0.85 M-1.7 5.65 L-1.7 5.7 -1.25 5.95 Q-0.95 5.55 -0.95 5.0 L-1.0 4.85 Q-1.25 4.85 -1.5 5.2 L-1.7 5.65 M-1.95 4.9 L-2.1 4.75 -2.8 5.2 -2.4 5.35 -1.95 4.9 M-2.75 2.65 L-2.8 2.8 Q-2.3 3.95 -1.8 3.95 L-1.65 3.9 -1.65 3.8 -2.1 3.0 Q-2.35 2.6 -2.75 2.65 M-1.25 2.8 L-1.3 2.95 Q-0.8 4.15 -0.25 4.35 L-0.2 4.15 -0.55 3.45 -1.1 2.75 -1.25 2.8 M-0.15 6.05 L0.1 5.35 -0.1 4.95 -0.4 6.05 -0.15 6.05 M-5.4 2.25 Q-5.55 1.0 -6.0 0.3 L-6.05 0.35 -6.3 0.95 -6.3 1.15 -6.05 3.65 -5.6 5.8 -5.15 5.6 -5.15 4.4 -5.4 2.25 M-7.3 7.3 L-7.4 7.55 Q-7.05 9.45 -5.05 10.55 L-4.8 10.65 -4.55 9.85 Q-4.85 8.45 -6.0 7.7 L-6.55 7.3 Q-7.05 7.05 -7.3 7.3 M-9.05 8.75 L-9.35 8.95 Q-9.6 9.65 -8.8 10.3 L-7.65 11.3 -6.9 11.9 -6.5 11.45 -6.35 10.75 -7.9 9.15 -9.05 8.75 M-0.5 8.7 L1.8 8.6 Q0.65 8.25 -0.5 8.25 L-1.45 8.45 -1.05 8.7 -0.5 8.7 M-2.15 10.3 L-2.55 9.9 -2.25 11.85 -0.75 11.8 -1.1 11.45 -2.15 10.3 M-11.1 10.8 Q-10.45 12.5 -8.75 13.1 L-8.5 13.25 Q-7.9 12.1 -8.9 11.1 -9.65 10.4 -10.75 10.1 L-11.1 10.8" fill="#000000" fill-rule="evenodd" stroke="none"/>
    <path d="M11.55 -3.35 L11.65 -3.6 11.8 -3.35 11.45 -2.8 11.45 -2.7 11.3 -2.15 11.35 -2.6 11.25 -3.0 11.55 -3.35" fill="url(#gradient0)" fill-rule="evenodd" stroke="none"/>
    <path d="M13.5 6.7 L13.1 6.3 11.95 5.25 11.7 4.85 Q11.7 4.6 11.85 4.45 12.45 2.95 13.5 1.9 L13.5 6.7" fill="url(#gradient1)" fill-rule="evenodd" stroke="none"/>
    <path d="M11.0 10.25 L10.7 10.75 9.4 12.45 8.7 12.45 8.2 12.1 9.0 10.75 Q10.15 9.3 11.0 10.25" fill="url(#gradient2)" fill-rule="evenodd" stroke="none"/>
    <path d="M10.7 14.4 L10.25 14.45 9.7 14.2 9.65 13.95 9.75 13.6 Q10.7 11.6 12.9 11.15 L13.0 11.3 Q13.05 13.5 10.7 14.4" fill="url(#gradient3)" fill-rule="evenodd" stroke="none"/>
    <path d="M-2.15 10.3 L-1.1 11.45 -0.75 11.8 -2.25 11.85 -2.55 9.9 -2.15 10.3" fill="url(#gradient4)" fill-rule="evenodd" stroke="none"/>
    <path d="M9.35 8.0 L9.7 8.6 8.9 10.1 Q8.3 11.25 7.3 11.7 L6.85 11.35 6.65 11.0 Q6.25 11.0 6.45 10.55 L6.85 9.55 6.6 9.55 6.5 9.4 6.45 9.25 6.55 9.0 8.0 8.1 9.35 8.0" fill="url(#gradient5)" fill-rule="evenodd" stroke="none"/>
    <path d="M5.45 13.4 L6.05 13.3 Q6.9 15.35 4.75 16.4 2.35 17.6 -0.35 17.3 -3.9 16.75 -6.0 14.25 L-5.5 13.35 -4.9 13.4 -2.65 14.65 Q-1.35 15.4 0.25 15.55 2.35 15.65 3.95 14.4 L4.55 13.9 Q4.95 13.6 5.45 13.4" fill="url(#gradient6)" fill-rule="evenodd" stroke="none"/>
    <path d="M13.5 15.25 Q12.75 15.85 11.85 15.6 12.0 13.9 13.5 13.25 L13.5 15.25" fill="url(#gradient7)" fill-rule="evenodd" stroke="none"/>
    <path d="M-13.65 -0.75 L-11.15 1.75 Q-10.0 2.9 -10.2 4.4 L-10.8 4.75 Q-11.95 5.7 -13.6 6.45 L-13.65 6.5 -13.65 -0.75" fill="url(#gradient8)" fill-rule="evenodd" stroke="none"/>
    <path d="M-7.3 7.3 Q-7.05 7.05 -6.55 7.3 L-6.0 7.7 Q-4.85 8.45 -4.55 9.85 L-4.8 10.65 -5.05 10.55 Q-7.05 9.45 -7.4 7.55 L-7.3 7.3" fill="url(#gradient9)" fill-rule="evenodd" stroke="none"/>
    <path d="M-9.05 8.75 L-7.9 9.15 -6.35 10.75 -6.5 11.45 -6.9 11.9 -7.65 11.3 -8.8 10.3 Q-9.6 9.65 -9.35 8.95 L-9.05 8.75" fill="url(#gradient10)" fill-rule="evenodd" stroke="none"/>
    <path d="M-11.65 11.4 L-9.9 13.55 Q-9.6 13.95 -10.0 13.95 L-10.5 13.85 -11.7 13.4 Q-13.15 12.4 -12.5 11.0 L-11.65 11.4" fill="url(#gradient11)" fill-rule="evenodd" stroke="none"/>
    <path d="M-11.1 10.8 L-10.75 10.1 Q-9.65 10.4 -8.9 11.1 -7.9 12.1 -8.5 13.25 L-8.75 13.1 Q-10.45 12.5 -11.1 10.8" fill="url(#gradient12)" fill-rule="evenodd" stroke="none"/>
    <path d="M-12.85 14.65 Q-14.05 13.55 -13.1 12.8 L-12.7 13.15 Q-11.85 13.9 -11.95 14.95 -12.5 15.05 -12.85 14.65" fill="url(#gradient13)" fill-rule="evenodd" stroke="none"/>
    <path d="M-8.0 -18.6 L-9.9 -16.75 -8.3 -18.5 -8.2 -18.6 -8.0 -18.6" fill="url(#gradient14)" fill-rule="evenodd" stroke="none"/>
    <path d="M8.55 -18.85 L9.2 -17.8 9.75 -16.05 10.45 -12.45 10.6 -11.7 10.85 -11.0 10.75 -11.0 11.0 -8.75 11.05 -8.4 11.05 -7.45 11.05 -7.15 11.05 -6.8 11.05 -6.7 10.75 -5.55 Q11.05 -5.5 10.65 -5.5 L10.2 -5.55 Q10.1 -7.05 9.45 -9.35 L9.85 -9.35 9.65 -10.05 9.45 -11.05 6.65 -11.15 5.4 -11.05 4.0 -13.1 3.85 -13.35 3.85 -13.45 Q3.85 -17.3 3.4 -18.3 2.9 -16.9 2.9 -15.0 L2.95 -14.55 2.3 -14.95 -0.95 -14.9 Q-2.2 -14.75 -3.2 -13.65 L-3.2 -14.15 Q-3.2 -16.6 -3.65 -17.15 -4.6 -16.5 -4.3 -14.05 L-4.1 -12.35 -4.9 -10.65 -5.65 -10.75 -8.75 -10.75 -8.7 -9.5 Q-8.65 -7.45 -9.55 -6.65 L-9.85 -6.85 -9.9 -6.85 -10.05 -7.45 -10.2 -8.85 -9.9 -11.2 -9.8 -11.55 -9.8 -13.75 -9.0 -17.55 -7.55 -18.85 8.55 -18.85 M2.9 -9.7 L2.65 -9.6 2.1 -9.4 0.0 -7.2 -1.5 -8.45 -2.55 -9.85 -3.2 -10.4 -3.2 -11.0 -2.6 -10.8 Q-1.2 -10.1 -0.5 -10.1 1.3 -10.1 2.3 -10.6 L3.0 -11.0 2.9 -9.7 M-13.15 -9.8 L-13.15 -9.9 -12.65 -11.95 -13.15 -9.8" fill="url(#gradient15)" fill-rule="evenodd" stroke="none"/>
    <path d="M3.55 -5.45 L7.6 -4.7 Q8.4 -4.7 8.4 -4.15 8.4 -3.3 7.55 -2.45 6.85 -1.9 5.85 -1.6 L5.85 -1.75 5.75 -2.0 5.6 -2.1 5.05 -1.45 4.8 -1.45 4.85 -1.05 4.65 -0.9 4.1 -1.55 2.3 -3.6 1.9 -4.05 Q2.0 -5.25 2.7 -5.45 L2.7 -5.25 2.8 -3.9 3.2 -3.9 3.55 -5.45 M0.45 -0.6 L0.15 -0.35 -0.25 -0.25 -0.45 -0.25 Q-1.25 -0.25 -1.25 -1.05 -1.25 -3.95 -0.35 -3.8 0.6 -3.75 0.6 -1.4 L0.45 -0.6 M2.55 0.2 L2.25 -0.65 1.85 -2.15 2.2 -2.1 3.85 -0.05 4.2 0.35 4.1 0.8 3.5 0.5 2.55 0.2 M-5.4 -1.45 Q-7.1 -1.9 -8.65 -3.45 -8.65 -4.7 -6.2 -4.7 L-3.65 -4.6 -2.75 -4.35 Q-2.45 -4.45 -2.3 -4.15 L-2.65 -3.85 -4.7 -1.3 -4.75 -1.35 -5.05 -1.4 -5.4 -1.45" fill="url(#gradient16)" fill-rule="evenodd" stroke="none"/>
    <path d="M11.45 -2.8 L11.85 -3.4 12.35 -2.85 12.45 -2.4 12.35 -1.25 12.35 -1.2 11.55 0.7 11.5 0.7 Q9.6 0.9 9.05 2.65 L8.35 4.4 8.4 -0.1 9.3 -0.85 Q10.5 -1.7 11.15 -2.95 11.65 -3.9 11.8 -5.1 L12.05 -4.7 11.95 -4.4 11.55 -3.35 11.25 -3.0 11.15 -2.95 10.9 -1.95 11.3 -2.15 11.45 -2.7 11.45 -2.8" fill="url(#gradient17)" fill-rule="evenodd" stroke="none"/>
    <path d="M-8.0 4.9 Q-8.1 1.45 -11.0 0.6 L-11.55 0.6 -11.8 0.1 -12.0 -0.25 -12.0 -0.3 -11.8 -1.75 -10.95 -2.5 Q-10.65 -1.75 -9.75 -1.25 L-8.2 -0.6 Q-7.85 2.05 -7.75 4.8 L-7.9 5.0 -8.0 4.9" fill="url(#gradient18)" fill-rule="evenodd" stroke="none"/>
    <path d="M-4.7 -1.3 L-4.8 -1.2 -4.85 -1.25 -4.75 -1.35 -4.7 -1.3 M-3.35 1.15 Q-3.75 0.5 -4.35 0.45 -3.55 -0.25 -2.4 -1.7 L-2.1 -2.05 -2.7 0.85 -3.35 1.15" fill="url(#gradient19)" fill-rule="evenodd" stroke="none"/>
    <path d="M3.85 -13.35 L3.85 -10.3 3.85 -8.6 3.55 -5.45 3.2 -3.9 2.8 -3.9 2.7 -5.25 2.7 -5.45 2.9 -9.7 3.0 -11.0 3.0 -11.7 2.95 -14.55 2.9 -15.0 Q2.9 -16.9 3.4 -18.3 3.85 -17.3 3.85 -13.45 L3.85 -13.35" fill="url(#gradient20)" fill-rule="evenodd" stroke="none"/>
    <path d="M-3.2 -10.4 L-3.25 -4.65 -3.65 -4.65 Q-3.85 -4.65 -4.2 -4.9 -3.5 -6.55 -3.8 -9.4 L-4.1 -12.35 -4.3 -14.05 Q-4.6 -16.5 -3.65 -17.15 -3.2 -16.6 -3.2 -14.15 L-3.2 -13.65 -3.2 -11.45 -3.2 -11.0 -3.2 -10.4" fill="url(#gradient21)" fill-rule="evenodd" stroke="none"/>
    <path d="M6.45 -0.7 L6.8 0.95 6.9 3.25 6.9 3.7 6.8 5.75 Q6.45 5.8 5.95 6.15 L6.1 0.45 6.15 -0.7 6.45 -0.7 M3.55 2.9 L3.6 3.05 3.2 3.6 2.55 4.1 Q2.55 3.4 3.45 2.85 L3.55 2.9 M1.8 3.65 L1.25 4.2 1.05 3.95 Q1.05 3.0 2.0 2.75 L2.1 3.15 1.8 3.65 M0.25 3.5 Q0.25 2.9 0.45 2.75 L0.75 3.2 0.45 4.3 0.25 3.5 M1.15 5.05 L1.55 5.7 1.45 6.1 0.65 5.1 Q0.75 4.55 1.15 5.05 M1.8 4.8 L2.5 4.85 Q2.95 5.05 3.05 5.3 L2.95 5.55 1.8 4.9 1.8 4.8 M-1.25 2.8 L-1.1 2.75 -0.55 3.45 -0.2 4.15 -0.25 4.35 Q-0.8 4.15 -1.3 2.95 L-1.25 2.8 M-2.75 2.65 Q-2.35 2.6 -2.1 3.0 L-1.65 3.8 -1.65 3.9 -1.8 3.95 Q-2.3 3.95 -2.8 2.8 L-2.75 2.65 M-1.95 4.9 L-2.4 5.35 -2.8 5.2 -2.1 4.75 -1.95 4.9 M-1.7 5.65 L-1.5 5.2 Q-1.25 4.85 -1.0 4.85 L-0.95 5.0 Q-0.95 5.55 -1.25 5.95 L-1.7 5.7 -1.7 5.65 M-0.15 6.05 L-0.4 6.05 -0.1 4.95 0.1 5.35 -0.15 6.05 M-5.4 2.25 L-5.15 4.4 -5.15 5.6 -5.6 5.8 -6.05 3.65 -6.3 1.15 -6.3 0.95 -6.05 0.35 -6.0 0.3 Q-5.55 1.0 -5.4 2.25" fill="#930f0f" fill-rule="evenodd" stroke="none"/>
    <path d="M5.85 -1.6 L5.6 -0.9 Q5.5 -1.75 4.95 -1.15 L5.05 -1.45 5.6 -2.1 5.75 -2.0 5.85 -1.75 5.85 -1.6 M4.85 6.2 L4.9 6.1 5.15 6.05 5.3 6.4 5.3 6.6 4.8 6.95 4.75 7.0 4.8 6.75 4.8 6.55 4.85 6.2 M-4.8 -1.2 L-5.3 -0.5 -5.6 -0.15 -5.6 -0.7 -6.6 -0.7 Q-6.75 -0.7 -6.9 -0.85 -6.0 -1.45 -5.4 -1.45 L-5.05 -1.4 -4.85 -1.25 -4.8 -1.2" fill="url(#gradient22)" fill-rule="evenodd" stroke="none"/>
    <path d="M4.1 0.8 L4.1 1.1 3.85 1.95 3.7 2.1 Q3.5 1.65 2.85 1.65 L1.55 1.95 1.3 2.1 1.6 1.55 2.3 0.1 2.55 0.2 3.5 0.5 4.1 0.8 M4.85 6.2 L4.9 6.1 4.85 6.2 M1.6 7.05 L1.65 7.1 2.2 7.55 2.6 7.9 2.3 8.2 Q0.9 7.6 -0.4 7.6 L-1.6 7.65 -2.4 7.85 -2.9 7.5 -2.75 7.4 -2.35 7.2 -2.3 7.2 -2.15 7.1 -2.05 7.05 -1.9 7.0 1.6 7.05 M-3.35 1.15 L-2.7 0.85 -2.05 0.5 -0.6 2.2 -0.85 2.2 -2.15 1.55 Q-2.85 1.25 -3.25 1.3 L-3.35 1.15 M-0.5 8.7 L-1.05 8.7 -1.45 8.45 -0.5 8.25 Q0.65 8.25 1.8 8.6 L-0.5 8.7" fill="url(#gradient23)" fill-rule="evenodd" stroke="none"/>
  </g>
  <defs>
    <linearGradient gradientTransform="matrix(-0.0039, 0.0039, -0.0017, -0.0017, 7.15, 1.3)" gradientUnits="userSpaceOnUse" id="gradient0" spreadMethod="pad" x1="-819.2" x2="819.2">
      <stop offset="0.0" stop-color="#000000"/>
      <stop offset="0.8980392156862745" stop-color="#474541"/>
    </linearGradient>
    <linearGradient gradientTransform="matrix(-0.0024, -0.0014, 0.0021, -0.0037, 13.0, 2.7)" gradientUnits="userSpaceOnUse" id="gradient1" spreadMethod="pad" x1="-819.2" x2="819.2">
      <stop offset="0.0" stop-color="#000000"/>
      <stop offset="0.8980392156862745" stop-color="#bc2121"/>
    </linearGradient>
    <linearGradient gradientTransform="matrix(-6.0E-4, -0.0011, 0.0019, -0.0011, 9.1, 10.3)" gradientUnits="userSpaceOnUse" id="gradient2" spreadMethod="pad" x1="-819.2" x2="819.2">
      <stop offset="0.0" stop-color="#000000"/>
      <stop offset="0.8980392156862745" stop-color="#474541"/>
    </linearGradient>
    <linearGradient gradientTransform="matrix(-4.0E-4, -7.0E-4, 0.0024, -0.0013, 11.1, 12.4)" gradientUnits="userSpaceOnUse" id="gradient3" spreadMethod="pad" x1="-819.2" x2="819.2">
      <stop offset="0.0" stop-color="#000000"/>
      <stop offset="0.8980392156862745" stop-color="#474541"/>
    </linearGradient>
    <linearGradient gradientTransform="matrix(0.0, -0.0054, 0.0044, 0.0, 0.4, 6.15)" gradientUnits="userSpaceOnUse" id="gradient4" spreadMethod="pad" x1="-819.2" x2="819.2">
      <stop offset="0.0" stop-color="#000000"/>
      <stop offset="0.8980392156862745" stop-color="#474541"/>
    </linearGradient>
    <linearGradient gradientTransform="matrix(-5.0E-4, -9.0E-4, 0.0023, -0.0013, 7.4, 8.4)" gradientUnits="userSpaceOnUse" id="gradient5" spreadMethod="pad" x1="-819.2" x2="819.2">
      <stop offset="0.0" stop-color="#000000"/>
      <stop offset="0.8980392156862745" stop-color="#474541"/>
    </linearGradient>
    <linearGradient gradientTransform="matrix(0.0, -0.0027, 0.0075, 0.0, 0.1, 14.15)" gradientUnits="userSpaceOnUse" id="gradient6" spreadMethod="pad" x1="-819.2" x2="819.2">
      <stop offset="0.0" stop-color="#000000"/>
      <stop offset="0.8980392156862745" stop-color="#bc2121"/>
    </linearGradient>
    <linearGradient gradientTransform="matrix(-6.0E-4, -0.0011, 0.002, -0.0012, 12.85, 13.65)" gradientUnits="userSpaceOnUse" id="gradient7" spreadMethod="pad" x1="-819.2" x2="819.2">
      <stop offset="0.0" stop-color="#000000"/>
      <stop offset="0.8980392156862745" stop-color="#474541"/>
    </linearGradient>
    <linearGradient gradientTransform="matrix(0.0025, -0.0025, 0.0037, 0.0037, -12.4, 0.45)" gradientUnits="userSpaceOnUse" id="gradient8" spreadMethod="pad" x1="-819.2" x2="819.2">
      <stop offset="0.0" stop-color="#000000"/>
      <stop offset="0.8980392156862745" stop-color="#bc2121"/>
    </linearGradient>
    <linearGradient gradientTransform="matrix(6.0E-4, -6.0E-4, 0.0018, 0.0018, -5.6, 8.3)" gradientUnits="userSpaceOnUse" id="gradient9" spreadMethod="pad" x1="-819.2" x2="819.2">
      <stop offset="0.0" stop-color="#000000"/>
      <stop offset="0.8980392156862745" stop-color="#474541"/>
    </linearGradient>
    <linearGradient gradientTransform="matrix(3.0E-4, -5.0E-4, 0.002, 0.0012, -7.7, 9.85)" gradientUnits="userSpaceOnUse" id="gradient10" spreadMethod="pad" x1="-819.2" x2="819.2">
      <stop offset="0.0" stop-color="#000000"/>
      <stop offset="0.8980392156862745" stop-color="#474541"/>
    </linearGradient>
    <linearGradient gradientTransform="matrix(9.0E-4, -5.0E-4, 0.0012, 0.0021, -10.8, 12.2)" gradientUnits="userSpaceOnUse" id="gradient11" spreadMethod="pad" x1="-819.2" x2="819.2">
      <stop offset="0.0" stop-color="#000000"/>
      <stop offset="0.8980392156862745" stop-color="#474541"/>
    </linearGradient>
    <linearGradient gradientTransform="matrix(5.0E-4, -5.0E-4, 0.0017, 0.0017, -9.05, 11.05)" gradientUnits="userSpaceOnUse" id="gradient12" spreadMethod="pad" x1="-819.2" x2="819.2">
      <stop offset="0.0" stop-color="#000000"/>
      <stop offset="0.8980392156862745" stop-color="#474541"/>
    </linearGradient>
    <linearGradient gradientTransform="matrix(3.0E-4, -5.0E-4, 0.0012, 7.0E-4, -12.4, 13.4)" gradientUnits="userSpaceOnUse" id="gradient13" spreadMethod="pad" x1="-819.2" x2="819.2">
      <stop offset="0.0" stop-color="#000000"/>
      <stop offset="0.8980392156862745" stop-color="#474541"/>
    </linearGradient>
    <linearGradient gradientTransform="matrix(0.0023, 0.0084, -0.014, 0.0037, 0.0, -9.5)" gradientUnits="userSpaceOnUse" id="gradient14" spreadMethod="pad" x1="-819.2" x2="819.2">
      <stop offset="0.0" stop-color="#000000"/>
      <stop offset="0.8784313725490196" stop-color="#537170"/>
    </linearGradient>
    <linearGradient gradientTransform="matrix(0.0025, 0.0092, -0.0154, 0.0041, 0.0, -10.0)" gradientUnits="userSpaceOnUse" id="gradient15" spreadMethod="pad" x1="-819.2" x2="819.2">
      <stop offset="0.0" stop-color="#000000"/>
      <stop offset="0.8784313725490196" stop-color="#537170"/>
    </linearGradient>
    <linearGradient gradientTransform="matrix(0.0, -0.0045, 0.0019, 0.0, 3.4, -1.85)" gradientUnits="userSpaceOnUse" id="gradient16" spreadMethod="pad" x1="-819.2" x2="819.2">
      <stop offset="0.0" stop-color="#000000"/>
      <stop offset="0.8470588235294118" stop-color="#ca2424"/>
      <stop offset="1.0" stop-color="#ff2222"/>
    </linearGradient>
    <linearGradient gradientTransform="matrix(-0.0043, 0.0043, -0.0018, -0.0018, 7.85, 1.9)" gradientUnits="userSpaceOnUse" id="gradient17" spreadMethod="pad" x1="-819.2" x2="819.2">
      <stop offset="0.0" stop-color="#000000"/>
      <stop offset="0.8980392156862745" stop-color="#474541"/>
    </linearGradient>
    <linearGradient gradientTransform="matrix(0.0029, 7.0E-4, -0.001, 0.0038, -9.0, 1.35)" gradientUnits="userSpaceOnUse" id="gradient18" spreadMethod="pad" x1="-819.2" x2="819.2">
      <stop offset="0.0" stop-color="#000000"/>
      <stop offset="0.8980392156862745" stop-color="#474541"/>
    </linearGradient>
    <linearGradient gradientTransform="matrix(0.0, -0.0048, 0.002, 0.0, -3.75, -1.9)" gradientUnits="userSpaceOnUse" id="gradient19" spreadMethod="pad" x1="-819.2" x2="819.2">
      <stop offset="0.0" stop-color="#000000"/>
      <stop offset="0.8470588235294118" stop-color="#ca2424"/>
      <stop offset="1.0" stop-color="#ff2222"/>
    </linearGradient>
    <linearGradient gradientTransform="matrix(0.0, 0.0072, -7.0E-4, 0.0, 3.25, -9.6)" gradientUnits="userSpaceOnUse" id="gradient20" spreadMethod="pad" x1="-819.2" x2="819.2">
      <stop offset="0.19607843137254902" stop-color="#000000"/>
      <stop offset="0.9098039215686274" stop-color="#bc2121"/>
    </linearGradient>
    <linearGradient gradientTransform="matrix(0.0, 0.0036, -7.0E-4, 0.0, -3.75, -10.8)" gradientUnits="userSpaceOnUse" id="gradient21" spreadMethod="pad" x1="-819.2" x2="819.2">
      <stop offset="0.19607843137254902" stop-color="#000000"/>
      <stop offset="0.9098039215686274" stop-color="#bc2121"/>
    </linearGradient>
    <linearGradient gradientTransform="matrix(1.0991, 0.0, 0.0, 1.0991, 0.0, 0.45)" gradientUnits="userSpaceOnUse" id="gradient22" spreadMethod="pad" x1="-819.2" x2="819.2">
      <stop offset="0.0" stop-color="#000000"/>
      <stop offset="0.8980392156862745" stop-color="#000000"/>
    </linearGradient>
    <linearGradient gradientTransform="matrix(1.0991, 0.0, 0.0, 1.0991, 0.0, 0.45)" gradientUnits="userSpaceOnUse" id="gradient23" spreadMethod="pad" x1="-819.2" x2="819.2">
      <stop offset="0.0" stop-color="#000000"/>
      <stop offset="0.8980392156862745" stop-color="#615e5a"/>
    </linearGradient>
  </defs>
</svg>
