<?xml version="1.0" encoding="UTF-8" standalone="no"?>
<svg xmlns:xlink="http://www.w3.org/1999/xlink" height="37.0px" width="26.8px" xmlns="http://www.w3.org/2000/svg">
  <g transform="matrix(1.0, 0.0, 0.0, 1.0, 13.35, 18.65)">
    <path d="M13.3 -18.1 L13.3 18.35 -13.35 18.35 -13.35 -18.1 13.3 -18.1" fill="#000000" fill-rule="evenodd" stroke="none"/>
    <path d="M8.85 -13.2 L8.9 -13.3 8.25 -14.1 8.25 -14.05 8.85 -13.2 M8.9 -15.6 Q10.85 -13.2 10.85 -11.5 L10.65 -10.75 11.35 -9.85 11.1 -9.5 9.6 -10.65 Q9.0 -10.8 8.4 -11.2 L8.05 -11.45 6.95 -11.65 5.9 -11.6 5.0 -11.4 Q-0.95 -15.8 -8.2 -16.15 L-8.85 -16.15 -4.55 -16.3 Q-3.1 -16.3 -2.9 -17.15 L-2.95 -17.95 -3.0 -18.0 -3.0 -18.1 5.95 -18.1 Q7.6 -17.25 8.9 -15.6" fill="#000000" fill-rule="evenodd" stroke="none"/>
    <path d="M1.1 11.9 L1.05 11.95 0.9 11.95 0.9 11.9 0.95 11.9 1.1 11.9" fill="#cfb75a" fill-rule="evenodd" stroke="none"/>
    <path d="M7.45 -9.65 L7.5 -9.7 Q9.95 -10.7 11.15 -10.75 9.9 -12.7 8.5 -16.7 L7.3 -18.65 11.8 -18.65 13.05 -17.15 13.45 -16.5 13.45 -11.25 11.2 -14.6 11.1 -14.6 11.0 -13.4 Q11.0 -12.55 13.35 -8.35 L13.45 -8.15 13.45 -5.75 11.7 -9.65 Q10.45 -9.75 7.95 -8.5 L7.35 -8.2 6.85 -7.9 Q3.5 -6.2 2.5 -6.2 L1.95 -6.3 1.8 -6.95 6.8 -9.4 7.45 -9.65 M9.45 -7.55 L9.95 -7.2 Q11.65 -6.0 11.65 -5.2 L11.6 -4.8 11.45 -4.75 9.8 -6.05 9.2 -6.45 7.95 -7.15 7.0 -7.7 7.45 -7.95 Q8.3 -8.2 9.45 -7.55 M9.75 -4.75 Q9.75 -4.3 9.05 -3.75 8.2 -3.1 7.05 -3.1 L5.8 -3.35 Q5.35 -3.6 5.4 -4.15 5.4 -5.6 7.6 -5.55 9.75 -5.55 9.75 -4.75 M-8.15 -18.65 L-6.1 -18.65 Q-8.35 -15.8 -10.8 -10.3 L-12.8 -5.65 -12.8 -11.35 Q-12.8 -13.05 -11.85 -16.35 L-10.95 -18.65 -10.0 -18.65 -10.2 -17.9 -10.2 -17.75 -8.15 -18.65 M-7.5 -2.85 Q-9.35 -2.85 -10.1 -3.7 L-10.45 -4.45 Q-10.45 -5.9 -7.95 -5.7 -5.45 -5.5 -5.45 -4.0 -5.45 -2.85 -7.5 -2.85" fill="#000000" fill-rule="evenodd" stroke="none"/>
    <path d="M7.95 -8.5 Q8.9 -8.3 9.45 -7.55 8.3 -8.2 7.45 -7.95 L6.85 -7.9 7.35 -8.2 7.95 -8.5 M9.2 -6.45 L5.45 -5.95 Q6.95 -6.95 7.95 -7.15 L9.2 -6.45 M6.8 -9.4 L3.95 -8.6 1.85 -8.05 3.75 -9.25 Q5.7 -10.2 7.2 -9.75 L7.45 -9.65 6.8 -9.4 M0.95 -12.8 L0.95 -12.75 -7.0 -12.35 -5.85 -13.9 Q-5.15 -13.5 -4.1 -13.25 L0.95 -12.8 M6.9 -11.4 L5.25 -11.0 Q4.3 -10.65 3.9 -10.65 3.25 -10.65 1.45 -11.75 L7.25 -11.95 7.7 -11.35 6.9 -11.4 M1.4 -16.95 L2.15 -17.0 2.9 -16.7 4.85 -15.75 5.65 -14.5 5.1 -14.7 Q4.65 -15.45 3.4 -15.45 0.55 -15.45 -2.95 -16.75 L-3.4 -16.85 -2.4 -17.7 -1.95 -17.55 Q-0.7 -16.95 1.4 -16.95 M-8.75 -9.85 L-8.5 -10.3 -7.6 -11.5 -2.35 -11.65 0.7 -11.75 0.5 -10.6 0.55 -10.25 Q-0.15 -10.75 -0.75 -10.75 L-1.25 -10.6 Q-1.3 -11.35 -2.35 -11.4 L-5.35 -10.95 -8.7 -9.75 -8.75 -9.85 M0.7 -8.45 L1.3 -7.95 1.85 -7.2 1.85 -7.1 1.55 -7.05 Q0.8 -7.05 0.6 -8.2 L0.7 -8.45 M1.0 -9.25 L-3.3 -9.55 -4.0 -10.25 -2.65 -10.2 2.4 -9.6 2.3 -9.25 1.0 -9.25 M2.55 -4.45 L2.6 -4.35 2.65 -4.25 Q2.1 -3.35 1.65 -1.85 1.65 -1.0 1.9 -0.2 1.05 0.35 1.3 1.55 1.55 3.25 0.2 3.1 L0.65 3.9 0.85 4.1 -0.3 4.65 -1.15 3.05 -1.35 2.65 -1.35 2.3 Q-1.35 1.4 -2.05 -1.05 L-2.5 -2.65 -2.75 -3.2 -3.2 -4.6 -2.7 -4.4 -2.4 -4.9 Q-2.05 -3.5 -1.65 -3.25 L-1.2 -3.5 Q-1.15 -5.3 -1.6 -6.65 L-1.45 -6.95 -1.25 -6.35 -0.45 -4.0 Q0.1 -4.0 -0.25 -4.15 L0.1 -5.25 0.1 -6.65 Q0.45 -5.45 0.95 -4.6 L1.3 -4.8 1.4 -5.95 1.35 -6.4 1.55 -6.0 2.1 -5.25 Q1.55 -4.85 1.1 -3.9 0.35 -2.3 0.35 -1.5 0.35 -0.95 0.7 -0.65 L2.5 -4.3 2.55 -4.45 M5.05 -1.85 L5.15 -1.9 Q7.15 0.55 8.95 0.55 L9.45 0.4 9.4 0.8 10.3 0.6 11.75 0.55 11.75 0.6 10.65 2.45 9.85 2.6 Q7.45 3.25 7.4 5.25 6.5 4.9 6.15 4.1 L5.65 3.6 4.75 2.5 4.95 1.6 Q4.95 0.95 3.35 0.1 L3.55 -0.25 3.55 -0.2 4.2 -0.5 5.5 0.65 Q7.15 1.9 8.05 1.9 L8.45 1.8 8.45 1.5 6.35 -0.1 4.9 -1.0 5.05 -1.85 M10.15 -2.4 L9.85 -1.45 8.95 -1.05 Q8.05 -1.05 7.0 -2.0 L8.95 -1.8 Q9.85 -1.8 10.0 -2.5 L10.15 -2.4 M10.25 4.2 L10.3 4.5 9.85 7.7 9.15 10.65 9.05 10.6 9.0 10.25 9.9 4.25 10.2 4.25 10.25 4.2 M9.05 5.0 L7.9 8.95 6.55 12.9 6.2 12.65 8.65 4.35 8.85 4.35 Q9.05 4.55 9.05 5.0 M5.6 7.2 L5.1 6.4 Q4.8 6.05 4.5 6.1 L4.7 7.5 3.9 7.35 3.5 6.55 3.05 5.95 Q3.9 5.1 3.9 4.5 3.9 4.1 3.55 3.95 L3.65 3.85 5.25 6.25 5.8 7.15 5.6 7.2 M2.95 1.4 L3.6 1.8 Q3.0 1.65 3.0 2.8 L3.05 2.85 2.15 3.5 2.95 1.4 M1.7 11.85 L4.6 10.9 5.3 10.65 5.35 10.7 5.45 11.1 Q5.45 11.95 3.4 12.4 2.8 12.4 1.7 11.85 M0.35 10.0 L2.1 9.75 4.2 9.4 0.15 10.65 Q-0.65 10.65 -2.55 9.75 L-2.7 9.7 -2.55 9.7 -2.45 9.7 -1.1 9.65 Q-0.7 10.0 0.35 10.0 M1.35 7.25 L2.3 6.55 2.7 7.35 1.35 7.25 M3.1 13.7 L4.4 14.0 4.45 14.15 4.95 14.3 4.4 14.85 Q3.2 16.1 -0.8 16.2 L-0.85 16.5 -1.25 16.65 Q-1.8 16.65 -3.85 15.5 -4.85 14.9 -5.75 14.4 -5.75 14.2 -5.25 14.25 -6.55 13.25 -8.4 10.4 -10.5 7.05 -10.5 5.5 L-10.45 5.25 -5.05 14.25 -3.65 14.65 -3.35 14.75 -3.85 14.35 -2.8 13.85 -2.5 13.65 -1.95 13.7 Q-1.3 14.85 -0.85 14.85 -0.3 14.85 -0.45 14.7 L-0.4 14.25 Q-0.75 13.5 -1.3 13.15 L-1.05 13.05 -0.25 13.25 -0.35 13.55 Q-0.3 14.45 0.35 14.45 0.9 14.45 0.7 14.25 L0.7 13.5 1.7 13.65 Q1.45 14.0 1.45 14.75 L1.5 15.1 1.75 15.1 2.2 14.5 2.5 13.75 2.5 13.7 2.65 13.7 3.1 13.7 M-5.25 -14.7 L-5.25 -14.8 -4.55 -15.65 -2.85 -15.2 0.45 -14.45 -3.05 -14.65 -5.25 -14.7 M-8.9 -1.9 L-9.8 -1.85 -11.4 -2.25 -11.35 -2.3 -11.15 -2.4 -8.95 -2.0 -8.9 -1.9 M-11.9 -1.85 L-11.45 -2.2 -11.15 -1.35 -10.8 -0.85 -10.85 -0.65 -10.95 -0.65 -11.9 -1.85 M-3.9 -6.95 L-3.9 -6.9 -5.9 -8.45 -5.75 -8.55 -3.9 -6.95 M-1.6 -8.15 L-4.7 -8.5 Q-7.05 -8.85 -7.55 -9.15 L-0.95 -8.45 Q-1.15 -8.15 -1.6 -8.15 M-9.55 -6.5 Q-9.55 -8.35 -7.45 -7.6 -5.5 -6.95 -4.6 -5.65 L-4.6 -5.55 -5.05 -5.5 -5.8 -6.15 Q-6.45 -6.9 -7.3 -6.9 L-9.4 -6.35 -9.55 -6.5 M-6.1 -0.35 L-6.15 -0.55 -5.25 -1.95 -4.2 -3.05 -4.1 -2.5 -6.1 -0.35 M-3.45 -0.2 L-3.35 -0.2 -3.3 -0.05 -2.55 1.95 -2.75 1.95 Q-3.55 1.95 -3.55 2.7 L-3.45 3.25 -3.6 3.25 Q-4.45 2.6 -4.45 1.9 -4.45 1.05 -3.45 -0.2 M-4.55 -0.3 L-4.55 -0.25 Q-5.4 1.45 -5.4 2.45 L-5.15 3.1 -6.95 4.85 -7.05 4.7 -7.15 4.35 -7.25 4.4 -7.45 4.55 -7.6 4.15 -8.6 4.9 Q-9.0 3.75 -10.25 3.1 -11.1 2.65 -11.5 2.75 L-11.8 2.4 -12.0 2.2 -12.1 2.0 -12.0 1.55 Q-12.1 1.4 -11.5 1.4 -11.25 1.4 -10.9 1.65 L-10.25 1.9 -7.6 1.05 -7.15 0.95 -8.85 2.9 -8.7 3.1 -8.3 3.15 Q-7.3 3.15 -5.3 0.6 L-4.55 -0.3 M-8.75 0.95 L-8.95 0.3 -8.0 -0.05 -8.4 0.5 -8.75 0.95 M-4.6 3.95 L-3.75 4.55 -2.4 6.0 -0.9 7.35 -2.0 7.5 -3.3 7.8 -3.2 6.95 -2.6 6.05 -4.0 6.2 -4.45 7.2 -4.1 8.0 -5.6 8.3 -5.35 6.05 -5.45 5.6 -5.6 5.55 -4.6 3.95 M-6.65 7.0 L-6.6 7.0 -6.65 7.85 -6.6 8.5 -7.4 8.65 -7.3 8.05 -6.65 7.0 M-3.85 11.5 L-4.75 10.8 -4.5 10.25 -4.25 9.95 -2.85 10.95 -1.55 11.6 -3.75 11.55 -3.85 11.5" fill="url(#gradient0)" fill-rule="evenodd" stroke="none"/>
    <path d="M0.95 -12.75 L0.95 -12.8 1.55 -12.75 0.95 -12.75" fill="url(#gradient1)" fill-rule="evenodd" stroke="none"/>
    <path d="M5.05 -1.85 L5.05 -2.1 5.15 -1.9 5.05 -1.85 M11.75 0.55 L11.85 0.55 11.75 0.6 11.75 0.55" fill="url(#gradient2)" fill-rule="evenodd" stroke="none"/>
    <path d="M10.15 -2.4 L10.0 -2.5 10.2 -2.55 10.15 -2.4" fill="url(#gradient3)" fill-rule="evenodd" stroke="none"/>
    <path d="M12.9 5.8 L12.95 5.75 13.0 6.0 12.9 5.8" fill="url(#gradient4)" fill-rule="evenodd" stroke="none"/>
    <path d="M5.6 7.2 L5.8 7.15 6.45 8.05 5.95 7.85 5.6 7.2" fill="url(#gradient5)" fill-rule="evenodd" stroke="none"/>
    <path d="M5.7 10.6 L5.45 10.6 5.9 10.4 5.7 10.6" fill="url(#gradient6)" fill-rule="evenodd" stroke="none"/>
    <path d="M-5.25 -14.7 L-5.3 -14.7 -5.25 -14.8 -5.25 -14.7" fill="url(#gradient7)" fill-rule="evenodd" stroke="none"/>
    <path d="M-10.5 -5.9 L-10.45 -6.0 -10.4 -5.95 -10.5 -5.9" fill="url(#gradient8)" fill-rule="evenodd" stroke="none"/>
    <path d="M-1.65 -10.45 L-1.3 -10.55 -1.45 -10.25 -1.65 -10.45" fill="url(#gradient9)" fill-rule="evenodd" stroke="none"/>
    <path d="M-0.5 -8.85 L-0.6 -8.9 -0.5 -9.0 -0.5 -8.85" fill="url(#gradient10)" fill-rule="evenodd" stroke="none"/>
    <path d="M-8.75 -9.85 L-8.7 -9.75 -8.8 -9.7 -8.75 -9.85" fill="url(#gradient11)" fill-rule="evenodd" stroke="none"/>
    <path d="M-9.4 -6.35 L-9.45 -6.25 -9.55 -6.5 -9.4 -6.35" fill="url(#gradient12)" fill-rule="evenodd" stroke="none"/>
    <path d="M-8.9 -1.9 L-8.95 -2.0 -8.35 -2.0 -8.9 -1.9" fill="url(#gradient13)" fill-rule="evenodd" stroke="none"/>
    <path d="M-6.15 -0.55 L-6.1 -0.35 -6.85 0.6 -6.15 -0.55" fill="url(#gradient14)" fill-rule="evenodd" stroke="none"/>
    <path d="M-4.55 -0.3 L-4.3 -0.55 -4.55 -0.25 -4.55 -0.3 M-6.95 4.85 L-7.05 5.0 -7.05 4.7 -6.95 4.85" fill="url(#gradient15)" fill-rule="evenodd" stroke="none"/>
    <path d="M-3.45 -0.2 L-3.4 -0.25 -3.35 -0.2 -3.45 -0.2" fill="url(#gradient16)" fill-rule="evenodd" stroke="none"/>
  </g>
  <defs>
    <radialGradient cx="0" cy="0" gradientTransform="matrix(0.026, 0.0, 0.0, 0.0266, 0.1, -6.65)" gradientUnits="userSpaceOnUse" id="gradient0" r="819.2" spreadMethod="pad">
      <stop offset="0.10196078431372549" stop-color="#e4dac5"/>
      <stop offset="0.41568627450980394" stop-color="#c0a872"/>
      <stop offset="1.0" stop-color="#3c5155"/>
    </radialGradient>
    <radialGradient cx="0" cy="0" gradientTransform="matrix(0.0052, 0.0, 0.0, 0.0053, -2.75, -13.15)" gradientUnits="userSpaceOnUse" id="gradient1" r="819.2" spreadMethod="pad">
      <stop offset="0.10196078431372549" stop-color="#e4dac5"/>
      <stop offset="0.41568627450980394" stop-color="#c0a872"/>
      <stop offset="1.0" stop-color="#3c5155"/>
    </radialGradient>
    <radialGradient cx="0" cy="0" gradientTransform="matrix(0.0058, 0.0, 0.0, 0.0058, 7.6, 1.6)" gradientUnits="userSpaceOnUse" id="gradient2" r="819.2" spreadMethod="pad">
      <stop offset="0.10196078431372549" stop-color="#e4dac5"/>
      <stop offset="0.41568627450980394" stop-color="#c0a872"/>
      <stop offset="1.0" stop-color="#3c5155"/>
    </radialGradient>
    <radialGradient cx="0" cy="0" gradientTransform="matrix(0.0023, 0.0, 0.0, 0.0023, 8.6, -1.8)" gradientUnits="userSpaceOnUse" id="gradient3" r="819.2" spreadMethod="pad">
      <stop offset="0.10196078431372549" stop-color="#e4dac5"/>
      <stop offset="0.41568627450980394" stop-color="#c0a872"/>
      <stop offset="1.0" stop-color="#3c5155"/>
    </radialGradient>
    <radialGradient cx="0" cy="0" gradientTransform="matrix(3.0E-4, 0.0, 0.0, 3.0E-4, 12.95, 5.9)" gradientUnits="userSpaceOnUse" id="gradient4" r="819.2" spreadMethod="pad">
      <stop offset="0.10196078431372549" stop-color="#e4dac5"/>
      <stop offset="0.41568627450980394" stop-color="#c0a872"/>
      <stop offset="1.0" stop-color="#3c5155"/>
    </radialGradient>
    <radialGradient cx="0" cy="0" gradientTransform="matrix(0.0033, 0.0, 0.0, 0.0033, 4.75, 5.95)" gradientUnits="userSpaceOnUse" id="gradient5" r="819.2" spreadMethod="pad">
      <stop offset="0.10196078431372549" stop-color="#e4dac5"/>
      <stop offset="0.41568627450980394" stop-color="#c0a872"/>
      <stop offset="1.0" stop-color="#3c5155"/>
    </radialGradient>
    <radialGradient cx="0" cy="0" gradientTransform="matrix(4.0E-4, 0.0, 0.0, 4.0E-4, 5.65, 10.5)" gradientUnits="userSpaceOnUse" id="gradient6" r="819.2" spreadMethod="pad">
      <stop offset="0.10196078431372549" stop-color="#e4dac5"/>
      <stop offset="0.41568627450980394" stop-color="#c0a872"/>
      <stop offset="1.0" stop-color="#3c5155"/>
    </radialGradient>
    <radialGradient cx="0" cy="0" gradientTransform="matrix(0.0041, 0.0, 0.0, 0.0041, -2.45, -15.05)" gradientUnits="userSpaceOnUse" id="gradient7" r="819.2" spreadMethod="pad">
      <stop offset="0.10196078431372549" stop-color="#e4dac5"/>
      <stop offset="0.41568627450980394" stop-color="#c0a872"/>
      <stop offset="1.0" stop-color="#3c5155"/>
    </radialGradient>
    <radialGradient cx="0" cy="0" gradientTransform="matrix(1.0E-4, 0.0, 0.0, 1.0E-4, -10.45, -5.95)" gradientUnits="userSpaceOnUse" id="gradient8" r="819.2" spreadMethod="pad">
      <stop offset="0.10196078431372549" stop-color="#e4dac5"/>
      <stop offset="0.41568627450980394" stop-color="#c0a872"/>
      <stop offset="1.0" stop-color="#3c5155"/>
    </radialGradient>
    <radialGradient cx="0" cy="0" gradientTransform="matrix(3.0E-4, 0.0, 0.0, 3.0E-4, -1.5, -10.45)" gradientUnits="userSpaceOnUse" id="gradient9" r="819.2" spreadMethod="pad">
      <stop offset="0.10196078431372549" stop-color="#e4dac5"/>
      <stop offset="0.41568627450980394" stop-color="#c0a872"/>
      <stop offset="1.0" stop-color="#3c5155"/>
    </radialGradient>
    <radialGradient cx="0" cy="0" gradientTransform="matrix(1.0E-4, 0.0, 0.0, 1.0E-4, -0.6, -8.95)" gradientUnits="userSpaceOnUse" id="gradient10" r="819.2" spreadMethod="pad">
      <stop offset="0.10196078431372549" stop-color="#e4dac5"/>
      <stop offset="0.41568627450980394" stop-color="#c0a872"/>
      <stop offset="1.0" stop-color="#3c5155"/>
    </radialGradient>
    <radialGradient cx="0" cy="0" gradientTransform="matrix(0.006, 0.0, 0.0, 0.006, -4.05, -10.7)" gradientUnits="userSpaceOnUse" id="gradient11" r="819.2" spreadMethod="pad">
      <stop offset="0.10196078431372549" stop-color="#e4dac5"/>
      <stop offset="0.41568627450980394" stop-color="#c0a872"/>
      <stop offset="1.0" stop-color="#3c5155"/>
    </radialGradient>
    <radialGradient cx="0" cy="0" gradientTransform="matrix(0.0039, 0.0, 0.0, 0.0039, -7.05, -6.65)" gradientUnits="userSpaceOnUse" id="gradient12" r="819.2" spreadMethod="pad">
      <stop offset="0.10196078431372549" stop-color="#e4dac5"/>
      <stop offset="0.41568627450980394" stop-color="#c0a872"/>
      <stop offset="1.0" stop-color="#3c5155"/>
    </radialGradient>
    <radialGradient cx="0" cy="0" gradientTransform="matrix(0.002, 0.0, 0.0, 0.002, -9.85, -2.15)" gradientUnits="userSpaceOnUse" id="gradient13" r="819.2" spreadMethod="pad">
      <stop offset="0.10196078431372549" stop-color="#e4dac5"/>
      <stop offset="0.41568627450980394" stop-color="#c0a872"/>
      <stop offset="1.0" stop-color="#3c5155"/>
    </radialGradient>
    <radialGradient cx="0" cy="0" gradientTransform="matrix(0.0032, 0.0, 0.0, 0.0032, -5.5, -1.25)" gradientUnits="userSpaceOnUse" id="gradient14" r="819.2" spreadMethod="pad">
      <stop offset="0.10196078431372549" stop-color="#e4dac5"/>
      <stop offset="0.41568627450980394" stop-color="#c0a872"/>
      <stop offset="1.0" stop-color="#3c5155"/>
    </radialGradient>
    <radialGradient cx="0" cy="0" gradientTransform="matrix(0.006, 0.0, 0.0, 0.006, -8.25, 2.2)" gradientUnits="userSpaceOnUse" id="gradient15" r="819.2" spreadMethod="pad">
      <stop offset="0.10196078431372549" stop-color="#e4dac5"/>
      <stop offset="0.41568627450980394" stop-color="#c0a872"/>
      <stop offset="1.0" stop-color="#3c5155"/>
    </radialGradient>
    <radialGradient cx="0" cy="0" gradientTransform="matrix(0.0024, 0.0, 0.0, 0.0024, -3.55, 1.5)" gradientUnits="userSpaceOnUse" id="gradient16" r="819.2" spreadMethod="pad">
      <stop offset="0.10196078431372549" stop-color="#e4dac5"/>
      <stop offset="0.41568627450980394" stop-color="#c0a872"/>
      <stop offset="1.0" stop-color="#3c5155"/>
    </radialGradient>
  </defs>
</svg>
