<?xml version="1.0" encoding="UTF-8" standalone="no"?>
<svg xmlns:xlink="http://www.w3.org/1999/xlink" height="39.25px" width="32.25px" xmlns="http://www.w3.org/2000/svg">
  <g transform="matrix(1.0, 0.0, 0.0, 1.0, 16.8, 20.7)">
    <path d="M13.15 18.15 L-13.45 18.15 -13.45 -18.65 13.15 -18.65 13.15 18.15" fill="#000000" fill-rule="evenodd" stroke="none"/>
    <path d="M5.8 -19.35 L6.65 -19.65 6.75 -19.35 5.25 -18.15 5.55 -17.8 6.25 -17.8 7.1 -17.05 5.85 -15.65 6.5 -15.6 7.45 -16.7 7.95 -16.15 Q7.05 -15.4 6.95 -14.9 L8.15 -15.95 8.65 -15.25 Q7.95 -14.8 7.8 -14.1 L7.95 -14.1 8.8 -15.05 9.15 -14.5 10.15 -12.6 9.45 -12.95 Q9.45 -12.6 10.1 -11.9 L9.45 -11.55 10.35 -11.45 10.4 -11.3 10.5 -11.2 9.65 -11.55 9.6 -11.55 10.8 -10.45 10.95 -10.35 10.95 -10.3 11.0 -10.15 11.0 -10.05 11.4 -9.6 11.45 -9.5 11.6 -8.85 Q11.75 -8.5 12.05 -8.3 L12.2 -7.95 10.05 -9.25 10.35 -8.5 Q9.7 -9.2 9.25 -10.25 8.55 -11.85 7.5 -12.05 L9.05 -9.8 Q9.6 -8.85 10.5 -8.25 L11.45 -5.95 11.7 -5.3 Q12.5 -3.25 12.25 -0.9 L11.65 3.7 Q11.3 5.55 10.25 6.9 9.8 11.4 7.75 15.25 L7.0 15.3 6.8 15.6 Q6.6 15.75 6.35 15.85 L6.15 15.8 6.0 15.65 6.15 14.4 5.5 15.15 4.6 15.9 4.6 15.95 Q4.4 17.05 3.9 16.45 L3.9 16.25 3.35 16.35 3.1 16.35 2.85 16.4 Q2.8 17.0 2.15 17.4 0.0 18.65 -2.5 18.55 -3.15 18.5 -3.0 18.0 L-2.2 16.7 -2.75 16.3 -3.2 17.05 -3.55 16.9 Q-4.65 16.75 -5.6 15.95 L-6.95 14.85 Q-8.15 13.95 -8.45 12.75 L-8.25 12.75 Q-9.0 9.9 -10.95 7.6 -12.3 6.1 -13.05 4.3 L-12.6 3.85 -13.65 0.6 Q-13.4 0.35 -13.55 -0.5 L-13.4 -1.95 -13.2 -3.3 -13.35 -3.4 -13.75 -2.95 -14.0 -2.8 -14.35 -3.45 Q-14.45 -4.85 -14.05 -6.15 -13.5 -6.35 -12.9 -6.8 -11.05 -7.55 -10.5 -8.55 -10.55 -8.5 -11.75 -7.85 L-11.4 -8.3 Q-10.2 -9.8 -10.2 -10.55 L-10.65 -11.6 Q-12.05 -11.0 -12.55 -9.5 -12.9 -8.4 -13.9 -7.75 L-13.8 -8.2 -13.8 -8.25 Q-13.35 -9.25 -13.35 -10.35 L-13.3 -11.0 Q-11.4 -11.4 -11.4 -12.3 L-11.45 -12.5 -13.2 -11.65 -12.9 -12.65 -12.5 -13.95 -10.4 -13.5 -10.15 -13.55 -10.2 -13.65 -10.25 -13.7 -11.5 -14.05 -12.35 -14.5 -11.75 -15.85 Q-10.85 -14.7 -10.25 -14.7 L-10.0 -14.7 -10.05 -14.75 -11.55 -16.25 -11.4 -16.5 -11.35 -17.0 Q-10.25 -15.3 -9.45 -15.3 L-9.3 -15.3 Q-10.2 -15.75 -10.9 -17.2 L-11.0 -17.4 Q-8.6 -15.9 -8.1 -15.45 L-7.95 -15.6 -9.3 -16.65 Q-10.4 -17.3 -11.0 -17.4 L-11.2 -17.75 -10.85 -18.35 -10.5 -18.35 -10.45 -17.85 -9.5 -18.3 -7.65 -16.8 -7.55 -17.1 -8.85 -18.35 -8.65 -18.35 -8.6 -18.3 -7.9 -18.85 -7.65 -18.85 -7.5 -18.7 -6.55 -18.95 -6.6 -18.75 -6.35 -17.8 Q-6.1 -17.3 -5.65 -17.15 L-5.3 -17.1 -4.85 -17.15 Q-5.65 -17.45 -6.0 -18.2 L-6.15 -18.35 -6.1 -18.5 -6.15 -18.55 -6.2 -19.05 -4.8 -19.35 -4.85 -19.55 -4.65 -19.4 -2.9 -19.65 -2.3 -19.95 -2.25 -19.8 -2.25 -19.7 0.75 -19.75 1.95 -20.15 2.7 -20.7 3.0 -20.4 2.1 -19.65 2.55 -19.6 3.9 -19.3 4.5 -19.65 4.85 -19.35 4.5 -19.0 4.7 -18.8 5.0 -18.95 5.8 -19.35 M-13.9 -6.8 L-13.85 -6.95 -13.8 -7.2 Q-13.3 -7.2 -12.3 -9.05 -11.25 -11.1 -10.8 -11.4 L-10.35 -10.55 Q-10.35 -10.3 -10.85 -9.7 L-11.6 -8.4 -11.85 -7.8 -13.7 -6.9 -13.9 -6.8 M4.85 -16.75 L3.7 -17.1 0.6 -15.15 0.3 -14.9 2.85 -14.7 2.9 -15.2 Q3.0 -16.25 3.7 -16.7 L4.25 -16.6 4.05 -15.2 Q3.9 -14.45 4.45 -14.35 L4.35 -14.6 4.45 -15.3 5.25 -15.2 5.7 -14.6 Q5.5 -15.8 4.85 -16.75 M1.85 -17.7 L1.55 -17.8 1.05 -17.5 -0.5 -16.5 -1.05 -15.55 -0.75 -15.45 -0.65 -15.4 1.0 -17.0 1.85 -17.7 M0.55 -17.95 L0.75 -18.1 0.65 -18.1 0.55 -17.95 M7.2 -13.2 L7.55 -13.05 9.25 -13.05 7.2 -13.25 7.2 -13.2 M6.0 -12.65 L5.5 -12.85 2.25 -12.2 2.05 -12.35 2.05 -12.4 -1.25 -12.0 -1.2 -11.85 -1.25 -11.55 -1.25 -11.35 -0.3 -11.45 0.7 -12.15 Q1.25 -12.15 1.25 -11.65 L4.7 -12.1 4.65 -12.15 6.0 -12.65 M5.45 -17.4 L5.15 -18.1 4.9 -17.9 Q5.05 -17.5 5.45 -17.4 M3.85 -14.55 L3.8 -15.0 3.75 -14.65 3.85 -14.55 M7.25 -10.8 L7.15 -11.3 5.5 -11.9 3.85 -11.05 7.25 -10.8 M5.45 -10.6 L5.7 -10.4 6.45 -10.2 6.1 -10.0 7.25 -9.8 6.55 -9.4 7.2 -8.25 7.85 -6.65 8.0 -6.5 7.35 -10.25 5.45 -10.6 M8.85 -9.75 L8.85 -9.65 Q8.85 -8.3 9.45 -7.05 L10.35 -5.85 10.65 -5.65 Q9.95 -6.3 9.7 -7.15 L8.85 -9.75 M5.95 -8.25 L5.05 -8.75 4.9 -8.85 4.75 -8.8 Q2.05 -7.95 1.4 -7.5 0.6 -6.9 0.1 -5.95 L-0.3 -4.85 -0.1 -4.95 -0.15 -5.1 Q-0.15 -5.85 1.65 -7.0 3.65 -8.25 5.65 -8.25 L5.95 -8.25 M5.85 -6.55 L5.65 -6.65 5.7 -6.75 5.6 -7.45 5.45 -7.45 4.25 -7.2 3.5 -6.7 4.5 -6.45 6.1 -6.1 5.85 -6.55 M4.5 -10.4 L4.3 -10.7 0.75 -10.45 0.5 -10.05 -0.45 -10.0 -5.2 -9.35 -5.25 -10.15 -5.6 -10.15 -5.85 -9.3 -6.6 -9.25 -6.35 -10.2 -7.75 -10.25 -8.1 -9.75 -7.95 -9.45 -6.35 -9.1 -4.35 -8.55 -2.5 -8.4 1.55 -9.7 3.2 -10.2 3.25 -10.2 4.5 -10.4 M1.55 -9.8 L1.25 -9.95 1.55 -10.3 1.55 -9.8 M1.65 -8.7 L-0.75 -7.7 -0.55 -7.1 -0.5 -6.65 Q0.1 -7.6 1.4 -8.55 L1.65 -8.7 M2.7 -6.75 L0.8 -5.55 0.95 -5.6 2.8 -6.5 Q3.35 -6.8 3.75 -7.05 L2.7 -6.75 M8.35 -1.85 L8.65 -2.2 8.5 -3.1 8.2 -2.5 Q7.85 -1.2 6.9 -0.4 L7.3 0.25 7.5 1.25 7.95 0.95 8.35 -1.85 M6.1 -0.1 L5.2 -0.05 Q5.75 0.4 5.95 1.15 L6.6 1.5 6.6 1.4 6.7 1.2 6.1 -0.1 M7.6 -3.2 L7.7 -3.4 7.55 -3.4 Q7.5 -3.25 7.6 -3.2 M5.55 5.1 L5.4 5.6 5.5 5.7 5.8 5.1 5.55 5.1 M3.45 2.8 L3.8 2.65 3.65 2.4 3.45 2.8 M2.1 0.1 L2.25 0.0 1.8 -0.9 2.1 0.1 M0.45 1.55 L1.5 0.55 0.95 0.1 0.15 0.35 -0.35 -0.65 Q-0.65 -1.35 -0.45 -1.85 L-0.9 -2.55 -0.2 -2.3 -0.05 -2.45 0.1 -3.0 -0.05 -3.3 -0.55 -2.75 -0.85 -3.1 Q-1.35 -2.1 -1.0 -1.25 L-1.05 -0.05 -1.8 0.5 -1.9 0.35 -2.25 0.95 -2.5 0.7 -2.55 0.85 -2.05 1.5 Q-1.15 1.2 -0.8 2.35 L-0.5 2.7 -0.85 1.9 -0.2 1.9 -0.85 0.1 0.45 1.55 M1.3 5.5 L1.4 5.9 1.55 6.35 1.65 6.3 1.5 5.45 1.3 5.5 M2.6 5.3 L2.75 6.05 2.95 5.25 2.6 5.3 M4.15 5.1 L4.1 5.55 4.2 5.85 4.55 5.1 4.15 5.1 M3.2 7.35 Q2.95 7.05 2.6 7.1 L2.6 8.25 2.8 8.5 3.35 8.35 3.45 7.85 3.2 7.35 M2.2 3.0 L2.2 3.2 2.75 2.45 2.2 3.0 M4.65 8.05 L4.65 7.85 4.35 7.1 Q4.1 7.25 4.1 7.8 L4.15 8.15 4.65 8.05 M0.55 7.75 L0.5 8.85 0.8 8.85 0.55 7.75 M2.1 8.65 L1.6 7.4 1.65 8.7 2.1 8.65 M0.45 9.85 L0.45 9.9 1.0 9.85 1.0 9.8 0.45 9.85 M6.55 8.85 L7.3 8.35 7.5 7.6 7.1 8.0 6.55 8.85 M5.7 7.4 L5.75 7.35 5.7 6.8 5.15 6.45 5.1 6.8 5.35 7.15 5.7 7.4 M4.75 10.1 L4.65 9.65 3.65 10.15 3.55 10.9 4.75 10.1 M2.35 10.6 L2.0 11.2 2.85 11.5 2.95 11.4 3.05 11.35 2.95 10.4 2.35 10.6 M1.45 11.2 L1.7 10.7 0.65 11.25 1.45 11.2 M5.75 9.45 L5.6 9.15 5.7 9.5 5.75 9.45 M4.35 13.55 L4.4 13.6 4.5 13.3 4.2 13.25 4.2 13.35 4.2 13.55 4.35 13.55 M3.85 13.15 L3.7 13.15 2.45 13.15 2.6 13.45 3.95 13.55 3.85 13.15 M2.7 13.85 L2.7 13.9 2.6 14.9 2.65 14.95 4.05 13.95 4.0 13.85 3.3 13.85 2.7 13.85 M2.3 13.4 L2.25 13.15 1.3 13.15 1.35 13.35 2.3 13.4 M1.4 13.8 L1.4 14.15 1.4 14.55 2.3 14.75 2.4 13.9 2.4 13.85 1.4 13.8 M0.05 13.15 L-0.95 13.15 -0.95 13.2 0.05 13.25 0.05 13.15 M0.35 13.25 L1.1 13.3 1.1 13.15 0.3 13.15 0.35 13.25 M0.45 13.75 L0.5 14.55 1.0 14.55 1.05 13.8 0.45 13.75 M0.15 13.75 L-0.85 13.7 -0.8 14.4 -0.8 14.7 -0.7 14.7 0.2 14.6 0.15 13.75 M-5.45 -15.45 L-5.75 -15.5 -6.15 -13.8 -6.35 -13.25 -5.15 -12.85 -5.05 -13.0 -4.85 -13.35 -4.95 -13.35 -6.15 -13.55 -6.15 -13.8 -5.7 -13.85 -4.55 -13.55 -4.65 -13.45 -4.75 -13.35 -4.45 -12.85 0.75 -13.45 -0.95 -13.5 -1.05 -13.4 -1.1 -13.4 -1.05 -13.5 -2.9 -13.6 -4.95 -14.0 -5.05 -14.2 -4.3 -14.5 -5.45 -15.45 M-2.25 -17.2 L-2.0 -16.65 -1.25 -18.05 -2.4 -17.7 -2.25 -17.2 M-4.65 -16.05 L-3.65 -16.1 -4.65 -16.95 -5.3 -16.75 -4.65 -16.05 M-2.7 -14.7 L-2.2 -14.75 -2.25 -14.85 -2.25 -14.95 -2.6 -15.25 -3.7 -15.35 -2.7 -14.7 M-0.9 -15.1 L-1.3 -15.15 -1.35 -15.0 -1.35 -14.85 -1.35 -14.8 -1.15 -14.85 -0.9 -15.1 M-10.3 -4.65 L-10.3 -4.55 Q-9.9 -5.4 -10.3 -4.65 M-13.6 -6.55 L-12.9 -6.8 -14.0 -6.35 -13.6 -6.55 M-1.95 -11.95 L-4.15 -11.7 -4.1 -11.05 -3.0 -11.15 -3.05 -11.3 -2.85 -11.75 Q-2.55 -11.95 -2.15 -11.55 L-1.95 -11.95 M-2.8 -10.2 L-2.85 -10.2 -2.8 -10.2 M-1.8 -7.3 Q-2.3 -7.15 -2.3 -7.55 L-2.9 -7.55 Q-1.9 -6.65 -1.1 -5.2 L-1.1 -5.8 -1.2 -7.5 -1.8 -7.3 M-7.5 -10.7 L-7.15 -10.6 -7.55 -10.65 -7.7 -10.4 -6.2 -10.65 -6.15 -10.75 -7.45 -10.85 -7.5 -10.7 M-8.95 -6.75 L-9.4 -6.75 -9.5 -6.7 -9.35 -6.6 -8.95 -6.75 M-8.4 -6.3 L-7.85 -6.05 Q-6.15 -5.95 -4.85 -4.9 L-4.2 -4.15 -3.95 -4.25 -3.3 -4.1 -4.1 -4.95 Q-5.85 -6.3 -8.3 -6.3 L-8.4 -6.3 M-8.4 -0.05 L-8.6 -0.05 Q-8.15 1.45 -7.1 2.45 L-6.95 2.5 -7.4 0.65 Q-7.6 -0.25 -8.4 -0.05 M-8.4 -7.05 L-8.4 -6.85 Q-6.35 -7.25 -4.95 -6.15 -4.05 -5.7 -3.25 -4.9 L-2.75 -4.3 -2.65 -4.3 -2.55 -5.0 -2.5 -5.2 Q-4.1 -6.1 -4.7 -6.75 -5.25 -7.35 -7.35 -7.8 L-7.4 -7.8 -8.85 -7.2 -9.0 -7.05 -8.4 -7.05 M-1.75 -4.2 L-1.25 -4.35 -1.2 -4.5 -1.65 -4.7 -1.65 -4.55 -1.75 -4.2 M-4.95 3.9 L-5.05 3.45 -5.25 3.85 -4.95 3.9 M-3.05 2.8 L-3.75 2.75 -4.45 3.8 -4.0 4.25 -3.05 4.45 -3.2 3.85 Q-3.35 3.25 -3.05 2.9 -2.4 3.1 -2.2 3.6 -2.05 3.95 -2.05 4.35 -2.0 4.75 -1.65 4.65 -0.85 4.85 -1.1 4.15 L-1.7 3.6 Q-2.4 3.0 -3.05 2.8 M-1.55 5.95 L-1.25 6.7 -0.5 7.05 -0.65 5.8 -1.55 5.95 M-3.95 8.2 L-4.15 9.2 -3.5 9.2 -3.8 7.8 -3.95 8.2 M-3.75 7.2 L-3.75 6.35 -4.45 6.5 -3.75 7.2 M-0.3 8.95 L-0.35 8.15 -1.3 7.9 -1.15 9.05 -0.3 8.95 M-2.5 7.8 L-2.15 7.55 -2.35 6.1 -3.15 6.25 -3.05 7.25 -2.5 7.8 M-1.85 9.0 L-2.35 8.3 -2.9 8.3 -2.9 9.15 -1.8 9.1 -1.85 9.0 M-6.6 5.1 L-6.65 5.1 -6.75 5.15 -6.75 5.3 Q-6.75 6.9 -5.85 7.85 L-5.85 7.65 -6.05 6.45 -6.05 6.3 -6.45 5.85 Q-6.6 6.05 -6.6 5.65 L-6.5 5.2 -6.6 5.1 M-9.65 1.6 L-10.05 0.35 -9.75 2.5 -9.25 2.85 -9.65 1.6 M-4.2 9.45 L-4.25 9.55 -3.65 9.65 -4.2 9.45 M-1.5 11.2 L-1.3 11.45 -0.8 11.55 -0.3 11.45 -0.1 11.2 -0.3 10.95 -0.8 10.85 -1.3 10.95 -1.5 11.2 M-1.95 11.75 L-1.9 11.7 -2.25 10.8 -3.55 10.7 Q-2.5 11.25 -1.95 11.75 M-1.7 13.2 L-1.35 13.2 -1.25 13.2 -1.25 13.15 -1.6 13.15 -1.7 13.2 M-1.15 13.7 L-2.65 13.6 -2.8 13.65 -1.1 14.55 -1.15 13.7" fill="#000000" fill-rule="evenodd" stroke="none"/>
    <path d="M12.6 -13.5 Q12.1 -13.75 12.0 -14.7 L13.45 -14.4 13.8 -14.0 Q13.8 -13.7 13.25 -13.35 L12.2 -13.05 Q11.4 -13.05 10.95 -13.95 L10.5 -14.5 10.8 -14.35 12.3 -13.35 Q12.8 -13.35 13.1 -13.65 L13.5 -13.95 Q13.1 -14.45 12.3 -14.4 12.3 -13.85 12.6 -13.5 M13.7 -14.55 Q13.6 -14.55 12.4 -15.25 L11.4 -15.8 Q12.85 -15.7 13.65 -14.6 L13.7 -14.55 M15.15 -17.9 L15.45 -17.75 11.7 -17.25 9.45 -16.35 9.2 -16.4 Q9.8 -17.05 11.55 -17.65 L15.15 -17.9 M5.0 -18.95 L5.4 -19.45 6.3 -20.1 5.8 -19.35 5.0 -18.95 M7.1 -17.05 L7.65 -17.8 Q9.2 -19.35 11.7 -18.9 9.1 -18.55 7.9 -17.4 L7.45 -16.7 6.5 -15.6 5.85 -15.65 7.1 -17.05 M7.95 -16.15 L9.6 -17.4 8.15 -15.95 6.95 -14.9 Q7.05 -15.4 7.95 -16.15 M8.65 -15.25 L9.45 -15.55 8.8 -15.05 7.95 -14.1 7.8 -14.1 Q7.95 -14.8 8.65 -15.25 M10.15 -12.6 L13.0 -10.6 12.5 -10.95 Q11.6 -11.45 10.55 -11.6 L11.05 -11.15 10.35 -11.45 9.45 -11.55 10.1 -11.9 Q9.45 -12.6 9.45 -12.95 L10.15 -12.6 M10.5 -11.2 Q11.15 -10.8 11.5 -10.0 12.1 -8.8 13.5 -8.3 L13.85 -8.25 13.05 -8.1 12.05 -8.3 Q11.75 -8.5 11.6 -8.85 L11.45 -9.5 11.45 -9.8 10.95 -10.35 10.8 -10.45 9.6 -11.55 9.65 -11.55 10.5 -11.2 M10.35 -8.5 Q10.8 -8.1 11.3 -7.8 L10.5 -8.25 Q9.6 -8.85 9.05 -9.8 L7.5 -12.05 Q8.55 -11.85 9.25 -10.25 9.7 -9.2 10.35 -8.5 M-14.05 -6.15 L-14.1 -6.15 -14.3 -6.25 Q-16.0 -5.5 -16.35 -4.4 L-16.5 -4.4 Q-16.3 -5.55 -13.9 -6.8 L-13.7 -6.9 -11.85 -7.8 -11.6 -8.4 -10.85 -9.7 Q-10.35 -10.3 -10.35 -10.55 L-10.8 -11.4 Q-11.25 -11.1 -12.3 -9.05 -13.3 -7.2 -13.8 -7.2 L-14.7 -7.35 Q-14.25 -7.5 -13.9 -7.75 -12.9 -8.4 -12.55 -9.5 -12.05 -11.0 -10.65 -11.6 L-10.2 -10.55 Q-10.2 -9.8 -11.4 -8.3 L-11.75 -7.85 Q-10.55 -8.5 -10.5 -8.55 -11.05 -7.55 -12.9 -6.8 -13.5 -6.35 -14.05 -6.15 M-13.3 -11.0 L-13.4 -11.0 Q-15.75 -10.55 -16.65 -8.85 L-16.7 -8.7 -16.8 -9.1 Q-16.8 -10.05 -15.55 -10.7 L-13.2 -11.65 -11.45 -12.5 -11.4 -12.3 Q-11.4 -11.4 -13.3 -11.0 M-12.5 -13.95 L-12.9 -14.4 -13.2 -15.35 -14.25 -15.45 -15.15 -15.0 -15.75 -14.55 -15.8 -14.55 -14.45 -15.7 Q-13.3 -16.45 -12.9 -15.3 L-12.35 -14.5 -11.5 -14.05 -10.25 -13.7 -10.2 -13.65 -10.15 -13.55 -10.4 -13.5 -12.5 -13.95 M-11.75 -15.85 L-13.2 -18.0 -13.2 -18.15 -13.1 -18.15 -11.55 -16.25 -10.05 -14.75 -10.0 -14.7 -10.25 -14.7 Q-10.85 -14.7 -11.75 -15.85 M-11.35 -17.0 L-12.45 -19.0 -12.35 -19.05 Q-11.75 -18.75 -11.2 -17.75 L-11.0 -17.4 Q-10.4 -17.3 -9.3 -16.65 L-7.95 -15.6 -8.1 -15.45 Q-8.6 -15.9 -11.0 -17.4 L-10.9 -17.2 Q-10.2 -15.75 -9.3 -15.3 L-9.45 -15.3 Q-10.25 -15.3 -11.35 -17.0 M-9.5 -18.3 L-11.0 -19.8 -10.95 -19.85 -8.85 -18.35 -7.55 -17.1 -7.65 -16.8 -9.5 -18.3 M-6.55 -18.95 L-6.45 -19.95 -6.35 -19.95 -6.2 -19.05 -6.15 -18.55 -6.1 -18.5 -6.15 -18.35 -6.0 -18.2 Q-5.65 -17.45 -4.85 -17.15 L-5.3 -17.1 -5.65 -17.15 Q-6.1 -17.3 -6.35 -17.8 L-6.6 -18.75 -6.55 -18.95 M4.85 -16.75 Q5.5 -15.8 5.7 -14.6 L5.25 -15.2 4.45 -15.3 4.35 -14.6 4.45 -14.35 Q3.9 -14.45 4.05 -15.2 L4.25 -16.6 3.7 -16.7 Q3.0 -16.25 2.9 -15.2 L2.85 -14.7 0.3 -14.9 0.6 -15.15 3.7 -17.1 4.85 -16.75 M0.55 -17.95 L0.65 -18.1 0.75 -18.1 0.55 -17.95 M1.85 -17.7 L1.0 -17.0 -0.65 -15.4 -0.75 -15.45 -1.05 -15.55 -0.5 -16.5 1.05 -17.5 1.55 -17.8 1.85 -17.7 M3.85 -14.55 L3.75 -14.65 3.8 -15.0 3.85 -14.55 M5.45 -17.4 Q5.05 -17.5 4.9 -17.9 L5.15 -18.1 5.45 -17.4 M6.0 -12.65 L4.65 -12.15 4.7 -12.1 1.25 -11.65 Q1.25 -12.15 0.7 -12.15 L-0.3 -11.45 -1.25 -11.35 -1.25 -11.55 -1.2 -11.85 -1.25 -12.0 2.05 -12.4 2.05 -12.35 2.25 -12.2 5.5 -12.85 6.0 -12.65 M7.2 -13.2 L7.2 -13.25 9.25 -13.05 7.55 -13.05 7.2 -13.2 M8.85 -9.75 L9.7 -7.15 Q9.95 -6.3 10.65 -5.65 L10.35 -5.85 9.45 -7.05 Q8.85 -8.3 8.85 -9.65 L8.85 -9.75 M5.45 -10.6 L7.35 -10.25 8.0 -6.5 7.85 -6.65 7.2 -8.25 6.55 -9.4 7.25 -9.8 6.1 -10.0 6.45 -10.2 5.7 -10.4 5.45 -10.6 M7.25 -10.8 L3.85 -11.05 5.5 -11.9 7.15 -11.3 7.25 -10.8 M5.95 -8.25 L5.65 -8.25 Q3.65 -8.25 1.65 -7.0 -0.15 -5.85 -0.15 -5.1 L-0.1 -4.95 -0.3 -4.85 0.1 -5.95 Q0.6 -6.9 1.4 -7.5 2.05 -7.95 4.75 -8.8 L4.9 -8.85 5.05 -8.75 5.95 -8.25 M5.85 -6.55 L6.1 -6.1 4.5 -6.45 3.5 -6.7 4.25 -7.2 5.45 -7.45 5.6 -7.45 5.7 -6.75 5.65 -6.65 5.85 -6.55 M4.5 -10.4 L3.25 -10.2 3.2 -10.2 1.55 -9.7 -2.5 -8.4 -4.35 -8.55 -6.35 -9.1 -7.95 -9.45 -8.1 -9.75 -7.75 -10.25 -6.35 -10.2 -6.6 -9.25 -5.85 -9.3 -5.6 -10.15 -5.25 -10.15 -5.2 -9.35 -0.45 -10.0 0.5 -10.05 0.75 -10.45 4.3 -10.7 4.5 -10.4 M1.55 -9.8 L1.55 -10.3 1.25 -9.95 1.55 -9.8 M2.7 -6.75 L3.75 -7.05 Q3.35 -6.8 2.8 -6.5 L0.95 -5.6 0.8 -5.55 2.7 -6.75 M1.65 -8.7 L1.4 -8.55 Q0.1 -7.6 -0.5 -6.65 L-0.55 -7.1 -0.75 -7.7 1.65 -8.7 M7.6 -3.2 Q7.5 -3.25 7.55 -3.4 L7.7 -3.4 7.6 -3.2 M6.1 -0.1 L6.7 1.2 6.6 1.4 6.6 1.5 5.95 1.15 Q5.75 0.4 5.2 -0.05 L6.1 -0.1 M8.35 -1.85 L7.95 0.95 7.5 1.25 7.3 0.25 6.9 -0.4 Q7.85 -1.2 8.2 -2.5 L8.5 -3.1 8.65 -2.2 8.35 -1.85 M12.85 -9.45 L12.6 -9.7 12.9 -9.6 13.25 -9.75 13.35 -9.75 13.4 -9.95 13.05 -10.55 13.65 -10.05 Q13.65 -9.45 12.85 -9.45 M3.45 2.8 L3.65 2.4 3.8 2.65 3.45 2.8 M5.55 5.1 L5.8 5.1 5.5 5.7 5.4 5.6 5.55 5.1 M0.45 1.55 L-0.85 0.1 -0.2 1.9 -0.85 1.9 -0.5 2.7 -0.8 2.35 Q-1.15 1.2 -2.05 1.5 L-2.55 0.85 -2.5 0.7 -2.25 0.95 -1.9 0.35 -1.8 0.5 -1.05 -0.05 -1.0 -1.25 Q-1.35 -2.1 -0.85 -3.1 L-0.55 -2.75 -0.05 -3.3 0.1 -3.0 -0.05 -2.45 -0.2 -2.3 -0.9 -2.55 -0.45 -1.85 Q-0.65 -1.35 -0.35 -0.65 L0.15 0.35 0.95 0.1 1.5 0.55 0.45 1.55 M2.1 0.1 L1.8 -0.9 2.25 0.0 2.1 0.1 M4.15 5.1 L4.55 5.1 4.2 5.85 4.1 5.55 4.15 5.1 M2.6 5.3 L2.95 5.25 2.75 6.05 2.6 5.3 M1.3 5.5 L1.5 5.45 1.65 6.3 1.55 6.35 1.4 5.9 1.3 5.5 M2.2 3.0 L2.75 2.45 2.2 3.2 2.2 3.0 M3.2 7.35 L3.45 7.85 3.35 8.35 2.8 8.5 2.6 8.25 2.6 7.1 Q2.95 7.05 3.2 7.35 M4.65 8.05 L4.15 8.15 4.1 7.8 Q4.1 7.25 4.35 7.1 L4.65 7.85 4.65 8.05 M0.55 7.75 L0.8 8.85 0.5 8.85 0.55 7.75 M0.45 9.85 L1.0 9.8 1.0 9.85 0.45 9.9 0.45 9.85 M2.1 8.65 L1.65 8.7 1.6 7.4 2.1 8.65 M1.45 11.2 L0.65 11.25 1.7 10.7 1.45 11.2 M2.35 10.6 L2.95 10.4 3.05 11.35 2.95 11.4 2.85 11.5 2.0 11.2 2.35 10.6 M4.75 10.1 L3.55 10.9 3.65 10.15 4.65 9.65 4.75 10.1 M5.7 7.4 L5.35 7.15 5.1 6.8 5.15 6.45 5.7 6.8 5.75 7.35 5.7 7.4 M6.55 8.85 L7.1 8.0 7.5 7.6 7.3 8.35 6.55 8.85 M0.15 13.75 L0.2 14.6 -0.7 14.7 -0.8 14.7 -0.8 14.4 -0.85 13.7 0.15 13.75 M0.45 13.75 L1.05 13.8 1.0 14.55 0.5 14.55 0.45 13.75 M0.35 13.25 L0.3 13.15 1.1 13.15 1.1 13.3 0.35 13.25 M0.05 13.15 L0.05 13.25 -0.95 13.2 -0.95 13.15 0.05 13.15 M1.4 13.8 L2.4 13.85 2.4 13.9 2.3 14.75 1.4 14.55 1.4 14.15 1.4 13.8 M2.3 13.4 L1.35 13.35 1.3 13.15 2.25 13.15 2.3 13.4 M2.7 13.85 L3.3 13.85 4.0 13.85 4.05 13.95 2.65 14.95 2.6 14.9 2.7 13.9 2.7 13.85 M3.85 13.15 L3.95 13.55 2.6 13.45 2.45 13.15 3.7 13.15 3.85 13.15 M4.35 13.55 L4.2 13.55 4.2 13.35 4.2 13.25 4.5 13.3 4.4 13.6 4.35 13.55 M5.75 9.45 L5.7 9.5 5.6 9.15 5.75 9.45 M-5.45 -15.45 L-4.3 -14.5 -5.05 -14.2 -4.95 -14.0 -2.9 -13.6 -1.05 -13.5 -1.1 -13.4 -1.05 -13.4 -0.95 -13.5 0.75 -13.45 -4.45 -12.85 -4.75 -13.35 -4.65 -13.45 -4.55 -13.55 -5.7 -13.85 -6.15 -13.8 -6.15 -13.55 -4.95 -13.35 -4.85 -13.35 -5.05 -13.0 -5.15 -12.85 -6.35 -13.25 -6.15 -13.8 -5.75 -15.5 -5.45 -15.45 M-2.25 -17.2 L-2.4 -17.7 -1.25 -18.05 -2.0 -16.65 -2.25 -17.2 M-4.65 -16.05 L-5.3 -16.75 -4.65 -16.95 -3.65 -16.1 -4.65 -16.05 M-0.9 -15.1 L-1.15 -14.85 -1.35 -14.8 -1.35 -14.85 -1.35 -15.0 -1.3 -15.15 -0.9 -15.1 M-2.7 -14.7 L-3.7 -15.35 -2.6 -15.25 -2.25 -14.95 -2.25 -14.85 -2.2 -14.75 -2.7 -14.7 M-13.6 -6.55 L-14.0 -6.35 -12.9 -6.8 -13.6 -6.55 M-10.3 -4.65 Q-9.9 -5.4 -10.3 -4.55 L-10.3 -4.65 M-1.8 -7.3 L-1.2 -7.5 -1.1 -5.8 -1.1 -5.2 Q-1.9 -6.65 -2.9 -7.55 L-2.3 -7.55 Q-2.3 -7.15 -1.8 -7.3 M-2.8 -10.2 L-2.85 -10.2 -2.8 -10.2 M-1.95 -11.95 L-2.15 -11.55 Q-2.55 -11.95 -2.85 -11.75 L-3.05 -11.3 -3.0 -11.15 -4.1 -11.05 -4.15 -11.7 -1.95 -11.95 M-7.5 -10.7 L-7.45 -10.85 -6.15 -10.75 -6.2 -10.65 -7.7 -10.4 -7.55 -10.65 -7.15 -10.6 -7.5 -10.7 M-8.4 -6.3 L-8.3 -6.3 Q-5.85 -6.3 -4.1 -4.95 L-3.3 -4.1 -3.95 -4.25 -4.2 -4.15 -4.85 -4.9 Q-6.15 -5.95 -7.85 -6.05 L-8.4 -6.3 M-8.95 -6.75 L-9.35 -6.6 -9.5 -6.7 -9.4 -6.75 -8.95 -6.75 M-8.4 -7.05 L-9.0 -7.05 -8.85 -7.2 -7.4 -7.8 -7.35 -7.8 Q-5.25 -7.35 -4.7 -6.75 -4.1 -6.1 -2.5 -5.2 L-2.55 -5.0 -2.65 -4.3 -2.75 -4.3 -3.25 -4.9 Q-4.05 -5.7 -4.95 -6.15 -6.35 -7.25 -8.4 -6.85 L-8.4 -7.05 M-8.4 -0.05 Q-7.6 -0.25 -7.4 0.65 L-6.95 2.5 -7.1 2.45 Q-8.15 1.45 -8.6 -0.05 L-8.4 -0.05 M-1.75 -4.2 L-1.65 -4.55 -1.65 -4.7 -1.2 -4.5 -1.25 -4.35 -1.75 -4.2 M-3.05 2.8 Q-2.4 3.0 -1.7 3.6 L-1.1 4.15 Q-0.85 4.85 -1.65 4.65 -2.0 4.75 -2.05 4.35 -2.05 3.95 -2.2 3.6 -2.4 3.1 -3.05 2.9 -3.35 3.25 -3.2 3.85 L-3.05 4.45 -4.0 4.25 -4.45 3.8 -3.75 2.75 -3.05 2.8 M-4.95 3.9 L-5.25 3.85 -5.05 3.45 -4.95 3.9 M-1.55 5.95 L-0.65 5.8 -0.5 7.05 -1.25 6.7 -1.55 5.95 M-9.65 1.6 L-9.25 2.85 -9.75 2.5 -10.05 0.35 -9.65 1.6 M-6.6 5.1 L-6.5 5.2 -6.6 5.65 Q-6.6 6.05 -6.45 5.85 L-6.05 6.3 -6.05 6.45 -5.85 7.65 -5.85 7.85 Q-6.75 6.9 -6.75 5.3 L-6.75 5.15 -6.65 5.1 -6.6 5.1 M-1.85 9.0 L-1.8 9.1 -2.9 9.15 -2.9 8.3 -2.35 8.3 -1.85 9.0 M-2.5 7.8 L-3.05 7.25 -3.15 6.25 -2.35 6.1 -2.15 7.55 -2.5 7.8 M-0.3 8.95 L-1.15 9.05 -1.3 7.9 -0.35 8.15 -0.3 8.95 M-3.75 7.2 L-4.45 6.5 -3.75 6.35 -3.75 7.2 M-3.95 8.2 L-3.8 7.8 -3.5 9.2 -4.15 9.2 -3.95 8.2 M-4.2 9.45 L-3.65 9.65 -4.25 9.55 -4.2 9.45 M-1.95 11.75 Q-2.5 11.25 -3.55 10.7 L-2.25 10.8 -1.9 11.7 -1.95 11.75 M-1.5 11.2 L-1.3 10.95 -0.8 10.85 -0.3 10.95 -0.1 11.2 -0.3 11.45 -0.8 11.55 -1.3 11.45 -1.5 11.2 M-1.15 13.7 L-1.1 14.55 -2.8 13.65 -2.65 13.6 -1.15 13.7 M-1.7 13.2 L-1.6 13.15 -1.25 13.15 -1.25 13.2 -1.35 13.2 -1.7 13.2" fill="#ccdbbd" fill-rule="evenodd" stroke="none"/>
  </g>
</svg>
