<?xml version="1.0" encoding="UTF-8" standalone="no"?>
<svg xmlns:xlink="http://www.w3.org/1999/xlink" height="627.7px" width="854.9px" xmlns="http://www.w3.org/2000/svg">
  <g transform="matrix(1.0, 0.0, 0.0, 1.0, 427.45, 313.85)">
    <path d="M229.0 -273.35 Q236.4 -279.2 247.25 -281.5 257.85 -281.4 267.9 -278.05 278.6 -274.45 284.25 -264.25 L285.25 -262.4 Q287.0 -266.2 289.85 -269.8 292.95 -273.7 296.5 -276.95 303.1 -285.55 315.95 -289.0 334.75 -294.0 351.45 -304.8 363.9 -312.9 378.75 -313.85 423.65 -299.2 427.15 -251.3 429.55 -218.75 411.65 -193.4 408.45 -188.85 404.0 -185.7 420.05 -178.5 419.15 -156.55 418.1 -129.25 391.5 -125.15 L388.95 -124.8 390.5 -123.8 Q395.95 -122.15 402.1 -126.0 409.85 -130.9 416.9 -129.8 409.35 -116.55 392.0 -119.1 386.75 -119.85 382.35 -122.85 L382.0 -123.05 382.4 -118.75 Q384.85 -110.1 385.3 -100.35 385.55 -94.65 383.65 -89.6 382.75 -86.85 381.25 -84.3 L381.15 -84.75 378.95 -81.75 376.8 -79.25 Q373.15 -69.45 372.55 -59.05 371.8 -46.55 380.75 -38.0 395.0 -33.1 400.9 -45.1 402.05 -47.4 402.5 -50.15 399.75 -55.05 394.15 -55.8 390.0 -56.35 389.85 -51.4 389.6 -50.1 390.6 -50.45 L392.9 -50.9 Q395.3 -51.25 395.65 -48.9 395.8 -47.05 394.2 -46.3 390.0 -44.3 387.3 -47.35 384.35 -70.1 404.65 -53.9 411.35 -48.5 405.0 -41.15 387.45 -20.75 372.45 -42.15 367.0 -49.95 368.75 -59.9 370.05 -67.3 371.8 -74.5 359.65 -64.8 347.85 -72.0 342.0 -73.75 337.0 -77.45 335.55 -78.95 335.65 -81.25 L336.05 -84.65 Q335.1 -88.25 338.4 -91.25 339.65 -93.5 341.65 -95.55 343.85 -97.75 346.35 -98.45 349.8 -98.8 352.95 -97.65 356.5 -96.3 357.75 -92.7 358.65 -90.1 357.3 -88.25 L357.5 -87.55 Q356.95 -85.9 355.35 -84.95 353.9 -84.1 352.4 -83.65 349.4 -82.65 347.35 -84.8 347.35 -85.55 347.75 -86.05 L349.45 -87.4 353.2 -88.85 Q348.85 -94.35 343.7 -91.1 L343.15 -90.5 Q342.0 -89.25 341.35 -87.55 340.55 -85.25 340.55 -83.0 L340.55 -82.25 Q352.5 -76.55 365.15 -81.95 372.2 -84.9 376.1 -90.15 L378.1 -96.4 Q378.75 -98.3 378.95 -100.55 L378.85 -101.9 Q377.4 -105.25 376.8 -109.25 376.1 -114.1 374.35 -118.7 L372.35 -122.1 Q366.65 -130.8 367.0 -137.65 363.35 -143.45 361.5 -151.55 L360.4 -152.55 360.75 -152.55 361.4 -152.0 Q360.9 -154.1 360.55 -156.3 359.05 -165.85 358.55 -175.4 339.5 -176.6 323.55 -187.55 303.0 -153.05 287.8 -115.9 L289.2 -116.65 284.55 -105.55 Q282.15 -99.75 282.0 -93.15 281.85 -87.25 284.65 -82.5 287.05 -80.4 289.45 -82.8 L291.0 -84.8 Q291.25 -85.8 290.8 -85.7 288.85 -85.3 288.2 -87.15 287.95 -87.85 288.15 -88.55 L288.7 -90.1 290.8 -90.95 292.9 -90.65 293.5 -90.1 Q295.15 -72.1 282.1 -84.35 279.3 -87.05 278.95 -91.3 265.8 -45.85 277.75 0.45 279.15 5.9 282.15 11.55 266.2 -16.05 266.9 -47.4 L266.15 -46.0 Q261.7 -37.55 252.05 -39.55 248.3 -44.05 247.95 -50.15 247.6 -55.75 249.9 -60.45 252.85 -66.5 258.65 -63.05 260.05 -61.45 259.75 -59.25 259.45 -57.15 258.3 -55.35 257.05 -53.45 255.1 -54.7 L254.45 -56.25 Q254.2 -57.0 254.2 -57.75 L254.35 -59.25 254.6 -60.0 Q252.0 -58.05 252.15 -54.95 252.3 -52.3 252.75 -49.75 L253.8 -44.35 Q263.55 -42.25 267.1 -52.2 267.7 -62.5 270.1 -73.2 282.25 -127.5 308.85 -176.7 313.1 -184.55 317.75 -192.0 L317.3 -192.35 Q306.15 -193.05 293.4 -192.1 287.0 -191.65 281.1 -188.2 274.95 -184.65 269.55 -180.1 L266.95 -175.9 Q252.7 -152.25 243.9 -127.3 L242.7 -123.1 Q242.0 -120.9 241.1 -119.0 L239.15 -112.6 238.85 -115.45 Q232.95 -108.1 221.35 -110.2 212.2 -111.85 213.3 -121.8 213.85 -127.05 217.9 -130.55 L222.95 -130.55 224.25 -130.3 227.85 -126.55 Q229.3 -124.95 229.1 -122.7 229.0 -121.25 227.8 -120.45 L225.35 -120.25 Q224.15 -120.5 224.55 -121.95 L225.0 -123.45 Q224.25 -124.2 223.8 -125.15 223.3 -126.2 222.3 -126.55 L220.2 -126.75 Q213.7 -105.6 233.6 -117.45 236.5 -119.2 238.65 -121.5 238.75 -135.75 245.15 -150.8 L245.25 -151.4 Q243.25 -150.05 240.95 -149.05 236.25 -147.05 231.55 -148.5 L229.35 -150.85 Q228.5 -151.75 228.15 -152.85 227.8 -154.05 227.8 -155.35 L227.8 -156.1 228.25 -157.5 229.5 -159.2 230.6 -160.6 231.05 -161.15 Q233.8 -162.15 236.15 -160.55 L237.15 -159.4 236.25 -157.15 Q235.35 -155.3 233.4 -155.85 L233.1 -155.1 Q239.9 -150.1 246.75 -157.8 L250.5 -162.2 253.35 -167.65 Q254.1 -170.35 256.05 -172.95 L257.05 -174.2 Q260.3 -179.75 263.95 -185.05 241.4 -172.4 236.5 -194.0 235.7 -197.4 238.3 -200.55 250.15 -215.15 254.1 -198.35 254.55 -196.65 252.8 -195.55 L250.25 -195.25 Q248.25 -195.15 247.7 -197.1 L247.5 -198.6 248.05 -199.3 248.6 -200.15 Q247.5 -201.25 245.75 -201.6 L243.1 -198.45 Q241.5 -196.5 240.5 -194.2 239.45 -191.75 240.4 -189.5 269.25 -182.95 280.85 -211.1 285.75 -223.0 285.25 -236.15 284.2 -238.75 283.45 -241.7 281.1 -250.95 284.0 -259.3 275.6 -274.55 256.25 -275.6 222.4 -277.4 220.05 -244.7 218.45 -222.05 242.2 -224.95 247.4 -225.55 250.3 -229.95 L250.3 -230.7 250.3 -231.45 250.2 -232.95 250.0 -233.7 249.25 -235.2 248.75 -235.95 248.0 -236.75 247.25 -237.5 246.75 -237.75 Q244.2 -237.5 241.95 -236.5 241.45 -236.25 241.2 -235.5 L240.55 -234.05 240.15 -233.45 239.15 -233.3 238.15 -233.3 Q237.5 -233.45 236.95 -233.8 L236.3 -234.55 236.1 -235.25 236.1 -236.0 Q235.95 -237.2 236.6 -238.1 237.5 -239.4 238.75 -240.4 L240.2 -241.25 Q244.0 -242.95 248.25 -242.2 L249.5 -241.8 250.25 -241.05 251.85 -238.95 253.3 -236.5 253.95 -234.95 254.25 -233.45 254.35 -231.2 254.35 -228.9 Q239.45 -213.15 222.6 -227.5 211.15 -237.3 215.45 -252.35 L217.25 -257.55 Q212.8 -253.65 207.45 -251.3 199.65 -247.9 191.35 -249.9 188.9 -252.4 188.45 -255.95 187.75 -261.25 189.1 -265.9 190.1 -269.4 192.0 -272.75 193.95 -276.3 197.7 -276.95 201.35 -277.65 204.05 -275.25 206.7 -272.95 206.9 -269.6 207.1 -266.5 205.3 -263.8 L204.75 -263.65 200.8 -263.75 Q199.7 -263.95 198.85 -264.7 L198.45 -265.35 198.5 -266.1 Q198.6 -266.85 199.0 -267.35 199.7 -268.25 200.75 -268.3 203.25 -268.4 201.95 -270.1 L201.25 -270.9 Q198.6 -273.7 196.5 -270.35 194.5 -267.1 193.35 -263.6 192.5 -261.0 192.35 -258.25 192.25 -256.15 193.4 -254.45 206.75 -251.8 217.25 -261.25 L221.75 -265.75 224.8 -269.5 227.0 -272.75 Q227.6 -273.7 229.0 -273.35 M183.2 -234.1 L183.1 -233.5 Q182.9 -232.3 181.65 -232.1 179.0 -231.75 178.3 -234.35 178.0 -235.4 178.85 -236.05 179.35 -236.4 180.0 -236.6 L181.55 -236.2 182.9 -235.2 183.2 -234.1 M181.6 -212.7 Q182.1 -213.8 183.3 -214.2 L184.55 -214.5 185.55 -214.4 187.15 -213.75 Q187.95 -213.2 188.4 -212.35 L189.35 -210.2 189.3 -209.45 189.05 -208.7 188.6 -207.9 188.0 -207.2 187.35 -206.65 185.55 -206.25 Q183.35 -205.9 181.7 -207.3 180.55 -208.25 180.75 -209.7 L180.8 -210.45 181.0 -211.2 181.6 -212.7 M288.75 -249.9 L289.1 -254.7 288.4 -252.7 288.5 -250.2 288.75 -249.9 M320.3 -275.45 Q293.05 -268.9 299.15 -237.35 300.15 -232.05 301.8 -227.2 310.4 -234.7 319.7 -241.15 317.8 -247.1 316.95 -254.3 315.7 -265.25 320.3 -275.45 M266.85 -225.3 Q266.4 -224.05 264.95 -225.0 262.85 -226.45 264.65 -227.0 L265.0 -227.05 Q267.4 -226.9 266.85 -225.3 M261.55 -247.45 Q260.1 -249.75 262.9 -249.65 265.2 -248.65 264.05 -247.1 262.75 -245.45 261.55 -247.45 M314.65 -229.3 L304.25 -220.7 Q307.9 -212.45 313.45 -205.6 314.6 -204.15 315.9 -202.8 318.4 -200.05 321.25 -197.55 328.5 -208.7 336.75 -218.9 327.2 -224.2 322.15 -234.8 318.35 -232.15 314.65 -229.3 M288.5 -205.05 Q281.6 -197.4 275.55 -188.95 L276.55 -189.7 Q286.2 -196.85 297.8 -199.7 L297.8 -199.85 Q302.2 -199.7 306.45 -198.5 L312.45 -196.8 Q309.3 -199.9 306.3 -203.45 302.35 -205.7 297.7 -206.0 L293.35 -206.1 291.05 -205.8 Q289.7 -205.65 288.5 -205.05 M320.7 -218.05 Q321.45 -217.35 321.25 -216.3 320.75 -215.25 319.95 -214.5 319.0 -213.6 317.7 -213.85 315.7 -214.2 315.0 -216.1 315.0 -217.0 315.3 -217.85 L316.1 -219.15 316.9 -219.75 317.7 -220.0 319.35 -219.2 320.7 -218.05 M35.25 -240.35 Q36.05 -239.7 36.9 -239.15 38.2 -238.3 37.05 -237.65 36.15 -237.15 35.05 -237.05 L34.55 -237.7 34.35 -238.25 34.05 -239.55 34.15 -240.0 Q34.4 -240.25 34.8 -240.3 L35.25 -240.35 M39.15 -224.35 L39.1 -222.85 38.9 -221.3 38.4 -219.95 37.4 -218.8 37.65 -220.3 37.9 -221.8 38.3 -223.3 38.95 -224.3 39.15 -224.35 M68.7 -242.2 Q68.9 -240.85 67.8 -240.25 66.85 -239.7 65.8 -239.95 64.8 -240.15 63.85 -240.75 L63.85 -241.4 64.0 -241.9 65.2 -243.1 66.3 -243.75 66.35 -243.85 Q68.35 -244.15 68.7 -242.2 M141.05 -254.45 L143.3 -253.8 144.6 -253.15 145.6 -252.4 Q148.55 -248.2 144.75 -244.75 139.55 -240.0 136.6 -246.35 133.45 -253.2 141.05 -254.3 L141.05 -254.45 M120.0 -231.85 Q119.35 -230.2 117.25 -229.7 114.9 -229.15 114.5 -231.45 L114.45 -232.05 115.25 -233.4 Q115.7 -234.5 116.95 -234.6 L118.6 -234.75 Q120.85 -234.05 120.0 -231.85 M130.5 -152.05 Q131.3 -150.0 130.45 -148.35 129.4 -146.35 126.9 -147.0 125.9 -147.6 125.05 -148.4 123.85 -149.55 124.0 -151.3 124.2 -153.9 126.9 -153.95 L126.9 -154.05 Q129.6 -154.4 130.5 -152.05 M119.45 -20.5 Q121.5 -19.8 120.4 -17.75 119.4 -15.85 118.5 -18.05 117.55 -20.2 119.45 -20.5 M153.25 -1.05 Q151.7 0.65 151.2 -1.45 150.65 -3.55 152.6 -3.95 155.0 -3.0 153.25 -1.05 M148.7 -6.0 Q149.75 -5.3 149.2 -4.5 L148.8 -4.25 Q148.5 -4.85 148.35 -5.85 L148.7 -6.0 M292.4 -173.95 Q292.2 -171.55 290.0 -173.5 288.05 -175.25 290.3 -176.15 L290.35 -176.25 Q292.6 -176.0 292.4 -173.95 M295.3 -164.95 L295.3 -165.05 Q297.3 -164.7 297.55 -162.75 297.75 -161.15 296.25 -160.45 294.45 -159.6 293.4 -161.2 L292.8 -162.35 292.85 -163.0 293.1 -163.55 Q293.45 -164.15 293.95 -164.4 L295.3 -164.95 M323.75 -165.9 L324.4 -166.45 325.15 -166.75 Q327.2 -167.0 327.6 -165.05 328.0 -163.3 326.55 -162.35 324.85 -161.2 323.5 -162.8 L322.9 -163.4 322.75 -164.05 322.8 -164.6 323.75 -165.9 M225.6 -158.2 Q227.9 -157.2 226.15 -155.1 223.9 -152.45 223.8 -155.3 223.7 -157.65 225.6 -158.2 M199.05 -140.8 L199.1 -141.4 199.35 -142.0 200.25 -142.85 201.55 -143.4 201.55 -143.5 Q203.55 -143.15 203.8 -141.2 204.0 -139.55 202.5 -138.9 200.75 -138.05 199.65 -139.65 L199.05 -140.8 M235.65 -95.55 Q235.25 -95.15 234.55 -95.7 233.2 -96.65 234.75 -96.8 L235.15 -96.85 Q236.4 -96.3 235.65 -95.55 M202.2 -85.1 Q201.65 -83.85 200.45 -84.95 199.15 -86.1 200.75 -86.45 202.8 -86.6 202.2 -85.1 M312.55 -27.6 Q312.25 -24.65 309.7 -26.9 307.5 -28.85 309.9 -30.0 L309.95 -30.15 Q312.75 -30.2 312.55 -27.6 M367.9 -268.45 Q370.05 -282.2 390.75 -281.5 402.85 -281.05 405.3 -268.95 411.35 -239.3 386.85 -221.0 380.05 -215.95 371.1 -214.7 L367.55 -214.25 366.45 -208.0 Q364.5 -194.3 365.2 -180.75 L375.3 -181.15 Q381.55 -186.9 390.85 -188.8 L390.85 -188.95 395.9 -188.2 Q407.5 -195.55 414.8 -210.0 421.0 -222.25 421.6 -236.15 422.95 -266.85 405.05 -290.7 394.35 -304.95 377.7 -305.8 327.9 -295.45 331.25 -248.7 347.25 -258.45 365.05 -265.4 366.15 -266.9 367.9 -268.45 M373.7 -272.15 L375.7 -272.65 Q394.25 -271.7 385.95 -256.5 383.25 -251.55 378.45 -251.15 377.5 -242.95 373.6 -233.75 371.65 -229.15 370.15 -224.4 381.9 -225.95 393.25 -235.25 399.85 -240.6 401.8 -249.2 408.4 -278.2 380.95 -275.85 376.5 -275.45 373.7 -272.15 M361.95 -224.25 Q363.8 -233.7 366.6 -242.8 358.2 -235.3 350.9 -226.9 356.45 -224.75 361.95 -224.25 M339.45 -232.95 Q342.5 -230.9 345.5 -229.35 356.8 -242.05 369.65 -253.3 364.85 -255.45 363.5 -258.2 347.3 -251.15 332.4 -241.7 334.25 -236.4 339.45 -232.95 M334.15 -198.55 L336.15 -199.45 337.55 -200.0 337.6 -200.1 Q339.75 -199.45 339.3 -197.25 338.9 -195.55 337.7 -194.4 336.0 -192.85 334.15 -193.8 L333.45 -194.3 333.35 -194.9 332.9 -196.25 Q332.75 -196.8 333.0 -197.35 L333.45 -198.05 334.15 -198.55 M334.75 -205.55 L326.9 -193.1 Q331.75 -189.7 337.35 -186.9 342.95 -184.1 349.5 -182.75 L358.3 -181.3 Q357.85 -197.3 360.1 -213.35 L360.2 -213.8 Q350.1 -213.7 342.35 -216.4 338.4 -211.15 334.75 -205.55 M389.05 -209.3 L390.35 -208.65 391.35 -207.9 Q394.3 -203.7 390.5 -200.25 385.3 -195.5 382.35 -201.85 379.2 -208.7 386.8 -209.8 L386.8 -209.95 389.05 -209.3 M405.55 -173.1 Q400.8 -181.1 391.5 -180.05 L386.05 -178.45 Q383.5 -177.3 381.35 -175.45 377.1 -171.85 375.15 -166.85 373.3 -162.25 373.9 -157.1 375.5 -155.1 377.45 -153.7 381.3 -150.9 385.85 -149.9 390.4 -148.85 394.9 -151.05 L395.2 -153.3 Q395.45 -155.15 395.0 -157.0 394.35 -159.4 392.8 -161.35 390.15 -164.8 386.3 -163.15 L386.75 -162.4 386.9 -161.65 386.5 -160.15 385.65 -159.15 Q384.05 -158.2 382.55 -159.15 L381.5 -159.85 Q379.25 -164.15 384.2 -166.2 393.85 -170.25 398.85 -160.05 400.9 -155.8 401.3 -151.05 401.4 -149.5 400.95 -148.0 399.05 -144.95 395.95 -143.4 387.0 -139.0 378.35 -144.15 375.4 -145.9 373.9 -144.45 382.55 -121.65 402.9 -140.1 406.9 -143.75 408.5 -149.35 412.05 -162.05 405.55 -173.1 M365.55 -175.3 Q365.9 -171.45 366.5 -167.6 L367.7 -170.7 Q368.95 -173.35 370.5 -175.6 L365.55 -175.3 M338.85 -173.7 Q337.65 -172.25 337.15 -174.0 336.85 -175.15 337.85 -176.0 338.25 -176.35 338.85 -176.45 339.9 -174.9 338.85 -173.7 M350.05 -136.05 Q352.05 -135.7 352.3 -133.75 352.5 -132.1 351.0 -131.45 349.25 -130.6 348.15 -132.2 L347.55 -133.35 347.6 -133.95 347.85 -134.55 348.75 -135.4 350.05 -135.95 350.05 -136.05 M330.15 -142.35 L332.15 -141.8 333.2 -141.15 334.05 -139.7 Q334.75 -138.65 334.7 -137.35 334.65 -135.8 333.9 -134.4 L332.95 -132.8 332.2 -132.35 331.7 -132.15 Q329.95 -131.95 328.2 -132.2 326.65 -132.45 325.1 -133.05 324.05 -133.95 323.85 -135.35 323.55 -137.4 324.45 -139.1 325.6 -141.1 327.7 -142.0 L329.15 -142.45 330.15 -142.35 M395.9 -99.7 L398.15 -99.05 399.45 -98.4 400.45 -97.7 Q403.4 -93.45 399.6 -90.0 394.4 -85.25 391.45 -91.6 388.3 -98.5 395.9 -99.55 L395.9 -99.7 M390.35 -83.5 Q388.95 -82.1 388.45 -83.7 388.1 -84.7 389.35 -85.25 L390.3 -85.45 Q391.45 -84.6 390.35 -83.5 M368.9 31.6 Q369.3 34.0 366.95 34.35 364.2 34.8 362.65 32.7 L362.3 32.05 362.4 31.3 Q362.65 30.65 363.2 30.25 364.05 29.65 365.1 29.25 L366.6 28.75 Q368.5 29.45 368.9 31.6 M324.45 93.4 Q322.65 94.2 321.6 92.6 L321.0 91.5 321.05 90.85 321.3 90.3 Q321.65 89.7 322.2 89.4 L323.5 88.9 323.5 88.8 Q325.5 89.15 325.75 91.1 325.95 92.7 324.45 93.4 M339.4 91.75 Q337.6 92.55 336.5 90.95 L335.95 89.8 336.0 89.2 336.2 88.6 337.1 87.75 338.4 87.25 338.45 87.15 Q340.45 87.45 340.7 89.45 340.85 91.05 339.4 91.75 M365.1 113.3 Q363.3 114.15 362.25 112.55 L361.65 111.4 361.7 110.8 Q361.75 110.45 361.95 110.2 L362.85 109.35 364.15 108.8 364.15 108.7 Q366.15 109.05 366.4 111.0 366.6 112.65 365.1 113.3 M346.05 119.95 Q344.25 120.75 343.15 119.15 L342.6 118.05 342.65 117.4 342.85 116.8 343.75 115.95 345.05 115.45 345.1 115.35 Q347.05 115.65 347.3 117.65 347.5 119.25 346.05 119.95 M380.75 184.7 Q381.6 184.8 382.3 185.2 L383.85 186.25 384.05 186.85 384.35 188.15 Q384.5 189.5 383.6 190.55 L380.95 193.1 380.35 193.5 379.1 193.65 378.3 193.6 375.85 192.55 375.15 192.05 374.8 191.4 374.6 190.8 374.55 189.55 374.65 187.7 374.95 186.45 375.55 185.85 376.25 185.25 Q376.6 185.0 377.05 184.9 L378.25 184.7 378.25 184.6 380.75 184.7 M340.1 202.75 Q339.15 204.75 338.45 202.8 337.9 201.35 338.9 200.25 339.15 199.9 339.8 199.9 340.85 201.25 340.1 202.75 M312.65 2.2 L312.55 2.3 Q311.45 2.05 310.8 1.2 310.65 1.0 311.45 1.2 312.25 1.55 312.65 2.2 M215.65 68.85 Q218.0 68.65 219.2 70.5 220.55 72.55 219.75 74.85 218.95 77.15 216.5 77.35 215.25 76.85 214.1 76.15 213.15 75.6 212.8 74.5 212.45 73.25 212.45 72.0 L212.55 70.75 213.0 70.15 213.65 69.55 Q214.0 69.3 214.45 69.2 L215.65 68.95 215.65 68.85 M234.25 137.95 Q233.65 140.0 231.75 138.45 229.45 136.55 232.05 135.6 L232.1 135.45 Q235.0 135.45 234.25 137.95 M321.5 101.4 L322.55 102.55 323.1 103.7 322.55 104.9 Q321.3 107.15 318.5 106.75 316.25 106.4 315.65 104.35 L315.65 103.7 315.7 103.1 Q315.95 102.45 316.45 102.1 317.4 101.4 318.5 100.9 L318.55 100.8 320.2 100.9 Q320.9 101.0 321.5 101.4 M283.7 113.65 Q286.4 113.55 285.5 115.75 284.65 117.75 282.9 116.25 280.8 114.5 283.65 113.75 L283.7 113.65 M63.4 144.55 Q61.45 147.3 60.15 144.35 58.95 141.55 62.15 141.15 L62.15 141.0 Q65.2 142.05 63.4 144.55 M119.45 186.05 Q121.45 186.35 121.35 188.3 121.3 190.2 119.55 191.05 117.75 191.95 116.75 190.4 L116.4 189.75 116.3 189.15 116.4 188.55 116.75 187.9 117.15 187.3 117.8 186.7 118.45 186.35 119.4 186.15 119.45 186.05 M10.05 268.45 L9.55 270.25 Q9.25 271.15 8.25 271.1 L7.45 271.1 Q5.85 270.9 6.25 269.5 6.7 267.85 8.05 266.7 8.6 266.25 9.5 266.5 10.3 267.35 10.05 268.45 M311.05 280.7 L312.7 281.1 313.75 281.65 Q315.3 283.55 315.5 286.0 315.8 290.3 311.95 292.3 308.2 294.3 305.05 291.4 L304.5 290.1 Q304.1 288.95 304.25 287.65 L304.6 284.55 Q304.75 283.05 305.9 282.05 L306.55 281.5 307.35 281.1 308.6 280.85 310.25 280.6 311.05 280.7 M225.6 203.15 L227.25 203.55 228.3 204.15 228.95 204.7 Q231.7 208.8 228.6 212.3 224.05 217.5 220.35 211.25 217.25 206.0 222.8 203.4 L223.95 203.05 225.6 203.15 M-384.95 -115.7 L-383.3 -115.6 Q-382.75 -115.5 -382.35 -115.15 L-381.35 -114.0 -381.2 -113.45 Q-381.3 -112.15 -382.45 -111.75 -385.5 -110.7 -386.9 -113.4 -387.4 -114.4 -386.35 -115.05 -385.55 -115.6 -384.95 -115.7 M-242.9 -134.75 Q-245.1 -133.3 -246.8 -135.35 L-247.15 -136.85 Q-247.3 -138.0 -247.0 -139.05 -246.45 -141.1 -244.3 -141.0 L-244.3 -141.15 Q-241.85 -140.75 -241.35 -138.35 -240.9 -136.05 -242.9 -134.75 M-287.1 -83.9 Q-292.3 -79.15 -295.25 -85.55 -298.4 -92.4 -290.8 -93.5 L-290.8 -93.6 -288.55 -92.95 -287.3 -92.3 -286.25 -91.6 Q-283.3 -87.35 -287.1 -83.9 M-186.1 -69.35 L-185.95 -68.55 -185.95 -67.85 -186.1 -67.05 -186.8 -65.65 -187.9 -64.3 -189.4 -63.8 -193.45 -64.05 Q-195.0 -64.8 -195.5 -66.3 L-195.4 -67.8 Q-195.3 -69.25 -194.4 -70.25 -192.9 -71.95 -190.7 -72.0 L-190.7 -72.1 -189.7 -72.05 -187.95 -71.5 Q-187.4 -71.25 -187.0 -70.75 L-186.1 -69.35 M-23.9 -171.2 L-22.85 -170.65 -22.0 -170.05 Q-19.6 -166.6 -22.7 -163.75 -27.0 -159.85 -29.4 -165.1 -32.0 -170.7 -25.75 -171.6 L-25.75 -171.7 -23.9 -171.2 M-110.9 -132.65 Q-112.8 -130.15 -113.9 -132.8 -115.05 -135.65 -112.8 -136.3 L-112.3 -136.35 Q-109.05 -135.1 -110.9 -132.65 M-109.5 23.2 Q-108.55 24.2 -108.7 25.4 -108.9 27.15 -110.0 25.65 -110.9 24.35 -110.05 23.4 L-109.5 23.2 M-133.1 125.1 Q-134.7 122.0 -131.5 121.8 -128.55 122.65 -129.95 125.25 -131.5 128.2 -133.1 125.1 M-142.3 179.65 L-144.5 179.6 Q-145.9 178.05 -143.55 177.95 -140.95 178.05 -142.3 179.65 M-43.95 178.8 L-43.7 178.2 -42.85 177.35 -41.55 176.8 -41.5 176.7 Q-39.5 177.05 -39.25 179.0 -39.05 180.65 -40.55 181.3 -42.35 182.15 -43.45 180.55 L-44.0 179.4 -43.95 178.8 M-51.45 196.0 L-51.4 195.4 -51.2 194.8 -50.3 193.95 -49.0 193.4 -48.95 193.3 Q-47.0 193.65 -46.75 195.6 -46.55 197.25 -48.0 197.9 -49.8 198.75 -50.9 197.15 L-51.45 196.0 M-170.45 43.45 Q-187.25 45.85 -201.55 56.05 -215.2 65.75 -227.1 77.55 L-230.6 81.05 Q-223.8 77.25 -215.95 75.8 -206.5 75.0 -202.25 82.9 -197.9 91.05 -205.45 94.85 -215.3 99.8 -216.45 90.45 L-215.7 89.7 -214.95 88.95 -214.4 88.55 -213.0 88.3 Q-211.9 88.55 -211.05 89.35 -210.1 90.15 -210.4 91.45 L-209.4 91.35 -207.85 90.95 -206.4 90.35 -205.7 89.65 -205.35 88.95 -205.35 88.2 -205.35 87.4 -205.35 86.65 -205.35 85.9 -205.4 85.15 Q-205.45 84.75 -205.65 84.4 L-206.1 83.65 Q-225.1 77.8 -240.5 91.5 -245.8 96.25 -250.4 101.5 -253.85 108.45 -258.35 114.7 -262.1 119.85 -266.3 124.25 -254.2 118.4 -241.25 116.25 -214.55 116.2 -211.7 142.55 -210.5 153.85 -218.35 162.4 -237.7 183.4 -256.1 166.35 -258.3 164.3 -257.5 160.6 -256.55 156.2 -252.85 153.15 L-251.35 152.65 Q-244.55 150.55 -240.65 155.55 -239.35 157.2 -238.7 159.25 L-239.05 159.95 -240.05 161.45 Q-241.0 162.7 -242.35 163.3 -244.05 164.0 -245.7 162.9 L-246.3 162.25 -246.5 161.5 -246.5 160.75 -246.2 160.1 -245.35 159.15 -244.8 158.45 -245.05 158.2 -250.8 158.6 -250.85 158.95 -251.0 159.65 -251.65 161.35 -252.05 162.7 -252.5 164.3 -252.75 165.8 -252.6 166.55 Q-219.65 171.7 -217.7 139.35 -217.3 132.55 -223.2 128.35 -240.6 116.1 -262.15 126.5 -292.0 140.9 -314.65 164.35 L-316.3 168.35 Q-318.9 175.4 -322.45 182.05 -294.95 194.65 -285.6 221.6 L-284.55 221.0 Q-281.8 214.9 -280.65 208.1 -279.65 213.7 -281.8 219.5 -277.7 217.45 -273.45 216.15 L-272.65 215.7 Q-238.25 197.95 -200.85 190.9 L-200.5 190.35 -199.95 189.5 -199.8 188.8 -199.65 188.1 -198.9 186.45 -198.75 185.8 Q-198.45 183.85 -200.3 183.0 -203.95 181.3 -207.95 180.55 -210.6 180.0 -205.85 179.2 L-203.35 179.6 Q-201.8 179.95 -200.35 180.6 L-197.55 182.1 -196.75 182.75 -196.75 184.25 -196.7 185.75 Q-196.6 186.95 -197.1 188.0 -197.8 189.45 -198.9 190.55 L-184.8 188.35 -177.55 187.3 -177.15 187.4 -177.05 187.3 Q-173.3 185.3 -170.85 182.0 -169.75 180.5 -169.7 178.7 L-170.25 177.2 -170.9 175.65 Q-171.7 173.95 -173.45 173.3 -176.3 172.2 -174.0 172.1 L-172.45 172.9 -171.45 173.3 Q-170.7 173.5 -170.05 173.85 -169.05 174.4 -168.15 175.15 -165.9 178.75 -168.0 182.1 -170.6 186.3 -174.65 189.05 L-174.5 189.3 -174.2 189.6 -168.2 190.55 -167.9 190.85 -168.45 191.0 -174.5 191.6 -183.45 193.95 -182.85 194.05 Q-175.1 195.4 -168.2 199.35 -163.1 202.35 -159.6 207.5 -160.7 209.65 -163.1 207.55 -176.0 196.3 -192.55 196.5 -213.85 202.65 -235.1 210.65 L-197.75 208.55 Q-189.8 212.5 -183.95 219.1 -178.05 225.8 -179.5 234.85 -180.9 243.45 -188.15 247.45 -179.2 235.25 -188.25 222.85 -192.9 216.5 -200.0 215.55 -219.4 213.0 -239.0 212.15 L-246.3 215.0 -248.35 215.85 Q-233.4 218.65 -220.0 226.75 -196.45 241.0 -204.6 266.6 -211.15 287.25 -233.15 293.0 -217.2 284.15 -210.1 265.9 -202.05 245.2 -221.05 232.65 -240.15 220.05 -258.05 219.9 -270.65 225.4 -282.8 231.75 -281.75 236.85 -281.25 242.45 -268.9 239.4 -256.3 237.9 L-241.25 235.6 -239.2 236.2 -227.7 237.8 Q-227.35 237.85 -227.1 238.6 -249.6 241.4 -272.5 246.65 L-280.8 248.7 -280.8 249.75 -280.75 252.35 -276.65 251.9 -276.65 251.75 Q-267.0 251.25 -257.4 252.1 -247.9 253.0 -239.2 256.85 -231.1 260.5 -223.55 265.4 -250.3 255.5 -280.15 258.0 L-280.95 258.1 Q-283.8 297.55 -325.85 310.9 -337.95 314.75 -350.8 313.6 -377.55 311.25 -403.0 301.85 -413.2 298.1 -417.85 287.7 -438.45 241.6 -414.95 199.0 -408.65 187.55 -396.2 182.65 -371.3 172.95 -344.4 174.9 L-339.4 176.1 Q-341.1 171.95 -341.6 166.55 L-341.6 165.8 Q-332.8 156.05 -321.4 149.55 L-319.45 142.25 Q-317.15 133.2 -322.9 125.8 -333.55 112.1 -341.0 95.9 -342.6 92.4 -343.25 88.9 -351.05 87.05 -360.35 92.45 -382.25 105.05 -369.7 124.35 L-369.15 124.6 -359.15 124.2 Q-358.05 124.1 -357.05 123.3 L-356.85 122.55 Q-356.8 122.3 -356.9 122.25 L-357.55 122.1 -359.3 122.4 -360.6 122.55 -361.8 122.2 -362.6 121.55 -362.5 120.85 -361.75 119.35 -360.5 117.85 Q-359.2 116.7 -357.55 116.3 -355.05 115.8 -353.25 117.5 L-352.6 118.35 -352.25 119.05 -351.95 119.75 -351.5 120.55 -351.1 121.35 -351.0 122.05 Q-360.25 138.9 -374.8 123.45 -383.5 114.2 -376.65 102.15 -368.45 87.7 -353.0 83.85 -356.55 81.5 -359.15 77.6 -362.9 71.95 -360.9 64.85 -359.4 59.7 -353.8 58.95 L-351.25 58.85 Q-359.95 61.2 -359.65 69.45 -359.4 77.3 -352.65 81.85 L-350.4 83.3 -347.45 82.85 -343.8 83.8 Q-343.95 77.95 -341.8 71.9 -335.15 53.1 -315.85 54.55 -314.9 53.05 -313.6 51.75 -312.6 50.8 -312.05 49.5 -311.15 47.5 -310.55 45.55 -309.75 42.85 -308.0 40.4 -309.25 37.9 -311.85 37.1 -319.4 34.75 -326.55 31.6 -329.6 30.25 -332.0 27.75 -332.85 26.4 -332.65 24.7 L-332.6 22.45 Q-332.75 19.55 -331.35 17.2 -329.75 14.4 -328.55 11.45 -328.1 10.2 -328.75 8.8 -329.8 7.85 -331.2 7.55 -333.0 7.15 -334.6 6.2 -336.55 5.0 -338.6 4.15 -340.65 3.3 -339.1 3.25 L-334.95 4.4 -331.25 5.3 Q-328.95 5.7 -326.8 6.7 L-325.95 7.25 -325.75 10.3 Q-325.55 11.75 -326.05 12.85 -327.1 15.4 -328.7 17.9 -330.4 20.65 -330.05 23.95 L-330.0 25.5 Q-327.15 27.8 -322.9 28.65 -315.6 30.15 -309.15 33.3 -305.8 34.95 -303.95 37.85 L-303.95 40.9 Q-303.9 42.1 -304.6 43.1 -306.15 45.55 -307.2 48.3 -308.5 51.65 -310.75 54.6 L-311.8 56.05 -308.8 61.4 Q-305.7 66.85 -309.25 71.6 -315.8 80.3 -325.2 74.25 -325.75 73.15 -325.4 71.95 L-325.2 70.5 -325.15 68.2 Q-325.1 65.6 -323.75 63.45 L-321.9 60.6 Q-339.05 72.7 -335.75 86.75 -308.6 98.8 -309.65 132.7 -309.85 138.6 -310.5 144.3 -303.25 141.35 -295.05 139.5 L-288.95 137.75 Q-280.6 131.85 -271.5 126.95 L-268.55 123.9 Q-265.65 115.25 -258.95 107.55 L-254.3 102.35 Q-251.2 96.0 -249.0 89.3 -242.65 69.85 -258.35 58.05 -271.0 48.55 -281.45 60.35 L-281.45 61.15 -281.45 61.9 -281.45 62.65 -281.45 64.15 -281.45 64.9 -281.4 65.65 -281.15 66.4 -280.7 67.2 -279.9 67.9 -278.9 68.65 Q-278.15 69.1 -277.4 69.1 L-275.4 68.7 -275.3 67.95 -275.1 67.2 -274.85 66.45 Q-274.2 65.05 -272.6 65.1 L-268.3 65.4 -267.8 66.2 -267.4 67.0 -267.3 67.7 -267.3 70.0 -267.5 71.4 Q-268.0 72.8 -269.0 73.8 L-270.05 75.05 Q-277.65 76.35 -283.1 70.9 -287.3 66.7 -285.35 60.3 -282.45 50.9 -272.6 48.5 -236.25 57.75 -245.65 89.55 -243.4 86.3 -240.7 83.3 L-238.4 78.6 Q-234.65 71.0 -232.4 62.9 -230.35 55.75 -227.85 49.75 -226.8 58.15 -230.2 66.4 -232.6 72.15 -235.45 77.75 L-233.6 75.9 -232.65 74.6 Q-225.75 65.65 -219.35 56.35 -213.4 47.65 -206.35 41.15 -210.85 50.4 -218.1 59.65 L-222.8 65.85 -220.9 64.2 Q-205.35 50.95 -186.5 42.9 -182.9 41.35 -179.55 40.65 L-176.55 40.75 -173.45 41.1 Q-171.5 41.3 -170.45 42.85 -170.3 43.05 -170.45 43.45 M-270.3 10.55 Q-271.05 11.7 -272.55 11.2 -274.45 10.65 -275.5 9.05 -276.6 7.35 -274.6 7.3 L-274.1 7.25 -272.6 7.7 -271.7 8.0 Q-270.85 8.4 -270.45 9.2 -270.2 9.8 -270.3 10.55 M-320.55 66.6 Q-321.3 68.1 -321.15 69.7 L-321.15 70.5 Q-320.7 73.25 -316.85 71.5 -315.3 70.8 -314.2 69.6 L-313.8 68.95 Q-313.2 67.65 -313.65 66.6 L-314.55 64.5 Q-315.15 63.15 -316.45 62.35 L-317.35 62.15 Q-318.4 63.0 -319.1 64.1 L-320.55 66.6 M-300.7 93.6 Q-299.75 89.75 -295.85 89.3 L-295.85 89.2 -294.85 89.25 -292.9 89.85 -291.8 90.45 -291.0 91.95 Q-290.4 93.0 -290.35 94.25 -290.3 95.8 -290.75 97.2 -291.2 98.45 -291.8 99.55 L-292.85 100.2 -294.35 100.8 Q-296.7 101.4 -298.85 100.25 L-299.9 99.55 Q-300.95 98.7 -301.05 97.25 -301.15 95.4 -300.7 93.6 M-305.55 147.25 L-311.1 149.0 Q-311.55 153.3 -312.55 157.5 -305.95 150.95 -298.8 145.15 L-305.55 147.25 M-288.85 183.65 Q-287.25 184.25 -286.65 185.7 L-285.55 188.1 -285.0 189.55 -285.25 190.35 -285.55 191.05 -286.35 192.55 -287.5 194.1 -288.2 194.35 -288.1 194.45 -287.15 195.5 -288.45 194.4 -289.8 194.5 Q-292.75 194.5 -294.9 192.4 -296.15 191.2 -296.3 189.6 L-298.1 188.85 -298.4 188.75 -296.35 189.2 -296.35 189.05 -296.4 188.3 Q-296.5 187.0 -295.55 186.05 L-293.15 184.0 Q-291.9 183.1 -290.8 183.0 -289.8 183.25 -288.85 183.65 M-271.6 185.25 Q-272.3 184.25 -272.55 183.0 -273.0 180.4 -271.25 178.55 -268.7 175.8 -265.5 175.4 -263.35 175.7 -261.95 177.4 -260.6 179.05 -260.15 181.2 -259.7 183.15 -260.2 185.0 -260.9 186.45 -262.25 187.25 -265.5 189.15 -268.7 187.0 -270.05 186.05 -271.6 185.25 M-259.7 187.5 Q-257.7 187.85 -257.45 189.8 -257.25 191.4 -258.7 192.1 -260.5 192.95 -261.6 191.35 L-262.15 190.2 -262.1 189.55 -261.9 189.0 -261.0 188.15 Q-260.4 187.8 -259.7 187.6 L-259.7 187.5 M-181.05 146.1 Q-178.6 146.6 -178.95 149.1 -179.35 151.7 -181.35 149.85 -182.6 148.65 -182.0 146.8 -181.85 146.35 -181.05 146.1 M-203.25 172.75 Q-200.45 172.75 -201.7 174.85 -203.05 177.15 -204.15 175.05 -205.2 173.1 -203.25 172.75 M-162.35 234.35 L-161.85 234.3 Q-160.35 235.0 -161.25 235.9 -161.75 236.35 -162.6 235.7 -164.25 234.55 -162.35 234.35 M-177.3 264.05 Q-176.65 264.3 -176.05 264.7 L-175.0 265.4 Q-172.05 269.65 -175.85 273.1 -181.05 277.85 -184.0 271.5 -187.15 264.6 -179.55 263.55 L-179.55 263.4 -177.3 264.05 M-313.05 212.85 L-310.8 213.45 Q-310.15 213.7 -309.55 214.1 L-308.5 214.85 Q-305.55 219.05 -309.35 222.55 -314.55 227.25 -317.5 220.9 -320.65 214.05 -313.05 212.95 L-313.05 212.85 M-291.4 236.35 L-298.45 240.4 Q-306.25 246.8 -315.05 250.55 L-321.75 254.65 -321.7 255.7 Q-306.5 249.6 -290.6 244.95 L-290.1 244.8 Q-290.55 240.4 -291.4 236.35 M-293.95 227.05 Q-302.55 202.15 -328.05 191.35 -332.65 198.2 -338.4 204.55 L-346.65 217.35 Q-344.35 218.8 -342.0 220.5 -328.05 230.65 -323.7 243.95 -308.95 235.25 -293.95 227.05 M-289.8 253.5 L-289.75 251.15 Q-296.8 253.2 -303.7 255.6 L-294.35 254.1 -289.8 253.5 M-322.4 264.85 Q-323.15 269.5 -324.8 274.5 -332.15 296.95 -356.3 304.6 -313.05 311.65 -294.55 272.35 -291.5 265.9 -290.4 259.05 -305.9 260.9 -321.1 264.5 L-322.4 264.85 M-45.55 207.6 L-44.05 207.25 Q-41.0 208.05 -41.95 210.75 -42.75 213.05 -45.05 213.45 -47.75 213.95 -48.85 211.55 L-48.6 210.1 Q-47.95 207.9 -45.55 207.6 M-55.9 201.6 Q-56.0 203.35 -57.7 203.55 L-59.9 203.45 -60.6 203.05 -60.5 202.45 -59.8 201.35 -58.05 200.2 -57.25 199.95 Q-55.85 200.15 -55.9 201.6 M-62.45 232.6 Q-62.95 233.9 -64.2 232.75 -65.5 231.6 -63.9 231.25 -61.85 231.1 -62.45 232.6 M-98.85 236.3 L-99.5 236.25 Q-100.6 235.9 -99.85 235.35 -99.7 235.2 -99.35 235.2 -98.75 235.8 -98.85 236.3 M-134.7 215.7 Q-133.5 216.35 -132.7 217.55 -131.6 219.2 -133.05 220.65 L-133.8 221.45 Q-136.6 222.3 -138.9 220.45 -140.8 218.9 -139.85 216.65 -139.05 214.75 -137.05 215.0 L-137.05 214.85 Q-135.8 215.1 -134.7 215.7 M-87.15 282.6 Q-86.6 282.7 -86.15 282.95 -85.7 283.2 -85.25 283.55 L-84.55 284.85 Q-84.35 285.4 -84.3 286.0 L-84.2 287.9 -84.2 289.15 -85.4 290.15 Q-86.5 290.8 -87.45 291.55 L-89.8 291.4 -90.55 289.5 -90.8 286.45 Q-90.7 284.75 -89.65 283.3 -89.0 282.5 -87.95 282.6 L-87.95 282.5 -87.15 282.6 M-355.95 48.25 L-355.9 48.1 Q-353.9 48.45 -353.7 50.45 -353.5 52.05 -354.95 52.75 -356.75 53.55 -357.85 51.95 L-358.4 50.8 -358.35 50.2 -358.1 49.6 -357.25 48.75 -355.95 48.25 M-367.8 22.1 Q-368.7 19.85 -365.65 19.9 -362.9 21.1 -365.1 23.2 -366.75 24.8 -367.8 22.1 M-384.1 68.05 Q-386.35 67.65 -386.7 65.35 -386.9 64.15 -385.95 63.55 L-384.95 63.05 Q-384.0 63.25 -383.2 63.7 -382.55 64.1 -382.15 64.8 L-381.6 65.95 -381.4 66.6 Q-382.15 68.4 -384.1 68.05 M-375.35 146.45 Q-374.5 147.1 -373.95 148.0 -373.6 148.6 -373.5 149.35 -373.75 150.6 -374.35 151.7 -375.75 154.2 -378.8 153.9 -381.6 153.6 -382.45 151.1 L-382.6 150.4 -382.15 148.95 -381.2 147.45 Q-380.25 146.45 -379.0 145.95 L-377.8 145.55 -376.55 145.9 Q-375.9 146.1 -375.35 146.45 M-339.1 166.8 Q-338.3 172.65 -336.1 177.05 L-332.45 178.15 Q-326.7 166.35 -322.75 153.9 L-330.9 158.6 Q-335.75 161.75 -339.1 166.8 M-341.4 186.9 Q-356.3 183.15 -371.95 183.5 -421.85 187.1 -423.8 235.0 -425.4 275.4 -396.35 298.3 -390.8 302.65 -383.55 302.9 -343.1 304.25 -332.45 267.6 L-334.25 268.15 Q-353.55 277.1 -371.85 286.8 L-372.15 287.3 -372.35 287.65 -371.45 290.2 -370.6 290.8 -368.15 291.8 Q-365.1 292.65 -362.25 293.85 -361.2 294.25 -360.35 295.0 L-362.1 294.5 -365.65 293.55 Q-368.45 292.9 -371.1 291.8 L-371.95 291.2 -373.0 288.75 Q-384.4 306.15 -401.15 287.35 -427.35 257.9 -400.2 227.15 -379.05 203.2 -354.4 213.4 L-351.3 208.1 Q-345.05 197.65 -337.95 187.85 L-341.4 186.9 M-358.55 220.7 Q-377.9 213.9 -395.35 234.5 -417.5 260.65 -394.2 284.4 -393.95 278.25 -392.3 274.9 -402.45 250.95 -376.25 234.95 -367.65 229.7 -360.2 223.65 L-358.55 220.7 M-351.15 224.25 L-364.8 245.15 Q-368.35 250.55 -373.35 253.8 -376.1 258.6 -379.3 262.65 L-375.25 253.6 -375.7 253.4 -376.7 252.7 -377.15 252.0 -377.25 251.25 -377.25 250.5 -364.75 232.2 -362.2 227.35 Q-370.75 234.9 -379.75 242.0 -398.05 256.45 -390.1 271.95 -385.6 268.3 -376.0 275.05 -375.85 265.9 -368.75 259.75 L-369.95 261.75 Q-373.65 269.15 -373.85 276.6 L-372.55 277.85 Q-359.0 266.25 -343.15 255.9 L-355.4 254.85 Q-358.45 254.4 -360.95 254.8 -348.25 248.75 -333.7 249.95 L-332.9 249.45 -331.45 248.6 Q-333.85 238.15 -343.4 229.95 -347.3 226.6 -351.15 224.25 M-388.7 275.7 L-389.45 276.05 -390.3 278.05 -391.1 281.1 -391.2 281.85 -390.6 282.55 Q-389.8 283.25 -388.9 283.3 L-385.65 283.65 Q-385.1 283.75 -384.6 284.15 L-385.45 285.7 Q-386.1 287.15 -387.9 287.2 -391.5 287.4 -389.65 288.7 -381.65 293.45 -377.3 288.35 L-377.8 287.65 -375.55 285.6 -375.1 284.55 -374.75 283.65 -375.4 280.95 -375.75 280.6 -375.5 280.4 -375.95 276.85 -377.25 275.25 Q-380.75 271.55 -385.6 272.75 -387.15 273.35 -388.25 274.45 L-387.8 274.55 Q-387.65 274.65 -387.8 274.9 L-388.7 275.7 M-369.65 280.7 L-370.95 280.55 -370.7 281.55 -369.65 280.7" fill="#000000" fill-opacity="0.2509804" fill-rule="evenodd" stroke="none"/>
  </g>
</svg>
