<?xml version="1.0" encoding="UTF-8" standalone="no"?>
<svg xmlns:xlink="http://www.w3.org/1999/xlink" height="31.8px" width="31.8px" xmlns="http://www.w3.org/2000/svg">
  <g transform="matrix(1.0, 0.0, 0.0, 1.0, 15.9, 15.9)">
    <path d="M6.95 -4.1 Q7.65 -7.0 7.85 -10.4 6.25 -11.65 4.45 -12.3 L2.0 -7.5 -1.55 -7.75 -1.55 -5.25 0.7 -3.7 -2.25 2.55 -2.25 -2.35 -7.15 -5.05 -6.05 -9.1 -3.15 -10.65 -3.15 -12.75 Q-6.25 -12.05 -8.65 -9.85 L-8.85 -9.7 -8.5 -7.95 -10.05 -5.95 -11.35 -6.7 Q-12.35 -5.05 -12.75 -3.15 L-11.65 -3.25 -11.4 1.0 -7.85 1.0 -6.5 4.35 -3.8 5.05 -7.85 7.5 -10.5 4.6 -11.35 6.45 -9.3 9.1 -7.6 10.55 Q-3.65 9.65 -0.7 7.7 L-1.8 5.7 -0.9 4.8 1.35 6.1 Q3.65 3.9 5.2 0.85 L2.9 -0.55 3.15 -3.5 6.95 -4.1 M11.25 -11.25 Q15.9 -6.6 15.9 0.0 15.9 6.6 11.25 11.25 6.6 15.9 0.0 15.9 -6.6 15.9 -11.25 11.25 -15.9 6.6 -15.9 0.0 -15.9 -4.45 -13.8 -7.95 -12.8 -9.7 -11.25 -11.25 -6.6 -15.9 0.0 -15.9 6.6 -15.9 11.25 -11.25" fill="#ffffff" fill-rule="evenodd" stroke="none"/>
  </g>
</svg>
