<?xml version="1.0" encoding="UTF-8" standalone="no"?>
<svg xmlns:xlink="http://www.w3.org/1999/xlink" height="18.0px" width="18.0px" xmlns="http://www.w3.org/2000/svg">
  <g transform="matrix(1.0, 0.0, 0.0, 1.0, -435.85, -464.15)">
    <path d="M435.85 464.15 L453.85 464.15 453.85 482.15 435.85 482.15 435.85 464.15 M440.0 477.0 L441.75 478.7 444.8 475.65 447.8 478.7 449.45 477.0 446.45 474.0 449.45 470.95 447.8 469.25 444.8 472.3 441.75 469.25 440.0 470.95 443.05 474.0 440.0 477.0" fill="url(#gradient0)" fill-rule="evenodd" stroke="none"/>
    <path d="M440.0 477.0 L443.05 474.0 440.0 470.95 441.75 469.25 444.8 472.3 447.8 469.25 449.45 470.95 446.45 474.0 449.45 477.0 447.8 478.7 444.8 475.65 441.75 478.7 440.0 477.0" fill="#180101" fill-rule="evenodd" stroke="none"/>
  </g>
  <defs>
    <linearGradient gradientTransform="matrix(4.0E-4, -0.0114, 0.0113, 4.0E-4, 444.85, 473.15)" gradientUnits="userSpaceOnUse" id="gradient0" spreadMethod="pad" x1="-819.2" x2="819.2">
      <stop offset="0.0" stop-color="#891818" stop-opacity="0.4"/>
      <stop offset="1.0" stop-color="#c40000" stop-opacity="0.56078434"/>
    </linearGradient>
  </defs>
</svg>
