<?xml version="1.0" encoding="UTF-8" standalone="no"?>
<svg xmlns:xlink="http://www.w3.org/1999/xlink" height="171.4px" width="733.05px" xmlns="http://www.w3.org/2000/svg">
  <g transform="matrix(1.0, 0.0, 0.0, 1.0, 55.85, 74.9)">
    <path d="M656.1 -74.4 Q662.95 -74.55 665.85 -66.05 L675.6 -37.65 Q677.0 -33.8 676.6 -30.35 675.7 -22.75 665.25 -18.65 L517.4 36.4 515.1 37.15 Q510.6 37.5 508.65 31.5 L504.1 15.05 Q503.55 12.65 503.7 11.0 504.05 6.35 508.3 4.25 L530.0 -7.2 647.2 -71.45 Q649.85 -73.05 651.85 -73.6 L656.1 -74.4 M489.0 14.3 Q493.85 12.8 495.45 18.9 L499.65 34.6 Q500.25 36.6 500.05 38.5 499.5 42.55 494.65 44.5 L421.7 71.7 420.55 72.0 Q418.1 72.1 417.2 68.75 L415.1 59.25 Q414.75 57.95 414.8 56.95 415.0 54.4 417.25 53.25 L486.85 15.25 Q488.05 14.55 489.0 14.3 M411.45 73.5 Q411.15 75.75 408.6 76.8 L368.85 91.65 368.2 91.8 Q366.95 91.85 366.4 89.8 L365.15 84.2 365.0 82.85 Q365.1 81.25 366.45 80.7 L404.6 59.95 Q405.25 59.45 405.75 59.35 408.35 58.65 409.2 62.2 L411.25 71.25 Q411.55 72.4 411.45 73.5 M257.95 87.05 Q257.75 85.65 256.1 85.2 L208.4 72.2 207.0 71.9 Q203.85 71.75 202.95 75.05 L200.5 83.7 Q200.15 84.85 200.3 85.8 200.7 87.85 203.75 88.4 L253.0 95.95 253.85 96.0 Q255.6 95.85 256.2 93.85 L257.75 88.35 257.95 87.05 M193.25 68.3 L115.7 47.15 113.4 46.7 Q108.3 46.4 106.85 51.8 L102.85 65.85 Q102.3 67.75 102.55 69.25 103.15 72.65 108.15 73.5 L188.2 85.8 189.6 85.9 Q192.45 85.65 193.45 82.4 L195.95 73.45 Q196.3 72.2 196.25 71.3 195.95 69.0 193.25 68.3 M93.45 41.65 L71.8 36.05 -33.65 6.95 Q-35.8 6.35 -37.45 6.25 -45.8 5.75 -48.2 14.6 L-54.7 37.65 Q-55.65 40.75 -55.2 43.2 -54.25 48.8 -46.0 50.15 L85.15 70.3 87.5 70.5 Q92.1 70.1 93.75 64.75 L97.9 50.05 Q98.45 48.0 98.35 46.55 97.85 42.75 93.45 41.65 Z" fill="none" stroke="#28160b" stroke-linecap="round" stroke-linejoin="round" stroke-width="1.0"/>
  </g>
</svg>
