<?xml version="1.0" encoding="UTF-8" standalone="no"?>
<svg xmlns:xlink="http://www.w3.org/1999/xlink" height="161.3px" width="771.75px" xmlns="http://www.w3.org/2000/svg">
  <g transform="matrix(1.0, 0.0, 0.0, 1.0, 385.9, 80.65)">
    <path d="M358.6 -23.55 Q372.1 -17.15 360.95 -0.2 356.6 6.4 363.55 11.15 387.85 27.65 385.65 53.3 385.4 56.15 382.5 58.25 361.85 73.15 334.85 65.35 322.5 61.8 312.0 69.1 289.65 84.6 272.85 66.7 265.8 62.6 259.25 68.3 253.7 73.15 247.1 71.7 246.7 70.65 247.0 69.5 247.75 66.9 248.85 64.3 250.0 61.55 251.65 59.0 252.9 57.1 254.85 55.95 258.6 54.1 262.45 52.4 264.35 51.5 266.3 50.7 279.2 45.2 293.15 41.15 298.85 39.5 301.4 33.85 311.4 11.65 334.6 1.7 338.3 0.1 340.05 -4.05 345.9 -18.05 358.6 -23.55 M353.5 -9.5 L353.95 -9.25 Q356.15 -12.8 355.85 -13.8 L353.5 -9.5 M-377.6 -29.2 Q-378.3 -27.2 -377.6 -24.8 L-377.65 -24.05 -377.85 -23.3 -378.25 -22.75 Q-379.0 -22.3 -379.85 -22.05 L-381.4 -21.6 -382.35 -21.6 -384.05 -22.2 -384.85 -22.8 -385.3 -23.55 -385.6 -24.3 -385.8 -25.05 -385.85 -25.8 -385.85 -26.55 -385.85 -28.05 -385.85 -29.55 -385.9 -31.0 Q-386.0 -32.2 -385.6 -33.3 L-383.95 -34.55 Q-382.3 -35.5 -381.0 -36.9 -378.65 -39.4 -375.8 -41.4 -372.0 -44.1 -367.35 -44.25 L-362.35 -43.75 -360.8 -44.25 Q-354.15 -46.15 -347.65 -43.6 L-346.35 -44.25 Q-343.65 -43.25 -342.1 -40.8 L-341.75 -40.2 Q-338.35 -37.4 -336.15 -33.1 -335.85 -32.55 -335.8 -31.8 -335.35 -26.85 -333.05 -22.8 L-332.1 -21.3 Q-317.15 -21.65 -304.35 -30.85 -297.35 -35.9 -296.95 -45.25 -296.65 -52.15 -292.4 -57.65 -282.9 -69.85 -268.55 -76.65 -262.95 -79.35 -257.35 -80.5 -224.7 -82.5 -209.65 -58.05 -208.05 -55.45 -211.65 -53.65 -228.25 -45.5 -248.95 -43.85 -254.75 -43.4 -256.75 -37.3 L-258.1 -32.2 Q-261.75 -31.15 -265.25 -29.5 -273.05 -25.8 -276.85 -18.3 -280.8 -10.4 -281.0 -1.25 -281.25 9.3 -273.95 13.25 -271.9 11.65 -272.3 8.75 -272.95 4.05 -271.55 -0.2 -268.95 -8.25 -261.75 -12.3 L-256.35 -15.2 Q-251.8 -6.85 -238.9 -2.7 -225.85 1.5 -223.0 14.7 L-223.2 14.8 Q-226.7 17.45 -227.2 21.5 L-227.7 28.25 Q-227.75 29.55 -226.95 30.5 -221.5 35.95 -215.35 31.8 -211.6 29.3 -210.55 25.45 -193.5 23.15 -181.75 36.85 -170.35 50.0 -189.8 55.9 -190.35 56.1 -190.85 56.45 L-191.1 56.85 Q-177.4 60.25 -163.25 59.4 -157.35 59.0 -153.9 62.45 -153.4 66.2 -157.2 67.05 -162.55 68.25 -167.35 68.55 -181.5 77.6 -201.35 78.1 -212.45 78.4 -223.4 77.95 L-221.6 77.3 Q-218.15 75.95 -218.45 72.25 -218.9 70.55 -220.5 71.0 -230.8 73.9 -240.6 69.45 -243.15 68.3 -244.95 66.25 -244.3 59.6 -246.95 53.75 -249.55 47.9 -253.05 42.6 -256.8 36.85 -263.95 37.0 -270.5 38.4 -276.5 41.85 -279.95 43.8 -279.95 47.75 L-279.95 52.25 -279.85 53.0 -279.45 53.75 -278.65 54.35 -276.95 55.0 -274.6 53.6 Q-272.8 52.25 -272.6 50.05 -272.5 48.45 -271.15 47.05 -269.6 45.45 -267.45 45.25 L-264.45 47.05 Q-259.65 50.45 -257.6 55.55 -255.95 59.55 -254.9 63.75 -254.25 66.35 -253.95 69.0 L-254.35 69.6 Q-255.8 70.9 -256.65 72.4 L-258.25 74.75 Q-283.4 71.05 -308.0 63.45 -295.85 54.05 -302.2 34.0 -309.5 10.85 -334.95 8.5 -352.15 9.4 -360.95 24.0 -363.5 28.25 -365.1 32.8 -377.3 19.4 -368.7 -0.3 -363.6 -12.0 -357.3 -23.4 -355.0 -27.6 -353.85 -32.3 -354.1 -34.45 -356.5 -35.3 -363.95 -37.95 -370.8 -35.05 L-372.15 -34.4 -373.05 -33.5 Q-375.4 -30.85 -377.6 -29.2 M-61.0 -4.65 Q-44.95 -0.75 -53.45 19.85 -59.0 33.3 -51.8 43.8 -49.4 47.3 -45.6 50.45 -26.55 66.3 -51.95 75.75 -84.25 87.75 -115.25 70.25 -121.25 66.85 -125.4 68.45 L-126.35 68.55 -127.8 68.1 -128.55 67.4 -128.8 66.7 -128.8 65.2 -128.65 63.95 -128.5 63.85 Q-129.0 63.6 -129.6 63.45 L-131.05 62.85 -131.8 62.15 -132.65 60.7 -132.65 59.95 -132.45 59.3 -131.25 57.85 Q-130.05 56.8 -128.4 56.6 L-125.9 56.2 -124.25 53.3 Q-120.35 45.3 -112.75 41.8 L-110.9 41.0 -110.05 40.7 Q-99.35 36.9 -87.9 36.45 -88.35 34.6 -88.1 32.7 L-85.75 16.35 Q-84.4 6.95 -78.2 -0.35 -74.55 -4.7 -69.4 -5.55 -64.6 -5.5 -61.0 -4.65 M-243.1 76.6 L-243.15 76.5 -243.0 76.6 -243.1 76.6" fill="#3a1e1b" fill-rule="evenodd" stroke="none"/>
    <path d="M126.65 -29.8 Q127.75 -38.15 131.6 -45.2 135.7 -52.7 141.65 -58.95 147.95 -65.55 156.6 -66.7 175.0 -70.3 177.1 -59.05 177.5 -56.95 177.3 -54.35 177.0 -50.0 173.15 -46.65 146.2 -23.6 168.95 4.5 174.6 11.5 183.7 10.65 213.4 7.9 221.55 32.35 224.5 41.2 216.35 46.5 193.5 61.45 176.25 40.9 167.9 30.95 156.6 26.25 150.9 23.9 145.35 27.4 122.7 41.5 101.45 31.0 L92.95 31.65 Q85.7 35.95 77.4 36.75 L74.8 36.8 72.25 36.55 Q66.0 35.05 60.05 32.35 56.85 30.9 56.25 27.5 L56.1 26.0 56.1 25.25 56.1 23.0 56.1 22.25 Q56.85 21.5 57.7 20.85 L62.65 17.2 Q63.6 16.6 64.65 16.1 L71.65 13.1 72.6 12.75 77.55 13.2 Q78.6 13.4 79.4 14.25 L80.1 15.5 79.9 16.3 Q79.6 17.8 78.35 18.05 L78.25 18.2 77.45 19.8 76.85 21.25 76.6 22.0 Q84.15 21.7 92.5 16.75 105.35 9.15 106.75 -4.75 108.35 -20.55 125.55 -24.0 L126.35 -24.5 Q126.35 -27.25 126.65 -29.8" fill="#3a1e1b" fill-rule="evenodd" stroke="none"/>
  </g>
</svg>
