<?xml version="1.0" encoding="UTF-8" standalone="no"?>
<svg xmlns:xlink="http://www.w3.org/1999/xlink" height="160.95px" width="717.45px" xmlns="http://www.w3.org/2000/svg">
  <g transform="matrix(1.0, 0.0, 0.0, 1.0, 358.7, 80.45)">
    <path d="M20.2 -38.7 Q20.6 -43.8 23.3 -48.15 25.75 -52.0 28.75 -53.95 L41.85 -53.3 Q49.4 -51.55 49.55 -44.7 49.75 -38.9 48.0 -33.45 L48.35 -32.8 Q50.5 -29.7 54.9 -31.6 58.7 -33.25 62.75 -33.0 L64.0 -32.7 Q67.65 -26.25 66.6 -19.0 65.35 -10.3 66.05 -1.8 66.95 9.6 74.05 17.4 82.9 27.15 93.25 34.8 L93.9 34.4 Q95.95 32.8 97.95 31.45 102.25 28.55 105.15 24.5 L110.75 16.55 Q122.85 14.05 134.65 17.75 156.1 24.4 172.5 13.55 172.65 11.9 172.35 10.4 171.3 4.6 172.25 -1.35 173.3 -8.2 180.1 -9.6 187.85 -11.2 195.5 -8.95 L199.45 -10.65 Q210.45 -15.3 219.15 -5.85 223.4 -1.25 223.35 5.05 223.35 8.05 225.0 10.8 L226.15 10.9 227.85 10.7 Q233.15 9.45 237.85 6.55 245.4 1.85 253.25 5.05 L253.7 5.8 Q254.15 6.85 254.15 8.05 254.15 9.6 253.4 10.85 252.1 13.0 251.25 15.35 250.2 18.0 250.0 20.8 L250.05 21.15 Q259.65 23.05 269.7 20.65 L273.75 19.55 Q275.0 9.65 280.95 2.1 291.15 -10.9 307.45 -3.8 L308.1 -3.5 308.5 -3.3 Q313.45 -0.8 313.65 6.05 314.1 21.65 323.5 33.3 L323.75 33.4 Q329.4 33.4 334.7 31.55 339.1 30.0 342.6 26.95 L341.75 26.3 341.55 25.5 Q341.5 25.15 341.6 24.8 341.85 24.05 342.45 23.55 343.0 23.15 343.7 22.9 L343.75 22.8 Q345.85 23.05 347.7 23.9 349.5 24.8 351.7 25.2 L355.7 26.1 357.0 26.55 357.45 27.3 357.75 28.0 358.45 29.55 358.7 30.3 358.75 31.05 Q358.9 33.05 357.55 34.35 356.85 35.1 357.0 36.3 357.15 37.45 356.65 38.5 L354.55 42.8 Q354.1 43.65 353.25 44.3 L352.55 44.05 Q351.6 42.9 351.6 41.3 L351.55 39.8 351.45 39.05 Q351.2 37.35 352.0 35.9 L352.5 34.55 352.35 34.15 351.1 35.3 Q347.65 37.0 343.9 36.15 L343.0 36.3 Q341.85 44.65 335.5 50.3 323.6 60.9 306.7 57.15 301.3 55.95 297.25 51.6 L296.2 50.35 Q292.4 45.35 294.75 39.3 L293.0 38.95 292.0 39.05 Q291.35 39.3 290.8 39.65 L290.15 40.35 Q290.0 40.65 290.0 41.05 292.8 49.35 289.3 57.45 282.85 72.4 267.9 66.25 260.0 63.05 251.45 60.75 L250.15 60.35 Q241.95 57.45 244.0 47.8 L244.1 47.55 234.75 49.0 Q228.4 50.2 223.75 46.3 L223.2 45.45 Q222.55 43.7 222.5 41.8 222.35 38.95 223.5 36.55 225.1 33.3 225.9 29.8 226.15 28.6 226.0 27.55 L225.45 27.1 Q221.6 26.35 217.9 24.7 213.65 22.85 210.25 24.3 209.6 25.7 209.55 27.3 209.35 33.25 211.2 38.7 213.3 45.15 215.7 51.6 217.45 56.35 216.0 61.05 214.05 63.05 211.45 64.0 195.45 69.9 181.25 62.8 L180.95 62.0 180.7 59.05 Q180.65 57.0 181.6 55.2 182.8 53.0 184.25 50.95 185.1 49.65 184.0 48.55 183.75 48.15 183.45 48.15 180.0 47.75 176.35 48.85 173.65 49.7 171.0 48.55 L170.3 47.75 169.85 47.0 169.7 46.3 169.45 45.55 169.0 44.8 168.6 44.0 168.5 43.3 168.45 43.0 Q156.35 40.35 146.15 46.5 144.85 47.25 144.0 48.55 L143.85 49.3 Q143.45 52.25 145.35 55.35 147.6 58.95 147.95 63.55 148.4 68.85 144.7 72.45 L144.0 73.05 Q112.2 74.7 82.45 67.9 L80.0 67.55 69.3 70.8 Q52.4 76.25 34.0 68.55 L33.3 67.75 Q31.15 65.05 31.35 61.75 31.65 57.35 33.25 53.4 35.15 48.85 37.45 44.5 L37.75 43.8 Q34.9 42.55 32.55 39.3 28.05 33.0 32.05 25.15 35.65 18.1 37.4 10.7 38.1 7.6 37.25 4.8 L36.5 4.05 Q32.85 0.8 27.6 2.75 27.15 2.9 26.75 3.3 L26.4 3.95 Q25.5 5.35 25.2 6.95 24.85 8.85 24.8 10.8 24.8 13.2 23.75 15.25 23.05 16.55 21.75 17.3 15.7 15.35 10.05 16.45 L-10.65 20.3 Q-16.65 21.4 -21.45 24.9 L-25.25 28.3 -26.25 28.45 -27.25 28.5 Q-27.65 31.25 -25.85 33.85 -25.6 34.15 -25.5 34.55 -23.4 35.45 -21.3 35.25 -17.4 34.85 -15.5 37.55 -19.6 43.75 -27.5 38.6 -31.95 35.7 -32.7 31.1 -33.25 27.95 -33.0 24.7 L-33.2 22.75 Q-32.75 12.9 -24.1 7.3 -19.5 4.3 -15.05 4.9 -9.9 5.55 -5.0 11.05 L-4.0 11.1 -1.75 10.5 1.25 9.6 Q1.9 7.0 2.8 4.35 4.9 -1.85 8.4 -7.1 10.7 -10.45 14.7 -11.3 16.65 -11.7 18.0 -13.2 18.45 -14.65 18.4 -16.2 18.25 -22.2 19.05 -28.1 L20.2 -38.7 M-342.35 -17.9 L-342.95 -18.45 Q-344.0 -25.0 -340.15 -29.55 L-318.55 -54.8 Q-315.3 -58.5 -312.9 -63.55 -307.1 -75.7 -295.2 -80.45 -260.45 -78.45 -268.3 -43.5 -274.25 -17.1 -251.0 -13.5 -239.7 -11.75 -228.65 -9.25 -228.1 -9.7 -227.2 -9.7 L-224.9 -8.35 -224.75 -8.3 -224.55 -8.2 -224.5 -8.2 -224.45 -8.2 -223.3 -7.75 Q-212.15 -3.35 -211.8 10.55 -211.7 14.5 -208.3 17.2 -192.95 29.35 -174.0 19.05 L-174.0 18.3 -174.0 16.8 -174.0 15.3 -174.0 13.8 -174.05 11.55 Q-174.25 9.8 -173.3 8.35 -173.0 7.8 -173.0 7.05 -167.75 4.8 -162.1 7.75 -153.75 12.1 -146.2 17.45 -138.55 22.95 -133.25 29.8 L-133.7 31.15 -136.55 35.7 Q-139.65 40.5 -137.45 45.65 -136.45 48.0 -135.15 49.95 -133.55 52.3 -131.5 54.05 L-128.85 55.95 -127.0 57.3 -126.75 58.05 -126.45 58.75 -126.05 59.55 -125.7 60.25 -125.25 61.05 -124.85 61.8 -124.65 62.5 -124.5 63.05 Q-123.45 63.8 -122.25 63.9 L-119.8 63.55 Q-114.9 61.65 -112.55 57.15 -110.3 52.8 -111.15 48.3 -111.55 46.3 -112.5 44.3 -114.45 40.3 -111.9 36.85 L-111.25 36.05 -110.65 35.5 Q-106.45 33.3 -104.4 35.0 L-101.25 37.45 Q-99.3 38.85 -97.65 40.7 L-95.5 43.05 -95.5 43.8 -95.5 44.55 -95.5 45.3 -95.5 46.05 -95.5 46.8 -95.35 48.25 -94.85 49.7 -93.85 52.0 -93.5 52.8 -92.2 53.4 -89.75 54.05 -89.6 54.1 -86.25 53.6 Q-84.25 53.35 -83.0 54.8 L-83.3 55.5 -83.75 56.3 -84.25 57.0 -85.0 57.8 -86.25 59.05 -97.15 58.6 Q-99.3 58.15 -101.15 56.9 -101.85 56.4 -103.0 56.55 -103.4 58.45 -102.1 60.15 -100.0 62.9 -100.1 66.3 L-100.15 67.3 -100.15 67.45 -100.15 67.6 -100.2 67.8 Q-100.5 71.0 -101.95 74.05 -102.75 75.85 -104.0 77.4 L-105.25 78.8 Q-118.1 82.9 -131.25 77.1 -136.65 74.7 -140.85 71.05 L-141.0 70.9 -141.2 70.75 Q-144.6 67.7 -147.25 63.8 L-147.25 63.05 -147.25 61.55 -147.25 60.05 -147.0 57.8 -146.6 56.25 -146.5 55.55 Q-147.1 54.9 -147.75 54.9 -151.95 54.7 -155.25 52.25 L-159.25 48.8 -159.25 47.3 -159.3 44.3 Q-159.35 42.25 -158.9 40.35 -158.35 38.0 -157.4 35.85 -157.0 34.9 -157.0 33.8 -159.5 30.35 -164.3 30.55 -170.55 30.8 -176.5 32.05 -178.05 37.0 -180.3 41.65 -185.5 52.25 -197.75 53.15 L-198.15 53.4 Q-205.2 58.05 -211.45 56.0 L-211.75 56.3 -211.65 55.9 Q-214.8 54.8 -217.7 52.05 L-217.7 51.3 -217.7 49.8 -217.8 49.05 Q-217.95 48.3 -218.4 47.65 L-219.65 45.35 -220.45 44.05 -227.0 43.85 Q-228.95 44.65 -230.95 43.5 L-231.55 43.05 Q-232.9 43.55 -234.2 44.3 -224.85 65.8 -253.3 67.05 -260.0 67.35 -265.65 63.9 -273.2 59.25 -277.05 51.45 -284.3 36.8 -282.4 19.5 L-282.2 16.55 Q-282.45 16.3 -282.7 16.3 L-285.25 16.45 -293.45 16.55 Q-296.35 13.3 -296.8 9.0 -297.4 3.1 -297.15 -2.95 -296.8 -11.1 -303.25 -14.9 L-305.2 -15.95 Q-313.5 -12.6 -314.5 -4.15 -315.75 5.75 -311.4 14.5 -308.95 19.5 -308.6 25.05 -308.4 28.85 -309.2 32.55 -311.6 34.55 -313.95 34.25 -323.7 32.85 -330.1 38.1 L-331.2 38.8 -333.45 38.15 Q-335.5 37.45 -336.8 35.65 L-339.3 32.3 Q-340.7 30.45 -341.45 28.3 -342.3 28.5 -344.15 30.35 -348.65 34.9 -353.3 30.9 -356.45 28.2 -358.7 24.3 L-358.65 23.55 -358.55 22.75 -358.45 22.05 -358.45 21.3 -358.4 19.8 -358.2 18.3 Q-357.35 19.05 -356.85 20.0 L-356.05 21.6 -355.55 21.35 -355.7 20.8 -355.65 20.3 -355.7 20.3 -355.65 20.25 -355.65 20.05 -355.35 19.35 -354.1 18.2 Q-353.6 17.9 -352.95 17.85 L-352.25 17.65 -352.2 17.55 -351.25 17.55 -349.95 17.1 Q-347.9 16.45 -346.3 15.2 L-343.7 13.05 -343.9 12.35 -344.95 10.75 -345.95 9.3 -346.7 7.7 -346.95 5.55 -346.7 2.55 -346.2 1.05 -345.4 0.35 -343.05 -1.3 -341.15 -2.65 -338.9 -4.0 Q-337.35 -4.7 -336.7 -5.95 L-336.95 -6.7 -337.5 -8.2 -338.2 -9.75 -339.15 -12.0 -340.15 -15.05 Q-340.75 -17.1 -342.35 -17.9 M-223.35 -2.15 L-223.25 -2.1 -223.25 -2.2 -223.35 -2.15 M-238.7 38.5 Q-239.3 38.85 -239.95 39.0 L-238.7 39.3 -238.7 38.5" fill="#6f453c" fill-opacity="0.6313726" fill-rule="evenodd" stroke="none"/>
  </g>
</svg>
