<?xml version="1.0" encoding="UTF-8" standalone="no"?>
<svg xmlns:xlink="http://www.w3.org/1999/xlink" height="102.45px" width="506.65px" xmlns="http://www.w3.org/2000/svg">
  <g transform="matrix(1.0, 0.0, 0.0, 1.0, 255.35, 43.0)">
    <path d="M34.85 -3.5 L34.35 -3.85 35.75 -3.75 35.6 -3.7 34.85 -3.5 M27.6 -29.0 L28.35 -28.3 28.8 -27.65 Q33.35 -21.15 40.5 -23.75 L44.95 -23.85 46.5 -24.0 47.05 -24.1 47.8 -22.6 Q47.55 -22.35 47.3 -22.35 L46.15 -22.45 46.15 -22.35 46.3 -21.6 47.1 -21.3 52.0 -20.15 52.7 -19.5 52.05 -18.85 51.35 -18.1 50.8 -17.4 50.05 -16.6 38.7 -15.1 Q34.25 -14.25 28.8 -15.35 L28.05 -16.1 Q26.95 -17.25 26.15 -18.55 L24.75 -20.85 Q24.3 -21.5 23.05 -21.6 L22.1 -20.8 Q20.8 -19.6 21.1 -17.85 21.4 -15.8 20.6 -14.1 19.95 -12.85 19.8 -11.35 L19.3 -11.15 Q14.4 -9.1 10.35 -12.1 9.4 -12.8 9.55 -14.35 L9.0 -14.85 Q4.15 -16.75 -1.95 -17.1 L-2.7 -17.85 Q-3.85 -19.05 -3.65 -20.9 L-3.45 -24.6 -3.45 -27.6 -4.15 -28.4 -4.4 -28.6 -7.95 -27.85 -7.95 -25.6 Q-7.95 -22.55 -8.95 -19.8 -10.1 -16.5 -12.8 -14.65 L-13.1 -14.1 Q-13.35 -13.0 -14.95 -12.85 -18.7 -10.3 -21.75 -12.1 -27.5 -15.45 -33.2 -14.1 L-33.25 -13.35 -33.45 -12.65 -34.05 -11.05 -34.05 -11.0 -33.2 -10.6 -33.65 -10.5 -34.2 -10.6 -34.7 -9.8 Q-34.8 -9.6 -35.2 -9.6 L-35.2 -10.35 -35.2 -10.85 Q-37.05 -11.55 -38.05 -13.45 L-38.1 -13.55 Q-37.55 -16.2 -36.5 -18.7 -36.0 -20.0 -35.15 -19.7 -22.7 -15.85 -17.65 -27.05 -15.2 -32.55 -11.15 -36.0 L-11.15 -37.15 -11.15 -37.75 -11.15 -38.65 -11.15 -39.75 -11.15 -40.15 -10.9 -41.25 -10.5 -42.0 -10.25 -42.4 Q-7.05 -43.85 -4.4 -41.9 L-3.5 -41.25 -1.3 -39.75 -0.1 -39.0 Q0.6 -38.55 0.95 -37.75 L1.0 -37.5 0.7 -36.75 0.3 -35.8 Q0.0 -35.2 0.05 -34.5 L0.1 -33.4 0.1 -33.0 Q0.7 -32.2 1.55 -31.55 2.75 -30.65 3.35 -29.5 L4.05 -27.75 4.1 -27.4 3.85 -26.7 3.25 -25.45 2.4 -24.3 Q1.95 -23.9 2.1 -23.25 L2.1 -22.9 Q4.05 -19.1 8.45 -19.4 12.65 -19.7 13.9 -23.05 14.35 -24.2 14.35 -25.5 L18.7 -27.75 14.7 -26.8 14.9 -26.95 16.95 -28.15 17.4 -28.4 16.75 -27.4 20.45 -28.75 20.5 -28.75 20.35 -28.5 21.45 -29.05 Q24.55 -30.0 27.6 -29.0 M250.65 23.05 Q251.45 24.1 251.3 25.4 L251.1 26.8 250.55 28.45 250.25 29.9 250.05 31.4 Q248.85 33.35 246.1 31.75 243.75 30.4 241.3 29.4 238.25 30.45 235.95 33.45 233.7 36.4 232.05 39.3 L230.55 42.15 Q214.25 46.05 206.8 33.35 206.0 32.0 205.95 30.6 205.7 24.2 208.4 18.55 L208.55 17.9 Q204.5 16.15 199.2 18.65 198.2 19.15 197.3 19.9 196.9 20.95 197.0 22.15 L197.05 24.4 196.85 26.6 196.3 28.15 Q194.05 29.55 191.3 30.0 189.45 30.3 188.3 31.9 187.9 32.95 188.0 34.15 L188.15 36.4 Q188.3 37.55 188.9 38.7 L189.05 39.4 Q187.15 42.85 183.15 44.5 176.7 47.15 171.3 43.15 170.15 41.95 170.15 40.15 170.15 38.3 170.95 36.95 171.75 35.7 171.5 34.15 L171.3 33.4 Q167.9 29.9 164.2 33.8 161.9 36.2 158.8 35.65 L158.0 33.65 156.95 31.3 Q156.55 30.4 155.8 29.65 152.65 28.85 149.65 31.3 148.75 32.0 148.05 32.15 L148.05 32.9 148.05 33.65 148.05 34.4 148.15 35.1 148.55 36.65 146.9 36.4 146.05 35.9 145.8 35.65 Q146.7 31.85 148.9 28.9 153.0 23.5 159.6 26.25 163.65 28.85 169.75 27.95 171.9 27.65 173.6 29.6 L173.6 30.0 173.6 30.35 173.6 30.75 173.65 31.1 173.95 31.5 174.1 31.85 174.2 32.25 Q177.2 33.35 180.45 32.3 185.35 30.8 188.8 27.15 L193.7 22.6 193.7 21.95 Q191.85 16.45 196.75 13.9 207.85 8.1 217.95 14.0 L217.4 15.05 214.8 18.75 Q213.8 20.05 213.7 21.85 213.65 23.25 214.45 24.1 221.25 26.55 226.25 21.55 230.8 17.0 236.95 17.6 L237.0 16.9 Q237.15 15.95 236.85 15.2 236.7 14.8 236.85 14.2 L236.95 13.1 237.1 12.0 Q239.1 10.6 241.65 11.0 L241.8 11.05 241.05 12.0 Q240.3 13.1 240.3 14.4 241.95 17.55 245.3 18.9 248.5 20.2 250.65 23.05 M-128.65 54.65 Q-131.4 57.7 -136.15 57.45 L-136.7 57.1 -138.3 56.15 -139.3 55.15 -140.1 54.25 -142.1 52.5 -142.4 52.2 -154.5 52.55 Q-168.9 49.2 -180.4 56.05 L-182.65 57.1 -184.4 56.85 Q-186.3 56.5 -187.95 55.75 L-190.55 54.55 -193.3 52.8 -193.65 52.0 -193.65 51.5 -193.65 50.95 -193.5 50.5 -192.7 49.85 -191.95 49.35 -191.4 48.85 -190.65 48.3 -190.3 48.05 -196.9 47.85 Q-197.4 47.85 -197.9 48.15 L-198.3 48.7 -198.6 49.7 -198.65 50.8 -198.65 51.85 -198.75 53.4 -198.9 54.5 Q-199.55 55.0 -200.35 55.35 -203.3 56.65 -206.7 56.75 -211.75 56.95 -215.65 55.2 L-215.65 54.65 -215.75 54.1 -216.0 53.65 -216.6 53.05 -217.0 52.75 -218.9 52.55 -224.8 54.85 Q-232.65 57.8 -237.95 52.6 -241.85 48.75 -239.55 44.2 L-239.4 43.7 Q-239.4 43.45 -239.55 43.25 L-240.1 42.65 -240.4 42.15 -240.75 41.65 -241.4 41.1 -243.05 40.45 Q-245.35 39.4 -247.85 40.5 -249.15 41.1 -250.65 41.1 L-253.9 40.75 Q-255.35 39.3 -255.35 37.55 -255.4 35.35 -255.05 33.2 L-254.4 32.55 Q-247.55 26.25 -238.25 26.9 -234.15 27.2 -232.95 30.8 -230.4 38.8 -222.4 39.25 L-221.15 38.25 Q-219.65 37.3 -218.6 35.8 L-217.2 34.15 Q-216.7 33.65 -216.0 33.35 L-215.75 33.25 -215.25 33.25 -212.0 33.25 -211.6 33.15 -211.0 32.85 Q-203.5 24.15 -194.35 31.9 -189.55 35.95 -182.65 34.35 L-181.95 35.2 Q-181.05 36.6 -181.65 38.1 L-182.6 40.5 -182.9 41.85 -182.9 43.0 -182.9 43.35 -181.65 44.5 -181.6 44.6 -180.75 45.15 Q-175.85 46.5 -171.15 44.55 L-169.85 44.15 -167.25 44.25 -145.5 45.35 Q-138.75 51.15 -129.05 49.75 -128.0 49.6 -127.25 49.05 -120.65 44.0 -114.0 48.25 -113.05 48.85 -112.4 49.6 -111.85 51.65 -112.2 53.5 -112.4 54.65 -111.9 56.25 L-112.5 56.65 Q-114.2 57.55 -116.15 58.05 -117.15 58.35 -118.05 58.8 -120.45 60.15 -122.7 58.75 -123.3 58.35 -124.15 58.2 L-124.15 57.85 -122.5 56.85 Q-121.65 56.4 -121.1 55.8 L-120.2 54.95 Q-119.2 54.25 -119.35 53.25 L-119.4 51.65 Q-120.05 51.2 -120.7 51.15 -122.4 51.05 -123.95 51.65 -126.95 52.8 -128.65 54.65" fill="#76454a" fill-rule="evenodd" stroke="none"/>
  </g>
</svg>
