<?xml version="1.0" encoding="UTF-8" standalone="no"?>
<svg xmlns:xlink="http://www.w3.org/1999/xlink" height="125.05px" width="510.65px" xmlns="http://www.w3.org/2000/svg">
  <g transform="matrix(1.0, 0.0, 0.0, 1.0, 255.35, 65.6)">
    <path d="M249.7 7.75 L248.25 8.7 247.85 8.9 Q245.25 10.4 242.3 10.5 L241.05 12.0 Q240.3 13.1 240.3 14.4 241.95 17.55 245.3 18.9 L248.25 20.6 Q249.6 21.65 250.65 23.05 251.45 24.1 251.3 25.4 L251.1 26.8 250.55 28.45 250.25 29.9 250.05 31.4 Q249.4 32.5 248.25 32.5 247.35 32.45 246.1 31.75 243.75 30.4 241.3 29.4 238.25 30.45 235.95 33.45 233.7 36.4 232.05 39.3 L230.55 42.15 Q214.25 46.05 206.8 33.35 206.0 32.0 205.95 30.6 205.7 24.2 208.4 18.55 L208.55 17.9 Q204.5 16.15 199.2 18.65 198.2 19.15 197.3 19.9 196.9 20.95 197.0 22.15 L197.05 24.4 196.85 26.6 196.3 28.15 Q194.05 29.55 191.3 30.0 189.45 30.3 188.3 31.9 187.9 32.95 188.0 34.15 L188.15 36.4 Q188.3 37.55 188.9 38.7 L189.05 39.4 Q187.15 42.85 183.15 44.5 176.7 47.15 171.3 43.15 170.15 41.95 170.15 40.15 170.15 38.3 170.95 36.95 171.75 35.7 171.5 34.15 L171.3 33.4 Q167.9 29.9 164.2 33.8 161.9 36.2 158.8 35.65 L158.0 33.65 156.95 31.3 Q156.55 30.4 155.8 29.65 152.65 28.85 149.65 31.3 148.75 32.0 148.05 32.15 L148.05 32.9 148.05 33.65 148.05 34.4 148.15 35.1 148.55 36.65 146.9 36.4 146.05 35.9 143.9 33.55 143.6 32.9 143.55 32.15 143.55 31.4 Q143.55 30.65 143.9 30.15 144.75 29.05 144.6 27.65 144.55 27.25 144.75 27.0 L145.3 26.4 145.7 26.15 Q146.25 24.55 147.8 23.45 153.75 19.05 159.8 21.4 158.7 21.75 157.65 22.25 L163.15 21.4 Q166.7 21.15 170.3 19.4 L171.5 19.75 Q172.55 20.15 173.45 20.8 L175.1 22.1 176.05 22.9 180.55 22.9 Q182.55 21.35 183.35 19.05 185.25 13.5 184.7 7.15 184.2 0.85 189.1 -3.0 193.0 -6.05 197.6 -8.0 L200.55 -9.1 201.15 -9.95 203.6 -15.1 Q204.75 -17.75 206.25 -20.5 207.9 -23.5 211.3 -24.6 L221.55 -24.35 222.35 -23.65 Q223.85 -22.25 224.9 -20.5 225.95 -18.9 227.55 -17.6 L228.0 -17.2 228.3 -17.35 228.55 -17.35 230.85 -15.15 Q231.95 -14.1 231.65 -13.6 231.45 -13.3 230.75 -13.25 L230.85 -13.1 Q233.4 -11.85 234.2 -8.35 234.7 -6.2 234.5 -4.3 L235.0 -3.45 Q235.4 -2.85 235.4 -2.25 L234.35 -3.25 233.65 -1.15 Q235.9 -0.5 236.55 1.4 L232.5 0.7 231.15 2.75 233.35 3.6 Q235.6 4.5 237.3 6.55 L243.9 5.85 Q244.2 5.75 244.55 6.15 L244.95 7.2 Q246.65 6.8 248.25 6.0 L248.5 5.9 249.7 7.75" fill="url(#gradient0)" fill-rule="evenodd" stroke="none"/>
    <path d="M248.5 5.9 Q250.15 4.95 251.65 3.55 254.6 0.8 255.3 3.9 L255.15 4.65 254.7 5.9 Q254.2 6.75 253.3 6.75 L253.4 6.15 253.55 5.4 253.45 5.0 249.7 7.75 248.5 5.9" fill="url(#gradient1)" fill-rule="evenodd" stroke="none"/>
    <path d="M-222.75 -12.35 L-218.65 -14.6 Q-217.6 -14.35 -217.15 -13.85 -212.15 -13.6 -207.5 -12.25 -199.9 -10.1 -201.9 -4.4 L-201.95 -4.2 -202.5 -2.4 Q-203.6 1.35 -203.9 5.3 L-203.6 5.6 -201.6 6.2 -194.9 7.25 -194.55 8.1 Q-193.55 9.1 -194.05 10.4 L-195.25 13.7 Q-196.1 16.45 -193.05 18.45 L-189.9 20.3 -189.65 20.35 -184.45 20.15 -183.65 19.95 Q-182.85 18.4 -182.7 16.05 L-182.3 13.45 Q-180.3 6.15 -168.2 12.75 -166.5 13.7 -166.55 15.9 L-166.65 21.15 -166.55 21.45 -159.25 22.95 Q-158.9 23.0 -158.65 23.3 L-158.65 23.8 -158.6 25.4 Q-158.55 26.25 -159.05 27.1 -160.0 28.55 -159.75 30.15 -159.4 32.15 -157.5 33.55 L-156.4 34.2 -155.65 34.7 -155.0 35.1 -154.9 35.15 -150.7 34.95 -149.65 34.75 -148.4 34.4 -147.75 33.8 -147.4 33.35 -147.1 32.8 -146.7 32.25 -146.5 31.75 -146.35 31.2 -146.15 30.7 -145.4 29.6 -144.9 29.1 -144.1 28.8 Q-142.3 28.55 -140.45 28.8 -139.9 28.8 -139.4 29.1 L-138.4 30.2 Q-137.75 31.15 -137.9 32.25 -138.1 33.9 -137.4 35.35 -136.15 38.0 -135.45 40.8 L-134.65 43.9 -133.9 44.4 -132.9 44.75 -128.4 44.95 -127.65 44.45 -126.9 43.9 -126.15 43.35 -125.55 42.75 -125.35 42.3 -125.15 41.95 -124.65 41.85 -118.45 42.15 Q-118.05 42.2 -117.65 42.5 L-116.9 43.55 -114.9 45.65 Q-113.25 47.05 -112.65 48.75 -111.8 51.25 -112.2 53.5 -112.4 54.65 -111.9 56.25 L-112.5 56.65 Q-114.2 57.55 -116.15 58.05 -117.15 58.35 -118.05 58.8 -120.45 60.15 -122.7 58.75 -123.3 58.35 -124.15 58.2 L-124.15 57.85 -122.5 56.85 Q-121.65 56.4 -121.1 55.8 L-120.2 54.95 Q-119.2 54.25 -119.35 53.25 L-119.4 51.65 Q-120.05 51.2 -120.7 51.15 -122.4 51.05 -123.95 51.65 -126.95 52.8 -128.65 54.65 -131.4 57.7 -136.15 57.45 L-136.7 57.1 -138.3 56.15 -139.3 55.15 -140.1 54.25 -142.1 52.5 -142.4 52.2 -154.5 52.55 Q-168.9 49.2 -180.4 56.05 L-182.65 57.1 -184.4 56.85 Q-186.3 56.5 -187.95 55.75 L-190.55 54.55 -193.3 52.8 -193.65 52.0 -193.65 51.5 -193.65 50.95 -193.5 50.5 -192.7 49.85 -191.95 49.35 -191.4 48.85 -190.65 48.3 -190.3 48.05 -196.9 47.85 Q-197.4 47.85 -197.9 48.15 L-198.3 48.7 -198.6 49.7 -198.65 50.8 -198.65 51.85 -198.75 53.4 -198.9 54.5 Q-199.55 55.0 -200.35 55.35 -203.3 56.65 -206.7 56.75 -211.75 56.95 -215.65 55.2 L-215.65 54.65 -215.75 54.1 -216.0 53.65 -216.6 53.05 -217.0 52.75 -218.9 52.55 -224.8 54.85 Q-232.65 57.8 -237.95 52.6 -241.85 48.75 -239.55 44.2 L-239.4 43.7 Q-239.4 43.45 -239.55 43.25 L-240.1 42.65 -240.4 42.15 -240.75 41.65 -241.4 41.1 -243.05 40.45 Q-245.35 39.4 -247.85 40.5 -249.15 41.1 -250.65 41.1 L-253.9 40.75 Q-255.35 39.3 -255.35 37.55 -255.4 33.55 -254.35 29.75 L-253.9 28.5 -253.8 28.35 Q-251.6 23.4 -243.85 20.55 -240.75 19.4 -238.4 17.45 L-239.3 16.35 -240.15 14.25 -240.4 11.65 Q-240.3 8.9 -237.1 7.2 -235.35 6.3 -233.9 5.1 -233.15 4.4 -232.95 3.55 L-232.25 0.35 Q-231.8 -1.5 -230.55 -3.2 -228.75 -8.5 -222.75 -12.35" fill="url(#gradient2)" fill-rule="evenodd" stroke="none"/>
    <path d="M-39.75 22.45 L-40.2 20.6 Q-40.6 18.7 -39.75 17.05 L-39.75 22.45" fill="url(#gradient3)" fill-rule="evenodd" stroke="none"/>
    <path d="M8.05 -62.85 L8.0 -62.1 7.75 -61.4 7.3 -60.55 Q6.95 -59.35 5.8 -58.4 4.7 -57.55 5.0 -56.1 L5.05 -55.35 5.05 -54.6 5.05 -54.1 5.1 -53.95 Q7.8 -53.1 10.3 -51.85 L11.05 -50.85 11.1 -50.1 Q11.3 -48.7 10.3 -47.65 8.7 -46.05 7.65 -44.4 L5.35 -40.65 Q4.7 -39.55 5.05 -38.1 L5.15 -37.35 5.45 -36.7 6.1 -36.15 7.45 -35.2 Q8.7 -34.25 9.8 -33.1 L15.5 -33.45 Q16.55 -33.6 17.55 -34.15 L19.3 -35.1 19.6 -35.85 20.05 -36.6 20.45 -37.4 20.7 -38.05 21.3 -38.85 21.45 -39.6 Q21.55 -40.9 21.25 -42.05 L20.15 -45.1 Q19.55 -46.35 19.45 -47.85 19.35 -49.3 20.55 -50.1 L21.35 -50.8 Q23.1 -52.1 25.25 -52.8 34.7 -56.05 34.05 -49.35 L34.6 -48.65 35.0 -48.05 35.1 -48.0 Q37.45 -47.55 39.45 -46.2 L41.05 -44.85 41.1 -44.1 Q41.35 -42.0 40.95 -40.15 40.35 -37.25 39.3 -34.65 38.25 -31.8 35.45 -29.5 L35.8 -29.1 36.5 -28.3 Q37.5 -26.9 38.85 -27.2 43.25 -28.15 46.25 -25.05 47.3 -23.95 47.8 -22.6 47.55 -22.35 47.3 -22.35 L46.15 -22.45 46.15 -22.35 46.3 -21.6 47.1 -21.3 52.5 -20.05 52.8 -19.6 52.05 -18.85 51.35 -18.1 50.8 -17.4 50.05 -16.6 38.7 -15.1 Q34.25 -14.25 28.8 -15.35 L28.05 -16.1 Q26.95 -17.25 26.15 -18.55 L24.75 -20.85 Q24.3 -21.5 23.05 -21.6 L22.1 -20.8 Q20.8 -19.6 21.1 -17.85 21.4 -15.8 20.6 -14.1 19.95 -12.85 19.8 -11.35 L19.3 -11.15 Q14.4 -9.1 10.35 -12.1 9.4 -12.8 9.55 -14.35 L9.0 -14.85 Q4.15 -16.75 -1.95 -17.1 L-2.7 -17.85 Q-3.85 -19.05 -3.65 -20.9 L-3.45 -24.6 -3.45 -27.6 -4.15 -28.4 -4.4 -28.6 -7.95 -27.85 -7.95 -25.6 Q-7.95 -22.55 -8.95 -19.8 -10.1 -16.5 -12.8 -14.65 L-13.1 -14.1 Q-13.35 -13.0 -14.95 -12.85 -18.7 -10.3 -21.75 -12.1 -27.5 -15.45 -33.2 -14.1 L-33.25 -13.35 -33.45 -12.65 -34.05 -11.05 -34.05 -11.0 -33.2 -10.6 -33.65 -10.5 -34.2 -10.6 -34.7 -9.8 Q-34.8 -9.6 -35.2 -9.6 L-35.2 -10.35 -35.2 -10.85 Q-37.05 -11.55 -38.05 -13.45 -39.15 -15.45 -39.75 -17.55 L-39.75 -22.95 -39.25 -23.75 Q-38.45 -24.85 -38.45 -26.1 L-37.65 -26.85 -36.65 -27.55 Q-34.0 -29.1 -31.55 -28.2 -29.7 -27.5 -27.7 -27.1 L-26.95 -27.65 -25.3 -28.85 Q-23.4 -29.95 -21.7 -31.3 -20.15 -32.5 -19.7 -33.85 -22.3 -37.1 -24.35 -40.65 -25.35 -42.4 -25.8 -44.15 L-26.05 -45.4 Q-27.25 -47.7 -26.85 -50.9 L-26.75 -51.9 -26.8 -52.0 -26.75 -52.0 -26.7 -53.1 -25.95 -53.9 -23.9 -55.6 -23.8 -55.65 Q-22.95 -57.25 -21.5 -58.7 L-20.7 -59.35 -19.45 -59.25 Q-15.65 -62.35 -10.15 -63.75 -7.45 -64.4 -4.7 -65.6 L3.55 -65.0 Q5.65 -64.8 7.3 -63.55 L8.05 -62.85" fill="url(#gradient4)" fill-rule="evenodd" stroke="none"/>
  </g>
  <defs>
    <linearGradient gradientTransform="matrix(-0.0013, 0.0435, -0.0656, -0.002, 198.0, 10.5)" gradientUnits="userSpaceOnUse" id="gradient0" spreadMethod="pad" x1="-819.2" x2="819.2">
      <stop offset="0.0" stop-color="#404762"/>
      <stop offset="1.0" stop-color="#5f4343"/>
    </linearGradient>
    <linearGradient gradientTransform="matrix(-0.0017, 0.0541, -0.3111, -0.0096, 0.35, -1.15)" gradientUnits="userSpaceOnUse" id="gradient1" spreadMethod="pad" x1="-819.2" x2="819.2">
      <stop offset="0.0" stop-color="#404762"/>
      <stop offset="1.0" stop-color="#5f4343"/>
    </linearGradient>
    <linearGradient gradientTransform="matrix(-0.0013, 0.0433, -0.0878, -0.0027, -182.9, 22.0)" gradientUnits="userSpaceOnUse" id="gradient2" spreadMethod="pad" x1="-819.2" x2="819.2">
      <stop offset="0.0" stop-color="#404762"/>
      <stop offset="1.0" stop-color="#5f4343"/>
    </linearGradient>
    <linearGradient gradientTransform="matrix(-0.0011, 0.0347, -0.0568, -0.0017, 6.75, 3.2)" gradientUnits="userSpaceOnUse" id="gradient3" spreadMethod="pad" x1="-819.2" x2="819.2">
      <stop offset="0.0" stop-color="#404762"/>
      <stop offset="1.0" stop-color="#5f4343"/>
    </linearGradient>
    <linearGradient gradientTransform="matrix(-0.0011, 0.0347, -0.0568, -0.0017, 6.75, -36.8)" gradientUnits="userSpaceOnUse" id="gradient4" spreadMethod="pad" x1="-819.2" x2="819.2">
      <stop offset="0.0" stop-color="#404762"/>
      <stop offset="1.0" stop-color="#5f4343"/>
    </linearGradient>
  </defs>
</svg>
