<?xml version="1.0" encoding="UTF-8" standalone="no"?>
<svg xmlns:xlink="http://www.w3.org/1999/xlink" height="115.15px" width="777.9px" xmlns="http://www.w3.org/2000/svg">
  <g transform="matrix(1.0, 0.0, 0.0, 1.0, 387.6, 57.55)">
    <path d="M110.35 -1.3 Q109.4 -3.85 109.9 -6.9 L112.2 -20.6 Q113.9 -30.7 123.45 -33.2 L123.5 -33.45 Q129.75 -33.25 133.55 -28.0 137.3 -22.85 136.95 -15.9 136.6 -9.8 135.0 -3.95 L134.8 -3.65 136.15 -2.75 Q138.1 -1.4 138.75 0.65 L139.0 0.05 140.6 -1.3 Q141.5 -1.95 142.55 -2.2 L145.45 -2.7 145.5 -2.95 Q147.25 -2.45 148.75 -1.55 150.5 -0.45 151.75 1.2 152.75 2.55 153.3 4.1 L153.5 5.45 154.45 6.5 155.5 8.0 155.9 9.5 155.8 10.9 Q155.25 12.5 154.25 13.8 L151.45 16.9 148.5 19.5 144.2 19.25 135.85 19.5 Q131.75 20.6 129.0 17.5 128.5 16.75 128.35 15.9 128.0 14.5 128.0 13.0 128.0 11.5 128.3 10.05 128.8 7.85 127.95 5.7 L126.2 2.35 125.85 1.8 Q121.8 3.65 117.5 4.55 L116.05 4.1 115.4 4.95 Q114.25 6.5 112.7 7.5 110.2 9.2 108.95 11.45 L108.0 13.0 Q103.25 12.75 99.3 10.85 94.25 8.45 87.95 10.25 L87.7 10.45 Q86.2 11.55 84.45 12.15 L84.15 12.75 81.75 16.15 Q80.75 17.5 79.55 18.1 L75.7 18.3 Q75.5 18.25 75.5 17.5 L75.5 16.0 75.5 15.4 Q73.85 16.6 72.0 17.5 L68.05 16.3 66.45 15.6 63.1 13.8 Q60.6 12.35 61.0 9.5 L61.0 8.0 61.05 6.5 Q61.25 5.0 61.95 3.75 64.0 0.35 68.0 0.75 L68.0 0.5 71.85 1.0 Q74.5 1.75 76.65 3.45 L77.85 4.6 78.55 3.6 80.05 2.1 Q80.75 1.55 81.55 1.3 L83.45 0.8 83.5 0.55 Q89.25 -0.7 89.75 4.2 L96.25 4.55 96.45 3.7 Q97.0 2.05 98.25 0.8 101.3 -2.25 105.5 -2.2 L105.5 -2.45 108.45 -1.3 109.65 -0.65 110.35 -1.3 M203.5 -4.95 Q222.8 1.4 215.75 13.9 L216.05 14.0 217.95 12.85 219.65 11.65 219.8 11.6 Q220.7 5.15 225.35 -0.35 233.9 -10.4 245.55 -13.95 261.05 -12.6 266.5 2.4 269.45 10.55 267.7 17.9 L272.1 16.05 271.55 15.55 Q270.55 14.55 270.05 13.05 L270.7 10.1 Q271.5 7.3 273.15 4.95 275.45 1.65 279.55 1.8 L279.55 1.55 Q281.3 1.7 282.5 2.45 L282.4 0.5 Q281.95 -3.5 282.7 -6.75 282.05 -16.25 286.7 -24.45 291.85 -33.45 301.55 -35.45 312.65 -33.55 315.4 -22.55 316.6 -17.6 315.75 -13.05 319.85 -18.15 327.55 -20.45 L329.65 -20.55 Q361.2 -22.15 360.35 5.0 L360.65 4.65 Q361.8 3.55 363.55 3.05 L366.55 4.1 369.1 4.85 Q370.8 5.3 372.35 6.0 373.05 6.3 373.55 7.05 L372.65 8.6 371.95 10.0 371.6 10.9 372.2 11.9 Q373.55 14.0 373.85 16.5 L374.05 19.5 374.05 21.0 374.15 22.5 374.5 25.5 374.55 27.0 Q375.8 27.75 376.45 27.4 378.95 25.95 382.05 26.05 385.55 26.25 388.9 27.5 389.55 27.75 390.05 28.5 391.15 31.75 387.7 33.0 384.15 34.3 381.45 36.9 L380.0 37.85 378.1 38.2 369.05 37.5 367.3 34.7 Q365.6 32.55 365.55 30.0 L365.55 27.0 365.55 25.5 365.65 24.0 365.9 22.0 365.2 22.7 Q362.1 25.85 358.35 28.2 357.05 29.05 355.55 29.55 353.8 29.05 352.2 28.25 L351.5 27.85 Q345.65 32.05 335.8 31.15 L335.6 31.15 334.05 32.5 330.1 32.2 Q327.3 31.75 324.85 30.45 L321.5 28.1 319.55 26.5 318.55 26.25 316.05 26.2 308.55 25.5 Q306.0 22.9 303.9 19.95 302.25 17.75 301.7 14.95 L301.45 13.5 300.85 12.1 Q299.0 9.4 299.45 6.05 L295.55 7.55 Q290.9 6.65 287.9 4.3 L287.85 4.8 Q286.05 19.9 269.9 24.55 L264.2 26.05 262.4 28.5 Q253.8 39.45 239.55 40.05 225.95 36.85 221.4 24.6 214.1 26.7 207.55 23.3 200.4 28.7 194.55 23.85 L194.45 23.9 192.45 25.35 188.6 27.65 Q179.9 32.8 170.85 30.0 169.25 29.5 168.0 28.0 168.0 26.5 168.25 25.05 168.7 22.25 170.85 20.3 L171.9 18.95 172.6 17.55 173.6 16.05 175.0 14.5 176.5 13.0 180.0 12.5 183.05 12.8 187.65 13.5 Q184.25 3.65 195.55 -1.9 199.75 -4.0 203.5 -4.95 M47.95 19.25 Q49.15 24.15 43.95 24.9 38.65 25.7 37.0 21.0 L37.0 19.5 Q37.0 18.75 37.3 18.15 37.75 17.25 38.65 16.8 L41.9 15.3 42.0 15.0 Q46.8 14.65 47.95 19.25 M-346.6 -57.0 Q-340.1 -56.5 -333.75 -57.25 -321.85 -58.75 -313.25 -52.15 -304.6 -45.55 -303.35 -33.95 -302.8 -29.2 -300.6 -24.95 L-300.05 -24.0 -299.6 -23.7 -297.1 -23.85 -286.6 -24.45 -284.1 -23.95 -283.2 -22.4 -282.5 -21.0 -281.65 -19.45 Q-279.95 -16.45 -278.95 -13.2 -277.85 -9.7 -277.7 -5.95 -277.6 -1.9 -275.1 1.55 -274.6 2.05 -274.0 2.15 L-272.7 1.9 -271.5 1.3 Q-261.25 -2.65 -251.5 1.7 -245.9 4.2 -241.1 -0.45 L-240.2 -2.0 -239.7 -3.5 -239.6 -4.95 Q-239.6 -7.95 -238.85 -10.8 L-236.65 -18.15 Q-235.2 -22.55 -232.1 -25.95 L-230.5 -26.8 -228.55 -27.3 -224.65 -27.1 Q-221.0 -26.4 -218.0 -24.3 -213.45 -21.15 -212.75 -15.0 L-212.1 -11.95 -212.0 -11.45 -207.6 -11.65 -204.6 -11.95 -195.7 -11.7 Q-194.7 -14.2 -192.7 -16.15 -190.75 -18.0 -188.5 -19.0 -188.5 -20.75 -187.9 -22.45 L-186.55 -25.5 -185.05 -27.0 -183.4 -28.15 -180.15 -29.25 -180.05 -29.5 -176.1 -29.25 -173.05 -28.5 -171.75 -26.9 Q-171.3 -26.25 -171.15 -25.5 L-170.15 -22.7 -168.25 -19.4 -167.55 -18.0 -167.55 -16.5 -167.55 -15.0 Q-167.55 -14.25 -167.8 -13.6 -168.3 -12.0 -169.15 -10.55 L-170.05 -9.0 -171.15 -8.1 Q-171.55 -7.75 -172.1 -7.7 L-180.05 -7.0 -183.45 -7.45 -183.55 -6.0 Q-183.55 -0.85 -187.85 2.6 -188.3 3.0 -189.05 3.0 L-189.25 1.55 Q-189.05 0.25 -189.45 -0.2 -190.35 -1.25 -191.6 -2.15 -191.55 0.7 -191.8 3.5 -192.15 7.8 -189.55 11.05 L-187.55 12.5 Q-186.8 13.05 -186.05 13.05 -178.8 13.3 -172.15 11.2 -169.0 10.25 -165.55 12.55 L-164.25 14.15 Q-163.8 14.8 -163.7 15.55 L-163.5 17.05 Q-163.3 18.55 -162.75 19.9 -162.05 21.55 -161.65 23.2 -161.3 24.55 -161.55 26.05 -163.05 27.3 -164.8 27.75 L-170.55 28.7 Q-182.3 29.35 -190.9 23.0 -193.45 21.15 -196.05 19.55 -202.0 23.05 -208.45 25.35 -229.7 33.05 -248.95 44.55 -271.9 58.3 -298.1 57.55 L-299.6 56.05 -301.1 54.55 -302.65 53.1 Q-306.95 49.55 -308.05 44.45 -309.15 39.4 -308.65 33.5 -308.3 29.6 -307.1 26.05 -307.85 25.55 -308.65 25.5 -310.85 25.3 -312.95 26.0 -313.85 26.3 -314.45 27.15 L-316.15 30.0 -318.8 34.45 -320.1 36.05 Q-322.35 37.3 -324.75 37.85 L-330.5 38.05 Q-337.8 36.8 -342.5 30.95 -346.25 26.2 -348.1 20.55 L-350.1 20.3 -350.65 20.4 -352.65 20.95 Q-359.75 22.05 -363.55 16.2 -365.65 13.0 -367.9 10.1 L-368.9 9.7 Q-371.35 8.7 -372.1 12.0 L-372.1 13.5 Q-372.1 15.0 -372.45 16.4 -373.4 20.05 -376.6 21.55 -380.5 23.45 -384.35 20.6 L-387.1 18.0 -387.5 16.45 -387.6 15.0 Q-387.6 14.25 -387.25 13.85 -385.85 12.5 -384.0 12.0 L-380.1 11.5 -380.1 10.0 -380.1 8.5 -379.85 7.1 Q-379.1 5.5 -378.8 3.85 -378.2 0.35 -374.1 0.25 L-374.1 0.0 -371.8 0.1 Q-370.8 -0.5 -369.6 -0.7 -361.45 -1.85 -352.25 -3.7 -352.1 -3.7 -352.1 -4.45 L-352.1 -5.95 -352.1 -7.45 -352.1 -8.95 Q-352.1 -11.2 -351.7 -13.4 -351.1 -16.45 -349.2 -18.7 -347.05 -21.2 -346.6 -23.95 L-348.2 -26.95 -349.15 -28.4 Q-352.9 -33.1 -354.3 -38.9 -355.95 -45.5 -352.85 -51.35 -350.4 -55.95 -346.6 -57.0 M-130.05 -9.85 Q-126.55 -9.5 -123.3 -8.35 -120.8 -7.5 -118.7 -5.85 -117.05 -4.5 -115.55 -3.0 L-115.05 -1.5 -114.65 0.0 -114.55 1.5 -114.55 3.0 -114.55 4.5 -113.05 6.0 Q-112.55 6.5 -112.1 6.45 -107.8 6.0 -103.6 4.75 L-100.05 3.5 -98.1 3.7 Q-96.8 4.0 -95.75 4.75 L-94.45 5.95 -93.05 7.5 -92.05 8.5 -88.15 7.7 Q-84.45 6.65 -81.05 8.45 -75.1 11.6 -70.0 15.55 -68.8 16.5 -68.05 18.0 -68.75 20.75 -71.25 22.15 -78.65 26.35 -85.15 21.65 -90.9 17.5 -97.55 14.0 -100.05 14.3 -102.35 15.15 L-104.6 15.9 Q-104.95 17.15 -105.75 18.35 L-107.0 20.05 -108.15 21.4 Q-109.55 23.0 -111.25 24.25 -112.55 25.25 -114.05 26.0 L-118.0 25.7 -120.55 25.0 Q-123.95 21.85 -125.15 17.4 -125.55 16.0 -125.55 14.5 -125.55 11.45 -125.0 8.5 L-124.85 8.0 Q-126.2 5.85 -127.05 3.5 -128.55 4.25 -129.35 5.45 -131.6 8.8 -135.3 10.5 -144.4 14.7 -149.1 6.25 -149.8 5.0 -150.05 3.5 -150.05 2.0 -149.6 0.65 -149.05 -1.0 -148.0 -2.45 -146.6 -4.4 -144.7 -5.7 -139.8 -9.15 -134.1 -9.75 L-134.05 -10.0 -130.05 -9.85" fill="#698d58" fill-rule="evenodd" stroke="none"/>
  </g>
</svg>
