<?xml version="1.0" encoding="UTF-8" standalone="no"?>
<svg xmlns:xlink="http://www.w3.org/1999/xlink" height="166.55px" width="174.5px" xmlns="http://www.w3.org/2000/svg">
  <g transform="matrix(1.0, 0.0, 0.0, 1.0, 87.25, 83.3)">
    <path d="M-75.45 -80.55 Q-77.15 -79.1 -77.7 -81.5 -78.0 -83.1 -75.55 -83.3 L-75.05 -83.3 Q-74.15 -81.7 -75.45 -80.55 M-86.55 -55.3 Q-84.65 -55.4 -85.05 -53.65 -85.5 -52.0 -86.5 -52.8 -87.7 -53.65 -86.95 -55.0 L-86.55 -55.3 M-52.3 -47.8 L-51.85 -45.55 Q-51.65 -44.4 -52.4 -43.7 -53.05 -43.05 -54.05 -42.8 L-54.4 -44.35 -54.15 -45.75 -53.25 -47.25 -52.55 -47.75 -52.3 -47.8 M-48.55 -81.3 Q-46.65 -81.4 -46.65 -79.55 -46.7 -77.35 -48.55 -78.75 -49.7 -79.65 -48.95 -81.0 L-48.55 -81.3 M-71.35 -36.4 Q-72.6 -37.2 -71.55 -38.05 -69.95 -38.05 -69.2 -37.5 -67.35 -36.1 -68.7 -35.85 -70.05 -35.55 -71.35 -36.4 M-55.05 -10.6 Q-55.4 -8.9 -56.6 -9.6 -58.1 -10.45 -57.1 -12.2 L-56.55 -12.55 Q-54.65 -12.3 -55.05 -10.6 M1.95 -5.3 Q2.9 -4.3 1.8 -3.65 1.3 -3.3 0.9 -3.9 -0.1 -5.25 1.45 -5.3 L1.95 -5.3 M46.7 54.2 Q47.95 55.9 46.6 57.35 44.7 59.35 44.5 56.7 44.3 54.4 46.7 54.2 M33.7 59.95 Q34.55 60.7 34.4 61.1 34.2 61.8 33.2 61.45 32.05 61.05 33.1 60.1 L33.7 59.95 M85.45 80.45 Q87.3 80.35 87.25 82.15 87.15 84.1 85.35 82.65 83.6 81.2 85.45 80.45 M-4.3 24.95 Q-3.15 26.45 -4.65 27.5 -6.7 28.95 -6.5 26.7 -6.4 25.0 -4.3 24.95 M-25.3 18.95 Q-25.2 20.35 -26.2 21.6 -27.5 23.25 -27.7 21.35 -27.85 19.85 -26.3 19.25 L-25.3 18.95 M-14.05 39.7 Q-12.25 41.15 -13.35 42.95 -15.05 45.7 -15.7 42.7 -16.3 39.7 -14.05 39.7" fill="#a4ff66" fill-rule="evenodd" stroke="none"/>
  </g>
</svg>
