<?xml version="1.0" encoding="UTF-8" standalone="no"?>
<svg xmlns:xlink="http://www.w3.org/1999/xlink" height="160.95px" width="784.35px" xmlns="http://www.w3.org/2000/svg">
  <g transform="matrix(1.0, 0.0, 0.0, 1.0, 392.2, 80.45)">
    <path d="M345.55 -31.75 L386.85 -29.25 386.85 -41.55 392.15 -41.2 370.05 80.5 327.9 72.85 345.55 -31.75" fill="url(#gradient0)" fill-rule="evenodd" stroke="none"/>
    <path d="M327.9 72.85 L320.35 71.5 332.15 -26.45 342.5 -31.95 345.55 -31.75 327.9 72.85" fill="url(#gradient1)" fill-rule="evenodd" stroke="none"/>
    <path d="M149.15 40.4 L106.75 32.7 110.8 11.85 120.3 -36.7 120.5 -36.8 148.8 -32.9 148.8 -32.95 154.0 -33.55 149.15 40.4" fill="url(#gradient2)" fill-rule="evenodd" stroke="none"/>
    <path d="M160.75 42.5 L149.15 40.4 154.0 -33.55 165.6 -34.9 172.3 -34.5 170.85 -7.7 160.75 42.5" fill="url(#gradient3)" fill-rule="evenodd" stroke="none"/>
    <path d="M94.45 30.45 L81.45 28.1 93.55 -41.55 102.1 -36.45 119.6 -36.45 120.3 -36.7 110.8 11.85 96.5 23.0 94.45 30.45" fill="url(#gradient4)" fill-rule="evenodd" stroke="none"/>
    <path d="M81.45 28.1 L49.55 22.3 52.8 -3.85 52.6 -4.05 45.15 -13.6 50.65 -43.9 91.6 -42.95 92.1 -42.45 93.55 -41.55 81.45 28.1" fill="url(#gradient5)" fill-rule="evenodd" stroke="none"/>
    <path d="M106.75 32.7 L94.45 30.45 96.5 23.0 110.8 11.85 106.75 32.7" fill="url(#gradient6)" fill-rule="evenodd" stroke="none"/>
    <path d="M167.25 43.65 L160.75 42.5 170.85 -7.7 168.6 36.95 167.25 43.65" fill="url(#gradient7)" fill-rule="evenodd" stroke="none"/>
    <path d="M168.3 43.85 L167.25 43.65 168.6 36.95 168.3 43.85" fill="url(#gradient8)" fill-rule="evenodd" stroke="none"/>
    <path d="M204.35 50.4 L168.3 43.85 168.6 36.95 170.85 -7.7 172.3 -34.5 216.8 -31.95 208.4 39.05 204.35 50.4" fill="url(#gradient9)" fill-rule="evenodd" stroke="none"/>
    <path d="M45.15 -13.6 L34.3 -27.5 37.2 -50.15 49.6 -43.95 50.2 -43.95 50.2 -43.9 50.65 -43.9 45.15 -13.6" fill="url(#gradient10)" fill-rule="evenodd" stroke="none"/>
    <path d="M49.55 22.3 L46.25 21.7 47.05 20.05 43.9 19.45 50.0 7.8 47.6 6.75 52.6 -4.05 52.8 -3.85 49.55 22.3" fill="url(#gradient11)" fill-rule="evenodd" stroke="none"/>
    <path d="M252.85 59.2 L207.05 50.9 208.4 39.05 216.8 -31.95 252.6 -31.95 257.7 -31.3 252.85 59.2" fill="url(#gradient12)" fill-rule="evenodd" stroke="none"/>
    <path d="M258.25 60.2 L252.85 59.2 257.7 -31.3 283.15 -28.2 258.25 60.2" fill="url(#gradient13)" fill-rule="evenodd" stroke="none"/>
    <path d="M320.35 71.5 L258.25 60.2 283.15 -28.2 328.3 -24.45 332.15 -26.45 320.35 71.5" fill="url(#gradient14)" fill-rule="evenodd" stroke="none"/>
    <path d="M207.05 50.9 L204.35 50.4 208.4 39.05 207.05 50.9" fill="#443f2b" fill-rule="evenodd" stroke="none"/>
    <path d="M-177.05 -44.15 L-168.35 -43.95 -151.35 -48.95 -115.5 -48.95 -104.3 10.0 -139.05 16.65 -152.65 -32.9 -148.4 18.45 -170.6 22.65 -177.05 -44.15" fill="url(#gradient15)" fill-rule="evenodd" stroke="none"/>
    <path d="M-104.3 10.0 L-115.5 -48.95 -113.35 -48.95 -113.35 -48.3 -99.0 -51.05 -94.6 -16.0 -91.4 7.55 -104.3 10.0" fill="url(#gradient16)" fill-rule="evenodd" stroke="none"/>
    <path d="M-177.05 -44.15 L-170.6 22.65 -235.45 35.05 -248.75 -44.45 -244.45 -45.9 -244.45 -45.95 -177.05 -44.15" fill="url(#gradient17)" fill-rule="evenodd" stroke="none"/>
    <path d="M-262.85 -42.45 L-256.1 -42.0 -248.75 -44.45 -235.45 35.05 -254.75 38.7 -262.85 -42.45" fill="url(#gradient18)" fill-rule="evenodd" stroke="none"/>
    <path d="M-302.55 -44.1 L-299.35 -44.95 -262.85 -42.45 -254.75 38.7 -290.35 45.5 Q-297.0 0.8 -302.55 -44.1" fill="url(#gradient19)" fill-rule="evenodd" stroke="none"/>
    <path d="M-302.55 -44.1 Q-297.0 0.8 -290.35 45.5 L-313.55 49.95 Q-321.1 7.85 -328.85 -37.6 L-326.35 -37.95 -302.55 -44.1" fill="url(#gradient20)" fill-rule="evenodd" stroke="none"/>
    <path d="M-148.4 18.45 L-152.65 -32.9 -139.05 16.65 -148.4 18.45" fill="url(#gradient21)" fill-rule="evenodd" stroke="none"/>
    <path d="M-313.55 49.95 L-365.45 59.85 -392.2 -80.45 -379.35 -79.15 -379.35 -30.85 -328.85 -37.6 Q-321.1 7.85 -313.55 49.95" fill="url(#gradient22)" fill-rule="evenodd" stroke="none"/>
  </g>
  <defs>
    <linearGradient gradientTransform="matrix(0.032, -0.2095, -0.0304, -0.0025, 341.05, 128.45)" gradientUnits="userSpaceOnUse" id="gradient0" spreadMethod="pad" x1="-819.2" x2="819.2">
      <stop offset="0.0" stop-color="#464639"/>
      <stop offset="0.16862745098039217" stop-color="#615b49"/>
      <stop offset="1.0" stop-color="#645b3e"/>
    </linearGradient>
    <linearGradient gradientTransform="matrix(0.0098, -0.0605, -0.0085, -0.001, 335.8, -14.15)" gradientUnits="userSpaceOnUse" id="gradient1" spreadMethod="pad" x1="-819.2" x2="819.2">
      <stop offset="0.0" stop-color="#443f2b"/>
      <stop offset="1.0" stop-color="#343c4b"/>
    </linearGradient>
    <linearGradient gradientTransform="matrix(0.022, -0.2111, -0.0408, 0.0031, 113.45, 97.8)" gradientUnits="userSpaceOnUse" id="gradient2" spreadMethod="pad" x1="-819.2" x2="819.2">
      <stop offset="0.0" stop-color="#594737"/>
      <stop offset="0.6549019607843137" stop-color="#645b3e"/>
      <stop offset="1.0" stop-color="#363c45"/>
    </linearGradient>
    <linearGradient gradientTransform="matrix(4.0E-4, -0.0564, -0.0181, 0.0069, 159.3, -45.9)" gradientUnits="userSpaceOnUse" id="gradient3" spreadMethod="pad" x1="-819.2" x2="819.2">
      <stop offset="0.0" stop-color="#443f2b"/>
      <stop offset="1.0" stop-color="#343c4b"/>
    </linearGradient>
    <linearGradient gradientTransform="matrix(0.0216, -0.1275, -0.0175, -0.0024, 95.35, -12.15)" gradientUnits="userSpaceOnUse" id="gradient4" spreadMethod="pad" x1="-819.2" x2="819.2">
      <stop offset="0.0" stop-color="#44322b"/>
      <stop offset="0.3254901960784314" stop-color="#443f2b"/>
      <stop offset="1.0" stop-color="#343c4b"/>
    </linearGradient>
    <linearGradient gradientTransform="matrix(0.0374, -0.1972, -0.0284, -0.0059, 49.55, 88.15)" gradientUnits="userSpaceOnUse" id="gradient5" spreadMethod="pad" x1="-819.2" x2="819.2">
      <stop offset="0.0" stop-color="#594737"/>
      <stop offset="0.6549019607843137" stop-color="#645b3e"/>
      <stop offset="1.0" stop-color="#363c45"/>
    </linearGradient>
    <linearGradient gradientTransform="matrix(-0.0173, 0.1512, 0.0251, -0.0011, 76.1, 136.55)" gradientUnits="userSpaceOnUse" id="gradient6" spreadMethod="pad" x1="-819.2" x2="819.2">
      <stop offset="0.0" stop-color="#464639"/>
      <stop offset="0.16862745098039217" stop-color="#615b49"/>
      <stop offset="1.0" stop-color="#645b3e"/>
    </linearGradient>
    <linearGradient gradientTransform="matrix(-0.0506, 0.2241, 0.0131, 0.0044, 129.3, 175.75)" gradientUnits="userSpaceOnUse" id="gradient7" spreadMethod="pad" x1="-819.2" x2="819.2">
      <stop offset="0.0" stop-color="#464639"/>
      <stop offset="0.16862745098039217" stop-color="#615b49"/>
      <stop offset="1.0" stop-color="#645b3e"/>
    </linearGradient>
    <linearGradient gradientTransform="matrix(-0.027, 0.2105, 0.0364, 1.0E-4, 148.05, 209.35)" gradientUnits="userSpaceOnUse" id="gradient8" spreadMethod="pad" x1="-819.2" x2="819.2">
      <stop offset="0.0" stop-color="#453732"/>
      <stop offset="1.0" stop-color="#443f2b"/>
    </linearGradient>
    <linearGradient gradientTransform="matrix(0.0149, -0.2919, -0.0291, 0.0071, 180.0, 97.2)" gradientUnits="userSpaceOnUse" id="gradient9" spreadMethod="pad" x1="-819.2" x2="819.2">
      <stop offset="0.0" stop-color="#594737"/>
      <stop offset="0.6549019607843137" stop-color="#645b3e"/>
      <stop offset="1.0" stop-color="#363c45"/>
    </linearGradient>
    <linearGradient gradientTransform="matrix(0.0038, -0.037, -0.0106, 9.0E-4, 44.55, -43.55)" gradientUnits="userSpaceOnUse" id="gradient10" spreadMethod="pad" x1="-819.2" x2="819.2">
      <stop offset="0.0" stop-color="#443f2b"/>
      <stop offset="1.0" stop-color="#343c4b"/>
    </linearGradient>
    <radialGradient cx="0" cy="0" gradientTransform="matrix(1.1971, 0.2174, 0.2174, -1.1968, -26.85, 22.0)" gradientUnits="userSpaceOnUse" id="gradient11" r="819.2" spreadMethod="pad">
      <stop offset="0.0" stop-color="#525f43"/>
      <stop offset="0.3215686274509804" stop-color="#2f3736"/>
      <stop offset="1.0" stop-color="#292332"/>
    </radialGradient>
    <linearGradient gradientTransform="matrix(-0.0173, 0.1546, 0.03, -0.0016, 230.0, 58.35)" gradientUnits="userSpaceOnUse" id="gradient12" spreadMethod="pad" x1="-819.2" x2="819.2">
      <stop offset="0.0" stop-color="#3c4044"/>
      <stop offset="0.23921568627450981" stop-color="#786f4b"/>
      <stop offset="1.0" stop-color="#6d714a"/>
    </linearGradient>
    <linearGradient gradientTransform="matrix(0.0135, -0.0899, -0.02, -0.0015, 265.1, 10.7)" gradientUnits="userSpaceOnUse" id="gradient13" spreadMethod="pad" x1="-819.2" x2="819.2">
      <stop offset="0.0" stop-color="#594737"/>
      <stop offset="0.6549019607843137" stop-color="#645b3e"/>
      <stop offset="1.0" stop-color="#363c45"/>
    </linearGradient>
    <linearGradient gradientTransform="matrix(-0.0358, 0.2022, 0.0457, 0.0075, 280.3, 100.8)" gradientUnits="userSpaceOnUse" id="gradient14" spreadMethod="pad" x1="-819.2" x2="819.2">
      <stop offset="0.0" stop-color="#393c40"/>
      <stop offset="0.21176470588235294" stop-color="#686448"/>
      <stop offset="1.0" stop-color="#816743"/>
    </linearGradient>
    <linearGradient gradientTransform="matrix(-0.0278, -0.1458, -0.0452, 0.0086, -139.8, 24.45)" gradientUnits="userSpaceOnUse" id="gradient15" spreadMethod="pad" x1="-819.2" x2="819.2">
      <stop offset="0.0" stop-color="#464639"/>
      <stop offset="0.16862745098039217" stop-color="#615b49"/>
      <stop offset="0.6705882352941176" stop-color="#645b3e"/>
      <stop offset="1.0" stop-color="#3a3d3e"/>
    </linearGradient>
    <linearGradient gradientTransform="matrix(-0.02, -0.1298, -0.0122, 2.0E-4, -97.45, 13.55)" gradientUnits="userSpaceOnUse" id="gradient16" spreadMethod="pad" x1="-819.2" x2="819.2">
      <stop offset="0.0" stop-color="#594737"/>
      <stop offset="0.6549019607843137" stop-color="#645b3e"/>
      <stop offset="1.0" stop-color="#363c45"/>
    </linearGradient>
    <linearGradient gradientTransform="matrix(-0.0261, -0.1716, -0.0455, 4.0E-4, -197.65, 49.6)" gradientUnits="userSpaceOnUse" id="gradient17" spreadMethod="pad" x1="-819.2" x2="819.2">
      <stop offset="0.0" stop-color="#594737"/>
      <stop offset="0.6549019607843137" stop-color="#645b3e"/>
      <stop offset="1.0" stop-color="#363c45"/>
    </linearGradient>
    <linearGradient gradientTransform="matrix(-0.0256, -0.134, -0.0188, 0.0036, -249.6, 31.05)" gradientUnits="userSpaceOnUse" id="gradient18" spreadMethod="pad" x1="-819.2" x2="819.2">
      <stop offset="0.0" stop-color="#464639"/>
      <stop offset="0.16862745098039217" stop-color="#615b49"/>
      <stop offset="1.0" stop-color="#645b3e"/>
    </linearGradient>
    <linearGradient gradientTransform="matrix(-0.0371, -0.1828, -0.0314, 0.0079, -261.95, 76.75)" gradientUnits="userSpaceOnUse" id="gradient19" spreadMethod="pad" x1="-819.2" x2="819.2">
      <stop offset="0.0" stop-color="#453732"/>
      <stop offset="1.0" stop-color="#443f2b"/>
    </linearGradient>
    <linearGradient gradientTransform="matrix(-0.0507, -0.2659, -0.0182, 0.0035, -281.15, 141.0)" gradientUnits="userSpaceOnUse" id="gradient20" spreadMethod="pad" x1="-819.2" x2="819.2">
      <stop offset="0.0" stop-color="#464639"/>
      <stop offset="0.16862745098039217" stop-color="#615b49"/>
      <stop offset="0.6705882352941176" stop-color="#645b3e"/>
      <stop offset="1.0" stop-color="#3a3d3e"/>
    </linearGradient>
    <linearGradient gradientTransform="matrix(0.0101, 0.0336, 0.0095, -0.0072, -140.2, 40.55)" gradientUnits="userSpaceOnUse" id="gradient21" spreadMethod="pad" x1="-819.2" x2="819.2">
      <stop offset="0.0" stop-color="#453732"/>
      <stop offset="1.0" stop-color="#443f2b"/>
    </linearGradient>
    <linearGradient gradientTransform="matrix(-0.0635, -0.2837, -0.0404, 0.0143, -321.55, 145.3)" gradientUnits="userSpaceOnUse" id="gradient22" spreadMethod="pad" x1="-819.2" x2="819.2">
      <stop offset="0.0" stop-color="#453732"/>
      <stop offset="0.6705882352941176" stop-color="#443f2b"/>
      <stop offset="1.0" stop-color="#3f403e"/>
    </linearGradient>
  </defs>
</svg>
