<?xml version="1.0" encoding="UTF-8" standalone="no"?>
<svg xmlns:xlink="http://www.w3.org/1999/xlink" height="445.5px" width="781.15px" xmlns="http://www.w3.org/2000/svg">
  <g transform="matrix(1.0, 0.0, 0.0, 1.0, 390.5, 229.8)">
    <path d="M390.15 -214.9 L390.15 215.2 -390.0 215.2 -390.0 -214.9 390.15 -214.9" fill="url(#gradient0)" fill-rule="evenodd" stroke="none"/>
    <path d="M390.15 -214.9 L390.15 215.2 -390.0 215.2 -390.0 -214.9 390.15 -214.9 Z" fill="none" stroke="#666666" stroke-linecap="round" stroke-linejoin="round" stroke-width="1.0"/>
    <path d="M161.1 -99.85 Q202.55 -99.85 231.85 -70.45 261.15 -41.05 261.15 0.5 261.15 42.05 231.85 71.45 202.55 100.85 161.1 100.85 119.65 100.85 90.35 71.45 61.05 42.05 61.05 0.5 61.05 -41.05 90.35 -70.45 119.65 -99.85 161.1 -99.85" fill="url(#gradient1)" fill-rule="evenodd" stroke="none"/>
    <path d="M246.55 -204.8 Q250.0 -209.2 255.25 -210.9 260.85 -212.7 265.4 -216.7 268.55 -219.55 273.05 -220.1 L274.05 -220.3 274.4 -221.65 271.3 -222.55 Q271.1 -223.75 272.2 -224.1 287.7 -228.75 304.05 -229.5 L310.05 -229.8 320.0 -229.2 Q324.7 -228.65 329.2 -227.25 333.75 -225.8 334.85 -221.6 L336.0 -221.45 336.05 -221.05 336.1 -218.8 Q336.25 -215.0 334.95 -211.65 333.6 -208.05 330.7 -205.15 L327.8 -201.55 Q332.15 -193.7 326.05 -188.65 307.95 -173.65 286.1 -176.3 285.3 -176.4 284.55 -176.8 L283.6 -176.65 Q280.6 -175.9 277.9 -174.15 275.95 -172.9 273.8 -172.05 273.2 -167.95 275.45 -165.05 279.4 -160.15 280.55 -153.85 281.55 -148.4 281.35 -142.8 281.3 -140.35 279.8 -138.3 277.85 -137.4 275.9 -136.85 269.9 -135.2 263.25 -136.9 258.8 -138.05 257.55 -142.05 254.5 -139.65 250.7 -137.8 244.2 -134.6 235.55 -134.65 233.4 -134.65 230.1 -135.75 228.9 -136.15 227.8 -136.8 227.65 -137.15 227.65 -137.55 L227.55 -139.05 227.4 -140.5 227.05 -142.05 225.8 -142.45 214.55 -142.65 214.05 -142.3 Q212.1 -139.15 211.8 -135.5 211.3 -129.7 208.0 -124.55 203.3 -117.2 193.55 -118.05 194.7 -114.75 193.55 -111.55 191.1 -105.0 183.9 -104.5 176.5 -104.0 170.05 -101.75 168.15 -102.15 167.15 -103.85 164.7 -107.8 161.4 -110.05 156.4 -113.5 152.55 -109.75 152.25 -108.5 153.0 -107.5 155.55 -104.15 156.95 -100.15 158.05 -97.0 159.75 -94.15 161.0 -92.05 160.55 -89.5 L159.95 -88.8 Q157.45 -86.2 154.95 -88.7 153.1 -90.55 151.55 -88.5 L151.3 -87.75 Q150.65 -85.55 149.65 -83.45 148.5 -80.95 146.6 -78.95 145.65 -77.9 145.25 -76.5 L148.45 -69.1 Q150.6 -63.8 148.1 -58.75 143.65 -49.8 132.5 -51.5 L132.0 -50.75 131.05 -49.25 130.2 -47.8 129.25 -46.25 128.0 -45.9 Q124.35 -45.4 122.85 -48.75 121.95 -50.7 120.0 -51.5 L119.5 -51.3 118.05 -50.7 115.8 -49.4 115.0 -48.75 115.35 -48.05 Q117.35 -44.65 120.4 -41.9 123.05 -39.5 124.15 -36.15 124.6 -34.7 123.5 -33.25 L123.0 -33.05 Q120.4 -32.45 122.5 -30.45 L125.75 -27.25 126.0 -26.5 126.15 -25.0 126.1 -23.5 125.95 -22.0 125.75 -21.25 Q122.35 -17.85 118.5 -14.85 113.45 -11.0 111.9 -4.65 110.45 1.2 106.25 5.5 L105.5 5.75 Q105.45 4.8 105.55 3.85 L103.55 4.15 Q103.15 4.15 102.75 3.75 101.95 1.95 101.6 -0.05 101.25 -1.85 101.25 -3.75 L101.25 -5.3 Q98.75 -3.35 95.3 -4.25 93.25 -6.0 92.45 -8.25 91.35 -11.2 92.1 -14.7 92.7 -17.45 93.75 -20.0 L94.25 -21.5 95.05 -21.9 96.05 -22.2 97.3 -22.45 99.0 -22.85 99.05 -23.0 Q103.6 -21.65 104.8 -16.4 L104.9 -16.05 106.9 -17.2 108.45 -18.55 109.0 -19.25 Q106.75 -21.95 102.75 -24.35 99.9 -26.15 98.4 -29.05 97.3 -31.3 97.5 -33.7 97.6 -35.05 98.1 -36.25 L98.1 -38.05 98.15 -41.3 Q94.4 -46.8 91.75 -52.85 89.05 -59.05 89.3 -66.0 89.9 -81.1 107.0 -79.5 L111.5 -79.0 113.5 -76.75 Q114.35 -75.45 114.05 -73.75 L113.85 -71.5 Q113.75 -70.4 113.9 -69.3 114.0 -68.5 114.25 -67.75 L114.75 -67.25 Q114.9 -67.15 115.0 -67.15 L119.0 -67.25 122.2 -70.9 Q123.6 -72.65 124.55 -74.75 L126.05 -78.6 Q126.8 -80.9 128.25 -83.0 L128.25 -83.75 128.15 -84.5 127.75 -85.25 127.4 -86.05 127.25 -86.75 127.55 -87.5 128.0 -88.3 128.75 -89.8 128.95 -90.55 129.0 -91.25 Q129.25 -92.7 128.15 -93.65 126.75 -94.85 125.75 -96.35 L123.7 -98.7 Q122.65 -99.6 123.0 -101.0 123.0 -101.75 123.35 -102.0 125.25 -103.2 127.35 -104.05 129.45 -104.9 130.95 -106.55 L131.5 -107.25 Q129.65 -112.0 126.55 -116.1 123.4 -120.25 122.8 -125.3 121.85 -133.1 127.75 -137.65 131.45 -140.55 136.0 -140.8 137.65 -145.15 141.25 -148.15 147.5 -153.3 154.5 -148.4 158.85 -145.45 159.6 -140.45 L160.55 -133.8 Q162.55 -131.2 166.5 -133.1 172.25 -135.85 178.8 -135.8 L181.9 -139.8 184.4 -142.95 187.45 -146.65 Q189.1 -148.65 190.05 -150.8 184.35 -157.45 180.85 -165.2 178.75 -169.95 183.35 -174.05 197.3 -186.5 206.9 -172.55 L209.05 -169.3 Q219.25 -169.9 227.1 -176.15 233.05 -180.9 239.55 -185.05 244.9 -188.5 250.55 -191.3 251.05 -193.05 250.45 -194.65 249.9 -196.2 248.4 -197.45 247.45 -198.25 246.9 -199.5 246.25 -200.9 246.45 -202.55 L246.55 -204.8 M107.6 -108.2 L108.55 -108.6 110.0 -108.9 110.05 -109.0 Q110.9 -108.75 111.65 -108.3 L113.15 -106.9 113.9 -105.45 114.05 -104.75 113.45 -103.3 Q112.4 -101.1 110.05 -101.05 107.65 -101.05 106.55 -103.0 L106.3 -103.75 106.1 -104.5 106.05 -105.25 106.15 -105.95 106.8 -107.5 107.6 -108.2 M105.05 -99.5 Q107.5 -99.55 108.9 -97.4 L109.25 -96.9 110.15 -95.9 110.9 -94.45 111.05 -93.75 110.7 -92.75 Q110.95 -90.25 109.05 -88.5 L108.5 -88.05 108.0 -87.8 107.05 -87.65 103.55 -88.0 Q103.05 -88.75 102.9 -89.55 102.65 -90.8 101.8 -91.8 L100.2 -94.1 Q99.6 -95.1 99.8 -96.25 L100.65 -97.65 Q101.3 -98.4 102.15 -98.65 L105.0 -99.4 105.05 -99.5 M79.5 -28.75 Q79.5 -30.25 79.8 -31.7 80.2 -33.75 82.0 -33.85 L82.0 -34.0 86.0 -33.8 87.25 -33.5 87.7 -32.7 88.1 -32.05 88.7 -31.2 89.0 -30.5 89.25 -29.75 89.2 -29.0 89.0 -28.25 88.25 -26.75 87.75 -26.0 87.25 -25.25 Q86.65 -25.0 86.0 -24.85 L83.0 -24.45 Q81.05 -24.4 79.75 -25.75 L79.6 -26.5 79.5 -28.75 M78.25 -23.65 L79.25 -23.0 79.9 -21.45 80.35 -20.0 Q80.65 -18.9 80.35 -17.8 L79.75 -16.25 Q78.9 -15.85 78.0 -15.8 L74.6 -16.2 Q74.0 -16.35 73.5 -16.75 L73.15 -18.25 Q73.0 -19.35 73.0 -20.5 73.05 -22.2 74.4 -23.3 L76.0 -24.25 77.0 -24.15 78.25 -23.65 M116.7 -38.7 L112.9 -42.35 Q111.95 -43.15 111.3 -44.1 L106.8 -41.55 106.85 -41.45 107.05 -41.15 Q108.2 -39.25 107.45 -37.3 L107.0 -36.5 104.8 -36.55 104.65 -36.3 104.65 -36.0 104.5 -35.25 104.2 -34.85 102.8 -33.9 101.95 -33.45 100.05 -33.2 99.05 -33.4 Q99.65 -31.45 100.55 -29.65 101.6 -27.55 103.4 -25.9 105.45 -23.95 107.95 -22.6 109.7 -21.65 110.75 -20.0 L110.25 -18.7 108.3 -16.2 105.95 -14.4 105.1 -13.95 Q105.2 -10.25 102.9 -7.05 L102.75 -6.85 102.75 -5.5 102.85 -1.75 Q103.0 0.55 104.45 2.15 104.85 2.6 105.75 2.55 106.1 0.6 107.05 -1.35 L111.8 -11.35 Q112.9 -13.65 114.4 -15.75 116.7 -19.05 120.0 -21.8 L121.75 -23.75 121.6 -24.25 Q118.55 -26.4 117.4 -29.9 116.6 -32.35 117.1 -34.95 117.45 -36.5 117.25 -38.0 L116.7 -38.7 M298.7 -153.4 Q300.5 -155.8 302.9 -157.65 304.4 -158.85 306.1 -159.55 L306.45 -160.1 307.05 -160.75 311.25 -160.25 Q312.3 -160.0 313.2 -159.35 L314.55 -158.0 314.05 -157.7 311.05 -157.25 Q308.3 -157.3 307.05 -158.0 L306.7 -157.7 Q304.9 -156.15 303.4 -154.2 L300.5 -150.6 299.8 -149.8 Q300.55 -147.8 301.65 -146.05 302.75 -144.25 303.3 -142.15 303.8 -140.05 303.9 -137.8 303.95 -136.2 303.3 -134.8 L302.85 -134.6 302.9 -133.5 Q302.95 -132.35 302.5 -131.3 L302.1 -130.5 Q300.5 -128.8 298.1 -129.05 L293.8 -129.5 292.95 -130.9 291.8 -132.1 289.95 -132.0 Q288.55 -131.35 287.0 -131.1 L280.6 -130.25 Q279.25 -129.2 278.05 -127.55 L274.6 -127.35 272.35 -124.2 272.4 -123.25 Q272.5 -121.7 271.95 -120.3 L271.55 -119.5 Q268.5 -116.0 263.9 -116.9 259.7 -115.0 255.05 -114.55 254.35 -110.0 253.25 -105.6 252.3 -101.55 248.9 -99.25 240.75 -93.7 235.35 -99.4 L235.25 -99.55 234.4 -100.55 231.85 -103.2 Q228.5 -101.6 224.9 -102.75 L223.85 -102.4 221.05 -101.4 221.05 -100.25 221.05 -98.75 221.05 -96.5 220.95 -95.8 220.55 -95.0 Q215.65 -93.7 210.7 -91.2 208.5 -90.15 208.45 -87.5 L208.3 -86.75 207.3 -83.0 206.0 -82.4 202.25 -80.9 201.6 -80.35 201.55 -80.25 200.8 -78.7 Q200.55 -77.65 200.55 -76.5 L200.55 -75.75 200.55 -74.25 200.55 -72.75 Q199.7 -71.5 198.5 -70.55 196.95 -69.3 195.0 -68.55 L192.35 -67.35 Q191.9 -67.15 191.55 -66.75 190.9 -66.0 190.75 -65.2 190.55 -64.0 189.75 -63.05 L189.05 -62.25 188.3 -61.5 187.8 -61.0 Q186.05 -60.2 184.55 -60.5 182.05 -61.0 179.3 -60.5 179.35 -59.1 178.55 -57.9 178.05 -57.15 177.8 -56.05 L177.35 -54.5 176.5 -51.5 176.3 -50.75 Q175.1 -51.3 175.1 -53.05 174.55 -51.5 173.05 -50.75 170.7 -54.25 172.1 -60.8 173.4 -66.9 177.7 -70.35 179.9 -72.15 182.95 -73.25 188.9 -75.4 191.65 -80.45 L192.3 -81.25 195.0 -82.1 195.1 -82.15 197.3 -85.05 196.8 -86.4 196.05 -88.75 195.35 -91.85 Q195.05 -93.25 195.05 -94.75 L197.2 -97.1 Q198.05 -98.0 199.2 -98.5 L202.25 -99.65 203.55 -100.25 Q203.65 -103.75 206.1 -106.2 213.15 -113.25 223.0 -112.1 L224.3 -111.8 224.8 -111.05 225.25 -110.25 225.5 -109.8 Q227.75 -109.35 230.0 -108.05 L230.15 -107.95 231.25 -108.8 234.5 -111.3 235.95 -112.3 235.05 -113.5 235.05 -115.75 235.05 -118.75 235.05 -121.0 Q235.05 -121.4 235.2 -121.65 L236.8 -124.0 Q241.0 -127.35 247.05 -125.4 L247.05 -125.5 Q249.5 -125.3 250.15 -124.3 257.75 -126.15 264.8 -129.0 266.4 -129.65 267.8 -131.3 L268.0 -131.4 Q267.55 -132.9 269.05 -133.0 L269.55 -133.0 Q270.5 -132.35 270.2 -131.35 L270.9 -131.1 272.55 -133.8 276.4 -134.85 276.45 -134.85 280.45 -135.7 281.75 -136.65 284.2 -138.35 Q284.55 -138.65 285.05 -138.8 288.7 -138.25 292.25 -137.1 L294.05 -136.95 Q297.65 -136.0 300.3 -137.3 L300.35 -139.8 Q300.4 -141.65 299.55 -143.2 298.6 -144.85 297.75 -146.65 L296.55 -149.55 Q297.3 -151.55 298.7 -153.4 M314.3 -141.05 Q313.1 -139.75 311.1 -140.15 L309.85 -140.5 309.3 -142.05 Q309.1 -143.15 309.25 -144.25 309.45 -145.65 310.85 -146.2 L312.1 -146.75 Q314.5 -147.1 315.15 -144.85 315.8 -142.75 314.3 -141.05 M206.1 -191.7 L207.05 -192.05 Q209.45 -191.95 209.8 -189.8 210.2 -187.45 208.6 -186.05 206.85 -184.6 204.8 -185.8 L204.35 -186.55 204.1 -187.3 204.05 -188.05 204.05 -188.8 204.05 -189.55 204.6 -190.25 205.3 -191.05 205.8 -191.55 206.1 -191.7 M170.55 -87.6 L172.0 -87.85 172.05 -88.0 173.65 -87.3 175.15 -85.9 175.95 -84.45 176.05 -83.75 175.45 -82.3 Q174.45 -80.1 172.05 -80.05 169.65 -80.05 168.55 -82.0 L168.3 -82.75 168.1 -83.5 168.05 -84.25 168.15 -84.95 168.8 -86.5 169.6 -87.2 170.55 -87.6 M329.65 -166.65 Q328.9 -163.6 326.3 -166.05 323.55 -168.55 327.05 -169.15 L327.1 -169.25 Q330.3 -169.35 329.65 -166.65 M325.8 -144.95 Q323.0 -143.25 323.4 -146.15 323.7 -148.5 326.6 -148.25 328.35 -146.5 325.8 -144.95" fill="url(#gradient2)" fill-rule="evenodd" stroke="none"/>
    <path d="M72.25 21.65 L73.5 -2.9 65.65 -3.6 82.1 -27.9 97.1 -1.5 88.5 -0.75 88.5 4.95 101.35 4.95 104.95 -35.7 96.35 -35.05 114.25 -66.45 129.95 -32.9 119.95 -32.9 121.05 -8.25 131.35 -9.35 132.8 -24.35 139.95 -25.05 143.5 -15.75 147.8 -19.35 154.2 -53.6 168.5 -57.2 172.8 -49.35 178.5 -52.2 179.2 -75.05 170.05 -74.45 184.95 -94.3 201.35 -73.6 194.2 -73.6 194.2 -55.75 209.2 -56.45 209.2 -65.05 199.95 -64.35 213.55 -78.65 229.95 -62.9 220.65 -62.9 221.35 -58.6 229.95 -58.6 230.7 -57.35 233.65 -52.4 182.1 -47.1 163.4 -38.65 162.8 -38.6 149.95 -1.45 149.25 -1.25 149.1 10.7 122.1 15.95 122.0 15.95 109.5 18.4 104.25 11.6 88.55 13.4 72.25 21.65 M271.55 -90.35 L277.05 -98.65 287.05 -80.8 280.65 -79.35 281.05 -65.8 274.85 -52.25 274.25 -51.45 273.9 -51.5 266.3 -52.6 271.35 -77.9 264.2 -79.35 271.55 -90.35 M297.8 -77.7 L299.2 -95.05 291.35 -95.05 306.35 -116.5 319.9 -95.05 313.5 -94.35 314.9 -87.2 324.2 -87.2 328.5 -106.5 336.35 -106.5 338.5 -89.35 349.9 -89.35 351.35 -94.35 358.5 -93.65 365.6 -75.8 372.05 -75.8 372.75 -96.5 364.9 -98.65 378.3 -114.15 380.2 -112.45 380.2 -65.5 366.4 -67.05 364.95 -67.2 352.1 -79.75 352.1 -83.1 351.8 -83.05 297.8 -77.7" fill="url(#gradient3)" fill-rule="evenodd" stroke="none"/>
    <path d="M149.1 10.7 L149.25 -1.25 149.95 -1.45 162.8 -38.6 163.4 -38.55 158.55 55.0 170.65 70.65 174.1 140.9 168.3 164.75 165.65 90.0 164.25 74.2 148.5 57.8 149.1 10.7" fill="url(#gradient4)" fill-rule="evenodd" stroke="none"/>
    <path d="M230.7 -57.35 L233.0 -61.05 236.4 -67.45 241.15 -69.5 238.45 -72.0 Q245.55 -89.2 244.6 -108.25 250.3 -93.65 253.3 -80.65 L253.3 -80.6 Q254.7 -74.35 255.5 -68.45 L257.8 -75.4 255.3 -81.15 257.65 -90.25 259.95 -91.5 258.35 -93.35 Q261.45 -108.65 261.75 -125.4 265.95 -115.25 268.45 -105.85 L267.5 -103.75 267.55 -103.75 269.25 -102.85 Q270.75 -96.45 271.55 -90.35 L264.2 -79.35 271.35 -77.9 266.3 -52.6 255.35 -54.25 255.05 -54.65 233.65 -52.4 230.7 -57.35" fill="url(#gradient5)" fill-rule="evenodd" stroke="none"/>
    <path d="M163.4 -38.65 L182.1 -47.1 194.25 37.8 214.25 49.2 199.35 110.1 179.6 117.95 174.1 140.9 170.65 70.65 158.55 55.0 163.4 -38.55 163.4 -38.65" fill="url(#gradient6)" fill-rule="evenodd" stroke="none"/>
    <path d="M182.1 -47.1 L233.65 -52.4 255.05 -54.65 255.35 -54.25 257.6 -51.8 Q267.0 -41.35 271.45 -30.9 L262.9 22.9 256.75 5.3 Q256.7 25.85 253.7 45.4 L244.6 33.5 Q245.45 41.9 242.6 50.3 L234.95 24.95 Q234.45 35.75 232.95 46.1 L234.6 47.75 232.65 48.1 230.55 59.1 214.25 49.2 194.25 37.8 182.1 -47.1" fill="url(#gradient7)" fill-rule="evenodd" stroke="none"/>
    <path d="M292.8 -76.45 L297.8 -77.7 351.8 -83.05 352.1 -79.75 353.55 -14.25 349.9 -10.8 353.65 -10.0 354.05 8.85 350.6 8.5 347.75 -6.5 339.2 -7.2 337.05 12.8 328.5 12.05 327.75 -5.8 334.2 -6.5 324.2 -22.2 307.75 -5.1 314.9 -5.1 314.2 21.3 302.75 19.9 300.65 14.9 309.2 14.2 294.9 -6.5 290.3 -0.65 292.8 -76.45" fill="url(#gradient8)" fill-rule="evenodd" stroke="none"/>
    <path d="M281.05 -65.8 L292.45 -76.8 292.8 -76.45 290.3 -0.65 279.2 13.5 285.65 12.8 284.25 28.1 275.65 28.5 271.45 47.4 266.85 34.2 263.5 34.9 265.75 31.05 262.9 22.9 271.45 -30.9 274.7 -51.35 274.85 -52.25 281.05 -65.8" fill="url(#gradient9)" fill-rule="evenodd" stroke="none"/>
    <path d="M266.3 -52.6 L273.9 -51.5 274.7 -51.35 271.45 -30.9 Q267.0 -41.35 257.6 -51.8 L255.35 -54.25 266.3 -52.6 M217.75 108.45 L213.65 143.6 204.55 113.65 217.75 108.45" fill="#443f2b" fill-rule="evenodd" stroke="none"/>
    <path d="M380.2 9.4 L380.2 16.35 340.0 18.0 339.8 26.15 305.0 27.3 284.25 28.1 285.65 12.8 279.2 13.5 290.3 -0.65 294.9 -6.5 309.2 14.2 300.65 14.9 302.75 19.9 314.2 21.3 314.9 -5.1 307.75 -5.1 324.2 -22.2 334.2 -6.5 327.75 -5.8 328.5 12.05 337.05 12.8 339.2 -7.2 347.75 -6.5 350.6 8.5 354.05 8.85 357.75 9.2 359.9 -8.65 353.65 -10.0 349.9 -10.8 353.55 -14.25 364.2 -24.35 367.1 -20.1 376.35 -6.5 369.9 -6.5 370.6 8.5 380.2 9.4" fill="url(#gradient10)" fill-rule="evenodd" stroke="none"/>
    <path d="M380.2 -65.5 L380.2 9.4 370.6 8.5 369.9 -6.5 376.35 -6.5 367.1 -20.1 366.4 -67.05 380.2 -65.5" fill="url(#gradient11)" fill-rule="evenodd" stroke="none"/>
    <path d="M353.55 -14.25 L352.1 -79.75 364.95 -67.2 366.4 -67.05 367.1 -20.1 364.2 -24.35 353.55 -14.25" fill="url(#gradient12)" fill-rule="evenodd" stroke="none"/>
    <path d="M354.05 8.85 L353.65 -10.0 359.9 -8.65 357.75 9.2 354.05 8.85" fill="url(#gradient13)" fill-rule="evenodd" stroke="none"/>
    <path d="M380.2 16.35 L380.2 203.8 335.85 201.1 338.0 106.4 339.8 26.15 340.0 18.0 380.2 16.35" fill="url(#gradient14)" fill-rule="evenodd" stroke="none"/>
    <path d="M339.8 26.15 L338.0 106.4 333.5 102.95 326.9 97.9 305.0 27.3 339.8 26.15" fill="url(#gradient15)" fill-rule="evenodd" stroke="none"/>
    <path d="M338.0 106.4 L335.85 201.1 321.65 208.6 333.5 102.95 338.0 106.4" fill="url(#gradient16)" fill-rule="evenodd" stroke="none"/>
    <path d="M271.45 47.4 L275.65 28.5 284.25 28.1 305.0 27.3 326.9 97.9 333.5 102.95 321.65 208.6 278.45 205.1 264.15 123.85 257.6 109.35 266.5 69.45 271.45 47.4" fill="url(#gradient17)" fill-rule="evenodd" stroke="none"/>
    <path d="M380.2 203.8 L380.2 209.2 -386.0 209.2 -386.0 202.2 -333.0 195.1 -331.0 194.6 -306.0 188.1 -303.2 188.3 -262.8 191.05 -262.75 191.05 -251.1 187.15 -251.1 187.1 -177.05 189.05 -175.0 189.1 -158.0 184.1 -120.0 184.1 -120.0 184.75 -119.85 184.7 -101.0 181.1 -100.4 181.35 28.35 182.0 28.95 182.1 42.95 189.1 43.55 189.1 43.55 189.15 84.95 190.1 85.45 190.6 85.95 190.9 95.45 196.6 112.95 196.6 113.85 196.25 142.15 200.15 142.15 200.1 158.95 198.15 160.4 198.25 207.0 201.1 245.95 201.1 278.45 205.1 321.65 208.6 335.85 201.1 380.2 203.8" fill="url(#gradient18)" fill-rule="evenodd" stroke="none"/>
    <path d="M262.9 22.9 L265.75 31.05 263.5 34.9 266.85 34.2 271.45 47.4 266.5 69.45 223.95 86.35 226.55 75.6 229.95 75.6 227.45 71.95 230.55 59.1 232.65 48.1 234.6 47.75 232.95 46.1 Q234.45 35.75 234.95 24.95 L242.6 50.3 Q245.45 41.9 244.6 33.5 L253.7 45.4 Q256.7 25.85 256.75 5.3 L262.9 22.9" fill="url(#gradient19)" fill-rule="evenodd" stroke="none"/>
    <path d="M109.5 18.4 L122.0 15.95 122.1 15.95 149.1 10.7 148.5 57.8 164.25 74.2 165.65 90.0 142.15 200.1 142.15 200.15 113.85 196.25 112.7 148.65 109.5 18.4" fill="url(#gradient20)" fill-rule="evenodd" stroke="none"/>
    <path d="M199.35 110.1 L214.25 49.2 230.55 59.1 227.45 71.95 229.95 75.6 226.55 75.6 223.95 86.35 220.1 87.85 217.75 108.45 204.55 113.65 203.0 108.65 199.35 110.1" fill="url(#gradient21)" fill-rule="evenodd" stroke="none"/>
    <path d="M217.75 108.45 L220.1 87.85 223.95 86.35 266.5 69.45 257.6 109.35 264.15 123.85 245.95 201.1 207.0 201.1 213.65 143.6 217.75 108.45" fill="url(#gradient22)" fill-rule="evenodd" stroke="none"/>
    <path d="M174.1 140.9 L179.6 117.95 199.35 110.1 203.0 108.65 204.55 113.65 213.65 143.6 207.0 201.1 160.4 198.25 168.3 164.75 174.1 140.9" fill="url(#gradient23)" fill-rule="evenodd" stroke="none"/>
    <path d="M165.65 90.0 L168.3 164.75 160.4 198.25 158.95 198.15 142.15 200.1 165.65 90.0" fill="url(#gradient24)" fill-rule="evenodd" stroke="none"/>
    <path d="M88.55 13.4 L104.25 11.6 109.5 18.4 112.7 148.65 100.65 141.35 87.65 72.2 88.55 13.4" fill="url(#gradient25)" fill-rule="evenodd" stroke="none"/>
    <path d="M52.6 151.45 L52.8 151.35 65.65 24.95 72.25 21.65 88.55 13.4 87.65 72.2 85.95 190.6 85.45 190.6 84.95 190.1 43.55 189.15 43.55 189.1 43.55 155.8 52.6 151.45" fill="url(#gradient26)" fill-rule="evenodd" stroke="none"/>
    <path d="M-105.6 148.0 L-97.9 138.5 -96.8 148.5 -99.3 148.5 -94.3 159.6 -98.6 159.2 -92.2 169.95 -85.75 163.15 -83.95 172.8 -75.05 172.8 -71.45 157.8 -66.1 157.8 -63.25 147.45 -29.35 147.8 -28.6 162.1 -18.6 162.45 -18.6 156.35 -23.6 156.35 -18.25 151.7 -23.95 151.35 -15.75 143.5 -19.7 142.8 -12.55 135.3 -6.1 144.95 -10.05 144.6 -4.7 152.45 -9.35 152.45 -4.7 156.35 -10.4 156.35 -8.95 163.5 -2.55 167.8 2.1 167.8 5.25 155.3 20.65 155.65 21.7 159.95 25.65 159.95 28.85 149.6 35.45 150.05 37.8 146.7 34.25 146.35 40.3 138.5 37.1 138.5 38.45 137.2 Q45.4 129.95 46.4 120.25 47.5 130.5 50.9 137.2 L51.4 138.15 48.2 138.15 52.1 144.9 49.6 145.25 52.6 151.45 43.55 155.8 30.35 162.1 28.35 182.0 -100.4 181.35 -100.45 181.0 Q-103.55 164.5 -105.6 148.0" fill="url(#gradient27)" fill-rule="evenodd" stroke="none"/>
    <path d="M43.55 189.1 L42.95 189.1 28.95 182.1 28.35 182.0 30.35 162.1 43.55 155.8 43.55 189.1" fill="url(#gradient28)" fill-rule="evenodd" stroke="none"/>
    <path d="M85.95 190.6 L87.65 72.2 100.65 141.35 112.7 148.65 113.85 196.25 112.95 196.6 95.45 196.6 85.95 190.9 85.95 190.6" fill="url(#gradient29)" fill-rule="evenodd" stroke="none"/>
    <path d="M245.95 201.1 L264.15 123.85 278.45 205.1 245.95 201.1" fill="url(#gradient30)" fill-rule="evenodd" stroke="none"/>
    <path d="M-337.75 -75.0 L-341.2 -75.35 -340.0 -80.05 -335.1 -79.6 -316.55 -77.9 -318.75 -72.95 -318.8 -72.9 -337.75 -75.0 M-276.9 2.05 L-279.9 2.05 -277.9 -3.65 -274.25 -3.45 -260.85 -3.0 -262.35 2.4 -262.9 2.05 -276.9 2.05" fill="#222d20" fill-rule="evenodd" stroke="none"/>
    <path d="M-386.0 -15.55 L-386.0 -65.8 -385.0 -65.8 -380.35 -70.05 -382.5 -72.55 -372.5 -79.0 -374.9 -80.9 -365.0 -95.05 -363.6 -76.5 -367.15 -77.2 -362.9 -62.2 -367.85 -62.9 -363.6 -45.75 -371.45 -48.65 -364.35 -31.6 -358.6 -34.65 -335.45 -35.65 -332.85 -35.75 Q-324.15 -16.15 -312.85 -7.2 -302.85 12.1 -301.4 25.65 -297.6 31.65 -292.95 35.7 L-292.75 35.9 Q-289.45 38.75 -285.7 40.65 L-286.45 52.85 -273.5 61.15 -267.15 65.65 -257.15 57.1 Q-236.85 57.15 -218.6 65.65 L-215.2 77.0 -249.7 64.85 -251.45 64.25 -264.3 94.25 -267.75 93.35 -282.55 89.35 -287.15 65.65 -312.2 50.6 -311.4 29.95 -328.55 -7.2 -386.0 -15.55" fill="url(#gradient31)" fill-rule="evenodd" stroke="none"/>
    <path d="M-319.6 -104.8 L-324.55 -111.75 -300.8 -122.25 -282.15 -120.75 -270.6 -92.1 -284.2 -84.0 -284.95 -80.95 Q-287.35 -71.05 -289.25 -60.15 L-316.45 -77.9 -316.55 -77.95 -300.7 -113.4 -317.15 -108.6 -318.55 -106.4 -319.6 -104.8 M-290.2 -54.45 L-290.5 -52.65 Q-294.9 -24.65 -296.45 9.4 L-291.2 13.25 -292.95 35.7 Q-297.6 31.65 -301.4 25.65 -302.85 12.1 -312.85 -7.2 -324.15 -16.15 -332.85 -35.75 L-334.95 -36.7 -318.8 -72.9 -318.75 -72.95 -290.2 -54.45 M-262.9 -21.65 L-267.6 -25.75 -253.0 -33.95 -252.2 -33.7 -240.0 -35.1 -233.15 -11.85 -239.5 -9.55 Q-241.2 -0.35 -241.6 8.05 L-259.3 -2.95 -260.85 -3.0 Q-257.0 -16.3 -252.2 -29.35 L-260.0 -24.35 -262.9 -21.65 M-241.7 14.65 Q-241.55 26.8 -238.55 37.1 L-214.65 38.7 -212.9 32.8 -212.9 32.05 -219.3 30.65 -205.0 22.05 -192.9 32.8 -199.3 32.8 -199.3 39.75 -195.75 39.95 -190.8 68.5 -182.85 72.8 -180.0 62.8 -172.0 65.45 -168.6 60.65 -180.05 57.05 -156.45 54.2 -142.85 69.2 -152.15 65.65 -152.85 71.85 -150.0 72.8 -148.45 90.65 -150.45 93.05 -154.3 105.7 Q-165.55 103.8 -176.45 96.4 L-180.1 103.25 -195.35 98.7 -198.6 82.85 -215.2 77.0 -218.6 65.65 Q-236.85 57.15 -257.15 57.1 L-267.15 65.65 -273.5 61.15 Q-270.2 31.15 -262.35 2.4 -252.05 8.5 -241.7 14.65" fill="url(#gradient32)" fill-rule="evenodd" stroke="none"/>
    <path d="M-358.6 -34.65 Q-349.8 -54.0 -337.75 -75.0 L-318.8 -72.9 -334.95 -36.7 -335.45 -35.65 -358.6 -34.65 M-335.1 -79.6 Q-327.9 -91.9 -319.6 -104.8 L-318.55 -106.4 -317.15 -108.6 -300.7 -113.4 -316.55 -77.95 -316.55 -77.9 -335.1 -79.6 M-291.2 13.25 L-283.95 18.55 Q-280.25 9.35 -276.9 2.05 L-262.9 2.05 -262.35 2.4 Q-270.2 31.15 -273.5 61.15 L-286.45 52.85 -285.7 40.65 Q-289.45 38.75 -292.75 35.9 L-292.95 35.7 -291.2 13.25 M-274.25 -3.45 Q-268.0 -16.1 -262.9 -21.65 L-260.0 -24.35 -252.2 -29.35 Q-257.0 -16.3 -260.85 -3.0 L-274.25 -3.45" fill="#243223" fill-rule="evenodd" stroke="none"/>
    <path d="M-386.0 202.2 L-386.0 -15.55 -328.55 -7.2 Q-335.25 49.05 -333.15 137.2 -332.5 164.4 -331.0 194.6 L-333.0 195.1 -386.0 202.2" fill="url(#gradient33)" fill-rule="evenodd" stroke="none"/>
    <path d="M-289.25 -60.15 L-286.45 -57.2 -287.85 -52.25 -290.2 -54.45 -318.75 -72.95 -316.55 -77.9 -316.45 -77.9 -289.25 -60.15 M-241.6 8.05 L-238.55 9.9 -240.0 15.65 -241.7 14.65 Q-252.05 8.5 -262.35 2.4 L-260.85 -3.0 -259.3 -2.95 -241.6 8.05" fill="#394738" fill-rule="evenodd" stroke="none"/>
    <path d="M-134.1 79.95 L-132.15 76.7 -135.0 76.0 -127.85 69.55 -131.1 67.75 Q-123.25 60.95 -121.8 56.0 L-119.3 71.7 -122.15 71.35 -121.1 79.2 -123.6 78.85 -122.9 85.0 -134.1 79.95" fill="url(#gradient34)" fill-rule="evenodd" stroke="none"/>
    <path d="M-148.45 90.65 L-144.3 85.65 -139.9 87.15 -146.5 123.5 -152.2 118.9 -168.8 120.65 -172.4 105.5 -180.1 103.25 -176.45 96.4 Q-165.55 103.8 -154.3 105.7 L-150.45 93.05 -148.45 90.65" fill="url(#gradient35)" fill-rule="evenodd" stroke="none"/>
    <path d="M-139.9 87.15 L-137.5 78.4 -134.1 79.95 -122.9 85.0 -121.45 85.65 -120.0 86.3 -120.0 184.1 -158.0 184.1 -175.0 189.1 -177.05 189.05 -195.35 98.7 -180.1 103.25 -172.4 105.5 -168.8 120.65 -159.45 160.5 -152.2 118.9 -146.5 123.5 -139.9 87.15" fill="url(#gradient36)" fill-rule="evenodd" stroke="none"/>
    <path d="M-121.45 85.65 L-116.1 79.55 -119.3 77.75 -111.8 71.7 -114.3 68.85 Q-107.1 63.2 -102.15 55.25 -106.6 65.25 -103.2 76.7 L-105.7 73.85 Q-107.6 79.4 -105.75 87.05 L-108.95 83.15 Q-112.15 91.15 -111.0 98.8 L-120.0 86.3 -121.45 85.65" fill="url(#gradient37)" fill-rule="evenodd" stroke="none"/>
    <path d="M-111.0 98.8 L-109.4 101.05 Q-108.75 119.1 -106.85 137.2 L-105.6 148.0 Q-103.55 164.5 -100.45 181.0 L-101.0 181.1 -119.85 184.7 -120.0 184.1 -120.0 86.3 -111.0 98.8" fill="url(#gradient38)" fill-rule="evenodd" stroke="none"/>
    <path d="M-168.8 120.65 L-152.2 118.9 -159.45 160.5 -168.8 120.65" fill="url(#gradient39)" fill-rule="evenodd" stroke="none"/>
    <path d="M-177.05 189.05 L-251.1 187.1 -254.15 127.1 -254.3 124.25 -250.0 65.65 -249.7 64.85 -215.2 77.0 -198.6 82.85 -195.35 98.7 -177.05 189.05" fill="url(#gradient40)" fill-rule="evenodd" stroke="none"/>
    <path d="M-262.8 191.05 L-303.2 188.3 Q-307.25 162.75 -309.5 137.2 -313.4 93.9 -312.2 50.6 L-287.15 65.65 -282.55 89.35 -262.75 191.05 -262.8 191.05" fill="url(#gradient41)" fill-rule="evenodd" stroke="none"/>
    <path d="M-267.75 93.35 L-264.3 94.25 -251.45 64.25 -249.7 64.85 -250.0 65.65 -254.3 124.25 -255.15 124.6 -267.75 93.35" fill="url(#gradient42)" fill-rule="evenodd" stroke="none"/>
    <path d="M-251.1 187.1 L-251.1 187.15 -262.75 191.05 -282.55 89.35 -267.75 93.35 -255.15 124.6 -254.15 127.1 -251.1 187.1" fill="url(#gradient43)" fill-rule="evenodd" stroke="none"/>
    <path d="M-303.2 188.3 L-306.0 188.1 -331.0 194.6 Q-332.5 164.4 -333.15 137.2 -335.25 49.05 -328.55 -7.2 L-311.4 29.95 -312.2 50.6 Q-313.4 93.9 -309.5 137.2 -307.25 162.75 -303.2 188.3" fill="url(#gradient44)" fill-rule="evenodd" stroke="none"/>
  </g>
  <defs>
    <radialGradient cx="0" cy="0" gradientTransform="matrix(1.2173, 0.0, 0.0, 0.6551, -21.0, 130.0)" gradientUnits="userSpaceOnUse" id="gradient0" r="819.2" spreadMethod="pad">
      <stop offset="0.0" stop-color="#525f43"/>
      <stop offset="0.3215686274509804" stop-color="#2f3736"/>
      <stop offset="1.0" stop-color="#292332"/>
    </radialGradient>
    <radialGradient cx="0" cy="0" gradientTransform="matrix(0.1242, 0.0, 0.0, 0.1368, 157.8, 45.9)" gradientUnits="userSpaceOnUse" id="gradient1" r="819.2" spreadMethod="pad">
      <stop offset="0.0" stop-color="#faac38" stop-opacity="0.53333336"/>
      <stop offset="1.0" stop-color="#ffcf11" stop-opacity="0.0"/>
    </radialGradient>
    <linearGradient gradientTransform="matrix(0.0365, -0.1645, 0.1317, 0.0292, 206.7, -113.2)" gradientUnits="userSpaceOnUse" id="gradient2" spreadMethod="pad" x1="-819.2" x2="819.2">
      <stop offset="0.0" stop-color="#e3a03e" stop-opacity="0.53333336"/>
      <stop offset="0.3058823529411765" stop-color="#2f2f2f" stop-opacity="0.7019608"/>
      <stop offset="1.0" stop-color="#000000" stop-opacity="0.0"/>
    </linearGradient>
    <radialGradient cx="0" cy="0" gradientTransform="matrix(0.3821, 0.0, 0.0, 0.2397, 138.0, -72.0)" gradientUnits="userSpaceOnUse" id="gradient3" r="819.2" spreadMethod="pad">
      <stop offset="0.0" stop-color="#48321e"/>
      <stop offset="0.6313725490196078" stop-color="#1a2b1d"/>
      <stop offset="1.0" stop-color="#2d423a"/>
    </radialGradient>
    <linearGradient gradientTransform="matrix(-0.0098, -0.1236, 0.0137, -0.0011, 160.2, 63.55)" gradientUnits="userSpaceOnUse" id="gradient4" spreadMethod="pad" x1="-819.2" x2="819.2">
      <stop offset="0.0" stop-color="#464639"/>
      <stop offset="0.16862745098039217" stop-color="#615b49"/>
      <stop offset="1.0" stop-color="#645b3e"/>
    </linearGradient>
    <linearGradient gradientTransform="matrix(0.0077, -0.0461, 0.0221, 0.0037, 254.35, -87.75)" gradientUnits="userSpaceOnUse" id="gradient5" spreadMethod="pad" x1="-819.2" x2="819.2">
      <stop offset="0.0" stop-color="#3c482f"/>
      <stop offset="1.0" stop-color="#373b3b"/>
    </linearGradient>
    <linearGradient gradientTransform="matrix(0.011, -0.1142, 0.0359, 0.0035, 184.7, 47.55)" gradientUnits="userSpaceOnUse" id="gradient6" spreadMethod="pad" x1="-819.2" x2="819.2">
      <stop offset="0.0" stop-color="#453732"/>
      <stop offset="1.0" stop-color="#443f2b"/>
    </linearGradient>
    <linearGradient gradientTransform="matrix(-0.0015, 0.0697, -0.0547, -0.0012, 225.85, 1.85)" gradientUnits="userSpaceOnUse" id="gradient7" spreadMethod="pad" x1="-819.2" x2="819.2">
      <stop offset="0.0" stop-color="#464639"/>
      <stop offset="1.0" stop-color="#645b3e"/>
    </linearGradient>
    <linearGradient gradientTransform="matrix(-0.0252, 0.0647, -0.05, -0.0195, 323.15, -33.2)" gradientUnits="userSpaceOnUse" id="gradient8" spreadMethod="pad" x1="-819.2" x2="819.2">
      <stop offset="0.0" stop-color="#464639"/>
      <stop offset="1.0" stop-color="#645b3e"/>
    </linearGradient>
    <linearGradient gradientTransform="matrix(0.0134, -0.0757, 0.0146, 0.0026, 280.5, -14.95)" gradientUnits="userSpaceOnUse" id="gradient9" spreadMethod="pad" x1="-819.2" x2="819.2">
      <stop offset="0.0" stop-color="#464639"/>
      <stop offset="0.16862745098039217" stop-color="#615b49"/>
      <stop offset="1.0" stop-color="#645b3e"/>
    </linearGradient>
    <linearGradient gradientTransform="matrix(0.0012, 0.0302, -0.0617, 0.0024, 329.35, 1.8)" gradientUnits="userSpaceOnUse" id="gradient10" spreadMethod="pad" x1="-819.2" x2="819.2">
      <stop offset="0.0" stop-color="#313538"/>
      <stop offset="1.0" stop-color="#222f1e"/>
    </linearGradient>
    <linearGradient gradientTransform="matrix(0.0084, 0.0, 0.0, 0.0467, 373.3, -28.85)" gradientUnits="userSpaceOnUse" id="gradient11" spreadMethod="pad" x1="-819.2" x2="819.2">
      <stop offset="0.0" stop-color="#464639"/>
      <stop offset="0.16862745098039217" stop-color="#615b49"/>
      <stop offset="1.0" stop-color="#645b3e"/>
    </linearGradient>
    <linearGradient gradientTransform="matrix(0.0016, -0.0399, 0.0106, 4.0E-4, 359.4, -46.75)" gradientUnits="userSpaceOnUse" id="gradient12" spreadMethod="pad" x1="-819.2" x2="819.2">
      <stop offset="0.0" stop-color="#453732"/>
      <stop offset="1.0" stop-color="#443f2b"/>
    </linearGradient>
    <linearGradient gradientTransform="matrix(6.0E-4, 0.0195, -0.0039, 1.0E-4, 357.45, 15.0)" gradientUnits="userSpaceOnUse" id="gradient13" spreadMethod="pad" x1="-819.2" x2="819.2">
      <stop offset="0.0" stop-color="#453732"/>
      <stop offset="1.0" stop-color="#443f2b"/>
    </linearGradient>
    <linearGradient gradientTransform="matrix(-0.006, 0.1141, -0.0304, -0.0016, 360.2, 109.0)" gradientUnits="userSpaceOnUse" id="gradient14" spreadMethod="pad" x1="-819.2" x2="819.2">
      <stop offset="0.0" stop-color="#464639"/>
      <stop offset="0.16862745098039217" stop-color="#615b49"/>
      <stop offset="1.0" stop-color="#645b3e"/>
    </linearGradient>
    <linearGradient gradientTransform="matrix(0.0019, -0.0489, 0.022, 9.0E-4, 321.55, 65.65)" gradientUnits="userSpaceOnUse" id="gradient15" spreadMethod="pad" x1="-819.2" x2="819.2">
      <stop offset="0.0" stop-color="#464639"/>
      <stop offset="0.16862745098039217" stop-color="#615b49"/>
      <stop offset="1.0" stop-color="#645b3e"/>
    </linearGradient>
    <linearGradient gradientTransform="matrix(-0.0012, 0.033, -0.0085, -3.0E-4, 329.55, 184.05)" gradientUnits="userSpaceOnUse" id="gradient16" spreadMethod="pad" x1="-819.2" x2="819.2">
      <stop offset="0.0" stop-color="#443f2b"/>
      <stop offset="1.0" stop-color="#343c4b"/>
    </linearGradient>
    <linearGradient gradientTransform="matrix(0.001, -0.1106, 0.0463, 4.0E-4, 295.45, 117.8)" gradientUnits="userSpaceOnUse" id="gradient17" spreadMethod="pad" x1="-819.2" x2="819.2">
      <stop offset="0.0" stop-color="#393c40"/>
      <stop offset="0.21176470588235294" stop-color="#686448"/>
      <stop offset="1.0" stop-color="#816743"/>
    </linearGradient>
    <linearGradient gradientTransform="matrix(0.0, 0.0172, -0.4677, 0.0, -2.9, 195.15)" gradientUnits="userSpaceOnUse" id="gradient18" spreadMethod="pad" x1="-819.2" x2="819.2">
      <stop offset="0.0" stop-color="#172424"/>
      <stop offset="0.35294117647058826" stop-color="#22252b"/>
      <stop offset="1.0" stop-color="#172735"/>
    </linearGradient>
    <linearGradient gradientTransform="matrix(-0.0011, -0.049, 0.0295, -6.0E-4, 247.15, 45.7)" gradientUnits="userSpaceOnUse" id="gradient19" spreadMethod="pad" x1="-819.2" x2="819.2">
      <stop offset="0.0" stop-color="#3c482f"/>
      <stop offset="1.0" stop-color="#645b3e"/>
    </linearGradient>
    <linearGradient gradientTransform="matrix(-0.0161, 0.114, -0.0396, -0.0056, 130.7, 103.35)" gradientUnits="userSpaceOnUse" id="gradient20" spreadMethod="pad" x1="-819.2" x2="819.2">
      <stop offset="0.0" stop-color="#594737"/>
      <stop offset="0.6549019607843137" stop-color="#645b3e"/>
      <stop offset="1.0" stop-color="#363c45"/>
    </linearGradient>
    <linearGradient gradientTransform="matrix(-0.0052, 0.0394, -0.0156, -0.0021, 216.1, 82.25)" gradientUnits="userSpaceOnUse" id="gradient21" spreadMethod="pad" x1="-819.2" x2="819.2">
      <stop offset="0.0" stop-color="#7a6644"/>
      <stop offset="1.0" stop-color="#443f2b"/>
    </linearGradient>
    <linearGradient gradientTransform="matrix(0.0107, -0.0836, 0.0292, 0.0037, 238.35, 135.45)" gradientUnits="userSpaceOnUse" id="gradient22" spreadMethod="pad" x1="-819.2" x2="819.2">
      <stop offset="0.0" stop-color="#3c4044"/>
      <stop offset="0.23921568627450981" stop-color="#786f4b"/>
      <stop offset="1.0" stop-color="#6d714a"/>
    </linearGradient>
    <linearGradient gradientTransform="matrix(-0.0376, 0.1561, -0.0274, -0.0066, 196.05, 110.05)" gradientUnits="userSpaceOnUse" id="gradient23" spreadMethod="pad" x1="-819.2" x2="819.2">
      <stop offset="0.0" stop-color="#594737"/>
      <stop offset="0.6549019607843137" stop-color="#645b3e"/>
      <stop offset="1.0" stop-color="#363c45"/>
    </linearGradient>
    <linearGradient gradientTransform="matrix(-0.0098, 0.0299, -0.0166, -0.0054, 150.1, 183.9)" gradientUnits="userSpaceOnUse" id="gradient24" spreadMethod="pad" x1="-819.2" x2="819.2">
      <stop offset="0.0" stop-color="#443f2b"/>
      <stop offset="1.0" stop-color="#343c4b"/>
    </linearGradient>
    <linearGradient gradientTransform="matrix(0.0101, -0.0818, 0.0245, 0.003, 100.85, 79.2)" gradientUnits="userSpaceOnUse" id="gradient25" spreadMethod="pad" x1="-819.2" x2="819.2">
      <stop offset="0.0" stop-color="#464639"/>
      <stop offset="0.16862745098039217" stop-color="#615b49"/>
      <stop offset="1.0" stop-color="#645b3e"/>
    </linearGradient>
    <linearGradient gradientTransform="matrix(0.0015, 0.1081, -0.029, 4.0E-4, 66.05, 102.3)" gradientUnits="userSpaceOnUse" id="gradient26" spreadMethod="pad" x1="-819.2" x2="819.2">
      <stop offset="0.0" stop-color="#594737"/>
      <stop offset="0.6549019607843137" stop-color="#645b3e"/>
      <stop offset="1.0" stop-color="#363c45"/>
    </linearGradient>
    <linearGradient gradientTransform="matrix(0.0064, -0.0483, 0.0952, 0.0125, -26.7, 150.8)" gradientUnits="userSpaceOnUse" id="gradient27" spreadMethod="pad" x1="-819.2" x2="819.2">
      <stop offset="0.0" stop-color="#2e392d"/>
      <stop offset="1.0" stop-color="#566648"/>
    </linearGradient>
    <linearGradient gradientTransform="matrix(-0.0029, 0.02, -0.0102, -0.0015, 37.6, 171.6)" gradientUnits="userSpaceOnUse" id="gradient28" spreadMethod="pad" x1="-819.2" x2="819.2">
      <stop offset="0.0" stop-color="#4e5b41"/>
      <stop offset="1.0" stop-color="#343c4b"/>
    </linearGradient>
    <linearGradient gradientTransform="matrix(-0.0016, 0.0696, -0.0177, -4.0E-4, 93.2, 159.85)" gradientUnits="userSpaceOnUse" id="gradient29" spreadMethod="pad" x1="-819.2" x2="819.2">
      <stop offset="0.0" stop-color="#44322b"/>
      <stop offset="0.3254901960784314" stop-color="#443f2b"/>
      <stop offset="1.0" stop-color="#343c4b"/>
    </linearGradient>
    <linearGradient gradientTransform="matrix(-0.0028, 0.049, -0.0199, -0.0011, 264.4, 164.05)" gradientUnits="userSpaceOnUse" id="gradient30" spreadMethod="pad" x1="-819.2" x2="819.2">
      <stop offset="0.0" stop-color="#594737"/>
      <stop offset="0.6549019607843137" stop-color="#645b3e"/>
      <stop offset="1.0" stop-color="#363c45"/>
    </linearGradient>
    <linearGradient gradientTransform="matrix(0.0339, -0.0385, 0.1036, 0.0912, -307.9, 11.15)" gradientUnits="userSpaceOnUse" id="gradient31" spreadMethod="pad" x1="-819.2" x2="819.2">
      <stop offset="0.0" stop-color="#3c482f"/>
      <stop offset="1.0" stop-color="#3f4440"/>
    </linearGradient>
    <radialGradient cx="0" cy="0" gradientTransform="matrix(0.1061, 0.3071, -0.1934, 0.0668, -255.05, -74.05)" gradientUnits="userSpaceOnUse" id="gradient32" r="819.2" spreadMethod="pad">
      <stop offset="0.0" stop-color="#3f473e"/>
      <stop offset="0.6313725490196078" stop-color="#1b2c18"/>
      <stop offset="1.0" stop-color="#2d423a"/>
    </radialGradient>
    <linearGradient gradientTransform="matrix(-0.0092, 0.1322, -0.0424, -0.003, -358.9, 95.25)" gradientUnits="userSpaceOnUse" id="gradient33" spreadMethod="pad" x1="-819.2" x2="819.2">
      <stop offset="0.0" stop-color="#453732"/>
      <stop offset="0.6705882352941176" stop-color="#443f2b"/>
      <stop offset="1.0" stop-color="#3f403e"/>
    </linearGradient>
    <linearGradient gradientTransform="matrix(0.0096, 0.0, 0.0, 0.0177, -127.15, 70.5)" gradientUnits="userSpaceOnUse" id="gradient34" spreadMethod="pad" x1="-819.2" x2="819.2">
      <stop offset="0.0" stop-color="#3c482f"/>
      <stop offset="1.0" stop-color="#3f4440"/>
    </linearGradient>
    <linearGradient gradientTransform="matrix(0.0083, -0.0237, 0.0221, 0.0077, -159.4, 102.15)" gradientUnits="userSpaceOnUse" id="gradient35" spreadMethod="pad" x1="-819.2" x2="819.2">
      <stop offset="0.0" stop-color="#3c482f"/>
      <stop offset="1.0" stop-color="#3f4440"/>
    </linearGradient>
    <linearGradient gradientTransform="matrix(0.0, 0.0676, -0.046, 0.0, -157.65, 133.75)" gradientUnits="userSpaceOnUse" id="gradient36" spreadMethod="pad" x1="-819.2" x2="819.2">
      <stop offset="0.0" stop-color="#464639"/>
      <stop offset="0.16862745098039217" stop-color="#615b49"/>
      <stop offset="0.6705882352941176" stop-color="#645b3e"/>
      <stop offset="1.0" stop-color="#3a3d3e"/>
    </linearGradient>
    <linearGradient gradientTransform="matrix(0.0118, 0.0, 0.0, 0.0266, -111.8, 77.0)" gradientUnits="userSpaceOnUse" id="gradient37" spreadMethod="pad" x1="-819.2" x2="819.2">
      <stop offset="0.0" stop-color="#3c482f"/>
      <stop offset="1.0" stop-color="#3f4440"/>
    </linearGradient>
    <linearGradient gradientTransform="matrix(0.0047, 0.0597, -0.012, 9.0E-4, -113.95, 135.05)" gradientUnits="userSpaceOnUse" id="gradient38" spreadMethod="pad" x1="-819.2" x2="819.2">
      <stop offset="0.0" stop-color="#594737"/>
      <stop offset="0.6549019607843137" stop-color="#645b3e"/>
      <stop offset="1.0" stop-color="#363c45"/>
    </linearGradient>
    <linearGradient gradientTransform="matrix(0.0036, -0.0159, 0.0107, 0.0024, -161.0, 126.6)" gradientUnits="userSpaceOnUse" id="gradient39" spreadMethod="pad" x1="-819.2" x2="819.2">
      <stop offset="0.0" stop-color="#453732"/>
      <stop offset="1.0" stop-color="#443f2b"/>
    </linearGradient>
    <linearGradient gradientTransform="matrix(0.0066, 0.0789, -0.0448, 0.0037, -219.15, 127.45)" gradientUnits="userSpaceOnUse" id="gradient40" spreadMethod="pad" x1="-819.2" x2="819.2">
      <stop offset="0.0" stop-color="#594737"/>
      <stop offset="0.6549019607843137" stop-color="#645b3e"/>
      <stop offset="1.0" stop-color="#363c45"/>
    </linearGradient>
    <linearGradient gradientTransform="matrix(-0.0022, 0.0849, -0.0324, -9.0E-4, -287.45, 120.8)" gradientUnits="userSpaceOnUse" id="gradient41" spreadMethod="pad" x1="-819.2" x2="819.2">
      <stop offset="0.0" stop-color="#453732"/>
      <stop offset="1.0" stop-color="#443f2b"/>
    </linearGradient>
    <linearGradient gradientTransform="matrix(0.011, 0.0, 0.0, 0.0368, -258.75, 94.4)" gradientUnits="userSpaceOnUse" id="gradient42" spreadMethod="pad" x1="-819.2" x2="819.2">
      <stop offset="0.0" stop-color="#615b48"/>
      <stop offset="1.0" stop-color="#443830"/>
    </linearGradient>
    <linearGradient gradientTransform="matrix(0.0, 0.0621, -0.0192, 0.0, -266.8, 140.2)" gradientUnits="userSpaceOnUse" id="gradient43" spreadMethod="pad" x1="-819.2" x2="819.2">
      <stop offset="0.0" stop-color="#464639"/>
      <stop offset="0.16862745098039217" stop-color="#615b49"/>
      <stop offset="1.0" stop-color="#645b3e"/>
    </linearGradient>
    <linearGradient gradientTransform="matrix(0.0, 0.1232, -0.0186, 0.0, -318.4, 93.7)" gradientUnits="userSpaceOnUse" id="gradient44" spreadMethod="pad" x1="-819.2" x2="819.2">
      <stop offset="0.0" stop-color="#464639"/>
      <stop offset="0.16862745098039217" stop-color="#615b49"/>
      <stop offset="0.6705882352941176" stop-color="#645b3e"/>
      <stop offset="1.0" stop-color="#3a3d3e"/>
    </linearGradient>
  </defs>
</svg>
