<?xml version="1.0" encoding="UTF-8" standalone="no"?>
<svg xmlns:xlink="http://www.w3.org/1999/xlink" height="207.0px" width="298.0px" xmlns="http://www.w3.org/2000/svg">
  <g transform="matrix(1.0, 0.0, 0.0, 1.0, 151.0, 117.9)">
    <path d="M147.0 -117.9 L147.0 -60.9 89.0 -60.9 89.0 -117.9 147.0 -117.9 M27.0 -60.9 L-31.0 -60.9 -31.0 -117.9 27.0 -117.9 27.0 -60.9 M147.0 89.1 L89.0 89.1 89.0 32.1 147.0 32.1 147.0 89.1 M27.0 89.1 L-31.0 89.1 -31.0 32.1 27.0 32.1 27.0 89.1 M-93.0 -117.9 L-93.0 -60.9 -151.0 -60.9 -151.0 -117.9 -93.0 -117.9 M-93.0 89.1 L-151.0 89.1 -151.0 32.1 -93.0 32.1 -93.0 89.1" fill="#a7bac7" fill-rule="evenodd" stroke="none"/>
  </g>
</svg>
