<?xml version="1.0" encoding="UTF-8" standalone="no"?>
<svg xmlns:xlink="http://www.w3.org/1999/xlink" height="109.4px" width="771.15px" xmlns="http://www.w3.org/2000/svg">
  <g transform="matrix(1.0, 0.0, 0.0, 1.0, 385.55, 54.7)">
    <path d="M67.55 -54.2 L385.1 -54.2 385.0 54.2 67.55 54.2 67.55 -54.2 M63.65 54.2 L-62.6 54.2 -62.6 -54.2 63.65 -54.2 63.65 54.2 M-385.05 -54.2 L-67.45 -54.2 -67.45 54.2 -385.05 54.2 -385.05 -54.2" fill="url(#gradient0)" fill-rule="evenodd" stroke="none"/>
    <path d="M67.55 -54.2 L67.55 54.2 385.0 54.2 385.1 -54.2 67.55 -54.2 M63.65 54.2 L-62.6 54.2 -62.6 -54.2 63.65 -54.2 63.65 54.2 M-385.05 -54.2 L-385.05 54.2 -67.45 54.2 -67.45 -54.2 -385.05 -54.2 Z" fill="none" stroke="#000000" stroke-linecap="round" stroke-linejoin="round" stroke-width="1.0"/>
  </g>
  <defs>
    <linearGradient gradientTransform="matrix(0.0, -0.0662, 0.4701, 0.0, 0.0, 0.0)" gradientUnits="userSpaceOnUse" id="gradient0" spreadMethod="pad" x1="-819.2" x2="819.2">
      <stop offset="0.0" stop-color="#32333d"/>
      <stop offset="1.0" stop-color="#5e7377"/>
    </linearGradient>
  </defs>
</svg>
