<?xml version="1.0" encoding="UTF-8" standalone="no"?>
<svg xmlns:xlink="http://www.w3.org/1999/xlink" height="432.45px" width="797.0px" xmlns="http://www.w3.org/2000/svg">
  <g transform="matrix(1.0, 0.0, 0.0, 1.0, 398.5, 216.2)">
    <path d="M389.95 -184.2 L391.1 -183.8 392.0 -183.25 393.15 -182.45 394.2 -181.7 395.2 -180.95 394.9 -180.25 394.45 -179.45 393.9 -178.75 393.25 -177.95 392.65 -177.25 391.95 -176.45 390.5 -176.7 389.65 -177.2 388.7 -177.95 387.7 -178.7 386.7 -179.45 386.85 -180.15 387.4 -181.0 387.95 -181.7 388.5 -182.4 389.7 -183.7 389.9 -184.0 389.95 -184.2 M345.7 -216.2 L348.45 -213.95 350.7 -212.45 353.4 -210.15 353.95 -209.45 Q353.8 -208.2 352.8 -207.1 L351.65 -205.75 350.0 -203.4 Q349.1 -202.05 347.7 -201.2 346.3 -201.4 345.1 -202.6 L343.15 -204.1 Q341.45 -205.2 340.0 -206.55 L339.45 -207.2 Q339.3 -208.5 340.05 -209.55 L341.8 -211.8 343.95 -214.7 Q344.6 -215.7 345.45 -216.15 L345.7 -216.2 M310.7 -109.95 L311.45 -109.2 312.2 -108.45 312.95 -107.7 313.65 -106.95 314.2 -106.2 313.9 -105.5 313.4 -104.75 312.7 -104.0 311.0 -102.4 310.45 -101.7 308.85 -102.25 307.2 -103.45 305.7 -104.95 306.6 -106.35 308.15 -108.0 310.3 -109.85 310.7 -109.95 M385.45 -11.7 L387.85 -14.05 390.3 -16.1 392.3 -18.1 392.7 -18.2 394.4 -16.9 395.9 -15.45 397.2 -13.95 398.45 -12.45 Q398.85 -10.95 397.1 -9.95 L394.4 -8.0 Q393.15 -6.95 392.2 -5.7 390.9 -4.75 389.75 -6.35 L387.75 -8.75 385.8 -11.05 385.45 -11.7 M327.95 54.3 Q329.3 54.75 330.25 55.95 L332.15 58.35 Q333.2 59.7 332.8 61.3 L332.7 62.05 331.55 63.35 329.45 65.05 327.7 66.3 Q326.5 65.75 325.55 64.65 L323.45 62.25 Q322.5 61.25 321.95 60.05 322.45 58.5 323.85 57.6 L325.45 56.3 Q326.5 55.35 327.7 54.5 L327.95 54.3 M297.85 1.25 L294.95 3.3 292.1 5.4 291.45 5.8 Q289.8 4.55 288.55 2.9 L286.0 -0.05 Q284.6 -1.5 284.2 -3.2 L286.9 -5.55 289.65 -7.8 292.15 -9.55 292.2 -9.7 Q294.05 -9.05 295.25 -7.25 296.35 -5.65 297.75 -4.25 299.2 -2.85 299.7 -1.2 299.2 0.3 297.85 1.25 M289.7 107.3 Q291.0 109.3 292.85 110.35 294.4 111.2 295.45 112.8 296.55 114.35 296.55 116.55 L296.7 117.3 Q295.55 119.15 293.55 120.4 L289.45 123.3 287.7 124.75 Q286.2 124.25 285.2 122.65 L283.1 119.6 280.35 115.65 280.2 115.05 Q280.65 112.95 282.55 111.75 L286.75 108.8 Q288.15 107.7 289.7 107.3 M244.7 66.55 Q243.6 67.9 241.95 68.8 L238.6 70.9 237.45 71.55 Q235.8 71.45 235.05 69.85 L233.6 67.65 231.95 65.3 Q232.15 63.75 233.85 62.85 235.7 61.9 237.5 60.9 L238.45 60.05 Q240.2 59.75 241.05 61.25 L242.4 63.55 Q243.15 64.8 244.15 65.85 L244.7 66.55 M225.2 -76.7 L227.0 -74.5 228.8 -72.1 230.7 -69.95 229.35 -68.55 227.45 -66.95 225.7 -65.45 224.95 -64.7 Q223.3 -64.55 222.25 -66.1 L220.5 -68.5 218.7 -70.7 Q218.45 -72.3 219.85 -73.15 221.45 -74.1 222.95 -75.2 L224.8 -76.6 225.2 -76.7 M-60.8 102.3 Q-60.2 100.35 -58.1 99.8 L-54.25 98.6 -53.8 98.55 -53.1 100.05 -52.5 101.5 -51.8 103.05 -51.55 103.8 Q-51.45 106.25 -54.55 107.45 L-58.8 107.55 -59.35 106.05 -60.0 104.5 -60.55 103.05 -60.8 102.3 M193.45 41.55 L194.15 42.3 194.7 43.05 195.2 43.8 195.7 44.55 196.2 45.3 Q197.6 46.85 195.6 47.85 194.05 48.65 192.55 48.4 191.85 48.3 191.2 47.55 L190.2 46.05 Q189.7 45.3 189.75 44.6 189.85 43.8 190.45 43.05 L191.7 42.25 192.45 41.75 192.75 41.6 193.2 41.55 193.45 41.55 M122.8 104.7 Q121.05 105.7 119.35 105.35 118.85 105.3 118.45 104.55 L117.05 102.35 Q116.25 100.6 118.15 99.85 L120.5 98.85 121.45 98.55 121.95 99.3 122.45 100.05 122.95 100.8 123.4 101.55 123.7 102.3 Q124.4 103.8 122.8 104.7 M153.2 109.55 Q154.65 109.65 155.3 111.0 L156.6 113.2 Q157.35 114.25 157.2 115.55 157.6 117.2 155.55 118.0 L151.2 120.0 149.95 120.5 148.65 118.55 147.5 116.25 146.5 114.0 146.2 113.3 Q148.05 111.9 150.1 110.85 151.6 110.05 153.15 109.65 L153.2 109.55 M-218.0 -174.45 Q-217.3 -173.45 -217.5 -172.3 -217.65 -171.45 -218.4 -170.9 -219.25 -170.35 -220.3 -170.2 L-222.25 -170.2 -221.1 -171.75 -220.2 -173.15 -219.45 -173.85 -218.25 -174.4 -218.0 -174.45 M-181.05 -42.95 Q-179.85 -41.55 -178.8 -39.95 L-176.75 -36.95 -174.55 -33.95 Q-176.25 -32.25 -178.55 -30.95 -180.9 -29.65 -183.1 -28.05 L-184.05 -27.45 -186.25 -30.25 -188.2 -33.25 Q-189.2 -34.85 -190.5 -36.2 -189.55 -38.15 -187.15 -39.45 -184.75 -40.7 -182.65 -42.35 -181.85 -42.95 -181.05 -42.95 M-270.5 -176.95 L-268.7 -174.0 -266.7 -171.0 Q-265.65 -169.55 -265.0 -167.95 -265.35 -165.9 -268.2 -164.8 -270.95 -163.7 -273.3 -162.05 L-274.25 -161.45 Q-275.8 -162.45 -276.55 -164.1 L-278.25 -167.2 -280.2 -170.25 -280.5 -170.95 -276.05 -174.0 Q-273.75 -175.3 -271.55 -176.75 L-270.5 -176.95 M-385.5 -145.7 L-384.5 -144.2 -383.5 -142.7 -382.5 -141.2 Q-381.5 -139.8 -383.4 -138.75 L-386.8 -136.75 -388.5 -135.7 -389.55 -137.2 -390.7 -138.75 -391.75 -140.2 -392.25 -140.95 Q-391.15 -142.25 -389.7 -143.15 L-386.4 -145.3 -385.5 -145.7 M-347.0 -89.7 L-345.45 -86.65 -343.9 -83.65 -342.25 -80.7 -341.75 -79.95 Q-344.2 -78.0 -347.1 -76.6 -349.65 -75.4 -352.25 -74.7 L-353.95 -77.65 -355.45 -80.75 -356.95 -83.75 -357.25 -84.45 Q-354.9 -86.3 -352.05 -87.5 L-347.45 -89.6 -347.0 -89.7 M-263.5 -105.45 L-262.5 -103.95 -261.5 -102.45 -260.5 -100.95 -261.9 -99.6 -264.0 -97.95 -266.25 -96.45 -267.2 -97.3 -268.25 -98.7 -269.3 -100.2 Q-270.1 -101.25 -270.5 -102.45 -270.3 -104.1 -268.4 -105.0 L-265.25 -106.65 -264.5 -106.95 -263.5 -105.45 M-261.75 -25.7 Q-261.85 -24.65 -262.25 -23.7 L-262.25 -23.6 Q-265.45 -23.55 -268.4 -24.55 L-268.5 -24.95 -268.5 -25.7 -268.15 -27.95 -267.7 -30.15 -267.55 -31.95 -267.5 -32.2 -263.35 -31.35 -263.25 -30.95 -262.95 -30.2 Q-262.75 -28.85 -262.15 -27.75 -261.6 -26.8 -261.75 -25.7 M-315.25 4.05 L-313.0 4.8 -310.8 5.55 Q-309.9 5.9 -309.2 6.5 L-309.0 7.05 -309.25 7.8 -309.5 8.55 -309.75 9.3 -310.5 11.55 -311.25 13.8 -311.85 14.45 Q-312.15 14.8 -312.45 14.75 -314.65 14.4 -316.7 13.55 L-319.25 12.3 -319.2 11.55 -319.0 10.8 -318.25 8.55 -317.35 5.5 Q-317.05 4.35 -316.0 4.1 L-315.25 4.05 M-271.0 35.3 Q-271.55 37.3 -270.15 38.4 -268.85 39.45 -268.85 41.3 L-269.0 44.3 -269.0 45.05 Q-270.15 51.1 -277.25 46.05 -275.75 44.75 -276.35 42.9 L-276.9 40.3 Q-277.1 38.6 -276.4 37.2 L-276.25 36.55 Q-275.9 35.9 -275.4 35.8 L-271.0 35.3 M-377.0 13.05 L-375.45 13.65 -374.5 13.85 -373.55 14.1 -372.5 14.55 -371.0 16.8 -369.05 19.8 -367.75 22.0 -367.25 22.8 -369.3 24.2 -372.55 26.45 -373.5 27.05 Q-375.6 25.65 -377.3 23.55 L-379.65 20.65 -382.0 17.55 -381.25 16.25 -378.45 13.9 -377.55 13.5 -377.1 13.2 -377.0 13.05 M-332.0 96.55 Q-329.5 96.65 -327.35 97.6 L-325.05 98.4 -324.0 98.8 -324.1 99.5 -324.45 101.05 -324.6 101.75 -325.0 103.3 -325.25 104.05 -325.3 104.3 -328.25 104.05 -331.0 103.2 -332.25 102.8 -332.2 102.05 -331.95 100.5 -331.95 99.0 -332.0 97.55 -332.0 96.8 -332.0 96.55 M-382.5 136.0 L-382.45 136.2 Q-381.9 136.5 -381.65 136.95 -381.4 137.5 -381.45 138.3 L-381.55 139.75 -381.8 142.0 -382.0 145.0 -382.0 145.75 -382.55 146.5 Q-382.75 146.75 -383.0 146.75 L-388.5 146.55 -391.5 146.25 -392.55 145.6 -392.75 145.0 -392.95 144.5 -394.25 143.7 Q-395.75 143.0 -397.15 142.1 L-397.5 141.5 -398.35 140.9 -398.5 140.25 -398.5 139.5 -398.5 138.75 -398.45 138.05 -398.35 136.5 -398.25 134.0 -398.25 133.75 -397.25 133.8 -391.0 134.15 -388.0 134.4 Q-385.2 134.7 -382.6 135.75 L-382.5 136.0 M-143.55 -0.95 L-142.55 0.55 -141.55 2.05 -140.55 3.55 -139.8 5.05 -142.8 7.25 -146.3 9.55 -147.2 8.7 -148.3 7.3 -149.3 5.8 -150.3 4.3 Q-150.2 2.75 -148.6 1.9 L-145.15 -0.35 Q-144.35 -0.95 -143.55 -0.95 M-83.8 48.3 Q-82.25 48.4 -81.75 49.95 L-80.8 52.3 -79.55 54.55 Q-78.95 56.35 -81.05 57.25 -84.25 58.65 -87.55 59.05 L-88.3 57.55 -89.55 55.3 -90.75 53.0 -91.05 52.3 Q-89.35 50.7 -87.15 49.8 L-84.3 48.5 -83.8 48.3 M-224.25 61.4 L-225.35 59.05 -225.75 58.3 Q-225.6 55.95 -222.95 54.85 L-217.75 52.8 -216.3 54.9 -215.05 57.15 -213.95 59.5 -213.5 60.3 Q-213.4 62.45 -216.1 63.65 L-221.5 65.8 -222.85 63.6 -224.25 61.4 M-126.05 96.8 L-124.35 98.85 Q-123.65 99.85 -123.6 101.05 L-123.45 103.25 -123.3 104.8 Q-125.4 106.5 -128.25 107.1 L-131.3 107.8 -132.05 105.55 -132.8 103.3 -133.55 101.05 -133.8 100.3 Q-133.2 98.2 -130.4 97.5 L-126.05 96.8 M-83.05 213.5 Q-84.6 211.2 -82.35 210.35 -79.75 209.35 -77.05 209.0 L-76.55 210.5 -76.1 212.05 -75.8 213.5 Q-77.45 215.5 -80.2 216.1 -82.85 216.75 -82.9 214.25 -82.9 213.9 -83.05 213.5 M123.45 187.75 L121.85 189.1 Q119.65 190.5 117.2 191.25 L116.6 190.65 115.9 189.3 115.25 187.75 114.7 186.25 Q115.2 185.5 115.9 185.05 117.2 184.15 118.75 183.6 L119.9 183.15 119.95 183.0 121.5 184.2 122.4 185.55 123.05 187.0 123.45 187.75 M9.45 170.75 L10.2 172.25 10.85 173.8 11.2 175.25 9.35 176.85 5.7 179.45 4.95 179.75 3.65 178.6 Q3.1 178.0 2.7 177.25 L1.95 175.8 1.45 175.0 Q1.85 173.4 3.9 172.6 L8.0 171.15 9.45 170.75 M-27.55 183.0 L-27.1 183.8 -26.75 184.5 -26.3 185.25 -25.85 186.05 -25.55 186.75 Q-24.95 188.6 -26.9 189.7 -29.55 191.15 -31.15 189.15 L-32.05 187.75 Q-32.9 186.8 -32.25 185.95 -30.8 184.2 -28.5 183.35 L-27.55 183.0" fill="#eec933" fill-rule="evenodd" stroke="none"/>
  </g>
</svg>
