<?xml version="1.0" encoding="UTF-8" standalone="no"?>
<svg xmlns:xlink="http://www.w3.org/1999/xlink" height="423.45px" width="1026.55px" xmlns="http://www.w3.org/2000/svg">
  <g transform="matrix(1.0, 0.0, 0.0, 1.0, 515.65, 242.95)">
    <path d="M-463.9 -4.85 L-463.95 -34.85 Q-488.65 -35.85 -513.7 -35.8 L-515.65 -242.95 Q-482.55 -242.85 -449.6 -239.75 -315.6 -175.7 -180.8 -101.6 L-179.45 -65.3 Q-1.25 -38.85 176.0 -65.2 175.9 -83.05 175.95 -101.25 307.85 -174.65 441.1 -237.8 474.0 -240.8 507.05 -240.95 508.4 -141.55 510.9 -35.75 487.3 -35.7 463.7 -34.8 L463.75 10.0 463.85 180.45 -463.9 180.5 -463.95 180.5 -463.9 178.65 -463.9 177.8 -463.9 176.0 -463.9 170.5 -463.9 7.25 -463.9 5.9 -463.9 5.15 -463.9 -2.75 -463.9 -4.85 M193.8 -105.05 L194.65 -100.9 199.45 -103.0 200.1 -107.9 Q196.95 -106.4 193.8 -105.05 M-204.4 -103.35 L-199.45 -101.25 -198.85 -105.4 -205.25 -108.3 Q-204.65 -105.75 -204.4 -103.35" fill="url(#gradient0)" fill-rule="evenodd" stroke="none"/>
    <path d="M-463.9 -4.85 L-463.9 -2.75 -463.9 5.15 M-463.9 5.9 L-463.9 7.25 M-463.9 170.5 L-463.9 176.0 -463.9 178.65" fill="none" stroke="#101012" stroke-linecap="round" stroke-linejoin="round" stroke-width="0.05"/>
  </g>
  <defs>
    <radialGradient cx="0" cy="0" gradientTransform="matrix(0.0096, -0.3561, 1.0285, 0.0277, -19.65, -151.9)" gradientUnits="userSpaceOnUse" id="gradient0" r="819.2" spreadMethod="pad">
      <stop offset="0.5098039215686274" stop-color="#302d25" stop-opacity="0.0"/>
      <stop offset="1.0" stop-color="#1f2521" stop-opacity="0.6431373"/>
    </radialGradient>
  </defs>
</svg>
