<?xml version="1.0" encoding="UTF-8" standalone="no"?>
<svg xmlns:xlink="http://www.w3.org/1999/xlink" height="415.55px" width="1026.55px" xmlns="http://www.w3.org/2000/svg">
  <g transform="matrix(1.0, 0.0, 0.0, 1.0, 515.65, 242.95)">
    <path d="M-463.95 172.6 L-463.9 32.0 Q-463.7 -12.75 -464.0 -66.45 L463.55 -66.45 Q464.2 -13.05 463.85 31.95 L463.85 172.6 -463.95 172.6" fill="url(#gradient0)" fill-rule="evenodd" stroke="none"/>
    <path d="M-463.95 172.6 L-463.9 32.0 Q-463.7 -12.75 -464.0 -66.45 L463.55 -66.45 Q464.2 -13.05 463.85 31.95 L463.85 172.6" fill="none" stroke="#101012" stroke-linecap="round" stroke-linejoin="round" stroke-width="0.05"/>
    <path d="M246.35 -108.55 L246.15 -108.65 246.4 -108.75 246.6 -108.85 246.75 -108.95 246.35 -108.55 M190.25 -90.4 L189.25 -90.05 189.35 -90.65 Q189.75 -90.7 190.15 -90.9 L190.25 -90.4 M345.6 -142.9 L344.75 -142.75 344.7 -143.55 345.3 -143.75 345.6 -142.9 M-351.8 -143.95 L-351.6 -144.75 -351.0 -144.6 -350.95 -143.75 -351.8 -143.95 M-251.8 -109.45 L-251.65 -109.35 -251.45 -109.35 -251.2 -109.15 -251.4 -109.05 -251.8 -109.45 M-193.7 -90.3 L-194.7 -90.7 -194.6 -91.2 Q-194.2 -90.9 -193.8 -90.95 L-193.7 -90.3" fill="#0000cc" fill-rule="evenodd" stroke="none"/>
    <path d="M353.75 -45.15 L353.35 -45.2 353.8 -45.35 353.75 -45.15 M-356.15 -45.4 L-356.55 -45.35 -356.7 -45.55 -356.15 -45.4" fill="#333333" fill-rule="evenodd" stroke="none"/>
    <path d="M441.15 -237.8 Q474.0 -240.8 507.05 -240.95 508.4 -141.55 510.9 -35.75 477.7 -35.7 444.85 -34.0 442.6 -139.1 441.15 -237.8 M-447.6 -34.15 Q-480.55 -35.8 -513.7 -35.8 L-515.65 -242.95 Q-482.55 -242.85 -449.65 -239.75 L-447.6 -34.15" fill="#242b22" fill-rule="evenodd" stroke="none"/>
    <path d="M279.2 -145.25 L278.4 -135.5 261.35 -128.35 259.35 -135.75 279.2 -145.25 M194.65 -100.9 L193.8 -105.05 Q196.95 -106.4 200.1 -107.9 L199.45 -103.0 194.65 -100.9 M400.1 -184.95 Q387.3 -180.1 374.45 -175.05 L369.65 -187.95 399.85 -201.3 Q399.9 -193.15 400.1 -184.95 M-381.75 -176.45 L-407.7 -186.5 -407.85 -202.9 Q-392.5 -196.25 -377.3 -189.4 L-381.75 -176.45 M-204.4 -103.35 Q-204.65 -105.75 -205.25 -108.3 L-198.85 -105.4 -199.45 -101.25 -204.4 -103.35 M-285.55 -146.1 L-265.45 -136.45 Q-266.2 -132.65 -267.1 -129.05 L-284.45 -136.3 -285.55 -146.1" fill="#222b23" fill-rule="evenodd" stroke="none"/>
    <path d="M279.2 -145.25 L259.35 -135.75 261.35 -128.35 278.4 -135.5 279.2 -145.25 M246.15 -108.65 L241.3 -56.35 214.55 -58.65 Q214.15 -75.15 213.9 -92.0 213.8 -95.25 213.85 -98.65 L190.15 -90.9 Q189.75 -90.7 189.35 -90.65 L189.25 -90.05 187.35 -60.7 187.35 -60.55 187.15 -59.8 176.0 -63.6 Q175.9 -82.15 175.95 -101.25 307.85 -174.65 441.1 -237.8 L441.15 -237.8 Q442.6 -139.1 444.85 -34.0 L444.85 -33.95 418.15 -38.25 Q417.3 -94.3 415.65 -155.55 L415.45 -166.9 Q380.3 -155.95 345.3 -143.75 L344.7 -143.55 344.75 -142.75 353.8 -45.35 353.35 -45.2 307.95 -50.45 Q304.15 -83.55 300.3 -118.45 L299.35 -128.35 246.75 -108.95 246.6 -108.85 246.4 -108.75 246.15 -108.65 M194.65 -100.9 L199.45 -103.0 200.1 -107.9 Q196.95 -106.4 193.8 -105.05 L194.65 -100.9 M400.1 -184.95 Q399.9 -193.15 399.85 -201.3 L369.65 -187.95 374.45 -175.05 Q387.3 -180.1 400.1 -184.95" fill="url(#gradient1)" fill-rule="evenodd" stroke="none"/>
    <path d="M246.15 -108.65 L246.35 -108.55 253.3 -103.85 253.85 -103.85 253.95 -103.85 254.15 -103.95 254.2 -62.75 244.45 -56.8 244.25 -56.05 241.3 -56.35 246.15 -108.65" fill="url(#gradient2)" fill-rule="evenodd" stroke="none"/>
    <path d="M253.95 -103.85 L253.85 -103.85 253.3 -103.85 246.35 -108.55 246.75 -108.95 299.35 -128.35 300.3 -118.45 255.4 -104.4 Q255.1 -104.55 254.95 -104.85 L254.15 -104.7 254.15 -104.0 253.95 -103.85" fill="url(#gradient3)" fill-rule="evenodd" stroke="none"/>
    <path d="M244.45 -56.8 L254.2 -62.75 254.15 -103.95 254.15 -104.0 254.15 -104.7 254.95 -104.85 Q255.1 -104.55 255.4 -104.4 L300.3 -118.45 Q304.15 -83.55 307.95 -50.45 L244.45 -56.8" fill="url(#gradient4)" fill-rule="evenodd" stroke="none"/>
    <path d="M254.15 -103.95 L253.95 -103.85 254.15 -104.0 254.15 -103.95" fill="url(#gradient5)" fill-rule="evenodd" stroke="none"/>
    <path d="M190.15 -90.9 L213.85 -98.65 Q213.8 -95.25 213.9 -92.0 204.3 -89.35 194.65 -87.05 L194.65 -87.1 190.25 -90.4 190.15 -90.9" fill="url(#gradient6)" fill-rule="evenodd" stroke="none"/>
    <path d="M213.9 -92.0 Q214.15 -75.15 214.55 -58.65 L189.05 -59.7 189.15 -60.8 195.2 -65.95 Q194.85 -76.4 194.65 -87.05 204.3 -89.35 213.9 -92.0" fill="url(#gradient7)" fill-rule="evenodd" stroke="none"/>
    <path d="M194.65 -87.05 Q194.85 -76.4 195.2 -65.95 L189.15 -60.8 187.35 -60.7 189.25 -90.05 190.25 -90.4 194.65 -87.1 194.65 -87.05" fill="url(#gradient8)" fill-rule="evenodd" stroke="none"/>
    <path d="M189.05 -59.7 L187.25 -59.8 187.15 -59.8 187.35 -60.55 187.35 -60.7 189.15 -60.8 189.05 -59.7" fill="url(#gradient9)" fill-rule="evenodd" stroke="none"/>
    <path d="M345.3 -143.75 Q380.3 -155.95 415.45 -166.9 L415.65 -155.55 Q386.75 -147.45 358.0 -138.35 L345.6 -142.9 345.3 -143.75" fill="url(#gradient10)" fill-rule="evenodd" stroke="none"/>
    <path d="M355.2 -44.95 L353.75 -45.15 353.8 -45.35 344.75 -142.75 345.6 -142.9 358.0 -138.35 Q362.75 -98.45 367.7 -60.1 L355.6 -46.3 355.2 -44.95" fill="url(#gradient11)" fill-rule="evenodd" stroke="none"/>
    <path d="M355.45 -44.9 L355.2 -44.95 355.6 -46.3 Q355.45 -45.6 355.45 -44.9" fill="url(#gradient12)" fill-rule="evenodd" stroke="none"/>
    <path d="M418.15 -38.25 L418.15 -37.15 355.45 -44.9 Q355.45 -45.6 355.6 -46.3 L367.7 -60.1 Q362.75 -98.45 358.0 -138.35 386.75 -147.45 415.65 -155.55 417.3 -94.3 418.15 -38.25" fill="url(#gradient13)" fill-rule="evenodd" stroke="none"/>
    <path d="M-351.6 -144.75 L-351.8 -143.95 -364.05 -139.45 Q-393.15 -148.55 -422.25 -156.85 L-422.4 -168.35 Q-386.9 -157.15 -351.6 -144.75" fill="url(#gradient14)" fill-rule="evenodd" stroke="none"/>
    <path d="M-356.55 -45.35 L-358.05 -45.15 -358.5 -46.5 -370.9 -60.45 Q-367.4 -99.05 -364.05 -139.45 L-351.8 -143.95 -350.95 -143.75 Q-353.65 -93.15 -356.7 -45.55 L-356.55 -45.35" fill="url(#gradient15)" fill-rule="evenodd" stroke="none"/>
    <path d="M-358.3 -45.1 L-420.9 -37.35 -420.9 -38.45 Q-421.3 -94.85 -422.25 -156.85 -393.15 -148.55 -364.05 -139.45 -367.4 -99.05 -370.9 -60.45 L-358.5 -46.5 -358.3 -45.1" fill="url(#gradient16)" fill-rule="evenodd" stroke="none"/>
    <path d="M-358.05 -45.15 L-358.3 -45.1 -358.5 -46.5 -358.05 -45.15" fill="url(#gradient17)" fill-rule="evenodd" stroke="none"/>
    <path d="M-305.7 -119.2 Q-305.3 -124.2 -305.05 -129.2 -278.45 -119.15 -251.8 -109.45 L-251.4 -109.05 -258.2 -104.35 -258.55 -104.35 -259.05 -104.55 -259.05 -105.2 -259.85 -105.4 -260.3 -104.9 -305.7 -119.2" fill="url(#gradient18)" fill-rule="evenodd" stroke="none"/>
    <path d="M-244.45 -56.5 L-247.4 -56.25 -247.6 -56.95 Q-252.5 -59.8 -257.6 -63.0 -258.15 -83.35 -259.05 -104.45 L-258.55 -104.35 -258.2 -104.35 -251.4 -109.05 -251.2 -109.15 Q-247.65 -82.25 -244.45 -56.5" fill="url(#gradient19)" fill-rule="evenodd" stroke="none"/>
    <path d="M-247.6 -56.95 L-310.95 -50.65 Q-308.25 -84.05 -305.7 -119.2 L-260.3 -104.9 -259.85 -105.4 -259.05 -105.2 -259.05 -104.55 -259.05 -104.45 Q-258.15 -83.35 -257.6 -63.0 -252.5 -59.8 -247.6 -56.95" fill="url(#gradient20)" fill-rule="evenodd" stroke="none"/>
    <path d="M-259.05 -104.55 L-258.55 -104.35 -259.05 -104.45 -259.05 -104.55" fill="url(#gradient21)" fill-rule="evenodd" stroke="none"/>
    <path d="M-194.7 -90.7 L-193.7 -90.3 -190.7 -60.8 -192.5 -60.9 -198.7 -66.1 -199.0 -87.3 -199.0 -87.35 Q-196.85 -88.95 -194.7 -90.7" fill="url(#gradient22)" fill-rule="evenodd" stroke="none"/>
    <path d="M-194.6 -91.2 L-194.7 -90.7 Q-196.85 -88.95 -199.0 -87.35 L-199.0 -87.3 -218.4 -92.3 Q-218.4 -95.65 -218.55 -99.0 L-194.6 -91.2" fill="url(#gradient23)" fill-rule="evenodd" stroke="none"/>
    <path d="M-190.4 -59.95 L-190.5 -59.95 -192.3 -59.85 -192.5 -60.9 -190.7 -60.8 -190.7 -60.65 -190.4 -59.95" fill="url(#gradient24)" fill-rule="evenodd" stroke="none"/>
    <path d="M-192.3 -59.85 L-217.75 -58.8 -218.4 -92.3 -199.0 -87.3 -198.7 -66.1 -192.5 -60.9 -192.3 -59.85" fill="url(#gradient25)" fill-rule="evenodd" stroke="none"/>
    <path d="M-449.65 -239.75 L-449.6 -239.75 Q-315.6 -175.7 -180.8 -101.6 L-179.45 -63.7 Q-184.85 -61.75 -190.4 -59.95 L-190.7 -60.65 -190.7 -60.8 -193.7 -90.3 -193.8 -90.95 Q-194.2 -90.9 -194.6 -91.2 L-218.55 -99.0 Q-218.4 -95.65 -218.4 -92.3 L-217.75 -58.8 -244.45 -56.5 Q-247.65 -82.25 -251.2 -109.15 L-251.45 -109.35 -251.65 -109.35 -251.8 -109.45 Q-278.45 -119.15 -305.05 -129.2 -305.3 -124.2 -305.7 -119.2 -308.25 -84.05 -310.95 -50.65 L-356.15 -45.4 -356.7 -45.55 Q-353.65 -93.15 -350.95 -143.75 L-351.0 -144.6 -351.6 -144.75 Q-386.9 -157.15 -422.4 -168.35 L-422.25 -156.85 Q-421.3 -94.85 -420.9 -38.45 L-447.6 -34.1 -447.6 -34.15 -449.65 -239.75 M-381.75 -176.45 L-377.3 -189.4 Q-392.5 -196.25 -407.85 -202.9 L-407.7 -186.5 -381.75 -176.45 M-204.4 -103.35 L-199.45 -101.25 -198.85 -105.4 -205.25 -108.3 Q-204.65 -105.75 -204.4 -103.35 M-285.55 -146.1 L-284.45 -136.3 -267.1 -129.05 Q-266.2 -132.65 -265.45 -136.45 L-285.55 -146.1" fill="url(#gradient26)" fill-rule="evenodd" stroke="none"/>
    <path d="M176.0 -63.6 Q175.9 -82.15 175.95 -101.25 307.85 -174.65 441.1 -237.8 M-449.6 -239.75 Q-315.6 -175.7 -180.8 -101.6 L-179.45 -63.7" fill="none" stroke="#101012" stroke-linecap="round" stroke-linejoin="round" stroke-width="0.05"/>
    <path d="M55.2 -27.75 Q56.45 -27.0 55.7 -26.2 54.55 -24.55 53.75 -26.05 52.75 -27.5 54.7 -27.7 L55.2 -27.75 M110.4 -44.3 L111.0 -43.15 110.75 -42.0 110.35 -41.35 Q108.25 -39.75 106.9 -41.5 106.1 -42.55 106.65 -43.8 107.2 -45.0 108.7 -45.35 L109.2 -45.45 Q109.8 -44.8 110.4 -44.3 M93.45 -12.25 Q68.05 2.2 42.45 14.2 L-36.8 10.95 -36.8 10.0 Q-3.25 11.5 29.95 11.0 61.25 -0.6 92.35 -14.8 L91.25 -27.05 Q94.35 -20.45 97.65 -14.25 L93.6 -11.95 Q93.45 -12.0 93.45 -12.25 M135.45 -31.25 L136.0 -31.4 Q150.0 -16.5 163.95 -2.85 L216.65 10.25 164.95 4.3 147.35 15.55 121.75 31.4 139.05 15.55 155.15 0.2 Q145.4 -14.6 135.45 -31.25 M188.55 -34.9 L189.25 -35.05 189.75 -35.15 190.45 -34.55 191.45 -33.5 Q191.75 -32.95 191.65 -32.4 L191.4 -31.75 189.2 -30.75 Q187.1 -29.95 186.15 -31.3 185.7 -31.6 185.65 -32.3 L185.85 -32.8 187.4 -34.25 188.55 -34.9 M215.05 -13.65 Q217.3 -13.25 215.95 -12.05 214.3 -10.8 213.65 -12.15 212.85 -13.6 215.05 -13.65 M228.35 -31.35 L229.45 -31.85 Q232.75 -31.55 231.65 -29.25 230.6 -26.95 228.1 -28.4 225.95 -29.4 228.35 -31.35 M268.75 -4.45 L268.8 -4.55 270.85 -4.5 272.3 -4.2 Q273.15 -3.95 273.75 -3.35 L274.2 -2.4 273.5 -1.4 271.7 0.0 Q268.75 1.9 265.95 0.55 L265.3 -0.5 Q265.0 -1.0 265.05 -1.5 264.95 -2.75 266.65 -3.6 L268.75 -4.45 M281.15 -24.9 L299.0 -14.55 304.1 5.85 304.1 6.0 304.05 5.9 303.95 5.8 303.15 6.2 293.95 15.55 Q269.85 39.9 245.75 63.25 265.7 39.85 285.65 15.55 L298.85 -0.7 Q289.7 -12.05 280.35 -24.45 280.75 -24.6 281.15 -24.9 M295.15 34.75 Q295.6 34.45 296.4 34.5 L297.95 34.95 300.3 35.85 Q301.3 36.25 301.5 37.2 L301.6 38.25 300.75 39.35 300.0 39.95 Q298.2 41.1 296.15 40.4 L295.1 40.0 294.5 38.9 Q294.25 38.35 294.4 37.95 294.6 36.75 294.35 35.75 294.05 35.05 295.15 34.75 M275.85 58.45 L275.2 58.0 275.4 57.5 Q275.95 56.8 276.7 56.45 277.4 55.9 278.1 55.75 L279.15 55.45 Q280.85 55.4 280.55 56.7 280.15 57.85 278.7 58.4 L275.85 58.45 M215.6 27.9 L217.6 28.2 Q218.45 28.35 219.05 28.9 219.7 29.45 218.75 30.2 L216.75 30.3 Q215.6 30.1 215.0 29.7 214.1 29.05 214.8 28.4 L215.6 27.9 M70.6 7.75 Q68.85 7.0 69.85 6.6 L70.75 6.35 71.2 6.25 Q73.55 5.75 72.85 7.0 71.95 8.4 70.6 7.75 M222.8 49.6 Q111.25 60.8 -0.35 63.8 -72.9 46.6 -135.15 15.55 -147.35 9.5 -159.1 2.9 L-270.95 10.8 -165.35 -4.05 Q-156.0 -16.1 -146.8 -29.15 -150.75 -15.95 -154.9 -3.75 -138.7 6.2 -121.5 14.15 L-121.45 14.15 -118.45 15.55 Q-60.05 42.65 11.0 56.8 117.0 56.5 222.8 49.6 M-315.85 -13.1 L-315.8 -13.15 -313.8 -12.5 -312.6 -11.85 -311.45 -10.7 -310.6 -9.45 -310.65 -8.9 Q-310.65 -8.3 -311.0 -7.9 -311.4 -7.05 -312.6 -6.6 L-315.8 -5.85 -319.05 -7.25 Q-320.65 -8.1 -321.0 -9.35 -321.15 -10.55 -320.45 -11.55 L-320.05 -12.1 Q-319.55 -12.3 -319.2 -12.55 L-318.15 -12.9 -315.85 -13.1 M-249.55 -25.15 Q-248.1 -24.05 -249.45 -23.3 -250.65 -22.35 -251.4 -23.15 L-251.8 -23.75 Q-252.25 -24.7 -250.7 -25.05 L-249.55 -25.15 M-257.45 -25.25 L-255.4 -24.5 -254.1 -23.75 -253.0 -22.55 -252.75 -22.25 -252.15 -21.3 -252.15 -20.75 Q-252.15 -20.15 -252.5 -19.7 -252.9 -18.7 -254.1 -18.3 L-257.4 -17.55 Q-259.0 -18.1 -260.6 -19.05 -262.15 -19.9 -262.5 -21.35 -262.7 -22.5 -262.05 -23.6 L-261.55 -24.2 Q-261.05 -24.3 -260.7 -24.6 L-259.65 -24.95 -257.45 -25.2 -257.45 -25.25 M-176.1 -37.3 Q-178.0 -37.2 -178.85 -38.7 L-179.0 -39.2 -178.05 -40.0 -176.3 -40.85 -175.05 -41.15 -174.55 -41.1 Q-172.65 -39.85 -173.7 -38.4 -174.4 -37.15 -176.1 -37.3 M-108.0 -16.95 L-106.95 -17.1 Q-104.4 -16.2 -105.65 -14.5 -106.9 -12.85 -108.75 -14.8 -110.5 -16.55 -108.0 -16.95 M-115.7 12.25 Q-116.45 13.65 -119.35 13.25 L-120.7 12.9 Q-122.45 12.25 -122.4 10.75 -122.25 9.85 -121.25 9.5 L-119.35 9.0 -117.35 9.9 Q-116.35 10.35 -115.9 10.75 -115.1 11.6 -115.7 12.25 M-160.1 24.3 L-160.15 24.75 Q-160.15 25.15 -160.5 25.7 -160.85 26.55 -162.15 26.95 L-165.35 27.7 -168.55 26.5 Q-170.1 25.6 -170.45 24.45 -170.65 23.3 -170.0 22.5 L-169.5 22.0 Q-169.1 21.75 -168.7 21.65 -168.15 21.3 -167.6 21.3 L-165.35 21.1 -165.35 21.05 -163.3 21.6 Q-162.5 21.85 -162.05 22.25 -161.4 22.6 -160.95 23.3 -160.45 23.7 -160.1 24.3 M-142.4 36.8 L-142.35 36.7 Q-141.25 36.8 -140.3 37.25 -139.6 37.45 -139.1 37.85 L-137.95 38.85 -137.15 39.85 -137.15 40.3 Q-137.15 40.8 -137.5 41.3 -137.95 42.05 -139.2 42.55 L-142.4 43.3 -145.65 42.1 Q-147.2 41.25 -147.55 40.15 -147.8 39.0 -147.0 38.25 L-146.55 37.75 -145.75 37.35 Q-145.2 37.0 -144.65 37.05 L-142.4 36.8 M-88.05 49.5 Q-87.85 48.8 -87.0 48.7 -84.05 48.35 -84.1 49.95 -84.1 50.35 -85.05 50.5 -88.25 51.0 -88.05 49.5 M-184.15 42.7 Q-181.7 42.9 -181.4 44.5 -180.95 45.65 -182.65 46.35 -184.75 47.2 -186.45 45.65 L-186.85 45.15 -186.8 44.7 -186.7 44.25 -186.05 43.25 -185.2 42.85 -184.15 42.7 M-321.55 40.15 Q-323.5 41.0 -324.25 39.45 -324.9 37.6 -322.15 37.95 L-321.65 37.95 Q-319.6 39.35 -321.55 40.15 M-292.5 46.8 Q-236.75 64.95 -172.75 71.45 L-245.9 67.6 Q-269.2 57.3 -292.5 46.8" fill="#000000" fill-opacity="0.15294118" fill-rule="evenodd" stroke="none"/>
  </g>
  <defs>
    <radialGradient cx="0" cy="0" gradientTransform="matrix(0.9896, 0.0, 0.0, 1.0572, -315.95, 123.15)" gradientUnits="userSpaceOnUse" id="gradient0" r="819.2" spreadMethod="pad">
      <stop offset="0.0" stop-color="#33343c"/>
      <stop offset="1.0" stop-color="#586251"/>
    </radialGradient>
    <radialGradient cx="0" cy="0" gradientTransform="matrix(-0.215, 0.0, 0.0, 0.1628, 333.0, -85.15)" gradientUnits="userSpaceOnUse" id="gradient1" r="819.2" spreadMethod="pad">
      <stop offset="0.0" stop-color="#586251"/>
      <stop offset="1.0" stop-color="#33343c"/>
    </radialGradient>
    <radialGradient cx="0" cy="0" gradientTransform="matrix(-0.0698, 0.0, 0.0, 0.0528, 251.25, -79.15)" gradientUnits="userSpaceOnUse" id="gradient2" r="819.2" spreadMethod="pad">
      <stop offset="0.11764705882352941" stop-color="#2d312f"/>
      <stop offset="1.0" stop-color="#181b18"/>
    </radialGradient>
    <radialGradient cx="0" cy="0" gradientTransform="matrix(-0.0371, 0.0, 0.0, 0.0281, 274.0, -120.7)" gradientUnits="userSpaceOnUse" id="gradient3" r="819.2" spreadMethod="pad">
      <stop offset="0.0" stop-color="#1a1b22"/>
      <stop offset="1.0" stop-color="#0e1014"/>
    </radialGradient>
    <radialGradient cx="0" cy="0" gradientTransform="matrix(-0.1557, 0.0, 0.0, 0.0614, 283.75, -69.8)" gradientUnits="userSpaceOnUse" id="gradient4" r="819.2" spreadMethod="pad">
      <stop offset="0.0" stop-color="#33372f"/>
      <stop offset="1.0" stop-color="#221d1a"/>
    </radialGradient>
    <radialGradient cx="0" cy="0" gradientTransform="matrix(-0.0698, 0.0, 0.0, 0.0528, 251.25, -79.15)" gradientUnits="userSpaceOnUse" id="gradient5" r="819.2" spreadMethod="pad">
      <stop offset="0.11764705882352941" stop-color="#363849"/>
      <stop offset="1.0" stop-color="#222433"/>
    </radialGradient>
    <radialGradient cx="0" cy="0" gradientTransform="matrix(-0.02, 0.0, 0.0, 0.0152, 200.15, -111.1)" gradientUnits="userSpaceOnUse" id="gradient6" r="819.2" spreadMethod="pad">
      <stop offset="0.0" stop-color="#1a1b22"/>
      <stop offset="1.0" stop-color="#0e1014"/>
    </radialGradient>
    <radialGradient cx="0" cy="0" gradientTransform="matrix(-0.116, 0.0, 0.0, 0.031, 197.5, -87.1)" gradientUnits="userSpaceOnUse" id="gradient7" r="819.2" spreadMethod="pad">
      <stop offset="0.0" stop-color="#33372f"/>
      <stop offset="1.0" stop-color="#221d1a"/>
    </radialGradient>
    <radialGradient cx="0" cy="0" gradientTransform="matrix(-0.0363, 0.0, 0.0, 0.0275, 194.0, -90.45)" gradientUnits="userSpaceOnUse" id="gradient8" r="819.2" spreadMethod="pad">
      <stop offset="0.11764705882352941" stop-color="#2d312f"/>
      <stop offset="1.0" stop-color="#181b18"/>
    </radialGradient>
    <radialGradient cx="0" cy="0" gradientTransform="matrix(-0.116, 0.0, 0.0, 0.031, 197.5, -87.1)" gradientUnits="userSpaceOnUse" id="gradient9" r="819.2" spreadMethod="pad">
      <stop offset="0.0" stop-color="#4d516f"/>
      <stop offset="0.3843137254901961" stop-color="#34374b"/>
      <stop offset="1.0" stop-color="#1a161d"/>
    </radialGradient>
    <radialGradient cx="0" cy="0" gradientTransform="matrix(-0.0727, 0.0, 0.0, 0.055, 406.9, -143.05)" gradientUnits="userSpaceOnUse" id="gradient10" r="819.2" spreadMethod="pad">
      <stop offset="0.0" stop-color="#1a1b22"/>
      <stop offset="1.0" stop-color="#0e1014"/>
    </radialGradient>
    <radialGradient cx="0" cy="0" gradientTransform="matrix(-0.1147, 0.0, 0.0, 0.0868, 362.05, -69.15)" gradientUnits="userSpaceOnUse" id="gradient11" r="819.2" spreadMethod="pad">
      <stop offset="0.11764705882352941" stop-color="#2d312f"/>
      <stop offset="1.0" stop-color="#181b18"/>
    </radialGradient>
    <radialGradient cx="0" cy="0" gradientTransform="matrix(-0.2502, 0.0, 0.0, 0.1117, 399.85, -50.5)" gradientUnits="userSpaceOnUse" id="gradient12" r="819.2" spreadMethod="pad">
      <stop offset="0.0" stop-color="#4d516f"/>
      <stop offset="0.3843137254901961" stop-color="#34374b"/>
      <stop offset="1.0" stop-color="#1a161d"/>
    </radialGradient>
    <radialGradient cx="0" cy="0" gradientTransform="matrix(-0.2502, 0.0, 0.0, 0.1117, 399.85, -50.5)" gradientUnits="userSpaceOnUse" id="gradient13" r="819.2" spreadMethod="pad">
      <stop offset="0.0" stop-color="#33372f"/>
      <stop offset="1.0" stop-color="#221d1a"/>
    </radialGradient>
    <radialGradient cx="0" cy="0" gradientTransform="matrix(0.0727, 0.0, 0.0, 0.055, -409.5, -143.05)" gradientUnits="userSpaceOnUse" id="gradient14" r="819.2" spreadMethod="pad">
      <stop offset="0.0" stop-color="#1a1b22"/>
      <stop offset="1.0" stop-color="#0e1014"/>
    </radialGradient>
    <radialGradient cx="0" cy="0" gradientTransform="matrix(0.1147, 0.0, 0.0, 0.0868, -364.65, -69.15)" gradientUnits="userSpaceOnUse" id="gradient15" r="819.2" spreadMethod="pad">
      <stop offset="0.11764705882352941" stop-color="#2d312f"/>
      <stop offset="1.0" stop-color="#181b18"/>
    </radialGradient>
    <radialGradient cx="0" cy="0" gradientTransform="matrix(0.2502, 0.0, 0.0, 0.1117, -402.45, -50.5)" gradientUnits="userSpaceOnUse" id="gradient16" r="819.2" spreadMethod="pad">
      <stop offset="0.0" stop-color="#33372f"/>
      <stop offset="1.0" stop-color="#221d1a"/>
    </radialGradient>
    <radialGradient cx="0" cy="0" gradientTransform="matrix(0.2502, 0.0, 0.0, 0.1117, -402.45, -50.5)" gradientUnits="userSpaceOnUse" id="gradient17" r="819.2" spreadMethod="pad">
      <stop offset="0.0" stop-color="#4d516f"/>
      <stop offset="0.3843137254901961" stop-color="#34374b"/>
      <stop offset="1.0" stop-color="#1a161d"/>
    </radialGradient>
    <radialGradient cx="0" cy="0" gradientTransform="matrix(0.0371, 0.0, 0.0, 0.0281, -276.6, -120.7)" gradientUnits="userSpaceOnUse" id="gradient18" r="819.2" spreadMethod="pad">
      <stop offset="0.0" stop-color="#1a1b22"/>
      <stop offset="1.0" stop-color="#0e1014"/>
    </radialGradient>
    <radialGradient cx="0" cy="0" gradientTransform="matrix(0.0698, 0.0, 0.0, 0.0528, -253.85, -79.15)" gradientUnits="userSpaceOnUse" id="gradient19" r="819.2" spreadMethod="pad">
      <stop offset="0.11764705882352941" stop-color="#2d312f"/>
      <stop offset="1.0" stop-color="#181b18"/>
    </radialGradient>
    <radialGradient cx="0" cy="0" gradientTransform="matrix(0.1557, 0.0, 0.0, 0.0614, -286.35, -69.8)" gradientUnits="userSpaceOnUse" id="gradient20" r="819.2" spreadMethod="pad">
      <stop offset="0.0" stop-color="#33372f"/>
      <stop offset="1.0" stop-color="#221d1a"/>
    </radialGradient>
    <radialGradient cx="0" cy="0" gradientTransform="matrix(0.0698, 0.0, 0.0, 0.0528, -253.85, -79.15)" gradientUnits="userSpaceOnUse" id="gradient21" r="819.2" spreadMethod="pad">
      <stop offset="0.11764705882352941" stop-color="#363849"/>
      <stop offset="1.0" stop-color="#222433"/>
    </radialGradient>
    <radialGradient cx="0" cy="0" gradientTransform="matrix(0.0363, 0.0, 0.0, 0.0275, -196.6, -90.45)" gradientUnits="userSpaceOnUse" id="gradient22" r="819.2" spreadMethod="pad">
      <stop offset="0.11764705882352941" stop-color="#2d312f"/>
      <stop offset="1.0" stop-color="#181b18"/>
    </radialGradient>
    <radialGradient cx="0" cy="0" gradientTransform="matrix(0.02, 0.0, 0.0, 0.0152, -202.75, -111.1)" gradientUnits="userSpaceOnUse" id="gradient23" r="819.2" spreadMethod="pad">
      <stop offset="0.0" stop-color="#1a1b22"/>
      <stop offset="1.0" stop-color="#0e1014"/>
    </radialGradient>
    <radialGradient cx="0" cy="0" gradientTransform="matrix(0.116, 0.0, 0.0, 0.031, -200.1, -87.1)" gradientUnits="userSpaceOnUse" id="gradient24" r="819.2" spreadMethod="pad">
      <stop offset="0.0" stop-color="#4d516f"/>
      <stop offset="0.3843137254901961" stop-color="#34374b"/>
      <stop offset="1.0" stop-color="#1a161d"/>
    </radialGradient>
    <radialGradient cx="0" cy="0" gradientTransform="matrix(0.116, 0.0, 0.0, 0.031, -200.1, -87.1)" gradientUnits="userSpaceOnUse" id="gradient25" r="819.2" spreadMethod="pad">
      <stop offset="0.0" stop-color="#33372f"/>
      <stop offset="1.0" stop-color="#221d1a"/>
    </radialGradient>
    <radialGradient cx="0" cy="0" gradientTransform="matrix(0.4811, 0.0, 0.0, 0.1628, -325.1, -55.0)" gradientUnits="userSpaceOnUse" id="gradient26" r="819.2" spreadMethod="pad">
      <stop offset="0.0" stop-color="#33343c"/>
      <stop offset="1.0" stop-color="#586251"/>
    </radialGradient>
  </defs>
</svg>
