<?xml version="1.0" encoding="UTF-8" standalone="no"?>
<svg xmlns:xlink="http://www.w3.org/1999/xlink" height="321.35px" width="961.6px" xmlns="http://www.w3.org/2000/svg">
  <g transform="matrix(1.0, 0.0, 0.0, 1.0, 481.8, 100.5)">
    <path d="M63.1 -75.45 L98.1 -87.45 140.15 -90.45 172.05 -72.55 Q237.75 -71.15 300.15 -86.45 324.95 -70.9 342.2 -70.45 401.25 -61.65 479.8 -77.35 L479.5 220.85 -480.8 217.2 -481.8 -88.65 -336.0 -100.5 -256.95 -83.45 Q-180.75 -77.0 -112.95 -86.45 L-65.9 -96.5 -31.9 -94.5 5.0 -69.6 63.1 -75.45" fill="url(#gradient0)" fill-rule="evenodd" stroke="none"/>
    <path d="M140.05 -70.05 L140.8 -70.75 141.85 -71.35 144.0 -71.9 144.05 -72.05 146.0 -71.4 147.15 -70.65 148.25 -69.25 149.05 -67.8 149.0 -67.05 148.65 -65.55 Q148.2 -64.25 147.1 -63.55 145.65 -62.65 144.05 -62.05 142.4 -62.65 140.95 -63.55 139.4 -64.45 139.1 -66.3 138.9 -67.85 139.6 -69.25 L140.05 -70.05 M215.0 -50.65 L215.05 -50.8 Q217.45 -50.4 217.75 -48.0 218.0 -45.9 216.1 -44.85 214.05 -43.65 212.8 -45.55 L212.3 -46.3 212.3 -47.05 212.45 -48.5 Q212.65 -49.3 213.25 -49.7 L215.0 -50.65 M205.55 -15.25 Q207.1 -14.05 205.85 -12.7 204.3 -11.0 203.7 -13.05 203.1 -15.2 205.05 -15.25 L205.55 -15.25 M252.05 -8.9 L252.05 -9.0 254.0 -8.4 255.2 -7.65 256.25 -6.25 257.05 -4.75 257.0 -4.0 256.7 -2.55 Q256.25 -1.25 255.15 -0.55 253.7 0.35 252.05 1.0 250.45 0.35 248.95 -0.5 247.4 -1.45 247.15 -3.3 246.9 -4.85 247.6 -6.25 L248.05 -7.0 248.85 -7.75 249.85 -8.3 252.05 -8.9 M290.95 -40.55 Q288.45 -39.65 287.6 -41.95 287.0 -43.4 288.3 -43.3 289.55 -41.1 292.25 -41.0 L290.95 -40.55 M319.85 -19.75 Q320.3 -20.15 320.9 -20.3 L323.05 -20.9 323.05 -21.0 325.05 -20.4 326.2 -19.65 327.3 -18.25 328.05 -16.75 328.05 -16.05 327.7 -14.55 Q327.25 -13.25 326.15 -12.55 324.7 -11.65 323.05 -11.0 321.45 -11.65 320.0 -12.55 318.4 -13.45 318.15 -15.3 317.95 -16.85 318.6 -18.25 L319.05 -19.0 319.85 -19.75 M377.9 -27.15 L379.35 -27.5 Q380.75 -26.65 379.65 -25.85 378.7 -25.15 377.65 -25.65 376.0 -26.45 377.9 -27.15 M388.05 35.95 L388.45 35.3 389.95 33.9 Q390.45 33.5 391.1 33.25 393.5 32.9 393.7 35.25 393.9 37.45 391.55 38.15 389.2 38.85 387.8 37.3 L387.6 36.75 388.05 35.95 M284.0 43.0 L283.7 44.45 Q283.25 45.75 282.15 46.45 280.7 47.35 279.05 48.0 L275.95 46.5 Q274.4 45.55 274.15 43.75 273.9 42.2 274.6 40.75 L275.05 40.0 275.85 39.25 Q276.3 38.85 276.85 38.7 L279.05 38.1 279.05 38.0 281.0 38.6 Q281.7 38.85 282.2 39.35 L283.25 40.75 284.05 42.25 284.0 43.0 M315.8 60.5 L317.1 59.9 320.05 59.2 321.1 59.05 321.55 59.0 Q322.95 60.0 321.55 61.2 321.05 61.6 320.55 61.7 L316.5 61.4 Q316.05 61.25 315.8 60.5 M187.05 84.75 Q189.4 84.55 190.05 86.8 190.55 88.5 189.15 89.55 187.25 90.95 185.75 89.05 L185.05 88.25 184.85 87.5 184.85 86.75 Q184.9 86.4 185.15 86.2 L187.0 84.9 187.05 84.75 M312.45 139.75 L312.2 137.55 Q312.1 136.25 313.15 135.65 313.55 135.4 314.05 135.25 316.5 134.95 316.85 137.25 317.15 139.3 316.1 140.85 314.9 142.55 312.8 141.25 L312.45 139.75 M142.25 8.95 Q139.85 6.95 143.05 6.0 145.9 5.85 145.25 8.5 144.7 11.05 142.25 8.95 M135.3 36.5 L136.1 37.95 137.1 39.6 Q137.7 40.75 136.4 41.5 L135.3 41.75 Q134.4 41.0 133.85 40.05 133.55 39.5 133.7 38.8 L134.25 37.25 134.65 36.65 135.3 36.5 M138.9 92.1 Q137.6 91.3 139.05 91.0 140.8 91.5 142.05 92.4 L141.5 92.5 Q140.05 92.75 138.9 92.1 M44.2 4.65 Q44.5 4.35 45.0 4.25 47.7 4.15 47.5 6.9 47.3 8.95 44.9 7.95 42.1 6.75 44.2 4.65 M26.8 40.7 L28.95 40.1 29.0 40.0 30.95 40.6 32.15 41.35 33.2 42.75 34.0 44.25 33.95 45.0 33.65 46.45 Q33.2 47.75 32.1 48.45 L29.0 50.0 Q27.4 49.35 25.9 48.5 24.35 47.55 24.1 45.75 23.85 44.2 24.55 42.75 L25.0 42.0 25.8 41.25 26.8 40.7 M68.0 55.25 Q70.45 56.15 69.2 58.6 68.0 60.85 66.85 58.25 65.75 55.65 68.0 55.25 M108.65 121.75 Q108.6 120.6 109.2 119.45 110.05 117.7 112.0 117.65 L112.0 117.5 Q114.4 118.05 114.2 120.25 114.1 121.95 113.05 123.3 111.6 125.2 109.6 123.9 L108.75 123.25 108.65 121.75 M-330.15 -76.65 L-330.1 -76.8 Q-327.9 -75.85 -328.1 -73.35 -328.4 -69.9 -330.7 -72.65 -333.15 -75.55 -330.15 -76.65 M-382.15 -66.9 L-382.1 -67.05 Q-379.2 -66.15 -379.9 -63.7 -380.7 -60.75 -383.05 -63.35 -385.45 -66.05 -382.15 -66.9 M-367.95 -19.65 L-366.9 -18.25 -366.1 -16.75 -366.15 -16.05 -366.45 -14.55 Q-366.9 -13.25 -368.0 -12.55 -369.45 -11.65 -371.1 -11.0 -372.7 -11.65 -374.2 -12.55 -375.75 -13.45 -376.0 -15.3 -376.25 -16.85 -375.55 -18.25 L-375.1 -19.0 -374.3 -19.75 -373.3 -20.3 -371.1 -20.9 -371.1 -21.0 -369.15 -20.4 -367.95 -19.65 M-314.1 -11.0 L-313.05 -11.4 -312.1 -11.55 -310.85 -11.7 -310.1 -11.75 -309.6 -11.75 Q-308.9 -10.45 -310.5 -9.25 -311.2 -8.75 -312.05 -8.85 -313.35 -9.0 -314.05 -9.95 -314.35 -10.25 -314.1 -11.0 M-248.95 -39.55 L-248.95 -40.2 Q-248.55 -41.05 -247.85 -41.5 L-246.1 -42.4 -246.05 -42.55 Q-243.65 -42.7 -243.1 -40.4 -242.5 -37.95 -245.1 -37.6 -247.1 -37.35 -248.55 -38.8 L-248.95 -39.55 M-84.55 -62.05 L-83.35 -60.45 Q-82.9 -59.8 -82.9 -59.05 -82.9 -58.4 -83.4 -57.9 -83.65 -57.65 -84.05 -57.55 -85.3 -58.05 -85.9 -58.95 -86.4 -59.65 -86.15 -60.75 L-85.6 -61.85 -85.05 -62.05 -84.55 -62.05 M-159.85 -47.0 Q-162.25 -49.1 -159.05 -50.05 -155.55 -50.2 -156.7 -47.7 -157.85 -45.25 -159.85 -47.0 M-8.65 -52.8 L-7.5 -53.05 Q-6.15 -52.05 -7.45 -50.7 -9.1 -49.05 -9.75 -50.95 -10.15 -52.15 -8.65 -52.8 M-53.0 -73.05 L-52.5 -73.05 Q-50.55 -71.45 -52.4 -70.05 -54.4 -68.55 -55.0 -70.75 -55.7 -73.1 -53.0 -73.05 M-53.2 -60.1 Q-52.65 -59.55 -52.4 -58.75 L-52.0 -57.3 Q-52.0 -56.9 -52.15 -56.55 -52.4 -55.8 -52.9 -55.15 -54.45 -53.3 -56.6 -54.75 L-58.0 -56.05 -58.4 -56.8 -58.75 -58.3 Q-58.9 -59.55 -58.1 -60.6 -57.3 -61.55 -56.0 -61.4 L-56.0 -61.55 -54.55 -61.0 Q-53.75 -60.65 -53.2 -60.1 M-73.75 -8.5 L-73.3 -9.9 -72.3 -11.5 Q-71.65 -12.3 -70.5 -12.0 -69.55 -11.15 -69.25 -9.85 -69.0 -8.5 -70.2 -7.85 L-71.95 -7.65 Q-72.9 -7.9 -73.75 -8.5 M-23.0 55.75 Q-20.55 55.6 -21.25 57.4 -21.9 58.9 -23.4 57.55 -24.95 56.15 -23.0 55.75 M-112.05 13.25 L-111.55 13.25 Q-110.05 13.9 -110.95 14.8 -111.4 15.25 -112.25 14.6 -113.9 13.45 -112.05 13.25 M-116.55 80.75 Q-114.25 81.75 -115.2 83.5 L-118.05 83.45 Q-119.65 81.05 -116.55 80.75 M-47.45 136.1 L-47.05 137.5 -47.0 138.25 -47.9 139.65 Q-50.1 142.25 -52.45 139.7 -53.3 138.8 -53.0 137.5 L-53.0 136.75 -52.85 136.1 Q-52.4 135.25 -51.6 134.75 -50.9 134.25 -50.0 134.0 -49.25 134.25 -48.65 134.7 -47.9 135.25 -47.45 136.1 M-30.45 163.8 L-30.0 163.0 -29.25 162.3 -28.2 161.7 -26.05 161.15 -26.0 161.0 -24.05 161.65 -22.9 162.4 -21.8 163.8 -21.0 165.25 -21.05 166.0 -21.4 167.5 Q-21.85 168.8 -22.95 169.5 L-26.0 171.05 -29.1 169.5 Q-30.65 168.6 -30.95 166.75 -31.15 165.2 -30.45 163.8 M-179.25 48.5 L-179.0 47.8 -178.5 47.3 -178.05 47.1 -177.1 46.9 -177.05 46.75 Q-174.6 46.1 -173.5 48.1 -172.2 50.6 -175.05 51.25 -177.65 51.9 -178.95 49.95 L-179.3 49.25 -179.25 48.5 M-223.05 35.35 L-223.05 35.25 Q-219.9 35.0 -219.95 38.0 -220.05 40.65 -222.8 41.5 -225.65 42.35 -226.8 39.75 L-226.8 39.0 -226.65 38.3 -225.8 36.75 Q-224.8 35.2 -223.05 35.35 M-218.05 108.0 Q-217.05 108.25 -216.1 108.65 -215.45 108.9 -214.95 109.4 L-213.85 110.8 -213.05 112.25 -213.1 113.0 -213.45 114.45 Q-213.9 115.8 -215.0 116.5 -216.45 117.4 -218.05 118.0 -219.7 117.4 -221.15 116.5 -222.7 115.6 -223.0 113.75 -223.2 112.2 -222.5 110.8 L-222.05 110.0 -221.3 109.3 -220.25 108.7 -218.1 108.15 -218.05 108.0 M-175.05 154.75 Q-172.55 154.6 -173.3 156.4 -173.9 157.95 -175.4 156.6 -176.95 155.2 -175.05 154.75 M-375.3 43.1 L-374.1 42.75 -372.65 43.35 Q-372.1 43.6 -371.65 44.05 L-371.1 44.75 -370.95 46.25 -371.15 48.5 Q-371.35 49.75 -372.1 50.75 -372.8 51.8 -374.1 51.75 -376.1 51.65 -376.8 49.7 -377.4 47.9 -377.4 46.0 -377.35 43.9 -375.3 43.1 M-327.1 115.15 L-327.1 115.0 Q-324.45 115.05 -323.7 117.3 -322.75 120.0 -325.35 121.45 L-329.5 121.6 -330.1 121.0 -330.35 120.25 -330.55 119.5 -330.5 118.8 -330.1 117.25 -329.85 116.5 -329.05 115.8 -328.3 115.4 -327.1 115.15" fill="#000000" fill-opacity="0.16078432" fill-rule="evenodd" stroke="none"/>
    <path d="M137.65 -89.3 L137.6 -90.25 140.15 -90.45 140.65 -90.15 141.15 -89.65 137.65 -89.3 M-330.1 -95.85 L-332.5 -99.75 -329.4 -99.05 -330.1 -95.85" fill="url(#gradient1)" fill-rule="evenodd" stroke="none"/>
    <path d="M-329.4 -99.05 L-256.95 -83.45 -222.6 -81.35 -222.55 -81.35 Q-208.45 -77.4 -199.8 -71.45 L-179.35 -57.2 Q-167.5 -48.9 -159.85 -44.35 -150.2 -41.25 -140.4 -38.6 -121.05 -33.35 -101.05 -33.95 L-97.7 -34.0 -92.3 -35.15 -83.95 -38.4 -82.05 -39.5 -81.15 -40.0 -80.25 -40.55 -79.85 -40.8 -79.45 -41.05 -76.65 -45.15 Q-71.55 -51.85 -67.15 -58.9 -61.35 -68.2 -54.35 -76.6 -45.15 -87.6 -33.05 -94.4 L-33.0 -94.55 -32.95 -94.55 -31.9 -94.5 5.0 -69.6 14.1 -70.5 18.0 -69.3 Q45.5 -61.1 66.05 -40.0 80.5 -25.15 98.45 -15.85 105.05 -13.4 112.05 -11.95 124.35 -9.4 136.85 -8.75 143.95 -8.45 150.8 -10.85 158.9 -13.7 165.8 -18.25 L169.35 -21.5 170.1 -22.2 152.75 -42.75 Q143.75 -53.45 140.65 -67.95 138.3 -78.75 137.65 -89.3 L141.15 -89.65 141.25 -89.5 141.35 -89.45 141.55 -89.65 141.55 -89.7 172.05 -72.55 173.0 -72.5 182.5 -72.4 184.05 -72.4 Q188.85 -69.05 193.35 -65.15 203.2 -56.6 210.2 -45.45 225.1 -21.75 253.3 -22.55 L253.55 -22.55 Q261.75 -34.9 273.7 -45.95 285.65 -56.95 291.95 -71.45 294.4 -76.95 297.6 -81.4 L297.05 -81.8 297.45 -83.25 297.9 -83.95 300.05 -85.55 300.85 -85.9 301.1 -85.9 309.05 -80.8 Q316.8 -75.7 338.85 -70.65 L343.55 -67.8 Q353.35 -61.6 363.45 -55.65 374.6 -49.1 384.85 -41.15 394.05 -34.0 406.05 -34.8 L406.7 -34.8 407.65 -36.25 Q409.8 -38.8 413.1 -38.65 L413.1 -38.8 Q420.65 -33.5 426.2 -27.3 L426.2 43.05 Q411.55 45.8 396.65 42.3 379.8 38.3 363.45 43.6 320.45 57.45 281.5 40.6 271.8 37.85 261.9 32.8 L258.55 31.05 Q249.25 27.95 239.65 26.05 234.3 25.0 229.15 25.1 226.25 27.7 225.15 31.55 222.8 39.6 224.95 47.45 234.8 61.15 251.1 67.45 257.5 68.95 263.7 71.15 L264.2 71.25 264.25 71.3 Q283.05 76.05 301.65 81.85 309.15 84.2 313.55 89.75 L313.75 90.4 314.1 90.3 315.05 90.25 Q316.6 90.65 317.35 92.1 L318.3 93.9 319.5 96.05 320.8 98.25 321.55 99.75 322.0 101.2 322.55 102.0 322.3 102.75 321.95 103.4 320.8 104.15 319.05 104.65 318.05 104.75 Q313.45 101.55 308.2 99.65 295.4 95.05 282.8 98.3 281.2 98.7 279.6 97.8 L277.05 98.4 268.9 99.35 Q253.85 103.35 235.0 98.45 L204.45 90.45 Q189.1 86.35 176.05 76.7 L165.1 68.5 Q151.15 62.95 137.15 56.0 127.2 51.05 117.6 46.1 90.85 43.0 68.45 22.6 61.35 16.1 52.45 12.2 L45.05 9.2 Q38.45 7.8 31.95 8.6 25.65 12.95 19.0 17.0 L-2.15 30.2 -4.0 32.05 Q-8.5 36.5 -14.05 38.9 -16.85 41.65 -17.65 44.85 -18.45 48.05 -17.3 51.7 L-17.05 52.45 Q-2.6 60.95 8.9 73.65 15.4 80.8 23.55 84.85 27.2 85.35 30.7 86.45 L31.05 86.55 31.75 86.75 Q35.0 87.8 38.2 89.4 L49.6 90.05 48.45 91.9 47.4 93.1 45.85 94.45 44.7 95.0 Q36.65 94.7 29.25 93.05 7.75 92.95 -13.7 96.4 L-19.95 97.5 Q-27.5 98.9 -35.05 100.75 -41.95 102.4 -50.0 102.3 -79.2 101.9 -102.25 116.35 L-106.85 119.4 Q-113.6 124.15 -119.75 130.25 -123.9 134.35 -127.8 139.0 -136.0 148.85 -145.0 154.15 -143.2 143.05 -137.4 133.45 -133.8 127.35 -128.5 121.85 -123.85 117.0 -117.9 112.6 L-116.45 111.55 -113.75 109.65 -113.6 109.55 -113.55 109.5 -108.9 106.35 -108.6 106.15 -108.45 106.05 Q-90.75 94.4 -70.5 86.35 -47.55 77.2 -30.9 59.5 -31.15 56.9 -32.25 54.55 L-33.8 51.45 Q-40.55 48.45 -46.4 44.5 L-46.55 44.35 -46.85 44.2 Q-58.9 35.9 -66.95 23.55 L-67.25 23.1 Q-71.75 19.95 -75.45 14.7 -80.05 8.2 -85.15 2.15 L-88.35 -0.2 Q-95.95 -3.05 -103.9 -2.45 -108.9 -0.3 -113.65 2.85 -113.25 5.5 -113.1 8.25 L-113.05 9.15 Q-112.9 15.25 -114.05 22.05 L-114.15 22.45 -114.5 24.3 Q-121.1 56.4 -144.1 78.1 -151.95 85.5 -161.75 91.75 L-163.3 92.7 Q-172.5 98.35 -182.65 102.2 L-182.8 102.25 -183.05 102.35 -183.55 102.5 Q-222.45 116.9 -262.95 108.65 L-274.6 107.3 Q-285.45 105.45 -289.95 97.95 L-262.95 97.6 -242.1 96.8 Q-225.65 96.05 -211.0 87.65 -204.4 83.8 -199.3 79.7 L-199.25 79.65 Q-184.2 67.2 -183.2 51.85 L-183.15 50.95 Q-182.75 39.0 -190.75 25.35 L-192.85 21.8 Q-196.55 15.9 -200.75 10.3 -209.25 6.5 -218.3 4.25 -240.95 -1.35 -263.6 -1.6 L-269.9 -0.2 Q-280.9 2.45 -291.5 3.7 -316.15 29.05 -349.6 46.4 L-366.95 55.05 -367.1 55.15 -367.2 55.15 Q-389.65 65.85 -413.05 74.6 -430.45 81.15 -443.5 75.25 -431.1 69.7 -418.75 63.45 -409.25 58.6 -399.8 53.3 -397.25 51.1 -393.7 49.85 L-379.85 41.65 -375.8 39.05 Q-359.45 27.7 -350.6 9.35 -369.2 10.3 -385.3 7.85 -391.4 9.85 -399.15 8.9 L-408.9 7.35 -414.1 6.5 Q-416.7 6.15 -416.6 3.75 -409.6 0.6 -399.1 1.05 -392.8 1.3 -386.8 -0.05 L-382.15 -1.4 -382.1 -1.5 -380.8 -1.3 -368.1 -5.35 Q-362.3 -7.2 -356.4 -7.6 L-356.35 -7.75 Q-332.95 -16.45 -308.85 -23.8 -294.2 -28.3 -280.65 -35.45 -276.5 -37.65 -273.05 -40.6 L-280.6 -47.5 -297.0 -63.65 -297.05 -63.7 -309.75 -76.1 Q-313.45 -79.7 -316.6 -83.6 L-322.8 -88.1 Q-324.2 -89.1 -330.7 -96.35 -329.65 -95.2 -330.1 -95.85 L-329.4 -99.05 M-287.75 -72.55 L-286.15 -71.4 -285.85 -71.8 -288.05 -72.75 -287.75 -72.55 M-91.6 -19.75 L-90.05 -20.5 -90.35 -20.85 -91.6 -19.75 M-118.85 121.7 L-123.55 126.2 -118.15 121.55 -118.85 121.7 M-214.9 101.0 L-216.3 100.2 -219.9 101.75 -214.9 101.0 M-393.05 58.9 L-397.45 61.1 -391.6 58.75 -393.05 58.9 M261.8 82.4 L263.65 82.5 261.45 81.7 261.7 82.2 261.8 82.4 M145.95 10.5 L143.25 10.1 145.15 10.95 145.95 10.5" fill="url(#gradient2)" fill-rule="evenodd" stroke="none"/>
    <path d="M63.1 -75.45 L98.1 -87.45 140.15 -90.45 172.05 -72.55 Q237.75 -71.15 300.15 -86.45 324.95 -70.9 342.2 -70.45 401.25 -61.65 479.8 -77.35 L479.5 220.85 -480.8 217.2 -481.8 -88.65 -336.0 -100.5 -256.95 -83.45 Q-180.75 -77.0 -112.95 -86.45 L-65.9 -96.5 -31.9 -94.5 5.0 -69.6 63.1 -75.45" fill="url(#gradient3)" fill-rule="evenodd" stroke="none"/>
  </g>
  <defs>
    <radialGradient cx="0" cy="0" gradientTransform="matrix(0.7509, 0.0, 0.0, 0.6601, -30.0, -109.05)" gradientUnits="userSpaceOnUse" id="gradient0" r="819.2" spreadMethod="pad">
      <stop offset="0.0" stop-color="#ffffff"/>
      <stop offset="0.6039215686274509" stop-color="#cfdae2"/>
      <stop offset="1.0" stop-color="#7488a5"/>
    </radialGradient>
    <linearGradient gradientTransform="matrix(0.5237, 0.0, 0.0, 0.1248, 12.4, 2.5)" gradientUnits="userSpaceOnUse" id="gradient1" spreadMethod="pad" x1="-819.2" x2="819.2">
      <stop offset="0.0" stop-color="#000000" stop-opacity="0.0"/>
      <stop offset="1.0" stop-color="#000000" stop-opacity="0.6117647"/>
    </linearGradient>
    <linearGradient gradientTransform="matrix(-0.0077, -0.1596, 0.5326, -0.0257, -9.0, 16.55)" gradientUnits="userSpaceOnUse" id="gradient2" spreadMethod="pad" x1="-819.2" x2="819.2">
      <stop offset="0.08235294117647059" stop-color="#000000" stop-opacity="0.0"/>
      <stop offset="1.0" stop-color="#000000" stop-opacity="0.22352941"/>
    </linearGradient>
    <radialGradient cx="0" cy="0" gradientTransform="matrix(0.6292, 0.0, 0.0, 0.3575, -32.9, 227.5)" gradientUnits="userSpaceOnUse" id="gradient3" r="819.2" spreadMethod="pad">
      <stop offset="0.3058823529411765" stop-color="#3f4574" stop-opacity="0.0"/>
      <stop offset="0.7450980392156863" stop-color="#3e3f5b" stop-opacity="0.8"/>
      <stop offset="1.0" stop-color="#221430" stop-opacity="0.8"/>
    </radialGradient>
  </defs>
</svg>
