<?xml version="1.0" encoding="UTF-8" standalone="no"?>
<svg xmlns:xlink="http://www.w3.org/1999/xlink" height="315.0px" width="909.65px" xmlns="http://www.w3.org/2000/svg">
  <g transform="matrix(1.0, 0.0, 0.0, 1.0, 456.7, 99.0)">
    <path d="M47.1 -57.3 L46.7 -58.55 47.1 -58.55 47.4 -58.6 93.85 -62.0 100.55 -69.8 Q139.25 -65.0 184.0 -72.3 L199.7 -83.05 Q241.3 -76.65 285.6 -87.15 L300.9 -70.2 301.4 -70.05 Q314.35 -66.4 327.4 -71.95 L337.6 -82.2 Q370.65 -82.0 403.7 -91.3 L430.45 -80.3 447.65 -81.95 452.45 206.1 128.15 205.2 111.2 149.8 144.8 141.9 147.1 123.65 170.5 117.95 171.05 108.8 186.45 96.8 172.75 103.1 163.05 113.35 144.25 117.85 139.1 134.45 107.2 136.75 95.15 97.4 111.7 93.95 124.25 99.1 136.8 90.0 126.0 93.4 106.6 84.85 92.05 87.2 70.2 15.45 70.65 16.8 69.7 13.75 58.1 -23.2 47.1 -57.3 M47.4 -58.6 L58.1 -23.2 47.4 -58.6 M-107.65 204.6 L-455.15 203.6 -446.6 -89.05 -421.1 -86.1 -414.05 -98.5 Q-353.65 -86.35 -284.25 -83.05 L-283.0 -73.15 Q-247.75 -67.2 -209.25 -68.2 L-204.2 -73.1 Q-169.9 -66.45 -132.4 -69.0 L-126.1 -64.3 Q-125.95 -63.55 -71.35 -59.75 L-70.85 -59.75 -56.0 -59.5 -56.25 -58.3 -56.55 -57.15 -56.55 -57.05 -83.05 59.8 -105.65 50.3 -106.05 51.3 -105.65 50.3 -106.2 50.05 -134.15 52.9 -106.75 52.9 -84.6 68.95 -97.05 142.15 -115.9 138.5 -130.75 130.5 -122.15 141.35 -119.3 142.5 -122.2 145.35 -146.15 145.35 -179.2 156.2 -144.4 150.5 -106.45 147.7 -103.2 149.05 -98.95 153.45 -107.65 204.6 M-56.65 -59.45 L-63.85 -26.95 -56.55 -57.15 -56.65 -59.45" fill="url(#gradient0)" fill-rule="evenodd" stroke="none"/>
    <path d="M47.4 -58.6 L47.1 -58.55 47.1 -59.45 47.4 -58.6 M-34.8 204.8 L-51.6 212.7 -52.7 213.2 -95.0 204.6 -52.0 204.75 -34.8 204.8 M-56.55 -57.15 L-63.85 -26.95 -56.65 -59.45 -56.55 -57.15 M-51.6 212.7 L-52.0 204.75 -51.6 212.7" fill="url(#gradient1)" fill-rule="evenodd" stroke="none"/>
    <path d="M107.2 136.75 L139.1 134.45 144.25 117.85 163.05 113.35 172.75 103.1 186.45 96.8 171.05 108.8 170.5 117.95 147.1 123.65 144.8 141.9 111.2 149.8 107.2 136.75 M95.15 97.4 L92.05 87.2 106.6 84.85 126.0 93.4 136.8 90.0 124.25 99.1 111.7 93.95 95.15 97.4 M-98.95 153.45 L-103.2 149.05 -106.45 147.7 -144.4 150.5 -179.2 156.2 -146.15 145.35 -122.2 145.35 -119.3 142.5 -122.15 141.35 -130.75 130.5 -115.9 138.5 -97.05 142.15 -98.95 153.45 M-84.6 68.95 L-106.75 52.9 -134.15 52.9 -106.2 50.05 -105.65 50.3 -106.05 51.3 -105.65 50.3 -83.05 59.8 -84.6 68.95" fill="#28291f" fill-rule="evenodd" stroke="none"/>
    <path d="M47.1 -57.3 L58.1 -23.2 69.7 13.75 70.2 15.45 92.05 87.2 95.15 97.4 107.2 136.75 111.2 149.8 128.15 205.2 44.8 204.9 46.7 197.25 39.0 172.2 Q41.35 143.9 43.05 115.4 L60.4 102.95 60.4 82.6 50.1 64.9 46.0 46.5 46.6 20.4 47.1 -57.3 M60.95 102.55 L60.4 102.95 60.95 102.55 M110.6 149.9 L111.2 149.8 110.6 149.9 M-107.65 204.6 L-98.95 153.45 -97.05 142.15 -84.6 68.95 -83.05 59.8 -56.55 -57.05 Q-54.05 6.3 -50.3 59.1 L-48.35 85.3 -59.85 93.35 -56.55 117.4 -49.15 136.8 -50.85 159.6 -60.0 167.0 -60.0 168.15 -52.0 191.55 -52.0 204.75 -95.0 204.6 -107.65 204.6" fill="url(#gradient2)" fill-rule="evenodd" stroke="none"/>
    <path d="M58.1 -23.2 L47.4 -58.6 47.1 -58.55 46.7 -58.55 M47.4 -58.6 L93.85 -62.0 100.55 -69.8 Q139.25 -65.0 184.0 -72.3 L199.7 -83.05 Q241.3 -76.65 285.6 -87.15 L300.9 -70.2 301.4 -70.05 Q314.35 -66.4 327.4 -71.95 L337.6 -82.2 Q370.65 -82.0 403.7 -91.3 L430.45 -80.3 447.65 -81.95 452.45 206.1 128.15 205.2 44.8 204.9 42.15 215.5 M107.2 136.75 L111.2 149.8 128.15 205.2 M95.15 97.4 L92.05 87.2 70.2 15.45 69.7 13.75 58.1 -23.2 M95.15 97.4 L107.2 136.75 M47.1 -57.3 L46.6 20.4 46.0 46.5 50.1 64.9 60.4 82.6 60.4 102.95 60.95 102.55 M60.4 102.95 L43.05 115.4 Q41.35 143.9 39.0 172.2 L46.7 197.25 44.8 204.9 36.05 204.9 36.0 205.9 24.1 204.85 -34.8 204.8 -51.6 212.7 -51.45 215.5 M111.2 149.8 L110.6 149.9 M24.1 204.85 L36.05 204.9 M-56.25 -58.3 L-56.0 -59.5 -70.85 -59.75 -71.35 -59.75 Q-125.95 -63.55 -126.1 -64.3 L-132.4 -69.0 Q-169.9 -66.45 -204.2 -73.1 L-209.25 -68.2 Q-247.75 -67.2 -283.0 -73.15 L-284.25 -83.05 Q-353.65 -86.35 -414.05 -98.5 L-421.1 -86.1 -446.6 -89.05 -455.15 203.6 -107.65 204.6 -98.95 153.45 -97.05 142.15 -84.6 68.95 -83.05 59.8 -56.55 -57.05 -56.55 -57.15 -56.65 -59.45 M-56.25 -58.3 L-56.55 -57.05 Q-54.05 6.3 -50.3 59.1 L-48.35 85.3 -59.85 93.35 -56.55 117.4 -49.15 136.8 -50.85 159.6 -60.0 167.0 M-60.0 168.15 L-52.0 191.55 -52.0 204.75 -34.8 204.8 M-284.35 -83.85 L-284.25 -83.05 M-51.6 212.7 L-52.7 213.2 -95.0 204.6 -107.65 204.6 M-52.0 204.75 L-51.6 212.7 M-52.0 204.75 L-95.0 204.6 M-455.15 203.6 L-456.2 203.6" fill="none" stroke="#000000" stroke-linecap="round" stroke-linejoin="round" stroke-width="1.0"/>
    <path d="M4.75 -30.15 L5.0 -30.25 5.75 -30.45 5.8 -30.55 8.25 -30.55 9.85 -30.3 11.35 -29.5 11.45 -28.9 Q11.25 -27.3 9.65 -26.7 L6.45 -25.55 Q4.8 -25.0 3.15 -26.1 L2.5 -26.65 2.5 -27.25 2.65 -27.8 3.75 -29.1 4.75 -30.15 M19.85 -19.8 Q22.55 -19.95 21.65 -17.7 21.2 -16.5 19.95 -15.75 18.1 -14.6 16.4 -15.4 L15.7 -15.9 Q15.7 -16.5 16.0 -17.0 16.55 -17.95 17.45 -18.65 17.9 -19.0 18.4 -19.15 L19.8 -19.7 19.85 -19.8 M38.0 -10.75 Q40.0 -10.25 39.3 -8.55 38.6 -6.8 37.1 -7.95 35.6 -9.05 37.05 -10.2 L38.0 -10.75 M80.2 -44.3 L81.0 -44.6 82.7 -43.95 83.7 -42.85 84.0 -41.7 83.85 -41.1 Q83.05 -40.2 81.8 -40.55 79.95 -41.0 79.5 -42.8 79.25 -43.8 80.2 -44.3 M106.85 -8.1 Q107.2 -6.85 105.75 -6.65 L104.95 -6.6 Q104.4 -6.8 103.95 -7.1 L103.45 -7.7 103.3 -8.85 103.3 -9.5 103.4 -10.05 104.25 -11.2 105.7 -12.25 105.75 -12.4 Q107.2 -12.15 106.85 -10.85 106.5 -9.5 106.85 -8.1 M136.4 -41.55 L137.15 -40.45 Q136.85 -38.85 135.35 -38.1 133.6 -37.25 132.05 -38.85 131.2 -39.7 131.6 -40.8 132.05 -42.05 133.05 -42.1 L133.85 -42.1 135.5 -42.0 136.4 -41.55 M130.25 -20.65 Q130.1 -19.25 128.85 -18.5 128.5 -18.25 128.05 -18.15 L127.25 -18.25 Q126.75 -18.35 126.3 -18.7 125.6 -19.2 125.15 -19.95 L124.75 -21.05 124.8 -21.65 125.0 -22.3 125.65 -23.5 126.5 -24.45 127.25 -24.75 Q129.3 -25.3 129.9 -23.6 130.4 -22.25 130.25 -20.65 M153.55 -18.1 L189.55 -19.95 180.9 -46.4 185.1 -46.35 193.85 -19.55 237.8 -20.7 239.0 -20.95 289.7 -24.85 294.0 -19.85 239.15 -16.7 250.5 5.7 269.85 4.45 269.85 4.4 269.9 4.45 279.25 3.8 284.05 10.3 283.45 10.35 280.4 6.3 301.35 36.0 296.1 36.35 276.5 10.95 207.35 16.25 214.65 41.35 206.7 42.0 201.05 16.85 189.0 17.7 188.85 9.75 244.3 6.1 244.35 6.05 235.5 -15.05 161.55 -11.7 167.6 8.6 162.8 9.5 157.15 -11.5 154.6 -11.35 153.55 -18.1 M218.35 -64.45 L218.2 -65.05 218.3 -66.9 Q218.5 -68.4 219.9 -69.5 220.7 -70.15 221.45 -70.2 L223.9 -70.05 224.85 -69.7 225.35 -69.2 225.5 -68.55 225.5 -67.35 Q225.35 -66.4 225.55 -65.55 225.85 -64.45 225.2 -63.6 L224.95 -63.2 224.7 -63.05 Q222.05 -62.05 219.7 -63.4 L218.35 -64.45 M239.05 -57.0 Q239.0 -55.35 237.6 -54.45 236.05 -53.5 234.85 -55.35 L234.7 -55.95 234.8 -56.5 235.7 -57.8 236.35 -58.35 237.15 -58.65 Q239.15 -58.9 239.05 -57.0 M272.65 -62.8 L273.65 -62.3 274.3 -61.7 274.75 -61.15 Q275.35 -60.15 275.3 -58.85 L279.3 -57.05 Q279.8 -56.8 280.1 -56.15 279.8 -55.55 279.3 -55.25 277.4 -54.2 275.3 -54.7 275.35 -52.8 274.65 -51.25 L274.3 -50.6 Q271.1 -50.4 271.55 -53.95 L271.6 -56.05 Q268.35 -57.05 265.0 -56.9 264.7 -56.9 264.4 -57.2 L264.4 -57.8 264.55 -58.4 265.0 -59.05 265.65 -59.7 266.1 -59.95 266.85 -60.2 266.9 -60.3 270.75 -60.0 Q270.6 -62.0 272.65 -62.65 L272.65 -62.8 M292.95 -44.05 Q292.25 -42.35 290.75 -43.5 289.25 -44.6 290.7 -45.7 L291.65 -46.25 Q293.65 -45.8 292.95 -44.05 M377.55 -68.5 L378.75 -67.35 378.9 -66.3 378.65 -65.65 376.8 -65.55 Q375.4 -65.7 374.55 -66.95 373.9 -67.95 374.75 -68.7 375.4 -69.3 375.95 -69.4 L377.55 -68.5 M361.5 -49.85 Q360.8 -48.15 359.3 -49.25 357.85 -50.4 359.3 -51.5 L360.25 -52.05 Q362.25 -51.6 361.5 -49.85 M373.05 -31.35 Q373.35 -29.2 371.7 -27.75 370.15 -26.35 368.5 -28.3 L368.05 -28.95 Q367.8 -29.5 368.0 -29.95 L368.9 -31.85 Q369.35 -32.8 370.15 -33.05 372.75 -33.65 373.05 -31.35 M353.7 17.1 L352.9 15.85 352.8 15.3 353.2 14.7 353.6 14.05 Q353.95 13.45 354.4 13.0 354.75 12.6 355.3 12.4 L358.6 12.55 Q359.1 12.6 359.55 12.95 L360.05 13.45 360.05 14.0 359.35 15.9 Q358.85 16.95 357.8 17.45 356.65 18.0 355.3 18.2 L354.3 17.7 353.7 17.1 M343.3 62.3 Q342.4 64.7 340.5 62.5 338.6 60.3 341.25 59.5 344.3 59.55 343.3 62.3 M335.5 101.6 L336.35 102.2 337.1 103.3 Q336.8 104.45 335.85 105.1 334.45 106.05 332.8 106.65 331.15 107.2 329.5 106.1 L328.85 105.55 Q328.85 104.95 329.15 104.5 329.65 103.7 330.45 103.05 L332.15 101.4 333.0 100.8 333.8 100.9 334.8 101.25 335.5 101.6 M338.75 169.4 Q342.35 168.9 342.5 172.25 342.65 175.25 340.7 177.3 339.0 179.15 336.3 178.4 L335.25 178.05 334.75 177.4 334.65 176.85 334.65 175.6 334.65 174.35 334.65 173.1 335.1 172.5 336.3 171.25 338.05 169.75 Q338.35 169.5 338.75 169.4 M316.45 20.65 L318.1 20.8 319.05 21.2 320.15 22.35 320.6 22.95 320.0 24.0 Q319.05 25.05 317.6 25.55 315.5 26.35 314.0 24.6 L314.0 23.95 314.05 23.35 314.5 22.2 315.5 21.25 316.4 20.8 316.45 20.65 M249.55 86.75 Q251.05 86.5 251.6 87.9 252.15 89.3 252.15 90.9 252.1 92.4 251.0 93.4 L250.55 93.8 249.5 94.15 Q247.5 94.65 246.1 93.3 245.25 92.5 245.4 91.3 L245.45 90.05 Q245.5 88.9 246.55 88.1 247.9 87.05 249.5 86.85 L249.55 86.75 M302.85 88.95 Q302.15 90.65 300.65 89.55 299.15 88.4 300.65 87.3 301.05 86.95 301.6 86.75 303.55 87.25 302.85 88.95 M164.95 160.05 L164.55 163.3 163.9 166.25 163.6 166.7 Q162.1 167.25 160.95 166.0 160.0 164.95 160.15 163.4 L160.3 160.9 160.3 159.7 160.9 159.05 161.55 158.45 162.0 158.15 162.75 157.95 162.8 157.8 Q165.3 157.65 164.95 160.05 M228.85 156.8 Q228.75 158.45 227.2 158.65 225.7 158.85 224.9 157.55 L224.75 157.0 Q224.75 156.7 224.9 156.45 225.35 155.75 226.1 155.3 L227.2 154.65 227.2 154.5 Q229.0 154.95 228.85 156.8 M288.15 134.55 L282.85 135.95 282.75 137.2 Q282.4 141.25 279.05 140.9 277.75 139.5 278.65 137.7 L278.95 136.95 Q276.45 137.2 274.5 135.9 L273.5 134.9 Q274.4 132.5 277.45 132.95 274.7 129.9 277.6 128.2 L277.6 128.1 279.25 128.2 280.25 128.6 280.95 129.1 Q282.05 130.45 282.45 132.05 L282.55 132.5 288.15 131.65 289.2 131.4 Q292.45 133.65 288.15 134.55 M114.85 71.2 L114.85 71.05 Q117.1 72.0 117.2 74.55 L117.3 76.15 118.15 76.2 119.2 76.35 122.3 76.9 Q123.7 77.1 123.95 78.5 L123.7 79.1 123.25 79.65 122.3 79.95 117.5 79.85 Q117.3 81.25 116.5 82.45 114.35 82.55 113.65 81.0 L113.35 81.3 112.4 81.6 Q110.75 81.6 110.75 80.15 L110.7 79.55 110.7 78.9 110.75 78.3 111.0 77.75 111.6 77.15 Q112.4 76.65 113.25 76.3 L113.0 74.2 Q112.65 71.6 114.85 71.2 M30.65 11.2 L31.05 10.6 32.1 9.65 33.0 9.2 33.05 9.1 36.35 9.25 37.4 9.5 37.7 10.15 37.95 11.4 38.0 13.25 37.95 15.1 37.8 16.35 37.35 16.9 36.25 17.7 33.0 18.7 32.05 18.6 31.65 17.95 Q31.4 17.05 31.5 16.15 31.6 14.7 30.95 13.45 30.6 12.7 30.6 11.8 L30.65 11.2 M40.1 88.95 Q39.4 90.65 37.9 89.55 36.4 88.4 37.9 87.3 38.35 86.95 38.85 86.75 40.85 87.25 40.1 88.95 M45.3 133.1 Q46.6 134.0 46.0 135.6 45.45 137.05 44.3 138.05 L43.8 138.6 42.95 138.8 Q41.45 139.0 40.4 137.9 39.55 136.95 39.05 135.85 L38.85 134.7 Q38.85 134.4 39.0 134.2 39.65 133.55 40.55 133.3 L42.25 132.55 Q42.55 132.3 42.95 132.2 44.3 132.4 45.3 133.1 M4.95 169.4 Q5.9 169.6 6.65 170.05 7.55 170.6 7.5 171.65 L7.35 173.5 7.25 174.15 5.75 175.1 Q4.0 176.25 2.35 175.45 L1.65 174.95 1.6 173.75 Q1.55 172.75 2.1 172.0 3.0 170.75 4.25 169.75 4.55 169.5 4.95 169.4 M95.05 177.65 Q97.75 177.55 97.1 179.85 96.7 181.45 95.9 182.95 94.95 184.8 93.2 183.75 L92.55 183.25 92.0 182.55 91.75 182.0 91.7 181.35 91.75 180.75 91.95 180.15 92.55 179.5 93.15 178.9 94.3 178.0 Q94.6 177.75 95.05 177.65 M-346.05 -63.05 L-340.5 -49.1 -265.3 -41.65 -268.6 -33.4 -347.15 -40.8 -352.05 -58.2 -346.05 -63.05 M-327.3 -68.95 Q-328.7 -68.2 -329.5 -69.65 L-329.65 -70.2 -329.5 -70.75 -328.3 -71.95 -327.2 -72.55 -327.15 -72.7 Q-325.75 -72.45 -325.85 -71.05 -326.0 -69.65 -327.3 -68.95 M-393.1 -50.0 L-395.3 -46.35 Q-396.45 -44.15 -398.35 -45.15 L-399.05 -45.65 -399.65 -46.95 Q-399.85 -47.95 -399.3 -48.9 L-398.85 -49.9 -398.0 -51.2 -397.35 -51.65 -394.15 -52.75 -394.1 -52.85 Q-391.6 -52.05 -393.1 -50.0 M-278.45 -57.7 L-278.45 -57.8 Q-276.4 -58.35 -275.55 -56.7 -274.75 -55.15 -276.15 -54.25 -277.75 -53.3 -279.4 -54.2 L-280.1 -54.7 -280.1 -55.35 -280.0 -55.95 -279.45 -57.0 -278.45 -57.7 M-297.8 -12.65 Q-298.5 -10.95 -300.0 -12.1 -301.5 -13.2 -300.05 -14.35 L-299.1 -14.85 Q-297.1 -14.4 -297.8 -12.65 M-212.7 -58.95 Q-213.4 -57.2 -214.9 -58.35 -216.4 -59.45 -214.95 -60.6 L-214.0 -61.15 Q-212.0 -60.65 -212.7 -58.95 M-127.25 -47.1 Q-125.2 -47.35 -125.4 -45.5 -125.55 -43.95 -126.05 -42.4 -126.5 -40.85 -128.05 -40.55 L-128.9 -40.45 -130.25 -41.7 Q-130.55 -42.1 -130.55 -42.75 L-130.55 -44.0 -130.55 -45.2 -129.85 -45.75 -128.65 -46.4 -127.25 -46.95 -127.25 -47.1 M-88.75 -24.8 Q-88.85 -23.4 -90.15 -22.7 -91.55 -21.95 -92.4 -23.4 L-92.55 -23.95 -92.4 -24.45 -91.2 -25.65 -90.1 -26.3 -90.05 -26.45 Q-88.6 -26.2 -88.75 -24.8 M-36.3 -13.0 L-36.35 -13.6 -36.35 -14.25 -36.1 -14.85 -35.75 -15.5 -34.95 -16.5 -33.9 -17.2 -33.85 -17.35 Q-32.15 -16.8 -32.2 -15.05 -32.2 -13.5 -32.55 -12.0 -33.05 -10.05 -34.9 -11.15 L-35.5 -11.75 -36.05 -12.45 -36.3 -13.0 M-46.8 38.55 Q-47.6 41.0 -49.45 39.65 -51.25 38.3 -49.45 36.7 L-48.75 36.35 Q-46.05 36.25 -46.8 38.55 M-106.8 7.5 Q-106.55 9.0 -106.75 10.55 -106.95 12.1 -108.3 12.9 L-109.05 13.25 -110.8 12.65 Q-111.85 12.15 -111.7 10.95 -111.55 9.7 -111.55 8.5 L-111.55 7.85 -111.1 7.25 -110.5 6.6 -110.1 6.2 -109.85 6.05 -109.05 5.8 Q-107.05 5.55 -106.8 7.5 M-108.45 92.15 L-108.2 92.0 -107.4 91.85 -107.4 91.7 Q-104.8 92.8 -105.95 95.5 -106.4 96.55 -106.35 97.65 L-105.75 97.65 Q-104.3 97.75 -104.15 99.15 L-104.1 99.8 -104.25 100.4 Q-104.5 101.6 -105.6 101.2 L-105.65 101.2 Q-105.6 102.5 -106.35 103.7 -108.4 104.65 -108.85 102.8 L-109.05 103.1 -109.85 103.1 -111.6 102.65 Q-113.15 102.25 -113.2 100.8 L-113.2 100.2 -113.1 99.6 -112.75 99.0 -111.65 98.05 Q-111.2 97.8 -110.75 97.65 L-110.7 97.5 -109.7 97.5 -109.9 94.4 -109.9 93.8 -109.45 93.2 -108.85 92.55 -108.45 92.15 M-136.4 167.0 L-136.3 167.1 Q-134.65 168.4 -134.0 170.3 L-134.05 170.85 Q-136.7 172.6 -139.5 169.6 L-139.55 169.65 Q-141.2 171.25 -143.15 172.3 -143.45 172.5 -143.95 172.3 -145.25 170.9 -144.0 169.15 L-141.7 166.6 -142.5 164.9 Q-143.4 162.85 -141.95 161.5 -141.7 161.25 -141.25 161.15 -139.45 161.9 -138.7 163.9 L-138.5 164.35 Q-137.5 163.9 -136.35 163.7 L-136.3 163.6 Q-133.4 164.9 -136.15 166.8 L-136.4 167.0 M-37.4 103.85 Q-36.8 105.3 -38.15 106.15 -39.4 106.95 -40.5 106.0 L-41.3 104.95 -41.3 104.3 -41.15 103.15 Q-41.0 102.55 -40.55 102.25 L-39.7 101.75 -39.65 101.65 Q-38.1 102.2 -37.4 103.85 M-34.4 160.3 Q-34.5 162.0 -36.3 162.65 -38.3 163.3 -39.65 161.75 L-39.65 161.15 -39.5 160.65 -37.75 159.4 -36.4 158.75 -36.35 158.65 Q-34.3 158.4 -34.4 160.3 M-186.15 10.55 Q-186.6 11.9 -187.75 12.7 -189.05 13.6 -189.9 12.1 L-190.0 11.6 -189.95 11.0 -189.35 9.75 -188.45 8.85 -187.6 8.4 -187.55 8.3 Q-185.55 8.75 -186.15 10.55 M-211.55 42.2 L-220.2 59.3 -208.3 60.0 -212.65 66.45 -269.8 62.55 -283.65 83.85 -195.45 92.3 -191.7 70.2 -186.35 70.05 -190.05 92.7 -186.8 93.0 -189.25 101.9 -235.45 97.65 -253.7 144.35 -260.15 143.3 -240.5 96.35 -293.65 90.1 -295.25 90.25 -358.45 86.2 -353.9 79.9 -289.8 85.1 -276.0 62.05 -295.55 60.7 -295.6 60.75 -295.6 60.7 -305.05 60.05 -301.85 54.5 -301.3 54.6 -303.15 57.95 -290.45 36.9 -286.15 37.2 -294.55 54.95 -226.5 58.95 -218.3 41.85 -211.55 42.2 M-280.25 26.5 Q-279.9 28.5 -281.75 28.85 -283.15 29.15 -284.35 28.45 L-285.05 27.9 -285.05 27.3 -284.9 26.75 -283.7 25.55 -282.6 24.9 -282.55 24.8 Q-280.55 24.55 -280.25 26.5 M-297.85 147.7 L-297.4 147.4 -296.65 147.2 -296.6 147.1 Q-294.0 148.15 -294.4 150.8 -294.65 152.25 -293.9 153.95 -292.65 154.1 -292.0 155.35 L-291.65 155.95 -291.95 156.45 -293.55 157.45 -294.15 158.45 Q-295.15 158.85 -295.65 158.25 L-300.7 159.0 Q-302.05 159.05 -303.35 158.15 L-304.05 157.6 -303.95 157.05 -303.25 156.0 -300.85 154.3 -299.9 153.7 -297.8 153.75 -299.1 152.65 -299.1 152.05 -299.1 151.4 -299.1 150.2 -299.1 149.55 -299.1 148.95 -298.45 148.3 -297.85 147.7 M-213.8 160.75 Q-213.9 161.85 -213.4 162.9 L-212.35 163.05 Q-210.1 163.4 -208.2 164.4 -207.7 164.65 -207.35 165.25 L-208.15 166.3 Q-209.3 167.25 -210.7 166.85 L-212.4 166.4 -212.7 166.9 -212.95 167.3 Q-215.4 168.2 -216.45 165.7 L-220.6 165.55 Q-221.4 165.55 -222.25 165.05 L-222.25 164.45 -222.1 163.85 -221.6 163.2 -221.0 162.55 -220.55 162.3 -219.8 162.05 -219.75 161.95 -217.5 162.25 -217.55 161.75 Q-217.75 159.55 -216.3 158.2 -216.05 157.95 -215.65 157.8 -213.6 158.5 -213.8 160.75 M-351.95 20.65 L-351.0 21.15 -350.35 21.75 -349.9 22.3 -349.15 25.45 -348.95 26.45 Q-345.45 26.3 -347.5 28.75 L-348.1 29.35 Q-347.55 31.05 -348.15 32.85 L-348.45 33.5 Q-351.55 34.1 -351.95 30.75 L-355.25 30.9 Q-356.1 30.9 -356.9 30.4 L-356.65 29.35 Q-355.55 27.7 -353.6 27.35 L-352.6 27.15 -353.35 25.05 Q-354.7 21.85 -352.0 20.8 L-351.95 20.65 M-383.35 51.45 L-382.95 52.05 -382.65 52.7 -382.55 53.95 -382.6 55.15 -382.75 55.8 Q-383.05 57.15 -384.3 57.8 -385.35 58.4 -386.65 58.7 -388.7 59.15 -389.95 57.65 -390.3 56.45 -389.35 55.8 -388.0 54.8 -388.05 53.3 -388.05 50.95 -385.85 50.5 L-385.85 50.4 -385.05 50.5 -384.05 50.9 -383.35 51.45 M-344.75 135.55 Q-344.55 137.45 -346.35 138.3 -348.35 139.2 -348.65 137.15 L-348.65 136.55 -348.6 135.95 -348.3 134.75 -347.75 134.15 -347.0 133.85 Q-345.0 133.6 -344.75 135.55 M-367.65 149.55 L-366.1 149.8 Q-365.3 150.1 -364.75 150.75 -364.15 151.5 -363.85 152.5 L-363.55 153.7 -363.8 154.25 -364.7 155.6 -365.7 157.45 -366.65 159.05 -366.85 159.15 -368.9 159.25 -370.05 159.15 -371.8 158.45 Q-371.95 157.5 -371.6 156.55 L-370.45 153.5 -368.95 150.5 Q-368.4 149.6 -367.65 149.55" fill="#000000" fill-opacity="0.18039216" fill-rule="evenodd" stroke="none"/>
    <path d="M130.55 205.25 L127.75 205.25 130.55 214.4 M-109.05 206.4 L-108.85 205.25 -110.2 205.25" fill="none" stroke="#000000" stroke-linecap="round" stroke-linejoin="round" stroke-width="1.0"/>
  </g>
  <defs>
    <radialGradient cx="0" cy="0" gradientTransform="matrix(-0.0043, -0.3202, 0.7477, -0.0101, 0.0, 49.55)" gradientUnits="userSpaceOnUse" id="gradient0" r="819.2" spreadMethod="pad">
      <stop offset="0.0" stop-color="#656245"/>
      <stop offset="0.5686274509803921" stop-color="#34392d"/>
      <stop offset="0.9725490196078431" stop-color="#10121b"/>
    </radialGradient>
    <radialGradient cx="0" cy="0" gradientTransform="matrix(-0.0043, -0.3202, 0.7477, -0.0101, 0.0, 49.55)" gradientUnits="userSpaceOnUse" id="gradient1" r="819.2" spreadMethod="pad">
      <stop offset="0.0" stop-color="#323023"/>
      <stop offset="0.5686274509803921" stop-color="#1f211b"/>
      <stop offset="0.9725490196078431" stop-color="#10121b"/>
    </radialGradient>
    <radialGradient cx="0" cy="0" gradientTransform="matrix(-0.0043, -0.3202, 0.7477, -0.0101, 0.0, 49.55)" gradientUnits="userSpaceOnUse" id="gradient2" r="819.2" spreadMethod="pad">
      <stop offset="0.0" stop-color="#323023"/>
      <stop offset="0.5411764705882353" stop-color="#232932"/>
      <stop offset="1.0" stop-color="#14171f"/>
    </radialGradient>
  </defs>
</svg>
