<?xml version="1.0" encoding="UTF-8" standalone="no"?>
<svg xmlns:xlink="http://www.w3.org/1999/xlink" height="208.0px" width="849.55px" xmlns="http://www.w3.org/2000/svg">
  <g transform="matrix(1.0, 0.0, 0.0, 1.0, 437.1, 189.1)">
    <path d="M385.7 -3.05 L-387.5 -3.05 -387.5 -157.1 385.7 -157.1 385.7 -3.05" fill="url(#gradient0)" fill-rule="evenodd" stroke="none"/>
    <path d="M151.45 -114.1 L191.45 -112.1 211.45 -177.1 292.45 -189.1 352.45 -103.1 394.45 -103.1 412.45 -76.1 407.45 18.9 -398.75 11.05 -401.95 -63.2 -362.5 -143.1 -333.5 -141.1 -320.5 -107.1 -285.5 -108.1 -271.5 -169.35 -226.2 -166.2 -210.5 -119.1 -149.55 -101.1 -135.55 -78.1 -105.55 -78.1 -90.55 -132.1 -90.55 -133.1 -71.55 -136.1 -56.55 -69.1 -25.55 -63.1 -14.55 -95.1 19.45 -98.1 31.45 -75.1 89.45 -75.1 98.45 -135.1 140.45 -137.1 151.45 -114.1" fill="url(#gradient1)" fill-rule="evenodd" stroke="none"/>
    <path d="M111.4 -132.7 L110.95 -132.65 Q110.8 -132.85 111.1 -132.95 111.8 -132.95 111.4 -132.7 M84.8 -141.95 Q86.05 -141.9 85.7 -140.6 85.45 -139.45 84.6 -140.7 84.05 -141.5 84.8 -141.95 M83.8 -124.1 Q84.65 -123.8 84.2 -123.45 83.75 -123.1 83.35 -123.45 82.75 -124.0 83.8 -124.05 L83.8 -124.1 M131.25 -144.05 Q131.65 -143.8 131.5 -143.4 131.1 -142.7 131.05 -143.15 130.9 -143.8 131.2 -144.05 L131.25 -144.05 M150.25 -145.05 Q150.3 -145.4 150.65 -145.4 150.75 -144.9 151.0 -144.8 L150.65 -144.65 Q150.2 -144.45 150.25 -145.05 M14.7 -124.65 Q14.1 -124.9 14.55 -125.2 L14.85 -125.3 Q15.2 -125.05 15.05 -124.7 L14.7 -124.65 M23.25 -146.35 Q22.65 -146.35 23.05 -146.85 23.25 -147.1 23.65 -147.2 24.45 -147.0 24.0 -146.55 L23.25 -146.35 M51.55 -146.4 Q51.3 -146.5 51.75 -146.75 L51.95 -146.85 52.0 -146.55 Q51.8 -146.3 51.55 -146.4 M69.0 -130.85 Q68.05 -131.2 68.85 -131.85 L69.05 -132.0 Q70.05 -132.2 69.8 -131.4 69.5 -130.6 69.0 -130.85 M227.55 -149.65 L227.15 -150.25 227.35 -150.3 227.7 -149.75 Q227.8 -149.2 227.55 -149.65 M181.1 -131.3 L181.5 -130.95 Q181.8 -130.45 181.35 -130.6 180.95 -130.75 181.0 -131.15 L181.1 -131.3 M193.6 -142.15 Q194.35 -142.1 193.9 -141.45 193.5 -140.9 193.3 -141.2 193.0 -141.7 193.45 -142.1 L193.6 -142.15 M333.6 -146.25 Q332.95 -145.75 333.3 -146.5 L333.45 -147.35 333.5 -147.35 Q334.55 -146.95 333.6 -146.25 M326.15 -141.2 Q326.55 -140.95 326.15 -140.75 L325.35 -140.4 324.95 -140.3 325.05 -140.5 325.15 -140.8 325.2 -141.25 325.25 -141.4 325.3 -141.5 325.45 -141.55 325.45 -141.6 326.15 -141.2 M381.6 -147.2 L381.4 -146.75 380.9 -146.25 380.1 -145.9 379.85 -145.85 379.9 -146.35 380.0 -146.65 380.1 -147.1 380.2 -147.55 380.35 -147.8 380.35 -147.85 380.75 -147.7 380.95 -147.65 381.4 -147.4 381.6 -147.2 M364.9 -138.8 L364.35 -138.85 Q364.0 -139.25 364.6 -139.55 365.25 -139.5 364.9 -138.8 M379.15 -126.7 Q379.5 -127.1 380.1 -127.2 L380.45 -127.3 Q380.25 -126.7 379.45 -126.45 378.7 -126.25 379.15 -126.7 M377.25 -112.9 Q377.65 -112.65 377.6 -112.2 377.55 -111.8 377.75 -111.5 L378.15 -110.9 378.15 -110.7 377.7 -110.8 376.75 -111.05 376.25 -111.05 376.15 -111.2 376.35 -111.45 Q376.8 -111.65 376.85 -112.1 L376.9 -112.6 Q376.85 -112.95 377.25 -112.9 M-329.4 -148.75 Q-328.45 -149.0 -328.45 -148.2 -328.4 -147.75 -328.8 -147.35 L-329.6 -147.4 -329.65 -147.6 -329.55 -147.75 -329.3 -147.95 -329.45 -148.25 -329.55 -148.6 -329.55 -148.65 -329.4 -148.75 M-376.8 -146.95 L-376.85 -146.8 -377.85 -146.7 -378.05 -146.95 -378.2 -147.2 -378.2 -147.45 -378.0 -147.7 -377.9 -147.9 -377.75 -148.1 -377.7 -148.2 -377.2 -147.95 -377.05 -147.65 -376.85 -147.15 -376.8 -146.95 M-380.4 -117.65 L-380.8 -117.25 Q-381.0 -116.85 -381.45 -117.0 L-381.6 -117.1 -381.55 -117.35 -381.4 -117.75 -380.95 -118.1 -380.7 -118.2 -380.6 -118.2 Q-380.1 -117.8 -380.4 -117.65 M-172.25 -146.2 Q-171.45 -146.05 -171.75 -145.15 -172.0 -144.35 -172.5 -145.15 -172.85 -145.75 -172.25 -146.2 M-165.8 -132.85 Q-166.5 -132.65 -165.85 -133.25 L-165.6 -133.5 -165.55 -133.7 -165.5 -133.85 -165.4 -133.9 -165.35 -133.95 Q-164.75 -134.0 -165.05 -133.45 -165.25 -132.95 -165.8 -132.85 M-201.7 -144.15 Q-202.35 -143.85 -202.0 -144.35 L-201.45 -145.05 Q-201.1 -144.4 -201.7 -144.15 M-188.85 -116.6 L-189.2 -116.3 -189.95 -116.65 -190.4 -117.1 -190.45 -117.4 -190.35 -117.5 -190.35 -117.55 Q-189.8 -117.6 -189.6 -117.25 L-189.45 -117.1 Q-188.65 -116.95 -188.85 -116.6 M-294.8 -143.2 Q-294.45 -143.6 -293.9 -143.75 L-293.8 -143.75 Q-293.9 -143.15 -294.6 -142.95 -295.25 -142.75 -294.8 -143.2 M-292.15 -126.65 L-292.1 -126.7 -291.95 -126.75 -291.9 -126.8 Q-291.1 -126.9 -290.9 -126.2 -290.7 -125.6 -291.15 -125.15 -291.7 -124.65 -292.4 -124.85 L-292.5 -125.0 -292.5 -125.25 -292.4 -125.75 -292.2 -126.25 -292.15 -126.65 M-318.05 -124.6 L-318.25 -124.25 Q-319.25 -123.7 -319.2 -124.6 L-318.9 -125.15 Q-317.95 -125.4 -318.05 -124.6 M-295.8 -115.55 L-295.4 -115.0 -295.6 -114.4 -295.2 -114.45 -294.8 -114.5 Q-295.55 -113.45 -296.15 -114.4 L-296.15 -114.75 -296.05 -115.2 -295.85 -115.55 -295.8 -115.55 M-56.55 -150.65 L-56.45 -150.65 Q-55.8 -150.35 -56.15 -149.8 L-56.6 -149.45 -57.6 -149.6 -57.8 -149.9 -57.7 -150.05 -57.55 -150.15 -56.8 -150.55 -56.55 -150.65 M-63.45 -132.0 Q-63.5 -132.55 -64.05 -132.8 L-63.8 -132.95 -63.4 -132.8 -63.25 -132.65 -62.95 -132.4 -62.8 -132.15 -62.95 -132.05 Q-63.1 -131.95 -63.3 -131.9 L-63.45 -132.0 M-48.45 -120.3 Q-48.45 -119.75 -48.65 -120.15 L-48.8 -120.95 Q-48.8 -121.1 -48.55 -121.05 L-48.45 -120.3 M-9.1 -146.55 L-9.15 -146.05 -9.1 -145.95 Q-9.8 -145.45 -9.65 -145.85 L-9.35 -146.55 -9.4 -146.65 -10.3 -147.05 -10.2 -147.1 -9.2 -146.85 -9.1 -146.55 M-1.8 -126.75 Q-2.35 -127.4 -1.9 -127.65 -1.45 -127.25 -1.35 -126.75 -1.25 -126.05 -1.8 -126.75 M-34.2 -128.85 L-34.25 -128.8 -34.9 -128.85 Q-35.15 -129.0 -34.85 -129.1 L-34.2 -128.85 M-8.7 -118.65 L-8.95 -118.95 -8.9 -119.1 -8.9 -119.15 -7.85 -118.95 -7.9 -118.85 -8.15 -118.4 -8.2 -118.35 -8.7 -118.65 M-15.05 -106.25 L-14.9 -105.5 Q-14.85 -105.15 -15.1 -104.95 L-15.55 -104.95 -15.65 -105.45 -15.55 -105.85 -15.1 -106.25 -15.05 -106.25 M-145.0 -150.3 L-144.9 -150.3 -144.65 -149.85 -144.4 -149.4 Q-144.35 -149.15 -144.55 -149.0 L-144.8 -148.85 Q-144.75 -149.25 -144.95 -149.55 L-145.1 -149.85 -145.1 -150.2 -145.0 -150.3 M-123.2 -138.2 L-123.75 -137.85 Q-124.9 -137.35 -124.3 -138.3 L-123.95 -138.65 Q-122.95 -138.4 -123.2 -138.2 M-132.85 -125.35 Q-133.1 -124.6 -133.6 -125.0 -134.1 -125.35 -133.6 -125.95 L-133.5 -126.1 Q-132.65 -126.05 -132.85 -125.35 M-156.2 -117.3 L-156.8 -117.2 -157.7 -117.45 -157.7 -117.7 -157.55 -117.95 -157.05 -118.4 -156.8 -118.6 Q-155.95 -118.7 -155.9 -117.95 -155.85 -117.45 -156.2 -117.3 M-135.45 -108.9 Q-135.65 -108.55 -135.45 -108.0 -135.3 -107.65 -135.8 -107.55 L-136.0 -107.6 -136.5 -108.0 -136.35 -107.75 Q-136.05 -107.3 -136.45 -107.0 -137.15 -107.0 -137.05 -107.85 -136.95 -108.45 -136.45 -108.9 L-135.85 -109.5 -135.7 -109.55 Q-135.25 -109.3 -135.45 -108.9 M-90.1 -137.25 Q-89.35 -137.2 -89.8 -136.55 -90.25 -136.0 -90.4 -136.25 -90.65 -136.75 -90.2 -137.15 L-90.1 -137.25 M-115.7 -123.45 L-115.65 -123.45 -114.9 -122.85 Q-114.6 -122.4 -114.85 -122.05 L-115.2 -122.1 Q-115.4 -122.35 -115.8 -122.4 L-115.85 -122.15 -115.95 -121.95 Q-116.2 -121.7 -116.5 -121.75 L-116.95 -122.05 -116.7 -122.2 -116.5 -122.3 -116.75 -122.6 -116.9 -122.95 -116.85 -123.1 -116.7 -123.2 -115.95 -123.4 -115.7 -123.45 M-98.7 -117.25 Q-98.95 -116.2 -99.4 -117.35 -99.65 -118.05 -99.3 -118.6 -98.5 -118.3 -98.7 -117.25" fill="#ffffff" fill-rule="evenodd" stroke="none"/>
    <path d="M-432.1 -128.0 L-430.15 -127.4 Q-429.5 -127.15 -429.0 -126.65 L-427.9 -125.25 -427.1 -123.75 -427.15 -123.0 Q-427.25 -122.25 -427.5 -121.55 -427.95 -120.25 -429.05 -119.55 -430.5 -118.65 -432.1 -118.0 -433.75 -118.65 -435.2 -119.5 -436.75 -120.45 -437.05 -122.25 -437.25 -123.85 -436.55 -125.25 L-436.1 -126.0 -435.35 -126.75 -434.3 -127.3 -432.15 -127.9 -432.1 -128.0" fill="#ffff66" fill-rule="evenodd" stroke="none"/>
  </g>
  <defs>
    <linearGradient gradientTransform="matrix(0.0, 0.094, -0.4719, 0.0, -0.9, -80.1)" gradientUnits="userSpaceOnUse" id="gradient0" spreadMethod="pad" x1="-819.2" x2="819.2">
      <stop offset="0.0" stop-color="#242020"/>
      <stop offset="0.2784313725490196" stop-color="#393344"/>
      <stop offset="0.7333333333333333" stop-color="#721f1f"/>
    </linearGradient>
    <linearGradient gradientTransform="matrix(0.0, 0.127, -0.4971, 0.0, 5.25, -85.1)" gradientUnits="userSpaceOnUse" id="gradient1" spreadMethod="pad" x1="-819.2" x2="819.2">
      <stop offset="0.0" stop-color="#000000" stop-opacity="0.8901961"/>
      <stop offset="1.0" stop-color="#2f1e1e" stop-opacity="0.5921569"/>
    </linearGradient>
  </defs>
</svg>
