<?xml version="1.0" encoding="UTF-8" standalone="no"?>
<svg xmlns:xlink="http://www.w3.org/1999/xlink" height="176.0px" width="814.4px" xmlns="http://www.w3.org/2000/svg">
  <g transform="matrix(1.0, 0.0, 0.0, 1.0, 401.95, 157.1)">
    <path d="M385.7 -3.05 L-387.5 -3.05 -387.5 -157.1 385.7 -157.1 385.7 -3.05" fill="url(#gradient0)" fill-rule="evenodd" stroke="none"/>
    <path d="M31.45 -48.4 L89.45 -48.4 98.45 -91.35 140.45 -92.75 151.45 -76.3 191.45 -74.85 211.45 -121.4 215.4 -121.8 292.45 -119.2 300.4 -121.8 352.45 -68.45 394.45 -68.45 412.45 -49.1 407.45 18.9 -398.75 13.25 -401.95 -39.9 -362.5 -97.05 -333.5 -95.6 -320.5 -71.3 -285.5 -72.0 -271.5 -115.85 -226.2 -113.6 -210.5 -79.9 -149.55 -67.0 -135.55 -50.55 -105.55 -50.55 -90.55 -89.2 -90.55 -89.9 -71.55 -92.05 -56.55 -44.1 -25.55 -39.8 -14.55 -62.7 19.45 -64.85 31.45 -48.4" fill="url(#gradient1)" fill-rule="evenodd" stroke="none"/>
  </g>
  <defs>
    <linearGradient gradientTransform="matrix(0.0, 0.094, -0.4719, 0.0, -0.9, -80.1)" gradientUnits="userSpaceOnUse" id="gradient0" spreadMethod="pad" x1="-819.2" x2="819.2">
      <stop offset="0.0" stop-color="#0e0911"/>
      <stop offset="0.396078431372549" stop-color="#1f0c0c"/>
      <stop offset="1.0" stop-color="#502116"/>
    </linearGradient>
    <linearGradient gradientTransform="matrix(0.0, 0.0859, -0.4971, 0.0, 5.25, -51.45)" gradientUnits="userSpaceOnUse" id="gradient1" spreadMethod="pad" x1="-819.2" x2="819.2">
      <stop offset="0.0" stop-color="#000000" stop-opacity="0.38039216"/>
      <stop offset="1.0" stop-color="#000000" stop-opacity="0.11372549"/>
    </linearGradient>
  </defs>
</svg>
