<?xml version="1.0" encoding="UTF-8" standalone="no"?>
<svg xmlns:xlink="http://www.w3.org/1999/xlink" height="166.75px" width="847.35px" xmlns="http://www.w3.org/2000/svg">
  <g transform="matrix(1.0, 0.0, 0.0, 1.0, 437.1, 187.85)">
    <path d="M393.45 -21.1 L-392.5 -21.1 -392.5 -164.1 393.45 -164.1 393.45 -21.1" fill="url(#gradient0)" fill-rule="evenodd" stroke="none"/>
    <path d="M131.25 -125.1 L152.4 -135.5 Q161.85 -107.9 166.3 -88.65 168.65 -79.75 169.75 -70.85 L192.7 -71.85 Q194.05 -83.3 200.55 -96.5 L206.1 -108.55 Q209.3 -115.4 213.45 -123.0 L230.45 -127.15 Q228.05 -108.85 238.65 -93.3 L262.6 -90.8 Q261.6 -98.05 260.55 -108.05 L274.55 -108.9 275.5 -109.0 Q287.7 -92.75 293.65 -80.5 296.9 -73.0 298.5 -65.45 L319.45 -71.9 Q323.55 -84.75 321.65 -101.15 320.55 -112.05 317.25 -127.7 L328.7 -125.35 Q331.4 -124.65 334.25 -124.3 348.45 -97.8 350.45 -80.5 L360.4 -81.7 Q368.4 -98.15 361.75 -131.35 L359.0 -143.0 363.15 -143.3 394.9 -145.4 Q399.15 -125.2 403.4 -108.6 L405.15 -29.05 Q2.35 -26.1 -400.45 -29.95 L-405.3 -29.95 Q-404.8 -68.1 -404.65 -108.4 L-400.65 -115.1 Q-391.25 -130.75 -377.45 -145.55 L-375.45 -145.7 -343.5 -148.6 Q-351.05 -125.8 -353.0 -106.4 -354.95 -89.55 -351.45 -74.45 L-339.75 -74.65 -337.1 -74.7 Q-331.75 -74.7 -326.4 -74.85 -322.4 -80.3 -320.2 -86.95 -316.6 -96.35 -317.55 -112.9 L-307.5 -110.7 -296.45 -108.3 Q-288.2 -93.05 -280.3 -81.15 -275.5 -88.7 -274.7 -96.6 -274.05 -101.85 -275.4 -108.45 L-254.85 -113.25 -250.4 -114.3 Q-237.95 -90.4 -237.25 -71.1 L-208.2 -67.3 Q-215.4 -87.7 -208.4 -117.85 L-205.5 -117.15 -180.2 -111.05 Q-179.1 -88.85 -173.4 -74.65 -170.7 -67.6 -167.15 -60.55 L-158.2 -60.25 Q-149.9 -71.35 -150.0 -82.6 L-144.5 -82.35 -136.95 -82.0 -135.95 -76.85 -133.1 -62.1 -96.1 -61.1 Q-94.15 -68.2 -90.55 -75.1 -86.0 -83.15 -78.8 -93.15 L-75.95 -93.7 -65.8 -95.75 Q-63.35 -82.9 -60.9 -73.45 L-27.0 -64.65 Q-24.25 -70.45 -22.9 -77.05 -19.75 -88.35 -21.95 -111.85 L0.9 -115.3 Q5.55 -95.25 8.75 -82.75 12.95 -67.05 14.75 -53.1 L48.7 -50.1 Q49.25 -61.75 58.95 -73.75 L70.95 -74.85 Q67.65 -62.6 80.7 -49.7 97.2 -52.75 113.7 -56.15 122.9 -81.1 119.7 -119.65 L131.25 -125.1" fill="url(#gradient1)" fill-rule="evenodd" stroke="none"/>
    <path d="M166.3 -88.65 L170.8 -89.3 Q173.85 -110.35 176.3 -140.35 L187.3 -141.4 Q190.05 -116.45 192.8 -96.65 196.6 -96.5 200.55 -96.5 194.05 -83.3 192.7 -71.85 L169.75 -70.85 Q168.65 -79.75 166.3 -88.65 M206.1 -108.55 L207.0 -159.5 226.95 -161.65 238.35 -108.95 238.6 -109.05 257.5 -115.55 257.2 -139.4 269.15 -141.8 Q271.85 -124.25 274.55 -108.9 L260.55 -108.05 Q261.6 -98.05 262.6 -90.8 L238.65 -93.3 Q228.05 -108.85 230.45 -127.15 L213.45 -123.0 Q209.3 -115.4 206.1 -108.55 M293.65 -80.5 L298.5 -80.95 Q298.65 -105.1 297.95 -150.0 L307.85 -153.65 Q311.95 -123.45 315.45 -100.4 L321.65 -101.15 Q323.55 -84.75 319.45 -71.9 L298.5 -65.45 Q296.9 -73.0 293.65 -80.5 M328.7 -125.35 L328.8 -159.5 341.75 -160.25 345.25 -126.15 361.2 -126.75 361.75 -131.35 Q368.4 -98.15 360.4 -81.7 L350.45 -80.5 Q348.45 -97.8 334.25 -124.3 331.4 -124.65 328.7 -125.35 M363.15 -143.3 Q365.6 -167.7 368.4 -187.85 388.45 -181.05 408.65 -172.4 L409.9 -81.0 410.1 -45.95 410.2 -28.45 410.25 -21.15 -400.45 -21.15 -400.45 -29.95 Q2.35 -26.1 405.15 -29.05 L403.4 -108.6 Q399.15 -125.2 394.9 -145.4 L363.15 -143.3 M-400.65 -115.1 L-402.25 -176.3 Q-390.15 -171.35 -378.0 -165.8 L-375.45 -145.7 -377.45 -145.55 Q-391.25 -130.75 -400.65 -115.1 M-353.0 -106.4 Q-349.75 -111.15 -346.65 -116.5 L-334.65 -114.85 Q-336.9 -92.25 -339.75 -74.65 L-351.45 -74.45 Q-354.95 -89.55 -353.0 -106.4 M-337.1 -74.7 L-327.4 -87.6 -320.2 -86.95 Q-322.4 -80.3 -326.4 -74.85 -331.75 -74.7 -337.1 -74.7 M-307.5 -110.7 Q-305.35 -128.95 -303.4 -149.35 L-288.35 -148.4 -285.3 -99.85 -284.3 -99.85 Q-279.5 -98.05 -274.7 -96.6 -275.5 -88.7 -280.3 -81.15 -288.2 -93.05 -296.45 -108.3 L-307.5 -110.7 M-254.85 -113.25 L-254.85 -132.75 -240.8 -130.45 -237.2 -89.6 -225.15 -93.65 Q-226.25 -116.6 -228.15 -146.75 L-211.05 -145.45 Q-208.1 -131.1 -205.5 -117.15 L-208.4 -117.85 Q-215.4 -87.7 -208.2 -67.3 L-237.25 -71.1 Q-237.95 -90.4 -250.4 -114.3 L-254.85 -113.25 M-173.4 -74.65 L-166.05 -74.6 -165.95 -97.5 -145.95 -96.4 -144.5 -82.35 -150.0 -82.6 Q-149.9 -71.35 -158.2 -60.25 L-167.15 -60.55 Q-170.7 -67.6 -173.4 -74.65 M-135.95 -76.85 L-131.5 -76.65 Q-124.4 -93.7 -118.3 -123.35 L-111.25 -122.95 Q-110.7 -92.9 -110.95 -75.85 L-90.55 -75.1 Q-94.15 -68.2 -96.1 -61.1 L-133.1 -62.1 -135.95 -76.85 M-75.95 -93.7 L-79.1 -117.45 -67.05 -114.45 Q-60.3 -92.8 -54.35 -79.7 L-22.9 -77.05 Q-24.25 -70.45 -27.0 -64.65 L-60.9 -73.45 Q-63.35 -82.9 -65.8 -95.75 L-75.95 -93.7 M8.75 -82.75 L19.15 -85.45 Q21.15 -100.55 22.75 -121.6 L34.8 -120.6 Q38.15 -93.85 41.05 -78.25 L67.0 -79.6 Q68.2 -86.95 69.0 -97.5 L86.0 -99.3 Q89.05 -83.55 91.9 -73.0 98.9 -72.75 105.85 -72.65 110.25 -97.3 113.4 -143.9 L127.35 -145.1 131.25 -125.1 119.7 -119.65 Q122.9 -81.1 113.7 -56.15 97.2 -52.75 80.7 -49.7 67.65 -62.6 70.95 -74.85 L58.95 -73.75 Q49.25 -61.75 48.7 -50.1 L14.75 -53.1 Q12.95 -67.05 8.75 -82.75" fill="url(#gradient2)" fill-rule="evenodd" stroke="none"/>
    <path d="M-432.1 -128.0 L-430.15 -127.4 Q-429.5 -127.15 -429.0 -126.65 L-427.9 -125.25 -427.1 -123.75 -427.15 -123.0 Q-427.25 -122.25 -427.5 -121.55 -427.95 -120.25 -429.05 -119.55 -430.5 -118.65 -432.1 -118.0 -433.75 -118.65 -435.2 -119.5 -436.75 -120.45 -437.05 -122.25 -437.25 -123.85 -436.55 -125.25 L-436.1 -126.0 -435.35 -126.75 -434.3 -127.3 -432.15 -127.9 -432.1 -128.0" fill="#ffff66" fill-rule="evenodd" stroke="none"/>
  </g>
  <defs>
    <radialGradient cx="0" cy="0" gradientTransform="matrix(6.0E-4, 0.1306, -0.3982, 0.0019, -3.0, -35.0)" gradientUnits="userSpaceOnUse" id="gradient0" r="819.2" spreadMethod="pad">
      <stop offset="0.0" stop-color="#556039"/>
      <stop offset="1.0" stop-color="#263223"/>
    </radialGradient>
    <linearGradient gradientTransform="matrix(0.0, -0.0671, 0.4947, 0.0, -0.05, -84.1)" gradientUnits="userSpaceOnUse" id="gradient1" spreadMethod="pad" x1="-819.2" x2="819.2">
      <stop offset="0.0" stop-color="#000000" stop-opacity="0.21176471"/>
      <stop offset="1.0" stop-color="#000000" stop-opacity="0.73333335"/>
    </linearGradient>
    <linearGradient gradientTransform="matrix(0.0055, -0.1139, 0.4981, 0.024, 5.0, -87.1)" gradientUnits="userSpaceOnUse" id="gradient2" spreadMethod="pad" x1="-819.2" x2="819.2">
      <stop offset="0.0" stop-color="#000000" stop-opacity="0.03137255"/>
      <stop offset="1.0" stop-color="#000000" stop-opacity="0.4509804"/>
    </linearGradient>
  </defs>
</svg>
