<?xml version="1.0" encoding="UTF-8" standalone="no"?>
<svg xmlns:xlink="http://www.w3.org/1999/xlink" height="129.0px" width="778.95px" xmlns="http://www.w3.org/2000/svg">
  <g transform="matrix(1.0, 0.0, 0.0, 1.0, 391.0, 71.3)">
    <path d="M57.25 -59.25 L35.55 -60.85 2.5 51.8 50.75 57.4 82.75 -0.4 85.15 -6.8 82.75 -13.2 57.25 -59.25 M67.8 -52.75 L65.6 -58.65 65.05 -58.7 67.8 -52.75 M69.55 -58.35 L70.4 -56.2 102.25 -52.05 103.7 -55.85 69.55 -58.35 M63.2 -62.6 L64.1 -62.55 60.8 -71.3 64.3 -71.3 67.95 -62.25 105.1 -59.6 107.25 -65.3 103.45 -71.3 116.25 -71.3 114.25 -66.3 118.7 -58.65 167.75 -55.15 163.5 -71.3 170.85 -71.3 174.75 -54.65 211.7 -52.0 194.35 -71.3 202.1 -71.3 219.0 -51.45 237.55 -50.15 275.2 -56.3 269.35 -71.3 280.7 -71.3 283.35 -46.85 306.25 -45.25 324.15 -71.3 333.1 -71.3 333.25 -70.2 329.5 -65.25 335.1 -52.65 335.3 -49.3 329.2 -64.8 314.05 -44.7 333.7 -43.3 335.65 -48.55 335.55 -48.7 335.15 -52.45 336.2 -50.1 339.3 -58.4 336.25 -71.3 339.05 -71.3 341.25 -63.65 344.05 -71.3 354.55 -71.3 344.75 -51.2 347.3 -42.25 387.95 -39.4 387.95 -35.1 348.55 -37.95 354.05 -18.6 387.95 -27.95 387.95 -25.65 355.65 -12.95 356.65 -9.35 357.95 -8.8 357.4 -6.8 357.95 -4.8 356.65 -4.25 356.6 -4.05 358.65 0.55 387.95 12.05 387.95 14.35 361.5 7.05 383.9 57.7 377.65 57.7 363.1 20.9 346.4 41.05 354.55 57.7 342.85 57.7 342.6 53.8 341.2 50.1 339.05 57.7 336.25 57.7 339.3 44.9 326.0 9.05 284.0 27.2 280.7 57.7 269.35 57.7 275.2 42.7 251.3 38.8 237.05 57.7 233.55 57.7 247.4 38.15 222.3 34.05 202.1 57.7 194.35 57.7 196.9 54.85 190.0 28.8 184.1 27.8 169.85 29.65 186.1 57.7 184.75 57.7 167.25 30.0 108.2 37.7 116.25 57.7 109.5 57.7 102.25 38.45 87.55 40.4 66.75 57.7 60.8 57.7 67.8 39.25 59.1 57.7 25.75 57.7 1.5 55.2 0.75 57.7 -0.6 57.7 0.15 55.05 -3.25 54.7 -2.45 57.7 -3.8 57.7 -4.75 54.55 -39.7 50.9 -67.15 48.95 -63.85 57.7 -69.8 57.7 -81.5 47.95 -114.15 45.6 -106.5 57.7 -114.4 57.7 -121.75 45.05 -170.8 41.55 -166.55 57.7 -173.9 57.7 -177.65 41.65 -187.8 57.7 -189.15 57.7 -179.45 40.95 -195.95 39.75 -200.7 57.7 -204.35 57.7 -200.05 39.45 -240.65 36.55 -250.4 38.15 -236.6 57.7 -240.1 57.7 -254.3 38.8 -278.25 42.7 -272.4 57.7 -283.75 57.7 -286.4 33.3 -309.3 31.65 -327.2 57.7 -336.15 57.7 -336.3 56.6 -332.55 51.65 -338.15 39.05 -338.35 35.7 -332.25 51.2 -317.1 31.1 -336.7 29.7 -338.65 34.95 -338.6 35.1 -338.2 38.85 -339.2 36.55 -345.6 53.75 -345.9 57.7 -357.6 57.7 -349.45 41.0 -360.25 28.0 -368.7 27.4 -380.7 57.7 -386.95 57.7 -373.4 27.05 -391.0 25.8 -391.0 21.5 -371.55 22.95 -359.55 -4.15 -361.0 -4.8 -359.65 -9.55 -361.65 -14.1 -391.0 -25.65 -391.0 -27.95 -364.55 -20.65 -371.55 -36.5 -391.0 -35.1 -391.0 -39.4 -373.4 -40.65 -386.95 -71.3 -380.7 -71.3 -368.7 -41.0 -360.25 -41.6 -348.4 -55.9 -350.05 -71.3 -345.9 -71.3 -345.15 -60.55 -342.1 -71.3 -339.3 -71.3 -344.35 -49.7 -343.9 -42.75 -342.45 -42.85 -338.2 -52.45 -338.6 -48.7 -340.85 -43.0 -317.1 -44.7 -332.25 -64.8 -338.35 -49.3 -338.15 -52.65 -332.55 -65.25 -336.3 -70.2 -336.15 -71.3 -327.2 -71.3 -309.3 -45.25 -256.9 -49.0 -240.1 -71.3 -236.6 -71.3 -252.1 -49.35 -222.0 -51.5 -205.15 -71.3 -197.4 -71.3 -199.95 -68.45 -195.95 -53.35 -179.45 -54.5 -189.15 -71.3 -187.8 -71.3 -177.65 -55.25 -173.9 -71.3 -166.55 -71.3 -170.8 -55.15 -121.75 -58.65 -117.3 -66.3 -119.3 -71.3 -106.5 -71.3 -110.3 -65.3 -108.15 -59.6 -81.5 -61.5 -69.8 -71.3 -64.0 -71.3 -74.7 -62.0 -66.2 -62.6 -62.15 -71.3 -28.8 -71.3 -4.55 -68.75 -3.8 -71.3 -2.45 -71.3 -3.15 -68.6 -1.6 -68.45 25.75 -71.3 59.1 -71.3 63.2 -62.6 M55.05 -63.2 L50.75 -71.0 14.55 -66.8 36.65 -64.5 55.05 -63.2 M108.2 -51.25 L116.8 -50.15 113.65 -55.15 109.85 -55.4 108.2 -51.25 M87.65 -13.4 L99.75 -45.5 73.75 -47.9 87.65 -13.4 M90.3 -6.8 L102.0 22.2 141.05 -11.6 120.95 -43.5 105.65 -44.95 90.3 -6.8 M177.7 -42.2 L184.1 -41.4 216.45 -46.7 215.6 -47.65 175.7 -50.6 177.7 -42.2 M188.55 -36.75 L188.6 -36.95 186.3 -37.5 178.65 -38.2 192.8 21.7 241.55 5.15 252.3 -6.8 241.55 -18.75 188.55 -36.75 M121.05 -54.6 L124.2 -49.2 171.0 -43.1 168.85 -51.1 121.05 -54.6 M219.5 -43.3 L196.35 -38.55 236.85 -24.0 219.5 -43.3 M234.25 -46.3 L225.0 -44.4 244.9 -21.1 260.2 -15.6 281.7 -39.4 280.35 -42.95 234.25 -46.3 M254.75 -4.05 L249.15 2.55 258.0 -0.45 254.75 -4.05 M340.65 -42.75 L343.0 -42.55 342.2 -45.95 340.65 -42.75 M344.0 -38.3 L341.35 -38.5 346.95 -25.85 344.0 -38.3 M172.1 -38.8 L127.85 -42.9 167.55 25.65 186.3 23.9 188.55 23.35 172.1 -38.8 M311.1 -40.7 L304.5 -31.9 326.0 -22.65 332.15 -39.15 311.1 -40.7 M298.7 -34.45 L303.5 -41.25 283.8 -42.7 284.0 -40.8 298.7 -34.45 M283.1 -37.3 L257.1 -6.8 269.15 7.35 296.5 -31.3 283.1 -37.3 M248.9 -49.3 L278.7 -47.2 275.75 -54.85 248.9 -49.3 M254.75 -9.55 L258.0 -13.15 249.1 -16.15 254.75 -9.55 M338.65 -38.65 L337.0 -35.25 338.95 -17.0 350.0 -12.25 339.55 -38.6 338.65 -38.65 M340.6 -1.95 L351.45 -6.8 339.5 -12.15 340.6 -1.95 M339.05 3.4 L330.0 7.3 340.9 29.7 339.05 3.4 M357.15 5.85 L354.05 5.0 344.85 37.4 344.85 37.65 361.9 17.9 357.15 5.85 M338.7 -1.1 L337.9 -12.85 302.15 -28.8 272.25 10.95 283.1 23.7 338.7 -1.1 M330.0 -20.9 L337.55 -17.6 336.4 -34.05 330.0 -20.9 M343.65 26.35 L350.2 -1.45 341.05 2.5 343.65 26.35 M1.05 51.65 L31.15 -61.15 -1.55 -64.9 -4.2 -64.6 -19.7 -6.75 -4.25 51.05 1.05 51.65 M79.85 41.4 L70.4 42.6 66.1 53.25 79.85 41.4 M89.7 32.85 L97.55 26.05 87.65 -0.25 73.75 34.3 89.7 32.85 M99.3 30.6 L97.45 32.15 99.8 31.9 99.3 30.6 M103.85 26.85 L105.65 31.35 164.7 25.9 144.1 -6.75 103.85 26.85 M199.85 51.6 L216.45 33.1 194.65 29.55 199.85 51.6 M219.5 29.7 L236.85 10.35 196.35 24.95 219.5 29.7 M275.75 41.25 L281.7 25.8 270.45 13.35 253.0 36.55 275.75 41.25 M260.2 2.0 L244.95 7.45 225.05 30.8 249.1 35.75 267.35 9.9 260.2 2.0 M-347.9 -51.25 L-355.95 -41.9 -350.35 -42.3 -347.85 -51.0 -347.9 -51.25 M-342.6 -38.6 L-343.45 -36.45 -342.05 -16.7 -339.65 -38.85 -342.6 -38.6 M-367.05 -36.85 L-366.15 -34.5 -364.0 -37.05 -367.05 -36.85 M-346.5 -38.35 L-347.05 -38.3 -350.0 -25.75 -346.1 -34.65 -346.5 -38.35 M-194.9 -49.4 L-186.5 -17.8 -178.75 -50.6 -194.9 -49.4 M-189.1 -6.85 L-199.1 -49.1 -218.6 -47.7 -261.05 -0.45 -195.85 21.7 -189.1 -6.85 M-202.9 -65.2 L-214.7 -52.0 -200.0 -53.05 -202.9 -65.2 M-255.15 -45.0 L-282.2 -6.8 -272.2 7.35 -225.7 -47.15 -255.15 -45.0 M-306.55 -41.25 L-285.3 -11.2 -260.15 -44.65 -306.55 -41.25 M-341.35 -6.7 L-340.95 -0.75 -305.2 15.2 -288.65 -6.8 -314.15 -40.7 -339.1 -38.9 -341.35 -6.7 M-353.45 -11.15 L-354.5 -6.8 -343.65 -1.95 -343.1 -6.85 -345.7 -30.8 -353.45 -11.15 M-351.55 -37.95 L-359.85 -37.35 -364.95 -31.5 -360.15 -19.45 -357.1 -18.6 -351.55 -37.95 M-183.6 -6.8 L-175.15 25.2 -170.6 25.65 -151.8 -6.8 -173.65 -44.5 -183.6 -6.8 M-172.8 -47.55 L-149.55 -10.65 -124.1 -54.6 -171.9 -51.1 -172.8 -47.55 M-5.8 -64.45 L-34.2 -61.15 -21.15 -12.2 -5.8 -64.45 M-105.0 -35.8 L-138.55 -6.8 -92.75 32.85 -76.8 34.3 -105.0 -35.8 M-100.6 -39.6 L-90.1 -11.75 -68.05 -58.65 -79.5 -57.85 -100.6 -39.6 M-142.8 -3.1 L-144.1 -2.0 -124.0 29.95 -100.5 32.1 -142.8 -3.1 M-112.9 -55.4 L-116.7 -55.15 -144.1 -11.6 -142.8 -10.45 -106.85 -40.4 -112.9 -55.4 M-86.5 -57.35 L-106.7 -55.85 -102.3 -44.2 -86.5 -57.35 M-17.65 -66.8 L-53.8 -71.0 -58.1 -63.2 -39.7 -64.5 -17.65 -66.8 M-333.05 7.3 L-340.6 4.05 -339.45 20.45 -333.05 7.3 M-342.0 3.45 L-342.05 3.4 -343.45 22.85 -342.6 25.0 -341.7 25.1 -340.0 21.65 -342.0 3.45 M-167.75 25.9 L-130.85 29.3 -149.55 -2.95 -167.75 25.9 M-299.55 17.75 L-286.15 23.7 -275.25 10.95 -285.3 -2.4 -299.55 17.75 M-314.15 27.1 L-307.55 18.35 -329.05 9.05 -335.15 25.6 -314.15 27.1 M-287.05 27.2 L-301.75 20.85 -306.55 27.65 -286.85 29.1 -287.05 27.2 M-283.35 29.35 L-260.15 31.05 -273.5 13.35 -284.75 25.8 -283.35 29.35 M-252.05 35.8 L-251.95 35.75 -252.1 35.75 -252.05 35.8 M-281.7 33.6 L-278.8 41.25 -256.0 36.6 -256.9 35.4 -281.7 33.6 M-237.25 32.75 L-199.4 24.95 -263.25 2.0 -270.4 9.9 -255.15 31.45 -237.25 32.75 M-173.65 30.9 L-172.9 29.65 -174.0 29.5 -173.65 30.9 M-199.1 35.5 L-197.7 29.55 -223.4 33.75 -199.1 35.5 M-187.15 27.8 L-193.05 28.8 -194.9 35.8 -178.75 37.0 -180.7 28.65 -187.15 27.8 M-191.6 23.35 L-189.35 23.9 -181.65 24.6 -186.5 4.1 -191.6 23.35 M-124.1 41.0 L-127.2 35.6 -170.35 30.0 -172.85 33.95 -171.9 37.5 -124.1 41.0 M-90.6 40.35 L-119.85 36.55 -116.7 41.55 -86.55 43.75 -90.6 40.35 M-34.2 47.55 L-5.8 50.85 -21.15 -1.3 -34.2 47.55 M-71.0 48.7 L-74.75 48.4 -69.15 53.3 -71.0 48.7 M-79.55 44.25 L-72.55 44.75 -73.45 42.6 -82.85 41.4 -79.55 44.25 M-22.75 -6.75 L-38.6 -60.85 -60.25 -59.25 -88.65 -8.0 -68.6 45.05 -38.6 47.25 -22.75 -6.75 M-346.95 28.95 L-356.0 28.3 -347.9 37.65 -346.95 28.95 M-359.85 23.8 L-346.5 24.75 -346.1 21.05 -356.7 -2.95 -364.95 17.9 -359.85 23.8 M-343.9 29.65 L-343.7 29.2 -343.9 29.15 -343.9 29.65 M-344.1 2.5 L-353.0 -1.35 -345.7 17.15 -344.1 2.5 M-366.15 20.9 L-367.1 23.25 -364.0 23.5 -366.15 20.9" fill="#000000" fill-opacity="0.101960786" fill-rule="evenodd" stroke="none"/>
  </g>
</svg>
