<?xml version="1.0" encoding="UTF-8" standalone="no"?>
<svg xmlns:xlink="http://www.w3.org/1999/xlink" height="174.45px" width="234.95px" xmlns="http://www.w3.org/2000/svg">
  <g transform="matrix(1.0, 0.0, 0.0, 1.0, 37.2, 1.35)">
    <path d="M-37.2 -0.9 Q-37.2 -1.65 -33.8 -1.2 L-24.8 -0.4 -21.95 -0.6 -17.1 -0.85 -8.0 -0.5 -3.4 -0.05 0.0 0.1 0.0 0.0 22.45 2.2 44.4 4.4 58.8 3.5 73.2 2.6 Q77.0 2.6 91.6 8.2 94.45 9.25 96.1 12.05 97.05 13.6 98.0 16.0 99.45 18.5 99.75 23.45 L99.8 31.0 Q99.8 44.65 93.8 59.6 L89.7 69.4 Q87.8 74.1 87.8 76.6 87.8 80.3 88.05 81.2 88.75 83.8 91.8 85.6 93.55 86.65 99.55 86.75 L109.8 86.8 121.05 87.65 Q122.1 87.85 124.6 89.4 129.45 92.45 133.55 97.35 138.1 102.7 137.8 106.0 149.95 104.8 156.4 109.7 160.8 113.05 161.4 117.8 162.4 125.7 161.8 132.8 161.4 137.9 167.75 147.5 175.6 159.35 176.6 162.2 L176.8 162.5 176.8 162.55 176.9 162.6 Q177.55 163.1 183.35 166.45 184.5 167.1 186.65 168.45 188.65 169.65 190.25 170.25 L194.35 171.4 Q197.1 172.2 197.7 172.7 197.85 173.1 197.35 173.1 L195.75 172.65 193.0 172.05 Q192.5 171.7 192.25 171.7 L191.25 171.5 190.2 171.25 189.25 171.1 183.95 169.45 181.25 168.15 178.65 166.95 Q176.85 166.3 175.7 165.55 L173.75 164.2 Q171.95 163.0 170.3 161.3 L168.5 159.25 166.3 157.15 Q163.35 154.1 160.2 149.8 156.2 144.45 154.4 137.2 153.85 134.85 153.55 130.65 L153.0 124.0 Q153.05 122.3 152.65 121.1 151.85 118.9 148.8 117.4 146.05 116.05 140.8 116.4 L136.0 117.0 Q130.45 117.0 128.55 111.75 L127.35 107.45 Q126.7 105.1 125.8 104.2 L123.35 100.95 Q121.8 98.9 119.6 97.8 117.1 96.55 112.2 96.55 107.3 96.5 104.6 95.2 L100.0 95.6 94.4 96.2 Q89.05 96.2 84.25 92.05 80.2 88.6 80.0 86.4 79.4 80.4 79.4 76.2 79.4 70.1 85.4 55.05 91.4 40.0 91.4 31.8 L90.95 26.25 Q90.35 21.85 89.4 19.2 89.15 18.3 86.95 17.05 84.7 15.7 81.0 14.4 L72.4 13.8 66.2 13.2 63.4 12.95 62.55 12.75 60.45 12.85 58.25 12.4 49.15 12.2 48.55 12.0 47.3 11.8 45.35 11.55 43.2 11.35 41.1 11.1 40.2 10.8 36.65 10.15 35.95 9.95 33.85 9.35 33.25 9.2 Q31.4 8.4 29.0 7.8 25.6 6.95 12.05 4.9 L6.2 3.9 0.9 3.0 -2.8 2.25 -9.75 1.7 -18.15 1.3 -20.35 1.05 -30.25 0.5 -31.3 0.2 -33.7 -0.05 -34.8 -0.35 -36.4 -0.45 Q-37.2 -0.55 -37.2 -0.9" fill="#ffcc00" fill-rule="evenodd" stroke="none"/>
  </g>
</svg>
