<?xml version="1.0" encoding="UTF-8" standalone="no"?>
<svg xmlns:xlink="http://www.w3.org/1999/xlink" height="348.9px" width="543.5px" xmlns="http://www.w3.org/2000/svg">
  <g transform="matrix(1.0, 0.0, 0.0, 1.0, 266.0, 193.15)">
    <path d="M51.8 -79.65 Q41.15 -79.95 30.35 -79.1 L13.45 -77.4 -8.45 -76.4 Q-12.75 -76.45 -15.75 -79.8 -19.15 -83.7 -23.8 -85.6 -32.05 -88.85 -40.1 -92.35 -50.45 -96.7 -57.6 -105.05 -64.05 -112.6 -67.05 -121.95 -69.05 -128.2 -70.05 -134.8 -71.65 -144.95 -76.6 -154.1 -81.2 -162.45 -88.7 -168.55 L-97.3 -175.6 Q-102.9 -180.2 -106.1 -186.85 L-105.75 -187.1 Q-100.9 -187.5 -96.4 -185.85 -91.95 -184.45 -88.4 -181.25 -77.95 -171.95 -71.4 -160.1 L-70.95 -159.9 -66.6 -146.0 -66.1 -145.95 Q-65.55 -141.3 -65.35 -136.6 -64.4 -117.1 -49.55 -104.95 -45.4 -101.6 -40.2 -100.15 -22.55 -95.05 -3.85 -94.9 26.9 -93.1 57.3 -88.5 84.65 -84.4 112.2 -82.7 117.3 -82.4 122.25 -80.8 124.5 -80.0 125.45 -77.65 127.5 -72.8 127.45 -67.45 127.25 -51.0 118.6 -36.65 L117.65 -41.65 Q116.5 -46.95 114.1 -51.55 L111.4 -48.9 Q105.35 -43.0 102.7 -38.6 L104.15 -38.75 104.25 -38.65 101.3 -35.8 101.25 -35.75 98.65 -30.2 Q97.0 -26.7 97.0 -24.5 L96.5 -18.6 Q96.0 -14.75 96.0 -13.65 96.0 -6.6 104.4 -3.25 110.55 -0.85 123.4 0.05 L127.75 0.35 Q123.8 -1.45 120.05 -3.95 L150.6 -1.3 Q159.25 -0.5 163.4 7.25 L164.25 8.8 Q161.55 10.8 158.95 10.25 L159.15 10.7 162.0 17.75 Q165.85 26.5 169.6 26.5 173.65 26.5 176.45 22.75 L177.7 21.3 171.5 20.95 Q176.3 15.45 183.1 17.65 191.3 20.35 189.65 28.95 L188.8 31.95 188.35 31.9 188.15 34.0 Q187.45 30.05 185.85 27.25 L185.55 27.7 Q183.35 30.9 182.1 33.0 177.1 41.25 177.1 48.35 177.1 53.05 178.85 58.5 180.75 64.35 183.6 67.5 194.8 79.95 197.6 81.2 L197.95 81.35 Q201.55 74.45 207.7 69.8 L218.45 74.0 Q227.7 77.8 237.1 80.6 250.1 84.6 262.5 90.3 268.25 92.85 270.85 98.4 271.45 99.75 271.3 101.15 269.0 120.45 264.85 139.7 L261.85 139.6 Q261.2 132.15 259.0 125.05 256.1 115.6 250.3 107.65 245.95 101.8 239.8 97.25 231.65 91.35 222.0 88.3 216.55 86.65 211.1 86.4 L211.1 86.75 Q211.1 90.15 209.9 91.3 208.05 93.0 202.1 93.0 187.0 93.0 175.9 73.75 171.85 66.8 169.3 58.85 167.1 52.05 167.1 48.6 167.1 46.8 167.75 43.3 168.35 39.95 169.1 37.25 159.6 35.85 156.35 30.9 155.3 29.3 154.65 26.9 L153.75 23.75 Q150.35 17.5 150.0 16.25 148.3 10.25 144.75 8.3 141.9 6.75 136.95 7.55 L127.65 9.7 Q121.7 11.05 117.75 10.5 108.0 9.2 102.45 7.25 100.1 6.45 96.75 4.5 L92.15 2.4 Q89.3 1.05 88.5 -0.75 87.25 -3.6 86.55 -8.0 86.0 -11.35 86.0 -13.9 86.0 -16.45 86.65 -20.4 L79.25 -19.55 68.65 -32.2 68.6 -40.2 69.0 -40.55 Q70.1 -38.85 71.95 -36.65 77.25 -30.4 83.0 -30.4 85.45 -30.4 89.25 -32.25 91.0 -39.3 92.25 -42.0 94.25 -46.45 98.75 -51.35 103.05 -56.0 107.7 -58.95 L108.6 -59.5 107.7 -60.45 Q100.35 -68.2 90.6 -72.25 80.5 -76.55 69.5 -78.0 L51.8 -79.65" fill="url(#gradient0)" fill-rule="evenodd" stroke="none"/>
    <path d="M-106.1 -186.85 Q-102.9 -180.2 -97.3 -175.6 L-88.7 -168.55 Q-81.2 -162.45 -76.6 -154.1 -71.65 -144.95 -70.05 -134.8 -69.05 -128.2 -67.05 -121.95 -64.05 -112.6 -57.6 -105.05 -50.45 -96.7 -40.1 -92.35 -32.05 -88.85 -23.8 -85.6 -19.15 -83.7 -15.75 -79.8 -12.75 -76.45 -8.45 -76.4 L13.45 -77.4 30.35 -79.1 Q41.15 -79.95 51.8 -79.65 L69.5 -78.0 Q80.5 -76.55 90.6 -72.25 100.35 -68.2 107.7 -60.45 115.3 -52.55 117.65 -41.65 L118.6 -36.65 Q127.25 -51.0 127.45 -67.45 127.5 -72.8 125.45 -77.65 124.5 -80.0 122.25 -80.8 117.3 -82.4 112.2 -82.7 84.65 -84.4 57.3 -88.5 26.9 -93.1 -3.85 -94.9 -22.55 -95.05 -40.2 -100.15 -45.4 -101.6 -49.55 -104.95 -64.4 -117.1 -65.35 -136.6 -65.55 -141.3 -66.1 -145.95 L-66.1 -146.0 -66.6 -146.0 -70.95 -159.9 -71.4 -160.1 Q-77.95 -171.95 -88.4 -181.25 -91.95 -184.45 -96.4 -185.85 -100.9 -187.5 -105.75 -187.1 L-106.3 -187.1 -106.15 -186.85 -106.1 -186.85 M67.75 -89.65 L121.0 -85.4 Q125.5 -85.15 128.0 -79.4 L129.3 -73.65 130.4 -67.0 Q130.4 -56.35 124.65 -42.85 L114.9 -23.05 114.65 -22.6 115.0 -22.75 115.3 -22.85 Q115.4 -22.35 114.5 -18.9 L113.55 -15.2 114.35 -14.55 114.65 -13.1 115.15 -11.75 118.55 -8.85 118.35 -8.45 119.3 -7.45 124.55 -6.35 128.7 -6.0 147.75 -5.1 Q154.15 -4.8 158.25 -2.4 160.25 -1.2 163.25 1.9 166.55 5.35 168.5 9.85 170.3 14.15 170.55 18.4 L170.3 19.05 170.4 19.1 Q173.8 14.85 178.55 13.8 184.0 12.6 188.0 16.05 192.3 19.75 192.3 26.75 192.3 31.05 190.65 34.7 190.65 38.25 191.35 40.95 192.7 46.7 197.0 51.05 199.9 54.0 204.5 60.5 209.25 66.45 216.05 70.05 221.15 72.75 233.45 76.95 L259.0 85.25 Q267.6 87.95 271.5 94.7 274.25 99.35 274.25 104.65 274.25 109.05 271.9 117.55 L271.8 118.0 271.7 119.8 271.5 121.9 Q271.5 126.75 272.5 129.4 L275.1 133.05 Q277.5 136.2 277.5 136.55 L269.15 127.6 268.5 130.25 266.75 139.8 267.55 139.9 267.7 139.75 267.8 140.5 Q267.8 141.3 267.6 141.45 L267.05 141.65 266.4 141.65 266.2 142.7 Q265.0 150.1 264.85 155.75 L264.35 155.75 264.2 153.1 264.0 150.6 264.05 148.55 263.85 149.8 Q263.25 152.0 261.0 152.0 L259.55 151.9 257.0 154.0 -263.0 154.0 -265.45 151.9 -266.0 151.25 Q-266.0 149.45 -263.0 148.0 L-262.8 148.0 -262.95 146.55 -263.0 146.25 -262.95 145.65 -263.0 142.9 Q-264.5 142.3 -264.55 139.4 L-265.25 139.05 Q-265.35 139.75 -265.35 138.5 -265.35 137.85 -264.4 137.55 L-264.35 134.05 -264.4 129.55 -264.25 125.05 -264.2 120.55 Q-264.15 117.85 -264.25 116.05 -264.3 114.6 -264.95 111.55 L-265.35 109.3 -265.85 109.3 -265.85 -186.65 Q-264.9 -187.6 -259.1 -187.5 -250.55 -187.15 -244.65 -187.15 L-213.7 -188.65 -199.5 -190.65 -188.4 -192.4 -168.75 -193.0 Q-146.1 -192.6 -140.3 -191.15 L-110.8 -190.25 -110.9 -190.6 -110.75 -192.65 -110.4 -192.65 -108.5 -190.25 Q-98.5 -190.35 -96.6 -189.95 -93.95 -189.5 -89.75 -186.25 L-86.65 -184.35 Q-84.95 -183.3 -84.25 -182.15 L-84.65 -181.45 -80.1 -175.4 -76.0 -170.8 Q-75.7 -171.65 -73.7 -171.35 -71.3 -171.05 -68.35 -169.4 -62.95 -166.4 -61.3 -162.5 L-61.0 -162.25 Q-59.65 -161.25 -59.35 -159.25 L-59.25 -155.9 Q-59.25 -153.15 -59.95 -151.2 -60.95 -148.45 -63.6 -146.45 L-63.5 -143.9 -62.3 -135.35 -58.65 -137.15 -53.5 -139.15 -52.7 -138.75 Q-52.35 -138.45 -52.35 -137.6 -52.35 -136.55 -54.45 -131.25 -56.05 -127.1 -57.35 -125.15 -58.2 -122.15 -58.9 -120.45 L-58.05 -118.5 Q-54.4 -111.05 -48.0 -106.75 -43.3 -103.6 -38.45 -101.9 -30.15 -99.05 -17.25 -98.15 L2.3 -97.2 12.0 -96.9 14.4 -96.45 18.5 -95.9 38.5 -93.9 52.35 -91.85 67.75 -89.65 M68.6 -40.2 L68.65 -32.2 79.25 -19.55 93.8 -21.25 Q96.05 -31.75 104.25 -38.65 L104.4 -38.75 104.15 -38.75 Q99.95 -38.75 93.3 -34.55 86.65 -30.4 83.0 -30.4 77.25 -30.4 71.95 -36.65 70.1 -38.85 69.0 -40.55 L68.65 -41.15 68.6 -40.2 M270.85 98.4 Q268.25 92.85 262.5 90.3 250.1 84.6 237.1 80.6 227.7 77.8 218.45 74.0 L207.7 69.8 Q200.0 75.6 196.3 84.95 L194.9 88.5 Q208.4 84.25 222.0 88.3 231.65 91.35 239.8 97.25 245.95 101.8 250.3 107.65 256.1 115.6 259.0 125.05 261.1 131.9 261.8 139.05 L262.25 139.65 264.85 139.7 Q269.0 120.45 271.3 101.15 271.45 99.75 270.85 98.4 M150.6 -1.3 L120.05 -3.95 Q133.25 4.9 149.4 4.85 152.65 5.5 154.95 7.8 159.5 12.35 164.25 8.8 L163.4 7.25 Q159.25 -0.5 150.6 -1.3 M165.75 11.4 L165.65 11.15 165.6 11.2 165.75 11.4 M167.3 24.3 L167.25 24.3 167.25 24.4 167.3 24.3 M188.35 31.9 L188.8 31.95 189.65 28.95 Q191.3 20.35 183.1 17.65 176.3 15.45 171.5 20.95 185.65 19.85 188.15 34.0 L188.35 31.9 M188.55 38.6 L188.55 38.55 188.5 38.25 188.2 38.6 188.55 38.6 M188.95 38.1 L189.5 41.3 189.25 38.8 189.3 37.15 188.9 37.7 188.95 38.1 M263.35 142.05 Q264.0 144.1 264.1 146.35 L264.1 146.7 264.6 141.65 263.25 141.65 263.35 142.05 M119.65 140.4 L119.65 140.8 119.75 140.4 119.65 140.4 M-175.0 -84.75 L-174.75 -84.65 -174.7 -84.7 -174.45 -86.0 -175.0 -84.75 M-55.35 -135.5 L-55.1 -135.75 -55.4 -135.6 -55.35 -135.5 M-65.2 -147.5 L-64.75 -148.25 -65.1 -148.35 -65.2 -147.5 M-59.9 -123.05 L-59.7 -123.55 -60.0 -123.45 -59.9 -123.05 M-113.5 -186.8 L-113.5 -187.1 -114.45 -187.1 -113.5 -186.8 M-104.05 -177.75 L-104.35 -178.3 -104.35 -177.5 -104.05 -177.75 M-107.5 -183.9 L-107.95 -184.7 -108.0 -184.75 -108.5 -184.5 -107.5 -183.9" fill="#000000" fill-rule="evenodd" stroke="none"/>
    <path d="M-106.15 -186.85 L-106.3 -187.1 -105.75 -187.1 -106.15 -186.85 M69.0 -40.55 L68.6 -40.2 68.65 -41.15 69.0 -40.55 M-107.5 -183.9 L-108.5 -184.5 -108.0 -184.75 -107.95 -184.7 -107.5 -183.9 M-104.05 -177.75 L-104.35 -177.5 -104.35 -178.3 -104.05 -177.75" fill="#ffffff" fill-rule="evenodd" stroke="none"/>
    <path d="M-106.1 -186.85 L-106.15 -186.85 -105.75 -187.1 -106.1 -186.85" fill="#454c27" fill-rule="evenodd" stroke="none"/>
    <path d="M58.05 -2.45 L59.1 -2.05 Q58.6 9.5 58.75 21.0 58.9 36.45 64.65 50.55 68.05 58.95 72.0 67.15 81.85 87.7 93.0 107.5 97.7 115.85 103.3 123.55 107.25 129.0 111.85 133.7 L117.75 139.5 Q122.9 144.3 126.6 150.5 L127.8 152.5 Q125.15 151.65 123.15 149.5 L88.8 112.85 Q82.1 105.75 76.05 98.05 69.2 89.35 63.25 80.2 58.2 72.4 56.4 63.4 54.65 54.7 54.85 45.7 55.05 36.2 55.4 26.65 55.75 18.35 56.65 10.15 L58.05 -2.45" fill="url(#gradient1)" fill-rule="evenodd" stroke="none"/>
    <path d="M-110.9 -102.2 Q-107.25 -103.4 -103.1 -102.05 -92.75 -98.95 -84.3 -92.2 L-80.85 -88.5 Q-62.75 -68.6 -69.15 -41.65 L-69.25 -41.1 -69.65 -39.75 Q-70.8 -35.95 -72.65 -32.7 L-72.65 -33.15 -72.85 -32.9 -73.3 -32.45 -73.25 -32.25 -73.45 -32.4 -73.5 -32.4 Q-74.0 -32.5 -74.15 -32.9 L-77.5 -35.2 -78.65 -36.1 Q-82.95 -39.2 -89.5 -42.1 -106.15 -49.55 -124.8 -50.65 L-121.25 -50.55 -132.5 -51.7 -133.85 -51.4 -135.9 -52.1 -136.0 -53.9 Q-122.35 -68.85 -115.25 -87.85 -112.75 -94.45 -111.0 -101.05 L-110.9 -102.2" fill="url(#gradient2)" fill-rule="evenodd" stroke="none"/>
    <path d="M-65.75 -35.15 L-64.25 -34.5 -64.45 -34.5 Q-65.15 -34.55 -65.7 -35.05 L-65.75 -35.15 M-55.5 -31.65 Q-56.05 -31.65 -57.75 -32.35 L-59.35 -32.95 -55.1 -31.7 -55.5 -31.65" fill="#1f2211" fill-rule="evenodd" stroke="none"/>
    <path d="M-188.75 -164.75 Q-187.45 -163.8 -184.65 -160.4 -184.2 -159.85 -182.25 -158.35 L-179.65 -156.1 Q-178.9 -155.1 -177.05 -153.95 L-173.5 -151.85 -171.2 -149.8 -169.35 -147.5 Q-167.85 -145.85 -163.95 -143.05 L-158.65 -138.9 Q-155.85 -136.2 -153.55 -134.5 -150.15 -132.0 -146.4 -130.5 L-138.75 -127.65 Q-133.5 -125.65 -131.1 -124.1 -125.35 -120.3 -122.55 -115.65 -120.0 -111.45 -120.0 -106.85 -120.0 -103.4 -121.0 -99.8 L-122.0 -95.75 -121.35 -91.8 Q-120.75 -87.6 -120.75 -85.0 L-120.95 -80.6 Q-121.05 -79.4 -121.9 -78.5 L-122.3 -77.45 -122.45 -76.45 -121.75 -73.85 -121.75 -72.9 -122.2 -72.9 Q-122.2 -74.1 -123.05 -76.7 L-123.95 -79.45 Q-123.2 -82.0 -123.2 -82.25 L-123.2 -85.1 -123.7 -90.5 Q-123.8 -92.15 -124.15 -93.45 L-124.45 -95.85 Q-124.45 -97.55 -123.45 -101.1 -122.45 -104.65 -122.45 -106.85 -122.45 -110.8 -125.6 -115.45 -129.25 -120.75 -134.9 -123.35 L-141.6 -125.95 -142.2 -126.15 Q-144.35 -126.85 -146.4 -127.8 -149.5 -129.0 -150.45 -129.5 -152.55 -130.6 -155.65 -133.15 L-160.45 -137.35 -165.85 -141.6 -170.95 -145.75 Q-171.8 -146.65 -176.1 -149.55 -179.95 -152.15 -180.95 -153.65 L-183.1 -155.7 -185.65 -157.75 -189.6 -161.9 -192.6 -163.75 -195.6 -165.65 -198.05 -167.65 Q-199.9 -169.15 -199.9 -169.8 -199.9 -171.55 -197.65 -170.55 -195.75 -169.7 -194.7 -168.4 -194.15 -167.4 -192.15 -166.5 L-188.75 -164.75" fill="url(#gradient3)" fill-rule="evenodd" stroke="none"/>
  </g>
  <defs>
    <linearGradient gradientTransform="matrix(0.0224, 0.1591, -0.1975, 0.0278, 60.6, -73.3)" gradientUnits="userSpaceOnUse" id="gradient0" spreadMethod="pad" x1="-819.2" x2="819.2">
      <stop offset="0.0" stop-color="#f79400"/>
      <stop offset="1.0" stop-color="#39603d"/>
    </linearGradient>
    <linearGradient gradientTransform="matrix(0.0446, 0.0, 0.0, 0.0946, 91.3, 75.0)" gradientUnits="userSpaceOnUse" id="gradient1" spreadMethod="pad" x1="-819.2" x2="819.2">
      <stop offset="0.0" stop-color="#454c27"/>
      <stop offset="1.0" stop-color="#000000"/>
    </linearGradient>
    <linearGradient gradientTransform="matrix(0.0166, 0.0307, -0.0353, 0.019, -94.55, -46.0)" gradientUnits="userSpaceOnUse" id="gradient2" spreadMethod="pad" x1="-819.2" x2="819.2">
      <stop offset="0.0" stop-color="#000000"/>
      <stop offset="1.0" stop-color="#5b6434"/>
    </linearGradient>
    <linearGradient gradientTransform="matrix(-0.0346, -0.0333, 0.0388, -0.0403, -173.75, -144.55)" gradientUnits="userSpaceOnUse" id="gradient3" spreadMethod="pad" x1="-819.2" x2="819.2">
      <stop offset="0.0" stop-color="#1f2211"/>
      <stop offset="1.0" stop-color="#000000"/>
    </linearGradient>
  </defs>
</svg>
