<?xml version="1.0" encoding="UTF-8" standalone="no"?>
<svg xmlns:xlink="http://www.w3.org/1999/xlink" height="192.9px" width="238.0px" xmlns="http://www.w3.org/2000/svg">
  <g transform="matrix(1.0, 0.0, 0.0, 1.0, 0.0, 0.0)">
    <path d="M78.3 12.45 L77.4 12.15 73.85 11.5 73.15 11.3 71.05 10.7 70.45 10.55 Q68.6 9.75 66.2 9.15 L49.25 6.25 43.4 5.25 38.1 4.35 34.4 3.6 27.45 3.05 19.05 2.65 16.85 2.4 6.95 1.85 5.9 1.55 3.5 1.3 2.4 1.0 0.8 0.9 Q0.0 0.8 0.0 0.45 0.0 -0.3 3.4 0.15 L12.4 0.95 15.25 0.75 20.1 0.5 29.2 0.85 33.8 1.3 37.2 1.45 37.2 1.35 59.65 3.55 81.6 5.75 96.0 4.85 110.4 3.95 Q114.2 3.95 128.8 9.55 131.65 10.6 133.3 13.4 134.25 14.95 135.2 17.35 136.65 19.85 136.95 24.8 L137.0 32.35 Q137.0 46.0 131.0 60.95 L126.9 70.75 Q125.0 75.45 125.0 77.95 125.0 81.65 125.25 82.55 125.95 85.15 129.0 86.95 130.75 88.0 136.75 88.1 L147.0 88.15 158.25 89.0 Q159.3 89.2 161.8 90.75 166.65 93.8 170.75 98.7 L173.2 101.95 172.95 102.55 Q174.15 104.1 174.35 106.95 175.6 114.1 175.6 119.7 L175.45 127.7 175.25 128.3 177.2 126.75 184.5 121.7 Q192.4 116.3 198.3 117.85 200.1 118.35 201.25 119.15 L201.3 119.0 Q205.45 120.65 208.05 123.5 211.8 127.55 211.6 132.35 211.25 140.25 209.45 147.15 208.15 152.15 212.8 162.65 218.55 175.65 219.05 178.6 L219.15 178.95 219.15 179.0 219.25 179.05 224.9 183.95 227.85 186.45 231.1 188.9 234.95 190.7 Q237.5 191.95 238.0 192.55 238.1 192.95 237.6 192.9 L236.1 192.15 Q234.75 191.45 233.5 191.1 L232.85 190.6 231.85 190.25 230.85 189.85 230.0 189.55 225.0 187.0 222.6 185.25 220.25 183.65 Q218.55 182.7 217.6 181.75 L215.85 180.15 Q214.3 178.6 212.95 176.7 L211.55 174.35 209.75 171.9 Q207.3 168.4 204.95 163.65 201.95 157.7 201.4 150.25 201.25 147.85 201.65 143.65 L202.3 137.0 Q202.6 135.3 202.4 134.1 202.0 131.75 199.25 129.8 197.45 128.45 194.2 127.85 L192.95 129.1 188.25 134.15 Q187.0 135.6 183.35 138.3 179.45 141.15 178.5 142.15 177.35 143.35 174.15 145.75 L169.5 149.4 Q167.35 151.35 164.6 155.1 163.45 156.65 161.1 156.65 158.4 156.65 157.5 154.4 L157.1 152.05 Q157.1 151.45 158.2 149.7 L158.1 148.8 Q158.1 148.25 160.6 139.65 L163.6 128.95 Q165.1 121.7 165.1 118.9 L165.1 113.95 Q165.1 112.85 165.4 111.95 L164.55 108.8 Q163.9 106.45 163.0 105.55 L160.55 102.3 Q159.0 100.25 156.8 99.15 154.3 97.9 149.4 97.9 144.5 97.85 141.8 96.55 L137.2 96.95 131.6 97.55 Q126.25 97.55 121.45 93.4 117.4 89.95 117.2 87.75 116.6 81.75 116.6 77.55 116.6 71.45 122.6 56.4 128.6 41.35 128.6 33.15 L128.15 27.6 Q127.55 23.2 126.6 20.55 126.35 19.65 124.15 18.4 121.9 17.05 118.2 15.75 L109.6 15.15 103.4 14.55 100.6 14.3 99.75 14.1 97.65 14.2 95.45 13.75 86.35 13.55 85.75 13.35 84.5 13.15 82.55 12.9 80.4 12.7 78.3 12.45" fill="#ffcc00" fill-rule="evenodd" stroke="none"/>
  </g>
</svg>
