<?xml version="1.0" encoding="UTF-8" standalone="no"?>
<svg xmlns:xlink="http://www.w3.org/1999/xlink" height="382.25px" width="379.0px" xmlns="http://www.w3.org/2000/svg">
  <g transform="matrix(1.0, 0.0, 0.0, 1.0, 114.8, 195.05)">
    <path d="M56.4 -58.6 Q65.4 -58.6 72.4 -47.9 L77.15 -40.55 Q79.7 -37.2 82.2 -37.2 91.75 -37.2 96.5 -39.4 L99.8 -42.0 Q101.15 -43.05 102.65 -43.8 104.4 -44.7 108.2 -46.2 L105.7 -54.9 Q103.9 -60.6 101.2 -63.6 96.15 -69.25 78.6 -73.2 64.3 -76.4 54.6 -76.4 L6.4 -74.6 2.35 -74.0 -2.4 -73.4 Q-13.6 -73.4 -20.6 -77.85 L-27.1 -82.15 Q-31.55 -84.8 -37.0 -86.6 -42.5 -88.4 -51.5 -93.55 -60.25 -98.55 -62.2 -100.8 -68.55 -108.25 -72.35 -115.4 -76.85 -123.8 -77.2 -130.8 -78.1 -145.5 -84.15 -155.45 -88.55 -162.6 -96.95 -168.85 L-109.3 -178.05 Q-114.8 -183.25 -114.8 -190.0 -114.8 -197.45 -108.4 -193.95 -104.95 -192.05 -99.0 -186.8 L-92.35 -179.65 -84.8 -171.8 Q-72.6 -158.4 -69.2 -141.2 -66.75 -128.75 -66.0 -126.4 -63.4 -118.1 -57.2 -110.6 -53.25 -105.8 -44.2 -100.85 -37.85 -97.3 -33.4 -95.8 -29.9 -94.6 -20.2 -88.5 -10.25 -83.0 -2.0 -83.0 L4.65 -83.55 22.2 -84.6 34.05 -85.2 46.0 -85.8 Q77.4 -85.8 95.95 -77.6 109.1 -71.75 111.8 -64.6 L116.8 -52.65 Q119.8 -45.0 119.8 -40.6 L119.65 -36.4 Q118.75 -33.4 114.8 -33.4 113.45 -33.4 111.65 -34.7 109.9 -36.0 109.2 -36.0 L101.3 -31.9 93.2 -27.8 81.6 -27.8 Q77.95 -27.95 76.35 -28.75 75.05 -29.4 72.85 -31.85 L66.6 -38.4 62.9 -44.0 Q59.2 -49.2 57.8 -49.2 53.15 -49.2 52.05 -46.8 L51.8 -44.2 Q51.8 -42.5 53.85 -38.45 55.95 -34.3 58.0 -32.2 60.8 -29.25 65.95 -26.0 L72.2 -22.0 78.0 -16.4 83.6 -10.6 Q86.0 -8.2 90.9 -6.0 99.35 -2.2 110.0 -2.2 L115.0 -3.2 120.0 -4.2 Q122.6 -4.2 128.25 -2.4 134.4 -0.4 136.0 -0.2 L144.35 1.5 153.4 3.6 Q158.3 4.95 160.8 8.8 162.0 10.7 163.0 14.4 L165.35 22.3 Q161.6 25.6 158.25 29.3 L157.0 24.2 Q156.0 20.3 154.6 17.4 152.85 13.75 151.0 13.0 147.75 11.65 133.9 8.5 L120.4 5.6 Q119.4 5.6 117.8 6.5 116.2 7.4 115.2 7.4 95.9 7.4 85.2 2.5 81.45 0.8 76.8 -3.6 L70.6 -9.45 Q66.15 -13.4 60.4 -17.4 49.05 -25.3 45.6 -30.95 42.6 -35.8 42.6 -44.4 42.6 -49.65 43.8 -52.2 46.8 -58.6 56.4 -58.6 M160.55 43.45 Q158.95 45.0 157.4 47.3 L153.4 53.0 153.35 52.9 152.25 46.3 Q155.6 42.6 159.35 39.3 L160.35 42.7 160.55 43.45 M162.7 54.4 L163.85 64.7 165.0 76.4 Q165.1 79.85 165.7 81.95 166.75 85.65 169.4 87.8 L174.35 93.8 Q178.05 98.4 179.4 98.4 L183.35 96.8 Q186.95 95.2 189.2 95.2 211.2 95.2 226.05 101.6 241.8 108.35 250.2 122.6 L260.1 138.75 Q264.2 146.5 264.2 154.4 264.2 157.9 263.7 159.3 263.25 160.55 260.2 165.8 257.9 169.75 258.55 171.7 259.8 175.55 259.8 176.6 L259.5 181.1 Q259.2 184.8 259.2 186.8 L258.8 187.2 258.35 182.9 258.0 178.4 Q255.8 171.7 255.8 170.3 255.8 169.3 256.7 166.1 L257.6 161.9 Q257.6 161.15 256.55 159.3 255.4 157.25 255.0 153.8 254.7 151.15 252.8 146.6 250.4 141.0 244.0 131.6 240.35 124.2 232.55 117.95 217.3 105.6 192.7 105.6 186.75 105.6 185.0 107.4 183.25 109.2 181.2 109.2 174.4 109.2 165.55 99.85 157.9 91.75 156.6 86.8 155.5 82.8 155.25 75.75 L154.65 64.25 Q155.95 63.3 157.2 61.3 160.4 56.2 162.55 54.5 L162.7 54.4" fill="#000000" fill-opacity="0.15294118" fill-rule="evenodd" stroke="none"/>
  </g>
</svg>
