<?xml version="1.0" encoding="UTF-8" standalone="no"?>
<svg xmlns:xlink="http://www.w3.org/1999/xlink" height="410.1px" width="761.0px" xmlns="http://www.w3.org/2000/svg">
  <g transform="matrix(1.0, 0.0, 0.0, 1.0, 52.0, 37.05)">
    <path d="M709.0 -37.05 L709.0 373.05 -52.0 373.05 -52.0 -37.05 709.0 -37.05 M556.4 55.2 L556.1 54.9 555.9 54.7 555.6 54.4 Q513.15 11.95 453.05 11.95 L443.05 12.25 Q389.35 15.55 350.45 54.4 346.55 58.3 343.05 62.35 339.5 58.3 335.6 54.4 L333.05 51.9 Q291.35 11.95 233.05 11.95 L218.05 12.65 Q167.55 17.35 130.45 54.4 88.0 96.9 88.0 157.0 88.0 217.1 130.45 259.55 167.55 296.65 218.05 301.4 L233.05 302.05 Q291.35 302.05 333.05 262.1 L335.6 259.55 343.05 251.65 350.45 259.55 Q389.35 298.45 443.05 301.75 L453.05 302.05 Q513.15 302.05 555.6 259.55 565.75 249.4 573.5 238.3 L578.05 231.25 Q587.1 216.35 592.1 199.8 597.55 181.6 598.1 161.4 L598.1 161.0 598.1 160.6 598.1 160.15 598.1 159.75 598.1 157.9 598.1 157.45 598.1 157.0 Q598.1 115.7 578.05 82.75 569.25 68.3 556.65 55.45 L556.4 55.2" fill="#000000" fill-rule="evenodd" stroke="none"/>
  </g>
</svg>
