<?xml version="1.0" encoding="UTF-8" standalone="no"?>
<svg xmlns:xlink="http://www.w3.org/1999/xlink" height="341.7px" width="586.1px" xmlns="http://www.w3.org/2000/svg">
  <g transform="matrix(1.0, 0.0, 0.0, 1.0, 0.0, 0.0)">
    <path d="M416.3 287.9 Q418.75 292.5 418.75 295.6 418.75 298.05 415.5 303.5 L415.0 304.3 418.6 304.65 Q419.45 304.9 419.6 305.65 419.85 306.55 421.0 307.25 417.25 312.5 414.5 312.5 374.95 312.5 370.15 311.75 L366.2 310.45 Q363.2 309.3 356.85 308.25 L341.25 305.85 313.35 304.5 299.0 300.5 Q282.85 296.5 268.0 296.5 L257.0 297.1 226.5 298.75 156.35 301.25 Q146.05 302.0 134.95 303.95 L105.0 305.0 74.45 303.9 46.45 302.95 40.25 307.85 36.0 310.75 Q32.7 310.75 32.05 309.35 L32.0 307.6 Q32.0 305.9 35.25 302.35 L35.7 301.9 35.5 300.1 Q35.5 297.45 39.4 296.7 L40.35 294.05 Q41.3 291.25 42.5 289.35 49.9 277.15 57.5 272.1 64.45 266.35 68.4 263.45 75.5 258.25 86.0 255.85 100.2 254.95 102.95 256.65 L105.05 257.95 111.0 258.6 Q116.45 258.45 118.3 261.3 L118.9 262.65 130.0 263.6 148.3 261.85 166.1 259.6 Q180.4 256.95 196.15 256.55 L222.25 256.1 Q235.8 255.2 252.05 256.7 L269.25 258.6 Q283.1 258.6 287.55 258.8 L289.1 258.9 290.65 258.3 Q300.25 254.95 308.0 260.1 308.7 260.25 323.65 266.35 337.3 271.9 344.35 272.85 L384.25 276.6 Q403.3 278.0 409.75 280.85 413.5 282.55 416.3 287.9" fill="#000000" fill-rule="evenodd" stroke="none"/>
    <path d="M382.2 10.15 L383.55 11.75 Q384.85 13.8 383.25 15.95 L381.9 17.15 Q380.3 18.05 378.3 18.35 378.3 22.2 378.9 26.15 379.6 30.75 379.85 35.5 L380.4 42.2 Q381.3 49.4 381.1 56.6 380.65 71.05 382.2 85.45 L383.0 95.7 383.75 111.45 384.2 118.45 384.45 122.0 384.7 126.1 385.5 138.55 386.0 146.9 386.1 151.3 386.05 158.35 Q386.05 159.45 384.95 159.95 383.8 160.5 382.6 160.7 380.55 160.6 378.9 161.7 L377.95 162.45 Q376.95 163.2 375.75 163.2 377.45 179.1 375.05 194.7 374.3 199.45 374.75 204.25 375.0 207.3 374.65 210.35 377.45 211.05 379.95 212.6 381.45 213.5 383.05 214.15 387.55 215.65 391.1 218.65 L392.4 219.5 Q395.95 221.6 398.95 224.6 403.7 229.25 408.25 234.2 L415.95 242.55 Q416.75 243.4 417.75 244.1 L422.3 247.7 423.35 248.5 424.95 249.4 Q426.25 249.95 427.45 251.05 L428.45 251.95 Q432.5 252.45 436.1 250.65 437.9 249.8 439.85 249.75 L455.6 249.25 463.55 248.05 Q468.85 247.2 473.7 249.15 479.7 251.7 486.05 253.25 L491.55 254.4 Q494.2 254.9 496.5 256.0 L498.75 257.05 500.45 258.0 502.65 259.55 504.25 260.85 Q505.1 261.4 506.05 261.75 L508.9 262.7 511.35 263.65 513.75 264.35 Q516.6 265.25 517.75 267.9 L518.05 269.5 518.2 271.3 518.4 271.25 518.1 271.85 Q523.4 274.35 528.0 277.6 L536.35 283.2 Q542.8 287.35 549.05 291.85 L553.1 294.7 Q557.5 297.65 561.65 300.75 L564.9 303.5 Q565.7 304.2 566.75 304.75 L568.1 305.6 570.1 307.35 570.75 308.0 576.75 312.85 582.55 317.8 585.9 320.95 586.1 321.15 580.25 334.95 Q579.2 335.7 577.5 335.8 L560.85 337.15 542.95 337.75 538.65 337.9 537.75 338.75 536.45 338.0 536.4 337.2 515.3 322.45 Q512.0 323.5 508.4 323.4 506.5 328.35 502.0 331.5 L501.5 331.85 Q495.8 331.95 490.65 329.35 489.8 334.3 485.7 337.5 L483.55 339.4 Q480.85 341.9 477.15 341.7 474.5 341.2 472.4 339.6 469.2 337.25 466.8 334.1 466.75 337.4 463.95 338.95 L462.55 339.45 Q458.2 339.75 454.35 338.25 452.55 339.0 450.45 337.95 L441.55 333.75 436.9 331.65 Q429.7 328.7 424.2 322.9 L422.6 321.55 420.0 319.3 Q416.7 315.6 412.7 312.55 L410.1 310.45 Q408.75 309.3 407.1 308.45 L405.65 307.4 Q404.05 305.85 402.05 304.75 L399.25 303.4 396.75 302.45 392.15 301.4 385.15 300.0 376.6 298.35 362.55 295.6 350.3 292.85 334.4 288.65 Q327.0 286.65 319.75 283.95 313.1 281.6 306.9 277.95 296.0 271.35 286.35 263.0 284.6 261.55 283.35 259.7 280.5 255.3 280.05 250.2 L279.8 246.5 Q279.75 242.9 279.3 239.45 L277.75 227.65 Q276.95 221.6 276.65 215.35 L276.2 206.5 275.0 189.95 Q274.3 182.0 274.3 174.2 L274.4 170.55 275.0 162.35 Q275.1 160.95 275.5 159.65 L272.35 157.4 Q273.25 147.35 272.7 137.2 272.55 134.6 272.0 131.95 268.0 137.95 262.85 143.15 L260.2 145.7 Q254.1 151.2 248.55 157.2 240.85 165.6 232.5 173.1 L220.25 184.3 215.45 188.75 210.85 192.45 207.7 194.85 205.65 196.4 201.95 199.15 Q196.5 203.1 190.6 206.0 L189.55 206.55 186.45 208.3 175.15 214.4 168.7 217.25 166.15 218.2 Q162.75 219.5 159.35 221.05 157.55 221.85 156.05 223.25 L148.9 229.1 149.65 229.05 Q144.95 232.0 140.75 235.7 L137.85 238.15 Q126.95 245.95 116.4 253.9 112.3 256.95 108.65 260.15 L101.4 266.35 Q99.1 268.25 97.15 270.3 95.55 272.05 93.45 273.05 L92.2 273.55 90.7 273.9 86.25 275.65 Q81.9 277.75 77.3 279.2 L72.4 280.7 60.0 284.5 46.05 288.75 Q46.7 294.0 45.85 299.2 L45.3 300.65 Q44.8 301.45 43.9 301.55 40.95 301.95 39.7 299.05 38.1 295.2 37.55 291.05 L33.0 292.15 37.35 290.55 Q36.4 282.4 36.1 274.15 L34.75 247.3 33.4 234.25 31.6 219.95 29.5 219.4 31.55 219.35 Q30.1 206.25 31.85 193.25 L33.05 185.35 Q34.4 176.95 33.6 168.4 L32.8 158.2 31.9 145.3 Q26.45 141.5 21.1 137.5 19.6 136.4 18.1 135.5 12.1 131.9 7.3 126.9 L2.85 122.95 Q0.9 121.45 0.0 119.4 4.65 121.75 8.3 125.55 L10.2 127.3 Q17.6 133.6 25.95 138.95 L28.05 140.45 31.8 143.3 28.7 96.1 20.4 87.65 Q19.1 86.2 18.6 84.15 L28.55 93.6 Q26.4 61.55 25.15 29.45 L24.8 22.5 Q24.5 18.25 25.9 14.4 26.8 11.85 29.3 11.1 32.2 10.05 34.75 11.65 37.1 13.0 38.25 15.5 40.3 20.05 40.25 24.9 L40.15 31.95 Q40.1 36.25 42.1 39.9 44.3 37.9 44.5 34.85 45.0 28.1 44.5 21.35 L44.2 13.85 44.35 9.75 Q44.5 8.55 45.65 7.75 46.7 7.05 47.9 6.95 51.55 6.75 54.6 8.75 L56.8 9.8 Q63.1 11.95 69.9 12.3 L85.85 13.1 103.7 13.35 122.45 13.4 131.2 13.35 144.5 13.2 166.9 12.45 177.6 11.8 192.15 10.0 201.55 7.95 205.7 7.25 210.3 6.55 Q225.75 3.9 241.25 2.05 L253.15 0.65 259.45 0.0 Q266.95 0.85 273.8 4.1 L283.5 8.9 Q286.6 10.35 289.9 11.4 292.95 12.45 296.1 12.4 L308.35 12.05 326.5 10.6 341.6 8.9 359.0 7.1 365.2 6.65 Q367.65 8.4 370.5 9.2 L372.55 9.45 375.5 9.1 Q377.95 8.65 380.3 9.1 381.35 9.4 382.2 10.15 M350.7 129.2 L350.4 130.15 Q349.75 129.6 349.85 128.5 350.2 123.95 351.65 119.55 354.05 112.2 356.95 104.75 L361.65 92.3 364.45 83.6 Q366.8 75.85 368.6 68.05 L370.85 56.4 371.55 49.65 371.95 42.75 Q372.35 35.95 372.2 29.2 L372.25 27.2 372.75 18.65 Q368.55 17.9 365.3 15.4 364.3 14.65 363.1 14.7 L350.9 15.85 339.0 17.25 328.95 18.45 314.25 19.95 311.85 20.1 Q310.3 24.7 307.5 28.55 303.4 34.15 300.45 40.6 L300.4 40.6 300.35 40.75 300.25 40.85 300.15 41.05 300.05 41.25 299.95 41.45 295.75 50.0 293.7 53.95 285.9 68.1 284.15 71.3 281.75 75.85 279.4 80.25 276.7 85.4 273.25 92.15 Q270.7 97.1 267.75 101.85 L266.75 103.6 262.6 110.65 Q258.3 117.6 253.65 124.25 L253.6 124.25 252.4 125.9 251.8 126.7 249.7 129.45 251.45 126.85 252.3 125.55 256.75 117.5 257.05 116.9 257.1 116.85 257.2 116.6 259.3 112.5 Q260.3 110.55 261.5 108.7 265.05 103.1 267.85 97.1 L274.3 82.25 279.6 68.8 282.7 60.85 283.5 58.35 Q283.9 56.7 284.5 55.3 L286.7 49.65 Q290.7 38.15 292.95 25.95 L293.85 19.7 Q287.4 18.85 281.45 15.9 275.35 12.9 268.8 10.85 263.65 9.3 258.25 9.05 249.75 8.7 241.25 9.4 230.3 10.25 219.15 12.8 L211.1 14.35 196.25 17.0 181.25 18.9 169.0 19.95 156.1 20.75 142.35 21.2 Q144.9 25.75 149.05 29.15 152.05 31.55 155.8 33.0 161.4 35.05 167.45 36.0 168.85 36.15 169.7 37.05 170.2 38.8 168.45 40.0 L164.7 42.55 162.6 43.6 Q157.05 45.8 151.4 47.15 L141.0 50.05 Q135.4 51.6 130.05 53.4 L126.0 54.65 121.5 55.7 118.2 56.55 111.65 57.75 105.45 58.75 Q99.45 59.9 93.25 59.9 80.6 59.85 69.9 53.2 66.3 50.85 63.3 48.0 L60.55 45.85 Q57.95 44.05 55.85 41.8 L54.55 40.7 Q52.85 39.55 51.6 38.2 49.9 42.1 47.65 45.55 46.75 46.9 45.5 47.85 41.6 48.2 38.2 46.35 35.05 44.6 34.4 41.3 L34.1 39.9 33.95 56.4 34.05 58.6 36.7 93.2 37.35 102.55 45.45 109.95 54.35 117.0 63.85 124.1 Q76.85 134.25 91.5 141.5 L99.1 145.25 Q103.35 147.3 107.7 148.7 112.2 150.2 116.85 151.35 L120.0 152.2 124.3 153.1 128.05 153.85 129.4 154.3 126.45 155.8 111.9 154.9 111.05 154.8 105.2 153.85 104.9 153.8 92.9 151.35 91.4 151.0 89.95 150.6 89.85 150.6 89.55 150.45 76.4 146.05 72.3 144.65 66.4 142.7 60.95 140.95 55.1 139.15 51.1 137.8 48.55 136.8 Q43.8 134.95 39.45 132.8 L40.35 146.15 40.45 147.55 Q48.45 151.55 56.85 154.55 L65.05 157.25 73.5 159.7 76.05 160.5 Q80.45 162.4 85.05 163.5 L79.05 163.35 78.6 163.35 71.2 163.15 Q59.75 162.2 48.3 162.75 L46.1 163.15 41.9 163.1 41.35 163.05 41.85 163.35 60.95 167.55 61.1 167.6 67.35 168.9 82.95 171.9 90.8 173.6 93.25 174.2 100.15 175.8 106.0 176.65 113.6 177.2 122.95 177.6 163.35 176.25 173.15 175.7 182.45 175.25 190.45 174.9 198.35 174.2 202.7 173.75 204.3 173.6 205.15 173.6 206.1 174.15 Q201.35 175.85 196.3 176.65 L196.15 176.7 195.65 176.85 194.2 177.25 187.65 178.6 Q174.25 181.1 160.55 182.35 L148.05 183.6 138.65 184.3 118.1 184.9 105.75 185.15 102.15 185.45 98.0 185.8 85.45 186.95 Q64.3 188.15 43.15 187.25 L41.15 187.15 Q40.05 192.3 39.5 197.45 L39.45 197.45 39.15 201.2 Q38.5 210.05 39.55 219.05 L90.75 216.2 Q106.15 215.0 121.05 212.55 L134.45 209.8 138.8 208.8 149.15 206.65 155.75 205.2 158.95 204.3 162.45 203.1 169.4 200.2 178.7 196.05 186.6 192.8 195.0 189.3 200.85 186.8 Q203.7 185.45 206.65 184.4 L208.85 183.4 209.75 183.4 209.1 183.7 209.05 184.15 196.95 194.45 187.45 202.15 184.4 204.55 Q179.75 207.95 174.7 210.65 L173.95 211.2 168.8 214.5 166.8 215.9 Q186.0 207.9 202.9 195.85 213.2 188.45 222.4 179.6 L232.95 170.0 236.15 167.2 Q238.9 164.75 241.45 161.95 L247.5 155.45 249.3 153.7 252.15 151.0 255.95 147.25 262.1 141.15 Q264.9 138.5 267.05 135.65 L267.65 135.55 273.45 126.1 273.6 126.6 Q277.4 121.4 282.25 116.85 L285.9 113.25 Q292.9 105.75 299.35 97.85 L303.0 93.15 Q312.7 79.85 320.9 65.35 L325.85 55.9 330.2 45.95 Q331.3 43.25 332.55 40.7 333.05 39.6 333.8 38.6 335.5 36.45 336.5 34.0 L338.05 29.95 Q338.6 28.4 339.3 26.95 338.4 33.65 337.0 40.2 L336.45 43.05 335.25 49.55 335.0 50.8 334.05 55.35 331.3 65.3 Q334.65 61.45 337.55 57.2 L341.2 51.2 Q343.0 47.95 345.1 44.8 L349.5 38.4 351.4 35.75 Q352.85 33.7 353.7 31.35 L355.5 26.15 356.1 26.5 Q355.7 33.0 353.65 39.6 L353.4 40.5 352.65 43.4 Q351.65 47.9 349.75 52.25 L348.0 56.85 344.8 65.6 343.9 67.8 Q347.85 63.5 351.05 58.6 L352.75 56.05 Q354.85 53.25 356.35 50.05 L356.65 49.35 357.45 47.25 Q358.35 49.55 358.0 52.15 L357.45 55.75 Q356.5 61.35 354.25 66.6 L352.6 69.7 349.75 74.05 343.4 83.35 337.4 91.35 Q333.15 91.6 329.7 93.65 L328.05 94.4 Q322.65 96.15 318.1 99.45 316.35 100.7 314.7 102.15 L314.55 102.3 314.05 102.8 313.7 103.1 Q309.4 107.15 306.7 112.55 304.6 116.8 303.7 121.55 302.85 126.2 302.75 130.8 302.6 135.7 302.75 140.7 L302.65 146.85 302.3 151.8 302.15 153.1 302.7 153.15 305.4 153.25 306.6 153.3 309.05 153.4 327.2 153.7 Q338.3 153.7 349.2 151.45 L364.75 148.8 375.05 147.2 378.1 146.6 382.0 145.85 383.15 145.45 379.75 91.05 Q379.2 81.9 379.1 72.7 L379.05 68.75 379.05 67.4 378.2 48.3 378.0 45.2 377.9 43.75 376.45 52.9 376.3 53.75 375.75 56.05 372.85 66.7 369.7 77.65 366.65 86.05 362.2 96.3 360.55 100.15 358.85 104.4 358.65 104.95 358.5 105.35 Q356.8 109.7 355.2 114.2 353.65 118.55 352.4 123.0 L350.7 129.2 M369.7 163.0 L353.75 165.45 347.65 166.45 342.95 167.25 333.45 168.55 Q324.45 170.0 315.3 169.55 L313.9 169.5 311.55 169.3 309.05 168.95 305.55 168.05 304.3 168.1 303.85 169.0 Q303.4 169.25 303.3 169.8 303.15 170.85 303.35 171.95 L304.4 177.2 305.7 184.2 Q306.55 188.9 307.9 193.4 L312.05 206.85 Q312.95 209.65 312.95 212.7 L312.7 220.45 Q312.1 228.5 313.1 236.35 L314.25 244.05 314.65 246.55 314.7 246.65 314.75 246.9 314.75 247.1 314.8 247.4 314.95 248.15 315.8 252.5 Q317.9 249.4 320.45 246.65 321.85 245.1 323.4 243.7 L324.5 242.65 Q326.85 240.55 329.4 238.75 L334.25 235.75 Q336.8 234.4 339.5 233.25 346.0 230.75 352.8 228.6 356.2 227.55 359.75 227.3 L366.8 226.65 366.85 226.65 368.15 226.6 368.3 226.6 Q376.5 226.35 384.4 228.45 L391.4 230.4 394.45 231.35 Q397.8 232.4 400.9 234.2 L408.35 238.5 Q400.7 230.7 392.8 223.25 L389.35 220.5 385.5 218.15 Q383.4 217.05 381.3 216.1 L375.3 213.2 374.85 213.45 Q369.1 210.65 362.5 209.65 L355.45 208.85 Q350.55 208.95 345.8 210.35 339.7 212.05 334.4 215.3 L327.8 219.1 Q325.95 220.15 323.75 220.4 L321.6 220.2 Q323.6 218.1 325.9 216.45 329.7 213.7 333.95 211.6 336.15 210.55 338.45 209.75 L339.3 209.7 339.8 210.05 Q346.95 206.9 354.65 207.0 L361.95 207.75 369.3 208.75 372.15 209.25 Q372.05 203.5 372.5 197.5 L373.7 183.5 Q374.65 173.65 373.75 163.55 L372.85 163.5 372.85 162.5 369.7 163.0 M311.95 166.6 L320.85 166.9 325.3 167.0 328.85 166.75 337.7 165.35 Q342.3 165.1 346.75 163.9 L351.25 162.75 370.3 160.4 374.85 160.1 Q377.75 158.75 380.85 158.35 382.65 158.0 383.3 156.35 L383.2 148.1 Q375.1 150.15 366.9 151.15 357.7 152.05 348.8 154.05 343.3 155.2 337.7 155.75 L327.2 155.85 311.55 155.65 308.5 155.6 307.75 155.6 306.8 155.6 306.55 155.6 303.15 155.55 Q302.05 154.85 300.5 155.3 L297.7 154.85 Q295.45 154.45 294.9 155.2 294.5 155.85 294.3 158.4 L294.3 158.6 294.25 159.25 294.2 159.85 294.15 161.1 294.3 162.15 Q294.5 162.9 294.9 163.25 L295.25 163.45 299.8 164.5 303.8 165.1 303.9 165.35 309.2 166.05 311.95 166.6 M470.6 250.9 L467.0 250.0 463.1 250.45 Q455.15 252.25 447.1 252.05 441.4 251.4 436.0 253.3 449.25 253.8 462.55 253.45 469.3 253.25 475.65 255.95 482.45 258.75 489.7 261.0 492.6 261.9 495.0 263.4 496.95 264.65 499.3 265.55 L503.1 266.8 502.35 269.65 Q505.5 271.55 509.2 271.25 511.05 271.0 512.0 269.15 L515.6 270.8 515.7 269.5 Q515.65 267.7 513.9 266.95 L512.1 266.3 Q508.95 265.0 505.4 265.1 L504.15 263.95 502.35 262.45 Q499.6 260.25 496.75 258.6 494.2 257.15 491.15 256.6 486.0 256.1 480.95 254.45 475.8 252.95 471.15 250.7 L470.6 250.9 M458.1 295.75 Q455.4 298.0 454.2 301.35 456.6 304.55 459.65 307.05 L464.7 311.3 Q469.2 315.35 474.55 318.3 478.65 320.55 482.65 323.1 L484.65 324.3 486.25 325.2 486.55 325.35 489.0 326.5 489.15 326.55 490.9 327.25 490.1 324.85 489.8 323.75 489.6 322.85 487.95 317.65 487.15 315.55 485.45 311.75 Q483.4 307.55 479.75 304.55 L476.75 302.2 473.55 299.3 Q470.35 295.95 466.05 294.0 462.2 292.7 458.9 295.1 L458.1 295.75 M466.25 297.15 L467.2 298.4 Q467.85 299.45 467.85 302.6 466.4 307.3 464.15 307.3 L463.35 307.0 462.65 306.3 462.65 305.75 Q464.75 305.9 465.9 304.15 466.7 302.85 466.7 301.3 466.7 300.0 465.75 298.7 L464.15 296.5 463.4 295.25 Q464.05 294.6 465.35 296.0 L466.25 297.15 M331.6 215.25 Q330.9 215.35 331.5 215.35 L331.6 215.25 M488.4 329.8 L488.55 328.25 485.45 326.45 484.85 327.35 Q483.5 329.75 480.95 331.05 L476.7 330.45 Q474.55 329.95 472.7 328.85 465.35 324.85 459.1 319.55 L463.15 324.85 465.3 328.0 465.9 329.1 Q469.2 335.3 475.25 339.0 L479.4 339.2 Q484.1 336.95 487.15 332.55 488.05 331.3 488.4 329.8 M437.3 301.3 L435.85 302.7 Q437.4 308.45 440.2 313.5 L444.75 321.3 447.95 326.1 Q449.9 329.05 451.0 332.15 451.6 333.85 452.85 335.3 455.65 336.7 458.6 337.25 L458.65 337.3 459.0 337.35 459.1 337.35 463.05 336.75 Q460.05 335.95 457.9 333.8 L454.7 330.15 Q451.65 325.95 448.9 321.5 444.5 314.45 440.7 307.05 L439.5 306.75 440.45 306.35 439.3 299.4 437.3 301.3 M512.0 287.75 L510.45 286.65 509.5 286.0 509.45 286.0 509.3 285.9 508.5 285.35 Q506.15 283.65 504.3 281.55 499.0 284.05 493.1 283.95 L491.4 283.95 496.25 287.7 497.55 288.7 498.55 289.45 500.6 291.05 500.7 291.15 510.9 299.1 Q516.95 303.9 523.1 308.3 528.85 312.35 534.75 316.0 L541.0 320.1 542.75 321.25 544.9 322.4 546.45 322.95 Q563.95 323.25 581.1 320.65 L581.3 319.65 564.2 305.75 555.7 298.95 549.15 294.25 540.2 288.55 532.05 283.25 531.2 282.65 529.5 281.5 528.5 280.8 527.45 280.1 527.3 280.0 527.25 280.0 527.25 279.95 527.05 279.85 527.05 279.8 527.0 279.8 521.5 276.15 519.55 274.95 516.75 273.75 513.1 276.8 519.65 281.95 519.95 282.2 521.95 283.6 523.2 284.45 524.5 285.35 529.45 288.85 533.5 291.75 536.35 293.65 Q541.8 297.0 546.85 300.9 L553.2 305.95 557.3 309.25 Q558.2 310.0 559.3 310.55 560.9 311.3 562.45 312.35 L564.2 313.75 564.15 314.75 546.2 313.75 528.5 300.55 527.75 300.55 527.8 299.8 Q520.55 293.75 512.9 288.35 L512.0 287.75 M515.35 305.05 L515.35 305.0 514.3 304.25 498.75 292.35 497.7 291.55 497.4 291.3 497.15 291.1 496.2 290.4 493.7 288.5 489.5 285.25 489.0 291.5 490.35 292.65 491.45 293.65 492.35 294.6 493.05 295.6 493.6 296.75 491.65 299.75 487.05 296.2 486.0 298.35 489.8 301.6 Q492.85 304.3 496.05 306.75 L496.6 307.2 496.75 307.3 498.05 308.25 Q501.15 310.5 504.4 312.5 L510.25 316.25 513.85 318.7 514.7 319.25 515.0 319.45 515.0 319.5 515.2 319.65 515.5 319.85 515.85 320.05 516.75 320.65 517.5 321.15 517.65 321.25 517.8 321.35 524.7 326.15 528.25 328.7 537.0 335.1 538.6 331.35 540.15 327.9 540.95 326.45 542.8 323.7 538.6 321.0 529.75 315.25 523.05 310.75 522.55 310.4 521.9 309.95 521.15 309.4 519.8 308.4 516.45 305.85 515.75 305.3 515.35 305.05 M511.8 281.9 L510.7 281.0 Q509.8 280.35 509.4 280.65 L509.1 283.75 516.75 289.2 518.65 287.95 517.5 286.9 516.35 285.8 514.9 284.5 514.4 284.1 514.3 284.0 514.25 284.0 511.8 281.9 M547.7 312.65 L551.55 312.55 547.65 309.2 547.5 312.65 547.7 312.65 M529.05 298.7 L535.55 303.7 538.1 302.35 529.3 295.3 529.05 298.7 M520.15 315.45 Q520.85 314.9 521.85 315.15 525.05 316.05 527.45 318.05 529.4 319.65 531.75 320.6 533.45 321.4 534.8 323.15 534.8 324.7 533.5 325.7 L532.75 326.25 532.0 326.2 519.5 317.2 519.1 316.9 519.55 316.0 519.85 315.7 520.15 315.45 M544.9 324.35 L539.3 335.9 578.45 333.55 583.05 322.3 571.3 323.95 560.5 324.3 544.9 324.35 M546.1 332.9 Q545.0 332.3 545.0 331.8 545.0 330.25 546.45 328.4 547.85 326.5 547.85 328.45 547.85 329.4 547.2 330.75 L546.1 332.9 M509.55 306.75 Q511.4 306.95 511.4 309.15 L511.15 310.1 Q510.85 310.65 510.2 310.65 507.7 310.65 507.7 308.8 507.7 306.55 509.55 306.75 M502.25 301.55 Q502.65 301.9 502.65 302.45 502.65 302.85 502.25 303.45 501.8 304.2 501.25 304.2 L500.5 304.0 Q499.45 303.85 498.95 302.95 498.6 302.35 498.6 301.8 498.6 300.4 500.45 300.3 502.0 300.2 502.25 301.55 M504.35 315.5 Q502.6 314.0 500.9 312.75 L498.85 317.6 Q499.15 319.85 500.75 321.2 502.55 322.8 504.55 321.85 506.35 319.55 505.4 317.05 505.05 316.15 504.35 315.5 M577.55 326.45 L578.85 326.4 Q578.7 329.2 576.6 331.05 L576.0 330.55 577.55 326.45 M302.35 168.35 L302.45 168.05 302.25 168.05 302.35 168.35 M132.6 227.35 L129.15 227.9 119.0 228.25 87.75 228.75 Q89.85 230.05 92.25 230.15 L103.15 230.9 111.7 230.95 120.2 230.9 125.6 230.85 136.35 230.55 143.0 230.1 145.2 229.3 Q148.05 227.95 150.4 226.15 L155.9 221.45 132.6 227.35" fill="#000000" fill-rule="evenodd" stroke="none"/>
    <path d="M300.45 40.6 Q303.4 34.15 307.5 28.55 310.3 24.7 311.85 20.1 L314.25 19.95 328.95 18.45 339.0 17.25 350.9 15.85 363.1 14.7 Q364.3 14.65 365.3 15.4 368.55 17.9 372.75 18.65 L372.25 27.2 372.2 29.2 Q372.35 35.95 371.95 42.75 L371.55 49.65 370.85 56.4 368.6 68.05 Q366.8 75.85 364.45 83.6 L361.65 92.3 356.95 104.75 Q354.05 112.2 351.65 119.55 350.2 123.95 349.85 128.5 349.75 129.6 350.4 130.15 L350.7 129.2 351.75 129.2 357.75 117.7 Q362.5 108.2 362.5 106.8 L362.95 104.55 363.4 102.75 Q367.1 95.9 374.9 78.65 L379.05 68.75 379.1 72.7 Q379.2 81.9 379.75 91.05 L383.15 145.45 382.0 145.85 378.1 146.6 375.05 147.2 364.75 148.8 349.2 151.45 Q338.3 153.7 327.2 153.7 L309.05 153.4 Q309.5 150.6 309.5 145.7 309.5 130.55 309.95 128.15 L311.2 120.65 Q312.0 116.25 313.15 113.2 316.4 104.8 325.6 98.8 327.65 97.5 336.25 94.9 344.45 91.7 347.35 86.4 L351.35 78.95 Q353.6 74.75 354.6 71.75 L357.6 64.45 Q359.55 59.95 360.0 57.15 362.5 44.3 362.5 42.25 362.5 37.25 360.0 38.7 357.45 40.1 356.85 45.9 L356.75 47.2 356.35 50.05 Q354.85 53.25 352.75 56.05 357.1 44.15 357.1 42.3 357.1 39.55 354.6 40.0 353.95 40.1 353.4 40.5 L353.65 39.6 Q355.7 33.0 356.1 26.5 L355.5 26.15 353.7 31.35 Q352.85 33.7 351.4 35.75 L349.5 38.4 345.1 44.8 Q343.0 47.95 341.2 51.2 L337.55 57.2 337.75 56.5 Q340.6 47.0 340.6 44.65 340.6 42.2 338.85 41.4 337.65 40.8 336.65 42.1 L336.45 43.05 337.0 40.2 Q338.4 33.65 339.3 26.95 338.6 28.4 338.05 29.95 L336.5 34.0 Q335.5 36.45 333.8 38.6 333.05 39.6 332.55 40.7 331.3 43.25 330.2 45.95 L325.85 55.9 320.9 65.35 Q312.7 79.85 303.0 93.15 L299.35 97.85 Q292.9 105.75 285.9 113.25 L282.25 116.85 Q277.4 121.4 273.6 126.6 L273.45 126.1 267.65 135.55 267.05 135.65 Q264.9 138.5 262.1 141.15 L255.95 147.25 252.15 151.0 249.3 153.7 247.5 155.45 241.45 161.95 Q238.9 164.75 236.15 167.2 L232.95 170.0 222.4 179.6 Q213.2 188.45 202.9 195.85 186.0 207.9 166.8 215.9 L168.8 214.5 173.95 211.2 174.7 210.65 Q179.75 207.95 184.4 204.55 L187.45 202.15 196.95 194.45 209.05 184.15 209.1 183.7 209.75 183.4 208.85 183.4 206.65 184.4 Q203.7 185.45 200.85 186.8 L195.0 189.3 186.6 192.8 178.7 196.05 169.4 200.2 162.45 203.1 158.95 204.3 155.75 205.2 149.15 206.65 138.8 208.8 134.45 209.8 121.05 212.55 Q106.15 215.0 90.75 216.2 L39.55 219.05 Q38.5 210.05 39.15 201.2 L70.95 199.45 100.95 197.9 121.15 197.2 Q129.5 196.6 140.0 194.5 L151.1 192.05 Q167.65 188.45 176.5 185.7 188.9 181.9 194.75 177.8 L195.8 177.0 196.15 176.7 196.3 176.65 Q201.35 175.85 206.1 174.15 L205.15 173.6 204.3 173.6 202.7 173.75 198.35 174.2 190.45 174.9 182.45 175.25 173.15 175.7 163.35 176.25 122.95 177.6 113.6 177.2 106.0 176.65 100.15 175.8 93.25 174.2 90.8 173.6 82.95 171.9 67.35 168.9 61.1 167.6 64.1 166.65 Q66.25 165.85 67.6 165.9 L68.95 165.9 69.15 165.55 Q69.4 165.15 69.7 165.15 L76.55 164.7 77.85 164.5 78.6 164.0 79.05 163.35 85.05 163.5 Q80.45 162.4 76.05 160.5 L73.5 159.7 65.05 157.25 56.85 154.55 Q48.45 151.55 40.45 147.55 L40.35 146.15 42.0 146.25 45.25 146.45 48.25 148.0 Q50.4 149.1 55.15 149.9 L61.85 150.9 72.8 153.25 Q81.1 154.65 100.0 155.4 L100.0 155.25 107.45 155.55 111.0 155.75 111.9 154.9 126.45 155.8 129.4 154.3 128.05 153.85 124.3 153.1 120.0 152.2 116.85 151.35 Q112.2 150.2 107.7 148.7 103.35 147.3 99.1 145.25 L91.5 141.5 Q76.85 134.25 63.85 124.1 L54.35 117.0 45.45 109.95 37.35 102.55 36.7 93.2 34.05 58.6 33.95 56.4 34.1 39.9 34.4 41.3 Q35.05 44.6 38.2 46.35 41.6 48.2 45.5 47.85 46.75 46.9 47.65 45.55 49.9 42.1 51.6 38.2 52.85 39.55 54.55 40.7 L55.85 41.8 Q57.95 44.05 60.55 45.85 L63.3 48.0 Q66.3 50.85 69.9 53.2 80.6 59.85 93.25 59.9 99.45 59.9 105.45 58.75 L111.65 57.75 118.2 56.55 121.5 55.7 126.0 54.65 130.05 53.4 Q135.4 51.6 141.0 50.05 L151.4 47.15 Q157.05 45.8 162.6 43.6 L164.7 42.55 168.45 40.0 Q170.2 38.8 169.7 37.05 168.85 36.15 167.45 36.0 161.4 35.05 155.8 33.0 152.05 31.55 149.05 29.15 144.9 25.75 142.35 21.2 L156.1 20.75 169.0 19.95 181.25 18.9 196.25 17.0 211.1 14.35 219.15 12.8 Q230.3 10.25 241.25 9.4 249.75 8.7 258.25 9.05 263.65 9.3 268.8 10.85 275.35 12.9 281.45 15.9 287.4 18.85 293.85 19.7 L292.95 25.95 Q290.7 38.15 286.7 49.65 L284.5 55.3 Q283.9 56.7 283.5 58.35 L282.7 60.85 279.6 68.8 274.3 82.25 267.85 97.1 Q265.05 103.1 261.5 108.7 260.3 110.55 259.3 112.5 L257.2 116.6 256.9 117.05 254.25 121.2 250.6 126.2 Q250.9 126.6 251.45 126.85 L249.7 129.45 251.8 126.7 252.5 126.05 Q252.9 126.7 254.1 126.7 257.15 126.7 267.9 108.7 L268.4 107.85 270.5 105.2 Q279.65 92.95 283.5 84.65 288.85 73.05 298.9 57.05 307.4 43.6 307.4 43.0 307.4 41.1 305.9 40.65 304.25 40.2 302.85 42.45 L301.45 44.6 301.6 43.2 Q301.6 41.65 300.7 40.85 L300.45 40.6 M376.45 52.9 L377.9 43.75 378.0 45.2 378.2 48.3 378.15 47.65 377.95 48.1 Q377.5 48.95 377.15 50.15 L376.65 52.0 376.45 52.9 M315.3 169.55 Q324.45 170.0 333.45 168.55 L342.95 167.25 347.65 166.45 353.75 165.45 369.7 163.0 370.45 169.65 Q371.25 177.65 371.25 182.75 371.25 187.95 370.25 196.2 369.25 204.45 369.25 207.55 L369.3 208.75 361.95 207.75 354.65 207.0 Q346.95 206.9 339.8 210.05 L339.3 209.7 338.45 209.75 Q336.15 210.55 333.95 211.6 329.7 213.7 325.9 216.45 323.6 218.1 321.6 220.2 L323.75 220.4 Q325.95 220.15 327.8 219.1 L334.4 215.3 Q339.7 212.05 345.8 210.35 350.55 208.95 355.45 208.85 L362.5 209.65 Q369.1 210.65 374.85 213.45 L375.3 213.2 381.3 216.1 Q383.4 217.05 385.5 218.15 L389.35 220.5 392.8 223.25 Q400.7 230.7 408.35 238.5 L400.9 234.2 Q397.8 232.4 394.45 231.35 L391.4 230.4 388.8 229.2 Q373.2 222.25 360.75 223.0 344.65 225.65 337.35 228.3 332.7 230.0 326.6 234.15 L321.75 237.45 Q319.4 228.55 319.4 224.8 319.4 218.7 320.7 213.55 321.95 208.4 321.95 206.55 L319.05 194.45 Q316.15 181.4 316.15 176.15 L316.6 170.9 316.7 169.65 315.3 169.55 M311.55 155.65 L327.2 155.85 337.7 155.75 Q343.3 155.2 348.8 154.05 357.7 152.05 366.9 151.15 375.1 150.15 383.2 148.1 L383.3 156.35 Q382.65 158.0 380.85 158.35 377.75 158.75 374.85 160.1 L370.3 160.4 351.25 162.75 346.75 163.9 Q342.3 165.1 337.7 165.35 L328.85 166.75 325.3 167.0 320.85 166.9 311.95 166.6 311.25 164.2 Q310.35 161.55 310.35 160.8 310.35 160.2 310.9 158.5 L311.45 156.15 311.55 155.65 M294.9 163.25 Q294.5 162.9 294.3 162.15 L294.15 161.1 294.2 159.85 294.9 163.25 M470.6 250.9 L471.15 250.7 Q475.8 252.95 480.95 254.45 486.0 256.1 491.15 256.6 494.2 257.15 496.75 258.6 499.6 260.25 502.35 262.45 L504.15 263.95 505.4 265.1 Q508.95 265.0 512.1 266.3 L513.9 266.95 Q515.65 267.7 515.7 269.5 L515.6 270.8 512.0 269.15 Q511.05 271.0 509.2 271.25 505.5 271.55 502.35 269.65 L503.1 266.8 499.3 265.55 Q496.95 264.65 495.0 263.4 492.6 261.9 489.7 261.0 482.45 258.75 475.65 255.95 469.3 253.25 462.55 253.45 449.25 253.8 436.0 253.3 441.4 251.4 447.1 252.05 455.15 252.25 463.1 250.45 L467.0 250.0 470.6 250.9 M458.1 295.75 L461.05 296.0 464.15 296.5 465.75 298.7 Q466.7 300.0 466.7 301.3 466.7 302.85 465.9 304.15 464.75 305.9 462.65 305.75 L462.65 306.3 463.35 307.0 464.15 307.3 Q466.4 307.3 467.85 302.6 467.85 299.45 467.2 298.4 L466.25 297.15 Q469.65 298.5 471.35 301.4 472.4 303.25 476.3 307.1 480.05 310.85 480.7 312.2 481.85 314.35 485.4 323.2 L484.65 324.3 482.65 323.1 Q478.65 320.55 474.55 318.3 469.2 315.35 464.7 311.3 L459.65 307.05 Q456.6 304.55 454.2 301.35 455.4 298.0 458.1 295.75 M488.4 329.8 Q488.05 331.3 487.15 332.55 484.1 336.95 479.4 339.2 L475.25 339.0 Q469.2 335.3 465.9 329.1 L465.3 328.0 Q471.7 332.4 480.7 332.4 484.6 332.4 487.75 328.5 L488.4 329.8 M458.6 337.25 Q455.65 336.7 452.85 335.3 451.6 333.85 451.0 332.15 449.9 329.05 447.95 326.1 L444.75 321.3 440.2 313.5 Q437.4 308.45 435.85 302.7 L437.3 301.3 Q437.95 304.3 439.6 308.8 442.15 315.85 443.9 318.25 445.35 320.25 451.2 329.8 455.15 335.25 458.6 337.25 M512.9 288.35 Q520.55 293.75 527.8 299.8 L527.75 300.55 528.5 300.55 546.2 313.75 564.15 314.75 564.2 313.75 562.45 312.35 Q560.9 311.3 559.3 310.55 558.2 310.0 557.3 309.25 L553.2 305.95 546.85 300.9 Q541.8 297.0 536.35 293.65 L533.5 291.75 529.45 288.85 524.5 285.35 527.75 284.7 Q530.85 284.1 532.05 283.25 L540.2 288.55 549.15 294.25 555.7 298.95 564.2 305.75 581.3 319.65 581.1 320.65 Q563.95 323.25 546.45 322.95 L544.9 322.4 542.75 321.25 541.0 320.1 534.75 316.0 Q528.85 312.35 523.1 308.3 516.95 303.9 510.9 299.1 L500.7 291.15 Q505.4 290.6 512.15 288.6 L512.9 288.35 M515.35 305.05 L515.75 305.3 515.5 305.65 515.35 305.05 M522.55 310.4 L523.05 310.75 529.75 315.25 538.6 321.0 542.8 323.7 540.95 326.45 540.15 327.9 538.6 331.35 537.0 335.1 528.25 328.7 524.7 326.15 517.8 321.35 517.9 320.8 519.5 317.2 532.0 326.2 532.75 326.25 533.5 325.7 Q534.8 324.7 534.8 323.15 533.45 321.4 531.75 320.6 529.4 319.65 527.45 318.05 525.05 316.05 521.85 315.15 520.85 314.9 520.15 315.45 L520.55 314.3 522.55 310.4 M515.0 319.45 L514.7 319.25 514.9 319.25 515.0 319.45 M546.1 332.9 L547.2 330.75 Q547.85 329.4 547.85 328.45 547.85 326.5 546.45 328.4 545.0 330.25 545.0 331.8 545.0 332.3 546.1 332.9 M544.9 324.35 L560.5 324.3 571.3 323.95 583.05 322.3 578.45 333.55 539.3 335.9 544.9 324.35 M577.55 326.45 L576.0 330.55 576.6 331.05 Q578.7 329.2 578.85 326.4 L577.55 326.45 M317.25 203.4 L316.9 202.9 316.95 202.55 317.25 203.4" fill="#e6b700" fill-rule="evenodd" stroke="none"/>
    <path d="M357.45 47.25 L356.65 49.35 356.35 50.05 356.75 47.2 357.45 47.25 M352.75 56.05 L351.05 58.6 Q347.85 63.5 343.9 67.8 L344.8 65.6 348.0 56.85 349.75 52.25 Q351.65 47.9 352.65 43.4 L353.4 40.5 Q353.95 40.1 354.6 40.0 357.1 39.55 357.1 42.3 357.1 44.15 352.75 56.05 M337.55 57.2 Q334.65 61.45 331.3 65.3 L334.05 55.35 335.0 50.8 335.25 49.55 336.45 43.05 336.65 42.1 Q337.65 40.8 338.85 41.4 340.6 42.2 340.6 44.65 340.6 47.0 337.75 56.5 L337.55 57.2 M194.2 177.25 L195.65 176.85 196.15 176.7 195.8 177.0 194.75 177.8 194.2 177.25 M41.85 163.35 L41.35 163.05 41.9 163.1 41.85 163.35 M78.6 163.35 L79.05 163.35 78.6 164.0 78.6 163.35 M111.05 154.8 L111.9 154.9 111.0 155.75 111.05 154.8 M299.95 41.45 L300.05 41.25 300.15 41.05 300.25 40.85 300.35 40.75 300.4 40.6 300.45 40.6 300.7 40.85 299.95 41.45 M377.95 48.1 L378.15 47.65 378.2 48.3 377.95 48.1" fill="#737373" fill-rule="evenodd" stroke="none"/>
    <path d="M350.7 129.2 L352.4 123.0 Q353.65 118.55 355.2 114.2 356.8 109.7 358.5 105.35 L358.65 104.95 358.85 104.4 360.55 100.15 362.2 96.3 366.65 86.05 369.7 77.65 372.85 66.7 375.75 56.05 376.3 53.75 376.45 52.9 376.65 52.0 377.15 50.15 Q377.5 48.95 377.95 48.1 L378.2 48.3 379.05 67.4 379.05 68.75 374.9 78.65 Q367.1 95.9 363.4 102.75 L362.95 104.55 362.5 106.8 Q362.5 108.2 357.75 117.7 L351.75 129.2 350.7 129.2 M309.05 153.4 L306.6 153.3 305.4 153.25 302.7 153.15 302.15 153.1 302.3 151.8 302.65 146.85 302.75 140.7 Q302.6 135.7 302.75 130.8 302.85 126.2 303.7 121.55 304.6 116.8 306.7 112.55 309.4 107.15 313.7 103.1 L314.05 102.8 314.55 102.3 314.7 102.15 Q316.35 100.7 318.1 99.45 322.65 96.15 328.05 94.4 L329.7 93.65 Q333.15 91.6 337.4 91.35 L343.4 83.35 349.75 74.05 352.6 69.7 354.25 66.6 Q356.5 61.35 357.45 55.75 L358.0 52.15 Q358.35 49.55 357.45 47.25 L356.75 47.2 356.85 45.9 Q357.45 40.1 360.0 38.7 362.5 37.25 362.5 42.25 362.5 44.3 360.0 57.15 359.55 59.95 357.6 64.45 L354.6 71.75 Q353.6 74.75 351.35 78.95 L347.35 86.4 Q344.45 91.7 336.25 94.9 327.65 97.5 325.6 98.8 316.4 104.8 313.15 113.2 312.0 116.25 311.2 120.65 L309.95 128.15 Q309.5 130.55 309.5 145.7 309.5 150.6 309.05 153.4 M39.15 201.2 L39.45 197.45 39.5 197.45 Q40.05 192.3 41.15 187.15 L43.15 187.25 Q64.3 188.15 85.45 186.95 L98.0 185.8 102.15 185.45 105.75 185.15 118.1 184.9 138.65 184.3 148.05 183.6 160.55 182.35 Q174.25 181.1 187.65 178.6 L194.2 177.25 194.75 177.8 Q188.9 181.9 176.5 185.7 167.65 188.45 151.1 192.05 L140.0 194.5 Q129.5 196.6 121.15 197.2 L100.95 197.9 70.95 199.45 39.15 201.2 M61.1 167.6 L60.95 167.55 41.85 163.35 41.9 163.1 46.1 163.15 48.3 162.75 Q59.75 162.2 71.2 163.15 L78.6 163.35 78.6 164.0 77.85 164.5 76.55 164.7 69.7 165.15 Q69.4 165.15 69.15 165.55 L68.95 165.9 67.6 165.9 Q66.25 165.85 64.1 166.65 L61.1 167.6 M40.35 146.15 L39.45 132.8 Q43.8 134.95 48.55 136.8 L51.1 137.8 55.1 139.15 60.95 140.95 66.4 142.7 72.3 144.65 76.4 146.05 89.55 150.45 89.85 150.6 89.95 150.6 91.4 151.0 92.9 151.35 104.9 153.8 105.2 153.85 111.05 154.8 111.0 155.75 107.45 155.55 100.0 155.25 100.0 155.4 Q81.1 154.65 72.8 153.25 L61.85 150.9 55.15 149.9 Q50.4 149.1 48.25 148.0 L45.25 146.45 42.0 146.25 40.35 146.15 M251.8 126.7 L252.4 125.9 253.6 124.25 253.65 124.25 Q258.3 117.6 262.6 110.65 L266.75 103.6 267.75 101.85 Q270.7 97.1 273.25 92.15 L276.7 85.4 279.4 80.25 281.75 75.85 284.15 71.3 285.9 68.1 293.7 53.95 295.75 50.0 299.95 41.45 300.7 40.85 Q301.6 41.65 301.6 43.2 L301.45 44.6 302.85 42.45 Q304.25 40.2 305.9 40.65 307.4 41.1 307.4 43.0 307.4 43.6 298.9 57.05 288.85 73.05 283.5 84.65 279.65 92.95 270.5 105.2 L268.4 107.85 267.9 108.7 Q257.15 126.7 254.1 126.7 252.9 126.7 252.5 126.05 L251.8 126.7 M311.95 166.6 L309.2 166.05 303.9 165.35 303.8 165.1 299.8 164.5 295.25 163.45 294.9 163.25 294.2 159.85 294.25 159.25 294.3 158.6 294.3 158.4 Q294.5 155.85 294.9 155.2 295.45 154.45 297.7 154.85 L300.5 155.3 Q302.05 154.85 303.15 155.55 L306.55 155.6 306.8 155.6 307.75 155.6 308.5 155.6 311.55 155.65 311.45 156.15 310.9 158.5 Q310.35 160.2 310.35 160.8 310.35 161.55 311.25 164.2 L311.95 166.6 M500.7 291.15 L500.6 291.05 498.55 289.45 497.55 288.7 496.25 287.7 491.4 283.95 493.1 283.95 Q499.0 284.05 504.3 281.55 506.15 283.65 508.5 285.35 L509.3 285.9 509.45 286.0 509.5 286.0 510.45 286.65 512.0 287.75 512.15 288.6 Q505.4 290.6 500.7 291.15 M524.5 285.35 L523.2 284.45 521.95 283.6 519.95 282.2 519.65 281.95 513.1 276.8 516.75 273.75 519.55 274.95 521.5 276.15 527.0 279.8 527.05 279.8 527.05 279.85 527.25 279.95 527.25 280.0 527.3 280.0 527.45 280.1 528.5 280.8 529.5 281.5 531.2 282.65 532.05 283.25 Q530.85 284.1 527.75 284.7 L524.5 285.35 M514.7 319.25 L513.85 318.7 510.25 316.25 504.4 312.5 Q501.15 310.5 498.05 308.25 L496.75 307.3 496.6 307.2 496.05 306.75 Q492.85 304.3 489.8 301.6 L486.0 298.35 487.05 296.2 491.65 299.75 493.6 296.75 493.05 295.6 492.35 294.6 491.45 293.65 490.35 292.65 489.0 291.5 489.5 285.25 493.7 288.5 496.2 290.4 497.15 291.1 497.4 291.3 497.7 291.55 498.75 292.35 514.3 304.25 515.35 305.0 515.35 305.05 515.5 305.65 515.75 305.3 516.45 305.85 519.8 308.4 521.15 309.4 521.9 309.95 522.55 310.4 520.55 314.3 520.15 315.45 519.85 315.7 519.55 316.0 519.1 316.9 519.5 317.2 517.9 320.8 517.8 321.35 517.65 321.25 517.5 321.15 516.75 320.65 515.85 320.05 515.5 319.85 515.2 319.65 515.0 319.5 515.0 319.45 514.9 319.25 514.7 319.25 M511.8 281.9 L514.25 284.0 514.3 284.0 514.4 284.1 514.9 284.5 516.35 285.8 517.5 286.9 518.65 287.95 516.75 289.2 509.1 283.75 509.4 280.65 Q509.8 280.35 510.7 281.0 L511.8 281.9 M529.05 298.7 L529.3 295.3 538.1 302.35 535.55 303.7 529.05 298.7 M509.55 306.75 Q507.7 306.55 507.7 308.8 507.7 310.65 510.2 310.65 510.85 310.65 511.15 310.1 L511.4 309.15 Q511.4 306.95 509.55 306.75 M502.25 301.55 Q502.0 300.2 500.45 300.3 498.6 300.4 498.6 301.8 498.6 302.35 498.95 302.95 499.45 303.85 500.5 304.0 L501.25 304.2 Q501.8 304.2 502.25 303.45 502.65 302.85 502.65 302.45 502.65 301.9 502.25 301.55 M132.6 227.35 L155.9 221.45 150.4 226.15 Q148.05 227.95 145.2 229.3 L143.0 230.1 136.35 230.55 125.6 230.85 120.2 230.9 111.7 230.95 103.15 230.9 92.25 230.15 Q89.85 230.05 87.75 228.75 L119.0 228.25 129.15 227.9 132.6 227.35" fill="#444444" fill-rule="evenodd" stroke="none"/>
    <path d="M369.7 163.0 L372.85 162.5 372.85 163.5 373.75 163.55 Q374.65 173.65 373.7 183.5 L372.5 197.5 Q372.05 203.5 372.15 209.25 L369.3 208.75 369.25 207.55 Q369.25 204.45 370.25 196.2 371.25 187.95 371.25 182.75 371.25 177.65 370.45 169.65 L369.7 163.0 M391.4 230.4 L384.4 228.45 Q376.5 226.35 368.3 226.6 L368.15 226.6 366.85 226.65 366.8 226.65 359.75 227.3 Q356.2 227.55 352.8 228.6 346.0 230.75 339.5 233.25 336.8 234.4 334.25 235.75 L329.4 238.75 Q326.85 240.55 324.5 242.65 L323.4 243.7 Q321.85 245.1 320.45 246.65 317.9 249.4 315.8 252.5 L314.95 248.15 314.8 247.4 314.75 247.1 314.75 246.9 314.7 246.65 314.65 246.55 314.25 244.05 313.1 236.35 Q312.1 228.5 312.7 220.45 L312.95 212.7 Q312.95 209.65 312.05 206.85 L307.9 193.4 Q306.55 188.9 305.7 184.2 L304.4 177.2 303.35 171.95 Q303.15 170.85 303.3 169.8 303.4 169.25 303.85 169.0 L304.3 168.1 305.55 168.05 309.05 168.95 311.55 169.3 313.9 169.5 315.3 169.55 316.7 169.65 316.6 170.9 316.15 176.15 Q316.15 181.4 319.05 194.45 L321.95 206.55 Q321.95 208.4 320.7 213.55 319.4 218.7 319.4 224.8 319.4 228.55 321.75 237.45 L326.6 234.15 Q332.7 230.0 337.35 228.3 344.65 225.65 360.75 223.0 373.2 222.25 388.8 229.2 L391.4 230.4 M464.15 296.5 L461.05 296.0 458.1 295.75 458.9 295.1 Q462.2 292.7 466.05 294.0 470.35 295.95 473.55 299.3 L476.75 302.2 479.75 304.55 Q483.4 307.55 485.45 311.75 L487.15 315.55 487.95 317.65 489.6 322.85 489.8 323.75 490.1 324.85 490.9 327.25 489.15 326.55 489.0 326.5 486.55 325.35 486.25 325.2 484.65 324.3 485.4 323.2 Q481.85 314.35 480.7 312.2 480.05 310.85 476.3 307.1 472.4 303.25 471.35 301.4 469.65 298.5 466.25 297.15 L465.35 296.0 Q464.05 294.6 463.4 295.25 L464.15 296.5 M465.3 328.0 L463.15 324.85 459.1 319.55 Q465.35 324.85 472.7 328.85 474.55 329.95 476.7 330.45 L480.95 331.05 Q483.5 329.75 484.85 327.35 L485.45 326.45 488.55 328.25 488.4 329.8 487.75 328.5 Q484.6 332.4 480.7 332.4 471.7 332.4 465.3 328.0 M458.6 337.25 Q455.15 335.25 451.2 329.8 445.35 320.25 443.9 318.25 442.15 315.85 439.6 308.8 437.95 304.3 437.3 301.3 L439.3 299.4 440.45 306.35 439.5 306.75 440.7 307.05 Q444.5 314.45 448.9 321.5 451.65 325.95 454.7 330.15 L457.9 333.8 Q460.05 335.95 463.05 336.75 L459.1 337.35 459.0 337.35 458.65 337.3 458.6 337.25 M504.35 315.5 Q505.05 316.15 505.4 317.05 506.35 319.55 504.55 321.85 502.55 322.8 500.75 321.2 499.15 319.85 498.85 317.6 L500.9 312.75 Q502.6 314.0 504.35 315.5 M317.25 203.4 L316.95 202.55 316.9 202.9 317.25 203.4" fill="#3a6031" fill-rule="evenodd" stroke="none"/>
    <path d="M512.0 287.75 L512.9 288.35 512.15 288.6 512.0 287.75 M547.7 312.65 L547.5 312.65 547.65 309.2 551.55 312.55 547.7 312.65" fill="#5e5e5e" fill-rule="evenodd" stroke="none"/>
    <path d="M257.2 116.6 L257.1 116.85 257.05 116.9 256.75 117.5 252.3 125.55 251.45 126.85 Q250.9 126.6 250.6 126.2 L254.25 121.2 256.9 117.05 257.2 116.6" fill="#cccccc" fill-rule="evenodd" stroke="none"/>
  </g>
</svg>
