<?xml version="1.0" encoding="UTF-8" standalone="no"?>
<svg xmlns:xlink="http://www.w3.org/1999/xlink" height="201.8px" width="138.3px" xmlns="http://www.w3.org/2000/svg">
  <g transform="matrix(1.0, 0.0, 0.0, 1.0, -2.05, -16.2)">
    <path d="M105.75 21.7 L107.5 22.2 108.05 24.45 108.8 27.45 107.2 28.2 Q106.25 28.75 105.6 29.6 104.85 30.5 104.95 30.9 L105.05 31.1 105.05 31.15 105.1 31.3 105.1 31.35 105.15 31.3 105.15 31.35 105.35 32.2 Q105.4 32.7 105.95 33.15 L106.85 34.0 107.7 34.65 107.7 34.8 Q107.25 35.45 107.35 35.7 L107.35 35.75 Q107.2 36.15 107.35 36.65 L107.85 37.95 108.25 39.45 108.6 40.75 108.7 41.75 108.15 42.75 107.65 43.1 107.85 42.0 107.7 41.0 Q107.5 39.5 105.9 36.1 104.15 32.7 103.95 31.25 103.85 31.0 103.9 30.15 L103.9 29.45 103.85 28.85 Q103.7 28.1 102.75 27.15 L102.55 26.9 101.05 25.95 99.65 24.9 98.45 24.05 97.3 23.35 95.1 21.65 94.45 21.25 94.9 21.05 95.35 20.9 95.95 20.6 96.65 20.3 98.1 19.85 98.2 19.65 97.35 19.35 95.85 19.25 93.9 19.05 94.3 18.15 95.25 17.9 96.3 17.55 Q97.0 17.35 97.95 16.8 L98.9 16.2 99.1 16.55 Q100.0 17.95 101.95 19.8 L103.55 20.85 105.75 21.7 M94.5 26.55 L95.45 26.3 Q97.05 26.2 97.55 26.75 L98.15 27.35 97.5 27.2 95.6 26.85 94.6 26.8 94.5 26.55 M104.9 29.75 L104.75 30.25 105.15 29.35 Q104.95 29.45 104.9 29.75 M104.25 28.65 L104.2 29.1 104.15 29.5 104.2 29.5 104.5 28.65 Q104.5 28.55 104.35 28.55 L104.25 28.65 M109.3 30.9 L108.6 30.9 107.7 31.1 107.85 30.95 Q108.15 30.55 108.75 30.4 L109.2 30.35 109.3 30.6 109.3 30.9 M91.7 33.6 Q92.6 33.55 93.1 33.1 L93.6 32.4 94.6 30.85 96.75 31.0 98.15 31.4 97.3 31.75 96.65 31.95 96.65 32.0 Q96.7 32.25 97.35 32.55 L98.05 33.15 97.95 34.0 97.65 34.75 Q96.85 36.1 96.9 36.45 L97.1 38.05 Q97.25 39.0 96.95 39.6 L95.05 43.05 94.45 44.5 93.4 46.4 93.5 43.8 92.2 39.9 91.1 37.95 Q90.35 36.75 90.25 36.0 L90.15 34.9 Q90.15 33.75 90.55 33.6 L91.7 33.6 M106.1 44.45 L106.1 44.5 Q105.65 45.25 105.95 46.95 L105.6 46.65 Q104.85 46.1 103.75 45.7 L103.8 45.55 105.05 45.0 Q105.65 44.55 105.95 44.5 L106.1 44.45 M103.85 48.5 L103.95 48.4 105.85 48.8 106.3 49.3 106.55 49.55 106.3 51.35 105.75 54.15 105.4 55.8 Q105.0 56.3 104.8 57.35 L104.5 59.1 104.1 62.65 103.8 65.45 103.4 65.8 102.25 66.1 Q101.85 66.2 100.95 65.5 99.85 64.8 99.75 64.1 L99.75 63.45 98.35 63.05 97.15 62.65 96.25 62.05 94.65 59.9 94.4 59.75 94.35 59.5 Q94.25 59.05 95.05 58.6 L95.3 58.5 95.4 58.5 Q96.5 57.95 98.95 57.45 L100.3 57.45 101.5 57.35 102.8 57.0 102.9 56.95 Q102.75 56.8 102.1 56.6 L101.1 56.05 100.65 55.5 100.3 54.85 100.9 54.8 102.05 54.8 103.3 54.8 Q104.05 54.7 104.65 53.3 105.3 52.0 105.1 50.9 L104.55 49.6 103.85 48.5 M95.4 51.95 Q95.2 52.55 95.35 52.75 L94.95 53.55 94.45 54.3 93.8 55.9 93.3 57.4 93.4 55.8 Q93.75 53.6 95.15 51.85 L95.4 51.95 M81.7 73.7 L82.85 73.9 84.7 74.45 Q87.25 75.15 92.25 77.85 L92.45 77.95 92.85 78.0 94.1 78.8 Q95.65 79.45 96.9 80.2 98.65 81.3 99.85 82.55 L101.2 83.85 Q104.25 103.65 117.35 117.8 L103.45 163.55 104.35 163.65 118.1 133.45 Q119.2 131.0 121.8 131.05 122.7 137.7 121.75 144.1 L121.7 144.1 121.3 144.05 121.0 148.0 Q118.85 157.1 112.85 165.65 107.25 173.55 98.05 174.3 94.25 172.25 90.35 171.05 L89.95 170.95 89.8 170.9 Q86.65 169.85 83.65 169.6 L76.95 169.35 72.1 169.15 71.65 169.8 71.65 169.9 66.3 171.0 Q55.2 162.0 46.9 150.2 46.15 149.2 46.4 147.9 48.35 137.0 48.9 126.25 L49.4 123.8 49.05 123.05 Q49.45 109.15 47.55 95.5 L40.05 112.05 Q35.55 112.8 31.15 114.1 L24.5 113.9 23.2 114.55 18.5 113.55 18.0 112.7 Q22.3 101.05 28.8 90.3 L34.35 82.0 Q41.45 73.25 52.5 73.95 L49.1 91.7 58.6 70.2 60.65 69.75 61.4 71.2 Q63.4 71.6 64.9 72.6 L65.2 72.85 67.1 74.9 68.75 76.35 68.75 76.3 69.3 76.3 69.95 74.35 Q74.8 73.15 79.75 73.45 L81.7 73.65 81.7 73.7 M61.6 122.0 L66.45 122.95 73.05 124.55 75.65 126.0 Q77.55 127.15 79.15 127.15 L79.65 127.05 76.35 124.45 Q74.1 123.15 70.8 122.55 63.35 121.25 60.6 121.1 55.15 120.75 53.5 122.55 L61.6 122.0 M43.15 129.1 Q40.5 138.3 33.6 146.1 28.85 151.4 22.3 150.2 L26.75 129.15 27.3 127.0 30.0 117.45 37.7 118.45 Q41.85 119.15 44.45 122.2 L43.45 127.3 43.15 129.1 M32.35 169.75 L32.65 168.85 Q40.2 172.15 37.8 180.3 L36.55 180.05 36.1 173.7 35.65 173.5 Q33.25 172.25 32.35 169.75 M19.9 164.5 Q30.45 183.6 27.7 204.5 27.3 207.45 24.6 208.95 L21.95 210.15 15.95 210.95 15.55 210.25 14.9 209.1 13.65 206.75 Q4.0 188.15 2.1 166.8 1.7 162.5 4.65 159.05 15.0 154.2 19.8 164.5 L19.9 164.5 M40.1 172.0 Q37.05 171.15 35.8 167.95 L36.6 166.9 Q44.05 170.85 41.9 180.05 L40.4 180.0 Q38.4 176.3 40.1 172.0 M42.0 166.15 L42.85 166.6 Q47.9 170.75 46.45 177.45 L44.9 177.35 Q43.8 174.25 45.0 170.75 40.35 169.7 42.0 166.15 M75.8 195.05 Q73.7 198.2 71.05 200.65 L69.7 201.85 69.35 202.15 67.05 203.8 Q65.3 204.95 60.75 207.25 55.75 209.8 54.1 210.8 L45.5 215.65 Q41.05 217.65 36.55 218.0 L33.3 217.55 Q35.2 212.4 37.05 208.45 L36.75 208.5 Q44.75 190.95 61.55 179.95 66.3 176.9 71.8 177.55 76.4 178.4 78.35 182.8 79.25 186.3 78.6 189.55 77.7 192.15 75.8 195.05 M104.8 139.0 L104.75 139.0 104.7 139.55 104.8 139.0" fill="url(#gradient0)" fill-rule="evenodd" stroke="none"/>
    <path d="M98.8 25.9 L98.85 25.85 98.85 25.95 98.8 25.9 M97.8 25.8 L97.65 25.8 97.65 25.7 97.8 25.8 M108.05 31.5 L108.15 31.45 108.15 31.5 108.05 31.5 M108.85 32.5 L109.0 32.55 108.9 32.7 108.85 32.5 M103.8 45.55 L103.75 45.7 103.7 45.55 103.8 45.55 M103.95 48.4 L103.8 48.45 103.75 48.4 103.95 48.4" fill="url(#gradient1)" fill-rule="evenodd" stroke="none"/>
    <path d="M94.5 26.55 L94.6 26.8 94.05 26.7 94.5 26.55 M106.1 44.5 L106.1 44.45 106.1 44.5 M103.95 48.4 L103.85 48.5 103.8 48.45 103.95 48.4 M95.15 51.85 L95.55 51.35 95.4 51.95 95.15 51.85" fill="url(#gradient2)" fill-rule="evenodd" stroke="none"/>
    <path d="M72.85 43.5 L72.85 43.35 72.9 43.5 72.85 43.5 M70.0 62.8 L70.15 62.65 70.2 62.7 70.0 62.8" fill="url(#gradient3)" fill-rule="evenodd" stroke="none"/>
    <path d="M17.95 114.15 L18.0 114.05 18.0 114.0 18.15 114.2 17.95 114.15 M29.65 150.9 L29.65 150.95 29.6 150.95 29.65 150.9" fill="url(#gradient4)" fill-rule="evenodd" stroke="none"/>
    <path d="M19.9 164.5 L19.8 164.5 19.8 164.35 19.9 164.5" fill="url(#gradient5)" fill-rule="evenodd" stroke="none"/>
    <path d="M104.8 139.0 L104.7 139.55 104.75 139.0 104.8 139.0" fill="#000000" fill-rule="evenodd" stroke="none"/>
    <path d="M111.7 97.85 Q118.95 121.1 139.6 132.15 L139.35 133.15 138.5 133.5 Q130.15 131.05 123.95 124.6 L124.1 125.7 Q117.0 117.7 111.55 108.35 105.6 98.1 108.35 85.95 109.85 91.95 111.7 97.85 M109.45 85.05 L119.35 79.45 Q126.25 79.65 130.4 85.55 139.45 98.5 140.25 115.55 140.55 123.05 139.7 130.75 114.65 115.05 109.45 85.05" fill="url(#gradient6)" fill-rule="evenodd" stroke="none"/>
  </g>
  <defs>
    <linearGradient gradientTransform="matrix(0.0232, -0.1045, 0.1268, 0.0281, 59.5, 111.6)" gradientUnits="userSpaceOnUse" id="gradient0" spreadMethod="pad" x1="-819.2" x2="819.2">
      <stop offset="0.0" stop-color="#dede00" stop-opacity="0.5019608"/>
      <stop offset="1.0" stop-color="#8f4602" stop-opacity="0.5019608"/>
    </linearGradient>
    <linearGradient gradientTransform="matrix(0.0075, 0.0461, -0.0168, 0.0027, 93.0, 44.45)" gradientUnits="userSpaceOnUse" id="gradient1" spreadMethod="pad" x1="-819.2" x2="819.2">
      <stop offset="0.0" stop-color="#765282"/>
      <stop offset="1.0" stop-color="#37283e"/>
    </linearGradient>
    <linearGradient gradientTransform="matrix(0.0019, -0.0322, 0.039, 0.0023, -104.75, 64.35)" gradientUnits="userSpaceOnUse" id="gradient2" spreadMethod="pad" x1="-819.2" x2="819.2">
      <stop offset="0.0" stop-color="#dddd00"/>
      <stop offset="1.0" stop-color="#8e4702"/>
    </linearGradient>
    <linearGradient gradientTransform="matrix(0.0059, 0.0365, -0.0133, 0.0022, 93.75, 44.85)" gradientUnits="userSpaceOnUse" id="gradient3" spreadMethod="pad" x1="-819.2" x2="819.2">
      <stop offset="0.0" stop-color="#765282"/>
      <stop offset="1.0" stop-color="#37283e"/>
    </linearGradient>
    <linearGradient gradientTransform="matrix(0.0377, -0.1045, 0.1229, 0.0281, 68.15, 111.6)" gradientUnits="userSpaceOnUse" id="gradient4" spreadMethod="pad" x1="-819.2" x2="819.2">
      <stop offset="0.0" stop-color="#dddd00"/>
      <stop offset="1.0" stop-color="#8e4702"/>
    </linearGradient>
    <linearGradient gradientTransform="matrix(0.0232, -0.1045, 0.1268, 0.0281, 59.5, 111.6)" gradientUnits="userSpaceOnUse" id="gradient5" spreadMethod="pad" x1="-819.2" x2="819.2">
      <stop offset="0.0" stop-color="#dddd00"/>
      <stop offset="1.0" stop-color="#8e4702"/>
    </linearGradient>
    <linearGradient gradientTransform="matrix(0.0232, -0.1045, 0.1268, 0.0281, 62.8, 118.2)" gradientUnits="userSpaceOnUse" id="gradient6" spreadMethod="pad" x1="-819.2" x2="819.2">
      <stop offset="0.0" stop-color="#dede00" stop-opacity="0.5019608"/>
      <stop offset="1.0" stop-color="#8f4602" stop-opacity="0.5019608"/>
    </linearGradient>
  </defs>
</svg>
