<?xml version="1.0" encoding="UTF-8" standalone="no"?>
<svg xmlns:xlink="http://www.w3.org/1999/xlink" height="576.65px" width="1423.15px" xmlns="http://www.w3.org/2000/svg">
  <g transform="matrix(1.0, 0.0, 0.0, 1.0, 534.8, 0.0)">
    <path d="M-371.8 8.35 L-247.65 5.8 Q43.25 4.05 45.95 4.3 L55.55 5.55 58.9 5.55 56.0 3.3 55.75 1.8 56.0 0.75 Q56.2 0.3 57.75 0.3 62.0 0.3 63.8 4.35 L64.25 5.55 594.4 5.55 Q591.85 3.95 591.85 2.3 591.85 0.85 594.55 1.1 L601.6 2.6 Q615.45 6.05 623.0 6.05 L641.45 5.0 643.05 3.4 Q646.1 0.6 648.0 0.1 L648.25 0.0 Q648.5 0.05 648.5 0.85 648.5 1.8 645.15 4.75 L665.4 3.55 666.15 3.55 Q739.1 3.55 769.0 6.5 796.8 9.25 809.75 9.2 822.7 9.1 853.05 9.35 883.35 9.55 869.9 44.0 856.45 78.4 864.9 96.95 870.45 109.25 874.05 129.05 L881.55 160.85 Q886.2 180.75 887.45 193.55 889.25 214.55 887.45 257.15 L887.45 261.15 887.65 410.6 Q884.8 570.2 870.45 570.2 852.35 570.2 846.6 568.75 842.15 566.8 838.0 565.85 821.7 561.3 729.75 561.3 L665.4 564.2 659.3 565.2 Q635.45 569.2 629.6 569.4 L519.9 574.55 482.6 576.65 Q463.95 576.65 406.1 566.45 349.6 556.65 318.6 557.3 273.3 558.25 251.7 555.5 235.15 553.55 222.75 547.6 212.25 542.6 204.05 540.65 200.05 539.7 180.75 536.3 L150.5 531.8 Q122.55 527.75 115.25 525.0 108.85 522.9 101.4 518.7 98.7 517.1 89.75 511.3 L76.0 503.05 Q64.8 496.25 63.25 494.35 57.95 487.55 49.45 489.0 45.2 489.8 41.75 491.9 L39.45 491.55 -534.8 478.7 50.25 469.3 Q57.7 469.3 80.35 485.3 91.9 493.55 104.5 503.2 112.4 508.2 160.5 517.1 184.7 521.45 208.75 525.0 224.7 530.15 237.0 531.3 L375.6 543.55 Q385.8 544.55 419.25 551.8 451.25 558.9 453.5 558.9 506.9 558.9 520.45 555.2 535.6 551.15 631.6 550.0 637.55 550.0 660.65 546.45 L665.4 545.7 732.45 542.75 787.65 545.15 840.0 548.4 Q850.0 550.8 860.6 550.8 863.1 523.05 865.6 411.55 867.6 319.4 867.75 261.15 L867.75 257.15 Q870.1 215.3 867.75 194.3 866.3 180.55 862.55 162.8 861.15 155.8 855.2 131.3 850.75 111.75 845.0 99.8 836.75 82.5 853.35 45.75 869.95 9.0 849.6 17.4 829.25 25.85 818.0 16.05 788.9 26.25 795.65 14.55 785.65 19.8 784.4 18.65 782.25 16.45 773.65 14.8 747.5 9.55 665.8 9.55 L665.4 9.55 Q652.95 9.35 642.0 9.5 L641.7 8.7 Q641.05 7.8 639.0 7.8 L636.75 8.15 636.2 8.65 635.9 9.05 634.05 9.25 632.65 9.4 631.4 9.1 630.1 8.8 Q629.45 8.8 627.75 9.45 L625.4 10.05 624.7 9.8 624.0 9.55 Q623.45 9.55 621.75 10.8 L618.85 10.9 Q618.35 11.1 618.35 11.3 L620.2 11.95 620.1 12.0 612.25 11.05 608.6 11.05 67.0 11.05 Q66.25 11.55 65.95 12.7 65.4 13.5 63.0 13.55 L62.4 13.05 Q61.75 12.7 59.3 12.1 60.2 9.25 57.5 9.45 55.25 9.55 54.85 11.35 L54.75 12.15 Q54.75 13.0 56.55 14.3 57.55 15.0 58.55 15.4 L56.5 15.15 45.05 14.7 43.5 13.6 Q44.65 12.9 44.15 11.75 L44.15 11.05 43.55 11.05 Q42.55 10.35 -371.8 8.35" fill="#9f97c6" fill-rule="evenodd" stroke="none"/>
    <path d="M-529.6 259.9 L-495.9 9.0 -371.8 8.35 Q42.55 10.35 43.55 11.05 L44.15 11.75 Q44.65 12.9 43.5 13.6 L45.05 14.7 56.5 15.15 58.55 15.4 Q57.55 15.0 56.55 14.3 54.75 13.0 54.75 12.15 L54.85 11.35 Q55.25 9.55 57.5 9.45 60.2 9.25 59.3 12.1 61.75 12.7 62.4 13.05 L63.0 13.55 63.25 14.1 63.2 14.55 62.7 15.4 61.15 15.8 63.85 16.5 68.8 18.3 Q70.8 18.75 73.45 20.35 75.95 21.8 76.75 22.8 L77.4 25.4 Q78.25 27.55 81.05 27.55 L87.5 27.1 90.85 26.6 Q93.4 26.6 94.15 27.15 L94.65 27.85 98.6 28.2 100.55 28.65 102.5 29.9 103.8 31.1 104.2 31.7 104.3 31.9 Q105.3 33.55 105.25 34.0 L104.9 36.15 Q104.9 37.05 105.9 39.4 L106.55 40.85 106.7 41.15 Q108.25 44.4 109.0 44.95 L115.15 49.25 Q119.0 51.95 121.1 53.8 122.95 55.35 124.35 58.1 L126.55 62.6 Q128.15 65.45 130.15 66.7 133.65 68.8 142.15 70.3 144.85 70.8 146.65 72.2 L149.25 74.7 151.3 76.9 153.05 79.05 Q154.2 80.4 155.15 83.45 156.65 86.2 161.3 87.8 164.15 88.75 165.55 89.4 L169.6 91.7 Q170.7 92.35 171.2 93.7 L171.75 96.05 Q171.9 97.25 174.85 98.3 178.0 99.5 178.3 100.1 L179.25 102.35 179.25 103.5 180.05 105.8 181.05 109.9 Q181.7 112.5 182.5 114.05 182.9 114.85 186.75 118.15 187.55 118.85 188.25 120.25 L189.25 122.3 Q189.95 123.7 190.1 126.3 L190.5 130.55 Q190.95 133.45 191.3 134.55 192.05 137.0 193.5 138.8 194.6 140.15 199.65 142.75 L206.8 146.55 Q209.55 148.2 211.55 150.55 213.55 152.75 214.15 154.8 L215.4 157.65 215.5 157.65 Q216.1 157.65 216.1 157.3 L216.1 154.9 Q215.45 152.3 214.65 151.3 213.9 150.4 212.45 149.45 L210.7 148.45 199.6 139.5 Q191.05 132.35 191.05 128.3 191.05 127.2 192.3 122.55 L193.55 117.8 Q193.55 114.65 188.45 112.35 182.55 109.7 181.05 106.05 180.35 104.3 180.75 99.1 181.1 94.65 179.25 92.55 177.95 91.1 174.25 90.35 170.9 89.65 169.25 87.05 167.6 84.45 166.45 83.75 164.75 82.8 159.25 81.85 L157.3 81.3 156.5 80.7 Q158.6 80.0 161.3 78.55 L162.0 78.2 162.9 77.35 164.5 76.45 166.75 74.7 Q167.25 74.3 173.25 72.05 176.45 70.85 177.9 70.7 180.1 70.4 181.35 71.7 182.4 72.3 183.45 73.45 L184.65 75.3 185.1 77.2 Q185.5 78.6 186.3 78.8 L192.4 79.85 Q195.45 80.35 197.1 81.55 198.4 82.5 199.25 85.0 199.9 87.0 199.9 88.7 L199.65 92.05 199.45 95.5 199.7 97.1 200.5 101.55 200.9 103.0 Q202.05 106.85 204.15 109.45 204.95 110.4 206.85 111.45 L210.3 113.15 Q212.35 114.1 213.8 115.05 L217.0 117.05 Q223.85 121.2 226.75 126.25 228.5 129.3 228.75 132.7 L228.8 132.95 Q228.85 133.8 229.25 134.9 L233.3 137.3 Q237.45 139.6 238.25 140.2 L239.2 141.7 239.9 143.2 241.7 144.65 243.4 146.2 244.0 149.0 Q244.3 150.5 245.25 151.6 L245.9 152.2 247.0 153.0 250.25 155.1 254.75 158.2 Q255.8 159.2 256.9 161.05 L257.5 162.0 258.6 163.2 Q259.35 164.45 261.25 166.2 263.35 168.15 265.7 169.15 268.6 170.35 273.35 170.8 L274.45 170.95 274.5 170.9 280.25 170.55 Q285.0 170.1 291.35 173.15 294.4 174.65 295.85 175.8 304.35 178.8 309.7 178.8 313.4 178.8 321.35 173.95 323.75 172.6 327.65 171.85 L340.8 170.65 350.4 169.85 352.0 169.05 Q358.15 166.2 358.85 165.65 L361.2 163.95 Q363.2 162.7 365.1 162.2 L370.2 161.6 371.1 161.75 372.0 161.7 Q375.8 161.55 376.1 162.65 377.05 162.05 377.4 162.05 L377.5 162.1 375.45 164.05 375.45 163.8 374.85 164.15 373.05 164.9 Q368.1 168.5 366.05 172.35 364.85 174.55 361.95 177.05 L357.55 180.6 352.6 182.25 Q347.75 183.75 347.25 184.05 L345.15 185.2 353.3 183.8 357.6 183.0 358.25 182.55 Q360.55 181.45 361.25 180.95 L364.9 177.8 370.75 171.4 373.35 168.25 Q375.3 166.05 377.0 164.8 378.4 163.85 383.75 162.8 L383.95 162.8 385.35 161.7 390.1 158.05 Q392.0 156.2 394.75 151.65 L394.85 151.5 Q397.3 147.4 400.35 145.15 404.6 141.95 410.75 141.05 L414.0 140.7 Q417.9 140.6 420.3 141.35 L420.75 141.3 Q422.45 140.5 426.45 142.1 430.4 143.7 430.4 145.05 L430.05 146.1 429.8 146.5 430.1 146.55 Q428.8 148.5 428.3 149.85 427.25 152.85 427.25 159.3 L427.5 161.7 427.75 164.1 427.4 166.7 427.0 169.15 Q427.0 169.8 427.15 170.2 L427.25 169.95 Q428.25 167.7 428.5 166.2 L429.4 160.55 Q429.7 157.75 431.15 149.15 431.55 146.85 434.05 143.6 435.7 141.4 439.25 137.7 440.15 136.8 440.75 134.65 L441.5 132.05 443.8 129.3 Q444.45 128.55 447.2 127.85 449.95 127.1 450.25 126.8 L452.3 123.75 453.35 120.75 Q454.75 117.2 455.05 116.8 L457.25 114.85 Q458.9 113.6 460.45 112.85 L461.0 112.2 463.4 110.55 Q464.65 109.55 465.75 107.3 L466.9 105.0 468.85 101.1 469.75 100.0 472.0 98.0 476.1 95.05 Q477.6 94.0 483.2 92.4 485.4 91.75 486.9 91.6 L492.5 88.3 Q498.4 85.45 500.5 86.3 L500.75 86.2 504.5 86.5 Q507.35 87.25 507.35 88.6 507.35 89.25 505.9 90.05 L506.6 90.3 505.3 90.6 Q503.45 91.15 500.25 93.95 496.25 97.4 496.25 100.05 L496.75 104.0 497.25 107.9 Q497.25 108.8 494.35 111.1 L490.8 113.6 487.0 115.8 Q484.6 116.9 479.5 118.05 476.7 118.65 474.9 120.3 473.45 121.55 473.0 123.1 472.7 124.05 470.8 126.45 L470.25 127.2 Q472.85 125.1 474.65 124.05 479.15 121.35 480.3 120.9 484.35 119.2 490.9 118.8 L493.7 118.95 Q494.7 118.85 496.25 117.15 L496.8 116.3 497.25 115.45 Q498.1 114.0 498.65 111.85 L499.3 108.45 Q499.7 106.3 500.6 104.8 501.85 102.75 503.15 101.4 505.2 99.2 508.25 97.6 510.25 96.55 514.5 95.0 L520.9 92.7 521.05 92.6 522.6 91.35 Q523.6 90.35 524.55 89.8 L528.9 87.1 Q533.15 84.8 536.4 81.3 L540.75 75.65 Q545.45 69.15 554.6 64.2 556.15 63.4 563.65 61.85 570.9 60.4 572.65 60.4 577.0 60.45 581.85 58.3 L582.9 57.85 583.95 57.0 585.6 56.05 Q587.35 54.05 587.85 52.8 588.7 50.7 592.45 47.35 592.9 45.6 595.6 43.25 598.85 40.35 603.15 38.35 604.65 37.7 606.35 36.15 608.15 34.55 608.5 33.45 L609.5 31.15 610.75 28.55 612.75 23.7 613.95 20.9 615.0 18.8 617.9 13.95 620.1 12.0 620.2 11.95 620.8 11.45 621.75 10.8 Q623.45 9.55 624.0 9.55 L624.7 9.8 625.4 10.05 627.75 9.45 Q629.45 8.8 630.1 8.8 L631.4 9.1 632.65 9.4 634.05 9.25 635.9 9.05 636.2 8.65 636.75 8.15 639.0 7.8 Q641.05 7.8 641.7 8.7 L642.0 9.5 Q652.95 9.35 665.4 9.55 L665.4 261.15 -529.6 259.9" fill="url(#gradient0)" fill-rule="evenodd" stroke="none"/>
    <path d="M63.0 13.55 Q65.4 13.5 65.95 12.7 66.25 11.55 67.0 11.05 L608.6 11.05 612.25 11.05 620.1 12.0 617.9 13.95 615.0 18.8 613.95 20.9 607.7 24.95 Q601.3 28.75 598.75 31.1 L591.3 37.85 Q588.15 41.1 587.25 44.3 L586.3 47.75 585.0 51.05 Q583.85 52.9 580.55 54.5 576.45 56.55 571.6 56.55 L561.6 55.65 Q555.35 55.15 552.8 57.1 L549.0 60.55 Q547.95 61.25 545.6 64.4 L544.75 65.55 Q543.1 66.7 540.55 69.2 L540.2 69.6 541.1 69.7 539.65 70.85 Q535.2 74.65 533.05 77.6 L530.05 80.75 529.0 81.7 Q525.15 80.9 522.7 81.65 L521.8 82.0 514.5 82.8 510.65 82.2 506.75 81.55 503.05 81.8 502.9 81.8 Q498.5 81.8 493.65 85.85 488.7 89.95 485.4 90.05 L475.65 90.8 Q475.3 90.85 474.5 91.25 473.75 91.6 473.55 91.85 L471.85 93.45 470.8 94.6 Q470.2 95.6 470.0 97.6 L469.75 100.0 468.85 101.1 466.9 105.0 465.4 106.05 458.65 107.8 Q458.3 107.9 457.25 108.95 L456.15 110.1 Q453.95 111.9 452.95 115.8 451.9 120.25 450.65 121.8 450.0 122.65 445.95 123.45 441.6 124.3 440.0 125.6 438.55 126.8 438.5 128.35 L438.3 131.3 438.0 133.4 437.25 134.6 436.5 136.6 Q435.65 136.8 429.05 136.65 421.75 136.45 420.25 136.8 L417.1 137.75 415.0 138.6 Q413.1 139.55 410.75 141.05 404.6 141.95 400.35 145.15 397.3 147.4 394.85 151.5 393.2 152.45 392.0 153.3 L387.6 156.4 Q386.5 156.65 385.1 157.35 L380.2 160.15 Q379.05 159.6 377.35 159.2 L374.0 158.65 372.4 158.2 Q369.95 157.3 368.25 157.3 362.55 157.3 353.75 162.65 L345.8 168.1 Q342.95 169.4 336.15 169.35 L328.25 169.3 Q327.15 169.5 325.2 170.45 L322.5 171.55 316.3 174.1 Q309.85 176.55 305.9 176.55 302.6 176.55 299.7 174.95 298.5 174.3 294.85 171.45 288.25 166.3 280.25 166.3 L273.75 166.9 268.25 167.85 Q262.9 168.5 261.75 164.85 L260.75 160.05 Q260.15 157.4 255.75 155.6 253.55 154.7 247.0 153.0 L245.9 152.2 245.25 151.6 Q245.3 150.45 246.0 149.1 246.75 147.65 246.75 146.45 L246.5 145.0 Q246.2 144.25 245.3 143.55 L243.65 143.15 242.25 142.8 241.75 140.85 Q241.75 138.6 240.8 137.55 238.35 134.7 236.3 135.25 L232.3 135.6 Q230.1 134.75 228.8 132.95 L228.75 132.7 Q228.5 129.3 226.75 126.25 L225.75 123.05 Q223.75 119.05 221.25 116.4 218.1 113.1 213.25 110.8 206.95 107.8 203.85 105.55 L200.9 103.0 200.5 101.55 199.7 97.1 200.05 95.3 201.05 92.8 Q203.05 88.3 203.05 86.15 203.05 83.75 201.85 81.1 200.2 77.55 197.3 77.1 L192.75 76.8 190.05 76.9 Q188.25 76.75 186.25 73.05 185.65 71.8 183.85 70.5 180.9 68.35 176.75 68.35 175.9 68.35 170.2 71.85 168.05 73.15 165.9 73.95 L165.5 73.6 164.0 74.55 163.0 74.8 163.05 75.2 Q160.9 76.5 159.0 77.05 156.15 77.85 154.35 78.7 L152.35 75.9 Q150.7 72.35 149.45 70.15 L149.3 69.1 Q147.85 65.3 143.5 64.9 134.85 64.15 131.5 63.05 126.8 61.55 124.55 57.0 121.7 51.2 120.05 49.85 116.5 46.85 109.55 43.35 107.6 42.4 106.7 41.15 L106.55 40.85 105.9 39.4 Q105.7 38.3 106.05 36.3 106.9 32.15 106.5 29.55 106.35 28.6 105.7 27.7 L104.3 26.1 102.5 24.3 Q102.15 23.0 101.45 22.85 L91.75 22.85 79.95 22.0 79.25 20.4 Q78.45 19.05 76.0 17.6 L67.85 15.6 63.2 14.55 63.25 14.1 63.0 13.55 M620.2 11.95 L618.35 11.3 Q618.35 11.1 618.85 10.9 L621.75 10.8 620.8 11.45 620.2 11.95" fill="url(#gradient1)" fill-rule="evenodd" stroke="none"/>
    <path d="M613.95 20.9 L612.75 23.7 610.75 28.55 609.5 31.15 608.5 33.45 Q608.15 34.55 606.35 36.15 604.65 37.7 603.15 38.35 598.85 40.35 595.6 43.25 592.9 45.6 592.45 47.35 588.7 50.7 587.85 52.8 587.35 54.05 585.6 56.05 L583.95 57.0 582.9 57.85 581.85 58.3 Q577.0 60.45 572.65 60.4 570.9 60.4 563.65 61.85 556.15 63.4 554.6 64.2 545.45 69.15 540.75 75.65 L536.4 81.3 Q533.15 84.8 528.9 87.1 L524.55 89.8 Q523.6 90.35 522.6 91.35 L521.05 92.6 520.9 92.7 514.5 95.0 Q510.25 96.55 508.25 97.6 505.2 99.2 503.15 101.4 501.85 102.75 500.6 104.8 499.7 106.3 499.3 108.45 L498.65 111.85 Q498.1 114.0 497.25 115.45 L496.8 116.3 496.25 117.15 Q494.7 118.85 493.7 118.95 L490.9 118.8 Q484.35 119.2 480.3 120.9 479.15 121.35 474.65 124.05 472.85 125.1 470.25 127.2 L470.8 126.45 Q472.7 124.05 473.0 123.1 473.45 121.55 474.9 120.3 476.7 118.65 479.5 118.05 484.6 116.9 487.0 115.8 L490.8 113.6 494.35 111.1 Q497.25 108.8 497.25 107.9 L496.75 104.0 496.25 100.05 Q496.25 97.4 500.25 93.95 503.45 91.15 505.3 90.6 L506.6 90.3 505.9 90.05 Q507.35 89.25 507.35 88.6 507.35 87.25 504.5 86.5 L500.75 86.2 500.5 86.3 Q498.4 85.45 492.5 88.3 L486.9 91.6 Q485.4 91.75 483.2 92.4 477.6 94.0 476.1 95.05 L472.0 98.0 469.75 100.0 470.0 97.6 Q470.2 95.6 470.8 94.6 L471.85 93.45 473.55 91.85 Q473.75 91.6 474.5 91.25 475.3 90.85 475.65 90.8 L485.4 90.05 Q488.7 89.95 493.65 85.85 498.5 81.8 502.9 81.8 L503.05 81.8 506.75 81.55 510.65 82.2 514.5 82.8 521.8 82.0 522.7 81.65 Q525.15 80.9 529.0 81.7 L530.05 80.75 533.05 77.6 Q535.2 74.65 539.65 70.85 L541.1 69.7 540.2 69.6 540.55 69.2 Q543.1 66.7 544.75 65.55 L545.6 64.4 Q547.95 61.25 549.0 60.55 L552.8 57.1 Q555.35 55.15 561.6 55.65 L571.6 56.55 Q576.45 56.55 580.55 54.5 583.85 52.9 585.0 51.05 L586.3 47.75 587.25 44.3 Q588.15 41.1 591.3 37.85 L598.75 31.1 Q601.3 28.75 607.7 24.95 L613.95 20.9 M466.9 105.0 L465.75 107.3 Q464.65 109.55 463.4 110.55 L461.0 112.2 460.45 112.85 Q458.9 113.6 457.25 114.85 L455.05 116.8 Q454.75 117.2 453.35 120.75 L452.3 123.75 450.25 126.8 Q449.95 127.1 447.2 127.85 444.45 128.55 443.8 129.3 L441.5 132.05 440.75 134.65 Q440.15 136.8 439.25 137.7 435.7 141.4 434.05 143.6 431.55 146.85 431.15 149.15 429.7 157.75 429.4 160.55 L428.5 166.2 Q428.25 167.7 427.25 169.95 L427.15 170.2 Q427.0 169.8 427.0 169.15 L427.4 166.7 427.75 164.1 427.5 161.7 427.25 159.3 Q427.25 152.85 428.3 149.85 428.8 148.5 430.1 146.55 L429.8 146.5 430.05 146.1 430.4 145.05 Q430.4 143.7 426.45 142.1 422.45 140.5 420.75 141.3 L420.3 141.35 Q417.9 140.6 414.0 140.7 L410.75 141.05 Q413.1 139.55 415.0 138.6 L417.1 137.75 420.25 136.8 Q421.75 136.45 429.05 136.65 435.65 136.8 436.5 136.6 L437.25 134.6 438.0 133.4 438.3 131.3 438.5 128.35 Q438.55 126.8 440.0 125.6 441.6 124.3 445.95 123.45 450.0 122.65 450.65 121.8 451.9 120.25 452.95 115.8 453.95 111.9 456.15 110.1 L457.25 108.95 Q458.3 107.9 458.65 107.8 L465.4 106.05 466.9 105.0 M394.85 151.5 L394.75 151.65 Q392.0 156.2 390.1 158.05 L385.35 161.7 383.95 162.8 383.75 162.8 Q378.4 163.85 377.0 164.8 375.3 166.05 373.35 168.25 L370.75 171.4 364.9 177.8 361.25 180.95 Q360.55 181.45 358.25 182.55 L357.6 183.0 353.3 183.8 345.15 185.2 347.25 184.05 Q347.75 183.75 352.6 182.25 L357.55 180.6 361.95 177.05 Q364.85 174.55 366.05 172.35 368.1 168.5 373.05 164.9 L374.85 164.15 375.45 163.8 375.45 164.05 377.5 162.1 377.4 162.05 Q377.05 162.05 376.1 162.65 375.8 161.55 372.0 161.7 L371.1 161.75 370.2 161.6 365.1 162.2 Q363.2 162.7 361.2 163.95 L358.85 165.65 Q358.15 166.2 352.0 169.05 L350.4 169.85 340.8 170.65 327.65 171.85 Q323.75 172.6 321.35 173.95 313.4 178.8 309.7 178.8 304.35 178.8 295.85 175.8 294.4 174.65 291.35 173.15 285.0 170.1 280.25 170.55 L274.5 170.9 274.45 170.95 273.35 170.8 Q268.6 170.35 265.7 169.15 263.35 168.15 261.25 166.2 259.35 164.45 258.6 163.2 L257.5 162.0 256.9 161.05 Q255.8 159.2 254.75 158.2 L250.25 155.1 247.0 153.0 Q253.55 154.7 255.75 155.6 260.15 157.4 260.75 160.05 L261.75 164.85 Q262.9 168.5 268.25 167.85 L273.75 166.9 280.25 166.3 Q288.25 166.3 294.85 171.45 298.5 174.3 299.7 174.95 302.6 176.55 305.9 176.55 309.85 176.55 316.3 174.1 L322.5 171.55 325.2 170.45 Q327.15 169.5 328.25 169.3 L336.15 169.35 Q342.95 169.4 345.8 168.1 L353.75 162.65 Q362.55 157.3 368.25 157.3 369.95 157.3 372.4 158.2 L374.0 158.65 377.35 159.2 Q379.05 159.6 380.2 160.15 L385.1 157.35 Q386.5 156.65 387.6 156.4 L392.0 153.3 Q393.2 152.45 394.85 151.5 M245.25 151.6 Q244.3 150.5 244.0 149.0 L243.4 146.2 241.7 144.65 239.9 143.2 239.2 141.7 238.25 140.2 Q237.45 139.6 233.3 137.3 L229.25 134.9 Q228.85 133.8 228.8 132.95 230.1 134.75 232.3 135.6 L236.3 135.25 Q238.35 134.7 240.8 137.55 241.75 138.6 241.75 140.85 L242.25 142.8 243.65 143.15 245.3 143.55 Q246.2 144.25 246.5 145.0 L246.75 146.45 Q246.75 147.65 246.0 149.1 245.3 150.45 245.25 151.6 M226.75 126.25 Q223.85 121.2 217.0 117.05 L213.8 115.05 Q212.35 114.1 210.3 113.15 L206.85 111.45 Q204.95 110.4 204.15 109.45 202.05 106.85 200.9 103.0 L203.85 105.55 Q206.95 107.8 213.25 110.8 218.1 113.1 221.25 116.4 223.75 119.05 225.75 123.05 L226.75 126.25 M199.7 97.1 L199.45 95.5 199.65 92.05 199.9 88.7 Q199.9 87.0 199.25 85.0 198.4 82.5 197.1 81.55 195.45 80.35 192.4 79.85 L186.3 78.8 Q185.5 78.6 185.1 77.2 L184.65 75.3 183.45 73.45 Q182.4 72.3 181.35 71.7 180.1 70.4 177.9 70.7 176.45 70.85 173.25 72.05 167.25 74.3 166.75 74.7 L164.5 76.45 162.9 77.35 162.0 78.2 161.3 78.55 Q158.6 80.0 156.5 80.7 L157.3 81.3 159.25 81.85 Q164.75 82.8 166.45 83.75 167.6 84.45 169.25 87.05 170.9 89.65 174.25 90.35 177.95 91.1 179.25 92.55 181.1 94.65 180.75 99.1 180.35 104.3 181.05 106.05 182.55 109.7 188.45 112.35 193.55 114.65 193.55 117.8 L192.3 122.55 Q191.05 127.2 191.05 128.3 191.05 132.35 199.6 139.5 L210.7 148.45 212.45 149.45 Q213.9 150.4 214.65 151.3 215.45 152.3 216.1 154.9 L216.1 157.3 Q216.1 157.65 215.5 157.65 L215.4 157.65 214.15 154.8 Q213.55 152.75 211.55 150.55 209.55 148.2 206.8 146.55 L199.65 142.75 Q194.6 140.15 193.5 138.8 192.05 137.0 191.3 134.55 190.95 133.45 190.5 130.55 L190.1 126.3 Q189.95 123.7 189.25 122.3 L188.25 120.25 Q187.55 118.85 186.75 118.15 182.9 114.85 182.5 114.05 181.7 112.5 181.05 109.9 L180.05 105.8 179.25 103.5 179.25 102.35 178.3 100.1 Q178.0 99.5 174.85 98.3 171.9 97.25 171.75 96.05 L171.2 93.7 Q170.7 92.35 169.6 91.7 L165.55 89.4 Q164.15 88.75 161.3 87.8 156.65 86.2 155.15 83.45 154.2 80.4 153.05 79.05 L151.3 76.9 149.25 74.7 146.65 72.2 Q144.85 70.8 142.15 70.3 133.65 68.8 130.15 66.7 128.15 65.45 126.55 62.6 L124.35 58.1 Q122.95 55.35 121.1 53.8 119.0 51.95 115.15 49.25 L109.0 44.95 Q108.25 44.4 106.7 41.15 107.6 42.4 109.55 43.35 116.5 46.85 120.05 49.85 121.7 51.2 124.55 57.0 126.8 61.55 131.5 63.05 134.85 64.15 143.5 64.9 147.85 65.3 149.3 69.1 L149.45 70.15 Q150.7 72.35 152.35 75.9 L154.35 78.7 Q156.15 77.85 159.0 77.05 160.9 76.5 163.05 75.2 L163.0 74.8 164.0 74.55 165.5 73.6 165.9 73.95 Q168.05 73.15 170.2 71.85 175.9 68.35 176.75 68.35 180.9 68.35 183.85 70.5 185.65 71.8 186.25 73.05 188.25 76.75 190.05 76.9 L192.75 76.8 197.3 77.1 Q200.2 77.55 201.85 81.1 203.05 83.75 203.05 86.15 203.05 88.3 201.05 92.8 L200.05 95.3 199.7 97.1 M105.9 39.4 Q104.9 37.05 104.9 36.15 L105.25 34.0 Q105.3 33.55 104.3 31.9 L104.8 32.5 104.8 31.65 104.2 31.7 103.8 31.1 102.5 29.9 100.55 28.65 98.6 28.2 94.65 27.85 94.15 27.15 Q93.4 26.6 90.85 26.6 L87.5 27.1 81.05 27.55 Q78.25 27.55 77.4 25.4 L76.75 22.8 Q75.95 21.8 73.45 20.35 70.8 18.75 68.8 18.3 L63.85 16.5 61.15 15.8 62.7 15.4 63.2 14.55 67.85 15.6 76.0 17.6 Q78.45 19.05 79.25 20.4 L79.95 22.0 91.75 22.85 101.45 22.85 Q102.15 23.0 102.5 24.3 L104.3 26.1 105.7 27.7 Q106.35 28.6 106.5 29.55 106.9 32.15 106.05 36.3 105.7 38.3 105.9 39.4" fill="#585294" fill-rule="evenodd" stroke="none"/>
    <path d="M-534.8 478.7 L-529.6 259.9 665.4 261.15 665.4 545.7 660.65 546.45 Q637.55 550.0 631.6 550.0 535.6 551.15 520.45 555.2 506.9 558.9 453.5 558.9 451.25 558.9 419.25 551.8 385.8 544.55 375.6 543.55 L237.0 531.3 Q224.7 530.15 208.75 525.0 184.7 521.45 160.5 517.1 112.4 508.2 104.5 503.2 91.9 493.55 80.35 485.3 57.7 469.3 50.25 469.3 L-534.8 478.7" fill="url(#gradient2)" fill-rule="evenodd" stroke="none"/>
    <path d="M665.4 9.55 L665.8 9.55 Q747.5 9.55 773.65 14.8 782.25 16.45 784.4 18.65 785.65 19.8 795.65 14.55 788.9 26.25 818.0 16.05 829.25 25.85 849.6 17.4 869.95 9.0 853.35 45.75 836.75 82.5 845.0 99.8 850.75 111.75 855.2 131.3 861.15 155.8 862.55 162.8 866.3 180.55 867.75 194.3 870.1 215.3 867.75 257.15 L867.75 261.15 665.4 261.15 665.4 9.55" fill="url(#gradient3)" fill-rule="evenodd" stroke="none"/>
    <path d="M867.75 261.15 Q867.6 319.4 865.6 411.55 863.1 523.05 860.6 550.8 850.0 550.8 840.0 548.4 L787.65 545.15 732.45 542.75 665.4 545.7 665.4 261.15 867.75 261.15" fill="url(#gradient4)" fill-rule="evenodd" stroke="none"/>
  </g>
  <defs>
    <linearGradient gradientTransform="matrix(0.0, 0.2418, -1.0, 0.0, 964.65, 181.3)" gradientUnits="userSpaceOnUse" id="gradient0" spreadMethod="pad" x1="-819.2" x2="819.2">
      <stop offset="0.0" stop-color="#2f1a45"/>
      <stop offset="1.0" stop-color="#000000"/>
    </linearGradient>
    <radialGradient cx="0" cy="0" gradientTransform="matrix(0.5139, 0.0, 0.0, 0.3246, 190.0, 224.05)" gradientUnits="userSpaceOnUse" id="gradient1" r="819.2" spreadMethod="pad">
      <stop offset="0.0" stop-color="#552f7b"/>
      <stop offset="1.0" stop-color="#000000"/>
    </radialGradient>
    <linearGradient gradientTransform="matrix(0.0, 0.7803, -1.0, 0.0, 964.65, 3.4)" gradientUnits="userSpaceOnUse" id="gradient2" spreadMethod="pad" x1="-819.2" x2="819.2">
      <stop offset="0.0" stop-color="#2f1a45"/>
      <stop offset="1.0" stop-color="#000000"/>
    </linearGradient>
    <linearGradient gradientTransform="matrix(0.0, 0.2418, -3.5844, 0.0, 1738.05, 181.3)" gradientUnits="userSpaceOnUse" id="gradient3" spreadMethod="pad" x1="-819.2" x2="819.2">
      <stop offset="0.0" stop-color="#2f1a45"/>
      <stop offset="1.0" stop-color="#000000"/>
    </linearGradient>
    <linearGradient gradientTransform="matrix(0.0, 0.7803, -3.5844, 0.0, 1738.05, 3.4)" gradientUnits="userSpaceOnUse" id="gradient4" spreadMethod="pad" x1="-819.2" x2="819.2">
      <stop offset="0.0" stop-color="#2f1a45"/>
      <stop offset="1.0" stop-color="#000000"/>
    </linearGradient>
  </defs>
</svg>
