<?xml version="1.0" encoding="UTF-8" standalone="no"?>
<svg xmlns:xlink="http://www.w3.org/1999/xlink" height="354.35px" width="475.25px" xmlns="http://www.w3.org/2000/svg">
  <g transform="matrix(1.0, 0.0, 0.0, 1.0, 0.0, 0.0)">
    <path d="M473.5 7.65 Q474.85 9.15 475.15 15.95 L475.25 25.45 Q475.25 36.75 474.85 42.65 474.35 50.25 472.55 61.65 471.05 70.85 468.4 79.65 466.3 86.45 462.0 89.7 460.15 91.1 459.6 92.05 458.65 93.7 458.65 96.95 458.65 100.1 460.15 105.15 L460.7 106.8 462.55 105.75 Q462.5 106.95 461.2 108.4 L462.65 113.25 462.55 113.65 Q460.85 112.45 459.6 109.9 L458.3 110.85 456.15 112.2 456.15 114.0 Q457.15 120.55 457.15 123.2 457.15 137.0 455.9 143.95 L451.8 161.45 451.9 161.4 452.3 161.75 Q451.85 162.25 451.65 163.55 L452.2 163.45 454.4 163.15 453.2 164.2 Q452.25 165.1 451.45 165.4 L451.4 166.3 451.4 169.85 Q451.4 172.55 450.6 181.5 449.8 190.1 449.0 194.0 L451.4 198.75 Q454.65 205.1 454.65 211.05 454.3 217.65 453.15 224.0 451.8 231.6 450.0 234.6 L449.75 236.45 449.4 239.1 Q449.4 239.75 455.55 266.25 461.65 293.7 461.65 299.0 461.65 309.6 450.65 327.5 449.9 328.75 447.55 331.05 L444.05 334.6 Q440.05 339.25 432.25 340.4 L421.8 341.1 Q416.5 341.85 412.05 343.0 L417.15 347.5 417.15 348.6 417.0 348.8 416.0 349.0 Q414.1 349.0 410.75 346.5 L407.8 344.15 Q405.35 344.9 403.15 345.8 401.4 346.55 397.8 348.45 398.75 351.35 400.05 354.1 L399.8 354.35 Q397.7 352.8 396.2 349.25 394.0 350.4 391.3 351.85 L391.05 351.6 Q391.75 349.6 395.5 347.45 394.45 344.5 393.75 340.5 L393.4 338.35 Q389.1 336.55 382.65 335.2 371.0 332.75 355.65 332.75 L317.75 333.6 312.95 333.75 314.5 336.85 314.5 337.1 312.3 333.8 303.8 334.2 303.55 334.25 307.9 339.35 307.05 340.5 Q303.65 338.3 300.25 334.4 L296.25 334.6 291.45 334.0 289.3 334.1 Q287.45 334.2 285.8 334.85 283.9 335.65 279.75 336.1 278.85 336.2 278.0 336.65 L277.25 337.1 252.0 337.85 244.0 338.3 236.0 338.6 Q228.3 338.6 218.85 337.25 210.9 336.05 187.15 336.75 176.8 337.0 162.3 336.5 L146.75 335.6 Q126.3 332.55 120.0 332.05 115.9 331.75 100.0 331.75 L69.3 332.95 58.6 334.1 49.9 333.85 49.1 333.35 49.0 333.95 48.75 334.0 0.25 333.85 Q0.0 334.55 0.0 333.3 0.0 332.8 0.25 332.75 L1.0 332.65 1.0 332.4 Q1.0 331.75 11.1 325.3 L26.0 315.75 Q33.65 310.5 56.85 299.75 62.5 297.05 72.85 293.85 84.1 290.35 94.25 288.35 113.95 284.45 129.6 279.55 141.7 276.85 170.25 278.1 195.0 278.0 197.5 278.5 L206.25 279.1 211.0 280.0 218.4 281.65 Q221.45 282.15 224.0 283.0 232.4 285.85 240.5 289.0 L240.65 289.05 243.3 290.1 Q248.95 292.5 255.25 296.3 L268.05 304.75 280.45 313.2 Q287.7 318.2 291.8 321.75 296.0 325.35 300.1 330.15 L302.0 332.4 308.0 332.1 311.15 332.0 Q300.95 316.1 298.0 306.6 L292.15 288.3 Q288.1 276.6 287.0 276.6 281.05 276.6 276.6 280.5 L273.85 283.15 Q272.55 284.35 271.65 284.35 269.75 284.35 269.2 279.5 L269.0 274.6 270.0 256.05 269.9 250.85 269.9 250.6 266.75 258.6 265.35 258.5 266.8 252.65 268.1 246.85 268.1 246.6 Q265.3 250.55 263.25 256.25 L259.75 266.0 258.6 266.0 258.4 265.75 258.35 264.85 Q258.35 259.5 261.85 249.7 258.45 251.75 257.85 252.25 L254.4 255.85 251.6 259.0 250.25 258.85 Q250.0 259.55 250.0 258.3 250.0 256.75 253.4 240.25 L256.15 227.05 Q253.85 230.35 251.25 233.0 249.9 232.55 249.35 232.1 254.05 225.05 257.25 216.2 259.9 209.1 261.85 199.95 L264.0 185.1 263.95 182.4 259.35 188.45 Q256.6 192.3 255.05 196.9 253.95 200.3 253.1 205.6 L253.05 205.8 252.15 206.0 Q249.85 206.0 249.4 202.45 249.15 200.65 249.35 198.7 249.35 194.1 250.2 189.8 L250.35 189.05 250.35 188.25 255.4 162.75 257.85 151.7 257.85 149.25 Q255.65 153.9 254.3 160.85 253.35 165.75 252.6 173.25 L251.75 173.7 Q251.1 173.0 250.95 171.4 L250.85 168.7 Q250.85 156.35 254.25 145.35 255.4 141.6 257.35 137.0 L253.65 140.5 Q248.85 145.0 244.75 147.5 L244.0 147.2 Q243.85 147.0 243.85 146.15 243.85 145.1 247.25 136.6 250.55 128.3 252.25 124.9 L252.25 124.75 Q250.2 125.65 247.2 127.95 244.2 130.25 243.25 130.65 L242.1 130.55 Q241.85 130.45 241.85 129.6 241.85 128.15 251.15 109.85 248.3 115.15 245.75 118.5 L245.0 118.25 244.95 118.35 244.85 117.5 Q244.85 117.1 250.85 104.4 252.1 101.6 254.2 97.95 L258.1 91.25 258.35 90.9 Q251.55 94.35 246.0 100.35 240.3 107.25 237.0 110.5 L235.35 110.15 Q239.6 104.2 242.75 100.55 247.65 94.9 253.5 90.25 255.6 88.6 258.3 85.4 L259.7 83.8 254.2 86.55 Q248.1 89.65 241.85 91.4 L238.75 91.4 238.55 91.25 238.5 90.45 Q238.5 89.95 254.5 76.7 272.9 61.45 280.75 52.75 L281.0 52.4 272.5 55.55 Q265.45 58.0 262.75 58.0 259.95 58.0 259.5 57.5 269.6 52.4 281.8 43.85 L302.15 29.15 310.8 22.1 Q316.45 17.3 320.4 14.9 327.85 10.25 337.55 6.2 342.75 4.0 346.0 3.15 L346.0 2.65 352.0 2.25 357.75 1.4 363.35 0.8 Q372.55 0.2 395.3 0.0 L459.9 2.5 467.1 3.95 Q470.95 4.85 473.5 7.65 M377.65 131.5 L352.6 131.4 Q355.2 138.95 360.0 148.0 L359.65 148.4 Q348.15 141.4 339.8 133.5 332.55 134.85 329.65 135.9 310.6 142.65 303.3 153.05 298.0 160.6 298.0 172.25 298.0 173.0 299.45 175.85 L301.15 179.0 302.1 180.65 Q302.75 181.75 303.5 182.4 304.0 182.9 306.0 183.9 310.25 186.4 312.55 182.85 313.1 182.05 313.55 181.8 L313.15 181.25 310.5 177.25 310.5 177.1 310.35 176.4 Q310.35 176.15 311.15 176.15 312.6 176.15 318.05 177.65 L323.9 179.15 Q324.0 178.2 322.95 176.35 321.8 174.45 321.9 173.15 L322.0 173.1 323.0 173.0 Q324.2 173.0 327.7 173.95 L333.0 174.9 333.9 174.75 Q333.45 173.55 332.0 171.75 L331.95 171.95 331.9 171.2 Q331.9 168.9 351.65 169.75 L353.5 169.75 351.75 169.2 Q350.4 168.65 350.0 168.25 L349.95 168.45 349.9 167.7 Q349.9 167.25 350.7 166.9 351.8 166.4 353.75 166.4 366.0 166.4 371.05 168.25 L370.9 165.5 373.55 165.5 390.35 171.85 Q404.45 177.25 405.05 177.25 417.3 177.25 421.45 175.65 423.75 174.8 425.15 173.15 426.8 172.4 428.8 170.9 L431.4 168.65 433.1 166.0 Q434.2 164.8 437.65 164.65 L449.25 163.85 452.0 153.1 Q455.4 138.1 455.4 123.2 L454.75 113.15 Q452.6 114.5 451.55 115.25 L445.7 120.1 Q442.1 123.2 439.3 124.65 L431.9 127.9 427.85 129.3 427.85 129.5 Q429.3 145.35 430.55 153.15 L430.55 157.65 430.3 157.8 430.15 158.0 Q428.6 157.45 427.7 155.3 L426.55 152.25 Q425.8 150.9 424.3 146.25 L421.95 140.35 Q420.3 136.5 418.4 134.25 L415.95 130.9 405.05 131.3 Q406.05 136.8 406.05 142.65 406.05 145.4 405.55 148.7 L404.3 155.75 404.15 156.0 Q401.95 154.25 400.95 150.5 L399.4 144.25 Q397.95 140.05 392.8 132.25 L392.3 131.5 377.65 131.5 M373.9 167.95 L374.0 167.8 373.55 167.65 373.9 167.95 M362.8 197.5 Q353.45 200.95 346.55 206.0 345.05 207.15 337.25 214.9 329.4 222.65 329.4 223.0 329.4 223.45 330.15 224.2 L331.15 225.0 338.6 217.1 Q343.95 211.7 348.9 209.0 L355.4 204.9 Q359.05 202.4 361.45 201.2 369.25 197.25 385.15 195.15 375.9 192.6 362.8 197.5 M418.3 131.0 L418.3 130.8 418.15 130.8 418.3 131.0 M450.05 168.75 L450.15 168.75 450.15 168.35 450.05 168.75 M451.15 203.05 Q447.85 196.95 446.4 192.75 438.0 198.95 435.7 203.55 434.05 206.85 434.05 214.05 434.05 218.75 436.95 226.25 440.2 234.75 443.55 234.75 448.05 234.75 449.8 230.7 L451.65 223.0 Q452.25 220.65 452.6 216.1 L452.9 211.0 Q452.9 206.3 451.15 203.05 M413.9 281.3 Q413.9 279.3 411.7 274.25 409.2 268.45 408.9 267.05 408.05 262.8 404.9 258.6 401.65 254.25 399.05 254.25 389.35 254.25 386.05 256.8 384.8 257.75 382.15 260.7 L376.15 267.05 369.75 273.7 Q365.4 277.75 360.0 280.3 L354.75 282.55 Q351.7 283.95 349.75 285.5 344.7 289.4 343.65 292.1 L340.55 298.85 Q338.65 302.95 338.65 305.4 338.65 308.3 342.3 312.3 L347.9 318.6 351.75 324.95 352.15 325.65 371.45 326.6 Q381.8 328.05 390.55 332.1 L392.75 332.75 Q392.4 328.9 392.4 324.85 392.4 311.25 403.15 299.1 L410.55 290.55 Q413.9 285.9 413.9 281.3 M391.35 218.25 L395.55 213.25 392.4 211.8 390.35 211.4 388.4 211.25 388.8 213.2 389.05 215.3 Q389.05 216.0 387.05 222.75 388.7 221.45 391.35 218.25 M336.0 234.0 L335.65 234.3 335.95 234.35 336.85 234.55 339.0 234.8 348.9 233.9 353.35 233.15 Q351.45 232.0 349.5 230.05 345.85 226.4 345.55 224.85 343.6 226.15 341.15 228.8 L338.8 231.25 336.0 234.0 M393.0 335.15 L388.15 333.25 Q381.35 330.7 377.4 329.7 369.15 327.6 359.9 327.5 L353.3 327.85 354.7 330.9 355.25 330.85 Q379.75 330.85 389.8 334.7 L393.1 336.25 393.0 335.15 M397.65 338.35 Q402.6 340.7 408.4 342.1 406.95 341.05 398.45 337.45 L394.9 335.95 395.05 337.15 397.65 338.35 M395.4 339.25 Q396.1 343.0 397.15 346.55 398.75 345.7 400.8 344.85 403.15 343.85 405.75 343.0 403.65 342.05 400.75 341.2 397.95 340.4 395.4 339.25 M350.45 325.65 L350.4 325.6 350.4 325.65 350.45 325.65 M265.75 55.75 L266.4 55.6 266.4 55.4 265.75 55.75 M241.25 89.75 L241.3 89.75 241.25 89.5 241.25 89.75 M246.1 144.25 L246.1 144.65 246.25 144.55 246.1 144.25 M4.75 332.45 L48.05 332.35 Q50.75 325.9 59.95 318.8 70.5 310.7 84.25 305.85 L98.15 300.65 Q106.35 297.7 115.25 295.65 139.35 290.15 192.25 286.1 192.25 286.0 204.3 286.0 217.0 286.05 221.25 286.35 L224.65 287.0 229.4 287.6 231.95 287.85 227.15 286.2 Q207.05 279.75 194.65 279.75 169.15 279.9 138.6 280.35 L132.6 281.1 128.35 282.0 126.25 282.6 120.1 284.35 96.1 290.1 Q73.9 295.2 56.6 302.0 42.9 307.45 24.0 319.2 13.0 326.05 4.55 332.15 L4.1 332.5 4.75 332.45 M252.0 255.6 L252.1 255.75 252.15 255.75 252.0 255.6" fill="#000000" fill-rule="evenodd" stroke="none"/>
    <path d="M377.65 131.5 L392.3 131.5 392.8 132.25 Q397.95 140.05 399.4 144.25 L400.95 150.5 Q401.95 154.25 404.15 156.0 L404.3 155.75 405.55 148.7 Q406.05 145.4 406.05 142.65 406.05 136.8 405.05 131.3 L415.95 130.9 418.4 134.25 Q420.3 136.5 421.95 140.35 L424.3 146.25 Q425.8 150.9 426.55 152.25 L427.7 155.3 Q428.6 157.45 430.15 158.0 L430.3 157.8 430.55 157.65 430.55 153.15 Q429.3 145.35 427.85 129.5 L427.85 129.3 431.9 127.9 439.3 124.65 Q442.1 123.2 445.7 120.1 L451.55 115.25 Q452.6 114.5 454.75 113.15 L455.4 123.2 Q455.4 138.1 452.0 153.1 L449.25 163.85 437.65 164.65 Q434.2 164.8 433.1 166.0 L431.4 168.65 428.8 170.9 Q426.8 172.4 425.15 173.15 423.75 174.8 421.45 175.65 417.3 177.25 405.05 177.25 404.45 177.25 390.35 171.85 L373.55 165.5 370.9 165.5 371.05 168.25 Q366.0 166.4 353.75 166.4 351.8 166.4 350.7 166.9 349.9 167.25 349.9 167.7 L349.95 168.45 350.0 168.25 Q350.4 168.65 351.75 169.2 L353.5 169.75 351.65 169.75 Q331.9 168.9 331.9 171.2 L331.95 171.95 332.0 171.75 Q333.45 173.55 333.9 174.75 L333.0 174.9 327.7 173.95 Q324.2 173.0 323.0 173.0 L322.0 173.1 321.9 173.15 Q321.8 174.45 322.95 176.35 324.0 178.2 323.9 179.15 L318.05 177.65 Q312.6 176.15 311.15 176.15 310.35 176.15 310.35 176.4 L310.5 177.1 310.5 177.25 313.15 181.25 313.55 181.8 Q313.1 182.05 312.55 182.85 310.25 186.4 306.0 183.9 304.0 182.9 303.5 182.4 302.75 181.75 302.1 180.65 L301.15 179.0 299.45 175.85 Q298.0 173.0 298.0 172.25 298.0 160.6 303.3 153.05 310.6 142.65 329.65 135.9 332.55 134.85 339.8 133.5 348.15 141.4 359.65 148.4 L360.0 148.0 Q355.2 138.95 352.6 131.4 L377.65 131.5 M362.8 197.5 Q375.9 192.6 385.15 195.15 369.25 197.25 361.45 201.2 359.05 202.4 355.4 204.9 L348.9 209.0 Q343.95 211.7 338.6 217.1 L331.15 225.0 330.15 224.2 Q329.4 223.45 329.4 223.0 329.4 222.65 337.25 214.9 345.05 207.15 346.55 206.0 353.45 200.95 362.8 197.5 M413.9 281.3 Q413.9 285.9 410.55 290.55 L403.15 299.1 Q392.4 311.25 392.4 324.85 392.4 328.9 392.75 332.75 L390.55 332.1 Q381.8 328.05 371.45 326.6 L352.15 325.65 351.75 324.95 347.9 318.6 342.3 312.3 Q338.65 308.3 338.65 305.4 338.65 302.95 340.55 298.85 L343.65 292.1 Q344.7 289.4 349.75 285.5 351.7 283.95 354.75 282.55 L360.0 280.3 Q365.4 277.75 369.75 273.7 L376.15 267.05 382.15 260.7 Q384.8 257.75 386.05 256.8 389.35 254.25 399.05 254.25 401.65 254.25 404.9 258.6 408.05 262.8 408.9 267.05 409.2 268.45 411.7 274.25 413.9 279.3 413.9 281.3 M451.15 203.05 Q452.9 206.3 452.9 211.0 L452.6 216.1 Q452.25 220.65 451.65 223.0 L449.8 230.7 Q448.05 234.75 443.55 234.75 440.2 234.75 436.95 226.25 434.05 218.75 434.05 214.05 434.05 206.85 435.7 203.55 438.0 198.95 446.4 192.75 447.85 196.95 451.15 203.05" fill="#314826" fill-rule="evenodd" stroke="none"/>
    <path d="M391.35 218.25 Q388.7 221.45 387.05 222.75 389.05 216.0 389.05 215.3 L388.8 213.2 388.4 211.25 390.35 211.4 392.4 211.8 395.55 213.25 391.35 218.25 M335.95 234.35 L336.0 234.0 338.8 231.25 341.15 228.8 Q343.6 226.15 345.55 224.85 345.85 226.4 349.5 230.05 351.45 232.0 353.35 233.15 L348.9 233.9 339.0 234.8 336.85 234.55 335.95 234.35" fill="#f7ffaa" fill-rule="evenodd" stroke="none"/>
    <path d="M4.55 332.15 Q13.0 326.05 24.0 319.2 42.9 307.45 56.6 302.0 73.9 295.2 96.1 290.1 L120.1 284.35 126.25 282.6 128.35 282.0 132.6 281.1 138.6 280.35 Q169.15 279.9 194.65 279.75 207.05 279.75 227.15 286.2 L231.95 287.85 229.4 287.6 224.65 287.0 221.25 286.35 Q217.0 286.05 204.3 286.0 192.25 286.0 192.25 286.1 139.35 290.15 115.25 295.65 106.35 297.7 98.15 300.65 L84.25 305.85 Q70.5 310.7 59.95 318.8 50.75 325.9 48.05 332.35 L4.75 332.45 4.55 332.15" fill="#777777" fill-rule="evenodd" stroke="none"/>
    <path d="M408.75 233.6 L409.0 233.6 Q411.1 239.85 411.4 245.85 L411.95 246.35 412.85 247.65 413.1 248.35 Q412.45 249.4 411.45 249.6 410.95 262.8 401.85 274.95 388.25 293.1 364.1 294.65 343.0 296.05 330.95 279.75 330.8 278.6 331.3 277.6 L331.95 276.05 332.35 274.7 332.65 273.95 Q340.0 270.7 345.85 275.05 L347.4 276.35 Q369.6 274.3 383.75 257.7 389.45 251.0 392.8 243.25 L393.85 243.1 393.05 242.55 392.2 242.05 391.5 241.85 390.95 242.0 390.2 242.55 389.65 243.25 389.1 243.8 388.05 243.95 387.5 243.5 387.75 242.8 388.3 241.4 389.25 239.95 389.7 239.5 389.7 238.65 389.85 234.35 389.85 233.05 Q386.75 237.05 382.2 239.75 L380.0 240.9 Q377.35 243.15 373.85 244.45 371.5 245.35 370.1 243.5 L369.9 242.65 369.15 242.55 Q368.65 242.65 368.3 242.95 L367.85 243.45 366.6 244.75 Q366.0 245.2 365.25 245.45 L362.95 244.1 361.45 242.8 359.55 245.0 358.5 246.4 Q358.5 246.75 358.65 246.8 L361.05 248.15 Q362.85 249.4 364.8 249.1 L365.5 249.05 Q363.5 251.75 359.55 250.7 356.55 249.9 353.9 248.1 355.5 243.65 358.5 240.15 L347.9 240.8 Q339.95 240.95 341.1 244.45 341.7 244.7 342.25 245.1 L342.75 245.7 342.85 246.35 342.3 247.85 340.2 247.95 335.25 248.3 Q332.95 248.9 334.35 247.85 L335.25 247.5 335.5 247.3 334.6 245.55 334.15 244.25 334.1 243.5 Q334.35 242.8 334.75 242.15 336.1 240.15 338.15 239.05 L340.85 237.25 339.2 237.3 334.65 236.7 334.1 236.25 333.7 234.8 333.3 232.75 332.8 230.45 332.65 229.0 Q350.55 219.15 370.6 213.55 375.8 212.1 381.45 212.0 389.4 211.85 395.25 207.05 396.45 207.25 397.5 207.8 398.65 208.35 398.75 209.7 L398.75 211.85 398.6 212.6 399.55 213.35 400.2 214.1 400.55 214.75 400.8 215.5 Q397.6 219.4 395.15 223.7 396.2 224.65 396.95 225.95 398.6 228.65 399.6 231.85 400.65 235.15 400.35 238.4 L400.05 239.15 Q398.95 239.05 398.1 238.55 L397.1 237.5 396.3 235.95 395.6 234.6 395.45 234.55 395.5 236.0 Q395.5 237.15 395.1 238.25 394.75 239.2 394.55 240.3 L395.0 240.6 396.2 241.35 398.05 240.9 399.15 240.55 Q401.05 239.85 403.0 239.4 L404.9 239.15 Q406.65 239.65 407.4 241.3 L407.55 241.55 408.25 240.85 407.6 238.65 Q407.3 237.45 407.9 236.4 408.45 235.45 408.2 234.35 408.0 233.45 408.75 233.6 M407.15 248.0 Q406.8 248.8 406.6 249.6 406.1 251.4 406.0 253.4 L405.35 257.75 405.15 258.5 Q407.35 257.5 408.1 254.85 408.7 252.75 408.7 250.5 L408.65 248.9 407.15 248.0 M378.6 227.1 L379.05 226.35 379.15 225.85 379.05 225.75 378.3 225.85 374.65 227.25 371.6 228.45 Q370.25 229.0 368.9 229.7 L367.45 230.45 Q366.85 230.8 366.85 231.2 366.85 231.55 367.4 231.95 L368.15 232.65 368.25 232.75 Q373.25 230.0 378.35 227.7 L378.6 227.1 M372.75 236.15 Q374.8 233.65 377.6 231.9 373.25 233.1 369.4 235.75 L372.75 236.15 M402.85 245.7 L402.95 247.15 402.45 247.85 402.3 248.05 Q401.8 250.65 399.9 253.1 396.65 257.25 394.0 261.8 L390.15 267.9 Q397.8 266.85 401.4 258.0 403.65 252.45 404.9 246.75 L405.0 246.3 404.05 245.3 Q402.65 243.75 402.85 245.7 M340.85 285.8 Q345.7 289.6 351.75 290.5 L355.4 290.95 Q361.5 291.7 367.45 290.7 371.5 290.05 373.95 288.45 360.95 291.6 348.9 286.75 346.4 285.75 343.9 286.4 342.45 286.8 341.55 285.85 L340.85 285.8 M402.75 265.3 Q402.25 265.95 401.85 266.75 L401.25 268.15 401.05 268.85 401.9 268.05 402.95 266.7 Q403.65 265.7 403.7 264.5 L403.45 264.5 402.75 265.3 M397.15 268.65 Q390.35 273.7 382.75 277.05 374.9 280.5 366.6 282.75 358.95 284.85 350.8 285.3 366.05 288.1 381.2 284.05 388.55 282.1 393.4 276.2 395.65 273.55 397.2 270.45 397.9 269.1 397.45 268.55 L397.15 268.65 M381.2 287.0 L380.0 287.25 378.8 287.45 377.6 287.7 376.4 287.95 377.85 287.9 379.3 287.7 381.35 287.1 381.2 287.0 M398.9 273.65 Q399.05 273.15 398.6 273.7 L397.6 275.15 Q396.55 276.6 397.75 275.5 L398.9 273.65 M391.45 282.75 L393.15 281.05 394.65 279.0 394.5 279.0 393.05 280.45 391.35 281.9 389.45 283.35 388.45 284.1 Q390.15 283.95 391.45 282.75" fill="#000000" fill-rule="evenodd" stroke="none"/>
  </g>
</svg>
