<?xml version="1.0" encoding="UTF-8" standalone="no"?>
<svg xmlns:xlink="http://www.w3.org/1999/xlink" height="120.7px" width="189.05px" xmlns="http://www.w3.org/2000/svg">
  <g transform="matrix(1.0, 0.0, 0.0, 1.0, 0.0, 0.0)">
    <path d="M187.95 103.05 Q194.3 112.1 164.25 116.8 139.25 120.7 97.3 120.7 73.15 120.7 52.25 115.95 46.65 114.7 39.6 112.6 L38.25 107.95 33.65 94.7 Q29.15 82.95 25.15 77.6 L12.7 61.15 Q5.6 51.4 3.0 44.25 -4.55 23.85 6.8 12.6 19.4 0.0 54.6 0.0 94.95 0.0 136.05 39.35 150.8 53.45 166.25 73.25 173.75 82.9 187.95 103.05" fill="#000000" fill-opacity="0.2" fill-rule="evenodd" stroke="none"/>
  </g>
</svg>
