<?xml version="1.0" encoding="UTF-8" standalone="no"?>
<svg xmlns:xlink="http://www.w3.org/1999/xlink" height="338.25px" width="540.4px" xmlns="http://www.w3.org/2000/svg">
  <g transform="matrix(1.0, 0.0, 0.0, 1.0, 252.5, 142.45)">
    <path d="M157.5 -12.25 Q171.6 -15.0 189.8 -17.2 L217.0 -19.1 Q236.4 -19.4 246.05 -16.05 257.35 -15.3 262.4 -13.7 265.15 -12.85 268.15 -11.3 L270.65 -10.05 Q272.45 -9.2 275.65 -8.8 L278.85 -8.3 278.8 -9.05 Q278.8 -9.8 279.25 -9.85 L279.65 -9.8 Q280.9 -9.05 281.95 -7.25 282.9 -6.75 283.3 -6.05 L282.9 -5.35 283.8 -2.8 285.9 0.5 Q287.9 3.55 287.9 4.35 287.9 8.6 271.2 20.9 L251.15 34.85 Q237.9 44.8 232.4 50.6 L223.9 59.3 Q217.75 65.35 217.15 65.35 216.95 65.35 212.55 63.15 L205.85 59.6 Q203.95 58.45 201.65 56.3 L197.6 52.35 Q197.1 52.45 195.4 54.55 193.3 57.15 190.95 58.85 182.6 64.85 166.1 64.85 157.7 64.85 148.15 63.0 138.55 61.1 124.4 61.1 112.75 61.1 103.2 65.25 94.4 69.05 86.45 76.85 L77.65 85.2 Q72.7 90.0 70.1 93.7 64.25 102.0 59.35 110.8 54.3 119.9 51.2 127.85 L37.6 161.65 32.8 173.75 Q41.25 175.9 48.95 178.85 48.95 180.1 47.6 180.1 42.65 180.1 38.9 178.45 35.35 176.5 33.35 175.85 L32.1 175.5 Q27.5 187.35 24.7 195.8 L24.35 195.8 Q24.65 188.5 28.35 178.0 L29.55 175.0 29.05 174.95 19.6 173.6 Q2.0 170.6 -11.45 169.35 -32.45 167.3 -39.4 164.15 -46.7 160.8 -46.7 152.9 -46.7 131.85 -13.25 91.3 -0.2 75.4 14.8 60.6 28.65 46.9 38.2 39.85 L57.6 25.7 Q68.9 17.95 81.2 11.7 94.6 4.95 112.8 -1.1 127.4 -6.0 136.35 -7.8 L157.5 -12.25" fill="#000000" fill-rule="evenodd" stroke="none"/>
    <path d="M138.7 -107.2 Q146.15 -111.55 152.35 -117.7 L160.0 -125.5 Q164.85 -130.5 170.55 -134.85 L170.7 -134.95 Q175.6 -138.6 181.6 -140.85 190.6 -144.3 198.9 -140.2 200.85 -139.25 202.2 -137.35 L203.55 -134.95 Q205.35 -130.4 202.65 -125.55 209.2 -127.75 215.6 -125.4 226.05 -121.3 226.75 -110.2 L226.8 -108.75 Q239.2 -110.6 245.95 -99.95 252.65 -89.5 249.3 -77.55 257.15 -85.05 264.75 -77.3 L265.3 -77.2 265.3 -76.75 Q274.95 -69.55 278.3 -58.6 279.1 -55.9 279.15 -52.95 279.3 -44.15 276.85 -35.8 L286.0 -25.55 285.8 -8.45 Q258.55 15.0 233.3 40.65 L220.35 53.25 Q216.75 53.05 214.65 50.2 208.6 42.15 200.7 35.85 189.75 43.6 177.45 48.85 175.45 49.75 173.2 50.1 163.45 50.55 155.3 44.95 153.4 43.7 151.15 43.7 L143.25 43.5 Q133.4 44.25 126.3 37.45 L104.05 38.7 99.75 38.95 Q70.15 51.75 52.85 78.95 49.75 83.75 46.15 88.3 24.35 115.45 -0.25 140.4 L-8.7 149.35 -12.85 153.95 -9.9 154.05 -9.2 154.8 -9.7 156.0 -14.9 156.35 -16.7 157.8 -17.35 156.85 -48.9 156.5 -52.65 160.35 -53.55 160.3 -53.85 159.7 -52.2 156.5 Q-113.05 156.9 -173.95 156.7 L-202.2 157.6 -230.4 160.35 -239.55 172.8 -240.6 172.9 Q-238.15 165.85 -233.1 160.0 L-238.7 165.1 -235.05 159.6 -247.85 154.45 -251.65 159.1 -252.5 159.25 Q-251.35 152.75 -246.05 148.2 L-236.0 138.85 Q-207.8 111.15 -174.1 90.0 -144.4 71.4 -113.9 54.0 L-64.7 26.0 Q-28.3 5.0 3.15 -22.95 11.95 -30.8 20.0 -39.6 31.6 -52.35 45.0 -63.15 62.4 -77.05 83.2 -85.0 L88.2 -87.0 93.25 -88.9 104.05 -92.9 108.35 -94.4 Q115.5 -96.8 122.65 -99.55 126.85 -101.1 130.85 -103.05 134.85 -105.0 138.7 -107.2 M135.25 -101.8 L117.55 -90.0 Q120.2 -87.25 122.0 -84.15 L122.55 -82.9 Q127.8 -81.7 132.55 -79.4 135.4 -78.05 137.65 -75.95 147.75 -66.65 155.65 -55.05 156.25 -54.15 156.4 -53.0 156.8 -49.45 155.85 -45.75 163.45 -40.65 168.4 -32.7 169.55 -30.9 171.15 -29.4 177.3 -23.8 182.05 -17.15 L194.75 -17.0 194.7 -16.8 Q195.15 -14.7 196.55 -13.3 L197.5 -12.3 200.0 -13.25 199.75 -14.15 200.6 -16.7 200.4 -16.9 Q172.35 -45.85 146.3 -76.75 140.8 -83.3 136.0 -90.35 L135.1 -90.5 135.8 -90.85 135.85 -91.45 136.3 -91.35 Q142.9 -97.25 150.15 -102.1 L166.15 -113.0 166.7 -112.9 202.45 -75.45 223.4 -54.05 226.6 -54.8 Q235.65 -56.45 238.75 -47.85 240.2 -43.7 239.6 -39.35 246.3 -34.8 251.9 -29.1 254.85 -26.1 257.35 -22.6 254.15 -17.55 249.2 -14.1 244.75 -11.05 241.05 -7.15 L240.75 -7.2 239.4 -6.15 239.6 -5.65 Q241.3 -1.35 240.8 2.95 240.1 8.8 235.6 12.5 229.1 17.9 221.5 21.85 L227.9 27.35 235.4 19.2 Q248.0 4.9 262.15 -7.95 272.1 -16.9 281.1 -26.95 277.15 -32.0 272.65 -36.55 L267.65 -41.7 Q263.35 -45.95 257.8 -48.85 251.1 -52.35 247.4 -58.6 245.95 -61.05 245.85 -64.0 239.65 -69.45 234.9 -75.95 234.55 -76.35 234.35 -76.85 L225.85 -73.5 Q222.9 -72.4 220.0 -72.5 209.75 -73.1 204.8 -82.25 202.05 -87.3 201.55 -93.2 198.7 -93.05 195.9 -93.8 192.45 -94.7 190.15 -97.3 183.7 -104.65 187.25 -114.2 188.3 -117.0 190.55 -119.1 L177.15 -127.95 Q165.1 -120.35 153.25 -113.1 144.1 -107.55 135.25 -101.8 M2.85 -17.55 Q-6.75 -12.3 -15.3 -5.3 -25.35 2.95 -36.15 10.35 -62.9 28.6 -91.25 44.4 -129.05 65.5 -163.35 92.05 -183.35 107.55 -202.1 124.8 -218.4 139.75 -231.3 157.55 L-225.2 151.55 -228.3 157.2 -202.9 155.05 Q-166.7 153.55 -130.45 153.45 -109.0 153.4 -87.45 153.6 L-49.9 153.8 -40.2 144.5 Q-13.5 120.5 12.55 95.85 L25.95 82.95 Q40.45 68.6 54.55 53.9 L62.25 46.3 Q75.95 33.45 83.35 16.2 86.25 9.4 84.5 2.35 83.15 -2.95 80.75 -7.7 L81.15 -8.25 Q79.1 -17.55 80.0 -26.9 L80.15 -28.55 Q80.25 -31.25 82.55 -32.65 L83.3 -32.35 83.3 -30.2 Q82.0 -20.2 83.55 -10.2 83.8 -13.2 84.55 -16.0 86.5 -23.35 91.55 -29.15 L92.3 -28.85 Q92.45 -28.2 92.25 -27.65 90.15 -21.75 89.15 -15.6 87.85 -7.3 90.3 0.8 93.05 -4.6 94.85 -10.4 97.65 -19.25 103.55 -26.45 L104.25 -26.05 Q104.8 -24.15 104.05 -22.45 L103.75 -21.9 Q101.0 -17.5 99.9 -12.85 97.5 -2.3 102.35 7.15 103.05 8.55 104.05 9.7 L105.2 10.85 Q112.95 17.5 123.45 18.6 129.1 19.25 134.3 17.2 L136.1 16.0 Q140.55 11.75 144.65 7.0 146.4 7.15 147.9 8.2 149.45 9.25 149.75 10.8 151.15 18.1 154.8 24.35 L159.05 26.55 Q166.35 26.85 173.35 28.1 175.05 28.25 176.4 29.0 179.95 31.0 184.0 31.15 186.9 31.2 189.35 29.85 201.75 22.7 212.3 12.85 217.15 8.25 221.6 3.25 224.65 -0.1 228.25 -2.35 L231.4 -2.5 Q235.7 -0.55 238.8 3.2 L238.0 -1.95 236.65 -7.15 Q234.05 -15.4 235.2 -24.1 236.55 -34.4 237.0 -44.75 L234.85 -46.8 231.45 -46.75 Q228.65 -40.75 229.75 -34.3 230.7 -28.5 234.65 -24.2 232.85 -24.5 231.55 -25.7 228.15 -28.7 227.25 -33.5 225.65 -41.6 230.3 -48.7 L226.6 -45.5 Q221.25 -40.55 218.3 -33.7 213.5 -22.65 211.75 -10.7 L212.3 -8.9 205.8 -9.55 Q199.55 -8.9 196.2 -3.25 L197.45 -0.35 194.0 -0.95 Q191.35 -1.5 189.1 -3.0 L185.85 -2.65 Q180.85 -1.9 176.5 0.55 173.7 2.25 170.65 0.95 L173.75 -1.6 163.25 -12.3 149.45 -25.9 Q141.25 -33.45 130.85 -38.0 117.75 -43.65 104.05 -46.75 L97.7 -48.1 97.8 -49.7 Q92.4 -55.25 89.85 -62.6 89.1 -64.75 89.15 -66.95 89.15 -68.35 90.5 -69.0 92.4 -69.95 94.25 -70.55 L104.05 -73.85 107.5 -75.15 110.35 -87.15 116.05 -91.65 116.5 -91.45 126.5 -98.55 112.35 -92.9 104.05 -89.7 93.4 -85.9 Q75.65 -79.7 62.5 -66.35 48.4 -52.1 32.95 -39.3 L20.3 -29.05 Q12.15 -22.6 2.85 -17.55 M154.9 -89.15 L155.1 -88.7 151.55 -87.95 Q152.55 -84.85 155.15 -82.6 L157.65 -85.25 158.15 -85.15 156.5 -81.6 Q159.65 -79.0 163.4 -80.4 L162.15 -83.1 163.5 -83.45 164.6 -80.7 Q168.1 -81.7 169.95 -84.65 L167.75 -86.1 168.7 -86.7 170.5 -85.65 Q171.9 -88.45 171.0 -90.6 L169.35 -90.55 168.85 -91.0 171.15 -91.85 Q170.95 -95.45 167.95 -97.4 L166.15 -95.15 165.35 -95.55 Q165.65 -97.15 167.2 -97.95 164.2 -100.0 160.65 -99.95 L160.75 -97.2 159.95 -97.55 159.65 -99.9 Q155.9 -99.8 153.65 -96.9 L155.3 -94.3 153.15 -95.95 Q151.45 -92.9 151.35 -89.2 L154.9 -89.15 M147.35 -52.65 Q147.9 -54.3 145.65 -57.25 139.65 -65.25 132.55 -72.2 137.6 -60.65 147.35 -52.65 M147.3 -87.7 Q147.45 -89.8 148.25 -91.55 L149.2 -93.65 Q154.15 -102.85 164.5 -100.5 167.75 -99.7 170.3 -97.45 L162.0 -107.7 143.6 -93.5 141.95 -92.0 Q140.65 -90.6 138.8 -89.95 162.55 -59.8 188.95 -32.05 L200.8 -19.3 Q201.75 -35.7 213.45 -47.35 L215.7 -49.5 170.4 -97.3 Q175.85 -88.6 169.35 -80.35 167.75 -78.35 165.55 -77.0 L163.95 -76.35 Q156.7 -73.7 151.2 -79.1 149.75 -80.6 148.65 -82.35 147.15 -84.8 147.3 -87.7 M114.45 -87.35 L114.9 -87.55 114.75 -87.8 114.45 -87.35 M117.95 -82.95 L118.0 -84.25 115.1 -85.65 114.55 -84.2 117.1 -82.7 117.95 -82.95 M111.6 -80.3 L107.65 -67.1 Q118.85 -54.5 130.95 -43.05 133.65 -40.45 136.9 -38.6 147.35 -32.85 156.0 -24.35 L161.7 -18.7 158.9 -22.25 179.0 -3.45 181.05 -4.3 Q178.15 -6.35 175.7 -8.9 L169.85 -14.8 Q165.85 -18.9 162.4 -23.5 L157.75 -28.8 150.05 -37.1 132.5 -57.25 Q121.55 -69.7 112.15 -83.15 L112.1 -79.85 111.6 -80.3 M201.95 -105.25 Q203.85 -104.55 205.75 -105.65 209.85 -107.95 210.5 -112.55 L207.35 -115.65 207.3 -116.7 Q212.35 -116.55 211.95 -111.1 211.55 -105.3 206.05 -103.3 L203.5 -102.65 204.95 -99.75 Q213.45 -106.45 224.05 -108.3 224.6 -120.2 213.05 -123.8 L206.1 -123.6 Q198.85 -120.7 192.25 -116.65 198.65 -112.1 201.95 -105.25 M228.45 -106.15 Q219.7 -105.1 212.0 -100.55 L210.55 -97.5 Q210.05 -96.05 210.2 -94.55 211.05 -84.35 221.0 -82.2 L212.05 -93.15 212.6 -94.7 Q219.2 -91.15 221.6 -84.15 227.65 -85.75 227.2 -91.9 227.1 -93.15 226.2 -94.0 219.3 -101.0 210.85 -95.85 212.9 -97.6 215.25 -98.6 223.8 -102.4 229.05 -94.75 L229.45 -93.55 Q230.8 -84.85 222.3 -82.0 L228.45 -81.4 Q237.95 -82.3 247.45 -84.0 248.4 -90.4 245.15 -96.1 239.65 -105.75 228.45 -106.15 M192.4 -65.95 L192.5 -63.2 191.7 -63.55 191.45 -64.15 191.4 -65.9 Q187.75 -65.75 185.4 -62.9 L187.05 -60.3 184.9 -61.95 Q183.15 -58.75 183.1 -55.2 L186.65 -55.15 186.85 -54.7 183.3 -53.95 Q184.25 -50.65 186.9 -48.6 L189.4 -51.25 189.9 -51.15 188.25 -47.6 Q191.4 -45.05 195.15 -46.4 L193.9 -49.1 195.25 -49.45 196.35 -46.7 Q199.85 -47.65 201.7 -50.65 L199.5 -52.1 200.45 -52.7 202.25 -51.65 Q203.6 -54.35 202.75 -56.6 L201.1 -56.55 200.6 -57.0 202.9 -57.85 Q202.7 -61.3 199.7 -63.4 L197.9 -61.15 197.1 -61.55 198.95 -63.95 Q196.0 -66.05 192.4 -65.95 M202.1 -63.4 Q207.75 -55.75 201.85 -47.55 194.85 -37.85 184.3 -43.6 182.35 -44.6 181.25 -46.2 175.8 -54.0 182.1 -61.75 L182.45 -61.75 Q183.3 -63.5 184.8 -64.5 193.75 -70.65 202.1 -63.4 M164.6 -27.65 L166.0 -28.05 164.65 -30.85 Q162.65 -32.85 161.5 -31.6 L164.6 -27.65 M238.45 -9.65 L240.45 -9.9 Q242.7 -12.95 245.9 -15.35 L248.75 -17.3 238.65 -28.25 Q236.95 -19.65 238.2 -10.95 L238.45 -9.65 M277.05 -58.65 L276.55 -59.85 262.55 -75.95 261.35 -73.95 Q260.55 -64.9 266.5 -58.3 271.7 -52.5 273.0 -44.85 L275.05 -44.15 273.8 -42.75 272.65 -42.8 272.35 -41.8 274.65 -38.3 Q278.4 -48.2 277.05 -58.65 M218.05 25.95 L219.05 26.6 223.0 27.75 223.55 27.9 223.6 27.35 222.35 26.1 221.2 24.9 Q219.4 24.5 218.05 25.95 M220.65 30.6 L220.9 30.7 220.8 30.65 220.65 30.6 M215.55 26.3 L215.6 25.8 215.45 25.6 214.95 25.9 215.55 26.3 M220.55 33.05 Q215.45 31.45 213.4 27.0 L201.85 34.6 Q208.0 37.9 212.6 43.25 215.6 46.8 218.7 49.3 L221.55 33.9 Q221.15 33.2 220.55 33.05" fill="#000000" fill-rule="evenodd" stroke="none"/>
    <path d="M135.25 -101.8 Q144.1 -107.55 153.25 -113.1 165.1 -120.35 177.15 -127.95 L190.55 -119.1 Q188.3 -117.0 187.25 -114.2 183.7 -104.65 190.15 -97.3 192.45 -94.7 195.9 -93.8 198.7 -93.05 201.55 -93.2 202.05 -87.3 204.8 -82.25 209.75 -73.1 220.0 -72.5 222.9 -72.4 225.85 -73.5 L234.35 -76.85 Q234.55 -76.35 234.9 -75.95 239.65 -69.45 245.85 -64.0 245.95 -61.05 247.4 -58.6 251.1 -52.35 257.8 -48.85 263.35 -45.95 267.65 -41.7 L272.65 -36.55 Q277.15 -32.0 281.1 -26.95 272.1 -16.9 262.15 -7.95 248.0 4.9 235.4 19.2 L227.9 27.35 221.5 21.85 Q229.1 17.9 235.6 12.5 240.1 8.8 240.8 2.95 241.3 -1.35 239.6 -5.65 L239.4 -6.15 240.75 -7.2 241.05 -7.15 Q244.75 -11.05 249.2 -14.1 254.15 -17.55 257.35 -22.6 254.85 -26.1 251.9 -29.1 246.3 -34.8 239.6 -39.35 240.2 -43.7 238.75 -47.85 235.65 -56.45 226.6 -54.8 L223.4 -54.05 202.45 -75.45 166.7 -112.9 166.15 -113.0 150.15 -102.1 Q142.9 -97.25 136.3 -91.35 L135.85 -91.45 135.8 -90.85 135.1 -90.5 136.0 -90.35 Q140.8 -83.3 146.3 -76.75 172.35 -45.85 200.4 -16.9 L200.6 -16.7 199.75 -14.15 200.0 -13.25 197.5 -12.3 196.55 -13.3 Q195.15 -14.7 194.7 -16.8 L194.75 -17.0 182.05 -17.15 Q177.3 -23.8 171.15 -29.4 169.55 -30.9 168.4 -32.7 163.45 -40.65 155.85 -45.75 156.8 -49.45 156.4 -53.0 156.25 -54.15 155.65 -55.05 147.75 -66.65 137.65 -75.95 135.4 -78.05 132.55 -79.4 127.8 -81.7 122.55 -82.9 L122.0 -84.15 Q120.2 -87.25 117.55 -90.0 L135.25 -101.8 M154.9 -89.15 L151.35 -89.2 Q151.45 -92.9 153.15 -95.95 L155.3 -94.3 153.65 -96.9 Q155.9 -99.8 159.65 -99.9 L159.95 -97.55 160.75 -97.2 160.65 -99.95 Q164.2 -100.0 167.2 -97.95 165.65 -97.15 165.35 -95.55 L166.15 -95.15 167.95 -97.4 Q170.95 -95.45 171.15 -91.85 L168.85 -91.0 169.35 -90.55 171.0 -90.6 Q171.9 -88.45 170.5 -85.65 L168.7 -86.7 167.75 -86.1 169.95 -84.65 Q168.1 -81.7 164.6 -80.7 L163.5 -83.45 162.15 -83.1 163.4 -80.4 Q159.65 -79.0 156.5 -81.6 L158.15 -85.15 157.65 -85.25 155.15 -82.6 Q152.55 -84.85 151.55 -87.95 L155.1 -88.7 154.9 -89.15 M192.4 -65.95 Q196.0 -66.05 198.95 -63.95 L197.1 -61.55 197.9 -61.15 199.7 -63.4 Q202.7 -61.3 202.9 -57.85 L200.6 -57.0 201.1 -56.55 202.75 -56.6 Q203.6 -54.35 202.25 -51.65 L200.45 -52.7 199.5 -52.1 201.7 -50.65 Q199.85 -47.65 196.35 -46.7 L195.25 -49.45 193.9 -49.1 195.15 -46.4 Q191.4 -45.05 188.25 -47.6 L189.9 -51.15 189.4 -51.25 186.9 -48.6 Q184.25 -50.65 183.3 -53.95 L186.85 -54.7 186.65 -55.15 183.1 -55.2 Q183.15 -58.75 184.9 -61.95 L187.05 -60.3 185.4 -62.9 Q187.75 -65.75 191.4 -65.9 L191.45 -64.15 191.7 -63.55 192.5 -63.2 192.4 -65.95" fill="url(#gradient0)" fill-rule="evenodd" stroke="none"/>
    <path d="M2.85 -17.55 Q12.15 -22.6 20.3 -29.05 L32.95 -39.3 Q48.4 -52.1 62.5 -66.35 75.65 -79.7 93.4 -85.9 L104.05 -89.7 112.35 -92.9 126.5 -98.55 116.5 -91.45 116.05 -91.65 110.35 -87.15 107.5 -75.15 104.05 -73.85 94.25 -70.55 Q92.4 -69.95 90.5 -69.0 89.15 -68.35 89.15 -66.95 89.1 -64.75 89.85 -62.6 92.4 -55.25 97.8 -49.7 L97.7 -48.1 104.05 -46.75 Q117.75 -43.65 130.85 -38.0 141.25 -33.45 149.45 -25.9 L163.25 -12.3 173.75 -1.6 170.65 0.95 Q173.7 2.25 176.5 0.55 180.85 -1.9 185.85 -2.65 L189.1 -3.0 Q191.35 -1.5 194.0 -0.95 L197.45 -0.35 196.2 -3.25 Q199.55 -8.9 205.8 -9.55 L212.3 -8.9 211.75 -10.7 Q213.5 -22.65 218.3 -33.7 221.25 -40.55 226.6 -45.5 L230.3 -48.7 Q225.65 -41.6 227.25 -33.5 228.15 -28.7 231.55 -25.7 232.85 -24.5 234.65 -24.2 230.7 -28.5 229.75 -34.3 228.65 -40.75 231.45 -46.75 L234.85 -46.8 237.0 -44.75 Q236.55 -34.4 235.2 -24.1 234.05 -15.4 236.65 -7.15 L238.0 -1.95 238.8 3.2 Q235.7 -0.55 231.4 -2.5 L228.25 -2.35 Q224.65 -0.1 221.6 3.25 217.15 8.25 212.3 12.85 201.75 22.7 189.35 29.85 186.9 31.2 184.0 31.15 179.95 31.0 176.4 29.0 175.05 28.25 173.35 28.1 166.35 26.85 159.05 26.55 L154.8 24.35 Q151.15 18.1 149.75 10.8 149.45 9.25 147.9 8.2 146.4 7.15 144.65 7.0 140.55 11.75 136.1 16.0 L134.3 17.2 Q129.1 19.25 123.45 18.6 112.95 17.5 105.2 10.85 L104.05 9.7 Q103.05 8.55 102.35 7.15 97.5 -2.3 99.9 -12.85 101.0 -17.5 103.75 -21.9 L104.05 -22.45 Q104.8 -24.15 104.25 -26.05 L103.55 -26.45 Q97.65 -19.25 94.85 -10.4 93.05 -4.6 90.3 0.8 87.85 -7.3 89.15 -15.6 90.15 -21.75 92.25 -27.65 92.45 -28.2 92.3 -28.85 L91.55 -29.15 Q86.5 -23.35 84.55 -16.0 83.8 -13.2 83.55 -10.2 82.0 -20.2 83.3 -30.2 L83.3 -32.35 82.55 -32.65 Q80.25 -31.25 80.15 -28.55 L80.0 -26.9 Q79.1 -17.55 81.15 -8.25 L80.75 -7.7 Q83.15 -2.95 84.5 2.35 86.25 9.4 83.35 16.2 75.95 33.45 62.25 46.3 L54.55 53.9 Q40.45 68.6 25.95 82.95 L12.55 95.85 Q-13.5 120.5 -40.2 144.5 L-49.9 153.8 -87.45 153.6 Q-109.0 153.4 -130.45 153.45 -166.7 153.55 -202.9 155.05 L-228.3 157.2 -225.2 151.55 -231.3 157.55 Q-218.4 139.75 -202.1 124.8 -183.35 107.55 -163.35 92.05 -129.05 65.5 -91.25 44.4 -62.9 28.6 -36.15 10.35 -25.35 2.95 -15.3 -5.3 -6.75 -12.3 2.85 -17.55" fill="url(#gradient1)" fill-rule="evenodd" stroke="none"/>
    <path d="M147.3 -87.7 Q147.15 -84.8 148.65 -82.35 149.75 -80.6 151.2 -79.1 156.7 -73.7 163.95 -76.35 L165.55 -77.0 Q167.75 -78.35 169.35 -80.35 175.85 -88.6 170.4 -97.3 L215.7 -49.5 213.45 -47.35 Q201.75 -35.7 200.8 -19.3 L188.95 -32.05 Q162.55 -59.8 138.8 -89.95 140.65 -90.6 141.95 -92.0 L143.6 -93.5 162.0 -107.7 170.3 -97.45 Q167.75 -99.7 164.5 -100.5 154.15 -102.85 149.2 -93.65 L148.25 -91.55 Q147.45 -89.8 147.3 -87.7 M147.35 -52.65 Q137.6 -60.65 132.55 -72.2 139.65 -65.25 145.65 -57.25 147.9 -54.3 147.35 -52.65 M117.95 -82.95 L117.1 -82.7 114.55 -84.2 115.1 -85.65 118.0 -84.25 117.95 -82.95 M111.6 -80.3 L112.1 -79.85 112.15 -83.15 Q121.55 -69.7 132.5 -57.25 L150.05 -37.1 157.75 -28.8 162.4 -23.5 Q165.85 -18.9 169.85 -14.8 L175.7 -8.9 Q178.15 -6.35 181.05 -4.3 L179.0 -3.45 158.9 -22.25 161.7 -18.7 156.0 -24.35 Q147.35 -32.85 136.9 -38.6 133.65 -40.45 130.95 -43.05 118.85 -54.5 107.65 -67.1 L111.6 -80.3 M202.1 -63.4 Q193.75 -70.65 184.8 -64.5 183.3 -63.5 182.45 -61.75 L182.1 -61.75 Q175.8 -54.0 181.25 -46.2 182.35 -44.6 184.3 -43.6 194.85 -37.85 201.85 -47.55 207.75 -55.75 202.1 -63.4 M164.6 -27.65 L161.5 -31.6 Q162.65 -32.85 164.65 -30.85 L166.0 -28.05 164.6 -27.65 M238.45 -9.65 L238.2 -10.95 Q236.95 -19.65 238.65 -28.25 L248.75 -17.3 245.9 -15.35 Q242.7 -12.95 240.45 -9.9 L238.45 -9.65 M218.05 25.95 Q219.4 24.5 221.2 24.9 L222.35 26.1 223.6 27.35 223.55 27.9 223.0 27.75 219.05 26.6 218.05 25.95 M220.55 33.05 Q221.15 33.2 221.55 33.9 L218.7 49.3 Q215.6 46.8 212.6 43.25 208.0 37.9 201.85 34.6 L213.4 27.0 Q215.45 31.45 220.55 33.05" fill="#262626" fill-rule="evenodd" stroke="none"/>
    <path d="M201.95 -105.25 Q198.65 -112.1 192.25 -116.65 198.85 -120.7 206.1 -123.6 L213.05 -123.8 Q224.6 -120.2 224.05 -108.3 213.45 -106.45 204.95 -99.75 L203.5 -102.65 206.05 -103.3 Q211.55 -105.3 211.95 -111.1 212.35 -116.55 207.3 -116.7 L207.35 -115.65 210.5 -112.55 Q209.85 -107.95 205.75 -105.65 203.85 -104.55 201.95 -105.25 M228.45 -106.15 Q239.65 -105.75 245.15 -96.1 248.4 -90.4 247.45 -84.0 237.95 -82.3 228.45 -81.4 L222.3 -82.0 Q230.8 -84.85 229.45 -93.55 L229.05 -94.75 Q223.8 -102.4 215.25 -98.6 212.9 -97.6 210.85 -95.85 219.3 -101.0 226.2 -94.0 227.1 -93.15 227.2 -91.9 227.65 -85.75 221.6 -84.15 219.2 -91.15 212.6 -94.7 L212.05 -93.15 221.0 -82.2 Q211.05 -84.35 210.2 -94.55 210.05 -96.05 210.55 -97.5 L212.0 -100.55 Q219.7 -105.1 228.45 -106.15 M277.05 -58.65 Q278.4 -48.2 274.65 -38.3 L272.35 -41.8 272.65 -42.8 273.8 -42.75 275.05 -44.15 273.0 -44.85 Q271.7 -52.5 266.5 -58.3 260.55 -64.9 261.35 -73.95 L262.55 -75.95 276.55 -59.85 277.05 -58.65" fill="#3d5830" fill-rule="evenodd" stroke="none"/>
    <path d="M77.0 -23.75 L77.7 -30.1 Q78.65 -36.6 82.25 -35.85 83.65 -35.6 84.25 -34.1 84.9 -32.5 84.1 -30.45 L84.1 -21.2 Q84.65 -21.7 86.8 -26.4 89.2 -30.85 91.6 -30.85 93.2 -30.85 93.75 -29.55 L93.95 -28.15 Q93.95 -26.3 93.1 -23.65 92.3 -21.15 92.45 -18.95 92.55 -17.2 92.0 -13.9 L91.45 -10.15 91.5 -9.35 Q91.5 -9.3 91.7 -9.2 93.75 -12.5 97.5 -20.8 100.95 -27.45 103.85 -27.45 105.5 -27.45 106.2 -26.2 L106.6 -24.8 105.05 -18.4 Q103.45 -12.3 103.45 -8.85 103.45 -2.35 104.95 3.15 105.2 4.0 106.7 6.05 L108.95 9.15 109.45 10.5 Q109.9 11.5 111.2 12.15 115.0 14.05 127.95 14.05 134.7 14.05 140.7 7.95 L144.45 3.7 144.85 3.3 144.85 2.9 Q145.2 1.3 147.1 1.3 147.55 1.3 148.15 1.9 150.0 2.25 149.95 4.0 L149.95 4.45 151.35 7.05 155.3 15.8 Q157.55 20.9 163.1 21.35 L171.05 20.65 Q177.0 20.1 181.05 22.05 185.45 24.15 185.8 24.15 194.5 24.15 203.6 14.75 L209.95 7.35 Q213.3 3.1 214.55 2.05 L219.85 -3.65 Q224.1 -7.65 229.1 -8.45 234.05 -7.8 237.1 -3.5 239.4 -0.2 239.4 2.55 239.4 3.95 238.8 5.15 237.9 6.9 236.1 6.9 234.2 6.9 232.3 2.85 230.4 -1.2 228.9 -1.2 227.05 -1.2 222.5 3.95 L212.85 15.3 Q198.25 31.8 187.55 31.8 L185.8 31.75 Q185.35 33.8 182.1 33.8 L176.8 32.7 171.8 31.4 162.0 29.6 Q160.75 29.2 160.2 28.45 155.65 27.5 152.3 23.85 151.75 24.7 150.6 25.15 147.85 23.45 146.9 20.0 146.35 16.25 145.85 14.8 L145.8 14.55 Q144.85 14.9 143.25 16.25 L140.0 18.7 Q134.6 21.9 124.1 21.9 113.3 21.9 107.65 19.15 105.05 17.85 103.95 16.05 L101.55 12.65 99.2 9.3 Q97.55 6.55 96.9 2.95 96.25 -0.45 96.6 -3.85 95.9 -3.0 95.05 1.6 94.35 5.15 92.1 5.15 88.95 5.15 88.1 1.35 L87.7 -4.1 86.9 -8.6 Q86.4 -11.3 87.2 -13.1 L87.2 -15.35 86.95 -15.35 85.6 -9.55 Q85.6 -6.2 86.55 -3.45 87.45 -0.65 87.45 4.7 87.45 12.6 84.6 20.55 81.35 29.55 75.2 36.05 L60.3 54.25 Q49.9 66.8 46.35 66.8 42.85 66.8 42.85 64.05 42.85 62.95 52.85 50.65 62.2 39.2 67.35 33.65 72.7 27.85 76.3 18.8 79.7 10.15 79.7 3.45 L78.2 -6.7 Q76.7 -16.7 76.7 -19.2 L77.0 -23.75 M110.3 -79.45 Q111.35 -78.45 111.35 -76.95 111.35 -75.3 110.0 -74.2 109.2 -73.6 104.95 -71.35 L101.65 -70.35 Q99.15 -69.75 97.95 -68.95 L96.2 -67.85 93.95 -66.6 98.5 -58.2 101.95 -51.05 Q101.95 -49.75 101.2 -48.95 100.45 -48.1 99.1 -48.1 96.75 -48.1 93.75 -52.45 L90.1 -58.45 86.2 -64.15 Q84.7 -66.5 84.7 -68.8 84.7 -71.6 87.65 -72.9 93.8 -75.6 95.7 -76.95 96.65 -77.6 100.2 -78.75 L105.35 -80.2 Q108.7 -81.0 110.3 -79.45 M191.4 -114.1 Q190.8 -114.9 190.8 -116.05 190.8 -119.2 197.35 -122.9 203.85 -126.55 203.85 -122.1 203.85 -121.1 202.65 -120.1 L199.3 -117.2 Q200.65 -116.05 202.85 -112.95 205.15 -109.8 206.05 -108.95 207.0 -108.1 213.0 -108.05 217.0 -108.05 217.9 -106.45 L218.15 -106.45 Q220.05 -106.45 220.05 -104.05 220.05 -103.35 217.45 -100.0 214.8 -96.6 214.8 -93.7 214.8 -91.6 215.5 -90.8 217.45 -88.75 224.3 -88.95 232.55 -89.25 237.45 -89.0 L243.8 -88.45 Q247.8 -88.05 249.75 -83.35 251.05 -80.25 251.05 -77.1 251.05 -76.05 250.45 -74.45 249.55 -72.2 248.15 -72.2 245.05 -72.2 243.55 -78.1 242.95 -80.15 239.7 -80.95 L226.8 -81.6 Q218.0 -81.35 213.6 -83.0 207.85 -85.2 207.85 -90.95 207.85 -96.15 210.3 -100.15 L204.9 -99.7 Q201.45 -99.7 199.9 -102.5 198.4 -106.2 196.85 -107.95 L195.75 -109.7 Q194.75 -111.2 193.6 -112.1 191.9 -113.45 191.4 -114.1 M234.85 -42.2 Q230.45 -42.2 225.0 -33.75 220.95 -27.45 220.3 -24.85 L218.6 -20.65 216.85 -16.2 216.0 -11.75 Q214.9 -8.2 212.1 -8.2 209.95 -8.2 209.3 -10.05 L209.05 -12.05 Q209.05 -16.1 211.75 -23.55 214.2 -30.15 216.55 -33.95 L219.7 -39.25 Q221.9 -42.65 224.35 -44.85 231.15 -50.85 235.9 -49.65 239.8 -48.7 239.8 -44.9 239.8 -42.9 238.55 -42.45 L234.85 -42.2 M266.2 -75.15 L265.65 -71.7 265.8 -68.6 Q266.05 -66.75 266.9 -65.7 278.3 -51.6 278.3 -41.15 278.3 -40.1 277.8 -38.7 277.2 -36.95 276.3 -36.95 273.95 -36.95 271.85 -40.4 270.35 -42.8 270.05 -44.2 L269.0 -47.6 Q268.25 -49.9 267.3 -51.7 L262.6 -58.8 Q259.3 -63.75 259.3 -66.15 259.3 -70.0 260.0 -73.4 261.15 -79.0 263.65 -77.95 266.25 -77.15 266.2 -75.15" fill="#000000" fill-opacity="0.15294118" fill-rule="evenodd" stroke="none"/>
  </g>
  <defs>
    <linearGradient gradientTransform="matrix(0.1172, 0.0, 0.0, 1.0, 195.15, -238.05)" gradientUnits="userSpaceOnUse" id="gradient0" spreadMethod="pad" x1="-819.2" x2="819.2">
      <stop offset="0.0" stop-color="#333333"/>
      <stop offset="1.0" stop-color="#808080"/>
    </linearGradient>
    <linearGradient gradientTransform="matrix(-0.1432, 0.0998, -0.0891, -0.1279, 103.8, -28.85)" gradientUnits="userSpaceOnUse" id="gradient1" spreadMethod="pad" x1="-819.2" x2="819.2">
      <stop offset="0.0" stop-color="#557340"/>
      <stop offset="1.0" stop-color="#000000"/>
    </linearGradient>
  </defs>
</svg>
