<?xml version="1.0" encoding="UTF-8" standalone="no"?>
<svg xmlns:xlink="http://www.w3.org/1999/xlink" height="311.95px" width="574.75px" xmlns="http://www.w3.org/2000/svg">
  <g transform="matrix(1.0, 0.0, 0.0, 1.0, 258.5, 140.4)">
    <path d="M128.85 -100.8 Q136.75 -108.45 143.25 -117.35 L149.35 -125.4 156.0 -133.95 Q161.9 -141.7 171.15 -140.15 173.05 -140.0 174.7 -138.75 181.9 -133.3 178.2 -124.55 171.3 -108.7 161.4 -94.55 166.2 -96.45 170.85 -98.65 187.9 -106.85 206.7 -108.8 L207.55 -109.45 228.15 -89.15 234.15 -91.65 Q240.05 -93.85 246.45 -94.35 L252.7 -93.65 Q261.5 -91.85 262.25 -82.65 262.4 -80.95 261.85 -79.35 258.3 -69.55 247.7 -66.25 L256.7 -55.6 Q265.75 -58.3 275.2 -58.5 281.7 -59.2 287.85 -56.9 289.35 -56.3 290.4 -55.15 295.65 -49.35 294.05 -41.15 293.8 -39.85 293.05 -38.85 288.15 -32.3 279.75 -30.35 L284.8 -25.35 Q292.3 -18.15 299.1 -10.35 302.15 -6.85 306.0 -4.25 310.3 -1.35 313.75 2.7 317.35 6.9 315.8 12.2 315.15 14.45 313.6 16.1 307.35 23.05 297.75 19.9 L297.55 20.35 294.6 19.45 281.25 27.05 Q266.1 34.85 251.25 43.25 L256.65 47.45 Q263.95 53.4 269.8 60.95 275.6 68.45 279.35 76.9 282.45 83.9 277.9 90.8 276.3 93.3 274.2 95.3 267.6 101.55 259.8 95.95 L259.55 96.35 255.15 91.6 Q252.5 88.7 249.5 86.3 241.05 79.65 231.4 74.6 226.85 72.2 222.15 70.1 217.25 67.8 211.9 67.35 L191.75 65.9 184.45 64.75 156.8 59.05 139.2 55.05 Q125.45 52.05 112.1 48.5 107.1 47.25 101.75 47.25 90.1 47.25 80.05 52.9 77.9 54.15 76.05 55.8 64.5 66.2 53.1 77.1 49.6 80.45 46.6 84.25 38.6 94.25 29.35 102.9 L29.3 103.85 28.85 104.3 28.4 103.85 9.6 122.3 8.75 122.25 -6.25 137.9 -14.7 146.85 -18.85 151.45 -15.9 151.55 -15.2 152.3 -15.7 153.5 -20.9 153.85 -22.7 155.3 -23.35 154.35 -54.9 154.0 -58.65 157.85 -59.55 157.8 -59.85 157.2 -58.2 154.0 Q-119.05 154.4 -179.95 154.2 L-208.2 155.1 -236.4 157.85 -245.55 170.3 -246.6 170.4 Q-244.15 163.35 -239.1 157.5 L-244.7 162.6 -241.05 157.1 -253.85 151.95 -257.65 156.6 -258.5 156.75 Q-257.35 150.25 -252.05 145.7 -246.9 141.2 -242.0 136.35 -213.8 108.65 -180.1 87.5 -150.4 68.9 -119.9 51.5 -95.25 37.6 -70.7 23.5 -41.6 6.7 -15.65 -14.5 L-16.2 -14.7 -9.25 -20.3 -4.8 -23.7 -2.85 -25.45 -0.75 -27.3 7.05 -33.7 Q8.0 -34.6 13.05 -38.0 L20.8 -43.4 32.6 -51.7 37.55 -55.6 37.7 -55.25 38.15 -55.65 Q45.8 -61.8 54.1 -66.95 62.15 -72.0 70.75 -76.25 79.95 -80.85 89.9 -83.75 L108.2 -88.85 Q113.0 -90.25 117.5 -92.65 123.8 -95.95 128.85 -100.8 M152.6 -100.7 Q157.6 -106.25 158.4 -113.5 L154.45 -121.25 Q156.6 -121.1 158.7 -120.35 163.1 -118.45 165.3 -122.5 169.6 -130.55 161.6 -135.05 L144.35 -114.25 Q137.4 -105.95 129.95 -98.1 L126.6 -95.0 Q119.85 -89.7 111.5 -87.0 104.65 -84.9 97.65 -83.25 84.85 -80.15 73.0 -74.6 67.6 -72.05 63.2 -68.0 52.9 -58.5 43.25 -48.65 L41.55 -47.05 Q38.55 -44.4 35.05 -42.5 28.1 -38.75 21.0 -35.5 L16.35 -33.15 14.3 -31.55 Q6.15 -25.1 -3.15 -20.05 -12.75 -14.8 -21.3 -7.8 -31.35 0.45 -42.15 7.85 -68.9 26.1 -97.25 41.9 -135.05 63.0 -169.35 89.55 -189.35 105.05 -208.1 122.3 -224.4 137.25 -237.3 155.05 L-231.2 149.05 -234.3 154.7 -208.9 152.55 Q-172.7 151.05 -136.45 150.95 -115.0 150.9 -93.45 151.1 L-55.9 151.3 -46.2 142.0 -14.35 112.95 Q-10.4 110.0 -4.4 104.6 L2.3 99.35 Q5.7 97.7 12.55 92.2 20.75 85.6 26.1 80.1 28.95 77.2 37.5 69.95 L49.3 59.55 Q65.45 43.65 69.6 38.85 L73.0 33.85 73.6 33.1 77.35 28.35 77.6 28.9 Q83.55 20.15 87.25 9.9 L88.6 4.9 Q91.05 -8.1 99.05 -18.45 L99.9 -17.75 99.15 -15.25 Q97.8 -10.85 97.55 -6.15 97.35 -2.55 98.8 0.8 L102.8 10.7 Q105.2 16.85 109.25 22.0 111.6 25.0 114.75 26.9 121.4 30.75 129.15 31.5 L144.25 30.9 Q148.05 30.3 151.85 31.4 156.9 32.8 161.1 36.0 166.15 39.85 171.95 42.0 199.55 51.9 226.05 39.05 L226.5 39.25 227.55 39.1 Q229.85 43.65 233.45 47.1 237.3 50.75 241.9 52.7 246.55 54.75 250.0 58.6 252.5 61.45 254.3 64.65 258.65 72.55 266.2 77.1 268.1 78.15 269.1 79.9 273.15 86.9 270.85 95.2 276.85 90.05 277.75 82.5 277.9 81.0 277.35 79.7 267.95 58.15 248.55 44.7 L247.45 45.2 247.45 43.95 Q241.0 40.1 233.95 37.6 225.6 34.8 216.7 32.95 206.25 30.8 196.75 26.2 194.8 25.35 193.65 23.6 182.25 6.45 165.5 -5.9 161.5 -8.8 157.25 -11.25 138.05 -22.15 116.35 -26.95 L115.05 -26.15 114.05 -27.05 112.4 -26.65 112.65 -28.0 113.35 -28.4 112.85 -28.7 Q113.7 -29.85 115.9 -30.2 L124.85 -30.7 Q127.05 -30.8 128.55 -31.65 130.5 -32.8 131.05 -32.95 132.55 -33.4 133.9 -36.3 135.05 -38.7 135.05 -39.85 135.05 -46.85 130.25 -55.65 125.5 -64.3 118.6 -70.2 119.1 -71.45 124.6 -73.15 L129.4 -74.35 Q131.85 -80.45 136.6 -85.45 L136.6 -85.9 138.55 -87.25 138.8 -86.6 143.25 -88.0 148.6 -94.35 145.1 -103.2 152.6 -100.7 M143.0 -82.05 L142.95 -81.55 144.95 -79.3 145.8 -79.55 145.75 -80.0 Q145.1 -82.5 143.0 -82.05 M137.25 -83.7 L132.0 -74.0 132.3 -73.45 Q132.15 -73.25 131.45 -72.95 L129.05 -68.6 Q134.35 -61.45 139.95 -54.55 L150.95 -41.0 161.5 -28.3 174.0 -13.1 Q180.2 -5.35 187.25 1.65 L201.15 16.05 209.35 24.3 Q212.05 26.9 215.25 28.25 225.25 32.55 235.85 35.6 L235.75 27.55 230.1 21.7 215.05 7.2 Q205.2 -2.75 196.35 -13.2 187.8 -23.35 178.45 -32.85 168.05 -43.35 158.65 -54.8 149.55 -65.85 141.35 -77.65 L137.25 -83.7 M155.8 -73.95 L161.65 -73.65 Q164.2 -73.5 166.0 -71.8 L168.9 -69.0 Q174.6 -63.35 179.45 -57.05 L182.1 -53.35 Q184.75 -49.55 182.45 -44.75 L203.7 -19.95 208.2 -20.1 Q209.05 -21.9 210.9 -20.25 213.65 -17.9 216.05 -15.15 L216.7 -15.0 219.6 -11.35 220.1 -11.2 220.9 -10.05 Q222.9 -6.8 225.75 -4.35 232.35 1.25 231.25 9.15 L244.25 22.9 Q252.15 18.35 260.1 13.95 279.4 3.5 299.6 -4.9 297.2 -7.9 294.4 -10.7 288.7 -16.35 283.5 -22.35 L276.4 -30.15 Q260.7 -46.9 245.35 -64.85 L245.2 -64.85 245.05 -64.95 243.3 -66.55 243.7 -66.8 235.45 -76.5 Q232.9 -79.35 230.65 -82.6 228.1 -86.4 224.45 -88.7 L207.75 -106.05 Q195.4 -105.0 183.75 -100.1 L179.0 -98.3 145.8 -86.05 155.8 -73.95 M212.75 -50.35 L211.8 -50.4 211.35 -50.8 210.65 -52.3 Q207.4 -50.85 206.25 -47.6 L208.8 -46.0 206.2 -46.65 Q205.8 -43.35 207.1 -40.35 L210.4 -41.55 210.75 -41.2 207.75 -39.3 Q209.95 -36.95 213.2 -36.15 L214.45 -39.2 214.95 -39.3 214.8 -35.8 Q218.65 -34.75 221.65 -37.2 L219.4 -39.0 220.55 -39.75 222.65 -37.85 Q225.4 -39.9 226.05 -43.1 L223.45 -43.5 224.05 -44.35 226.2 -44.1 Q226.35 -46.8 224.65 -48.45 L223.2 -47.75 222.55 -48.0 224.35 -49.55 Q222.85 -52.35 219.25 -53.1 L218.5 -50.55 217.65 -50.65 218.35 -53.3 Q214.85 -54.0 211.55 -52.65 L212.75 -50.35 M194.85 -96.7 Q196.8 -95.6 198.2 -94.1 L219.65 -70.2 Q235.2 -52.4 251.45 -34.9 L277.2 -7.45 279.2 -7.3 279.35 -6.4 278.6 -5.9 278.4 -5.3 246.8 7.5 246.55 7.85 Q242.2 4.5 238.95 0.5 L234.6 -4.15 232.05 -6.9 218.8 -21.35 Q206.55 -34.45 194.4 -47.85 184.0 -59.3 173.9 -70.85 168.85 -76.6 165.6 -83.65 L164.6 -84.15 Q167.35 -85.85 170.2 -87.4 181.8 -93.5 194.6 -96.05 L194.85 -96.7 M183.45 -82.75 Q180.2 -81.3 179.05 -78.05 L181.6 -76.45 179.0 -77.1 Q178.6 -73.8 179.9 -70.8 L183.2 -72.0 183.55 -71.65 180.55 -69.75 Q182.75 -67.4 186.0 -66.6 L187.25 -69.65 187.75 -69.75 187.6 -66.25 Q191.45 -65.2 194.45 -67.65 L192.2 -69.45 193.35 -70.2 195.45 -68.3 Q198.2 -70.35 198.85 -73.55 L196.25 -73.95 196.85 -74.8 199.0 -74.55 Q199.15 -77.25 197.45 -78.9 L196.0 -78.2 195.35 -78.45 197.15 -80.0 Q195.65 -82.8 192.05 -83.55 L191.3 -81.0 190.45 -81.1 191.15 -83.75 Q187.65 -84.45 184.35 -83.1 L185.55 -80.8 184.6 -80.85 184.15 -81.25 183.45 -82.75 M212.95 -8.15 L209.9 -10.95 Q213.1 -2.25 221.15 1.5 217.8 -3.75 212.95 -8.15 M227.75 -45.85 Q227.95 -42.95 227.2 -40.3 224.4 -30.5 214.2 -30.9 L231.95 -10.5 Q232.05 -13.5 233.8 -16.1 239.2 -24.4 248.95 -22.5 L227.75 -45.85 M188.4 -31.9 L186.6 -31.8 Q185.85 -29.8 187.65 -28.55 L189.3 -28.55 189.15 -31.55 188.4 -31.9 M190.6 -61.45 L188.55 -60.95 188.1 -61.35 186.5 -61.4 Q193.35 -50.5 203.0 -42.0 205.4 -54.9 218.5 -54.6 210.45 -65.6 200.65 -75.2 L200.15 -70.95 Q198.25 -63.3 190.6 -61.45 M163.55 -65.4 L162.05 -65.1 Q167.1 -56.85 174.35 -50.7 L174.8 -51.7 163.55 -65.4 M192.4 -84.8 L193.7 -84.55 187.65 -91.25 Q177.6 -88.5 168.3 -83.9 170.65 -77.35 175.85 -72.6 L176.6 -76.2 Q181.45 -86.45 192.4 -84.8 M240.7 -18.6 L240.25 -19.0 239.55 -20.5 Q236.3 -19.05 235.15 -15.8 L237.7 -14.2 235.1 -14.85 Q234.7 -11.55 236.0 -8.55 L239.3 -9.75 239.65 -9.4 236.65 -7.5 Q238.85 -5.15 242.1 -4.35 L243.35 -7.4 243.85 -7.5 243.7 -4.0 Q247.55 -2.95 250.55 -5.4 L248.3 -7.2 249.45 -7.95 251.55 -6.05 Q254.3 -8.1 254.95 -11.3 L252.35 -11.7 252.95 -12.55 255.1 -12.3 Q255.25 -15.0 253.55 -16.65 L252.1 -15.95 251.45 -16.2 253.25 -17.75 Q251.75 -20.55 248.15 -21.3 L247.4 -18.75 246.55 -18.85 247.25 -21.5 Q243.75 -22.2 240.45 -20.85 L241.65 -18.55 240.7 -18.6 M234.7 21.95 L236.05 21.5 Q236.35 19.15 234.25 18.25 L233.45 18.3 233.15 19.85 233.65 20.3 233.45 20.7 234.7 21.95 M256.55 -14.7 Q257.65 -7.45 252.65 -2.45 248.7 1.55 243.05 0.9 L246.85 5.15 266.25 -3.9 256.55 -14.7 M27.1 101.65 L27.1 101.6 26.45 102.35 27.1 101.65" fill="#000000" fill-rule="evenodd" stroke="none"/>
    <path d="M143.0 -82.05 Q145.1 -82.5 145.75 -80.0 L145.8 -79.55 144.95 -79.3 142.95 -81.55 143.0 -82.05 M137.25 -83.7 L141.35 -77.65 Q149.55 -65.85 158.65 -54.8 168.05 -43.35 178.45 -32.85 187.8 -23.35 196.35 -13.2 205.2 -2.75 215.05 7.2 L230.1 21.7 235.75 27.55 235.85 35.6 Q225.25 32.55 215.25 28.25 212.05 26.9 209.35 24.3 L201.15 16.05 187.25 1.65 Q180.2 -5.35 174.0 -13.1 L161.5 -28.3 150.95 -41.0 139.95 -54.55 Q134.35 -61.45 129.05 -68.6 L131.45 -72.95 Q132.15 -73.25 132.3 -73.45 L132.0 -74.0 137.25 -83.7 M192.4 -84.8 Q181.45 -86.45 176.6 -76.2 L175.85 -72.6 Q170.65 -77.35 168.3 -83.9 177.6 -88.5 187.65 -91.25 L193.7 -84.55 192.4 -84.8 M163.55 -65.4 L174.8 -51.7 174.35 -50.7 Q167.1 -56.85 162.05 -65.1 L163.55 -65.4 M190.6 -61.45 Q198.25 -63.3 200.15 -70.95 L200.65 -75.2 Q210.45 -65.6 218.5 -54.6 205.4 -54.9 203.0 -42.0 193.35 -50.5 186.5 -61.4 L188.1 -61.35 188.55 -60.95 190.6 -61.45 M188.4 -31.9 L189.15 -31.55 189.3 -28.55 187.65 -28.55 Q185.85 -29.8 186.6 -31.8 L188.4 -31.9 M227.75 -45.85 L248.95 -22.5 Q239.2 -24.4 233.8 -16.1 232.05 -13.5 231.95 -10.5 L214.2 -30.9 Q224.4 -30.5 227.2 -40.3 227.95 -42.95 227.75 -45.85 M212.95 -8.15 Q217.8 -3.75 221.15 1.5 213.1 -2.25 209.9 -10.95 L212.95 -8.15 M256.55 -14.7 L266.25 -3.9 246.85 5.15 243.05 0.9 Q248.7 1.55 252.65 -2.45 257.65 -7.45 256.55 -14.7 M234.7 21.95 L233.45 20.7 233.65 20.3 233.15 19.85 233.45 18.3 234.25 18.25 Q236.35 19.15 236.05 21.5 L234.7 21.95" fill="#262626" fill-rule="evenodd" stroke="none"/>
    <path d="M152.6 -100.7 L145.1 -103.2 148.6 -94.35 143.25 -88.0 138.8 -86.6 138.55 -87.25 136.6 -85.9 136.6 -85.45 Q131.85 -80.45 129.4 -74.35 L124.6 -73.15 Q119.1 -71.45 118.6 -70.2 125.5 -64.3 130.25 -55.65 135.05 -46.85 135.05 -39.85 135.05 -38.7 133.9 -36.3 132.55 -33.4 131.05 -32.95 130.5 -32.8 128.55 -31.65 127.05 -30.8 124.85 -30.7 L115.9 -30.2 Q113.7 -29.85 112.85 -28.7 L113.35 -28.4 112.65 -28.0 112.4 -26.65 114.05 -27.05 115.05 -26.15 116.35 -26.95 Q138.05 -22.15 157.25 -11.25 161.5 -8.8 165.5 -5.9 182.25 6.45 193.65 23.6 194.8 25.35 196.75 26.2 206.25 30.8 216.7 32.95 225.6 34.8 233.95 37.6 241.0 40.1 247.45 43.95 L247.45 45.2 248.55 44.7 Q267.95 58.15 277.35 79.7 277.9 81.0 277.75 82.5 276.85 90.05 270.85 95.2 273.15 86.9 269.1 79.9 268.1 78.15 266.2 77.1 258.65 72.55 254.3 64.65 252.5 61.45 250.0 58.6 246.55 54.75 241.9 52.7 237.3 50.75 233.45 47.1 229.85 43.65 227.55 39.1 L226.5 39.25 226.05 39.05 Q199.55 51.9 171.95 42.0 166.15 39.85 161.1 36.0 156.9 32.8 151.85 31.4 148.05 30.3 144.25 30.9 L129.15 31.5 Q121.4 30.75 114.75 26.9 111.6 25.0 109.25 22.0 105.2 16.85 102.8 10.7 L98.8 0.8 Q97.35 -2.55 97.55 -6.15 97.8 -10.85 99.15 -15.25 L99.9 -17.75 99.05 -18.45 Q91.05 -8.1 88.6 4.9 L87.25 9.9 Q83.55 20.15 77.6 28.9 L77.35 28.35 73.6 33.1 73.0 33.85 69.6 38.85 Q65.45 43.65 49.3 59.55 L37.5 69.95 Q28.95 77.2 26.1 80.1 20.75 85.6 12.55 92.2 5.7 97.7 2.3 99.35 L-4.4 104.6 Q-10.4 110.0 -14.35 112.95 L-46.2 142.0 -55.9 151.3 -93.45 151.1 Q-115.0 150.9 -136.45 150.95 -172.7 151.05 -208.9 152.55 L-234.3 154.7 -231.2 149.05 -237.3 155.05 Q-224.4 137.25 -208.1 122.3 -189.35 105.05 -169.35 89.55 -135.05 63.0 -97.25 41.9 -68.9 26.1 -42.15 7.85 -31.35 0.45 -21.3 -7.8 -12.75 -14.8 -3.15 -20.05 6.15 -25.1 14.3 -31.55 L16.35 -33.15 21.0 -35.5 Q28.1 -38.75 35.05 -42.5 38.55 -44.4 41.55 -47.05 L43.25 -48.65 Q52.9 -58.5 63.2 -68.0 67.6 -72.05 73.0 -74.6 84.85 -80.15 97.65 -83.25 104.65 -84.9 111.5 -87.0 119.85 -89.7 126.6 -95.0 L129.95 -98.1 Q137.4 -105.95 144.35 -114.25 L161.6 -135.05 Q169.6 -130.55 165.3 -122.5 163.1 -118.45 158.7 -120.35 156.6 -121.1 154.45 -121.25 L158.4 -113.5 Q157.6 -106.25 152.6 -100.7" fill="url(#gradient0)" fill-rule="evenodd" stroke="none"/>
    <path d="M155.8 -73.95 L145.8 -86.05 179.0 -98.3 183.75 -100.1 Q195.4 -105.0 207.75 -106.05 L224.45 -88.7 Q228.1 -86.4 230.65 -82.6 232.9 -79.35 235.45 -76.5 L243.7 -66.8 243.3 -66.55 245.05 -64.95 245.2 -64.85 245.35 -64.85 Q260.7 -46.9 276.4 -30.15 L283.5 -22.35 Q288.7 -16.35 294.4 -10.7 297.2 -7.9 299.6 -4.9 279.4 3.5 260.1 13.95 252.15 18.35 244.25 22.9 L231.25 9.15 Q232.35 1.25 225.75 -4.35 222.9 -6.8 220.9 -10.05 L220.1 -11.2 219.6 -11.35 216.7 -15.0 216.05 -15.15 Q213.65 -17.9 210.9 -20.25 209.05 -21.9 208.2 -20.1 L203.7 -19.95 182.45 -44.75 Q184.75 -49.55 182.1 -53.35 L179.45 -57.05 Q174.6 -63.35 168.9 -69.0 L166.0 -71.8 Q164.2 -73.5 161.65 -73.65 L155.8 -73.95 M212.75 -50.35 L211.55 -52.65 Q214.85 -54.0 218.35 -53.3 L217.65 -50.65 218.5 -50.55 219.25 -53.1 Q222.85 -52.35 224.35 -49.55 L222.55 -48.0 223.2 -47.75 224.65 -48.45 Q226.35 -46.8 226.2 -44.1 L224.05 -44.35 223.45 -43.5 226.05 -43.1 Q225.4 -39.9 222.65 -37.85 L220.55 -39.75 219.4 -39.0 221.65 -37.2 Q218.65 -34.75 214.8 -35.8 L214.95 -39.3 214.45 -39.2 213.2 -36.15 Q209.95 -36.95 207.75 -39.3 L210.75 -41.2 210.4 -41.55 207.1 -40.35 Q205.8 -43.35 206.2 -46.65 L208.8 -46.0 206.25 -47.6 Q207.4 -50.85 210.65 -52.3 L211.35 -50.8 211.8 -50.4 212.75 -50.35 M194.85 -96.7 L194.6 -96.05 Q181.8 -93.5 170.2 -87.4 167.35 -85.85 164.6 -84.15 L165.6 -83.65 Q168.85 -76.6 173.9 -70.85 184.0 -59.3 194.4 -47.85 206.55 -34.45 218.8 -21.35 L232.05 -6.9 234.6 -4.15 238.95 0.5 Q242.2 4.5 246.55 7.85 L246.8 7.5 278.4 -5.3 278.6 -5.9 279.35 -6.4 279.2 -7.3 277.2 -7.45 251.45 -34.9 Q235.2 -52.4 219.65 -70.2 L198.2 -94.1 Q196.8 -95.6 194.85 -96.7 M183.45 -82.75 L184.15 -81.25 184.6 -80.85 185.55 -80.8 184.35 -83.1 Q187.65 -84.45 191.15 -83.75 L190.45 -81.1 191.3 -81.0 192.05 -83.55 Q195.65 -82.8 197.15 -80.0 L195.35 -78.45 196.0 -78.2 197.45 -78.9 Q199.15 -77.25 199.0 -74.55 L196.85 -74.8 196.25 -73.95 198.85 -73.55 Q198.2 -70.35 195.45 -68.3 L193.35 -70.2 192.2 -69.45 194.45 -67.65 Q191.45 -65.2 187.6 -66.25 L187.75 -69.75 187.25 -69.65 186.0 -66.6 Q182.75 -67.4 180.55 -69.75 L183.55 -71.65 183.2 -72.0 179.9 -70.8 Q178.6 -73.8 179.0 -77.1 L181.6 -76.45 179.05 -78.05 Q180.2 -81.3 183.45 -82.75 M240.7 -18.6 L241.65 -18.55 240.45 -20.85 Q243.75 -22.2 247.25 -21.5 L246.55 -18.85 247.4 -18.75 248.15 -21.3 Q251.75 -20.55 253.25 -17.75 L251.45 -16.2 252.1 -15.95 253.55 -16.65 Q255.25 -15.0 255.1 -12.3 L252.95 -12.55 252.35 -11.7 254.95 -11.3 Q254.3 -8.1 251.55 -6.05 L249.45 -7.95 248.3 -7.2 250.55 -5.4 Q247.55 -2.95 243.7 -4.0 L243.85 -7.5 243.35 -7.4 242.1 -4.35 Q238.85 -5.15 236.65 -7.5 L239.65 -9.4 239.3 -9.75 236.0 -8.55 Q234.7 -11.55 235.1 -14.85 L237.7 -14.2 235.15 -15.8 Q236.3 -19.05 239.55 -20.5 L240.25 -19.0 240.7 -18.6" fill="url(#gradient1)" fill-rule="evenodd" stroke="none"/>
    <path d="M160.15 -137.85 Q163.5 -138.4 166.85 -133.95 168.95 -130.3 169.25 -129.05 L169.35 -124.95 Q169.35 -120.7 168.85 -119.45 167.25 -115.55 161.05 -114.85 161.45 -109.85 159.85 -106.3 157.55 -101.2 151.05 -98.7 L151.1 -96.1 Q151.1 -94.25 149.8 -91.2 148.05 -87.1 145.35 -87.1 142.95 -87.1 142.35 -88.6 L142.2 -90.2 Q142.2 -92.35 143.7 -94.1 145.2 -95.85 145.2 -98.45 L144.15 -100.45 Q143.1 -102.35 143.1 -103.35 143.1 -106.95 146.5 -106.65 150.8 -106.25 152.1 -108.2 153.6 -110.45 154.0 -112.0 154.35 -113.2 154.35 -115.7 154.35 -116.4 153.35 -118.7 152.35 -120.95 152.35 -121.9 152.35 -123.1 153.3 -123.95 154.15 -124.7 155.35 -124.7 157.25 -124.7 158.2 -123.95 159.5 -122.9 161.3 -122.45 161.85 -123.35 161.85 -124.65 161.85 -127.6 159.5 -130.55 157.1 -133.5 157.1 -134.4 157.1 -137.35 160.15 -137.85 M132.2 -74.4 Q132.2 -71.4 123.7 -69.1 127.7 -65.1 131.75 -56.05 135.85 -46.8 135.85 -41.55 135.85 -33.35 128.6 -29.85 123.75 -27.45 116.35 -27.45 114.0 -27.45 113.1 -28.3 112.6 -28.8 112.6 -29.45 112.6 -30.8 115.05 -31.95 L120.5 -33.95 Q128.35 -36.8 128.35 -41.3 128.35 -42.05 126.25 -48.1 124.0 -54.55 122.85 -56.45 L118.05 -64.05 Q114.2 -70.15 114.2 -70.9 114.2 -72.5 117.0 -74.2 119.65 -75.8 123.2 -76.7 132.2 -79.0 132.2 -74.4 M96.85 -17.4 L97.85 -18.0 98.2 -18.45 Q102.7 -22.25 103.25 -16.05 103.55 -12.9 102.95 -8.2 102.95 -1.65 105.75 4.75 108.5 11.0 114.45 18.4 115.85 20.1 118.65 21.6 121.85 23.35 125.35 23.9 L132.15 25.1 157.6 26.15 Q160.15 26.25 162.0 27.1 L165.05 28.9 174.25 34.7 Q184.2 39.8 193.7 39.8 L207.85 37.5 221.1 35.15 Q225.35 35.15 229.55 36.85 233.85 38.6 235.3 41.05 236.2 42.55 239.45 44.5 L245.6 47.8 Q251.8 51.0 255.3 54.65 258.1 57.55 259.65 61.3 260.75 63.9 264.75 68.3 269.4 73.4 270.3 74.8 271.05 75.95 272.05 81.05 273.05 86.05 273.05 88.35 273.05 91.7 272.05 93.95 L270.55 95.45 Q269.25 96.25 267.55 96.55 265.7 96.9 266.3 95.8 266.6 95.2 265.4 96.15 L263.4 97.7 264.3 96.6 264.9 95.45 264.65 94.35 264.4 93.2 Q264.4 92.4 264.85 90.85 L265.3 88.7 Q265.3 82.45 262.1 77.55 L252.3 65.05 250.95 62.15 Q249.95 59.9 248.65 59.05 247.2 58.05 244.05 56.3 L238.8 53.4 Q233.6 50.45 227.65 45.55 224.7 43.15 221.05 43.15 L208.3 45.55 193.6 47.9 Q183.85 47.9 173.5 43.25 166.5 40.15 159.8 35.15 157.1 33.15 142.75 32.65 L128.45 32.55 122.85 31.65 Q120.0 31.1 117.95 30.3 114.85 29.05 112.1 27.15 109.6 25.4 108.45 23.9 101.2 14.3 98.85 9.15 96.1 3.05 96.1 -4.8 L96.05 -7.25 Q91.6 0.45 90.35 3.2 85.65 13.55 83.2 22.3 80.7 31.35 73.7 41.3 66.6 51.35 56.45 60.2 17.95 93.95 4.75 104.65 -25.9 129.6 -38.35 133.35 -32.5 125.05 -19.6 113.95 -4.05 101.2 3.55 94.7 L27.0 75.55 Q41.7 63.6 49.55 56.1 59.55 46.5 66.65 36.85 74.7 25.95 77.05 17.45 78.15 13.45 80.9 7.65 L85.7 -2.05 Q86.95 -4.6 91.7 -11.8 93.75 -15.1 96.85 -17.4" fill="#000000" fill-opacity="0.15294118" fill-rule="evenodd" stroke="none"/>
    <path d="M-102.7 -86.05 Q-82.1 -78.0 -71.55 -69.55 -58.35 -58.95 -49.65 -46.0 -43.4 -36.75 -36.7 -21.55 -34.15 -15.7 -31.4 0.1 -28.55 16.3 -28.55 25.9 L-28.55 27.25 Q-28.2 28.6 -28.2 29.65 L-28.6 33.05 -29.05 36.4 Q-29.05 44.7 -33.7 68.15 L-38.7 91.2 Q-43.55 108.15 -45.1 119.45 -46.55 129.75 -46.55 145.6 L-46.3 152.45 Q-40.85 150.7 -34.9 152.25 -29.2 153.75 -29.2 155.65 -29.2 156.2 -30.7 157.35 L-31.95 156.6 Q-32.95 155.95 -33.7 155.7 L-39.2 154.1 -39.95 154.1 -46.2 155.1 -46.05 157.6 -45.3 163.45 -44.7 169.6 Q-44.7 170.1 -45.25 170.75 L-46.45 171.55 Q-48.1 169.65 -48.5 165.1 L-48.8 158.45 -48.95 155.8 -49.05 155.8 -64.65 159.6 Q-90.3 165.05 -119.95 165.05 -146.4 165.05 -165.3 159.95 -173.75 157.65 -177.25 157.2 L-185.8 156.95 -186.45 157.6 -187.2 157.4 -187.4 157.05 -192.6 157.6 -193.0 157.35 -193.1 156.45 Q-193.1 155.35 -190.8 154.85 L-186.9 154.35 Q-185.85 152.1 -182.9 148.6 L-176.45 141.6 Q-168.8 133.7 -164.2 126.85 L-159.25 119.45 Q-156.35 114.85 -155.35 111.85 -154.5 109.4 -153.8 104.45 L-152.7 96.85 Q-152.05 92.95 -149.45 82.1 -147.1 72.35 -146.35 66.85 L-146.1 59.35 -145.85 51.85 -145.85 45.4 -147.15 34.0 -147.2 33.95 -147.15 33.95 -150.45 6.05 Q-152.35 -10.3 -152.35 -28.9 -152.35 -63.1 -145.85 -76.7 -144.5 -79.45 -142.1 -82.5 -139.45 -85.9 -136.6 -88.2 -132.45 -91.55 -126.75 -91.75 -122.4 -91.85 -116.2 -90.05 L-102.7 -86.05" fill="#000000" fill-rule="evenodd" stroke="none"/>
  </g>
  <defs>
    <linearGradient gradientTransform="matrix(-0.1432, 0.0998, -0.0891, -0.1279, 103.8, -28.85)" gradientUnits="userSpaceOnUse" id="gradient0" spreadMethod="pad" x1="-819.2" x2="819.2">
      <stop offset="0.0" stop-color="#557340"/>
      <stop offset="1.0" stop-color="#000000"/>
    </linearGradient>
    <linearGradient gradientTransform="matrix(0.1172, 0.0, 0.0, 1.0, 195.15, -238.05)" gradientUnits="userSpaceOnUse" id="gradient1" spreadMethod="pad" x1="-819.2" x2="819.2">
      <stop offset="0.0" stop-color="#333333"/>
      <stop offset="1.0" stop-color="#808080"/>
    </linearGradient>
  </defs>
</svg>
