<?xml version="1.0" encoding="UTF-8" standalone="no"?>
<svg xmlns:xlink="http://www.w3.org/1999/xlink" height="682.95px" width="922.1px" xmlns="http://www.w3.org/2000/svg">
  <g transform="matrix(1.0, 0.0, 0.0, 1.0, 0.0, 321.6)">
    <path d="M327.05 348.9 Q316.7 349.05 306.75 347.05 L295.8 344.1 295.25 355.4 291.95 342.0 290.25 340.75 Q290.95 325.2 285.4 310.5 281.15 299.2 271.15 291.85 261.1 284.45 245.9 290.7 230.7 296.95 217.1 301.85 L190.4 311.2 Q177.35 315.65 158.85 318.2 140.35 320.75 125.65 314.45 110.9 308.1 105.15 290.95 99.35 273.8 102.65 256.4 103.95 246.6 95.65 240.8 94.8 240.2 93.8 240.2 85.15 240.3 77.8 235.8 76.45 234.9 75.75 233.55 70.35 223.4 75.45 212.75 76.45 210.7 78.1 209.2 88.75 199.85 103.0 198.85 98.4 198.1 94.35 196.1 86.1 192.0 77.0 192.2 73.95 192.7 71.1 192.1 56.2 188.7 51.15 174.0 50.2 171.25 50.65 170.15 54.05 161.7 54.35 152.6 54.85 138.6 46.2 127.8 45.05 126.4 43.65 125.45 35.2 119.75 24.8 118.75 13.5 117.25 5.55 109.2 0.05 103.65 0.0 95.75 0.0 92.6 11.4 76.7 21.7 62.25 37.45 17.65 L36.4 17.65 35.85 17.1 Q35.55 16.5 35.8 15.8 36.6 13.7 38.7 13.4 L38.7 -114.65 Q167.05 -406.6 863.1 -286.65 L922.1 349.35 442.65 361.35 442.65 343.35 Q435.5 343.75 428.3 343.45 410.95 342.9 393.55 344.35 L355.95 348.1 346.95 348.7 327.05 348.9" fill="#000000" fill-rule="evenodd" stroke="none"/>
  </g>
</svg>
