<?xml version="1.0" encoding="UTF-8" standalone="no"?>
<svg xmlns:xlink="http://www.w3.org/1999/xlink" height="474.3px" width="758.05px" xmlns="http://www.w3.org/2000/svg">
  <g transform="matrix(1.0, 0.0, 0.0, 1.0, 301.25, 288.65)">
    <path d="M242.35 -281.65 L246.6 -281.85 246.6 -282.0 Q246.6 -282.8 246.75 -282.95 L247.1 -283.2 Q266.05 -276.05 280.8 -263.85 295.65 -251.6 298.05 -240.95 304.15 -226.8 314.05 -218.1 315.7 -216.6 329.35 -207.3 L336.95 -201.85 336.55 -203.15 336.65 -204.35 Q338.4 -204.55 340.45 -201.1 L343.4 -195.35 Q345.35 -191.8 352.05 -184.45 355.45 -180.75 363.2 -173.4 L374.8 -162.35 379.5 -157.7 Q381.9 -156.85 385.35 -154.25 393.05 -148.4 394.3 -147.7 L404.7 -140.8 Q413.25 -134.85 415.4 -133.45 436.55 -119.55 447.1 -112.05 447.2 -115.25 447.45 -117.45 448.2 -124.05 450.65 -128.2 L451.1 -128.1 451.9 -127.7 Q450.05 -123.0 449.5 -116.3 449.3 -113.85 449.25 -110.5 455.05 -106.35 456.8 -104.6 L456.65 -104.35 Q453.9 -104.9 449.25 -107.6 L449.3 -104.45 Q449.35 -100.35 448.75 -93.05 L447.8 -81.2 446.3 -57.95 Q445.8 -50.45 445.9 -35.1 445.9 -21.4 447.9 28.6 L449.9 81.05 449.6 88.05 Q449.25 93.7 448.65 94.35 L445.5 97.25 445.95 98.15 Q448.9 105.0 448.9 112.05 L448.85 116.85 Q448.65 120.05 447.9 121.8 447.25 123.45 446.9 125.7 446.5 127.2 444.8 127.8 L439.55 128.45 439.55 130.4 439.55 131.1 439.4 131.05 439.4 131.1 Q438.0 130.2 437.4 128.55 L419.15 128.8 Q411.35 128.8 410.45 127.45 409.55 126.05 400.9 126.05 392.85 126.05 391.15 127.15 L389.45 128.5 Q388.0 129.45 385.4 130.3 L377.8 130.2 363.9 131.05 Q363.75 131.05 363.7 132.45 363.6 133.8 362.15 133.8 355.5 133.8 345.7 130.05 L342.55 128.8 330.15 127.8 329.6 128.45 Q328.7 129.05 327.15 129.05 L322.9 128.8 322.35 128.5 Q322.2 128.45 322.2 127.6 L321.7 127.85 319.3 129.35 Q320.05 129.8 320.05 130.15 320.05 131.95 318.8 132.55 L315.55 133.05 314.85 133.6 311.35 134.05 310.4 134.55 Q310.15 134.8 309.9 134.75 309.6 134.65 309.5 134.0 303.65 133.6 296.35 128.55 293.45 126.6 291.75 125.05 L291.35 125.3 290.1 123.4 289.4 122.4 284.85 123.4 284.9 124.1 Q285.7 131.2 282.45 134.6 275.85 141.5 262.45 144.75 253.05 147.05 243.35 147.05 229.05 147.05 184.55 136.6 169.15 133.9 158.15 130.65 144.85 126.75 139.95 122.1 140.1 129.75 140.6 136.05 140.45 136.35 139.7 136.55 138.05 134.8 137.55 125.35 L137.45 122.95 Q132.85 124.85 126.85 124.85 L103.75 123.45 91.6 121.85 Q90.65 124.1 89.55 124.7 86.9 126.15 81.25 127.7 75.15 129.35 71.8 129.35 69.35 129.35 62.45 127.95 L54.55 126.2 46.7 125.6 Q42.5 125.55 38.55 124.2 35.0 123.15 32.95 122.3 29.3 120.85 28.85 119.35 L28.7 119.35 28.45 116.15 Q28.45 115.3 29.0 113.1 23.55 115.25 19.25 118.3 16.6 120.2 12.3 120.2 7.65 120.2 4.8 117.6 L2.65 114.7 -0.15 117.25 Q-1.65 118.35 -4.7 118.35 -8.65 118.35 -11.4 116.9 L-14.85 114.7 Q-15.25 118.25 -19.5 122.9 -23.4 127.2 -29.45 131.2 -38.7 137.3 -44.45 139.2 -54.25 142.35 -71.95 142.35 -86.8 142.35 -103.9 138.3 -111.3 136.55 -121.7 133.1 L-133.55 128.65 Q-141.15 125.7 -144.45 124.85 -149.2 123.6 -152.95 120.8 L-157.4 117.1 Q-156.85 117.9 -156.25 120.35 -155.3 122.3 -152.45 122.1 -153.25 123.2 -154.45 123.2 -157.0 123.2 -158.65 117.45 L-160.05 114.65 Q-161.2 112.4 -161.2 111.65 -161.2 110.85 -160.8 110.15 L-167.3 105.7 Q-174.5 100.6 -180.1 100.6 -182.1 100.6 -183.55 101.5 L-185.2 102.35 Q-186.15 102.35 -189.6 99.45 L-192.95 96.35 Q-199.3 91.35 -200.2 90.35 L-207.45 85.0 -210.7 82.45 -210.9 82.85 -210.95 83.1 -211.95 83.35 Q-212.8 83.35 -213.95 82.35 L-215.2 81.1 Q-215.25 82.15 -216.15 82.8 -216.9 83.35 -217.7 83.35 -220.95 83.35 -222.8 78.35 -223.35 76.85 -224.3 72.2 -224.7 70.45 -226.65 67.0 L-229.8 61.35 Q-232.05 56.6 -237.35 50.2 L-236.7 55.8 -236.95 56.0 -237.8 56.3 Q-239.9 51.55 -241.0 45.7 -243.95 41.75 -243.95 39.6 -243.95 38.0 -242.95 37.7 L-241.85 40.05 -241.85 40.0 Q-242.45 29.25 -242.95 23.6 -243.6 16.8 -243.95 3.7 L-244.2 -9.05 Q-244.2 -49.25 -232.05 -81.8 -224.15 -103.0 -220.4 -117.95 -215.3 -138.0 -215.2 -154.95 L-214.2 -155.05 -214.05 -154.5 Q-212.0 -157.25 -204.4 -164.6 -197.4 -171.25 -189.5 -172.65 L-181.8 -173.3 -172.95 -173.45 Q-172.95 -173.8 -155.35 -172.95 L-154.35 -171.7 -153.7 -170.35 Q-153.65 -169.05 -152.15 -166.0 L-150.95 -166.7 Q-150.15 -167.2 -147.2 -167.7 L-141.45 -168.6 -133.8 -169.6 -128.45 -170.2 Q-120.65 -171.75 -112.8 -171.5 L-97.95 -169.7 Q-95.8 -169.0 -93.6 -167.0 L-89.45 -163.7 -82.45 -161.35 Q-76.6 -159.45 -76.6 -158.45 -77.2 -156.35 -77.8 -155.0 -76.95 -154.7 -75.85 -154.05 L-68.1 -149.85 Q-56.35 -143.25 -52.45 -140.1 -50.2 -138.3 -45.5 -135.3 -40.55 -132.1 -37.1 -130.35 -34.85 -129.2 -28.95 -127.0 -24.2 -125.05 -24.2 -123.65 -24.2 -122.5 -25.85 -121.85 L-30.35 -120.6 -30.2 -120.3 Q-29.05 -118.1 -27.5 -114.1 L-26.05 -110.3 Q-25.05 -109.85 -23.95 -107.9 -22.5 -105.3 -20.2 -100.55 -19.65 -99.25 -14.85 -93.65 -11.75 -89.95 -11.25 -87.4 L-8.25 -89.9 -7.7 -90.35 -2.3 -94.55 21.5 -110.85 Q19.9 -113.55 19.9 -115.8 19.9 -120.8 22.75 -127.35 L28.3 -138.45 32.0 -145.65 Q30.45 -148.6 30.05 -151.4 29.9 -152.65 29.9 -157.8 29.9 -163.85 30.15 -165.45 30.8 -169.35 33.55 -172.2 37.35 -176.2 45.35 -176.3 52.6 -176.35 54.7 -172.45 L59.15 -175.6 65.8 -179.85 Q70.6 -182.55 79.3 -188.35 L86.45 -193.05 Q89.3 -194.65 91.85 -195.3 L91.55 -195.45 91.45 -196.2 Q98.65 -197.55 105.9 -201.8 L115.8 -207.7 116.2 -207.45 116.35 -207.35 116.9 -207.75 Q118.65 -208.9 119.45 -209.15 114.35 -213.85 112.55 -215.9 109.2 -219.7 109.2 -223.95 109.2 -226.35 110.7 -228.0 L116.05 -233.35 Q117.65 -235.0 119.45 -237.85 121.3 -240.9 121.7 -242.7 123.4 -249.45 123.7 -252.1 123.65 -255.25 124.0 -257.0 L124.3 -258.0 Q124.55 -260.05 125.6 -264.05 127.3 -270.35 129.05 -272.1 131.95 -275.0 137.35 -275.45 142.55 -275.9 143.95 -273.85 L145.2 -272.05 Q146.15 -270.6 146.3 -269.7 L146.45 -267.8 Q146.55 -266.55 146.8 -265.95 L147.6 -263.55 147.7 -263.6 154.05 -264.1 Q157.9 -264.1 160.7 -262.8 L163.7 -261.2 166.5 -267.3 Q168.45 -270.9 171.8 -273.45 L175.05 -275.9 Q177.55 -277.55 180.1 -278.2 L183.25 -279.15 187.1 -280.2 190.85 -280.1 Q194.4 -280.2 196.2 -281.85 L198.95 -284.9 Q200.4 -286.55 201.95 -287.3 206.3 -289.4 219.6 -288.25 224.55 -287.6 227.85 -286.4 L234.2 -284.0 Q240.8 -281.8 242.35 -281.65 M44.55 -82.95 L39.35 -79.3 Q36.65 -77.0 29.35 -71.8 L14.35 -61.0 11.45 -58.9 9.65 -57.6 Q11.7 -56.75 14.0 -53.55 L19.05 -46.4 24.9 -40.2 Q30.3 -34.3 30.3 -33.1 30.3 -31.25 25.3 -29.7 20.3 -28.1 20.3 -26.9 20.3 -26.45 27.05 -19.85 33.8 -13.3 33.8 -12.6 33.8 -10.7 30.15 -9.55 25.25 -8.05 23.4 -7.0 L26.35 -2.8 Q27.5 -2.35 28.25 -0.85 L30.1 3.2 Q31.05 4.7 34.2 11.45 36.4 16.05 36.8 24.0 L37.05 24.5 37.2 26.6 37.5 32.95 38.55 35.95 Q39.75 39.4 40.95 41.6 L44.1 47.55 Q46.25 51.35 47.8 53.2 49.55 55.3 51.85 59.35 L55.05 64.85 58.9 70.35 62.7 76.1 Q64.9 79.65 68.2 83.95 69.1 82.55 72.95 80.2 78.15 77.0 85.4 74.15 104.55 66.55 117.6 68.7 L134.1 71.2 137.75 72.6 138.1 72.75 138.35 59.2 Q138.35 44.6 137.85 37.45 L136.95 26.8 Q136.4 20.35 136.35 16.1 L136.15 5.15 Q135.85 -1.35 134.95 -5.7 L133.45 -10.95 Q132.1 -15.0 131.7 -16.55 130.2 -23.0 130.2 -26.9 130.2 -28.65 130.65 -29.5 L129.25 -35.05 Q127.15 -43.55 124.2 -48.95 122.25 -52.65 118.25 -55.6 115.15 -57.9 109.95 -60.35 L101.15 -64.9 Q95.25 -67.9 90.3 -69.45 67.7 -76.1 59.15 -79.15 51.35 -81.95 46.85 -84.8 L44.55 -82.95 M257.1 -124.45 Q248.55 -129.45 236.6 -133.8 222.85 -138.45 215.35 -141.35 208.55 -144.0 190.7 -149.5 L183.7 -151.7 185.7 -147.6 Q186.4 -145.75 188.35 -143.1 L191.8 -138.6 Q193.85 -135.7 199.0 -129.65 203.4 -124.2 204.45 -120.6 L208.9 -103.0 Q211.65 -91.9 214.45 -84.95 L229.35 -48.95 236.1 -30.95 239.7 -22.35 Q240.95 -19.3 241.5 -16.9 L242.3 -15.2 Q243.45 -13.75 244.55 -10.65 L246.3 -5.8 Q248.2 -1.55 249.6 3.3 251.1 8.5 251.6 12.95 252.5 20.8 256.15 31.6 258.25 37.85 262.85 50.1 267.75 63.85 277.2 87.15 L286.0 108.95 288.85 110.9 290.9 112.15 292.5 110.65 Q300.6 103.25 302.8 101.7 L314.65 93.1 Q322.15 87.7 328.3 84.1 333.5 81.1 344.95 75.25 354.9 70.2 362.4 66.6 365.0 65.35 369.75 63.5 L377.15 60.85 385.9 57.45 Q389.75 56.25 393.95 56.3 376.2 31.15 366.4 11.95 355.45 -9.4 338.4 -37.95 L323.9 -63.05 Q320.8 -68.3 314.3 -74.95 313.5 -75.75 311.95 -77.9 L309.75 -80.9 309.35 -80.35 299.25 -90.95 Q291.95 -98.65 286.3 -102.85 L271.95 -114.15 Q264.1 -120.35 257.1 -124.45 M162.6 122.6 L147.3 119.9 143.3 119.25 141.45 120.75 Q144.65 123.05 156.8 127.1 165.95 130.15 173.35 131.75 L185.55 134.05 215.35 140.4 Q233.95 144.1 243.35 144.1 256.65 144.1 267.35 140.35 274.25 137.95 276.6 135.8 282.0 130.7 282.35 127.15 L281.95 124.15 280.85 124.8 Q279.9 125.4 276.7 125.75 266.8 126.85 224.85 126.85 L191.85 126.7 185.45 125.5 162.6 122.6 M288.2 114.45 L288.4 114.5 288.75 114.15 287.95 113.8 288.2 114.45 M286.75 119.8 L286.35 119.5 285.65 120.2 286.75 119.8 M294.15 112.0 L292.85 113.15 293.85 113.45 294.15 112.0 M0.65 112.7 L0.6 112.7 0.6 112.75 0.65 112.7 M97.75 120.1 L98.35 120.15 97.3 119.2 97.75 120.1 M94.3 119.6 L92.95 117.7 92.45 119.35 94.3 119.6 M-110.85 -64.55 L-110.7 -64.45 -110.8 -64.55 -110.85 -64.55" fill="#000000" fill-opacity="0.33333334" fill-rule="evenodd" stroke="none"/>
    <path d="M259.4 132.4 L254.85 133.4 254.9 134.1 Q255.7 141.2 252.45 144.6 245.85 151.5 232.45 154.75 223.05 157.05 213.35 157.05 199.05 157.05 154.55 146.6 139.15 143.9 128.15 140.65 114.85 136.75 109.95 132.1 L110.0 134.05 Q110.15 140.55 110.6 146.05 110.45 146.35 109.7 146.55 108.05 144.8 107.55 135.35 L107.45 132.95 Q102.85 134.85 96.85 134.85 L73.75 133.45 61.6 131.85 Q60.65 134.1 59.55 134.7 56.9 136.15 51.25 137.7 45.15 139.35 41.8 139.35 L32.45 137.95 24.55 136.2 16.7 135.6 Q12.5 135.55 8.55 134.2 L2.95 132.3 Q-0.7 130.85 -1.15 129.35 L-1.3 129.35 -1.55 126.15 -1.0 123.1 Q-6.45 125.25 -10.75 128.3 -13.4 130.2 -17.7 130.2 -22.35 130.2 -25.2 127.6 L-27.35 124.7 Q-28.65 125.7 -30.15 127.25 -31.65 128.35 -34.7 128.35 -38.65 128.35 -41.4 126.9 L-44.85 124.7 Q-45.25 128.25 -49.5 132.9 -53.4 137.2 -59.45 141.2 -68.7 147.3 -74.45 149.2 -84.25 152.35 -101.95 152.35 -116.8 152.35 -133.9 148.3 -141.3 146.55 -151.7 143.1 L-163.55 138.65 Q-171.15 135.7 -174.45 134.85 -179.2 133.6 -182.95 130.8 -183.7 130.15 -185.55 131.3 -184.5 132.25 -182.45 132.1 -183.25 133.2 -184.45 133.2 -185.65 133.2 -186.6 132.0 -192.4 136.3 -206.3 153.8 -191.1 133.75 -187.4 130.75 L-188.65 127.45 Q-188.75 127.15 -202.1 137.25 -215.5 147.3 -231.2 162.65 -246.9 177.95 -211.8 136.15 -269.35 197.6 -267.65 182.75 -266.0 167.9 -252.3 151.6 -238.6 135.3 -263.05 154.25 -287.5 173.15 -281.15 164.35 -274.8 155.5 -250.05 132.25 -225.3 108.95 -275.95 121.35 -229.3 101.35 -260.45 106.85 -291.65 112.35 -285.8 106.95 -280.2 101.7 -243.05 93.0 L-243.95 92.35 -245.2 91.1 Q-245.25 92.15 -246.15 92.8 -246.9 93.35 -247.7 93.35 -250.95 93.35 -252.8 88.35 -253.35 86.85 -254.3 82.2 -254.7 80.45 -256.65 77.0 L-259.8 71.35 Q-262.05 66.6 -267.35 60.2 L-266.7 65.8 -266.95 66.0 -267.8 66.3 Q-269.9 61.55 -271.0 55.7 -273.95 51.75 -273.95 49.6 -273.95 48.0 -272.95 47.7 L-271.85 50.05 -271.85 50.0 Q-272.45 39.25 -272.95 33.6 -273.6 26.8 -273.95 13.7 L-274.2 0.95 Q-274.2 -39.25 -278.0 -63.35 -281.85 -87.45 -289.7 -102.5 -297.6 -117.55 -283.2 -135.95 L-301.25 -145.05 Q-245.8 -145.15 -282.05 -152.5 -242.0 -147.25 -234.4 -154.6 -227.4 -161.25 -219.5 -162.65 L-211.8 -163.3 -202.95 -163.45 Q-202.95 -163.8 -185.35 -162.95 L-184.35 -161.7 -183.7 -160.35 Q-183.65 -159.05 -182.15 -156.0 L-180.95 -156.7 Q-180.15 -157.2 -177.2 -157.7 L-171.45 -158.6 -163.8 -159.6 -158.45 -160.2 Q-150.65 -161.75 -142.8 -161.5 -136.65 -161.25 -127.95 -159.7 -125.8 -159.0 -123.6 -157.0 L-119.45 -153.7 -112.45 -151.35 Q-106.6 -149.45 -106.6 -148.45 -107.2 -146.35 -107.8 -145.0 L-105.85 -144.05 Q-99.3 -140.3 -98.1 -139.85 -86.35 -133.25 -82.45 -130.1 -80.2 -128.3 -75.5 -125.3 L-67.1 -120.35 Q-64.85 -119.2 -58.95 -117.0 -54.2 -115.05 -54.2 -113.65 -54.2 -112.5 -55.85 -111.85 L-60.35 -110.6 Q-59.15 -108.35 -57.5 -104.1 L-56.05 -100.3 Q-55.05 -99.85 -53.95 -97.9 L-50.2 -90.55 Q-49.65 -89.25 -44.85 -83.65 -41.75 -79.95 -41.25 -77.4 L-38.25 -79.9 -32.3 -84.55 -13.2 -97.7 -12.25 -98.3 -8.5 -100.85 Q-10.1 -103.55 -10.1 -105.8 -10.1 -110.8 -7.25 -117.35 L-1.7 -128.45 2.0 -135.65 Q0.45 -138.6 0.05 -141.4 L-0.1 -147.8 0.15 -155.45 Q0.8 -159.35 3.55 -162.2 7.35 -166.2 15.35 -166.3 22.6 -166.35 24.7 -162.45 L29.15 -165.6 Q33.3 -168.45 35.8 -169.85 40.6 -172.55 49.3 -178.35 L56.45 -183.05 Q59.3 -184.65 61.85 -185.3 L61.55 -185.45 61.45 -186.2 Q68.65 -187.55 75.9 -191.8 L85.8 -197.7 86.2 -197.45 86.35 -197.35 86.9 -197.75 89.45 -199.15 Q84.35 -203.85 82.55 -205.9 79.2 -209.7 79.2 -213.95 79.2 -216.35 80.7 -218.0 L86.05 -223.35 Q87.65 -225.0 89.45 -227.85 91.3 -230.9 91.7 -232.7 93.4 -239.45 93.7 -242.1 93.65 -245.25 94.0 -247.0 L94.3 -248.0 Q94.55 -250.05 95.6 -254.05 97.3 -260.35 99.05 -262.1 101.95 -265.0 107.35 -265.45 112.55 -265.9 113.95 -263.85 L115.2 -262.05 Q116.15 -260.6 116.3 -259.7 L116.45 -257.8 Q116.55 -256.55 116.8 -255.95 L117.6 -253.55 117.7 -253.6 124.05 -254.1 Q127.9 -254.1 130.7 -252.8 L133.7 -251.2 136.5 -257.3 Q138.45 -260.9 141.8 -263.45 L145.05 -265.9 Q147.55 -267.55 150.1 -268.2 L153.25 -269.15 157.1 -270.2 160.85 -270.1 Q164.4 -270.2 166.2 -271.85 L168.95 -274.9 169.85 -275.8 171.95 -277.3 Q176.3 -279.4 189.6 -278.25 194.55 -277.6 197.85 -276.4 L201.1 -275.2 204.2 -274.0 Q210.8 -271.8 212.35 -271.65 L216.6 -271.85 216.6 -272.0 Q216.6 -272.8 216.75 -272.95 L217.1 -273.2 Q236.05 -266.05 250.8 -253.85 265.65 -241.6 268.05 -230.95 274.15 -216.8 284.05 -208.1 285.7 -206.6 299.35 -197.3 L306.95 -191.85 306.55 -193.15 306.65 -194.35 Q308.4 -194.55 310.45 -191.1 L313.4 -185.35 Q315.35 -181.8 322.05 -174.45 325.45 -170.75 333.2 -163.4 L344.8 -152.35 349.5 -147.7 Q351.9 -146.85 355.35 -144.25 363.05 -138.4 364.3 -137.7 L374.7 -130.8 385.4 -123.45 Q406.55 -109.55 417.1 -102.05 417.2 -105.25 417.45 -107.45 418.2 -114.05 420.65 -118.2 L421.1 -118.1 421.9 -117.7 Q420.05 -113.0 419.5 -106.3 419.3 -103.85 419.25 -100.5 425.05 -96.35 426.8 -94.6 L426.65 -94.35 Q423.9 -94.9 419.25 -97.6 L419.3 -94.45 Q419.35 -90.35 418.75 -83.05 L417.8 -71.2 416.3 -47.95 Q415.8 -40.45 415.9 -25.1 415.9 -11.4 417.9 38.6 L419.9 91.05 419.6 98.05 Q419.25 103.7 418.65 104.35 L415.5 107.25 415.95 108.15 Q418.9 115.0 418.9 122.05 L418.85 126.85 Q418.65 130.05 417.9 131.8 417.25 133.45 416.9 135.7 416.5 137.2 414.8 137.8 L409.55 138.45 409.55 140.4 409.55 141.1 409.4 141.05 409.4 141.1 Q408.0 140.2 407.4 138.55 L389.15 138.8 Q381.35 138.8 380.45 137.45 379.55 136.05 370.9 136.05 362.85 136.05 361.15 137.15 L359.45 138.5 Q358.0 139.45 355.4 140.3 L347.8 140.2 333.9 141.05 Q333.75 141.05 333.7 142.45 333.6 143.8 332.15 143.8 325.5 143.8 315.7 140.05 L312.55 138.8 300.15 137.8 299.6 138.45 Q298.7 139.05 297.15 139.05 L292.9 138.8 292.35 138.5 Q292.2 138.45 292.2 137.6 L291.7 137.85 289.3 139.35 Q290.05 139.8 290.05 140.15 290.05 141.95 288.8 142.55 L285.55 143.05 284.55 143.05 Q275.75 143.05 264.05 135.3 L259.15 131.75 259.4 132.4 M281.35 144.05 L280.4 144.55 Q280.15 144.8 279.9 144.75 279.6 144.65 279.5 144.0 L280.55 144.05 281.35 144.05 M261.75 135.05 L261.35 135.3 260.1 133.4 261.75 135.05 M-173.95 -82.3 L-165.45 -80.7 -167.55 -84.3 -173.95 -82.3 M-167.45 -51.55 L-160.45 -54.2 Q-156.3 -56.0 -147.3 -56.8 L-149.8 -59.5 -156.2 -67.25 -157.85 -66.5 -162.15 -63.2 Q-165.0 -60.75 -167.8 -56.8 L-172.45 -49.95 -172.4 -49.8 -167.45 -51.55 M-4.95 -115.65 L-4.2 -116.2 Q-1.05 -118.25 2.45 -118.95 2.75 -120.35 4.65 -124.6 L7.55 -131.1 Q9.6 -136.15 23.8 -141.85 26.75 -143.05 29.7 -146.35 L34.85 -152.45 Q40.9 -159.15 49.75 -159.85 L51.35 -161.05 Q54.8 -163.4 57.3 -165.7 L60.95 -169.3 65.05 -173.1 Q68.5 -176.15 74.9 -176.3 82.1 -176.4 86.55 -179.1 L91.2 -182.45 Q93.05 -183.5 94.9 -183.2 L95.35 -183.45 Q97.35 -184.4 99.05 -184.6 L97.55 -189.9 Q96.75 -191.4 94.8 -193.7 L91.3 -197.45 91.05 -197.65 90.95 -197.6 Q90.65 -197.35 89.6 -197.05 L87.9 -196.55 Q86.1 -195.35 85.6 -195.2 L85.35 -195.45 Q82.5 -192.85 76.6 -189.4 68.55 -184.7 64.7 -184.6 61.95 -182.45 37.9 -168.2 21.4 -158.4 13.3 -148.6 6.7 -140.6 -0.75 -125.05 L-4.95 -115.65 M-140.95 -104.6 L-140.4 -104.0 -137.95 -101.3 Q-133.95 -97.55 -133.95 -95.35 -133.95 -92.85 -140.2 -91.6 L-144.0 -90.95 Q-140.85 -87.55 -135.45 -86.2 -130.5 -84.95 -124.55 -81.1 -119.9 -78.05 -116.6 -74.85 -113.85 -72.15 -112.4 -68.9 -111.1 -65.9 -111.1 -63.05 L-111.55 -57.25 -106.05 -56.75 -94.95 -55.55 Q-94.7 -55.55 -93.65 -54.75 L-92.35 -53.3 Q-94.35 -51.3 -99.1 -48.85 L-106.1 -45.25 -106.15 -45.4 Q-107.85 -44.6 -109.4 -45.05 -113.6 -46.15 -117.1 -44.55 L-120.0 -42.75 Q-122.1 -41.3 -122.6 -40.55 L-126.2 -36.5 Q-128.2 -34.3 -128.85 -32.75 L-128.85 -32.3 -129.1 -32.2 -129.2 -31.9 -130.2 -31.9 -131.45 -31.8 Q-132.25 -31.8 -134.35 -33.4 -136.45 -35.05 -137.35 -35.05 L-134.25 -31.9 Q-131.05 -29.05 -128.2 -29.05 -127.8 -29.05 -119.2 -37.65 L-116.15 -40.05 Q-113.45 -41.9 -112.45 -41.95 L-104.4 -42.65 -101.7 -43.3 -97.35 -43.6 -91.95 -44.1 -92.1 -43.35 Q-89.35 -42.2 -89.1 -42.2 -88.65 -42.2 -86.8 -46.15 -84.85 -50.2 -82.2 -50.7 L-81.9 -50.8 Q-81.6 -50.75 -81.6 -49.95 -81.6 -49.35 -83.35 -46.8 L-85.7 -43.2 -86.85 -39.75 Q-87.45 -37.55 -88.2 -36.55 L-85.8 -38.75 Q-83.9 -40.75 -82.95 -41.2 -81.95 -41.0 -81.7 -40.3 L-85.45 -36.25 Q-87.45 -33.75 -88.35 -31.7 L-88.6 -31.3 Q-81.15 -35.15 -80.45 -35.7 L-79.55 -35.45 Q-79.2 -35.25 -79.2 -34.4 -79.2 -33.65 -80.1 -33.0 L-82.6 -31.2 -82.85 -30.9 Q-82.0 -31.1 -79.25 -32.25 -77.3 -33.05 -75.8 -33.05 -74.5 -33.05 -74.2 -32.3 -75.1 -31.7 -80.35 -29.4 -85.0 -27.35 -86.85 -25.65 L-87.1 -25.3 Q-84.05 -25.65 -80.9 -26.7 L-77.45 -27.65 Q-75.3 -27.65 -74.7 -27.15 -75.35 -26.25 -79.75 -25.0 L-86.2 -23.05 -88.35 -21.4 -88.8 -20.95 -83.1 -20.5 Q-77.95 -20.1 -77.95 -18.55 -77.95 -17.65 -79.5 -17.4 L-88.95 -15.9 Q-90.65 -15.6 -91.65 -14.9 L-93.35 -13.15 -94.1 -12.9 -92.65 -13.15 -90.45 -13.4 -86.35 -13.4 -86.15 -13.25 Q-85.95 -13.15 -85.95 -12.4 L-86.05 -11.65 -86.35 -11.4 Q-90.7 -11.35 -91.9 -10.45 L-94.6 -8.9 -95.2 -8.55 -91.85 -7.45 Q-90.95 -7.05 -90.95 -6.2 -90.95 -4.15 -101.95 -0.85 -112.7 2.45 -118.2 2.35 -121.6 2.3 -122.45 4.15 L-123.2 7.1 -125.95 12.6 -127.35 12.45 -127.45 11.35 Q-127.45 10.2 -126.65 7.8 L-125.45 4.2 -129.8 7.7 Q-133.6 10.6 -134.2 10.6 L-135.1 10.35 -135.4 10.2 -135.45 9.4 Q-135.45 8.8 -133.85 5.95 L-132.1 2.85 -131.95 2.7 Q-135.45 3.65 -137.85 7.15 L-140.85 12.35 -140.95 12.45 Q-132.8 14.2 -126.2 19.5 -121.3 23.5 -120.15 26.9 L-118.85 28.85 -116.4 31.5 Q-114.45 33.2 -112.6 33.2 -109.75 33.2 -104.3 29.35 -98.85 25.45 -94.7 25.45 -92.8 25.45 -91.9 26.0 L-89.85 21.6 Q-89.85 20.05 -91.9 17.55 -93.85 15.3 -95.2 14.7 L-103.05 12.75 Q-109.95 10.95 -109.95 9.85 -109.95 7.7 -105.1 5.25 -99.6 2.5 -92.45 2.35 -85.25 0.95 -69.95 4.5 -58.3 7.15 -53.05 9.8 -54.65 6.25 -56.25 1.8 L-60.35 -9.55 Q-69.7 -31.7 -69.7 -32.85 L-69.65 -33.35 -70.2 -33.65 Q-66.95 -38.8 -65.4 -41.65 -62.55 -46.65 -61.95 -49.7 L-60.75 -53.95 -59.75 -57.55 -59.8 -57.55 Q-60.85 -57.55 -62.15 -58.35 -63.55 -58.8 -66.9 -61.25 L-71.95 -65.3 Q-73.5 -66.5 -76.6 -68.25 L-80.95 -70.8 Q-83.65 -72.55 -88.55 -76.55 L-90.7 -78.35 Q-99.85 -78.4 -101.45 -78.6 -110.4 -79.5 -113.5 -82.5 -114.6 -83.5 -115.35 -85.15 L-116.6 -87.7 Q-118.8 -91.2 -119.4 -97.35 L-119.5 -99.45 Q-121.25 -100.55 -122.95 -101.3 -129.15 -103.95 -140.95 -104.6 M-119.45 -58.45 L-120.2 -62.9 Q-120.75 -65.6 -122.1 -67.45 -126.6 -73.7 -136.6 -76.75 -146.75 -79.1 -149.45 -80.7 -152.7 -82.6 -155.2 -85.15 L-152.8 -78.4 Q-140.65 -76.2 -138.85 -75.05 -139.7 -73.55 -144.05 -71.85 L-148.85 -70.1 Q-145.2 -63.45 -140.25 -57.3 L-127.95 -57.55 -119.2 -57.45 -119.45 -58.45 M-140.85 -54.55 L-140.7 -54.45 -140.8 -54.55 -140.85 -54.55 M-88.0 -29.4 L-90.6 -27.3 Q-90.3 -27.3 -88.3 -28.65 L-85.85 -30.55 Q-86.3 -30.55 -88.0 -29.4 M-4.35 -85.9 L-4.0 -86.15 -0.45 -88.1 -0.45 -88.55 -0.35 -88.55 Q0.2 -88.9 0.95 -88.55 L1.65 -88.7 1.95 -88.45 2.05 -87.8 3.05 -86.75 5.9 -83.05 8.95 -79.6 11.5 -76.35 11.7 -76.3 11.8 -75.55 11.65 -75.4 Q11.6 -74.85 11.55 -75.2 L11.45 -74.65 10.55 -74.45 10.35 -74.45 6.35 -71.6 5.7 -71.15 -6.25 -62.75 -27.75 -47.6 Q-29.6 -44.3 -56.3 -26.55 -57.5 -26.55 -58.85 -28.55 L-60.1 -30.65 -62.1 -32.5 Q-63.65 -33.95 -63.85 -34.8 L-63.85 -34.9 -63.95 -34.9 Q-64.1 -34.2 -64.1 -35.45 -64.1 -36.55 -57.75 -42.15 L-48.35 -50.3 -31.7 -64.2 -13.05 -79.65 Q-7.9 -83.7 -4.35 -85.9 M-11.8 -95.8 L-17.7 -91.7 -33.2 -81.3 -38.9 -76.65 -44.8 -71.7 -56.2 -63.35 Q-56.45 -61.65 -57.85 -55.95 -59.45 -49.4 -59.95 -48.4 L-63.4 -41.05 Q-65.3 -37.3 -67.35 -34.55 -65.75 -31.85 -61.85 -28.25 -57.9 -24.6 -56.8 -24.3 L-55.85 -24.65 Q-53.95 -25.75 -48.2 -30.3 L-37.95 -38.3 -28.6 -44.7 Q-22.95 -48.6 -20.2 -50.7 L-10.4 -57.95 -1.4 -63.95 Q3.1 -66.95 6.6 -69.7 L7.35 -70.3 8.2 -71.05 12.95 -74.9 Q14.0 -75.6 15.1 -76.0 12.85 -77.75 11.8 -79.45 8.95 -84.0 -1.8 -93.35 -5.4 -96.5 -7.4 -99.25 L-10.95 -96.45 -11.8 -95.8 M-48.45 -27.25 Q-53.15 -23.7 -55.25 -22.35 -51.05 -7.05 -44.7 6.45 L-36.15 21.8 -36.1 21.9 -35.9 22.15 -32.8 26.1 -25.85 33.4 Q-20.9 38.55 -18.8 41.45 -16.5 44.5 -14.45 48.9 -12.5 52.95 -11.3 56.85 L-10.8 58.55 Q-11.6 52.55 -13.0 46.1 -15.75 33.4 -20.65 20.45 -23.8 12.2 -25.85 7.35 -28.8 0.4 -31.95 -5.45 L-40.05 -19.85 Q-44.25 -27.2 -45.3 -29.65 L-48.45 -27.25 M-2.95 -9.85 Q3.8 -3.3 3.8 -2.6 3.8 -0.7 0.15 0.45 -4.75 1.95 -6.6 3.0 L-3.65 7.2 Q-2.5 7.65 -1.75 9.15 L0.1 13.2 Q1.05 14.7 4.2 21.45 6.4 26.05 6.8 34.0 L7.05 34.5 7.2 36.6 7.5 42.95 8.55 45.95 Q9.75 49.4 10.95 51.6 L14.1 57.55 Q16.25 61.35 17.8 63.2 19.55 65.3 21.85 69.35 L25.05 74.85 28.9 80.35 32.7 86.1 Q34.9 89.65 38.2 93.95 39.1 92.55 42.95 90.2 48.15 87.0 55.4 84.15 71.6 77.7 83.45 78.3 L87.6 78.7 104.1 81.2 107.75 82.6 108.1 82.75 108.35 69.2 Q108.35 54.6 107.85 47.45 L106.95 36.8 Q106.4 30.35 106.35 26.1 L106.15 15.15 Q105.85 8.65 104.95 4.3 L103.45 -0.95 Q102.1 -5.0 101.7 -6.55 100.2 -13.0 100.2 -16.9 100.2 -18.65 100.65 -19.5 L99.25 -25.05 Q97.15 -33.55 94.2 -38.95 92.25 -42.65 88.25 -45.6 85.15 -47.9 79.95 -50.35 L71.15 -54.9 Q65.25 -57.9 60.3 -59.45 37.7 -66.1 29.15 -69.15 21.35 -71.95 16.85 -74.8 L14.55 -72.95 9.35 -69.3 8.6 -68.65 7.7 -67.95 Q4.8 -65.7 -0.65 -61.8 L-18.55 -48.9 -20.35 -47.6 Q-18.3 -46.75 -16.0 -43.55 L-10.95 -36.4 -5.1 -30.2 Q0.3 -24.3 0.3 -23.1 0.3 -21.25 -4.7 -19.7 -9.7 -18.1 -9.7 -16.9 -9.7 -16.45 -2.95 -9.85 M155.7 -137.6 Q156.4 -135.75 158.35 -133.1 L161.8 -128.6 Q163.85 -125.7 169.0 -119.65 173.4 -114.2 174.45 -110.6 L178.9 -93.0 Q181.65 -81.9 184.45 -74.95 L199.35 -38.95 206.1 -20.95 Q207.05 -18.4 209.7 -12.35 210.95 -9.3 211.5 -6.9 L212.3 -5.2 Q213.45 -3.75 214.55 -0.65 L216.3 4.2 Q218.2 8.45 219.6 13.3 221.1 18.5 221.6 22.95 222.5 30.8 226.15 41.6 228.25 47.85 232.85 60.1 237.75 73.85 247.2 97.15 L256.0 118.95 258.85 120.9 260.9 122.15 262.5 120.65 Q270.6 113.25 272.8 111.7 L284.65 103.1 Q292.15 97.7 298.3 94.1 303.5 91.1 314.95 85.25 L332.4 76.6 Q335.0 75.35 339.75 73.5 L347.15 70.85 355.9 67.45 Q359.75 66.25 363.95 66.3 346.2 41.15 336.4 21.95 325.45 0.6 308.4 -27.95 L293.9 -53.05 Q290.8 -58.3 284.3 -64.95 283.5 -65.75 281.95 -67.9 L279.75 -70.9 279.35 -70.35 269.25 -80.95 Q261.95 -88.65 256.3 -92.85 L241.95 -104.15 Q234.1 -110.35 227.1 -114.45 218.55 -119.45 206.6 -123.8 192.85 -128.45 185.35 -131.35 178.55 -134.0 160.7 -139.5 L153.7 -141.7 155.7 -137.6 M15.15 -153.85 L22.55 -160.7 20.5 -162.05 Q18.4 -163.95 14.95 -163.95 9.95 -163.95 6.95 -161.5 L7.8 -160.8 9.7 -158.45 Q10.0 -158.15 13.05 -155.8 L15.15 -153.85 M331.4 79.85 Q324.85 82.8 315.05 87.7 303.9 93.35 298.55 96.6 286.15 104.3 274.5 113.4 L268.0 118.65 268.05 119.45 Q268.05 121.8 267.45 122.95 L265.75 126.25 Q267.05 127.1 267.05 128.2 L266.6 129.45 267.8 130.55 Q270.8 133.55 281.0 136.45 L284.4 137.45 Q288.65 133.75 296.6 127.85 312.15 116.3 315.65 114.55 323.4 110.35 338.25 100.6 352.75 91.8 367.4 86.8 L376.4 83.65 367.9 71.85 365.05 67.9 354.25 71.35 Q339.45 76.2 331.4 79.85 M237.35 150.35 Q244.25 147.95 246.6 145.8 252.0 140.7 252.35 137.15 L251.95 134.15 Q251.45 134.4 250.85 134.8 249.9 135.4 246.7 135.75 236.8 136.85 194.85 136.85 L161.85 136.7 155.45 135.5 132.6 132.6 117.3 129.9 113.3 129.25 111.45 130.75 Q114.65 133.05 126.8 137.1 135.95 140.15 143.35 141.75 L155.55 144.05 185.35 150.4 Q203.95 154.1 213.35 154.1 226.65 154.1 237.35 150.35 M264.15 122.0 L262.85 123.15 263.85 123.45 264.15 122.0 M258.4 124.5 L258.75 124.15 257.95 123.8 258.2 124.45 258.4 124.5 M256.35 129.5 L255.65 130.2 256.75 129.8 256.35 129.5 M87.6 81.45 L85.0 81.5 Q69.25 81.65 60.95 84.05 58.2 84.85 56.1 85.95 L53.85 87.1 Q50.4 88.05 45.65 90.8 L38.95 94.9 Q43.15 100.15 49.05 106.55 L49.55 106.2 50.45 106.35 50.5 106.35 53.55 104.6 Q56.55 102.55 63.35 101.05 L78.1 98.35 Q85.8 96.9 92.45 97.0 99.7 97.0 105.75 98.85 L107.3 99.35 107.8 99.2 108.05 85.35 100.9 83.45 Q94.2 81.45 87.6 81.45 M62.95 127.7 L62.45 129.35 64.3 129.6 62.95 127.7 M67.75 130.1 L68.35 130.15 67.3 129.2 67.75 130.1 M-55.8 57.45 L-58.1 57.6 -62.85 60.6 Q-67.3 63.85 -68.95 65.85 -70.3 67.45 -71.0 69.2 L-71.05 69.3 -71.3 71.25 -71.15 71.3 -71.25 71.45 -70.7 73.25 -70.8 73.65 -72.25 73.6 -73.75 73.5 -73.85 73.55 -74.25 73.85 -75.55 74.6 -77.3 75.65 -78.05 76.55 Q-83.5 83.1 -84.35 92.45 -81.75 92.05 -78.15 90.8 L-74.9 89.9 -76.0 89.5 -75.85 89.45 -76.1 89.2 -76.4 88.4 Q-76.4 87.95 -74.5 87.75 L-74.05 87.7 -74.0 87.7 -72.65 87.8 -70.1 84.2 -66.35 79.35 -66.35 79.05 -66.4 78.8 -66.6 78.55 -66.5 78.5 -66.65 77.55 Q-66.65 77.1 -65.35 77.05 L-63.95 77.0 -60.7 72.55 -56.75 67.55 -56.75 67.1 -56.9 64.85 -56.8 64.55 -56.45 64.5 Q-56.15 64.5 -55.45 65.5 L-55.25 65.8 -54.45 64.95 -54.25 65.05 Q-54.0 61.5 -53.4 58.1 -54.0 57.45 -55.8 57.45 M-68.1 85.2 L-69.8 88.35 -70.3 89.15 -69.95 89.1 Q-66.3 88.7 -63.45 87.05 -61.5 85.9 -60.7 84.85 L-59.25 82.75 -60.15 81.35 Q-59.25 81.35 -58.65 81.9 L-57.55 80.1 -54.45 75.1 -54.45 68.55 -58.9 74.25 -62.85 78.85 Q-62.85 79.75 -65.05 81.95 L-68.1 85.2 M-20.5 90.05 Q-26.55 94.75 -32.8 98.85 -37.1 103.15 -40.95 110.0 -43.6 114.7 -45.4 119.45 -44.85 119.65 -44.3 120.35 L-42.8 122.5 Q-40.3 125.6 -34.9 125.6 -32.7 125.6 -31.45 124.65 L-29.6 122.9 -29.65 122.15 Q-29.65 120.85 -25.3 115.45 L-20.8 109.95 -17.85 104.15 Q-16.05 100.45 -15.55 98.35 L-12.3 86.7 -11.65 82.15 Q-14.65 85.45 -20.5 90.05 M-29.4 122.7 L-29.4 122.75 -29.35 122.7 -29.4 122.7" fill="#000000" fill-rule="evenodd" stroke="none"/>
    <path d="M-88.0 -29.4 Q-86.3 -30.55 -85.85 -30.55 L-88.3 -28.65 Q-90.3 -27.3 -90.6 -27.3 L-88.0 -29.4" fill="#4b224d" fill-rule="evenodd" stroke="none"/>
    <path d="M285.55 143.05 L284.85 143.6 281.35 144.05 280.55 144.05 279.5 144.0 Q273.65 143.6 266.35 138.55 L261.75 135.05 260.1 133.4 259.4 132.4 259.15 131.75 264.05 135.3 Q275.75 143.05 284.55 143.05 L285.55 143.05 M-11.8 -95.8 L-10.95 -96.45 -7.4 -99.25 Q-5.4 -96.5 -1.8 -93.35 8.95 -84.0 11.8 -79.45 12.85 -77.75 15.1 -76.0 14.0 -75.6 12.95 -74.9 L8.2 -71.05 7.35 -70.3 6.6 -69.7 Q3.1 -66.95 -1.4 -63.95 L-10.4 -57.95 -20.2 -50.7 Q-22.95 -48.6 -28.6 -44.7 L-37.95 -38.3 -48.2 -30.3 Q-53.95 -25.75 -55.85 -24.65 L-56.8 -24.3 Q-57.9 -24.6 -61.85 -28.25 -65.75 -31.85 -67.35 -34.55 -65.3 -37.3 -63.4 -41.05 L-59.95 -48.4 Q-59.45 -49.4 -57.85 -55.95 -56.45 -61.65 -56.2 -63.35 L-44.8 -71.7 -38.9 -76.65 -33.2 -81.3 -17.7 -91.7 -11.8 -95.8 M-4.35 -85.9 Q-7.9 -83.7 -13.05 -79.65 L-31.7 -64.2 -48.35 -50.3 -57.75 -42.15 Q-64.1 -36.55 -64.1 -35.45 -64.1 -34.2 -63.95 -34.9 L-63.85 -34.9 -63.85 -34.8 Q-63.65 -33.95 -62.1 -32.5 L-60.1 -30.65 -58.85 -28.55 Q-57.5 -26.55 -56.3 -26.55 -29.6 -44.3 -27.75 -47.6 L-6.25 -62.75 5.7 -71.15 6.35 -71.6 10.35 -74.45 10.55 -74.45 11.45 -74.65 11.55 -75.2 Q11.6 -74.85 11.65 -75.4 L11.8 -75.55 11.7 -76.3 11.5 -76.35 8.95 -79.6 5.9 -83.05 3.05 -86.75 2.05 -87.8 1.95 -88.45 1.65 -88.7 0.95 -88.55 Q0.2 -88.9 -0.35 -88.55 L-0.45 -88.55 -0.45 -88.1 -4.0 -86.15 -4.35 -85.9 M-68.1 85.2 L-65.05 81.95 Q-62.85 79.75 -62.85 78.85 L-58.9 74.25 -54.45 68.55 -54.45 75.1 -57.55 80.1 -58.65 81.9 Q-59.25 81.35 -60.15 81.35 L-59.25 82.75 -60.7 84.85 Q-61.5 85.9 -63.45 87.05 -66.3 88.7 -69.95 89.1 L-70.3 89.15 -69.8 88.35 -68.1 85.2 M-55.8 57.45 Q-54.0 57.45 -53.4 58.1 -54.0 61.5 -54.25 65.05 L-54.45 64.95 -55.25 65.8 -55.45 65.5 Q-56.15 64.5 -56.45 64.5 L-56.8 64.55 -56.9 64.85 -56.75 67.1 -56.75 67.55 -60.7 72.55 -63.95 77.0 -65.35 77.05 Q-66.65 77.1 -66.65 77.55 L-66.5 78.5 -66.6 78.55 -66.4 78.8 -66.35 79.05 -66.35 79.35 -70.1 84.2 -72.65 87.8 -74.0 87.7 -74.05 87.7 -74.5 87.75 Q-76.4 87.95 -76.4 88.4 L-76.1 89.2 -75.85 89.45 -76.0 89.5 -74.9 89.9 -78.15 90.8 Q-81.75 92.05 -84.35 92.45 -83.5 83.1 -78.05 76.55 L-77.3 75.65 -75.55 74.6 -74.25 73.85 -73.85 73.55 -73.75 73.5 -72.25 73.6 -70.8 73.65 -70.7 73.25 -71.25 71.45 -71.15 71.3 -71.3 71.25 -71.05 69.3 -71.0 69.2 Q-70.3 67.45 -68.95 65.85 -67.3 63.85 -62.85 60.6 L-58.1 57.6 -55.8 57.45" fill="#ffffff" fill-rule="evenodd" stroke="none"/>
    <path d="M-119.45 -58.45 L-119.2 -57.45 -127.95 -57.55 -140.25 -57.3 Q-145.2 -63.45 -148.85 -70.1 L-144.05 -71.85 Q-139.7 -73.55 -138.85 -75.05 -140.65 -76.2 -152.8 -78.4 L-155.2 -85.15 Q-152.7 -82.6 -149.45 -80.7 -146.75 -79.1 -136.6 -76.75 -126.6 -73.7 -122.1 -67.45 -120.75 -65.6 -120.2 -62.9 L-119.45 -58.45 M-140.95 -104.6 Q-129.15 -103.95 -122.95 -101.3 -121.25 -100.55 -119.5 -99.45 L-119.4 -97.35 Q-118.8 -91.2 -116.6 -87.7 L-115.35 -85.15 Q-114.6 -83.5 -113.5 -82.5 -110.4 -79.5 -101.45 -78.6 -99.85 -78.4 -90.7 -78.35 L-88.55 -76.55 Q-83.65 -72.55 -80.95 -70.8 L-76.6 -68.25 Q-73.5 -66.5 -71.95 -65.3 L-66.9 -61.25 Q-63.55 -58.8 -62.15 -58.35 -60.85 -57.55 -59.8 -57.55 L-59.75 -57.55 -60.75 -53.95 -61.95 -49.7 Q-62.55 -46.65 -65.4 -41.65 -66.95 -38.8 -70.2 -33.65 L-69.65 -33.35 -69.7 -32.85 Q-69.7 -31.7 -60.35 -9.55 L-56.25 1.8 Q-54.65 6.25 -53.05 9.8 -58.3 7.15 -69.95 4.5 -85.25 0.95 -92.45 2.35 -99.6 2.5 -105.1 5.25 -109.95 7.7 -109.95 9.85 -109.95 10.95 -103.05 12.75 L-95.2 14.7 Q-93.85 15.3 -91.9 17.55 -89.85 20.05 -89.85 21.6 L-91.9 26.0 Q-92.8 25.45 -94.7 25.45 -98.85 25.45 -104.3 29.35 -109.75 33.2 -112.6 33.2 -114.45 33.2 -116.4 31.5 L-118.85 28.85 -120.15 26.9 Q-121.3 23.5 -126.2 19.5 -132.8 14.2 -140.95 12.45 L-140.85 12.35 -137.85 7.15 Q-135.45 3.65 -131.95 2.7 L-132.1 2.85 -133.85 5.95 Q-135.45 8.8 -135.45 9.4 L-135.4 10.2 -135.1 10.35 -134.2 10.6 Q-133.6 10.6 -129.8 7.7 L-125.45 4.2 -126.65 7.8 Q-127.45 10.2 -127.45 11.35 L-127.35 12.45 -125.95 12.6 -123.2 7.1 -122.45 4.15 Q-121.6 2.3 -118.2 2.35 -112.7 2.45 -101.95 -0.85 -90.95 -4.15 -90.95 -6.2 -90.95 -7.05 -91.85 -7.45 L-95.2 -8.55 -94.6 -8.9 -91.9 -10.45 Q-90.7 -11.35 -86.35 -11.4 L-86.05 -11.65 -85.95 -12.4 Q-85.95 -13.15 -86.15 -13.25 L-86.35 -13.4 -90.45 -13.4 -92.65 -13.15 -94.1 -12.9 -93.35 -13.15 -91.65 -14.9 Q-90.65 -15.6 -88.95 -15.9 L-79.5 -17.4 Q-77.95 -17.65 -77.95 -18.55 -77.95 -20.1 -83.1 -20.5 L-88.8 -20.95 -88.35 -21.4 -86.2 -23.05 -79.75 -25.0 Q-75.35 -26.25 -74.7 -27.15 -75.3 -27.65 -77.45 -27.65 L-80.9 -26.7 Q-84.05 -25.65 -87.1 -25.3 L-86.85 -25.65 Q-85.0 -27.35 -80.35 -29.4 -75.1 -31.7 -74.2 -32.3 -74.5 -33.05 -75.8 -33.05 -77.3 -33.05 -79.25 -32.25 -82.0 -31.1 -82.85 -30.9 L-82.6 -31.2 -80.1 -33.0 Q-79.2 -33.65 -79.2 -34.4 -79.2 -35.25 -79.55 -35.45 L-80.45 -35.7 Q-81.15 -35.15 -88.6 -31.3 L-88.35 -31.7 Q-87.45 -33.75 -85.45 -36.25 L-81.7 -40.3 Q-81.95 -41.0 -82.95 -41.2 -83.9 -40.75 -85.8 -38.75 L-88.2 -36.55 Q-87.45 -37.55 -86.85 -39.75 L-85.7 -43.2 -83.35 -46.8 Q-81.6 -49.35 -81.6 -49.95 -81.6 -50.75 -81.9 -50.8 L-82.2 -50.7 Q-84.85 -50.2 -86.8 -46.15 -88.65 -42.2 -89.1 -42.2 -89.35 -42.2 -92.1 -43.35 L-91.95 -44.1 -97.35 -43.6 -101.7 -43.3 -104.4 -42.65 -112.45 -41.95 Q-113.45 -41.9 -116.15 -40.05 L-119.2 -37.65 Q-127.8 -29.05 -128.2 -29.05 -131.05 -29.05 -134.25 -31.9 L-137.35 -35.05 Q-136.45 -35.05 -134.35 -33.4 -132.25 -31.8 -131.45 -31.8 L-130.2 -31.9 -129.2 -31.9 -129.1 -32.2 -128.85 -32.3 -128.85 -32.75 Q-128.2 -34.3 -126.2 -36.5 L-122.6 -40.55 Q-122.1 -41.3 -120.0 -42.75 L-117.1 -44.55 Q-113.6 -46.15 -109.4 -45.05 -107.85 -44.6 -106.15 -45.4 L-106.1 -45.25 -99.1 -48.85 Q-94.35 -51.3 -92.35 -53.3 L-93.65 -54.75 Q-94.7 -55.55 -94.95 -55.55 L-106.05 -56.75 -111.55 -57.25 -111.1 -63.05 Q-111.1 -65.9 -112.4 -68.9 -113.85 -72.15 -116.6 -74.85 -119.9 -78.05 -124.55 -81.1 -130.5 -84.95 -135.45 -86.2 -140.85 -87.55 -144.0 -90.95 L-140.2 -91.6 Q-133.95 -92.85 -133.95 -95.35 -133.95 -97.55 -137.95 -101.3 L-140.4 -104.0 -140.95 -104.6 M-4.95 -115.65 L-0.75 -125.05 Q6.7 -140.6 13.3 -148.6 21.4 -158.4 37.9 -168.2 61.95 -182.45 64.7 -184.6 68.55 -184.7 76.6 -189.4 82.5 -192.85 85.35 -195.45 L85.6 -195.2 Q86.1 -195.35 87.9 -196.55 L89.6 -197.05 Q90.65 -197.35 90.95 -197.6 L91.05 -197.65 91.3 -197.45 94.8 -193.7 Q96.75 -191.4 97.55 -189.9 L99.05 -184.6 Q97.35 -184.4 95.35 -183.45 L94.9 -183.2 Q93.05 -183.5 91.2 -182.45 L86.55 -179.1 Q82.1 -176.4 74.9 -176.3 68.5 -176.15 65.05 -173.1 L60.95 -169.3 57.3 -165.7 Q54.8 -163.4 51.35 -161.05 L49.75 -159.85 Q40.9 -159.15 34.85 -152.45 L29.7 -146.35 Q26.75 -143.05 23.8 -141.85 9.6 -136.15 7.55 -131.1 L4.65 -124.6 Q2.75 -120.35 2.45 -118.95 -1.05 -118.25 -4.2 -116.2 L-4.95 -115.65 M-167.45 -51.55 L-172.4 -49.8 -172.45 -49.95 -167.8 -56.8 Q-165.0 -60.75 -162.15 -63.2 L-157.85 -66.5 -156.2 -67.25 -149.8 -59.5 -147.3 -56.8 Q-156.3 -56.0 -160.45 -54.2 L-167.45 -51.55 M-173.95 -82.3 L-167.55 -84.3 -165.45 -80.7 -173.95 -82.3 M-48.45 -27.25 L-45.3 -29.65 Q-44.25 -27.2 -40.05 -19.85 L-31.95 -5.45 Q-28.8 0.4 -25.85 7.35 -23.8 12.2 -20.65 20.45 -15.75 33.4 -13.0 46.1 -11.6 52.55 -10.8 58.55 L-11.3 56.85 Q-12.5 52.95 -14.45 48.9 -16.5 44.5 -18.8 41.45 -20.9 38.55 -25.85 33.4 L-32.8 26.1 -35.9 22.15 -36.1 21.9 -36.15 21.8 -44.7 6.45 Q-51.05 -7.05 -55.25 -22.35 -53.15 -23.7 -48.45 -27.25 M331.4 79.85 Q339.45 76.2 354.25 71.35 L365.05 67.9 367.9 71.85 376.4 83.65 367.4 86.8 Q352.75 91.8 338.25 100.6 323.4 110.35 315.65 114.55 312.15 116.3 296.6 127.85 288.65 133.75 284.4 137.45 L281.0 136.45 Q270.8 133.55 267.8 130.55 L266.6 129.45 267.05 128.2 Q267.05 127.1 265.75 126.25 L267.45 122.95 Q268.05 121.8 268.05 119.45 L268.0 118.65 274.5 113.4 Q286.15 104.3 298.55 96.6 303.9 93.35 315.05 87.7 324.85 82.8 331.4 79.85 M15.15 -153.85 L13.05 -155.8 Q10.0 -158.15 9.7 -158.45 L7.8 -160.8 6.95 -161.5 Q9.95 -163.95 14.95 -163.95 18.4 -163.95 20.5 -162.05 L22.55 -160.7 15.15 -153.85 M87.6 81.45 Q94.2 81.45 100.9 83.45 L108.05 85.35 107.8 99.2 107.3 99.35 105.75 98.85 Q99.7 97.0 92.45 97.0 85.8 96.9 78.1 98.35 L63.35 101.05 Q56.55 102.55 53.55 104.6 L50.5 106.35 50.45 106.35 49.55 106.2 49.05 106.55 Q43.15 100.15 38.95 94.9 L45.65 90.8 Q50.4 88.05 53.85 87.1 L56.1 85.95 Q58.2 84.85 60.95 84.05 69.25 81.65 85.0 81.5 L87.6 81.45 M-20.5 90.05 Q-14.65 85.45 -11.65 82.15 L-12.3 86.7 -15.55 98.35 Q-16.05 100.45 -17.85 104.15 L-20.8 109.95 -25.3 115.45 Q-29.65 120.85 -29.65 122.15 L-29.6 122.9 -31.45 124.65 Q-32.7 125.6 -34.9 125.6 -40.3 125.6 -42.8 122.5 L-44.3 120.35 Q-44.85 119.65 -45.4 119.45 -43.6 114.7 -40.95 110.0 -37.1 103.15 -32.8 98.85 -26.55 94.75 -20.5 90.05" fill="url(#gradient0)" fill-rule="evenodd" stroke="none"/>
  </g>
  <defs>
    <linearGradient gradientTransform="matrix(-0.1015, -0.1194, 0.7607, -0.6467, -295.7, 205.0)" gradientUnits="userSpaceOnUse" id="gradient0" spreadMethod="pad" x1="-819.2" x2="819.2">
      <stop offset="0.0" stop-color="#1c0d1e"/>
      <stop offset="1.0" stop-color="#4b224d"/>
    </linearGradient>
  </defs>
</svg>
