<?xml version="1.0" encoding="UTF-8" standalone="no"?>
<svg xmlns:xlink="http://www.w3.org/1999/xlink" height="621.45px" width="1024.75px" xmlns="http://www.w3.org/2000/svg">
  <g transform="matrix(1.0, 0.0, 0.0, 1.0, 767.85, 22.6)">
    <path d="M-427.55 -14.25 L-428.15 -18.0 Q-435.5 -15.55 -455.5 -2.75 -470.65 6.9 -481.35 15.45 L-498.45 29.75 -541.5 64.2 Q-567.85 85.9 -578.0 98.4 -592.35 116.1 -597.5 133.4 -600.85 144.55 -599.75 149.4 -596.8 160.8 -591.15 164.15 L-585.6 166.15 Q-585.5 165.25 -585.55 164.1 -585.5 162.35 -582.65 157.8 -573.85 143.75 -528.6 87.95 -493.95 45.25 -492.7 44.2 L-483.75 36.65 Q-473.4 27.6 -454.15 8.65 -451.0 5.55 -432.95 -9.5 L-427.55 -14.25 M-590.65 177.45 L-587.45 170.6 -588.7 170.05 Q-601.7 165.3 -604.0 158.2 -608.7 143.75 -599.75 123.25 -593.5 108.9 -583.05 96.0 -567.6 77.0 -501.75 26.35 -480.5 8.1 -463.1 -3.85 -442.1 -18.35 -428.85 -21.05 L-432.2 -22.6 -349.95 -15.5 Q-357.75 -5.85 -367.5 0.65 L-370.05 2.3 -370.3 3.05 -346.9 14.8 Q-343.95 12.3 -335.9 6.85 -325.3 -0.4 -318.15 -9.2 L-315.45 -12.7 -308.3 -12.1 Q-310.7 -9.3 -313.45 -6.95 -334.0 11.95 -335.5 12.95 -338.4 14.7 -341.85 16.65 L-342.5 16.95 -319.6 28.45 Q-294.7 40.45 -281.9 45.65 L-262.75 53.2 Q-251.15 57.75 -243.85 61.2 -230.8 67.3 -224.95 69.85 -213.5 74.85 -205.1 77.2 L-194.5 79.55 -183.05 81.8 Q-170.4 85.05 -163.75 88.25 -160.75 89.7 -159.8 91.0 L-148.8 93.7 Q-132.0 97.9 -119.6 98.4 -111.2 98.85 -101.8 95.95 -94.5 93.7 -84.75 88.85 L-67.45 80.85 Q-56.0 75.5 -48.0 70.15 -12.2 45.55 2.25 36.65 15.4 28.6 25.15 24.95 L24.85 23.7 26.7 23.95 Q28.1 23.95 29.2 23.3 L29.1 23.65 Q34.55 22.05 38.55 22.05 49.4 22.0 77.0 15.4 86.25 13.15 93.1 12.75 L93.05 12.5 95.05 12.85 97.4 12.65 Q103.45 12.75 107.2 14.55 115.75 18.65 123.9 27.85 L136.85 44.35 145.15 55.15 Q151.85 55.5 157.05 57.25 159.35 58.1 168.15 62.3 178.5 67.3 180.95 68.95 186.95 73.0 188.8 79.0 191.55 87.4 183.1 98.05 175.35 107.75 166.45 107.35 L167.0 115.85 Q167.4 123.7 167.1 128.15 166.5 136.8 167.05 153.1 166.95 157.35 167.35 166.5 167.0 171.55 165.35 175.5 L165.95 175.25 167.3 175.75 Q161.85 186.4 161.25 199.55 160.9 206.6 160.7 217.55 L159.85 217.9 159.5 218.0 159.6 219.05 Q159.65 222.3 159.25 223.55 172.75 220.7 178.2 219.95 188.3 218.65 195.55 222.1 199.65 224.1 200.9 227.45 L204.25 238.95 Q205.35 242.4 208.25 247.15 211.45 252.1 214.1 254.1 223.85 261.9 228.0 264.5 233.45 267.0 236.1 268.9 L237.45 270.1 Q240.7 272.15 246.35 276.85 255.3 284.25 256.45 288.05 258.25 294.3 253.15 301.8 248.3 309.1 243.3 309.3 L238.9 309.45 233.7 309.0 Q232.65 308.7 230.3 307.6 228.05 306.75 226.7 306.6 L221.75 305.7 221.75 305.85 Q221.0 308.3 215.75 314.75 211.6 319.85 206.35 322.5 L200.4 325.15 Q202.65 328.1 207.8 333.9 211.85 339.45 212.6 346.0 L213.25 352.3 Q213.4 357.0 211.7 360.95 L209.9 365.9 Q208.6 369.75 207.55 371.9 207.35 372.5 203.35 376.75 199.7 381.6 200.6 385.35 200.85 386.6 202.85 391.5 L203.4 393.45 Q203.95 395.5 203.7 397.45 202.6 404.95 186.25 421.7 179.8 427.75 174.2 431.2 L168.6 434.5 163.25 437.65 Q152.35 444.6 150.45 446.55 148.9 448.15 146.2 452.35 146.25 452.4 146.45 452.45 L147.9 453.45 147.95 454.15 Q115.3 473.5 78.5 483.1 41.55 492.75 20.75 487.25 -10.0 483.7 -35.55 489.7 -39.9 490.7 -70.55 501.2 -81.3 504.9 -88.05 506.9 L-85.35 507.4 Q-84.45 507.85 -83.4 508.55 -85.0 511.0 -93.05 510.9 L-106.1 510.1 Q-114.25 509.8 -134.05 512.65 -144.05 514.15 -164.95 518.45 L-196.35 524.75 -209.35 527.2 Q-213.4 529.7 -221.6 532.15 -239.9 537.6 -242.45 538.7 L-265.45 546.85 -289.55 555.05 Q-336.15 571.8 -360.35 579.6 -355.0 582.4 -351.5 584.55 -341.05 590.95 -336.55 597.65 L-337.25 598.15 -338.75 598.85 Q-344.8 592.55 -355.7 586.3 -359.65 584.05 -365.3 581.25 -378.65 585.55 -383.55 586.45 L-383.8 586.05 Q-379.9 582.8 -370.25 578.85 L-375.7 576.35 Q-382.75 573.0 -394.55 566.2 -410.4 557.1 -413.8 555.25 L-451.95 534.15 Q-464.2 527.35 -490.5 514.9 -513.9 503.65 -601.5 465.25 -689.05 426.85 -693.25 424.85 L-704.9 418.7 Q-714.15 413.65 -714.6 412.3 L-716.2 405.7 -718.2 405.55 Q-733.1 403.85 -745.15 398.05 L-753.3 394.05 Q-758.55 391.2 -760.7 388.75 -762.85 386.5 -766.3 384.2 -768.45 382.5 -767.6 379.7 -767.0 377.75 -763.1 372.2 L-766.4 370.6 -767.6 370.05 -767.35 369.85 -767.45 369.85 Q-764.35 368.65 -760.9 369.2 -754.35 360.4 -741.65 344.75 -733.25 334.4 -729.95 334.3 -726.6 334.25 -717.25 322.75 -708.6 312.0 -708.6 308.85 L-709.05 305.5 Q-709.15 302.8 -707.8 298.65 L-699.4 288.6 Q-690.2 277.3 -685.85 269.4 -685.65 269.2 -688.0 268.0 -690.2 266.75 -688.65 264.85 -681.45 256.0 -664.5 246.05 L-659.0 242.9 -643.85 227.25 Q-644.3 226.85 -644.4 225.95 -644.45 224.25 -642.75 222.2 L-637.75 216.75 -636.65 216.25 Q-636.4 216.1 -634.95 216.8 L-634.85 215.95 -634.8 211.5 Q-636.4 212.15 -637.0 211.85 -640.05 210.4 -639.75 208.25 -639.4 206.7 -637.1 203.5 L-636.0 202.2 Q-626.5 190.5 -600.65 181.25 -595.0 179.3 -589.3 177.65 L-590.65 177.45 M-634.25 197.1 L-634.1 195.4 Q-634.25 194.9 -633.9 194.6 L-632.15 194.65 -633.4 196.0 -634.25 197.1 M-597.7 178.4 L-597.7 177.7 -593.1 177.55 -597.7 178.4 M183.95 82.95 L181.85 83.5 175.8 84.1 167.6 86.4 162.05 87.6 Q164.55 95.45 165.75 103.05 167.6 102.1 170.25 101.4 175.8 100.2 179.5 95.65 184.9 89.0 183.95 82.95 M118.6 30.95 Q118.7 36.8 116.1 42.05 118.2 43.6 123.4 49.65 L131.35 58.8 Q137.8 65.65 132.2 89.25 131.05 94.15 133.55 100.8 134.9 104.6 138.4 112.65 143.3 126.2 134.95 138.5 L135.25 141.65 Q135.55 148.2 136.8 153.35 L139.0 161.15 141.1 169.75 Q142.55 176.85 135.9 185.45 128.3 195.15 128.1 203.25 127.95 206.05 128.8 212.2 128.6 215.55 126.1 217.75 L126.0 218.55 Q125.5 221.95 124.0 224.45 L134.7 226.8 144.1 226.25 154.35 224.65 154.9 224.5 154.95 224.3 Q154.85 223.7 155.5 222.05 L156.45 219.4 Q156.35 216.0 156.65 215.25 L157.3 215.1 Q155.95 209.15 156.4 198.45 157.1 183.9 161.05 178.75 160.4 173.3 162.0 129.6 163.05 99.6 155.05 80.85 148.5 65.45 130.0 42.8 123.6 35.0 118.5 29.5 L118.6 30.95 M-300.95 228.1 L-304.7 227.75 -314.95 227.05 -325.15 225.35 Q-334.45 224.4 -344.2 222.3 -354.7 220.0 -362.85 217.0 -377.25 211.75 -399.6 207.75 L-438.5 201.5 Q-467.25 196.75 -517.25 190.15 L-564.0 183.95 -570.4 186.15 -574.8 187.9 -573.9 191.2 Q-570.05 208.1 -569.75 212.25 -569.35 219.7 -567.85 235.05 -566.7 249.5 -567.2 260.65 -567.7 270.0 -570.05 290.0 -572.15 307.4 -574.1 320.35 -574.8 324.85 -576.75 332.65 L-580.25 344.7 Q-581.85 349.75 -583.9 359.15 -586.0 365.2 -590.55 370.8 -528.45 367.8 -485.1 370.55 L-369.6 374.25 Q-359.8 374.35 -311.05 375.55 -298.75 375.75 -280.4 372.55 L-272.8 371.9 -265.3 371.4 -265.8 370.4 -236.8 365.7 Q-215.75 362.3 -202.45 358.2 -200.1 357.45 -167.65 348.45 -148.65 343.1 -134.05 337.15 -116.3 329.85 -95.95 317.5 -73.15 303.1 -60.15 295.45 -48.25 288.6 -19.6 269.35 L-8.25 261.85 -17.4 261.15 Q-21.4 260.6 -28.0 261.0 L-39.4 261.9 -62.5 264.1 Q-76.55 265.5 -83.8 263.95 L-118.65 255.45 Q-140.65 250.0 -155.5 247.95 L-233.1 238.25 -271.15 232.45 -289.7 230.2 -300.95 228.1 M-593.4 189.45 L-596.6 190.15 Q-604.9 191.65 -620.9 202.85 L-626.25 206.55 Q-624.55 215.25 -623.0 230.65 -620.1 260.85 -620.9 266.9 -622.05 280.65 -621.4 308.4 -622.1 334.95 -629.35 358.55 L-633.65 373.1 -604.35 371.45 -594.5 370.9 -588.75 353.75 Q-581.05 330.05 -578.6 316.35 -576.55 305.25 -574.4 288.15 -572.0 268.65 -571.75 258.9 -571.55 236.1 -574.5 213.1 -575.4 206.35 -576.45 200.2 L-577.85 199.6 Q-581.9 197.65 -583.2 195.95 L-587.0 190.95 -591.7 191.05 Q-592.85 190.55 -593.4 189.45 M-574.4 182.6 L-575.75 182.4 -576.1 182.6 -575.85 183.4 -574.4 182.6 M-582.85 174.25 L-583.35 176.05 -582.4 175.8 -582.85 174.25 M-578.6 189.65 L-580.15 190.7 -578.05 192.3 -578.6 189.65" fill="#000000" fill-rule="evenodd" stroke="none"/>
    <path d="M-349.95 -15.5 L-315.45 -12.7 -318.15 -9.2 Q-325.3 -0.4 -335.9 6.85 -343.95 12.3 -346.9 14.8 L-370.3 3.05 -370.05 2.3 -367.5 0.65 Q-357.75 -5.85 -349.95 -15.5 M118.6 30.95 L118.5 29.5 Q123.6 35.0 130.0 42.8 148.5 65.45 155.05 80.85 163.05 99.6 162.0 129.6 160.4 173.3 161.05 178.75 157.1 183.9 156.4 198.45 155.95 209.15 157.3 215.1 L156.65 215.25 Q156.35 216.0 156.45 219.4 L155.5 222.05 Q154.85 223.7 154.95 224.3 L154.9 224.5 154.35 224.65 144.1 226.25 134.7 226.8 124.0 224.45 Q125.5 221.95 126.0 218.55 L126.1 217.75 Q128.6 215.55 128.8 212.2 127.95 206.05 128.1 203.25 128.3 195.15 135.9 185.45 142.55 176.85 141.1 169.75 L139.0 161.15 136.8 153.35 Q135.55 148.2 135.25 141.65 L134.95 138.5 Q143.3 126.2 138.4 112.65 134.9 104.6 133.55 100.8 131.05 94.15 132.2 89.25 137.8 65.65 131.35 58.8 L123.4 49.65 Q118.2 43.6 116.1 42.05 118.7 36.8 118.6 30.95 M183.95 82.95 Q184.9 89.0 179.5 95.65 175.8 100.2 170.25 101.4 167.6 102.1 165.75 103.05 164.55 95.45 162.05 87.6 L167.6 86.4 175.8 84.1 181.85 83.5 183.95 82.95 M-593.4 189.45 Q-592.85 190.55 -591.7 191.05 L-587.0 190.95 -583.2 195.95 Q-581.9 197.65 -577.85 199.6 L-576.45 200.2 Q-575.4 206.35 -574.5 213.1 -571.55 236.1 -571.75 258.9 -572.0 268.65 -574.4 288.15 -576.55 305.25 -578.6 316.35 -581.05 330.05 -588.75 353.75 L-594.5 370.9 -604.35 371.45 -633.65 373.1 -629.35 358.55 Q-622.1 334.95 -621.4 308.4 -622.05 280.65 -620.9 266.9 -620.1 260.85 -623.0 230.65 -624.55 215.25 -626.25 206.55 L-620.9 202.85 Q-604.9 191.65 -596.6 190.15 L-593.4 189.45" fill="url(#gradient0)" fill-rule="evenodd" stroke="none"/>
    <path d="M-637.1 203.5 Q-637.4 202.9 -637.3 202.1 -636.95 200.6 -634.25 197.1 L-633.4 196.0 -632.15 194.65 Q-625.2 187.2 -608.65 181.65 -602.2 179.4 -597.7 178.4 L-593.1 177.55 -590.65 177.45 -589.3 177.65 Q-595.0 179.3 -600.65 181.25 -626.5 190.5 -636.0 202.2 L-637.1 203.5" fill="#ffffff" fill-rule="evenodd" stroke="none"/>
  </g>
  <defs>
    <linearGradient gradientTransform="matrix(0.3136, -0.037, 0.2836, 1.5425, -115.5, -620.4)" gradientUnits="userSpaceOnUse" id="gradient0" spreadMethod="pad" x1="-819.2" x2="819.2">
      <stop offset="0.0" stop-color="#1c0d1e"/>
      <stop offset="1.0" stop-color="#4b224d"/>
    </linearGradient>
  </defs>
</svg>
