<?xml version="1.0" encoding="UTF-8" standalone="no"?>
<svg xmlns:xlink="http://www.w3.org/1999/xlink" height="190.15px" width="175.9px" xmlns="http://www.w3.org/2000/svg">
  <g transform="matrix(1.0, 0.0, 0.0, 1.0, 273.0, 33.3)">
    <path d="M-122.3 -29.0 Q-117.95 -33.3 -111.85 -33.3 -105.75 -33.3 -101.45 -29.0 -97.1 -24.65 -97.1 -18.55 -97.1 -12.45 -101.45 -8.15 -105.75 -3.8 -111.85 -3.8 -117.95 -3.8 -122.3 -8.15 -126.6 -12.45 -126.6 -18.55 -126.6 -24.65 -122.3 -29.0" fill="url(#gradient0)" fill-rule="evenodd" stroke="none"/>
    <path d="M-258.15 60.0 Q-257.15 63.2 -257.0 64.85 -256.6 68.5 -256.15 69.2 -255.6 70.1 -251.0 73.85 -250.05 74.6 -249.25 78.2 -248.4 82.15 -247.25 83.6 -241.35 91.05 -240.25 93.35 -237.95 97.75 -236.05 102.25 -233.0 109.5 -233.0 112.5 -233.0 115.85 -235.65 116.9 L-234.15 121.0 Q-231.0 129.95 -231.0 133.1 -231.0 137.8 -231.8 141.35 -233.45 148.85 -238.0 148.85 -241.4 148.85 -243.2 147.55 L-243.2 147.75 Q-242.9 151.0 -243.05 151.95 -243.7 156.85 -253.0 156.85 -260.85 156.85 -262.45 152.85 -262.95 151.6 -263.05 149.45 -263.1 147.15 -263.25 146.6 -263.95 144.0 -264.5 140.4 L-265.0 135.0 -264.0 123.2 -263.0 111.45 Q-266.0 104.85 -266.0 103.75 -266.0 103.1 -264.65 101.0 L-268.0 90.25 Q-273.0 73.95 -273.0 57.75 -273.0 48.55 -269.2 47.5 -265.25 46.45 -259.5 55.1 L-258.15 60.0" fill="#000000" fill-rule="evenodd" stroke="none"/>
  </g>
  <defs>
    <radialGradient cx="0" cy="0" gradientTransform="matrix(0.0181, 0.0, 0.0, 0.0181, -111.85, -18.55)" gradientUnits="userSpaceOnUse" id="gradient0" r="819.2" spreadMethod="pad">
      <stop offset="0.0" stop-color="#ffc900" stop-opacity="0.2509804"/>
      <stop offset="1.0" stop-color="#ffc900" stop-opacity="0.0"/>
    </radialGradient>
  </defs>
</svg>
