<?xml version="1.0" encoding="UTF-8" standalone="no"?>
<svg xmlns:xlink="http://www.w3.org/1999/xlink" height="621.45px" width="1024.75px" xmlns="http://www.w3.org/2000/svg">
  <g transform="matrix(1.0, 0.0, 0.0, 1.0, 774.0, -107.1)">
    <path d="M-321.6 117.0 L-314.45 117.6 Q-316.85 120.4 -319.6 122.75 -340.15 141.65 -341.65 142.65 L-348.0 146.35 -348.65 146.65 -325.75 158.15 Q-300.85 170.15 -288.05 175.35 L-268.9 182.9 Q-257.3 187.45 -250.0 190.9 -236.95 197.0 -231.1 199.55 -219.65 204.55 -211.25 206.9 L-200.65 209.25 -189.2 211.5 Q-176.55 214.75 -169.9 217.95 -166.9 219.4 -165.95 220.7 L-154.95 223.4 Q-138.15 227.6 -125.75 228.1 -117.35 228.55 -107.95 225.65 -100.65 223.4 -90.9 218.55 L-73.6 210.55 Q-62.15 205.2 -54.15 199.85 -18.35 175.25 -3.9 166.35 9.25 158.3 19.0 154.65 L18.7 153.4 20.55 153.65 Q21.95 153.65 23.05 153.0 L22.95 153.35 Q28.4 151.75 32.4 151.75 43.25 151.7 70.85 145.1 80.1 142.85 86.95 142.45 L86.9 142.2 88.9 142.55 91.25 142.35 Q97.3 142.45 101.05 144.25 109.6 148.35 117.75 157.55 L130.7 174.05 139.0 184.85 Q145.7 185.2 150.9 186.95 153.2 187.8 162.0 192.0 172.35 197.0 174.8 198.65 180.8 202.7 182.65 208.7 185.4 217.1 176.95 227.75 169.2 237.45 160.3 237.05 L160.85 245.55 Q161.25 253.4 160.95 257.85 160.35 266.5 160.9 282.8 160.8 287.05 161.2 296.2 160.85 301.25 159.2 305.2 159.45 305.05 159.8 304.95 L161.15 305.45 Q155.7 316.1 155.1 329.25 154.75 336.3 154.55 347.25 L153.7 347.6 153.35 347.7 153.45 348.75 Q153.5 352.0 153.1 353.25 166.6 350.4 172.05 349.65 182.15 348.35 189.4 351.8 193.5 353.8 194.75 357.15 L198.1 368.65 Q199.2 372.1 202.1 376.85 205.3 381.8 207.95 383.8 217.7 391.6 221.85 394.2 227.3 396.7 229.95 398.6 L231.3 399.8 Q234.55 401.85 240.2 406.55 249.15 413.95 250.3 417.75 252.1 424.0 247.0 431.5 242.15 438.8 237.15 439.0 L232.75 439.15 227.55 438.7 224.15 437.3 Q221.9 436.45 220.55 436.3 L215.6 435.4 215.6 435.55 Q214.85 438.0 209.6 444.45 205.45 449.55 200.2 452.2 L194.25 454.85 Q196.5 457.8 201.65 463.6 205.7 469.15 206.45 475.7 L207.1 482.0 Q207.25 486.7 205.55 490.65 L203.75 495.6 Q202.45 499.45 201.4 501.6 201.2 502.2 197.2 506.45 193.55 511.3 194.45 515.05 194.7 516.3 196.7 521.2 L197.25 523.15 Q197.8 525.2 197.55 527.15 196.45 534.65 180.1 551.4 173.65 557.45 168.05 560.9 L162.45 564.2 157.1 567.35 Q146.2 574.3 144.3 576.25 142.75 577.85 140.05 582.05 L140.3 582.15 Q141.65 582.85 141.75 583.15 L141.8 583.85 Q109.15 603.2 72.35 612.8 35.4 622.45 14.6 616.95 -16.15 613.4 -41.7 619.4 -46.05 620.4 -76.7 630.9 L-94.2 636.6 Q-92.1 636.8 -91.5 637.1 -90.6 637.55 -89.55 638.25 -91.15 640.7 -99.2 640.6 L-112.25 639.8 Q-120.4 639.5 -140.2 642.35 -150.2 643.85 -171.1 648.15 L-202.5 654.45 -215.5 656.9 Q-219.55 659.4 -227.75 661.85 -246.05 667.3 -248.6 668.4 L-271.6 676.55 -295.7 684.75 Q-342.3 701.5 -366.5 709.3 -361.15 712.1 -357.65 714.25 -347.2 720.65 -342.7 727.35 L-343.4 727.85 -344.9 728.55 Q-350.95 722.25 -361.85 716.0 -365.8 713.75 -371.45 710.95 -384.8 715.25 -389.7 716.15 L-389.95 715.75 Q-386.05 712.5 -376.4 708.55 L-381.85 706.05 Q-388.9 702.7 -400.7 695.9 -416.55 686.8 -419.95 684.95 L-458.1 663.85 Q-470.35 657.05 -496.65 644.6 -520.05 633.35 -607.65 594.95 L-699.4 554.55 -711.05 548.4 Q-720.3 543.35 -720.75 542.0 L-722.35 535.4 -724.35 535.25 Q-739.25 533.55 -751.3 527.75 L-759.45 523.75 Q-764.7 520.9 -766.85 518.45 -769.0 516.2 -772.45 513.9 -774.6 512.2 -773.75 509.4 -773.15 507.45 -769.25 501.9 L-772.55 500.3 Q-773.15 500.05 -773.75 499.75 L-773.5 499.55 -773.6 499.55 Q-770.5 498.35 -767.05 498.9 -760.5 490.1 -747.8 474.45 -739.4 464.1 -736.1 464.0 -732.75 463.95 -723.4 452.45 -714.75 441.7 -714.75 438.55 L-715.2 435.2 Q-715.3 432.5 -713.95 428.35 L-705.55 418.3 Q-696.35 407.0 -692.0 399.1 -691.8 398.9 -694.15 397.7 -696.35 396.45 -694.8 394.55 -687.6 385.7 -670.65 375.75 L-665.15 372.6 Q-658.5 365.95 -650.0 356.95 -650.45 356.55 -650.55 355.65 -650.6 353.95 -648.9 351.9 L-643.9 346.45 -642.8 345.95 Q-642.55 345.8 -641.1 346.5 L-641.0 345.65 -640.95 341.2 -643.15 341.55 Q-646.2 340.1 -645.9 337.95 -645.55 336.4 -643.25 333.2 L-642.15 331.9 Q-632.65 320.2 -606.8 310.95 -601.15 309.0 -595.45 307.35 L-596.8 307.15 -593.6 300.3 -594.85 299.75 Q-607.85 295.0 -610.15 287.9 -614.85 273.45 -605.9 252.95 -599.65 238.6 -589.2 225.7 -573.75 206.7 -507.9 156.05 -486.65 137.8 -469.25 125.85 -448.25 111.35 -435.0 108.65 L-438.35 107.1 -356.1 114.2 Q-363.9 123.85 -373.65 130.35 L-376.2 132.0 -376.45 132.75 -353.05 144.5 Q-350.1 142.0 -342.05 136.55 -331.45 129.3 -324.3 120.5 L-321.6 117.0 M-640.4 326.8 L-640.25 325.1 Q-640.4 324.6 -640.05 324.3 L-638.3 324.35 -639.55 325.7 -640.4 326.8 M-603.85 308.1 L-603.85 307.4 -599.25 307.25 -603.85 308.1 M117.25 179.35 L125.2 188.5 Q131.65 195.35 126.05 218.95 124.9 223.85 127.4 230.5 128.75 234.3 132.25 242.35 137.15 255.9 128.8 268.2 L129.1 271.35 Q129.4 277.9 130.65 283.05 L132.85 290.85 134.95 299.45 Q136.4 306.55 129.75 315.15 122.15 324.85 121.95 332.95 121.8 335.75 122.65 341.9 122.45 345.25 119.95 347.45 L119.85 348.25 Q119.35 351.65 117.85 354.15 L128.55 356.5 137.95 355.95 148.2 354.35 148.75 354.2 148.8 354.0 Q148.7 353.4 149.35 351.75 L150.3 349.1 Q150.2 345.7 150.5 344.95 L151.15 344.8 Q149.8 338.85 150.25 328.15 150.95 313.6 154.9 308.45 154.25 303.0 155.85 259.3 156.9 229.3 148.9 210.55 142.35 195.15 123.85 172.5 117.45 164.7 112.35 159.2 L112.45 160.65 Q112.55 166.5 109.95 171.75 112.05 173.3 117.25 179.35 M159.6 232.75 Q161.45 231.8 164.1 231.1 169.65 229.9 173.35 225.35 178.75 218.7 177.8 212.65 L175.7 213.2 169.65 213.8 161.45 216.1 155.9 217.3 Q158.4 225.15 159.6 232.75 M-310.85 357.45 L-321.1 356.75 -331.3 355.05 Q-340.6 354.1 -350.35 352.0 -360.85 349.7 -369.0 346.7 -383.4 341.45 -405.75 337.45 L-444.65 331.2 Q-473.4 326.45 -523.4 319.85 L-570.15 313.65 -576.55 315.85 -580.95 317.6 -580.05 320.9 Q-576.2 337.8 -575.9 341.95 -575.5 349.4 -574.0 364.75 -572.85 379.2 -573.35 390.35 -573.85 399.7 -576.2 419.7 -578.3 437.1 -580.25 450.05 -580.95 454.55 -582.9 462.35 L-586.4 474.4 Q-588.0 479.45 -590.05 488.85 -592.15 494.9 -596.7 500.5 -534.6 497.5 -491.25 500.25 L-375.75 503.95 Q-365.95 504.05 -317.2 505.25 -304.9 505.45 -286.55 502.25 L-278.95 501.6 -271.45 501.1 -271.95 500.1 -242.95 495.4 Q-221.9 492.0 -208.6 487.9 L-173.8 478.15 Q-154.8 472.8 -140.2 466.85 -122.45 459.55 -102.1 447.2 -79.3 432.8 -66.3 425.15 -54.4 418.3 -25.75 399.05 L-14.4 391.55 -23.55 390.85 Q-27.55 390.3 -34.15 390.7 L-45.55 391.6 -68.65 393.8 Q-82.7 395.2 -89.95 393.65 L-124.8 385.15 Q-146.8 379.7 -161.65 377.65 L-239.25 367.95 -277.3 362.15 -295.85 359.9 Q-302.4 359.05 -307.1 357.8 L-310.85 357.45 M-434.3 111.7 Q-441.65 114.15 -461.65 126.95 -476.8 136.6 -487.5 145.15 L-504.6 159.45 -547.65 193.9 Q-574.0 215.6 -584.15 228.1 -598.5 245.8 -603.65 263.1 -607.0 274.25 -605.9 279.1 -602.95 290.5 -597.3 293.85 L-591.75 295.85 Q-591.65 294.95 -591.7 293.8 -591.65 292.05 -588.8 287.5 -580.0 273.45 -534.75 217.65 -500.1 174.95 -498.85 173.9 L-489.9 166.35 Q-479.55 157.3 -460.3 138.35 -457.15 135.25 -439.1 120.2 L-433.7 115.45 -434.3 111.7 M-586.3 320.4 L-584.2 322.0 Q-584.4 320.7 -584.75 319.35 L-586.3 320.4 M-580.55 312.3 L-581.9 312.1 -582.25 312.3 Q-582.05 312.65 -582.0 313.1 L-580.55 312.3 M-589.5 305.75 L-588.55 305.5 -589.0 303.95 -589.5 305.75 M-602.75 319.85 Q-611.05 321.35 -627.05 332.55 L-632.4 336.25 Q-630.7 344.95 -629.15 360.35 -626.25 390.55 -627.05 396.6 -628.2 410.35 -627.55 438.1 -628.25 464.65 -635.5 488.25 L-639.8 502.8 -610.5 501.15 -600.65 500.6 -594.9 483.45 Q-587.2 459.75 -584.75 446.05 -582.7 434.95 -580.55 417.85 -578.15 398.35 -577.9 388.6 -577.7 365.8 -580.65 342.8 -581.55 336.05 -582.6 329.9 L-584.0 329.3 Q-588.05 327.35 -589.35 325.65 L-593.15 320.65 -597.85 320.75 Q-599.0 320.25 -599.55 319.15 L-602.75 319.85" fill="#000000" fill-rule="evenodd" stroke="none"/>
    <path d="M-643.25 333.2 Q-643.55 332.6 -643.45 331.8 -643.1 330.3 -640.4 326.8 L-639.55 325.7 -638.3 324.35 Q-631.35 316.9 -614.8 311.35 -608.35 309.1 -603.85 308.1 L-599.25 307.25 -596.8 307.15 -595.45 307.35 Q-601.15 309.0 -606.8 310.95 -632.65 320.2 -642.15 331.9 L-643.25 333.2" fill="#ffffff" fill-rule="evenodd" stroke="none"/>
    <path d="M-356.1 114.2 L-321.6 117.0 -324.3 120.5 Q-331.45 129.3 -342.05 136.55 -350.1 142.0 -353.05 144.5 L-376.45 132.75 -376.2 132.0 -373.65 130.35 Q-363.9 123.85 -356.1 114.2 M159.6 232.75 Q158.4 225.15 155.9 217.3 L161.45 216.1 169.65 213.8 175.7 213.2 177.8 212.65 Q178.75 218.7 173.35 225.35 169.65 229.9 164.1 231.1 161.45 231.8 159.6 232.75 M117.25 179.35 Q112.05 173.3 109.95 171.75 112.55 166.5 112.45 160.65 L112.35 159.2 Q117.45 164.7 123.85 172.5 142.35 195.15 148.9 210.55 156.9 229.3 155.85 259.3 154.25 303.0 154.9 308.45 150.95 313.6 150.25 328.15 149.8 338.85 151.15 344.8 L150.5 344.95 Q150.2 345.7 150.3 349.1 L149.35 351.75 Q148.7 353.4 148.8 354.0 L148.75 354.2 148.2 354.35 137.95 355.95 128.55 356.5 117.85 354.15 Q119.35 351.65 119.85 348.25 L119.95 347.45 Q122.45 345.25 122.65 341.9 121.8 335.75 121.95 332.95 122.15 324.85 129.75 315.15 136.4 306.55 134.95 299.45 L132.85 290.85 130.65 283.05 Q129.4 277.9 129.1 271.35 L128.8 268.2 Q137.15 255.9 132.25 242.35 128.75 234.3 127.4 230.5 124.9 223.85 126.05 218.95 131.65 195.35 125.2 188.5 L117.25 179.35 M-602.75 319.85 L-599.55 319.15 Q-599.0 320.25 -597.85 320.75 L-593.15 320.65 -589.35 325.65 Q-588.05 327.35 -584.0 329.3 L-582.6 329.9 Q-581.55 336.05 -580.65 342.8 -577.7 365.8 -577.9 388.6 -578.15 398.35 -580.55 417.85 -582.7 434.95 -584.75 446.05 -587.2 459.75 -594.9 483.45 L-600.65 500.6 -610.5 501.15 -639.8 502.8 -635.5 488.25 Q-628.25 464.65 -627.55 438.1 -628.2 410.35 -627.05 396.6 -626.25 390.55 -629.15 360.35 -630.7 344.95 -632.4 336.25 L-627.05 332.55 Q-611.05 321.35 -602.75 319.85" fill="url(#gradient0)" fill-rule="evenodd" stroke="none"/>
  </g>
  <defs>
    <linearGradient gradientTransform="matrix(0.3136, -0.037, 0.2836, 1.5425, -121.65, -490.7)" gradientUnits="userSpaceOnUse" id="gradient0" spreadMethod="pad" x1="-819.2" x2="819.2">
      <stop offset="0.0" stop-color="#1c0d1e"/>
      <stop offset="1.0" stop-color="#4b224d"/>
    </linearGradient>
  </defs>
</svg>
