<?xml version="1.0" encoding="UTF-8" standalone="no"?>
<svg xmlns:xlink="http://www.w3.org/1999/xlink" height="175.2px" width="103.8px" xmlns="http://www.w3.org/2000/svg">
  <g transform="matrix(1.0, 0.0, 0.0, 1.0, 0.0, 0.0)">
    <path d="M62.7 22.0 L62.85 22.05 62.75 22.0 62.7 22.0 M64.15 6.25 L65.85 5.7 Q66.1 5.6 67.0 5.2 L67.85 4.9 67.95 5.05 67.45 5.5 66.45 6.05 65.35 6.6 64.85 6.9 64.35 7.1 Q61.2 8.65 59.8 8.75 L59.45 8.9 64.65 9.35 Q66.35 9.6 68.05 10.6 70.4 12.1 71.2 13.7 L71.2 13.9 70.9 14.0 69.15 12.8 Q67.0 11.6 64.35 11.6 62.85 11.6 59.85 12.35 L59.0 12.55 59.2 12.65 61.45 13.35 64.35 13.85 65.35 14.2 66.4 14.85 66.85 15.15 68.7 17.25 68.45 17.5 Q67.65 16.85 67.3 16.7 L66.7 16.25 66.05 16.0 64.05 15.5 61.65 15.25 58.9 15.35 57.7 15.25 58.3 15.65 Q59.65 16.35 60.3 18.35 L60.95 19.75 60.95 19.8 61.85 19.45 Q63.7 18.7 64.65 18.7 L65.45 18.7 65.6 18.85 66.9 18.95 69.6 20.5 69.7 20.6 67.6 20.2 Q66.5 20.2 64.75 20.95 L63.55 21.55 64.9 22.45 Q67.8 24.75 69.45 27.75 L74.05 35.75 75.35 37.7 77.55 41.6 78.55 44.6 Q79.15 47.5 78.8 50.35 L78.55 53.95 Q78.5 55.85 79.05 57.6 L79.35 59.65 Q79.35 61.95 77.65 63.4 L77.65 63.65 77.65 63.7 77.55 63.65 Q78.8 67.85 78.85 72.05 78.85 75.3 77.65 78.35 76.2 81.95 73.75 85.1 L72.65 86.5 74.05 85.75 Q75.5 85.15 77.05 84.75 77.65 84.55 78.3 84.75 79.05 85.0 79.7 85.5 L81.6 87.55 81.8 88.1 Q84.7 88.15 87.15 88.85 87.7 88.95 88.1 89.4 L86.3 91.2 82.45 93.15 78.5 94.65 78.15 95.05 74.8 94.5 Q76.45 98.4 78.8 102.05 79.3 102.85 80.15 103.35 82.35 104.75 84.7 105.9 88.85 108.15 91.25 112.0 L94.45 117.4 Q97.45 122.6 99.45 128.35 L100.9 132.75 102.15 136.65 Q103.0 139.1 103.15 141.6 L103.5 144.95 Q103.9 148.05 103.8 151.1 L103.45 159.45 Q103.35 162.35 102.2 164.95 101.25 167.15 99.8 168.95 L97.9 170.9 96.5 172.05 94.65 173.3 Q89.75 176.15 84.4 174.75 L84.15 174.65 83.2 174.3 83.2 174.25 Q81.5 173.35 79.05 170.9 L75.45 166.9 Q73.8 164.95 72.5 162.55 L70.45 158.2 Q69.2 155.35 67.7 150.05 66.1 144.35 65.95 141.4 64.65 140.95 63.45 140.3 61.55 139.25 59.9 137.75 L56.8 139.75 54.3 140.8 52.25 141.65 52.7 144.0 Q53.05 148.1 53.0 152.4 52.95 155.85 51.95 159.1 51.4 160.9 50.5 162.55 L49.05 164.7 Q47.7 166.2 45.85 167.05 L43.65 167.2 40.45 166.6 37.05 165.3 33.75 163.05 32.9 162.2 Q31.95 161.95 31.25 160.65 L30.8 159.6 30.2 158.6 28.05 154.2 25.6 148.3 Q23.85 143.8 23.0 138.95 L22.65 136.5 Q21.7 128.85 22.9 121.15 23.2 119.05 23.75 117.05 24.7 113.8 25.9 110.6 L23.25 109.95 26.7 102.55 23.4 97.25 Q23.1 94.55 23.85 92.0 24.65 89.25 26.4 86.8 L26.05 75.55 Q24.75 74.75 23.35 74.45 L18.95 74.0 14.5 73.55 13.05 73.55 12.95 73.8 7.55 76.4 5.45 74.2 1.85 73.85 0.95 73.45 0.8 73.3 0.6 73.25 0.55 73.05 0.0 72.35 Q-0.15 71.35 0.65 70.35 L2.15 68.85 3.5 67.45 3.25 66.25 2.3 63.45 Q1.35 60.85 1.7 58.2 2.0 55.95 3.1 53.85 4.05 52.05 5.15 50.4 L8.05 46.2 Q9.25 44.55 11.2 43.55 L12.75 42.65 14.05 41.3 19.8 33.7 Q21.6 31.3 24.15 29.5 27.5 27.15 31.0 24.95 L31.25 24.9 32.6 23.95 33.75 23.35 33.7 23.15 33.95 20.9 34.15 18.8 33.8 17.8 33.45 17.1 33.15 16.6 33.1 16.0 33.1 15.95 33.1 15.8 32.95 13.65 Q32.95 8.85 35.7 6.2 L35.6 6.05 Q36.2 5.6 36.9 5.2 L38.9 4.4 Q39.2 4.2 39.4 4.15 L39.8 4.15 42.55 3.75 43.05 3.9 44.25 3.4 45.7 2.55 Q46.0 2.15 47.55 1.1 L48.55 0.0 48.6 0.2 Q48.6 1.6 46.65 3.95 L46.45 4.25 47.2 4.45 47.7 4.3 48.0 4.15 49.3 4.1 Q50.7 4.1 51.95 5.35 L52.0 5.4 54.55 4.55 Q57.2 3.45 59.2 3.45 L60.85 3.65 61.5 4.0 61.5 4.35 61.2 4.35 61.05 4.25 60.65 4.25 60.2 4.2 58.55 4.55 Q57.85 4.75 57.25 5.1 L54.9 6.5 54.05 7.0 55.6 6.9 57.05 7.0 57.65 7.05 59.8 7.1 64.15 6.25 M72.25 34.85 Q73.25 37.2 74.5 39.35 76.75 43.3 77.25 48.35 77.5 50.2 77.4 53.0 L77.7 55.15 77.95 57.45 77.75 59.0 77.5 60.55 77.55 62.05 78.65 59.6 78.7 58.35 Q78.1 56.1 77.85 53.8 77.7 52.65 78.05 51.45 78.45 50.05 78.35 49.0 78.1 46.95 77.5 45.0 76.7 42.35 75.6 39.85 72.5 35.55 70.35 30.7 69.05 27.75 66.7 25.2 L65.05 23.65 67.0 25.8 69.85 30.2 Q70.65 31.3 72.25 34.85 M14.3 42.3 L13.25 43.2 12.25 44.0 Q10.65 45.0 9.25 46.25 7.3 48.05 5.85 50.25 L3.95 53.65 Q3.1 55.45 2.9 57.45 2.65 59.9 3.1 62.35 L4.05 66.5 4.6 67.75 4.55 67.45 4.15 64.25 Q4.15 56.9 9.0 51.6 11.85 48.5 18.85 42.4 19.65 41.55 20.5 39.7 L21.85 36.95 Q23.85 33.95 25.95 31.55 28.95 28.1 33.0 25.05 L35.25 23.5 34.6 23.65 31.85 25.1 30.2 26.05 Q27.95 27.35 25.65 29.1 L22.6 31.8 Q20.95 33.4 19.65 35.25 L14.3 42.3 M34.2 51.6 L37.85 59.6 Q38.8 61.8 39.3 64.25 L39.5 65.6 40.2 61.15 Q40.2 58.0 38.25 53.15 37.85 52.15 35.2 49.1 34.45 48.2 32.8 46.95 L31.35 45.8 34.2 51.6 M20.55 54.55 L19.1 55.4 Q17.65 56.0 16.3 57.0 L10.2 66.5 10.5 67.7 11.0 67.9 12.8 68.35 Q19.1 69.55 25.55 71.3 L26.15 70.75 27.65 69.3 Q28.2 68.9 28.9 68.7 L31.1 68.2 38.4 66.85 38.45 64.8 Q38.25 63.05 37.6 61.45 34.5 53.55 30.45 46.0 L26.85 48.55 Q24.75 50.2 22.9 52.2 L20.55 54.55 M24.8 72.15 L25.0 71.9 11.35 69.05 11.95 70.1 15.3 70.4 18.3 71.15 23.0 71.65 Q24.25 71.75 24.8 72.15 M28.4 105.1 L27.4 103.85 27.75 108.1 28.2 118.6 28.75 136.65 29.75 137.5 30.05 137.45 29.35 130.85 Q29.2 129.35 29.2 127.2 L29.25 123.55 28.85 114.25 28.45 105.2 28.4 105.1 M31.85 81.9 L30.4 83.6 27.9 86.95 Q26.3 89.05 25.85 90.2 L24.95 93.45 24.95 93.5 Q24.8 94.65 24.8 95.9 L24.95 97.25 Q25.15 98.6 25.5 98.6 L25.4 98.15 25.3 96.6 Q25.3 95.8 25.6 94.85 25.95 92.6 28.2 89.3 29.25 87.8 33.05 83.05 L36.8 77.35 33.35 80.5 31.85 81.9 M26.75 110.75 Q24.05 116.25 23.4 122.3 22.55 129.9 23.65 137.4 24.5 143.4 26.7 148.95 L27.7 151.4 Q26.65 148.15 26.35 146.5 24.6 137.5 24.6 130.7 24.6 126.1 25.0 124.15 25.05 122.55 25.25 120.9 25.6 118.0 26.8 115.15 L27.4 114.7 27.15 110.6 27.05 110.6 26.85 110.6 26.75 110.75 M54.9 87.3 L50.15 90.15 56.3 101.15 58.25 93.95 54.9 87.3 M47.0 91.6 L37.6 95.5 38.0 96.75 45.5 108.8 Q46.6 106.75 47.05 104.35 L47.95 97.0 Q47.95 95.1 47.15 92.25 L47.0 91.6 M0.8 72.2 L0.85 72.25 2.25 70.75 Q3.6 69.5 4.7 69.7 L3.9 68.2 2.0 69.85 0.8 72.2 M38.95 125.6 L39.0 124.2 37.7 122.25 37.75 124.1 38.2 128.9 38.45 134.0 38.9 133.7 39.55 133.35 Q39.3 132.95 39.2 132.0 L39.2 129.55 38.95 125.6 M37.55 130.9 L37.3 127.45 36.85 120.95 36.2 120.0 34.6 117.15 Q33.9 117.45 33.5 117.65 L32.4 118.5 32.95 137.3 Q31.35 138.8 29.35 138.15 28.05 137.7 27.95 136.45 L27.9 135.9 27.85 137.6 Q27.85 145.35 31.95 152.55 35.65 159.05 40.6 161.3 40.85 161.1 41.15 161.0 L42.3 160.35 Q44.2 159.15 44.8 156.85 L45.3 153.85 45.3 149.9 Q45.05 146.35 44.2 143.05 L43.7 141.2 38.35 140.15 Q36.95 140.1 35.75 139.25 L35.05 138.8 35.05 137.3 Q35.15 136.6 35.6 136.15 L38.15 134.25 Q37.7 133.0 37.55 130.9 M41.9 131.35 L42.35 130.9 41.8 129.35 41.9 131.35 M42.6 132.15 L36.45 136.6 Q36.1 136.85 35.9 137.25 L35.7 138.05 Q36.45 139.15 37.8 139.35 L38.05 139.4 38.05 139.15 Q38.05 137.75 40.4 136.4 42.75 135.1 42.75 133.2 L42.6 132.15 M27.3 116.05 L27.45 115.95 27.45 115.55 27.3 116.05 M72.65 105.2 Q70.75 106.3 69.8 108.5 68.95 110.4 68.35 112.45 L68.8 111.65 Q70.45 109.0 73.2 108.95 76.0 108.8 77.5 109.4 78.1 109.65 79.6 110.75 L81.2 112.3 82.75 114.05 Q87.3 120.2 90.25 127.0 L90.7 128.1 Q90.7 128.6 91.35 129.9 L91.65 130.85 91.75 131.15 91.7 130.7 91.45 128.9 91.5 128.8 91.45 128.5 91.35 127.9 Q91.9 128.35 93.85 133.6 L94.95 136.55 95.8 139.45 95.9 139.45 95.15 134.75 94.55 131.25 94.6 130.55 95.95 132.95 96.95 135.3 97.0 135.45 97.05 135.5 96.95 133.8 96.35 131.1 95.85 129.85 95.55 128.5 95.0 126.6 95.0 126.55 94.45 125.35 93.95 123.75 93.75 123.3 93.1 121.95 92.95 121.65 92.85 121.3 92.5 120.65 91.9 119.35 91.6 118.7 91.35 118.1 91.15 117.4 91.1 117.2 90.2 115.0 89.95 114.15 90.05 114.1 90.05 114.05 Q92.05 117.05 94.0 121.35 L96.85 128.05 96.9 128.4 97.35 129.5 97.45 129.85 97.5 128.85 Q97.35 128.1 97.35 127.05 L96.95 125.25 96.2 122.9 Q94.55 119.25 92.55 115.7 L90.55 112.45 88.05 109.55 Q86.6 108.25 84.95 107.3 82.1 105.75 79.25 104.35 L78.8 104.05 Q75.65 103.4 72.65 105.2 M74.45 92.85 L75.7 93.5 79.6 93.4 85.7 90.65 86.75 89.6 82.1 88.85 Q80.95 89.8 74.45 92.85 M80.05 117.35 L78.55 116.6 Q75.2 115.7 72.65 118.25 L72.2 118.9 Q71.45 120.75 71.15 122.7 70.15 129.4 70.5 136.0 L72.5 137.2 81.25 136.6 Q82.1 136.8 82.65 137.3 L83.0 141.1 71.6 142.65 73.25 147.3 75.1 151.85 77.15 156.0 Q77.9 157.4 78.95 158.65 80.8 160.95 83.2 162.35 84.25 163.0 85.45 163.4 86.65 163.85 87.7 163.4 90.6 161.9 90.9 158.45 L91.4 152.35 91.4 149.25 90.75 143.7 90.2 140.8 90.15 140.85 Q89.95 140.45 89.25 140.5 L87.35 140.75 85.45 141.0 85.15 140.2 85.15 138.95 84.95 136.8 Q84.95 135.95 85.45 136.15 85.7 135.8 86.35 135.7 L88.7 135.45 88.7 135.35 88.35 134.4 87.1 130.9 85.05 125.65 83.35 122.1 81.25 118.7 80.05 117.35 M73.7 139.4 L78.85 138.8 81.65 138.45 81.8 138.45 81.45 137.45 73.1 138.05 73.55 139.4 73.7 139.4 M88.95 137.05 L88.85 136.25 87.6 136.4 Q86.3 136.75 85.85 137.15 L85.85 137.95 85.85 138.0 85.95 138.0 86.7 137.7 89.0 137.3 88.95 137.05" fill="#000000" fill-rule="evenodd" stroke="none"/>
    <path d="M72.25 34.85 Q70.65 31.3 69.85 30.2 L67.0 25.8 65.05 23.65 66.7 25.2 Q69.05 27.75 70.35 30.7 72.5 35.55 75.6 39.85 76.7 42.35 77.5 45.0 78.1 46.95 78.35 49.0 78.45 50.05 78.05 51.45 77.7 52.65 77.85 53.8 78.1 56.1 78.7 58.35 L78.65 59.6 77.55 62.05 77.5 60.55 77.75 59.0 77.95 57.45 77.7 55.15 77.4 53.0 Q77.5 50.2 77.25 48.35 76.75 43.3 74.5 39.35 73.25 37.2 72.25 34.85 M14.3 42.3 L19.65 35.25 Q20.95 33.4 22.6 31.8 L25.65 29.1 Q27.95 27.35 30.2 26.05 L31.85 25.1 34.6 23.65 35.25 23.5 33.0 25.05 Q28.95 28.1 25.95 31.55 23.85 33.95 21.85 36.95 L20.5 39.7 Q19.65 41.55 18.85 42.4 11.85 48.5 9.0 51.6 4.15 56.9 4.15 64.25 L4.55 67.45 4.6 67.75 4.05 66.5 3.1 62.35 Q2.65 59.9 2.9 57.45 3.1 55.45 3.95 53.65 L5.85 50.25 Q7.3 48.05 9.25 46.25 10.65 45.0 12.25 44.0 L13.25 43.2 14.3 42.3 M34.2 51.6 L31.35 45.8 32.8 46.95 Q34.45 48.2 35.2 49.1 37.85 52.15 38.25 53.15 40.2 58.0 40.2 61.15 L39.5 65.6 39.3 64.25 Q38.8 61.8 37.85 59.6 L34.2 51.6 M24.8 72.15 Q24.25 71.75 23.0 71.65 L18.3 71.15 15.3 70.4 11.95 70.1 11.35 69.05 25.0 71.9 24.8 72.15 M31.85 81.9 L33.35 80.5 36.8 77.35 33.05 83.05 Q29.25 87.8 28.2 89.3 25.95 92.6 25.6 94.85 25.3 95.8 25.3 96.6 L25.4 98.15 25.5 98.6 Q25.15 98.6 24.95 97.25 L24.8 95.9 Q24.8 94.65 24.95 93.5 L24.95 93.45 25.85 90.2 Q26.3 89.05 27.9 86.95 L30.4 83.6 31.85 81.9 M28.4 105.1 L28.45 105.2 28.85 114.25 29.25 123.55 29.2 127.2 Q29.2 129.35 29.35 130.85 L30.05 137.45 29.75 137.5 28.75 136.65 28.2 118.6 27.75 108.1 27.4 103.85 28.4 105.1 M26.75 110.75 L26.85 110.6 27.05 110.6 27.15 110.6 27.4 114.7 26.8 115.15 Q25.6 118.0 25.25 120.9 25.05 122.55 25.0 124.15 24.6 126.1 24.6 130.7 24.6 137.5 26.35 146.5 26.65 148.15 27.7 151.4 L26.7 148.95 Q24.5 143.4 23.65 137.4 22.55 129.9 23.4 122.3 24.05 116.25 26.75 110.75 M47.0 91.6 L47.15 92.25 Q47.95 95.1 47.95 97.0 L47.05 104.35 Q46.6 106.75 45.5 108.8 L38.0 96.75 37.6 95.5 47.0 91.6 M0.8 72.2 L2.0 69.85 3.9 68.2 4.7 69.7 Q3.6 69.5 2.25 70.75 L0.85 72.25 0.8 72.2 M38.95 125.6 L39.2 129.55 39.2 132.0 Q39.3 132.95 39.55 133.35 L38.9 133.7 38.45 134.0 38.2 128.9 37.75 124.1 37.7 122.25 39.0 124.2 38.95 125.6 M42.6 132.15 L42.75 133.2 Q42.75 135.1 40.4 136.4 38.05 137.75 38.05 139.15 L38.05 139.4 37.8 139.35 Q36.45 139.15 35.7 138.05 L35.9 137.25 Q36.1 136.85 36.45 136.6 L42.6 132.15 M74.45 92.85 Q80.95 89.8 82.1 88.85 L86.75 89.6 85.7 90.65 79.6 93.4 75.7 93.5 74.45 92.85 M72.65 105.2 Q75.65 103.4 78.8 104.05 L79.25 104.35 Q82.1 105.75 84.95 107.3 86.6 108.25 88.05 109.55 L90.55 112.45 92.55 115.7 Q94.55 119.25 96.2 122.9 L96.95 125.25 97.35 127.05 Q97.35 128.1 97.5 128.85 L97.45 129.85 97.35 129.5 96.9 128.4 96.85 128.05 94.0 121.35 Q92.05 117.05 90.05 114.05 L90.05 114.1 89.95 114.15 90.2 115.0 91.1 117.2 91.15 117.4 91.35 118.1 91.6 118.7 91.9 119.35 92.5 120.65 92.85 121.3 92.95 121.65 93.1 121.95 93.75 123.3 93.95 123.75 94.45 125.35 95.0 126.55 95.0 126.6 95.55 128.5 95.85 129.85 96.35 131.1 96.95 133.8 97.05 135.5 97.0 135.45 96.95 135.3 95.95 132.95 94.6 130.55 94.55 131.25 95.15 134.75 95.9 139.45 95.8 139.45 94.95 136.55 93.85 133.6 Q91.9 128.35 91.35 127.9 L91.45 128.5 91.5 128.8 91.45 128.9 91.7 130.7 91.75 131.15 91.65 130.85 91.35 129.9 Q90.7 128.6 90.7 128.1 L90.25 127.0 Q87.3 120.2 82.75 114.05 L81.2 112.3 79.6 110.75 Q78.1 109.65 77.5 109.4 76.0 108.8 73.2 108.95 70.45 109.0 68.8 111.65 L68.35 112.45 Q68.95 110.4 69.8 108.5 70.75 106.3 72.65 105.2 M88.95 137.05 L89.0 137.3 86.7 137.7 85.95 138.0 85.85 138.0 85.85 137.95 85.85 137.15 Q86.3 136.75 87.6 136.4 L88.85 136.25 88.95 137.05 M73.7 139.4 L73.55 139.4 73.1 138.05 81.45 137.45 81.8 138.45 81.65 138.45 78.85 138.8 73.7 139.4" fill="#ffffff" fill-rule="evenodd" stroke="none"/>
  </g>
</svg>
