<?xml version="1.0" encoding="UTF-8" standalone="no"?>
<svg xmlns:xlink="http://www.w3.org/1999/xlink" height="72.35px" width="202.35px" xmlns="http://www.w3.org/2000/svg">
  <g transform="matrix(1.0, 0.0, 0.0, 1.0, 0.0, 0.0)">
    <path d="M3.05 6.7 Q7.25 1.6 17.35 4.15 23.3 6.15 33.75 6.8 44.4 7.5 47.5 8.4 L47.6 8.25 Q48.05 8.35 48.2 8.6 53.8 10.2 54.45 10.6 55.95 11.35 55.95 13.35 L55.65 15.0 56.1 15.1 58.85 15.75 61.95 16.45 65.6 17.4 68.85 17.9 83.6 20.5 98.9 23.7 113.1 26.9 139.75 33.2 Q152.35 36.65 157.35 39.65 L170.4 47.5 Q178.5 52.4 180.25 53.85 182.35 55.65 185.85 57.65 L191.6 61.0 Q200.4 66.65 201.9 68.25 L202.35 68.75 202.35 69.05 202.1 69.15 189.3 70.5 182.7 70.6 176.0 71.15 164.25 71.9 149.1 72.35 Q143.25 72.5 130.6 69.35 122.6 67.3 104.3 61.85 L90.4 57.65 75.5 52.95 61.4 48.0 58.3 46.85 54.7 45.9 53.7 45.6 53.7 45.55 52.05 45.1 51.25 45.6 Q49.95 46.3 47.65 46.4 L47.5 46.9 46.05 46.5 42.85 46.25 42.6 46.25 42.45 46.15 Q40.55 45.8 39.25 45.1 32.6 41.4 31.25 40.85 30.6 40.55 28.8 39.15 L26.6 37.5 25.45 36.85 Q22.9 35.7 21.6 35.0 L21.15 34.8 20.75 34.6 Q18.45 33.6 13.0 31.7 9.05 30.3 7.35 29.25 3.5 26.8 2.35 25.75 0.75 24.2 0.6 22.4 0.0 21.65 0.0 21.0 0.0 20.15 0.45 19.65 L0.35 19.0 0.4 18.1 0.35 17.4 0.75 13.65 Q0.75 9.55 3.05 6.7 M196.9 66.0 Q191.85 62.5 190.6 61.75 187.0 59.7 179.45 54.9 L176.8 52.8 Q174.8 51.15 173.7 50.65 L170.9 49.05 168.6 47.6 163.0 44.25 Q159.8 42.3 156.95 40.9 144.7 34.85 113.35 28.25 L99.75 25.2 84.85 22.0 75.3 20.35 67.7 18.9 56.1 16.5 55.55 16.4 54.25 16.35 54.15 16.4 54.2 16.15 52.95 15.9 52.25 15.75 Q51.05 15.7 50.75 16.6 L50.65 16.65 50.25 16.45 50.2 17.05 Q49.6 17.65 49.1 19.0 L48.25 21.25 Q47.75 22.6 47.6 23.5 L47.4 25.1 47.2 25.95 46.65 27.55 47.7 27.5 Q49.75 27.5 50.8 28.25 L51.25 28.6 70.2 33.25 Q83.3 36.65 87.85 38.15 L95.6 40.4 105.35 43.25 114.0 45.6 124.35 48.25 133.2 50.7 144.35 53.4 Q149.55 54.45 155.1 56.0 L163.35 58.4 Q174.4 61.8 181.1 63.4 L186.65 64.45 Q190.55 65.0 194.35 65.9 L196.85 66.5 198.0 66.8 196.9 66.0 M50.55 44.65 L50.35 44.6 50.2 45.0 50.55 44.65 M53.8 44.4 L53.85 44.4 53.85 44.35 53.8 44.4" fill="#000000" fill-rule="evenodd" stroke="none"/>
    <path d="M63.35 1.0 L63.2 1.15 62.6 1.15 62.6 0.0 62.95 0.0 63.35 1.0 M47.5 60.7 L47.2 60.55 47.75 59.55 48.25 59.85 48.35 60.05 47.5 60.7" fill="#cccccc" fill-opacity="0.2" fill-rule="evenodd" stroke="none"/>
    <path d="M196.85 66.5 L194.35 65.9 Q190.55 65.0 186.65 64.45 L181.1 63.4 Q174.4 61.8 163.35 58.4 L155.1 56.0 Q149.55 54.45 144.35 53.4 L133.2 50.7 124.35 48.25 114.0 45.6 105.35 43.25 95.6 40.4 87.85 38.15 Q83.3 36.65 70.2 33.25 L51.25 28.6 50.8 28.25 Q49.75 27.5 47.7 27.5 L46.65 27.55 47.2 25.95 47.4 25.1 47.6 23.5 Q47.75 22.6 48.25 21.25 L49.1 19.0 Q49.6 17.65 50.2 17.05 L50.25 16.45 50.65 16.65 50.75 16.6 Q51.05 15.7 52.25 15.75 L52.95 15.9 54.2 16.15 54.15 16.4 54.25 16.35 55.55 16.4 56.1 16.5 67.7 18.9 75.3 20.35 84.85 22.0 99.75 25.2 113.35 28.25 Q144.7 34.85 156.95 40.9 159.8 42.3 163.0 44.25 L168.6 47.6 170.9 49.05 173.7 50.65 Q174.8 51.15 176.8 52.8 L179.45 54.9 Q187.0 59.7 190.6 61.75 191.85 62.5 196.9 66.0 L196.85 66.5" fill="url(#gradient0)" fill-rule="evenodd" stroke="none"/>
  </g>
  <defs>
    <linearGradient gradientTransform="matrix(0.0564, -0.0292, 0.0142, 0.0275, 121.75, 41.1)" gradientUnits="userSpaceOnUse" id="gradient0" spreadMethod="pad" x1="-819.2" x2="819.2">
      <stop offset="0.0" stop-color="#000000"/>
      <stop offset="1.0" stop-color="#ffffff"/>
    </linearGradient>
  </defs>
</svg>
