<?xml version="1.0" encoding="UTF-8" standalone="no"?>
<svg xmlns:xlink="http://www.w3.org/1999/xlink" height="432.35px" width="373.0px" xmlns="http://www.w3.org/2000/svg">
  <g transform="matrix(1.0, 0.0, 0.0, 1.0, -38.75, 221.5)">
    <path d="M206.3 -200.95 L210.95 -192.35 212.9 -189.5 Q214.25 -187.2 215.35 -186.1 L215.75 -186.1 215.75 -186.15 Q215.1 -192.1 215.1 -195.3 L215.1 -195.6 214.85 -200.7 214.95 -204.35 Q215.05 -205.75 215.4 -206.75 L215.35 -206.85 215.35 -207.6 215.25 -207.75 216.05 -207.95 223.6 -200.75 Q232.05 -192.75 236.35 -189.45 L241.45 -201.95 Q244.7 -209.8 248.9 -213.95 L249.0 -213.85 249.15 -214.05 Q251.7 -216.65 253.65 -217.7 261.1 -221.8 267.9 -221.5 274.15 -221.25 282.25 -217.05 285.9 -215.2 293.25 -211.9 297.3 -209.95 300.15 -208.15 L300.45 -208.45 301.3 -208.65 301.45 -208.45 Q302.5 -208.75 303.6 -208.15 L306.35 -206.35 310.05 -205.05 313.6 -203.2 319.55 -199.7 Q323.7 -197.25 325.75 -196.35 328.35 -195.15 334.3 -193.55 343.4 -191.15 353.8 -189.85 L361.1 -190.25 Q363.75 -190.8 369.55 -189.1 L371.35 -188.35 Q372.2 -187.85 373.0 -187.6 379.05 -185.8 379.35 -183.95 377.85 -183.05 377.45 -183.2 L375.5 -183.7 Q372.7 -183.7 370.0 -181.65 L369.05 -180.75 Q369.45 -179.1 372.2 -177.15 373.0 -176.55 377.5 -173.95 378.2 -173.55 380.65 -173.0 L382.25 -172.5 381.6 -173.45 Q384.45 -172.9 386.0 -170.1 L388.85 -168.2 Q392.7 -165.95 394.85 -160.85 L396.05 -157.4 396.75 -157.1 396.75 -157.0 397.6 -153.6 397.75 -152.35 399.75 -149.85 403.1 -145.8 Q404.0 -144.65 406.25 -138.35 L408.1 -132.75 410.2 -128.15 Q411.75 -123.95 411.75 -118.45 411.75 -113.55 409.4 -106.0 410.2 -104.25 410.55 -101.95 L411.1 -95.6 Q411.75 -90.35 411.75 -83.15 L410.85 -73.05 410.2 -68.6 410.2 -68.55 410.5 -68.55 Q411.25 -62.85 411.25 -60.1 411.25 -49.05 408.6 -37.35 L406.25 -26.4 Q404.5 -19.9 401.25 -15.2 399.65 -12.95 383.85 6.55 373.1 19.85 369.25 28.6 L368.3 28.6 367.55 14.9 367.6 11.4 Q365.45 17.4 363.45 24.15 360.3 34.85 354.3 56.4 351.05 66.75 343.0 88.05 336.85 106.25 336.55 119.15 L337.05 119.05 350.75 135.9 Q352.65 138.25 358.7 143.95 364.85 149.7 367.0 152.3 373.6 160.3 382.5 169.2 384.2 170.95 388.25 176.85 391.5 181.5 392.65 184.05 L393.35 183.95 Q394.15 183.95 394.4 184.25 L394.6 184.85 393.25 185.8 393.25 186.1 393.1 187.2 392.35 187.85 391.45 186.75 Q388.95 187.9 386.7 187.8 380.05 187.5 378.1 187.85 L373.5 188.5 369.0 189.35 354.8 192.45 Q322.3 197.6 308.5 198.6 L268.05 201.45 216.6 204.85 187.15 207.95 Q152.85 210.85 117.0 210.85 88.65 210.85 78.65 207.7 75.25 206.6 72.1 204.55 67.85 201.75 66.4 201.05 62.15 198.95 58.05 194.05 56.55 192.3 52.1 185.95 47.3 179.2 44.7 171.3 42.1 163.45 42.1 155.9 L43.1 143.9 Q43.1 139.0 40.95 128.35 38.75 117.65 38.75 116.65 L38.8 114.1 Q39.1 112.5 40.35 113.05 L40.6 113.3 Q41.95 110.65 44.4 107.0 L50.5 97.95 56.0 89.3 Q57.35 86.85 59.7 85.1 61.8 83.45 66.35 81.3 73.15 78.05 81.0 74.0 91.1 68.8 95.05 66.15 L100.8 61.55 Q101.65 60.9 102.5 60.4 103.25 58.75 107.75 57.5 114.15 55.65 121.25 58.05 125.25 58.55 129.3 60.1 L137.3 58.4 Q148.5 56.2 150.1 55.4 L163.4 48.85 Q167.55 46.85 177.85 40.8 180.3 39.5 182.25 38.65 L182.1 36.75 Q181.65 32.7 181.55 24.6 L181.4 12.45 181.05 6.15 180.65 0.3 Q180.65 -4.65 183.6 -22.85 L183.9 -25.8 184.35 -28.7 185.1 -32.35 185.4 -38.3 186.1 -43.95 186.15 -44.3 186.35 -45.5 Q181.0 -54.35 181.0 -55.15 181.0 -58.75 182.1 -61.2 L183.25 -63.1 182.85 -63.6 183.4 -64.35 187.05 -68.55 Q188.75 -70.2 190.45 -73.15 L191.15 -74.3 190.75 -75.0 Q189.2 -77.75 188.2 -81.45 187.35 -84.7 186.65 -89.95 L186.0 -95.55 185.9 -95.7 185.7 -96.25 185.85 -96.85 185.85 -97.05 185.9 -97.85 185.7 -99.75 185.65 -102.1 Q185.65 -105.75 185.8 -107.05 L186.95 -112.9 188.35 -118.9 189.65 -123.55 191.6 -128.9 192.95 -131.65 194.05 -134.25 197.05 -139.6 197.2 -139.95 Q190.8 -141.55 189.15 -143.15 190.05 -144.7 192.3 -145.75 195.0 -147.05 195.3 -147.3 L197.65 -149.6 198.2 -150.05 Q196.5 -150.85 195.0 -151.7 191.35 -153.75 189.8 -155.5 188.65 -156.8 188.65 -157.95 188.65 -158.9 188.8 -159.55 L193.3 -159.4 Q198.1 -159.4 199.55 -160.1 196.3 -163.1 196.0 -163.95 194.6 -166.75 191.8 -173.7 191.3 -175.0 190.0 -183.45 188.8 -191.6 188.8 -193.05 188.8 -193.45 189.8 -194.45 L191.95 -189.6 Q193.15 -186.55 194.75 -184.35 195.75 -183.05 198.35 -180.7 L198.8 -180.7 198.85 -180.2 199.55 -179.6 204.8 -174.95 Q204.8 -180.0 205.1 -187.9 L205.5 -200.95 206.3 -200.95 M369.9 -20.25 L367.85 -19.35 Q355.8 -14.4 350.95 -12.05 L349.35 -11.45 348.65 -11.1 Q348.3 -12.15 348.3 -13.55 348.3 -17.6 349.95 -25.75 350.95 -30.85 352.05 -33.45 L351.85 -34.3 352.15 -35.3 353.5 -38.75 Q353.7 -39.45 354.55 -40.6 L355.75 -42.35 Q358.4 -47.3 358.9 -49.25 L359.8 -52.7 Q359.95 -53.55 360.65 -54.95 L361.3 -56.3 361.3 -56.45 362.0 -58.05 363.2 -61.45 357.6 -57.15 356.45 -56.7 353.35 -54.8 351.3 -53.7 351.25 -53.75 Q350.2 -54.55 350.2 -56.0 350.6 -58.35 350.4 -59.4 L350.25 -62.4 349.9 -65.4 Q348.55 -71.2 345.9 -77.4 L341.35 -73.35 341.3 -73.35 339.7 -72.3 335.35 -69.95 331.0 -67.6 330.9 -68.7 334.4 -84.95 Q337.9 -101.65 337.9 -104.6 337.9 -115.1 336.15 -122.95 336.1 -121.8 335.2 -119.0 L333.75 -114.45 Q331.6 -115.85 330.6 -119.25 L329.5 -124.6 326.25 -135.15 322.15 -144.95 Q319.1 -152.6 319.1 -155.8 L319.15 -156.2 Q318.75 -156.35 317.9 -156.75 L317.25 -156.3 Q315.05 -155.05 313.75 -153.55 313.35 -153.05 312.0 -152.1 L310.6 -150.95 310.05 -149.9 Q309.35 -149.05 308.1 -149.05 307.55 -149.05 305.65 -149.85 303.7 -150.75 302.75 -151.45 L302.25 -151.3 304.5 -147.85 Q305.55 -146.4 305.55 -144.55 305.55 -143.0 303.7 -141.7 299.8 -138.9 299.0 -138.15 L293.25 -132.3 Q292.2 -132.3 285.6 -136.95 L276.65 -143.05 Q279.9 -138.65 282.35 -132.95 L286.05 -122.7 285.65 -121.95 Q283.0 -122.9 280.25 -125.7 L276.8 -129.9 Q275.6 -131.5 272.1 -133.9 L267.4 -137.3 266.25 -137.55 270.9 -131.85 275.4 -126.05 278.4 -120.7 278.6 -120.25 281.5 -114.8 281.55 -114.7 281.4 -114.4 281.35 -114.45 281.15 -114.6 282.35 -111.9 Q283.75 -110.95 285.3 -108.7 L289.4 -102.35 Q292.85 -97.45 294.75 -89.95 L295.9 -83.75 296.75 -77.6 297.25 -71.7 297.65 -66.35 298.0 -66.05 297.95 -66.0 297.7 -65.75 297.75 -65.2 Q297.25 -64.8 296.75 -64.7 L296.45 -65.05 293.05 -63.55 287.15 -61.3 283.25 -60.35 278.9 -59.2 277.4 -58.25 280.05 -55.05 283.15 -51.6 286.3 -48.3 Q288.65 -45.55 290.6 -41.45 L293.55 -34.7 Q294.6 -32.5 295.7 -28.25 L286.35 -22.35 279.9 -18.15 278.8 -18.95 Q272.45 -24.25 269.0 -28.2 267.3 -30.15 265.5 -32.9 L262.6 -37.45 Q259.0 -42.95 255.5 -50.35 L255.7 -50.75 258.8 -56.15 Q259.8 -58.1 262.45 -61.5 L266.65 -66.85 271.0 -72.2 272.3 -73.5 273.55 -74.9 276.8 -77.65 277.8 -76.8 278.3 -76.4 278.9 -75.75 278.6 -76.75 278.05 -78.65 276.8 -82.45 Q274.8 -86.45 271.65 -89.95 L270.2 -91.35 269.8 -91.35 267.75 -89.95 Q265.95 -88.65 265.05 -88.45 254.85 -85.35 253.5 -85.35 L247.85 -85.55 244.45 -85.7 Q245.65 -84.7 246.35 -84.35 L249.75 -83.2 252.1 -82.6 271.15 -81.2 276.15 -78.2 Q271.25 -74.8 266.35 -68.2 L258.15 -57.1 Q256.75 -55.2 255.0 -51.4 L252.9 -56.05 244.85 -74.55 Q244.4 -74.4 244.4 -73.45 244.4 -72.8 245.95 -69.3 L248.05 -64.4 Q249.05 -61.4 251.6 -55.15 252.35 -53.2 254.2 -49.7 L252.85 -46.65 Q249.4 -38.45 249.4 -35.0 249.4 -34.4 249.5 -34.7 L249.9 -34.7 253.05 -45.45 Q253.45 -46.75 254.65 -48.85 L256.25 -45.85 259.0 -41.3 261.75 -36.6 Q264.25 -32.1 268.35 -27.35 272.55 -22.45 277.6 -18.3 L278.8 -17.45 273.0 -13.35 277.95 -1.65 280.05 4.3 282.3 10.5 Q286.15 20.1 287.45 22.7 288.95 25.7 290.75 28.3 288.9 33.55 288.25 34.55 287.4 35.8 279.3 51.2 276.35 56.8 272.95 61.2 271.65 61.6 271.65 61.8 L272.1 62.2 270.9 63.6 273.45 62.45 Q281.7 60.95 287.4 59.35 L299.75 56.0 Q304.2 54.95 314.55 53.75 L331.9 52.1 332.25 51.6 332.9 50.9 334.05 50.6 335.1 50.15 Q338.0 47.15 339.75 43.85 L342.9 37.55 344.25 34.3 Q345.35 32.2 347.1 32.15 L347.2 32.35 347.3 32.95 345.6 37.5 343.25 42.5 Q341.75 45.15 338.55 51.75 337.8 53.3 335.7 62.1 L334.85 68.25 331.7 84.95 Q336.1 74.95 340.35 64.05 L344.9 51.55 346.65 45.2 Q347.6 41.45 348.8 39.15 349.25 39.7 349.35 40.85 L348.95 45.1 348.35 49.95 Q347.75 53.7 346.35 59.05 L343.8 67.75 340.9 76.85 338.15 85.6 Q336.35 91.25 335.5 94.65 L333.55 103.65 332.45 108.05 332.65 108.6 332.8 109.85 332.35 111.75 Q331.9 113.0 331.9 113.6 L331.45 116.45 330.4 119.3 330.4 123.05 330.55 123.2 331.4 123.35 Q335.25 123.35 336.0 121.85 L336.05 120.35 336.0 120.35 Q335.65 118.6 335.45 115.6 L335.25 111.9 Q335.25 108.45 339.25 94.6 L343.3 81.3 348.7 66.55 Q351.85 57.75 353.8 51.3 L363.0 20.85 365.15 13.25 Q366.45 8.9 367.75 5.8 369.55 0.45 370.8 -2.3 371.65 -4.15 372.65 -5.4 L372.65 -5.45 372.55 -5.45 Q370.9 -5.45 370.05 -9.65 L369.55 -14.05 Q369.55 -16.9 370.0 -20.05 L370.05 -20.35 369.9 -20.25 M208.65 -155.5 L208.35 -155.85 208.3 -155.7 208.65 -155.5 M189.0 -110.4 L188.55 -110.4 187.9 -107.3 187.8 -106.7 187.7 -104.65 188.55 -105.15 Q191.05 -106.0 196.15 -103.45 L198.1 -102.15 200.3 -100.85 Q205.3 -97.9 205.3 -94.35 205.3 -93.35 205.9 -91.6 206.4 -92.7 206.55 -94.0 L205.3 -98.85 204.3 -101.95 203.55 -103.6 Q202.75 -105.35 199.05 -108.2 195.8 -110.7 195.3 -110.7 L189.9 -110.55 189.0 -110.4 M187.8 -99.6 L187.9 -98.25 189.2 -90.5 189.6 -88.25 Q193.0 -89.9 196.2 -89.5 L197.55 -91.25 Q199.25 -93.1 199.25 -94.45 199.25 -98.25 197.6 -99.75 196.45 -100.5 195.45 -101.4 L187.65 -102.05 187.8 -99.6 M183.95 -59.8 L190.05 -59.65 Q193.7 -58.75 196.5 -56.55 199.6 -54.1 200.4 -51.2 L202.35 -52.05 Q206.25 -53.25 209.8 -51.05 211.55 -50.1 212.5 -47.95 L212.75 -47.35 213.05 -47.4 Q213.75 -47.4 217.25 -45.05 220.85 -42.6 221.05 -42.55 222.05 -42.75 222.05 -44.15 222.05 -46.95 220.2 -50.1 218.55 -52.9 216.05 -55.05 212.3 -58.2 205.0 -59.35 202.4 -59.75 201.45 -60.5 200.15 -61.55 200.15 -64.2 200.15 -66.35 203.45 -74.95 L203.5 -75.0 Q206.1 -81.75 206.65 -88.15 L205.1 -86.55 Q198.4 -80.8 196.05 -77.7 L194.3 -75.0 193.05 -73.0 Q191.05 -69.8 189.55 -68.3 L187.25 -65.65 187.25 -65.55 186.95 -65.3 186.55 -64.85 Q186.4 -64.55 186.4 -64.05 186.4 -63.6 184.65 -61.1 L183.9 -59.85 183.85 -59.75 183.95 -59.8 M191.8 -75.95 L191.95 -75.65 193.05 -77.6 193.4 -78.1 193.05 -78.1 192.85 -78.25 192.8 -79.05 192.75 -84.95 Q192.8 -86.4 193.1 -87.4 L189.85 -87.0 191.3 -77.35 Q191.3 -76.7 191.8 -75.95 M195.45 5.95 Q192.35 10.65 191.35 16.05 L191.3 16.15 191.3 17.25 Q191.15 18.6 190.5 18.6 189.7 18.6 189.7 18.1 L189.8 17.25 189.6 15.95 189.8 14.4 Q189.25 10.2 188.8 4.8 188.25 -1.8 188.25 -6.2 188.25 -11.45 189.65 -22.8 L191.5 -37.05 187.7 -43.25 186.7 -27.1 186.65 -26.85 185.4 -21.15 185.25 -20.4 Q184.9 -20.0 184.7 -19.2 L184.45 -16.95 184.15 -15.65 Q183.65 -13.35 183.5 -11.65 L183.15 -9.75 182.45 -4.05 182.0 1.65 Q182.0 4.5 182.55 9.3 L182.9 13.1 182.95 14.65 182.85 15.05 182.85 15.6 183.15 16.05 183.25 16.35 183.2 16.4 Q182.9 16.9 182.9 18.0 L183.25 25.25 Q183.05 25.5 182.95 25.9 L182.85 27.6 Q182.85 29.95 183.15 31.4 L183.2 31.75 183.15 34.2 Q183.15 37.25 183.4 38.65 L184.5 44.25 Q184.6 45.05 185.55 46.8 L186.5 49.35 188.0 52.4 Q189.05 54.35 189.35 54.35 191.1 54.35 193.35 53.1 193.95 52.75 195.05 52.15 L195.55 51.8 195.6 52.15 195.6 51.75 195.8 51.35 195.65 51.0 195.65 50.15 195.75 50.0 195.9 49.5 195.7 48.45 Q195.9 46.85 196.85 44.2 198.0 40.9 198.0 36.9 L196.9 33.65 Q195.75 30.45 195.75 27.45 195.75 24.5 196.4 22.4 196.9 20.55 198.1 18.65 197.4 18.0 196.75 16.5 195.9 14.6 195.5 12.55 195.05 10.0 195.5 5.95 L195.5 5.8 195.45 5.95 M206.15 -12.05 L205.1 -11.65 204.6 -11.75 204.6 -11.3 Q204.25 -10.95 204.25 -10.5 L204.45 -9.5 204.75 -8.55 Q204.5 -7.85 204.55 -7.35 204.6 -6.5 206.15 -6.5 L209.8 -6.0 214.5 -5.55 Q215.25 -5.55 215.75 -6.0 216.25 -6.5 216.25 -7.25 216.25 -11.1 210.25 -12.1 207.9 -12.5 206.15 -12.05 M268.55 -91.85 L268.7 -91.9 268.65 -91.95 Q270.7 -94.2 266.9 -98.1 263.05 -102.0 257.05 -101.1 251.05 -100.2 249.1 -96.1 251.1 -95.25 251.55 -93.8 252.6 -90.65 252.6 -88.2 L252.55 -87.5 Q259.35 -88.15 264.35 -89.95 L268.55 -91.85 M250.4 -87.35 L250.5 -88.3 250.4 -87.9 250.3 -87.35 250.4 -87.35 M246.95 -15.6 L246.7 -15.65 245.85 -12.15 245.35 -10.1 245.25 -9.85 Q247.8 -6.0 249.6 2.65 251.2 11.1 250.8 16.7 251.5 15.45 251.95 13.0 L252.35 9.95 252.45 9.25 Q253.25 2.75 252.4 -2.35 251.5 -7.75 248.75 -12.7 L246.95 -15.6 M408.5 -103.3 L408.2 -102.5 408.65 -102.55 408.65 -102.6 408.5 -103.3 M358.4 -170.95 L358.2 -170.8 358.35 -170.75 358.4 -170.95 M387.2 -166.65 L387.25 -166.4 387.4 -166.5 387.2 -166.65 M374.6 -52.6 L377.4 -51.1 Q381.85 -48.2 381.85 -45.95 381.85 -43.4 378.65 -40.15 374.75 -36.2 369.55 -36.2 L369.4 -36.2 367.75 -35.0 366.0 -33.95 368.25 -32.1 Q370.65 -29.85 371.55 -28.35 L373.65 -29.2 373.75 -29.25 378.4 -35.0 Q384.35 -42.3 384.35 -44.65 L382.05 -57.85 Q380.45 -52.4 377.75 -52.4 L374.6 -52.6 M352.15 -55.7 L352.15 -55.65 352.25 -55.7 352.15 -55.7 M376.25 -30.55 L376.5 -30.7 376.45 -30.75 376.25 -30.55 M369.7 23.7 L369.75 23.85 369.9 23.6 369.7 23.7 M347.7 46.4 L347.65 46.35 347.65 46.45 347.7 46.4 M280.75 59.0 L280.5 59.1 280.75 58.95 280.75 59.0 M231.25 10.45 L230.75 7.5 230.65 7.15 Q228.3 8.5 222.4 10.6 215.95 12.85 212.45 13.45 L212.5 13.6 214.1 14.35 214.6 14.55 215.6 14.85 216.15 14.95 Q226.4 16.25 229.8 13.5 231.65 12.15 231.25 10.45 M182.45 41.35 L179.2 43.25 Q172.1 47.3 165.9 49.85 157.5 54.3 152.15 56.6 144.0 60.05 132.9 61.3 137.5 62.4 147.25 63.15 L147.5 63.2 Q147.75 63.2 147.75 63.95 L147.5 64.8 142.5 64.9 Q137.2 64.9 127.9 61.75 L127.15 61.75 Q126.95 61.75 126.9 61.4 118.0 58.4 111.5 58.4 108.25 58.4 106.3 59.7 L104.4 61.0 103.95 61.8 101.05 64.25 Q98.45 66.5 95.15 68.15 92.95 69.25 81.3 76.0 72.35 81.25 67.0 83.15 60.6 85.45 57.0 90.5 L55.95 92.1 Q57.8 90.7 61.2 88.6 67.6 84.7 69.5 83.95 L74.85 82.1 81.85 80.3 Q96.9 76.8 98.9 76.8 114.85 76.8 123.9 79.5 133.05 82.25 146.0 90.95 L156.05 98.3 Q162.75 103.3 166.0 105.1 166.75 105.7 166.75 104.45 166.75 103.2 156.5 94.55 L143.6 83.7 138.8 78.95 Q136.05 76.3 132.8 73.9 130.85 72.45 130.3 72.2 128.0 71.1 123.25 70.3 120.55 69.85 118.25 68.8 115.4 67.45 115.4 66.05 L115.45 65.3 115.8 65.05 123.5 65.05 Q129.8 66.2 135.9 68.6 142.7 71.25 145.1 71.8 151.95 73.4 161.85 74.0 168.95 75.0 171.5 79.55 173.2 82.6 177.55 89.15 L184.25 99.45 184.5 99.45 182.45 91.35 Q181.35 86.8 179.5 83.3 178.65 81.7 176.45 79.15 L172.75 75.4 168.5 72.45 Q164.5 69.5 164.5 68.55 164.5 67.2 165.65 64.4 L167.5 59.9 168.5 55.35 Q169.05 53.3 170.4 52.3 L170.25 52.05 170.25 51.9 170.75 52.05 171.25 51.8 171.55 51.7 171.85 52.2 174.0 50.6 179.65 47.4 183.3 45.7 182.7 42.8 182.45 41.35 M219.45 74.05 L219.6 74.15 219.75 74.05 219.45 74.05" fill="#000000" fill-rule="evenodd" stroke="none"/>
    <path d="M206.15 -12.05 Q207.9 -12.5 210.25 -12.1 216.25 -11.1 216.25 -7.25 216.25 -6.5 215.75 -6.0 215.25 -5.55 214.5 -5.55 L209.8 -6.0 206.15 -6.5 Q204.6 -6.5 204.55 -7.35 204.5 -7.85 204.75 -8.55 L204.45 -9.5 204.25 -10.5 Q204.25 -10.95 204.6 -11.3 L204.6 -11.75 205.1 -11.65 206.15 -12.05 M182.45 41.35 L182.7 42.8 183.3 45.7 179.65 47.4 174.0 50.6 171.85 52.2 171.55 51.7 171.25 51.8 170.75 52.05 170.25 51.9 170.25 52.05 170.4 52.3 Q169.05 53.3 168.5 55.35 L167.5 59.9 165.65 64.4 Q164.5 67.2 164.5 68.55 164.5 69.5 168.5 72.45 L172.75 75.4 176.45 79.15 Q178.65 81.7 179.5 83.3 181.35 86.8 182.45 91.35 L184.5 99.45 184.25 99.45 177.55 89.15 Q173.2 82.6 171.5 79.55 168.95 75.0 161.85 74.0 151.95 73.4 145.1 71.8 142.7 71.25 135.9 68.6 129.8 66.2 123.5 65.05 L115.8 65.05 115.45 65.3 115.4 66.05 Q115.4 67.45 118.25 68.8 120.55 69.85 123.25 70.3 128.0 71.1 130.3 72.2 130.85 72.45 132.8 73.9 136.05 76.3 138.8 78.95 L143.6 83.7 156.5 94.55 Q166.75 103.2 166.75 104.45 166.75 105.7 166.0 105.1 162.75 103.3 156.05 98.3 L146.0 90.95 Q133.05 82.25 123.9 79.5 114.85 76.8 98.9 76.8 96.9 76.8 81.85 80.3 L74.85 82.1 69.5 83.95 Q67.6 84.7 61.2 88.6 57.8 90.7 55.95 92.1 L57.0 90.5 Q60.6 85.45 67.0 83.15 72.35 81.25 81.3 76.0 92.95 69.25 95.15 68.15 98.45 66.5 101.05 64.25 L103.95 61.8 104.4 61.0 106.3 59.7 Q108.25 58.4 111.5 58.4 118.0 58.4 126.9 61.4 126.95 61.75 127.15 61.75 L127.9 61.75 Q137.2 64.9 142.5 64.9 L147.5 64.8 147.75 63.95 Q147.75 63.2 147.5 63.2 L147.25 63.15 Q137.5 62.4 132.9 61.3 144.0 60.05 152.15 56.6 157.5 54.3 165.9 49.85 172.1 47.3 179.2 43.25 L182.45 41.35" fill="#ffffff" fill-rule="evenodd" stroke="none"/>
    <path d="M268.55 -91.85 L264.35 -89.95 Q259.35 -88.15 252.55 -87.5 L252.6 -88.2 Q252.6 -90.65 251.55 -93.8 251.1 -95.25 249.1 -96.1 251.05 -100.2 257.05 -101.1 263.05 -102.0 266.9 -98.1 270.7 -94.2 268.65 -91.95 L268.55 -91.85" fill="#e6ce00" fill-rule="evenodd" stroke="none"/>
    <path d="M279.9 -18.15 L286.35 -22.35 295.7 -28.25 Q294.6 -32.5 293.55 -34.7 L290.6 -41.45 Q288.65 -45.55 286.3 -48.3 L283.15 -51.6 280.05 -55.05 277.4 -58.25 278.9 -59.2 283.25 -60.35 287.15 -61.3 293.05 -63.55 296.45 -65.05 296.75 -64.7 Q297.25 -64.8 297.75 -65.2 L297.7 -65.75 297.95 -66.0 298.0 -66.05 297.65 -66.35 297.25 -71.7 296.75 -77.6 295.9 -83.75 294.75 -89.95 Q292.85 -97.45 289.4 -102.35 L285.3 -108.7 Q283.75 -110.95 282.35 -111.9 L281.15 -114.6 281.35 -114.45 281.4 -114.4 281.55 -114.7 281.5 -114.8 278.6 -120.25 278.4 -120.7 275.4 -126.05 270.9 -131.85 266.25 -137.55 267.4 -137.3 272.1 -133.9 Q275.6 -131.5 276.8 -129.9 L280.25 -125.7 Q283.0 -122.9 285.65 -121.95 L286.05 -122.7 282.35 -132.95 Q279.9 -138.65 276.65 -143.05 L285.6 -136.95 Q292.2 -132.3 293.25 -132.3 L299.0 -138.15 Q299.8 -138.9 303.7 -141.7 305.55 -143.0 305.55 -144.55 305.55 -146.4 304.5 -147.85 L302.25 -151.3 302.75 -151.45 Q303.7 -150.75 305.65 -149.85 307.55 -149.05 308.1 -149.05 309.35 -149.05 310.05 -149.9 L310.6 -150.95 312.0 -152.1 Q313.35 -153.05 313.75 -153.55 315.05 -155.05 317.25 -156.3 L317.9 -156.75 Q318.75 -156.35 319.15 -156.2 L319.1 -155.8 Q319.1 -152.6 322.15 -144.95 L326.25 -135.15 329.5 -124.6 330.6 -119.25 Q331.6 -115.85 333.75 -114.45 L335.2 -119.0 Q336.1 -121.8 336.15 -122.95 337.9 -115.1 337.9 -104.6 337.9 -101.65 334.4 -84.95 L330.9 -68.7 331.0 -67.6 335.35 -69.95 339.7 -72.3 341.3 -73.35 341.35 -73.35 345.9 -77.4 Q348.55 -71.2 349.9 -65.4 L350.25 -62.4 350.4 -59.4 Q350.6 -58.35 350.2 -56.0 350.2 -54.55 351.25 -53.75 L351.3 -53.7 353.35 -54.8 356.45 -56.7 357.6 -57.15 363.2 -61.45 362.0 -58.05 361.3 -56.45 361.3 -56.3 360.65 -54.95 Q359.95 -53.55 359.8 -52.7 L358.9 -49.25 Q358.4 -47.3 355.75 -42.35 L354.55 -40.6 Q353.7 -39.45 353.5 -38.75 L352.15 -35.3 351.85 -34.3 352.05 -33.45 Q350.95 -30.85 349.95 -25.75 348.3 -17.6 348.3 -13.55 348.3 -12.15 348.65 -11.1 L349.35 -11.45 350.95 -12.05 Q355.8 -14.4 367.85 -19.35 L369.9 -20.25 370.0 -20.05 Q369.55 -16.9 369.55 -14.05 L370.05 -9.65 Q370.9 -5.45 372.55 -5.45 L372.65 -5.4 Q371.65 -4.15 370.8 -2.3 369.55 0.45 367.75 5.8 366.45 8.9 365.15 13.25 L363.0 20.85 353.8 51.3 Q351.85 57.75 348.7 66.55 L343.3 81.3 339.25 94.6 Q335.25 108.45 335.25 111.9 L335.45 115.6 Q335.65 118.6 336.0 120.35 L336.05 120.35 336.0 121.85 Q335.25 123.35 331.4 123.35 L330.55 123.2 330.4 123.05 330.4 119.3 331.45 116.45 331.9 113.6 Q331.9 113.0 332.35 111.75 L332.8 109.85 332.65 108.6 332.45 108.05 333.55 103.65 335.5 94.65 Q336.35 91.25 338.15 85.6 L340.9 76.85 343.8 67.75 346.35 59.05 Q347.75 53.7 348.35 49.95 L348.95 45.1 349.35 40.85 Q349.25 39.7 348.8 39.15 347.6 41.45 346.65 45.2 L344.9 51.55 340.35 64.05 Q336.1 74.95 331.7 84.95 L334.85 68.25 335.7 62.1 Q337.8 53.3 338.55 51.75 341.75 45.15 343.25 42.5 L345.6 37.5 347.3 32.95 347.2 32.35 347.1 32.15 Q345.35 32.2 344.25 34.3 L342.9 37.55 339.75 43.85 Q338.0 47.15 335.1 50.15 L334.05 50.6 332.9 50.9 332.25 51.6 331.9 52.1 314.55 53.75 Q304.2 54.95 299.75 56.0 L287.4 59.35 Q281.7 60.95 273.45 62.45 L270.9 63.6 272.1 62.2 271.65 61.8 Q271.65 61.6 272.95 61.2 276.35 56.8 279.3 51.2 287.4 35.8 288.25 34.55 288.9 33.55 290.75 28.3 288.95 25.7 287.45 22.7 286.15 20.1 282.3 10.5 L280.05 4.3 277.95 -1.65 273.0 -13.35 278.8 -17.45 279.9 -18.15 M183.9 -59.85 L184.65 -61.1 Q186.4 -63.6 186.4 -64.05 186.4 -64.55 186.55 -64.85 L186.95 -65.3 187.25 -65.55 187.25 -65.65 189.55 -68.3 Q191.05 -69.8 193.05 -73.0 L194.3 -75.0 196.05 -77.7 Q198.4 -80.8 205.1 -86.55 L206.65 -88.15 Q206.1 -81.75 203.5 -75.0 L203.45 -74.95 Q200.15 -66.35 200.15 -64.2 200.15 -61.55 201.45 -60.5 202.4 -59.75 205.0 -59.35 212.3 -58.2 216.05 -55.05 218.55 -52.9 220.2 -50.1 222.05 -46.95 222.05 -44.15 222.05 -42.75 221.05 -42.55 220.85 -42.6 217.25 -45.05 213.75 -47.4 213.05 -47.4 L212.75 -47.35 212.5 -47.95 Q211.55 -50.1 209.8 -51.05 206.25 -53.25 202.35 -52.05 L200.4 -51.2 Q199.6 -54.1 196.5 -56.55 193.7 -58.75 190.05 -59.65 L183.95 -59.8 183.9 -59.85 M187.8 -99.6 L187.65 -102.05 195.45 -101.4 Q196.45 -100.5 197.6 -99.75 199.25 -98.25 199.25 -94.45 199.25 -93.1 197.55 -91.25 L196.2 -89.5 Q193.0 -89.9 189.6 -88.25 L189.2 -90.5 187.9 -98.25 187.8 -99.6 M189.0 -110.4 L189.9 -110.55 195.3 -110.7 Q195.8 -110.7 199.05 -108.2 202.75 -105.35 203.55 -103.6 L204.3 -101.95 205.3 -98.85 206.55 -94.0 Q206.4 -92.7 205.9 -91.6 205.3 -93.35 205.3 -94.35 205.3 -97.9 200.3 -100.85 L198.1 -102.15 196.15 -103.45 Q191.05 -106.0 188.55 -105.15 L187.7 -104.65 187.8 -106.7 187.9 -107.3 188.55 -110.4 189.0 -110.4 M195.55 51.8 L195.05 52.15 Q193.95 52.75 193.35 53.1 191.1 54.35 189.35 54.35 189.05 54.35 188.0 52.4 L186.5 49.35 185.55 46.8 Q184.6 45.05 184.5 44.25 L183.4 38.65 Q183.15 37.25 183.15 34.2 L183.2 31.75 183.15 31.4 Q182.85 29.95 182.85 27.6 L182.95 25.9 Q183.05 25.5 183.25 25.25 L182.9 18.0 Q182.9 16.9 183.2 16.4 L183.25 16.35 183.15 16.05 182.85 15.6 182.85 15.05 182.95 14.65 182.9 13.1 182.55 9.3 Q182.0 4.5 182.0 1.65 L182.45 -4.05 183.15 -9.75 183.5 -11.65 Q183.65 -13.35 184.15 -15.65 L184.45 -16.95 184.7 -19.2 Q184.9 -20.0 185.25 -20.4 L185.4 -21.15 186.65 -26.85 186.7 -27.1 187.7 -43.25 191.5 -37.05 189.65 -22.8 Q188.25 -11.45 188.25 -6.2 188.25 -1.8 188.8 4.8 189.25 10.2 189.8 14.4 L189.6 15.95 189.8 17.25 189.7 18.1 Q189.7 18.6 190.5 18.6 191.15 18.6 191.3 17.25 L191.3 16.15 191.35 16.05 Q192.35 10.65 195.45 5.95 L195.5 5.95 Q195.05 10.0 195.5 12.55 195.9 14.6 196.75 16.5 197.4 18.0 198.1 18.65 196.9 20.55 196.4 22.4 195.75 24.5 195.75 27.45 195.75 30.45 196.9 33.65 L198.0 36.9 Q198.0 40.9 196.85 44.2 195.9 46.85 195.7 48.45 L195.9 49.5 195.75 50.0 195.65 50.15 195.65 51.0 195.8 51.35 195.6 51.75 195.55 51.8 M277.55 -78.5 L278.05 -78.65 278.6 -76.75 278.9 -75.75 278.3 -76.4 277.8 -76.8 276.8 -77.65 276.8 -77.7 277.25 -77.7 Q277.55 -77.8 277.55 -78.5 M374.6 -52.6 L377.75 -52.4 Q380.45 -52.4 382.05 -57.85 L384.35 -44.65 Q384.35 -42.3 378.4 -35.0 L373.75 -29.25 373.65 -29.2 371.55 -28.35 Q370.65 -29.85 368.25 -32.1 L366.0 -33.95 367.75 -35.0 369.4 -36.2 369.55 -36.2 Q374.75 -36.2 378.65 -40.15 381.85 -43.4 381.85 -45.95 381.85 -48.2 377.4 -51.1 L374.6 -52.6 M280.75 59.0 L280.75 58.95 280.5 59.1 280.75 59.0" fill="url(#gradient0)" fill-rule="evenodd" stroke="none"/>
    <path d="M246.95 -15.6 L248.75 -12.7 Q251.5 -7.75 252.4 -2.35 253.25 2.75 252.45 9.25 L252.35 9.95 251.95 13.0 Q251.5 15.45 250.8 16.7 251.2 11.1 249.6 2.65 247.8 -6.0 245.25 -9.85 L245.35 -10.1 245.85 -12.15 246.7 -15.65 246.95 -15.6 M231.25 10.45 Q231.65 12.15 229.8 13.5 226.4 16.25 216.15 14.95 L215.6 14.85 214.6 14.55 214.1 14.35 212.5 13.6 212.45 13.45 Q215.95 12.85 222.4 10.6 228.3 8.5 230.65 7.15 L230.75 7.5 231.25 10.45" fill="url(#gradient1)" fill-rule="evenodd" stroke="none"/>
    <path d="M276.15 -78.2 L271.15 -81.2 252.1 -82.6 249.75 -83.2 246.35 -84.35 Q245.65 -84.7 244.45 -85.7 L247.85 -85.55 253.5 -85.35 Q254.85 -85.35 265.05 -88.45 265.95 -88.65 267.75 -89.95 L269.8 -91.35 270.2 -91.35 271.65 -89.95 Q274.8 -86.45 276.8 -82.45 L278.05 -78.65 277.55 -78.5 277.4 -78.95 277.25 -78.95 276.15 -78.2" fill="url(#gradient2)" fill-rule="evenodd" stroke="none"/>
    <path d="M279.9 -18.15 L278.8 -17.45 277.6 -18.3 Q272.55 -22.45 268.35 -27.35 264.25 -32.1 261.75 -36.6 L259.0 -41.3 256.25 -45.85 254.65 -48.85 Q253.45 -46.75 253.05 -45.45 L249.9 -34.7 249.5 -34.7 Q249.4 -34.4 249.4 -35.0 249.4 -38.45 252.85 -46.65 L254.2 -49.7 Q252.35 -53.2 251.6 -55.15 249.05 -61.4 248.05 -64.4 L245.95 -69.3 Q244.4 -72.8 244.4 -73.45 244.4 -74.4 244.85 -74.55 L252.9 -56.05 255.0 -51.4 Q256.75 -55.2 258.15 -57.1 L266.35 -68.2 Q271.25 -74.8 276.15 -78.2 L277.25 -78.95 277.4 -78.95 277.55 -78.5 Q277.55 -77.8 277.25 -77.7 L276.8 -77.7 276.8 -77.65 273.55 -74.9 272.3 -73.5 271.0 -72.2 266.65 -66.85 262.45 -61.5 Q259.8 -58.1 258.8 -56.15 L255.7 -50.75 255.5 -50.35 Q259.0 -42.95 262.6 -37.45 L265.5 -32.9 Q267.3 -30.15 269.0 -28.2 272.45 -24.25 278.8 -18.95 L279.9 -18.15" fill="url(#gradient3)" fill-rule="evenodd" stroke="none"/>
  </g>
  <defs>
    <linearGradient gradientTransform="matrix(0.0946, 0.1217, -0.7884, 0.6125, 506.3, -191.95)" gradientUnits="userSpaceOnUse" id="gradient0" spreadMethod="pad" x1="-819.2" x2="819.2">
      <stop offset="0.0" stop-color="#3c4a24"/>
      <stop offset="1.0" stop-color="#141812"/>
    </linearGradient>
    <linearGradient gradientTransform="matrix(0.0772, 0.1333, -0.8637, 0.5, 529.45, -152.5)" gradientUnits="userSpaceOnUse" id="gradient1" spreadMethod="pad" x1="-819.2" x2="819.2">
      <stop offset="0.0" stop-color="#3c4a24"/>
      <stop offset="1.0" stop-color="#141812"/>
    </linearGradient>
    <linearGradient gradientTransform="matrix(0.0205, 0.0, 0.0, 0.008, 261.25, -84.8)" gradientUnits="userSpaceOnUse" id="gradient2" spreadMethod="pad" x1="-819.2" x2="819.2">
      <stop offset="0.0" stop-color="#3c4a24"/>
      <stop offset="1.0" stop-color="#141812"/>
    </linearGradient>
    <linearGradient gradientTransform="matrix(0.0217, 0.0, 0.0, 0.0375, 262.15, -48.2)" gradientUnits="userSpaceOnUse" id="gradient3" spreadMethod="pad" x1="-819.2" x2="819.2">
      <stop offset="0.0" stop-color="#3c4a24"/>
      <stop offset="1.0" stop-color="#141812"/>
    </linearGradient>
  </defs>
</svg>
