<?xml version="1.0" encoding="UTF-8" standalone="no"?>
<svg xmlns:xlink="http://www.w3.org/1999/xlink" height="281.25px" width="349.7px" xmlns="http://www.w3.org/2000/svg">
  <g transform="matrix(1.0, 0.0, 0.0, 1.0, 0.0, 0.0)">
    <path d="M324.95 46.3 L322.75 47.75 Q320.45 49.0 318.5 49.0 319.6 50.45 320.2 52.55 320.95 55.45 321.4 56.3 L323.05 60.1 Q324.2 62.55 325.6 63.95 330.45 68.7 333.85 71.4 L333.85 71.65 333.45 71.75 Q331.45 71.75 327.95 68.45 L326.5 66.9 328.0 68.9 Q329.15 70.55 329.9 71.05 L333.05 72.75 Q334.4 73.45 334.4 74.45 L334.0 75.1 333.45 75.4 Q328.9 75.4 325.6 71.35 L324.75 69.9 325.4 73.05 326.35 77.0 326.45 77.25 326.45 77.3 326.5 77.65 326.3 77.35 Q327.2 81.9 327.2 86.05 L327.1 90.8 326.95 91.6 Q327.45 93.75 328.85 96.15 L329.0 96.4 330.4 98.2 331.75 100.25 332.15 100.75 332.2 100.9 334.5 104.4 334.95 106.2 335.3 108.5 Q335.3 110.35 334.55 111.9 L333.1 113.7 332.3 114.45 Q331.25 115.35 330.05 115.8 L328.65 116.35 326.8 116.65 Q324.3 116.5 324.3 117.8 L324.7 120.15 Q325.0 120.25 325.0 120.75 L322.7 125.15 319.85 129.35 Q318.1 132.3 316.95 133.65 L316.2 134.8 315.2 135.75 Q314.0 137.45 313.0 137.7 L312.6 137.95 313.35 140.5 314.15 143.05 Q314.45 144.3 314.45 148.05 L314.35 151.2 Q314.0 152.85 312.75 154.6 L312.35 156.5 311.9 159.1 311.6 161.75 311.1 172.4 310.85 177.85 Q310.35 180.65 308.05 182.75 L306.25 184.7 Q305.4 185.45 302.65 186.5 L299.7 187.2 297.85 187.75 291.8 189.2 285.25 189.85 280.55 189.45 271.8 188.8 266.8 188.3 267.2 188.55 Q269.05 189.65 270.75 191.15 275.1 195.1 277.6 196.75 278.85 197.6 282.2 199.1 285.0 200.4 286.45 201.65 L293.6 207.65 Q296.85 210.5 302.2 213.5 307.4 216.5 311.15 219.5 318.65 225.4 322.35 231.7 L325.95 237.75 Q327.95 241.3 328.85 243.9 330.7 249.65 333.35 256.15 335.4 261.25 339.35 268.3 340.1 269.75 345.05 275.05 349.7 280.05 349.7 280.45 L349.6 281.15 348.35 281.25 Q347.1 281.25 342.0 279.85 L335.35 278.15 323.85 276.7 Q313.75 276.0 294.9 276.0 L294.3 276.0 294.45 276.35 296.35 280.4 296.1 280.7 Q294.95 280.0 292.75 276.1 L286.55 276.85 286.5 276.85 280.85 277.75 286.45 276.55 286.5 276.55 292.25 275.2 292.0 274.75 Q290.4 271.75 289.75 270.2 288.5 270.0 288.15 269.35 L287.85 267.95 Q285.9 268.3 284.25 269.55 L282.7 270.7 Q280.25 270.7 277.4 269.2 L273.6 267.05 Q270.35 265.8 264.75 265.25 L242.65 264.05 218.0 262.45 207.1 260.3 Q200.7 257.85 190.25 258.9 L169.85 260.6 144.75 261.5 Q146.4 253.5 140.75 254.25 118.05 257.15 54.4 257.15 L7.35 257.15 3.8 256.7 Q2.6 256.35 2.5 256.05 L1.8 254.7 Q1.35 253.75 1.35 253.05 L1.35 236.15 1.6 222.65 1.85 213.8 Q1.85 208.2 0.95 201.05 L0.0 194.8 Q0.0 193.05 4.6 191.4 10.85 189.4 14.1 187.95 L23.2 184.0 Q26.8 182.55 30.85 181.2 43.95 176.1 52.75 173.3 68.95 168.15 82.15 168.15 L103.5 169.55 118.2 170.9 Q130.95 170.9 134.95 169.3 137.15 168.45 138.0 166.8 142.25 163.95 144.1 162.9 L144.2 163.0 153.75 156.65 Q159.15 153.05 162.3 150.2 L160.8 149.2 Q159.6 148.5 159.6 146.9 159.6 144.9 160.6 142.2 L161.6 139.3 161.2 138.25 160.7 137.5 159.85 137.75 158.95 138.0 Q156.75 138.0 156.35 136.75 L156.35 135.45 Q156.35 132.1 158.75 128.3 162.55 122.2 163.4 120.2 L164.2 117.85 164.2 116.95 163.9 112.9 163.9 104.8 164.4 96.8 164.6 88.75 Q164.75 85.3 166.05 80.75 L166.8 78.5 Q166.85 76.8 167.05 75.5 167.5 72.6 168.85 68.75 L169.75 65.65 Q170.45 63.55 171.6 62.4 173.65 60.45 173.6 59.3 L173.9 56.3 173.55 54.4 173.15 51.65 Q173.15 49.8 175.55 46.1 177.8 42.55 179.65 41.15 L186.25 35.8 Q187.35 34.9 187.75 33.2 188.0 31.4 188.2 30.7 189.65 26.55 190.35 25.4 192.15 22.5 196.15 20.2 196.65 19.95 197.8 19.65 L199.1 19.4 200.55 19.35 204.85 18.75 Q205.6 18.65 206.9 17.75 L209.2 16.3 Q214.45 13.45 219.4 13.0 L219.5 13.2 219.6 13.35 221.2 12.55 Q228.0 9.6 235.35 9.9 L249.5 11.4 251.3 11.7 251.4 11.75 253.45 12.05 254.35 12.05 Q258.6 12.05 264.1 9.45 268.0 7.6 269.95 6.0 L273.75 2.65 Q274.4 2.05 274.8 0.6 275.0 -0.15 276.25 0.05 L276.35 1.2 Q276.35 3.0 273.5 7.45 270.55 12.05 268.6 12.8 L268.45 12.95 268.6 12.95 272.1 12.7 Q274.35 12.7 276.25 13.7 278.35 13.9 279.45 14.65 L285.1 18.9 Q286.15 19.6 287.0 20.65 288.95 20.65 296.05 18.7 L296.9 18.5 296.0 15.85 294.35 11.9 Q295.3 11.2 296.05 12.35 L297.25 14.4 Q298.45 15.35 299.1 17.9 303.8 16.7 305.9 16.7 311.0 16.7 313.2 21.5 314.35 23.9 314.45 26.5 L314.4 28.95 313.25 31.9 312.4 31.8 312.35 31.3 312.65 29.6 312.6 28.45 Q312.65 26.45 312.25 25.55 311.95 24.2 311.05 23.0 309.2 20.75 305.6 20.75 304.15 20.75 300.7 22.05 L300.15 22.25 Q300.5 23.95 300.5 25.7 L300.45 27.35 Q300.0 27.95 300.0 29.05 L300.2 29.8 301.1 30.25 302.75 31.25 Q304.75 31.15 308.0 32.15 311.1 33.85 312.35 35.4 L316.9 41.9 Q321.05 41.9 323.25 40.05 L325.5 37.8 326.2 38.55 Q326.2 39.85 322.15 43.1 319.5 45.2 317.5 45.75 L319.6 45.9 Q321.55 45.9 323.25 44.8 L324.95 43.55 327.8 42.1 Q329.45 41.35 330.45 41.25 L334.3 41.35 Q338.25 41.85 338.25 42.8 338.25 43.65 337.6 43.65 L333.55 43.15 330.75 43.75 328.4 44.5 Q327.4 44.9 324.95 46.3 M326.15 95.35 L325.15 93.85 325.1 93.75 324.9 93.4 323.15 91.3 322.8 91.25 321.85 90.05 Q321.1 89.55 318.1 88.55 L316.6 87.85 316.6 87.9 315.85 88.25 315.6 88.2 315.45 88.3 313.6 89.55 309.05 90.35 307.75 90.05 307.7 89.7 Q307.7 89.2 308.55 89.0 L310.05 88.85 311.2 88.35 313.1 87.15 313.55 85.5 311.0 83.1 307.95 81.4 Q305.5 79.9 305.5 79.05 305.5 77.25 307.8 77.95 309.1 78.35 312.0 80.0 312.55 80.15 313.3 80.6 312.05 78.3 309.75 76.6 L309.3 76.35 308.6 75.95 308.55 75.9 307.7 76.15 304.65 76.8 Q303.8 76.8 303.6 76.45 L303.6 76.1 Q303.6 75.05 304.9 74.7 L308.5 73.5 Q310.4 72.35 311.5 70.5 L311.7 70.2 Q309.8 69.0 307.1 67.75 L307.1 67.65 311.0 67.2 312.55 67.7 Q312.85 66.2 312.7 64.5 L312.65 63.55 309.0 63.45 Q307.5 63.45 306.5 63.9 L305.7 64.4 304.35 64.75 304.35 64.8 Q303.8 67.75 301.25 71.4 L299.9 73.25 298.1 74.65 297.15 75.05 Q297.8 76.45 298.95 77.8 301.05 80.15 302.4 82.35 301.05 83.3 299.5 84.95 292.75 92.25 292.75 100.2 292.75 101.6 293.9 104.5 294.9 107.1 295.75 108.35 297.55 111.0 299.55 113.25 301.1 115.05 302.2 115.9 L302.0 116.9 301.7 120.55 302.1 125.2 Q302.1 131.0 298.05 137.75 294.0 144.45 294.0 150.95 294.0 157.05 296.25 162.25 298.0 166.3 301.1 169.6 L301.2 169.65 301.6 169.75 302.1 170.15 302.75 170.75 302.7 170.55 Q303.6 171.5 304.75 171.5 L304.8 171.5 304.85 172.15 305.15 172.35 Q306.8 173.35 307.25 173.35 308.15 173.35 308.8 171.05 L308.75 169.15 Q308.55 165.75 309.0 162.0 L309.1 161.75 309.7 159.85 309.85 157.35 309.9 157.15 309.95 156.95 309.9 157.0 309.85 157.0 309.85 155.9 309.8 154.8 309.55 152.45 309.65 151.95 309.75 150.95 308.9 146.3 307.9 140.45 307.9 133.65 308.2 133.65 308.25 133.85 Q309.25 136.4 312.25 141.9 L312.3 142.0 313.35 144.2 312.75 141.75 Q311.85 138.95 311.85 138.3 L312.05 137.5 312.35 137.05 312.9 136.45 313.5 135.6 Q314.3 134.35 314.4 132.9 L314.9 129.2 314.5 126.3 313.5 126.6 312.0 127.5 311.1 128.7 311.05 129.3 Q311.05 130.95 312.15 131.75 L312.4 132.85 312.6 134.2 Q312.6 135.15 312.4 135.3 L311.6 136.0 311.1 136.25 Q310.25 136.25 309.8 133.55 L309.55 130.85 Q309.55 128.25 311.45 125.9 L314.85 122.7 Q318.85 119.15 321.85 120.45 L323.45 121.6 323.85 122.1 323.95 121.95 323.85 120.35 323.65 119.7 323.1 118.25 Q321.5 115.4 319.25 115.4 317.85 115.4 315.45 117.1 L313.15 119.0 Q311.4 120.9 310.25 122.95 L308.5 126.75 Q307.75 128.4 306.85 129.45 L306.8 129.55 306.45 129.95 306.45 130.0 303.95 133.95 301.75 137.15 Q301.5 137.6 301.5 139.15 301.5 141.9 301.95 143.9 L302.4 146.45 302.65 148.6 302.6 149.15 302.45 149.3 Q301.5 149.0 300.95 144.9 300.5 141.75 300.5 139.1 300.5 137.1 300.75 136.8 L303.25 133.25 305.1 130.35 305.25 130.1 305.25 129.95 Q305.25 129.65 305.95 128.6 L306.3 128.0 307.7 123.9 309.7 117.15 310.7 111.3 311.2 108.7 311.15 108.45 311.3 107.35 Q311.35 106.55 311.55 106.2 311.95 105.25 312.25 105.1 312.9 104.6 313.35 104.85 313.7 105.0 313.7 105.3 L313.2 106.3 Q312.65 107.1 312.65 107.55 L312.6 107.85 Q312.7 109.65 315.3 111.25 317.45 112.55 318.6 112.55 L319.65 112.3 Q318.7 111.05 317.9 109.2 316.35 105.65 316.35 103.15 L316.35 101.35 Q316.45 100.8 317.35 99.2 317.75 98.55 319.6 97.55 321.55 96.5 322.35 96.65 L322.0 97.1 Q322.35 97.2 322.7 97.6 L323.95 99.4 324.7 102.75 Q324.85 104.4 328.15 106.95 L331.4 109.15 332.6 108.9 333.75 108.65 333.8 108.65 333.8 108.35 Q333.8 107.15 332.8 104.65 L331.55 102.7 330.2 100.9 327.75 97.3 327.4 96.7 326.2 95.3 326.2 95.4 326.15 95.35 M325.85 86.05 Q325.85 75.45 319.7 62.45 L318.1 59.25 Q317.15 60.65 316.8 62.3 316.4 64.1 316.3 67.55 L316.15 69.0 Q317.9 69.65 318.8 70.5 319.5 71.05 320.45 72.55 321.65 74.4 322.55 76.95 L323.35 79.95 Q323.65 80.2 323.65 81.15 L323.75 84.05 Q323.75 85.7 323.3 86.85 L322.9 87.65 323.85 88.4 325.55 90.4 325.85 86.05 M312.45 23.2 L312.2 22.75 312.1 22.8 312.55 23.55 312.45 23.2 M284.25 19.9 L281.5 18.0 279.5 16.3 279.8 16.7 Q282.1 19.5 284.8 20.35 L284.25 19.9 M295.35 25.2 L295.7 24.35 292.8 25.45 290.75 26.15 293.6 27.55 294.65 26.4 295.35 25.2 M306.5 33.9 L310.9 38.0 310.6 37.4 Q308.75 34.8 307.45 34.3 L306.5 33.9 M307.65 41.15 L307.7 41.15 307.65 41.05 307.65 41.15 M313.7 40.85 L314.45 41.9 314.95 41.9 314.2 40.6 313.45 39.65 313.7 40.85 M309.9 45.0 L310.05 45.05 309.95 44.85 309.9 45.0 M250.25 70.65 Q250.7 74.0 251.6 76.05 252.1 75.35 252.1 74.4 L251.95 72.5 Q251.6 71.6 250.25 70.65 M244.35 79.65 Q244.95 82.25 245.65 83.55 246.45 84.9 246.9 87.25 L248.3 83.25 249.1 79.9 Q249.1 78.6 247.0 75.75 244.95 73.0 243.35 71.9 L243.7 75.65 Q243.95 78.1 244.35 79.65 M311.35 68.65 L311.45 68.7 311.4 68.65 311.35 68.65 M310.6 75.25 L311.65 75.95 314.6 78.9 315.85 80.3 316.2 77.35 Q316.2 75.15 314.55 73.2 L314.2 72.8 Q312.75 74.35 310.65 75.15 L310.55 75.2 310.6 75.25 M296.45 71.7 L296.5 72.65 298.0 71.1 299.75 69.15 Q300.6 68.05 301.4 65.7 300.25 66.1 299.6 66.55 297.15 68.15 296.65 69.35 296.45 69.8 296.45 71.7 M213.2 17.25 L214.45 17.15 215.25 16.65 215.45 16.35 213.85 16.95 213.2 17.25 M201.8 21.2 Q195.85 22.65 192.25 27.65 L192.8 27.25 Q195.05 25.05 199.75 22.3 L201.8 21.2 M181.75 41.3 Q174.6 47.4 174.35 54.25 L177.25 47.85 Q179.3 43.75 181.85 41.25 L181.75 41.3 M197.9 25.25 L197.35 25.6 Q194.75 27.4 193.1 29.05 L192.95 29.2 192.3 29.9 191.75 30.8 191.7 31.0 192.0 31.05 193.55 29.4 193.85 28.95 Q194.65 28.05 196.9 26.2 L198.1 25.25 197.9 25.25 M194.65 30.75 L194.45 30.95 194.4 31.15 194.45 31.15 194.7 30.8 194.65 30.75 M191.4 31.7 L191.2 31.7 191.05 31.65 190.7 32.25 190.6 32.45 190.85 32.3 191.4 31.7 M236.2 71.1 L235.45 69.55 234.7 67.9 234.2 64.75 Q234.2 63.85 235.45 63.6 L240.9 62.2 Q237.1 60.6 237.1 57.85 L237.35 56.6 237.85 55.15 Q236.5 55.45 233.9 56.55 230.75 57.85 230.75 58.55 230.75 61.15 232.75 65.9 234.7 70.5 235.9 71.2 L236.2 71.15 236.2 71.1 M258.15 196.55 L258.15 196.45 258.1 196.5 Q256.2 198.85 253.6 200.15 251.7 201.05 245.65 202.9 241.8 204.05 238.25 206.55 L232.9 210.8 Q229.15 214.0 226.0 219.05 L221.95 226.05 Q225.3 226.3 228.4 227.55 232.0 228.95 234.6 228.95 L239.0 228.5 Q240.05 228.05 240.8 228.05 L240.85 228.05 Q241.45 227.05 243.8 224.55 L247.6 220.65 Q249.05 219.15 250.45 216.6 L252.5 212.55 Q257.4 203.0 258.15 196.55 M289.6 266.3 L289.65 266.35 289.65 266.2 289.6 266.3 M291.75 270.3 L291.9 270.65 291.9 270.3 291.75 270.3" fill="#000000" fill-rule="evenodd" stroke="none"/>
    <path d="M326.15 95.35 L326.2 95.4 326.2 95.3 327.4 96.7 327.75 97.3 330.2 100.9 331.55 102.7 332.8 104.65 Q333.8 107.15 333.8 108.35 L333.8 108.65 333.75 108.65 332.6 108.9 331.4 109.15 328.15 106.95 Q324.85 104.4 324.7 102.75 L323.95 99.4 322.7 97.6 Q322.35 97.2 322.0 97.1 L322.35 96.65 Q321.55 96.5 319.6 97.55 317.75 98.55 317.35 99.2 316.45 100.8 316.35 101.35 L316.35 103.15 Q316.35 105.65 317.9 109.2 318.7 111.05 319.65 112.3 L318.6 112.55 Q317.45 112.55 315.3 111.25 312.7 109.65 312.6 107.85 L312.65 107.55 Q312.65 107.1 313.2 106.3 L313.7 105.3 Q313.7 105.0 313.35 104.85 312.9 104.6 312.25 105.1 311.95 105.25 311.55 106.2 311.35 106.55 311.3 107.35 L311.15 108.45 311.2 108.7 310.7 111.3 309.7 117.15 307.7 123.9 306.3 128.0 305.95 128.6 Q305.25 129.65 305.25 129.95 L305.25 130.1 305.1 130.35 303.25 133.25 300.75 136.8 Q300.5 137.1 300.5 139.1 300.5 141.75 300.95 144.9 301.5 149.0 302.45 149.3 L302.6 149.15 302.65 148.6 302.4 146.45 301.95 143.9 Q301.5 141.9 301.5 139.15 301.5 137.6 301.75 137.15 L303.95 133.95 306.45 130.0 306.45 129.95 306.8 129.55 306.85 129.45 Q307.75 128.4 308.5 126.75 L310.25 122.95 Q311.4 120.9 313.15 119.0 L315.45 117.1 Q317.85 115.4 319.25 115.4 321.5 115.4 323.1 118.25 L323.65 119.7 323.85 120.35 323.95 121.95 323.85 122.1 323.45 121.6 321.85 120.45 Q318.85 119.15 314.85 122.7 L311.45 125.9 Q309.55 128.25 309.55 130.85 L309.8 133.55 Q310.25 136.25 311.1 136.25 L311.6 136.0 312.4 135.3 Q312.6 135.15 312.6 134.2 L312.4 132.85 312.15 131.75 Q311.05 130.95 311.05 129.3 L311.1 128.7 312.0 127.5 313.5 126.6 314.5 126.3 314.9 129.2 314.4 132.9 Q314.3 134.35 313.5 135.6 L312.9 136.45 312.35 137.05 312.05 137.5 311.85 138.3 Q311.85 138.95 312.75 141.75 L313.35 144.2 312.3 142.0 312.25 141.9 Q309.25 136.4 308.25 133.85 L308.2 133.65 307.9 133.65 307.9 140.45 308.9 146.3 309.75 150.95 309.65 151.95 309.55 152.45 309.8 154.8 309.85 155.9 309.85 157.0 309.9 157.0 309.95 156.95 309.9 157.15 309.85 157.35 309.7 159.85 309.1 161.75 309.0 162.0 Q308.55 165.75 308.75 169.15 L308.8 171.05 Q308.15 173.35 307.25 173.35 306.8 173.35 305.15 172.35 L304.85 172.15 304.8 171.5 304.75 171.5 Q303.6 171.5 302.7 170.55 L302.75 170.75 302.1 170.15 301.6 169.75 301.2 169.65 301.1 169.6 Q298.0 166.3 296.25 162.25 294.0 157.05 294.0 150.95 294.0 144.45 298.05 137.75 302.1 131.0 302.1 125.2 L301.7 120.55 302.0 116.9 302.2 115.9 Q301.1 115.05 299.55 113.25 297.55 111.0 295.75 108.35 294.9 107.1 293.9 104.5 292.75 101.6 292.75 100.2 292.75 92.25 299.5 84.95 301.05 83.3 302.4 82.35 301.05 80.15 298.95 77.8 297.8 76.45 297.15 75.05 L298.1 74.65 299.9 73.25 301.25 71.4 Q303.8 67.75 304.35 64.8 L304.35 64.75 305.7 64.4 306.5 63.9 Q307.5 63.45 309.0 63.45 L312.65 63.55 312.7 64.5 Q312.85 66.2 312.55 67.7 L311.0 67.2 307.1 67.65 307.1 67.75 Q309.8 69.0 311.7 70.2 L311.5 70.5 Q310.4 72.35 308.5 73.5 L304.9 74.7 Q303.6 75.05 303.6 76.1 L303.6 76.45 Q303.8 76.8 304.65 76.8 L307.7 76.15 308.55 75.9 308.6 75.95 309.3 76.35 309.75 76.6 Q312.05 78.3 313.3 80.6 312.55 80.15 312.0 80.0 309.1 78.35 307.8 77.95 305.5 77.25 305.5 79.05 305.5 79.9 307.95 81.4 L311.0 83.1 313.55 85.5 313.1 87.15 311.2 88.35 310.05 88.85 308.55 89.0 Q307.7 89.2 307.7 89.7 L307.75 90.05 309.05 90.35 313.6 89.55 315.45 88.3 315.6 88.2 315.85 88.25 316.6 87.9 316.6 87.85 318.1 88.55 Q321.1 89.55 321.85 90.05 L322.8 91.25 323.15 91.3 324.9 93.4 325.1 93.75 325.15 93.85 326.15 95.35 M244.35 79.65 Q243.95 78.1 243.7 75.65 L243.35 71.9 Q244.95 73.0 247.0 75.75 249.1 78.6 249.1 79.9 L248.3 83.25 246.9 87.25 Q246.45 84.9 245.65 83.55 244.95 82.25 244.35 79.65 M250.25 70.65 Q251.6 71.6 251.95 72.5 L252.1 74.4 Q252.1 75.35 251.6 76.05 250.7 74.0 250.25 70.65 M235.9 71.2 Q234.7 70.5 232.75 65.9 230.75 61.15 230.75 58.55 230.75 57.85 233.9 56.55 236.5 55.45 237.85 55.15 L237.35 56.6 237.1 57.85 Q237.1 60.6 240.9 62.2 L235.45 63.6 Q234.2 63.85 234.2 64.75 L234.7 67.9 235.45 69.55 236.2 71.1 235.9 71.2 M258.1 196.5 L258.15 196.55 Q257.4 203.0 252.5 212.55 L250.45 216.6 Q249.05 219.15 247.6 220.65 L243.8 224.55 Q241.45 227.05 240.85 228.05 L240.8 228.05 Q240.05 228.05 239.0 228.5 L234.6 228.95 Q232.0 228.95 228.4 227.55 225.3 226.3 221.95 226.05 L226.0 219.05 Q229.15 214.0 232.9 210.8 L238.25 206.55 Q241.8 204.05 245.65 202.9 251.7 201.05 253.6 200.15 256.2 198.85 258.1 196.5" fill="url(#gradient0)" fill-rule="evenodd" stroke="none"/>
    <path d="M325.85 86.05 L325.55 90.4 323.85 88.4 322.9 87.65 323.3 86.85 Q323.75 85.7 323.75 84.05 L323.65 81.15 Q323.65 80.2 323.35 79.95 L322.55 76.95 Q321.65 74.4 320.45 72.55 319.5 71.05 318.8 70.5 317.9 69.65 316.15 69.0 L316.3 67.55 Q316.4 64.1 316.8 62.3 317.15 60.65 318.1 59.25 L319.7 62.45 Q325.85 75.45 325.85 86.05 M310.65 75.15 Q312.75 74.35 314.2 72.8 L314.55 73.2 Q316.2 75.15 316.2 77.35 L315.85 80.3 314.6 78.9 311.65 75.95 310.6 75.25 310.65 75.15 M296.45 71.7 Q296.45 69.8 296.65 69.35 297.15 68.15 299.6 66.55 300.25 66.1 301.4 65.7 300.6 68.05 299.75 69.15 L298.0 71.1 296.5 72.65 296.45 71.7" fill="#4f365a" fill-rule="evenodd" stroke="none"/>
  </g>
  <defs>
    <linearGradient gradientTransform="matrix(-0.0456, 0.1266, -0.0359, -0.0129, 276.85, 164.55)" gradientUnits="userSpaceOnUse" id="gradient0" spreadMethod="pad" x1="-819.2" x2="819.2">
      <stop offset="0.0" stop-color="#4f365a"/>
      <stop offset="1.0" stop-color="#000000"/>
    </linearGradient>
  </defs>
</svg>
