<?xml version="1.0" encoding="UTF-8" standalone="no"?>
<svg xmlns:xlink="http://www.w3.org/1999/xlink" height="48.1px" width="43.45px" xmlns="http://www.w3.org/2000/svg">
  <g transform="matrix(1.0, 0.0, 0.0, 1.0, 0.0, 0.0)">
    <path d="M31.75 10.8 L33.7 12.0 Q35.95 13.6 35.95 14.7 L35.9 15.0 35.45 15.3 35.65 16.1 42.65 20.1 Q43.75 24.0 43.3 28.1 42.9 31.45 41.55 34.5 38.5 35.85 35.65 37.65 L35.7 38.2 Q35.7 38.65 32.3 40.15 L27.45 42.3 24.4 43.85 21.3 45.4 21.05 46.7 19.7 45.8 18.6 46.9 Q16.65 48.25 14.4 48.1 L9.7 47.25 8.3 46.7 2.5 42.6 Q2.8 40.0 2.1 37.55 1.15 34.2 0.65 30.6 -0.15 25.25 0.05 19.95 0.2 16.45 0.8 13.05 L2.2 5.6 4.35 3.5 4.2 4.05 5.4 3.2 Q9.0 0.65 13.4 0.0 15.3 -0.1 16.85 0.85 L20.2 3.15 Q21.75 4.55 23.65 4.9 L23.7 5.65 25.8 6.8 Q28.9 8.6 31.75 10.8 M19.85 7.05 L8.0 7.1 7.4 8.95 Q6.0 13.45 5.75 15.3 L5.0 21.1 4.95 26.0 Q4.95 35.75 7.35 42.95 L8.4 43.75 13.65 43.7 18.75 43.8 Q17.2 36.05 17.25 28.0 L17.45 29.0 Q17.85 20.05 19.95 11.2 L20.0 8.85 19.65 7.65 20.0 7.1 19.85 7.05 M18.45 5.95 L19.7 5.95 18.85 5.75 18.45 5.95 M20.25 5.3 L19.85 5.55 20.65 6.0 20.85 6.0 Q21.4 5.75 20.75 5.5 L20.25 5.3 M35.55 25.5 L42.65 25.95 41.75 19.9 35.7 17.15 35.55 25.5 M9.1 6.05 L14.0 5.95 Q9.1 5.7 9.05 5.95 L9.1 6.05 M1.75 23.8 L2.4 32.65 2.1 19.85 2.0 19.7 1.75 23.8 M4.2 33.9 L4.35 34.05 4.15 31.85 3.95 29.65 4.2 33.9 M5.05 38.15 L4.65 35.85 Q4.55 37.9 5.25 39.85 L5.05 38.15 M41.55 32.3 L41.95 31.95 42.55 27.05 35.55 26.1 34.8 36.2 41.3 33.45 41.55 32.3 M18.2 45.0 L18.55 44.7 16.9 44.75 17.1 44.95 18.2 45.0" fill="#000000" fill-rule="evenodd" stroke="none"/>
    <path d="M18.45 5.95 L18.85 5.75 19.7 5.95 18.45 5.95 M19.85 7.05 L20.0 7.1 19.65 7.65 20.0 8.85 19.95 11.2 Q17.85 20.05 17.45 29.0 L17.25 28.0 Q17.2 36.05 18.75 43.8 L13.65 43.7 8.4 43.75 7.35 42.95 Q4.95 35.75 4.95 26.0 L5.0 21.1 5.75 15.3 Q6.0 13.45 7.4 8.95 L8.0 7.1 19.85 7.05 M9.1 6.05 L9.05 5.95 Q9.1 5.7 14.0 5.95 L9.1 6.05 M5.05 38.15 L5.25 39.85 Q4.55 37.9 4.65 35.85 L5.05 38.15 M4.2 33.9 L3.95 29.65 4.15 31.85 4.35 34.05 4.2 33.9 M18.2 45.0 L17.1 44.95 16.9 44.75 18.55 44.7 18.2 45.0" fill="#1e1e1e" fill-rule="evenodd" stroke="none"/>
    <path d="M35.55 25.5 L35.7 17.15 41.75 19.9 42.65 25.95 35.55 25.5 M41.85 24.5 L41.85 24.45 41.8 24.5 41.8 24.65 41.85 24.5 M41.5 25.35 L41.5 25.3 41.4 25.2 41.5 25.35 M41.45 24.75 L41.45 24.8 41.55 24.75 41.45 24.75" fill="url(#gradient0)" fill-rule="evenodd" stroke="none"/>
    <path d="M41.85 24.5 L41.8 24.65 41.8 24.5 41.85 24.45 41.85 24.5 M41.45 24.75 L41.55 24.75 41.45 24.8 41.45 24.75 M41.5 25.35 L41.4 25.2 41.5 25.3 41.5 25.35" fill="#ff0000" fill-rule="evenodd" stroke="none"/>
    <path d="M41.55 32.3 L41.3 33.45 34.8 36.2 35.55 26.1 42.55 27.05 41.95 31.95 41.55 32.3" fill="url(#gradient1)" fill-rule="evenodd" stroke="none"/>
  </g>
  <defs>
    <linearGradient gradientTransform="matrix(0.0018, -0.0068, 0.0052, 0.0014, 39.1, 21.55)" gradientUnits="userSpaceOnUse" id="gradient0" spreadMethod="pad" x1="-819.2" x2="819.2">
      <stop offset="0.0" stop-color="#ffffff"/>
      <stop offset="1.0" stop-color="#919191"/>
    </linearGradient>
    <linearGradient gradientTransform="matrix(2.0E-4, -0.0152, 0.0062, 1.0E-4, 36.65, 38.75)" gradientUnits="userSpaceOnUse" id="gradient1" spreadMethod="pad" x1="-819.2" x2="819.2">
      <stop offset="0.0" stop-color="#ffffff"/>
      <stop offset="1.0" stop-color="#262626"/>
    </linearGradient>
  </defs>
</svg>
