<?xml version="1.0" encoding="UTF-8" standalone="no"?>
<svg xmlns:xlink="http://www.w3.org/1999/xlink" height="309.85px" width="406.6px" xmlns="http://www.w3.org/2000/svg">
  <g transform="matrix(1.0, 0.0, 0.0, 1.0, 149.3, 0.0)">
    <path d="M247.6 57.2 Q250.6 56.4 253.2 58.0 L255.0 59.35 Q258.15 62.25 257.0 66.5 255.4 72.2 252.4 77.3 250.15 81.2 247.2 84.35 238.85 93.05 230.85 102.05 L222.1 111.65 Q212.4 121.95 202.15 131.65 196.8 136.8 192.65 143.05 184.05 155.95 181.0 171.15 180.6 173.25 181.1 175.35 183.7 185.85 192.8 191.75 196.1 193.9 200.3 193.95 L204.25 193.45 Q212.35 191.25 220.15 193.8 228.95 196.9 237.0 201.2 246.55 206.3 248.5 217.1 249.2 221.05 246.55 223.95 245.8 224.85 244.5 224.6 237.9 223.25 231.6 220.5 226.7 218.35 221.75 217.4 214.55 216.15 207.25 217.9 191.75 221.25 176.5 225.5 L173.7 226.0 Q156.35 226.25 139.45 229.9 L146.3 227.7 Q129.75 232.05 117.05 234.7 104.45 237.55 92.15 241.7 87.05 243.4 82.3 245.9 64.0 255.65 47.25 267.9 42.4 271.5 37.1 274.2 23.6 281.35 13.5 292.95 L13.75 294.35 12.3 294.8 4.35 295.1 Q1.55 297.45 -0.45 296.7 -2.5 295.9 -15.6 308.95 L-41.0 308.95 Q-39.5 304.6 -64.75 309.85 L-64.75 298.35 -126.15 298.35 Q-170.4 309.95 -130.05 270.4 -79.6 220.9 -36.1 207.45 36.35 185.0 46.5 177.05 53.8 171.4 58.1 163.35 63.85 152.45 70.05 141.8 75.25 133.0 79.25 123.5 82.85 115.05 84.75 106.25 86.3 98.85 86.35 91.2 86.4 75.4 89.5 60.1 92.05 47.3 92.45 34.1 92.75 22.75 95.4 11.5 L104.3 11.9 104.3 11.4 Q107.25 11.6 109.15 13.8 L107.9 12.15 109.05 12.75 Q111.65 14.4 112.65 17.1 115.3 24.25 114.7 32.25 L114.1 40.35 Q113.0 55.3 113.05 70.35 113.05 76.75 114.45 83.0 116.15 90.55 123.05 93.5 129.6 86.55 132.25 77.45 133.85 72.0 136.0 66.45 139.7 56.95 145.5 48.3 L150.0 41.0 Q158.55 26.2 164.75 10.35 165.3 8.9 166.35 7.75 174.95 -1.9 187.8 0.5 189.15 3.25 191.05 5.6 192.3 7.2 191.85 9.3 L190.7 8.85 190.25 12.05 189.5 10.8 175.1 39.35 175.25 39.75 172.35 45.7 Q162.6 65.8 153.7 86.25 152.15 90.35 151.8 93.5 151.8 95.35 152.2 97.3 156.8 93.75 159.65 88.85 L169.1 72.5 Q171.0 69.25 173.35 66.3 179.1 59.05 185.15 52.15 L193.3 42.6 Q202.7 31.25 210.25 18.35 211.25 16.65 212.5 15.1 213.8 13.6 215.45 12.5 218.9 10.1 221.6 13.3 224.55 14.1 226.7 16.35 228.75 18.45 229.05 21.3 229.6 26.6 226.95 31.55 L222.55 38.9 Q206.75 63.1 191.95 87.9 L191.75 88.25 191.6 88.45 191.6 88.4 189.85 90.6 187.95 92.9 186.1 95.1 182.3 99.55 178.45 104.1 176.85 106.15 177.05 107.4 177.65 109.6 Q178.7 112.45 180.85 114.2 L196.75 98.75 Q201.45 94.15 206.8 90.6 213.8 85.9 219.95 80.25 L230.75 70.55 Q234.95 66.8 238.7 62.65 242.4 58.5 247.6 57.2 M180.4 172.25 Q180.5 169.7 181.2 167.0 185.5 150.4 196.2 136.8 201.45 130.15 207.8 124.55 216.75 116.7 224.3 107.7 234.55 95.4 246.05 83.95 254.0 75.95 255.7 65.1 256.1 62.45 254.2 60.6 252.6 59.0 250.65 58.3 254.25 65.4 250.55 72.5 245.95 81.35 239.5 88.75 238.5 89.9 237.05 90.2 L233.75 90.05 Q233.55 94.95 230.05 98.8 L226.35 103.2 Q223.15 107.5 218.35 109.75 L215.95 110.05 214.2 109.4 Q216.15 112.1 214.45 114.95 211.4 119.95 207.2 123.9 L201.45 128.35 Q200.0 129.25 198.45 129.85 196.75 130.4 195.05 129.5 188.2 125.8 183.45 119.1 181.5 116.35 179.1 113.95 175.8 110.6 176.05 105.9 172.35 114.6 176.4 123.5 181.6 135.0 181.25 147.45 L180.4 160.6 179.4 172.2 179.25 173.6 178.35 173.7 Q174.95 169.45 173.4 164.0 176.85 177.75 185.4 189.0 189.85 194.9 196.85 195.85 L199.15 195.95 Q202.0 195.45 204.5 193.95 192.7 196.3 185.1 186.5 180.05 179.95 180.4 172.25 M222.55 15.35 Q227.25 20.6 224.0 27.05 222.85 29.3 220.45 30.05 219.15 30.55 218.0 31.15 216.6 31.8 216.75 33.3 217.45 39.1 215.7 44.75 214.35 49.15 209.85 50.5 210.45 53.15 209.1 55.55 203.35 65.8 196.15 75.2 194.65 77.1 192.4 78.15 L193.15 84.0 Q208.25 59.9 223.8 36.05 227.45 30.5 228.25 23.9 228.5 21.75 227.65 19.9 226.4 16.45 222.9 15.0 L221.85 14.65 222.55 15.35 M189.05 8.6 Q188.15 5.8 185.75 4.55 L184.25 3.9 Q178.95 4.3 174.75 7.7 181.65 17.85 178.3 29.85 177.2 33.75 175.3 37.35 183.35 23.6 189.05 8.6 M186.5 69.1 L182.55 74.2 183.4 77.65 186.5 69.1 M184.3 191.8 L183.75 191.45 183.65 191.55 184.3 191.8 M109.3 15.25 L106.65 12.85 105.7 13.05 Q112.35 21.6 109.25 31.75 L108.65 33.4 106.4 33.0 104.25 32.15 Q107.1 39.4 106.3 47.05 106.25 47.65 105.8 48.15 105.05 49.05 104.0 49.3 108.95 53.3 109.45 59.8 109.7 62.8 109.4 65.9 108.9 70.45 104.75 72.75 108.9 74.3 109.15 78.85 109.55 86.6 114.9 92.15 120.25 97.65 127.4 95.5 119.35 95.65 116.2 88.3 110.95 76.25 111.75 63.2 L112.7 47.9 Q113.45 36.2 113.4 24.4 113.4 20.95 111.8 18.0 L110.15 15.1 109.3 15.25 M224.8 195.6 Q222.65 194.65 220.5 194.3 223.2 196.9 222.5 200.45 222.25 201.8 222.6 203.25 223.55 206.85 227.0 208.25 233.75 211.0 240.15 214.4 245.15 217.0 244.7 222.25 L244.25 223.9 Q248.0 222.45 247.5 218.1 246.2 206.6 235.95 201.25 230.45 198.3 224.8 195.6 M155.8 78.85 L153.6 82.7 Q150.05 89.65 149.5 97.45 149.3 100.05 151.9 99.65 L151.25 97.95 150.95 95.4 Q150.95 91.25 153.05 85.55 L155.8 78.85 M156.65 77.4 L156.6 77.65 157.0 76.75 156.65 77.4 M152.45 98.9 L152.4 98.8 152.45 98.95 152.45 98.9 M100.9 147.0 Q98.65 141.35 94.85 136.7 86.4 153.4 85.25 172.05 84.55 183.25 89.45 193.15 91.1 196.5 93.75 199.25 98.55 195.6 101.45 190.4 L110.55 174.65 Q107.85 178.85 103.0 180.6 99.15 182.0 95.85 184.3 100.35 177.65 102.35 169.85 L102.9 167.55 Q105.0 157.05 100.9 147.0 M113.8 128.8 L111.95 111.2 102.3 108.3 Q107.5 115.85 111.55 124.1 L113.8 128.8" fill="#000000" fill-rule="evenodd" stroke="none"/>
    <path d="M179.4 172.2 L180.4 160.6 181.25 147.45 Q181.6 135.0 176.4 123.5 172.35 114.6 176.05 105.9 175.8 110.6 179.1 113.95 181.5 116.35 183.45 119.1 188.2 125.8 195.05 129.5 196.75 130.4 198.45 129.85 200.0 129.25 201.45 128.35 L207.2 123.9 Q211.4 119.95 214.45 114.95 216.15 112.1 214.2 109.4 L215.95 110.05 218.35 109.75 Q223.15 107.5 226.35 103.2 L230.05 98.8 Q233.55 94.95 233.75 90.05 L237.05 90.2 Q238.5 89.9 239.5 88.75 245.95 81.35 250.55 72.5 254.25 65.4 250.65 58.3 252.6 59.0 254.2 60.6 256.1 62.45 255.7 65.1 254.0 75.95 246.05 83.95 234.55 95.4 224.3 107.7 216.75 116.7 207.8 124.55 201.45 130.15 196.2 136.8 185.5 150.4 181.2 167.0 180.5 169.7 180.4 172.25 L179.4 172.2 M222.9 15.0 Q226.4 16.45 227.65 19.9 228.5 21.75 228.25 23.9 227.45 30.5 223.8 36.05 208.25 59.9 193.15 84.0 L192.4 78.15 Q194.65 77.1 196.15 75.2 203.35 65.8 209.1 55.55 210.45 53.15 209.85 50.5 214.35 49.15 215.7 44.75 217.45 39.1 216.75 33.3 216.6 31.8 218.0 31.15 219.15 30.55 220.45 30.05 222.85 29.3 224.0 27.05 227.25 20.6 222.55 15.35 L222.9 15.0 M186.5 69.1 L183.4 77.65 182.55 74.2 186.5 69.1 M224.8 195.6 Q230.45 198.3 235.95 201.25 246.2 206.6 247.5 218.1 248.0 222.45 244.25 223.9 L244.7 222.25 Q245.15 217.0 240.15 214.4 233.75 211.0 227.0 208.25 223.55 206.85 222.6 203.25 222.25 201.8 222.5 200.45 223.2 196.9 220.5 194.3 222.65 194.65 224.8 195.6 M109.3 15.25 L110.15 15.1 111.8 18.0 Q113.4 20.95 113.4 24.4 113.45 36.2 112.7 47.9 L111.75 63.2 Q110.95 76.25 116.2 88.3 119.35 95.65 127.4 95.5 120.25 97.65 114.9 92.15 109.55 86.6 109.15 78.85 108.9 74.3 104.75 72.75 108.9 70.45 109.4 65.9 109.7 62.8 109.45 59.8 108.95 53.3 104.0 49.3 105.05 49.05 105.8 48.15 106.25 47.65 106.3 47.05 107.1 39.4 104.25 32.15 L106.4 33.0 108.65 33.4 109.25 31.75 Q112.35 21.6 105.7 13.05 L106.65 12.85 109.3 15.25 M113.8 128.8 L111.55 124.1 Q107.5 115.85 102.3 108.3 L111.95 111.2 113.8 128.8 M100.9 147.0 Q105.0 157.05 102.9 167.55 L102.35 169.85 Q100.35 177.65 95.85 184.3 99.15 182.0 103.0 180.6 107.85 178.85 110.55 174.65 L101.45 190.4 Q98.55 195.6 93.75 199.25 91.1 196.5 89.45 193.15 84.55 183.25 85.25 172.05 86.4 153.4 94.85 136.7 98.65 141.35 100.9 147.0" fill="url(#gradient0)" fill-rule="evenodd" stroke="none"/>
    <path d="M180.4 172.25 Q180.05 179.95 185.1 186.5 192.7 196.3 204.5 193.95 202.0 195.45 199.15 195.95 L196.85 195.85 Q189.85 194.9 185.4 189.0 176.85 177.75 173.4 164.0 174.95 169.45 178.35 173.7 L179.25 173.6 179.4 172.2 180.4 172.25 M222.55 15.35 L221.85 14.65 222.9 15.0 222.55 15.35 M189.05 8.6 Q183.35 23.6 175.3 37.35 177.2 33.75 178.3 29.85 181.65 17.85 174.75 7.7 178.95 4.3 184.25 3.9 L185.75 4.55 Q188.15 5.8 189.05 8.6 M155.8 78.85 L153.05 85.55 Q150.95 91.25 150.95 95.4 L151.25 97.95 151.9 99.65 Q149.3 100.05 149.5 97.45 150.05 89.65 153.6 82.7 L155.8 78.85" fill="#4f365a" fill-rule="evenodd" stroke="none"/>
  </g>
  <defs>
    <linearGradient gradientTransform="matrix(-0.0456, 0.1266, -0.0359, -0.0129, 283.5, 233.8)" gradientUnits="userSpaceOnUse" id="gradient0" spreadMethod="pad" x1="-819.2" x2="819.2">
      <stop offset="0.0" stop-color="#4f365a"/>
      <stop offset="1.0" stop-color="#000000"/>
    </linearGradient>
  </defs>
</svg>
