<?xml version="1.0" encoding="UTF-8" standalone="no"?>
<svg xmlns:xlink="http://www.w3.org/1999/xlink" height="31.65px" width="6.35px" xmlns="http://www.w3.org/2000/svg">
  <g transform="matrix(1.0, 0.0, 0.0, 1.0, 0.0, 0.0)">
    <path d="M6.35 0.05 L6.35 0.35 5.1 2.55 4.7 3.55 4.15 4.65 3.85 4.35 3.8 4.9 3.55 4.9 4.1 2.3 Q4.6 0.7 6.2 0.0 L6.35 0.05 M5.0 10.75 L5.6 14.05 4.55 18.4 4.45 20.55 Q4.4 21.9 3.7 22.55 3.3 22.15 3.3 21.55 L3.65 18.3 4.05 16.15 4.45 14.25 3.6 8.4 Q3.6 7.85 4.1 7.5 4.6 8.0 4.85 9.05 L5.0 10.75 M2.75 25.65 L2.2 26.75 Q1.6 27.85 1.6 28.8 1.6 31.65 0.75 31.65 0.15 31.65 0.0 30.9 L0.0 30.1 Q0.0 28.85 0.75 27.35 1.55 25.8 2.55 25.35 L2.65 25.3 2.75 25.65" fill="#990000" fill-rule="evenodd" stroke="none"/>
  </g>
</svg>
