<?xml version="1.0" encoding="UTF-8" standalone="no"?>
<svg xmlns:xlink="http://www.w3.org/1999/xlink" height="161.45px" width="424.75px" xmlns="http://www.w3.org/2000/svg">
  <g transform="matrix(1.0, 0.0, 0.0, 1.0, 0.0, 0.0)">
    <path d="M108.6 76.85 Q108.05 76.35 108.05 76.05 L109.85 75.95 111.0 76.25 112.45 77.1 Q113.45 77.7 113.9 77.7 L115.1 77.4 Q115.95 77.4 117.6 78.6 L117.65 78.55 117.65 78.75 Q117.65 79.05 117.15 79.15 116.35 79.35 116.1 79.5 116.95 79.75 118.8 81.15 L119.25 80.6 Q119.6 80.25 120.1 80.25 121.05 80.25 121.35 81.25 121.35 81.55 120.8 82.05 L122.4 82.9 Q123.1 83.25 123.3 83.7 L123.45 85.25 124.2 85.25 124.6 84.9 125.55 84.8 Q125.7 84.8 126.95 85.35 L126.2 86.3 125.25 87.0 Q125.55 87.9 127.15 89.5 L127.85 88.85 Q128.85 88.0 132.75 85.7 135.5 84.15 137.1 82.35 138.4 80.9 141.5 79.3 144.0 78.0 145.85 77.6 L147.15 76.3 Q151.0 72.4 151.95 71.85 154.15 70.55 158.1 68.9 159.6 68.3 161.3 66.7 L163.55 64.95 Q165.65 62.5 170.75 60.75 L178.1 58.7 186.2 55.55 192.9 52.95 199.6 50.2 Q203.4 48.6 207.45 47.75 L210.85 46.75 215.25 45.6 219.5 44.85 223.65 44.55 Q226.15 44.35 227.25 44.6 228.2 44.85 228.55 45.55 L230.6 43.65 232.85 41.25 Q235.3 38.5 236.9 38.9 238.2 39.2 238.2 40.8 238.2 42.15 237.05 43.3 L234.05 46.2 Q233.15 47.35 232.7 48.95 L232.45 50.45 232.5 51.6 232.5 51.7 233.95 51.55 237.0 51.15 239.9 50.25 Q244.05 49.4 244.05 52.25 244.05 53.35 242.8 54.0 241.0 54.65 239.9 55.25 L237.45 56.3 234.25 57.1 234.15 57.45 Q234.15 58.35 235.75 59.0 237.45 59.75 240.0 59.75 L244.4 59.45 Q247.95 59.45 247.95 61.6 247.95 62.65 247.35 63.15 246.55 63.85 244.1 64.35 L240.45 64.65 238.8 65.25 237.35 65.45 Q237.45 66.25 239.1 67.35 L241.95 69.05 Q244.3 70.55 244.65 70.8 245.55 71.6 245.55 72.65 L245.25 73.5 242.3 73.95 242.5 75.0 242.85 77.4 Q242.85 77.9 242.25 78.5 241.55 79.25 240.5 79.25 239.45 79.25 238.85 78.2 L238.35 76.95 Q237.8 75.65 236.9 74.55 L235.4 72.25 Q234.6 71.1 233.35 70.3 231.8 69.9 229.9 68.1 228.3 66.65 227.25 65.1 225.95 63.3 224.55 62.25 223.2 61.15 222.7 60.9 221.55 60.35 220.5 60.45 220.0 61.1 211.7 64.35 202.7 68.25 200.6 69.5 L192.45 74.85 190.45 76.2 Q189.9 76.55 189.55 76.85 L188.15 78.05 186.55 79.6 185.1 80.7 181.05 81.5 177.05 82.2 174.65 82.65 172.8 83.15 170.6 83.4 169.15 85.0 Q167.7 86.65 167.0 87.75 L164.8 91.35 166.3 91.9 169.5 93.15 170.2 93.55 170.9 93.9 174.6 94.35 176.3 94.95 176.9 95.55 177.3 95.85 178.9 95.55 Q180.1 95.55 180.7 96.0 L181.6 96.45 183.95 95.8 186.45 95.15 Q187.25 95.15 188.1 95.6 L188.85 96.0 192.7 95.85 Q193.8 95.85 194.65 96.45 L196.35 97.65 199.7 98.15 200.9 98.6 201.7 98.25 Q202.35 97.85 203.7 97.85 L210.6 98.85 213.3 99.35 214.0 99.8 214.9 100.1 215.6 100.05 Q215.5 99.05 216.1 98.65 217.25 97.95 221.25 97.65 222.2 97.6 223.7 96.4 225.2 95.25 226.75 95.25 L228.3 95.55 229.4 96.05 229.9 96.15 Q230.3 95.75 231.1 95.3 L233.15 94.2 240.35 92.7 242.7 92.0 244.65 91.05 246.45 89.8 Q247.15 89.35 248.1 89.35 L248.95 89.2 251.4 89.0 251.15 88.95 254.55 89.4 259.3 89.85 264.85 89.55 266.75 89.85 267.9 90.15 269.45 89.85 Q271.0 89.85 271.45 90.4 L271.95 90.95 273.35 90.5 Q274.45 90.0 275.95 90.0 L280.65 90.45 Q282.05 90.45 283.25 89.2 L283.2 88.8 283.7 88.7 Q283.95 88.45 284.25 88.55 L285.05 88.15 293.9 87.15 297.9 86.9 300.65 86.5 301.35 86.1 302.9 85.95 304.4 85.55 308.55 84.95 310.5 84.65 309.0 80.55 306.9 75.6 Q305.65 73.0 303.8 66.0 L303.7 65.7 303.15 64.6 301.8 62.55 300.2 60.4 298.55 58.05 296.35 55.85 Q295.55 55.0 295.55 53.7 L296.55 48.8 297.05 46.85 Q295.0 44.35 292.65 42.8 L291.25 41.75 Q290.4 41.05 289.5 40.8 288.6 40.5 288.15 39.7 L288.0 39.3 285.95 37.35 285.55 36.3 285.45 35.6 Q285.45 35.1 289.4 26.35 L291.45 21.75 293.6 17.15 297.8 7.9 298.5 5.6 Q298.95 4.15 299.6 3.25 L300.65 2.05 301.8 1.0 302.55 0.4 Q303.0 0.1 303.55 0.05 L306.0 0.2 Q306.4 0.05 306.75 0.4 L307.05 0.3 308.15 0.1 308.35 0.1 308.55 0.2 309.55 0.5 310.75 0.9 Q312.0 1.65 312.65 2.55 L313.05 3.9 313.5 8.35 312.8 14.85 311.95 17.8 311.7 18.65 311.7 18.75 311.35 20.4 310.95 22.7 Q310.95 24.85 312.0 28.95 L312.8 32.1 313.05 33.45 313.25 34.5 313.6 35.0 314.5 35.95 Q315.15 36.2 315.65 36.95 L316.95 38.85 319.4 42.45 321.95 46.05 Q322.7 47.0 323.9 49.65 L326.4 53.3 327.4 55.0 328.65 56.9 331.05 60.4 333.75 64.05 Q339.85 71.45 344.15 78.6 345.55 80.9 349.3 86.15 352.35 90.75 352.35 92.85 352.35 93.6 351.55 95.15 L351.7 95.1 355.05 94.25 361.5 93.8 368.4 93.5 368.9 93.35 371.6 92.9 375.35 92.55 379.1 93.0 Q381.15 93.0 382.3 91.9 L383.9 90.3 384.0 90.35 384.4 90.0 386.1 90.15 386.15 90.2 386.85 89.4 388.35 88.05 389.95 86.65 Q390.95 85.85 391.4 85.95 L391.4 85.9 Q391.4 85.5 391.8 85.5 L391.85 85.55 392.4 84.9 393.2 84.15 Q393.9 84.1 394.3 84.4 L394.8 84.8 Q395.95 85.7 398.4 88.55 L400.25 90.3 402.25 92.3 405.7 96.05 Q410.1 100.55 415.85 103.6 L418.75 105.45 421.55 107.35 Q423.0 108.2 423.85 109.2 424.75 110.25 424.75 111.05 424.75 111.9 423.9 112.7 L423.05 113.55 423.15 113.7 Q422.95 114.05 422.9 114.6 L421.85 117.15 420.45 119.0 419.95 119.35 415.7 120.6 415.2 120.5 415.0 120.45 410.55 119.1 404.35 116.3 401.7 114.9 398.85 113.55 Q397.9 113.1 397.0 113.2 L396.0 113.45 392.7 113.8 392.45 113.85 Q392.2 116.85 391.45 120.2 390.3 125.4 388.6 128.0 L388.85 128.3 388.85 128.45 388.55 128.55 388.2 128.55 387.95 128.85 387.8 128.85 387.8 128.55 381.35 127.7 375.05 126.8 364.4 127.2 Q361.55 127.2 359.2 126.45 356.85 125.7 354.85 125.7 350.35 125.7 346.35 127.2 343.9 128.15 342.05 129.45 L338.9 131.7 337.45 133.3 Q337.1 133.8 336.25 133.8 335.2 133.8 334.4 133.2 L332.7 133.65 329.1 135.2 Q327.75 135.7 327.0 137.05 L326.55 137.85 326.4 138.1 325.8 138.9 325.65 138.9 325.7 138.8 325.05 139.2 321.95 139.4 318.05 141.0 Q317.0 141.5 315.6 141.8 L302.25 145.2 297.6 146.8 Q294.65 147.75 290.55 148.25 L285.75 148.95 279.0 149.6 Q276.05 150.0 274.3 150.55 L270.85 150.9 268.65 151.05 268.85 151.1 Q268.7 151.55 267.55 151.85 L265.45 152.15 262.2 151.7 259.5 151.1 258.5 150.8 249.75 150.5 245.6 150.65 244.7 150.65 244.55 154.1 243.45 161.25 243.35 161.4 243.2 161.4 243.3 161.45 243.15 161.4 243.0 161.4 243.0 161.35 241.8 160.8 Q240.6 160.25 239.55 160.05 L233.9 159.0 229.8 158.7 219.5 159.0 212.6 158.55 Q211.65 158.35 210.5 157.8 L207.3 156.6 Q206.55 156.45 203.85 154.95 202.9 154.3 200.75 153.45 L197.05 151.5 Q194.75 150.25 193.1 149.7 L189.95 148.3 Q188.1 147.55 183.3 147.05 L183.1 147.0 183.05 146.8 174.6 147.3 171.6 147.85 166.7 148.2 158.8 148.0 150.75 146.0 148.1 145.2 144.6 144.5 140.9 144.0 Q139.95 147.05 139.2 147.05 L136.15 146.05 Q133.3 145.1 132.0 145.35 L131.85 145.25 131.85 145.0 Q129.4 146.35 122.85 149.1 120.45 150.15 117.0 151.0 L111.9 152.15 102.15 154.35 96.05 156.0 92.5 156.9 88.05 157.5 88.05 157.65 86.0 157.8 75.5 157.65 74.55 157.5 71.7 157.2 59.25 155.1 54.45 154.45 46.5 153.45 34.65 151.65 34.35 151.95 33.2 153.1 31.4 153.15 28.25 152.85 27.05 152.6 24.7 152.7 22.4 152.55 Q21.45 152.45 20.7 151.8 20.25 151.35 20.15 150.7 L20.1 150.05 19.1 149.7 17.25 149.4 14.0 148.8 Q13.0 148.7 12.7 147.9 L12.65 147.7 9.6 147.2 5.7 146.6 4.3 146.8 1.2 147.0 0.95 146.95 0.9 147.15 0.75 147.3 Q0.0 146.95 0.0 144.5 L0.2 143.55 0.45 142.95 Q0.7 142.75 1.5 142.95 L1.55 143.05 3.5 142.85 14.3 142.55 15.0 142.35 15.55 141.9 15.6 141.85 Q15.25 141.0 13.85 140.35 L9.75 138.95 6.15 137.55 4.95 136.6 4.45 136.1 4.5 136.35 4.25 136.55 Q3.95 136.25 3.95 135.8 3.95 135.35 4.25 134.65 4.5 133.95 4.85 133.65 L5.1 133.45 6.5 133.5 Q8.0 133.7 9.45 134.4 13.3 135.3 15.05 135.95 L16.45 136.45 18.45 136.8 24.3 136.95 24.35 136.35 24.35 136.05 22.05 133.9 Q20.4 131.75 20.4 130.15 20.4 129.05 21.1 128.6 21.9 128.0 23.1 129.9 L25.1 131.55 25.85 131.95 26.85 132.3 Q28.7 132.25 28.7 133.05 L31.0 136.65 Q32.75 138.85 35.4 140.15 L36.35 140.4 Q39.0 140.6 42.1 140.45 55.45 140.45 63.75 138.9 L65.8 138.35 65.4 138.3 65.95 138.0 67.35 137.9 69.3 137.6 70.85 137.5 72.6 137.25 76.25 136.7 82.25 136.2 Q82.05 135.95 86.15 136.15 90.4 136.3 91.55 136.85 L95.25 137.75 96.1 137.3 98.55 136.05 103.05 133.95 Q105.1 133.0 108.95 131.7 L111.4 130.4 Q111.9 130.1 112.25 129.95 L112.2 129.75 112.2 129.7 Q109.95 130.0 109.35 130.35 107.7 131.4 105.65 131.75 L102.9 131.9 100.3 131.95 Q100.75 131.85 100.35 131.6 L99.9 131.4 99.4 131.05 Q98.65 130.7 98.3 130.15 L97.7 128.4 97.05 127.55 95.4 127.05 94.7 126.25 94.3 125.95 93.9 125.25 93.9 123.95 Q93.85 123.3 92.25 122.9 L91.9 122.55 91.55 122.3 91.05 120.5 90.35 119.2 89.75 119.0 89.75 118.95 89.6 118.95 89.3 118.95 87.65 118.65 Q86.85 118.25 86.85 116.75 86.85 115.1 87.75 113.1 L88.65 110.5 Q88.65 110.1 87.25 107.7 85.85 105.3 85.85 103.5 85.85 102.05 86.25 100.45 L84.75 100.7 83.2 100.45 81.15 99.8 81.15 99.45 82.35 99.6 84.3 99.2 84.3 99.15 Q80.6 98.65 79.8 96.5 L79.8 96.45 79.85 96.15 80.55 96.55 82.25 96.75 83.1 96.65 Q82.2 95.7 81.7 94.3 L80.85 91.8 80.85 91.0 Q80.9 90.9 81.1 90.9 L82.1 91.6 Q83.2 92.4 84.15 92.7 83.75 91.1 83.75 89.45 83.75 88.9 84.15 88.8 L84.7 89.7 Q84.95 90.3 85.95 90.45 L85.55 89.3 85.25 87.85 85.55 86.2 Q85.75 85.15 85.4 84.5 85.85 84.3 86.95 85.45 L88.4 86.9 88.5 84.9 Q89.25 84.95 91.0 86.25 L90.9 85.85 90.9 85.8 90.9 85.65 Q90.95 85.5 91.2 85.5 L91.55 85.65 91.85 85.8 Q92.3 85.8 92.5 85.5 L92.85 85.05 92.95 85.1 93.65 84.15 94.5 82.95 Q94.95 82.6 95.9 82.7 L96.15 82.55 Q96.3 82.35 95.9 82.35 L94.8 82.7 93.95 82.65 93.9 82.2 Q93.9 81.9 95.0 81.65 L98.15 80.7 98.7 80.3 Q99.0 80.05 99.65 79.85 L101.4 79.2 Q101.25 78.95 100.25 78.6 L100.25 78.15 Q100.35 77.9 100.7 77.85 L103.4 77.55 104.55 77.4 107.85 76.8 Q108.2 76.8 108.45 77.1 L108.6 76.85 M300.75 2.65 Q300.1 3.3 299.45 4.9 L298.6 7.05 297.7 9.35 Q296.95 10.8 295.75 13.75 L293.7 18.2 289.25 27.4 Q285.75 34.8 285.75 35.85 L286.05 36.65 286.1 36.7 286.95 37.7 287.9 38.55 288.2 36.65 Q288.4 35.55 289.3 35.05 L290.8 32.05 Q293.95 25.85 295.35 21.9 L296.9 17.95 298.2 14.0 299.85 10.2 301.1 7.7 301.4 7.3 302.25 5.75 303.05 4.4 Q303.2 3.9 303.9 3.05 L304.05 2.9 304.8 1.5 305.4 0.65 304.4 0.55 Q303.15 0.55 301.9 1.55 301.2 2.05 300.75 2.65 M295.3 36.5 L292.95 37.5 295.4 38.25 295.65 40.8 297.05 38.65 299.6 39.25 298.0 37.2 299.35 35.0 296.9 35.85 295.2 33.95 295.3 36.5 M283.5 88.9 L283.45 88.9 283.4 89.0 283.5 88.9 M389.6 98.2 L392.0 97.25 389.55 96.45 389.4 93.9 388.45 95.3 388.7 96.7 Q388.9 98.05 389.65 100.0 L389.6 98.2 M393.25 84.65 L393.35 84.75 392.2 85.95 Q399.1 93.6 403.8 98.15 407.65 101.95 410.8 104.45 414.65 107.6 419.0 110.1 419.55 110.1 420.5 110.95 L422.45 112.65 422.85 113.15 423.45 112.55 Q424.25 111.8 424.25 111.15 424.25 109.45 417.5 105.3 409.05 100.1 406.6 97.7 L403.4 94.3 400.15 90.95 396.95 87.55 Q394.55 84.6 393.4 84.6 L393.2 84.65 393.25 84.65 M244.95 150.2 L244.7 150.15 244.7 150.2 244.95 150.2" fill="#ffffff" fill-rule="evenodd" stroke="none"/>
    <path d="M313.15 31.85 L313.2 31.7 313.3 32.05 313.15 31.85 M295.3 36.5 L295.2 33.95 296.9 35.85 299.35 35.0 298.0 37.2 299.6 39.25 297.05 38.65 295.65 40.8 295.4 38.25 292.95 37.5 295.3 36.5 M389.6 98.2 L389.65 100.0 Q388.9 98.05 388.7 96.7 L388.45 95.3 389.4 93.9 389.55 96.45 392.0 97.25 389.6 98.2" fill="#000000" fill-rule="evenodd" stroke="none"/>
  </g>
</svg>
