<?xml version="1.0" encoding="UTF-8" standalone="no"?>
<svg xmlns:xlink="http://www.w3.org/1999/xlink" height="232.0px" width="472.9px" xmlns="http://www.w3.org/2000/svg">
  <g transform="matrix(1.0, 0.0, 0.0, 1.0, 0.0, 0.0)">
    <path d="M201.25 22.0 Q201.85 21.6 204.75 21.45 207.85 21.35 209.0 20.75 L210.95 19.25 212.55 18.05 Q218.25 16.1 223.75 17.05 228.1 17.8 229.8 19.55 233.5 21.75 235.7 23.25 L237.0 22.75 Q241.1 22.4 254.0 25.5 258.15 27.55 262.8 30.1 263.95 28.7 268.05 24.8 273.8 19.4 275.05 18.75 276.6 17.9 286.1 13.95 294.0 10.7 296.55 8.55 298.55 6.85 303.75 6.25 L310.0 5.25 315.8 1.3 Q319.15 -1.3 325.7 1.35 330.3 3.2 332.0 5.55 340.35 5.8 344.2 9.15 345.3 9.7 345.8 10.8 L346.0 11.3 346.2 11.65 Q348.1 15.1 348.5 22.05 348.2 30.1 350.0 42.75 L352.3 63.05 Q353.7 73.15 356.7 80.55 361.45 86.4 368.8 97.0 371.25 100.15 377.55 106.4 L387.3 116.25 Q391.35 120.5 399.1 126.2 406.95 132.0 414.0 135.75 421.9 139.95 428.3 145.6 L429.05 146.25 434.15 149.7 Q441.1 154.4 445.6 158.3 446.9 158.65 449.05 160.25 L456.5 166.25 463.95 171.4 468.9 175.2 Q469.3 174.85 470.15 174.95 471.85 175.15 472.8 176.5 L472.9 180.9 Q472.9 187.85 469.35 195.45 464.7 205.45 456.3 208.75 L460.1 211.1 Q461.4 212.15 461.4 213.35 461.4 213.95 458.5 217.65 454.85 222.2 454.05 223.5 454.15 225.95 452.55 228.0 449.45 232.0 439.65 232.0 422.1 232.0 401.9 225.95 395.5 224.0 389.05 221.55 L382.75 219.05 Q366.2 213.25 356.5 205.95 348.9 200.15 344.5 192.5 L344.5 188.55 Q342.15 184.3 339.2 177.0 335.3 167.3 333.5 164.05 330.85 159.25 326.85 149.3 323.25 140.4 321.55 137.8 L312.8 124.3 Q307.3 116.1 303.0 112.05 293.1 102.75 290.1 99.45 286.05 95.05 283.75 91.15 L282.75 91.8 Q278.75 94.35 275.25 99.65 L269.5 108.3 268.55 108.3 Q266.25 110.25 260.45 112.65 L249.5 116.75 244.35 119.4 Q241.9 120.5 236.3 121.8 234.25 122.3 229.5 124.1 L223.05 126.5 Q211.75 130.3 201.55 138.9 199.15 140.9 187.0 153.05 159.45 180.5 136.65 208.0 L138.55 208.35 Q139.6 208.65 139.8 209.0 L139.9 208.8 140.0 209.5 Q140.0 210.4 138.9 210.7 L134.55 212.0 133.55 212.6 133.35 212.75 132.55 213.3 131.7 213.75 131.55 213.8 110.75 214.0 54.05 212.75 49.9 212.25 46.05 211.55 38.75 210.8 28.55 209.25 9.5 206.65 Q0.0 205.15 0.0 200.9 L0.05 199.8 1.85 199.9 2.85 200.7 7.05 196.7 Q12.2 192.15 16.0 189.8 L20.65 187.6 Q24.7 185.7 25.75 185.05 L30.1 182.0 Q32.7 180.1 34.25 179.55 38.1 178.15 43.55 174.5 49.0 170.85 52.55 169.55 57.0 167.9 60.75 165.9 63.9 164.2 69.55 160.55 116.1 130.4 133.2 110.05 L133.2 110.0 Q134.45 109.75 136.15 107.0 L137.4 104.65 137.75 104.75 138.45 104.45 138.75 103.75 137.85 99.7 136.75 95.0 135.75 90.5 134.6 86.0 132.95 80.2 133.5 76.25 Q133.6 75.55 134.25 73.3 L135.25 72.75 Q138.95 71.05 145.25 70.05 151.7 69.1 153.6 68.25 156.2 67.1 162.45 65.65 170.55 57.15 172.8 54.05 L177.2 47.2 Q179.7 43.0 181.55 40.55 183.35 38.15 187.75 34.0 188.1 33.65 189.85 33.1 191.6 32.55 192.25 32.0 L195.05 28.55 197.65 25.2 Q199.2 23.35 201.25 22.0 M218.75 54.5 Q217.35 53.45 217.0 53.0 L214.9 51.25 213.0 49.4 Q211.55 46.9 210.5 45.85 210.7 49.8 216.4 54.85 218.2 56.45 220.05 59.15 L223.0 63.5 226.6 67.9 230.25 72.35 Q231.1 73.5 231.5 76.8 231.85 79.7 233.6 81.25 235.05 79.7 235.3 78.75 L235.4 76.65 Q235.4 74.65 234.15 72.75 L230.75 68.75 Q228.6 66.45 224.4 60.85 L221.25 56.9 218.75 54.5 M236.75 42.5 Q230.05 38.05 228.5 36.0 L228.5 36.1 229.2 38.45 Q229.7 39.95 230.35 40.75 231.0 41.55 233.15 42.85 L236.0 44.65 Q238.3 46.45 240.2 49.05 L243.35 53.75 247.1 58.3 Q249.75 61.4 250.35 63.15 L252.0 67.75 Q252.85 70.55 252.5 72.35 253.45 71.75 254.1 70.15 254.65 68.7 254.65 67.5 254.65 64.8 250.5 58.45 247.5 53.9 244.65 50.6 L241.15 46.35 Q239.2 44.2 236.75 42.5 M252.25 38.35 L253.35 41.95 253.85 43.65 254.35 45.25 Q254.75 47.8 255.45 48.35 L255.3 48.4 260.25 49.25 266.25 50.0 Q263.75 46.25 259.0 41.4 L252.4 35.2 251.85 34.75 251.3 34.3 251.55 34.85 251.35 35.4 252.25 38.35 M279.35 41.4 L279.8 43.75 279.9 44.1 279.85 44.45 279.9 45.1 Q280.0 45.8 280.3 45.95 L282.15 46.9 282.45 47.0 Q283.95 48.7 285.1 51.0 L285.3 50.6 285.45 50.75 285.7 49.9 286.0 49.1 Q286.0 47.35 285.4 46.85 284.2 43.8 279.7 41.55 L279.35 41.4 M282.0 49.0 Q281.65 48.5 281.05 48.8 L280.35 49.8 279.55 51.55 Q278.1 55.25 278.1 56.9 L278.15 57.35 Q277.8 58.7 277.8 60.25 L277.85 62.8 Q278.05 63.8 279.55 66.25 279.95 66.9 282.55 68.2 285.2 69.55 286.0 70.55 L287.45 73.55 288.3 76.55 Q289.0 80.25 289.0 82.15 L288.95 84.15 289.4 83.65 Q291.8 80.8 291.8 76.1 291.8 73.35 289.2 69.4 286.4 65.1 286.0 62.5 L285.4 59.15 285.3 58.45 285.5 56.75 284.8 54.75 284.25 53.55 284.35 53.35 284.15 52.6 284.3 52.25 Q283.5 51.65 282.8 50.6 L282.35 49.75 282.0 49.0 M328.0 5.0 Q324.25 2.2 321.0 2.05 L321.95 2.8 Q322.9 3.65 324.3 5.8 325.0 8.55 325.0 12.0 L324.85 13.2 324.55 13.75 Q325.0 14.0 323.75 14.0 L318.55 11.4 Q312.75 8.75 309.25 8.75 L308.5 8.9 Q308.25 9.15 307.55 9.25 309.55 11.2 311.35 15.55 L313.55 20.9 Q314.6 22.3 315.2 24.25 L316.25 29.3 317.05 34.4 Q317.6 37.3 318.75 39.5 L324.35 49.5 330.0 59.55 Q330.05 60.35 330.05 59.1 L328.6 54.25 326.5 48.55 324.3 43.45 Q323.15 40.55 323.0 38.5 322.4 32.3 321.3 28.3 L319.6 23.3 Q318.5 20.05 318.05 17.8 321.25 18.3 323.7 21.75 L327.75 27.5 Q329.95 29.6 331.55 33.25 L333.8 39.05 Q337.35 47.05 338.3 62.0 L338.65 73.6 Q339.4 80.6 343.55 85.25 348.8 91.05 356.1 98.0 362.8 104.35 366.05 106.8 372.45 111.65 376.9 118.65 L383.8 130.05 Q387.3 134.95 393.15 141.0 399.75 147.8 405.9 152.5 420.65 163.7 431.45 175.55 441.1 186.15 448.65 198.55 L443.55 193.0 444.0 193.7 Q447.35 198.7 452.4 207.6 453.85 206.3 456.4 204.55 463.35 199.75 465.65 195.55 467.1 192.9 468.45 188.65 469.9 184.0 469.9 181.35 469.9 180.45 469.15 178.5 L468.6 177.05 Q465.25 175.95 457.45 170.35 450.8 165.6 445.9 161.35 444.85 161.05 444.45 160.7 444.15 159.9 443.55 159.25 L443.05 158.75 439.5 156.05 438.4 155.3 438.25 155.3 Q432.7 152.55 425.35 146.5 417.85 140.35 410.25 136.5 407.35 135.05 403.45 132.05 L396.75 127.0 Q391.5 123.4 385.5 117.55 L375.75 107.9 Q370.05 102.05 367.5 98.5 L360.45 88.75 357.2 83.9 Q353.8 80.15 352.15 74.65 351.55 72.6 350.0 64.5 349.35 61.15 348.9 54.7 L348.0 44.55 Q346.3 33.15 346.5 24.75 346.6 20.25 345.0 15.0 344.65 13.9 343.75 12.45 L342.3 10.5 342.25 10.5 Q339.1 10.5 338.65 12.8 338.4 14.0 338.8 15.5 339.55 15.8 338.3 15.8 337.15 15.8 333.5 11.25 330.35 7.3 330.1 6.6 L328.0 5.0 M197.6 68.75 Q194.7 64.7 193.95 63.45 L193.5 62.5 Q193.0 62.35 192.65 62.5 L192.75 63.0 144.45 79.3 149.25 78.9 Q152.3 78.55 154.55 78.9 L158.45 79.15 172.35 77.15 181.95 77.55 184.35 77.55 188.8 77.1 196.65 76.45 197.7 76.65 201.35 76.5 205.0 76.9 202.8 74.9 Q199.55 71.65 197.6 68.75" fill="#000000" fill-rule="evenodd" stroke="none"/>
    <path d="M279.35 41.4 L279.7 41.55 Q284.2 43.8 285.4 46.85 286.0 47.35 286.0 49.1 L285.7 49.9 285.45 50.75 285.3 50.6 285.1 51.0 Q283.95 48.7 282.45 47.0 L282.15 46.9 280.3 45.95 Q280.0 45.8 279.9 45.1 L279.85 44.45 279.9 44.1 279.8 43.75 279.35 41.4 M252.25 38.35 L251.35 35.4 251.55 34.85 251.3 34.3 251.85 34.75 252.4 35.2 259.0 41.4 Q263.75 46.25 266.25 50.0 L260.25 49.25 255.3 48.4 255.45 48.35 Q254.75 47.8 254.35 45.25 L253.85 43.65 253.35 41.95 252.25 38.35 M236.75 42.5 Q239.2 44.2 241.15 46.35 L244.65 50.6 Q247.5 53.9 250.5 58.45 254.65 64.8 254.65 67.5 254.65 68.7 254.1 70.15 253.45 71.75 252.5 72.35 252.85 70.55 252.0 67.75 L250.35 63.15 Q249.75 61.4 247.1 58.3 L243.35 53.75 240.2 49.05 Q238.3 46.45 236.0 44.65 L233.15 42.85 Q231.0 41.55 230.35 40.75 229.7 39.95 229.2 38.45 L228.5 36.1 228.5 36.0 Q230.05 38.05 236.75 42.5 M218.75 54.5 L221.25 56.9 224.4 60.85 Q228.6 66.45 230.75 68.75 L234.15 72.75 Q235.4 74.65 235.4 76.65 L235.3 78.75 Q235.05 79.7 233.6 81.25 231.85 79.7 231.5 76.8 231.1 73.5 230.25 72.35 L226.6 67.9 223.0 63.5 220.05 59.15 Q218.2 56.45 216.4 54.85 210.7 49.8 210.5 45.85 211.55 46.9 213.0 49.4 L214.9 51.25 217.0 53.0 Q217.35 53.45 218.75 54.5 M282.0 49.0 L282.35 49.75 282.8 50.6 Q283.5 51.65 284.3 52.25 L284.15 52.6 284.35 53.35 284.25 53.55 284.8 54.75 285.5 56.75 285.3 58.45 285.4 59.15 286.0 62.5 Q286.4 65.1 289.2 69.4 291.8 73.35 291.8 76.1 291.8 80.8 289.4 83.65 L288.95 84.15 289.0 82.15 Q289.0 80.25 288.3 76.55 L287.45 73.55 286.0 70.55 Q285.2 69.55 282.55 68.2 279.95 66.9 279.55 66.25 278.05 63.8 277.85 62.8 L277.8 60.25 Q277.8 58.7 278.15 57.35 L278.1 56.9 Q278.1 55.25 279.55 51.55 L280.35 49.8 281.05 48.8 Q281.65 48.5 282.0 49.0 M328.0 5.0 L330.1 6.6 Q330.35 7.3 333.5 11.25 337.15 15.8 338.3 15.8 339.55 15.8 338.8 15.5 338.4 14.0 338.65 12.8 339.1 10.5 342.25 10.5 L342.3 10.5 343.75 12.45 Q344.65 13.9 345.0 15.0 346.6 20.25 346.5 24.75 346.3 33.15 348.0 44.55 L348.9 54.7 Q349.35 61.15 350.0 64.5 351.55 72.6 352.15 74.65 353.8 80.15 357.2 83.9 L360.45 88.75 367.5 98.5 Q370.05 102.05 375.75 107.9 L385.5 117.55 Q391.5 123.4 396.75 127.0 L403.45 132.05 Q407.35 135.05 410.25 136.5 417.85 140.35 425.35 146.5 432.7 152.55 438.25 155.3 L438.4 155.3 439.5 156.05 443.05 158.75 443.55 159.25 Q444.15 159.9 444.45 160.7 444.85 161.05 445.9 161.35 450.8 165.6 457.45 170.35 465.25 175.95 468.6 177.05 L469.15 178.5 Q469.9 180.45 469.9 181.35 469.9 184.0 468.45 188.65 467.1 192.9 465.65 195.55 463.35 199.75 456.4 204.55 453.85 206.3 452.4 207.6 447.35 198.7 444.0 193.7 L443.55 193.0 448.65 198.55 Q441.1 186.15 431.45 175.55 420.65 163.7 405.9 152.5 399.75 147.8 393.15 141.0 387.3 134.95 383.8 130.05 L376.9 118.65 Q372.45 111.65 366.05 106.8 362.8 104.35 356.1 98.0 348.8 91.05 343.55 85.25 339.4 80.6 338.65 73.6 L338.3 62.0 Q337.35 47.05 333.8 39.05 L331.55 33.25 Q329.95 29.6 327.75 27.5 L323.7 21.75 Q321.25 18.3 318.05 17.8 318.5 20.05 319.6 23.3 L321.3 28.3 Q322.4 32.3 323.0 38.5 323.15 40.55 324.3 43.45 L326.5 48.55 328.6 54.25 330.05 59.1 Q330.05 60.35 330.0 59.55 L324.35 49.5 318.75 39.5 Q317.6 37.3 317.05 34.4 L316.25 29.3 315.2 24.25 Q314.6 22.3 313.55 20.9 L311.35 15.55 Q309.55 11.2 307.55 9.25 308.25 9.15 308.5 8.9 L309.25 8.75 Q312.75 8.75 318.55 11.4 L323.75 14.0 Q325.0 14.0 324.55 13.75 L324.85 13.2 325.0 12.0 Q325.0 8.55 324.3 5.8 322.9 3.65 321.95 2.8 L321.0 2.05 Q324.25 2.2 328.0 5.0" fill="#6f693c" fill-rule="evenodd" stroke="none"/>
    <path d="M197.6 68.75 Q199.55 71.65 202.8 74.9 L205.0 76.9 201.35 76.5 197.7 76.65 196.65 76.45 188.8 77.1 184.35 77.55 181.95 77.55 172.35 77.15 158.45 79.15 154.55 78.9 Q152.3 78.55 149.25 78.9 L144.45 79.3 192.75 63.0 192.65 62.5 Q193.0 62.35 193.5 62.5 L193.95 63.45 Q194.7 64.7 197.6 68.75" fill="#484848" fill-rule="evenodd" stroke="none"/>
  </g>
</svg>
