<?xml version="1.0" encoding="UTF-8" standalone="no"?>
<svg xmlns:xlink="http://www.w3.org/1999/xlink" height="459.0px" width="742.95px" xmlns="http://www.w3.org/2000/svg">
  <g transform="matrix(1.0, 0.0, 0.0, 1.0, 0.0, 54.05)">
    <path d="M1.6 219.3 L0.0 -54.05 230.15 -38.9 Q88.55 58.6 41.75 215.4 L1.6 219.3 M600.8 -50.95 L742.95 -40.05 742.95 272.0 726.5 265.95 593.95 217.0 594.0 216.0 594.85 198.0 600.8 74.85 600.8 -50.95" fill="#000000" fill-rule="evenodd" stroke="none"/>
    <path d="M1.6 219.3 L41.75 215.4 224.55 197.55 2.25 300.85 1.6 219.3 M726.5 265.95 L714.95 381.95 412.8 391.7 594.0 216.0 593.95 217.0 726.5 265.95" fill="#1a1a1a" fill-rule="evenodd" stroke="none"/>
    <path d="M230.15 -38.9 L600.8 -50.95 600.8 74.85 Q387.6 23.25 230.15 171.5 L230.15 -38.9 M412.8 391.7 L3.0 404.95 2.25 300.85 224.55 197.55 230.0 197.0 230.15 172.1 594.85 198.0 594.0 216.0 412.8 391.7" fill="#222222" fill-rule="evenodd" stroke="none"/>
    <path d="M600.8 74.85 L594.85 198.0 230.15 172.1 230.15 171.5 Q387.6 23.25 600.8 74.85" fill="#333333" fill-rule="evenodd" stroke="none"/>
    <path d="M41.75 215.4 Q88.55 58.6 230.15 -38.9 L230.15 171.5 230.15 172.1 230.0 197.0 224.55 197.55 41.75 215.4" fill="#151515" fill-rule="evenodd" stroke="none"/>
  </g>
</svg>
