<?xml version="1.0" encoding="UTF-8" standalone="no"?>
<svg xmlns:xlink="http://www.w3.org/1999/xlink" height="334.0px" width="652.8px" xmlns="http://www.w3.org/2000/svg">
  <g transform="matrix(1.0, 0.0, 0.0, 1.0, 0.0, 0.0)">
    <path d="M338.05 0.3 Q332.25 8.8 327.05 17.05 319.05 29.8 312.45 42.0 307.95 50.25 304.15 58.3 300.45 66.05 297.4 73.55 L297.1 74.25 297.1 74.35 Q292.75 85.0 289.7 95.15 284.0 114.05 282.8 131.15 281.45 149.1 285.05 165.1 286.25 170.65 288.1 176.0 291.5 185.8 296.9 194.8 301.95 203.15 308.75 210.85 L308.95 211.05 Q316.05 219.0 325.1 226.25 331.8 231.55 339.55 236.5 L339.8 236.65 Q353.05 245.0 369.45 252.15 L369.75 252.3 Q382.35 257.75 396.75 262.45 L410.55 266.7 Q428.2 271.75 448.25 275.8 L466.75 279.25 Q543.7 292.4 652.8 292.4 L652.8 334.0 0.0 334.0 0.75 333.25 2.6 0.0 338.05 0.0 338.05 0.3" fill="#000000" fill-rule="evenodd" stroke="none"/>
  </g>
</svg>
