<?xml version="1.0" encoding="UTF-8" standalone="no"?>
<svg xmlns:xlink="http://www.w3.org/1999/xlink" height="300.5px" width="242.7px" xmlns="http://www.w3.org/2000/svg">
  <g transform="matrix(1.0, 0.0, 0.0, 1.0, 4.6, 143.65)">
    <path d="M95.75 -113.2 L96.25 -113.0 96.75 -112.65 97.2 -112.15 97.3 -111.95 97.45 -111.9 97.75 -112.0 98.25 -112.05 98.75 -112.0 99.7 -110.95 100.45 -109.85 101.55 -108.6 102.2 -107.95 102.35 -108.0 102.6 -108.15 103.0 -108.3 103.55 -107.9 104.2 -107.25 104.6 -106.65 104.65 -106.5 104.55 -106.2 104.5 -106.15 104.25 -105.8 104.2 -105.3 104.2 -104.75 104.1 -104.6 103.8 -104.2 103.6 -104.1 102.8 -104.25 Q102.55 -104.3 102.35 -104.5 L102.15 -104.7 102.0 -104.55 101.9 -104.4 101.75 -104.2 101.0 -103.85 100.55 -104.05 100.05 -104.4 99.7 -104.75 99.5 -104.95 99.45 -104.8 99.25 -104.45 98.75 -104.0 97.85 -103.6 97.9 -103.5 97.95 -103.3 98.05 -102.95 98.2 -102.6 98.35 -102.0 98.3 -101.8 98.25 -101.6 Q96.9 -101.1 96.25 -102.7 L95.3 -105.05 93.9 -107.35 Q93.4 -108.0 93.7 -108.75 L94.05 -109.1 94.75 -109.3 95.95 -108.8 96.0 -108.8 95.55 -109.55 95.05 -110.5 94.7 -111.3 Q94.5 -111.8 94.65 -112.35 L95.0 -112.95 95.25 -113.05 95.4 -113.1 95.75 -113.15 95.75 -113.2" fill="#000000" fill-rule="evenodd" stroke="none"/>
    <path d="M113.1 -125.3 L113.5 -125.05 113.85 -124.75 Q114.25 -124.5 113.95 -124.8 L113.85 -124.9 113.85 -125.0 113.9 -125.1 113.95 -125.15 113.95 -125.2 114.1 -125.2 114.25 -125.25 116.25 -123.25 Q117.45 -122.2 118.95 -121.8 L119.0 -121.8 120.25 -121.55 Q120.85 -121.5 121.3 -121.05 L121.25 -121.05 121.05 -120.95 119.55 -120.75 Q119.25 -120.35 118.65 -120.55 L116.35 -120.65 115.75 -120.4 114.85 -120.5 114.55 -120.7 114.25 -120.7 113.8 -120.65 Q113.3 -120.55 112.85 -120.9 L112.8 -121.05 112.8 -121.1 113.0 -121.25 113.1 -121.3 113.15 -121.4 113.2 -121.45 113.35 -121.5 Q113.5 -121.4 113.6 -121.4 L113.85 -121.45 114.0 -121.45 114.4 -121.4 113.9 -122.0 Q113.7 -122.15 113.9 -122.25 L114.1 -122.3 114.4 -122.1 114.75 -121.8 114.8 -121.75 114.8 -121.85 115.2 -122.35 115.6 -122.45 115.6 -122.5 Q115.9 -122.25 116.25 -122.15 L116.7 -122.0 116.35 -122.2 116.2 -122.3 Q115.85 -122.5 115.45 -122.65 L114.85 -123.0 114.55 -123.1 Q113.95 -123.35 113.9 -123.65 L113.45 -124.0 Q112.6 -124.8 113.1 -125.3 M95.15 -114.9 L95.75 -115.0 96.65 -114.25 96.65 -114.9 Q96.75 -116.15 98.0 -116.25 L100.05 -115.9 Q101.25 -115.3 101.9 -114.25 L102.95 -112.25 103.1 -111.9 102.85 -111.5 102.55 -111.2 102.0 -110.9 101.5 -110.75 100.85 -110.65 100.65 -109.15 Q100.7 -108.15 101.1 -107.25 L101.8 -105.0 102.0 -104.35 102.7 -103.85 102.75 -104.0 102.85 -104.2 102.95 -104.35 Q103.3 -104.75 103.8 -104.8 L103.9 -105.15 104.1 -105.7 104.35 -106.05 Q104.65 -106.55 105.25 -106.55 L105.7 -106.4 106.3 -106.1 106.75 -106.0 107.25 -105.95 107.5 -105.75 107.6 -105.55 107.7 -105.35 108.2 -105.6 109.25 -105.75 110.0 -105.45 110.15 -105.3 Q109.3 -103.4 109.0 -101.15 L109.05 -101.3 110.35 -103.55 109.2 -101.2 108.95 -100.7 108.85 -100.05 108.8 -99.0 109.5 -100.1 109.8 -101.3 109.2 -100.2 110.25 -102.9 Q110.7 -104.15 111.55 -105.05 L111.95 -105.55 112.35 -105.95 111.2 -107.7 110.8 -108.4 Q111.7 -107.9 112.25 -106.8 L112.55 -106.2 112.7 -106.35 111.9 -107.55 111.65 -108.1 112.9 -106.6 113.1 -106.85 113.15 -106.85 111.9 -108.6 111.5 -109.05 111.55 -109.15 111.65 -109.15 111.8 -109.15 112.05 -109.15 112.1 -109.15 112.3 -109.35 112.15 -109.55 Q111.9 -109.8 112.1 -109.95 L112.2 -109.85 112.25 -109.9 112.4 -109.9 112.8 -109.25 114.55 -107.4 116.85 -104.45 118.55 -101.8 Q117.5 -102.1 116.7 -103.2 L116.35 -103.65 115.3 -104.7 115.25 -104.55 115.9 -103.55 117.2 -101.55 117.45 -101.05 Q117.05 -100.95 116.8 -101.5 L116.35 -102.25 115.8 -103.0 115.6 -103.3 115.95 -102.55 116.4 -101.7 117.0 -100.75 117.35 -100.1 116.4 -101.1 115.65 -102.25 114.95 -103.25 114.9 -103.1 115.25 -102.4 116.15 -100.7 117.3 -98.85 117.65 -98.05 Q117.3 -98.1 116.9 -98.85 L116.3 -99.9 115.6 -101.05 115.3 -101.5 116.3 -99.65 117.65 -97.4 Q118.35 -96.2 119.2 -95.1 L119.55 -94.5 Q117.85 -96.3 116.65 -98.55 L114.65 -102.1 114.05 -98.75 Q113.5 -94.95 114.5 -91.3 115.45 -88.0 117.65 -85.35 114.9 -88.05 114.1 -91.9 113.35 -95.4 113.85 -99.0 L114.5 -102.4 114.2 -102.9 Q113.15 -100.9 112.6 -98.65 111.75 -95.5 112.35 -92.3 L112.9 -90.05 115.4 -86.2 Q116.0 -85.95 116.65 -85.65 118.0 -85.0 119.65 -84.85 L120.95 -84.8 Q123.5 -85.35 126.1 -86.9 128.1 -88.05 129.5 -89.95 131.65 -92.8 133.35 -95.9 L133.0 -96.75 131.5 -99.8 Q130.55 -101.35 129.55 -101.5 129.3 -101.45 129.4 -101.75 L129.6 -102.1 129.75 -102.55 129.8 -102.75 129.05 -102.4 129.05 -102.0 129.0 -102.4 128.7 -102.2 Q127.95 -101.7 127.25 -101.9 L128.95 -103.75 128.95 -104.8 128.75 -105.0 Q128.6 -105.15 128.8 -105.15 L128.95 -105.0 129.2 -107.4 129.25 -107.5 129.05 -107.65 Q128.95 -107.8 129.1 -107.8 L129.25 -107.7 129.55 -109.95 128.7 -110.4 128.8 -110.4 129.35 -110.2 129.6 -110.15 129.7 -112.85 129.25 -112.9 Q128.65 -112.9 128.8 -113.35 L128.85 -113.4 Q128.85 -113.1 129.15 -113.1 L129.65 -113.0 129.7 -113.0 129.75 -115.7 129.25 -115.6 129.1 -115.55 128.8 -115.6 128.8 -115.65 128.85 -115.65 129.1 -115.75 129.2 -115.8 129.3 -115.8 129.35 -115.85 129.75 -115.8 129.6 -117.65 129.85 -115.8 130.25 -115.75 130.6 -115.65 130.55 -115.6 129.85 -115.7 129.95 -112.9 130.15 -112.85 130.55 -112.75 129.95 -112.75 129.9 -112.2 129.75 -110.1 130.0 -109.95 130.05 -109.9 129.7 -109.9 129.45 -107.6 129.75 -107.45 130.1 -107.25 130.3 -107.05 129.85 -107.25 129.6 -107.35 129.4 -107.4 129.3 -106.75 129.1 -104.9 129.2 -104.85 129.35 -104.75 129.55 -104.55 129.3 -104.65 129.1 -104.75 129.1 -104.3 129.2 -104.1 129.2 -104.05 129.1 -104.1 129.05 -103.9 129.2 -104.0 131.95 -106.35 132.55 -106.65 132.15 -105.95 131.75 -105.35 131.3 -104.7 Q131.4 -103.8 131.8 -102.95 L132.4 -101.15 132.8 -99.15 132.8 -99.0 Q132.3 -99.25 132.3 -100.0 L132.15 -101.2 131.8 -102.5 131.7 -102.8 131.75 -102.4 131.85 -102.05 131.95 -101.6 132.0 -101.25 Q131.7 -101.4 131.65 -101.85 L131.55 -102.6 131.35 -103.35 131.3 -103.55 Q130.8 -103.7 130.3 -103.25 L129.85 -102.5 129.75 -102.0 Q131.05 -100.85 131.95 -99.25 L133.05 -97.1 133.05 -97.25 133.25 -97.6 Q133.6 -98.15 134.25 -98.2 L134.55 -98.2 134.75 -98.6 Q135.45 -100.1 136.9 -101.0 136.85 -101.65 137.25 -102.35 L138.1 -101.65 138.3 -102.05 138.75 -102.6 138.75 -102.8 Q138.15 -105.05 140.5 -106.45 141.85 -107.2 143.35 -107.55 L145.8 -108.1 145.8 -108.2 145.8 -108.35 145.8 -108.55 145.85 -108.75 145.9 -108.95 146.05 -109.1 146.35 -109.25 146.75 -109.4 146.75 -109.45 147.95 -108.6 148.7 -108.8 148.6 -109.4 148.5 -109.85 147.95 -110.5 147.5 -111.15 147.55 -111.2 147.5 -111.25 Q147.15 -111.9 147.6 -112.5 L147.7 -112.65 147.75 -113.0 Q147.8 -114.25 148.45 -115.35 149.25 -116.65 150.45 -117.05 L150.5 -117.15 Q152.25 -116.35 151.35 -114.55 L150.7 -112.95 153.75 -112.9 Q155.35 -112.9 156.05 -111.6 L156.2 -111.25 156.15 -111.05 156.0 -110.7 155.6 -110.1 154.15 -108.95 153.65 -108.6 153.6 -108.55 Q155.35 -108.85 156.9 -108.15 157.75 -107.75 157.95 -106.8 L157.95 -106.65 157.9 -106.45 157.8 -106.25 157.7 -106.05 157.55 -105.9 157.25 -105.5 157.5 -105.45 157.75 -105.4 158.25 -105.3 158.55 -105.1 158.7 -104.95 158.8 -104.75 158.9 -104.55 158.95 -104.35 158.95 -104.2 158.9 -104.0 158.75 -103.6 158.75 -103.55 Q158.85 -103.45 159.0 -103.45 L159.5 -103.25 159.95 -102.9 160.35 -102.35 160.45 -102.0 160.4 -101.8 160.25 -101.45 159.85 -100.85 159.55 -100.55 Q160.7 -100.0 161.0 -98.5 L160.5 -97.95 159.75 -97.65 160.45 -97.5 Q161.55 -97.25 161.5 -96.15 161.4 -95.55 160.9 -95.35 L159.0 -95.5 158.65 -95.7 158.55 -95.55 159.0 -95.15 159.7 -94.65 Q160.85 -94.0 161.65 -92.9 162.1 -92.35 161.85 -91.65 L161.65 -91.25 161.45 -91.05 161.25 -90.95 161.1 -90.9 160.75 -90.85 159.85 -90.8 159.8 -90.7 159.95 -90.5 160.0 -90.3 160.05 -90.1 160.2 -89.75 160.4 -89.2 160.65 -88.45 160.7 -88.25 160.65 -88.05 160.5 -87.7 160.25 -87.3 Q159.8 -86.65 159.0 -86.55 L158.5 -86.45 158.55 -86.25 158.65 -86.05 158.65 -85.85 158.7 -85.5 158.7 -84.95 158.6 -84.35 158.65 -84.2 158.7 -84.0 158.1 -83.05 161.35 -77.55 168.45 -63.1 Q171.85 -55.85 175.6 -48.9 176.0 -48.15 175.4 -47.6 L175.5 -47.3 Q175.6 -46.95 175.3 -46.6 L175.0 -46.45 174.5 -46.35 174.0 -46.35 173.95 -46.3 174.0 -46.1 174.05 -45.95 174.15 -45.75 174.2 -45.55 174.15 -45.4 174.05 -45.0 173.95 -44.8 Q173.5 -44.25 172.75 -44.2 171.5 -44.2 170.65 -44.95 L170.2 -45.25 170.2 -44.75 170.4 -41.4 Q170.45 -40.75 170.15 -40.25 169.55 -41.7 169.1 -43.45 L168.75 -43.35 168.55 -43.3 168.8 -42.75 169.0 -42.35 169.15 -41.45 Q169.1 -40.85 168.65 -40.5 167.9 -40.1 167.2 -40.65 L166.2 -41.85 165.35 -43.15 Q165.1 -43.4 165.05 -42.95 L164.85 -42.6 164.7 -42.4 164.5 -42.25 164.0 -42.2 163.5 -42.25 Q162.55 -43.6 162.3 -45.4 162.05 -47.7 160.0 -49.1 156.9 -51.15 156.65 -54.25 L155.25 -54.75 154.25 -55.15 153.3 -55.85 152.8 -58.35 Q152.55 -59.65 151.75 -60.65 L149.75 -63.6 149.0 -64.85 148.2 -64.0 147.25 -62.2 146.65 -61.1 Q146.1 -60.05 145.0 -60.35 144.65 -60.55 144.55 -60.95 L144.45 -61.5 144.0 -62.5 Q143.7 -62.75 143.4 -62.3 143.9 -65.2 143.45 -69.25 143.1 -72.3 143.2 -75.35 L142.65 -74.15 141.9 -73.35 141.5 -73.35 141.0 -73.45 140.7 -73.65 140.5 -73.8 140.4 -74.0 Q140.25 -74.35 140.4 -74.7 L140.8 -76.45 141.1 -77.75 141.3 -78.7 141.35 -78.85 141.3 -79.45 141.25 -79.3 140.5 -77.4 139.55 -75.2 139.25 -74.45 138.25 -72.2 Q137.85 -71.4 137.0 -71.3 L136.5 -71.45 136.2 -71.65 136.0 -71.8 135.9 -72.0 135.8 -72.2 135.75 -72.3 135.65 -72.1 134.9 -70.45 133.95 -68.2 133.3 -67.4 133.0 -67.0 Q132.4 -65.55 131.0 -65.05 L130.5 -65.2 Q130.0 -65.4 129.75 -65.9 129.35 -66.75 129.6 -67.65 L129.95 -68.95 Q130.15 -69.5 129.95 -69.85 L129.7 -68.9 Q129.4 -66.85 128.5 -65.05 127.7 -63.4 126.25 -64.55 L125.9 -65.3 125.8 -66.65 125.8 -67.35 125.8 -67.95 125.8 -68.3 Q124.85 -68.5 124.8 -67.55 124.75 -66.75 124.05 -66.45 L123.15 -65.7 122.65 -65.2 122.25 -65.2 Q121.9 -65.3 121.55 -65.5 121.2 -65.65 121.15 -66.0 L120.95 -66.15 120.75 -66.3 120.4 -66.35 119.9 -66.45 119.8 -66.25 119.75 -66.05 119.65 -65.9 119.5 -65.7 119.25 -65.5 Q118.55 -65.2 118.0 -65.7 L116.95 -66.85 116.25 -67.2 116.35 -66.65 116.55 -65.5 116.55 -64.55 116.3 -64.0 116.05 -63.8 Q113.8 -63.75 113.4 -66.35 L112.75 -69.0 112.6 -69.6 Q111.7 -69.6 111.15 -70.45 L110.3 -71.7 109.55 -72.85 109.0 -73.7 109.15 -72.3 108.8 -72.45 108.75 -72.25 108.2 -71.7 108.25 -71.3 108.5 -70.55 108.7 -70.2 108.75 -69.8 108.55 -69.05 108.3 -68.9 108.1 -68.8 107.75 -68.75 107.25 -68.8 106.45 -69.7 106.05 -70.5 105.55 -71.45 105.15 -72.2 104.8 -72.75 104.65 -72.85 104.25 -72.9 103.75 -73.0 Q102.75 -73.8 102.4 -75.05 L101.35 -77.5 100.1 -79.55 99.4 -80.5 99.2 -80.25 99.1 -80.05 99.05 -79.9 99.45 -79.45 99.8 -78.9 99.8 -78.75 97.9 -75.25 Q96.75 -73.4 97.4 -71.25 L98.25 -67.1 Q98.3 -66.5 97.75 -66.2 96.7 -65.85 96.25 -66.8 L96.15 -67.0 95.5 -66.0 92.45 -61.55 92.05 -60.9 Q92.75 -57.8 91.0 -54.15 89.35 -50.8 88.15 -47.3 86.95 -43.8 86.35 -40.15 86.0 -38.45 84.5 -37.85 83.35 -38.05 83.45 -39.1 83.55 -40.1 83.1 -40.9 L82.75 -41.95 82.7 -42.85 82.55 -43.05 82.35 -43.25 82.2 -43.45 82.05 -43.65 82.0 -43.75 81.75 -43.35 81.3 -42.65 80.4 -41.75 80.0 -41.55 79.6 -41.7 79.3 -41.9 79.0 -42.3 78.8 -42.6 78.8 -42.8 78.85 -43.0 78.85 -43.2 78.95 -43.55 79.05 -43.95 79.0 -44.0 78.45 -44.1 78.25 -44.05 78.05 -43.75 77.85 -43.15 77.75 -43.0 77.2 -42.7 75.9 -42.1 75.8 -42.05 Q75.55 -41.65 75.0 -41.6 73.35 -44.25 74.45 -48.45 L75.85 -53.65 77.7 -60.9 77.95 -61.45 78.1 -61.55 78.2 -61.6 78.75 -61.75 78.9 -62.7 79.5 -65.6 79.8 -68.85 Q78.95 -70.25 79.6 -71.9 L80.15 -73.9 80.8 -84.9 Q81.0 -88.85 82.95 -91.6 81.65 -91.95 80.5 -92.65 80.3 -92.75 80.25 -93.15 80.35 -94.0 81.2 -94.15 L81.15 -94.25 81.05 -94.6 81.15 -95.15 81.75 -95.95 81.05 -96.45 81.0 -96.45 Q79.3 -96.7 78.9 -98.25 78.9 -98.85 79.35 -99.25 80.0 -99.75 80.85 -99.85 L81.9 -100.05 81.1 -100.95 80.4 -101.9 Q80.15 -102.35 80.3 -102.8 L80.4 -103.0 Q83.65 -104.4 87.2 -105.1 L87.3 -105.4 87.3 -105.55 86.35 -107.1 85.45 -108.75 Q85.1 -109.7 85.5 -110.6 L85.65 -110.8 Q86.45 -111.45 87.5 -111.15 88.55 -110.85 89.45 -110.2 89.6 -110.7 90.1 -111.0 L91.5 -111.35 Q91.25 -111.8 91.35 -112.4 L91.35 -112.75 91.55 -113.1 92.0 -113.45 92.95 -113.8 93.5 -114.0 94.0 -114.15 95.0 -113.4 95.8 -112.3 95.85 -112.15 96.05 -112.45 96.15 -112.6 96.1 -112.8 Q96.0 -113.8 95.05 -114.5 94.75 -114.7 95.15 -114.9 M83.9 -101.9 L83.95 -101.9 84.05 -102.05 83.8 -102.1 83.55 -102.05 Q83.6 -101.85 83.9 -101.9 M97.9 -109.3 L97.9 -109.2 97.95 -109.2 97.9 -109.3 M98.25 -108.1 L96.25 -107.5 96.35 -107.3 96.55 -106.95 96.45 -106.35 96.5 -106.25 97.25 -105.75 97.6 -105.25 97.65 -105.05 97.75 -105.1 98.0 -105.2 98.5 -105.35 99.45 -105.25 98.25 -108.1 M117.85 -121.0 L118.4 -120.95 117.85 -121.05 117.45 -121.2 117.4 -121.3 117.2 -121.1 117.85 -121.0 M115.05 -121.6 L115.3 -121.5 115.5 -121.45 115.6 -121.45 115.65 -121.5 115.6 -121.55 115.1 -121.6 115.05 -121.6 M111.05 -103.25 Q111.7 -104.35 112.65 -105.25 L112.7 -105.3 112.75 -105.35 112.5 -105.75 112.05 -105.25 111.25 -104.1 110.7 -103.0 111.05 -103.25 M110.05 -100.8 L111.25 -102.3 112.3 -103.45 112.7 -104.4 111.6 -103.55 110.75 -102.25 110.5 -101.85 110.05 -100.8 M109.75 -99.7 Q109.1 -97.25 109.45 -94.75 L111.9 -91.75 111.45 -93.25 Q110.6 -96.6 111.2 -100.0 L111.75 -102.15 111.15 -101.55 109.75 -99.7 M110.15 -101.95 L109.95 -101.25 110.15 -101.7 110.1 -101.7 110.15 -101.95 M113.9 -107.25 L115.0 -105.75 115.35 -105.3 115.4 -105.45 115.05 -106.0 114.0 -107.55 113.4 -108.25 113.7 -107.65 113.9 -107.25 M113.45 -106.35 L113.35 -106.05 113.3 -105.95 113.35 -105.85 113.65 -106.1 113.5 -106.3 113.45 -106.35 M112.9 -105.65 L112.95 -105.95 112.9 -106.05 112.75 -105.95 112.9 -105.65 M113.8 -105.8 L113.7 -106.0 113.5 -105.65 113.8 -105.8 M113.7 -105.35 L113.85 -105.15 113.9 -105.35 113.85 -105.55 113.7 -105.35 M115.6 -105.8 L115.55 -105.55 116.5 -104.15 118.0 -102.35 116.6 -104.4 115.15 -106.55 113.55 -108.35 115.05 -106.3 115.5 -105.6 115.6 -105.8 M115.45 -105.2 L116.1 -104.4 115.5 -105.35 115.45 -105.2 M115.1 -104.8 L115.1 -104.85 115.0 -105.0 115.1 -104.8 M114.05 -104.9 L114.15 -104.75 114.65 -104.0 114.8 -104.25 114.2 -105.15 114.05 -104.9 M113.95 -104.15 L113.9 -103.95 114.35 -103.35 114.45 -103.55 114.3 -103.8 114.1 -104.15 113.95 -104.15 M114.05 -104.2 L113.8 -104.6 113.65 -104.4 113.7 -104.3 114.0 -104.2 114.05 -104.2 M114.55 -103.8 L114.45 -103.95 114.55 -103.8 M114.85 -103.7 L114.95 -104.0 114.85 -104.1 114.75 -103.9 114.85 -103.7 M114.6 -103.65 L114.75 -103.4 114.8 -103.45 114.7 -103.55 114.65 -103.7 114.6 -103.65 M114.65 -103.1 L114.5 -103.45 114.4 -103.25 114.6 -102.9 114.65 -103.1 M114.0 -103.3 L113.75 -103.7 113.65 -103.8 112.2 -102.5 111.75 -101.15 Q111.0 -98.4 111.25 -95.55 111.4 -93.35 112.2 -91.25 L112.35 -91.0 Q111.85 -93.25 112.0 -95.7 112.15 -98.6 113.3 -101.2 L114.15 -103.0 114.0 -103.3 M114.8 -102.6 L115.0 -102.3 115.2 -102.1 114.85 -102.8 114.8 -102.6 M115.8 -102.35 L115.05 -103.8 115.0 -103.5 115.55 -102.65 115.8 -102.35 M113.35 -104.95 L113.3 -104.9 113.45 -104.7 113.55 -104.8 113.65 -104.85 113.5 -105.1 113.35 -104.95 M112.95 -104.45 L112.75 -104.0 112.9 -104.2 113.1 -104.5 112.95 -104.45 M113.3 -104.15 L113.05 -103.9 112.8 -103.6 112.55 -103.3 112.5 -103.25 112.75 -103.45 113.25 -103.8 Q113.5 -103.95 113.35 -104.15 L113.3 -104.15 M129.05 -126.65 L129.05 -126.2 129.6 -126.3 130.35 -126.4 130.0 -126.2 129.3 -126.15 129.05 -126.05 129.1 -124.75 129.15 -124.25 130.0 -124.1 130.05 -124.05 129.15 -124.05 129.2 -122.9 129.2 -122.55 129.9 -122.7 Q130.9 -123.15 132.05 -123.25 L132.25 -123.3 133.0 -123.5 133.55 -123.35 133.95 -123.1 Q134.15 -122.95 134.4 -122.9 L134.45 -122.85 134.55 -122.55 Q134.45 -122.35 134.65 -122.25 L134.8 -122.0 134.75 -121.9 134.5 -121.8 133.65 -122.45 132.95 -122.95 132.85 -123.05 132.7 -123.0 130.9 -122.45 130.35 -122.25 130.0 -121.95 129.95 -121.9 130.85 -122.0 131.7 -122.25 Q132.2 -122.45 132.3 -122.05 L132.2 -121.95 131.8 -121.8 131.45 -121.65 Q131.35 -121.45 132.25 -121.25 L132.45 -121.2 133.1 -121.15 133.3 -121.0 133.2 -120.8 133.0 -120.7 132.75 -120.45 132.85 -120.3 132.9 -120.25 132.8 -120.15 132.7 -120.15 132.8 -120.1 132.85 -119.95 132.5 -119.8 Q132.1 -119.85 132.05 -120.15 L132.1 -120.3 132.1 -120.4 130.9 -120.65 131.0 -120.5 Q130.85 -120.25 130.6 -120.3 L127.8 -120.25 Q126.95 -119.95 126.35 -120.45 L126.4 -120.55 126.45 -120.65 126.25 -120.7 125.65 -120.95 125.75 -121.3 126.1 -121.5 126.35 -121.55 126.8 -121.7 126.85 -121.75 127.0 -121.75 127.55 -121.8 129.05 -122.5 129.0 -122.95 129.0 -124.05 128.8 -124.1 128.7 -124.15 128.6 -124.25 128.5 -124.35 128.55 -124.4 128.85 -124.3 129.0 -124.25 128.95 -124.9 128.95 -126.05 128.4 -126.0 128.2 -126.05 128.95 -126.2 129.05 -126.65 M129.15 -121.05 L129.25 -121.05 130.35 -120.8 130.25 -120.85 129.15 -121.05 M131.25 -105.45 L131.05 -105.15 131.1 -105.0 Q131.1 -104.8 131.25 -104.95 L131.45 -105.2 131.65 -105.55 131.7 -105.85 131.7 -105.8 131.45 -105.65 131.25 -105.45 M130.7 -103.9 L130.6 -103.75 130.5 -103.65 130.95 -103.75 Q131.25 -103.9 131.1 -104.2 L131.0 -104.3 130.95 -104.3 130.85 -104.1 130.7 -103.9 M130.7 -104.95 L129.6 -104.0 129.05 -103.55 129.05 -102.55 129.2 -102.65 Q129.95 -103.1 130.5 -103.7 131.1 -104.4 130.7 -104.95 M128.5 -103.05 L127.55 -102.05 129.0 -102.5 128.95 -103.45 128.5 -103.05 M149.6 -109.5 L149.15 -108.95 149.5 -109.05 149.95 -109.1 149.95 -109.25 149.6 -109.5 M143.8 -93.95 L143.95 -94.1 143.4 -94.0 143.45 -93.95 143.7 -93.75 143.8 -93.95 M150.25 -92.35 L150.75 -91.85 151.35 -91.3 151.4 -91.35 150.25 -92.35 M133.45 -96.1 L133.5 -96.2 133.4 -96.2 133.45 -96.1 M133.6 -87.75 L133.65 -87.85 133.6 -87.85 133.55 -87.8 133.6 -87.75 M145.8 -64.05 Q145.75 -63.7 145.85 -63.95 L146.05 -64.5 145.95 -64.45 145.8 -64.05 M109.2 -98.8 L108.8 -98.1 108.9 -95.95 109.0 -97.65 109.2 -98.8 M109.1 -95.05 L109.25 -94.95 109.2 -95.65 109.1 -97.1 109.1 -95.4 109.1 -95.05 M100.25 -83.85 L99.8 -84.0 99.05 -83.05 99.05 -82.9 99.1 -82.85 99.4 -83.0 100.0 -83.1 100.45 -83.15 100.55 -83.3 100.4 -83.85 100.25 -83.85 M120.8 -68.5 L120.8 -68.55 120.75 -68.6 120.5 -68.55 120.8 -68.5 M164.8 -59.95 L164.75 -59.8 165.0 -59.8 165.25 -59.8 164.8 -59.95" fill="#000000" fill-rule="evenodd" stroke="none"/>
    <path d="M121.1 -143.25 Q121.15 -142.4 119.95 -142.2 L118.0 -141.8 116.5 -141.35 116.0 -141.15 115.25 -141.45 114.95 -141.6 113.9 -142.35 113.75 -142.65 115.6 -142.2 116.7 -142.3 Q118.55 -143.0 120.5 -143.15 L121.1 -143.25 M119.1 -141.65 Q118.5 -140.2 116.95 -139.4 L114.35 -137.9 Q112.95 -136.9 111.35 -136.5 L110.75 -136.4 Q112.15 -137.75 114.15 -138.75 L116.95 -140.2 118.8 -141.55 119.1 -141.65 M107.1 -131.15 Q106.35 -129.15 107.4 -128.8 L106.95 -127.75 105.95 -124.6 105.85 -123.9 Q106.5 -123.6 107.15 -124.9 L107.8 -126.4 Q108.1 -127.35 109.0 -127.9 110.1 -125.45 109.05 -122.85 108.1 -120.55 107.3 -118.1 106.65 -116.05 105.55 -114.1 L105.25 -113.9 Q105.65 -115.95 106.2 -118.0 L107.2 -121.75 108.4 -125.55 108.5 -125.9 107.7 -124.5 106.45 -122.8 Q105.8 -122.0 105.1 -122.5 L105.15 -124.75 Q105.2 -125.75 105.8 -126.7 106.55 -127.95 106.25 -127.9 105.1 -126.2 105.5 -127.9 L106.05 -129.8 Q106.35 -130.75 107.0 -131.1 L107.1 -131.15 M108.1 -132.65 L106.5 -131.1 104.85 -129.25 103.5 -127.45 103.25 -127.4 Q103.3 -128.25 103.85 -129.0 L105.3 -130.8 Q106.25 -131.85 107.45 -132.5 L108.1 -132.65 M118.7 -133.8 L119.1 -133.8 120.0 -133.65 Q122.85 -135.15 124.9 -137.6 126.35 -139.35 127.25 -141.5 127.8 -142.8 128.5 -143.6 L128.6 -143.65 Q128.5 -142.0 127.75 -140.4 L127.95 -138.85 Q127.85 -137.85 127.4 -137.0 126.75 -135.8 127.25 -135.5 L128.25 -136.1 128.9 -136.25 128.75 -135.9 127.4 -134.6 Q126.55 -133.6 125.7 -134.15 L125.6 -134.4 125.85 -135.1 Q124.95 -134.9 124.6 -134.05 124.25 -133.2 123.75 -132.9 123.75 -134.75 124.9 -136.3 L125.6 -137.35 122.8 -134.4 Q120.35 -132.05 118.25 -133.25 L118.7 -133.8 M101.0 -112.0 Q102.2 -111.75 101.75 -110.7 101.3 -109.65 100.4 -110.35 99.5 -111.0 100.4 -111.7 L101.0 -112.0 M89.5 -106.4 Q90.35 -106.55 90.25 -105.95 90.15 -105.55 89.5 -105.65 88.25 -105.8 89.0 -106.2 L89.5 -106.4 M84.85 -100.15 L85.0 -100.2 87.5 -100.35 88.0 -100.4 Q88.15 -101.25 88.85 -101.0 91.55 -100.05 93.1 -101.65 L93.5 -101.9 Q95.2 -101.45 94.2 -100.2 L92.5 -98.4 90.5 -96.25 82.65 -96.65 82.35 -96.9 82.4 -97.25 82.65 -97.45 83.5 -97.75 84.1 -98.0 84.2 -98.35 84.4 -98.8 84.65 -99.5 84.85 -100.15 M97.25 -105.8 Q97.95 -105.3 97.6 -104.65 L97.0 -104.45 95.5 -104.8 Q94.9 -105.05 94.35 -105.4 L94.4 -105.75 94.65 -106.55 94.85 -107.2 94.95 -107.35 93.4 -107.65 Q91.9 -108.05 91.25 -108.65 L94.0 -108.75 Q95.45 -108.7 95.35 -109.9 L95.35 -110.25 Q96.15 -110.9 97.15 -110.45 L97.6 -110.75 98.25 -111.0 Q98.9 -110.6 98.6 -109.85 L97.95 -108.8 97.15 -107.95 97.0 -107.65 95.95 -107.4 96.4 -106.8 97.25 -105.8 M132.35 -137.15 Q131.75 -136.35 131.55 -135.4 131.35 -134.25 130.75 -133.9 130.55 -134.95 130.95 -135.9 L131.9 -137.5 Q132.4 -138.2 132.4 -139.15 L132.6 -139.15 Q133.0 -138.1 132.35 -137.15 M136.85 -131.15 Q136.1 -130.6 136.5 -131.4 136.8 -132.0 136.7 -132.6 L136.3 -133.8 Q136.1 -134.2 136.5 -134.15 L136.6 -134.15 137.05 -133.35 137.2 -132.25 137.0 -131.5 136.85 -131.15 M140.6 -118.25 L141.0 -117.0 Q141.45 -118.05 141.35 -119.15 L141.6 -119.25 Q142.65 -118.1 141.9 -116.6 L141.3 -115.3 141.3 -115.25 Q141.4 -113.7 141.85 -112.25 142.35 -110.5 142.25 -109.9 141.0 -111.1 140.8 -112.85 L140.75 -113.55 140.05 -111.45 139.75 -111.25 Q139.35 -112.6 139.8 -114.0 L140.35 -115.55 140.25 -115.85 Q139.9 -117.05 140.4 -118.2 L140.6 -118.25 M149.8 -107.1 L150.7 -107.65 151.15 -107.95 151.45 -108.05 151.5 -108.15 Q153.7 -108.3 152.5 -107.5 L150.55 -105.9 Q149.35 -104.8 148.55 -105.55 L148.35 -105.9 148.45 -106.2 Q148.95 -106.8 149.8 -107.1 M148.95 -101.7 L149.0 -101.75 152.15 -101.35 155.05 -100.65 Q156.8 -100.2 157.7 -98.85 L157.85 -98.5 157.7 -98.15 157.45 -97.85 155.85 -97.7 152.35 -98.15 152.6 -97.75 152.65 -97.4 152.45 -97.1 151.6 -96.9 150.9 -97.35 149.6 -98.35 148.35 -99.15 Q146.05 -100.55 148.95 -101.7 M151.6 -99.85 L152.35 -100.0 152.1 -100.05 151.1 -100.05 151.25 -100.0 151.6 -99.85 M79.8 -78.5 Q78.55 -86.8 84.25 -90.15 87.35 -82.55 85.7 -74.55 84.05 -66.9 82.05 -59.6 80.0 -52.2 75.85 -48.15 76.55 -55.55 78.8 -63.5 80.9 -70.85 79.8 -78.5 M154.25 -90.55 L154.75 -89.9 Q153.3 -88.85 151.8 -90.3 L149.9 -91.9 Q148.75 -92.75 149.05 -93.85 149.2 -94.3 149.75 -94.15 L151.3 -92.95 152.7 -91.75 154.25 -90.55 M145.45 -95.95 Q144.75 -96.35 145.5 -96.5 146.25 -96.25 146.85 -95.8 L146.7 -95.8 145.45 -95.95 M144.1 -88.25 L144.15 -88.65 144.3 -88.95 144.75 -89.4 145.1 -89.55 145.45 -89.7 145.5 -89.75 Q146.8 -89.35 147.2 -87.95 L147.95 -85.8 148.65 -83.6 148.6 -83.25 148.25 -83.05 147.1 -83.2 145.85 -83.4 145.25 -84.55 144.7 -85.9 144.2 -87.5 144.1 -88.25 M154.35 -80.65 L155.1 -81.4 155.9 -82.05 156.5 -82.4 Q160.3 -80.35 162.0 -75.9 163.55 -71.8 165.4 -67.85 166.8 -64.95 167.35 -62.05 L167.95 -61.15 Q169.3 -58.8 170.95 -56.65 172.65 -54.35 172.1 -51.65 L171.85 -51.4 171.5 -51.3 170.1 -51.4 167.6 -55.15 Q166.2 -57.35 164.45 -59.1 162.55 -61.0 162.7 -62.6 161.75 -63.6 160.95 -65.05 158.55 -69.4 155.75 -73.5 153.75 -76.4 153.6 -79.9 L154.35 -80.65 M123.35 -78.15 Q123.1 -77.15 122.65 -78.1 122.4 -78.6 122.75 -79.05 122.85 -79.2 123.1 -79.25 123.55 -78.75 123.35 -78.15 M140.6 -87.3 Q139.8 -86.65 139.0 -87.45 138.15 -88.3 140.0 -88.05 L140.0 -88.15 Q141.55 -88.05 140.6 -87.3 M145.75 -68.5 L146.0 -68.7 146.45 -68.8 146.5 -68.9 Q147.45 -69.1 147.6 -68.25 L147.7 -66.75 148.4 -66.15 148.6 -65.9 Q147.45 -61.4 146.55 -56.65 145.55 -51.5 145.35 -46.35 L144.75 -37.55 144.8 -37.45 Q145.75 -35.65 146.1 -33.75 144.8 -34.95 143.65 -36.45 142.35 -36.75 141.35 -38.15 L139.0 -40.75 Q137.6 -42.0 137.1 -43.75 L137.1 -44.15 137.1 -44.5 137.2 -44.85 137.45 -45.3 137.6 -45.65 137.9 -46.15 Q138.25 -47.7 138.85 -49.25 139.15 -52.05 141.1 -54.85 L143.05 -57.9 143.8 -61.0 144.25 -63.0 144.1 -66.25 144.1 -66.65 144.25 -67.0 144.5 -67.2 145.0 -67.4 145.5 -67.5 145.55 -67.75 145.65 -68.15 145.75 -68.5 M142.3 -51.1 Q143.05 -52.25 143.3 -53.8 L143.05 -53.1 142.3 -51.1 M101.25 -98.9 L102.2 -98.15 102.0 -98.0 Q101.45 -97.5 101.55 -96.85 L101.15 -97.05 Q99.95 -97.6 100.7 -98.6 L101.25 -98.9 M111.2 -82.65 Q111.6 -83.15 112.25 -83.0 L112.25 -82.3 111.9 -81.15 111.65 -80.0 111.75 -79.65 Q111.35 -78.85 110.45 -78.35 L109.45 -77.55 Q109.1 -77.2 108.6 -77.0 108.05 -78.15 108.9 -79.35 L110.05 -81.0 111.2 -82.65 M106.5 -84.05 L107.25 -84.4 Q107.7 -83.9 107.2 -83.55 L106.6 -83.65 Q106.35 -83.9 106.5 -84.05 M101.3 -82.45 Q100.85 -81.6 99.95 -81.3 L99.5 -81.4 99.5 -81.75 99.75 -82.5 100.1 -83.15 100.95 -83.8 101.0 -83.9 Q102.15 -84.2 101.9 -83.75 L101.3 -82.45 M117.0 -79.35 Q115.35 -78.95 115.8 -80.1 116.1 -80.95 117.25 -80.65 118.65 -79.7 117.0 -79.35 M96.95 -92.35 Q95.45 -92.05 95.8 -93.1 96.05 -93.75 96.7 -93.95 97.55 -93.15 98.7 -92.7 L96.95 -92.35 M99.5 -89.85 L99.35 -89.15 98.85 -88.4 99.15 -87.6 99.2 -86.9 99.0 -86.2 98.6 -85.75 Q97.9 -85.55 97.35 -85.75 L97.25 -86.1 97.1 -86.5 Q96.2 -86.0 95.4 -85.35 L94.2 -84.3 93.75 -83.9 92.15 -84.05 Q91.9 -84.05 91.75 -84.25 92.9 -85.9 94.8 -87.35 96.45 -88.55 97.75 -90.1 98.35 -90.75 99.25 -90.65 L99.5 -89.85 M89.15 -95.5 Q90.15 -95.15 90.6 -94.25 L90.75 -93.9 89.8 -93.8 Q88.0 -94.65 86.9 -93.6 86.5 -93.2 84.85 -94.1 L84.25 -94.4 83.95 -94.8 Q83.85 -94.95 83.9 -95.1 L84.15 -95.4 85.35 -95.9 Q85.65 -96.0 85.95 -96.2 L86.0 -96.25 87.7 -95.95 89.15 -95.5 M89.25 -86.9 Q89.7 -86.35 89.3 -85.8 L88.9 -84.95 Q88.65 -84.3 88.05 -83.95 L87.75 -83.9 Q86.5 -84.15 87.3 -84.95 L88.15 -86.0 88.75 -86.75 89.25 -86.9 M94.95 -69.15 L95.6 -69.75 96.1 -70.25 96.75 -70.5 Q97.8 -67.15 97.6 -63.4 97.35 -59.45 99.85 -56.55 102.05 -53.95 105.6 -53.25 L105.9 -52.5 106.05 -52.15 106.9 -51.3 107.05 -51.2 107.35 -50.9 107.55 -49.9 Q108.0 -48.55 107.85 -47.0 107.7 -45.1 106.6 -43.65 L106.25 -43.25 Q106.7 -42.2 107.6 -41.0 L108.0 -40.5 108.05 -40.55 108.1 -40.4 108.1 -40.35 110.55 -37.6 Q111.85 -36.35 112.1 -34.65 111.15 -34.4 110.25 -35.05 L110.1 -34.65 Q109.1 -34.0 108.65 -34.95 L108.55 -35.2 107.4 -35.25 Q106.5 -34.05 104.5 -33.55 101.35 -32.75 99.25 -35.25 100.0 -38.3 99.8 -41.25 L99.5 -41.65 99.55 -43.4 98.9 -45.8 Q97.3 -50.75 95.15 -55.45 92.7 -60.85 94.55 -65.25 L94.6 -65.25 94.85 -63.75 94.55 -67.5 94.5 -68.65 94.95 -69.15 M101.8 -39.4 Q101.6 -37.7 101.0 -36.0 101.7 -35.35 102.65 -35.1 104.5 -34.65 105.35 -36.15 L104.8 -36.6 103.3 -37.25 Q103.1 -37.3 103.0 -37.5 L103.55 -37.9 101.8 -39.4 M157.0 -1.4 Q157.85 -0.7 158.95 -0.6 159.85 -0.55 160.15 0.5 L160.35 0.85 160.4 1.25 160.45 1.3 160.85 1.2 162.05 1.3 162.25 1.5 Q162.35 2.15 162.05 2.65 L161.45 4.05 161.0 5.7 Q167.85 13.2 166.3 25.25 165.55 30.9 164.1 36.45 L163.55 43.1 Q162.65 50.65 163.1 58.3 L163.4 59.6 Q165.05 65.95 164.55 72.3 L167.9 85.0 Q170.15 94.15 171.2 103.9 172.0 111.8 170.45 118.7 L171.25 120.1 Q171.25 124.65 170.65 129.1 170.05 133.7 170.25 138.5 170.5 143.1 169.0 146.75 166.15 140.4 166.35 131.6 L166.95 116.6 167.2 113.25 166.7 101.35 Q166.45 96.15 165.7 91.25 L165.05 88.2 164.3 84.1 164.15 83.6 Q162.95 78.8 162.7 74.4 161.4 68.2 161.1 60.75 L161.0 55.85 160.5 51.65 Q159.9 45.95 160.75 40.15 162.45 28.25 158.5 17.05 L155.25 8.4 154.7 7.9 154.65 7.85 Q153.7 7.95 153.8 6.9 L153.8 6.85 153.0 5.5 152.0 5.4 151.5 5.3 150.9 5.05 150.6 4.75 Q150.65 3.95 151.05 3.2 L151.95 1.35 Q152.55 0.1 153.55 -0.95 L155.0 -1.9 Q156.1 -2.1 157.0 -1.4 M97.2 2.95 L97.7 3.3 98.1 4.05 98.1 4.35 97.9 4.75 97.75 5.5 Q97.65 6.35 98.5 6.2 L99.6 6.25 96.05 26.1 Q93.9 36.6 92.75 47.45 L92.0 54.95 91.85 66.05 92.5 64.75 Q93.7 68.0 90.75 74.1 89.0 77.7 88.0 81.7 84.0 97.9 82.05 114.45 80.6 126.55 78.15 138.45 L78.15 138.5 Q77.6 148.15 74.35 155.0 L74.25 155.35 74.2 155.35 73.35 156.85 73.75 154.85 73.45 153.5 73.4 152.35 73.35 151.25 75.35 143.2 76.05 133.95 Q76.6 122.3 79.0 111.0 80.4 104.25 82.75 98.2 L83.9 91.1 Q85.95 78.85 90.9 68.05 89.0 57.9 90.15 46.25 91.3 33.85 92.6 21.4 93.75 10.25 96.75 1.1 L96.7 2.8 97.2 2.95" fill="url(#gradient0)" fill-rule="evenodd" stroke="none"/>
    <path d="M36.3 -17.0 L41.75 -24.4 46.95 -31.75 49.45 -35.4 51.85 -39.05 Q53.5 -41.55 55.55 -43.65 57.2 -45.3 58.2 -45.65 60.0 -47.25 62.3 -47.5 L62.3 -47.75 65.55 -47.65 66.1 -47.7 66.1 -47.85 66.6 -47.8 66.8 -47.85 66.85 -47.75 68.0 -47.6 70.55 -46.4 Q72.1 -45.75 73.45 -45.4 L76.55 -44.65 79.2 -44.25 81.1 -43.85 84.35 -43.1 88.05 -42.15 91.25 -41.35 Q100.55 -39.45 104.55 -38.15 L107.3 -37.4 111.15 -36.65 Q112.7 -35.95 113.75 -35.05 L114.6 -34.2 116.1 -34.05 117.2 -33.9 118.3 -34.15 118.35 -34.15 121.25 -34.6 Q122.6 -34.6 124.1 -33.2 L124.95 -32.35 Q125.3 -31.9 125.85 -31.65 L126.25 -31.35 126.85 -31.1 Q129.0 -30.9 129.4 -30.5 L131.05 -29.1 131.2 -29.4 131.15 -29.1 131.3 -29.25 132.1 -29.35 132.95 -29.1 Q133.1 -28.9 133.4 -28.9 L133.6 -29.9 134.15 -30.3 134.7 -30.6 135.45 -30.3 136.55 -30.0 137.05 -30.4 137.2 -30.95 137.35 -31.4 Q137.85 -32.2 138.05 -31.9 138.45 -31.35 139.25 -31.55 140.0 -31.75 141.55 -32.65 L143.65 -34.1 144.55 -35.1 146.35 -35.25 Q146.55 -35.25 147.25 -35.6 L148.3 -35.95 149.05 -35.6 151.4 -36.05 152.75 -36.65 154.4 -37.25 154.5 -37.3 Q154.5 -37.7 155.45 -38.05 L156.45 -38.75 158.65 -39.75 159.75 -40.25 160.85 -40.95 Q161.4 -41.65 162.7 -42.25 L163.95 -42.45 Q164.4 -42.3 164.95 -42.8 L166.9 -45.05 Q167.55 -46.05 168.85 -46.9 L168.8 -46.95 Q173.5 -50.3 180.3 -52.4 L188.95 -54.4 190.9 -55.0 192.95 -55.5 194.9 -56.0 194.85 -56.1 195.9 -57.9 196.25 -58.95 Q196.45 -59.65 196.75 -59.75 L196.85 -59.75 196.9 -59.7 Q197.6 -60.35 199.0 -60.75 L206.8 -62.85 Q208.1 -63.05 212.6 -62.85 L213.7 -62.35 214.3 -62.3 217.35 -61.7 220.85 -61.0 222.6 -60.8 223.3 -60.4 Q224.6 -59.8 227.05 -59.0 228.75 -58.35 229.6 -57.6 L230.0 -57.45 231.95 -56.65 232.6 -56.3 232.95 -55.95 233.35 -55.45 233.2 -55.25 Q233.2 -54.95 236.55 -52.5 L237.5 -51.25 238.1 -49.75 237.3 -48.35 236.85 -47.05 236.35 -45.75 235.8 -45.1 235.6 -44.45 235.85 -43.4 235.7 -41.8 Q235.7 -41.5 235.3 -41.2 234.9 -40.9 234.95 -40.35 235.0 -39.75 234.65 -38.8 L234.4 -38.15 234.5 -37.95 233.75 -36.45 233.1 -35.85 231.2 -35.05 229.85 -34.45 229.05 -34.0 Q227.35 -32.75 226.95 -32.75 226.7 -32.75 226.5 -32.9 L226.1 -33.05 Q224.65 -33.05 223.35 -31.65 L222.0 -30.25 221.55 -30.6 221.4 -31.1 221.2 -31.95 Q220.95 -31.65 220.7 -31.65 220.2 -31.65 220.15 -32.15 L219.9 -32.7 Q219.65 -32.7 218.75 -32.1 L217.85 -31.5 Q217.2 -31.5 217.2 -33.5 216.6 -33.1 216.35 -32.15 L215.8 -30.65 Q215.45 -30.85 215.4 -31.0 L215.3 -31.3 215.25 -32.05 214.6 -34.05 213.9 -32.35 Q212.8 -29.85 212.4 -27.95 L211.95 -25.55 211.7 -24.3 211.7 -24.05 211.4 -22.2 210.95 -20.05 210.45 -16.0 Q210.15 -13.6 208.75 -8.05 L208.15 -6.05 207.65 -4.0 206.6 0.0 205.3 4.0 204.75 5.8 204.45 6.7 203.95 7.95 203.25 10.45 201.55 15.45 198.7 25.35 Q197.15 31.1 195.2 35.4 193.7 38.6 193.25 40.35 L193.0 42.5 193.05 43.85 192.6 48.75 192.3 51.05 192.45 51.35 Q192.45 52.35 191.25 54.15 L189.55 56.75 187.8 59.8 186.35 62.0 184.5 61.75 182.5 62.25 180.4 62.15 180.35 62.0 179.6 61.75 Q178.95 61.3 178.55 61.25 L177.3 61.0 176.95 60.85 176.75 60.3 176.05 60.05 175.85 59.95 175.7 60.05 175.25 59.7 174.65 59.0 174.6 58.5 Q174.6 58.0 175.2 57.5 175.8 56.95 176.25 57.25 L179.35 58.9 179.05 58.25 178.3 57.0 Q176.35 55.5 176.35 55.1 176.35 54.75 176.9 54.4 177.55 53.95 178.45 54.1 L179.3 54.55 179.9 54.95 180.15 53.9 180.85 51.8 181.55 47.0 Q181.75 44.2 182.55 42.15 183.0 40.95 183.75 39.7 L185.0 38.05 184.95 37.9 185.4 36.75 185.65 35.6 186.35 33.45 187.4 29.15 188.4 24.75 189.35 20.45 Q190.05 17.5 190.15 16.0 L190.45 11.7 190.75 7.25 Q190.85 5.15 191.4 3.7 L192.35 -0.2 193.0 -2.75 192.45 -2.4 189.6 -0.95 186.85 -1.45 185.7 -1.7 184.8 -1.15 182.95 0.0 181.5 0.55 177.95 1.15 175.7 1.65 174.75 1.75 172.85 2.0 167.35 1.9 164.8 2.05 161.35 2.6 157.05 3.25 Q155.4 3.65 152.75 4.7 L147.7 6.0 Q146.55 6.25 145.85 6.85 145.25 7.4 144.75 7.4 144.2 7.4 143.95 7.1 L142.75 7.65 141.15 8.8 137.95 11.35 137.15 11.9 137.1 12.05 136.85 12.05 Q134.05 13.75 130.9 14.65 127.9 15.5 125.45 15.5 L122.5 15.25 121.65 14.95 115.75 15.4 112.85 14.75 Q111.85 14.3 109.95 14.2 L107.25 13.7 106.4 13.05 104.35 11.65 103.15 10.7 102.05 9.55 Q101.15 8.45 99.85 7.3 L98.15 5.9 92.65 2.35 90.25 0.45 88.05 -1.15 84.8 -2.45 84.3 -2.15 83.25 -1.25 Q82.5 -0.65 81.9 -0.65 81.1 -0.65 79.6 -1.5 78.4 -2.2 78.15 -2.45 L76.7 -3.3 75.8 -4.05 Q74.9 -4.85 74.8 -6.0 L74.6 -7.9 74.2 -9.6 Q73.35 -9.8 72.9 -10.7 72.55 -11.4 72.55 -11.9 L72.6 -12.3 72.3 -12.0 71.5 -11.9 Q71.15 -12.1 70.95 -11.6 70.35 -10.2 69.5 -9.35 L65.3 -5.05 56.9 3.6 55.2 5.75 53.6 8.0 50.05 12.4 46.4 16.8 44.2 19.35 42.75 21.1 40.6 24.25 38.95 26.3 38.8 26.5 38.75 26.3 37.8 27.3 Q37.3 27.75 36.25 28.0 L36.3 28.4 Q33.65 28.4 31.4 26.8 L31.0 26.5 27.8 25.9 25.5 24.8 Q22.35 23.2 20.35 22.5 17.7 21.55 15.35 20.95 L11.9 20.3 8.3 19.85 5.8 19.1 4.05 18.45 Q2.7 17.75 -0.3 17.1 -2.85 16.5 -3.65 15.45 -4.6 14.2 -4.6 13.2 L-4.25 11.8 -3.9 10.65 Q-3.75 9.8 -2.85 9.05 L-2.7 8.95 -2.6 8.85 -1.7 8.35 -1.85 8.8 0.65 9.15 3.5 9.5 4.95 9.1 6.6 8.5 Q8.4 7.55 9.35 7.15 10.2 6.65 10.6 6.65 12.25 6.55 12.85 6.15 L13.45 5.9 13.45 5.2 13.55 5.2 13.7 5.8 15.6 4.85 18.2 3.15 20.0 1.35 23.7 -2.3 Q31.65 -10.8 36.3 -17.0 M186.05 52.25 Q186.0 51.65 185.2 51.05 184.6 52.25 184.5 53.35 184.35 54.65 183.65 56.25 L183.45 56.75 184.05 56.9 184.75 56.6 185.05 56.1 185.5 55.85 186.05 55.35 186.05 52.25" fill="#000000" fill-rule="evenodd" stroke="none"/>
  </g>
  <defs>
    <linearGradient gradientTransform="matrix(0.0, 0.1834, -0.0604, 0.0, 122.8, 6.6)" gradientUnits="userSpaceOnUse" id="gradient0" spreadMethod="pad" x1="-819.2" x2="819.2">
      <stop offset="0.047058823529411764" stop-color="#947163"/>
      <stop offset="0.10980392156862745" stop-color="#edce89"/>
      <stop offset="0.3058823529411765" stop-color="#5b6568"/>
      <stop offset="1.0" stop-color="#272f47"/>
    </linearGradient>
  </defs>
</svg>
