<?xml version="1.0" encoding="UTF-8" standalone="no"?>
<svg xmlns:xlink="http://www.w3.org/1999/xlink" height="49.25px" width="34.15px" xmlns="http://www.w3.org/2000/svg">
  <g transform="matrix(1.0, 0.0, 0.0, 1.0, -105.5, 132.6)">
    <path d="M118.55 -130.0 L118.75 -129.6 Q119.35 -128.3 122.2 -129.25 126.3 -130.6 130.35 -130.2 131.5 -130.9 132.75 -130.6 L133.3 -131.15 133.95 -132.1 Q134.35 -132.6 135.0 -132.6 L135.25 -132.6 135.75 -132.45 136.0 -132.3 136.2 -132.1 136.25 -131.95 136.3 -131.75 136.35 -131.55 136.3 -131.2 136.2 -130.8 Q137.2 -129.85 136.8 -128.6 L136.95 -128.0 137.15 -127.1 137.6 -125.8 Q137.9 -125.1 137.45 -124.45 L137.25 -124.25 137.0 -124.35 137.1 -123.95 137.15 -123.6 Q139.7 -122.6 139.55 -119.35 139.45 -116.75 139.65 -114.1 139.85 -110.85 138.1 -108.15 L137.9 -107.95 Q137.25 -107.75 136.7 -108.15 136.1 -108.6 136.15 -109.3 L136.05 -110.35 135.95 -110.0 135.8 -109.25 135.6 -108.3 135.3 -107.75 135.05 -107.55 134.85 -107.45 134.5 -107.4 134.05 -107.3 133.4 -105.85 132.6 -104.15 132.65 -104.05 133.25 -104.0 134.65 -105.15 135.25 -105.45 135.7 -105.3 135.9 -105.1 136.05 -104.95 Q134.95 -103.15 133.25 -101.65 L133.3 -101.55 Q133.45 -101.2 133.2 -100.85 L132.8 -100.25 132.7 -100.05 133.6 -97.4 134.15 -94.65 Q134.35 -92.7 132.75 -91.8 132.8 -89.95 131.55 -88.55 129.85 -86.55 127.7 -84.95 L126.65 -83.95 120.35 -83.5 120.3 -83.45 119.1 -83.7 Q115.55 -84.6 112.75 -87.45 111.8 -88.4 110.55 -88.85 110.3 -89.85 110.4 -90.8 L110.1 -91.45 Q109.75 -90.7 109.05 -90.3 L108.75 -90.2 Q108.2 -90.2 108.05 -90.7 L107.95 -91.6 107.95 -92.2 108.05 -92.75 108.05 -92.95 Q107.6 -93.5 107.65 -94.25 L107.8 -95.35 108.15 -97.05 108.15 -97.75 107.85 -97.2 107.4 -96.3 Q107.05 -95.8 106.5 -95.8 L106.0 -95.85 Q105.1 -97.25 105.9 -99.0 L107.75 -102.5 Q109.0 -104.55 110.75 -105.7 L110.75 -105.75 111.2 -105.6 111.45 -105.45 111.55 -105.25 111.65 -105.05 111.75 -104.7 111.75 -104.3 111.75 -104.1 111.85 -104.1 Q111.7 -104.55 112.1 -104.8 L112.5 -105.0 112.6 -104.95 112.55 -105.6 112.45 -105.85 Q112.25 -105.3 112.15 -105.6 L112.0 -106.65 112.0 -107.75 112.05 -108.1 112.25 -108.3 112.45 -108.4 113.15 -108.4 113.25 -108.35 113.05 -108.95 112.6 -109.8 112.1 -110.85 112.0 -111.35 111.95 -111.45 111.7 -111.3 Q111.2 -110.75 110.5 -111.05 109.6 -113.0 110.3 -115.45 L111.5 -120.3 Q112.0 -122.8 113.25 -124.85 L113.4 -124.9 113.7 -124.95 114.0 -126.05 114.0 -126.25 Q114.4 -127.8 115.4 -128.95 116.35 -130.0 117.5 -130.5 L117.75 -130.5 118.15 -130.3 118.55 -130.0 M117.3 -123.9 L117.15 -123.8 Q116.95 -123.55 116.6 -123.4 L116.4 -123.3 115.6 -119.65 116.2 -119.05 118.65 -119.0 119.1 -119.25 Q118.85 -119.65 119.3 -120.2 L119.5 -120.3 120.45 -119.95 120.5 -119.95 121.4 -119.2 Q122.4 -119.05 122.35 -118.0 L122.35 -116.15 122.4 -114.25 122.4 -114.05 123.55 -113.45 124.55 -112.9 124.7 -112.75 124.75 -112.35 124.6 -111.8 124.25 -111.05 123.95 -110.55 Q122.9 -110.2 122.1 -111.0 L119.95 -112.85 119.75 -113.0 Q119.5 -113.95 119.7 -114.85 L120.0 -115.95 118.8 -115.1 114.55 -115.2 Q114.2 -112.05 115.85 -109.15 L118.85 -103.4 118.8 -103.35 118.8 -103.2 Q118.95 -101.65 120.7 -101.35 L125.95 -101.65 125.8 -101.05 Q127.55 -101.5 129.0 -103.05 L130.3 -104.4 Q132.05 -107.6 132.4 -111.3 L132.7 -117.75 132.05 -116.9 Q130.25 -114.85 127.9 -116.55 125.55 -118.25 127.2 -120.35 127.75 -120.55 128.15 -120.1 L128.4 -119.55 128.6 -118.8 128.7 -118.6 Q129.65 -118.3 130.05 -119.1 L130.8 -120.2 Q131.15 -120.55 131.5 -120.55 L132.65 -119.7 132.6 -120.95 127.85 -120.8 Q124.7 -120.1 121.75 -121.7 L117.55 -123.95 117.3 -123.9 M118.65 -126.7 Q120.05 -126.8 121.5 -127.35 L118.65 -126.75 118.65 -126.7 M121.1 -106.05 L121.3 -105.85 121.5 -105.7 124.15 -105.6 125.75 -105.25 Q126.35 -105.25 126.4 -104.7 125.25 -103.45 123.25 -103.6 121.45 -103.75 120.45 -105.0 119.7 -105.9 120.75 -106.15 L120.75 -106.2 121.1 -106.05 M114.5 -102.8 Q112.4 -101.8 112.05 -99.35 111.65 -96.15 113.1 -93.3 L113.4 -92.75 113.15 -92.25 112.75 -91.65 112.5 -91.3 112.45 -90.95 112.45 -90.75 Q112.9 -89.8 114.0 -89.7 L116.9 -89.35 117.25 -89.35 117.3 -89.35 Q118.15 -88.85 119.35 -88.65 L119.35 -88.5 119.4 -87.0 Q119.35 -86.1 120.25 -85.95 121.15 -86.3 121.35 -87.35 L121.45 -88.55 123.1 -88.8 123.45 -89.2 123.25 -89.9 Q122.8 -90.55 121.95 -90.6 121.05 -90.7 120.35 -91.2 L120.1 -91.45 119.9 -91.7 119.5 -91.75 119.05 -91.8 Q119.5 -93.6 119.0 -95.55 L117.7 -99.95 Q116.85 -102.5 114.5 -102.8 M130.6 -123.15 L130.55 -123.2 130.5 -123.15 130.6 -123.15 M126.8 -122.95 L126.45 -122.65 126.95 -122.65 126.8 -122.95 M128.5 -93.95 L128.05 -95.4 Q127.8 -96.2 127.0 -96.3 126.05 -96.1 125.4 -95.2 L124.0 -93.1 123.05 -91.55 Q123.45 -90.2 124.95 -89.75 127.95 -88.9 129.3 -91.0 L129.2 -91.4 128.75 -91.9 128.15 -92.15 128.15 -92.25 128.25 -92.45 Q128.75 -93.15 128.5 -93.95 M124.9 -97.1 L125.0 -97.1 125.2 -97.25 125.35 -97.4 124.8 -97.25 124.9 -97.1" fill="#000000" fill-opacity="0.48235294" fill-rule="evenodd" stroke="none"/>
  </g>
</svg>
