<?xml version="1.0" encoding="UTF-8" standalone="no"?>
<svg xmlns:xlink="http://www.w3.org/1999/xlink" height="313.5px" width="105.85px" xmlns="http://www.w3.org/2000/svg">
  <g transform="matrix(1.0, 0.0, 0.0, 1.0, -72.0, 150.7)">
    <path d="M126.3 -150.55 L127.3 -150.4 127.5 -150.4 128.95 -150.0 129.65 -150.05 130.3 -149.65 130.3 -149.8 Q131.0 -149.7 132.15 -148.8 L132.4 -148.65 Q133.85 -148.15 135.45 -146.65 L135.75 -146.35 137.65 -145.0 142.2 -142.25 144.25 -140.95 144.75 -140.6 Q145.1 -140.35 145.35 -140.3 L146.0 -140.1 146.05 -139.8 Q146.05 -139.0 144.3 -139.0 L143.4 -139.0 143.4 -138.9 143.95 -137.3 145.65 -134.2 147.6 -131.0 148.85 -129.65 Q150.05 -128.3 150.05 -127.95 L149.95 -127.65 148.75 -127.5 Q147.6 -127.5 146.45 -128.1 L146.7 -127.15 Q147.3 -124.8 147.95 -123.3 L149.65 -119.5 Q150.2 -118.2 151.9 -115.8 151.9 -115.4 151.3 -115.4 150.25 -115.4 148.1 -116.8 L148.9 -113.3 Q149.25 -111.9 150.4 -109.65 L151.4 -107.45 Q151.4 -106.75 151.2 -106.75 149.9 -106.75 148.1 -108.05 L146.9 -109.05 Q147.0 -106.95 147.45 -105.2 L148.15 -102.65 149.15 -100.25 148.85 -100.15 Q148.25 -100.15 146.6 -101.1 L144.8 -102.25 143.45 -103.5 143.45 -103.4 Q143.3 -102.8 143.3 -101.3 L143.55 -99.55 144.0 -98.75 144.3 -97.9 144.0 -97.8 Q143.35 -97.8 141.2 -99.6 L140.1 -100.45 139.9 -100.65 139.8 -99.55 139.9 -97.25 139.9 -96.55 139.7 -96.4 137.9 -97.3 Q137.45 -97.45 136.65 -98.35 L136.0 -99.15 136.0 -98.9 136.1 -97.0 138.2 -96.05 139.1 -95.7 145.65 -94.65 147.8 -94.2 149.35 -93.3 Q152.1 -91.75 153.35 -89.8 160.3 -78.9 163.4 -72.6 L167.65 -64.05 172.0 -55.35 175.95 -46.75 Q177.85 -41.85 177.85 -38.2 L177.75 -37.9 177.7 -37.95 177.7 -37.8 Q177.7 -35.85 174.7 -29.3 172.35 -24.3 171.0 -22.05 L166.7 -14.35 167.5 -13.2 167.25 -12.2 167.0 -11.95 166.0 -11.7 Q164.8 -11.7 161.55 -14.95 158.5 -18.0 158.5 -18.6 158.5 -21.15 160.65 -19.95 L162.75 -25.35 Q164.05 -30.3 164.85 -32.65 L165.9 -36.15 Q166.3 -37.9 166.2 -39.25 L164.75 -41.65 162.65 -45.3 157.75 -52.5 154.9 -56.0 Q153.0 -58.4 152.25 -59.7 L149.95 -63.25 148.05 -66.3 147.8 -62.35 147.9 -62.35 147.9 -62.1 147.9 -61.9 147.9 -61.8 147.2 -57.8 146.2 -54.25 146.0 -53.65 145.65 -52.6 144.8 -50.2 Q144.25 -48.75 144.15 -47.8 143.9 -45.8 143.9 -42.95 143.9 -39.6 144.55 -37.9 L144.75 -37.4 144.85 -37.45 145.05 -36.95 145.4 -36.25 145.4 -36.15 147.75 -32.2 147.75 -32.15 149.75 -29.25 151.15 -27.35 151.25 -27.45 151.35 -27.45 151.4 -27.2 151.4 -27.05 151.75 -26.55 153.45 -23.95 155.45 -19.55 Q156.05 -19.2 156.45 -18.15 L157.05 -16.2 157.9 -14.35 157.95 -14.35 157.95 -14.3 158.1 -13.95 158.1 -13.9 158.6 -12.45 158.85 -11.7 158.85 -11.65 158.95 -11.5 161.25 -4.95 163.35 2.6 164.85 10.1 Q165.7 14.7 166.2 20.25 L166.25 20.55 166.25 21.6 166.4 23.75 165.95 38.3 165.5 44.5 165.05 52.85 165.1 56.85 165.0 56.85 165.1 58.1 165.05 60.35 164.85 64.9 Q164.85 67.45 165.45 70.65 L166.5 76.05 167.25 81.6 168.2 87.2 169.55 92.75 170.45 98.4 Q171.0 104.95 171.0 109.45 L170.85 110.85 170.8 110.85 170.75 112.25 170.7 118.05 171.0 136.2 171.05 145.2 171.3 149.7 171.5 153.45 173.05 153.55 173.3 153.8 173.5 154.8 Q173.5 155.45 169.5 156.8 164.95 158.3 160.75 158.3 L159.4 158.2 159.3 159.45 159.25 158.15 158.25 158.05 158.15 157.8 Q158.0 157.65 158.0 156.9 158.0 156.25 159.15 155.65 L158.85 149.55 Q158.55 143.6 157.5 139.65 L157.15 137.25 156.65 134.7 155.0 129.8 153.3 124.9 Q152.35 122.0 151.95 120.0 151.25 116.45 150.95 110.05 150.65 103.25 150.15 100.25 149.2 94.15 147.45 90.45 L145.05 85.45 143.5 81.2 143.3 80.55 Q142.95 79.2 142.75 77.65 L142.25 69.9 Q141.6 61.75 140.1 54.6 L138.15 47.0 136.2 39.35 135.0 35.55 Q134.15 33.1 134.0 31.65 L133.2 24.1 Q133.2 22.35 133.35 21.35 L133.05 21.6 130.5 21.6 128.85 22.3 125.5 23.55 125.15 23.55 124.8 26.55 124.2 30.45 Q123.6 34.05 122.55 37.35 L117.5 51.15 Q114.25 60.65 113.25 64.85 112.65 67.5 112.3 71.8 L112.15 73.85 112.2 73.9 112.25 74.1 111.9 76.55 111.6 78.9 111.45 81.2 111.0 83.6 109.05 88.25 106.8 93.0 104.5 97.7 Q103.1 100.55 102.65 102.35 L100.2 111.75 Q98.3 119.95 94.05 129.05 L91.55 134.1 Q90.05 137.35 89.25 140.4 L87.55 146.75 Q86.75 150.15 86.75 152.95 L87.35 159.7 87.35 160.1 Q89.0 160.65 89.0 161.3 89.0 162.25 88.3 162.55 L85.75 162.8 Q83.1 162.8 78.35 160.6 74.1 158.65 73.5 157.8 72.35 156.2 72.1 154.55 L72.0 151.8 72.1 149.5 Q72.5 148.2 74.0 147.8 L74.6 148.0 76.05 139.4 77.85 127.55 Q78.5 119.35 79.2 115.85 79.55 111.85 80.1 109.95 L80.6 107.0 Q80.8 105.65 81.2 104.75 81.4 102.9 82.5 98.85 83.45 95.35 84.15 93.3 87.15 85.2 88.25 81.15 90.1 74.7 90.35 68.7 L90.3 61.75 90.35 61.75 90.55 57.3 90.75 52.05 90.7 47.2 Q90.7 45.85 90.85 44.75 L90.85 44.5 90.85 44.45 Q91.2 37.05 91.95 30.3 L93.8 15.0 94.95 7.35 Q95.7 4.7 95.7 3.45 L95.4 -0.25 95.45 -4.05 Q95.45 -4.85 95.6 -5.4 L95.65 -6.55 95.55 -6.7 95.55 -7.2 95.55 -7.4 95.55 -7.55 95.7 -7.25 95.85 -9.35 95.95 -10.1 95.85 -10.35 95.85 -10.6 95.8 -10.6 96.0 -10.65 96.1 -11.1 96.0 -12.15 Q96.0 -15.55 98.8 -23.75 100.55 -28.9 101.1 -32.15 L101.1 -32.8 101.25 -34.5 Q101.25 -37.2 100.15 -41.05 L98.0 -47.65 95.95 -54.15 95.15 -57.3 94.4 -60.25 Q93.65 -63.6 93.65 -67.9 L93.65 -69.25 93.3 -67.7 92.65 -65.55 92.55 -65.55 91.25 -60.85 89.3 -54.15 87.05 -46.8 Q85.7 -42.45 85.95 -40.8 L85.8 -40.75 85.75 -40.35 Q85.75 -38.1 86.4 -35.65 L87.75 -31.35 90.65 -22.5 93.4 -13.55 93.95 -11.85 94.55 -11.95 94.8 -11.7 95.0 -10.7 Q95.0 -9.25 92.0 -7.15 89.25 -5.2 88.25 -5.2 L86.75 -5.45 86.65 -5.7 Q86.5 -5.85 86.5 -6.6 86.5 -7.0 87.1 -7.6 85.5 -10.8 83.0 -16.65 L80.5 -21.95 Q79.0 -25.2 78.4 -27.3 L76.75 -33.05 76.1 -35.45 Q75.65 -36.3 75.55 -37.05 L75.5 -39.05 Q75.5 -45.65 78.4 -60.85 L80.5 -71.7 81.55 -77.2 81.95 -80.75 Q81.95 -82.85 83.2 -87.7 84.35 -92.1 85.1 -93.85 87.05 -98.6 88.65 -100.15 91.55 -103.15 96.85 -103.85 L96.7 -103.9 96.45 -104.1 Q96.35 -104.45 96.6 -104.7 L96.95 -105.05 97.1 -105.15 97.5 -105.4 97.7 -105.5 98.2 -105.7 98.5 -105.8 99.35 -105.6 99.75 -107.05 100.1 -108.2 100.35 -109.6 100.25 -109.65 98.35 -109.05 95.85 -108.2 95.5 -108.5 96.0 -109.0 96.9 -109.95 97.9 -111.35 98.8 -112.8 99.4 -114.15 Q99.85 -115.05 100.35 -117.3 L100.85 -119.0 99.8 -117.7 98.55 -116.25 95.2 -113.55 94.95 -113.55 94.9 -113.75 96.35 -116.55 98.2 -120.4 99.2 -123.65 99.35 -125.15 97.55 -124.0 Q95.65 -122.9 94.6 -122.55 L94.45 -122.8 Q94.45 -123.05 96.0 -124.7 L98.55 -127.9 99.25 -129.35 98.35 -129.25 98.15 -129.35 Q98.1 -129.1 98.1 -129.45 98.1 -129.6 99.45 -130.25 L99.7 -130.35 99.75 -130.55 100.65 -132.95 100.6 -133.1 98.45 -132.55 98.4 -132.8 Q98.4 -133.25 99.45 -133.9 L101.0 -134.8 103.55 -136.8 106.7 -140.75 106.75 -140.8 103.2 -139.6 102.8 -139.65 Q102.7 -139.6 102.7 -139.85 L106.05 -142.65 110.3 -145.9 Q112.5 -147.45 116.15 -149.0 L119.85 -150.15 Q123.1 -151.05 123.35 -150.5 L124.65 -150.4 125.35 -150.4 126.3 -150.55 M104.3 -140.55 L104.2 -140.5 104.3 -140.5 104.3 -140.55 M101.4 -130.55 L101.3 -130.45 101.4 -130.45 101.4 -130.55 M119.05 -102.35 L119.85 -101.8 121.55 -101.4 122.9 -101.2 Q124.5 -101.2 126.9 -102.1 L127.4 -102.35 127.5 -102.35 128.6 -103.35 Q131.05 -105.6 131.9 -107.2 L134.1 -110.6 134.85 -112.35 135.15 -112.85 135.55 -114.4 Q135.75 -115.25 136.1 -115.75 L136.1 -115.8 137.1 -116.55 Q138.1 -116.9 138.15 -117.85 138.15 -119.0 138.4 -119.55 137.95 -119.95 137.65 -121.0 L137.6 -121.25 136.4 -122.7 Q135.45 -124.25 135.25 -126.0 L135.2 -127.45 Q132.55 -125.0 131.75 -125.0 L131.55 -125.05 131.4 -125.05 131.4 -125.3 132.5 -126.85 Q133.65 -128.55 134.15 -130.0 L134.6 -131.55 134.3 -131.8 132.0 -129.25 127.5 -125.65 Q126.8 -125.2 124.1 -124.35 L121.55 -123.55 121.05 -123.7 123.4 -125.5 125.9 -127.25 Q127.35 -128.55 128.4 -130.85 L128.5 -131.0 125.75 -128.35 Q124.05 -126.7 122.05 -125.5 L121.3 -125.6 120.9 -125.75 120.8 -125.65 Q119.7 -124.6 118.3 -124.85 L117.65 -124.4 Q117.05 -123.85 116.3 -124.25 115.95 -124.45 115.9 -124.8 L115.9 -125.2 116.4 -126.0 116.5 -126.3 116.5 -126.7 Q116.65 -127.2 116.05 -127.35 L115.7 -127.4 114.7 -125.75 113.7 -123.9 114.15 -123.95 118.25 -121.8 119.2 -121.5 Q119.95 -121.45 119.95 -121.1 L119.85 -120.85 119.9 -120.75 119.9 -120.6 119.7 -120.35 119.6 -120.25 120.05 -119.75 119.9 -119.6 119.9 -119.35 119.6 -118.85 119.2 -118.45 118.9 -118.45 Q118.15 -118.1 117.1 -118.1 115.6 -118.1 114.7 -119.0 L114.2 -119.6 114.15 -120.1 114.2 -120.5 113.85 -120.6 113.6 -120.6 113.55 -120.75 113.95 -121.05 114.1 -121.1 114.05 -121.15 Q113.85 -121.4 114.0 -121.6 L114.15 -121.7 114.7 -121.5 115.25 -121.3 115.5 -121.35 115.4 -121.45 Q115.0 -121.75 115.4 -121.95 L116.05 -121.7 116.2 -121.75 117.45 -121.6 117.55 -121.6 116.45 -122.15 Q115.25 -122.7 115.05 -122.9 L114.35 -123.3 113.6 -123.45 113.5 -123.45 113.25 -122.8 111.75 -118.8 111.75 -118.6 111.75 -118.5 111.8 -118.15 111.75 -117.8 111.55 -113.1 111.7 -112.35 Q112.1 -111.1 114.05 -108.4 L115.5 -106.6 116.9 -104.75 118.5 -102.85 119.1 -102.45 119.0 -102.4 119.05 -102.35 M96.5 -108.75 L96.45 -108.8 96.45 -108.75 96.5 -108.75 M95.95 -114.65 L95.95 -114.7 95.9 -114.65 95.95 -114.65 M95.45 -123.35 L95.4 -123.45 95.35 -123.35 95.45 -123.35 M99.15 -133.15 L99.05 -133.05 99.15 -133.05 99.15 -133.15 M99.65 -106.15 L99.5 -105.6 99.55 -105.6 99.65 -106.1 99.65 -106.15 M93.75 -70.85 Q93.85 -72.55 94.55 -73.5 L94.55 -73.45 94.3 -72.25 94.15 -71.1 94.05 -68.95 94.05 -68.4 94.5 -69.05 95.25 -70.15 96.05 -72.4 97.05 -76.95 Q98.6 -83.3 98.65 -86.1 98.7 -93.4 98.9 -95.2 L99.05 -99.75 98.95 -101.45 98.4 -101.25 96.8 -101.3 96.65 -101.5 96.5 -101.9 96.2 -102.5 96.05 -103.0 96.15 -103.05 Q90.95 -102.1 88.25 -98.85 87.0 -97.35 86.05 -95.0 L84.85 -91.8 84.25 -90.0 83.9 -88.2 82.85 -84.45 82.3 -80.05 82.1 -78.45 82.1 -78.15 82.0 -77.25 81.85 -75.9 78.95 -61.3 Q75.95 -45.45 75.95 -39.1 L76.15 -36.8 Q77.6 -31.45 78.95 -27.4 79.65 -25.25 81.05 -21.95 L83.45 -16.65 Q85.65 -11.45 87.5 -7.95 88.2 -8.65 89.55 -9.6 91.9 -11.25 93.55 -11.75 L93.0 -13.45 Q91.65 -18.55 90.2 -22.35 87.8 -28.95 87.2 -31.35 L85.8 -36.0 Q85.25 -38.0 85.25 -40.25 85.25 -41.5 85.55 -43.35 L85.75 -43.35 Q86.15 -45.25 87.3 -49.15 L89.05 -54.9 90.9 -61.35 91.7 -65.05 Q92.2 -67.15 92.7 -67.7 L92.85 -68.55 93.1 -69.1 93.25 -69.55 93.5 -70.65 93.65 -70.65 93.7 -70.45 93.75 -70.85 M116.7 -120.9 L116.25 -120.85 116.15 -120.6 116.15 -120.2 Q116.15 -119.7 116.35 -119.5 L116.65 -119.2 117.1 -119.1 117.25 -119.0 Q117.75 -119.0 118.05 -119.6 L118.1 -119.5 118.3 -119.3 118.35 -119.25 117.95 -118.9 117.85 -118.85 117.95 -118.85 118.0 -118.75 118.05 -118.65 118.05 -118.6 118.15 -118.6 118.55 -118.55 118.6 -118.65 118.75 -118.8 118.95 -119.05 119.35 -119.6 119.55 -119.75 118.6 -120.2 118.55 -120.1 118.35 -119.3 118.3 -119.45 118.15 -119.6 118.1 -119.7 118.15 -120.05 118.05 -120.4 118.05 -120.45 117.9 -120.55 117.45 -120.75 116.7 -120.9 M117.2 -118.5 L117.15 -118.55 117.15 -118.6 Q116.75 -118.65 116.4 -118.85 L115.95 -119.3 Q115.8 -119.5 115.8 -120.2 L115.85 -120.75 115.6 -120.75 115.0 -120.6 114.75 -120.55 114.75 -120.3 114.8 -119.85 115.45 -119.0 Q115.85 -118.5 117.15 -118.5 L117.2 -118.5 M109.95 -118.35 Q110.1 -119.2 110.6 -120.0 L111.05 -120.75 Q110.65 -120.55 110.15 -119.75 L109.3 -118.6 109.35 -118.6 109.95 -118.25 109.95 -118.35 M103.45 -106.7 L102.05 -105.85 101.5 -105.35 102.0 -105.4 103.2 -105.45 103.45 -106.7 M112.75 -108.8 L112.7 -106.85 112.45 -105.3 112.45 -105.25 Q112.05 -104.0 111.35 -103.5 L111.4 -103.4 Q110.75 -103.05 110.25 -103.05 L107.3 -103.15 105.1 -103.25 104.0 -103.3 101.5 -103.0 101.25 -96.0 101.5 -89.95 101.65 -84.1 Q102.1 -82.15 103.55 -80.0 L107.3 -75.1 Q108.3 -73.65 112.0 -71.25 117.05 -67.95 121.5 -67.95 L124.45 -68.4 124.65 -68.5 124.55 -68.35 125.3 -68.8 128.7 -70.8 Q130.3 -71.75 133.45 -74.2 134.95 -75.3 137.3 -78.25 L140.0 -81.9 140.0 -82.0 Q140.0 -83.0 140.5 -85.4 140.95 -87.4 140.65 -88.5 140.65 -92.8 141.3 -94.6 L140.6 -94.7 138.55 -95.25 138.2 -95.35 Q135.15 -96.5 133.25 -98.4 132.1 -99.55 131.6 -100.8 L131.75 -100.85 131.3 -101.95 131.25 -103.35 131.1 -103.55 131.15 -103.6 131.25 -103.5 131.25 -103.65 131.45 -105.5 129.6 -103.55 129.2 -103.2 127.25 -101.5 127.15 -101.7 126.3 -101.3 Q124.85 -100.75 122.85 -100.75 120.7 -100.75 119.3 -101.6 L118.95 -101.85 119.05 -101.6 117.65 -102.85 116.25 -104.6 113.4 -108.35 112.9 -108.9 112.9 -108.95 112.75 -109.15 112.75 -108.8 M112.05 -106.9 L112.2 -106.75 112.2 -107.1 112.05 -106.9 M124.05 -133.75 L124.15 -133.85 124.05 -133.8 123.8 -133.7 123.9 -133.55 124.05 -133.75 M123.9 -124.9 L123.75 -124.85 123.9 -124.85 123.9 -124.9 M137.05 -128.65 L136.85 -129.05 136.5 -128.7 136.75 -128.7 137.05 -128.65 M131.65 -121.15 L132.05 -120.9 132.5 -120.55 132.6 -120.4 132.55 -120.35 132.7 -120.1 Q132.7 -119.85 132.0 -119.85 L131.85 -119.85 131.9 -119.5 Q131.9 -118.75 131.55 -118.5 130.25 -117.7 129.6 -117.7 L127.5 -118.1 126.8 -118.6 126.9 -118.75 126.8 -118.85 126.65 -119.05 126.45 -119.55 126.5 -119.65 126.25 -119.5 126.15 -119.65 126.55 -120.1 126.55 -120.2 126.55 -120.5 126.55 -120.55 126.65 -120.85 126.6 -120.85 126.65 -120.9 126.25 -120.75 126.05 -120.95 127.2 -121.6 128.45 -122.3 129.75 -123.05 Q130.95 -123.6 132.25 -123.6 L133.45 -123.35 134.05 -123.0 Q134.05 -122.8 133.65 -122.8 L133.05 -122.95 132.2 -123.1 130.85 -122.95 129.95 -122.5 129.55 -122.4 129.45 -122.3 Q129.5 -122.2 129.15 -122.15 129.05 -122.15 128.5 -121.75 L128.3 -121.55 127.85 -121.45 127.7 -121.35 128.85 -121.55 128.95 -121.55 130.1 -121.55 131.05 -121.5 131.7 -121.25 131.65 -121.15 M127.8 -120.0 L127.25 -119.75 127.1 -119.65 127.05 -119.6 126.95 -119.55 127.05 -119.3 127.2 -119.0 127.3 -118.8 127.35 -118.65 127.8 -118.5 129.25 -118.2 Q130.05 -118.2 130.65 -118.5 131.3 -118.85 131.3 -119.4 L131.2 -120.1 131.0 -120.2 130.4 -120.4 130.35 -120.4 130.45 -119.85 130.2 -119.05 129.85 -118.7 129.05 -118.5 Q128.3 -118.5 128.05 -119.0 L127.8 -119.6 127.85 -120.0 127.8 -120.0 M126.9 -119.75 L126.85 -119.75 126.8 -119.8 127.05 -119.6 127.1 -119.65 127.2 -119.75 127.0 -119.7 126.9 -119.75 M129.05 -118.9 Q129.95 -118.9 130.05 -119.85 L129.85 -120.45 129.8 -120.45 129.3 -120.45 128.15 -120.15 Q128.2 -118.9 129.05 -118.9 M166.75 -38.2 Q166.75 -35.85 162.8 -24.45 L161.0 -19.75 162.85 -18.3 166.5 -14.6 171.0 -22.9 Q173.7 -28.05 174.95 -31.15 L176.6 -35.25 177.2 -37.3 177.25 -38.35 177.35 -38.95 177.15 -40.0 176.8 -42.15 175.55 -46.45 Q173.05 -51.7 171.7 -55.0 L170.4 -57.15 Q169.8 -57.9 169.35 -59.25 L168.45 -61.35 167.35 -63.45 163.15 -72.0 158.55 -80.7 Q156.9 -83.75 155.8 -84.9 155.15 -85.6 154.45 -86.9 L153.15 -89.1 151.2 -91.1 149.0 -92.85 147.75 -93.55 145.25 -94.2 144.2 -94.3 Q142.65 -87.7 142.65 -82.35 142.65 -80.2 144.6 -72.15 L145.85 -67.1 Q146.45 -64.75 147.35 -63.0 L147.5 -65.4 147.55 -67.25 Q147.65 -68.35 148.05 -68.85 L148.05 -68.6 148.05 -66.65 150.45 -63.25 152.75 -59.7 Q153.95 -57.55 155.5 -56.1 L156.95 -54.4 158.2 -52.5 163.05 -45.5 Q165.35 -42.1 166.45 -39.5 L166.75 -38.95 166.75 -38.9 166.95 -38.35 166.95 -38.25 166.9 -38.3 166.75 -38.5 166.75 -38.2 M96.75 -13.35 Q96.6 -12.9 96.6 -12.1 L96.6 -11.95 96.35 -10.45 96.95 -9.9 Q97.75 -8.95 99.3 -8.4 L103.05 -6.85 107.3 -5.35 113.95 -4.35 119.55 -4.2 127.75 -4.7 Q131.4 -5.25 135.5 -6.55 137.35 -7.1 139.75 -8.25 L143.25 -9.85 Q144.85 -10.35 146.75 -11.3 146.85 -11.85 147.85 -12.3 149.15 -12.95 149.45 -13.3 L151.95 -15.4 154.1 -17.55 154.6 -18.7 Q154.8 -19.3 155.15 -19.55 L154.15 -21.25 152.75 -24.0 151.1 -26.55 150.05 -25.05 148.35 -22.9 146.2 -20.9 143.7 -18.9 Q140.65 -16.7 136.3 -14.95 132.1 -13.25 129.75 -13.15 L129.75 -13.05 120.45 -12.15 Q116.45 -12.15 108.2 -13.5 105.35 -14.0 103.05 -14.95 101.65 -15.5 100.0 -16.6 L97.6 -18.2 Q96.95 -15.55 96.6 -13.2 L96.75 -13.35" fill="#000000" fill-rule="evenodd" stroke="none"/>
    <path d="M126.85 -107.9 L126.95 -107.95 127.0 -107.95 127.0 -107.9 126.9 -107.85 126.85 -107.9" fill="#cc008f" fill-rule="evenodd" stroke="none"/>
    <path d="M96.75 -13.35 L96.6 -13.2 Q96.95 -15.55 97.6 -18.2 L100.0 -16.6 Q101.65 -15.5 103.05 -14.95 105.35 -14.0 108.2 -13.5 116.45 -12.15 120.45 -12.15 L129.75 -13.05 129.75 -13.15 Q132.1 -13.25 136.3 -14.95 140.65 -16.7 143.7 -18.9 L146.2 -20.9 148.35 -22.9 150.05 -25.05 151.1 -26.55 152.75 -24.0 154.15 -21.25 155.15 -19.55 Q154.8 -19.3 154.6 -18.7 L154.1 -17.55 151.95 -15.4 149.45 -13.3 Q149.15 -12.95 147.85 -12.3 146.85 -11.85 146.75 -11.3 144.85 -10.35 143.25 -9.85 L139.75 -8.25 Q137.35 -7.1 135.5 -6.55 131.4 -5.25 127.75 -4.7 L119.55 -4.2 113.95 -4.35 107.3 -5.35 103.05 -6.85 99.3 -8.4 Q97.75 -8.95 96.95 -9.9 L96.35 -10.45 96.6 -11.95 96.6 -12.1 Q96.6 -12.9 96.75 -13.35" fill="#405b84" fill-rule="evenodd" stroke="none"/>
    <path d="M124.05 -133.8 L124.15 -133.85 124.05 -133.75 124.05 -133.8" fill="url(#gradient0)" fill-rule="evenodd" stroke="none"/>
    <path d="M124.05 -133.8 L124.05 -133.75 124.05 -133.8" fill="#009999" fill-rule="evenodd" stroke="none"/>
    <path d="M93.65 -70.65 L93.75 -70.85 93.7 -70.45 93.65 -70.65 M112.75 -108.8 L112.75 -109.15 112.9 -108.95 112.75 -108.8 M166.75 -38.2 L166.75 -38.5 166.9 -38.3 166.75 -38.2" fill="url(#gradient1)" fill-rule="evenodd" stroke="none"/>
    <path d="M112.9 -108.9 L112.75 -108.8 112.9 -108.95 112.9 -108.9" fill="url(#gradient2)" fill-rule="evenodd" stroke="none"/>
    <path d="M112.9 -108.9 L113.4 -108.35 116.25 -104.6 117.65 -102.85 119.05 -101.6 118.95 -101.85 119.3 -101.6 Q120.7 -100.75 122.85 -100.75 124.85 -100.75 126.3 -101.3 L127.15 -101.7 127.25 -101.5 129.2 -103.2 129.6 -103.55 131.45 -105.5 131.25 -103.65 131.25 -103.5 131.15 -103.6 131.1 -103.55 131.25 -103.35 131.3 -101.95 131.75 -100.85 131.6 -100.8 Q132.1 -99.55 133.25 -98.4 135.15 -96.5 138.2 -95.35 L138.55 -95.25 140.6 -94.7 141.3 -94.6 Q140.65 -92.8 140.65 -88.5 140.95 -87.4 140.5 -85.4 140.0 -83.0 140.0 -82.0 L140.0 -81.9 137.3 -78.25 Q134.95 -75.3 133.45 -74.2 130.3 -71.75 128.7 -70.8 L125.3 -68.8 124.55 -68.35 124.65 -68.5 124.45 -68.4 121.5 -67.95 Q117.05 -67.95 112.0 -71.25 108.3 -73.65 107.3 -75.1 L103.55 -80.0 Q102.1 -82.15 101.65 -84.1 L101.5 -89.95 101.25 -96.0 101.5 -103.0 104.0 -103.3 105.1 -103.25 107.3 -103.15 110.25 -103.05 Q110.75 -103.05 111.4 -103.4 L111.35 -103.5 Q112.05 -104.0 112.45 -105.25 L112.45 -105.3 112.7 -106.85 112.75 -108.8 112.9 -108.9" fill="url(#gradient3)" fill-rule="evenodd" stroke="none"/>
    <path d="M166.75 -38.2 L166.9 -38.3 166.75 -38.2" fill="url(#gradient4)" fill-rule="evenodd" stroke="none"/>
    <path d="M166.95 -38.25 L166.75 -38.2 166.9 -38.3 166.95 -38.25" fill="url(#gradient5)" fill-rule="evenodd" stroke="none"/>
    <path d="M166.95 -38.25 L166.95 -38.35 166.75 -38.9 166.75 -38.95 166.45 -39.5 Q165.35 -42.1 163.05 -45.5 L158.2 -52.5 156.95 -54.4 155.5 -56.1 Q153.95 -57.55 152.75 -59.7 L150.45 -63.25 148.05 -66.65 148.05 -68.6 148.05 -68.85 Q147.65 -68.35 147.55 -67.25 L147.5 -65.4 147.35 -63.0 Q146.45 -64.75 145.85 -67.1 L144.6 -72.15 Q142.65 -80.2 142.65 -82.35 142.65 -87.7 144.2 -94.3 L145.25 -94.2 147.75 -93.55 149.0 -92.85 151.2 -91.1 153.15 -89.1 154.45 -86.9 Q155.15 -85.6 155.8 -84.9 156.9 -83.75 158.55 -80.7 L163.15 -72.0 167.35 -63.45 168.45 -61.35 169.35 -59.25 Q169.8 -57.9 170.4 -57.15 L171.7 -55.0 Q173.05 -51.7 175.55 -46.45 L176.8 -42.15 177.15 -40.0 177.35 -38.95 177.25 -38.35 177.2 -37.3 176.6 -35.25 174.95 -31.15 Q173.7 -28.05 171.0 -22.9 L166.5 -14.6 162.85 -18.3 161.0 -19.75 162.8 -24.45 Q166.75 -35.85 166.75 -38.2 L166.95 -38.25" fill="url(#gradient6)" fill-rule="evenodd" stroke="none"/>
    <path d="M93.65 -70.65 L93.5 -70.65 93.25 -69.55 93.1 -69.1 92.85 -68.55 92.7 -67.7 Q92.2 -67.15 91.7 -65.05 L90.9 -61.35 89.05 -54.9 87.3 -49.15 Q86.15 -45.25 85.75 -43.35 L85.55 -43.35 Q85.25 -41.5 85.25 -40.25 85.25 -38.0 85.8 -36.0 L87.2 -31.35 Q87.8 -28.95 90.2 -22.35 91.65 -18.55 93.0 -13.45 L93.55 -11.75 Q91.9 -11.25 89.55 -9.6 88.2 -8.65 87.5 -7.95 85.65 -11.45 83.45 -16.65 L81.05 -21.95 Q79.65 -25.25 78.95 -27.4 77.6 -31.45 76.15 -36.8 L75.95 -39.1 Q75.95 -45.45 78.95 -61.3 L81.85 -75.9 82.0 -77.25 82.1 -78.15 82.1 -78.45 82.3 -80.05 82.85 -84.45 83.9 -88.2 84.25 -90.0 84.85 -91.8 86.05 -95.0 Q87.0 -97.35 88.25 -98.85 90.95 -102.1 96.15 -103.05 L96.05 -103.0 96.2 -102.5 96.5 -101.9 96.65 -101.5 96.8 -101.3 98.4 -101.25 98.95 -101.45 99.05 -99.75 98.9 -95.2 Q98.7 -93.4 98.65 -86.1 98.6 -83.3 97.05 -76.95 L96.05 -72.4 95.25 -70.15 94.5 -69.05 94.05 -68.4 94.05 -68.95 94.15 -71.1 94.3 -72.25 94.55 -73.45 94.55 -73.5 Q93.85 -72.55 93.75 -70.85 L93.65 -70.65" fill="url(#gradient7)" fill-rule="evenodd" stroke="none"/>
    <path d="M119.1 -102.45 L118.5 -102.85 116.9 -104.75 115.5 -106.6 114.05 -108.4 Q112.1 -111.1 111.7 -112.35 L111.55 -113.1 111.75 -117.8 111.8 -118.15 111.75 -118.5 111.75 -118.6 111.75 -118.8 113.25 -122.8 113.5 -123.45 113.6 -123.45 114.35 -123.3 115.05 -122.9 Q115.25 -122.7 116.45 -122.15 L117.55 -121.6 117.45 -121.6 116.2 -121.75 116.05 -121.7 115.4 -121.95 Q115.0 -121.75 115.4 -121.45 L115.5 -121.35 115.25 -121.3 114.7 -121.5 114.15 -121.7 114.0 -121.6 Q113.85 -121.4 114.05 -121.15 L114.1 -121.1 113.95 -121.05 113.55 -120.75 113.6 -120.6 113.85 -120.6 114.2 -120.5 114.15 -120.1 114.2 -119.6 114.7 -119.0 Q115.6 -118.1 117.1 -118.1 118.15 -118.1 118.9 -118.45 L119.2 -118.45 119.6 -118.85 119.9 -119.35 119.9 -119.6 120.05 -119.75 119.6 -120.25 119.7 -120.35 119.9 -120.6 119.9 -120.75 119.85 -120.85 119.95 -121.1 Q119.95 -121.45 119.2 -121.5 L118.25 -121.8 114.15 -123.95 113.7 -123.9 114.7 -125.75 115.7 -127.4 116.05 -127.35 Q116.65 -127.2 116.5 -126.7 L116.5 -126.3 116.4 -126.0 115.9 -125.2 115.9 -124.8 Q115.95 -124.45 116.3 -124.25 117.05 -123.85 117.65 -124.4 L118.3 -124.85 Q119.7 -124.6 120.8 -125.65 L120.9 -125.75 121.3 -125.6 122.05 -125.5 Q124.05 -126.7 125.75 -128.35 L128.5 -131.0 128.4 -130.85 Q127.35 -128.55 125.9 -127.25 L123.4 -125.5 121.05 -123.7 121.55 -123.55 124.1 -124.35 Q126.8 -125.2 127.5 -125.65 L132.0 -129.25 134.3 -131.8 134.6 -131.55 134.15 -130.0 Q133.65 -128.55 132.5 -126.85 L131.4 -125.3 131.4 -125.05 131.55 -125.05 131.75 -125.0 Q132.55 -125.0 135.2 -127.45 L135.25 -126.0 Q135.45 -124.25 136.4 -122.7 L137.6 -121.25 137.65 -121.0 Q137.95 -119.95 138.4 -119.55 138.15 -119.0 138.15 -117.85 138.1 -116.9 137.1 -116.55 L136.1 -115.8 136.1 -115.75 Q135.75 -115.25 135.55 -114.4 L135.15 -112.85 134.85 -112.35 134.1 -110.6 131.9 -107.2 Q131.05 -105.6 128.6 -103.35 L127.5 -102.35 127.4 -102.35 126.9 -102.1 Q124.5 -101.2 122.9 -101.2 L121.55 -101.4 119.85 -101.8 119.05 -102.35 119.1 -102.45 M109.95 -118.35 L109.95 -118.25 109.35 -118.6 109.3 -118.6 110.15 -119.75 Q110.65 -120.55 111.05 -120.75 L110.6 -120.0 Q110.1 -119.2 109.95 -118.35 M124.05 -133.8 L124.05 -133.75 123.9 -133.55 123.8 -133.7 124.05 -133.8 M131.65 -121.15 L131.7 -121.25 131.05 -121.5 130.1 -121.55 128.95 -121.55 128.85 -121.55 127.7 -121.35 127.85 -121.45 128.3 -121.55 128.5 -121.75 Q129.05 -122.15 129.15 -122.15 129.5 -122.2 129.45 -122.3 L129.55 -122.4 129.95 -122.5 130.85 -122.95 132.2 -123.1 133.05 -122.95 133.65 -122.8 Q134.05 -122.8 134.05 -123.0 L133.45 -123.35 132.25 -123.6 Q130.95 -123.6 129.75 -123.05 L128.45 -122.3 127.2 -121.6 126.05 -120.95 126.25 -120.75 126.65 -120.9 126.6 -120.85 126.65 -120.85 126.55 -120.55 126.55 -120.5 126.55 -120.2 126.55 -120.1 126.15 -119.65 126.25 -119.5 126.5 -119.65 126.45 -119.55 126.65 -119.05 126.8 -118.85 126.9 -118.75 126.8 -118.6 127.5 -118.1 129.6 -117.7 Q130.25 -117.7 131.55 -118.5 131.9 -118.75 131.9 -119.5 L131.85 -119.85 132.0 -119.85 Q132.7 -119.85 132.7 -120.1 L132.55 -120.35 132.6 -120.4 132.5 -120.55 132.05 -120.9 131.65 -121.15 M137.05 -128.65 L136.75 -128.7 136.5 -128.7 136.85 -129.05 137.05 -128.65 M126.9 -119.75 L127.0 -119.7 127.2 -119.75 127.1 -119.65 127.05 -119.6 126.8 -119.8 126.85 -119.75 126.9 -119.75 M126.85 -107.9 L126.9 -107.85 127.0 -107.9 127.0 -107.95 126.95 -107.95 126.85 -107.9" fill="url(#gradient8)" fill-rule="evenodd" stroke="none"/>
    <path d="M117.2 -118.5 L117.15 -118.5 Q115.85 -118.5 115.45 -119.0 L114.8 -119.85 114.75 -120.3 114.75 -120.55 115.0 -120.6 115.6 -120.75 115.85 -120.75 115.8 -120.2 Q115.8 -119.5 115.95 -119.3 L116.4 -118.85 Q116.75 -118.65 117.15 -118.6 L117.15 -118.55 117.2 -118.5 M116.7 -120.9 L117.45 -120.75 117.9 -120.55 118.05 -120.45 118.05 -120.4 118.15 -120.05 118.1 -119.7 118.15 -119.6 118.3 -119.45 118.35 -119.3 118.55 -120.1 118.6 -120.2 119.55 -119.75 119.35 -119.6 118.95 -119.05 118.75 -118.8 118.6 -118.65 118.55 -118.55 118.15 -118.6 118.05 -118.6 118.05 -118.65 118.0 -118.75 117.95 -118.85 117.85 -118.85 117.95 -118.9 118.35 -119.25 118.3 -119.3 118.1 -119.5 118.05 -119.6 Q117.75 -119.0 117.25 -119.0 L117.1 -119.1 116.65 -119.2 116.35 -119.5 Q116.15 -119.7 116.15 -120.2 L116.15 -120.6 116.25 -120.85 116.7 -120.9 M127.8 -120.0 L127.85 -120.0 127.8 -119.6 128.05 -119.0 Q128.3 -118.5 129.05 -118.5 L129.85 -118.7 130.2 -119.05 130.45 -119.85 130.35 -120.4 130.4 -120.4 131.0 -120.2 131.2 -120.1 131.3 -119.4 Q131.3 -118.85 130.65 -118.5 130.05 -118.2 129.25 -118.2 L127.8 -118.5 127.35 -118.65 127.3 -118.8 127.2 -119.0 127.05 -119.3 126.95 -119.55 127.05 -119.6 127.1 -119.65 127.25 -119.75 127.8 -120.0 M129.05 -118.9 Q128.2 -118.9 128.15 -120.15 L129.3 -120.45 129.8 -120.45 129.85 -120.45 130.05 -119.85 Q129.95 -118.9 129.05 -118.9" fill="#ffffff" fill-rule="evenodd" stroke="none"/>
  </g>
  <defs>
    <linearGradient gradientTransform="matrix(0.0, -0.0512, 0.0583, 0.0, 154.5, -85.65)" gradientUnits="userSpaceOnUse" id="gradient0" spreadMethod="pad" x1="-819.2" x2="819.2">
      <stop offset="0.0" stop-color="#000000"/>
      <stop offset="0.9882352941176471" stop-color="#405b84"/>
    </linearGradient>
    <linearGradient gradientTransform="matrix(0.0, -0.0512, 0.0583, 0.0, 154.5, -85.65)" gradientUnits="userSpaceOnUse" id="gradient1" spreadMethod="pad" x1="-819.2" x2="819.2">
      <stop offset="0.0" stop-color="#1d152f"/>
      <stop offset="0.9882352941176471" stop-color="#47527c"/>
    </linearGradient>
    <linearGradient gradientTransform="matrix(-9.0E-4, -0.0096, 0.0246, -0.0023, 121.9, -84.95)" gradientUnits="userSpaceOnUse" id="gradient2" spreadMethod="pad" x1="-819.2" x2="819.2">
      <stop offset="0.0" stop-color="#1d152f"/>
      <stop offset="0.9882352941176471" stop-color="#47527c"/>
    </linearGradient>
    <radialGradient cx="0" cy="0" gradientTransform="matrix(0.0462, 0.0, 0.0, 0.0462, 120.05, -71.8)" gradientUnits="userSpaceOnUse" id="gradient3" r="819.2" spreadMethod="pad">
      <stop offset="0.16862745098039217" stop-color="#7c95a5"/>
      <stop offset="0.5529411764705883" stop-color="#626c84"/>
      <stop offset="1.0" stop-color="#73718e"/>
    </radialGradient>
    <radialGradient cx="0" cy="0" gradientTransform="matrix(0.0887, 0.0, 0.0, 0.0887, 148.8, -84.55)" gradientUnits="userSpaceOnUse" id="gradient4" r="819.2" spreadMethod="pad">
      <stop offset="0.16862745098039217" stop-color="#7c95a5"/>
      <stop offset="0.5529411764705883" stop-color="#626c84"/>
      <stop offset="1.0" stop-color="#73718e"/>
    </radialGradient>
    <radialGradient cx="0" cy="0" gradientTransform="matrix(0.0933, 0.0, 0.0, 0.0933, 150.55, -88.8)" gradientUnits="userSpaceOnUse" id="gradient5" r="819.2" spreadMethod="pad">
      <stop offset="0.16862745098039217" stop-color="#7c95a5"/>
      <stop offset="0.5529411764705883" stop-color="#626c84"/>
      <stop offset="1.0" stop-color="#73718e"/>
    </radialGradient>
    <radialGradient cx="0" cy="0" gradientTransform="matrix(0.0685, 0.0, 0.0, 0.0685, 158.05, -69.55)" gradientUnits="userSpaceOnUse" id="gradient6" r="819.2" spreadMethod="pad">
      <stop offset="0.16862745098039217" stop-color="#7c95a5"/>
      <stop offset="0.5529411764705883" stop-color="#626c84"/>
      <stop offset="1.0" stop-color="#73718e"/>
    </radialGradient>
    <radialGradient cx="0" cy="0" gradientTransform="matrix(0.0872, 0.0, 0.0, 0.0872, 92.55, -79.05)" gradientUnits="userSpaceOnUse" id="gradient7" r="819.2" spreadMethod="pad">
      <stop offset="0.16862745098039217" stop-color="#7c95a5"/>
      <stop offset="0.5529411764705883" stop-color="#626c84"/>
      <stop offset="1.0" stop-color="#73718e"/>
    </radialGradient>
    <radialGradient cx="0" cy="0" gradientTransform="matrix(0.0318, 0.0, 0.0, 0.0318, 125.05, -109.65)" gradientUnits="userSpaceOnUse" id="gradient8" r="819.2" spreadMethod="pad">
      <stop offset="0.12549019607843137" stop-color="#7c95a5"/>
      <stop offset="0.5529411764705883" stop-color="#626c84"/>
      <stop offset="1.0" stop-color="#73718e"/>
    </radialGradient>
  </defs>
</svg>
