<?xml version="1.0" encoding="UTF-8" standalone="no"?>
<svg xmlns:xlink="http://www.w3.org/1999/xlink" height="394.9px" width="713.25px" xmlns="http://www.w3.org/2000/svg">
  <g transform="matrix(1.0, 0.0, 0.0, 1.0, 249.45, 208.2)">
    <path d="M5.1 -198.2 L6.5 -189.85 30.25 -189.55 Q30.1 -191.55 30.1 -193.55 L30.6 -201.2 31.2 -208.2 31.6 -208.2 Q31.8 -195.35 32.25 -189.5 L83.9 -187.85 92.65 -186.5 93.1 -186.4 Q96.3 -194.5 98.75 -197.3 98.2 -193.85 95.3 -186.1 L108.7 -185.2 Q108.1 -184.3 107.1 -183.85 105.2 -182.95 100.25 -182.95 L94.25 -183.4 Q91.85 -177.15 91.35 -173.05 L102.4 -174.25 116.85 -175.8 123.35 -177.05 127.75 -177.9 129.7 -181.05 Q136.3 -191.95 138.1 -194.3 135.75 -185.85 131.5 -178.5 L145.9 -181.2 Q153.85 -182.65 163.5 -183.55 L170.7 -183.4 177.1 -196.2 Q174.95 -189.5 172.45 -183.35 184.75 -183.0 189.25 -181.9 190.55 -181.6 192.65 -180.7 194.35 -180.0 196.5 -179.7 L224.35 -177.35 247.25 -175.3 Q267.05 -172.4 295.8 -169.95 L339.0 -167.45 350.2 -168.35 Q353.9 -169.3 358.55 -169.3 L391.85 -168.15 Q412.4 -166.7 415.95 -163.95 417.15 -163.0 419.05 -159.4 420.75 -156.2 424.2 -154.2 430.55 -150.45 432.85 -144.3 434.3 -140.35 434.3 -133.95 L433.95 -127.5 436.8 -126.05 433.9 -126.8 Q433.35 -122.3 432.15 -117.55 429.95 -108.85 429.95 -99.05 429.95 -94.4 431.45 -73.2 430.55 -56.85 431.2 -47.7 L432.55 -30.95 433.6 -30.4 434.2 -30.65 433.9 -30.2 436.05 -28.95 441.45 -26.8 441.55 -26.05 441.2 -25.65 440.05 -25.55 Q436.65 -25.55 432.85 -27.0 L433.25 -22.2 Q434.45 -6.8 434.45 3.7 L434.3 13.0 434.2 16.9 435.05 16.1 435.4 16.25 435.95 16.7 Q435.45 17.9 434.55 21.95 L433.95 24.9 433.8 27.2 433.7 27.2 Q433.8 34.95 435.35 62.8 L436.95 91.4 442.2 93.25 Q457.15 98.5 463.8 101.6 L463.8 101.7 Q452.0 98.75 437.05 93.4 L439.25 124.65 Q441.3 153.0 441.3 156.8 441.3 161.1 437.75 163.15 434.7 164.9 424.95 166.95 L411.95 170.3 Q401.0 172.75 389.3 172.75 370.2 172.1 332.3 171.5 L283.7 170.45 234.0 171.75 211.55 171.0 197.85 169.35 Q178.6 166.95 135.05 166.95 106.05 166.95 82.75 169.1 L55.95 171.25 40.9 170.25 34.85 169.2 33.6 169.05 32.95 170.05 31.95 170.7 Q28.75 170.7 23.35 168.05 L13.85 166.7 13.7 165.75 18.5 165.4 Q13.25 162.3 6.5 157.35 -4.65 149.2 -12.65 142.0 L-30.75 126.1 -48.3 110.2 -63.9 94.1 Q-74.35 82.9 -79.05 78.25 L-95.5 62.3 -111.3 46.75 Q-125.4 32.65 -134.5 14.75 -140.0 3.85 -146.95 -16.65 -148.35 -20.85 -154.3 -32.6 -159.7 -43.2 -160.95 -48.55 -161.2 -49.65 -166.6 -63.5 -169.4 -70.65 -170.5 -75.2 L-170.5 -75.35 Q-171.2 -78.2 -171.2 -80.0 L-170.85 -82.25 Q-170.4 -83.8 -169.8 -84.05 L-168.9 -80.4 -168.75 -80.75 Q-167.45 -83.25 -166.2 -84.3 -167.95 -87.3 -170.2 -93.05 -172.6 -99.15 -173.0 -102.1 -173.2 -103.45 -173.2 -109.95 -173.2 -123.4 -167.75 -130.25 L-165.25 -132.85 -166.8 -136.55 -170.0 -144.05 -173.2 -151.55 -178.3 -165.15 Q-182.95 -178.4 -182.95 -181.95 -182.95 -186.55 -174.45 -187.55 L-164.6 -188.4 -151.55 -189.95 Q-140.05 -191.9 -124.65 -193.25 L-101.05 -194.45 -62.35 -192.6 -26.05 -190.2 -16.3 -190.1 Q-14.7 -191.95 -12.05 -193.05 -6.55 -195.35 2.6 -194.2 L3.2 -193.45 Q-8.4 -192.25 -12.75 -190.05 L4.75 -189.9 4.7 -190.3 4.2 -194.45 4.4 -196.35 4.7 -198.2 5.1 -198.2 M47.7 -160.9 L47.7 -162.3 47.2 -162.7 Q46.35 -162.4 45.95 -161.45 L38.1 -163.7 Q38.1 -164.8 38.6 -165.55 L39.4 -165.35 Q35.1 -169.75 32.55 -177.9 31.15 -182.45 30.55 -186.95 L7.05 -187.4 Q8.2 -182.8 9.8 -178.95 L9.95 -179.05 Q16.95 -165.7 26.7 -158.45 L30.55 -155.6 Q29.2 -156.3 28.45 -156.45 L29.05 -155.6 28.65 -155.7 27.65 -155.75 25.55 -157.3 Q20.5 -161.2 15.65 -167.8 L9.85 -176.3 Q7.55 -177.5 6.8 -180.1 6.25 -183.5 5.7 -185.05 L5.2 -187.4 -15.5 -187.8 -16.3 -186.5 -17.7 -183.05 Q-18.9 -180.6 -19.5 -176.65 L-20.1 -171.75 Q-18.9 -170.6 -17.45 -168.45 L-14.7 -164.45 -7.95 -156.55 Q0.4 -147.6 9.45 -140.8 24.8 -129.15 35.1 -124.6 52.9 -116.7 76.2 -116.7 105.4 -116.7 127.35 -130.55 L127.7 -130.55 Q128.7 -130.55 130.9 -133.05 L132.05 -134.45 132.7 -134.25 Q138.0 -138.15 142.8 -142.95 153.15 -153.25 162.45 -168.6 165.7 -173.9 169.6 -181.3 L168.85 -181.3 Q156.85 -181.3 132.55 -176.35 L129.85 -175.8 Q121.0 -162.05 105.2 -152.3 101.2 -149.85 97.05 -147.85 L91.4 -145.85 90.0 -144.8 89.95 -144.8 84.55 -142.95 Q75.1 -140.05 68.2 -140.05 58.5 -140.05 52.4 -141.4 L50.7 -143.85 53.75 -143.15 53.95 -143.2 53.9 -143.1 68.25 -142.2 Q77.1 -142.2 86.85 -145.8 81.65 -147.5 79.0 -148.55 L70.15 -152.35 60.0 -156.5 Q53.95 -158.9 47.7 -160.9 M47.7 -153.55 L47.7 -155.2 Q49.55 -156.2 53.1 -157.7 L47.95 -153.8 47.7 -153.55 M86.85 -185.05 L70.25 -186.2 32.55 -186.9 32.55 -186.65 Q34.4 -174.25 41.1 -164.9 52.75 -161.7 59.85 -159.05 62.85 -157.2 68.05 -155.1 71.05 -153.85 77.6 -151.3 81.65 -149.7 90.35 -147.2 95.6 -149.45 101.1 -152.75 113.0 -159.9 119.2 -166.55 122.4 -170.0 125.85 -175.05 106.05 -171.5 91.2 -171.45 L91.2 -171.05 90.85 -170.3 Q89.4 -170.5 89.1 -171.2 L89.1 -171.55 88.35 -171.95 88.35 -172.55 89.05 -172.65 88.95 -174.2 Q88.95 -175.5 92.1 -183.85 L86.85 -185.05 M128.65 -129.15 Q104.95 -114.55 76.2 -114.55 52.9 -114.55 34.5 -122.6 22.95 -127.7 7.05 -139.8 2.35 -143.4 -2.6 -148.2 -6.3 -138.05 -13.55 -131.2 -16.95 -128.0 -24.0 -123.5 -31.7 -118.55 -36.2 -117.65 L-34.05 -116.3 -24.8 -112.8 Q-21.8 -111.6 -16.1 -108.15 L-7.8 -102.95 -3.85 -100.4 0.7 -97.7 Q5.5 -95.4 10.05 -93.55 15.2 -91.4 19.6 -88.25 L26.45 -83.45 Q43.55 -73.35 60.6 -64.7 L67.95 -60.8 Q73.55 -57.85 78.2 -55.8 83.4 -53.8 87.95 -52.55 88.6 -52.4 90.2 -50.7 L91.05 -49.85 92.65 -49.1 96.6 -46.7 109.2 -41.05 Q118.0 -36.95 129.6 -29.8 136.75 -25.5 150.9 -19.4 155.85 -17.3 162.4 -14.65 L162.35 -16.4 Q162.35 -17.85 162.7 -22.65 163.1 -28.5 163.6 -31.95 L164.05 -31.95 Q164.25 -32.45 165.2 -33.35 L165.5 -33.0 Q166.6 -36.0 172.0 -40.7 L175.0 -43.15 179.5 -47.65 198.45 -66.55 214.0 -83.1 Q222.2 -91.7 228.15 -97.25 L227.05 -97.75 Q213.7 -103.65 209.55 -105.05 L204.0 -107.0 183.0 -114.2 Q175.2 -117.1 168.45 -119.7 L147.0 -127.15 132.75 -131.8 128.65 -129.15 M139.2 -132.2 L149.0 -129.05 Q153.05 -127.4 169.2 -121.8 L210.55 -107.05 227.45 -100.1 Q238.65 -95.3 249.55 -92.05 260.45 -88.85 271.75 -85.05 L294.2 -77.3 Q299.9 -75.35 312.9 -70.45 326.0 -65.8 340.05 -62.55 350.7 -60.1 362.65 -55.5 L382.55 -47.8 382.7 -47.4 382.65 -47.2 Q389.05 -45.1 393.7 -44.55 392.55 -43.95 391.55 -43.0 L391.5 -43.25 384.0 -45.3 Q380.55 -46.2 378.65 -47.2 376.1 -47.95 371.65 -49.65 L360.2 -53.95 Q343.15 -59.85 336.95 -61.2 323.6 -64.05 310.7 -68.7 297.95 -73.6 292.05 -75.55 L270.35 -83.15 Q258.3 -87.4 247.8 -90.2 239.55 -92.4 229.65 -96.6 227.55 -93.95 219.85 -86.05 L199.25 -64.7 Q195.15 -60.25 183.05 -48.85 L181.35 -47.25 182.0 -47.55 Q180.65 -45.75 175.65 -41.75 170.0 -36.2 166.75 -32.45 L166.25 -32.45 Q166.15 -32.35 166.15 -32.75 L166.05 -32.6 165.85 -32.15 172.25 -28.0 Q176.3 -25.2 182.25 -23.55 184.65 -22.9 191.25 -19.5 197.2 -16.4 203.75 -15.05 205.25 -14.75 207.65 -13.5 L212.0 -11.2 Q212.95 -10.75 217.6 -9.4 L222.6 -7.8 Q227.05 -5.7 241.85 0.45 249.6 3.75 261.25 7.75 L279.25 13.95 287.75 17.35 Q293.55 19.55 300.75 21.45 304.6 22.45 309.75 24.8 L318.5 29.05 318.75 29.5 318.75 28.8 319.2 28.8 319.35 29.05 Q327.15 22.15 339.65 13.15 L364.05 -4.05 392.1 -24.55 Q401.0 -31.0 406.4 -34.45 L406.5 -34.3 407.95 -35.4 408.15 -35.5 409.35 -36.0 412.7 -37.65 412.7 -38.2 413.8 -38.0 414.85 -38.35 414.9 -38.35 414.95 -37.8 Q421.0 -36.55 429.15 -32.65 L429.5 -32.45 429.25 -35.45 428.2 -48.05 Q427.75 -53.15 428.2 -63.25 L428.7 -73.2 427.2 -99.05 Q427.2 -104.85 429.5 -116.5 L431.35 -127.45 418.45 -130.85 397.95 -135.95 Q394.75 -136.6 388.2 -138.8 L379.2 -141.95 Q373.7 -144.1 363.4 -146.9 L351.7 -150.3 Q351.55 -150.15 351.8 -149.6 L352.3 -148.55 350.9 -150.2 350.2 -151.2 Q348.45 -152.25 345.85 -157.45 342.95 -163.25 342.95 -164.15 L343.05 -164.85 339.05 -164.8 297.2 -167.5 265.0 -170.45 244.25 -173.05 Q228.85 -174.95 204.0 -176.05 201.3 -176.3 198.1 -177.25 L191.95 -179.0 Q183.85 -181.1 171.55 -181.25 158.35 -150.45 135.1 -133.45 L139.2 -132.2 M15.7 -133.05 L15.5 -133.3 16.6 -132.7 16.75 -132.3 Q16.5 -132.35 16.35 -132.75 L15.7 -133.05 M43.35 -53.8 L43.45 -53.55 53.7 -53.1 77.45 -51.55 86.2 -49.4 91.6 -48.3 91.4 -48.4 90.65 -48.9 89.2 -49.95 89.6 -50.0 Q88.1 -51.8 87.45 -52.05 L80.9 -54.2 75.45 -56.05 Q66.4 -60.4 57.1 -65.45 L39.3 -74.6 Q29.8 -79.45 25.55 -82.45 17.2 -88.35 11.3 -91.55 9.75 -92.4 6.45 -93.45 3.1 -94.5 1.55 -95.3 L-2.0 -97.55 -5.3 -99.7 Q-10.25 -102.8 -23.45 -109.3 -34.65 -114.8 -38.65 -117.05 L-60.3 -111.05 Q-70.25 -108.15 -96.65 -99.35 -114.8 -93.3 -129.65 -90.1 -139.25 -83.1 -141.75 -79.0 -143.8 -75.65 -143.8 -67.8 -143.8 -56.3 -138.35 -39.45 -133.5 -24.45 -126.7 -11.9 -109.5 19.95 -75.3 43.95 -106.4 28.65 -127.2 -8.7 -135.85 -24.25 -140.7 -40.4 -145.3 -55.75 -145.3 -67.55 -145.3 -72.55 -145.1 -73.9 -144.6 -77.85 -142.55 -80.3 -147.45 -76.45 -154.15 -76.45 -160.1 -76.45 -164.4 -81.7 L-164.9 -80.4 Q-165.6 -78.85 -165.95 -76.9 L-166.3 -76.9 Q-166.55 -79.8 -165.8 -82.55 L-167.75 -79.55 -168.35 -78.5 Q-166.85 -73.35 -164.0 -65.7 -159.2 -52.9 -159.05 -52.15 -157.85 -46.3 -152.9 -36.25 -146.45 -23.25 -145.3 -20.3 L-139.55 -4.75 Q-136.0 4.7 -133.05 11.1 -124.55 29.4 -110.7 43.5 -95.2 59.25 -78.2 75.35 -72.4 80.8 -62.8 91.2 L-47.45 107.25 -29.95 123.25 -12.15 139.2 -3.25 147.3 Q2.05 151.85 6.85 154.95 L19.6 163.15 23.75 165.5 30.65 166.3 30.45 166.0 30.7 165.7 Q31.55 166.05 32.2 166.5 L36.2 167.0 56.1 168.7 83.25 166.5 Q106.75 164.25 134.75 164.25 177.6 164.25 196.75 166.75 L210.6 168.45 234.05 169.2 253.95 168.45 272.75 167.95 284.0 167.75 306.3 168.35 332.8 169.0 Q370.2 169.6 389.3 170.2 398.9 170.2 405.15 168.75 L421.95 164.95 Q430.65 163.3 433.55 162.2 438.8 160.15 438.8 156.6 438.8 149.55 437.9 140.75 L436.3 124.0 434.4 92.45 419.65 86.8 Q390.25 74.65 374.55 68.7 366.95 65.8 353.95 61.4 340.95 57.05 334.2 54.45 L329.2 52.55 Q321.5 58.1 319.5 58.1 L318.0 58.2 316.55 58.25 314.8 57.95 Q310.75 57.55 297.0 50.7 280.7 42.3 275.45 39.85 273.05 38.8 266.5 36.7 L254.1 32.45 Q250.7 31.15 244.45 28.45 L233.5 23.95 Q229.2 22.25 224.1 19.8 218.0 16.8 216.0 15.95 213.2 14.75 206.9 12.55 201.0 10.45 196.75 8.55 L191.1 6.45 Q188.75 5.0 187.3 5.05 L184.1 4.8 Q180.55 3.75 178.7 2.45 176.65 1.0 175.35 0.55 170.5 -1.1 167.3 -3.55 164.65 -5.6 163.9 -7.6 L163.85 -7.55 163.5 -7.3 Q162.95 -8.2 162.6 -12.2 L162.55 -13.15 151.7 -17.7 Q136.75 -24.15 130.1 -28.3 125.75 -31.0 108.85 -39.15 99.5 -43.65 94.2 -46.7 93.65 -45.8 92.6 -45.8 90.75 -45.8 85.25 -47.4 L78.45 -49.05 61.45 -50.3 45.4 -51.25 Q46.05 -50.75 46.95 -50.35 L50.6 -48.55 50.7 -47.8 Q51.1 -47.45 49.85 -47.45 46.1 -47.45 42.8 -50.8 L42.35 -51.25 37.65 -51.05 31.45 -50.55 Q30.8 -50.4 28.95 -48.8 28.45 -48.4 27.5 -47.0 26.55 -45.6 26.35 -45.05 L24.65 -41.55 Q23.45 -39.05 23.7 -37.55 L22.9 -36.9 Q22.3 -36.5 21.95 -36.45 L21.1 -36.95 Q20.85 -37.3 20.85 -38.2 20.85 -39.6 24.45 -46.45 25.9 -49.15 27.35 -50.65 29.8 -53.1 33.1 -53.45 L40.0 -53.65 39.45 -54.2 Q38.7 -54.2 38.55 -54.55 L38.35 -55.2 Q39.15 -56.95 40.9 -56.1 42.35 -55.4 43.35 -53.8 M181.75 -41.75 L182.5 -41.55 182.0 -40.7 181.75 -41.75 M164.6 -28.55 L164.1 -24.3 Q163.6 -20.4 163.6 -18.45 L163.75 -14.1 164.35 -13.85 164.35 -13.05 164.35 -12.4 163.85 -12.65 163.95 -10.55 164.4 -11.05 164.55 -9.5 164.85 -8.9 Q165.45 -7.25 167.3 -5.45 170.15 -2.65 174.25 -0.95 L185.5 3.3 197.25 7.55 Q212.55 13.35 215.9 14.7 223.55 17.75 237.1 23.7 242.8 26.15 260.45 32.55 275.15 37.9 278.2 39.7 282.05 42.0 296.15 48.4 L315.85 57.15 317.4 56.85 Q317.15 56.0 317.05 54.8 L316.95 52.8 317.2 52.55 317.2 45.95 317.3 46.0 317.45 40.35 Q318.7 31.85 318.7 29.8 L318.7 29.7 317.7 29.95 Q316.25 29.95 313.1 28.1 L308.95 25.7 Q307.65 25.15 303.75 23.85 L298.25 22.2 Q291.1 20.8 285.9 18.5 L276.5 14.45 Q268.8 11.75 256.65 7.05 241.4 1.15 238.85 0.2 L227.85 -4.2 Q221.2 -6.8 215.0 -8.55 212.75 -9.15 210.5 -10.3 L206.0 -12.7 199.55 -14.6 193.85 -16.2 187.2 -19.95 Q183.1 -22.0 176.35 -23.8 175.05 -24.15 169.6 -27.55 165.3 -30.25 164.3 -31.25 L164.6 -28.55 M395.3 -25.0 L390.2 -21.2 366.2 -4.05 353.3 5.0 341.25 13.45 Q337.05 16.2 329.55 22.4 322.8 28.0 319.75 29.7 L319.7 29.7 319.7 29.75 320.0 31.1 Q320.0 33.35 319.45 37.5 318.8 42.25 318.7 44.45 L318.6 46.5 319.25 46.75 319.2 47.35 319.35 48.75 318.55 48.45 318.45 50.9 Q318.4 54.05 318.6 56.6 L318.95 56.55 Q324.2 55.15 328.35 52.2 L328.0 52.05 329.6 50.55 330.35 50.85 334.95 47.35 341.25 42.05 347.45 36.85 354.5 31.4 361.55 25.95 367.1 20.85 372.2 15.95 Q382.25 7.05 399.9 -5.65 L407.75 -11.25 407.8 -11.0 407.95 -10.85 Q421.2 -23.25 429.85 -28.35 L425.2 -30.8 416.85 -33.65 412.05 -35.05 410.8 -34.5 406.6 -32.7 401.3 -29.45 395.3 -25.0 M412.9 -13.0 Q409.8 -10.25 407.15 -8.85 382.35 9.15 373.7 16.2 L361.5 26.65 347.7 38.1 333.4 49.4 Q332.2 50.3 331.15 51.15 L335.25 52.65 374.05 66.85 Q382.05 69.8 396.2 75.6 L418.05 84.45 434.25 90.45 Q431.45 35.65 431.45 26.5 431.45 24.75 432.05 22.35 L431.95 21.35 431.75 18.3 431.8 14.95 431.7 8.6 431.7 2.2 Q431.85 -2.6 431.25 -10.35 430.45 -18.95 430.2 -22.9 L430.0 -26.55 427.1 -24.4 420.2 -19.65 412.9 -13.0 M-177.2 -167.2 L-171.45 -152.2 -165.25 -137.4 -163.85 -133.95 Q-160.85 -136.1 -156.75 -137.45 L-156.8 -138.05 -148.55 -140.1 -140.05 -142.05 Q-138.2 -142.5 -133.1 -144.75 L-124.45 -148.55 Q-121.15 -149.85 -111.15 -151.6 -100.2 -153.5 -97.15 -154.45 L-80.85 -159.4 Q-71.95 -164.6 -62.4 -175.3 -58.05 -180.2 -55.7 -181.9 -52.1 -184.55 -48.05 -184.55 -44.1 -184.55 -39.5 -182.55 -33.8 -180.1 -30.8 -179.55 -25.45 -178.55 -23.8 -176.85 L-21.3 -174.55 -21.45 -177.55 Q-21.45 -178.35 -19.6 -183.15 L-17.75 -187.85 -40.8 -188.3 -59.3 -190.45 Q-79.75 -192.45 -95.5 -192.45 L-123.25 -191.1 -149.05 -188.2 -166.45 -186.2 Q-181.2 -184.15 -181.2 -182.2 L-179.7 -175.9 -177.2 -167.2 M-169.45 -124.95 L-171.95 -116.25 Q-172.15 -114.85 -171.95 -109.95 L-171.7 -102.2 Q-171.15 -98.45 -168.95 -93.45 -166.7 -88.35 -164.8 -85.15 L-164.55 -84.7 -162.85 -82.2 Q-159.5 -77.95 -155.7 -77.95 -152.6 -77.95 -148.65 -79.15 -144.85 -80.35 -143.55 -81.55 L-139.3 -85.3 Q-137.6 -87.1 -134.6 -88.85 L-129.05 -92.3 -128.2 -92.0 -122.1 -93.95 -112.55 -96.45 Q-108.9 -97.4 -96.4 -101.3 -90.2 -103.2 -80.45 -106.75 -70.75 -110.0 -57.65 -113.05 -51.55 -114.5 -39.8 -117.95 -39.35 -118.5 -38.75 -118.55 L-38.65 -118.55 Q-38.2 -118.65 -37.8 -118.85 L-37.8 -118.6 Q-24.0 -123.55 -14.5 -132.85 -8.75 -138.45 -2.7 -148.3 -6.55 -152.05 -10.6 -156.5 -19.4 -166.25 -21.05 -170.8 L-23.2 -173.65 Q-25.1 -176.25 -29.05 -177.45 -33.5 -178.8 -39.8 -181.6 -43.65 -183.3 -46.55 -183.3 -52.7 -183.3 -57.8 -178.7 L-65.2 -170.55 Q-68.05 -167.55 -73.15 -163.35 -79.65 -158.05 -81.8 -158.05 L-82.15 -158.1 -96.9 -153.05 -108.85 -150.75 Q-120.3 -148.6 -122.2 -147.8 -133.55 -143.0 -137.55 -141.7 -142.15 -140.15 -148.45 -139.05 L-151.6 -138.55 -157.5 -135.9 Q-161.15 -134.3 -163.45 -132.9 -161.05 -126.7 -159.8 -122.2 -160.0 -121.6 -160.55 -121.3 -161.95 -122.75 -162.55 -125.05 -163.0 -127.65 -163.55 -129.05 L-164.85 -132.0 Q-166.9 -130.55 -167.9 -128.95 -168.55 -127.85 -169.45 -124.95 M-35.8 -156.95 L-37.0 -157.8 -37.25 -157.9 -36.8 -166.7 -36.45 -166.7 -35.8 -156.95 M-156.3 -137.8 L-156.4 -137.6 -155.1 -138.0 -156.3 -137.8" fill="#000000" fill-rule="evenodd" stroke="none"/>
    <path d="M43.35 -53.8 Q42.35 -55.4 40.9 -56.1 39.15 -56.95 38.35 -55.2 L38.55 -54.55 Q38.7 -54.2 39.45 -54.2 L40.0 -53.65 33.1 -53.45 Q29.8 -53.1 27.35 -50.65 25.9 -49.15 24.45 -46.45 20.85 -39.6 20.85 -38.2 20.85 -37.3 21.1 -36.95 L21.95 -36.45 Q22.3 -36.5 22.9 -36.9 L23.7 -37.55 Q23.45 -39.05 24.65 -41.55 L26.35 -45.05 Q26.55 -45.6 27.5 -47.0 28.45 -48.4 28.95 -48.8 30.8 -50.4 31.45 -50.55 L37.65 -51.05 42.35 -51.25 42.8 -50.8 Q46.1 -47.45 49.85 -47.45 51.1 -47.45 50.7 -47.8 L50.6 -48.55 46.95 -50.35 Q46.05 -50.75 45.4 -51.25 L61.45 -50.3 78.45 -49.05 85.25 -47.4 Q90.75 -45.8 92.6 -45.8 93.65 -45.8 94.2 -46.7 99.5 -43.65 108.85 -39.15 125.75 -31.0 130.1 -28.3 136.75 -24.15 151.7 -17.7 L162.55 -13.15 162.6 -12.2 Q162.95 -8.2 163.5 -7.3 L163.85 -7.55 163.9 -7.6 Q164.65 -5.6 167.3 -3.55 170.5 -1.1 175.35 0.55 176.65 1.0 178.7 2.45 180.55 3.75 184.1 4.8 L187.3 5.05 Q188.75 5.0 191.1 6.45 L196.75 8.55 Q201.0 10.45 206.9 12.55 213.2 14.75 216.0 15.95 218.0 16.8 224.1 19.8 229.2 22.25 233.5 23.95 L244.45 28.45 Q250.7 31.15 254.1 32.45 L266.5 36.7 Q273.05 38.8 275.45 39.85 280.7 42.3 297.0 50.7 310.75 57.55 314.8 57.95 L316.55 58.25 318.0 58.2 319.5 58.1 Q321.5 58.1 329.2 52.55 L334.2 54.45 Q340.95 57.05 353.95 61.4 366.95 65.8 374.55 68.7 390.25 74.65 419.65 86.8 L434.4 92.45 436.3 124.0 437.9 140.75 Q438.8 149.55 438.8 156.6 438.8 160.15 433.55 162.2 430.65 163.3 421.95 164.95 L405.15 168.75 Q398.9 170.2 389.3 170.2 370.2 169.6 332.8 169.0 L306.3 168.35 284.0 167.75 272.75 167.95 253.95 168.45 234.05 169.2 210.6 168.45 196.75 166.75 Q177.6 164.25 134.75 164.25 106.75 164.25 83.25 166.5 L56.1 168.7 36.2 167.0 32.2 166.5 Q31.55 166.05 30.7 165.7 L30.45 166.0 30.65 166.3 23.75 165.5 19.6 163.15 6.85 154.95 Q2.05 151.85 -3.25 147.3 L-12.15 139.2 -29.95 123.25 -47.45 107.25 -62.8 91.2 Q-72.4 80.8 -78.2 75.35 -95.2 59.25 -110.7 43.5 -124.55 29.4 -133.05 11.1 -136.0 4.7 -139.55 -4.75 L-145.3 -20.3 Q-146.45 -23.25 -152.9 -36.25 -157.85 -46.3 -159.05 -52.15 -159.2 -52.9 -164.0 -65.7 -166.85 -73.35 -168.35 -78.5 L-167.75 -79.55 -165.8 -82.55 Q-166.55 -79.8 -166.3 -76.9 L-165.95 -76.9 Q-165.6 -78.85 -164.9 -80.4 L-164.4 -81.7 Q-160.1 -76.45 -154.15 -76.45 -147.45 -76.45 -142.55 -80.3 -144.6 -77.85 -145.1 -73.9 -145.3 -72.55 -145.3 -67.55 -145.3 -55.75 -140.7 -40.4 -135.85 -24.25 -127.2 -8.7 -106.4 28.65 -75.3 43.95 -109.5 19.95 -126.7 -11.9 -133.5 -24.45 -138.35 -39.45 -143.8 -56.3 -143.8 -67.8 -143.8 -75.65 -141.75 -79.0 -139.25 -83.1 -129.65 -90.1 -114.8 -93.3 -96.65 -99.35 -70.25 -108.15 -60.3 -111.05 L-38.65 -117.05 Q-34.65 -114.8 -23.45 -109.3 -10.25 -102.8 -5.3 -99.7 L-2.0 -97.55 1.55 -95.3 Q3.1 -94.5 6.45 -93.45 9.75 -92.4 11.3 -91.55 17.2 -88.35 25.55 -82.45 29.8 -79.45 39.3 -74.6 L57.1 -65.45 Q66.4 -60.4 75.45 -56.05 L80.9 -54.2 87.45 -52.05 Q88.1 -51.8 89.6 -50.0 L89.2 -49.95 90.65 -48.9 91.4 -48.4 91.6 -48.3 86.2 -49.4 77.45 -51.55 53.7 -53.1 43.45 -53.55 43.35 -53.8" fill="#222222" fill-rule="evenodd" stroke="none"/>
    <path d="M50.7 -143.85 Q48.75 -146.85 48.2 -148.2 47.95 -148.75 47.65 -150.35 L47.7 -150.45 47.7 -153.55 47.95 -153.8 53.1 -157.7 Q49.55 -156.2 47.7 -155.2 L47.7 -160.9 Q53.95 -158.9 60.0 -156.5 L70.15 -152.35 79.0 -148.55 Q81.65 -147.5 86.85 -145.8 77.1 -142.2 68.25 -142.2 L53.9 -143.1 53.95 -143.2 53.75 -143.15 50.7 -143.85 M128.65 -129.15 L132.75 -131.8 147.0 -127.15 168.45 -119.7 Q175.2 -117.1 183.0 -114.2 L204.0 -107.0 209.55 -105.05 Q213.7 -103.65 227.05 -97.75 L228.15 -97.25 Q222.2 -91.7 214.0 -83.1 L198.45 -66.55 179.5 -47.65 175.0 -43.15 172.0 -40.7 Q166.6 -36.0 165.5 -33.0 L165.2 -33.35 Q164.25 -32.45 164.05 -31.95 L163.6 -31.95 Q163.1 -28.5 162.7 -22.65 162.35 -17.85 162.35 -16.4 L162.4 -14.65 Q155.85 -17.3 150.9 -19.4 136.75 -25.5 129.6 -29.8 118.0 -36.95 109.2 -41.05 L96.6 -46.7 92.65 -49.1 91.05 -49.85 90.2 -50.7 Q88.6 -52.4 87.95 -52.55 83.4 -53.8 78.2 -55.8 73.55 -57.85 67.95 -60.8 L60.6 -64.7 Q43.55 -73.35 26.45 -83.45 L19.6 -88.25 Q15.2 -91.4 10.05 -93.55 5.5 -95.4 0.7 -97.7 L-3.85 -100.4 -7.8 -102.95 -16.1 -108.15 Q-21.8 -111.6 -24.8 -112.8 L-34.05 -116.3 -36.2 -117.65 Q-31.7 -118.55 -24.0 -123.5 -16.95 -128.0 -13.55 -131.2 -6.3 -138.05 -2.6 -148.2 2.35 -143.4 7.05 -139.8 22.95 -127.7 34.5 -122.6 52.9 -114.55 76.2 -114.55 104.95 -114.55 128.65 -129.15 M15.7 -133.05 L16.35 -132.75 Q16.5 -132.35 16.75 -132.3 L16.6 -132.7 15.5 -133.3 15.7 -133.05 M164.6 -28.55 L164.3 -31.25 Q165.3 -30.25 169.6 -27.55 175.05 -24.15 176.35 -23.8 183.1 -22.0 187.2 -19.95 L193.85 -16.2 199.55 -14.6 206.0 -12.7 210.5 -10.3 Q212.75 -9.15 215.0 -8.55 221.2 -6.8 227.85 -4.2 L238.85 0.2 Q241.4 1.15 256.65 7.05 268.8 11.75 276.5 14.45 L285.9 18.5 Q291.1 20.8 298.25 22.2 L303.75 23.85 Q307.65 25.15 308.95 25.7 L313.1 28.1 Q316.25 29.95 317.7 29.95 L318.7 29.7 318.7 29.8 Q318.7 31.85 317.45 40.35 L317.3 46.0 317.2 45.95 317.2 52.55 316.95 52.8 317.05 54.8 Q317.15 56.0 317.4 56.85 L315.85 57.15 296.15 48.4 Q282.05 42.0 278.2 39.7 275.15 37.9 260.45 32.55 242.8 26.15 237.1 23.7 223.55 17.75 215.9 14.7 212.55 13.35 197.25 7.55 L185.5 3.3 174.25 -0.95 Q170.15 -2.65 167.3 -5.45 165.45 -7.25 164.85 -8.9 L164.55 -9.5 164.4 -11.05 163.95 -10.55 163.85 -12.65 164.35 -12.4 164.35 -13.05 164.35 -13.85 163.75 -14.1 163.6 -18.45 Q163.6 -20.4 164.1 -24.3 L164.6 -28.55 M412.9 -13.0 L420.2 -19.65 427.1 -24.4 430.0 -26.55 430.2 -22.9 Q430.45 -18.95 431.25 -10.35 431.85 -2.6 431.7 2.2 L431.7 8.6 431.8 14.95 431.75 18.3 431.95 21.35 432.05 22.35 Q431.45 24.75 431.45 26.5 431.45 35.65 434.25 90.45 L418.05 84.45 396.2 75.6 Q382.05 69.8 374.05 66.85 L335.25 52.65 331.15 51.15 Q332.2 50.3 333.4 49.4 L347.7 38.1 361.5 26.65 373.7 16.2 Q382.35 9.15 407.15 -8.85 409.8 -10.25 412.9 -13.0" fill="#111111" fill-rule="evenodd" stroke="none"/>
    <path d="M395.3 -25.0 L401.3 -29.45 406.6 -32.7 410.8 -34.5 412.05 -35.05 416.85 -33.65 425.2 -30.8 429.85 -28.35 Q421.2 -23.25 407.95 -10.85 L407.8 -11.0 407.75 -11.25 399.9 -5.65 Q382.25 7.05 372.2 15.95 L367.1 20.85 361.55 25.95 354.5 31.4 347.45 36.85 341.25 42.05 334.95 47.35 330.35 50.85 329.6 50.55 328.0 52.05 328.35 52.2 Q324.2 55.15 318.95 56.55 L318.6 56.6 Q318.4 54.05 318.45 50.9 L318.55 48.45 319.35 48.75 319.2 47.35 319.25 46.75 318.6 46.5 318.7 44.45 Q318.8 42.25 319.45 37.5 320.0 33.35 320.0 31.1 L319.7 29.75 319.7 29.7 319.75 29.7 Q322.8 28.0 329.55 22.4 337.05 16.2 341.25 13.45 L353.3 5.0 366.2 -4.05 390.2 -21.2 395.3 -25.0 M-169.45 -124.95 Q-168.55 -127.85 -167.9 -128.95 -166.9 -130.55 -164.85 -132.0 L-163.55 -129.05 Q-163.0 -127.65 -162.55 -125.05 -161.95 -122.75 -160.55 -121.3 -160.0 -121.6 -159.8 -122.2 -161.05 -126.7 -163.45 -132.9 -161.15 -134.3 -157.5 -135.9 L-151.6 -138.55 -148.45 -139.05 Q-142.15 -140.15 -137.55 -141.7 -133.55 -143.0 -122.2 -147.8 -120.3 -148.6 -108.85 -150.75 L-96.9 -153.05 -82.15 -158.1 -81.8 -158.05 Q-79.65 -158.05 -73.15 -163.35 -68.05 -167.55 -65.2 -170.55 L-57.8 -178.7 Q-52.7 -183.3 -46.55 -183.3 -43.65 -183.3 -39.8 -181.6 -33.5 -178.8 -29.05 -177.45 -25.1 -176.25 -23.2 -173.65 L-21.05 -170.8 Q-19.4 -166.25 -10.6 -156.5 -6.55 -152.05 -2.7 -148.3 -8.75 -138.45 -14.5 -132.85 -24.0 -123.55 -37.8 -118.6 L-37.8 -118.85 Q-38.2 -118.65 -38.65 -118.55 L-38.75 -118.55 Q-39.35 -118.5 -39.8 -117.95 -51.55 -114.5 -57.65 -113.05 -70.75 -110.0 -80.45 -106.75 -90.2 -103.2 -96.4 -101.3 -108.9 -97.4 -112.55 -96.45 L-122.1 -93.95 -128.2 -92.0 -129.05 -92.3 -134.6 -88.85 Q-137.6 -87.1 -139.3 -85.3 L-143.55 -81.55 Q-144.85 -80.35 -148.65 -79.15 -152.6 -77.95 -155.7 -77.95 -159.5 -77.95 -162.85 -82.2 L-164.55 -84.7 -164.8 -85.15 Q-166.7 -88.35 -168.95 -93.45 -171.15 -98.45 -171.7 -102.2 L-171.95 -109.95 Q-172.15 -114.85 -171.95 -116.25 L-169.45 -124.95 M-35.8 -156.95 L-36.45 -166.7 -36.8 -166.7 -37.25 -157.9 -37.0 -157.8 -35.8 -156.95" fill="#333333" fill-rule="evenodd" stroke="none"/>
    <path d="M50.7 -143.85 L52.4 -141.4 Q58.5 -140.05 68.2 -140.05 75.1 -140.05 84.55 -142.95 L89.95 -144.8 90.0 -144.8 91.4 -145.85 97.05 -147.85 Q101.2 -149.85 105.2 -152.3 121.0 -162.05 129.85 -175.8 L132.55 -176.35 Q156.85 -181.3 168.85 -181.3 L169.6 -181.3 Q165.7 -173.9 162.45 -168.6 153.15 -153.25 142.8 -142.95 138.0 -138.15 132.7 -134.25 L132.05 -134.45 130.9 -133.05 Q128.7 -130.55 127.7 -130.55 L127.35 -130.55 Q105.4 -116.7 76.2 -116.7 52.9 -116.7 35.1 -124.6 24.8 -129.15 9.45 -140.8 0.4 -147.6 -7.95 -156.55 L-14.7 -164.45 -17.45 -168.45 Q-18.9 -170.6 -20.1 -171.75 L-19.5 -176.65 Q-18.9 -180.6 -17.7 -183.05 L-16.3 -186.5 -15.5 -187.8 5.2 -187.4 5.7 -185.05 Q6.25 -183.5 6.8 -180.1 7.55 -177.5 9.85 -176.3 L15.65 -167.8 Q20.5 -161.2 25.55 -157.3 L27.65 -155.75 28.65 -155.7 29.05 -155.6 28.45 -156.45 Q29.2 -156.3 30.55 -155.6 L26.7 -158.45 Q16.95 -165.7 9.95 -179.05 L9.8 -178.95 Q8.2 -182.8 7.05 -187.4 L30.55 -186.95 Q31.15 -182.45 32.55 -177.9 35.1 -169.75 39.4 -165.35 L38.6 -165.55 Q38.1 -164.8 38.1 -163.7 L45.95 -161.45 Q46.35 -162.4 47.2 -162.7 L47.7 -162.3 47.7 -160.9 47.7 -155.2 47.7 -153.55 47.7 -150.45 47.65 -150.35 Q47.95 -148.75 48.2 -148.2 48.75 -146.85 50.7 -143.85 M86.85 -185.05 L92.1 -183.85 Q88.95 -175.5 88.95 -174.2 L89.05 -172.65 88.35 -172.55 88.35 -171.95 89.1 -171.55 89.1 -171.2 Q89.4 -170.5 90.85 -170.3 L91.2 -171.05 91.2 -171.45 Q106.05 -171.5 125.85 -175.05 122.4 -170.0 119.2 -166.55 113.0 -159.9 101.1 -152.75 95.6 -149.45 90.35 -147.2 81.65 -149.7 77.6 -151.3 71.05 -153.85 68.05 -155.1 62.85 -157.2 59.85 -159.05 52.75 -161.7 41.1 -164.9 34.4 -174.25 32.55 -186.65 L32.55 -186.9 70.25 -186.2 86.85 -185.05 M139.2 -132.2 L135.1 -133.45 Q158.35 -150.45 171.55 -181.25 183.85 -181.1 191.95 -179.0 L198.1 -177.25 Q201.3 -176.3 204.0 -176.05 228.85 -174.95 244.25 -173.05 L265.0 -170.45 297.2 -167.5 339.05 -164.8 343.05 -164.85 342.95 -164.15 Q342.95 -163.25 345.85 -157.45 348.45 -152.25 350.2 -151.2 L350.9 -150.2 352.3 -148.55 351.8 -149.6 Q351.55 -150.15 351.7 -150.3 L363.4 -146.9 Q373.7 -144.1 379.2 -141.95 L388.2 -138.8 Q394.75 -136.6 397.95 -135.95 L418.45 -130.85 431.35 -127.45 429.5 -116.5 Q427.2 -104.85 427.2 -99.05 L428.7 -73.2 428.2 -63.25 Q427.75 -53.15 428.2 -48.05 L429.25 -35.45 429.5 -32.45 429.15 -32.65 Q421.0 -36.55 414.95 -37.8 L414.9 -38.35 414.85 -38.35 413.8 -38.0 412.7 -38.2 412.7 -37.65 409.35 -36.0 408.15 -35.5 407.95 -35.4 406.5 -34.3 406.4 -34.45 Q401.0 -31.0 392.1 -24.55 L364.05 -4.05 339.65 13.15 Q327.15 22.15 319.35 29.05 L319.2 28.8 318.75 28.8 318.75 29.5 318.5 29.05 309.75 24.8 Q304.6 22.45 300.75 21.45 293.55 19.55 287.75 17.35 L279.25 13.95 261.25 7.75 Q249.6 3.75 241.85 0.45 227.05 -5.7 222.6 -7.8 L217.6 -9.4 Q212.95 -10.75 212.0 -11.2 L207.65 -13.5 Q205.25 -14.75 203.75 -15.05 197.2 -16.4 191.25 -19.5 184.65 -22.9 182.25 -23.55 176.3 -25.2 172.25 -28.0 L165.85 -32.15 166.05 -32.6 166.15 -32.75 Q166.15 -32.35 166.25 -32.45 L166.75 -32.45 Q170.0 -36.2 175.65 -41.75 180.65 -45.75 182.0 -47.55 L181.35 -47.25 183.05 -48.85 Q195.15 -60.25 199.25 -64.7 L219.85 -86.05 Q227.55 -93.95 229.65 -96.6 239.55 -92.4 247.8 -90.2 258.3 -87.4 270.35 -83.15 L292.05 -75.55 Q297.95 -73.6 310.7 -68.7 323.6 -64.05 336.95 -61.2 343.15 -59.85 360.2 -53.95 L371.65 -49.65 Q376.1 -47.95 378.65 -47.2 380.55 -46.2 384.0 -45.3 L391.5 -43.25 391.55 -43.0 Q392.55 -43.95 393.7 -44.55 389.05 -45.1 382.65 -47.2 L382.7 -47.4 382.55 -47.8 362.65 -55.5 Q350.7 -60.1 340.05 -62.55 326.0 -65.8 312.9 -70.45 299.9 -75.35 294.2 -77.3 L271.75 -85.05 Q260.45 -88.85 249.55 -92.05 238.65 -95.3 227.45 -100.1 L210.55 -107.05 169.2 -121.8 Q153.05 -127.4 149.0 -129.05 L139.2 -132.2 M181.75 -41.75 L182.0 -40.7 182.5 -41.55 181.75 -41.75 M-177.2 -167.2 L-179.7 -175.9 -181.2 -182.2 Q-181.2 -184.15 -166.45 -186.2 L-149.05 -188.2 -123.25 -191.1 -95.5 -192.45 Q-79.75 -192.45 -59.3 -190.45 L-40.8 -188.3 -17.75 -187.85 -19.6 -183.15 Q-21.45 -178.35 -21.45 -177.55 L-21.3 -174.55 -23.8 -176.85 Q-25.45 -178.55 -30.8 -179.55 -33.8 -180.1 -39.5 -182.55 -44.1 -184.55 -48.05 -184.55 -52.1 -184.55 -55.7 -181.9 -58.05 -180.2 -62.4 -175.3 -71.95 -164.6 -80.85 -159.4 L-97.15 -154.45 Q-100.2 -153.5 -111.15 -151.6 -121.15 -149.85 -124.45 -148.55 L-133.1 -144.75 Q-138.2 -142.5 -140.05 -142.05 L-148.55 -140.1 -156.8 -138.05 -156.75 -137.45 Q-160.85 -136.1 -163.85 -133.95 L-165.25 -137.4 -171.45 -152.2 -177.2 -167.2" fill="#444444" fill-rule="evenodd" stroke="none"/>
    <path d="M271.55 -129.1 Q272.45 -129.8 273.35 -129.9 L273.55 -129.85 273.95 -130.0 273.7 -129.8 275.45 -129.15 275.45 -129.3 Q276.75 -128.95 278.75 -128.0 L279.1 -127.85 280.65 -127.15 Q285.0 -125.3 288.2 -124.85 L291.55 -123.7 296.05 -122.1 296.85 -121.8 Q303.1 -119.5 305.75 -118.7 L310.3 -117.25 311.55 -116.85 319.35 -114.25 320.1 -114.0 325.1 -112.3 325.75 -112.1 325.85 -112.05 332.6 -109.75 336.6 -108.45 340.95 -107.1 350.6 -104.55 354.15 -103.55 357.9 -102.5 361.95 -101.3 362.2 -101.3 362.25 -101.2 363.4 -100.85 364.4 -100.55 370.4 -98.65 374.4 -97.4 379.9 -95.55 382.9 -94.55 389.45 -92.2 395.95 -89.75 Q401.2 -87.75 405.35 -85.85 L405.95 -86.0 Q406.75 -86.0 407.35 -85.2 L407.45 -85.25 407.35 -85.15 407.45 -85.05 407.45 -84.35 408.1 -84.35 407.95 -82.2 Q407.7 -79.05 407.8 -76.85 L407.8 -76.4 407.8 -76.25 407.85 -75.85 407.85 -75.8 407.9 -74.35 407.9 -73.6 406.65 -72.75 406.7 -73.65 401.45 -65.35 Q401.45 -65.05 403.6 -62.7 L405.75 -60.05 405.8 -60.6 406.3 -59.9 406.45 -59.95 Q406.6 -59.8 407.25 -59.55 L406.85 -59.35 406.9 -59.25 406.9 -58.55 406.5 -53.05 405.95 -53.05 405.75 -52.3 406.55 -52.65 405.6 -51.95 Q404.9 -50.6 403.45 -50.55 L394.75 -44.85 Q394.55 -44.3 390.95 -42.25 386.6 -39.75 386.0 -39.2 L385.85 -39.2 381.65 -36.45 Q364.8 -25.45 357.7 -20.55 L336.15 -4.75 316.1 10.45 316.1 10.55 316.15 10.6 315.45 10.6 315.35 11.05 315.45 11.15 315.4 11.15 315.25 12.2 315.2 12.3 314.95 12.05 314.85 11.55 314.8 11.25 314.75 11.05 313.8 10.8 313.8 11.15 Q312.4 10.8 310.15 9.7 304.8 7.2 301.05 6.7 L292.4 3.65 Q286.15 1.35 283.5 0.55 277.25 -1.3 263.5 -6.05 L248.3 -11.05 Q233.9 -14.6 214.85 -20.75 194.3 -27.5 182.55 -32.85 L182.05 -32.55 181.55 -32.6 Q181.5 -32.2 181.15 -33.05 L181.2 -33.55 181.2 -33.75 181.3 -35.95 181.45 -38.7 182.0 -40.3 Q182.0 -41.55 181.45 -42.35 181.25 -47.15 181.7 -50.65 182.15 -53.35 182.35 -59.6 182.6 -64.2 182.95 -66.55 L182.75 -66.4 182.3 -66.75 183.0 -67.4 183.05 -67.75 183.1 -67.85 183.25 -67.7 Q186.65 -70.9 192.1 -75.1 L202.45 -82.9 224.5 -98.8 248.7 -115.0 263.15 -124.05 270.15 -128.1 270.1 -128.15 Q270.5 -128.3 271.55 -129.1 M278.05 -124.25 Q278.05 -125.95 274.8 -126.5 271.55 -127.05 271.55 -124.9 271.55 -122.55 275.3 -122.55 276.8 -122.55 277.55 -123.3 278.05 -123.8 278.05 -124.25 M263.95 -109.9 Q271.0 -104.8 289.7 -98.55 288.8 -97.45 286.05 -96.95 L283.3 -96.55 277.7 -94.75 263.55 -88.75 Q253.9 -84.4 243.7 -76.75 236.75 -71.45 231.75 -64.8 228.05 -59.9 224.6 -52.95 L228.4 -51.65 229.15 -51.4 234.15 -49.7 234.8 -49.5 234.9 -49.45 241.65 -47.15 245.65 -45.85 Q248.85 -44.8 250.0 -44.5 L259.65 -41.95 263.2 -40.95 266.95 -39.9 272.45 -38.25 273.45 -37.95 279.45 -36.05 283.45 -34.8 288.95 -32.95 291.95 -31.95 298.5 -29.6 305.0 -27.15 Q310.6 -25.0 315.0 -23.0 L315.8 -22.65 316.25 -23.0 316.55 -22.95 316.55 -23.0 316.6 -23.1 316.75 -22.95 316.85 -23.05 Q320.25 -26.2 325.6 -30.35 L335.95 -38.15 358.0 -54.05 Q364.2 -58.5 382.2 -70.25 389.45 -74.95 396.65 -79.3 L405.45 -84.35 405.25 -84.55 404.75 -85.2 396.4 -88.4 395.95 -88.55 389.45 -91.05 381.95 -93.85 379.9 -94.55 375.5 -96.1 370.4 -98.0 367.0 -99.25 364.4 -100.15 363.4 -100.45 362.5 -100.7 355.35 -98.1 Q350.3 -96.35 345.25 -95.45 L334.0 -92.95 322.8 -90.45 Q320.4 -90.45 313.35 -93.0 L306.55 -95.55 299.4 -97.95 292.2 -100.4 Q284.45 -102.85 276.85 -105.9 266.6 -109.95 265.05 -109.95 L263.95 -109.9 M207.55 -57.7 L205.1 -58.55 200.6 -60.15 198.7 -60.8 Q190.4 -62.95 188.9 -63.8 L187.8 -64.35 187.4 -64.55 185.8 -65.3 184.5 -65.9 184.5 -65.3 184.05 -65.6 Q183.95 -65.7 183.8 -65.75 L183.6 -59.45 182.9 -49.3 Q182.4 -44.8 182.65 -40.45 183.3 -35.3 182.8 -33.5 L192.85 -29.75 Q206.65 -24.4 213.75 -22.05 L222.25 -18.9 Q227.75 -16.9 232.55 -16.15 235.65 -15.65 241.25 -13.95 L247.85 -12.0 Q255.55 -9.9 265.1 -6.2 273.65 -2.85 282.35 -0.55 285.4 0.2 290.75 2.15 L299.6 5.25 Q307.9 7.4 309.4 8.25 L312.5 9.75 313.8 10.35 313.8 9.75 314.5 10.2 314.5 9.55 314.7 3.9 314.8 2.55 315.3 -5.2 315.4 -6.25 315.75 -11.75 315.7 -14.25 315.65 -15.1 Q315.05 -19.85 315.45 -21.75 L315.5 -22.0 315.0 -22.2 Q312.25 -23.15 305.45 -25.8 L305.0 -25.95 298.5 -28.45 291.0 -31.25 288.95 -31.95 284.55 -33.5 279.45 -35.4 276.05 -36.65 273.45 -37.55 272.45 -37.85 266.95 -39.2 265.75 -39.4 260.9 -40.5 259.65 -40.8 257.05 -41.6 250.45 -43.55 245.65 -44.95 241.65 -46.25 234.9 -48.7 234.15 -48.95 233.2 -49.35 229.15 -50.85 228.4 -51.15 220.6 -53.7 219.35 -54.05 215.95 -55.0 Q212.9 -55.75 207.55 -57.7 M195.3 -65.8 Q195.95 -66.25 195.95 -67.25 195.95 -69.45 192.65 -69.3 189.3 -69.1 189.3 -67.15 189.3 -66.5 189.8 -66.0 190.55 -65.2 192.15 -65.2 194.45 -65.2 195.3 -65.8 M241.45 -39.45 L249.6 -36.75 Q257.35 -34.85 267.55 -31.55 278.6 -27.95 284.95 -25.05 L285.2 -25.25 285.45 -25.2 285.65 -24.95 285.65 -24.65 285.65 -24.6 285.6 -23.4 285.5 -20.3 Q285.65 -17.55 285.35 -15.5 L285.0 -10.7 284.7 -6.95 284.75 -6.9 284.7 -6.9 284.65 -6.35 284.6 -6.3 284.5 -6.4 284.45 -6.7 284.4 -6.85 284.4 -6.95 283.85 -7.1 283.85 -6.9 Q283.1 -7.1 281.9 -7.7 279.05 -9.0 277.0 -9.3 L272.4 -10.95 267.6 -12.6 256.85 -16.15 248.7 -18.8 Q240.95 -20.7 230.75 -24.0 219.7 -27.65 213.4 -30.5 L213.15 -30.35 212.85 -30.4 Q212.85 -30.15 212.65 -30.65 L212.7 -30.9 212.7 -31.0 212.75 -32.2 212.8 -35.3 Q212.7 -38.05 212.95 -40.1 L213.3 -44.9 213.6 -48.65 213.55 -48.7 213.6 -48.7 213.65 -49.25 213.7 -49.3 213.85 -49.2 213.9 -48.9 213.9 -48.75 213.95 -48.65 214.45 -48.5 214.45 -48.7 216.4 -47.9 Q219.3 -46.55 221.3 -46.3 L225.95 -44.65 230.7 -43.0 241.45 -39.45 M312.95 -32.7 L313.65 -33.25 314.2 -33.65 317.3 -33.5 Q319.8 -32.95 319.8 -31.75 319.8 -30.75 318.55 -30.05 317.1 -29.3 314.2 -29.3 313.3 -29.3 312.45 -30.3 311.7 -31.1 311.7 -31.5 311.7 -32.15 312.95 -32.7 M295.05 -20.3 L295.05 -20.4 295.1 -20.3 300.75 -18.55 300.85 -18.6 300.95 -18.25 300.7 -18.0 300.85 -16.1 300.85 -15.65 301.8 -16.4 302.6 -17.05 303.0 -17.45 303.25 -17.6 304.35 -17.55 305.05 -17.3 305.05 -17.4 305.1 -17.3 310.75 -15.55 310.85 -15.6 310.95 -15.25 310.7 -15.0 310.85 -13.1 Q310.85 -11.35 310.65 -11.15 L307.6 -8.85 307.6 -8.8 307.55 -8.8 307.5 -8.75 306.95 -8.75 306.8 -8.75 310.15 -7.75 310.25 -7.8 310.35 -7.45 310.1 -7.2 310.25 -5.3 Q310.25 -3.55 310.05 -3.35 L307.0 -1.05 307.0 -1.0 306.95 -1.0 306.9 -0.95 306.35 -0.95 Q305.3 -0.95 303.05 -1.8 L300.1 -3.0 300.1 -6.4 300.05 -6.35 297.0 -4.05 297.0 -4.0 296.95 -4.0 296.9 -3.95 296.35 -3.95 Q295.3 -3.95 293.05 -4.8 L290.1 -6.0 290.1 -10.25 290.2 -10.25 290.25 -10.7 290.2 -10.75 291.2 -11.6 292.0 -12.25 292.4 -12.65 292.65 -12.8 292.95 -12.85 290.7 -13.8 290.7 -18.05 290.8 -18.05 290.85 -18.5 290.8 -18.55 Q290.95 -19.0 291.8 -19.4 292.1 -19.85 292.6 -20.05 L293.0 -20.45 293.25 -20.6 294.35 -20.55 295.05 -20.3 M299.9 -17.25 L297.65 -15.4 297.7 -14.4 297.7 -12.95 298.05 -13.3 298.1 -13.3 299.25 -14.05 299.8 -14.5 300.05 -14.9 300.15 -16.95 300.05 -17.25 300.0 -17.3 299.9 -17.25 M300.7 -14.15 L300.7 -14.2 300.65 -14.15 297.6 -11.85 297.6 -11.8 297.55 -11.8 297.5 -11.75 296.95 -11.75 296.8 -11.75 297.55 -11.5 300.15 -10.75 300.25 -10.8 300.3 -10.75 300.35 -10.45 300.1 -10.2 300.25 -8.3 300.25 -7.85 301.2 -8.6 302.0 -9.25 302.4 -9.65 302.65 -9.8 302.95 -9.85 300.7 -10.8 300.7 -14.15 M299.55 -9.15 L299.45 -9.45 299.4 -9.5 299.35 -9.45 297.05 -7.6 297.1 -6.6 297.1 -5.15 297.45 -5.5 297.5 -5.5 Q297.75 -5.5 298.65 -6.25 L299.2 -6.7 299.45 -7.1 299.55 -9.15 M310.15 -13.95 L310.05 -14.25 310.0 -14.3 309.95 -14.25 307.65 -12.4 307.7 -11.4 307.7 -9.95 308.05 -10.3 308.1 -10.3 Q308.35 -10.3 309.25 -11.05 L309.8 -11.5 310.05 -11.9 310.15 -13.95 M309.55 -6.15 L309.45 -6.45 309.4 -6.5 309.35 -6.45 307.05 -4.6 307.1 -3.6 307.1 -2.15 307.45 -2.5 307.5 -2.5 308.65 -3.25 309.2 -3.7 309.45 -4.1 309.55 -6.15 M389.25 -84.25 Q390.3 -83.6 390.3 -82.55 390.3 -81.45 389.95 -81.05 389.3 -80.3 387.1 -80.3 384.35 -80.3 383.0 -81.5 382.2 -82.3 382.2 -83.05 382.2 -84.05 383.6 -85.25 385.15 -86.55 386.5 -85.8 387.6 -85.1 389.25 -84.25 M406.95 -53.05 L406.9 -53.05 406.95 -53.1 406.95 -53.05 M406.7 -53.05 L406.65 -53.05 406.65 -53.1 406.7 -53.05" fill="#000000" fill-rule="evenodd" stroke="none"/>
    <path d="M299.9 -17.25 L300.0 -17.3 300.05 -17.25 300.15 -16.95 299.9 -17.25 M300.65 -14.15 L300.7 -14.2 300.7 -14.15 300.65 -14.15 M297.55 -11.5 L296.8 -11.75 296.95 -11.75 297.5 -11.75 297.55 -11.8 297.55 -11.5 M299.35 -9.45 L299.4 -9.5 299.45 -9.45 299.55 -9.15 299.35 -9.45 M309.95 -14.25 L310.0 -14.3 310.05 -14.25 310.15 -13.95 309.95 -14.25 M309.35 -6.45 L309.4 -6.5 309.45 -6.45 309.55 -6.15 309.35 -6.45" fill="#910000" fill-rule="evenodd" stroke="none"/>
    <path d="M263.95 -109.9 L265.05 -109.95 Q266.6 -109.95 276.85 -105.9 284.45 -102.85 292.2 -100.4 L299.4 -97.95 306.55 -95.55 313.35 -93.0 Q320.4 -90.45 322.8 -90.45 L334.0 -92.95 345.25 -95.45 Q350.3 -96.35 355.35 -98.1 L362.5 -100.7 363.4 -100.45 364.4 -100.15 367.0 -99.25 370.4 -98.0 375.5 -96.1 379.9 -94.55 381.95 -93.85 389.45 -91.05 395.95 -88.55 396.4 -88.4 404.75 -85.2 405.25 -84.55 405.45 -84.35 396.65 -79.3 Q389.45 -74.95 382.2 -70.25 364.2 -58.5 358.0 -54.05 L335.95 -38.15 325.6 -30.35 Q320.25 -26.2 316.85 -23.05 L316.75 -22.95 316.6 -23.1 316.55 -23.0 316.55 -22.95 316.25 -23.0 315.8 -22.65 315.0 -23.0 Q310.6 -25.0 305.0 -27.15 L298.5 -29.6 291.95 -31.95 288.95 -32.95 283.45 -34.8 279.45 -36.05 273.45 -37.95 272.45 -38.25 266.95 -39.9 263.2 -40.95 259.65 -41.95 250.0 -44.5 Q248.85 -44.8 245.65 -45.85 L241.65 -47.15 234.9 -49.45 234.8 -49.5 234.15 -49.7 229.15 -51.4 228.4 -51.65 224.6 -52.95 Q228.05 -59.9 231.75 -64.8 236.75 -71.45 243.7 -76.75 253.9 -84.4 263.55 -88.75 L277.7 -94.75 283.3 -96.55 286.05 -96.95 Q288.8 -97.45 289.7 -98.55 271.0 -104.8 263.95 -109.9 M312.95 -32.7 Q311.7 -32.15 311.7 -31.5 311.7 -31.1 312.45 -30.3 313.3 -29.3 314.2 -29.3 317.1 -29.3 318.55 -30.05 319.8 -30.75 319.8 -31.75 319.8 -32.95 317.3 -33.5 L314.2 -33.65 313.65 -33.25 312.95 -32.7 M389.25 -84.25 Q387.6 -85.1 386.5 -85.8 385.15 -86.55 383.6 -85.25 382.2 -84.05 382.2 -83.05 382.2 -82.3 383.0 -81.5 384.35 -80.3 387.1 -80.3 389.3 -80.3 389.95 -81.05 390.3 -81.45 390.3 -82.55 390.3 -83.6 389.25 -84.25" fill="url(#gradient0)" fill-rule="evenodd" stroke="none"/>
    <path d="M207.55 -57.7 Q212.9 -55.75 215.95 -55.0 L219.35 -54.05 220.6 -53.7 228.4 -51.15 229.15 -50.85 233.2 -49.35 234.15 -48.95 234.9 -48.7 241.65 -46.25 245.65 -44.95 250.45 -43.55 257.05 -41.6 259.65 -40.8 260.9 -40.5 265.75 -39.4 266.95 -39.2 272.45 -37.85 273.45 -37.55 276.05 -36.65 279.45 -35.4 284.55 -33.5 288.95 -31.95 291.0 -31.25 298.5 -28.45 305.0 -25.95 305.45 -25.8 Q312.25 -23.15 315.0 -22.2 L315.5 -22.0 315.45 -21.75 Q315.05 -19.85 315.65 -15.1 L315.7 -14.25 315.75 -11.75 315.4 -6.25 315.3 -5.2 314.8 2.55 314.7 3.9 314.5 9.55 314.5 10.2 313.8 9.75 313.8 10.35 312.5 9.75 309.4 8.25 Q307.9 7.4 299.6 5.25 L290.75 2.15 Q285.4 0.2 282.35 -0.55 273.65 -2.85 265.1 -6.2 255.55 -9.9 247.85 -12.0 L241.25 -13.95 Q235.65 -15.65 232.55 -16.15 227.75 -16.9 222.25 -18.9 L213.75 -22.05 Q206.65 -24.4 192.85 -29.75 L182.8 -33.5 Q183.3 -35.3 182.65 -40.45 182.4 -44.8 182.9 -49.3 L183.6 -59.45 183.8 -65.75 Q183.95 -65.7 184.05 -65.6 L184.5 -65.3 184.5 -65.9 185.8 -65.3 187.4 -64.55 187.8 -64.35 188.9 -63.8 Q190.4 -62.95 198.7 -60.8 L200.6 -60.15 205.1 -58.55 207.55 -57.7 M241.45 -39.45 L230.7 -43.0 225.95 -44.65 221.3 -46.3 Q219.3 -46.55 216.4 -47.9 L214.45 -48.7 214.45 -48.5 213.95 -48.65 213.9 -48.75 213.9 -48.9 213.85 -49.2 213.7 -49.3 213.65 -49.25 213.6 -48.7 213.55 -48.7 213.6 -48.65 213.3 -44.9 212.95 -40.1 Q212.7 -38.05 212.8 -35.3 L212.75 -32.2 212.7 -31.0 212.7 -30.9 212.65 -30.65 Q212.85 -30.15 212.85 -30.4 L213.15 -30.35 213.4 -30.5 Q219.7 -27.65 230.75 -24.0 240.95 -20.7 248.7 -18.8 L256.85 -16.15 267.6 -12.6 272.4 -10.95 277.0 -9.3 Q279.05 -9.0 281.9 -7.7 283.1 -7.1 283.85 -6.9 L283.85 -7.1 284.4 -6.95 284.4 -6.85 284.45 -6.7 284.5 -6.4 284.6 -6.3 284.65 -6.35 284.7 -6.9 284.75 -6.9 284.7 -6.95 285.0 -10.7 285.35 -15.5 Q285.65 -17.55 285.5 -20.3 L285.6 -23.4 285.65 -24.6 285.65 -24.65 285.65 -24.95 285.45 -25.2 285.2 -25.25 284.95 -25.05 Q278.6 -27.95 267.55 -31.55 257.35 -34.85 249.6 -36.75 L241.45 -39.45 M295.05 -20.3 L294.35 -20.55 293.25 -20.6 293.0 -20.45 292.6 -20.05 Q292.1 -19.85 291.8 -19.4 290.95 -19.0 290.8 -18.55 L290.85 -18.5 290.8 -18.05 290.7 -18.05 290.7 -13.8 292.95 -12.85 292.65 -12.8 292.4 -12.65 292.0 -12.25 291.2 -11.6 290.2 -10.75 290.25 -10.7 290.2 -10.25 290.1 -10.25 290.1 -6.0 293.05 -4.8 Q295.3 -3.95 296.35 -3.95 L296.9 -3.95 296.95 -4.0 297.0 -4.0 297.0 -4.05 300.05 -6.35 300.1 -6.4 300.1 -3.0 303.05 -1.8 Q305.3 -0.95 306.35 -0.95 L306.9 -0.95 306.95 -1.0 307.0 -1.0 307.0 -1.05 310.05 -3.35 Q310.25 -3.55 310.25 -5.3 L310.1 -7.2 310.35 -7.45 310.25 -7.8 310.15 -7.75 306.8 -8.75 306.95 -8.75 307.5 -8.75 307.55 -8.8 307.6 -8.8 307.6 -8.85 310.65 -11.15 Q310.85 -11.35 310.85 -13.1 L310.7 -15.0 310.95 -15.25 310.85 -15.6 310.75 -15.55 305.1 -17.3 305.05 -17.4 305.05 -17.3 304.35 -17.55 303.25 -17.6 303.0 -17.45 302.6 -17.05 301.8 -16.4 300.85 -15.65 300.85 -16.1 300.7 -18.0 300.95 -18.25 300.85 -18.6 300.75 -18.55 295.1 -20.3 295.05 -20.4 295.05 -20.3" fill="url(#gradient1)" fill-rule="evenodd" stroke="none"/>
    <path d="M278.05 -124.25 Q278.05 -123.8 277.55 -123.3 276.8 -122.55 275.3 -122.55 271.55 -122.55 271.55 -124.9 271.55 -127.05 274.8 -126.5 278.05 -125.95 278.05 -124.25 M195.3 -65.8 Q194.45 -65.2 192.15 -65.2 190.55 -65.2 189.8 -66.0 189.3 -66.5 189.3 -67.15 189.3 -69.1 192.65 -69.3 195.95 -69.45 195.95 -67.25 195.95 -66.25 195.3 -65.8 M300.15 -16.95 L300.05 -14.9 299.8 -14.5 299.25 -14.05 298.1 -13.3 298.05 -13.3 297.7 -12.95 297.7 -14.4 297.65 -15.4 299.9 -17.25 300.15 -16.95 M300.65 -14.15 L300.7 -14.15 300.7 -10.8 302.95 -9.85 302.65 -9.8 302.4 -9.65 302.0 -9.25 301.2 -8.6 300.25 -7.85 300.25 -8.3 300.1 -10.2 300.35 -10.45 300.3 -10.75 300.25 -10.8 300.15 -10.75 297.55 -11.5 297.55 -11.8 297.6 -11.8 297.6 -11.85 300.65 -14.15 M299.55 -9.15 L299.45 -7.1 299.2 -6.7 298.65 -6.25 Q297.75 -5.5 297.5 -5.5 L297.45 -5.5 297.1 -5.15 297.1 -6.6 297.05 -7.6 299.35 -9.45 299.55 -9.15 M310.15 -13.95 L310.05 -11.9 309.8 -11.5 309.25 -11.05 Q308.35 -10.3 308.1 -10.3 L308.05 -10.3 307.7 -9.95 307.7 -11.4 307.65 -12.4 309.95 -14.25 310.15 -13.95 M309.55 -6.15 L309.45 -4.1 309.2 -3.7 308.65 -3.25 307.5 -2.5 307.45 -2.5 307.1 -2.15 307.1 -3.6 307.05 -4.6 309.35 -6.45 309.55 -6.15" fill="#4a2815" fill-rule="evenodd" stroke="none"/>
    <path d="M-211.05 -172.75 L-206.8 -172.3 -196.9 -171.9 Q-193.45 -172.3 -185.05 -170.75 -176.2 -169.1 -173.7 -167.75 -171.55 -166.6 -165.9 -166.7 L-160.55 -167.05 Q-157.1 -167.05 -155.3 -165.15 L-153.4 -162.5 -150.35 -159.9 -150.15 -159.6 -148.75 -161.55 -148.35 -161.45 -148.25 -160.65 Q-148.25 -159.75 -150.2 -154.8 L-152.75 -148.05 Q-153.3 -146.05 -153.65 -142.25 L-154.3 -136.05 -154.85 -131.35 Q-152.55 -129.35 -151.3 -126.1 L-149.25 -119.8 -148.65 -116.9 -147.9 -113.8 -146.6 -110.75 -145.15 -107.75 -140.9 -102.0 -135.75 -95.75 -130.4 -90.15 Q-126.6 -86.45 -125.05 -84.25 -120.7 -78.15 -113.95 -70.8 L-106.2 -62.8 Q-105.05 -62.5 -103.75 -63.5 L-102.0 -65.05 -97.4 -68.05 -93.25 -70.85 Q-90.85 -72.4 -87.1 -72.95 -82.2 -78.0 -75.95 -82.15 -73.75 -83.6 -68.65 -85.8 L-65.55 -86.05 -62.25 -85.95 -58.05 -85.55 Q-55.1 -85.25 -53.25 -84.6 -51.85 -85.9 -46.55 -87.15 L-41.1 -86.95 -33.3 -86.55 -26.75 -86.3 -26.75 -86.4 Q-26.75 -87.0 -24.7 -87.8 L-21.7 -89.15 Q-17.65 -91.65 -15.7 -92.4 L-12.2 -93.85 -8.3 -95.3 Q-4.65 -96.35 -0.4 -97.95 10.6 -101.5 26.0 -108.4 27.7 -109.15 31.2 -111.25 L35.95 -113.8 39.05 -115.2 Q41.15 -116.1 42.5 -116.3 L48.1 -115.85 54.1 -114.45 Q60.0 -112.95 67.1 -109.05 L72.8 -106.05 Q75.9 -104.4 77.75 -103.05 82.7 -99.5 86.25 -95.55 91.55 -89.95 92.45 -88.05 93.85 -85.2 94.55 -80.65 L95.6 -73.05 Q96.1 -70.35 96.45 -57.45 L96.7 -43.75 Q97.05 -42.7 96.75 -41.8 L96.85 -38.0 Q96.85 -33.65 95.6 -27.45 L94.15 -21.75 93.6 -19.25 93.2 -13.05 93.7 -2.0 Q93.7 6.65 92.65 15.2 91.9 21.1 89.75 33.2 L87.7 42.35 86.1 52.25 Q85.05 62.15 84.1 65.6 L85.45 65.25 90.35 64.05 92.6 63.85 94.65 63.9 104.55 63.25 121.7 62.3 126.55 60.45 132.2 58.55 Q136.5 57.3 141.1 54.6 L148.2 50.35 153.95 48.35 155.55 47.4 156.7 45.95 Q157.6 44.9 159.95 43.45 161.2 42.65 163.2 41.45 164.45 40.6 168.4 39.6 L178.3 37.6 186.45 35.65 191.4 34.8 191.7 34.55 194.0 34.5 199.2 34.25 201.25 33.7 205.05 33.35 Q208.85 33.15 213.85 33.3 L228.3 32.65 Q236.25 32.1 237.25 32.7 L245.2 39.45 253.8 46.6 Q258.95 50.9 261.6 54.2 265.7 59.05 267.45 62.2 L272.05 70.1 Q273.2 71.9 276.05 78.3 278.95 84.9 278.95 85.95 L278.9 86.65 278.9 86.75 279.2 87.85 279.2 89.85 Q279.2 96.85 274.2 105.35 270.75 111.4 270.45 120.7 269.95 130.15 267.3 136.1 L265.7 140.05 265.5 141.8 265.45 143.8 265.0 147.65 264.7 148.55 264.85 149.35 Q264.85 149.95 262.45 156.0 L258.95 164.25 258.25 166.1 257.05 168.05 254.7 171.6 252.05 175.55 250.7 177.4 251.1 178.1 Q251.1 179.35 249.6 179.35 248.6 179.35 247.15 178.75 L241.85 178.85 241.8 180.2 241.75 182.3 Q241.6 183.7 241.0 184.1 238.3 186.1 236.55 186.4 L229.05 186.55 216.05 185.7 200.75 182.25 188.95 180.05 181.2 179.0 Q179.6 178.7 176.85 179.45 L175.1 179.35 172.15 178.9 167.35 178.45 166.05 178.75 164.6 179.0 Q143.9 179.4 141.75 179.55 L137.6 180.1 136.25 180.35 116.4 180.55 96.95 181.45 96.6 180.05 96.35 179.5 96.85 169.5 96.85 166.35 96.55 164.45 Q95.25 164.15 94.85 162.8 L94.75 161.8 Q92.9 159.45 91.2 155.8 L89.0 156.75 Q79.2 160.35 77.5 161.35 73.65 163.8 68.5 165.95 58.3 170.2 48.8 170.2 L20.5 169.25 1.95 168.25 -23.05 169.4 -46.55 170.5 Q-59.05 170.5 -67.75 165.85 -74.55 162.25 -82.15 153.7 L-82.05 154.3 Q-82.05 155.4 -82.55 156.35 -81.85 158.45 -79.9 160.1 L-72.05 166.0 Q-67.25 169.95 -65.35 173.05 -63.75 175.65 -63.75 178.55 -63.75 181.2 -64.75 182.2 -66.7 184.2 -73.3 184.7 L-83.2 185.7 -110.95 186.7 Q-128.0 186.7 -154.5 183.5 -180.2 180.35 -192.55 177.0 -210.95 172.0 -217.4 169.4 -222.3 167.45 -225.4 165.4 L-228.55 165.7 -228.55 165.95 -234.05 165.95 Q-242.45 165.3 -245.2 161.9 -246.15 160.75 -246.65 158.95 L-247.3 156.2 Q-248.35 152.7 -248.95 145.6 -249.35 141.15 -249.4 132.8 L-249.45 124.35 Q-249.45 112.4 -245.75 68.65 L-241.8 23.55 -239.25 -1.4 Q-237.6 -17.3 -236.9 -26.75 L-235.9 -39.3 Q-235.2 -47.5 -235.05 -51.9 -234.65 -59.75 -230.55 -63.55 -229.65 -64.4 -228.85 -66.35 -228.1 -68.2 -227.9 -69.8 L-227.9 -73.05 -228.05 -75.8 -227.7 -78.0 -227.6 -78.35 -228.15 -78.7 -228.15 -79.3 -227.25 -79.25 -227.25 -79.35 -225.55 -95.25 Q-225.05 -107.25 -225.05 -113.9 -225.05 -121.85 -225.8 -129.7 L-226.55 -137.15 -226.05 -141.25 -226.0 -141.6 -229.3 -148.45 -229.3 -148.55 Q-227.2 -147.1 -225.55 -144.8 L-225.55 -145.4 Q-225.55 -147.5 -226.3 -150.4 -227.05 -153.3 -227.05 -156.25 -227.05 -158.85 -224.9 -164.8 -222.85 -170.45 -221.8 -171.5 -220.7 -172.6 -219.05 -172.85 -216.7 -173.2 -211.55 -172.8 -212.6 -172.65 -212.65 -170.7 L-217.5 -170.75 Q-221.05 -170.75 -223.4 -163.5 -224.6 -159.85 -225.05 -156.2 -225.05 -154.6 -224.3 -150.45 -223.55 -146.25 -223.55 -145.45 L-223.95 -142.05 -223.45 -140.95 -219.8 -132.4 Q-215.3 -121.45 -213.8 -115.15 -212.55 -109.75 -208.65 -98.1 -204.9 -86.8 -203.55 -81.4 L-202.05 -81.65 -198.35 -82.5 -198.55 -83.3 Q-198.45 -83.75 -197.95 -83.75 L-197.55 -82.7 -193.2 -84.0 -180.35 -87.55 Q-176.1 -88.8 -172.45 -91.75 L-166.75 -96.75 Q-163.6 -99.8 -161.8 -101.9 L-160.25 -104.45 -158.6 -107.15 Q-157.2 -109.35 -155.95 -110.1 L-156.1 -110.5 Q-156.55 -111.8 -156.7 -114.4 L-156.8 -120.05 -156.5 -128.5 -155.8 -141.3 Q-155.0 -146.95 -153.3 -152.2 L-151.85 -156.1 Q-152.3 -156.9 -152.2 -157.65 L-152.15 -158.8 Q-154.7 -160.45 -155.3 -161.05 -158.15 -163.9 -158.8 -164.0 L-164.55 -163.8 Q-170.95 -163.8 -173.0 -164.55 L-175.8 -166.3 Q-177.45 -167.25 -179.7 -167.45 L-183.95 -168.05 -193.35 -168.7 -203.05 -169.25 -205.6 -170.15 -210.15 -170.6 Q-210.2 -172.45 -211.05 -172.75 M54.05 -10.8 L54.1 -10.8 54.75 -11.0 59.7 -15.0 60.05 -15.45 Q62.75 -18.85 63.45 -20.7 L65.5 -26.1 Q66.25 -28.0 67.1 -29.35 L67.9 -31.9 71.5 -42.9 74.45 -53.75 75.55 -59.45 75.7 -60.2 73.85 -61.4 73.15 -61.95 Q72.15 -57.75 69.65 -50.85 65.75 -40.0 64.3 -38.4 63.45 -38.95 63.45 -39.35 L63.45 -39.4 63.6 -39.8 65.45 -45.0 Q67.55 -51.1 67.95 -54.8 L68.85 -62.5 69.0 -63.25 69.5 -66.1 69.2 -66.5 67.65 -68.7 67.6 -68.75 66.4 -70.8 66.35 -70.85 65.1 -73.05 64.15 -75.1 Q63.5 -76.5 63.3 -77.4 62.95 -79.0 62.8 -81.7 L62.6 -86.25 Q62.6 -87.9 61.2 -90.3 59.1 -94.05 55.2 -94.05 L54.15 -94.0 54.1 -94.0 53.85 -93.95 53.55 -93.6 52.3 -92.25 51.0 -89.8 49.0 -84.9 47.6 -81.85 47.45 -81.55 45.1 -77.2 44.75 -76.65 43.95 -75.3 44.75 -69.75 45.0 -59.4 45.0 -58.4 Q45.0 -54.5 44.2 -40.3 L44.2 -38.15 44.1 -36.0 43.7 -29.9 42.95 -24.1 42.65 -23.25 42.7 -23.25 42.35 -22.95 41.7 -23.05 41.95 -26.3 41.75 -39.65 41.45 -51.25 40.9 -57.55 40.7 -59.95 40.45 -63.8 39.85 -68.55 37.9 -65.7 Q35.45 -62.3 32.7 -59.35 L32.7 -59.2 28.85 -54.85 25.85 -51.45 24.95 -50.1 24.95 -50.0 26.05 -47.8 26.45 -46.8 26.0 -45.9 25.95 -45.75 25.8 -45.55 25.5 -45.0 25.05 -44.35 25.05 -44.3 19.35 -35.55 11.15 -23.25 11.15 -23.3 10.55 -22.4 8.75 -19.65 8.85 -18.7 8.9 -18.45 8.95 -15.65 8.95 -15.5 9.15 -14.2 9.3 -13.3 9.65 -11.5 10.2 -7.65 10.1 -6.8 Q10.15 -6.55 9.5 -6.55 8.75 -6.55 8.05 -8.4 L7.0 -11.05 5.65 -13.75 5.6 -13.85 5.15 -14.7 4.35 -15.3 Q4.15 -15.3 1.65 -13.7 L-2.55 -11.05 -2.7 -10.95 -2.3 -10.15 -1.8 -9.15 -1.8 -9.1 -1.65 -8.65 -1.2 -7.05 -0.45 -5.0 Q2.1 0.15 2.95 3.25 L2.85 3.5 2.35 3.6 -0.3 1.5 -3.5 -1.2 -5.1 0.3 Q-6.45 1.2 -8.55 1.5 -7.45 2.55 -6.05 4.3 -4.75 6.05 -4.75 6.35 -4.75 6.75 -7.05 10.7 L-7.95 12.75 Q-8.65 14.15 -9.4 14.8 L-7.65 16.4 Q-6.3 17.55 -6.3 17.75 -6.3 18.35 -8.55 21.0 L-11.4 23.9 -8.7 25.85 Q-2.6 30.3 2.35 34.2 L8.7 40.2 13.8 44.4 14.6 44.5 14.75 44.7 14.9 44.85 Q15.7 45.65 16.95 46.05 L16.95 46.25 Q21.05 48.35 24.7 51.3 L24.95 51.5 25.65 52.1 26.45 52.85 27.4 53.7 27.25 52.8 27.2 52.55 27.2 52.4 27.2 52.1 27.1 50.1 27.05 49.9 27.05 49.65 26.95 49.2 26.5 45.95 26.2 42.75 Q26.2 39.75 26.45 39.4 27.95 38.05 30.45 34.6 L31.2 33.5 33.45 30.25 Q34.5 28.85 35.55 27.95 L35.95 26.5 Q35.45 16.35 35.45 11.25 35.45 7.05 34.7 2.85 33.95 -1.35 33.95 -3.95 33.95 -4.7 34.3 -4.9 L35.05 -4.0 36.3 -1.4 37.45 1.8 38.25 4.95 39.0 8.45 40.15 14.95 40.9 19.05 41.15 20.0 41.5 21.2 41.55 21.45 43.8 20.0 44.1 19.85 45.15 18.95 45.1 18.05 Q45.1 16.8 45.7 14.2 L46.7 10.35 Q47.35 7.7 47.85 2.7 L48.4 -4.3 48.45 -4.55 48.5 -5.3 Q48.8 -8.65 49.35 -10.9 L49.35 -11.25 49.5 -12.75 49.55 -12.7 49.8 -12.6 50.2 -12.25 50.6 -11.9 50.7 -11.8 Q51.35 -11.15 52.1 -10.85 L53.15 -10.7 54.05 -10.8 M-176.5 -87.25 Q-179.1 -85.95 -185.05 -83.75 L-197.05 -81.15 Q-196.05 -78.05 -195.2 -74.15 L-193.4 -64.55 -192.75 -59.9 -192.05 -55.2 -190.55 -49.8 -189.95 -47.8 Q-182.0 -46.8 -168.8 -51.4 -157.25 -55.45 -153.25 -58.95 L-152.85 -58.8 -152.75 -58.0 Q-152.75 -57.0 -158.75 -52.85 -164.3 -49.05 -166.9 -47.8 -173.7 -44.55 -177.35 -43.2 L-177.5 -43.1 Q-173.45 -33.75 -167.9 -20.0 L-157.75 5.05 -155.55 11.55 Q-154.1 15.9 -152.9 17.8 -151.65 19.85 -147.35 24.1 -143.35 28.1 -142.3 30.2 -137.3 40.25 -136.25 42.6 -133.15 49.7 -132.55 55.0 -131.35 65.5 -123.4 80.1 -119.15 87.9 -107.8 104.95 -104.2 110.4 -101.45 117.6 L-97.05 129.7 -89.3 141.4 -85.95 146.55 Q-84.85 147.05 -82.65 149.85 -78.7 154.95 -76.15 157.4 -64.8 168.35 -46.75 168.35 L-26.25 167.1 2.0 165.85 20.2 166.8 42.3 167.75 Q56.5 167.75 65.65 164.6 70.6 162.9 75.35 160.0 L79.35 157.35 Q80.15 156.9 84.85 155.6 87.15 155.05 89.4 153.9 L90.2 153.5 89.65 152.35 89.55 151.95 86.6 145.2 81.55 135.8 Q79.45 131.6 79.45 127.2 79.45 124.1 80.8 120.45 82.1 116.8 82.1 113.3 82.1 109.65 80.9 107.3 78.95 103.55 74.2 103.55 L73.9 103.55 71.35 109.0 Q68.5 114.6 66.95 116.8 L60.85 123.4 Q56.75 127.7 55.95 130.3 L55.7 130.7 54.3 130.55 Q54.05 131.05 54.05 129.8 54.05 129.05 58.45 116.75 62.0 106.8 63.25 100.75 L63.05 100.05 63.55 99.0 63.7 97.5 64.4 97.5 Q65.2 96.0 65.2 95.45 65.2 93.05 58.05 88.55 57.05 92.1 52.55 99.7 48.35 106.75 45.8 110.2 L44.55 110.05 Q44.9 106.7 46.85 103.65 48.55 100.9 48.55 98.05 48.55 94.25 43.7 85.85 L39.15 78.4 Q38.4 77.95 38.3 77.75 37.0 75.5 34.1 67.55 32.25 62.4 30.0 58.9 L27.4 56.2 24.1 52.7 14.35 46.7 13.0 45.8 5.85 43.45 Q4.25 42.8 -1.5 42.4 -5.85 42.1 -8.6 41.25 L-9.05 41.8 -9.7 41.5 -9.85 40.8 -10.15 40.7 -9.9 40.65 -9.9 40.35 Q-9.9 38.25 -4.5 37.25 L3.6 37.6 0.45 34.8 Q-5.35 30.25 -15.95 23.05 L-32.8 11.55 -41.15 5.7 -48.5 -0.3 -54.35 -6.35 -60.65 -12.75 -75.0 -24.95 Q-83.15 -31.9 -86.8 -36.4 L-96.5 -48.95 Q-102.35 -56.5 -106.3 -60.3 -110.8 -64.5 -116.65 -71.2 L-126.5 -82.8 -137.6 -94.95 Q-144.2 -102.15 -146.75 -106.9 -148.5 -110.2 -150.9 -119.15 -152.65 -125.65 -155.0 -129.65 L-155.15 -123.35 -154.8 -111.65 -154.85 -110.5 -154.4 -110.5 Q-158.95 -103.4 -160.8 -101.0 -165.2 -95.3 -170.95 -90.8 -173.8 -88.55 -176.5 -87.25 M-75.05 -74.05 L-75.05 -74.15 -72.0 -76.8 -71.05 -77.5 -67.4 -80.5 Q-66.15 -81.6 -63.55 -83.05 L-60.9 -84.35 -63.5 -84.6 -65.6 -84.7 -66.15 -84.7 -66.7 -84.7 Q-67.6 -84.7 -72.2 -82.45 L-78.45 -79.2 -82.6 -76.0 -86.8 -72.7 -86.8 -72.45 Q-86.8 -71.6 -88.55 -71.1 L-92.0 -70.0 -95.95 -67.5 -101.4 -63.95 Q-104.15 -62.25 -105.4 -62.0 L-104.8 -61.45 Q-100.45 -57.4 -94.7 -49.6 -87.85 -40.25 -85.55 -37.65 L-80.2 -31.65 Q-77.05 -28.2 -74.15 -25.75 -72.7 -24.5 -66.75 -20.0 -61.45 -15.95 -59.25 -13.9 L-58.25 -12.95 -56.2 -11.0 -55.4 -11.55 Q-54.25 -12.5 -53.2 -12.6 L-51.05 -12.8 -47.65 -13.75 Q-46.8 -14.7 -43.15 -16.95 -38.8 -19.65 -36.3 -20.8 -33.6 -22.05 -31.3 -24.9 -29.15 -27.7 -29.15 -29.65 -29.15 -31.5 -30.8 -32.75 -32.75 -34.15 -36.7 -34.4 L-39.9 -33.75 Q-42.35 -32.95 -43.55 -32.95 -47.6 -32.95 -51.65 -34.4 -53.7 -35.1 -55.15 -35.95 L-55.35 -36.05 -55.45 -36.0 -55.9 -36.65 -55.95 -37.3 -55.65 -38.75 -55.65 -39.0 -55.95 -41.55 Q-55.95 -43.1 -52.7 -45.9 L-48.8 -48.8 -44.3 -52.15 -42.65 -54.3 -42.2 -54.95 -42.25 -54.95 -42.1 -55.05 Q-41.55 -55.7 -41.0 -55.8 L-40.8 -55.7 -40.8 -55.65 -38.05 -56.5 -33.45 -57.55 Q-29.1 -58.0 -26.85 -58.95 L-25.6 -59.45 -25.65 -59.9 Q-25.65 -60.5 -24.5 -60.25 L-24.45 -60.25 -20.15 -60.65 Q-18.85 -60.7 -16.85 -60.0 -15.85 -59.65 -12.8 -61.25 L-12.3 -61.5 Q-10.45 -61.75 -10.45 -63.9 -10.45 -66.65 -13.1 -68.7 L-15.75 -70.85 -17.55 -71.55 -18.1 -71.75 Q-25.35 -74.45 -28.55 -74.45 L-31.2 -74.2 -32.05 -74.0 -32.2 -74.05 -33.4 -73.75 Q-35.65 -73.0 -36.05 -73.0 L-40.85 -72.35 -44.05 -71.55 -49.95 -70.3 -52.8 -69.7 -54.45 -69.25 Q-55.1 -69.25 -56.25 -69.75 -57.45 -70.3 -59.05 -70.3 L-61.5 -69.95 Q-64.1 -69.5 -65.15 -68.8 -65.55 -68.5 -67.4 -68.05 -68.25 -67.55 -68.65 -67.55 L-69.15 -67.75 -68.3 -68.8 -68.05 -69.0 -66.4 -69.95 -63.35 -70.95 Q-60.75 -71.75 -58.95 -71.75 -57.3 -71.75 -56.15 -71.25 L-56.0 -71.4 -55.2 -71.8 -52.6 -72.5 -51.55 -73.05 -46.95 -74.2 -43.05 -75.25 Q-39.85 -77.35 -35.9 -76.9 -33.4 -76.6 -31.9 -75.55 -30.4 -75.8 -28.05 -75.55 L-29.05 -75.75 -23.15 -74.85 -21.15 -75.45 -18.5 -76.05 Q-16.6 -77.05 -16.15 -77.75 L-14.25 -79.95 Q-13.75 -80.75 -13.75 -82.05 -13.75 -83.2 -14.6 -84.05 -15.25 -84.7 -16.35 -85.05 L-20.9 -85.25 Q-23.5 -84.95 -33.55 -85.25 L-42.1 -85.8 -45.55 -86.05 -48.85 -85.45 -48.7 -85.25 -51.55 -83.7 -51.2 -83.45 Q-51.75 -82.7 -52.55 -82.7 L-53.05 -82.85 -56.55 -80.8 Q-57.35 -80.25 -63.3 -77.45 -66.95 -75.75 -69.4 -73.55 -70.0 -72.95 -71.35 -73.05 L-73.3 -73.3 -76.3 -72.55 -78.05 -71.8 -78.25 -71.7 -79.05 -71.3 -79.4 -71.15 -79.55 -71.05 -80.55 -70.3 Q-80.9 -69.95 -80.9 -70.55 -80.9 -71.25 -80.0 -71.8 L-79.65 -72.0 -77.5 -73.05 -77.25 -73.15 -77.05 -73.3 -76.95 -73.35 -75.85 -73.85 -75.1 -74.0 -75.05 -74.0 -75.05 -74.05 M-7.8 40.55 L-7.2 40.6 -7.55 40.35 -7.8 40.55 M255.65 109.0 Q258.3 102.2 259.6 97.6 L260.65 93.05 260.95 91.65 261.2 90.5 261.3 90.05 Q261.85 87.6 262.6 86.2 L263.0 86.25 263.1 86.75 Q263.1 89.9 259.7 101.25 256.7 111.25 255.3 114.45 254.35 116.6 252.55 121.3 L249.75 128.2 247.75 132.5 245.9 136.15 Q243.2 141.55 243.2 141.85 L244.9 143.9 Q246.3 145.3 246.8 147.3 247.25 147.45 247.45 148.15 L247.6 150.55 247.6 155.0 247.55 158.9 247.2 164.7 246.7 169.85 246.35 174.05 Q246.35 175.65 248.5 176.45 248.95 175.25 250.55 172.9 L253.1 169.3 256.5 163.55 257.55 161.6 259.2 157.85 260.55 153.95 261.95 149.95 Q262.2 149.1 262.7 148.65 L262.9 148.05 Q263.8 145.15 263.55 143.0 263.4 141.45 264.15 139.25 L265.8 135.3 Q267.45 131.75 268.15 127.65 268.65 124.55 268.8 120.1 269.05 112.4 273.35 103.0 277.55 93.8 277.55 89.75 277.55 87.95 277.2 87.1 276.85 86.3 276.85 85.2 L276.9 85.0 275.4 81.6 271.8 73.3 Q269.3 68.55 263.55 59.45 261.75 56.5 258.1 52.65 254.35 48.7 251.1 46.45 L247.85 43.75 247.85 43.7 243.2 39.8 243.15 39.75 240.4 42.6 Q236.7 46.3 235.1 49.35 L232.45 54.2 Q230.75 57.3 229.95 59.3 L226.2 69.2 Q224.4 74.7 223.8 79.15 L224.05 79.45 227.5 84.35 228.25 85.4 228.85 86.35 230.3 88.5 231.5 90.4 Q235.65 97.1 237.7 102.7 239.35 107.15 240.2 114.85 L240.95 121.35 241.1 127.1 240.85 132.05 240.9 132.15 241.1 132.55 243.25 130.35 244.6 128.75 245.05 128.2 245.05 128.15 245.9 127.1 247.25 125.2 247.4 124.95 249.7 121.3 251.4 118.25 254.45 111.85 254.65 111.4 255.45 109.45 255.65 109.0 M214.9 94.5 L214.9 94.45 212.75 90.95 212.6 90.95 Q212.0 95.4 210.1 101.3 L208.8 105.1 203.45 119.25 Q201.05 125.85 196.95 133.45 L189.85 145.75 190.0 146.5 187.05 151.45 Q185.6 153.9 184.5 156.15 183.75 157.6 183.15 159.0 L182.2 161.35 182.1 161.6 181.7 162.7 178.9 168.65 Q176.3 173.8 175.45 175.95 L175.75 176.0 178.55 176.25 179.4 176.35 Q190.8 177.6 205.5 180.8 220.1 184.0 229.0 184.0 L236.7 183.8 237.75 183.45 238.7 182.85 239.05 182.5 239.3 180.6 239.1 178.8 237.1 178.7 233.6 178.45 232.75 178.05 232.05 177.1 231.2 175.2 Q230.8 174.6 230.6 173.45 L230.3 171.45 Q230.05 169.9 230.05 165.0 L230.05 164.05 229.95 160.4 Q230.1 157.3 231.1 157.1 L231.0 156.4 230.95 155.35 230.95 151.05 Q231.25 145.6 230.95 142.45 229.95 133.0 227.3 125.1 L221.45 107.85 220.7 105.8 220.65 105.7 218.85 101.6 218.55 100.95 217.65 99.25 215.05 94.75 215.0 94.65 214.9 94.5 M253.25 116.35 L253.55 115.55 253.5 115.6 Q253.25 115.95 253.25 116.35 M104.4 64.75 L99.85 64.9 100.95 64.95 103.2 65.1 104.75 65.75 111.85 68.0 Q114.75 68.95 116.95 70.0 L118.45 69.8 118.7 70.3 118.3 70.6 118.55 70.75 Q118.0 71.6 117.45 71.6 L116.55 71.3 115.2 71.6 114.45 71.75 113.6 71.9 113.5 71.9 112.3 72.1 112.6 72.35 114.8 74.15 122.85 81.25 Q124.5 83.35 124.5 88.0 124.5 94.15 121.0 106.6 118.9 114.05 117.05 118.85 L115.2 123.0 Q110.2 133.0 106.0 140.45 L103.35 144.75 101.65 147.45 100.55 149.3 99.85 150.6 103.1 149.55 Q106.8 148.55 109.7 146.7 L116.45 142.85 123.1 138.7 123.25 138.6 123.35 138.55 123.65 138.3 126.65 135.75 127.2 135.25 127.4 135.1 127.75 134.8 131.4 131.2 132.1 130.45 139.95 122.1 149.15 111.95 Q152.95 107.4 153.7 105.6 L155.0 103.5 156.3 101.45 156.4 101.3 157.35 99.4 158.2 97.35 158.5 96.35 159.2 93.75 159.35 93.05 Q159.8 91.3 159.8 89.1 L159.6 86.6 158.65 82.35 158.0 80.25 157.45 79.55 155.05 76.75 152.8 75.1 150.35 73.05 Q148.1 70.5 147.1 68.6 146.3 67.0 146.15 65.3 L144.3 65.4 142.9 65.45 140.6 65.45 140.3 65.45 133.8 64.95 126.5 64.6 124.2 64.85 119.75 64.55 116.2 64.95 Q112.45 65.2 107.75 65.05 107.3 64.7 106.7 64.7 L104.4 64.75 M31.2 59.0 L31.75 59.8 Q33.4 62.25 34.85 65.7 L38.5 74.2 39.2 75.85 39.3 76.0 39.3 76.05 39.45 76.3 39.45 76.35 Q39.7 77.0 40.4 77.55 41.15 78.15 42.45 78.75 L42.6 78.8 47.95 81.1 Q49.85 82.15 51.55 83.15 L51.45 81.95 50.6 79.85 48.85 75.75 47.1 71.65 Q45.7 68.15 45.7 67.5 45.7 66.2 47.2 67.2 L49.65 69.35 50.0 69.7 59.8 79.95 67.7 87.45 71.45 90.25 74.85 92.35 70.5 88.35 69.0 86.9 68.95 86.85 Q64.95 83.55 64.95 82.85 L63.7 81.5 Q55.25 72.6 54.15 70.45 L53.95 69.95 53.45 69.0 53.45 68.95 52.8 68.15 52.65 68.0 50.95 66.55 45.75 62.35 41.95 60.45 40.95 59.95 38.35 59.7 35.3 59.25 Q35.25 59.1 34.35 58.8 33.05 58.4 30.95 57.2 L32.0 58.25 Q31.8 58.8 31.2 59.0" fill="#000000" fill-rule="evenodd" stroke="none"/>
    <path d="M54.1 -94.0 L53.55 -93.6 53.85 -93.95 54.1 -94.0 M52.1 -10.85 L54.05 -10.8 53.15 -10.7 52.1 -10.85 M-75.85 -73.85 L-75.25 -74.0 -75.1 -74.0 -75.05 -74.05 -75.05 -74.0 -75.1 -74.0 -75.85 -73.85 M254.65 111.4 L254.45 111.1 255.25 109.7 255.65 109.0 255.45 109.45 254.65 111.4" fill="#ffffff" fill-rule="evenodd" stroke="none"/>
    <path d="M-211.05 -172.75 Q-210.2 -172.45 -210.15 -170.6 L-205.6 -170.15 -203.05 -169.25 -193.35 -168.7 -183.95 -168.05 -179.7 -167.45 Q-177.45 -167.25 -175.8 -166.3 L-173.0 -164.55 Q-170.95 -163.8 -164.55 -163.8 L-158.8 -164.0 Q-158.15 -163.9 -155.3 -161.05 -154.7 -160.45 -152.15 -158.8 L-152.2 -157.65 Q-152.3 -156.9 -151.85 -156.1 L-153.3 -152.2 Q-155.0 -146.95 -155.8 -141.3 L-156.5 -128.5 -156.8 -120.05 -156.7 -114.4 Q-156.55 -111.8 -156.1 -110.5 L-155.95 -110.1 Q-157.2 -109.35 -158.6 -107.15 L-160.25 -104.45 -161.8 -101.9 Q-163.6 -99.8 -166.75 -96.75 L-172.45 -91.75 Q-176.1 -88.8 -180.35 -87.55 L-193.2 -84.0 -197.55 -82.7 -197.95 -83.75 Q-198.45 -83.75 -198.55 -83.3 L-198.35 -82.5 -202.05 -81.65 -203.55 -81.4 Q-204.9 -86.8 -208.65 -98.1 -212.55 -109.75 -213.8 -115.15 -215.3 -121.45 -219.8 -132.4 L-223.45 -140.95 -223.95 -142.05 -223.55 -145.45 Q-223.55 -146.25 -224.3 -150.45 -225.05 -154.6 -225.05 -156.2 -224.6 -159.85 -223.4 -163.5 -221.05 -170.75 -217.5 -170.75 L-212.65 -170.7 Q-212.6 -172.65 -211.55 -172.8 L-211.4 -172.8 -211.05 -172.75 M-75.85 -73.85 L-76.95 -73.35 -77.05 -73.3 -77.25 -73.15 -77.5 -73.05 -79.65 -72.0 -80.0 -71.8 Q-80.9 -71.25 -80.9 -70.55 -80.9 -69.95 -80.55 -70.3 L-79.55 -71.05 -79.4 -71.15 -79.05 -71.3 -78.25 -71.7 -78.05 -71.8 -76.3 -72.55 -73.3 -73.3 -71.35 -73.05 Q-70.0 -72.95 -69.4 -73.55 -66.95 -75.75 -63.3 -77.45 -57.35 -80.25 -56.55 -80.8 L-53.05 -82.85 -52.55 -82.7 Q-51.75 -82.7 -51.2 -83.45 L-51.55 -83.7 -48.7 -85.25 -48.85 -85.45 -45.55 -86.05 -42.1 -85.8 -33.55 -85.25 Q-23.5 -84.95 -20.9 -85.25 L-16.35 -85.05 Q-15.25 -84.7 -14.6 -84.05 -13.75 -83.2 -13.75 -82.05 -13.75 -80.75 -14.25 -79.95 L-16.15 -77.75 Q-16.6 -77.05 -18.5 -76.05 L-21.15 -75.45 -23.15 -74.85 -29.05 -75.75 -28.05 -75.55 Q-30.4 -75.8 -31.9 -75.55 -33.4 -76.6 -35.9 -76.9 -39.85 -77.35 -43.05 -75.25 L-46.95 -74.2 -51.55 -73.05 -52.6 -72.5 -55.2 -71.8 -56.0 -71.4 -56.15 -71.25 Q-57.3 -71.75 -58.95 -71.75 -60.75 -71.75 -63.35 -70.95 L-66.4 -69.95 -68.05 -69.0 -68.3 -68.8 -69.15 -67.75 -68.65 -67.55 Q-68.25 -67.55 -67.4 -68.05 -65.55 -68.5 -65.15 -68.8 -64.1 -69.5 -61.5 -69.95 L-59.05 -70.3 Q-57.45 -70.3 -56.25 -69.75 -55.1 -69.25 -54.45 -69.25 L-52.8 -69.7 -49.95 -70.3 -44.05 -71.55 -40.85 -72.35 -36.05 -73.0 Q-35.65 -73.0 -33.4 -73.75 L-32.2 -74.05 -32.05 -74.0 -31.2 -74.2 -28.55 -74.45 Q-25.35 -74.45 -18.1 -71.75 L-17.55 -71.55 -15.75 -70.85 -13.1 -68.7 Q-10.45 -66.65 -10.45 -63.9 -10.45 -61.75 -12.3 -61.5 L-12.8 -61.25 Q-15.85 -59.65 -16.85 -60.0 -18.85 -60.7 -20.15 -60.65 L-24.45 -60.25 -24.5 -60.25 Q-25.65 -60.5 -25.65 -59.9 L-25.6 -59.45 -26.85 -58.95 Q-29.1 -58.0 -33.45 -57.55 L-38.05 -56.5 -40.8 -55.65 -40.8 -55.7 -41.0 -55.8 Q-41.55 -55.7 -42.1 -55.05 L-42.25 -54.95 -42.2 -54.95 -42.65 -54.3 -44.3 -52.15 -48.8 -48.8 -52.7 -45.9 Q-55.95 -43.1 -55.95 -41.55 L-55.65 -39.0 -55.65 -38.75 -55.95 -37.3 -55.9 -36.65 -55.45 -36.0 -55.35 -36.05 -55.15 -35.95 Q-53.7 -35.1 -51.65 -34.4 -47.6 -32.95 -43.55 -32.95 -42.35 -32.95 -39.9 -33.75 L-36.7 -34.4 Q-32.75 -34.15 -30.8 -32.75 -29.15 -31.5 -29.15 -29.65 -29.15 -27.7 -31.3 -24.9 -33.6 -22.05 -36.3 -20.8 -38.8 -19.65 -43.15 -16.95 -46.8 -14.7 -47.65 -13.75 L-51.05 -12.8 -53.2 -12.6 Q-54.25 -12.5 -55.4 -11.55 L-56.2 -11.0 -58.25 -12.95 -59.25 -13.9 Q-61.45 -15.95 -66.75 -20.0 -72.7 -24.5 -74.15 -25.75 -77.05 -28.2 -80.2 -31.65 L-85.55 -37.65 Q-87.85 -40.25 -94.7 -49.6 -100.45 -57.4 -104.8 -61.45 L-105.4 -62.0 Q-104.15 -62.25 -101.4 -63.95 L-95.95 -67.5 -92.0 -70.0 -88.55 -71.1 Q-86.8 -71.6 -86.8 -72.45 L-86.8 -72.7 -82.6 -76.0 -78.45 -79.2 -72.2 -82.45 Q-67.6 -84.7 -66.7 -84.7 L-66.15 -84.7 -65.6 -84.7 -63.5 -84.6 -60.9 -84.35 -63.55 -83.05 Q-66.15 -81.6 -67.4 -80.5 L-71.05 -77.5 -72.0 -76.8 -75.05 -74.15 -75.05 -74.05 -75.1 -74.0 -75.25 -74.0 -75.85 -73.85" fill="#516f3c" fill-rule="evenodd" stroke="none"/>
    <path d="M54.1 -94.0 L54.15 -94.0 55.2 -94.05 Q59.1 -94.05 61.2 -90.3 62.6 -87.9 62.6 -86.25 L62.8 -81.7 Q62.95 -79.0 63.3 -77.4 63.5 -76.5 64.15 -75.1 L65.1 -73.05 66.35 -70.85 66.4 -70.8 67.6 -68.75 67.65 -68.7 69.2 -66.5 69.5 -66.1 69.0 -63.25 68.85 -62.5 67.95 -54.8 Q67.55 -51.1 65.45 -45.0 L63.6 -39.8 63.45 -39.4 63.45 -39.35 Q63.45 -38.95 64.3 -38.4 65.75 -40.0 69.65 -50.85 72.15 -57.75 73.15 -61.95 L73.85 -61.4 75.7 -60.2 75.55 -59.45 74.45 -53.75 71.5 -42.9 67.9 -31.9 67.1 -29.35 Q66.25 -28.0 65.5 -26.1 L63.45 -20.7 Q62.75 -18.85 60.05 -15.45 L59.7 -15.0 54.75 -11.0 54.1 -10.8 54.05 -10.8 52.1 -10.85 Q51.35 -11.15 50.7 -11.8 L50.6 -11.9 50.2 -12.25 49.8 -12.6 49.55 -12.7 49.5 -12.75 49.35 -11.25 49.35 -10.9 Q48.8 -8.65 48.5 -5.3 L48.45 -4.55 48.4 -4.3 47.85 2.7 Q47.35 7.7 46.7 10.35 L45.7 14.2 Q45.1 16.8 45.1 18.05 L45.15 18.95 44.1 19.85 43.8 20.0 41.55 21.45 41.5 21.2 41.15 20.0 40.9 19.05 40.15 14.95 39.0 8.45 38.25 4.95 37.45 1.8 36.3 -1.4 35.05 -4.0 34.3 -4.9 Q33.95 -4.7 33.95 -3.95 33.95 -1.35 34.7 2.85 35.45 7.05 35.45 11.25 35.45 16.35 35.95 26.5 L35.55 27.95 Q34.5 28.85 33.45 30.25 L31.2 33.5 30.45 34.6 Q27.95 38.05 26.45 39.4 26.2 39.75 26.2 42.75 L26.5 45.95 26.95 49.2 27.05 49.65 27.05 49.9 27.1 50.1 27.2 52.1 27.2 52.4 27.2 52.55 27.25 52.8 27.4 53.7 26.45 52.85 25.65 52.1 24.95 51.5 24.7 51.3 Q21.05 48.35 16.95 46.25 L16.95 46.05 Q15.7 45.65 14.9 44.85 L14.75 44.7 14.6 44.5 13.8 44.4 8.7 40.2 2.35 34.2 Q-2.6 30.3 -8.7 25.85 L-11.4 23.9 -8.55 21.0 Q-6.3 18.35 -6.3 17.75 -6.3 17.55 -7.65 16.4 L-9.4 14.8 Q-8.65 14.15 -7.95 12.75 L-7.05 10.7 Q-4.75 6.75 -4.75 6.35 -4.75 6.05 -6.05 4.3 -7.45 2.55 -8.55 1.5 -6.45 1.2 -5.1 0.3 L-3.5 -1.2 -0.3 1.5 2.35 3.6 2.85 3.5 2.95 3.25 Q2.1 0.15 -0.45 -5.0 L-1.2 -7.05 -1.65 -8.65 -1.8 -9.1 -1.8 -9.15 -2.3 -10.15 -2.7 -10.95 -2.55 -11.05 1.65 -13.7 Q4.15 -15.3 4.35 -15.3 L5.15 -14.7 5.6 -13.85 5.65 -13.75 7.0 -11.05 8.05 -8.4 Q8.75 -6.55 9.5 -6.55 10.15 -6.55 10.1 -6.8 L10.2 -7.65 9.65 -11.5 9.3 -13.3 9.15 -14.2 8.95 -15.5 8.95 -15.65 8.9 -18.45 8.85 -18.7 8.75 -19.65 10.55 -22.4 11.15 -23.3 11.15 -23.25 19.35 -35.55 25.05 -44.3 25.05 -44.35 25.5 -45.0 25.8 -45.55 25.95 -45.75 26.0 -45.9 26.45 -46.8 26.05 -47.8 24.95 -50.0 24.95 -50.1 25.85 -51.45 28.85 -54.85 32.7 -59.2 32.7 -59.35 Q35.45 -62.3 37.9 -65.7 L39.85 -68.55 40.45 -63.8 40.7 -59.95 40.9 -57.55 41.45 -51.25 41.75 -39.65 41.95 -26.3 41.7 -23.05 42.35 -22.95 42.7 -23.25 42.65 -23.25 42.95 -24.1 43.7 -29.9 44.1 -36.0 44.2 -38.15 44.2 -40.3 Q45.0 -54.5 45.0 -58.4 L45.0 -59.4 44.75 -69.75 43.95 -75.3 44.75 -76.65 45.1 -77.2 47.45 -81.55 47.6 -81.85 49.0 -84.9 51.0 -89.8 52.3 -92.25 53.55 -93.6 54.1 -94.0 M254.65 111.4 L254.45 111.85 251.4 118.25 249.7 121.3 247.4 124.95 247.25 125.2 245.9 127.1 245.05 128.15 245.05 128.2 244.6 128.75 243.25 130.35 241.1 132.55 240.9 132.15 240.85 132.05 241.1 127.1 240.95 121.35 240.2 114.85 Q239.35 107.15 237.7 102.7 235.65 97.1 231.5 90.4 L230.3 88.5 228.85 86.35 228.25 85.4 227.5 84.35 224.05 79.45 223.8 79.15 Q224.4 74.7 226.2 69.2 L229.95 59.3 Q230.75 57.3 232.45 54.2 L235.1 49.35 Q236.7 46.3 240.4 42.6 L243.15 39.75 243.2 39.8 247.85 43.7 247.85 43.75 251.1 46.45 Q254.35 48.7 258.1 52.65 261.75 56.5 263.55 59.45 269.3 68.55 271.8 73.3 L275.4 81.6 276.9 85.0 276.85 85.2 Q276.85 86.3 277.2 87.1 277.55 87.95 277.55 89.75 277.55 93.8 273.35 103.0 269.05 112.4 268.8 120.1 268.65 124.55 268.15 127.65 267.45 131.75 265.8 135.3 L264.15 139.25 Q263.4 141.45 263.55 143.0 263.8 145.15 262.9 148.05 L262.7 148.65 Q262.2 149.1 261.95 149.95 L260.55 153.95 259.2 157.85 257.55 161.6 256.5 163.55 253.1 169.3 250.55 172.9 Q248.95 175.25 248.5 176.45 246.35 175.65 246.35 174.05 L246.7 169.85 247.2 164.7 247.55 158.9 247.6 155.0 247.6 150.55 247.45 148.15 Q247.25 147.45 246.8 147.3 246.3 145.3 244.9 143.9 L243.2 141.85 Q243.2 141.55 245.9 136.15 L247.75 132.5 249.75 128.2 252.55 121.3 Q254.35 116.6 255.3 114.45 256.7 111.25 259.7 101.25 263.1 89.9 263.1 86.75 L263.0 86.25 262.6 86.2 Q261.85 87.6 261.3 90.05 L261.2 90.5 260.95 91.65 260.65 93.05 259.6 97.6 Q258.3 102.2 255.65 109.0 L255.25 109.7 254.45 111.1 254.65 111.4 M214.9 94.5 L215.0 94.65 215.05 94.75 217.65 99.25 218.55 100.95 218.85 101.6 220.65 105.7 220.7 105.8 221.45 107.85 227.3 125.1 Q229.95 133.0 230.95 142.45 231.25 145.6 230.95 151.05 L230.95 155.35 231.0 156.4 231.1 157.1 Q230.1 157.3 229.95 160.4 L230.05 164.05 230.05 165.0 Q230.05 169.9 230.3 171.45 L230.6 173.45 Q230.8 174.6 231.2 175.2 L232.05 177.1 232.75 178.05 233.6 178.45 237.1 178.7 239.1 178.8 239.3 180.6 239.05 182.5 238.7 182.85 237.75 183.45 236.7 183.8 229.0 184.0 Q220.1 184.0 205.5 180.8 190.8 177.6 179.4 176.35 L178.55 176.25 175.75 176.0 175.45 175.95 Q176.3 173.8 178.9 168.65 L181.7 162.7 182.1 161.6 182.2 161.35 183.15 159.0 Q183.75 157.6 184.5 156.15 185.6 153.9 187.05 151.45 L190.0 146.5 189.85 145.75 196.95 133.45 Q201.05 125.85 203.45 119.25 L208.8 105.1 210.1 101.3 Q212.0 95.4 212.6 90.95 L212.75 90.95 214.9 94.45 214.9 94.5 M31.2 59.0 Q31.8 58.8 32.0 58.25 L30.95 57.2 Q33.05 58.4 34.35 58.8 35.25 59.1 35.3 59.25 L38.35 59.7 40.95 59.95 41.95 60.45 45.75 62.35 50.95 66.55 52.65 68.0 52.8 68.15 53.45 68.95 53.45 69.0 53.95 69.95 54.15 70.45 Q55.25 72.6 63.7 81.5 L64.95 82.85 Q64.95 83.55 68.95 86.85 L69.0 86.9 70.5 88.35 74.85 92.35 71.45 90.25 67.7 87.45 59.8 79.95 50.0 69.7 49.65 69.35 47.2 67.2 Q45.7 66.2 45.7 67.5 45.7 68.15 47.1 71.65 L48.85 75.75 50.6 79.85 51.45 81.95 51.55 83.15 Q49.85 82.15 47.95 81.1 L42.6 78.8 42.45 78.75 Q41.15 78.15 40.4 77.55 39.7 77.0 39.45 76.35 L39.45 76.3 39.3 76.05 39.3 76.0 39.2 75.85 38.5 74.2 34.85 65.7 Q33.4 62.25 31.75 59.8 L31.2 59.0 M104.4 64.75 L106.7 64.7 Q107.3 64.7 107.75 65.05 112.45 65.2 116.2 64.95 L119.75 64.55 124.2 64.85 126.5 64.6 133.8 64.95 140.3 65.45 140.6 65.45 142.9 65.45 144.3 65.4 146.15 65.3 Q146.3 67.0 147.1 68.6 148.1 70.5 150.35 73.05 L152.8 75.1 155.05 76.75 157.45 79.55 158.0 80.25 158.65 82.35 159.6 86.6 159.8 89.1 Q159.8 91.3 159.35 93.05 L159.2 93.75 158.5 96.35 158.2 97.35 157.35 99.4 156.4 101.3 156.3 101.45 155.0 103.5 153.7 105.6 Q152.95 107.4 149.15 111.95 L139.95 122.1 132.1 130.45 131.4 131.2 127.75 134.8 127.4 135.1 127.2 135.25 126.65 135.75 123.65 138.3 123.35 138.55 123.25 138.6 123.1 138.7 116.45 142.85 109.7 146.7 Q106.8 148.55 103.1 149.55 L99.85 150.6 100.55 149.3 101.65 147.45 103.35 144.75 106.0 140.45 Q110.2 133.0 115.2 123.0 L117.05 118.85 Q118.9 114.05 121.0 106.6 124.5 94.15 124.5 88.0 124.5 83.35 122.85 81.25 L114.8 74.15 112.6 72.35 112.3 72.1 113.5 71.9 113.6 71.9 114.45 71.75 115.2 71.6 116.55 71.3 117.45 71.6 Q118.0 71.6 118.55 70.75 L118.3 70.6 118.7 70.3 118.45 69.8 116.95 70.0 Q114.75 68.95 111.85 68.0 L104.75 65.75 103.2 65.1 100.95 64.95 99.85 64.9 104.4 64.75" fill="#747c9c" fill-rule="evenodd" stroke="none"/>
    <path d="M-176.5 -87.25 Q-173.8 -88.55 -170.95 -90.8 -165.2 -95.3 -160.8 -101.0 -158.95 -103.4 -154.4 -110.5 L-154.85 -110.5 -154.8 -111.65 -155.15 -123.35 -155.0 -129.65 Q-152.65 -125.65 -150.9 -119.15 -148.5 -110.2 -146.75 -106.9 -144.2 -102.15 -137.6 -94.95 L-126.5 -82.8 -116.65 -71.2 Q-110.8 -64.5 -106.3 -60.3 -102.35 -56.5 -96.5 -48.95 L-86.8 -36.4 Q-83.15 -31.9 -75.0 -24.95 L-60.65 -12.75 -54.35 -6.35 -48.5 -0.3 -41.15 5.7 -32.8 11.55 -15.95 23.05 Q-5.35 30.25 0.45 34.8 L3.6 37.6 -4.5 37.25 Q-9.9 38.25 -9.9 40.35 L-9.9 40.65 -10.15 40.7 -9.85 40.8 -9.7 41.5 -9.05 41.8 -8.6 41.25 Q-5.85 42.1 -1.5 42.4 4.25 42.8 5.85 43.45 L13.0 45.8 14.35 46.7 24.1 52.7 27.4 56.2 30.0 58.9 Q32.25 62.4 34.1 67.55 37.0 75.5 38.3 77.75 38.4 77.95 39.15 78.4 L43.7 85.85 Q48.55 94.25 48.55 98.05 48.55 100.9 46.85 103.65 44.9 106.7 44.55 110.05 L45.8 110.2 Q48.35 106.75 52.55 99.7 57.05 92.1 58.05 88.55 65.2 93.05 65.2 95.45 65.2 96.0 64.4 97.5 L63.7 97.5 63.55 99.0 63.05 100.05 63.25 100.75 Q62.0 106.8 58.45 116.75 54.05 129.05 54.05 129.8 54.05 131.05 54.3 130.55 L55.7 130.7 55.95 130.3 Q56.75 127.7 60.85 123.4 L66.95 116.8 Q68.5 114.6 71.35 109.0 L73.9 103.55 74.2 103.55 Q78.95 103.55 80.9 107.3 82.1 109.65 82.1 113.3 82.1 116.8 80.8 120.45 79.45 124.1 79.45 127.2 79.45 131.6 81.55 135.8 L86.6 145.2 89.55 151.95 89.65 152.35 90.2 153.5 89.4 153.9 Q87.15 155.05 84.85 155.6 80.15 156.9 79.35 157.35 L75.35 160.0 Q70.6 162.9 65.65 164.6 56.5 167.75 42.3 167.75 L20.2 166.8 2.0 165.85 -26.25 167.1 -46.75 168.35 Q-64.8 168.35 -76.15 157.4 -78.7 154.95 -82.65 149.85 -84.85 147.05 -85.95 146.55 L-89.3 141.4 -97.05 129.7 -101.45 117.6 Q-104.2 110.4 -107.8 104.95 -119.15 87.9 -123.4 80.1 -131.35 65.5 -132.55 55.0 -133.15 49.7 -136.25 42.6 -137.3 40.25 -142.3 30.2 -143.35 28.1 -147.35 24.1 -151.65 19.85 -152.9 17.8 -154.1 15.9 -155.55 11.55 L-157.75 5.05 -167.9 -20.0 Q-173.45 -33.75 -177.5 -43.1 L-177.35 -43.2 Q-173.7 -44.55 -166.9 -47.8 -164.3 -49.05 -158.75 -52.85 -152.75 -57.0 -152.75 -58.0 L-152.85 -58.8 -153.25 -58.95 Q-157.25 -55.45 -168.8 -51.4 -182.0 -46.8 -189.95 -47.8 L-190.55 -49.8 -192.05 -55.2 -192.75 -59.9 -193.4 -64.55 -195.2 -74.15 Q-196.05 -78.05 -197.05 -81.15 L-185.05 -83.75 Q-179.1 -85.95 -176.5 -87.25" fill="#b7b7b7" fill-rule="evenodd" stroke="none"/>
    <path d="M64.6 -86.1 L64.0 -83.05 Q64.0 -79.75 68.35 -73.65 L69.45 -75.35 Q70.45 -76.4 71.2 -75.5 72.0 -74.5 72.0 -71.55 L72.0 -68.8 72.55 -68.05 Q73.55 -70.05 75.35 -69.3 77.65 -68.45 77.95 -66.2 78.8 -66.7 79.8 -66.8 82.25 -67.1 82.25 -64.7 82.25 -63.35 77.0 -50.25 74.2 -43.1 72.75 -36.3 71.4 -30.05 68.4 -22.8 L67.0 -18.95 Q65.7 -15.9 64.0 -13.9 60.8 -8.8 57.95 -8.8 L56.05 -8.9 Q55.6 -8.55 54.85 -8.5 53.6 -8.5 52.55 -9.1 L50.45 -10.3 Q49.35 5.45 48.5 10.05 46.15 21.85 39.45 30.75 L38.35 29.7 Q37.5 28.8 37.5 28.25 L37.45 27.95 36.5 36.7 33.75 46.9 33.3 48.2 35.15 49.15 Q37.35 50.25 40.45 50.25 L41.95 49.75 Q42.85 49.2 43.45 49.2 45.95 49.2 46.75 50.35 47.2 51.0 47.5 52.45 47.85 53.2 48.5 53.55 L51.2 54.95 Q52.65 55.8 53.85 57.85 L56.0 61.25 Q56.7 62.05 57.8 64.1 59.2 65.95 62.0 67.0 63.55 67.55 65.4 69.8 L67.95 73.45 Q83.75 96.45 83.75 98.85 83.75 101.75 81.7 101.75 78.75 101.75 76.55 99.55 L74.5 96.75 72.7 94.2 Q71.7 93.45 70.3 93.2 68.85 92.95 68.2 92.5 65.5 90.5 63.5 87.5 61.45 84.1 60.2 82.45 L60.05 85.8 Q59.35 88.7 55.85 88.7 53.2 88.7 50.65 87.9 47.9 87.05 46.95 85.75 L44.8 84.05 Q42.9 82.7 41.5 80.95 37.3 75.65 35.2 70.75 L30.85 61.35 28.05 54.55 Q25.15 53.7 23.5 47.95 22.25 43.65 22.25 40.75 22.25 37.35 23.45 35.3 24.75 33.0 28.95 29.5 L30.55 27.65 30.95 24.1 31.7 19.0 Q32.1 14.9 31.7 9.25 32.2 2.5 31.95 -0.8 31.6 -5.4 34.1 -5.4 36.55 -5.4 36.75 -0.8 37.0 5.95 38.0 19.2 L37.8 23.85 40.35 15.95 Q43.65 6.05 44.2 1.25 L45.5 -11.05 Q44.35 -17.45 50.35 -15.45 L50.95 -15.5 53.25 -14.65 54.45 -14.75 Q55.55 -14.75 56.6 -15.25 L58.75 -16.5 59.35 -16.85 61.0 -20.0 63.7 -28.25 65.5 -35.15 66.0 -37.15 64.95 -37.05 Q63.4 -37.05 63.0 -38.35 L63.0 -38.5 Q62.35 -38.7 62.15 -39.15 62.0 -39.4 62.0 -40.3 62.0 -40.85 62.95 -43.95 L64.0 -48.25 Q64.25 -51.0 65.25 -55.75 L66.55 -63.15 66.75 -64.35 63.55 -67.95 Q60.2 -72.3 58.75 -75.3 55.5 -82.35 57.5 -88.8 L57.45 -89.25 Q55.55 -88.15 52.05 -82.2 L49.7 -78.6 49.7 -78.5 50.5 -61.95 50.15 -54.05 49.25 -42.05 Q49.1 -40.45 48.0 -37.05 46.9 -33.55 46.7 -32.0 L45.85 -27.25 Q45.0 -24.25 43.45 -22.3 L41.95 -22.5 41.85 -22.8 Q41.7 -23.05 41.7 -23.8 L42.4 -25.95 Q43.15 -27.9 43.2 -29.55 43.25 -30.65 43.85 -32.45 44.5 -34.2 44.5 -35.05 44.5 -40.95 42.85 -61.7 L41.2 -83.45 Q41.2 -87.3 43.6 -88.85 45.55 -90.1 47.2 -88.2 50.2 -93.65 50.95 -94.25 58.55 -100.5 62.55 -96.3 65.2 -93.55 65.2 -89.2 L64.6 -86.1 M29.0 -50.95 Q29.0 -50.35 29.75 -48.8 L30.45 -47.2 Q30.45 -44.85 21.45 -32.9 12.45 -21.0 12.45 -18.45 L15.45 -3.5 Q15.45 -2.15 14.75 -1.25 13.9 -0.05 12.2 -0.05 9.55 -0.05 8.05 -2.3 L6.5 -5.55 Q4.45 -9.2 2.25 -10.75 1.0 -10.0 0.75 -9.55 1.65 -8.05 3.95 -2.35 L6.2 3.7 Q6.2 4.7 5.7 5.45 4.95 6.5 3.35 6.5 2.0 6.5 -0.2 4.75 L-2.55 2.75 Q-2.2 4.25 -1.3 5.1 -0.5 5.85 -0.5 6.55 -0.5 8.1 -1.5 9.6 L-3.5 12.45 -0.4 15.8 Q0.25 16.7 0.25 18.2 0.25 20.3 -2.3 22.95 -5.4 26.2 -9.7 26.2 -11.45 26.2 -12.0 25.15 L-12.25 23.95 Q-12.25 22.8 -11.6 21.75 L-9.3 18.7 Q-12.5 17.45 -12.5 13.55 -12.5 11.7 -11.85 10.8 -10.45 9.25 -9.05 7.0 -10.65 5.55 -11.25 4.45 -11.75 3.5 -11.75 2.2 -11.75 -0.2 -10.1 -1.35 -6.85 -3.1 -3.8 -5.55 L-5.6 -8.25 Q-6.5 -9.6 -6.5 -10.5 -6.5 -11.4 -5.45 -12.2 L-2.05 -15.3 -0.7 -17.7 Q0.15 -19.05 2.2 -19.05 4.1 -19.05 4.8 -18.1 L6.0 -16.25 6.25 -16.25 Q5.5 -19.35 8.0 -24.0 L12.7 -31.55 Q13.8 -33.45 19.05 -40.3 23.75 -46.45 23.75 -47.0 L22.85 -48.8 Q21.95 -50.3 21.95 -50.95 21.95 -51.8 25.75 -57.65 L30.0 -64.25 Q31.9 -68.0 34.2 -70.55 37.3 -73.95 39.6 -72.9 41.45 -72.05 41.45 -70.05 41.45 -70.8 35.25 -61.0 L29.0 -50.95 M238.35 115.15 L237.5 108.35 Q237.5 102.75 239.9 102.2 242.4 101.65 243.75 109.45 L245.1 116.8 245.35 118.3 249.75 112.0 Q251.5 109.0 254.75 104.2 255.4 103.3 256.65 99.95 258.05 97.05 260.2 97.0 L260.5 99.25 260.0 101.5 260.0 101.6 Q260.0 103.25 258.9 106.85 257.7 110.85 257.5 112.5 L257.05 115.35 256.95 116.2 257.0 116.95 256.0 125.95 Q255.75 128.95 255.75 134.95 257.95 143.6 261.75 163.7 L261.25 165.75 Q260.6 167.2 259.7 167.2 256.75 167.2 255.7 164.9 255.15 162.5 254.75 162.2 L252.6 161.05 Q251.3 160.45 251.25 160.0 L250.7 157.75 247.7 147.7 Q246.65 148.75 245.45 148.75 243.5 148.75 242.15 144.75 L241.25 141.2 Q241.25 140.25 241.7 139.05 241.2 139.7 240.7 139.7 238.15 139.7 237.2 137.45 L236.75 135.0 Q236.75 133.05 238.0 128.85 L238.05 128.75 238.0 128.3 238.35 127.65 Q239.2 124.3 239.2 122.6 L238.35 115.15 M252.95 119.8 L253.15 117.95 Q251.05 121.8 249.0 124.5 248.75 125.35 245.7 129.25 L244.35 131.0 244.25 131.5 242.9 136.65 244.7 133.2 Q245.2 131.65 247.25 129.5 249.25 127.4 249.75 125.7 250.5 123.05 252.1 121.75 L252.25 121.65 252.95 119.8 M106.2 68.55 L101.25 68.0 Q100.4 68.0 99.95 67.65 L99.2 66.75 Q99.75 64.6 104.85 64.25 109.85 63.85 113.95 65.5 L123.9 68.2 Q127.7 69.3 127.7 71.5 127.7 72.65 127.2 73.25 126.5 74.0 124.2 74.95 127.05 76.05 128.75 81.65 L129.5 83.25 Q130.6 86.9 131.2 90.75 L132.05 99.45 132.45 105.45 Q132.45 109.75 130.8 118.6 129.2 127.1 127.95 130.2 127.0 132.5 124.3 143.95 121.35 154.2 117.95 154.2 117.35 154.2 116.45 153.55 L115.25 152.75 Q112.1 152.2 111.7 151.75 110.7 150.75 110.7 148.8 L110.95 146.0 106.45 149.95 104.8 151.8 Q103.8 153.05 102.7 153.5 101.15 154.1 99.55 155.15 98.55 155.75 97.7 155.75 95.35 155.75 94.45 154.1 94.0 153.3 94.0 152.3 94.0 149.55 98.55 143.75 L104.95 135.7 Q106.9 132.6 108.85 127.75 L111.95 119.2 115.05 111.1 Q116.95 105.95 117.5 102.7 118.05 96.5 118.8 93.25 120.15 87.3 123.75 87.0 123.6 85.1 122.55 82.9 121.25 80.25 119.2 78.75 117.6 77.55 112.0 75.4 108.2 73.9 108.2 71.85 108.2 71.25 108.45 70.6 108.95 69.4 110.2 69.25 L106.2 68.55 M150.0 57.3 Q151.0 57.6 151.0 59.35 L150.4 62.95 149.75 66.5 Q149.75 68.05 151.65 69.85 L155.85 73.45 Q161.95 78.8 161.95 85.2 161.95 90.35 155.2 106.0 L150.55 116.1 Q147.55 121.8 143.95 126.25 L142.75 126.25 Q142.2 124.35 142.2 122.3 142.2 120.1 149.0 104.4 155.75 88.7 155.75 85.35 155.75 81.65 154.0 79.25 152.9 77.75 150.1 75.8 147.25 73.8 146.2 72.45 144.45 70.15 144.45 66.6 144.45 60.8 147.75 58.05 149.0 56.95 150.0 57.3 M2.0 38.7 Q1.5 38.7 -2.9 37.0 -4.55 37.0 -5.7 38.1 -7.3 39.6 -9.75 40.45 L-10.1 40.25 -10.25 39.45 -8.75 35.55 Q-7.25 32.15 -6.8 31.75 -4.05 29.2 0.05 32.6 3.7 35.6 3.7 37.05 L3.65 37.8 3.45 38.2 3.1 38.45 2.0 38.7 M54.0 93.0 Q56.75 88.7 60.2 88.7 63.25 88.7 64.25 90.0 64.75 90.65 64.75 92.05 64.75 95.5 58.5 102.45 51.85 109.95 46.95 109.95 L46.1 109.8 45.45 109.5 45.25 109.3 Q45.0 109.1 45.0 108.35 45.0 107.7 47.35 105.95 49.75 104.2 49.95 103.25 50.25 100.45 51.5 98.0 52.55 95.2 54.0 93.0 M63.1 119.45 L66.25 115.45 70.7 107.2 Q73.05 102.65 73.95 102.05 75.55 100.95 78.95 103.45 83.15 106.25 83.95 107.85 84.25 108.45 84.25 111.5 84.25 117.5 81.45 118.6 82.75 119.85 82.75 121.45 82.75 122.2 82.2 122.95 L81.2 123.7 Q79.0 123.7 77.75 122.35 76.45 120.95 75.95 120.95 74.65 120.95 71.6 123.3 L68.2 126.0 Q65.95 127.25 57.45 129.75 56.0 129.75 55.25 129.0 54.75 128.45 54.75 127.85 54.75 126.05 60.15 123.55 L60.8 123.3 Q61.1 121.85 63.1 119.45 M-199.55 -153.0 Q-199.5 -145.6 -199.0 -140.05 L-197.5 -127.05 Q-196.4 -119.35 -194.75 -113.8 L-190.35 -100.65 -188.15 -100.35 -183.05 -99.75 Q-175.95 -99.75 -169.7 -101.15 L-164.75 -102.15 -160.0 -106.5 -159.45 -106.05 -159.25 -105.0 Q-159.25 -103.0 -163.75 -98.4 -167.1 -95.0 -169.75 -93.0 -172.25 -91.0 -173.0 -90.0 -174.4 -88.2 -176.15 -88.25 -178.1 -88.35 -179.05 -87.5 L-179.85 -86.15 -185.0 -86.0 -185.05 -86.0 -184.45 -84.45 Q-183.55 -81.75 -182.55 -77.55 -181.85 -75.55 -181.25 -71.9 L-180.3 -65.55 -180.1 -63.5 -178.05 -63.0 -162.8 -62.45 Q-152.0 -62.05 -152.0 -58.7 -152.0 -57.6 -154.6 -55.5 L-158.05 -52.55 -159.55 -52.95 -160.0 -53.5 -160.05 -54.0 Q-162.8 -52.8 -163.8 -51.8 L-165.55 -50.3 Q-166.45 -49.8 -169.95 -48.4 -169.25 -47.6 -168.55 -46.0 L-166.85 -42.0 -165.25 -38.05 -162.7 -30.1 Q-161.15 -25.55 -159.5 -22.3 L-154.8 -14.3 Q-151.85 -9.55 -151.0 -6.55 -149.55 -1.75 -142.25 8.75 -140.35 11.5 -137.4 16.6 L-132.5 24.5 -127.25 32.15 Q-124.35 36.65 -123.3 39.95 L-122.0 44.15 -121.05 46.7 -119.95 50.65 Q-119.05 53.6 -118.8 55.25 -118.25 59.05 -116.9 63.5 L-114.05 72.2 Q-111.85 78.7 -101.2 89.2 -87.9 102.3 -85.05 106.25 L-72.8 123.65 Q-66.1 133.5 -62.5 140.45 L-54.85 155.45 Q-47.55 170.4 -47.55 173.95 -47.55 174.6 -48.0 175.65 -48.5 176.75 -48.5 177.5 -52.35 174.95 -55.1 170.35 L-59.3 162.45 -63.4 154.45 -65.25 150.9 Q-65.8 151.7 -66.95 152.2 -69.1 153.05 -74.3 153.25 -74.3 154.45 -76.35 156.3 -78.2 158.0 -78.75 158.0 -83.9 158.0 -92.15 144.9 -96.85 137.5 -101.25 128.25 L-108.3 113.5 -115.25 98.25 Q-115.6 97.45 -117.5 94.7 -119.35 92.15 -119.8 90.75 -121.05 87.0 -122.7 87.55 -124.65 88.25 -126.5 84.75 -128.95 80.1 -130.8 69.75 L-133.65 56.1 -134.8 50.0 Q-138.6 49.35 -140.8 46.65 -143.6 41.75 -145.55 39.0 -147.25 36.7 -148.95 33.45 L-151.8 27.75 -157.3 16.3 Q-160.3 9.5 -161.3 4.95 -162.5 -0.55 -165.8 -6.5 -168.4 -11.25 -173.3 -18.0 -177.75 -24.05 -178.55 -29.25 L-179.4 -35.8 -179.75 -39.3 Q-180.5 -38.05 -182.05 -38.05 -182.8 -38.05 -183.7 -38.6 L-184.75 -39.3 -185.65 -38.15 Q-186.35 -37.5 -186.75 -37.5 -191.75 -37.5 -193.8 -49.05 L-195.05 -61.55 -198.1 -75.55 -199.35 -81.15 -200.8 -80.8 -201.25 -80.05 -202.3 -79.0 Q-204.4 -77.0 -205.55 -77.0 -209.15 -77.0 -210.05 -81.6 L-210.55 -87.75 Q-212.75 -97.15 -212.75 -98.65 -212.75 -99.5 -212.2 -100.05 L-212.75 -102.0 -213.05 -107.55 Q-216.25 -107.25 -217.6 -109.75 -218.3 -110.95 -218.55 -113.3 -218.75 -115.1 -220.1 -117.25 -221.35 -119.4 -221.4 -120.05 -221.8 -124.55 -222.15 -126.75 -225.15 -127.05 -225.9 -129.45 L-226.15 -133.05 -224.55 -154.05 -224.55 -156.55 -224.65 -159.3 Q-224.9 -161.85 -223.15 -162.75 -220.9 -163.45 -220.15 -164.25 -216.85 -167.95 -213.85 -165.05 -211.0 -162.35 -211.8 -159.55 L-211.5 -159.55 -211.4 -162.45 Q-210.7 -164.5 -207.55 -164.5 -206.3 -164.5 -204.05 -162.25 L-203.05 -161.65 -203.05 -162.3 Q-203.05 -164.65 -202.55 -165.85 -201.7 -168.05 -199.5 -166.0 L-199.55 -153.0 M-174.45 -44.1 L-174.55 -44.7 Q-174.55 -45.85 -174.1 -46.8 L-179.25 -44.85 -179.15 -43.85 Q-178.6 -44.9 -177.55 -45.25 -176.15 -45.7 -174.45 -44.1 M-12.8 -78.3 Q-18.2 -74.2 -28.3 -74.0 L-41.15 -74.55 Q-44.15 -74.55 -48.7 -72.4 -53.25 -70.3 -53.55 -70.3 L-55.25 -70.7 -57.5 -71.3 -55.35 -72.65 Q-53.3 -73.9 -53.0 -74.3 -51.7 -76.2 -49.75 -77.75 -45.55 -81.15 -43.4 -81.15 L-37.8 -80.5 Q-25.6 -80.5 -20.35 -83.05 -18.5 -83.9 -17.25 -85.25 L-15.5 -87.25 Q-11.35 -91.55 -7.9 -91.25 -4.8 -91.0 -4.8 -88.05 -4.8 -85.4 -6.6 -83.4 -7.7 -82.25 -12.8 -78.3 M-36.4 -54.25 Q-36.85 -55.4 -37.75 -55.8 -41.1 -54.1 -43.7 -51.2 L-48.0 -46.05 Q-49.2 -44.75 -51.25 -41.25 -51.65 -40.55 -51.3 -38.75 -51.4 -37.3 -54.05 -37.3 -55.85 -37.3 -56.5 -39.35 L-56.75 -41.55 Q-56.75 -43.75 -54.0 -48.9 -51.6 -53.5 -50.05 -55.25 -42.65 -63.9 -35.45 -65.7 L-28.95 -66.4 -22.2 -66.25 Q-16.7 -66.25 -15.3 -67.8 -14.6 -68.65 -14.75 -70.05 L-14.45 -72.0 Q-14.15 -73.4 -13.3 -73.8 -9.35 -75.9 -7.25 -73.3 -5.75 -71.5 -5.75 -69.15 -5.75 -66.4 -7.0 -64.7 -8.0 -63.4 -12.05 -60.05 L-14.4 -57.7 Q-15.75 -56.35 -17.5 -55.55 -19.5 -54.7 -23.0 -55.0 -27.2 -55.3 -28.5 -54.3 -29.85 -53.25 -30.55 -53.25 -35.35 -53.25 -36.4 -54.25 M-60.6 -82.6 L-63.55 -80.25 Q-64.3 -79.55 -66.65 -79.1 -68.95 -78.7 -69.25 -78.3 -74.3 -71.55 -77.05 -71.55 -78.4 -71.55 -79.25 -72.8 -77.85 -74.25 -73.5 -81.15 -70.3 -86.25 -68.3 -86.25 -67.65 -86.25 -66.9 -85.6 -66.1 -85.0 -65.5 -85.0 -64.2 -85.0 -61.55 -86.5 -59.55 -87.25 -59.55 -84.3 -59.55 -83.4 -60.6 -82.6 M-42.8 -23.85 L-39.95 -27.15 Q-37.05 -30.8 -37.05 -32.05 -37.05 -33.55 -38.75 -36.55 -40.5 -39.6 -40.5 -40.95 -40.5 -42.75 -39.25 -43.95 -39.2 -46.9 -37.05 -47.0 -35.1 -47.05 -32.25 -44.85 -29.75 -42.9 -27.85 -40.25 L-27.55 -40.3 Q-25.25 -40.3 -24.3 -38.25 -23.8 -37.2 -23.8 -36.2 -27.45 -18.8 -32.3 -18.8 -33.2 -18.8 -34.4 -19.5 L-34.65 -19.7 Q-39.1 -16.5 -45.0 -13.85 -51.85 -10.75 -55.55 -10.75 -56.85 -10.75 -57.3 -11.5 -58.15 -11.9 -58.5 -12.75 L-58.5 -12.9 Q-59.1 -13.0 -59.5 -13.25 -59.45 -15.15 -58.55 -15.9 L-57.55 -16.0 Q-56.2 -17.05 -53.2 -17.9 L-52.35 -18.15 -44.05 -23.05 -42.8 -23.85" fill="#000000" fill-opacity="0.15294118" fill-rule="evenodd" stroke="none"/>
  </g>
  <defs>
    <linearGradient gradientTransform="matrix(0.1104, 0.0, 0.0, 0.0533, 315.0, -66.3)" gradientUnits="userSpaceOnUse" id="gradient0" spreadMethod="pad" x1="-819.2" x2="819.2">
      <stop offset="0.0" stop-color="#3f311f"/>
      <stop offset="1.0" stop-color="#978957"/>
    </linearGradient>
    <linearGradient gradientTransform="matrix(-0.0063, 0.0253, -0.086, -0.0215, 249.1, -27.8)" gradientUnits="userSpaceOnUse" id="gradient1" spreadMethod="pad" x1="-819.2" x2="819.2">
      <stop offset="0.0" stop-color="#3f311f"/>
      <stop offset="1.0" stop-color="#978957"/>
    </linearGradient>
  </defs>
</svg>
