<?xml version="1.0" encoding="UTF-8" standalone="no"?>
<svg xmlns:xlink="http://www.w3.org/1999/xlink" height="23.95px" width="317.45px" xmlns="http://www.w3.org/2000/svg">
  <g transform="matrix(1.0, 0.0, 0.0, 1.0, -40.15, -70.75)">
    <path d="M319.15 77.45 Q316.5 77.25 314.75 78.8 312.75 80.6 312.75 84.15 312.75 85.95 314.95 88.05 317.3 90.3 319.85 90.3 321.55 90.3 323.5 88.1 325.5 85.85 325.5 83.5 325.5 81.05 323.5 79.3 321.65 77.65 319.15 77.45 M325.4 77.35 L327.15 79.95 327.6 84.55 327.4 86.95 Q327.1 88.15 326.15 89.35 L325.2 90.6 323.5 91.6 319.2 92.65 316.4 93.2 Q312.4 91.5 311.75 90.8 311.4 89.35 310.7 88.35 310.15 87.6 310.15 86.6 310.15 83.05 310.45 81.55 311.05 78.8 313.15 76.45 313.7 75.85 314.65 75.15 315.75 74.35 316.5 74.1 L320.35 74.35 321.1 74.6 322.4 75.45 Q324.6 76.5 325.4 77.35 M341.65 77.65 Q341.0 79.05 341.0 82.0 341.0 84.2 341.5 86.05 341.65 86.65 343.65 88.1 L344.55 89.3 Q345.6 90.05 349.5 90.05 350.5 90.05 351.75 88.8 352.9 87.65 353.35 86.7 L354.0 84.7 354.35 82.5 Q354.35 77.15 348.25 75.35 343.25 74.2 341.65 77.65 M344.8 71.25 L349.25 71.35 Q354.0 73.3 356.05 77.4 357.6 80.4 357.6 84.3 357.6 86.8 356.15 89.4 353.75 93.7 348.5 93.7 342.4 93.7 339.75 88.45 338.9 86.8 338.5 84.75 L338.25 82.85 338.45 79.55 Q338.8 77.65 339.75 76.3 L340.9 74.65 Q341.65 73.65 342.6 72.95 343.35 72.65 344.8 71.25 M83.1 76.15 L84.6 77.45 Q86.7 79.8 87.3 82.55 87.6 84.05 87.6 87.6 87.6 88.6 87.05 89.35 86.35 90.35 86.0 91.8 85.35 92.5 81.35 94.2 L78.55 93.65 74.25 92.6 Q73.2 92.3 72.55 91.6 L71.6 90.35 Q70.65 89.15 70.35 87.95 L70.15 85.55 70.6 80.95 Q70.6 80.8 72.35 78.35 73.15 77.5 75.35 76.45 L76.65 75.6 77.4 75.35 81.25 75.1 83.1 76.15 M83.0 79.8 Q81.25 78.25 78.6 78.45 76.1 78.65 74.25 80.3 72.25 82.05 72.25 84.5 72.25 86.85 74.25 89.1 76.2 91.3 77.9 91.3 80.45 91.3 82.8 89.05 85.0 86.95 85.0 85.15 85.0 81.6 83.0 79.8 M52.95 72.25 L55.15 73.95 56.85 75.65 58.0 77.3 Q58.95 78.65 59.3 80.55 L59.5 83.85 59.25 85.75 Q58.85 87.8 58.0 89.45 55.35 94.7 49.25 94.7 44.0 94.7 41.6 90.4 40.15 87.8 40.15 85.3 40.15 81.4 41.7 78.4 43.75 74.3 48.5 72.35 L52.95 72.25 M56.1 78.65 Q54.5 75.2 49.5 76.35 43.4 78.15 43.4 83.5 43.4 84.2 43.75 85.7 L44.4 87.7 Q44.85 88.65 46.0 89.8 47.25 91.05 48.25 91.05 52.15 91.05 53.2 90.3 53.7 89.4 54.1 89.1 56.1 87.65 56.25 87.05 56.75 85.2 56.75 83.0 56.75 80.05 56.1 78.65" fill="#ffffff" fill-rule="evenodd" stroke="none"/>
  </g>
</svg>
