<?xml version="1.0" encoding="UTF-8" standalone="no"?>
<svg xmlns:xlink="http://www.w3.org/1999/xlink" height="59.6px" width="75.75px" xmlns="http://www.w3.org/2000/svg">
  <g transform="matrix(1.0, 0.0, 0.0, 1.0, 0.0, 0.0)">
    <path d="M61.4 0.85 L62.55 1.25 62.2 1.05 61.4 0.85 M62.9 0.5 L64.25 2.15 Q67.7 5.0 67.7 5.45 L67.35 5.9 66.75 6.15 66.35 6.15 Q67.9 7.1 68.7 8.1 69.8 9.4 69.8 11.35 69.8 12.9 67.85 24.65 L67.85 24.75 Q67.85 25.75 66.6 27.6 L64.8 30.0 63.1 32.3 63.8 31.05 62.35 33.25 60.85 36.0 60.55 35.55 59.45 37.6 58.45 38.05 Q57.6 38.3 57.5 38.45 57.5 39.0 57.0 39.3 56.55 38.9 56.85 38.6 55.6 38.9 52.1 37.45 L51.85 38.5 51.75 39.4 56.4 41.25 62.15 41.75 64.7 43.05 64.35 43.5 61.6 43.75 66.2 44.6 66.45 44.6 66.3 44.25 66.35 43.95 66.6 43.95 Q67.0 44.3 67.75 44.65 L67.45 44.4 Q68.3 44.45 69.25 45.2 L69.9 45.4 Q71.75 45.95 71.75 47.1 L71.6 47.55 71.45 47.7 71.85 48.2 72.95 49.15 Q73.4 49.4 73.5 50.0 L73.9 52.15 73.9 52.3 74.1 52.65 73.8 52.5 73.75 52.55 75.05 57.45 75.4 57.6 75.75 57.95 75.35 58.35 75.1 58.4 75.1 59.0 74.95 59.15 74.5 59.1 74.4 58.45 71.8 58.75 Q71.15 58.8 70.65 59.35 L68.05 59.25 65.45 59.55 66.1 59.6 54.3 58.95 41.6 58.25 39.2 58.5 29.45 58.8 8.85 57.8 0.75 57.3 0.25 57.3 0.15 57.05 0.05 56.95 0.0 56.6 0.3 55.75 0.55 54.25 Q0.8 52.8 1.45 52.2 L1.25 53.3 2.25 50.9 3.35 48.55 2.85 48.65 2.5 48.35 Q4.65 45.25 8.7 43.1 L10.25 42.4 10.45 42.2 13.1 40.3 12.1 40.1 14.95 39.3 16.0 39.05 16.75 38.9 18.4 38.4 24.35 38.05 25.55 37.45 26.1 37.0 Q26.65 35.85 28.45 35.45 L32.05 34.85 Q34.15 34.4 35.55 33.2 L36.7 32.0 37.5 29.1 37.8 28.95 38.2 29.6 38.8 27.5 Q39.15 25.8 39.65 24.85 L39.65 23.95 39.6 23.35 38.75 25.35 38.4 25.3 38.3 24.9 39.3 21.6 40.9 15.7 Q41.2 14.2 42.4 11.05 L42.55 10.65 42.45 10.8 Q40.4 15.25 39.3 16.8 L40.35 14.35 Q40.9 13.2 40.9 12.05 40.9 11.65 41.55 10.45 L42.35 9.15 42.5 9.0 40.55 9.55 40.05 9.4 42.25 8.0 44.25 6.55 45.5 5.15 Q46.45 4.2 47.45 3.8 L51.2 2.0 54.1 1.45 53.95 0.7 Q54.0 0.2 54.9 0.2 L58.2 0.7 Q59.6 0.7 61.4 0.1 62.4 -0.25 62.9 0.5 M61.05 1.4 Q60.3 1.4 60.3 2.5 L60.35 3.15 60.4 3.35 63.1 4.55 63.9 4.9 63.7 3.65 63.3 2.3 Q63.05 1.95 62.15 1.65 L61.05 1.4 M64.3 3.1 Q64.45 5.5 65.75 5.5 L66.9 5.3 65.4 3.9 Q64.55 3.05 64.3 3.1 M55.7 2.2 L53.8 2.45 56.25 2.3 55.7 2.2 M58.05 2.5 L59.0 2.75 59.8 3.1 59.8 1.45 57.15 1.1 54.75 0.9 54.7 1.5 Q56.6 1.7 57.9 2.4 L58.05 2.5 M51.55 2.85 L53.0 2.55 Q53.45 2.25 53.15 2.2 51.15 2.4 50.55 2.9 L50.65 3.1 51.55 2.85 M45.25 7.3 L46.8 6.3 46.75 5.9 46.8 5.55 45.25 7.2 45.25 7.3 M43.85 8.0 L44.0 7.75 43.6 7.9 43.85 8.0 M49.2 4.45 Q47.9 5.1 47.5 5.85 L49.9 4.25 49.6 4.3 49.2 4.45 M41.5 16.05 L43.1 11.2 Q41.8 13.8 41.5 16.05 M50.5 35.95 L51.3 36.15 50.55 35.9 50.5 35.95 M58.7 36.35 Q57.9 37.1 57.85 37.55 L57.85 37.7 Q58.85 37.4 59.35 36.55 L59.85 35.5 58.7 36.35 M57.5 36.8 Q54.4 37.05 52.95 36.8 L52.4 36.6 52.35 36.75 53.35 37.2 55.35 37.9 Q56.9 37.9 57.1 37.5 L57.5 36.8 M57.55 42.05 L59.35 42.75 61.1 43.15 63.75 43.1 61.85 42.3 57.45 42.0 57.55 42.05 M69.25 46.25 L69.4 46.35 69.3 46.25 69.2 46.2 69.25 46.25 M38.8 30.0 L38.1 31.35 38.05 31.5 37.8 32.35 Q38.3 31.75 38.8 30.0 M35.95 34.65 L36.25 33.5 Q34.7 34.8 32.35 35.55 L34.6 35.15 35.8 35.2 35.95 34.65 M27.65 36.45 L27.1 36.7 28.85 36.3 27.65 36.45 M32.75 36.15 L31.1 36.5 33.0 36.15 32.75 36.15" fill="#000000" fill-rule="evenodd" stroke="none"/>
  </g>
</svg>
