<?xml version="1.0" encoding="UTF-8" standalone="no"?>
<svg xmlns:xlink="http://www.w3.org/1999/xlink" height="61.25px" width="74.7px" xmlns="http://www.w3.org/2000/svg">
  <g transform="matrix(1.0, 0.0, 0.0, 1.0, 0.0, 0.0)">
    <path d="M55.5 42.55 Q62.35 42.75 64.6 43.8 L64.6 43.85 61.15 43.55 Q62.6 43.8 64.65 45.15 L68.5 48.0 68.4 47.7 Q68.4 47.45 68.7 47.25 70.55 48.5 71.9 50.05 73.4 51.65 73.65 52.8 L73.95 55.6 Q74.05 57.3 74.65 58.5 74.8 58.7 74.3 58.7 L74.2 58.7 74.15 58.75 Q74.0 58.95 73.5 58.95 L62.3 58.45 57.7 58.95 51.95 59.45 48.5 59.95 44.15 60.05 41.3 60.0 36.0 60.3 28.1 60.55 17.25 60.05 15.15 59.55 9.85 59.75 Q9.95 60.05 8.9 60.2 L3.6 60.3 3.3 60.6 1.7 60.85 1.15 60.8 0.85 61.25 0.4 61.2 0.45 60.85 Q0.0 60.4 0.0 59.3 L0.25 58.2 0.2 57.7 0.6 55.8 1.2 53.95 Q1.5 52.6 2.2 52.0 2.55 51.7 4.45 51.1 L7.15 50.3 7.05 50.2 7.0 49.85 Q7.0 49.3 13.35 46.95 20.7 44.25 22.9 42.8 L22.3 42.95 22.25 42.65 23.2 41.95 Q24.3 41.1 24.75 39.7 L25.55 38.2 25.1 38.0 Q23.65 36.8 22.55 34.85 L21.3 31.75 Q20.2 29.2 19.7 29.2 19.25 29.2 19.1 27.65 L18.85 25.2 18.85 22.55 19.05 22.55 Q18.6 21.5 18.3 20.3 L16.95 14.9 16.9 14.9 17.45 19.15 Q17.85 21.65 18.6 23.4 L18.6 23.45 Q17.55 22.6 16.95 19.5 16.5 17.15 16.5 15.05 L16.55 14.25 16.9 13.95 17.35 15.1 17.1 12.65 Q16.1 12.45 16.1 11.55 16.1 10.8 16.5 10.05 L17.05 8.45 17.95 6.0 19.8 3.35 Q21.1 1.7 22.8 1.0 28.05 -1.2 35.25 1.4 39.9 3.05 41.35 4.85 43.85 5.9 43.85 7.25 43.85 7.8 42.1 8.9 L42.6 9.4 42.75 8.95 43.15 8.95 43.65 12.75 44.0 16.8 44.0 17.7 44.6 17.7 44.65 19.05 Q44.65 22.7 43.65 28.5 L42.7 32.8 43.0 33.0 43.05 33.3 43.2 33.2 43.1 33.5 43.15 34.25 Q43.3 35.1 43.6 35.55 L44.6 37.45 Q47.65 40.2 53.8 42.45 L55.5 42.55 M57.25 43.7 Q63.4 45.85 66.5 47.4 65.4 46.6 63.8 45.7 L60.1 43.75 60.05 43.55 57.55 43.65 57.25 43.7 M40.8 5.95 L40.2 5.45 40.75 6.0 40.8 5.95 M43.05 7.1 L41.95 6.15 41.95 6.45 Q42.05 7.05 41.3 7.1 L41.8 8.3 43.05 7.1 M32.9 1.75 L28.2 1.85 27.95 2.15 29.9 2.55 32.3 2.8 33.95 2.6 32.9 1.75 M17.3 11.4 L17.2 11.1 17.0 11.4 16.5 11.8 16.45 11.8 17.05 12.3 17.05 12.2 17.1 11.6 17.3 11.4 M17.85 14.6 L17.85 14.65 18.0 13.6 17.7 13.0 17.85 14.6 M17.5 15.8 L17.9 17.35 17.5 15.75 17.5 15.8 M18.7 17.55 L18.85 19.4 19.55 22.6 19.6 22.65 19.95 21.05 19.9 21.0 Q18.95 19.35 18.8 18.1 L18.7 17.55 M25.25 33.5 L26.15 34.4 27.2 35.2 25.2 33.45 25.25 33.5 M24.0 34.35 Q24.35 35.25 26.0 36.6 L26.4 36.9 26.3 36.4 26.4 36.0 26.5 35.95 23.95 34.3 24.0 34.35 M29.2 38.55 L29.5 39.2 29.55 38.05 29.4 38.15 29.2 38.55 M28.6 38.6 L28.7 37.85 27.45 36.75 28.2 37.7 28.25 38.35 28.6 38.6 M28.6 40.1 L29.35 41.3 29.45 40.4 28.85 40.0 28.2 39.2 28.6 40.1 M27.45 37.75 L27.3 37.5 26.7 36.75 27.1 37.5 27.45 37.75 M26.95 37.9 L26.85 37.75 26.5 37.55 26.5 37.6 26.45 38.05 26.6 38.15 26.85 38.15 27.1 38.1 26.95 37.9 M26.7 38.55 Q26.05 39.7 26.05 40.15 L26.05 40.25 26.35 40.05 27.6 38.9 26.7 38.55 M41.8 35.45 L41.8 35.25 41.75 35.3 41.8 35.45 M42.7 36.2 L42.8 37.35 42.8 37.4 43.0 37.65 43.0 37.4 42.9 36.45 42.7 36.2 M42.5 34.95 L42.7 35.25 42.45 34.45 42.45 34.5 42.5 34.95 M39.35 38.55 L39.4 38.55 39.4 37.45 Q39.2 37.6 39.05 38.8 L39.35 38.55 M47.6 40.45 L46.65 40.65 46.25 40.6 Q48.0 41.45 50.2 41.95 L47.6 40.45 M44.0 39.0 Q44.6 39.7 45.2 40.05 L45.4 40.15 44.8 39.5 44.15 38.25 44.0 39.0 M45.4 39.45 Q45.95 40.1 47.2 40.2 L45.05 38.55 45.4 39.45" fill="#000000" fill-rule="evenodd" stroke="none"/>
  </g>
</svg>
