<?xml version="1.0" encoding="UTF-8" standalone="no"?>
<svg xmlns:xlink="http://www.w3.org/1999/xlink" height="148.8px" width="221.1px" xmlns="http://www.w3.org/2000/svg">
  <g transform="matrix(1.0, 0.0, 0.0, 1.0, 0.0, 0.0)">
    <path d="M128.35 128.4 L128.3 128.4 128.35 128.35 128.35 128.4 M217.6 9.25 Q222.3 12.8 220.65 18.55 219.15 23.7 216.65 28.4 214.3 32.8 211.4 36.75 L211.2 37.05 203.95 44.6 Q199.4 48.85 194.1 51.7 181.95 58.3 173.15 66.65 168.4 71.15 160.0 81.4 156.65 85.5 149.85 96.0 L143.55 105.25 Q140.9 110.1 137.15 114.25 L129.5 122.65 Q125.9 126.6 121.85 130.15 118.3 133.15 113.9 136.1 109.6 138.7 105.1 140.6 99.5 142.85 93.65 144.7 L89.85 145.85 83.7 147.05 80.7 147.25 75.7 148.1 66.5 148.8 Q53.05 148.8 35.0 144.1 24.35 141.3 17.15 138.45 6.45 134.15 2.6 128.9 0.0 125.25 0.0 119.45 0.0 105.95 26.9 81.05 49.8 59.9 74.4 45.35 L104.8 26.85 Q123.95 15.7 142.0 8.15 157.1 1.9 160.35 1.1 169.4 -1.15 181.1 1.15 185.7 2.75 199.7 4.0 L206.75 4.85 Q212.75 5.6 217.6 9.25" fill="#000000" fill-rule="evenodd" stroke="none"/>
  </g>
</svg>
