<?xml version="1.0" encoding="UTF-8" standalone="no"?>
<svg xmlns:xlink="http://www.w3.org/1999/xlink" height="482.75px" width="603.4px" xmlns="http://www.w3.org/2000/svg">
  <g transform="matrix(1.0, 0.0, 0.0, 1.0, 175.6, 225.85)">
    <path d="M236.1 -220.3 L236.05 -220.3 Q235.8 -222.15 233.7 -221.65 232.25 -221.3 231.7 -220.45 L220.75 -220.8 174.9 -219.35 129.05 -217.9 Q96.8 -217.9 65.55 -220.65 L24.05 -223.4 15.35 -223.0 6.9 -222.55 5.45 -222.25 4.4 -222.15 3.1 -222.2 Q3.65 -220.3 3.65 -217.55 L3.75 -210.8 4.05 -204.4 4.0 -198.05 Q4.0 -193.75 4.5 -185.45 L5.05 -172.55 5.8 -121.7 5.7 -115.7 5.95 -114.0 5.9 -109.3 6.05 -100.75 6.05 -93.85 5.9 -93.65 Q4.8 -92.1 5.4 -91.05 L5.9 -54.3 6.25 -48.1 6.55 -44.9 6.8 -42.25 6.85 -42.0 6.75 -42.0 6.6 -41.9 6.65 -35.1 6.45 -34.2 Q5.9 -31.4 5.9 -30.05 L6.4 -19.95 6.9 -4.3 7.4 8.45 7.0 11.1 Q6.65 13.55 6.85 15.3 7.05 17.3 7.95 18.6 L8.05 21.5 7.95 29.2 Q13.15 26.25 17.7 22.15 32.75 8.65 50.7 -0.95 57.9 -4.8 64.95 -9.1 71.15 -12.85 77.95 -15.15 86.25 -17.95 93.85 -13.65 96.6 -12.1 98.35 -9.35 101.05 -5.0 101.95 -0.5 103.6 10.25 96.95 18.9 91.0 26.65 83.15 32.75 78.55 36.25 74.5 40.45 L65.0 50.65 Q61.05 55.1 55.55 57.45 L55.3 57.55 Q43.15 63.05 33.85 72.8 27.8 79.25 24.65 87.5 23.6 90.1 22.9 92.85 L21.55 99.2 Q19.35 112.4 14.05 124.9 L12.7 128.0 Q11.55 129.05 10.5 131.7 L8.75 135.4 Q7.4 138.35 7.4 139.45 L7.4 139.75 7.3 140.05 7.25 140.25 7.15 142.05 7.35 145.7 7.15 146.0 7.15 149.55 Q6.95 154.25 6.9 163.95 L6.9 171.35 6.95 175.3 7.05 175.9 6.8 176.45 Q6.85 184.6 7.5 195.55 L7.8 200.25 8.05 200.1 Q9.05 201.75 9.05 204.6 L8.55 208.2 8.05 211.75 Q8.05 215.4 8.7 217.75 9.15 219.3 12.35 219.2 L15.65 218.75 22.2 219.65 29.15 220.75 Q34.5 222.15 49.3 223.35 L55.55 223.85 74.15 225.3 87.3 226.85 108.65 227.05 129.4 227.65 151.2 228.7 Q160.95 229.1 170.6 230.95 L180.25 232.7 Q190.4 234.45 200.7 235.0 L219.6 236.25 241.55 237.85 263.35 239.5 Q264.85 239.7 265.5 240.05 272.1 240.75 307.9 241.0 311.8 241.05 313.55 241.8 L321.4 241.5 329.65 242.85 340.55 244.8 346.8 246.3 362.65 247.8 373.0 248.6 393.5 249.55 403.05 249.5 413.05 250.05 418.05 250.65 Q420.95 251.2 422.65 252.3 L422.55 251.0 Q422.55 248.25 423.25 243.05 L423.9 235.0 423.85 227.1 426.25 227.2 426.2 236.75 425.55 246.25 424.95 252.75 424.8 253.3 Q425.3 253.7 424.05 253.7 L423.9 253.7 423.65 254.1 Q423.35 254.45 422.55 254.45 L417.75 253.5 398.5 252.55 363.35 250.85 Q351.4 249.7 342.45 248.05 L325.05 245.0 314.4 244.3 313.4 244.45 311.0 244.45 309.75 244.55 309.6 244.45 263.35 242.35 245.9 241.15 185.7 236.5 Q179.35 236.05 175.4 234.9 170.1 233.4 166.85 232.95 150.35 230.4 87.3 229.5 L75.4 228.25 55.55 226.55 44.25 225.95 32.75 224.45 18.45 222.0 10.6 221.05 Q6.3 220.25 6.3 217.85 L6.05 214.75 5.8 212.05 6.05 209.2 6.3 206.55 Q5.85 204.1 5.5 200.7 4.95 194.95 4.95 192.35 L5.15 180.25 Q1.85 187.9 -1.0 196.05 -2.8 201.25 -5.75 205.7 -8.0 209.0 -33.7 238.65 -59.45 268.3 -53.2 249.8 -46.95 231.3 -55.3 237.6 -63.65 243.85 -66.7 249.7 -69.75 255.5 -75.8 245.45 -81.9 235.35 -86.25 235.0 -94.85 245.05 -104.6 239.65 -114.4 234.2 -129.85 235.6 -145.35 237.0 -151.8 240.2 -158.3 243.4 -161.55 245.3 -164.85 247.2 -165.9 237.6 -166.95 228.0 -170.25 237.05 L-174.7 209.75 -175.6 209.0 Q-169.7 200.45 -164.7 191.3 -162.75 187.7 -160.45 184.25 -156.3 178.2 -153.4 171.65 L-150.1 164.85 Q-140.6 147.3 -132.65 129.05 -126.85 115.7 -122.65 101.7 L-119.95 92.8 -111.95 68.25 -108.7 58.65 Q-106.75 53.2 -105.25 47.65 -104.85 46.2 -104.1 44.85 -102.2 41.4 -101.7 37.8 L-100.8 31.25 Q-100.4 28.25 -99.6 25.25 -98.65 21.5 -99.5 17.55 L-99.5 16.15 Q-98.45 10.7 -95.6 6.15 -92.3 0.9 -88.4 -4.0 L-79.0 -15.7 Q-74.35 -21.5 -69.15 -25.65 -67.15 -27.25 -65.5 -29.35 -54.3 -44.0 -41.1 -57.15 L-30.25 -67.7 -20.3 -76.55 Q-16.2 -79.95 -11.0 -81.45 -3.65 -83.65 3.85 -85.2 L3.8 -91.75 Q3.8 -107.8 4.05 -116.4 L4.3 -116.45 Q3.65 -131.5 2.75 -158.6 1.25 -201.35 1.25 -216.85 L1.1 -219.9 Q1.15 -221.55 1.55 -222.55 L1.4 -222.65 1.35 -222.45 1.3 -223.2 Q1.3 -224.3 3.75 -224.7 L11.45 -225.8 Q25.35 -226.05 42.05 -225.1 L62.0 -223.55 78.15 -222.1 Q99.0 -220.8 129.3 -220.8 149.45 -220.8 176.2 -222.2 L220.7 -223.65 295.9 -221.15 319.75 -221.15 Q346.4 -221.2 367.45 -220.9 L400.5 -219.65 402.85 -220.45 Q404.8 -221.25 408.0 -221.15 L414.5 -221.65 419.5 -222.15 Q423.05 -222.15 425.0 -221.45 425.5 -223.0 426.25 -223.95 L427.0 -220.05 Q427.35 -219.45 427.15 -218.85 L427.15 -218.7 427.4 -213.0 427.25 -202.15 427.75 -180.7 Q427.75 -174.4 426.75 -166.45 L425.65 -154.9 425.8 -150.35 425.4 -141.3 426.4 -124.2 424.9 -105.55 Q423.4 -87.45 423.4 -81.8 423.4 -76.75 423.85 -71.75 L424.75 -59.65 424.7 -48.7 Q424.45 -41.45 424.75 -37.45 L425.0 -31.65 424.55 -31.95 423.3 -47.5 Q422.8 -54.15 422.8 -62.65 L422.95 -86.7 Q423.0 -97.75 422.6 -105.45 424.2 -109.5 424.2 -110.25 424.2 -110.8 422.7 -112.1 L423.65 -124.15 422.65 -141.45 Q422.65 -146.35 423.0 -150.75 L423.45 -154.75 423.4 -157.9 424.25 -167.45 Q424.25 -169.1 424.8 -176.4 425.2 -181.85 424.75 -185.5 424.25 -189.2 424.45 -196.15 L424.75 -203.3 Q424.2 -207.95 424.1 -212.35 424.0 -215.65 424.35 -218.15 L419.55 -219.3 419.5 -219.3 419.5 -218.9 407.75 -218.3 Q404.25 -218.3 402.85 -217.35 L401.25 -216.4 377.95 -217.4 367.7 -218.05 319.95 -218.25 296.45 -218.3 236.1 -220.3 M422.75 -30.95 L423.5 -30.7 423.8 -30.7 424.3 -30.05 424.65 -30.5 424.65 -30.8 424.9 -30.85 425.0 -30.85 425.1 -26.6 Q425.3 -19.7 426.25 -15.3 426.75 -13.0 426.8 -9.75 L426.75 -4.05 Q426.75 -2.1 427.25 2.2 L427.75 6.8 Q427.75 15.5 427.35 20.65 426.95 25.95 426.1 29.15 L426.15 29.2 426.2 30.0 425.75 47.25 Q425.3 65.6 425.3 74.55 L425.6 85.5 425.65 86.45 424.85 86.35 423.25 86.2 423.05 74.85 422.8 64.3 422.8 46.1 423.05 41.6 423.3 37.1 Q422.75 34.0 422.8 32.25 422.85 30.35 424.0 29.6 L424.25 27.7 424.9 21.75 425.15 16.2 425.4 12.0 Q425.2 -3.9 424.25 -11.7 423.45 -18.1 422.75 -30.95 M3.9 -82.9 L-0.4 -81.9 Q-11.6 -79.45 -20.8 -72.45 -28.1 -66.9 -34.85 -60.45 -50.9 -45.0 -64.85 -27.9 L-66.45 -26.45 -69.1 -24.15 Q-71.5 -21.95 -71.5 -21.3 L-71.5 -21.25 Q-81.65 -9.8 -90.65 2.65 -93.25 6.25 -94.75 10.5 -96.95 16.55 -97.65 22.9 -99.8 41.95 -106.6 60.05 -109.3 67.3 -111.5 74.65 -118.4 97.35 -126.7 119.7 -131.9 133.7 -138.15 147.05 -148.15 168.4 -160.8 188.45 L-165.9 196.35 -164.85 199.55 Q-163.75 202.35 -161.55 204.45 -159.7 206.2 -157.2 207.0 -136.5 213.5 -114.85 213.95 -99.55 214.25 -89.2 203.0 -87.9 201.6 -87.05 199.9 -83.9 193.55 -79.95 187.7 -76.55 182.6 -73.7 177.2 -67.45 165.35 -59.15 154.65 -56.65 151.5 -53.15 149.85 -51.5 149.05 -49.7 149.0 -36.65 147.7 -23.95 144.45 L-18.0 142.7 Q-25.8 142.3 -33.55 140.1 L-41.55 138.0 Q-39.45 135.85 -36.6 135.1 -31.05 133.6 -25.05 132.9 -15.8 131.4 -7.75 126.6 L-5.35 125.0 Q-11.05 124.15 -16.25 121.7 L-24.5 117.95 0.5 111.6 Q-9.45 111.15 -18.3 107.25 L-27.75 103.05 -27.85 103.05 -27.85 103.0 -28.0 102.95 -27.9 102.9 -27.9 102.8 Q-27.9 101.85 -25.55 97.95 L-25.3 97.6 -25.1 97.2 -21.85 91.75 -19.45 89.15 -19.05 88.5 -15.3 84.55 -11.1 80.35 -9.2 78.8 -7.7 77.3 Q0.6 69.1 10.9 63.5 15.5 61.05 20.15 58.1 22.15 56.85 23.85 55.25 L43.45 36.2 47.1 32.7 44.3 20.65 44.6 20.3 48.7 22.95 50.25 24.3 51.6 26.0 52.75 27.75 55.55 26.65 Q64.45 21.8 71.75 14.45 69.9 12.75 68.45 10.55 65.8 6.6 65.85 1.7 69.7 12.25 80.3 15.7 L83.0 13.7 Q90.2 7.85 93.95 -0.5 L95.15 -3.6 96.65 -8.2 Q94.75 -10.1 92.45 -11.45 90.0 -12.85 87.25 -13.35 L84.85 -13.05 Q73.65 -11.75 63.45 -6.3 45.35 3.45 29.1 16.15 20.85 22.7 12.05 28.25 L7.85 30.85 7.8 31.1 6.85 31.45 3.6 33.35 3.55 33.85 Q-8.95 38.15 -22.05 41.15 L-25.6 41.9 -28.5 42.4 -30.45 43.15 -31.7 43.55 -35.55 44.1 -35.65 44.0 -37.35 44.15 -38.1 44.05 -42.3 43.35 -42.8 43.3 -48.9 40.9 -48.7 40.7 -48.65 40.65 -47.8 40.8 -45.1 41.25 -37.95 41.5 Q-34.4 41.5 -33.4 40.85 L-32.0 40.75 -41.05 34.75 -39.7 35.2 Q-38.6 35.75 -36.6 36.85 L-34.75 37.6 -32.8 38.2 Q-29.05 39.75 -24.75 39.45 L-21.25 38.95 Q-39.1 24.95 -53.1 7.15 L-55.95 3.2 -49.5 3.8 -49.2 3.75 -48.55 3.75 -47.4 3.45 -46.8 3.45 -45.8 3.2 -45.85 2.3 Q-45.55 1.9 -45.55 1.5 -45.55 0.1 -47.4 -2.1 L-49.55 -4.05 -49.55 -4.2 -46.8 -3.9 -41.45 -4.4 -38.3 -5.15 Q-36.6 -7.1 -35.9 -9.4 -35.45 -10.95 -35.9 -12.55 -37.65 -19.1 -44.45 -21.6 L-53.35 -24.8 -44.2 -32.65 Q-35.95 -39.5 -28.7 -47.5 -21.5 -55.45 -15.9 -64.5 -14.0 -67.65 -10.75 -69.15 -5.95 -71.45 -0.8 -72.35 L3.95 -73.4 3.9 -82.9 M4.3 -31.65 L4.25 -40.7 Q-3.15 -36.55 -7.1 -29.05 -8.3 -26.8 -10.0 -24.6 -13.15 -20.5 -17.7 -17.75 -23.15 -14.3 -23.6 -8.15 -11.8 -22.85 4.3 -31.65 M3.55 -13.55 L4.6 -13.75 4.3 -29.9 Q-5.15 -24.2 -13.1 -16.35 L-23.1 -6.75 -20.5 -3.1 Q-16.55 -4.7 -13.2 -7.55 -9.8 -10.45 -5.6 -11.55 L3.55 -13.55 M66.4 -0.5 Q68.2 -4.95 72.25 -7.95 L65.95 0.85 66.4 -0.5 M425.65 88.15 L425.55 96.7 425.05 109.75 424.8 118.45 425.2 132.4 424.9 133.5 424.55 135.45 422.85 136.9 422.8 136.3 Q417.8 138.5 407.9 143.25 396.95 148.55 393.7 148.55 390.55 148.55 388.5 147.75 386.5 146.95 381.3 146.95 376.4 146.95 367.05 150.25 358.55 153.25 350.7 152.45 L355.6 155.9 Q360.7 158.95 365.15 158.95 369.4 158.95 372.75 157.85 376.1 156.7 379.7 156.7 385.1 156.7 390.85 158.95 394.45 160.35 396.4 161.7 397.8 162.7 401.65 163.85 L410.15 166.3 Q415.85 168.1 420.5 170.95 L424.6 173.9 424.5 172.65 425.3 173.55 Q426.75 175.0 427.45 177.6 L427.8 187.75 Q427.8 198.45 426.8 204.45 426.3 207.75 426.25 212.55 L426.3 220.6 426.25 225.75 423.85 225.3 423.8 219.25 Q423.8 213.95 424.55 203.45 425.3 192.95 425.3 187.85 L424.75 176.65 422.35 175.35 Q419.65 173.75 418.55 172.8 414.9 169.4 407.65 167.95 401.55 166.75 399.15 165.65 396.8 164.35 394.5 163.3 392.15 161.95 389.65 160.9 384.7 158.95 379.8 158.95 374.45 158.95 371.85 160.1 369.3 161.2 367.95 161.2 362.4 161.2 358.5 159.6 356.3 158.7 352.8 156.2 349.5 153.85 347.1 153.05 343.25 151.75 337.65 152.2 L337.55 152.1 Q337.4 151.95 337.4 151.2 L337.45 150.45 337.65 150.2 356.1 150.15 363.15 148.95 364.5 148.4 367.7 147.45 372.05 146.0 Q376.75 144.7 381.2 144.7 386.25 144.7 388.25 145.6 390.25 146.45 393.7 146.45 398.15 146.45 414.2 137.7 420.1 134.5 422.7 133.55 L422.3 118.55 Q423.3 100.2 423.3 91.2 L423.3 88.05 423.7 88.2 425.65 88.15 M2.0 32.0 Q4.15 31.15 6.2 30.1 L5.5 16.8 Q1.65 19.15 -1.5 22.45 -3.95 25.0 -2.35 27.85 -1.55 29.25 -0.3 30.25 L2.0 32.0 M-40.65 40.85 L-40.6 40.8 -40.25 40.85 -40.65 40.85 M-40.05 44.3 L-40.3 44.3 -40.4 44.25 -40.05 44.3" fill="#000000" fill-rule="evenodd" stroke="none"/>
    <path d="M236.05 -220.3 L236.05 -219.8 236.1 -220.3 296.45 -218.3 319.95 -218.25 367.7 -218.05 377.95 -217.4 401.25 -216.4 402.85 -217.35 Q404.25 -218.3 407.75 -218.3 L419.5 -218.9 419.55 -219.3 424.35 -218.15 Q424.0 -215.65 424.1 -212.35 424.2 -207.95 424.75 -203.3 L424.45 -196.15 Q424.25 -189.2 424.75 -185.5 425.2 -181.85 424.8 -176.4 424.25 -169.1 424.25 -167.45 L423.4 -157.9 423.45 -154.75 423.0 -150.75 Q422.65 -146.35 422.65 -141.45 L423.65 -124.15 422.7 -112.1 Q424.2 -110.8 424.2 -110.25 424.2 -109.5 422.6 -105.45 423.0 -97.75 422.95 -86.7 L422.8 -62.65 Q422.8 -54.15 423.3 -47.5 L424.55 -31.95 425.0 -31.65 425.75 -31.05 425.0 -30.85 424.9 -30.85 424.65 -30.8 424.65 -30.5 424.3 -30.05 423.8 -30.7 423.5 -30.7 422.75 -30.95 420.2 -32.1 Q417.15 -33.55 415.75 -33.55 412.25 -33.55 409.15 -29.35 406.1 -25.2 405.5 -25.2 402.1 -25.2 398.25 -28.4 395.7 -30.55 394.65 -32.2 L392.05 -36.15 Q390.55 -38.5 390.15 -40.05 389.75 -42.8 388.95 -44.25 L386.6 -45.95 Q384.45 -47.45 384.05 -48.0 382.3 -50.8 381.85 -52.25 381.55 -53.3 381.55 -55.9 381.55 -58.4 382.8 -61.8 L384.05 -65.65 Q384.05 -68.6 380.3 -71.1 376.55 -73.65 376.55 -75.8 376.55 -76.9 377.55 -78.4 378.55 -79.85 378.55 -81.0 378.55 -82.35 376.25 -84.95 L372.3 -89.05 361.65 -96.7 Q358.5 -96.7 353.9 -91.05 349.3 -85.4 348.9 -85.4 L346.3 -85.6 344.5 -86.9 Q341.7 -88.5 339.9 -87.15 338.45 -86.0 336.15 -88.3 335.85 -87.15 335.8 -84.95 L335.65 -81.4 Q335.55 -80.3 335.85 -77.95 335.8 -76.0 334.0 -75.15 337.15 -71.2 341.0 -67.75 343.25 -65.35 343.25 -61.65 343.25 -52.8 336.15 -44.05 329.35 -35.7 323.4 -35.7 313.75 -35.7 310.8 -38.35 L309.1 -40.2 Q308.1 -41.05 306.25 -41.05 304.4 -41.05 302.95 -40.15 301.5 -39.3 300.2 -39.3 293.35 -39.3 286.2 -43.55 278.55 -48.1 278.55 -53.3 278.55 -56.25 281.3 -60.05 L284.05 -64.0 284.05 -64.75 283.9 -65.15 281.5 -65.1 279.65 -64.9 Q277.4 -64.9 277.2 -65.5 L276.65 -67.15 271.4 -68.0 Q271.2 -68.25 271.15 -68.6 L271.05 -69.15 269.8 -72.3 Q268.85 -74.3 267.15 -74.3 265.65 -74.3 261.3 -72.85 L256.75 -71.4 250.75 -71.9 248.4 -72.8 245.0 -73.4 Q243.2 -73.7 242.75 -74.05 241.5 -75.2 241.5 -77.8 241.5 -83.15 241.0 -85.65 240.1 -90.15 236.9 -94.0 231.7 -100.3 222.75 -100.3 L209.7 -99.7 208.65 -98.95 206.55 -98.55 Q205.75 -98.55 204.4 -99.05 L202.45 -99.8 Q200.85 -100.4 199.9 -101.0 L198.65 -101.2 193.8 -98.35 Q188.85 -95.55 187.55 -95.55 178.65 -95.55 176.0 -99.2 174.65 -103.25 173.0 -104.05 164.5 -107.85 162.45 -109.0 159.65 -110.55 159.65 -112.75 159.65 -114.65 159.9 -115.65 L159.85 -116.3 Q159.85 -117.15 160.6 -118.2 L162.8 -120.9 165.75 -122.9 166.8 -123.9 Q167.85 -124.8 168.35 -124.75 170.85 -124.6 172.05 -127.85 172.8 -130.0 172.8 -132.5 L172.4 -137.8 171.85 -142.25 Q171.85 -143.65 175.0 -150.8 177.35 -155.2 183.0 -159.9 190.4 -165.95 192.05 -169.4 193.0 -171.35 193.0 -177.25 193.0 -178.15 194.35 -184.4 194.6 -185.95 195.6 -187.9 196.05 -188.85 197.3 -189.75 199.8 -191.45 202.5 -192.1 L202.5 -192.4 Q202.5 -196.15 208.1 -196.95 L214.6 -197.55 223.0 -198.85 225.45 -198.9 229.45 -203.5 Q234.3 -209.4 234.3 -211.4 L233.3 -212.5 Q232.2 -213.6 231.85 -215.25 231.3 -217.65 231.3 -219.15 231.3 -219.9 231.7 -220.45 232.25 -221.3 233.7 -221.65 235.8 -222.15 236.05 -220.3 M426.25 227.2 L423.85 227.1 Q419.75 226.75 415.6 225.45 L409.9 223.55 Q396.25 221.5 384.55 222.05 L368.2 223.05 Q353.1 223.05 350.35 222.7 345.15 222.0 331.5 217.45 314.9 211.9 313.05 211.0 307.75 208.6 307.75 204.7 307.75 203.95 308.45 202.15 L309.1 199.85 308.65 201.2 308.0 201.0 307.9 199.95 308.0 198.15 Q308.35 197.05 309.95 196.2 310.75 195.8 312.35 195.3 313.75 194.7 314.25 193.3 L314.2 189.7 Q314.2 187.55 314.5 186.2 315.75 181.2 319.25 178.15 322.15 175.65 322.15 172.5 L321.4 168.6 Q320.65 165.55 320.65 164.6 L320.65 162.95 Q321.35 162.15 322.65 161.7 322.65 159.7 322.9 158.7 324.0 154.35 324.65 152.7 325.05 151.7 326.5 149.55 L328.65 146.7 Q329.35 145.95 331.9 145.15 L335.25 144.2 337.4 142.75 338.75 141.1 340.15 135.25 341.4 129.1 Q341.6 128.15 342.65 126.25 L344.4 123.1 346.8 120.1 347.55 118.7 Q347.7 118.35 348.15 118.35 L356.8 118.7 Q361.2 118.7 361.75 116.75 362.05 112.9 363.55 109.2 364.8 106.0 366.15 104.25 369.25 100.2 373.95 100.2 384.35 100.2 387.9 101.65 L389.6 102.6 390.9 103.05 Q394.8 103.05 396.75 101.5 L402.0 97.7 405.6 95.75 Q406.8 94.9 408.15 92.7 L409.65 89.7 411.15 88.2 413.1 87.7 417.9 86.95 419.95 86.1 422.25 86.05 423.25 86.2 424.85 86.35 425.65 86.45 Q426.85 86.65 427.65 87.2 L425.65 88.15 423.7 88.2 423.3 88.05 423.3 91.2 Q423.3 100.2 422.3 118.55 L422.7 133.55 Q420.1 134.5 414.2 137.7 398.15 146.45 393.7 146.45 390.25 146.45 388.25 145.6 386.25 144.7 381.2 144.7 376.75 144.7 372.05 146.0 L367.7 147.45 364.5 148.4 363.15 148.95 356.1 150.15 337.65 150.2 337.45 150.45 337.4 151.2 Q337.4 151.95 337.55 152.1 L337.65 152.2 Q343.25 151.75 347.1 153.05 349.5 153.85 352.8 156.2 356.3 158.7 358.5 159.6 362.4 161.2 367.95 161.2 369.3 161.2 371.85 160.1 374.45 158.95 379.8 158.95 384.7 158.95 389.65 160.9 392.15 161.95 394.5 163.3 396.8 164.35 399.15 165.65 401.55 166.75 407.65 167.95 414.9 169.4 418.55 172.8 419.65 173.75 422.35 175.35 L424.75 176.65 425.3 187.85 Q425.3 192.95 424.55 203.45 423.8 213.95 423.8 219.25 L423.85 225.3 426.25 225.75 427.65 226.05 427.8 226.45 427.75 226.95 426.9 227.2 426.25 227.2 M25.7 -115.05 L25.9 -115.2 Q27.25 -113.7 28.15 -111.45 28.85 -114.35 30.85 -117.0 35.25 -122.7 44.45 -124.5 57.9 -124.3 62.2 -121.8 L65.15 -119.5 Q66.85 -118.05 69.0 -117.3 71.8 -116.1 72.5 -115.4 L74.5 -113.5 Q75.75 -112.5 77.5 -112.05 L78.3 -111.35 78.4 -110.15 Q78.4 -107.45 76.65 -105.95 L76.6 -105.85 Q76.15 -104.95 74.0 -103.95 69.45 -101.85 68.0 -100.7 67.5 -100.25 67.15 -99.35 66.7 -98.2 66.75 -96.95 L66.75 -93.55 Q66.75 -88.7 64.8 -87.85 61.25 -87.15 57.95 -85.15 57.1 -84.65 55.75 -80.0 54.55 -75.9 52.45 -75.9 47.4 -75.9 43.45 -79.15 40.2 -81.8 40.2 -83.5 40.2 -85.5 41.7 -87.25 43.2 -89.0 43.2 -90.25 43.2 -91.75 40.55 -93.0 L34.45 -95.3 Q31.55 -96.35 30.8 -98.1 30.35 -100.3 29.7 -101.7 29.3 -102.55 28.85 -104.15 28.5 -104.65 28.25 -105.4 27.7 -106.95 27.7 -108.05 L27.7 -108.5 Q26.75 -112.5 25.4 -114.8 L25.7 -115.05 M76.65 -109.8 L76.25 -110.6 76.6 -109.45 76.65 -109.8 M156.85 -31.7 Q158.4 -35.75 161.15 -38.55 L163.9 -41.95 Q165.4 -43.9 167.65 -45.4 170.45 -47.25 174.6 -45.55 178.4 -44.0 178.4 -42.45 178.4 -41.7 172.3 -35.0 165.65 -27.65 164.15 -24.3 L159.55 -26.55 158.15 -27.65 156.05 -29.0 156.85 -31.7 M141.45 -0.9 Q143.0 -5.9 143.65 -7.3 L144.75 -10.4 Q145.45 -12.35 146.15 -12.55 148.4 -13.35 152.8 -11.8 156.9 -10.35 156.9 -9.65 156.9 -8.95 154.85 -4.25 L153.25 -0.5 149.7 10.1 147.6 10.55 Q143.0 11.35 139.5 8.85 L141.35 -0.5 141.45 -0.9 M250.55 -118.4 L249.6 -118.0 Q247.8 -117.0 247.8 -115.65 L247.8 -115.2 247.35 -115.25 247.15 -115.05 Q241.9 -111.85 239.75 -107.3 L242.5 -105.55 Q244.25 -104.45 244.65 -104.45 245.7 -104.45 251.3 -110.8 L252.5 -112.1 Q253.7 -112.3 254.65 -113.35 L255.55 -114.6 255.95 -115.15 Q256.75 -116.3 256.75 -117.0 L256.45 -118.1 Q255.9 -119.0 254.75 -119.0 L253.45 -118.8 253.05 -118.85 250.95 -118.55 250.75 -118.55 250.55 -118.4 M275.0 -143.7 Q274.95 -144.8 274.7 -145.3 274.1 -146.45 272.25 -146.05 271.1 -145.8 270.85 -144.5 L270.5 -142.55 268.05 -139.2 Q266.0 -136.45 266.0 -135.4 L266.0 -135.2 264.95 -135.0 Q264.0 -134.6 264.0 -133.2 264.0 -132.6 265.15 -131.45 266.6 -130.0 268.1 -130.0 269.7 -130.0 270.6 -131.5 L272.75 -135.5 273.35 -136.9 274.1 -138.5 275.45 -140.3 Q276.0 -141.05 276.0 -141.8 276.0 -143.25 275.0 -143.7 M288.75 -176.05 Q288.75 -177.45 288.4 -178.5 287.7 -179.35 286.85 -179.5 285.75 -179.7 285.0 -178.5 284.45 -177.65 284.4 -176.15 L284.1 -173.65 282.95 -169.15 Q282.25 -165.7 282.25 -164.0 282.15 -163.3 282.35 -162.7 282.8 -161.5 284.25 -161.5 286.15 -161.5 286.5 -164.05 L286.9 -168.55 Q287.45 -170.85 288.35 -172.95 288.75 -173.95 288.75 -176.05 M173.9 -122.65 L173.9 -123.1 173.6 -122.7 173.9 -122.65 M297.7 -114.65 L297.7 -114.6 297.75 -114.6 297.7 -114.65 M259.0 -115.45 L259.05 -115.75 258.85 -115.5 259.0 -115.45 M224.25 -83.05 Q218.5 -76.65 217.45 -76.65 216.2 -76.65 213.7 -80.35 211.45 -83.7 211.45 -84.25 211.45 -85.45 216.4 -89.4 L222.65 -94.2 Q226.85 -97.7 229.5 -94.75 231.4 -92.6 231.4 -89.9 231.4 -88.3 228.65 -86.35 L224.25 -83.05 M194.3 -71.4 Q199.75 -75.75 203.4 -66.2 203.4 -64.45 202.1 -63.55 L196.45 -59.75 190.9 -54.15 Q190.0 -54.15 187.0 -58.35 184.15 -62.35 184.15 -62.75 184.15 -63.75 188.1 -66.75 L194.3 -71.4 M347.65 -33.95 Q357.7 -33.95 367.65 -31.15 380.2 -27.65 380.2 -21.95 L379.75 -17.8 379.3 -13.7 Q379.3 -12.85 374.3 -9.3 373.05 -8.4 373.0 -7.3 L372.8 -5.55 Q371.6 -3.75 368.7 -1.15 364.65 2.35 361.9 2.35 354.95 2.35 351.2 -0.7 348.5 -2.85 348.5 -4.95 L348.7 -8.55 Q348.8 -10.75 348.5 -12.05 348.15 -13.7 344.7 -15.1 340.15 -16.75 337.75 -17.95 334.85 -19.4 333.3 -21.6 332.0 -23.4 332.0 -25.05 332.0 -26.35 332.9 -27.8 L335.15 -31.05 Q335.65 -31.75 340.9 -33.45 L345.65 -33.8 347.0 -33.2 346.85 -33.55 Q346.85 -33.95 347.65 -33.95 M178.8 24.6 L181.25 24.0 Q186.45 23.95 188.35 28.75 L193.25 41.55 Q195.15 46.8 200.9 46.35 L203.3 48.0 Q206.9 50.65 207.85 54.9 L207.4 55.35 Q205.6 56.95 205.3 59.35 214.5 61.7 222.9 65.85 L225.05 67.55 Q228.05 70.8 227.8 75.4 227.35 82.5 221.05 85.6 213.85 89.0 214.65 97.35 215.5 105.8 215.45 114.3 215.45 119.85 210.65 123.4 L223.1 127.45 223.65 128.25 Q217.6 151.25 204.25 171.05 196.55 169.6 190.25 164.75 L189.0 166.7 Q188.5 167.65 188.45 168.75 188.35 172.0 188.95 175.3 L184.5 180.15 Q183.25 181.35 181.75 182.2 175.8 185.25 173.2 191.1 172.1 193.5 170.25 195.3 163.05 202.05 153.3 205.0 136.25 210.3 118.1 209.05 L105.05 208.5 Q97.8 208.45 92.9 203.2 L92.95 204.7 92.55 205.0 91.25 200.6 89.7 195.25 Q88.9 192.85 87.55 191.0 85.8 188.6 85.55 185.75 84.7 175.0 91.6 166.3 93.25 164.25 95.2 162.5 99.65 158.7 100.85 153.2 102.1 147.6 98.7 143.1 96.55 140.3 93.65 138.3 90.9 136.35 90.0 133.4 89.5 131.65 90.1 129.75 90.55 128.35 89.65 127.25 83.8 120.45 78.95 113.0 76.85 109.8 76.65 106.0 76.5 103.4 77.5 100.85 79.7 95.4 75.95 90.8 L70.15 83.75 Q67.4 80.4 65.25 76.7 64.65 75.7 64.9 74.45 66.25 67.35 72.4 62.75 80.9 56.4 87.8 48.2 89.05 46.75 89.65 45.05 90.6 42.25 91.0 39.25 91.5 35.6 92.6 32.15 95.95 21.4 106.55 19.5 108.9 19.15 110.85 17.95 116.6 14.15 123.35 12.2 132.8 9.6 141.75 13.85 144.45 15.1 147.4 15.75 L150.55 15.8 154.75 15.0 Q161.9 13.3 165.55 19.25 170.1 26.7 178.8 24.6 M183.05 79.25 L185.55 75.6 180.95 73.7 183.05 79.25 M180.7 87.2 L175.85 95.05 177.9 99.85 177.55 100.85 174.6 97.15 172.95 99.85 173.6 101.9 172.25 102.2 171.9 101.5 163.45 115.45 Q172.95 117.05 181.9 120.7 L181.4 119.0 182.65 120.9 Q198.2 126.3 213.65 132.25 L213.3 133.2 210.3 132.75 211.95 136.3 215.0 131.15 Q215.2 133.1 214.35 134.9 L212.75 138.3 213.8 142.55 211.65 140.8 209.2 146.35 209.8 147.7 209.45 148.45 208.65 147.45 206.65 154.45 205.75 153.8 203.1 159.2 204.3 162.95 204.05 163.3 202.05 161.1 200.7 162.8 Q185.9 156.9 172.7 147.75 L172.15 148.05 156.75 137.3 Q154.2 153.45 154.0 169.8 L152.45 167.4 151.95 170.65 152.25 171.3 151.85 171.55 149.65 184.2 Q130.6 176.5 112.7 166.55 124.45 146.3 139.0 127.95 120.15 118.65 99.35 114.4 L98.9 115.35 97.85 114.25 92.65 114.35 Q94.45 106.0 97.95 98.05 101.15 90.9 104.6 84.1 107.0 84.4 109.3 85.4 116.0 88.5 121.5 93.55 L122.3 93.05 122.85 94.7 Q134.45 100.25 144.5 108.0 L152.45 61.6 152.95 60.05 154.45 57.2 155.5 55.8 155.75 58.05 Q160.25 58.6 164.05 61.25 176.1 69.5 189.7 74.6 L189.75 76.55 187.15 76.15 183.8 82.0 184.2 84.65 182.9 84.65 182.5 84.2 181.8 85.3 182.9 88.5 182.55 89.3 180.7 87.2 M178.95 72.75 L174.7 70.65 180.7 82.85 181.4 81.75 178.95 72.75 M166.5 66.7 Q167.8 66.75 168.35 67.9 L177.6 87.75 179.3 85.0 172.55 69.5 159.4 61.5 156.8 63.2 158.2 66.35 161.6 64.75 161.5 63.1 Q166.2 68.7 168.7 75.8 L172.7 86.8 174.75 92.2 176.6 89.3 Q170.55 78.5 166.5 66.7 M162.9 70.55 L163.4 70.95 160.95 72.55 171.7 97.0 173.15 94.6 161.85 65.55 158.75 67.6 160.35 71.15 162.9 70.55 M195.35 72.5 L184.7 66.4 Q174.25 59.95 162.7 55.65 155.85 53.0 148.5 52.2 L145.0 72.9 142.5 96.65 144.2 98.95 140.65 98.4 140.4 97.9 Q137.1 96.0 133.95 93.95 127.7 89.95 121.15 86.3 111.15 80.75 100.45 76.2 95.1 89.95 90.05 103.9 L87.6 110.45 Q86.55 113.1 87.75 115.35 88.65 117.05 90.5 117.6 106.35 121.3 121.9 125.95 126.8 127.4 131.15 130.1 L132.25 130.0 Q126.85 138.35 120.8 146.1 116.7 151.3 113.6 157.05 110.55 162.75 109.05 169.05 116.8 172.85 123.7 177.6 130.9 182.55 138.8 186.3 145.45 189.55 152.4 191.35 156.5 177.65 158.5 163.55 159.8 154.65 159.4 145.75 L160.05 145.9 160.4 145.6 Q163.95 145.55 167.35 147.45 175.4 151.75 182.75 157.05 192.25 163.85 202.7 168.8 L204.65 166.0 Q209.8 158.5 213.1 150.2 217.2 139.75 221.8 129.2 L209.9 125.3 209.55 125.6 Q200.5 121.45 190.95 118.35 180.6 114.95 170.1 112.85 L170.1 111.75 170.7 111.1 172.55 110.95 176.35 104.8 187.7 86.35 189.1 83.35 Q190.4 79.55 192.4 76.0 193.45 74.1 195.35 72.5 M170.0 122.3 L170.15 121.75 170.9 121.6 176.85 134.05 179.0 133.1 177.95 130.65 Q175.5 125.65 174.5 120.05 L165.9 117.75 Q171.2 126.0 174.6 135.15 L175.15 134.9 170.0 122.3 M166.3 106.15 L167.95 102.7 160.0 86.2 157.5 88.05 159.5 92.55 160.15 92.55 159.7 93.0 166.3 106.15 M204.15 145.8 L205.1 148.3 205.8 147.55 206.3 147.8 207.4 145.5 206.45 143.55 204.15 145.8 M204.9 139.45 L202.55 141.75 203.4 143.9 206.2 143.0 204.9 139.45 M208.1 132.15 L206.95 131.8 205.1 132.4 205.05 131.15 203.4 130.65 Q206.7 136.7 208.3 143.7 L210.6 138.9 208.1 132.15 M163.75 117.45 L162.9 117.35 162.55 117.8 162.4 117.2 162.15 117.6 161.4 117.1 161.5 115.95 Q162.95 111.4 165.4 107.7 160.9 101.45 158.1 94.25 L157.05 95.0 162.4 108.95 161.9 110.1 155.15 96.35 153.15 97.75 167.7 133.8 170.25 133.0 168.1 134.85 169.35 138.1 172.4 136.25 163.75 117.45 M164.0 135.85 L165.65 134.9 164.55 131.8 163.0 133.1 164.0 135.85 M162.5 131.8 L164.35 131.2 Q161.8 123.35 158.6 115.65 L153.35 103.35 150.75 105.25 162.5 131.8 M179.65 134.65 L177.75 135.9 179.25 138.95 181.15 138.0 179.65 134.65 M168.35 141.15 L167.1 141.5 169.3 143.05 168.35 141.15 M182.05 139.95 L180.3 141.2 181.9 144.5 183.5 143.1 182.05 139.95 M170.15 140.2 L171.75 144.2 174.8 141.8 173.35 138.45 170.15 140.2 M164.5 137.3 L164.8 139.9 166.05 140.8 167.55 139.45 166.2 136.2 164.5 137.3 M163.1 139.0 L162.8 138.4 161.15 137.7 162.15 137.05 161.1 134.55 158.7 136.55 163.1 139.0 M175.45 137.25 L176.75 140.5 177.45 140.0 176.05 136.95 175.45 137.25 M175.95 144.05 L172.85 145.4 177.3 148.2 178.05 147.6 175.95 144.05 M177.7 143.0 L179.05 146.8 180.1 145.95 178.55 142.45 177.7 143.0 M185.9 137.25 L184.05 138.45 185.5 141.55 188.0 140.05 182.6 123.05 175.8 120.5 183.45 137.1 184.9 136.7 185.9 137.25 M202.15 130.2 L195.95 128.1 Q198.6 131.8 200.2 136.1 L201.65 139.8 204.75 138.75 202.15 130.2 M194.95 130.45 Q194.45 129.05 195.25 128.05 L184.05 123.6 189.8 139.25 192.8 138.5 190.25 140.45 191.4 143.4 194.9 141.2 Q191.95 134.25 190.3 126.85 L190.8 126.85 196.65 140.2 198.5 139.25 Q196.55 134.85 194.95 130.45 M199.7 141.95 L199.1 140.6 197.3 141.9 197.9 143.5 199.7 141.95 M190.6 146.45 L188.45 147.85 189.55 150.3 191.4 148.6 190.6 146.45 M187.55 146.0 L189.8 144.45 188.65 141.6 186.3 143.3 187.55 146.0 M185.65 147.35 L184.3 144.75 182.6 145.95 183.9 148.65 185.65 147.35 M196.25 144.7 L195.6 143.05 192.2 145.4 192.95 147.3 196.25 144.7 M200.45 143.6 L198.55 145.25 199.35 147.7 201.4 145.75 200.45 143.6 M198.95 154.55 L198.0 150.95 195.45 153.1 197.15 156.6 198.95 154.55 M199.95 149.4 L200.95 152.45 203.45 149.9 202.25 147.5 199.95 149.4 M199.05 160.0 L199.5 160.2 200.75 158.85 199.45 155.85 197.6 157.35 199.05 160.0 M195.35 158.05 L195.7 157.85 Q194.7 156.3 193.85 154.55 L192.05 156.3 Q193.6 157.1 195.35 158.05 M193.75 149.2 L194.7 151.4 197.5 149.15 196.85 146.6 193.75 149.2 M201.45 154.1 L202.2 156.35 204.5 151.75 201.45 154.1 M169.0 101.45 L170.6 98.75 161.6 79.0 159.65 80.45 169.0 101.45 M216.85 170.2 Q215.3 168.05 216.35 165.75 217.1 164.1 218.7 163.35 226.8 159.75 228.25 151.2 229.05 146.5 230.95 142.1 239.0 140.15 243.6 146.55 245.75 149.6 245.9 153.4 246.15 159.25 245.35 165.1 244.8 169.25 241.1 171.35 232.55 176.15 222.9 174.15 219.05 173.35 216.85 170.2 M178.7 148.85 L181.4 150.6 182.25 149.9 180.75 147.3 178.7 148.85 M192.1 150.55 L190.3 151.8 191.45 154.3 193.0 152.85 192.1 150.55 M184.7 150.35 L185.85 153.0 Q186.9 153.55 187.9 154.25 189.4 155.35 190.6 155.15 L186.55 149.1 184.7 150.35 M106.4 86.3 L104.65 85.0 104.0 87.25 105.3 86.65 106.4 86.3 M138.4 31.85 L137.75 47.35 Q140.4 45.5 143.55 45.25 L144.9 45.1 145.4 32.35 138.4 31.85 M108.25 87.6 L107.1 88.15 108.3 91.55 111.05 90.55 111.05 89.5 108.25 87.6 M111.3 91.35 L108.75 92.65 109.95 96.15 112.25 95.3 111.3 91.35 M105.2 94.55 L106.25 97.95 108.05 97.05 107.15 93.5 105.2 94.55 M106.3 88.6 L103.9 90.55 104.8 93.2 106.85 92.2 106.3 88.6 M104.6 98.85 L103.7 95.35 101.45 96.55 102.65 100.05 104.6 98.85 M111.6 90.4 L112.2 90.25 111.3 89.65 111.6 90.4 M103.35 93.95 L102.9 91.0 101.1 95.25 103.35 93.95 M112.6 96.7 L110.5 97.85 111.35 100.95 113.4 100.05 112.6 96.7 M115.8 92.65 L112.75 90.6 111.85 91.05 113.5 94.95 115.8 94.95 113.95 95.95 115.2 99.35 117.4 98.7 115.8 92.65 M155.55 59.35 L155.2 61.2 155.95 61.3 157.55 60.4 155.55 59.35 M155.7 75.75 L152.35 77.3 154.8 81.7 157.4 80.0 155.7 75.75 M152.2 76.5 Q153.25 75.55 155.1 74.3 L153.5 70.2 152.2 76.5 M159.1 79.1 L161.35 78.45 159.25 73.65 157.2 74.9 159.1 79.1 M155.15 69.45 L156.6 73.3 158.6 72.05 157.1 68.5 155.15 69.45 M156.55 67.2 L155.35 64.15 154.55 64.7 153.9 68.15 154.35 68.4 156.55 67.2 M153.8 84.35 Q153.25 84.7 152.65 85.0 L153.95 87.5 154.9 87.15 153.8 84.35 M155.4 83.3 L156.75 86.35 159.9 86.0 158.05 81.55 155.4 83.3 M152.0 84.0 L153.25 82.85 151.8 78.5 150.85 82.8 152.0 84.0 M150.6 92.3 L150.6 91.5 Q150.8 90.05 152.1 89.1 L150.45 84.85 149.45 91.5 152.3 95.95 154.4 94.55 152.95 91.1 150.6 92.3 M148.45 98.65 L150.85 97.0 149.35 92.4 148.45 98.65 M155.8 89.3 L155.0 89.85 156.4 93.4 157.45 92.95 155.8 89.3 M121.9 96.65 L117.9 94.0 125.8 119.25 125.55 119.75 134.05 123.9 127.45 99.65 124.05 98.0 Q128.3 107.5 131.55 117.65 L132.9 122.75 131.85 122.75 Q128.05 115.35 125.45 107.4 L121.9 96.65 M149.15 100.45 L148.2 100.2 150.0 103.9 152.95 102.35 151.55 98.85 149.15 100.45 M131.75 101.65 L129.9 100.8 136.6 125.2 140.4 127.05 131.75 101.65 M138.9 107.3 L134.05 102.8 142.9 128.1 143.3 128.4 Q146.35 141.8 152.15 154.3 L153.7 142.5 Q152.25 139.65 151.45 136.45 L150.0 131.15 142.9 110.0 140.9 108.9 Q147.9 127.75 152.9 147.3 L152.15 147.95 Q148.55 141.1 146.5 133.85 L138.9 107.3 M145.4 109.85 L145.0 110.0 144.7 110.5 Q148.1 118.0 150.55 125.85 L154.55 138.55 155.3 136.35 154.4 135.45 156.0 135.0 145.4 109.85 M148.55 104.8 L147.6 102.85 146.4 106.75 158.1 134.5 160.4 132.75 Q157.6 122.35 152.6 112.85 L149.25 106.25 147.65 107.1 146.65 106.1 148.55 104.8 M136.1 138.6 L135.1 135.75 130.4 142.3 136.1 138.6 M135.1 146.2 L137.9 145.5 135.7 147.7 143.3 164.8 145.75 164.05 143.75 165.7 145.6 169.8 148.15 169.2 146.15 171.0 148.5 175.95 149.05 175.8 149.8 169.5 Q148.0 167.3 147.1 164.8 142.5 152.2 136.7 140.15 L133.4 142.25 135.1 146.2 M139.85 138.35 L138.55 139.1 150.2 166.8 150.6 164.05 147.9 158.3 Q143.4 148.45 139.85 138.35 M127.65 146.45 L128.4 146.3 129.75 148.8 133.2 147.05 132.5 142.7 130.45 144.45 129.1 144.45 122.85 152.95 124.45 151.8 124.55 151.3 128.5 149.45 127.65 146.45 M141.25 130.15 L136.6 134.35 137.95 137.6 139.45 136.9 139.45 134.75 140.4 134.7 141.1 136.3 142.85 135.85 141.25 130.15 M115.1 107.9 L113.45 109.0 114.65 113.3 116.2 112.85 114.9 114.2 115.35 116.15 118.3 117.0 115.1 107.9 M113.75 101.65 L111.8 102.75 113.0 107.2 114.75 106.35 113.75 101.65 M143.05 136.55 L141.6 137.4 151.15 161.05 151.5 158.9 143.05 136.55 M116.8 105.65 L117.7 105.45 117.0 106.35 120.55 117.6 125.25 119.6 Q119.1 110.45 117.55 99.3 L115.6 100.55 116.8 105.65 M109.95 103.8 L108.25 104.7 109.55 109.0 111.2 108.1 109.95 103.8 M106.8 99.85 L107.65 102.7 109.35 101.85 108.55 98.9 106.8 99.85 M106.3 113.1 L106.6 114.05 110.45 114.9 Q109.1 113.6 108.3 112.05 L106.3 113.1 M102.15 112.95 L103.5 112.25 Q102.9 110.5 102.4 107.8 101.4 108.3 100.55 108.75 L102.15 112.95 M104.4 106.8 L105.65 111.1 107.45 110.15 106.5 105.65 104.4 106.8 M103.85 104.7 L105.95 103.6 105.1 100.8 103.15 101.9 103.85 104.7 M113.5 115.65 L113.3 115.0 111.15 115.05 113.5 115.65 M101.2 103.1 L99.2 104.45 100.0 107.0 102.0 105.75 101.2 103.1 M98.6 102.9 L100.6 101.4 99.75 98.85 98.4 102.4 98.6 102.9 M110.2 111.0 L111.3 114.7 112.95 113.95 111.8 110.05 110.2 111.0 M95.8 109.35 L95.3 110.65 96.0 109.95 95.8 109.35 M98.95 109.55 L97.85 110.1 98.8 112.8 101.1 113.1 Q99.75 111.7 98.95 109.55 M116.05 164.1 L115.3 165.55 116.8 166.3 116.05 164.1 M117.15 162.85 L118.25 162.2 117.85 160.85 116.9 162.5 117.15 162.85 M119.75 166.65 L118.6 163.3 117.85 164.15 118.95 167.1 119.75 166.65 M94.7 112.25 L96.95 112.55 96.3 110.85 95.05 111.4 94.7 112.25 M98.45 108.0 L98.35 107.7 97.75 105.45 97.55 105.6 97.2 105.6 96.7 106.9 97.4 108.75 98.45 108.0 M144.05 170.6 L142.15 166.9 138.5 169.65 140.15 173.2 144.05 170.6 M118.5 159.75 L119.7 161.3 122.7 159.4 121.7 156.7 Q122.95 157.4 123.95 158.6 L124.45 158.25 Q125.25 157.7 126.0 157.25 L125.0 153.75 123.2 154.3 122.1 154.05 118.5 159.75 M130.2 154.65 L129.2 151.65 126.05 153.25 127.25 156.5 130.2 154.65 M130.55 155.65 L127.7 157.75 129.0 161.35 Q131.0 160.25 132.1 159.75 L130.55 155.65 M126.4 158.6 L124.7 159.65 126.25 162.9 127.45 162.2 126.4 158.6 M127.95 163.85 L126.8 164.55 127.9 167.95 129.05 167.25 127.95 163.85 M121.55 165.6 L124.1 164.15 123.1 160.65 120.25 162.3 121.55 165.6 M129.5 162.85 L130.8 166.3 134.3 164.65 132.35 160.3 129.5 162.85 M122.1 167.1 L122.9 169.35 125.1 170.4 125.85 169.5 124.55 165.8 122.1 167.1 M138.1 176.05 L137.95 175.15 138.55 174.5 136.6 171.05 133.55 173.35 134.2 174.8 148.5 181.95 148.75 178.75 148.15 177.8 144.0 179.55 Q144.05 176.7 147.25 176.35 L144.8 172.05 140.95 174.75 142.95 178.2 139.5 175.6 138.1 176.05 M132.65 171.15 L135.9 169.0 134.9 166.15 131.45 168.1 132.65 171.15 M137.7 167.85 L141.5 165.65 133.85 148.95 130.75 150.8 136.1 163.95 139.9 163.2 136.6 165.15 137.7 167.85 M129.75 169.1 L128.55 169.9 129.4 172.05 131.55 173.55 129.75 169.1" fill="#29261b" fill-rule="evenodd" stroke="none"/>
    <path d="M76.65 -109.8 L76.6 -109.45 76.25 -110.6 76.65 -109.8 M250.55 -118.4 L250.75 -118.55 250.95 -118.55 250.55 -118.4 M195.35 72.5 Q193.45 74.1 192.4 76.0 190.4 79.55 189.1 83.35 L187.7 86.35 176.35 104.8 172.55 110.95 170.7 111.1 170.1 111.75 170.1 112.85 Q180.6 114.95 190.95 118.35 200.5 121.45 209.55 125.6 L209.9 125.3 221.8 129.2 Q217.2 139.75 213.1 150.2 209.8 158.5 204.65 166.0 L202.7 168.8 Q192.25 163.85 182.75 157.05 175.4 151.75 167.35 147.45 163.95 145.55 160.4 145.6 L160.05 145.9 159.4 145.75 Q159.8 154.65 158.5 163.55 156.5 177.65 152.4 191.35 145.45 189.55 138.8 186.3 130.9 182.55 123.7 177.6 116.8 172.85 109.05 169.05 110.55 162.75 113.6 157.05 116.7 151.3 120.8 146.1 126.85 138.35 132.25 130.0 L131.15 130.1 Q126.8 127.4 121.9 125.95 106.35 121.3 90.5 117.6 88.65 117.05 87.75 115.35 86.55 113.1 87.6 110.45 L90.05 103.9 Q95.1 89.95 100.45 76.2 111.15 80.75 121.15 86.3 127.7 89.95 133.95 93.95 137.1 96.0 140.4 97.9 L140.65 98.4 144.2 98.95 142.5 96.65 145.0 72.9 148.5 52.2 Q155.85 53.0 162.7 55.65 174.25 59.95 184.7 66.4 L195.35 72.5 M162.9 70.55 L160.35 71.15 158.75 67.6 161.85 65.55 173.15 94.6 171.7 97.0 160.95 72.55 163.4 70.95 162.9 70.55 M166.5 66.7 Q170.55 78.5 176.6 89.3 L174.75 92.2 172.7 86.8 168.7 75.8 Q166.2 68.7 161.5 63.1 L161.6 64.75 158.2 66.35 156.8 63.2 159.4 61.5 172.55 69.5 179.3 85.0 177.6 87.75 168.35 67.9 Q167.8 66.75 166.5 66.7 M178.95 72.75 L181.4 81.75 180.7 82.85 174.7 70.65 178.95 72.75 M180.7 87.2 L182.55 89.3 182.9 88.5 181.8 85.3 182.5 84.2 182.9 84.65 184.2 84.65 183.8 82.0 187.15 76.15 189.75 76.55 189.7 74.6 Q176.1 69.5 164.05 61.25 160.25 58.6 155.75 58.05 L155.5 55.8 154.45 57.2 152.95 60.05 152.45 61.6 144.5 108.0 Q134.45 100.25 122.85 94.7 L122.3 93.05 121.5 93.55 Q116.0 88.5 109.3 85.4 107.0 84.4 104.6 84.1 101.15 90.9 97.95 98.05 94.45 106.0 92.65 114.35 L97.85 114.25 98.9 115.35 99.35 114.4 Q120.15 118.65 139.0 127.95 124.45 146.3 112.7 166.55 130.6 176.5 149.65 184.2 L151.85 171.55 152.25 171.3 151.95 170.65 152.45 167.4 154.0 169.8 Q154.2 153.45 156.75 137.3 L172.15 148.05 172.7 147.75 Q185.9 156.9 200.7 162.8 L202.05 161.1 204.05 163.3 204.3 162.95 203.1 159.2 205.75 153.8 206.65 154.45 208.65 147.45 209.45 148.45 209.8 147.7 209.2 146.35 211.65 140.8 213.8 142.55 212.75 138.3 214.35 134.9 Q215.2 133.1 215.0 131.15 L211.95 136.3 210.3 132.75 213.3 133.2 213.65 132.25 Q198.2 126.3 182.65 120.9 L181.4 119.0 181.9 120.7 Q172.95 117.05 163.45 115.45 L171.9 101.5 172.25 102.2 173.6 101.9 172.95 99.85 174.6 97.15 177.55 100.85 177.9 99.85 175.85 95.05 180.7 87.2 M183.05 79.25 L180.95 73.7 185.55 75.6 183.05 79.25 M163.75 117.45 L172.4 136.25 169.35 138.1 168.1 134.85 170.25 133.0 167.7 133.8 153.15 97.75 155.15 96.35 161.9 110.1 162.4 108.95 157.05 95.0 158.1 94.25 Q160.9 101.45 165.4 107.7 162.95 111.4 161.5 115.95 L161.4 117.1 162.15 117.6 162.4 117.2 162.55 117.8 162.9 117.35 163.75 117.45 M168.35 141.15 L169.3 143.05 167.1 141.5 168.35 141.15 M175.45 137.25 L176.05 136.95 177.45 140.0 176.75 140.5 175.45 137.25 M177.7 143.0 L178.55 142.45 180.1 145.95 179.05 146.8 177.7 143.0 M185.65 147.35 L183.9 148.65 182.6 145.95 184.3 144.75 185.65 147.35 M187.55 146.0 L186.3 143.3 188.65 141.6 189.8 144.45 187.55 146.0 M190.6 146.45 L191.4 148.6 189.55 150.3 188.45 147.85 190.6 146.45 M199.7 141.95 L197.9 143.5 197.3 141.9 199.1 140.6 199.7 141.95 M200.45 143.6 L201.4 145.75 199.35 147.7 198.55 145.25 200.45 143.6 M199.95 149.4 L202.25 147.5 203.45 149.9 200.95 152.45 199.95 149.4 M201.45 154.1 L204.5 151.75 202.2 156.35 201.45 154.1 M138.4 31.85 L145.4 32.35 144.9 45.1 143.55 45.25 Q140.4 45.5 137.75 47.35 L138.4 31.85 M106.4 86.3 L105.3 86.65 104.0 87.25 104.65 85.0 106.4 86.3 M106.3 88.6 L106.85 92.2 104.8 93.2 103.9 90.55 106.3 88.6 M105.2 94.55 L107.15 93.5 108.05 97.05 106.25 97.95 105.2 94.55 M103.35 93.95 L101.1 95.25 102.9 91.0 103.35 93.95 M111.6 90.4 L111.3 89.65 112.2 90.25 111.6 90.4 M155.55 59.35 L157.55 60.4 155.95 61.3 155.2 61.2 155.55 59.35 M153.8 84.35 L154.9 87.15 153.95 87.5 152.65 85.0 Q153.25 84.7 153.8 84.35 M150.6 92.3 L152.95 91.1 154.4 94.55 152.3 95.95 149.45 91.5 150.45 84.85 152.1 89.1 Q150.8 90.05 150.6 91.5 L150.6 92.3 M155.8 89.3 L157.45 92.95 156.4 93.4 155.0 89.85 155.8 89.3 M148.55 104.8 L146.65 106.1 147.65 107.1 149.25 106.25 152.6 112.85 Q157.6 122.35 160.4 132.75 L158.1 134.5 146.4 106.75 147.6 102.85 148.55 104.8 M145.4 109.85 L156.0 135.0 154.4 135.45 155.3 136.35 154.55 138.55 150.55 125.85 Q148.1 118.0 144.7 110.5 L145.0 110.0 145.4 109.85 M138.9 107.3 L146.5 133.85 Q148.55 141.1 152.15 147.95 L152.9 147.3 Q147.9 127.75 140.9 108.9 L142.9 110.0 150.0 131.15 151.45 136.45 Q152.25 139.65 153.7 142.5 L152.15 154.3 Q146.35 141.8 143.3 128.4 L142.9 128.1 134.05 102.8 138.9 107.3 M131.75 101.65 L140.4 127.05 136.6 125.2 129.9 100.8 131.75 101.65 M143.05 136.55 L151.5 158.9 151.15 161.05 141.6 137.4 143.05 136.55 M113.75 101.65 L114.75 106.35 113.0 107.2 111.8 102.75 113.75 101.65 M115.1 107.9 L118.3 117.0 115.35 116.15 114.9 114.2 116.2 112.85 114.65 113.3 113.45 109.0 115.1 107.9 M106.8 99.85 L108.55 98.9 109.35 101.85 107.65 102.7 106.8 99.85 M109.95 103.8 L111.2 108.1 109.55 109.0 108.25 104.7 109.95 103.8 M113.5 115.65 L111.15 115.05 113.3 115.0 113.5 115.65 M95.8 109.35 L96.0 109.95 95.3 110.65 95.8 109.35 M98.45 108.0 L97.4 108.75 96.7 106.9 97.2 105.6 97.55 105.6 97.75 105.45 98.35 107.7 98.45 108.0 M94.7 112.25 L95.05 111.4 96.3 110.85 96.95 112.55 94.7 112.25 M119.75 166.65 L118.95 167.1 117.85 164.15 118.6 163.3 119.75 166.65 M117.15 162.85 L116.9 162.5 117.85 160.85 118.25 162.2 117.15 162.85 M116.05 164.1 L116.8 166.3 115.3 165.55 116.05 164.1 M130.2 154.65 L127.25 156.5 126.05 153.25 129.2 151.65 130.2 154.65 M127.95 163.85 L129.05 167.25 127.9 167.95 126.8 164.55 127.95 163.85 M122.1 167.1 L124.55 165.8 125.85 169.5 125.1 170.4 122.9 169.35 122.1 167.1" fill="#393524" fill-rule="evenodd" stroke="none"/>
    <path d="M236.05 -220.3 L236.1 -220.3 236.05 -219.8 236.05 -220.3 M419.5 -218.9 L419.5 -219.3 419.55 -219.3 419.5 -218.9 M423.85 227.1 L423.9 235.0 423.25 243.05 Q422.55 248.25 422.55 251.0 L422.65 252.3 Q420.95 251.2 418.05 250.65 L413.05 250.05 403.05 249.5 393.5 249.55 373.0 248.6 362.65 247.8 346.8 246.3 340.55 244.8 329.65 242.85 321.4 241.5 313.55 241.8 Q311.8 241.05 307.9 241.0 272.1 240.75 265.5 240.05 264.85 239.7 263.35 239.5 L241.55 237.85 219.6 236.25 200.7 235.0 Q190.4 234.45 180.25 232.7 L170.6 230.95 Q160.95 229.1 151.2 228.7 L129.4 227.65 108.65 227.05 87.3 226.85 74.15 225.3 55.55 223.85 49.3 223.35 Q34.5 222.15 29.15 220.75 L22.2 219.65 15.65 218.75 12.35 219.2 Q9.15 219.3 8.7 217.75 8.05 215.4 8.05 211.75 L8.55 208.2 9.05 204.6 Q9.05 201.75 8.05 200.1 L7.8 200.25 7.5 195.55 Q6.85 184.6 6.8 176.45 L7.05 175.9 6.95 175.3 6.9 171.35 6.9 163.95 Q6.95 154.25 7.15 149.55 L7.15 146.0 7.35 145.7 7.15 142.05 7.25 140.25 7.3 140.05 7.4 139.75 7.4 139.45 Q7.4 138.35 8.75 135.4 L10.5 131.7 Q11.55 129.05 12.7 128.0 L14.05 124.9 Q19.35 112.4 21.55 99.2 L22.9 92.85 Q23.6 90.1 24.65 87.5 27.8 79.25 33.85 72.8 43.15 63.05 55.3 57.55 L55.55 57.45 Q61.05 55.1 65.0 50.65 L74.5 40.45 Q78.55 36.25 83.15 32.75 91.0 26.65 96.95 18.9 103.6 10.25 101.95 -0.5 101.05 -5.0 98.35 -9.35 96.6 -12.1 93.85 -13.65 86.25 -17.95 77.95 -15.15 71.15 -12.85 64.95 -9.1 57.9 -4.8 50.7 -0.95 32.75 8.65 17.7 22.15 13.15 26.25 7.95 29.2 L8.05 21.5 7.95 18.6 Q7.05 17.3 6.85 15.3 6.65 13.55 7.0 11.1 L7.4 8.45 6.9 -4.3 6.4 -19.95 5.9 -30.05 Q5.9 -31.4 6.45 -34.2 L6.65 -35.1 6.6 -41.9 6.75 -42.0 6.85 -42.0 6.8 -42.25 6.55 -44.9 6.25 -48.1 5.9 -54.3 5.4 -91.05 Q4.8 -92.1 5.9 -93.65 L6.05 -93.85 6.05 -100.75 5.9 -109.3 5.95 -114.0 5.7 -115.7 5.8 -121.7 5.05 -172.55 4.5 -185.45 Q4.0 -193.75 4.0 -198.05 L4.05 -204.4 3.75 -210.8 3.65 -217.55 Q3.65 -220.3 3.1 -222.2 L4.4 -222.15 5.45 -222.25 6.9 -222.55 15.35 -223.0 24.05 -223.4 65.55 -220.65 Q96.8 -217.9 129.05 -217.9 L174.9 -219.35 220.75 -220.8 231.7 -220.45 Q231.3 -219.9 231.3 -219.15 231.3 -217.65 231.85 -215.25 232.2 -213.6 233.3 -212.5 L234.3 -211.4 Q234.3 -209.4 229.45 -203.5 L225.45 -198.9 223.0 -198.85 214.6 -197.55 208.1 -196.95 Q202.5 -196.15 202.5 -192.4 L202.5 -192.1 Q199.8 -191.45 197.3 -189.75 196.05 -188.85 195.6 -187.9 194.6 -185.95 194.35 -184.4 193.0 -178.15 193.0 -177.25 193.0 -171.35 192.05 -169.4 190.4 -165.95 183.0 -159.9 177.35 -155.2 175.0 -150.8 171.85 -143.65 171.85 -142.25 L172.4 -137.8 172.8 -132.5 Q172.8 -130.0 172.05 -127.85 170.85 -124.6 168.35 -124.75 167.85 -124.8 166.8 -123.9 L165.75 -122.9 162.8 -120.9 160.6 -118.2 Q159.85 -117.15 159.85 -116.3 L159.9 -115.65 Q159.65 -114.65 159.65 -112.75 159.65 -110.55 162.45 -109.0 164.5 -107.85 173.0 -104.05 174.65 -103.25 176.0 -99.2 178.65 -95.55 187.55 -95.55 188.85 -95.55 193.8 -98.35 L198.65 -101.2 199.9 -101.0 Q200.85 -100.4 202.45 -99.8 L204.4 -99.05 Q205.75 -98.55 206.55 -98.55 L208.65 -98.95 209.7 -99.7 222.75 -100.3 Q231.7 -100.3 236.9 -94.0 240.1 -90.15 241.0 -85.65 241.5 -83.15 241.5 -77.8 241.5 -75.2 242.75 -74.05 243.2 -73.7 245.0 -73.4 L248.4 -72.8 250.75 -71.9 256.75 -71.4 261.3 -72.85 Q265.65 -74.3 267.15 -74.3 268.85 -74.3 269.8 -72.3 L271.05 -69.15 271.15 -68.6 Q271.2 -68.25 271.4 -68.0 L276.65 -67.15 277.2 -65.5 Q277.4 -64.9 279.65 -64.9 L281.5 -65.1 283.9 -65.15 284.05 -64.75 284.05 -64.0 281.3 -60.05 Q278.55 -56.25 278.55 -53.3 278.55 -48.1 286.2 -43.55 293.35 -39.3 300.2 -39.3 301.5 -39.3 302.95 -40.15 304.4 -41.05 306.25 -41.05 308.1 -41.05 309.1 -40.2 L310.8 -38.35 Q313.75 -35.7 323.4 -35.7 329.35 -35.7 336.15 -44.05 343.25 -52.8 343.25 -61.65 343.25 -65.35 341.0 -67.75 337.15 -71.2 334.0 -75.15 335.8 -76.0 335.85 -77.95 335.55 -80.3 335.65 -81.4 L335.8 -84.95 Q335.85 -87.15 336.15 -88.3 338.45 -86.0 339.9 -87.15 341.7 -88.5 344.5 -86.9 L346.3 -85.6 348.9 -85.4 Q349.3 -85.4 353.9 -91.05 358.5 -96.7 361.65 -96.7 L372.3 -89.05 376.25 -84.95 Q378.55 -82.35 378.55 -81.0 378.55 -79.85 377.55 -78.4 376.55 -76.9 376.55 -75.8 376.55 -73.65 380.3 -71.1 384.05 -68.6 384.05 -65.65 L382.8 -61.8 Q381.55 -58.4 381.55 -55.9 381.55 -53.3 381.85 -52.25 382.3 -50.8 384.05 -48.0 384.45 -47.45 386.6 -45.95 L388.95 -44.25 Q389.75 -42.8 390.15 -40.05 390.55 -38.5 392.05 -36.15 L394.65 -32.2 Q395.7 -30.55 398.25 -28.4 402.1 -25.2 405.5 -25.2 406.1 -25.2 409.15 -29.35 412.25 -33.55 415.75 -33.55 417.15 -33.55 420.2 -32.1 L422.75 -30.95 Q423.45 -18.1 424.25 -11.7 425.2 -3.9 425.4 12.0 L425.15 16.2 424.9 21.75 424.25 27.7 424.0 29.6 Q422.85 30.35 422.8 32.25 422.75 34.0 423.3 37.1 L423.05 41.6 422.8 46.1 422.8 64.3 423.05 74.85 423.25 86.2 422.25 86.05 419.95 86.1 417.9 86.95 413.1 87.7 411.15 88.2 409.65 89.7 408.15 92.7 Q406.8 94.9 405.6 95.75 L402.0 97.7 396.75 101.5 Q394.8 103.05 390.9 103.05 L389.6 102.6 387.9 101.65 Q384.35 100.2 373.95 100.2 369.25 100.2 366.15 104.25 364.8 106.0 363.55 109.2 362.05 112.9 361.75 116.75 361.2 118.7 356.8 118.7 L348.15 118.35 Q347.7 118.35 347.55 118.7 L346.8 120.1 344.4 123.1 342.65 126.25 Q341.6 128.15 341.4 129.1 L340.15 135.25 338.75 141.1 337.4 142.75 335.25 144.2 331.9 145.15 Q329.35 145.95 328.65 146.7 L326.5 149.55 Q325.05 151.7 324.65 152.7 324.0 154.35 322.9 158.7 322.65 159.7 322.65 161.7 321.35 162.15 320.65 162.95 L320.65 164.6 Q320.65 165.55 321.4 168.6 L322.15 172.5 Q322.15 175.65 319.25 178.15 315.75 181.2 314.5 186.2 314.2 187.55 314.2 189.7 L314.25 193.3 Q313.75 194.7 312.35 195.3 310.75 195.8 309.95 196.2 308.35 197.05 308.0 198.15 L307.9 199.95 308.0 201.0 308.65 201.2 309.1 199.85 308.45 202.15 Q307.75 203.95 307.75 204.7 307.75 208.6 313.05 211.0 314.9 211.9 331.5 217.45 345.15 222.0 350.35 222.7 353.1 223.05 368.2 223.05 L384.55 222.05 Q396.25 221.5 409.9 223.55 L415.6 225.45 Q419.75 226.75 423.85 227.1 M25.7 -115.05 L25.4 -114.8 Q26.75 -112.5 27.7 -108.5 L27.7 -108.05 Q27.7 -106.95 28.25 -105.4 28.5 -104.65 28.85 -104.15 29.3 -102.55 29.7 -101.7 30.35 -100.3 30.8 -98.1 31.55 -96.35 34.45 -95.3 L40.55 -93.0 Q43.2 -91.75 43.2 -90.25 43.2 -89.0 41.7 -87.25 40.2 -85.5 40.2 -83.5 40.2 -81.8 43.45 -79.15 47.4 -75.9 52.45 -75.9 54.55 -75.9 55.75 -80.0 57.1 -84.65 57.95 -85.15 61.25 -87.15 64.8 -87.85 66.75 -88.7 66.75 -93.55 L66.75 -96.95 Q66.7 -98.2 67.15 -99.35 67.5 -100.25 68.0 -100.7 69.45 -101.85 74.0 -103.95 76.15 -104.95 76.6 -105.85 L76.65 -105.95 Q78.4 -107.45 78.4 -110.15 L78.3 -111.35 77.5 -112.05 Q75.75 -112.5 74.5 -113.5 L72.5 -115.4 Q71.8 -116.1 69.0 -117.3 66.85 -118.05 65.15 -119.5 L62.2 -121.8 Q57.9 -124.3 44.45 -124.5 35.25 -122.7 30.85 -117.0 28.85 -114.35 28.15 -111.45 27.25 -113.7 25.9 -115.2 L25.7 -115.05 M141.45 -0.9 L141.35 -0.5 139.5 8.85 Q143.0 11.35 147.6 10.55 L149.7 10.1 153.25 -0.5 154.85 -4.25 Q156.9 -8.95 156.9 -9.65 156.9 -10.35 152.8 -11.8 148.4 -13.35 146.15 -12.55 145.45 -12.35 144.75 -10.4 L143.65 -7.3 Q143.0 -5.9 141.45 -0.9 M156.85 -31.7 L156.05 -29.0 158.15 -27.65 159.55 -26.55 164.15 -24.3 Q165.65 -27.65 172.3 -35.0 178.4 -41.7 178.4 -42.45 178.4 -44.0 174.6 -45.55 170.45 -47.25 167.65 -45.4 165.4 -43.9 163.9 -41.95 L161.15 -38.55 Q158.4 -35.75 156.85 -31.7 M288.75 -176.05 Q288.75 -173.95 288.35 -172.95 287.45 -170.85 286.9 -168.55 L286.5 -164.05 Q286.15 -161.5 284.25 -161.5 282.8 -161.5 282.35 -162.7 282.15 -163.3 282.25 -164.0 282.25 -165.7 282.95 -169.15 L284.1 -173.65 284.4 -176.15 Q284.45 -177.65 285.0 -178.5 285.75 -179.7 286.85 -179.5 287.7 -179.35 288.4 -178.5 288.75 -177.45 288.75 -176.05 M275.0 -143.7 Q276.0 -143.25 276.0 -141.8 276.0 -141.05 275.45 -140.3 L274.1 -138.5 273.35 -136.9 272.75 -135.5 270.6 -131.5 Q269.7 -130.0 268.1 -130.0 266.6 -130.0 265.15 -131.45 264.0 -132.6 264.0 -133.2 264.0 -134.6 264.95 -135.0 L266.0 -135.2 266.0 -135.4 Q266.0 -136.45 268.05 -139.2 L270.5 -142.55 270.85 -144.5 Q271.1 -145.8 272.25 -146.05 274.1 -146.45 274.7 -145.3 274.95 -144.8 275.0 -143.7 M250.95 -118.55 L253.05 -118.85 253.45 -118.8 254.75 -119.0 Q255.9 -119.0 256.45 -118.1 L256.75 -117.0 Q256.75 -116.3 255.95 -115.15 L255.55 -114.6 254.65 -113.35 Q253.7 -112.3 252.5 -112.1 L251.3 -110.8 Q245.7 -104.45 244.65 -104.45 244.25 -104.45 242.5 -105.55 L239.75 -107.3 Q241.9 -111.85 247.15 -115.05 L247.35 -115.25 247.8 -115.2 247.8 -115.65 Q247.8 -117.0 249.6 -118.0 L250.55 -118.4 250.95 -118.55 M259.0 -115.45 L258.85 -115.5 259.05 -115.75 259.0 -115.45 M297.7 -114.65 L297.75 -114.6 297.7 -114.6 297.7 -114.65 M173.9 -122.65 L173.6 -122.7 173.9 -123.1 173.9 -122.65 M194.3 -71.4 L188.1 -66.75 Q184.15 -63.75 184.15 -62.75 184.15 -62.35 187.0 -58.35 190.0 -54.15 190.9 -54.15 L196.45 -59.75 202.1 -63.55 Q203.4 -64.45 203.4 -66.2 199.75 -75.75 194.3 -71.4 M224.25 -83.05 L228.65 -86.35 Q231.4 -88.3 231.4 -89.9 231.4 -92.6 229.5 -94.75 226.85 -97.7 222.65 -94.2 L216.4 -89.4 Q211.45 -85.45 211.45 -84.25 211.45 -83.7 213.7 -80.35 216.2 -76.65 217.45 -76.65 218.5 -76.65 224.25 -83.05 M347.65 -33.95 Q346.85 -33.95 346.85 -33.55 L347.0 -33.2 345.65 -33.8 340.9 -33.45 Q335.65 -31.75 335.15 -31.05 L332.9 -27.8 Q332.0 -26.35 332.0 -25.05 332.0 -23.4 333.3 -21.6 334.85 -19.4 337.75 -17.95 340.15 -16.75 344.7 -15.1 348.15 -13.7 348.5 -12.05 348.8 -10.75 348.7 -8.55 L348.5 -4.95 Q348.5 -2.85 351.2 -0.7 354.95 2.35 361.9 2.35 364.65 2.35 368.7 -1.15 371.6 -3.75 372.8 -5.55 L373.0 -7.3 Q373.05 -8.4 374.3 -9.3 379.3 -12.85 379.3 -13.7 L379.75 -17.8 380.2 -21.95 Q380.2 -27.65 367.65 -31.15 357.7 -33.95 347.65 -33.95 M178.8 24.6 Q170.1 26.7 165.55 19.25 161.9 13.3 154.75 15.0 L150.55 15.8 147.4 15.75 Q144.45 15.1 141.75 13.85 132.8 9.6 123.35 12.2 116.6 14.15 110.85 17.95 108.9 19.15 106.55 19.5 95.95 21.4 92.6 32.15 91.5 35.6 91.0 39.25 90.6 42.25 89.65 45.05 89.05 46.75 87.8 48.2 80.9 56.4 72.4 62.75 66.25 67.35 64.9 74.45 64.65 75.7 65.25 76.7 67.4 80.4 70.15 83.75 L75.95 90.8 Q79.7 95.4 77.5 100.85 76.5 103.4 76.65 106.0 76.85 109.8 78.95 113.0 83.8 120.45 89.65 127.25 90.55 128.35 90.1 129.75 89.5 131.65 90.0 133.4 90.9 136.35 93.65 138.3 96.55 140.3 98.7 143.1 102.1 147.6 100.85 153.2 99.65 158.7 95.2 162.5 93.25 164.25 91.6 166.3 84.7 175.0 85.55 185.75 85.8 188.6 87.55 191.0 88.9 192.85 89.7 195.25 L91.25 200.6 92.55 205.0 92.95 204.7 92.9 203.2 Q97.8 208.45 105.05 208.5 L118.1 209.05 Q136.25 210.3 153.3 205.0 163.05 202.05 170.25 195.3 172.1 193.5 173.2 191.1 175.8 185.25 181.75 182.2 183.25 181.35 184.5 180.15 L188.95 175.3 Q188.35 172.0 188.45 168.75 188.5 167.65 189.0 166.7 L190.25 164.75 Q196.55 169.6 204.25 171.05 217.6 151.25 223.65 128.25 L223.1 127.45 210.65 123.4 Q215.45 119.85 215.45 114.3 215.5 105.8 214.65 97.35 213.85 89.0 221.05 85.6 227.35 82.5 227.8 75.4 228.05 70.8 225.05 67.55 L222.9 65.85 Q214.5 61.7 205.3 59.35 205.6 56.95 207.4 55.35 L207.85 54.9 Q206.9 50.65 203.3 48.0 L200.9 46.35 Q195.15 46.8 193.25 41.55 L188.35 28.75 Q186.45 23.95 181.25 24.0 L178.8 24.6 M208.1 132.15 L210.6 138.9 208.3 143.7 Q206.7 136.7 203.4 130.65 L205.05 131.15 205.1 132.4 206.95 131.8 208.1 132.15 M204.9 139.45 L206.2 143.0 203.4 143.9 202.55 141.75 204.9 139.45 M204.15 145.8 L206.45 143.55 207.4 145.5 206.3 147.8 205.8 147.55 205.1 148.3 204.15 145.8 M166.3 106.15 L159.7 93.0 160.15 92.55 159.5 92.55 157.5 88.05 160.0 86.2 167.95 102.7 166.3 106.15 M170.0 122.3 L175.15 134.9 174.6 135.15 Q171.2 126.0 165.9 117.75 L174.5 120.05 Q175.5 125.65 177.95 130.65 L179.0 133.1 176.85 134.05 170.9 121.6 170.15 121.75 170.0 122.3 M179.65 134.65 L181.15 138.0 179.25 138.95 177.75 135.9 179.65 134.65 M162.5 131.8 L150.75 105.25 153.35 103.35 158.6 115.65 Q161.8 123.35 164.35 131.2 L162.5 131.8 M164.0 135.85 L163.0 133.1 164.55 131.8 165.65 134.9 164.0 135.85 M163.1 139.0 L158.7 136.55 161.1 134.55 162.15 137.05 161.15 137.7 162.8 138.4 163.1 139.0 M164.5 137.3 L166.2 136.2 167.55 139.45 166.05 140.8 164.8 139.9 164.5 137.3 M170.15 140.2 L173.35 138.45 174.8 141.8 171.75 144.2 170.15 140.2 M182.05 139.95 L183.5 143.1 181.9 144.5 180.3 141.2 182.05 139.95 M175.95 144.05 L178.05 147.6 177.3 148.2 172.85 145.4 175.95 144.05 M194.95 130.45 Q196.55 134.85 198.5 139.25 L196.65 140.2 190.8 126.85 190.3 126.85 Q191.95 134.25 194.9 141.2 L191.4 143.4 190.25 140.45 192.8 138.5 189.8 139.25 184.05 123.6 195.25 128.05 Q194.45 129.05 194.95 130.45 M202.15 130.2 L204.75 138.75 201.65 139.8 200.2 136.1 Q198.6 131.8 195.95 128.1 L202.15 130.2 M185.9 137.25 L184.9 136.7 183.45 137.1 175.8 120.5 182.6 123.05 188.0 140.05 185.5 141.55 184.05 138.45 185.9 137.25 M196.25 144.7 L192.95 147.3 192.2 145.4 195.6 143.05 196.25 144.7 M198.95 154.55 L197.15 156.6 195.45 153.1 198.0 150.95 198.95 154.55 M193.75 149.2 L196.85 146.6 197.5 149.15 194.7 151.4 193.75 149.2 M195.35 158.05 Q193.6 157.1 192.05 156.3 L193.85 154.55 Q194.7 156.3 195.7 157.85 L195.35 158.05 M199.05 160.0 L197.6 157.35 199.45 155.85 200.75 158.85 199.5 160.2 199.05 160.0 M184.7 150.35 L186.55 149.1 190.6 155.15 Q189.4 155.35 187.9 154.25 186.9 153.55 185.85 153.0 L184.7 150.35 M192.1 150.55 L193.0 152.85 191.45 154.3 190.3 151.8 192.1 150.55 M178.7 148.85 L180.75 147.3 182.25 149.9 181.4 150.6 178.7 148.85 M216.85 170.2 Q219.05 173.35 222.9 174.15 232.55 176.15 241.1 171.35 244.8 169.25 245.35 165.1 246.15 159.25 245.9 153.4 245.75 149.6 243.6 146.55 239.0 140.15 230.95 142.1 229.05 146.5 228.25 151.2 226.8 159.75 218.7 163.35 217.1 164.1 216.35 165.75 215.3 168.05 216.85 170.2 M169.0 101.45 L159.65 80.45 161.6 79.0 170.6 98.75 169.0 101.45 M111.3 91.35 L112.25 95.3 109.95 96.15 108.75 92.65 111.3 91.35 M108.25 87.6 L111.05 89.5 111.05 90.55 108.3 91.55 107.1 88.15 108.25 87.6 M104.6 98.85 L102.65 100.05 101.45 96.55 103.7 95.35 104.6 98.85 M115.8 92.65 L117.4 98.7 115.2 99.35 113.95 95.95 115.8 94.95 113.5 94.95 111.85 91.05 112.75 90.6 115.8 92.65 M112.6 96.7 L113.4 100.05 111.35 100.95 110.5 97.85 112.6 96.7 M156.55 67.2 L154.35 68.4 153.9 68.15 154.55 64.7 155.35 64.15 156.55 67.2 M155.15 69.45 L157.1 68.5 158.6 72.05 156.6 73.3 155.15 69.45 M159.1 79.1 L157.2 74.9 159.25 73.65 161.35 78.45 159.1 79.1 M152.2 76.5 L153.5 70.2 155.1 74.3 Q153.25 75.55 152.2 76.5 M155.7 75.75 L157.4 80.0 154.8 81.7 152.35 77.3 155.7 75.75 M152.0 84.0 L150.85 82.8 151.8 78.5 153.25 82.85 152.0 84.0 M155.4 83.3 L158.05 81.55 159.9 86.0 156.75 86.35 155.4 83.3 M148.45 98.65 L149.35 92.4 150.85 97.0 148.45 98.65 M121.9 96.65 L125.45 107.4 Q128.05 115.35 131.85 122.75 L132.9 122.75 131.55 117.65 Q128.3 107.5 124.05 98.0 L127.45 99.65 134.05 123.9 125.55 119.75 125.8 119.25 117.9 94.0 121.9 96.65 M149.15 100.45 L151.55 98.85 152.95 102.35 150.0 103.9 148.2 100.2 149.15 100.45 M141.25 130.15 L142.85 135.85 141.1 136.3 140.4 134.7 139.45 134.75 139.45 136.9 137.95 137.6 136.6 134.35 141.25 130.15 M127.65 146.45 L128.5 149.45 124.55 151.3 124.45 151.8 122.85 152.95 129.1 144.45 130.45 144.45 132.5 142.7 133.2 147.05 129.75 148.8 128.4 146.3 127.65 146.45 M139.85 138.35 Q143.4 148.45 147.9 158.3 L150.6 164.05 150.2 166.8 138.55 139.1 139.85 138.35 M135.1 146.2 L133.4 142.25 136.7 140.15 Q142.5 152.2 147.1 164.8 148.0 167.3 149.8 169.5 L149.05 175.8 148.5 175.95 146.15 171.0 148.15 169.2 145.6 169.8 143.75 165.7 145.75 164.05 143.3 164.8 135.7 147.7 137.9 145.5 135.1 146.2 M136.1 138.6 L130.4 142.3 135.1 135.75 136.1 138.6 M116.8 105.65 L115.6 100.55 117.55 99.3 Q119.1 110.45 125.25 119.6 L120.55 117.6 117.0 106.35 117.7 105.45 116.8 105.65 M103.85 104.7 L103.15 101.9 105.1 100.8 105.95 103.6 103.85 104.7 M104.4 106.8 L106.5 105.65 107.45 110.15 105.65 111.1 104.4 106.8 M102.15 112.95 L100.55 108.75 Q101.4 108.3 102.4 107.8 102.9 110.5 103.5 112.25 L102.15 112.95 M106.3 113.1 L108.3 112.05 Q109.1 113.6 110.45 114.9 L106.6 114.05 106.3 113.1 M110.2 111.0 L111.8 110.05 112.95 113.95 111.3 114.7 110.2 111.0 M98.6 102.9 L98.4 102.4 99.75 98.85 100.6 101.4 98.6 102.9 M101.2 103.1 L102.0 105.75 100.0 107.0 99.2 104.45 101.2 103.1 M98.95 109.55 Q99.75 111.7 101.1 113.1 L98.8 112.8 97.85 110.1 98.95 109.55 M118.5 159.75 L122.1 154.05 123.2 154.3 125.0 153.75 126.0 157.25 Q125.25 157.7 124.45 158.25 L123.95 158.6 Q122.95 157.4 121.7 156.7 L122.7 159.4 119.7 161.3 118.5 159.75 M144.05 170.6 L140.15 173.2 138.5 169.65 142.15 166.9 144.05 170.6 M126.4 158.6 L127.45 162.2 126.25 162.9 124.7 159.65 126.4 158.6 M130.55 155.65 L132.1 159.75 Q131.0 160.25 129.0 161.35 L127.7 157.75 130.55 155.65 M129.5 162.85 L132.35 160.3 134.3 164.65 130.8 166.3 129.5 162.85 M121.55 165.6 L120.25 162.3 123.1 160.65 124.1 164.15 121.55 165.6 M129.75 169.1 L131.55 173.55 129.4 172.05 128.55 169.9 129.75 169.1 M137.7 167.85 L136.6 165.15 139.9 163.2 136.1 163.95 130.75 150.8 133.85 148.95 141.5 165.65 137.7 167.85 M132.65 171.15 L131.45 168.1 134.9 166.15 135.9 169.0 132.65 171.15 M138.1 176.05 L139.5 175.6 142.95 178.2 140.95 174.75 144.8 172.05 147.25 176.35 Q144.05 176.7 144.0 179.55 L148.15 177.8 148.75 178.75 148.5 181.95 134.2 174.8 133.55 173.35 136.6 171.05 138.55 174.5 137.95 175.15 138.1 176.05" fill="url(#gradient0)" fill-rule="evenodd" stroke="none"/>
    <path d="M3.9 -82.9 L3.95 -73.4 -0.8 -72.35 Q-5.95 -71.45 -10.75 -69.15 -14.0 -67.65 -15.9 -64.5 -21.5 -55.45 -28.7 -47.5 -35.95 -39.5 -44.2 -32.65 L-53.35 -24.8 -44.45 -21.6 Q-37.65 -19.1 -35.9 -12.55 -35.45 -10.95 -35.9 -9.4 -36.6 -7.1 -38.3 -5.15 L-41.45 -4.4 -46.8 -3.9 -49.55 -4.2 -49.55 -4.05 -47.4 -2.1 Q-45.55 0.1 -45.55 1.5 -45.55 1.9 -45.85 2.3 L-45.8 3.2 -46.8 3.45 -47.4 3.45 -48.55 3.75 -49.2 3.75 -49.5 3.8 -55.95 3.2 -53.1 7.15 Q-39.1 24.95 -21.25 38.95 L-24.75 39.45 Q-29.05 39.75 -32.8 38.2 L-34.75 37.6 -36.6 36.85 Q-38.6 35.75 -39.7 35.2 L-41.05 34.75 -32.0 40.75 -33.4 40.85 Q-34.4 41.5 -37.95 41.5 L-45.1 41.25 -47.8 40.8 -48.65 40.65 -48.7 40.7 -48.9 40.9 -42.8 43.3 -42.3 43.35 -38.1 44.05 -37.35 44.15 -35.65 44.0 -35.55 44.1 -31.7 43.55 -30.45 43.15 -28.5 42.4 -25.6 41.9 -22.05 41.15 Q-8.95 38.15 3.55 33.85 L3.6 33.35 6.85 31.45 7.8 31.1 7.85 30.85 12.05 28.25 Q20.85 22.7 29.1 16.15 45.35 3.45 63.45 -6.3 73.65 -11.75 84.85 -13.05 L87.25 -13.35 Q90.0 -12.85 92.45 -11.45 94.75 -10.1 96.65 -8.2 L95.15 -3.6 93.95 -0.5 Q90.2 7.85 83.0 13.7 L80.3 15.7 Q69.7 12.25 65.85 1.7 65.8 6.6 68.45 10.55 69.9 12.75 71.75 14.45 64.45 21.8 55.55 26.65 L52.75 27.75 51.6 26.0 50.25 24.3 48.7 22.95 44.6 20.3 44.3 20.65 47.1 32.7 43.45 36.2 23.85 55.25 Q22.15 56.85 20.15 58.1 15.5 61.05 10.9 63.5 0.6 69.1 -7.7 77.3 L-9.2 78.8 -11.1 80.35 -15.3 84.55 -19.05 88.5 -19.45 89.15 -21.85 91.75 -25.1 97.2 -25.3 97.6 -25.55 97.95 Q-27.9 101.85 -27.9 102.8 L-27.9 102.9 -28.0 102.95 -27.85 103.0 -27.85 103.05 -27.75 103.05 -18.3 107.25 Q-9.45 111.15 0.5 111.6 L-24.5 117.95 -16.25 121.7 Q-11.05 124.15 -5.35 125.0 L-7.75 126.6 Q-15.8 131.4 -25.05 132.9 -31.05 133.6 -36.6 135.1 -39.45 135.85 -41.55 138.0 L-33.55 140.1 Q-25.8 142.3 -18.0 142.7 L-23.95 144.45 Q-36.65 147.7 -49.7 149.0 -51.5 149.05 -53.15 149.85 -56.65 151.5 -59.15 154.65 -67.45 165.35 -73.7 177.2 -76.55 182.6 -79.95 187.7 -83.9 193.55 -87.05 199.9 -87.9 201.6 -89.2 203.0 -99.55 214.25 -114.85 213.95 -136.5 213.5 -157.2 207.0 -159.7 206.2 -161.55 204.45 -163.75 202.35 -164.85 199.55 L-165.9 196.35 -160.8 188.45 Q-148.15 168.4 -138.15 147.05 -131.9 133.7 -126.7 119.7 -118.4 97.35 -111.5 74.65 -109.3 67.3 -106.6 60.05 -99.8 41.95 -97.65 22.9 -96.95 16.55 -94.75 10.5 -93.25 6.25 -90.65 2.65 -81.65 -9.8 -71.5 -21.25 L-71.5 -21.3 Q-71.5 -21.95 -69.1 -24.15 L-66.45 -26.45 -64.85 -27.9 Q-50.9 -45.0 -34.85 -60.45 -28.1 -66.9 -20.8 -72.45 -11.6 -79.45 -0.4 -81.9 L3.9 -82.9 M66.4 -0.5 L65.95 0.85 72.25 -7.95 Q68.2 -4.95 66.4 -0.5 M-40.05 44.3 L-40.4 44.25 -40.3 44.3 -40.05 44.3 M-40.65 40.85 L-40.25 40.85 -40.6 40.8 -40.65 40.85" fill="url(#gradient1)" fill-rule="evenodd" stroke="none"/>
    <path d="M3.55 -13.55 L-5.6 -11.55 Q-9.8 -10.45 -13.2 -7.55 -16.55 -4.7 -20.5 -3.1 L-23.1 -6.75 -13.1 -16.35 Q-5.15 -24.2 4.3 -29.9 L4.6 -13.75 3.55 -13.55" fill="url(#gradient2)" fill-rule="evenodd" stroke="none"/>
    <path d="M160.5 -114.5 Q160.5 -111.95 163.0 -110.35 L165.55 -109.05 164.15 -111.25 162.75 -116.2 Q162.75 -118.65 163.75 -119.95 165.75 -122.5 171.65 -122.8 L195.8 -121.05 237.75 -118.75 246.25 -117.45 247.15 -118.25 Q248.3 -119.15 248.95 -120.75 L253.75 -121.0 Q255.85 -120.85 257.6 -118.75 259.05 -116.95 259.05 -115.75 L258.85 -115.5 261.55 -115.05 282.55 -114.75 297.75 -114.6 297.7 -114.65 297.0 -116.9 302.4 -116.7 308.4 -116.4 Q321.1 -116.4 338.65 -117.25 L356.95 -118.25 374.2 -118.3 392.0 -118.15 400.0 -117.5 406.1 -117.0 416.05 -116.4 Q417.1 -116.3 420.65 -113.75 L422.7 -112.1 Q424.2 -110.8 424.2 -110.25 424.2 -109.5 422.6 -105.45 423.0 -97.75 422.95 -86.7 L422.8 -62.65 Q422.8 -54.15 423.3 -47.5 L424.55 -31.95 425.0 -31.65 425.75 -31.05 425.0 -30.85 424.9 -30.85 424.65 -30.8 424.65 -30.5 424.3 -30.05 423.8 -30.7 423.5 -30.7 422.75 -30.95 420.2 -32.1 Q417.15 -33.55 415.75 -33.55 412.25 -33.55 409.15 -29.35 406.1 -25.2 405.5 -25.2 402.1 -25.2 398.25 -28.4 395.7 -30.55 394.65 -32.2 L392.05 -36.15 Q390.55 -38.5 390.15 -40.05 389.75 -42.8 388.95 -44.25 L386.6 -45.95 Q384.45 -47.45 384.05 -48.0 382.3 -50.8 381.85 -52.25 381.55 -53.3 381.55 -55.9 381.55 -58.4 382.8 -61.8 L384.05 -65.65 Q384.05 -68.6 380.3 -71.1 376.55 -73.65 376.55 -75.8 376.55 -76.9 377.55 -78.4 378.55 -79.85 378.55 -81.0 378.55 -82.35 376.25 -84.95 L372.3 -89.05 361.65 -96.7 Q358.5 -96.7 353.9 -91.05 349.3 -85.4 348.9 -85.4 L346.3 -85.6 344.5 -86.9 Q341.7 -88.5 339.9 -87.15 338.45 -86.0 336.15 -88.3 335.85 -87.15 335.8 -84.95 L335.65 -81.4 Q335.55 -80.3 335.85 -77.95 335.8 -76.0 334.0 -75.15 337.15 -71.2 341.0 -67.75 343.25 -65.35 343.25 -61.65 343.25 -52.8 336.15 -44.05 329.35 -35.7 323.4 -35.7 313.75 -35.7 310.8 -38.35 L309.1 -40.2 Q308.1 -41.05 306.25 -41.05 304.4 -41.05 302.95 -40.15 301.5 -39.3 300.2 -39.3 293.35 -39.3 286.2 -43.55 278.55 -48.1 278.55 -53.3 278.55 -56.25 281.3 -60.05 L284.05 -64.0 284.05 -64.75 283.9 -65.15 281.5 -65.1 279.65 -64.9 Q277.4 -64.9 277.2 -65.5 L276.65 -67.15 271.4 -68.0 Q271.2 -68.25 271.15 -68.6 L271.05 -69.15 269.8 -72.3 Q268.85 -74.3 267.15 -74.3 265.65 -74.3 261.3 -72.85 L256.75 -71.4 250.75 -71.9 248.4 -72.8 245.0 -73.4 Q243.2 -73.7 242.75 -74.05 241.5 -75.2 241.5 -77.8 241.5 -83.15 241.0 -85.65 240.1 -90.15 236.9 -94.0 231.7 -100.3 222.75 -100.3 L209.7 -99.7 208.65 -98.95 206.55 -98.55 Q205.75 -98.55 204.4 -99.05 L202.45 -99.8 Q200.85 -100.4 199.9 -101.0 L198.65 -101.2 193.8 -98.35 Q188.85 -95.55 187.55 -95.55 178.65 -95.55 176.0 -99.2 174.65 -103.25 173.0 -104.05 164.5 -107.85 162.45 -109.0 159.65 -110.55 159.65 -112.75 159.65 -115.2 160.05 -116.15 160.65 -117.5 162.75 -118.8 L160.65 -116.3 Q160.5 -115.95 160.5 -114.5 M28.15 -111.45 Q28.85 -114.35 30.85 -117.0 35.25 -122.7 44.45 -124.5 57.9 -124.3 62.2 -121.8 L65.15 -119.5 Q66.85 -118.05 69.0 -117.3 71.8 -116.1 72.5 -115.4 L74.5 -113.5 Q75.75 -112.5 77.5 -112.05 L78.3 -111.35 78.4 -110.15 Q78.4 -107.45 76.65 -105.95 L76.6 -105.85 Q76.15 -104.95 74.0 -103.95 69.45 -101.85 68.0 -100.7 67.5 -100.25 67.15 -99.35 66.7 -98.2 66.75 -96.95 L66.75 -93.55 Q66.75 -88.7 64.8 -87.85 61.25 -87.15 57.95 -85.15 57.1 -84.65 55.75 -80.0 54.55 -75.9 52.45 -75.9 47.4 -75.9 43.45 -79.15 40.2 -81.8 40.2 -83.5 40.2 -85.5 41.7 -87.25 43.2 -89.0 43.2 -90.25 43.2 -91.75 40.55 -93.0 L34.45 -95.3 Q31.55 -96.35 30.8 -98.1 30.35 -100.3 29.7 -101.7 29.3 -102.55 28.85 -104.15 28.5 -104.65 28.25 -105.4 27.7 -106.95 27.7 -108.05 L27.7 -108.5 Q26.75 -112.5 25.4 -114.8 L25.7 -115.05 25.9 -115.2 Q27.25 -113.7 28.15 -111.45 M76.65 -109.8 L76.25 -110.6 76.6 -109.45 76.65 -109.8 M156.85 -31.7 Q158.4 -35.75 161.15 -38.55 L163.9 -41.95 Q165.4 -43.9 167.65 -45.4 170.45 -47.25 174.6 -45.55 178.4 -44.0 178.4 -42.45 178.4 -41.7 172.3 -35.0 165.65 -27.65 164.15 -24.3 L159.55 -26.55 158.15 -27.65 156.05 -29.0 156.85 -31.7 M141.45 -0.9 Q143.0 -5.9 143.65 -7.3 L144.75 -10.4 Q145.45 -12.35 146.15 -12.55 148.4 -13.35 152.8 -11.8 156.9 -10.35 156.9 -9.65 156.9 -8.95 154.85 -4.25 L153.25 -0.5 149.7 10.1 147.6 10.55 Q143.0 11.35 139.5 8.85 L141.35 -0.5 141.45 -0.9 M255.2 -117.45 Q253.55 -118.65 250.75 -118.55 L249.1 -117.05 254.05 -116.3 256.4 -115.95 Q256.25 -116.7 255.2 -117.45 M247.15 -115.05 Q241.9 -111.85 239.75 -107.3 L242.5 -105.55 Q244.25 -104.45 244.65 -104.45 245.7 -104.45 251.3 -110.8 L254.55 -114.35 247.35 -115.25 247.15 -115.05 M224.25 -83.05 Q218.5 -76.65 217.45 -76.65 216.2 -76.65 213.7 -80.35 211.45 -83.7 211.45 -84.25 211.45 -85.45 216.4 -89.4 L222.65 -94.2 Q226.85 -97.7 229.5 -94.75 231.4 -92.6 231.4 -89.9 231.4 -88.3 228.65 -86.35 L224.25 -83.05 M190.9 -54.15 Q190.0 -54.15 187.0 -58.35 184.15 -62.35 184.15 -62.75 184.15 -63.75 188.1 -66.75 L194.3 -71.4 Q199.75 -75.75 203.4 -66.2 203.4 -64.45 202.1 -63.55 L196.45 -59.75 190.9 -54.15 M347.0 -33.2 L346.85 -33.55 Q346.85 -33.95 347.65 -33.95 357.7 -33.95 367.65 -31.15 380.2 -27.65 380.2 -21.95 L379.75 -17.8 379.3 -13.7 Q379.3 -12.85 374.3 -9.3 373.05 -8.4 373.0 -7.3 L372.8 -5.55 Q371.6 -3.75 368.7 -1.15 364.65 2.35 361.9 2.35 354.95 2.35 351.2 -0.7 348.5 -2.85 348.5 -4.95 L348.7 -8.55 Q348.8 -10.75 348.5 -12.05 348.15 -13.7 344.7 -15.1 340.15 -16.75 337.75 -17.95 334.85 -19.4 333.3 -21.6 332.0 -23.4 332.0 -25.05 332.0 -26.35 332.9 -27.8 L335.15 -31.05 Q335.65 -31.75 340.9 -33.45 L345.65 -33.8 347.0 -33.2 M422.25 86.05 L423.25 86.2 424.85 86.35 425.65 86.45 Q426.85 86.65 427.65 87.2 L425.65 88.15 423.7 88.2 423.3 88.05 423.3 91.2 Q423.3 100.2 422.3 118.55 L422.7 133.55 Q420.1 134.5 414.2 137.7 398.15 146.45 393.7 146.45 390.25 146.45 388.25 145.6 386.25 144.7 381.2 144.7 376.75 144.7 372.05 146.0 L367.7 147.45 364.5 148.4 363.15 148.95 356.1 150.15 337.65 150.2 337.45 150.45 337.4 151.2 Q337.4 151.95 337.55 152.1 L337.65 152.2 Q343.25 151.75 347.1 153.05 349.5 153.85 352.8 156.2 356.3 158.7 358.5 159.6 362.4 161.2 367.95 161.2 369.3 161.2 371.85 160.1 374.45 158.95 379.8 158.95 384.7 158.95 389.65 160.9 392.15 161.95 394.5 163.3 396.8 164.35 399.15 165.65 401.55 166.75 407.65 167.95 414.9 169.4 418.55 172.8 419.65 173.75 422.35 175.35 L424.75 176.65 425.3 187.85 Q425.3 192.95 424.55 203.45 423.8 213.95 423.8 219.25 L423.85 225.3 426.25 225.75 427.65 226.05 427.8 226.45 427.75 226.95 426.9 227.2 426.25 227.2 423.85 227.1 Q419.75 226.75 415.6 225.45 L409.9 223.55 Q396.25 221.5 384.55 222.05 L368.2 223.05 Q353.1 223.05 350.35 222.7 345.15 222.0 331.5 217.45 314.9 211.9 313.05 211.0 307.75 208.6 307.75 204.7 307.75 203.95 308.45 202.15 L309.1 199.85 308.65 201.2 308.0 201.0 307.9 199.95 308.0 198.15 Q308.35 197.05 309.95 196.2 310.75 195.8 312.35 195.3 313.75 194.7 314.25 193.3 L314.2 189.7 Q314.2 187.55 314.5 186.2 315.75 181.2 319.25 178.15 322.15 175.65 322.15 172.5 L321.4 168.6 Q320.65 165.55 320.65 164.6 L320.65 162.95 Q321.35 162.15 322.65 161.7 322.65 159.7 322.9 158.7 324.0 154.35 324.65 152.7 325.05 151.7 326.5 149.55 L328.65 146.7 Q329.35 145.95 331.9 145.15 L335.25 144.2 337.4 142.75 338.75 141.1 340.15 135.25 341.4 129.1 Q341.6 128.15 342.65 126.25 L344.4 123.1 346.8 120.1 347.55 118.7 Q347.7 118.35 348.15 118.35 L356.8 118.7 Q361.2 118.7 361.75 116.75 362.05 112.9 363.55 109.2 364.8 106.0 366.15 104.25 369.25 100.2 373.95 100.2 384.35 100.2 387.9 101.65 L389.6 102.6 390.9 103.05 Q394.8 103.05 396.75 101.5 L402.0 97.7 405.6 95.75 Q406.8 94.9 408.15 92.7 L409.65 89.7 411.15 88.2 413.1 87.7 417.9 86.95 419.95 86.1 422.25 86.05 M193.25 41.55 Q195.15 46.8 200.9 46.35 L203.3 48.0 Q206.9 50.65 207.85 54.9 L207.4 55.35 Q205.6 56.95 205.3 59.35 214.5 61.7 222.9 65.85 L225.05 67.55 Q228.05 70.8 227.8 75.4 227.35 82.5 221.05 85.6 213.85 89.0 214.65 97.35 215.5 105.8 215.45 114.3 215.45 119.85 210.65 123.4 L223.1 127.45 223.65 128.25 Q217.6 151.25 204.25 171.05 196.55 169.6 190.25 164.75 L189.0 166.7 Q188.5 167.65 188.45 168.75 188.35 172.0 188.95 175.3 L184.5 180.15 Q183.25 181.35 181.75 182.2 175.8 185.25 173.2 191.1 172.1 193.5 170.25 195.3 163.05 202.05 153.3 205.0 136.25 210.3 118.1 209.05 L105.05 208.5 Q97.8 208.45 92.9 203.2 L92.95 204.7 92.55 205.0 91.25 200.6 89.7 195.25 Q88.9 192.85 87.55 191.0 85.8 188.6 85.55 185.75 84.7 175.0 91.6 166.3 93.25 164.25 95.2 162.5 99.65 158.7 100.85 153.2 102.1 147.6 98.7 143.1 96.55 140.3 93.65 138.3 90.9 136.35 90.0 133.4 89.5 131.65 90.1 129.75 90.55 128.35 89.65 127.25 83.8 120.45 78.95 113.0 76.85 109.8 76.65 106.0 76.5 103.4 77.5 100.85 79.7 95.4 75.95 90.8 L70.15 83.75 Q67.4 80.4 65.25 76.7 64.65 75.7 64.9 74.45 66.25 67.35 72.4 62.75 80.9 56.4 87.8 48.2 89.05 46.75 89.65 45.05 90.6 42.25 91.0 39.25 91.5 35.6 92.6 32.15 95.95 21.4 106.55 19.5 108.9 19.15 110.85 17.95 116.6 14.15 123.35 12.2 132.8 9.6 141.75 13.85 144.45 15.1 147.4 15.75 L150.55 15.8 154.75 15.0 Q161.9 13.3 165.55 19.25 170.1 26.7 178.8 24.6 L181.25 24.0 Q186.45 23.95 188.35 28.75 L193.25 41.55 M183.05 79.25 L185.55 75.6 180.95 73.7 183.05 79.25 M180.7 87.2 L175.85 95.05 177.9 99.85 177.55 100.85 174.6 97.15 172.95 99.85 173.6 101.9 172.25 102.2 171.9 101.5 163.45 115.45 Q172.95 117.05 181.9 120.7 L181.4 119.0 182.65 120.9 Q198.2 126.3 213.65 132.25 L213.3 133.2 210.3 132.75 211.95 136.3 215.0 131.15 Q215.2 133.1 214.35 134.9 L212.75 138.3 213.8 142.55 211.65 140.8 209.2 146.35 209.8 147.7 209.45 148.45 208.65 147.45 206.65 154.45 205.75 153.8 203.1 159.2 204.3 162.95 204.05 163.3 202.05 161.1 200.7 162.8 Q185.9 156.9 172.7 147.75 L172.15 148.05 156.75 137.3 Q154.2 153.45 154.0 169.8 L152.45 167.4 151.95 170.65 152.25 171.3 151.85 171.55 149.65 184.2 Q130.6 176.5 112.7 166.55 124.45 146.3 139.0 127.95 120.15 118.65 99.35 114.4 L98.9 115.35 97.85 114.25 92.65 114.35 Q94.45 106.0 97.95 98.05 101.15 90.9 104.6 84.1 107.0 84.4 109.3 85.4 116.0 88.5 121.5 93.55 L122.3 93.05 122.85 94.7 Q134.45 100.25 144.5 108.0 L152.45 61.6 152.95 60.05 154.45 57.2 155.5 55.8 155.75 58.05 Q160.25 58.6 164.05 61.25 176.1 69.5 189.7 74.6 L189.75 76.55 187.15 76.15 183.8 82.0 184.2 84.65 182.9 84.65 182.5 84.2 181.8 85.3 182.9 88.5 182.55 89.3 180.7 87.2 M162.9 70.55 L163.4 70.95 160.95 72.55 171.7 97.0 173.15 94.6 161.85 65.55 158.75 67.6 160.35 71.15 162.9 70.55 M166.5 66.7 Q167.8 66.75 168.35 67.9 L177.6 87.75 179.3 85.0 172.55 69.5 159.4 61.5 156.8 63.2 158.2 66.35 161.6 64.75 161.5 63.1 Q166.2 68.7 168.7 75.8 L172.7 86.8 174.75 92.2 176.6 89.3 Q170.55 78.5 166.5 66.7 M178.95 72.75 L174.7 70.65 180.7 82.85 181.4 81.75 178.95 72.75 M195.35 72.5 L184.7 66.4 Q174.25 59.95 162.7 55.65 155.85 53.0 148.5 52.2 L145.0 72.9 142.5 96.65 144.2 98.95 140.65 98.4 140.4 97.9 Q137.1 96.0 133.95 93.95 127.7 89.95 121.15 86.3 111.15 80.75 100.45 76.2 95.1 89.95 90.05 103.9 L87.6 110.45 Q86.55 113.1 87.75 115.35 88.65 117.05 90.5 117.6 106.35 121.3 121.9 125.95 126.8 127.4 131.15 130.1 L132.25 130.0 Q126.85 138.35 120.8 146.1 116.7 151.3 113.6 157.05 110.55 162.75 109.05 169.05 116.8 172.85 123.7 177.6 130.9 182.55 138.8 186.3 145.45 189.55 152.4 191.35 156.5 177.65 158.5 163.55 159.8 154.65 159.4 145.75 L160.05 145.9 160.4 145.6 Q163.95 145.55 167.35 147.45 175.4 151.75 182.75 157.05 192.25 163.85 202.7 168.8 L204.65 166.0 Q209.8 158.5 213.1 150.2 217.2 139.75 221.8 129.2 L209.9 125.3 209.55 125.6 Q200.5 121.45 190.95 118.35 180.6 114.95 170.1 112.85 L170.1 111.75 170.7 111.1 172.55 110.95 176.35 104.8 187.7 86.35 189.1 83.35 Q190.4 79.55 192.4 76.0 193.45 74.1 195.35 72.5 M170.15 121.75 L170.9 121.6 176.85 134.05 179.0 133.1 177.95 130.65 Q175.5 125.65 174.5 120.05 L165.9 117.75 Q171.2 126.0 174.6 135.15 L175.15 134.9 170.0 122.3 170.15 121.75 M166.3 106.15 L167.95 102.7 160.0 86.2 157.5 88.05 159.5 92.55 160.15 92.55 159.7 93.0 166.3 106.15 M204.15 145.8 L205.1 148.3 205.8 147.55 206.3 147.8 207.4 145.5 206.45 143.55 204.15 145.8 M204.9 139.45 L202.55 141.75 203.4 143.9 206.2 143.0 204.9 139.45 M206.95 131.8 L205.1 132.4 205.05 131.15 203.4 130.65 Q206.7 136.7 208.3 143.7 L210.6 138.9 208.1 132.15 206.95 131.8 M163.75 117.45 L162.9 117.35 162.55 117.8 162.4 117.2 162.15 117.6 161.4 117.1 161.5 115.95 Q162.95 111.4 165.4 107.7 160.9 101.45 158.1 94.25 L157.05 95.0 162.4 108.95 161.9 110.1 155.15 96.35 153.15 97.75 167.7 133.8 170.25 133.0 168.1 134.85 169.35 138.1 172.4 136.25 163.75 117.45 M164.0 135.85 L165.65 134.9 164.55 131.8 163.0 133.1 164.0 135.85 M162.5 131.8 L164.35 131.2 Q161.8 123.35 158.6 115.65 L153.35 103.35 150.75 105.25 162.5 131.8 M179.65 134.65 L177.75 135.9 179.25 138.95 181.15 138.0 179.65 134.65 M168.35 141.15 L167.1 141.5 169.3 143.05 168.35 141.15 M182.05 139.95 L180.3 141.2 181.9 144.5 183.5 143.1 182.05 139.95 M170.15 140.2 L171.75 144.2 174.8 141.8 173.35 138.45 170.15 140.2 M164.5 137.3 L164.8 139.9 166.05 140.8 167.55 139.45 166.2 136.2 164.5 137.3 M163.1 139.0 L162.8 138.4 161.15 137.7 162.15 137.05 161.1 134.55 158.7 136.55 163.1 139.0 M175.45 137.25 L176.75 140.5 177.45 140.0 176.05 136.95 175.45 137.25 M175.95 144.05 L172.85 145.4 177.3 148.2 178.05 147.6 175.95 144.05 M177.7 143.0 L179.05 146.8 180.1 145.95 178.55 142.45 177.7 143.0 M185.9 137.25 L184.05 138.45 185.5 141.55 188.0 140.05 182.6 123.05 175.8 120.5 183.45 137.1 184.9 136.7 185.9 137.25 M195.95 128.1 Q198.6 131.8 200.2 136.1 L201.65 139.8 204.75 138.75 202.15 130.2 195.95 128.1 M194.95 130.45 Q194.45 129.05 195.25 128.05 L184.05 123.6 189.8 139.25 192.8 138.5 190.25 140.45 191.4 143.4 194.9 141.2 Q191.95 134.25 190.3 126.85 L190.8 126.85 196.65 140.2 198.5 139.25 Q196.55 134.85 194.95 130.45 M199.7 141.95 L199.1 140.6 197.3 141.9 197.9 143.5 199.7 141.95 M190.6 146.45 L188.45 147.85 189.55 150.3 191.4 148.6 190.6 146.45 M187.55 146.0 L189.8 144.45 188.65 141.6 186.3 143.3 187.55 146.0 M185.65 147.35 L184.3 144.75 182.6 145.95 183.9 148.65 185.65 147.35 M196.25 144.7 L195.6 143.05 192.2 145.4 192.95 147.3 196.25 144.7 M199.95 149.4 L200.95 152.45 203.45 149.9 202.25 147.5 199.95 149.4 M200.45 143.6 L198.55 145.25 199.35 147.7 201.4 145.75 200.45 143.6 M199.5 160.2 L200.75 158.85 199.45 155.85 197.6 157.35 199.05 160.0 199.5 160.2 M195.35 158.05 L195.7 157.85 Q194.7 156.3 193.85 154.55 L192.05 156.3 Q193.6 157.1 195.35 158.05 M193.75 149.2 L194.7 151.4 197.5 149.15 196.85 146.6 193.75 149.2 M198.95 154.55 L198.0 150.95 195.45 153.1 197.15 156.6 198.95 154.55 M201.45 154.1 L202.2 156.35 204.5 151.75 201.45 154.1 M169.0 101.45 L170.6 98.75 161.6 79.0 159.65 80.45 169.0 101.45 M216.85 170.2 Q215.3 168.05 216.35 165.75 217.1 164.1 218.7 163.35 226.8 159.75 228.25 151.2 229.05 146.5 230.95 142.1 239.0 140.15 243.6 146.55 245.75 149.6 245.9 153.4 246.15 159.25 245.35 165.1 244.8 169.25 241.1 171.35 232.55 176.15 222.9 174.15 219.05 173.35 216.85 170.2 M178.7 148.85 L181.4 150.6 182.25 149.9 180.75 147.3 178.7 148.85 M192.1 150.55 L190.3 151.8 191.45 154.3 193.0 152.85 192.1 150.55 M184.7 150.35 L185.85 153.0 Q186.9 153.55 187.9 154.25 189.4 155.35 190.6 155.15 L186.55 149.1 184.7 150.35 M106.4 86.3 L104.65 85.0 104.0 87.25 105.3 86.65 106.4 86.3 M138.4 31.85 L137.75 47.35 Q140.4 45.5 143.55 45.25 L144.9 45.1 145.4 32.35 138.4 31.85 M111.3 91.35 L108.75 92.65 109.95 96.15 112.25 95.3 111.3 91.35 M107.1 88.15 L108.3 91.55 111.05 90.55 111.05 89.5 108.25 87.6 107.1 88.15 M105.2 94.55 L106.25 97.95 108.05 97.05 107.15 93.5 105.2 94.55 M106.3 88.6 L103.9 90.55 104.8 93.2 106.85 92.2 106.3 88.6 M104.6 98.85 L103.7 95.35 101.45 96.55 102.65 100.05 104.6 98.85 M111.6 90.4 L112.2 90.25 111.3 89.65 111.6 90.4 M103.35 93.95 L102.9 91.0 101.1 95.25 103.35 93.95 M112.6 96.7 L110.5 97.85 111.35 100.95 113.4 100.05 112.6 96.7 M115.8 92.65 L112.75 90.6 111.85 91.05 113.5 94.95 115.8 94.95 113.95 95.95 115.2 99.35 117.4 98.7 115.8 92.65 M157.55 60.4 L155.55 59.35 155.2 61.2 155.95 61.3 157.55 60.4 M155.7 75.75 L152.35 77.3 154.8 81.7 157.4 80.0 155.7 75.75 M152.2 76.5 Q153.25 75.55 155.1 74.3 L153.5 70.2 152.2 76.5 M159.1 79.1 L161.35 78.45 159.25 73.65 157.2 74.9 159.1 79.1 M155.15 69.45 L156.6 73.3 158.6 72.05 157.1 68.5 155.15 69.45 M156.55 67.2 L155.35 64.15 154.55 64.7 153.9 68.15 154.35 68.4 156.55 67.2 M153.8 84.35 Q153.25 84.7 152.65 85.0 L153.95 87.5 154.9 87.15 153.8 84.35 M155.4 83.3 L156.75 86.35 159.9 86.0 158.05 81.55 155.4 83.3 M152.0 84.0 L153.25 82.85 151.8 78.5 150.85 82.8 152.0 84.0 M150.6 92.3 L150.6 91.5 Q150.8 90.05 152.1 89.1 L150.45 84.85 149.45 91.5 152.3 95.95 154.4 94.55 152.95 91.1 150.6 92.3 M150.85 97.0 L149.35 92.4 148.45 98.65 150.85 97.0 M155.8 89.3 L155.0 89.85 156.4 93.4 157.45 92.95 155.8 89.3 M121.9 96.65 L117.9 94.0 125.8 119.25 125.55 119.75 134.05 123.9 127.45 99.65 124.05 98.0 Q128.3 107.5 131.55 117.65 L132.9 122.75 131.85 122.75 Q128.05 115.35 125.45 107.4 L121.9 96.65 M148.55 104.8 L147.6 102.85 146.4 106.75 158.1 134.5 160.4 132.75 Q157.6 122.35 152.6 112.85 L149.25 106.25 147.65 107.1 146.65 106.1 148.55 104.8 M149.15 100.45 L148.2 100.2 150.0 103.9 152.95 102.35 151.55 98.85 149.15 100.45 M131.75 101.65 L129.9 100.8 136.6 125.2 140.4 127.05 131.75 101.65 M138.9 107.3 L134.05 102.8 142.9 128.1 143.3 128.4 Q146.35 141.8 152.15 154.3 L153.7 142.5 Q152.25 139.65 151.45 136.45 L150.0 131.15 142.9 110.0 140.9 108.9 Q147.9 127.75 152.9 147.3 L152.15 147.95 Q148.55 141.1 146.5 133.85 L138.9 107.3 M145.0 110.0 L144.7 110.5 Q148.1 118.0 150.55 125.85 L154.55 138.55 155.3 136.35 154.4 135.45 156.0 135.0 145.4 109.85 145.0 110.0 M136.1 138.6 L135.1 135.75 130.4 142.3 136.1 138.6 M137.9 145.5 L135.7 147.7 143.3 164.8 145.75 164.05 143.75 165.7 145.6 169.8 148.15 169.2 146.15 171.0 148.5 175.95 149.05 175.8 149.8 169.5 Q148.0 167.3 147.1 164.8 142.5 152.2 136.7 140.15 L133.4 142.25 135.1 146.2 137.9 145.5 M139.85 138.35 L138.55 139.1 150.2 166.8 150.6 164.05 147.9 158.3 Q143.4 148.45 139.85 138.35 M127.65 146.45 L128.4 146.3 129.75 148.8 133.2 147.05 132.5 142.7 130.45 144.45 129.1 144.45 122.85 152.95 124.45 151.8 124.55 151.3 128.5 149.45 127.65 146.45 M141.25 130.15 L136.6 134.35 137.95 137.6 139.45 136.9 139.45 134.75 140.4 134.7 141.1 136.3 142.85 135.85 141.25 130.15 M115.1 107.9 L113.45 109.0 114.65 113.3 116.2 112.85 114.9 114.2 115.35 116.15 118.3 117.0 115.1 107.9 M113.75 101.65 L111.8 102.75 113.0 107.2 114.75 106.35 113.75 101.65 M143.05 136.55 L141.6 137.4 151.15 161.05 151.5 158.9 143.05 136.55 M116.8 105.65 L117.7 105.45 117.0 106.35 120.55 117.6 125.25 119.6 Q119.1 110.45 117.55 99.3 L115.6 100.55 116.8 105.65 M109.95 103.8 L108.25 104.7 109.55 109.0 111.2 108.1 109.95 103.8 M106.8 99.85 L107.65 102.7 109.35 101.85 108.55 98.9 106.8 99.85 M106.3 113.1 L106.6 114.05 110.45 114.9 Q109.1 113.6 108.3 112.05 L106.3 113.1 M102.15 112.95 L103.5 112.25 Q102.9 110.5 102.4 107.8 101.4 108.3 100.55 108.75 L102.15 112.95 M104.4 106.8 L105.65 111.1 107.45 110.15 106.5 105.65 104.4 106.8 M103.85 104.7 L105.95 103.6 105.1 100.8 103.15 101.9 103.85 104.7 M113.5 115.65 L113.3 115.0 111.15 115.05 113.5 115.65 M101.2 103.1 L99.2 104.45 100.0 107.0 102.0 105.75 101.2 103.1 M98.6 102.9 L100.6 101.4 99.75 98.85 98.4 102.4 98.6 102.9 M110.2 111.0 L111.3 114.7 112.95 113.95 111.8 110.05 110.2 111.0 M95.8 109.35 L95.3 110.65 96.0 109.95 95.8 109.35 M98.95 109.55 L97.85 110.1 98.8 112.8 101.1 113.1 Q99.75 111.7 98.95 109.55 M116.05 164.1 L115.3 165.55 116.8 166.3 116.05 164.1 M118.6 163.3 L117.85 164.15 118.95 167.1 119.75 166.65 118.6 163.3 M116.9 162.5 L117.15 162.85 118.25 162.2 117.85 160.85 116.9 162.5 M94.7 112.25 L96.95 112.55 96.3 110.85 95.05 111.4 94.7 112.25 M98.45 108.0 L98.35 107.7 97.75 105.45 97.55 105.6 97.2 105.6 96.7 106.9 97.4 108.75 98.45 108.0 M144.05 170.6 L142.15 166.9 138.5 169.65 140.15 173.2 144.05 170.6 M118.5 159.75 L119.7 161.3 122.7 159.4 121.7 156.7 Q122.95 157.4 123.95 158.6 L124.45 158.25 Q125.25 157.7 126.0 157.25 L125.0 153.75 123.2 154.3 122.1 154.05 118.5 159.75 M130.2 154.65 L129.2 151.65 126.05 153.25 127.25 156.5 130.2 154.65 M129.5 162.85 L130.8 166.3 134.3 164.65 132.35 160.3 129.5 162.85 M130.55 155.65 L127.7 157.75 129.0 161.35 Q131.0 160.25 132.1 159.75 L130.55 155.65 M126.4 158.6 L124.7 159.65 126.25 162.9 127.45 162.2 126.4 158.6 M127.95 163.85 L126.8 164.55 127.9 167.95 129.05 167.25 127.95 163.85 M121.55 165.6 L124.1 164.15 123.1 160.65 120.25 162.3 121.55 165.6 M122.1 167.1 L122.9 169.35 125.1 170.4 125.85 169.5 124.55 165.8 122.1 167.1 M138.1 176.05 L137.95 175.15 138.55 174.5 136.6 171.05 133.55 173.35 134.2 174.8 148.5 181.95 148.75 178.75 148.15 177.8 144.0 179.55 Q144.05 176.7 147.25 176.35 L144.8 172.05 140.95 174.75 142.95 178.2 139.5 175.6 138.1 176.05 M132.65 171.15 L135.9 169.0 134.9 166.15 131.45 168.1 132.65 171.15 M137.7 167.85 L141.5 165.65 133.85 148.95 130.75 150.8 136.1 163.95 139.9 163.2 136.6 165.15 137.7 167.85 M129.75 169.1 L128.55 169.9 129.4 172.05 131.55 173.55 129.75 169.1" fill="#29261b" fill-rule="evenodd" stroke="none"/>
    <path d="M247.15 -115.05 L247.35 -115.25 254.55 -114.35 251.3 -110.8 Q245.7 -104.45 244.65 -104.45 244.25 -104.45 242.5 -105.55 L239.75 -107.3 Q241.9 -111.85 247.15 -115.05 M195.35 72.5 Q193.45 74.1 192.4 76.0 190.4 79.55 189.1 83.35 L187.7 86.35 176.35 104.8 172.55 110.95 170.7 111.1 170.1 111.75 170.1 112.85 Q180.6 114.95 190.95 118.35 200.5 121.45 209.55 125.6 L209.9 125.3 221.8 129.2 Q217.2 139.75 213.1 150.2 209.8 158.5 204.65 166.0 L202.7 168.8 Q192.25 163.85 182.75 157.05 175.4 151.75 167.35 147.45 163.95 145.55 160.4 145.6 L160.05 145.9 159.4 145.75 Q159.8 154.65 158.5 163.55 156.5 177.65 152.4 191.35 145.45 189.55 138.8 186.3 130.9 182.55 123.7 177.6 116.8 172.85 109.05 169.05 110.55 162.75 113.6 157.05 116.7 151.3 120.8 146.1 126.85 138.35 132.25 130.0 L131.15 130.1 Q126.8 127.4 121.9 125.95 106.35 121.3 90.5 117.6 88.65 117.05 87.75 115.35 86.55 113.1 87.6 110.45 L90.05 103.9 Q95.1 89.95 100.45 76.2 111.15 80.75 121.15 86.3 127.7 89.95 133.95 93.95 137.1 96.0 140.4 97.9 L140.65 98.4 144.2 98.95 142.5 96.65 145.0 72.9 148.5 52.2 Q155.85 53.0 162.7 55.65 174.25 59.95 184.7 66.4 L195.35 72.5 M178.95 72.75 L181.4 81.75 180.7 82.85 174.7 70.65 178.95 72.75 M166.5 66.7 Q170.55 78.5 176.6 89.3 L174.75 92.2 172.7 86.8 168.7 75.8 Q166.2 68.7 161.5 63.1 L161.6 64.75 158.2 66.35 156.8 63.2 159.4 61.5 172.55 69.5 179.3 85.0 177.6 87.75 168.35 67.9 Q167.8 66.75 166.5 66.7 M162.9 70.55 L160.35 71.15 158.75 67.6 161.85 65.55 173.15 94.6 171.7 97.0 160.95 72.55 163.4 70.95 162.9 70.55 M180.7 87.2 L182.55 89.3 182.9 88.5 181.8 85.3 182.5 84.2 182.9 84.65 184.2 84.65 183.8 82.0 187.15 76.15 189.75 76.55 189.7 74.6 Q176.1 69.5 164.05 61.25 160.25 58.6 155.75 58.05 L155.5 55.8 154.45 57.2 152.95 60.05 152.45 61.6 144.5 108.0 Q134.45 100.25 122.85 94.7 L122.3 93.05 121.5 93.55 Q116.0 88.5 109.3 85.4 107.0 84.4 104.6 84.1 101.15 90.9 97.95 98.05 94.45 106.0 92.65 114.35 L97.85 114.25 98.9 115.35 99.35 114.4 Q120.15 118.65 139.0 127.95 124.45 146.3 112.7 166.55 130.6 176.5 149.65 184.2 L151.85 171.55 152.25 171.3 151.95 170.65 152.45 167.4 154.0 169.8 Q154.2 153.45 156.75 137.3 L172.15 148.05 172.7 147.75 Q185.9 156.9 200.7 162.8 L202.05 161.1 204.05 163.3 204.3 162.95 203.1 159.2 205.75 153.8 206.65 154.45 208.65 147.45 209.45 148.45 209.8 147.7 209.2 146.35 211.65 140.8 213.8 142.55 212.75 138.3 214.35 134.9 Q215.2 133.1 215.0 131.15 L211.95 136.3 210.3 132.75 213.3 133.2 213.65 132.25 Q198.2 126.3 182.65 120.9 L181.4 119.0 181.9 120.7 Q172.95 117.05 163.45 115.45 L171.9 101.5 172.25 102.2 173.6 101.9 172.95 99.85 174.6 97.15 177.55 100.85 177.9 99.85 175.85 95.05 180.7 87.2 M183.05 79.25 L180.95 73.7 185.55 75.6 183.05 79.25 M163.75 117.45 L172.4 136.25 169.35 138.1 168.1 134.85 170.25 133.0 167.7 133.8 153.15 97.75 155.15 96.35 161.9 110.1 162.4 108.95 157.05 95.0 158.1 94.25 Q160.9 101.45 165.4 107.7 162.95 111.4 161.5 115.95 L161.4 117.1 162.15 117.6 162.4 117.2 162.55 117.8 162.9 117.35 163.75 117.45 M168.35 141.15 L169.3 143.05 167.1 141.5 168.35 141.15 M175.45 137.25 L176.05 136.95 177.45 140.0 176.75 140.5 175.45 137.25 M177.7 143.0 L178.55 142.45 180.1 145.95 179.05 146.8 177.7 143.0 M185.65 147.35 L183.9 148.65 182.6 145.95 184.3 144.75 185.65 147.35 M187.55 146.0 L186.3 143.3 188.65 141.6 189.8 144.45 187.55 146.0 M190.6 146.45 L191.4 148.6 189.55 150.3 188.45 147.85 190.6 146.45 M199.7 141.95 L197.9 143.5 197.3 141.9 199.1 140.6 199.7 141.95 M200.45 143.6 L201.4 145.75 199.35 147.7 198.55 145.25 200.45 143.6 M199.95 149.4 L202.25 147.5 203.45 149.9 200.95 152.45 199.95 149.4 M201.45 154.1 L204.5 151.75 202.2 156.35 201.45 154.1 M138.4 31.85 L145.4 32.35 144.9 45.1 143.55 45.25 Q140.4 45.5 137.75 47.35 L138.4 31.85 M106.4 86.3 L105.3 86.65 104.0 87.25 104.65 85.0 106.4 86.3 M106.3 88.6 L106.85 92.2 104.8 93.2 103.9 90.55 106.3 88.6 M105.2 94.55 L107.15 93.5 108.05 97.05 106.25 97.95 105.2 94.55 M103.35 93.95 L101.1 95.25 102.9 91.0 103.35 93.95 M111.6 90.4 L111.3 89.65 112.2 90.25 111.6 90.4 M157.55 60.4 L155.95 61.3 155.2 61.2 155.55 59.35 157.55 60.4 M153.8 84.35 L154.9 87.15 153.95 87.5 152.65 85.0 Q153.25 84.7 153.8 84.35 M150.6 92.3 L152.95 91.1 154.4 94.55 152.3 95.95 149.45 91.5 150.45 84.85 152.1 89.1 Q150.8 90.05 150.6 91.5 L150.6 92.3 M155.8 89.3 L157.45 92.95 156.4 93.4 155.0 89.85 155.8 89.3 M148.55 104.8 L146.65 106.1 147.65 107.1 149.25 106.25 152.6 112.85 Q157.6 122.35 160.4 132.75 L158.1 134.5 146.4 106.75 147.6 102.85 148.55 104.8 M145.0 110.0 L145.4 109.85 156.0 135.0 154.4 135.45 155.3 136.35 154.55 138.55 150.55 125.85 Q148.1 118.0 144.7 110.5 L145.0 110.0 M138.9 107.3 L146.5 133.85 Q148.55 141.1 152.15 147.95 L152.9 147.3 Q147.9 127.75 140.9 108.9 L142.9 110.0 150.0 131.15 151.45 136.45 Q152.25 139.65 153.7 142.5 L152.15 154.3 Q146.35 141.8 143.3 128.4 L142.9 128.1 134.05 102.8 138.9 107.3 M131.75 101.65 L140.4 127.05 136.6 125.2 129.9 100.8 131.75 101.65 M143.05 136.55 L151.5 158.9 151.15 161.05 141.6 137.4 143.05 136.55 M113.75 101.65 L114.75 106.35 113.0 107.2 111.8 102.75 113.75 101.65 M115.1 107.9 L118.3 117.0 115.35 116.15 114.9 114.2 116.2 112.85 114.65 113.3 113.45 109.0 115.1 107.9 M106.8 99.85 L108.55 98.9 109.35 101.85 107.65 102.7 106.8 99.85 M109.95 103.8 L111.2 108.1 109.55 109.0 108.25 104.7 109.95 103.8 M113.5 115.65 L111.15 115.05 113.3 115.0 113.5 115.65 M95.8 109.35 L96.0 109.95 95.3 110.65 95.8 109.35 M98.45 108.0 L97.4 108.75 96.7 106.9 97.2 105.6 97.55 105.6 97.75 105.45 98.35 107.7 98.45 108.0 M94.7 112.25 L95.05 111.4 96.3 110.85 96.95 112.55 94.7 112.25 M116.9 162.5 L117.85 160.85 118.25 162.2 117.15 162.85 116.9 162.5 M118.6 163.3 L119.75 166.65 118.95 167.1 117.85 164.15 118.6 163.3 M116.05 164.1 L116.8 166.3 115.3 165.55 116.05 164.1 M130.2 154.65 L127.25 156.5 126.05 153.25 129.2 151.65 130.2 154.65 M127.95 163.85 L129.05 167.25 127.9 167.95 126.8 164.55 127.95 163.85 M122.1 167.1 L124.55 165.8 125.85 169.5 125.1 170.4 122.9 169.35 122.1 167.1" fill="url(#gradient3)" fill-rule="evenodd" stroke="none"/>
    <path d="M0.05 -67.9 L-2.2 -67.0 Q-1.95 -66.5 -1.95 -65.75 -1.95 -62.75 -8.1 -60.65 -15.05 -58.75 -16.7 -57.75 L-16.75 -57.7 Q-21.7 -53.4 -24.1 -50.5 -29.1 -43.2 -32.05 -39.2 -37.35 -31.85 -44.1 -27.3 L-44.75 -26.95 -34.65 -18.65 Q-31.75 -15.5 -31.75 -11.2 -31.75 -9.3 -32.1 -7.75 L-32.1 -7.5 Q-32.1 -6.95 -32.6 -5.9 -33.05 -5.0 -32.85 -4.45 L-32.85 -4.3 -33.35 -4.55 Q-35.9 -0.7 -42.25 1.05 L-42.55 4.05 Q-43.5 6.2 -47.75 6.6 -45.85 9.3 -40.8 14.25 L-32.5 22.35 -29.2 26.3 -25.85 30.25 Q-24.75 31.45 -20.25 34.4 -16.85 36.7 -16.85 37.95 -16.85 38.8 -17.4 39.7 -18.0 40.75 -18.85 40.75 -20.35 40.75 -23.75 39.35 L-26.05 39.0 -26.6 39.25 Q-27.5 39.55 -28.25 40.5 L-29.1 41.25 -36.6 41.75 -38.7 41.65 Q-39.15 43.2 -42.1 43.2 -54.5 43.2 -60.85 25.65 -65.05 14.0 -65.05 3.45 L-64.0 -7.45 -62.85 -16.8 Q-62.3 -23.35 -54.9 -30.4 -53.05 -32.2 -51.35 -33.4 -47.65 -37.55 -42.5 -41.8 -39.4 -44.35 -35.2 -50.4 -30.8 -56.7 -28.1 -59.15 -25.3 -61.65 -22.2 -63.55 L-15.85 -68.9 Q-10.45 -73.2 -3.35 -75.45 5.3 -78.2 5.3 -72.75 5.3 -69.8 0.05 -67.9 M2.55 -12.95 Q-3.35 -11.0 -7.45 -8.55 -10.5 -6.35 -12.85 -5.0 -17.35 -2.45 -21.05 -2.45 -26.75 -2.45 -28.5 -3.95 -29.25 -4.6 -29.25 -6.2 -29.25 -8.15 -27.65 -8.85 -26.8 -9.25 -23.5 -9.7 -15.75 -10.75 -11.1 -15.2 -7.05 -19.05 -0.9 -19.6 5.45 -20.15 5.45 -16.0 5.45 -13.9 2.55 -12.95 M75.9 -12.2 Q86.65 -15.15 93.05 -12.05 97.95 -9.65 97.95 -5.9 97.95 -3.15 96.95 -0.05 L95.3 1.9 91.95 5.2 Q91.7 5.45 91.15 7.15 90.7 8.45 88.05 10.45 L88.35 12.85 Q88.35 14.7 87.3 15.7 84.85 18.0 81.55 17.65 77.9 16.8 76.05 16.85 73.2 17.0 71.55 18.1 L70.15 19.35 Q63.35 22.95 61.4 24.6 L54.15 30.6 Q50.05 35.3 41.9 41.95 42.25 42.75 42.25 44.05 42.25 46.95 29.0 55.1 18.7 61.5 11.85 64.65 -0.05 74.05 -7.7 81.1 -14.3 87.2 -19.05 92.75 L-18.9 92.8 -17.35 93.95 -16.0 92.15 Q-14.6 90.7 -12.6 90.7 -10.05 90.7 -9.15 92.65 -8.65 93.6 -8.7 94.7 -8.7 95.35 -9.2 96.4 L-9.7 98.1 -8.7 99.95 -7.7 101.6 Q-7.7 102.8 -8.9 104.6 L-6.85 105.6 -2.35 107.25 Q-0.9 106.4 -0.05 106.35 2.9 106.3 4.1 107.85 4.8 108.8 4.8 110.05 4.8 112.4 2.05 114.65 -2.0 117.95 -9.7 117.75 L-10.7 118.0 Q-8.15 119.85 -5.7 118.8 -3.25 117.75 -1.05 119.35 0.8 120.7 0.8 122.55 0.8 126.4 -10.5 130.5 -17.15 132.9 -25.35 134.75 L-26.55 136.3 -25.45 136.4 Q-9.95 132.95 -9.95 139.6 -9.95 141.65 -10.9 142.25 -11.5 142.7 -13.4 142.95 L-13.6 143.65 Q-14.0 144.5 -15.7 145.7 -16.7 146.45 -20.0 146.75 L-23.85 147.05 Q-30.85 148.55 -32.6 148.55 -34.15 148.55 -34.85 147.75 L-37.5 151.8 Q-38.55 153.6 -41.5 154.95 -44.55 156.4 -45.6 157.95 L-47.9 161.35 Q-50.1 163.95 -52.7 163.95 -55.75 163.95 -56.65 162.0 -57.0 161.3 -57.1 159.2 L-58.3 161.35 Q-59.6 162.7 -62.55 162.7 L-63.2 162.65 -63.35 162.8 -65.95 165.2 -68.1 167.3 Q-67.55 170.1 -68.3 171.8 L-77.9 193.05 -80.3 203.5 -73.9 203.25 -61.6 201.8 Q-47.1 200.2 -38.5 206.1 -37.4 206.85 -36.7 208.55 -36.0 210.2 -36.0 212.1 L-36.0 214.9 Q-36.3 216.45 -38.25 217.4 -43.35 219.85 -63.5 219.85 -78.05 219.85 -84.75 219.3 -87.65 227.0 -88.6 220.35 L-88.8 218.8 -89.95 218.5 -92.05 217.55 -99.25 217.1 -110.2 219.5 Q-123.05 221.85 -134.0 221.85 -141.1 221.85 -143.45 218.95 -144.15 218.0 -144.45 216.75 L-144.75 215.35 -152.75 216.1 -160.0 216.85 Q-167.6 216.85 -169.55 211.65 -170.15 210.0 -170.15 207.95 L-170.0 206.0 Q-170.0 200.35 -169.7 199.4 -168.6 195.85 -163.5 195.1 L-149.8 194.1 -140.15 193.7 -135.5 192.7 -133.2 192.05 -131.3 190.55 Q-126.0 186.4 -124.1 185.2 -121.85 183.7 -117.55 180.4 -113.6 177.4 -111.35 175.95 -105.0 171.85 -97.95 166.15 L-86.55 156.45 Q-82.6 153.0 -78.15 146.9 L-70.3 136.5 Q-67.15 132.8 -63.75 126.7 L-58.55 117.0 Q-49.05 100.4 -46.8 97.15 -38.9 85.8 -27.6 77.55 -18.5 70.85 -13.4 67.65 -4.35 61.9 5.3 57.7 L13.4 53.5 21.35 47.45 35.65 36.6 42.35 31.35 Q45.75 28.4 47.25 25.75 50.9 19.3 54.85 19.3 L54.9 19.3 Q59.9 15.4 69.3 9.95 66.15 2.2 66.15 0.95 66.15 -1.85 69.35 -6.45 72.75 -11.35 75.9 -12.2" fill="#000000" fill-opacity="0.15294118" fill-rule="evenodd" stroke="none"/>
  </g>
  <defs>
    <linearGradient gradientTransform="matrix(0.0125, -0.2574, 0.2899, 0.0141, 211.85, 35.6)" gradientUnits="userSpaceOnUse" id="gradient0" spreadMethod="pad" x1="-819.2" x2="819.2">
      <stop offset="0.0" stop-color="#393524"/>
      <stop offset="1.0" stop-color="#29261b"/>
    </linearGradient>
    <linearGradient gradientTransform="matrix(0.1602, 0.0, 0.0, 0.1812, -34.65, 65.5)" gradientUnits="userSpaceOnUse" id="gradient1" spreadMethod="pad" x1="-819.2" x2="819.2">
      <stop offset="0.0" stop-color="#8f9463"/>
      <stop offset="1.0" stop-color="#303f34"/>
    </linearGradient>
    <linearGradient gradientTransform="matrix(0.0169, 0.0, 0.0, 0.0164, -9.25, -16.5)" gradientUnits="userSpaceOnUse" id="gradient2" spreadMethod="pad" x1="-819.2" x2="819.2">
      <stop offset="0.0" stop-color="#8f9463"/>
      <stop offset="1.0" stop-color="#303f34"/>
    </linearGradient>
    <linearGradient gradientTransform="matrix(0.0125, -0.2574, 0.2899, 0.0141, 211.85, 35.6)" gradientUnits="userSpaceOnUse" id="gradient3" spreadMethod="pad" x1="-819.2" x2="819.2">
      <stop offset="0.0" stop-color="#393524"/>
      <stop offset="1.0" stop-color="#29261b"/>
    </linearGradient>
  </defs>
</svg>
