<?xml version="1.0" encoding="UTF-8" standalone="no"?>
<svg xmlns:xlink="http://www.w3.org/1999/xlink" height="803.75px" width="1148.1px" xmlns="http://www.w3.org/2000/svg">
  <g transform="matrix(1.0, 0.0, 0.0, 1.0, 300.4, 162.65)">
    <path d="M819.15 641.1 L-300.4 641.1 -300.4 -162.65 819.15 -162.65 819.15 641.1" fill="url(#gradient0)" fill-rule="evenodd" stroke="none"/>
    <path d="M598.95 575.6 L573.9 564.95 Q550.65 555.3 527.75 544.75 515.45 539.15 502.45 536.45 496.95 535.4 491.8 533.0 481.6 528.1 470.95 523.95 452.8 516.9 434.55 509.3 379.25 486.0 322.4 466.15 305.6 460.25 289.1 453.35 263.5 442.5 237.75 432.35 217.25 424.3 196.9 415.6 193.3 414.05 195.45 410.1 199.65 402.25 207.8 398.7 L208.0 397.85 209.1 397.9 Q210.6 398.1 212.05 398.75 L221.4 403.15 Q223.1 397.4 229.2 397.4 231.35 397.4 233.3 398.5 235.15 399.7 236.3 401.45 237.75 403.7 238.2 406.3 240.6 405.25 245.85 404.7 249.8 404.3 254.4 404.8 L266.1 405.45 281.35 405.05 Q300.45 404.65 321.95 404.55 L327.95 404.55 329.1 404.7 329.15 404.75 329.15 404.3 Q325.65 404.0 316.05 397.9 L309.65 393.55 Q246.35 352.7 210.2 286.1 199.2 265.8 193.15 243.45 188.35 225.8 188.05 207.65 L179.9 205.95 161.95 202.35 136.8 198.85 Q123.85 196.9 118.65 195.45 112.9 193.85 100.85 192.05 L75.1 188.45 68.35 186.85 61.45 184.8 55.9 183.4 48.6 181.7 48.6 180.55 Q56.25 180.05 62.25 182.0 72.4 185.25 77.6 186.2 109.3 190.25 121.65 193.7 131.1 196.35 148.0 197.8 163.3 199.1 168.7 201.2 171.25 202.2 186.85 204.95 L193.4 205.95 Q195.75 206.4 197.05 207.15 L197.8 207.25 Q215.5 209.45 233.15 212.5 254.95 216.45 277.05 218.65 303.55 221.7 329.8 226.65 386.9 237.7 444.55 245.0 459.9 246.75 475.2 249.85 541.05 263.35 607.5 273.8 641.65 279.1 675.8 285.4 697.7 289.4 718.7 295.85 L719.6 295.7 Q721.15 295.7 722.9 296.8 L724.9 297.65 725.25 297.4 725.3 297.8 731.1 299.8 Q732.9 300.5 734.4 301.45 735.6 302.2 737.6 302.8 L743.8 304.35 749.6 305.8 773.0 312.55 789.6 317.05 819.15 324.3 835.65 327.9 Q845.05 330.1 847.7 332.65 L847.6 333.05 Q834.8 330.85 816.5 326.3 L789.6 319.55 Q763.5 312.1 750.6 308.8 L742.0 306.45 Q734.45 304.25 732.35 303.05 L729.2 302.15 725.85 301.15 Q729.55 324.1 731.15 347.35 732.85 373.0 733.6 398.65 734.25 421.3 735.85 443.95 737.3 463.95 738.25 484.0 L739.35 484.8 739.5 485.5 738.35 485.5 Q739.8 501.4 740.75 517.5 742.6 548.9 743.1 580.3 L743.85 580.2 Q744.75 592.0 746.85 603.6 L748.65 615.25 Q750.05 626.65 757.4 634.8 761.45 639.35 767.35 640.85 L764.05 640.9 Q761.7 640.65 759.8 639.2 745.35 628.15 744.6 609.65 744.35 602.9 743.25 596.55 741.7 587.8 741.45 579.1 740.8 558.85 739.75 538.75 738.45 514.2 736.65 489.65 L737.45 490.9 737.95 490.3 738.2 488.05 Q738.2 486.75 737.25 484.65 L736.15 482.3 735.8 477.0 Q734.25 453.45 732.85 429.9 731.35 404.2 730.7 378.55 729.7 338.95 723.4 300.05 L723.3 299.4 721.05 298.8 701.0 293.7 Q686.2 290.1 671.25 287.3 628.85 279.6 586.35 272.4 L557.45 267.15 523.8 260.3 Q507.2 256.75 490.5 254.1 439.2 246.15 387.8 238.95 364.8 235.65 342.0 231.25 304.65 224.2 266.9 219.85 228.65 215.3 190.9 208.35 190.35 212.15 190.6 216.05 191.8 233.35 198.35 249.3 210.7 279.1 231.2 304.05 226.35 293.45 220.95 283.2 216.2 274.3 219.35 264.9 226.45 264.85 229.95 271.6 246.2 303.0 268.75 330.1 248.75 303.1 235.7 272.0 232.7 264.85 236.1 258.1 236.8 256.7 238.0 256.15 246.15 252.5 255.5 253.8 271.65 255.85 287.35 259.7 297.35 262.1 307.45 263.15 334.15 266.0 358.9 275.85 L358.45 276.85 Q366.05 285.8 372.3 295.65 374.45 299.0 374.75 302.8 L370.45 308.7 Q360.4 322.85 352.5 338.2 342.75 357.25 335.55 377.5 331.55 388.85 332.0 400.75 332.15 404.6 330.7 407.9 323.3 424.8 309.55 437.45 L309.5 437.65 316.05 439.75 315.6 440.05 315.95 440.55 316.85 440.85 318.75 440.5 319.75 440.95 321.45 441.15 Q322.45 441.15 349.95 432.9 L356.55 432.25 364.45 431.4 Q366.8 430.95 368.9 429.85 L370.7 428.9 378.55 427.35 Q381.05 426.8 384.35 424.65 390.3 420.8 409.5 418.7 L434.6 416.65 448.9 416.0 Q458.7 415.5 459.6 414.65 463.55 410.7 464.85 407.9 L460.9 408.55 Q459.25 401.8 446.15 375.3 430.65 344.75 429.6 342.05 428.35 338.65 421.05 326.9 L408.85 307.55 Q404.8 300.85 404.1 299.3 L402.65 296.8 401.35 294.8 Q400.8 293.85 398.05 292.45 L394.6 290.8 Q393.1 289.85 390.55 287.2 L385.95 282.55 Q381.7 278.55 378.45 277.9 L377.25 277.25 406.4 282.8 408.15 283.15 415.5 284.55 458.2 293.1 Q496.95 301.45 535.95 308.0 582.5 315.85 628.05 328.45 L662.0 337.6 Q665.65 338.65 668.8 340.95 L668.75 341.15 666.35 353.2 662.95 365.75 Q660.35 375.5 660.35 376.9 L660.35 377.15 Q655.05 395.7 649.05 414.1 646.55 421.65 643.25 428.9 636.65 443.3 634.7 458.85 632.4 476.85 625.85 493.9 617.85 514.7 611.5 536.1 L611.85 536.85 609.2 537.75 608.15 537.1 Q606.85 537.2 605.65 537.6 604.55 537.75 603.6 538.3 L602.0 539.7 Q601.15 540.65 600.65 541.85 599.95 543.45 599.5 545.15 L600.2 545.3 600.1 546.65 597.55 546.3 Q554.75 531.5 512.1 516.15 456.95 496.35 402.3 475.2 380.3 466.6 358.0 458.9 339.05 452.45 320.6 444.55 309.85 439.9 298.5 437.0 283.85 433.15 270.4 426.45 254.25 418.3 237.5 411.6 L236.2 412.3 Q235.8 410.6 235.85 408.9 235.9 407.1 235.35 405.35 234.85 403.65 233.65 402.3 232.35 400.9 230.8 400.15 229.5 399.5 228.1 399.5 226.1 399.7 224.6 400.95 L223.65 407.3 222.4 407.0 Q220.7 406.3 219.15 405.4 L215.15 402.95 Q212.55 401.2 209.6 400.1 L209.3 400.75 208.35 400.85 Q205.9 401.45 203.85 403.05 201.45 404.95 199.6 407.3 197.65 409.65 196.25 412.45 203.5 417.3 211.85 420.25 219.35 422.85 226.7 425.95 266.85 443.05 307.8 457.9 L343.65 470.65 Q378.9 482.95 412.6 498.6 423.45 503.65 434.6 507.5 459.4 516.05 483.1 527.55 485.1 528.55 487.2 529.2 502.7 533.8 517.95 539.3 537.7 546.6 557.0 555.5 577.85 565.1 599.55 572.7 L598.95 575.6 M317.75 437.6 L318.1 438.9 318.1 438.95 316.7 439.4 317.75 437.6" fill="#000000" fill-rule="evenodd" stroke="none"/>
    <path d="M599.55 572.7 Q577.85 565.1 557.0 555.5 537.7 546.6 517.95 539.3 502.7 533.8 487.2 529.2 485.1 528.55 483.1 527.55 459.4 516.05 434.6 507.5 423.45 503.65 412.6 498.6 378.9 482.95 343.65 470.65 L307.8 457.9 Q266.85 443.05 226.7 425.95 219.35 422.85 211.85 420.25 203.5 417.3 196.25 412.45 197.65 409.65 199.6 407.3 201.45 404.95 203.85 403.05 205.9 401.45 208.35 400.85 L209.3 400.75 209.6 400.1 Q212.55 401.2 215.15 402.95 L219.15 405.4 Q220.7 406.3 222.4 407.0 L223.65 407.3 224.6 400.95 Q226.1 399.7 228.1 399.5 229.5 399.5 230.8 400.15 232.35 400.9 233.65 402.3 234.85 403.65 235.35 405.35 235.9 407.1 235.85 408.9 235.8 410.6 236.2 412.3 L237.5 411.6 Q254.25 418.3 270.4 426.45 283.85 433.15 298.5 437.0 309.85 439.9 320.6 444.55 339.05 452.45 358.0 458.9 380.3 466.6 402.3 475.2 456.95 496.35 512.1 516.15 554.75 531.5 597.55 546.3 L600.1 546.65 600.2 545.3 599.5 545.15 Q599.95 543.45 600.65 541.85 601.15 540.65 602.0 539.7 L603.6 538.3 Q604.55 537.75 605.65 537.6 606.85 537.2 608.15 537.1 L609.2 537.75 611.85 536.85 611.5 536.1 Q617.85 514.7 625.85 493.9 632.4 476.85 634.7 458.85 636.65 443.3 643.25 428.9 646.55 421.65 649.05 414.1 655.05 395.7 660.35 377.15 L661.35 373.6 Q661.75 372.15 662.3 370.75 L663.05 368.85 662.7 370.5 661.2 377.45 661.15 377.65 Q657.1 395.3 652.1 412.7 646.3 432.85 641.4 453.15 636.35 473.9 630.8 494.45 624.95 516.05 616.45 536.7 L616.0 537.05 Q617.6 540.2 618.1 543.8 618.75 548.45 617.7 552.85 L617.4 554.8 618.35 555.3 619.05 554.4 Q622.75 556.85 627.1 558.05 L633.6 559.2 640.1 559.15 Q637.05 562.05 633.75 564.6 L629.05 567.25 Q626.8 568.25 624.2 568.45 L625.4 569.05 625.4 569.95 Q628.85 574.35 633.95 576.55 640.85 579.6 647.85 581.25 L647.65 581.8 Q662.8 582.5 677.7 580.3 676.35 582.95 673.55 584.4 668.55 586.9 663.05 588.2 656.05 589.8 648.85 589.55 L648.9 590.85 Q633.85 589.4 620.4 583.25 613.65 580.15 607.2 575.8 605.6 574.75 603.8 574.15 L601.95 573.55 599.55 572.7 M668.8 340.95 Q665.65 338.65 662.0 337.6 L628.05 328.45 Q582.5 315.85 535.95 308.0 496.95 301.45 458.2 293.1 L415.5 284.55 408.15 283.15 406.4 282.8 377.25 277.25 375.95 277.0 375.1 276.85 372.25 277.1 Q372.8 280.8 375.0 284.1 379.5 290.85 385.15 296.65 376.95 305.7 370.65 316.2 L368.9 319.15 368.5 318.9 Q350.4 347.8 340.45 380.45 335.7 396.05 335.4 412.3 326.85 422.4 320.05 433.55 L317.85 437.4 317.7 437.4 317.75 437.6 316.7 439.4 316.05 439.75 309.5 437.65 309.55 437.45 Q323.3 424.8 330.7 407.9 332.15 404.6 332.0 400.75 331.55 388.85 335.55 377.5 342.75 357.25 352.5 338.2 360.4 322.85 370.45 308.7 L374.75 302.8 Q374.45 299.0 372.3 295.65 366.05 285.8 358.45 276.85 L358.9 275.85 Q334.15 266.0 307.45 263.15 297.35 262.1 287.35 259.7 271.65 255.85 255.5 253.8 246.15 252.5 238.0 256.15 236.8 256.7 236.1 258.1 232.7 264.85 235.7 272.0 248.75 303.1 268.75 330.1 246.2 303.0 229.95 271.6 226.45 264.85 219.35 264.9 216.2 274.3 220.95 283.2 226.35 293.45 231.2 304.05 210.7 279.1 198.35 249.3 191.8 233.35 190.6 216.05 190.35 212.15 190.9 208.35 228.65 215.3 266.9 219.85 304.65 224.2 342.0 231.25 364.8 235.65 387.8 238.95 439.2 246.15 490.5 254.1 507.2 256.75 523.8 260.3 L557.45 267.15 586.35 272.4 Q628.85 279.6 671.25 287.3 686.2 290.1 701.0 293.7 L721.05 298.8 723.3 299.4 723.4 300.05 Q729.7 338.95 730.7 378.55 731.35 404.2 732.85 429.9 734.25 453.45 735.8 477.0 L736.15 482.3 736.15 482.8 736.15 482.95 733.5 482.4 733.0 482.25 727.2 480.6 726.95 480.5 724.05 479.3 724.0 478.7 Q720.95 450.0 718.3 421.2 715.9 395.55 712.7 370.05 712.55 368.95 711.5 368.55 709.4 356.9 700.6 349.1 694.8 344.05 688.0 345.9 687.05 346.15 686.4 347.05 683.95 350.25 685.05 354.4 696.6 396.75 707.55 439.35 L710.15 448.85 Q698.75 412.8 689.5 376.15 687.6 368.75 684.6 361.6 679.85 350.35 670.85 342.6 L670.1 341.95 668.8 340.95" fill="url(#gradient1)" fill-rule="evenodd" stroke="none"/>
    <path d="M598.95 575.6 L599.55 572.7 601.95 573.55 603.8 574.15 Q605.6 574.75 607.2 575.8 613.65 580.15 620.4 583.25 633.85 589.4 648.9 590.85 L648.85 589.55 Q656.05 589.8 663.05 588.2 668.55 586.9 673.55 584.4 676.35 582.95 677.7 580.3 662.8 582.5 647.65 581.8 L647.85 581.25 Q640.85 579.6 633.95 576.55 628.85 574.35 625.4 569.95 L625.4 569.05 624.2 568.45 Q626.8 568.25 629.05 567.25 L633.75 564.6 Q637.05 562.05 640.1 559.15 L633.6 559.2 627.1 558.05 Q622.75 556.85 619.05 554.4 L618.35 555.3 617.4 554.8 617.7 552.85 Q618.75 548.45 618.1 543.8 617.6 540.2 616.0 537.05 L616.45 536.7 Q624.95 516.05 630.8 494.45 636.35 473.9 641.4 453.15 646.3 432.85 652.1 412.7 657.1 395.3 661.15 377.65 L661.2 377.45 662.7 370.5 663.05 368.85 662.3 370.75 Q661.75 372.15 661.35 373.6 L660.35 377.15 660.35 376.9 Q660.35 375.5 662.95 365.75 L666.35 353.2 668.75 341.15 668.8 340.95 670.1 341.95 670.85 342.6 Q679.85 350.35 684.6 361.6 687.6 368.75 689.5 376.15 698.75 412.8 710.15 448.85 L707.55 439.35 Q696.6 396.75 685.05 354.4 683.95 350.25 686.4 347.05 687.05 346.15 688.0 345.9 694.8 344.05 700.6 349.1 709.4 356.9 711.5 368.55 712.55 368.95 712.7 370.05 715.9 395.55 718.3 421.2 720.95 450.0 724.0 478.7 L724.05 479.3 726.95 480.5 727.2 480.6 733.0 482.25 733.5 482.4 736.15 482.95 736.15 482.8 736.15 482.3 737.25 484.65 Q738.2 486.75 738.2 488.05 L737.95 490.3 737.45 490.9 736.65 489.65 736.3 485.0 728.75 483.15 Q729.1 484.25 729.1 485.55 L728.95 487.45 728.6 488.55 728.1 488.95 726.1 489.3 Q723.65 489.3 721.95 486.95 L722.0 487.65 722.7 503.45 722.65 514.65 723.65 535.05 Q723.7 536.55 724.7 545.5 L725.65 555.3 Q725.65 556.7 724.75 558.3 723.25 556.85 722.8 553.85 720.3 556.5 713.25 562.6 703.75 570.8 698.6 574.65 690.65 580.55 678.3 586.4 665.4 592.45 659.95 592.45 L657.2 592.2 656.65 592.15 648.9 592.55 Q637.85 592.1 627.2 589.0 617.05 586.15 608.4 580.35 605.95 578.7 603.35 577.55 L601.15 576.6 598.95 575.65 598.95 575.6 M377.25 277.25 L378.45 277.9 Q381.7 278.55 385.95 282.55 L390.55 287.2 Q393.1 289.85 394.6 290.8 L398.05 292.45 Q400.8 293.85 401.35 294.8 L402.65 296.8 404.1 299.3 Q404.8 300.85 408.85 307.55 L421.05 326.9 Q428.35 338.65 429.6 342.05 430.65 344.75 446.15 375.3 459.25 401.8 460.9 408.55 L464.85 407.9 Q463.55 410.7 459.6 414.65 458.7 415.5 448.9 416.0 L434.6 416.65 409.5 418.7 Q390.3 420.8 384.35 424.65 381.05 426.8 378.55 427.35 L370.7 428.9 368.9 429.85 Q366.8 430.95 364.45 431.4 L356.55 432.25 349.95 432.9 Q322.45 441.15 321.45 441.15 L319.75 440.95 318.75 440.5 316.85 440.85 315.95 440.55 315.6 440.05 316.05 439.75 316.7 439.4 318.1 438.95 318.1 438.9 317.75 437.6 317.7 437.4 317.85 437.4 320.05 433.55 Q326.85 422.4 335.4 412.3 335.7 396.05 340.45 380.45 350.4 347.8 368.5 318.9 L368.9 319.15 370.65 316.2 Q376.95 305.7 385.15 296.65 379.5 290.85 375.0 284.1 372.8 280.8 372.25 277.1 L375.1 276.85 375.95 277.0 377.25 277.25" fill="#111111" fill-rule="evenodd" stroke="none"/>
    <path d="M311.1 478.35 L310.65 478.35 311.2 477.6 310.65 477.15 310.65 476.15 311.9 476.6 Q321.3 463.65 329.0 455.5 335.35 448.8 342.55 442.85 L342.25 442.5 342.9 442.1 343.55 441.65 343.85 441.8 344.05 441.7 Q345.15 442.6 346.45 443.0 L346.45 443.05 350.45 444.8 358.4 448.1 359.5 448.1 354.5 439.45 Q354.45 438.55 353.6 437.55 352.65 436.5 352.65 435.65 L353.85 434.55 354.0 434.4 356.75 432.55 Q376.6 419.7 409.9 413.55 426.65 410.4 455.15 408.3 455.15 408.15 461.05 408.35 L468.4 408.9 Q469.55 409.8 471.85 410.4 L472.1 410.5 472.1 410.4 472.15 409.3 472.9 409.15 Q476.2 412.95 486.35 416.6 502.45 422.45 507.2 424.7 516.25 429.05 530.1 433.55 L554.85 441.35 Q566.1 445.1 580.25 450.35 593.35 455.2 600.35 458.1 L617.85 464.25 Q628.7 468.05 633.05 471.05 L633.65 471.05 Q633.65 471.9 634.0 473.45 L634.15 473.4 634.5 473.75 634.65 474.7 Q634.65 481.65 631.85 489.6 628.55 498.85 623.25 503.05 L622.4 503.15 Q622.15 503.1 622.15 502.35 L622.4 502.05 619.35 501.1 615.85 499.8 Q614.45 499.05 607.35 497.3 L592.55 494.85 Q586.3 493.95 584.05 492.65 576.85 496.0 571.85 498.9 L554.95 508.65 Q550.0 511.75 546.35 514.7 L546.4 514.75 545.9 515.15 545.2 515.8 545.15 515.75 544.35 514.9 Q543.7 514.25 542.9 514.05 L531.4 505.3 535.0 515.35 536.6 520.1 536.7 520.4 536.85 520.8 537.65 522.65 537.8 523.15 Q536.5 524.7 535.85 525.8 531.4 531.4 526.35 538.85 L513.45 558.15 Q513.95 558.55 512.7 558.55 512.0 557.9 510.4 556.95 507.15 555.05 502.45 553.55 500.75 553.0 498.3 551.55 L498.25 551.6 497.2 551.85 Q475.1 540.9 472.6 539.35 468.65 536.8 462.5 534.45 457.3 532.4 453.15 531.45 444.25 529.4 420.75 524.95 L394.1 519.6 Q384.8 517.25 375.1 513.5 366.55 510.2 350.25 502.8 345.75 500.75 338.95 495.95 332.5 491.4 327.7 489.4 322.45 487.2 318.1 483.6 L311.55 477.85 311.1 478.35" fill="url(#gradient2)" fill-rule="evenodd" stroke="none"/>
    <path d="M571.6 492.6 L570.15 495.2 Q569.55 496.35 567.8 497.65 565.5 499.4 563.2 499.4 562.0 499.4 560.8 500.6 559.6 501.8 558.65 501.8 L555.6 500.3 554.3 499.6 Q553.8 499.25 553.75 498.8 L553.75 497.1 Q553.7 496.1 552.85 495.35 552.3 494.9 551.15 491.95 550.0 489.1 550.0 488.5 550.0 486.15 552.75 483.8 555.6 481.3 555.85 477.15 555.85 474.25 558.6 470.25 561.45 466.15 563.2 467.05 559.85 468.8 558.15 471.95 557.05 474.0 556.35 477.55 L555.95 480.45 Q555.65 482.2 554.6 483.15 L551.55 486.05 Q550.6 487.2 550.6 488.5 550.6 489.35 551.8 491.9 L553.6 495.15 Q554.2 495.85 554.25 496.8 L554.35 498.35 Q554.6 499.15 558.65 501.1 559.2 501.1 559.8 500.45 L560.65 499.55 Q561.4 499.15 561.95 499.1 L563.65 498.9 566.2 497.7 Q568.25 496.55 568.75 495.95 L570.7 492.75 Q572.05 490.65 574.45 489.95 L573.2 491.15 571.6 492.6 M486.6 436.95 Q485.95 438.5 485.35 439.05 486.1 440.4 487.6 440.4 488.25 440.4 488.75 438.95 L488.15 438.15 486.6 436.95 M489.85 438.6 L488.95 440.1 487.9 441.4 486.75 440.85 485.7 440.3 484.95 440.1 484.6 440.1 485.15 438.6 485.6 437.0 Q485.6 435.15 487.75 436.7 L489.85 438.6 M522.4 457.45 L523.6 458.15 Q526.2 458.15 526.95 457.1 L529.0 453.2 530.45 450.8 Q532.35 448.55 535.15 448.55 L541.45 449.55 541.45 449.6 538.6 449.8 534.9 449.3 Q532.0 449.3 529.3 454.05 526.6 458.8 525.75 458.8 523.2 458.8 521.8 458.1 L520.65 457.4 515.2 458.05 Q512.85 458.05 509.75 456.8 506.7 455.55 503.1 455.55 L501.35 459.45 Q499.55 463.3 497.7 463.3 495.8 463.3 493.4 462.55 L490.75 461.8 Q486.55 461.8 485.3 464.2 L484.6 465.85 Q484.2 466.6 483.45 466.6 482.5 466.6 481.35 466.0 480.25 465.35 479.85 465.35 478.3 465.35 476.1 467.2 473.85 469.05 472.5 469.05 468.9 469.05 467.75 468.05 467.15 467.55 467.15 466.45 467.15 464.45 466.65 463.3 L465.5 461.75 464.15 460.05 Q463.15 457.7 463.15 456.95 463.15 454.9 465.55 453.45 467.9 452.0 467.9 451.45 467.9 450.55 466.65 449.05 465.4 447.6 465.4 446.05 L465.8 445.05 466.15 444.05 465.65 443.05 465.0 442.3 463.1 442.45 463.1 442.8 Q459.95 441.85 459.95 439.15 459.95 435.2 465.5 433.0 468.4 431.85 472.5 431.05 474.5 430.35 474.95 428.85 L475.1 426.3 Q475.05 425.0 476.7 423.8 478.35 422.6 480.1 422.55 L480.1 422.6 Q475.5 423.9 475.4 427.0 L475.25 429.35 Q474.8 430.65 473.1 431.4 L469.3 432.4 466.15 433.05 Q465.4 433.35 464.7 433.85 L463.35 434.65 Q461.8 435.35 461.0 436.85 460.35 438.0 460.35 439.2 460.35 439.7 460.95 440.7 461.55 441.75 462.1 442.05 L464.1 442.05 Q465.55 441.95 466.1 442.65 466.65 443.4 466.65 444.1 L466.3 445.15 465.9 446.05 Q465.9 447.15 467.15 448.8 468.4 450.45 468.4 451.4 468.4 452.5 466.05 453.95 463.65 455.45 463.65 456.95 463.65 457.85 465.0 459.7 466.75 462.0 467.15 462.95 467.65 463.95 467.65 465.95 467.65 466.7 468.4 467.5 469.35 468.45 470.7 468.45 473.5 468.45 476.05 466.65 L478.7 464.8 Q480.3 464.8 481.55 465.35 L483.0 465.9 Q483.7 465.9 485.05 463.6 486.45 461.3 489.2 461.3 490.6 461.3 493.3 462.0 L496.6 462.7 Q499.25 462.7 500.95 458.85 502.6 454.95 503.35 454.95 506.75 454.95 509.9 456.2 513.05 457.45 514.1 457.45 L516.25 457.1 519.0 456.7 Q521.05 456.7 522.4 457.45 M514.25 461.35 Q513.45 460.8 510.85 459.9 508.3 459.05 507.65 459.15 507.1 459.25 506.65 460.45 L506.35 462.15 505.65 464.05 503.65 467.4 Q503.35 468.2 503.1 470.95 503.0 472.2 502.35 474.35 L501.05 477.75 499.85 481.0 Q499.85 482.0 500.45 482.8 501.5 484.3 504.15 484.3 L509.5 483.3 Q513.55 482.25 515.0 481.3 516.0 480.7 516.6 479.3 L517.1 477.25 Q517.1 475.6 516.2 475.25 514.25 474.55 513.5 473.9 512.7 473.2 512.05 472.15 511.35 471.0 511.35 470.15 511.35 467.9 513.15 465.9 514.95 463.85 514.95 462.8 514.95 461.9 514.25 461.35 M515.6 462.75 Q515.6 464.25 513.85 466.3 512.1 468.35 512.1 470.35 512.1 471.0 513.0 472.3 513.9 473.65 514.5 473.85 517.1 474.95 517.6 475.6 L517.85 477.0 Q517.85 480.25 515.5 481.8 513.9 482.9 509.75 484.1 L505.75 485.15 Q501.15 485.15 499.7 483.4 499.1 482.65 499.1 481.1 L500.7 476.15 Q502.3 471.45 502.35 469.85 502.35 468.65 503.25 466.9 L504.6 464.2 505.4 462.8 Q505.9 461.9 505.65 461.4 L505.9 460.2 Q506.15 459.3 506.75 458.8 L506.85 458.55 Q505.85 458.4 505.85 458.05 506.95 457.8 508.6 458.4 L512.85 459.7 Q515.1 460.95 515.45 461.35 L515.6 462.75 M494.5 515.1 L492.65 514.95 Q487.35 514.95 484.15 512.65 481.8 510.3 480.9 510.3 L477.3 511.75 476.9 512.3 Q476.25 513.2 476.25 514.0 L476.9 516.6 477.5 519.55 Q477.5 520.65 477.1 521.75 476.55 523.2 475.6 523.3 L474.05 523.3 473.4 523.2 473.0 523.55 472.5 524.55 471.9 525.3 Q471.2 525.8 469.65 525.8 467.8 525.8 465.9 524.8 464.4 523.8 464.1 523.8 462.0 523.8 460.85 525.35 460.1 526.3 459.35 528.8 L456.65 528.3 454.85 527.9 Q451.9 527.9 451.2 529.2 450.8 529.9 450.95 530.8 L450.85 531.05 450.4 530.95 450.35 529.7 Q450.35 529.35 451.2 528.3 452.1 527.2 452.65 527.2 L456.25 527.65 458.75 528.05 459.8 525.7 Q460.8 523.3 463.4 523.3 L465.7 524.25 468.1 525.15 Q471.3 525.15 471.85 523.9 472.45 522.6 474.5 522.6 476.05 522.6 476.6 521.1 L476.85 519.55 476.25 516.85 Q475.6 514.8 475.6 513.95 475.6 512.55 476.45 511.5 476.5 511.15 477.1 510.85 L478.25 510.05 478.1 510.4 478.2 510.35 479.75 509.65 Q480.75 509.4 481.5 509.9 L483.1 510.8 485.95 512.7 Q486.8 513.35 486.95 513.95 L492.65 514.1 Q494.5 514.1 496.3 515.3 L498.85 517.4 501.95 519.5 Q502.4 519.8 502.4 521.4 L502.0 522.35 501.6 523.3 502.4 524.55 Q503.15 525.55 503.15 525.9 L502.9 526.5 502.6 526.85 502.95 527.4 503.9 527.65 506.0 527.6 506.15 525.55 507.4 525.55 Q509.4 526.05 509.65 526.85 509.85 527.3 509.65 528.3 509.75 529.05 510.45 529.75 L511.6 530.85 Q512.25 531.7 513.1 536.15 L512.45 537.3 Q511.75 538.05 511.15 538.05 L508.05 538.15 Q508.3 538.0 508.15 537.55 L508.15 537.05 505.5 537.3 Q505.2 537.65 505.0 538.15 L504.75 539.7 Q504.75 540.7 506.05 543.55 507.35 546.4 507.35 547.6 L506.6 551.45 507.05 553.05 507.6 554.35 506.5 553.0 Q505.9 552.0 505.9 551.4 L506.65 548.8 Q506.65 546.45 505.4 543.7 504.15 540.95 504.15 539.75 504.15 538.35 504.7 537.4 L505.0 537.05 504.9 536.8 505.5 536.6 Q506.1 536.2 507.05 536.3 L507.1 536.3 Q508.9 536.3 508.95 536.75 L509.15 537.2 511.4 536.9 512.35 536.2 511.75 533.7 Q511.35 532.05 510.65 531.1 L509.65 530.15 Q508.9 529.35 508.9 528.65 L508.95 527.45 Q508.65 526.65 506.9 526.4 L506.95 527.6 Q506.9 528.55 506.1 528.55 503.3 528.55 502.2 527.7 L501.6 526.8 Q501.6 526.5 501.85 526.35 L502.1 525.9 Q502.1 525.4 501.35 524.7 500.6 523.95 500.6 523.2 500.6 522.85 501.1 521.9 L501.6 520.75 Q501.6 519.9 500.15 519.05 498.35 517.95 497.95 517.35 L497.25 516.65 495.7 515.85 494.5 515.1 M480.85 443.95 Q480.85 443.45 481.35 442.5 481.9 441.4 482.45 441.4 483.1 441.55 484.6 442.55 L486.1 443.85 Q486.1 444.5 485.5 445.75 L484.85 447.35 Q485.05 447.55 484.4 447.55 L482.7 446.8 480.45 445.8 480.4 445.45 480.65 444.7 480.85 443.95 M481.35 445.05 L484.15 446.3 484.75 445.2 485.35 444.05 483.75 443.1 482.6 442.3 481.85 443.6 Q481.35 444.45 481.35 445.05 M409.35 432.35 Q407.6 433.1 406.65 433.1 404.55 433.1 403.95 431.65 403.4 430.15 402.1 430.15 399.6 430.15 398.9 431.0 L398.65 431.9 Q398.35 433.15 397.75 433.55 L395.85 434.15 Q394.2 434.55 393.35 435.2 391.7 436.15 391.7 436.4 L391.95 437.7 392.2 438.95 Q392.2 441.4 390.1 441.4 388.75 441.4 388.25 441.0 L387.75 440.55 385.35 440.55 Q385.1 442.9 384.5 442.9 L382.8 442.7 382.1 442.1 Q381.5 441.75 380.65 441.55 380.3 441.85 380.35 442.35 L380.4 443.3 Q380.4 443.95 379.55 444.9 378.65 445.85 378.65 446.3 L379.4 447.35 Q380.15 448.3 380.15 448.6 380.15 450.1 378.5 450.5 L376.75 450.55 376.15 450.4 376.0 450.3 375.2 450.55 Q374.2 450.6 373.7 450.1 L372.85 448.85 368.9 449.3 Q368.65 449.45 368.65 449.85 L368.95 451.2 369.2 452.55 Q369.2 453.55 368.85 454.05 368.65 454.3 367.65 454.65 366.7 455.0 366.6 455.2 366.4 455.65 366.45 456.6 L366.4 458.05 365.75 461.35 Q365.2 463.55 364.2 463.55 360.35 463.55 357.6 461.4 354.85 459.2 353.75 459.2 349.35 459.2 347.6 461.2 346.6 462.35 346.6 463.75 346.6 465.35 348.6 469.2 L350.6 472.95 349.35 474.8 Q348.1 476.55 348.1 477.1 348.1 478.45 349.7 480.5 351.45 482.7 353.4 483.3 L357.85 484.3 Q360.65 484.9 361.75 485.8 L364.05 487.05 Q366.35 488.15 367.65 488.15 370.55 488.15 372.65 487.0 374.75 485.8 375.35 485.8 376.75 485.8 378.25 486.45 L380.35 487.05 Q380.95 487.05 382.1 486.55 L382.5 486.35 382.95 486.3 Q384.05 486.3 384.2 486.6 L384.2 486.8 Q383.05 486.7 382.35 487.1 L381.0 487.55 Q379.35 487.55 377.8 487.0 L376.0 486.4 Q375.05 486.4 372.75 487.65 L370.1 488.85 Q364.95 488.85 361.7 486.55 360.0 485.4 359.6 485.3 L356.65 484.7 353.95 484.15 Q351.05 483.15 349.15 480.9 347.45 478.85 347.45 477.1 347.45 476.1 348.6 474.6 L349.75 472.8 347.85 469.3 Q345.95 465.5 345.95 463.8 345.95 461.3 348.75 459.7 351.0 458.45 353.0 458.45 355.35 458.45 358.05 460.7 360.75 462.9 362.85 462.9 364.6 462.9 365.2 460.55 L365.65 457.55 Q364.95 455.35 366.6 454.3 368.45 453.15 368.45 452.2 L368.15 450.95 367.85 449.7 Q367.85 448.2 371.85 448.2 373.35 448.2 374.0 449.0 374.6 449.8 376.15 449.8 L378.8 449.55 Q379.4 449.35 379.4 448.9 379.4 448.45 378.65 447.7 377.9 446.95 377.9 446.55 377.9 445.95 378.8 444.85 L379.65 443.35 379.3 442.55 378.9 441.7 Q378.9 441.45 379.4 441.15 379.95 440.8 380.4 440.8 382.4 440.8 382.95 441.25 L383.35 442.1 384.35 441.35 384.45 440.8 384.55 439.95 Q384.7 439.4 385.1 439.4 L386.8 439.6 388.2 439.9 389.35 440.6 Q390.7 440.6 391.2 439.75 L391.45 438.9 391.2 437.75 390.95 436.55 Q390.95 435.7 391.55 435.2 L394.1 433.7 Q395.2 433.15 396.55 433.1 397.35 433.05 397.65 432.35 L397.95 431.05 399.1 429.95 399.65 429.4 401.2 429.4 402.9 429.6 Q404.3 430.35 404.8 431.45 405.15 432.2 406.0 432.2 407.2 432.2 408.7 431.4 410.2 430.6 410.85 430.6 411.45 430.6 412.75 431.95 L414.2 433.85 414.45 434.8 417.7 435.4 418.9 435.95 421.75 436.35 422.95 435.9 Q423.7 435.4 424.2 435.4 425.85 435.4 428.0 437.05 430.5 438.1 430.95 438.6 431.9 439.75 432.95 439.95 L434.85 440.3 Q435.75 440.7 436.25 441.2 436.85 441.8 437.35 442.05 L439.85 442.45 Q442.2 442.8 442.75 443.6 L443.15 444.35 443.7 445.3 444.5 446.85 444.95 448.5 445.0 448.55 444.95 448.55 445.0 448.7 444.75 449.05 444.2 448.7 442.9 449.05 Q442.35 449.45 442.2 450.35 L441.1 453.05 439.2 456.25 Q439.0 456.6 439.0 458.25 439.0 459.2 438.25 460.3 437.1 462.05 434.95 462.05 L429.5 461.35 Q427.45 460.65 427.1 460.65 423.0 460.65 419.6 464.05 416.4 467.2 416.4 470.3 416.4 472.55 418.3 475.05 420.15 477.55 420.15 480.75 420.15 482.15 419.8 482.45 418.4 483.2 416.35 484.6 415.65 485.1 413.9 485.2 L411.65 485.4 410.15 486.3 409.15 487.15 407.4 487.6 Q404.6 487.6 402.4 486.4 L400.0 485.15 399.05 485.4 398.1 485.6 Q397.15 485.6 396.6 485.1 L396.35 484.85 395.6 485.05 Q397.25 486.8 397.25 487.2 397.25 488.0 396.55 488.25 L391.85 489.55 391.3 489.7 391.15 489.85 391.0 489.75 389.85 490.1 389.85 490.35 389.6 490.7 389.2 490.3 387.8 490.75 387.7 490.8 386.1 491.3 Q385.4 490.85 385.15 489.6 L384.85 487.6 383.4 484.05 381.65 480.4 380.55 477.95 380.45 478.05 380.0 478.05 378.75 479.1 378.65 480.05 378.35 480.05 378.25 479.5 375.7 481.4 375.65 481.8 375.65 481.9 375.55 481.5 375.45 481.55 369.65 485.7 369.45 486.65 369.0 486.65 368.9 486.25 368.35 486.65 368.3 486.6 368.1 486.6 368.05 486.35 Q367.45 485.7 367.2 484.65 L367.0 483.6 Q366.65 483.1 366.6 482.2 L365.55 480.55 365.35 480.55 365.2 480.15 364.3 479.25 362.9 478.1 362.95 477.3 363.3 477.45 363.9 477.55 365.4 477.05 365.4 476.8 365.85 476.8 366.15 476.6 368.1 475.35 369.55 474.9 Q370.75 474.55 371.65 473.9 372.45 473.35 375.2 472.1 L377.85 471.05 376.1 469.15 Q374.65 467.35 373.35 465.35 L372.9 464.8 372.6 464.8 372.6 464.5 372.0 463.8 371.85 463.65 370.7 462.3 Q369.45 460.75 369.2 459.6 L368.85 459.8 368.85 459.45 369.1 459.1 369.1 459.05 369.15 459.05 370.9 457.4 371.35 457.05 371.6 456.65 371.7 456.75 372.2 456.3 Q372.45 455.8 372.85 455.6 L372.9 455.65 373.9 454.6 374.0 453.95 374.45 453.95 374.7 453.65 Q375.6 452.4 376.15 452.1 378.4 456.85 383.8 466.65 384.6 465.95 387.05 464.35 L391.2 461.7 Q392.55 460.9 395.5 459.5 397.85 458.3 398.1 457.3 399.6 457.55 400.5 459.15 L401.95 461.9 403.5 464.5 404.9 467.15 Q404.9 468.2 402.8 468.9 L402.75 468.95 402.4 469.05 400.1 469.85 399.85 471.2 399.65 471.35 399.3 471.25 Q399.15 471.15 399.15 470.75 L399.15 470.25 398.15 470.7 397.9 471.6 397.6 471.6 397.45 471.05 395.9 471.7 392.6 472.45 390.2 472.95 390.15 473.05 390.05 472.95 388.1 473.45 386.8 473.9 388.25 476.15 388.35 476.05 388.35 476.3 389.9 478.55 390.1 478.55 390.2 479.0 390.95 480.1 391.35 480.55 391.65 480.55 391.75 480.5 391.85 480.85 391.85 481.1 394.35 483.7 395.05 484.45 395.2 484.4 395.65 484.3 395.65 484.2 Q395.7 484.05 396.1 484.05 396.55 484.05 396.8 484.35 L396.85 484.4 397.45 484.6 397.15 484.7 397.45 484.8 399.1 484.55 Q400.75 484.55 402.8 485.75 L405.2 486.9 Q407.6 486.9 409.0 486.15 L410.45 485.15 411.35 484.75 415.35 484.1 Q416.8 483.95 418.25 482.6 419.6 481.4 419.6 480.65 419.6 477.8 417.75 475.55 415.85 473.25 415.85 470.25 L416.05 467.8 Q416.4 466.85 417.85 464.9 418.7 463.75 421.05 462.0 423.85 459.95 425.35 459.95 427.35 459.95 429.9 460.7 L432.2 461.4 Q437.0 461.4 438.05 459.25 438.6 458.15 438.2 457.05 438.2 456.2 439.6 454.2 L441.4 451.7 442.45 449.15 Q443.0 448.25 443.7 448.15 L443.4 447.5 442.5 445.3 Q442.15 443.95 441.35 443.55 L438.3 442.85 Q436.2 442.55 435.85 442.15 L435.35 441.3 433.85 440.85 433.6 440.55 432.85 440.8 Q431.75 440.7 430.0 439.05 L424.5 436.15 422.1 437.35 420.05 436.8 417.2 436.15 413.5 435.6 413.45 434.65 Q413.3 434.0 412.4 433.1 L411.1 431.55 409.35 432.35 M408.9 445.4 Q410.9 446.1 410.9 446.85 L410.2 448.1 Q409.35 449.05 408.4 449.05 407.0 449.05 405.95 448.2 L403.65 448.3 403.6 447.95 Q403.6 447.65 404.1 446.3 L404.75 444.8 405.25 445.55 Q404.45 446.7 404.45 447.3 L406.35 447.9 407.7 448.35 Q409.0 448.35 409.65 447.8 L410.1 447.05 Q410.1 446.25 408.15 445.8 405.75 445.2 405.25 444.8 406.9 444.7 408.9 445.4 M442.1 455.55 L441.75 457.8 444.35 458.7 446.95 459.4 Q448.15 459.4 448.4 458.95 L448.95 457.95 446.15 457.05 442.7 456.05 442.7 455.8 443.15 455.7 Q444.1 455.7 446.45 456.4 L449.95 457.4 450.0 457.3 450.0 457.65 Q450.0 458.05 449.0 459.05 448.0 460.05 447.6 460.05 446.0 460.05 444.2 459.45 L441.25 458.55 Q441.15 458.85 441.15 458.2 L441.25 457.05 Q441.45 455.9 442.1 455.55 M429.7 452.5 L429.65 452.95 428.95 453.6 Q429.6 454.5 430.35 454.8 L431.7 455.55 432.4 455.8 Q433.2 455.8 434.7 453.95 L430.2 451.55 Q431.55 451.05 435.6 453.85 435.6 454.65 434.55 455.65 433.45 456.65 432.6 456.65 432.0 456.65 430.6 455.85 429.05 455.0 428.1 454.8 L428.1 454.45 Q428.1 453.75 429.2 451.8 L429.5 451.8 429.7 451.95 429.7 452.5 M422.75 451.3 L421.6 452.85 419.6 451.8 Q417.6 450.75 415.85 450.55 L415.85 450.1 Q415.85 449.2 416.4 447.55 L416.9 447.55 416.85 448.4 416.65 449.35 Q416.65 449.9 418.8 450.7 421.15 451.6 421.35 451.85 422.0 451.45 422.9 449.45 L417.2 447.05 Q419.45 445.95 423.75 449.55 L422.75 451.3 M482.35 450.65 L481.5 452.6 Q480.65 454.1 480.2 454.1 L478.4 453.25 476.85 452.05 Q476.95 451.8 477.6 451.8 477.7 450.75 478.15 449.4 L478.95 447.6 479.7 448.4 480.75 449.3 Q481.45 449.65 481.95 450.1 L482.35 450.65 M479.15 449.3 L478.0 452.05 480.0 453.3 480.75 452.25 481.35 450.9 480.4 450.05 479.15 449.3 M477.85 456.4 L477.1 457.8 476.75 457.8 Q476.65 457.05 477.1 456.7 L474.65 455.8 472.9 457.25 Q470.95 458.65 469.65 458.65 L468.9 458.6 Q469.4 459.4 469.35 460.55 473.25 460.25 474.7 458.75 L476.35 456.95 Q476.4 458.85 474.1 460.3 472.35 461.4 471.45 461.4 L468.65 461.3 468.1 458.15 468.4 457.95 468.7 458.3 Q469.6 457.75 472.35 456.8 L473.5 455.45 Q474.1 454.55 474.6 454.45 L475.15 455.3 Q475.65 455.75 477.75 455.95 L477.85 456.4 M454.85 460.25 L455.2 457.8 457.9 457.6 461.15 457.9 461.65 457.95 Q461.85 458.0 461.85 458.4 L460.35 461.3 454.95 461.05 454.85 460.25 M455.45 460.2 L458.35 460.65 460.15 460.4 Q460.4 460.2 460.65 459.05 L460.85 458.95 458.1 458.3 455.6 458.05 455.4 459.45 455.45 460.2 M383.4 429.8 L384.25 428.6 384.75 426.95 385.45 425.25 Q386.2 424.25 387.95 424.95 389.0 425.9 389.25 426.6 L389.35 427.95 388.85 431.95 Q388.85 433.35 388.1 434.15 L386.45 435.25 385.25 435.8 Q383.7 435.8 383.35 435.2 L382.85 434.2 Q381.9 433.5 381.9 432.7 381.9 432.0 382.4 431.1 L383.4 429.8 M382.5 431.4 L383.1 433.4 Q383.8 435.1 384.35 435.1 387.15 435.1 388.3 431.65 L388.85 428.0 Q388.85 426.15 387.7 425.45 386.45 424.7 385.5 426.85 384.95 427.5 384.85 429.3 384.75 430.55 383.6 430.6 382.5 430.65 382.5 431.4 M399.2 445.45 L399.1 446.3 398.45 447.55 Q397.75 448.9 396.75 448.35 395.55 447.65 394.75 448.35 L393.75 449.3 391.75 447.05 391.8 446.95 392.1 446.65 393.05 447.35 393.7 448.3 394.4 447.65 Q395.1 447.3 397.95 446.8 398.45 446.75 398.45 445.6 L398.1 445.05 Q397.55 444.65 396.65 444.65 396.15 444.65 395.05 445.25 393.95 445.85 393.6 445.85 L393.35 445.9 393.25 445.45 Q393.25 444.7 396.25 444.15 399.2 443.6 399.2 445.45 M384.75 456.95 Q386.95 453.6 386.95 451.8 L389.2 452.05 Q390.45 452.55 390.45 453.35 390.45 454.15 389.3 456.4 L387.85 459.05 386.55 458.3 Q385.7 457.5 384.85 457.3 384.75 457.6 384.75 456.95 M386.65 454.85 L385.85 456.8 387.35 458.05 Q388.9 454.6 389.7 453.55 388.9 452.7 387.7 452.55 L386.65 454.85 M390.85 463.25 L390.7 463.35 390.75 463.8 389.15 472.15 389.6 472.05 Q389.7 470.85 390.75 466.8 L391.85 462.75 390.85 463.25 M392.35 462.45 Q392.25 464.3 391.4 467.75 L390.45 471.85 391.9 471.5 392.95 466.55 393.65 461.7 392.35 462.45 M394.4 463.35 L393.55 467.4 392.3 471.4 394.75 470.9 394.65 469.95 Q394.65 468.25 395.15 464.85 395.0 461.35 395.85 460.4 L394.25 461.4 394.4 463.35 M385.25 466.5 L385.25 466.85 384.75 470.45 384.1 474.95 383.7 482.25 Q385.4 485.85 386.35 490.1 L387.3 489.85 387.05 489.05 387.0 487.55 387.25 481.45 387.3 478.4 Q387.4 477.35 387.75 476.75 L386.25 474.65 386.35 476.05 385.85 479.95 385.35 484.2 Q385.2 484.2 385.1 484.55 384.6 484.25 384.6 483.3 384.6 481.85 385.1 478.75 L385.7 474.2 385.35 474.25 Q385.2 474.25 385.2 473.85 L385.2 473.8 385.1 473.0 Q385.1 471.4 385.75 468.6 386.25 466.6 386.75 465.6 L385.25 466.5 M389.25 464.5 Q389.25 466.15 388.5 469.05 L387.6 472.6 388.35 472.35 388.35 472.0 389.2 467.8 390.15 463.65 389.25 464.15 389.25 464.5 M388.55 464.55 Q387.85 464.9 387.3 465.25 L387.35 465.7 Q387.35 466.7 385.75 473.3 L385.8 473.3 Q385.85 472.85 386.1 472.8 L386.25 473.05 386.9 472.8 386.85 472.4 387.7 468.25 388.55 464.55 M400.65 462.55 L400.9 464.35 400.3 468.8 402.25 468.0 402.0 465.3 402.4 465.3 Q402.9 466.75 402.9 467.7 L403.9 467.3 Q403.05 466.15 401.35 462.95 399.85 460.1 398.5 458.55 L398.35 458.7 397.45 464.9 396.65 470.4 397.5 470.0 397.9 468.15 398.6 465.3 399.0 462.55 Q399.2 460.75 399.65 460.55 L399.75 460.45 399.85 460.85 399.0 466.15 398.35 469.65 399.25 469.25 399.55 466.85 400.35 462.55 400.65 462.55 M398.35 458.7 L396.25 460.15 396.3 460.15 396.4 460.55 395.9 465.3 395.25 470.8 396.1 470.6 395.9 469.55 Q395.9 468.3 397.1 463.45 398.05 459.45 398.35 458.7 M376.5 455.15 L375.65 459.9 Q374.75 464.8 374.75 466.1 L375.4 466.85 Q375.4 464.65 376.3 460.65 376.85 458.0 377.3 456.65 L376.5 455.15 M374.7 455.0 L374.1 458.9 Q373.5 463.2 373.6 464.55 L373.6 464.6 373.95 465.05 373.85 464.35 Q373.85 462.65 374.85 458.6 375.6 455.45 376.15 454.4 L375.85 453.85 374.7 455.0 M373.2 456.35 L372.5 459.9 Q372.35 460.9 372.35 462.95 L372.6 463.3 373.75 455.85 373.2 456.35 M371.35 459.65 L371.4 460.65 371.2 461.4 371.6 461.95 371.6 461.35 371.65 458.6 371.35 459.65 M369.65 459.3 L370.45 460.4 370.85 458.5 370.9 458.35 369.65 459.3 M380.1 463.0 L379.55 470.8 378.9 477.95 379.95 477.2 379.9 474.45 Q379.9 471.55 380.15 469.6 380.4 467.95 381.2 464.45 L380.05 462.25 378.75 459.6 378.9 461.55 378.35 465.25 377.6 469.3 378.7 470.4 378.75 469.6 379.45 462.05 379.9 462.05 380.1 463.0 M378.4 458.9 L377.85 457.75 377.05 462.05 Q376.3 466.25 376.2 467.8 L377.0 468.65 377.7 463.5 378.4 458.9 M384.2 467.35 Q384.25 467.6 383.6 467.6 L383.35 467.55 383.1 469.95 382.45 473.45 Q382.05 475.95 382.35 479.6 L383.1 481.05 383.1 479.55 Q383.1 475.65 383.5 472.2 384.05 467.95 385.05 466.65 L384.15 467.3 384.2 467.35 M381.85 465.6 L380.75 471.35 Q380.55 473.2 380.6 476.9 L381.35 478.0 381.35 477.0 Q381.35 475.0 382.1 470.25 L382.7 466.85 381.85 465.6 M376.15 472.75 Q376.5 473.0 376.5 473.55 L375.85 480.15 378.15 478.45 378.6 471.55 378.45 471.5 377.5 472.05 Q377.9 472.65 377.9 473.65 L377.7 475.9 377.15 478.45 376.85 478.45 Q376.75 478.8 376.75 478.15 L377.15 472.2 376.15 472.75 M375.2 479.05 L375.9 472.85 374.0 473.8 374.1 473.8 374.2 473.75 374.25 474.2 373.65 481.8 374.35 481.25 375.3 480.55 375.2 479.05 M369.6 475.8 L369.6 475.85 369.15 481.25 368.55 485.45 368.95 485.2 Q369.1 483.9 369.8 480.35 L370.75 475.25 369.6 475.8 M371.45 475.3 Q371.45 476.95 370.55 481.55 L369.95 484.5 370.35 484.2 371.25 480.05 Q372.2 476.0 372.25 474.6 L371.8 474.8 371.45 475.0 371.45 475.3 M372.7 474.4 L372.85 474.55 373.0 475.05 372.05 480.15 371.15 483.65 373.05 482.25 372.85 481.2 373.3 477.3 373.85 473.9 372.7 474.4 M367.4 476.8 L366.05 477.4 366.1 478.25 365.8 479.9 366.7 481.1 367.1 479.15 367.4 476.8 M367.85 478.55 L367.65 481.35 367.5 482.4 368.05 483.7 368.9 476.1 367.65 476.7 367.85 478.55 M365.35 477.75 L364.35 478.2 365.2 479.15 365.35 477.75 M388.3 477.5 Q388.15 481.85 388.15 489.65 L388.8 489.45 388.75 489.05 389.2 483.45 389.65 479.1 388.3 477.5 M390.3 479.95 L390.4 481.3 390.05 486.0 389.85 489.2 390.65 489.0 Q390.5 488.45 390.5 487.55 390.5 486.45 390.85 484.15 L391.2 481.05 391.1 480.9 390.3 479.95 M394.15 485.1 L394.35 484.8 393.15 483.4 393.4 486.45 393.3 488.3 395.35 487.8 395.2 485.8 394.75 485.25 394.2 485.35 394.15 485.1 M392.9 483.05 L391.8 481.75 391.4 488.8 392.95 488.4 392.8 487.65 392.65 486.45 392.85 483.05 392.9 483.05 M393.15 493.85 Q393.15 494.7 394.15 496.2 395.3 497.95 396.4 497.95 399.9 497.95 403.1 495.85 L405.6 493.7 Q405.6 493.05 404.7 492.65 L402.7 492.05 397.5 490.7 Q396.0 490.05 394.45 491.85 393.65 492.75 393.15 493.85 M393.7 491.45 Q395.3 489.5 397.7 490.05 L403.6 491.45 Q406.2 492.05 406.2 493.8 406.2 494.5 403.2 496.55 400.05 498.65 398.35 498.65 395.15 498.65 393.5 496.4 392.5 494.95 392.5 493.85 392.5 492.85 393.7 491.45 M395.85 487.2 L395.85 487.65 396.25 487.55 Q396.4 487.85 396.4 487.2 L395.8 486.5 395.85 487.2 M465.75 509.3 Q465.55 507.9 465.1 507.05 L463.85 505.95 462.35 504.9 461.25 504.25 Q460.45 503.75 460.4 502.9 458.65 502.75 457.05 504.3 455.7 505.65 455.7 506.55 L456.5 508.1 457.6 509.65 Q458.5 510.4 460.1 510.35 L462.1 510.45 463.6 511.6 466.1 511.55 465.75 509.3 M466.85 512.0 L466.35 512.15 462.4 511.85 Q462.4 511.35 461.25 510.85 L459.1 510.6 457.4 510.35 456.85 510.1 456.35 509.7 455.35 507.85 Q455.1 507.35 455.1 506.4 455.1 505.05 456.6 503.75 458.1 502.45 458.2 501.8 L459.45 502.3 Q461.25 502.6 461.25 502.85 L460.9 503.55 Q462.0 503.75 463.7 505.0 465.5 506.35 465.9 507.55 L466.2 509.75 Q466.3 511.05 466.9 511.65 L466.85 512.0" fill="#000000" fill-opacity="0.15294118" fill-rule="evenodd" stroke="none"/>
  </g>
  <defs>
    <linearGradient gradientTransform="matrix(0.0, -0.4541, 0.4771, 0.0, 259.35, 239.2)" gradientUnits="userSpaceOnUse" id="gradient0" spreadMethod="pad" x1="-819.2" x2="819.2">
      <stop offset="0.5137254901960784" stop-color="#151515"/>
      <stop offset="1.0" stop-color="#404040"/>
    </linearGradient>
    <linearGradient gradientTransform="matrix(0.0, -0.2152, 1.0, 0.0, -904.7, 399.6)" gradientUnits="userSpaceOnUse" id="gradient1" spreadMethod="pad" x1="-819.2" x2="819.2">
      <stop offset="0.0" stop-color="#262626"/>
      <stop offset="1.0" stop-color="#555555"/>
    </linearGradient>
    <linearGradient gradientTransform="matrix(-0.0506, 0.0876, -0.0795, -0.0459, 472.7, 483.4)" gradientUnits="userSpaceOnUse" id="gradient2" spreadMethod="pad" x1="-819.2" x2="819.2">
      <stop offset="0.0" stop-color="#000000"/>
      <stop offset="1.0" stop-color="#555555"/>
    </linearGradient>
  </defs>
</svg>
