<?xml version="1.0" encoding="UTF-8" standalone="no"?>
<svg xmlns:xlink="http://www.w3.org/1999/xlink" height="276.8px" width="467.9px" xmlns="http://www.w3.org/2000/svg">
  <g transform="matrix(1.0, 0.0, 0.0, 1.0, -427.75, -83.2)">
    <path d="M690.25 138.7 Q696.6 143.4 703.65 146.85 708.4 149.3 713.35 150.55 727.0 153.9 740.3 158.25 755.35 163.1 768.15 172.85 L779.95 181.75 796.1 194.5 809.3 193.9 Q819.55 195.2 828.4 200.65 836.85 205.8 842.95 213.4 850.2 222.5 855.45 233.0 861.05 244.15 863.7 256.05 865.8 265.6 866.05 275.3 L866.05 277.65 Q868.75 278.7 870.95 279.85 L866.05 279.0 865.5 285.55 Q863.95 298.05 857.9 308.95 L856.4 311.55 866.3 316.2 866.45 316.5 Q866.95 317.2 865.7 317.2 862.65 317.2 855.0 313.9 849.65 322.25 842.65 329.5 836.45 335.95 829.6 341.6 842.4 349.8 850.4 353.05 L850.05 353.6 849.15 353.8 Q843.65 353.8 834.15 348.0 L827.35 343.4 Q821.35 348.1 814.6 351.7 805.8 356.3 795.95 358.85 787.6 360.85 779.35 359.3 767.65 357.05 760.2 347.4 755.35 341.2 749.9 335.6 747.35 333.05 745.25 330.1 738.9 321.45 731.5 313.3 L726.05 306.9 Q717.9 296.6 709.85 285.95 706.1 281.05 702.75 275.85 L701.0 273.75 699.95 274.3 699.3 274.05 699.5 272.7 698.45 272.2 Q684.85 266.7 670.5 264.7 L667.3 264.95 Q662.6 265.8 658.0 267.3 654.6 268.55 650.8 268.6 641.5 268.7 632.5 266.85 622.8 264.85 612.8 265.5 610.75 265.75 608.75 265.05 L602.65 262.7 596.15 260.7 Q593.2 260.05 590.85 258.2 L585.75 254.4 579.15 254.45 579.55 255.15 576.85 255.25 Q573.85 254.0 571.75 251.4 569.7 248.9 567.2 246.9 562.7 243.1 559.6 237.95 558.45 236.1 557.9 234.0 556.9 229.95 558.45 226.1 550.75 226.65 543.3 224.95 L540.2 224.1 Q537.45 222.9 535.8 220.35 533.6 216.9 532.1 213.0 529.95 207.4 529.0 201.45 528.7 199.4 528.7 197.3 L530.8 194.95 515.45 193.85 Q510.65 192.9 506.65 189.95 502.95 187.1 501.85 182.35 500.3 175.85 500.2 169.25 500.15 164.9 502.55 161.45 503.7 159.75 505.45 158.5 507.15 157.3 508.95 156.2 L507.15 156.45 508.25 156.55 Q499.05 156.8 490.2 154.55 487.35 153.9 486.1 151.8 484.05 148.2 482.5 144.4 479.2 136.1 478.75 127.4 478.55 123.95 479.25 120.8 478.25 120.4 477.55 120.0 476.1 119.2 475.35 118.45 L475.15 118.45 475.1 118.25 Q474.3 117.4 474.3 116.6 L474.35 113.65 Q474.6 112.6 475.15 112.3 475.25 111.8 476.15 110.95 L470.6 108.45 454.75 101.1 448.4 98.2 Q445.85 96.85 441.15 95.45 L437.45 94.0 437.35 93.95 436.75 94.05 Q436.05 94.05 435.55 93.6 434.95 93.15 434.0 93.1 433.55 93.1 431.5 91.95 L430.05 90.75 429.85 90.55 429.5 90.65 Q428.65 90.1 428.55 89.5 L427.75 88.9 428.15 88.3 430.2 87.35 431.95 86.45 433.0 86.45 Q433.95 86.45 434.65 85.7 L434.95 85.6 438.3 84.1 Q440.4 83.3 443.15 83.2 L443.2 83.7 443.05 84.0 443.25 84.05 Q445.05 84.75 448.0 85.0 L450.55 86.0 453.5 87.3 Q457.0 88.6 462.9 91.7 L473.65 96.05 Q479.0 98.15 481.9 99.75 482.6 96.4 484.6 93.55 487.9 88.95 493.8 88.95 499.3 88.9 504.1 91.45 L504.35 91.2 Q504.9 91.05 506.55 91.7 L510.15 92.15 513.4 92.55 513.4 92.45 514.1 92.5 514.05 92.35 Q514.45 92.3 515.5 92.8 517.5 93.35 520.85 94.7 526.65 97.1 526.65 98.45 L526.6 98.75 526.65 98.9 Q534.2 101.1 542.05 101.25 L574.7 99.85 Q589.25 98.05 604.15 97.15 610.85 96.9 617.5 98.5 623.9 100.2 629.7 103.3 638.75 108.25 646.25 115.05 L652.3 120.15 Q655.65 122.85 659.6 123.9 676.35 128.3 690.25 138.7 M677.9 164.8 L677.9 164.45 678.65 164.85 678.9 164.55 Q679.15 164.75 679.45 164.8 L679.65 165.35 688.4 169.9 Q696.5 174.1 702.2 176.55 704.15 177.4 708.0 179.65 711.3 181.55 714.15 182.75 716.35 182.55 718.75 184.5 722.6 187.6 724.15 188.3 L729.05 192.55 734.25 196.85 Q738.6 200.55 743.0 205.8 L750.25 214.6 Q756.8 222.35 767.35 231.8 L767.4 231.85 769.9 233.5 797.35 251.0 Q799.5 251.55 804.75 254.25 809.85 256.85 814.15 259.45 832.15 267.8 836.9 269.3 840.65 270.55 852.55 273.3 859.1 275.0 864.15 276.9 L863.65 270.6 Q861.8 255.95 856.85 241.85 852.6 229.7 845.45 218.75 840.5 211.15 833.1 205.95 817.15 194.7 797.85 196.2 801.75 200.2 804.2 205.25 L803.95 205.85 794.9 197.2 793.9 197.95 Q789.3 201.6 789.3 207.45 787.75 205.0 788.55 202.2 789.75 198.1 793.3 195.7 L789.55 192.7 Q778.3 183.65 766.55 175.0 761.45 171.2 755.95 168.45 748.25 164.45 740.3 161.35 729.5 157.15 718.25 154.5 702.25 150.65 688.8 141.2 L677.35 133.7 Q669.3 128.65 660.15 126.0 654.2 124.25 649.4 120.1 643.55 115.1 637.3 110.45 629.9 104.9 621.25 101.85 618.2 100.85 615.05 100.85 592.7 99.05 570.45 102.3 548.45 105.35 527.0 100.35 L526.65 100.8 526.4 101.0 526.6 101.05 526.8 101.15 Q534.35 103.65 542.35 104.55 L565.65 105.35 566.0 106.05 Q558.95 107.45 551.7 107.1 538.25 105.8 525.3 101.85 514.95 98.75 505.35 93.6 501.7 91.55 497.55 90.9 489.6 89.75 484.6 96.35 486.1 99.4 488.55 101.45 495.45 107.2 504.2 109.35 505.5 109.55 506.85 109.35 512.3 107.9 515.75 102.95 515.25 104.6 514.4 106.0 510.85 112.3 503.5 110.85 491.25 108.25 483.5 98.55 L483.1 100.45 483.45 100.7 483.2 101.3 482.95 101.55 Q482.5 106.2 484.95 110.55 L485.75 110.45 485.25 111.1 489.7 116.3 490.35 116.9 512.4 119.15 Q521.8 119.35 529.65 124.05 529.7 115.55 533.3 107.95 L531.3 121.35 539.3 109.95 538.4 112.7 Q535.45 119.1 530.55 124.25 L529.75 124.15 530.3 124.6 Q536.45 129.55 538.65 137.2 539.2 139.15 539.35 141.0 L541.65 140.95 555.45 142.5 Q562.35 143.15 565.0 143.95 L571.0 146.0 584.9 149.55 599.0 152.9 609.75 153.05 613.25 153.5 Q614.9 154.05 616.25 155.15 L617.85 156.45 Q619.2 156.9 622.3 158.3 626.95 160.3 633.95 160.3 L644.25 159.45 648.65 158.0 649.05 158.2 649.15 159.0 645.15 164.5 Q641.15 170.05 641.15 171.2 641.15 172.7 644.9 174.95 648.85 177.3 652.25 177.3 662.85 177.3 667.3 174.6 670.45 172.7 678.25 165.2 L678.35 165.1 677.9 164.8 M792.3 320.25 Q802.95 323.55 820.55 335.6 L827.65 340.35 832.15 336.6 Q840.3 329.45 847.45 320.85 L853.2 313.1 Q849.25 311.3 844.25 308.75 L826.75 299.35 805.95 289.5 Q797.7 285.6 792.5 282.85 L792.45 282.95 Q788.8 282.7 786.05 280.75 782.45 278.3 780.05 277.55 775.4 276.1 767.55 271.55 L757.65 265.4 Q751.65 261.45 749.4 259.2 744.15 253.95 734.9 246.8 L726.9 240.4 720.4 235.0 Q725.7 250.15 728.8 256.85 734.65 269.3 743.4 279.7 748.85 286.15 765.15 301.85 770.9 307.5 782.15 314.5 L792.05 320.7 792.1 320.7 793.0 321.25 792.3 320.25 M706.7 240.0 L705.7 243.0 706.45 241.5 706.7 240.0 M704.2 247.7 L704.3 247.8 704.2 247.55 704.15 247.75 704.2 247.7 M699.6 271.75 L699.8 270.4 699.35 271.55 699.6 271.75 M513.25 96.15 L513.65 96.3 513.65 96.2 513.25 96.15 M528.0 135.25 Q527.05 133.65 527.05 132.6 527.05 131.85 529.05 130.7 530.6 129.8 532.25 129.95 527.15 124.0 518.4 123.1 L509.2 121.6 505.05 124.25 500.0 126.7 499.55 127.55 Q498.05 127.55 494.8 126.45 L490.8 125.05 483.4 122.45 480.8 121.45 Q478.95 129.7 482.05 138.3 L484.2 144.2 Q484.4 142.75 485.65 140.85 487.35 138.3 490.0 136.5 497.2 131.8 506.6 135.55 508.1 133.3 510.95 132.05 516.75 129.4 522.55 131.7 L513.3 133.1 Q508.9 134.0 506.9 137.8 505.95 139.7 506.75 141.7 L507.35 142.95 Q508.4 141.55 512.15 140.0 L517.15 138.0 Q521.3 137.5 526.5 139.2 528.85 140.0 530.4 140.9 530.1 139.0 529.55 137.85 L528.0 135.25 M524.9 100.45 L525.1 100.5 525.1 100.3 524.9 100.45 M521.65 99.1 L521.6 99.0 520.8 98.75 521.7 99.15 521.65 99.1 M490.15 118.5 L490.2 118.5 490.2 118.45 490.15 118.5 M501.35 120.4 L501.55 120.3 501.6 120.3 501.3 120.25 501.35 120.4 M497.5 121.3 L498.55 121.6 498.95 121.5 497.5 121.3 M510.55 156.0 L510.0 156.6 503.0 161.8 Q501.9 163.35 501.85 165.25 501.75 172.55 503.05 179.95 L503.85 182.95 Q505.9 188.9 511.8 191.25 L513.7 191.9 528.05 193.25 530.75 193.7 563.35 191.5 Q561.6 190.2 558.25 181.55 555.65 175.1 555.65 171.6 L555.7 169.95 556.45 169.8 556.65 170.5 556.7 170.45 559.4 176.7 Q561.3 180.85 563.5 183.45 L563.75 176.2 Q563.75 174.9 564.25 172.65 L565.0 169.05 565.4 169.05 565.35 170.55 565.6 170.1 565.4 169.55 565.75 169.3 566.0 169.35 566.0 169.3 Q565.95 169.05 566.75 169.05 L571.55 171.0 Q576.4 172.95 577.4 172.95 584.35 172.95 587.3 171.8 L589.25 170.3 592.3 167.3 Q596.9 162.85 600.9 161.3 607.05 158.85 612.2 163.3 616.2 166.7 617.3 171.05 620.35 170.15 621.4 167.75 L622.6 164.95 Q620.3 160.2 616.2 156.8 613.55 154.7 610.05 154.7 L578.95 155.9 Q572.35 156.35 565.7 155.6 551.2 153.5 537.25 149.6 536.55 151.1 535.15 151.55 523.2 155.2 510.55 156.0 M559.9 196.65 L552.05 195.95 541.15 196.85 530.05 198.35 Q531.3 208.2 536.25 216.7 538.75 221.0 543.2 223.2 548.05 225.4 553.15 224.2 L553.4 223.6 566.2 222.55 566.15 221.8 Q566.15 221.1 575.1 211.8 585.3 201.15 587.5 198.35 586.35 197.35 583.4 196.65 580.45 195.95 577.5 195.95 L573.85 196.4 570.75 196.85 565.9 197.35 559.9 196.65 M442.7 85.35 L441.75 84.7 441.1 85.0 438.6 86.0 441.4 87.3 Q443.65 88.0 445.4 88.8 L448.65 90.2 Q450.95 91.1 454.45 92.8 L459.9 95.45 Q463.35 97.1 471.85 100.65 478.65 103.7 481.85 106.1 481.55 104.65 481.55 103.1 481.55 102.15 481.7 101.25 L480.65 100.65 Q479.0 99.55 477.95 99.3 L475.25 98.3 472.65 97.2 Q464.15 93.95 462.4 92.95 L457.9 90.85 452.75 88.7 450.45 87.4 Q449.05 86.6 447.9 86.45 L444.5 86.15 Q443.85 86.05 442.7 85.35 M483.55 110.85 L483.75 111.05 483.65 110.85 483.55 110.85 M477.05 118.35 L476.9 118.1 476.7 118.05 477.05 118.35 M619.1 224.7 L624.55 222.25 623.95 221.95 623.05 221.6 Q622.3 221.2 611.3 221.35 L607.55 221.1 Q585.1 221.6 578.0 221.95 L563.0 225.05 562.9 225.75 560.3 226.05 Q559.45 227.8 559.25 229.7 559.0 231.65 559.85 233.2 566.25 244.65 576.75 252.6 L580.85 252.55 Q579.65 251.75 578.9 250.55 577.5 248.5 577.5 245.6 577.5 241.85 580.1 238.8 583.0 235.4 589.4 232.45 594.05 230.3 596.65 229.5 601.35 228.05 609.3 227.0 615.5 226.2 619.1 224.7 M566.35 222.55 L566.85 222.45 566.4 222.35 566.35 222.55" fill="#000000" fill-rule="evenodd" stroke="none"/>
    <path d="M677.9 164.8 L678.35 165.1 678.25 165.2 677.9 164.8 M530.3 124.6 L529.75 124.15 530.55 124.25 530.3 124.6 M526.8 101.15 L526.6 101.05 526.4 101.0 526.65 100.8 527.0 100.35 526.8 101.15 M792.3 320.25 L793.0 321.25 792.1 320.7 792.3 320.25 M521.65 99.1 L521.7 99.15 520.8 98.75 521.6 99.0 521.65 99.1 M524.9 100.45 L525.1 100.3 525.1 100.5 524.9 100.45 M490.15 118.5 L490.2 118.45 490.2 118.5 490.15 118.5 M497.5 121.3 L498.95 121.5 498.55 121.6 497.5 121.3 M501.35 120.4 L501.3 120.25 501.6 120.3 501.55 120.3 501.35 120.4" fill="#4f6c46" fill-rule="evenodd" stroke="none"/>
    <path d="M442.7 85.35 Q443.85 86.05 444.5 86.15 L447.9 86.45 Q449.05 86.6 450.45 87.4 L452.75 88.7 457.9 90.85 462.4 92.95 Q464.15 93.95 472.65 97.2 L475.25 98.3 477.95 99.3 Q479.0 99.55 480.65 100.65 L481.7 101.25 Q481.55 102.15 481.55 103.1 481.55 104.65 481.85 106.1 478.65 103.7 471.85 100.65 463.35 97.1 459.9 95.45 L454.45 92.8 Q450.95 91.1 448.65 90.2 L445.4 88.8 Q443.65 88.0 441.4 87.3 L438.6 86.0 441.1 85.0 441.75 84.7 442.7 85.35" fill="#6a6a6a" fill-rule="evenodd" stroke="none"/>
    <path d="M527.0 100.35 Q548.45 105.35 570.45 102.3 592.7 99.05 615.05 100.85 618.2 100.85 621.25 101.85 629.9 104.9 637.3 110.45 643.55 115.1 649.4 120.1 654.2 124.25 660.15 126.0 669.3 128.65 677.35 133.7 L688.8 141.2 Q702.25 150.65 718.25 154.5 729.5 157.15 740.3 161.35 748.25 164.45 755.95 168.45 761.45 171.2 766.55 175.0 778.3 183.65 789.55 192.7 L793.3 195.7 Q789.75 198.1 788.55 202.2 787.75 205.0 789.3 207.45 789.3 201.6 793.9 197.95 L794.9 197.2 803.95 205.85 804.2 205.25 Q801.75 200.2 797.85 196.2 817.15 194.7 833.1 205.95 840.5 211.15 845.45 218.75 852.6 229.7 856.85 241.85 861.8 255.95 863.65 270.6 L864.15 276.9 Q859.1 275.0 852.55 273.3 840.65 270.55 836.9 269.3 832.15 267.8 814.15 259.45 809.85 256.85 804.75 254.25 799.5 251.55 797.35 251.0 L769.9 233.5 767.4 231.85 767.35 231.8 Q756.8 222.35 750.25 214.6 L743.0 205.8 Q738.6 200.55 734.25 196.85 L729.05 192.55 724.15 188.3 Q722.6 187.6 718.75 184.5 716.35 182.55 714.15 182.75 711.3 181.55 708.0 179.65 704.15 177.4 702.2 176.55 696.5 174.1 688.4 169.9 L679.65 165.35 679.45 164.8 Q679.15 164.75 678.9 164.55 L678.65 164.85 677.9 164.45 677.9 164.8 678.25 165.2 Q670.45 172.7 667.3 174.6 662.85 177.3 652.25 177.3 648.85 177.3 644.9 174.95 641.15 172.7 641.15 171.2 641.15 170.05 645.15 164.5 L649.15 159.0 649.05 158.2 648.65 158.0 644.25 159.45 633.95 160.3 Q626.95 160.3 622.3 158.3 619.2 156.9 617.85 156.45 L616.25 155.15 Q614.9 154.05 613.25 153.5 L609.75 153.05 599.0 152.9 584.9 149.55 571.0 146.0 565.0 143.95 Q562.35 143.15 555.45 142.5 L541.65 140.95 539.35 141.0 Q539.2 139.15 538.65 137.2 536.45 129.55 530.3 124.6 L530.55 124.25 Q535.45 119.1 538.4 112.7 L539.3 109.95 531.3 121.35 533.3 107.95 Q529.7 115.55 529.65 124.05 521.8 119.35 512.4 119.15 L490.35 116.9 489.7 116.3 485.25 111.1 485.75 110.45 484.95 110.55 Q482.5 106.2 482.95 101.55 L483.2 101.3 483.45 100.7 483.1 100.45 483.5 98.55 Q491.25 108.25 503.5 110.85 510.85 112.3 514.4 106.0 515.25 104.6 515.75 102.95 512.3 107.9 506.85 109.35 505.5 109.55 504.2 109.35 495.45 107.2 488.55 101.45 486.1 99.4 484.6 96.35 489.6 89.75 497.55 90.9 501.7 91.55 505.35 93.6 514.95 98.75 525.3 101.85 538.25 105.8 551.7 107.1 558.95 107.45 566.0 106.05 L565.65 105.35 542.35 104.55 Q534.35 103.65 526.8 101.15 L527.0 100.35" fill="url(#gradient0)" fill-rule="evenodd" stroke="none"/>
    <path d="M510.55 156.0 Q523.2 155.2 535.15 151.55 536.55 151.1 537.25 149.6 551.2 153.5 565.7 155.6 572.35 156.35 578.95 155.9 L610.05 154.7 Q613.55 154.7 616.2 156.8 620.3 160.2 622.6 164.95 L621.4 167.75 Q620.35 170.15 617.3 171.05 616.2 166.7 612.2 163.3 607.05 158.85 600.9 161.3 596.9 162.85 592.3 167.3 L589.25 170.3 587.3 171.8 Q584.35 172.95 577.4 172.95 576.4 172.95 571.55 171.0 L566.75 169.05 Q565.95 169.05 566.0 169.3 L566.0 169.35 565.75 169.3 565.4 169.55 565.6 170.1 565.35 170.55 565.4 169.05 565.0 169.05 564.25 172.65 Q563.75 174.9 563.75 176.2 L563.5 183.45 Q561.3 180.85 559.4 176.7 L556.7 170.45 556.65 170.5 556.45 169.8 555.7 169.95 555.65 171.6 Q555.65 175.1 558.25 181.55 561.6 190.2 563.35 191.5 L530.75 193.7 528.05 193.25 513.7 191.9 511.8 191.25 Q505.9 188.9 503.85 182.95 L503.05 179.95 Q501.75 172.55 501.85 165.25 501.9 163.35 503.0 161.8 L510.0 156.6 510.55 156.0" fill="url(#gradient1)" fill-rule="evenodd" stroke="none"/>
    <path d="M528.0 135.25 L529.55 137.85 Q530.1 139.0 530.4 140.9 528.85 140.0 526.5 139.2 521.3 137.5 517.15 138.0 L512.15 140.0 Q508.4 141.55 507.35 142.95 L506.75 141.7 Q505.95 139.7 506.9 137.8 508.9 134.0 513.3 133.1 L522.55 131.7 Q516.75 129.4 510.95 132.05 508.1 133.3 506.6 135.55 497.2 131.8 490.0 136.5 487.35 138.3 485.65 140.85 484.4 142.75 484.2 144.2 L482.05 138.3 Q478.95 129.7 480.8 121.45 L483.4 122.45 490.8 125.05 494.8 126.45 Q498.05 127.55 499.55 127.55 L500.0 126.7 505.05 124.25 509.2 121.6 518.4 123.1 Q527.15 124.0 532.25 129.95 530.6 129.8 529.05 130.7 527.05 131.85 527.05 132.6 527.05 133.65 528.0 135.25" fill="url(#gradient2)" fill-rule="evenodd" stroke="none"/>
    <path d="M559.9 196.65 L565.9 197.35 570.75 196.85 573.85 196.4 577.5 195.95 Q580.45 195.95 583.4 196.65 586.35 197.35 587.5 198.35 585.3 201.15 575.1 211.8 566.15 221.1 566.15 221.8 L566.2 222.55 553.4 223.6 553.15 224.2 Q548.05 225.4 543.2 223.2 538.75 221.0 536.25 216.7 531.3 208.2 530.05 198.35 L541.15 196.85 552.05 195.95 559.9 196.65" fill="url(#gradient3)" fill-rule="evenodd" stroke="none"/>
    <path d="M619.1 224.7 Q615.5 226.2 609.3 227.0 601.35 228.05 596.65 229.5 594.05 230.3 589.4 232.45 583.0 235.4 580.1 238.8 577.5 241.85 577.5 245.6 577.5 248.5 578.9 250.55 579.65 251.75 580.85 252.55 L576.75 252.6 Q566.25 244.65 559.85 233.2 559.0 231.65 559.25 229.7 559.45 227.8 560.3 226.05 L562.9 225.75 563.0 225.05 578.0 221.95 Q585.1 221.6 607.55 221.1 L611.3 221.35 Q622.3 221.2 623.05 221.6 L623.95 221.95 624.55 222.25 619.1 224.7" fill="url(#gradient4)" fill-rule="evenodd" stroke="none"/>
    <path d="M792.05 320.7 L792.3 320.25 792.1 320.7 792.05 320.7" fill="url(#gradient5)" fill-rule="evenodd" stroke="none"/>
    <path d="M792.05 320.7 L782.15 314.5 Q770.9 307.5 765.15 301.85 748.85 286.15 743.4 279.7 734.65 269.3 728.8 256.85 725.7 250.15 720.4 235.0 L726.9 240.4 734.9 246.8 Q744.15 253.95 749.4 259.2 751.65 261.45 757.65 265.4 L767.55 271.55 Q775.4 276.1 780.05 277.55 782.45 278.3 786.05 280.75 788.8 282.7 792.45 282.95 L792.5 282.85 Q797.7 285.6 805.95 289.5 L826.75 299.35 844.25 308.75 Q849.25 311.3 853.2 313.1 L847.45 320.85 Q840.3 329.45 832.15 336.6 L827.65 340.35 820.55 335.6 Q802.95 323.55 792.3 320.25 L792.05 320.7" fill="url(#gradient6)" fill-rule="evenodd" stroke="none"/>
    <path d="M677.65 154.5 L680.4 155.9 Q683.1 157.35 685.05 158.2 694.0 161.95 701.4 166.1 707.6 169.6 714.9 174.7 724.5 181.45 733.9 190.75 739.75 196.55 749.25 207.35 758.1 217.45 765.65 223.8 776.9 233.25 791.45 240.45 800.95 245.15 806.55 246.75 L817.65 249.05 Q819.65 249.45 820.95 250.15 821.95 250.7 824.2 250.85 830.45 251.35 868.7 250.95 880.4 250.8 883.7 251.15 893.65 252.25 895.65 257.05 L895.45 257.95 871.85 258.75 862.7 259.0 864.4 260.3 867.85 262.15 Q868.8 262.85 868.8 263.85 868.8 264.75 867.65 265.6 L866.05 266.95 868.15 270.7 Q869.2 272.6 869.2 273.85 869.2 275.5 868.2 276.3 866.1 277.95 859.65 277.95 856.35 277.95 849.4 274.9 L843.0 271.8 842.0 272.05 Q841.8 272.25 842.0 272.85 L842.25 274.3 Q842.25 275.7 841.25 276.6 840.25 277.45 838.65 277.45 835.15 277.45 826.5 274.7 L817.0 271.55 Q812.1 270.2 806.1 265.95 799.95 261.6 799.95 259.3 799.95 258.85 801.35 256.25 802.6 253.9 803.35 253.45 796.1 251.3 789.75 248.45 767.5 238.35 743.4 212.6 L729.3 197.6 Q721.4 189.6 714.15 183.9 L713.7 183.95 Q710.5 183.95 703.55 180.55 L698.2 177.95 695.65 177.65 692.9 177.3 687.55 175.8 683.05 174.55 676.1 174.8 Q672.5 174.85 670.5 174.1 L669.75 174.7 Q664.95 178.45 663.4 178.45 L660.4 176.95 Q658.05 176.95 654.85 177.95 L650.15 178.95 Q640.7 178.95 640.7 169.5 640.7 166.9 641.2 165.6 L643.65 160.8 638.3 161.2 Q627.8 161.2 622.15 159.9 623.05 162.75 623.45 165.75 L623.05 171.2 Q623.05 172.5 622.3 173.75 621.25 175.45 619.3 175.45 615.65 175.45 614.65 172.4 614.25 168.8 613.8 167.7 613.6 167.15 612.0 165.85 610.35 164.45 608.55 163.55 L604.9 161.5 603.05 160.45 Q601.6 160.45 599.45 162.8 L595.1 168.0 Q588.55 175.55 581.75 175.55 578.5 175.55 573.2 174.25 L567.65 172.8 Q567.0 175.45 567.0 180.7 567.0 181.65 567.65 184.35 567.6 186.7 564.4 187.3 L565.8 189.75 566.7 192.0 566.9 192.6 570.15 193.45 573.5 193.05 Q575.75 192.55 577.4 193.85 578.95 195.1 580.85 196.05 L584.9 192.05 Q588.25 187.95 592.0 188.05 595.65 188.15 595.65 191.6 595.65 194.2 588.75 200.65 L585.1 203.8 Q582.45 207.55 580.45 207.9 L577.6 210.85 577.15 212.65 Q575.9 216.85 573.15 216.85 L571.85 216.8 569.5 219.2 Q572.3 218.15 584.0 219.6 L595.15 219.6 595.35 218.95 Q596.45 214.95 597.15 213.85 600.3 208.75 602.5 212.85 L603.2 214.35 Q605.25 215.3 607.3 218.25 L608.35 217.35 Q608.85 216.85 610.8 216.85 612.7 216.85 614.8 218.85 616.85 220.85 618.3 220.85 L628.9 217.35 Q630.65 217.35 631.75 219.65 L632.45 222.1 Q632.45 223.2 628.9 227.0 L627.15 226.95 Q624.6 227.25 620.7 228.95 L618.25 228.9 615.8 228.5 Q615.45 228.5 614.9 229.35 614.25 230.35 613.45 230.75 L612.45 231.05 Q611.65 231.35 611.05 232.2 608.85 235.2 607.05 235.2 604.4 235.2 602.8 233.15 601.55 230.9 600.9 230.45 599.8 229.65 599.4 228.9 597.25 231.5 594.65 233.0 L591.75 234.75 590.8 235.35 Q581.15 241.65 581.15 246.8 581.15 247.75 582.8 248.85 584.4 249.95 584.4 251.3 584.4 252.0 583.75 252.8 582.95 253.8 581.75 253.8 576.1 253.8 574.65 249.6 574.15 248.25 574.15 246.6 L574.25 245.05 Q574.25 238.4 582.2 232.0 L582.85 231.5 582.8 231.45 581.75 228.15 575.1 229.0 569.75 230.0 568.35 230.0 Q565.0 231.2 560.5 231.2 557.4 231.2 557.4 228.05 557.4 226.3 558.75 225.25 560.05 224.3 563.85 222.75 563.0 222.45 562.65 221.75 562.4 221.3 562.4 220.25 562.4 218.75 568.45 210.0 L569.95 207.85 570.0 207.35 Q570.0 204.75 567.6 203.25 565.2 201.75 560.0 201.1 L548.8 200.3 548.4 200.35 539.95 201.1 Q536.15 201.15 534.65 202.0 533.25 202.85 531.45 202.85 529.15 202.85 528.45 201.9 528.2 201.55 528.2 200.7 528.2 197.95 539.4 195.3 547.05 193.45 558.25 192.05 L558.75 192.0 558.55 191.8 558.2 191.35 Q555.55 187.85 555.15 185.2 L554.5 179.25 554.2 174.85 554.3 173.6 Q553.65 170.5 553.65 169.25 553.65 168.2 554.4 167.55 555.0 167.05 555.7 167.05 557.15 167.05 558.5 169.0 560.15 169.3 560.95 171.4 L561.5 173.5 561.65 171.45 561.95 167.9 Q562.25 165.2 565.75 165.2 567.9 165.2 571.4 166.95 574.9 168.7 580.0 168.7 585.65 168.7 589.7 164.0 591.8 161.55 593.65 157.95 595.3 155.8 597.75 154.4 L593.25 153.65 Q583.45 151.45 577.25 150.7 572.6 150.1 567.85 148.4 L560.75 145.7 555.7 144.0 548.4 144.3 Q545.1 144.85 542.4 144.2 542.1 152.0 539.2 152.0 536.1 152.0 535.95 146.95 535.65 138.2 534.3 134.1 L534.1 133.45 533.95 133.95 Q533.25 135.85 530.8 136.35 531.55 136.65 531.9 137.7 L532.2 139.35 Q532.2 140.7 531.6 141.7 530.65 143.2 528.7 143.2 527.75 143.2 525.55 142.1 L523.3 141.0 Q521.35 141.0 518.7 141.75 L514.65 142.5 512.85 142.0 511.65 140.75 508.65 144.0 508.45 145.5 Q507.9 147.0 506.15 147.0 504.3 147.0 503.4 145.2 502.9 144.15 502.9 143.25 502.9 140.2 504.65 137.65 L502.6 136.95 499.75 135.85 Q492.0 135.85 488.95 141.45 487.2 147.0 486.25 147.0 484.4 147.0 483.4 145.45 482.75 144.45 482.75 143.7 482.75 135.7 488.75 131.55 493.75 128.05 500.65 128.35 506.25 128.8 508.8 130.85 510.0 131.8 510.4 132.95 515.7 130.5 524.05 131.6 L524.4 128.3 Q524.75 126.25 527.7 125.75 L529.2 125.6 528.55 125.1 Q527.45 124.35 524.25 122.75 L520.8 121.2 512.95 119.6 506.65 118.45 502.05 118.9 497.4 119.35 Q491.75 119.35 489.15 117.9 487.25 116.8 487.25 115.2 487.25 113.35 489.9 113.85 L494.9 114.85 507.4 113.7 Q512.15 113.7 520.25 116.0 526.3 117.7 529.7 119.2 L530.0 119.35 530.9 117.05 532.55 112.7 Q533.15 107.5 536.3 108.4 537.35 108.7 538.4 109.65 539.3 110.5 539.3 111.0 539.3 112.45 537.5 114.1 535.2 116.2 534.3 118.1 L533.3 121.25 533.25 121.45 534.75 122.95 537.55 126.75 Q539.8 129.35 541.2 134.1 L541.45 135.0 Q543.5 134.55 546.55 135.05 548.95 135.4 569.9 141.5 L575.1 143.15 Q579.3 144.4 580.9 144.5 591.6 145.15 593.65 145.85 597.45 147.1 599.9 147.5 L615.3 149.2 Q622.0 149.8 624.1 150.75 L642.3 150.0 Q651.55 149.75 664.9 151.75 L671.35 153.05 677.65 154.5 M742.5 243.95 L750.4 251.8 758.4 259.7 762.5 263.8 Q763.2 264.5 765.3 265.15 767.25 265.7 767.9 266.45 L771.4 270.55 Q772.35 271.75 773.8 271.55 775.8 271.3 777.3 271.95 780.45 273.3 783.75 275.3 789.0 278.55 790.2 279.2 L797.5 283.25 Q803.35 286.45 804.15 286.45 L805.4 285.55 Q806.4 284.6 807.65 284.6 808.8 284.6 813.8 287.65 L819.9 291.2 819.65 290.6 Q819.5 290.15 819.5 289.35 L819.9 287.45 Q820.75 285.7 823.15 285.7 825.35 285.7 832.95 291.55 L843.9 300.25 854.0 306.4 Q863.55 312.55 863.55 314.55 863.55 315.45 862.8 316.45 861.75 317.95 859.65 317.95 L858.1 317.5 Q857.2 317.0 856.55 317.0 L854.55 318.95 856.05 322.3 Q857.4 325.5 857.4 326.05 856.8 329.7 854.55 329.7 851.0 329.7 848.1 328.15 843.05 325.4 842.5 325.2 L843.4 327.0 843.9 328.55 Q843.9 329.8 842.7 330.85 841.2 332.25 838.65 332.05 840.4 333.4 840.4 335.45 840.4 337.2 839.15 338.25 L833.75 338.45 Q834.1 340.45 832.95 341.85 831.85 343.2 830.15 343.2 829.1 343.2 826.55 342.2 824.05 341.2 822.65 341.2 819.55 341.2 814.7 339.15 811.55 337.85 808.45 336.05 L803.2 333.05 800.65 332.2 797.7 331.05 Q795.05 329.5 789.55 325.0 L784.4 320.85 781.95 321.0 Q776.85 321.0 768.4 313.15 760.05 304.45 758.15 302.85 754.2 299.6 748.2 293.65 L738.75 284.45 Q730.8 277.0 723.0 267.1 712.9 254.2 712.9 248.25 712.9 247.15 713.9 245.85 715.15 244.2 716.95 244.2 718.55 244.2 719.45 245.0 L719.75 245.25 720.95 246.05 720.2 244.6 Q713.7 232.0 713.7 229.8 713.7 225.65 718.1 226.25 722.15 226.8 724.9 229.95 L725.75 228.8 Q726.7 227.95 728.45 227.95 731.45 227.95 736.25 234.85 L742.5 243.95 M511.55 96.35 Q515.3 98.6 515.3 101.35 515.3 103.05 513.1 106.45 510.7 110.2 508.65 110.2 L506.35 109.9 504.0 109.6 Q500.65 109.6 495.3 107.0 490.5 104.6 489.65 103.3 488.7 101.95 486.0 99.2 484.4 97.55 484.4 96.0 484.4 94.35 486.9 92.95 488.25 92.2 490.75 91.05 493.35 89.55 494.15 89.55 L497.65 89.7 Q498.4 89.95 501.0 91.3 510.45 95.7 511.55 96.35" fill="#000000" fill-opacity="0.15294118" fill-rule="evenodd" stroke="none"/>
  </g>
  <defs>
    <linearGradient gradientTransform="matrix(0.2327, 0.0, 0.0, 0.1136, 673.5, 183.8)" gradientUnits="userSpaceOnUse" id="gradient0" spreadMethod="pad" x1="-819.2" x2="819.2">
      <stop offset="0.0" stop-color="#8f9463"/>
      <stop offset="1.0" stop-color="#303f34"/>
    </linearGradient>
    <linearGradient gradientTransform="matrix(0.0737, 0.0, 0.0, 0.0269, 562.2, 171.65)" gradientUnits="userSpaceOnUse" id="gradient1" spreadMethod="pad" x1="-819.2" x2="819.2">
      <stop offset="0.0" stop-color="#8f9463"/>
      <stop offset="1.0" stop-color="#303f34"/>
    </linearGradient>
    <linearGradient gradientTransform="matrix(0.0318, 0.0, 0.0, 0.0139, 506.15, 132.8)" gradientUnits="userSpaceOnUse" id="gradient2" spreadMethod="pad" x1="-819.2" x2="819.2">
      <stop offset="0.0" stop-color="#8f9463"/>
      <stop offset="1.0" stop-color="#303f34"/>
    </linearGradient>
    <linearGradient gradientTransform="matrix(0.0351, 0.0, 0.0, 0.0175, 558.75, 210.25)" gradientUnits="userSpaceOnUse" id="gradient3" spreadMethod="pad" x1="-819.2" x2="819.2">
      <stop offset="0.0" stop-color="#8f9463"/>
      <stop offset="1.0" stop-color="#303f34"/>
    </linearGradient>
    <linearGradient gradientTransform="matrix(0.0399, 0.0, 0.0, 0.0192, 591.85, 236.85)" gradientUnits="userSpaceOnUse" id="gradient4" spreadMethod="pad" x1="-819.2" x2="819.2">
      <stop offset="0.0" stop-color="#8f9463"/>
      <stop offset="1.0" stop-color="#303f34"/>
    </linearGradient>
    <linearGradient gradientTransform="matrix(0.0811, 0.0, 0.0, 0.0643, 786.8, 287.65)" gradientUnits="userSpaceOnUse" id="gradient5" spreadMethod="pad" x1="-819.2" x2="819.2">
      <stop offset="0.0" stop-color="#8f9463"/>
      <stop offset="1.0" stop-color="#303f34"/>
    </linearGradient>
    <linearGradient gradientTransform="matrix(0.0769, 0.0535, -0.0146, 0.021, 738.8, 256.65)" gradientUnits="userSpaceOnUse" id="gradient6" spreadMethod="pad" x1="-819.2" x2="819.2">
      <stop offset="0.0" stop-color="#8f9463"/>
      <stop offset="1.0" stop-color="#303f34"/>
    </linearGradient>
  </defs>
</svg>
