<?xml version="1.0" encoding="UTF-8" standalone="no"?>
<svg xmlns:xlink="http://www.w3.org/1999/xlink" height="278.4px" width="418.05px" xmlns="http://www.w3.org/2000/svg">
  <g transform="matrix(1.0, 0.0, 0.0, 1.0, 0.0, 0.0)">
    <path d="M379.45 143.8 Q374.3 141.1 369.35 138.1 345.9 123.7 324.8 105.9 322.2 103.65 319.25 101.9 300.45 91.15 281.25 81.2 267.5 74.05 255.25 64.85 251.95 62.35 248.3 60.3 L216.6 41.6 209.5 36.95 Q190.6 23.95 169.5 14.8 166.05 13.25 163.0 11.1 157.95 7.5 152.5 5.05 144.15 1.25 134.7 2.75 125.05 4.35 115.9 7.65 113.05 8.65 110.05 9.25 L103.85 9.5 Q95.2 10.45 86.75 13.7 L83.75 14.9 Q85.5 15.95 85.5 16.75 85.5 17.9 83.9 21.4 88.4 22.85 92.7 25.25 L93.7 17.85 95.35 17.95 Q97.75 20.85 99.0 24.2 100.15 27.15 102.25 29.75 104.9 33.05 109.1 32.7 L113.6 24.2 Q114.3 22.9 115.65 22.3 L118.6 21.9 Q117.2 27.4 116.25 32.7 115.95 34.35 116.65 35.9 L117.7 37.9 121.55 37.65 122.55 37.1 124.25 35.65 Q126.15 38.0 127.7 40.8 128.65 42.5 130.4 43.15 132.3 43.95 134.4 43.9 131.4 46.0 127.75 46.6 L123.35 46.7 Q120.35 49.1 116.7 46.85 109.25 42.25 102.85 36.1 91.25 24.85 75.65 21.85 L66.25 21.55 Q60.85 22.25 55.8 25.0 54.4 25.85 53.4 27.15 49.9 31.85 50.2 37.95 50.55 45.05 56.6 49.55 59.9 52.05 63.15 54.15 L70.15 57.9 70.15 57.8 70.55 57.8 Q85.85 64.4 97.3 76.4 L101.4 80.15 Q104.75 82.8 107.4 86.3 108.6 87.9 110.15 89.25 117.7 95.75 126.75 100.05 133.75 103.3 140.45 107.1 148.65 111.9 157.25 115.55 169.95 121.05 183.7 122.2 212.6 123.15 239.9 131.85 248.2 134.55 256.15 137.65 292.5 151.9 326.35 171.2 338.15 178.0 350.05 184.35 361.35 190.35 372.35 196.9 L375.95 199.35 386.1 205.9 Q388.8 207.55 390.5 210.2 390.95 183.3 400.8 158.35 L397.8 155.65 396.7 154.9 396.0 154.8 Q388.35 148.6 379.45 143.8 M332.0 108.45 Q341.85 116.75 352.35 124.2 361.65 130.85 371.8 136.35 383.45 142.7 394.7 150.05 397.4 150.35 399.25 152.7 L401.95 155.75 404.7 151.15 405.65 149.4 Q410.45 140.2 418.05 133.5 407.65 148.65 401.25 165.8 392.9 188.25 393.0 212.15 396.1 213.6 398.6 215.95 399.7 217.05 399.4 218.3 398.15 219.1 396.4 218.0 L392.85 215.25 Q393.0 225.1 391.9 234.95 390.15 251.15 378.1 262.1 367.65 271.55 354.35 276.7 344.65 280.45 335.55 275.95 334.1 275.3 333.05 273.9 L322.2 258.7 318.7 253.15 Q310.85 239.15 304.05 224.6 303.15 222.7 301.85 221.15 298.75 217.4 296.65 212.8 295.3 209.8 293.2 207.15 286.65 199.0 279.5 191.5 273.25 184.9 267.65 177.95 260.85 169.55 251.0 165.25 239.1 167.8 227.55 163.45 L225.35 162.7 Q219.2 161.25 212.8 160.65 210.35 160.15 208.45 158.2 L205.9 155.35 Q202.25 150.6 195.85 150.4 L195.4 151.2 Q191.35 156.85 184.05 155.75 L183.65 156.2 170.2 151.8 Q167.55 152.35 164.7 151.35 156.05 148.3 148.0 143.85 145.65 142.5 142.95 141.65 L135.7 140.0 Q132.9 139.4 130.4 138.45 124.2 136.4 120.95 130.95 117.5 130.2 114.3 129.0 112.4 128.2 111.05 126.9 L105.25 120.95 Q102.7 118.2 101.1 114.8 98.7 109.6 94.1 106.15 90.15 103.2 87.15 99.2 83.25 94.1 85.85 88.5 73.55 82.25 61.5 75.5 58.85 74.0 58.05 71.3 56.15 64.55 56.15 57.85 47.95 53.65 46.65 53.15 38.2 49.95 35.85 48.8 L32.55 47.0 Q29.0 44.75 29.0 42.75 29.0 41.3 31.9 33.95 L32.55 32.4 33.35 30.5 32.55 30.2 Q18.5 25.1 14.15 22.8 L6.45 18.45 Q0.0 14.7 0.0 14.05 0.0 12.7 1.6 9.5 L3.75 5.25 4.6 2.7 Q5.1 1.55 6.5 1.0 8.6 0.15 10.4 1.35 13.1 3.2 14.0 3.4 18.35 5.4 28.75 9.35 L32.55 10.85 Q36.95 12.6 40.3 14.2 L41.5 10.65 Q43.1 5.25 46.65 2.75 49.4 0.75 53.85 2.55 L61.65 5.65 Q66.4 8.15 77.8 12.25 79.55 12.9 80.95 13.5 L85.7 11.7 Q95.2 8.35 105.15 7.2 115.65 5.65 126.0 2.9 134.05 0.95 142.25 0.0 L145.3 0.55 Q155.4 3.85 164.4 9.7 167.6 11.8 171.25 13.5 190.7 22.5 209.1 34.1 228.8 46.45 248.95 58.05 L252.65 60.5 Q275.5 77.6 301.6 89.35 318.15 96.85 332.0 108.45 M400.15 252.85 L399.8 252.35 Q399.65 251.95 399.65 251.15 399.65 250.35 400.05 250.15 L400.5 250.1 Q400.25 250.65 400.3 251.45 400.35 252.2 400.65 252.75 L400.15 252.85 M178.2 152.8 L176.6 150.4 170.85 139.3 157.35 133.15 Q157.55 136.35 155.1 138.25 152.25 140.5 148.45 140.25 L145.25 139.65 Q134.0 135.85 122.95 131.4 131.0 138.3 141.3 139.75 143.05 140.0 144.7 140.65 149.0 142.35 153.25 144.4 157.4 146.5 161.85 147.45 170.3 148.95 178.2 152.8 M83.0 17.3 L80.55 16.45 79.9 15.9 77.95 15.15 Q76.7 14.65 76.0 14.65 L63.9 9.7 Q50.85 4.25 50.15 4.25 47.65 4.25 45.5 7.8 48.2 6.55 52.0 7.0 65.75 12.0 68.65 13.15 L75.5 16.0 75.7 15.9 76.55 16.5 Q78.05 17.5 78.85 17.55 L82.3 19.25 83.0 17.3 M96.15 40.45 L96.2 41.05 93.15 44.35 Q89.65 48.0 88.05 51.15 87.5 52.25 86.1 55.95 84.8 59.35 83.9 60.9 L82.9 60.9 82.8 55.1 Q82.8 51.0 82.95 49.85 83.35 47.05 84.9 44.8 L85.4 44.95 85.55 45.75 85.1 47.85 84.05 50.05 84.05 56.4 88.25 48.1 Q91.6 42.55 96.05 40.75 L96.15 40.45 M108.85 97.55 Q106.95 95.75 104.3 95.25 100.4 94.55 97.85 97.45 97.2 98.2 96.85 99.15 95.8 102.25 96.7 105.5 101.55 109.35 103.95 114.8 106.5 120.5 111.35 124.45 115.2 127.6 119.9 128.75 L120.15 128.4 144.85 137.8 140.4 133.05 Q133.9 125.7 129.5 116.75 L128.75 115.75 123.05 110.55 108.85 97.55 M68.4 23.4 Q70.5 24.45 71.65 25.6 L73.5 28.0 Q74.75 29.95 75.65 30.9 75.65 31.15 74.9 31.25 L71.05 27.6 Q67.9 24.55 65.9 24.35 65.75 25.05 65.75 23.8 65.75 22.9 66.45 22.85 67.1 22.75 68.4 23.4 M77.9 19.85 L77.15 19.6 77.0 19.7 77.9 19.85 M57.25 45.55 Q58.15 45.55 60.15 46.3 63.0 47.3 67.5 48.15 L67.65 48.55 Q68.15 48.9 66.9 48.9 60.7 48.9 59.3 47.9 58.5 46.45 57.25 45.55 M26.65 10.65 Q17.75 8.05 16.0 7.15 9.8 3.75 8.65 3.75 7.05 3.75 5.9 6.2 L5.4 7.75 Q12.9 11.7 17.95 13.65 22.15 15.25 32.55 19.9 L37.0 21.9 38.5 18.45 39.6 15.95 33.85 13.75 32.55 13.2 26.65 10.65 M68.5 63.05 Q66.3 63.05 58.2 58.9 L57.75 58.65 Q57.45 66.0 61.8 71.75 62.6 72.85 63.8 73.6 L79.45 83.4 Q83.0 82.7 83.0 79.1 83.05 75.25 80.75 72.35 75.85 66.15 69.0 63.0 L68.5 63.05" fill="#000000" fill-rule="evenodd" stroke="none"/>
    <path d="M77.9 19.85 L77.0 19.7 77.15 19.6 77.9 19.85" fill="#4f6c46" fill-rule="evenodd" stroke="none"/>
    <path d="M83.0 17.3 L82.3 19.25 78.85 17.55 Q78.05 17.5 76.55 16.5 L75.7 15.9 75.5 16.0 68.65 13.15 Q65.75 12.0 52.0 7.0 48.2 6.55 45.5 7.8 47.65 4.25 50.15 4.25 50.85 4.25 63.9 9.7 L76.0 14.65 Q76.7 14.65 77.95 15.15 L79.9 15.9 80.55 16.45 83.0 17.3 M26.65 10.65 L32.55 13.2 33.85 13.75 39.6 15.95 38.5 18.45 37.0 21.9 32.55 19.9 Q22.15 15.25 17.95 13.65 12.9 11.7 5.4 7.75 L5.9 6.2 Q7.05 3.75 8.65 3.75 9.8 3.75 16.0 7.15 17.75 8.05 26.65 10.65" fill="#6a6a6a" fill-rule="evenodd" stroke="none"/>
    <path d="M379.45 143.8 Q388.35 148.6 396.0 154.8 L396.7 154.9 397.8 155.65 400.8 158.35 Q390.95 183.3 390.5 210.2 388.8 207.55 386.1 205.9 L375.95 199.35 372.35 196.9 Q361.35 190.35 350.05 184.35 338.15 178.0 326.35 171.2 292.5 151.9 256.15 137.65 248.2 134.55 239.9 131.85 212.6 123.15 183.7 122.2 169.95 121.05 157.25 115.55 148.65 111.9 140.45 107.1 133.75 103.3 126.75 100.05 117.7 95.75 110.15 89.25 108.6 87.9 107.4 86.3 104.75 82.8 101.4 80.15 L97.3 76.4 Q85.85 64.4 70.55 57.8 L70.15 57.8 70.15 57.9 63.15 54.15 Q59.9 52.05 56.6 49.55 50.55 45.05 50.2 37.95 49.9 31.85 53.4 27.15 54.4 25.85 55.8 25.0 60.85 22.25 66.25 21.55 L75.65 21.85 Q91.25 24.85 102.85 36.1 109.25 42.25 116.7 46.85 120.35 49.1 123.35 46.7 L127.75 46.6 Q131.4 46.0 134.4 43.9 132.3 43.95 130.4 43.15 128.65 42.5 127.7 40.8 126.15 38.0 124.25 35.65 L122.55 37.1 121.55 37.65 117.7 37.9 116.65 35.9 Q115.95 34.35 116.25 32.7 117.2 27.4 118.6 21.9 L115.65 22.3 Q114.3 22.9 113.6 24.2 L109.1 32.7 Q104.9 33.05 102.25 29.75 100.15 27.15 99.0 24.2 97.75 20.85 95.35 17.95 L93.7 17.85 92.7 25.25 Q88.4 22.85 83.9 21.4 85.5 17.9 85.5 16.75 85.5 15.95 83.75 14.9 L86.75 13.7 Q95.2 10.45 103.85 9.5 L110.05 9.25 Q113.05 8.65 115.9 7.65 125.05 4.35 134.7 2.75 144.15 1.25 152.5 5.05 157.95 7.5 163.0 11.1 166.05 13.25 169.5 14.8 190.6 23.95 209.5 36.95 L216.6 41.6 248.3 60.3 Q251.95 62.35 255.25 64.85 267.5 74.05 281.25 81.2 300.45 91.15 319.25 101.9 322.2 103.65 324.8 105.9 345.9 123.7 369.35 138.1 374.3 141.1 379.45 143.8 M96.15 40.45 L96.05 40.75 Q91.6 42.55 88.25 48.1 L84.05 56.4 84.05 50.05 85.1 47.85 85.55 45.75 85.4 44.95 84.9 44.8 Q83.35 47.05 82.95 49.85 82.8 51.0 82.8 55.1 L82.9 60.9 83.9 60.9 Q84.8 59.35 86.1 55.95 87.5 52.25 88.05 51.15 89.65 48.0 93.15 44.35 L96.2 41.05 96.15 40.45 M68.4 23.4 Q67.1 22.75 66.45 22.85 65.75 22.9 65.75 23.8 65.75 25.05 65.9 24.35 67.9 24.55 71.05 27.6 L74.9 31.25 Q75.65 31.15 75.65 30.9 74.75 29.95 73.5 28.0 L71.65 25.6 Q70.5 24.45 68.4 23.4 M57.25 45.55 Q58.5 46.45 59.3 47.9 60.7 48.9 66.9 48.9 68.15 48.9 67.65 48.55 L67.5 48.15 Q63.0 47.3 60.15 46.3 58.15 45.55 57.25 45.55" fill="url(#gradient0)" fill-rule="evenodd" stroke="none"/>
    <path d="M68.5 63.05 L69.0 63.0 Q75.85 66.15 80.75 72.35 83.05 75.25 83.0 79.1 83.0 82.7 79.45 83.4 L63.8 73.6 Q62.6 72.85 61.8 71.75 57.45 66.0 57.75 58.65 L58.2 58.9 Q66.3 63.05 68.5 63.05" fill="url(#gradient1)" fill-rule="evenodd" stroke="none"/>
    <path d="M108.85 97.55 L123.05 110.55 128.75 115.75 129.5 116.75 Q133.9 125.7 140.4 133.05 L144.85 137.8 120.15 128.4 119.9 128.75 Q115.2 127.6 111.35 124.45 106.5 120.5 103.95 114.8 101.55 109.35 96.7 105.5 95.8 102.25 96.85 99.15 97.2 98.2 97.85 97.45 100.4 94.55 104.3 95.25 106.95 95.75 108.85 97.55" fill="url(#gradient2)" fill-rule="evenodd" stroke="none"/>
    <path d="M178.2 152.8 Q170.3 148.95 161.85 147.45 157.4 146.5 153.25 144.4 149.0 142.35 144.7 140.65 143.05 140.0 141.3 139.75 131.0 138.3 122.95 131.4 134.0 135.85 145.25 139.65 L148.45 140.25 Q152.25 140.5 155.1 138.25 157.55 136.35 157.35 133.15 L170.85 139.3 176.6 150.4 178.2 152.8" fill="url(#gradient3)" fill-rule="evenodd" stroke="none"/>
    <path d="M352.2 159.35 Q374.2 169.0 391.15 181.0 405.4 191.1 416.8 203.4 L416.7 203.95 Q416.55 204.25 415.8 204.25 407.45 201.4 405.15 199.5 L398.15 194.25 395.1 191.85 Q396.0 193.5 396.15 194.85 L397.0 200.15 397.65 204.65 Q397.65 206.65 393.65 209.8 390.0 212.65 388.8 212.65 384.1 212.65 378.9 208.25 374.15 203.45 373.1 202.75 L356.95 193.0 Q338.3 181.55 323.9 173.45 312.8 167.25 288.55 155.85 286.7 154.95 280.0 152.5 274.55 150.5 269.45 147.6 264.95 145.0 260.85 143.6 254.8 141.5 248.2 141.15 242.35 141.6 240.1 139.8 238.9 138.85 238.9 137.35 238.9 135.55 240.55 134.2 241.45 133.45 242.7 133.0 L199.0 126.75 Q172.3 122.75 162.95 119.5 150.75 115.25 142.05 110.7 136.85 107.95 125.55 100.85 L120.75 97.45 Q121.3 98.65 121.3 99.5 L121.2 100.35 Q121.05 100.5 121.05 100.75 L120.75 100.9 119.85 101.0 Q117.5 101.0 114.05 98.05 L110.9 95.1 Q108.7 92.8 104.2 87.1 103.35 86.0 99.55 83.9 95.8 81.85 94.95 80.7 91.3 75.85 91.3 73.95 L91.35 73.25 Q86.85 70.35 83.3 68.7 L79.65 66.95 76.75 65.5 77.05 66.2 77.3 66.95 77.95 67.3 79.3 67.6 Q80.1 67.9 82.65 73.25 85.2 78.55 85.2 79.75 85.2 80.55 84.05 82.95 82.75 85.6 81.95 85.6 80.55 85.6 76.55 83.4 72.45 80.95 71.55 80.45 L67.3 78.85 Q65.15 78.05 65.15 76.65 65.15 75.9 68.6 74.7 72.05 73.5 72.05 70.75 72.05 68.7 70.3 65.15 L67.4 59.7 68.05 59.65 68.1 59.65 68.05 59.45 Q68.05 55.6 83.3 63.4 92.5 68.15 103.45 74.95 113.85 86.25 131.3 97.5 141.3 104.0 147.45 107.05 155.2 110.85 165.55 113.9 172.9 116.05 205.5 121.05 L259.2 128.9 Q266.15 129.85 275.3 132.6 L287.85 136.4 300.2 139.35 Q305.85 140.8 308.8 141.85 320.35 146.1 328.1 149.2 339.3 153.65 352.2 159.35 M175.7 146.1 Q179.2 147.55 182.1 149.25 186.1 151.65 186.1 153.2 186.1 154.1 185.5 154.7 184.7 155.45 183.2 155.45 180.0 155.45 170.35 151.2 161.25 146.95 160.9 146.95 160.3 146.95 159.4 147.6 158.55 148.2 157.9 148.2 155.85 148.2 152.1 146.05 148.6 143.8 148.3 143.65 146.8 142.9 143.6 141.8 L138.9 140.15 Q133.25 138.55 129.75 137.35 123.3 135.15 123.3 132.7 123.3 131.6 123.45 130.6 L117.55 129.35 Q114.7 128.6 113.85 127.85 L112.35 126.15 110.25 125.25 Q108.6 124.7 107.95 124.15 106.95 123.35 106.25 121.2 105.7 119.45 105.7 118.35 105.7 117.85 103.25 115.1 L100.1 111.75 100.1 111.4 100.0 111.2 100.8 111.0 Q102.5 111.0 105.1 114.4 107.75 117.75 111.35 117.75 114.0 117.75 115.8 115.5 117.1 113.9 117.1 113.1 117.1 110.35 113.15 104.7 109.2 99.0 109.2 98.65 109.2 94.2 113.85 98.25 L115.25 99.6 Q120.0 104.4 123.8 110.4 L124.45 110.0 Q125.1 109.6 125.85 109.6 127.6 109.6 130.75 113.15 L134.55 117.75 137.55 121.45 Q139.55 124.3 139.55 125.65 L139.2 127.25 138.4 128.65 144.1 132.45 146.7 134.4 Q147.25 133.65 148.9 133.65 149.55 133.65 150.4 134.2 151.45 134.85 152.65 135.15 L152.2 134.4 Q152.05 133.95 152.05 133.1 152.05 132.3 152.6 131.8 153.05 131.4 154.9 130.35 L155.75 128.95 Q156.3 127.85 157.65 127.65 161.25 127.0 163.4 129.3 L166.45 132.9 Q168.8 136.0 173.45 139.65 175.35 141.0 175.95 142.75 176.6 144.45 175.7 146.1 M133.15 40.5 Q134.15 41.3 134.15 42.45 134.15 43.5 132.8 44.9 131.5 46.15 130.8 46.15 126.05 46.15 124.0 43.05 123.65 42.5 122.6 39.25 121.55 38.95 120.0 39.9 118.2 41.0 116.6 41.0 114.05 41.0 113.35 39.9 112.95 39.25 113.2 37.5 113.45 35.7 113.2 35.0 112.65 33.8 110.35 33.65 L108.7 33.75 106.45 33.4 104.1 31.5 Q101.1 29.35 100.2 29.05 L97.35 29.0 Q96.0 29.0 92.2 27.25 L88.3 25.25 Q86.95 24.35 84.3 23.1 83.45 22.65 83.45 21.65 83.45 19.9 90.85 16.7 94.65 15.1 99.85 13.25 110.4 14.15 116.55 16.9 119.6 18.25 124.55 22.1 127.15 24.15 128.2 27.3 129.1 30.05 128.65 33.0 128.05 37.15 131.0 39.1 L133.15 40.5 M99.7 37.05 L99.85 38.0 Q99.85 38.8 95.55 42.8 L90.45 47.75 87.5 53.15 84.85 57.65 Q83.35 55.85 83.35 52.9 83.35 51.5 84.2 48.0 84.45 46.45 84.85 45.65 85.6 44.2 87.6 43.5 L92.95 39.4 Q97.4 35.95 99.55 36.75 L99.7 37.05 M49.4 39.7 Q49.4 34.8 50.1 32.6 51.4 28.45 55.8 25.25 L57.9 24.0 Q58.4 22.9 61.85 22.7 66.2 22.4 68.95 24.85 L69.0 24.65 69.05 25.4 69.05 25.5 71.2 26.8 Q73.45 28.35 73.45 30.2 L75.05 28.65 75.3 28.85 75.4 29.75 Q75.4 30.9 73.8 33.1 71.8 35.95 70.8 38.75 L69.2 43.3 67.05 47.85 66.7 47.85 66.7 47.9 66.65 48.2 Q66.55 48.5 65.8 48.5 64.45 48.5 63.95 48.05 L62.9 47.0 63.05 47.75 Q63.05 48.15 62.3 48.15 58.05 48.15 53.45 44.4 49.4 41.15 49.4 39.7" fill="#000000" fill-opacity="0.15294118" fill-rule="evenodd" stroke="none"/>
  </g>
  <defs>
    <linearGradient gradientTransform="matrix(0.214, 0.0, 0.0, 0.1269, 225.5, 106.25)" gradientUnits="userSpaceOnUse" id="gradient0" spreadMethod="pad" x1="-819.2" x2="819.2">
      <stop offset="0.0" stop-color="#8f9463"/>
      <stop offset="1.0" stop-color="#303f34"/>
    </linearGradient>
    <linearGradient gradientTransform="matrix(0.0154, 0.0, 0.0, 0.0151, 70.35, 71.0)" gradientUnits="userSpaceOnUse" id="gradient1" spreadMethod="pad" x1="-819.2" x2="819.2">
      <stop offset="0.0" stop-color="#8f9463"/>
      <stop offset="1.0" stop-color="#303f34"/>
    </linearGradient>
    <linearGradient gradientTransform="matrix(0.0296, 0.0, 0.0, 0.0261, 120.55, 116.45)" gradientUnits="userSpaceOnUse" id="gradient2" spreadMethod="pad" x1="-819.2" x2="819.2">
      <stop offset="0.0" stop-color="#8f9463"/>
      <stop offset="1.0" stop-color="#303f34"/>
    </linearGradient>
    <linearGradient gradientTransform="matrix(0.0337, 0.0, 0.0, 0.0131, 150.55, 142.1)" gradientUnits="userSpaceOnUse" id="gradient3" spreadMethod="pad" x1="-819.2" x2="819.2">
      <stop offset="0.0" stop-color="#8f9463"/>
      <stop offset="1.0" stop-color="#303f34"/>
    </linearGradient>
  </defs>
</svg>
