<?xml version="1.0" encoding="UTF-8" standalone="no"?>
<svg xmlns:xlink="http://www.w3.org/1999/xlink" height="227.7px" width="687.05px" xmlns="http://www.w3.org/2000/svg">
  <g transform="matrix(1.0, 0.0, 0.0, 1.0, 28.6, 168.7)">
    <path d="M652.65 -164.95 L653.5 -164.7 654.15 -164.3 654.4 -163.95 654.4 -163.55 654.4 -163.2 654.15 -162.8 653.65 -162.45 653.35 -162.25 653.35 -116.6 653.55 -116.65 654.2 -116.8 654.2 -116.9 656.45 -116.8 656.95 -116.4 657.95 -116.05 658.45 -115.65 658.45 -115.3 658.05 -115.05 657.7 -114.9 657.2 -114.8 656.3 -114.9 654.2 -114.9 654.05 -114.65 653.35 -114.55 653.35 59.0 -28.0 59.0 -28.0 -163.95 -27.5 -163.95 -28.25 -164.2 -28.6 -164.55 -28.6 -164.95 -28.6 -165.3 -28.5 -165.7 -28.1 -166.05 -27.75 -166.45 -27.25 -166.8 -26.5 -166.95 -26.5 -167.05 -26.0 -167.05 -25.35 -166.8 -24.85 -166.45 -24.5 -166.05 -24.1 -165.7 -23.85 -165.45 -19.75 -165.55 -19.0 -165.8 -16.5 -165.8 -15.85 -165.55 -12.0 -165.3 -11.35 -165.05 -11.0 -164.8 -9.85 -164.95 -9.5 -165.2 -9.0 -165.3 -7.25 -165.55 -6.5 -165.8 -5.0 -165.8 -4.35 -165.55 -3.85 -165.2 -3.6 -164.95 -2.5 -164.8 -1.85 -164.55 -1.25 -164.55 -0.5 -164.8 1.25 -165.05 2.0 -165.3 3.25 -165.55 4.0 -165.8 5.5 -165.8 6.5 -165.8 8.0 -165.8 Q8.35 -165.7 8.65 -165.55 L9.0 -165.3 9.65 -165.05 10.25 -165.05 11.0 -165.3 11.75 -165.55 12.5 -165.8 15.0 -165.8 15.65 -165.55 18.0 -165.3 18.5 -165.3 23.0 -165.3 24.0 -165.3 25.0 -165.3 25.65 -165.05 26.0 -164.8 26.65 -164.55 28.8 -164.55 29.55 -164.8 34.05 -164.8 34.65 -164.95 35.05 -165.2 35.55 -165.3 37.55 -165.3 38.15 -165.05 40.05 -164.8 40.65 -164.55 41.05 -164.3 41.65 -164.45 42.05 -164.8 42.3 -165.05 42.55 -165.2 43.05 -165.3 46.05 -165.3 46.65 -165.05 47.05 -164.8 47.65 -164.55 52.3 -164.55 53.15 -164.95 53.55 -165.2 54.05 -165.3 54.55 -165.3 55.15 -165.05 55.65 -164.7 55.8 -164.3 56.05 -164.2 56.65 -164.45 57.05 -164.7 57.65 -164.95 58.05 -165.2 58.65 -165.45 59.05 -165.8 59.3 -166.05 59.55 -166.2 60.05 -166.3 60.55 -166.3 61.15 -166.05 61.65 -165.7 61.8 -165.45 62.05 -165.3 62.65 -165.05 63.3 -165.05 64.05 -165.3 65.05 -165.3 65.65 -165.05 67.8 -165.05 68.55 -165.3 70.55 -165.3 71.15 -165.05 72.8 -165.05 73.15 -165.45 73.55 -165.8 73.8 -166.05 74.05 -166.2 74.55 -166.3 76.55 -166.3 77.15 -166.45 77.55 -166.7 78.05 -166.8 78.55 -166.8 79.15 -166.55 79.55 -166.2 79.8 -165.95 80.55 -165.8 81.15 -165.55 81.55 -165.2 81.8 -164.8 81.8 -164.45 Q81.9 -164.35 82.05 -164.3 L82.8 -164.55 83.15 -164.95 83.55 -165.2 84.05 -165.3 84.8 -165.55 85.65 -165.95 86.05 -166.3 86.3 -166.55 86.55 -166.7 87.05 -166.8 87.55 -166.8 88.15 -166.55 88.55 -166.3 89.15 -166.05 89.65 -165.7 89.9 -165.45 90.05 -165.3 90.65 -165.45 91.05 -165.7 91.55 -165.8 92.55 -165.8 93.05 -165.7 93.55 -165.7 94.05 -165.8 99.05 -165.8 99.65 -165.55 101.55 -165.3 102.15 -165.05 102.55 -164.8 103.05 -164.8 105.05 -164.8 105.65 -164.95 106.05 -165.2 106.55 -165.3 111.3 -165.55 112.05 -165.8 113.05 -165.8 113.65 -165.55 115.55 -165.3 116.05 -165.2 116.55 -165.2 117.05 -165.3 122.55 -165.3 123.15 -165.05 123.8 -165.05 124.55 -165.3 127.05 -165.3 127.65 -165.05 132.3 -165.05 133.05 -165.3 134.55 -165.3 135.2 -165.05 135.7 -164.7 135.95 -164.45 136.8 -164.55 137.55 -164.8 138.55 -164.8 139.2 -164.55 140.3 -164.55 141.05 -164.8 141.55 -164.8 142.2 -164.95 142.55 -165.3 142.95 -165.7 143.3 -166.05 144.05 -166.3 151.55 -166.3 152.2 -166.05 152.55 -165.8 153.05 -165.7 153.55 -165.7 154.05 -165.8 157.55 -165.8 158.2 -165.55 159.8 -165.55 160.55 -165.8 161.3 -166.05 162.05 -166.3 162.7 -166.05 163.2 -165.7 163.55 -165.3 163.95 -164.95 164.3 -164.55 164.65 -164.25 165.05 -164.45 166.05 -164.55 168.95 -164.8 169.7 -165.2 170.05 -165.45 170.55 -165.55 171.2 -165.3 171.45 -165.2 171.55 -165.3 172.05 -165.45 173.55 -165.55 174.55 -165.55 175.3 -165.3 179.55 -165.05 180.2 -164.8 180.45 -164.55 180.55 -164.55 181.3 -164.8 182.05 -165.05 182.55 -165.05 183.2 -164.8 183.45 -164.55 183.55 -164.55 184.2 -164.3 184.55 -163.95 186.1 -163.95 186.3 -164.2 186.55 -164.45 187.05 -164.55 187.55 -164.55 188.2 -164.45 188.55 -164.45 189.05 -164.55 189.55 -164.55 190.05 -164.55 192.55 -164.55 193.2 -164.3 194.05 -164.3 194.2 -164.7 194.55 -164.95 195.05 -165.05 195.55 -165.05 196.2 -164.8 196.55 -164.45 197.05 -164.45 197.3 -164.8 198.05 -165.05 198.55 -165.05 199.55 -165.05 200.2 -164.8 200.55 -164.7 201.05 -164.95 201.55 -165.3 201.95 -165.7 202.3 -166.05 202.7 -166.3 203.05 -166.45 203.55 -166.55 206.05 -166.55 206.7 -166.3 208.05 -166.05 208.7 -165.8 209.05 -165.55 209.7 -165.3 210.05 -164.95 210.3 -164.7 211.3 -164.8 211.7 -165.2 212.05 -165.55 212.45 -165.8 212.55 -165.95 213.05 -166.05 213.7 -165.8 214.05 -165.45 214.45 -165.05 214.8 -164.7 215.7 -164.7 216.2 -165.05 216.45 -165.3 216.55 -165.45 217.05 -165.55 220.55 -165.55 221.2 -165.3 222.7 -165.3 222.7 -165.7 222.8 -166.05 223.05 -166.3 223.7 -166.55 224.05 -166.8 224.55 -166.95 232.6 -167.05 235.45 -167.3 236.1 -167.55 237.95 -167.8 238.7 -168.2 239.1 -168.45 239.6 -168.45 239.6 -168.55 242.1 -168.55 242.7 -168.3 244.1 -168.05 244.7 -167.8 246.1 -167.55 246.85 -167.3 247.6 -167.05 249.45 -167.05 249.85 -167.45 250.2 -167.7 250.6 -167.8 251.1 -167.8 251.35 -167.8 251.85 -167.45 251.95 -167.05 252.6 -166.7 253.1 -166.45 253.7 -166.2 256.45 -166.2 257.1 -166.45 258.1 -166.45 259.2 -166.55 259.7 -166.95 259.95 -167.2 260.1 -167.3 260.6 -167.45 261.2 -167.2 261.45 -166.8 261.45 -166.45 261.45 -166.05 261.35 -165.7 261.1 -165.3 261.45 -165.3 262.1 -165.55 265.1 -165.55 265.7 -165.3 267.6 -165.05 267.85 -164.95 268.2 -165.05 268.7 -165.3 270.95 -165.7 271.6 -165.95 272.1 -165.95 272.85 -166.05 273.1 -166.3 273.6 -166.45 275.6 -166.45 276.2 -166.2 276.45 -165.8 276.45 -165.45 276.85 -165.05 277.35 -165.05 277.6 -165.3 278.1 -165.45 278.95 -165.7 279.6 -165.95 280.1 -165.95 280.7 -165.7 280.95 -165.45 281.1 -165.45 282.45 -165.7 283.1 -165.95 284.45 -166.2 285.1 -166.45 286.1 -166.45 286.7 -166.2 289.1 -165.95 289.7 -165.8 290.1 -165.8 290.6 -165.95 295.95 -166.2 296.6 -166.45 297.1 -166.45 297.7 -166.2 298.6 -165.95 299.6 -165.95 300.45 -166.2 301.1 -166.45 302.45 -166.7 303.1 -166.8 303.1 -166.95 304.1 -166.95 304.7 -166.7 304.95 -166.3 304.95 -165.95 304.95 -165.55 305.1 -165.45 306.95 -165.7 307.6 -165.95 309.1 -165.95 309.7 -165.7 310.1 -165.55 314.6 -165.55 315.2 -165.3 315.45 -164.95 315.7 -164.8 316.1 -164.95 316.6 -165.05 317.6 -165.05 318.2 -164.8 318.95 -164.8 319.7 -165.2 320.1 -165.45 320.6 -165.55 321.45 -165.8 322.1 -166.05 322.6 -166.05 323.2 -165.8 324.1 -165.55 324.7 -165.3 326.6 -165.05 327.1 -165.05 329.95 -165.3 330.6 -165.55 332.6 -165.55 333.2 -165.3 333.6 -165.2 334.6 -165.3 336.6 -165.45 337.35 -165.55 337.6 -165.7 338.1 -165.8 339.1 -165.8 339.75 -165.55 340.6 -165.3 341.25 -165.05 343.75 -165.05 344.1 -165.3 344.6 -165.45 345.6 -165.45 346.1 -165.45 346.6 -165.45 347.6 -165.3 348.25 -165.05 352.85 -165.05 353.6 -165.3 357.1 -165.3 357.75 -165.05 358.85 -165.05 359.6 -165.3 360.85 -165.55 361.75 -165.95 362.1 -166.2 362.6 -166.3 363.1 -166.2 363.75 -165.95 364.1 -165.55 364.35 -165.45 364.75 -165.5 364.8 -165.55 365.05 -165.8 365.55 -165.95 366.05 -165.95 366.7 -165.95 367.05 -166.05 367.55 -166.2 368.3 -166.45 369.05 -166.7 371.3 -166.95 372.05 -167.2 373.3 -167.45 374.2 -167.8 374.55 -168.2 374.8 -168.45 375.05 -168.55 375.55 -168.55 375.55 -168.7 376.55 -168.7 377.2 -168.45 377.55 -168.05 377.95 -167.7 378.2 -167.3 378.2 -166.95 378.1 -166.55 377.95 -166.3 380.6 -166.2 381.2 -165.95 386.1 -165.7 387.1 -165.7 388.6 -165.7 389.2 -165.45 390.6 -165.2 391.1 -165.2 392.6 -165.2 393.2 -165.05 393.6 -165.2 393.95 -165.45 394.1 -165.55 394.6 -165.7 395.1 -165.7 396.1 -165.7 398.1 -165.7 398.7 -165.45 400.85 -165.45 401.6 -165.7 402.85 -165.95 403.6 -166.2 408.1 -166.2 408.7 -165.95 411.85 -165.95 412.6 -166.2 414.1 -166.2 414.7 -165.95 414.95 -165.55 415.2 -165.3 416.1 -165.2 416.7 -164.95 417.1 -164.55 417.45 -164.3 418.1 -164.2 419.1 -164.2 419.85 -164.45 420.2 -164.8 420.6 -165.05 421.1 -165.2 421.6 -165.2 422.2 -164.95 424.1 -164.7 424.35 -164.6 425.1 -164.95 425.6 -165.2 427.35 -165.2 427.7 -165.2 428.1 -165.3 429.1 -165.55 429.6 -165.8 432.85 -165.7 433.35 -165.45 434.1 -165.45 434.85 -165.3 435.7 -165.3 442.95 -165.7 443.35 -166.05 443.7 -166.3 444.1 -166.3 444.1 -166.45 445.85 -166.3 445.95 -166.25 446.1 -166.3 446.6 -166.45 447.35 -166.3 447.85 -165.95 447.95 -165.55 447.9 -165.3 448.1 -165.2 448.85 -164.8 449.2 -164.55 449.45 -164.55 450.1 -164.8 451.95 -165.05 452.6 -165.3 453.35 -165.2 454.2 -165.2 454.95 -165.55 455.6 -165.8 457.45 -166.05 458.35 -166.2 458.85 -165.95 461.85 -165.7 462.35 -165.45 463.45 -165.55 464.2 -165.95 464.7 -166.2 465.1 -166.3 465.85 -166.2 466.6 -165.8 467.35 -165.7 467.7 -165.8 468.1 -165.95 469.6 -165.95 470.1 -165.95 471.85 -165.8 472.7 -165.8 473.6 -165.95 474.2 -165.7 474.6 -165.3 474.95 -164.95 475.2 -164.7 475.35 -164.55 476.75 -164.45 477.2 -164.7 477.6 -164.8 478.45 -165.05 479.1 -165.3 479.95 -165.55 480.6 -165.8 481.35 -165.7 482.1 -165.3 482.85 -164.95 483.6 -164.55 484.0 -164.3 484.6 -164.3 486.35 -164.55 486.35 -164.95 486.75 -165.2 487.1 -165.3 488.5 -165.55 489.1 -165.8 489.85 -165.7 490.35 -165.45 492.85 -165.3 493.6 -165.3 495.0 -165.55 495.6 -165.8 499.35 -165.7 499.85 -165.45 500.85 -165.2 501.35 -164.95 503.1 -165.05 503.6 -165.3 505.5 -165.55 506.1 -165.8 508.1 -165.95 508.85 -165.8 509.35 -165.55 510.5 -165.7 511.1 -165.95 512.1 -165.95 512.75 -165.7 513.1 -165.3 513.5 -165.2 513.6 -165.3 514.1 -165.45 516.35 -165.7 516.6 -165.95 517.1 -166.05 518.1 -166.05 518.75 -165.8 519.5 -165.8 520.25 -166.2 520.6 -166.45 521.1 -166.45 521.1 -166.55 521.6 -166.55 522.25 -166.3 522.6 -165.95 522.85 -165.7 524.1 -165.55 524.75 -165.3 525.85 -165.3 526.6 -165.55 527.6 -165.55 528.25 -165.45 528.6 -165.45 529.1 -165.55 535.1 -165.55 535.75 -165.3 541.6 -165.05 542.25 -164.8 545.85 -164.8 546.75 -165.2 547.1 -165.45 547.75 -165.7 548.1 -166.05 548.5 -166.3 548.6 -166.45 549.1 -166.55 553.6 -166.55 554.25 -166.3 554.5 -165.95 554.6 -165.7 556.6 -165.55 557.25 -165.3 557.5 -164.95 557.6 -164.7 561.0 -164.8 561.6 -165.05 562.1 -165.05 562.75 -164.8 569.5 -164.8 570.1 -165.05 570.85 -165.05 571.1 -165.2 571.85 -165.45 572.5 -165.8 573.25 -166.2 574.6 -166.45 575.85 -166.3 576.35 -166.05 576.6 -165.95 577.25 -165.7 578.1 -165.45 578.6 -165.45 579.1 -165.55 582.6 -165.55 583.25 -165.45 583.65 -165.45 584.15 -165.55 587.75 -165.8 588.15 -166.05 588.65 -166.2 594.65 -166.3 596.15 -166.3 596.75 -166.05 601.15 -165.95 601.65 -165.8 602.15 -165.8 602.65 -165.95 609.4 -166.05 609.9 -166.2 610.0 -166.3 610.65 -166.45 611.65 -166.45 612.25 -166.3 612.4 -166.2 612.9 -166.2 613.0 -166.3 613.65 -166.45 614.65 -166.45 615.4 -166.2 616.15 -165.95 616.9 -165.7 617.65 -165.45 618.4 -165.2 621.65 -164.95 622.4 -164.7 622.75 -164.45 623.65 -164.55 624.0 -164.8 624.65 -164.95 625.25 -165.2 625.65 -165.55 626.0 -165.8 626.65 -165.95 632.75 -166.2 633.65 -166.55 634.0 -166.8 634.65 -166.8 634.65 -166.95 635.65 -166.95 636.4 -166.7 639.65 -166.45 640.4 -166.2 644.65 -165.95 645.4 -165.7 645.75 -165.45 646.15 -165.45 646.65 -165.45 647.25 -165.3 647.5 -165.3 648.15 -165.45 651.15 -165.45 651.9 -165.2 652.65 -164.95 M308.65 -163.95 L308.35 -164.05 308.25 -163.95 308.65 -163.95 M430.1 -164.05 L429.9 -163.95 430.1 -163.95 430.25 -164.05 430.1 -164.05 M495.5 -163.95 L496.0 -163.95 495.85 -164.2 495.5 -163.95 M506.6 -164.05 L506.4 -163.95 507.1 -163.95 507.1 -164.1 506.6 -164.05" fill="#990000" fill-rule="evenodd" stroke="none"/>
  </g>
</svg>
