<?xml version="1.0" encoding="UTF-8" standalone="no"?>
<svg xmlns:xlink="http://www.w3.org/1999/xlink" height="170.95px" width="48.0px" xmlns="http://www.w3.org/2000/svg">
  <g transform="matrix(1.0, 0.0, 0.0, 1.0, 10.0, 157.35)">
    <path d="M21.65 11.1 L21.0 11.0 20.2 10.85 19.3 11.0 19.0 11.1 17.65 11.25 Q16.65 11.4 16.3 11.65 L15.7 11.4 Q15.1 10.9 14.3 10.9 L13.4 11.1 12.45 11.3 11.75 11.2 11.55 11.05 10.65 10.95 8.45 11.15 7.6 11.45 6.05 11.7 5.8 11.9 4.0 12.0 3.45 11.7 2.95 11.5 2.4 11.3 2.1 11.2 0.6 11.1 0.0 11.15 Q0.85 7.25 3.85 4.25 8.15 0.0 14.2 0.0 20.25 0.0 24.5 4.25 27.7 7.45 28.55 11.65 L27.3 11.55 Q26.85 11.15 25.85 11.2 25.45 11.25 24.95 10.75 24.45 10.3 24.0 10.3 L22.85 10.7 21.65 11.1" fill="url(#gradient0)" fill-rule="evenodd" stroke="none"/>
    <path d="M14.6 -157.35 L14.6 -4.0 Q14.7 -1.1 16.7 0.2 L14.6 0.2 14.55 0.2 14.35 0.15 14.15 0.2 14.05 0.2 11.95 0.15 Q14.15 -0.95 14.05 -3.95 L14.05 -157.35 14.6 -157.35" fill="#ffffff" fill-rule="evenodd" stroke="none"/>
    <path d="M-10.0 13.6 L14.6 -157.35 38.0 13.6 -10.0 13.6" fill="url(#gradient1)" fill-rule="evenodd" stroke="none"/>
  </g>
  <defs>
    <radialGradient cx="0" cy="0" gradientTransform="matrix(0.0205, 0.0, 0.0, 0.02, 14.05, 0.2)" gradientUnits="userSpaceOnUse" id="gradient0" r="819.2" spreadMethod="pad">
      <stop offset="0.0" stop-color="#fbfbfb"/>
      <stop offset="1.0" stop-color="#ffffff" stop-opacity="0.14117648"/>
    </radialGradient>
    <linearGradient gradientTransform="matrix(0.0, 0.1063, -0.1043, 0.0, 14.05, -71.85)" gradientUnits="userSpaceOnUse" id="gradient1" spreadMethod="pad" x1="-819.2" x2="819.2">
      <stop offset="0.0" stop-color="#fafafa" stop-opacity="0.101960786"/>
      <stop offset="1.0" stop-color="#ffffff" stop-opacity="0.0"/>
    </linearGradient>
  </defs>
</svg>
