<?xml version="1.0" encoding="UTF-8" standalone="no"?>
<svg xmlns:xlink="http://www.w3.org/1999/xlink" height="61.9px" width="248.35px" xmlns="http://www.w3.org/2000/svg">
  <g transform="matrix(1.0, 0.0, 0.0, 1.0, 0.0, 0.0)">
    <path d="M238.85 38.3 L239.05 38.5 239.2 38.7 239.4 38.9 239.6 39.05 239.8 39.25 239.95 39.45 240.15 39.65 240.3 39.8 240.4 40.0 240.45 40.2 240.55 40.4 240.6 40.55 240.7 40.75 240.85 40.95 240.85 41.15 240.85 41.3 240.85 41.5 240.85 41.7 240.9 41.9 241.05 42.05 241.1 42.25 241.1 42.45 241.1 42.65 241.15 42.8 241.3 43.0 241.35 43.2 241.35 43.4 241.35 43.55 241.4 43.75 241.45 43.95 241.55 44.15 241.6 44.3 241.65 44.5 241.7 44.7 241.8 44.9 241.85 45.05 241.9 45.25 241.95 45.45 242.05 45.65 242.1 45.8 242.15 46.0 242.2 46.2 242.3 46.4 242.35 46.55 242.55 46.75 242.6 46.95 242.7 47.15 242.8 47.3 242.85 47.5 242.95 47.7 243.15 47.9 243.3 48.05 243.4 48.25 243.45 48.45 243.65 48.65 243.85 48.8 244.05 49.0 244.1 49.2 244.2 49.4 244.35 49.55 244.55 49.75 244.7 49.95 244.9 50.15 245.3 50.3 245.45 50.5 245.6 50.7 245.65 50.9 245.8 51.1 246.05 51.25 246.35 51.45 246.55 51.65 246.65 51.85 246.7 52.0 246.9 52.2 247.1 52.4 247.3 52.6 247.45 52.75 247.6 52.95 247.65 53.15 247.8 53.35 247.85 53.5 247.95 53.7 248.1 53.9 248.2 54.1 248.35 54.25 248.35 54.45 248.35 54.65 248.35 54.85 248.35 55.0 248.35 55.2 248.35 55.4 248.3 55.6 248.2 55.75 248.05 55.95 247.9 56.15 247.85 56.35 247.7 56.5 247.4 56.7 247.05 56.9 246.8 57.1 246.45 57.25 246.3 57.4 246.05 57.45 245.8 57.5 245.55 57.6 245.2 57.7 244.9 57.9 244.55 58.1 244.3 58.2 243.95 58.25 243.65 58.35 243.35 58.4 243.05 58.45 242.7 58.5 242.4 58.6 242.1 58.65 241.8 58.7 241.1 58.75 240.65 58.85 240.2 58.9 239.8 58.95 237.85 59.0 237.4 59.1 236.95 59.15 236.55 59.2 227.3 59.2 226.65 59.15 226.05 59.1 225.4 59.0 211.05 59.0 210.3 59.1 209.55 59.15 208.8 59.2 208.05 59.25 207.3 59.35 206.55 59.4 205.8 59.45 205.1 59.5 204.4 59.6 203.7 59.65 203.05 59.7 186.7 59.7 186.1 59.65 185.45 59.6 184.85 59.5 181.95 59.45 181.4 59.4 180.85 59.35 180.25 59.25 177.45 59.2 177.2 59.15 176.7 59.1 176.2 59.0 175.7 58.95 175.25 58.9 174.85 58.85 174.4 58.75 173.95 58.7 173.45 58.65 172.95 58.6 172.45 58.5 171.95 58.45 171.5 58.4 171.1 58.35 170.65 58.25 168.45 58.2 168.0 58.15 167.6 58.1 167.15 58.0 154.4 58.1 153.95 58.2 153.55 58.25 153.45 58.45 153.35 58.65 153.25 58.85 153.2 59.0 153.05 59.2 153.0 59.4 152.85 59.6 152.8 59.75 152.8 59.95 152.8 60.15 152.75 60.35 152.7 60.5 152.5 60.7 152.35 60.9 152.3 61.1 152.1 61.25 152.05 61.4 151.3 61.4 150.95 61.25 150.8 61.1 150.8 60.9 150.8 60.7 150.75 60.5 150.7 60.35 150.55 60.15 150.5 59.95 150.35 59.75 150.3 59.6 150.25 59.4 150.2 59.2 150.1 59.0 150.05 58.85 149.95 58.65 149.9 58.55 148.9 58.6 148.45 58.7 147.85 58.75 147.75 58.9 147.7 59.1 147.55 59.25 147.55 59.45 147.55 59.65 147.55 59.85 147.45 60.0 147.35 60.2 147.25 60.4 147.2 60.6 147.05 60.75 146.95 60.95 146.8 61.15 146.7 61.35 146.55 61.5 146.45 61.7 146.3 61.85 146.3 61.9 145.25 61.85 145.05 61.65 144.85 61.45 144.75 61.25 144.7 61.1 144.55 60.9 144.5 60.7 144.35 60.5 144.3 60.35 144.25 60.15 144.2 59.95 144.1 59.75 144.05 59.6 143.95 59.4 143.7 59.45 142.95 59.45 142.15 59.35 141.8 59.15 141.75 58.95 141.75 58.75 141.9 58.6 142.2 58.45 142.45 58.4 142.95 58.35 143.5 58.25 143.45 58.1 143.35 57.9 143.3 57.7 143.25 57.5 143.2 57.35 143.05 57.15 142.85 56.95 142.6 56.75 141.95 56.75 141.7 56.95 141.5 57.15 141.2 57.35 140.95 57.5 140.75 57.7 140.55 57.9 140.35 58.1 140.2 58.25 140.0 58.45 139.8 58.65 139.55 58.85 139.3 59.0 138.95 59.2 138.8 59.35 138.8 59.4 137.7 59.35 137.3 59.15 136.95 58.95 136.7 58.75 135.85 58.6 135.5 58.45 134.6 58.35 134.25 58.2 133.55 58.15 133.1 58.0 131.05 57.9 130.8 57.85 130.55 57.75 130.3 57.7 125.55 57.65 125.3 57.6 125.05 57.5 124.8 57.45 110.05 57.4 109.8 57.35 109.55 57.25 109.3 57.2 109.05 57.15 101.05 57.1 100.8 57.0 100.55 56.95 100.3 56.9 94.0 56.9 93.65 56.95 93.35 57.0 93.05 57.1 87.25 57.15 86.9 57.2 86.6 57.25 86.55 57.35 84.05 57.4 83.8 57.45 83.55 57.5 83.3 57.6 82.0 57.65 81.65 57.7 81.35 57.75 81.05 57.85 78.55 57.9 78.3 57.95 78.05 58.0 77.8 58.1 75.6 58.15 75.35 58.2 75.1 58.25 74.85 58.35 68.6 58.4 68.35 58.45 68.1 58.5 67.85 58.6 51.35 58.6 51.05 58.5 50.7 58.45 50.4 58.4 49.35 58.4 46.85 58.4 46.6 58.35 46.35 58.25 46.1 58.2 44.85 58.15 44.6 58.1 44.35 58.0 44.1 57.95 42.6 57.9 42.35 57.85 42.1 57.75 41.85 57.7 40.6 57.65 40.35 57.6 40.1 57.5 39.85 57.45 37.35 57.4 37.1 57.35 36.85 57.25 36.6 57.2 31.1 57.2 30.85 57.25 30.6 57.35 30.35 57.4 22.1 57.35 21.7 57.2 18.7 57.1 18.4 56.95 2.45 56.85 2.35 56.7 1.95 56.6 1.75 56.4 1.65 56.25 1.6 56.2 1.2 56.1 1.0 55.9 0.9 55.75 0.85 55.7 0.45 55.6 0.25 55.4 0.1 55.2 0.0 55.0 0.0 54.85 0.0 54.65 0.0 54.45 0.0 54.25 0.0 54.1 0.0 53.9 0.0 53.7 0.0 53.5 0.1 53.35 0.25 53.15 0.25 52.95 0.4 52.75 0.6 52.6 0.75 52.4 0.95 52.25 1.0 52.2 1.35 52.1 1.5 51.9 1.7 51.75 1.75 51.7 2.0 51.65 3.15 51.5 3.5 51.45 3.5 51.4 3.75 51.4 4.1 51.5 4.15 51.55 4.3 51.4 4.45 51.25 4.5 51.2 4.75 51.15 5.2 51.0 5.4 50.8 5.55 50.65 5.75 50.45 6.15 50.25 6.4 50.05 6.5 49.95 6.8 49.8 7.0 49.7 7.25 49.65 8.45 49.5 8.75 49.4 11.0 49.4 11.25 49.45 11.35 49.5 11.95 49.45 12.15 49.25 12.25 49.05 12.45 48.9 12.65 48.7 12.85 48.5 13.0 48.4 13.35 48.25 13.5 48.05 13.7 47.9 13.9 47.7 14.1 47.5 14.25 47.3 14.5 47.15 14.65 46.95 15.1 46.75 15.25 46.65 15.5 46.55 15.85 46.45 16.0 46.3 16.25 46.25 16.9 46.15 17.35 45.95 17.5 45.75 17.7 45.65 17.75 45.55 18.0 45.5 19.65 45.4 20.0 45.25 20.4 45.15 20.75 45.0 21.4 44.9 21.75 44.75 22.9 44.65 23.25 44.5 23.65 44.4 24.0 44.25 25.15 44.15 Q25.35 44.05 25.5 44.0 L26.15 43.9 26.35 43.7 26.5 43.55 26.85 43.45 27.0 43.3 27.35 43.2 27.5 43.0 27.7 42.9 27.75 42.8 28.1 42.7 28.25 42.5 28.4 42.3 28.45 42.15 28.6 41.95 28.75 41.75 28.95 41.55 29.1 41.4 29.2 41.2 29.25 41.0 29.45 40.8 29.65 40.65 30.0 40.45 30.25 40.25 30.45 40.15 30.5 40.05 30.85 39.95 31.0 39.8 31.25 39.75 32.9 39.65 33.35 39.45 33.5 39.3 33.85 39.2 34.0 39.05 34.25 39.0 35.15 38.9 35.6 38.7 35.75 38.55 36.1 38.45 36.25 38.25 36.45 38.05 36.65 37.9 36.85 37.7 36.95 37.5 36.95 37.3 37.15 37.15 37.6 36.95 37.75 36.75 37.95 36.55 38.15 36.4 38.45 36.2 38.5 36.0 38.7 35.8 38.9 35.65 38.95 35.45 39.0 35.25 39.25 35.05 39.45 34.9 39.6 34.7 39.75 34.5 39.9 34.4 40.0 34.3 40.35 34.2 40.5 34.0 40.7 33.8 40.9 33.65 41.1 33.45 41.4 33.25 41.45 33.05 41.65 32.9 41.85 32.7 42.0 32.5 42.2 32.3 42.4 32.15 42.6 31.95 42.75 31.75 42.95 31.55 43.15 31.4 43.6 31.2 43.75 31.0 43.95 30.8 44.15 30.65 44.35 30.45 44.5 30.25 44.65 30.15 44.75 30.05 45.1 29.95 45.25 29.75 45.45 29.55 45.65 29.4 46.0 29.25 46.35 29.4 46.5 29.5 46.85 29.65 47.0 29.8 47.2 30.0 47.35 30.2 47.4 30.4 47.5 30.5 47.85 30.65 48.0 30.8 48.2 30.95 48.75 31.0 49.1 31.15 49.25 31.3 49.45 31.45 49.5 31.5 49.85 31.65 50.0 31.8 50.2 32.0 50.45 32.2 50.6 32.4 50.75 32.55 50.95 32.75 51.2 32.95 51.35 33.15 51.5 33.3 51.6 33.5 51.7 33.7 51.9 33.9 52.0 34.0 52.35 34.15 52.5 34.3 52.7 34.45 52.75 34.5 53.1 34.65 53.25 34.75 53.6 34.7 53.7 34.5 53.7 34.3 53.9 34.15 54.25 34.0 54.65 33.9 55.1 33.7 55.25 33.55 55.5 33.5 58.0 33.5 58.35 33.65 58.7 33.65 59.15 33.45 59.35 33.25 59.45 33.05 59.55 32.9 59.65 32.7 59.85 32.5 59.95 32.4 60.1 32.3 60.4 32.2 60.7 32.0 61.05 31.8 61.2 31.65 61.4 31.45 61.6 31.25 61.8 31.05 61.95 30.9 62.15 30.7 62.35 30.5 62.55 30.3 62.7 30.15 62.9 29.95 63.1 29.75 63.2 29.65 63.35 29.55 63.65 29.45 63.85 29.3 64.1 29.25 64.45 29.15 64.85 29.0 65.7 28.9 66.15 28.7 66.35 28.5 66.55 28.3 66.7 28.15 67.1 28.0 67.45 27.9 67.85 27.75 68.2 27.65 68.65 27.45 68.85 27.25 69.05 27.05 69.2 26.9 69.4 26.7 69.65 26.5 69.8 26.3 69.95 26.15 70.15 25.95 70.35 25.75 70.55 25.55 70.7 25.4 70.9 25.2 71.1 25.05 71.4 24.95 71.6 24.75 71.7 24.65 71.85 24.55 72.1 24.5 72.7 24.4 73.1 24.25 74.95 24.15 75.15 23.95 75.45 23.75 75.55 23.55 75.7 23.4 75.9 23.2 76.1 23.0 76.3 22.8 76.45 22.65 76.85 22.45 77.05 22.25 77.15 22.05 77.2 21.9 77.35 21.7 77.55 21.55 77.85 21.45 78.05 21.3 78.3 21.25 79.8 21.25 80.1 21.4 80.8 21.5 81.1 21.65 81.3 21.75 81.6 21.9 81.8 22.05 81.85 22.25 81.95 22.45 82.15 22.65 82.55 22.75 82.85 22.9 83.55 23.0 83.85 23.15 84.05 23.3 84.1 23.5 84.1 23.7 84.35 23.9 84.55 24.05 84.6 24.25 84.6 24.45 84.6 24.65 84.6 24.8 84.6 25.0 84.7 25.2 84.85 25.4 85.05 25.55 85.2 25.75 85.35 25.95 85.4 26.15 85.55 26.3 85.7 26.5 85.85 26.7 85.9 26.9 86.05 27.0 86.35 27.15 86.55 27.3 86.7 27.45 87.05 27.5 87.35 27.65 87.8 27.75 88.1 27.9 88.3 28.0 88.6 28.15 89.05 28.25 89.35 28.4 89.55 28.5 89.85 28.65 90.3 28.75 90.6 28.9 90.8 29.05 91.05 29.25 91.2 29.45 91.35 29.65 91.55 29.8 91.8 30.0 91.95 30.2 92.35 30.4 92.55 30.55 92.7 30.7 92.8 30.75 93.1 30.9 93.3 31.05 93.45 31.25 93.7 31.45 93.8 31.65 93.85 31.8 93.95 31.95 94.05 32.0 94.35 32.15 94.8 32.25 95.1 32.4 95.3 32.5 95.6 32.65 95.8 32.8 95.95 33.0 96.2 33.2 96.35 33.4 96.55 33.5 96.85 33.65 97.05 33.75 97.35 33.9 97.55 34.05 97.7 34.25 97.9 34.4 97.95 34.45 98.55 34.5 98.85 34.65 99.1 34.8 99.3 35.0 99.45 35.2 99.65 35.4 99.8 35.55 99.85 35.75 99.85 35.95 99.9 36.15 100.05 36.3 100.2 36.3 100.4 36.15 100.85 35.95 101.05 35.75 101.2 35.55 101.4 35.4 101.6 35.2 101.8 35.05 102.05 35.0 102.4 34.9 102.6 34.7 102.8 34.55 103.05 34.5 103.4 34.4 103.6 34.2 103.8 34.0 103.9 33.9 104.05 33.8 104.35 33.7 104.55 33.55 104.85 33.45 105.05 33.3 105.3 33.25 105.65 33.15 105.85 32.95 106.05 32.75 106.15 32.65 106.3 32.55 106.55 32.5 108.05 32.5 108.35 32.65 110.05 32.75 110.35 32.9 110.9 32.9 111.3 32.75 111.65 32.65 112.05 32.5 112.4 32.4 112.8 32.25 113.15 32.15 113.55 32.0 113.9 31.9 114.35 31.7 114.55 31.55 114.8 31.5 115.3 31.5 115.6 31.65 115.9 31.65 116.35 31.45 116.55 31.25 116.75 31.05 116.9 30.9 117.1 30.7 117.3 30.55 117.6 30.45 117.8 30.25 117.9 30.15 118.05 30.05 118.35 29.95 118.55 29.75 118.75 29.55 118.9 29.4 119.0 29.2 119.05 29.0 119.15 28.8 119.25 28.65 119.35 28.45 119.5 28.25 119.5 28.05 119.65 27.9 119.75 27.7 119.8 27.5 119.9 27.3 120.0 27.15 120.0 26.95 120.0 26.75 120.0 26.55 120.0 26.4 120.1 26.2 120.25 26.0 120.25 25.8 120.4 25.65 120.6 25.45 120.8 25.25 121.0 25.05 121.15 24.9 121.35 24.7 121.55 24.5 121.65 24.4 121.8 24.3 122.1 24.2 122.3 24.05 122.6 23.95 122.8 23.75 123.0 23.55 123.15 23.4 123.6 23.2 123.75 23.0 123.75 22.8 123.75 22.65 123.85 22.45 124.05 22.25 124.15 22.05 124.25 21.9 124.35 21.7 124.55 21.5 124.75 21.3 124.9 21.15 125.3 21.0 125.55 21.0 125.85 21.15 126.05 21.25 126.35 21.4 126.55 21.5 126.85 21.65 127.05 21.75 127.35 21.9 127.55 22.05 127.6 22.25 127.75 22.45 127.85 22.65 128.05 22.8 128.25 22.95 128.3 23.0 128.6 23.15 129.05 23.25 129.35 23.4 130.65 23.4 131.05 23.25 132.8 23.25 133.1 23.4 133.3 23.5 133.6 23.65 134.55 23.75 134.85 23.9 135.55 24.0 135.85 24.15 136.05 24.25 136.35 24.4 136.8 24.5 137.1 24.65 137.3 24.8 137.35 25.0 137.5 25.2 137.65 25.4 137.85 25.55 138.0 25.7 138.3 25.75 138.6 25.9 139.05 26.0 139.35 26.15 139.8 26.25 140.1 26.4 140.3 26.5 140.6 26.65 141.05 26.75 141.35 26.9 141.55 27.05 141.6 27.25 141.75 27.45 141.9 27.65 142.05 27.8 142.1 28.0 142.25 28.2 142.35 28.4 142.9 28.4 143.35 28.2 143.55 28.05 143.85 27.95 144.05 27.75 144.15 27.65 144.3 27.55 144.55 27.5 144.9 27.4 145.35 27.2 145.55 27.05 145.85 26.95 146.05 26.8 146.3 26.75 146.65 26.65 147.05 26.5 147.4 26.4 147.8 26.25 148.65 26.15 149.05 26.0 153.65 25.9 153.85 25.7 154.05 25.5 154.15 25.3 154.25 25.15 154.25 24.95 154.3 24.75 154.5 24.55 154.65 24.4 154.85 24.2 155.05 24.0 155.25 23.8 155.4 23.65 155.6 23.45 155.8 23.25 156.0 23.05 156.15 22.9 156.55 22.75 157.9 22.65 158.3 22.5 161.2 22.4 161.55 22.25 162.7 22.15 163.1 21.95 163.3 21.75 163.45 21.65 163.55 21.55 163.85 21.45 164.0 21.25 164.0 21.05 164.2 20.9 164.35 20.7 164.5 20.5 164.5 20.3 164.7 20.15 164.85 19.95 165.05 19.75 165.25 19.55 165.45 19.4 165.6 19.2 165.75 19.0 165.75 18.8 165.95 18.65 166.0 18.45 166.05 18.25 166.2 18.05 166.25 17.9 166.35 17.7 166.5 17.5 166.5 17.3 166.7 17.15 166.75 16.95 166.75 16.75 166.75 16.55 166.95 16.4 167.0 16.2 167.0 16.0 167.0 15.8 167.0 15.65 167.1 15.45 167.25 15.25 167.25 15.05 167.45 14.9 167.6 14.7 167.8 14.55 168.05 14.5 168.45 14.4 168.8 14.25 169.2 14.15 169.6 13.95 169.8 13.8 170.05 13.75 170.7 13.65 171.05 13.5 176.05 13.5 176.35 13.65 177.45 13.65 177.8 13.5 178.2 13.4 178.6 13.2 178.8 13.05 179.05 13.0 179.45 12.9 179.8 12.75 180.45 12.65 180.8 12.5 184.45 12.4 184.8 12.3 184.8 12.25 185.3 12.25 185.4 12.3 185.5 12.2 186.15 12.0 186.45 11.9 186.9 11.75 187.2 11.55 187.4 11.45 187.45 11.4 187.75 11.25 187.95 11.15 188.2 11.05 188.6 10.95 189.0 10.75 189.2 10.55 189.4 10.4 189.6 10.2 189.75 10.0 189.95 9.8 190.15 9.65 190.25 9.45 190.4 9.25 190.45 9.05 190.7 8.9 191.0 8.7 191.15 8.5 191.2 8.3 191.4 8.15 191.6 7.95 191.75 7.75 191.95 7.55 192.15 7.45 192.2 7.4 192.5 7.25 192.85 7.05 193.1 6.9 193.25 6.7 193.45 6.5 193.7 6.3 194.0 6.15 194.25 5.95 194.45 5.75 194.65 5.55 194.85 5.4 195.2 5.2 195.35 5.0 195.45 4.8 195.6 4.65 195.95 4.45 196.2 4.25 196.45 4.05 196.75 3.9 197.0 3.7 197.35 3.5 197.7 3.3 198.1 3.15 198.45 2.95 198.7 2.75 198.9 2.65 198.95 2.55 199.2 2.5 199.6 2.4 199.75 2.2 199.95 2.0 200.15 1.9 200.2 1.8 200.45 1.75 200.75 1.65 200.9 1.45 200.95 1.25 201.15 1.05 201.35 0.9 201.5 0.7 201.7 0.55 201.95 0.45 202.05 0.25 202.2 0.15 202.3 0.05 202.55 0.05 202.55 0.0 203.3 0.0 203.6 0.15 203.8 0.3 204.05 0.5 204.2 0.7 204.4 0.9 204.6 1.05 204.8 1.25 204.95 1.45 205.15 1.65 205.55 1.75 205.9 1.9 206.3 2.0 206.65 2.15 207.3 2.25 207.65 2.4 208.3 2.5 208.6 2.65 208.85 2.8 209.15 3.0 209.4 3.2 209.85 3.4 210.1 3.55 210.3 3.75 210.45 3.95 210.65 4.15 210.85 4.3 211.05 4.5 211.15 4.7 211.35 4.9 211.55 5.0 211.85 5.15 212.05 5.25 212.35 5.4 212.45 5.55 212.6 5.75 212.7 5.95 212.9 6.15 212.95 6.3 213.1 6.5 213.15 6.7 213.35 6.9 213.45 7.05 213.6 7.25 213.65 7.45 213.8 7.65 213.85 7.8 214.05 8.0 214.15 8.2 214.3 8.4 214.35 8.55 214.45 8.75 214.55 8.95 214.65 9.15 214.85 9.3 214.95 9.5 215.05 9.7 215.15 9.9 215.35 10.05 215.45 10.25 215.55 10.45 215.65 10.65 215.85 10.8 215.95 11.0 216.05 11.2 216.15 11.4 216.35 11.55 216.55 11.75 216.7 11.95 216.9 12.15 217.1 12.3 217.3 12.5 217.4 12.65 217.45 12.7 217.8 12.75 218.1 12.9 218.35 13.05 218.45 13.2 218.8 13.25 219.1 13.4 219.35 13.55 219.55 13.75 219.8 13.95 220.1 14.15 220.35 14.3 220.55 14.5 220.8 14.7 221.1 14.9 221.35 15.05 221.55 15.25 221.7 15.45 221.85 15.65 221.9 15.8 222.15 16.0 222.45 16.2 222.6 16.4 222.65 16.55 222.8 16.75 222.95 16.95 223.1 17.15 223.15 17.3 223.3 17.5 223.45 17.7 223.6 17.9 223.65 18.05 223.8 18.25 223.95 18.45 224.1 18.65 224.15 18.8 224.3 19.0 224.35 19.2 224.45 19.4 224.55 19.55 224.65 19.75 224.7 19.95 224.85 20.15 224.9 20.3 225.05 20.5 225.2 20.7 225.35 20.9 225.4 21.05 225.55 21.25 225.6 21.45 225.7 21.65 225.8 21.8 225.9 22.0 225.95 22.2 226.05 22.4 226.1 22.55 226.1 22.75 226.1 22.95 226.2 23.15 226.35 23.3 226.55 23.5 226.6 23.7 226.7 23.9 226.85 24.05 227.05 24.25 227.2 24.45 227.4 24.65 227.6 24.8 227.8 25.0 227.9 25.15 228.05 25.2 228.3 25.25 228.6 25.4 228.85 25.55 229.15 25.75 229.45 25.95 229.65 26.15 229.85 26.3 230.15 26.5 230.45 26.7 230.6 26.9 230.65 27.05 230.8 27.25 230.95 27.45 231.15 27.65 231.3 27.8 231.4 28.0 231.45 28.2 231.65 28.4 231.8 28.55 231.9 28.75 231.95 28.95 232.15 29.15 232.3 29.3 232.4 29.5 232.45 29.7 232.65 29.9 232.85 30.05 233.05 30.25 233.1 30.45 233.2 30.65 233.35 30.8 233.55 31.0 233.7 31.2 233.9 31.4 234.1 31.55 234.3 31.75 234.45 31.95 234.65 32.15 234.85 32.3 235.05 32.5 235.1 32.7 235.2 32.9 235.35 33.05 235.45 33.25 235.6 33.45 235.6 33.65 235.65 33.8 235.8 34.0 235.95 34.2 236.15 34.4 236.3 34.55 236.35 34.75 236.35 34.95 236.4 35.15 236.55 35.3 236.6 35.5 236.7 35.7 236.85 35.9 236.9 36.05 237.05 36.25 237.2 36.45 237.3 36.65 237.35 36.8 237.55 37.0 237.6 37.2 237.7 37.4 237.85 37.55 238.15 37.75 238.45 37.95 238.65 38.15 238.85 38.3 M146.45 58.95 L145.05 59.1 145.0 59.15 145.05 59.35 145.1 59.5 145.2 59.7 145.25 59.9 145.35 60.1 145.45 60.25 145.55 60.45 145.6 60.65 145.75 60.7 145.85 60.6 146.05 60.4 146.2 60.2 146.25 60.0 146.35 59.85 146.45 59.65 146.55 59.45 146.55 59.25 146.55 59.1 146.55 58.95 146.45 58.95 M151.25 59.0 L151.3 59.2 151.35 59.4 151.5 59.6 151.55 59.75 151.7 59.9 151.8 59.85 151.8 59.65 151.8 59.45 151.95 59.25 152.0 59.1 152.1 58.9 152.2 58.7 152.3 58.5 152.35 58.35 152.4 58.3 151.9 58.35 151.45 58.45 151.0 58.5 151.1 58.65 151.2 58.85 151.25 59.0 M149.05 56.95 L148.7 57.0 148.6 57.2 148.5 57.4 148.5 57.5 148.75 57.45 149.2 57.35 149.25 57.35 149.05 57.15 149.05 57.0 149.05 56.95" fill="#5c507c" fill-rule="evenodd" stroke="none"/>
  </g>
</svg>
