<?xml version="1.0" encoding="UTF-8" standalone="no"?>
<svg xmlns:xlink="http://www.w3.org/1999/xlink" height="219.4px" width="413.6px" xmlns="http://www.w3.org/2000/svg">
  <g transform="matrix(1.0, 0.0, 0.0, 1.0, 0.0, 0.0)">
    <path d="M183.25 116.4 L183.9 116.15 184.9 116.15 185.4 116.15 188.15 116.25 188.9 116.65 189.5 116.9 189.65 117.0 191.15 117.25 191.65 117.5 192.65 117.75 193.15 118.0 194.25 117.9 194.9 117.65 197.3 117.4 197.9 117.15 198.8 116.9 199.4 116.65 200.8 116.4 201.4 116.15 202.3 115.9 203.05 115.5 203.55 115.15 204.05 114.75 204.65 114.4 204.65 114.0 205.05 113.65 205.15 113.25 205.3 112.9 205.65 112.5 206.3 112.15 206.9 111.75 207.3 111.4 208.05 111.0 208.55 110.75 208.9 110.65 211.3 110.4 211.9 110.15 215.65 110.25 216.15 110.5 217.15 110.65 218.05 110.5 218.55 110.25 218.9 110.15 219.8 109.9 220.4 109.65 221.8 109.4 222.4 109.15 225.65 109.25 226.15 109.65 226.65 110.0 227.05 110.4 227.3 110.75 227.65 111.15 227.65 111.5 228.05 111.9 228.3 112.25 228.65 112.5 230.15 112.75 230.65 113.15 231.05 113.4 231.15 113.5 232.15 113.75 232.65 114.15 233.05 114.5 233.4 114.9 234.65 115.25 235.15 115.5 236.65 115.75 237.55 115.75 238.3 115.4 238.9 115.15 239.8 114.9 240.4 114.65 241.3 114.4 241.9 114.15 243.8 113.9 244.4 113.65 246.15 113.75 246.9 114.15 247.65 114.5 248.05 114.9 248.8 114.9 249.4 114.65 253.15 114.75 253.9 115.15 254.65 115.5 255.05 115.9 255.65 116.25 256.4 116.65 257.05 117.0 257.4 117.4 257.8 117.75 258.15 118.15 258.55 118.5 258.65 118.9 258.65 119.25 258.65 119.65 258.65 120.0 258.65 120.4 258.65 120.75 258.65 121.15 258.4 121.5 258.15 121.9 258.15 122.25 258.15 122.65 258.15 123.0 258.9 123.4 260.65 123.75 261.4 124.15 262.15 124.5 262.9 124.9 263.3 125.25 263.65 125.65 264.05 126.0 264.15 126.4 264.3 126.75 264.65 127.15 265.05 127.5 265.15 127.9 265.3 128.25 265.65 128.65 265.65 129.0 265.65 129.4 265.65 129.75 265.65 130.15 266.05 130.4 266.15 130.5 267.65 130.75 268.4 131.15 269.05 131.4 269.15 131.55 270.65 131.8 271.4 132.15 272.05 132.55 272.15 132.9 272.3 133.3 272.65 133.55 274.15 133.8 274.9 134.15 275.9 134.55 276.55 134.9 277.15 135.3 278.55 135.4 279.05 135.3 279.4 135.15 279.9 135.05 281.05 134.9 281.15 134.65 281.55 134.3 282.3 133.9 282.65 133.55 283.05 133.15 283.55 132.8 284.3 132.4 284.65 132.05 285.05 131.8 285.4 131.65 286.65 131.8 287.15 132.15 287.65 132.55 288.4 132.9 288.8 133.3 289.15 133.65 289.55 133.9 291.15 134.15 291.65 134.4 293.65 134.65 294.15 134.9 295.15 135.15 295.8 135.55 296.05 135.8 296.15 135.9 297.7 136.15 298.2 136.4 300.7 136.65 301.2 136.9 304.2 137.15 304.7 137.55 304.8 137.8 304.8 137.9 307.3 137.8 308.05 137.4 308.55 137.05 308.95 136.65 309.05 136.3 309.2 135.9 309.55 135.55 309.95 135.15 310.3 134.8 311.05 134.4 311.8 134.05 312.55 133.65 313.45 133.55 313.95 133.55 314.45 133.55 315.95 133.55 316.7 133.3 316.8 132.9 317.2 132.55 317.2 132.15 317.45 131.8 317.8 131.4 318.2 131.05 318.55 130.65 318.95 130.25 319.3 129.9 320.05 129.5 320.8 129.15 321.45 128.75 321.8 128.4 322.55 128.0 323.05 127.65 323.55 127.25 326.7 127.25 327.2 127.5 328.2 127.75 328.7 128.15 329.2 128.5 329.55 128.9 330.2 129.25 330.7 129.5 332.3 129.4 332.95 129.15 337.2 129.25 337.7 129.65 338.05 130.0 338.2 130.4 338.3 130.75 338.7 131.15 339.2 131.55 339.95 131.9 340.2 132.3 340.45 132.65 341.05 132.9 341.2 133.05 342.3 132.9 342.95 132.65 343.8 132.4 344.2 132.05 344.55 131.8 344.95 131.65 348.7 131.8 349.2 132.05 350.7 132.3 351.2 132.55 352.2 132.8 352.7 133.15 353.05 133.55 353.2 133.9 353.7 134.3 354.45 134.65 355.05 135.05 355.95 135.4 356.3 135.8 356.95 136.15 357.45 136.4 357.55 136.55 361.2 136.8 361.55 137.15 361.7 137.55 362.45 137.9 363.2 138.3 363.7 138.65 364.05 139.05 364.2 139.4 364.3 139.8 364.95 140.15 365.45 140.4 365.55 140.55 369.7 140.8 370.2 141.15 370.55 141.55 370.95 141.9 371.3 142.3 371.55 142.65 371.7 143.05 371.95 143.4 372.2 143.8 372.2 144.15 372.2 144.55 372.45 144.9 372.95 145.3 373.7 145.65 374.45 146.05 374.7 146.4 374.8 146.8 375.05 147.15 375.2 147.4 375.2 147.55 376.95 147.4 377.45 147.15 378.45 146.9 378.95 146.65 381.7 146.8 382.45 147.15 382.95 147.4 383.05 147.55 384.2 147.8 384.55 148.15 384.7 148.55 384.95 148.9 385.3 149.3 385.7 149.4 386.45 149.15 386.95 149.4 387.55 149.65 387.95 150.05 388.3 150.4 388.45 150.8 388.45 151.15 388.45 151.55 388.8 151.9 388.95 152.3 388.95 152.65 388.95 153.05 389.3 153.4 389.45 153.8 389.45 154.15 389.45 154.55 389.45 154.9 389.7 155.3 389.95 155.65 389.95 156.05 389.95 156.4 389.95 156.8 389.95 157.15 389.95 157.55 389.95 157.9 389.95 158.3 389.95 158.65 389.95 159.05 389.95 159.4 389.95 159.8 389.95 160.15 389.95 160.55 389.95 160.9 389.95 161.3 389.95 161.65 390.05 162.05 390.05 162.4 390.05 162.8 390.05 163.15 390.05 163.55 390.05 163.9 390.05 164.3 390.05 164.65 390.05 165.05 390.05 165.4 390.05 165.8 390.05 166.15 390.05 166.55 390.05 166.9 390.05 167.3 390.05 167.65 390.05 168.05 390.05 168.4 390.05 168.8 390.05 169.15 390.05 169.55 390.05 169.9 390.05 170.3 390.2 170.65 390.45 171.05 390.55 171.4 390.55 171.8 390.55 172.15 390.7 172.55 390.8 172.9 391.05 173.3 391.05 173.65 391.2 174.05 391.45 174.4 391.55 174.8 391.8 175.15 392.2 175.55 392.45 175.9 392.55 176.3 392.8 176.65 393.2 177.05 393.55 177.4 393.95 177.8 394.3 178.15 394.45 178.55 394.7 178.9 395.2 179.3 395.7 179.65 396.2 180.05 396.55 180.4 396.8 180.8 397.05 181.15 397.2 181.55 397.55 181.9 397.95 182.3 398.3 182.65 398.7 183.05 399.05 183.4 399.45 183.8 399.85 184.15 400.2 184.55 400.6 184.9 400.95 185.3 401.35 185.65 401.7 186.05 402.1 186.4 402.45 186.8 402.85 187.15 403.2 187.55 403.45 187.9 403.6 188.3 403.85 188.65 404.2 189.05 404.6 189.4 404.95 189.8 405.35 190.15 405.7 190.55 406.1 190.9 406.45 191.3 406.85 191.65 407.2 192.05 407.6 192.4 407.85 192.8 408.1 193.15 408.35 193.55 408.85 193.9 409.35 194.3 409.6 194.65 409.7 195.05 410.1 195.4 410.45 195.8 410.85 196.15 411.2 196.55 411.45 196.9 411.6 197.3 411.85 197.65 412.2 198.05 412.45 198.4 412.6 198.8 412.85 199.15 413.2 199.55 413.35 199.9 413.6 200.3 413.6 200.65 413.6 201.05 413.6 201.4 413.6 201.8 413.45 202.15 413.45 202.55 413.35 202.9 413.2 203.3 412.95 203.65 412.85 204.05 412.6 204.4 412.45 204.8 412.2 205.15 411.85 205.55 411.45 205.9 411.1 206.3 410.7 206.65 410.35 207.05 409.95 207.4 409.6 207.8 409.2 208.15 408.85 208.55 408.2 208.9 407.7 209.3 407.1 209.65 406.7 210.05 405.95 210.4 405.2 210.8 404.6 211.15 404.1 211.55 403.6 211.9 403.1 212.3 402.45 212.65 401.7 213.05 400.95 213.4 399.95 213.8 399.05 214.15 398.05 214.55 397.2 214.9 396.2 215.3 395.3 215.65 394.3 216.05 393.8 216.3 393.45 216.4 392.8 216.55 392.2 216.65 391.55 216.8 390.55 217.05 389.45 217.4 388.3 217.8 386.8 218.05 386.2 218.15 385.55 218.3 384.95 218.4 384.2 218.55 383.45 218.65 382.7 218.8 381.95 218.9 378.2 219.05 377.45 219.15 376.7 219.3 375.95 219.4 365.95 219.4 365.2 219.3 364.45 219.15 363.7 219.05 359.45 218.9 358.95 218.8 358.45 218.65 357.95 218.55 357.45 218.4 356.95 218.3 356.45 218.15 355.95 218.05 355.45 217.9 354.55 217.8 353.7 217.65 352.8 217.55 351.95 217.4 351.05 217.3 350.2 217.15 349.3 217.05 348.45 216.9 347.95 216.8 347.45 216.65 346.95 216.55 346.45 216.4 345.95 216.3 345.45 216.15 344.95 216.05 344.45 215.9 343.95 215.8 343.45 215.65 342.95 215.55 342.45 215.4 341.95 215.3 341.45 215.15 340.95 215.05 340.45 214.9 339.45 214.8 338.45 214.65 337.45 214.55 335.95 214.4 335.45 214.3 334.95 214.15 334.45 214.05 333.95 213.9 333.45 213.8 332.95 213.65 332.45 213.55 331.95 213.4 331.45 213.3 330.8 213.15 330.3 213.05 329.7 212.9 329.2 212.8 328.55 212.65 328.05 212.55 327.45 212.4 326.3 212.3 325.2 212.15 324.05 212.05 322.95 211.9 322.45 211.8 321.8 211.65 321.3 211.55 320.7 211.4 320.2 211.3 319.55 211.15 319.05 211.05 318.45 210.9 317.95 210.8 317.3 210.65 316.8 210.55 316.2 210.4 315.7 210.3 315.05 210.15 314.55 210.05 313.95 209.9 313.3 209.8 312.7 209.65 312.05 209.55 311.45 209.4 310.8 209.3 310.2 209.15 309.55 209.05 308.95 208.9 308.8 208.8 308.2 208.65 307.55 208.55 306.95 208.4 306.3 208.3 305.7 208.15 305.05 208.05 304.45 207.9 303.2 207.8 301.95 207.65 300.7 207.55 298.95 207.4 297.55 207.3 296.15 207.15 294.8 207.05 293.4 206.9 292.8 206.8 292.05 206.65 291.4 206.55 290.65 206.4 290.05 206.3 289.3 206.15 288.65 206.05 287.9 205.9 286.55 205.8 285.15 205.65 283.8 205.55 282.4 205.4 281.05 205.3 279.65 205.15 278.3 205.05 276.9 204.9 275.55 204.8 274.15 204.65 272.8 204.55 265.9 204.4 264.9 204.3 263.4 204.15 261.9 204.05 260.4 203.9 259.05 203.8 257.65 203.65 256.3 203.55 254.9 203.4 253.55 203.3 252.15 203.15 250.8 203.05 248.9 202.9 247.4 202.8 245.9 202.65 244.4 202.55 236.9 202.4 235.55 202.3 234.15 202.15 232.8 202.05 225.4 201.9 223.9 201.8 222.4 201.65 220.9 201.55 213.4 201.4 211.9 201.3 210.4 201.15 208.9 201.05 195.4 200.9 193.9 200.8 192.4 200.65 190.9 200.55 164.25 200.55 162.65 200.65 161.0 200.8 159.4 200.9 145.4 201.05 143.9 201.15 142.4 201.3 140.9 201.4 122.9 201.4 121.5 201.3 120.15 201.15 118.75 201.05 111.9 200.9 111.4 200.8 110.0 200.65 108.65 200.55 107.25 200.4 105.9 200.3 104.5 200.15 103.15 200.05 101.75 199.9 94.9 199.8 94.15 199.65 92.9 199.55 91.6 199.4 90.35 199.3 89.1 199.15 87.85 199.05 86.6 198.9 85.35 198.8 84.1 198.65 82.85 198.55 81.6 198.4 80.35 198.3 79.1 198.15 77.85 198.05 76.6 197.9 75.35 197.8 74.1 197.65 72.85 197.55 71.6 197.4 70.35 197.3 69.25 197.15 68.1 197.05 67.0 196.9 65.85 196.8 64.75 196.65 63.6 196.55 62.5 196.4 61.35 196.3 60.25 196.15 59.1 196.05 58.0 195.9 56.85 195.8 55.85 195.65 54.85 195.55 53.85 195.4 52.85 195.3 51.85 195.15 50.85 195.05 49.85 194.9 48.85 194.8 47.85 194.65 46.85 194.55 45.85 194.4 44.85 194.3 44.35 194.15 43.85 194.05 43.35 193.9 42.85 193.8 42.35 193.65 41.85 193.55 41.35 193.4 40.85 193.3 40.0 193.15 39.1 193.05 38.25 192.9 37.35 192.8 36.5 192.55 35.35 192.15 34.25 191.8 33.5 191.55 33.0 191.4 32.6 191.3 32.1 191.15 31.75 191.05 31.25 190.9 30.85 190.8 30.0 190.55 28.85 190.15 27.75 189.8 26.6 189.4 25.5 189.05 24.35 188.65 23.35 188.3 22.85 188.05 22.5 187.9 21.6 187.65 21.0 187.3 20.35 186.9 19.75 186.55 19.25 186.15 18.6 185.8 18.1 185.55 17.85 185.4 17.1 185.15 16.5 184.8 15.85 184.4 15.25 184.05 14.6 183.65 14.1 183.3 13.5 182.9 13.1 182.55 12.6 182.15 12.1 181.8 11.6 181.4 11.1 181.05 10.6 180.65 10.0 180.3 9.6 179.9 9.25 179.55 8.85 179.15 8.5 178.8 8.1 178.4 7.75 178.05 7.35 177.65 7.0 177.3 6.5 176.9 5.85 176.55 5.35 176.15 5.0 175.8 4.75 175.4 4.5 175.05 4.25 174.65 4.0 174.3 3.85 173.9 3.75 173.55 3.6 173.15 3.35 172.8 3.25 172.4 3.0 172.05 2.75 171.65 2.5 171.3 2.35 170.9 2.25 170.55 2.1 170.15 1.85 169.8 1.6 169.4 1.25 169.05 0.85 168.65 0.75 168.3 0.6 167.9 0.5 167.55 0.5 167.15 0.5 166.8 0.5 166.4 0.5 166.05 0.5 165.65 0.5 165.3 0.35 164.9 0.25 164.55 0.1 164.15 0.0 163.8 0.0 163.4 0.0 163.05 0.0 162.65 0.0 162.3 0.0 161.9 0.0 161.55 0.0 161.15 0.0 160.8 0.0 160.4 0.0 160.05 0.0 159.65 0.0 159.3 0.0 158.9 0.0 158.55 0.0 158.15 0.0 157.8 0.0 157.4 0.0 157.05 0.0 156.65 0.0 156.3 0.0 155.9 0.0 155.55 0.0 155.15 0.0 154.8 0.0 154.4 0.0 154.05 0.0 153.65 0.0 153.3 0.0 152.9 0.0 152.55 0.1 152.15 0.25 151.8 0.35 151.4 0.5 151.05 0.6 150.65 0.6 150.3 0.75 149.9 0.85 149.55 1.0 149.15 1.0 148.8 1.0 148.4 1.0 148.05 1.0 147.65 1.0 147.3 1.1 146.9 1.25 146.55 1.35 146.15 1.5 145.8 1.5 145.4 1.5 145.05 1.5 144.65 1.5 144.3 1.6 143.9 1.75 143.55 1.85 143.15 2.0 142.8 2.1 142.4 2.25 142.05 2.35 141.65 2.35 141.3 2.5 140.9 2.5 140.55 2.5 140.15 2.5 139.8 2.5 139.4 2.6 139.05 2.75 138.65 2.75 138.3 2.85 137.9 3.0 137.55 3.0 137.15 3.0 136.8 3.0 136.4 3.0 136.05 3.1 135.65 3.1 135.3 3.25 134.9 3.35 134.55 3.5 134.15 3.5 133.8 3.5 133.4 3.5 133.05 3.5 132.65 3.5 132.3 3.5 131.9 3.5 131.55 3.5 131.15 3.5 130.75 3.5 130.4 3.6 130.0 3.75 129.65 3.85 129.25 4.0 128.9 4.0 128.5 4.0 128.15 4.0 127.75 4.0 127.4 4.0 127.0 4.0 126.65 3.85 126.25 3.75 125.9 3.75 125.5 3.6 125.15 3.5 124.75 3.5 124.4 3.5 124.0 3.5 123.65 3.5 123.25 3.5 122.9 3.5 122.5 3.5 122.15 3.5 121.75 3.5 121.4 3.5 121.0 3.5 120.65 3.5 120.25 3.35 119.9 3.25 119.5 3.1 119.15 3.0 118.75 3.0 118.4 3.0 118.0 3.0 117.65 3.0 117.25 3.0 116.9 2.85 116.5 2.75 116.15 2.6 115.75 2.5 115.4 2.35 115.0 2.25 114.65 2.1 114.25 2.0 113.9 2.0 113.5 2.0 113.15 2.0 112.75 2.0 112.4 2.0 112.0 2.0 111.65 1.85 111.25 1.75 110.9 1.6 110.5 1.5 110.15 1.25 109.75 1.1 109.4 0.85 109.0 0.75 108.65 0.6 108.25 0.5 107.9 0.5 107.5 0.5 107.15 0.5 106.75 0.35 106.4 0.25 106.0 0.1 105.65 0.0 105.25 0.0 104.9 0.0 104.5 0.0 104.15 0.0 103.75 0.0 103.4 0.0 103.0 0.0 102.65 0.0 102.25 0.0 101.9 0.0 101.5 0.0 101.15 0.0 100.75 0.0 100.4 0.0 100.0 0.0 99.65 0.0 99.25 0.0 98.9 0.0 98.5 0.0 98.15 0.0 97.75 0.0 97.4 0.0 97.0 0.0 96.65 0.0 96.25 0.0 95.9 0.0 95.5 0.0 95.15 0.0 94.75 0.0 94.4 0.0 94.0 0.0 93.65 0.0 93.25 0.0 92.9 0.0 92.5 0.0 92.15 0.1 91.75 0.35 91.4 0.5 91.0 0.5 90.65 0.5 90.25 0.6 89.9 0.75 89.5 1.0 89.15 1.0 88.75 1.0 88.4 1.0 88.0 1.0 87.65 1.1 87.25 1.35 86.9 1.5 86.5 1.75 86.15 1.85 85.75 2.0 85.4 2.0 85.0 2.25 84.65 2.35 84.25 2.6 83.9 2.75 83.5 3.0 83.15 3.0 82.75 3.0 82.4 3.0 82.0 3.25 81.65 3.35 81.25 3.6 80.9 3.75 80.5 4.0 80.15 4.1 79.75 4.35 79.4 4.5 79.0 4.6 78.65 4.75 78.25 4.85 77.9 5.0 77.5 5.25 77.15 5.35 76.75 5.5 76.4 5.6 76.0 5.75 75.65 5.85 75.25 6.0 74.9 6.0 74.5 6.0 74.15 6.1 73.75 6.25 73.4 6.35 73.0 6.5 72.65 6.6 72.25 6.75 71.9 6.85 71.5 7.0 71.15 7.0 70.75 7.0 70.4 7.0 70.0 7.0 69.65 7.1 69.25 7.25 68.9 7.35 68.5 7.5 68.15 7.5 67.75 7.5 67.4 7.5 67.0 7.5 66.65 7.5 66.25 7.5 65.9 7.5 65.5 7.5 65.15 7.5 64.75 7.5 64.4 7.5 64.0 7.5 63.65 7.5 63.25 7.5 62.9 7.5 62.5 7.5 62.15 7.5 61.75 7.5 61.4 7.5 61.0 7.5 60.65 7.25 60.25 7.1 59.9 7.0 59.5 7.0 59.15 7.0 58.75 6.85 58.4 6.6 58.0 6.5 57.65 6.25 57.25 6.1 56.9 6.0 56.5 6.0 56.15 6.0 55.75 6.0 55.4 5.85 55.0 5.75 54.65 5.5 54.25 5.35 53.9 5.1 53.5 5.0 53.15 5.0 52.75 5.0 52.4 5.0 52.0 5.0 51.65 4.75 51.25 4.6 50.9 4.35 50.5 4.25 50.15 4.0 49.75 4.0 49.4 4.0 49.0 4.0 48.65 4.0 48.25 3.85 47.9 3.6 47.5 3.5 47.15 3.35 46.75 3.25 46.4 3.1 46.0 3.0 45.65 3.0 45.25 3.0 44.9 3.0 44.5 3.0 44.15 3.0 43.75 2.85 43.4 2.75 43.0 2.6 42.65 2.5 42.25 2.5 41.9 2.5 41.5 2.5 41.15 2.5 40.75 2.5 40.4 2.35 40.0 2.25 39.65 2.0 39.25 2.0 38.9 2.0 38.5 2.0 38.15 2.0 37.75 2.0 37.4 2.0 37.0 2.0 36.65 2.0 36.25 2.0 35.9 2.0 35.5 2.0 35.15 2.0 34.75 2.0 34.4 2.0 34.0 2.0 33.65 2.0 33.25 2.0 32.9 2.0 32.5 2.35 32.15 2.5 31.75 2.5 31.4 2.5 31.0 2.5 30.65 2.75 30.25 2.85 29.9 3.1 29.5 3.1 29.15 3.25 28.75 3.35 28.4 3.6 28.0 4.0 27.6 4.1 27.25 4.1 26.85 4.35 26.5 4.5 26.1 4.85 25.75 5.25 25.35 5.5 25.0 5.6 24.6 6.0 24.25 6.75 23.85 7.1 23.5 7.5 23.25 7.5 22.85 7.5 22.5 7.5 22.1 7.5 21.75 7.5 21.35 7.5 21.0 7.5 20.6 7.5 20.25 7.5 19.85 7.5 19.5 7.5 19.1 7.5 18.75 7.5 18.35 7.5 18.0 7.5 17.6 7.5 17.25 7.5 16.85 7.5 16.5 7.5 16.1 7.5 15.75 7.5 15.35 7.5 15.0 7.5 14.6 7.5 14.25 7.5 13.85 7.5 13.5 7.5 13.1 7.5 12.75 7.5 12.35 7.5 12.0 7.5 11.6 7.6 11.25 7.75 10.85 7.85 10.5 8.0 10.1 8.0 9.75 8.0 9.35 8.0 9.0 8.0 8.6 8.0 8.25 8.0 7.85 8.0 7.5 8.0 7.1 8.1 6.75 8.25 6.35 8.35 6.0 8.5 5.6 8.6 5.25 8.75 4.85 8.85 4.5 9.0 4.1 9.0 3.75 9.0 3.35 9.0 3.0 9.25 2.6 9.35 2.25 9.6 1.85 10.0 1.5 10.35 1.1 10.75 0.75 11.5 0.35 12.0 0.1 12.35 0.1 12.35 0.0 17.6 0.1 18.1 0.35 19.1 0.6 19.6 0.85 21.1 1.1 21.6 1.35 23.6 1.6 24.25 1.85 25.6 2.1 26.25 2.5 26.6 2.85 27.35 3.25 27.75 3.6 28.1 4.0 28.25 4.35 28.5 4.75 28.6 5.1 28.75 5.5 28.75 5.85 29.0 6.25 29.1 6.6 29.25 7.0 29.25 7.35 29.25 7.75 29.25 8.1 29.25 8.5 29.25 8.85 29.25 9.25 29.25 9.6 29.6 10.0 30.0 10.25 30.1 10.35 31.1 10.6 31.85 11.0 32.5 11.35 32.75 11.75 32.75 12.1 32.75 12.5 33.0 12.85 33.25 13.25 33.25 13.6 33.25 14.0 33.25 14.35 33.25 14.75 33.25 15.1 33.25 15.5 33.25 15.85 33.25 16.25 33.25 16.6 33.25 17.0 33.25 17.35 33.25 17.75 33.25 18.1 33.25 18.5 33.25 18.85 33.25 19.25 33.25 19.6 33.25 20.0 33.25 20.35 33.5 20.75 33.6 21.1 33.75 21.5 33.75 21.85 33.75 22.25 33.75 22.6 34.1 23.0 34.25 23.35 34.85 23.75 35.25 24.1 35.85 24.5 36.6 24.85 37.35 25.25 37.85 25.6 38.25 26.0 38.6 26.35 39.0 26.75 39.35 26.6 42.6 26.75 43.1 27.0 51.6 27.25 52.1 27.6 52.1 28.0 52.5 28.4 52.75 28.75 53.1 29.15 53.1 29.5 53.1 29.9 53.25 30.25 53.6 30.65 54.0 31.0 54.1 31.4 54.35 31.75 54.75 32.15 55.1 32.5 55.5 32.9 56.1 33.25 56.6 33.65 56.6 34.0 57.0 34.4 57.1 34.75 57.25 35.15 57.5 35.5 57.85 35.9 58.25 36.25 58.6 36.65 58.6 37.0 58.6 37.4 58.6 37.75 58.6 38.15 58.25 38.5 58.1 38.9 58.0 39.25 57.6 39.65 57.6 40.0 57.35 40.4 57.1 40.75 57.1 41.15 56.85 41.5 56.6 41.9 56.6 42.25 56.6 42.65 56.6 43.0 56.6 43.4 56.6 43.75 56.6 44.15 56.6 44.5 56.6 44.9 56.6 45.25 56.6 45.65 56.6 46.0 56.6 46.4 56.6 46.75 56.6 47.15 57.0 47.5 57.1 47.9 57.1 48.25 57.25 48.65 57.6 49.0 58.0 49.4 58.25 49.75 58.6 50.15 58.6 50.5 58.6 50.9 58.6 51.25 58.6 51.65 58.6 52.0 59.0 52.4 59.1 52.75 59.1 53.15 59.1 53.5 59.1 53.9 59.35 54.25 59.6 54.65 60.1 55.0 60.85 55.4 61.25 55.75 61.6 56.15 62.0 56.5 62.1 56.9 62.6 57.25 63.35 57.65 64.1 58.0 64.85 58.4 65.6 58.75 66.35 59.15 67.0 59.5 67.35 59.9 68.1 60.25 68.6 60.5 69.6 60.75 70.1 61.15 70.5 61.5 70.85 61.9 71.1 62.25 71.1 62.65 71.1 63.0 71.1 63.4 71.35 63.75 71.6 64.15 71.6 64.5 71.6 64.9 71.6 65.25 71.75 65.65 72.0 66.0 72.35 66.4 72.6 66.75 72.6 67.15 73.0 67.5 73.35 67.9 74.1 68.25 74.85 68.65 75.6 69.0 76.35 69.4 80.75 69.4 81.5 69.0 82.0 68.65 82.35 68.25 82.75 67.9 83.5 67.5 84.0 67.15 84.5 66.75 85.25 66.4 85.85 66.15 89.1 66.25 89.6 66.5 90.75 66.4 91.35 66.15 94.15 66.25 94.9 66.25 95.25 65.9 95.9 65.65 96.75 65.4 97.5 65.0 98.0 64.75 98.4 64.65 99.75 64.4 100.4 64.15 101.15 64.25 101.9 64.65 102.5 65.0 102.65 65.4 102.75 65.75 103.15 66.15 103.15 66.5 103.4 66.9 105.65 67.25 106.15 67.5 107.15 67.75 107.65 68.15 108.0 68.5 108.4 68.9 108.65 69.25 108.65 69.65 108.65 70.0 109.0 70.4 109.15 70.75 109.15 71.15 109.65 71.5 110.4 71.9 110.65 72.25 110.65 72.65 110.65 73.0 110.65 73.4 110.65 73.75 110.65 74.15 110.65 74.5 110.5 74.9 110.15 75.25 109.9 75.65 109.75 76.0 109.5 76.4 109.4 76.75 109.15 77.15 108.9 77.5 108.5 77.9 108.4 78.25 108.15 78.65 108.0 79.0 107.75 79.4 107.65 79.75 107.4 80.15 107.25 80.5 107.0 80.9 106.65 81.25 106.9 81.65 107.5 82.0 107.65 82.4 107.9 82.75 108.15 83.15 108.15 83.5 108.15 83.9 108.15 84.25 108.15 84.65 108.5 85.0 108.9 85.4 109.65 85.75 110.4 86.15 111.0 86.4 111.15 86.5 112.15 86.75 112.65 87.15 113.15 87.5 113.9 87.9 114.65 88.25 115.4 88.65 116.0 89.0 116.15 89.4 116.4 89.75 116.65 90.15 116.65 90.5 116.65 90.9 116.9 91.25 117.15 91.65 117.5 92.0 117.9 92.4 118.15 92.75 118.15 93.15 118.15 93.5 118.5 93.9 119.15 94.25 119.65 94.65 120.0 95.0 120.4 95.4 120.65 95.75 120.65 96.15 120.65 96.5 120.65 96.9 120.65 97.25 120.65 97.65 120.65 98.0 120.65 98.4 120.65 98.75 120.65 99.15 120.65 99.5 120.65 99.9 120.65 100.25 120.65 100.65 120.65 101.0 120.65 101.4 120.65 101.75 120.65 102.15 120.65 102.5 120.4 102.9 120.15 103.25 120.4 103.65 121.0 103.9 121.15 104.0 122.15 104.25 122.9 104.65 123.5 105.0 123.9 105.4 124.25 105.75 124.75 106.15 125.15 106.5 125.5 106.9 125.9 107.25 126.25 107.65 126.65 108.0 127.4 108.4 129.25 108.4 129.9 108.15 136.15 108.25 136.65 108.5 137.65 108.75 138.15 109.15 138.5 109.5 138.9 109.9 144.65 110.25 145.4 110.65 146.0 111.0 146.4 111.4 147.15 111.75 147.65 112.15 147.65 112.5 148.0 112.9 148.15 113.25 148.25 113.65 148.5 114.0 148.65 114.4 148.5 114.75 148.15 115.15 148.15 115.5 148.15 115.9 148.25 116.25 148.65 116.65 148.65 117.0 149.0 117.4 149.65 117.75 150.4 118.15 151.0 118.5 151.4 118.9 151.75 119.25 152.15 119.65 152.15 120.0 152.15 120.4 152.15 120.75 152.15 121.15 152.5 121.5 152.65 121.9 152.65 122.25 152.65 122.65 153.15 123.0 153.9 123.4 154.25 123.75 154.65 124.15 155.0 124.4 155.15 124.5 157.25 124.4 158.0 124.0 158.5 123.75 158.9 123.65 161.15 123.75 161.65 124.0 162.65 124.25 163.15 124.65 163.65 125.0 164.4 125.4 166.75 125.4 167.15 125.0 167.5 124.65 167.9 124.25 168.25 123.9 168.65 123.5 169.0 123.15 169.15 122.75 169.25 122.4 169.65 122.0 170.0 121.75 170.4 121.65 176.15 121.4 176.15 121.0 176.5 120.65 176.9 120.25 177.25 119.9 177.65 119.5 178.25 119.15 178.9 118.75 179.25 118.4 180.0 118.0 180.5 117.65 181.0 117.25 181.75 116.9 182.4 116.65 183.25 116.4" fill="url(#gradient0)" fill-rule="evenodd" stroke="none"/>
  </g>
  <defs>
    <linearGradient gradientTransform="matrix(1.0E-4, -0.0928, 0.1337, 1.0E-4, 167.4, 80.35)" gradientUnits="userSpaceOnUse" id="gradient0" spreadMethod="pad" x1="-819.2" x2="819.2">
      <stop offset="0.0" stop-color="#ab8241" stop-opacity="0.101960786"/>
      <stop offset="1.0" stop-color="#6483a3" stop-opacity="0.101960786"/>
    </linearGradient>
  </defs>
</svg>
