<?xml version="1.0" encoding="UTF-8" standalone="no"?>
<svg xmlns:xlink="http://www.w3.org/1999/xlink" height="24.3px" width="312.75px" xmlns="http://www.w3.org/2000/svg">
  <g transform="matrix(1.0, 0.0, 0.0, 1.0, -40.15, -71.75)">
    <path d="M317.7 77.8 Q319.9 78.85 320.7 79.7 L322.45 82.3 322.9 86.9 322.7 89.3 Q322.4 90.5 321.45 91.7 L320.5 92.95 318.8 93.95 314.5 95.0 311.7 95.55 Q307.7 93.85 307.05 93.15 306.7 91.7 306.0 90.7 305.45 89.95 305.45 88.95 305.45 85.4 305.75 83.9 306.35 81.15 308.45 78.8 L309.95 77.5 Q311.05 76.7 311.8 76.45 L315.65 76.7 316.4 76.95 317.7 77.8 M320.8 85.85 Q320.8 83.4 318.8 81.65 316.95 80.0 314.45 79.8 311.8 79.6 310.05 81.15 308.05 82.95 308.05 86.5 308.05 88.3 310.25 90.4 312.6 92.65 315.15 92.65 316.85 92.65 318.8 90.45 320.8 88.2 320.8 85.85 M335.05 78.65 L336.2 77.0 Q336.95 76.0 337.9 75.3 L340.1 73.6 344.55 73.7 Q349.3 75.65 351.35 79.75 352.9 82.75 352.9 86.65 352.9 89.15 351.45 91.75 349.05 96.05 343.8 96.05 337.7 96.05 335.05 90.8 334.2 89.15 333.8 87.1 L333.55 85.2 333.75 81.9 Q334.1 80.0 335.05 78.65 M336.95 80.0 Q336.3 81.4 336.3 84.35 336.3 86.55 336.8 88.4 336.95 89.0 338.95 90.45 L339.85 91.65 Q340.9 92.4 344.8 92.4 345.8 92.4 347.05 91.15 L348.65 89.05 349.3 87.05 349.65 84.85 Q349.65 79.5 343.55 77.7 338.55 76.55 336.95 80.0 M82.35 87.75 Q82.35 88.75 81.8 89.5 81.1 90.5 80.75 91.95 80.1 92.65 76.1 94.35 L73.3 93.8 69.0 92.75 Q67.95 92.45 67.3 91.75 L66.35 90.5 Q65.4 89.3 65.1 88.1 L64.9 85.7 65.35 81.1 67.1 78.5 Q67.9 77.65 70.1 76.6 L71.4 75.75 72.15 75.5 76.0 75.25 77.85 76.3 79.35 77.6 Q81.45 79.95 82.05 82.7 82.35 84.2 82.35 87.75 M52.95 72.25 L55.15 73.95 56.85 75.65 58.0 77.3 Q58.95 78.65 59.3 80.55 L59.5 83.85 59.25 85.75 Q58.85 87.8 58.0 89.45 55.35 94.7 49.25 94.7 44.0 94.7 41.6 90.4 40.15 87.8 40.15 85.3 40.15 81.4 41.7 78.4 43.75 74.3 48.5 72.35 L52.95 72.25 M56.1 78.65 Q54.5 75.2 49.5 76.35 43.4 78.15 43.4 83.5 43.4 84.2 43.75 85.7 L44.4 87.7 Q44.85 88.65 46.0 89.8 47.25 91.05 48.25 91.05 52.15 91.05 53.2 90.3 53.7 89.4 54.1 89.1 56.1 87.65 56.25 87.05 56.75 85.2 56.75 83.0 56.75 80.05 56.1 78.65 M77.75 79.95 Q76.0 78.4 73.35 78.6 70.85 78.8 69.0 80.45 67.0 82.2 67.0 84.65 67.0 87.0 69.0 89.25 70.95 91.45 72.65 91.45 75.2 91.45 77.55 89.2 79.75 87.1 79.75 85.3 79.75 81.75 77.75 79.95" fill="#ffffff" fill-rule="evenodd" stroke="none"/>
  </g>
</svg>
