<?xml version="1.0" encoding="UTF-8" standalone="no"?>
<svg xmlns:xlink="http://www.w3.org/1999/xlink" height="288.0px" width="560.25px" xmlns="http://www.w3.org/2000/svg">
  <g transform="matrix(1.0, 0.0, 0.0, 1.0, 302.75, 101.65)">
    <path d="M68.35 -94.65 L84.75 -92.55 109.25 -90.15 Q121.35 -88.6 129.25 -84.25 135.25 -80.9 137.7 -71.9 138.65 -68.4 139.5 -59.4 140.0 -54.85 141.45 -46.7 L143.65 -33.75 143.75 -33.25 149.0 -33.75 158.7 -32.45 Q167.85 -31.15 180.75 -31.0 L191.25 -30.45 Q194.0 -29.75 197.25 -29.5 L212.0 -28.0 244.7 -24.9 Q252.75 -23.85 252.75 -21.5 L252.7 -21.2 252.85 -20.7 253.0 -18.15 253.75 -12.9 Q253.95 -11.4 256.4 -7.65 257.25 -6.4 257.45 -4.9 L257.5 -2.5 Q257.5 -0.05 256.9 4.0 256.25 8.05 256.25 12.25 L256.2 14.15 Q256.15 15.75 256.35 16.65 L257.1 20.8 257.1 20.9 Q257.5 22.75 257.5 25.8 257.5 29.15 255.15 35.75 253.2 41.35 248.25 45.65 245.9 47.7 242.55 50.0 L236.4 54.0 230.25 57.9 Q224.9 60.9 221.5 60.9 L221.15 60.9 220.85 61.0 220.35 60.9 220.2 60.85 220.15 60.4 Q220.15 59.95 223.05 56.3 226.15 51.85 226.85 47.75 L228.15 41.55 Q228.9 37.85 228.9 35.5 228.9 30.85 227.75 28.85 226.35 26.35 222.5 26.35 217.45 26.35 213.8 31.05 L208.75 39.15 Q207.9 40.35 207.15 42.6 L205.9 46.1 202.75 52.85 199.5 59.7 196.25 66.5 Q195.15 68.7 193.3 73.4 191.5 77.25 188.75 79.75 L189.0 79.9 Q187.4 81.35 183.2 83.0 L175.75 85.75 160.1 92.25 142.45 100.1 142.25 100.75 141.75 100.4 140.8 100.8 122.85 108.9 107.4 116.45 Q97.55 121.15 89.5 123.25 87.9 123.7 73.65 129.2 60.3 134.4 59.1 134.4 57.85 134.4 57.6 134.0 L57.6 133.55 Q57.6 132.25 58.25 132.0 L59.05 129.35 60.0 126.0 60.6 122.85 61.15 119.65 Q62.35 109.45 62.35 107.15 L61.9 92.25 61.2 88.1 60.4 84.4 Q60.1 82.5 58.5 79.95 57.0 77.6 57.0 76.65 L57.0 76.45 56.85 76.25 Q55.95 75.05 53.35 73.8 49.25 71.75 44.05 71.75 41.9 71.75 35.9 73.9 L29.75 76.25 Q27.6 77.2 25.1 79.1 22.65 80.9 21.4 82.5 15.8 89.65 11.85 95.65 10.2 98.15 8.2 102.15 L4.75 109.0 Q3.55 111.25 1.9 116.15 L-0.25 122.0 -0.45 122.0 -1.8 125.5 -4.25 131.5 -8.55 144.85 Q-10.95 152.35 -15.05 158.0 -16.05 159.4 -18.2 161.25 L-21.75 164.0 Q-24.5 165.8 -29.05 167.3 -32.8 168.55 -32.8 168.75 -32.8 169.1 -33.2 169.1 L-33.9 169.0 -34.05 168.9 -34.3 169.0 -36.65 169.65 -42.25 170.2 -49.1 170.5 -56.05 169.9 Q-57.95 169.45 -58.2 169.05 L-60.55 168.8 -72.05 166.5 -82.4 163.85 -94.9 161.4 -111.75 158.5 -127.75 155.7 -141.3 153.15 -148.8 151.55 -155.3 150.4 -168.5 149.0 -171.45 148.1 -172.5 147.9 -173.85 148.2 -175.25 148.5 Q-177.9 148.5 -181.9 147.0 L-186.15 145.35 Q-189.25 144.8 -191.5 143.75 L-196.5 142.25 -198.95 141.75 -200.9 141.35 -206.2 141.0 -206.8 140.65 -209.45 140.0 -212.9 139.1 Q-216.0 138.1 -216.7 137.55 -217.5 137.0 -217.5 135.55 L-217.45 134.7 Q-219.9 134.3 -227.25 131.75 L-239.65 127.35 Q-242.5 126.45 -249.0 123.75 L-261.05 120.1 Q-273.7 116.45 -281.0 112.9 -286.05 110.6 -288.4 109.25 -292.15 107.15 -293.3 105.7 L-293.45 106.1 -294.0 105.0 Q-294.45 103.25 -296.65 98.1 L-299.5 91.15 Q-299.95 90.15 -301.9 87.6 L-302.5 86.0 -302.75 84.2 -302.15 81.15 -301.25 78.4 Q-300.25 76.75 -298.85 75.6 -297.45 74.45 -296.15 74.4 L-296.55 73.75 -296.6 73.45 -296.5 73.4 Q-297.7 69.95 -298.35 65.55 L-299.5 54.85 -300.75 43.25 -301.0 33.85 Q-301.0 29.2 -300.3 25.35 L-300.25 25.05 -300.4 24.15 Q-300.4 22.15 -298.65 20.4 L-298.6 20.35 -298.65 20.15 -298.55 19.5 -298.1 19.55 -297.6 18.45 Q-297.3 17.75 -296.85 17.6 L-296.1 16.4 Q-294.45 14.15 -293.4 13.6 L-289.75 11.6 Q-287.65 10.5 -285.0 9.5 -278.55 7.15 -268.5 5.6 -264.55 5.0 -261.85 3.25 L-259.1 1.2 Q-258.8 0.6 -257.7 0.15 L-255.0 -0.8 -248.5 -2.8 -242.25 -4.75 Q-237.7 -6.05 -232.5 -7.0 L-223.65 -8.9 Q-218.2 -10.2 -215.55 -11.05 L-211.8 -12.05 -206.25 -13.25 -201.55 -14.25 -197.5 -15.25 -176.55 -19.3 Q-165.1 -21.75 -152.3 -23.15 L-149.65 -23.5 -148.65 -23.7 -146.9 -24.4 Q-143.7 -25.5 -143.65 -25.55 L-139.15 -29.05 Q-137.85 -30.2 -135.85 -33.15 L-134.55 -34.85 -134.85 -34.85 -133.8 -36.3 -130.4 -40.8 -127.9 -44.75 -125.55 -48.75 -119.1 -57.8 -114.15 -64.5 -111.85 -68.45 -109.5 -72.3 -104.05 -80.25 -101.65 -84.1 -99.0 -88.05 -96.4 -92.3 Q-95.1 -94.65 -93.9 -95.3 -93.85 -95.5 -93.8 -95.25 -92.3 -96.7 -89.0 -97.55 L-82.5 -98.65 Q-71.5 -100.85 -43.65 -101.45 L-43.6 -101.5 Q-42.55 -101.8 -35.9 -101.55 L-30.8 -100.95 -26.0 -100.55 -21.5 -101.0 -18.25 -101.25 -8.25 -100.7 -4.4 -100.05 7.75 -99.0 14.25 -98.35 20.85 -97.8 35.25 -97.35 47.1 -96.8 68.35 -94.65 M-22.0 -20.85 L-18.85 -20.5 -15.4 -20.85 Q-7.7 -21.0 -1.6 -22.15 L-0.5 -22.1 Q0.25 -22.1 0.45 -22.55 L0.45 -24.0 Q0.3 -25.2 1.9 -24.6 2.15 -24.45 2.9 -24.25 L3.9 -24.0 12.25 -23.6 22.65 -24.05 25.25 -23.75 25.7 -23.3 26.5 -23.05 29.0 -22.8 32.25 -21.75 40.15 -19.35 44.4 -17.6 Q47.8 -16.35 48.55 -16.2 L54.15 -14.45 55.4 -13.85 55.1 -13.25 54.5 -12.55 53.8 -11.35 53.15 -10.4 57.9 -10.15 Q63.1 -10.15 66.4 -12.3 69.15 -14.1 71.0 -17.75 L73.15 -21.9 74.8 -25.15 Q75.1 -27.6 77.2 -34.6 79.65 -42.7 79.65 -43.65 L80.55 -47.45 81.65 -52.0 83.0 -60.0 Q83.4 -62.5 85.15 -68.25 86.45 -73.3 87.7 -75.7 L73.35 -77.25 45.65 -79.0 42.35 -79.4 33.8 -80.45 33.05 -80.55 10.9 -82.25 -1.7 -83.0 -5.9 -83.25 -14.3 -83.75 -27.4 -84.5 -30.45 -84.7 -43.75 -85.5 -52.6 -86.45 -59.8 -87.0 -77.4 -87.2 -83.25 -87.4 -90.0 -87.75 -90.45 -87.95 -91.15 -88.15 -94.0 -88.05 -96.95 -83.6 -102.9 -74.25 Q-104.45 -71.5 -107.55 -67.15 L-112.55 -60.15 -122.35 -45.55 Q-130.0 -33.75 -130.0 -32.25 -130.0 -31.6 -129.8 -31.5 L-127.4 -31.0 -127.1 -31.0 -111.6 -29.45 -109.95 -29.3 -105.2 -29.65 -98.4 -30.55 -93.9 -31.65 -90.05 -32.7 -83.8 -33.1 -77.4 -32.6 -72.35 -32.3 -68.2 -31.9 -66.4 -32.15 -65.25 -32.4 -64.95 -32.45 -63.15 -31.65 -61.65 -30.85 Q-60.4 -30.25 -57.8 -29.6 L-53.75 -28.7 -49.6 -27.95 -44.75 -27.05 Q-43.85 -26.8 -42.7 -26.35 L-40.8 -25.7 Q-40.1 -25.5 -39.5 -24.95 L-38.65 -24.0 -38.2 -23.2 -37.9 -22.35 -30.15 -21.65 -22.0 -20.85 M125.25 -69.5 Q124.05 -71.0 121.9 -71.65 L120.35 -71.8 115.45 -72.05 116.55 -70.85 Q117.5 -69.4 117.5 -66.15 117.5 -63.75 116.75 -62.45 115.15 -59.65 110.35 -59.65 104.7 -59.65 102.65 -63.25 101.65 -65.0 101.65 -67.55 101.65 -69.15 102.3 -70.65 L103.15 -72.05 Q101.4 -71.85 100.3 -71.25 L99.7 -71.2 Q98.85 -71.1 98.4 -70.5 L98.4 -70.65 Q98.0 -70.3 97.75 -68.9 L97.35 -66.8 97.2 -66.0 Q97.0 -63.9 97.1 -62.75 L97.1 -40.3 Q97.1 -14.35 96.8 -7.05 L112.15 -8.85 111.9 -10.55 Q111.9 -13.6 113.75 -16.75 L113.8 -16.8 113.8 -17.0 Q113.9 -18.05 115.05 -18.7 L115.25 -18.8 Q117.4 -21.2 120.6 -21.65 127.8 -22.75 131.4 -18.25 133.75 -15.3 133.85 -11.95 L135.85 -12.3 136.3 -12.25 135.95 -13.1 135.65 -15.05 Q135.35 -16.4 135.4 -19.0 L135.25 -22.95 134.9 -26.9 134.1 -34.6 133.1 -42.5 130.4 -58.25 Q129.6 -63.25 128.65 -66.05 128.35 -67.0 127.35 -68.05 L125.95 -69.25 125.25 -69.5 M112.85 -72.4 Q112.6 -72.65 111.65 -72.9 L110.75 -73.1 112.75 -70.75 Q113.4 -69.75 113.85 -68.2 L114.25 -65.75 Q114.25 -64.45 113.25 -62.8 112.45 -61.5 111.4 -60.95 115.15 -61.25 116.15 -63.5 116.75 -64.8 116.4 -66.25 116.4 -69.05 115.35 -70.4 L113.15 -72.1 113.1 -72.1 112.85 -72.4 M90.65 -39.5 L88.15 -31.0 86.1 -23.15 86.15 -22.6 85.1 -19.2 Q84.05 -15.7 84.0 -13.75 83.55 -8.3 83.65 -5.3 L94.2 -6.8 94.25 -6.8 94.1 -53.5 92.8 -47.75 Q91.7 -42.65 90.65 -39.5 M118.5 -19.7 L119.8 -19.9 124.2 -19.6 126.7 -17.8 Q128.4 -15.55 128.95 -13.7 129.35 -12.25 129.35 -9.8 129.35 -7.75 127.9 -4.8 L127.1 -3.4 Q128.9 -4.25 130.4 -6.25 131.35 -7.5 131.9 -8.7 L132.5 -10.05 132.8 -12.4 132.75 -13.0 132.35 -13.65 132.3 -13.7 Q131.6 -15.7 129.6 -17.7 126.8 -20.55 124.75 -20.55 L119.05 -19.95 118.5 -19.7 M148.0 -32.4 L145.0 -32.15 143.9 -32.2 143.95 -31.9 143.95 -31.8 155.5 -30.75 161.25 -30.05 175.05 -29.55 189.25 -27.6 191.0 -27.25 192.7 -27.05 196.85 -26.85 202.3 -26.4 207.1 -25.6 210.45 -25.3 235.2 -23.3 236.55 -23.4 244.6 -23.2 246.95 -22.6 248.05 -22.1 249.9 -20.65 250.85 -19.0 251.25 -15.85 251.55 -12.6 Q251.65 -11.55 252.95 -9.5 L254.8 -6.2 Q255.35 -4.25 255.0 0.15 L254.9 6.65 254.3 13.05 Q254.05 16.6 254.3 19.45 L254.45 25.85 254.4 30.2 Q254.3 32.8 253.7 34.7 L252.85 36.85 252.0 39.2 252.0 39.3 254.0 35.65 255.35 30.9 256.4 25.8 256.15 23.5 Q255.65 21.9 255.65 21.3 L255.9 20.3 256.05 19.95 Q255.45 18.0 255.35 16.65 L255.25 12.15 Q255.25 9.95 255.9 4.25 L256.5 -2.4 Q256.5 -4.95 254.95 -7.7 252.9 -11.25 252.65 -12.15 252.1 -14.35 252.0 -17.0 L251.55 -19.95 251.3 -21.25 251.15 -21.4 249.75 -22.55 246.65 -23.25 245.6 -23.45 245.1 -23.7 240.4 -24.25 239.4 -24.2 209.35 -27.0 194.25 -28.55 187.7 -29.3 178.0 -30.05 155.45 -31.6 148.0 -32.55 148.0 -32.4 M148.9 -7.75 L148.9 -7.8 148.8 -7.9 148.9 -7.75 M151.65 -8.45 L149.35 -7.8 149.35 -7.75 149.85 -7.75 149.85 -7.45 150.0 -4.25 Q150.05 -2.8 150.35 -1.7 L150.65 -0.65 152.85 2.5 155.25 6.0 Q156.15 7.95 156.85 12.55 157.5 16.75 157.5 19.85 L157.25 26.3 157.25 26.8 157.05 28.7 156.15 38.4 155.65 42.95 155.35 46.05 155.25 47.75 Q155.25 51.1 154.9 53.05 154.5 55.0 154.5 56.85 154.5 58.5 155.35 66.15 155.35 68.3 154.85 70.15 L153.6 75.0 152.85 77.05 151.85 79.25 Q151.55 79.9 151.3 81.35 L150.75 83.6 150.35 85.05 150.15 85.7 149.4 87.9 Q148.85 89.3 146.9 92.25 L146.55 92.85 145.5 94.4 144.5 96.0 144.15 96.55 143.75 97.25 143.6 97.55 143.2 98.3 143.1 98.55 143.6 98.3 143.75 98.25 144.15 98.05 143.95 98.05 144.25 97.3 Q144.75 96.15 145.75 94.55 L146.05 94.1 146.8 92.95 148.4 90.75 Q149.8 89.0 150.7 86.75 L151.35 84.8 151.9 82.5 Q152.35 80.6 154.8 73.8 156.4 69.25 156.4 65.8 L156.05 63.4 Q155.65 61.6 155.65 59.65 155.65 56.45 156.4 48.15 L156.65 45.8 157.2 39.5 158.4 26.55 158.45 26.05 158.7 19.65 Q158.7 16.55 158.2 12.75 157.55 8.1 156.55 6.35 L154.15 3.05 Q152.5 0.9 152.05 -0.3 L151.65 -1.95 Q151.3 -3.8 151.3 -6.9 L151.35 -7.7 151.65 -8.45 M-230.5 -6.25 Q-241.7 -4.05 -248.6 -1.8 L-256.3 0.95 -257.15 1.85 -255.4 2.8 -253.5 3.25 -251.15 3.5 -247.65 3.85 -242.4 4.6 -231.25 6.05 -220.9 7.6 -211.7 9.2 -201.65 10.6 -189.8 12.1 -181.35 13.0 -181.5 13.2 -180.5 13.0 -179.75 12.7 -179.15 12.25 -176.55 9.9 Q-175.2 8.9 -170.5 6.75 -165.85 4.6 -157.45 2.55 L-147.15 0.15 -119.05 -6.35 -113.55 -7.5 -116.55 -9.6 Q-119.95 -12.1 -122.5 -14.75 L-124.4 -17.45 Q-125.65 -19.2 -127.25 -20.0 L-130.85 -22.1 Q-134.2 -23.75 -138.0 -23.75 L-144.75 -23.5 -144.75 -23.3 -145.25 -23.3 Q-147.3 -22.25 -148.5 -22.25 L-148.65 -22.25 -156.5 -21.65 -163.65 -20.55 -168.95 -19.7 -174.8 -18.55 -196.0 -14.5 -213.3 -10.3 -230.5 -6.25 M-101.8 -27.3 L-101.85 -27.2 -101.45 -27.25 -101.8 -27.3 M-172.6 14.9 Q-165.2 16.45 -157.75 17.25 L-152.25 18.5 -147.8 19.15 -144.9 19.15 -139.75 19.25 -135.9 20.35 -127.15 21.6 -117.8 23.1 -108.75 24.25 -70.75 29.35 -63.35 28.55 -56.5 27.75 -56.1 27.75 -56.0 27.8 -37.3 23.9 -15.75 19.5 11.15 14.35 16.75 13.0 Q20.2 12.05 22.5 11.75 L27.5 10.55 Q16.45 10.65 11.5 10.85 L9.0 11.1 -16.5 11.5 Q-35.8 11.5 -41.6 11.0 L-69.0 7.75 Q-80.5 6.35 -88.0 4.0 L-93.7 2.15 Q-96.6 1.2 -99.75 -0.25 -101.55 -1.05 -104.95 -3.0 L-108.8 -5.05 Q-110.2 -5.6 -111.7 -6.45 L-119.8 -4.5 -132.25 -1.25 -143.15 1.75 Q-152.5 4.6 -160.45 8.15 -167.65 11.4 -172.55 14.65 L-172.65 14.9 -172.6 14.9 M-30.0 -19.7 L-29.95 -19.75 -30.05 -19.8 -30.0 -19.7 M-31.55 44.1 Q-38.2 46.7 -40.45 47.75 -45.0 49.8 -47.0 51.65 -52.8 57.05 -54.45 61.25 -51.75 61.9 -49.2 62.8 L-48.05 60.25 -46.0 56.6 -43.0 53.1 -39.0 50.6 Q-34.95 48.1 -29.2 45.9 -22.4 43.3 -14.5 41.75 L-14.15 42.0 -11.75 41.4 -6.75 40.0 -1.25 39.1 1.85 38.4 4.75 38.0 8.8 37.25 14.15 35.85 24.85 33.1 Q36.5 29.8 47.75 27.5 L59.55 24.5 48.05 26.3 36.25 28.4 Q27.45 29.75 15.15 32.75 5.05 35.25 -1.0 36.25 L-3.15 36.85 -18.25 40.5 -25.0 42.1 -31.55 44.1 M-15.15 42.85 L-15.5 42.9 -15.35 43.05 -15.15 42.85 M-49.5 63.9 Q-56.05 61.45 -68.8 59.1 -90.0 55.15 -113.15 52.5 L-126.25 50.9 -141.15 49.25 -154.1 47.7 -164.4 46.0 -183.7 43.0 Q-196.95 40.8 -201.4 39.5 -210.8 36.8 -234.8 33.1 L-242.65 31.65 -249.8 29.85 Q-254.0 28.4 -265.15 26.5 L-277.75 24.65 -286.65 23.25 Q-289.5 22.5 -295.45 21.5 L-297.55 21.05 -297.9 21.55 -298.7 22.9 -298.6 22.95 -298.85 24.2 Q-297.35 24.35 -294.4 25.75 -287.95 27.0 -287.0 28.0 L-287.05 28.35 Q-287.1 28.5 -287.5 28.5 L-288.1 28.5 -290.15 29.8 Q-291.85 30.75 -292.25 31.15 L-293.45 32.75 -294.5 34.5 Q-295.35 36.6 -295.6 38.35 L-295.75 41.85 -295.35 50.95 Q-295.05 56.7 -295.25 60.0 -295.5 65.0 -294.75 69.0 L-293.8 71.25 -292.4 73.5 -290.65 76.0 Q-289.55 77.5 -289.5 78.0 L-289.5 78.1 -290.0 78.15 Q-291.7 78.15 -294.15 76.25 L-295.05 75.5 -295.15 75.65 -295.5 76.0 -295.9 75.05 Q-298.1 76.15 -299.75 78.7 -301.65 81.55 -301.65 84.15 -301.65 85.8 -300.55 87.3 -298.9 89.5 -298.25 91.1 L-295.4 98.0 -294.1 101.5 -292.7 104.9 -292.75 104.9 -292.55 105.05 -292.0 105.75 -290.15 106.85 -288.75 107.75 -281.25 111.5 Q-272.15 115.65 -261.0 118.9 -252.75 121.35 -239.0 126.25 -225.75 131.0 -217.15 133.6 L-216.8 133.5 -216.7 133.75 -216.15 133.9 -216.25 134.65 -216.55 134.7 -216.5 135.9 Q-216.15 137.0 -213.5 137.65 L-206.65 139.25 -206.0 139.7 -200.5 140.15 -198.7 140.4 -196.75 140.9 -186.3 144.3 Q-177.35 147.25 -175.25 147.25 L-173.95 146.95 -172.6 146.65 -169.7 147.35 -167.15 148.0 -158.2 148.55 -153.5 149.4 -147.3 150.55 -140.9 152.0 -126.75 154.55 -109.75 157.4 -94.15 160.15 -81.9 162.75 -64.05 167.0 -56.85 167.8 -56.95 168.35 -56.15 168.65 -49.0 169.25 -36.45 168.45 -30.45 165.2 -27.1 159.75 Q-24.9 156.0 -24.5 153.75 -24.3 152.5 -22.0 147.1 L-19.75 141.9 Q-19.75 140.55 -20.85 138.8 -22.1 136.9 -23.75 136.25 L-25.75 134.75 Q-26.8 133.8 -26.9 133.9 -27.2 134.3 -28.4 134.1 L-31.15 133.85 Q-35.8 134.1 -41.6 133.7 L-49.5 132.75 Q-49.6 132.35 -49.35 132.15 L-47.0 131.65 -43.2 131.2 -42.0 130.5 Q-40.85 129.9 -39.75 127.9 L-38.55 125.0 -37.5 122.5 Q-37.0 122.65 -37.0 123.35 L-37.2 124.5 Q-36.85 125.35 -36.7 127.35 -36.5 129.5 -35.55 130.4 -34.5 130.0 -34.2 128.1 -34.05 127.25 -34.05 125.2 L-34.8 111.75 Q-34.8 105.75 -35.3 98.25 -36.1 87.8 -36.55 84.75 -36.9 80.25 -37.55 78.0 L-39.05 72.75 Q-41.95 67.7 -45.65 65.65 -47.0 64.9 -48.95 64.15 L-49.0 64.25 -49.45 64.1 -49.5 63.9 M-67.6 81.7 L-59.9 83.5 Q-55.7 84.65 -54.45 85.7 L-52.75 88.25 -52.8 88.5 -52.8 88.6 -53.0 88.65 Q-52.65 90.0 -52.65 91.4 L-52.25 93.15 -51.8 95.35 -51.8 99.0 Q-51.8 104.05 -52.3 107.5 L-52.65 112.4 Q-52.95 114.5 -54.2 115.25 L-54.05 115.25 -54.0 115.65 Q-54.0 116.1 -54.75 116.5 -55.75 117.1 -57.75 117.1 -61.7 117.1 -65.9 116.05 L-73.5 114.35 -80.85 113.1 -90.0 111.6 Q-103.0 109.45 -104.5 108.75 L-107.85 106.6 Q-108.6 106.3 -109.5 105.6 L-109.4 105.85 -109.3 106.55 Q-109.3 108.1 -111.75 108.1 -121.3 108.1 -141.65 103.95 L-165.65 98.9 Q-176.9 97.25 -179.9 95.1 -182.75 93.1 -182.75 87.0 L-182.75 84.8 -182.7 84.5 -182.75 84.5 -182.75 83.8 -182.65 83.25 -181.25 83.45 -173.25 84.1 -169.8 85.05 -166.4 85.75 -148.9 89.0 -128.4 92.0 Q-117.25 93.55 -112.8 94.95 L-113.15 91.5 Q-114.0 83.35 -114.0 79.65 L-114.0 79.0 -115.25 79.1 -120.45 78.0 -125.65 76.9 -136.3 76.3 -144.05 75.0 -148.65 74.0 -152.65 72.9 -160.5 71.35 -165.95 70.45 -171.75 69.35 -177.1 68.4 Q-180.15 67.9 -181.25 67.0 -183.45 65.35 -183.85 64.1 L-184.0 61.15 -184.0 58.05 -183.75 56.1 -183.8 55.9 -183.65 55.65 -183.5 55.25 -183.25 55.5 Q-182.25 55.2 -179.3 55.45 -174.2 55.8 -167.9 57.4 -166.25 58.1 -159.85 59.2 L-149.65 60.9 -127.15 64.4 -114.25 66.2 Q-108.45 67.1 -108.0 68.15 L-108.25 68.75 -108.3 69.5 Q-108.3 70.9 -109.4 71.75 -111.2 73.15 -112.0 74.35 L-112.85 76.15 -112.75 76.0 -112.75 75.9 -112.3 75.45 -112.25 75.4 Q-111.7 74.85 -110.2 74.25 -108.3 73.45 -107.5 74.25 L-107.25 74.15 Q-99.65 74.8 -95.4 75.75 L-84.4 77.75 -76.5 79.6 -67.6 81.7 M-19.05 86.6 L-19.0 90.5 -18.35 90.5 -15.0 89.5 -8.5 87.9 -7.05 87.65 Q-6.3 87.4 -6.15 86.85 L-6.15 83.55 -12.7 85.2 -18.5 86.6 -19.05 86.6 M-19.1 93.85 L-19.0 96.65 -19.0 97.8 Q-17.7 97.1 -13.35 95.85 L-6.55 94.1 -6.75 93.0 -6.7 91.1 -6.65 90.75 -7.6 91.1 -10.75 92.0 -13.75 93.0 -18.35 93.9 -19.1 93.85 M-95.7 117.15 Q-94.0 115.9 -87.75 117.05 -84.85 117.55 -78.75 119.15 -76.95 120.2 -71.9 121.0 -62.75 122.25 -61.8 122.9 L-61.65 123.25 -61.75 123.55 -62.0 123.65 -61.9 124.65 -62.5 127.1 Q-63.2 129.25 -63.85 129.25 L-70.4 128.1 -76.0 127.0 -80.6 125.85 -85.25 124.75 Q-94.7 123.05 -96.0 122.3 -96.8 121.9 -96.85 121.15 L-96.75 119.35 Q-96.9 117.1 -96.25 116.5 L-95.65 116.5 -95.7 117.15 M-38.05 127.25 L-38.0 126.6 -38.25 127.15 -38.05 127.25 M-43.25 132.65 L-43.25 132.5 -43.75 132.65 -43.25 132.65 M-24.45 164.05 L-28.5 165.5 -30.55 166.6 Q-26.75 165.5 -24.35 164.15 L-24.45 164.05 M-224.4 46.5 Q-218.25 47.6 -209.25 49.85 L-199.55 52.45 -199.5 52.0 Q-195.3 52.55 -195.3 56.55 -195.3 62.2 -196.25 64.85 L-196.75 65.0 -197.3 64.55 Q-201.4 64.2 -208.5 62.45 L-218.5 59.75 -229.95 57.4 -241.25 55.1 Q-246.95 53.65 -250.45 49.25 -252.45 46.8 -255.45 41.95 L-255.75 41.85 -255.8 41.45 Q-255.8 40.85 -254.95 40.85 L-251.5 41.6 -246.0 42.5 -242.65 43.25 -224.4 46.5 M-238.0 68.7 L-235.75 69.1 -233.25 70.1 Q-230.15 71.2 -224.5 72.1 -220.1 72.8 -215.75 74.05 L-208.5 76.1 Q-205.65 76.75 -202.0 78.1 L-199.15 78.95 Q-198.35 79.25 -197.85 79.65 -197.05 80.2 -196.2 81.35 -194.75 83.2 -194.5 84.25 -193.55 88.6 -193.55 90.1 L-193.55 91.6 Q-194.2 92.6 -197.5 92.6 -200.5 92.6 -213.0 89.05 L-227.75 84.75 -242.85 81.05 Q-251.25 78.65 -251.25 76.7 L-251.25 76.55 -251.3 76.35 -251.5 75.5 -251.25 74.15 -251.0 72.6 -250.75 70.0 Q-250.4 68.4 -248.8 67.25 L-248.55 67.15 Q-248.25 66.8 -248.0 66.75 L-244.3 67.0 Q-242.1 67.5 -241.0 68.1 L-238.0 68.7 M-257.85 1.5 L-257.75 1.8 -257.7 1.45 -257.85 1.5 M-273.05 42.15 L-268.15 43.5 Q-262.55 44.75 -260.55 45.85 -259.05 46.7 -257.55 48.85 -256.0 51.15 -255.8 56.0 L-255.55 63.0 -255.7 66.55 -255.4 67.35 -255.3 69.4 Q-255.3 71.1 -256.05 72.25 -257.4 74.35 -260.85 74.35 L-266.25 73.65 -267.6 73.2 -271.9 72.25 -275.0 71.25 -280.5 70.1 -284.75 69.25 -286.95 68.35 -288.65 67.25 Q-290.55 67.15 -291.65 64.3 -292.4 62.5 -292.5 60.85 L-293.25 54.5 -293.65 46.8 -293.75 41.8 Q-293.75 39.25 -293.25 39.0 L-293.15 39.2 -285.25 38.85 Q-277.55 40.7 -276.5 41.1 L-273.05 42.15 M-267.3 85.4 L-270.6 84.7 -274.0 83.75 -279.5 82.2 Q-282.0 81.5 -282.0 80.05 L-281.9 75.25 -281.5 75.25 -281.3 75.55 -281.2 75.35 Q-280.7 74.8 -279.15 75.35 -277.8 75.9 -275.35 76.25 -273.0 76.65 -272.15 77.0 -270.35 77.75 -264.45 78.95 -260.65 79.75 -260.65 81.05 L-260.65 81.35 -260.55 81.8 -260.5 83.5 -260.6 85.35 Q-260.8 87.0 -261.25 87.0 -264.05 87.0 -265.0 86.35 -266.2 85.55 -267.3 85.4 M198.75 80.5 Q199.2 76.35 199.6 74.5 200.45 70.95 202.25 68.35 205.5 63.7 207.15 62.35 210.0 60.0 212.8 61.85 214.8 63.15 215.5 65.1 216.7 69.45 216.9 71.75 L217.0 77.4 Q217.0 81.05 216.35 84.65 L214.65 92.5 Q213.7 97.05 212.0 100.0 L209.2 104.25 Q207.2 107.0 206.5 107.0 L203.8 106.85 201.1 106.4 200.4 105.5 198.75 103.6 Q197.95 101.45 197.65 100.0 L197.55 99.15 Q197.4 99.05 197.4 98.65 L197.5 98.5 197.25 96.2 197.0 93.0 Q197.0 92.3 197.3 91.7 L197.75 89.75 197.85 86.75 198.45 83.65 198.75 80.5 M187.2 79.7 L187.3 79.65 187.15 79.55 187.2 79.7 M198.5 92.75 L198.75 95.85 198.8 96.3 200.25 93.75 201.9 88.85 203.25 79.4 203.25 75.0 202.85 72.95 202.5 71.05 Q200.6 75.6 199.9 81.6 L199.0 87.35 Q198.5 90.5 198.5 92.75 M215.0 83.55 L215.05 83.2 215.0 83.2 215.0 83.55 M211.35 75.25 L211.4 78.4 Q211.4 82.15 210.8 84.95 210.25 87.4 208.5 92.1 L205.9 98.8 Q204.3 102.3 202.05 104.95 L202.1 105.0 203.4 105.25 205.05 105.35 Q206.85 105.35 208.9 102.4 210.3 100.4 211.15 98.25 L212.3 94.7 213.25 91.25 213.35 90.95 213.25 91.0 213.5 85.8 Q213.5 80.8 211.75 76.15 L211.35 75.25 M146.15 97.2 L146.05 97.0 145.95 97.3 146.15 97.2 M58.65 133.4 L58.45 133.2 58.35 133.35 58.35 133.5 58.65 133.4 M48.4 134.3 L48.5 140.3 Q48.5 147.4 47.45 152.1 46.35 156.85 42.9 164.9 L41.35 168.05 38.25 173.9 37.7 174.1 Q37.45 175.35 36.15 176.9 L33.1 180.25 Q29.85 184.0 26.2 185.25 L25.0 185.6 24.5 186.15 21.85 186.35 Q13.0 186.35 9.05 178.5 7.1 174.7 6.8 171.2 L6.1 167.0 5.9 162.75 6.0 159.8 Q6.0 154.35 7.4 148.2 8.8 142.05 11.25 136.85 14.05 130.75 17.75 125.4 20.25 121.75 22.75 120.05 25.85 117.95 32.0 116.35 36.95 114.95 42.1 119.95 46.35 124.05 47.0 127.4 48.2 131.9 48.4 134.3 M29.0 118.7 L29.05 118.75 29.15 118.6 29.0 118.7 M17.65 128.5 Q11.35 138.9 9.15 147.45 7.4 154.3 7.4 164.8 7.4 166.25 8.2 169.2 L8.35 169.5 8.5 170.35 8.5 170.4 8.55 170.5 9.15 170.75 11.15 171.1 Q16.45 171.1 20.7 166.15 23.1 163.35 25.5 158.25 26.35 156.4 27.1 151.95 27.75 147.75 27.75 144.9 27.75 141.9 26.75 135.0 26.35 132.45 24.25 130.1 22.2 127.85 19.1 126.4 18.3 127.4 17.65 128.5 M31.75 123.9 L31.85 123.95 31.8 123.9 31.75 123.9 M36.25 128.4 Q37.15 130.45 37.8 134.1 38.4 137.55 38.4 140.15 38.4 154.1 31.4 167.35 23.9 181.65 14.35 181.65 L13.75 181.65 13.9 181.75 Q17.35 184.3 21.75 184.55 L21.85 184.55 23.5 184.25 Q25.25 184.0 27.15 183.0 L29.1 181.3 31.15 179.75 34.65 176.05 36.0 174.4 35.45 173.85 38.5 169.0 41.0 164.8 41.75 162.5 Q43.75 156.4 43.75 152.05 43.75 143.85 40.9 137.75 L39.4 134.25 37.6 130.6 36.65 128.85 36.25 128.4" fill="#000000" fill-rule="evenodd" stroke="none"/>
    <path d="M112.85 -72.4 L113.1 -72.1 113.15 -72.1 115.35 -70.4 Q116.4 -69.05 116.4 -66.25 116.75 -64.8 116.15 -63.5 115.15 -61.25 111.4 -60.95 112.45 -61.5 113.25 -62.8 114.25 -64.45 114.25 -65.75 L113.85 -68.2 Q113.4 -69.75 112.75 -70.75 L110.75 -73.1 111.65 -72.9 Q112.6 -72.65 112.85 -72.4 M148.0 -32.4 L148.0 -32.55 155.45 -31.6 178.0 -30.05 187.7 -29.3 194.25 -28.55 209.35 -27.0 239.4 -24.2 240.4 -24.25 245.1 -23.7 245.6 -23.45 246.65 -23.25 249.75 -22.55 251.15 -21.4 251.3 -21.25 251.55 -19.95 252.0 -17.0 Q252.1 -14.35 252.65 -12.15 252.9 -11.25 254.95 -7.7 256.5 -4.95 256.5 -2.4 L255.9 4.25 Q255.25 9.95 255.25 12.15 L255.35 16.65 Q255.45 18.0 256.05 19.95 L255.9 20.3 255.65 21.3 Q255.65 21.9 256.15 23.5 L256.4 25.8 255.35 30.9 254.0 35.65 252.0 39.3 252.0 39.2 252.85 36.85 253.7 34.7 Q254.3 32.8 254.4 30.2 L254.45 25.85 254.3 19.45 Q254.05 16.6 254.3 13.05 L254.9 6.65 255.0 0.15 Q255.35 -4.25 254.8 -6.2 L252.95 -9.5 Q251.65 -11.55 251.55 -12.6 L251.25 -15.85 250.85 -19.0 249.9 -20.65 248.05 -22.1 246.95 -22.6 244.6 -23.2 236.55 -23.4 235.2 -23.3 210.45 -25.3 207.1 -25.6 202.3 -26.4 196.85 -26.85 192.7 -27.05 191.0 -27.25 189.25 -27.6 175.05 -29.55 161.25 -30.05 155.5 -30.75 143.95 -31.8 143.95 -31.9 143.9 -32.2 145.0 -32.15 148.0 -32.4 M118.5 -19.7 L119.05 -19.95 124.75 -20.55 Q126.8 -20.55 129.6 -17.7 131.6 -15.7 132.3 -13.7 L132.35 -13.65 132.75 -13.0 132.8 -12.4 132.5 -10.05 131.9 -8.7 Q131.35 -7.5 130.4 -6.25 128.9 -4.25 127.1 -3.4 L127.9 -4.8 Q129.35 -7.75 129.35 -9.8 129.35 -12.25 128.95 -13.7 128.4 -15.55 126.7 -17.8 L124.2 -19.6 119.8 -19.9 118.5 -19.7 M-230.5 -6.25 L-213.3 -10.3 -196.0 -14.5 -174.8 -18.55 -168.95 -19.7 -163.65 -20.55 -156.5 -21.65 -148.65 -22.25 -148.5 -22.25 Q-147.3 -22.25 -145.25 -23.3 L-144.75 -23.3 -144.75 -23.5 -138.0 -23.75 Q-134.2 -23.75 -130.85 -22.1 L-127.25 -20.0 Q-125.65 -19.2 -124.4 -17.45 L-122.5 -14.75 Q-119.95 -12.1 -116.55 -9.6 L-113.55 -7.5 -119.05 -6.35 -147.15 0.15 -157.45 2.55 Q-165.85 4.6 -170.5 6.75 -175.2 8.9 -176.55 9.9 L-179.15 12.25 -179.75 12.7 -180.5 13.0 -181.5 13.2 -181.35 13.0 -189.8 12.1 -201.65 10.6 -211.7 9.2 -220.9 7.6 -231.25 6.05 -242.4 4.6 -247.65 3.85 -251.15 3.5 -253.5 3.25 -255.4 2.8 -257.15 1.85 -256.3 0.95 -248.6 -1.8 Q-241.7 -4.05 -230.5 -6.25 M151.65 -8.45 L151.35 -7.7 151.3 -6.9 Q151.3 -3.8 151.65 -1.95 L152.05 -0.3 Q152.5 0.9 154.15 3.05 L156.55 6.35 Q157.55 8.1 158.2 12.75 158.7 16.55 158.7 19.65 L158.45 26.05 158.4 26.55 157.2 39.5 156.65 45.8 156.4 48.15 Q155.65 56.45 155.65 59.65 155.65 61.6 156.05 63.4 L156.4 65.8 Q156.4 69.25 154.8 73.8 152.35 80.6 151.9 82.5 L151.35 84.8 150.7 86.75 Q149.8 89.0 148.4 90.75 L146.8 92.95 146.05 94.1 145.75 94.55 Q144.75 96.15 144.25 97.3 L143.95 98.05 144.15 98.05 143.75 98.25 143.6 98.3 143.1 98.55 143.2 98.3 143.6 97.55 143.75 97.25 144.15 96.55 144.5 96.0 145.5 94.4 146.55 92.85 146.9 92.25 Q148.85 89.3 149.4 87.9 L150.15 85.7 150.35 85.05 150.75 83.6 151.3 81.35 Q151.55 79.9 151.85 79.25 L152.85 77.05 153.6 75.0 154.85 70.15 Q155.35 68.3 155.35 66.15 154.5 58.5 154.5 56.85 154.5 55.0 154.9 53.05 155.25 51.1 155.25 47.75 L155.35 46.05 155.65 42.95 156.15 38.4 157.05 28.7 157.25 26.8 157.25 26.3 157.5 19.85 Q157.5 16.75 156.85 12.55 156.15 7.95 155.25 6.0 L152.85 2.5 150.65 -0.65 150.35 -1.7 Q150.05 -2.8 150.0 -4.25 L149.85 -7.45 149.85 -7.75 149.35 -7.75 149.35 -7.8 151.65 -8.45 M-172.55 14.65 Q-167.65 11.4 -160.45 8.15 -152.5 4.6 -143.15 1.75 L-132.25 -1.25 -119.8 -4.5 -111.7 -6.45 Q-110.2 -5.6 -108.8 -5.05 L-104.95 -3.0 Q-101.55 -1.05 -99.75 -0.25 -96.6 1.2 -93.7 2.15 L-88.0 4.0 Q-80.5 6.35 -69.0 7.75 L-41.6 11.0 Q-35.8 11.5 -16.5 11.5 L9.0 11.1 11.5 10.85 Q16.45 10.65 27.5 10.55 L22.5 11.75 Q20.2 12.05 16.75 13.0 L11.15 14.35 -15.75 19.5 -37.3 23.9 -56.0 27.8 -56.1 27.75 -56.5 27.75 -63.35 28.55 -70.75 29.35 -108.75 24.25 -117.8 23.1 -127.15 21.6 -135.9 20.35 -139.75 19.25 -144.9 19.15 -147.8 19.15 -152.25 18.5 -157.75 17.25 Q-165.2 16.45 -172.6 14.9 L-172.55 14.65 M-31.55 44.1 L-25.0 42.1 -18.25 40.5 -3.15 36.85 -1.0 36.25 Q5.05 35.25 15.15 32.75 27.45 29.75 36.25 28.4 L48.05 26.3 59.55 24.5 47.75 27.5 Q36.5 29.8 24.85 33.1 L14.15 35.85 8.8 37.25 4.75 38.0 1.85 38.4 -1.25 39.1 -6.75 40.0 -11.75 41.4 -14.15 42.0 -14.5 41.75 Q-22.4 43.3 -29.2 45.9 -34.95 48.1 -39.0 50.6 L-43.0 53.1 -46.0 56.6 -48.05 60.25 -49.2 62.8 Q-51.75 61.9 -54.45 61.25 -52.8 57.05 -47.0 51.65 -45.0 49.8 -40.45 47.75 -38.2 46.7 -31.55 44.1" fill="#594940" fill-rule="evenodd" stroke="none"/>
    <path d="M-95.7 117.15 L-95.65 116.5 -96.25 116.5 Q-96.9 117.1 -96.75 119.35 L-96.85 121.15 Q-96.8 121.9 -96.0 122.3 -94.7 123.05 -85.25 124.75 L-80.6 125.85 -76.0 127.0 -70.4 128.1 -63.85 129.25 Q-63.2 129.25 -62.5 127.1 L-61.9 124.65 -62.0 123.65 -61.75 123.55 -61.65 123.25 -61.8 122.9 Q-62.75 122.25 -71.9 121.0 -76.95 120.2 -78.75 119.15 -84.85 117.55 -87.75 117.05 -94.0 115.9 -95.7 117.15 M-19.1 93.85 L-18.35 93.9 -13.75 93.0 -10.75 92.0 -7.6 91.1 -6.65 90.75 -6.7 91.1 -6.75 93.0 -6.55 94.1 -13.35 95.85 Q-17.7 97.1 -19.0 97.8 L-19.0 96.65 -19.1 93.85 M-19.05 86.6 L-18.5 86.6 -12.7 85.2 -6.15 83.55 -6.15 86.85 Q-6.3 87.4 -7.05 87.65 L-8.5 87.9 -15.0 89.5 -18.35 90.5 -19.0 90.5 -19.05 86.6 M-67.6 81.7 L-76.5 79.6 -84.4 77.75 -95.4 75.75 Q-99.65 74.8 -107.25 74.15 L-107.5 74.25 Q-108.3 73.45 -110.2 74.25 -111.7 74.85 -112.25 75.4 L-112.3 75.45 -112.75 75.9 -112.75 76.0 -112.85 76.15 -112.0 74.35 Q-111.2 73.15 -109.4 71.75 -108.3 70.9 -108.3 69.5 L-108.25 68.75 -108.0 68.15 Q-108.45 67.1 -114.25 66.2 L-127.15 64.4 -149.65 60.9 -159.85 59.2 Q-166.25 58.1 -167.9 57.4 -174.2 55.8 -179.3 55.45 -182.25 55.2 -183.25 55.5 L-183.5 55.25 -183.65 55.65 -183.8 55.9 -183.75 56.1 -184.0 58.05 -184.0 61.15 -183.85 64.1 Q-183.45 65.35 -181.25 67.0 -180.15 67.9 -177.1 68.4 L-171.75 69.35 -165.95 70.45 -160.5 71.35 -152.65 72.9 -148.65 74.0 -144.05 75.0 -136.3 76.3 -125.65 76.9 -120.45 78.0 -115.25 79.1 -114.0 79.0 -114.0 79.65 Q-114.0 83.35 -113.15 91.5 L-112.8 94.95 Q-117.25 93.55 -128.4 92.0 L-148.9 89.0 -166.4 85.75 -169.8 85.05 -173.25 84.1 -181.25 83.45 -182.65 83.25 -182.75 83.8 -182.75 84.5 -182.7 84.5 -182.75 84.8 -182.75 87.0 Q-182.75 93.1 -179.9 95.1 -176.9 97.25 -165.65 98.9 L-141.65 103.95 Q-121.3 108.1 -111.75 108.1 -109.3 108.1 -109.3 106.55 L-109.4 105.85 -109.5 105.6 Q-108.6 106.3 -107.85 106.6 L-104.5 108.75 Q-103.0 109.45 -90.0 111.6 L-80.85 113.1 -73.5 114.35 -65.9 116.05 Q-61.7 117.1 -57.75 117.1 -55.75 117.1 -54.75 116.5 -54.0 116.1 -54.0 115.65 L-54.05 115.25 -54.2 115.25 Q-52.95 114.5 -52.65 112.4 L-52.3 107.5 Q-51.8 104.05 -51.8 99.0 L-51.8 95.35 -52.25 93.15 -52.65 91.4 Q-52.65 90.0 -53.0 88.65 L-52.8 88.6 -52.8 88.5 -52.75 88.25 -54.45 85.7 Q-55.7 84.65 -59.9 83.5 L-67.6 81.7 M-49.5 63.9 L-49.45 64.1 -49.0 64.25 -48.95 64.15 Q-47.0 64.9 -45.65 65.65 -41.95 67.7 -39.05 72.75 L-37.55 78.0 Q-36.9 80.25 -36.55 84.75 -36.1 87.8 -35.3 98.25 -34.8 105.75 -34.8 111.75 L-34.05 125.2 Q-34.05 127.25 -34.2 128.1 -34.5 130.0 -35.55 130.4 -36.5 129.5 -36.7 127.35 -36.85 125.35 -37.2 124.5 L-37.0 123.35 Q-37.0 122.65 -37.5 122.5 L-38.55 125.0 -39.75 127.9 Q-40.85 129.9 -42.0 130.5 L-43.2 131.2 -47.0 131.65 -49.35 132.15 Q-49.6 132.35 -49.5 132.75 L-41.6 133.7 Q-35.8 134.1 -31.15 133.85 L-28.4 134.1 Q-27.2 134.3 -26.9 133.9 -26.8 133.8 -25.75 134.75 L-23.75 136.25 Q-22.1 136.9 -20.85 138.8 -19.75 140.55 -19.75 141.9 L-22.0 147.1 Q-24.3 152.5 -24.5 153.75 -24.9 156.0 -27.1 159.75 L-30.45 165.2 -36.45 168.45 -49.0 169.25 -56.15 168.65 -56.95 168.35 -56.85 167.8 -64.05 167.0 -81.9 162.75 -94.15 160.15 -109.75 157.4 -126.75 154.55 -140.9 152.0 -147.3 150.55 -153.5 149.4 -158.2 148.55 -167.15 148.0 -169.7 147.35 -172.6 146.65 -173.95 146.95 -175.25 147.25 Q-177.35 147.25 -186.3 144.3 L-196.75 140.9 -198.7 140.4 -200.5 140.15 -206.0 139.7 -206.65 139.25 -213.5 137.65 Q-216.15 137.0 -216.5 135.9 L-216.55 134.7 -216.25 134.65 -216.15 133.9 -216.7 133.75 -216.8 133.5 -217.15 133.6 Q-225.75 131.0 -239.0 126.25 -252.75 121.35 -261.0 118.9 -272.15 115.65 -281.25 111.5 L-288.75 107.75 -290.15 106.85 -292.0 105.75 -292.55 105.05 -292.75 104.9 -292.7 104.9 -294.1 101.5 -295.4 98.0 -298.25 91.1 Q-298.9 89.5 -300.55 87.3 -301.65 85.8 -301.65 84.15 -301.65 81.55 -299.75 78.7 -298.1 76.15 -295.9 75.05 L-295.5 76.0 -295.15 75.65 -295.05 75.5 -294.15 76.25 Q-291.7 78.15 -290.0 78.15 L-289.5 78.1 -289.5 78.0 Q-289.55 77.5 -290.65 76.0 L-292.4 73.5 -293.8 71.25 -294.75 69.0 Q-295.5 65.0 -295.25 60.0 -295.05 56.7 -295.35 50.95 L-295.75 41.85 -295.6 38.35 Q-295.35 36.6 -294.5 34.5 L-293.45 32.75 -292.25 31.15 Q-291.85 30.75 -290.15 29.8 L-288.1 28.5 -287.5 28.5 Q-287.1 28.5 -287.05 28.35 L-287.0 28.0 Q-287.95 27.0 -294.4 25.75 -297.35 24.35 -298.85 24.2 L-298.6 22.95 -298.7 22.9 -297.9 21.55 -297.55 21.05 -295.45 21.5 Q-289.5 22.5 -286.65 23.25 L-277.75 24.65 -265.15 26.5 Q-254.0 28.4 -249.8 29.85 L-242.65 31.65 -234.8 33.1 Q-210.8 36.8 -201.4 39.5 -196.95 40.8 -183.7 43.0 L-164.4 46.0 -154.1 47.7 -141.15 49.25 -126.25 50.9 -113.15 52.5 Q-90.0 55.15 -68.8 59.1 -56.05 61.45 -49.5 63.9 M-238.0 68.7 L-241.0 68.1 Q-242.1 67.5 -244.3 67.0 L-248.0 66.75 Q-248.25 66.8 -248.55 67.15 L-248.8 67.25 Q-250.4 68.4 -250.75 70.0 L-251.0 72.6 -251.25 74.15 -251.5 75.5 -251.3 76.35 -251.25 76.55 -251.25 76.7 Q-251.25 78.65 -242.85 81.05 L-227.75 84.75 -213.0 89.05 Q-200.5 92.6 -197.5 92.6 -194.2 92.6 -193.55 91.6 L-193.55 90.1 Q-193.55 88.6 -194.5 84.25 -194.75 83.2 -196.2 81.35 -197.05 80.2 -197.85 79.65 -198.35 79.25 -199.15 78.95 L-202.0 78.1 Q-205.65 76.75 -208.5 76.1 L-215.75 74.05 Q-220.1 72.8 -224.5 72.1 -230.15 71.2 -233.25 70.1 L-235.75 69.1 -238.0 68.7 M-224.4 46.5 L-242.65 43.25 -246.0 42.5 -251.5 41.6 -254.95 40.85 Q-255.8 40.85 -255.8 41.45 L-255.75 41.85 -255.45 41.95 Q-252.45 46.8 -250.45 49.25 -246.95 53.65 -241.25 55.1 L-229.95 57.4 -218.5 59.75 -208.5 62.45 Q-201.4 64.2 -197.3 64.55 L-196.75 65.0 -196.25 64.85 Q-195.3 62.2 -195.3 56.55 -195.3 52.55 -199.5 52.0 L-199.55 52.45 -209.25 49.85 Q-218.25 47.6 -224.4 46.5 M-267.3 85.4 Q-266.2 85.55 -265.0 86.35 -264.05 87.0 -261.25 87.0 -260.8 87.0 -260.6 85.35 L-260.5 83.5 -260.55 81.8 -260.65 81.35 -260.65 81.05 Q-260.65 79.75 -264.45 78.95 -270.35 77.75 -272.15 77.0 -273.0 76.65 -275.35 76.25 -277.8 75.9 -279.15 75.35 -280.7 74.8 -281.2 75.35 L-281.3 75.55 -281.5 75.25 -281.9 75.25 -282.0 80.05 Q-282.0 81.5 -279.5 82.2 L-274.0 83.75 -270.6 84.7 -267.3 85.4 M-273.05 42.15 L-276.5 41.1 Q-277.55 40.7 -285.25 38.85 L-293.15 39.2 -293.25 39.0 Q-293.75 39.25 -293.75 41.8 L-293.65 46.8 -293.25 54.5 -292.5 60.85 Q-292.4 62.5 -291.65 64.3 -290.55 67.15 -288.65 67.25 L-286.95 68.35 -284.75 69.25 -280.5 70.1 -275.0 71.25 -271.9 72.25 -267.6 73.2 -266.25 73.65 -260.85 74.35 Q-257.4 74.35 -256.05 72.25 -255.3 71.1 -255.3 69.4 L-255.4 67.35 -255.7 66.55 -255.55 63.0 -255.8 56.0 Q-256.0 51.15 -257.55 48.85 -259.05 46.7 -260.55 45.85 -262.55 44.75 -268.15 43.5 L-273.05 42.15 M198.5 92.75 Q198.5 90.5 199.0 87.35 L199.9 81.6 Q200.6 75.6 202.5 71.05 L202.85 72.95 203.25 75.0 203.25 79.4 201.9 88.85 200.25 93.75 198.8 96.3 198.75 95.85 198.5 92.75 M211.35 75.25 L211.75 76.15 Q213.5 80.8 213.5 85.8 L213.25 91.0 213.35 90.95 213.25 91.25 212.3 94.7 211.15 98.25 Q210.3 100.4 208.9 102.4 206.85 105.35 205.05 105.35 L203.4 105.25 202.1 105.0 202.05 104.95 Q204.3 102.3 205.9 98.8 L208.5 92.1 Q210.25 87.4 210.8 84.95 211.4 82.15 211.4 78.4 L211.35 75.25 M17.65 128.5 Q18.3 127.4 19.1 126.4 22.2 127.85 24.25 130.1 26.35 132.45 26.75 135.0 27.75 141.9 27.75 144.9 27.75 147.75 27.1 151.95 26.35 156.4 25.5 158.25 23.1 163.35 20.7 166.15 16.45 171.1 11.15 171.1 L9.15 170.75 8.55 170.5 8.5 170.4 8.5 170.35 8.35 169.5 8.2 169.2 Q7.4 166.25 7.4 164.8 7.4 154.3 9.15 147.45 11.35 138.9 17.65 128.5 M36.25 128.4 L36.65 128.85 37.6 130.6 39.4 134.25 40.9 137.75 Q43.75 143.85 43.75 152.05 43.75 156.4 41.75 162.5 L41.0 164.8 38.5 169.0 35.45 173.85 36.0 174.4 34.65 176.05 31.15 179.75 29.1 181.3 27.15 183.0 Q25.25 184.0 23.5 184.25 L21.85 184.55 21.75 184.55 Q17.35 184.3 13.9 181.75 L13.75 181.65 14.35 181.65 Q23.9 181.65 31.4 167.35 38.4 154.1 38.4 140.15 38.4 137.55 37.8 134.1 37.15 130.45 36.25 128.4" fill="#4d4d4d" fill-rule="evenodd" stroke="none"/>
    <path d="M42.35 -79.4 Q39.7 -67.75 31.35 -59.65 24.4 -52.9 8.55 -45.35 -8.25 -37.35 -13.6 -32.9 -19.65 -27.75 -22.0 -20.85 L-30.15 -21.65 Q-28.45 -30.05 -22.95 -35.8 -17.75 -41.3 -4.15 -47.9 11.3 -55.35 17.6 -60.35 27.8 -68.4 33.05 -80.55 L33.8 -80.45 42.35 -79.4 M-65.25 -32.4 L-66.4 -32.15 -68.2 -31.9 -72.35 -32.3 -77.4 -32.6 -83.8 -33.1 -90.05 -32.7 -93.9 -31.65 -98.4 -30.55 -105.2 -29.65 -109.95 -29.3 -111.6 -29.45 Q-108.9 -39.75 -97.9 -47.35 -86.25 -55.35 -69.0 -58.5 -52.2 -61.55 -39.95 -71.25 -33.15 -76.6 -27.4 -84.5 L-14.3 -83.75 -5.9 -83.25 Q-10.05 -72.55 -20.25 -61.75 -32.95 -48.3 -46.0 -44.0 -57.55 -40.15 -65.25 -32.4" fill="url(#gradient0)" fill-rule="evenodd" stroke="none"/>
    <path d="M125.25 -69.5 L125.95 -69.25 127.35 -68.05 Q128.35 -67.0 128.65 -66.05 129.6 -63.25 130.4 -58.25 L133.1 -42.5 134.1 -34.6 134.9 -26.9 135.25 -22.95 135.4 -19.0 Q135.35 -16.4 135.65 -15.05 L135.95 -13.1 136.3 -12.25 135.85 -12.3 133.85 -11.95 Q133.75 -15.3 131.4 -18.25 127.8 -22.75 120.6 -21.65 117.4 -21.2 115.25 -18.8 L115.05 -18.7 Q113.9 -18.05 113.8 -17.0 L113.8 -16.8 113.75 -16.75 Q111.9 -13.6 111.9 -10.55 L112.15 -8.85 96.8 -7.05 Q97.1 -14.35 97.1 -40.3 L97.1 -62.75 Q97.0 -63.9 97.2 -66.0 L97.35 -66.8 97.75 -68.9 Q98.0 -70.3 98.4 -70.65 L98.4 -70.5 Q98.85 -71.1 99.7 -71.2 L100.3 -71.25 Q101.4 -71.85 103.15 -72.05 L102.3 -70.65 Q101.65 -69.15 101.65 -67.55 101.65 -65.0 102.65 -63.25 104.7 -59.65 110.35 -59.65 115.15 -59.65 116.75 -62.45 117.5 -63.75 117.5 -66.15 117.5 -69.4 116.55 -70.85 L115.45 -72.05 120.35 -71.8 121.9 -71.65 Q124.05 -71.0 125.25 -69.5 M90.65 -39.5 Q91.7 -42.65 92.8 -47.75 L94.1 -53.5 94.25 -6.8 94.2 -6.8 83.65 -5.3 Q83.55 -8.3 84.0 -13.75 84.05 -15.7 85.1 -19.2 L86.15 -22.6 86.1 -23.15 88.15 -31.0 90.65 -39.5" fill="url(#gradient1)" fill-rule="evenodd" stroke="none"/>
    <path d="M68.35 -94.65 L84.75 -92.55 109.25 -90.15 Q121.35 -88.6 129.25 -84.25 135.25 -80.9 137.7 -71.9 138.65 -68.4 139.5 -59.4 140.0 -54.85 141.45 -46.7 L143.65 -33.75 143.75 -33.25 149.0 -33.75 158.7 -32.45 Q167.85 -31.15 180.75 -31.0 L191.25 -30.45 Q194.0 -29.75 197.25 -29.5 L212.0 -28.0 244.7 -24.9 Q252.75 -23.85 252.75 -21.5 L252.7 -21.2 252.85 -20.7 253.0 -18.15 253.75 -12.9 Q253.95 -11.4 256.4 -7.65 257.25 -6.4 257.45 -4.9 L257.5 -2.5 Q257.5 -0.05 256.9 4.0 256.25 8.05 256.25 12.25 L256.2 14.15 Q256.15 15.75 256.35 16.65 L257.1 20.8 257.1 20.9 Q257.5 22.75 257.5 25.8 257.5 29.15 255.15 35.75 253.2 41.35 248.25 45.65 245.9 47.7 242.55 50.0 L236.4 54.0 230.25 57.9 Q224.9 60.9 221.5 60.9 L221.15 60.9 220.85 61.0 220.35 60.9 220.2 60.85 220.15 60.4 Q220.15 59.95 223.05 56.3 226.15 51.85 226.85 47.75 L228.15 41.55 Q228.9 37.85 228.9 35.5 228.9 30.85 227.75 28.85 226.35 26.35 222.5 26.35 217.45 26.35 213.8 31.05 L208.75 39.15 Q207.9 40.35 207.15 42.6 L205.9 46.1 202.75 52.85 199.5 59.7 196.25 66.5 Q195.15 68.7 193.3 73.4 191.5 77.25 188.75 79.75 L189.0 79.9 Q187.4 81.35 183.2 83.0 L175.75 85.75 160.1 92.25 142.45 100.1 142.25 100.75 141.75 100.4 140.8 100.8 122.85 108.9 107.4 116.45 Q97.55 121.15 89.5 123.25 87.9 123.7 73.65 129.2 60.3 134.4 59.1 134.4 57.85 134.4 57.6 134.0 L57.6 133.55 Q57.6 132.25 58.25 132.0 L59.05 129.35 60.0 126.0 60.6 122.85 61.15 119.65 Q62.35 109.45 62.35 107.15 L61.9 92.25 61.2 88.1 60.4 84.4 Q60.1 82.5 58.5 79.95 57.0 77.6 57.0 76.65 L57.0 76.45 56.85 76.25 Q55.95 75.05 53.35 73.8 49.25 71.75 44.05 71.75 41.9 71.75 35.9 73.9 L29.75 76.25 Q27.6 77.2 25.1 79.1 22.65 80.9 21.4 82.5 15.8 89.65 11.85 95.65 10.2 98.15 8.2 102.15 L4.75 109.0 Q3.55 111.25 1.9 116.15 L-0.25 122.0 -0.45 122.0 -1.8 125.5 -4.25 131.5 -8.55 144.85 Q-10.95 152.35 -15.05 158.0 -16.05 159.4 -18.2 161.25 L-21.75 164.0 Q-24.5 165.8 -29.05 167.3 -32.8 168.55 -32.8 168.75 -32.8 169.1 -33.2 169.1 L-33.9 169.0 -34.05 168.9 -34.3 169.0 -36.65 169.65 -42.25 170.2 -49.1 170.5 -56.05 169.9 Q-57.95 169.45 -58.2 169.05 L-60.55 168.8 -72.05 166.5 -82.4 163.85 -94.9 161.4 -111.75 158.5 -127.75 155.7 -141.3 153.15 -148.8 151.55 -155.3 150.4 -168.5 149.0 -171.45 148.1 -172.5 147.9 -173.85 148.2 -175.25 148.5 Q-177.9 148.5 -181.9 147.0 L-186.15 145.35 Q-189.25 144.8 -191.5 143.75 L-196.5 142.25 -198.95 141.75 -200.9 141.35 -206.2 141.0 -206.8 140.65 -209.45 140.0 -212.9 139.1 Q-216.0 138.1 -216.7 137.55 -217.5 137.0 -217.5 135.55 L-217.45 134.7 Q-219.9 134.3 -227.25 131.75 L-239.65 127.35 Q-242.5 126.45 -249.0 123.75 L-261.05 120.1 Q-273.7 116.45 -281.0 112.9 -286.05 110.6 -288.4 109.25 -292.15 107.15 -293.3 105.7 L-293.45 106.1 -294.0 105.0 Q-294.45 103.25 -296.65 98.1 L-299.5 91.15 Q-299.95 90.15 -301.9 87.6 L-302.5 86.0 -302.75 84.2 -302.15 81.15 -301.25 78.4 Q-300.25 76.75 -298.85 75.6 -297.45 74.45 -296.15 74.4 L-296.55 73.75 -296.6 73.45 -296.5 73.4 Q-297.7 69.95 -298.35 65.55 L-299.5 54.85 -300.75 43.25 -301.0 33.85 Q-301.0 29.2 -300.3 25.35 L-300.25 25.05 -300.4 24.15 Q-300.4 22.15 -298.65 20.4 L-298.6 20.35 -298.65 20.15 -298.55 19.5 -298.1 19.55 -297.6 18.45 Q-297.3 17.75 -296.85 17.6 L-296.1 16.4 Q-294.45 14.15 -293.4 13.6 L-289.75 11.6 Q-287.65 10.5 -285.0 9.5 -278.55 7.15 -268.5 5.6 -264.55 5.0 -261.85 3.25 L-259.1 1.2 Q-258.8 0.6 -257.7 0.15 L-255.0 -0.8 -248.5 -2.8 -242.25 -4.75 Q-237.7 -6.05 -232.5 -7.0 L-223.65 -8.9 Q-218.2 -10.2 -215.55 -11.05 L-211.8 -12.05 -206.25 -13.25 -201.55 -14.25 -197.5 -15.25 -176.55 -19.3 Q-165.1 -21.75 -152.3 -23.15 L-149.65 -23.5 -148.65 -23.7 -146.9 -24.4 Q-143.7 -25.5 -143.65 -25.55 L-139.15 -29.05 Q-137.85 -30.2 -135.85 -33.15 L-134.55 -34.85 -134.85 -34.85 -133.8 -36.3 -130.4 -40.8 -127.9 -44.75 -125.55 -48.75 -119.1 -57.8 -114.15 -64.5 -111.85 -68.45 -109.5 -72.3 -104.05 -80.25 -101.65 -84.1 -99.0 -88.05 -96.4 -92.3 Q-95.1 -94.65 -93.9 -95.3 -93.85 -95.5 -93.8 -95.25 -92.3 -96.7 -89.0 -97.55 L-82.5 -98.65 Q-71.5 -100.85 -43.65 -101.45 L-43.6 -101.5 Q-42.55 -101.8 -35.9 -101.55 L-30.8 -100.95 -26.0 -100.55 -21.5 -101.0 -18.25 -101.25 -8.25 -100.7 -4.4 -100.05 7.75 -99.0 14.25 -98.35 20.85 -97.8 35.25 -97.35 47.1 -96.8 68.35 -94.65 M148.9 -7.8 L148.8 -7.9 148.9 -7.75 148.9 -7.8 M198.75 80.5 Q199.2 76.35 199.6 74.5 200.45 70.95 202.25 68.35 205.5 63.7 207.15 62.35 210.0 60.0 212.8 61.85 214.8 63.15 215.5 65.1 216.7 69.45 216.9 71.75 L217.0 77.4 Q217.0 81.05 216.35 84.65 L214.65 92.5 Q213.7 97.05 212.0 100.0 L209.2 104.25 Q207.2 107.0 206.5 107.0 L203.8 106.85 201.1 106.4 200.4 105.5 198.75 103.6 Q197.95 101.45 197.65 100.0 L197.55 99.15 Q197.4 99.05 197.4 98.65 L197.5 98.5 197.25 96.2 197.0 93.0 Q197.0 92.3 197.3 91.7 L197.75 89.75 197.85 86.75 198.45 83.65 198.75 80.5 M187.3 79.65 L187.15 79.55 187.2 79.7 187.3 79.65 M215.05 83.2 L215.0 83.2 215.0 83.55 215.05 83.2 M145.95 97.3 L146.15 97.2 146.05 97.0 145.95 97.3 M58.35 133.5 L58.65 133.4 58.45 133.2 58.35 133.35 58.35 133.5 M48.4 134.3 L48.5 140.3 Q48.5 147.4 47.45 152.1 46.35 156.85 42.9 164.9 L41.35 168.05 38.25 173.9 37.7 174.1 Q37.45 175.35 36.15 176.9 L33.1 180.25 Q29.85 184.0 26.2 185.25 L25.0 185.6 24.5 186.15 21.85 186.35 Q13.0 186.35 9.05 178.5 7.1 174.7 6.8 171.2 L6.1 167.0 5.9 162.75 6.0 159.8 Q6.0 154.35 7.4 148.2 8.8 142.05 11.25 136.85 14.05 130.75 17.75 125.4 20.25 121.75 22.75 120.05 25.85 117.95 32.0 116.35 36.95 114.95 42.1 119.95 46.35 124.05 47.0 127.4 48.2 131.9 48.4 134.3 M31.75 123.9 L31.85 123.95 31.8 123.9 31.75 123.9 M29.05 118.75 L29.15 118.6 29.0 118.7 29.05 118.75 M-101.8 -27.3 L-101.85 -27.2 -101.45 -27.25 -101.8 -27.3 M-30.05 -19.8 L-30.0 -19.7 -29.95 -19.75 -30.05 -19.8 M-15.5 42.9 L-15.35 43.05 -15.15 42.85 -15.5 42.9 M-38.25 127.15 L-38.05 127.25 -38.0 126.6 -38.25 127.15 M-43.75 132.65 L-43.25 132.65 -43.25 132.5 -43.75 132.65 M-24.45 164.05 L-28.5 165.5 -30.55 166.6 Q-26.75 165.5 -24.35 164.15 L-24.45 164.05 M-172.6 14.9 L-172.55 14.65 -172.65 14.9 -172.6 14.9 M-257.75 1.8 L-257.7 1.45 -257.85 1.5 -257.75 1.8" fill="url(#gradient2)" fill-rule="evenodd" stroke="none"/>
  </g>
  <defs>
    <linearGradient gradientTransform="matrix(0.0374, -0.1711, 0.0329, 0.0072, -79.0, 38.65)" gradientUnits="userSpaceOnUse" id="gradient0" spreadMethod="pad" x1="-819.2" x2="819.2">
      <stop offset="0.0" stop-color="#ffffff"/>
      <stop offset="1.0" stop-color="#ffffff" stop-opacity="0.0"/>
    </linearGradient>
    <linearGradient gradientTransform="matrix(0.0045, -0.0611, 0.0474, 0.0035, -21.25, -49.15)" gradientUnits="userSpaceOnUse" id="gradient1" spreadMethod="pad" x1="-819.2" x2="819.2">
      <stop offset="0.0" stop-color="#1e1e1e"/>
      <stop offset="1.0" stop-color="#2b2b2b"/>
    </linearGradient>
    <linearGradient gradientTransform="matrix(0.0, -0.1716, 0.1661, 0.0, -22.65, 34.4)" gradientUnits="userSpaceOnUse" id="gradient2" spreadMethod="pad" x1="-819.2" x2="819.2">
      <stop offset="0.0" stop-color="#000000" stop-opacity="0.7529412"/>
      <stop offset="1.0" stop-color="#000000" stop-opacity="0.0"/>
    </linearGradient>
  </defs>
</svg>
