<?xml version="1.0" encoding="UTF-8" standalone="no"?>
<svg xmlns:xlink="http://www.w3.org/1999/xlink" height="13.9px" width="45.9px" xmlns="http://www.w3.org/2000/svg">
  <g transform="matrix(1.0, 0.0, 0.0, 1.0, -0.1, -0.5)">
    <path d="M44.95 1.05 Q46.0 2.1 46.0 3.6 46.0 5.1 44.95 6.15 43.95 7.2 42.5 7.2 41.05 7.2 40.0 6.15 39.0 5.1 39.05 3.8 39.1 2.45 40.4 2.15 41.65 1.85 42.8 0.95 L44.95 1.05 M1.55 9.25 Q2.9 8.9 3.95 8.05 4.95 7.2 5.95 8.25 7.0 9.3 7.0 10.8 7.0 12.3 5.95 13.35 4.95 14.4 3.5 14.4 2.05 14.4 1.0 13.35 0.0 12.3 0.1 10.95 0.15 9.6 1.55 9.25" fill="#ffffff" fill-rule="evenodd" stroke="none"/>
  </g>
</svg>
