<?xml version="1.0" encoding="UTF-8" standalone="no"?>
<svg xmlns:xlink="http://www.w3.org/1999/xlink" height="287.05px" width="481.15px" xmlns="http://www.w3.org/2000/svg">
  <g transform="matrix(1.0, 0.0, 0.0, 1.0, 249.45, 88.15)">
    <path d="M220.0 13.75 Q229.5 27.4 230.6 30.2 231.65 32.85 231.65 42.95 L231.7 50.35 231.55 51.4 231.65 52.35 Q231.65 54.45 230.3 59.7 228.95 65.0 228.95 68.85 L228.5 76.7 228.0 85.1 Q227.8 95.2 225.15 101.8 225.15 105.5 224.45 107.15 223.75 108.75 220.6 112.55 219.55 113.85 218.75 116.1 218.1 118.0 217.25 118.75 214.65 121.0 201.15 121.0 180.3 121.0 173.0 106.0 170.7 101.25 170.0 95.55 L169.8 90.45 Q169.8 85.95 170.05 84.35 170.8 79.25 173.45 80.6 174.5 81.0 175.35 81.55 175.05 78.5 175.4 75.55 175.9 70.55 178.05 69.6 179.15 61.4 179.15 56.5 L179.15 41.65 Q179.15 39.25 179.9 34.9 L181.05 27.65 Q182.8 21.45 183.3 20.5 185.65 15.85 191.3 13.5 193.7 12.5 198.55 10.1 202.9 8.1 205.85 7.5 214.15 5.8 220.0 13.75 M81.55 96.4 Q81.55 102.55 80.75 105.9 79.6 110.85 76.35 113.75 75.65 114.35 70.7 122.05 67.1 126.85 64.05 128.5 L63.3 130.15 Q61.9 132.95 61.85 135.0 L61.75 139.25 61.85 143.45 Q62.2 146.3 60.7 152.4 59.05 159.1 59.0 161.1 58.8 170.15 54.35 178.7 53.55 180.25 52.6 182.85 L51.05 187.15 Q50.75 187.85 48.5 189.2 L48.2 189.4 47.05 190.7 Q44.55 193.45 42.85 194.6 42.2 195.05 41.5 196.2 40.95 197.15 39.6 197.6 35.55 198.9 16.35 198.9 5.8 198.9 -1.35 196.0 L-2.35 196.05 Q-20.05 196.05 -25.3 182.05 -27.0 177.6 -27.25 172.0 L-27.15 166.45 Q-27.35 163.1 -27.0 160.1 -26.5 156.0 -24.9 155.1 -24.5 154.1 -23.7 153.55 L-23.6 151.05 -24.3 137.95 Q-24.3 127.65 -21.7 115.25 -20.35 108.55 -16.15 93.3 -12.6 80.6 -0.85 70.75 14.5 57.85 40.25 53.65 51.5 53.65 60.75 59.8 67.1 64.0 76.2 74.3 80.3 78.4 81.25 85.2 81.55 87.4 81.55 96.4 M-249.45 121.6 Q-249.45 119.75 -249.25 119.25 -248.55 117.05 -245.8 116.45 -244.75 116.95 -243.6 118.2 -242.25 119.6 -242.0 120.75 -238.7 120.1 -235.35 123.65 L-230.1 130.15 -228.4 128.05 Q-227.15 126.55 -223.7 126.55 -220.0 126.55 -218.2 128.25 L-213.75 132.05 Q-208.3 135.3 -205.3 136.05 L-201.0 135.8 -196.8 134.4 Q-193.55 133.8 -188.55 134.9 L-178.25 136.45 Q-173.45 137.45 -173.45 140.6 -173.45 142.1 -174.15 142.9 L-175.85 144.4 -178.45 144.75 Q-182.1 145.1 -187.15 146.5 -190.7 147.55 -193.45 149.55 -197.45 151.05 -211.1 151.05 -236.8 151.05 -245.6 137.15 -249.45 131.1 -249.45 121.6" fill="#000000" fill-rule="evenodd" stroke="none"/>
    <path d="M45.65 -79.0 L73.35 -77.25 87.7 -75.7 Q86.45 -73.3 85.15 -68.25 83.4 -62.5 83.0 -60.0 L81.65 -52.0 80.55 -47.45 79.65 -43.65 Q79.65 -42.7 77.2 -34.6 75.1 -27.6 74.8 -25.15 L73.15 -21.9 71.0 -17.75 Q69.15 -14.1 66.4 -12.3 63.1 -10.15 57.9 -10.15 L53.15 -10.4 53.8 -11.35 54.5 -12.55 55.1 -13.25 55.4 -13.85 54.15 -14.45 48.55 -16.2 Q47.8 -16.35 44.4 -17.6 L40.15 -19.35 32.25 -21.75 29.0 -22.8 26.5 -23.05 25.7 -23.3 25.25 -23.75 22.65 -24.05 12.25 -23.6 3.9 -24.0 2.9 -24.25 Q2.15 -24.45 1.9 -24.6 0.3 -25.2 0.45 -24.0 L0.45 -22.55 Q0.25 -22.1 -0.5 -22.1 L-1.6 -22.15 Q-7.7 -21.0 -15.4 -20.85 L-18.85 -20.5 -37.9 -22.35 -38.2 -23.2 -38.65 -24.0 -39.5 -24.95 Q-40.1 -25.5 -40.8 -25.7 L-42.7 -26.35 Q-43.85 -26.8 -44.75 -27.05 L-49.6 -27.95 -53.75 -28.7 -57.8 -29.6 Q-60.4 -30.25 -61.65 -30.85 L-63.15 -31.65 -64.95 -32.45 -66.4 -32.15 -68.2 -31.9 -72.35 -32.3 -77.4 -32.6 -83.8 -33.1 -90.05 -32.7 -93.9 -31.65 -98.4 -30.55 -105.2 -29.65 -109.95 -29.3 -127.1 -31.0 -127.4 -31.0 -129.8 -31.5 Q-130.0 -31.6 -130.0 -32.25 -130.0 -33.75 -122.35 -45.55 L-112.55 -60.15 -107.55 -67.15 Q-104.45 -71.5 -102.9 -74.25 L-96.95 -83.6 -94.0 -88.05 -91.15 -88.15 -90.45 -87.95 -90.0 -87.75 -83.25 -87.4 -77.4 -87.2 -59.8 -87.0 -52.6 -86.45 -43.75 -85.5 -30.45 -84.7 -14.3 -83.75 -1.7 -83.0 10.9 -82.25 33.8 -80.45 45.65 -79.0" fill="url(#gradient0)" fill-rule="evenodd" stroke="none"/>
  </g>
  <defs>
    <linearGradient gradientTransform="matrix(0.0045, -0.0611, 0.0474, 0.0035, -21.25, -49.15)" gradientUnits="userSpaceOnUse" id="gradient0" spreadMethod="pad" x1="-819.2" x2="819.2">
      <stop offset="0.0" stop-color="#1e1e1e"/>
      <stop offset="1.0" stop-color="#2b2b2b"/>
    </linearGradient>
  </defs>
</svg>
