<?xml version="1.0" encoding="UTF-8" standalone="no"?>
<svg xmlns:xlink="http://www.w3.org/1999/xlink" height="201.0px" width="1465.0px" xmlns="http://www.w3.org/2000/svg">
  <g transform="matrix(1.0, 0.0, 0.0, 1.0, 732.5, 100.5)">
    <path d="M384.25 43.2 Q363.8 40.5 358.5 40.5 320.7 40.5 290.4 46.45 268.4 50.75 245.5 59.5 222.5 69.0 211.85 72.55 194.05 78.5 177.5 78.5 153.15 67.0 123.5 55.5 64.25 32.5 33.5 32.5 L-22.5 37.0 -78.5 41.5 Q-144.55 41.5 -148.95 37.0 -149.45 36.5 -149.5 35.35 -149.55 34.35 -150.3 33.9 -152.55 32.5 -166.5 32.5 -171.5 32.5 -190.5 37.0 -209.5 41.5 -214.5 41.5 -226.65 41.5 -242.85 34.3 -249.35 31.45 -273.3 18.5 -293.5 7.6 -307.25 2.7 -327.3 -4.5 -346.0 -4.5 -362.2 -4.5 -380.05 1.75 -392.55 6.1 -410.35 15.5 -432.85 27.35 -437.1 29.25 -451.05 35.5 -460.5 35.5 -502.55 35.5 -519.35 31.6 -525.8 30.1 -530.55 27.6 L-538.05 23.0 Q-547.95 17.05 -567.75 14.4 -596.7 10.5 -659.5 10.5 -665.7 10.5 -681.85 6.9 L-700.5 2.5 Q-702.5 2.15 -704.1 3.15 L-707.0 5.65 Q-711.15 9.5 -716.5 9.5 L-732.5 8.5 Q-728.15 8.0 -720.6 3.45 -710.75 -2.5 -701.7 -5.75 -666.25 -18.5 -586.5 -18.5 -562.3 -18.5 -550.65 -14.9 -544.45 -13.0 -536.3 -7.0 -528.75 -1.4 -519.05 0.9 -504.15 4.5 -474.5 4.5 -457.9 4.5 -444.6 -12.6 -441.2 -17.05 -435.55 -25.45 -430.85 -32.0 -427.5 -33.5 -406.65 -43.0 -377.45 -49.0 -349.1 -54.8 -337.5 -52.5 -328.6 -49.4 -314.65 -38.1 -297.8 -23.75 -288.45 -16.25 -271.8 -2.9 -258.4 3.75 -240.75 12.5 -224.0 12.5 -216.7 12.5 -206.0 7.8 -199.85 5.15 -186.0 -2.5 -172.6 -9.9 -165.65 -12.8 -154.5 -17.5 -146.5 -17.5 L-77.5 -14.0 -8.5 -10.5 Q73.45 -10.5 131.55 23.5 140.65 28.8 151.0 36.0 L166.35 46.9 Q181.65 57.5 189.5 57.5 L224.2 50.7 258.5 43.5 Q273.35 37.85 295.7 34.0 316.0 30.5 329.5 30.5 354.75 31.0 378.9 30.2 L427.75 27.75 Q514.4 22.65 593.5 20.5 604.3 20.35 610.5 18.1 614.85 16.55 618.2 13.3 622.3 9.3 623.5 8.6 627.15 6.5 633.5 6.5 L677.2 9.4 Q713.85 12.5 717.5 14.5 729.05 20.95 732.5 23.5 731.5 25.5 731.5 26.5 720.7 24.85 686.4 21.25 650.5 17.5 643.5 17.5 636.3 17.5 629.95 20.45 624.05 23.15 620.5 27.5 620.0 28.05 603.3 30.5 583.0 33.5 556.5 36.5 429.5 42.5 405.5 45.5 L384.25 43.2 M-229.5 -100.5 Q-213.75 -91.7 -191.95 -87.2 -180.1 -84.75 -152.35 -81.6 -126.8 -78.75 -113.35 -75.45 -92.45 -70.4 -77.5 -60.5 -45.85 -45.8 6.5 -38.5 84.95 -26.05 145.0 -31.3 L172.45 -32.95 Q181.75 -32.1 187.5 -24.5 175.9 -13.2 152.7 -11.75 145.4 -11.3 137.25 -11.85 L129.5 -12.5 Q35.05 -12.5 -0.05 -21.25 -10.65 -23.9 -16.7 -27.7 -22.35 -31.25 -23.5 -31.5 -48.6 -37.1 -65.35 -42.55 -82.1 -48.0 -97.5 -55.5 -110.7 -62.25 -131.4 -64.55 L-167.45 -67.3 Q-188.4 -69.35 -201.5 -75.4 -218.7 -83.35 -229.5 -100.5 M-234.7 76.55 Q-224.0 79.5 -214.5 79.5 L-170.5 76.0 -126.5 72.5 -88.8 67.4 -48.5 61.5 Q-38.9 59.6 -19.5 56.75 2.8 53.5 9.5 53.5 L55.5 61.9 113.5 72.5 180.15 83.15 Q208.65 87.45 211.5 88.5 198.65 94.0 192.2 96.4 181.0 100.5 169.5 100.5 136.55 100.5 104.2 93.5 L80.55 88.7 Q67.15 86.5 53.5 86.5 47.25 86.5 30.25 80.0 13.25 73.5 5.5 73.5 -0.75 73.5 -42.45 79.15 -85.5 84.95 -109.5 85.5 L-137.35 84.65 Q-150.4 83.6 -152.5 81.5 -151.35 82.75 -151.5 84.0 -151.75 86.5 -158.0 86.5 -199.0 86.5 -226.4 82.6 -241.8 80.4 -266.85 74.0 -290.9 67.85 -310.15 65.4 -340.7 61.5 -387.0 61.5 -400.45 61.5 -408.5 63.9 -412.65 65.1 -420.55 69.4 -428.1 73.4 -435.75 75.4 -447.45 78.5 -466.5 79.5 L-498.35 81.5 -547.5 83.5 Q-552.5 83.5 -560.0 88.0 -567.5 92.5 -572.5 92.5 L-603.5 89.9 Q-636.3 87.1 -673.5 86.5 -673.5 85.65 -675.0 82.9 -676.5 80.15 -676.5 78.5 L-619.1 78.7 Q-596.15 78.7 -582.05 78.05 -556.5 76.85 -480.5 67.5 -464.15 65.75 -444.45 55.15 L-429.5 46.85 Q-421.25 42.35 -415.5 40.5 -381.2 29.2 -353.95 37.4 -345.35 39.95 -335.7 45.15 L-323.5 51.5 Q-290.45 56.75 -256.05 69.25 -240.4 74.95 -234.7 76.55" fill="#000000" fill-opacity="0.101960786" fill-rule="evenodd" stroke="none"/>
  </g>
</svg>
