<?xml version="1.0" encoding="UTF-8" standalone="no"?>
<svg xmlns:xlink="http://www.w3.org/1999/xlink" height="328.35px" width="120.1px" xmlns="http://www.w3.org/2000/svg">
  <g transform="matrix(1.0, 0.0, 0.0, 1.0, -153.75, -51.75)">
    <path d="M197.35 59.7 L197.95 59.15 197.45 59.1 197.4 58.85 Q197.4 58.5 199.5 58.1 L200.65 57.45 201.3 57.7 203.2 57.5 205.0 56.7 206.15 56.05 Q206.95 55.55 207.1 56.15 L207.8 56.0 208.55 55.8 208.7 55.8 210.4 54.35 210.85 53.55 211.25 52.7 212.25 51.8 Q212.8 51.65 212.8 52.35 212.8 52.8 211.85 53.85 L210.55 55.2 211.2 54.9 Q212.05 54.9 212.05 55.6 L212.4 55.7 Q213.2 55.7 216.7 53.65 L217.05 54.0 Q217.05 54.45 215.15 55.85 L215.2 56.15 217.0 55.75 217.5 55.95 218.15 55.75 218.5 55.8 218.55 56.15 218.35 56.75 217.65 57.45 217.2 57.4 217.2 56.85 216.2 57.4 Q218.75 57.55 220.0 58.5 220.65 59.05 221.15 60.25 221.85 62.05 222.25 61.7 L223.75 61.75 Q224.35 62.2 224.25 62.6 L224.0 63.15 225.0 64.5 224.75 65.25 Q224.5 65.65 224.5 66.0 L224.9 66.8 225.25 67.55 225.0 68.3 224.25 69.25 225.2 71.8 225.25 73.65 225.15 75.7 225.1 78.1 226.25 79.5 226.5 82.55 Q226.5 85.25 224.65 88.5 222.75 91.75 222.75 95.55 L222.85 99.05 223.05 100.3 223.35 100.4 226.0 101.9 Q226.7 102.4 231.75 104.35 L238.4 107.0 244.15 109.5 Q251.4 113.6 258.35 123.35 264.45 131.8 267.5 138.35 269.15 141.95 272.35 145.85 273.1 146.75 273.85 153.05 L273.65 155.05 273.75 155.5 271.05 160.5 Q268.05 165.8 267.25 167.75 L264.5 173.65 261.5 180.0 Q259.2 185.4 253.5 192.0 252.6 193.1 251.75 195.0 L250.25 198.25 Q249.45 199.6 245.25 203.65 245.4 206.3 248.15 219.65 L248.9 227.85 Q249.3 232.75 249.85 235.75 L251.15 243.95 252.75 252.1 254.5 260.15 254.65 264.25 255.15 268.1 Q255.15 270.3 254.5 271.05 L252.7 272.25 253.1 273.15 Q253.9 274.75 255.1 278.6 256.0 281.35 256.0 289.25 L255.9 290.25 255.85 290.4 255.75 290.35 Q255.75 291.15 256.6 292.6 257.75 295.55 257.9 297.1 L258.8 301.6 259.6 306.1 259.8 310.75 260.1 315.25 Q260.65 318.3 261.1 324.25 L262.5 333.35 263.85 342.5 265.3 360.1 265.45 360.5 Q266.45 363.25 267.75 365.0 270.2 368.2 270.75 369.6 271.25 370.9 271.25 373.55 L271.0 376.6 Q270.7 377.65 269.95 378.5 L269.35 379.5 268.1 379.5 268.0 379.3 260.25 379.35 252.45 379.3 245.2 379.15 245.2 379.35 244.75 379.5 Q242.15 379.5 241.85 372.75 L242.1 365.85 Q242.1 364.6 241.1 358.05 240.05 351.35 239.6 349.85 L235.1 333.9 232.85 325.95 Q231.4 320.95 230.85 318.0 L229.35 310.15 Q228.6 305.55 228.6 302.3 L228.65 297.15 229.1 296.15 Q229.5 295.6 230.25 295.3 L228.0 291.2 Q225.1 285.65 223.65 282.25 221.3 276.6 219.75 267.65 218.45 260.15 217.85 252.85 L217.7 249.15 217.4 245.5 216.35 241.45 215.5 238.2 215.6 237.7 214.75 236.15 Q213.3 238.3 212.9 241.9 L212.4 247.6 210.4 258.85 Q209.2 265.9 208.0 270.1 L207.4 272.9 206.65 275.75 Q206.3 276.75 205.9 278.65 L205.25 280.2 205.25 280.3 205.05 280.95 203.7 281.25 203.35 281.8 Q202.85 282.35 202.85 283.0 L202.6 285.1 Q202.5 285.9 202.55 287.15 L202.6 289.25 Q202.6 290.6 202.0 293.35 201.9 293.85 201.95 295.4 L201.85 295.9 202.6 295.9 Q204.7 295.9 204.9 297.0 205.4 298.4 205.4 299.6 L204.6 306.25 203.35 314.75 201.5 322.4 199.4 330.0 194.9 346.1 Q193.4 352.35 193.4 360.25 L193.8 363.55 194.15 367.1 194.55 370.05 194.9 373.55 Q194.9 374.35 194.4 375.35 193.95 376.3 193.3 376.6 L192.55 377.65 191.5 378.75 190.55 379.3 187.9 379.9 184.85 379.9 181.45 379.95 178.85 380.1 169.1 380.05 Q169.4 379.6 167.5 378.9 L167.5 378.35 167.75 378.35 167.6 378.1 167.6 377.05 Q167.1 376.65 166.7 375.65 166.25 374.45 166.25 373.5 166.25 371.65 166.75 368.35 166.8 366.1 168.25 363.25 170.65 358.5 170.75 353.35 L171.25 333.5 Q172.05 319.5 172.6 312.55 173.45 301.45 176.15 295.4 L175.35 295.3 Q174.65 295.1 174.65 294.5 174.65 294.25 175.0 293.85 L175.35 293.2 Q174.6 292.25 174.0 289.75 L173.35 285.7 Q173.35 282.95 174.95 279.2 L176.35 276.45 175.35 276.15 Q174.85 275.95 174.85 272.05 174.85 269.3 175.15 267.5 L175.85 263.25 175.95 261.0 175.9 258.75 176.1 256.35 Q176.25 255.5 176.95 255.25 L177.75 248.25 Q178.3 238.05 178.75 233.0 180.4 214.05 182.1 202.55 L181.2 201.25 179.5 198.1 175.65 192.1 Q174.35 189.85 171.3 186.0 L166.9 180.1 Q164.05 175.6 160.9 171.55 L156.8 166.4 Q153.75 162.25 153.75 156.4 L153.9 153.85 Q154.05 152.2 154.25 151.75 L155.35 149.45 155.6 149.0 Q155.65 148.55 157.75 143.95 L161.65 135.25 167.65 121.75 Q169.15 118.35 172.6 114.85 176.1 111.35 180.0 109.25 184.6 106.8 194.6 103.9 200.15 102.25 200.15 99.05 200.15 96.9 198.05 92.3 196.65 91.55 195.4 87.95 L194.6 85.45 193.85 84.65 193.5 84.25 193.55 84.15 Q193.1 83.25 193.05 82.1 192.95 80.45 193.2 77.85 L192.6 77.9 192.55 77.3 192.85 75.65 193.25 74.25 Q192.9 74.4 192.5 75.1 L192.1 75.05 192.05 74.55 Q192.05 74.15 192.7 72.75 L193.3 71.15 193.2 70.95 193.05 70.7 Q193.05 70.25 193.55 69.3 L194.0 68.4 193.8 67.8 194.2 66.15 194.7 64.65 194.35 65.1 193.45 65.4 193.3 64.85 193.05 64.3 Q193.05 63.9 193.5 63.55 L194.55 62.7 195.9 61.2 197.35 59.7 M199.4 58.8 L199.3 58.95 199.25 59.05 199.5 59.0 199.6 58.75 199.4 58.8 M194.55 79.5 L194.45 80.6 194.45 81.4 194.65 79.9 194.55 79.5 M214.6 57.15 L214.25 57.25 214.5 57.3 214.6 57.15 M179.25 145.75 L177.3 149.55 Q174.05 155.55 172.0 157.35 174.85 159.65 176.35 163.3 L178.35 169.5 179.7 172.35 181.15 175.5 Q181.45 176.3 183.1 178.4 L184.65 180.7 185.6 176.1 Q186.6 171.75 186.6 170.35 L186.35 163.75 185.5 160.6 184.25 157.25 181.65 150.65 180.2 147.8 179.25 145.75 M240.75 163.3 Q240.75 168.8 241.5 171.35 242.1 173.2 244.0 176.4 L245.3 178.55 245.6 178.65 246.05 178.95 247.1 176.65 248.85 172.9 249.65 169.7 250.25 166.5 Q250.8 163.7 252.0 160.0 L253.7 156.8 255.25 153.6 250.8 149.0 Q247.5 145.3 246.35 141.2 L245.15 144.7 Q243.4 149.85 243.0 151.5 L241.3 157.9 Q240.75 160.0 240.75 163.3" fill="#000000" fill-rule="evenodd" stroke="none"/>
  </g>
</svg>
