<?xml version="1.0" encoding="UTF-8" standalone="no"?>
<svg xmlns:xlink="http://www.w3.org/1999/xlink" height="314.55px" width="104.3px" xmlns="http://www.w3.org/2000/svg">
  <g transform="matrix(1.0, 0.0, 0.0, 1.0, -61.6, -67.1)">
    <path d="M110.85 69.2 L112.25 69.1 112.65 68.6 113.25 68.0 115.95 67.4 118.5 67.15 120.7 67.3 121.75 67.9 122.45 68.0 123.25 67.9 Q124.2 67.9 125.25 69.6 128.0 69.25 129.1 71.0 129.45 71.5 131.2 72.5 132.8 73.4 133.25 74.5 L133.75 76.4 Q133.95 77.35 134.75 78.5 136.0 80.25 135.9 80.75 L135.5 82.4 136.4 84.05 Q137.25 85.6 137.25 86.4 L137.0 87.45 136.75 88.5 137.15 90.0 137.5 91.8 137.1 92.55 Q136.7 93.0 136.75 93.65 L137.0 95.55 136.9 96.15 136.5 96.0 135.25 99.1 Q135.25 100.4 134.5 102.5 L134.4 102.15 133.85 102.0 133.25 102.1 Q133.15 104.55 132.05 105.45 L131.25 106.25 130.6 106.25 130.65 107.7 134.15 107.5 134.9 106.1 135.0 106.05 140.5 106.45 142.45 107.05 142.95 107.15 147.0 108.9 Q151.3 110.75 153.6 116.55 155.4 121.05 155.4 125.65 155.4 131.5 151.8 135.9 L147.75 140.65 144.1 150.0 Q142.4 154.3 139.9 161.85 L139.35 163.65 Q140.0 164.65 140.0 167.3 140.0 168.3 139.25 170.4 138.3 173.0 137.25 173.0 L136.65 173.0 Q136.15 175.3 136.15 176.45 L136.2 177.5 Q136.75 180.0 137.8 182.95 L141.85 194.15 145.6 207.05 Q146.4 210.5 146.4 216.2 146.4 221.25 145.15 228.2 L145.9 234.25 146.4 241.9 147.4 249.4 147.85 253.1 148.4 257.1 149.4 264.55 Q149.4 265.1 148.3 265.35 L147.25 265.65 147.7 267.45 Q148.4 271.0 148.4 273.3 148.4 274.9 147.9 276.5 147.3 278.45 147.05 280.2 L149.0 280.1 Q149.55 280.6 149.95 281.7 L150.75 283.75 Q151.9 286.0 152.25 287.35 L153.6 291.15 154.65 294.45 154.5 295.3 154.35 295.5 Q155.0 296.6 155.7 298.8 157.4 304.05 157.4 306.3 L157.3 307.4 156.15 308.2 Q156.15 310.65 156.4 311.35 156.85 312.5 157.3 314.8 157.75 317.05 158.15 318.1 159.15 320.85 159.7 324.85 L160.65 331.6 161.55 338.4 162.15 345.25 162.85 352.0 162.85 353.7 163.0 355.4 163.6 357.4 164.0 358.75 163.9 359.0 Q165.9 365.2 165.9 367.0 165.9 368.3 165.4 368.75 164.35 369.7 163.65 371.0 L161.1 374.75 Q159.1 377.4 157.0 378.6 L153.45 380.4 Q150.75 381.65 150.0 381.65 142.9 381.65 139.7 380.7 136.5 379.75 132.35 379.75 L129.25 380.1 127.75 380.4 Q122.25 380.4 122.25 378.75 L122.0 376.85 121.75 373.2 Q121.75 370.6 123.5 369.15 L127.1 366.0 130.75 362.35 Q133.75 359.3 133.75 358.7 L132.6 355.6 131.25 352.0 130.75 350.3 130.25 348.6 130.1 347.9 129.15 355.35 Q128.85 359.3 128.4 360.6 127.95 361.95 125.85 362.2 L122.0 362.65 117.1 363.55 113.0 364.15 Q111.9 364.15 111.4 363.6 L111.0 363.0 109.65 363.2 108.25 363.6 104.35 363.8 99.5 364.0 Q98.4 364.1 97.25 364.75 L93.7 364.95 89.85 365.1 80.25 364.65 80.15 365.0 80.1 365.1 79.75 365.15 Q78.35 365.15 78.05 360.9 L78.0 356.55 77.9 354.05 Q77.85 351.75 78.25 350.65 78.6 349.8 85.5 348.4 L88.65 347.3 Q90.25 346.4 91.0 346.0 L93.4 344.9 95.75 343.75 97.75 343.5 98.0 343.1 98.35 342.35 99.4 341.0 Q100.95 339.45 100.75 338.25 L100.85 336.7 101.0 335.4 Q101.0 332.85 100.2 327.7 99.35 322.6 99.35 316.85 L99.45 312.5 99.85 310.75 Q98.7 310.3 98.5 310.1 97.6 309.4 97.1 308.0 L96.8 306.0 96.6 303.75 96.45 301.9 Q96.45 300.75 97.0 300.4 L97.5 300.15 Q97.05 299.55 96.75 298.65 96.3 297.15 96.35 295.35 96.45 294.1 96.05 292.35 L95.6 289.6 Q95.6 286.9 98.15 285.95 97.35 285.25 96.5 283.65 95.4 281.6 95.0 280.0 L94.15 276.5 Q93.85 275.1 93.85 273.5 93.85 271.25 94.15 269.65 L94.3 268.0 Q92.95 267.55 92.25 266.7 90.85 265.0 91.25 260.9 L91.25 253.3 90.75 229.6 Q90.65 221.75 90.35 217.75 L90.2 214.85 89.85 211.75 Q89.15 208.0 89.15 206.05 L89.15 205.1 89.3 204.8 89.25 202.0 89.0 194.35 Q87.5 181.4 87.5 179.15 L87.85 173.0 87.9 172.9 Q87.5 172.2 87.25 171.05 L86.85 167.9 Q86.85 166.15 87.45 165.15 L88.45 163.9 88.35 160.25 Q88.35 158.95 87.8 156.9 87.25 154.8 87.25 153.8 L87.25 153.75 86.55 152.95 86.45 152.8 84.1 153.0 Q82.95 153.1 82.3 153.65 L81.0 154.4 76.8 156.25 Q73.35 157.65 70.75 157.65 66.05 157.65 65.5 156.15 63.8 155.15 62.75 153.15 61.6 150.9 61.6 148.45 61.6 144.85 62.8 143.45 63.55 142.6 70.25 137.6 74.45 134.45 76.6 133.2 80.8 130.6 85.5 129.1 89.0 128.0 91.9 125.5 L92.45 124.7 96.1 120.15 Q98.7 117.65 102.0 115.4 L104.7 113.35 107.4 113.55 108.35 112.15 108.35 111.65 108.65 109.95 Q108.65 108.4 107.7 104.85 106.85 101.65 106.25 100.4 105.85 99.55 105.85 98.0 L105.35 96.8 104.6 95.75 Q103.6 93.9 103.6 91.05 103.6 89.2 103.85 88.6 104.25 87.8 105.1 87.55 L104.85 86.7 104.9 84.6 104.65 80.65 104.65 79.35 105.2 78.85 105.65 78.25 105.55 77.15 105.4 76.0 105.95 75.55 Q106.3 75.3 106.65 73.9 106.8 72.7 108.85 71.9 L108.9 70.75 Q108.95 69.9 109.4 69.5 109.7 69.25 110.85 69.2" fill="#000000" fill-rule="evenodd" stroke="none"/>
  </g>
</svg>
