<?xml version="1.0" encoding="UTF-8" standalone="no"?>
<svg xmlns:xlink="http://www.w3.org/1999/xlink" height="595.8px" width="378.75px" xmlns="http://www.w3.org/2000/svg">
  <g transform="matrix(1.0, 0.0, 0.0, 1.0, 221.0, 176.0)">
    <path d="M4.3 -124.3 L4.25 -122.25 1.8 -122.05 -0.6 -122.35 -0.6 -118.6 Q-0.35 -118.0 5.1 -117.35 5.35 -117.25 5.35 -116.0 5.35 -113.75 2.9 -110.9 L-2.35 -105.85 -2.95 -105.2 -2.5 -104.9 -0.1 -102.75 Q-0.7 -100.75 -3.2 -99.9 L-4.05 -99.55 -4.15 -99.25 -4.3 -98.35 -4.3 -98.15 -4.35 -98.25 -4.4 -97.65 -4.3 -96.4 -4.4 -95.05 Q-5.15 -92.15 -5.15 -89.75 -5.15 -88.55 -4.7 -87.3 -4.25 -86.05 -4.25 -84.4 L-4.25 -83.8 -4.45 -83.65 -4.5 -83.6 -4.55 -83.3 -4.75 -83.2 -5.25 -83.1 -6.3 -83.5 -6.5 -80.1 Q-6.7 -78.25 -6.25 -74.05 -5.8 -69.8 -6.05 -67.7 -6.75 -60.9 -14.35 -57.5 L-14.5 -49.6 -14.8 -46.0 Q-13.55 -45.85 -11.7 -44.5 -9.55 -42.9 -7.55 -40.5 L-4.85 -36.75 Q-3.3 -34.5 -0.3 -33.35 L13.2 -28.0 Q20.2 -25.1 26.25 -22.85 29.6 -21.6 44.5 -17.45 56.05 -14.25 59.0 -12.1 59.55 -11.7 63.95 -9.0 L68.75 -5.6 72.3 -1.65 74.85 1.75 Q76.4 1.75 77.55 3.35 L80.35 7.3 Q81.85 9.85 87.0 14.75 L94.85 22.1 Q99.45 26.5 101.85 29.55 104.75 33.2 116.15 44.5 L122.35 51.35 124.25 53.7 Q124.9 53.55 125.55 54.3 126.15 54.9 127.15 56.9 L128.5 59.35 Q129.65 61.6 129.65 62.35 129.65 63.65 124.65 66.7 125.45 69.35 129.0 75.5 L134.15 84.1 138.55 93.4 Q141.2 99.25 143.5 102.5 146.95 107.35 152.05 119.55 157.75 133.25 157.75 139.25 157.75 141.6 156.45 144.95 155.45 147.6 154.15 148.6 L152.3 154.25 148.4 164.75 144.8 173.15 Q142.55 178.1 140.4 181.6 133.15 193.6 130.75 198.5 L122.0 215.35 Q118.85 221.25 113.55 232.15 108.6 241.55 102.5 248.75 100.05 251.65 97.7 257.15 95.2 263.1 93.35 265.6 92.45 266.85 90.65 269.95 88.7 272.65 85.85 273.75 L83.75 275.15 Q81.95 276.1 77.5 276.15 L67.45 275.2 Q63.85 274.8 61.5 275.65 60.55 276.0 59.8 276.5 L59.6 276.65 59.3 277.15 Q60.85 280.6 61.95 286.5 L63.6 297.15 Q67.35 314.05 68.35 319.65 70.1 329.1 73.4 342.65 75.85 353.95 75.85 364.1 L74.75 392.25 74.85 401.05 Q75.0 405.2 75.7 408.25 L76.6 408.4 76.75 408.65 76.85 409.55 Q72.3 414.4 70.5 414.4 L63.4 413.55 45.4 412.65 41.1 412.7 41.3 417.85 41.25 419.25 40.8 419.8 Q39.05 418.0 38.4 412.75 L28.75 413.55 Q26.3 414.4 24.5 414.4 L11.4 413.9 -1.0 413.4 -21.6 411.55 Q-39.3 411.2 -50.65 412.4 L-55.1 412.45 -60.05 411.2 -60.0 411.7 Q-60.2 412.55 -61.75 413.05 -65.65 414.3 -82.5 414.3 -91.9 414.3 -97.15 411.9 L-100.5 410.25 Q-102.2 409.5 -104.0 409.5 L-105.1 410.4 Q-106.1 411.3 -110.0 411.3 -118.45 411.3 -129.95 409.6 -139.4 408.2 -140.75 407.55 -142.7 406.65 -144.0 403.9 -145.1 401.55 -145.1 399.65 -145.1 397.5 -144.55 396.35 L-144.6 393.1 Q-144.6 390.8 -143.9 385.45 -143.2 380.25 -143.25 377.55 -142.95 374.7 -143.05 370.05 L-143.25 362.25 -141.95 346.8 Q-141.15 337.3 -139.25 331.5 -137.05 324.9 -137.25 316.05 -137.25 306.55 -135.75 300.65 L-134.2 293.25 Q-133.2 288.35 -132.0 285.3 L-130.6 281.8 Q-129.7 279.4 -129.6 277.8 L-129.5 273.7 -129.3 272.85 -136.65 267.3 Q-145.8 259.65 -147.0 258.75 -150.8 255.9 -155.2 250.4 L-162.25 241.0 -176.95 219.85 Q-184.9 208.05 -187.35 203.5 L-197.7 184.8 Q-203.75 173.4 -205.75 166.0 -207.05 161.2 -213.05 144.5 L-217.6 131.5 -218.2 130.25 Q-218.85 126.9 -219.5 125.25 -221.0 118.25 -221.0 116.8 -221.0 114.05 -216.3 104.55 L-211.0 94.5 Q-200.0 73.9 -200.0 72.75 -200.0 72.15 -200.5 70.4 L-201.0 68.05 Q-201.0 66.8 -192.6 53.85 -184.45 41.3 -180.85 36.75 -178.1 33.25 -171.35 21.4 -165.75 11.6 -159.75 5.6 -157.0 2.9 -155.0 -2.4 -152.9 -7.95 -151.0 -10.05 -144.8 -16.85 -134.35 -22.75 -130.6 -24.85 -122.2 -27.9 L-107.5 -33.1 -94.55 -38.1 Q-88.45 -40.4 -83.3 -41.7 -83.1 -42.1 -83.3 -42.55 L-83.5 -43.15 -81.3 -43.1 -78.15 -48.4 Q-74.25 -55.65 -74.25 -59.75 -74.25 -62.55 -77.5 -65.65 -82.75 -70.55 -84.25 -72.6 L-85.65 -76.15 Q-86.4 -78.45 -87.85 -79.25 L-90.3 -80.0 Q-91.4 -80.25 -92.5 -81.6 L-92.95 -83.0 -93.1 -85.0 Q-96.85 -84.75 -97.15 -85.8 -97.35 -86.45 -97.0 -88.5 L-97.3 -90.4 -97.5 -92.6 -97.55 -96.75 Q-97.6 -99.2 -98.1 -100.75 L-99.0 -101.25 Q-99.9 -101.7 -100.0 -102.35 L-100.0 -108.35 Q-99.9 -109.5 -100.45 -110.2 L-102.0 -112.0 Q-102.4 -112.6 -102.5 -113.65 L-102.5 -115.55 Q-102.5 -118.65 -102.0 -119.5 L-100.35 -121.0 Q-99.4 -121.75 -99.5 -122.6 L-99.5 -129.35 Q-99.35 -132.05 -96.6 -136.1 L-92.0 -142.35 Q-93.1 -148.8 -86.15 -158.85 -79.45 -168.5 -75.25 -168.5 L-74.35 -168.25 -74.15 -168.35 Q-74.0 -168.3 -74.0 -167.5 -74.0 -167.1 -74.7 -166.35 L-75.5 -165.25 -75.35 -164.75 -69.9 -168.15 Q-66.15 -170.5 -65.0 -170.5 L-63.85 -170.25 Q-63.35 -169.5 -63.75 -168.35 L-64.0 -168.0 Q-57.3 -171.15 -52.7 -172.75 -44.45 -175.6 -34.85 -176.0 L-34.65 -175.65 Q-34.5 -175.35 -34.5 -174.6 -34.5 -173.9 -36.25 -172.5 -38.15 -171.0 -38.5 -169.85 L-38.5 -169.6 -19.85 -167.65 Q-15.0 -166.85 -15.0 -164.85 -14.85 -164.5 -15.2 -164.15 -15.95 -163.4 -18.5 -163.25 L-18.6 -163.1 Q-18.8 -162.9 -19.35 -162.75 L-14.65 -159.55 Q-10.5 -156.9 -9.6 -155.85 -9.05 -155.2 -7.15 -154.25 -5.45 -153.4 -5.0 -152.5 L-4.2 -150.7 -3.6 -148.75 Q-4.9 -148.25 -6.55 -148.05 -7.5 -147.95 -8.35 -147.1 -7.65 -145.7 -4.1 -141.5 -0.9 -137.7 -0.1 -135.35 0.55 -133.4 2.75 -129.8 4.3 -127.25 4.3 -124.3 M2.55 -124.65 Q2.55 -125.4 0.55 -129.4 L-2.85 -136.1 Q-4.1 -138.75 -7.55 -142.5 -10.35 -145.55 -10.35 -147.1 -10.35 -148.05 -9.45 -148.85 -8.4 -149.85 -6.35 -150.1 -7.35 -151.25 -8.9 -152.05 L-10.6 -153.1 -11.8 -154.9 Q-12.9 -156.4 -13.75 -156.85 L-18.35 -159.5 Q-22.5 -162.05 -22.5 -162.75 -22.5 -163.85 -20.6 -165.1 -21.85 -165.1 -22.95 -165.7 L-36.6 -167.1 Q-41.0 -167.35 -41.0 -169.65 -41.0 -171.7 -39.1 -172.85 L-39.0 -173.25 Q-46.25 -172.55 -55.5 -169.1 -60.65 -167.2 -65.0 -165.0 L-66.35 -166.4 -66.5 -167.0 -66.5 -167.35 Q-68.55 -166.3 -71.9 -163.85 L-76.5 -160.1 Q-78.7 -160.6 -78.65 -161.95 L-78.0 -164.25 -78.0 -164.6 Q-85.25 -158.1 -87.35 -152.6 L-88.65 -149.65 -90.0 -146.25 -90.0 -143.15 Q-89.95 -141.15 -90.5 -140.25 L-94.9 -133.9 Q-97.4 -130.15 -97.5 -127.85 L-97.05 -124.75 -96.95 -123.25 -94.85 -121.75 Q-92.35 -120.2 -89.5 -120.0 -90.35 -124.7 -88.35 -130.8 -86.3 -136.9 -82.5 -141.0 L-79.3 -133.6 Q-77.3 -129.65 -74.2 -127.55 L-74.6 -129.15 Q-75.35 -131.7 -75.35 -133.0 -75.35 -136.9 -73.8 -139.3 -72.75 -141.0 -67.5 -146.35 -66.35 -145.3 -66.6 -143.7 L-67.1 -140.85 -66.85 -138.05 -66.5 -135.25 -62.4 -137.75 Q-59.15 -139.85 -58.5 -139.85 L-47.45 -139.15 Q-45.75 -138.35 -43.6 -132.1 L-43.65 -131.9 -44.55 -131.75 Q-45.15 -131.75 -46.15 -132.35 -47.1 -133.0 -47.75 -133.0 -52.35 -133.0 -54.85 -129.35 -56.6 -126.85 -56.6 -124.65 -56.6 -123.0 -56.25 -122.2 -55.35 -120.35 -52.5 -120.35 -50.2 -120.35 -49.1 -121.35 -48.5 -121.95 -47.85 -123.1 L-46.35 -123.1 -46.25 -119.75 -46.35 -116.55 Q-46.55 -115.25 -47.75 -113.0 -46.15 -113.15 -45.1 -114.55 L-43.25 -116.6 -42.85 -116.2 -42.75 -115.1 Q-42.75 -109.95 -47.75 -103.3 L-52.75 -96.5 Q-52.75 -94.8 -49.7 -90.5 L-45.6 -84.5 -45.85 -83.85 -45.7 -83.7 -46.5 -83.6 Q-47.65 -83.6 -52.55 -85.85 -58.05 -88.3 -60.0 -90.25 L-60.25 -90.0 Q-58.3 -86.75 -53.4 -80.3 -48.75 -74.25 -47.1 -71.25 L-47.5 -70.6 -54.1 -72.55 Q-60.3 -74.5 -61.1 -75.1 -59.5 -71.2 -56.55 -67.75 -53.2 -63.75 -48.6 -61.0 -48.9 -60.25 -50.55 -60.25 L-56.35 -61.55 -63.1 -63.1 -60.15 -60.5 Q-58.2 -58.75 -57.65 -57.85 L-57.2 -57.7 -53.5 -56.4 -53.25 -56.5 Q-54.35 -57.6 -54.35 -58.0 -54.35 -58.85 -53.5 -58.85 L-51.9 -58.25 Q-49.95 -57.15 -49.2 -57.45 L-47.1 -57.55 -42.0 -57.55 -44.9 -61.1 -46.9 -63.3 -46.85 -64.05 -45.75 -64.15 -34.4 -63.05 Q-34.4 -64.85 -34.0 -66.75 -33.4 -69.65 -32.1 -69.65 -31.45 -69.65 -30.45 -68.8 L-29.5 -67.9 -26.75 -71.15 -23.85 -74.5 Q-22.9 -75.45 -20.85 -78.55 -19.45 -80.15 -18.15 -79.25 L-18.05 -79.55 Q-17.35 -81.2 -17.35 -82.55 -15.75 -89.65 -14.25 -89.65 -10.45 -87.5 -8.4 -86.5 L-8.4 -86.7 -8.25 -86.6 -7.2 -86.15 -6.15 -85.85 -6.3 -86.6 -6.75 -89.75 -6.45 -92.95 -6.0 -96.35 -6.0 -99.55 -5.6 -100.55 -5.95 -100.9 -3.6 -102.35 Q-5.75 -104.25 -5.35 -105.75 L-4.7 -105.75 -2.75 -107.85 Q2.15 -113.0 3.05 -115.5 L0.05 -116.05 -2.35 -117.1 -2.35 -124.25 1.75 -124.0 2.45 -123.9 2.55 -124.65 M5.35 -28.6 L-1.8 -31.25 Q-5.55 -32.5 -6.9 -34.85 L-9.3 -38.75 -13.2 -41.95 -14.25 -42.85 -15.25 -43.0 -15.6 -42.85 -17.9 -42.9 -35.45 -40.6 Q-54.1 -38.3 -60.2 -38.3 L-64.1 -38.6 -70.35 -34.2 Q-77.75 -30.2 -82.25 -33.05 L-85.0 -33.05 Q-77.8 -31.5 -73.5 -27.95 -70.35 -25.35 -68.0 -20.8 L-68.25 -20.65 -69.25 -20.5 -79.45 -23.85 Q-89.95 -27.25 -91.8 -27.25 -109.1 -27.25 -115.5 -19.3 -120.5 -13.1 -120.5 1.25 -120.5 4.8 -119.9 6.8 L-117.75 14.0 -117.75 14.25 -119.25 13.2 -119.1 13.85 Q-118.7 15.45 -116.95 17.9 -115.45 20.0 -113.95 21.1 L-113.75 20.85 -113.5 20.65 Q-113.25 20.6 -113.25 21.4 L-113.3 21.95 -113.25 22.15 -113.4 22.4 Q-114.1 25.75 -117.85 39.15 -122.5 58.15 -122.5 72.05 -122.5 76.0 -121.5 82.05 L-119.75 91.35 -118.95 89.0 Q-118.25 87.4 -117.0 87.1 -114.85 94.0 -114.6 99.0 L-114.35 99.0 -114.4 77.45 Q-114.45 64.2 -113.6 55.5 L-112.75 55.35 -109.35 76.2 Q-107.0 87.95 -102.85 97.0 -98.9 105.5 -90.65 117.6 L-75.8 139.0 -76.0 139.35 Q-76.25 139.65 -77.0 139.65 L-87.0 129.4 -101.25 114.25 -101.5 114.25 Q-100.55 118.7 -99.75 124.75 L-98.5 135.25 Q-97.8 140.95 -98.3 145.75 -98.5 147.65 -97.2 151.15 L-95.0 156.25 Q-86.45 175.9 -72.3 197.9 L-72.55 198.65 -72.7 198.85 -73.8 199.0 -78.5 195.45 -83.55 191.5 Q-85.5 190.55 -92.0 187.35 -97.7 184.65 -98.75 184.65 L-99.55 184.8 -100.5 185.0 -100.5 189.75 Q-100.0 191.65 -100.0 195.4 L-89.95 197.7 Q-86.0 198.8 -86.0 200.15 -86.0 201.15 -86.95 201.6 -88.7 202.5 -94.25 202.75 L-96.5 203.35 -99.55 204.25 Q-98.95 205.05 -90.3 206.25 -82.5 207.35 -82.5 210.55 -82.5 211.6 -88.35 213.25 L-97.3 215.75 Q-99.85 216.7 -105.25 218.0 -109.5 219.25 -109.85 220.8 -108.8 221.7 -107.05 221.95 L-103.2 221.85 -100.6 221.9 -101.2 221.7 -101.3 221.7 Q-97.6 221.35 -96.3 222.8 -95.85 223.3 -95.45 224.15 -95.0 225.1 -95.0 225.8 -95.0 226.85 -97.35 228.7 L-100.5 231.4 -90.25 232.4 Q-89.0 232.75 -89.0 233.75 -89.0 235.45 -92.65 236.5 L-100.0 238.3 Q-98.95 239.15 -95.6 240.6 -93.5 241.5 -93.5 243.05 L-96.0 249.4 Q-96.0 250.9 -94.15 252.65 L-94.1 252.7 -94.0 252.65 -93.25 253.0 Q-93.05 253.15 -93.0 253.85 -92.0 254.95 -91.75 255.65 L-92.05 256.3 -93.85 255.55 -96.2 257.55 -99.75 260.3 Q-94.55 266.35 -93.65 267.9 L-93.45 268.3 -93.0 268.1 Q-91.5 267.95 -88.5 268.1 -85.4 268.25 -83.0 268.0 L-79.2 267.45 Q-75.85 267.1 -74.65 268.0 L-74.6 268.3 -74.7 268.4 -73.75 268.35 -73.85 268.25 Q-73.95 267.45 -72.4 267.5 L-69.05 267.55 Q-65.45 266.65 -61.85 266.9 L-61.8 267.4 -47.65 265.25 -35.0 264.5 -29.8 263.9 -14.75 263.25 Q-14.75 263.1 -5.1 263.05 L32.35 264.65 31.95 264.05 26.05 262.85 22.5 262.7 17.0 262.0 11.05 261.45 Q6.9 261.0 6.25 260.0 5.85 259.45 5.85 258.55 L5.85 257.25 Q5.85 254.6 6.8 253.15 8.8 250.25 14.5 250.5 L18.3 250.35 20.5 250.3 21.4 250.3 29.9 250.85 29.95 250.8 29.85 250.75 29.65 250.6 29.6 249.8 Q29.6 249.4 32.75 247.3 35.85 245.15 35.85 242.9 35.85 240.8 34.8 237.5 L32.85 231.85 Q30.6 225.0 30.85 221.0 31.1 217.3 26.5 208.4 L21.85 199.25 21.85 198.55 22.0 198.5 22.25 198.05 23.25 197.85 Q24.25 197.85 25.95 199.3 27.65 200.8 29.5 200.75 L24.3 191.05 Q21.5 185.8 21.5 181.8 21.5 181.05 22.75 175.7 24.0 170.3 24.0 168.65 24.0 166.2 21.75 162.55 19.5 158.9 19.5 155.75 19.5 155.4 22.6 153.6 26.0 151.65 26.85 149.6 28.5 145.75 28.5 142.85 28.5 140.8 27.25 135.75 25.75 129.75 25.6 128.6 24.85 123.85 24.85 114.35 24.85 113.15 26.0 105.6 L27.35 97.1 Q28.4 92.85 28.45 88.15 L28.35 80.25 Q28.35 69.9 35.7 53.85 42.7 38.45 51.0 29.3 L51.8 29.6 Q52.1 29.85 52.1 30.65 L50.3 34.85 Q48.55 38.85 48.5 40.8 L48.0 45.2 47.5 50.35 Q47.5 56.55 47.75 57.9 L50.75 68.25 50.85 68.35 52.9 62.05 Q54.3 57.9 54.6 55.0 L55.25 54.75 56.0 54.5 Q57.2 56.5 57.35 59.8 L57.6 65.55 57.85 65.75 Q58.45 58.45 62.0 50.5 65.75 42.2 72.0 35.05 L73.0 34.5 73.75 34.9 74.0 36.0 71.9 43.45 Q69.55 51.3 68.75 55.3 67.5 61.4 65.0 74.85 L65.1 75.35 Q66.2 74.65 66.9 73.15 67.7 71.4 68.0 71.1 L67.9 71.05 68.75 71.0 Q69.8 71.0 69.75 73.3 L69.5 75.75 Q69.5 76.95 70.5 81.25 L70.15 81.3 70.75 81.35 Q72.7 81.35 79.5 78.2 L86.0 75.0 87.35 75.25 87.45 75.55 87.5 76.55 Q87.5 77.9 83.7 81.6 L79.5 85.75 83.5 86.0 86.1 86.0 86.3 86.2 86.5 86.95 Q88.9 84.1 92.6 80.8 L99.0 75.2 Q102.9 71.9 106.6 69.55 111.5 66.6 117.05 63.95 L119.85 62.7 Q120.65 61.8 122.9 61.2 126.4 60.25 126.4 61.8 L124.3 63.25 123.5 63.7 124.2 64.45 125.05 63.9 Q127.55 62.4 127.55 62.05 L126.6 60.05 125.55 58.3 124.0 56.2 123.65 56.4 122.9 55.3 122.85 55.3 119.85 51.7 113.25 45.25 106.1 37.95 99.35 31.05 Q92.65 24.45 86.6 17.3 L80.45 11.05 78.45 8.85 78.35 9.0 Q74.25 5.0 72.0 1.5 69.45 -2.45 65.45 -5.3 63.0 -7.05 56.1 -10.75 53.85 -11.95 41.5 -15.65 L24.0 -20.85 Q21.8 -21.55 17.4 -23.55 L11.75 -26.1 5.35 -28.6 M35.05 263.8 L44.4 266.35 Q48.85 267.6 52.05 268.9 L53.5 269.1 Q54.8 269.7 56.45 271.25 58.5 272.5 63.1 272.5 L63.3 272.65 Q63.5 272.75 63.5 273.4 70.8 273.05 76.05 273.25 80.25 273.4 81.75 273.15 83.1 273.0 84.6 271.75 L88.75 267.7 92.0 263.75 Q93.45 261.55 96.4 255.1 99.0 249.5 101.1 247.1 107.0 240.5 113.15 228.65 L120.5 213.6 128.7 196.85 Q133.65 186.9 138.5 179.85 140.5 176.85 142.85 171.45 145.75 164.85 146.75 163.0 147.4 161.8 149.2 154.1 150.15 150.0 152.65 147.8 L153.8 144.3 Q155.25 139.95 155.25 139.0 155.25 134.25 148.4 118.75 142.85 106.15 140.25 101.85 138.2 98.55 135.65 92.85 L131.4 83.5 126.8 75.05 Q124.05 69.8 123.1 67.2 L122.6 66.8 122.55 66.3 122.7 65.8 122.65 65.25 122.7 64.4 122.25 64.25 122.05 64.3 116.25 66.6 111.8 68.85 Q109.35 70.05 107.15 71.4 103.85 73.45 99.95 76.9 L93.8 82.4 Q89.2 86.35 85.35 92.15 86.85 93.2 88.75 95.1 L95.0 101.85 101.3 108.45 Q104.75 112.25 106.75 115.35 109.65 119.95 113.05 123.9 L117.8 129.25 Q121.75 134.05 121.75 141.5 121.75 148.25 112.45 172.05 102.25 198.25 102.0 199.25 98.35 215.7 91.1 228.1 89.75 230.4 84.8 234.3 78.4 239.35 76.25 241.5 71.5 246.2 70.65 248.8 70.25 249.95 70.25 255.75 L70.1 257.25 70.0 257.5 69.0 257.75 Q68.7 257.75 68.45 257.35 L68.4 257.35 Q67.6 257.35 65.7 255.7 63.7 253.95 62.1 253.75 L52.35 252.2 44.4 251.35 32.45 252.0 32.25 252.15 32.05 252.5 31.55 252.5 31.0 252.6 29.85 252.5 19.0 252.3 10.9 252.9 10.8 252.95 9.65 253.25 Q8.4 253.7 8.1 254.35 7.6 255.5 7.6 257.05 L7.65 258.5 Q7.85 259.0 9.0 259.25 L12.3 259.7 12.35 259.7 22.75 260.6 28.9 261.3 Q31.55 261.8 32.9 262.6 33.55 262.25 34.15 262.3 35.25 262.4 35.25 263.15 35.25 263.85 35.05 263.75 L34.25 263.55 35.05 263.8 M11.0 253.55 L16.0 254.05 Q16.9 254.75 16.9 255.9 L16.5 258.0 Q16.0 259.75 15.25 259.75 L12.35 259.6 Q10.2 259.35 9.3 258.7 8.6 258.15 8.6 257.4 L9.1 255.55 Q9.65 254.0 9.9 253.85 L11.0 253.55 M0.3 90.75 L-2.3 86.0 Q-3.65 83.65 -6.4 75.6 -9.05 67.95 -9.05 67.05 -9.05 66.3 -8.75 66.2 L-8.25 66.25 Q-1.75 77.6 12.35 103.6 L11.85 104.35 Q9.25 103.15 7.3 100.3 4.45 96.2 3.6 95.35 2.05 93.8 0.3 90.75 M44.1 91.0 L43.1 103.15 43.6 106.45 44.1 109.75 43.65 114.85 Q43.2 119.8 43.1 122.1 43.05 125.85 43.6 134.1 43.6 141.55 41.1 150.6 38.6 159.65 38.6 160.75 38.6 162.9 40.6 171.35 42.6 179.8 42.6 180.4 42.6 182.5 40.6 187.1 38.6 191.65 38.6 192.25 38.6 194.05 40.6 199.4 42.6 204.75 42.6 205.75 42.6 206.8 40.7 211.4 38.75 216.05 38.75 216.6 L40.8 218.5 Q42.8 220.6 42.6 223.0 L42.1 229.35 Q41.7 231.55 45.8 235.65 L49.5 239.2 49.5 239.1 50.0 239.0 51.25 238.85 Q52.4 238.85 54.4 239.7 56.4 240.5 60.4 240.5 65.3 240.5 67.5 235.6 69.25 229.8 70.35 228.0 75.3 219.95 77.25 215.6 83.4 201.15 86.85 190.5 88.45 185.65 90.15 178.0 L92.85 165.35 Q93.15 163.8 97.1 152.3 L100.7 141.2 Q99.55 139.75 97.2 134.95 92.65 131.25 84.85 119.1 82.15 115.35 79.6 111.45 77.0 107.45 75.75 104.95 L74.35 104.6 72.3 103.5 69.85 102.1 Q69.0 101.5 66.15 98.2 63.95 95.65 61.75 95.0 47.6 90.8 44.5 90.75 L44.45 90.5 44.1 91.0 M6.15 195.9 Q2.1 195.9 -5.75 193.15 L-14.55 189.75 -23.05 187.35 -34.0 184.5 Q-37.75 183.4 -41.4 181.7 -45.4 179.8 -46.3 179.5 -56.55 176.0 -59.75 172.5 L-59.75 172.4 Q-55.2 174.25 -46.35 177.3 -36.35 180.75 -29.5 182.65 -19.75 184.0 -14.25 185.65 -10.25 186.8 -6.8 188.75 L0.1 191.55 7.85 194.75 7.75 195.55 Q7.45 195.9 6.15 195.9 M33.55 267.25 L33.3 266.6 26.3 266.05 15.75 265.55 Q9.0 265.2 -6.75 265.0 L-29.95 265.9 -42.15 266.75 -54.1 268.05 -61.1 269.35 -62.05 269.3 -62.8 271.1 Q-63.95 273.55 -64.1 274.75 L-65.1 281.15 Q-66.4 280.4 -67.35 278.0 L-68.85 274.4 Q-71.4 270.3 -72.1 270.0 L-79.25 269.65 Q-79.3 269.9 -79.3 269.6 L-83.75 270.0 -90.3 269.75 -91.75 270.05 -92.75 270.25 Q-92.35 271.9 -92.35 274.0 -92.35 276.8 -92.5 278.3 L-92.75 278.5 -93.75 278.65 -102.0 276.55 Q-110.0 274.4 -110.75 274.3 L-111.5 274.4 Q-103.1 278.15 -98.65 280.25 -90.75 284.0 -86.25 286.9 -80.5 290.6 -76.45 294.15 -71.5 298.4 -71.0 300.8 L-71.1 301.3 -72.0 301.55 -78.8 298.55 Q-86.6 295.15 -91.75 293.4 L-97.45 289.9 Q-102.7 286.65 -103.85 286.65 -105.8 286.65 -107.5 288.05 -109.0 289.3 -109.0 290.15 -109.0 293.5 -98.5 299.65 -88.0 305.75 -88.0 308.85 L-88.1 309.4 -88.4 309.9 -89.5 310.05 Q-90.45 310.05 -99.3 306.55 -108.85 302.75 -110.75 302.3 L-112.35 302.3 -104.1 307.45 Q-99.25 310.65 -98.0 313.15 L-95.2 319.4 Q-93.2 323.35 -90.6 325.5 L-82.55 331.05 Q-76.95 334.8 -75.35 336.75 L-70.15 343.05 Q-67.55 346.0 -64.95 347.8 -63.95 345.15 -63.2 341.15 L-62.0 333.3 Q-59.0 333.4 -58.3 337.45 L-57.35 344.0 -48.5 343.05 -44.0 342.55 -39.5 342.05 -32.8 342.6 Q-31.1 342.8 -29.9 343.4 -28.05 344.3 -24.5 344.3 L-21.5 343.95 -13.25 343.3 -7.5 342.5 -0.9 341.6 1.75 340.5 Q2.55 340.1 6.15 338.9 L11.25 337.25 Q16.7 334.9 21.0 333.3 29.2 330.2 34.55 330.0 L34.8 330.15 35.05 331.0 Q35.05 331.55 31.05 336.1 27.05 340.65 27.05 343.5 27.05 344.15 29.8 350.95 32.55 357.7 32.55 362.85 32.55 366.15 30.05 374.55 27.55 382.95 27.55 384.25 27.55 386.2 28.65 388.85 L30.75 393.25 31.75 395.4 Q32.45 396.9 33.05 397.25 34.3 398.05 36.45 398.65 37.75 399.0 38.8 400.5 39.95 402.1 40.7 408.65 L40.85 409.7 45.5 409.65 63.9 410.55 68.9 411.4 Q70.75 411.4 72.6 409.8 L73.65 408.95 Q72.4 407.4 72.25 405.2 72.55 401.05 72.25 398.8 71.95 396.4 72.05 393.05 L72.25 387.25 73.1 364.1 Q73.1 354.2 70.7 343.3 67.45 329.95 65.6 320.5 L60.6 296.45 56.6 277.5 56.8 276.4 55.05 275.95 53.6 274.35 Q52.95 273.7 52.05 273.2 50.6 275.9 48.85 275.9 46.9 275.9 46.2 275.0 45.65 273.8 45.0 273.3 41.85 270.8 39.35 272.75 38.3 273.6 37.6 273.4 36.55 273.15 35.0 270.8 34.6 270.2 33.55 267.25 M15.5 255.3 L10.85 255.45 Q9.9 256.15 9.9 257.0 9.9 258.25 14.35 258.25 15.25 258.25 15.5 256.0 L15.5 255.3 M-16.55 -45.15 L-16.25 -53.0 -15.85 -56.9 -16.0 -56.85 -16.4 -57.1 -16.5 -58.0 Q-16.5 -58.9 -15.25 -59.7 L-15.2 -59.7 Q-14.85 -60.6 -14.35 -60.2 L-12.5 -61.3 Q-8.5 -63.95 -8.5 -69.35 L-8.6 -74.95 -8.5 -80.6 Q-8.35 -82.15 -8.35 -84.65 L-8.9 -84.95 -14.0 -87.85 Q-16.1 -83.25 -17.25 -78.35 L-17.3 -78.3 -17.5 -77.4 -18.0 -77.25 -18.55 -77.3 Q-18.75 -77.35 -18.75 -77.8 L-18.95 -77.95 -19.0 -78.0 -28.75 -66.3 Q-30.5 -66.3 -31.0 -67.0 L-32.0 -68.25 -32.75 -64.15 Q-33.4 -61.55 -33.75 -61.55 L-38.75 -61.8 -42.85 -62.4 -44.15 -62.4 Q-40.0 -57.8 -40.0 -57.1 -40.0 -56.35 -40.95 -56.2 -42.65 -55.9 -48.5 -56.35 L-50.5 -56.35 -49.5 -54.9 Q-49.5 -53.8 -50.7 -53.8 -52.15 -53.8 -54.45 -54.65 L-56.85 -55.55 -58.9 -56.0 Q-64.85 -56.3 -70.55 -59.95 L-71.3 -60.45 -71.75 -60.75 -71.75 -59.8 Q-71.75 -54.85 -74.0 -49.85 -75.55 -46.35 -77.9 -43.5 L-70.15 -42.0 -60.25 -40.3 -43.25 -41.65 -30.15 -43.3 -18.75 -44.65 -16.55 -44.65 -16.5 -44.65 -16.2 -44.6 -16.55 -45.05 -16.55 -45.15 M-27.75 38.35 L-25.2 52.05 -22.5 66.1 Q-22.0 68.4 -20.35 73.1 L-18.0 80.0 Q-16.1 85.9 -12.3 93.5 L-12.5 93.7 -13.3 94.0 -13.9 93.25 -14.5 92.5 -14.75 92.5 -14.45 93.85 -13.75 95.5 Q-15.1 94.85 -16.4 92.45 -17.5 90.4 -17.8 88.85 L-18.45 85.35 Q-18.9 83.25 -19.55 82.1 -22.15 77.3 -24.55 68.6 -28.8 53.95 -28.8 41.8 L-28.75 38.35 -27.75 38.35 M-74.9 92.6 L-74.5 92.6 -66.2 105.65 Q-60.95 113.75 -56.5 119.15 -51.7 125.0 -48.0 132.3 -46.4 135.4 -42.3 145.15 L-42.75 145.75 Q-48.8 140.7 -54.5 133.0 -57.6 128.9 -63.55 119.5 -75.3 97.35 -75.3 93.4 -75.3 92.65 -74.9 92.6 M-134.0 92.1 L-135.25 92.3 Q-138.9 92.7 -140.25 94.25 L-141.5 96.1 -143.1 98.35 -145.7 102.45 Q-147.75 105.6 -149.5 105.6 L-151.55 105.45 -156.45 105.2 Q-157.5 108.0 -163.0 113.35 -169.75 119.95 -169.75 121.0 -169.75 121.95 -166.3 131.7 -162.85 142.45 -162.75 148.35 -162.65 152.65 -162.9 162.05 -162.9 170.55 -161.75 175.75 -157.6 193.6 -152.1 203.15 L-142.2 220.25 Q-135.9 229.7 -131.5 228.65 L-131.05 228.55 Q-130.9 228.55 -130.8 228.7 L-123.95 228.45 Q-116.75 228.75 -115.6 225.4 L-114.85 222.0 -114.6 219.05 Q-114.6 215.2 -116.8 201.75 L-119.25 187.15 Q-120.2 178.25 -123.25 155.6 -125.15 141.25 -126.25 123.75 -126.75 115.2 -129.25 108.0 L-132.1 100.35 Q-134.0 95.1 -134.0 92.25 L-134.0 92.1 M-52.25 163.75 Q-58.55 161.7 -63.35 157.45 L-70.25 151.4 Q-68.25 152.2 -62.8 156.6 -57.05 161.25 -52.25 163.5 L-52.25 163.75 M-202.15 82.85 L-208.5 94.85 -214.65 106.95 Q-219.0 115.85 -219.0 117.0 -219.0 119.3 -216.65 125.9 L-214.0 133.1 -214.45 133.8 -213.0 138.05 -209.1 148.85 Q-205.3 159.45 -202.85 167.25 -200.05 176.05 -194.8 185.95 -190.55 194.05 -183.85 204.4 L-177.25 213.95 Q-173.2 219.65 -171.25 223.15 -169.9 225.55 -164.75 232.05 L-161.0 237.0 -159.0 238.25 Q-157.35 239.15 -154.3 239.15 -151.65 239.15 -151.1 237.95 L-151.1 236.55 Q-151.1 233.6 -154.6 230.95 -158.1 228.3 -158.1 227.8 L-157.6 225.95 Q-157.1 224.7 -157.1 224.05 -157.1 221.6 -158.7 219.7 L-163.5 214.5 Q-164.9 212.7 -166.0 210.1 L-167.5 205.5 Q-169.7 197.3 -174.25 187.5 L-182.5 169.45 Q-186.95 159.25 -189.1 151.5 L-195.1 133.55 Q-198.6 122.8 -198.6 115.5 L-198.85 106.5 -199.1 97.5 Q-199.1 93.8 -200.85 87.9 L-202.15 82.85 M-60.95 289.25 L-60.1 289.25 Q-59.75 294.8 -59.7 305.6 -59.4 315.15 -57.5 321.9 L-57.65 322.1 -58.25 322.4 Q-60.75 316.0 -61.05 305.85 -60.9 294.6 -61.35 289.4 L-60.95 289.25 M-46.25 281.4 L-36.85 285.85 Q-31.3 288.35 -30.25 290.65 L-30.25 290.9 Q-39.75 288.95 -47.85 284.1 -56.1 279.2 -58.85 273.75 -56.9 273.15 -55.45 274.8 L-53.1 277.5 -46.25 281.4 M-114.35 389.5 Q-113.1 392.25 -109.2 398.3 -106.9 401.8 -105.65 404.3 L-105.5 404.3 Q-104.5 404.3 -104.25 405.45 L-104.0 406.8 -97.35 409.3 -94.1 410.9 Q-91.7 411.75 -87.5 411.75 L-63.25 410.55 -62.75 410.35 -62.9 410.25 -63.85 409.55 -63.8 409.3 Q-65.25 407.65 -65.7 406.3 -66.4 403.15 -67.25 400.0 -67.65 398.4 -69.65 394.5 -71.25 391.3 -71.25 389.05 -71.25 387.1 -68.0 384.8 -64.75 382.5 -64.75 381.8 -64.75 379.95 -66.85 379.0 -69.7 377.7 -71.25 375.05 -72.95 375.15 -76.55 377.25 -80.05 379.3 -83.75 379.3 L-87.3 378.65 -89.25 378.0 Q-90.3 378.0 -93.35 381.15 L-97.0 384.75 Q-98.25 385.4 -104.9 387.0 L-114.35 389.5 M-26.25 315.0 L-25.25 314.9 Q-24.35 316.9 -24.35 319.05 -24.35 320.55 -22.8 328.5 L-21.25 336.65 -21.25 337.25 Q-23.45 333.4 -24.5 327.45 -25.45 320.7 -26.25 317.25 L-26.25 315.0 M-38.05 317.1 Q-37.7 315.4 -37.0 314.75 -35.7 315.55 -35.25 317.45 L-34.6 321.0 Q-34.05 322.85 -33.35 327.0 L-32.05 332.65 Q-31.1 336.9 -31.1 338.8 L-31.2 339.8 -31.35 340.15 Q-32.9 337.3 -35.65 329.05 -38.35 321.0 -38.35 319.55 L-38.05 317.1" fill="#000000" fill-rule="evenodd" stroke="none"/>
    <path d="M35.05 263.8 L34.25 263.55 35.05 263.75 35.05 263.8 M9.9 253.85 Q9.65 254.0 9.1 255.55 L8.6 257.4 Q8.6 258.15 9.3 258.7 10.2 259.35 12.35 259.6 L12.3 259.7 9.0 259.25 Q7.85 259.0 7.65 258.5 L7.6 257.05 Q7.6 255.5 8.1 254.35 8.4 253.7 9.65 253.25 L9.9 253.85 M-18.75 -77.8 L-18.95 -77.95 -18.75 -77.8 M-71.3 -60.45 L-71.75 -59.8 -71.75 -60.75 -71.3 -60.45 M-16.55 -45.15 L-16.55 -45.05 -16.2 -44.6 -16.5 -44.65 -16.55 -45.15" fill="#79a439" fill-rule="evenodd" stroke="none"/>
    <path d="M5.35 -28.6 L11.75 -26.1 17.4 -23.55 Q21.8 -21.55 24.0 -20.85 L41.5 -15.65 Q53.85 -11.95 56.1 -10.75 63.0 -7.05 65.45 -5.3 69.45 -2.45 72.0 1.5 74.25 5.0 78.35 9.0 L78.45 8.85 80.45 11.05 86.6 17.3 Q92.65 24.45 99.35 31.05 L106.1 37.95 113.25 45.25 119.85 51.7 122.85 55.3 122.9 55.3 123.65 56.4 124.0 56.2 125.55 58.3 126.6 60.05 127.55 62.05 Q127.55 62.4 125.05 63.9 L124.2 64.45 123.5 63.7 124.3 63.25 126.4 61.8 Q126.4 60.25 122.9 61.2 120.65 61.8 119.85 62.7 L117.05 63.95 Q111.5 66.6 106.6 69.55 102.9 71.9 99.0 75.2 L92.6 80.8 Q88.9 84.1 86.5 86.95 L86.3 86.2 86.1 86.0 83.5 86.0 79.5 85.75 83.7 81.6 Q87.5 77.9 87.5 76.55 L87.45 75.55 87.35 75.25 86.0 75.0 79.5 78.2 Q72.7 81.35 70.75 81.35 L70.15 81.3 70.5 81.25 Q69.5 76.95 69.5 75.75 L69.75 73.3 Q69.8 71.0 68.75 71.0 L67.9 71.05 68.0 71.1 Q67.7 71.4 66.9 73.15 66.2 74.65 65.1 75.35 L65.0 74.85 Q67.5 61.4 68.75 55.3 69.55 51.3 71.9 43.45 L74.0 36.0 73.75 34.9 73.0 34.5 72.0 35.05 Q65.75 42.2 62.0 50.5 58.45 58.45 57.85 65.75 L57.6 65.55 57.35 59.8 Q57.2 56.5 56.0 54.5 L55.25 54.75 54.6 55.0 Q54.3 57.9 52.9 62.05 L50.85 68.35 50.75 68.25 47.75 57.9 Q47.5 56.55 47.5 50.35 L48.0 45.2 48.5 40.8 Q48.55 38.85 50.3 34.85 L52.1 30.65 Q52.1 29.85 51.8 29.6 L51.0 29.3 Q42.7 38.45 35.7 53.85 28.35 69.9 28.35 80.25 L28.45 88.15 Q28.4 92.85 27.35 97.1 L26.0 105.6 Q24.85 113.15 24.85 114.35 24.85 123.85 25.6 128.6 25.75 129.75 27.25 135.75 28.5 140.8 28.5 142.85 28.5 145.75 26.85 149.6 26.0 151.65 22.6 153.6 19.5 155.4 19.5 155.75 19.5 158.9 21.75 162.55 24.0 166.2 24.0 168.65 24.0 170.3 22.75 175.7 21.5 181.05 21.5 181.8 21.5 185.8 24.3 191.05 L29.5 200.75 Q27.65 200.8 25.95 199.3 24.25 197.85 23.25 197.85 L22.25 198.05 22.0 198.5 21.85 198.55 21.85 199.25 26.5 208.4 Q31.1 217.3 30.85 221.0 30.6 225.0 32.85 231.85 L34.8 237.5 Q35.85 240.8 35.85 242.9 35.85 245.15 32.75 247.3 29.6 249.4 29.6 249.8 L29.65 250.6 29.85 250.75 29.95 250.8 29.9 250.85 21.4 250.3 20.5 250.3 18.3 250.35 14.5 250.5 Q8.8 250.25 6.8 253.15 5.85 254.6 5.85 257.25 L5.85 258.55 Q5.85 259.45 6.25 260.0 6.9 261.0 11.05 261.45 L17.0 262.0 22.5 262.7 26.05 262.85 31.95 264.05 32.35 264.65 -5.1 263.05 Q-14.75 263.1 -14.75 263.25 L-29.8 263.9 -35.0 264.5 -47.65 265.25 -61.8 267.4 -61.85 266.9 Q-65.45 266.65 -69.05 267.55 L-72.4 267.5 Q-73.95 267.45 -73.85 268.25 L-73.75 268.35 -74.7 268.4 -74.6 268.3 -74.65 268.0 Q-75.85 267.1 -79.2 267.45 L-83.0 268.0 Q-85.4 268.25 -88.5 268.1 -91.5 267.95 -93.0 268.1 L-93.45 268.3 -93.65 267.9 Q-94.55 266.35 -99.75 260.3 L-96.2 257.55 -93.85 255.55 -92.05 256.3 -91.75 255.65 Q-92.0 254.95 -93.0 253.85 -93.05 253.15 -93.25 253.0 L-94.0 252.65 -94.1 252.7 -94.15 252.65 Q-96.0 250.9 -96.0 249.4 L-93.5 243.05 Q-93.5 241.5 -95.6 240.6 -98.95 239.15 -100.0 238.3 L-92.65 236.5 Q-89.0 235.45 -89.0 233.75 -89.0 232.75 -90.25 232.4 L-100.5 231.4 -97.35 228.7 Q-95.0 226.85 -95.0 225.8 -95.0 225.1 -95.45 224.15 -95.85 223.3 -96.3 222.8 -97.6 221.35 -101.3 221.7 L-101.2 221.7 -100.6 221.9 -103.2 221.85 -107.05 221.95 Q-108.8 221.7 -109.85 220.8 -109.5 219.25 -105.25 218.0 -99.85 216.7 -97.3 215.75 L-88.35 213.25 Q-82.5 211.6 -82.5 210.55 -82.5 207.35 -90.3 206.25 -98.95 205.05 -99.55 204.25 L-96.5 203.35 -94.25 202.75 Q-88.7 202.5 -86.95 201.6 -86.0 201.15 -86.0 200.15 -86.0 198.8 -89.95 197.7 L-100.0 195.4 Q-100.0 191.65 -100.5 189.75 L-100.5 185.0 -99.55 184.8 -98.75 184.65 Q-97.7 184.65 -92.0 187.35 -85.5 190.55 -83.55 191.5 L-78.5 195.45 -73.8 199.0 -72.7 198.85 -72.55 198.65 -72.3 197.9 Q-86.45 175.9 -95.0 156.25 L-97.2 151.15 Q-98.5 147.65 -98.3 145.75 -97.8 140.95 -98.5 135.25 L-99.75 124.75 Q-100.55 118.7 -101.5 114.25 L-101.25 114.25 -87.0 129.4 -77.0 139.65 Q-76.25 139.65 -76.0 139.35 L-75.8 139.0 -90.65 117.6 Q-98.9 105.5 -102.85 97.0 -107.0 87.95 -109.35 76.2 L-112.75 55.35 -113.6 55.5 Q-114.45 64.2 -114.4 77.45 L-114.35 99.0 -114.6 99.0 Q-114.85 94.0 -117.0 87.1 -118.25 87.4 -118.95 89.0 L-119.75 91.35 -121.5 82.05 Q-122.5 76.0 -122.5 72.05 -122.5 58.15 -117.85 39.15 -114.1 25.75 -113.4 22.4 L-113.25 22.15 -113.3 21.95 -113.25 21.4 Q-113.25 20.6 -113.5 20.65 L-113.75 20.85 -113.95 21.1 Q-115.45 20.0 -116.95 17.9 -118.7 15.45 -119.1 13.85 L-119.25 13.2 -117.75 14.25 -117.75 14.0 -119.9 6.8 Q-120.5 4.8 -120.5 1.25 -120.5 -13.1 -115.5 -19.3 -109.1 -27.25 -91.8 -27.25 -89.95 -27.25 -79.45 -23.85 L-69.25 -20.5 -68.25 -20.65 -68.0 -20.8 Q-70.35 -25.35 -73.5 -27.95 -77.8 -31.5 -85.0 -33.05 L-82.25 -33.05 Q-77.75 -30.2 -70.35 -34.2 L-64.1 -38.6 -60.2 -38.3 Q-54.1 -38.3 -35.45 -40.6 L-17.9 -42.9 -15.6 -42.85 -15.25 -43.0 -14.25 -42.85 -13.2 -41.95 -9.3 -38.75 -6.9 -34.85 Q-5.55 -32.5 -1.8 -31.25 L5.35 -28.6 M0.3 90.75 Q2.05 93.8 3.6 95.35 4.45 96.2 7.3 100.3 9.25 103.15 11.85 104.35 L12.35 103.6 Q-1.75 77.6 -8.25 66.25 L-8.75 66.2 Q-9.05 66.3 -9.05 67.05 -9.05 67.95 -6.4 75.6 -3.65 83.65 -2.3 86.0 L0.3 90.75 M6.15 195.9 Q7.45 195.9 7.75 195.55 L7.85 194.75 0.1 191.55 -6.8 188.75 Q-10.25 186.8 -14.25 185.65 -19.75 184.0 -29.5 182.65 -36.35 180.75 -46.35 177.3 -55.2 174.25 -59.75 172.4 L-59.75 172.5 Q-56.55 176.0 -46.3 179.5 -45.4 179.8 -41.4 181.7 -37.75 183.4 -34.0 184.5 L-23.05 187.35 -14.55 189.75 -5.75 193.15 Q2.1 195.9 6.15 195.9 M-74.9 92.6 Q-75.3 92.65 -75.3 93.4 -75.3 97.35 -63.55 119.5 -57.6 128.9 -54.5 133.0 -48.8 140.7 -42.75 145.75 L-42.3 145.15 Q-46.4 135.4 -48.0 132.3 -51.7 125.0 -56.5 119.15 -60.95 113.75 -66.2 105.65 L-74.5 92.6 -74.9 92.6 M-27.75 38.35 L-28.75 38.35 -28.8 41.8 Q-28.8 53.95 -24.55 68.6 -22.15 77.3 -19.55 82.1 -18.9 83.25 -18.45 85.35 L-17.8 88.85 Q-17.5 90.4 -16.4 92.45 -15.1 94.85 -13.75 95.5 L-14.45 93.85 -14.75 92.5 -14.5 92.5 -13.9 93.25 -13.3 94.0 -12.5 93.7 -12.3 93.5 Q-16.1 85.9 -18.0 80.0 L-20.35 73.1 Q-22.0 68.4 -22.5 66.1 L-25.2 52.05 -27.75 38.35 M-52.25 163.75 L-52.25 163.5 Q-57.05 161.25 -62.8 156.6 -68.25 152.2 -70.25 151.4 L-63.35 157.45 Q-58.55 161.7 -52.25 163.75" fill="#6f6f6f" fill-rule="evenodd" stroke="none"/>
    <path d="M33.55 267.25 Q34.6 270.2 35.0 270.8 36.55 273.15 37.6 273.4 38.3 273.6 39.35 272.75 41.85 270.8 45.0 273.3 45.65 273.8 46.2 275.0 46.9 275.9 48.85 275.9 50.6 275.9 52.05 273.2 52.95 273.7 53.6 274.35 L55.05 275.95 56.8 276.4 56.6 277.5 60.6 296.45 65.6 320.5 Q67.45 329.95 70.7 343.3 73.1 354.2 73.1 364.1 L72.25 387.25 72.05 393.05 Q71.95 396.4 72.25 398.8 72.55 401.05 72.25 405.2 72.4 407.4 73.65 408.95 L72.6 409.8 Q70.75 411.4 68.9 411.4 L63.9 410.55 45.5 409.65 40.85 409.7 40.7 408.65 Q39.95 402.1 38.8 400.5 37.75 399.0 36.45 398.65 34.3 398.05 33.05 397.25 32.45 396.9 31.75 395.4 L30.75 393.25 28.65 388.85 Q27.55 386.2 27.55 384.25 27.55 382.95 30.05 374.55 32.55 366.15 32.55 362.85 32.55 357.7 29.8 350.95 27.05 344.15 27.05 343.5 27.05 340.65 31.05 336.1 35.05 331.55 35.05 331.0 L34.8 330.15 34.55 330.0 Q29.2 330.2 21.0 333.3 16.7 334.9 11.25 337.25 L6.15 338.9 Q2.55 340.1 1.75 340.5 L-0.9 341.6 -7.5 342.5 -13.25 343.3 -21.5 343.95 -24.5 344.3 Q-28.05 344.3 -29.9 343.4 -31.1 342.8 -32.8 342.6 L-39.5 342.05 -44.0 342.55 -48.5 343.05 -57.35 344.0 -58.3 337.45 Q-59.0 333.4 -62.0 333.3 L-63.2 341.15 Q-63.95 345.15 -64.95 347.8 -67.55 346.0 -70.15 343.05 L-75.35 336.75 Q-76.95 334.8 -82.55 331.05 L-90.6 325.5 Q-93.2 323.35 -95.2 319.4 L-98.0 313.15 Q-99.25 310.65 -104.1 307.45 L-112.35 302.3 -110.75 302.3 Q-108.85 302.75 -99.3 306.55 -90.45 310.05 -89.5 310.05 L-88.4 309.9 -88.1 309.4 -88.0 308.85 Q-88.0 305.75 -98.5 299.65 -109.0 293.5 -109.0 290.15 -109.0 289.3 -107.5 288.05 -105.8 286.65 -103.85 286.65 -102.7 286.65 -97.45 289.9 L-91.75 293.4 Q-86.6 295.15 -78.8 298.55 L-72.0 301.55 -71.1 301.3 -71.0 300.8 Q-71.5 298.4 -76.45 294.15 -80.5 290.6 -86.25 286.9 -90.75 284.0 -98.65 280.25 -103.1 278.15 -111.5 274.4 L-110.75 274.3 Q-110.0 274.4 -102.0 276.55 L-93.75 278.65 -92.75 278.5 -92.5 278.3 Q-92.35 276.8 -92.35 274.0 -92.35 271.9 -92.75 270.25 L-91.75 270.05 -90.3 269.75 -83.75 270.0 -79.3 269.6 Q-79.3 269.9 -79.25 269.65 L-72.1 270.0 Q-71.4 270.3 -68.85 274.4 L-67.35 278.0 Q-66.4 280.4 -65.1 281.15 L-64.1 274.75 Q-63.95 273.55 -62.8 271.1 L-62.05 269.3 -61.1 269.35 -54.1 268.05 -42.15 266.75 -29.95 265.9 -6.75 265.0 Q9.0 265.2 15.75 265.55 L26.3 266.05 33.3 266.6 33.55 267.25 M-38.05 317.1 L-38.35 319.55 Q-38.35 321.0 -35.65 329.05 -32.9 337.3 -31.35 340.15 L-31.2 339.8 -31.1 338.8 Q-31.1 336.9 -32.05 332.65 L-33.35 327.0 Q-34.05 322.85 -34.6 321.0 L-35.25 317.45 Q-35.7 315.55 -37.0 314.75 -37.7 315.4 -38.05 317.1 M-26.25 315.0 L-26.25 317.25 Q-25.45 320.7 -24.5 327.45 -23.45 333.4 -21.25 337.25 L-21.25 336.65 -22.8 328.5 Q-24.35 320.55 -24.35 319.05 -24.35 316.9 -25.25 314.9 L-26.25 315.0 M-114.35 389.5 L-104.9 387.0 Q-98.25 385.4 -97.0 384.75 L-93.35 381.15 Q-90.3 378.0 -89.25 378.0 L-87.3 378.65 -83.75 379.3 Q-80.05 379.3 -76.55 377.25 -72.95 375.15 -71.25 375.05 -69.7 377.7 -66.85 379.0 -64.75 379.95 -64.75 381.8 -64.75 382.5 -68.0 384.8 -71.25 387.1 -71.25 389.05 -71.25 391.3 -69.65 394.5 -67.65 398.4 -67.25 400.0 -66.4 403.15 -65.7 406.3 -65.25 407.65 -63.8 409.3 L-63.85 409.55 -62.9 410.25 -62.75 410.35 -63.25 410.55 -87.5 411.75 Q-91.7 411.75 -94.1 410.9 L-97.35 409.3 -104.0 406.8 -104.25 405.45 Q-104.5 404.3 -105.5 404.3 L-105.65 404.3 Q-106.9 401.8 -109.2 398.3 -113.1 392.25 -114.35 389.5 M-46.25 281.4 L-53.1 277.5 -55.45 274.8 Q-56.9 273.15 -58.85 273.75 -56.1 279.2 -47.85 284.1 -39.75 288.95 -30.25 290.9 L-30.25 290.65 Q-31.3 288.35 -36.85 285.85 L-46.25 281.4 M-60.95 289.25 L-61.35 289.4 Q-60.9 294.6 -61.05 305.85 -60.75 316.0 -58.25 322.4 L-57.65 322.1 -57.5 321.9 Q-59.4 315.15 -59.7 305.6 -59.75 294.8 -60.1 289.25 L-60.95 289.25" fill="#384950" fill-rule="evenodd" stroke="none"/>
    <path d="M-16.5 -44.65 L-16.55 -44.65 -16.55 -45.15 -16.5 -44.65" fill="url(#gradient0)" fill-rule="evenodd" stroke="none"/>
    <path d="M12.35 259.6 L12.35 259.7 12.3 259.7 12.35 259.6 M35.05 263.75 L35.05 263.8 35.05 263.75 M10.8 252.95 L11.0 253.55 9.9 253.85 9.65 253.25 10.8 252.95" fill="url(#gradient1)" fill-rule="evenodd" stroke="none"/>
    <path d="M-202.15 82.85 L-200.85 87.9 Q-199.1 93.8 -199.1 97.5 L-198.85 106.5 -198.6 115.5 Q-198.6 122.8 -195.1 133.55 L-189.1 151.5 Q-186.95 159.25 -182.5 169.45 L-174.25 187.5 Q-169.7 197.3 -167.5 205.5 L-166.0 210.1 Q-164.9 212.7 -163.5 214.5 L-158.7 219.7 Q-157.1 221.6 -157.1 224.05 -157.1 224.7 -157.6 225.95 L-158.1 227.8 Q-158.1 228.3 -154.6 230.95 -151.1 233.6 -151.1 236.55 L-151.1 237.95 Q-151.65 239.15 -154.3 239.15 -157.35 239.15 -159.0 238.25 L-161.0 237.0 -164.75 232.05 Q-169.9 225.55 -171.25 223.15 -173.2 219.65 -177.25 213.95 L-183.85 204.4 Q-190.55 194.05 -194.8 185.95 -200.05 176.05 -202.85 167.25 -205.3 159.45 -209.1 148.85 L-213.0 138.05 -214.45 133.8 -214.0 133.1 -216.65 125.9 Q-219.0 119.3 -219.0 117.0 -219.0 115.85 -214.65 106.95 L-208.5 94.85 -202.15 82.85" fill="url(#gradient2)" fill-rule="evenodd" stroke="none"/>
    <path d="M-16.55 -44.65 L-16.55 -45.15 -16.55 -44.65" fill="url(#gradient3)" fill-rule="evenodd" stroke="none"/>
    <path d="M-18.75 -77.8 Q-18.75 -77.35 -18.55 -77.3 L-18.0 -77.25 -17.5 -77.4 -17.3 -78.3 -17.25 -78.35 Q-16.1 -83.25 -14.0 -87.85 L-8.9 -84.95 -8.35 -84.65 Q-8.35 -82.15 -8.5 -80.6 L-8.6 -74.95 -8.5 -69.35 Q-8.5 -63.95 -12.5 -61.3 L-14.35 -60.2 Q-14.85 -60.6 -15.2 -59.7 L-15.25 -59.7 Q-16.5 -58.9 -16.5 -58.0 L-16.4 -57.1 -16.0 -56.85 -15.85 -56.9 -16.25 -53.0 -16.55 -45.15 -16.55 -44.65 -18.75 -44.65 -30.15 -43.3 -43.25 -41.65 -60.25 -40.3 -70.15 -42.0 -77.9 -43.5 Q-75.55 -46.35 -74.0 -49.85 -71.75 -54.85 -71.75 -59.8 L-71.3 -60.45 -70.55 -59.95 Q-64.85 -56.3 -58.9 -56.0 L-56.85 -55.55 -54.45 -54.65 Q-52.15 -53.8 -50.7 -53.8 -49.5 -53.8 -49.5 -54.9 L-50.5 -56.35 -48.5 -56.35 Q-42.65 -55.9 -40.95 -56.2 -40.0 -56.35 -40.0 -57.1 -40.0 -57.8 -44.15 -62.4 L-42.85 -62.4 -38.75 -61.8 -33.75 -61.55 Q-33.4 -61.55 -32.75 -64.15 L-32.0 -68.25 -31.0 -67.0 Q-30.5 -66.3 -28.75 -66.3 L-19.0 -78.0 -18.95 -77.95 -18.75 -77.8" fill="url(#gradient4)" fill-rule="evenodd" stroke="none"/>
    <path d="M10.9 252.9 L11.0 253.55 10.8 252.95 10.9 252.9" fill="url(#gradient5)" fill-rule="evenodd" stroke="none"/>
    <path d="M10.9 252.9 L19.0 252.3 29.85 252.5 31.0 252.6 31.55 252.5 32.05 252.5 32.25 252.15 32.45 252.0 44.4 251.35 52.35 252.2 62.1 253.75 Q63.7 253.95 65.7 255.7 67.6 257.35 68.4 257.35 L68.45 257.35 Q68.7 257.75 69.0 257.75 L70.0 257.5 70.1 257.25 70.25 255.75 Q70.25 249.95 70.65 248.8 71.5 246.2 76.25 241.5 78.4 239.35 84.8 234.3 89.75 230.4 91.1 228.1 98.35 215.7 102.0 199.25 102.25 198.25 112.45 172.05 121.75 148.25 121.75 141.5 121.75 134.05 117.8 129.25 L113.05 123.9 Q109.65 119.95 106.75 115.35 104.75 112.25 101.3 108.45 L95.0 101.85 88.75 95.1 Q86.85 93.2 85.35 92.15 89.2 86.35 93.8 82.4 L99.95 76.9 Q103.85 73.45 107.15 71.4 109.35 70.05 111.8 68.85 L116.25 66.6 122.05 64.3 122.25 64.25 122.7 64.4 122.65 65.25 122.7 65.8 122.55 66.3 122.6 66.8 123.1 67.2 Q124.05 69.8 126.8 75.05 L131.4 83.5 135.65 92.85 Q138.2 98.55 140.25 101.85 142.85 106.15 148.4 118.75 155.25 134.25 155.25 139.0 155.25 139.95 153.8 144.3 L152.65 147.8 Q150.15 150.0 149.2 154.1 147.4 161.8 146.75 163.0 145.75 164.85 142.85 171.45 140.5 176.85 138.5 179.85 133.65 186.9 128.7 196.85 L120.5 213.6 113.15 228.65 Q107.0 240.5 101.1 247.1 99.0 249.5 96.4 255.1 93.45 261.55 92.0 263.75 L88.75 267.7 84.6 271.75 Q83.1 273.0 81.75 273.15 80.25 273.4 76.05 273.25 70.8 273.05 63.5 273.4 63.5 272.75 63.3 272.65 L63.1 272.5 Q58.5 272.5 56.45 271.25 54.8 269.7 53.5 269.1 L52.05 268.9 Q48.85 267.6 44.4 266.35 L35.05 263.8 35.05 263.75 Q35.25 263.85 35.25 263.15 35.25 262.4 34.15 262.3 33.55 262.25 32.9 262.6 31.55 261.8 28.9 261.3 L22.75 260.6 12.35 259.7 12.35 259.6 15.25 259.75 Q16.0 259.75 16.5 258.0 L16.9 255.9 Q16.9 254.75 16.0 254.05 L11.0 253.55 10.9 252.9" fill="url(#gradient6)" fill-rule="evenodd" stroke="none"/>
    <path d="M2.55 -124.65 L2.45 -123.9 1.75 -124.0 -2.35 -124.25 -2.35 -117.1 0.05 -116.05 3.05 -115.5 Q2.15 -113.0 -2.75 -107.85 L-4.7 -105.75 -5.35 -105.75 Q-5.75 -104.25 -3.6 -102.35 L-5.95 -100.9 -5.6 -100.55 -6.0 -99.55 -6.0 -96.35 -6.45 -92.95 -6.75 -89.75 -6.3 -86.6 -6.15 -85.85 -7.2 -86.15 -8.25 -86.6 -8.4 -86.7 -8.4 -86.5 Q-10.45 -87.5 -14.25 -89.65 -15.75 -89.65 -17.35 -82.55 -17.35 -81.2 -18.05 -79.55 L-18.15 -79.25 Q-19.45 -80.15 -20.85 -78.55 -22.9 -75.45 -23.85 -74.5 L-26.75 -71.15 -29.5 -67.9 -30.45 -68.8 Q-31.45 -69.65 -32.1 -69.65 -33.4 -69.65 -34.0 -66.75 -34.4 -64.85 -34.4 -63.05 L-45.75 -64.15 -46.85 -64.05 -46.9 -63.3 -44.9 -61.1 -42.0 -57.55 -47.1 -57.55 -49.2 -57.45 Q-49.95 -57.15 -51.9 -58.25 L-53.5 -58.85 Q-54.35 -58.85 -54.35 -58.0 -54.35 -57.6 -53.25 -56.5 L-53.5 -56.4 -57.2 -57.7 -57.65 -57.85 Q-58.2 -58.75 -60.15 -60.5 L-63.1 -63.1 -56.35 -61.55 -50.55 -60.25 Q-48.9 -60.25 -48.6 -61.0 -53.2 -63.75 -56.55 -67.75 -59.5 -71.2 -61.1 -75.1 -60.3 -74.5 -54.1 -72.55 L-47.5 -70.6 -47.1 -71.25 Q-48.75 -74.25 -53.4 -80.3 -58.3 -86.75 -60.25 -90.0 L-60.0 -90.25 Q-58.05 -88.3 -52.55 -85.85 -47.65 -83.6 -46.5 -83.6 L-45.7 -83.7 -45.85 -83.85 -45.6 -84.5 -49.7 -90.5 Q-52.75 -94.8 -52.75 -96.5 L-47.75 -103.3 Q-42.75 -109.95 -42.75 -115.1 L-42.85 -116.2 -43.25 -116.6 -45.1 -114.55 Q-46.15 -113.15 -47.75 -113.0 -46.55 -115.25 -46.35 -116.55 L-46.25 -119.75 -46.35 -123.1 -47.85 -123.1 Q-48.5 -121.95 -49.1 -121.35 -50.2 -120.35 -52.5 -120.35 -55.35 -120.35 -56.25 -122.2 -56.6 -123.0 -56.6 -124.65 -56.6 -126.85 -54.85 -129.35 -52.35 -133.0 -47.75 -133.0 -47.1 -133.0 -46.15 -132.35 -45.15 -131.75 -44.55 -131.75 L-43.65 -131.9 -43.6 -132.1 Q-45.75 -138.35 -47.45 -139.15 L-58.5 -139.85 Q-59.15 -139.85 -62.4 -137.75 L-66.5 -135.25 -66.85 -138.05 -67.1 -140.85 -66.6 -143.7 Q-66.35 -145.3 -67.5 -146.35 -72.75 -141.0 -73.8 -139.3 -75.35 -136.9 -75.35 -133.0 -75.35 -131.7 -74.6 -129.15 L-74.2 -127.55 Q-77.3 -129.65 -79.3 -133.6 L-82.5 -141.0 Q-86.3 -136.9 -88.35 -130.8 -90.35 -124.7 -89.5 -120.0 -92.35 -120.2 -94.85 -121.75 L-96.95 -123.25 -97.05 -124.75 -97.5 -127.85 Q-97.4 -130.15 -94.9 -133.9 L-90.5 -140.25 Q-89.95 -141.15 -90.0 -143.15 L-90.0 -146.25 -88.65 -149.65 -87.35 -152.6 Q-85.25 -158.1 -78.0 -164.6 L-78.0 -164.25 -78.65 -161.95 Q-78.7 -160.6 -76.5 -160.1 L-71.9 -163.85 Q-68.55 -166.3 -66.5 -167.35 L-66.5 -167.0 -66.35 -166.4 -65.0 -165.0 Q-60.65 -167.2 -55.5 -169.1 -46.25 -172.55 -39.0 -173.25 L-39.1 -172.85 Q-41.0 -171.7 -41.0 -169.65 -41.0 -167.35 -36.6 -167.1 L-22.95 -165.7 Q-21.85 -165.1 -20.6 -165.1 -22.5 -163.85 -22.5 -162.75 -22.5 -162.05 -18.35 -159.5 L-13.75 -156.85 Q-12.9 -156.4 -11.8 -154.9 L-10.6 -153.1 -8.9 -152.05 Q-7.35 -151.25 -6.35 -150.1 -8.4 -149.85 -9.45 -148.85 -10.35 -148.05 -10.35 -147.1 -10.35 -145.55 -7.55 -142.5 -4.1 -138.75 -2.85 -136.1 L0.55 -129.4 Q2.55 -125.4 2.55 -124.65" fill="#252431" fill-rule="evenodd" stroke="none"/>
    <path d="M-64.9 -150.25 L-65.25 -150.0 -64.85 -149.95 -64.85 -150.05 -64.9 -150.25 M-62.35 -151.65 L-62.5 -145.8 -62.35 -145.35 -62.45 -144.85 -62.4 -142.85 -57.25 -144.0 Q-53.95 -145.05 -49.35 -143.5 L-49.25 -143.5 Q-48.2 -143.5 -46.3 -142.25 L-46.1 -142.1 Q-43.1 -140.65 -40.6 -138.6 -35.85 -132.05 -35.85 -131.05 -35.85 -129.35 -37.35 -129.35 L-38.65 -129.65 -40.0 -130.0 Q-40.6 -130.0 -41.7 -129.05 L-43.0 -127.8 Q-40.15 -126.85 -40.25 -125.1 -40.8 -123.15 -40.4 -122.35 -37.9 -122.95 -37.2 -120.05 L-37.0 -116.75 Q-37.0 -115.1 -37.85 -110.65 -38.6 -106.4 -39.0 -105.5 -40.0 -103.2 -42.25 -99.85 L-46.75 -94.45 Q-46.75 -92.65 -42.6 -86.9 -38.5 -81.15 -38.5 -80.2 -38.5 -79.35 -38.9 -79.1 -39.4 -78.75 -40.85 -78.75 L-42.7 -78.9 -41.5 -77.25 -39.15 -74.75 -32.1 -69.65 -31.3 -69.05 -31.0 -69.1 Q-30.2 -69.1 -29.6 -68.3 L-29.0 -67.4 -23.15 -74.3 -21.55 -75.95 -20.15 -77.65 Q-19.7 -78.45 -18.2 -79.15 -17.15 -79.7 -17.4 -80.75 -17.55 -81.35 -17.1 -82.4 L-16.4 -84.1 -16.05 -85.8 -15.55 -87.5 Q-15.2 -88.45 -13.85 -88.65 -12.4 -88.85 -11.25 -87.85 L-8.3 -86.45 Q-7.05 -85.85 -7.05 -84.95 -7.05 -84.05 -7.45 -83.65 -6.65 -83.05 -6.65 -82.3 L-6.9 -81.55 -7.3 -81.15 -9.1 -81.45 -10.5 -81.8 Q-12.7 -81.8 -14.55 -77.1 L-16.25 -71.65 Q-16.6 -70.7 -18.6 -69.3 L-21.8 -66.85 Q-24.4 -64.4 -25.75 -61.8 -26.95 -59.65 -27.8 -56.75 L-29.15 -51.65 -30.4 -46.6 Q-30.55 -44.75 -30.8 -43.75 -31.0 -42.75 -31.4 -42.3 L-30.25 -42.5 Q-29.3 -42.6 -29.3 -41.75 -29.3 -40.35 -34.9 -39.15 L-46.25 -36.8 -54.05 -35.0 Q-59.8 -33.6 -64.4 -31.8 -57.75 -19.25 -57.75 -17.4 -57.75 -16.8 -58.0 -16.5 -58.35 -15.95 -61.35 -15.85 L-74.15 -15.75 -76.15 -15.7 -79.9 -14.65 -81.75 -13.75 Q-86.75 -11.4 -89.4 -9.1 -94.0 -5.1 -96.1 -2.0 -97.9 0.65 -98.8 5.0 -99.5 8.45 -99.5 12.15 -99.5 13.55 -96.6 18.8 L-94.7 22.1 Q-93.5 20.8 -93.5 23.4 -97.5 41.3 -97.5 48.25 -97.5 70.5 -84.3 95.4 -71.85 118.85 -51.25 137.45 L-51.0 137.35 -55.2 130.2 Q-58.25 125.15 -58.25 124.0 L-58.25 123.3 Q-57.35 123.0 -56.45 123.9 -55.6 124.75 -54.8 126.75 L-52.0 131.25 -49.6 135.2 -48.8 136.65 Q-48.5 135.9 -47.75 135.4 L-46.6 135.25 -46.35 135.25 -46.45 135.15 Q-51.75 129.6 -56.2 123.7 L-57.75 121.65 Q-63.1 114.25 -66.85 106.85 L-71.5 98.25 -74.65 92.05 Q-74.65 89.4 -71.25 94.15 -67.8 99.0 -64.4 106.6 -62.95 110.05 -59.6 114.85 L-53.3 123.3 Q-44.6 135.15 -30.05 146.75 L-21.2 153.5 Q-17.65 156.15 -17.65 156.5 L-17.8 157.05 -18.4 157.55 Q-19.05 157.55 -26.3 154.55 L-36.0 150.3 -41.4 146.95 Q-46.0 143.75 -46.0 142.8 L-46.0 142.4 -47.4 142.5 Q-49.55 142.5 -54.9 140.8 -59.0 139.5 -60.9 138.65 -64.2 137.2 -68.25 133.8 L-68.35 133.8 -68.35 133.85 -63.0 148.05 Q-62.45 149.3 -60.8 151.45 L-58.05 155.15 -56.95 156.95 -55.65 158.75 -53.55 160.65 Q-52.65 161.5 -52.65 162.3 L-52.75 162.85 -52.8 162.95 -52.9 163.0 -52.95 163.1 -53.5 163.35 Q-54.65 163.35 -60.25 160.45 -66.35 157.3 -67.85 155.35 L-67.9 155.35 -67.9 155.4 -65.4 160.35 Q-64.05 163.1 -62.65 164.75 L-60.5 167.0 Q-58.85 168.65 -58.3 169.4 L-57.35 170.45 Q-56.15 170.7 -54.65 172.25 L-45.9 175.75 -42.2 177.5 Q-40.25 178.55 -38.5 179.25 -35.7 180.45 -29.75 181.35 L-22.9 182.3 Q-19.15 183.1 -14.5 186.0 -13.6 186.6 -11.05 187.8 L-6.9 189.55 -3.3 191.1 0.25 192.5 3.65 193.5 Q3.9 192.5 5.2 193.0 6.15 193.3 8.3 194.35 L12.05 195.7 16.25 196.85 Q20.35 197.6 25.35 199.5 L25.4 199.5 Q26.15 199.55 26.95 200.15 30.85 201.8 31.0 202.8 30.2 203.5 29.85 203.5 L30.05 203.85 30.5 204.15 Q32.75 205.4 33.4 207.0 L34.1 209.8 Q34.65 211.4 34.95 215.25 35.2 218.95 35.9 220.85 36.3 221.85 36.4 223.6 36.55 225.5 36.85 226.5 37.35 228.15 39.1 232.0 L41.75 237.6 Q43.0 240.45 43.0 243.0 L41.85 246.55 42.05 247.5 Q42.05 248.65 41.05 248.8 L40.65 249.85 41.05 250.25 Q42.65 250.1 43.8 249.4 L46.1 247.8 Q47.8 246.9 49.0 246.95 L52.3 246.8 52.05 247.05 56.1 247.2 59.65 247.8 61.0 248.55 63.6 249.75 Q65.3 250.6 66.9 252.0 L68.25 253.4 Q68.25 249.95 72.5 243.15 76.55 236.65 78.0 236.65 78.55 236.65 79.35 237.35 L81.1 235.6 Q82.45 234.35 83.5 233.85 L84.75 232.25 86.0 230.4 Q87.35 229.2 88.55 226.95 89.95 224.25 90.55 223.5 91.7 222.15 92.45 220.05 L93.9 216.35 Q97.1 210.5 97.1 209.55 L96.1 208.6 Q95.05 207.65 95.05 207.0 95.05 206.15 95.7 205.4 L97.25 203.35 97.85 201.7 98.35 200.0 Q98.3 198.65 99.0 196.45 L100.25 193.05 Q101.2 190.4 100.65 186.1 100.4 183.65 101.25 181.55 102.3 178.95 104.35 179.8 105.6 176.3 109.15 169.9 L110.1 168.6 Q110.35 168.45 110.95 168.6 111.5 168.7 111.9 168.1 L112.45 166.9 112.85 165.65 114.65 160.8 116.15 155.9 Q117.1 152.85 118.05 150.85 L119.0 148.3 119.6 146.55 120.0 137.55 120.05 136.9 Q118.25 136.6 117.1 134.4 L115.85 131.0 114.25 131.9 Q112.75 131.9 112.15 130.6 L111.5 128.6 Q111.15 127.8 110.1 127.15 109.15 126.5 108.85 125.5 L108.15 122.15 107.5 118.75 Q105.0 118.8 104.8 117.75 104.95 116.1 104.35 114.9 L104.1 113.8 103.0 113.55 Q102.5 113.4 102.15 113.05 L101.35 111.95 100.75 110.8 94.65 101.6 93.4 102.65 Q91.55 102.65 91.0 101.25 90.75 100.65 90.75 99.6 L89.9 96.4 Q89.1 97.05 88.75 98.45 L88.25 100.55 87.05 99.55 86.5 98.8 86.7 98.05 87.0 97.5 87.0 97.35 Q86.3 97.75 85.85 97.75 84.75 97.75 84.5 97.1 L84.5 96.5 Q84.5 95.9 85.2 94.9 85.8 94.05 85.5 93.1 L85.75 92.4 84.8 93.05 Q83.75 93.05 83.45 92.5 L83.4 91.85 Q83.4 90.9 86.1 87.8 L86.35 87.5 84.5 87.6 Q83.5 87.6 83.05 87.05 L82.6 86.25 78.6 87.3 Q77.25 87.3 76.9 86.5 L76.85 85.6 Q76.85 84.95 78.2 83.1 L79.9 80.9 79.85 80.8 Q75.55 82.85 74.0 82.85 73.0 82.85 72.6 82.5 L72.25 82.1 Q71.45 82.1 68.45 83.15 L66.35 83.85 Q66.15 85.35 65.15 85.35 63.35 85.35 63.15 84.0 L63.1 81.0 63.1 80.9 Q62.45 80.8 62.15 80.4 L61.9 79.45 Q61.9 78.45 63.1 77.8 L63.1 71.05 63.3 68.25 Q63.55 66.8 64.3 65.4 65.0 64.2 65.25 62.65 L65.5 59.75 Q65.55 58.45 66.05 57.0 66.25 56.45 67.2 55.85 68.2 55.3 68.3 54.75 L69.4 49.15 Q70.05 45.55 70.65 43.5 L71.4 40.75 72.05 37.9 72.4 36.45 72.9 35.1 Q73.8 33.7 74.8 34.0 75.75 34.25 75.75 35.2 L73.8 44.7 Q71.5 55.4 70.55 60.5 69.45 67.05 68.65 73.3 L68.35 76.8 72.25 76.15 75.7 76.0 79.6 75.75 80.45 75.2 Q81.0 74.8 83.0 74.75 87.35 74.1 87.35 76.6 87.35 77.5 85.45 79.65 L82.8 82.6 82.75 82.75 82.8 82.75 Q86.45 82.45 88.2 83.7 L89.1 84.6 89.1 84.55 93.35 80.8 95.2 78.8 Q96.1 77.9 97.75 77.9 99.5 77.9 102.2 80.9 104.4 83.35 105.4 85.35 L106.8 87.35 108.35 89.3 111.35 93.25 Q113.75 95.8 117.65 101.05 121.6 106.4 124.0 109.0 130.85 116.35 132.3 124.75 L134.0 133.25 Q134.55 136.3 134.55 140.5 134.55 154.85 121.05 176.8 L117.55 182.3 114.15 187.5 Q110.35 192.75 106.75 200.65 L103.75 207.15 Q103.15 211.8 94.15 232.5 92.35 236.05 89.55 238.95 86.3 242.3 81.15 245.4 78.7 246.95 76.8 248.6 74.5 250.6 74.1 251.8 L73.15 255.35 Q72.25 258.0 71.1 258.0 69.2 258.0 67.0 256.45 L66.05 255.8 65.85 255.7 64.75 255.25 61.35 255.05 58.1 254.8 53.85 254.55 Q49.75 254.55 46.2 256.35 42.0 258.45 42.0 261.7 42.0 263.4 43.8 265.3 45.6 267.2 45.6 267.55 L45.3 268.4 44.95 268.9 Q46.6 269.6 48.5 270.15 L53.1 271.0 Q57.15 271.85 57.85 272.75 58.9 274.0 59.15 276.15 L59.25 279.65 Q59.15 282.1 60.15 286.6 62.55 296.35 63.85 300.5 L64.95 303.95 Q65.55 306.1 65.6 307.4 65.75 310.25 66.35 314.15 67.95 324.3 72.7 344.15 75.4 355.55 75.4 369.4 L75.4 374.15 Q75.3 376.85 74.65 378.85 74.15 380.45 74.05 383.45 L73.9 388.05 Q73.7 389.9 73.65 392.65 L73.55 397.25 73.0 401.85 Q72.65 404.85 73.1 406.25 L12.25 406.25 Q10.95 406.25 5.65 403.9 L-3.5 399.75 Q-5.2 399.05 -9.25 398.2 L-19.85 396.95 -24.9 396.3 Q-30.8 396.65 -41.75 399.95 -50.85 402.7 -59.65 406.25 L-67.25 406.25 Q-62.8 403.2 -47.95 398.35 -40.35 395.85 -34.55 394.55 L-46.0 392.15 Q-55.0 389.55 -57.75 384.75 L-63.0 375.7 Q-66.45 370.35 -70.75 366.35 L-73.1 364.25 Q-74.75 363.1 -76.9 363.0 L-88.6 361.5 Q-91.75 361.0 -98.3 356.8 -104.55 352.75 -105.6 352.75 -109.55 352.75 -113.2 362.65 L-115.85 369.45 Q-117.3 372.55 -118.75 372.55 -120.7 372.55 -121.85 369.35 -122.65 372.8 -122.8 376.45 L-122.05 379.45 -120.75 384.65 Q-120.75 385.4 -120.9 385.75 -121.2 386.25 -122.0 386.25 L-122.15 386.25 Q-119.75 399.15 -109.25 406.25 L-109.35 406.3 Q-113.45 408.1 -116.7 404.7 L-120.6 399.25 Q-122.6 397.05 -124.0 392.3 L-126.0 384.55 -126.1 378.25 -125.95 374.95 -126.0 374.8 Q-127.4 369.15 -127.75 363.55 L-129.3 340.95 -129.0 335.4 Q-128.45 330.15 -127.25 330.15 -126.6 330.15 -126.4 330.7 L-126.35 331.3 -127.15 340.55 -126.6 349.8 -126.55 349.8 -126.05 346.8 Q-125.45 344.8 -124.25 344.8 -122.85 344.8 -122.25 347.35 L-121.8 350.75 Q-121.7 352.75 -120.9 356.75 L-120.75 357.6 -120.45 357.05 Q-118.6 353.45 -116.1 349.8 L-111.65 343.25 -113.6 341.9 Q-115.6 340.55 -116.75 338.9 L-117.15 337.45 -117.3 335.9 -119.0 330.1 -122.8 317.6 Q-124.4 312.0 -124.4 306.3 -124.4 300.55 -122.6 293.6 L-122.6 293.4 Q-122.6 288.55 -121.45 282.1 L-121.6 281.15 Q-121.6 279.25 -121.2 277.65 -120.85 276.1 -120.85 274.55 -122.1 272.35 -122.1 271.15 -122.1 269.6 -121.6 268.35 L-120.25 265.25 Q-119.8 264.25 -119.75 262.85 L-120.75 263.05 Q-121.7 263.05 -122.0 261.4 L-122.1 259.7 Q-122.1 255.9 -119.5 247.95 -117.2 240.85 -115.3 237.75 L-115.4 236.4 Q-115.4 233.85 -114.15 227.8 -114.25 226.55 -113.4 223.7 -112.65 221.05 -112.9 219.55 L-111.05 204.95 -111.45 200.9 -111.85 196.7 -112.55 196.0 -112.65 195.0 -112.65 192.5 -112.45 191.35 -112.85 188.6 -116.65 175.6 Q-118.9 167.65 -118.9 162.35 L-118.4 154.95 -119.6 148.25 Q-120.85 141.6 -120.9 138.75 L-122.25 131.45 Q-123.65 124.5 -123.65 122.8 -123.65 119.5 -122.1 118.2 L-122.5 112.4 -128.3 51.3 -128.6 48.5 -129.05 47.35 -129.4 45.85 -129.4 34.85 Q-129.5 24.95 -129.1 20.1 -132.5 19.9 -134.15 18.8 -135.5 17.9 -135.5 16.55 -135.5 15.15 -132.15 13.3 -128.8 11.45 -128.8 10.1 -128.8 8.85 -129.8 6.2 -130.8 3.55 -130.8 1.95 -130.8 -2.05 -126.3 -2.0 L-125.65 -14.5 -124.95 -16.0 -123.8 -17.6 -120.85 -20.6 -112.4 -26.8 Q-108.35 -29.6 -99.7 -32.65 L-84.65 -37.5 -82.65 -38.25 -79.0 -38.75 Q-76.15 -38.75 -75.5 -39.8 L-74.15 -41.0 -74.5 -41.3 Q-76.15 -41.4 -76.35 -41.75 -76.75 -42.25 -76.75 -43.25 L-76.75 -43.4 -76.8 -43.15 Q-76.85 -43.0 -77.25 -43.0 L-77.75 -43.05 -78.15 -43.25 -78.25 -43.8 -77.1 -46.25 -75.75 -49.25 Q-74.85 -52.6 -73.9 -54.5 L-71.7 -61.1 Q-70.55 -64.65 -68.75 -64.65 -66.85 -64.65 -66.95 -62.65 L-67.65 -59.65 -67.65 -59.55 Q-66.2 -62.75 -64.7 -63.15 L-66.35 -65.45 -66.25 -66.15 Q-65.95 -66.85 -65.0 -66.85 -64.35 -66.85 -62.7 -65.3 -61.1 -63.8 -60.25 -63.8 L-59.55 -64.05 -58.85 -64.35 Q-57.7 -64.35 -57.2 -63.85 -56.75 -63.35 -56.0 -63.35 -55.2 -63.35 -54.7 -62.8 L-54.35 -62.25 Q-53.45 -63.35 -52.4 -63.6 L-56.4 -67.4 -60.0 -71.05 -62.3 -74.75 Q-64.1 -77.85 -64.1 -78.3 -64.1 -79.1 -63.2 -79.45 L-61.85 -80.0 -60.95 -80.95 Q-60.55 -81.35 -60.1 -81.35 -58.55 -81.35 -57.1 -79.4 L-55.5 -76.75 -52.65 -72.25 -50.9 -73.35 -57.75 -83.05 Q-63.6 -91.8 -63.6 -93.45 -63.6 -95.1 -61.85 -95.1 -60.65 -95.1 -59.1 -93.5 L-57.15 -91.3 -57.1 -91.35 -57.4 -93.35 -57.25 -94.75 Q-56.9 -95.65 -55.6 -95.65 -54.1 -95.65 -52.65 -92.65 L-51.1 -88.65 -50.25 -88.65 -50.0 -88.9 Q-51.2 -90.3 -52.2 -92.85 L-52.25 -92.95 -54.0 -97.0 -56.1 -100.75 Q-57.65 -103.6 -57.65 -104.8 -57.65 -106.65 -56.0 -106.65 -53.75 -106.65 -52.35 -104.05 L-51.25 -100.9 -48.85 -108.3 -49.7 -109.6 Q-50.65 -110.85 -50.9 -113.15 -53.05 -112.15 -53.5 -114.15 -53.8 -115.25 -53.75 -117.35 L-53.9 -117.55 -54.15 -117.3 Q-54.4 -117.05 -54.75 -117.05 -56.5 -117.05 -56.85 -117.95 L-57.0 -119.1 -58.65 -118.15 -59.1 -117.35 Q-60.0 -115.85 -61.5 -115.85 -62.9 -115.85 -63.15 -116.8 L-63.15 -117.85 Q-63.15 -121.15 -58.2 -129.55 -53.85 -136.95 -51.5 -139.3 L-51.25 -139.5 -51.5 -139.5 -55.0 -139.3 -56.6 -139.65 -57.65 -140.0 Q-58.25 -140.0 -61.75 -135.5 L-64.4 -133.05 Q-65.1 -132.45 -67.25 -132.05 L-69.35 -131.75 Q-70.55 -131.75 -70.9 -132.5 L-71.0 -133.35 Q-71.0 -134.05 -69.65 -136.3 -69.35 -137.15 -69.0 -139.1 L-66.6 -145.0 -66.65 -145.05 Q-67.2 -144.35 -69.15 -143.0 L-71.4 -141.6 -71.95 -140.75 -72.5 -139.75 -73.75 -138.05 -73.45 -137.35 Q-73.15 -137.0 -73.15 -136.65 L-73.75 -133.8 -73.95 -132.85 -74.4 -130.55 -74.4 -130.5 Q-74.15 -132.2 -73.75 -132.85 -73.35 -133.55 -72.5 -133.55 -71.35 -133.55 -71.0 -132.5 L-70.9 -131.35 -73.1 -118.75 -72.6 -117.15 -72.6 -117.1 Q-74.05 -117.9 -74.5 -119.6 L-74.9 -122.4 -75.75 -122.5 Q-77.45 -122.5 -77.85 -123.95 L-78.0 -126.4 -78.1 -126.85 Q-79.1 -127.1 -79.4 -127.9 L-79.6 -129.5 -80.25 -130.7 -80.85 -132.05 -81.15 -134.8 Q-81.65 -136.9 -83.25 -137.1 L-86.5 -131.5 Q-89.05 -126.9 -89.05 -125.1 L-88.45 -124.75 Q-87.85 -124.25 -87.75 -123.25 L-87.75 -121.4 Q-87.75 -119.95 -88.45 -118.0 -89.25 -115.75 -90.3 -115.75 -92.7 -115.75 -92.75 -117.3 -92.85 -119.6 -93.3 -120.05 L-93.85 -119.4 Q-94.25 -119.0 -94.55 -119.0 -96.35 -119.0 -97.05 -120.8 L-97.5 -123.0 -98.05 -124.95 -98.5 -126.85 Q-98.5 -127.95 -97.75 -128.3 L-98.1 -128.65 Q-99.1 -129.7 -99.1 -130.25 -99.1 -132.0 -97.75 -132.0 -96.6 -132.0 -95.65 -130.6 -94.35 -128.75 -93.25 -128.05 -92.45 -133.95 -89.1 -139.05 -82.15 -149.85 -80.1 -149.85 -78.4 -149.85 -78.35 -148.2 L-78.6 -145.8 -78.15 -143.75 -77.6 -141.75 -77.5 -141.6 Q-76.7 -143.35 -75.3 -145.1 -73.6 -147.25 -71.6 -148.5 -70.75 -149.0 -66.35 -152.15 -62.35 -154.5 -62.35 -151.65 M-48.85 -138.55 L-48.75 -137.85 -48.5 -138.1 -48.6 -138.4 -48.85 -138.55 M-78.1 -135.35 L-77.85 -136.0 -78.1 -136.0 -78.3 -136.0 -78.1 -135.35 M-39.75 -119.55 L-41.05 -119.8 -40.2 -119.35 -39.65 -119.1 -39.75 -119.55 M-38.7 -67.0 L-40.25 -68.4 -40.15 -67.8 -38.7 -67.0 M-42.4 -81.35 L-42.15 -81.5 -42.4 -81.35 M-63.35 -60.1 L-61.8 -59.05 Q-61.25 -58.5 -61.5 -57.9 L-60.25 -57.85 -62.5 -60.55 -62.85 -61.0 -63.35 -60.1 M-44.45 -61.1 L-42.85 -59.65 -41.65 -58.1 -41.15 -58.35 Q-41.45 -58.95 -42.9 -60.25 L-43.35 -60.65 -44.45 -61.1 M-28.7 35.55 Q-26.55 36.2 -26.6 42.15 L-25.7 47.8 -24.85 53.4 Q-22.55 65.95 -18.35 76.1 L-13.5 87.4 Q-10.5 94.0 -7.5 98.8 L-6.0 101.7 -4.55 104.45 -3.45 105.95 3.0 114.85 7.3 120.0 10.25 122.4 11.1 123.55 11.75 124.65 12.8 125.8 13.15 126.25 16.15 129.65 16.0 130.35 16.35 131.15 17.0 132.05 16.9 132.25 15.95 131.55 Q15.0 131.45 11.5 128.25 L7.35 124.15 3.15 120.4 -0.75 116.65 -7.6 109.55 Q-11.8 105.0 -12.9 102.85 -14.1 102.45 -15.1 100.6 L-16.25 98.0 -18.5 92.9 Q-20.85 86.05 -22.25 82.8 -28.5 66.55 -28.5 62.8 L-28.25 61.45 -28.0 60.15 -28.5 57.65 Q-30.85 45.6 -30.85 40.0 -30.85 34.95 -28.7 35.55 M-9.5 66.15 Q-9.1 65.2 -7.4 65.85 -6.1 66.45 -5.5 67.35 -5.15 67.85 -4.75 69.05 -4.3 70.55 -2.05 75.25 L3.65 87.6 Q6.0 92.25 13.8 102.75 L20.9 112.55 20.5 113.5 19.65 114.15 Q18.05 114.15 15.95 111.6 L13.65 108.3 9.35 102.5 Q4.05 95.25 1.75 90.85 L-4.35 80.2 Q-9.65 70.55 -9.65 67.6 L-9.5 66.15 M-128.4 14.85 Q-129.6 15.7 -131.35 16.55 L-128.65 16.7 -128.4 14.85 M-42.85 138.8 L-43.95 137.75 -43.65 138.1 -42.85 138.8 M-45.5 142.25 L-45.15 142.35 -45.3 142.15 -45.55 142.25 -45.5 142.25 M-47.45 140.5 L-46.7 140.75 -47.4 140.1 -47.45 140.5 M-197.75 89.2 Q-197.75 89.65 -198.8 91.75 L-198.35 91.65 Q-196.85 91.5 -196.85 92.95 -196.85 93.35 -197.95 95.55 L-197.3 96.35 Q-196.75 97.0 -196.6 97.85 -196.35 99.4 -196.5 100.85 L-196.65 106.75 Q-196.65 113.4 -196.2 117.6 -195.8 121.4 -194.4 129.35 L-193.45 135.0 Q-192.85 138.25 -192.0 140.6 L-190.9 142.55 -190.85 142.55 -190.0 142.5 Q-188.0 142.5 -185.35 152.05 -184.2 156.05 -183.35 160.2 L-182.85 160.55 Q-181.6 162.45 -179.9 167.3 L-179.0 169.5 Q-177.75 170.3 -177.45 173.0 L-176.9 174.25 -176.35 175.95 -175.65 177.6 Q-175.5 177.9 -175.5 179.3 L-175.15 180.15 -174.65 181.0 -174.85 181.3 Q-175.65 181.35 -176.2 180.85 L-176.85 180.1 Q-176.7 180.7 -176.95 181.35 L-177.15 181.75 -175.5 183.85 -172.5 187.55 Q-171.0 190.45 -169.35 195.05 -164.1 209.55 -162.0 209.55 -160.35 209.55 -157.8 214.45 -156.45 217.1 -154.25 221.85 L-149.75 228.2 Q-146.05 233.45 -146.05 234.25 -146.05 235.9 -148.0 236.0 L-146.35 238.15 Q-145.55 239.3 -145.55 240.05 L-145.95 241.1 Q-146.45 242.0 -147.05 242.0 -148.5 242.0 -149.1 241.25 L-149.55 240.25 Q-149.75 240.25 -150.05 240.4 L-150.65 240.55 -149.8 241.75 -149.55 242.55 Q-149.55 243.35 -150.8 244.1 -151.85 244.75 -152.3 244.75 -153.7 244.75 -155.9 243.05 L-158.35 240.8 Q-160.65 238.6 -162.15 236.5 L-168.25 228.35 Q-170.9 227.6 -173.95 222.45 L-177.9 214.55 -181.3 207.75 -184.75 200.65 -191.15 186.85 Q-195.0 178.5 -197.0 172.9 -204.3 152.25 -207.1 145.0 -208.85 140.5 -211.25 131.1 L-212.05 129.3 -212.8 127.5 -213.35 124.15 -214.3 120.5 Q-214.8 118.75 -214.8 117.3 -214.8 114.25 -212.75 109.65 -210.9 105.4 -208.5 102.25 L-203.05 93.2 Q-199.7 87.6 -198.0 87.9 L-197.85 88.45 -197.75 89.2 M-178.75 195.6 L-178.35 195.8 -180.0 193.6 -179.2 195.7 -178.75 195.6 M-175.55 199.05 L-176.95 197.55 -175.25 200.2 -174.1 202.1 -175.25 199.8 -175.55 199.05 M-114.4 243.0 L-114.55 243.2 Q-116.6 247.3 -117.15 250.0 L-118.05 253.4 -118.5 255.05 Q-118.0 255.15 -117.25 256.0 -116.75 258.1 -116.75 261.85 L-116.75 262.45 Q-114.15 251.75 -114.15 246.4 L-114.4 243.0 M-121.05 306.2 Q-121.05 311.9 -119.0 318.45 L-114.9 331.8 -114.3 335.1 Q-113.8 337.1 -112.8 338.15 L-109.9 340.6 -109.25 339.5 Q-106.15 334.05 -106.15 329.4 -106.15 325.85 -109.6 320.15 -111.0 317.8 -115.75 311.3 -119.4 306.25 -120.85 303.1 L-121.05 306.2 M-124.4 352.55 Q-125.25 357.35 -125.25 360.65 L-124.55 367.15 -124.55 367.2 -123.05 362.75 -123.05 362.5 -123.65 357.6 -124.4 352.55 M-96.85 353.8 Q-99.35 351.7 -105.05 347.8 L-108.9 345.15 -112.85 350.95 Q-117.6 357.8 -119.7 362.85 L-119.9 363.4 -118.65 368.55 Q-113.15 349.4 -105.25 349.4 -103.65 349.4 -100.25 351.5 -98.5 352.6 -96.85 353.8 M-59.45 366.85 L-67.25 365.15 -67.15 365.25 Q-64.3 367.7 -61.75 371.45 L-57.75 377.6 Q-56.45 379.4 -54.3 383.65 -51.45 387.35 -44.15 388.85 -33.3 391.55 -25.0 393.0 L-24.8 393.05 -23.6 393.0 -15.3 393.8 -8.5 394.75 -6.95 395.15 3.15 396.05 12.45 396.65 21.9 397.05 28.1 396.75 29.35 396.0 29.4 395.85 24.0 395.05 21.95 394.9 Q20.0 394.75 16.65 394.85 L12.9 395.25 Q7.45 395.25 5.0 392.65 3.55 391.05 1.0 384.65 L-0.85 379.5 Q-2.2 376.2 -4.25 374.15 -6.3 372.1 -9.95 371.2 L-14.9 370.35 -32.35 369.35 -49.25 368.6 -59.45 366.85 M51.9 35.0 Q50.6 39.85 50.15 42.75 L49.35 54.7 Q49.35 57.05 51.1 69.5 L51.1 71.1 Q50.9 72.35 49.9 72.35 48.7 72.35 48.3 71.95 L48.0 71.35 47.9 71.1 47.25 70.55 Q46.0 69.9 46.1 68.5 L46.0 66.4 45.85 64.35 45.85 56.1 46.1 41.65 Q46.1 39.8 46.55 37.9 L47.45 37.15 48.35 36.25 48.75 34.6 Q49.25 32.2 50.0 31.0 51.05 29.25 52.1 29.3 53.05 29.3 53.05 30.6 L51.9 35.0 M56.2 53.2 Q57.45 52.7 58.0 54.85 L58.5 56.65 58.85 58.4 59.0 65.4 59.5 69.3 59.45 70.45 Q59.15 71.5 58.0 71.5 56.65 71.5 56.05 68.25 L55.5 63.1 Q55.0 58.75 55.0 54.9 55.0 53.65 56.2 53.2 M84.55 239.25 L82.15 241.3 84.9 239.25 84.55 239.25 M61.8 404.4 L64.15 405.1 69.8 405.35 69.6 404.75 69.6 404.05 62.8 404.1 Q62.25 404.1 61.8 404.4 M36.35 402.55 L34.85 402.5 33.3 402.35 30.1 402.1 28.35 401.3 27.5 400.75 23.0 400.5 16.6 400.1 3.65 399.55 8.9 402.0 Q15.1 404.1 24.7 404.1 L36.75 403.65 36.35 402.55" fill="#000000" fill-opacity="0.101960786" fill-rule="evenodd" stroke="none"/>
  </g>
  <defs>
    <linearGradient gradientTransform="matrix(0.0424, 0.0, 0.0, 0.029, -43.15, -64.1)" gradientUnits="userSpaceOnUse" id="gradient0" spreadMethod="pad" x1="-819.2" x2="819.2">
      <stop offset="0.0" stop-color="#72824a"/>
      <stop offset="1.0" stop-color="#37483a"/>
    </linearGradient>
    <linearGradient gradientTransform="matrix(0.0889, 0.0, 0.0, 0.1277, 82.45, 168.8)" gradientUnits="userSpaceOnUse" id="gradient1" spreadMethod="pad" x1="-819.2" x2="819.2">
      <stop offset="0.0" stop-color="#72824a"/>
      <stop offset="1.0" stop-color="#37483a"/>
    </linearGradient>
    <linearGradient gradientTransform="matrix(0.0414, 0.0, 0.0, 0.0954, -185.05, 161.0)" gradientUnits="userSpaceOnUse" id="gradient2" spreadMethod="pad" x1="-819.2" x2="819.2">
      <stop offset="0.0" stop-color="#72824a"/>
      <stop offset="1.0" stop-color="#37483a"/>
    </linearGradient>
    <linearGradient gradientTransform="matrix(5.0E-4, 0.005, -0.0447, 0.0049, -41.35, -47.8)" gradientUnits="userSpaceOnUse" id="gradient3" spreadMethod="pad" x1="-819.2" x2="819.2">
      <stop offset="0.0" stop-color="#72824a"/>
      <stop offset="1.0" stop-color="#37483a"/>
    </linearGradient>
    <linearGradient gradientTransform="matrix(-5.0E-4, -0.0285, 0.0429, -7.0E-4, -43.15, -63.95)" gradientUnits="userSpaceOnUse" id="gradient4" spreadMethod="pad" x1="-819.2" x2="819.2">
      <stop offset="0.0" stop-color="#72824a"/>
      <stop offset="1.0" stop-color="#37483a"/>
    </linearGradient>
    <linearGradient gradientTransform="matrix(-0.0518, -5.0E-4, 0.0012, -0.128, 91.0, 168.85)" gradientUnits="userSpaceOnUse" id="gradient5" spreadMethod="pad" x1="-819.2" x2="819.2">
      <stop offset="0.0" stop-color="#72824a"/>
      <stop offset="1.0" stop-color="#37483a"/>
    </linearGradient>
    <linearGradient gradientTransform="matrix(-0.0875, -8.0E-4, 0.0011, -0.128, 83.35, 168.75)" gradientUnits="userSpaceOnUse" id="gradient6" spreadMethod="pad" x1="-819.2" x2="819.2">
      <stop offset="0.0" stop-color="#72824a"/>
      <stop offset="1.0" stop-color="#37483a"/>
    </linearGradient>
  </defs>
</svg>
