<?xml version="1.0" encoding="UTF-8" standalone="no"?>
<svg xmlns:xlink="http://www.w3.org/1999/xlink" height="4.05px" width="26.15px" xmlns="http://www.w3.org/2000/svg">
  <g transform="matrix(1.0, 0.0, 0.0, 1.0, -21.75, 31.05)">
    <path d="M22.8 -27.0 L21.75 -27.15 21.75 -27.45 23.55 -27.65 25.95 -28.2 28.4 -29.1 30.2 -28.8 31.4 -29.05 31.8 -29.45 32.95 -29.7 34.15 -29.7 37.2 -29.95 41.0 -30.2 44.05 -30.6 46.9 -31.05 47.85 -30.75 47.9 -30.45 46.15 -30.2 43.5 -29.85 39.45 -29.55 36.8 -29.3 33.5 -29.0 31.65 -28.65 Q31.25 -28.2 30.75 -28.2 L29.0 -28.35 28.4 -28.55 27.5 -28.3 Q27.0 -27.9 26.25 -27.75 L24.25 -27.2 22.8 -27.0" fill="#26d9d9" fill-rule="evenodd" stroke="none"/>
  </g>
</svg>
