<?xml version="1.0" encoding="UTF-8" standalone="no"?>
<svg xmlns:xlink="http://www.w3.org/1999/xlink" height="19.45px" width="23.4px" xmlns="http://www.w3.org/2000/svg">
  <g transform="matrix(1.0, 0.0, 0.0, 1.0, -42.05, 51.15)">
    <path d="M42.9 -49.8 L42.75 -48.3 42.6 -45.65 42.75 -43.1 Q42.75 -42.25 43.65 -40.65 L44.55 -39.45 45.6 -38.1 46.45 -36.85 46.8 -35.7 46.8 -35.1 46.7 -35.0 45.2 -37.65 44.2 -38.9 43.2 -40.2 Q42.4 -41.55 42.2 -42.95 42.05 -43.75 42.05 -45.55 L42.3 -51.15 42.6 -51.15 Q43.0 -50.6 42.9 -49.8 M63.6 -32.4 L55.35 -32.1 52.95 -31.7 52.7 -31.75 52.65 -32.0 Q52.65 -33.05 63.6 -33.3 L65.3 -33.3 65.45 -33.05 65.25 -32.75 63.6 -32.55 63.6 -32.4" fill="#26d9d9" fill-rule="evenodd" stroke="none"/>
  </g>
</svg>
