<?xml version="1.0" encoding="UTF-8" standalone="no"?>
<svg xmlns:xlink="http://www.w3.org/1999/xlink" height="46.95px" width="134.15px" xmlns="http://www.w3.org/2000/svg">
  <g transform="matrix(1.0, 0.0, 0.0, 1.0, 68.6, 50.85)">
    <path d="M42.65 -50.85 L42.6 -47.55 Q42.8 -43.6 43.4 -42.15 43.55 -41.9 43.2 -41.9 42.5 -41.9 42.35 -43.0 42.25 -43.6 42.3 -44.55 L42.05 -47.25 42.3 -50.85 42.65 -50.85 M65.55 -33.05 Q64.55 -32.45 61.6 -32.45 L59.4 -32.55 59.25 -32.75 59.3 -33.15 60.35 -33.0 63.6 -33.35 65.55 -33.15 65.55 -33.05" fill="#26d9d9" fill-rule="evenodd" stroke="none"/>
    <path d="M-67.4 -4.05 L-67.45 -3.95 -67.8 -3.9 Q-68.25 -3.9 -68.6 -7.65 L-68.6 -8.25 -68.25 -8.55 -67.4 -4.05" fill="#26d9d9" fill-rule="evenodd" stroke="none"/>
  </g>
</svg>
