<?xml version="1.0" encoding="UTF-8" standalone="no"?>
<svg xmlns:xlink="http://www.w3.org/1999/xlink" height="44.85px" width="134.4px" xmlns="http://www.w3.org/2000/svg">
  <g transform="matrix(1.0, 0.0, 0.0, 1.0, 69.15, 51.0)">
    <path d="M42.65 -50.55 Q42.3 -49.6 42.3 -48.75 L42.05 -48.5 41.6 -48.6 41.6 -49.4 41.85 -50.3 Q41.95 -50.95 42.2 -51.0 L42.65 -50.55 M65.15 -33.0 L65.15 -32.85 65.25 -32.75 64.95 -32.4 Q64.7 -32.25 64.65 -32.25 L63.8 -32.25 63.75 -32.6 63.75 -33.0 64.85 -33.05 65.15 -33.0" fill="#26d9d9" fill-rule="evenodd" stroke="none"/>
    <path d="M-62.9 -12.75 L-62.35 -12.9 -61.55 -12.6 -61.2 -12.3 -60.25 -12.45 -59.75 -12.65 -59.25 -12.3 -58.95 -12.0 -57.05 -11.75 -54.8 -11.35 Q-53.4 -11.1 -53.1 -10.8 -53.2 -10.55 -53.45 -10.55 L-57.65 -11.3 -58.5 -11.35 -59.25 -11.45 -59.85 -12.05 -60.65 -11.7 -61.85 -11.95 -62.35 -12.2 -62.65 -12.0 Q-62.85 -11.85 -63.05 -11.85 -63.75 -11.85 -63.9 -12.45 L-64.7 -12.3 -66.05 -12.6 -66.45 -12.0 -66.9 -11.75 -67.4 -11.55 -68.1 -10.65 -68.4 -10.2 -68.4 -9.75 -68.55 -8.75 -68.25 -7.7 -68.55 -7.05 -68.25 -6.5 Q-68.25 -6.2 -68.4 -6.15 -69.3 -6.75 -69.15 -7.0 L-68.7 -7.65 -69.0 -8.9 -68.85 -10.2 -68.8 -10.7 -68.15 -11.45 -66.75 -12.6 Q-66.1 -13.15 -65.85 -13.1 L-65.1 -12.9 -64.0 -13.35 Q-63.55 -13.55 -63.2 -12.45 L-62.9 -12.75" fill="#26d9d9" fill-rule="evenodd" stroke="none"/>
  </g>
</svg>
