<?xml version="1.0" encoding="UTF-8" standalone="no"?>
<svg xmlns:xlink="http://www.w3.org/1999/xlink" height="19.5px" width="10.3px" xmlns="http://www.w3.org/2000/svg">
  <g transform="matrix(1.0, 0.0, 0.0, 1.0, 11.4, 25.2)">
    <path d="M-7.8 -25.05 Q-3.45 -25.05 -2.4 -23.3 -2.25 -23.1 -2.4 -22.25 L-2.15 -21.75 -1.95 -21.3 Q-1.95 -21.1 -2.1 -20.85 L-2.25 -20.45 -1.95 -19.7 -1.7 -18.95 -2.0 -17.6 -1.7 -16.8 Q-1.4 -16.15 -1.4 -15.6 L-1.85 -14.1 -1.45 -13.45 -1.1 -12.8 -1.6 -12.2 Q-1.9 -11.95 -2.15 -11.85 -1.25 -10.6 -1.25 -10.2 -1.25 -9.55 -2.3 -9.15 -1.85 -8.45 -1.85 -7.7 -1.85 -6.6 -3.05 -6.45 -2.8 -6.15 -2.25 -6.15 L-2.25 -5.85 Q-2.45 -5.7 -2.7 -5.7 -3.35 -5.7 -4.05 -6.65 L-3.55 -7.1 -2.85 -7.2 Q-2.4 -7.4 -2.4 -7.7 L-2.75 -8.65 -3.0 -9.5 Q-1.8 -9.9 -1.8 -10.2 L-2.3 -11.1 -2.85 -11.9 -2.25 -12.4 -1.7 -12.75 -2.05 -13.35 -2.4 -14.0 -2.15 -14.75 -1.95 -15.55 -2.25 -16.65 -2.55 -17.6 -2.25 -19.05 -2.7 -20.15 -2.55 -21.15 -2.7 -21.6 -2.85 -22.05 -2.7 -22.85 -3.3 -23.6 -4.1 -24.15 -5.3 -24.5 -8.75 -24.35 Q-9.2 -24.35 -9.6 -24.75 L-11.3 -24.45 -11.35 -24.35 -11.4 -24.6 -10.7 -25.05 -9.9 -25.2 -9.35 -25.05 -9.0 -24.9 -8.3 -24.95 -7.8 -25.05" fill="#26d9d9" fill-rule="evenodd" stroke="none"/>
  </g>
</svg>
