<?xml version="1.0" encoding="UTF-8" standalone="no"?>
<svg xmlns:xlink="http://www.w3.org/1999/xlink" height="24.9px" width="40.0px" xmlns="http://www.w3.org/2000/svg">
  <g transform="matrix(1.0, 0.0, 0.0, 1.0, 66.75, 35.7)">
    <path d="M-59.55 -27.75 L-62.25 -27.65 Q-62.6 -27.65 -63.0 -27.95 L-64.05 -28.2 -65.25 -28.35 Q-65.95 -28.3 -66.3 -28.65 -66.75 -29.1 -66.75 -29.75 -66.75 -30.6 -66.2 -30.65 -65.65 -30.75 -65.7 -31.95 -65.35 -32.35 -65.55 -33.15 L-65.85 -34.2 -65.45 -35.1 -64.95 -35.7 -64.8 -35.15 -65.15 -33.75 -65.1 -32.3 -65.3 -30.9 Q-65.55 -30.25 -65.9 -30.0 L-66.2 -29.65 -66.05 -29.15 -64.05 -28.85 -63.15 -28.65 -62.55 -28.35 Q-62.25 -28.1 -62.0 -28.2 L-60.5 -28.4 -59.45 -28.3 -59.1 -27.9 -56.75 -28.2 -55.5 -27.9 -55.95 -27.6 -59.05 -27.35 Q-59.55 -27.35 -59.55 -27.75" fill="#26d9d9" fill-rule="evenodd" stroke="none"/>
    <path d="M-40.8 -12.15 L-39.75 -12.8 -38.85 -13.05 Q-38.4 -13.05 -38.2 -12.5 L-37.8 -12.0 -36.85 -12.2 -35.8 -12.45 -31.65 -12.25 -28.8 -11.75 Q-27.0 -11.65 -26.75 -11.1 -26.95 -10.8 -27.25 -10.8 L-30.7 -11.25 -36.35 -11.75 -37.8 -11.4 Q-38.55 -11.4 -38.7 -11.85 -38.8 -12.35 -39.0 -12.35 L-40.45 -12.0 -40.75 -12.05 -40.8 -12.15" fill="#26d9d9" fill-rule="evenodd" stroke="none"/>
  </g>
</svg>
