<?xml version="1.0" encoding="UTF-8" standalone="no"?>
<svg xmlns:xlink="http://www.w3.org/1999/xlink" height="27.75px" width="49.2px" xmlns="http://www.w3.org/2000/svg">
  <g transform="matrix(1.0, 0.0, 0.0, 1.0, 65.6, 37.5)">
    <path d="M-54.0 -37.5 L-53.25 -37.25 -51.6 -37.05 -50.15 -36.9 -46.5 -37.25 -45.65 -37.05 -45.5 -36.9 -45.65 -36.6 -49.8 -36.3 -51.6 -36.45 -53.4 -36.65 -54.05 -36.9 -55.6 -36.8 -57.0 -36.6 -57.45 -36.3 -60.45 -36.15 -61.65 -36.15 -62.4 -36.05 -63.6 -36.0 Q-64.25 -36.1 -64.65 -35.7 -65.1 -35.15 -65.1 -33.3 L-65.15 -33.2 -65.55 -33.2 -65.6 -34.0 Q-65.6 -35.55 -65.1 -36.0 L-61.85 -36.6 -58.25 -36.65 Q-57.8 -36.65 -57.05 -37.15 L-54.0 -37.5" fill="#26d9d9" fill-rule="evenodd" stroke="none"/>
    <path d="M-30.5 -11.4 Q-30.5 -11.85 -29.35 -12.15 -28.1 -12.45 -27.6 -11.7 L-22.5 -11.0 -20.1 -11.1 -17.55 -10.7 -16.4 -10.1 -16.45 -9.9 -17.3 -9.75 -17.95 -10.05 -18.6 -10.4 -22.85 -10.2 Q-23.55 -10.2 -24.15 -10.65 L-25.4 -10.7 -27.5 -10.95 -28.05 -11.45 Q-28.3 -11.85 -28.65 -11.85 -29.25 -11.85 -30.45 -11.25 L-30.45 -11.15 -30.5 -11.4" fill="#26d9d9" fill-rule="evenodd" stroke="none"/>
  </g>
</svg>
