<?xml version="1.0" encoding="UTF-8" standalone="no"?>
<svg xmlns:xlink="http://www.w3.org/1999/xlink" height="31.35px" width="20.65px" xmlns="http://www.w3.org/2000/svg">
  <g transform="matrix(1.0, 0.0, 0.0, 1.0, 27.55, 40.95)">
    <path d="M-6.9 -40.65 L-7.1 -40.1 -7.35 -39.75 -8.25 -39.5 -8.4 -39.3 -9.6 -39.35 -10.5 -39.0 -10.65 -39.15 -11.0 -39.3 -12.45 -38.85 -13.2 -38.4 -13.65 -38.8 Q-13.7 -39.2 -14.0 -39.2 L-14.45 -39.1 -14.55 -38.75 -15.35 -38.85 -15.95 -38.55 -16.8 -38.1 -17.3 -38.7 -17.7 -38.1 -18.45 -38.1 -19.25 -38.45 -21.35 -38.55 -23.2 -38.25 -25.5 -37.95 -27.3 -37.75 -27.35 -37.25 -27.45 -37.2 Q-27.75 -38.25 -26.9 -38.45 L-25.5 -38.45 -22.05 -38.9 -20.4 -39.05 -18.9 -38.8 -18.15 -38.6 -18.05 -39.0 -17.55 -39.35 Q-17.25 -39.35 -17.0 -39.15 L-16.8 -39.0 Q-16.25 -39.0 -16.15 -39.15 L-15.9 -39.35 -15.0 -39.3 -13.95 -39.9 -13.4 -39.6 -13.05 -39.2 Q-12.65 -39.6 -12.05 -39.65 L-11.55 -39.9 -10.95 -39.85 -10.5 -39.75 -9.3 -39.95 -8.45 -40.2 -7.5 -40.7 -6.95 -40.95 -6.9 -40.65" fill="#26d9d9" fill-rule="evenodd" stroke="none"/>
    <path d="M-12.9 -9.95 L-13.0 -9.65 -14.1 -9.6 -16.2 -9.75 -16.25 -10.05 Q-16.25 -10.6 -15.45 -10.45 L-12.9 -10.05 -12.9 -9.95" fill="#26d9d9" fill-rule="evenodd" stroke="none"/>
  </g>
</svg>
