<?xml version="1.0" encoding="UTF-8" standalone="no"?>
<svg xmlns:xlink="http://www.w3.org/1999/xlink" height="9.1px" width="9.15px" xmlns="http://www.w3.org/2000/svg">
  <g transform="matrix(1.0, 0.0, 0.0, 1.0, -37.8, 20.1)">
    <path d="M40.05 -18.6 Q40.25 -18.45 40.4 -18.45 L41.1 -18.95 42.6 -18.8 Q43.2 -18.8 46.05 -20.1 L46.85 -20.1 46.95 -19.8 46.95 -19.4 45.6 -19.2 44.55 -18.75 43.95 -18.4 43.4 -18.2 41.7 -18.35 Q41.15 -18.35 41.05 -17.95 L40.8 -17.55 40.0 -17.75 39.75 -18.15 39.3 -17.6 38.7 -17.4 37.8 -17.45 37.8 -18.15 38.7 -18.15 39.1 -18.45 Q39.3 -18.75 39.65 -18.75 L40.05 -18.6 M42.4 -17.5 L42.9 -17.25 43.65 -16.2 43.95 -14.2 43.85 -12.65 Q43.65 -11.8 42.9 -11.1 L42.85 -11.0 Q42.75 -10.95 42.75 -11.15 L43.35 -14.25 43.2 -15.75 42.2 -17.15 42.4 -17.5" fill="#26d9d9" fill-rule="evenodd" stroke="none"/>
  </g>
</svg>
