<?xml version="1.0" encoding="UTF-8" standalone="no"?>
<svg xmlns:xlink="http://www.w3.org/1999/xlink" height="13.55px" width="16.95px" xmlns="http://www.w3.org/2000/svg">
  <g transform="matrix(1.0, 0.0, 0.0, 1.0, -31.8, 19.45)">
    <path d="M33.55 -18.75 Q34.55 -17.85 34.25 -17.15 L34.5 -17.1 37.5 -17.7 39.95 -18.35 40.05 -18.2 Q40.05 -17.2 34.45 -16.4 33.85 -16.4 33.7 -17.1 L33.35 -18.05 31.8 -19.4 Q32.6 -19.65 33.55 -18.75 M45.6 -7.7 L45.4 -7.3 44.4 -7.2 43.4 -7.05 42.75 -6.45 Q42.2 -5.9 41.85 -5.9 L41.4 -6.0 41.25 -6.3 Q41.1 -6.5 41.1 -6.75 L41.75 -7.75 42.65 -9.45 42.75 -10.85 Q42.95 -11.8 43.35 -11.85 L43.5 -11.7 43.4 -10.55 43.2 -9.2 Q43.1 -8.4 41.85 -6.95 L41.85 -6.9 42.05 -6.9 43.2 -7.65 43.75 -7.9 44.7 -7.8 45.0 -8.05 Q45.1 -8.3 46.05 -8.4 L48.45 -8.9 Q48.75 -9.15 48.75 -8.75 48.75 -8.3 47.7 -8.0 L45.6 -7.7" fill="#26d9d9" fill-rule="evenodd" stroke="none"/>
  </g>
</svg>
