<?xml version="1.0" encoding="UTF-8" standalone="no"?>
<svg xmlns:xlink="http://www.w3.org/1999/xlink" height="14.35px" width="37.4px" xmlns="http://www.w3.org/2000/svg">
  <g transform="matrix(1.0, 0.0, 0.0, 1.0, -19.8, 22.6)">
    <path d="M20.05 -17.15 L20.7 -18.15 22.8 -19.65 23.4 -20.45 Q23.85 -21.1 24.45 -21.35 L25.15 -21.6 25.7 -22.2 Q25.9 -22.5 26.4 -22.55 L27.4 -22.55 28.95 -22.35 29.85 -21.75 30.55 -21.15 30.95 -20.7 32.4 -19.75 Q33.2 -19.15 33.2 -18.5 L33.05 -18.35 31.7 -19.4 30.3 -20.3 29.65 -21.05 28.95 -21.35 28.9 -21.7 27.75 -21.8 26.4 -21.9 Q26.2 -21.0 25.4 -20.85 24.35 -20.75 24.0 -20.3 L22.65 -18.8 20.9 -17.25 20.45 -16.4 20.15 -15.6 Q19.8 -15.95 19.8 -16.25 L20.05 -17.15 M49.25 -9.75 L49.75 -9.9 50.2 -9.75 Q50.45 -9.6 50.6 -9.6 L51.6 -10.2 53.85 -10.25 54.0 -10.65 Q54.5 -11.15 55.4 -11.15 L57.05 -11.15 57.2 -10.85 Q56.8 -10.5 55.75 -10.45 54.7 -10.4 54.15 -9.95 53.75 -9.6 53.2 -9.7 L51.65 -9.5 51.2 -9.15 Q50.95 -8.9 50.7 -8.9 L50.2 -9.1 49.7 -9.3 49.2 -8.85 47.7 -8.7 Q47.5 -8.7 47.35 -8.4 L46.8 -8.25 Q46.7 -8.3 46.7 -8.5 L47.1 -9.05 47.7 -9.3 48.75 -9.5 Q48.75 -9.4 49.25 -9.75" fill="#26d9d9" fill-rule="evenodd" stroke="none"/>
  </g>
</svg>
