<?xml version="1.0" encoding="UTF-8" standalone="no"?>
<svg xmlns:xlink="http://www.w3.org/1999/xlink" height="18.25px" width="40.95px" xmlns="http://www.w3.org/2000/svg">
  <g transform="matrix(1.0, 0.0, 0.0, 1.0, -18.75, 18.6)">
    <path d="M19.5 -14.3 Q19.75 -16.15 20.15 -16.8 L21.0 -18.1 Q21.7 -19.0 22.2 -18.3 L20.1 -15.2 20.25 -12.8 Q20.25 -12.35 19.95 -12.05 19.5 -11.65 19.35 -11.1 19.25 -10.75 19.3 -10.2 L19.35 -9.45 19.65 -7.25 19.5 -5.15 19.8 -3.65 19.65 -3.15 19.5 -2.7 Q19.5 -2.0 19.95 -1.2 L19.95 -0.45 Q20.1 -0.35 19.7 -0.35 19.55 -0.35 19.25 -1.5 L18.95 -2.7 19.1 -3.15 19.25 -3.65 18.95 -4.5 18.95 -5.25 19.1 -6.65 18.95 -7.35 18.75 -8.1 18.75 -8.85 18.9 -9.35 18.75 -9.45 18.85 -9.7 18.95 -9.75 18.75 -10.1 18.75 -10.8 Q18.75 -11.3 19.1 -12.0 L19.55 -13.35 19.5 -14.3 M59.5 -16.6 L59.55 -16.35 59.15 -15.75 59.45 -15.2 Q59.75 -14.75 59.7 -14.3 L59.7 -13.05 59.65 -11.65 Q59.45 -10.75 58.8 -10.7 L58.0 -10.45 57.05 -10.2 55.95 -10.05 54.45 -9.8 54.15 -9.95 Q54.15 -10.35 54.75 -10.5 L56.1 -10.95 56.8 -10.95 57.3 -11.1 57.55 -11.25 58.1 -11.3 Q59.15 -11.3 59.15 -12.15 L59.15 -14.45 58.9 -15.1 58.55 -15.8 Q58.55 -16.35 59.4 -16.65 L59.5 -16.6" fill="#26d9d9" fill-rule="evenodd" stroke="none"/>
  </g>
</svg>
