<?xml version="1.0" encoding="UTF-8" standalone="no"?>
<svg xmlns:xlink="http://www.w3.org/1999/xlink" height="31.7px" width="42.15px" xmlns="http://www.w3.org/2000/svg">
  <g transform="matrix(1.0, 0.0, 0.0, 1.0, -19.1, 23.75)">
    <path d="M20.15 -1.4 L19.9 -0.35 19.65 0.65 Q19.65 1.3 19.95 1.85 L20.25 2.7 19.95 3.95 20.15 4.55 20.6 5.1 20.75 5.6 20.9 6.05 Q22.7 7.9 25.05 7.25 L25.1 7.8 24.15 7.95 21.9 7.45 Q20.4 6.9 20.25 6.2 L19.7 4.95 Q19.35 4.5 19.35 4.05 L19.65 2.7 19.4 1.8 Q19.1 1.25 19.1 0.7 19.1 0.2 19.4 -0.5 L19.65 -1.4 19.25 -2.3 19.85 -2.55 20.15 -1.4 M59.9 -22.15 Q60.25 -23.35 60.9 -23.75 L61.25 -23.55 60.85 -22.4 60.75 -21.7 60.45 -21.2 Q60.15 -20.85 60.15 -20.0 L60.15 -18.5 59.65 -16.95 Q59.15 -15.85 59.15 -15.45 59.15 -15.25 59.3 -15.2 L59.55 -15.15 Q59.4 -14.9 58.85 -14.9 L58.7 -15.9 Q58.7 -16.5 59.4 -18.0 L59.55 -20.0 59.9 -22.15" fill="#26d9d9" fill-rule="evenodd" stroke="none"/>
  </g>
</svg>
