<?xml version="1.0" encoding="UTF-8" standalone="no"?>
<svg xmlns:xlink="http://www.w3.org/1999/xlink" height="179.2px" width="47.0px" xmlns="http://www.w3.org/2000/svg">
  <g transform="matrix(1.0, 0.0, 0.0, 1.0, -3.0, -4.6)">
    <path d="M49.85 6.2 Q50.8 22.6 45.85 38.25 L45.65 38.9 Q40.9 53.75 41.05 69.45 L41.05 70.45 Q41.35 84.25 40.65 98.0 L40.25 105.0 Q39.55 114.75 36.2 124.15 L36.1 124.45 Q31.3 137.55 34.5 150.45 35.25 153.3 36.35 156.15 L43.3 174.8 28.5 183.8 Q19.9 173.55 19.25 160.3 L19.25 159.6 Q18.65 146.5 20.85 133.4 L21.4 129.8 Q23.4 113.9 19.85 98.3 L19.1 95.5 Q15.75 83.05 11.1 70.9 L9.25 65.6 Q3.25 47.55 3.0 28.55 2.9 23.85 3.25 19.1 L4.1 4.6 49.55 4.6 49.85 6.2" fill="#000000" fill-opacity="0.101960786" fill-rule="evenodd" stroke="none"/>
  </g>
</svg>
