<?xml version="1.0" encoding="UTF-8" standalone="no"?>
<svg xmlns:xlink="http://www.w3.org/1999/xlink" height="179.2px" width="46.3px" xmlns="http://www.w3.org/2000/svg">
  <g transform="matrix(1.0, 0.0, 0.0, 1.0, -3.75, -4.6)">
    <path d="M49.85 6.2 Q50.9 22.65 46.3 38.4 L46.1 39.05 Q41.65 54.05 41.45 69.7 L41.45 70.7 Q41.35 84.65 40.4 98.3 L39.8 105.3 Q38.8 115.0 35.25 124.35 L35.15 124.65 Q30.15 137.65 34.05 150.6 34.9 153.45 36.05 156.25 40.05 165.75 43.3 174.8 L28.5 183.8 Q19.9 173.6 19.05 160.35 L19.05 159.65 Q18.2 146.65 19.95 133.45 L20.4 129.85 Q21.9 113.9 19.15 98.3 L18.55 95.5 Q15.85 83.1 11.8 70.75 L10.2 65.45 Q4.95 47.25 3.95 28.35 3.65 23.7 3.8 19.0 3.8 11.6 4.15 4.6 L49.55 4.6 49.85 6.2" fill="#000000" fill-opacity="0.101960786" fill-rule="evenodd" stroke="none"/>
  </g>
</svg>
