<?xml version="1.0" encoding="UTF-8" standalone="no"?>
<svg xmlns:xlink="http://www.w3.org/1999/xlink" height="179.2px" width="46.0px" xmlns="http://www.w3.org/2000/svg">
  <g transform="matrix(1.0, 0.0, 0.0, 1.0, -4.1, -4.6)">
    <path d="M49.85 6.2 Q51.05 22.75 46.75 38.55 L46.55 39.2 Q42.4 54.3 41.85 69.95 L41.8 71.0 Q41.35 85.05 40.1 98.55 L39.35 105.6 Q38.1 115.25 34.35 124.5 L34.2 124.8 Q28.95 137.75 33.6 150.75 L35.75 156.3 Q40.15 165.95 43.3 174.8 L28.5 183.8 Q19.95 173.6 18.85 160.4 L18.85 159.7 Q17.8 146.8 19.1 133.5 L19.4 129.9 Q20.45 113.85 18.4 98.3 L18.0 95.5 Q15.9 83.15 12.5 70.6 L11.15 65.25 Q6.65 46.95 4.85 28.15 4.4 23.5 4.35 18.9 3.95 11.4 4.2 4.6 L49.55 4.6 49.85 6.2" fill="#000000" fill-opacity="0.101960786" fill-rule="evenodd" stroke="none"/>
  </g>
</svg>
