<?xml version="1.0" encoding="UTF-8" standalone="no"?>
<svg xmlns:xlink="http://www.w3.org/1999/xlink" height="179.2px" width="45.95px" xmlns="http://www.w3.org/2000/svg">
  <g transform="matrix(1.0, 0.0, 0.0, 1.0, -4.2, -4.6)">
    <path d="M49.85 6.2 L49.85 6.25 Q51.15 22.8 47.15 38.7 L47.0 39.35 Q43.15 54.6 42.25 70.2 L42.2 71.25 Q41.35 85.45 39.85 98.85 L38.9 105.85 Q37.4 115.45 33.4 124.7 L33.3 125.0 Q27.8 137.8 33.1 150.9 L35.45 156.4 Q40.2 166.1 43.3 174.8 L28.5 183.8 Q19.95 173.65 18.65 160.45 L18.6 159.75 Q17.4 147.0 18.2 133.55 L18.4 129.95 Q18.95 113.85 17.7 98.35 L17.45 95.5 Q16.0 83.25 13.2 70.5 L12.1 65.05 Q8.4 46.65 5.8 27.95 5.1 23.35 4.9 18.85 4.15 11.2 4.2 4.6 L49.55 4.6 49.85 6.2" fill="#000000" fill-opacity="0.101960786" fill-rule="evenodd" stroke="none"/>
  </g>
</svg>
