<?xml version="1.0" encoding="UTF-8" standalone="no"?>
<svg xmlns:xlink="http://www.w3.org/1999/xlink" height="179.2px" width="46.0px" xmlns="http://www.w3.org/2000/svg">
  <g transform="matrix(1.0, 0.0, 0.0, 1.0, -4.25, -4.6)">
    <path d="M49.85 6.2 L49.85 6.25 Q51.25 22.85 47.6 38.85 L47.45 39.5 Q43.9 54.9 42.65 70.5 L42.55 71.5 Q41.35 85.85 39.6 99.15 L38.45 106.15 Q36.7 115.7 32.5 124.9 L32.35 125.2 Q26.6 137.9 32.65 151.05 L35.15 156.45 Q40.25 166.3 43.3 174.8 L28.5 183.8 Q20.0 173.65 18.45 160.5 L18.4 159.8 Q17.0 147.15 17.3 133.6 L17.4 129.95 Q17.45 113.85 17.0 98.35 L16.85 95.5 Q16.05 83.3 13.9 70.35 L13.0 64.9 Q10.1 46.35 6.7 27.75 5.85 23.15 5.45 18.75 4.3 11.0 4.25 4.6 L49.55 4.6 49.85 6.2" fill="#000000" fill-opacity="0.101960786" fill-rule="evenodd" stroke="none"/>
  </g>
</svg>
