<?xml version="1.0" encoding="UTF-8" standalone="no"?>
<svg xmlns:xlink="http://www.w3.org/1999/xlink" height="179.2px" width="46.0px" xmlns="http://www.w3.org/2000/svg">
  <g transform="matrix(1.0, 0.0, 0.0, 1.0, -4.25, -4.6)">
    <path d="M49.85 6.2 L49.85 6.25 Q51.3 22.85 47.75 38.9 L47.6 39.55 Q44.15 55.0 42.75 70.55 L42.65 71.6 Q41.35 86.0 39.5 99.25 L38.3 106.25 Q36.45 115.8 32.2 124.95 L32.05 125.25 Q26.2 137.9 32.45 151.1 L35.05 156.45 Q40.25 166.35 43.3 174.8 L28.5 183.8 Q20.0 173.65 18.35 160.55 L18.3 159.85 Q16.85 147.25 17.0 133.6 L17.05 130.0 16.75 98.35 16.7 95.5 Q16.1 83.3 14.15 70.3 L13.35 64.85 Q10.65 46.25 7.0 27.7 6.1 23.1 5.6 18.75 4.4 10.95 4.25 4.6 L49.55 4.6 49.85 6.2" fill="#000000" fill-opacity="0.101960786" fill-rule="evenodd" stroke="none"/>
  </g>
</svg>
