<?xml version="1.0" encoding="UTF-8" standalone="no"?>
<svg xmlns:xlink="http://www.w3.org/1999/xlink" height="179.2px" width="46.05px" xmlns="http://www.w3.org/2000/svg">
  <g transform="matrix(1.0, 0.0, 0.0, 1.0, -4.25, -4.6)">
    <path d="M49.85 6.2 L49.85 6.25 Q51.3 22.9 47.9 38.95 L47.75 39.6 Q44.4 55.1 42.9 70.65 L42.8 71.7 Q41.35 86.15 39.4 99.35 L38.15 106.35 Q36.2 115.9 31.9 125.05 L31.75 125.35 Q25.8 137.95 32.3 151.15 L34.95 156.5 Q40.3 166.4 43.3 174.8 L28.5 183.8 Q20.0 173.65 18.3 160.55 L18.25 159.85 Q16.7 147.3 16.7 133.6 L16.7 130.0 Q16.45 113.85 16.55 98.35 L16.5 95.5 Q16.1 83.3 14.35 70.25 L13.65 64.75 Q11.25 46.15 7.3 27.65 6.35 23.05 5.8 18.7 4.45 10.9 4.25 4.6 L49.55 4.6 49.85 6.2" fill="#000000" fill-opacity="0.101960786" fill-rule="evenodd" stroke="none"/>
  </g>
</svg>
