<?xml version="1.0" encoding="UTF-8" standalone="no"?>
<svg xmlns:xlink="http://www.w3.org/1999/xlink" height="179.2px" width="46.0px" xmlns="http://www.w3.org/2000/svg">
  <g transform="matrix(1.0, 0.0, 0.0, 1.0, -4.3, -4.6)">
    <path d="M49.85 6.2 L49.85 6.25 Q51.35 22.9 48.05 39.0 L47.9 39.65 Q44.65 55.15 43.0 70.75 L42.9 71.8 Q41.35 86.3 39.3 99.4 L38.0 106.45 Q35.95 115.95 31.55 125.1 L31.4 125.4 Q25.45 137.95 32.15 151.2 L34.9 156.5 Q40.3 166.45 43.3 174.8 L28.5 183.8 Q20.0 173.7 18.2 160.55 L18.15 159.85 Q16.55 147.35 16.45 133.65 L16.35 130.0 Q16.0 113.8 16.3 98.35 L16.3 95.45 Q16.15 83.35 14.6 70.2 L13.95 64.7 Q11.8 46.0 7.65 27.6 6.6 23.0 6.0 18.7 4.5 10.85 4.3 4.6 L49.55 4.6 49.85 6.2" fill="#000000" fill-opacity="0.101960786" fill-rule="evenodd" stroke="none"/>
  </g>
</svg>
