<?xml version="1.0" encoding="UTF-8" standalone="no"?>
<svg xmlns:xlink="http://www.w3.org/1999/xlink" height="179.2px" width="46.1px" xmlns="http://www.w3.org/2000/svg">
  <g transform="matrix(1.0, 0.0, 0.0, 1.0, -4.3, -4.6)">
    <path d="M49.85 6.2 L49.85 6.25 Q51.45 23.0 48.45 39.15 L48.35 39.8 Q45.4 55.45 43.4 71.0 L43.3 72.05 Q41.35 86.7 39.05 99.7 L37.55 106.75 Q35.25 116.2 30.65 125.3 L30.5 125.6 Q24.25 138.05 31.7 151.35 L34.6 156.6 Q40.4 166.65 43.3 174.8 L28.5 183.8 Q20.05 173.7 18.0 160.6 L17.95 159.9 Q16.15 147.5 15.55 133.7 L15.35 130.05 Q14.5 113.8 15.6 98.35 L15.75 95.45 Q16.2 83.4 15.3 70.1 L14.9 64.5 Q13.5 45.7 8.55 27.4 7.3 22.8 6.55 18.6 4.65 10.65 4.3 4.6 L49.55 4.6 49.85 6.2" fill="#000000" fill-opacity="0.101960786" fill-rule="evenodd" stroke="none"/>
  </g>
</svg>
