<?xml version="1.0" encoding="UTF-8" standalone="no"?>
<svg xmlns:xlink="http://www.w3.org/1999/xlink" height="179.2px" width="46.1px" xmlns="http://www.w3.org/2000/svg">
  <g transform="matrix(1.0, 0.0, 0.0, 1.0, -4.35, -4.6)">
    <path d="M49.85 6.2 L49.85 6.25 Q51.5 23.0 48.6 39.2 L48.5 39.85 Q45.65 55.55 43.55 71.1 L43.4 72.15 Q41.35 86.8 38.95 99.8 L37.4 106.85 Q35.0 116.3 30.35 125.35 L30.15 125.65 Q23.85 138.1 31.55 151.4 L34.5 156.6 Q40.4 166.7 43.3 174.8 L28.5 183.8 Q20.05 173.7 17.95 160.65 L17.9 159.95 Q16.0 147.55 15.25 133.7 L15.05 130.05 Q14.0 113.8 15.35 98.35 L15.55 95.45 Q16.25 83.4 15.55 70.05 L15.2 64.45 Q14.1 45.6 8.85 27.3 7.55 22.75 6.7 18.55 4.7 10.55 4.35 4.6 L49.55 4.6 49.85 6.2" fill="#000000" fill-opacity="0.101960786" fill-rule="evenodd" stroke="none"/>
  </g>
</svg>
