<?xml version="1.0" encoding="UTF-8" standalone="no"?>
<svg xmlns:xlink="http://www.w3.org/1999/xlink" height="179.2px" width="46.15px" xmlns="http://www.w3.org/2000/svg">
  <g transform="matrix(1.0, 0.0, 0.0, 1.0, -4.35, -4.6)">
    <path d="M49.85 6.2 L49.85 6.25 Q51.55 23.0 48.75 39.25 L48.6 39.95 Q45.95 55.65 43.7 71.15 L43.55 72.25 Q41.35 86.95 38.85 99.9 L37.25 106.95 Q34.8 116.35 30.05 125.4 L29.85 125.7 Q23.45 138.1 31.35 151.45 L34.4 156.65 Q40.4 166.75 43.3 174.8 L28.5 183.8 Q20.05 173.7 17.9 160.65 L17.8 159.95 Q15.9 147.65 14.95 133.7 L14.7 130.1 Q13.5 113.8 15.1 98.35 L15.4 95.45 Q16.25 83.45 15.75 70.0 L15.55 64.4 Q14.65 45.5 9.15 27.25 7.8 22.7 6.9 18.55 4.8 10.5 4.35 4.6 L49.55 4.6 49.85 6.2" fill="#000000" fill-opacity="0.101960786" fill-rule="evenodd" stroke="none"/>
  </g>
</svg>
