<?xml version="1.0" encoding="UTF-8" standalone="no"?>
<svg xmlns:xlink="http://www.w3.org/1999/xlink" height="179.2px" width="46.2px" xmlns="http://www.w3.org/2000/svg">
  <g transform="matrix(1.0, 0.0, 0.0, 1.0, -4.4, -4.6)">
    <path d="M49.85 6.2 L49.85 6.3 Q51.65 23.1 49.2 39.4 L49.05 40.1 44.05 71.45 43.9 72.5 Q41.35 87.35 38.6 100.2 L36.8 107.2 Q34.05 116.6 29.1 125.6 L28.9 125.9 Q22.3 138.2 30.9 151.6 L34.1 156.7 Q40.5 166.95 43.3 174.8 L28.5 183.8 Q20.05 173.75 17.65 160.7 L17.6 160.0 Q15.45 147.8 14.05 133.75 L13.7 130.1 Q12.0 113.8 14.4 98.4 L14.8 95.45 Q16.35 83.5 16.45 69.85 L16.45 64.2 Q16.35 45.2 10.1 27.05 L7.45 18.45 Q4.95 10.3 4.4 4.6 L49.55 4.6 49.85 6.2" fill="#000000" fill-opacity="0.101960786" fill-rule="evenodd" stroke="none"/>
  </g>
</svg>
