<?xml version="1.0" encoding="UTF-8" standalone="no"?>
<svg xmlns:xlink="http://www.w3.org/1999/xlink" height="179.2px" width="46.25px" xmlns="http://www.w3.org/2000/svg">
  <g transform="matrix(1.0, 0.0, 0.0, 1.0, -4.4, -4.6)">
    <path d="M49.85 6.2 L49.85 6.3 Q51.65 23.1 49.35 39.45 L49.2 40.15 Q46.95 56.05 44.2 71.5 L44.05 72.6 Q41.35 87.5 38.5 100.3 L36.65 107.3 Q33.85 116.7 28.8 125.7 L28.6 126.0 Q21.9 138.2 30.75 151.65 L34.0 156.75 Q40.5 167.0 43.3 174.8 L28.5 183.8 Q20.05 173.75 17.6 160.7 L17.5 160.0 Q15.35 147.85 13.75 133.75 L13.35 130.15 Q11.5 113.8 14.2 98.4 L14.65 95.45 Q16.35 83.5 16.7 69.8 L16.8 64.15 Q16.95 45.1 10.4 27.0 L7.65 18.45 Q5.0 10.25 4.4 4.6 L49.55 4.6 49.85 6.2" fill="#000000" fill-opacity="0.101960786" fill-rule="evenodd" stroke="none"/>
  </g>
</svg>
