<?xml version="1.0" encoding="UTF-8" standalone="no"?>
<svg xmlns:xlink="http://www.w3.org/1999/xlink" height="179.2px" width="46.35px" xmlns="http://www.w3.org/2000/svg">
  <g transform="matrix(1.0, 0.0, 0.0, 1.0, -4.4, -4.6)">
    <path d="M49.85 6.2 L49.85 6.3 Q51.75 23.15 49.6 39.55 L49.5 40.25 Q47.45 56.2 44.45 71.7 L44.3 72.8 Q41.35 87.75 38.3 100.45 L36.35 107.5 Q33.35 116.85 28.2 125.8 L28.0 126.1 Q21.1 138.25 30.4 151.75 L33.8 156.8 Q40.55 167.1 43.3 174.8 L28.5 183.8 Q20.1 173.75 17.45 160.75 L17.35 160.05 Q15.05 148.0 13.2 133.8 L12.7 130.15 Q10.55 113.75 13.7 98.4 L14.25 95.45 Q16.4 83.55 17.15 69.75 L17.4 64.05 Q18.1 44.9 11.0 26.85 9.25 22.35 8.0 18.4 5.15 10.1 4.4 4.6 L49.55 4.6 49.85 6.2" fill="#000000" fill-opacity="0.101960786" fill-rule="evenodd" stroke="none"/>
  </g>
</svg>
