<?xml version="1.0" encoding="UTF-8" standalone="no"?>
<svg xmlns:xlink="http://www.w3.org/1999/xlink" height="179.2px" width="46.35px" xmlns="http://www.w3.org/2000/svg">
  <g transform="matrix(1.0, 0.0, 0.0, 1.0, -4.45, -4.6)">
    <path d="M49.85 6.2 L49.85 6.3 Q51.8 23.15 49.75 39.6 L49.65 40.3 Q47.7 56.3 44.6 71.8 L44.4 72.85 Q41.35 87.9 38.25 100.55 L36.2 107.6 Q33.1 116.95 27.85 125.85 L27.65 126.15 Q20.75 138.3 30.25 151.8 L33.7 156.8 Q40.55 167.2 43.3 174.8 L28.5 183.8 Q20.1 173.8 17.4 160.75 L17.3 160.05 Q14.9 148.05 12.9 133.8 L12.35 130.15 Q10.05 113.75 13.45 98.4 L14.05 95.45 Q16.45 83.55 17.4 69.7 L17.7 63.95 Q18.65 44.8 11.35 26.8 9.5 22.25 8.2 18.35 5.2 10.05 4.45 4.6 L49.55 4.6 49.85 6.2" fill="#000000" fill-opacity="0.101960786" fill-rule="evenodd" stroke="none"/>
  </g>
</svg>
