<?xml version="1.0" encoding="UTF-8" standalone="no"?>
<svg xmlns:xlink="http://www.w3.org/1999/xlink" height="179.2px" width="46.45px" xmlns="http://www.w3.org/2000/svg">
  <g transform="matrix(1.0, 0.0, 0.0, 1.0, -4.45, -4.6)">
    <path d="M49.85 6.2 Q51.85 23.2 50.05 39.7 48.25 56.2 44.85 71.95 41.45 87.7 38.05 100.75 34.65 113.75 27.25 126.0 19.85 138.2 29.95 151.9 40.0 165.55 43.3 174.8 L28.5 183.8 Q19.9 173.55 17.15 160.1 14.35 146.65 11.7 130.2 9.05 113.75 13.0 98.4 16.9 83.05 18.35 63.85 19.8 44.6 11.95 26.65 5.65 12.3 4.45 4.6 L49.55 4.6 49.85 6.2" fill="#000000" fill-opacity="0.101960786" fill-rule="evenodd" stroke="none"/>
  </g>
</svg>
