<?xml version="1.0" encoding="UTF-8" standalone="no"?>
<svg xmlns:xlink="http://www.w3.org/1999/xlink" height="422.0px" width="1855.0px" xmlns="http://www.w3.org/2000/svg">
  <g transform="matrix(1.0, 0.0, 0.0, 1.0, 0.0, 0.0)">
    <path d="M1506.75 143.7 Q1486.3 141.0 1481.0 141.0 1443.2 141.0 1412.9 146.95 1390.9 151.25 1368.0 160.0 1345.0 169.5 1334.35 173.05 1316.55 179.0 1300.0 179.0 1275.65 167.5 1246.0 156.0 1186.75 133.0 1156.0 133.0 L1100.0 137.5 1044.0 142.0 Q977.95 142.0 973.55 137.5 973.05 137.0 973.0 135.85 972.95 134.85 972.2 134.4 969.95 133.0 956.0 133.0 951.0 133.0 932.0 137.5 913.0 142.0 908.0 142.0 895.85 142.0 879.65 134.8 873.15 131.95 849.2 119.0 829.0 108.1 815.25 103.2 795.2 96.0 776.5 96.0 760.3 96.0 742.45 102.25 729.95 106.6 712.15 116.0 689.65 127.85 685.4 129.75 671.45 136.0 662.0 136.0 619.95 136.0 603.15 132.1 596.7 130.6 591.95 128.1 L584.45 123.5 Q574.55 117.55 554.75 114.9 525.8 111.0 463.0 111.0 456.8 111.0 440.65 107.4 L422.0 103.0 Q420.0 102.65 418.4 103.65 417.65 104.1 415.5 106.15 411.35 110.0 406.0 110.0 L390.0 109.0 Q394.35 108.5 401.9 103.95 411.75 98.0 420.8 94.75 456.25 82.0 536.0 82.0 560.2 82.0 571.85 85.6 578.05 87.5 586.2 93.5 593.75 99.1 603.45 101.4 618.35 105.0 648.0 105.0 664.6 105.0 677.9 87.9 681.3 83.45 686.95 75.05 691.65 68.5 695.0 67.0 715.85 57.5 745.05 51.5 773.4 45.7 785.0 48.0 793.9 51.1 807.85 62.4 L834.05 84.25 Q850.7 97.6 864.1 104.25 881.75 113.0 898.5 113.0 905.8 113.0 916.5 108.3 922.65 105.65 936.5 98.0 949.9 90.6 956.85 87.7 968.0 83.0 976.0 83.0 L1045.0 86.5 1114.0 90.0 Q1195.95 90.0 1254.05 124.0 1263.15 129.3 1273.5 136.5 L1288.85 147.4 Q1304.15 158.0 1312.0 158.0 L1346.7 151.2 1381.0 144.0 Q1395.85 138.35 1418.2 134.5 1438.5 131.0 1452.0 131.0 1477.25 131.5 1501.4 130.7 L1550.25 128.25 Q1636.9 123.15 1716.0 121.0 1726.8 120.85 1733.0 118.6 1737.35 117.05 1740.7 113.8 1744.8 109.8 1746.0 109.1 1749.65 107.0 1756.0 107.0 L1799.7 109.9 Q1836.35 113.0 1840.0 115.0 1851.55 121.45 1855.0 124.0 1854.0 126.0 1854.0 127.0 1843.2 125.35 1808.9 121.75 1773.0 118.0 1766.0 118.0 1758.8 118.0 1752.45 120.95 1746.55 123.65 1743.0 128.0 1742.5 128.55 1725.8 131.0 1705.5 134.0 1679.0 137.0 1552.0 143.0 1528.0 146.0 1526.15 146.25 1506.75 143.7 M893.0 0.0 Q908.75 8.8 930.55 13.3 942.4 15.75 970.15 18.9 995.7 21.75 1009.15 25.05 1030.05 30.1 1045.0 40.0 1076.65 54.7 1129.0 62.0 1207.45 74.45 1267.5 69.2 L1294.95 67.55 Q1304.25 68.4 1310.0 76.0 1298.4 87.3 1275.2 88.75 1267.9 89.2 1259.75 88.65 L1252.0 88.0 Q1157.55 88.0 1122.45 79.25 1111.85 76.6 1105.8 72.8 1100.15 69.25 1099.0 69.0 1073.9 63.4 1057.15 57.95 1040.4 52.5 1025.0 45.0 1011.8 38.25 991.1 35.95 L955.05 33.2 Q934.1 31.15 921.0 25.1 903.8 17.15 893.0 0.0 M887.8 177.05 Q898.5 180.0 908.0 180.0 L952.0 176.5 996.0 173.0 1033.7 167.9 1074.0 162.0 Q1083.6 160.1 1103.0 157.25 1125.3 154.0 1132.0 154.0 L1178.0 162.4 1236.0 173.0 1302.65 183.65 Q1331.15 187.95 1334.0 189.0 1321.15 194.5 1314.7 196.9 1303.5 201.0 1292.0 201.0 1259.05 201.0 1226.7 194.0 L1203.05 189.2 Q1189.65 187.0 1176.0 187.0 1169.75 187.0 1152.75 180.5 1135.75 174.0 1128.0 174.0 1121.75 174.0 1080.05 179.65 1037.0 185.45 1013.0 186.0 L985.15 185.15 Q972.1 184.1 970.0 182.0 971.15 183.25 971.0 184.5 970.75 187.0 964.5 187.0 923.5 187.0 896.1 183.1 880.7 180.9 855.65 174.5 831.6 168.35 812.35 165.9 781.8 162.0 735.5 162.0 722.05 162.0 714.0 164.4 709.85 165.6 701.95 169.9 694.4 173.9 686.75 175.9 675.05 179.0 656.0 180.0 L624.15 182.0 575.0 184.0 Q570.0 184.0 562.5 188.5 555.0 193.0 550.0 193.0 L519.0 190.4 Q486.2 187.6 449.0 187.0 449.0 186.15 447.5 183.4 446.0 180.65 446.0 179.0 L503.4 179.2 Q526.35 179.2 540.45 178.55 566.0 177.35 642.0 168.0 658.35 166.25 678.05 155.65 L693.0 147.35 Q701.25 142.85 707.0 141.0 741.3 129.7 768.55 137.9 777.15 140.45 786.8 145.65 797.75 151.55 799.0 152.0 832.05 157.25 866.45 169.75 882.1 175.45 887.8 177.05 M1439.5 315.85 Q1443.65 312.0 1449.0 312.0 L1465.0 313.0 Q1460.65 313.5 1453.1 318.05 1443.25 324.0 1434.2 327.25 1398.75 340.0 1319.0 340.0 1294.8 340.0 1283.15 336.4 1276.95 334.5 1268.8 328.5 1261.25 322.9 1251.55 320.6 1236.65 317.0 1207.0 317.0 1190.4 317.0 1177.1 334.1 1173.7 338.55 1168.05 346.95 1163.35 353.5 1160.0 355.0 1139.15 364.5 1109.95 370.5 1081.6 376.3 1070.0 374.0 1061.1 370.9 1047.15 359.6 1030.3 345.25 1020.95 337.75 1004.3 324.4 990.9 317.75 973.25 309.0 956.5 309.0 949.2 309.0 938.5 313.7 932.35 316.35 918.5 324.0 905.1 331.4 898.15 334.3 887.0 339.0 879.0 339.0 L810.0 335.5 741.0 332.0 Q659.05 332.0 600.95 298.0 591.85 292.7 581.5 285.5 L566.15 274.6 Q550.85 264.0 543.0 264.0 L508.3 270.8 474.0 278.0 Q459.15 283.65 436.8 287.5 416.5 291.0 403.0 291.0 377.75 290.5 353.6 291.3 L304.75 293.75 Q218.1 298.85 139.0 301.0 128.2 301.15 122.0 303.4 117.65 304.95 114.3 308.2 110.2 312.2 109.0 312.9 105.35 315.0 99.0 315.0 L55.3 312.1 Q18.65 309.0 15.0 307.0 3.45 300.55 0.0 298.0 1.0 296.0 1.0 295.0 L46.1 300.25 Q82.0 304.0 89.0 304.0 96.2 304.0 102.55 301.05 108.45 298.35 112.0 294.0 112.5 293.45 129.2 291.0 L176.0 285.0 Q303.0 279.0 327.0 276.0 L348.25 278.3 374.0 281.0 Q411.8 281.0 442.1 275.05 464.1 270.75 487.0 262.0 510.0 252.5 520.65 248.95 538.45 243.0 555.0 243.0 579.35 254.5 609.0 266.0 668.25 289.0 699.0 289.0 L755.0 284.5 811.0 280.0 Q877.05 280.0 881.45 284.5 881.95 285.0 882.0 286.15 882.05 287.15 882.8 287.6 885.05 289.0 899.0 289.0 904.0 289.0 923.0 284.5 942.0 280.0 947.0 280.0 959.15 280.0 975.35 287.2 981.85 290.05 1005.8 303.0 1026.0 313.9 1039.75 318.8 1059.8 326.0 1078.5 326.0 1094.7 326.0 1112.55 319.75 1125.05 315.4 1142.85 306.0 1165.35 294.15 1169.6 292.25 1183.55 286.0 1193.0 286.0 1235.05 286.0 1251.85 289.9 1258.3 291.4 1263.05 293.9 1265.8 295.35 1270.55 298.5 1280.45 304.45 1300.25 307.1 1329.2 311.0 1392.0 311.0 1398.2 311.0 1414.35 314.6 L1433.0 319.0 Q1435.0 319.35 1436.6 318.35 L1439.5 315.85 M1409.0 243.0 L1351.6 242.8 Q1328.65 242.8 1314.55 243.45 1289.0 244.65 1213.0 254.0 1196.65 255.75 1176.95 266.35 L1162.0 274.65 Q1153.75 279.15 1148.0 281.0 1113.7 292.3 1086.45 284.1 1077.85 281.55 1068.2 276.35 1057.25 270.45 1056.0 270.0 1022.95 264.75 988.55 252.25 972.9 246.55 967.2 244.95 956.5 242.0 947.0 242.0 L903.0 245.5 859.0 249.0 821.3 254.1 781.0 260.0 752.0 264.75 Q729.7 268.0 723.0 268.0 L677.0 259.6 619.0 249.0 Q593.75 244.65 552.35 238.35 523.85 234.05 521.0 233.0 533.85 227.5 540.3 225.1 551.5 221.0 563.0 221.0 595.95 221.0 628.3 228.0 L651.95 232.8 Q665.35 235.0 679.0 235.0 685.25 235.0 702.25 241.5 719.25 248.0 727.0 248.0 733.25 248.0 774.95 242.35 818.0 236.55 842.0 236.0 L869.85 236.85 Q882.9 237.9 885.0 240.0 883.85 238.75 884.0 237.5 884.25 235.0 890.5 235.0 931.5 235.0 958.9 238.9 974.3 241.1 999.35 247.5 1023.4 253.65 1042.65 256.1 1073.2 260.0 1119.5 260.0 1132.95 260.0 1141.0 257.6 1145.15 256.4 1153.05 252.1 1160.6 248.1 1168.25 246.1 1179.95 243.0 1199.0 242.0 L1230.85 240.0 1280.0 238.0 Q1285.0 238.0 1292.5 233.5 1300.0 229.0 1305.0 229.0 L1336.0 231.6 Q1368.8 234.4 1406.0 235.0 1406.0 235.85 1407.5 238.6 1409.0 241.35 1409.0 243.0 M884.85 403.1 Q859.3 400.25 845.85 396.95 824.95 391.9 810.0 382.0 778.35 367.3 726.0 360.0 647.55 347.55 587.5 352.8 L560.05 354.45 Q550.75 353.6 545.0 346.0 556.6 334.7 579.8 333.25 587.1 332.8 595.25 333.35 L603.0 334.0 Q697.45 334.0 732.55 342.75 743.15 345.4 749.2 349.2 754.85 352.75 756.0 353.0 781.1 358.6 797.85 364.05 814.6 369.5 830.0 377.0 843.2 383.75 863.9 386.05 L899.95 388.8 Q920.9 390.85 934.0 396.9 951.2 404.85 962.0 422.0 946.25 413.2 924.45 408.7 912.6 406.25 884.85 403.1" fill="#000000" fill-opacity="0.101960786" fill-rule="evenodd" stroke="none"/>
  </g>
</svg>
