<?xml version="1.0" encoding="UTF-8" standalone="no"?>
<svg xmlns:xlink="http://www.w3.org/1999/xlink" height="414.8px" width="568.25px" xmlns="http://www.w3.org/2000/svg">
  <g transform="matrix(1.0, 0.0, 0.0, 1.0, 231.0, 176.55)">
    <path d="M129.65 -171.55 L129.65 -171.45 Q132.0 -172.85 136.0 -174.0 151.5 -178.35 151.5 -175.3 L149.45 -173.15 Q147.1 -170.65 146.0 -167.75 L146.0 -166.3 147.9 -165.8 152.65 -169.15 Q158.1 -172.5 162.0 -172.5 L167.0 -171.85 Q168.4 -171.4 169.0 -170.8 L167.35 -169.65 165.4 -168.5 162.9 -166.0 Q161.0 -163.7 159.65 -161.15 L162.4 -160.35 164.75 -159.75 165.75 -159.0 Q166.45 -158.5 166.75 -158.5 L167.25 -167.55 167.45 -167.7 Q167.6 -167.9 168.0 -167.9 L168.65 -167.25 Q169.75 -166.65 170.75 -166.55 L172.6 -165.25 174.75 -162.5 Q177.7 -158.8 178.65 -156.8 L181.05 -151.05 Q182.85 -146.5 182.85 -145.9 L182.65 -144.05 182.9 -142.95 183.15 -142.45 183.65 -140.75 185.35 -137.15 186.6 -133.75 188.25 -130.25 Q193.7 -121.05 196.9 -116.4 L196.85 -116.0 196.85 -115.85 196.5 -115.75 Q195.7 -115.75 192.35 -118.35 L189.1 -120.9 189.7 -119.25 191.0 -115.65 192.9 -112.2 194.75 -108.5 196.45 -105.0 198.25 -101.4 199.2 -98.0 200.15 -94.25 199.95 -93.9 199.35 -93.75 Q198.45 -93.75 192.6 -98.25 195.15 -91.55 195.65 -86.05 L195.75 -83.15 195.65 -80.05 Q195.65 -79.3 196.15 -77.2 L196.65 -74.05 196.6 -71.8 Q196.6 -71.55 196.0 -71.55 L194.5 -73.75 192.65 -76.4 192.6 -76.1 Q192.6 -75.25 193.25 -73.55 193.85 -71.9 193.85 -71.05 L193.15 -67.25 193.05 -65.3 193.1 -63.7 192.1 -57.75 Q191.35 -53.75 189.75 -52.05 188.85 -52.5 188.6 -53.4 L188.0 -55.25 187.6 -55.9 Q187.05 -54.1 186.05 -52.5 184.85 -50.55 178.0 -42.25 177.6 -41.75 177.3 -40.75 L177.5 -40.5 Q177.5 -39.95 177.1 -39.9 L176.4 -37.4 175.7 -35.05 175.15 -32.75 174.35 -28.1 Q173.9 -25.3 173.1 -23.7 L173.15 -21.4 172.9 -15.05 Q172.65 -13.55 171.95 -12.4 171.25 -11.15 169.35 -9.3 L164.25 -3.45 164.15 -3.3 166.25 -1.5 168.65 -0.05 Q169.8 0.55 172.1 1.25 173.3 1.65 174.95 2.6 176.55 3.6 177.85 4.0 L181.05 5.3 184.0 6.65 Q189.1 9.0 194.65 12.15 L205.1 18.1 210.05 21.1 Q213.85 23.4 216.0 24.25 219.3 25.55 226.35 29.6 231.2 32.4 235.9 35.85 242.55 40.75 244.5 44.0 L250.1 52.2 Q253.45 57.05 254.75 60.1 L257.95 68.0 Q260.1 72.85 262.75 76.25 L265.35 80.2 268.25 84.25 271.95 88.4 Q274.0 90.75 274.9 92.35 L277.25 96.35 280.25 100.4 Q283.6 104.2 284.65 106.6 284.95 106.55 285.35 107.1 L285.7 108.4 286.6 110.1 289.05 113.05 291.15 116.25 295.6 121.95 Q299.25 126.75 299.25 128.55 L298.4 130.2 Q304.75 139.65 312.55 152.4 321.0 166.1 323.25 170.85 L328.2 181.25 Q330.8 187.2 331.65 191.65 332.45 195.95 333.1 202.15 333.25 203.9 334.65 207.35 L336.15 211.15 337.0 210.85 337.15 210.8 337.25 211.25 Q337.25 212.3 334.7 214.65 332.35 216.8 330.9 217.5 323.15 221.3 319.35 223.9 L310.35 230.95 Q306.8 233.4 301.85 233.8 302.3 235.9 303.65 237.35 303.55 237.5 303.6 237.9 303.5 238.25 302.75 238.25 301.55 238.25 300.9 236.4 300.5 235.2 300.5 234.0 L300.5 233.85 300.05 233.85 Q297.95 233.85 296.15 233.15 L292.85 232.1 290.4 231.7 284.75 231.15 Q281.2 230.9 278.8 229.8 L279.0 231.1 278.5 231.6 Q277.5 230.9 277.3 229.95 L277.2 228.95 Q276.15 228.25 275.4 227.35 L275.5 227.05 Q275.6 226.9 276.0 226.9 L276.8 227.1 276.25 224.9 Q275.5 221.9 274.85 218.15 L273.85 211.35 Q273.3 207.25 272.6 204.65 L270.7 197.95 Q269.3 194.15 267.0 191.15 L260.85 183.65 Q257.7 179.75 257.0 178.5 L256.45 178.6 252.1 179.0 Q248.15 179.0 247.25 178.2 L240.75 167.75 236.6 161.9 233.75 158.7 232.8 157.65 Q231.7 158.3 228.1 158.6 L204.6 160.15 Q199.0 160.55 195.1 161.65 192.3 162.4 191.5 163.1 190.1 164.4 189.3 167.15 L188.25 171.5 Q186.5 177.05 183.25 188.75 177.3 209.5 175.95 219.6 L179.1 219.5 179.35 219.85 Q179.0 220.35 177.85 220.55 L176.5 220.75 175.8 220.95 175.6 223.25 174.75 223.5 174.7 221.3 174.15 221.4 170.75 222.5 166.75 223.8 163.5 224.5 Q157.85 225.95 148.25 227.65 138.7 229.45 104.6 230.65 L76.35 232.5 55.5 233.5 Q36.65 233.5 23.35 230.75 L16.5 229.5 16.4 229.5 16.25 229.8 15.75 229.9 Q15.2 229.9 14.55 229.15 L7.25 227.9 -11.15 225.1 -14.8 224.3 -20.25 223.65 -26.2 223.3 -27.4 222.85 -29.5 222.1 -32.35 221.6 -32.6 221.55 -32.5 221.75 -32.85 222.1 -33.25 222.4 Q-34.45 222.4 -34.85 220.55 L-35.0 218.6 Q-35.0 216.75 -34.25 211.6 L-33.5 206.45 -34.0 191.9 -33.9 187.8 -33.0 182.0 -32.5 176.45 -32.0 172.05 -32.5 167.75 -32.4 165.35 -32.25 163.5 Q-32.25 161.75 -32.75 159.15 -33.25 156.55 -33.25 154.0 L-33.5 148.5 -33.75 144.75 Q-33.25 132.0 -32.1 126.25 L-32.25 124.7 -38.75 123.4 Q-41.25 122.7 -42.75 122.0 L-46.5 120.5 -50.75 118.9 Q-53.45 118.05 -65.0 115.9 -70.55 114.9 -75.75 113.3 -76.45 113.1 -86.95 113.1 -99.6 113.1 -106.95 114.9 L-114.5 116.65 -117.7 116.4 -119.15 113.75 -120.4 110.5 -121.85 106.2 Q-123.0 107.1 -126.55 107.5 L-133.05 108.1 -143.55 110.1 -162.55 113.75 -177.3 114.0 -192.9 113.45 Q-196.1 112.8 -206.9 107.85 -209.45 106.7 -212.75 104.1 L-216.75 101.0 -217.0 101.0 Q-218.9 101.0 -221.15 98.45 L-223.75 95.0 Q-224.6 93.75 -224.65 91.95 L-224.5 88.85 Q-224.4 86.65 -225.55 82.8 L-227.25 76.65 -229.5 64.9 Q-231.0 56.45 -231.0 52.1 -231.0 47.2 -229.45 39.5 -227.95 32.05 -226.25 27.9 L-221.35 15.85 Q-218.7 8.85 -218.0 3.75 -217.55 0.5 -215.35 -8.3 -213.4 -15.9 -213.15 -20.4 -213.05 -23.35 -211.15 -26.3 -209.0 -29.75 -205.0 -32.0 -203.85 -32.65 -202.15 -34.7 L-199.0 -38.0 Q-197.65 -39.1 -194.7 -40.6 L-194.2 -40.85 Q-193.95 -41.65 -193.0 -41.65 L-192.75 -41.6 -191.75 -42.15 Q-191.45 -43.85 -189.75 -46.6 -187.55 -50.1 -185.75 -50.5 L-185.0 -50.6 -184.6 -50.8 Q-182.25 -51.85 -180.45 -51.85 L-179.45 -53.65 -178.05 -55.65 Q-176.75 -57.25 -174.25 -58.75 L-172.45 -59.0 -172.25 -59.15 -171.05 -60.6 Q-170.35 -61.25 -168.1 -61.25 -165.05 -61.25 -163.4 -59.35 -161.8 -57.5 -161.3 -57.5 -160.55 -57.5 -158.65 -58.8 L-156.3 -60.55 Q-153.3 -62.7 -150.8 -60.75 -146.9 -59.0 -140.75 -54.05 -137.0 -51.15 -134.15 -46.45 L-129.65 -38.25 Q-126.6 -32.7 -122.45 -23.65 -116.25 -10.15 -116.25 -6.05 L-116.3 -3.3 Q-116.4 -2.85 -117.3 -1.95 -118.2 -1.05 -118.75 -1.05 L-119.65 -1.1 -120.85 -1.05 Q-126.05 -1.05 -128.65 -3.7 -130.25 -5.35 -133.75 -10.3 -137.25 -14.4 -139.15 -18.85 L-140.65 -16.65 -142.8 -14.15 Q-143.85 -13.2 -147.6 -11.85 -151.1 -10.55 -151.5 -10.0 L-153.4 -6.85 Q-154.45 -5.1 -155.5 -4.15 L-158.05 -2.65 -161.5 -2.4 -166.5 -1.75 Q-172.2 0.0 -174.75 0.0 L-175.1 0.0 -175.05 0.75 -175.25 2.85 -175.25 7.0 Q-175.25 11.85 -174.25 26.5 -173.85 32.2 -172.05 36.25 L-169.5 40.5 Q-167.75 43.4 -167.25 44.8 -166.4 44.35 -164.35 43.95 L-155.8 42.5 -151.7 41.3 -151.5 41.25 -151.5 40.85 -150.85 41.1 Q-147.2 40.15 -143.95 39.75 L-143.9 39.7 -144.05 39.05 Q-144.05 37.35 -143.15 37.0 L-136.15 35.4 -126.8 33.85 -118.15 32.35 -115.35 31.6 -115.0 31.25 -114.6 31.3 -114.55 31.35 -108.2 29.1 -102.9 27.1 -103.1 26.85 Q-95.7 23.5 -91.5 20.75 -86.55 17.45 -79.7 14.0 -72.2 10.2 -65.55 7.75 L-58.5 5.4 Q-54.6 4.25 -49.05 3.25 L-42.75 2.15 -35.85 2.1 Q-30.3 2.05 -27.55 1.0 L-24.4 -0.05 Q-22.25 -0.8 -17.5 -0.8 L-12.7 -0.65 Q-5.05 -0.65 0.4 -1.8 2.85 -2.3 5.75 -3.4 10.15 -5.05 15.35 -6.15 L29.75 -9.15 41.75 -11.75 48.9 -13.3 54.6 -14.5 Q56.4 -14.95 58.45 -15.9 60.65 -17.0 61.75 -17.3 L71.95 -20.0 81.75 -22.65 Q81.05 -25.35 80.65 -28.55 L79.75 -37.25 79.75 -41.55 Q79.75 -42.7 78.9 -43.75 L77.25 -45.65 Q75.25 -48.75 74.5 -50.3 73.4 -52.5 73.4 -54.0 L73.5 -55.1 73.15 -55.8 72.75 -57.3 72.15 -58.8 71.75 -60.3 71.35 -63.25 70.75 -66.15 Q70.05 -65.25 69.6 -63.7 69.1 -62.1 69.25 -60.9 69.35 -60.65 68.75 -60.65 67.4 -60.65 66.25 -66.4 L64.9 -75.0 Q64.0 -81.35 64.75 -89.25 L64.85 -89.5 Q64.05 -88.9 62.65 -86.7 61.55 -84.9 60.85 -84.9 60.0 -84.9 59.85 -87.25 L59.85 -89.75 Q59.85 -99.15 63.0 -108.8 L63.1 -109.0 Q61.3 -108.05 59.85 -106.25 L57.75 -103.65 57.3 -103.7 Q57.15 -103.75 57.15 -104.15 57.15 -105.2 60.75 -114.8 61.75 -117.65 64.8 -121.25 L67.0 -123.6 Q66.55 -125.0 66.25 -127.6 L65.85 -133.25 Q65.85 -136.15 66.35 -137.9 67.25 -141.2 67.75 -144.25 68.5 -148.75 70.35 -142.25 70.3 -140.95 71.0 -139.4 L71.3 -138.8 71.35 -139.95 Q71.35 -152.3 79.5 -157.3 L80.1 -156.45 79.1 -152.9 Q79.1 -151.8 79.85 -149.0 80.45 -146.6 80.75 -145.9 L86.85 -153.0 Q90.9 -157.4 94.25 -159.8 L98.55 -163.4 Q101.5 -165.6 106.0 -166.75 L108.85 -167.25 116.6 -167.75 119.45 -168.15 121.75 -168.75 Q124.0 -169.2 126.55 -170.5 127.85 -171.15 129.25 -171.9 L129.65 -171.55 M-18.1 0.65 L-17.6 0.6 -18.2 0.6 -18.1 0.65" fill="#000000" fill-rule="evenodd" stroke="none"/>
  </g>
</svg>
