<?xml version="1.0" encoding="UTF-8" standalone="no"?>
<svg xmlns:xlink="http://www.w3.org/1999/xlink" height="152.45px" width="139.25px" xmlns="http://www.w3.org/2000/svg">
  <g transform="matrix(1.0, 0.0, 0.0, 1.0, 69.6, 76.2)">
    <path d="M57.5 -67.45 L58.1 -65.75 59.0 -61.0 Q59.2 -59.8 58.75 -58.6 L59.45 -57.45 60.05 -56.4 60.5 -55.25 Q61.4 -52.75 61.8 -50.15 62.25 -46.95 63.0 -43.7 L64.1 -38.7 65.15 -32.25 65.35 -28.7 65.25 -21.5 63.95 -23.65 63.35 -24.95 63.0 -26.3 Q62.35 -30.9 60.85 -35.05 60.0 -37.3 58.6 -39.15 L54.4 -44.3 52.7 -46.0 50.8 -47.85 Q48.2 -50.1 45.25 -51.7 39.5 -54.95 33.05 -56.45 31.1 -57.0 29.3 -57.8 28.25 -58.1 27.35 -58.75 L27.0 -59.1 26.8 -59.6 26.75 -60.1 26.85 -60.65 27.45 -61.1 28.05 -61.4 28.75 -61.45 38.2 -61.15 48.15 -60.25 53.2 -59.5 47.4 -64.6 46.9 -69.0 46.3 -65.1 42.65 -66.3 40.2 -70.1 35.7 -70.95 35.6 -67.0 34.15 -68.65 33.6 -69.2 32.95 -69.75 30.9 -70.8 28.45 -71.05 28.55 -72.1 31.7 -71.35 31.75 -72.2 27.65 -76.15 36.75 -76.2 38.75 -73.75 39.7 -73.75 45.35 -73.7 49.6 -73.2 Q51.65 -73.1 53.5 -72.1 54.8 -71.3 55.75 -70.15 56.8 -68.95 57.5 -67.45 M13.85 -63.4 L15.3 -58.55 14.05 -57.75 9.65 -65.45 11.6 -67.9 12.95 -65.45 13.85 -63.4 M7.05 -49.6 L6.25 -49.1 4.0 -48.0 5.4 -55.35 7.55 -56.05 7.95 -51.85 Q8.1 -50.45 7.05 -49.6 M24.7 -67.45 Q25.85 -65.85 24.8 -64.15 23.8 -62.6 22.4 -61.3 L17.3 -69.0 23.05 -70.5 Q23.7 -68.85 24.7 -67.45 M35.4 -39.5 Q32.9 -38.4 30.05 -39.2 L28.1 -39.75 27.35 -40.2 Q27.55 -41.5 28.55 -42.25 29.8 -43.1 31.55 -43.1 L35.6 -42.4 36.15 -41.9 35.4 -39.5 M68.45 26.65 L69.65 29.25 50.5 27.65 51.05 25.85 68.45 26.65 M-6.9 -36.95 Q-6.8 -33.8 -5.6 -26.65 -5.6 -24.8 -6.9 -22.5 -8.15 -20.3 -10.0 -18.65 L-10.0 -19.15 Q-9.2 -20.25 -8.65 -23.1 L-7.9 -28.05 -7.55 -32.45 -6.9 -36.95 M-15.1 -9.4 L-13.8 -11.4 -14.8 -7.5 -16.95 -9.45 -15.8 -12.45 -15.55 -9.45 -15.1 -9.4 M-18.45 14.35 L-18.95 23.4 Q-19.85 21.8 -20.05 19.9 L-20.25 17.55 -20.35 16.9 -20.45 16.5 -17.15 7.0 -18.45 14.35 M-26.95 26.35 L-22.9 26.25 Q-20.6 26.05 -18.55 27.2 L-18.15 27.5 -32.25 27.35 -27.7 26.15 -27.15 26.45 -26.95 26.35 M-66.95 75.6 L-69.6 76.25 -69.4 75.5 -66.95 75.6" fill="#714642" fill-rule="evenodd" stroke="none"/>
  </g>
</svg>
