<?xml version="1.0" encoding="UTF-8" standalone="no"?>
<svg xmlns:xlink="http://www.w3.org/1999/xlink" height="264.4px" width="725.15px" xmlns="http://www.w3.org/2000/svg">
  <g transform="matrix(1.0, 0.0, 0.0, 1.0, 53.25, -187.25)">
    <path d="M656.8 244.0 Q658.1 244.85 658.1 246.4 L658.0 247.35 649.9 245.45 643.85 245.1 Q649.5 248.95 653.2 254.95 655.05 257.95 654.6 261.6 654.25 264.85 652.45 267.55 659.4 274.5 664.7 282.75 L666.75 286.35 668.3 289.6 Q668.85 290.85 668.15 291.8 L659.65 288.5 Q664.25 295.1 666.55 303.0 667.5 306.2 666.7 309.5 L665.7 309.5 661.85 305.25 Q663.7 313.45 660.9 321.3 L659.1 326.8 Q661.35 329.8 660.3 333.35 L659.85 334.45 655.85 335.65 Q654.75 335.85 653.75 336.5 658.7 349.6 662.0 363.05 663.45 368.9 662.65 374.85 L662.3 375.8 660.95 376.85 Q664.0 386.5 664.0 390.6 664.0 392.65 662.0 404.65 L661.5 408.3 Q661.1 410.7 660.5 411.8 L660.1 412.6 659.1 413.65 630.65 413.6 602.85 413.55 592.75 414.65 Q588.95 415.05 567.3 415.25 547.9 415.4 539.0 417.05 L526.55 419.3 Q522.6 420.8 517.95 421.8 509.0 423.8 492.55 423.8 479.55 423.8 468.15 421.55 L455.0 419.3 Q448.0 419.3 443.45 420.8 438.9 422.25 436.05 422.25 433.8 422.25 432.0 421.15 L421.55 428.0 Q419.2 428.0 418.8 427.55 415.7 431.3 411.55 435.3 404.0 442.75 401.45 444.65 392.05 451.65 383.05 451.65 L366.9 450.4 349.55 448.65 339.9 447.1 311.85 445.8 Q296.6 445.8 276.2 448.25 L252.5 450.65 Q230.55 450.65 211.35 446.4 192.15 442.15 172.65 442.15 L150.15 443.1 133.5 444.05 Q118.25 444.05 105.6 440.45 96.7 437.9 86.35 432.55 L70.75 424.65 Q62.15 421.05 53.75 421.05 43.2 421.05 28.0 424.2 12.75 427.3 10.5 427.3 1.85 427.3 -1.25 421.05 -2.9 417.75 -3.15 411.45 L-12.85 410.3 -22.6 408.55 Q-32.95 406.3 -36.4 398.8 -38.25 394.75 -38.25 387.05 L-38.25 386.1 Q-44.6 388.9 -45.7 393.7 -46.15 395.5 -46.0 399.0 -45.85 402.35 -46.25 403.8 -47.0 400.8 -47.0 397.5 -47.0 390.0 -41.75 386.6 -40.4 385.75 -38.2 384.8 -38.05 381.0 -37.3 377.7 L-35.85 379.15 -36.6 384.2 -36.45 384.1 -30.5 381.75 Q-27.35 380.35 -26.8 374.5 L-26.85 365.65 Q-26.85 360.25 -27.85 349.35 -28.85 338.5 -28.85 333.05 -28.85 327.7 -27.95 317.7 -26.9 306.3 -26.75 301.9 -26.5 295.75 -25.5 286.15 L-25.1 283.4 -31.35 284.7 -52.25 290.05 -53.25 290.15 Q-41.2 285.25 -29.1 282.4 L-24.85 281.5 -24.5 278.7 Q-23.95 273.95 -24.5 271.05 L-23.75 270.4 Q-23.15 270.05 -22.75 270.05 -22.25 271.0 -22.25 273.05 L-22.95 281.1 Q-13.55 279.25 -2.5 278.15 L10.0 278.35 23.0 278.75 25.25 276.75 28.75 275.25 29.6 274.5 30.15 273.55 Q31.05 272.3 31.8 272.0 L37.5 271.75 37.65 271.9 37.7 272.05 38.9 269.6 Q40.25 267.5 42.35 267.0 L46.0 266.05 51.4 265.1 56.2 265.65 Q58.4 266.25 59.05 266.8 60.45 265.95 63.45 265.65 67.8 265.25 68.4 264.75 69.25 264.05 70.8 263.3 73.35 262.0 75.6 262.0 77.5 262.0 79.0 262.95 80.5 263.85 81.6 263.85 L84.05 263.4 84.85 262.75 86.2 262.1 90.35 261.6 Q92.45 260.75 95.3 262.3 L96.55 263.05 97.85 263.0 108.55 263.65 110.65 264.3 113.5 263.9 Q116.8 262.8 121.65 264.8 L127.1 267.05 131.35 265.95 Q134.6 264.85 135.9 264.85 137.25 264.85 139.6 265.95 142.35 267.15 146.0 267.6 149.95 268.05 151.75 270.05 151.75 269.4 152.45 268.8 153.9 267.65 157.6 267.65 160.55 267.65 163.25 268.5 L168.35 270.25 172.3 271.45 172.65 271.6 181.25 269.85 199.0 266.75 223.7 267.7 231.0 268.9 237.1 269.8 241.5 271.0 Q251.1 273.25 262.0 275.15 L283.25 279.7 295.5 282.45 320.0 278.0 Q333.15 276.4 353.7 283.6 364.7 287.5 380.4 294.3 384.05 295.65 391.0 298.9 398.4 302.4 401.65 303.65 L405.6 305.55 Q407.9 306.7 408.65 306.8 410.6 307.05 414.5 308.2 L415.5 308.5 Q416.6 308.0 417.35 307.1 L421.55 302.05 Q425.25 297.45 431.05 295.55 435.55 294.0 439.0 290.9 440.05 289.9 440.45 288.55 440.95 287.0 440.75 285.4 439.45 274.0 437.1 262.8 436.35 259.3 436.25 255.8 436.2 253.7 436.75 251.65 437.65 248.5 440.0 246.0 441.4 244.55 443.05 243.35 446.75 240.8 451.25 240.1 452.85 239.85 454.1 238.9 L457.75 235.85 459.55 234.2 461.5 232.35 461.65 232.4 Q464.6 230.7 467.8 231.45 469.45 231.9 470.8 233.05 L474.3 229.7 Q476.05 229.2 478.25 227.95 L486.95 226.75 488.35 217.25 Q488.7 214.8 490.5 213.05 492.55 211.0 495.25 211.0 497.05 211.0 498.75 211.6 L512.4 216.2 Q517.45 217.9 522.4 217.85 L527.05 217.4 528.75 217.05 529.8 216.25 530.25 215.95 Q532.8 213.35 534.3 210.25 535.15 208.55 536.95 207.75 540.25 206.3 543.8 205.6 L557.6 205.15 Q568.8 207.1 579.8 209.5 L581.95 209.75 582.05 207.95 578.9 206.05 Q580.6 201.7 584.95 200.05 586.85 199.4 588.95 199.45 586.55 197.85 584.7 195.95 584.0 195.3 584.3 194.25 587.35 193.35 590.45 194.6 L591.65 195.05 Q592.45 191.8 593.9 188.95 594.4 188.0 595.3 187.25 597.1 188.65 596.8 191.15 596.7 192.35 597.15 193.6 598.15 196.05 599.8 198.0 603.3 196.15 607.05 196.05 L617.65 196.9 618.05 197.6 Q616.7 199.4 614.65 201.05 611.95 203.3 611.0 206.5 618.85 203.35 627.25 202.35 628.5 202.25 629.3 203.05 L625.7 207.3 Q631.2 209.0 636.25 212.15 637.05 212.65 637.15 213.75 631.8 212.45 626.35 213.75 633.1 216.75 638.3 221.9 L638.15 223.0 632.75 221.55 635.5 230.2 Q641.2 232.4 646.25 236.15 L656.8 244.0 M471.85 234.35 Q473.35 233.0 474.85 232.35 479.45 230.35 484.6 230.35 L486.05 228.3 Q480.85 229.3 475.6 230.65 472.75 231.55 471.85 234.35 M453.65 242.4 L453.05 242.55 450.9 242.3 448.4 242.85 Q445.85 243.6 443.9 244.95 442.75 245.75 441.25 247.3 439.4 249.2 439.4 250.05 L439.7 250.45 439.65 250.5 439.75 250.5 440.0 250.45 441.45 250.1 Q445.95 249.4 449.25 252.4 452.8 248.05 453.65 242.4 M462.5 234.0 L462.85 234.45 466.6 241.9 469.5 234.35 469.15 234.15 Q469.15 232.75 465.85 232.8 462.5 232.85 462.5 234.0 M594.9 190.5 L592.25 197.6 587.05 195.75 588.8 197.15 591.25 199.25 Q591.7 199.75 591.95 200.5 L591.6 201.3 587.05 201.8 Q583.25 202.1 581.15 205.25 L583.5 206.5 583.3 211.85 581.45 211.8 Q573.9 209.1 565.7 208.4 L556.7 207.6 Q552.65 208.35 548.55 209.45 541.95 211.0 535.7 214.05 532.75 215.6 530.8 218.45 L526.1 219.4 Q512.85 221.1 501.0 213.8 499.2 212.75 497.15 212.75 493.7 212.35 491.25 214.65 490.6 215.25 490.25 216.15 489.85 217.15 489.6 218.25 490.8 216.8 492.25 215.8 495.8 213.45 499.5 215.1 503.65 216.9 507.5 219.3 510.8 221.45 514.6 222.3 520.6 223.75 526.5 222.4 L528.35 221.7 Q531.85 220.55 535.15 218.6 538.05 216.85 541.2 215.75 547.4 213.45 553.85 212.85 561.35 212.35 568.5 214.55 574.35 216.4 579.7 219.2 582.6 220.7 585.25 222.6 L590.35 226.65 Q589.4 224.1 589.2 221.45 588.55 213.5 592.9 207.15 L594.0 212.4 Q596.0 209.25 598.25 206.25 601.45 201.95 606.65 200.35 L608.0 200.25 606.3 210.9 609.1 208.0 Q610.05 204.95 611.75 202.3 613.2 200.1 615.05 198.25 L608.4 197.55 Q604.0 197.4 600.05 199.65 L599.0 199.35 598.0 197.95 Q595.2 194.7 594.9 190.5 M437.8 256.25 L437.75 256.2 437.75 256.25 437.8 256.25 M474.5 253.5 L470.4 254.9 Q471.5 255.65 472.85 255.75 L474.3 255.3 Q479.55 252.6 478.8 246.75 L474.5 253.5 M436.85 295.65 L434.05 296.55 430.65 297.75 Q422.95 300.65 418.8 307.9 L420.25 307.5 Q425.5 306.8 429.45 303.25 433.35 299.75 436.85 295.65 M605.55 202.4 L605.6 202.5 605.75 202.25 605.55 202.4 M546.25 252.85 Q545.9 255.25 544.2 257.1 541.75 259.15 539.05 257.4 531.25 252.15 528.55 243.0 L528.95 247.25 528.25 248.1 Q526.1 247.65 524.55 246.2 521.15 243.05 522.25 238.45 518.4 241.25 514.0 242.75 509.4 244.4 504.65 245.5 493.25 248.35 484.5 256.45 L489.05 256.9 Q492.7 257.9 495.3 260.55 L501.4 266.6 Q504.3 269.45 508.3 269.4 510.65 269.4 512.55 267.9 517.25 264.3 522.9 262.9 525.1 262.3 526.75 263.5 530.55 266.1 534.4 267.7 539.6 269.95 543.4 265.85 L544.45 264.3 Q546.95 258.85 546.55 252.85 L546.4 251.45 546.25 252.85 M106.0 266.9 L105.9 266.85 105.9 266.9 106.0 266.9 M104.85 266.8 L104.75 266.65 100.4 266.25 Q98.05 266.1 97.35 265.25 L95.9 264.3 95.7 264.15 95.55 264.15 95.4 263.95 Q93.65 262.8 93.15 262.8 87.7 262.8 85.4 264.05 L85.2 264.2 Q83.0 265.25 81.65 265.25 79.65 265.25 78.4 264.3 77.15 263.35 75.55 263.35 72.05 263.35 69.3 265.75 68.55 266.55 65.8 266.7 L62.6 266.8 61.0 267.35 59.2 267.6 58.8 267.75 52.4 266.35 Q50.45 266.35 47.15 267.15 L43.4 268.15 Q42.25 268.45 41.65 268.85 40.9 269.3 40.35 270.15 39.45 271.6 37.5 275.5 L35.5 279.65 35.25 280.0 Q34.25 281.55 34.25 282.0 L34.25 282.05 32.45 284.7 33.85 284.0 36.0 283.25 38.25 282.1 37.7 282.05 37.95 281.95 38.25 282.1 39.2 281.05 39.85 280.2 40.25 280.25 41.3 278.6 42.75 276.0 Q43.65 274.25 44.3 273.25 45.5 271.45 47.25 270.55 L50.45 268.75 Q51.85 268.5 57.3 270.0 L58.1 269.85 58.2 269.95 58.25 270.3 55.85 274.2 52.65 279.05 52.05 280.7 51.6 281.6 Q50.8 283.4 50.8 283.9 L50.8 284.05 49.75 286.35 Q51.75 285.8 53.5 284.25 54.4 284.2 56.25 280.7 L58.25 277.75 Q60.9 274.2 62.65 272.7 65.7 270.05 69.25 269.55 69.65 269.1 70.8 269.15 73.5 269.25 75.25 268.4 L76.8 266.95 Q77.9 265.95 78.75 266.35 78.75 267.2 79.25 269.0 L79.5 270.6 80.0 270.1 82.25 267.85 83.4 266.1 Q84.3 264.9 85.35 264.5 90.15 262.5 94.15 264.0 L96.55 265.3 98.4 267.15 98.5 267.1 101.1 266.85 104.9 266.85 104.85 266.8 M82.25 293.5 Q80.15 294.75 79.0 297.65 L79.0 297.75 81.85 298.25 Q84.25 298.25 85.45 297.35 86.15 296.8 86.15 296.25 86.15 295.1 85.5 294.05 84.45 292.25 82.25 293.5 M132.2 282.55 L131.85 281.3 131.15 280.3 130.15 279.3 Q129.75 278.85 128.2 277.95 L126.65 277.05 Q127.0 277.85 129.6 280.2 L132.2 282.65 132.25 282.65 132.2 282.55 M131.1 282.7 L131.0 282.8 131.2 282.8 131.1 282.7 M37.15 273.2 L37.35 272.85 36.75 273.1 37.15 273.2 M35.0 287.8 Q32.65 287.7 31.3 289.3 L29.5 291.85 Q32.1 292.15 33.4 291.35 34.4 290.7 35.0 289.05 L35.0 287.8 M56.5 270.6 L56.35 270.6 56.45 270.7 56.5 270.6 M46.5 296.85 Q46.05 296.8 46.9 297.2 L48.55 297.6 Q52.8 297.6 52.8 294.15 52.8 291.45 50.1 292.9 47.55 294.35 46.5 296.85 M174.85 272.75 L175.0 272.9 175.0 272.75 174.85 272.75" fill="#000000" fill-rule="evenodd" stroke="none"/>
    <path d="M594.9 190.5 Q595.2 194.7 598.0 197.95 L599.0 199.35 600.05 199.65 Q604.0 197.4 608.4 197.55 L615.05 198.25 Q613.2 200.1 611.75 202.3 610.05 204.95 609.1 208.0 L606.3 210.9 608.0 200.25 606.65 200.35 Q601.45 201.95 598.25 206.25 596.0 209.25 594.0 212.4 L592.9 207.15 Q588.55 213.5 589.2 221.45 589.4 224.1 590.35 226.65 L585.25 222.6 Q582.6 220.7 579.7 219.2 574.35 216.4 568.5 214.55 561.35 212.35 553.85 212.85 547.4 213.45 541.2 215.75 538.05 216.85 535.15 218.6 531.85 220.55 528.35 221.7 L526.5 222.4 Q520.6 223.75 514.6 222.3 510.8 221.45 507.5 219.3 503.65 216.9 499.5 215.1 495.8 213.45 492.25 215.8 490.8 216.8 489.6 218.25 489.85 217.15 490.25 216.15 490.6 215.25 491.25 214.65 493.7 212.35 497.15 212.75 499.2 212.75 501.0 213.8 512.85 221.1 526.1 219.4 L530.8 218.45 Q532.75 215.6 535.7 214.05 541.95 211.0 548.55 209.45 552.65 208.35 556.7 207.6 L565.7 208.4 Q573.9 209.1 581.45 211.8 L583.3 211.85 583.5 206.5 581.15 205.25 Q583.25 202.1 587.05 201.8 L591.6 201.3 591.95 200.5 Q591.7 199.75 591.25 199.25 L588.8 197.15 587.05 195.75 592.25 197.6 594.9 190.5 M462.5 234.0 Q462.5 232.85 465.85 232.8 469.15 232.75 469.15 234.15 L469.5 234.35 466.6 241.9 462.85 234.45 462.5 234.0 M453.65 242.4 Q452.8 248.05 449.25 252.4 445.95 249.4 441.45 250.1 L440.0 250.45 439.75 250.5 439.65 250.5 439.7 250.45 439.4 250.05 Q439.4 249.2 441.25 247.3 442.75 245.75 443.9 244.95 445.85 243.6 448.4 242.85 L450.9 242.3 453.05 242.55 453.65 242.4 M471.85 234.35 Q472.75 231.55 475.6 230.65 480.85 229.3 486.05 228.3 L484.6 230.35 Q479.45 230.35 474.85 232.35 473.35 233.0 471.85 234.35 M436.85 295.65 Q433.35 299.75 429.45 303.25 425.5 306.8 420.25 307.5 L418.8 307.9 Q422.95 300.65 430.65 297.75 L434.05 296.55 436.85 295.65 M474.5 253.5 L478.8 246.75 Q479.55 252.6 474.3 255.3 L472.85 255.75 Q471.5 255.65 470.4 254.9 L474.5 253.5 M546.55 252.85 Q546.95 258.85 544.45 264.3 L543.4 265.85 Q539.6 269.95 534.4 267.7 530.55 266.1 526.75 263.5 525.1 262.3 522.9 262.9 517.25 264.3 512.55 267.9 510.65 269.4 508.3 269.4 504.3 269.45 501.4 266.6 L495.3 260.55 Q492.7 257.9 489.05 256.9 L484.5 256.45 Q493.25 248.35 504.65 245.5 509.4 244.4 514.0 242.75 518.4 241.25 522.25 238.45 521.15 243.05 524.55 246.2 526.1 247.65 528.25 248.1 L528.95 247.25 528.55 243.0 Q531.25 252.15 539.05 257.4 541.75 259.15 544.2 257.1 545.9 255.25 546.25 252.85 L546.55 252.85 M132.2 282.55 L132.25 282.65 132.2 282.65 129.6 280.2 Q127.0 277.85 126.65 277.05 L128.2 277.95 Q129.75 278.85 130.15 279.3 L131.15 280.3 131.85 281.3 132.2 282.55 M82.25 293.5 Q84.45 292.25 85.5 294.05 86.15 295.1 86.15 296.25 86.15 296.8 85.45 297.35 84.25 298.25 81.85 298.25 L79.0 297.75 79.0 297.65 Q80.15 294.75 82.25 293.5 M104.85 266.8 L104.9 266.85 101.1 266.85 98.5 267.1 98.4 267.15 96.55 265.3 94.15 264.0 Q90.15 262.5 85.35 264.5 84.3 264.9 83.4 266.1 L82.25 267.85 80.0 270.1 79.5 270.6 79.25 269.0 Q78.75 267.2 78.75 266.35 77.9 265.95 76.8 266.95 L75.25 268.4 Q73.5 269.25 70.8 269.15 69.65 269.1 69.25 269.55 65.7 270.05 62.65 272.7 60.9 274.2 58.25 277.75 L56.25 280.7 Q54.4 284.2 53.5 284.25 51.75 285.8 49.75 286.35 L50.8 284.05 50.8 283.9 Q50.8 283.4 51.6 281.6 L52.05 280.7 52.65 279.05 55.85 274.2 58.25 270.3 58.2 269.95 58.1 269.85 57.3 270.0 Q51.85 268.5 50.45 268.75 L47.25 270.55 Q45.5 271.45 44.3 273.25 43.65 274.25 42.75 276.0 L41.3 278.6 40.25 280.25 39.85 280.2 39.2 281.05 38.25 282.1 37.95 281.95 37.7 282.05 38.25 282.1 36.0 283.25 33.85 284.0 32.45 284.7 34.25 282.05 34.25 282.0 Q34.25 281.55 35.25 280.0 L35.5 279.65 37.5 275.5 Q39.45 271.6 40.35 270.15 40.9 269.3 41.65 268.85 42.25 268.45 43.4 268.15 L47.15 267.15 Q50.45 266.35 52.4 266.35 L58.8 267.75 59.2 267.6 61.0 267.35 62.6 266.8 65.8 266.7 Q68.55 266.55 69.3 265.75 72.05 263.35 75.55 263.35 77.15 263.35 78.4 264.3 79.65 265.25 81.65 265.25 83.0 265.25 85.2 264.2 L85.4 264.05 Q87.7 262.8 93.15 262.8 93.65 262.8 95.4 263.95 L95.55 264.15 95.7 264.15 95.9 264.3 97.35 265.25 Q98.05 266.1 100.4 266.25 L104.75 266.65 104.85 266.8 M35.0 287.8 L35.0 289.05 Q34.4 290.7 33.4 291.35 32.1 292.15 29.5 291.85 L31.3 289.3 Q32.65 287.7 35.0 287.8 M46.5 296.85 Q47.55 294.35 50.1 292.9 52.8 291.45 52.8 294.15 52.8 297.6 48.55 297.6 L46.9 297.2 Q46.05 296.8 46.5 296.85" fill="#b39466" fill-rule="evenodd" stroke="none"/>
    <path d="M463.3 233.65 Q464.45 234.2 465.65 235.4 L469.15 239.4 Q470.9 241.3 470.9 243.0 L470.65 244.0 Q470.35 244.75 469.8 244.75 468.2 244.75 465.65 241.75 463.75 239.55 462.8 237.75 L462.4 238.65 Q462.0 239.3 461.15 239.3 460.35 239.3 460.15 238.65 L460.1 238.1 Q460.7 235.05 461.0 234.3 461.6 232.9 463.3 233.65 M459.0 241.75 Q459.0 242.75 457.8 243.35 L455.75 244.5 Q455.15 245.1 454.75 246.15 L454.05 247.85 453.05 249.55 452.1 251.25 451.7 253.05 Q451.2 254.25 449.65 254.25 448.3 254.25 447.4 252.35 446.45 250.4 444.4 250.4 441.85 250.4 441.25 252.0 440.9 252.85 441.1 253.8 441.1 254.4 440.6 254.85 440.15 255.25 439.8 255.25 438.1 255.25 437.55 253.6 L437.4 251.9 Q437.4 250.35 438.9 248.65 440.95 246.35 444.55 246.35 445.9 246.35 449.25 248.0 450.8 244.25 452.05 242.55 454.0 240.05 456.55 240.05 459.0 240.0 459.0 241.75 M479.0 243.5 Q480.15 241.0 481.8 241.4 483.35 241.7 483.35 243.3 L481.8 246.8 479.75 251.0 Q478.7 252.75 474.35 255.65 470.2 258.35 469.1 258.35 467.65 258.35 467.25 257.6 L467.1 256.8 Q467.1 255.65 468.7 254.7 L472.6 252.25 Q475.45 250.05 476.85 248.0 L478.0 245.8 479.0 243.5 M435.3 295.75 Q437.1 294.9 438.05 294.75 439.65 294.4 440.65 294.75 441.55 295.05 441.55 295.75 441.55 296.75 439.2 298.0 436.05 299.7 435.3 300.4 L432.55 302.8 429.75 304.9 Q428.5 305.85 425.95 307.05 L422.65 308.4 Q420.5 309.0 419.8 311.0 419.25 312.75 418.15 312.75 417.05 312.75 416.65 311.65 L416.5 310.5 Q416.5 308.0 418.95 306.4 423.5 304.0 427.65 301.5 L430.5 299.25 433.3 296.8 Q434.05 296.35 435.3 295.75 M481.65 255.65 Q484.85 252.6 488.4 252.6 491.55 252.6 493.8 254.5 495.05 255.6 497.1 258.7 501.15 264.75 506.3 264.75 509.8 264.75 513.55 261.2 517.3 257.6 521.5 257.6 524.55 257.6 529.5 260.55 534.4 263.5 535.75 263.5 541.05 263.5 544.8 259.0 548.45 253.35 550.25 251.0 556.15 243.45 555.1 238.25 L555.3 238.25 555.7 240.3 556.0 242.6 555.55 244.5 Q555.05 246.2 555.05 246.8 L553.3 252.1 Q552.65 254.7 551.0 257.35 549.25 260.15 547.3 262.2 547.8 262.6 547.75 263.5 547.75 264.6 544.75 267.05 541.1 270.0 537.25 270.0 534.4 270.0 528.6 267.75 522.8 265.5 521.4 265.5 519.6 265.5 515.75 268.4 511.85 271.25 510.5 271.25 L504.3 270.95 Q503.55 269.9 500.5 268.25 L496.55 265.25 489.55 259.35 490.0 261.95 Q490.0 263.65 489.0 263.65 488.1 263.65 487.0 260.5 L486.05 257.5 484.0 258.8 480.9 261.0 Q479.85 261.0 479.35 260.15 L479.1 259.3 Q479.1 258.15 481.65 255.65 M612.05 201.0 Q610.45 203.7 608.55 209.15 606.7 214.45 605.0 217.25 L604.25 217.15 Q604.05 217.1 604.05 216.5 604.05 216.0 607.25 208.3 607.9 206.7 609.5 204.3 611.1 201.8 612.05 201.0 M608.55 203.85 L606.45 206.95 605.75 208.55 Q605.2 210.05 604.7 212.8 L604.75 213.05 604.45 214.0 603.75 217.25 603.25 217.4 602.75 217.2 602.65 216.7 603.25 214.1 Q602.85 213.85 602.75 213.15 L602.65 212.0 Q602.65 209.65 605.1 205.9 L607.95 202.2 Q609.05 200.65 610.4 199.75 L609.95 200.55 610.15 200.55 610.3 201.0 608.55 203.85 M601.55 199.2 L601.65 199.55 600.25 201.9 598.5 204.8 Q596.75 208.5 596.5 209.9 L595.75 215.9 Q595.3 220.0 594.75 220.0 L593.8 219.75 593.75 219.2 Q593.75 216.75 593.9 214.7 L593.75 215.0 593.05 214.9 593.05 213.7 592.85 214.15 Q592.05 216.55 592.5 218.05 L592.4 218.25 Q593.5 220.45 594.75 221.0 594.55 221.75 594.0 221.75 593.0 221.75 591.8 219.9 L590.5 217.5 Q589.75 215.65 589.75 213.45 L589.95 211.6 589.3 212.8 Q589.65 215.8 591.1 219.25 592.1 221.55 593.05 223.25 L593.05 223.5 594.05 224.8 600.25 233.45 Q604.8 239.6 604.8 239.95 L604.5 240.95 Q604.1 241.8 603.5 241.8 601.65 241.8 598.65 238.8 L596.05 235.75 593.25 232.7 590.5 229.55 588.25 227.45 588.0 230.4 587.65 230.5 587.15 226.55 587.05 226.45 583.25 223.4 Q580.35 221.3 578.55 220.75 570.15 218.75 568.3 218.75 566.05 218.75 564.2 219.4 L560.85 220.25 Q560.55 220.0 560.55 219.3 560.55 217.85 562.4 216.5 564.8 214.85 569.0 214.75 L567.95 214.4 561.05 214.05 Q553.1 214.05 545.65 216.4 543.0 217.2 538.5 219.25 526.3 224.5 522.85 224.5 513.8 224.5 506.2 220.65 L501.05 217.95 Q498.35 216.75 495.95 216.75 494.05 216.75 492.6 218.25 L491.55 219.75 491.6 220.4 492.85 220.15 493.0 220.1 493.15 220.5 492.6 221.65 491.55 222.55 Q489.9 222.55 489.35 221.15 L489.1 219.65 Q489.1 218.3 490.5 216.5 492.5 213.9 496.0 213.9 500.35 213.9 507.2 217.7 514.1 221.5 520.5 221.5 526.65 221.5 538.0 216.0 542.2 213.85 544.8 213.2 549.95 211.85 561.5 211.0 L566.75 211.0 Q575.15 212.6 582.4 216.15 L583.2 213.75 584.35 210.9 584.7 209.6 Q585.8 206.2 587.5 204.4 588.2 202.6 589.4 201.55 L588.65 205.7 Q589.2 204.9 590.05 204.55 L590.25 204.65 590.3 205.05 589.85 206.6 590.05 206.4 589.2 209.45 589.2 209.6 590.55 207.4 591.65 204.0 Q593.1 200.2 594.0 200.0 L594.35 200.1 594.5 200.5 592.9 204.15 593.7 203.3 Q594.7 201.8 595.8 200.75 L595.2 202.05 Q594.85 202.55 594.8 203.0 595.7 200.8 596.9 200.4 L597.1 200.35 597.25 200.75 596.05 203.4 Q594.8 206.15 594.55 207.75 L594.5 208.3 595.3 207.0 Q597.15 201.75 601.4 199.25 L601.55 199.2 M594.15 204.8 L593.0 207.5 Q592.0 209.95 591.55 211.95 L592.05 213.1 593.0 211.0 Q593.05 208.65 594.0 205.25 L594.15 204.8 M594.3 210.85 L594.15 211.15 594.05 212.7 594.3 210.85 M591.3 213.7 L591.25 214.5 591.35 215.25 591.7 214.0 591.3 213.7 M589.15 220.1 L588.4 217.65 588.7 219.25 588.8 219.65 588.9 219.9 589.15 220.1 M583.55 216.6 L583.55 216.7 583.6 216.75 583.55 216.6 M520.4 261.7 L521.4 261.6 523.55 261.95 521.65 261.5 520.4 261.7" fill="#000000" fill-opacity="0.101960786" fill-rule="evenodd" stroke="none"/>
    <path d="M657.4 239.0 Q662.4 244.25 662.4 246.5 662.4 251.85 655.15 251.25 L658.05 261.85 Q659.7 268.3 663.9 272.55 665.6 274.25 666.9 277.6 L668.8 283.05 671.1 288.95 Q671.9 291.1 671.9 293.6 671.9 296.9 670.85 298.85 669.35 301.5 668.55 306.0 L667.95 311.65 Q667.45 315.35 666.4 318.0 L660.7 332.2 Q659.9 334.95 659.9 342.35 659.9 348.7 660.8 352.5 L662.2 357.1 Q663.1 360.2 663.4 362.25 664.15 367.0 666.55 372.8 668.4 377.3 668.4 382.1 668.4 385.1 665.9 391.9 663.4 398.65 663.4 401.35 663.4 402.75 664.9 405.75 L666.15 408.6 Q667.25 409.25 667.65 410.6 L667.9 414.75 667.9 422.25 667.95 429.75 Q667.3 436.5 663.9 436.5 660.55 436.5 659.9 429.3 L659.9 422.15 Q659.7 419.4 659.8 417.0 L-8.5 417.0 Q-9.55 418.0 -11.0 418.0 -13.3 418.0 -14.35 416.05 -16.0 414.9 -16.0 413.0 -16.0 410.75 -14.5 409.8 L-14.5 283.5 Q-17.25 283.3 -18.1 281.25 L-18.5 278.9 Q-18.5 276.9 -17.6 276.0 -16.4 274.75 -13.0 274.75 L-10.3 274.4 -5.1 273.8 5.5 273.0 14.55 272.45 21.5 272.0 24.15 270.95 Q26.4 270.0 26.8 269.8 31.75 266.9 37.05 265.55 L45.75 263.55 57.15 261.65 70.0 259.5 81.7 257.5 Q92.15 256.0 98.5 256.0 L123.0 258.5 137.5 259.75 150.75 261.05 165.0 263.5 193.5 264.95 215.25 265.05 Q233.65 265.7 258.6 270.9 282.1 275.8 295.65 275.8 L311.45 275.15 321.75 274.5 Q335.5 274.5 350.2 278.3 358.55 280.5 374.05 285.3 377.7 286.25 395.5 294.05 412.0 301.3 413.9 301.3 415.4 301.3 421.35 297.3 427.7 293.0 429.9 292.5 433.0 291.75 435.15 288.3 436.9 285.5 436.9 283.6 L435.45 277.85 433.9 272.0 Q433.4 265.75 433.4 260.35 433.4 255.05 433.7 253.8 434.5 250.7 438.15 246.5 441.35 242.85 445.05 239.75 446.8 238.3 450.75 237.05 455.1 235.75 456.9 234.5 L458.55 232.8 Q459.55 231.65 460.55 231.25 L467.15 228.05 Q469.75 226.85 471.8 227.45 473.55 227.95 475.65 226.55 477.1 225.55 478.55 225.25 L481.75 224.2 Q483.2 223.65 484.9 223.25 484.9 219.75 486.8 216.7 490.35 211.0 499.15 211.0 505.5 211.0 513.05 212.4 520.6 213.8 523.4 213.8 526.05 213.8 531.05 211.05 L536.4 208.0 Q539.85 206.8 543.05 205.25 L560.15 204.55 Q567.3 206.3 578.15 206.8 L579.4 206.0 581.1 203.7 583.15 201.05 Q584.9 199.25 584.85 198.05 584.4 196.95 584.4 196.25 585.0 194.5 585.65 193.9 587.15 192.6 590.9 192.75 591.1 190.9 592.6 189.45 594.55 187.5 597.15 189.25 598.9 190.55 598.95 192.6 L598.9 195.8 602.6 195.15 608.9 194.5 Q615.0 194.5 616.35 197.0 617.1 198.35 616.9 200.55 L617.05 200.75 621.5 199.55 625.9 198.5 Q629.1 198.5 629.75 202.05 L630.15 206.3 Q631.95 207.65 636.75 208.95 639.4 209.7 639.4 212.75 639.4 214.9 637.85 216.1 637.3 216.6 634.65 217.8 637.25 220.35 641.3 225.15 645.2 229.5 650.05 232.5 653.05 234.4 657.4 239.0" fill="#96c675" fill-opacity="0.101960786" fill-rule="evenodd" stroke="none"/>
    <path d="M451.6 241.6 Q452.35 240.25 453.15 239.25 454.4 237.75 459.8 237.75 L465.1 238.0 Q465.65 238.0 466.4 237.35 L467.55 236.3 467.6 236.1 467.65 236.85 Q467.65 237.3 466.25 238.95 464.65 240.9 463.05 241.5 L459.45 242.05 456.15 242.55 Q455.4 243.3 455.15 243.75 L454.1 244.9 Q453.2 245.55 452.35 245.55 L450.9 245.25 450.8 245.0 Q450.65 244.85 450.65 244.1 450.65 243.25 451.6 241.6 M481.2 228.6 Q484.55 227.15 486.05 228.3 485.05 230.25 482.15 230.6 L478.65 230.75 Q478.15 231.65 478.15 230.4 478.15 229.95 481.2 228.6 M469.65 234.55 Q470.85 233.65 471.05 234.25 L469.65 234.55 M340.4 286.05 L344.9 286.05 Q355.3 287.0 359.5 289.45 362.05 290.95 367.15 295.05 L367.15 295.25 Q364.5 294.85 361.25 293.05 357.75 291.1 356.4 290.8 L350.05 289.95 Q345.75 289.5 344.4 288.8 L340.05 286.75 340.25 286.3 340.4 286.05 M328.35 283.75 L327.4 284.0 323.7 283.25 Q320.9 282.4 319.4 282.3 L310.3 281.9 299.0 282.05 Q289.35 282.05 286.65 281.05 285.1 279.85 283.55 279.3 L294.25 277.95 309.0 276.55 Q315.75 276.35 322.25 279.35 326.7 281.35 328.55 283.3 L328.35 283.75 M373.65 298.25 L370.95 297.35 Q369.3 296.65 369.65 296.3 371.75 296.9 373.65 298.05 L373.65 298.25 M398.3 307.75 Q397.3 307.0 397.3 305.8 397.3 304.3 398.05 303.5 399.25 302.2 401.9 303.75 L406.95 306.2 Q409.95 307.75 410.3 307.75 422.75 303.0 422.9 303.0 428.75 303.0 430.55 304.75 431.3 305.45 431.3 307.0 431.3 308.85 428.9 311.9 426.05 315.45 422.65 316.05 L417.85 317.05 Q413.8 318.0 412.3 318.75 410.1 319.85 409.9 321.15 409.65 322.75 409.3 323.05 413.0 323.85 413.8 325.05 L414.05 327.75 413.15 332.7 Q412.5 335.95 413.15 338.0 L412.65 338.05 Q412.35 336.05 412.55 332.35 L412.8 328.15 412.55 325.8 Q411.8 324.85 408.4 324.3 408.7 321.45 409.3 320.15 410.3 318.05 415.65 315.8 L423.1 312.55 Q425.65 311.1 426.8 308.55 L427.15 308.0 Q424.1 308.0 418.05 310.55 412.0 313.05 410.65 313.05 409.0 313.05 406.65 311.8 L402.15 309.55 Q399.15 308.35 398.3 307.75 M615.15 247.25 Q613.45 244.4 613.25 240.15 L613.05 232.8 Q612.5 227.6 611.45 225.85 608.8 221.45 600.55 220.05 600.4 220.6 600.4 219.35 600.4 216.75 606.3 218.8 612.0 220.75 612.9 222.55 613.75 223.85 614.8 226.75 615.8 229.7 615.8 231.0 L615.15 247.25 M579.65 218.85 Q579.65 222.1 572.35 223.6 564.2 225.3 563.55 226.25 572.8 226.85 581.65 231.8 589.55 236.2 589.55 239.0 589.55 239.8 588.2 241.75 586.8 243.65 586.8 245.1 L588.6 246.7 Q590.6 248.45 591.55 250.8 L592.3 253.6 Q592.65 255.45 593.15 256.5 592.1 256.15 591.25 253.95 590.3 251.55 589.65 251.05 L585.85 248.55 Q584.05 247.15 584.05 245.15 584.05 243.95 585.05 242.0 586.05 240.05 586.05 239.55 586.05 238.35 582.0 236.0 L575.55 232.5 Q574.4 231.8 568.3 230.65 L562.15 229.5 Q560.85 228.6 560.5 227.75 L560.3 226.25 Q560.3 224.8 560.45 224.4 560.8 223.45 562.4 222.0 563.2 221.3 567.85 220.25 L573.4 219.25 574.8 219.0 Q571.45 216.9 563.2 215.4 L552.9 213.75 Q560.75 211.55 570.45 213.75 579.65 215.8 579.65 218.85 M531.65 217.75 Q524.9 222.25 522.65 222.25 517.2 222.25 512.6 220.15 508.0 218.0 500.4 218.0 495.7 218.0 495.05 219.5 L494.7 220.55 Q494.4 221.0 493.4 221.0 492.2 221.0 491.7 219.05 L491.4 217.0 Q491.4 212.8 506.4 212.8 507.75 212.8 513.9 214.8 520.0 216.75 521.9 216.75 525.35 216.75 528.85 214.95 532.6 213.05 536.55 212.8 536.1 214.4 531.65 217.75 M120.3 269.8 L122.8 270.85 Q124.15 271.5 125.05 272.25 L125.05 272.55 Q124.3 272.45 122.65 271.55 L119.75 270.0 120.3 269.8 M89.25 264.5 L83.5 265.35 71.55 265.05 Q68.35 265.05 66.3 266.95 65.15 268.0 64.05 269.75 63.55 270.4 59.95 272.3 56.1 274.4 55.05 275.3 54.3 275.95 51.8 281.4 48.95 286.55 45.85 286.55 44.2 286.55 43.85 285.6 L43.75 284.5 Q43.75 283.3 46.65 277.7 49.65 271.95 51.05 270.8 52.3 269.8 56.2 267.4 L60.75 264.3 63.4 262.0 Q64.1 261.45 65.2 261.5 L69.25 261.9 78.6 262.25 93.45 260.3 Q100.45 259.2 101.8 262.5 100.75 263.25 98.55 263.1 95.15 262.9 89.25 264.5 M83.55 291.3 Q86.65 290.0 87.85 290.1 89.4 290.25 91.3 292.5 92.7 294.1 94.4 294.65 97.0 295.55 103.55 295.8 L103.7 296.1 103.8 297.0 Q103.8 299.3 98.0 299.3 92.15 299.3 90.05 296.9 86.4 292.75 83.55 291.3 M153.0 271.55 L146.25 272.0 Q145.5 272.05 145.1 272.55 144.65 273.05 144.05 273.05 142.4 273.05 141.8 271.8 L141.55 270.5 Q141.55 268.7 144.3 267.8 147.0 266.9 153.5 266.5 L162.3 266.9 Q163.05 267.05 165.5 268.55 168.6 270.45 174.55 269.95 L183.5 269.0 Q187.95 269.0 189.8 271.25 L191.75 274.05 Q189.75 275.5 178.75 275.5 165.15 275.5 162.55 273.55 161.1 272.4 160.3 272.15 L153.0 271.55 M155.55 292.65 L157.5 292.5 157.65 292.7 157.75 293.6 157.75 294.35 157.55 294.75 156.5 295.25 155.2 295.05 Q154.8 294.9 154.8 294.1 154.8 293.2 155.55 292.65 M38.75 271.05 L41.5 269.2 Q43.65 267.7 46.05 267.8 43.95 268.4 42.2 269.45 L39.25 271.25 38.75 271.05 M4.15 285.25 Q-2.9 285.25 -4.85 283.55 -5.45 283.05 -5.45 282.4 L-5.35 281.85 Q-5.35 279.45 2.7 278.2 14.5 276.4 17.8 275.25 L22.6 274.5 29.05 273.5 33.2 272.4 Q35.3 272.3 36.75 274.55 34.15 275.35 18.7 281.05 7.35 285.25 4.15 285.25 M249.75 276.0 Q246.85 278.05 240.0 278.05 L238.15 277.55 233.85 276.75 240.75 275.6 Q246.5 274.35 249.05 275.0 249.05 275.3 249.75 276.0 M276.1 286.8 Q275.2 288.3 274.0 288.3 270.6 288.3 269.5 286.45 L269.05 284.5 Q269.05 280.55 272.95 280.75 276.8 281.0 276.8 284.35 276.8 285.55 276.1 286.8 M215.25 274.75 L209.5 275.55 207.3 274.5 Q207.3 272.7 210.65 272.95 213.85 273.15 215.25 274.55 L215.25 274.75 M280.75 316.55 Q275.55 316.4 273.45 313.8 272.0 310.95 271.0 310.3 L266.8 309.25 Q262.9 308.35 261.8 307.55 L259.85 306.45 257.05 305.05 Q259.2 303.4 262.05 304.8 262.85 305.3 266.5 306.3 270.25 307.3 271.0 307.75 272.7 308.7 273.15 310.0 L273.75 312.05 Q274.6 313.6 277.3 314.7 280.2 315.85 280.75 316.55" fill="#ffffff" fill-opacity="0.101960786" fill-rule="evenodd" stroke="none"/>
  </g>
</svg>
