<?xml version="1.0" encoding="UTF-8" standalone="no"?>
<svg xmlns:xlink="http://www.w3.org/1999/xlink" height="274.55px" width="757.75px" xmlns="http://www.w3.org/2000/svg">
  <g transform="matrix(1.0, 0.0, 0.0, 1.0, 40.75, -159.2)">
    <path d="M675.7 319.5 Q679.45 321.35 685.0 325.25 689.8 328.55 693.65 334.8 700.2 345.35 701.5 347.0 705.5 352.15 708.0 357.2 711.25 363.85 711.0 368.75 710.9 371.8 712.4 379.25 714.0 386.95 714.0 390.5 714.0 393.5 712.75 395.8 710.75 399.5 706.0 399.5 701.55 399.5 691.15 383.9 679.3 364.7 674.5 357.5 L669.0 359.3 663.35 360.25 625.35 361.5 Q618.4 361.5 612.4 358.25 605.85 354.75 605.85 349.85 605.85 346.05 610.1 341.65 L619.1 333.0 Q601.3 334.3 595.25 329.6 593.35 328.1 592.85 326.2 L592.75 324.6 Q592.75 321.45 595.0 319.0 L596.35 317.8 Q597.3 317.2 598.0 317.0 L607.95 316.6 664.85 316.5 Q670.25 316.9 675.7 319.5" fill="#000000" fill-rule="evenodd" stroke="none"/>
    <path d="M686.25 374.75 L687.5 374.55 686.5 374.0 686.25 374.75 M163.3 412.6 L121.65 413.75 76.25 411.7 32.25 408.05 Q26.9 407.65 18.15 404.55 L1.6 398.3 Q-6.05 395.4 -11.75 391.1 L-20.5 384.75 Q-33.45 377.4 -37.65 370.8 -40.75 366.0 -40.75 357.75 -40.75 346.95 -33.3 315.85 -26.75 288.5 -25.95 282.55 L-26.85 282.35 Q-27.85 282.1 -27.85 281.5 L-25.85 281.45 -25.85 281.3 Q-25.85 280.45 -24.45 278.75 -23.1 277.1 -22.5 277.1 -20.85 277.15 -20.25 279.15 -20.0 280.05 -20.0 281.05 L-9.75 281.75 -5.65 282.35 -2.35 282.85 Q14.2 282.85 27.7 281.15 L48.55 278.85 65.55 277.45 Q80.25 276.85 122.65 278.1 L136.1 279.3 Q144.75 280.25 148.25 281.1 169.8 286.3 192.9 290.9 L219.2 295.7 Q235.0 298.4 244.5 300.5 L255.35 303.65 Q265.3 306.45 275.35 307.8 L289.25 309.95 305.4 312.05 318.65 312.7 321.1 312.75 321.5 312.55 322.9 308.35 Q323.75 306.0 325.15 304.2 328.95 299.05 331.65 293.4 333.8 288.95 335.15 284.3 L337.0 277.2 Q337.6 274.3 336.55 271.55 L335.05 267.25 332.4 260.0 Q329.8 253.4 327.75 246.55 325.6 239.25 325.3 231.7 324.85 220.25 329.05 209.65 330.35 206.5 332.55 203.7 333.85 202.05 335.45 200.7 338.15 198.4 341.0 196.7 L342.35 196.8 Q348.75 198.15 355.3 198.55 360.05 198.95 363.15 195.55 367.65 190.55 372.7 186.35 373.95 185.3 375.6 185.0 L378.1 185.05 379.1 185.55 Q380.4 186.45 381.25 187.65 L382.6 185.3 Q383.4 184.1 384.4 183.35 385.25 182.7 386.25 182.45 L388.8 181.5 404.1 181.9 Q404.0 177.3 404.9 172.7 405.35 170.25 406.2 167.95 406.65 166.8 407.7 166.1 409.15 165.0 410.65 164.15 L412.9 162.65 416.9 159.95 Q418.05 159.8 419.0 160.35 422.0 162.35 425.25 163.8 L431.9 166.55 Q439.45 169.65 447.2 172.4 454.0 174.7 461.15 174.4 L465.45 173.9 Q468.95 173.25 471.9 170.9 L473.5 169.15 474.85 167.1 477.3 162.55 478.85 161.85 486.75 166.8 498.45 166.7 497.3 165.5 Q495.25 163.1 495.25 162.2 495.25 160.6 496.25 161.55 L498.0 163.8 498.85 164.6 500.25 165.5 501.6 166.3 501.8 166.65 507.65 166.6 507.5 166.45 506.5 165.25 505.3 163.2 Q504.5 161.6 504.5 160.7 504.5 159.7 505.0 159.35 505.65 158.85 507.25 159.9 L508.75 162.5 512.4 164.85 515.05 166.5 515.25 166.5 519.85 166.55 520.35 165.15 521.05 163.65 Q521.7 162.55 522.65 162.15 L523.75 161.6 Q524.55 161.15 525.0 161.05 L528.0 161.1 531.75 161.3 Q534.0 161.6 538.4 163.15 543.0 164.8 544.5 166.0 L546.3 167.65 Q547.95 167.0 549.75 166.8 554.8 166.35 559.45 168.85 L563.7 171.1 564.45 171.0 Q568.1 170.7 570.65 172.25 578.9 175.75 580.9 181.1 583.4 182.2 584.15 182.8 586.15 184.5 588.2 187.0 L590.3 187.55 Q594.25 188.75 597.9 190.75 600.2 192.3 603.1 194.75 L608.1 199.05 Q609.85 200.55 610.75 203.0 L611.85 207.3 612.4 211.15 612.5 211.85 Q614.95 214.45 617.35 219.1 L619.6 224.5 Q624.4 228.0 625.8 232.5 626.7 235.55 626.8 241.0 L628.15 243.25 Q629.45 246.0 631.1 251.25 631.7 253.05 632.6 258.85 633.55 264.95 633.55 267.6 L633.1 273.0 632.35 277.95 Q633.05 281.55 633.05 285.85 L633.0 288.75 632.5 292.05 632.85 294.75 633.25 299.4 632.95 303.5 632.3 307.4 631.6 311.5 Q631.15 313.4 630.4 314.65 630.55 315.95 631.25 317.35 632.1 319.2 632.1 321.1 632.1 323.25 627.85 329.2 L622.5 336.15 616.55 343.6 Q612.9 348.2 611.6 351.0 L609.45 356.9 609.75 357.55 631.05 357.55 Q684.4 357.55 685.5 357.75 L688.05 359.05 Q690.05 360.2 690.25 360.5 L690.4 360.8 691.45 360.95 Q702.3 363.0 709.0 369.55 717.0 377.3 717.0 389.85 L717.0 394.1 Q716.9 396.75 716.25 398.5 715.7 399.95 715.8 402.35 L716.0 406.35 Q716.0 414.6 707.5 420.4 696.95 427.6 676.85 427.6 L667.4 426.75 657.6 425.85 Q631.6 424.85 611.95 425.15 L595.75 425.6 Q583.7 425.6 580.55 421.4 579.55 420.05 579.55 418.4 L579.75 416.85 Q579.75 414.25 580.3 412.95 581.1 411.0 583.5 409.75 588.5 407.05 595.5 408.1 598.5 408.55 606.95 411.15 613.1 413.0 615.5 412.3 618.85 411.25 618.85 405.0 588.75 405.95 588.75 396.6 L588.75 396.5 588.15 396.75 576.6 401.6 Q569.0 404.4 564.05 404.4 556.85 404.4 547.0 401.95 536.55 399.1 531.9 398.15 530.8 397.95 525.85 396.0 L522.85 397.4 515.85 400.65 Q507.4 404.05 498.35 405.45 L493.95 410.0 Q490.2 413.6 484.85 413.4 482.45 413.1 481.1 411.1 479.2 408.3 476.4 406.9 473.5 405.55 470.25 405.55 L460.7 406.15 454.85 406.95 446.35 407.1 432.05 407.2 412.0 407.6 401.9 407.7 385.85 407.05 374.2 405.45 360.5 404.7 351.2 404.6 345.45 404.5 337.25 404.3 336.1 402.0 Q334.8 400.55 331.1 397.85 327.35 395.1 325.0 393.9 L321.9 393.4 320.55 392.95 Q318.55 386.45 316.3 382.05 310.35 369.4 305.15 362.1 L302.65 358.9 302.55 358.6 302.4 358.65 Q300.4 356.6 299.85 358.0 L295.25 359.4 286.9 361.0 263.85 365.75 240.95 370.45 219.55 374.65 Q215.65 375.55 207.3 378.0 198.25 380.6 190.9 382.4 179.5 385.25 175.55 386.6 170.75 388.25 168.55 389.85 L167.75 390.05 Q147.05 396.35 117.8 409.1 L117.4 409.25 117.9 409.3 162.3 395.5 163.5 396.1 Q158.5 402.25 158.5 407.0 158.5 409.8 163.3 412.6 M518.6 174.6 L521.8 175.35 523.5 174.0 Q528.0 170.65 532.65 170.65 L536.2 171.15 Q531.45 169.6 526.45 169.1 L521.9 168.8 518.6 174.5 518.55 174.6 518.6 174.6 M492.4 168.4 Q483.8 167.75 475.95 171.7 472.25 173.5 468.7 175.5 L467.3 175.3 466.95 175.8 463.45 176.1 460.25 176.1 Q453.75 176.0 447.45 174.15 435.95 170.5 425.2 165.2 L417.45 161.45 413.8 163.8 Q410.75 165.55 408.45 168.05 407.6 169.0 406.9 170.05 L408.95 169.9 Q411.05 170.2 412.4 171.9 L413.45 173.45 413.8 174.3 414.15 176.25 Q414.85 181.95 413.15 187.4 412.45 189.5 412.65 191.7 L413.05 194.2 414.6 194.45 415.65 193.35 Q416.75 191.85 417.45 190.15 L418.7 186.6 418.9 185.45 Q419.45 180.8 418.45 176.2 L417.15 169.45 417.15 168.4 417.4 167.35 Q417.85 165.8 419.3 165.4 L421.2 165.35 422.5 165.4 Q425.05 165.95 426.9 167.4 428.6 168.75 430.6 169.6 443.1 174.9 456.15 179.05 L458.1 179.65 460.75 187.0 Q461.3 184.45 462.2 182.05 463.0 180.0 464.1 178.05 L464.25 178.7 472.45 176.8 480.85 174.6 481.6 174.55 Q485.0 174.35 487.0 177.25 491.2 183.35 491.8 190.7 L492.55 200.4 494.25 196.35 494.5 195.5 495.25 191.7 Q496.6 185.05 496.3 178.15 496.2 176.15 496.7 174.35 L497.15 173.1 497.5 173.5 503.5 173.5 509.45 173.5 511.75 173.55 516.7 174.25 Q517.75 172.75 518.4 171.0 L519.2 168.6 518.05 168.5 492.4 168.3 491.0 168.25 492.4 168.4 M524.6 176.15 L524.95 175.9 Q528.0 174.25 530.75 174.25 534.0 174.25 537.0 176.1 L538.0 175.8 541.85 175.75 539.85 174.8 Q535.75 172.85 533.55 172.85 528.3 172.85 524.0 175.1 L523.1 175.7 524.6 176.15 M548.95 171.4 Q549.55 171.05 550.35 171.0 553.65 171.45 557.15 172.6 L557.65 172.45 Q553.4 170.5 552.35 170.5 L548.8 171.1 548.95 171.4 M531.75 165.3 L527.45 164.65 Q524.75 164.7 523.1 166.75 L527.4 167.15 Q533.6 167.65 539.25 170.15 L541.65 171.35 Q542.0 170.45 543.0 169.6 541.9 168.75 540.3 168.0 L536.55 166.45 531.75 165.3 M544.55 172.9 L546.0 173.75 545.35 172.5 544.55 172.9 M564.85 181.8 L567.75 182.85 567.8 182.55 Q567.8 181.85 566.2 180.85 L564.85 181.8 M558.9 177.8 L555.45 176.65 554.85 176.9 556.5 177.85 557.0 178.3 558.9 177.8 M561.35 180.5 L561.5 180.35 561.65 180.25 560.95 180.4 561.35 180.5 M475.7 216.3 Q475.65 211.7 473.9 207.7 L470.25 219.15 Q466.75 215.5 464.7 210.85 462.95 207.0 460.75 203.4 459.75 201.75 458.2 200.95 452.85 206.45 445.15 207.5 L438.75 207.1 423.15 204.45 418.9 204.1 Q413.5 204.5 408.95 207.25 419.85 210.6 428.2 218.3 430.5 220.45 433.5 221.15 L444.55 222.2 Q451.4 222.35 458.0 224.2 465.6 226.5 471.7 231.65 475.75 224.5 475.7 216.3 M386.6 183.15 L385.4 184.35 Q388.5 189.95 388.0 196.5 389.0 193.4 389.65 190.0 390.3 186.45 388.65 183.1 L386.6 183.15 M375.65 187.0 L374.75 186.95 360.9 199.3 360.5 199.35 Q350.45 201.75 341.0 197.75 L340.05 198.45 Q334.65 202.4 331.55 208.4 328.5 214.2 327.75 220.5 326.1 234.35 330.15 247.7 L330.0 237.55 Q329.95 230.0 332.2 222.95 333.65 218.45 336.5 214.2 339.25 209.95 344.15 208.8 346.65 208.35 349.15 208.85 352.7 209.25 355.9 211.0 360.2 213.2 363.5 216.65 365.45 218.7 368.4 218.7 L370.55 217.95 Q376.15 214.55 381.35 210.5 380.2 209.45 379.55 208.2 377.4 203.95 376.2 199.35 374.6 193.15 375.65 187.0 M607.75 206.65 Q607.55 203.75 604.5 200.9 L604.0 200.5 605.0 203.05 607.25 206.15 607.8 207.05 607.75 206.65 M612.55 220.35 L614.6 221.5 612.75 217.95 612.55 220.35 M580.25 205.95 L580.15 205.9 580.25 206.05 580.25 205.95 M628.9 255.35 L626.95 247.7 626.9 249.25 Q626.8 252.9 627.1 254.9 L628.65 260.0 629.0 261.05 629.65 263.35 630.05 266.0 629.9 268.3 Q630.15 270.1 630.9 272.6 630.9 269.35 630.2 263.65 629.55 258.2 628.9 255.35 M530.5 393.8 L530.4 393.6 530.25 393.7 530.5 393.8 M579.15 329.6 L579.0 330.0 579.35 329.6 579.15 329.6 M278.2 407.45 L274.35 407.3 247.8 406.55 Q243.65 406.5 241.7 404.65 240.25 403.3 240.25 401.45 240.25 399.65 243.4 397.15 229.25 401.0 217.75 401.0 L213.8 400.55 Q212.25 400.15 211.9 399.6 212.5 399.1 218.55 398.45 L229.15 397.25 235.6 396.2 241.75 394.75 251.55 391.7 Q258.95 389.1 265.65 386.0 278.25 380.25 287.0 373.8 L294.75 367.6 Q297.2 365.2 298.6 364.15 L298.7 364.1 Q298.9 363.7 299.4 363.65 301.25 362.6 301.25 364.65 L301.15 365.0 301.75 366.4 305.0 371.65 307.6 376.7 310.65 382.25 Q313.25 386.5 317.15 403.25 317.3 404.3 316.15 404.3 L315.15 404.0 Q314.15 405.2 311.65 406.35 L308.95 407.4 308.9 407.45 Q304.9 408.65 299.65 408.65 L290.3 408.15 283.4 407.6 278.2 407.45 M493.1 408.45 L495.95 405.85 479.1 406.25 481.85 409.35 483.55 410.75 Q488.8 412.7 493.1 408.45" fill="#000000" fill-rule="evenodd" stroke="none"/>
    <path d="M518.6 174.5 L521.9 168.8 526.45 169.1 Q531.45 169.6 536.2 171.15 L532.65 170.65 Q528.0 170.65 523.5 174.0 L521.8 175.35 518.6 174.6 518.6 174.5 M492.4 168.3 L518.05 168.5 519.2 168.6 518.4 171.0 Q517.75 172.75 516.7 174.25 L511.75 173.55 509.45 173.5 503.5 173.5 497.5 173.5 497.15 173.1 496.7 174.35 Q496.2 176.15 496.3 178.15 496.6 185.05 495.25 191.7 L494.5 195.5 494.25 196.35 492.55 200.4 491.8 190.7 Q491.2 183.35 487.0 177.25 485.0 174.35 481.6 174.55 L480.85 174.6 472.45 176.8 464.25 178.7 464.1 178.05 Q463.0 180.0 462.2 182.05 461.3 184.45 460.75 187.0 L458.1 179.65 456.15 179.05 Q443.1 174.9 430.6 169.6 428.6 168.75 426.9 167.4 425.05 165.95 422.5 165.4 L421.2 165.35 419.3 165.4 Q417.85 165.8 417.4 167.35 L417.15 168.4 417.15 169.45 418.45 176.2 Q419.45 180.8 418.9 185.45 L418.7 186.6 417.45 190.15 Q416.75 191.85 415.65 193.35 L414.6 194.45 413.05 194.2 412.65 191.7 Q412.45 189.5 413.15 187.4 414.85 181.95 414.15 176.25 L413.8 174.3 413.45 173.45 412.4 171.9 Q411.05 170.2 408.95 169.9 L406.9 170.05 Q407.6 169.0 408.45 168.05 410.75 165.55 413.8 163.8 L417.45 161.45 425.2 165.2 Q435.95 170.5 447.45 174.15 453.75 176.0 460.25 176.1 L463.45 176.1 466.95 175.8 467.3 175.3 468.7 175.5 Q472.25 173.5 475.95 171.7 483.8 167.75 492.4 168.4 L492.4 168.3 M524.6 176.15 L523.1 175.7 524.0 175.1 Q528.3 172.85 533.55 172.85 535.75 172.85 539.85 174.8 L541.85 175.75 538.0 175.8 537.0 176.1 Q534.0 174.25 530.75 174.25 528.0 174.25 524.95 175.9 L524.6 176.15 M375.65 187.0 Q374.6 193.15 376.2 199.35 377.4 203.95 379.55 208.2 380.2 209.45 381.35 210.5 376.15 214.55 370.55 217.95 L368.4 218.7 Q365.45 218.7 363.5 216.65 360.2 213.2 355.9 211.0 352.7 209.25 349.15 208.85 346.65 208.35 344.15 208.8 339.25 209.95 336.5 214.2 333.65 218.45 332.2 222.95 329.95 230.0 330.0 237.55 L330.15 247.7 Q326.1 234.35 327.75 220.5 328.5 214.2 331.55 208.4 334.65 202.4 340.05 198.45 L341.0 197.75 Q350.45 201.75 360.5 199.35 L360.9 199.3 374.75 186.95 375.65 187.0 M386.6 183.15 L388.65 183.1 Q390.3 186.45 389.65 190.0 389.0 193.4 388.0 196.5 388.5 189.95 385.4 184.35 L386.6 183.15 M475.7 216.3 Q475.75 224.5 471.7 231.65 465.6 226.5 458.0 224.2 451.4 222.35 444.55 222.2 L433.5 221.15 Q430.5 220.45 428.2 218.3 419.85 210.6 408.95 207.25 413.5 204.5 418.9 204.1 L423.15 204.45 438.75 207.1 445.15 207.5 Q452.85 206.45 458.2 200.95 459.75 201.75 460.75 203.4 462.95 207.0 464.7 210.85 466.75 215.5 470.25 219.15 L473.9 207.7 Q475.65 211.7 475.7 216.3" fill="#572c5c" fill-rule="evenodd" stroke="none"/>
    <path d="M117.9 409.3 L117.4 409.25 117.8 409.1 117.9 409.3 M302.4 358.65 L302.55 358.6 302.65 358.9 302.4 358.65 M308.95 407.4 L308.95 407.45 308.9 407.45 308.95 407.4" fill="#595959" fill-rule="evenodd" stroke="none"/>
    <path d="M337.25 404.3 L338.75 409.5 Q340.25 415.5 340.25 418.1 340.25 433.75 286.35 433.75 263.45 433.75 241.1 431.25 218.8 428.75 199.75 424.0 179.2 418.9 174.85 417.45 167.35 415.0 163.3 412.6 158.5 409.8 158.5 407.0 158.5 402.25 163.5 396.1 L162.3 395.5 117.9 409.3 117.8 409.1 Q147.05 396.35 167.75 390.05 L168.55 389.85 Q170.75 388.25 175.55 386.6 179.5 385.25 190.9 382.4 198.25 380.6 207.3 378.0 215.65 375.55 219.55 374.65 L240.95 370.45 263.85 365.75 286.9 361.0 295.25 359.4 299.85 358.0 Q300.4 356.6 302.4 358.65 L302.65 358.9 305.15 362.1 Q310.35 369.4 316.3 382.05 318.55 386.45 320.55 392.95 L321.9 393.4 325.0 393.9 Q327.35 395.1 331.1 397.85 334.8 400.55 336.1 402.0 L337.25 404.3 M308.95 407.4 L311.65 406.35 Q314.15 405.2 315.15 404.0 L316.15 404.3 Q317.3 404.3 317.15 403.25 313.25 386.5 310.65 382.25 L307.6 376.7 305.0 371.65 301.75 366.4 301.15 365.0 301.25 364.65 Q301.25 362.6 299.4 363.65 298.9 363.7 298.7 364.1 L298.6 364.15 Q297.2 365.2 294.75 367.6 L287.0 373.8 Q278.25 380.25 265.65 386.0 258.95 389.1 251.55 391.7 L241.75 394.75 235.6 396.2 229.15 397.25 218.55 398.45 Q212.5 399.1 211.9 399.6 212.25 400.15 213.8 400.55 L217.75 401.0 Q229.25 401.0 243.4 397.15 240.25 399.65 240.25 401.45 240.25 403.3 241.7 404.65 243.65 406.5 247.8 406.55 L274.35 407.3 278.2 407.45 273.9 409.1 Q267.4 410.8 235.85 410.8 L174.4 412.3 183.85 414.5 Q190.85 416.6 203.25 419.0 233.2 424.6 250.6 426.2 L286.25 427.35 Q309.65 427.35 322.6 424.4 333.75 421.85 333.75 418.05 L333.2 414.8 332.5 410.75 Q332.35 408.9 331.6 407.1 L329.1 409.55 Q324.05 414.05 317.6 415.5 315.7 416.0 313.75 415.15 310.9 414.0 310.7 410.8 310.55 408.75 308.95 407.45 L308.95 407.4" fill="#3c3c3c" fill-rule="evenodd" stroke="none"/>
    <path d="M500.95 177.55 L501.4 179.05 Q501.4 180.3 499.8 184.75 501.2 184.8 501.55 186.25 L501.65 188.2 Q501.65 189.95 501.25 192.0 L500.4 196.0 499.3 199.75 498.2 201.6 496.75 203.4 496.05 202.65 496.5 202.55 496.65 201.4 496.45 200.7 Q496.3 200.1 496.4 199.3 496.55 198.6 496.3 197.5 L494.6 202.5 Q493.8 204.9 492.15 204.9 491.1 204.9 490.75 204.4 L490.35 203.75 Q489.8 203.4 489.1 203.4 488.6 203.4 488.3 203.05 487.8 202.45 487.8 201.3 487.8 200.35 488.9 196.8 L490.1 193.0 Q488.35 192.5 487.95 191.9 487.8 191.65 487.8 190.65 L487.85 189.45 488.5 187.9 487.15 187.5 Q486.1 187.25 485.65 186.9 485.05 186.45 485.05 185.55 485.05 184.4 485.8 183.15 L487.5 180.75 485.5 181.1 483.9 181.35 Q482.25 181.35 481.75 180.45 L481.55 179.45 Q481.55 178.5 482.15 177.55 L477.5 178.5 Q473.1 179.4 469.1 180.9 L464.4 181.75 464.5 183.25 464.45 184.85 Q464.25 185.55 463.25 186.6 461.75 187.7 461.4 188.3 461.35 188.9 460.95 189.1 L457.4 189.35 Q456.45 189.35 455.35 188.55 454.3 187.75 453.3 187.75 448.15 187.75 440.7 190.5 433.2 193.25 432.25 193.25 431.05 193.25 429.8 192.15 428.55 191.0 427.0 191.0 424.6 191.0 420.85 195.0 417.1 199.0 414.95 199.0 413.4 199.0 413.0 197.7 L412.9 196.35 412.4 195.35 412.3 195.35 Q410.95 195.35 410.5 194.4 L410.35 193.35 Q410.35 192.5 411.55 188.65 L412.75 184.9 Q410.15 180.5 410.15 179.5 410.15 178.45 410.95 177.85 412.0 177.15 413.5 178.9 L414.7 180.95 Q415.5 182.5 415.75 182.5 L417.35 182.3 Q416.65 180.55 416.15 177.35 L415.55 170.65 Q415.55 164.1 419.1 163.25 421.25 162.75 423.4 164.0 L426.5 165.9 429.25 167.6 432.4 169.65 Q435.4 171.2 439.1 172.5 L446.55 174.85 454.6 176.55 463.55 177.75 468.7 176.7 476.95 174.4 Q490.05 171.0 502.85 171.0 512.35 171.0 524.3 173.55 536.4 176.15 541.55 179.4 L552.5 186.0 558.2 189.35 Q560.5 191.0 560.5 192.5 L560.15 193.25 559.35 194.3 559.2 194.2 559.3 194.0 Q555.5 192.25 549.05 188.35 541.75 183.95 538.5 182.3 533.5 179.8 529.0 178.6 L517.85 176.35 508.1 175.0 501.0 175.05 501.0 175.25 500.75 175.9 500.5 176.55 500.95 177.55 M419.25 170.8 L419.65 176.8 420.15 177.85 421.1 180.0 Q422.4 180.05 422.85 181.05 L423.0 182.15 Q423.0 184.5 419.65 188.95 L420.2 189.3 420.6 189.75 422.3 188.4 Q423.8 187.05 426.35 187.05 428.5 187.05 430.8 188.1 L432.7 189.1 440.2 186.45 Q447.95 183.8 453.6 183.8 455.0 183.8 456.25 184.35 457.45 184.9 457.75 185.55 L458.3 185.55 458.3 183.6 458.15 182.05 Q458.15 181.6 458.3 181.25 L448.05 179.45 Q443.15 178.45 438.3 176.5 L433.75 174.7 Q431.3 173.65 428.9 172.1 L424.6 169.2 Q421.3 167.0 420.45 167.0 419.85 167.0 419.5 168.85 419.3 169.8 419.25 170.8 M444.55 184.8 L444.0 184.6 Q444.9 183.85 446.75 184.1 446.25 184.5 445.4 184.7 L444.55 184.8 M451.05 182.65 L451.0 183.5 450.35 183.75 450.05 183.7 450.0 183.3 Q450.0 182.75 451.0 182.75 L451.05 182.65 M477.25 207.75 Q477.85 210.85 477.85 213.25 477.85 216.1 477.0 220.1 476.3 223.55 475.25 225.15 478.75 226.7 479.6 227.2 481.35 228.3 481.35 229.7 L481.1 230.85 Q480.7 231.75 479.9 231.75 479.6 231.75 476.15 230.0 L475.05 229.45 Q474.85 230.25 473.85 230.85 474.5 231.95 475.65 233.0 476.35 233.65 476.35 234.3 L476.1 235.35 Q475.65 236.25 474.9 236.25 473.0 236.25 471.2 234.3 L469.3 231.75 468.25 230.35 Q467.9 230.0 466.45 229.9 L464.75 229.75 Q463.85 229.4 462.6 228.65 L460.4 227.5 458.05 226.5 459.0 228.35 456.0 227.15 451.65 225.6 443.8 222.85 443.25 224.0 442.6 224.65 440.0 224.65 439.5 225.85 Q439.2 226.5 438.35 226.5 437.15 226.5 434.05 225.45 L430.35 224.3 427.4 224.4 423.4 224.1 Q422.35 223.9 422.2 223.3 L422.15 222.3 Q422.15 219.65 426.8 220.0 L421.8 217.0 Q418.8 215.3 415.75 214.0 408.05 210.35 407.15 208.75 L398.35 208.2 Q398.1 207.45 396.4 207.1 L394.0 206.45 392.55 206.25 385.5 206.85 385.7 207.15 386.05 208.0 Q386.05 209.1 384.7 210.25 L381.85 212.5 381.85 212.55 Q383.15 212.5 383.9 212.0 383.55 213.05 383.55 213.5 383.55 214.3 383.05 214.75 L379.75 217.55 Q379.0 218.15 376.1 218.65 L373.0 219.05 370.65 220.35 Q368.8 221.5 368.0 221.5 366.4 221.5 365.95 220.7 L365.5 219.9 Q364.45 219.9 363.75 220.25 364.2 220.7 367.4 222.5 368.25 222.95 369.55 222.5 370.5 222.2 371.25 223.25 371.6 223.6 371.6 224.05 L371.25 224.95 Q370.8 225.35 370.25 225.35 363.5 225.35 360.3 221.5 359.35 220.4 358.7 220.65 357.65 221.1 356.5 220.65 355.45 220.25 355.2 219.7 355.05 219.45 355.05 218.8 355.05 217.45 356.95 216.35 L357.6 216.0 357.35 215.75 Q357.05 215.5 356.0 215.2 L354.35 214.75 Q353.4 214.35 353.15 213.65 L353.05 212.55 353.1 211.3 353.3 210.95 353.15 210.9 Q346.3 208.5 345.3 208.5 343.9 208.5 341.2 210.05 340.75 210.35 338.25 212.0 336.8 212.95 335.6 215.5 L334.05 219.1 332.55 222.65 Q332.0 223.9 331.4 229.2 330.8 234.15 330.8 236.65 L331.35 242.0 Q331.5 243.65 332.1 244.6 L333.35 246.15 333.85 247.05 Q333.85 247.65 333.25 248.4 332.5 249.25 331.5 249.25 328.65 249.25 327.5 243.35 326.9 240.2 326.9 236.75 326.9 233.05 327.5 228.15 328.2 222.55 329.15 220.4 L330.8 216.4 Q331.85 213.85 333.0 212.15 334.55 209.95 337.65 207.65 341.8 204.55 345.25 204.55 347.25 204.55 354.0 206.6 354.75 206.9 357.1 208.15 L359.4 208.9 364.15 208.3 Q370.95 205.55 372.75 204.6 375.65 203.05 377.8 200.05 379.7 197.5 381.25 197.95 382.55 198.35 382.55 199.8 L382.35 200.65 381.65 201.65 382.2 202.25 384.9 201.75 Q387.2 201.65 387.95 202.75 L393.2 202.4 Q396.2 202.6 400.15 204.5 408.95 204.35 413.75 204.8 420.9 205.4 425.5 207.5 L431.2 210.25 432.1 210.7 435.25 212.05 436.85 212.65 Q441.85 214.35 453.0 215.35 461.55 216.05 465.75 219.35 469.3 222.15 471.85 223.6 L472.7 220.85 Q474.0 216.65 474.0 213.3 L473.65 210.4 473.25 207.5 Q473.25 205.5 474.9 204.95 476.6 204.45 477.25 207.75 M443.95 218.7 L444.05 218.5 442.4 218.3 443.95 218.7 M438.75 217.5 L437.85 217.2 438.2 217.45 Q439.15 218.1 441.3 218.1 L438.75 217.5" fill="#000000" fill-opacity="0.101960786" fill-rule="evenodd" stroke="none"/>
    <path d="M497.95 168.0 L497.9 167.65 497.8 167.65 Q497.65 167.7 497.95 168.0 M505.4 159.55 Q527.7 159.55 550.1 163.6 566.7 166.65 575.3 170.0 583.5 173.15 589.75 178.35 L600.3 187.55 Q608.7 194.2 615.95 205.25 L626.8 222.8 Q631.75 230.0 632.55 240.75 L632.95 249.65 Q633.15 255.0 633.8 258.5 636.2 271.6 636.8 277.9 637.3 283.25 637.3 293.5 637.3 300.1 636.95 302.8 636.45 306.55 634.4 313.55 632.4 320.3 631.7 323.25 630.3 329.1 630.3 333.4 630.3 335.6 632.05 346.8 633.8 358.0 633.8 359.85 633.8 363.85 631.65 369.4 630.15 373.15 627.15 378.8 623.5 385.7 617.4 390.6 L616.25 391.5 Q615.05 399.6 603.45 401.1 L593.8 401.55 Q588.8 401.6 587.8 402.25 L-2.5 402.3 Q-10.6 403.25 -13.35 401.05 -14.2 400.35 -14.45 399.4 L-14.5 398.5 Q-14.5 396.7 -13.15 395.8 L-12.85 395.65 Q-13.6 392.05 -13.75 385.75 L-13.5 362.75 -13.5 301.25 -13.65 295.35 -13.5 289.25 -13.65 282.85 -14.3 282.9 -20.0 283.3 Q-23.5 283.15 -24.55 281.7 -25.1 280.95 -25.1 279.35 -25.1 277.1 -22.4 276.0 -18.75 274.55 -9.5 274.55 -4.45 274.55 -1.6 275.45 L10.6 276.3 Q20.1 276.3 33.7 274.2 47.35 272.05 75.5 272.05 114.0 272.05 128.75 273.2 L146.25 275.8 176.0 280.55 Q183.9 281.85 199.35 285.1 L223.25 289.8 Q254.5 295.3 271.75 299.3 L288.4 304.2 Q303.9 308.3 313.85 308.3 318.6 308.3 319.65 307.0 L322.25 300.75 Q322.75 299.5 324.15 296.8 L326.05 292.8 329.85 283.7 Q330.05 282.95 330.05 277.25 330.05 272.65 329.4 268.55 L327.75 258.3 Q327.5 256.7 326.3 253.6 L324.5 249.0 323.55 246.3 Q323.0 244.65 323.05 244.05 L323.15 241.8 323.05 239.75 Q323.05 236.25 323.95 226.95 L325.05 215.55 Q325.25 212.95 326.65 209.7 328.05 206.55 330.3 203.55 336.4 195.5 342.25 194.45 L352.85 194.8 Q358.75 194.8 362.75 192.0 364.8 190.55 366.4 188.5 367.85 187.3 371.1 185.5 374.25 183.8 376.8 182.75 378.95 181.85 384.2 180.05 L391.65 177.55 Q397.65 175.45 401.9 176.95 402.95 174.5 405.15 170.9 409.3 164.15 411.8 162.55 417.0 159.2 422.35 159.25 426.4 159.35 432.35 161.6 L443.3 165.75 Q450.25 168.0 456.65 168.0 463.65 168.0 467.8 166.1 L471.55 163.5 Q475.4 160.45 480.35 160.55 L490.35 161.3 Q494.35 161.3 495.7 160.45 497.0 159.55 505.4 159.55 M-6.25 282.85 L-6.0 282.8 -6.3 282.8 -6.25 282.85" fill="#96c675" fill-opacity="0.101960786" fill-rule="evenodd" stroke="none"/>
    <path d="M526.15 165.75 L531.0 166.05 Q532.9 166.5 534.05 168.3 528.4 171.75 519.4 171.75 514.55 171.75 511.85 169.15 510.05 166.5 509.4 166.5 L504.15 167.05 492.4 168.5 486.45 169.35 482.55 170.05 Q480.5 170.05 479.95 169.05 479.8 168.75 479.8 167.85 479.8 164.35 488.55 163.05 L502.8 161.3 508.8 160.4 Q512.35 160.55 514.8 163.5 L516.25 164.95 517.55 166.0 526.15 165.75 M513.55 197.35 L513.05 196.8 Q513.4 196.6 514.3 197.5 L513.55 197.35 M549.4 169.75 L546.65 169.25 546.5 169.0 Q546.3 168.85 546.3 168.1 L546.4 167.05 Q548.4 166.95 550.65 168.25 550.65 169.75 549.4 169.75 M584.9 180.35 Q587.0 181.15 587.3 181.5 L589.9 184.05 592.85 186.95 Q593.9 188.0 593.9 188.9 L593.55 190.05 Q592.9 191.0 591.3 191.0 589.9 191.0 587.45 189.1 L584.8 186.75 Q584.15 186.0 581.25 184.75 578.25 183.45 577.8 183.05 577.1 182.45 576.1 180.55 L574.8 178.25 571.85 175.25 Q570.65 174.2 570.65 173.5 570.65 171.95 573.2 172.35 575.65 172.75 577.3 174.25 578.55 174.85 579.55 176.65 580.6 178.5 582.55 179.5 L584.9 180.35 M603.65 195.3 Q603.4 195.8 602.55 195.8 600.5 195.8 599.8 194.25 L599.55 192.85 Q599.55 190.75 601.7 191.25 603.8 191.75 603.8 193.9 L603.65 195.3 M369.3 194.3 L368.3 194.2 367.9 193.8 367.55 193.5 374.8 187.05 376.8 185.75 379.15 184.3 Q381.55 182.5 389.45 182.7 L398.3 183.0 Q401.95 182.15 404.55 180.1 L408.2 176.55 Q410.05 174.6 411.65 174.05 L417.55 174.3 Q416.7 175.3 413.4 177.25 410.0 179.3 408.9 180.5 L406.3 183.4 Q404.05 185.55 402.05 186.25 398.65 187.4 390.9 185.65 384.4 184.2 380.9 187.25 L377.05 189.5 373.85 192.3 Q371.45 194.3 369.3 194.3 M421.25 170.7 L421.15 170.1 Q421.15 165.15 437.05 170.05 440.1 171.5 447.6 173.6 453.55 175.75 453.55 178.8 453.55 181.25 450.15 182.15 L445.9 183.05 Q451.2 181.35 458.3 187.35 462.05 190.5 466.65 195.05 L465.95 195.4 464.9 195.55 Q463.15 195.55 460.05 193.75 L454.15 189.8 Q453.35 189.2 450.45 188.85 L444.85 188.25 Q437.55 187.2 437.55 183.75 437.55 181.85 439.05 180.5 440.8 178.85 444.3 178.25 437.1 175.35 431.15 173.3 L426.9 171.7 Q425.45 171.2 423.55 171.25 421.75 171.3 421.25 170.7 M406.65 218.2 L404.05 221.55 408.3 226.85 Q410.75 229.95 412.8 231.75 L418.8 236.4 425.65 241.5 423.9 241.75 Q420.1 241.75 414.25 237.45 410.6 234.75 407.15 231.25 L400.55 225.35 Q398.15 223.1 398.15 219.85 398.15 219.55 398.6 218.8 L399.8 217.25 399.9 217.05 394.9 216.0 Q391.15 216.0 384.8 218.25 L379.05 220.5 Q377.85 220.5 377.05 220.0 376.15 219.4 376.15 218.25 376.15 215.65 380.9 213.45 384.95 211.5 391.3 210.3 396.3 209.3 401.55 210.85 407.4 212.55 407.4 216.3 407.4 217.3 406.65 218.2 M361.85 200.4 L362.05 201.35 Q362.05 204.25 357.75 206.15 352.75 208.45 343.9 208.25 339.0 208.1 336.25 212.0 334.4 214.6 334.4 216.6 334.4 217.25 335.05 217.75 335.65 218.25 335.65 218.85 335.65 219.5 335.05 220.25 334.25 221.25 332.9 221.25 331.25 221.25 330.55 217.9 L330.15 214.35 Q330.15 212.25 331.8 209.15 333.75 205.6 336.3 204.55 339.35 203.3 361.65 200.05 L361.85 200.4 M325.35 319.1 Q324.45 320.25 321.05 322.5 L325.7 327.55 Q328.65 330.7 328.65 332.35 L328.0 334.8 Q327.3 336.95 327.15 337.8 L326.9 338.05 326.4 335.85 325.55 333.75 Q325.25 333.2 323.15 331.85 321.0 330.45 320.55 329.8 318.75 327.2 316.05 324.85 314.8 323.8 314.8 321.55 314.8 320.6 315.65 319.1 316.65 317.4 317.8 317.25 L318.05 317.05 Q296.1 312.75 294.8 312.25 292.05 311.15 279.45 310.85 L266.3 310.5 262.2 309.2 Q260.5 308.6 258.8 307.55 252.55 303.85 237.9 300.1 L221.25 296.05 Q221.25 295.9 221.4 295.85 L221.5 295.75 233.8 298.2 246.8 301.0 256.25 303.7 Q261.9 305.4 264.5 305.75 268.9 306.25 281.7 306.0 L297.5 306.5 Q299.95 306.95 301.65 307.55 L311.0 308.8 Q318.9 309.55 322.8 311.8 326.05 313.65 326.05 316.1 326.05 318.1 325.35 319.1 M614.75 215.95 L614.55 216.75 614.15 216.75 614.05 215.25 614.55 215.25 614.75 215.95 M578.25 218.5 L578.4 219.5 Q578.4 220.85 576.4 221.3 L575.35 220.4 Q574.9 219.95 574.9 219.6 574.9 217.4 578.05 218.25 L578.25 218.5 M543.05 237.55 L543.15 238.35 542.85 239.55 542.4 240.0 Q541.4 240.05 540.75 239.55 540.15 239.1 540.15 238.4 540.15 237.8 540.8 237.5 541.55 237.1 542.9 237.5 L543.05 237.55 M499.3 221.0 L498.9 221.5 Q497.45 221.25 497.05 220.65 496.8 220.25 496.9 219.25 L498.05 219.3 Q498.95 219.6 499.8 220.3 L499.3 221.0 M84.4 278.35 L84.5 278.25 94.35 280.0 Q99.75 281.1 102.5 281.0 L110.35 280.65 116.5 281.05 Q118.95 281.45 122.0 282.45 L128.0 284.0 138.9 284.5 Q143.3 284.4 147.25 287.05 L145.25 287.8 143.25 288.25 127.55 287.7 Q126.65 287.2 125.8 286.85 124.2 286.2 120.5 285.55 L116.2 284.2 111.25 282.8 84.25 278.55 Q84.25 278.4 84.4 278.35 M17.5 281.0 L21.2 280.2 26.5 279.25 Q29.1 279.0 32.0 280.0 L32.05 279.8 32.05 280.5 Q32.05 282.0 30.25 282.8 L25.5 284.3 Q23.4 285.0 20.55 286.75 18.8 287.8 16.5 287.8 13.55 287.8 11.25 286.95 8.8 286.05 7.5 286.0 5.4 285.85 2.45 286.05 L-1.0 286.3 Q-4.6 286.3 -4.6 283.35 -4.6 281.45 -1.35 280.25 1.9 279.05 7.25 279.05 9.55 279.05 12.55 280.05 15.55 281.0 17.5 281.0 M56.0 278.8 L50.5 279.6 48.5 280.0 Q46.55 280.0 46.45 279.6 46.55 278.85 46.05 278.05 L52.4 277.3 59.75 277.05 Q57.7 277.25 56.7 278.05 L56.0 278.8 M74.25 286.5 Q74.15 286.5 74.2 286.65 L73.5 286.8 71.3 286.75 71.2 286.3 Q71.05 286.0 71.05 285.25 71.05 283.6 72.4 283.6 73.8 283.6 74.3 285.5 L74.25 286.5 M27.1 308.8 Q26.2 310.3 25.0 310.3 21.6 310.3 20.5 308.45 L20.05 306.5 Q20.05 302.55 23.95 302.75 27.8 303.0 27.8 306.35 27.8 307.55 27.1 308.8 M81.75 307.0 Q79.05 305.85 78.75 305.3 80.05 302.25 82.75 305.5 L81.75 307.0 M182.75 292.35 L196.25 293.05 194.5 293.5 Q180.7 293.5 174.05 292.05 170.2 291.2 169.25 290.0 L169.75 289.8 Q173.2 291.7 182.75 292.35 M211.8 295.5 Q215.25 296.15 215.25 297.75 215.25 298.75 213.25 300.2 211.25 301.7 211.25 303.25 L212.9 304.5 Q214.55 305.75 214.8 307.5 214.7 308.25 214.0 308.3 L210.3 305.8 Q209.0 304.7 209.0 303.25 209.0 302.85 210.15 300.85 211.3 298.8 211.8 298.3 209.45 297.9 207.45 297.0 205.8 296.2 205.25 295.5 208.55 294.9 211.8 295.5 M226.8 321.55 L226.95 321.8 227.05 322.65 227.0 323.4 226.8 323.8 227.0 324.05 Q227.1 324.25 226.3 324.25 225.5 324.25 224.75 323.75 L223.8 323.0 Q223.65 321.75 224.35 321.55 224.75 321.4 226.8 321.55" fill="#ffffff" fill-opacity="0.101960786" fill-rule="evenodd" stroke="none"/>
  </g>
</svg>
