<?xml version="1.0" encoding="UTF-8" standalone="no"?>
<svg xmlns:xlink="http://www.w3.org/1999/xlink" height="312.0px" width="899.55px" xmlns="http://www.w3.org/2000/svg">
  <g transform="matrix(1.0, 0.0, 0.0, 1.0, 451.15, -138.75)">
    <path d="M324.3 142.45 L323.65 139.8 Q323.65 137.3 326.55 140.65 329.15 143.6 330.95 147.05 L334.0 151.8 Q336.0 154.85 336.65 156.65 339.0 162.85 340.6 168.2 L340.95 159.2 Q340.95 156.4 340.35 153.95 L339.7 151.0 339.8 150.5 Q340.85 150.2 341.55 151.75 L342.8 154.25 345.3 159.15 347.7 164.05 349.55 168.9 Q350.95 172.7 351.55 178.55 L352.6 174.55 Q353.15 171.8 353.35 168.05 L353.55 161.5 Q355.3 161.85 356.1 164.6 L357.3 169.0 358.05 173.2 358.7 177.4 Q359.1 180.8 359.2 185.95 L359.35 194.5 359.35 194.55 Q360.55 190.65 365.0 183.15 369.8 175.0 371.6 175.0 L372.05 175.1 372.3 175.3 372.35 176.15 371.45 181.4 370.4 187.5 369.55 195.15 369.8 194.8 371.6 193.0 373.55 190.95 Q374.85 189.75 376.35 189.75 L376.45 190.4 Q376.45 192.05 373.55 201.75 L370.55 213.0 Q371.9 211.4 374.9 209.7 379.5 207.1 384.25 207.1 386.85 207.1 386.85 209.05 L385.55 211.9 383.95 215.25 383.95 215.3 Q386.3 216.25 391.9 219.4 399.05 223.4 399.05 224.65 L396.65 228.4 Q394.0 232.45 393.05 234.6 392.1 236.8 389.3 244.55 L389.3 244.75 393.05 242.55 Q396.3 240.8 397.7 240.8 399.15 240.8 399.6 241.55 L399.8 242.35 397.15 247.15 Q394.3 252.9 393.35 258.3 L393.4 258.35 396.4 253.8 Q398.6 250.95 401.9 249.9 L403.15 247.4 403.8 248.05 401.1 253.85 397.5 261.15 Q400.1 258.3 405.8 254.2 411.65 250.0 413.15 250.0 L413.7 250.1 413.9 250.2 413.95 250.55 410.8 255.85 Q407.0 262.2 404.7 266.55 L404.65 266.75 412.15 259.4 Q417.75 254.1 419.05 254.1 L419.7 254.25 419.8 254.35 419.85 254.8 416.7 260.85 412.55 268.15 410.5 271.35 408.35 274.75 407.65 276.15 412.35 271.25 Q418.75 264.7 422.7 264.25 L422.8 264.4 422.85 264.85 420.0 269.3 415.85 275.5 417.45 277.05 419.1 278.5 423.7 280.75 Q424.65 281.3 426.6 283.75 427.2 284.4 428.5 285.1 429.35 285.6 429.35 286.3 429.35 288.2 422.95 295.3 L420.1 299.0 420.15 299.15 419.8 299.5 421.85 302.6 Q424.25 306.05 425.4 309.0 L426.35 311.4 427.05 313.75 427.3 318.3 427.15 321.5 428.3 320.5 430.5 318.6 Q432.35 317.3 434.45 317.65 L434.55 318.65 Q434.55 321.3 429.4 328.55 L424.95 335.75 425.65 336.0 Q427.55 336.75 430.05 336.75 434.2 336.75 441.3 335.0 L444.65 333.7 Q447.65 332.9 447.65 334.5 447.65 335.0 443.65 340.6 L440.95 343.35 Q438.4 345.6 437.7 346.4 435.65 348.8 428.55 352.4 421.25 356.1 417.85 356.25 L417.4 356.4 420.75 356.65 427.5 356.2 431.85 355.75 Q433.45 355.75 433.45 356.7 L429.8 361.35 427.75 363.6 425.6 365.85 Q423.3 368.6 417.25 371.6 413.7 373.4 410.6 374.5 411.85 376.55 412.05 377.85 L412.15 380.9 412.05 385.15 Q411.8 386.45 409.95 390.0 408.45 392.9 406.2 394.55 404.4 396.0 403.15 396.25 L387.5 397.1 Q379.0 397.1 373.05 395.6 L360.4 392.45 358.4 393.25 347.8 396.85 339.55 399.35 331.85 400.75 322.05 402.15 316.55 402.85 302.4 402.8 295.85 402.55 279.25 403.1 270.3 403.65 245.8 403.8 Q240.35 403.75 234.4 404.0 L229.15 404.25 219.1 404.15 215.8 406.25 Q212.4 408.2 210.35 408.95 207.05 410.2 201.95 410.25 L201.35 412.6 198.8 420.75 Q196.2 426.6 191.25 430.9 176.95 443.25 143.0 443.25 L77.9 442.1 61.2 441.4 44.0 441.0 3.9 439.85 -23.4 438.85 -38.75 438.0 -54.75 436.75 Q-65.8 435.25 -89.75 435.8 L-118.9 436.6 Q-132.05 436.6 -141.75 432.25 -166.6 432.75 -177.95 433.25 -179.75 439.0 -180.0 440.6 -180.35 442.45 -180.4 445.65 L-180.35 449.4 -180.5 450.4 -180.55 450.6 -181.5 450.75 -183.1 450.5 -183.25 446.35 Q-182.4 439.75 -180.85 433.35 L-181.0 433.35 -201.6 434.6 Q-218.55 435.25 -261.85 435.25 -296.95 435.25 -314.8 434.3 -336.2 433.15 -369.4 429.0 L-387.95 426.2 Q-395.3 424.85 -403.75 422.75 -427.8 416.65 -437.2 407.35 -442.85 401.7 -444.0 393.5 -446.15 387.45 -446.75 386.15 -448.85 381.5 -449.65 376.25 -450.25 372.3 -450.25 366.65 -450.25 342.85 -435.15 318.95 -428.55 308.5 -421.05 300.7 L-429.0 305.8 -429.6 305.65 Q-423.25 299.15 -419.25 296.3 -415.35 293.55 -410.65 291.4 -408.35 289.65 -406.0 288.15 L-405.45 288.35 -405.25 289.25 -401.25 288.0 -396.65 286.6 -394.3 286.15 -394.3 284.8 -376.15 285.35 Q-373.9 283.1 -373.0 282.55 L-368.1 280.45 Q-367.5 280.2 -366.95 279.4 L-366.15 278.1 Q-364.9 276.35 -363.85 275.9 L-355.9 275.55 -355.7 275.75 -355.6 276.0 -353.95 272.55 Q-352.05 269.6 -349.1 268.95 L-344.0 267.6 -336.45 266.25 Q-333.55 266.05 -329.75 267.05 -326.7 267.9 -325.75 268.65 -323.8 267.45 -319.6 267.05 -313.55 266.5 -312.7 265.8 -311.5 264.8 -309.35 263.75 -305.8 261.95 -302.65 261.95 -300.0 261.95 -297.9 263.25 -295.8 264.5 -294.25 264.5 -291.6 264.5 -290.85 263.9 L-289.7 263.0 Q-288.45 262.65 -287.8 262.1 L-282.0 261.4 Q-279.1 260.2 -275.1 262.35 L-273.35 263.4 -271.55 263.35 -256.6 264.25 -253.65 265.15 -249.65 264.6 Q-245.05 263.05 -238.25 265.85 L-230.65 269.0 Q-229.35 269.0 -224.7 267.45 -220.2 265.9 -218.35 265.9 -216.45 265.9 -213.2 267.45 -209.35 269.15 -204.25 269.75 -198.7 270.4 -196.2 273.2 -196.2 272.3 -195.25 271.45 -193.2 269.85 -188.05 269.85 -183.9 269.85 -180.15 271.0 -177.9 271.7 -173.0 273.45 L-167.5 275.15 -167.0 275.35 -154.95 272.9 -154.95 273.35 -151.2 273.5 -127.0 277.35 -103.0 281.15 Q-86.9 283.9 -82.35 285.1 -66.45 289.5 -55.8 293.95 -52.05 295.5 -41.7 300.5 L-29.75 299.85 -5.95 302.3 24.25 303.85 Q37.55 304.15 42.2 307.1 L45.7 310.0 Q47.9 312.0 50.35 313.25 52.25 314.2 57.95 318.95 L58.8 319.65 71.8 320.8 76.8 321.45 77.3 321.0 Q80.3 318.2 81.05 315.75 81.45 314.65 81.95 310.95 L82.45 305.25 79.7 288.3 Q76.95 272.2 76.95 265.3 76.95 263.7 78.2 259.55 L79.7 255.1 Q82.15 250.75 87.65 248.35 91.85 246.5 95.55 246.5 99.4 246.5 103.2 248.05 106.95 249.6 108.2 249.6 111.05 249.6 113.05 247.65 L115.8 243.9 117.2 240.9 Q117.95 238.95 118.55 238.05 L119.95 235.15 Q120.95 233.25 122.8 232.25 L124.7 231.35 127.5 231.7 128.6 232.0 129.0 231.6 131.3 229.25 Q132.15 228.3 133.7 227.45 136.1 226.15 138.8 226.15 140.5 226.15 142.75 227.4 145.05 228.65 148.35 228.65 149.35 228.65 150.6 226.8 L151.6 225.55 151.9 224.9 152.85 222.7 153.65 220.4 154.8 217.75 155.15 216.65 155.4 215.6 155.6 214.75 155.7 214.8 156.3 212.25 Q156.75 209.45 157.8 207.15 158.45 205.7 159.5 204.55 160.95 203.0 162.7 202.75 L170.1 203.0 174.4 205.9 180.7 209.45 Q184.4 211.35 190.55 212.85 L203.2 216.6 Q211.95 219.3 214.1 219.3 L221.1 218.8 221.6 219.05 222.35 218.75 223.15 217.9 223.85 216.9 225.3 215.1 Q226.4 213.65 227.15 213.15 L231.15 210.45 Q233.85 209.05 239.05 208.0 243.95 207.95 249.0 209.0 L255.8 210.75 257.75 211.1 270.6 211.6 280.2 212.0 283.45 212.35 292.65 214.0 305.45 217.15 306.95 217.6 307.3 215.85 307.8 213.0 Q307.8 201.75 306.05 194.0 L305.0 189.2 Q304.25 186.45 302.9 184.35 L300.1 179.65 Q296.2 175.9 296.2 175.05 L296.3 174.25 Q303.55 176.1 309.75 181.65 314.0 185.4 315.55 188.75 L315.65 188.15 314.15 180.9 Q312.9 175.8 310.6 172.1 L309.9 170.0 309.05 167.75 306.6 163.5 Q305.95 162.15 303.3 158.55 L300.85 155.1 300.9 154.5 301.9 154.3 Q303.1 154.3 306.25 156.85 L310.95 161.0 314.5 164.2 Q316.8 166.3 317.3 167.6 L317.4 167.6 316.75 162.25 Q316.35 159.15 315.3 156.9 L313.05 151.5 311.5 148.55 310.2 146.15 310.3 145.65 Q312.85 146.2 316.25 149.5 L320.2 153.8 Q323.5 159.05 324.5 162.0 L324.8 157.5 325.15 151.4 324.9 145.5 324.3 142.45 M331.3 243.95 Q330.75 242.6 328.8 241.4 L324.85 239.25 Q322.9 238.05 322.9 236.95 322.9 236.35 323.35 235.65 L323.8 234.5 Q323.8 233.1 319.5 231.05 315.2 228.95 315.2 227.7 315.2 227.05 316.75 225.95 L319.65 224.3 Q317.15 222.75 312.8 220.95 L305.1 218.75 293.7 215.75 Q285.65 213.8 276.4 213.45 L255.95 212.5 249.8 211.0 Q243.6 209.5 241.2 209.5 237.0 209.5 232.95 211.6 L234.9 211.55 Q237.15 211.85 239.05 212.75 240.1 213.25 241.65 214.25 243.45 215.25 245.15 217.75 246.55 219.85 247.3 222.0 L250.25 230.35 Q251.55 234.6 251.55 238.35 251.55 241.2 250.4 246.45 L249.5 250.05 249.55 250.65 249.35 250.85 Q253.05 249.0 256.45 243.2 258.7 239.3 259.8 235.9 262.2 228.25 262.8 220.5 L262.9 220.5 Q263.8 219.4 267.0 219.9 269.8 220.4 270.7 221.05 L275.6 223.25 Q277.95 224.05 280.35 226.05 L284.3 229.4 Q287.1 231.5 292.2 236.05 297.45 240.0 304.9 242.35 L315.8 245.8 Q321.3 247.7 327.3 250.75 333.65 253.95 337.85 257.35 L339.75 259.0 338.65 256.8 Q337.95 255.5 335.05 251.75 332.6 248.55 331.95 246.5 L331.3 243.95 M160.45 211.85 Q162.2 211.85 163.9 214.4 165.35 216.5 165.65 218.25 L166.1 222.05 166.3 224.75 166.2 228.9 Q166.05 230.55 165.15 233.5 L165.3 233.75 Q167.05 233.15 167.55 231.6 L167.95 229.25 168.35 226.9 168.7 224.5 168.35 215.15 Q168.35 212.95 168.5 212.25 168.9 210.4 170.3 209.75 L170.35 209.75 170.55 209.6 Q171.55 209.05 173.85 209.6 L176.65 210.5 Q177.7 210.8 178.55 211.45 L180.2 212.75 182.0 213.5 184.4 214.75 Q189.3 218.75 194.6 220.75 199.15 222.5 203.1 222.5 L206.8 222.25 212.65 221.8 215.65 222.15 218.5 222.5 Q223.7 222.5 226.55 216.75 L226.9 216.1 Q222.6 220.4 221.75 220.4 L221.05 220.35 220.4 220.6 219.65 220.5 Q218.45 220.5 217.85 220.9 L217.75 220.95 214.1 221.05 213.55 221.05 211.0 220.45 210.6 220.6 204.9 218.95 198.8 216.85 184.15 212.8 Q181.85 212.1 179.65 210.8 L176.05 208.6 Q169.3 204.1 168.45 204.1 163.75 204.1 162.2 204.85 159.35 206.2 158.3 211.1 L157.95 213.05 Q159.15 211.85 160.45 211.85 M135.95 228.35 L135.6 235.15 135.3 242.35 135.3 242.4 Q140.3 232.1 143.15 229.5 L142.35 229.15 Q140.2 227.8 139.55 227.8 137.6 227.8 135.95 228.35 M125.45 233.35 Q123.7 233.35 122.4 235.4 L120.95 238.15 119.7 240.45 118.35 243.0 Q115.0 248.45 113.55 249.8 111.6 251.6 108.2 251.6 107.0 251.6 102.8 250.05 98.65 248.5 95.55 248.5 90.5 248.5 85.2 251.9 84.1 252.65 82.85 254.15 L81.35 256.25 81.05 257.05 Q82.65 264.0 88.95 271.6 L92.0 275.55 92.25 275.7 Q93.85 276.85 94.8 276.85 95.85 276.85 96.55 274.85 L97.05 272.8 Q97.05 271.95 96.05 269.15 95.3 267.0 95.15 265.45 L95.0 264.95 94.8 262.25 Q94.8 254.35 99.75 252.8 L100.6 252.05 104.2 251.65 Q105.2 251.65 109.1 252.8 112.65 252.8 114.25 251.95 116.15 250.9 117.85 247.65 L118.8 244.8 Q119.45 243.3 120.95 242.85 L121.05 242.85 121.35 242.75 121.35 242.9 123.7 246.55 Q126.25 250.65 127.3 251.9 L127.35 251.9 Q125.85 243.3 125.85 239.8 125.85 237.75 126.45 235.15 L126.95 233.5 125.45 233.35 M139.45 268.85 L140.1 265.95 139.65 264.05 138.8 259.75 138.65 259.75 Q137.8 265.2 134.95 269.3 L131.05 273.8 127.65 277.4 128.8 277.1 Q132.0 276.65 134.4 275.5 136.1 274.65 138.0 272.15 138.75 271.15 139.45 268.85 M159.05 285.75 Q155.8 288.6 148.05 292.5 L134.15 299.25 Q149.45 294.4 159.1 286.85 166.25 281.3 171.2 273.3 172.9 270.65 176.4 266.6 L182.45 260.0 Q191.2 250.75 212.4 250.05 L212.35 250.35 Q212.35 257.0 213.25 260.05 214.2 263.3 217.8 269.4 L219.85 271.85 Q221.5 273.9 224.0 275.35 L225.05 273.8 225.65 273.0 227.05 270.15 228.95 266.15 229.85 262.8 230.55 259.4 230.3 259.1 Q229.8 260.55 228.25 262.45 L225.55 265.15 225.45 265.15 225.55 265.25 225.35 265.55 Q222.45 264.45 220.1 261.35 L216.8 256.25 215.3 253.6 214.1 251.25 213.5 250.0 213.55 250.0 213.55 249.9 213.45 249.9 212.8 248.6 212.4 249.95 202.65 250.4 Q196.35 250.7 193.05 252.05 186.8 254.6 182.55 258.85 L175.7 265.7 Q172.15 269.5 170.55 272.35 167.2 278.55 159.05 285.75 M43.8 315.25 L44.5 315.95 44.3 315.85 43.8 315.25 M48.5 320.25 L49.05 320.0 Q45.3 314.05 38.35 310.5 37.45 310.05 35.75 309.7 L31.5 308.75 22.35 307.85 18.15 307.3 11.6 306.85 -8.0 306.0 Q-9.0 305.4 -11.45 305.1 L-13.45 304.65 -15.75 304.25 -23.2 303.9 -29.75 303.85 -35.75 304.4 Q-36.45 304.55 -36.45 305.15 L-33.75 307.1 -33.35 307.35 -33.3 307.4 -33.5 307.55 -33.0 307.65 -32.85 307.65 Q-30.65 308.85 -29.6 308.85 -28.95 308.85 -29.35 308.65 L-29.4 308.5 Q-27.75 309.1 -25.4 310.15 L-17.75 313.55 Q-13.05 315.35 -2.6 316.55 L1.65 317.25 11.25 317.9 Q16.6 318.15 28.35 315.85 39.3 314.65 47.0 319.65 L47.05 319.6 48.5 320.25 M-231.3 282.95 L-229.25 285.4 -227.15 287.35 -223.55 290.8 -223.45 290.8 -223.55 290.65 -224.0 288.9 Q-224.35 288.05 -225.0 287.5 L-226.4 286.1 -227.55 285.2 -229.1 284.25 -231.3 282.95 M-163.7 277.15 L-163.7 276.95 -163.9 276.95 -163.7 277.15 M-162.1 280.05 Q-165.35 280.5 -166.1 281.05 L-166.3 281.2 -166.3 281.25 -166.35 281.4 -166.2 282.15 -166.2 282.5 -165.7 282.6 -165.6 282.0 Q-161.55 293.15 -157.25 310.9 -154.9 321.0 -154.5 325.25 L-153.25 332.3 -152.65 336.6 Q-152.25 339.1 -151.5 339.6 -150.55 326.45 -150.35 320.15 L-150.25 304.0 -150.25 287.9 Q-150.25 286.85 -150.75 284.85 L-151.25 282.25 -151.2 281.45 -151.2 281.6 Q-147.35 285.9 -144.05 293.1 L-139.15 303.4 Q-138.55 298.4 -138.35 292.15 L-138.25 280.85 -138.15 280.85 -132.25 287.85 -126.5 294.4 Q-124.85 289.25 -124.75 281.95 L-124.0 281.35 -124.65 280.6 -124.75 280.6 Q-124.8 280.05 -125.0 280.0 L-125.25 280.1 -126.0 280.25 -126.0 280.35 -136.4 278.5 -139.1 278.1 -139.4 277.75 -139.7 277.8 -139.85 278.0 Q-145.95 277.2 -149.0 277.85 L-152.2 278.45 -152.45 278.25 -152.85 278.5 -152.85 278.6 -162.1 280.05 M-302.7 263.8 Q-307.6 263.8 -311.45 267.2 -312.5 268.3 -316.35 268.5 L-320.8 268.65 -323.05 269.4 -325.55 269.75 Q-325.7 269.95 -326.1 269.95 -334.0 268.0 -335.05 268.0 -337.8 268.0 -342.4 269.15 L-347.65 270.55 Q-349.25 270.95 -350.1 271.5 -351.15 272.15 -351.9 273.35 L-355.9 280.8 -358.7 286.6 -359.05 287.1 Q-360.45 289.25 -360.45 289.9 L-360.45 289.95 -362.95 293.65 Q-362.25 293.15 -361.0 292.7 L-358.0 291.65 -354.85 290.05 -355.6 289.95 -355.25 289.8 -354.85 290.05 Q-354.4 289.95 -353.5 288.55 L-352.6 287.35 -352.05 287.45 -351.85 287.2 -350.6 285.15 -348.55 281.5 -346.4 277.65 Q-344.7 275.15 -342.25 273.9 L-337.8 271.35 Q-335.85 271.0 -328.2 273.1 L-327.1 272.9 -326.95 273.05 -326.9 273.55 Q-326.9 273.95 -330.25 279.0 L-334.7 285.75 -335.3 287.4 -335.55 288.05 -336.2 289.35 Q-337.3 291.85 -337.3 292.55 L-337.3 292.75 -338.75 295.95 Q-335.95 295.2 -333.55 293.05 -332.25 292.95 -329.7 288.05 L-329.35 287.6 -326.9 283.95 Q-323.2 279.0 -320.75 276.9 -316.45 273.2 -311.5 272.5 -310.95 271.85 -309.35 271.95 -305.55 272.05 -303.15 270.9 L-300.95 268.85 Q-299.4 267.45 -298.25 268.0 -298.25 269.2 -297.55 271.7 L-297.2 273.95 -296.5 273.25 -293.35 270.1 -291.75 267.65 Q-290.5 266.0 -289.0 265.45 -282.3 262.65 -276.7 264.75 -274.8 265.45 -273.35 266.55 -271.9 267.6 -270.75 269.15 L-270.65 269.05 -267.0 268.7 -261.7 268.7 -261.75 268.65 -261.9 268.45 -268.0 267.9 Q-271.25 267.65 -272.25 266.5 L-274.25 265.15 -274.55 264.95 -274.75 264.95 -274.95 264.65 Q-277.4 263.05 -278.1 263.05 -285.75 263.05 -288.95 264.8 L-289.2 265.0 Q-292.3 266.5 -294.2 266.5 -297.0 266.5 -298.7 265.15 -300.45 263.8 -302.7 263.8 M-260.3 268.8 L-260.2 268.75 -260.3 268.7 -260.3 268.8 M-287.9 309.8 Q-287.9 308.2 -288.8 306.75 -290.25 304.2 -293.35 305.95 -296.3 307.7 -297.9 311.75 L-297.9 311.9 -293.9 312.6 Q-290.55 312.6 -288.85 311.35 -287.9 310.6 -287.9 309.8 M-356.1 277.1 L-356.95 277.45 -356.4 277.6 -356.1 277.1 M-329.4 274.1 L-329.35 273.95 -329.55 273.95 -329.4 274.1 M-359.4 299.75 L-359.4 298.0 Q-362.65 297.85 -364.55 300.1 L-367.05 303.65 Q-363.45 304.1 -361.6 302.95 -360.2 302.05 -359.4 299.75 M-334.5 306.85 Q-334.5 303.1 -338.3 305.1 -341.85 307.15 -343.3 310.65 -343.95 310.6 -342.75 311.15 -341.7 311.7 -340.45 311.7 -334.5 311.7 -334.5 306.85 M-152.95 424.75 L-160.25 416.55 Q-163.5 412.85 -166.0 412.85 -170.45 412.85 -174.05 421.25 -175.65 424.9 -176.85 429.45 L-148.35 428.5 -152.95 424.75" fill="#000000" fill-rule="evenodd" stroke="none"/>
    <path d="M139.45 268.85 Q138.75 271.15 138.0 272.15 136.1 274.65 134.4 275.5 132.0 276.65 128.8 277.1 L127.65 277.4 131.05 273.8 134.95 269.3 Q137.8 265.2 138.65 259.75 L138.8 259.75 139.65 264.05 140.1 265.95 139.45 268.85 M125.45 233.35 L126.95 233.5 126.45 235.15 Q125.85 237.75 125.85 239.8 125.85 243.3 127.35 251.9 L127.3 251.9 Q126.25 250.65 123.7 246.55 L121.35 242.9 121.35 242.75 121.05 242.85 120.95 242.85 Q119.45 243.3 118.8 244.8 L117.85 247.65 Q116.15 250.9 114.25 251.95 112.65 252.8 109.1 252.8 105.2 251.65 104.2 251.65 L100.6 252.05 99.75 252.8 Q94.8 254.35 94.8 262.25 L95.0 264.95 95.15 265.45 Q95.3 267.0 96.05 269.15 97.05 271.95 97.05 272.8 L96.55 274.85 Q95.85 276.85 94.8 276.85 93.85 276.85 92.25 275.7 L92.0 275.55 88.95 271.6 Q82.65 264.0 81.05 257.05 L81.35 256.25 82.85 254.15 Q84.1 252.65 85.2 251.9 90.5 248.5 95.55 248.5 98.65 248.5 102.8 250.05 107.0 251.6 108.2 251.6 111.6 251.6 113.55 249.8 115.0 248.45 118.35 243.0 L119.7 240.45 120.95 238.15 122.4 235.4 Q123.7 233.35 125.45 233.35 M135.95 228.35 Q137.6 227.8 139.55 227.8 140.2 227.8 142.35 229.15 L143.15 229.5 Q140.3 232.1 135.3 242.4 L135.3 242.35 135.6 235.15 135.95 228.35 M160.45 211.85 Q159.15 211.85 157.95 213.05 L158.3 211.1 Q159.35 206.2 162.2 204.85 163.75 204.1 168.45 204.1 169.3 204.1 176.05 208.6 L179.65 210.8 Q181.85 212.1 184.15 212.8 L198.8 216.85 204.9 218.95 210.6 220.6 211.0 220.45 213.55 221.05 214.1 221.05 217.75 220.95 217.85 220.9 Q218.45 220.5 219.65 220.5 L220.4 220.6 221.05 220.35 221.75 220.4 Q222.6 220.4 226.9 216.1 L226.55 216.75 Q223.7 222.5 218.5 222.5 L215.65 222.15 212.65 221.8 206.8 222.25 203.1 222.5 Q199.15 222.5 194.6 220.75 189.3 218.75 184.4 214.75 L182.0 213.5 180.2 212.75 178.55 211.45 Q177.7 210.8 176.65 210.5 L173.85 209.6 Q171.55 209.05 170.55 209.6 L170.35 209.75 170.3 209.75 Q168.9 210.4 168.5 212.25 168.35 212.95 168.35 215.15 L168.7 224.5 168.35 226.9 167.95 229.25 167.55 231.6 Q167.05 233.15 165.3 233.75 L165.15 233.5 Q166.05 230.55 166.2 228.9 L166.3 224.75 166.1 222.05 165.65 218.25 Q165.35 216.5 163.9 214.4 162.2 211.85 160.45 211.85 M331.3 243.95 L331.95 246.5 Q332.6 248.55 335.05 251.75 337.95 255.5 338.65 256.8 L339.75 259.0 337.85 257.35 Q333.65 253.95 327.3 250.75 321.3 247.7 315.8 245.8 L304.9 242.35 Q297.45 240.0 292.2 236.05 287.1 231.5 284.3 229.4 L280.35 226.05 Q277.95 224.05 275.6 223.25 L270.7 221.05 Q269.8 220.4 267.0 219.9 263.8 219.4 262.9 220.5 L262.8 220.5 Q262.2 228.25 259.8 235.9 258.7 239.3 256.45 243.2 253.05 249.0 249.35 250.85 L249.55 250.65 249.5 250.05 250.4 246.45 Q251.55 241.2 251.55 238.35 251.55 234.6 250.25 230.35 L247.3 222.0 Q246.55 219.85 245.15 217.75 243.45 215.25 241.65 214.25 240.1 213.25 239.05 212.75 237.15 211.85 234.9 211.55 L232.95 211.6 Q237.0 209.5 241.2 209.5 243.6 209.5 249.8 211.0 L255.95 212.5 276.4 213.45 Q285.65 213.8 293.7 215.75 L305.1 218.75 312.8 220.95 Q317.15 222.75 319.65 224.3 L316.75 225.95 Q315.2 227.05 315.2 227.7 315.2 228.95 319.5 231.05 323.8 233.1 323.8 234.5 L323.35 235.65 Q322.9 236.35 322.9 236.95 322.9 238.05 324.85 239.25 L328.8 241.4 Q330.75 242.6 331.3 243.95 M159.05 285.75 Q167.2 278.55 170.55 272.35 172.15 269.5 175.7 265.7 L182.55 258.85 Q186.8 254.6 193.05 252.05 196.35 250.7 202.65 250.4 L212.4 249.95 212.8 248.6 213.45 249.9 213.55 249.9 213.55 250.0 213.5 250.0 214.1 251.25 215.3 253.6 216.8 256.25 220.1 261.35 Q222.45 264.45 225.35 265.55 L225.55 265.25 225.45 265.15 225.55 265.15 228.25 262.45 Q229.8 260.55 230.3 259.1 L230.55 259.4 229.85 262.8 228.95 266.15 227.05 270.15 225.65 273.0 225.05 273.8 224.0 275.35 Q221.5 273.9 219.85 271.85 L217.8 269.4 Q214.2 263.3 213.25 260.05 212.35 257.0 212.35 250.35 L212.4 250.05 Q191.2 250.75 182.45 260.0 L176.4 266.6 Q172.9 270.65 171.2 273.3 166.25 281.3 159.1 286.85 149.45 294.4 134.15 299.25 L148.05 292.5 Q155.8 288.6 159.05 285.75 M-231.3 282.95 L-229.1 284.25 -227.55 285.2 -226.4 286.1 -225.0 287.5 Q-224.35 288.05 -224.0 288.9 L-223.55 290.65 -223.45 290.8 -223.55 290.8 -227.15 287.35 -229.25 285.4 -231.3 282.95 M-302.7 263.8 Q-300.45 263.8 -298.7 265.15 -297.0 266.5 -294.2 266.5 -292.3 266.5 -289.2 265.0 L-288.95 264.8 Q-285.75 263.05 -278.1 263.05 -277.4 263.05 -274.95 264.65 L-274.75 264.95 -274.55 264.95 -274.25 265.15 -272.25 266.5 Q-271.25 267.65 -268.0 267.9 L-261.9 268.45 -261.75 268.65 -261.7 268.7 -267.0 268.7 -270.65 269.05 -270.75 269.15 Q-271.9 267.6 -273.35 266.55 -274.8 265.45 -276.7 264.75 -282.3 262.65 -289.0 265.45 -290.5 266.0 -291.75 267.65 L-293.35 270.1 -296.5 273.25 -297.2 273.95 -297.55 271.7 Q-298.25 269.2 -298.25 268.0 -299.4 267.45 -300.95 268.85 L-303.15 270.9 Q-305.55 272.05 -309.35 271.95 -310.95 271.85 -311.5 272.5 -316.45 273.2 -320.75 276.9 -323.2 279.0 -326.9 283.95 L-329.35 287.6 -329.7 288.05 Q-332.25 292.95 -333.55 293.05 -335.95 295.2 -338.75 295.95 L-337.3 292.75 -337.3 292.55 Q-337.3 291.85 -336.2 289.35 L-335.55 288.05 -335.3 287.4 -334.7 285.75 -330.25 279.0 Q-326.9 273.95 -326.9 273.55 L-326.95 273.05 -327.1 272.9 -328.2 273.1 Q-335.85 271.0 -337.8 271.35 L-342.25 273.9 Q-344.7 275.15 -346.4 277.65 L-348.55 281.5 -350.6 285.15 -351.85 287.2 -352.05 287.45 -352.6 287.35 -353.5 288.55 Q-354.4 289.95 -354.85 290.05 L-355.25 289.8 -355.6 289.95 -354.85 290.05 -358.0 291.65 -361.0 292.7 Q-362.25 293.15 -362.95 293.65 L-360.45 289.95 -360.45 289.9 Q-360.45 289.25 -359.05 287.1 L-358.7 286.6 -355.9 280.8 -351.9 273.35 Q-351.15 272.15 -350.1 271.5 -349.25 270.95 -347.65 270.55 L-342.4 269.15 Q-337.8 268.0 -335.05 268.0 -334.0 268.0 -326.1 269.95 -325.7 269.95 -325.55 269.75 L-323.05 269.4 -320.8 268.65 -316.35 268.5 Q-312.5 268.3 -311.45 267.2 -307.6 263.8 -302.7 263.8 M-287.9 309.8 Q-287.9 310.6 -288.85 311.35 -290.55 312.6 -293.9 312.6 L-297.9 311.9 -297.9 311.75 Q-296.3 307.7 -293.35 305.95 -290.25 304.2 -288.8 306.75 -287.9 308.2 -287.9 309.8 M-334.5 306.85 Q-334.5 311.7 -340.45 311.7 -341.7 311.7 -342.75 311.15 -343.95 310.6 -343.3 310.65 -341.85 307.15 -338.3 305.1 -334.5 303.1 -334.5 306.85 M-359.4 299.75 Q-360.2 302.05 -361.6 302.95 -363.45 304.1 -367.05 303.65 L-364.55 300.1 Q-362.65 297.85 -359.4 298.0 L-359.4 299.75" fill="#4d5c34" fill-rule="evenodd" stroke="none"/>
    <path d="M48.5 320.25 L47.05 319.6 47.0 319.65 Q39.3 314.65 28.35 315.85 16.6 318.15 11.25 317.9 L1.65 317.25 -2.6 316.55 Q-13.05 315.35 -17.75 313.55 L-25.4 310.15 Q-27.75 309.1 -29.4 308.5 L-29.35 308.65 Q-28.95 308.85 -29.6 308.85 -30.65 308.85 -32.85 307.65 L-33.0 307.65 -33.5 307.55 -33.3 307.4 -33.35 307.35 -33.75 307.1 -36.45 305.15 Q-36.45 304.55 -35.75 304.4 L-29.75 303.85 -23.2 303.9 -15.75 304.25 -13.45 304.65 -11.45 305.1 Q-9.0 305.4 -8.0 306.0 L11.6 306.85 18.15 307.3 22.35 307.85 31.5 308.75 35.75 309.7 Q37.45 310.05 38.35 310.5 45.3 314.05 49.05 320.0 L48.5 320.25 M43.8 315.25 L44.3 315.85 44.5 315.95 43.8 315.25 M-162.1 280.05 L-152.85 278.6 -152.85 278.5 -152.45 278.25 -152.2 278.45 -149.0 277.85 Q-145.95 277.2 -139.85 278.0 L-139.7 277.8 -139.4 277.75 -139.1 278.1 -136.4 278.5 -126.0 280.35 -126.0 280.25 -125.25 280.1 -125.0 280.0 Q-124.8 280.05 -124.75 280.6 L-124.65 280.6 -124.0 281.35 -124.75 281.95 Q-124.85 289.25 -126.5 294.4 L-132.25 287.85 -138.15 280.85 -138.25 280.85 -138.35 292.15 Q-138.55 298.4 -139.15 303.4 L-144.05 293.1 Q-147.35 285.9 -151.2 281.6 L-151.2 281.45 -151.25 282.25 -150.75 284.85 Q-150.25 286.85 -150.25 287.9 L-150.25 304.0 -150.35 320.15 Q-150.55 326.45 -151.5 339.6 -152.25 339.1 -152.65 336.6 L-153.25 332.3 -154.5 325.25 Q-154.9 321.0 -157.25 310.9 -161.55 293.15 -165.6 282.0 L-165.7 282.6 -166.2 282.5 -166.2 282.15 -166.35 281.4 -166.3 281.25 -166.3 281.2 -166.1 281.05 Q-165.35 280.5 -162.1 280.05" fill="#2b2b2b" fill-rule="evenodd" stroke="none"/>
    <path d="M330.15 199.05 Q326.35 199.9 324.8 201.35 L323.0 203.9 Q322.4 204.75 322.15 206.45 L321.75 209.0 319.25 214.9 Q317.5 218.6 317.5 219.0 L318.7 219.95 320.8 221.6 321.7 222.9 321.75 224.2 Q321.75 225.5 321.25 226.3 320.4 227.65 318.0 228.1 322.35 229.8 323.95 231.35 325.25 232.6 325.25 234.5 L324.85 236.3 335.8 235.7 346.05 235.1 Q349.3 235.1 350.25 236.15 350.7 236.65 350.5 237.25 350.5 238.45 349.8 238.95 L347.0 241.1 345.65 242.9 Q344.15 244.5 343.05 244.5 L342.15 244.35 342.0 244.5 339.65 246.65 342.7 248.05 Q346.5 249.8 347.1 249.8 349.05 249.8 349.55 247.65 L348.75 246.3 Q349.75 246.6 350.0 247.05 L350.1 248.05 Q350.1 249.25 349.0 250.5 347.65 252.05 345.45 252.05 344.3 252.05 339.4 250.45 L337.8 249.9 336.6 251.0 338.8 253.7 340.9 256.05 Q341.35 256.45 342.2 258.55 L343.0 260.95 342.75 262.25 Q342.35 263.25 341.55 263.25 339.75 263.25 338.4 261.85 L337.25 260.4 336.4 260.5 Q336.0 260.6 334.05 259.3 L333.25 258.95 331.1 259.25 Q329.25 259.25 328.5 258.4 L327.4 257.5 325.65 258.75 323.75 260.0 Q322.05 260.0 321.5 259.0 L321.3 258.0 Q321.3 256.95 322.05 255.9 L324.0 253.75 323.0 252.6 321.75 253.25 Q320.55 253.25 319.9 252.65 L319.4 252.05 314.75 253.25 Q313.05 253.25 312.5 252.35 L312.3 251.35 Q312.3 250.25 313.8 249.05 313.25 248.3 312.8 246.05 L310.3 246.0 309.75 245.5 309.35 245.05 Q308.2 245.05 306.4 246.05 304.6 247.05 303.25 247.05 302.3 247.05 301.9 246.35 L301.75 245.65 Q301.75 244.45 304.2 243.2 L302.2 242.7 296.0 241.15 290.75 239.85 Q287.25 238.5 288.0 236.1 L284.85 234.3 Q283.75 233.6 283.75 232.8 283.75 231.3 285.15 230.75 281.45 228.55 277.75 226.5 L273.55 223.1 Q271.2 221.2 267.5 220.8 L263.85 220.8 260.75 236.6 Q259.9 240.5 255.75 246.3 L253.05 249.7 Q252.25 253.45 250.75 256.55 248.8 260.75 246.8 260.75 245.75 260.75 245.25 260.1 244.9 259.7 244.9 259.3 L246.7 255.75 248.35 251.85 Q247.75 251.55 247.75 250.8 247.75 249.85 248.85 248.75 L249.3 248.35 250.15 243.05 250.25 238.1 250.1 232.25 Q249.8 229.0 248.85 225.9 247.05 220.2 243.6 217.05 240.5 214.15 237.15 214.15 L234.6 214.8 232.4 215.4 Q231.85 215.4 231.5 214.9 L231.25 214.3 Q231.25 211.5 235.9 211.0 242.1 210.25 245.35 214.0 247.3 215.65 249.1 218.0 250.85 220.3 251.5 222.0 253.3 226.95 253.8 230.55 254.1 232.85 254.1 238.3 L254.1 242.65 Q256.25 238.8 257.05 235.55 L258.65 227.95 260.0 220.3 Q260.9 215.7 266.85 216.55 271.1 217.1 275.15 219.5 279.1 222.7 286.6 227.15 294.15 231.7 301.55 233.35 L307.85 234.85 Q314.1 236.1 320.45 236.3 L320.65 235.8 321.25 234.5 Q321.25 233.9 316.55 232.05 311.8 230.25 311.8 228.25 311.8 226.8 312.6 225.8 314.05 224.05 317.75 224.0 317.45 223.7 315.75 222.7 L314.0 221.5 Q313.55 220.85 313.55 219.35 313.55 216.05 316.5 213.05 319.95 209.5 320.25 208.55 L321.1 205.9 Q321.7 204.2 322.35 203.3 324.0 201.2 325.05 200.45 327.3 198.75 330.15 199.05 M342.0 240.75 L343.35 239.25 339.35 239.5 338.05 240.8 337.85 241.0 339.0 240.7 340.8 240.35 Q341.45 240.35 342.0 240.75 M331.1 254.75 L330.75 255.05 330.9 255.25 331.3 255.25 331.8 255.05 331.6 254.5 Q331.4 254.5 331.1 254.75 M161.5 216.5 L161.1 218.4 Q160.7 219.7 160.75 220.15 160.85 222.15 160.35 223.55 161.85 223.65 162.0 225.7 L161.65 226.95 Q161.25 227.7 161.15 228.4 L160.85 231.05 160.1 233.55 159.1 236.1 Q157.55 240.4 157.6 242.15 L158.05 246.2 Q158.05 248.15 157.6 249.35 L156.1 253.25 Q155.6 254.8 154.25 256.75 153.85 258.05 153.2 258.6 152.0 259.65 148.35 259.15 L148.45 259.35 148.5 259.8 Q148.5 260.6 141.0 270.6 L139.1 273.25 137.0 275.85 Q136.05 276.95 135.1 277.35 134.6 277.6 134.5 278.25 L133.95 279.4 Q133.2 280.55 132.0 280.55 L131.3 280.3 130.6 280.05 Q127.55 282.55 126.4 282.55 125.5 282.55 124.9 282.05 124.3 281.55 124.3 280.65 124.3 280.0 124.75 279.15 L125.15 278.0 124.75 277.0 124.3 276.15 Q124.3 275.45 125.7 273.5 127.05 271.6 127.05 271.0 L127.4 268.45 128.0 265.9 130.3 256.0 Q130.3 255.3 129.15 255.15 127.8 254.95 127.25 254.1 L126.15 253.15 124.85 252.0 Q123.3 250.05 122.3 247.75 122.35 250.55 120.9 254.95 119.1 260.3 116.75 260.3 L112.55 259.8 Q112.45 259.15 111.6 258.75 L110.2 257.95 107.75 257.4 105.35 256.5 Q103.05 255.6 102.05 255.6 100.25 255.6 98.15 257.3 96.45 258.7 96.3 259.3 96.15 260.55 95.25 263.25 L95.1 263.8 Q96.65 262.55 98.8 263.85 102.1 265.35 102.3 267.9 102.55 270.7 104.9 272.1 107.7 273.75 109.25 276.6 109.55 277.2 111.15 278.25 L113.3 280.25 115.4 284.7 Q116.8 288.05 116.8 288.85 L116.55 290.4 Q116.05 291.25 114.5 291.25 112.5 291.25 110.85 289.5 L109.5 287.6 107.1 285.95 104.8 284.25 103.6 286.3 Q102.5 287.75 100.4 287.75 98.15 287.75 96.8 286.0 95.65 284.5 96.15 283.6 93.55 283.0 93.0 281.45 92.5 279.95 91.65 279.85 90.4 281.35 88.9 281.35 84.6 281.35 84.4 274.05 L84.05 273.55 Q83.15 270.85 81.3 268.6 80.55 267.65 79.9 265.6 79.3 263.6 79.3 262.05 79.3 260.35 80.65 260.35 82.15 260.35 83.9 263.9 85.7 267.4 89.4 267.4 90.25 267.4 91.15 264.0 L92.3 259.15 Q92.9 257.0 94.9 254.9 97.9 251.65 102.1 251.65 104.05 251.65 106.55 252.5 L110.0 253.65 Q110.8 253.8 115.25 256.25 116.45 256.25 117.1 253.6 L118.3 247.8 Q120.2 239.35 126.0 239.35 127.5 239.35 128.05 240.4 L128.25 241.5 127.9 242.45 127.5 243.25 127.75 243.9 128.05 244.25 129.05 240.6 Q129.7 238.05 130.35 236.8 L131.75 233.45 Q133.95 230.35 138.65 230.35 143.0 230.35 144.3 231.55 144.95 232.15 144.75 232.8 144.75 233.55 144.15 234.1 143.2 235.05 141.0 235.1 L136.9 248.15 138.2 249.1 Q139.5 249.95 139.5 250.75 L138.7 253.5 Q137.85 256.1 137.75 256.9 L138.6 255.6 Q139.35 254.45 140.5 254.1 L142.05 253.85 143.85 253.75 144.7 253.2 Q145.4 252.65 145.75 252.65 147.2 252.65 147.6 253.7 L147.75 255.0 150.4 255.25 Q151.25 255.25 153.5 248.75 154.0 247.25 154.05 245.45 L153.9 242.15 Q153.75 239.8 155.55 235.05 157.35 230.2 157.35 229.15 156.35 228.15 156.35 227.1 L156.15 225.15 Q156.15 224.55 156.5 222.85 L156.85 221.1 Q156.85 218.65 157.1 217.35 L157.35 213.6 158.0 211.95 Q159.0 210.35 161.05 210.35 163.05 210.35 164.55 211.5 L165.8 212.9 167.0 210.45 Q168.2 208.6 170.8 208.35 174.9 208.9 177.25 210.55 L180.9 213.4 Q194.3 221.4 218.25 221.4 221.15 221.4 223.65 219.8 224.95 219.0 226.05 217.9 L227.35 217.25 228.55 216.35 229.35 215.45 Q230.1 214.85 231.0 215.0 229.95 215.25 229.65 215.55 229.5 215.7 229.5 216.1 229.5 220.2 225.55 223.05 222.2 225.5 219.1 225.5 208.85 225.5 200.1 223.9 193.0 222.55 184.4 219.6 181.25 218.55 176.75 215.2 172.85 212.35 171.6 212.35 170.3 212.35 169.5 216.0 L169.0 219.65 Q169.0 220.35 169.65 221.05 170.25 221.8 170.25 222.45 L168.75 231.9 Q166.95 241.25 165.55 241.25 163.4 241.25 162.95 239.75 L162.85 238.1 Q162.85 236.05 163.4 233.6 L164.35 228.6 164.45 226.25 164.35 223.9 164.55 221.3 164.75 219.3 Q164.75 218.35 163.7 216.75 162.6 215.05 161.35 214.5 161.25 215.1 161.5 216.5 M132.25 244.0 Q131.85 244.8 131.85 245.45 L132.1 246.75 Q132.45 246.75 132.95 246.35 L133.5 245.75 133.75 244.65 133.35 244.15 132.25 244.0 M131.6 251.65 L131.85 251.0 130.3 251.0 131.6 251.65 M141.65 292.65 L148.55 288.75 Q153.2 286.1 155.55 285.15 159.7 283.55 161.35 281.3 L163.85 277.6 166.7 273.95 169.6 270.1 175.95 262.8 Q179.95 258.55 184.75 255.35 L189.75 251.65 195.15 247.8 198.1 245.85 Q200.2 244.6 202.35 244.25 204.3 243.9 204.75 245.3 205.05 246.4 204.4 247.5 L205.75 247.4 Q206.8 247.4 207.35 248.05 207.8 248.6 207.8 249.3 207.8 250.5 205.9 251.6 205.55 251.8 205.15 252.55 L204.5 253.65 Q204.15 254.3 200.7 255.75 L196.55 257.4 Q189.25 260.75 182.75 265.6 L182.75 265.65 Q184.65 265.9 185.55 266.9 186.25 267.65 186.25 268.65 186.25 270.4 182.05 273.65 L175.3 278.35 167.3 283.25 Q162.55 287.3 160.65 287.3 L155.9 291.0 Q152.3 293.1 148.75 294.75 L140.0 298.65 Q132.8 301.75 132.1 301.75 130.9 301.75 130.5 301.0 L130.35 300.15 Q130.35 299.3 131.75 298.6 134.15 297.5 135.5 296.4 137.4 294.95 141.65 292.65 M211.85 243.15 Q213.3 243.15 213.3 244.8 L213.25 245.7 213.35 245.1 Q213.6 243.75 214.5 243.3 216.5 242.4 217.3 243.95 218.0 245.35 217.35 246.15 L217.3 246.3 218.35 246.15 Q219.7 246.15 220.25 247.35 L220.55 248.6 220.35 249.55 219.6 250.75 219.55 250.9 220.25 250.65 221.25 250.4 Q221.65 250.4 222.9 251.25 L223.65 251.2 224.55 251.25 225.8 251.95 226.9 251.9 Q227.35 251.9 228.7 252.9 L230.75 254.5 232.05 254.85 Q232.8 254.9 233.15 255.35 L233.6 256.65 233.05 258.1 Q232.5 259.0 232.5 259.2 L232.95 259.7 Q233.4 260.05 233.5 260.6 L233.5 261.75 234.8 263.05 235.1 264.2 Q235.1 265.65 233.7 268.2 L231.5 272.05 Q230.75 273.7 229.0 276.0 L227.45 278.15 Q226.6 279.1 225.15 279.5 L224.9 279.35 224.8 278.9 Q224.8 277.85 225.3 276.6 L225.3 276.5 225.05 276.85 224.5 277.05 222.5 276.5 221.25 278.8 Q220.2 280.55 218.85 280.55 216.85 280.55 216.8 278.9 L217.25 276.85 Q215.35 276.55 215.05 275.55 L215.05 274.05 215.0 273.9 214.85 274.2 214.35 274.3 Q212.35 274.3 211.8 273.25 211.65 272.95 211.65 272.0 L211.1 270.6 210.65 269.65 Q210.65 268.9 211.65 267.1 212.6 265.45 213.25 264.85 L212.85 264.35 Q212.6 265.5 210.85 265.5 209.45 265.5 208.7 262.85 L208.15 260.15 208.8 255.85 209.6 251.4 Q209.75 248.3 210.0 246.5 210.45 243.15 211.85 243.15" fill="#000000" fill-opacity="0.101960786" fill-rule="evenodd" stroke="none"/>
    <path d="M328.9 160.75 Q328.9 161.8 331.55 169.65 334.35 177.85 334.55 179.3 L334.55 179.8 Q335.55 176.3 335.55 174.5 335.55 172.45 333.95 169.45 332.3 166.5 332.3 165.1 332.3 164.2 332.95 163.5 333.65 162.75 334.9 162.75 336.6 162.75 339.8 166.75 L343.55 172.0 Q344.7 173.65 345.9 176.65 L347.55 181.3 347.55 181.5 Q347.85 180.6 347.8 179.05 L347.65 176.75 Q347.65 175.9 348.05 175.25 348.65 174.3 349.9 174.3 352.75 174.3 352.9 178.05 L352.8 182.8 353.8 186.95 354.3 190.85 353.8 193.8 353.15 197.5 353.15 198.5 Q353.15 205.7 350.1 215.65 L344.8 233.55 348.1 225.8 Q350.05 220.95 351.65 218.05 L355.85 210.3 Q359.4 203.45 359.4 202.35 359.4 200.05 362.7 195.35 365.75 191.05 364.9 187.0 L366.65 179.05 Q367.45 175.7 370.2 175.2 372.9 174.65 372.9 177.8 L371.85 180.95 Q370.8 183.55 370.8 185.1 L372.7 196.0 Q374.55 207.2 374.55 209.3 L374.25 213.65 Q373.8 216.75 372.9 217.55 L374.05 218.55 374.9 218.3 Q375.55 218.3 375.75 218.8 L376.55 219.25 Q377.45 219.25 379.45 216.4 L381.9 213.25 Q384.0 212.3 386.35 214.5 388.15 216.15 388.9 218.05 L389.2 219.8 Q389.35 220.85 389.65 221.5 390.05 222.25 391.35 222.6 393.75 223.3 395.4 224.05 398.25 225.35 398.9 227.45 L399.05 230.8 Q399.05 234.0 394.85 239.7 390.65 245.45 390.65 247.5 390.65 248.05 391.25 249.1 L392.05 250.25 Q393.55 249.65 396.2 248.05 397.95 247.0 399.15 247.0 400.8 247.0 401.5 248.15 401.9 248.75 401.9 249.4 L401.05 250.6 401.15 253.3 Q403.85 253.1 405.05 254.7 405.85 255.8 405.8 257.25 408.05 257.1 408.75 258.5 409.15 259.2 409.15 260.85 L408.85 262.9 407.65 265.3 407.55 265.55 Q411.45 265.7 413.6 266.9 415.15 267.7 416.4 269.55 417.05 270.4 417.2 272.0 L417.3 274.8 Q422.05 278.4 425.6 280.7 426.8 281.75 426.8 285.4 426.8 289.5 423.3 292.4 419.8 295.35 419.8 296.35 L425.95 305.75 Q432.05 315.45 432.05 317.65 L431.55 319.75 Q431.05 321.2 431.05 321.8 L431.75 322.7 Q432.4 323.6 432.4 324.8 432.4 325.95 433.3 327.5 434.6 329.8 434.45 330.8 L434.05 333.05 Q434.05 333.85 434.65 334.25 L435.35 334.5 Q438.45 334.5 441.15 333.25 443.8 332.0 444.9 332.0 446.7 332.0 447.65 333.0 448.4 333.8 448.4 335.0 448.4 335.6 445.15 339.4 L441.3 343.8 Q437.85 347.2 430.3 352.25 L429.8 352.55 Q432.95 352.85 433.8 354.8 L434.05 357.0 Q434.05 360.15 431.85 360.7 L426.8 362.0 Q424.0 363.55 420.05 367.5 417.7 369.85 417.9 372.8 418.2 377.25 417.9 378.3 L416.7 383.35 Q415.6 386.6 412.8 389.25 L406.55 395.0 Q401.15 399.25 396.8 399.25 L390.25 398.55 389.15 397.8 384.05 397.6 380.1 397.75 Q377.5 397.75 369.35 395.45 L359.55 392.75 358.6 392.6 354.55 396.5 Q353.8 397.0 349.3 398.7 344.8 400.4 342.55 401.8 340.3 403.25 337.55 404.45 334.6 405.75 332.8 406.05 L317.9 408.25 286.4 409.25 270.4 410.25 248.05 412.05 230.05 414.55 211.95 417.25 190.9 418.75 Q185.75 418.5 153.3 417.8 L152.95 417.8 151.0 418.05 Q138.8 418.75 -296.05 419.25 L-428.3 419.25 Q-437.9 419.05 -437.9 415.55 -437.9 413.8 -436.2 412.95 L-434.5 412.35 Q-436.65 410.05 -439.1 405.9 -443.5 398.45 -446.05 390.8 -449.8 379.75 -450.1 377.3 L-450.05 366.4 Q-450.05 352.75 -447.15 342.25 -449.45 342.25 -450.55 339.1 L-451.15 335.75 Q-451.15 333.45 -449.45 329.6 -447.65 325.4 -445.65 324.05 L-442.65 322.3 Q-442.15 321.85 -440.8 319.0 L-438.15 313.3 Q-435.2 307.65 -429.4 301.7 -423.4 295.55 -415.3 290.05 -411.6 287.55 -405.8 284.7 -399.65 281.65 -395.3 280.3 -393.55 279.75 -389.95 279.15 L-387.3 277.8 Q-380.9 274.0 -374.95 271.5 -364.15 267.05 -363.15 271.4 L-353.2 267.1 Q-345.9 263.95 -341.3 262.8 -336.1 261.5 -333.3 261.55 L-319.9 261.75 Q-317.2 261.7 -311.5 260.2 -305.95 258.75 -302.9 258.75 L-297.15 259.4 -291.4 260.05 -281.5 258.65 -272.65 257.25 Q-271.05 257.25 -268.35 257.95 L-265.55 258.8 -242.9 259.55 -238.05 260.85 -232.05 262.25 Q-229.95 262.4 -229.55 262.75 L-228.8 263.35 -209.55 264.75 Q-207.45 264.8 -203.75 266.15 -200.15 267.5 -195.9 267.5 L-183.15 266.55 Q-178.25 266.55 -173.2 268.05 -168.15 269.5 -162.9 269.5 L-148.65 268.55 Q-145.1 268.55 -134.5 271.1 L-122.4 274.05 -88.25 280.3 Q-80.45 281.7 -73.4 283.8 L-62.5 287.05 Q-55.0 288.95 -46.9 292.55 -41.2 295.05 -37.5 295.05 L-7.25 294.05 Q7.7 294.05 21.15 295.95 29.85 297.2 34.35 298.55 42.65 300.95 47.6 304.05 L49.65 305.9 54.6 309.7 Q62.95 315.05 72.0 315.05 75.85 315.05 77.6 309.0 L78.6 302.75 77.45 294.05 Q76.2 285.7 76.1 283.5 76.7 278.0 76.0 273.3 75.1 267.3 75.1 264.35 75.1 259.5 77.35 255.0 81.55 246.55 91.75 246.55 L99.35 247.9 106.1 249.25 Q110.45 249.25 112.65 245.9 L114.25 242.05 Q114.95 240.3 116.0 238.4 117.3 236.15 118.5 235.0 120.5 232.75 122.05 231.45 124.9 229.1 128.85 228.0 133.35 226.7 137.45 224.35 140.55 222.55 142.5 222.55 143.15 222.55 144.8 223.2 L147.1 223.8 Q149.6 223.8 152.15 219.1 153.65 216.25 154.85 212.5 156.15 208.25 157.85 206.5 161.85 202.45 170.6 203.05 L176.0 205.05 181.6 207.0 187.85 208.05 192.25 208.8 Q192.45 208.85 194.45 210.15 196.25 211.4 198.25 211.8 205.5 213.4 211.9 215.3 214.05 215.95 215.8 216.55 L216.25 216.0 Q216.9 215.2 220.3 214.9 L225.05 214.25 Q227.7 213.3 230.8 210.05 234.9 207.3 244.65 207.3 L261.5 207.05 Q273.3 206.9 291.4 207.55 293.75 207.65 295.9 208.75 297.95 209.8 301.6 209.8 L306.4 209.35 Q305.85 208.65 305.9 208.0 L306.05 206.4 Q306.05 204.25 305.15 198.95 304.3 193.7 304.3 191.05 304.3 189.85 303.3 187.6 301.85 184.55 301.55 183.55 299.9 178.2 299.9 176.1 299.9 174.65 301.1 174.35 302.4 174.05 303.8 175.8 304.4 176.9 308.05 180.55 L314.6 185.65 315.55 186.4 316.3 184.8 Q317.55 182.2 317.55 181.25 317.55 180.25 314.35 171.3 L310.55 160.55 Q311.6 160.0 314.65 163.5 L319.65 169.3 Q321.6 172.65 322.4 174.95 323.4 178.0 322.9 180.55 L323.05 180.75 Q324.15 179.4 325.0 174.35 325.8 169.8 325.8 166.55 325.8 165.7 323.65 164.3 L324.15 162.8 324.3 162.65 325.4 162.5 Q326.4 162.5 327.15 163.95 L326.8 162.6 327.2 160.1 Q327.6 158.4 327.9 158.05 328.9 159.0 328.9 160.75 M399.65 258.65 L399.4 260.85 399.4 261.7 399.55 261.8 Q400.1 261.6 401.35 259.8 L402.9 257.05 Q401.3 256.25 399.8 256.25 L399.65 258.65 M320.3 182.05 Q320.9 181.3 320.9 179.05 320.9 172.0 314.55 166.75 317.1 169.7 318.55 174.1 319.55 177.2 320.3 182.05 M-333.55 269.75 L-333.5 269.5 -333.55 269.5 -333.55 269.75" fill="#96c675" fill-opacity="0.101960786" fill-rule="evenodd" stroke="none"/>
    <path d="M340.75 172.2 Q341.15 172.55 341.15 173.35 341.15 174.8 338.9 181.5 L337.75 185.15 Q336.55 187.3 333.4 188.55 333.15 189.25 333.15 188.0 333.15 187.2 334.6 184.3 L336.65 179.55 Q336.8 176.95 337.05 175.4 337.5 172.6 339.9 171.8 L340.75 172.2 M364.8 203.4 L362.8 208.35 360.05 214.0 Q359.25 215.35 350.8 223.75 L349.65 223.65 349.4 223.55 348.65 223.55 353.95 217.5 357.8 212.75 359.95 207.2 Q361.3 203.9 363.9 202.55 L364.6 202.6 Q364.8 202.65 364.8 203.4 M388.8 232.25 L387.1 227.75 Q384.7 222.2 379.65 220.0 384.9 219.1 387.55 224.2 389.4 227.7 389.4 231.5 389.4 232.2 389.9 233.65 L390.65 236.0 390.65 236.25 Q389.75 234.9 388.8 232.25 M306.95 182.75 L307.15 181.8 307.55 181.8 Q310.15 185.05 311.2 188.95 L312.55 196.5 311.9 197.5 Q309.65 197.25 309.05 194.8 L308.4 191.05 307.3 187.35 Q306.8 185.55 306.8 184.1 306.8 183.35 306.95 182.75 M158.9 215.3 Q159.0 213.75 161.9 211.95 164.45 210.35 167.4 209.5 169.9 208.8 173.0 208.85 176.3 208.9 177.4 209.8 180.4 211.95 181.95 211.7 183.8 211.4 186.4 212.8 187.65 213.5 190.3 216.0 193.2 218.7 194.05 220.3 L193.85 220.6 192.8 220.75 Q190.85 220.75 188.15 218.8 L184.8 216.0 Q183.5 214.85 180.65 214.35 L177.9 214.0 176.15 212.6 174.8 211.55 169.15 212.3 Q163.45 213.75 162.4 217.3 L160.3 220.45 Q158.1 223.3 157.4 224.5 L155.55 223.0 Q155.55 222.25 157.1 220.3 158.75 218.25 158.9 215.3 M129.05 237.25 Q125.15 241.15 124.3 243.25 122.75 247.1 120.1 250.2 116.4 254.55 112.4 254.55 L110.15 254.25 110.05 254.0 Q109.9 253.85 109.9 253.1 109.9 251.7 111.8 251.0 115.3 249.75 118.15 247.5 119.05 246.8 120.35 244.55 121.8 241.9 122.55 241.05 123.15 240.35 125.75 238.7 128.6 236.9 129.55 236.0 L132.3 235.55 135.55 235.0 Q137.25 234.3 139.9 234.05 L144.1 233.55 Q145.75 233.35 146.15 233.55 143.05 235.85 136.6 235.9 130.45 235.9 129.05 237.25 M97.3 256.75 Q94.1 258.4 86.9 258.5 84.0 258.55 83.35 260.6 L83.3 263.0 83.15 264.0 83.1 264.15 82.4 264.3 Q80.5 264.3 79.8 262.45 L79.4 260.4 Q79.4 259.65 80.3 257.25 81.4 254.35 82.4 254.05 87.7 252.45 93.35 252.5 99.3 252.5 99.3 254.4 99.3 255.75 97.3 256.75 M88.05 286.55 Q88.65 290.4 88.65 293.65 88.65 296.0 88.15 297.5 L87.65 297.55 Q87.15 296.05 87.15 293.8 L87.55 286.55 88.05 286.55 M138.9 290.5 Q139.9 291.1 139.9 292.5 149.65 287.5 156.2 282.95 163.45 277.85 165.65 274.0 167.45 270.8 169.3 269.05 172.35 266.15 177.4 264.55 180.4 263.6 187.8 260.25 190.2 259.05 191.75 260.25 192.9 261.15 192.9 262.4 192.9 264.2 187.4 266.65 L177.55 270.75 Q174.1 272.35 171.7 275.05 170.4 276.55 168.4 279.5 164.45 284.75 157.55 288.25 L148.4 292.65 140.4 296.3 Q137.4 296.3 137.4 293.85 137.4 293.2 137.65 292.45 L137.9 291.05 138.1 290.85 138.9 290.5 M78.35 318.55 Q81.5 317.85 84.5 319.05 90.5 321.1 90.5 326.05 90.5 328.0 88.5 330.2 86.5 332.45 86.5 333.55 86.5 333.85 88.7 336.65 L91.35 340.0 92.65 343.1 Q93.35 345.1 94.25 346.0 L84.8 339.0 Q81.5 336.4 81.5 333.0 81.5 331.2 82.6 329.45 83.2 328.4 85.5 325.75 84.65 324.75 80.95 323.5 76.65 322.1 74.75 320.8 75.35 319.2 78.35 318.55 M41.15 318.8 Q37.4 319.1 35.75 318.0 L33.0 316.25 29.95 314.85 27.0 313.75 19.25 310.55 Q14.4 308.45 10.35 307.5 4.75 306.2 -5.05 306.1 -13.35 306.05 -15.0 305.05 -14.5 302.7 -11.9 302.05 L4.5 300.75 Q15.6 302.2 24.45 306.05 28.5 307.75 36.6 312.55 39.45 314.2 41.95 313.8 L45.5 313.05 Q45.95 313.05 46.9 313.8 47.95 314.65 49.0 314.8 L55.75 316.3 59.0 317.55 68.55 320.0 Q71.15 320.7 73.75 322.05 73.3 322.15 72.65 322.95 72.15 323.55 70.0 323.55 66.45 323.55 56.3 321.3 L46.0 318.8 Q45.25 318.5 41.15 318.8 M292.05 220.25 Q294.15 221.35 294.15 222.5 294.15 223.75 293.9 223.5 L288.5 224.4 277.65 225.05 Q274.1 225.05 268.3 223.25 L261.65 221.0 255.6 218.45 Q250.65 216.5 246.3 216.5 242.0 218.0 241.3 218.5 240.25 219.25 237.6 219.7 L234.55 220.25 231.0 221.05 Q228.5 221.35 227.05 222.05 L209.4 223.3 Q206.9 223.3 206.15 222.4 205.9 222.1 205.9 221.35 205.9 220.15 207.8 219.75 L212.4 218.8 219.95 218.35 227.3 217.8 230.1 217.2 232.9 216.75 Q240.45 214.1 242.1 213.65 246.0 212.5 249.9 212.3 253.55 213.1 258.0 214.55 L264.4 216.5 272.9 218.55 278.2 219.0 284.4 218.8 Q289.25 218.8 292.05 220.25 M249.25 244.85 Q247.6 248.4 247.4 249.3 247.1 250.85 247.6 254.15 L248.15 258.0 Q248.15 258.75 247.75 259.7 L247.15 261.25 247.15 261.3 Q245.85 259.4 245.15 256.55 244.55 254.05 244.55 251.5 244.55 249.35 245.35 248.2 246.65 246.2 247.55 243.25 248.0 241.65 247.85 238.85 L247.55 235.5 247.65 234.75 Q249.95 234.65 250.6 237.0 250.8 237.85 250.8 240.35 250.8 241.6 249.25 244.85 M196.6 261.55 L196.3 260.4 Q196.3 258.1 199.5 258.4 202.65 258.7 202.65 260.4 202.65 263.05 199.4 263.05 197.3 263.05 196.6 261.55 M221.0 271.55 Q224.65 274.3 225.65 276.05 L228.05 280.35 Q229.15 282.65 229.15 284.35 229.15 287.45 228.05 290.75 226.75 288.85 224.7 283.9 222.75 279.05 222.15 278.3 220.05 275.35 214.95 271.3 211.65 268.65 211.65 265.6 211.65 262.8 212.25 260.55 213.1 257.4 214.55 259.25 214.95 260.1 214.95 263.4 214.9 266.4 215.9 267.5 L221.0 271.55 M-204.75 271.6 Q-201.0 273.05 -199.9 273.05 L-192.35 274.1 Q-185.8 274.9 -183.25 275.8 L-175.95 276.5 -169.5 276.8 -167.9 277.4 -165.8 278.3 -165.65 278.1 -165.55 278.85 Q-165.55 280.05 -167.55 280.75 -169.6 281.5 -173.0 281.5 L-184.35 281.05 -184.8 280.45 Q-185.0 279.9 -185.9 279.5 -188.8 278.1 -191.4 278.1 L-196.4 277.8 -201.9 275.9 Q-205.55 274.55 -207.9 274.55 L-211.9 275.2 -215.9 275.8 Q-217.7 275.8 -220.05 274.55 -218.65 273.6 -211.9 271.75 -207.6 270.55 -204.75 271.6 M-241.15 280.5 Q-244.55 278.9 -245.4 278.8 L-248.75 278.6 Q-250.95 278.35 -252.3 277.25 L-253.75 275.9 Q-254.45 275.35 -255.35 275.05 L-255.8 275.8 Q-256.85 277.3 -258.9 277.3 -260.85 277.3 -261.9 276.0 -262.8 274.95 -262.8 273.5 L-262.65 272.2 -265.3 271.05 Q-266.15 270.65 -271.1 269.35 -277.25 267.8 -280.5 267.8 -285.85 267.8 -288.5 269.0 -289.95 269.7 -291.4 270.8 L-295.05 271.05 -302.9 271.3 Q-310.15 272.05 -312.8 274.7 L-314.55 276.9 Q-315.5 278.2 -316.55 278.8 -321.75 281.8 -327.3 286.55 -330.45 289.1 -331.8 290.75 L-332.2 292.9 Q-332.3 294.0 -334.4 294.0 -336.55 294.0 -337.05 292.25 L-337.15 290.35 Q-337.15 288.75 -331.05 283.25 L-323.8 277.05 Q-316.0 270.25 -312.0 268.1 -307.75 265.8 -302.65 265.8 L-298.65 266.45 -294.65 267.05 Q-294.15 267.05 -290.75 265.65 L-286.55 264.05 -279.45 263.85 Q-272.8 263.95 -268.9 264.8 -264.7 266.25 -262.35 268.95 L-261.3 270.15 Q-260.4 269.6 -258.9 269.7 -255.05 270.0 -255.05 273.35 L-255.25 274.75 Q-248.25 274.8 -243.15 276.6 -239.35 277.95 -234.05 281.5 L-216.15 294.55 -216.15 294.75 -216.85 295.0 -217.9 295.25 Q-222.15 295.25 -228.4 288.8 -229.15 287.9 -231.7 286.2 L-235.65 283.55 Q-237.5 282.25 -241.15 280.5 M-174.25 293.85 Q-174.25 291.7 -171.1 290.25 -168.25 288.95 -164.15 288.75 -160.0 288.55 -157.2 289.65 -154.05 290.9 -154.05 293.25 -154.05 294.95 -155.2 296.0 -157.55 298.1 -158.75 299.8 L-155.6 303.5 Q-153.8 305.3 -153.8 306.35 -153.8 310.25 -154.25 314.75 -155.85 313.75 -157.3 310.95 -158.95 307.65 -159.3 307.25 -159.85 306.6 -162.4 306.75 -164.55 306.85 -166.0 303.55 -166.75 301.7 -166.75 300.0 L-166.45 298.4 -166.0 297.0 -165.8 296.8 -170.5 297.3 Q-172.9 297.3 -173.8 295.65 L-174.25 293.85 M-321.95 274.25 Q-326.65 275.0 -327.9 275.5 L-330.95 276.8 Q-332.8 277.65 -333.65 277.8 L-340.05 278.7 Q-344.95 279.4 -347.4 280.5 -349.1 281.25 -350.9 282.35 -352.65 283.4 -353.05 284.0 L-356.25 287.9 Q-358.3 290.4 -359.05 291.8 L-361.05 296.35 Q-362.45 299.25 -363.9 299.25 -365.35 299.25 -365.9 297.7 L-366.15 296.0 Q-366.15 292.55 -362.5 287.15 -359.5 282.6 -355.15 278.3 -352.0 275.2 -344.7 274.05 L-334.9 272.8 Q-331.05 271.85 -327.4 270.05 -319.15 270.15 -319.15 272.35 -319.15 273.8 -321.95 274.25 M-252.1 329.0 Q-253.0 329.85 -253.0 328.6 -253.0 326.7 -251.35 326.3 L-246.1 326.55 -222.25 329.55 -222.9 329.7 -224.5 329.8 Q-232.85 329.8 -234.95 328.8 -237.05 327.8 -241.5 327.8 L-249.3 328.25 Q-251.75 328.6 -252.1 329.0 M-320.6 339.8 Q-322.5 338.0 -323.75 337.3 -322.1 336.1 -319.45 338.3 -317.4 340.0 -316.25 342.0 -315.5 343.1 -314.9 345.85 -314.35 348.5 -313.35 349.8 L-313.25 350.25 Q-314.95 349.4 -316.15 346.8 L-317.6 343.3 Q-318.5 341.75 -320.6 339.8 M-151.8 281.75 Q-149.1 280.1 -140.95 281.0 -132.95 281.9 -128.05 284.3 -121.95 287.1 -113.5 289.65 -105.15 292.15 -101.55 292.3 -88.05 292.9 -82.1 295.1 -77.0 297.75 -72.75 299.0 L-63.95 301.6 Q-59.25 303.2 -56.5 305.3 L-57.95 306.7 Q-58.75 307.3 -59.0 307.3 -64.25 307.3 -76.05 302.75 -78.7 301.7 -83.65 298.9 -89.8 296.4 -102.25 295.25 -104.75 295.0 -107.05 294.15 L-112.0 292.05 -117.95 290.55 -124.75 288.75 Q-132.65 285.55 -135.35 284.85 -140.55 283.55 -149.0 283.55 L-151.5 283.25 -151.8 281.75 M-29.55 309.85 L-29.65 310.75 -29.8 311.25 -30.55 311.4 -31.75 311.55 -33.3 311.3 Q-33.55 311.25 -33.55 310.0 -33.55 308.15 -31.55 308.05 -29.55 308.0 -29.55 309.85 M-31.25 326.3 Q-32.45 326.45 -34.6 324.65 -37.0 322.65 -38.0 322.5 -39.65 322.25 -41.2 320.6 -42.5 319.25 -42.75 318.25 -40.8 318.3 -36.65 320.8 -32.05 323.55 -31.1 326.0 L-31.25 326.3 M-386.45 291.25 Q-387.25 292.25 -387.9 292.25 -390.0 292.25 -390.65 290.65 L-390.9 288.9 Q-390.9 287.05 -388.65 285.45 -386.1 283.7 -379.8 281.55 -373.2 279.25 -367.4 280.85 -362.4 282.25 -362.4 284.5 -362.4 286.45 -365.6 286.7 L-376.65 287.5 Q-382.25 288.2 -385.4 290.0 L-386.45 291.25" fill="#ffffff" fill-opacity="0.101960786" fill-rule="evenodd" stroke="none"/>
  </g>
</svg>
