<?xml version="1.0" encoding="UTF-8" standalone="no"?>
<svg xmlns:xlink="http://www.w3.org/1999/xlink" height="345.5px" width="718.05px" xmlns="http://www.w3.org/2000/svg">
  <g transform="matrix(1.0, 0.0, 0.0, 1.0, 0.5, 0.5)">
    <path d="M0.0 344.5 L0.0 0.0 717.05 0.0 717.05 286.45 627.9 221.35 627.9 69.1 484.7 69.1 484.7 216.3 377.2 228.1 0.0 344.5" fill="url(#gradient0)" fill-rule="evenodd" stroke="none"/>
    <path d="M717.05 286.45 L717.05 344.5 0.0 344.5 493.7 226.35 617.9 226.35 676.05 273.4 717.05 286.45" fill="url(#gradient1)" fill-rule="evenodd" stroke="none"/>
    <path d="M0.0 344.5 L377.2 228.1 484.7 216.3 484.7 69.1 627.9 69.1 627.9 221.35 717.05 286.45 676.05 273.4 617.9 226.35 617.9 77.1 493.7 77.1 493.7 226.35 0.0 344.5" fill="url(#gradient2)" fill-rule="evenodd" stroke="none"/>
    <path d="M617.9 226.35 L493.7 226.35 493.7 77.1 617.9 77.1 617.9 226.35" fill="url(#gradient3)" fill-rule="evenodd" stroke="none"/>
    <path d="M0.0 344.5 L0.0 0.0 717.05 0.0 717.05 286.45 717.05 344.5 0.0 344.5 Z" fill="none" stroke="#000000" stroke-linecap="round" stroke-linejoin="round" stroke-width="1.0"/>
  </g>
  <defs>
    <linearGradient gradientTransform="matrix(0.0, 0.2606, -0.2102, 0.0, 350.35, 171.25)" gradientUnits="userSpaceOnUse" id="gradient0" spreadMethod="pad" x1="-819.2" x2="819.2">
      <stop offset="0.0" stop-color="#000000"/>
      <stop offset="1.0" stop-color="#333333"/>
    </linearGradient>
    <linearGradient gradientTransform="matrix(0.0, 0.0768, -0.072, -1.0E-4, 566.6, 213.45)" gradientUnits="userSpaceOnUse" id="gradient1" spreadMethod="pad" x1="-819.2" x2="819.2">
      <stop offset="0.0" stop-color="#cc8e00"/>
      <stop offset="1.0" stop-color="#282828"/>
    </linearGradient>
    <linearGradient gradientTransform="matrix(0.0, -0.2739, 0.1247, 0.0, 527.35, 222.35)" gradientUnits="userSpaceOnUse" id="gradient2" spreadMethod="pad" x1="-819.2" x2="819.2">
      <stop offset="0.0" stop-color="#373737"/>
      <stop offset="1.0" stop-color="#000000"/>
    </linearGradient>
    <linearGradient gradientTransform="matrix(1.0E-4, -0.0948, 0.091, 1.0E-4, 555.75, 151.75)" gradientUnits="userSpaceOnUse" id="gradient3" spreadMethod="pad" x1="-819.2" x2="819.2">
      <stop offset="0.0" stop-color="#eeb32b"/>
      <stop offset="1.0" stop-color="#282828"/>
    </linearGradient>
  </defs>
</svg>
