<?xml version="1.0" encoding="UTF-8" standalone="no"?>
<svg xmlns:xlink="http://www.w3.org/1999/xlink" height="212.55px" width="110.0px" xmlns="http://www.w3.org/2000/svg">
  <g transform="matrix(1.0, 0.0, 0.0, 1.0, 0.0, 0.0)">
    <path d="M90.55 14.45 L88.8 17.3 Q87.7 18.95 85.95 19.85 L82.2 20.05 79.1 18.75 78.05 18.8 Q77.65 18.4 77.15 18.35 L76.9 18.45 Q76.75 18.8 76.9 19.15 L78.15 22.75 Q79.0 25.25 78.4 27.75 77.8 30.3 75.55 32.0 L70.65 32.65 70.95 33.2 Q71.4 33.8 72.05 34.05 74.0 34.75 76.0 35.8 77.85 36.7 79.05 38.1 80.45 39.65 81.05 41.6 L82.45 45.8 Q83.25 48.1 82.75 50.45 82.45 52.0 83.05 53.55 L83.2 53.75 84.0 52.25 84.25 50.25 Q84.3 45.55 82.7 41.2 81.35 37.5 82.0 33.9 82.55 30.75 84.65 28.65 L85.35 28.4 88.75 29.15 Q91.75 29.95 94.15 32.0 96.5 33.95 96.85 36.65 L100.45 44.8 99.85 46.1 99.9 47.1 100.05 48.4 Q100.2 52.95 99.95 57.5 99.75 60.85 97.85 63.4 96.25 65.65 94.15 67.35 86.05 73.8 78.15 80.85 74.9 83.85 72.15 87.15 69.15 90.75 66.65 94.9 L64.35 99.2 62.25 103.6 60.4 107.6 Q59.45 109.65 59.1 111.8 58.65 114.35 59.7 116.85 60.75 119.2 60.75 121.7 60.75 125.1 59.4 128.15 L58.2 130.85 Q56.8 134.0 55.65 137.35 53.3 144.25 52.05 151.55 L49.65 165.65 48.5 172.2 47.5 177.7 47.0 180.75 45.9 187.55 44.5 196.5 44.2 198.65 44.0 201.55 43.85 202.9 43.7 203.8 43.6 204.65 43.1 207.0 42.5 209.7 42.45 210.05 Q41.05 210.65 39.55 210.85 L32.65 211.25 Q28.25 211.5 24.3 210.0 18.9 208.15 15.45 203.75 14.1 202.05 13.3 200.25 11.95 197.3 8.9 195.65 7.6 195.05 6.75 193.95 6.35 193.5 6.85 192.55 L5.15 191.8 5.55 190.6 5.95 189.6 7.85 183.8 11.75 170.8 15.75 156.95 Q18.9 146.25 20.15 135.1 L20.95 125.8 Q21.2 122.1 21.7 118.6 21.8 117.8 22.05 117.1 L22.6 115.25 Q23.3 112.95 24.65 110.65 25.2 109.8 25.2 108.9 L25.4 105.5 Q25.65 101.85 24.8 98.4 L23.55 93.5 22.7 90.35 21.9 87.2 Q19.45 77.85 17.85 68.5 16.8 62.65 16.45 56.7 L15.8 48.8 15.05 44.05 14.5 41.75 13.5 37.85 Q12.7 34.65 13.6 31.5 14.15 29.55 15.35 27.8 16.8 25.85 18.95 24.6 L21.1 23.3 23.6 21.45 25.85 20.0 Q27.35 19.0 29.05 18.4 35.25 15.9 41.5 14.45 L44.85 13.3 48.85 11.3 Q50.35 10.45 52.1 9.75 L53.5 9.3 55.45 8.65 56.05 8.4 58.9 7.55 60.5 7.45 62.1 7.7 62.2 8.0 83.15 1.05 91.75 12.2 90.55 14.45" fill="url(#gradient0)" fill-rule="evenodd" stroke="none"/>
    <path d="M91.5 9.15 Q95.45 16.6 96.6 19.75 98.25 24.25 98.25 29.55 L97.9 33.25 97.75 34.9 98.4 35.95 99.0 36.8 100.55 38.2 101.9 39.9 105.1 43.3 Q107.0 45.4 107.4 46.9 L108.05 50.35 Q108.5 52.7 109.0 54.05 109.85 56.45 110.0 57.85 L110.0 61.0 109.9 64.55 107.5 69.05 Q106.1 71.4 102.6 74.45 L100.45 76.95 97.6 80.4 95.9 83.95 Q94.85 86.25 94.0 87.3 L87.9 94.5 Q84.5 98.55 83.25 101.15 75.85 116.55 74.5 128.75 L72.45 142.5 Q70.9 151.4 70.5 156.3 L70.3 163.15 70.25 170.15 70.4 175.75 70.8 182.3 71.0 189.05 71.25 195.8 Q71.25 197.55 71.7 199.4 L72.1 202.4 Q72.1 203.4 70.65 203.9 L66.0 204.8 56.75 208.25 48.7 210.9 37.0 212.15 37.0 212.3 28.75 212.55 Q23.95 212.55 18.4 208.15 14.4 204.95 13.0 202.65 L11.55 200.0 Q10.75 198.7 9.0 197.55 L5.5 194.85 4.35 194.0 Q2.55 198.7 0.75 202.25 L0.15 202.25 Q0.0 202.45 0.0 201.85 L0.2 201.35 0.4 200.8 Q0.4 200.05 2.45 194.95 L3.15 193.25 1.85 192.55 Q1.75 192.05 1.95 191.9 L3.7 191.75 4.6 189.15 6.55 183.4 8.35 177.5 11.6 165.9 Q13.55 158.15 14.75 154.4 16.25 149.75 17.4 142.8 L19.1 131.15 20.35 119.55 Q21.0 116.0 22.1 112.85 22.95 110.55 23.8 109.45 L24.5 104.95 Q24.5 102.4 22.75 95.5 L20.4 87.05 Q17.55 76.55 16.4 69.4 15.5 63.9 14.85 51.8 14.6 47.3 13.5 43.0 L12.7 40.75 Q12.15 39.4 12.1 38.5 L11.85 34.2 Q11.85 31.9 12.5 30.35 13.05 29.05 14.35 27.65 15.1 26.6 17.5 24.85 L21.75 21.65 Q23.15 20.05 25.4 18.8 27.05 17.95 31.0 16.4 L38.4 14.0 46.0 11.5 Q48.1 10.7 50.65 9.1 53.5 7.65 58.75 6.65 L63.1 6.65 63.15 6.75 Q64.25 6.15 66.6 5.2 L71.6 3.3 75.9 1.55 Q78.1 0.65 82.75 0.0 83.5 -0.1 85.35 1.55 L87.75 4.0 Q89.9 6.15 91.5 9.15 M90.55 14.45 L91.75 12.2 83.15 1.05 62.2 8.0 62.1 7.7 60.5 7.45 58.9 7.55 56.05 8.4 55.45 8.65 53.5 9.3 52.1 9.75 Q50.35 10.45 48.85 11.3 L44.85 13.3 41.5 14.45 Q35.25 15.9 29.05 18.4 27.35 19.0 25.85 20.0 L23.6 21.45 21.1 23.3 18.95 24.6 Q16.8 25.85 15.35 27.8 14.15 29.55 13.6 31.5 12.7 34.65 13.5 37.85 L14.5 41.75 15.05 44.05 15.8 48.8 16.45 56.7 Q16.8 62.65 17.85 68.5 19.45 77.85 21.9 87.2 L22.7 90.35 23.55 93.5 24.8 98.4 Q25.65 101.85 25.4 105.5 L25.2 108.9 Q25.2 109.8 24.65 110.65 23.3 112.95 22.6 115.25 L22.05 117.1 Q21.8 117.8 21.7 118.6 21.2 122.1 20.95 125.8 L20.15 135.1 Q18.9 146.25 15.75 156.95 L11.75 170.8 7.85 183.8 5.95 189.6 5.55 190.6 5.15 191.8 6.85 192.55 Q6.35 193.5 6.75 193.95 7.6 195.05 8.9 195.65 11.95 197.3 13.3 200.25 14.1 202.05 15.45 203.75 18.9 208.15 24.3 210.0 28.25 211.5 32.65 211.25 L39.55 210.85 Q41.05 210.65 42.45 210.05 L42.5 209.7 43.1 207.0 43.6 204.65 43.7 203.8 43.85 202.9 44.0 201.55 44.2 198.65 44.5 196.5 45.9 187.55 47.0 180.75 47.5 177.7 48.5 172.2 49.65 165.65 52.05 151.55 Q53.3 144.25 55.65 137.35 56.8 134.0 58.2 130.85 L59.4 128.15 Q60.75 125.1 60.75 121.7 60.75 119.2 59.7 116.85 58.65 114.35 59.1 111.8 59.45 109.65 60.4 107.6 L62.25 103.6 64.35 99.2 66.65 94.9 Q69.15 90.75 72.15 87.15 74.9 83.85 78.15 80.85 86.05 73.8 94.15 67.35 96.25 65.65 97.85 63.4 99.75 60.85 99.95 57.5 100.2 52.95 100.05 48.4 L99.9 47.1 99.85 46.1 100.45 44.8 96.85 36.65 Q96.5 33.95 94.15 32.0 91.75 29.95 88.75 29.15 L85.35 28.4 84.65 28.65 Q82.55 30.75 82.0 33.9 81.35 37.5 82.7 41.2 84.3 45.55 84.25 50.25 L84.0 52.25 83.2 53.75 83.05 53.55 Q82.45 52.0 82.75 50.45 83.25 48.1 82.45 45.8 L81.05 41.6 Q80.45 39.65 79.05 38.1 77.85 36.7 76.0 35.8 74.0 34.75 72.05 34.05 71.4 33.8 70.95 33.2 L70.65 32.65 75.55 32.0 Q77.8 30.3 78.4 27.75 79.0 25.25 78.15 22.75 L76.9 19.15 Q76.75 18.8 76.9 18.45 L77.15 18.35 Q77.65 18.4 78.05 18.8 L79.1 18.75 82.2 20.05 85.95 19.85 Q87.7 18.95 88.8 17.3 L90.55 14.45" fill="#000000" fill-rule="evenodd" stroke="none"/>
    <path d="M57.05 127.45 L53.9 127.55 55.2 127.65 56.9 127.55 57.05 127.45 M59.4 129.55 L60.9 130.3 62.15 130.15 62.3 129.7 62.4 130.45 62.4 130.55 62.05 130.65 59.5 130.0 57.65 129.05 Q57.4 129.9 57.4 131.8 L57.15 131.8 57.15 128.8 Q58.0 128.8 59.4 129.55 M60.55 128.4 Q59.6 127.95 57.95 128.05 L55.15 128.3 Q53.8 128.3 52.8 127.8 53.45 127.25 56.15 127.2 L60.9 127.3 Q63.45 128.2 64.3 128.9 64.95 129.4 64.95 130.2 64.95 131.7 62.4 132.7 59.8 133.65 55.2 133.8 60.75 134.7 63.65 135.55 L52.3 133.8 52.2 133.3 Q64.55 133.7 64.55 130.2 64.55 129.7 63.8 128.9 62.7 127.8 60.95 127.8 L59.9 127.95 60.55 128.3 60.55 128.4 M41.3 128.2 L42.65 131.55 Q41.95 131.15 41.15 128.2 L41.3 128.2 M43.7 125.75 Q45.6 127.15 48.15 127.8 44.35 127.25 41.55 124.45 42.0 124.5 43.7 125.75 M44.3 133.7 L45.45 135.8 46.8 135.7 Q46.65 135.45 46.8 135.05 L46.8 134.85 47.2 134.8 Q47.45 134.8 50.55 136.45 53.6 138.05 54.05 138.05 55.8 138.05 56.05 137.7 L56.55 137.2 Q56.35 138.45 54.05 138.45 52.85 138.45 50.25 137.05 L47.3 135.3 Q47.15 135.4 47.15 136.05 L45.65 136.15 45.9 136.65 Q47.4 139.6 47.4 140.35 L47.05 142.3 46.9 142.3 47.05 140.55 Q47.05 139.95 45.7 136.95 L45.35 136.2 43.8 136.3 40.0 136.2 39.3 135.65 39.1 135.55 39.05 135.1 Q39.05 134.55 39.55 133.9 40.05 133.3 40.65 133.05 L39.55 134.95 40.2 135.6 44.8 135.8 45.15 135.8 44.15 133.7 44.3 133.7 M40.6 143.4 L40.8 143.05 Q42.35 143.4 43.6 144.1 44.95 144.85 44.95 145.6 L44.8 146.25 45.35 151.4 45.65 155.95 45.5 158.0 45.15 160.05 Q44.8 160.8 43.8 161.3 L44.1 162.1 Q44.95 163.05 48.4 163.25 47.8 162.3 47.8 161.0 47.8 159.1 50.5 160.4 L52.3 161.3 Q52.3 159.85 50.4 157.25 48.45 154.7 48.45 153.2 48.45 151.85 49.7 151.35 52.85 150.15 54.05 149.45 L56.15 147.5 Q57.45 146.0 57.45 145.1 57.45 143.65 55.35 143.65 L52.8 144.15 Q50.95 144.6 50.55 144.9 L51.6 145.35 52.8 145.8 Q53.15 146.05 52.55 146.05 L50.7 145.75 Q49.95 145.4 49.95 144.95 49.95 143.55 54.0 143.05 58.05 142.55 58.05 145.15 58.05 147.3 54.9 149.5 55.95 149.65 57.6 150.45 60.95 152.05 61.55 152.05 L60.2 152.55 Q60.5 153.8 59.4 154.8 58.3 155.8 56.7 155.8 53.5 155.8 51.55 153.55 52.4 152.45 53.3 152.45 53.8 152.5 53.05 152.8 52.05 153.2 51.95 153.4 53.75 155.2 56.6 155.2 58.25 155.2 59.15 154.3 59.85 153.65 59.8 152.9 L57.7 152.65 Q55.85 152.55 54.95 151.8 54.3 151.15 53.9 150.15 L53.55 150.35 Q49.05 153.0 49.05 153.3 49.05 154.35 50.95 156.95 52.8 159.6 52.8 160.7 L52.75 161.55 57.05 163.65 57.15 163.8 Q56.4 163.7 53.25 162.0 L52.75 161.75 52.45 162.55 Q51.65 163.6 49.25 163.8 49.95 164.6 51.05 165.0 L54.05 165.05 54.15 165.3 53.25 165.3 51.95 165.35 52.3 165.55 51.65 165.4 50.8 165.55 Q50.3 165.65 50.3 167.05 50.3 168.05 50.95 169.55 51.55 171.05 51.55 171.75 51.55 173.05 47.2 173.25 42.8 173.4 42.8 174.25 42.8 175.95 46.5 179.15 50.15 182.3 50.15 183.95 50.15 186.0 47.65 187.1 L45.0 188.1 47.05 188.65 47.15 188.8 44.5 188.3 44.4 188.4 47.35 189.4 Q49.15 189.9 50.15 190.7 L50.2 190.9 Q49.0 191.7 47.3 191.7 45.6 191.7 44.65 190.65 L43.8 189.3 41.8 188.3 41.55 188.3 41.45 188.7 Q41.45 189.2 42.15 191.3 L43.8 193.95 43.8 194.05 Q42.15 193.05 41.75 191.35 41.5 189.45 41.05 188.55 L41.5 188.15 39.55 186.9 39.55 186.3 Q39.8 186.3 41.65 187.25 L42.95 187.9 43.6 187.9 44.55 188.0 45.25 187.75 48.15 186.45 49.25 185.25 49.8 183.9 Q49.8 182.1 46.05 179.25 42.3 176.45 42.3 174.1 42.3 173.25 43.5 173.0 L50.95 172.4 51.05 171.75 Q51.05 171.3 50.45 169.8 49.8 168.3 49.8 167.05 49.8 165.85 50.15 165.5 50.35 165.25 50.75 165.1 49.5 164.6 48.8 163.8 L48.3 163.8 Q44.85 163.8 43.6 162.2 L43.35 161.5 43.3 161.5 41.55 162.05 41.4 163.6 41.55 163.45 41.6 163.4 41.65 163.85 41.45 164.3 Q41.5 165.0 42.1 167.05 42.8 169.35 43.05 169.7 L43.05 169.8 Q42.1 168.8 41.55 166.5 L41.15 164.5 39.15 164.95 35.3 165.4 34.8 166.05 Q41.55 167.35 41.55 171.15 41.55 173.05 38.85 175.1 36.2 177.15 31.65 178.8 L31.55 179.05 Q35.7 180.25 35.7 184.1 35.7 186.9 33.3 186.9 32.75 186.9 30.85 185.8 29.25 184.9 28.65 184.4 28.7 185.35 29.65 186.45 30.55 187.55 30.55 188.2 L30.45 189.3 Q30.65 189.45 30.05 189.45 L29.05 189.2 28.05 188.95 Q25.85 190.8 24.9 191.05 L24.8 191.05 Q30.0 192.7 31.65 193.55 33.65 194.65 33.65 196.05 L33.65 196.3 35.65 197.9 35.8 197.9 Q35.45 196.65 35.4 195.85 35.35 194.3 36.95 194.3 38.1 194.3 40.4 195.95 L41.1 196.6 42.9 197.05 41.9 197.3 Q42.45 197.7 43.65 199.6 44.95 201.6 44.95 202.35 44.95 203.65 43.3 203.65 41.0 203.65 39.05 201.1 L37.55 198.45 Q37.55 197.8 38.95 197.35 L40.55 196.95 Q38.05 194.95 36.85 194.95 36.2 194.95 36.05 195.5 L36.05 196.1 37.05 199.95 Q36.95 200.15 36.55 200.2 36.5 198.6 33.5 196.6 33.05 197.5 31.25 198.75 L27.25 200.95 27.3 201.8 26.6 201.95 25.5 201.65 Q23.05 202.65 22.5 203.9 L21.55 206.3 21.4 206.3 Q21.7 204.8 22.15 203.9 22.85 202.6 25.1 201.45 L22.25 199.85 Q18.65 197.7 17.9 197.55 L16.55 206.4 16.4 206.4 Q16.3 206.75 16.3 206.1 L17.55 197.2 17.1 197.2 Q15.4 197.2 14.9 196.5 L14.8 195.8 Q14.8 194.45 17.75 192.9 L19.7 191.55 14.8 190.9 Q12.1 190.6 10.05 189.3 L11.05 189.3 12.5 189.4 Q11.3 188.85 10.55 187.9 L9.55 185.4 Q9.55 183.35 11.35 181.5 L14.8 177.45 14.65 178.4 14.65 178.55 14.75 178.45 15.3 178.3 Q16.0 178.3 16.55 179.15 L16.95 179.9 19.65 179.8 19.65 179.9 17.05 180.3 17.05 180.55 16.8 181.4 Q16.55 181.95 16.1 181.95 L15.25 181.8 15.05 183.05 Q15.05 184.3 16.75 187.15 L18.25 189.5 18.85 189.3 21.15 188.55 Q21.35 189.65 20.9 191.05 L20.9 191.15 23.4 191.05 25.95 190.0 Q27.3 189.35 27.7 188.8 L24.35 186.15 Q22.6 184.55 22.3 183.3 L22.35 183.0 Q22.4 182.8 22.8 182.8 L24.85 184.05 27.05 185.7 28.15 187.2 Q28.7 188.25 28.3 188.7 L29.3 189.05 Q30.05 189.05 30.05 188.65 L30.05 188.25 29.6 187.25 28.7 185.8 27.9 183.4 27.9 183.2 29.95 185.05 Q31.75 186.55 33.3 186.55 35.3 186.55 35.3 184.0 35.3 182.25 34.55 181.35 33.4 179.95 30.05 179.2 L37.2 175.4 Q41.05 173.4 41.05 171.2 41.05 169.6 39.9 168.65 38.5 167.45 35.05 166.7 34.7 168.2 34.95 170.15 L34.9 170.45 32.95 168.55 Q31.7 167.15 31.8 166.3 32.35 165.95 33.3 165.9 L34.2 165.95 35.15 165.45 Q36.15 164.9 37.7 164.7 40.15 164.4 41.1 163.85 L41.05 162.85 Q41.05 161.45 42.95 161.05 L43.15 161.0 42.9 160.45 43.55 160.9 Q45.0 160.4 45.15 159.3 L45.4 155.95 45.35 152.55 44.65 147.9 44.65 146.4 42.9 146.65 Q44.55 148.7 44.55 149.45 L44.4 150.9 Q44.2 149.3 42.7 147.25 41.2 145.15 38.9 143.55 L39.7 144.1 40.8 144.65 Q40.55 144.5 40.55 143.95 L40.6 143.4 M41.9 145.15 Q42.8 146.05 43.3 146.05 L44.45 145.95 44.55 145.6 Q44.55 145.05 43.5 144.4 42.4 143.75 41.15 143.65 L41.1 143.55 41.05 143.9 Q41.05 144.3 41.9 145.15 M62.15 142.95 L62.3 142.95 63.65 147.05 63.3 147.05 62.7 145.0 62.15 142.95 M39.55 106.45 L40.65 109.3 Q40.15 109.05 39.85 108.0 L39.4 106.55 39.55 106.45 M30.05 116.05 L30.4 116.3 29.9 116.45 31.3 118.2 32.8 120.2 32.8 120.3 30.7 118.15 Q29.6 116.8 29.65 115.95 L30.05 116.05 M29.9 120.2 L30.4 120.5 30.2 120.55 Q30.3 121.6 31.3 124.3 L32.3 127.05 Q32.3 127.7 31.35 128.3 29.95 129.2 27.05 129.4 L26.85 129.45 26.8 129.85 Q26.8 131.1 30.1 133.85 L34.3 137.05 Q35.35 136.8 35.25 136.1 35.2 135.3 36.05 135.05 L36.3 135.15 36.4 135.7 36.1 136.85 35.8 138.15 35.65 140.55 Q35.25 140.2 35.25 139.15 L35.3 137.45 Q33.3 137.15 29.85 134.2 26.3 131.25 26.3 129.75 26.3 129.35 26.45 129.2 L26.65 129.05 Q27.55 127.5 28.3 128.15 L30.45 128.3 31.3 127.5 31.7 126.95 30.75 124.1 Q29.8 121.55 29.8 120.8 L29.9 120.2 M40.05 117.45 L40.4 122.55 40.15 122.55 39.9 117.45 40.05 117.45 M31.15 121.05 Q32.05 121.8 33.15 122.05 L33.15 122.15 Q32.15 122.1 31.3 121.35 L30.55 120.6 31.15 121.05 M35.8 135.65 L35.8 136.45 36.15 135.55 35.8 135.65 M25.25 133.2 Q28.85 132.8 30.4 135.15 30.95 136.2 31.2 137.8 L32.4 139.15 33.2 140.2 32.75 140.85 Q32.05 141.3 31.65 141.9 L31.4 141.8 Q32.8 140.65 32.8 140.2 L32.3 139.3 31.2 138.45 30.8 141.55 Q30.15 143.3 27.3 144.65 28.1 145.3 28.55 146.4 L29.15 148.4 29.15 148.55 Q28.05 148.2 27.2 147.0 26.45 145.95 26.4 145.05 L26.5 145.0 25.65 144.95 Q24.35 144.9 24.05 143.3 L24.1 143.2 Q24.15 143.05 24.55 143.05 25.75 143.05 27.0 144.15 28.35 144.15 29.4 143.15 30.35 142.25 30.45 141.3 L30.8 138.8 Q30.8 137.85 30.25 137.45 29.15 136.7 25.9 137.05 L23.25 138.0 Q22.7 138.2 22.2 137.05 L22.05 137.05 25.65 142.55 25.65 142.65 23.05 138.95 Q21.45 136.6 19.05 135.55 L21.0 136.15 22.05 136.6 21.95 136.4 21.8 135.3 Q21.8 133.6 25.25 133.2 M22.2 135.7 Q22.2 136.7 24.65 136.65 28.35 136.55 30.8 137.55 L30.8 137.1 Q30.8 134.15 26.5 133.75 22.2 133.35 22.2 135.7 M25.55 137.45 L26.15 138.05 26.15 138.15 25.4 137.55 25.55 137.45 M28.95 141.65 Q28.8 141.6 28.8 141.0 28.8 140.15 30.05 140.45 L30.2 141.2 29.8 141.7 28.95 141.65 M24.9 144.3 L26.45 144.2 Q26.3 143.95 25.6 143.75 L24.55 143.55 24.45 144.0 24.9 144.3 M21.65 145.4 Q16.8 146.05 16.8 150.1 16.8 151.4 18.15 153.55 L19.05 154.75 Q19.1 153.15 19.55 152.45 L19.4 153.8 19.55 155.25 Q21.0 156.55 22.8 156.55 24.7 156.55 25.65 155.55 L24.7 154.55 24.8 154.3 26.3 154.2 26.4 151.75 Q26.4 151.15 25.45 150.3 24.35 149.3 23.05 149.3 L19.3 149.55 22.8 152.15 22.8 152.3 20.8 151.0 18.8 149.65 19.3 149.05 22.8 148.8 Q26.7 148.8 26.7 153.25 L26.6 154.2 Q31.5 153.65 33.35 151.4 34.25 150.25 34.55 147.3 35.7 147.75 37.0 149.9 L39.2 153.05 39.9 151.95 40.05 151.95 39.75 152.5 Q39.45 152.95 39.45 153.3 L41.45 155.3 41.4 155.55 40.3 154.85 39.2 153.8 Q38.95 154.8 36.7 156.45 L36.65 156.9 Q36.65 158.35 37.3 159.65 L37.4 159.8 Q36.95 159.45 36.65 158.4 L36.4 156.9 36.4 156.7 35.2 157.5 Q31.45 160.0 31.05 161.05 L25.9 155.85 Q25.1 156.95 23.55 156.95 21.4 156.95 19.6 155.6 19.9 156.85 20.6 158.15 L22.05 156.95 20.8 158.55 22.05 160.35 Q24.65 163.55 27.05 163.55 L29.25 163.0 31.05 162.4 31.15 162.3 31.2 162.65 30.45 164.9 Q30.45 167.65 32.95 171.05 L32.9 171.2 Q32.4 170.95 31.3 169.05 30.3 167.3 29.8 167.3 28.6 167.3 28.1 168.95 L27.8 170.7 Q27.8 172.95 28.55 174.4 29.7 176.75 32.55 176.4 L32.65 176.55 32.45 176.85 31.9 176.95 Q29.1 176.95 27.9 173.9 L27.3 170.7 Q27.3 169.05 28.1 167.7 29.1 166.1 30.4 167.05 29.55 164.95 30.45 163.15 L28.45 163.55 27.05 163.9 Q23.65 163.9 21.05 159.65 L20.7 159.05 20.65 159.65 Q20.65 160.85 21.35 162.05 L23.05 164.3 18.95 164.05 Q19.0 164.5 19.95 165.2 L21.4 166.3 Q20.45 166.1 19.1 164.7 L17.3 163.2 Q17.3 162.65 17.65 162.55 L19.45 163.3 22.15 163.7 Q20.9 162.15 20.6 161.45 L20.4 159.7 20.45 158.6 Q19.15 156.35 19.05 155.15 L18.3 154.4 Q16.3 152.2 16.3 150.2 16.3 148.25 17.05 147.2 18.25 145.45 21.65 145.3 L21.65 145.4 M26.6 145.05 Q27.35 146.7 28.8 148.05 28.6 146.5 27.8 145.55 27.45 145.15 26.6 145.05 M32.95 152.65 Q30.6 154.35 26.4 154.9 L26.25 155.2 Q28.0 156.5 30.9 160.05 31.05 159.3 35.05 156.9 L36.5 156.0 36.65 155.4 Q37.0 154.6 38.05 154.2 37.35 154.95 37.05 155.65 38.9 154.25 38.9 153.45 L35.05 148.05 35.05 149.3 Q35.05 151.15 32.95 152.65 M26.05 154.95 L25.95 154.95 26.0 155.0 26.05 154.95 M22.8 170.55 L16.3 170.15 15.95 170.05 Q15.55 170.05 15.55 170.4 15.55 171.4 17.25 172.55 19.45 174.0 22.8 173.55 L22.9 174.2 22.55 175.7 22.05 177.05 21.9 177.05 22.65 174.05 22.65 173.95 Q19.2 174.4 16.85 172.85 14.95 171.55 14.95 170.2 14.95 169.25 17.25 169.55 L22.8 170.4 22.8 170.55 M32.3 166.3 Q32.2 166.3 32.2 166.65 32.2 167.25 33.1 168.35 L34.45 169.8 34.55 169.8 34.2 166.45 32.4 166.4 32.3 166.3 M15.95 178.8 L14.9 178.9 14.7 179.2 15.1 180.35 15.3 180.75 16.5 180.0 16.35 179.75 16.05 179.15 15.95 178.8 M14.6 180.95 L14.3 179.2 Q10.05 182.6 10.05 185.5 10.05 186.5 11.3 187.8 13.05 189.7 16.1 189.7 L17.85 189.55 Q16.6 188.1 15.7 186.5 14.55 184.5 14.55 183.0 14.55 182.1 14.85 181.5 L14.6 180.95 M16.4 181.1 L16.55 180.5 Q15.95 180.75 15.6 181.2 L15.9 181.45 16.4 181.1 M5.9 197.5 Q5.55 197.9 5.55 198.85 5.55 200.0 7.0 201.4 8.7 203.15 10.8 202.15 L11.0 202.2 11.05 202.6 10.95 203.05 Q7.7 202.85 6.15 201.2 5.05 200.05 5.05 198.8 5.05 197.1 7.1 196.2 L12.3 193.7 10.55 195.2 10.3 195.4 Q11.3 195.65 12.0 196.35 L12.55 197.25 12.3 198.05 11.8 198.55 Q9.0 198.55 8.35 197.6 L8.15 196.4 Q6.4 196.95 5.9 197.5 M10.05 197.95 L11.8 197.9 11.95 197.75 12.05 197.3 Q12.05 196.5 10.3 196.15 8.55 195.75 8.55 196.7 L9.05 197.45 Q9.6 197.95 10.05 197.95 M18.9 190.3 L17.3 190.55 18.8 190.65 20.15 191.0 Q20.7 190.2 20.7 189.4 L20.55 189.05 18.6 189.95 18.9 190.3 M19.7 192.15 L16.85 193.95 Q15.3 195.05 15.3 195.85 15.3 196.4 15.6 196.55 L19.45 196.65 19.9 196.8 18.7 197.05 18.3 197.1 Q19.75 197.4 22.75 199.2 L25.8 201.15 25.95 201.05 26.75 200.75 26.45 199.45 Q26.05 198.2 26.05 197.1 26.05 194.2 27.8 193.85 29.7 193.45 33.3 196.05 33.3 194.45 30.75 193.45 L23.45 191.1 23.75 191.6 Q24.1 192.4 24.05 193.55 L23.2 194.5 22.2 195.05 Q20.4 195.05 19.9 193.7 L19.7 192.15 M22.7 183.3 Q22.9 184.4 24.5 185.95 26.0 187.45 27.9 188.55 L28.1 188.45 28.15 187.9 Q28.15 186.8 26.25 185.45 L22.7 183.3 M23.55 192.7 Q23.55 191.0 21.95 191.2 20.3 191.45 20.3 192.7 L20.55 193.75 Q20.85 194.45 21.3 194.45 23.55 194.45 23.55 192.7 M26.65 195.7 Q26.4 196.35 26.55 197.05 26.55 197.8 26.9 199.3 L27.2 200.55 Q32.7 198.1 33.25 196.45 L33.05 196.3 Q30.05 194.4 29.3 194.4 27.2 194.4 26.65 195.7 M59.4 151.95 Q56.8 150.1 54.55 150.2 L55.55 151.35 Q56.65 152.2 57.7 152.2 L59.4 151.95 M48.3 160.3 L48.2 161.0 Q48.2 162.15 48.85 163.25 L48.85 163.3 50.55 163.3 Q51.6 163.3 52.05 162.3 L52.25 161.5 Q50.05 160.3 49.45 160.3 L48.3 160.3 M46.45 189.8 L44.2 189.3 Q44.2 191.3 47.8 191.3 L49.7 190.9 Q48.45 190.35 46.45 189.8 M41.2 187.55 L41.65 187.8 42.05 187.95 41.2 187.55 M38.55 197.8 Q38.05 198.15 38.05 198.6 38.05 199.4 39.65 201.15 41.55 203.2 43.35 203.2 L44.2 203.0 44.55 202.65 44.55 202.35 Q44.55 201.85 43.6 200.4 L42.3 198.7 40.9 197.4 Q39.3 197.25 38.55 197.8 M26.3 201.3 L26.15 201.35 26.3 201.45 Q26.8 201.85 26.8 201.2 L26.8 201.1 26.3 201.3" fill="#000000" fill-rule="evenodd" stroke="none"/>
    <path d="M92.3 10.2 L93.2 11.6 Q93.9 13.15 93.8 13.4 L93.5 14.25 94.0 17.5 Q94.0 18.7 93.6 19.65 93.1 20.75 92.95 22.65 L91.85 22.9 90.6 22.25 Q88.6 22.25 85.2 23.55 82.0 24.75 81.6 25.5 80.9 26.7 80.7 27.55 L80.5 29.3 Q80.5 30.8 81.0 32.2 81.45 33.6 81.45 35.65 81.45 36.05 81.95 37.35 82.45 38.6 82.45 39.6 L84.25 46.5 85.4 51.15 86.4 49.75 88.35 46.65 89.1 44.1 Q89.5 42.4 89.85 41.6 90.4 40.25 90.8 41.0 L91.8 43.85 Q93.8 49.25 97.9 49.25 99.3 49.25 100.1 48.0 L100.75 46.5 Q101.95 44.25 102.2 43.25 L102.6 43.25 102.75 44.3 Q102.75 45.4 102.15 46.85 L103.1 47.5 Q104.25 48.15 104.6 50.0 L104.6 50.1 Q105.6 50.05 105.95 52.0 L106.1 55.25 Q106.1 60.25 105.05 63.1 104.05 65.85 100.1 71.85 L95.35 80.05 Q92.4 85.15 89.1 88.35 87.6 89.9 82.0 96.6 L80.55 98.4 80.85 99.0 Q80.6 99.4 80.0 99.4 L79.7 99.4 78.85 100.55 Q77.0 103.05 76.75 104.85 76.55 106.45 74.8 108.9 L71.75 113.1 68.95 117.35 Q67.95 120.55 67.95 123.9 L68.5 131.5 67.3 139.5 Q65.95 147.45 65.75 149.25 64.85 157.5 62.7 166.85 62.0 170.0 61.65 175.7 L60.95 184.5 Q60.35 188.9 58.1 193.25 L56.7 195.6 54.45 197.75 Q53.5 198.4 52.5 198.65 L50.6 198.85 45.25 199.35 44.1 199.65 Q38.8 199.65 36.95 198.85 35.1 198.05 33.7 195.15 L32.4 192.95 32.45 195.0 32.1 195.5 Q31.35 194.75 31.35 192.65 L31.45 191.2 31.2 190.3 31.25 189.75 31.7 189.5 Q32.4 184.75 34.65 174.45 L38.1 159.5 Q39.5 153.45 44.05 141.05 47.6 131.45 47.6 126.8 L47.6 125.25 Q47.25 124.0 45.6 124.0 L41.15 124.6 38.6 125.15 Q31.4 125.15 28.6 123.5 L26.6 121.4 23.95 119.5 Q21.7 117.75 21.7 117.2 L21.85 116.5 22.4 116.7 22.45 116.55 22.8 115.4 23.0 115.1 23.45 113.9 23.45 113.75 23.8 112.95 24.05 112.15 Q25.7 107.45 25.7 103.55 L25.7 102.9 25.45 101.1 Q25.0 98.35 23.65 94.05 L21.6 87.1 Q21.6 86.55 22.0 86.15 L21.85 85.65 19.7 75.75 19.05 73.2 18.35 70.65 Q17.85 68.75 17.9 67.9 L18.0 65.75 17.6 61.4 17.1 56.3 16.5 52.1 Q16.15 50.1 16.1 48.05 L15.45 44.7 Q15.1 43.55 15.1 43.0 L15.1 42.3 14.8 39.3 14.35 33.4 14.4 31.7 Q14.55 30.75 15.35 30.25 16.05 31.05 16.6 33.05 L17.6 36.0 20.2 41.6 20.25 41.65 Q20.1 39.85 20.1 36.0 L20.2 30.7 Q20.55 27.65 22.35 25.4 22.95 24.65 24.85 23.25 L27.35 21.0 29.25 18.5 Q30.65 16.75 31.6 16.25 32.0 16.35 32.25 16.6 L34.85 15.65 37.45 14.5 39.4 14.1 41.6 13.65 44.35 12.5 Q46.05 11.75 46.75 11.75 47.9 10.6 48.7 10.4 L48.95 10.75 41.35 18.75 37.65 22.95 Q35.9 25.4 36.0 27.25 L36.0 39.0 36.1 39.0 Q38.15 32.4 40.3 28.25 43.4 22.05 48.1 17.5 48.7 17.65 48.75 18.0 44.95 25.75 44.5 31.25 L50.55 20.8 Q53.25 16.6 55.3 15.1 L57.35 13.55 63.0 10.15 68.15 5.8 Q71.15 3.2 72.2 3.25 L72.0 3.65 80.95 0.25 Q82.4 -0.55 84.95 1.05 87.05 2.4 87.95 3.75 90.55 7.05 91.45 9.0 L92.3 10.2 M90.35 43.6 L90.45 43.6 90.35 43.5 90.35 43.6 M63.6 6.75 Q63.6 7.75 57.85 10.25 L54.5 12.4 Q52.5 13.75 51.1 14.25 L50.6 14.0 52.45 12.15 53.85 10.4 54.8 8.3 Q55.0 7.75 56.0 7.75 L57.2 7.35 61.1 6.9 62.3 6.6 Q63.1 6.3 63.35 6.35 L63.5 6.3 63.6 6.75 M17.85 54.7 L17.95 54.65 17.75 54.1 17.85 54.7 M30.2 19.2 L30.2 19.1 30.15 19.15 30.2 19.2 M42.25 15.25 L42.35 15.15 42.25 15.2 42.25 15.25 M69.95 96.15 Q71.15 97.65 74.0 100.3 75.4 101.75 75.9 102.95 76.55 101.2 78.3 99.15 L74.55 97.95 69.95 96.15" fill="#000000" fill-opacity="0.101960786" fill-rule="evenodd" stroke="none"/>
  </g>
  <defs>
    <linearGradient gradientTransform="matrix(0.0582, 0.0, 0.0, 0.1283, 52.8, 106.05)" gradientUnits="userSpaceOnUse" id="gradient0" spreadMethod="pad" x1="-819.2" x2="819.2">
      <stop offset="0.0" stop-color="#c99c72"/>
      <stop offset="1.0" stop-color="#936539"/>
    </linearGradient>
  </defs>
</svg>
