<?xml version="1.0" encoding="UTF-8" standalone="no"?>
<svg xmlns:xlink="http://www.w3.org/1999/xlink" height="313.05px" width="199.5px" xmlns="http://www.w3.org/2000/svg">
  <g transform="matrix(1.0, 0.0, 0.0, 1.0, 0.0, 0.0)">
    <path d="M170.0 46.2 L171.2 49.3 Q179.75 51.9 186.6 57.45 189.85 60.15 190.65 64.25 191.4 67.9 190.7 71.75 190.35 73.9 189.2 75.9 195.55 80.6 198.9 87.75 199.85 89.8 199.3 91.85 198.15 96.1 195.35 99.4 191.3 104.25 186.5 108.4 L179.25 114.55 Q178.65 121.8 175.15 128.0 174.05 129.95 172.6 131.4 173.1 136.8 171.55 142.15 L168.6 152.05 Q165.8 161.2 159.0 167.9 154.9 171.9 151.7 176.6 149.85 179.3 147.6 181.7 144.9 184.65 143.25 188.15 141.2 192.5 140.05 197.25 136.0 213.85 133.05 230.65 128.65 255.95 125.15 281.4 124.4 287.1 123.95 292.8 L132.1 293.15 132.25 295.1 123.65 295.5 Q123.6 300.9 119.75 304.55 L118.8 305.2 109.8 304.75 Q108.5 304.45 107.35 303.7 105.3 302.2 102.8 302.15 92.45 302.05 82.65 305.35 73.45 308.5 64.25 310.9 56.0 313.0 47.5 313.05 40.65 313.05 34.1 311.25 32.3 310.8 30.65 309.85 20.45 304.0 11.75 296.2 8.75 299.25 4.2 299.2 L0.0 298.65 0.2 296.8 7.9 294.95 8.05 293.15 10.2 292.4 Q17.7 278.1 23.7 263.25 26.65 256.0 29.95 248.85 L33.3 241.3 Q37.7 231.1 42.7 221.05 47.65 211.1 51.5 200.8 55.6 190.0 58.6 178.9 L64.1 158.7 Q66.45 150.0 67.9 141.05 68.55 137.15 68.0 133.2 67.25 127.35 65.95 121.35 62.5 105.85 58.45 90.4 L57.2 86.3 Q54.45 78.2 56.6 69.85 57.95 64.65 61.35 60.5 61.35 54.3 62.45 48.3 62.85 45.95 64.6 44.25 65.85 43.1 67.2 42.05 71.2 27.85 76.95 14.1 78.35 10.75 81.75 9.9 L86.8 9.3 95.6 8.7 102.2 7.95 Q104.35 8.0 106.3 6.9 111.9 3.95 117.75 1.75 122.9 -0.05 128.35 0.0 131.2 0.05 133.3 2.2 L133.8 2.85 Q136.75 7.5 135.95 13.15 135.4 17.1 132.85 20.0 140.0 19.15 143.95 24.9 146.9 29.15 148.6 33.9 156.3 35.35 163.45 39.1 167.95 41.5 170.0 46.2 M176.45 67.55 Q179.9 62.35 181.0 54.85 L177.85 53.25 173.95 51.6 Q172.15 50.8 171.2 49.85 L171.1 50.5 Q171.2 50.75 170.6 50.75 170.7 51.85 172.9 55.15 L175.35 59.05 176.25 63.2 Q176.6 65.6 176.35 67.5 L176.35 67.65 176.45 67.55 M68.55 41.4 L68.65 41.45 68.65 41.5 68.65 41.75 Q66.05 44.1 63.9 47.1 63.5 47.65 63.4 48.35 62.4 53.95 61.7 59.5 61.45 61.5 60.65 63.45 L58.05 70.15 Q55.45 77.25 57.75 84.6 64.8 107.25 68.45 130.45 L69.35 137.3 Q69.65 139.9 69.0 142.4 L63.4 165.45 Q60.85 176.2 57.35 186.45 L51.2 204.65 Q48.45 212.75 44.4 220.3 37.45 233.1 32.15 246.8 L30.3 250.8 Q27.65 256.0 25.6 261.4 22.1 270.55 17.85 279.3 L11.45 292.7 102.95 292.75 109.7 248.15 Q110.1 245.35 109.65 242.5 L108.65 237.45 Q107.05 230.0 108.95 222.5 111.0 214.6 115.45 207.7 117.1 205.2 117.7 202.05 118.15 199.45 117.7 196.95 L117.1 195.25 Q115.65 192.65 112.75 191.75 111.35 191.25 109.8 191.25 L106.55 191.8 Q100.0 193.55 95.1 198.15 92.1 201.0 90.1 204.6 87.6 209.25 84.7 213.55 L82.35 216.0 80.5 217.4 Q77.2 201.25 85.4 187.35 L88.2 182.05 Q90.65 176.75 91.5 170.9 92.55 163.7 89.75 156.7 96.5 156.5 100.8 151.1 102.75 148.65 103.85 146.0 105.4 142.1 105.9 137.95 108.55 116.65 98.35 98.4 97.2 96.35 95.65 94.5 89.75 102.05 81.35 107.4 L80.5 107.4 Q77.4 100.25 79.4 92.75 80.85 87.35 82.9 82.15 L86.85 72.5 Q88.1 69.45 87.5 66.1 86.45 60.6 83.25 55.8 89.7 40.4 91.7 23.8 92.2 19.85 95.2 17.75 97.3 16.35 99.85 15.7 102.25 15.05 104.7 14.55 107.6 17.95 107.05 22.7 106.75 25.55 107.05 28.25 112.15 21.65 118.3 15.9 120.15 14.15 122.55 13.1 126.05 11.7 129.3 9.85 131.45 8.6 132.2 6.15 L132.85 3.5 129.05 1.3 Q131.0 7.6 124.95 10.0 120.35 11.8 115.35 11.7 111.85 11.5 108.9 10.0 108.45 9.85 108.2 9.3 111.35 9.1 114.0 7.95 118.55 6.0 122.8 3.4 L126.5 1.05 Q117.55 3.0 109.2 6.85 L102.65 9.75 84.75 10.2 Q80.15 9.8 78.3 14.15 L76.05 19.85 71.2 32.8 68.3 41.35 68.2 41.65 68.55 41.4 M183.0 109.35 L167.5 116.75 178.15 113.65 183.0 109.35 M129.15 87.2 Q134.45 86.2 137.35 81.55 139.95 77.5 141.75 73.0 143.55 68.5 144.4 63.85 144.95 60.85 142.25 59.8 137.75 62.9 135.05 67.65 132.6 71.9 129.25 75.35 123.85 80.9 128.0 87.15 L129.15 87.2 M148.45 35.25 L146.95 39.15 150.3 45.55 149.25 54.9 Q152.95 51.45 155.2 47.0 157.4 42.65 158.15 37.75 L148.45 35.25 M140.05 22.75 L132.1 21.05 125.05 25.5 Q123.45 26.5 122.15 27.9 117.2 33.2 114.15 39.6 110.05 48.1 107.6 57.05 L107.9 57.35 Q110.3 59.35 110.15 61.95 L109.85 62.0 Q106.95 61.6 105.2 59.15 L104.65 62.05 Q103.4 67.25 107.8 70.35 108.6 70.35 109.15 69.8 112.5 66.65 114.8 62.45 121.0 51.35 122.2 38.5 L122.6 35.95 Q123.65 32.05 126.5 29.15 L127.4 28.95 132.65 28.85 Q138.45 28.8 140.05 22.75 M64.35 309.05 L74.7 306.55 84.85 303.45 Q90.0 301.8 95.3 301.15 100.5 300.25 105.5 301.75 106.85 302.15 108.0 302.95 109.45 303.9 111.25 303.85 L117.1 304.55 Q119.25 304.5 120.35 302.45 122.1 299.25 122.35 295.5 L12.45 295.15 21.0 301.65 26.7 306.1 Q30.35 309.3 35.0 310.45 38.85 311.4 43.05 311.6 L49.55 311.65 57.0 310.45 64.35 309.05" fill="#000000" fill-rule="evenodd" stroke="none"/>
    <path d="M176.35 67.5 Q176.6 65.6 176.25 63.2 L175.35 59.05 172.9 55.15 Q170.7 51.85 170.6 50.75 171.2 50.75 171.1 50.5 L171.2 49.85 Q172.15 50.8 173.95 51.6 L177.85 53.25 181.0 54.85 Q179.9 62.35 176.45 67.55 L176.35 67.5 M183.0 109.35 L178.15 113.65 167.5 116.75 183.0 109.35 M68.3 41.35 L71.2 32.8 76.05 19.85 78.3 14.15 Q80.15 9.8 84.75 10.2 L102.65 9.75 109.2 6.85 Q117.55 3.0 126.5 1.05 L122.8 3.4 Q118.55 6.0 114.0 7.95 111.35 9.1 108.2 9.3 108.45 9.85 108.9 10.0 111.85 11.5 115.35 11.7 120.35 11.8 124.95 10.0 131.0 7.6 129.05 1.3 L132.85 3.5 132.2 6.15 Q131.45 8.6 129.3 9.85 126.05 11.7 122.55 13.1 120.15 14.15 118.3 15.9 112.15 21.65 107.05 28.25 106.75 25.55 107.05 22.7 107.6 17.95 104.7 14.55 102.25 15.05 99.85 15.7 97.3 16.35 95.2 17.75 92.2 19.85 91.7 23.8 89.7 40.4 83.25 55.8 86.45 60.6 87.5 66.1 88.1 69.45 86.85 72.5 L82.9 82.15 Q80.85 87.35 79.4 92.75 77.4 100.25 80.5 107.4 L81.35 107.4 Q89.75 102.05 95.65 94.5 97.2 96.35 98.35 98.4 108.55 116.65 105.9 137.95 105.4 142.1 103.85 146.0 102.75 148.65 100.8 151.1 96.5 156.5 89.75 156.7 92.55 163.7 91.5 170.9 90.65 176.75 88.2 182.05 L85.4 187.35 Q77.2 201.25 80.5 217.4 L82.35 216.0 84.7 213.55 Q87.6 209.25 90.1 204.6 92.1 201.0 95.1 198.15 100.0 193.55 106.55 191.8 L109.8 191.25 Q111.35 191.25 112.75 191.75 115.65 192.65 117.1 195.25 L117.7 196.95 Q118.15 199.45 117.7 202.05 117.1 205.2 115.45 207.7 111.0 214.6 108.95 222.5 107.05 230.0 108.65 237.45 L109.65 242.5 Q110.1 245.35 109.7 248.15 L102.95 292.75 11.45 292.7 17.85 279.3 Q22.1 270.55 25.6 261.4 27.65 256.0 30.3 250.8 L32.15 246.8 Q37.45 233.1 44.4 220.3 48.45 212.75 51.2 204.65 L57.35 186.45 Q60.85 176.2 63.4 165.45 L69.0 142.4 Q69.65 139.9 69.35 137.3 L68.45 130.45 Q64.8 107.25 57.75 84.6 55.45 77.25 58.05 70.15 L60.65 63.45 Q61.45 61.5 61.7 59.5 62.4 53.95 63.4 48.35 63.5 47.65 63.9 47.1 66.05 44.1 68.65 41.75 L68.65 41.5 68.65 41.45 68.55 41.4 68.3 41.35 M140.05 22.75 Q138.45 28.8 132.65 28.85 L127.4 28.95 126.5 29.15 Q123.65 32.05 122.6 35.95 L122.2 38.5 Q121.0 51.35 114.8 62.45 112.5 66.65 109.15 69.8 108.6 70.35 107.8 70.35 103.4 67.25 104.65 62.05 L105.2 59.15 Q106.95 61.6 109.85 62.0 L110.15 61.95 Q110.3 59.35 107.9 57.35 L107.6 57.05 Q110.05 48.1 114.15 39.6 117.2 33.2 122.15 27.9 123.45 26.5 125.05 25.5 L132.1 21.05 140.05 22.75 M148.45 35.25 L158.15 37.75 Q157.4 42.65 155.2 47.0 152.95 51.45 149.25 54.9 L150.3 45.55 146.95 39.15 148.45 35.25 M129.15 87.2 L128.0 87.15 Q123.85 80.9 129.25 75.35 132.6 71.9 135.05 67.65 137.75 62.9 142.25 59.8 144.95 60.85 144.4 63.85 143.55 68.5 141.75 73.0 139.95 77.5 137.35 81.55 134.45 86.2 129.15 87.2" fill="url(#gradient0)" fill-rule="evenodd" stroke="none"/>
    <path d="M180.35 52.7 L182.05 54.15 Q182.5 54.6 182.5 55.2 L182.0 56.3 181.5 57.2 181.75 58.1 182.0 59.0 Q182.0 59.65 180.1 64.45 179.4 68.05 178.9 68.65 178.5 69.05 176.5 69.05 176.1 69.05 175.6 69.45 175.1 69.85 174.6 69.85 173.7 69.85 173.35 69.15 L173.1 68.45 Q173.1 68.05 173.65 66.6 L174.35 65.05 174.45 64.95 Q170.1 63.85 170.1 61.6 170.1 60.75 170.45 59.95 L171.45 58.05 Q169.6 56.85 168.85 55.95 L168.0 54.95 Q167.75 54.6 167.75 54.1 L168.35 52.6 167.95 51.4 Q167.95 49.75 169.8 48.8 172.05 47.65 175.1 50.05 L177.4 51.1 Q179.55 52.05 180.35 52.7 M184.0 107.75 Q184.0 109.3 183.4 110.4 182.7 111.6 180.85 112.95 L178.0 115.6 Q175.8 117.6 175.1 117.6 L174.55 117.35 173.95 117.1 Q170.75 119.7 169.6 119.7 168.55 119.7 168.25 119.05 L168.2 118.35 Q168.2 117.65 168.7 116.95 L166.95 117.85 Q165.9 117.85 165.5 117.3 L165.35 116.65 Q165.35 115.95 170.45 112.4 L175.75 108.8 Q181.45 104.3 183.1 104.65 184.0 104.85 184.0 107.75 M133.95 6.85 Q133.45 8.7 132.6 8.7 L132.45 8.7 131.75 10.65 Q130.25 14.5 128.2 14.45 L128.5 14.95 128.75 15.6 Q128.75 16.15 128.25 16.55 127.8 16.95 127.35 16.95 126.2 16.95 125.95 15.6 L125.75 13.95 124.4 14.2 123.0 14.55 122.4 15.05 121.95 15.7 Q121.95 16.0 122.25 16.3 L122.5 16.9 Q122.5 17.9 120.7 18.8 117.85 20.2 116.75 21.05 L114.85 23.05 112.95 25.35 109.45 30.2 Q107.0 33.6 106.2 33.6 104.4 33.6 103.7 32.65 L103.35 31.7 Q103.35 30.15 105.95 26.8 L104.7 25.4 Q103.85 24.55 103.85 24.0 103.85 23.55 104.75 22.6 L105.6 21.35 105.35 20.65 105.1 20.1 104.6 20.1 Q103.5 20.1 103.1 19.45 L102.7 18.8 Q99.6 19.8 95.7 19.7 L95.85 20.25 96.0 20.95 Q96.0 21.55 93.6 29.2 90.8 38.2 89.7 42.95 L88.7 45.75 Q88.0 47.45 87.85 48.6 87.6 50.25 87.5 54.05 L87.1 59.45 87.0 61.1 87.25 61.3 87.9 61.35 Q89.15 61.55 89.55 62.2 L90.7 60.1 90.85 60.1 89.75 62.7 89.75 62.9 89.7 63.45 90.45 64.3 95.95 71.2 Q102.25 79.65 108.6 85.1 111.95 88.05 113.75 92.0 114.85 94.3 116.35 98.95 L119.7 106.2 Q121.25 109.45 121.25 112.75 L120.95 115.7 120.6 118.0 121.55 119.85 Q122.5 121.5 122.5 122.75 122.5 124.7 121.7 128.65 120.85 132.6 120.85 135.15 120.85 142.45 127.95 141.85 L132.8 141.45 Q135.0 141.6 135.0 143.75 135.0 145.3 128.35 153.7 121.7 162.05 121.7 165.75 121.7 167.6 123.1 168.8 123.85 169.45 124.9 169.85 L124.55 167.1 Q123.95 164.05 123.95 162.7 123.95 161.5 124.85 160.55 125.85 159.45 126.6 162.1 127.0 162.75 127.1 164.15 L127.25 166.2 127.9 170.5 130.1 170.6 Q134.1 170.6 134.7 169.4 L134.9 168.6 Q135.05 168.2 135.6 168.2 136.6 168.2 136.85 169.7 136.85 171.1 135.8 171.85 133.95 173.2 128.95 173.2 L128.0 173.2 128.0 174.6 Q128.0 183.1 127.3 188.85 L125.1 205.8 124.1 213.5 123.25 221.35 122.75 229.05 Q122.45 233.75 121.85 236.95 L118.95 252.45 115.85 268.05 Q112.4 283.9 111.0 287.8 107.05 298.6 100.75 298.6 L97.2 298.2 94.2 297.8 80.95 297.1 72.85 296.25 59.1 295.85 50.5 296.35 46.1 296.8 44.95 296.7 Q38.1 296.3 35.35 294.4 L34.2 293.3 33.5 295.7 Q33.1 295.4 32.75 294.25 L32.45 293.15 Q32.45 287.5 36.7 275.9 39.7 267.65 43.35 260.05 53.5 239.3 58.2 227.2 60.85 220.5 66.35 210.75 L76.1 194.2 Q78.2 190.5 79.9 185.9 L82.6 177.7 Q84.55 171.65 84.95 169.45 L85.75 165.8 85.7 165.2 85.85 162.1 85.6 158.8 Q84.8 156.05 82.15 156.05 77.5 156.05 74.25 164.1 72.6 168.2 71.75 172.6 71.35 172.3 71.15 171.6 L71.0 170.9 72.05 165.4 Q73.1 160.55 73.1 155.05 73.1 151.45 71.05 149.05 L70.65 148.6 70.1 148.7 Q68.85 148.7 68.35 146.95 L68.1 145.1 Q68.1 142.9 68.45 140.75 L68.75 135.4 Q68.75 130.8 67.25 122.45 65.9 115.05 64.5 110.3 57.85 87.25 57.85 85.45 L57.4 83.25 56.75 80.85 56.4 77.25 Q55.75 75.35 55.75 73.7 L55.95 72.1 Q56.3 70.8 57.1 70.8 58.15 70.8 58.05 72.55 58.0 75.1 58.95 76.7 L60.1 79.6 Q61.8 82.2 65.7 82.2 69.6 82.2 72.95 78.65 74.35 77.2 77.35 72.55 77.95 71.6 78.8 68.1 79.7 64.45 79.7 62.6 L78.9 58.05 Q78.1 54.3 78.1 51.25 78.1 44.8 79.2 40.55 L82.6 28.1 Q83.15 25.8 84.45 22.4 L86.7 16.7 Q87.3 15.1 88.9 13.75 90.7 12.3 93.35 11.55 96.45 10.7 103.25 10.7 L105.75 9.95 109.75 8.85 112.85 8.35 Q115.25 8.35 115.25 9.45 L115.25 9.5 Q116.6 8.95 117.35 8.95 118.25 8.95 119.95 9.7 L123.5 8.2 127.75 6.1 129.0 4.35 Q129.6 3.2 130.95 3.2 L131.05 3.2 Q130.45 2.85 129.45 2.85 128.75 2.85 128.45 3.8 128.15 4.7 127.6 4.7 126.75 4.7 126.45 3.85 L126.35 3.1 Q126.35 2.05 128.45 0.9 130.5 -0.25 131.6 0.1 132.85 1.0 133.65 2.5 134.35 3.75 134.35 4.7 L133.95 6.85 M123.45 23.85 L123.75 24.45 124.45 24.75 125.35 25.05 Q125.85 25.05 127.4 23.1 129.15 20.9 131.1 20.2 133.15 19.45 135.25 20.25 L137.6 21.45 139.5 21.55 Q140.35 21.5 140.85 22.45 L141.25 23.65 Q141.25 24.3 140.05 26.2 L138.5 28.6 Q137.5 31.05 134.6 33.45 L134.45 33.45 Q135.2 32.8 135.0 32.2 L134.6 30.85 Q134.6 29.75 135.1 28.8 L135.1 28.7 Q129.0 29.15 127.7 29.85 126.55 30.5 126.1 31.45 125.8 32.0 125.6 33.2 127.25 33.45 127.25 34.65 127.25 35.4 125.35 38.7 127.0 38.6 127.0 40.25 127.0 40.85 126.0 43.2 127.75 43.2 127.75 44.95 127.75 45.55 124.6 50.85 121.1 56.85 120.35 58.55 L117.35 65.3 116.5 66.95 116.0 67.9 Q115.5 68.35 114.1 68.3 114.0 69.15 113.35 69.8 112.35 70.8 110.55 70.8 109.55 70.8 109.1 69.9 L108.85 68.95 109.05 67.95 109.35 67.05 108.95 67.7 108.0 68.55 106.85 68.95 Q106.6 69.35 106.6 69.7 L106.45 71.25 Q106.15 72.45 105.0 72.45 104.2 72.45 103.95 71.45 L103.85 70.45 Q103.85 67.4 106.85 57.4 109.3 49.3 110.35 46.8 114.65 36.25 115.9 33.5 120.55 23.2 122.35 23.2 123.05 23.2 123.45 23.85 M158.1 36.7 L160.2 37.2 Q161.2 37.45 161.2 38.4 161.2 38.95 159.85 39.95 L159.4 40.55 158.6 41.2 160.0 42.15 Q160.5 42.45 160.5 42.9 160.5 43.6 159.4 44.95 L157.5 47.2 157.45 47.35 Q158.85 46.95 159.3 47.7 L159.5 48.85 Q159.5 49.6 157.95 52.8 157.7 53.25 157.7 52.6 L157.95 51.65 158.2 50.7 158.15 50.3 158.1 50.3 158.0 50.1 Q156.0 51.2 152.5 56.1 L149.4 59.9 149.5 60.15 Q149.5 60.95 146.6 64.95 147.4 65.15 147.65 65.8 147.9 66.35 147.7 66.95 149.25 66.9 149.25 68.5 L145.0 76.2 Q140.7 83.6 140.7 85.1 L140.25 86.15 Q139.75 87.1 139.75 87.45 139.75 88.0 138.85 89.2 137.75 90.6 136.85 90.6 135.8 90.6 135.5 89.65 L135.35 88.6 135.25 88.45 133.35 88.7 132.1 89.35 Q131.15 89.35 130.9 89.0 L130.6 88.35 129.7 89.1 Q128.35 89.1 128.0 88.35 L127.85 87.55 127.25 86.75 126.6 86.05 126.0 87.0 Q125.55 87.6 124.95 87.6 123.55 87.6 123.2 86.9 L123.1 86.15 Q123.1 83.75 128.1 75.75 130.1 72.55 133.85 67.1 L140.1 57.7 Q141.5 55.55 144.1 53.05 144.55 52.6 145.35 52.1 145.35 50.8 147.45 48.05 148.3 46.95 148.4 45.95 148.5 44.95 149.0 44.3 L149.0 44.2 147.2 45.3 Q146.1 45.3 145.6 44.5 L145.2 43.55 143.85 42.65 Q143.6 42.3 143.6 41.8 143.6 40.1 145.5 40.1 L144.85 39.6 144.65 39.45 144.6 38.95 144.85 38.45 145.1 37.95 144.85 37.3 144.6 36.7 Q144.6 35.25 146.95 34.45 149.65 33.6 152.95 35.05 154.1 35.75 158.1 36.7 M108.75 12.7 L110.75 11.8 107.45 12.7 108.75 12.7 M147.35 55.55 L147.65 55.75 147.55 55.6 147.45 55.45 147.35 55.55 M141.2 82.85 L141.95 81.2 140.55 84.05 141.2 82.85" fill="#000000" fill-opacity="0.101960786" fill-rule="evenodd" stroke="none"/>
  </g>
  <defs>
    <linearGradient gradientTransform="matrix(0.0741, 0.0, 0.0, 0.178, 72.15, 146.9)" gradientUnits="userSpaceOnUse" id="gradient0" spreadMethod="pad" x1="-819.2" x2="819.2">
      <stop offset="0.0" stop-color="#e2d5cf"/>
      <stop offset="1.0" stop-color="#ac8075"/>
    </linearGradient>
  </defs>
</svg>
