<?xml version="1.0" encoding="UTF-8" standalone="no"?>
<svg xmlns:xlink="http://www.w3.org/1999/xlink" height="141.0px" width="146.45px" xmlns="http://www.w3.org/2000/svg">
  <g transform="matrix(1.0, 0.0, 0.0, 1.0, -395.4, -125.5)">
    <path d="M400.8 136.05 L400.8 125.5 541.85 125.5 541.85 136.05 400.8 136.05 M541.85 258.8 L541.85 266.5 400.8 266.5 400.8 258.8 541.85 258.8" fill="url(#gradient0)" fill-rule="evenodd" stroke="none"/>
    <path d="M541.85 136.05 L541.85 258.8 400.8 258.8 400.8 136.05 541.85 136.05" fill="#ebaf25" fill-rule="evenodd" stroke="none"/>
    <path d="M525.5 205.8 L525.2 205.9 525.3 205.55 525.35 205.55 525.5 205.8 M506.0 261.8 L505.9 261.85 505.75 261.7 505.75 261.65 506.15 261.7 506.1 261.7 506.0 261.7 506.0 261.8" fill="#000000" fill-rule="evenodd" stroke="none"/>
    <path d="M515.1 261.45 L515.15 261.5 515.1 261.65 515.1 261.45" fill="#ff0000" fill-rule="evenodd" stroke="none"/>
    <path d="M510.75 153.7 L511.3 154.35 511.7 154.95 512.95 157.0 Q513.55 158.55 513.55 159.9 L513.55 160.45 513.3 160.9 512.75 160.9 512.75 161.0 512.65 163.15 Q512.55 163.7 512.6 164.55 512.55 165.1 511.85 165.1 L511.7 165.1 511.4 166.95 511.3 167.7 512.6 168.4 Q514.25 169.35 515.45 169.5 516.9 169.85 517.25 170.6 L517.35 171.0 517.5 171.1 518.35 171.75 520.25 172.9 522.0 174.2 522.8 174.85 523.15 175.4 522.75 176.95 524.0 180.5 524.5 182.35 524.95 184.2 525.65 184.3 526.1 185.4 526.65 187.3 526.75 187.35 526.85 187.3 526.95 187.2 527.55 186.4 528.2 185.2 528.8 184.0 Q529.3 183.4 530.25 183.35 L531.4 183.5 533.2 182.25 533.8 181.8 535.3 180.8 536.45 180.15 537.1 181.1 537.05 181.15 536.25 181.75 535.4 182.35 534.8 182.95 534.75 182.9 534.75 183.05 535.3 183.85 534.85 184.25 535.05 184.6 535.05 184.65 534.45 185.2 534.25 184.95 534.15 184.65 533.6 185.0 533.75 185.75 533.55 186.3 533.45 186.95 532.8 188.1 532.65 188.7 532.15 189.25 531.6 189.4 531.5 189.55 531.2 189.85 530.45 190.0 Q530.0 190.05 529.95 190.3 529.6 192.0 528.65 193.25 527.6 194.5 526.55 194.5 L526.3 194.5 526.05 194.65 525.85 194.3 525.8 194.25 525.8 194.3 525.7 194.75 Q523.65 194.75 522.65 193.4 L521.7 194.0 521.9 194.35 519.9 195.85 519.95 195.85 520.25 196.25 519.95 196.6 519.55 196.8 519.3 196.6 519.15 196.35 518.55 196.7 517.0 197.9 516.75 198.1 516.7 198.2 516.6 199.5 516.6 204.7 516.65 205.1 517.05 206.55 517.35 207.95 517.6 209.6 517.4 212.6 517.25 214.05 517.35 215.45 517.1 216.45 517.05 217.45 517.1 219.35 517.05 221.5 517.4 222.5 516.95 226.25 516.4 229.4 Q516.1 233.15 515.6 235.45 L516.1 236.8 515.95 237.85 515.85 238.95 515.65 241.0 515.4 243.15 515.2 245.25 515.05 247.4 514.8 249.5 514.2 253.55 514.4 256.35 514.35 257.95 513.95 259.6 513.95 259.85 513.3 259.85 503.5 259.9 503.0 259.85 503.05 259.65 502.95 259.65 502.9 259.45 502.95 259.25 502.9 259.25 502.85 258.7 502.95 256.75 Q502.8 256.3 503.05 255.75 L503.6 254.8 504.4 252.85 504.55 251.8 504.8 251.25 504.85 250.65 505.1 249.45 Q505.05 247.75 505.25 246.9 L505.75 241.8 506.1 236.7 506.35 234.15 506.35 233.5 506.55 232.9 507.0 232.45 507.0 232.05 507.0 230.65 507.0 227.85 506.85 225.05 506.7 223.7 Q506.6 222.8 506.2 222.25 506.3 222.1 506.85 221.9 L506.75 221.65 506.7 221.1 506.5 220.05 506.0 217.95 504.55 221.1 504.85 221.8 503.2 227.4 502.1 232.85 502.45 233.35 502.75 235.0 502.2 241.0 502.0 244.0 502.0 246.9 501.95 247.55 501.95 247.6 501.55 248.6 500.9 249.55 500.35 250.5 Q499.7 251.35 498.95 251.35 L497.1 251.2 494.35 250.9 493.05 250.9 491.1 250.9 490.85 250.8 490.75 250.6 490.65 249.05 Q490.65 248.4 491.0 248.05 L491.8 246.7 492.5 245.5 492.8 244.9 493.0 244.35 492.85 242.3 Q492.65 240.95 492.75 240.4 L492.75 238.45 492.6 236.5 492.65 233.95 492.75 232.65 492.9 232.05 493.2 231.8 493.55 231.85 493.55 231.25 493.55 225.75 493.7 223.05 493.8 221.25 Q493.85 220.55 494.25 220.45 L494.2 220.1 494.15 218.95 494.2 217.75 494.25 216.8 494.0 215.75 494.25 214.9 494.5 214.15 494.4 212.6 Q494.4 212.05 494.9 210.8 L495.35 209.0 494.9 209.2 494.9 209.25 494.95 209.55 494.9 209.9 494.9 210.4 494.75 210.85 494.5 211.1 Q494.0 211.1 493.9 210.9 L493.9 210.65 493.85 210.45 493.8 210.45 493.25 210.9 492.8 211.3 491.55 211.5 490.2 211.3 489.25 212.45 488.55 213.2 487.2 213.65 Q486.9 213.65 486.4 212.6 L485.6 210.95 Q484.5 208.7 484.5 208.25 484.5 207.85 486.1 207.45 L488.1 206.95 488.05 206.7 486.4 201.55 Q484.0 193.55 484.0 191.3 484.0 190.5 484.8 188.1 485.55 185.85 485.9 185.65 L485.9 185.6 486.0 185.75 486.55 185.45 Q486.8 185.3 487.0 185.25 L487.8 182.9 489.0 180.15 490.4 177.6 Q491.3 176.25 492.35 175.3 L492.4 174.85 Q492.6 174.3 493.1 173.95 L497.9 170.9 497.95 170.5 Q498.15 170.15 498.95 169.8 L501.6 168.4 502.4 167.9 502.35 167.8 502.3 167.15 502.05 165.9 501.8 164.7 501.5 163.4 501.15 162.15 500.8 160.9 500.65 159.65 500.55 158.45 Q500.55 157.85 500.85 157.1 L501.5 155.7 501.95 155.05 502.35 154.35 502.85 153.45 502.85 153.4 Q502.85 153.25 503.6 153.1 L506.5 152.85 507.1 152.85 508.0 152.9 509.15 153.15 Q510.35 153.5 510.75 153.7 M503.75 160.45 L503.9 160.45 504.0 160.4 504.05 160.4 503.8 160.35 503.75 160.45 M491.05 192.2 L491.0 194.5 Q491.0 196.25 491.15 197.35 L491.55 200.2 491.8 203.05 492.1 204.95 492.6 205.4 495.35 204.1 496.1 203.75 496.35 201.65 496.9 198.4 497.1 196.75 497.3 195.75 496.7 194.65 496.85 193.55 496.95 192.1 496.55 187.85 496.1 185.05 Q495.1 185.65 494.05 186.95 L492.05 188.9 492.1 188.95 492.35 189.8 491.45 191.0 Q491.2 191.4 491.05 192.2 M519.6 188.75 L518.8 187.5 518.4 186.8 518.4 186.95 518.3 190.85 518.15 192.45 519.05 191.85 520.9 190.7 521.05 190.6 520.8 190.05 520.85 189.65 519.6 188.75" fill="url(#gradient1)" fill-rule="evenodd" stroke="none"/>
    <path d="M404.95 183.0 L406.75 180.65 Q407.0 180.1 407.55 179.55 L408.75 178.3 Q409.15 177.9 410.05 177.55 L411.05 177.15 412.9 176.5 415.15 175.55 416.65 175.25 416.95 174.85 418.1 173.5 419.85 171.6 419.85 171.3 419.65 170.4 419.35 169.45 Q418.95 168.65 418.95 167.6 L418.75 166.65 418.55 165.4 419.05 164.8 419.05 163.65 Q419.05 161.85 420.15 160.45 L421.85 159.0 Q423.2 158.2 425.55 158.05 L426.0 158.05 427.2 158.2 428.45 158.5 429.1 158.8 429.8 159.25 Q430.55 160.0 430.9 161.0 L431.5 163.0 431.7 164.65 431.75 164.65 Q432.15 164.7 432.15 165.15 L431.9 166.65 431.7 167.8 431.75 167.9 431.75 167.95 431.6 168.0 431.55 168.0 431.5 168.15 430.55 171.3 430.35 172.05 430.8 172.8 432.05 174.3 432.5 174.8 432.95 175.05 433.75 175.5 435.25 176.2 Q436.15 176.55 437.05 177.15 L438.0 177.6 438.3 177.8 438.4 177.85 439.4 178.8 439.9 179.85 439.9 179.95 440.15 180.25 440.25 180.75 440.55 181.7 440.9 182.65 Q442.1 185.0 442.35 186.1 L443.25 187.65 445.5 190.3 445.85 190.55 447.55 192.1 450.1 195.3 452.2 198.55 454.05 201.1 454.4 201.6 455.3 201.75 455.4 201.6 455.7 201.3 455.95 200.95 456.4 200.9 457.0 201.3 457.05 201.2 Q457.3 201.05 457.45 201.05 L457.45 201.25 457.3 201.55 457.75 202.0 458.6 202.0 459.1 202.45 458.8 202.95 459.35 203.3 460.2 204.2 461.1 205.1 462.15 206.05 462.95 206.95 463.3 207.5 Q463.55 207.25 463.7 207.25 L463.9 207.55 463.75 208.0 464.4 208.65 463.9 209.25 462.8 210.55 462.6 210.75 461.75 209.9 461.35 209.4 461.1 209.65 460.65 209.85 460.3 209.6 459.95 209.15 459.25 208.5 458.5 207.9 457.95 207.35 457.4 207.3 457.3 207.4 457.0 207.65 457.1 207.75 457.15 207.8 457.05 207.85 456.75 207.75 456.7 207.75 456.65 207.7 455.95 207.45 455.4 207.2 455.35 206.95 455.6 205.9 Q455.6 205.45 454.9 205.1 L453.35 204.55 452.1 203.95 451.55 203.5 450.45 202.55 449.3 201.3 448.0 200.25 446.7 199.3 445.3 198.3 443.8 197.3 442.85 196.75 441.95 196.25 440.7 195.1 440.75 195.05 440.65 194.85 440.65 194.35 440.6 193.95 440.1 193.35 439.2 192.8 438.3 191.95 438.2 191.65 437.6 191.45 437.2 191.3 437.15 191.3 436.75 191.0 436.45 190.6 436.15 190.35 435.95 190.55 434.7 193.5 433.75 197.1 433.7 198.8 433.75 199.05 433.8 199.75 433.8 199.9 433.8 200.1 434.1 201.95 434.4 203.95 434.3 204.6 434.3 205.1 434.45 207.85 433.7 207.95 433.55 208.0 433.6 208.3 433.6 208.7 433.6 211.05 434.25 211.4 Q434.75 211.65 434.75 212.15 L433.95 213.35 433.7 213.8 433.75 214.9 433.85 221.9 433.85 222.2 433.95 222.65 434.0 222.95 434.15 223.85 434.25 224.3 434.25 224.4 434.35 225.8 Q435.05 229.25 435.05 231.35 L435.0 232.65 434.55 233.8 434.4 234.5 434.0 236.15 434.25 236.9 434.5 237.8 434.25 238.75 433.95 239.55 433.8 241.15 433.95 242.9 434.15 244.55 433.4 246.7 433.25 247.25 433.0 247.75 432.7 248.5 Q432.65 248.7 432.25 248.7 L429.3 247.95 428.65 247.45 428.55 246.9 Q428.55 246.3 428.9 244.85 L429.25 243.1 429.15 241.75 428.95 240.35 428.75 239.0 428.35 238.3 428.0 237.7 428.15 237.2 428.3 236.65 427.8 235.0 427.8 235.05 427.7 235.05 427.2 234.45 426.8 233.55 Q426.65 233.0 426.65 232.1 L426.65 231.7 426.1 230.45 425.35 227.1 424.65 224.9 424.65 224.95 424.6 225.55 424.65 225.65 424.55 225.85 424.45 226.25 424.3 226.4 424.25 226.45 423.8 227.3 423.4 228.15 423.3 230.4 423.65 231.65 423.95 233.95 423.7 235.4 423.45 236.25 423.65 237.6 423.8 239.3 423.8 242.3 423.75 244.5 423.8 244.5 424.05 245.35 424.05 246.1 424.0 248.1 423.75 248.55 423.55 249.1 423.65 253.25 423.75 256.4 423.75 256.6 423.8 256.65 424.15 257.65 424.4 258.85 424.3 259.9 423.8 260.3 423.45 260.5 422.0 260.55 420.75 260.55 419.8 260.3 417.85 260.15 416.7 259.8 416.1 259.4 416.0 259.0 Q416.0 258.1 416.6 256.6 L417.1 255.3 416.85 253.2 416.6 251.2 416.3 248.05 416.05 247.8 Q415.65 247.65 415.6 247.35 L415.6 246.85 415.5 245.0 415.7 244.55 416.0 244.1 416.25 243.65 416.25 243.2 416.1 241.4 416.0 239.55 415.8 235.15 415.55 234.85 415.2 234.35 415.05 233.85 414.75 232.7 414.7 231.85 414.7 231.8 414.6 231.4 414.1 230.1 413.55 228.7 412.85 225.8 412.7 224.2 412.5 223.75 412.4 222.8 412.2 219.2 Q412.2 215.8 412.5 211.6 L412.9 207.9 412.85 207.75 412.6 207.0 412.3 206.1 412.15 205.7 412.1 205.7 412.0 205.3 412.15 203.65 412.25 202.35 412.25 202.3 412.35 202.3 412.35 201.85 412.35 199.1 Q412.4 198.3 412.6 197.7 L412.7 196.25 412.8 194.95 412.5 193.95 411.75 190.75 410.75 190.0 409.0 191.2 407.15 192.8 406.8 192.55 406.2 193.05 405.15 193.75 Q404.0 194.25 403.8 195.05 L403.45 196.1 403.2 196.95 403.1 197.25 402.8 197.75 403.0 197.85 403.4 198.35 402.8 199.55 401.95 201.35 401.7 202.1 401.45 202.85 401.3 203.6 401.0 204.1 Q400.15 207.1 399.9 209.15 L400.3 209.95 400.5 210.2 400.65 210.5 400.7 211.1 401.2 213.25 401.15 213.25 400.45 215.2 400.3 216.15 400.15 216.7 400.2 216.9 399.95 217.0 399.95 217.15 Q399.95 217.65 399.25 217.65 L397.95 217.3 397.05 216.7 396.5 216.15 396.15 215.45 395.65 214.25 395.4 212.95 Q395.4 212.15 395.9 210.6 L396.4 208.2 396.3 205.4 396.2 202.65 396.3 199.2 396.45 197.5 396.6 196.65 397.75 196.6 397.7 196.5 397.9 195.5 398.15 194.7 397.85 194.3 397.65 193.3 397.85 192.4 Q397.85 191.85 399.1 189.95 L400.45 187.9 402.45 185.7 403.65 184.6 404.1 184.15 404.95 183.0 M429.7 174.45 L429.8 174.45 429.7 174.4 429.7 174.45 M453.9 201.3 L453.85 201.25 453.8 201.3 453.9 201.3" fill="url(#gradient2)" fill-rule="evenodd" stroke="none"/>
    <path d="M442.95 159.95 L442.3 161.05 442.15 161.25 444.85 161.4 446.3 161.65 446.95 161.8 447.55 162.05 448.1 162.2 449.6 162.3 450.2 162.3 453.65 161.85 453.9 161.45 Q454.25 161.05 454.9 161.05 L457.25 161.2 459.75 160.8 460.85 160.85 461.35 160.8 Q461.55 160.45 462.2 160.3 L464.5 159.9 465.55 158.85 466.35 158.1 Q465.85 157.65 465.85 157.35 L465.7 156.5 465.7 155.6 465.6 155.0 465.35 154.85 465.2 154.9 465.2 154.7 465.15 154.65 Q464.8 152.3 464.8 150.05 L464.9 146.65 465.1 145.9 Q465.2 144.75 466.7 143.95 L466.8 143.9 466.7 143.15 Q466.7 142.7 467.75 142.2 L468.8 141.95 471.45 141.45 Q473.75 141.2 474.45 141.8 L475.3 142.0 Q476.0 142.2 476.2 142.45 L476.35 142.95 476.3 143.35 Q476.7 143.55 476.95 143.7 L477.2 143.75 477.3 143.9 477.5 144.4 477.7 145.45 478.0 147.5 478.25 151.65 478.15 154.65 477.85 154.9 477.75 154.9 477.75 155.15 477.7 155.5 477.7 155.7 477.65 157.25 477.6 157.85 Q477.45 158.2 476.95 158.45 L476.2 159.05 475.7 159.5 477.9 161.1 479.85 162.65 480.1 162.8 480.25 163.05 480.35 163.25 480.4 163.2 480.4 163.3 480.35 163.35 480.25 163.3 480.3 163.7 480.3 164.15 481.6 164.85 482.9 165.85 484.0 166.9 484.8 167.4 485.05 167.9 484.9 168.8 Q487.9 173.5 489.1 178.4 L489.5 178.55 490.25 179.1 490.25 179.25 491.9 183.65 493.25 188.35 493.55 189.25 Q494.4 191.6 495.2 196.35 L495.55 198.1 496.15 199.9 Q496.9 201.4 496.9 203.45 L496.8 204.55 496.6 205.45 Q496.15 206.45 495.25 206.45 L494.9 206.45 494.9 206.2 495.25 205.1 495.05 204.35 494.95 204.05 494.95 204.4 Q494.95 205.6 494.15 205.6 493.75 205.6 493.65 205.2 L493.6 204.75 493.5 203.9 493.35 203.5 493.05 203.05 492.65 202.15 Q491.85 200.65 491.85 198.8 L491.8 197.9 491.8 197.75 491.0 196.35 490.1 194.55 489.6 193.75 489.05 192.8 487.95 191.0 485.4 187.45 484.05 185.65 Q483.55 184.85 483.55 183.95 L483.6 183.5 483.55 183.35 483.65 182.75 483.7 182.45 482.15 180.9 481.35 179.55 480.25 183.9 Q479.65 186.0 479.2 188.5 L479.15 189.1 479.0 189.65 478.5 190.15 478.25 192.8 478.15 193.75 478.05 194.7 478.1 196.4 478.7 196.6 479.1 197.0 479.0 197.4 479.15 199.0 479.35 201.4 479.85 203.8 480.05 206.2 480.1 210.9 480.25 213.15 480.3 215.3 480.15 217.75 480.05 219.1 480.1 219.75 479.7 222.6 480.0 223.7 479.15 227.75 478.8 229.7 478.7 230.75 478.65 231.0 479.1 231.65 479.25 232.3 478.6 238.85 478.25 242.1 478.05 243.75 478.0 245.25 478.2 245.6 478.8 246.6 479.35 247.7 479.55 248.6 479.5 249.55 479.4 250.0 476.7 250.3 475.15 250.1 474.7 250.0 Q474.9 251.55 475.25 252.55 L476.25 255.4 477.3 257.0 478.05 258.15 478.05 258.1 478.6 259.4 478.75 260.7 478.6 262.0 478.45 262.2 465.1 262.2 465.1 261.95 465.05 262.2 465.0 262.3 464.85 262.2 464.6 262.05 464.45 260.75 464.3 259.7 Q464.3 258.95 464.45 258.4 L464.4 257.15 464.2 256.3 464.05 255.45 464.05 255.2 464.05 255.15 464.05 254.6 464.0 253.5 463.65 251.2 463.3 249.0 463.05 246.75 462.35 242.2 Q461.75 239.45 461.75 237.7 L461.75 237.1 462.1 236.25 462.15 236.15 461.9 233.4 Q461.7 231.4 461.2 230.1 L460.55 226.95 459.95 223.5 460.35 222.45 460.3 222.05 460.05 220.65 459.4 217.9 457.6 212.3 457.05 210.9 456.65 209.45 456.5 208.1 456.15 206.7 Q455.9 205.7 455.8 203.9 L455.75 202.75 455.65 201.95 455.65 201.9 455.55 201.15 455.7 201.15 455.65 200.8 455.55 198.5 Q455.55 198.25 455.75 198.25 L455.75 198.35 456.05 198.05 456.45 197.7 456.5 196.35 456.5 194.75 456.55 191.6 456.85 188.4 456.9 186.8 456.9 186.65 455.8 184.85 Q455.55 184.15 455.55 183.0 L455.8 176.15 456.0 174.4 Q454.8 173.5 453.4 173.05 L452.2 172.55 450.8 172.0 449.15 171.55 448.45 171.25 448.0 171.05 447.85 171.05 446.05 170.85 445.3 170.6 443.25 170.05 441.55 169.55 440.2 169.0 Q438.05 167.8 436.85 166.85 435.9 166.5 435.45 165.95 435.05 165.5 435.05 164.7 L435.1 164.4 434.65 164.3 434.6 164.35 434.45 164.3 434.45 164.2 434.55 164.1 434.5 161.25 434.7 155.9 434.9 151.85 435.7 147.15 436.1 144.75 Q436.3 143.8 436.8 143.1 436.9 142.6 437.3 141.85 L438.0 140.45 438.05 139.7 Q438.05 139.2 438.4 138.95 L438.7 138.9 438.85 138.65 439.0 138.35 439.35 137.9 439.6 137.75 439.8 136.15 440.05 135.15 Q440.15 134.6 440.6 134.6 L441.6 134.8 441.85 134.45 441.95 133.95 442.1 133.15 442.3 132.35 442.45 131.95 442.6 131.65 442.7 131.1 443.9 131.05 445.5 131.35 Q446.5 131.6 446.7 132.05 L446.7 132.15 446.7 132.3 446.9 132.4 447.15 132.85 Q447.15 133.1 446.7 133.1 L446.5 133.1 446.1 134.45 445.65 136.7 444.95 139.8 Q445.35 139.8 445.4 140.3 L445.4 140.5 445.2 140.55 444.8 140.5 444.65 141.1 445.45 141.2 446.05 141.3 446.4 141.6 446.4 141.95 Q446.4 142.6 445.75 142.95 L443.65 144.0 Q442.35 144.6 441.8 144.9 440.95 145.3 440.95 145.8 L441.1 146.5 441.1 147.45 441.25 148.3 441.35 149.25 441.55 152.8 Q441.6 154.05 442.2 156.4 L442.9 159.9 442.95 159.95 M464.7 260.5 L464.6 260.1 464.7 260.75 464.7 260.5 M465.0 261.2 L465.1 261.85 465.1 261.95 465.95 261.95 465.6 261.8 465.25 261.4 465.0 261.2" fill="#000000" fill-rule="evenodd" stroke="none"/>
    <path d="M465.1 262.2 L465.05 262.2 465.0 262.35 465.0 262.3 465.05 262.2 465.1 261.95 465.1 262.2 M442.9 159.9 L442.95 159.85 442.95 159.95 442.9 159.9" fill="#ff0000" fill-rule="evenodd" stroke="none"/>
    <path d="M504.05 160.4 L504.0 160.4 503.9 160.45 503.75 160.45 503.8 160.35 504.05 160.4 M464.7 260.5 L464.7 260.75 464.6 260.1 464.7 260.5 M465.1 261.85 L465.0 261.2 465.25 261.4 465.6 261.8 465.95 261.95 465.1 261.95 465.1 261.85 M453.8 201.3 L453.85 201.25 453.9 201.3 453.8 201.3 M429.7 174.45 L429.7 174.4 429.8 174.45 429.7 174.45 M518.4 186.8 L518.8 187.5 519.6 188.75 520.85 189.65 520.8 190.05 521.05 190.6 520.9 190.7 519.05 191.85 518.15 192.45 518.3 190.85 518.4 186.95 518.4 186.8 M491.15 197.35 L491.05 196.5 491.8 197.75 491.8 197.9 491.85 198.8 Q491.85 200.65 492.65 202.15 L493.05 203.05 493.35 203.5 493.5 203.9 493.6 204.75 493.65 204.95 492.6 205.4 492.1 204.95 491.8 203.05 491.55 200.2 491.15 197.35 M493.55 189.25 L493.25 188.35 493.15 187.95 494.05 186.95 Q495.1 185.65 496.1 185.05 L496.55 187.85 496.95 192.1 496.85 193.55 496.7 194.65 497.3 195.75 497.1 196.75 496.9 198.4 496.5 200.8 496.15 199.9 495.55 198.1 495.2 196.35 Q494.4 191.6 493.55 189.25 M494.95 204.3 L494.95 204.05 495.0 204.25 494.95 204.3" fill="#ebaf25" fill-rule="evenodd" stroke="none"/>
  </g>
  <defs>
    <linearGradient gradientTransform="matrix(0.0, 0.0275, -0.0861, 0.0, 477.3, 234.0)" gradientUnits="userSpaceOnUse" id="gradient0" spreadMethod="pad" x1="-819.2" x2="819.2">
      <stop offset="0.0" stop-color="#ffffff"/>
      <stop offset="1.0" stop-color="#000000"/>
    </linearGradient>
    <linearGradient gradientTransform="matrix(-3.0E-4, 0.0643, -0.0936, -5.0E-4, 455.45, 136.65)" gradientUnits="userSpaceOnUse" id="gradient1" spreadMethod="pad" x1="-819.2" x2="819.2">
      <stop offset="0.0" stop-color="#ffffff"/>
      <stop offset="1.0" stop-color="#000000"/>
    </linearGradient>
    <linearGradient gradientTransform="matrix(-4.0E-4, 0.0679, -0.0802, -4.0E-4, 463.55, 138.5)" gradientUnits="userSpaceOnUse" id="gradient2" spreadMethod="pad" x1="-819.2" x2="819.2">
      <stop offset="0.0" stop-color="#ffffff"/>
      <stop offset="1.0" stop-color="#000000"/>
    </linearGradient>
  </defs>
</svg>
