<?xml version="1.0" encoding="UTF-8" standalone="no"?>
<svg xmlns:xlink="http://www.w3.org/1999/xlink" height="163.75px" width="409.75px" xmlns="http://www.w3.org/2000/svg">
  <g transform="matrix(1.0, 0.0, 0.0, 1.0, 0.0, 0.0)">
    <path d="M391.55 87.3 Q398.8 90.6 400.05 91.3 404.55 93.85 405.7 96.55 L407.7 102.15 Q408.95 106.35 408.95 108.5 408.95 112.4 405.6 115.0 L404.9 115.55 405.25 114.9 Q405.75 114.15 405.75 113.2 L405.5 111.45 Q405.25 110.6 403.8 109.7 401.4 107.95 400.5 106.8 L401.4 106.0 401.5 105.35 Q401.5 103.45 398.8 99.2 395.95 94.75 393.5 93.2 391.6 90.8 385.85 88.6 380.55 86.6 373.85 85.55 372.45 84.7 369.8 84.7 369.5 84.7 369.35 85.15 L369.05 85.55 Q366.8 85.55 363.9 82.15 362.45 80.45 361.1 79.6 L361.1 79.55 359.05 78.05 Q357.2 77.0 351.95 76.85 352.8 75.1 352.35 74.15 351.3 72.15 345.5 71.85 345.45 71.35 344.65 70.5 L343.3 69.45 342.55 68.9 Q342.15 68.65 341.2 68.35 L339.35 68.05 Q338.05 67.85 337.7 67.45 336.55 66.2 334.7 65.45 332.65 64.7 331.5 65.65 L326.2 66.55 Q325.3 66.7 324.75 67.3 324.25 67.85 323.75 67.95 325.05 65.95 327.05 64.2 L328.5 62.4 Q328.5 60.55 325.05 58.0 321.85 55.6 319.55 55.2 L314.65 53.85 309.55 52.2 304.2 51.35 Q300.6 50.75 298.55 48.95 296.1 46.85 289.35 46.15 282.25 45.45 278.55 42.8 277.95 42.4 271.75 41.15 L265.3 39.9 274.95 40.7 Q278.55 41.0 280.15 41.55 L283.25 42.7 297.55 46.6 Q304.05 48.5 309.3 50.4 L319.05 54.3 Q324.3 56.5 334.95 62.85 338.05 64.7 343.2 67.1 L352.55 71.3 369.3 78.05 Q384.6 84.15 391.55 87.3 M255.95 141.2 Q256.6 140.3 258.0 139.6 257.05 142.75 257.05 145.25 257.05 149.15 258.8 153.4 260.3 157.2 262.65 159.5 L260.9 158.2 Q258.1 155.95 257.45 153.55 255.2 145.35 255.2 144.2 255.2 142.2 255.95 141.2 M259.65 141.4 L259.6 143.55 Q259.6 148.3 261.2 152.4 262.7 156.25 266.35 161.35 L264.2 160.4 261.95 156.95 Q260.2 154.35 259.8 153.1 L258.5 149.1 Q257.8 146.9 257.8 145.4 257.8 142.85 258.75 139.85 L259.0 139.1 260.3 138.6 259.65 141.4 M293.05 138.35 Q289.8 138.35 288.45 137.35 287.5 136.25 286.75 135.95 291.45 136.55 295.35 135.1 L303.5 130.85 Q303.1 132.2 300.65 134.75 297.1 138.35 293.05 138.35 M288.4 130.35 L287.95 131.4 287.55 131.7 287.45 131.55 288.4 130.35 M310.65 139.15 L309.7 141.7 Q309.3 142.3 308.65 143.95 L307.55 146.35 306.65 147.85 305.7 148.35 303.95 148.8 300.1 148.05 Q297.6 147.25 296.95 147.25 294.1 147.25 291.6 149.7 L289.3 152.5 286.3 147.55 Q285.55 146.4 282.15 145.1 L277.35 143.45 281.75 143.15 281.7 143.2 Q281.7 143.85 281.8 143.5 L290.2 143.9 297.55 142.85 302.05 142.1 305.9 141.75 Q307.95 141.5 308.5 140.3 L306.55 139.05 304.45 137.6 Q308.45 136.0 316.65 133.15 319.1 132.1 320.55 131.0 L319.95 132.2 318.85 133.7 Q317.85 134.55 315.3 135.45 312.6 136.45 311.5 137.2 311.15 137.45 310.65 139.15 M204.95 81.1 Q204.35 85.2 205.8 90.85 L209.1 100.85 207.95 100.25 Q206.8 99.7 206.15 99.7 L205.35 99.8 205.0 102.7 Q203.25 101.75 201.8 99.05 L199.95 94.7 Q198.8 91.7 198.7 90.35 L198.2 85.85 Q198.2 82.7 199.05 82.05 200.05 81.3 204.95 81.1 M210.45 93.75 Q210.45 93.1 210.95 91.7 211.1 91.25 211.8 90.5 L212.7 89.45 Q214.65 86.15 215.95 85.1 219.45 83.1 221.9 85.6 224.1 87.8 224.1 91.6 224.1 95.2 222.0 101.6 219.85 108.0 219.85 111.2 219.85 112.8 220.35 115.45 L220.85 119.45 220.7 120.2 219.2 117.1 217.75 114.25 Q217.0 113.15 213.7 111.5 210.95 110.15 210.95 108.7 L211.2 108.6 212.75 109.6 214.4 110.3 Q214.95 110.3 214.95 109.85 213.75 108.05 212.95 105.85 212.1 103.5 212.1 101.8 L211.3 98.1 Q210.45 94.6 210.45 93.75 M162.0 84.65 L163.4 88.15 166.3 94.0 167.8 97.1 169.3 100.2 Q170.25 101.95 172.0 104.05 174.1 106.55 175.1 106.55 175.75 106.55 175.7 106.35 L175.7 106.2 174.6 103.65 173.45 101.3 Q173.75 101.3 174.75 102.05 L175.45 102.5 174.95 102.35 175.7 103.65 Q183.85 106.75 189.95 108.45 189.2 108.5 189.2 108.7 191.55 109.0 186.85 111.8 L182.9 113.95 182.5 113.6 182.35 113.75 182.35 113.8 179.1 111.6 Q177.3 110.45 177.3 111.95 177.3 114.2 181.25 117.05 183.55 118.7 186.65 119.55 L182.35 119.35 Q178.9 118.85 176.3 117.05 174.2 115.65 172.95 113.7 170.7 110.45 168.9 106.35 L165.95 99.05 Q162.65 90.95 162.0 84.65 M167.45 67.6 L167.5 67.6 Q168.6 70.65 171.5 74.95 173.0 77.2 174.25 78.5 173.8 79.1 173.5 80.2 L172.8 83.05 Q171.9 85.3 171.3 85.7 L168.9 86.7 168.45 86.95 Q166.8 84.45 165.75 81.7 164.75 79.1 163.95 75.1 165.15 76.85 166.9 78.8 169.25 81.3 170.25 81.3 170.9 81.3 170.45 81.1 L170.45 80.85 169.6 78.5 168.45 75.5 167.8 72.65 167.45 70.05 167.45 67.6 M178.0 62.95 L178.05 63.1 178.1 70.65 Q178.5 74.35 180.7 77.15 L178.45 77.4 176.6 77.95 176.45 77.95 176.2 77.15 Q175.45 74.9 175.45 73.0 175.45 71.8 176.65 67.5 L178.0 62.95 M361.6 111.05 Q359.8 110.15 358.05 109.7 356.0 109.15 355.55 108.05 L355.35 106.5 362.15 108.35 370.1 110.7 381.0 113.65 381.85 113.85 380.55 113.9 376.7 114.1 374.2 113.85 374.2 114.25 371.0 113.6 364.35 112.3 361.6 111.05 M338.8 103.4 L337.15 102.15 335.7 98.8 341.45 101.15 342.95 102.75 342.95 102.6 342.6 101.65 347.1 103.65 Q350.1 104.95 352.85 105.75 L352.85 106.15 353.05 108.6 Q351.1 108.05 348.95 107.0 L345.1 105.3 Q340.8 105.1 338.8 103.4 M334.25 90.35 Q334.25 88.45 335.35 88.1 L339.75 89.95 Q339.1 93.8 339.55 96.45 339.85 98.2 340.6 99.7 L338.4 99.05 335.35 97.9 334.95 96.8 Q334.25 94.45 334.25 90.35 M292.15 111.6 Q292.6 113.8 293.8 118.1 293.8 119.8 290.7 125.75 L290.0 127.1 289.65 126.65 Q288.75 125.55 288.75 124.9 288.75 123.85 290.8 122.25 L292.0 120.95 Q292.75 119.9 292.75 119.25 L291.15 117.25 Q289.5 115.4 289.5 113.9 289.5 112.05 292.15 111.6 M290.55 101.4 L290.7 103.1 Q290.35 102.5 290.35 102.2 L290.55 101.4 M290.5 91.1 L289.8 86.25 Q291.4 86.25 294.4 88.3 298.3 91.0 299.45 93.85 L300.65 98.15 Q301.3 101.0 301.85 102.3 L305.8 111.35 Q307.1 114.75 307.1 119.1 307.1 121.75 306.8 122.6 306.05 124.6 303.0 126.35 L300.0 127.9 298.1 129.0 Q296.25 131.35 292.0 132.2 L292.3 132.05 293.25 129.35 293.75 126.45 293.75 126.0 293.6 125.85 293.2 125.75 Q292.5 125.75 291.75 126.95 L290.5 128.3 290.5 128.15 291.35 126.45 293.2 123.1 Q294.6 120.35 294.6 119.35 294.6 117.8 293.8 114.8 L293.0 111.45 Q295.75 111.0 295.75 110.5 295.75 109.45 293.05 106.2 L292.05 105.0 291.6 100.95 291.4 98.4 291.75 95.8 Q291.75 94.5 290.5 91.1 M289.05 86.45 L289.25 87.65 289.0 86.45 289.05 86.45 M252.7 106.35 L254.2 106.8 254.7 116.35 Q254.7 118.6 251.45 124.05 L250.45 125.75 Q247.7 124.25 247.7 120.75 247.7 119.75 249.35 117.4 250.95 115.0 250.95 113.0 250.95 111.9 250.1 110.6 249.2 109.3 249.2 108.0 L249.3 108.0 Q249.7 107.95 249.85 107.75 L249.9 106.75 Q250.2 106.35 252.7 106.35 M254.8 96.25 L254.65 98.25 253.7 96.2 254.8 96.25 M227.3 108.95 Q227.25 109.95 227.65 112.0 L228.05 115.2 Q228.05 116.8 225.0 120.7 224.45 119.55 224.45 118.5 224.45 117.95 225.05 116.55 L225.7 114.55 225.75 112.5 225.7 110.45 Q225.95 109.25 226.65 108.4 L227.35 107.75 227.3 108.95 M230.35 108.6 L230.95 110.7 Q231.4 112.7 232.25 114.6 L233.75 116.35 235.8 118.55 239.15 122.65 Q240.95 125.15 240.95 126.6 L240.8 127.2 237.4 127.6 Q231.3 127.6 227.45 123.95 226.2 122.7 225.45 121.55 L225.6 121.3 227.8 118.15 Q228.8 116.55 228.8 115.25 L228.45 111.9 Q228.05 109.85 228.05 107.95 L228.05 107.4 228.75 107.3 Q229.8 107.35 230.35 108.6 M255.05 93.3 L255.05 93.5 254.7 93.35 255.05 93.3 M252.55 90.15 Q251.85 88.9 251.85 88.2 251.85 87.8 253.1 86.3 L254.45 84.5 255.0 82.45 Q255.2 81.45 255.6 80.75 L255.8 84.0 255.25 91.25 254.5 90.9 252.65 90.35 252.55 90.15 M257.7 76.6 Q258.35 75.65 260.15 74.7 262.1 73.7 263.75 73.7 L265.15 73.9 266.1 74.2 256.6 81.95 256.7 82.55 258.05 82.55 261.75 81.8 265.35 81.45 265.35 81.6 Q265.05 82.4 262.05 84.55 L259.1 86.65 Q259.1 87.25 259.2 86.95 262.6 87.3 263.85 87.9 264.75 88.4 264.85 89.3 L265.1 92.5 265.85 95.55 Q266.4 97.3 267.2 98.7 270.35 103.7 270.35 111.05 L270.0 114.1 Q269.6 116.5 269.6 118.45 L269.8 121.55 Q270.0 122.7 270.35 123.5 L270.6 124.75 270.6 125.35 268.1 126.75 263.35 128.45 259.85 130.15 Q257.2 131.3 254.2 131.25 L254.2 131.55 253.25 131.35 252.55 130.85 Q255.2 129.75 255.2 128.4 255.2 127.55 254.05 127.05 L251.45 126.2 251.4 126.2 252.1 125.05 255.0 120.3 Q255.6 119.05 255.6 116.3 L255.15 107.15 255.8 107.45 Q258.15 108.55 258.8 108.55 259.45 108.55 258.95 108.35 L258.95 107.25 256.55 102.25 255.5 100.05 255.6 97.55 255.65 96.3 257.7 96.25 257.7 95.75 Q257.7 94.9 255.8 93.9 L255.9 93.15 Q256.6 92.95 256.7 92.75 256.55 92.2 256.05 91.75 L256.1 90.95 256.55 84.1 256.45 78.9 256.55 78.65 Q257.15 77.4 257.7 76.6 M232.2 69.7 L237.8 68.65 236.0 69.1 232.45 70.05 226.75 71.95 213.7 77.0 Q206.1 79.8 199.25 79.8 L196.75 79.25 192.75 78.7 192.65 78.7 193.05 76.55 193.6 73.6 193.75 73.7 194.15 75.7 194.5 77.5 195.2 77.5 Q198.0 71.75 200.95 68.4 205.45 63.4 212.95 59.85 L212.75 60.05 Q211.1 61.1 207.65 65.45 203.85 70.15 203.85 71.85 203.85 72.5 204.0 72.45 L204.45 72.45 204.65 72.15 204.7 72.2 207.3 72.8 211.0 73.3 Q216.4 73.3 223.55 71.8 L232.2 69.7 M300.45 61.35 Q302.5 60.0 304.8 59.3 L310.5 57.35 Q315.95 55.9 317.35 57.35 311.5 58.45 306.45 60.4 301.15 62.7 298.05 63.85 298.35 62.75 300.45 61.35 M393.05 113.55 L390.3 113.55 386.45 113.7 385.55 113.5 379.05 112.35 374.9 111.25 370.95 109.95 362.45 107.6 355.25 105.55 355.2 103.95 Q355.15 102.6 354.3 102.2 353.15 103.35 352.95 104.2 L352.9 104.8 Q348.1 103.2 342.5 100.5 L342.6 95.85 Q342.9 91.6 344.45 91.6 344.85 91.6 347.0 92.55 346.6 93.85 346.6 96.5 L347.25 96.5 348.85 95.05 Q350.85 93.7 353.8 93.7 L358.0 94.45 356.35 97.1 Q354.85 99.6 354.85 100.35 L354.9 100.95 355.3 101.3 357.0 99.8 Q358.5 98.6 360.95 98.6 361.3 98.6 363.05 100.55 364.1 101.5 366.0 101.3 L369.2 101.1 Q370.9 101.4 371.3 102.85 371.75 104.55 372.75 105.0 L373.0 104.6 372.95 104.35 Q377.25 105.05 380.8 106.5 L386.75 108.95 Q391.55 110.35 392.3 111.3 L392.85 113.0 393.05 113.55" fill="url(#gradient0)" fill-rule="evenodd" stroke="none"/>
    <path d="M391.55 87.3 Q384.6 84.15 369.3 78.05 L352.55 71.3 343.2 67.1 Q338.05 64.7 334.95 62.85 324.3 56.5 319.05 54.3 L309.3 50.4 Q304.05 48.5 297.55 46.6 L283.25 42.7 280.15 41.55 Q278.55 41.0 274.95 40.7 L265.3 39.9 271.75 41.15 Q277.95 42.4 278.55 42.8 282.25 45.45 289.35 46.15 296.1 46.85 298.55 48.95 300.6 50.75 304.2 51.35 L309.55 52.2 314.65 53.85 319.55 55.2 Q321.85 55.6 325.05 58.0 328.5 60.55 328.5 62.4 L327.05 64.2 Q325.05 65.95 323.75 67.95 324.25 67.85 324.75 67.3 325.3 66.7 326.2 66.55 L331.5 65.65 Q332.65 64.7 334.7 65.45 336.55 66.2 337.7 67.45 338.05 67.85 339.35 68.05 L341.2 68.35 Q342.15 68.65 342.55 68.9 L343.3 69.45 344.65 70.5 Q345.45 71.35 345.5 71.85 351.3 72.15 352.35 74.15 352.8 75.1 351.95 76.85 357.2 77.0 359.05 78.05 L361.1 79.55 361.1 79.6 Q362.45 80.45 363.9 82.15 366.8 85.55 369.05 85.55 L369.35 85.15 Q369.5 84.7 369.8 84.7 372.45 84.7 373.85 85.55 380.55 86.6 385.85 88.6 391.6 90.8 393.5 93.2 395.95 94.75 398.8 99.2 401.5 103.45 401.5 105.35 L401.4 106.0 400.5 106.8 Q401.4 107.95 403.8 109.7 405.25 110.6 405.5 111.45 L405.75 113.2 Q405.75 114.15 405.25 114.9 L404.9 115.55 405.6 115.0 Q408.95 112.4 408.95 108.5 408.95 106.35 407.7 102.15 L405.7 96.55 Q404.55 93.85 400.05 91.3 398.8 90.6 391.55 87.3 M401.25 90.85 Q405.6 93.5 406.75 96.35 L408.65 102.2 Q409.75 106.25 409.75 108.35 409.75 116.95 397.5 118.95 L389.1 119.45 385.25 119.25 386.3 119.6 379.75 119.55 376.3 119.15 375.8 119.2 Q372.75 119.2 366.95 117.8 L360.8 116.2 355.95 114.65 351.25 113.1 Q349.75 112.7 347.3 111.7 344.8 110.65 342.75 110.1 L340.8 109.4 338.55 108.6 336.25 108.05 336.55 108.45 336.35 108.45 Q332.7 108.45 331.5 109.4 330.45 110.15 328.25 114.2 327.5 115.6 325.5 120.2 L322.4 128.1 322.0 129.4 322.05 129.7 Q322.05 130.4 321.05 132.25 L319.7 134.45 Q319.3 134.85 316.2 135.95 313.1 137.1 312.5 137.7 311.9 138.3 311.35 139.9 L310.5 142.35 308.3 146.85 Q307.3 148.65 305.15 151.3 L301.35 155.7 Q298.9 158.5 296.7 160.1 294.2 161.85 291.25 162.9 L291.35 163.25 291.4 163.6 Q291.4 163.75 291.0 163.75 L284.65 163.05 281.85 162.3 275.55 163.05 271.8 163.75 Q264.85 163.75 261.6 160.95 260.0 159.65 255.3 152.55 254.35 153.65 249.85 154.65 L244.05 155.5 Q239.95 155.5 238.35 153.1 237.0 151.2 236.85 146.8 236.8 145.65 235.75 141.65 L234.8 138.0 Q232.35 137.5 226.25 135.05 L216.0 130.6 207.7 126.5 Q206.25 125.8 203.95 124.15 L203.65 123.95 201.95 123.25 200.25 121.85 198.75 121.35 185.7 120.8 Q182.8 120.85 178.7 119.0 175.1 117.4 173.7 116.0 171.8 114.05 169.95 110.75 L169.95 110.9 Q169.6 110.6 169.05 110.6 L168.75 110.3 Q167.9 110.3 158.05 113.2 L144.75 117.05 134.1 120.0 127.75 121.35 118.75 121.85 103.3 121.7 Q90.2 121.7 88.25 121.9 86.1 122.15 70.5 125.35 68.15 125.85 64.75 127.0 L57.35 129.5 Q51.0 131.65 44.05 133.25 L40.3 134.25 34.2 135.1 28.65 136.15 24.95 136.95 Q21.65 136.95 19.55 132.7 18.25 130.05 17.8 126.85 L17.15 121.75 Q16.7 118.5 16.1 116.35 13.0 105.4 8.55 95.55 5.3 88.45 2.65 75.55 0.0 62.6 0.0 54.0 0.0 48.45 1.05 40.55 L2.85 26.55 3.4 19.65 Q3.95 15.5 5.35 12.85 L9.7 5.95 12.1 1.6 Q13.75 -0.85 15.15 0.4 L16.4 0.55 20.7 1.35 25.7 2.85 Q30.5 4.1 36.1 4.1 L49.2 3.3 59.55 2.35 66.8 0.85 Q67.9 0.7 75.4 0.7 93.6 0.7 101.75 4.55 L105.85 6.45 Q108.95 7.85 111.25 8.45 113.85 9.05 116.7 10.3 L122.0 12.8 127.25 15.15 133.35 17.95 139.1 20.2 142.85 21.15 147.25 22.2 Q155.9 24.85 159.95 27.45 162.8 29.3 167.8 30.5 L174.75 31.7 Q180.7 32.65 186.65 34.1 L193.5 35.0 194.5 35.2 195.2 35.1 200.6 33.8 202.4 33.4 202.5 33.35 Q204.0 32.55 209.0 32.35 L218.55 32.7 229.55 33.45 237.55 35.45 240.6 36.2 Q242.55 36.6 244.55 37.45 247.35 38.65 248.75 38.7 249.35 38.05 250.6 37.95 L254.7 38.45 256.8 38.7 267.6 39.1 277.1 40.1 Q279.65 40.4 281.4 41.0 L284.35 42.1 291.05 43.9 299.35 46.1 Q309.4 49.1 320.6 54.05 325.65 56.25 336.35 62.45 345.65 67.8 353.55 70.7 372.2 77.5 392.95 86.8 399.0 89.5 401.25 90.85 M393.05 113.55 L392.85 113.0 392.3 111.3 Q391.55 110.35 386.75 108.95 L380.8 106.5 Q377.25 105.05 372.95 104.35 L373.0 104.6 372.75 105.0 Q371.75 104.55 371.3 102.85 370.9 101.4 369.2 101.1 L366.0 101.3 Q364.1 101.5 363.05 100.55 361.3 98.6 360.95 98.6 358.5 98.6 357.0 99.8 L355.3 101.3 354.9 100.95 354.85 100.35 Q354.85 99.6 356.35 97.1 L358.0 94.45 353.8 93.7 Q350.85 93.7 348.85 95.05 L347.25 96.5 346.6 96.5 Q346.6 93.85 347.0 92.55 344.85 91.6 344.45 91.6 342.9 91.6 342.6 95.85 L342.5 100.5 Q348.1 103.2 352.9 104.8 L352.95 104.2 Q353.15 103.35 354.3 102.2 355.15 102.6 355.2 103.95 L355.25 105.55 362.45 107.6 370.95 109.95 374.9 111.25 379.05 112.35 385.55 113.5 386.45 113.7 390.3 113.55 393.05 113.55 M300.45 61.35 Q298.35 62.75 298.05 63.85 301.15 62.7 306.45 60.4 311.5 58.45 317.35 57.35 315.95 55.9 310.5 57.35 L304.8 59.3 Q302.5 60.0 300.45 61.35 M232.2 69.7 L223.55 71.8 Q216.4 73.3 211.0 73.3 L207.3 72.8 204.7 72.2 204.65 72.15 204.45 72.45 204.0 72.45 Q203.85 72.5 203.85 71.85 203.85 70.15 207.65 65.45 211.1 61.1 212.75 60.05 L212.95 59.85 Q205.45 63.4 200.95 68.4 198.0 71.75 195.2 77.5 L194.5 77.5 194.15 75.7 193.75 73.7 193.6 73.6 193.05 76.55 192.65 78.7 192.75 78.7 196.75 79.25 199.25 79.8 Q206.1 79.8 213.7 77.0 L226.75 71.95 232.45 70.05 236.0 69.1 237.8 68.65 232.2 69.7 M257.7 76.6 Q257.15 77.4 256.55 78.65 L256.45 78.9 256.55 84.1 256.1 90.95 256.05 91.75 Q256.55 92.2 256.7 92.75 256.6 92.95 255.9 93.15 L255.8 93.9 Q257.7 94.9 257.7 95.75 L257.7 96.25 255.65 96.3 255.6 97.55 255.5 100.05 256.55 102.25 258.95 107.25 258.95 108.35 Q259.45 108.55 258.8 108.55 258.15 108.55 255.8 107.45 L255.15 107.15 255.6 116.3 Q255.6 119.05 255.0 120.3 L252.1 125.05 251.4 126.2 251.45 126.2 254.05 127.05 Q255.2 127.55 255.2 128.4 255.2 129.75 252.55 130.85 L253.25 131.35 254.2 131.55 254.2 131.25 Q257.2 131.3 259.85 130.15 L263.35 128.45 268.1 126.75 270.6 125.35 270.6 124.75 270.35 123.5 Q270.0 122.7 269.8 121.55 L269.6 118.45 Q269.6 116.5 270.0 114.1 L270.35 111.05 Q270.35 103.7 267.2 98.7 266.4 97.3 265.85 95.55 L265.1 92.5 264.85 89.3 Q264.75 88.4 263.85 87.9 262.6 87.3 259.2 86.95 259.1 87.25 259.1 86.65 L262.05 84.55 Q265.05 82.4 265.35 81.6 L265.35 81.45 261.75 81.8 258.05 82.55 256.7 82.55 256.6 81.95 266.1 74.2 265.15 73.9 263.75 73.7 Q262.1 73.7 260.15 74.7 258.35 75.65 257.7 76.6 M252.55 90.15 L252.65 90.35 254.5 90.9 255.25 91.25 255.8 84.0 255.6 80.75 Q255.2 81.45 255.0 82.45 L254.45 84.5 253.1 86.3 Q251.85 87.8 251.85 88.2 251.85 88.9 252.55 90.15 M255.05 93.3 L254.7 93.35 255.05 93.5 255.05 93.3 M230.35 108.6 Q229.8 107.35 228.75 107.3 L228.05 107.4 228.05 107.95 Q228.05 109.85 228.45 111.9 L228.8 115.25 Q228.8 116.55 227.8 118.15 L225.6 121.3 225.45 121.55 Q226.2 122.7 227.45 123.95 231.3 127.6 237.4 127.6 L240.8 127.2 240.95 126.6 Q240.95 125.15 239.15 122.65 L235.8 118.55 233.75 116.35 232.25 114.6 Q231.4 112.7 230.95 110.7 L230.35 108.6 M227.3 108.95 L227.35 107.75 226.65 108.4 Q225.95 109.25 225.7 110.45 L225.75 112.5 225.7 114.55 225.05 116.55 Q224.45 117.95 224.45 118.5 224.45 119.55 225.0 120.7 228.05 116.8 228.05 115.2 L227.65 112.0 Q227.25 109.95 227.3 108.95 M254.8 96.25 L253.7 96.2 254.65 98.25 254.8 96.25 M252.7 106.35 Q250.2 106.35 249.9 106.75 L249.85 107.75 Q249.7 107.95 249.3 108.0 L249.2 108.0 Q249.2 109.3 250.1 110.6 250.95 111.9 250.95 113.0 250.95 115.0 249.35 117.4 247.7 119.75 247.7 120.75 247.7 124.25 250.45 125.75 L251.45 124.05 Q254.7 118.6 254.7 116.35 L254.2 106.8 252.7 106.35 M289.05 86.45 L289.0 86.45 289.25 87.65 289.05 86.45 M290.5 91.1 Q291.75 94.5 291.75 95.8 L291.4 98.4 291.6 100.95 292.05 105.0 293.05 106.2 Q295.75 109.45 295.75 110.5 295.75 111.0 293.0 111.45 L293.8 114.8 Q294.6 117.8 294.6 119.35 294.6 120.35 293.2 123.1 L291.35 126.45 290.5 128.15 290.5 128.3 291.75 126.95 Q292.5 125.75 293.2 125.75 L293.6 125.85 293.75 126.0 293.75 126.45 293.25 129.35 292.3 132.05 292.0 132.2 Q296.25 131.35 298.1 129.0 L300.0 127.9 303.0 126.35 Q306.05 124.6 306.8 122.6 307.1 121.75 307.1 119.1 307.1 114.75 305.8 111.35 L301.85 102.3 Q301.3 101.0 300.65 98.15 L299.45 93.85 Q298.3 91.0 294.4 88.3 291.4 86.25 289.8 86.25 L290.5 91.1 M290.55 101.4 L290.35 102.2 Q290.35 102.5 290.7 103.1 L290.55 101.4 M292.15 111.6 Q289.5 112.05 289.5 113.9 289.5 115.4 291.15 117.25 L292.75 119.25 Q292.75 119.9 292.0 120.95 L290.8 122.25 Q288.75 123.85 288.75 124.9 288.75 125.55 289.65 126.65 L290.0 127.1 290.7 125.75 Q293.8 119.8 293.8 118.1 292.6 113.8 292.15 111.6 M334.25 90.35 Q334.25 94.45 334.95 96.8 L335.35 97.9 338.4 99.05 340.6 99.7 Q339.85 98.2 339.55 96.45 339.1 93.8 339.75 89.95 L335.35 88.1 Q334.25 88.45 334.25 90.35 M338.8 103.4 Q340.8 105.1 345.1 105.3 L348.95 107.0 Q351.1 108.05 353.05 108.6 L352.85 106.15 352.85 105.75 Q350.1 104.95 347.1 103.65 L342.6 101.65 342.95 102.6 342.95 102.75 341.45 101.15 335.7 98.8 337.15 102.15 338.8 103.4 M361.6 111.05 L364.35 112.3 371.0 113.6 374.2 114.25 374.2 113.85 376.7 114.1 380.55 113.9 381.85 113.85 381.0 113.65 370.1 110.7 362.15 108.35 355.35 106.5 355.55 108.05 Q356.0 109.15 358.05 109.7 359.8 110.15 361.6 111.05 M178.0 62.95 L176.65 67.5 Q175.45 71.8 175.45 73.0 175.45 74.9 176.2 77.15 L176.45 77.95 176.6 77.95 178.45 77.4 180.7 77.15 Q178.5 74.35 178.1 70.65 L178.05 63.1 178.0 62.95 M167.45 67.6 L167.45 70.05 167.8 72.65 168.45 75.5 169.6 78.5 170.45 80.85 170.45 81.1 Q170.9 81.3 170.25 81.3 169.25 81.3 166.9 78.8 165.15 76.85 163.95 75.1 164.75 79.1 165.75 81.7 166.8 84.45 168.45 86.95 L168.9 86.7 171.3 85.7 Q171.9 85.3 172.8 83.05 L173.5 80.2 Q173.8 79.1 174.25 78.5 173.0 77.2 171.5 74.95 168.6 70.65 167.5 67.6 L167.45 67.6 M162.0 84.65 Q162.65 90.95 165.95 99.05 L168.9 106.35 Q170.7 110.45 172.95 113.7 174.2 115.65 176.3 117.05 178.9 118.85 182.35 119.35 L186.65 119.55 Q183.55 118.7 181.25 117.05 177.3 114.2 177.3 111.95 177.3 110.45 179.1 111.6 L182.35 113.8 182.35 113.75 182.5 113.6 182.9 113.95 186.85 111.8 Q191.55 109.0 189.2 108.7 189.2 108.5 189.95 108.45 183.85 106.75 175.7 103.65 L174.95 102.35 175.45 102.5 174.75 102.05 Q173.75 101.3 173.45 101.3 L174.6 103.65 175.7 106.2 175.7 106.35 Q175.75 106.55 175.1 106.55 174.1 106.55 172.0 104.05 170.25 101.95 169.3 100.2 L167.8 97.1 166.3 94.0 163.4 88.15 162.0 84.65 M210.45 93.75 Q210.45 94.6 211.3 98.1 L212.1 101.8 Q212.1 103.5 212.95 105.85 213.75 108.05 214.95 109.85 214.95 110.3 214.4 110.3 L212.75 109.6 211.2 108.6 210.95 108.7 Q210.95 110.15 213.7 111.5 217.0 113.15 217.75 114.25 L219.2 117.1 220.7 120.2 220.85 119.45 220.35 115.45 Q219.85 112.8 219.85 111.2 219.85 108.0 222.0 101.6 224.1 95.2 224.1 91.6 224.1 87.8 221.9 85.6 219.45 83.1 215.95 85.1 214.65 86.15 212.7 89.45 L211.8 90.5 Q211.1 91.25 210.95 91.7 210.45 93.1 210.45 93.75 M204.95 81.1 Q200.05 81.3 199.05 82.05 198.2 82.7 198.2 85.85 L198.7 90.35 Q198.8 91.7 199.95 94.7 L201.8 99.05 Q203.25 101.75 205.0 102.7 L205.35 99.8 206.15 99.7 Q206.8 99.7 207.95 100.25 L209.1 100.85 205.8 90.85 Q204.35 85.2 204.95 81.1 M310.65 139.15 Q311.15 137.45 311.5 137.2 312.6 136.45 315.3 135.45 317.85 134.55 318.85 133.7 L319.95 132.2 320.55 131.0 Q319.1 132.1 316.65 133.15 308.45 136.0 304.45 137.6 L306.55 139.05 308.5 140.3 Q307.95 141.5 305.9 141.75 L302.05 142.1 297.55 142.85 290.2 143.9 281.8 143.5 Q281.7 143.85 281.7 143.2 L281.75 143.15 277.35 143.45 282.15 145.1 Q285.55 146.4 286.3 147.55 L289.3 152.5 291.6 149.7 Q294.1 147.25 296.95 147.25 297.6 147.25 300.1 148.05 L303.95 148.8 305.7 148.35 306.65 147.85 307.55 146.35 308.65 143.95 Q309.3 142.3 309.7 141.7 L310.65 139.15 M288.4 130.35 L287.45 131.55 287.55 131.7 287.95 131.4 288.4 130.35 M293.05 138.35 Q297.1 138.35 300.65 134.75 303.1 132.2 303.5 130.85 L295.35 135.1 Q291.45 136.55 286.75 135.95 287.5 136.25 288.45 137.35 289.8 138.35 293.05 138.35 M259.65 141.4 L260.3 138.6 259.0 139.1 258.75 139.85 Q257.8 142.85 257.8 145.4 257.8 146.9 258.5 149.1 L259.8 153.1 Q260.2 154.35 261.95 156.95 L264.2 160.4 266.35 161.35 Q262.7 156.25 261.2 152.4 259.6 148.3 259.6 143.55 L259.65 141.4 M255.95 141.2 Q255.2 142.2 255.2 144.2 255.2 145.35 257.45 153.55 258.1 155.95 260.9 158.2 L262.65 159.5 Q260.3 157.2 258.8 153.4 257.05 149.15 257.05 145.25 257.05 142.75 258.0 139.6 256.6 140.3 255.95 141.2" fill="#000000" fill-rule="evenodd" stroke="none"/>
  </g>
  <defs>
    <linearGradient gradientTransform="matrix(-0.0349, 0.0698, -0.8922, -0.4459, 439.95, 174.8)" gradientUnits="userSpaceOnUse" id="gradient0" spreadMethod="pad" x1="-819.2" x2="819.2">
      <stop offset="0.0" stop-color="#7a6134"/>
      <stop offset="1.0" stop-color="#292012"/>
    </linearGradient>
  </defs>
</svg>
