<?xml version="1.0" encoding="UTF-8" standalone="no"?>
<svg xmlns:xlink="http://www.w3.org/1999/xlink" height="485.2px" width="934.85px" xmlns="http://www.w3.org/2000/svg">
  <g transform="matrix(1.0, 0.0, 0.0, 1.0, 409.45, 259.6)">
    <path d="M524.9 225.1 L-408.95 225.1 -408.95 -259.1 524.9 -259.1 524.9 225.1" fill="url(#gradient0)" fill-rule="evenodd" stroke="none"/>
    <path d="M524.9 225.1 L-408.95 225.1 -408.95 -259.1 524.9 -259.1 524.9 225.1 Z" fill="none" stroke="#000000" stroke-linecap="round" stroke-linejoin="round" stroke-width="1.0"/>
    <path d="M156.85 -134.55 Q162.5 -137.15 164.05 -138.25 L166.9 -140.15 168.3 -140.9 168.7 -141.05 170.7 -141.35 173.0 -141.55 174.95 -141.35 Q176.0 -141.35 178.1 -142.2 L183.2 -142.55 Q185.35 -142.0 185.65 -141.05 186.0 -140.15 187.65 -139.3 L189.95 -138.75 191.45 -138.05 Q192.55 -137.2 192.25 -135.7 L191.65 -134.25 190.65 -132.25 Q190.3 -131.65 190.4 -130.3 190.35 -128.95 192.35 -126.25 192.95 -125.45 192.75 -124.35 L191.95 -122.3 190.2 -118.4 189.35 -116.4 188.85 -114.9 188.95 -114.6 188.5 -113.7 Q188.3 -113.4 188.2 -112.0 187.95 -109.9 187.4 -108.7 L187.15 -108.3 188.1 -108.75 188.95 -109.2 191.7 -109.65 Q193.5 -109.65 193.9 -109.25 194.35 -108.9 195.65 -108.9 L198.75 -109.25 200.2 -108.95 201.05 -108.7 203.2 -109.05 205.75 -109.65 207.3 -110.15 208.5 -110.35 209.3 -110.45 209.9 -110.9 209.9 -110.65 210.2 -110.55 211.3 -110.95 212.3 -111.4 215.2 -111.65 216.15 -111.9 217.75 -111.95 219.0 -112.1 222.05 -112.25 222.35 -112.25 222.35 -112.4 223.65 -112.3 225.2 -112.05 Q226.25 -112.15 227.85 -111.15 228.05 -110.95 229.3 -110.7 L230.55 -110.25 231.45 -109.15 Q233.25 -107.85 233.65 -106.8 L234.55 -105.4 234.55 -105.15 234.7 -104.75 235.05 -104.1 235.8 -102.8 236.15 -101.6 236.65 -98.9 236.8 -96.15 236.95 -93.45 237.3 -82.5 237.8 -79.75 238.25 -77.05 238.2 -71.6 238.05 -71.4 238.0 -71.3 Q237.5 -70.3 235.65 -68.95 L235.2 -68.65 232.35 -66.65 232.35 -66.4 232.3 -65.25 232.1 -63.05 Q231.8 -62.0 231.95 -60.45 L232.15 -58.65 232.2 -58.3 232.05 -54.3 231.6 -49.95 231.35 -47.85 Q231.15 -46.45 231.25 -45.55 L232.4 -32.5 232.6 -28.1 Q232.6 -26.65 233.15 -23.7 L234.25 -15.0 Q234.7 -12.05 234.25 -6.25 L234.15 -4.1 233.9 -1.85 233.35 0.3 232.95 1.55 232.95 1.65 Q233.25 1.55 233.4 2.0 L233.5 3.0 233.4 4.75 233.4 5.1 232.9 8.35 Q232.7 9.55 232.8 10.1 L232.85 11.0 232.7 11.9 232.3 13.6 Q232.05 14.75 232.6 15.45 233.45 16.75 232.65 19.0 231.55 22.1 231.5 22.7 231.45 23.95 232.0 26.2 L232.85 29.8 232.8 33.45 Q232.6 35.7 233.0 37.0 L233.6 40.6 233.45 41.5 233.25 42.35 233.6 44.15 Q233.4 49.6 233.5 51.25 L233.65 54.8 233.55 56.0 Q233.45 57.65 231.85 61.9 L231.6 62.55 228.35 70.0 225.75 74.85 Q224.6 77.25 224.05 79.9 223.65 81.8 223.4 85.0 L222.6 89.8 Q221.8 93.3 220.95 95.1 L218.2 100.0 216.0 103.5 214.8 107.9 214.6 110.65 214.65 113.45 214.65 116.25 214.35 119.0 213.25 124.5 212.15 130.0 Q211.55 133.35 211.8 135.6 L212.15 141.25 212.1 143.15 213.6 142.8 214.7 143.0 215.1 143.5 214.45 143.85 213.45 143.5 212.05 143.85 211.6 146.65 Q211.15 146.75 211.2 146.25 L211.35 145.55 211.4 144.05 210.95 144.15 210.25 143.9 205.95 144.85 197.5 145.75 188.3 144.95 184.7 144.15 Q180.65 142.9 179.05 142.6 L178.25 142.5 177.05 142.6 Q176.55 145.2 176.7 147.15 L176.3 147.3 Q176.0 145.35 176.35 142.65 L175.8 142.7 174.95 142.65 175.0 142.35 175.15 142.15 176.45 142.05 176.8 140.3 178.5 133.4 Q178.7 132.2 178.35 129.95 L178.1 128.15 Q177.85 127.0 177.3 126.5 175.3 124.7 175.1 123.0 L175.05 121.45 175.05 121.35 Q174.85 120.6 174.95 118.95 175.0 117.1 174.3 115.95 L173.05 113.1 172.0 110.05 Q170.95 107.2 171.05 104.15 171.05 101.9 171.85 98.25 L172.6 95.25 Q173.0 93.5 173.0 92.35 L172.5 89.8 172.4 89.35 Q171.85 87.35 171.8 86.45 L171.9 83.45 171.8 80.5 Q171.45 77.95 173.1 74.75 L172.2 74.45 171.95 74.2 171.15 73.85 170.45 73.85 169.55 75.05 169.1 75.55 167.65 77.25 Q166.6 78.65 165.7 80.5 L162.15 87.2 157.6 93.85 156.4 95.5 155.25 97.2 154.25 98.65 154.65 98.35 152.95 100.5 151.6 102.1 150.65 104.0 149.55 105.75 148.55 108.3 144.7 115.05 Q144.05 116.2 143.15 118.45 L142.25 120.1 Q141.9 120.6 141.6 121.65 L137.75 128.75 137.45 129.2 136.85 130.5 135.5 132.3 134.35 133.85 133.1 135.7 Q132.7 136.6 132.9 138.2 L133.3 139.9 133.3 141.5 Q133.3 141.75 133.75 141.7 L134.25 141.75 134.35 142.8 134.55 143.4 134.55 143.7 134.35 144.0 133.1 144.2 131.45 144.5 121.95 144.7 115.15 144.35 112.4 143.95 109.5 143.6 103.0 143.7 101.8 143.6 99.7 143.45 99.85 142.95 101.6 142.95 101.65 142.2 102.2 140.85 104.25 137.2 105.3 134.5 106.55 131.9 108.2 126.65 108.85 124.05 Q109.2 122.25 109.5 121.4 L110.45 118.45 110.3 118.5 110.85 117.15 111.0 116.25 111.6 115.1 111.75 114.65 113.05 110.7 114.0 106.75 115.05 102.95 117.65 95.15 118.25 93.2 118.55 92.35 118.55 92.25 118.7 91.3 119.35 89.1 119.2 89.25 118.95 89.25 Q120.15 86.0 120.6 82.2 120.95 78.4 121.9 75.25 L124.35 67.05 Q125.05 64.9 126.8 61.35 L128.75 57.65 130.95 54.1 131.95 51.55 132.95 48.9 Q133.35 47.25 135.0 43.85 L138.1 38.1 141.15 32.5 143.15 28.0 145.05 23.55 146.25 21.5 146.1 21.5 146.0 21.6 145.7 21.4 Q145.3 20.85 146.0 19.0 L147.25 16.3 148.1 14.85 148.6 13.55 150.15 10.9 150.85 9.4 Q147.95 10.0 144.9 11.3 L139.25 13.75 Q135.25 15.3 133.85 16.15 130.0 18.35 129.55 18.35 L129.15 18.3 129.2 18.25 126.6 19.7 Q125.6 20.25 124.55 20.95 L122.4 22.45 Q120.35 23.9 117.6 25.05 L113.45 26.7 112.0 29.25 109.85 33.0 109.95 32.95 109.5 33.8 101.7 46.9 99.45 50.55 96.5 55.6 95.15 58.15 93.6 60.6 90.55 65.55 87.9 70.5 87.95 70.65 87.75 71.1 87.55 71.55 87.0 72.5 Q86.65 73.15 86.25 74.45 L84.65 78.25 84.65 78.3 84.6 78.4 84.6 78.9 Q84.65 80.0 83.55 82.25 L82.2 85.65 81.0 88.95 80.7 89.4 80.5 89.8 77.7 93.4 Q75.2 96.1 74.2 98.2 L73.65 100.0 72.9 102.15 72.25 103.15 72.3 103.25 71.5 103.7 69.25 103.45 68.95 103.0 68.75 102.15 68.9 100.35 69.1 98.6 Q69.35 97.6 69.7 96.85 70.15 95.9 71.55 94.3 L73.65 91.95 70.1 94.55 Q67.8 96.3 67.0 97.35 L62.85 102.15 62.1 102.9 Q61.6 103.4 61.2 104.25 L60.5 105.7 59.0 108.45 57.55 111.25 56.5 112.9 Q55.8 113.85 55.05 113.9 L54.95 113.8 54.85 113.85 53.75 113.9 53.7 113.95 Q52.05 113.95 51.95 113.35 L52.3 112.4 54.55 108.2 56.3 105.1 56.75 104.25 Q58.0 101.65 59.2 100.15 L60.6 98.35 59.0 100.0 58.35 100.6 56.8 102.05 55.9 102.85 53.85 105.05 53.7 105.2 50.65 109.75 Q47.65 114.2 47.3 114.2 44.2 114.2 43.9 113.45 L44.25 112.5 45.15 111.05 45.45 110.65 46.15 109.7 45.3 109.75 Q43.6 109.75 43.55 109.25 L44.0 108.35 48.0 101.85 50.2 98.6 51.6 96.75 52.35 95.95 53.6 94.4 54.5 93.2 53.3 94.35 50.4 97.25 48.45 99.55 Q46.95 101.25 46.3 101.25 45.4 101.25 45.05 100.75 L44.95 100.3 45.0 100.05 47.8 96.35 51.15 92.35 Q55.45 87.7 59.0 84.75 L63.3 80.8 67.25 77.1 68.2 76.25 71.4 72.8 73.95 69.8 75.25 67.8 76.25 65.9 79.8 57.45 83.05 49.7 85.8 43.0 86.35 41.6 Q87.35 38.8 87.9 37.6 L89.2 34.7 89.15 34.7 Q87.25 35.7 86.9 35.7 86.0 35.7 85.5 35.25 L84.85 34.55 Q84.4 34.3 85.0 33.1 L85.45 32.25 86.35 31.35 87.5 30.5 Q86.25 30.45 87.2 28.55 L87.95 26.45 88.45 25.55 Q88.75 25.15 89.7 24.45 L91.15 23.45 91.65 23.1 Q91.3 22.8 91.25 22.0 91.1 21.5 91.4 20.85 L92.4 18.65 Q93.35 16.65 94.0 16.1 94.5 15.7 96.45 14.7 L96.5 14.5 Q96.55 14.35 97.6 13.9 98.1 13.6 98.55 13.45 L98.8 12.8 99.7 10.8 99.9 10.2 101.2 7.2 101.55 6.45 101.8 5.95 102.1 5.45 102.5 4.4 103.45 2.2 104.75 -2.1 106.25 -6.5 107.05 -8.65 108.15 -10.8 111.7 -19.55 112.4 -21.35 113.3 -24.5 113.95 -26.65 Q113.95 -27.35 115.0 -29.65 L116.7 -33.0 Q118.45 -36.55 120.85 -42.9 123.25 -49.3 125.05 -53.05 L125.9 -54.7 128.8 -59.55 132.8 -65.1 135.6 -68.15 138.7 -71.2 140.45 -72.7 142.2 -74.2 Q143.25 -74.9 143.85 -75.7 L144.95 -77.25 145.0 -77.25 Q145.35 -78.25 145.15 -79.4 L144.6 -82.1 143.95 -83.3 142.85 -84.5 142.45 -85.0 141.55 -85.4 141.05 -85.6 140.1 -85.75 Q139.6 -85.8 139.35 -86.2 138.45 -87.55 138.5 -88.9 L138.45 -94.15 138.1 -95.45 Q137.95 -96.25 138.15 -96.65 L138.1 -96.95 137.25 -97.25 137.15 -97.75 137.15 -98.75 137.35 -99.8 137.65 -101.75 Q137.8 -103.0 137.45 -103.9 L137.2 -104.95 137.1 -106.0 136.65 -108.05 Q136.25 -108.85 136.7 -110.05 L137.55 -112.1 139.65 -116.0 141.6 -119.65 Q141.85 -120.4 143.05 -121.6 L145.05 -123.4 148.3 -127.05 151.2 -130.8 Q153.45 -133.0 156.85 -134.55 M136.4 -19.05 L135.5 -16.25 134.45 -13.45 129.3 -2.3 126.35 3.65 127.2 3.7 128.65 3.7 129.6 3.4 135.1 1.05 142.3 -2.5 148.6 -5.9 150.65 -7.1 Q150.25 -9.6 149.65 -10.85 L147.7 -15.05 Q146.3 -17.55 143.95 -19.45 141.65 -21.3 139.7 -26.2 L138.9 -24.75 136.4 -19.05 M145.2 -20.8 L145.65 -20.45 144.75 -21.2 144.65 -21.25 145.2 -20.8 M196.8 -53.4 L196.85 -53.45 196.8 -53.45 196.8 -53.4 M444.5 -137.1 L448.2 -137.45 449.45 -137.35 450.15 -137.35 451.15 -137.5 452.1 -137.35 452.3 -137.35 453.55 -136.95 454.25 -137.0 454.7 -136.6 454.8 -136.75 Q455.45 -136.65 456.15 -135.75 L456.35 -135.6 Q457.55 -135.1 458.4 -133.6 L458.6 -133.3 459.8 -131.95 463.05 -129.2 464.45 -127.9 464.8 -127.55 465.25 -127.25 465.8 -127.05 465.7 -126.75 Q465.3 -125.95 463.55 -125.95 L462.65 -125.95 462.6 -125.85 462.4 -124.25 462.6 -121.15 463.0 -117.95 463.6 -116.6 Q464.15 -115.25 464.0 -114.9 L463.75 -114.6 462.45 -114.45 Q461.3 -114.45 460.45 -115.05 L460.25 -114.1 Q459.7 -111.75 459.65 -110.25 L459.5 -106.45 Q459.4 -105.15 459.95 -102.75 459.75 -102.35 459.15 -102.35 458.1 -102.35 456.65 -103.75 L455.75 -100.25 Q455.4 -98.85 455.5 -96.6 L455.4 -94.4 454.85 -93.7 Q453.55 -93.7 452.4 -95.0 L451.7 -96.0 Q450.75 -93.9 450.35 -92.15 L449.85 -89.6 449.7 -87.2 449.35 -87.1 Q448.75 -87.1 447.55 -88.05 L446.3 -89.2 Q445.85 -89.65 445.55 -90.45 L445.5 -90.35 444.35 -88.25 443.75 -86.5 443.8 -85.7 443.7 -84.85 Q443.6 -84.75 443.35 -84.75 442.7 -84.75 441.4 -86.55 L440.75 -87.4 440.6 -87.6 440.0 -86.5 439.0 -84.2 438.65 -83.5 Q438.6 -83.35 438.35 -83.35 L437.0 -84.25 Q436.65 -84.4 436.25 -85.3 L436.0 -86.1 435.9 -85.85 435.05 -83.95 Q435.75 -83.45 436.7 -83.0 L437.45 -82.65 443.45 -81.6 445.4 -81.15 446.5 -80.25 Q448.5 -78.7 448.85 -76.75 450.5 -65.85 450.55 -59.55 L450.65 -51.0 450.8 -42.3 450.6 -33.7 Q450.15 -28.8 448.35 -25.15 L448.1 -24.85 448.1 -24.9 448.0 -24.75 Q447.1 -22.8 440.9 -16.25 L433.7 -9.0 425.7 -1.3 425.7 -1.25 425.45 -1.0 425.35 -0.75 423.6 0.9 419.45 5.35 415.3 10.2 414.15 15.65 412.0 23.15 408.45 33.3 408.35 33.6 407.85 34.65 406.95 36.8 399.45 51.35 396.0 57.55 391.55 65.9 389.65 69.9 389.55 69.9 389.05 71.15 387.9 73.4 385.5 77.95 Q384.25 80.5 383.3 83.7 L381.75 89.1 379.8 94.65 378.05 100.25 376.75 105.8 374.9 111.45 Q372.3 118.0 370.1 122.5 L369.25 123.9 369.2 123.9 368.5 125.3 365.65 131.1 357.15 149.25 352.85 158.25 350.95 162.75 349.3 166.5 350.8 166.6 350.95 166.85 350.65 167.85 Q350.35 168.5 345.7 169.85 340.4 171.35 336.2 171.35 L334.9 171.25 334.2 172.5 334.8 171.2 333.85 171.1 333.85 170.85 334.15 169.95 Q334.45 169.3 335.9 168.7 L338.55 162.6 Q341.15 156.65 342.0 152.7 L342.8 150.3 343.55 147.75 344.25 142.85 344.95 137.95 Q345.4 135.05 345.95 133.05 346.95 129.5 349.75 123.1 352.75 116.3 353.7 113.3 355.7 107.2 355.75 103.5 L355.75 98.5 356.25 94.25 356.4 93.6 357.25 90.7 359.75 84.9 361.4 78.25 363.25 69.05 364.8 59.65 Q366.3 50.8 369.15 41.45 L371.35 34.95 370.1 35.35 367.45 36.3 359.6 47.25 345.8 64.25 Q341.2 69.7 333.35 81.45 L327.75 88.3 326.9 89.6 325.5 91.95 324.2 94.25 322.6 96.65 318.4 101.3 313.85 106.05 309.3 110.75 Q306.5 113.6 305.2 115.4 L298.2 124.8 Q292.3 133.0 283.65 142.1 L278.75 147.15 Q275.65 150.4 273.4 153.45 L268.6 159.8 Q266.15 163.2 264.8 166.0 264.05 167.55 262.15 172.75 L261.95 173.15 Q263.35 173.7 263.0 174.35 262.55 175.3 261.7 175.6 L259.05 175.85 Q256.4 175.85 252.7 173.65 249.4 171.7 249.2 170.85 248.85 169.25 249.4 167.6 249.55 167.05 250.6 164.85 L251.85 162.55 Q252.85 161.25 254.55 160.85 L255.05 161.05 260.65 152.45 268.2 140.6 Q272.8 132.4 275.2 128.9 277.5 124.9 278.95 123.0 L280.9 120.05 Q281.75 118.7 282.55 117.8 283.65 115.95 286.75 111.9 L291.05 106.35 301.05 94.2 Q306.0 87.75 309.15 81.75 L312.45 74.8 312.5 74.8 314.85 70.35 317.6 65.1 319.9 60.25 321.25 57.8 321.35 57.55 321.4 57.5 Q325.3 50.1 329.35 43.35 L338.6 28.05 340.2 25.55 340.65 22.85 341.75 17.15 342.2 14.25 342.9 11.4 343.05 7.4 342.9 6.05 342.85 5.4 Q342.75 2.2 343.1 -3.6 L343.15 -8.9 Q343.25 -12.15 343.65 -14.25 L344.8 -20.0 345.3 -22.4 Q345.25 -23.25 345.5 -24.0 L346.45 -26.0 Q349.6 -32.6 359.85 -47.8 L367.2 -58.65 370.95 -64.15 373.05 -67.7 Q374.05 -69.8 377.65 -74.65 L382.55 -80.8 Q386.8 -85.55 389.15 -87.1 394.45 -90.75 401.65 -91.0 L402.95 -91.05 403.6 -91.0 403.65 -91.05 403.9 -91.05 403.85 -91.0 405.25 -90.95 405.3 -91.05 407.1 -93.65 405.3 -92.8 Q404.3 -92.05 401.95 -91.3 L401.3 -91.3 403.55 -94.0 404.5 -95.15 405.4 -96.55 405.35 -96.6 403.15 -96.0 Q401.0 -95.3 400.25 -95.15 L400.0 -95.45 400.75 -95.95 402.1 -96.9 403.8 -98.3 405.4 -99.75 406.65 -101.1 409.15 -104.25 410.45 -105.95 408.75 -104.65 406.8 -103.2 402.15 -100.5 401.9 -100.5 401.95 -100.7 404.75 -103.5 408.5 -107.35 411.05 -110.6 411.9 -112.1 Q411.25 -111.7 409.55 -110.95 407.15 -109.85 405.9 -109.5 L405.9 -109.75 408.35 -111.65 Q411.1 -113.6 412.45 -114.85 L413.85 -116.3 412.9 -116.2 412.75 -116.3 Q412.6 -116.05 412.75 -116.4 L414.5 -117.2 414.8 -117.3 414.95 -117.5 417.0 -119.9 417.0 -120.05 414.6 -119.5 414.65 -119.75 Q414.9 -120.2 416.25 -120.85 L418.25 -121.75 421.75 -123.75 Q424.85 -126.0 426.8 -127.7 L426.9 -127.75 422.75 -126.55 422.4 -126.6 Q422.25 -126.55 422.4 -126.8 L427.1 -129.6 432.9 -132.85 Q435.85 -134.4 440.25 -135.95 L444.5 -137.1 M415.55 -120.0 L415.6 -120.1 415.45 -120.0 415.55 -120.0 M424.3 -127.45 L424.3 -127.5 424.2 -127.45 424.3 -127.45 M416.45 -117.4 L416.55 -117.4 416.6 -117.5 416.45 -117.4 M407.05 -110.3 L407.15 -110.3 407.15 -110.4 407.05 -110.3 M436.2 -111.8 L436.35 -111.8 436.35 -111.85 436.2 -111.8 M402.8 -92.2 L402.75 -92.25 402.75 -92.2 402.8 -92.2 M401.15 -95.7 L401.1 -95.75 401.1 -95.7 401.15 -95.7 M403.45 -101.65 L403.4 -101.6 403.45 -101.6 403.45 -101.65 M379.2 -56.2 L378.1 -54.65 376.4 -52.5 376.3 -52.5 372.7 -47.8 367.55 -41.1 361.75 -33.75 Q358.25 -29.4 357.7 -27.75 L357.55 -27.7 357.3 -27.3 Q356.2 -25.05 355.7 -22.6 L354.95 -18.3 353.55 -9.45 352.0 -0.5 351.7 1.2 351.8 1.2 351.75 1.45 351.9 2.7 352.45 3.6 352.9 2.95 352.9 2.9 353.15 2.45 353.2 2.4 353.5 1.95 353.9 0.9 Q355.55 -2.5 362.35 -10.7 L368.7 -19.1 369.0 -19.75 370.0 -21.45 Q371.3 -24.15 372.05 -28.0 L373.1 -34.6 374.2 -41.1 374.9 -44.25 375.6 -47.2 Q376.45 -50.55 378.55 -54.85 L379.2 -56.2 M432.15 -53.25 L430.0 -49.3 430.1 -49.3 430.0 -49.05 429.9 -48.85 429.85 -48.75 427.2 -44.75 424.5 -41.2 424.0 -40.6 423.15 -39.55 421.1 -37.15 419.3 -34.75 416.7 -29.9 Q415.1 -26.55 414.9 -24.85 L414.9 -24.35 415.0 -24.4 414.95 -23.9 414.95 -23.2 414.95 -23.1 Q415.0 -21.65 415.35 -19.15 L415.35 -19.1 415.95 -16.2 416.4 -14.3 416.55 -14.4 416.65 -14.4 416.6 -14.15 416.5 -14.0 416.65 -13.5 416.65 -13.35 417.0 -12.1 Q417.0 -11.45 417.35 -10.05 L417.65 -8.0 417.65 -3.9 417.65 -3.75 419.0 -4.1 419.8 -4.3 420.95 -5.55 422.3 -6.95 422.35 -6.9 427.05 -12.3 432.7 -19.6 435.45 -23.1 437.2 -26.2 436.95 -28.6 436.6 -32.25 435.2 -39.45 434.05 -42.95 Q433.3 -45.35 433.15 -46.65 L432.6 -50.2 432.15 -53.25 M107.6 10.2 L108.0 10.1 108.1 10.05 107.65 10.15 107.6 10.2 M-98.8 -5.85 L-94.8 -7.25 -89.7 -8.7 -86.95 -9.45 -85.8 -9.55 -85.55 -9.5 Q-85.3 -9.4 -85.45 -9.05 L-85.55 -8.2 -83.95 -8.5 -83.7 -8.7 -82.5 -9.0 -79.55 -9.55 -77.4 -9.8 -73.6 -10.9 -72.25 -11.45 -71.6 -11.6 -71.25 -11.9 -70.0 -12.9 -70.35 -14.0 -70.75 -14.65 -70.8 -15.2 Q-70.8 -15.45 -71.15 -15.75 L-71.6 -16.15 Q-71.9 -16.65 -71.55 -17.4 L-71.0 -18.1 -70.4 -18.9 -70.3 -19.35 Q-71.5 -19.05 -71.65 -19.9 -71.9 -20.5 -71.55 -21.15 L-70.15 -22.95 -70.6 -24.1 Q-71.2 -25.05 -70.7 -26.0 L-69.45 -27.45 Q-68.6 -28.15 -68.1 -29.1 L-68.05 -29.6 -68.3 -30.25 -68.15 -31.05 Q-68.9 -30.5 -69.3 -30.5 -69.95 -30.5 -69.95 -30.9 L-69.85 -31.35 -69.8 -31.45 -69.75 -31.5 -69.5 -32.05 -68.3 -33.8 -65.5 -35.9 Q-64.1 -36.85 -63.3 -37.9 L-62.55 -38.85 -60.9 -42.1 -59.7 -43.3 -58.05 -44.45 Q-56.7 -45.2 -54.85 -46.65 L-53.5 -47.8 -53.25 -47.95 -53.25 -48.2 Q-53.0 -48.65 -51.7 -49.0 L-49.4 -49.65 -48.6 -49.8 -47.95 -49.95 -47.3 -50.25 -45.35 -50.9 -44.2 -50.7 Q-43.5 -50.7 -42.85 -51.05 L-42.25 -51.4 -38.9 -51.15 -38.0 -50.9 -36.7 -50.6 -35.55 -50.2 -34.85 -50.1 -34.2 -49.95 -34.15 -50.0 -33.7 -50.1 -33.4 -49.9 -29.65 -50.0 Q-27.55 -50.0 -26.9 -48.0 -26.75 -47.3 -27.15 -46.65 L-27.65 -45.8 -27.7 -44.7 -27.5 -44.45 -27.15 -42.55 Q-27.15 -41.6 -27.45 -40.65 L-27.7 -39.95 -27.7 -39.2 -27.75 -38.4 -28.05 -37.85 -28.85 -36.7 -29.0 -35.8 -29.1 -34.9 -29.85 -33.1 -30.85 -31.45 -30.85 -31.35 -31.1 -30.1 -31.25 -29.05 -31.2 -29.1 -31.55 -28.35 -31.8 -27.6 Q-32.45 -26.3 -33.2 -25.45 L-34.5 -23.3 -35.8 -20.5 -37.5 -18.3 -45.4 -8.1 -46.1 -7.25 -46.2 -6.9 -46.9 -6.25 -46.75 -6.2 -46.7 -6.3 -46.1 -6.25 Q-46.0 -6.1 -45.65 -6.1 L-45.4 -6.1 -42.75 -5.6 -38.95 -4.7 -38.25 -4.6 -38.3 -4.45 -38.25 -4.35 -37.7 -5.4 -37.4 -5.95 Q-37.15 -6.4 -36.75 -6.45 -36.1 -6.55 -35.45 -6.15 L-34.65 -5.6 -33.0 -4.7 -31.85 -3.85 -30.6 -2.7 -30.2 -2.15 -29.6 -1.45 -28.7 0.15 -27.6 3.25 Q-26.9 5.6 -26.9 6.35 L-26.6 9.45 Q-26.3 11.1 -25.95 15.4 -25.55 20.75 -25.95 21.65 L-26.0 21.75 Q-26.0 22.4 -26.15 22.75 -26.5 23.5 -30.5 26.1 L-32.15 27.15 -32.15 27.55 -32.05 28.4 -32.25 30.15 -32.6 33.65 -34.0 40.6 -35.65 47.45 Q-36.8 51.6 -38.2 54.5 L-38.5 55.0 -38.6 55.35 -40.0 57.45 -41.3 59.25 -45.05 63.1 -45.4 63.5 -44.6 63.6 -42.1 63.75 -41.7 63.9 -40.85 64.1 Q-40.25 64.35 -38.9 65.25 -36.3 66.9 -34.9 68.4 -33.7 69.65 -33.95 72.45 -34.15 74.7 -34.9 76.25 -35.55 77.65 -39.05 82.5 L-41.45 85.6 -43.6 87.85 -44.9 89.1 -47.8 92.0 Q-50.0 93.95 -55.1 97.85 L-59.3 100.85 -63.5 103.75 -67.7 106.6 Q-70.65 108.5 -72.05 109.55 L-88.2 121.25 -92.1 124.1 -96.1 127.1 -100.2 129.9 Q-102.45 131.45 -103.35 132.55 L-102.95 133.45 -101.7 135.05 Q-101.1 136.35 -102.0 138.2 L-102.7 139.55 -104.05 140.95 -104.45 141.25 -105.4 141.7 -106.85 142.05 -110.35 142.55 -114.85 142.9 -120.65 142.8 -122.35 142.6 -123.3 142.55 -124.2 142.25 -126.55 141.5 -128.6 139.8 -132.8 135.1 -134.7 132.85 Q-135.9 131.55 -137.5 130.75 L-139.1 130.1 Q-140.15 129.55 -140.3 128.95 L-140.55 127.85 -140.0 126.7 -138.3 123.85 -135.35 120.65 Q-134.0 119.3 -131.2 117.65 L-126.6 114.65 -121.65 111.65 -116.65 108.65 -114.65 107.15 -112.55 105.65 -108.55 102.85 -109.5 102.5 -109.9 102.0 -111.4 102.15 -111.45 102.25 -112.8 102.1 -113.85 102.3 -118.15 102.45 -119.45 102.55 -119.75 102.7 -122.25 102.85 -125.9 102.7 -125.85 102.6 -127.95 102.45 -129.4 102.35 -130.95 102.25 -133.2 102.45 -134.0 102.65 -137.5 106.8 -139.15 109.25 -140.3 111.65 -142.45 116.65 -144.15 122.35 -145.6 127.7 -146.2 129.0 -146.65 130.4 Q-146.8 131.6 -147.3 132.75 L-147.5 133.4 -147.35 134.6 -146.9 137.15 -146.65 139.25 Q-146.5 141.45 -146.85 142.1 L-147.65 143.2 -148.45 144.1 Q-149.95 145.2 -155.0 145.2 L-165.7 144.9 -168.0 144.4 -170.65 143.7 -171.8 142.9 Q-172.25 142.45 -172.2 141.9 L-171.8 140.9 -171.0 139.0 -169.3 136.2 -167.65 133.8 -165.05 128.95 Q-163.8 126.35 -163.2 123.65 -162.6 120.75 -163.0 118.6 -163.8 114.45 -164.2 113.4 L-164.8 110.9 -165.2 108.25 Q-165.55 106.5 -165.25 102.45 L-164.8 97.95 -164.15 95.35 -163.3 92.8 Q-162.7 88.75 -162.1 87.6 L-161.85 87.1 -160.95 84.75 -159.55 82.65 -158.2 81.1 -156.45 79.35 -154.35 77.5 -152.85 76.35 -152.5 75.3 -151.55 73.35 -150.55 71.35 -149.85 69.4 Q-147.85 65.2 -146.6 63.75 L-144.75 60.95 -143.75 59.55 -143.4 58.8 -142.9 58.3 -142.55 56.75 -142.2 54.8 -142.1 53.75 -141.5 52.0 Q-141.1 50.45 -140.15 48.5 L-137.0 41.65 Q-134.05 35.55 -131.85 31.85 -131.1 30.25 -128.7 26.95 L-127.0 24.5 -126.05 23.3 -126.0 23.2 Q-128.0 22.65 -128.7 22.05 -129.45 21.4 -129.0 20.45 -128.4 19.2 -125.2 15.75 -122.55 12.7 -120.45 11.1 L-114.9 6.4 -112.25 4.05 -109.3 1.7 -103.1 -3.0 -99.95 -5.25 -99.6 -5.45 -99.65 -5.35 -98.8 -5.85 M-30.75 -33.65 L-30.85 -32.6 -30.6 -33.0 -30.35 -34.1 -30.75 -33.75 -30.75 -33.65 M-70.95 45.1 Q-77.35 50.75 -80.25 54.85 -83.8 59.95 -85.5 63.65 L-85.3 64.0 -82.6 63.35 -77.65 63.05 -70.4 62.55 -64.0 62.15 -64.05 62.3 -62.4 60.75 -58.6 57.1 -57.1 55.2 -56.6 54.5 -56.55 53.55 -56.55 51.85 Q-56.35 49.35 -56.45 48.35 L-56.5 44.9 -56.25 41.5 -55.85 38.05 -55.95 36.25 -56.15 34.6 -55.95 29.95 -56.4 30.45 Q-57.15 31.55 -60.85 35.35 L-70.95 45.1" fill="#000000" fill-opacity="0.101960786" fill-rule="evenodd" stroke="none"/>
  </g>
  <defs>
    <linearGradient gradientTransform="matrix(1.0E-4, -0.3085, 0.2955, 1.0E-4, 57.95, -17.0)" gradientUnits="userSpaceOnUse" id="gradient0" spreadMethod="pad" x1="-819.2" x2="819.2">
      <stop offset="0.0" stop-color="#1a1a1a"/>
      <stop offset="0.9882352941176471" stop-color="#444444"/>
    </linearGradient>
  </defs>
</svg>
