<?xml version="1.0" encoding="UTF-8" standalone="no"?>
<svg xmlns:xlink="http://www.w3.org/1999/xlink" height="368.05px" width="256.35px" xmlns="http://www.w3.org/2000/svg">
  <g transform="matrix(1.0, 0.0, 0.0, 1.0, 29.85, 181.7)">
    <path d="M112.55 -113.7 Q115.95 -109.15 124.0 -96.45 L124.85 -95.2 Q125.25 -94.0 125.25 -92.95 L125.25 -92.75 Q126.5 -91.65 126.5 -90.85 126.5 -89.3 119.25 -85.1 119.45 -83.75 121.1 -81.3 L123.75 -77.4 Q124.95 -75.2 128.95 -69.6 132.8 -64.25 134.05 -61.65 135.45 -58.85 136.75 -53.75 138.2 -48.05 139.05 -45.9 140.4 -42.65 142.85 -38.0 L146.6 -31.0 146.8 -30.7 153.55 -19.65 Q155.9 -15.9 158.9 -8.55 L160.1 -5.8 161.15 -2.95 161.8 -0.2 162.05 1.35 162.1 1.5 Q162.45 1.35 162.9 1.95 L163.65 3.2 Q163.85 4.05 164.6 5.45 L164.8 5.85 166.2 10.0 Q166.6 11.5 167.15 12.2 L167.7 13.35 168.1 14.5 168.65 16.65 Q169.05 18.1 170.1 19.0 172.0 20.65 172.4 23.5 172.9 27.45 173.2 28.2 173.9 29.8 175.95 32.65 L179.25 37.2 Q180.15 38.7 181.45 41.85 182.55 44.7 183.9 46.35 L186.85 50.9 187.2 52.05 187.5 53.15 189.0 55.45 Q192.15 62.35 193.25 64.45 L195.6 68.95 196.25 70.45 Q197.15 72.55 197.7 77.95 L197.8 78.8 Q198.2 83.4 198.2 88.25 L197.9 94.4 Q197.9 97.45 198.85 100.8 199.5 103.2 201.15 107.25 L203.1 113.35 Q204.25 117.8 204.25 120.1 L203.75 126.3 203.1 130.75 204.3 136.35 205.7 139.8 207.5 143.4 209.25 146.95 210.55 150.4 212.5 157.4 214.55 164.4 Q215.8 168.65 217.5 171.5 219.85 175.4 221.4 178.65 L222.5 181.05 224.15 180.6 225.7 180.9 226.5 181.5 225.95 181.95 224.45 181.5 222.9 181.95 224.05 185.5 Q223.55 185.65 223.3 185.0 L223.05 184.1 222.15 182.2 221.65 182.35 220.6 182.0 215.75 183.2 Q210.4 184.35 205.6 184.35 L193.4 183.35 188.3 182.35 180.2 180.35 179.1 180.25 177.65 180.35 Q178.7 183.65 180.0 186.15 L179.65 186.35 Q178.05 183.85 176.85 180.45 L176.15 180.5 175.05 180.45 174.95 180.05 175.0 179.8 176.6 179.65 175.95 177.45 173.85 168.7 Q173.4 167.15 171.55 164.3 L170.15 162.05 Q169.15 160.55 168.15 159.95 164.45 157.65 163.2 155.5 L162.2 153.55 162.1 153.4 Q161.4 152.45 160.55 150.35 159.45 148.0 157.85 146.55 L154.5 142.95 151.35 139.05 Q148.2 135.45 146.45 131.55 145.1 128.7 143.85 124.1 L142.95 120.3 Q142.4 118.05 141.7 116.6 L139.55 113.35 139.1 112.8 136.55 109.1 134.85 105.3 132.95 101.55 Q130.9 98.3 131.0 94.25 L129.7 93.9 129.25 93.55 128.0 93.1 127.1 93.1 126.7 94.65 126.45 95.3 Q125.75 96.75 125.65 97.45 125.2 99.2 125.2 101.55 L124.8 110.05 Q124.6 112.65 123.1 118.5 L122.6 120.6 122.15 122.75 121.75 124.6 121.75 124.65 122.1 124.2 121.25 126.95 Q120.55 128.65 120.55 128.95 120.45 129.75 120.5 131.4 L120.15 133.6 120.5 136.85 119.75 145.4 Q119.6 146.85 119.85 149.7 L119.75 151.8 Q119.6 152.45 119.85 153.8 119.85 159.35 119.3 162.8 L119.2 163.35 119.2 165.0 Q119.1 166.3 118.65 167.3 L118.15 169.25 117.7 171.6 Q117.7 172.75 118.95 174.8 L120.5 176.95 121.5 178.95 Q121.65 179.3 122.2 179.25 L122.85 179.3 123.6 180.6 124.25 181.4 124.45 181.75 124.35 182.15 122.9 182.4 121.0 182.8 109.05 183.05 100.2 182.6 96.45 182.1 92.55 181.65 84.4 181.75 82.8 181.65 80.05 181.45 79.95 180.8 82.15 180.8 81.8 179.85 Q81.65 179.5 81.65 178.15 L82.0 173.5 81.65 170.1 81.65 166.8 80.5 160.15 79.75 156.85 Q79.1 154.55 78.95 153.45 L78.35 149.7 78.15 149.8 78.15 149.7 78.05 148.05 77.7 146.95 77.7 145.45 77.65 144.9 76.9 139.9 75.7 134.85 74.7 130.05 73.15 120.15 72.75 117.7 72.6 116.6 72.5 116.45 72.15 115.25 71.65 112.45 71.5 112.65 71.2 112.65 Q70.75 108.55 68.95 103.7 67.05 98.9 66.35 94.9 L64.45 84.5 Q64.0 81.75 64.0 77.25 L64.25 72.55 64.85 68.05 64.6 64.8 64.2 61.45 Q63.7 59.35 63.7 55.05 63.7 52.85 64.15 47.75 L64.55 40.65 64.35 34.95 64.0 29.3 64.25 26.7 64.1 26.7 64.0 26.8 63.5 26.55 Q62.7 25.85 62.45 23.5 L62.35 20.1 62.55 18.25 62.35 16.6 62.4 16.15 62.25 15.25 62.25 15.15 59.25 16.8 56.5 18.05 Q54.95 18.75 53.75 19.8 L52.35 21.5 50.7 22.95 49.55 24.25 Q48.25 25.55 48.25 27.0 L48.75 30.65 Q48.75 32.95 48.25 35.05 47.75 37.2 47.75 40.2 47.75 44.45 51.4 51.45 55.0 58.5 55.0 59.85 55.0 60.7 54.65 61.35 54.05 62.3 52.75 62.3 50.05 62.3 48.45 59.2 47.1 55.7 46.4 54.9 45.35 53.7 44.3 51.45 L43.3 48.85 42.75 51.9 Q42.75 53.1 45.15 61.8 L47.5 70.3 Q47.5 70.95 46.25 72.0 44.95 73.05 44.0 73.05 41.35 73.05 41.05 72.2 40.95 70.15 40.0 67.8 L38.0 62.4 Q36.7 59.5 36.5 56.95 L35.85 54.35 35.3 52.65 Q36.4 58.3 38.25 71.7 38.25 72.95 38.05 73.2 37.35 74.05 34.5 74.05 32.45 74.05 32.15 72.8 L32.15 71.3 31.5 68.3 29.65 62.55 Q29.1 60.5 28.45 56.85 L27.4 50.9 27.15 50.55 Q26.45 53.75 26.1 61.75 25.75 68.55 25.5 68.55 20.85 68.55 20.4 67.5 L20.25 60.15 19.75 51.7 19.85 48.5 19.9 48.2 19.75 48.25 Q18.65 48.8 17.4 48.8 L15.85 62.4 15.2 67.05 14.6 73.45 14.4 76.7 13.95 79.8 13.1 86.1 12.8 92.35 12.95 92.55 13.0 93.15 13.0 93.7 12.85 94.9 13.1 97.4 13.45 102.2 13.45 102.4 13.75 103.05 Q14.5 104.45 14.5 107.3 L14.9 111.6 15.35 115.8 15.25 116.35 15.25 116.85 Q15.25 117.95 13.9 121.45 12.4 124.85 12.4 127.5 L12.8 129.8 13.2 132.55 13.0 133.8 13.1 133.95 12.35 134.5 9.35 134.2 8.65 133.6 7.9 132.55 7.0 130.25 6.2 128.05 Q5.9 126.75 5.9 125.8 5.9 124.6 6.65 122.55 L7.85 119.6 5.0 122.9 Q3.15 125.1 2.75 126.45 L0.65 132.1 0.45 132.55 -0.1 133.5 Q-0.4 134.1 -0.4 135.2 L-0.4 137.05 -0.6 140.55 -0.7 144.1 -1.05 146.2 Q-1.35 147.4 -2.25 147.45 L-2.45 147.3 -2.55 147.4 -3.9 147.45 -3.95 147.5 Q-6.05 147.5 -6.55 146.75 L-6.7 145.55 -6.35 140.2 -6.05 136.3 -6.05 135.2 Q-6.05 131.9 -5.4 130.0 L-4.8 127.7 -5.8 129.8 -6.25 130.55 -7.3 132.4 -7.95 133.4 -9.2 136.2 -9.3 136.4 -10.35 142.2 Q-11.45 147.85 -11.9 147.85 -15.8 147.85 -16.7 146.9 L-16.85 145.65 -16.6 143.85 -16.45 143.3 -16.15 142.1 -17.15 142.2 Q-19.3 142.2 -19.7 141.55 L-19.7 140.4 -18.6 132.15 -17.8 128.05 -17.15 125.7 -16.7 124.65 -16.05 122.7 -15.65 121.2 -15.65 121.1 -16.45 122.65 -18.35 126.3 -19.45 129.25 Q-20.3 131.4 -21.15 131.4 -22.3 131.4 -23.0 130.75 L-23.45 130.2 -23.5 129.85 -22.25 125.15 -20.45 120.1 Q-17.85 114.2 -15.1 110.45 -13.8 108.6 -12.05 105.45 L-9.35 100.75 -8.65 99.65 -6.75 95.3 -5.35 91.5 -4.9 88.95 -4.85 86.55 -5.5 75.8 -6.1 65.95 -6.7 57.75 Q-7.4 57.45 -7.6 55.05 L-7.25 40.1 Q-7.25 37.15 -6.0 24.25 L-4.75 11.55 Q-4.8 9.05 -4.3 4.4 L-3.75 -2.7 -3.4 -6.8 -3.7 -8.85 -4.0 -11.6 -3.95 -14.3 -4.75 -25.4 -5.0 -27.7 -5.8 -31.7 -6.3 -34.4 Q-6.75 -35.3 -6.8 -38.25 L-6.65 -42.5 Q-6.65 -47.0 -7.5 -55.05 -8.4 -63.15 -8.4 -67.9 L-8.3 -70.0 Q-8.2 -72.95 -7.6 -76.15 -6.9 -80.5 -5.95 -83.2 L-4.25 -87.1 -2.25 -90.95 Q-1.85 -91.9 -0.9 -92.85 L0.35 -94.75 0.6 -95.0 0.7 -95.0 1.65 -96.55 Q2.8 -97.4 4.15 -99.25 L5.25 -100.05 5.0 -100.25 3.5 -101.6 0.5 -104.1 -1.8 -106.7 -4.25 -109.35 Q-6.9 -111.65 -9.5 -114.85 L-13.75 -120.05 -18.4 -125.35 -21.0 -127.9 Q-22.95 -129.7 -23.5 -130.45 L-27.35 -135.35 Q-29.85 -138.75 -29.85 -140.8 L-29.7 -141.55 -29.7 -141.65 -29.75 -143.45 Q-29.75 -145.65 -28.35 -151.2 -27.05 -156.3 -27.35 -159.1 -27.4 -160.0 -27.05 -161.1 L-26.25 -163.05 -25.8 -165.0 Q-25.55 -166.2 -25.1 -166.95 L-21.9 -170.95 -20.65 -172.95 -19.2 -174.0 -16.75 -175.35 -12.5 -177.05 -9.95 -177.75 Q-7.95 -178.35 -7.4 -179.1 -6.5 -180.35 -4.25 -181.05 L-1.35 -181.65 10.25 -181.05 12.85 -180.95 15.75 -180.7 Q16.7 -180.55 17.75 -179.8 21.25 -177.15 22.75 -174.45 L25.05 -169.2 Q26.4 -165.75 27.5 -163.7 L30.9 -157.65 Q32.0 -155.4 32.0 -153.3 L31.85 -151.7 31.75 -151.45 31.1 -152.75 31.6 -151.4 33.45 -147.1 Q35.25 -143.1 35.25 -141.25 35.25 -139.35 34.55 -137.4 L41.75 -138.05 45.0 -138.05 46.45 -138.6 Q49.45 -139.65 50.6 -139.2 L50.65 -139.25 52.65 -138.85 53.85 -138.55 56.4 -139.0 59.25 -139.75 60.9 -140.4 62.3 -140.65 63.25 -140.75 63.75 -141.35 63.95 -141.0 64.4 -140.9 Q64.85 -140.9 65.55 -141.4 L66.5 -141.95 70.05 -142.3 71.05 -142.6 73.1 -142.65 74.6 -142.85 78.35 -143.05 78.75 -143.05 78.7 -143.25 80.4 -143.1 82.5 -142.8 Q83.75 -142.9 86.4 -141.65 86.8 -141.4 88.5 -141.1 L90.35 -140.5 92.2 -139.1 Q95.3 -137.45 96.45 -136.15 L96.75 -135.8 101.45 -128.95 Q107.45 -120.45 112.55 -113.7 M32.1 -147.1 L30.65 -150.5 30.25 -147.2 29.75 -142.9 Q29.75 -141.25 30.35 -139.45 31.1 -137.4 32.35 -136.0 L32.8 -136.15 33.4 -138.1 Q34.15 -140.35 34.15 -141.2 34.15 -142.55 32.1 -147.1 M25.8 -134.85 Q24.5 -137.55 22.25 -140.05 19.25 -143.0 17.6 -145.05 15.6 -147.5 12.55 -148.3 10.05 -148.9 7.65 -148.3 7.85 -147.75 9.2 -146.7 10.35 -145.8 10.35 -145.05 10.35 -144.65 9.75 -144.45 L4.0 -143.85 0.0 -144.55 -2.25 -145.05 Q-2.85 -145.05 -3.0 -144.5 L-3.0 -143.9 Q-3.0 -140.05 1.75 -137.5 L6.5 -135.4 Q6.5 -134.65 5.65 -134.5 L2.85 -133.6 1.7 -132.6 0.4 -131.35 Q-0.45 -130.6 -2.95 -129.75 L-8.15 -128.1 Q-7.4 -127.6 -5.5 -127.15 L-2.7 -126.7 Q-0.3 -126.7 1.65 -128.1 2.55 -128.8 4.85 -131.25 9.1 -135.8 14.35 -135.8 17.25 -135.8 18.5 -135.2 19.25 -134.85 19.25 -134.4 19.25 -133.6 18.15 -133.25 16.75 -132.85 16.1 -131.55 L15.5 -129.85 Q15.15 -129.35 13.2 -129.4 L10.4 -129.35 12.0 -128.2 13.65 -126.7 Q13.35 -126.3 12.3 -126.35 L8.35 -126.45 5.45 -126.35 Q5.05 -126.35 4.45 -125.95 L3.9 -125.45 Q3.9 -125.1 4.7 -123.75 L5.75 -122.1 Q6.25 -121.4 6.35 -120.45 L6.4 -118.7 Q6.5 -118.0 7.2 -117.15 L8.15 -115.6 8.65 -113.75 Q9.05 -112.35 9.5 -112.35 10.6 -112.35 11.55 -113.65 L13.25 -116.35 14.15 -118.4 Q14.7 -119.7 15.35 -119.7 16.3 -119.7 16.45 -117.7 L16.75 -114.7 Q17.1 -113.85 19.25 -113.4 L22.25 -112.85 24.65 -112.1 27.25 -111.35 Q26.7 -113.0 26.55 -115.1 L26.5 -118.9 26.9 -124.4 27.25 -129.65 Q27.25 -132.0 25.8 -134.85 M40.1 -114.35 L39.85 -114.8 40.1 -115.0 40.1 -114.35 M41.7 -116.35 L42.3 -116.95 Q45.15 -123.5 45.15 -126.3 45.15 -128.45 43.7 -129.4 41.4 -130.95 35.0 -131.05 L36.25 -123.15 Q36.75 -118.55 36.75 -115.1 L36.7 -110.95 35.75 -105.7 35.75 -104.45 Q37.55 -106.9 40.45 -112.95 L40.2 -114.1 41.7 -116.35 M23.4 -100.85 L23.35 -100.7 23.45 -100.7 Q25.8 -100.75 27.0 -101.85 27.85 -102.6 27.85 -103.6 27.85 -104.8 26.4 -106.1 25.0 -107.35 23.4 -107.6 L23.9 -103.85 Q23.9 -101.9 23.4 -100.85 M42.35 -136.85 L42.15 -136.9 42.3 -136.85 42.35 -136.85 M44.8 -119.65 L44.75 -119.7 44.75 -119.6 44.8 -119.65 M26.6 -32.0 Q26.6 -27.1 26.9 -24.75 L27.45 -21.2 27.85 -17.7 28.1 -14.5 28.05 -12.3 28.15 -4.2 27.3 -4.0 27.25 -3.8 26.1 5.4 24.6 15.3 Q24.4 16.8 24.3 20.2 L23.7 23.65 25.4 21.8 29.75 17.3 31.35 15.05 Q32.2 13.45 32.75 12.8 L36.5 8.3 Q38.95 5.35 45.85 0.2 L53.6 -5.65 Q52.9 -6.25 52.1 -7.65 L50.4 -11.2 48.4 -14.2 48.15 -15.0 43.65 -19.7 Q40.35 -22.85 36.25 -25.3 32.15 -27.65 26.7 -33.85 L26.6 -32.0 M35.95 -27.55 L36.75 -27.1 36.35 -27.35 36.0 -27.55 35.95 -27.55 M-3.05 49.95 L-3.25 51.65 -3.25 52.85 -3.05 57.05 -1.65 65.2 -1.2 72.25 Q-0.85 79.05 -0.85 81.7 -0.85 88.65 -1.15 91.4 L-1.2 92.35 -1.5 93.75 Q-1.75 95.25 -2.5 96.3 L-5.35 101.05 -5.5 101.4 -7.2 104.45 -8.0 105.5 -11.5 109.5 -15.05 113.5 Q-19.2 119.1 -19.7 121.5 -20.4 124.15 -20.95 125.35 L-21.85 127.5 -22.55 129.45 -22.4 129.8 -22.3 129.95 -22.3 130.0 -21.65 130.3 Q-21.1 130.3 -20.2 128.3 L-18.75 124.9 -17.35 122.05 -16.7 121.0 -16.65 121.45 -16.2 120.6 Q-15.0 118.2 -14.7 118.2 L-14.5 118.25 -13.55 116.95 -12.35 114.2 -12.05 113.55 -11.55 112.8 -11.45 112.85 -11.7 113.75 -12.9 117.45 -14.4 121.2 -15.7 124.8 Q-16.45 127.6 -17.4 133.1 -18.4 138.55 -18.4 139.7 L-18.35 140.1 -18.0 140.45 -17.6 140.7 -16.2 140.9 Q-15.35 140.9 -15.35 139.0 L-15.05 137.1 -14.6 133.3 Q-14.4 131.95 -13.7 131.4 -13.45 131.2 -13.3 130.5 L-12.9 129.5 -12.0 127.45 Q-9.15 121.95 -8.75 118.95 L-8.5 118.85 -8.0 118.9 -8.0 120.6 -9.35 124.15 Q-10.25 126.75 -12.65 131.2 -13.4 132.45 -13.7 134.7 L-14.3 138.2 -14.95 141.65 -15.5 143.3 -16.0 145.3 Q-16.0 145.65 -15.45 146.05 -14.55 146.6 -12.7 146.6 -12.0 146.6 -11.9 146.0 L-11.8 145.15 -11.25 143.4 -11.0 141.55 -10.6 139.9 Q-10.35 139.2 -10.25 138.1 L-10.0 136.45 -9.6 135.0 -9.55 135.15 -8.45 132.85 -7.8 132.15 -6.75 130.0 -6.5 129.55 -3.85 124.4 -3.55 124.55 -3.15 123.7 -2.95 124.1 Q-2.95 125.0 -3.7 127.1 L-3.75 127.9 -3.75 128.1 -5.05 132.8 -5.35 138.05 -5.55 144.25 -5.5 145.75 -4.7 146.3 -3.2 146.6 Q-1.85 146.6 -1.85 145.8 -2.0 144.4 -1.75 143.25 -1.4 141.65 -1.4 139.45 L-1.15 135.65 -0.8 133.3 -0.7 133.1 Q-0.1 132.85 0.25 131.95 L1.05 128.8 Q1.65 126.65 3.35 124.05 L6.95 119.25 7.45 118.7 Q8.0 118.2 8.25 118.05 L8.55 117.55 9.7 116.5 10.9 115.1 11.4 116.75 11.6 118.15 Q11.6 119.0 11.2 120.15 L10.15 122.2 Q8.6 124.65 8.6 126.45 8.6 127.6 9.0 128.55 L9.2 129.8 Q9.3 130.65 9.7 131.45 10.4 132.85 11.35 132.85 11.85 132.85 11.95 132.45 L12.05 131.7 Q12.05 130.9 11.65 129.95 11.3 129.0 11.3 128.35 11.3 126.2 12.75 121.55 14.15 116.95 14.15 114.95 14.15 112.4 13.1 107.05 13.0 104.15 12.65 102.95 L12.6 102.45 12.6 102.25 12.05 99.3 11.6 96.3 10.3 90.35 Q9.9 87.6 9.8 79.85 L9.8 78.55 Q9.8 75.1 10.15 71.6 10.6 66.95 11.6 62.05 11.7 58.95 12.55 53.85 L13.45 50.0 13.85 48.3 13.5 48.2 13.5 47.45 13.8 43.65 13.35 43.1 13.9 42.9 14.85 34.2 Q16.15 22.5 16.75 19.55 L19.25 5.65 Q20.25 0.75 20.15 -1.3 L20.4 -2.75 19.85 -2.65 19.65 -2.6 19.75 -5.15 19.4 -12.85 Q18.5 -18.6 18.5 -20.6 L18.2 -24.25 Q17.9 -26.3 17.9 -27.8 L18.1 -32.4 1.35 -32.45 0.95 -32.35 -1.35 -32.25 -1.6 -30.95 -0.6 -23.55 0.9 -16.2 Q2.45 -6.1 2.45 -1.5 L2.45 0.5 2.35 1.35 2.35 2.1 2.35 2.65 1.2 13.7 -0.5 27.55 Q-1.35 32.55 -2.1 40.3 L-3.05 49.8 -3.05 49.95 M74.6 -18.75 Q74.0 -18.15 73.75 -16.9 L73.5 -16.4 73.5 -15.2 73.3 -14.95 73.25 -14.65 73.5 -14.55 73.5 -14.45 73.5 -13.7 73.5 -13.15 Q74.35 -11.9 78.5 -11.9 84.0 -11.9 91.15 -15.25 94.7 -16.85 98.3 -18.75 L98.75 -18.95 Q101.85 -19.8 104.35 -21.4 109.15 -23.6 114.3 -26.15 L114.65 -26.7 Q116.1 -29.0 116.1 -33.7 L115.75 -46.6 115.1 -57.95 114.1 -70.05 Q113.55 -75.45 112.55 -79.7 L112.5 -79.7 112.4 -79.7 Q111.25 -78.45 110.8 -78.2 107.9 -76.5 105.5 -74.45 L95.0 -66.3 91.25 -60.9 87.45 -56.1 89.5 -50.1 Q92.6 -40.85 93.2 -36.9 88.5 -33.1 86.0 -31.4 81.7 -28.45 78.1 -23.95 76.05 -21.35 74.65 -18.8 L74.6 -18.75 M63.15 14.65 L63.25 14.95 63.25 14.6 63.15 14.65 M43.15 47.35 L43.35 47.2 43.0 47.2 43.15 47.35 M-6.25 51.4 L-6.45 51.4 -6.45 51.5 -6.25 51.4" fill="#000000" fill-rule="evenodd" stroke="none"/>
    <path d="M25.8 -134.85 Q27.25 -132.0 27.25 -129.65 L26.9 -124.4 26.5 -118.9 26.55 -115.1 Q26.7 -113.0 27.25 -111.35 L24.65 -112.1 22.25 -112.85 19.25 -113.4 Q17.1 -113.85 16.75 -114.7 L16.45 -117.7 Q16.3 -119.7 15.35 -119.7 14.7 -119.7 14.15 -118.4 L13.25 -116.35 11.55 -113.65 Q10.6 -112.35 9.5 -112.35 9.05 -112.35 8.65 -113.75 L8.15 -115.6 7.2 -117.15 Q6.5 -118.0 6.4 -118.7 L6.35 -120.45 Q6.25 -121.4 5.75 -122.1 L4.7 -123.75 Q3.9 -125.1 3.9 -125.45 L4.45 -125.95 Q5.05 -126.35 5.45 -126.35 L8.35 -126.45 12.3 -126.35 Q13.35 -126.3 13.65 -126.7 L12.0 -128.2 10.4 -129.35 13.2 -129.4 Q15.15 -129.35 15.5 -129.85 L16.1 -131.55 Q16.75 -132.85 18.15 -133.25 19.25 -133.6 19.25 -134.4 19.25 -134.85 18.5 -135.2 17.25 -135.8 14.35 -135.8 9.1 -135.8 4.85 -131.25 2.55 -128.8 1.65 -128.1 -0.3 -126.7 -2.7 -126.7 L-5.5 -127.15 Q-7.4 -127.6 -8.15 -128.1 L-2.95 -129.75 Q-0.45 -130.6 0.4 -131.35 L1.7 -132.6 2.85 -133.6 5.65 -134.5 Q6.5 -134.65 6.5 -135.4 L1.75 -137.5 Q-3.0 -140.05 -3.0 -143.9 L-3.0 -144.5 Q-2.85 -145.05 -2.25 -145.05 L0.0 -144.55 4.0 -143.85 9.75 -144.45 Q10.35 -144.65 10.35 -145.05 10.35 -145.8 9.2 -146.7 7.85 -147.75 7.65 -148.3 10.05 -148.9 12.55 -148.3 15.6 -147.5 17.6 -145.05 19.25 -143.0 22.25 -140.05 24.5 -137.55 25.8 -134.85 M32.1 -147.1 Q34.15 -142.55 34.15 -141.2 34.15 -140.35 33.4 -138.1 L32.8 -136.15 32.35 -136.0 Q31.1 -137.4 30.35 -139.45 29.75 -141.25 29.75 -142.9 L30.25 -147.2 30.65 -150.5 32.1 -147.1 M40.1 -114.35 L40.2 -114.1 40.45 -112.95 Q37.55 -106.9 35.75 -104.45 L35.75 -105.7 36.7 -110.95 36.75 -115.1 Q36.75 -118.55 36.25 -123.15 L35.0 -131.05 Q41.4 -130.95 43.7 -129.4 45.15 -128.45 45.15 -126.3 45.15 -123.5 42.3 -116.95 L41.7 -116.35 40.1 -115.0 39.85 -114.8 40.1 -114.35 M23.45 -100.7 L23.4 -100.85 Q23.9 -101.9 23.9 -103.85 L23.4 -107.6 Q25.0 -107.35 26.4 -106.1 27.85 -104.8 27.85 -103.6 27.85 -102.6 27.0 -101.85 25.8 -100.75 23.45 -100.7 M-3.05 49.8 L-2.1 40.3 Q-1.35 32.55 -0.5 27.55 L1.2 13.7 2.35 2.65 2.35 2.1 2.35 1.35 2.45 0.5 2.45 -1.5 Q2.45 -6.1 0.9 -16.2 L-0.6 -23.55 -1.6 -30.95 -1.35 -32.25 0.95 -32.35 1.35 -32.45 18.1 -32.4 17.9 -27.8 Q17.9 -26.3 18.2 -24.25 L18.5 -20.6 Q18.5 -18.6 19.4 -12.85 L19.75 -5.15 19.65 -2.6 19.85 -2.65 20.4 -2.75 20.15 -1.3 Q20.25 0.75 19.25 5.65 L16.75 19.55 Q16.15 22.5 14.85 34.2 L13.9 42.9 13.35 43.1 13.8 43.65 13.5 47.45 13.5 48.2 13.85 48.3 13.45 50.0 12.55 53.85 Q11.7 58.95 11.6 62.05 10.6 66.95 10.15 71.6 9.8 75.1 9.8 78.55 L9.8 79.85 Q9.9 87.6 10.3 90.35 L11.6 96.3 12.05 99.3 12.6 102.25 12.6 102.45 12.65 102.95 Q13.0 104.15 13.1 107.05 14.15 112.4 14.15 114.95 14.15 116.95 12.75 121.55 11.3 126.2 11.3 128.35 11.3 129.0 11.65 129.95 12.05 130.9 12.05 131.7 L11.95 132.45 Q11.85 132.85 11.35 132.85 10.4 132.85 9.7 131.45 9.3 130.65 9.2 129.8 L9.0 128.55 Q8.6 127.6 8.6 126.45 8.6 124.65 10.15 122.2 L11.2 120.15 Q11.6 119.0 11.6 118.15 L11.4 116.75 10.9 115.1 9.7 116.5 8.55 117.55 8.25 118.05 Q8.0 118.2 7.45 118.7 L6.95 119.25 3.35 124.05 Q1.65 126.65 1.05 128.8 L0.25 131.95 Q-0.1 132.85 -0.7 133.1 L-0.8 133.3 -1.15 135.65 -1.4 139.45 Q-1.4 141.65 -1.75 143.25 -2.0 144.4 -1.85 145.8 -1.85 146.6 -3.2 146.6 L-4.7 146.3 -5.5 145.75 -5.55 144.25 -5.35 138.05 -5.05 132.8 -3.75 128.1 -3.75 127.9 -3.7 127.1 Q-2.95 125.0 -2.95 124.1 L-3.15 123.7 -3.55 124.55 -3.85 124.4 -6.5 129.55 -6.75 130.0 -7.8 132.15 -8.45 132.85 -9.55 135.15 -9.6 135.0 -10.0 136.45 -10.25 138.1 Q-10.35 139.2 -10.6 139.9 L-11.0 141.55 -11.25 143.4 -11.8 145.15 -11.9 146.0 Q-12.0 146.6 -12.7 146.6 -14.55 146.6 -15.45 146.05 -16.0 145.65 -16.0 145.3 L-15.5 143.3 -14.95 141.65 -14.3 138.2 -13.7 134.7 Q-13.4 132.45 -12.65 131.2 -10.25 126.75 -9.35 124.15 L-8.0 120.6 -8.0 118.9 -8.5 118.85 -8.75 118.95 Q-9.15 121.95 -12.0 127.45 L-12.9 129.5 -13.3 130.5 Q-13.45 131.2 -13.7 131.4 -14.4 131.95 -14.6 133.3 L-15.05 137.1 -15.35 139.0 Q-15.35 140.9 -16.2 140.9 L-17.6 140.7 -18.0 140.45 -18.35 140.1 -18.4 139.7 Q-18.4 138.55 -17.4 133.1 -16.45 127.6 -15.7 124.8 L-14.4 121.2 -12.9 117.45 -11.7 113.75 -11.45 112.85 -11.55 112.8 -12.05 113.55 -12.35 114.2 -13.55 116.95 -14.5 118.25 -14.7 118.2 Q-15.0 118.2 -16.2 120.6 L-16.65 121.45 -16.7 121.0 -17.35 122.05 -18.75 124.9 -20.2 128.3 Q-21.1 130.3 -21.65 130.3 L-22.3 130.0 -22.3 129.95 -22.4 129.8 -22.55 129.45 -21.85 127.5 -20.95 125.35 Q-20.4 124.15 -19.7 121.5 -19.2 119.1 -15.05 113.5 L-11.5 109.5 -8.0 105.5 -7.2 104.45 -5.5 101.4 -5.35 101.05 -2.5 96.3 Q-1.75 95.25 -1.5 93.75 L-1.2 92.35 -1.15 91.4 Q-0.85 88.65 -0.85 81.7 -0.85 79.05 -1.2 72.25 L-1.65 65.2 -3.05 57.05 -3.25 52.85 -3.25 51.65 -3.05 49.95 -2.8 49.8 -3.05 49.8 M74.6 -18.75 L74.65 -18.8 Q76.05 -21.35 78.1 -23.95 81.7 -28.45 86.0 -31.4 88.5 -33.1 93.2 -36.9 92.6 -40.85 89.5 -50.1 L87.45 -56.1 91.25 -60.9 95.0 -66.3 105.5 -74.45 Q107.9 -76.5 110.8 -78.2 111.25 -78.45 112.4 -79.7 L112.5 -79.7 112.55 -79.7 Q113.55 -75.45 114.1 -70.05 L115.1 -57.95 115.75 -46.6 116.1 -33.7 Q116.1 -29.0 114.65 -26.7 L114.3 -26.15 Q109.15 -23.6 104.35 -21.4 101.85 -19.8 98.75 -18.95 L98.3 -18.75 Q94.7 -16.85 91.15 -15.25 84.0 -11.9 78.5 -11.9 74.35 -11.9 73.5 -13.15 L73.5 -13.7 73.5 -14.45 73.5 -14.55 73.25 -14.65 73.3 -14.95 73.5 -15.2 73.5 -16.4 73.75 -16.9 Q74.0 -18.15 74.6 -18.75 M12.8 116.1 L12.75 116.1 12.75 116.35 12.75 116.6 12.8 116.1" fill="url(#gradient0)" fill-rule="evenodd" stroke="none"/>
    <path d="M40.2 -114.1 L40.1 -114.35 40.1 -115.0 41.7 -116.35 40.2 -114.1 M-3.05 49.8 L-2.8 49.8 -3.05 49.95 -3.05 49.8" fill="url(#gradient1)" fill-rule="evenodd" stroke="none"/>
    <path d="M8.45 -155.7 L12.0 -155.65 Q12.8 -157.5 14.8 -158.55 17.6 -160.05 19.5 -156.7 L20.0 -150.4 20.0 -150.15 21.35 -151.0 Q22.7 -151.75 23.5 -151.9 L25.5 -152.35 27.25 -152.65 Q30.3 -152.65 32.25 -148.3 33.5 -145.4 33.75 -142.65 L34.3 -137.55 34.8 -132.45 Q42.75 -132.6 46.85 -126.4 49.55 -122.25 49.55 -118.45 49.55 -113.9 46.8 -113.9 44.45 -113.9 43.45 -114.35 L41.75 -115.4 41.3 -115.05 41.25 -114.1 Q41.25 -112.55 42.65 -108.45 44.05 -104.35 44.05 -102.95 44.05 -101.5 43.55 -100.4 42.65 -98.45 40.5 -98.45 38.25 -98.45 36.85 -100.4 L35.75 -102.65 34.5 -102.9 32.3 -100.65 Q32.3 -99.9 33.05 -98.4 33.8 -96.95 33.8 -95.95 33.8 -94.65 32.8 -93.15 31.55 -91.15 29.5 -91.15 26.5 -91.15 25.5 -93.3 L24.55 -96.2 Q22.3 -95.35 20.85 -94.0 19.95 -93.15 17.9 -93.15 13.75 -93.15 11.25 -100.4 9.45 -107.85 9.0 -108.15 5.25 -109.2 3.95 -111.35 L2.3 -115.4 1.45 -119.6 Q0.7 -121.85 -3.45 -122.15 -3.7 -117.95 -5.7 -117.95 -9.5 -117.95 -10.6 -124.6 -10.95 -126.8 -10.95 -132.4 L-11.2 -146.85 Q-11.2 -148.8 -10.5 -149.65 L-8.9 -150.5 Q-7.75 -150.95 -7.25 -151.95 L-6.35 -154.5 Q-5.5 -156.2 -3.5 -156.2 -2.0 -156.2 0.05 -153.65 1.9 -156.4 4.0 -156.4 4.65 -156.4 5.3 -155.9 5.95 -155.45 6.55 -155.45 L8.45 -155.7 M24.8 -34.1 Q24.8 -30.15 20.25 -29.9 L20.2 -29.9 20.75 -27.65 Q22.6 -20.85 23.0 -17.35 23.3 -14.95 23.3 -8.55 23.3 -0.1 21.5 13.25 19.75 26.25 17.75 33.1 15.45 40.8 15.05 54.1 14.8 62.45 14.55 64.4 13.95 69.65 12.1 73.25 L12.0 76.3 Q11.85 80.8 12.3 85.3 L12.3 89.8 Q12.3 91.6 11.55 92.7 10.8 93.75 10.8 94.2 10.8 95.15 13.15 100.85 15.5 106.55 15.5 107.55 15.5 108.5 15.0 109.3 14.45 110.2 13.4 110.5 L14.8 114.3 14.4 116.2 14.0 118.05 Q14.0 119.3 13.25 122.35 12.5 125.4 12.5 126.3 12.5 126.95 13.0 128.85 L13.5 131.4 Q13.5 132.7 13.05 133.3 12.5 134.05 11.0 134.05 7.55 134.05 7.05 130.55 6.7 127.95 7.75 125.1 L7.75 120.8 Q4.35 123.0 3.1 127.1 L1.05 133.85 Q0.5 135.0 -0.9 141.75 -2.0 146.85 -3.45 146.85 -5.4 146.85 -6.0 144.55 L-6.2 142.2 Q-4.7 132.15 -4.7 130.65 -4.7 129.7 -5.25 128.05 L-5.45 127.8 Q-6.45 129.75 -9.6 140.6 -11.9 148.6 -14.0 148.6 L-15.1 148.45 -15.95 148.05 -15.8 145.5 -15.5 143.1 -15.95 141.0 -16.25 141.1 Q-18.55 141.1 -19.2 139.55 L-19.45 137.6 Q-19.45 133.85 -17.25 127.25 L-15.2 121.15 -16.65 123.3 Q-20.8 129.35 -22.0 129.35 L-23.05 129.2 -23.75 128.8 -23.85 128.55 -23.95 127.65 Q-23.95 125.5 -19.95 118.3 L-15.2 110.05 Q-12.0 103.65 -9.25 102.25 L-8.05 98.65 -6.25 94.6 -4.7 92.35 Q-3.9 91.1 -3.95 90.1 L-4.45 86.15 Q-4.45 84.15 -3.3 82.65 L-4.7 74.3 -6.45 53.05 -4.7 23.4 Q-2.95 -3.55 -2.95 -9.6 L-3.95 -33.35 Q-3.95 -37.4 0.0 -37.4 1.55 -37.4 2.35 -36.5 3.2 -35.65 7.1 -35.65 7.55 -35.65 8.95 -36.45 10.35 -37.2 11.75 -37.35 12.25 -39.2 13.95 -40.6 16.45 -42.65 18.05 -37.85 L22.25 -37.65 Q23.9 -37.2 24.5 -35.7 L24.8 -34.1 M4.3 -27.7 Q4.8 -15.6 4.75 -7.45 4.7 3.6 3.8 12.8 3.4 16.55 3.2 22.9 L2.8 33.05 1.7 44.45 Q1.3 47.75 1.3 53.2 1.3 59.95 2.7 70.25 L3.7 78.0 3.55 71.3 Q3.55 70.1 3.9 66.45 L4.8 59.85 Q5.75 55.1 7.8 54.1 8.6 39.6 11.55 22.9 15.55 -0.2 15.55 -8.2 15.55 -15.25 13.55 -24.6 L12.55 -29.35 12.15 -29.3 Q12.3 -28.85 11.25 -28.4 L9.65 -27.95 4.3 -27.7 M67.45 -16.6 L69.25 -17.0 71.55 -21.3 Q76.1 -28.9 83.05 -35.4 87.8 -39.9 91.65 -42.05 L91.1 -43.3 Q89.55 -49.5 88.75 -51.15 L87.6 -53.6 Q85.8 -52.4 85.0 -52.4 82.9 -52.4 82.25 -53.75 L82.0 -55.1 Q82.0 -56.5 84.8 -59.95 83.0 -64.0 83.0 -64.45 83.0 -66.85 84.6 -68.5 86.55 -70.5 88.75 -66.65 L89.7 -65.3 96.05 -71.7 Q97.55 -73.6 100.05 -75.65 97.3 -80.75 97.3 -81.6 97.3 -83.15 98.6 -84.15 100.5 -85.7 104.0 -82.9 L106.25 -80.2 107.5 -81.0 Q105.75 -86.2 105.75 -87.05 105.75 -89.2 106.95 -90.25 108.65 -91.75 111.5 -87.7 L113.55 -84.2 113.65 -84.05 Q118.0 -85.25 118.0 -80.6 118.0 -79.5 116.2 -77.6 L117.3 -73.35 119.0 -65.95 Q120.55 -58.95 120.55 -36.7 L120.55 -34.55 Q121.8 -33.8 121.8 -31.95 121.8 -30.15 120.25 -28.95 L119.75 -25.15 Q118.4 -16.45 115.0 -16.45 113.8 -16.45 113.1 -18.0 112.55 -17.65 111.85 -17.65 109.65 -17.65 109.0 -22.45 L108.95 -22.85 106.7 -21.1 Q104.0 -19.0 101.75 -17.9 95.9 -14.6 90.7 -12.05 80.6 -7.15 76.0 -7.15 74.8 -7.15 74.2 -7.65 L73.75 -6.55 Q71.8 -2.4 69.4 -2.4 67.25 -2.4 66.6 -4.1 L66.3 -5.95 Q66.3 -8.15 66.85 -10.5 64.75 -10.75 64.05 -11.95 L63.75 -13.55 Q63.75 -15.6 67.45 -16.6 M93.65 -58.45 L97.45 -50.2 Q100.25 -43.8 100.25 -43.05 L99.8 -40.4 99.75 -40.25 99.75 -40.2 Q99.75 -37.55 97.2 -36.25 92.95 -34.0 90.0 -30.45 L85.55 -25.8 81.05 -21.15 79.75 -19.4 Q81.7 -20.1 86.35 -22.1 92.1 -24.6 95.5 -25.45 98.0 -26.1 102.9 -28.3 106.65 -30.0 108.9 -31.3 L109.55 -36.1 Q110.3 -40.95 110.3 -44.95 110.3 -55.55 104.25 -68.15 L101.75 -66.15 Q99.2 -63.4 93.75 -58.6 L93.65 -58.45 M2.55 109.55 Q1.5 111.15 1.5 112.55 1.5 113.6 0.45 115.4 2.2 113.35 4.25 108.25 L4.4 107.95 Q3.4 108.25 2.55 109.55" fill="#000000" fill-opacity="0.101960786" fill-rule="evenodd" stroke="none"/>
  </g>
  <defs>
    <linearGradient gradientTransform="matrix(0.0768, -6.0E-4, 4.0E-4, 0.0423, 40.45, -21.65)" gradientUnits="userSpaceOnUse" id="gradient0" spreadMethod="pad" x1="-819.2" x2="819.2">
      <stop offset="0.0" stop-color="#232c18"/>
      <stop offset="0.9882352941176471" stop-color="#496237"/>
    </linearGradient>
    <linearGradient gradientTransform="matrix(0.0768, -6.0E-4, 4.0E-4, 0.0423, 47.95, -25.15)" gradientUnits="userSpaceOnUse" id="gradient1" spreadMethod="pad" x1="-819.2" x2="819.2">
      <stop offset="0.0" stop-color="#232c18"/>
      <stop offset="0.9882352941176471" stop-color="#496237"/>
    </linearGradient>
  </defs>
</svg>
