<?xml version="1.0" encoding="UTF-8" standalone="no"?>
<svg xmlns:xlink="http://www.w3.org/1999/xlink" height="28.65px" width="23.95px" xmlns="http://www.w3.org/2000/svg">
  <g transform="matrix(1.0, 0.0, 0.0, 1.0, -15.9, -75.0)">
    <path d="M18.4 78.15 Q20.9 80.15 20.9 83.0 20.9 84.65 19.85 84.65 17.55 84.65 16.5 81.95 L15.9 79.25 Q15.9 76.15 18.4 78.15 M30.85 82.9 L28.7 78.9 Q28.5 78.55 28.5 76.25 28.5 74.9 30.05 75.0 31.65 75.15 33.25 76.75 L34.8 78.55 36.35 80.5 38.25 83.95 Q39.85 87.15 39.85 88.05 39.85 89.6 37.9 89.6 36.35 89.6 33.6 86.5 31.3 84.0 30.85 82.9 M29.6 97.5 L29.4 96.7 Q29.4 93.55 32.8 96.7 36.15 99.8 36.15 102.4 36.15 103.65 35.0 103.65 34.2 103.65 32.55 102.2 L30.6 100.15 Q29.75 98.95 29.75 98.25 L29.6 97.5" fill="#000000" fill-opacity="0.4509804" fill-rule="evenodd" stroke="none"/>
  </g>
</svg>
