<?xml version="1.0" encoding="UTF-8" standalone="no"?>
<svg xmlns:xlink="http://www.w3.org/1999/xlink" height="37.95px" width="51.0px" xmlns="http://www.w3.org/2000/svg">
  <g transform="matrix(1.0, 0.0, 0.0, 1.0, -33.25, -105.3)">
    <path d="M53.05 136.1 L50.75 130.95 Q50.75 127.4 55.25 132.1 59.75 136.8 59.75 139.8 59.75 141.25 58.35 141.25 55.8 141.25 53.05 136.1 M70.0 129.9 Q70.0 128.75 70.85 127.75 71.9 126.4 73.25 128.0 L75.1 130.35 76.85 132.5 80.8 136.4 Q84.25 140.05 84.25 141.35 L83.75 142.5 82.85 143.25 Q79.2 143.25 74.35 137.35 70.0 132.05 70.0 129.9 M34.9 111.1 Q33.25 108.05 33.25 106.95 33.25 103.6 37.15 107.05 41.0 110.5 41.0 113.25 41.0 115.0 39.35 115.0 37.0 115.0 34.9 111.1" fill="#000000" fill-opacity="0.4509804" fill-rule="evenodd" stroke="none"/>
  </g>
</svg>
