<?xml version="1.0" encoding="UTF-8" standalone="no"?>
<svg xmlns:xlink="http://www.w3.org/1999/xlink" height="345.15px" width="317.7px" xmlns="http://www.w3.org/2000/svg">
  <g transform="matrix(1.0, 0.0, 0.0, 1.0, 0.0, 0.5)">
    <path d="M169.2 11.65 L169.2 11.75 169.15 11.8 Q171.4 13.5 173.45 16.25 L178.2 23.4 182.4 30.2 182.95 31.05 186.1 33.25 Q187.1 34.15 189.3 35.65 L190.05 36.4 190.7 36.95 Q191.4 37.75 191.5 38.9 191.75 41.8 193.0 46.75 L194.4 53.9 Q195.7 61.0 195.7 62.4 L195.6 64.55 Q195.35 64.55 195.35 64.9 L195.35 65.1 Q195.35 65.95 192.45 69.85 L189.25 74.15 186.65 78.5 184.7 81.15 Q185.5 89.0 185.5 93.9 185.5 100.0 185.0 105.0 L184.5 109.7 Q184.45 116.0 182.85 123.45 180.1 136.4 179.7 138.9 179.3 141.45 178.9 142.6 L177.8 144.85 177.8 145.0 177.95 145.0 178.0 144.95 178.0 145.4 177.95 145.9 178.1 147.2 Q178.4 149.9 178.85 151.3 179.6 153.85 180.6 159.15 L181.05 161.1 180.95 161.15 181.15 161.5 183.45 163.5 183.85 163.8 186.7 162.9 189.9 162.4 Q191.45 162.2 192.85 162.4 L193.4 162.75 Q195.6 162.8 198.35 163.55 200.55 163.95 203.8 165.1 L207.7 166.4 Q211.75 167.35 215.25 169.05 L215.85 169.35 220.25 169.95 Q222.5 170.55 224.35 171.9 L226.6 173.6 Q228.0 174.45 231.1 175.0 L234.9 175.85 Q235.7 170.25 240.45 167.35 245.7 164.2 253.1 165.65 260.6 167.1 265.7 172.5 267.95 174.9 269.35 177.65 L270.6 178.15 Q272.05 178.65 273.6 179.4 L276.25 180.8 278.6 182.5 Q280.65 184.0 285.85 186.0 288.55 187.0 291.6 188.0 294.6 189.2 297.95 190.95 L301.05 192.7 301.1 192.65 301.95 193.25 304.2 194.9 304.15 195.05 Q308.9 199.6 310.7 207.15 L311.65 209.95 Q312.0 209.05 312.6 208.3 L312.75 208.45 312.85 208.9 312.35 211.8 Q314.3 216.5 317.7 222.15 L317.1 222.4 Q314.15 219.4 312.25 215.1 L311.95 214.3 311.95 217.85 Q311.95 221.9 312.5 227.5 L313.45 237.0 Q314.3 245.2 314.2 255.9 L313.95 275.05 Q313.9 281.25 314.45 294.0 314.45 308.0 311.25 318.0 307.2 330.75 304.7 334.75 301.15 340.4 295.1 340.4 L288.35 340.05 273.35 339.65 265.35 338.9 Q259.8 338.5 255.85 337.4 249.25 335.0 245.65 333.9 239.3 332.0 232.15 332.0 L222.15 332.85 214.6 333.65 Q210.6 333.65 202.85 332.1 195.15 330.5 190.75 330.5 186.15 330.5 181.65 331.7 L177.1 333.15 Q168.6 335.4 163.9 335.3 L163.35 335.25 160.85 336.15 159.2 336.55 144.7 336.8 136.85 336.75 Q132.85 337.9 129.85 339.7 L124.7 343.1 Q122.15 344.65 119.35 344.65 112.55 344.65 109.85 336.25 L109.65 337.15 Q109.55 337.6 109.1 337.9 L108.75 337.75 109.3 335.1 103.15 335.05 69.2 336.55 35.45 338.0 19.4 337.25 13.85 336.4 Q3.6 335.95 1.2 335.1 0.0 334.7 0.0 333.15 L1.6 325.85 3.75 316.0 4.95 308.35 4.75 307.3 Q4.75 301.9 8.7 292.2 L15.25 277.65 18.2 270.2 Q19.95 265.9 22.2 262.9 23.1 261.75 26.6 259.25 L28.2 257.5 29.6 255.5 32.95 251.9 36.7 248.4 38.45 245.65 Q37.85 241.9 37.85 240.0 37.85 235.4 40.05 232.0 42.0 228.95 47.6 224.25 55.95 217.3 65.3 221.15 67.7 222.15 69.75 223.7 72.45 222.3 75.5 220.15 L78.1 218.2 78.2 218.0 Q78.85 215.95 79.85 215.15 L79.9 215.2 80.95 213.9 83.65 211.05 86.25 208.3 91.2 202.8 96.2 196.65 Q96.85 195.8 97.4 195.7 98.1 195.6 99.35 196.3 L102.6 197.3 104.8 197.95 106.5 196.05 106.4 194.75 Q106.4 192.35 105.95 191.4 105.45 190.35 105.2 188.25 L104.7 184.8 104.15 182.45 104.45 182.35 103.7 179.15 Q101.3 169.0 94.7 153.5 L93.95 152.9 88.45 148.05 Q85.75 145.9 84.6 142.8 83.65 139.35 82.75 137.55 L80.85 132.35 Q79.35 127.9 79.35 127.3 L79.25 127.5 Q74.15 125.55 73.05 121.0 72.75 115.7 72.25 113.4 L70.35 102.9 70.1 102.9 57.3 91.8 57.1 91.8 57.05 91.55 56.6 91.15 56.75 91.0 Q55.6 89.95 55.25 88.2 L54.85 84.65 Q54.1 80.15 54.1 77.9 L53.25 71.75 Q52.35 65.8 52.35 64.2 L52.55 63.45 52.45 63.3 Q52.45 62.55 55.1 58.65 L57.35 55.55 Q58.65 48.15 62.1 36.4 65.0 26.45 66.3 23.0 68.4 17.5 71.15 13.25 71.3 11.6 74.3 8.45 77.1 5.55 78.35 4.9 L81.7 2.9 Q83.7 1.8 85.35 1.75 L94.2 0.9 98.35 0.0 Q106.4 0.25 112.9 1.75 L123.35 4.15 141.95 5.35 158.6 6.15 Q162.1 6.2 165.25 8.05 167.1 9.1 169.25 11.15 L169.2 11.65 M164.1 42.55 L164.2 42.5 164.15 42.5 164.1 42.55 M162.85 54.75 L163.1 54.75 163.05 54.65 162.85 54.75 M164.9 57.4 Q163.15 56.3 160.95 55.25 156.55 53.05 154.25 53.05 152.8 53.05 151.4 53.8 L150.0 54.75 149.85 55.15 149.85 55.25 152.2 55.05 Q159.15 55.05 162.05 59.0 163.6 61.2 163.6 63.7 163.75 64.25 163.4 64.7 162.6 65.6 159.85 65.4 L153.75 65.75 148.2 66.25 Q148.55 68.25 150.55 71.95 152.9 76.25 153.35 77.65 155.1 83.1 156.1 88.9 L155.95 89.2 155.4 89.3 Q154.7 89.3 153.1 87.6 L151.2 85.5 Q149.05 83.7 145.45 81.9 146.1 83.2 148.95 86.55 151.65 89.75 152.25 91.15 153.3 93.65 154.7 96.15 155.6 98.0 155.6 100.2 L155.5 101.75 154.85 101.9 152.8 100.8 Q152.3 101.0 151.7 100.8 L156.6 109.6 Q159.2 114.85 159.25 118.4 L159.35 118.55 162.05 112.35 Q163.75 108.5 165.85 106.15 L168.1 102.9 171.35 99.75 175.6 96.75 176.95 95.15 177.8 94.1 Q177.3 90.55 176.65 82.9 175.95 74.55 173.35 69.4 172.1 66.85 171.65 62.7 171.15 57.5 170.7 55.9 170.4 54.7 169.05 52.5 L167.6 50.0 Q162.65 47.3 155.1 44.15 L151.15 42.85 150.0 42.55 148.85 43.4 Q146.85 45.15 146.45 46.35 L147.3 46.5 154.6 47.75 Q157.25 48.55 160.1 50.0 160.95 50.5 163.3 53.15 165.7 55.9 165.7 56.7 L165.6 57.25 164.9 57.4 M187.55 165.95 L187.15 166.05 187.3 166.2 187.5 166.15 187.55 165.95 M185.6 165.0 L185.6 164.95 185.5 164.9 185.6 165.0 M185.8 169.8 L186.6 168.3 187.0 167.4 Q185.8 167.05 184.05 165.8 L181.6 163.8 Q180.9 163.15 180.15 162.0 179.45 160.95 179.25 160.25 178.6 158.1 177.9 154.05 L178.2 153.95 178.15 153.85 177.1 148.65 176.8 149.4 175.6 152.9 Q175.3 154.45 175.1 157.25 L174.95 160.3 175.0 162.65 Q175.7 163.85 178.15 166.3 182.0 170.15 184.9 170.15 L185.8 169.8 M128.2 8.1 L127.85 7.65 Q126.85 8.65 126.5 11.4 L125.95 14.95 125.35 14.1 Q124.5 13.4 123.0 13.65 123.1 12.4 122.35 12.4 122.05 12.4 121.45 12.85 L121.3 13.0 120.35 12.9 119.55 12.6 119.5 11.9 Q119.35 10.8 118.35 10.65 117.9 10.6 117.0 11.65 L116.7 12.0 116.7 11.75 Q116.6 11.4 115.95 11.4 115.6 11.4 115.3 11.8 L115.15 12.05 114.75 11.85 113.85 11.65 113.75 11.65 113.6 11.65 Q113.15 11.65 112.7 12.15 L112.4 12.55 Q112.2 12.4 111.85 12.4 L111.7 12.45 111.4 12.15 110.6 11.65 110.2 11.85 Q110.05 11.95 109.6 11.55 L108.6 10.75 Q107.75 10.7 107.75 11.4 L107.85 12.0 Q107.5 10.9 106.85 10.9 106.45 10.9 106.3 11.05 L106.1 11.15 106.1 12.05 106.0 12.0 105.95 11.45 Q105.85 11.1 105.35 10.9 104.6 11.45 104.25 12.65 103.95 13.7 104.1 14.4 103.95 13.9 103.35 13.9 L102.8 14.05 102.6 14.15 102.6 15.65 101.95 15.5 101.6 14.55 Q101.2 14.55 101.1 14.7 L101.0 14.8 100.95 16.2 Q100.95 18.5 103.35 20.8 107.15 24.55 115.35 24.55 L119.65 23.45 Q123.55 22.2 124.35 21.4 125.65 19.95 126.75 17.25 127.7 14.9 128.05 13.0 L128.35 8.7 128.2 8.1 M85.0 7.6 L84.95 7.15 84.85 7.05 Q83.65 6.55 80.9 10.25 L76.5 16.25 76.5 15.85 76.7 15.45 Q80.85 8.2 80.85 7.65 L80.7 7.2 80.35 7.15 Q78.4 8.8 74.35 16.1 L74.25 15.8 74.0 15.15 74.6 14.0 76.95 9.05 76.85 8.7 76.7 8.8 76.35 9.15 77.35 7.05 77.2 6.6 76.85 6.55 Q73.0 11.55 69.95 17.75 66.95 23.85 65.45 29.4 L63.5 36.9 Q62.7 37.85 62.3 39.95 L61.6 43.4 Q60.6 46.3 60.15 48.15 59.35 50.7 59.35 51.8 L59.25 52.55 Q59.25 53.2 59.35 52.9 L59.85 52.9 60.0 52.5 60.1 52.4 Q61.25 51.65 62.0 49.95 L63.1 47.0 65.85 41.4 69.8 34.05 70.2 33.4 Q72.15 30.5 79.35 22.15 L85.7 14.3 85.6 13.9 Q84.65 13.45 81.85 16.65 L81.2 16.5 80.55 16.7 80.25 16.9 80.25 16.65 Q80.15 15.05 79.45 15.5 80.75 13.3 82.4 11.0 L85.0 7.6 M110.3 42.9 Q104.55 45.45 97.6 50.15 87.7 56.85 81.35 64.0 75.3 70.75 70.6 78.05 L69.35 80.15 69.6 81.75 70.35 86.25 71.6 94.35 71.6 94.55 71.6 94.7 71.6 95.15 71.6 95.8 71.35 96.0 71.25 96.35 70.85 98.15 Q70.85 99.3 72.0 105.65 L72.8 109.3 73.35 112.9 73.65 116.7 Q73.85 119.1 74.35 120.4 L74.95 122.2 Q75.4 123.4 76.0 124.15 L77.85 125.55 79.4 127.05 79.45 126.55 79.8 126.55 Q79.1 125.7 78.95 124.6 78.9 122.55 78.5 121.4 77.3 117.75 77.0 115.4 76.0 107.4 76.0 103.4 76.0 102.6 76.4 102.2 76.9 101.75 77.35 103.15 77.55 104.8 77.85 105.65 L79.1 110.5 Q80.25 115.6 82.1 120.4 84.8 127.45 90.35 136.3 L90.0 133.45 89.5 125.15 Q89.5 119.15 90.35 119.05 L91.6 123.45 Q92.2 126.4 92.75 127.65 94.7 131.8 97.25 136.05 L102.0 144.65 103.8 148.65 Q106.0 152.4 108.75 152.4 114.65 152.4 118.65 149.95 122.55 147.6 125.1 142.75 126.65 139.75 127.35 137.3 127.1 135.25 127.8 132.75 L127.65 132.75 123.6 133.4 Q121.9 133.8 121.3 134.2 L120.2 134.4 119.7 134.3 119.5 133.55 Q119.5 132.25 122.65 128.05 L125.75 123.8 Q125.75 123.1 123.85 120.75 122.05 118.55 122.25 118.0 117.65 118.4 115.75 119.45 L113.35 121.15 112.25 120.65 Q112.25 119.75 114.35 115.05 L116.85 109.9 Q117.95 108.0 121.25 103.7 123.35 101.0 123.35 99.3 L123.05 96.75 Q122.35 96.2 122.0 94.4 L121.75 91.85 Q121.75 89.7 122.85 89.55 123.95 89.4 126.8 89.55 129.1 89.45 129.1 87.9 129.1 87.3 127.55 84.1 126.0 80.9 126.0 79.8 126.0 78.2 127.5 75.2 129.0 72.2 129.0 70.55 129.0 67.7 127.25 63.9 125.35 59.75 123.35 59.75 120.8 59.75 120.35 60.75 119.95 61.55 119.1 65.05 L116.7 70.5 Q115.5 72.95 112.55 75.95 L107.9 79.8 106.35 81.65 105.6 81.55 105.6 80.9 Q105.6 80.5 106.65 79.25 L108.0 77.4 108.1 77.25 104.35 78.15 99.45 77.9 99.35 77.35 Q99.35 76.95 100.05 75.9 L101.1 74.15 101.55 72.6 101.85 71.9 101.8 71.9 100.1 71.75 Q95.4 71.75 92.35 74.25 91.85 74.65 89.85 77.15 L89.1 77.15 89.0 76.4 Q89.0 74.3 93.0 67.9 94.3 65.8 96.7 64.3 97.4 63.8 102.35 61.15 L102.6 61.0 95.25 59.55 Q92.95 59.2 92.95 58.35 92.95 57.45 94.95 57.15 L100.1 56.25 103.6 55.35 106.35 54.55 Q109.65 53.4 110.85 52.55 L111.95 51.4 112.3 51.1 112.4 50.55 112.7 49.05 Q112.7 45.85 110.3 42.9 M96.35 58.3 L97.05 58.5 97.1 58.25 96.35 58.3 M114.6 81.55 L113.6 83.2 Q112.6 85.0 112.6 86.1 112.6 87.65 112.95 88.65 113.1 89.0 114.0 89.6 L114.85 90.4 112.9 93.55 110.7 96.75 Q109.85 98.55 108.35 103.05 L108.35 103.15 107.6 103.05 107.35 99.6 107.1 97.05 Q107.1 93.0 108.85 88.8 110.8 84.2 114.35 80.8 L114.5 81.05 114.6 81.55 M119.0 84.5 Q121.45 83.25 123.25 83.8 124.85 84.3 124.85 85.7 124.85 87.25 121.95 88.9 118.65 90.75 118.1 91.9 117.0 91.35 116.7 90.2 L116.6 88.15 Q116.6 86.65 116.75 86.3 117.15 85.45 119.0 84.5 M101.25 76.65 L101.2 76.75 101.25 76.75 101.25 76.65 M76.1 43.15 L75.95 42.7 75.6 42.65 74.3 43.7 72.8 44.4 Q72.15 44.8 71.75 45.1 L71.5 45.2 71.3 45.35 71.25 45.4 68.5 47.4 66.1 49.5 63.6 52.05 60.95 54.4 Q59.3 55.75 58.35 56.75 L55.95 59.65 55.65 60.05 55.6 60.1 Q53.75 61.95 53.75 64.3 53.75 66.25 55.4 76.85 L57.1 87.9 57.85 87.65 57.95 86.95 57.95 86.7 Q59.2 74.85 62.35 65.25 64.45 59.15 67.35 54.0 69.15 50.85 72.85 46.75 L76.1 43.15 M67.35 30.0 L67.45 29.65 67.5 29.65 67.35 30.0 M57.25 82.95 L57.4 83.0 57.35 83.85 57.25 82.95 M69.0 78.7 L69.05 78.85 69.1 78.75 69.0 78.7 M114.1 118.9 L114.1 119.05 114.15 119.05 114.1 118.9 M90.7 124.75 L90.6 124.65 90.6 124.75 90.7 124.75 M106.95 162.9 L100.6 157.9 96.55 155.0 97.6 157.8 99.0 161.0 100.35 164.15 104.45 176.75 107.15 188.2 107.45 189.45 107.05 189.6 107.7 194.25 107.7 194.6 107.95 194.65 107.5 198.65 107.5 198.95 111.6 200.35 118.6 202.55 124.8 204.85 Q129.8 206.75 134.1 207.75 L134.75 207.9 Q135.25 207.55 136.3 207.4 L137.6 207.45 139.7 206.45 Q152.65 200.15 153.1 200.15 L153.45 200.15 151.15 196.3 148.85 192.0 146.35 192.35 143.6 192.65 Q137.65 192.65 134.95 191.3 L132.6 189.5 Q131.3 188.8 130.95 187.65 L130.75 185.8 Q130.75 183.5 132.0 181.05 L132.8 179.7 125.45 182.5 124.95 182.35 122.2 181.15 121.85 181.3 121.65 181.0 121.35 180.9 121.35 180.55 121.45 180.35 121.4 180.2 121.25 179.5 Q121.25 178.7 122.3 175.2 L123.6 171.25 118.0 169.25 Q115.15 168.3 114.4 167.4 111.4 166.2 106.95 162.9 M131.5 337.55 Q132.4 337.05 133.25 336.7 L123.0 335.95 110.1 335.15 112.4 339.15 Q114.8 343.55 117.75 343.55 121.55 343.55 123.4 342.65 124.7 342.05 128.2 339.55 L131.5 337.55 M153.65 334.75 L143.35 335.4 158.55 335.5 161.6 335.1 153.65 334.75" fill="#000000" fill-rule="evenodd" stroke="none"/>
    <path d="M164.9 57.4 L165.6 57.25 165.7 56.7 Q165.7 55.9 163.3 53.15 160.95 50.5 160.1 50.0 157.25 48.55 154.6 47.75 L147.3 46.5 146.45 46.35 Q146.85 45.15 148.85 43.4 L150.0 42.55 151.15 42.85 155.1 44.15 Q162.65 47.3 167.6 50.0 L169.05 52.5 Q170.4 54.7 170.7 55.9 171.15 57.5 171.65 62.7 172.1 66.85 173.35 69.4 175.95 74.55 176.65 82.9 177.3 90.55 177.8 94.1 L176.95 95.15 175.6 96.75 171.35 99.75 168.1 102.9 165.85 106.15 Q163.75 108.5 162.05 112.35 L159.35 118.55 159.25 118.4 Q159.2 114.85 156.6 109.6 L151.7 100.8 Q152.3 101.0 152.8 100.8 L154.85 101.9 155.5 101.75 155.6 100.2 Q155.6 98.0 154.7 96.15 153.3 93.65 152.25 91.15 151.65 89.75 148.95 86.55 146.1 83.2 145.45 81.9 149.05 83.7 151.2 85.5 L153.1 87.6 Q154.7 89.3 155.4 89.3 L155.95 89.2 156.1 88.9 Q155.1 83.1 153.35 77.65 152.9 76.25 150.55 71.95 148.55 68.25 148.2 66.25 L153.75 65.75 159.85 65.4 Q162.6 65.6 163.4 64.7 163.75 64.25 163.6 63.7 163.6 61.2 162.05 59.0 159.15 55.05 152.2 55.05 L149.85 55.25 149.85 55.15 150.0 54.75 151.4 53.8 Q152.8 53.05 154.25 53.05 156.55 53.05 160.95 55.25 163.15 56.3 164.9 57.4 M185.8 169.8 L184.9 170.15 Q182.0 170.15 178.15 166.3 175.7 163.85 175.0 162.65 L174.95 160.3 175.1 157.25 Q175.3 154.45 175.6 152.9 L176.8 149.4 177.1 148.65 178.15 153.85 178.2 153.95 177.9 154.05 Q178.6 158.1 179.25 160.25 179.45 160.95 180.15 162.0 180.9 163.15 181.6 163.8 L184.05 165.8 Q185.8 167.05 187.0 167.4 L186.6 168.3 185.8 169.8 M110.3 42.9 Q112.7 45.85 112.7 49.05 L112.4 50.55 112.3 51.1 111.95 51.4 110.85 52.55 Q109.65 53.4 106.35 54.55 L103.6 55.35 100.1 56.25 94.95 57.15 Q92.95 57.45 92.95 58.35 92.95 59.2 95.25 59.55 L102.6 61.0 102.35 61.15 Q97.4 63.8 96.7 64.3 94.3 65.8 93.0 67.9 89.0 74.3 89.0 76.4 L89.1 77.15 89.85 77.15 Q91.85 74.65 92.35 74.25 95.4 71.75 100.1 71.75 L101.8 71.9 101.85 71.9 101.55 72.6 101.1 74.15 100.05 75.9 Q99.35 76.95 99.35 77.35 L99.45 77.9 104.35 78.15 108.1 77.25 108.0 77.4 106.65 79.25 Q105.6 80.5 105.6 80.9 L105.6 81.55 106.35 81.65 107.9 79.8 112.55 75.95 Q115.5 72.95 116.7 70.5 L119.1 65.05 Q119.95 61.55 120.35 60.75 120.8 59.75 123.35 59.75 125.35 59.75 127.25 63.9 129.0 67.7 129.0 70.55 129.0 72.2 127.5 75.2 126.0 78.2 126.0 79.8 126.0 80.9 127.55 84.1 129.1 87.3 129.1 87.9 129.1 89.45 126.8 89.55 123.95 89.4 122.85 89.55 121.75 89.7 121.75 91.85 L122.0 94.4 Q122.35 96.2 123.05 96.75 L123.35 99.3 Q123.35 101.0 121.25 103.7 117.95 108.0 116.85 109.9 L114.35 115.05 Q112.25 119.75 112.25 120.65 L113.35 121.15 115.75 119.45 Q117.65 118.4 122.25 118.0 122.05 118.55 123.85 120.75 125.75 123.1 125.75 123.8 L122.65 128.05 Q119.5 132.25 119.5 133.55 L119.7 134.3 120.2 134.4 121.3 134.2 Q121.9 133.8 123.6 133.4 L127.65 132.75 127.8 132.75 Q127.1 135.25 127.35 137.3 126.65 139.75 125.1 142.75 122.55 147.6 118.65 149.95 114.65 152.4 108.75 152.4 106.0 152.4 103.8 148.65 L102.0 144.65 97.25 136.05 Q94.7 131.8 92.75 127.65 92.2 126.4 91.6 123.45 L90.35 119.05 Q89.5 119.15 89.5 125.15 L90.0 133.45 90.35 136.3 Q84.8 127.45 82.1 120.4 80.25 115.6 79.1 110.5 L77.85 105.65 Q77.55 104.8 77.35 103.15 76.9 101.75 76.4 102.2 76.0 102.6 76.0 103.4 76.0 107.4 77.0 115.4 77.3 117.75 78.5 121.4 78.9 122.55 78.95 124.6 79.1 125.7 79.8 126.55 L79.45 126.55 79.4 127.05 77.85 125.55 76.0 124.15 Q75.4 123.4 74.95 122.2 L74.35 120.4 Q73.85 119.1 73.65 116.7 L73.35 112.9 72.8 109.3 72.0 105.65 Q70.85 99.3 70.85 98.15 L71.25 96.35 71.35 96.0 71.6 95.8 71.6 95.15 71.6 94.7 71.6 94.55 71.6 94.35 70.35 86.25 69.6 81.75 69.35 80.15 70.6 78.05 Q75.3 70.75 81.35 64.0 87.7 56.85 97.6 50.15 104.55 45.45 110.3 42.9 M119.0 84.5 Q117.15 85.45 116.75 86.3 116.6 86.65 116.6 88.15 L116.7 90.2 Q117.0 91.35 118.1 91.9 118.65 90.75 121.95 88.9 124.85 87.25 124.85 85.7 124.85 84.3 123.25 83.8 121.45 83.25 119.0 84.5 M114.6 81.55 L114.5 81.05 114.35 80.8 Q110.8 84.2 108.85 88.8 107.1 93.0 107.1 97.05 L107.35 99.6 107.6 103.05 108.35 103.15 108.35 103.05 Q109.85 98.55 110.7 96.75 L112.9 93.55 114.85 90.4 114.0 89.6 Q113.1 89.0 112.95 88.65 112.6 87.65 112.6 86.1 112.6 85.0 113.6 83.2 L114.6 81.55 M106.95 162.9 Q111.4 166.2 114.4 167.4 115.15 168.3 118.0 169.25 L123.6 171.25 122.3 175.2 Q121.25 178.7 121.25 179.5 L121.4 180.2 121.45 180.35 121.35 180.55 121.35 180.9 121.65 181.0 121.85 181.3 122.2 181.15 124.95 182.35 125.45 182.5 132.8 179.7 132.0 181.05 Q130.75 183.5 130.75 185.8 L130.95 187.65 Q131.3 188.8 132.6 189.5 L134.95 191.3 Q137.65 192.65 143.6 192.65 L146.35 192.35 148.85 192.0 151.15 196.3 153.45 200.15 153.1 200.15 Q152.65 200.15 139.7 206.45 L137.6 207.45 136.3 207.4 Q135.25 207.55 134.75 207.9 L134.1 207.75 Q129.8 206.75 124.8 204.85 L118.6 202.55 111.6 200.35 107.5 198.95 107.5 198.65 107.95 194.65 107.7 194.6 107.7 194.25 107.05 189.6 107.45 189.45 107.15 188.2 104.45 176.75 100.35 164.15 99.0 161.0 97.6 157.8 96.55 155.0 100.6 157.9 106.95 162.9" fill="url(#gradient0)" fill-rule="evenodd" stroke="none"/>
    <path d="M128.2 8.1 L128.35 8.7 128.05 13.0 Q127.7 14.9 126.75 17.25 125.65 19.95 124.35 21.4 123.55 22.2 119.65 23.45 L115.35 24.55 Q107.15 24.55 103.35 20.8 100.95 18.5 100.95 16.2 L101.0 14.8 101.1 14.7 Q101.2 14.55 101.6 14.55 L101.95 15.5 102.6 15.65 102.6 14.15 102.8 14.05 103.35 13.9 Q103.95 13.9 104.1 14.4 103.95 13.7 104.25 12.65 104.6 11.45 105.35 10.9 105.85 11.1 105.95 11.45 L106.0 12.0 106.1 12.05 106.1 11.15 106.3 11.05 Q106.45 10.9 106.85 10.9 107.5 10.9 107.85 12.0 L107.75 11.4 Q107.75 10.7 108.6 10.75 L109.6 11.55 Q110.05 11.95 110.2 11.85 L110.6 11.65 111.4 12.15 111.7 12.45 111.85 12.4 Q112.2 12.4 112.4 12.55 L112.7 12.15 Q113.15 11.65 113.6 11.65 L113.75 11.65 113.85 11.65 114.75 11.85 115.15 12.05 115.3 11.8 Q115.6 11.4 115.95 11.4 116.6 11.4 116.7 11.75 L116.7 12.0 117.0 11.65 Q117.9 10.6 118.35 10.65 119.35 10.8 119.5 11.9 L119.55 12.6 120.35 12.9 121.3 13.0 121.45 12.85 Q122.05 12.4 122.35 12.4 123.1 12.4 123.0 13.65 124.5 13.4 125.35 14.1 L125.95 14.95 126.5 11.4 Q126.85 8.65 127.85 7.65 L128.2 8.1" fill="#f3f7d5" fill-rule="evenodd" stroke="none"/>
    <path d="M85.0 7.6 L82.4 11.0 Q80.75 13.3 79.45 15.5 80.15 15.05 80.25 16.65 L80.25 16.9 80.55 16.7 81.2 16.5 81.85 16.65 Q84.65 13.45 85.6 13.9 L85.7 14.3 79.35 22.15 Q72.15 30.5 70.2 33.4 L69.8 34.05 65.85 41.4 63.1 47.0 62.0 49.95 Q61.25 51.65 60.1 52.4 L60.0 52.5 59.85 52.9 59.35 52.9 Q59.25 53.2 59.25 52.55 L59.35 51.8 Q59.35 50.7 60.15 48.15 60.6 46.3 61.6 43.4 L62.3 39.95 Q62.7 37.85 63.5 36.9 L65.45 29.4 Q66.95 23.85 69.95 17.75 73.0 11.55 76.85 6.55 L77.2 6.6 77.35 7.05 76.35 9.15 76.7 8.8 76.85 8.7 76.95 9.05 74.6 14.0 74.0 15.15 74.25 15.8 74.35 16.1 Q78.4 8.8 80.35 7.15 L80.7 7.2 80.85 7.65 Q80.85 8.2 76.7 15.45 L76.5 15.85 76.5 16.25 80.9 10.25 Q83.65 6.55 84.85 7.05 L84.95 7.15 85.0 7.6 M67.35 30.0 L67.5 29.65 67.45 29.65 67.35 30.0 M76.1 43.15 L72.85 46.75 Q69.15 50.85 67.35 54.0 64.45 59.15 62.35 65.25 59.2 74.85 57.95 86.7 L57.95 86.95 57.85 87.65 57.1 87.9 55.4 76.85 Q53.75 66.25 53.75 64.3 53.75 61.95 55.6 60.1 L55.65 60.05 55.95 59.65 58.35 56.75 Q59.3 55.75 60.95 54.4 L63.6 52.05 66.1 49.5 68.5 47.4 71.25 45.4 71.3 45.35 71.5 45.2 71.75 45.1 Q72.15 44.8 72.8 44.4 L74.3 43.7 75.6 42.65 75.95 42.7 76.1 43.15 M57.25 82.95 L57.35 83.85 57.4 83.0 57.25 82.95" fill="#d3e05a" fill-rule="evenodd" stroke="none"/>
    <path d="M170.8 47.85 L170.45 50.1 170.0 52.05 Q173.1 52.35 173.5 56.6 173.75 59.3 173.3 63.9 173.55 67.05 174.6 67.7 176.15 68.6 176.8 70.05 178.1 73.25 178.3 76.4 L179.6 88.75 Q180.8 100.45 180.8 102.85 L180.55 105.45 176.4 105.55 Q176.0 105.95 175.95 109.85 175.9 112.9 172.85 112.9 L171.4 112.55 Q170.85 112.25 170.85 111.9 170.45 113.45 169.35 115.1 L168.3 116.65 168.15 119.15 Q167.75 120.9 165.85 120.9 163.75 120.9 163.45 119.55 L163.55 117.65 162.65 117.85 Q163.8 121.5 163.8 122.3 163.8 123.1 162.55 125.3 161.35 127.4 161.05 127.4 158.25 127.4 155.95 121.65 L153.3 113.8 149.45 106.35 Q146.55 100.9 146.55 100.3 146.55 99.7 147.2 97.4 L147.8 94.45 Q147.8 92.8 144.45 82.25 141.05 71.7 141.05 64.45 140.9 62.4 141.25 60.85 142.0 57.75 144.55 58.8 144.3 51.05 144.75 44.65 145.65 32.15 149.35 32.15 149.85 32.15 150.65 32.8 L151.8 33.65 Q152.45 31.3 154.4 29.35 156.9 26.85 157.8 31.55 L158.45 31.1 Q159.1 30.65 159.85 30.65 162.3 30.65 162.3 33.7 L161.75 39.15 161.05 47.05 161.1 47.05 Q161.45 43.85 161.85 42.35 162.55 39.65 164.85 39.65 166.1 39.65 170.8 47.85 M172.55 145.9 Q176.9 146.9 177.65 148.8 L179.3 157.05 Q180.05 160.05 180.65 161.2 181.8 163.3 184.55 165.3 187.25 167.3 187.75 169.2 L187.8 172.95 Q187.8 175.7 185.8 178.05 183.9 180.3 182.1 180.3 177.6 180.3 172.35 164.2 L168.05 148.2 Q168.05 144.8 172.55 145.9 M119.05 6.85 L119.3 8.15 Q119.3 9.0 109.65 21.25 99.5 34.1 98.05 39.65 L97.6 39.65 98.35 34.95 Q98.75 31.55 99.1 30.4 96.05 29.7 95.65 28.45 95.3 27.4 94.35 27.4 92.8 27.4 92.3 26.3 L92.1 25.05 Q92.1 24.3 96.15 17.4 L100.8 9.65 Q101.8 8.1 103.75 5.85 L107.35 1.8 Q110.0 -1.2 111.8 -0.3 113.5 0.6 112.1 3.55 L115.25 5.2 116.85 5.65 Q118.45 5.65 119.05 6.85 M88.3 10.95 Q88.2 12.1 87.55 13.4 87.55 14.05 88.2 14.65 88.8 15.25 88.8 15.85 88.8 17.15 81.55 25.1 L72.6 35.15 Q71.15 37.2 65.75 46.5 61.8 53.3 60.85 53.3 59.6 53.3 59.1 51.95 L58.85 50.4 Q58.85 45.95 68.95 32.05 L75.8 23.05 Q76.55 22.05 76.6 20.75 L76.55 18.55 77.05 16.2 77.55 14.05 75.8 11.5 Q74.05 9.25 74.05 7.45 74.05 5.05 75.45 4.15 76.9 3.2 78.35 5.15 L79.7 8.0 Q81.1 10.4 82.35 10.4 L83.65 9.55 Q84.85 8.65 85.85 8.65 88.5 8.65 88.3 10.95 M81.35 33.85 Q81.35 36.75 78.75 40.95 L73.55 48.3 Q69.45 53.9 66.2 62.55 64.6 66.8 61.25 79.7 58.4 90.55 57.95 90.55 55.75 90.55 55.2 88.3 L55.1 85.9 Q55.1 75.15 63.9 56.2 72.75 37.15 80.55 31.4 L81.05 32.45 81.35 33.85 M111.15 34.8 Q113.35 37.35 113.55 39.4 L113.6 40.75 114.6 40.15 118.95 37.7 Q122.85 36.1 122.85 39.1 122.85 41.7 114.2 45.75 L113.9 45.9 114.05 48.05 Q114.05 52.05 113.5 52.95 112.05 55.35 105.55 57.4 L106.15 58.25 106.35 59.45 Q106.35 61.2 104.55 62.1 100.95 63.95 98.8 65.8 93.75 69.9 93.05 72.15 L92.8 72.4 98.65 70.4 Q103.05 68.8 103.6 68.8 105.7 68.8 106.35 70.0 L106.6 71.3 106.5 72.15 Q109.7 72.05 112.4 69.55 114.45 67.65 115.35 65.55 116.55 62.75 117.05 61.9 118.3 59.75 119.85 58.9 123.45 56.95 127.7 62.95 131.3 68.15 131.3 70.55 131.3 72.5 129.2 75.55 L127.1 78.6 Q127.1 79.45 128.45 82.5 129.8 85.5 129.8 87.4 129.8 88.45 129.3 89.8 128.7 91.4 127.6 92.65 127.3 92.95 126.85 95.05 L126.55 96.4 Q127.4 96.6 127.7 97.45 L128.1 99.8 131.1 101.9 Q132.9 103.35 133.1 104.15 L133.1 104.3 130.95 102.7 128.1 100.55 Q128.1 101.55 127.55 102.8 126.9 104.3 126.05 104.3 L125.3 104.25 125.05 104.7 Q123.2 107.85 121.6 108.8 119.05 110.25 117.6 112.8 116.3 115.7 115.3 117.05 L118.05 114.3 Q118.8 113.65 121.6 113.65 125.55 113.65 126.3 115.05 126.8 115.95 126.8 118.8 129.4 119.75 130.05 121.8 L130.3 124.8 129.75 132.35 Q129.15 139.15 128.8 140.15 127.35 143.85 124.6 147.65 119.55 154.4 111.1 154.4 L111.0 154.4 113.1 156.15 Q119.85 161.95 119.85 162.95 119.85 164.1 119.05 164.65 118.5 165.05 117.9 165.05 114.75 165.05 108.1 158.9 103.75 154.85 100.9 151.15 98.3 149.25 96.15 146.3 94.15 143.6 92.8 140.4 91.85 138.05 91.8 137.15 L91.8 139.45 Q91.45 141.3 89.35 141.3 87.35 141.3 86.45 138.25 85.8 134.65 85.3 133.55 L82.1 126.05 82.35 127.05 82.55 128.55 82.3 130.05 Q82.55 130.4 81.3 130.4 79.75 130.4 77.4 116.2 L75.3 102.1 Q75.3 98.8 77.45 97.75 79.55 96.7 79.55 101.55 79.15 102.9 80.0 105.7 L81.35 109.8 Q82.85 114.55 87.55 126.3 L87.6 126.4 88.4 119.55 88.85 112.3 89.3 112.1 90.35 111.9 Q91.45 111.9 94.0 122.05 97.05 134.15 98.8 137.65 L99.5 139.0 101.2 140.9 Q106.05 146.4 111.6 146.4 116.8 146.4 120.35 141.85 122.15 139.5 123.05 136.8 L118.35 138.4 Q116.5 138.4 116.1 137.05 L116.05 135.55 Q116.05 133.25 119.05 128.65 L122.05 124.45 120.8 122.25 119.35 120.3 115.8 123.15 Q112.0 125.9 109.85 125.9 107.6 125.9 107.1 124.65 L107.05 123.2 Q107.05 120.5 111.2 113.75 114.75 107.85 117.1 105.4 L121.3 99.8 122.4 98.35 122.45 97.15 Q122.5 95.6 122.05 95.15 116.3 94.4 114.45 91.3 113.55 89.8 113.55 86.7 113.55 84.1 114.95 82.55 116.95 80.25 122.05 79.4 121.65 77.25 123.8 74.7 126.1 71.9 126.1 70.4 126.1 69.9 124.2 67.25 L122.1 64.4 Q121.1 65.05 119.95 67.55 L118.1 71.15 Q117.3 72.15 114.3 74.0 L114.3 74.05 Q114.3 76.45 110.05 81.15 106.1 85.55 105.05 85.55 102.5 85.55 102.15 83.95 L102.3 82.05 102.1 82.0 101.1 82.15 Q98.35 82.15 97.8 80.75 L97.8 79.2 Q97.8 78.35 98.25 77.75 L99.8 75.3 100.05 74.9 Q98.2 75.2 94.65 77.8 91.4 80.15 88.3 80.15 86.75 80.15 86.4 78.8 L86.35 77.3 Q86.35 74.0 90.1 69.05 93.85 64.05 98.8 60.8 L93.95 59.0 93.1 58.5 Q90.2 60.95 88.35 62.9 L77.05 75.3 74.1 78.4 71.45 81.3 70.2 84.3 Q69.1 86.65 67.85 86.65 66.65 86.65 66.1 84.9 L65.85 83.05 Q65.85 79.65 75.2 69.45 L86.6 57.9 Q92.8 51.95 103.55 45.55 L108.95 42.95 109.4 42.75 109.35 42.3 108.85 36.95 Q108.85 32.2 111.15 34.8 M101.1 53.85 Q109.8 52.25 109.8 47.65 104.25 50.1 103.05 50.9 L98.2 54.4 101.1 53.85 M108.95 76.55 L107.35 76.8 Q105.4 76.8 104.6 75.95 L104.05 76.55 104.05 76.8 Q105.1 76.55 106.2 76.8 L107.95 77.05 Q108.4 77.05 108.95 76.55 M92.45 135.6 L92.7 135.5 91.6 132.05 91.8 137.1 91.85 135.8 92.45 135.6 M120.8 168.15 Q121.55 168.15 122.5 165.15 123.4 162.15 125.35 162.15 127.85 162.15 128.3 165.9 128.55 168.0 128.3 172.05 129.15 168.55 129.55 168.6 L132.85 169.4 138.1 165.55 Q143.45 161.65 144.35 161.65 146.0 161.65 146.55 162.95 L146.8 164.35 Q146.8 166.05 143.65 168.55 140.0 171.4 139.35 172.8 L137.95 176.65 Q137.1 179.0 135.6 180.7 L137.6 181.25 140.55 181.95 140.3 180.75 140.05 179.05 Q140.05 178.2 140.55 177.55 141.15 176.7 142.35 176.7 143.65 176.7 144.55 177.9 L145.35 179.55 147.6 182.55 148.3 183.95 150.05 183.75 152.85 183.7 Q154.1 183.95 154.8 185.05 L155.3 186.35 Q155.3 187.2 153.2 189.8 L151.1 192.35 Q157.3 205.85 157.3 206.95 L157.0 209.0 Q156.75 210.35 156.8 210.95 156.85 211.8 156.05 212.9 155.1 214.3 153.6 214.2 L154.05 215.2 154.3 216.6 Q154.3 217.45 153.6 218.0 L152.35 218.45 Q148.75 218.45 145.2 210.65 L141.85 201.7 139.8 197.2 Q139.15 195.85 135.2 195.05 L130.3 193.8 Q127.95 192.2 126.7 189.7 125.5 187.25 126.05 185.55 L125.95 185.35 125.1 185.45 Q120.15 185.45 118.6 182.45 118.05 181.35 118.05 179.1 L118.6 176.15 119.35 173.05 Q107.8 169.0 100.4 162.55 93.3 156.3 93.3 150.85 93.3 148.75 94.45 148.15 95.9 147.4 98.1 150.55 L99.7 153.5 101.6 156.9 Q102.5 158.3 109.65 162.95 117.65 168.15 120.8 168.15 M127.55 175.05 Q125.15 174.7 124.0 176.4 123.1 177.65 123.1 179.45 L123.2 180.25 123.3 180.2 123.25 180.25 124.1 180.3 Q126.5 180.3 126.9 178.2 L127.55 175.05 M137.3 190.7 Q136.55 188.55 134.45 187.7 132.1 187.1 131.3 186.55 131.85 187.95 132.85 189.0 134.7 190.95 137.3 190.7" fill="#000000" fill-opacity="0.101960786" fill-rule="evenodd" stroke="none"/>
  </g>
  <defs>
    <linearGradient gradientTransform="matrix(0.094, 0.0, 0.0, 1.0, 119.7, -69.9)" gradientUnits="userSpaceOnUse" id="gradient0" spreadMethod="pad" x1="-819.2" x2="819.2">
      <stop offset="0.0" stop-color="#ebc29c"/>
      <stop offset="0.9882352941176471" stop-color="#cb7a2c"/>
    </linearGradient>
  </defs>
</svg>
