<?xml version="1.0" encoding="UTF-8" standalone="no"?>
<svg xmlns:xlink="http://www.w3.org/1999/xlink" height="317.4px" width="200.35px" xmlns="http://www.w3.org/2000/svg">
  <g transform="matrix(1.0, 0.0, 0.0, 1.0, 81.65, 158.25)">
    <path d="M105.65 -148.9 Q107.35 -147.25 107.35 -144.6 L107.35 -144.05 108.85 -142.75 Q118.7 -130.65 118.7 -120.7 118.7 -114.55 115.25 -106.5 L112.25 -99.45 113.05 -97.5 112.85 -97.2 Q111.0 -94.05 107.7 -87.6 L102.95 -78.25 100.95 -74.9 99.75 -74.8 Q91.85 -74.15 88.7 -72.95 L87.6 -71.6 82.85 -64.85 Q80.05 -60.9 77.6 -58.6 L74.25 -55.2 Q72.35 -53.25 70.6 -51.85 68.95 -50.55 65.55 -48.55 L62.35 -46.6 61.35 -46.25 60.35 -45.85 60.2 -46.2 59.75 -45.95 Q57.6 -44.85 55.85 -44.85 L53.8 -44.9 Q51.2 -44.35 49.25 -43.3 L43.35 -39.85 Q41.25 -38.85 38.6 -36.2 L38.5 -36.05 38.65 -35.5 38.85 -34.05 38.35 -31.05 37.85 -29.2 Q37.35 -27.2 37.35 -26.3 37.35 -23.55 39.55 -20.65 L40.6 -19.25 Q42.65 -20.55 44.35 -19.95 52.75 -16.15 52.75 -8.3 52.75 -5.95 51.7 -2.55 54.8 -0.15 55.75 2.95 L56.6 8.9 Q57.35 15.1 57.35 20.5 57.35 23.8 56.6 29.05 55.85 34.3 55.85 40.2 L56.35 58.55 Q56.35 60.4 56.85 64.55 L56.6 66.4 56.5 66.2 Q56.0 72.45 53.55 79.35 50.45 87.95 50.45 93.65 50.45 96.7 50.95 102.4 L51.05 106.6 50.95 110.8 Q50.95 112.45 51.9 114.95 L53.45 119.25 Q54.25 122.4 54.35 126.7 L54.6 126.65 Q55.65 126.65 55.25 129.0 55.25 131.5 55.7 132.3 56.1 133.1 56.1 135.35 56.1 138.15 55.45 138.85 53.5 141.1 52.7 142.55 L50.5 146.3 Q49.15 148.2 46.85 149.9 L44.1 151.75 Q42.2 153.05 41.6 153.65 L39.25 155.3 Q37.5 156.2 36.35 156.4 21.1 158.65 10.6 158.65 L-2.35 157.9 -21.55 157.15 -42.6 158.15 -53.4 159.15 Q-61.35 159.15 -63.25 155.75 -63.9 154.65 -63.9 152.95 L-63.9 150.65 -63.95 145.8 Q-63.95 142.7 -64.65 140.9 -65.8 137.8 -68.3 135.8 L-71.45 133.45 -74.3 130.9 Q-77.4 127.45 -77.4 121.25 -77.4 115.95 -74.9 104.65 -72.4 93.35 -72.4 88.45 -72.4 83.4 -75.9 80.2 -79.4 77.0 -79.4 74.1 -79.4 67.3 -70.75 55.8 L-64.85 47.9 Q-62.15 44.05 -62.15 42.3 -62.15 38.95 -67.6 36.5 L-68.9 35.95 -69.05 36.65 -70.5 42.55 Q-71.55 45.8 -73.2 48.05 L-70.2 35.75 -70.1 35.5 Q-74.25 34.05 -79.8 33.5 L-79.95 32.8 -79.35 32.3 Q-78.75 31.9 -78.45 31.9 -78.3 32.05 -78.7 32.65 -73.55 33.3 -69.9 34.45 -68.9 29.7 -68.9 24.8 -68.9 21.35 -69.25 16.55 L-69.65 8.7 -69.3 0.55 -70.9 0.75 Q-77.4 0.75 -80.15 -6.95 -81.05 -9.4 -81.45 -12.35 L-81.65 -15.1 -81.65 -15.5 -81.55 -15.6 -81.2 -15.6 Q-80.4 -8.75 -77.8 -4.7 -75.05 -0.5 -71.1 -0.5 L-69.2 -0.85 Q-68.65 -7.6 -67.3 -15.15 -66.1 -22.15 -62.15 -39.1 L-58.95 -51.05 -55.45 -62.95 -53.9 -68.45 -54.15 -70.65 -54.55 -74.1 -55.15 -73.75 -55.3 -73.85 -54.6 -74.6 -55.15 -81.8 -54.9 -86.8 Q-54.4 -90.25 -53.3 -86.6 L-52.45 -77.6 -52.4 -76.55 -51.25 -77.35 -49.8 -82.35 Q-48.35 -86.65 -46.3 -86.2 -47.9 -85.15 -48.55 -83.3 L-49.4 -80.2 -50.0 -78.15 Q-46.55 -80.25 -41.9 -81.7 L-37.5 -83.0 -36.95 -83.1 Q-36.35 -84.95 -33.85 -87.15 -30.1 -90.45 -25.4 -90.85 -20.7 -91.5 -16.3 -88.4 -12.35 -85.55 -11.55 -82.1 L-11.25 -81.25 -10.4 -81.05 -6.5 -79.75 -3.9 -79.65 1.6 -79.45 2.35 -79.05 Q2.85 -78.7 3.35 -78.7 L6.2 -79.0 7.1 -79.35 7.45 -79.3 9.45 -79.95 12.45 -80.75 14.4 -82.05 16.0 -83.35 Q17.5 -84.55 18.8 -86.35 L18.9 -86.45 18.9 -87.9 Q18.75 -88.75 19.05 -90.1 L19.65 -92.45 21.15 -97.0 21.35 -99.25 21.6 -100.4 21.8 -101.4 21.6 -101.9 21.35 -102.4 Q21.35 -104.35 22.4 -106.65 23.15 -108.3 24.8 -110.95 L24.8 -111.0 23.85 -111.05 23.8 -111.2 23.7 -111.3 23.75 -111.35 23.7 -111.6 24.0 -111.7 Q26.25 -115.0 31.05 -120.35 L31.05 -120.45 31.95 -121.3 31.85 -122.5 31.45 -124.3 31.35 -124.5 33.35 -127.05 Q38.15 -133.25 39.85 -136.45 L44.8 -144.6 45.85 -146.3 49.8 -147.0 50.6 -147.85 Q52.45 -149.7 55.0 -151.6 59.0 -154.5 60.9 -155.3 64.75 -156.95 73.35 -158.1 L77.55 -157.85 80.6 -156.85 83.75 -156.05 87.15 -155.15 87.6 -155.7 89.1 -156.6 91.75 -156.75 93.6 -156.1 97.6 -154.5 99.85 -152.75 105.65 -148.9 M97.05 -138.75 Q94.75 -141.15 91.4 -141.4 88.05 -141.7 85.75 -139.7 L84.95 -138.85 88.85 -139.0 Q97.0 -135.35 97.0 -128.7 97.0 -126.6 96.25 -124.75 97.9 -125.6 98.75 -127.35 99.65 -129.15 99.65 -131.8 99.65 -136.05 97.05 -138.75 M82.55 -100.05 L83.5 -99.15 84.4 -98.25 85.35 -97.3 Q87.45 -95.65 91.1 -93.8 92.75 -93.0 93.0 -91.95 L93.25 -90.1 93.65 -88.35 93.9 -86.45 93.9 -86.4 94.05 -85.9 93.95 -85.55 93.6 -85.3 92.8 -86.15 92.0 -87.7 91.2 -90.05 Q91.05 -90.35 90.1 -90.7 89.05 -91.05 88.95 -91.15 90.35 -88.45 90.35 -86.05 L90.1 -83.1 89.85 -82.85 Q88.85 -83.15 88.15 -84.15 L87.1 -85.6 85.2 -86.8 83.35 -87.75 Q81.3 -87.75 81.15 -87.3 81.05 -87.0 81.35 -86.35 81.45 -86.1 80.85 -86.1 80.5 -86.1 78.9 -87.65 77.35 -89.2 77.1 -89.85 76.5 -91.05 76.5 -93.6 L77.35 -97.7 77.3 -98.85 77.45 -99.5 77.85 -100.25 78.05 -100.6 80.0 -100.9 80.3 -100.9 80.45 -100.85 80.75 -100.85 Q81.65 -100.85 82.55 -100.05 M30.8 -118.8 L30.75 -118.85 30.45 -118.4 30.8 -118.8 M55.85 -125.2 L52.7 -121.45 46.45 -113.95 Q44.55 -111.65 43.1 -106.25 41.85 -101.65 41.85 -99.05 41.85 -97.4 43.35 -90.35 44.15 -86.3 44.15 -82.85 L45.3 -84.3 48.15 -87.5 49.65 -89.05 Q50.7 -89.95 52.3 -90.25 L53.85 -90.7 Q58.35 -94.25 62.4 -96.6 58.5 -97.8 56.95 -100.65 55.75 -104.2 54.5 -105.75 L54.65 -106.2 55.2 -106.45 Q55.7 -106.45 57.65 -104.8 59.75 -103.1 61.25 -102.85 61.05 -103.7 57.35 -107.05 53.75 -110.25 53.75 -110.95 53.75 -113.2 58.9 -112.05 63.45 -111.0 65.35 -109.6 L67.1 -109.6 67.15 -109.85 66.0 -110.95 60.45 -113.2 60.2 -113.2 58.9 -113.4 58.4 -113.35 56.0 -113.5 Q55.35 -113.65 53.8 -114.6 52.45 -115.6 52.45 -115.75 L54.15 -115.8 Q56.55 -115.0 57.45 -115.0 L59.3 -115.4 64.4 -115.8 Q65.15 -115.8 66.85 -114.65 L68.9 -113.15 70.5 -111.65 71.65 -110.3 Q72.65 -109.15 73.3 -107.45 L73.9 -106.2 74.3 -105.25 76.75 -102.1 76.75 -101.9 76.7 -101.45 76.6 -101.3 76.5 -101.2 75.75 -100.4 Q75.35 -100.0 74.6 -99.75 L74.5 -99.7 Q73.3 -99.6 72.25 -98.9 71.65 -98.7 71.2 -98.3 L69.85 -96.65 69.55 -96.3 68.85 -95.5 67.8 -94.1 65.85 -92.7 Q63.5 -91.5 62.65 -89.9 62.1 -88.85 62.1 -87.05 62.1 -85.7 62.6 -84.7 62.95 -83.95 63.8 -83.25 L65.05 -82.45 Q65.2 -82.35 65.4 -82.3 66.3 -81.8 68.4 -80.95 L70.7 -79.95 70.75 -79.9 71.15 -79.6 71.35 -79.3 71.35 -79.05 71.35 -78.45 71.35 -77.65 71.25 -77.25 71.4 -76.5 72.1 -74.0 73.1 -71.45 73.4 -69.5 72.85 -67.25 72.1 -65.35 72.0 -66.1 72.3 -69.2 71.85 -71.3 70.95 -73.45 70.0 -77.3 69.85 -77.7 69.85 -78.2 67.6 -77.85 64.85 -78.1 Q63.8 -77.75 63.5 -76.4 63.2 -75.1 62.75 -74.65 62.9 -74.5 62.3 -74.5 L57.1 -77.25 56.6 -77.2 61.9 -71.2 Q64.7 -67.6 64.85 -65.2 L64.85 -63.1 64.6 -62.85 Q63.5 -63.45 62.95 -65.0 62.45 -66.5 61.45 -66.95 57.1 -68.2 56.6 -68.5 54.9 -69.6 53.85 -69.7 L53.7 -69.6 53.6 -69.25 Q53.6 -68.25 56.5 -65.9 59.35 -63.5 59.35 -62.85 59.35 -62.15 58.0 -61.7 56.35 -61.1 52.2 -60.6 L52.1 -58.35 Q52.2 -58.1 51.6 -58.1 L49.0 -60.0 Q46.65 -61.95 44.15 -61.95 43.1 -61.95 42.85 -60.95 L42.85 -59.9 Q42.85 -58.7 44.8 -56.9 46.85 -55.0 49.1 -54.45 50.25 -54.15 50.35 -53.05 L50.35 -51.5 Q50.6 -51.1 53.5 -49.0 L58.2 -49.55 Q61.9 -50.25 62.7 -51.1 L63.2 -51.9 63.2 -52.1 Q63.2 -52.55 64.0 -53.45 L65.35 -54.85 66.95 -57.25 Q67.4 -57.9 69.5 -58.4 L72.85 -59.1 Q74.1 -59.4 75.5 -60.05 L77.0 -59.95 Q79.3 -62.25 81.9 -65.8 L87.0 -72.6 97.35 -86.05 98.9 -88.05 97.6 -90.35 Q92.8 -98.35 88.1 -104.2 80.8 -113.1 72.75 -116.95 67.4 -119.45 63.6 -121.6 L59.1 -123.85 Q58.4 -124.05 56.9 -125.2 L56.1 -125.5 55.85 -125.2 M71.5 -108.35 L71.2 -108.85 71.35 -108.5 71.5 -108.35 M49.0 -15.15 Q48.15 -16.55 46.35 -16.45 L46.15 -14.2 46.2 -13.7 45.75 -11.55 Q45.1 -8.4 44.45 -6.7 43.9 -5.3 43.05 -2.15 L41.65 2.45 Q38.3 11.85 33.65 20.9 L24.7 39.25 22.2 43.8 Q20.55 46.75 20.1 48.4 L17.8 53.05 Q16.2 56.1 16.1 57.65 L16.25 57.7 Q16.1 58.1 16.1 58.4 16.1 59.05 16.35 58.65 25.3 44.25 35.0 26.8 37.95 21.55 43.55 10.3 49.2 -1.15 50.1 -4.3 L50.85 -6.0 50.9 -8.2 50.9 -10.5 Q50.75 -12.05 50.15 -12.85 L49.0 -15.15 M86.3 -95.1 L86.35 -95.1 86.2 -95.2 86.3 -95.1 M-16.2 -85.9 Q-18.75 -87.9 -21.65 -88.85 -26.15 -90.5 -30.95 -87.5 -35.0 -84.95 -35.0 -83.3 L-34.85 -82.85 Q-35.6 -80.5 -35.9 -76.65 L-36.4 -68.6 -37.15 -60.7 -39.0 -37.1 -40.15 -29.7 -41.0 -21.2 -41.0 -21.1 -42.2 -11.15 -40.45 -22.65 Q-38.15 -36.5 -36.3 -44.6 L-33.55 -56.4 Q-31.85 -63.1 -30.0 -68.2 L-28.1 -74.1 Q-26.95 -77.85 -25.85 -80.05 L-24.15 -83.0 Q-22.7 -84.35 -18.65 -84.6 -15.5 -84.75 -13.9 -83.4 -14.55 -84.6 -16.2 -85.9 M-54.05 -81.85 L-53.55 -75.55 -53.4 -75.7 -53.65 -78.35 -54.05 -81.95 -54.05 -81.85 M-53.4 -74.8 L-53.45 -74.75 -53.45 -74.6 -53.4 -74.8 M-51.65 -75.8 L-52.35 -75.4 -52.3 -73.7 -51.9 -74.95 -51.65 -75.8 M-54.55 -62.35 L-57.85 -50.6 Q-59.9 -43.45 -60.95 -38.75 L-66.1 -15.1 Q-67.4 -7.8 -68.0 -1.4 -65.5 -2.95 -63.05 -6.95 -61.35 -9.75 -59.15 -15.1 -56.6 -21.2 -55.15 -30.45 -54.2 -36.25 -53.65 -45.35 -53.15 -53.55 -53.15 -61.2 L-53.55 -65.6 -54.55 -62.35" fill="#000000" fill-rule="evenodd" stroke="none"/>
    <path d="M97.05 -138.75 Q99.65 -136.05 99.65 -131.8 99.65 -129.15 98.75 -127.35 97.9 -125.6 96.25 -124.75 97.0 -126.6 97.0 -128.7 97.0 -135.35 88.85 -139.0 L84.95 -138.85 85.75 -139.7 Q88.05 -141.7 91.4 -141.4 94.75 -141.15 97.05 -138.75" fill="#f3f7d5" fill-rule="evenodd" stroke="none"/>
    <path d="M82.55 -100.05 Q81.65 -100.85 80.75 -100.85 L80.45 -100.85 80.3 -100.9 80.0 -100.9 78.05 -100.6 77.85 -100.25 77.45 -99.5 77.3 -98.85 77.35 -97.7 76.5 -93.6 Q76.5 -91.05 77.1 -89.85 77.35 -89.2 78.9 -87.65 80.5 -86.1 80.85 -86.1 81.45 -86.1 81.35 -86.35 81.05 -87.0 81.15 -87.3 81.3 -87.75 83.35 -87.75 L85.2 -86.8 87.1 -85.6 88.15 -84.15 Q88.85 -83.15 89.85 -82.85 L90.1 -83.1 90.35 -86.05 Q90.35 -88.45 88.95 -91.15 89.05 -91.05 90.1 -90.7 91.05 -90.35 91.2 -90.05 L92.0 -87.7 92.8 -86.15 93.6 -85.3 93.95 -85.55 94.05 -85.9 93.9 -86.4 93.9 -86.45 93.65 -88.35 93.25 -90.1 93.0 -91.95 Q92.75 -93.0 91.1 -93.8 87.45 -95.65 85.35 -97.3 L84.4 -98.25 83.5 -99.15 82.55 -100.05 M71.5 -108.35 L71.35 -108.5 71.2 -108.85 71.5 -108.35 M55.85 -125.2 L56.1 -125.5 56.9 -125.2 Q58.4 -124.05 59.1 -123.85 L63.6 -121.6 Q67.4 -119.45 72.75 -116.95 80.8 -113.1 88.1 -104.2 92.8 -98.35 97.6 -90.35 L98.9 -88.05 97.35 -86.05 87.0 -72.6 81.9 -65.8 Q79.3 -62.25 77.0 -59.95 L75.5 -60.05 Q74.1 -59.4 72.85 -59.1 L69.5 -58.4 Q67.4 -57.9 66.95 -57.25 L65.35 -54.85 64.0 -53.45 Q63.2 -52.55 63.2 -52.1 L63.2 -51.9 62.7 -51.1 Q61.9 -50.25 58.2 -49.55 L53.5 -49.0 Q50.6 -51.1 50.35 -51.5 L50.35 -53.05 Q50.25 -54.15 49.1 -54.45 46.85 -55.0 44.8 -56.9 42.85 -58.7 42.85 -59.9 L42.85 -60.95 Q43.1 -61.95 44.15 -61.95 46.65 -61.95 49.0 -60.0 L51.6 -58.1 Q52.2 -58.1 52.1 -58.35 L52.2 -60.6 Q56.35 -61.1 58.0 -61.7 59.35 -62.15 59.35 -62.85 59.35 -63.5 56.5 -65.9 53.6 -68.25 53.6 -69.25 L53.7 -69.6 53.85 -69.7 Q54.9 -69.6 56.6 -68.5 57.1 -68.2 61.45 -66.95 62.45 -66.5 62.95 -65.0 63.5 -63.45 64.6 -62.85 L64.85 -63.1 64.85 -65.2 Q64.7 -67.6 61.9 -71.2 L56.6 -77.2 57.1 -77.25 62.3 -74.5 Q62.9 -74.5 62.75 -74.65 63.2 -75.1 63.5 -76.4 63.8 -77.75 64.85 -78.1 L67.6 -77.85 69.85 -78.2 69.85 -77.7 70.0 -77.3 70.95 -73.45 71.85 -71.3 72.3 -69.2 72.0 -66.1 72.1 -65.35 72.85 -67.25 73.4 -69.5 73.1 -71.45 72.1 -74.0 71.4 -76.5 71.25 -77.25 71.35 -77.65 71.35 -78.45 71.35 -79.05 71.35 -79.3 71.15 -79.6 70.75 -79.9 70.7 -79.95 68.4 -80.95 Q66.3 -81.8 65.4 -82.3 65.2 -82.35 65.05 -82.45 L63.8 -83.25 Q62.95 -83.95 62.6 -84.7 62.1 -85.7 62.1 -87.05 62.1 -88.85 62.65 -89.9 63.5 -91.5 65.85 -92.7 L67.8 -94.1 68.85 -95.5 69.55 -96.3 69.85 -96.65 71.2 -98.3 Q71.65 -98.7 72.25 -98.9 73.3 -99.6 74.5 -99.7 L74.6 -99.75 Q75.35 -100.0 75.75 -100.4 L76.5 -101.2 76.6 -101.3 76.7 -101.45 76.75 -101.9 76.75 -102.1 74.3 -105.25 73.9 -106.2 73.3 -107.45 Q72.65 -109.15 71.65 -110.3 L70.5 -111.65 68.9 -113.15 66.85 -114.65 Q65.15 -115.8 64.4 -115.8 L59.3 -115.4 57.45 -115.0 Q56.55 -115.0 54.15 -115.8 L52.45 -115.75 Q52.45 -115.6 53.8 -114.6 55.35 -113.65 56.0 -113.5 L58.4 -113.35 58.9 -113.4 60.2 -113.2 60.45 -113.2 66.0 -110.95 67.15 -109.85 67.1 -109.6 65.35 -109.6 Q63.45 -111.0 58.9 -112.05 53.75 -113.2 53.75 -110.95 53.75 -110.25 57.35 -107.05 61.05 -103.7 61.25 -102.85 59.75 -103.1 57.65 -104.8 55.7 -106.45 55.2 -106.45 L54.65 -106.2 54.5 -105.75 Q55.75 -104.2 56.95 -100.65 58.5 -97.8 62.4 -96.6 58.35 -94.25 53.85 -90.7 L52.3 -90.25 Q50.7 -89.95 49.65 -89.05 L48.15 -87.5 45.3 -84.3 44.15 -82.85 Q44.15 -86.3 43.35 -90.35 41.85 -97.4 41.85 -99.05 41.85 -101.65 43.1 -106.25 44.55 -111.65 46.45 -113.95 L52.7 -121.45 55.85 -125.2 M86.3 -95.1 L86.2 -95.2 86.35 -95.1 86.3 -95.1" fill="url(#gradient0)" fill-rule="evenodd" stroke="none"/>
    <path d="M49.0 -15.15 L50.15 -12.85 Q50.75 -12.05 50.9 -10.5 L50.9 -8.2 50.85 -6.0 50.1 -4.3 Q49.2 -1.15 43.55 10.3 37.95 21.55 35.0 26.8 25.3 44.25 16.35 58.65 16.1 59.05 16.1 58.4 16.1 58.1 16.25 57.7 L16.1 57.65 Q16.2 56.1 17.8 53.05 L20.1 48.4 Q20.55 46.75 22.2 43.8 L24.7 39.25 33.65 20.9 Q38.3 11.85 41.65 2.45 L43.05 -2.15 Q43.9 -5.3 44.45 -6.7 45.1 -8.4 45.75 -11.55 L46.2 -13.7 46.15 -14.2 46.35 -16.45 Q48.15 -16.55 49.0 -15.15 M-16.2 -85.9 Q-14.55 -84.6 -13.9 -83.4 -15.5 -84.75 -18.65 -84.6 -22.7 -84.35 -24.15 -83.0 L-25.85 -80.05 Q-26.95 -77.85 -28.1 -74.1 L-30.0 -68.2 Q-31.85 -63.1 -33.55 -56.4 L-36.3 -44.6 Q-38.15 -36.5 -40.45 -22.65 L-42.2 -11.15 -41.0 -21.1 -41.0 -21.2 -40.15 -29.7 -39.0 -37.1 -37.15 -60.7 -36.4 -68.6 -35.9 -76.65 Q-35.6 -80.5 -34.85 -82.85 L-35.0 -83.3 Q-35.0 -84.95 -30.95 -87.5 -26.15 -90.5 -21.65 -88.85 -18.75 -87.9 -16.2 -85.9" fill="#846840" fill-rule="evenodd" stroke="none"/>
    <path d="M100.5 -111.85 Q101.65 -110.7 102.0 -108.85 L102.15 -106.05 102.0 -103.2 Q101.8 -100.35 102.4 -99.75 103.1 -99.1 103.1 -97.6 103.1 -96.4 100.65 -91.9 L97.75 -86.7 Q96.45 -84.2 94.1 -81.2 L90.0 -76.1 82.0 -65.2 77.85 -59.95 Q74.5 -56.05 73.35 -56.1 72.05 -56.95 70.5 -56.95 L67.25 -54.3 63.85 -51.05 Q62.25 -49.2 61.5 -49.0 L59.75 -48.8 57.6 -47.45 Q56.25 -46.65 55.05 -46.4 L55.1 -46.2 Q55.1 -45.35 54.5 -44.7 53.7 -43.85 52.0 -43.85 50.3 -43.85 49.75 -45.15 L49.35 -47.1 49.35 -47.15 48.55 -46.4 Q47.0 -44.8 46.5 -44.8 44.1 -44.8 43.5 -45.95 L43.35 -47.2 Q43.35 -48.05 44.35 -49.45 L45.25 -50.75 44.9 -51.9 41.4 -52.3 39.3 -51.05 Q37.55 -49.8 36.25 -49.8 33.65 -49.8 33.0 -50.95 L32.85 -52.3 Q32.85 -57.0 35.7 -60.15 40.65 -64.75 44.85 -69.6 L48.35 -73.85 Q50.7 -76.75 52.35 -78.2 L54.45 -80.1 Q55.3 -80.7 56.6 -81.0 58.35 -83.0 60.6 -82.75 61.8 -83.8 62.25 -84.7 60.5 -84.8 60.0 -85.9 59.85 -86.25 59.85 -87.2 59.85 -88.7 63.95 -92.9 L69.35 -98.1 71.65 -100.85 Q69.4 -100.95 68.35 -101.6 67.35 -102.2 67.35 -103.45 67.35 -104.0 67.9 -104.25 68.7 -104.7 69.35 -105.95 64.3 -110.1 63.5 -111.2 L61.4 -113.2 58.5 -115.7 Q56.9 -117.3 51.4 -120.9 L51.3 -120.95 Q46.5 -121.95 46.5 -123.85 46.5 -124.5 47.1 -125.05 47.6 -125.45 48.35 -125.45 L48.35 -125.65 Q48.35 -127.35 49.75 -128.3 51.45 -130.45 60.0 -128.05 65.85 -126.4 75.0 -122.45 L76.5 -120.7 77.3 -119.75 78.5 -118.45 82.75 -114.6 84.4 -112.8 Q88.05 -112.45 92.15 -113.5 96.8 -114.7 100.5 -111.85 M97.1 -107.8 Q96.25 -108.85 93.1 -108.7 L93.25 -108.6 Q94.6 -107.85 94.8 -106.9 L94.85 -105.2 95.5 -103.85 96.1 -102.2 95.65 -100.7 94.85 -99.7 94.75 -99.6 96.35 -99.6 Q97.35 -104.85 97.35 -106.1 L97.1 -107.8" fill="#000000" fill-opacity="0.101960786" fill-rule="evenodd" stroke="none"/>
  </g>
  <defs>
    <linearGradient gradientTransform="matrix(0.0504, -7.0E-4, 6.0E-4, 0.0467, 70.35, -87.25)" gradientUnits="userSpaceOnUse" id="gradient0" spreadMethod="pad" x1="-819.2" x2="819.2">
      <stop offset="0.0" stop-color="#dac2ad"/>
      <stop offset="0.9882352941176471" stop-color="#a36d4b"/>
    </linearGradient>
  </defs>
</svg>
