<?xml version="1.0" encoding="UTF-8" standalone="no"?>
<svg xmlns:xlink="http://www.w3.org/1999/xlink" height="234.85px" width="179.25px" xmlns="http://www.w3.org/2000/svg">
  <g transform="matrix(1.0, 0.0, 0.0, 1.0, 0.0, 0.0)">
    <path d="M175.1 193.6 L176.95 199.85 Q177.75 202.9 177.75 205.75 L177.25 212.15 Q177.25 213.4 178.25 218.0 179.25 222.55 179.25 224.6 179.25 227.45 178.35 229.85 176.55 234.6 171.75 234.6 169.35 234.6 167.0 233.35 L164.75 231.85 Q164.25 231.55 159.35 229.6 L157.1 228.2 Q155.7 227.35 153.5 226.95 L145.8 225.45 145.45 225.5 145.1 228.35 144.85 228.45 144.85 228.4 144.55 226.15 144.4 226.35 Q143.95 227.25 143.35 227.25 142.7 227.25 142.55 226.95 L142.5 226.6 Q137.7 230.55 134.3 232.1 128.4 234.85 120.1 234.85 L106.1 234.15 86.8 233.45 76.05 233.9 63.1 234.35 Q53.35 234.35 48.45 233.1 L43.85 231.2 Q38.8 229.15 35.45 227.95 L35.35 228.5 35.25 228.0 35.25 227.9 Q30.85 226.35 29.35 226.35 L27.55 228.0 Q25.65 229.6 23.75 229.6 L20.75 229.1 14.5 228.6 11.1 227.75 6.25 227.1 Q3.65 227.35 2.15 227.1 L1.6 229.7 1.6 229.75 Q1.0 228.8 0.95 226.75 L0.25 226.25 Q0.0 225.95 0.0 224.95 0.0 224.55 0.5 223.2 0.8 222.35 1.05 222.0 L1.45 219.5 1.9 216.6 2.15 210.75 Q2.45 203.65 2.15 199.1 2.05 197.15 2.8 193.4 3.6 189.25 3.65 187.5 L3.95 184.7 Q4.05 182.65 4.25 181.7 L5.15 175.7 5.35 175.6 5.65 170.6 6.25 164.05 6.0 162.8 5.75 161.5 Q5.75 160.05 6.65 158.4 L7.5 156.15 6.75 154.2 Q6.0 152.7 6.0 152.2 6.0 150.85 6.95 146.5 7.9 142.15 7.9 139.55 L8.5 135.95 Q9.15 132.65 9.5 131.7 L11.2 127.95 13.0 124.0 13.5 122.15 Q13.8 120.85 14.15 120.1 L15.45 118.3 16.75 116.35 Q17.4 113.55 18.85 112.35 L20.0 111.75 21.25 111.1 22.4 110.1 22.9 109.35 24.65 107.6 26.5 105.95 Q28.55 103.9 31.0 102.85 L33.4 101.65 Q33.0 99.05 33.0 97.5 33.0 96.5 33.85 95.75 34.8 94.9 36.75 94.5 L38.4 93.9 38.75 93.75 39.5 93.6 40.45 93.4 Q42.65 93.4 43.75 94.6 L43.95 94.8 43.9 94.55 44.25 92.2 Q44.0 91.65 44.1 91.45 44.3 90.75 45.85 89.95 L47.55 89.2 48.0 88.9 50.6 87.15 51.4 86.7 53.45 85.45 Q54.1 85.05 54.55 84.95 L54.75 82.8 Q54.75 76.95 51.6 70.6 L49.6 66.5 49.05 66.7 Q48.6 66.7 48.55 66.1 L48.5 65.05 48.45 64.2 48.1 63.5 Q47.8 63.8 47.65 64.5 L47.15 65.2 46.5 65.7 Q46.05 65.7 46.0 64.05 L46.1 61.6 Q46.0 58.9 45.15 57.5 L44.95 57.9 44.85 58.3 44.25 59.15 43.8 60.05 43.1 60.85 42.7 60.75 42.75 60.6 42.75 60.4 42.95 59.55 43.25 58.75 43.25 57.1 43.0 51.7 42.9 51.4 42.0 53.65 41.6 54.4 41.3 55.0 41.25 55.75 Q41.2 56.2 40.75 56.2 L40.35 55.95 40.35 55.8 40.5 54.15 40.5 52.55 40.75 49.5 41.2 45.5 41.1 45.05 41.05 45.05 40.85 45.0 40.15 44.75 40.05 44.7 39.3 44.45 Q38.3 44.15 37.8 43.65 37.0 43.55 36.75 42.85 L36.75 42.5 36.5 41.85 36.0 40.1 35.7 38.6 35.4 37.1 Q35.4 36.35 35.95 35.25 L36.45 34.4 36.4 33.85 36.55 25.8 36.95 22.6 Q37.35 20.3 38.7 16.25 39.65 13.3 42.7 9.85 44.0 8.25 45.95 6.65 L47.95 5.3 47.95 5.25 48.6 4.0 49.5 2.85 Q50.8 1.9 53.35 1.25 L54.6 0.8 55.85 0.45 59.25 0.05 60.9 0.0 62.05 0.1 64.3 0.35 66.4 2.3 70.75 2.9 72.1 3.25 74.05 3.95 Q76.55 4.7 78.2 6.35 L79.85 7.65 Q81.1 8.65 81.55 9.2 84.45 12.8 86.0 15.55 L87.2 18.75 88.2 21.2 88.3 21.2 88.35 21.65 88.45 21.95 88.4 22.3 88.4 22.55 88.4 22.6 88.45 22.6 Q89.3 23.0 89.8 23.35 L90.0 23.5 90.15 23.65 90.25 23.8 90.1 23.85 90.5 25.35 90.75 27.15 91.1 28.75 91.4 30.75 91.25 32.3 90.9 33.0 90.2 33.65 88.8 35.0 89.05 35.75 90.6 39.55 91.05 40.8 91.85 42.4 92.25 43.3 Q92.25 43.7 91.7 43.7 L90.9 43.5 Q90.35 43.15 89.8 42.95 L89.75 43.55 90.0 45.6 90.3 47.3 91.35 50.9 91.3 51.25 91.0 51.35 Q89.75 50.3 89.05 50.05 L89.0 51.3 89.5 57.1 Q89.5 57.6 88.95 57.6 L87.2 57.05 86.1 61.55 Q86.1 66.7 87.1 70.25 87.75 72.65 88.95 74.8 91.55 75.05 93.7 76.0 L97.2 76.85 100.15 77.5 Q101.1 77.65 101.4 78.05 L101.7 78.9 102.4 80.4 102.65 80.9 104.45 81.1 Q104.6 79.85 106.55 78.8 108.85 77.6 111.7 78.15 114.5 78.6 115.6 79.85 116.1 80.45 116.15 81.15 L116.25 82.15 Q127.65 83.2 129.75 83.95 133.1 85.05 134.75 86.35 140.35 90.9 145.9 100.35 L149.95 107.6 Q152.6 112.0 155.5 114.5 157.0 115.8 157.8 118.05 158.75 120.8 159.35 121.6 163.1 126.75 163.5 128.6 166.85 142.5 167.75 157.1 167.9 159.6 169.2 164.2 170.7 169.6 171.0 171.35 171.25 172.75 171.5 178.45 L172.0 181.45 Q172.5 184.25 175.1 193.6 M83.8 39.75 L84.0 38.1 Q84.0 31.4 76.1 29.1 L78.1 31.0 Q79.15 32.0 79.15 32.65 79.15 33.0 78.3 33.2 L73.75 33.85 Q76.1 36.15 78.7 36.95 80.35 37.45 80.35 38.25 80.35 39.35 79.2 41.35 L77.6 43.95 Q76.85 45.4 76.85 49.3 76.85 52.6 77.1 54.2 L79.25 50.2 Q80.6 47.5 81.9 46.1 82.7 45.25 83.15 44.0 L83.6 41.95 Q83.55 41.15 83.8 39.75 M115.55 81.9 L115.55 82.1 115.6 82.1 115.55 81.9 M64.25 8.0 Q63.05 7.25 61.6 7.25 61.15 7.1 59.9 7.25 58.75 7.0 56.7 8.25 L55.3 9.25 55.7 9.1 56.65 8.6 Q59.35 7.25 61.95 8.05 63.35 8.5 64.1 9.6 64.7 10.55 64.7 11.6 L64.7 11.95 Q65.75 11.1 65.75 10.2 65.75 8.95 64.25 8.0 M63.9 20.75 L62.9 20.4 62.8 20.4 62.05 20.15 61.4 20.55 59.25 21.9 60.25 24.15 Q61.2 26.6 61.6 26.6 L62.2 26.55 62.5 25.75 62.5 25.25 62.55 25.1 62.5 24.7 Q62.5 24.2 62.7 24.1 62.95 23.95 63.25 24.65 L63.5 25.55 63.55 25.75 63.6 25.85 64.15 25.0 64.6 23.3 Q64.6 22.3 63.9 20.75 M57.55 2.15 L57.6 2.15 57.55 2.1 57.55 2.15 M48.7 4.9 L48.85 4.8 48.8 4.75 48.7 4.9 M57.15 23.25 L53.3 25.95 Q52.05 26.65 49.55 28.7 44.35 32.6 42.9 34.05 L40.75 36.2 40.9 37.3 41.25 38.0 43.7 41.4 Q45.1 43.4 45.35 44.75 L45.95 48.25 Q46.4 50.25 47.25 51.5 47.85 52.5 49.65 53.45 51.65 54.45 51.75 54.6 L52.45 56.25 Q53.2 57.75 53.9 57.75 56.15 57.75 57.15 54.9 57.75 51.85 58.0 51.35 58.8 49.8 60.35 47.75 L62.05 45.45 61.9 45.45 59.1 45.35 59.1 43.5 59.7 42.3 Q60.65 41.4 63.35 41.35 L63.0 36.5 Q62.85 33.7 61.75 31.85 61.15 33.7 58.45 35.95 L53.25 39.4 Q52.95 39.85 52.8 40.9 L52.5 40.95 Q52.15 40.95 52.1 40.55 L52.1 40.15 52.35 39.05 52.7 38.65 53.45 37.8 54.65 36.6 55.0 36.25 50.9 36.85 49.0 37.45 48.5 37.45 48.4 37.0 Q48.4 36.6 49.0 36.15 L49.85 35.25 50.0 35.25 50.05 35.35 Q51.15 34.25 52.5 33.35 L52.9 33.2 51.05 33.05 50.5 32.95 49.15 34.35 48.8 34.3 48.75 33.85 48.9 33.15 48.85 33.1 48.75 32.8 49.0 32.5 49.55 32.05 50.1 31.2 50.45 30.85 50.5 30.85 51.35 29.55 51.8 28.8 Q52.15 28.4 52.8 28.4 L52.85 28.6 53.7 28.15 54.1 28.05 54.2 27.9 Q54.45 27.7 54.75 27.75 L57.7 27.8 59.3 27.8 58.55 24.65 58.2 22.45 57.15 23.25 M41.75 47.9 L41.85 47.9 41.75 47.65 41.75 47.9 M56.8 42.55 L58.5 42.2 58.75 43.0 58.2 45.2 57.4 48.1 57.0 47.9 56.75 48.4 56.15 49.05 56.05 49.35 55.8 49.8 Q54.85 50.45 54.3 51.2 L53.85 52.0 53.4 52.45 53.05 52.4 53.0 52.1 53.05 51.85 53.0 51.65 53.25 49.35 Q53.45 47.35 53.6 47.0 L54.4 44.65 55.3 43.5 55.9 42.85 Q56.35 42.5 56.8 42.55 M55.2 37.25 L55.15 37.2 55.0 37.35 55.2 37.25 M55.05 45.25 L55.15 45.25 55.1 45.1 55.05 45.25 M34.6 96.5 Q33.9 97.15 33.9 97.65 L34.2 100.6 34.3 101.2 34.4 101.9 34.5 102.65 34.55 103.0 34.6 103.3 34.9 105.1 35.65 112.45 Q36.7 122.2 38.4 127.25 L38.5 127.35 38.5 126.65 37.15 116.8 Q36.1 109.5 35.85 103.6 L36.0 103.15 35.9 102.55 35.8 100.75 35.75 100.3 35.75 99.9 Q35.75 96.85 36.0 95.5 L34.6 96.5 M62.35 59.45 L63.9 58.35 Q63.7 58.25 62.6 56.55 62.05 55.7 60.5 57.1 59.65 57.3 58.05 58.75 56.5 60.15 56.5 60.6 56.5 61.4 57.7 62.85 59.1 64.6 60.75 64.6 62.95 64.6 64.35 63.1 L65.35 61.5 65.35 61.35 60.85 60.7 Q61.25 60.15 62.35 59.45 M53.95 50.4 L54.05 50.3 54.0 50.3 53.95 50.4 M52.45 69.95 Q55.75 76.05 55.75 82.75 L55.75 84.1 55.9 84.7 55.85 85.2 57.05 85.75 59.9 87.3 61.05 88.05 62.9 88.9 66.6 90.45 Q68.35 91.25 69.95 92.25 L72.75 91.1 Q73.5 90.8 74.7 90.1 75.55 89.65 76.8 89.35 L77.25 88.4 Q77.85 87.15 77.75 86.6 L78.35 83.25 78.35 80.1 Q72.6 79.4 67.45 77.7 L59.25 74.7 Q56.6 73.75 54.1 71.4 L52.05 69.2 52.45 69.95 M50.85 66.75 L50.8 66.8 50.8 66.85 50.85 66.75 M31.8 104.2 L31.75 104.15 Q27.9 106.3 26.85 107.45 L24.85 109.85 22.75 111.85 Q21.9 112.4 20.9 112.55 20.25 112.65 19.5 113.6 18.15 115.25 18.0 115.85 L16.65 118.2 15.25 120.35 14.5 122.7 13.75 124.85 Q12.05 128.05 11.5 129.35 L10.0 133.85 9.25 138.6 Q8.8 141.1 8.75 143.1 L7.85 147.55 7.0 152.1 Q7.0 152.8 7.75 153.95 8.5 155.05 8.5 156.1 L7.65 158.95 Q6.75 161.1 6.75 161.45 L7.25 164.85 6.0 178.5 5.85 178.55 5.0 182.7 4.9 185.8 4.75 188.85 3.8 194.9 Q3.25 198.65 3.5 201.1 3.8 203.35 3.55 207.1 L3.25 213.25 Q3.25 216.0 2.5 219.45 2.15 220.95 2.15 222.45 L2.15 222.65 2.2 222.65 7.75 221.6 15.1 220.35 Q6.6 216.0 6.6 214.9 L6.65 214.2 10.0 213.7 10.15 213.6 10.05 213.55 7.9 212.35 Q7.6 212.1 7.6 211.3 7.55 210.95 7.65 210.65 7.9 210.05 8.6 210.1 L8.15 208.3 Q7.85 207.15 7.85 206.35 L8.0 204.45 Q7.35 203.35 7.35 202.85 7.35 200.7 10.0 198.2 L12.6 196.0 10.25 194.1 Q7.85 192.3 7.85 191.5 7.85 190.8 8.85 190.4 9.85 189.95 9.85 188.95 L9.95 187.5 Q10.3 186.5 11.95 186.5 15.85 186.5 21.25 187.85 L21.5 187.85 21.4 187.75 Q20.05 186.7 16.5 185.25 L10.75 182.95 Q10.6 182.75 10.6 182.2 L12.6 181.55 Q13.8 181.0 18.35 180.85 L14.55 179.15 10.85 177.45 10.85 176.75 13.6 176.35 12.45 175.15 Q11.85 174.75 11.85 174.25 11.85 174.0 12.85 173.6 13.85 173.15 13.85 172.55 L12.6 170.0 Q11.35 167.75 11.35 166.5 11.35 165.15 12.85 163.9 14.35 162.65 14.35 160.85 14.35 160.1 13.35 157.0 L12.35 154.0 Q12.35 153.5 13.5 152.0 14.6 150.5 14.6 149.5 L14.1 146.5 14.15 144.35 Q14.4 143.3 15.75 142.0 L17.25 141.1 18.65 140.25 19.25 139.2 19.75 138.1 Q17.6 136.5 17.2 135.45 17.0 135.0 17.0 132.9 L17.4 125.0 17.35 124.95 17.75 124.85 Q18.0 124.85 19.05 126.9 20.25 129.25 20.9 129.85 L19.85 125.8 19.75 122.35 20.1 117.6 20.75 117.2 23.95 124.3 Q25.95 129.15 27.25 131.6 24.25 123.95 24.25 119.35 24.25 117.1 25.75 112.1 L25.8 112.05 26.3 111.95 Q26.85 111.95 27.85 114.7 28.95 117.85 29.5 118.45 L29.7 115.35 29.75 112.0 Q29.7 111.05 30.2 110.3 L31.25 109.0 Q31.6 108.5 31.5 107.5 L31.25 105.8 31.35 104.7 31.8 104.2 M39.25 130.75 L39.25 130.5 39.1 128.9 Q38.85 127.8 38.6 127.6 L38.6 127.7 Q38.6 128.95 39.15 130.7 L39.25 130.75 M36.1 174.1 Q35.9 177.2 34.4 183.2 32.8 189.6 32.5 192.25 L32.0 193.4 31.4 194.5 30.9 195.65 30.5 196.75 Q30.4 197.65 30.45 199.0 L30.5 201.25 30.75 205.75 Q30.85 207.25 30.25 210.25 30.25 211.15 31.0 217.1 31.0 218.1 30.25 219.45 L29.5 220.85 29.95 222.45 30.05 222.65 30.6 223.55 Q31.3 224.6 31.25 225.1 L31.15 225.15 31.55 225.2 Q32.0 225.2 33.05 223.85 33.7 223.05 34.3 222.6 L34.25 221.9 Q34.25 221.2 34.9 218.2 L35.5 214.95 35.75 210.95 36.0 208.15 35.5 189.75 Q35.5 186.3 36.0 183.6 L36.5 179.6 36.25 174.1 36.1 174.1 M132.0 168.35 L133.5 181.75 Q133.5 184.3 132.5 189.8 131.5 195.3 131.5 196.65 131.5 197.5 133.9 203.5 L134.5 205.2 135.25 206.85 136.15 207.7 137.0 208.45 Q137.65 209.15 137.65 210.1 137.8 212.1 140.2 216.7 141.9 220.05 142.35 222.1 143.4 222.3 143.4 226.1 144.15 225.65 144.4 224.65 L144.25 222.15 144.75 217.6 144.65 215.0 144.5 213.1 145.0 207.0 Q145.0 199.45 144.25 195.1 143.5 191.05 140.65 182.1 L139.75 179.1 Q139.15 177.35 138.1 175.95 137.75 175.45 137.75 174.45 L137.75 172.75 Q137.25 170.7 137.25 169.75 137.1 167.55 135.75 163.8 L133.5 157.6 Q132.0 164.05 132.0 168.35 M2.25 225.6 L2.35 225.6 2.25 225.4 2.25 225.6 M33.0 225.75 L34.95 226.3 34.6 224.35 33.4 225.6 33.0 225.75" fill="#000000" fill-rule="evenodd" stroke="none"/>
    <path d="M83.8 39.75 Q83.55 41.15 83.6 41.95 L83.15 44.0 Q82.7 45.25 81.9 46.1 80.6 47.5 79.25 50.2 L77.1 54.2 Q76.85 52.6 76.85 49.3 76.85 45.4 77.6 43.95 L79.2 41.35 Q80.35 39.35 80.35 38.25 80.35 37.45 78.7 36.95 76.1 36.15 73.75 33.85 L78.3 33.2 Q79.15 33.0 79.15 32.65 79.15 32.0 78.1 31.0 L76.1 29.1 Q84.0 31.4 84.0 38.1 L83.8 39.75 M63.9 20.75 Q64.6 22.3 64.6 23.3 L64.15 25.0 63.6 25.85 63.55 25.75 63.5 25.55 63.25 24.65 Q62.95 23.95 62.7 24.1 62.5 24.2 62.5 24.7 L62.55 25.1 62.5 25.25 62.5 25.75 62.2 26.55 61.6 26.6 Q61.2 26.6 60.25 24.15 L59.25 21.9 61.4 20.55 62.05 20.15 62.8 20.4 62.9 20.4 63.9 20.75 M57.15 23.25 L58.2 22.45 58.55 24.65 59.3 27.8 57.7 27.8 54.75 27.75 Q54.45 27.7 54.2 27.9 L54.1 28.05 53.7 28.15 52.85 28.6 52.8 28.4 Q52.15 28.4 51.8 28.8 L51.35 29.55 50.5 30.85 50.45 30.85 50.1 31.2 49.55 32.05 49.0 32.5 48.75 32.8 48.85 33.1 48.9 33.15 48.75 33.85 48.8 34.3 49.15 34.35 50.5 32.95 51.05 33.05 52.9 33.2 52.5 33.35 Q51.15 34.25 50.05 35.35 L50.0 35.25 49.85 35.25 49.0 36.15 Q48.4 36.6 48.4 37.0 L48.5 37.45 49.0 37.45 50.9 36.85 55.0 36.25 54.65 36.6 53.45 37.8 52.7 38.65 52.35 39.05 52.1 40.15 52.1 40.55 Q52.15 40.95 52.5 40.95 L52.8 40.9 Q52.95 39.85 53.25 39.4 L58.45 35.95 Q61.15 33.7 61.75 31.85 62.85 33.7 63.0 36.5 L63.35 41.35 Q60.65 41.4 59.7 42.3 L59.1 43.5 59.1 45.35 61.9 45.45 62.05 45.45 60.35 47.75 Q58.8 49.8 58.0 51.35 57.75 51.85 57.15 54.9 56.15 57.75 53.9 57.75 53.2 57.75 52.45 56.25 L51.75 54.6 Q51.65 54.45 49.65 53.45 47.85 52.5 47.25 51.5 46.4 50.25 45.95 48.25 L45.35 44.75 Q45.1 43.4 43.7 41.4 L41.25 38.0 40.9 37.3 40.75 36.2 42.9 34.05 Q44.35 32.6 49.55 28.7 52.05 26.65 53.3 25.95 L57.15 23.25 M56.8 42.55 Q56.35 42.5 55.9 42.85 L55.3 43.5 54.4 44.65 53.6 47.0 Q53.45 47.35 53.25 49.35 L53.0 51.65 53.05 51.85 53.0 52.1 53.05 52.4 53.4 52.45 53.85 52.0 54.3 51.2 Q54.85 50.45 55.8 49.8 L56.05 49.35 56.15 49.05 56.75 48.4 57.0 47.9 57.4 48.1 58.2 45.2 58.75 43.0 58.5 42.2 56.8 42.55 M55.05 45.25 L55.1 45.1 55.15 45.25 55.05 45.25 M53.95 50.4 L54.0 50.3 54.05 50.3 53.95 50.4 M52.45 69.95 L52.05 69.2 54.1 71.4 Q56.6 73.75 59.25 74.7 L67.45 77.7 Q72.6 79.4 78.35 80.1 L78.35 83.25 77.75 86.6 Q77.85 87.15 77.25 88.4 L76.8 89.35 Q75.55 89.65 74.7 90.1 73.5 90.8 72.75 91.1 L69.95 92.25 Q68.35 91.25 66.6 90.45 L62.9 88.9 61.05 88.05 59.9 87.3 57.05 85.75 55.85 85.2 55.9 84.7 55.75 84.1 55.75 82.75 Q55.75 76.05 52.45 69.95" fill="url(#gradient0)" fill-rule="evenodd" stroke="none"/>
    <path d="M64.25 8.0 Q65.75 8.95 65.75 10.2 65.75 11.1 64.7 11.95 L64.7 11.6 Q64.7 10.55 64.1 9.6 63.35 8.5 61.95 8.05 59.35 7.25 56.65 8.6 L55.7 9.1 55.3 9.25 56.7 8.25 Q58.75 7.0 59.9 7.25 61.15 7.1 61.6 7.25 63.05 7.25 64.25 8.0" fill="#f3f7d5" fill-rule="evenodd" stroke="none"/>
    <path d="M34.6 96.5 L36.0 95.5 Q35.75 96.85 35.75 99.9 L35.75 100.3 35.8 100.75 35.9 102.55 36.0 103.15 35.85 103.6 Q36.1 109.5 37.15 116.8 L38.5 126.65 38.5 127.35 38.4 127.25 Q36.7 122.2 35.65 112.45 L34.9 105.1 34.6 103.3 34.55 103.0 34.5 102.65 34.4 101.9 34.3 101.2 34.2 100.6 33.9 97.65 Q33.9 97.15 34.6 96.5 M39.25 130.75 L39.15 130.7 Q38.6 128.95 38.6 127.7 L38.6 127.6 Q38.85 127.8 39.1 128.9 L39.25 130.5 39.25 130.75" fill="#846840" fill-rule="evenodd" stroke="none"/>
    <path d="M62.35 59.45 Q61.25 60.15 60.85 60.7 L65.35 61.35 65.35 61.5 64.35 63.1 Q62.95 64.6 60.75 64.6 59.1 64.6 57.7 62.85 56.5 61.4 56.5 60.6 56.5 60.15 58.05 58.75 59.65 57.3 60.5 57.1 62.05 55.7 62.6 56.55 63.7 58.25 63.9 58.35 L62.35 59.45" fill="#ebb19d" fill-rule="evenodd" stroke="none"/>
    <path d="M31.8 104.2 L31.35 104.7 31.25 105.8 31.5 107.5 Q31.6 108.5 31.25 109.0 L30.2 110.3 Q29.7 111.05 29.75 112.0 L29.7 115.35 29.5 118.45 Q28.95 117.85 27.85 114.7 26.85 111.95 26.3 111.95 L25.8 112.05 25.75 112.1 Q24.25 117.1 24.25 119.35 24.25 123.95 27.25 131.6 25.95 129.15 23.95 124.3 L20.75 117.2 20.1 117.6 19.75 122.35 19.85 125.8 20.9 129.85 Q20.25 129.25 19.05 126.9 18.0 124.85 17.75 124.85 L17.35 124.95 17.4 125.0 17.0 132.9 Q17.0 135.0 17.2 135.45 17.6 136.5 19.75 138.1 L19.25 139.2 18.65 140.25 17.25 141.1 15.75 142.0 Q14.4 143.3 14.15 144.35 L14.1 146.5 14.6 149.5 Q14.6 150.5 13.5 152.0 12.35 153.5 12.35 154.0 L13.35 157.0 Q14.35 160.1 14.35 160.85 14.35 162.65 12.85 163.9 11.35 165.15 11.35 166.5 11.35 167.75 12.6 170.0 L13.85 172.55 Q13.85 173.15 12.85 173.6 11.85 174.0 11.85 174.25 11.85 174.75 12.45 175.15 L13.6 176.35 10.85 176.75 10.85 177.45 14.55 179.15 18.35 180.85 Q13.8 181.0 12.6 181.55 L10.6 182.2 Q10.6 182.75 10.75 182.95 L16.5 185.25 Q20.05 186.7 21.4 187.75 L21.5 187.85 21.25 187.85 Q15.85 186.5 11.95 186.5 10.3 186.5 9.95 187.5 L9.85 188.95 Q9.85 189.95 8.85 190.4 7.85 190.8 7.85 191.5 7.85 192.3 10.25 194.1 L12.6 196.0 10.0 198.2 Q7.35 200.7 7.35 202.85 7.35 203.35 8.0 204.45 L7.85 206.35 Q7.85 207.15 8.15 208.3 L8.6 210.1 Q7.9 210.05 7.65 210.65 7.55 210.95 7.6 211.3 7.6 212.1 7.9 212.35 L10.05 213.55 10.15 213.6 10.0 213.7 6.65 214.2 6.6 214.9 Q6.6 216.0 15.1 220.35 L7.75 221.6 2.2 222.65 2.15 222.65 2.15 222.45 Q2.15 220.95 2.5 219.45 3.25 216.0 3.25 213.25 L3.55 207.1 Q3.8 203.35 3.5 201.1 3.25 198.65 3.8 194.9 L4.75 188.85 4.9 185.8 5.0 182.7 5.85 178.55 6.0 178.5 7.25 164.85 6.75 161.45 Q6.75 161.1 7.65 158.95 L8.5 156.1 Q8.5 155.05 7.75 153.95 7.0 152.8 7.0 152.1 L7.85 147.55 8.75 143.1 Q8.8 141.1 9.25 138.6 L10.0 133.85 11.5 129.35 Q12.05 128.05 13.75 124.85 L14.5 122.7 15.25 120.35 16.65 118.2 18.0 115.85 Q18.15 115.25 19.5 113.6 20.25 112.65 20.9 112.55 21.9 112.4 22.75 111.85 L24.85 109.85 26.85 107.45 Q27.9 106.3 31.75 104.15 L31.8 104.2" fill="#bbbbbb" fill-rule="evenodd" stroke="none"/>
    <path d="M83.5 45.35 L83.15 52.85 Q82.45 57.4 79.0 56.75 79.0 59.55 78.5 61.6 78.2 63.1 75.55 63.9 L72.85 64.35 69.8 63.95 69.0 63.1 66.35 67.6 Q65.9 68.1 64.35 68.1 62.8 68.1 62.25 67.6 L61.1 68.6 Q60.3 69.25 59.75 69.25 56.45 69.25 55.6 66.25 L55.35 63.05 Q55.35 61.1 57.05 58.0 57.9 56.4 58.9 55.45 57.95 56.25 55.75 58.8 53.95 60.85 49.35 60.85 47.3 60.85 46.85 59.8 L46.75 58.55 Q46.75 56.7 50.25 51.7 L53.75 46.75 53.25 45.15 Q52.75 44.2 52.75 43.55 L52.95 41.9 Q53.15 41.15 53.85 40.35 L54.25 40.0 Q47.1 40.65 46.25 38.15 46.15 37.75 47.1 34.1 L47.1 33.5 44.15 36.35 Q41.65 38.75 39.75 38.75 37.8 38.75 37.35 37.65 L37.25 36.5 Q37.25 35.75 40.05 33.1 L43.85 29.35 Q46.45 26.25 49.6 24.9 50.05 24.7 54.85 23.25 59.15 21.9 59.2 19.9 L59.1 18.15 Q59.1 17.0 59.85 16.1 62.0 13.4 64.35 15.2 66.5 16.85 66.5 19.35 L65.6 26.1 Q65.4 27.15 65.65 29.4 L66.0 32.3 Q66.0 35.95 65.25 39.35 64.05 44.55 63.6 47.85 L63.25 51.25 Q62.7 52.9 60.7 54.3 L61.85 54.1 Q62.8 54.1 64.35 55.1 L66.0 56.25 Q66.8 54.75 68.6 53.6 70.15 52.6 70.25 52.0 L70.25 46.75 Q70.25 42.0 70.85 36.25 70.7 33.15 71.05 31.7 71.65 29.4 75.4 26.35 76.85 25.2 78.9 25.6 80.9 26.0 82.65 27.6 L83.0 29.0 84.4 29.35 Q85.3 29.7 85.4 30.0 85.75 30.75 85.75 32.6 85.75 34.65 83.5 45.35 M58.25 31.5 Q57.2 31.2 55.0 32.6 53.05 33.8 52.35 34.75 L52.35 35.0 Q53.75 34.85 55.65 33.45 L58.25 31.5 M56.85 82.1 Q57.6 82.1 61.2 84.25 64.75 86.35 67.85 86.35 71.5 86.35 72.3 79.5 72.7 75.9 73.15 74.75 73.95 72.6 75.9 72.6 79.0 72.6 79.25 74.95 79.4 76.15 79.0 77.75 L79.65 80.4 80.0 82.8 Q80.0 86.3 78.5 90.1 76.25 95.85 71.85 95.85 64.5 95.85 58.75 90.9 54.25 86.95 54.25 84.85 54.25 82.1 56.85 82.1 M22.15 115.1 Q22.95 114.95 23.6 113.9 L25.25 112.05 Q29.5 108.45 30.8 110.7 31.35 111.7 31.35 115.3 31.35 116.45 30.2 120.8 L28.85 125.4 Q28.4 126.2 28.15 128.25 L27.85 130.4 26.0 132.8 Q24.3 134.25 21.0 134.55 21.5 135.6 21.5 137.15 21.5 138.3 20.5 139.65 19.5 141.05 19.5 143.15 19.5 145.35 18.55 146.75 17.6 148.1 17.6 148.6 L18.05 151.35 18.5 154.05 Q18.5 155.85 16.5 164.55 L17.3 168.8 Q18.1 172.1 18.0 172.8 17.85 174.0 19.15 177.0 20.5 180.1 20.5 181.05 L20.2 182.05 19.1 183.75 20.35 185.5 21.0 187.1 Q21.0 188.15 17.95 189.35 14.8 190.55 14.5 193.5 14.25 196.8 12.35 199.8 11.65 200.9 11.25 205.45 11.0 208.75 11.0 212.0 11.0 217.55 14.7 216.75 L17.2 216.3 Q18.35 216.55 18.35 218.6 18.35 221.2 10.35 222.75 L2.1 223.8 1.2 223.75 0.25 223.5 0.15 223.1 Q0.0 222.85 0.0 222.1 0.0 220.8 0.85 220.25 2.2 219.3 6.25 219.25 5.75 213.7 4.85 208.75 4.25 205.55 4.25 201.0 4.25 198.1 4.7 196.5 5.3 194.45 7.35 191.05 8.1 189.8 8.2 187.65 L8.35 184.25 Q8.6 180.75 12.35 182.0 L9.75 177.65 Q8.75 176.2 8.75 174.4 L9.75 172.5 Q10.75 170.85 10.75 169.55 L10.85 165.05 8.75 158.1 10.5 154.8 Q12.2 151.3 12.25 148.55 11.55 145.5 11.55 143.8 11.5 140.65 14.75 139.8 14.25 138.65 14.25 136.6 L15.0 128.15 Q15.0 127.45 15.45 126.25 15.95 124.9 16.6 124.05 17.6 122.75 17.75 121.95 L17.75 120.1 Q17.75 118.55 18.4 117.85 L21.1 115.4 22.15 115.1" fill="#000000" fill-opacity="0.101960786" fill-rule="evenodd" stroke="none"/>
  </g>
  <defs>
    <linearGradient gradientTransform="matrix(0.0427, 0.0, 0.0, 0.0215, 65.05, 40.4)" gradientUnits="userSpaceOnUse" id="gradient0" spreadMethod="pad" x1="-819.2" x2="819.2">
      <stop offset="0.0" stop-color="#f7dbd5"/>
      <stop offset="0.9882352941176471" stop-color="#ebb19d"/>
    </linearGradient>
  </defs>
</svg>
