<?xml version="1.0" encoding="UTF-8" standalone="no"?>
<svg xmlns:xlink="http://www.w3.org/1999/xlink" height="432.5px" width="477.2px" xmlns="http://www.w3.org/2000/svg">
  <g transform="matrix(1.0, 0.0, 0.0, 1.0, 0.0, -16.0)">
    <path d="M367.3 300.85 Q370.15 296.8 376.95 296.8 388.85 296.8 392.35 312.7 393.65 318.75 393.65 333.95 L393.6 341.05 Q393.4 346.2 392.3 349.3 L388.9 355.5 Q386.3 360.05 386.1 363.45 L385.25 377.8 Q384.9 386.4 385.55 393.0 386.0 398.3 384.6 407.15 L381.7 422.35 Q381.4 423.95 378.35 428.8 375.25 433.75 374.6 436.55 373.75 440.5 367.7 444.55 361.85 448.5 357.4 448.5 352.85 448.5 350.55 446.05 349.05 443.6 348.6 443.6 346.95 443.6 346.1 445.25 345.25 446.85 343.55 446.85 336.2 446.85 331.1 439.25 L330.4 438.2 329.55 438.2 Q325.25 438.2 322.85 435.4 321.85 434.25 320.45 433.6 L314.05 434.65 306.95 435.5 Q305.6 435.85 239.95 435.5 235.0 435.5 224.65 439.85 214.3 444.15 209.75 444.15 202.6 444.15 200.95 439.35 200.35 437.65 200.6 432.15 L189.05 431.4 184.1 431.15 Q180.9 431.15 156.7 438.75 132.55 446.3 122.85 446.3 103.0 446.3 100.0 442.35 99.1 441.2 99.35 438.9 99.65 436.65 99.05 435.85 97.3 433.5 92.9 429.8 88.9 426.4 87.9 424.7 83.75 417.85 83.6 412.1 84.2 406.0 83.85 402.45 83.6 399.7 83.6 391.25 83.6 383.95 82.85 380.0 81.1 371.0 81.85 367.85 83.15 362.5 83.15 358.75 L83.15 349.65 80.9 347.55 Q78.5 345.35 78.1 344.55 L77.8 343.5 77.75 340.5 Q80.3 326.35 83.5 320.1 83.85 319.5 84.4 316.15 85.0 312.45 85.8 310.25 88.6 302.55 96.65 302.55 102.0 302.55 103.7 304.6 L104.85 305.95 Q105.55 306.6 106.95 306.6 108.75 306.6 111.4 305.05 114.8 303.05 117.75 302.2 118.25 302.05 120.65 303.1 123.35 304.25 125.2 304.25 125.85 304.25 129.15 301.2 132.5 298.15 135.3 298.15 137.0 298.15 138.7 299.7 140.4 301.2 142.05 301.2 L149.25 294.8 Q156.75 288.35 160.95 288.35 162.6 288.35 165.4 290.25 L168.2 292.1 Q169.45 292.1 170.8 290.4 L173.4 286.6 Q177.35 281.1 182.75 281.1 184.15 281.1 186.95 282.9 L189.8 284.65 Q190.35 284.65 193.5 282.8 197.6 280.35 200.95 278.9 202.55 278.4 206.3 279.45 210.65 280.6 212.1 282.95 212.35 283.75 215.75 290.6 218.15 295.4 218.15 299.5 L223.85 298.0 Q227.85 296.8 229.5 295.45 231.2 293.5 232.6 292.4 235.15 290.4 238.25 290.4 242.25 290.4 244.75 293.05 247.05 295.55 247.05 299.15 247.05 301.0 245.6 304.2 243.95 307.9 241.65 309.95 L241.65 310.3 262.15 306.85 Q285.2 303.55 306.6 303.55 L322.9 305.1 339.15 306.6 Q340.85 306.6 345.9 305.1 351.0 303.55 352.65 303.55 354.35 303.55 357.25 305.1 360.1 306.6 361.8 306.6 L364.45 306.4 365.85 305.9 Q365.3 303.7 367.3 300.85" fill="#000000" fill-rule="evenodd" stroke="none"/>
    <path d="M378.6 33.65 L373.25 33.9 Q372.25 34.1 370.95 34.8 L369.2 35.65 372.65 37.8 376.35 39.85 Q378.65 41.35 381.3 43.9 L389.25 52.0 Q390.9 53.8 394.8 59.55 399.45 66.4 399.45 68.25 L399.0 69.05 398.5 69.3 Q397.4 69.3 396.05 68.75 L394.1 67.9 395.1 69.95 396.35 72.3 397.55 74.7 Q400.55 81.05 401.3 84.0 402.2 87.4 402.85 93.35 403.7 100.7 404.1 102.8 L404.0 103.15 403.5 103.3 Q402.55 103.3 401.05 99.1 L399.2 94.9 397.4 90.65 397.25 90.15 398.0 98.1 Q399.3 105.8 403.95 111.25 L403.8 111.6 403.25 111.8 Q401.1 111.8 397.15 107.9 394.0 104.8 392.8 102.85 389.65 97.75 389.0 94.1 L389.25 99.55 Q389.5 105.25 391.0 109.55 L392.45 111.25 Q396.9 116.4 400.85 119.0 L400.85 119.4 Q401.25 119.95 400.0 119.95 398.85 119.95 392.0 116.7 L394.3 124.0 Q396.65 130.95 399.55 136.4 L399.4 136.65 398.85 136.75 Q396.45 136.75 390.55 128.65 L390.8 131.65 Q392.95 132.25 392.95 135.25 L392.8 136.75 Q392.4 137.8 391.05 137.95 L390.8 141.55 390.65 142.65 390.75 142.95 390.55 143.15 389.75 145.75 389.45 146.55 389.2 146.9 389.05 147.2 Q388.25 148.85 387.45 149.7 L385.2 151.8 Q384.05 152.65 382.9 154.3 L381.8 155.9 Q381.0 157.35 381.0 158.8 381.0 159.35 382.15 165.2 383.3 171.1 383.3 172.75 L383.15 175.65 Q382.7 177.25 380.55 178.95 L376.8 181.3 Q373.9 182.9 372.65 183.05 371.9 184.25 371.7 185.05 L371.0 188.35 Q371.0 190.5 371.25 192.05 L371.7 193.75 371.7 193.9 371.8 194.25 372.05 197.0 371.85 198.5 372.05 198.75 371.7 199.05 Q370.7 202.85 366.85 212.5 L364.05 218.55 362.0 222.95 361.6 223.1 Q360.95 224.7 360.95 225.4 L359.6 229.2 Q358.15 233.05 357.95 234.05 L357.3 236.6 355.55 242.5 354.9 245.05 354.4 246.75 354.25 247.3 353.25 249.75 352.6 250.95 Q351.55 252.75 349.85 254.3 L349.6 254.25 349.5 254.3 350.25 254.45 350.45 254.45 350.6 254.45 350.75 254.55 354.65 255.25 Q356.15 254.9 358.35 256.35 360.55 257.85 360.6 259.2 L361.2 259.05 363.2 261.45 Q365.25 263.35 367.55 264.55 370.05 265.9 374.35 267.2 377.5 268.15 380.6 270.15 L385.45 273.55 388.1 275.2 Q389.85 274.3 392.3 273.7 396.95 272.6 399.35 274.6 L401.8 276.2 405.2 278.15 405.3 278.25 407.1 278.95 Q420.3 283.45 433.0 288.7 436.6 290.15 444.75 293.95 453.35 297.95 457.2 299.55 L469.2 304.8 Q477.2 308.7 477.2 310.45 477.2 311.8 473.75 313.6 470.25 315.5 465.6 316.6 L460.55 317.7 444.75 318.6 429.1 317.95 426.5 319.0 Q417.25 322.5 406.75 322.5 403.8 322.5 398.1 321.15 391.8 319.7 388.35 319.45 384.95 319.2 381.6 317.05 L379.35 315.35 Q367.25 314.05 367.25 311.35 L367.45 310.55 Q362.8 311.75 351.7 315.9 345.35 318.25 337.0 318.25 L322.55 317.5 294.95 316.25 281.25 315.35 271.45 314.25 230.45 310.25 212.75 308.2 201.3 306.9 203.75 309.85 207.5 314.05 207.25 314.35 Q203.15 311.3 199.7 306.75 L195.45 306.25 193.65 306.0 192.95 306.75 Q192.2 307.65 192.2 307.85 192.2 308.45 193.85 309.95 195.5 311.45 195.5 312.0 195.5 313.65 187.5 314.95 178.25 316.45 163.25 316.45 L138.3 315.7 Q134.45 317.3 132.5 317.55 L132.3 317.45 135.9 315.6 109.7 314.6 83.65 313.6 83.55 315.95 83.3 316.7 Q82.05 316.4 81.7 314.5 L81.6 313.5 72.45 313.15 61.95 317.25 61.8 317.05 69.95 313.05 39.55 311.85 18.55 310.4 Q0.0 308.5 0.0 305.8 0.0 304.7 3.25 301.1 5.45 298.65 6.55 298.45 13.75 291.8 27.05 282.05 28.8 280.75 30.75 279.5 L30.65 279.45 30.6 279.1 30.65 278.7 31.8 278.85 Q46.0 269.8 70.05 261.2 77.95 258.4 92.7 254.9 107.8 251.25 117.05 250.05 L129.05 247.95 135.9 246.85 141.6 245.85 152.15 243.35 157.15 241.8 160.55 241.35 162.05 241.25 161.6 240.45 Q162.45 240.15 164.3 240.8 165.75 241.3 166.75 241.95 168.35 242.15 170.0 243.25 L170.85 243.75 171.05 243.6 Q175.8 240.75 178.1 240.2 L191.55 236.8 Q197.95 235.3 201.65 235.2 L203.0 234.2 204.8 234.65 207.05 233.35 Q208.1 233.1 210.65 231.65 212.85 230.75 215.6 230.45 L215.6 230.35 216.75 230.35 217.7 230.3 218.15 230.4 218.25 230.5 220.75 228.15 222.35 226.45 224.1 224.65 224.6 224.8 224.65 224.8 224.3 224.65 225.8 222.55 Q228.2 219.0 229.85 215.7 L230.8 213.45 230.7 213.3 230.6 212.1 226.15 216.3 Q223.2 218.95 222.45 218.95 L221.45 218.9 221.35 218.3 222.95 214.6 Q224.7 210.65 225.2 208.05 225.95 203.8 225.95 198.1 L225.7 192.7 224.95 187.45 Q224.95 187.05 225.1 186.9 L225.45 186.8 225.2 185.15 Q224.75 180.6 222.25 174.6 L220.1 169.9 219.95 171.15 Q219.55 175.65 214.95 180.35 L213.7 180.35 213.6 179.15 Q214.2 174.55 214.2 172.6 L214.2 153.55 213.75 148.25 Q213.75 146.15 213.0 145.65 L213.3 145.35 Q212.9 143.4 213.2 140.5 213.3 139.2 211.55 136.9 L208.8 133.45 Q207.25 131.15 206.65 129.85 205.65 127.8 205.7 126.4 L205.85 124.7 Q205.9 123.55 205.6 122.9 205.05 121.65 203.3 120.7 L201.7 119.9 201.7 119.6 205.4 118.6 204.85 116.35 Q202.85 108.35 202.85 104.05 202.85 91.85 206.25 84.6 207.4 82.25 209.2 80.7 L209.0 80.3 208.45 80.3 208.2 78.5 Q208.2 76.9 211.25 71.65 213.85 67.2 214.7 66.25 218.35 61.85 220.45 60.15 224.85 56.65 232.35 54.3 L232.8 54.2 Q232.4 53.55 230.2 52.9 228.0 52.2 226.35 52.2 223.4 52.2 220.7 53.15 219.2 53.7 218.45 54.25 217.35 53.75 217.35 53.6 217.35 53.25 220.65 49.75 L224.45 45.9 228.25 42.3 Q230.8 40.05 233.7 38.15 235.9 36.7 240.9 34.8 244.55 33.45 248.0 32.45 L251.75 31.85 256.6 31.2 Q264.2 30.7 272.55 30.95 273.55 29.7 277.55 26.6 282.55 22.65 283.85 22.05 290.0 19.1 294.15 17.85 298.9 16.4 304.75 16.05 313.4 15.95 316.05 16.15 318.5 16.3 318.95 16.9 L316.3 17.9 Q313.9 18.65 313.1 19.15 311.85 20.0 310.2 21.8 L310.3 22.2 312.7 21.45 320.25 21.1 328.35 21.9 Q335.2 22.9 335.2 24.2 335.2 24.8 332.8 26.05 L329.5 27.8 329.35 28.0 332.25 26.9 336.25 26.25 345.5 25.55 365.05 26.25 Q365.6 26.35 367.05 27.0 368.55 27.75 371.5 28.4 373.35 28.75 376.3 30.2 379.7 31.85 379.7 32.9 379.7 33.75 378.6 33.65 M354.1 94.7 L350.5 95.2 347.2 95.6 345.3 98.25 Q347.75 99.55 351.7 99.9 354.75 100.25 356.7 100.9 357.6 101.25 359.1 102.05 L358.55 102.7 353.6 103.35 351.25 103.8 Q350.3 104.3 349.2 104.6 L347.4 104.95 Q346.75 105.1 346.25 105.35 L347.9 106.8 Q351.2 110.5 354.1 113.0 L357.35 116.0 361.05 119.2 365.3 123.05 Q368.4 125.15 369.4 126.7 L370.1 127.55 Q372.85 130.85 372.85 133.45 L372.3 137.3 Q371.75 140.05 371.85 140.75 L371.75 140.75 Q371.85 145.35 375.45 156.55 379.1 168.0 379.1 172.45 L379.0 175.85 Q378.7 177.75 377.7 179.2 L379.55 178.15 Q381.5 176.95 382.0 175.5 L382.2 172.65 381.5 167.95 380.75 163.25 Q380.0 160.0 380.0 158.85 380.0 157.5 380.5 156.3 L380.55 156.2 380.55 156.1 Q380.55 155.45 382.0 153.55 L382.25 153.25 Q381.35 152.85 379.8 150.9 L377.3 147.6 Q375.85 146.05 375.85 144.6 L375.6 141.8 375.6 141.6 375.55 141.65 375.45 141.6 375.45 141.25 375.55 140.85 375.35 140.15 Q375.35 138.7 378.1 136.5 380.75 134.3 384.15 132.9 387.55 131.45 389.65 131.5 L388.75 121.7 388.15 114.9 382.75 112.2 Q378.25 110.0 375.95 108.45 373.35 106.65 371.35 104.35 365.85 97.95 363.7 93.25 L363.2 92.0 359.75 93.2 Q356.3 94.4 354.1 94.7 M387.4 87.65 L387.45 88.65 387.55 90.55 387.75 93.7 387.95 89.2 387.4 87.65 M374.55 132.6 L374.9 133.05 Q374.9 133.55 373.5 135.5 L373.4 135.5 Q373.6 134.45 373.75 134.15 L374.15 132.85 Q374.15 132.4 374.55 132.6 M384.25 142.2 L387.25 141.9 389.65 142.1 389.7 141.3 389.75 140.55 388.1 140.6 Q385.7 140.6 384.6 141.55 L384.25 142.2 M375.55 136.45 Q376.15 135.6 376.8 135.4 L374.95 138.1 374.85 138.05 Q374.95 137.25 375.55 136.45 M389.7 139.15 L389.8 139.25 389.8 139.1 389.7 139.15 M386.65 137.35 L386.7 137.4 386.7 137.35 386.65 137.35 M384.9 143.7 L385.3 143.9 385.35 143.7 384.9 143.7 M387.85 147.35 Q387.35 147.25 387.2 147.0 L387.35 147.85 387.85 147.35 M354.05 120.8 L354.6 120.95 354.15 120.75 353.95 120.8 354.05 120.8 M346.55 121.1 L341.9 121.85 343.6 122.4 346.95 123.1 Q350.3 123.95 352.9 125.05 L354.6 125.85 Q353.95 124.4 353.3 123.65 351.7 121.7 346.55 121.1 M357.75 121.75 L358.0 121.75 357.85 121.7 357.75 121.75 M337.25 139.15 L335.2 140.8 Q333.3 142.0 330.45 141.9 L326.8 141.5 Q325.35 141.5 324.75 145.05 324.5 146.75 324.5 148.6 324.5 151.0 326.25 155.05 L328.8 161.45 Q330.75 168.4 330.75 174.3 330.75 176.7 329.2 182.05 331.15 180.3 333.55 176.8 L336.35 172.5 Q338.45 169.6 344.2 163.05 345.9 161.05 346.0 158.1 345.8 154.9 346.0 153.15 346.15 152.0 349.3 148.45 350.05 147.6 350.65 146.15 351.25 144.75 351.25 143.8 351.25 143.05 349.4 141.6 347.5 140.2 347.5 139.7 L347.55 139.3 349.8 138.95 352.45 138.4 Q351.7 137.6 348.3 136.5 344.85 135.4 341.25 134.85 338.9 137.95 337.25 139.15 M362.1 193.5 L363.3 195.9 364.2 197.65 Q365.1 199.8 365.1 201.8 365.1 205.25 362.35 209.0 359.6 212.85 357.0 212.85 L353.1 212.2 349.55 211.55 347.3 211.6 Q347.45 212.5 348.1 213.75 L349.35 215.8 Q349.6 216.25 352.3 217.7 L354.65 219.15 354.85 219.4 354.35 219.4 349.9 219.85 347.6 219.6 346.0 219.35 341.85 218.8 Q333.15 219.25 329.1 220.25 L328.95 220.25 Q328.55 220.25 328.25 220.55 L327.2 220.95 Q325.2 221.75 325.2 222.95 L325.4 223.8 326.05 224.35 Q327.05 227.45 330.0 231.5 L332.8 233.85 336.6 235.95 340.75 237.85 Q341.05 238.25 340.7 239.9 L340.9 240.85 Q341.4 242.5 343.75 244.6 L344.05 244.9 Q346.6 247.2 347.75 247.2 350.3 247.2 351.45 246.65 L353.15 245.6 353.35 245.05 355.55 237.25 355.65 237.05 358.8 226.7 360.65 221.25 Q361.25 219.8 362.0 218.7 362.7 217.65 363.5 216.9 L365.6 212.1 368.75 203.8 370.65 198.25 370.0 197.45 368.7 195.65 367.4 195.1 362.55 193.5 362.1 193.5 M363.35 184.8 Q366.5 186.65 368.9 189.0 L369.95 190.1 Q370.0 184.9 371.7 182.5 L371.7 182.45 371.8 182.35 371.25 182.35 367.95 183.5 363.8 184.6 363.35 184.8 M410.05 281.45 L413.0 283.25 419.4 287.8 Q423.8 290.95 425.25 292.7 433.05 302.0 437.2 308.2 L444.5 309.95 Q450.05 309.95 452.05 308.3 453.2 307.4 454.25 305.45 L456.15 303.85 Q455.75 303.3 455.75 300.7 L455.65 300.5 455.7 300.45 Q451.35 298.7 445.2 295.75 L435.05 290.95 Q431.45 289.35 423.95 286.7 416.2 283.95 412.2 282.2 L410.05 281.45 M333.7 198.4 Q331.2 200.3 329.3 202.5 324.2 208.15 322.95 215.9 L325.45 211.6 Q327.05 208.8 328.5 207.1 L330.65 205.0 Q332.15 203.5 332.2 202.55 L332.15 201.95 Q332.25 201.3 332.7 200.35 L333.7 198.4 M346.15 256.4 L343.95 257.35 Q339.75 259.1 337.5 259.1 328.9 259.1 324.2 257.75 322.25 257.2 315.15 254.15 L310.8 253.05 305.65 252.2 Q302.65 252.2 294.25 255.95 292.45 256.75 289.7 258.3 L284.8 261.0 Q277.15 265.1 273.4 271.4 L278.35 275.3 Q281.6 277.85 289.9 282.95 L300.6 289.95 308.6 284.0 325.6 271.7 Q334.9 264.65 338.05 262.45 L344.8 257.35 346.15 256.4 M385.95 316.15 Q390.35 317.95 399.85 317.95 L421.4 317.6 387.7 315.95 385.2 315.8 385.95 316.15 M375.15 306.75 L372.85 308.05 371.1 309.0 Q368.9 310.75 368.9 311.4 368.9 312.8 378.25 313.85 L378.0 313.0 Q377.85 311.75 376.3 308.9 L375.15 306.75 M475.4 310.45 Q475.4 308.85 458.05 301.4 L458.95 303.55 458.6 305.65 Q458.25 307.15 458.25 307.95 458.25 308.5 457.9 309.05 457.25 310.15 455.45 310.5 L454.5 310.45 Q454.25 310.3 454.25 309.45 L454.4 308.95 453.75 309.5 Q450.9 311.95 446.6 311.95 444.35 311.95 439.4 310.6 L438.6 310.4 439.25 311.45 Q437.2 310.85 435.7 309.55 L434.75 309.25 433.7 309.25 Q435.7 311.35 435.7 311.7 435.7 314.35 431.3 316.8 L444.7 317.2 Q453.15 317.2 464.4 315.45 467.15 315.0 471.3 313.1 475.4 311.25 475.4 310.45 M456.75 306.7 L456.5 306.5 455.1 308.2 Q455.8 307.75 456.75 307.75 L456.75 306.7 M432.25 306.7 L433.7 307.2 431.85 304.2 432.25 306.7 M430.5 314.0 L430.45 314.25 433.0 311.95 432.6 311.3 Q432.2 310.95 432.0 311.0 431.45 313.2 430.5 314.0 M416.25 320.25 L403.25 320.2 409.75 320.4 416.25 320.25 M240.05 188.8 L239.05 186.35 237.75 193.35 235.95 201.4 235.95 201.5 Q235.95 202.35 233.95 208.3 L232.2 213.3 232.2 213.75 231.85 214.15 230.7 216.5 227.15 222.3 225.95 224.05 225.2 225.05 221.3 228.75 218.75 230.65 219.4 230.45 222.05 229.75 223.45 229.2 226.5 227.55 229.1 225.95 232.4 222.7 233.8 221.0 235.05 219.45 Q240.15 213.35 242.3 206.25 244.8 198.35 245.95 193.0 247.35 186.15 247.35 179.95 247.35 177.0 246.75 172.95 L245.85 165.6 Q245.6 161.5 243.45 156.8 L243.45 157.45 243.35 162.65 243.35 172.65 243.3 180.6 243.05 193.4 242.45 193.65 Q241.7 193.5 241.45 192.7 L241.05 191.3 Q240.3 189.9 240.05 188.8 M144.2 246.7 L132.7 249.0 121.1 250.85 Q112.5 252.05 96.0 255.85 80.0 259.5 73.2 261.7 L67.3 263.75 Q65.65 263.6 64.6 265.15 L64.15 264.85 Q48.25 270.75 35.8 278.4 L34.45 279.2 34.2 279.35 34.3 279.4 33.5 280.4 32.85 280.15 29.1 282.65 Q24.35 285.95 15.3 293.05 L6.0 300.15 4.35 301.85 Q1.5 305.05 1.5 305.85 1.5 307.2 16.65 308.55 L24.15 309.6 43.75 310.75 72.4 311.85 Q77.25 309.45 81.75 307.3 82.3 299.5 84.75 292.8 88.6 282.25 95.45 280.1 99.7 278.8 105.7 278.3 L114.95 277.1 118.8 275.9 121.8 273.85 Q123.8 272.0 125.45 269.65 L128.05 265.6 Q131.45 260.15 134.55 257.35 137.75 254.5 138.6 254.15 141.65 252.65 150.45 251.35 L154.05 251.2 157.45 251.3 156.2 251.1 163.25 251.4 163.45 251.55 164.6 251.4 164.1 250.45 163.8 250.45 163.2 250.1 Q163.35 249.8 163.65 249.45 L162.95 247.75 Q162.95 247.2 163.65 247.0 164.4 246.75 165.2 247.7 L165.35 248.05 166.15 247.55 Q166.55 246.6 169.15 244.85 L168.95 244.75 168.05 243.85 165.25 242.8 163.25 241.95 163.15 241.9 159.0 242.85 156.35 243.55 153.9 244.35 144.2 246.7 M63.35 306.95 L61.3 304.3 61.95 303.75 62.4 302.8 64.65 305.45 Q66.9 308.15 67.55 309.55 L67.5 309.85 66.95 309.95 Q65.85 309.95 63.35 306.95 M81.65 309.05 L75.3 311.95 81.55 312.2 81.65 309.05 M266.15 244.55 L266.05 244.55 265.5 249.8 266.15 244.55 M225.2 225.05 L224.95 224.9 224.9 224.95 225.2 225.05 M198.3 304.7 L197.9 304.05 197.75 304.6 198.3 304.7" fill="#000000" fill-rule="evenodd" stroke="none"/>
    <path d="M346.15 256.4 L344.8 257.35 338.05 262.45 Q334.9 264.65 325.6 271.7 L308.6 284.0 300.6 289.95 289.9 282.95 Q281.6 277.85 278.35 275.3 L273.4 271.4 Q277.15 265.1 284.8 261.0 L289.7 258.3 Q292.45 256.75 294.25 255.95 302.65 252.2 305.65 252.2 L310.8 253.05 315.15 254.15 Q322.25 257.2 324.2 257.75 328.9 259.1 337.5 259.1 339.75 259.1 343.95 257.35 L346.15 256.4" fill="url(#gradient0)" fill-rule="evenodd" stroke="none"/>
    <path d="M410.05 281.45 L412.2 282.2 Q416.2 283.95 423.95 286.7 431.45 289.35 435.05 290.95 L445.2 295.75 Q451.35 298.7 455.7 300.45 L455.65 300.5 455.75 300.7 Q455.75 303.3 456.15 303.85 L454.25 305.45 Q453.2 307.4 452.05 308.3 450.05 309.95 444.5 309.95 L437.2 308.2 Q433.05 302.0 425.25 292.7 423.8 290.95 419.4 287.8 L413.0 283.25 410.05 281.45 M144.2 246.7 L153.9 244.35 156.35 243.55 159.0 242.85 163.15 241.9 163.25 241.95 165.25 242.8 168.05 243.85 168.95 244.75 169.15 244.85 Q166.55 246.6 166.15 247.55 L165.35 248.05 165.2 247.7 Q164.4 246.75 163.65 247.0 162.95 247.2 162.95 247.75 L163.65 249.45 Q163.35 249.8 163.2 250.1 L163.8 250.45 164.1 250.45 164.6 251.4 163.45 251.55 163.25 251.4 156.2 251.1 157.45 251.3 154.05 251.2 150.45 251.35 Q141.65 252.65 138.6 254.15 137.75 254.5 134.55 257.35 131.45 260.15 128.05 265.6 L125.45 269.65 Q123.8 272.0 121.8 273.85 L118.8 275.9 114.95 277.1 105.7 278.3 Q99.7 278.8 95.45 280.1 88.6 282.25 84.75 292.8 82.3 299.5 81.75 307.3 77.25 309.45 72.4 311.85 L43.75 310.75 24.15 309.6 16.65 308.55 Q1.5 307.2 1.5 305.85 1.5 305.05 4.35 301.85 L6.0 300.15 15.3 293.05 Q24.35 285.95 29.1 282.65 L32.85 280.15 33.5 280.4 34.3 279.4 34.2 279.35 34.45 279.2 35.8 278.4 Q48.25 270.75 64.15 264.85 L64.6 265.15 Q65.65 263.6 67.3 263.75 L73.2 261.7 Q80.0 259.5 96.0 255.85 112.5 252.05 121.1 250.85 L132.7 249.0 144.2 246.7 M63.35 306.95 Q65.85 309.95 66.95 309.95 L67.5 309.85 67.55 309.55 Q66.9 308.15 64.65 305.45 L62.4 302.8 61.95 303.75 61.3 304.3 63.35 306.95" fill="url(#gradient1)" fill-rule="evenodd" stroke="none"/>
    <path d="M354.1 94.7 Q356.3 94.4 359.75 93.2 L363.2 92.0 363.7 93.25 Q365.85 97.95 371.35 104.35 373.35 106.65 375.95 108.45 378.25 110.0 382.75 112.2 L388.15 114.9 388.75 121.7 389.65 131.5 Q387.55 131.45 384.15 132.9 380.75 134.3 378.1 136.5 375.35 138.7 375.35 140.15 L375.55 140.85 375.45 141.25 375.45 141.6 375.55 141.65 375.6 141.6 375.6 141.8 375.85 144.6 Q375.85 146.05 377.3 147.6 L379.8 150.9 Q381.35 152.85 382.25 153.25 L382.0 153.55 Q380.55 155.45 380.55 156.1 L380.55 156.2 380.5 156.3 Q380.0 157.5 380.0 158.85 380.0 160.0 380.75 163.25 L381.5 167.95 382.2 172.65 382.0 175.5 Q381.5 176.95 379.55 178.15 L377.7 179.2 Q378.7 177.75 379.0 175.85 L379.1 172.45 Q379.1 168.0 375.45 156.55 371.85 145.35 371.75 140.75 L371.85 140.75 Q371.75 140.05 372.3 137.3 L372.85 133.45 Q372.85 130.85 370.1 127.55 L369.4 126.7 Q368.4 125.15 365.3 123.05 L361.05 119.2 357.35 116.0 354.1 113.0 Q351.2 110.5 347.9 106.8 L346.25 105.35 Q346.75 105.1 347.4 104.95 L349.2 104.6 Q350.3 104.3 351.25 103.8 L353.6 103.35 358.55 102.7 359.1 102.05 Q357.6 101.25 356.7 100.9 354.75 100.25 351.7 99.9 347.75 99.55 345.3 98.25 L347.2 95.6 350.5 95.2 354.1 94.7 M363.35 184.8 L363.8 184.6 367.95 183.5 371.25 182.35 371.8 182.35 371.7 182.45 371.7 182.5 Q370.0 184.9 369.95 190.1 L368.9 189.0 Q366.5 186.65 363.35 184.8 M362.1 193.5 L362.55 193.5 367.4 195.1 368.7 195.65 370.0 197.45 370.65 198.25 368.75 203.8 365.6 212.1 363.5 216.9 Q362.7 217.65 362.0 218.7 361.25 219.8 360.65 221.25 L358.8 226.7 355.65 237.05 355.55 237.25 353.35 245.05 353.15 245.6 351.45 246.65 Q350.3 247.2 347.75 247.2 346.6 247.2 344.05 244.9 L343.75 244.6 Q341.4 242.5 340.9 240.85 L340.7 239.9 Q341.05 238.25 340.75 237.85 L336.6 235.95 332.8 233.85 330.0 231.5 Q327.05 227.45 326.05 224.35 L325.4 223.8 325.2 222.95 Q325.2 221.75 327.2 220.95 L328.25 220.55 Q328.55 220.25 328.95 220.25 L329.1 220.25 Q333.15 219.25 341.85 218.8 L346.0 219.35 347.6 219.6 349.9 219.85 354.35 219.4 354.85 219.4 354.65 219.15 352.3 217.7 Q349.6 216.25 349.35 215.8 L348.1 213.75 Q347.45 212.5 347.3 211.6 L349.55 211.55 353.1 212.2 357.0 212.85 Q359.6 212.85 362.35 209.0 365.1 205.25 365.1 201.8 365.1 199.8 364.2 197.65 L363.3 195.9 362.1 193.5 M337.25 139.15 Q338.9 137.95 341.25 134.85 344.85 135.4 348.3 136.5 351.7 137.6 352.45 138.4 L349.8 138.95 347.55 139.3 347.5 139.7 Q347.5 140.2 349.4 141.6 351.25 143.05 351.25 143.8 351.25 144.75 350.65 146.15 350.05 147.6 349.3 148.45 346.15 152.0 346.0 153.15 345.8 154.9 346.0 158.1 345.9 161.05 344.2 163.05 338.45 169.6 336.35 172.5 L333.55 176.8 Q331.15 180.3 329.2 182.05 330.75 176.7 330.75 174.3 330.75 168.4 328.8 161.45 L326.25 155.05 Q324.5 151.0 324.5 148.6 324.5 146.75 324.75 145.05 325.35 141.5 326.8 141.5 L330.45 141.9 Q333.3 142.0 335.2 140.8 L337.25 139.15 M357.75 121.75 L357.85 121.7 358.0 121.75 357.75 121.75 M346.55 121.1 Q351.7 121.7 353.3 123.65 353.95 124.4 354.6 125.85 L352.9 125.05 Q350.3 123.95 346.95 123.1 L343.6 122.4 341.9 121.85 346.55 121.1 M354.05 120.8 L353.95 120.8 354.15 120.75 354.6 120.95 354.05 120.8 M387.85 147.35 L387.35 147.85 387.2 147.0 Q387.35 147.25 387.85 147.35 M384.9 143.7 L385.35 143.7 385.3 143.9 384.9 143.7 M386.65 137.35 L386.7 137.35 386.7 137.4 386.65 137.35 M389.7 139.15 L389.8 139.1 389.8 139.25 389.7 139.15 M375.55 136.45 Q374.95 137.25 374.85 138.05 L374.95 138.1 376.8 135.4 Q376.15 135.6 375.55 136.45 M384.25 142.2 L384.6 141.55 Q385.7 140.6 388.1 140.6 L389.75 140.55 389.7 141.3 389.65 142.1 387.25 141.9 384.25 142.2 M374.55 132.6 Q374.15 132.4 374.15 132.85 L373.75 134.15 Q373.6 134.45 373.4 135.5 L373.5 135.5 Q374.9 133.55 374.9 133.05 L374.55 132.6 M333.7 198.4 L332.7 200.35 Q332.25 201.3 332.15 201.95 L332.2 202.55 Q332.15 203.5 330.65 205.0 L328.5 207.1 Q327.05 208.8 325.45 211.6 L322.95 215.9 Q324.2 208.15 329.3 202.5 331.2 200.3 333.7 198.4 M240.05 188.8 Q240.3 189.9 241.05 191.3 L241.45 192.7 Q241.7 193.5 242.45 193.65 L243.05 193.4 243.3 180.6 243.35 172.65 243.35 162.65 243.45 157.45 243.45 156.8 Q245.6 161.5 245.85 165.6 L246.75 172.95 Q247.35 177.0 247.35 179.95 247.35 186.15 245.95 193.0 244.8 198.35 242.3 206.25 240.15 213.35 235.05 219.45 L233.8 221.0 232.4 222.7 229.1 225.95 226.5 227.55 223.45 229.2 222.05 229.75 219.4 230.45 218.75 230.65 221.3 228.75 225.2 225.05 225.95 224.05 227.15 222.3 230.7 216.5 231.85 214.15 232.2 213.75 232.2 213.3 233.95 208.3 Q235.95 202.35 235.95 201.5 L235.95 201.4 237.75 193.35 239.05 186.35 240.05 188.8 M225.2 225.05 L224.9 224.95 224.95 224.9 225.2 225.05" fill="url(#gradient2)" fill-rule="evenodd" stroke="none"/>
    <path d="M376.7 126.8 Q378.75 130.9 378.75 135.3 378.75 137.7 377.15 141.6 375.55 145.55 375.55 147.8 375.55 149.65 377.75 155.8 379.95 161.95 379.95 166.95 379.95 173.85 376.75 181.3 L372.8 189.65 369.85 194.6 368.95 195.65 368.65 195.65 369.3 194.7 373.1 188.35 Q374.85 184.75 374.85 181.45 L374.55 179.3 374.25 177.05 Q374.25 166.45 371.8 158.5 369.35 150.55 369.35 147.65 369.35 144.15 370.95 139.9 L372.55 135.4 Q372.55 131.4 370.05 127.9 366.55 123.05 359.15 121.35 L358.95 123.3 Q359.85 123.2 361.5 123.8 363.1 124.35 363.45 124.9 L363.8 125.5 363.95 126.45 Q363.95 128.05 362.15 128.65 359.6 129.5 351.45 129.9 L347.15 130.6 341.25 131.3 Q339.8 131.3 338.0 129.95 L336.35 128.55 Q335.6 128.55 333.65 129.55 331.65 130.55 329.65 130.55 326.4 130.55 325.35 128.75 L324.95 126.95 Q324.95 123.65 331.15 122.85 L335.4 122.3 Q337.35 121.8 337.35 120.85 L336.9 118.5 Q336.4 116.4 336.15 116.2 335.35 115.4 333.35 114.6 331.95 114.1 331.95 113.0 331.95 111.85 332.6 111.3 333.6 110.35 336.45 110.35 L342.25 110.7 348.75 111.6 Q358.85 114.6 368.45 118.8 373.95 121.25 376.7 126.8 M346.0 119.35 L343.45 119.1 343.55 120.2 343.55 120.4 347.75 119.85 346.0 119.35 M339.15 133.15 Q341.15 130.8 346.05 131.85 354.2 132.75 356.8 134.3 358.35 135.25 358.35 137.1 358.35 139.0 355.3 143.35 L351.45 149.2 348.85 155.2 Q347.4 158.7 346.75 161.3 345.3 166.85 339.95 175.55 334.55 183.75 333.75 185.5 L333.5 185.2 333.35 184.65 Q332.55 185.35 329.4 188.95 327.05 191.6 325.95 191.6 323.35 191.6 322.55 190.1 L322.25 188.55 Q322.25 187.5 325.7 183.75 L329.15 179.85 Q329.15 175.6 326.05 161.85 322.95 148.05 322.95 146.5 322.95 143.2 324.65 140.6 325.9 138.6 327.6 138.35 L330.75 138.55 Q335.15 139.4 337.55 136.0 L338.3 134.6 339.15 133.15 M329.15 146.5 Q329.15 147.45 331.45 157.65 L334.85 172.0 Q338.05 167.3 342.0 155.75 345.6 145.15 350.55 139.25 L350.65 139.0 Q346.45 137.5 344.3 138.15 342.75 138.65 342.05 140.4 338.05 144.4 337.15 144.65 L329.25 144.8 329.15 146.5 M336.4 193.95 Q338.35 194.6 338.35 196.75 338.35 198.3 337.55 200.9 336.7 203.6 334.9 207.45 331.45 214.95 331.45 215.3 L332.9 220.6 333.55 222.75 Q333.75 223.7 335.25 224.95 L337.15 226.4 Q338.0 227.05 338.65 228.35 L339.45 230.1 Q339.85 230.85 341.55 231.75 L344.35 233.15 Q345.45 233.75 345.8 235.05 346.0 236.0 345.85 236.85 345.6 237.85 346.4 239.4 L346.9 240.3 Q348.1 242.2 350.05 243.95 L352.6 240.75 Q354.2 238.5 355.65 238.5 357.05 238.5 357.65 239.7 L357.95 240.95 Q357.95 241.6 356.0 245.05 L355.55 245.75 354.6 247.3 Q353.15 249.45 352.4 249.85 L352.05 249.95 351.75 249.95 Q347.4 249.85 344.8 247.85 L344.1 247.25 343.65 246.75 341.35 242.85 340.55 240.95 339.8 239.0 Q339.0 236.85 335.05 235.15 334.35 234.85 332.55 233.3 L330.15 231.2 Q329.2 230.35 328.5 230.25 L326.75 230.0 Q326.3 229.85 325.45 229.0 L324.55 228.0 Q323.5 226.3 323.4 224.2 323.35 222.95 323.7 221.15 L323.85 220.4 323.65 220.25 322.4 221.1 322.2 221.25 Q321.45 221.8 320.85 221.8 320.15 221.8 319.7 221.45 319.15 221.0 318.95 220.05 L318.85 218.1 Q318.85 216.0 321.7 210.65 323.9 206.5 325.75 203.9 L326.4 203.05 331.05 196.85 Q334.05 193.2 336.4 193.95 M358.75 192.2 Q358.75 190.7 360.1 189.65 361.75 188.35 363.95 190.4 365.15 191.45 365.9 192.95 L366.85 195.2 366.95 195.45 Q369.95 202.9 369.95 205.6 369.95 208.45 367.85 211.5 364.4 216.45 357.1 216.45 352.15 216.45 347.85 213.95 344.25 211.85 344.25 210.5 344.25 209.45 344.95 208.15 345.95 206.35 347.65 206.35 348.9 206.35 348.95 207.35 L349.05 208.7 352.15 209.75 Q354.1 210.55 354.75 210.55 360.6 210.55 362.75 208.15 363.85 206.85 363.75 205.55 363.75 202.2 361.25 197.65 L360.55 196.4 Q358.75 193.0 358.75 192.2 M421.25 291.9 Q419.25 290.9 418.65 290.8 L419.6 292.6 420.35 294.4 420.05 294.9 415.85 291.1 Q411.65 287.1 411.65 286.1 411.65 280.8 424.1 286.85 432.75 291.1 439.85 296.3 L444.25 300.2 449.25 304.4 455.7 308.7 Q458.35 310.6 458.35 312.35 458.35 313.45 457.85 314.3 457.05 315.7 455.25 315.7 454.1 315.7 452.2 314.3 450.3 312.9 449.25 312.9 L448.45 313.65 Q447.7 314.4 446.25 314.4 443.9 314.4 442.15 312.25 L440.05 309.0 Q439.35 308.0 436.8 306.45 L432.05 303.6 424.8 298.55 Q421.25 295.35 423.35 293.1 423.2 292.85 421.25 291.9 M348.75 258.65 Q348.75 260.2 347.35 262.1 345.9 264.1 344.45 264.1 335.9 264.1 332.5 262.4 329.0 261.85 325.35 260.7 322.7 259.9 317.35 259.25 L309.4 258.7 Q299.7 258.7 292.0 265.7 288.1 269.25 285.85 273.2 L282.95 277.2 280.05 281.3 277.45 285.75 Q275.4 288.8 274.05 288.8 272.5 288.8 271.95 287.55 L271.75 286.2 Q271.75 284.35 272.3 283.45 L274.65 279.3 Q273.65 279.55 271.95 281.65 270.4 283.6 269.55 283.6 266.5 283.6 265.65 281.9 L265.45 280.05 Q265.45 277.15 270.3 270.6 274.65 264.7 277.65 262.5 285.55 256.65 288.75 253.8 L291.3 251.3 292.0 251.2 294.15 249.95 Q295.9 249.4 297.2 250.5 L297.6 250.45 Q298.45 251.55 298.25 252.4 L307.3 251.25 315.85 250.3 326.45 251.45 335.25 252.9 345.5 254.75 Q346.85 255.2 347.5 256.1 348.5 256.35 348.75 257.2 349.0 257.9 348.75 258.65 M239.1 142.95 Q241.3 142.0 244.15 145.0 L245.0 148.1 Q245.45 150.3 246.25 151.45 247.95 154.0 248.7 157.95 L249.75 164.7 250.75 177.3 251.55 191.0 Q251.55 193.0 250.9 196.5 L251.15 197.35 Q251.75 199.65 253.2 200.75 254.35 201.65 254.35 203.4 254.35 204.35 253.85 205.2 253.1 206.55 251.65 206.55 250.75 206.55 249.95 206.0 L251.15 211.4 250.75 213.1 Q250.1 214.7 248.75 214.7 246.8 214.7 245.95 213.95 L245.05 212.65 240.45 218.4 239.2 220.0 235.35 224.35 231.45 227.2 226.75 229.9 223.55 231.95 218.8 235.05 Q217.4 235.05 217.05 234.1 L216.95 233.1 Q216.95 230.85 220.6 227.95 L223.25 226.05 229.1 221.9 Q231.95 219.65 233.05 218.15 L238.25 211.25 Q242.65 205.2 242.65 203.4 242.65 202.7 237.6 190.3 232.55 177.85 232.55 174.95 232.55 173.95 233.15 173.15 233.95 172.0 235.65 172.0 237.4 172.0 238.85 172.85 L238.65 171.35 Q237.55 162.25 237.55 160.1 237.55 158.1 238.1 157.2 239.0 155.8 240.95 158.4 L240.95 158.3 239.0 151.1 237.35 145.65 Q237.35 143.7 239.1 142.95 M97.25 293.9 Q97.25 295.6 95.3 297.25 92.65 299.55 87.85 299.4 L87.95 301.1 91.1 300.3 96.25 299.5 Q99.3 299.5 100.55 301.2 101.15 302.1 101.15 303.0 101.15 305.2 98.55 306.3 95.8 307.5 89.15 308.0 89.9 311.75 79.55 316.9 L75.15 318.7 Q73.2 319.55 72.65 320.8 L71.9 322.75 Q70.8 324.5 68.85 324.5 67.15 324.5 66.3 323.05 65.75 322.15 65.75 321.3 L65.65 321.0 65.3 321.45 64.45 321.7 Q61.6 321.7 59.75 320.1 L58.05 318.0 Q57.65 318.65 56.35 322.5 54.75 326.0 52.45 326.0 51.55 326.0 50.65 325.4 L49.85 324.8 Q48.4 326.0 47.65 326.0 L46.8 325.85 46.05 325.5 Q45.95 324.8 46.2 323.7 L46.4 322.55 44.65 323.1 Q44.1 322.6 43.8 321.15 L43.55 319.35 Q43.55 312.85 47.55 299.1 49.6 292.05 51.25 289.15 54.65 283.2 61.65 279.0 L68.8 274.15 Q72.25 271.7 76.1 270.35 86.1 266.75 120.05 262.9 123.05 262.6 128.9 258.55 L135.05 253.8 Q138.55 250.55 141.85 249.2 146.55 247.3 156.85 245.9 161.1 244.65 173.2 248.5 185.45 252.35 185.45 255.4 185.45 255.85 185.05 256.3 184.6 256.8 184.05 256.8 181.35 256.8 172.15 253.8 162.95 250.8 162.25 250.8 149.2 250.8 141.95 254.5 139.6 255.7 137.85 257.35 L135.95 259.3 135.8 259.45 136.1 259.7 Q137.25 260.9 137.35 262.0 L138.95 261.3 Q133.65 268.05 127.45 274.5 125.9 276.15 122.45 281.1 L117.35 284.4 115.8 286.0 Q114.45 287.2 112.85 287.2 110.75 287.2 110.15 285.5 109.95 284.95 109.95 283.4 L109.85 282.9 105.5 285.3 101.45 285.1 92.75 288.8 91.05 288.8 Q94.2 289.65 95.85 291.2 97.25 292.5 97.25 293.9 M62.85 283.75 L62.75 283.8 Q61.65 284.5 60.65 285.3 L61.05 285.8 Q61.5 284.95 62.85 283.75" fill="#000000" fill-opacity="0.101960786" fill-rule="evenodd" stroke="none"/>
  </g>
  <defs>
    <linearGradient gradientTransform="matrix(0.0, 0.1553, -0.0567, 0.0, 329.0, 170.55)" gradientUnits="userSpaceOnUse" id="gradient0" spreadMethod="pad" x1="-819.2" x2="819.2">
      <stop offset="0.0" stop-color="#765282"/>
      <stop offset="1.0" stop-color="#37283e"/>
    </linearGradient>
    <linearGradient gradientTransform="matrix(0.0, 0.045, -0.0427, 0.0, 85.35, 276.9)" gradientUnits="userSpaceOnUse" id="gradient1" spreadMethod="pad" x1="-819.2" x2="819.2">
      <stop offset="0.0" stop-color="#999999"/>
      <stop offset="1.0" stop-color="#333333"/>
    </linearGradient>
    <linearGradient gradientTransform="matrix(0.0, 0.1457, -0.0567, 0.0, 329.0, 176.0)" gradientUnits="userSpaceOnUse" id="gradient2" spreadMethod="pad" x1="-819.2" x2="819.2">
      <stop offset="0.0" stop-color="#765282"/>
      <stop offset="1.0" stop-color="#37283e"/>
    </linearGradient>
  </defs>
</svg>
