<?xml version="1.0" encoding="UTF-8" standalone="no"?>
<svg xmlns:xlink="http://www.w3.org/1999/xlink" height="90.05px" width="156.1px" xmlns="http://www.w3.org/2000/svg">
  <g transform="matrix(1.0, 0.0, 0.0, 1.0, 0.0, 0.05)">
    <path d="M131.3 52.7 L142.4 67.95 Q145.8 72.5 153.85 85.2 L154.7 86.45 Q155.1 87.65 155.1 88.7 L155.1 88.9 156.1 90.0 28.0 90.0 28.95 88.8 30.2 86.9 30.45 86.65 30.55 86.65 31.5 85.1 Q32.65 84.25 34.0 82.4 L35.1 81.6 34.85 81.4 33.35 80.05 Q31.5 78.8 30.35 77.55 L28.05 74.95 25.6 72.3 Q22.95 70.0 20.35 66.8 L16.1 61.6 11.45 56.3 8.85 53.75 6.35 51.2 2.5 46.3 Q0.0 42.9 0.0 40.85 L0.15 40.1 0.15 40.0 0.1 38.2 Q0.1 36.0 1.5 30.45 2.8 25.35 2.5 22.55 2.45 21.65 2.8 20.55 L3.6 18.6 4.05 16.65 Q4.3 15.45 4.75 14.7 5.75 13.05 7.95 10.7 L9.2 8.7 Q9.7 8.0 10.65 7.65 L13.1 6.3 Q15.4 5.25 17.35 4.6 L19.9 3.9 Q21.9 3.3 22.45 2.55 23.35 1.3 25.6 0.6 L28.5 0.0 40.1 0.6 42.7 0.7 45.6 0.95 Q46.55 1.1 47.6 1.85 51.1 4.5 52.6 7.2 L54.9 12.45 Q56.25 15.9 57.35 17.95 L60.75 24.0 Q61.85 26.25 61.85 28.35 L61.7 29.95 61.6 30.2 61.0 29.05 61.45 30.25 63.3 34.55 Q65.1 38.55 65.1 40.4 65.1 42.3 64.4 44.25 L71.6 43.6 74.85 43.6 76.3 43.05 Q79.3 42.0 80.45 42.45 L80.5 42.4 82.5 42.8 83.7 43.1 86.25 42.65 89.1 41.9 90.75 41.25 92.15 41.0 93.1 40.9 93.6 40.3 93.8 40.65 94.25 40.75 95.4 40.25 Q96.15 39.7 96.35 39.7 L99.9 39.35 100.9 39.05 102.95 39.0 104.45 38.8 108.2 38.6 108.6 38.6 108.55 38.4 110.25 38.55 112.35 38.85 Q113.6 38.75 116.25 40.0 L118.35 40.55 Q119.65 40.8 120.2 41.15 L122.05 42.55 Q125.15 44.2 126.3 45.5 L126.6 45.85 131.3 52.7 M63.85 41.5 L64.0 40.45 63.55 38.45 63.6 39.0 63.85 41.5 M72.2 44.8 L72.0 44.75 72.15 44.8 72.2 44.8" fill="#000000" fill-rule="evenodd" stroke="none"/>
  </g>
</svg>
