<?xml version="1.0" encoding="UTF-8" standalone="no"?>
<svg xmlns:xlink="http://www.w3.org/1999/xlink" height="405.45px" width="345.3px" xmlns="http://www.w3.org/2000/svg">
  <g transform="matrix(1.0, 0.0, 0.0, 1.0, -80.95, 19.7)">
    <path d="M369.9 27.8 L369.7 28.95 365.85 28.2 369.05 27.5 369.9 27.8 M385.35 46.75 Q385.6 45.95 386.15 46.2 L389.25 48.85 Q391.15 50.45 392.75 51.45 391.15 50.85 388.8 49.45 386.2 47.85 385.35 46.75 M343.6 30.15 L344.4 30.15 Q343.65 30.85 344.0 31.6 L359.2 40.2 Q375.5 49.3 379.35 52.05 381.7 53.7 385.6 57.5 L386.65 58.55 375.95 51.25 Q360.5 41.2 340.8 30.15 L336.75 27.9 339.8 27.7 Q340.0 28.55 340.7 29.15 341.8 30.15 343.6 30.15 M418.35 357.2 Q417.05 360.25 413.05 360.25 409.65 360.25 408.15 357.95 407.1 356.3 407.1 354.5 407.1 352.15 408.95 350.4 410.65 348.85 413.05 348.45 415.5 348.1 417.1 349.4 418.9 350.9 418.9 354.1 L418.35 357.2 M276.55 38.95 L281.55 42.6 275.3 39.05 276.55 38.95 M303.25 195.3 L303.3 195.3 303.25 195.25 303.25 195.3 M265.9 195.75 L266.1 195.75 266.1 195.5 265.9 195.75 M267.2 190.8 L267.85 189.55 Q268.7 188.9 271.25 188.95 L281.8 189.0 283.95 188.7 285.25 188.2 291.5 187.65 Q294.15 188.75 305.15 195.35 L305.7 195.5 305.4 195.85 305.0 196.35 303.95 196.15 303.9 196.15 277.9 198.55 268.3 197.65 266.1 197.45 265.9 197.45 264.55 197.45 264.05 196.35 264.15 196.25 264.3 196.25 264.2 196.0 267.2 190.8 M268.7 190.75 L268.55 191.15 267.3 193.05 266.95 193.9 Q266.85 194.7 267.05 196.15 L272.0 196.7 278.85 197.3 285.65 196.5 292.0 195.65 301.45 195.35 300.85 194.85 301.1 194.3 301.45 194.25 290.9 188.7 286.45 189.45 277.0 190.3 269.5 190.2 Q268.75 190.45 268.7 190.75 M86.2 385.75 Q82.6 385.75 80.95 383.5 L90.2 383.5 Q88.8 385.75 86.2 385.75 M310.15 358.4 Q311.5 356.65 313.5 356.55 315.45 356.45 316.85 358.1 318.35 359.95 318.35 363.35 L317.75 365.95 317.3 366.7 309.65 366.7 309.45 366.2 Q308.65 364.75 308.65 363.35 308.65 360.3 310.15 358.4" fill="#000000" fill-opacity="0.4" fill-rule="evenodd" stroke="none"/>
    <path d="M192.4 -6.75 Q192.25 -7.6 192.8 -8.2 193.75 -9.35 195.2 -9.5 196.55 -9.7 196.25 -10.8 L196.15 -11.5 Q202.9 -14.2 210.45 -16.35 L214.25 -17.45 223.35 -19.7 223.8 -19.65 224.65 -19.4 225.15 -19.1 225.35 -18.7 225.5 -18.35 225.6 -18.0 225.45 -17.3 225.3 -16.9 226.1 -16.5 226.6 -16.15 226.85 -15.85 225.8 -8.9 Q224.85 -4.6 224.35 -0.25 223.85 4.6 227.0 8.55 L227.1 8.8 226.95 9.2 226.8 9.55 226.55 9.85 225.6 10.75 225.5 11.0 Q225.75 12.15 226.25 13.3 227.15 13.75 227.7 15.15 L229.45 18.85 230.05 19.3 230.7 19.7 230.6 19.8 230.0 19.8 231.85 22.45 232.3 22.85 231.9 21.4 231.45 19.95 Q231.1 19.1 231.2 18.15 231.35 17.25 232.15 16.8 234.9 16.5 236.4 19.05 L239.0 23.3 Q240.35 25.35 240.1 27.7 L240.0 27.95 239.15 28.55 Q238.95 28.8 239.0 29.5 L238.9 30.95 Q238.75 31.7 238.1 32.05 L239.65 34.6 241.45 37.5 Q242.2 38.8 241.9 40.4 L241.25 41.45 Q238.25 41.95 236.2 39.1 L233.15 35.15 230.7 32.15 Q232.55 35.7 234.9 39.05 L239.75 46.1 Q242.5 50.0 243.75 54.15 239.3 53.15 235.15 47.7 228.5 39.0 222.7 29.65 217.1 20.6 211.3 11.8 210.4 10.5 209.95 9.25 206.35 13.75 203.2 18.65 L201.55 21.0 Q199.65 28.95 196.05 36.55 194.3 40.25 192.7 44.05 191.75 48.1 191.3 52.6 190.5 60.3 190.75 68.2 191.0 75.1 191.7 81.6 188.5 75.25 188.6 67.1 188.75 59.9 189.35 52.9 L189.1 53.55 Q186.3 61.75 182.5 68.9 183.3 63.05 185.4 57.25 L189.65 45.75 193.85 34.95 Q188.45 44.9 183.8 55.2 179.2 65.35 176.1 76.15 173.35 85.6 168.25 92.25 165.9 90.1 167.95 86.35 L170.8 80.4 172.7 75.3 Q172.6 64.45 177.2 53.45 181.9 42.3 188.25 32.0 L191.9 26.4 191.9 26.1 Q193.7 23.1 195.7 20.25 L199.2 14.9 203.5 7.6 204.25 6.15 200.5 10.15 Q198.25 12.6 195.5 14.35 192.95 16.0 190.95 14.0 L188.7 15.4 Q187.75 15.9 186.6 15.8 L185.65 15.45 Q189.45 10.55 195.15 6.05 201.15 1.4 206.1 -4.3 L206.65 -4.85 Q206.4 -5.95 206.5 -7.0 L206.55 -9.2 Q204.6 -10.05 201.2 -7.85 196.6 -4.8 192.4 -6.75 M210.05 -12.75 L207.85 -12.1 206.05 -11.45 204.95 -11.0 206.15 -11.05 Q206.65 -11.2 207.15 -11.5 L207.8 -11.8 Q209.1 -12.25 210.05 -11.25 210.55 -10.75 211.15 -10.65 L211.3 -11.0 211.5 -11.35 211.6 -11.7 211.75 -12.1 211.85 -12.45 212.0 -12.8 212.1 -13.15 212.0 -13.3 210.05 -12.75 M207.25 -0.25 L206.8 0.1 206.6 0.35 207.15 0.35 207.4 -0.35 207.25 -0.25 M270.95 -1.55 Q278.9 6.25 288.8 11.6 298.6 16.95 309.3 20.2 319.1 23.15 325.7 28.15 311.0 25.5 296.4 18.7 288.05 14.8 280.25 9.8 273.0 5.15 270.6 -1.5 L270.95 -1.55 M356.9 23.8 Q363.8 29.5 367.55 36.15 363.45 35.5 359.65 32.25 356.5 29.55 353.2 27.05 350.5 24.95 347.95 22.7 L338.65 23.65 338.9 23.8 342.3 26.3 345.4 29.15 Q346.4 30.2 345.65 31.4 L345.4 31.8 Q343.25 32.7 341.05 31.15 L337.2 28.4 Q335.6 27.2 336.0 28.3 331.3 30.1 324.7 25.05 317.95 19.9 310.9 15.2 303.65 10.35 303.6 5.45 L303.6 5.3 308.25 9.25 313.0 12.9 318.0 15.95 315.45 14.15 313.25 12.35 311.95 10.45 311.8 9.8 Q313.05 7.75 314.9 9.6 L318.0 12.45 Q319.9 14.15 320.75 12.2 329.1 16.5 338.65 18.55 L346.85 19.6 Q352.25 19.9 356.9 23.8 M403.65 112.4 Q405.7 113.0 405.5 115.2 L404.9 118.85 404.25 122.05 405.0 119.55 405.75 115.85 Q406.1 113.9 407.05 112.35 L407.65 111.65 407.9 111.6 409.25 111.85 410.0 112.35 410.2 112.4 410.75 108.75 Q410.95 106.5 411.6 104.35 412.3 102.05 413.8 100.55 414.0 100.35 414.3 100.3 416.5 108.15 413.35 118.2 409.6 130.2 409.2 142.95 408.8 156.05 415.4 167.2 416.15 168.4 416.0 169.8 412.95 169.65 411.25 166.45 L408.7 161.2 407.4 157.85 407.3 158.2 407.05 158.95 406.8 159.65 406.55 160.35 406.35 160.75 403.6 160.4 Q403.85 164.05 405.0 167.4 L404.85 167.55 404.15 167.75 403.2 167.6 402.35 167.4 Q399.6 160.3 400.9 152.5 L400.95 152.3 400.8 147.95 Q400.75 144.4 401.6 141.05 400.85 142.6 400.25 144.65 399.5 147.0 399.4 149.4 399.3 152.55 397.4 153.35 397.05 152.2 397.35 151.1 L397.85 148.3 Q398.0 146.85 398.5 145.4 L398.7 144.65 398.6 144.4 398.0 143.9 397.65 143.55 397.55 143.45 396.95 144.35 Q390.85 153.9 386.45 164.25 383.4 171.4 378.55 177.05 383.05 164.15 389.85 151.5 395.2 141.45 398.8 130.6 399.0 126.35 399.8 122.15 400.6 117.95 402.2 114.8 L402.35 108.9 402.95 108.9 403.5 112.65 403.65 112.4 M398.3 138.85 L398.65 136.1 397.15 140.05 398.3 138.85 M404.4 151.7 L404.8 148.0 404.4 150.5 404.4 151.7 M424.9 147.45 Q425.05 149.45 425.85 151.4 426.8 153.85 425.4 155.3 423.3 154.15 422.8 151.5 L421.75 147.2 Q421.05 144.9 423.0 143.95 424.7 145.15 424.9 147.45 M276.35 22.1 L283.2 30.6 Q286.55 34.6 288.35 39.05 284.05 40.0 279.85 35.55 L273.85 29.6 271.45 27.55 272.45 29.4 273.6 31.2 274.8 33.1 274.95 33.7 Q270.65 34.45 267.05 30.55 L261.7 24.3 259.0 21.4 Q260.3 23.7 262.65 26.45 L267.5 31.65 Q269.9 34.1 271.35 36.6 264.25 33.15 258.4 26.0 L248.15 13.6 Q243.95 8.5 241.85 4.1 L247.25 10.65 252.6 17.05 Q255.05 19.75 257.8 22.25 L255.85 19.6 253.75 16.7 251.6 13.7 251.25 13.05 Q255.4 13.75 259.2 18.35 L265.9 25.7 270.85 30.6 Q269.45 27.75 267.4 25.3 L263.1 20.05 Q261.05 17.55 259.75 14.8 L259.6 14.15 Q263.65 15.6 267.85 20.3 271.85 24.75 276.15 28.9 278.9 31.55 282.1 33.35 L277.35 27.3 272.85 21.05 268.9 15.25 268.45 14.5 Q272.6 17.15 276.35 22.1 M223.7 15.8 Q222.25 13.8 221.95 11.35 221.7 8.65 220.8 6.3 219.55 5.5 218.65 7.1 L217.7 8.25 219.5 10.65 223.15 16.35 Q224.85 19.0 226.85 21.4 L225.75 19.35 224.25 16.95 223.7 15.8 M213.8 7.75 Q213.2 8.5 212.2 8.55 L212.1 8.55 Q214.2 10.8 216.0 13.9 214.75 11.1 214.7 8.75 214.15 8.45 213.8 7.75 M207.6 6.4 L207.4 6.9 207.9 6.4 207.6 6.4 M217.3 16.4 Q220.45 22.95 224.55 29.1 228.3 34.65 232.55 39.65 L225.35 29.0 217.7 17.1 217.3 16.4 M190.0 33.25 Q187.0 38.35 184.5 43.8 182.0 49.15 179.9 54.65 L176.35 64.8 180.7 54.65 185.55 43.45 190.0 33.25 M198.75 93.6 L198.25 98.65 Q198.05 100.95 198.1 103.35 L198.55 101.9 199.1 99.3 Q199.55 97.6 201.1 97.2 L201.8 97.5 202.15 97.8 202.5 98.55 202.55 98.9 Q200.9 104.55 199.7 110.35 198.5 115.85 198.0 121.4 197.4 127.6 194.8 132.5 193.75 132.05 193.5 130.8 193.3 129.75 193.6 128.7 193.95 127.65 193.7 126.45 L193.6 126.2 193.15 126.95 Q192.75 127.65 191.95 127.5 L190.7 127.05 Q190.85 122.7 192.75 118.3 194.6 113.95 195.35 109.35 196.1 105.05 194.6 101.8 L195.0 97.8 195.35 93.05 Q195.45 90.4 197.2 89.4 L197.25 89.35 Q199.05 90.85 198.75 93.6 M211.5 172.7 Q212.1 175.0 212.35 177.4 L212.95 182.15 213.05 182.2 213.65 182.2 214.4 182.4 214.9 182.75 Q215.45 184.1 215.45 185.65 L215.55 189.3 216.0 192.9 216.1 193.5 216.25 193.35 216.4 193.05 216.8 192.4 218.05 191.7 Q220.8 194.15 221.35 198.4 221.85 202.1 223.0 205.7 L225.3 212.95 Q222.25 212.4 220.95 208.9 L219.0 203.45 Q218.3 201.2 217.65 200.75 L217.35 201.45 Q216.95 202.15 216.1 202.15 215.05 202.15 214.55 201.3 L214.4 201.25 214.15 201.95 213.95 203.05 Q213.9 204.0 213.05 204.45 L212.2 204.85 Q210.0 199.9 210.45 192.95 210.85 186.8 210.25 180.7 209.6 174.6 208.55 169.0 L208.85 168.85 Q210.85 170.15 211.5 172.7 M205.45 155.9 Q205.15 158.2 204.45 160.45 203.75 162.8 203.5 165.25 203.2 167.85 201.35 169.55 201.15 166.85 202.85 161.95 204.25 157.9 204.2 153.6 204.1 149.8 205.7 147.8 207.35 154.6 207.55 161.95 L207.75 176.45 Q207.75 182.9 206.65 189.15 205.1 184.6 205.6 178.35 L206.15 166.4 Q206.2 161.1 205.45 155.9" fill="#544e44" fill-rule="evenodd" stroke="none"/>
  </g>
</svg>
