<?xml version="1.0" encoding="UTF-8" standalone="no"?>
<svg xmlns:xlink="http://www.w3.org/1999/xlink" height="469.35px" width="403.7px" xmlns="http://www.w3.org/2000/svg">
  <g transform="matrix(1.0, 0.0, 0.0, 1.0, -80.95, 83.6)">
    <path d="M428.45 177.9 L428.6 176.35 429.1 180.8 428.45 177.9 M382.0 50.0 L384.55 50.3 386.3 57.55 382.0 50.0 M330.4 44.05 Q338.7 47.35 347.1 46.4 356.15 59.0 362.7 73.3 368.35 85.65 377.1 93.05 380.2 96.15 384.0 98.5 385.25 101.05 386.75 103.4 388.6 106.3 390.9 108.85 393.2 111.45 396.55 110.65 L396.6 110.7 398.45 115.05 399.8 118.55 Q397.45 123.2 400.1 128.0 L414.7 154.4 Q417.0 158.65 419.9 162.25 420.65 169.65 421.95 177.0 L423.65 178.3 425.2 179.3 427.2 187.75 Q428.3 192.25 428.85 196.9 429.5 202.2 432.4 204.25 L433.6 208.55 Q433.25 216.25 436.5 224.45 440.9 235.6 443.95 247.25 447.05 259.2 454.55 268.75 L456.15 268.8 457.3 272.95 Q459.6 281.05 463.65 285.4 L463.35 285.95 464.45 286.2 Q466.35 287.95 468.65 288.95 470.9 291.8 470.9 297.05 L471.25 301.65 Q471.25 307.0 470.05 311.35 466.15 325.35 451.05 325.35 445.4 325.35 442.6 319.05 440.8 314.8 440.8 310.55 440.8 307.4 441.45 304.5 437.45 306.25 433.35 309.2 428.55 312.6 420.85 312.6 419.9 312.6 418.55 311.4 L418.45 312.05 Q416.55 321.05 408.75 321.05 404.25 321.05 401.7 319.8 L400.2 318.85 399.6 320.05 394.5 327.95 Q396.95 328.9 398.9 330.75 403.1 334.7 403.1 341.0 403.1 344.65 401.4 347.25 398.3 352.0 389.9 352.0 382.8 352.0 379.1 347.7 L378.9 347.5 Q370.15 356.65 365.1 356.65 L362.1 356.65 Q358.85 357.0 356.45 358.7 355.75 359.3 353.9 361.55 351.35 363.6 346.5 363.6 342.75 363.6 341.15 360.8 338.95 357.2 337.4 356.45 332.55 355.1 330.25 354.1 326.05 352.2 326.05 347.2 L326.15 345.65 Q319.95 351.05 307.75 351.05 302.95 351.05 299.8 348.6 L298.95 350.0 Q299.5 351.4 299.5 353.2 L299.15 355.1 Q298.55 357.2 297.3 358.95 293.65 364.35 285.5 364.35 282.35 364.35 279.95 359.55 L279.95 359.35 Q276.45 358.8 274.9 356.45 274.25 355.45 273.9 354.1 271.2 355.6 268.05 355.6 264.05 355.6 261.2 351.55 258.75 351.3 257.6 349.05 256.75 347.45 256.75 345.35 256.75 342.45 258.25 339.5 258.6 336.95 259.35 334.85 261.15 330.1 265.7 325.75 274.25 319.6 279.75 322.5 L284.2 322.8 Q287.1 323.9 287.1 327.0 L286.95 329.6 286.3 332.75 Q290.3 329.85 294.45 325.65 294.15 324.9 294.15 324.1 294.15 320.5 296.5 317.05 298.8 313.85 301.8 312.7 303.9 311.9 305.5 312.35 L306.3 310.95 306.25 310.05 307.8 304.85 309.45 294.0 Q309.45 291.9 308.95 289.2 L309.25 283.9 308.8 280.7 308.4 277.55 Q308.4 271.45 301.55 262.8 301.05 260.05 298.0 258.8 296.4 257.15 295.05 256.5 292.8 255.3 292.55 257.65 L284.75 257.9 280.55 258.3 Q275.7 257.2 272.95 255.2 270.7 253.6 269.4 250.75 L267.0 246.0 259.5 236.75 Q254.95 231.25 253.3 227.55 246.0 210.8 238.8 214.45 237.75 203.5 231.3 192.2 223.5 178.55 218.75 163.45 213.9 148.1 205.15 135.1 L205.7 129.5 Q206.15 125.6 207.15 121.85 208.35 117.4 208.65 112.75 208.85 109.0 207.0 105.75 L206.25 105.1 Q205.6 104.7 204.9 104.45 204.0 104.1 203.05 103.9 L202.8 103.85 Q203.3 101.5 202.45 99.2 201.4 96.2 198.8 94.45 196.2 92.75 193.3 93.15 193.3 91.05 192.6 89.05 L193.0 88.15 Q195.4 82.15 194.65 75.45 193.85 68.1 192.55 60.75 L194.5 59.65 196.15 57.8 196.85 56.3 197.25 54.95 196.25 51.95 Q189.3 37.9 197.85 44.2 206.35 50.45 210.7 54.95 213.65 56.95 215.65 53.8 L215.7 53.1 Q215.55 51.05 213.95 49.95 L213.7 49.8 Q213.7 48.35 213.3 46.65 212.5 43.25 209.8 41.0 210.85 37.85 212.25 34.85 L212.45 34.5 Q215.0 39.45 219.15 43.95 226.55 52.05 233.0 60.9 239.55 70.0 249.65 71.05 L254.25 74.55 Q260.9 79.75 269.25 80.3 L269.7 80.35 273.1 83.85 Q277.25 87.7 281.85 90.9 287.7 94.95 294.8 94.1 L294.5 93.7 297.95 96.5 Q300.95 99.1 304.8 99.9 L304.65 99.45 299.6 94.95 294.45 90.05 292.4 88.3 293.85 87.55 Q290.1 79.9 280.8 76.25 278.1 75.2 275.6 73.75 271.6 64.3 265.45 55.05 260.55 47.65 256.85 39.6 265.0 42.6 272.4 46.85 280.55 51.45 287.95 51.7 291.05 53.25 294.6 51.0 L298.05 49.85 Q298.15 48.1 296.5 47.45 L294.55 46.65 Q289.75 33.3 279.25 21.6 274.35 16.1 270.85 9.85 297.65 31.0 330.4 44.05 M356.8 41.15 L358.9 42.3 359.3 44.5 359.2 44.6 357.3 43.0 Q357.85 42.1 356.8 41.15 M353.0 39.2 L352.7 38.65 354.55 39.85 353.0 39.2 M235.4 4.7 Q235.55 4.05 235.95 4.9 L238.05 9.2 238.5 10.05 238.7 10.8 Q237.65 10.1 236.6 9.5 L235.4 4.7" fill="url(#gradient0)" fill-rule="evenodd" stroke="none"/>
    <path d="M418.35 357.2 Q417.05 360.25 413.05 360.25 409.65 360.25 408.15 357.95 407.1 356.3 407.1 354.5 407.1 352.15 408.95 350.4 410.65 348.85 413.05 348.45 415.5 348.1 417.1 349.4 418.9 350.9 418.9 354.1 L418.35 357.2 M475.55 318.0 Q475.0 316.9 475.0 314.9 475.0 312.45 476.5 311.0 477.85 309.7 479.8 309.7 481.85 309.7 483.15 311.0 484.65 312.45 484.65 314.9 L484.65 317.2 Q483.8 320.3 480.0 320.3 476.65 320.3 475.55 318.0 M310.15 358.4 Q311.5 356.65 313.5 356.55 315.45 356.45 316.85 358.1 318.35 359.95 318.35 363.35 L317.75 365.95 317.3 366.7 309.65 366.7 309.45 366.2 Q308.65 364.75 308.65 363.35 308.65 360.3 310.15 358.4 M252.5 319.1 Q252.5 315.8 256.35 315.45 260.15 315.1 260.15 318.5 L259.75 320.3 Q258.75 322.1 256.3 322.1 254.35 322.1 253.3 321.05 252.5 320.2 252.5 319.1 M241.1 314.65 Q239.55 314.65 238.5 313.4 237.7 312.35 237.7 311.35 237.7 308.45 240.9 308.45 244.1 308.45 244.1 311.55 L243.85 313.1 Q243.2 314.65 241.1 314.65 M234.7 330.35 Q234.7 326.6 238.05 323.85 241.1 321.25 245.3 320.7 249.7 320.15 252.6 322.25 255.95 324.65 255.95 329.8 255.95 329.35 254.7 333.4 252.25 337.7 247.05 337.7 239.65 337.7 236.55 334.6 234.7 332.75 234.7 330.35" fill="url(#gradient1)" fill-rule="evenodd" stroke="none"/>
    <path d="M86.2 385.75 Q82.6 385.75 80.95 383.5 L90.2 383.5 Q88.8 385.75 86.2 385.75" fill="url(#gradient2)" fill-rule="evenodd" stroke="none"/>
    <path d="M327.15 97.5 Q331.4 97.5 336.9 94.3 L341.95 90.8 346.35 86.85 348.3 84.7 348.4 84.65 Q349.7 83.55 350.65 83.6 L353.1 83.85 360.8 84.7 362.85 85.2 Q366.65 86.2 367.1 87.15 L368.45 89.9 Q369.5 91.95 369.5 92.75 369.5 94.65 363.95 104.05 359.9 110.95 355.4 115.55 336.9 135.1 319.45 135.1 314.65 135.1 306.75 131.0 298.25 126.6 292.55 120.4 287.9 115.4 287.0 112.1 L286.15 107.25 285.65 103.6 Q285.9 101.2 286.65 98.75 288.05 94.05 290.45 94.05 L290.8 94.3 291.25 94.6 Q292.0 94.6 294.6 93.05 297.2 91.45 300.15 91.45 300.45 91.45 302.7 92.75 305.15 94.25 306.4 94.6 313.3 96.65 316.7 97.1 L327.15 97.5" fill="url(#gradient3)" fill-rule="evenodd" stroke="none"/>
    <path d="M257.25 97.95 L256.65 97.9 256.95 97.85 256.95 97.65 Q256.2 95.15 253.75 95.3 L253.75 95.05 255.2 94.8 Q256.7 94.8 257.25 97.95 M216.6 95.3 L216.25 95.75 215.9 95.55 215.6 95.45 215.6 95.5 215.5 96.25 215.5 96.75 215.05 96.95 215.05 96.8 Q214.8 96.5 214.8 96.0 214.8 95.55 215.25 95.15 L215.25 95.05 Q215.55 94.4 216.45 94.3 217.3 94.15 217.3 94.65 217.3 95.3 216.95 94.85 L216.95 94.8 215.95 94.95 216.15 95.15 216.6 95.3" fill="url(#gradient4)" fill-rule="evenodd" stroke="none"/>
    <path d="M256.65 97.9 L257.25 97.95 257.5 101.45 Q257.5 104.7 256.2 107.55 L252.45 114.3 Q251.05 116.7 246.6 120.5 240.0 126.2 234.2 126.2 L230.3 123.3 Q226.6 120.4 226.05 119.7 224.6 118.1 223.35 116.0 L221.25 112.2 Q215.05 100.2 215.05 96.95 L215.5 96.75 216.25 95.75 216.6 95.3 Q220.8 97.5 226.35 99.4 234.85 102.35 240.6 102.35 241.6 102.35 248.15 99.5 254.8 96.6 255.75 96.6 255.95 96.6 256.65 97.9" fill="url(#gradient5)" fill-rule="evenodd" stroke="none"/>
    <path d="M246.6 86.7 L247.8 87.75 247.95 87.8 Q250.95 89.05 253.05 90.8 254.9 92.25 254.9 92.85 L254.7 94.3 253.8 95.2 250.6 95.95 250.3 97.1 Q247.55 100.1 244.1 100.95 L234.45 101.7 Q227.25 101.7 222.85 99.8 219.05 98.2 219.05 96.05 219.05 95.5 220.0 94.15 221.0 92.6 221.25 91.35 221.5 90.1 223.55 88.65 226.1 86.95 229.1 86.55 232.55 85.75 235.85 85.6 236.5 85.05 237.35 84.7 L241.3 84.5 242.55 84.7 Q244.8 85.25 246.6 86.7 M334.65 76.45 L336.05 77.5 339.4 78.7 Q347.15 82.0 347.15 84.55 L347.15 84.7 Q346.85 87.4 337.7 91.4 328.3 95.5 322.2 95.5 310.15 95.5 306.3 93.5 303.8 92.1 303.8 88.25 303.8 86.9 306.1 84.7 L309.8 81.7 Q316.45 76.9 321.45 76.95 L327.7 76.3 328.65 76.05 Q332.25 75.35 334.65 76.45 M265.9 194.25 Q265.9 193.65 266.6 193.0 267.05 190.75 269.15 189.85 L271.0 189.35 276.55 190.1 Q284.45 190.1 288.6 188.4 L290.0 187.75 Q292.3 188.15 295.7 190.0 299.2 191.95 300.25 193.15 302.05 193.7 303.15 194.85 L301.9 194.95 Q301.8 195.55 300.95 195.85 L298.65 195.35 298.25 195.35 298.15 195.35 289.55 196.35 279.3 197.0 278.75 197.0 276.8 197.15 272.95 196.85 267.55 197.0 Q266.7 197.0 266.5 196.15 L266.45 195.15 Q265.9 194.65 265.9 194.25" fill="#ffffff" fill-rule="evenodd" stroke="none"/>
    <path d="M253.85 196.05 Q255.5 192.65 257.7 189.35 262.1 182.55 265.15 182.55 L266.9 182.75 272.95 182.8 277.2 182.4 280.95 181.8 283.45 181.3 283.9 181.0 Q285.9 179.6 288.45 180.55 L288.6 180.6 Q292.55 180.15 293.55 181.25 295.7 183.45 297.45 183.95 299.6 184.55 307.95 189.15 312.8 191.8 314.95 193.25 318.65 192.25 318.65 195.25 318.65 196.6 316.45 198.0 L315.0 198.7 312.65 201.25 Q309.65 203.95 307.65 203.95 L307.3 203.95 306.65 204.35 Q299.7 207.75 293.25 211.3 288.75 213.15 279.55 213.15 L275.0 212.0 Q271.55 211.75 269.0 210.85 268.5 211.5 267.55 211.5 264.65 211.5 259.2 202.7 256.5 199.8 253.85 196.05 M265.9 194.25 Q265.9 194.65 266.45 195.15 L266.5 196.15 Q266.7 197.0 267.55 197.0 L272.95 196.85 276.8 197.15 278.75 197.0 279.3 197.0 289.55 196.35 298.15 195.35 298.25 195.35 298.65 195.35 300.95 195.85 Q301.8 195.55 301.9 194.95 L303.15 194.85 Q302.05 193.7 300.25 193.15 299.2 191.95 295.7 190.0 292.3 188.15 290.0 187.75 L288.6 188.4 Q284.45 190.1 276.55 190.1 L271.0 189.35 269.15 189.85 Q267.05 190.75 266.6 193.0 265.9 193.65 265.9 194.25" fill="url(#gradient6)" fill-rule="evenodd" stroke="none"/>
    <path d="M291.5 67.9 L292.6 67.45 292.3 67.6 291.5 67.9 M277.7 93.85 Q278.2 91.7 280.2 84.7 L282.45 77.0 283.5 73.55 Q287.95 72.15 292.95 69.8 L299.7 66.2 Q303.4 66.35 305.15 68.7 305.85 67.6 307.15 67.35 306.65 69.65 306.45 71.55 L306.75 74.8 306.45 76.35 306.9 78.0 Q306.9 79.5 305.15 80.05 L303.3 84.0 302.95 84.7 300.65 90.05 299.05 91.5 Q297.3 93.2 297.45 95.5 L297.45 96.3 296.7 96.3 Q286.55 96.3 284.85 106.35 L284.65 108.6 284.5 110.45 284.5 110.7 284.5 111.5 Q284.65 114.95 285.85 119.05 286.95 122.55 289.55 129.35 290.0 130.85 292.25 133.3 L296.55 138.1 Q302.45 144.75 302.45 150.15 L301.9 152.5 Q300.7 154.85 297.7 154.85 L291.7 155.45 Q291.25 155.6 289.15 156.85 286.75 158.25 279.8 158.7 L278.2 162.55 Q275.45 168.7 274.05 168.7 L273.05 168.5 272.95 167.95 Q273.15 166.15 271.25 162.0 L269.75 158.55 Q267.1 158.2 265.9 157.0 L264.45 155.35 Q263.6 154.45 262.7 153.95 L262.45 153.7 260.3 156.65 Q260.0 157.65 258.95 158.05 255.05 158.25 252.5 152.25 L252.05 151.2 Q250.3 146.95 250.3 143.5 L250.35 141.7 Q250.5 140.65 251.4 140.1 252.25 140.85 253.7 141.4 256.5 142.65 260.55 142.65 269.65 142.65 274.4 137.95 277.95 134.45 277.95 130.2 277.95 129.35 276.35 122.45 L276.15 121.8 275.5 118.5 275.85 110.95 Q276.2 99.7 277.7 93.85 M250.65 76.7 L251.05 76.65 251.05 77.55 250.0 77.5 248.15 77.8 248.3 77.7 248.45 77.7 248.4 77.65 250.2 76.65 250.65 76.7 M334.75 105.95 L334.85 106.45 334.9 106.6 333.0 106.65 334.75 105.95 M341.9 104.05 L342.3 104.0 344.6 104.45 343.2 104.95 341.9 104.05 M338.35 79.9 L338.55 79.9 338.55 82.2 Q337.85 81.15 337.85 80.55 337.85 79.8 338.15 79.8 L338.35 79.9 M369.6 -3.6 Q371.2 -8.1 375.85 -7.4 378.6 -6.85 382.7 -4.15 386.9 -1.45 388.6 0.85 L396.45 11.85 403.95 22.35 Q409.05 29.05 411.75 42.2 413.6 51.55 414.5 65.8 L415.05 76.8 415.55 84.7 415.85 87.7 Q416.55 94.95 416.6 109.6 L416.1 127.35 Q415.85 134.0 417.55 137.4 419.35 141.15 419.35 145.15 419.35 148.3 418.8 149.75 417.7 152.7 416.9 156.55 L416.6 159.4 Q416.45 161.25 416.1 162.25 L413.95 168.05 411.85 173.75 Q410.65 176.8 408.95 179.6 404.9 186.5 403.4 191.1 L402.5 194.05 401.15 196.95 Q400.65 197.85 398.55 199.7 L395.8 202.0 Q394.2 203.25 390.9 207.25 387.6 211.2 385.4 212.9 380.35 216.8 372.65 221.2 L356.95 229.85 Q358.95 232.2 353.45 235.3 350.4 237.05 344.2 239.8 L336.5 244.15 332.4 247.35 Q329.6 249.3 327.35 249.3 326.65 249.3 325.15 249.8 L323.0 250.3 321.0 250.5 320.95 250.55 Q319.45 252.55 317.45 252.55 316.05 252.55 316.3 252.15 L316.3 250.95 Q319.3 249.6 320.95 245.4 322.2 242.15 322.2 238.9 322.2 231.15 315.9 226.15 309.45 221.0 299.0 221.0 L284.7 221.25 Q276.55 221.25 272.0 220.1 268.7 219.25 265.55 216.9 L261.95 213.8 Q259.05 210.6 259.05 207.5 259.05 206.7 259.3 206.5 L259.45 206.3 259.35 206.1 259.65 206.2 259.9 206.0 260.45 206.1 260.4 206.25 260.55 206.25 260.5 207.2 261.0 207.2 Q260.8 208.1 260.95 208.6 L261.5 209.35 Q262.6 209.9 265.9 210.35 L270.3 210.8 270.05 210.7 270.0 210.7 269.85 210.6 268.0 209.9 266.25 209.2 Q263.2 208.1 262.45 207.4 L262.6 207.15 263.7 207.2 263.7 207.15 Q266.1 206.8 274.05 208.75 L274.8 208.55 277.0 208.3 280.7 208.35 282.65 207.65 286.3 207.0 291.8 205.75 Q295.05 204.45 298.7 203.4 L301.5 202.5 302.5 201.95 Q302.5 201.7 302.95 201.35 L304.4 201.25 305.45 201.35 Q305.45 200.85 307.15 200.1 L311.75 197.1 311.75 197.0 Q312.45 196.35 313.55 195.7 L314.95 194.6 315.8 194.8 316.3 194.7 316.45 194.95 316.45 195.35 316.6 195.55 Q317.05 196.3 317.1 197.1 326.0 195.5 330.0 188.25 333.15 179.6 335.3 176.4 L343.75 164.2 352.0 152.5 Q361.8 138.5 366.4 130.45 375.65 114.35 375.65 105.25 375.65 100.25 373.75 97.15 371.25 92.8 365.2 92.8 363.35 92.8 360.1 94.95 L357.35 97.0 357.05 96.8 Q356.1 96.25 355.0 96.3 L352.55 96.2 351.8 96.0 Q351.6 93.7 350.65 91.9 L350.95 91.25 Q351.65 90.1 352.0 88.75 L352.2 86.5 Q352.1 85.2 351.25 84.25 L350.65 83.75 Q353.2 81.7 353.45 80.15 354.1 76.5 360.65 69.85 366.9 63.5 366.9 61.1 366.9 58.25 363.7 57.75 361.75 57.45 356.65 57.65 351.9 57.5 349.6 55.65 346.35 53.15 346.35 46.85 346.35 46.3 348.8 41.6 351.2 37.0 352.0 36.1 L358.0 30.15 Q361.75 26.45 362.65 24.9 365.2 20.25 366.6 14.0 L368.45 3.05 369.6 -3.6 M288.15 69.1 L284.9 70.25 Q285.0 70.15 285.05 70.15 286.4 69.4 288.15 69.1 M265.7 212.15 L265.45 212.05 265.7 212.25 265.45 212.75 265.9 212.15 265.7 212.15 M289.3 212.4 L290.7 212.0 290.45 212.0 287.45 211.95 289.3 212.4 M318.75 197.1 L317.1 197.3 316.75 198.05 318.75 197.1 M267.3 195.15 L266.85 196.05 270.0 196.7 278.1 197.8 Q286.0 197.8 297.5 195.5 L298.45 195.35 294.8 193.35 Q290.9 191.1 290.2 191.1 272.3 191.1 268.7 193.25 267.75 193.9 267.3 195.15 M262.2 196.85 L262.95 196.05 Q263.55 195.5 264.05 195.5 L264.85 195.65 264.85 195.35 Q264.85 193.7 267.1 191.55 269.45 189.35 271.0 189.35 L272.55 189.45 273.65 189.55 278.25 189.45 279.95 188.9 285.9 188.0 290.3 187.75 Q293.9 188.5 297.05 191.0 L301.65 194.7 301.45 194.9 Q306.0 194.45 307.55 195.55 L307.35 196.0 306.3 196.05 Q305.1 196.05 304.0 196.5 302.05 197.15 298.7 197.8 L291.05 198.8 290.45 199.15 288.65 199.1 287.7 199.15 282.8 199.65 Q279.35 200.85 271.45 200.85 270.1 200.85 268.95 200.2 L270.05 199.8 267.3 199.45 Q263.45 198.8 262.2 196.85 M267.85 154.4 L267.85 154.3 267.55 154.45 266.35 154.85 266.9 154.9 267.3 154.85 267.85 154.4 M249.85 101.65 L250.1 101.75 248.95 102.65 249.85 101.65 M233.5 78.0 L233.05 78.2 232.75 78.1 233.5 78.0 M210.8 96.45 L210.75 97.75 210.8 99.25 210.95 100.2 Q209.25 98.95 209.15 97.85 L210.8 96.45 M306.55 85.45 L306.55 85.5 306.9 84.7 Q308.1 82.85 310.65 82.3 L310.35 83.05 306.55 85.45" fill="#000000" fill-rule="evenodd" stroke="none"/>
    <path d="M386.1 205.75 L386.05 206.05 Q382.2 209.7 375.25 215.0 L374.5 215.55 380.05 210.9 386.1 205.75 M349.25 233.1 L344.2 236.7 326.8 248.15 Q316.25 255.0 314.55 257.1 L313.8 256.7 311.5 256.3 Q308.05 256.3 308.05 259.0 308.05 261.05 311.3 267.8 315.0 275.45 317.7 275.45 322.9 275.45 334.6 268.05 340.2 266.4 347.95 262.05 343.8 266.9 343.8 267.7 343.8 268.65 345.4 269.55 347.4 270.65 347.9 271.35 348.35 271.85 348.0 273.55 L347.5 275.45 347.6 276.25 346.9 276.65 347.5 277.6 348.1 277.35 348.55 277.8 Q349.0 278.2 349.6 278.4 338.6 284.35 335.8 290.1 L335.4 291.0 335.35 291.3 Q335.2 294.45 334.3 297.3 L334.3 299.3 Q335.35 305.6 335.35 310.75 L335.35 316.1 Q334.9 318.95 333.5 320.25 L333.5 320.7 333.4 322.3 333.3 322.8 331.9 323.4 329.8 323.55 328.65 322.6 327.15 321.05 Q326.35 322.2 325.7 322.2 325.6 322.8 325.85 325.35 325.35 327.7 321.0 327.7 318.45 327.7 316.3 324.05 L314.0 319.65 314.05 324.0 Q313.6 327.7 310.3 327.7 L308.75 327.4 308.25 327.1 Q308.5 322.95 307.8 317.1 307.6 315.55 306.0 311.85 304.55 308.35 304.55 306.85 L304.75 305.25 Q305.25 303.8 307.0 303.8 308.5 303.8 310.6 306.5 L313.35 310.25 313.6 310.1 307.9 302.35 Q304.35 297.4 304.35 293.9 304.35 292.8 305.25 289.95 306.45 286.05 308.05 285.45 307.6 284.7 307.45 283.55 307.35 282.4 307.6 281.5 L309.2 281.6 Q306.4 275.9 303.75 269.8 300.65 262.5 300.65 261.65 300.65 258.4 302.85 256.5 304.6 255.05 309.2 253.6 L319.4 250.5 322.15 249.5 Q327.3 245.55 339.15 238.9 L349.25 233.1 M360.7 273.2 L357.7 274.45 Q359.95 272.35 360.65 271.95 L360.7 273.2" fill="#000000" fill-opacity="0.39215687" fill-rule="evenodd" stroke="none"/>
    <path d="M386.1 205.75 Q387.2 196.4 387.2 189.05 387.2 176.15 384.75 160.0 382.55 145.4 378.75 130.7 L374.95 115.65 Q372.5 107.1 369.1 101.35 L358.3 84.7 358.2 84.5 Q350.4 72.6 350.4 71.7 350.4 70.5 350.85 70.5 L352.25 70.45 Q358.9 76.8 364.2 84.7 369.6 92.75 373.55 102.35 L379.7 118.65 Q383.4 128.9 386.35 135.2 392.65 148.55 396.95 168.1 L400.95 187.85 401.45 187.3 401.35 186.85 402.0 186.7 404.45 183.5 407.4 180.25 Q406.4 167.85 402.2 154.65 397.4 139.55 387.4 120.5 375.4 97.3 368.45 86.5 L367.3 84.7 362.2 77.8 Q357.7 71.95 356.15 69.45 353.6 65.3 349.0 60.6 343.7 55.2 340.5 54.4 L340.5 53.8 Q345.05 53.1 354.8 64.8 358.85 69.75 369.55 84.7 L369.7 84.9 Q374.8 92.1 380.5 102.4 L389.45 119.55 Q400.05 140.65 404.5 154.3 408.5 166.45 409.65 178.15 L410.15 177.75 Q414.5 174.45 414.5 180.25 L413.8 185.05 Q415.55 184.15 415.55 188.6 L414.05 194.15 Q412.9 198.05 414.1 199.75 L414.05 200.9 414.15 200.95 414.6 201.8 416.8 198.4 Q417.65 198.4 418.0 198.75 418.45 199.15 418.45 200.55 L415.15 206.5 412.55 211.05 412.45 211.5 411.4 215.1 Q413.8 215.4 414.2 216.8 414.5 217.7 414.3 219.3 417.4 217.45 419.0 219.75 L419.95 221.35 417.85 221.05 Q414.25 221.6 410.8 226.55 L407.4 231.3 Q404.75 234.85 402.8 236.5 L392.0 246.45 Q388.35 249.45 385.45 251.25 L387.35 249.4 Q394.1 242.85 400.95 235.3 L406.7 228.8 Q406.7 228.0 403.2 226.15 399.9 224.4 399.1 224.4 397.85 224.4 396.85 225.2 L395.8 226.15 Q395.75 224.0 395.1 222.85 405.7 214.3 405.7 212.85 L405.65 211.4 405.5 210.5 Q403.2 209.2 396.7 213.55 L395.8 214.2 Q399.0 211.35 399.95 209.15 396.55 207.95 387.55 214.0 L373.2 224.0 359.85 234.95 349.35 243.35 349.55 243.95 Q352.65 243.5 358.6 239.2 L368.45 232.0 368.65 232.2 368.7 233.2 368.8 233.7 369.45 234.1 369.1 234.35 348.0 248.2 342.7 251.7 324.5 258.8 324.0 256.05 Q323.3 253.75 320.55 253.75 317.75 253.75 317.1 255.4 L315.85 258.45 Q315.4 257.6 314.55 257.1 316.25 255.0 326.8 248.15 L344.2 236.7 349.25 233.1 359.85 225.9 374.5 215.55 375.25 215.0 Q382.2 209.7 386.05 206.05 L386.1 205.75 M421.25 223.5 L423.9 221.75 Q425.5 220.85 426.25 220.85 427.7 220.85 428.7 222.15 L429.75 224.0 431.4 220.9 Q432.5 219.1 435.3 219.1 438.8 219.1 438.8 223.2 438.8 228.3 428.65 244.45 L417.8 261.0 Q422.8 255.65 427.2 251.6 435.75 243.75 440.2 243.75 441.6 243.75 442.5 244.75 443.3 245.65 443.3 246.75 443.3 254.25 436.95 263.85 L424.6 281.15 418.0 289.95 Q413.5 295.6 412.05 298.15 409.5 302.5 403.35 309.2 397.25 315.75 395.95 315.75 L394.5 315.5 394.6 315.15 394.6 314.6 416.6 283.8 Q429.75 265.3 436.3 252.95 L418.25 271.0 Q404.8 283.65 400.75 283.65 398.8 283.65 397.85 282.1 397.25 281.15 397.25 280.05 400.75 277.35 404.85 271.95 408.0 267.95 414.5 257.25 416.65 253.85 420.45 245.85 425.4 235.25 425.4 231.45 425.4 227.15 422.15 227.15 420.75 227.15 419.6 228.2 421.3 225.7 421.3 224.45 L421.25 223.5 M392.85 282.4 Q389.75 285.05 387.4 285.05 L386.4 284.9 386.95 284.2 387.25 282.6 Q387.5 281.6 388.4 280.95 L389.1 281.95 Q389.65 282.7 390.9 282.7 L392.85 282.4 M379.55 283.55 Q377.7 285.05 376.7 285.05 375.25 285.05 374.45 281.7 374.45 279.9 376.05 277.6 376.45 278.0 376.7 278.0 378.8 278.0 381.9 275.9 L385.1 273.5 382.15 277.9 Q379.35 282.1 379.35 282.55 L379.55 283.55 M377.35 270.1 L377.3 269.65 Q377.3 269.4 378.25 267.9 L373.8 271.15 373.35 270.35 372.4 270.75 371.4 270.7 377.0 266.45 389.05 256.65 381.25 265.4 377.35 270.1 M399.3 189.55 L399.9 189.0 Q397.6 173.9 394.15 160.7 388.45 139.4 379.15 121.1 382.2 129.85 385.85 152.9 389.65 176.65 389.65 188.85 389.65 196.4 389.05 203.0 392.55 199.1 395.2 194.65 396.7 192.15 399.3 189.55 M353.25 73.75 L353.05 73.55 359.3 84.0 359.7 84.7 Q363.8 91.2 366.4 94.3 L360.5 84.7 353.25 73.75 M334.6 268.05 L334.9 267.85 338.8 265.3 Q341.9 264.45 349.95 259.8 L347.95 262.05 Q340.2 266.4 334.6 268.05 M347.6 276.25 L348.1 277.35 347.5 277.6 346.9 276.65 347.6 276.25" fill="#000000" fill-opacity="0.57254905" fill-rule="evenodd" stroke="none"/>
    <path d="M236.9 129.9 L241.35 137.9 Q242.8 135.55 244.3 133.8 L250.75 125.85 Q249.85 122.1 249.85 120.9 L249.95 119.6 250.05 119.75 Q251.0 121.25 251.9 124.3 255.25 119.8 256.65 117.4 L257.25 117.6 252.25 125.6 253.2 129.5 255.6 140.45 254.8 140.3 252.1 131.1 251.1 127.35 245.8 135.45 242.65 140.25 244.15 143.0 Q248.6 151.6 250.65 157.7 L249.85 157.5 Q247.75 152.35 243.15 143.15 L242.1 141.05 Q237.8 148.0 236.3 152.2 L234.65 156.95 237.25 160.35 Q243.65 168.8 248.15 175.6 L235.85 160.8 234.1 158.7 Q232.45 164.05 231.1 169.9 229.35 177.25 227.65 187.4 L226.8 187.6 226.6 182.2 Q226.6 179.1 230.7 164.75 L232.8 157.15 Q227.1 149.8 225.4 145.55 L233.35 155.3 Q234.65 151.05 235.05 150.25 L238.9 142.15 240.9 138.6 236.9 129.9" fill="#000000" fill-opacity="0.23137255" fill-rule="evenodd" stroke="none"/>
    <path d="M314.55 257.1 Q315.4 257.6 315.85 258.45 L317.1 255.4 Q317.75 253.75 320.55 253.75 323.3 253.75 324.0 256.05 L324.5 258.8 342.7 251.7 348.0 248.2 369.1 234.35 369.45 234.1 368.8 233.7 368.7 233.2 368.65 232.2 368.45 232.0 358.6 239.2 Q352.65 243.5 349.55 243.95 L349.35 243.35 359.85 234.95 373.2 224.0 387.55 214.0 Q396.55 207.95 399.95 209.15 399.0 211.35 395.8 214.2 L396.7 213.55 Q403.2 209.2 405.5 210.5 L405.65 211.4 405.7 212.85 Q405.7 214.3 395.1 222.85 395.75 224.0 395.8 226.15 L396.85 225.2 Q397.85 224.4 399.1 224.4 399.9 224.4 403.2 226.15 406.7 228.0 406.7 228.8 L400.95 235.3 Q394.1 242.85 387.35 249.4 L385.45 251.25 Q388.35 249.45 392.0 246.45 L402.8 236.5 Q404.75 234.85 407.4 231.3 L410.8 226.55 Q414.25 221.6 417.85 221.05 L419.95 221.35 Q421.0 221.9 421.25 223.5 L421.3 224.45 Q421.3 225.7 419.6 228.2 420.75 227.15 422.15 227.15 425.4 227.15 425.4 231.45 425.4 235.25 420.45 245.85 416.65 253.85 414.5 257.25 408.0 267.95 404.85 271.95 400.75 277.35 397.25 280.05 394.9 281.8 392.85 282.4 L390.9 282.7 Q389.65 282.7 389.1 281.95 L388.4 280.95 Q387.5 281.6 387.25 282.6 L386.95 284.2 386.4 284.9 Q385.15 285.8 381.65 285.8 381.0 285.8 380.2 284.7 L379.55 283.55 379.35 282.55 Q379.35 282.1 382.15 277.9 L385.1 273.5 381.9 275.9 Q378.8 278.0 376.7 278.0 376.45 278.0 376.05 277.6 L375.45 277.0 Q374.45 275.9 374.45 274.95 374.45 273.8 377.35 270.1 L381.25 265.4 389.05 256.65 377.0 266.45 371.4 270.7 Q364.75 275.45 362.7 275.45 361.35 275.45 360.9 274.1 L360.7 273.2 360.65 271.95 Q359.95 272.35 357.7 274.45 L356.4 275.65 Q352.95 278.6 351.0 278.6 L349.6 278.4 Q349.0 278.2 348.55 277.8 L348.1 277.35 347.6 276.25 347.5 275.45 348.0 273.55 Q348.35 271.85 347.9 271.35 347.4 270.65 345.4 269.55 343.8 268.65 343.8 267.7 343.8 266.9 347.95 262.05 L349.95 259.8 Q341.9 264.45 338.8 265.3 L334.9 267.85 334.6 268.05 Q322.9 275.45 317.7 275.45 315.0 275.45 311.3 267.8 308.05 261.05 308.05 259.0 308.05 256.3 311.5 256.3 L313.8 256.7 314.55 257.1" fill="#000000" fill-opacity="0.5803922" fill-rule="evenodd" stroke="none"/>
    <path d="M356.4 59.85 Q351.65 58.75 346.45 58.75 338.4 58.75 332.2 60.9 328.45 62.15 322.4 65.55 316.45 68.9 312.55 70.25 306.25 72.4 298.1 72.4 L297.25 72.3 296.05 72.4 Q295.15 72.4 294.45 71.7 294.2 71.65 293.9 71.45 L293.45 70.85 293.3 70.55 Q293.3 70.15 293.55 70.05 L293.7 70.05 293.7 69.6 296.45 66.55 296.95 65.9 297.95 64.2 300.15 62.3 301.45 62.15 301.25 62.4 302.55 62.0 Q315.45 59.35 321.65 55.8 L324.1 54.3 Q325.7 53.4 327.85 52.75 330.1 51.8 334.9 51.75 L341.5 52.25 347.4 53.6 353.9 55.15 Q356.65 55.8 359.25 56.95 L364.85 59.15 Q367.75 60.5 367.8 60.95 L367.3 61.3 367.7 61.6 365.4 62.05 Q365.2 62.2 365.2 61.8 L356.4 59.85 M360.9 59.15 L360.7 59.35 362.9 59.9 360.9 59.15 M303.25 195.25 L303.25 195.3 303.3 195.3 303.25 195.25 M265.9 195.75 L266.1 195.75 266.1 195.5 265.9 195.75 M267.2 190.8 L267.85 189.55 Q268.7 188.9 271.25 188.95 L281.8 189.0 283.95 188.7 285.25 188.2 291.5 187.65 Q294.15 188.75 305.15 195.35 L305.7 195.5 305.4 195.85 305.0 196.35 303.95 196.15 303.9 196.15 277.9 198.55 268.3 197.65 266.1 197.45 265.9 197.45 264.55 197.45 264.05 196.35 264.15 196.25 264.3 196.25 264.2 196.0 267.2 190.8 M268.7 190.75 L268.55 191.15 267.3 193.05 266.95 193.9 Q266.85 194.7 267.05 196.15 L272.0 196.7 278.85 197.3 285.65 196.5 292.0 195.65 301.45 195.35 300.85 194.85 301.1 194.3 301.45 194.25 290.9 188.7 286.45 189.45 277.0 190.3 269.5 190.2 Q268.75 190.45 268.7 190.75 M255.05 194.25 L255.2 194.4 Q254.7 194.8 254.7 195.5 254.7 196.25 255.0 197.1 L257.25 199.8 259.75 202.7 Q261.05 204.6 261.55 205.85 261.8 206.65 262.55 207.55 L263.15 208.1 263.25 208.0 Q266.65 210.25 273.15 211.9 L275.35 212.15 280.65 212.95 282.7 213.0 282.9 213.0 283.2 213.0 Q287.3 212.9 291.85 211.45 297.15 209.6 304.45 205.5 L309.95 201.95 310.25 201.6 313.55 199.2 Q314.65 198.4 315.25 198.2 L317.25 196.75 317.25 196.7 Q317.85 196.25 317.85 195.55 L317.65 195.0 309.75 191.3 302.25 187.4 294.65 183.65 293.25 183.0 Q290.9 181.85 289.2 181.25 L286.5 180.45 Q285.9 180.45 281.55 182.3 277.2 184.1 271.85 184.1 L268.15 183.4 265.45 182.7 Q262.6 182.7 259.25 186.85 256.45 190.3 255.05 194.25 M252.95 192.95 L252.95 192.7 Q252.95 190.9 257.55 185.85 262.6 180.35 265.9 180.35 L269.6 180.9 274.6 181.5 Q279.2 181.5 282.05 179.8 284.7 178.15 287.2 178.3 L290.2 178.55 290.6 178.95 290.7 178.95 297.45 182.05 305.75 186.1 Q310.6 188.65 312.7 190.1 L316.55 192.55 316.6 192.65 317.1 192.7 317.65 192.5 318.25 192.95 318.9 193.0 Q320.05 193.35 320.1 194.85 L320.3 195.5 320.0 196.35 319.85 196.85 319.25 197.4 317.15 199.1 Q316.7 199.35 316.25 199.7 L313.75 201.7 310.7 203.8 308.0 205.3 305.75 206.85 Q299.25 210.1 294.6 213.15 L294.15 213.3 293.0 213.95 Q290.75 215.1 287.7 215.3 L288.3 215.55 282.2 215.25 274.55 214.5 267.2 213.0 265.2 212.25 Q264.45 212.0 263.7 211.45 L263.75 211.3 263.45 211.15 Q262.7 211.15 261.15 209.0 260.1 207.85 259.7 206.9 L258.3 205.75 256.8 203.7 255.95 202.0 252.95 198.7 252.5 198.2 Q251.8 198.1 251.65 197.5 L251.65 196.95 251.65 196.7 251.75 196.35 251.75 196.25 251.65 195.35 251.75 195.15 251.8 194.65 252.2 194.25 252.95 192.95 M278.1 151.4 Q274.25 150.15 274.25 149.2 274.25 145.0 281.3 148.65 288.45 152.15 288.45 153.8 288.45 155.1 287.45 154.5 L278.1 151.4 M300.2 140.45 L301.8 143.0 Q303.9 146.2 303.9 149.65 303.9 155.3 298.8 155.3 297.5 155.3 296.05 153.7 L294.9 152.0 295.2 151.8 296.7 153.0 Q298.0 153.85 299.2 153.95 301.05 152.3 301.55 151.1 301.75 150.55 301.75 148.8 301.75 145.2 299.25 142.1 296.95 139.3 291.15 135.4 L291.2 135.4 Q293.05 135.5 294.75 136.2 L295.8 136.7 295.8 136.65 296.55 137.15 Q298.55 138.35 300.2 140.45 M220.55 95.55 L220.55 94.8 220.1 95.85 220.45 96.3 220.55 96.45 220.55 95.55 M305.85 92.25 L305.95 92.4 Q305.5 90.85 305.5 89.0 305.5 87.35 306.2 86.05 L305.55 86.7 305.05 87.4 304.1 89.0 Q303.95 89.4 303.95 89.75 303.95 91.4 305.85 92.25 M316.45 74.45 L315.95 74.4 315.25 74.65 316.45 74.45 M322.4 75.35 L322.85 75.3 322.55 75.3 322.4 75.3 322.4 75.35 M302.8 91.0 L302.95 91.05 302.9 90.95 302.8 91.0 M295.9 70.4 L295.8 70.5 296.05 70.55 295.9 70.4 M281.2 91.7 L281.0 91.7 280.95 92.1 281.2 91.7 M281.2 89.3 L281.05 89.0 280.95 88.7 Q281.45 88.85 282.0 89.4 L282.55 90.3 282.25 91.0 281.75 91.5 281.05 93.6 281.2 93.65 280.95 94.05 Q278.8 100.3 277.9 103.5 L277.8 103.8 Q277.25 106.9 277.05 109.9 L277.0 114.7 277.0 115.75 277.0 117.3 277.05 119.95 277.45 122.4 Q278.1 126.7 278.1 129.15 L278.3 130.25 Q278.3 130.95 278.1 130.75 L277.25 130.75 277.05 130.65 277.05 130.5 277.0 130.5 276.65 127.35 276.15 122.55 276.0 121.0 Q275.55 117.6 275.55 115.8 L276.0 109.5 276.0 109.05 276.45 104.7 276.45 104.5 Q276.45 102.35 277.5 99.05 L278.2 97.1 Q279.35 93.4 281.2 89.3 M253.55 95.5 L254.25 94.6 254.75 94.05 254.25 93.2 254.2 93.15 253.45 92.5 253.45 93.35 Q253.45 94.6 252.85 95.85 L253.55 95.5 M250.05 90.75 L248.15 89.25 245.8 87.9 245.8 87.85 245.55 87.75 Q243.85 86.9 241.95 86.25 234.75 83.7 231.65 85.95 225.95 86.7 223.55 90.1 L221.7 93.05 221.65 93.15 Q221.35 94.4 221.35 95.55 221.35 96.2 222.1 97.6 L222.15 97.65 225.0 99.35 225.25 99.6 230.65 101.75 232.6 102.0 Q243.55 102.25 248.55 99.15 L250.2 97.95 252.15 95.2 Q252.55 94.25 252.6 92.85 L252.6 91.9 250.0 89.9 250.05 90.75 M253.6 83.2 L254.3 83.15 254.9 83.1 Q255.75 83.1 255.75 83.8 L255.65 84.15 255.25 84.3 255.05 84.3 254.9 84.55 254.35 84.7 253.7 84.85 253.25 85.05 252.95 85.2 252.95 85.25 Q254.8 86.15 256.6 87.7 259.9 90.45 260.95 92.3 261.3 90.35 261.9 88.85 262.6 88.85 262.85 89.15 L261.25 102.6 Q260.1 110.6 258.8 116.0 L254.35 131.1 Q250.85 142.5 250.85 143.3 L250.85 143.5 250.9 143.5 250.85 143.7 250.95 146.65 251.0 147.0 252.2 147.85 253.2 148.25 256.0 147.6 261.7 147.3 265.2 147.7 266.0 147.9 267.7 148.25 267.95 148.55 269.2 149.35 269.1 149.5 269.05 149.5 268.95 149.7 264.45 149.0 260.35 148.55 259.0 148.75 259.0 148.8 256.9 149.2 256.65 149.25 253.05 149.85 253.0 149.85 252.85 149.9 256.1 153.05 258.8 155.6 261.55 154.4 Q263.25 153.5 265.05 153.45 L265.7 153.25 Q266.15 153.2 266.75 153.6 267.55 153.05 268.0 153.8 L268.5 155.1 Q268.85 156.55 270.1 157.2 L271.25 157.85 271.25 158.25 271.0 158.35 269.75 158.45 Q269.1 158.45 267.8 156.8 L267.75 156.65 267.4 156.35 Q266.6 155.6 265.9 155.6 265.3 155.6 262.7 156.85 260.05 158.05 257.3 158.05 L255.25 155.8 250.85 151.4 Q249.1 149.9 248.75 147.6 L248.7 143.25 Q248.7 140.35 252.75 128.05 L256.95 116.15 258.75 107.6 258.45 107.45 258.3 107.2 Q258.4 105.5 257.75 102.55 L256.7 98.2 253.05 98.45 252.85 98.45 251.35 99.6 Q244.85 104.0 234.45 104.0 L228.0 103.6 Q228.0 103.95 227.95 103.6 L222.05 100.4 Q218.8 98.45 217.3 97.9 L216.5 97.7 215.8 97.6 211.1 97.6 211.0 97.45 210.95 96.95 210.95 96.75 Q210.35 96.3 210.35 95.9 L210.35 95.7 213.35 94.95 213.7 94.45 Q214.25 93.8 214.25 93.15 L214.25 92.7 212.05 92.8 Q210.95 92.3 210.95 91.6 L211.05 91.15 211.25 91.0 214.85 90.65 Q215.5 89.4 216.8 88.3 L216.95 88.1 217.1 87.95 216.8 87.75 214.75 87.85 212.0 87.55 Q210.8 87.05 210.8 86.5 L210.85 86.1 210.85 86.2 211.1 85.95 211.8 85.8 217.1 85.55 220.1 84.7 221.95 83.8 222.35 83.45 222.25 82.95 Q222.85 82.2 224.55 81.85 L224.7 81.7 225.3 81.55 Q225.6 81.3 225.9 81.2 L233.3 80.8 239.75 81.2 Q240.7 81.1 242.45 81.7 L242.75 81.8 247.05 82.65 250.4 83.6 251.95 83.7 253.6 83.2 M244.45 72.85 L248.95 73.7 251.1 74.2 255.5 74.35 255.65 74.4 255.65 74.8 255.35 75.35 254.8 75.95 Q253.6 77.0 251.2 77.8 248.55 78.6 245.3 78.85 L239.95 79.25 Q232.85 79.25 224.2 75.9 222.3 75.25 214.25 74.1 L208.25 74.1 206.7 74.1 205.75 74.8 Q205.3 72.65 202.55 72.55 L201.45 72.65 Q201.95 71.55 203.3 70.4 L204.1 69.8 Q206.05 67.5 210.95 66.75 L212.7 66.0 Q215.25 65.05 217.2 64.9 L224.5 65.7 Q226.25 66.5 228.2 67.1 L232.45 68.8 Q235.35 70.15 237.2 70.55 L244.45 72.85 M418.7 222.95 Q417.3 226.5 415.15 233.5 412.7 239.5 407.9 243.7 399.05 251.45 392.9 264.5 L388.05 274.8 Q385.05 280.65 381.5 284.9 L390.2 264.05 Q394.2 254.6 405.6 242.95 413.35 234.85 416.95 222.25 419.85 207.75 421.4 201.05 423.05 201.6 423.05 202.5 423.05 204.1 421.45 211.95 419.8 220.35 418.7 222.95 M425.3 161.4 L425.8 161.4 Q423.95 192.45 437.0 226.8 439.05 232.2 453.05 264.25 463.65 288.5 463.65 292.35 L463.55 293.35 463.15 293.65 Q459.25 283.3 451.1 264.8 441.6 243.65 438.3 235.45 424.05 200.3 424.05 175.8 424.6 164.2 425.3 161.4 M418.55 146.2 L419.35 141.55 419.8 141.55 420.05 144.65 419.8 148.55 419.6 150.2 418.9 154.95 417.2 162.4 417.05 163.1 Q417.05 163.9 412.7 174.05 L406.4 188.3 Q403.4 194.7 398.0 201.25 392.05 208.45 384.6 214.05 L367.25 226.8 Q357.4 233.8 348.35 239.4 L331.2 249.6 Q323.65 253.75 317.2 255.65 311.2 257.5 301.25 258.4 303.2 262.4 306.0 269.9 L306.2 269.2 306.65 269.2 308.15 274.85 Q311.0 280.7 314.4 284.9 318.45 289.85 323.1 297.95 328.9 308.0 328.9 312.65 328.9 313.9 328.6 314.2 L327.65 314.2 Q319.8 295.5 312.65 286.1 310.8 283.65 309.2 280.85 L309.2 281.3 309.45 292.1 309.25 297.3 308.65 304.3 307.9 311.0 Q306.75 316.25 303.4 316.35 L303.5 316.05 Q306.65 305.65 307.1 302.9 307.55 299.95 307.55 292.0 307.55 286.7 306.65 278.85 L306.15 274.55 305.25 272.3 Q304.15 269.25 299.25 258.65 L280.45 259.3 280.2 259.35 280.05 259.3 278.3 259.3 Q276.1 259.3 274.25 257.9 L273.45 257.2 273.1 257.2 271.95 256.2 270.9 255.65 269.0 254.45 267.45 252.9 266.75 252.15 266.05 251.25 Q263.15 247.8 258.8 241.5 250.4 229.3 247.05 222.45 L245.7 220.1 Q232.55 197.9 224.5 178.55 L214.45 155.3 Q206.45 136.2 206.45 126.95 206.45 123.85 207.25 119.95 L207.15 117.4 206.95 112.3 207.15 102.9 207.15 102.2 207.3 101.4 207.0 97.45 Q206.8 93.6 204.6 87.65 L203.55 84.7 202.5 81.9 201.65 80.75 201.3 79.75 201.1 79.65 201.0 78.85 200.9 78.45 Q201.55 78.85 202.55 78.85 203.8 78.85 204.6 78.15 204.8 79.6 205.75 81.45 L207.45 84.7 208.05 85.8 Q208.5 86.75 209.2 90.35 L209.75 93.3 209.85 93.3 209.9 94.05 209.85 94.15 209.9 94.4 209.8 95.0 209.7 95.15 209.6 95.8 209.6 95.95 209.35 98.2 210.1 107.2 209.85 107.9 Q209.65 108.65 209.65 112.05 209.65 116.15 209.95 118.9 L209.55 121.2 209.5 121.8 209.35 122.35 Q208.9 125.2 208.9 126.95 208.9 134.8 217.25 155.2 L224.0 172.0 226.75 177.15 231.75 188.3 243.35 211.0 Q251.55 226.75 263.9 242.9 L269.25 249.95 Q270.7 250.8 273.8 253.2 L277.7 256.2 283.5 256.5 Q296.7 256.5 305.1 255.15 314.9 253.55 324.6 249.25 341.4 241.85 381.65 212.75 395.95 202.4 403.85 187.05 405.7 183.6 409.8 174.2 L410.45 172.7 411.65 168.55 Q412.65 165.1 413.45 163.9 L416.35 155.9 417.55 151.85 417.6 151.45 417.65 151.3 417.7 150.7 417.75 150.55 418.15 147.6 418.55 146.2 M348.3 85.05 L347.2 84.7 346.6 84.5 346.6 84.7 346.25 85.95 348.3 85.05 M338.05 79.4 L338.2 79.8 338.35 80.3 338.0 80.25 Q337.2 79.65 335.85 79.15 332.35 77.85 327.55 77.4 L319.3 77.85 Q317.3 78.4 316.4 79.3 L315.25 79.55 309.9 82.75 Q309.8 82.75 309.75 82.85 L308.15 84.15 308.25 84.3 308.05 84.7 307.15 86.0 Q306.15 87.55 306.15 89.05 306.15 90.45 306.9 92.7 L306.9 92.8 309.15 94.25 Q314.1 95.8 320.95 95.8 333.85 95.8 341.1 90.1 L344.7 87.1 Q345.45 85.95 345.65 84.7 L345.75 84.05 344.45 83.25 341.4 81.05 339.25 79.8 338.95 79.65 338.05 79.4 M348.25 73.0 L348.1 73.75 343.9 75.0 341.5 75.6 342.2 75.85 343.9 75.95 348.3 76.45 355.15 76.25 Q355.95 76.25 356.2 76.8 355.85 77.4 355.9 77.95 L352.5 78.25 347.65 78.0 350.9 79.75 351.1 79.85 357.7 81.95 357.6 82.75 355.95 82.85 354.75 82.75 354.85 83.3 354.95 83.35 354.85 83.45 354.85 83.55 354.6 84.7 354.35 85.4 353.75 86.25 351.25 86.3 350.6 86.3 Q347.45 87.25 345.1 89.0 L340.5 92.45 339.5 93.55 336.65 95.45 Q331.35 98.1 320.9 98.1 309.05 98.1 304.0 94.85 L302.4 93.7 300.65 93.15 300.4 93.2 300.3 93.1 300.25 93.05 299.6 94.3 Q298.95 95.7 298.4 96.05 L297.65 96.3 Q297.25 96.3 296.95 96.0 L296.95 96.05 296.25 95.95 295.9 96.05 295.45 96.0 295.5 95.8 295.8 94.85 295.8 94.8 Q295.8 94.05 296.25 93.65 297.15 91.2 297.65 90.45 299.2 87.65 301.65 84.8 L301.7 84.7 303.8 82.15 Q305.25 80.35 306.45 79.4 307.7 78.0 310.35 76.9 306.8 78.0 304.6 80.0 L301.7 83.1 Q300.4 84.4 298.55 84.3 L299.7 83.35 299.5 83.25 299.5 82.85 300.75 81.55 Q301.55 79.85 302.2 79.1 L303.3 76.8 Q305.45 75.05 309.0 74.05 312.7 73.0 316.3 73.2 L322.85 74.2 323.1 74.25 328.0 74.8 329.8 74.85 335.7 74.1 338.15 73.4 338.7 73.55 338.8 73.75 338.4 74.45 Q338.6 74.45 338.7 74.6 L340.9 74.1 348.25 73.0" fill="#000000" fill-rule="evenodd" stroke="none"/>
    <path d="M310.95 101.8 L309.0 99.75 310.9 101.95 310.95 101.8 M216.15 54.3 L215.8 54.15 218.0 55.55 216.5 54.45 216.15 54.3 M217.95 66.55 L217.95 66.6 218.05 66.7 217.95 66.55 M224.7 71.3 L224.7 71.2 Q224.0 71.0 224.9 71.8 225.75 72.65 226.35 72.7 L226.1 72.5 224.7 71.3 M283.95 78.4 L283.75 78.1 Q272.35 66.75 262.9 59.55 249.5 49.2 234.35 42.25 248.15 49.65 262.45 60.8 L283.95 78.4 M290.15 58.25 Q291.4 59.0 292.1 59.15 L291.8 58.9 288.95 57.55 290.15 58.25 M313.05 66.9 L306.3 62.2 Q297.8 56.1 291.55 53.1 280.5 47.7 273.9 44.7 L285.05 50.7 298.55 58.8 Q306.0 62.75 313.05 66.9 M248.7 70.95 L247.85 70.3 249.8 71.8 248.7 70.95 M247.7 66.55 L255.25 72.25 264.7 79.65 Q267.1 80.9 273.45 84.7 L278.25 87.65 Q291.85 95.95 291.85 97.15 291.85 97.6 291.15 98.4 L290.2 99.3 299.4 104.35 300.45 104.25 Q301.0 104.5 300.95 106.15 L299.9 106.4 291.95 102.8 291.25 102.85 291.05 102.85 292.1 103.55 Q296.4 106.65 296.4 106.85 296.4 108.1 295.55 107.1 L290.05 103.55 289.9 103.6 289.75 103.35 283.45 98.85 277.0 95.9 276.15 96.05 Q275.5 95.95 274.25 94.95 L273.0 94.1 270.25 92.8 267.75 91.65 267.3 91.7 Q278.25 101.45 286.7 110.5 L286.15 110.65 Q276.9 101.2 263.55 89.95 L262.7 89.2 Q256.8 86.1 256.8 84.9 L256.8 84.7 256.8 84.35 254.6 82.5 Q247.2 78.55 244.1 76.55 246.0 78.25 246.0 78.6 246.0 79.9 245.75 79.4 L244.65 79.65 Q244.2 79.65 243.0 78.85 L242.85 78.95 242.8 78.95 Q246.05 81.4 246.5 81.8 L246.1 82.2 247.05 82.85 249.85 84.7 252.75 86.45 251.1 86.55 248.35 84.7 244.8 82.5 244.2 82.45 247.55 84.7 271.0 100.75 Q258.65 93.35 245.6 84.7 L240.7 81.45 235.85 81.05 231.35 81.45 231.5 81.75 231.45 82.6 230.95 82.75 229.25 82.75 232.05 84.7 Q241.35 91.35 247.35 96.15 241.95 93.9 235.1 88.85 L229.4 84.7 227.3 83.2 226.55 83.35 226.3 83.2 226.05 83.55 Q225.95 84.15 225.6 84.15 L225.5 84.15 225.2 84.6 225.1 84.7 222.85 87.4 Q220.55 89.9 219.3 89.9 218.45 89.9 218.15 89.55 L217.95 88.85 Q218.25 87.65 217.95 87.4 L216.8 88.25 217.0 89.15 Q217.0 90.0 216.7 90.25 L215.8 90.5 Q215.05 90.3 214.05 89.2 L213.6 88.8 213.1 88.6 212.7 88.2 212.45 88.65 Q212.05 89.0 211.25 89.0 L209.35 87.75 208.35 87.95 208.25 87.85 207.0 88.1 205.85 87.8 205.65 87.2 207.0 86.1 205.05 84.7 Q190.85 74.8 190.85 73.55 190.85 72.75 191.5 72.45 L192.2 72.2 191.4 71.65 Q190.85 71.25 190.85 70.5 190.85 69.65 191.25 69.5 L192.1 69.25 194.1 69.9 189.9 67.25 Q187.05 65.4 187.05 64.55 187.05 63.7 187.45 63.45 187.45 63.4 188.35 63.1 L190.45 63.85 188.4 62.55 Q187.6 62.05 187.6 61.75 L187.65 61.0 187.8 61.2 Q189.1 60.5 189.85 60.55 190.05 60.6 190.05 59.85 190.05 58.45 187.35 56.65 L183.25 53.6 183.75 52.85 189.1 56.25 Q194.1 59.55 197.0 59.55 L197.65 59.35 193.7 55.55 192.5 54.6 192.5 54.3 Q191.6 53.3 191.6 53.0 191.6 52.2 192.1 52.1 L193.15 52.05 Q194.45 52.75 196.05 53.9 L197.05 54.2 196.55 53.95 Q185.6 46.8 185.6 46.35 185.6 45.5 185.85 45.45 L186.75 45.3 Q189.05 45.85 195.3 49.0 L188.85 44.8 Q188.85 43.95 189.1 43.9 L189.9 43.75 191.6 44.45 191.7 44.4 191.9 44.6 Q196.5 45.85 204.1 49.65 L203.8 48.95 203.9 48.15 205.3 47.7 206.4 48.0 198.55 42.75 Q199.4 41.75 200.1 41.5 L200.15 41.5 185.5 30.8 Q193.1 35.6 201.2 41.05 L202.6 40.45 Q198.9 38.2 198.9 37.7 L198.9 37.0 194.1 33.9 199.85 36.65 200.15 36.45 200.8 36.8 Q198.8 34.9 198.8 34.15 L198.9 32.85 201.05 32.7 202.05 32.75 201.05 33.8 200.55 34.3 Q200.55 34.95 209.6 41.5 217.8 45.85 224.25 49.8 L222.85 48.15 Q220.6 45.2 211.85 37.4 203.75 30.15 201.1 26.2 210.8 31.75 221.6 43.0 L233.75 56.0 237.2 58.4 247.7 66.55 M280.0 59.45 L282.4 62.15 Q294.3 69.2 301.55 73.1 L301.2 72.7 Q293.0 66.9 280.0 59.45 M278.3 57.65 L278.2 57.65 278.65 58.05 287.25 62.75 287.25 62.6 278.9 57.55 278.3 57.65 M281.0 56.9 L280.95 57.45 Q294.9 65.8 302.05 69.65 L301.8 69.4 294.85 64.2 290.9 61.15 286.7 59.15 281.0 56.9 M283.2 54.5 L278.85 52.5 279.8 53.05 280.4 53.4 283.2 54.5 M280.95 42.25 L259.25 28.25 Q277.7 38.15 302.65 55.4 337.6 79.75 343.25 83.35 332.1 77.45 321.25 70.15 L301.25 55.9 Q294.4 50.9 280.95 42.25 M257.1 46.15 L257.1 46.1 256.45 45.75 Q254.45 44.4 253.45 43.15 247.7 40.3 242.5 38.25 L241.75 38.25 Q248.35 41.55 257.1 46.3 L257.1 46.15 M254.1 37.4 L254.05 37.35 253.6 37.2 254.1 37.4 M246.5 34.85 L245.95 34.5 245.75 34.5 246.5 34.85 M252.0 35.9 L252.95 36.25 252.75 36.1 252.0 35.9 M261.95 34.15 L262.2 33.8 292.15 52.45 Q311.05 64.05 320.6 71.05 L320.3 71.1 Q330.25 77.05 339.45 83.35 332.5 79.4 318.25 71.05 L310.0 66.45 Q314.45 69.6 314.45 70.5 314.45 71.3 314.05 71.45 L312.9 71.55 313.15 71.8 310.8 70.95 312.5 72.05 312.0 72.2 306.9 69.25 298.7 64.9 293.25 62.3 296.25 64.45 303.95 70.3 Q303.9 70.7 302.55 70.8 300.25 69.95 296.0 67.5 290.9 64.55 288.6 63.5 L289.05 63.85 296.45 68.65 Q302.9 72.95 302.9 73.65 L302.8 74.25 Q294.6 70.8 285.15 64.9 L284.7 64.7 289.4 69.9 301.5 84.7 304.05 87.95 Q313.95 100.5 313.95 101.45 313.95 102.35 313.75 102.55 313.4 103.1 311.75 102.85 312.3 103.6 312.25 104.75 310.85 104.3 309.05 102.85 L306.9 100.9 303.95 99.1 Q301.85 98.1 301.2 97.45 L297.95 93.15 294.2 89.0 289.25 84.7 284.0 80.35 273.8 71.7 Q267.3 66.0 252.5 54.8 249.45 52.45 238.4 46.1 229.0 40.65 225.85 37.45 233.95 38.5 245.75 46.45 L253.45 51.8 Q256.95 54.15 258.1 54.15 261.05 54.15 270.5 62.7 280.25 72.0 282.15 73.5 L270.7 61.8 Q262.2 53.1 262.2 52.35 L262.2 51.75 249.6 45.4 Q235.65 38.45 229.55 35.15 246.5 40.85 267.1 52.8 L266.6 52.25 265.45 51.45 261.5 49.4 Q239.3 37.75 239.3 37.15 239.3 36.3 239.75 36.45 L240.05 36.7 Q245.8 38.75 252.6 41.95 L252.25 40.55 Q254.75 40.95 255.95 42.0 257.1 43.0 258.25 43.55 L257.75 43.0 254.8 41.05 Q254.35 40.65 253.9 40.4 L239.3 33.4 Q245.3 35.6 252.2 38.75 L251.75 37.8 Q243.55 34.15 243.55 33.95 L243.55 33.45 236.5 30.55 236.6 30.2 Q242.05 31.35 251.45 34.95 L250.65 34.4 Q255.35 35.15 266.35 40.65 L269.7 42.45 Q278.3 46.15 288.85 51.05 L274.25 42.6 Q265.2 37.25 261.95 34.15 M311.2 36.15 L310.15 35.65 Q310.9 36.3 311.5 36.45 L311.2 36.15 M301.2 28.25 L301.25 28.5 311.15 35.45 Q309.65 33.9 309.65 33.5 309.65 32.85 309.8 32.7 305.55 30.4 301.2 28.25 M366.25 82.6 L365.2 81.95 367.1 84.7 368.1 86.15 367.45 84.7 366.85 83.6 366.25 82.6 M339.75 55.05 L344.7 59.05 Q339.75 53.85 334.2 48.65 324.1 41.15 312.8 35.05 L312.8 35.15 319.65 41.15 321.0 42.05 Q333.5 50.15 339.75 55.05 M362.2 77.85 L362.75 78.1 362.5 77.85 361.0 76.25 362.2 77.85 M343.9 53.9 L341.55 52.25 344.65 54.85 343.9 53.9 M358.25 69.85 L359.25 71.2 359.8 71.55 358.25 69.85 M356.0 68.5 L356.65 69.05 352.7 64.3 349.15 60.9 342.15 54.85 350.95 64.05 356.0 68.5 M356.65 72.5 L356.15 72.3 358.0 74.2 356.65 72.5 M348.1 57.45 L347.65 56.95 348.1 57.55 348.1 57.45 M332.7 44.75 L334.45 46.25 Q337.2 48.0 339.75 49.8 333.5 43.9 322.85 36.65 L312.9 30.05 Q319.7 35.0 325.95 40.15 L332.7 44.75 M324.1 28.0 Q327.95 31.65 333.4 37.8 L341.95 47.35 353.65 59.9 Q361.95 66.5 367.45 72.55 L367.1 72.55 358.0 64.75 364.0 71.7 Q372.8 81.9 374.3 84.7 L374.65 85.6 374.6 86.45 374.35 86.55 373.1 86.7 371.45 84.7 Q365.7 77.85 360.35 72.1 L360.65 73.0 363.2 76.45 365.9 78.9 Q368.45 81.25 368.45 82.15 368.45 83.4 368.2 82.75 L367.4 82.75 368.5 84.7 Q370.1 87.75 370.15 89.4 379.7 104.65 385.2 121.0 384.95 121.25 384.45 121.0 378.95 105.45 369.6 90.55 L368.7 91.55 Q369.2 90.95 369.15 89.8 L365.8 84.7 362.6 80.15 360.65 78.7 Q361.8 80.2 361.8 80.75 361.8 81.6 361.6 81.65 L360.45 81.7 Q359.9 81.6 358.5 80.35 L356.65 78.7 356.95 78.4 360.2 80.75 360.35 80.7 Q355.75 75.85 343.15 64.45 L342.95 64.6 Q342.85 65.1 341.65 64.9 339.45 64.35 336.65 62.05 L331.65 57.95 Q324.6 53.4 310.7 44.1 302.35 38.7 295.0 34.5 L290.0 32.15 299.25 37.95 309.15 43.95 Q320.3 50.9 326.55 55.65 L318.65 51.0 Q327.65 57.5 327.65 59.15 327.65 59.95 327.35 59.95 L326.3 59.9 314.75 52.35 322.4 58.05 Q340.7 72.25 351.9 84.7 358.1 91.6 362.1 97.95 L361.8 98.2 Q357.25 91.7 350.6 84.7 339.2 72.65 321.7 58.95 309.7 49.5 292.65 37.7 284.35 32.7 276.2 28.95 L276.45 29.15 286.15 35.65 285.6 35.8 277.7 31.6 Q272.4 28.5 272.15 26.75 272.5 26.5 273.0 26.3 L273.5 26.2 279.7 28.75 265.7 19.5 Q274.4 24.9 282.15 30.0 284.65 31.15 287.1 32.55 273.25 23.8 267.3 19.75 L267.55 19.25 267.8 19.0 Q268.7 19.0 272.15 20.65 L276.45 22.75 Q278.55 23.75 280.95 24.15 283.0 24.55 285.3 25.85 L293.55 30.3 Q298.35 32.9 301.8 35.05 L302.7 35.6 293.5 28.7 288.0 24.7 281.8 20.85 282.1 20.35 276.55 16.25 270.8 12.1 Q270.25 11.65 265.15 8.55 261.25 6.2 260.3 4.55 269.1 7.95 280.45 16.35 L291.4 24.8 291.9 25.1 301.0 29.95 301.0 29.75 298.8 28.05 296.65 26.35 Q302.9 27.75 315.7 34.9 319.15 36.35 322.4 38.2 L308.95 27.5 294.8 18.5 302.75 23.0 302.65 22.9 302.95 23.05 Q313.0 28.75 322.65 35.4 334.0 43.25 340.7 49.65 L326.95 33.6 Q313.5 19.25 296.45 9.75 312.15 16.55 324.1 28.0" fill="#000000" fill-opacity="0.36078432" fill-rule="evenodd" stroke="none"/>
    <path d="M162.3 78.0 L162.3 75.6 Q162.75 76.25 162.75 77.35 162.75 77.15 162.3 78.0 M209.65 125.55 L209.7 124.1 209.85 125.45 209.85 125.55 209.7 125.65 209.65 125.55" fill="url(#gradient7)" fill-rule="evenodd" stroke="none"/>
    <path d="M226.85 -50.55 L226.65 -51.2 226.65 -52.6 226.8 -53.3 Q229.5 -56.8 234.4 -57.35 241.75 -58.15 248.5 -61.15 250.55 -62.05 252.4 -63.3 L248.65 -64.3 Q246.1 -64.8 245.3 -67.1 L245.2 -67.75 Q247.35 -73.0 254.1 -74.85 263.05 -77.35 271.05 -82.4 272.55 -83.3 273.85 -83.6 L275.7 -83.45 277.2 -82.9 278.65 -81.7 278.95 -81.25 280.05 -81.65 282.0 -82.85 285.6 -82.95 287.1 -81.7 287.35 -81.0 287.45 -80.3 287.2 -79.0 286.35 -77.55 285.75 -76.8 285.45 -76.35 Q287.7 -75.45 290.6 -75.05 L295.05 -74.1 301.05 -72.3 304.1 -71.95 Q304.7 -72.15 305.15 -72.55 L305.5 -73.1 305.75 -73.8 306.45 -75.2 Q306.9 -75.55 307.4 -75.7 L310.15 -76.25 Q312.15 -76.45 313.8 -77.55 L314.8 -78.0 Q321.65 -75.7 328.85 -74.25 337.1 -72.6 344.95 -69.15 347.9 -67.85 349.3 -64.95 L349.95 -65.2 350.95 -65.6 352.05 -65.75 354.4 -65.65 354.75 -65.95 355.55 -67.3 Q356.1 -68.3 357.2 -68.65 L360.5 -69.3 362.1 -69.15 369.95 -62.4 Q375.05 -57.95 379.55 -52.9 L386.6 -44.85 386.55 -44.95 386.05 -45.6 385.65 -46.35 385.35 -47.0 385.15 -47.7 385.2 -48.4 385.45 -49.05 386.1 -49.8 388.0 -51.15 389.35 -51.75 392.1 -52.15 Q408.7 -44.75 417.8 -28.35 L431.65 -3.4 Q434.1 -3.1 434.85 0.2 L435.2 1.85 436.6 1.9 Q439.3 5.25 440.4 9.55 L440.75 10.95 Q457.4 22.95 463.55 42.8 470.5 65.1 468.3 88.55 467.1 101.6 463.55 113.35 L466.65 118.3 466.3 118.9 464.9 120.0 463.85 120.25 461.35 119.95 458.75 126.45 Q465.6 133.55 474.3 138.55 464.2 133.4 455.85 125.5 L455.8 128.5 456.25 129.05 Q462.1 136.15 458.0 142.75 455.7 143.3 453.9 142.25 452.9 146.3 451.55 150.35 L453.15 152.5 Q453.9 153.45 453.6 154.6 460.85 162.95 468.95 170.45 459.2 164.45 451.45 155.35 L450.15 155.3 Q452.9 161.9 455.95 168.35 452.95 164.3 450.45 159.35 L451.05 163.5 453.2 168.55 460.5 185.75 461.5 186.3 460.75 186.4 461.5 188.15 460.4 186.4 457.6 186.4 Q459.95 191.35 463.15 195.85 458.1 191.5 454.85 186.05 450.85 185.25 447.2 182.9 L451.75 190.75 Q451.65 191.8 450.8 192.6 449.9 193.45 449.25 194.45 L449.9 195.7 Q455.5 206.7 462.45 217.05 454.4 207.5 448.55 195.5 L446.85 197.5 448.9 201.0 Q449.8 202.75 451.0 204.3 452.25 205.85 451.85 207.95 L451.5 209.35 Q450.8 209.95 450.0 210.1 L449.8 210.15 450.15 211.15 Q452.8 218.95 457.3 225.85 L459.2 226.8 Q463.65 228.9 466.4 232.65 463.8 233.85 461.05 233.75 464.5 237.8 467.35 241.95 459.45 241.8 453.25 232.4 L451.4 229.7 449.7 228.3 447.15 226.05 446.7 230.9 Q453.35 240.05 460.65 248.8 467.6 257.25 474.8 264.1 460.35 263.05 451.05 247.6 L448.3 243.15 450.9 249.55 Q457.05 264.55 464.55 278.85 L464.5 279.5 464.25 280.2 463.85 280.9 463.5 281.65 463.4 282.3 465.2 287.15 Q466.5 290.35 468.55 293.1 471.0 296.35 470.85 299.75 459.6 297.3 454.75 282.25 L452.0 273.85 Q435.9 268.65 436.35 248.0 436.55 239.6 435.2 231.7 L427.55 213.65 427.3 213.65 426.35 213.6 426.3 213.3 426.1 212.65 425.9 212.6 Q424.75 211.45 425.35 210.05 L424.25 205.7 422.35 201.0 Q423.65 207.1 423.65 210.6 423.65 215.4 422.8 218.6 L422.6 217.95 Q423.05 216.3 423.05 214.2 423.05 209.2 420.65 198.9 L418.25 203.7 418.75 209.5 418.5 209.05 418.45 208.4 Q418.25 206.45 417.7 204.75 L416.9 204.1 415.75 203.65 415.65 203.65 Q414.8 205.2 413.6 206.45 412.7 207.4 412.1 208.6 407.7 225.55 401.05 242.75 397.55 251.75 395.7 261.45 392.0 281.05 391.45 301.45 391.15 314.7 380.7 319.05 L380.45 319.8 380.2 320.5 379.85 321.15 379.0 321.95 378.3 322.45 Q364.8 314.5 357.8 298.9 351.0 283.7 342.85 268.95 338.95 261.9 336.3 254.6 L335.8 254.9 316.05 266.5 Q316.45 273.85 320.25 280.3 323.8 286.3 326.45 292.55 329.1 298.75 332.25 304.7 333.7 307.55 334.25 310.2 336.2 313.9 335.15 317.7 331.15 319.95 329.05 315.05 L326.2 307.95 324.65 303.75 324.15 303.1 324.0 303.0 322.65 302.45 321.9 301.85 320.15 298.45 317.6 293.9 Q316.7 292.0 314.9 290.7 313.2 294.25 312.8 298.35 L311.45 306.75 Q310.5 311.1 307.15 313.65 L306.3 314.2 Q307.15 307.6 308.55 299.7 309.85 292.7 309.35 285.9 L309.25 284.05 309.1 283.95 308.45 278.4 Q308.25 276.3 308.5 274.25 L308.35 272.45 307.15 270.55 300.3 260.0 Q300.0 259.5 300.0 258.8 317.85 256.15 332.45 243.85 341.45 236.2 348.3 226.95 351.3 222.9 355.65 222.05 357.55 224.55 357.0 227.35 363.8 221.05 372.4 217.4 L372.8 217.4 Q382.6 207.65 393.75 199.9 L397.95 197.05 398.1 196.8 398.3 193.75 398.75 193.75 398.95 195.45 399.55 194.45 399.65 194.3 405.9 180.95 Q405.55 180.75 405.2 180.7 L405.95 180.45 406.1 180.45 407.05 178.3 Q408.4 175.3 409.9 172.45 L409.9 169.25 409.6 167.7 408.95 166.9 Q408.95 166.1 409.05 166.35 L409.1 166.6 409.2 166.5 409.1 165.4 409.4 163.3 407.45 159.95 Q408.4 160.45 409.55 162.3 L410.1 158.8 411.3 158.8 411.75 160.8 411.95 162.6 412.2 162.55 412.35 160.35 Q409.05 153.35 405.3 143.35 L404.35 140.9 Q403.05 139.9 401.7 139.35 L401.65 140.45 401.65 141.6 402.0 142.25 401.7 142.25 401.75 145.3 401.9 146.0 403.4 147.25 406.0 149.05 406.1 149.75 402.85 149.55 Q401.2 148.6 399.85 147.15 L399.35 146.5 399.35 144.7 399.25 144.95 Q398.7 146.85 397.65 147.7 L397.55 147.4 Q396.55 151.05 394.7 154.4 L394.6 154.75 392.95 162.3 393.55 156.25 389.9 160.9 Q382.35 169.05 391.8 174.65 L395.4 177.0 Q376.7 168.2 391.85 152.75 L394.15 150.1 394.15 149.75 Q394.15 146.9 393.3 143.4 L391.05 146.4 390.5 146.95 389.3 147.15 388.4 147.1 387.35 146.8 Q386.15 150.25 384.3 153.15 384.8 156.0 384.2 157.65 382.6 157.35 381.65 156.55 L381.4 156.8 373.4 163.85 Q371.7 165.4 371.7 169.4 371.7 172.5 371.95 173.2 372.4 174.7 374.35 175.8 376.1 176.8 376.1 177.35 L375.9 178.25 Q375.45 178.65 373.8 178.7 L370.85 175.9 Q370.4 175.4 370.3 174.2 369.65 170.9 369.65 169.65 369.65 164.2 372.25 158.9 374.3 154.85 379.75 147.7 L380.45 146.85 380.8 145.45 Q381.8 142.15 384.65 140.9 L384.85 140.95 386.6 138.45 Q387.35 136.55 388.7 134.8 L389.0 132.05 387.65 129.3 Q385.0 130.95 381.4 132.05 383.85 128.45 385.15 124.7 382.85 120.65 379.95 116.15 L379.15 114.95 377.9 117.6 376.85 119.35 Q373.95 126.85 366.5 131.1 L366.5 130.25 Q363.7 132.1 361.8 132.7 L361.0 131.65 Q364.65 130.65 366.05 127.95 L365.6 126.9 Q367.85 121.05 368.95 114.95 L366.55 118.35 Q360.1 126.4 356.7 133.05 361.35 123.3 368.35 114.0 L369.35 112.65 Q369.85 109.0 369.95 105.25 L369.95 101.75 365.7 96.4 Q365.7 95.5 365.85 95.55 L366.0 95.8 367.25 95.5 369.7 98.55 Q368.65 89.1 363.75 80.75 L351.95 60.4 Q341.9 60.45 331.55 51.05 L328.65 48.45 322.3 44.85 311.0 39.4 311.05 39.75 Q311.05 41.0 310.35 40.05 308.95 38.95 307.25 38.75 306.3 38.65 306.3 37.45 L306.3 36.85 Q303.0 35.1 297.3 32.3 293.8 30.5 291.55 28.95 L292.95 30.65 Q294.15 32.2 294.15 33.65 294.15 34.95 293.95 35.05 L292.3 35.15 289.3 31.05 285.85 26.95 286.05 27.35 290.0 33.8 293.45 37.6 307.3 52.9 Q317.75 60.75 317.75 61.6 L317.75 61.75 319.8 62.3 321.15 62.2 321.7 62.05 321.7 62.3 320.75 62.75 319.25 62.95 317.2 62.25 314.95 62.45 314.35 62.45 Q318.35 68.25 318.35 68.9 318.35 70.25 317.65 69.4 L311.45 62.2 311.15 62.15 313.05 64.85 312.9 65.65 Q312.65 65.7 312.65 65.8 L311.35 65.9 308.4 61.6 308.1 61.35 306.3 60.85 307.15 61.7 309.15 63.9 310.0 65.3 310.25 66.6 310.15 68.0 Q303.95 68.2 297.65 65.1 L298.3 67.3 295.8 64.1 Q291.65 61.7 287.45 57.9 283.25 57.0 278.7 54.75 274.25 52.55 269.65 50.6 L272.55 53.7 273.6 54.95 Q273.4 57.05 273.8 59.1 274.25 61.3 275.4 63.25 L275.55 63.5 Q280.0 69.45 284.65 74.55 L292.15 82.9 293.8 84.7 296.45 87.5 306.65 94.55 Q306.65 95.75 305.55 96.25 L307.35 97.95 309.4 98.9 Q311.5 99.8 311.4 101.7 L314.5 104.65 Q312.5 100.3 308.4 97.2 320.7 101.3 316.2 114.6 316.35 111.35 315.75 108.5 L314.95 108.85 307.7 105.05 307.35 105.05 305.7 104.0 291.55 96.5 291.0 96.45 Q297.95 101.65 302.7 103.85 L302.7 103.6 Q302.25 102.9 302.55 102.45 L303.4 103.2 303.4 104.35 301.2 104.5 Q299.55 104.5 288.95 96.2 281.4 94.85 272.75 88.1 L264.65 81.75 262.25 80.45 262.05 81.2 261.25 82.7 Q251.15 81.75 242.9 73.05 L241.5 71.6 Q237.4 71.65 233.25 69.85 227.0 67.15 221.2 63.75 220.15 63.6 218.35 62.6 L219.8 64.75 Q217.25 65.5 214.4 63.95 L213.0 65.25 212.55 66.35 Q212.0 67.8 210.55 67.5 L210.35 67.5 207.8 68.7 209.5 71.9 Q210.5 73.9 212.05 75.5 212.9 76.4 212.1 77.55 L211.4 77.95 210.35 78.05 Q208.5 80.8 207.15 83.75 L208.85 86.2 Q215.55 93.25 215.55 95.0 215.55 95.3 213.2 96.3 212.9 95.5 210.55 94.05 207.9 92.3 207.5 91.75 L207.5 92.05 208.4 93.3 Q208.8 94.1 208.8 94.95 L208.75 95.75 208.35 95.9 205.55 95.05 Q207.3 100.7 208.3 105.1 208.75 106.0 208.7 107.1 209.65 111.85 209.65 115.05 L209.65 116.25 Q212.75 118.5 212.5 123.0 212.3 126.75 212.45 130.65 L212.65 134.1 215.85 138.75 Q220.4 144.5 225.3 149.9 230.3 155.45 231.0 160.9 229.1 162.65 226.75 161.1 225.15 160.0 223.9 158.5 223.0 157.45 221.9 157.2 L222.75 159.95 Q223.7 161.3 224.3 163.0 L224.5 163.55 224.95 164.3 Q226.95 167.5 229.8 169.95 233.35 172.95 234.25 176.75 230.35 177.65 227.25 176.0 L227.25 176.3 Q230.1 179.05 229.9 183.25 L232.65 191.45 233.35 192.35 234.25 192.6 Q235.8 194.85 235.4 197.55 236.8 201.35 239.3 204.75 241.0 207.0 240.55 209.6 L239.65 210.5 239.75 210.75 240.45 209.75 240.8 209.6 240.9 210.4 240.25 212.4 Q241.45 216.35 241.45 218.15 L241.35 219.85 Q247.6 236.85 247.6 242.25 247.6 244.15 246.8 244.95 246.5 236.0 240.7 221.4 L240.75 221.95 Q241.5 225.3 241.5 227.6 L241.45 233.05 240.95 233.05 Q240.95 229.6 240.45 225.85 L240.35 225.95 240.0 222.5 239.75 221.25 238.45 221.35 Q237.6 221.35 236.3 218.9 L232.8 223.95 232.45 224.85 Q234.0 231.6 234.45 237.4 L234.45 241.25 233.85 241.25 Q233.5 233.95 231.95 226.0 231.15 227.6 230.05 228.35 L226.75 233.75 Q224.65 237.0 221.8 238.85 L219.65 241.35 219.5 241.55 Q216.6 249.8 208.15 252.2 L208.5 251.45 Q207.9 251.35 208.05 251.1 L208.05 250.75 Q210.2 246.7 211.9 242.2 L211.2 243.05 210.5 244.1 Q210.4 244.3 210.05 244.3 210.25 239.3 211.85 234.4 213.6 229.3 214.5 223.95 214.9 221.5 215.7 219.2 215.0 218.75 214.8 217.7 L214.6 216.4 212.95 218.5 Q209.85 222.4 208.8 222.4 207.5 222.4 207.8 221.75 L207.85 221.4 205.3 222.9 Q200.7 225.6 195.6 225.55 L194.2 225.2 Q200.8 222.5 203.9 217.15 204.15 215.1 205.9 211.7 L206.0 211.5 206.2 210.5 Q207.05 205.25 207.2 199.95 L205.85 194.9 204.75 196.5 204.35 197.05 201.85 202.9 Q197.15 213.55 188.6 213.3 L188.4 212.95 186.35 214.4 184.85 214.85 183.8 214.65 183.55 214.4 186.35 210.25 Q190.35 203.95 193.25 197.5 L194.15 194.25 Q195.55 189.75 197.5 185.3 L197.9 184.35 199.75 176.1 Q198.8 176.15 197.7 177.6 196.45 179.2 194.65 179.3 L194.55 179.3 Q190.75 183.6 188.4 183.6 187.55 183.6 187.45 183.3 L187.35 182.8 191.15 176.9 191.25 176.35 191.65 175.6 192.15 175.15 194.95 169.25 Q196.8 164.55 198.2 161.2 L197.9 159.15 197.9 159.2 Q196.1 166.15 191.65 168.15 193.9 160.0 194.9 151.4 L195.95 142.9 196.75 136.45 196.9 135.25 197.45 131.2 Q196.25 134.0 195.4 137.65 194.4 142.15 192.1 146.0 190.45 148.8 188.1 149.8 186.05 152.45 182.55 153.45 180.9 152.55 186.45 145.9 L188.2 143.5 Q189.3 139.5 190.7 135.3 L190.75 134.85 187.55 138.1 186.8 138.8 Q184.4 144.3 180.3 147.5 L178.35 150.2 179.3 148.2 179.05 148.35 Q179.15 137.4 182.65 125.7 186.2 113.9 187.2 101.55 L187.2 101.5 Q182.75 104.25 176.55 105.55 L176.25 105.4 175.2 108.4 Q173.35 114.35 171.0 119.75 L168.4 128.45 168.4 128.65 Q169.6 138.55 176.25 145.55 168.25 140.05 166.55 130.9 163.0 130.6 162.9 126.45 162.85 125.2 163.05 124.05 161.75 120.75 162.15 116.35 160.0 104.95 162.5 91.75 165.05 78.5 168.4 65.4 164.35 69.0 160.7 72.9 159.25 74.35 157.15 73.15 159.5 67.2 162.85 61.2 162.65 58.2 164.75 54.4 L171.2 43.0 173.45 39.2 Q169.25 42.5 164.4 44.95 L164.3 45.65 164.5 46.4 164.45 46.95 163.7 47.75 Q162.35 49.35 160.3 49.65 157.1 50.15 156.45 47.5 162.2 39.5 171.6 32.5 175.7 29.5 177.75 25.15 176.65 24.8 175.75 23.85 L175.65 23.7 170.5 26.4 Q166.65 28.4 162.05 28.65 160.1 28.75 159.25 27.05 L161.4 23.5 158.65 22.95 Q157.25 22.65 156.95 21.2 161.35 16.4 167.95 13.35 171.65 8.0 175.8 2.75 L175.25 2.1 175.9 2.65 176.1 2.4 179.15 -1.65 177.5 -3.75 168.6 -4.0 Q165.35 -4.3 165.1 -7.2 165.0 -9.4 167.05 -9.8 171.95 -10.75 176.55 -12.6 178.35 -13.35 179.5 -14.9 176.35 -15.05 170.1 -18.2 168.0 -19.2 167.85 -21.4 167.7 -23.2 168.1 -24.9 174.25 -27.5 179.95 -31.0 188.2 -36.05 196.7 -40.8 198.85 -42.0 201.2 -42.6 L202.8 -42.05 Q203.5 -41.8 204.15 -41.35 L205.8 -40.0 206.3 -39.35 207.45 -40.05 211.3 -42.7 Q212.6 -43.7 214.2 -43.5 216.05 -43.3 217.25 -41.9 L218.6 -42.85 222.35 -45.6 225.15 -47.7 227.05 -49.1 227.2 -49.75 226.85 -50.55 M178.6 -3.8 L179.7 -2.5 180.7 -3.95 178.6 -3.8 M206.15 -22.05 L206.4 -21.85 206.55 -21.7 207.95 -23.25 207.25 -24.5 206.1 -25.85 205.3 -23.55 Q204.55 -21.55 204.15 -19.75 L205.95 -21.15 205.95 -21.25 Q205.95 -22.1 206.15 -22.05 M279.65 -8.6 L279.8 -8.4 280.0 -8.25 280.05 -8.5 279.65 -8.6 M364.35 -26.0 L364.9 -25.35 365.1 -25.35 364.95 -26.0 363.0 -27.6 364.35 -26.0 M334.8 -40.05 L333.0 -38.4 333.0 -38.3 Q334.55 -38.8 335.8 -39.9 L334.8 -40.05 M387.95 -45.0 L394.5 -45.2 Q391.6 -46.3 388.5 -47.0 386.8 -47.35 387.95 -45.15 L387.95 -45.0 M409.75 -25.9 L416.35 -18.75 Q418.7 -16.2 424.4 -6.7 L426.15 -3.7 426.4 -3.6 415.25 -25.65 Q411.55 -32.95 406.2 -37.9 407.55 -36.05 408.45 -33.8 410.05 -29.85 409.75 -25.9 M408.8 -21.6 Q408.2 -20.05 407.05 -18.85 L407.85 -17.75 Q408.55 -19.3 409.8 -20.5 414.0 -18.55 415.05 -14.1 415.65 -11.55 416.75 -9.1 L417.55 -9.3 419.15 -10.25 Q420.5 -9.8 421.55 -9.0 L418.65 -13.2 Q414.65 -18.6 409.5 -24.0 L408.8 -21.6 M450.4 38.3 Q456.1 45.4 459.4 54.55 462.85 64.0 464.1 73.95 463.8 59.65 460.2 45.7 455.4 26.95 441.85 15.85 L441.95 16.4 442.6 19.8 442.6 19.85 Q445.45 22.75 446.9 26.95 448.75 32.0 450.1 37.2 L450.4 38.3 M451.2 48.7 L450.6 47.5 450.55 47.45 450.65 48.05 451.2 48.7 M431.5 39.95 L430.65 38.6 429.25 37.8 429.5 38.3 429.9 38.9 431.5 39.95 M441.65 40.7 L441.45 40.95 441.85 41.0 441.7 40.6 441.65 40.7 M456.7 64.75 Q456.8 71.1 456.5 77.5 L459.15 84.15 460.15 83.95 Q460.2 72.05 456.4 60.85 L456.7 64.75 M455.85 86.15 L455.65 87.95 Q455.05 93.4 453.55 98.15 L454.1 98.95 457.8 104.5 458.8 98.35 Q458.7 93.7 457.25 88.75 L456.45 86.15 455.85 86.15 M459.9 86.15 L460.05 86.6 460.1 86.15 459.9 86.15 M448.65 83.45 L449.9 83.8 Q450.15 77.4 450.55 71.75 L448.7 82.5 448.65 83.45 M448.25 84.95 L448.15 85.5 447.55 88.7 448.65 90.45 448.9 89.3 449.85 85.35 448.25 84.95 M373.85 50.4 L373.25 49.75 373.25 49.85 373.25 49.95 373.85 50.4 M379.3 94.5 L378.6 96.45 381.5 101.5 381.4 98.15 379.3 94.5 M378.2 97.65 L378.05 98.3 378.4 101.25 381.05 106.5 381.45 103.4 378.2 97.65 M378.0 98.0 L378.1 97.5 377.8 97.0 378.0 98.0 M377.55 91.85 L376.05 89.9 377.2 94.15 378.4 96.15 378.85 93.8 378.1 92.7 376.8 91.75 377.55 91.85 M386.15 111.75 L383.5 107.0 381.95 104.25 381.5 107.4 386.5 116.95 386.15 111.75 M386.25 120.1 L383.85 115.45 380.95 109.8 380.95 109.95 380.1 112.5 Q383.35 117.05 386.05 121.45 L386.25 120.1 M386.0 121.75 L383.15 118.1 385.65 123.1 386.0 121.75 M382.1 101.8 L382.1 102.45 385.35 108.35 Q384.15 103.7 382.05 99.45 L382.1 101.8 M395.15 121.6 L395.8 123.2 396.6 119.65 395.3 116.2 395.35 117.7 395.15 121.6 M396.9 116.2 L396.05 114.0 395.7 113.45 396.9 116.45 396.9 116.2 M393.3 122.95 L393.15 123.3 393.2 123.5 393.3 122.95 M378.75 108.55 L378.7 110.4 379.7 111.85 380.55 108.9 378.7 105.25 378.75 108.55 M369.8 99.5 L366.65 96.65 369.9 100.85 369.8 99.5 M377.7 116.75 L377.95 116.2 378.7 114.3 378.35 113.75 377.7 116.75 M390.55 127.9 L390.55 129.25 391.35 130.9 391.55 130.45 390.55 127.9 M391.85 126.8 L391.65 125.7 391.4 126.0 391.85 126.8 M394.7 124.45 L394.35 125.9 394.6 126.4 395.05 125.4 394.7 124.45 M366.2 128.45 L366.15 128.6 366.25 128.6 366.2 128.45 M393.85 127.9 L393.8 127.85 393.7 128.05 393.7 128.1 393.85 127.9 M388.4 128.8 L389.05 130.25 389.15 128.2 388.4 128.8 M390.55 132.2 L390.8 132.2 391.15 131.5 390.55 130.05 390.55 132.2 M385.35 146.0 Q383.25 148.2 383.85 151.25 L386.05 146.0 385.95 145.35 385.35 146.0 M402.85 138.55 L401.95 138.65 Q402.9 138.9 403.85 139.5 L403.4 138.15 402.85 138.55 M399.1 137.95 L398.75 137.65 399.1 138.95 399.1 137.95 M396.6 139.0 L396.95 139.95 397.75 142.15 398.0 140.55 397.35 138.0 396.6 139.0 M398.4 143.0 L398.3 143.9 398.6 145.15 398.4 143.0 M396.75 145.45 L395.05 141.05 394.1 142.35 Q395.35 146.15 395.35 148.1 L395.35 148.25 396.75 145.45 M397.85 146.25 L397.95 146.65 398.3 146.4 398.35 146.3 398.3 146.3 397.9 145.95 397.85 146.25 M404.8 136.15 L405.95 139.5 Q406.15 138.6 406.75 138.3 L406.15 136.35 405.65 134.2 405.15 134.4 405.1 135.05 404.95 135.75 404.8 136.15 M380.0 149.2 L378.85 150.8 Q374.25 157.55 372.2 162.6 377.35 159.8 380.8 155.7 379.9 154.45 379.85 152.55 379.8 150.8 380.0 149.2 M460.95 109.35 L461.0 109.45 461.05 109.15 460.95 109.35 M455.05 113.05 L454.85 112.75 454.95 113.25 455.05 113.05 M455.0 113.5 L455.35 116.4 455.9 114.05 455.25 113.25 455.0 113.5 M449.2 118.3 L449.0 118.2 448.7 119.25 452.1 123.85 451.95 121.5 449.2 118.3 M457.8 116.05 L455.85 119.1 455.65 119.6 455.85 123.25 458.7 126.4 459.85 118.15 458.0 116.25 457.8 116.05 M448.7 136.8 L449.1 144.0 450.55 138.8 448.7 136.8 M447.2 135.45 L444.25 133.45 443.95 133.3 444.6 137.9 Q445.85 139.65 446.9 141.6 446.9 138.4 447.2 135.45 M409.7 147.0 L407.4 143.8 410.2 152.15 412.45 157.75 412.45 155.55 412.25 154.7 411.8 153.85 411.15 152.55 411.2 152.0 411.3 152.3 411.7 152.5 411.5 151.75 411.35 151.05 410.55 149.25 409.7 147.0 M407.45 142.8 L408.85 144.6 408.2 142.75 407.45 142.8 M440.5 130.9 L440.55 130.8 440.35 130.65 440.5 130.9 M444.0 157.6 L445.3 153.7 Q443.15 154.85 440.95 154.75 L444.0 157.6 M440.05 162.55 L442.25 166.65 442.5 164.35 440.85 163.2 440.05 162.55 M414.3 161.75 L414.75 162.65 414.75 162.6 414.35 161.5 414.3 161.75 M414.5 164.6 L414.1 163.85 414.0 165.4 414.5 164.6 M412.85 182.15 L413.2 182.2 413.2 182.1 413.3 180.7 412.6 182.1 412.85 182.15 M424.75 185.45 L424.65 186.15 425.35 187.4 425.0 185.95 424.75 185.45 M426.0 187.5 L426.1 188.05 426.15 187.7 426.0 187.5 M448.05 162.0 L448.25 162.55 447.1 164.0 Q446.1 168.15 445.6 172.35 448.2 176.15 451.7 179.4 450.3 175.6 449.6 171.4 448.65 165.95 448.05 160.45 L447.7 161.6 448.05 162.0 M459.75 185.3 Q455.8 178.7 452.55 170.9 L453.85 176.2 Q454.8 179.65 456.1 182.95 L459.75 185.3 M447.4 209.95 Q446.6 209.7 445.9 209.1 447.35 213.9 449.9 218.35 452.2 222.4 456.0 225.0 451.1 218.65 448.25 210.15 L447.4 209.95 M450.5 269.6 Q446.05 257.05 440.95 244.85 440.25 260.3 450.5 269.6 M292.4 26.55 L291.5 26.9 Q295.5 28.75 298.0 30.1 304.3 33.25 307.15 35.35 L308.6 36.3 309.65 37.0 312.05 38.35 303.8 32.4 Q300.65 31.4 297.65 29.65 L292.4 26.55 M243.95 7.7 L244.0 7.65 243.95 7.7 M311.3 58.05 L312.0 59.05 314.2 60.1 311.3 58.05 M313.2 60.55 Q313.05 60.4 312.9 60.4 L312.95 60.5 313.2 60.55 M309.4 59.8 L309.45 59.8 308.3 58.45 309.4 59.8 M306.5 59.0 L306.45 59.1 306.55 59.1 306.5 59.0 M278.6 39.9 L279.45 40.5 278.4 39.55 278.15 39.6 278.6 39.9 M288.45 81.5 L279.4 71.35 285.65 79.3 288.45 81.5 M207.8 13.25 L207.75 13.55 208.15 13.75 207.8 13.25 M196.2 67.05 L196.05 66.05 196.05 66.75 196.2 67.05 M209.0 15.9 L209.5 15.7 209.45 15.6 208.7 14.95 209.0 15.9 M208.35 14.15 L208.55 14.3 208.35 14.05 208.2 13.85 208.35 14.15 M182.7 91.2 Q179.35 97.05 176.95 103.4 181.3 98.5 185.25 90.0 L184.7 87.4 182.7 91.2 M185.7 91.75 Q182.35 98.95 178.9 102.7 184.2 101.7 187.35 99.7 L187.4 98.65 Q186.85 95.5 185.9 92.5 L185.7 91.75 M203.95 54.4 L204.2 54.25 204.3 53.95 203.95 54.4 M209.5 77.9 L209.2 77.8 Q207.45 77.2 207.05 78.15 L206.05 80.1 205.55 80.55 205.1 80.75 204.85 80.85 206.45 82.85 Q207.35 81.0 208.5 79.25 L209.5 77.9 M208.8 88.95 L206.75 89.4 213.4 93.85 213.15 93.5 209.15 88.75 208.8 88.95 M202.75 93.75 L202.95 94.5 203.0 94.6 203.05 93.9 202.8 93.75 202.75 93.75 M203.35 95.15 L205.35 98.25 Q206.9 100.9 206.65 103.4 L206.7 103.6 207.35 104.05 204.8 94.8 203.55 94.15 203.35 95.15 M208.2 107.85 L207.9 107.9 209.0 112.75 208.2 107.85 M168.45 121.3 L168.15 123.95 168.1 124.75 168.15 125.75 168.85 121.95 168.45 121.3 M198.95 133.75 L198.55 136.15 Q199.3 135.75 199.35 134.95 L198.95 133.75 M196.05 153.45 L196.9 152.0 196.55 149.9 196.25 152.05 196.05 153.45 M216.1 159.05 L217.7 163.4 219.0 166.15 220.4 167.55 Q218.0 162.5 216.15 157.15 L215.95 159.0 216.1 159.05 M222.0 173.8 L221.85 173.6 221.5 173.7 221.9 174.5 222.0 173.8 M229.1 187.35 L230.05 189.45 230.75 189.85 229.25 186.8 229.1 187.35 M228.95 189.0 L228.75 188.5 228.6 188.9 228.95 189.0 M230.95 188.9 L231.5 190.05 229.7 184.95 229.5 186.0 230.95 188.9 M238.7 211.55 L238.8 212.05 239.3 211.35 239.2 211.0 238.7 211.55 M239.55 220.7 L238.7 216.65 238.3 215.8 236.8 218.1 Q238.25 220.35 239.55 220.7 M235.5 217.1 L235.5 217.05 235.45 217.1 235.4 217.3 235.5 217.1 M235.95 216.4 L237.55 213.95 237.35 213.45 Q236.5 214.7 235.85 216.2 L235.95 216.4 M239.3 214.1 L239.55 215.25 240.9 218.6 240.9 216.65 239.8 213.15 239.3 214.1 M192.4 203.25 L190.95 206.0 192.55 203.4 192.4 203.25" fill="#000000" fill-rule="evenodd" stroke="none"/>
    <path d="M273.55 200.35 Q274.35 201.1 275.15 201.05 L274.3 201.3 267.75 200.65 273.55 200.35 M292.75 199.75 Q290.8 201.05 287.0 201.25 L282.45 201.25 278.85 200.65 Q281.45 199.85 285.55 199.45 L292.75 199.75 M237.4 93.75 L237.4 94.3 237.1 94.8 235.85 95.5 235.15 94.6 235.35 94.0 Q236.75 93.4 237.3 93.7 L237.4 93.75 M234.75 88.85 L235.05 88.7 235.75 88.65 Q236.15 88.7 236.15 89.35 L235.95 90.1 235.55 90.4 Q234.35 90.4 234.1 89.8 L234.3 89.2 234.75 88.85 M322.35 80.7 L322.15 81.15 322.0 81.6 320.9 81.3 321.2 80.7 Q322.1 80.3 322.35 80.7 M324.5 85.5 L324.15 86.5 Q323.55 87.25 322.35 87.25 321.7 87.25 321.65 86.95 L321.6 86.35 Q322.35 85.9 323.2 85.65 L324.5 85.5" fill="#ffffff" fill-rule="evenodd" stroke="none"/>
    <path d="M347.5 87.2 Q348.7 86.3 350.0 86.25 356.0 92.4 346.9 99.9 337.35 107.7 324.95 109.15 312.25 110.6 302.15 103.55 300.45 102.35 300.45 100.3 296.95 99.8 293.2 101.7 289.85 103.4 287.15 105.5 283.05 100.15 292.5 97.1 304.95 93.05 318.1 95.65 326.9 97.35 335.25 93.95 341.95 91.25 347.5 87.2 M215.4 96.0 L217.2 95.3 218.95 94.8 219.0 94.75 Q224.55 97.25 229.95 100.35 235.4 103.5 241.15 101.1 L245.95 99.25 Q248.95 98.15 252.1 98.0 260.55 94.5 255.8 102.8 252.9 107.75 247.5 109.85 227.0 117.75 215.35 100.85 213.8 98.65 215.0 96.3 L215.4 96.0" fill="#000000" fill-opacity="0.18039216" fill-rule="evenodd" stroke="none"/>
  </g>
  <defs>
    <radialGradient cx="0" cy="0" gradientTransform="matrix(-0.2587, 0.0, 0.0, 0.3201, 367.25, 161.65)" gradientUnits="userSpaceOnUse" id="gradient0" r="819.2" spreadMethod="pad">
      <stop offset="0.20392156862745098" stop-color="#7c95a5"/>
      <stop offset="0.5529411764705883" stop-color="#626c84"/>
      <stop offset="1.0" stop-color="#73718e"/>
    </radialGradient>
    <radialGradient cx="0" cy="0" gradientTransform="matrix(-0.2587, 0.0, 0.0, 0.3201, 367.25, 161.65)" gradientUnits="userSpaceOnUse" id="gradient1" r="819.2" spreadMethod="pad">
      <stop offset="0.2235294117647059" stop-color="#a8c0c6"/>
      <stop offset="0.5529411764705883" stop-color="#8d95a5"/>
      <stop offset="0.8509803921568627" stop-color="#5b79a4"/>
    </radialGradient>
    <radialGradient cx="0" cy="0" gradientTransform="matrix(0.3146, 0.0, 0.0, 0.4091, 20.2, 121.45)" gradientUnits="userSpaceOnUse" id="gradient2" r="819.2" spreadMethod="pad">
      <stop offset="0.2235294117647059" stop-color="#a8c0c6"/>
      <stop offset="0.5529411764705883" stop-color="#8d95a5"/>
      <stop offset="0.8509803921568627" stop-color="#5b79a4"/>
    </radialGradient>
    <radialGradient cx="0" cy="0" gradientTransform="matrix(-0.0606, 0.0154, 0.0093, 0.0329, 330.95, 93.35)" gradientUnits="userSpaceOnUse" id="gradient3" r="819.2" spreadMethod="pad">
      <stop offset="0.0" stop-color="#3f3957" stop-opacity="0.6"/>
      <stop offset="0.2784313725490196" stop-color="#48425f" stop-opacity="0.3137255"/>
      <stop offset="1.0" stop-color="#a39ab2" stop-opacity="0.0"/>
    </radialGradient>
    <radialGradient cx="0" cy="0" gradientTransform="matrix(-0.0461, 0.0, 0.0, 0.0272, 237.5, 103.9)" gradientUnits="userSpaceOnUse" id="gradient4" r="819.2" spreadMethod="pad">
      <stop offset="0.0" stop-color="#1a0e1d" stop-opacity="0.8509804"/>
      <stop offset="0.20784313725490197" stop-color="#b6bada"/>
      <stop offset="1.0" stop-color="#a39ab2" stop-opacity="0.0"/>
    </radialGradient>
    <radialGradient cx="0" cy="0" gradientTransform="matrix(-0.0461, 0.0, 0.0, 0.0272, 237.5, 103.9)" gradientUnits="userSpaceOnUse" id="gradient5" r="819.2" spreadMethod="pad">
      <stop offset="0.0" stop-color="#3f3957" stop-opacity="0.6"/>
      <stop offset="0.2784313725490196" stop-color="#48425f" stop-opacity="0.3137255"/>
      <stop offset="1.0" stop-color="#a39ab2" stop-opacity="0.0"/>
    </radialGradient>
    <radialGradient cx="0" cy="0" gradientTransform="matrix(-0.0402, 0.0, 0.0, 0.0383, 286.25, 196.7)" gradientUnits="userSpaceOnUse" id="gradient6" r="819.2" spreadMethod="pad">
      <stop offset="0.0" stop-color="#eea2a2"/>
      <stop offset="1.0" stop-color="#602e28"/>
    </radialGradient>
    <radialGradient cx="0" cy="0" gradientTransform="matrix(-0.3212, 0.0, 0.0, 0.3056, 250.8, 50.5)" gradientUnits="userSpaceOnUse" id="gradient7" r="819.2" spreadMethod="pad">
      <stop offset="0.0" stop-color="#746b58"/>
      <stop offset="1.0" stop-color="#211f25"/>
    </radialGradient>
  </defs>
</svg>
