<?xml version="1.0" encoding="UTF-8" standalone="no"?>
<svg xmlns:xlink="http://www.w3.org/1999/xlink" height="298.45px" width="283.4px" xmlns="http://www.w3.org/2000/svg">
  <g transform="matrix(1.0, 0.0, 0.0, 1.0, 0.0, 0.0)">
    <path d="M79.15 90.55 Q71.55 95.2 63.1 97.75 L59.2 98.1 59.0 97.35 Q64.15 94.75 68.3 91.3 L83.4 78.1 86.05 75.6 Q91.9 69.6 96.4 62.9 92.3 65.5 87.35 66.55 L82.95 66.75 Q89.45 59.45 97.3 53.1 102.35 49.1 106.55 44.5 111.05 39.5 115.05 34.15 L108.05 34.95 105.75 34.95 Q112.0 30.75 119.1 27.2 121.65 25.85 124.1 23.95 L136.05 14.3 129.35 14.0 Q130.75 13.2 132.35 12.6 151.5 5.2 171.5 1.1 L190.15 0.55 Q194.85 1.2 199.3 2.4 203.75 0.4 208.7 1.1 L211.15 1.4 Q211.55 2.75 213.0 3.2 224.7 6.1 234.25 12.05 L236.35 13.5 242.75 18.8 Q246.7 21.95 250.95 24.65 L253.4 26.55 254.45 27.6 255.1 28.65 Q255.35 29.5 255.2 30.45 L248.05 27.35 Q252.0 33.9 257.45 39.6 262.15 44.45 265.1 50.4 259.1 49.45 254.65 46.6 L253.6 45.75 Q256.8 52.95 261.5 59.25 L269.4 70.05 269.3 70.2 256.7 64.0 265.65 96.0 Q261.05 92.95 257.8 88.55 L255.3 85.75 Q253.7 84.15 252.85 82.05 254.65 90.85 259.2 98.45 262.9 105.0 267.85 110.85 260.65 107.1 254.55 102.1 L251.65 99.65 255.3 106.5 254.7 106.15 267.45 129.4 266.75 129.5 Q262.25 127.4 258.45 124.55 253.85 121.1 250.65 116.5 253.15 124.1 257.3 130.95 263.25 140.75 270.9 149.5 L272.55 151.7 Q269.55 151.1 267.35 149.6 265.65 148.5 263.5 147.7 259.95 146.45 257.05 144.2 L251.15 139.25 243.95 131.6 Q245.2 137.55 246.9 143.15 249.15 151.15 255.0 157.25 L257.2 159.65 Q261.1 163.65 265.55 167.2 267.1 168.25 267.25 169.95 259.85 166.8 252.6 163.25 249.0 161.45 245.7 159.3 L235.0 152.0 232.75 150.1 Q229.35 147.1 226.6 143.5 L225.45 141.75 Q227.3 153.2 233.1 163.3 L238.2 172.2 Q239.45 174.4 241.4 176.0 L241.95 176.4 Q243.0 177.0 243.15 178.15 L243.2 178.7 Q239.6 177.95 237.0 175.85 230.15 170.7 223.1 166.0 221.7 165.1 220.55 164.1 217.7 161.55 215.65 158.3 L214.25 156.1 221.95 179.6 222.4 179.8 Q236.05 185.45 246.25 188.85 251.85 190.75 256.2 193.15 L263.15 197.05 Q267.75 199.25 270.05 200.8 273.35 202.8 275.0 204.75 280.8 211.6 282.65 224.4 284.2 235.05 282.6 241.0 276.8 262.35 272.35 275.1 L271.55 277.35 268.05 285.55 268.35 285.45 269.0 285.8 Q269.2 285.95 268.9 286.75 268.25 288.45 266.15 290.1 L264.9 293.05 Q263.5 296.15 262.0 298.15 261.7 297.6 261.95 296.85 L264.5 291.1 Q260.0 293.65 251.25 295.6 242.9 297.6 239.5 298.0 227.8 299.2 211.85 297.1 L181.3 291.45 Q155.1 286.4 145.75 285.15 130.7 283.2 109.9 284.1 L90.0 285.0 Q69.55 282.3 67.55 281.55 L64.0 280.05 Q60.25 278.6 52.65 276.45 L43.15 273.45 35.45 271.0 Q30.3 269.8 19.85 264.15 9.5 258.35 3.4 255.1 L0.3 260.65 0.0 260.65 1.35 256.9 2.35 254.55 0.9 253.75 Q0.55 254.35 1.0 253.25 L1.4 252.45 1.65 252.4 2.75 252.4 3.2 252.5 6.15 245.85 10.55 236.0 15.55 225.75 16.75 223.25 18.3 220.6 19.2 219.0 Q19.2 218.6 19.35 218.15 L23.65 210.7 Q27.85 203.8 29.5 201.5 34.05 194.95 35.35 193.45 39.3 188.8 44.65 185.65 L47.65 183.85 Q49.5 182.7 50.8 182.05 55.1 180.0 59.05 178.7 65.1 176.65 69.15 175.7 L80.55 172.75 Q90.05 170.3 97.4 166.05 L99.25 164.95 Q99.2 163.75 98.35 163.05 L97.4 162.25 95.0 162.55 92.9 163.4 Q85.0 167.25 77.8 171.8 78.65 166.35 82.65 161.15 86.3 156.4 87.0 151.3 75.4 160.05 62.3 166.7 L58.7 168.4 Q60.75 164.0 64.05 159.35 69.45 152.0 71.25 143.6 L71.85 140.25 72.25 136.9 Q66.15 140.0 61.55 144.8 59.85 146.65 57.75 148.2 56.7 149.0 56.0 148.5 55.65 147.9 56.0 147.3 62.6 135.85 68.1 124.3 L70.95 117.25 46.55 128.25 46.05 127.45 Q50.5 122.8 55.65 118.55 59.15 115.65 61.9 112.35 L70.9 101.75 75.2 96.25 79.15 90.55" fill="#000000" fill-opacity="0.101960786" fill-rule="evenodd" stroke="none"/>
  </g>
</svg>
