<?xml version="1.0" encoding="UTF-8" standalone="no"?>
<svg xmlns:xlink="http://www.w3.org/1999/xlink" height="322.75px" width="205.45px" xmlns="http://www.w3.org/2000/svg">
  <g transform="matrix(1.0, 0.0, 0.0, 1.0, 1.0, 0.0)">
    <path d="M196.35 155.95 L196.35 156.35 198.25 156.55 201.75 157.0 203.0 157.95 203.9 159.05 204.45 160.1 Q204.45 161.0 203.25 161.35 L196.35 161.8 195.15 161.9 Q194.5 163.05 190.85 166.5 L189.8 167.7 188.1 168.9 186.75 169.35 174.9 169.75 173.4 169.95 168.15 171.6 165.95 171.85 159.75 172.15 158.2 172.3 156.85 172.65 152.85 173.8 149.2 175.25 146.15 175.9 Q144.8 175.9 144.0 175.2 L143.85 175.65 143.85 175.75 Q143.25 175.1 142.9 173.25 L138.6 173.5 135.4 174.05 134.8 176.05 134.45 175.85 134.4 175.75 132.5 175.95 131.8 176.1 130.45 176.2 129.4 176.3 124.8 176.8 120.2 176.75 116.25 177.25 113.1 177.25 113.1 177.1 111.2 176.9 104.85 177.25 101.8 177.6 99.05 177.45 96.2 177.6 94.7 177.9 94.0 177.8 Q92.85 178.85 91.9 178.9 L91.8 179.15 91.6 179.05 91.55 178.85 91.35 178.65 91.35 178.6 84.6 178.1 78.3 177.85 76.7 177.85 77.6 180.7 Q78.05 181.9 78.05 184.35 L77.55 191.8 78.3 199.9 79.05 209.1 78.9 210.15 78.9 210.5 79.4 210.15 79.65 212.0 Q79.55 212.7 80.05 213.75 L80.05 213.85 81.05 213.8 81.3 213.75 81.5 213.95 81.6 214.0 81.6 214.05 Q82.5 215.0 82.95 216.25 L83.35 218.75 83.9 221.3 84.35 223.85 84.25 225.25 Q84.6 225.6 84.6 226.25 84.6 226.75 83.1 227.55 L85.9 231.3 Q88.25 234.4 89.25 236.4 L91.45 241.25 92.6 241.1 92.6 240.85 93.05 241.05 93.35 241.0 93.4 241.3 95.35 243.35 Q97.0 245.5 97.9 247.35 L102.4 255.0 107.0 262.8 111.75 270.6 116.25 278.35 120.5 286.15 124.1 293.8 Q126.4 298.7 128.25 301.9 L127.75 302.05 Q127.75 302.75 126.35 303.8 124.9 304.85 124.9 305.5 L124.75 306.15 124.3 306.05 124.65 307.5 Q124.65 309.75 121.65 310.8 L113.05 312.9 110.15 313.6 112.15 318.05 112.0 318.5 Q112.4 318.8 111.15 318.8 110.05 318.8 108.4 314.1 L108.4 314.0 99.25 315.5 84.35 316.0 84.65 320.1 84.5 322.3 84.3 322.45 84.15 322.75 Q82.75 320.75 82.45 317.35 L82.35 316.0 Q73.7 315.9 55.55 311.6 52.1 310.8 49.45 309.7 L48.0 309.05 Q47.2 309.55 42.65 309.95 L37.25 310.3 Q30.9 310.3 29.35 309.35 28.9 309.0 28.95 308.65 L29.1 308.25 Q29.1 306.85 29.25 305.85 L28.9 306.65 28.65 306.6 Q29.2 303.2 31.85 295.35 L33.2 289.7 Q33.85 286.9 34.8 285.25 L31.35 281.5 Q27.4 277.15 25.85 274.4 24.2 271.55 20.2 266.15 16.4 261.05 15.75 259.75 14.15 256.65 12.9 252.5 11.55 247.7 11.3 245.85 10.95 245.35 10.9 244.5 L10.85 242.5 10.75 238.75 10.75 238.7 10.6 238.65 Q9.95 238.6 9.5 238.0 L9.45 237.9 9.15 237.85 9.0 235.9 9.1 230.15 Q8.9 228.25 9.05 227.25 9.15 226.3 9.85 225.95 9.55 224.75 9.65 223.15 9.95 219.75 9.75 218.9 9.5 217.85 9.5 214.6 L9.1 212.55 Q8.75 211.15 8.9 210.25 9.55 206.75 8.85 201.8 L7.3 193.75 Q5.7 191.85 4.6 189.8 2.75 186.4 2.75 183.4 L3.25 172.0 Q3.25 167.75 1.65 149.4 0.0 131.1 0.0 115.8 L0.25 112.55 0.05 108.15 Q0.05 102.35 2.05 95.85 3.7 90.35 6.4 85.65 7.15 84.35 8.7 82.7 L11.1 80.0 Q13.3 77.25 16.25 74.4 24.4 66.45 28.65 65.05 L29.3 63.6 30.3 60.9 Q29.45 61.45 29.1 61.45 28.05 61.45 28.05 61.0 L28.45 59.9 28.8 58.45 28.8 58.15 Q26.95 59.35 26.0 59.35 25.2 59.35 25.2 57.5 L25.1 54.6 Q24.4 55.9 23.9 55.9 23.3 55.9 23.1 55.0 L22.8 53.65 Q22.5 52.8 21.75 52.65 21.15 52.5 21.15 51.8 L21.2 51.35 21.75 50.7 21.8 50.65 Q20.45 50.8 19.3 50.05 18.3 49.45 18.3 49.0 L19.05 48.15 Q19.8 47.35 19.8 46.65 L18.95 45.95 18.05 45.0 Q18.05 44.65 18.5 44.3 L19.35 43.6 Q18.25 43.25 17.7 42.25 17.3 41.5 17.3 40.65 L18.3 39.45 19.4 38.35 19.4 38.2 Q17.7 38.05 17.3 37.4 17.15 37.15 17.15 36.25 L17.55 34.75 17.35 34.45 17.15 33.85 17.15 33.0 Q17.15 31.6 17.6 30.2 L17.55 29.95 17.85 29.35 17.9 29.2 17.95 29.25 18.75 28.05 20.1 26.25 20.15 26.2 Q18.95 27.1 18.5 27.1 L17.9 26.95 Q19.5 23.35 21.6 21.4 L20.5 22.05 18.65 22.5 18.05 22.25 18.05 22.0 Q18.05 21.45 19.4 19.65 L21.0 17.65 21.8 16.55 Q22.35 15.9 23.1 15.55 24.7 14.65 25.55 13.35 L25.05 13.3 Q24.9 13.35 24.9 12.95 L25.7 11.9 26.7 10.75 27.1 9.55 Q27.5 8.8 28.5 8.8 29.75 8.8 30.3 10.3 L31.45 8.95 32.4 7.45 Q33.35 6.15 34.15 5.4 35.25 4.45 35.25 5.55 35.25 6.05 34.5 7.05 L34.5 7.15 35.75 6.4 Q36.45 5.35 40.35 3.55 42.75 2.5 45.2 1.6 L45.45 1.65 45.55 1.7 45.6 1.95 45.1 2.65 45.6 2.4 46.4 2.25 Q47.25 2.25 47.35 2.7 47.45 3.15 48.0 3.15 L49.25 2.95 50.7 1.5 Q51.85 0.0 53.6 0.0 55.05 0.0 55.05 0.7 L54.4 1.7 53.75 2.8 54.3 2.95 Q54.4 2.25 56.15 2.4 L59.85 2.65 62.85 2.95 Q64.35 3.15 64.35 3.7 64.35 4.25 62.85 4.6 L66.85 5.1 Q68.9 5.35 68.9 6.05 68.9 6.6 68.05 6.85 L66.0 7.35 66.55 7.9 69.55 7.15 75.0 6.4 Q76.8 6.1 76.8 6.95 L75.05 7.95 Q73.0 8.85 72.45 9.1 L75.2 11.0 Q76.8 12.15 76.8 12.85 76.8 13.75 75.8 13.75 L74.4 13.45 74.0 13.45 76.15 17.1 Q76.8 18.6 76.8 20.45 L76.8 21.55 76.4 21.6 75.3 20.45 74.0 18.85 Q75.15 20.6 75.15 22.65 75.05 26.5 74.1 26.5 73.85 26.5 73.15 24.8 L72.0 22.35 71.85 22.55 71.55 22.65 71.35 22.6 72.65 26.65 73.8 31.0 74.85 35.9 74.5 37.8 74.5 37.95 74.4 38.75 75.25 40.85 76.35 43.0 Q77.2 44.25 78.55 45.3 79.25 45.85 79.25 47.0 L79.1 48.2 78.6 49.2 75.9 50.7 75.6 52.35 75.75 54.1 Q75.75 55.35 74.7 55.95 L74.9 56.8 75.05 57.9 74.9 59.05 74.25 59.65 73.9 60.45 73.5 61.8 73.9 64.85 74.25 67.6 74.25 67.9 73.95 69.55 73.9 69.55 73.65 70.7 Q72.4 73.65 68.8 73.65 L66.65 73.35 65.45 72.9 64.0 72.6 63.75 72.6 63.7 72.6 63.25 72.75 Q61.25 73.35 60.0 74.25 L57.2 76.9 54.75 79.65 53.9 80.85 55.2 82.25 57.3 84.9 59.4 87.55 Q60.5 89.1 60.5 90.25 L60.5 90.4 61.05 91.75 61.25 93.35 61.65 93.65 Q62.45 94.1 63.6 96.0 64.9 98.05 65.6 100.0 66.85 101.35 67.9 103.35 L69.6 107.1 73.0 114.95 Q73.55 116.8 73.55 121.4 73.55 124.15 73.05 126.2 72.1 129.75 71.8 131.65 L71.15 134.15 Q70.65 135.7 70.5 136.75 L70.3 138.65 69.8 138.85 69.3 139.15 69.75 140.95 70.3 144.3 71.0 147.15 71.4 147.35 72.2 147.6 73.95 146.55 Q75.6 145.8 76.9 145.75 L76.95 145.85 77.05 145.75 81.55 145.35 86.85 145.0 91.3 144.75 94.05 144.75 95.6 144.95 95.65 144.85 96.65 145.0 98.65 145.05 Q101.75 145.35 102.55 146.4 L102.65 146.3 Q103.1 145.95 103.25 146.5 L103.3 146.7 103.65 147.15 103.8 147.35 105.7 147.65 Q107.05 148.05 108.8 148.75 L116.6 150.9 Q123.2 152.6 127.1 153.1 L136.85 153.85 Q138.8 153.95 138.8 154.9 L138.75 155.9 138.8 155.9 Q139.05 155.65 139.4 155.65 L140.55 155.8 141.3 155.8 142.5 155.5 142.55 154.5 142.6 153.95 142.5 153.6 Q142.5 153.25 143.15 153.25 L148.55 152.85 149.8 152.55 151.2 152.05 153.95 151.1 Q155.15 150.55 155.95 150.45 156.4 150.2 156.8 150.05 L156.8 150.0 Q156.8 149.55 158.65 149.1 L163.8 148.65 167.3 149.25 169.4 149.7 174.35 150.1 177.5 149.45 181.7 148.8 Q183.55 148.8 184.0 150.25 184.25 151.0 184.1 151.9 L184.1 152.35 184.2 152.2 184.5 152.85 Q184.5 153.95 183.6 154.9 L183.6 154.95 183.2 155.25 183.05 155.4 183.15 155.5 Q183.9 155.95 183.9 157.0 L183.9 157.25 185.3 157.45 189.6 157.05 189.6 156.95 189.6 156.9 189.7 156.9 190.8 156.75 190.6 156.9 190.7 156.85 190.9 156.85 Q191.15 155.8 193.1 155.05 195.4 154.15 196.35 155.95 M199.1 159.75 Q198.75 160.15 197.8 160.15 196.3 160.15 195.7 159.55 195.15 158.95 194.15 158.95 L192.05 159.4 191.35 159.7 190.9 160.6 Q190.3 161.55 189.2 161.55 188.1 161.55 187.3 160.55 186.55 159.55 184.95 159.55 L178.7 160.15 177.05 160.65 Q176.55 160.65 175.4 159.95 174.25 159.25 174.0 159.25 168.9 159.25 167.95 158.45 L167.9 158.65 167.6 158.25 167.45 157.7 Q167.45 157.15 169.8 155.95 171.75 154.9 172.4 154.75 172.45 154.6 172.05 154.6 L166.95 155.1 166.95 155.2 166.9 155.3 166.65 155.35 166.45 155.25 166.4 155.25 166.35 155.2 165.9 154.3 165.35 152.95 162.9 155.5 Q161.4 157.2 158.55 158.1 156.2 158.9 152.55 160.8 149.95 162.15 148.2 162.15 146.2 162.15 145.25 161.4 L144.6 160.5 143.4 159.3 143.25 162.65 Q143.25 165.75 143.55 168.75 L143.8 171.35 143.7 171.4 143.7 171.95 143.95 172.9 144.05 173.1 144.0 173.1 144.05 174.05 144.25 174.25 Q144.95 174.85 146.25 174.85 L148.4 174.35 149.9 173.7 151.25 173.2 Q152.25 172.8 152.7 172.75 L154.2 172.4 154.1 172.4 155.1 172.15 157.9 171.3 158.0 171.3 166.5 170.95 Q168.95 170.8 170.8 170.05 L171.5 169.8 171.5 169.65 171.6 169.75 172.1 169.6 Q174.5 168.6 180.0 168.85 185.95 169.1 187.8 168.1 L187.8 167.95 Q187.8 167.15 186.4 166.6 184.0 165.7 178.25 165.7 L177.65 166.0 176.3 166.6 173.3 167.1 171.15 166.9 170.7 166.5 170.7 166.2 171.35 166.2 171.95 166.1 174.5 165.75 176.25 165.15 177.6 164.55 179.0 164.5 182.85 164.25 186.1 164.05 187.5 163.65 190.9 162.25 Q192.15 161.65 193.3 161.35 L193.35 161.15 199.65 160.65 Q203.4 160.65 203.4 160.1 L203.2 159.6 201.6 159.3 Q199.4 159.3 199.1 159.75 M192.0 162.55 L191.15 162.95 191.15 163.05 190.9 165.25 193.95 162.15 193.0 162.35 192.65 162.45 192.05 162.65 192.2 162.55 192.0 162.55 M62.95 19.8 Q62.15 19.0 60.45 18.75 L61.05 21.1 60.9 21.25 Q60.25 21.25 60.05 21.05 L59.45 20.65 56.9 20.05 56.65 20.0 56.55 20.25 Q56.55 20.65 57.5 22.95 L58.1 25.75 59.1 31.15 58.7 31.3 Q57.9 31.3 57.2 29.55 L56.25 27.1 56.15 27.1 56.15 28.3 56.2 31.4 56.3 34.6 57.15 37.85 Q57.8 39.8 57.8 40.85 L57.75 41.1 57.45 41.2 Q56.7 41.2 55.65 39.25 L55.4 38.75 54.8 43.95 Q54.8 47.9 56.65 50.6 59.1 54.15 59.85 57.4 L60.45 60.7 61.2 64.05 62.85 67.1 Q64.95 70.05 67.55 70.05 L70.95 69.6 71.55 69.1 72.4 68.65 73.2 68.25 73.3 67.9 73.25 67.75 73.05 65.95 Q72.75 64.25 72.75 62.35 72.75 61.2 73.05 60.15 73.3 59.25 73.75 59.05 L73.8 58.9 74.25 57.95 74.2 57.2 73.45 57.4 71.7 57.75 68.9 57.7 68.85 57.45 Q68.85 56.85 71.1 56.25 L73.85 55.7 Q73.9 55.35 74.3 55.15 L74.9 54.3 74.9 53.85 Q72.7 54.0 71.25 54.7 L68.9 56.2 68.55 56.1 Q68.45 56.4 68.45 56.0 L68.65 55.7 Q68.75 55.3 70.15 53.95 71.7 52.5 71.7 52.0 L70.8 50.35 Q69.9 48.65 69.9 47.65 69.9 45.5 71.65 44.95 L75.05 44.8 74.75 45.0 74.75 45.05 75.05 44.85 75.25 44.9 75.3 45.15 73.85 46.3 71.85 47.7 73.0 48.5 74.25 49.0 75.15 49.55 75.7 49.95 76.9 49.3 Q78.6 48.45 78.6 47.0 78.6 46.15 77.55 45.4 76.0 44.3 75.05 42.9 L74.2 41.05 73.9 40.25 73.6 38.5 73.6 38.45 73.85 36.2 71.85 27.3 70.4 22.9 69.65 20.65 69.05 19.45 69.25 21.15 69.5 24.0 69.45 24.9 69.3 25.0 Q68.25 25.0 67.85 23.2 67.25 20.4 66.2 18.85 66.1 21.55 65.7 23.1 L65.4 23.25 64.75 22.2 63.9 20.95 62.95 19.8 M42.5 35.15 L41.55 35.4 Q40.75 35.75 40.05 36.75 39.0 38.6 39.0 39.7 39.0 41.2 39.6 43.1 39.65 41.4 40.5 40.2 41.55 38.7 44.0 37.5 L43.3 36.25 43.15 36.15 43.05 36.0 43.15 35.95 43.05 35.8 43.1 35.8 42.5 35.15 M46.2 48.1 Q47.1 50.05 48.15 50.05 48.95 50.05 49.2 47.95 49.2 46.7 48.7 44.9 48.15 42.85 47.55 42.85 L47.7 43.45 Q47.7 44.15 47.3 44.65 L44.55 44.8 46.2 48.1 M72.75 36.55 L72.65 37.45 72.6 37.45 72.6 37.5 72.4 37.75 72.45 38.05 72.1 38.9 72.05 39.15 71.9 39.45 71.8 39.7 71.8 39.65 71.7 39.6 68.85 41.1 68.35 41.3 65.95 42.2 64.2 42.7 64.0 42.65 64.0 42.4 Q64.1 42.1 65.6 41.25 L67.35 40.15 67.1 40.1 66.6 39.95 64.75 39.1 63.15 38.4 62.2 38.1 62.3 37.8 Q62.4 37.4 63.55 37.25 L65.35 37.1 67.0 37.15 70.15 37.55 70.45 37.65 69.65 36.75 68.9 35.95 68.75 35.8 Q68.0 35.0 67.15 34.35 L66.55 34.65 66.25 34.75 65.45 35.05 64.55 35.15 64.35 35.05 64.4 35.0 64.35 34.95 64.9 34.55 65.3 34.4 66.55 33.85 67.75 33.25 68.2 33.15 Q68.75 33.1 69.3 33.5 L69.65 33.75 71.35 35.2 72.25 36.0 72.75 36.55 M75.2 48.05 Q76.0 48.3 75.9 48.85 L75.75 48.9 Q74.1 48.65 73.85 48.15 L75.2 48.05 M39.65 55.6 Q39.65 57.5 41.1 63.85 41.45 65.4 42.9 68.0 L45.05 71.9 45.8 72.7 Q49.3 76.0 51.95 79.35 L52.35 79.6 53.5 80.5 Q54.5 78.35 56.4 76.35 L56.45 76.1 56.55 75.55 56.35 72.4 55.2 69.1 Q54.35 67.2 52.95 65.8 L51.45 64.5 50.65 63.45 Q50.0 62.55 49.6 61.25 L48.9 58.75 47.8 54.15 47.65 54.25 Q47.15 54.7 46.7 54.7 45.25 54.7 44.35 53.15 43.85 52.3 43.65 51.25 43.15 49.25 41.8 48.1 L41.1 49.55 40.2 51.75 Q39.65 53.95 39.65 55.6 M36.0 71.8 Q39.55 72.4 44.15 84.5 48.5 96.05 48.5 102.15 48.5 108.2 46.0 113.4 43.5 118.6 43.5 123.55 43.5 126.6 44.95 131.2 L46.6 135.65 47.3 136.8 48.05 138.15 48.85 137.9 49.2 137.75 49.2 137.6 52.85 129.2 Q56.75 120.35 57.65 116.95 L59.2 110.2 59.15 110.05 Q59.15 109.6 59.3 109.5 60.15 104.45 60.4 99.5 L60.35 99.45 60.45 97.45 60.45 97.1 60.45 96.7 60.45 96.25 Q60.45 93.1 60.0 91.75 L59.55 90.5 59.2 89.75 58.65 88.3 56.55 85.6 54.5 83.1 51.6 80.35 44.55 75.25 42.25 73.95 40.25 72.9 Q37.8 72.2 36.8 71.65 L36.3 71.55 36.0 71.6 36.0 71.8 M62.25 95.75 L61.9 95.5 Q63.3 98.6 64.55 103.25 66.35 109.9 67.15 112.0 69.4 117.65 69.8 120.6 70.3 123.7 70.3 129.15 L69.85 134.6 69.6 137.25 Q69.95 134.45 71.0 130.15 72.55 123.7 72.55 121.35 72.55 115.9 68.45 107.6 L62.25 95.45 62.25 95.65 62.25 95.75 M76.65 157.35 Q77.35 159.8 79.0 163.8 L81.1 169.05 Q81.25 168.4 81.95 167.65 83.0 166.6 83.9 167.0 84.75 167.35 85.6 168.55 L86.75 170.25 88.15 168.8 89.65 167.4 Q90.15 167.9 90.35 168.9 L90.75 170.6 Q91.0 171.3 92.25 171.9 L93.3 172.4 94.4 169.0 95.45 168.95 95.4 169.15 Q96.8 169.25 97.85 169.95 L98.9 170.75 Q102.2 170.75 103.0 170.0 L104.3 168.75 105.25 171.05 106.35 173.35 Q107.25 172.9 110.95 169.0 111.3 169.0 112.05 170.5 L112.9 172.0 119.35 171.5 121.05 170.35 121.3 170.55 122.2 169.75 123.85 168.0 124.2 166.8 124.6 165.65 Q125.3 165.95 125.75 167.6 L126.25 170.0 130.05 170.25 131.3 169.95 132.55 169.6 Q133.8 169.6 134.55 170.1 L134.95 170.5 135.7 165.85 136.15 163.3 134.9 163.35 129.8 164.0 Q127.85 164.0 124.35 162.5 L121.45 161.15 121.8 163.8 Q122.05 165.75 122.5 166.75 L122.5 168.75 Q122.55 169.0 121.95 169.0 119.15 165.9 118.5 164.9 L118.0 163.95 Q117.75 163.65 116.6 163.25 113.9 162.4 112.25 162.35 L108.05 162.5 Q105.55 162.45 99.5 159.6 L99.2 159.15 98.25 158.8 97.55 158.85 97.1 158.65 94.25 158.5 91.1 156.65 Q90.55 157.6 90.35 159.8 L89.75 163.0 Q88.1 161.85 86.65 159.65 L84.25 156.15 84.15 165.5 83.6 165.65 Q82.9 165.65 80.5 162.25 77.75 158.3 76.65 157.35 M71.15 177.3 Q72.0 178.1 72.7 180.0 L73.55 183.0 74.15 186.05 74.55 189.35 74.2 194.95 73.8 200.4 Q73.8 203.05 74.8 207.7 L75.75 212.4 Q76.5 212.35 76.7 213.25 L77.1 215.15 78.5 214.45 78.9 214.25 Q78.55 213.15 78.55 212.15 L78.55 212.05 Q77.95 210.25 77.8 207.7 L77.55 202.35 76.95 197.2 76.55 191.95 77.1 181.8 76.35 179.5 75.8 177.85 74.8 177.65 71.15 177.3 M117.9 175.85 L117.65 175.9 117.75 175.9 117.9 175.85 M81.9 217.0 L81.35 215.55 80.9 214.55 79.85 215.25 79.8 215.25 77.15 216.65 77.15 216.75 76.8 216.9 76.7 216.85 Q74.75 217.7 72.4 218.55 L72.4 218.7 Q72.4 219.7 65.95 223.1 L58.0 227.15 57.9 227.25 61.3 226.15 64.25 225.25 74.3 223.0 74.65 223.15 74.8 223.7 Q74.8 224.6 73.25 225.55 70.75 227.1 70.15 227.6 L70.05 227.75 74.45 227.25 Q75.7 227.25 75.9 227.95 L75.8 229.1 77.4 228.5 Q81.75 226.75 83.55 225.5 83.05 224.5 82.25 220.0 L81.9 217.0 M87.5 243.9 L84.3 244.85 Q86.25 246.05 87.95 247.7 90.05 249.8 91.0 251.9 92.7 253.7 93.25 256.1 L94.0 260.3 95.2 268.5 Q95.85 273.75 96.9 277.0 97.85 279.85 100.9 285.45 104.1 291.25 105.05 293.9 106.05 296.65 107.2 302.2 L108.45 307.65 109.4 308.0 108.9 308.15 108.65 308.35 109.35 310.6 109.35 310.75 108.5 309.15 Q108.55 309.95 109.8 312.9 L112.55 311.75 Q115.2 310.95 119.95 310.3 123.4 309.6 123.4 307.5 L122.1 303.65 121.25 301.45 121.25 301.4 122.15 299.9 123.15 302.75 123.7 304.25 124.7 302.75 Q125.45 301.85 126.4 301.5 125.55 300.7 124.75 298.9 L123.05 294.4 121.2 290.6 119.25 286.75 115.1 279.15 110.65 271.55 Q106.4 263.6 101.8 256.35 L97.15 248.65 92.9 241.9 91.9 242.35 92.15 242.85 Q91.4 242.6 90.8 242.85 L90.75 242.8 87.5 243.9" fill="#000000" fill-rule="evenodd" stroke="none"/>
    <path d="M192.0 162.55 L192.2 162.55 192.05 162.65 192.65 162.45 193.0 162.35 193.95 162.15 190.9 165.25 191.15 163.05 191.15 162.95 192.0 162.55 M199.1 159.75 Q199.4 159.3 201.6 159.3 L203.2 159.6 203.4 160.1 Q203.4 160.65 199.65 160.65 L193.35 161.15 193.3 161.35 Q192.15 161.65 190.9 162.25 L187.5 163.65 186.1 164.05 182.85 164.25 179.0 164.5 177.6 164.55 176.25 165.15 174.5 165.75 171.95 166.1 171.35 166.2 170.7 166.2 170.7 166.5 171.15 166.9 173.3 167.1 176.3 166.6 177.65 166.0 178.25 165.7 Q184.0 165.7 186.4 166.6 187.8 167.15 187.8 167.95 L187.8 168.1 Q185.95 169.1 180.0 168.85 174.5 168.6 172.1 169.6 L171.6 169.75 171.5 169.65 171.5 169.8 170.8 170.05 Q168.95 170.8 166.5 170.95 L158.0 171.3 157.9 171.3 155.1 172.15 154.1 172.4 154.2 172.4 152.7 172.75 Q152.25 172.8 151.25 173.2 L149.9 173.7 148.4 174.35 146.25 174.85 Q144.95 174.85 144.25 174.25 L144.05 174.05 144.0 173.1 144.05 173.1 143.95 172.9 143.7 171.95 143.7 171.4 143.8 171.35 143.55 168.75 Q143.25 165.75 143.25 162.65 L143.4 159.3 144.6 160.5 145.25 161.4 Q146.2 162.15 148.2 162.15 149.95 162.15 152.55 160.8 156.2 158.9 158.55 158.1 161.4 157.2 162.9 155.5 L165.35 152.95 165.9 154.3 166.35 155.2 166.4 155.25 166.45 155.25 166.65 155.35 166.9 155.3 166.95 155.2 166.95 155.1 172.05 154.6 Q172.45 154.6 172.4 154.75 171.75 154.9 169.8 155.95 167.45 157.15 167.45 157.7 L167.6 158.25 167.9 158.65 167.95 158.45 Q168.9 159.25 174.0 159.25 174.25 159.25 175.4 159.95 176.55 160.65 177.05 160.65 L178.7 160.15 184.95 159.55 Q186.55 159.55 187.3 160.55 188.1 161.55 189.2 161.55 190.3 161.55 190.9 160.6 L191.35 159.7 192.05 159.4 194.15 158.95 Q195.15 158.95 195.7 159.55 196.3 160.15 197.8 160.15 198.75 160.15 199.1 159.75 M71.15 177.3 L74.8 177.65 75.8 177.85 76.35 179.5 77.1 181.8 76.55 191.95 76.95 197.2 77.55 202.35 77.8 207.7 Q77.95 210.25 78.55 212.05 L78.55 212.15 Q78.55 213.15 78.9 214.25 L78.5 214.45 77.1 215.15 76.7 213.25 Q76.5 212.35 75.75 212.4 L74.8 207.7 Q73.8 203.05 73.8 200.4 L74.2 194.95 74.55 189.35 74.15 186.05 73.55 183.0 72.7 180.0 Q72.0 178.1 71.15 177.3 M81.9 217.0 L82.25 220.0 Q83.05 224.5 83.55 225.5 81.75 226.75 77.4 228.5 L75.8 229.1 75.9 227.95 Q75.7 227.25 74.45 227.25 L70.05 227.75 70.15 227.6 Q70.75 227.1 73.25 225.55 74.8 224.6 74.8 223.7 L74.65 223.15 74.3 223.0 64.25 225.25 61.3 226.15 57.9 227.25 58.0 227.15 65.95 223.1 Q72.4 219.7 72.4 218.7 L72.4 218.55 Q74.75 217.7 76.7 216.85 L76.8 216.9 77.15 216.75 77.15 216.65 79.8 215.25 79.85 215.25 80.9 214.55 81.35 215.55 81.9 217.0" fill="#6c5c46" fill-rule="evenodd" stroke="none"/>
    <path d="M39.65 55.6 Q39.65 53.95 40.2 51.75 L41.1 49.55 41.8 48.1 Q43.15 49.25 43.65 51.25 43.85 52.3 44.35 53.15 45.25 54.7 46.7 54.7 47.15 54.7 47.65 54.25 L47.8 54.15 48.9 58.75 49.6 61.25 Q50.0 62.55 50.65 63.45 L51.45 64.5 52.95 65.8 Q54.35 67.2 55.2 69.1 L56.35 72.4 56.55 75.55 56.45 76.1 56.4 76.35 Q54.5 78.35 53.5 80.5 L52.35 79.6 51.95 79.35 Q49.3 76.0 45.8 72.7 L45.05 71.9 42.9 68.0 Q41.45 65.4 41.1 63.85 39.65 57.5 39.65 55.6 M75.2 48.05 L73.85 48.15 Q74.1 48.65 75.75 48.9 L75.9 48.85 Q76.0 48.3 75.2 48.05 M72.75 36.55 L72.25 36.0 71.35 35.2 69.65 33.75 69.3 33.5 Q68.75 33.1 68.2 33.15 L67.75 33.25 66.55 33.85 65.3 34.4 64.9 34.55 64.35 34.95 64.4 35.0 64.35 35.05 64.55 35.15 65.45 35.05 66.25 34.75 66.55 34.65 67.15 34.35 Q68.0 35.0 68.75 35.8 L68.9 35.95 69.65 36.75 70.45 37.65 70.15 37.55 67.0 37.15 65.35 37.1 63.55 37.25 Q62.4 37.4 62.3 37.8 L62.2 38.1 63.15 38.4 64.75 39.1 66.6 39.95 67.1 40.1 67.35 40.15 65.6 41.25 Q64.1 42.1 64.0 42.4 L64.0 42.65 64.2 42.7 65.95 42.2 68.35 41.3 68.85 41.1 71.7 39.6 71.8 39.65 71.8 39.7 71.9 39.45 72.05 39.15 72.1 38.9 72.45 38.05 72.4 37.75 72.6 37.5 72.6 37.45 72.65 37.45 72.75 36.55 M46.2 48.1 L44.55 44.8 47.3 44.65 Q47.7 44.15 47.7 43.45 L47.55 42.85 Q48.15 42.85 48.7 44.9 49.2 46.7 49.2 47.95 48.95 50.05 48.15 50.05 47.1 50.05 46.2 48.1 M42.5 35.15 L43.1 35.8 43.05 35.8 43.15 35.95 43.05 36.0 43.15 36.15 43.3 36.25 44.0 37.5 Q41.55 38.7 40.5 40.2 39.65 41.4 39.6 43.1 39.0 41.2 39.0 39.7 39.0 38.6 40.05 36.75 40.75 35.75 41.55 35.4 L42.5 35.15 M62.95 19.8 L63.9 20.95 64.75 22.2 65.4 23.25 65.7 23.1 Q66.1 21.55 66.2 18.85 67.25 20.4 67.85 23.2 68.25 25.0 69.3 25.0 L69.45 24.9 69.5 24.0 69.25 21.15 69.05 19.45 69.65 20.65 70.4 22.9 71.85 27.3 73.85 36.2 73.6 38.45 73.6 38.5 73.9 40.25 74.2 41.05 75.05 42.9 Q76.0 44.3 77.55 45.4 78.6 46.15 78.6 47.0 78.6 48.45 76.9 49.3 L75.7 49.95 75.15 49.55 74.25 49.0 73.0 48.5 71.85 47.7 73.85 46.3 75.3 45.15 75.25 44.9 75.05 44.85 74.75 45.05 74.75 45.0 75.05 44.8 71.65 44.95 Q69.9 45.5 69.9 47.65 69.9 48.65 70.8 50.35 L71.7 52.0 Q71.7 52.5 70.15 53.95 68.75 55.3 68.65 55.7 L68.45 56.0 Q68.45 56.4 68.55 56.1 L68.9 56.2 71.25 54.7 Q72.7 54.0 74.9 53.85 L74.9 54.3 74.3 55.15 Q73.9 55.35 73.85 55.7 L71.1 56.25 Q68.85 56.85 68.85 57.45 L68.9 57.7 71.7 57.75 73.45 57.4 74.2 57.2 74.25 57.95 73.8 58.9 73.75 59.05 Q73.3 59.25 73.05 60.15 72.75 61.2 72.75 62.35 72.75 64.25 73.05 65.95 L73.25 67.75 73.3 67.9 73.2 68.25 72.4 68.65 71.55 69.1 70.95 69.6 67.55 70.05 Q64.95 70.05 62.85 67.1 L61.2 64.05 60.45 60.7 59.85 57.4 Q59.1 54.15 56.65 50.6 54.8 47.9 54.8 43.95 L55.4 38.75 55.65 39.25 Q56.7 41.2 57.45 41.2 L57.75 41.1 57.8 40.85 Q57.8 39.8 57.15 37.85 L56.3 34.6 56.2 31.4 56.15 28.3 56.15 27.1 56.25 27.1 57.2 29.55 Q57.9 31.3 58.7 31.3 L59.1 31.15 58.1 25.75 57.5 22.95 Q56.55 20.65 56.55 20.25 L56.65 20.0 56.9 20.05 59.45 20.65 60.05 21.05 Q60.25 21.25 60.9 21.25 L61.05 21.1 60.45 18.75 Q62.15 19.0 62.95 19.8" fill="url(#gradient0)" fill-rule="evenodd" stroke="none"/>
    <path d="M76.65 157.35 Q77.75 158.3 80.5 162.25 82.9 165.65 83.6 165.65 L84.15 165.5 84.25 156.15 86.65 159.65 Q88.1 161.85 89.75 163.0 L90.35 159.8 Q90.55 157.6 91.1 156.65 L94.25 158.5 97.1 158.65 97.55 158.85 98.25 158.8 99.2 159.15 99.5 159.6 Q105.55 162.45 108.05 162.5 L112.25 162.35 Q113.9 162.4 116.6 163.25 117.75 163.65 118.0 163.95 L118.5 164.9 Q119.15 165.9 121.95 169.0 122.55 169.0 122.5 168.75 L122.5 166.75 Q122.05 165.75 121.8 163.8 L121.45 161.15 124.35 162.5 Q127.85 164.0 129.8 164.0 L134.9 163.35 136.15 163.3 135.7 165.85 134.95 170.5 134.55 170.1 Q133.8 169.6 132.55 169.6 L131.3 169.95 130.05 170.25 126.25 170.0 125.75 167.6 Q125.3 165.95 124.6 165.65 L124.2 166.8 123.85 168.0 122.2 169.75 121.3 170.55 121.05 170.35 119.35 171.5 112.9 172.0 112.05 170.5 Q111.3 169.0 110.95 169.0 107.25 172.9 106.35 173.35 L105.25 171.05 104.3 168.75 103.0 170.0 Q102.2 170.75 98.9 170.75 L97.85 169.95 Q96.8 169.25 95.4 169.15 L95.45 168.95 94.4 169.0 93.3 172.4 92.25 171.9 Q91.0 171.3 90.75 170.6 L90.35 168.9 Q90.15 167.9 89.65 167.4 L88.15 168.8 86.75 170.25 85.6 168.55 Q84.75 167.35 83.9 167.0 83.0 166.6 81.95 167.65 81.25 168.4 81.1 169.05 L79.0 163.8 Q77.35 159.8 76.65 157.35 M62.25 95.75 L62.25 95.65 62.25 95.45 68.45 107.6 Q72.55 115.9 72.55 121.35 72.55 123.7 71.0 130.15 69.95 134.45 69.6 137.25 L69.85 134.6 70.3 129.15 Q70.3 123.7 69.8 120.6 69.4 117.65 67.15 112.0 66.35 109.9 64.55 103.25 63.3 98.6 61.9 95.5 L62.25 95.75 M36.0 71.8 L36.0 71.6 36.3 71.55 36.8 71.65 Q37.8 72.2 40.25 72.9 L42.25 73.95 44.55 75.25 51.6 80.35 54.5 83.1 56.55 85.6 58.65 88.3 59.2 89.75 59.55 90.5 60.0 91.75 Q60.45 93.1 60.45 96.25 L60.45 96.7 60.45 97.1 60.45 97.45 60.35 99.45 60.4 99.5 Q60.15 104.45 59.3 109.5 59.15 109.6 59.15 110.05 L59.2 110.2 57.65 116.95 Q56.75 120.35 52.85 129.2 L49.2 137.6 49.2 137.75 48.85 137.9 48.05 138.15 47.3 136.8 46.6 135.65 44.95 131.2 Q43.5 126.6 43.5 123.55 43.5 118.6 46.0 113.4 48.5 108.2 48.5 102.15 48.5 96.05 44.15 84.5 39.55 72.4 36.0 71.8 M87.5 243.9 L90.75 242.8 90.8 242.85 Q91.4 242.6 92.15 242.85 L91.9 242.35 92.9 241.9 97.15 248.65 101.8 256.35 Q106.4 263.6 110.65 271.55 L115.1 279.15 119.25 286.75 121.2 290.6 123.05 294.4 124.75 298.9 Q125.55 300.7 126.4 301.5 125.45 301.85 124.7 302.75 L123.7 304.25 123.15 302.75 122.15 299.9 121.25 301.4 121.25 301.45 122.1 303.65 123.4 307.5 Q123.4 309.6 119.95 310.3 115.2 310.95 112.55 311.75 L109.8 312.9 Q108.55 309.95 108.5 309.15 L109.35 310.75 109.35 310.6 108.65 308.35 108.9 308.15 109.4 308.0 108.45 307.65 107.2 302.2 Q106.05 296.65 105.05 293.9 104.1 291.25 100.9 285.45 97.85 279.85 96.9 277.0 95.85 273.75 95.2 268.5 L94.0 260.3 93.25 256.1 Q92.7 253.7 91.0 251.9 90.05 249.8 87.95 247.7 86.25 246.05 84.3 244.85 L87.5 243.9" fill="url(#gradient1)" fill-rule="evenodd" stroke="none"/>
    <path d="M198.1 160.85 Q197.45 161.55 195.15 161.9 L186.8 163.0 184.8 163.5 182.8 164.0 174.05 163.5 Q172.8 162.6 171.3 161.9 L169.4 161.4 166.55 161.0 163.55 159.65 Q162.95 159.65 159.05 162.6 155.1 165.5 150.05 165.5 147.65 165.5 143.75 164.15 139.5 162.6 139.5 161.25 139.5 160.4 140.2 159.8 141.1 158.9 143.0 158.9 L145.7 159.7 Q148.15 160.5 150.3 160.5 153.35 160.5 157.85 157.25 160.85 155.15 162.55 153.25 163.5 152.15 168.2 152.4 172.9 152.6 174.05 153.75 175.05 154.4 175.35 155.6 175.7 156.9 174.8 157.9 L178.2 158.5 182.3 159.25 188.5 158.6 195.3 157.9 Q197.4 157.9 198.55 158.65 L199.8 159.75 Q198.85 160.0 198.1 160.85 M70.9 22.95 Q70.9 23.95 70.2 24.65 69.5 25.4 68.4 25.4 L66.55 24.7 Q65.1 24.0 63.5 24.0 59.45 24.0 59.25 28.15 59.2 30.35 59.9 33.4 L59.35 38.85 58.9 42.95 Q58.9 44.45 61.05 50.15 L63.4 56.25 Q63.7 57.15 64.4 63.0 65.7 68.4 69.0 68.4 69.8 68.4 71.1 67.55 L72.5 66.65 Q74.05 66.65 74.15 68.55 74.15 69.7 73.15 71.0 71.75 72.9 69.0 72.9 63.6 72.9 61.1 67.05 L58.65 58.0 55.95 50.5 Q54.15 45.7 54.15 42.8 L55.25 23.3 Q55.25 22.7 54.7 22.2 54.15 21.7 54.15 21.05 54.15 16.5 62.65 18.15 63.7 13.15 67.4 16.6 70.9 19.95 70.9 22.95 M49.4 33.7 Q49.4 34.9 47.65 39.9 L48.0 39.85 49.0 39.75 Q51.05 39.75 51.4 42.55 51.6 43.95 51.4 45.45 L51.4 48.65 Q51.05 51.0 49.0 51.0 48.3 51.0 47.5 50.55 L46.25 50.0 48.4 52.35 Q50.2 54.25 50.5 55.25 50.85 56.75 50.4 60.3 50.4 61.95 54.05 65.6 57.65 69.25 57.65 73.65 57.65 75.05 56.75 76.75 55.8 78.6 54.65 78.75 L53.0 73.85 Q51.75 70.05 49.5 68.25 46.8 66.15 46.3 62.75 46.15 59.15 45.75 57.75 45.45 56.9 43.45 54.95 41.45 53.1 41.25 52.15 41.05 51.15 38.6 46.9 L37.85 44.6 Q37.3 42.85 36.1 41.65 34.55 40.1 35.1 38.7 36.0 37.3 36.0 36.4 L35.15 34.7 Q34.25 33.55 34.25 33.2 34.25 31.0 35.5 31.15 L38.35 31.75 Q40.3 31.75 41.95 30.05 43.45 28.45 45.0 28.75 47.9 30.2 48.75 31.25 49.4 32.1 49.4 33.7 M63.25 35.95 Q64.55 34.55 66.3 34.2 70.65 33.25 70.65 38.4 70.65 40.0 69.4 41.4 67.75 43.25 64.5 43.25 62.35 43.25 61.9 41.45 L61.9 39.45 Q61.9 37.5 63.25 35.95 M36.25 67.0 L40.95 69.5 Q44.85 71.6 46.5 73.15 L54.5 81.4 Q58.6 85.4 59.95 89.95 60.9 93.0 60.9 98.25 60.9 110.95 56.4 124.15 L51.25 139.05 Q47.35 149.0 45.15 149.0 43.25 149.0 42.65 147.9 L42.4 146.65 49.3 128.8 Q56.15 110.1 56.15 98.05 56.15 94.5 53.95 89.95 52.0 86.0 48.9 82.15 44.05 76.05 41.0 74.5 37.95 73.0 37.4 71.05 L36.25 67.15 36.25 67.0 M9.1 197.0 Q9.3 197.75 12.0 201.15 14.6 204.35 14.6 205.45 14.6 210.05 12.0 212.0 9.35 214.0 9.35 218.95 L10.1 219.2 Q11.0 219.6 11.5 220.9 L11.05 221.55 Q10.6 222.05 10.6 222.8 10.6 224.3 12.0 225.2 L13.6 226.3 Q14.35 228.1 14.35 230.2 14.35 230.9 13.85 231.55 13.3 232.3 12.5 232.3 8.85 232.3 8.1 230.75 L6.35 227.55 4.85 228.95 Q4.15 229.65 3.6 229.65 1.65 229.65 1.15 228.65 1.0 228.35 1.0 227.45 1.0 226.65 1.4 226.1 L2.25 225.15 Q-1.0 226.0 -1.0 223.2 -1.0 222.05 0.65 220.85 L4.5 217.8 4.75 217.4 Q3.45 218.05 2.25 218.05 -0.05 218.05 -0.5 217.15 L-0.5 216.15 Q-0.5 214.6 4.95 211.8 10.35 209.0 10.35 206.3 10.35 205.2 7.45 202.6 4.5 199.95 4.5 198.65 4.5 196.0 6.2 194.55 8.05 193.0 9.1 197.0 M69.4 175.4 Q69.4 173.55 70.65 172.9 71.8 172.3 73.4 172.9 77.45 174.45 77.75 179.4 78.4 183.15 78.4 190.65 78.4 198.15 79.4 213.55 79.4 214.55 78.95 215.35 78.35 216.55 77.0 216.55 74.65 216.55 73.35 212.25 73.0 211.1 72.15 206.15 71.9 204.35 72.05 201.1 L72.15 196.0 71.15 185.5 70.25 180.15 69.4 175.4 M88.25 242.45 L90.75 244.8 Q93.3 246.95 94.6 249.9 L96.5 254.95 Q97.7 257.6 98.25 264.5 98.8 271.05 100.9 274.9 L106.4 284.85 111.5 295.15 114.3 304.15 Q116.9 312.95 116.9 314.75 116.9 316.0 116.0 317.2 115.05 318.45 114.0 318.45 112.8 318.45 110.85 317.6 108.25 316.45 108.25 314.7 108.25 312.05 107.75 309.9 L106.25 304.8 Q105.3 301.9 104.9 299.7 102.8 288.3 97.65 279.9 95.55 276.4 93.65 269.7 93.2 268.05 93.35 264.7 93.5 261.2 93.15 259.55 91.95 254.1 88.75 249.45 88.25 248.75 83.45 244.4 79.25 240.6 79.25 239.7 79.25 238.2 80.95 238.25 82.65 238.3 85.15 239.95 86.3 240.6 88.25 242.45 M76.7 218.25 L77.65 221.9 79.35 224.95 80.75 227.7 Q80.75 228.3 78.0 231.3 75.25 234.3 74.65 234.3 73.8 234.3 71.15 233.05 L67.5 231.15 Q67.05 230.85 66.2 228.85 65.65 227.4 63.5 227.4 62.75 227.4 60.7 228.85 L58.75 230.3 Q56.4 230.3 55.25 228.9 54.5 227.95 54.5 227.0 54.5 225.85 63.3 221.0 71.25 216.6 73.0 216.05 76.05 216.35 76.7 218.25" fill="#000000" fill-opacity="0.101960786" fill-rule="evenodd" stroke="none"/>
    <path d="M11.4 196.15 L11.65 197.5 Q12.25 199.1 13.0 200.25 L13.4 201.45 13.6 202.9 13.3 206.95 12.9 208.6 13.0 208.65 12.8 208.85 12.75 209.0 Q12.45 209.7 12.45 210.7 L12.9 212.05 13.35 213.85 12.85 216.25 12.85 221.65 13.05 223.0 13.5 223.9 13.6 224.45 Q13.6 225.85 12.75 227.6 11.75 229.6 10.15 230.4 8.95 231.55 7.95 231.55 6.7 231.55 6.7 229.5 L7.15 227.8 7.2 227.7 5.25 229.15 Q3.75 230.25 3.1 230.25 1.65 230.25 1.55 228.85 1.45 227.85 1.75 227.35 L1.75 227.25 Q0.7 227.35 0.5 226.6 L0.25 225.4 0.0 224.4 -0.2 223.3 Q-0.2 222.65 0.4 222.05 1.1 221.3 2.35 221.05 3.05 220.9 4.0 220.15 L5.5 218.85 5.55 218.8 Q3.45 219.7 2.15 219.7 0.5 219.7 0.0 218.35 L-0.2 216.85 Q-0.2 215.1 1.0 214.7 L5.25 213.3 5.65 213.1 5.85 213.0 9.55 210.7 11.4 209.25 12.15 208.8 12.35 207.65 Q12.9 204.95 12.9 202.9 12.9 201.65 12.3 200.45 L11.75 199.4 10.5 200.6 Q9.05 201.55 7.2 201.55 5.6 201.55 4.9 200.0 4.45 199.1 4.45 198.3 4.45 197.4 4.7 197.0 L4.8 196.9 4.75 196.75 4.9 196.75 6.25 195.7 8.1 194.65 9.0 193.95 Q9.45 193.5 9.8 193.5 L9.55 192.45 Q10.2 192.5 10.45 193.35 L10.9 194.8 Q11.25 195.3 11.4 196.15 M7.2 199.95 L7.05 198.9 Q6.45 197.5 5.4 197.35 5.05 197.85 5.05 198.3 5.05 198.8 5.55 199.65 6.25 200.85 7.2 200.85 L7.35 200.85 7.3 200.55 7.3 200.5 7.2 199.95 M5.35 214.0 L3.25 214.8 Q1.3 215.3 0.75 215.8 0.4 216.1 0.4 216.85 0.4 219.1 1.95 219.1 L3.85 218.7 5.8 218.05 7.3 217.5 Q8.2 216.6 8.2 215.9 8.2 213.45 5.9 213.75 L5.35 214.0 M5.55 219.95 L4.8 220.45 Q3.55 221.45 1.65 222.05 0.45 222.4 0.45 223.25 0.45 224.2 0.7 224.8 L1.45 226.65 Q2.3 226.25 4.95 225.0 L4.95 224.8 6.6 223.6 Q8.25 222.35 8.25 221.15 L8.3 220.55 7.75 220.05 6.55 219.95 5.55 219.95 M8.35 225.7 Q8.35 225.0 6.1 225.0 L4.2 226.25 Q2.1 227.45 2.1 228.25 2.1 229.65 3.1 229.65 L4.85 228.45 Q6.3 227.4 7.35 227.05 8.35 226.15 8.35 225.7 M7.3 229.4 Q7.3 230.95 8.05 230.95 L8.4 230.9 8.6 230.4 8.8 229.75 Q8.8 229.0 8.0 228.5 L7.7 228.3 Q7.3 228.8 7.3 229.4" fill="#000000" fill-rule="evenodd" stroke="none"/>
    <path d="M7.3 229.4 Q7.3 228.8 7.7 228.3 L8.0 228.5 Q8.8 229.0 8.8 229.75 L8.6 230.4 8.4 230.9 8.05 230.95 Q7.3 230.95 7.3 229.4 M8.35 225.7 Q8.35 226.15 7.35 227.05 6.3 227.4 4.85 228.45 L3.1 229.65 Q2.1 229.65 2.1 228.25 2.1 227.45 4.2 226.25 L6.1 225.0 Q8.35 225.0 8.35 225.7 M5.55 219.95 L6.55 219.95 7.75 220.05 8.3 220.55 8.25 221.15 Q8.25 222.35 6.6 223.6 L4.95 224.8 4.95 225.0 Q2.3 226.25 1.45 226.65 L0.7 224.8 Q0.45 224.2 0.45 223.25 0.45 222.4 1.65 222.05 3.55 221.45 4.8 220.45 L5.55 219.95 M5.35 214.0 L5.9 213.75 Q8.2 213.45 8.2 215.9 8.2 216.6 7.3 217.5 L5.8 218.05 3.85 218.7 1.95 219.1 Q0.4 219.1 0.4 216.85 0.4 216.1 0.75 215.8 1.3 215.3 3.25 214.8 L5.35 214.0 M7.2 199.95 L7.3 200.5 7.3 200.55 7.35 200.85 7.2 200.85 Q6.25 200.85 5.55 199.65 5.05 198.8 5.05 198.3 5.05 197.85 5.4 197.35 6.45 197.5 7.05 198.9 L7.2 199.95" fill="#6c5c46" fill-rule="evenodd" stroke="none"/>
  </g>
  <defs>
    <linearGradient gradientTransform="matrix(-0.0022, -0.0475, 0.0312, -0.0015, 58.7, 43.5)" gradientUnits="userSpaceOnUse" id="gradient0" spreadMethod="pad" x1="-819.2" x2="819.2">
      <stop offset="0.0" stop-color="#ebc29c"/>
      <stop offset="0.9882352941176471" stop-color="#cb7a2c"/>
    </linearGradient>
    <linearGradient gradientTransform="matrix(0.0854, 0.0, 0.0, 0.0105, 74.3, 164.65)" gradientUnits="userSpaceOnUse" id="gradient1" spreadMethod="pad" x1="-819.2" x2="819.2">
      <stop offset="0.0" stop-color="#000000"/>
      <stop offset="0.9882352941176471" stop-color="#7b7b7b"/>
    </linearGradient>
  </defs>
</svg>
