<?xml version="1.0" encoding="UTF-8" standalone="no"?>
<svg xmlns:xlink="http://www.w3.org/1999/xlink" height="116.7px" width="262.95px" xmlns="http://www.w3.org/2000/svg">
  <g transform="matrix(1.0, 0.0, 0.0, 1.0, 0.05, 0.0)">
    <path d="M225.05 2.5 L222.75 2.9 219.45 3.3 221.1 4.0 Q222.0 4.4 221.6 4.65 L220.1 5.0 218.85 4.85 218.45 4.85 218.45 6.2 217.15 7.4 216.5 7.8 216.05 7.8 Q215.75 7.8 215.65 7.4 L215.3 6.8 Q215.4 7.45 214.2 8.2 211.85 9.6 210.9 9.6 210.65 9.6 210.95 9.0 L211.25 8.1 210.95 8.15 210.6 8.2 210.45 8.2 209.35 9.65 207.95 11.2 206.15 13.0 204.65 13.7 204.55 13.75 204.0 14.0 203.6 14.8 Q203.35 15.45 203.45 15.55 203.55 16.0 204.3 16.4 204.7 16.6 204.0 17.0 L203.15 17.45 202.05 17.8 198.5 18.35 197.2 18.95 196.35 19.55 194.2 20.25 193.9 20.55 193.4 20.95 192.6 21.35 191.6 21.6 190.75 21.85 Q189.85 22.15 189.55 22.35 L188.2 23.45 186.9 24.45 186.75 24.55 185.45 25.15 185.4 25.15 184.5 25.55 Q181.5 26.65 177.9 26.65 L175.95 26.55 175.0 26.35 173.75 26.25 173.5 26.25 173.45 26.25 172.9 26.3 168.75 26.85 164.4 27.8 160.35 28.8 158.8 29.25 159.25 29.75 159.8 30.7 160.35 31.65 Q160.55 32.25 159.85 32.65 L159.8 32.7 159.55 33.2 158.8 33.75 159.0 33.85 Q159.55 34.05 159.6 34.7 159.7 35.45 159.25 36.15 159.7 36.65 159.55 37.4 L159.05 38.75 157.85 41.55 Q157.35 42.25 154.65 43.9 L151.3 45.65 Q148.25 46.9 146.85 47.6 L144.75 48.5 142.55 49.45 141.25 50.15 140.65 50.2 139.95 50.3 139.35 50.95 137.95 52.2 136.95 53.2 137.25 53.3 137.9 53.4 140.25 53.0 143.7 52.7 143.65 52.75 143.85 52.7 148.55 52.55 154.05 52.45 158.65 52.35 161.4 52.35 162.85 52.4 162.95 52.4 163.85 52.45 165.85 52.45 Q168.75 52.55 168.95 52.95 L169.1 52.9 Q169.75 52.8 169.6 53.0 L169.5 53.05 169.6 53.2 169.65 53.3 171.35 53.4 173.8 53.8 180.35 54.55 189.55 55.35 198.85 55.65 Q200.75 55.65 200.2 56.0 L199.55 56.4 199.6 56.4 200.35 56.3 201.45 56.35 202.2 56.35 203.55 56.25 204.2 55.85 204.55 55.65 204.65 55.55 205.55 55.4 211.15 55.3 212.6 55.15 214.3 55.0 217.6 54.65 219.95 54.4 221.05 54.25 221.1 54.25 223.45 53.9 228.9 53.75 232.0 54.0 233.85 54.15 238.6 54.3 242.1 54.05 246.7 53.8 Q248.55 53.8 248.15 54.35 L247.25 54.95 247.0 55.1 247.2 55.05 Q247.35 55.15 247.1 55.3 L245.0 56.0 245.0 56.05 244.4 56.15 244.15 56.2 244.2 56.25 Q244.7 56.4 244.05 56.8 L243.95 56.85 245.2 56.95 249.75 56.8 249.8 56.75 249.85 56.75 249.95 56.75 250.9 56.7 250.95 56.7 251.05 56.7 251.15 56.7 254.4 56.05 Q257.25 55.75 257.15 56.4 L256.9 56.55 258.7 56.6 261.9 56.8 262.6 57.1 262.85 57.5 262.8 57.9 260.85 58.35 253.7 58.5 252.45 58.55 245.45 60.2 243.7 60.65 241.3 61.1 239.65 61.25 227.6 61.4 225.95 61.45 219.75 62.05 217.4 62.15 211.05 62.25 209.4 62.3 207.85 62.45 203.15 62.85 198.65 63.4 195.25 63.6 193.5 63.35 193.05 63.5 193.0 63.55 Q192.8 63.3 193.55 62.65 L189.1 62.75 185.55 62.95 183.8 63.65 183.55 63.6 183.55 63.55 181.55 63.65 180.75 63.7 179.35 63.7 178.25 63.75 173.35 63.95 168.8 63.9 164.55 64.1 161.4 64.1 161.45 64.05 159.7 63.95 Q154.0 63.95 153.15 64.1 L149.9 64.25 147.2 64.15 144.3 64.25 142.6 64.35 141.95 64.3 139.2 64.7 138.95 64.8 138.85 64.75 138.9 64.7 138.8 64.6 132.4 64.4 126.25 64.3 124.65 64.3 123.85 65.35 Q123.6 65.8 122.15 66.65 L117.3 69.35 Q116.95 69.55 113.3 72.3 L108.65 75.6 107.85 76.0 107.65 76.1 108.35 76.0 107.55 76.65 Q107.0 76.9 106.9 77.3 L106.85 77.35 107.9 77.3 108.15 77.3 108.25 77.35 108.3 77.4 Q108.6 77.75 108.35 78.2 L107.25 79.1 106.3 80.05 105.3 80.95 104.35 81.45 104.1 81.8 101.85 82.3 102.45 83.65 Q103.0 84.75 102.8 85.5 L102.15 87.25 103.4 87.2 103.55 87.1 103.9 87.15 104.2 87.15 104.1 87.25 104.85 88.0 Q105.2 88.8 105.05 89.45 L105.05 92.2 105.05 95.05 105.25 97.85 105.2 100.65 104.85 103.5 103.95 106.25 Q103.4 108.0 103.35 109.15 L102.75 109.25 100.35 109.85 97.9 110.45 97.35 110.7 96.95 110.65 96.45 111.2 Q95.15 112.0 91.5 112.4 L81.7 113.15 78.4 113.4 77.75 115.0 77.35 115.15 76.35 115.3 Q75.25 115.3 76.35 113.6 L76.4 113.55 66.35 114.1 51.15 114.25 49.05 115.75 47.6 116.55 47.35 116.6 47.0 116.7 Q46.8 116.0 48.5 114.75 L49.15 114.25 24.95 112.7 19.95 112.0 18.9 111.75 13.0 112.1 7.4 112.2 0.1 111.85 Q-0.15 111.75 0.1 111.6 L0.45 111.45 Q1.3 110.95 2.05 110.6 L1.2 110.9 1.0 110.85 Q3.55 109.65 10.8 106.8 L15.45 104.75 19.7 103.15 18.45 101.8 Q17.05 100.2 17.1 99.25 17.1 98.2 16.3 96.25 15.5 94.4 15.6 93.95 15.8 92.8 17.0 91.3 18.45 89.55 19.3 88.9 19.25 88.7 19.7 88.4 L20.85 87.7 Q21.35 87.3 22.95 86.35 L22.95 86.3 22.85 86.3 22.1 86.05 22.15 86.05 21.85 86.0 22.85 85.3 Q25.65 83.55 26.35 83.25 L28.0 82.2 29.55 81.7 31.0 80.7 33.6 79.15 35.85 77.6 36.65 76.85 Q37.15 76.35 37.8 76.05 L42.7 73.0 45.9 70.05 Q45.4 69.4 45.5 68.65 45.65 67.4 47.4 66.3 L54.6 62.2 66.3 54.05 Q75.4 47.4 84.35 41.9 L86.5 40.7 88.9 39.1 Q92.3 37.0 98.15 34.65 103.0 32.7 108.45 31.0 L112.5 29.9 116.5 28.95 124.9 26.9 Q137.75 24.05 142.8 23.55 L144.3 23.0 146.9 22.05 145.35 22.25 Q144.3 22.25 144.6 22.05 L145.65 21.65 146.85 21.15 147.0 21.05 143.5 21.45 Q142.7 21.45 143.8 20.8 L145.4 19.75 143.45 20.2 Q142.85 20.2 143.15 19.9 L143.65 19.4 Q143.85 19.1 143.2 19.05 142.7 19.0 143.1 18.75 143.3 18.6 143.4 18.6 L144.35 18.35 144.4 18.3 142.25 18.1 Q141.6 17.9 141.9 17.75 L143.15 17.4 144.75 16.9 144.35 16.6 Q143.8 16.4 144.0 16.3 L144.85 16.05 146.1 15.75 Q145.2 15.65 145.25 15.3 L145.8 14.7 147.5 14.25 149.25 13.9 149.35 13.8 147.7 13.55 Q147.7 13.45 148.2 13.1 L149.5 12.55 149.5 12.45 Q149.4 12.35 149.65 12.25 L150.15 11.95 Q150.95 11.45 152.2 10.95 L152.3 10.85 152.95 10.6 153.1 10.55 153.15 10.6 154.65 10.15 156.95 9.55 154.95 9.8 154.45 9.75 Q158.15 8.45 161.4 7.75 L159.9 8.0 157.8 8.15 157.35 8.05 157.5 7.95 Q157.8 7.75 160.2 7.1 L163.0 6.4 164.45 6.0 166.3 5.65 170.05 4.85 169.6 4.8 Q169.4 4.85 169.65 4.7 L171.05 4.3 172.75 3.9 173.85 3.45 175.7 3.2 Q176.95 3.2 176.6 3.75 L178.55 3.25 180.4 2.7 183.35 1.95 Q185.0 1.6 184.35 2.0 L182.7 2.55 182.65 2.6 184.35 2.3 190.6 1.3 196.6 0.6 196.9 0.6 196.8 0.7 195.9 0.95 196.55 0.9 197.45 0.8 Q198.3 0.8 198.1 1.0 197.95 1.15 198.5 1.15 L199.85 1.1 202.15 0.55 205.95 0.0 Q207.4 0.0 207.0 0.25 L205.75 0.6 204.45 1.0 204.9 1.1 207.1 0.9 210.65 0.95 213.45 1.1 Q214.85 1.15 214.55 1.35 L212.5 1.65 216.2 1.85 Q218.1 1.95 217.7 2.2 L216.4 2.5 214.05 2.65 214.25 2.85 217.7 2.6 223.6 2.3 225.05 2.5" fill="#000000" fill-opacity="0.101960786" fill-rule="evenodd" stroke="none"/>
  </g>
</svg>
