<?xml version="1.0" encoding="UTF-8" standalone="no"?>
<svg xmlns:xlink="http://www.w3.org/1999/xlink" height="317.0px" width="332.35px" xmlns="http://www.w3.org/2000/svg">
  <g transform="matrix(1.0, 0.0, 0.0, 1.0, 0.0, 0.0)">
    <path d="M258.4 298.25 L271.6 298.2 281.0 297.9 287.5 297.15 296.5 296.4 298.5 295.9 301.55 295.45 304.75 294.85 305.75 294.5 306.75 294.25 313.65 293.85 315.25 293.4 317.1 293.5 Q317.75 293.55 318.65 292.75 L320.4 290.75 322.25 288.1 Q323.95 284.65 324.5 282.65 326.85 274.05 327.4 271.2 328.25 266.7 328.25 260.75 328.25 258.15 327.75 254.75 L327.0 248.35 326.8 242.3 326.8 241.95 326.1 241.75 Q321.1 240.35 315.5 240.35 304.15 240.35 289.85 243.9 276.55 247.2 269.0 251.35 263.45 254.45 259.45 258.85 L253.85 266.15 Q249.25 272.5 245.85 282.2 243.75 288.3 243.1 292.6 287.3 292.6 287.75 292.75 L288.25 293.0 288.5 294.0 288.25 295.05 287.8 295.25 242.8 295.45 242.75 296.0 242.65 296.25 242.25 296.25 242.15 295.45 241.0 295.45 241.0 295.5 240.95 295.45 226.95 295.5 226.55 295.5 226.95 295.55 236.0 296.85 240.25 297.65 244.25 298.0 Q258.4 297.5 258.4 298.1 L256.5 298.25 258.4 298.25 M206.85 311.6 L202.75 311.85 Q196.8 311.85 188.15 309.9 179.45 307.9 176.05 307.9 169.85 307.9 159.85 312.45 149.85 317.0 146.75 317.0 141.9 317.0 138.45 312.65 135.75 309.3 135.75 307.05 L136.0 305.15 136.2 305.0 120.1 305.5 111.85 306.0 102.4 306.2 93.25 306.4 89.0 306.85 Q83.65 306.85 83.65 302.75 83.65 299.7 85.15 295.35 L86.6 291.0 86.75 290.65 87.05 290.65 88.2 287.85 92.65 279.75 Q93.35 278.45 95.35 275.9 L98.15 271.85 100.8 268.15 101.55 266.8 101.25 266.05 101.25 264.95 Q101.25 264.05 102.25 260.85 103.25 257.65 103.25 256.2 103.25 253.5 102.5 249.7 L101.75 245.9 101.75 245.0 103.5 244.85 103.25 244.5 103.6 244.5 104.15 244.45 Q103.35 243.75 102.35 241.2 L99.25 233.85 Q96.2 227.9 92.25 222.6 88.4 217.5 78.95 208.6 L73.5 203.45 Q72.25 203.1 69.0 201.5 65.6 199.8 63.9 198.75 L62.65 197.8 Q61.5 197.4 59.45 195.55 L55.5 191.75 54.45 190.9 52.85 189.55 48.95 185.6 46.1 181.65 Q43.9 178.5 42.5 173.9 L40.35 166.0 38.5 159.65 38.3 159.25 37.25 156.65 35.5 152.45 Q33.45 146.75 32.7 144.0 L32.05 141.8 Q31.65 140.45 31.6 139.7 L31.2 135.45 31.25 130.3 31.35 127.05 31.1 124.8 30.8 122.9 30.75 122.6 Q30.15 121.65 29.7 120.1 L28.75 117.0 26.0 110.85 23.4 104.85 23.0 105.15 22.4 104.45 Q22.05 104.25 21.85 103.65 L21.65 102.75 Q21.65 101.0 22.75 98.55 L22.75 98.5 23.15 91.25 22.65 93.05 20.6 100.6 20.0 100.9 Q19.45 99.8 19.45 97.75 L19.5 94.6 Q19.4 90.95 19.75 88.25 L19.75 88.0 Q18.55 89.4 17.45 91.7 L15.75 95.1 15.35 95.15 Q14.65 95.15 14.5 93.85 L14.5 92.5 Q14.5 90.05 14.9 87.9 14.9 84.65 15.2 80.4 L13.15 80.8 Q11.0 81.15 10.75 81.5 L10.05 81.05 10.0 80.45 Q12.85 73.7 13.5 71.25 6.95 69.2 4.15 64.85 1.8 59.85 0.0 57.5 L0.0 57.15 0.85 57.0 Q1.35 57.0 2.1 57.45 L3.9 57.85 Q7.55 57.85 11.15 55.9 L14.75 53.65 14.85 53.5 Q10.85 52.3 9.5 50.5 8.55 48.5 7.4 47.4 L3.9 44.45 Q1.9 42.65 2.0 41.4 L2.0 40.15 2.5 40.0 Q3.0 40.0 3.25 41.25 3.75 42.1 8.9 42.1 L15.55 41.55 21.4 39.85 Q16.25 36.95 14.3 32.8 12.85 28.15 11.65 25.75 L11.75 25.5 12.25 25.4 Q12.9 25.4 13.95 26.95 15.05 28.65 16.35 29.0 17.85 29.4 20.1 30.3 L28.0 31.6 Q26.75 30.95 25.2 28.4 23.65 25.9 23.65 24.65 23.65 23.8 24.25 23.65 27.3 27.1 29.75 27.8 L32.65 28.0 32.65 27.9 Q32.65 27.45 33.25 26.6 L33.25 26.55 33.25 26.45 33.3 26.3 33.35 26.45 Q34.4 25.0 36.9 22.5 L37.0 22.35 35.45 22.95 Q34.4 23.5 34.25 24.0 L33.25 24.0 33.15 23.3 Q33.15 22.8 36.15 19.65 L39.6 16.25 42.75 14.65 Q45.5 13.35 47.0 13.0 48.2 12.65 48.85 12.1 49.8 11.8 54.0 12.0 L56.9 12.2 57.75 12.15 62.15 12.5 63.0 13.0 63.1 12.9 59.8 8.8 Q57.25 5.55 57.25 4.4 L57.25 4.3 56.65 2.9 Q56.15 1.75 56.15 0.9 L56.25 0.0 Q56.4 0.0 58.75 1.55 61.55 3.45 64.1 4.25 66.4 5.55 69.25 6.4 L71.45 7.1 71.75 6.85 74.05 7.0 79.0 6.55 80.75 5.6 Q82.6 4.95 87.25 4.5 91.15 3.55 94.6 5.8 97.45 7.65 98.65 10.55 100.15 11.0 100.05 11.2 L107.0 11.15 109.6 11.55 112.0 12.25 113.95 12.85 115.75 13.5 115.75 13.75 Q115.75 14.3 114.1 14.9 112.3 15.55 112.0 16.15 L115.15 19.15 Q117.0 21.15 117.0 22.25 L117.0 22.35 118.25 21.85 121.1 21.65 123.8 22.0 125.1 23.65 Q132.3 24.4 137.7 27.35 143.25 30.45 143.25 34.0 143.25 35.75 142.3 35.75 141.65 35.75 141.15 35.25 141.6 36.25 143.8 37.8 145.8 39.15 147.4 39.75 L146.95 40.2 148.35 41.25 151.4 42.3 Q153.5 42.9 153.5 43.3 153.5 44.35 151.15 45.45 148.75 46.55 148.75 47.1 148.75 49.15 153.35 51.6 L154.7 52.75 156.1 53.85 Q156.95 54.25 157.6 54.85 L158.25 55.8 157.95 56.5 155.5 56.9 159.65 62.75 163.75 69.1 163.75 70.25 163.2 70.4 Q161.85 70.4 159.75 69.5 L162.2 74.8 Q163.75 78.05 164.35 80.0 L166.0 85.2 Q166.9 88.35 166.9 90.35 L166.75 90.65 Q165.75 90.4 165.1 89.55 L164.25 88.35 164.0 89.4 163.9 90.2 163.75 91.35 163.65 91.5 163.45 91.5 163.15 92.05 Q162.25 93.75 162.25 95.15 162.25 96.1 162.75 98.0 L163.0 100.75 Q163.15 101.8 165.6 103.5 L167.6 104.6 Q168.75 105.25 168.75 105.8 168.75 106.65 168.25 107.0 L165.65 108.0 168.2 109.5 Q169.75 110.45 169.75 111.05 169.75 111.85 168.0 112.35 165.8 112.95 165.0 113.85 L162.85 117.0 Q160.7 120.0 160.45 120.7 160.25 121.15 160.25 123.3 160.25 126.45 160.9 129.9 161.5 133.35 161.5 136.45 161.5 138.25 160.45 140.2 L157.75 144.25 157.0 144.5 156.85 144.45 Q157.0 154.25 160.35 163.25 162.6 169.4 165.75 173.45 170.05 179.05 177.25 182.9 L177.25 183.25 177.3 183.3 179.5 182.1 Q182.85 180.55 186.3 180.65 188.35 180.7 189.6 181.3 L190.0 181.25 191.85 181.45 194.25 181.35 195.4 180.9 Q196.15 180.55 197.5 180.25 L204.2 179.15 Q205.8 179.0 208.25 177.75 L212.75 175.45 Q215.45 173.95 217.4 172.5 L221.25 170.35 Q224.15 168.95 225.75 167.85 228.35 166.1 232.05 165.8 L237.75 165.65 245.2 164.65 255.75 163.5 258.45 163.6 261.75 164.0 264.45 164.55 264.6 164.6 Q268.6 164.55 270.9 165.45 272.75 166.15 275.25 167.9 L278.95 170.85 283.25 173.85 Q295.4 179.95 299.6 186.25 L304.3 192.5 309.5 198.75 312.65 201.85 315.9 205.0 Q317.6 206.85 320.6 211.15 324.9 216.4 326.5 223.6 327.35 227.35 327.9 236.1 L328.1 240.9 Q329.7 241.5 331.25 242.4 L331.35 242.75 Q331.2 243.1 330.3 243.1 L328.1 242.3 328.4 248.5 Q328.65 251.65 329.25 255.3 329.65 257.65 329.65 260.75 329.65 266.9 328.75 271.8 328.0 275.8 325.75 283.5 324.85 286.85 323.25 289.15 L321.25 292.0 Q319.65 293.95 318.9 294.3 L315.6 294.75 313.9 295.15 306.6 295.75 Q306.25 295.75 305.25 296.1 L304.25 296.4 301.3 296.95 298.5 297.35 287.6 298.85 261.1 299.65 Q240.85 299.65 239.6 299.2 L239.45 298.75 Q239.25 298.45 236.25 298.25 L227.35 297.2 220.75 296.6 222.0 297.25 Q221.5 297.75 221.0 297.75 220.3 297.75 219.45 297.25 218.7 296.8 216.9 296.5 L216.5 296.5 206.75 297.2 205.15 297.7 205.0 296.75 204.85 296.45 206.75 295.85 207.8 295.65 207.75 295.5 207.7 295.45 204.2 295.45 Q201.0 290.4 201.0 295.35 L201.0 295.4 195.8 295.4 195.9 295.65 Q197.4 298.9 197.85 301.0 L197.75 301.1 Q196.6 300.45 195.95 298.9 L195.15 296.5 194.65 295.4 186.65 295.3 185.75 300.5 185.0 300.4 184.0 295.3 178.45 295.25 178.5 296.0 178.4 296.25 177.9 295.25 163.15 295.15 163.15 296.5 163.0 296.85 162.55 295.15 156.65 295.05 Q156.3 298.65 155.6 300.9 155.25 300.9 155.25 300.75 L155.6 295.05 150.75 294.8 Q150.5 295.35 150.5 294.1 150.5 293.3 150.75 293.0 151.05 292.5 152.0 292.55 L155.85 292.55 Q157.2 280.35 161.5 266.0 L163.6 257.55 165.75 248.75 167.85 240.15 168.9 235.85 Q169.65 233.15 170.75 231.75 171.25 232.05 171.25 232.8 L169.7 238.6 Q168.05 244.95 167.5 248.75 L165.0 264.65 163.8 272.65 Q163.15 277.35 163.0 280.6 162.85 283.5 163.0 288.55 L163.15 292.55 177.5 292.55 177.45 291.75 177.5 287.9 178.9 276.25 179.4 270.35 Q179.75 266.9 181.0 264.75 181.5 265.25 181.5 266.0 L181.25 267.5 181.25 270.05 Q181.25 274.15 183.2 284.55 L184.65 292.55 185.9 292.55 Q186.4 289.4 186.85 287.75 L187.2 283.55 Q187.35 280.8 188.5 279.5 189.2 280.4 189.7 281.95 L190.5 284.85 Q190.7 285.55 191.85 287.45 L193.4 290.25 194.45 292.55 205.85 292.55 205.6 292.05 204.6 289.85 Q201.95 284.05 201.0 280.85 198.75 273.85 196.25 262.85 191.85 243.3 191.85 226.85 191.85 220.45 192.0 218.55 192.3 214.8 193.6 209.25 L194.9 204.95 196.15 200.4 Q196.55 198.55 198.1 195.95 199.45 193.65 201.0 191.75 L208.3 183.1 Q212.7 178.55 218.85 175.15 L217.75 175.5 216.2 175.9 Q212.95 177.1 212.1 177.65 L211.65 178.1 210.45 179.05 208.5 180.35 204.6 183.0 Q196.05 188.4 190.9 193.65 187.35 197.35 182.35 204.25 177.05 211.65 174.0 215.0 162.0 228.9 154.85 236.6 143.0 249.35 138.4 257.75 L138.0 257.75 Q137.9 258.05 137.9 257.4 L138.35 256.25 138.1 256.25 138.0 255.45 Q138.0 255.25 140.35 250.6 L143.6 244.0 145.45 238.3 Q146.55 234.4 147.35 232.6 L147.25 232.5 Q142.7 239.0 133.5 246.5 L132.9 246.5 Q132.75 246.55 132.75 245.95 L135.55 241.5 Q138.65 236.5 140.0 232.5 L139.9 232.25 Q133.4 237.15 131.0 239.35 L122.5 246.15 122.1 246.0 122.0 245.55 Q125.5 240.9 126.5 238.0 L118.75 244.25 Q117.45 245.3 113.65 247.35 109.25 249.7 107.9 250.6 106.85 250.55 106.85 250.05 106.85 249.5 111.7 243.6 L114.6 240.15 Q110.2 243.55 105.2 245.35 L104.95 245.6 103.0 246.1 Q104.25 253.2 104.25 256.25 104.25 258.5 103.25 261.7 L102.45 264.3 102.75 266.5 102.9 266.75 102.75 267.0 102.6 267.1 98.55 273.45 93.15 281.25 Q87.8 290.1 86.6 295.65 L86.25 295.65 86.25 295.35 86.25 295.25 86.2 295.35 Q84.75 299.55 84.75 302.65 84.75 303.9 85.35 304.5 86.3 305.5 89.05 305.5 L94.35 305.0 113.75 304.5 122.1 304.0 137.5 303.5 163.25 305.05 178.45 306.75 178.8 306.8 180.2 307.0 180.7 307.1 184.85 307.75 184.85 307.85 184.8 307.9 187.75 308.55 Q195.85 310.5 202.4 310.5 L206.15 310.35 206.65 311.25 206.85 311.6 M209.6 309.95 Q215.1 309.1 222.05 307.15 228.95 305.2 234.6 303.0 237.8 301.8 242.85 301.2 249.45 300.45 253.5 301.85 L258.4 303.2 Q263.7 304.5 267.8 304.5 L275.55 304.0 279.65 303.5 280.0 303.65 Q279.4 304.45 276.65 305.05 L267.6 305.85 Q265.05 305.85 257.4 304.0 249.7 302.15 245.8 302.15 241.8 302.15 226.0 307.0 216.55 309.9 210.1 311.1 L209.6 309.95 M218.15 182.1 L215.1 184.75 Q213.7 186.6 210.1 190.0 L207.55 192.6 204.9 196.75 Q199.6 205.2 197.8 214.1 196.5 220.45 196.5 231.05 196.5 239.7 197.35 246.4 198.3 254.0 200.75 262.4 203.5 271.9 206.4 278.15 L209.3 285.9 Q210.7 289.75 212.6 292.55 L215.3 292.55 Q213.75 290.45 212.6 287.1 L210.5 281.0 206.25 268.75 Q203.85 261.3 203.1 256.6 201.4 245.65 201.4 244.65 L201.5 244.25 Q202.85 244.5 203.2 246.4 L203.75 249.5 205.65 255.75 Q207.9 262.55 210.25 268.1 L212.85 274.4 Q214.35 278.05 215.75 280.5 L217.25 283.6 218.75 286.65 219.45 288.1 220.5 289.85 222.0 291.5 222.8 292.55 240.05 292.6 240.0 291.2 Q240.0 283.45 242.7 277.8 244.45 274.2 252.25 263.1 258.2 254.7 265.85 248.95 275.95 241.35 292.5 235.25 L292.6 235.0 Q288.7 233.65 286.3 233.15 282.15 232.3 270.75 232.75 270.6 232.8 270.6 232.2 L277.25 225.7 287.25 216.5 287.4 216.4 Q279.45 219.1 271.65 222.95 263.35 227.05 259.75 230.25 L258.5 230.25 Q258.35 230.25 258.35 229.65 258.35 228.95 262.35 224.9 L267.25 220.0 Q268.65 218.4 272.3 215.45 L278.25 210.6 278.5 210.4 268.25 215.0 Q266.25 216.0 264.3 217.2 L260.5 219.5 246.75 228.35 245.9 228.25 245.85 227.0 Q245.85 223.2 252.95 212.55 258.4 204.4 261.85 200.5 L262.0 200.25 Q260.95 200.55 258.4 201.7 L254.4 203.6 248.0 207.1 246.75 207.0 Q246.6 207.0 246.6 206.4 246.6 205.5 254.6 197.2 262.6 188.9 262.6 187.9 262.6 186.2 259.5 184.4 256.9 182.9 256.1 182.9 L248.5 183.35 240.25 183.75 Q239.9 183.85 239.3 184.2 L238.5 184.75 Q237.65 184.25 237.65 184.05 237.65 182.3 242.05 176.75 245.2 172.75 247.6 170.25 236.9 172.85 231.5 174.55 224.75 176.7 220.85 179.4 220.85 179.85 218.15 182.1 M234.2 194.9 Q234.45 194.65 235.4 194.65 236.15 194.65 242.35 190.25 244.3 189.05 246.65 188.15 249.3 187.15 251.25 187.1 L251.4 187.05 251.5 187.5 Q251.5 187.8 246.5 193.7 L239.1 202.5 242.6 200.6 Q244.9 199.4 246.25 199.4 L247.0 199.5 247.0 200.05 243.7 205.55 Q239.85 212.25 237.35 218.6 L235.5 223.1 233.65 228.0 232.8 230.3 Q232.2 231.9 232.1 232.65 231.85 234.55 230.75 237.1 230.1 236.75 229.95 236.2 L229.85 235.25 Q229.85 229.55 232.0 222.2 234.1 215.15 237.25 209.65 237.1 209.5 235.15 208.9 233.25 208.3 232.85 207.65 232.4 207.0 232.4 205.25 L232.15 200.25 232.25 198.65 233.15 196.75 234.2 194.9 M82.2 61.3 L82.3 61.15 81.95 61.0 73.9 60.65 73.75 60.55 73.75 60.05 Q73.75 59.25 79.25 56.5 82.6 54.85 85.5 53.65 L80.65 52.75 77.5 52.25 75.85 51.9 74.0 51.5 66.15 51.1 66.0 51.05 66.0 50.65 Q66.0 50.15 68.6 47.6 L71.35 44.9 73.05 42.9 72.15 42.1 68.5 39.6 68.1 39.35 68.1 39.4 67.6 40.2 65.65 44.55 64.55 46.95 64.6 47.25 64.55 47.65 64.25 47.7 Q63.65 47.7 63.05 46.95 L62.35 46.05 60.35 44.4 58.75 42.7 58.15 41.8 Q57.35 42.8 55.15 44.45 L53.05 46.25 52.1 47.05 51.85 47.5 Q51.65 47.8 51.25 47.8 50.55 47.8 50.15 46.65 L49.5 44.7 48.45 41.7 47.75 39.85 45.45 42.95 Q43.65 45.65 43.2 46.7 L39.25 55.35 Q37.9 58.6 37.15 61.35 36.75 63.5 36.75 68.25 L36.75 69.0 Q36.5 69.0 36.5 69.25 L36.3 69.1 Q35.5 68.45 35.3 67.4 L34.9 65.4 34.5 63.45 34.25 61.5 33.85 59.75 33.85 59.7 33.8 59.75 Q29.8 65.7 28.5 68.65 L26.85 72.3 25.4 75.85 Q24.65 79.95 24.5 83.35 L24.35 85.45 24.4 85.85 24.3 86.75 23.85 94.9 23.8 95.8 24.15 95.05 24.2 94.9 Q25.1 93.05 25.95 93.05 L30.1 94.2 31.25 94.35 34.45 94.45 34.25 92.65 33.75 88.65 Q33.25 86.1 33.25 84.8 33.25 80.25 33.7 77.15 34.25 73.4 35.75 69.65 L35.15 75.1 Q34.6 79.55 34.6 81.2 L34.65 85.25 35.4 90.65 35.7 93.0 35.95 94.5 37.75 94.5 43.6 94.35 44.8 94.05 47.25 93.9 47.35 94.35 48.1 95.4 Q48.5 96.35 48.5 98.3 L48.45 101.0 47.5 104.0 46.75 103.9 46.75 103.75 45.55 102.65 Q44.7 101.55 43.6 101.0 L43.4 100.75 42.9 100.55 41.4 100.55 42.15 100.6 39.35 100.55 38.75 100.7 37.9 101.0 Q37.5 101.15 37.3 101.45 L37.05 101.7 Q36.85 101.85 36.6 101.95 L35.65 102.95 Q35.2 103.5 35.05 104.0 L34.95 104.5 34.6 105.0 Q34.35 105.7 34.4 106.05 L34.4 106.35 34.1 108.1 34.1 109.25 34.15 109.75 34.15 110.15 34.65 109.7 Q39.05 107.0 39.05 108.55 39.05 109.1 37.9 109.85 L35.85 111.1 35.0 111.65 34.2 112.3 32.95 113.3 Q32.55 113.7 31.95 113.7 30.95 113.7 30.55 112.1 L30.5 111.85 30.25 111.3 30.4 110.95 30.35 110.3 30.45 109.85 30.25 108.05 Q30.25 104.0 33.0 100.6 L33.2 100.35 33.0 100.4 32.95 100.4 27.1 101.65 25.45 101.3 25.25 101.25 24.65 103.5 24.3 103.9 27.1 110.5 29.3 115.7 30.95 120.3 31.35 120.1 31.8 122.75 31.95 122.9 32.45 126.55 32.45 126.75 32.7 128.05 32.7 130.6 32.5 132.05 32.7 137.05 32.9 138.7 33.15 139.4 33.3 140.5 33.6 141.2 34.2 143.45 37.1 152.0 Q37.55 153.4 38.75 156.2 L39.95 159.4 40.25 160.35 41.6 165.2 43.85 173.25 Q44.9 177.35 47.1 180.65 L47.5 180.85 Q48.45 181.4 48.85 182.1 L50.3 183.3 51.85 184.15 56.45 186.1 56.8 186.25 57.0 186.15 57.8 186.25 Q66.0 186.25 71.2 183.45 74.3 181.8 81.75 175.15 89.6 168.25 89.9 161.15 L89.9 161.1 Q82.35 162.35 81.15 163.1 L79.9 164.45 Q78.75 165.5 77.35 165.5 74.55 165.5 73.5 162.75 L73.05 160.15 72.55 160.4 71.6 160.75 Q68.7 160.75 65.3 159.55 62.55 158.55 61.4 157.6 61.4 157.1 62.0 156.85 L65.75 156.4 68.5 155.4 Q70.45 154.2 71.15 153.0 L72.15 150.6 73.15 147.85 73.25 147.75 73.15 147.8 Q71.35 148.65 66.2 150.05 L58.5 152.0 Q56.15 152.6 55.0 154.75 L53.75 157.75 53.0 157.65 53.0 155.6 53.95 149.65 54.5 144.0 Q55.45 140.85 58.05 138.1 60.5 135.45 63.7 134.05 L63.45 133.55 63.0 132.0 59.7 133.2 56.75 134.5 56.05 134.05 56.0 133.55 Q56.0 133.2 57.5 131.3 L59.1 129.35 61.3 127.65 62.3 126.4 Q59.9 126.15 58.65 124.45 57.5 122.25 56.65 121.65 53.9 120.25 53.0 119.5 L52.55 119.0 52.25 118.75 51.7 118.25 51.35 117.55 Q51.0 115.8 51.0 115.15 51.0 112.85 52.9 109.9 54.8 106.9 54.8 105.5 L54.65 104.45 54.3 103.1 Q53.95 101.35 53.95 100.7 L53.95 99.4 54.4 98.05 55.6 95.4 Q56.05 94.3 56.65 93.35 55.15 90.85 54.55 89.4 53.0 86.05 53.0 84.0 53.0 82.3 54.45 81.35 56.35 80.2 57.25 77.75 57.95 75.75 59.2 73.85 60.25 72.35 61.0 72.05 L61.0 71.7 61.0 71.35 61.1 71.25 Q64.4 71.35 66.0 70.6 L67.0 69.75 67.5 68.9 68.25 68.0 69.75 66.25 Q70.5 65.45 72.25 65.25 77.5 64.6 80.4 62.75 L82.2 61.3 M96.05 94.6 Q93.6 92.25 91.4 91.5 L89.85 91.5 86.85 92.0 83.65 91.9 83.5 91.85 83.5 91.4 Q83.5 91.0 84.15 90.95 L87.1 90.6 87.1 90.5 87.4 90.6 Q87.95 90.6 87.95 89.85 L87.75 88.65 87.3 87.4 86.7 86.2 86.55 85.9 86.25 85.6 85.7 85.25 85.1 85.05 85.05 85.05 82.25 84.8 80.95 84.8 78.95 85.15 77.7 85.8 76.8 86.55 76.65 86.5 76.7 86.65 76.15 87.45 Q75.85 87.7 75.65 88.25 L75.15 89.05 Q74.35 89.75 74.35 90.7 L74.45 91.1 74.2 91.45 75.85 91.2 79.6 91.0 79.85 91.35 79.85 91.9 78.9 91.9 76.25 91.8 Q73.6 91.9 73.15 92.75 L72.85 93.65 72.25 95.9 72.25 95.95 75.35 98.55 76.3 99.35 77.4 99.9 Q81.6 102.3 83.5 103.0 L87.15 104.35 Q92.95 97.65 95.5 95.15 L96.1 94.65 96.05 94.6 M96.6 107.75 Q97.25 103.3 97.9 100.7 L97.8 98.05 Q97.65 96.8 97.2 95.95 L97.0 95.65 96.4 96.25 Q90.8 102.0 88.35 104.8 L91.25 105.85 96.5 108.05 96.55 108.05 96.6 107.75 M57.95 2.65 L58.0 2.65 57.9 2.6 57.95 2.65 M31.55 96.0 L29.95 95.9 30.8 96.0 31.55 96.0 M41.3 111.35 L40.9 112.5 40.9 114.4 Q40.9 117.0 41.55 119.6 42.4 123.1 42.65 125.25 L44.4 135.9 Q44.7 137.6 46.1 141.25 47.45 144.7 47.65 146.6 L48.4 151.75 48.9 157.0 49.5 159.5 Q48.45 157.6 47.8 153.95 L46.85 148.25 Q46.5 146.3 45.05 142.65 43.55 138.75 43.15 137.0 42.1 132.25 41.25 125.75 40.8 122.45 40.0 119.45 39.5 117.6 39.5 114.5 39.5 112.25 39.75 111.15 39.95 110.25 40.75 109.35 41.65 108.4 41.65 110.15 L41.3 111.35 M49.75 121.85 L50.15 121.2 50.85 121.15 Q51.4 121.1 51.85 121.5 L52.7 122.25 53.95 123.6 53.65 125.75 52.05 125.8 50.95 125.45 50.15 124.8 49.95 124.65 49.65 123.4 49.75 121.85 M86.75 106.6 L84.6 109.6 Q87.7 114.4 91.35 123.65 L91.4 123.65 Q91.7 121.1 93.95 115.7 L96.25 109.45 Q90.95 107.0 87.45 105.8 L86.75 106.6 M86.25 105.4 L85.15 105.1 Q82.8 104.5 79.25 102.55 L83.75 108.35 86.25 105.4 M105.5 244.35 Q108.7 243.2 110.1 242.4 111.5 241.65 113.05 240.3 L115.65 237.9 120.25 233.45 124.5 228.9 132.9 219.75 137.65 215.3 142.65 210.75 147.25 206.2 Q150.3 203.3 152.85 201.6 L152.05 200.5 151.55 199.7 150.6 198.55 149.25 196.5 Q146.8 193.0 144.25 193.0 140.3 193.0 134.95 195.35 L129.35 198.1 124.35 199.9 119.75 201.4 111.6 203.9 103.0 205.75 103.0 205.85 89.5 205.85 Q84.65 205.45 78.5 203.75 L75.5 202.85 75.4 203.25 75.1 203.35 76.2 204.4 82.1 210.1 87.75 215.65 92.75 221.25 Q102.35 233.65 105.0 244.5 L105.0 244.55 105.05 244.55 105.5 244.35 M146.75 315.85 Q149.75 315.85 159.9 311.25 166.6 308.15 171.55 307.15 L137.5 305.0 136.8 305.0 Q137.1 305.4 137.0 306.1 136.85 307.4 137.0 308.0 137.5 309.6 138.75 311.15 140.5 313.45 141.95 314.45 143.95 315.85 146.75 315.85 M185.1 295.3 L185.25 296.35 185.35 296.35 185.5 295.3 185.1 295.3" fill="#000000" fill-rule="evenodd" stroke="none"/>
    <path d="M226.95 295.5 L226.95 295.55 226.55 295.5 226.95 295.5 M258.4 298.1 L258.4 298.25 256.5 298.25 258.4 298.1 M96.05 94.6 L96.1 94.65 95.5 95.15 96.05 94.6 M97.2 95.95 L96.4 96.25 97.0 95.65 97.2 95.95 M96.5 108.05 L96.6 107.75 96.55 108.05 96.5 108.05 M33.85 59.75 L33.8 59.75 33.85 59.7 33.85 59.75 M23.85 94.9 L24.15 95.05 23.8 95.8 23.85 94.9 M31.55 96.0 L30.8 96.0 29.95 95.9 31.55 96.0 M33.0 100.6 L33.0 100.4 33.2 100.35 33.0 100.6" fill="#50743f" fill-rule="evenodd" stroke="none"/>
    <path d="M205.15 297.7 Q205.5 299.35 206.55 302.3 207.15 304.35 208.7 307.9 L209.6 309.95 210.1 311.1 211.0 313.35 210.8 314.3 210.55 314.65 209.5 315.0 Q208.8 315.0 206.85 311.6 L206.65 311.25 206.15 310.35 202.4 310.5 Q195.85 310.5 187.75 308.55 L184.8 307.9 184.85 307.85 184.85 307.75 180.7 307.1 180.2 307.0 178.8 306.8 178.45 306.75 163.25 305.05 137.5 303.5 122.1 304.0 113.75 304.5 94.35 305.0 89.05 305.5 Q86.3 305.5 85.35 304.5 84.75 303.9 84.75 302.65 84.75 299.55 86.2 295.35 L86.25 295.25 86.25 295.35 86.25 295.65 86.6 295.65 Q87.8 290.1 93.15 281.25 L98.55 273.45 102.6 267.1 102.75 267.0 102.9 266.75 102.75 266.5 102.45 264.3 103.25 261.7 Q104.25 258.5 104.25 256.25 104.25 253.2 103.0 246.1 L104.95 245.6 105.2 245.35 Q110.2 243.55 114.6 240.15 L111.7 243.6 Q106.85 249.5 106.85 250.05 106.85 250.55 107.9 250.6 109.25 249.7 113.65 247.35 117.45 245.3 118.75 244.25 L126.5 238.0 Q125.5 240.9 122.0 245.55 L122.1 246.0 122.5 246.15 131.0 239.35 Q133.4 237.15 139.9 232.25 L140.0 232.5 Q138.65 236.5 135.55 241.5 L132.75 245.95 Q132.75 246.55 132.9 246.5 L133.5 246.5 Q142.7 239.0 147.25 232.5 L147.35 232.6 Q146.55 234.4 145.45 238.3 L143.6 244.0 140.35 250.6 Q138.0 255.25 138.0 255.45 L138.1 256.25 138.35 256.25 137.9 257.4 Q137.9 258.05 138.0 257.75 L138.4 257.75 Q143.0 249.35 154.85 236.6 162.0 228.9 174.0 215.0 177.05 211.65 182.35 204.25 187.35 197.35 190.9 193.65 196.05 188.4 204.6 183.0 L208.5 180.35 210.45 179.05 211.65 178.1 212.1 177.65 Q212.95 177.1 216.2 175.9 L217.75 175.5 218.85 175.15 Q212.7 178.55 208.3 183.1 L201.0 191.75 Q199.45 193.65 198.1 195.95 196.55 198.55 196.15 200.4 L194.9 204.95 193.6 209.25 Q192.3 214.8 192.0 218.55 191.85 220.45 191.85 226.85 191.85 243.3 196.25 262.85 198.75 273.85 201.0 280.85 201.95 284.05 204.6 289.85 L205.6 292.05 205.85 292.55 194.45 292.55 193.4 290.25 191.85 287.45 Q190.7 285.55 190.5 284.85 L189.7 281.95 Q189.2 280.4 188.5 279.5 187.35 280.8 187.2 283.55 L186.85 287.75 Q186.4 289.4 185.9 292.55 L184.65 292.55 183.2 284.55 Q181.25 274.15 181.25 270.05 L181.25 267.5 181.5 266.0 Q181.5 265.25 181.0 264.75 179.75 266.9 179.4 270.35 L178.9 276.25 177.5 287.9 177.45 291.75 177.5 292.55 163.15 292.55 163.0 288.55 Q162.85 283.5 163.0 280.6 163.15 277.35 163.8 272.65 L165.0 264.65 167.5 248.75 Q168.05 244.95 169.7 238.6 L171.25 232.8 Q171.25 232.05 170.75 231.75 169.65 233.15 168.9 235.85 L167.85 240.15 165.75 248.75 163.6 257.55 161.5 266.0 Q157.2 280.35 155.85 292.55 L152.0 292.55 Q151.05 292.5 150.75 293.0 150.5 293.3 150.5 294.1 150.5 295.35 150.75 294.8 L155.6 295.05 155.25 300.75 Q155.25 300.9 155.6 300.9 156.3 298.65 156.65 295.05 L162.55 295.15 163.0 296.85 163.15 296.5 163.15 295.15 177.9 295.25 178.4 296.25 178.5 296.0 178.45 295.25 184.0 295.3 185.0 300.4 185.75 300.5 186.65 295.3 194.65 295.4 195.15 296.5 195.95 298.9 Q196.6 300.45 197.75 301.1 L197.85 301.0 Q197.4 298.9 195.9 295.65 L195.8 295.4 201.0 295.4 201.0 295.35 Q201.0 290.4 204.2 295.45 L204.85 296.45 205.0 296.75 205.15 297.7 M234.2 194.9 L233.15 196.75 232.25 198.65 232.15 200.25 232.4 205.25 Q232.4 207.0 232.85 207.65 233.25 208.3 235.15 208.9 237.1 209.5 237.25 209.65 234.1 215.15 232.0 222.2 229.85 229.55 229.85 235.25 L229.95 236.2 Q230.1 236.75 230.75 237.1 231.85 234.55 232.1 232.65 232.2 231.9 232.8 230.3 L233.65 228.0 235.5 223.1 237.35 218.6 Q239.85 212.25 243.7 205.55 L247.0 200.05 247.0 199.5 246.25 199.4 Q244.9 199.4 242.6 200.6 L239.1 202.5 246.5 193.7 Q251.5 187.8 251.5 187.5 L251.4 187.05 251.25 187.1 Q249.3 187.15 246.65 188.15 244.3 189.05 242.35 190.25 236.15 194.65 235.4 194.65 234.45 194.65 234.2 194.9 M218.15 182.1 Q220.85 179.85 220.85 179.4 224.75 176.7 231.5 174.55 236.9 172.85 247.6 170.25 245.2 172.75 242.05 176.75 237.65 182.3 237.65 184.05 237.65 184.25 238.5 184.75 L239.3 184.2 Q239.9 183.85 240.25 183.75 L248.5 183.35 256.1 182.9 Q256.9 182.9 259.5 184.4 262.6 186.2 262.6 187.9 262.6 188.9 254.6 197.2 246.6 205.5 246.6 206.4 246.6 207.0 246.75 207.0 L248.0 207.1 254.4 203.6 258.4 201.7 Q260.95 200.55 262.0 200.25 L261.85 200.5 Q258.4 204.4 252.95 212.55 245.85 223.2 245.85 227.0 L245.9 228.25 246.75 228.35 260.5 219.5 264.3 217.2 Q266.25 216.0 268.25 215.0 L278.5 210.4 278.25 210.6 272.3 215.45 Q268.65 218.4 267.25 220.0 L262.35 224.9 Q258.35 228.95 258.35 229.65 258.35 230.25 258.5 230.25 L259.75 230.25 Q263.35 227.05 271.65 222.95 279.45 219.1 287.4 216.4 L287.25 216.5 277.25 225.7 270.6 232.2 Q270.6 232.8 270.75 232.75 282.15 232.3 286.3 233.15 288.7 233.65 292.6 235.0 L292.5 235.25 Q275.95 241.35 265.85 248.95 258.2 254.7 252.25 263.1 244.45 274.2 242.7 277.8 240.0 283.45 240.0 291.2 L240.05 292.6 222.8 292.55 222.0 291.5 220.5 289.85 219.45 288.1 218.75 286.65 217.25 283.6 215.75 280.5 Q214.35 278.05 212.85 274.4 L210.25 268.1 Q207.9 262.55 205.65 255.75 L203.75 249.5 203.2 246.4 Q202.85 244.5 201.5 244.25 L201.4 244.65 Q201.4 245.65 203.1 256.6 203.85 261.3 206.25 268.75 L210.5 281.0 212.6 287.1 Q213.75 290.45 215.3 292.55 L212.6 292.55 Q210.7 289.75 209.3 285.9 L206.4 278.15 Q203.5 271.9 200.75 262.4 198.3 254.0 197.35 246.4 196.5 239.7 196.5 231.05 196.5 220.45 197.8 214.1 199.6 205.2 204.9 196.75 L207.55 192.6 210.1 190.0 Q213.7 186.6 215.1 184.75 L218.15 182.1" fill="#737373" fill-rule="evenodd" stroke="none"/>
    <path d="M105.05 244.55 L105.0 244.55 105.0 244.5 105.05 244.55" fill="url(#gradient0)" fill-rule="evenodd" stroke="none"/>
    <path d="M82.2 61.3 L81.95 61.0 82.3 61.15 82.2 61.3 M68.5 39.6 L68.1 39.4 68.1 39.35 68.5 39.6 M34.15 109.75 L34.65 109.7 34.15 110.15 34.15 109.75 M33.0 100.6 L32.95 100.4 33.0 100.4 33.0 100.6 M56.45 186.1 L57.0 186.15 56.8 186.25 56.45 186.1 M73.15 147.85 L73.15 147.8 73.25 147.75 73.15 147.85" fill="url(#gradient1)" fill-rule="evenodd" stroke="none"/>
    <path d="M23.85 94.9 L24.2 94.9 24.15 95.05 23.85 94.9" fill="url(#gradient2)" fill-rule="evenodd" stroke="none"/>
    <path d="M36.3 69.1 L35.75 69.65 Q34.25 73.4 33.7 77.15 33.25 80.25 33.25 84.8 33.25 86.1 33.75 88.65 L34.25 92.65 34.45 94.45 31.25 94.35 30.1 94.2 25.95 93.05 Q25.1 93.05 24.2 94.9 L23.85 94.9 24.3 86.75 24.4 85.85 24.35 85.45 24.5 83.35 Q24.65 79.95 25.4 75.85 L26.85 72.3 28.5 68.65 Q29.8 65.7 33.8 59.75 L33.85 59.75 34.25 61.5 34.5 63.45 34.9 65.4 35.3 67.4 Q35.5 68.45 36.3 69.1" fill="url(#gradient3)" fill-rule="evenodd" stroke="none"/>
    <path d="M73.15 147.85 L73.15 147.8 73.15 147.85" fill="url(#gradient4)" fill-rule="evenodd" stroke="none"/>
    <path d="M81.95 61.0 L82.2 61.3 80.4 62.75 Q77.5 64.6 72.25 65.25 70.5 65.45 69.75 66.25 L68.25 68.0 67.5 68.9 67.0 69.75 66.0 70.6 Q64.4 71.35 61.1 71.25 L61.0 71.35 61.0 71.7 61.0 72.05 Q60.25 72.35 59.2 73.85 57.95 75.75 57.25 77.75 56.35 80.2 54.45 81.35 53.0 82.3 53.0 84.0 53.0 86.05 54.55 89.4 55.15 90.85 56.65 93.35 56.05 94.3 55.6 95.4 L54.4 98.05 53.95 99.4 53.95 100.7 Q53.95 101.35 54.3 103.1 L54.65 104.45 54.8 105.5 Q54.8 106.9 52.9 109.9 51.0 112.85 51.0 115.15 51.0 115.8 51.35 117.55 L51.7 118.25 52.25 118.75 52.55 119.0 53.0 119.5 Q53.9 120.25 56.65 121.65 57.5 122.25 58.65 124.45 59.9 126.15 62.3 126.4 L61.3 127.65 59.1 129.35 57.5 131.3 Q56.0 133.2 56.0 133.55 L56.05 134.05 56.75 134.5 59.7 133.2 63.0 132.0 63.45 133.55 63.7 134.05 Q60.5 135.45 58.05 138.1 55.45 140.85 54.5 144.0 L53.95 149.65 53.0 155.6 53.0 157.65 53.75 157.75 55.0 154.75 Q56.15 152.6 58.5 152.0 L66.2 150.05 Q71.35 148.65 73.15 147.8 L73.15 147.85 72.15 150.6 71.15 153.0 Q70.45 154.2 68.5 155.4 L65.75 156.4 62.0 156.85 Q61.4 157.1 61.4 157.6 62.55 158.55 65.3 159.55 68.7 160.75 71.6 160.75 L72.55 160.4 73.05 160.15 73.5 162.75 Q74.55 165.5 77.35 165.5 78.75 165.5 79.9 164.45 L81.15 163.1 Q82.35 162.35 89.9 161.1 L89.9 161.15 Q89.6 168.25 81.75 175.15 74.3 181.8 71.2 183.45 66.0 186.25 57.8 186.25 L57.0 186.15 56.45 186.1 51.85 184.15 50.3 183.3 48.85 182.1 Q48.45 181.4 47.5 180.85 L47.1 180.65 Q44.9 177.35 43.85 173.25 L41.6 165.2 40.25 160.35 39.95 159.4 38.75 156.2 Q37.55 153.4 37.1 152.0 L34.2 143.45 33.6 141.2 33.3 140.5 33.15 139.4 32.9 138.7 32.7 137.05 32.5 132.05 32.7 130.6 32.7 128.05 32.45 126.75 32.45 126.55 31.95 122.9 31.8 122.75 31.35 120.1 30.95 120.3 29.3 115.7 27.1 110.5 24.3 103.9 24.65 103.5 25.25 101.25 25.45 101.3 27.1 101.65 32.95 100.4 33.0 100.6 Q30.25 104.0 30.25 108.05 L30.45 109.85 30.35 110.3 30.4 110.95 30.25 111.3 30.5 111.85 30.55 112.1 Q30.95 113.7 31.95 113.7 32.55 113.7 32.95 113.3 L34.2 112.3 35.0 111.65 35.85 111.1 37.9 109.85 Q39.05 109.1 39.05 108.55 39.05 107.0 34.65 109.7 L34.15 109.75 34.1 109.25 34.1 108.1 34.4 106.35 34.4 106.05 Q34.35 105.7 34.6 105.0 L34.95 104.5 35.05 104.0 Q35.2 103.5 35.65 102.95 L36.6 101.95 Q36.85 101.85 37.05 101.7 L37.3 101.45 Q37.5 101.15 37.9 101.0 L38.75 100.7 39.35 100.55 42.15 100.6 41.4 100.55 42.9 100.55 43.4 100.75 43.6 101.0 Q44.7 101.55 45.55 102.65 L46.75 103.75 46.75 103.9 47.5 104.0 48.45 101.0 48.5 98.3 Q48.5 96.35 48.1 95.4 L47.35 94.35 47.25 93.9 44.8 94.05 43.6 94.35 37.75 94.5 35.95 94.5 35.7 93.0 35.4 90.65 34.65 85.25 34.6 81.2 Q34.6 79.55 35.15 75.1 L35.75 69.65 36.3 69.1 36.5 69.25 Q36.5 69.0 36.75 69.0 L36.75 68.25 Q36.75 63.5 37.15 61.35 37.9 58.6 39.25 55.35 L43.2 46.7 Q43.65 45.65 45.45 42.95 L47.75 39.85 48.45 41.7 49.5 44.7 50.15 46.65 Q50.55 47.8 51.25 47.8 51.65 47.8 51.85 47.5 L52.1 47.05 53.05 46.25 55.15 44.45 Q57.35 42.8 58.15 41.8 L58.75 42.7 60.35 44.4 62.35 46.05 63.05 46.95 Q63.65 47.7 64.25 47.7 L64.55 47.65 64.6 47.25 64.55 46.95 65.65 44.55 67.6 40.2 68.1 39.4 68.5 39.6 72.15 42.1 73.05 42.9 71.35 44.9 68.6 47.6 Q66.0 50.15 66.0 50.65 L66.0 51.05 66.15 51.1 74.0 51.5 75.85 51.9 77.5 52.25 80.65 52.75 85.5 53.65 Q82.6 54.85 79.25 56.5 73.75 59.25 73.75 60.05 L73.75 60.55 73.9 60.65 81.95 61.0 M49.75 121.85 L49.65 123.4 49.95 124.65 50.15 124.8 50.95 125.45 52.05 125.8 53.65 125.75 53.95 123.6 52.7 122.25 51.85 121.5 Q51.4 121.1 50.85 121.15 L50.15 121.2 49.75 121.85 M41.3 111.35 L41.65 110.15 Q41.65 108.4 40.75 109.35 39.95 110.25 39.75 111.15 39.5 112.25 39.5 114.5 39.5 117.6 40.0 119.45 40.8 122.45 41.25 125.75 42.1 132.25 43.15 137.0 43.55 138.75 45.05 142.65 46.5 146.3 46.85 148.25 L47.8 153.95 Q48.45 157.6 49.5 159.5 L48.9 157.0 48.4 151.75 47.65 146.6 Q47.45 144.7 46.1 141.25 44.7 137.6 44.4 135.9 L42.65 125.25 Q42.4 123.1 41.55 119.6 40.9 117.0 40.9 114.4 L40.9 112.5 41.3 111.35" fill="url(#gradient5)" fill-rule="evenodd" stroke="none"/>
    <path d="M95.5 95.15 Q92.95 97.65 87.15 104.35 L83.5 103.0 Q81.6 102.3 77.4 99.9 L76.3 99.35 75.35 98.55 72.25 95.95 72.25 95.9 72.85 93.65 73.15 92.75 Q73.6 91.9 76.25 91.8 L78.9 91.9 79.85 91.9 79.85 91.35 79.6 91.0 75.85 91.2 74.2 91.45 74.45 91.1 74.35 90.7 Q74.35 89.75 75.15 89.05 L75.65 88.25 Q75.85 87.7 76.15 87.45 L76.7 86.65 76.65 86.5 76.8 86.55 77.7 85.8 78.95 85.15 80.95 84.8 82.25 84.8 85.05 85.05 85.1 85.05 85.7 85.25 86.25 85.6 86.55 85.9 86.7 86.2 87.3 87.4 87.75 88.65 87.95 89.85 Q87.95 90.6 87.4 90.6 L87.1 90.5 87.1 90.6 84.15 90.95 Q83.5 91.0 83.5 91.4 L83.5 91.85 83.65 91.9 86.85 92.0 89.85 91.5 91.4 91.5 Q93.6 92.25 96.05 94.6 L95.5 95.15" fill="url(#gradient6)" fill-rule="evenodd" stroke="none"/>
    <path d="M97.2 95.95 Q97.65 96.8 97.8 98.05 L97.9 100.7 Q97.25 103.3 96.6 107.75 L96.5 108.05 91.25 105.85 88.35 104.8 Q90.8 102.0 96.4 96.25 L97.2 95.95" fill="url(#gradient7)" fill-rule="evenodd" stroke="none"/>
    <path d="M86.75 106.6 L87.45 105.8 Q90.95 107.0 96.25 109.45 L93.95 115.7 Q91.7 121.1 91.4 123.65 L91.35 123.65 Q87.7 114.4 84.6 109.6 L86.75 106.6" fill="url(#gradient8)" fill-rule="evenodd" stroke="none"/>
    <path d="M86.25 105.4 L83.75 108.35 79.25 102.55 Q82.8 104.5 85.15 105.1 L86.25 105.4" fill="url(#gradient9)" fill-rule="evenodd" stroke="none"/>
    <path d="M105.0 244.5 L105.5 244.35 105.05 244.55 105.0 244.5" fill="url(#gradient10)" fill-rule="evenodd" stroke="none"/>
    <path d="M105.0 244.5 Q102.35 233.65 92.75 221.25 L87.75 215.65 82.1 210.1 76.2 204.4 75.1 203.35 75.4 203.25 75.5 202.85 78.5 203.75 Q84.65 205.45 89.5 205.85 L103.0 205.85 103.0 205.75 111.6 203.9 119.75 201.4 124.35 199.9 129.35 198.1 134.95 195.35 Q140.3 193.0 144.25 193.0 146.8 193.0 149.25 196.5 L150.6 198.55 151.55 199.7 152.05 200.5 152.85 201.6 Q150.3 203.3 147.25 206.2 L142.65 210.75 137.65 215.3 132.9 219.75 124.5 228.9 120.25 233.45 115.65 237.9 113.05 240.3 Q111.5 241.65 110.1 242.4 108.7 243.2 105.5 244.35 L105.0 244.5" fill="url(#gradient11)" fill-rule="evenodd" stroke="none"/>
    <path d="M226.95 295.5 L240.95 295.45 241.0 295.5 241.0 295.45 242.15 295.45 242.25 296.25 242.65 296.25 242.75 296.0 242.8 295.45 287.8 295.25 288.25 295.05 288.5 294.0 288.25 293.0 287.75 292.75 Q287.3 292.6 243.1 292.6 243.75 288.3 245.85 282.2 249.25 272.5 253.85 266.15 L259.45 258.85 Q263.45 254.45 269.0 251.35 276.55 247.2 289.85 243.9 304.15 240.35 315.5 240.35 321.1 240.35 326.1 241.75 L326.8 241.95 326.8 242.3 327.0 248.35 327.75 254.75 Q328.25 258.15 328.25 260.75 328.25 266.7 327.4 271.2 326.85 274.05 324.5 282.65 323.95 284.65 322.25 288.1 L320.4 290.75 318.65 292.75 Q317.75 293.55 317.1 293.5 L315.25 293.4 313.65 293.85 306.75 294.25 305.75 294.5 304.75 294.85 301.55 295.45 298.5 295.9 296.5 296.4 287.5 297.15 281.0 297.9 271.6 298.2 258.4 298.25 258.4 298.1 Q258.4 297.5 244.25 298.0 L240.25 297.65 236.0 296.85 226.95 295.55 226.95 295.5" fill="url(#gradient12)" fill-rule="evenodd" stroke="none"/>
    <path d="M325.9 236.5 Q330.5 236.5 331.05 240.15 331.35 242.05 330.7 245.0 330.7 246.25 331.25 249.2 L331.95 253.25 332.2 269.95 332.15 274.5 Q332.1 278.55 332.2 280.7 L332.35 283.2 332.15 285.95 330.6 288.3 Q329.25 289.95 329.2 290.75 L327.65 302.4 326.4 311.2 Q326.4 311.95 326.9 312.6 L327.95 313.7 328.15 314.0 Q324.9 312.3 325.1 309.4 326.0 306.0 325.9 304.25 L325.95 299.25 325.9 294.2 324.2 294.2 323.8 296.55 Q322.9 298.7 320.3 298.7 317.75 298.7 316.85 297.15 L316.2 295.0 316.2 294.95 314.7 297.55 Q313.5 299.0 309.45 298.25 L309.25 300.2 Q309.1 301.5 308.45 302.25 L307.3 303.1 Q305.95 303.15 304.2 303.7 L303.1 304.55 Q302.3 305.25 301.9 305.25 298.2 305.25 297.15 304.25 296.1 303.2 295.05 303.2 293.05 303.2 291.9 301.8 L290.95 300.25 289.8 304.55 Q288.75 308.2 287.65 308.2 285.35 308.2 284.65 306.35 L284.45 304.3 285.45 297.55 286.65 289.7 287.4 275.0 Q287.4 264.45 281.65 254.5 279.9 251.45 277.7 248.7 L275.9 246.55 276.15 245.45 Q276.65 244.45 277.9 244.45 278.25 244.45 279.1 245.0 L280.7 246.0 Q281.4 242.45 286.35 241.5 L289.95 240.9 Q291.75 240.55 292.2 239.75 L292.3 239.65 290.9 239.95 289.2 239.95 283.2 240.95 275.95 241.55 270.15 241.5 Q268.3 241.6 265.8 243.05 263.7 244.45 263.45 244.45 261.7 244.45 260.9 243.2 260.45 242.5 260.45 241.8 260.45 241.25 261.3 239.05 L262.25 236.8 260.0 237.85 259.3 238.2 Q257.0 239.55 256.4 240.5 L255.2 243.35 Q254.3 245.0 252.4 245.0 250.85 245.0 250.4 243.7 L250.2 242.1 251.4 235.6 251.65 234.4 251.55 234.4 247.65 235.5 245.9 236.95 Q244.45 237.95 243.9 237.95 242.4 237.95 241.9 236.75 L241.7 235.45 241.8 234.35 Q240.95 233.45 240.95 231.55 240.95 230.05 245.0 220.15 L247.25 214.75 243.65 218.5 Q241.2 220.9 236.75 228.45 L236.15 229.45 234.4 235.75 Q232.55 242.5 230.4 242.5 228.2 242.5 227.7 240.75 L227.65 238.85 228.45 225.75 Q228.45 223.7 230.45 218.6 229.7 219.7 227.9 219.7 225.9 219.7 225.25 218.1 L224.95 216.35 Q224.95 215.0 227.15 205.4 229.65 194.5 231.4 191.25 L234.75 184.95 Q236.95 180.9 238.65 178.5 L240.45 175.55 241.5 173.85 Q232.75 175.9 223.5 184.15 213.05 193.45 210.4 201.5 L204.85 217.05 Q202.4 224.35 202.4 231.1 202.4 251.55 210.65 276.05 212.4 281.25 216.3 291.4 218.9 298.1 218.9 299.45 218.9 300.2 218.2 300.95 217.5 301.7 216.9 301.7 215.0 301.7 214.0 299.5 213.3 297.15 212.9 296.7 209.95 296.8 208.9 295.1 L207.9 292.25 Q207.05 290.4 206.15 287.2 L204.7 282.2 Q203.6 278.9 202.25 271.85 201.05 265.4 199.65 261.95 197.85 257.5 197.2 251.75 L196.45 241.7 196.35 236.6 196.45 231.5 196.65 226.25 Q196.65 225.45 196.05 223.8 L195.45 221.55 Q195.45 220.75 197.4 213.6 L199.9 204.95 201.3 200.75 Q202.25 198.0 202.95 196.7 203.2 196.2 204.95 194.85 L207.2 192.75 208.35 190.9 209.65 189.0 214.65 181.6 Q212.05 183.0 209.45 183.75 L209.55 184.1 209.65 185.05 Q209.65 186.85 198.45 195.75 196.45 197.35 192.9 200.95 L187.9 206.25 Q184.85 209.8 178.6 216.35 L168.45 226.95 Q162.05 233.8 148.1 251.55 L135.45 267.75 Q133.4 267.75 133.0 266.75 L132.95 265.55 Q132.95 264.5 136.45 256.2 L141.45 244.0 136.55 250.85 Q132.0 256.7 129.5 256.7 128.7 256.7 128.1 256.3 127.45 255.75 127.45 254.8 L130.4 246.95 Q130.85 245.5 132.25 242.95 L134.15 239.0 134.2 238.7 123.9 247.65 Q117.85 253.05 115.4 254.2 L114.45 253.35 Q113.95 252.85 113.95 252.35 113.95 251.55 119.2 241.95 L119.2 241.5 Q117.3 243.55 114.2 246.1 110.6 249.05 108.15 250.25 107.45 251.05 107.45 249.8 107.45 248.75 110.7 244.65 113.8 240.7 114.4 240.5 116.5 239.65 120.95 235.8 124.75 232.45 126.4 232.45 127.7 232.45 128.15 234.7 128.6 236.95 129.65 236.95 130.5 236.95 135.65 232.5 L139.0 229.75 138.65 229.75 Q135.55 229.75 133.25 224.85 L130.4 217.5 Q129.25 215.1 122.8 211.55 114.4 206.95 105.5 206.95 L100.75 207.45 96.2 208.0 85.3 208.45 Q80.7 208.45 76.15 205.7 72.15 203.3 72.15 201.8 72.15 200.85 72.65 199.75 73.3 198.25 74.4 198.25 74.8 198.25 77.25 199.85 80.25 201.45 83.65 201.45 L93.0 200.25 Q99.45 199.0 105.4 199.0 L110.75 199.55 115.95 200.2 Q115.85 199.3 114.9 198.2 113.85 197.0 112.2 196.2 111.1 195.65 110.45 194.2 109.95 193.15 109.95 192.45 109.95 190.85 110.95 189.75 112.1 188.5 114.15 188.5 114.85 188.5 116.25 189.1 L117.95 189.75 119.25 189.4 120.9 189.0 Q122.1 189.0 123.85 190.25 L125.65 191.45 126.4 191.25 126.85 191.25 126.9 190.45 126.45 187.75 Q125.95 185.7 125.95 185.05 125.95 181.8 127.45 180.35 128.8 179.1 130.8 179.75 132.75 180.4 134.2 182.5 135.8 184.85 135.9 187.95 L137.3 186.05 Q138.75 184.5 140.9 184.5 142.85 184.5 144.75 186.3 L146.4 188.2 148.4 186.9 Q149.8 186.0 151.15 186.0 154.75 186.0 155.3 188.85 155.55 190.3 155.2 192.25 155.5 193.4 156.45 195.6 157.2 197.3 157.2 198.45 L157.0 201.8 155.4 206.2 Q154.7 209.95 154.15 210.6 153.55 211.2 147.75 211.2 L146.0 211.5 143.2 212.0 143.7 216.5 Q143.7 217.8 142.7 219.3 L141.7 221.0 Q141.7 221.65 142.2 223.0 L142.7 224.95 Q142.7 226.85 142.05 228.0 L142.15 228.0 Q144.2 228.0 144.2 229.8 144.2 230.75 143.85 231.5 L142.45 233.95 Q144.05 233.4 146.15 230.65 148.0 228.25 149.4 228.25 150.7 228.25 151.2 229.55 L151.45 230.95 149.55 236.1 147.4 241.7 147.45 241.75 154.5 232.8 Q158.95 227.1 161.95 223.95 L170.65 214.95 172.45 212.6 Q173.5 211.35 175.4 210.75 178.15 209.85 179.45 207.0 179.8 206.25 179.7 204.7 179.6 203.15 179.95 202.5 180.6 201.25 181.85 200.2 L184.7 198.0 Q186.85 196.35 186.9 195.45 L187.15 193.5 Q188.0 191.5 192.15 189.0 L199.5 184.3 Q203.5 181.75 207.4 180.0 L215.1 175.3 Q219.8 172.75 220.55 175.0 L223.45 173.0 Q224.05 172.65 225.5 172.45 L227.2 171.95 228.25 171.25 Q229.4 170.5 230.65 170.0 L233.9 169.15 Q236.35 168.65 237.95 167.7 239.9 166.5 244.0 166.0 L250.15 166.2 Q253.0 166.8 254.1 167.45 255.2 168.15 255.2 169.3 255.2 170.8 253.8 172.0 251.9 173.7 248.25 172.6 L245.45 176.95 244.2 178.95 Q245.25 178.15 246.4 178.2 247.8 178.35 249.85 179.4 252.05 180.5 252.95 180.7 253.9 180.9 254.4 181.95 L254.95 183.45 257.25 181.05 Q258.75 179.5 260.65 179.5 263.35 179.5 263.8 181.8 264.1 183.05 263.95 184.7 264.2 185.45 263.7 187.25 263.6 187.6 263.9 188.05 L264.2 189.3 Q264.2 190.55 263.05 191.8 L262.8 192.05 Q263.15 192.7 263.15 194.1 L262.0 196.2 Q263.05 196.5 263.45 197.45 263.8 198.2 263.7 199.05 263.7 200.9 262.4 201.65 260.35 202.85 259.15 204.75 256.1 209.05 255.4 210.75 L253.25 215.9 253.3 215.95 253.4 216.95 Q253.4 218.05 251.75 221.5 L251.2 222.7 254.45 220.8 254.45 220.75 254.85 218.8 Q255.1 217.5 255.65 217.0 257.2 215.45 258.2 216.4 258.95 217.05 258.95 217.95 L258.95 218.25 Q263.3 215.75 266.4 214.45 269.05 213.25 273.95 209.75 277.5 207.2 279.65 207.2 281.45 207.2 282.2 208.45 282.65 209.1 282.65 209.8 L282.35 211.05 281.7 211.95 Q291.45 212.0 291.45 216.35 291.45 217.35 284.1 223.5 L274.95 231.25 Q284.05 230.55 289.65 232.4 L289.8 232.45 289.9 232.45 Q293.95 232.45 296.0 233.25 L296.15 233.0 Q297.3 231.5 299.65 231.5 L301.3 231.9 302.45 232.45 Q303.05 229.65 303.55 228.35 304.5 226.0 307.9 226.0 308.7 226.0 309.7 226.55 L310.9 227.25 Q310.95 226.35 311.15 225.65 311.5 224.25 312.4 223.45 315.25 220.8 317.15 221.9 318.0 222.4 318.9 224.2 319.25 227.15 319.15 232.45 322.15 232.55 323.2 234.4 323.85 235.55 323.7 236.95 L324.5 236.75 325.9 236.5 M82.05 43.05 Q75.8 47.25 74.9 48.0 L74.45 48.45 76.85 48.55 79.4 48.45 Q83.8 48.45 86.15 49.2 89.9 50.35 89.9 53.45 89.9 56.15 86.2 57.75 87.2 59.25 87.2 60.75 87.2 62.65 85.9 63.5 83.55 65.15 75.9 66.25 72.95 66.65 69.65 68.85 L64.7 72.5 Q61.05 75.05 59.1 78.95 57.45 82.2 57.45 85.05 57.45 86.7 58.95 91.25 60.45 95.8 60.45 97.7 60.45 103.35 58.45 108.2 56.45 113.0 56.45 114.95 56.45 118.3 60.55 118.55 L63.35 118.9 Q64.65 119.4 64.65 120.95 64.65 122.75 63.25 123.75 61.8 124.75 59.15 124.75 53.9 124.75 51.7 121.2 50.2 118.75 50.2 114.75 50.2 110.75 51.7 105.9 53.2 101.05 53.2 98.3 L51.8 94.1 50.4 89.7 Q50.15 87.0 50.15 81.55 50.15 80.25 50.5 78.9 L49.9 79.2 Q47.75 80.3 44.0 81.1 39.05 82.15 35.2 83.5 32.65 84.35 30.5 86.45 L27.4 89.95 25.9 89.75 Q26.15 86.35 31.6 81.95 37.15 77.55 44.15 75.2 46.2 74.5 50.05 71.25 L54.95 67.0 58.55 64.8 Q59.05 63.9 60.2 63.05 62.2 61.55 65.4 60.7 L69.15 59.7 Q72.95 57.0 73.65 55.95 L73.65 55.5 Q65.0 57.05 62.3 54.75 61.2 53.85 61.2 51.7 61.2 49.45 64.7 46.55 L71.2 41.7 71.45 41.5 Q68.75 40.75 66.8 38.9 L63.9 35.7 60.3 32.5 Q59.65 31.95 59.65 30.05 59.65 26.25 63.25 26.9 66.75 27.5 69.95 31.45 L71.2 32.7 72.15 33.7 74.25 34.55 76.65 35.25 82.1 36.2 Q84.45 36.95 84.45 39.45 84.45 41.45 82.05 43.05 M85.75 78.5 Q87.0 77.5 88.4 77.5 91.45 77.5 92.25 80.35 92.75 82.0 92.4 83.75 93.75 84.9 96.85 86.3 L100.4 87.95 Q101.4 88.65 101.65 90.3 L101.7 92.75 Q101.7 95.1 102.6 95.45 104.2 96.0 104.95 97.2 105.55 98.1 105.9 99.65 L106.2 102.05 Q106.2 105.1 104.95 115.2 104.7 117.6 104.95 123.5 104.7 128.2 101.9 128.2 99.15 128.2 97.75 124.75 96.7 122.15 96.9 120.0 96.6 121.2 95.85 126.25 94.8 130.75 92.4 130.75 88.6 130.75 87.7 128.85 87.45 128.4 87.45 126.5 L87.45 126.2 86.55 126.4 84.9 126.75 Q80.8 126.75 80.45 124.1 80.35 123.35 81.15 120.2 L80.1 120.8 78.4 121.25 Q76.2 121.25 75.1 119.7 74.35 118.65 74.45 117.7 L74.6 116.1 Q74.35 115.2 72.2 114.2 70.0 113.2 70.35 110.7 71.15 107.9 71.15 106.8 L68.75 105.2 Q66.3 103.65 66.15 101.75 L65.7 97.05 Q65.7 96.45 67.75 90.7 69.8 84.9 70.7 83.0 L72.1 79.55 Q73.15 77.55 75.2 76.25 76.3 75.4 80.05 75.85 84.45 76.4 84.4 79.7 L85.75 78.5 M32.9 98.5 L33.15 102.2 Q33.75 102.25 34.7 102.75 35.6 103.25 36.25 103.25 L45.65 99.25 Q46.8 99.25 47.4 99.95 47.95 100.55 47.95 101.55 47.95 103.65 45.4 104.95 41.25 107.05 39.95 108.25 L34.2 112.55 29.4 115.5 28.35 115.35 27.7 114.95 Q27.7 113.0 25.8 108.1 L23.9 102.85 Q23.9 101.2 24.95 99.5 25.5 98.55 27.2 98.3 L28.9 98.25 Q32.05 97.15 32.9 98.5 M58.7 59.45 Q57.6 60.7 55.1 61.35 L50.45 62.75 Q49.7 63.05 47.45 64.5 45.45 65.8 44.15 66.2 L43.15 66.0 Q46.65 62.1 51.15 60.3 55.45 58.55 58.7 59.45 M75.7 160.75 Q78.9 161.55 82.6 160.15 L83.4 158.65 Q80.3 159.8 76.95 160.0 76.4 160.45 75.7 160.75 M63.75 157.35 Q64.75 156.75 66.35 156.45 74.6 154.7 77.7 153.2 L81.2 152.35 85.15 151.25 86.4 150.2 87.45 149.0 Q90.0 146.85 91.65 147.65 92.95 148.3 92.95 149.95 92.95 151.85 90.1 154.4 L90.5 154.7 90.85 155.0 91.8 154.25 Q93.95 152.7 94.9 152.7 96.7 152.7 97.45 154.5 L97.9 156.45 Q97.9 159.45 92.55 163.5 L90.7 168.0 88.65 172.2 Q87.0 175.55 85.1 175.35 L83.4 174.45 Q82.75 174.45 78.8 178.35 L73.95 182.95 69.35 187.05 Q66.8 189.25 62.4 189.25 58.8 189.25 56.95 187.7 55.65 186.55 55.65 185.35 55.65 184.15 57.5 183.3 L63.45 180.95 66.5 178.95 69.4 176.45 74.65 171.75 77.45 168.75 76.9 168.75 Q71.75 168.75 67.15 166.7 61.8 164.3 61.7 160.55 L61.15 159.0 Q61.15 157.45 62.4 157.2 L63.75 157.35 M153.6 274.75 Q156.25 264.3 157.4 260.95 L162.45 245.5 163.95 241.55 165.45 237.7 Q166.5 234.55 168.95 233.55 171.4 232.5 171.4 235.35 L168.0 249.6 Q164.3 264.5 163.4 269.5 L161.6 277.9 Q160.4 283.1 159.9 286.45 158.9 292.7 158.9 295.0 L159.0 297.1 Q159.0 298.4 158.45 299.2 158.1 299.65 156.8 299.9 155.55 300.15 155.4 300.45 154.55 301.95 153.4 301.95 151.45 301.95 148.7 300.7 148.45 301.1 148.45 299.85 L149.15 298.25 Q149.85 296.85 149.95 295.75 L150.2 291.8 Q150.2 287.9 153.6 274.75 M246.85 200.1 L247.1 199.9 246.95 199.75 245.95 200.9 246.85 200.1 M243.2 202.5 L241.05 202.3 240.7 205.0 240.7 205.25 244.45 202.15 243.2 202.5 M235.65 200.25 L237.4 199.55 236.15 199.2 234.6 197.8 Q233.8 199.95 233.65 201.2 L233.65 201.45 235.65 200.25 M178.45 265.95 Q180.6 264.75 181.55 266.45 182.2 267.6 182.2 269.3 L181.2 279.35 Q180.15 290.6 180.15 295.8 180.15 296.5 180.7 297.05 L181.9 298.45 181.0 299.55 Q180.5 300.2 179.9 300.2 176.55 300.2 175.65 291.0 L175.45 281.8 Q175.45 278.8 175.75 276.8 L176.9 271.2 177.2 268.45 Q177.55 266.45 178.45 265.95 M189.95 290.5 Q189.95 292.35 190.7 292.95 191.45 293.5 191.45 293.95 L189.9 296.25 Q188.55 296.25 187.85 295.2 L187.15 293.95 Q185.85 293.6 185.05 292.85 184.4 292.2 184.4 291.75 L184.2 286.1 Q184.2 283.35 185.4 282.75 187.0 282.0 189.9 286.45 L190.0 288.3 189.95 290.5" fill="#000000" fill-opacity="0.101960786" fill-rule="evenodd" stroke="none"/>
  </g>
  <defs>
    <linearGradient gradientTransform="matrix(0.0475, 0.0, 0.0, 0.0315, 113.95, 218.75)" gradientUnits="userSpaceOnUse" id="gradient0" spreadMethod="pad" x1="-819.2" x2="819.2">
      <stop offset="0.0" stop-color="#797553"/>
      <stop offset="1.0" stop-color="#353a2c"/>
    </linearGradient>
    <linearGradient gradientTransform="matrix(0.04, 0.0, 0.0, 0.0897, 57.1, 112.8)" gradientUnits="userSpaceOnUse" id="gradient1" spreadMethod="pad" x1="-819.2" x2="819.2">
      <stop offset="0.0" stop-color="#797553"/>
      <stop offset="1.0" stop-color="#353a2c"/>
    </linearGradient>
    <linearGradient gradientTransform="matrix(0.0076, 0.0, 0.0, 0.0215, 30.05, 77.4)" gradientUnits="userSpaceOnUse" id="gradient2" spreadMethod="pad" x1="-819.2" x2="819.2">
      <stop offset="0.0" stop-color="#797553"/>
      <stop offset="1.0" stop-color="#353a2c"/>
    </linearGradient>
    <linearGradient gradientTransform="matrix(9.0E-4, -0.0217, 0.0069, 3.0E-4, 30.25, 77.35)" gradientUnits="userSpaceOnUse" id="gradient3" spreadMethod="pad" x1="-819.2" x2="819.2">
      <stop offset="0.0" stop-color="#797553"/>
      <stop offset="1.0" stop-color="#353a2c"/>
    </linearGradient>
    <linearGradient gradientTransform="matrix(7.0E-4, -0.02, 0.0412, 0.0015, 57.75, 114.75)" gradientUnits="userSpaceOnUse" id="gradient4" spreadMethod="pad" x1="-819.2" x2="819.2">
      <stop offset="0.0" stop-color="#797553"/>
      <stop offset="1.0" stop-color="#353a2c"/>
    </linearGradient>
    <linearGradient gradientTransform="matrix(0.0032, -0.0897, 0.0412, 0.0014, 57.75, 112.6)" gradientUnits="userSpaceOnUse" id="gradient5" spreadMethod="pad" x1="-819.2" x2="819.2">
      <stop offset="0.0" stop-color="#797553"/>
      <stop offset="1.0" stop-color="#353a2c"/>
    </linearGradient>
    <linearGradient gradientTransform="matrix(-0.0018, -0.0156, 0.0144, -0.0017, 83.1, 86.7)" gradientUnits="userSpaceOnUse" id="gradient6" spreadMethod="pad" x1="-819.2" x2="819.2">
      <stop offset="0.0" stop-color="#797553"/>
      <stop offset="1.0" stop-color="#353a2c"/>
    </linearGradient>
    <linearGradient gradientTransform="matrix(0.0022, -0.0115, 0.0052, 0.001, 94.75, 94.3)" gradientUnits="userSpaceOnUse" id="gradient7" spreadMethod="pad" x1="-819.2" x2="819.2">
      <stop offset="0.0" stop-color="#797553"/>
      <stop offset="1.0" stop-color="#353a2c"/>
    </linearGradient>
    <linearGradient gradientTransform="matrix(0.0, -0.0204, 0.0071, 0.0, 90.4, 93.4)" gradientUnits="userSpaceOnUse" id="gradient8" spreadMethod="pad" x1="-819.2" x2="819.2">
      <stop offset="0.0" stop-color="#797553"/>
      <stop offset="1.0" stop-color="#353a2c"/>
    </linearGradient>
    <linearGradient gradientTransform="matrix(7.0E-4, -0.0148, 0.0044, 2.0E-4, 83.25, 93.7)" gradientUnits="userSpaceOnUse" id="gradient9" spreadMethod="pad" x1="-819.2" x2="819.2">
      <stop offset="0.0" stop-color="#797553"/>
      <stop offset="1.0" stop-color="#353a2c"/>
    </linearGradient>
    <linearGradient gradientTransform="matrix(-0.0108, -0.0111, 0.0286, -0.0278, 113.85, 206.7)" gradientUnits="userSpaceOnUse" id="gradient10" spreadMethod="pad" x1="-819.2" x2="819.2">
      <stop offset="0.0" stop-color="#797553"/>
      <stop offset="1.0" stop-color="#353a2c"/>
    </linearGradient>
    <linearGradient gradientTransform="matrix(-0.0226, -0.0233, 0.0286, -0.0278, 111.85, 204.65)" gradientUnits="userSpaceOnUse" id="gradient11" spreadMethod="pad" x1="-819.2" x2="819.2">
      <stop offset="0.0" stop-color="#797553"/>
      <stop offset="1.0" stop-color="#353a2c"/>
    </linearGradient>
    <linearGradient gradientTransform="matrix(-0.0317, -0.0269, 0.0417, -0.0491, 287.05, 277.4)" gradientUnits="userSpaceOnUse" id="gradient12" spreadMethod="pad" x1="-819.2" x2="819.2">
      <stop offset="0.0" stop-color="#797553"/>
      <stop offset="1.0" stop-color="#353a2c"/>
    </linearGradient>
  </defs>
</svg>
