<?xml version="1.0" encoding="UTF-8" standalone="no"?>
<svg xmlns:xlink="http://www.w3.org/1999/xlink" height="229.55px" width="473.65px" xmlns="http://www.w3.org/2000/svg">
  <g transform="matrix(1.0, 0.0, 0.0, 1.0, 0.0, 0.0)">
    <path d="M33.3 3.1 L31.85 2.1 30.15 0.65 29.7 0.0 33.15 1.15 Q37.1 2.5 40.15 3.1 L46.6 4.65 49.25 5.15 49.4 4.95 51.75 5.05 56.45 4.75 57.6 4.05 63.45 3.25 Q66.75 2.6 71.6 4.2 75.55 5.55 78.55 7.65 L80.35 8.1 87.25 8.1 90.1 8.35 92.95 8.9 95.25 9.3 97.45 9.8 97.6 9.95 Q97.95 10.35 96.65 10.8 95.25 11.25 95.3 11.7 L100.3 13.85 Q103.4 15.3 104.05 16.1 L104.1 16.2 105.05 15.85 107.8 15.7 110.7 15.95 Q111.2 16.1 113.0 17.15 120.65 17.65 127.85 19.8 135.3 22.05 137.5 24.65 138.55 25.9 137.6 25.9 L136.15 25.55 Q137.2 26.25 140.35 27.4 L145.15 28.8 145.0 29.1 147.05 29.9 150.7 30.65 Q153.2 31.05 153.45 31.35 154.1 32.1 152.4 32.9 150.65 33.7 151.0 34.1 152.25 35.6 158.35 37.35 L160.4 38.2 162.5 39.0 164.6 39.75 165.85 40.4 Q166.15 40.8 165.95 40.9 L163.75 41.2 171.5 45.45 179.45 50.05 180.15 50.9 179.7 51.0 175.7 50.35 181.4 54.15 186.75 57.95 191.55 61.7 Q194.4 64.0 195.6 65.45 L195.65 65.65 Q194.5 65.45 193.35 64.85 L191.75 64.0 192.15 64.75 192.55 65.3 193.1 66.15 193.1 66.25 192.9 66.25 192.9 66.65 Q193.05 67.9 193.9 68.9 L196.15 70.95 198.1 72.95 Q198.9 73.7 202.35 74.95 L205.05 75.75 Q206.6 76.2 206.95 76.6 207.45 77.25 207.15 77.5 L205.15 78.2 208.65 79.3 Q210.75 80.0 211.15 80.4 211.65 81.0 210.2 81.35 208.35 81.8 208.1 82.45 L207.9 84.75 Q207.55 86.9 207.75 87.4 207.8 87.75 209.15 89.3 211.05 91.6 213.85 94.05 216.55 96.55 218.45 98.8 219.55 100.1 219.7 101.55 L219.45 104.45 Q219.6 104.65 218.85 104.65 L218.7 104.6 Q224.85 111.7 233.7 118.2 239.7 122.7 245.3 125.6 253.05 129.65 262.6 132.45 L262.8 132.7 262.9 132.75 264.35 131.9 Q266.75 130.75 270.3 130.85 L274.0 131.3 274.35 131.25 276.3 131.4 278.65 131.35 279.55 131.0 281.25 130.55 287.25 129.75 Q288.75 129.65 290.45 128.75 L293.55 127.05 296.4 124.9 Q297.0 124.35 298.95 123.35 300.95 122.35 301.9 121.55 303.45 120.3 306.95 120.05 L312.55 119.95 319.4 119.25 329.25 118.4 332.0 118.5 335.55 118.75 338.6 119.15 338.75 119.2 345.6 119.8 351.45 121.6 356.95 123.75 363.05 125.9 Q378.95 130.3 387.0 134.9 L395.55 139.4 404.55 143.95 Q406.1 144.75 409.6 146.2 L414.8 148.45 Q417.6 149.8 423.25 152.9 430.75 156.7 436.75 161.95 439.9 164.65 445.8 171.0 L448.95 174.45 453.0 175.55 453.35 175.8 452.5 176.05 449.8 175.45 453.9 179.95 458.9 184.9 Q460.75 186.6 462.65 188.85 466.4 193.3 468.5 196.85 470.2 199.75 472.65 205.3 473.8 207.75 473.6 209.4 L473.35 211.45 Q472.95 212.85 472.45 213.15 L469.4 213.45 467.95 213.75 461.0 214.2 459.9 214.45 459.05 214.65 456.45 215.05 453.9 215.35 443.9 216.4 Q435.05 217.0 417.9 217.0 397.65 217.0 396.1 216.7 L395.7 216.35 392.2 216.0 382.65 215.25 375.7 214.8 377.35 215.25 Q377.15 215.65 376.65 215.65 L374.8 215.25 371.75 214.7 371.35 214.7 362.05 215.25 360.75 215.6 364.95 218.9 370.55 223.0 372.7 224.45 Q377.7 223.85 383.45 222.45 L393.45 219.45 Q395.9 218.55 400.6 218.1 L411.65 218.6 417.35 219.55 427.55 220.5 435.0 220.15 438.8 219.8 439.25 219.9 Q439.15 220.5 436.75 220.9 L428.2 221.5 416.85 220.15 404.15 218.8 Q400.15 218.8 387.3 222.3 379.6 224.4 373.9 225.3 L376.2 226.9 376.55 227.6 376.55 227.85 375.7 228.1 Q375.0 228.1 370.95 225.65 L367.0 225.85 351.2 224.4 337.9 223.0 Q331.7 223.0 324.5 226.25 317.25 229.55 314.15 229.55 309.3 229.55 303.2 226.4 298.45 224.0 297.1 222.35 L296.15 221.0 296.25 220.9 Q288.45 220.9 280.5 221.25 L272.55 221.6 263.2 221.75 254.2 221.9 250.2 222.2 Q244.85 222.2 242.35 219.25 240.5 217.05 239.3 213.9 L238.1 210.75 238.05 210.5 238.35 210.5 237.8 208.45 237.25 202.6 Q237.2 201.65 237.6 199.8 L237.95 196.85 Q237.95 196.1 238.3 194.2 L238.25 193.2 237.5 192.65 236.8 191.85 235.3 188.9 Q234.35 186.6 233.45 185.55 L228.75 180.85 225.65 178.1 225.1 177.45 226.75 177.3 226.3 177.05 226.65 177.05 227.15 177.05 Q225.95 176.5 223.4 174.65 L215.8 169.35 Q209.1 165.05 201.9 161.2 194.95 157.5 180.05 151.05 L167.55 145.65 163.3 145.0 160.3 143.95 Q156.45 142.5 156.15 142.1 L155.95 141.85 Q151.55 140.1 147.55 137.8 L143.6 135.3 143.45 135.25 143.4 135.15 138.7 132.1 129.9 126.5 121.15 120.95 104.65 109.65 Q93.15 101.6 90.55 99.4 89.3 98.8 88.6 98.05 L86.9 96.2 83.4 92.55 80.75 90.15 79.2 88.8 76.65 87.0 73.8 84.75 67.25 80.3 61.0 75.95 60.8 76.15 Q59.7 75.7 59.05 75.15 L58.2 74.25 Q57.65 73.6 57.35 72.55 L57.25 72.3 56.45 71.35 52.4 66.1 53.05 67.4 55.6 72.85 55.2 73.05 Q53.95 72.3 52.7 70.8 L50.8 68.5 47.2 63.9 47.05 63.75 Q46.7 64.75 47.0 66.4 L47.4 68.85 47.0 68.9 Q46.3 68.9 45.35 67.95 L44.55 67.0 42.1 63.65 37.85 58.25 36.05 58.5 Q34.1 58.75 34.05 59.0 L33.1 58.7 32.65 58.25 Q31.4 53.4 30.55 51.6 22.75 50.1 17.25 46.95 11.85 43.35 8.6 41.65 L8.4 41.4 9.15 41.3 10.7 41.6 12.75 41.9 Q16.4 41.9 18.8 40.5 L21.0 38.85 21.0 38.75 Q16.3 37.9 13.85 36.6 11.65 35.15 9.85 34.35 L4.55 32.2 Q1.45 30.9 0.75 30.0 L0.0 29.1 Q0.0 28.95 0.4 28.95 0.9 28.95 1.95 29.9 2.95 30.5 8.1 30.5 L14.4 30.1 19.2 28.85 Q12.3 26.75 7.8 23.75 L0.85 18.65 0.8 18.45 1.25 18.4 Q1.9 18.4 3.9 19.5 6.0 20.75 7.55 21.0 L12.1 21.95 20.75 22.9 Q19.15 22.4 16.0 20.55 L12.15 17.85 Q11.65 17.25 12.15 17.15 17.3 19.65 20.2 20.15 L23.2 20.3 23.15 20.2 Q22.9 19.9 22.95 19.25 L22.85 19.05 22.95 19.15 Q23.15 18.1 24.1 16.3 L24.1 16.2 Q23.6 16.25 22.95 16.6 22.2 17.0 22.35 17.4 L21.35 17.4 20.85 16.9 Q20.55 16.5 21.6 14.25 22.6 12.05 23.0 11.75 23.55 11.35 25.15 10.6 27.1 9.65 28.4 9.4 29.4 9.15 29.7 8.75 30.45 8.55 34.8 8.7 L37.8 8.85 38.6 8.8 43.25 9.05 44.4 9.4 44.45 9.35 38.6 6.4 Q34.1 4.0 33.4 3.2 L33.3 3.1 M302.6 225.35 Q305.75 227.0 307.8 227.7 310.65 228.75 313.45 228.75 316.45 228.75 323.8 225.4 328.6 223.15 332.95 222.45 L297.55 220.9 296.85 220.9 Q297.4 221.15 297.75 221.65 L298.9 223.05 302.6 225.35 M358.45 213.95 L359.7 214.7 361.2 214.25 362.15 214.1 362.0 214.0 361.95 213.95 358.45 213.95 M339.65 213.85 L339.25 213.85 340.05 214.6 340.15 214.6 339.65 213.85" fill="#000000" fill-opacity="0.101960786" fill-rule="evenodd" stroke="none"/>
  </g>
</svg>
