<?xml version="1.0" encoding="UTF-8" standalone="no"?>
<svg xmlns:xlink="http://www.w3.org/1999/xlink" height="339.95px" width="676.95px" xmlns="http://www.w3.org/2000/svg">
  <g transform="matrix(1.0, 0.0, 0.0, 1.0, 0.0, 0.0)">
    <path d="M676.95 243.95 Q604.75 222.3 588.6 217.75 552.6 207.55 534.4 202.95 513.0 197.5 479.35 190.25 L453.9 184.2 427.35 178.0 384.05 171.25 Q342.6 165.0 339.25 165.0 326.25 165.0 254.9 192.7 216.6 207.55 154.0 232.75 135.2 239.95 100.9 252.55 L49.5 271.5 Q35.3 276.9 0.0 291.55 L0.0 0.0 676.95 0.0 676.95 243.95" fill="url(#gradient0)" fill-rule="evenodd" stroke="none"/>
    <path d="M676.95 243.95 L676.95 339.95 0.0 339.95 0.0 291.55 Q35.3 276.9 49.5 271.5 L100.9 252.55 Q135.2 239.95 154.0 232.75 216.6 207.55 254.9 192.7 326.25 165.0 339.25 165.0 342.6 165.0 384.05 171.25 L427.35 178.0 453.9 184.2 479.35 190.25 Q513.0 197.5 534.4 202.95 552.6 207.55 588.6 217.75 604.75 222.3 676.95 243.95" fill="url(#gradient1)" fill-rule="evenodd" stroke="none"/>
  </g>
  <defs>
    <linearGradient gradientTransform="matrix(0.4169, -0.0091, 0.0039, 0.1779, 338.35, 138.4)" gradientUnits="userSpaceOnUse" id="gradient0" spreadMethod="pad" x1="-819.2" x2="819.2">
      <stop offset="0.0" stop-color="#14151f"/>
      <stop offset="1.0" stop-color="#64250b"/>
    </linearGradient>
    <linearGradient gradientTransform="matrix(0.3501, 0.0011, -3.0E-4, 0.1067, 450.15, 201.1)" gradientUnits="userSpaceOnUse" id="gradient1" spreadMethod="pad" x1="-819.2" x2="819.2">
      <stop offset="0.0" stop-color="#0e0f14"/>
      <stop offset="1.0" stop-color="#4e3c29"/>
    </linearGradient>
  </defs>
</svg>
