<?xml version="1.0" encoding="UTF-8" standalone="no"?>
<svg xmlns:xlink="http://www.w3.org/1999/xlink" height="381.5px" width="295.0px" xmlns="http://www.w3.org/2000/svg">
  <g transform="matrix(1.0, 0.0, 0.0, 1.0, 0.0, -19.75)">
    <path d="M260.55 392.9 L250.75 392.5 Q242.45 392.5 202.9 396.9 163.3 401.25 148.0 401.25 106.55 401.25 83.0 398.15 54.0 394.4 36.8 384.5 18.05 373.75 9.15 353.6 0.0 332.7 0.0 298.75 0.0 266.6 5.9 227.15 10.35 197.35 19.5 155.9 22.75 141.2 30.7 120.75 34.0 112.25 45.75 84.65 50.95 72.35 54.1 66.35 59.55 56.0 66.25 48.65 71.0 43.45 75.1 39.95 79.0 36.6 87.25 30.65 95.45 24.75 108.85 24.95 L120.1 25.45 131.5 24.9 Q139.95 24.9 169.15 27.85 L185.55 29.75 185.5 27.15 Q185.5 24.1 186.3 22.05 187.8 18.15 191.5 20.9 L191.8 23.8 193.75 22.4 192.15 30.75 Q205.75 32.95 206.75 35.15 L206.45 36.7 Q206.05 37.65 204.5 37.65 L191.65 35.7 Q192.2 39.85 193.8 48.15 196.3 61.4 197.0 62.9 201.95 72.2 212.7 80.6 217.15 84.1 218.65 85.9 221.0 88.8 221.0 92.4 221.0 95.15 218.25 97.15 213.9 100.3 211.0 104.65 213.55 107.05 215.4 111.5 217.35 116.15 217.0 119.4 216.7 122.3 217.05 126.6 L218.0 134.4 219.6 141.55 Q220.85 146.6 221.0 149.4 221.6 158.55 226.4 159.35 L229.6 159.95 Q231.0 160.7 231.0 163.5 231.0 164.55 229.5 169.15 228.0 173.7 228.0 175.15 228.0 177.3 228.75 183.3 229.55 190.0 230.5 194.65 L232.8 204.45 Q234.0 209.65 234.0 213.0 234.0 217.4 231.25 221.85 228.5 226.35 228.5 226.9 228.5 228.55 238.15 238.4 247.75 248.3 247.75 252.4 247.75 253.05 246.25 256.15 L245.3 258.3 244.9 261.9 Q245.35 264.0 247.4 265.9 L253.25 270.35 Q261.75 276.7 261.75 285.15 261.75 288.3 260.4 291.2 259.0 294.1 259.0 296.4 259.0 296.85 263.4 301.85 267.75 307.9 267.75 313.4 267.75 314.65 266.75 318.45 265.75 322.25 265.75 323.5 265.75 325.4 267.25 328.35 268.75 331.35 268.75 334.4 268.75 335.65 267.65 340.05 266.5 344.4 266.5 345.65 266.5 353.4 272.35 372.75 L277.2 389.7 Q284.3 389.85 294.0 389.25 L294.15 389.6 295.0 390.5 292.6 393.05 Q289.05 395.25 281.5 395.25 L278.45 395.15 278.75 397.25 277.15 395.05 268.95 393.95 269.5 393.25 Q269.1 391.55 266.35 388.85 L269.0 389.15 274.15 389.6 Q270.45 381.75 267.05 368.75 262.25 350.3 262.25 341.15 262.25 339.9 263.25 337.8 264.25 335.65 264.25 334.4 264.25 332.5 262.25 328.7 L260.25 324.65 Q260.25 322.8 261.75 319.05 263.25 315.3 263.25 313.4 263.25 312.15 261.95 308.45 260.75 305.15 260.25 304.4 L257.2 301.75 257.25 302.65 256.75 312.75 256.25 320.25 Q256.25 321.5 257.25 327.0 258.25 332.5 258.25 333.75 L257.2 350.75 256.35 349.9 Q255.9 353.55 254.4 358.4 252.8 363.6 251.1 366.2 L251.45 368.2 Q252.7 374.4 254.3 379.55 255.85 384.55 257.55 388.05 259.0 391.0 260.55 392.9 M189.6 59.45 L189.7 60.75 Q190.2 67.9 190.75 72.65 190.85 73.9 198.2 82.2 205.5 90.45 205.5 92.9 L203.5 100.3 Q201.5 108.05 201.5 109.75 201.5 113.1 205.15 122.85 208.2 131.1 209.5 133.4 212.35 138.6 213.2 144.75 213.75 148.45 213.75 155.9 213.9 169.3 217.85 180.9 221.75 192.4 221.75 201.25 221.75 205.7 217.75 217.1 213.75 228.5 213.75 231.65 213.75 232.85 220.5 238.1 226.1 242.45 228.5 243.9 229.45 244.5 239.55 248.5 L240.9 249.1 233.25 240.9 Q223.25 230.35 223.25 227.4 223.25 225.6 226.15 220.3 229.0 215.05 229.0 213.15 229.0 211.85 226.0 199.1 223.0 186.35 223.0 175.25 223.0 173.45 223.65 170.4 224.2 167.5 225.0 165.15 L220.25 161.1 Q217.45 158.75 217.25 157.4 L216.5 153.65 216.0 149.9 Q215.8 147.1 214.6 142.05 213.3 136.55 213.0 134.15 212.0 126.05 212.0 118.4 211.9 112.25 208.95 110.55 207.35 109.65 206.9 109.0 206.0 107.7 206.0 104.75 206.0 101.8 210.9 97.85 215.75 93.85 215.75 92.15 215.75 91.4 211.9 87.55 L203.35 79.15 Q190.7 66.35 189.75 60.15 L189.6 59.45 M255.25 291.2 Q257.25 286.6 257.25 285.5 257.25 280.7 248.75 273.0 L243.85 268.35 243.0 272.65 Q240.5 284.7 240.5 287.0 240.5 289.1 243.1 290.45 L248.9 292.75 Q251.7 293.85 253.6 295.35 L255.25 291.2" fill="#000000" fill-rule="evenodd" stroke="none"/>
    <path d="M268.95 393.95 L268.35 394.85 Q267.45 396.0 266.0 396.0 263.15 396.0 260.55 392.9 259.0 391.0 257.55 388.05 255.85 384.55 254.3 379.55 252.7 374.4 251.45 368.2 L251.1 366.2 Q252.8 363.6 254.4 358.4 255.9 353.55 256.35 349.9 L257.2 350.75 258.25 333.75 Q258.25 332.5 257.25 327.0 256.25 321.5 256.25 320.25 L256.75 312.75 257.25 302.65 257.2 301.75 260.25 304.4 Q260.75 305.15 261.95 308.45 263.25 312.15 263.25 313.4 263.25 315.3 261.75 319.05 260.25 322.8 260.25 324.65 L262.25 328.7 Q264.25 332.5 264.25 334.4 264.25 335.65 263.25 337.8 262.25 339.9 262.25 341.15 262.25 350.3 267.05 368.75 270.45 381.75 274.15 389.6 L269.0 389.15 266.35 388.85 Q269.1 391.55 269.5 393.25 L268.95 393.95 M255.25 291.2 L253.6 295.35 Q251.7 293.85 248.9 292.75 L243.1 290.45 Q240.5 289.1 240.5 287.0 240.5 284.7 243.0 272.65 L243.85 268.35 248.75 273.0 Q257.25 280.7 257.25 285.5 257.25 286.6 255.25 291.2 M189.6 59.45 L189.75 60.15 Q190.7 66.35 203.35 79.15 L211.9 87.55 Q215.75 91.4 215.75 92.15 215.75 93.85 210.9 97.85 206.0 101.8 206.0 104.75 206.0 107.7 206.9 109.0 207.35 109.65 208.95 110.55 211.9 112.25 212.0 118.4 212.0 126.05 213.0 134.15 213.3 136.55 214.6 142.05 215.8 147.1 216.0 149.9 L216.5 153.65 217.25 157.4 Q217.45 158.75 220.25 161.1 L225.0 165.15 Q224.2 167.5 223.65 170.4 223.0 173.45 223.0 175.25 223.0 186.35 226.0 199.1 229.0 211.85 229.0 213.15 229.0 215.05 226.15 220.3 223.25 225.6 223.25 227.4 223.25 230.35 233.25 240.9 L240.9 249.1 239.55 248.5 Q229.45 244.5 228.5 243.9 226.1 242.45 220.5 238.1 213.75 232.85 213.75 231.65 213.75 228.5 217.75 217.1 221.75 205.7 221.75 201.25 221.75 192.4 217.85 180.9 213.9 169.3 213.75 155.9 213.75 148.45 213.2 144.75 212.35 138.6 209.5 133.4 208.2 131.1 205.15 122.85 201.5 113.1 201.5 109.75 201.5 108.05 203.5 100.3 L205.5 92.9 Q205.5 90.45 198.2 82.2 190.85 73.9 190.75 72.65 190.2 67.9 189.7 60.75 L189.6 59.45" fill="url(#gradient0)" fill-rule="evenodd" stroke="none"/>
  </g>
  <defs>
    <linearGradient gradientTransform="matrix(-0.1115, -5.0E-4, 2.0E-4, -0.0328, 423.45, 158.15)" gradientUnits="userSpaceOnUse" id="gradient0" spreadMethod="pad" x1="-819.2" x2="819.2">
      <stop offset="0.0" stop-color="#dd9a00"/>
      <stop offset="1.0" stop-color="#aa3300"/>
    </linearGradient>
  </defs>
</svg>
