<?xml version="1.0" encoding="UTF-8" standalone="no"?>
<svg xmlns:xlink="http://www.w3.org/1999/xlink" height="207.2px" width="866.65px" xmlns="http://www.w3.org/2000/svg">
  <g transform="matrix(1.0, 0.0, 0.0, 1.0, 79.95, 0.25)">
    <path d="M402.25 0.05 Q439.6 0.1 449.75 0.25 L450.9 0.25 483.5 0.0 650.95 0.1 650.95 67.8 Q650.1 71.15 669.45 90.05 688.75 108.9 758.1 166.2 827.4 223.5 728.9 200.25 630.35 176.95 621.4 165.6 612.45 154.2 574.95 155.9 537.45 157.6 501.65 151.5 465.85 145.4 438.45 159.35 411.05 173.25 399.45 173.95 387.8 174.6 382.55 160.85 377.25 147.05 378.7 147.8 361.85 136.9 361.25 143.5 360.7 150.05 357.35 145.75 353.95 141.45 351.45 142.4 348.9 143.35 338.15 159.95 327.4 176.5 319.8 163.45 312.2 150.35 266.6 150.95 220.95 151.5 206.2 144.7 191.45 137.85 135.7 150.55 79.9 163.2 70.4 145.05 60.85 126.85 26.25 146.0 -2.95 155.2 -7.85 143.1 -12.75 130.95 -79.95 132.6 L0.0 0.6 182.0 0.7 184.75 0.7 238.25 0.6 238.75 0.6 244.85 0.45 261.3 0.2 Q261.85 0.65 263.3 0.9 L263.2 1.0 Q259.85 1.1 259.55 1.7 259.55 3.65 260.7 5.1 L261.8 6.7 261.5 8.35 261.0 9.95 260.4 11.65 Q260.05 12.65 260.05 13.45 260.05 14.7 260.5 15.2 260.7 16.15 261.35 16.6 L262.0 16.95 260.0 21.05 Q260.0 21.7 260.55 22.15 261.05 22.65 261.05 23.25 261.05 23.9 260.55 24.55 260.0 25.25 260.0 25.85 260.0 26.8 261.2 28.7 L261.4 29.05 262.0 30.35 262.5 31.25 262.55 31.4 262.55 31.5 262.35 33.15 262.05 34.5 Q262.05 35.1 262.4 36.0 L262.55 36.4 262.45 38.45 262.25 38.65 Q261.75 39.2 261.75 39.8 261.75 40.25 262.25 41.15 L261.75 48.95 261.8 51.65 Q262.6 54.25 266.3 54.25 267.05 54.25 269.05 51.35 271.0 48.45 271.75 48.45 L273.45 48.85 276.25 49.25 Q276.25 50.45 276.85 51.4 277.95 53.2 280.8 53.2 L282.95 52.0 Q285.05 50.75 285.65 50.75 286.3 50.75 287.75 51.25 L289.8 51.7 290.95 51.25 291.75 50.75 294.3 51.0 297.15 49.65 Q299.45 48.5 299.8 48.5 L301.55 49.65 Q303.35 50.75 305.4 50.75 309.5 50.75 311.75 48.7 L313.0 47.2 313.55 47.75 320.15 48.35 326.75 48.2 326.5 48.5 325.65 49.25 Q325.3 49.6 325.3 50.35 L325.5 51.2 Q326.0 52.0 327.55 52.0 333.05 52.0 337.3 49.95 L340.25 48.1 342.25 48.2 346.5 48.45 364.55 47.45 365.6 46.5 Q365.9 46.2 367.25 45.5 L367.8 45.25 368.5 44.75 374.45 44.35 380.0 44.05 Q381.2 45.55 382.7 44.2 384.3 42.8 385.5 45.2 386.5 47.2 391.4 48.35 L397.0 49.2 Q397.8 49.2 398.5 48.55 399.25 47.8 399.25 46.8 398.75 44.8 397.55 44.45 L400.3 41.0 402.8 39.1 Q404.05 38.2 404.05 37.45 404.05 35.2 402.9 32.55 401.75 29.85 401.75 28.8 L402.65 27.4 Q403.5 26.2 403.5 25.45 L402.65 23.8 401.75 21.95 Q401.75 21.55 403.8 20.05 405.8 18.55 405.8 17.2 L405.5 14.8 405.05 12.2 Q404.75 9.95 402.6 8.3 L400.55 6.5 400.45 4.8 Q400.3 3.9 399.75 3.2 L401.5 1.2 402.25 0.05 M345.45 0.0 L370.85 0.05 370.6 0.1 Q368.5 0.9 368.5 2.45 L368.15 4.7 367.75 6.95 Q367.75 7.6 368.25 7.95 368.75 8.35 368.75 8.95 368.75 9.4 366.15 12.4 363.5 15.45 363.5 17.45 363.5 19.2 362.5 20.95 361.3 22.95 361.0 24.95 L356.05 28.7 355.7 29.3 354.3 30.5 353.0 31.7 352.8 32.75 Q352.8 33.15 354.05 34.7 L355.3 36.55 355.05 37.8 354.75 38.45 350.45 38.7 344.8 38.95 344.75 37.95 344.5 37.5 Q347.3 37.35 348.5 35.95 349.3 35.05 349.3 33.8 348.85 28.85 348.0 28.0 351.3 27.4 351.3 24.85 L351.15 22.95 Q351.05 21.8 351.25 21.2 351.85 19.4 352.95 19.85 354.25 20.35 355.0 19.25 L355.55 18.5 355.75 17.35 355.3 15.7 354.8 14.45 Q355.05 13.05 354.65 12.55 353.95 11.8 349.5 11.45 L349.75 11.2 350.85 10.1 351.05 8.85 Q351.05 8.25 350.55 7.8 350.05 7.35 350.05 6.7 350.05 6.1 350.55 4.8 L351.05 2.85 Q351.05 1.15 348.3 0.65 L345.45 0.0 M223.7 43.6 L224.1 43.55 230.8 42.75 230.55 43.2 Q229.95 43.8 228.75 44.0 L226.05 44.5 226.3 45.75 230.05 45.9 232.0 46.25 Q240.75 45.35 242.65 44.45 L244.05 44.7 Q246.7 45.15 246.8 45.7 247.05 46.9 247.75 47.45 L249.75 48.0 Q251.4 48.3 252.25 49.0 L253.1 50.2 Q253.9 51.2 255.0 51.2 257.15 51.2 258.55 49.95 259.8 48.85 259.8 47.6 259.8 45.1 257.5 41.7 254.7 37.55 251.55 38.95 251.45 37.45 249.85 36.2 L248.0 35.2 248.7 34.4 Q249.0 34.0 249.0 33.2 249.0 32.5 248.55 32.15 249.5 30.9 249.5 30.3 249.5 29.95 248.8 29.1 L247.5 27.75 247.8 27.4 Q249.8 26.8 249.8 24.85 L249.35 23.35 248.8 22.25 Q248.7 21.5 247.25 20.4 L245.55 19.25 Q246.15 18.95 246.6 18.0 247.0 17.15 247.0 16.45 L245.3 14.0 Q244.9 13.45 244.8 12.6 L244.55 11.45 243.6 10.55 Q242.9 9.85 243.0 8.75 243.15 6.8 242.45 6.2 L241.75 5.75 Q242.85 4.1 242.95 3.25 243.1 1.75 238.3 1.2 L234.3 0.65 223.7 0.65 223.8 0.7 Q224.3 1.05 224.3 1.75 L222.3 3.7 Q220.3 5.45 220.3 7.45 220.3 8.1 220.8 8.4 221.25 8.7 221.25 9.3 221.25 10.4 220.2 11.1 L218.75 11.75 Q217.25 12.55 217.25 14.7 L210.85 15.85 Q208.5 16.6 208.5 18.45 208.5 20.25 210.4 20.6 L216.75 20.2 216.55 20.75 Q210.75 21.7 210.75 24.3 210.75 26.1 214.1 29.55 216.55 32.1 218.25 33.25 216.15 34.55 215.5 35.7 L215.05 37.2 214.3 39.4 Q213.8 40.7 213.8 41.45 L214.25 42.75 Q215.35 44.0 218.75 44.0 L219.15 44.0 Q217.75 45.25 217.75 46.95 217.75 47.7 218.0 47.7 L219.0 47.7 Q219.5 46.8 221.95 45.1 L223.7 43.6" fill="#1a1a1a" fill-rule="evenodd" stroke="none"/>
    <path d="M261.3 0.2 L265.7 0.15 266.25 0.35 Q268.25 1.15 268.25 2.45 268.25 3.25 267.95 3.35 L267.0 3.45 Q269.25 3.75 269.3 4.45 L268.9 4.85 Q268.5 5.2 268.5 5.95 268.5 6.75 268.2 6.95 L267.5 7.2 268.45 7.9 Q269.0 8.3 269.0 8.95 269.0 10.85 267.4 13.85 265.8 16.85 265.8 17.95 L266.4 22.15 267.0 26.3 Q267.0 27.55 266.35 28.7 265.7 29.8 265.8 32.2 L265.55 33.55 265.3 35.2 265.55 36.2 265.75 37.55 Q265.75 38.2 265.15 38.8 264.5 39.4 264.5 40.0 264.5 40.4 265.4 41.95 L266.25 43.55 Q266.25 44.45 265.35 46.4 264.4 48.55 263.5 48.95 L262.7 48.8 262.5 47.85 Q262.5 47.25 263.15 45.8 263.75 44.4 263.75 43.75 L262.75 41.95 262.25 41.15 Q261.75 40.25 261.75 39.8 261.75 39.2 262.25 38.65 L262.45 38.45 262.75 37.5 262.55 36.4 262.4 36.0 Q262.05 35.1 262.05 34.5 L262.35 33.15 262.55 31.5 262.55 31.4 262.5 31.25 262.2 30.45 261.4 29.0 261.4 29.05 261.2 28.7 Q260.0 26.8 260.0 25.85 260.0 25.25 260.55 24.55 261.05 23.9 261.05 23.25 261.05 22.65 260.55 22.15 260.0 21.7 260.0 21.05 L262.0 16.95 261.35 16.6 Q260.7 16.15 260.5 15.2 260.05 14.7 260.05 13.45 260.05 12.65 260.4 11.65 L261.0 9.95 261.5 8.35 261.8 6.7 260.7 5.1 Q259.55 3.65 259.55 1.7 259.85 1.1 263.2 1.0 L263.75 0.95 263.3 0.9 Q261.85 0.65 261.3 0.2 M312.55 0.0 L345.4 0.0 345.45 0.0 348.3 0.65 Q351.05 1.15 351.05 2.85 L350.55 4.8 Q350.05 6.1 350.05 6.7 350.05 7.35 350.55 7.8 351.05 8.25 351.05 8.85 L350.85 10.1 349.75 11.2 349.5 11.45 Q353.95 11.8 354.65 12.55 355.05 13.05 354.8 14.45 L355.3 15.7 355.75 17.35 355.55 18.5 355.0 19.25 Q354.25 20.35 352.95 19.85 351.85 19.4 351.25 21.2 351.05 21.8 351.15 22.95 L351.3 24.85 Q351.3 27.4 348.0 28.0 348.85 28.85 349.3 33.8 349.3 35.05 348.5 35.95 347.3 37.35 344.5 37.5 L344.75 37.95 344.8 38.95 344.8 39.0 Q344.8 40.45 344.05 41.25 342.85 42.55 339.5 43.2 341.3 43.6 341.3 45.95 341.3 47.05 340.25 48.1 L337.3 49.95 Q333.05 52.0 327.55 52.0 326.0 52.0 325.5 51.2 L325.3 50.35 Q325.3 49.6 325.65 49.25 L326.5 48.5 326.75 48.2 320.15 48.35 313.55 47.75 313.0 47.2 Q312.55 46.6 312.5 45.5 L312.5 45.2 Q312.5 44.6 313.0 43.85 313.5 43.15 313.5 42.5 L312.85 42.0 Q312.15 41.7 312.0 40.25 L312.05 38.5 Q309.55 37.6 308.85 36.6 308.5 36.1 308.5 34.85 308.5 33.9 309.6 33.25 311.7 32.0 313.3 30.45 313.15 29.8 313.45 28.35 L313.75 26.25 Q313.35 22.2 313.5 20.25 L312.4 17.3 Q311.6 15.15 312.8 14.45 309.05 13.7 309.05 11.3 309.05 10.5 310.15 9.85 311.7 8.9 312.8 7.0 311.95 6.5 310.85 5.05 309.75 3.6 309.75 2.95 309.75 2.2 311.4 1.0 L312.55 0.0 M377.55 0.05 L379.0 0.05 381.0 0.05 398.5 0.05 400.5 0.05 402.25 0.05 401.5 1.2 399.75 3.2 Q400.3 3.9 400.45 4.8 L400.55 6.5 402.6 8.3 Q404.75 9.95 405.05 12.2 L405.5 14.8 405.8 17.2 Q405.8 18.55 403.8 20.05 401.75 21.55 401.75 21.95 L402.65 23.8 403.5 25.45 Q403.5 26.2 402.65 27.4 L401.75 28.8 Q401.75 29.85 402.9 32.55 404.05 35.2 404.05 37.45 404.05 38.2 402.8 39.1 L400.3 41.0 397.55 44.45 Q398.75 44.8 399.25 46.8 399.25 47.8 398.5 48.55 397.8 49.2 397.0 49.2 L391.4 48.35 Q386.5 47.2 385.5 45.2 384.3 42.8 382.7 44.2 381.2 45.55 380.0 44.05 L379.75 43.7 379.3 43.1 379.0 42.5 Q378.9 42.05 378.95 41.45 L379.0 40.05 Q379.0 39.45 378.4 38.65 377.8 37.9 377.8 37.25 377.8 36.65 378.3 36.05 378.8 35.45 378.8 34.8 378.8 34.1 378.3 33.45 377.8 32.75 377.8 32.45 L378.15 31.8 378.5 30.5 377.35 30.0 Q376.2 29.55 376.3 27.2 L376.05 25.95 375.8 24.3 Q375.8 23.1 377.45 21.3 L379.05 19.25 Q379.05 18.65 378.55 18.05 378.0 17.45 378.0 16.8 378.0 14.4 380.75 13.75 L379.85 12.4 Q379.3 11.55 379.3 10.75 379.3 7.85 380.75 4.0 377.5 3.35 377.5 1.0 L377.55 0.05 M297.35 4.0 Q299.05 3.6 301.55 5.75 L301.0 7.0 Q300.55 7.95 300.0 7.95 L296.0 7.45 295.9 7.25 295.8 6.45 Q295.8 4.35 297.35 4.0 M296.5 19.5 L297.65 19.45 299.55 19.75 299.5 20.45 298.65 20.5 Q295.9 20.5 296.15 20.15 L296.5 19.5 M299.3 38.45 L296.25 37.95 296.85 37.15 299.55 37.7 299.65 37.45 299.75 38.1 299.3 38.45 M223.7 43.6 L221.95 45.1 Q219.5 46.8 219.0 47.7 L218.0 47.7 Q217.75 47.7 217.75 46.95 217.75 45.25 219.15 44.0 L219.75 43.5 219.05 43.3 Q218.5 43.0 218.5 42.2 218.5 41.5 218.95 41.35 L221.0 40.25 220.05 39.7 Q220.6 38.9 221.0 38.75 L224.05 38.5 224.2 38.65 224.3 39.55 Q224.55 40.95 223.0 41.25 L223.55 41.6 Q224.05 42.0 224.05 42.75 L224.05 42.85 224.0 43.1 223.85 43.4 223.7 43.6 M244.8 29.2 L244.55 30.25 244.0 31.2 Q243.0 32.2 240.5 32.2 239.15 30.85 238.3 30.7 L234.15 30.0 233.95 30.0 233.1 29.9 232.75 29.75 Q232.5 30.3 232.5 29.05 232.5 28.25 233.2 27.65 234.0 26.95 234.25 25.5 L234.25 25.45 Q234.35 24.5 235.05 23.5 235.85 22.5 238.55 22.25 L235.5 21.6 234.75 21.5 234.9 21.3 235.0 21.2 239.1 21.3 242.85 22.45 243.25 22.75 Q244.8 24.15 244.8 28.45 L244.8 28.95 244.8 29.2" fill="url(#gradient0)" fill-rule="evenodd" stroke="none"/>
    <path d="M265.7 0.15 L285.5 0.0 312.55 0.0 311.4 1.0 Q309.75 2.2 309.75 2.95 309.75 3.6 310.85 5.05 311.95 6.5 312.8 7.0 311.7 8.9 310.15 9.85 309.05 10.5 309.05 11.3 309.05 13.7 312.8 14.45 311.6 15.15 312.4 17.3 L313.5 20.25 Q313.35 22.2 313.75 26.25 L313.45 28.35 Q313.15 29.8 313.3 30.45 311.7 32.0 309.6 33.25 308.5 33.9 308.5 34.85 308.5 36.1 308.85 36.6 309.55 37.6 312.05 38.5 L312.0 40.25 Q312.15 41.7 312.85 42.0 L313.5 42.5 Q313.5 43.15 313.0 43.85 312.5 44.6 312.5 45.2 L312.5 45.5 Q312.55 46.6 313.0 47.2 L311.75 48.7 Q309.5 50.75 305.4 50.75 303.35 50.75 301.55 49.65 L299.8 48.5 Q299.45 48.5 297.15 49.65 L294.3 51.0 291.75 50.75 290.95 51.25 289.8 51.7 287.75 51.25 Q286.3 50.75 285.65 50.75 285.05 50.75 282.95 52.0 L280.8 53.2 Q277.95 53.2 276.85 51.4 276.25 50.45 276.25 49.25 L273.45 48.85 271.75 48.45 Q271.0 48.45 269.05 51.35 267.05 54.25 266.3 54.25 262.6 54.25 261.8 51.65 L261.75 48.95 262.25 41.15 262.75 41.95 263.75 43.75 Q263.75 44.4 263.15 45.8 262.5 47.25 262.5 47.85 L262.7 48.8 263.5 48.95 Q264.4 48.55 265.35 46.4 266.25 44.45 266.25 43.55 L265.4 41.95 Q264.5 40.4 264.5 40.0 264.5 39.4 265.15 38.8 265.75 38.2 265.75 37.55 L265.55 36.2 265.3 35.2 265.55 33.55 265.8 32.2 Q265.7 29.8 266.35 28.7 267.0 27.55 267.0 26.3 L266.4 22.15 265.8 17.95 Q265.8 16.85 267.4 13.85 269.0 10.85 269.0 8.95 269.0 8.3 268.45 7.9 L267.5 7.2 268.2 6.95 Q268.5 6.75 268.5 5.95 268.5 5.2 268.9 4.85 L269.3 4.45 Q269.25 3.75 267.0 3.45 L267.95 3.35 Q268.25 3.25 268.25 2.45 268.25 1.15 266.25 0.35 L265.7 0.15 M370.85 0.05 L377.55 0.05 377.5 1.0 Q377.5 3.35 380.75 4.0 379.3 7.85 379.3 10.75 379.3 11.55 379.85 12.4 L380.75 13.75 Q378.0 14.4 378.0 16.8 378.0 17.45 378.55 18.05 379.05 18.65 379.05 19.25 L377.45 21.3 Q375.8 23.1 375.8 24.3 L376.05 25.95 376.3 27.2 Q376.2 29.55 377.35 30.0 L378.5 30.5 378.15 31.8 377.8 32.45 Q377.8 32.75 378.3 33.45 378.8 34.1 378.8 34.8 378.8 35.45 378.3 36.05 377.8 36.65 377.8 37.25 377.8 37.9 378.4 38.65 379.0 39.45 379.0 40.05 L378.95 41.45 Q378.9 42.05 379.0 42.5 L379.3 43.1 379.75 43.7 380.0 44.05 374.45 44.35 368.5 44.75 367.8 45.25 367.25 45.5 Q365.9 46.2 365.6 46.5 L364.55 47.45 346.5 48.45 342.25 48.2 340.25 48.1 Q341.3 47.05 341.3 45.95 341.3 43.6 339.5 43.2 342.85 42.55 344.05 41.25 344.8 40.45 344.8 39.0 L344.8 38.95 350.45 38.7 354.75 38.45 355.05 37.8 355.3 36.55 354.05 34.7 Q352.8 33.15 352.8 32.75 L353.0 31.7 354.3 30.5 355.7 29.3 356.05 28.7 361.0 24.95 Q361.3 22.95 362.5 20.95 363.5 19.2 363.5 17.45 363.5 15.45 366.15 12.4 368.75 9.4 368.75 8.95 368.75 8.35 368.25 7.95 367.75 7.6 367.75 6.95 L368.15 4.7 368.5 2.45 Q368.5 0.9 370.6 0.1 L370.85 0.05 M262.45 38.45 L262.55 36.4 262.75 37.5 262.45 38.45 M262.5 31.25 L262.0 30.35 261.4 29.05 261.4 29.0 262.2 30.45 262.5 31.25 M263.2 1.0 L263.3 0.9 263.75 0.95 263.2 1.0 M299.3 38.45 L299.75 38.1 299.65 37.45 299.55 37.7 296.85 37.15 296.25 37.95 299.3 38.45 M296.5 19.5 L296.15 20.15 Q295.9 20.5 298.65 20.5 L299.5 20.45 299.55 19.75 297.65 19.45 296.5 19.5 M297.35 4.0 Q295.8 4.35 295.8 6.45 L295.9 7.25 296.0 7.45 300.0 7.95 Q300.55 7.95 301.0 7.0 L301.55 5.75 Q299.05 3.6 297.35 4.0 M219.15 44.0 L218.75 44.0 Q215.35 44.0 214.25 42.75 L213.8 41.45 Q213.8 40.7 214.3 39.4 L215.05 37.2 215.5 35.7 Q216.15 34.55 218.25 33.25 216.55 32.1 214.1 29.55 210.75 26.1 210.75 24.3 210.75 21.7 216.55 20.75 L216.75 20.2 210.4 20.6 Q208.5 20.25 208.5 18.45 208.5 16.6 210.85 15.85 L217.25 14.7 Q217.25 12.55 218.75 11.75 L220.2 11.1 Q221.25 10.4 221.25 9.3 221.25 8.7 220.8 8.4 220.3 8.1 220.3 7.45 220.3 5.45 222.3 3.7 L224.3 1.75 Q224.3 1.05 223.8 0.7 L223.7 0.65 234.3 0.65 238.3 1.2 Q243.1 1.75 242.95 3.25 242.85 4.1 241.75 5.75 L242.45 6.2 Q243.15 6.8 243.0 8.75 242.9 9.85 243.6 10.55 L244.55 11.45 244.8 12.6 Q244.9 13.45 245.3 14.0 L247.0 16.45 Q247.0 17.15 246.6 18.0 246.15 18.95 245.55 19.25 L247.25 20.4 Q248.7 21.5 248.8 22.25 L249.35 23.35 249.8 24.85 Q249.8 26.8 247.8 27.4 L247.5 27.75 248.8 29.1 Q249.5 29.95 249.5 30.3 249.5 30.9 248.55 32.15 249.0 32.5 249.0 33.2 249.0 34.0 248.7 34.4 L248.0 35.2 249.85 36.2 Q251.45 37.45 251.55 38.95 254.7 37.55 257.5 41.7 259.8 45.1 259.8 47.6 259.8 48.85 258.55 49.95 257.15 51.2 255.0 51.2 253.9 51.2 253.1 50.2 L252.25 49.0 Q251.4 48.3 249.75 48.0 L247.75 47.45 Q247.05 46.9 246.8 45.7 246.7 45.15 244.05 44.7 L242.65 44.45 Q240.75 45.35 232.0 46.25 L230.05 45.9 226.3 45.75 226.05 44.5 228.75 44.0 Q229.95 43.8 230.55 43.2 L230.8 42.75 224.1 43.55 223.7 43.6 223.85 43.4 224.0 43.1 224.05 42.85 224.05 42.75 Q224.05 42.0 223.55 41.6 L223.0 41.25 Q224.55 40.95 224.3 39.55 L224.2 38.65 224.05 38.5 221.0 38.75 Q220.6 38.9 220.05 39.7 L221.0 40.25 218.95 41.35 Q218.5 41.5 218.5 42.2 218.5 43.0 219.05 43.3 L219.75 43.5 219.15 44.0 M244.8 29.2 L244.8 28.95 244.8 28.45 Q244.8 24.15 243.25 22.75 L242.85 22.45 239.1 21.3 235.0 21.2 234.9 21.3 234.75 21.5 235.5 21.6 238.55 22.25 Q235.85 22.5 235.05 23.5 234.35 24.5 234.25 25.45 L234.25 25.5 Q234.0 26.95 233.2 27.65 232.5 28.25 232.5 29.05 232.5 30.3 232.75 29.75 L233.1 29.9 233.95 30.0 234.15 30.0 238.3 30.7 Q239.15 30.85 240.5 32.2 243.0 32.2 244.0 31.2 L244.55 30.25 244.8 29.2" fill="#000000" fill-rule="evenodd" stroke="none"/>
    <path d="M265.95 -0.1 L285.75 -0.25 312.8 -0.25 345.65 -0.25 345.7 -0.25 371.1 -0.2 377.8 -0.2 379.25 -0.2 381.25 -0.2 398.75 -0.2 400.75 -0.2 402.5 -0.2 451.15 0.0 483.75 -0.25 651.2 -0.15 651.2 67.55 649.4 74.0 Q648.1 78.25 645.3 82.05 642.55 85.65 640.05 86.75 635.3 88.75 629.9 89.65 616.0 91.95 588.25 91.95 554.6 91.95 507.6 88.5 L428.05 81.5 398.75 78.6 381.25 76.95 376.95 76.55 374.8 84.0 Q372.6 90.35 371.3 92.25 L368.3 97.2 Q366.4 100.25 364.3 102.1 358.35 107.25 345.4 107.25 337.85 107.25 292.55 102.25 L238.25 95.7 Q215.45 92.2 166.2 92.35 110.4 92.45 89.75 90.7 70.85 89.1 49.5 84.75 29.95 81.55 18.75 78.65 8.75 76.1 0.25 72.35 L0.25 0.35 182.25 0.45 238.5 0.35 239.0 0.35 245.1 0.2 261.55 -0.05 265.95 -0.1" fill="url(#gradient1)" fill-rule="evenodd" stroke="none"/>
  </g>
  <defs>
    <linearGradient gradientTransform="matrix(-0.1115, -5.0E-4, 2.0E-4, -0.0328, 305.95, -149.55)" gradientUnits="userSpaceOnUse" id="gradient0" spreadMethod="pad" x1="-819.2" x2="819.2">
      <stop offset="0.0" stop-color="#dd9a00"/>
      <stop offset="1.0" stop-color="#aa3300"/>
    </linearGradient>
    <linearGradient gradientTransform="matrix(0.0, -0.0256, 0.0848, 0.0, 301.8, 21.15)" gradientUnits="userSpaceOnUse" id="gradient1" spreadMethod="pad" x1="-819.2" x2="819.2">
      <stop offset="0.0" stop-color="#1a1a1a"/>
      <stop offset="1.0" stop-color="#1a1a1a" stop-opacity="0.5019608"/>
    </linearGradient>
  </defs>
</svg>
