<?xml version="1.0" encoding="UTF-8" standalone="no"?>
<svg xmlns:xlink="http://www.w3.org/1999/xlink" height="382.65px" width="751.25px" xmlns="http://www.w3.org/2000/svg">
  <g transform="matrix(1.0, 0.0, 0.0, 1.0, 333.15, 218.6)">
    <path d="M413.9 108.85 L-300.05 108.85 -300.05 -218.1 413.9 -218.1 413.9 108.85" fill="url(#gradient0)" fill-rule="evenodd" stroke="none"/>
    <path d="M413.9 108.85 L-300.05 108.85 -300.05 -218.1 413.9 -218.1 413.9 108.85 Z" fill="none" stroke="#ff0000" stroke-linecap="round" stroke-linejoin="round" stroke-width="1.0"/>
    <path d="M416.75 37.3 L418.1 38.25 Q417.6 38.8 415.75 39.35 L411.3 40.15 397.8 40.35 Q397.2 79.25 378.6 121.35 371.9 136.45 350.8 144.25 340.9 147.9 324.3 150.35 293.05 155.0 240.5 154.2 L199.9 153.45 Q177.5 153.2 163.1 154.05 L121.5 155.85 79.3 157.45 20.6 161.05 Q-34.4 164.05 -78.3 164.05 L-117.55 162.25 -149.9 160.2 -169.15 158.75 -182.7 157.35 Q-193.05 156.25 -194.75 155.35 -199.3 152.95 -200.5 144.5 -200.9 141.6 -200.9 132.25 -200.9 120.75 -197.75 107.3 -192.4 84.55 -181.05 84.55 -176.25 84.55 -173.8 91.8 -172.55 95.5 -172.3 99.35 L-172.35 100.55 Q-170.55 99.45 -166.95 98.45 -161.5 96.95 -148.6 95.0 -111.85 89.55 -100.05 86.25 -91.6 83.9 -77.25 84.4 -64.15 84.9 -55.25 81.5 -53.4 80.85 -40.35 77.45 L-29.15 73.75 -14.75 68.95 6.55 60.7 30.0 51.5 37.0 49.15 Q42.95 47.15 43.7 47.15 47.1 46.85 47.9 46.35 48.85 45.7 50.75 45.4 L105.95 42.9 Q130.25 42.3 149.6 38.85 L161.55 36.6 171.2 35.7 171.4 35.95 171.6 36.55 Q175.65 36.25 185.05 36.2 L333.65 35.9 Q365.5 35.9 390.95 36.15 L393.4 36.2 393.35 32.3 Q396.2 31.25 397.2 33.65 L397.75 36.25 415.8 36.55 416.75 37.3" fill="#000000" fill-rule="evenodd" stroke="none"/>
    <path d="M147.05 -148.55 L146.2 -147.1 144.95 -145.5 144.9 -145.4 147.95 -145.8 Q148.85 -145.5 150.6 -145.8 L153.0 -146.15 156.6 -147.3 156.9 -147.3 156.9 -147.0 Q156.9 -146.55 153.6 -144.0 154.85 -143.15 156.9 -142.5 L159.25 -141.85 Q160.65 -141.4 160.65 -141.05 L160.6 -140.85 162.45 -139.6 Q165.7 -138.65 166.85 -136.65 L168.15 -134.75 168.55 -134.55 Q170.7 -134.05 172.2 -132.55 L174.8 -129.6 176.2 -126.75 177.45 -123.75 Q180.4 -116.7 184.2 -112.05 L184.1 -111.9 182.2 -113.3 180.3 -114.75 180.3 -113.9 Q181.05 -108.8 184.8 -101.6 L184.65 -101.4 183.45 -102.8 Q182.25 -104.1 181.25 -104.1 180.8 -104.1 180.75 -102.95 L180.75 -101.75 Q180.75 -99.75 181.0 -98.55 181.3 -97.05 182.25 -95.1 L182.25 -94.9 182.0 -94.85 Q181.5 -94.85 180.05 -95.9 L178.5 -96.9 Q178.85 -95.45 180.15 -92.4 L182.15 -87.95 182.15 -87.75 182.0 -87.65 Q181.05 -87.65 180.0 -88.55 L179.35 -89.2 179.0 -87.3 177.8 -84.9 176.55 -83.0 Q174.45 -79.8 174.2 -78.95 173.4 -76.4 173.15 -74.9 L172.65 -70.95 172.65 -68.8 Q172.65 -67.55 172.05 -66.9 170.2 -64.65 167.25 -62.85 L165.05 -60.9 164.5 -60.55 163.8 -60.2 Q163.15 -59.55 162.65 -59.55 L162.6 -59.55 161.55 -59.1 163.0 -58.45 Q163.85 -59.95 166.6 -58.15 L168.75 -56.7 Q170.15 -57.4 173.9 -55.75 175.35 -54.7 176.35 -51.4 176.7 -50.3 178.7 -49.4 180.85 -48.35 181.45 -47.4 L182.1 -44.95 182.4 -42.7 182.4 -42.4 Q184.25 -39.7 184.25 -39.1 184.25 -37.05 181.0 -33.8 L181.85 -30.65 182.0 -23.9 Q182.0 -19.75 181.8 -18.6 181.55 -17.3 180.65 -16.75 L178.55 -15.75 178.2 -5.95 Q177.7 3.0 176.65 6.25 L180.7 6.65 184.3 8.2 Q185.45 8.75 185.45 9.7 L185.35 10.45 185.3 11.1 Q187.1 11.05 187.8 12.35 188.2 13.05 188.2 14.65 L187.9 15.75 187.6 16.8 Q187.6 17.5 188.65 18.75 L189.7 20.55 Q189.7 22.2 188.6 23.6 187.45 24.75 187.45 24.95 L187.85 26.1 188.2 27.6 188.15 28.95 187.2 30.65 185.55 31.9 185.7 33.4 185.35 35.5 183.85 35.65 183.7 35.65 181.3 36.75 177.7 38.05 Q176.2 38.7 176.05 38.85 L176.0 39.0 176.65 40.85 Q177.2 42.9 177.2 44.65 L176.35 50.0 Q175.4 55.2 174.85 56.8 173.6 60.8 171.7 62.8 L169.8 64.1 167.45 65.15 163.4 65.6 158.75 65.7 158.7 65.8 158.2 65.7 157.95 65.75 157.95 65.7 156.2 65.65 150.45 65.85 146.8 66.3 137.45 68.05 Q133.25 67.8 131.85 68.8 130.25 69.9 122.95 69.9 L120.2 69.8 117.95 69.65 114.65 69.75 110.55 69.7 111.05 69.9 110.95 70.25 110.45 70.4 Q109.15 70.4 107.65 69.6 L106.3 68.8 104.55 68.1 103.45 67.5 100.0 66.3 Q97.0 65.25 96.55 64.9 L96.45 64.5 96.7 64.45 96.1 63.65 95.85 62.55 Q95.85 62.1 96.25 61.2 L96.6 59.95 94.3 58.35 Q91.95 56.7 91.95 54.6 91.95 52.6 92.6 52.15 L90.7 50.2 87.6 52.1 Q84.3 53.85 80.45 55.05 77.3 56.05 75.35 57.9 74.4 58.8 72.8 61.15 71.0 63.8 70.0 67.65 L68.7 74.4 Q68.3 76.55 67.3 77.85 65.8 79.75 62.45 81.0 L55.8 83.1 50.7 84.55 44.65 86.1 38.95 87.3 29.35 88.4 Q15.9 89.4 -6.2 89.4 -12.4 89.4 -14.15 83.35 -14.75 81.45 -15.05 78.05 L-15.55 73.15 Q-16.25 69.65 -16.4 64.65 L-16.45 55.9 Q-16.45 48.65 -15.75 43.0 L-13.4 28.9 Q-12.25 22.4 -10.2 15.4 L-9.05 12.0 Q-8.4 10.75 -7.8 10.25 L-6.55 8.75 Q-6.1 7.95 -5.15 7.25 -4.15 6.55 -3.65 5.75 L-3.2 4.75 -3.55 4.5 -2.7 3.4 -2.3 2.75 -2.1 2.9 -0.6 1.9 3.2 -0.35 7.0 -3.05 7.4 -3.3 4.25 -9.6 Q4.25 -11.35 12.25 -19.1 L26.65 -33.15 Q31.95 -38.8 37.0 -45.35 L42.45 -51.4 44.5 -53.95 45.7 -54.75 45.3 -55.2 Q42.45 -58.15 42.45 -59.1 L47.5 -65.4 52.55 -71.3 Q51.7 -73.8 51.7 -76.4 51.7 -79.3 52.05 -79.75 52.85 -80.75 57.8 -82.05 L64.6 -83.55 Q65.75 -87.75 70.25 -87.05 72.5 -86.7 74.35 -85.2 L74.7 -84.9 91.25 -86.25 Q92.05 -88.5 95.75 -88.9 99.4 -89.3 102.35 -86.85 107.8 -87.05 110.25 -86.75 L110.85 -87.75 Q111.55 -88.95 111.95 -91.8 L111.95 -91.95 Q111.4 -91.9 110.6 -91.25 109.75 -90.55 109.2 -90.45 L109.1 -90.45 109.1 -90.65 110.75 -93.4 Q112.5 -96.35 112.8 -98.25 L113.3 -102.1 112.5 -101.6 111.75 -100.95 111.2 -101.0 112.35 -105.7 Q113.0 -108.55 113.0 -110.4 L113.1 -110.55 111.3 -109.35 111.0 -109.5 111.0 -109.6 113.45 -113.45 115.55 -117.3 116.55 -119.2 117.2 -121.2 117.65 -122.65 117.85 -123.55 118.0 -124.0 Q118.4 -125.2 119.1 -126.15 120.35 -127.9 122.3 -129.3 L122.25 -129.6 122.35 -130.65 Q120.5 -129.95 119.7 -129.95 L118.5 -130.1 121.15 -131.9 123.9 -133.45 Q125.2 -134.85 127.65 -135.9 L129.1 -137.35 129.15 -137.4 129.15 -137.25 129.95 -137.9 130.1 -138.0 Q132.85 -140.85 134.85 -144.3 L135.05 -143.85 Q135.05 -143.3 134.45 -141.85 L133.6 -140.0 133.75 -140.05 135.5 -140.6 137.15 -141.6 140.55 -144.05 144.0 -146.55 145.45 -147.85 Q146.35 -148.65 147.0 -148.8 L147.05 -148.55 M120.15 -130.65 L120.0 -130.65 120.15 -130.6 120.15 -130.65 M121.0 -125.65 L121.0 -125.6 121.05 -125.7 121.0 -125.65 M120.6 -125.9 L120.6 -125.85 120.6 -125.9 M118.75 -120.5 L118.65 -120.6 118.7 -120.5 118.75 -120.5 M116.6 -110.1 L116.65 -110.6 116.65 -110.55 116.6 -110.1 M145.45 -147.2 L145.5 -147.2 145.55 -147.3 145.45 -147.2 M156.75 -142.1 L156.8 -142.0 157.2 -141.95 156.75 -142.1 M112.0 -101.9 L111.9 -102.0 111.9 -101.85 112.0 -101.9 M134.4 -142.55 L134.4 -142.65 134.35 -142.55 134.4 -142.55 M140.55 -140.1 L140.45 -140.05 140.6 -140.05 140.55 -140.1 M122.2 -128.7 L122.25 -128.65 122.35 -128.8 122.2 -128.7 M129.15 -136.45 L129.4 -136.55 129.35 -136.6 129.15 -136.45 M137.3 -100.8 Q137.15 -100.7 137.15 -100.05 137.15 -98.05 138.7 -96.2 140.6 -93.95 141.15 -91.65 L141.4 -89.6 141.45 -87.6 Q141.55 -86.7 142.65 -85.65 L143.85 -84.9 144.2 -84.75 Q145.7 -84.15 147.35 -84.15 148.15 -84.15 148.75 -84.9 L149.3 -85.95 Q149.75 -87.25 149.85 -89.0 L150.45 -94.05 150.45 -94.4 150.5 -94.55 150.45 -94.55 150.45 -94.65 150.35 -94.65 150.05 -94.85 149.1 -95.55 146.85 -96.0 Q146.4 -96.05 146.4 -96.5 146.4 -96.95 148.2 -97.7 L150.6 -98.7 152.35 -100.0 Q151.2 -100.2 151.0 -100.6 L151.1 -101.65 Q150.95 -103.2 150.25 -103.55 L149.75 -102.45 148.8 -101.8 146.95 -102.0 146.0 -102.15 Q146.15 -101.4 145.45 -100.75 144.4 -99.85 141.95 -99.85 L140.0 -100.1 139.7 -100.15 139.35 -100.5 137.3 -100.8 M159.05 -120.8 L155.85 -116.4 154.85 -114.85 155.3 -114.85 156.35 -114.75 157.95 -117.2 160.05 -121.5 160.45 -122.95 159.05 -120.8 M157.6 -119.3 Q155.5 -116.9 153.1 -114.95 L154.25 -114.9 155.55 -116.7 157.25 -118.9 157.6 -119.3 M160.55 -118.95 L163.5 -118.8 164.65 -118.75 164.05 -119.55 161.05 -122.95 160.35 -120.6 157.7 -116.0 156.8 -114.65 158.05 -114.35 159.35 -113.9 160.8 -113.35 Q162.6 -112.75 166.6 -112.25 169.25 -111.95 169.25 -111.2 169.25 -110.8 168.75 -110.8 L165.3 -111.3 162.9 -111.8 161.3 -112.35 158.75 -112.85 157.25 -113.45 156.15 -113.75 154.25 -111.7 157.9 -110.6 160.95 -109.75 163.7 -109.7 164.95 -109.45 169.05 -109.5 172.55 -109.65 173.3 -109.4 174.65 -109.5 174.95 -109.5 175.2 -109.6 Q175.95 -109.85 176.25 -110.25 L176.5 -110.6 175.35 -112.2 173.4 -115.05 170.85 -117.9 169.4 -119.3 170.55 -117.15 170.45 -117.05 169.65 -117.95 168.95 -119.1 168.9 -119.1 168.9 -117.9 169.25 -116.3 169.2 -116.25 Q168.85 -116.55 168.6 -117.0 L168.5 -117.0 167.9 -117.25 167.3 -117.6 167.1 -116.7 166.65 -114.95 166.2 -115.05 Q166.2 -116.35 165.15 -118.0 L164.85 -118.05 162.9 -118.2 161.3 -118.4 160.5 -118.85 160.55 -118.95 M153.5 -114.0 L152.15 -114.05 152.05 -114.05 151.7 -113.9 151.65 -113.9 150.75 -113.25 152.2 -112.5 153.5 -114.0 M153.8 -111.85 L154.95 -113.0 155.65 -113.85 155.6 -113.85 155.1 -113.9 154.1 -113.95 152.8 -112.25 153.8 -111.85 M150.3 -114.6 L150.45 -114.55 150.45 -114.6 150.3 -114.6 M176.45 -85.2 L177.75 -87.4 Q178.35 -88.75 178.35 -91.1 178.35 -92.3 177.6 -95.2 L177.6 -95.4 177.0 -99.8 Q177.0 -101.75 177.85 -105.9 177.5 -106.3 177.05 -107.4 176.9 -107.85 176.1 -108.0 L175.45 -107.15 175.4 -107.1 175.4 -107.0 175.35 -107.1 175.35 -107.15 175.35 -107.25 175.75 -108.1 175.2 -108.15 175.05 -108.2 174.7 -108.2 174.05 -107.9 Q172.7 -107.35 172.55 -106.8 172.05 -105.4 172.05 -104.6 172.05 -102.9 173.3 -102.05 174.85 -101.05 175.2 -100.2 L175.2 -100.15 176.0 -99.05 176.0 -98.95 176.05 -98.75 175.7 -98.7 175.1 -99.25 173.85 -99.95 173.4 -100.1 172.55 -100.2 172.4 -99.95 172.05 -99.5 Q171.45 -98.9 171.0 -98.9 L169.85 -98.95 Q168.8 -99.15 168.3 -99.7 L168.0 -100.55 Q168.0 -101.15 168.25 -101.55 L166.65 -101.35 166.45 -101.3 166.35 -101.1 166.35 -101.05 166.65 -100.7 Q167.3 -99.95 168.6 -99.15 L170.7 -97.65 173.15 -96.15 Q171.9 -96.05 168.65 -97.8 165.6 -99.4 165.2 -100.6 L165.0 -101.45 164.9 -102.65 Q164.9 -103.4 165.8 -104.55 L163.35 -104.85 163.1 -104.85 162.65 -104.55 161.4 -103.3 161.25 -103.1 160.2 -101.6 159.55 -100.0 159.55 -99.9 160.15 -97.45 Q160.8 -95.3 160.8 -94.05 L160.7 -92.05 161.8 -91.2 Q162.4 -90.7 162.4 -89.55 162.4 -88.2 161.65 -87.2 L160.55 -86.15 159.9 -85.95 157.75 -85.85 157.4 -85.75 157.45 -85.6 157.45 -85.2 157.45 -84.9 Q157.4 -83.55 157.05 -82.85 L157.05 -82.2 Q159.2 -81.9 161.3 -80.9 163.5 -79.85 164.25 -78.7 L165.4 -76.45 165.65 -75.35 166.05 -74.3 166.0 -73.95 165.7 -73.9 163.25 -76.1 Q160.75 -77.6 159.15 -77.6 L153.9 -77.15 151.35 -76.65 151.3 -76.65 151.3 -76.75 150.0 -76.8 150.0 -76.35 Q150.75 -75.1 154.05 -73.2 157.05 -71.55 157.05 -70.95 L157.0 -70.65 156.15 -70.55 154.85 -70.75 153.5 -71.2 151.65 -71.75 150.6 -71.55 149.95 -71.3 148.95 -71.0 148.65 -70.55 Q148.15 -70.0 148.15 -68.8 148.15 -67.95 148.5 -67.3 L149.3 -66.2 150.65 -65.25 152.55 -64.05 Q156.55 -61.2 163.0 -61.35 L163.1 -61.4 163.4 -61.4 Q167.1 -63.95 167.3 -64.2 L167.4 -64.25 Q170.7 -66.2 171.15 -67.8 L171.4 -69.7 171.4 -70.2 171.8 -71.55 172.1 -73.8 172.5 -76.05 172.9 -78.25 173.45 -80.55 175.1 -83.05 176.35 -84.9 176.4 -85.05 176.4 -85.1 176.45 -85.2 M148.1 -96.65 L148.1 -96.75 148.05 -96.65 148.1 -96.65 M149.1 -89.5 L149.15 -89.55 149.15 -89.45 149.1 -89.5 M142.55 -50.0 Q140.0 -48.1 139.1 -47.0 L141.15 -45.65 142.05 -45.05 142.9 -44.3 145.05 -46.8 147.7 -49.35 150.0 -51.9 151.5 -53.2 151.8 -53.5 150.0 -53.25 150.0 -53.15 Q146.75 -52.85 145.0 -51.85 L142.55 -50.0 M116.55 -94.65 L116.35 -94.8 116.5 -94.55 116.55 -94.65 M169.1 -131.8 L169.2 -131.8 169.15 -131.9 169.1 -131.95 169.1 -131.9 169.1 -131.8 M174.55 -125.2 L174.5 -125.15 174.5 -125.1 174.55 -125.2 M174.85 -122.8 L174.8 -122.75 175.0 -122.55 174.85 -122.8 M177.05 -116.5 L177.0 -117.0 177.0 -116.75 177.05 -116.5 M167.9 -117.9 L168.1 -117.8 167.45 -118.85 167.35 -118.1 167.9 -117.9 M166.55 -116.05 L166.5 -116.1 166.5 -116.0 166.55 -116.05 M181.4 -88.05 L181.5 -87.95 181.55 -87.95 181.4 -88.05 M165.35 -87.75 L164.9 -87.3 Q164.4 -87.3 164.4 -87.9 L164.65 -88.4 165.45 -88.6 165.5 -88.3 165.35 -87.75 M184.45 9.65 L181.3 8.5 180.7 7.9 175.6 7.55 173.45 7.15 170.15 7.3 Q171.3 7.65 172.85 8.4 175.0 9.95 175.0 10.6 175.0 11.8 173.0 15.45 171.9 17.55 168.15 20.1 L166.25 21.1 164.15 21.55 163.15 21.95 161.15 22.25 160.55 22.4 160.0 22.7 157.9 23.7 155.45 25.95 Q153.8 27.35 151.65 28.2 L151.55 28.25 Q155.6 31.8 156.9 34.9 L158.25 38.25 158.6 39.7 158.65 39.8 159.15 39.7 160.9 39.25 Q161.9 38.95 162.75 38.15 164.7 36.2 169.1 36.2 L170.2 36.45 171.1 36.7 173.0 36.6 173.25 36.35 174.95 35.5 175.85 35.05 177.35 34.7 178.5 34.9 179.75 35.05 180.1 34.75 181.25 33.75 181.65 33.0 Q181.85 32.55 182.25 32.4 182.7 32.2 182.85 32.7 L183.1 33.55 183.5 34.55 184.45 33.95 184.55 33.5 184.45 32.1 Q184.45 31.15 185.85 30.15 187.2 29.15 187.2 27.55 L186.85 26.4 Q186.45 25.65 186.45 24.95 186.45 24.55 186.7 24.1 185.75 24.1 184.95 23.45 184.25 22.9 184.25 22.5 184.25 22.15 184.4 22.15 L185.1 22.2 186.65 22.15 188.1 22.05 187.7 21.5 187.25 20.95 187.0 19.8 187.1 19.0 187.2 18.7 Q186.45 17.6 186.45 16.75 L186.85 15.8 187.2 14.45 Q187.2 12.25 185.3 12.05 L184.9 12.6 185.1 13.45 185.25 14.55 Q185.25 15.5 185.0 15.5 L181.4 15.25 Q181.05 15.15 181.05 14.85 181.05 14.55 181.65 14.15 L182.6 13.45 183.95 12.15 183.85 12.05 183.8 11.85 178.75 11.45 178.0 11.2 177.6 10.9 176.85 10.3 Q176.5 10.1 176.5 9.8 176.5 9.45 176.65 9.45 L177.6 9.35 178.55 9.4 179.55 9.9 180.75 10.4 182.3 10.8 184.05 10.35 184.3 10.2 184.45 9.65 M174.9 6.15 L175.3 6.2 175.25 5.85 174.9 6.15 M142.45 13.2 L141.35 6.45 140.95 4.15 136.55 9.5 Q135.6 10.75 133.5 12.25 L132.85 12.65 130.85 15.5 Q126.6 21.4 123.0 25.5 L122.95 25.75 127.2 26.05 135.2 25.55 Q135.85 25.55 136.25 26.55 L136.45 27.3 137.8 27.0 140.35 26.5 141.5 26.15 141.45 26.05 143.45 25.4 Q142.55 23.35 142.45 20.45 142.65 15.35 142.45 13.2 M134.6 29.7 Q134.6 31.25 136.05 32.65 L138.55 35.55 138.7 35.8 138.7 35.85 138.9 36.2 138.65 36.3 138.4 36.25 133.8 39.7 Q131.55 40.85 130.25 41.55 L127.0 42.9 Q129.65 44.15 129.65 46.9 L129.65 47.25 130.4 47.55 Q131.3 47.7 133.0 48.8 134.0 49.25 136.05 51.35 L138.6 54.1 Q140.25 55.85 142.2 56.4 L142.35 56.55 145.0 57.6 150.5 59.2 156.0 60.95 157.55 61.65 158.75 62.15 159.1 62.3 159.4 61.25 159.8 57.95 160.1 54.05 159.5 48.3 158.7 45.4 157.0 42.6 157.05 42.3 151.5 41.25 Q147.9 40.35 146.55 39.65 L143.95 37.85 141.7 35.75 138.3 31.3 137.3 30.15 136.2 29.05 135.2 28.0 Q134.85 28.1 134.75 28.3 134.6 28.5 134.6 29.7" fill="#000000" fill-rule="evenodd" stroke="none"/>
    <path d="M137.3 -100.8 L139.35 -100.5 139.7 -100.15 140.0 -100.1 141.95 -99.85 Q144.4 -99.85 145.45 -100.75 146.15 -101.4 146.0 -102.15 L146.95 -102.0 148.8 -101.8 149.75 -102.45 150.25 -103.55 Q150.95 -103.2 151.1 -101.65 L151.0 -100.6 Q151.2 -100.2 152.35 -100.0 L150.6 -98.7 148.2 -97.7 Q146.4 -96.95 146.4 -96.5 146.4 -96.05 146.85 -96.0 L149.1 -95.55 150.05 -94.85 150.35 -94.65 150.45 -94.65 150.45 -94.55 150.5 -94.55 150.45 -94.4 150.45 -94.05 149.85 -89.0 Q149.75 -87.25 149.3 -85.95 L148.75 -84.9 Q148.15 -84.15 147.35 -84.15 145.7 -84.15 144.2 -84.75 L143.85 -84.9 142.65 -85.65 Q141.55 -86.7 141.45 -87.6 L141.4 -89.6 141.15 -91.65 Q140.6 -93.95 138.7 -96.2 137.15 -98.05 137.15 -100.05 137.15 -100.7 137.3 -100.8 M176.4 -85.1 L176.4 -85.05 176.35 -84.9 175.1 -83.05 173.45 -80.55 172.9 -78.25 172.5 -76.05 172.1 -73.8 171.8 -71.55 171.4 -70.2 171.4 -69.7 171.15 -67.8 Q170.7 -66.2 167.4 -64.25 L167.3 -64.2 Q167.1 -63.95 163.4 -61.4 L163.1 -61.4 163.0 -61.35 Q156.55 -61.2 152.55 -64.05 L150.65 -65.25 149.3 -66.2 148.5 -67.3 Q148.15 -67.95 148.15 -68.8 148.15 -70.0 148.65 -70.55 L148.95 -71.0 149.95 -71.3 150.6 -71.55 151.65 -71.75 153.5 -71.2 154.85 -70.75 156.15 -70.55 157.0 -70.65 157.05 -70.95 Q157.05 -71.55 154.05 -73.2 150.75 -75.1 150.0 -76.35 L150.0 -76.8 151.3 -76.75 151.3 -76.65 151.35 -76.65 153.9 -77.15 159.15 -77.6 Q160.75 -77.6 163.25 -76.1 L165.7 -73.9 166.0 -73.95 166.05 -74.3 165.65 -75.35 165.4 -76.45 164.25 -78.7 Q163.5 -79.85 161.3 -80.9 159.2 -81.9 157.05 -82.2 L157.05 -82.85 Q157.4 -83.55 157.45 -84.9 L157.45 -85.2 157.45 -85.6 157.4 -85.75 157.75 -85.85 159.9 -85.95 160.55 -86.15 161.65 -87.2 Q162.4 -88.2 162.4 -89.55 162.4 -90.7 161.8 -91.2 L160.7 -92.05 160.8 -94.05 Q160.8 -95.3 160.15 -97.45 L159.55 -99.9 159.55 -100.0 160.2 -101.6 161.25 -103.1 161.4 -103.3 162.65 -104.55 163.1 -104.85 163.35 -104.85 165.8 -104.55 Q164.9 -103.4 164.9 -102.65 L165.0 -101.45 165.2 -100.6 Q165.6 -99.4 168.65 -97.8 171.9 -96.05 173.15 -96.15 L170.7 -97.65 168.6 -99.15 Q167.3 -99.95 166.65 -100.7 L166.35 -101.05 166.35 -101.1 166.45 -101.3 166.65 -101.35 168.25 -101.55 Q168.0 -101.15 168.0 -100.55 L168.3 -99.7 Q168.8 -99.15 169.85 -98.95 L171.0 -98.9 Q171.45 -98.9 172.05 -99.5 L172.4 -99.95 172.55 -100.2 173.4 -100.1 173.85 -99.95 175.1 -99.25 175.7 -98.7 176.05 -98.75 176.0 -98.95 176.0 -99.05 175.2 -100.15 175.2 -100.2 Q174.85 -101.05 173.3 -102.05 172.05 -102.9 172.05 -104.6 172.05 -105.4 172.55 -106.8 172.7 -107.35 174.05 -107.9 L174.7 -108.2 175.05 -108.2 175.2 -108.15 175.75 -108.1 175.35 -107.25 175.35 -107.15 175.35 -107.1 175.4 -107.0 175.4 -107.1 175.45 -107.15 176.1 -108.0 Q176.9 -107.85 177.05 -107.4 177.5 -106.3 177.85 -105.9 177.0 -101.75 177.0 -99.8 L177.6 -95.4 177.6 -95.2 Q178.35 -92.3 178.35 -91.1 178.35 -88.75 177.75 -87.4 L176.45 -85.2 176.35 -85.25 176.4 -85.1 M150.3 -114.6 L150.45 -114.6 150.45 -114.55 150.3 -114.6 M153.8 -111.85 L152.8 -112.25 154.1 -113.95 155.1 -113.9 155.6 -113.85 155.65 -113.85 154.95 -113.0 153.8 -111.85 M153.5 -114.0 L152.2 -112.5 150.75 -113.25 151.65 -113.9 151.7 -113.9 152.05 -114.05 152.15 -114.05 153.5 -114.0 M160.55 -118.95 L160.5 -118.85 161.3 -118.4 162.9 -118.2 164.85 -118.05 165.15 -118.0 Q166.2 -116.35 166.2 -115.05 L166.65 -114.95 167.1 -116.7 167.3 -117.6 167.9 -117.25 168.5 -117.0 168.6 -117.0 Q168.85 -116.55 169.2 -116.25 L169.25 -116.3 168.9 -117.9 168.9 -119.1 168.95 -119.1 169.65 -117.95 170.45 -117.05 170.55 -117.15 169.4 -119.3 170.85 -117.9 173.4 -115.05 175.35 -112.2 176.5 -110.6 176.25 -110.25 Q175.95 -109.85 175.2 -109.6 L174.95 -109.5 174.65 -109.5 173.3 -109.4 172.55 -109.65 169.05 -109.5 164.95 -109.45 163.7 -109.7 160.95 -109.75 157.9 -110.6 154.25 -111.7 156.15 -113.75 157.25 -113.45 158.75 -112.85 161.3 -112.35 162.9 -111.8 165.3 -111.3 168.75 -110.8 Q169.25 -110.8 169.25 -111.2 169.25 -111.95 166.6 -112.25 162.6 -112.75 160.8 -113.35 L159.35 -113.9 158.05 -114.35 156.8 -114.65 157.7 -116.0 160.35 -120.6 161.05 -122.95 164.05 -119.55 164.65 -118.75 163.5 -118.8 160.55 -118.95 M157.6 -119.3 L157.25 -118.9 155.55 -116.7 154.25 -114.9 153.1 -114.95 Q155.5 -116.9 157.6 -119.3 M159.05 -120.8 L160.45 -122.95 160.05 -121.5 157.95 -117.2 156.35 -114.75 155.3 -114.85 154.85 -114.85 155.85 -116.4 159.05 -120.8 M148.1 -96.65 L148.05 -96.65 148.1 -96.75 148.1 -96.65 M142.55 -50.0 L145.0 -51.85 Q146.75 -52.85 150.0 -53.15 L150.0 -53.25 151.8 -53.5 151.5 -53.2 150.0 -51.9 147.7 -49.35 145.05 -46.8 142.9 -44.3 142.05 -45.05 141.15 -45.65 139.1 -47.0 Q140.0 -48.1 142.55 -50.0 M149.1 -89.5 L149.15 -89.45 149.15 -89.55 149.1 -89.5 M169.1 -131.8 L169.1 -131.9 169.1 -131.95 169.15 -131.9 169.2 -131.8 169.1 -131.8 M174.85 -122.8 L175.0 -122.55 174.8 -122.75 174.85 -122.8 M167.9 -117.9 L167.35 -118.1 167.45 -118.85 168.1 -117.8 167.9 -117.9 M166.55 -116.05 L166.5 -116.0 166.5 -116.1 166.55 -116.05 M184.45 9.65 L184.3 10.2 184.05 10.35 182.3 10.8 180.75 10.4 179.55 9.9 178.55 9.4 177.6 9.35 176.65 9.45 Q176.5 9.45 176.5 9.8 176.5 10.1 176.85 10.3 L177.6 10.9 178.0 11.2 178.75 11.45 183.8 11.85 183.85 12.05 183.95 12.15 182.6 13.45 181.65 14.15 Q181.05 14.55 181.05 14.85 181.05 15.15 181.4 15.25 L185.0 15.5 Q185.25 15.5 185.25 14.55 L185.1 13.45 184.9 12.6 185.3 12.05 Q187.2 12.25 187.2 14.45 L186.85 15.8 186.45 16.75 Q186.45 17.6 187.2 18.7 L187.1 19.0 187.0 19.8 187.25 20.95 187.7 21.5 188.1 22.05 186.65 22.15 185.1 22.2 184.4 22.15 Q184.25 22.15 184.25 22.5 184.25 22.9 184.95 23.45 185.75 24.1 186.7 24.1 186.45 24.55 186.45 24.95 186.45 25.65 186.85 26.4 L187.2 27.55 Q187.2 29.15 185.85 30.15 184.45 31.15 184.45 32.1 L184.55 33.5 184.45 33.95 183.5 34.55 183.1 33.55 182.85 32.7 Q182.7 32.2 182.25 32.4 181.85 32.55 181.65 33.0 L181.25 33.75 180.1 34.75 179.75 35.05 178.5 34.9 177.35 34.7 175.85 35.05 174.95 35.5 173.25 36.35 173.0 36.6 171.1 36.7 170.2 36.45 169.1 36.2 Q164.7 36.2 162.75 38.15 161.9 38.95 160.9 39.25 L159.15 39.7 158.65 39.8 158.6 39.7 158.25 38.25 156.9 34.9 Q155.6 31.8 151.55 28.25 L151.65 28.2 Q153.8 27.35 155.45 25.95 L157.9 23.7 160.0 22.7 160.55 22.4 161.15 22.25 163.15 21.95 164.15 21.55 166.25 21.1 168.15 20.1 Q171.9 17.55 173.0 15.45 175.0 11.8 175.0 10.6 175.0 9.95 172.85 8.4 171.3 7.65 170.15 7.3 L173.45 7.15 175.6 7.55 180.7 7.9 181.3 8.5 184.45 9.65 M165.35 -87.75 L165.5 -88.3 165.45 -88.6 164.65 -88.4 164.4 -87.9 Q164.4 -87.3 164.9 -87.3 L165.35 -87.75 M134.6 29.7 Q134.6 28.5 134.75 28.3 134.85 28.1 135.2 28.0 L136.2 29.05 137.3 30.15 138.3 31.3 141.7 35.75 143.95 37.85 146.55 39.65 Q147.9 40.35 151.5 41.25 L157.05 42.3 157.0 42.6 158.7 45.4 159.5 48.3 160.1 54.05 159.8 57.95 159.4 61.25 159.1 62.3 158.75 62.15 157.55 61.65 156.0 60.95 150.5 59.2 145.0 57.6 142.35 56.55 142.2 56.4 Q140.25 55.85 138.6 54.1 L136.05 51.35 Q134.0 49.25 133.0 48.8 131.3 47.7 130.4 47.55 L129.65 47.25 129.65 46.9 Q129.65 44.15 127.0 42.9 L130.25 41.55 Q131.55 40.85 133.8 39.7 L138.4 36.25 138.65 36.3 138.9 36.2 138.7 35.85 138.7 35.8 138.55 35.55 136.05 32.65 Q134.6 31.25 134.6 29.7" fill="url(#gradient1)" fill-rule="evenodd" stroke="none"/>
    <path d="M-86.05 -210.1 Q-77.15 -214.75 -75.55 -215.15 -74.85 -215.35 -67.3 -215.35 -49.85 -215.35 -47.4 -213.45 L-47.05 -213.6 -46.95 -213.2 -47.5 -212.3 -47.4 -212.25 Q-46.5 -212.25 -44.3 -213.05 L-40.8 -214.2 -37.0 -213.5 -33.3 -212.6 Q-31.6 -212.25 -29.5 -210.7 L-26.55 -208.2 -15.55 -198.45 Q-15.55 -197.95 -17.4 -197.45 -19.3 -197.0 -19.3 -196.0 -19.3 -193.25 -18.5 -188.85 -15.85 -184.3 -12.6 -180.9 L-12.6 -180.65 -13.05 -180.45 -17.7 -184.8 Q-17.05 -181.15 -17.05 -180.15 L-17.2 -177.4 -15.75 -175.2 -13.05 -172.2 -11.25 -170.0 -11.25 -169.55 -11.6 -169.5 Q-12.15 -169.5 -13.25 -170.1 L-14.55 -170.75 -12.65 -168.0 -11.2 -166.65 -10.05 -165.3 -10.2 -165.15 -10.5 -165.05 -13.65 -167.25 -16.55 -169.4 -18.05 -170.55 -18.15 -169.85 -19.25 -163.15 Q-19.45 -160.9 -20.15 -157.7 L-20.6 -155.6 -21.15 -150.45 -21.15 -145.0 Q-21.2 -141.8 -21.6 -139.5 -21.8 -138.3 -22.55 -136.65 L-23.9 -133.95 -25.55 -130.8 -25.95 -129.2 Q-26.95 -124.45 -27.8 -121.85 L-29.45 -114.65 Q-30.5 -110.35 -32.35 -107.7 -33.6 -105.45 -36.95 -103.1 -40.65 -100.5 -47.8 -97.35 L-47.95 -97.4 -48.15 -97.25 -49.25 -94.5 -50.1 -92.0 Q-46.75 -89.55 -44.65 -84.1 -42.4 -78.15 -36.8 -75.2 -31.8 -71.8 -30.95 -70.6 L-29.85 -68.5 Q-29.1 -67.2 -27.8 -66.6 -24.9 -65.25 -22.15 -62.75 -19.65 -60.45 -18.2 -58.0 -17.3 -56.5 -16.4 -53.5 L-14.95 -48.85 -12.8 -44.35 -11.35 -41.05 Q-10.2 -39.25 -9.3 -36.6 L-8.45 -33.1 -7.7 -29.6 Q-6.3 -24.6 -6.7 -15.95 -6.9 -9.5 -4.45 -2.25 -3.35 0.9 -1.25 8.85 L-1.2 8.8 3.6 25.25 Q6.3 35.0 7.05 41.65 8.15 51.45 11.85 59.6 13.5 63.3 14.3 67.25 16.45 68.8 16.45 72.6 L16.4 74.35 Q16.2 75.2 15.45 76.05 L14.8 76.45 13.8 80.35 13.8 80.4 Q13.8 81.1 12.9 82.85 L12.2 84.2 Q12.15 86.4 11.55 88.05 10.65 90.65 8.6 91.05 L7.5 93.6 6.05 96.05 Q5.5 96.6 2.65 98.0 -0.2 99.4 -0.8 99.4 L-1.05 99.35 Q-1.1 101.25 -1.4 101.9 -2.2 103.8 -4.85 104.1 L-4.9 104.15 -5.15 104.15 -5.95 104.15 -6.9 104.15 -8.55 104.15 -10.4 103.75 -16.9 103.3 -25.65 104.0 -32.7 105.15 -32.8 105.15 -76.35 105.15 -76.8 105.4 -78.3 105.15 -79.15 105.15 -79.25 105.0 Q-92.1 102.9 -94.55 102.9 L-107.3 103.85 -107.3 103.9 Q-107.95 104.35 -109.8 104.5 L-122.7 104.65 Q-145.6 104.65 -149.95 104.05 L-151.45 103.75 -154.5 109.35 Q-156.7 113.45 -159.7 115.5 L-159.65 115.35 -164.75 121.6 Q-171.75 130.15 -174.25 132.4 -187.15 144.15 -196.9 147.0 -200.95 148.2 -206.05 148.4 L-216.05 148.45 Q-240.9 148.45 -259.75 145.35 L-267.5 143.85 Q-296.95 141.55 -318.9 136.7 -327.5 134.8 -330.4 130.05 -331.4 128.4 -332.55 121.95 -333.1 118.95 -333.15 113.15 L-333.1 106.95 Q-333.1 96.2 -331.95 85.05 -330.6 72.25 -328.15 63.45 L-324.8 52.7 Q-322.95 45.9 -323.15 41.7 -322.9 41.25 -322.75 38.95 -322.7 37.5 -320.1 36.15 -315.25 33.5 -312.65 30.9 L-310.55 28.25 Q-309.6 26.85 -308.5 26.15 L-305.3 24.15 Q-303.25 22.9 -302.6 22.7 L-302.2 22.85 -276.65 -0.35 -267.55 -8.05 -260.45 -13.7 Q-259.0 -14.65 -256.0 -17.05 L-251.35 -20.45 Q-249.35 -21.7 -247.15 -23.7 L-244.5 -25.95 -247.4 -28.75 Q-249.85 -31.35 -251.7 -32.45 L-253.7 -34.05 -255.8 -35.95 -258.05 -37.55 Q-259.1 -38.4 -259.1 -39.45 -259.1 -42.8 -253.85 -50.3 -250.85 -54.55 -248.45 -56.95 L-246.4 -60.45 -242.95 -65.6 -234.95 -75.0 Q-231.55 -78.65 -227.75 -84.3 L-221.4 -93.75 -218.05 -98.25 Q-215.95 -100.95 -213.55 -103.1 -211.1 -105.4 -207.4 -107.45 L-200.3 -111.1 Q-195.5 -113.6 -189.6 -114.75 -181.65 -116.25 -161.2 -117.85 -149.9 -118.75 -142.0 -121.0 -134.15 -123.2 -122.8 -124.1 -123.05 -124.4 -115.35 -123.95 -107.25 -123.5 -104.3 -122.25 L-101.8 -121.2 -101.45 -121.0 -100.3 -120.3 -99.55 -120.85 -98.05 -122.7 Q-97.5 -123.35 -97.25 -124.45 -97.0 -125.45 -97.15 -126.25 L-96.85 -129.5 -97.95 -130.25 -98.9 -130.45 -99.9 -130.7 Q-100.2 -130.9 -100.35 -131.55 L-100.65 -132.75 -103.05 -132.1 Q-103.8 -132.2 -103.8 -133.05 L-103.3 -135.35 Q-102.8 -137.3 -102.8 -137.9 L-103.15 -140.85 -104.7 -140.75 -106.3 -140.95 -106.55 -141.5 -105.3 -142.8 -104.05 -144.25 Q-103.8 -144.65 -103.7 -145.4 L-103.9 -146.2 Q-104.3 -146.55 -104.55 -147.8 -105.0 -150.1 -105.3 -150.6 -106.45 -152.5 -107.3 -155.1 -109.15 -160.55 -109.15 -163.8 -109.15 -165.35 -108.2 -170.6 L-108.2 -170.85 -109.8 -170.4 -111.2 -170.1 Q-112.8 -170.1 -113.55 -170.85 -108.45 -177.8 -106.3 -187.6 -105.25 -192.65 -101.95 -197.95 -99.2 -202.35 -97.2 -203.1 L-94.55 -204.95 Q-90.2 -207.95 -86.05 -210.1 M-33.2 -194.75 L-33.25 -194.8 -35.05 -193.6 Q-36.85 -192.35 -37.3 -192.35 L-43.6 -193.35 -46.65 -193.2 -46.8 -193.1 -43.5 -192.05 Q-40.8 -191.05 -40.8 -190.75 L-42.5 -188.75 -44.85 -186.15 -45.7 -184.95 -46.35 -183.75 Q-47.25 -181.7 -47.7 -181.7 -48.2 -181.7 -52.45 -184.55 -57.3 -187.8 -59.7 -188.85 L-60.6 -189.25 -61.85 -187.85 -64.3 -184.8 -66.45 -181.8 -66.9 -182.15 -65.25 -186.05 -65.25 -186.15 Q-67.6 -184.3 -71.05 -180.75 L-71.3 -179.35 -71.3 -175.45 -66.75 -175.5 -60.3 -174.7 -56.9 -174.4 -54.4 -173.85 -53.8 -172.75 Q-53.35 -171.9 -51.5 -170.15 L-49.8 -168.5 -50.4 -165.5 -51.05 -161.8 Q-51.05 -160.4 -50.05 -157.6 -49.05 -154.8 -49.05 -153.2 L-49.8 -149.75 -48.7 -147.85 -47.15 -145.5 Q-46.5 -144.3 -44.55 -144.1 -42.7 -143.95 -42.0 -143.35 -41.55 -142.95 -41.55 -142.25 -41.55 -141.35 -42.7 -141.45 L-47.65 -141.7 Q-48.4 -141.7 -49.35 -140.4 L-50.55 -138.7 Q-47.3 -137.8 -46.0 -136.9 -44.3 -135.75 -44.3 -133.85 -44.3 -132.85 -44.45 -132.55 L-46.15 -130.85 Q-43.8 -129.1 -41.95 -126.9 -39.8 -124.3 -39.55 -122.35 L-39.55 -120.1 Q-39.45 -119.85 -40.05 -119.85 -40.65 -119.85 -41.1 -121.45 L-41.7 -123.35 -43.4 -124.85 Q-44.4 -125.45 -46.8 -126.1 -47.8 -124.7 -48.0 -122.2 L-48.3 -117.75 Q-48.3 -117.6 -48.95 -117.6 -54.75 -120.45 -56.15 -120.7 -56.05 -119.95 -54.9 -118.3 -53.8 -116.75 -53.8 -116.0 L-53.7 -115.2 Q-53.7 -114.85 -54.05 -114.85 L-63.9 -115.45 -56.8 -109.9 Q-52.7 -107.6 -43.9 -105.9 L-43.8 -106.35 Q-43.3 -106.15 -43.25 -105.8 L-42.2 -105.6 -42.0 -105.6 Q-40.05 -105.6 -39.3 -107.55 L-38.45 -110.85 -37.2 -113.5 -35.7 -116.35 -33.85 -119.05 -31.3 -121.75 Q-30.3 -122.65 -29.05 -124.3 L-29.0 -124.5 -27.2 -129.9 -26.9 -130.6 -26.35 -131.5 -25.7 -132.95 -24.9 -134.45 -24.45 -135.6 -24.7 -134.55 -24.3 -135.35 Q-22.8 -138.7 -22.35 -140.7 L-22.1 -147.75 -22.45 -145.7 -22.25 -148.2 -22.1 -151.2 -21.75 -154.35 -21.7 -155.45 Q-21.05 -159.35 -21.05 -160.95 L-20.8 -167.8 Q-20.8 -171.0 -21.25 -173.8 L-25.0 -177.95 Q-27.2 -180.5 -27.95 -182.4 L-31.65 -190.95 -33.2 -194.75 M-27.65 -161.6 L-27.6 -159.6 -27.6 -158.65 Q-27.65 -157.95 -28.05 -157.95 -28.45 -157.95 -28.55 -158.45 L-28.75 -159.3 -28.95 -159.55 -29.2 -159.5 Q-29.45 -159.5 -30.5 -160.05 L-31.9 -160.7 -32.2 -160.0 -33.1 -159.2 Q-33.95 -158.65 -34.5 -158.65 -35.7 -158.65 -36.3 -159.55 -36.8 -160.25 -36.8 -161.25 L-36.75 -161.75 -38.55 -162.0 -39.05 -162.05 -39.2 -160.9 -39.1 -159.8 -38.65 -159.05 -38.4 -158.35 -36.8 -157.7 Q-34.95 -157.05 -31.5 -156.65 L-34.65 -156.2 -36.55 -156.45 -37.55 -156.3 -35.7 -153.65 -34.35 -151.35 Q-34.35 -150.9 -34.7 -150.9 L-35.1 -151.1 -35.4 -151.1 -38.7 -153.9 Q-40.45 -155.3 -41.25 -156.5 -43.35 -159.7 -43.5 -161.6 L-45.2 -162.85 -45.25 -162.8 -45.5 -162.85 -45.6 -163.0 -45.55 -163.1 -45.65 -163.2 -45.6 -163.5 -45.35 -163.5 -44.75 -164.25 -44.15 -164.75 -43.4 -165.2 -41.9 -166.05 -40.55 -166.95 Q-41.2 -167.45 -43.15 -168.05 -44.6 -168.55 -44.6 -169.2 -44.6 -169.6 -44.0 -169.9 L-42.6 -170.45 -40.0 -170.75 -35.9 -170.2 Q-34.3 -170.15 -32.6 -169.15 -31.0 -168.2 -31.0 -167.55 -31.0 -167.3 -31.3 -167.25 L-32.4 -167.0 Q-30.45 -166.25 -28.6 -163.65 -27.85 -162.5 -27.65 -161.6 M-13.2 -171.0 L-13.2 -171.05 -13.2 -171.0 M-64.8 -185.2 L-64.85 -185.25 -64.85 -185.15 -64.8 -185.2 M-49.95 -96.3 Q-51.9 -95.4 -52.4 -94.1 -53.15 -91.9 -54.4 -90.35 -56.05 -88.2 -59.3 -86.6 L-63.8 -84.7 Q-67.8 -82.85 -72.15 -78.5 -74.8 -75.85 -76.9 -73.1 L-68.05 -73.35 -62.4 -73.05 -61.05 -75.3 -56.05 -83.85 -54.15 -87.05 -52.55 -90.0 -51.35 -93.3 -50.3 -95.3 -49.95 -96.3 M-29.25 34.0 Q-28.6 35.65 -28.6 38.35 L-29.3 43.25 -30.4 46.2 -30.3 46.05 -26.5 41.9 Q-24.7 39.5 -24.7 37.75 -24.7 33.9 -28.7 33.9 L-29.25 34.0 M-38.35 36.85 L-38.95 37.4 -38.95 37.35 -43.3 40.15 Q-47.65 42.7 -52.7 44.4 L-53.3 44.6 Q-58.1 46.4 -61.3 49.05 L-59.9 48.15 -55.3 46.5 -50.95 45.05 Q-46.15 43.1 -43.3 40.8 L-41.4 39.7 -39.65 38.7 -38.25 37.55 -37.6 36.95 Q-37.15 36.55 -36.65 36.6 L-36.6 37.05 -37.5 41.2 Q-37.75 43.3 -38.35 45.2 L-39.0 47.25 Q-39.45 48.5 -40.0 49.35 L-40.65 50.5 -39.6 49.55 -38.7 48.45 -36.3 46.0 -34.45 43.8 -34.35 43.7 -34.3 43.65 -34.1 43.4 -33.5 42.35 -33.45 42.55 -32.9 41.8 Q-31.65 39.8 -31.65 37.95 -31.65 37.05 -32.3 35.5 -33.1 33.55 -34.15 33.55 L-34.6 33.9 Q-35.6 34.05 -37.05 35.65 L-37.3 36.15 -37.8 36.55 Q-38.1 36.65 -38.35 36.85 M-36.55 33.6 L-37.95 26.8 -39.5 24.25 Q-40.9 21.9 -41.55 21.4 -43.1 20.25 -44.5 18.1 L-46.55 15.05 Q-47.5 13.95 -49.65 9.3 -51.3 5.85 -51.8 3.9 -53.45 4.55 -56.2 5.05 -61.0 6.0 -62.45 7.0 L-64.8 9.05 -70.4 13.2 -75.65 17.5 -79.8 21.65 Q-82.55 24.55 -84.95 26.05 L-91.45 29.95 Q-94.85 32.0 -97.3 34.15 L-105.2 43.1 Q-107.35 45.6 -110.0 47.55 -110.3 48.2 -111.5 48.7 L-112.0 48.9 -113.9 49.75 -115.3 51.2 -116.55 52.75 Q-118.0 54.95 -119.55 58.75 L-122.0 64.8 -122.35 65.65 -121.15 65.65 -105.2 65.5 Q-98.95 65.5 -95.15 66.45 -93.1 66.95 -90.4 67.9 -87.25 68.55 -84.95 69.5 L-84.1 69.3 -81.8 69.05 Q-79.9 68.65 -78.15 67.65 -75.8 66.2 -74.05 64.05 L-71.35 60.55 -68.95 56.9 Q-66.3 52.1 -63.45 49.4 -61.1 47.15 -58.2 45.85 L-58.8 45.75 Q-52.75 43.75 -47.3 40.8 L-39.4 36.15 -36.55 33.6 M-44.5 58.05 Q-42.15 57.2 -39.85 56.9 L-35.45 56.45 -31.85 55.75 -28.0 54.3 -27.45 54.1 -27.8 54.15 -30.35 54.5 -30.3 54.7 -31.45 54.65 -40.05 55.65 Q-45.35 55.65 -48.5 54.65 L-48.65 54.6 -49.7 54.2 Q-50.5 53.7 -51.35 53.7 L-56.35 54.05 -59.7 54.5 -58.65 55.7 -57.5 56.95 Q-56.9 57.5 -55.75 59.35 L-54.75 61.8 -54.25 63.65 -53.25 63.0 -51.35 62.1 -48.1 59.95 Q-46.75 58.9 -44.5 58.05 M-3.05 49.5 L-2.75 49.35 -12.0 50.55 -18.0 51.7 -11.6 52.0 Q-10.05 52.0 -6.65 50.6 L-3.05 49.5 M-13.5 68.25 L-6.9 68.95 Q-3.65 68.95 0.45 67.75 L1.95 67.35 0.2 67.4 -7.45 66.8 -12.45 66.65 -15.05 66.5 -18.7 66.75 -16.15 67.3 -13.5 68.25 M-31.9 53.3 L-32.8 49.9 -32.9 49.35 -34.05 49.9 -36.05 51.0 Q-38.6 52.65 -38.95 54.35 L-31.9 53.3 M-3.55 78.9 L-5.75 78.6 -5.85 78.6 -6.2 78.55 -7.1 78.45 -8.15 78.6 -8.1 78.55 -13.5 78.8 -13.3 78.9 Q-12.45 79.4 -11.7 79.45 L-9.7 79.95 -7.1 80.3 -1.85 79.7 0.15 79.55 -1.05 79.4 -3.55 78.9 M-4.05 96.75 Q-3.65 97.8 -3.65 100.0 -3.65 101.3 -3.8 101.95 L-3.9 102.25 -2.8 101.8 Q-2.15 101.15 -2.15 98.8 -2.15 96.85 -2.55 96.15 -3.05 95.3 -4.95 95.0 L-4.9 95.05 -4.05 96.75 M5.3 53.55 L5.0 52.2 5.05 52.2 Q4.5 50.75 3.3 50.05 L2.7 49.8 Q1.7 49.2 0.55 49.2 L-0.2 49.3 0.9 49.9 1.75 50.8 Q2.5 51.6 2.85 52.95 L3.1 54.95 Q3.1 56.5 2.1 58.2 L2.4 58.1 2.65 57.7 3.15 57.45 3.5 57.55 3.9 57.35 4.0 57.2 Q4.0 57.1 4.2 57.1 L4.3 56.95 Q5.35 55.9 5.35 54.45 L5.3 53.55 M5.5 59.55 L5.3 60.6 Q7.7 59.65 7.7 57.8 7.7 56.45 6.45 54.85 L6.4 56.7 Q6.2 57.5 5.3 58.2 L5.5 59.55 M9.35 67.95 L10.95 69.85 Q11.55 70.8 11.75 71.85 L11.9 73.65 Q11.9 74.95 11.25 76.1 L12.2 76.0 13.8 75.7 13.8 75.65 14.1 75.4 Q14.2 75.2 14.45 75.2 L14.5 75.1 14.65 75.0 14.95 74.55 14.95 74.75 Q15.35 74.05 15.35 72.6 L15.2 71.55 Q15.0 68.45 12.7 68.0 L12.35 67.95 12.2 67.9 10.55 67.3 8.3 67.2 9.35 67.95 M11.1 83.75 L11.05 81.55 Q10.75 80.45 9.45 79.65 L6.4 79.75 7.35 80.5 8.6 82.0 Q9.15 83.05 9.15 85.35 L8.85 88.1 8.4 89.4 8.3 89.7 8.3 89.75 Q9.8 88.65 10.4 87.55 10.9 86.6 11.05 85.05 L11.1 84.55 11.1 84.15 11.1 83.75" fill="#000000" fill-rule="evenodd" stroke="none"/>
    <path d="M-27.65 -161.6 Q-27.85 -162.5 -28.6 -163.65 -30.45 -166.25 -32.4 -167.0 L-31.3 -167.25 Q-31.0 -167.3 -31.0 -167.55 -31.0 -168.2 -32.6 -169.15 -34.3 -170.15 -35.9 -170.2 L-40.0 -170.75 -42.6 -170.45 -44.0 -169.9 Q-44.6 -169.6 -44.6 -169.2 -44.6 -168.55 -43.15 -168.05 -41.2 -167.45 -40.55 -166.95 L-41.9 -166.05 -43.4 -165.2 -44.15 -164.75 -44.75 -164.25 -45.35 -163.5 -45.6 -163.5 -45.65 -163.2 -45.55 -163.1 -45.6 -163.0 -45.5 -162.85 -45.25 -162.8 -45.2 -162.85 -43.5 -161.6 Q-43.35 -159.7 -41.25 -156.5 -40.45 -155.3 -38.7 -153.9 L-35.4 -151.1 -35.1 -151.1 -34.7 -150.9 Q-34.35 -150.9 -34.35 -151.35 L-35.7 -153.65 -37.55 -156.3 -36.55 -156.45 -34.65 -156.2 -31.5 -156.65 Q-34.95 -157.05 -36.8 -157.7 L-38.4 -158.35 -38.65 -159.05 -39.1 -159.8 -39.2 -160.9 -39.05 -162.05 -38.55 -162.0 -36.75 -161.75 -36.8 -161.25 Q-36.8 -160.25 -36.3 -159.55 -35.7 -158.65 -34.5 -158.65 -33.95 -158.65 -33.1 -159.2 L-32.2 -160.0 -31.9 -160.7 -30.5 -160.05 Q-29.45 -159.5 -29.2 -159.5 L-28.95 -159.55 -28.75 -159.3 -28.55 -158.45 Q-28.45 -157.95 -28.05 -157.95 -27.65 -157.95 -27.6 -158.65 L-27.6 -159.6 -27.65 -161.6 M-33.2 -194.75 L-31.65 -190.95 -27.95 -182.4 Q-27.2 -180.5 -25.0 -177.95 L-21.25 -173.8 Q-20.8 -171.0 -20.8 -167.8 L-21.05 -160.95 Q-21.05 -159.35 -21.7 -155.45 L-21.75 -154.35 -22.1 -151.2 -22.25 -148.2 -22.45 -145.7 -22.1 -147.75 -22.35 -140.7 Q-22.8 -138.7 -24.3 -135.35 L-24.7 -134.55 -24.45 -135.6 -24.9 -134.45 -25.7 -132.95 -26.35 -131.5 -26.9 -130.6 -27.2 -129.9 -29.0 -124.5 -29.05 -124.3 Q-30.3 -122.65 -31.3 -121.75 L-33.85 -119.05 -35.7 -116.35 -37.2 -113.5 -38.45 -110.85 -39.3 -107.55 Q-40.05 -105.6 -42.0 -105.6 L-42.2 -105.6 -43.25 -105.8 Q-43.3 -106.15 -43.8 -106.35 L-43.9 -105.9 Q-52.7 -107.6 -56.8 -109.9 L-63.9 -115.45 -54.05 -114.85 Q-53.7 -114.85 -53.7 -115.2 L-53.8 -116.0 Q-53.8 -116.75 -54.9 -118.3 -56.05 -119.95 -56.15 -120.7 -54.75 -120.45 -48.95 -117.6 -48.3 -117.6 -48.3 -117.75 L-48.0 -122.2 Q-47.8 -124.7 -46.8 -126.1 -44.4 -125.45 -43.4 -124.85 L-41.7 -123.35 -41.1 -121.45 Q-40.65 -119.85 -40.05 -119.85 -39.45 -119.85 -39.55 -120.1 L-39.55 -122.35 Q-39.8 -124.3 -41.95 -126.9 -43.8 -129.1 -46.15 -130.85 L-44.45 -132.55 Q-44.3 -132.85 -44.3 -133.85 -44.3 -135.75 -46.0 -136.9 -47.3 -137.8 -50.55 -138.7 L-49.35 -140.4 Q-48.4 -141.7 -47.65 -141.7 L-42.7 -141.45 Q-41.55 -141.35 -41.55 -142.25 -41.55 -142.95 -42.0 -143.35 -42.7 -143.95 -44.55 -144.1 -46.5 -144.3 -47.15 -145.5 L-48.7 -147.85 -49.8 -149.75 -49.05 -153.2 Q-49.05 -154.8 -50.05 -157.6 -51.05 -160.4 -51.05 -161.8 L-50.4 -165.5 -49.8 -168.5 -51.5 -170.15 Q-53.35 -171.9 -53.8 -172.75 L-54.4 -173.85 -56.9 -174.4 -60.3 -174.7 -66.75 -175.5 -71.3 -175.45 -71.3 -179.35 -71.05 -180.75 Q-67.6 -184.3 -65.25 -186.15 L-65.25 -186.05 -66.9 -182.15 -66.45 -181.8 -64.3 -184.8 -61.85 -187.85 -60.6 -189.25 -59.7 -188.85 Q-57.3 -187.8 -52.45 -184.55 -48.2 -181.7 -47.7 -181.7 -47.25 -181.7 -46.35 -183.75 L-45.7 -184.95 -44.85 -186.15 -42.5 -188.75 -40.8 -190.75 Q-40.8 -191.05 -43.5 -192.05 L-46.8 -193.1 -46.65 -193.2 -43.6 -193.35 -37.3 -192.35 Q-36.85 -192.35 -35.05 -193.6 L-33.25 -194.8 -33.2 -194.75 M-64.8 -185.2 L-64.85 -185.15 -64.85 -185.25 -64.8 -185.2 M-38.35 36.85 Q-38.1 36.65 -37.8 36.55 L-37.3 36.15 -37.05 35.65 Q-35.6 34.05 -34.6 33.9 L-34.15 33.55 Q-33.1 33.55 -32.3 35.5 -31.65 37.05 -31.65 37.95 -31.65 39.8 -32.9 41.8 L-33.45 42.55 -33.5 42.35 -34.1 43.4 -34.3 43.65 -34.35 43.7 -34.45 43.8 -36.3 46.0 -38.7 48.45 -39.6 49.55 -40.65 50.5 -40.0 49.35 Q-39.45 48.5 -39.0 47.25 L-38.35 45.2 Q-37.75 43.3 -37.5 41.2 L-36.6 37.05 -36.65 36.6 Q-37.15 36.55 -37.6 36.95 L-38.25 37.55 -39.65 38.7 -41.4 39.7 -43.3 40.8 Q-46.15 43.1 -50.95 45.05 L-55.3 46.5 -59.9 48.15 -61.3 49.05 Q-58.1 46.4 -53.3 44.6 L-52.7 44.4 Q-47.65 42.7 -43.3 40.15 L-38.95 37.35 -38.95 37.4 -38.35 36.85 M-29.25 34.0 L-28.7 33.9 Q-24.7 33.9 -24.7 37.75 -24.7 39.5 -26.5 41.9 L-30.3 46.05 -30.4 46.2 -29.3 43.25 -28.6 38.35 Q-28.6 35.65 -29.25 34.0 M-49.95 -96.3 L-50.3 -95.3 -51.35 -93.3 -52.55 -90.0 -54.15 -87.05 -56.05 -83.85 -61.05 -75.3 -62.4 -73.05 -68.05 -73.35 -76.9 -73.1 Q-74.8 -75.85 -72.15 -78.5 -67.8 -82.85 -63.8 -84.7 L-59.3 -86.6 Q-56.05 -88.2 -54.4 -90.35 -53.15 -91.9 -52.4 -94.1 -51.9 -95.4 -49.95 -96.3 M-13.5 68.25 L-16.15 67.3 -18.7 66.75 -15.05 66.5 -12.45 66.65 -7.45 66.8 0.2 67.4 1.95 67.35 0.45 67.75 Q-3.65 68.95 -6.9 68.95 L-13.5 68.25 M-3.05 49.5 L-6.65 50.6 Q-10.05 52.0 -11.6 52.0 L-18.0 51.7 -12.0 50.55 -2.75 49.35 -3.05 49.5 M-44.5 58.05 Q-46.75 58.9 -48.1 59.95 L-51.35 62.1 -53.25 63.0 -54.25 63.65 -54.75 61.8 -55.75 59.35 Q-56.9 57.5 -57.5 56.95 L-58.65 55.7 -59.7 54.5 -56.35 54.05 -51.35 53.7 Q-50.5 53.7 -49.7 54.2 L-48.65 54.6 -48.5 54.65 Q-45.35 55.65 -40.05 55.65 L-31.45 54.65 -30.3 54.7 -30.35 54.5 -27.8 54.15 -27.45 54.1 -28.0 54.3 -31.85 55.75 -35.45 56.45 -39.85 56.9 Q-42.15 57.2 -44.5 58.05 M11.1 83.75 L11.1 84.15 11.1 84.55 11.05 85.05 Q10.9 86.6 10.4 87.55 9.8 88.65 8.3 89.75 L8.3 89.7 8.4 89.4 8.85 88.1 9.15 85.35 Q9.15 83.05 8.6 82.0 L7.35 80.5 6.4 79.75 9.45 79.65 Q10.75 80.45 11.05 81.55 L11.1 83.75 M9.35 67.95 L8.3 67.2 10.55 67.3 12.2 67.9 12.35 67.95 12.7 68.0 Q15.0 68.45 15.2 71.55 L15.35 72.6 Q15.35 74.05 14.95 74.75 L14.95 74.55 14.65 75.0 14.5 75.1 14.45 75.2 Q14.2 75.2 14.1 75.4 L13.8 75.65 13.8 75.7 12.2 76.0 11.25 76.1 Q11.9 74.95 11.9 73.65 L11.75 71.85 Q11.55 70.8 10.95 69.85 L9.35 67.95 M5.5 59.55 L5.3 58.2 Q6.2 57.5 6.4 56.7 L6.45 54.85 Q7.7 56.45 7.7 57.8 7.7 59.65 5.3 60.6 L5.5 59.55 M5.3 53.55 L5.35 54.45 Q5.35 55.9 4.3 56.95 L4.2 57.1 Q4.0 57.1 4.0 57.2 L3.9 57.35 3.5 57.55 3.15 57.45 2.65 57.7 2.4 58.1 2.1 58.2 Q3.1 56.5 3.1 54.95 L2.85 52.95 Q2.5 51.6 1.75 50.8 L0.9 49.9 -0.2 49.3 0.55 49.2 Q1.7 49.2 2.7 49.8 L3.3 50.05 Q4.5 50.75 5.05 52.2 L5.0 52.2 5.3 53.55 M-4.05 96.75 L-4.9 95.05 -4.95 95.0 Q-3.05 95.3 -2.55 96.15 -2.15 96.85 -2.15 98.8 -2.15 101.15 -2.8 101.8 L-3.9 102.25 -3.8 101.95 Q-3.65 101.3 -3.65 100.0 -3.65 97.8 -4.05 96.75 M-3.55 78.9 L-1.05 79.4 0.15 79.55 -1.85 79.7 -7.1 80.3 -9.7 79.95 -11.7 79.45 Q-12.45 79.4 -13.3 78.9 L-13.5 78.8 -8.1 78.55 -8.15 78.6 -7.1 78.45 -6.2 78.55 -5.85 78.6 -5.75 78.6 -3.55 78.9" fill="url(#gradient2)" fill-rule="evenodd" stroke="none"/>
    <path d="M144.85 -139.4 Q147.35 -138.0 148.5 -135.35 149.35 -133.45 149.35 -131.55 149.35 -129.45 148.35 -126.7 147.25 -123.7 145.6 -122.1 147.55 -120.55 148.45 -118.6 149.45 -116.4 148.6 -114.85 L153.2 -113.9 Q156.45 -112.95 157.95 -111.6 159.45 -110.2 159.45 -107.4 159.45 -105.5 159.1 -104.6 158.25 -102.35 155.35 -102.6 L155.55 -101.2 Q155.7 -100.2 155.3 -99.5 154.05 -97.5 147.5 -97.5 142.35 -97.5 138.6 -99.55 L135.7 -101.65 Q132.6 -104.5 132.6 -106.15 132.6 -107.45 133.0 -108.05 133.6 -109.0 135.35 -109.0 L137.45 -108.5 138.6 -108.2 139.5 -108.05 146.2 -108.6 147.95 -109.3 149.35 -109.65 144.4 -109.0 141.1 -108.55 138.6 -108.9 Q137.7 -109.25 137.35 -109.95 L137.2 -111.4 Q137.2 -113.0 138.1 -113.9 139.2 -115.0 143.35 -117.0 L140.65 -119.6 Q140.15 -120.2 140.15 -121.45 140.15 -123.8 142.2 -126.25 144.2 -128.65 144.2 -131.4 144.2 -133.95 143.2 -133.9 L139.75 -133.35 138.65 -133.45 137.8 -133.8 Q137.7 -133.8 137.7 -134.95 137.7 -135.85 138.45 -136.8 L139.75 -138.95 Q140.3 -140.25 141.9 -140.35 143.5 -140.45 144.85 -139.4 M153.3 -108.15 L151.8 -108.35 Q152.1 -107.5 153.4 -107.5 L154.25 -107.8 153.3 -108.15 M159.25 -89.35 Q160.2 -88.7 160.2 -87.0 L160.2 -85.6 159.9 -82.9 Q159.2 -79.25 157.15 -79.25 L156.1 -79.4 156.15 -79.35 156.5 -79.1 156.7 -78.25 156.25 -76.85 Q155.8 -76.0 155.8 -75.45 155.8 -74.85 156.3 -74.85 156.8 -74.85 156.8 -74.3 156.8 -72.95 155.35 -72.65 L157.0 -70.8 Q157.0 -70.05 155.15 -68.55 153.3 -67.05 153.3 -66.65 L154.55 -60.9 Q154.55 -60.2 153.95 -59.25 L153.4 -58.6 Q154.45 -58.35 154.65 -57.2 155.35 -56.55 155.35 -55.15 155.35 -53.35 152.35 -52.6 147.5 -51.4 144.75 -50.1 L143.4 -49.35 142.7 -48.85 138.45 -45.1 135.1 -42.1 Q132.9 -42.1 132.9 -44.0 132.9 -45.85 136.3 -49.15 139.45 -52.25 143.8 -54.95 148.25 -57.8 151.25 -58.5 L152.2 -58.65 151.45 -59.4 150.7 -60.45 149.55 -59.0 Q146.15 -59.0 146.15 -63.3 146.15 -68.05 147.05 -71.3 148.1 -74.95 150.0 -74.2 L149.85 -74.4 149.2 -75.3 Q148.8 -75.9 148.8 -76.55 148.8 -77.5 149.5 -79.15 150.4 -81.1 151.45 -81.15 152.2 -81.2 152.7 -80.75 L153.8 -79.9 155.45 -79.7 Q154.65 -80.25 154.3 -81.4 154.0 -82.25 154.0 -84.0 L154.15 -85.6 Q154.65 -88.4 157.1 -89.4 L159.25 -89.35 M152.9 -73.1 L151.1 -73.45 151.8 -72.75 152.65 -73.0 152.9 -73.1 M167.35 -100.35 L170.45 -96.4 169.9 -95.55 Q167.6 -96.15 165.65 -98.35 163.8 -100.55 164.05 -102.15 165.2 -102.8 167.35 -100.35 M179.65 10.65 Q179.65 13.15 176.35 16.75 172.45 20.95 167.15 22.25 159.15 24.2 156.0 26.75 L155.8 26.95 156.1 27.5 159.95 34.2 161.1 33.55 Q165.05 31.55 170.8 30.35 176.45 29.2 180.45 29.6 184.85 30.05 184.85 32.25 184.85 33.75 181.6 37.25 178.4 40.7 176.55 41.45 L176.35 39.55 176.9 37.95 177.6 36.35 Q174.15 36.95 167.85 39.95 L162.7 42.5 163.0 43.55 Q165.05 50.3 165.05 51.45 165.05 52.7 164.1 53.75 163.05 54.8 161.75 54.8 161.75 56.55 162.2 58.65 L162.6 61.75 Q162.6 62.9 161.75 63.6 161.0 64.2 159.95 64.2 156.65 64.2 150.5 61.65 L144.65 59.05 Q140.7 57.85 138.7 55.9 L134.95 52.5 Q132.45 50.8 127.9 46.55 122.05 41.05 122.05 39.0 L122.35 37.8 Q122.9 36.55 124.3 36.55 127.25 36.55 137.55 48.0 140.0 50.75 145.4 53.55 150.8 56.35 156.7 58.0 L156.85 55.2 Q156.85 49.65 154.7 40.5 154.25 38.6 151.4 32.25 L151.15 31.7 149.95 32.7 Q148.65 32.7 148.15 31.3 L147.85 29.75 Q147.85 28.55 149.15 26.95 L148.75 25.75 Q148.75 22.55 152.05 24.0 156.1 20.55 159.85 19.5 166.25 17.7 169.55 16.1 174.35 13.65 174.25 10.85 L166.65 7.15 Q163.2 5.45 163.2 3.7 163.2 1.45 165.4 1.7 167.45 1.9 171.65 4.25 175.85 5.3 177.9 7.25 179.65 8.85 179.65 10.65 M-66.9 -203.85 Q-66.25 -205.05 -65.9 -206.0 L-65.4 -207.45 Q-64.85 -208.65 -64.1 -208.9 -61.85 -209.7 -60.95 -206.45 -60.5 -204.8 -60.5 -202.9 -60.5 -201.75 -62.25 -191.4 L-63.8 -181.05 Q-59.75 -180.35 -54.8 -178.3 L-52.6 -176.95 Q-49.35 -175.15 -48.85 -168.7 -48.85 -163.65 -49.2 -160.7 L-48.6 -157.1 -48.0 -153.15 Q-48.0 -150.05 -48.5 -148.2 -48.75 -147.15 -49.25 -146.25 -47.6 -144.3 -45.45 -144.3 L-44.35 -144.45 -43.75 -143.85 Q-43.75 -143.25 -44.4 -142.7 -45.05 -142.15 -45.75 -142.15 L-47.6 -142.4 Q-47.15 -141.8 -47.15 -140.95 -49.3 -134.9 -51.0 -134.9 -52.05 -134.9 -52.4 -136.25 L-52.5 -137.7 Q-52.5 -143.15 -49.8 -143.45 L-49.3 -143.45 -50.1 -145.0 -51.2 -143.95 Q-51.6 -144.45 -51.85 -146.1 L-52.05 -148.1 Q-52.05 -149.75 -53.15 -156.4 -54.0 -161.4 -53.1 -164.55 L-53.9 -162.45 Q-54.3 -161.15 -55.15 -161.15 -57.7 -161.15 -57.75 -163.45 -57.25 -166.0 -57.3 -166.65 L-57.8 -169.5 -58.25 -171.95 -58.05 -174.1 -59.2 -174.25 -59.75 -173.1 Q-60.5 -172.05 -61.65 -172.05 L-64.55 -172.2 -65.5 -167.35 Q-66.85 -161.35 -69.1 -155.7 L-69.55 -155.6 -69.55 -156.45 -69.45 -157.65 Q-69.45 -158.3 -69.85 -158.9 L-70.3 -159.75 -70.85 -159.1 Q-71.5 -158.45 -72.3 -158.45 -73.9 -158.45 -74.35 -159.9 L-74.45 -161.4 -72.7 -173.35 -72.4 -175.3 Q-73.95 -175.5 -74.6 -176.35 L-75.0 -177.45 Q-75.0 -180.1 -71.55 -180.95 L-70.5 -188.7 Q-70.3 -190.9 -69.05 -195.65 -67.75 -200.55 -67.5 -202.5 L-66.9 -203.85 M-34.85 -150.45 Q-38.15 -150.45 -41.7 -156.3 -44.7 -161.1 -44.7 -162.4 -44.7 -163.6 -44.5 -163.75 -43.95 -164.35 -41.75 -163.05 -41.75 -162.85 -42.45 -162.6 -41.9 -160.55 -38.75 -156.7 L-33.85 -150.8 -33.95 -150.55 -34.85 -150.45 M-55.7 -125.95 Q-54.9 -125.95 -53.7 -125.25 -52.45 -124.55 -51.75 -124.55 -51.1 -124.55 -50.0 -125.7 -48.9 -126.9 -47.6 -126.9 L-46.4 -126.7 -45.35 -126.05 -45.3 -126.25 -45.25 -125.55 -47.15 -123.45 Q-49.25 -121.3 -49.85 -119.55 -50.75 -116.85 -50.75 -113.45 L-50.65 -110.8 -48.2 -109.05 -43.9 -105.95 Q-40.2 -103.05 -40.2 -102.3 -40.2 -101.5 -40.65 -100.9 -41.15 -100.25 -42.05 -100.25 L-48.7 -101.9 -50.9 -102.55 Q-51.35 -101.75 -52.05 -101.75 -56.35 -101.75 -58.45 -107.15 L-60.05 -109.05 -60.6 -109.6 Q-61.3 -108.9 -62.55 -108.9 -66.75 -108.9 -66.75 -119.3 -66.75 -120.6 -66.15 -122.3 -66.0 -122.7 -64.75 -123.2 -63.5 -123.65 -63.35 -124.15 L-63.15 -125.35 Q-62.8 -126.3 -61.75 -126.7 -60.25 -127.25 -59.1 -126.15 L-57.8 -124.9 Q-57.25 -124.9 -56.75 -125.4 -56.3 -125.95 -55.7 -125.95 M-49.1 -99.95 Q-48.65 -99.15 -48.65 -98.55 -48.65 -94.6 -52.45 -89.8 -56.2 -85.1 -62.6 -80.95 L-68.4 -76.55 -72.95 -72.3 -75.65 -67.9 Q-77.9 -64.2 -79.1 -64.2 -80.45 -64.2 -81.35 -66.65 L-82.0 -69.25 Q-82.0 -71.3 -75.2 -78.35 -68.9 -85.0 -67.1 -85.85 -60.5 -88.9 -56.15 -94.0 -53.75 -96.8 -50.05 -101.75 L-49.1 -99.95 M-55.3 59.3 Q-50.5 56.7 -46.8 55.75 -36.8 53.4 -31.0 52.8 -16.85 51.3 -16.85 56.85 -16.85 58.35 -18.15 58.35 L-21.7 57.95 -24.75 57.45 -24.75 57.55 -40.2 59.6 Q-46.85 60.75 -49.4 61.8 L-54.1 64.75 Q-58.0 67.25 -59.1 67.25 -60.55 67.25 -61.15 66.3 -61.5 65.8 -61.5 65.15 -61.5 62.6 -55.3 59.3" fill="#000000" fill-opacity="0.101960786" fill-rule="evenodd" stroke="none"/>
  </g>
  <defs>
    <linearGradient gradientTransform="matrix(0.4358, 0.0, 0.0, 0.1996, 56.9, -54.65)" gradientUnits="userSpaceOnUse" id="gradient0" spreadMethod="pad" x1="-819.2" x2="819.2">
      <stop offset="0.0" stop-color="#1a1a1a"/>
      <stop offset="1.0" stop-color="#5e5e5e"/>
    </linearGradient>
    <linearGradient gradientTransform="matrix(0.0188, 0.1473, -0.9915, 0.1266, 322.2, -56.6)" gradientUnits="userSpaceOnUse" id="gradient1" spreadMethod="pad" x1="-819.2" x2="819.2">
      <stop offset="0.0" stop-color="#ceb19f"/>
      <stop offset="1.0" stop-color="#a37354"/>
    </linearGradient>
    <linearGradient gradientTransform="matrix(0.0213, 0.1863, -0.0586, 0.0067, -39.4, -48.45)" gradientUnits="userSpaceOnUse" id="gradient2" spreadMethod="pad" x1="-819.2" x2="819.2">
      <stop offset="0.0" stop-color="#cca399"/>
      <stop offset="1.0" stop-color="#9e5f50"/>
    </linearGradient>
  </defs>
</svg>
