<?xml version="1.0" encoding="UTF-8" standalone="no"?>
<svg xmlns:xlink="http://www.w3.org/1999/xlink" height="389.55px" width="714.95px" xmlns="http://www.w3.org/2000/svg">
  <g transform="matrix(1.0, 0.0, 0.0, 1.0, 259.55, 227.6)">
    <path d="M454.9 -227.1 L454.9 99.85 -259.05 99.85 -259.05 -227.1 454.9 -227.1" fill="url(#gradient0)" fill-rule="evenodd" stroke="none"/>
    <path d="M454.9 -227.1 L454.9 99.85 -259.05 99.85 -259.05 -227.1 454.9 -227.1 Z" fill="none" stroke="#ff0000" stroke-linecap="round" stroke-linejoin="round" stroke-width="1.0"/>
    <path d="M53.95 -86.85 L53.95 -82.6 Q53.95 -76.95 54.2 -73.95 L53.7 -73.6 Q52.85 -74.2 52.8 -75.6 L52.95 -77.7 Q52.85 -78.5 52.9 -79.95 L52.95 -81.65 53.0 -87.4 Q53.2 -91.55 54.05 -91.75 L54.3 -91.65 54.35 -91.2 54.15 -89.35 53.95 -86.85" fill="#000000" fill-rule="evenodd" stroke="none"/>
    <path d="M86.2 -118.4 L85.95 -116.2 85.7 -113.1 85.8 -110.5 85.7 -107.85 85.1 -105.25 84.2 -102.6 Q83.8 -101.8 83.35 -100.1 82.9 -98.85 81.95 -98.05 L80.75 -91.15 80.3 -88.6 80.35 -88.6 80.2 -88.15 80.2 -88.05 80.75 -87.85 82.0 -87.45 84.9 -86.95 92.55 -85.25 Q95.95 -84.5 98.15 -83.45 L101.95 -81.45 104.2 -80.35 105.3 -81.15 105.3 -81.2 Q106.15 -81.4 106.85 -81.9 L109.0 -83.45 110.85 -84.0 111.85 -84.0 117.55 -81.5 Q122.8 -78.8 127.4 -74.75 135.4 -67.7 142.1 -59.0 148.1 -51.35 151.05 -43.25 L152.5 -39.3 153.4 -35.35 153.9 -28.55 153.95 -28.6 153.95 -24.45 153.95 -21.0 Q153.15 -19.3 152.15 -18.35 L152.8 -12.6 154.5 -8.25 Q155.4 -8.0 155.85 -7.35 156.95 -6.25 157.9 -4.75 158.8 -3.55 160.3 0.15 162.0 4.3 162.0 5.95 L161.85 7.25 160.9 7.85 162.8 12.2 Q165.75 19.15 165.75 24.35 L165.5 28.0 165.5 28.05 166.25 29.9 Q167.3 32.6 167.3 34.4 167.3 36.5 165.65 40.15 164.15 43.4 162.6 45.4 159.95 48.7 157.55 50.5 153.85 53.2 148.4 54.5 L146.9 54.5 145.2 54.45 142.2 54.65 Q138.65 54.65 136.0 51.6 L135.85 51.9 135.85 52.0 Q135.6 50.6 132.7 48.1 129.85 45.7 127.65 44.8 126.7 44.45 125.3 43.5 L122.7 41.9 Q121.4 41.15 120.1 40.05 L117.95 38.15 Q113.6 34.85 110.6 32.1 L110.75 33.65 110.2 39.45 109.3 44.65 108.35 50.15 107.2 54.4 107.25 54.4 Q107.4 54.55 107.5 54.5 L107.55 54.9 Q107.55 55.55 107.35 55.4 L106.7 55.4 106.55 55.75 105.8 55.75 105.8 55.4 12.05 55.4 11.55 55.65 11.1 55.5 Q10.95 55.45 10.95 55.05 L10.95 54.5 11.1 54.5 11.25 53.6 11.55 51.9 11.55 49.15 11.75 46.35 12.1 43.5 12.65 37.65 Q12.6 36.2 12.7 35.05 L12.1 35.65 5.7 41.35 -0.7 46.75 -4.45 49.1 -7.8 51.25 -9.25 52.65 -10.5 54.05 -11.45 55.5 Q-12.4 56.65 -13.3 56.65 L-19.7 56.85 -21.9 56.6 -21.95 56.65 -22.55 56.75 -22.95 56.65 -23.95 56.75 Q-29.25 56.75 -34.55 50.9 -36.25 49.1 -39.75 43.8 -41.45 41.25 -42.65 37.0 -43.95 32.8 -43.95 29.7 -43.95 25.8 -39.7 21.65 -38.65 18.75 -38.35 17.15 L-36.8 10.2 -37.35 10.05 Q-38.45 9.7 -38.45 8.55 -38.45 7.3 -37.7 4.5 -37.05 1.7 -37.05 0.65 -36.6 -1.95 -35.1 -4.1 -34.1 -5.6 -33.1 -6.05 L-31.45 -13.0 -33.2 -15.3 -34.3 -18.0 -34.55 -19.95 Q-34.85 -22.0 -34.2 -22.75 L-33.85 -22.6 -34.1 -29.4 -33.75 -33.4 -32.8 -37.45 Q-30.95 -45.75 -26.0 -53.9 -20.6 -63.1 -13.8 -70.85 -9.85 -75.25 -5.1 -78.4 L0.25 -81.5 Q1.95 -82.1 4.2 -81.15 6.45 -80.3 6.55 -79.3 L6.6 -79.1 7.75 -78.35 8.55 -77.95 9.1 -77.65 15.75 -79.0 Q19.8 -79.75 25.05 -82.3 29.15 -84.3 32.25 -84.75 L32.45 -84.75 32.25 -85.1 32.3 -85.1 32.25 -85.2 30.7 -88.6 Q29.9 -90.5 29.6 -91.7 L28.75 -96.6 Q28.25 -99.75 27.6 -101.45 L25.8 -105.95 Q24.45 -109.4 24.45 -111.0 L24.5 -111.3 Q21.95 -120.05 21.95 -126.55 21.95 -130.25 22.9 -134.55 23.85 -138.85 25.45 -142.25 26.4 -144.2 29.3 -146.85 31.55 -148.95 32.95 -149.75 L37.05 -152.6 Q40.05 -153.95 49.7 -155.1 52.25 -155.55 56.4 -155.1 60.35 -154.7 62.45 -153.95 L66.3 -152.1 72.85 -148.1 Q77.9 -144.3 80.45 -138.2 83.15 -131.6 84.15 -128.3 85.65 -123.4 85.9 -119.6 L86.2 -118.4 M83.95 -110.35 L83.7 -109.0 83.3 -106.35 Q83.1 -105.45 81.3 -103.75 L78.7 -101.6 Q77.95 -103.0 77.75 -105.05 77.65 -106.25 77.7 -108.7 L77.95 -115.6 73.9 -115.75 Q74.65 -116.25 74.05 -116.25 L71.7 -114.6 Q71.25 -114.6 70.55 -115.4 L69.7 -116.45 67.45 -112.1 66.7 -112.2 Q66.55 -113.8 64.95 -118.75 L64.85 -118.75 64.85 -118.35 65.45 -110.5 Q65.45 -106.85 64.35 -102.75 63.1 -98.1 61.05 -95.75 L61.05 -95.6 64.35 -96.45 67.95 -96.85 Q70.35 -96.85 70.35 -94.55 70.35 -92.9 69.5 -91.35 68.15 -88.75 65.35 -89.35 65.9 -88.6 67.2 -88.2 L69.85 -87.25 Q68.7 -81.6 67.5 -79.55 65.9 -76.85 62.7 -76.85 60.55 -76.85 60.3 -80.35 L60.45 -84.35 60.7 -86.05 Q60.55 -86.75 58.45 -87.6 L56.3 -88.95 54.6 -90.2 54.25 -81.7 54.25 -81.25 54.0 -75.1 54.0 -74.25 Q56.0 -73.65 57.15 -73.35 L57.65 -73.9 58.1 -74.25 Q59.2 -74.85 61.55 -74.85 L61.6 -74.85 Q63.9 -74.8 66.1 -72.45 L68.2 -69.6 70.8 -74.4 73.7 -79.35 76.7 -84.45 77.85 -87.25 Q78.45 -88.55 79.15 -88.8 L79.45 -90.25 80.05 -94.85 Q80.35 -96.6 80.95 -97.8 L80.85 -98.2 83.45 -103.6 84.25 -106.3 84.7 -109.1 84.7 -111.1 Q84.1 -110.85 83.95 -110.35 M29.7 -102.6 Q29.5 -99.7 29.1 -97.85 L30.45 -92.35 Q30.8 -91.0 31.8 -88.85 L33.35 -85.75 32.95 -87.1 Q32.65 -87.7 32.5 -89.0 L32.2 -92.35 Q31.7 -98.5 29.8 -102.6 L29.7 -102.6 M80.2 -46.25 L78.2 -48.25 74.85 -52.35 Q72.3 -55.55 69.1 -60.75 L65.35 -66.8 Q64.2 -67.45 62.95 -69.3 61.55 -71.4 59.45 -71.75 L54.75 -72.75 53.95 -72.95 53.2 -72.95 53.2 -73.2 51.95 -73.6 49.25 -74.7 47.55 -75.35 47.05 -75.3 Q45.95 -74.65 45.85 -74.2 46.75 -73.45 50.05 -72.0 L54.45 -70.0 57.7 -67.7 60.3 -64.95 Q61.55 -63.1 62.9 -59.35 64.55 -54.65 65.1 -53.5 L66.4 -50.55 Q67.4 -48.55 68.45 -47.7 69.9 -46.45 71.9 -45.3 L75.7 -43.1 Q78.25 -41.5 80.2 -38.45 L80.75 -37.75 82.0 -35.75 84.05 -32.1 Q86.7 -27.7 93.95 -20.75 L105.95 -9.25 Q109.3 -5.7 118.6 3.15 L122.1 6.9 126.15 10.9 Q129.4 14.2 132.05 16.15 134.5 17.95 136.85 20.9 138.15 22.45 140.45 25.9 141.7 27.75 142.75 30.75 L144.25 35.65 147.45 41.05 150.15 45.35 Q150.15 46.1 149.8 46.1 L144.15 46.05 Q142.8 46.05 142.5 47.55 L142.5 49.15 Q142.5 50.4 143.0 51.25 L143.85 53.1 144.25 53.15 144.8 53.05 147.7 52.5 Q147.9 52.9 148.8 52.9 149.95 52.9 150.95 52.25 L153.15 51.5 Q157.95 49.35 161.5 44.6 165.85 38.65 165.85 34.4 165.85 32.55 164.55 29.85 L164.25 30.25 163.5 28.9 163.75 28.4 161.2 24.55 156.5 18.6 156.55 18.4 154.95 16.65 151.35 12.65 Q147.05 8.2 143.0 5.55 L133.0 -0.1 Q126.05 -4.0 123.1 -7.1 L120.8 -9.05 Q119.3 -10.2 118.7 -10.85 L114.75 -14.6 106.2 -21.7 Q100.35 -25.9 98.0 -29.1 97.5 -29.9 95.95 -30.8 94.15 -31.95 93.6 -32.45 L91.75 -34.4 90.2 -36.1 90.25 -36.5 90.4 -36.7 90.55 -36.75 89.65 -37.85 87.95 -40.1 Q86.1 -42.15 82.85 -44.35 L82.0 -44.95 80.2 -46.25 M32.45 -3.5 L35.95 -11.25 Q39.4 -19.2 41.3 -22.7 43.75 -27.05 44.2 -28.35 L45.0 -29.7 45.8 -31.1 Q46.75 -33.75 47.3 -33.7 L47.4 -33.65 48.7 -36.6 Q50.65 -41.0 51.2 -43.35 52.3 -47.2 53.0 -54.45 L52.45 -54.35 51.2 -57.9 Q50.2 -60.4 50.2 -61.45 L50.35 -62.0 50.7 -62.1 51.95 -59.6 52.85 -57.1 52.95 -57.1 Q52.95 -60.25 53.35 -61.95 L54.05 -62.0 Q54.15 -59.45 53.85 -57.85 L53.85 -56.75 54.4 -56.9 55.3 -57.55 56.95 -58.6 Q56.25 -60.95 54.2 -64.3 51.05 -69.35 48.2 -69.35 L45.85 -69.1 48.0 -65.35 Q49.2 -63.45 49.2 -61.65 49.2 -59.75 47.45 -58.4 45.7 -57.05 45.7 -54.05 45.7 -52.0 46.85 -49.55 L47.95 -46.95 Q47.95 -46.55 45.6 -46.25 43.2 -46.0 43.2 -44.05 43.2 -42.85 44.9 -40.65 L47.2 -37.35 47.1 -37.05 46.55 -36.85 45.2 -37.65 Q44.25 -38.5 42.25 -38.5 40.5 -38.5 38.6 -34.75 37.0 -31.55 36.7 -29.2 L35.8 -26.9 34.8 -24.35 Q34.35 -21.6 33.3 -19.6 L32.45 -17.9 30.95 -14.9 28.75 -10.1 26.05 -5.3 23.3 -0.5 Q21.2 3.75 19.5 9.1 L16.9 18.65 14.35 28.15 12.2 33.05 11.95 33.95 12.0 33.9 13.4 32.35 13.5 32.15 13.55 32.2 Q17.4 27.75 20.55 22.65 24.3 16.8 26.2 11.4 28.8 4.05 32.45 -3.5 M3.05 -80.15 L1.95 -80.65 Q-1.3 -80.35 -7.1 -75.6 -12.45 -71.15 -16.3 -66.0 L-16.45 -65.75 -15.25 -66.9 -16.3 -65.35 -18.85 -61.75 -24.05 -54.45 -25.9 -50.9 -26.7 -49.15 -25.9 -51.65 -26.7 -50.05 Q-29.4 -44.05 -32.3 -34.45 -33.25 -31.4 -33.0 -26.8 -32.6 -20.0 -32.7 -19.35 L-32.95 -19.3 -32.55 -17.65 Q-32.45 -16.75 -31.4 -15.2 L-31.4 -15.15 Q-31.15 -14.25 -30.15 -14.1 L-30.8 -15.6 -31.65 -19.25 Q-32.45 -22.35 -32.45 -23.2 L-32.4 -26.2 Q-32.4 -29.5 -31.7 -33.55 -31.0 -38.2 -29.85 -40.25 L-26.3 -47.2 Q-24.15 -51.4 -22.05 -54.35 L-11.15 -68.35 Q-9.35 -70.55 -3.85 -75.35 0.9 -79.35 3.05 -80.15 M3.4 -10.4 L0.25 -11.85 Q-4.45 -13.8 -9.45 -14.85 L-12.6 -14.85 -12.45 -8.8 -12.5 -6.3 Q-9.85 -5.8 -8.35 -5.15 -6.5 -4.4 -4.35 -3.0 -2.45 -4.25 -0.65 -6.25 L3.2 -10.25 3.4 -10.4 M50.3 -10.7 Q51.65 -9.85 52.05 -8.35 L52.2 -6.1 Q52.2 -4.9 51.6 -3.6 L51.55 -3.45 Q52.85 -3.8 53.55 -4.65 54.1 -5.35 54.1 -6.2 54.1 -7.3 53.15 -8.9 51.9 -10.9 50.2 -10.75 L50.3 -10.7 M127.5 -63.1 Q129.3 -61.8 130.5 -59.7 L132.4 -56.0 Q133.15 -54.7 133.35 -52.6 L133.4 -48.85 Q133.5 -45.1 134.3 -41.75 134.65 -40.4 135.65 -38.25 L137.5 -34.6 Q138.95 -31.8 143.8 -27.55 L151.15 -21.25 151.7 -20.95 152.1 -20.55 Q153.05 -21.75 153.1 -22.85 L153.2 -23.5 153.4 -25.2 153.1 -25.2 Q152.95 -25.85 152.5 -32.65 152.2 -37.25 150.85 -40.2 146.75 -49.5 143.25 -55.2 140.2 -60.3 130.6 -70.2 126.0 -74.95 119.9 -78.9 113.35 -83.1 110.0 -83.1 L107.9 -82.0 108.15 -81.95 108.0 -81.9 Q105.05 -80.05 104.15 -78.8 L104.0 -78.9 Q98.6 -75.05 95.15 -71.55 L97.6 -72.1 107.05 -72.6 Q112.05 -71.6 116.05 -70.2 119.2 -69.1 122.4 -66.9 L127.5 -63.1 M164.35 26.0 L164.45 24.55 Q164.45 20.5 161.6 13.5 L159.4 8.3 158.95 8.4 150.85 10.0 150.5 10.0 152.55 11.95 Q156.1 15.45 157.65 18.3 158.8 19.0 160.5 21.05 L164.15 25.65 164.35 26.0 M161.1 37.65 L161.0 37.5 161.15 37.35 161.1 37.65 M80.2 54.3 L82.0 54.3 105.9 54.4 106.0 54.0 106.25 53.1 Q106.25 51.45 107.9 44.65 109.5 37.85 109.5 33.7 L109.2 32.3 108.9 30.9 109.0 30.55 Q104.95 26.45 104.3 23.7 97.2 13.4 90.45 0.65 L88.45 3.15 Q87.95 3.8 86.95 6.4 85.7 9.3 83.15 12.55 L82.0 14.0 80.2 15.9 Q78.7 17.5 76.95 18.15 74.35 19.05 73.7 20.65 73.45 21.3 73.45 23.5 73.45 24.55 74.2 28.4 74.2 30.0 71.05 30.9 67.85 31.8 67.85 32.4 67.85 33.5 70.25 37.7 L72.6 42.05 Q72.6 43.75 70.95 44.5 L68.6 45.25 Q66.65 45.85 66.3 46.25 66.6 47.0 69.15 48.05 71.55 49.1 71.55 49.7 71.55 50.9 69.45 52.2 L66.45 53.9 66.6 54.05 66.7 54.3 80.2 54.3 M50.3 14.3 Q51.65 15.15 52.05 16.65 L52.2 18.9 Q52.2 20.1 51.6 21.4 L51.55 21.55 Q52.85 21.2 53.55 20.35 54.1 19.65 54.1 18.8 54.1 17.7 53.15 16.1 51.9 14.1 50.2 14.25 L50.3 14.3 M50.3 39.3 Q51.65 40.15 52.05 41.65 L52.2 43.9 Q52.2 45.1 51.6 46.4 L51.55 46.55 Q52.85 46.2 53.55 45.35 54.1 44.65 54.1 43.8 54.1 42.7 53.15 41.1 51.9 39.1 50.2 39.25 L50.3 39.3 M-29.8 -13.55 L-29.95 -13.8 -29.95 -13.7 -29.9 -13.65 -29.8 -13.55" fill="#000000" fill-rule="evenodd" stroke="none"/>
    <path d="M80.2 -38.45 Q78.25 -41.5 75.7 -43.1 L71.9 -45.3 Q69.9 -46.45 68.45 -47.7 67.4 -48.55 66.4 -50.55 L65.1 -53.5 Q64.55 -54.65 62.9 -59.35 61.55 -63.1 60.3 -64.95 L57.7 -67.7 54.45 -70.0 50.05 -72.0 Q46.75 -73.45 45.85 -74.2 45.95 -74.65 47.05 -75.3 L47.55 -75.35 49.25 -74.7 51.95 -73.6 53.2 -73.2 53.2 -72.95 53.95 -72.95 54.75 -72.75 59.45 -71.75 Q61.55 -71.4 62.95 -69.3 64.2 -67.45 65.35 -66.8 L69.1 -60.75 Q72.3 -55.55 74.85 -52.35 L78.2 -48.25 80.2 -46.25 80.2 -38.45 M29.7 -102.6 L29.8 -102.6 Q31.7 -98.5 32.2 -92.35 L32.5 -89.0 Q32.65 -87.7 32.95 -87.1 L33.35 -85.75 31.8 -88.85 Q30.8 -91.0 30.45 -92.35 L29.1 -97.85 Q29.5 -99.7 29.7 -102.6 M83.95 -110.35 Q84.1 -110.85 84.7 -111.1 L84.7 -109.1 84.25 -106.3 83.45 -103.6 80.85 -98.2 80.95 -97.8 Q80.35 -96.6 80.05 -94.85 L79.45 -90.25 79.15 -88.8 Q78.45 -88.55 77.85 -87.25 L76.7 -84.45 73.7 -79.35 70.8 -74.4 68.2 -69.6 66.1 -72.45 Q63.9 -74.8 61.6 -74.85 L61.55 -74.85 Q59.2 -74.85 58.1 -74.25 L57.65 -73.9 57.15 -73.35 Q56.0 -73.65 54.0 -74.25 L54.0 -75.1 54.25 -81.25 54.25 -81.7 54.6 -90.2 56.3 -88.95 58.45 -87.6 Q60.55 -86.75 60.7 -86.05 L60.45 -84.35 60.3 -80.35 Q60.55 -76.85 62.7 -76.85 65.9 -76.85 67.5 -79.55 68.7 -81.6 69.85 -87.25 L67.2 -88.2 Q65.9 -88.6 65.35 -89.35 68.15 -88.75 69.5 -91.35 70.35 -92.9 70.35 -94.55 70.35 -96.85 67.95 -96.85 L64.35 -96.45 61.05 -95.6 61.05 -95.75 Q63.1 -98.1 64.35 -102.75 65.45 -106.85 65.45 -110.5 L64.85 -118.35 64.85 -118.75 64.95 -118.75 Q66.55 -113.8 66.7 -112.2 L67.45 -112.1 69.7 -116.45 70.55 -115.4 Q71.25 -114.6 71.7 -114.6 L74.05 -116.25 Q74.65 -116.25 73.9 -115.75 L77.95 -115.6 77.7 -108.7 Q77.65 -106.25 77.75 -105.05 77.95 -103.0 78.7 -101.6 L81.3 -103.75 Q83.1 -105.45 83.3 -106.35 L83.7 -109.0 83.95 -110.35 M32.45 -17.9 L33.3 -19.6 Q34.35 -21.6 34.8 -24.35 L35.8 -26.9 36.7 -29.2 Q37.0 -31.55 38.6 -34.75 40.5 -38.5 42.25 -38.5 44.25 -38.5 45.2 -37.65 L46.55 -36.85 47.1 -37.05 47.2 -37.35 44.9 -40.65 Q43.2 -42.85 43.2 -44.05 43.2 -46.0 45.6 -46.25 47.95 -46.55 47.95 -46.95 L46.85 -49.55 Q45.7 -52.0 45.7 -54.05 45.7 -57.05 47.45 -58.4 49.2 -59.75 49.2 -61.65 49.2 -63.45 48.0 -65.35 L45.85 -69.1 48.2 -69.35 Q51.05 -69.35 54.2 -64.3 56.25 -60.95 56.95 -58.6 L55.3 -57.55 54.4 -56.9 53.85 -56.75 53.85 -57.85 Q54.15 -59.45 54.05 -62.0 L53.35 -61.95 Q52.95 -60.25 52.95 -57.1 L52.85 -57.1 51.95 -59.6 50.7 -62.1 50.35 -62.0 50.2 -61.45 Q50.2 -60.4 51.2 -57.9 L52.45 -54.35 53.0 -54.45 Q52.3 -47.2 51.2 -43.35 50.65 -41.0 48.7 -36.6 L47.4 -33.65 47.3 -33.7 Q46.75 -33.75 45.8 -31.1 L45.0 -29.7 44.2 -28.35 Q43.75 -27.05 41.3 -22.7 39.4 -19.2 35.95 -11.25 L32.45 -3.5 32.45 -17.9 M50.3 -10.7 L50.2 -10.75 Q51.9 -10.9 53.15 -8.9 54.1 -7.3 54.1 -6.2 54.1 -5.35 53.55 -4.65 52.85 -3.8 51.55 -3.45 L51.6 -3.6 Q52.2 -4.9 52.2 -6.1 L52.05 -8.35 Q51.65 -9.85 50.3 -10.7 M80.2 15.9 L80.2 54.3 66.7 54.3 66.6 54.05 66.45 53.9 69.45 52.2 Q71.55 50.9 71.55 49.7 71.55 49.1 69.15 48.05 66.6 47.0 66.3 46.25 66.65 45.85 68.6 45.25 L70.95 44.5 Q72.6 43.75 72.6 42.05 L70.25 37.7 Q67.85 33.5 67.85 32.4 67.85 31.8 71.05 30.9 74.2 30.0 74.2 28.4 73.45 24.55 73.45 23.5 73.45 21.3 73.7 20.65 74.35 19.05 76.95 18.15 78.7 17.5 80.2 15.9 M50.3 39.3 L50.2 39.25 Q51.9 39.1 53.15 41.1 54.1 42.7 54.1 43.8 54.1 44.65 53.55 45.35 52.85 46.2 51.55 46.55 L51.6 46.4 Q52.2 45.1 52.2 43.9 L52.05 41.65 Q51.65 40.15 50.3 39.3 M50.3 14.3 L50.2 14.25 Q51.9 14.1 53.15 16.1 54.1 17.7 54.1 18.8 54.1 19.65 53.55 20.35 52.85 21.2 51.55 21.55 L51.6 21.4 Q52.2 20.1 52.2 18.9 L52.05 16.65 Q51.65 15.15 50.3 14.3" fill="url(#gradient1)" fill-rule="evenodd" stroke="none"/>
    <path d="M32.45 -17.9 L32.45 -3.5 Q28.8 4.05 26.2 11.4 24.3 16.8 20.55 22.65 17.4 27.75 13.55 32.2 L13.5 32.15 13.4 32.35 12.0 33.9 11.95 33.95 12.2 33.05 14.35 28.15 16.9 18.65 19.5 9.1 Q21.2 3.75 23.3 -0.5 L26.05 -5.3 28.75 -10.1 30.95 -14.9 32.45 -17.9 M3.05 -80.15 Q0.9 -79.35 -3.85 -75.35 -9.35 -70.55 -11.15 -68.35 L-22.05 -54.35 Q-24.15 -51.4 -26.3 -47.2 L-29.85 -40.25 Q-31.0 -38.2 -31.7 -33.55 -32.4 -29.5 -32.4 -26.2 L-32.45 -23.2 Q-32.45 -22.35 -31.65 -19.25 L-30.8 -15.6 -30.15 -14.1 Q-31.15 -14.25 -31.4 -15.15 L-31.4 -15.2 Q-32.45 -16.75 -32.55 -17.65 L-32.95 -19.3 -32.7 -19.35 Q-32.6 -20.0 -33.0 -26.8 -33.25 -31.4 -32.3 -34.45 -29.4 -44.05 -26.7 -50.05 L-25.9 -51.65 -26.7 -49.15 -25.9 -50.9 -24.05 -54.45 -18.85 -61.75 -16.3 -65.35 -15.25 -66.9 -16.45 -65.75 -16.3 -66.0 Q-12.45 -71.15 -7.1 -75.6 -1.3 -80.35 1.95 -80.65 L3.05 -80.15 M3.4 -10.4 L3.2 -10.25 -0.65 -6.25 Q-2.45 -4.25 -4.35 -3.0 -6.5 -4.4 -8.35 -5.15 -9.85 -5.8 -12.5 -6.3 L-12.45 -8.8 -12.6 -14.85 -9.45 -14.85 Q-4.45 -13.8 0.25 -11.85 L3.4 -10.4" fill="url(#gradient2)" fill-rule="evenodd" stroke="none"/>
    <path d="M80.2 -38.45 L80.2 -46.25 82.0 -44.95 82.85 -44.35 Q86.1 -42.15 87.95 -40.1 L89.65 -37.85 90.55 -36.75 90.4 -36.7 90.25 -36.5 90.2 -36.1 91.75 -34.4 93.6 -32.45 Q94.15 -31.95 95.95 -30.8 97.5 -29.9 98.0 -29.1 100.35 -25.9 106.2 -21.7 L114.75 -14.6 118.7 -10.85 Q119.3 -10.2 120.8 -9.05 L123.1 -7.1 Q126.05 -4.0 133.0 -0.1 L143.0 5.55 Q147.05 8.2 151.35 12.65 L154.95 16.65 156.55 18.4 156.5 18.6 161.2 24.55 163.75 28.4 163.5 28.9 164.25 30.25 164.55 29.85 Q165.85 32.55 165.85 34.4 165.85 38.65 161.5 44.6 157.95 49.35 153.15 51.5 L150.95 52.25 Q149.95 52.9 148.8 52.9 147.9 52.9 147.7 52.5 L144.8 53.05 144.25 53.15 143.85 53.1 143.0 51.25 Q142.5 50.4 142.5 49.15 L142.5 47.55 Q142.8 46.05 144.15 46.05 L149.8 46.1 Q150.15 46.1 150.15 45.35 L147.45 41.05 144.25 35.65 142.75 30.75 Q141.7 27.75 140.45 25.9 138.15 22.45 136.85 20.9 134.5 17.95 132.05 16.15 129.4 14.2 126.15 10.9 L122.1 6.9 118.6 3.15 Q109.3 -5.7 105.95 -9.25 L93.95 -20.75 Q86.7 -27.7 84.05 -32.1 L82.0 -35.75 80.75 -37.75 80.2 -38.45 M164.35 26.0 L164.15 25.65 160.5 21.05 Q158.8 19.0 157.65 18.3 156.1 15.45 152.55 11.95 L150.5 10.0 150.85 10.0 158.95 8.4 159.4 8.3 161.6 13.5 Q164.45 20.5 164.45 24.55 L164.35 26.0 M127.5 -63.1 L122.4 -66.9 Q119.2 -69.1 116.05 -70.2 112.05 -71.6 107.05 -72.6 L97.6 -72.1 95.15 -71.55 Q98.6 -75.05 104.0 -78.9 L104.15 -78.8 Q105.05 -80.05 108.0 -81.9 L108.15 -81.95 107.9 -82.0 110.0 -83.1 Q113.35 -83.1 119.9 -78.9 126.0 -74.95 130.6 -70.2 140.2 -60.3 143.25 -55.2 146.75 -49.5 150.85 -40.2 152.2 -37.25 152.5 -32.65 152.95 -25.85 153.1 -25.2 L153.4 -25.2 153.2 -23.5 153.1 -22.85 Q153.05 -21.75 152.1 -20.55 L151.7 -20.95 151.15 -21.25 143.8 -27.55 Q138.95 -31.8 137.5 -34.6 L135.65 -38.25 Q134.65 -40.4 134.3 -41.75 133.5 -45.1 133.4 -48.85 L133.35 -52.6 Q133.15 -54.7 132.4 -56.0 L130.5 -59.7 Q129.3 -61.8 127.5 -63.1 M161.1 37.65 L161.15 37.35 161.0 37.5 161.1 37.65 M80.2 15.9 L82.0 14.0 83.15 12.55 Q85.7 9.3 86.95 6.4 87.95 3.8 88.45 3.15 L90.45 0.65 Q97.2 13.4 104.3 23.7 104.95 26.45 109.0 30.55 L108.9 30.9 109.2 32.3 109.5 33.7 Q109.5 37.85 107.9 44.65 106.25 51.45 106.25 53.1 L106.0 54.0 105.9 54.4 82.0 54.3 80.2 54.3 80.2 15.9" fill="url(#gradient3)" fill-rule="evenodd" stroke="none"/>
    <path d="M81.5 -112.1 Q81.5 -111.1 80.75 -109.85 79.7 -108.05 77.75 -108.05 L74.15 -108.35 69.95 -109.05 68.8 -104.55 68.0 -100.35 70.1 -97.7 Q72.2 -95.15 72.2 -92.85 72.2 -86.85 69.7 -82.05 66.8 -76.6 62.2 -76.6 60.85 -76.6 59.6 -78.3 L58.0 -80.85 57.75 -75.4 Q57.35 -72.35 56.0 -72.35 L54.75 -72.5 53.75 -72.85 53.45 -82.9 53.2 -89.6 Q53.2 -96.85 55.95 -96.85 56.6 -96.85 57.3 -96.3 L58.2 -95.55 Q58.2 -97.15 59.7 -99.3 61.4 -101.75 61.75 -103.05 L62.6 -107.1 63.0 -110.5 62.35 -112.2 Q61.7 -113.45 61.7 -113.75 61.7 -115.25 63.25 -119.2 64.7 -123.05 65.7 -124.35 66.7 -125.75 68.65 -126.15 70.95 -126.6 72.0 -124.55 72.6 -122.5 71.7 -119.35 77.5 -120.0 79.65 -118.85 80.95 -118.15 80.95 -116.6 L80.7 -115.45 Q80.5 -114.8 80.75 -114.35 L81.25 -113.4 81.5 -112.1 M34.2 -115.0 Q34.2 -112.25 35.35 -101.45 L36.5 -90.75 36.2 -88.1 Q35.75 -86.05 35.0 -86.05 32.65 -86.05 31.85 -90.95 L31.2 -98.1 30.65 -104.95 30.45 -110.0 Q30.45 -111.7 31.5 -114.35 32.55 -117.05 33.45 -117.6 34.2 -116.55 34.2 -115.0 M62.95 -82.55 L63.7 -82.55 64.0 -84.3 63.35 -84.4 62.75 -84.35 62.95 -82.55 M49.75 -73.45 L56.95 -71.55 Q59.85 -70.35 62.25 -68.05 64.45 -66.0 65.45 -63.85 66.75 -61.1 67.65 -55.55 69.05 -50.75 73.7 -48.1 83.95 -42.2 88.45 -32.55 L91.75 -24.7 93.0 -22.05 93.5 -21.55 100.8 -14.05 108.7 -5.35 Q120.2 8.2 122.8 11.9 L122.95 12.15 125.75 14.4 Q131.3 18.75 137.7 29.45 144.2 40.35 144.2 45.8 144.2 54.45 135.7 54.45 131.55 54.45 130.25 51.1 L129.75 47.65 Q129.75 45.15 131.0 43.7 132.8 41.65 136.7 42.4 134.2 35.25 128.9 28.0 L128.75 27.75 128.7 27.95 128.4 28.2 127.45 28.4 119.8 17.7 118.35 15.75 115.75 13.15 Q109.0 6.55 100.6 -2.85 92.5 -11.85 89.7 -15.8 87.85 -18.35 85.85 -22.4 L84.55 -25.05 77.75 -33.3 79.2 -33.85 Q74.75 -39.5 67.75 -44.6 64.35 -47.1 63.0 -51.4 L61.25 -58.9 Q60.05 -63.3 57.15 -65.9 54.35 -68.35 49.4 -69.95 50.05 -68.9 50.5 -67.35 L51.2 -62.6 51.5 -58.8 Q51.5 -48.15 44.5 -35.85 L37.9 -24.75 Q33.8 -17.65 31.2 -11.55 27.05 -1.9 23.25 12.15 L21.75 17.8 19.75 24.15 Q18.45 27.6 16.2 31.15 13.35 35.65 11.45 35.65 8.5 35.65 7.5 34.65 7.0 34.15 7.0 33.25 7.0 32.45 8.15 32.1 9.75 31.6 10.2 31.15 10.9 30.4 11.45 28.15 11.75 26.95 12.8 25.15 L14.25 22.45 16.0 16.55 Q16.95 12.45 17.45 10.9 L20.55 -0.5 Q22.5 -7.7 24.75 -12.35 31.85 -27.05 36.7 -35.6 L40.1 -41.5 Q42.25 -45.4 42.75 -47.3 45.25 -55.85 45.25 -58.5 45.25 -60.3 44.1 -64.45 L42.95 -68.6 Q42.95 -71.15 45.2 -71.7 L45.2 -71.75 Q45.2 -74.2 49.75 -73.45 M0.7 -16.65 Q-0.6 -10.2 -1.25 -7.55 -1.65 -5.9 -2.1 2.3 -3.2 9.7 -7.05 9.7 -9.25 9.7 -10.05 8.2 -10.55 7.25 -10.55 5.25 -10.55 0.15 -9.8 -4.5 L-7.8 -15.35 Q-7.8 -20.95 -7.25 -25.55 -6.7 -30.95 -2.2 -30.25 -0.45 -30.0 0.85 -28.7 2.2 -27.3 2.2 -25.5 2.2 -24.25 0.7 -16.65 M96.6 -79.75 Q108.0 -81.25 117.25 -73.6 126.25 -66.5 129.2 -56.05 129.65 -54.35 130.2 -47.3 130.65 -41.5 132.25 -38.35 134.1 -34.7 139.15 -29.0 142.45 -25.3 142.45 -21.1 142.45 -15.15 137.7 -14.05 L136.8 -15.7 Q136.05 -17.1 135.95 -17.8 L135.45 -19.65 134.95 -21.55 Q134.75 -22.65 132.05 -25.15 129.0 -28.0 128.45 -29.05 123.3 -37.95 122.5 -44.05 L121.75 -51.55 Q121.1 -56.3 119.2 -59.05 116.95 -62.4 113.5 -65.95 107.35 -72.3 102.95 -72.3 L98.75 -72.0 92.95 -71.35 Q92.1 -71.2 90.95 -70.25 89.85 -69.35 89.45 -69.35 87.35 -69.35 86.45 -71.1 L86.0 -72.6 Q86.0 -75.1 89.0 -77.1 92.0 -79.15 96.6 -79.75 M89.35 24.2 L89.7 26.45 89.9 31.05 Q89.75 33.75 88.0 35.45 85.25 38.1 81.65 40.05 80.2 40.85 80.2 43.4 80.2 44.25 80.95 48.05 81.7 51.85 81.7 53.0 81.7 57.75 80.7 59.7 78.0 64.95 68.7 64.95 66.25 64.95 65.25 63.2 L64.75 61.4 65.05 56.45 65.7 49.4 Q65.95 47.1 65.65 42.4 L65.25 37.3 Q65.25 35.7 66.5 34.0 67.35 32.85 66.25 29.9 67.95 24.5 68.95 22.7 73.35 13.45 74.35 11.85 75.1 10.7 76.3 10.45 L80.25 10.2 Q80.95 10.2 84.05 4.8 87.35 -0.9 88.7 -1.55 91.9 -3.15 96.95 2.65 L99.05 6.0 99.2 9.0 Q99.2 11.85 98.6 13.45 97.6 15.95 94.7 17.95 L91.5 19.15 Q88.95 20.25 89.0 21.95 L89.35 24.2" fill="#000000" fill-opacity="0.101960786" fill-rule="evenodd" stroke="none"/>
    <path d="M19.65 54.6 L39.45 54.45 66.5 54.45 65.35 55.45 Q63.7 56.65 63.7 57.4 63.7 58.05 64.8 59.5 65.9 60.95 66.75 61.45 65.65 63.35 64.1 64.3 63.0 64.95 63.0 65.75 63.0 68.15 66.75 68.9 65.55 69.6 66.35 71.75 L67.45 74.7 Q67.3 76.65 67.7 80.7 L67.4 82.8 Q67.1 84.25 67.25 84.9 L63.55 87.7 Q62.45 88.35 62.45 89.3 62.45 90.55 62.8 91.05 63.5 92.05 66.0 92.95 L65.95 94.7 Q66.1 96.15 66.8 96.45 67.45 96.75 67.45 96.95 67.45 97.6 66.95 98.3 66.45 99.05 66.45 99.65 L66.45 99.95 Q66.5 101.05 66.95 101.65 L65.7 103.15 Q63.45 105.2 59.35 105.2 57.3 105.2 55.5 104.1 54.05 102.95 53.75 102.95 53.4 102.95 51.1 104.1 L48.25 105.45 45.7 105.2 Q45.4 105.2 44.9 105.7 44.45 106.15 43.75 106.15 L41.7 105.7 39.6 105.2 Q39.0 105.2 36.9 106.45 L34.75 107.65 Q31.9 107.65 30.8 105.85 30.2 104.9 30.2 103.7 L27.4 103.3 25.7 102.9 Q24.95 102.9 23.0 105.8 21.0 108.7 20.25 108.7 16.55 108.7 15.75 106.1 L15.7 103.4 16.2 95.6 16.7 96.4 17.7 98.2 17.1 100.25 Q16.45 101.7 16.45 102.3 L16.65 103.25 17.45 103.4 Q18.35 103.0 19.3 100.85 20.2 98.9 20.2 98.0 L19.35 96.4 Q18.45 94.85 18.45 94.45 18.45 93.85 19.1 93.25 19.7 92.65 19.7 92.0 L19.5 90.65 19.25 89.65 19.5 88.0 19.75 86.65 Q19.65 84.25 20.3 83.15 20.95 82.0 20.95 80.75 L20.35 76.6 19.75 72.4 Q19.75 71.3 21.35 68.3 22.95 65.3 22.95 63.4 22.95 62.75 22.4 62.35 L21.45 61.65 22.15 61.4 Q22.45 61.2 22.45 60.4 22.45 59.65 22.85 59.3 L23.25 58.9 Q23.2 58.2 20.95 57.9 L21.9 57.8 Q22.2 57.7 22.2 56.9 22.2 55.6 20.2 54.8 L19.65 54.6 M124.8 54.5 L131.5 54.5 131.45 55.45 Q131.45 57.8 134.7 58.45 133.25 62.3 133.25 65.2 133.25 66.0 133.8 66.85 L134.7 68.2 Q131.95 68.85 131.95 71.25 131.95 71.9 132.5 72.5 133.0 73.1 133.0 73.7 L131.4 75.75 Q129.75 77.55 129.75 78.75 L130.0 80.4 130.25 81.65 Q130.15 84.0 131.3 84.45 L132.45 84.95 132.1 86.25 131.75 86.9 Q131.75 87.2 132.25 87.9 132.75 88.55 132.75 89.25 132.75 89.9 132.25 90.5 131.75 91.1 131.75 91.7 131.75 92.35 132.35 93.1 132.95 93.9 132.95 94.5 L132.9 95.9 Q132.85 96.5 132.95 96.95 L133.25 97.55 133.7 98.15 133.95 98.5 128.4 98.8 122.45 99.2 121.75 99.7 121.2 99.95 119.55 100.95 118.5 101.9 100.45 102.9 96.2 102.65 94.2 102.55 Q95.25 101.5 95.25 100.4 95.25 98.05 93.45 97.65 96.8 97.0 98.0 95.7 98.75 94.9 98.75 93.45 L98.75 93.4 104.4 93.15 108.7 92.9 109.0 92.25 109.25 91.0 108.0 89.15 Q106.75 87.6 106.75 87.2 L106.95 86.15 108.25 84.95 109.65 83.75 110.0 83.15 114.95 79.4 Q115.25 77.4 116.45 75.4 117.45 73.65 117.45 71.9 117.45 69.9 120.1 66.85 122.7 63.85 122.7 63.4 122.7 62.8 122.2 62.4 121.7 62.05 121.7 61.4 L122.1 59.15 122.45 56.9 Q122.45 55.35 124.55 54.55 L124.8 54.5 M16.4 92.9 L16.5 90.85 16.7 91.95 16.4 92.9 M16.45 85.7 L15.95 84.8 15.35 83.5 15.35 83.45 16.15 84.9 16.45 85.7 M17.15 55.45 L17.25 55.35 17.7 55.4 17.15 55.45 M-26.9 98.45 L-27.3 98.45 Q-30.7 98.45 -31.8 97.2 L-32.25 95.9 -31.75 93.85 -31.0 91.65 -30.55 90.15 Q-29.9 89.0 -27.8 87.7 L-31.95 84.0 Q-35.3 80.55 -35.3 78.75 -35.3 76.15 -29.5 75.2 L-29.3 74.65 -35.65 75.05 Q-37.55 74.7 -37.55 72.9 -37.55 71.05 -35.2 70.3 L-28.8 69.15 Q-28.8 67.0 -27.3 66.2 L-25.85 65.55 Q-24.8 64.85 -24.8 63.75 -24.8 63.15 -25.25 62.85 -25.75 62.55 -25.75 61.9 -25.75 59.9 -23.75 58.15 L-21.75 56.2 Q-21.75 55.5 -22.25 55.15 L-22.35 55.1 -11.75 55.1 -7.75 55.65 Q-2.95 56.2 -3.1 57.7 -3.2 58.55 -4.3 60.2 L-3.6 60.65 Q-2.9 61.25 -3.05 63.2 -3.15 64.3 -2.45 65.0 L-1.5 65.9 -1.25 67.05 -0.75 68.45 Q0.95 70.6 0.95 70.9 0.95 71.6 0.55 72.45 L-0.5 73.7 1.2 74.85 Q2.65 75.95 2.75 76.7 L3.3 77.8 3.75 79.3 Q3.75 81.25 1.75 81.85 L1.45 82.2 2.75 83.55 3.45 84.75 Q3.45 85.35 2.5 86.6 2.95 86.95 2.95 87.65 L2.65 88.85 1.95 89.65 Q2.8 89.9 3.8 90.65 5.4 91.9 5.5 93.4 8.65 92.0 11.45 96.15 13.75 99.55 13.75 102.05 13.75 103.3 12.5 104.4 11.1 105.65 8.95 105.65 7.85 105.65 7.05 104.65 L6.2 103.45 Q5.35 102.75 3.7 102.45 L1.7 101.9 Q1.0 101.35 0.75 100.15 0.65 99.6 -2.0 99.15 L-3.4 98.9 Q-5.3 99.8 -14.05 100.7 L-16.0 100.35 -19.75 100.2 -20.0 98.95 -17.3 98.45 Q-16.1 98.25 -15.5 97.65 L-15.25 97.2 -21.95 98.0 -22.35 98.05 -22.2 97.85 -22.05 97.55 -22.0 97.3 -22.0 97.2 Q-22.0 96.45 -22.5 96.05 L-23.05 95.7 Q-21.5 95.4 -21.75 94.0 L-21.85 93.1 -22.0 92.95 -25.05 93.2 -26.0 94.15 -25.05 94.7 Q-25.95 95.35 -27.1 95.8 -27.55 95.95 -27.55 96.65 -27.55 97.45 -27.0 97.75 L-26.3 97.95 -26.9 98.45 M53.5 92.15 L50.8 91.6 50.2 92.4 53.25 92.9 53.7 92.55 53.6 91.9 53.5 92.15 M53.5 74.2 L51.6 73.9 50.45 73.95 50.1 74.6 Q49.85 74.95 52.6 74.95 L53.45 74.9 53.5 74.2 M55.5 60.2 Q53.0 58.05 51.3 58.45 49.75 58.8 49.75 60.9 L49.85 61.7 49.95 61.9 53.95 62.4 Q54.5 62.4 54.95 61.45 L55.5 60.2 M-3.2 76.9 L-6.95 75.75 -11.05 75.65 -11.15 75.75 -11.3 75.95 -10.55 76.05 -7.5 76.7 Q-10.2 76.95 -11.0 77.95 -11.7 78.95 -11.8 79.9 L-11.8 79.95 Q-12.05 81.4 -12.85 82.1 -13.55 82.7 -13.55 83.5 -13.55 84.75 -13.3 84.2 L-12.95 84.35 -12.1 84.45 -11.9 84.45 -7.75 85.15 Q-6.9 85.3 -5.55 86.65 -3.05 86.65 -2.05 85.65 -1.7 85.25 -1.5 84.7 L-1.25 83.65 -1.25 83.4 -1.25 82.9 Q-1.25 78.6 -2.8 77.2 L-3.2 76.9" fill="#000000" fill-rule="evenodd" stroke="none"/>
    <path d="M156.2 54.5 Q195.85 54.55 204.85 54.7 L237.45 54.45 404.9 54.55 404.9 122.25 403.1 128.7 Q401.8 132.95 399.0 136.75 396.25 140.35 393.75 141.45 389.0 143.45 383.6 144.35 369.7 146.65 341.95 146.65 308.3 146.65 261.3 143.2 L181.75 136.2 152.45 133.3 134.95 131.65 130.65 131.25 Q130.1 134.05 128.5 138.7 126.3 145.05 125.0 146.95 L122.0 151.9 Q120.1 154.95 118.0 156.8 112.05 161.95 99.1 161.95 91.55 161.95 46.25 156.95 L-8.05 150.4 Q-30.85 146.9 -80.1 147.05 -135.9 147.15 -156.55 145.4 -175.45 143.8 -196.8 139.45 -216.35 136.25 -227.55 133.35 -237.55 130.8 -246.05 127.05 L-246.05 55.05 -64.05 55.15 -7.8 55.05 -7.3 55.05 -1.2 54.9 15.25 54.65 Q15.8 55.1 17.25 55.35 L17.15 55.45 Q13.8 55.55 13.5 56.15 13.5 58.1 14.65 59.55 L15.75 61.15 15.45 62.8 14.95 64.4 14.35 66.1 Q14.0 67.1 14.0 67.9 14.0 69.15 14.45 69.65 14.65 70.6 15.3 71.05 L15.95 71.4 13.95 75.5 Q13.95 76.15 14.5 76.6 15.0 77.1 15.0 77.7 15.0 78.35 14.5 79.0 13.95 79.7 13.95 80.3 13.95 81.25 15.15 83.15 L15.35 83.5 15.95 84.8 16.45 85.7 16.5 85.85 16.5 85.95 16.3 87.6 16.0 88.95 Q16.0 89.55 16.35 90.45 L16.5 90.85 16.4 92.9 16.2 93.1 Q15.7 93.65 15.7 94.25 15.7 94.7 16.2 95.6 L15.7 103.4 15.75 106.1 Q16.55 108.7 20.25 108.7 21.0 108.7 23.0 105.8 24.95 102.9 25.7 102.9 L27.4 103.3 30.2 103.7 Q30.2 104.9 30.8 105.85 31.9 107.65 34.75 107.65 L36.9 106.45 Q39.0 105.2 39.6 105.2 L41.7 105.7 43.75 106.15 Q44.45 106.15 44.9 105.7 45.4 105.2 45.7 105.2 L48.25 105.45 51.1 104.1 Q53.4 102.95 53.75 102.95 54.05 102.95 55.5 104.1 57.3 105.2 59.35 105.2 63.45 105.2 65.7 103.15 L66.95 101.65 67.5 102.2 74.1 102.8 80.7 102.65 80.45 102.95 79.6 103.7 Q79.25 104.05 79.25 104.8 L79.45 105.65 Q79.95 106.45 81.5 106.45 87.0 106.45 91.25 104.4 L94.2 102.55 96.2 102.65 100.45 102.9 118.5 101.9 119.55 100.95 121.2 99.95 121.75 99.7 122.45 99.2 128.4 98.8 133.95 98.5 Q135.15 100.0 136.65 98.65 138.25 97.25 139.45 99.65 140.45 101.65 145.35 102.8 L150.95 103.65 Q151.75 103.65 152.45 103.0 153.2 102.25 153.2 101.25 152.7 99.25 151.5 98.9 L154.25 95.45 156.75 93.55 Q158.0 92.65 158.0 91.9 158.0 89.65 156.85 87.0 155.7 84.3 155.7 83.25 L156.6 81.85 Q157.45 80.65 157.45 79.9 L156.6 78.25 Q155.7 76.7 155.7 76.4 155.7 76.0 157.75 74.5 159.75 73.0 159.75 71.65 L159.45 69.25 159.0 66.65 Q158.7 64.4 156.55 62.75 L154.5 60.95 154.4 59.25 Q154.25 58.35 153.7 57.65 L155.45 55.65 156.2 54.5 M99.4 54.45 L124.8 54.5 124.55 54.55 Q122.45 55.35 122.45 56.9 L122.1 59.15 121.7 61.4 Q121.7 62.05 122.2 62.4 122.7 62.8 122.7 63.4 122.7 63.85 120.1 66.85 117.45 69.9 117.45 71.9 117.45 73.65 116.45 75.4 115.25 77.4 114.95 79.4 L110.0 83.15 109.65 83.75 108.25 84.95 106.95 86.15 106.75 87.2 Q106.75 87.6 108.0 89.15 L109.25 91.0 109.0 92.25 108.7 92.9 104.4 93.15 98.75 93.4 98.7 92.4 98.45 91.95 Q101.25 91.8 102.45 90.4 103.25 89.5 103.25 88.25 102.8 83.3 101.95 82.45 105.25 81.85 105.25 79.3 L105.1 77.4 Q105.0 76.25 105.2 75.65 105.8 73.85 106.9 74.3 108.2 74.8 108.95 73.7 L109.5 72.95 109.7 71.8 109.25 70.15 108.75 68.9 Q109.0 67.5 108.6 67.0 107.9 66.25 103.45 65.9 L103.7 65.65 104.8 64.55 105.0 63.3 Q105.0 62.7 104.5 62.25 104.0 61.8 104.0 61.15 104.0 60.55 104.5 59.25 L105.0 57.3 Q105.0 55.6 102.25 55.1 L99.4 54.45 M-22.35 98.05 L-21.95 98.0 -15.25 97.2 -15.5 97.65 Q-16.1 98.25 -17.3 98.45 L-20.0 98.95 -19.75 100.2 -16.0 100.35 -14.05 100.7 Q-5.3 99.8 -3.4 98.9 L-2.0 99.15 Q0.65 99.6 0.75 100.15 1.0 101.35 1.7 101.9 L3.7 102.45 Q5.35 102.75 6.2 103.45 L7.05 104.65 Q7.85 105.65 8.95 105.65 11.1 105.65 12.5 104.4 13.75 103.3 13.75 102.05 13.75 99.55 11.45 96.15 8.65 92.0 5.5 93.4 5.4 91.9 3.8 90.65 2.8 89.9 1.95 89.65 L2.65 88.85 2.95 87.65 Q2.95 86.95 2.5 86.6 3.45 85.35 3.45 84.75 L2.75 83.55 1.45 82.2 1.75 81.85 Q3.75 81.25 3.75 79.3 L3.3 77.8 2.75 76.7 Q2.65 75.95 1.2 74.85 L-0.5 73.7 0.55 72.45 Q0.95 71.6 0.95 70.9 0.95 70.6 -0.75 68.45 L-1.25 67.05 -1.5 65.9 -2.45 65.0 Q-3.15 64.3 -3.05 63.2 -2.9 61.25 -3.6 60.65 L-4.3 60.2 Q-3.2 58.55 -3.1 57.7 -2.95 56.2 -7.75 55.65 L-11.75 55.1 -22.35 55.1 -22.25 55.15 Q-21.75 55.5 -21.75 56.2 L-23.75 58.15 Q-25.75 59.9 -25.75 61.9 -25.75 62.55 -25.25 62.85 -24.8 63.15 -24.8 63.75 -24.8 64.85 -25.85 65.55 L-27.3 66.2 Q-28.8 67.0 -28.8 69.15 L-35.2 70.3 Q-37.55 71.05 -37.55 72.9 -37.55 74.7 -35.65 75.05 L-29.3 74.65 -29.5 75.2 Q-35.3 76.15 -35.3 78.75 -35.3 80.55 -31.95 84.0 L-27.8 87.7 Q-29.9 89.0 -30.55 90.15 L-31.0 91.65 -31.75 93.85 -32.25 95.9 -31.8 97.2 Q-30.7 98.45 -27.3 98.45 L-26.9 98.45 Q-28.3 99.7 -28.3 101.4 L-28.05 102.15 -27.05 102.15 Q-26.55 101.25 -24.1 99.55 L-22.35 98.05" fill="#1a1a1a" fill-rule="evenodd" stroke="none"/>
    <path d="M15.25 54.65 L19.65 54.6 20.2 54.8 Q22.2 55.6 22.2 56.9 22.2 57.7 21.9 57.8 L20.95 57.9 Q23.2 58.2 23.25 58.9 L22.85 59.3 Q22.45 59.65 22.45 60.4 22.45 61.2 22.15 61.4 L21.45 61.65 22.4 62.35 Q22.95 62.75 22.95 63.4 22.95 65.3 21.35 68.3 19.75 71.3 19.75 72.4 L20.35 76.6 20.95 80.75 Q20.95 82.0 20.3 83.15 19.65 84.25 19.75 86.65 L19.5 88.0 19.25 89.65 19.5 90.65 19.7 92.0 Q19.7 92.65 19.1 93.25 18.45 93.85 18.45 94.45 18.45 94.85 19.35 96.4 L20.2 98.0 Q20.2 98.9 19.3 100.85 18.35 103.0 17.45 103.4 L16.65 103.25 16.45 102.3 Q16.45 101.7 17.1 100.25 L17.7 98.2 16.7 96.4 16.2 95.6 Q15.7 94.7 15.7 94.25 15.7 93.65 16.2 93.1 L16.4 92.9 16.7 91.95 16.5 90.85 16.35 90.45 Q16.0 89.55 16.0 88.95 L16.3 87.6 16.5 85.95 16.5 85.85 16.45 85.7 16.15 84.9 15.35 83.45 15.35 83.5 15.15 83.15 Q13.95 81.25 13.95 80.3 13.95 79.7 14.5 79.0 15.0 78.35 15.0 77.7 15.0 77.1 14.5 76.6 13.95 76.15 13.95 75.5 L15.95 71.4 15.3 71.05 Q14.65 70.6 14.45 69.65 14.0 69.15 14.0 67.9 14.0 67.1 14.35 66.1 L14.95 64.4 15.45 62.8 15.75 61.15 14.65 59.55 Q13.5 58.1 13.5 56.15 13.8 55.55 17.15 55.45 L17.7 55.4 17.25 55.35 Q15.8 55.1 15.25 54.65 M66.5 54.45 L99.35 54.45 99.4 54.45 102.25 55.1 Q105.0 55.6 105.0 57.3 L104.5 59.25 Q104.0 60.55 104.0 61.15 104.0 61.8 104.5 62.25 105.0 62.7 105.0 63.3 L104.8 64.55 103.7 65.65 103.45 65.9 Q107.9 66.25 108.6 67.0 109.0 67.5 108.75 68.9 L109.25 70.15 109.7 71.8 109.5 72.95 108.95 73.7 Q108.2 74.8 106.9 74.3 105.8 73.85 105.2 75.65 105.0 76.25 105.1 77.4 L105.25 79.3 Q105.25 81.85 101.95 82.45 102.8 83.3 103.25 88.25 103.25 89.5 102.45 90.4 101.25 91.8 98.45 91.95 L98.7 92.4 98.75 93.4 98.75 93.45 Q98.75 94.9 98.0 95.7 96.8 97.0 93.45 97.65 95.25 98.05 95.25 100.4 95.25 101.5 94.2 102.55 L91.25 104.4 Q87.0 106.45 81.5 106.45 79.95 106.45 79.45 105.65 L79.25 104.8 Q79.25 104.05 79.6 103.7 L80.45 102.95 80.7 102.65 74.1 102.8 67.5 102.2 66.95 101.65 Q66.5 101.05 66.45 99.95 L66.45 99.65 Q66.45 99.05 66.95 98.3 67.45 97.6 67.45 96.95 67.45 96.75 66.8 96.45 66.1 96.15 65.95 94.7 L66.0 92.95 Q63.5 92.05 62.8 91.05 62.45 90.55 62.45 89.3 62.45 88.35 63.55 87.7 L67.25 84.9 Q67.1 84.25 67.4 82.8 L67.7 80.7 Q67.3 76.65 67.45 74.7 L66.35 71.75 Q65.55 69.6 66.75 68.9 63.0 68.15 63.0 65.75 63.0 64.95 64.1 64.3 65.65 63.35 66.75 61.45 65.9 60.95 64.8 59.5 63.7 58.05 63.7 57.4 63.7 56.65 65.35 55.45 L66.5 54.45 M131.5 54.5 L132.95 54.5 134.95 54.5 152.45 54.5 154.45 54.5 156.2 54.5 155.45 55.65 153.7 57.65 Q154.25 58.35 154.4 59.25 L154.5 60.95 156.55 62.75 Q158.7 64.4 159.0 66.65 L159.45 69.25 159.75 71.65 Q159.75 73.0 157.75 74.5 155.7 76.0 155.7 76.4 155.7 76.7 156.6 78.25 L157.45 79.9 Q157.45 80.65 156.6 81.85 L155.7 83.25 Q155.7 84.3 156.85 87.0 158.0 89.65 158.0 91.9 158.0 92.65 156.75 93.55 L154.25 95.45 151.5 98.9 Q152.7 99.25 153.2 101.25 153.2 102.25 152.45 103.0 151.75 103.65 150.95 103.65 L145.35 102.8 Q140.45 101.65 139.45 99.65 138.25 97.25 136.65 98.65 135.15 100.0 133.95 98.5 L133.7 98.15 133.25 97.55 132.95 96.95 Q132.85 96.5 132.9 95.9 L132.95 94.5 Q132.95 93.9 132.35 93.1 131.75 92.35 131.75 91.7 131.75 91.1 132.25 90.5 132.75 89.9 132.75 89.25 132.75 88.55 132.25 87.9 131.75 87.2 131.75 86.9 L132.1 86.25 132.45 84.95 131.3 84.45 Q130.15 84.0 130.25 81.65 L130.0 80.4 129.75 78.75 Q129.75 77.55 131.4 75.75 L133.0 73.7 Q133.0 73.1 132.5 72.5 131.95 71.9 131.95 71.25 131.95 68.85 134.7 68.2 L133.8 66.85 Q133.25 66.0 133.25 65.2 133.25 62.3 134.7 58.45 131.45 57.8 131.45 55.45 L131.5 54.5 M-22.35 98.05 L-24.1 99.55 Q-26.55 101.25 -27.05 102.15 L-28.05 102.15 -28.3 101.4 Q-28.3 99.7 -26.9 98.45 L-26.3 97.95 -27.0 97.75 Q-27.55 97.45 -27.55 96.65 -27.55 95.95 -27.1 95.8 -25.95 95.35 -25.05 94.7 L-26.0 94.15 -25.05 93.2 -22.0 92.95 -21.85 93.1 -21.75 94.0 Q-21.5 95.4 -23.05 95.7 L-22.5 96.05 Q-22.0 96.45 -22.0 97.2 L-22.0 97.3 -22.05 97.55 -22.2 97.85 -22.35 98.05 M55.5 60.2 L54.95 61.45 Q54.5 62.4 53.95 62.4 L49.95 61.9 49.85 61.7 49.75 60.9 Q49.75 58.8 51.3 58.45 53.0 58.05 55.5 60.2 M53.5 74.2 L53.45 74.9 52.6 74.95 Q49.85 74.95 50.1 74.6 L50.45 73.95 51.6 73.9 53.5 74.2 M53.5 92.15 L53.6 91.9 53.7 92.55 53.25 92.9 50.2 92.4 50.8 91.6 53.5 92.15 M-3.2 76.9 L-2.8 77.2 Q-1.25 78.6 -1.25 82.9 L-1.25 83.4 -1.25 83.65 -1.5 84.7 Q-1.7 85.25 -2.05 85.65 -3.05 86.65 -5.55 86.65 -6.9 85.3 -7.75 85.15 L-11.9 84.45 -12.1 84.45 -12.95 84.35 -13.3 84.2 Q-13.55 84.75 -13.55 83.5 -13.55 82.7 -12.85 82.1 -12.05 81.4 -11.8 79.95 L-11.8 79.9 Q-11.7 78.95 -11.0 77.95 -10.2 76.95 -7.5 76.7 L-10.55 76.05 -11.3 75.95 -11.15 75.75 -11.05 75.65 -6.95 75.75 -3.2 76.9" fill="url(#gradient4)" fill-rule="evenodd" stroke="none"/>
    <path d="M383.6 144.35 Q369.7 146.65 341.95 146.65 308.3 146.65 261.3 143.2 L181.75 136.2 152.45 133.3 134.95 131.65 130.65 131.25 Q130.1 134.05 128.5 138.7 126.3 145.05 125.0 146.95 L122.0 151.9 Q120.1 154.95 118.0 156.8 112.05 161.95 99.1 161.95 91.55 161.95 46.25 156.95 L-8.05 150.4 Q-30.85 146.9 -80.1 147.05 -135.9 147.15 -156.55 145.4 -175.45 143.8 -196.8 139.45 -216.35 136.25 -227.55 133.35 -237.55 130.8 -246.05 127.05 L-246.05 55.05 -64.05 55.15 -7.8 55.05 -7.3 55.05 -1.2 54.9 15.25 54.65 19.65 54.6 39.45 54.45 66.5 54.45 99.35 54.45 99.4 54.45 124.8 54.5 131.5 54.5 132.95 54.5 134.95 54.5 152.45 54.5 154.45 54.5 156.2 54.5 Q195.85 54.55 204.85 54.7 L237.45 54.45 404.9 54.55 404.9 122.25 403.1 128.7 Q401.8 132.95 399.0 136.75 396.25 140.35 393.75 141.45 389.0 143.45 383.6 144.35" fill="url(#gradient5)" fill-rule="evenodd" stroke="none"/>
  </g>
  <defs>
    <linearGradient gradientTransform="matrix(0.4358, 0.0, 0.0, 0.1996, 97.9, -63.65)" gradientUnits="userSpaceOnUse" id="gradient0" spreadMethod="pad" x1="-819.2" x2="819.2">
      <stop offset="0.0" stop-color="#1a1a1a"/>
      <stop offset="1.0" stop-color="#5e5e5e"/>
    </linearGradient>
    <linearGradient gradientTransform="matrix(-0.1115, -5.0E-4, 2.0E-4, -0.0328, 59.9, -95.1)" gradientUnits="userSpaceOnUse" id="gradient1" spreadMethod="pad" x1="-819.2" x2="819.2">
      <stop offset="0.0" stop-color="#dd9a00"/>
      <stop offset="1.0" stop-color="#aa3300"/>
    </linearGradient>
    <linearGradient gradientTransform="matrix(-0.126, -5.0E-4, 2.0E-4, -0.0328, 63.45, -95.1)" gradientUnits="userSpaceOnUse" id="gradient2" spreadMethod="pad" x1="-819.2" x2="819.2">
      <stop offset="0.0" stop-color="#dd9a00"/>
      <stop offset="1.0" stop-color="#aa3300"/>
    </linearGradient>
    <linearGradient gradientTransform="matrix(-0.1311, -5.0E-4, 2.0E-4, -0.0328, 56.35, -95.1)" gradientUnits="userSpaceOnUse" id="gradient3" spreadMethod="pad" x1="-819.2" x2="819.2">
      <stop offset="0.0" stop-color="#dd9a00"/>
      <stop offset="1.0" stop-color="#aa3300"/>
    </linearGradient>
    <linearGradient gradientTransform="matrix(-0.1115, -5.0E-4, 2.0E-4, -0.0328, 59.9, -95.1)" gradientUnits="userSpaceOnUse" id="gradient4" spreadMethod="pad" x1="-819.2" x2="819.2">
      <stop offset="0.0" stop-color="#dd9a00"/>
      <stop offset="1.0" stop-color="#aa3300"/>
    </linearGradient>
    <linearGradient gradientTransform="matrix(0.0, -0.0256, 0.0848, 0.0, 55.5, 75.85)" gradientUnits="userSpaceOnUse" id="gradient5" spreadMethod="pad" x1="-819.2" x2="819.2">
      <stop offset="0.0" stop-color="#1a1a1a"/>
      <stop offset="1.0" stop-color="#1a1a1a" stop-opacity="0.5019608"/>
    </linearGradient>
  </defs>
</svg>
