<?xml version="1.0" encoding="UTF-8" standalone="no"?>
<svg xmlns:xlink="http://www.w3.org/1999/xlink" height="132.05px" width="619.0px" xmlns="http://www.w3.org/2000/svg">
  <g transform="matrix(1.0, 0.0, 0.0, 1.0, 0.0, 0.0)">
    <path d="M619.0 6.25 Q618.5 6.8 616.65 7.35 L612.2 8.15 598.7 8.35 Q598.1 47.25 579.5 89.35 572.8 104.45 551.7 112.25 541.8 115.9 525.2 118.35 493.95 123.0 441.4 122.2 L400.8 121.45 Q378.4 121.2 364.0 122.05 L322.4 123.85 280.2 125.45 221.5 129.05 Q166.5 132.05 122.6 132.05 L83.35 130.25 51.0 128.2 31.75 126.75 18.2 125.35 Q7.85 124.25 6.15 123.35 1.6 120.95 0.4 112.5 0.0 109.6 0.0 100.25 0.0 88.75 3.15 75.3 8.5 52.55 19.85 52.55 24.65 52.55 27.1 59.8 28.35 63.5 28.6 67.35 L28.55 68.55 Q30.35 67.45 33.95 66.45 39.4 64.95 52.3 63.0 89.05 57.55 100.85 54.25 109.3 51.9 123.65 52.4 136.75 52.9 145.65 49.5 L160.55 45.45 Q162.95 44.55 171.75 41.75 L186.15 36.95 207.45 28.7 Q224.3 21.9 230.9 19.5 L237.9 17.15 Q243.85 15.15 244.6 15.15 248.0 14.85 248.8 14.35 249.75 13.7 251.65 13.4 L306.85 10.9 Q331.15 10.3 350.5 6.85 L362.45 4.6 372.1 3.7 372.3 3.95 372.5 4.55 Q376.55 4.25 385.95 4.2 L534.55 3.9 Q566.4 3.9 591.85 4.15 L594.3 4.2 594.25 0.3 Q597.1 -0.75 598.1 1.65 L598.65 4.25 616.7 4.55 617.65 5.3 619.0 6.25" fill="#000000" fill-rule="evenodd" stroke="none"/>
  </g>
</svg>
