<?xml version="1.0" encoding="UTF-8" standalone="no"?>
<svg xmlns:xlink="http://www.w3.org/1999/xlink" height="232.05px" width="206.15px" xmlns="http://www.w3.org/2000/svg">
  <g transform="matrix(1.0, 0.0, 0.0, 1.0, 0.0, 0.95)">
    <path d="M162.2 -0.15 L165.4 -0.95 169.95 -0.7 171.7 -0.55 174.6 0.8 176.2 1.7 177.75 2.35 Q179.65 2.85 181.05 3.5 183.8 4.7 185.65 6.55 L188.2 9.7 Q190.65 13.0 191.55 15.95 L193.3 21.2 193.4 22.6 193.3 22.6 193.3 22.7 193.4 23.85 193.6 24.15 193.55 24.8 193.65 26.0 194.05 28.55 195.0 30.95 Q195.55 32.15 195.55 33.5 L195.5 34.85 194.95 36.45 194.25 37.95 194.25 38.1 Q193.85 38.7 193.85 39.35 L193.75 39.4 193.75 41.1 193.75 42.7 193.9 43.9 Q193.9 45.15 194.05 46.25 L194.2 50.85 193.9 53.0 193.7 54.95 193.3 57.05 192.65 59.1 Q191.55 62.6 191.5 63.2 L190.4 67.45 Q190.05 68.5 189.7 71.55 L189.45 73.6 189.35 74.7 189.15 75.8 Q188.1 78.1 184.75 79.9 L178.75 82.9 179.45 83.25 Q180.3 81.75 183.05 83.55 L185.2 85.0 Q186.6 84.3 190.35 85.95 191.8 87.0 192.8 90.3 193.15 91.4 195.15 92.3 197.3 93.35 197.9 94.3 L198.55 96.75 198.85 99.0 198.85 99.3 Q200.7 102.0 200.7 102.6 200.7 104.65 197.45 107.9 L198.3 111.05 198.45 117.8 Q198.45 121.95 198.25 123.1 198.0 124.4 197.1 124.95 L195.0 125.95 194.65 135.75 Q194.15 144.7 193.1 147.95 L197.15 148.35 200.75 149.9 Q201.9 150.45 201.9 151.4 L201.8 152.15 201.75 152.8 Q203.55 152.75 204.25 154.05 204.65 154.75 204.65 156.35 L204.35 157.45 204.05 158.5 Q204.05 159.2 205.1 160.45 L206.15 162.25 Q206.15 163.9 205.05 165.3 L203.9 166.65 204.3 167.8 204.65 169.3 204.6 170.65 203.65 172.35 202.0 173.6 202.15 175.1 201.8 177.2 200.3 177.35 200.15 177.35 197.75 178.45 194.15 179.75 Q192.65 180.4 192.5 180.55 L192.45 180.7 193.1 182.55 Q193.65 184.6 193.65 186.35 L192.8 191.7 Q191.85 196.9 191.3 198.5 190.05 202.5 188.15 204.5 187.65 205.05 186.25 205.8 L183.9 206.85 179.85 207.3 175.2 207.4 175.15 207.5 174.65 207.4 174.4 207.45 174.4 207.4 172.65 207.35 166.9 207.55 163.25 208.0 153.9 209.75 Q149.7 209.5 148.3 210.5 146.7 211.6 139.4 211.6 L136.65 211.5 134.4 211.35 131.1 211.45 127.0 211.4 127.5 211.6 127.4 211.95 126.9 212.1 Q125.6 212.1 124.1 211.3 L122.75 210.5 121.0 209.8 119.9 209.2 116.45 208.0 113.0 206.6 112.9 206.2 113.15 206.15 112.55 205.35 112.3 204.25 112.7 202.9 113.05 201.65 110.75 200.05 Q108.4 198.4 108.4 196.3 108.4 194.3 109.05 193.85 L107.15 191.9 104.05 193.8 Q100.75 195.55 96.9 196.75 93.75 197.75 91.8 199.6 90.85 200.5 89.25 202.85 87.45 205.5 86.45 209.35 L85.15 216.1 Q84.75 218.25 83.75 219.55 82.25 221.45 78.9 222.7 L72.25 224.8 67.15 226.25 61.1 227.8 55.4 229.0 45.8 230.1 Q32.35 231.1 10.25 231.1 4.05 231.1 2.3 225.05 1.7 223.15 1.4 219.75 L0.9 214.85 Q0.2 211.35 0.05 206.35 L0.0 197.6 Q0.0 190.35 0.7 184.7 L3.05 170.6 Q4.2 164.1 6.25 157.1 L7.4 153.7 Q8.05 152.45 8.65 151.95 L9.9 150.45 Q10.35 149.65 11.3 148.95 L12.8 147.45 13.25 146.45 12.9 146.2 Q13.0 145.75 13.75 145.1 L14.15 144.45 14.35 144.6 15.85 143.6 Q17.3 142.7 19.65 141.35 L23.45 138.65 23.85 138.4 20.7 132.1 Q20.7 130.35 28.7 122.6 L43.1 108.55 Q48.4 102.9 53.45 96.35 54.6 94.8 58.9 90.3 L60.95 87.75 Q61.55 87.2 62.15 86.95 L61.75 86.5 Q58.9 83.55 58.9 82.6 58.9 82.3 63.95 76.3 L69.0 70.4 Q68.15 67.9 68.15 65.3 68.15 62.4 68.5 61.95 69.3 60.95 74.25 59.65 77.6 58.75 81.05 58.15 82.2 53.95 86.7 54.65 88.95 55.0 90.8 56.5 L91.15 56.8 107.7 55.45 Q108.5 53.2 112.2 52.8 115.85 52.4 118.8 54.85 L128.4 55.35 130.1 56.85 130.15 56.9 132.55 55.95 Q132.8 55.8 133.4 55.6 L133.55 54.85 Q134.5 52.7 134.5 49.25 L134.2 47.0 134.0 45.3 133.8 44.65 132.75 41.9 132.3 41.4 Q130.65 39.65 130.65 36.95 L130.65 35.3 131.25 33.45 Q131.55 32.4 132.4 31.65 L132.75 31.4 132.9 28.35 Q132.95 26.55 133.3 24.45 L133.25 24.0 Q133.25 23.45 133.6 22.5 L134.1 19.15 Q134.65 16.5 135.55 14.6 136.35 12.7 139.45 10.0 140.85 8.7 146.3 5.55 147.05 5.05 148.15 4.55 148.4 4.35 149.2 4.0 150.05 3.6 150.25 3.55 L153.35 2.65 Q153.7 2.05 154.6 2.25 L154.7 2.25 155.2 2.05 157.6 1.2 159.95 0.55 162.2 -0.15 M188.2 69.05 L188.9 66.35 190.4 60.85 191.9 55.25 Q192.65 52.3 192.65 49.85 L192.55 39.4 192.8 38.3 193.4 36.7 Q194.05 35.65 194.05 33.55 194.05 31.85 193.85 31.55 L193.05 29.7 Q192.4 27.45 192.4 25.85 L192.2 24.0 192.15 21.75 192.1 21.5 192.05 21.45 192.0 20.7 191.4 18.8 190.0 16.3 189.8 15.9 189.5 15.05 Q189.05 13.45 187.4 11.35 L184.05 7.55 Q182.25 5.6 178.35 4.15 177.55 3.85 176.6 3.35 L174.8 2.45 171.05 0.95 168.95 0.45 164.5 0.35 163.4 0.7 162.4 1.0 161.2 1.15 Q160.7 1.1 160.4 1.35 L158.7 2.3 156.85 3.35 157.6 3.85 158.5 4.65 159.1 5.15 161.1 7.15 161.85 8.85 162.35 10.65 161.85 12.85 161.1 14.9 160.15 16.8 159.5 18.4 158.9 19.4 157.85 21.35 159.95 23.25 Q162.0 25.4 162.0 26.65 162.0 27.35 161.45 27.9 L159.65 29.4 158.95 30.0 161.0 30.1 163.55 30.15 166.35 30.2 Q169.95 30.7 172.95 32.1 L173.1 32.05 Q174.95 31.95 175.35 31.1 L175.65 31.45 175.65 31.5 175.65 32.0 176.0 32.85 176.4 33.6 177.05 33.85 Q177.9 33.85 177.9 33.45 L177.85 32.7 Q178.1 32.2 178.45 32.5 L178.75 33.05 178.85 33.7 179.75 34.35 180.8 35.05 182.75 35.15 187.95 35.55 190.4 36.05 Q190.95 36.3 190.95 36.8 L190.6 37.45 Q190.2 37.8 189.85 37.75 189.45 37.7 189.2 38.0 L190.2 39.2 190.85 40.2 Q191.15 40.6 191.15 41.85 L191.05 42.1 Q190.5 42.05 190.3 41.8 L189.7 41.35 189.3 40.85 188.3 40.2 188.0 40.05 187.85 40.2 Q187.2 41.0 185.65 41.0 184.3 41.0 183.7 40.3 L183.4 39.65 183.25 39.7 182.4 40.15 181.95 40.55 182.55 41.0 182.65 41.05 183.35 41.55 Q183.35 41.9 182.75 41.9 L182.45 41.85 182.0 41.7 181.8 41.6 181.15 41.25 180.35 40.95 180.2 40.75 179.65 40.55 178.15 39.95 Q177.25 39.2 176.85 39.2 175.0 39.2 174.2 40.4 L174.0 41.55 Q174.0 42.75 175.15 44.85 176.25 46.95 176.25 47.95 L176.05 49.0 176.8 49.45 178.25 50.5 Q178.85 51.0 178.85 52.15 178.85 53.5 178.1 54.5 L177.0 55.55 176.35 55.75 174.2 55.85 173.85 55.95 173.9 56.5 Q173.9 58.05 173.5 58.85 L173.5 59.5 Q175.65 59.8 177.75 60.8 179.95 61.85 180.7 63.0 L181.85 65.25 182.1 66.35 182.5 67.4 182.45 67.75 182.15 67.8 179.7 65.6 Q177.2 64.1 175.6 64.1 L170.35 64.55 167.75 65.05 167.75 64.95 166.45 64.9 166.45 65.35 Q167.2 66.6 170.5 68.5 L172.2 69.5 172.3 69.5 Q172.7 69.5 174.1 70.2 L174.95 70.35 Q175.75 70.65 175.75 71.1 175.75 71.7 174.15 71.7 L172.3 71.4 171.3 71.1 169.95 70.7 167.95 70.45 Q165.9 70.45 164.65 72.3 L164.6 72.9 Q164.6 73.75 164.95 74.4 L165.75 75.5 167.1 76.45 169.0 77.65 Q172.85 80.4 178.9 80.35 L179.4 80.4 Q180.55 80.4 182.3 79.25 L182.25 79.3 182.3 79.3 182.9 78.95 Q187.2 76.65 187.5 74.7 L188.0 70.5 188.0 70.45 188.25 69.1 188.25 69.05 188.3 68.8 188.2 69.05 M177.9 27.2 Q178.6 27.3 179.8 28.1 L181.75 29.35 183.95 30.35 185.5 30.7 187.7 30.8 Q188.2 30.85 188.2 31.15 L188.15 31.35 186.85 31.45 183.65 31.1 182.0 30.65 179.65 29.75 177.5 28.85 173.45 27.95 168.6 27.55 165.75 27.15 Q163.8 26.7 163.8 26.25 163.8 25.85 164.7 25.7 L166.1 25.6 172.2 25.7 175.35 26.35 177.9 27.2 M184.15 23.45 L185.6 23.85 Q186.55 24.2 186.8 24.55 184.6 24.15 181.75 22.6 179.0 21.15 175.55 20.6 L175.55 20.5 176.0 20.35 177.85 20.65 179.4 21.15 181.9 22.35 184.15 23.45 M167.55 40.05 Q167.4 38.5 166.7 38.15 L166.2 39.25 165.25 39.9 163.4 39.7 162.45 39.55 Q162.6 40.3 161.9 40.95 160.85 41.85 158.4 41.85 L156.45 41.6 156.1 41.5 156.1 42.05 156.7 43.9 Q156.9 44.8 157.25 45.5 157.4 45.95 158.55 46.2 L159.7 46.65 160.25 47.0 Q161.35 47.65 161.9 48.65 L162.6 50.3 Q163.1 51.2 163.2 52.7 L163.6 52.7 Q165.2 52.7 165.55 52.2 L166.4 50.05 166.9 47.3 Q167.25 45.35 168.6 43.5 L169.85 41.95 169.8 41.8 Q167.75 41.65 167.45 41.1 L167.55 40.05 M181.8 53.95 L181.35 54.4 Q180.85 54.4 180.85 53.8 L181.1 53.3 Q181.4 52.95 181.9 53.1 L181.95 53.4 181.8 53.95 M166.45 88.45 L166.45 88.55 Q163.2 88.85 161.45 89.85 L159.0 91.7 Q156.45 93.6 155.55 94.7 L157.6 96.05 158.5 96.65 159.35 97.4 161.5 94.9 Q162.4 93.8 164.15 92.35 L166.45 89.8 167.95 88.5 168.25 88.2 166.45 88.45 M191.35 147.85 L191.75 147.9 191.7 147.55 191.35 147.85 M200.3 153.75 L200.25 153.55 195.2 153.15 194.45 152.9 194.05 152.6 193.3 152.0 Q192.95 151.8 192.95 151.5 192.95 151.15 193.1 151.15 L194.05 151.05 195.0 151.1 196.0 151.6 197.2 152.1 198.75 152.5 Q199.75 152.5 200.5 152.05 L200.75 151.9 200.9 151.35 197.75 150.2 197.15 149.6 192.05 149.25 189.9 148.85 186.6 149.0 189.3 150.1 Q191.45 151.65 191.45 152.3 191.45 153.5 189.45 157.15 188.35 159.25 184.6 161.8 L182.7 162.8 180.6 163.25 179.6 163.65 177.6 163.95 177.0 164.1 176.45 164.4 174.35 165.4 171.9 167.65 Q170.25 169.05 168.1 169.9 L168.0 169.95 Q172.05 173.5 173.35 176.6 L174.7 179.95 175.05 181.4 175.1 181.5 175.6 181.4 177.35 180.95 179.2 179.85 Q181.15 177.9 185.55 177.9 L186.65 178.15 187.55 178.4 189.45 178.3 189.7 178.05 191.4 177.2 Q191.5 177.05 192.3 176.75 L193.8 176.4 194.95 176.6 196.2 176.75 196.55 176.45 197.7 175.45 198.1 174.7 Q198.3 174.25 198.7 174.1 199.15 173.9 199.3 174.4 L199.55 175.25 199.95 176.25 200.9 175.65 201.0 175.2 200.9 173.8 Q200.9 172.85 202.3 171.85 203.65 170.85 203.65 169.25 L203.3 168.1 Q202.9 167.35 202.9 166.65 202.9 166.25 203.15 165.8 202.2 165.8 201.4 165.15 200.7 164.6 200.7 164.2 200.7 163.85 200.85 163.85 L201.55 163.9 203.1 163.85 204.55 163.75 204.15 163.2 203.7 162.65 203.45 161.5 203.55 160.7 203.65 160.4 Q202.9 159.3 202.9 158.45 L203.3 157.5 203.65 156.15 Q203.65 153.95 201.75 153.75 L201.35 154.3 201.55 155.15 201.7 156.25 Q201.7 157.2 201.45 157.2 L197.85 156.95 Q197.5 156.85 197.5 156.55 L198.1 155.85 199.05 155.15 200.4 153.85 200.3 153.75 M173.5 184.0 L167.95 182.95 Q164.35 182.05 163.0 181.35 161.95 180.8 160.4 179.55 L158.15 177.45 Q156.1 175.05 154.75 173.0 L153.75 171.85 152.65 170.75 151.65 169.7 Q151.3 169.8 151.2 170.0 151.05 170.2 151.05 171.4 151.05 172.95 152.5 174.35 L155.0 177.25 155.15 177.5 155.15 177.55 155.35 177.9 155.1 178.0 154.85 177.95 Q153.95 178.9 150.25 181.4 148.0 182.55 146.7 183.25 L143.45 184.6 Q146.1 185.85 146.1 188.6 L146.1 188.95 146.85 189.25 Q147.75 189.4 149.45 190.5 150.45 190.95 152.5 193.05 L155.05 195.8 Q156.7 197.55 158.65 198.1 L158.8 198.25 161.45 199.3 Q164.65 200.0 166.95 200.9 L172.45 202.65 174.0 203.35 175.2 203.85 175.55 204.0 175.85 202.95 176.25 199.65 176.55 195.75 175.95 190.0 175.15 187.1 173.45 184.3 173.5 184.0 M157.4 145.85 L153.0 151.2 Q152.05 152.45 149.95 153.95 L149.3 154.35 147.3 157.2 Q143.05 163.1 139.45 167.2 L139.4 167.45 143.65 167.75 151.65 167.25 Q152.3 167.25 152.7 168.25 L152.9 169.0 154.25 168.7 156.8 168.2 157.95 167.85 157.9 167.75 159.9 167.1 Q159.0 165.05 158.9 162.15 159.1 157.05 158.9 154.9 L157.8 148.15 157.4 145.85" fill="#000000" fill-rule="evenodd" stroke="none"/>
    <path d="M182.3 79.25 Q180.55 80.4 179.4 80.4 L178.9 80.35 Q172.85 80.4 169.0 77.65 L167.1 76.45 165.75 75.5 164.95 74.4 Q164.6 73.75 164.6 72.9 L164.65 72.3 Q165.9 70.45 167.95 70.45 L169.95 70.7 171.3 71.1 172.3 71.4 174.15 71.7 Q175.75 71.7 175.75 71.1 175.75 70.65 174.95 70.35 L174.1 70.2 Q172.7 69.5 172.3 69.5 L172.2 69.5 170.5 68.5 Q167.2 66.6 166.45 65.35 L166.45 64.9 167.75 64.95 167.75 65.05 170.35 64.55 175.6 64.1 Q177.2 64.1 179.7 65.6 L182.15 67.8 182.45 67.75 182.5 67.4 182.1 66.35 181.85 65.25 180.7 63.0 Q179.95 61.85 177.75 60.8 175.65 59.8 173.5 59.5 L173.5 58.85 Q173.9 58.05 173.9 56.5 L173.85 55.95 174.2 55.85 176.35 55.75 177.0 55.55 178.1 54.5 Q178.85 53.5 178.85 52.15 178.85 51.0 178.25 50.5 L176.8 49.45 176.05 49.0 176.25 47.95 Q176.25 46.95 175.15 44.85 174.0 42.75 174.0 41.55 L174.2 40.4 Q175.0 39.2 176.85 39.2 177.25 39.2 178.15 39.95 L179.65 40.55 180.2 40.75 180.35 40.95 181.15 41.25 181.8 41.6 182.0 41.7 182.45 41.85 182.75 41.9 Q183.35 41.9 183.35 41.55 L182.65 41.05 182.55 41.0 181.95 40.55 182.4 40.15 183.25 39.7 183.4 39.65 183.7 40.3 Q184.3 41.0 185.65 41.0 187.2 41.0 187.85 40.2 L188.0 40.05 188.3 40.2 189.3 40.85 189.7 41.35 190.3 41.8 Q190.5 42.05 191.05 42.1 L191.15 41.85 Q191.15 40.6 190.85 40.2 L190.2 39.2 189.2 38.0 Q189.45 37.7 189.85 37.75 190.2 37.8 190.6 37.45 L190.95 36.8 Q190.95 36.3 190.4 36.05 L187.95 35.55 182.75 35.15 180.8 35.05 179.75 34.35 178.85 33.7 178.75 33.05 178.45 32.5 Q178.1 32.2 177.85 32.7 L177.9 33.45 Q177.9 33.85 177.05 33.85 L176.4 33.6 176.0 32.85 175.65 32.0 175.65 31.5 175.65 31.45 175.35 31.1 Q174.95 31.95 173.1 32.05 L172.95 32.1 Q169.95 30.7 166.35 30.2 L163.55 30.15 161.0 30.1 158.95 30.0 159.65 29.4 161.45 27.9 Q162.0 27.35 162.0 26.65 162.0 25.4 159.95 23.25 L157.85 21.35 158.9 19.4 159.5 18.4 160.15 16.8 161.1 14.9 161.85 12.85 162.35 10.65 161.85 8.85 161.1 7.15 159.1 5.15 158.5 4.65 157.6 3.85 156.85 3.35 158.7 2.3 160.4 1.35 Q160.7 1.1 161.2 1.15 L162.4 1.0 163.4 0.7 164.5 0.35 168.95 0.45 171.05 0.95 174.8 2.45 176.6 3.35 Q177.55 3.85 178.35 4.15 182.25 5.6 184.05 7.55 L187.4 11.35 Q189.05 13.45 189.5 15.05 L189.8 15.9 190.0 16.3 191.4 18.8 192.0 20.7 192.05 21.45 192.1 21.5 192.15 21.75 192.2 24.0 192.4 25.85 Q192.4 27.45 193.05 29.7 L193.85 31.55 Q194.05 31.85 194.05 33.55 194.05 35.65 193.4 36.7 L192.8 38.3 192.55 39.4 192.65 49.85 Q192.65 52.3 191.9 55.25 L190.4 60.85 188.9 66.35 188.2 69.05 188.15 69.1 Q187.9 69.7 187.9 70.45 L187.9 70.5 188.0 70.5 187.5 74.7 Q187.2 76.65 182.9 78.95 L182.3 79.3 182.3 79.25 M184.15 23.45 L181.9 22.35 179.4 21.15 177.85 20.65 176.0 20.35 175.55 20.5 175.55 20.6 Q179.0 21.15 181.75 22.6 184.6 24.15 186.8 24.55 186.55 24.2 185.6 23.85 L184.15 23.45 M177.9 27.2 L175.35 26.35 172.2 25.7 166.1 25.6 164.7 25.7 Q163.8 25.85 163.8 26.25 163.8 26.7 165.75 27.15 L168.6 27.55 173.45 27.95 177.5 28.85 179.65 29.75 182.0 30.65 183.65 31.1 186.85 31.45 188.15 31.35 188.2 31.15 Q188.2 30.85 187.7 30.8 L185.5 30.7 183.95 30.35 181.75 29.35 179.8 28.1 Q178.6 27.3 177.9 27.2 M166.45 88.45 L168.25 88.2 167.95 88.5 166.45 89.8 164.15 92.35 Q162.4 93.8 161.5 94.9 L159.35 97.4 158.5 96.65 157.6 96.05 155.55 94.7 Q156.45 93.6 159.0 91.7 L161.45 89.85 Q163.2 88.85 166.45 88.55 L166.45 88.45 M181.8 53.95 L181.95 53.4 181.9 53.1 Q181.4 52.95 181.1 53.3 L180.85 53.8 Q180.85 54.4 181.35 54.4 L181.8 53.95 M167.55 40.05 L167.45 41.1 Q167.75 41.65 169.8 41.8 L169.85 41.95 168.6 43.5 Q167.25 45.35 166.9 47.3 L166.4 50.05 165.55 52.2 Q165.2 52.7 163.6 52.7 L163.2 52.7 Q163.1 51.2 162.6 50.3 L161.9 48.65 Q161.35 47.65 160.25 47.0 L159.7 46.65 158.55 46.2 Q157.4 45.95 157.25 45.5 156.9 44.8 156.7 43.9 L156.1 42.05 156.1 41.5 156.45 41.6 158.4 41.85 Q160.85 41.85 161.9 40.95 162.6 40.3 162.45 39.55 L163.4 39.7 165.25 39.9 166.2 39.25 166.7 38.15 Q167.4 38.5 167.55 40.05 M173.5 184.0 L173.45 184.3 175.15 187.1 175.95 190.0 176.55 195.75 176.25 199.65 175.85 202.95 175.55 204.0 175.2 203.85 174.0 203.35 172.45 202.65 166.95 200.9 Q164.65 200.0 161.45 199.3 L158.8 198.25 158.65 198.1 Q156.7 197.55 155.05 195.8 L152.5 193.05 Q150.45 190.95 149.45 190.5 147.75 189.4 146.85 189.25 L146.1 188.95 146.1 188.6 Q146.1 185.85 143.45 184.6 L146.7 183.25 Q148.0 182.55 150.25 181.4 153.95 178.9 154.85 177.95 L155.1 178.0 155.35 177.9 155.15 177.55 155.15 177.5 155.0 177.25 152.5 174.35 Q151.05 172.95 151.05 171.4 151.05 170.2 151.2 170.0 151.3 169.8 151.65 169.7 L152.65 170.75 153.75 171.85 154.75 173.0 Q156.1 175.05 158.15 177.45 L160.4 179.55 Q161.95 180.8 163.0 181.35 164.35 182.05 167.95 182.95 L173.5 184.0 M200.3 153.75 L200.4 153.85 199.05 155.15 198.1 155.85 197.5 156.55 Q197.5 156.85 197.85 156.95 L201.45 157.2 Q201.7 157.2 201.7 156.25 L201.55 155.15 201.35 154.3 201.75 153.75 Q203.65 153.95 203.65 156.15 L203.3 157.5 202.9 158.45 Q202.9 159.3 203.65 160.4 L203.55 160.7 203.45 161.5 203.7 162.65 204.15 163.2 204.55 163.75 203.1 163.85 201.55 163.9 200.85 163.85 Q200.7 163.85 200.7 164.2 200.7 164.6 201.4 165.15 202.2 165.8 203.15 165.8 202.9 166.25 202.9 166.65 202.9 167.35 203.3 168.1 L203.65 169.25 Q203.65 170.85 202.3 171.85 200.9 172.85 200.9 173.8 L201.0 175.2 200.9 175.65 199.95 176.25 199.55 175.25 199.3 174.4 Q199.15 173.9 198.7 174.1 198.3 174.25 198.1 174.7 L197.7 175.45 196.55 176.45 196.2 176.75 194.95 176.6 193.8 176.4 192.3 176.75 Q191.5 177.05 191.4 177.2 L189.7 178.05 189.45 178.3 187.55 178.4 186.65 178.15 185.55 177.9 Q181.15 177.9 179.2 179.85 L177.35 180.95 175.6 181.4 175.1 181.5 175.05 181.4 174.7 179.95 173.35 176.6 Q172.05 173.5 168.0 169.95 L168.1 169.9 Q170.25 169.05 171.9 167.65 L174.35 165.4 176.45 164.4 177.0 164.1 177.6 163.95 179.6 163.65 180.6 163.25 182.7 162.8 184.6 161.8 Q188.35 159.25 189.45 157.15 191.45 153.5 191.45 152.3 191.45 151.65 189.3 150.1 L186.6 149.0 189.9 148.85 192.05 149.25 197.15 149.6 197.75 150.2 200.9 151.35 200.75 151.9 200.5 152.05 Q199.75 152.5 198.75 152.5 L197.2 152.1 196.0 151.6 195.0 151.1 194.05 151.05 193.1 151.15 Q192.95 151.15 192.95 151.5 192.95 151.8 193.3 152.0 L194.05 152.6 194.45 152.9 195.2 153.15 200.25 153.55 200.3 153.75" fill="url(#gradient0)" fill-rule="evenodd" stroke="none"/>
  </g>
  <defs>
    <linearGradient gradientTransform="matrix(0.0188, 0.1473, -0.9915, 0.1266, 338.65, 85.1)" gradientUnits="userSpaceOnUse" id="gradient0" spreadMethod="pad" x1="-819.2" x2="819.2">
      <stop offset="0.0" stop-color="#ceb19f"/>
      <stop offset="1.0" stop-color="#a37354"/>
    </linearGradient>
  </defs>
</svg>
