<?xml version="1.0" encoding="UTF-8" standalone="no"?>
<svg xmlns:xlink="http://www.w3.org/1999/xlink" height="380.3px" width="721.5px" xmlns="http://www.w3.org/2000/svg">
  <g transform="matrix(1.0, 0.0, 0.0, 1.0, 0.0, 0.0)">
    <path d="M473.1 165.7 L473.2 165.0 473.2 165.05 473.1 165.7" fill="#1e1e1e" fill-rule="evenodd" stroke="none"/>
    <path d="M556.95 240.45 L563.7 241.3 570.05 240.7 576.35 240.05 619.35 240.55 Q622.1 240.55 623.05 241.15 L623.85 242.05 Q625.2 242.95 625.5 243.9 L625.6 245.95 Q625.6 248.25 623.75 250.95 L623.15 251.75 623.05 251.85 620.8 254.15 621.05 254.25 623.4 255.3 Q627.75 257.35 635.35 261.6 646.9 268.7 650.65 269.4 L660.25 269.05 Q665.75 269.05 669.9 271.6 669.3 272.85 666.4 274.9 662.7 277.4 661.5 278.6 L660.5 279.9 658.3 282.7 657.3 283.8 658.5 283.55 660.95 283.3 680.25 282.55 684.75 282.6 Q687.55 282.95 689.5 284.55 688.25 285.95 681.15 291.0 673.95 296.1 672.5 297.6 L665.8 304.3 Q661.75 308.35 660.0 311.1 L659.9 311.35 660.1 311.25 Q665.75 308.1 674.25 304.1 688.35 297.55 693.25 297.55 L695.25 297.8 695.4 298.0 695.5 298.9 Q695.5 299.9 685.9 324.35 681.9 334.95 681.8 339.3 L682.1 345.05 682.15 345.65 684.7 345.8 684.15 346.35 Q683.0 347.7 682.6 348.75 L682.4 348.75 682.5 349.45 682.45 349.25 682.4 349.8 682.5 350.6 681.9 358.85 681.55 359.1 681.0 359.35 Q680.55 357.05 680.25 354.55 L680.0 354.8 Q678.8 354.1 677.25 351.85 L674.95 348.4 664.15 347.85 618.6 346.05 Q605.3 346.05 591.45 344.35 577.6 342.6 571.7 342.6 555.45 342.6 537.8 346.35 520.15 350.05 516.85 350.05 508.65 350.05 504.25 348.55 500.8 346.8 499.35 346.3 L490.0 344.8 480.85 343.55 475.25 342.95 470.1 342.3 468.85 341.55 Q466.4 339.8 465.85 339.55 L463.65 338.85 464.6 340.35 464.6 340.7 Q464.6 341.05 463.85 341.05 463.2 341.05 462.15 340.25 461.8 341.8 461.7 343.65 L461.4 350.1 461.5 350.35 Q461.6 350.55 460.85 350.55 458.85 350.55 449.45 348.45 L437.6 345.8 431.4 344.85 422.65 343.85 416.85 342.65 Q412.2 341.55 410.15 341.55 L405.8 341.7 408.6 348.05 408.35 348.65 Q408.1 349.05 407.35 349.05 405.3 349.05 402.7 342.95 L402.4 342.05 397.85 342.9 397.75 342.95 395.05 343.7 394.8 343.9 394.3 344.0 393.9 344.35 Q393.9 345.1 393.7 345.05 L392.85 344.8 392.15 344.3 392.0 344.05 350.45 343.65 348.95 343.45 348.15 345.75 347.95 346.35 347.8 346.65 Q345.35 352.85 342.65 353.85 L342.6 353.2 Q342.6 352.0 344.0 349.15 L345.9 345.05 345.85 344.85 344.7 345.3 343.1 345.6 Q341.5 345.6 340.5 344.7 L339.35 343.55 Q336.85 342.15 335.15 342.35 332.0 342.6 329.85 342.3 L317.2 340.35 309.8 339.6 307.85 339.55 307.05 339.65 307.05 340.6 Q307.0 344.85 307.1 347.55 L306.95 347.8 Q304.85 347.05 304.5 344.75 302.35 347.6 297.85 349.3 L294.85 350.25 294.8 350.3 290.7 351.1 276.3 353.1 276.1 353.1 275.9 353.15 275.2 353.2 269.7 353.85 258.35 355.1 208.15 360.45 Q170.15 364.1 152.1 364.1 132.05 364.1 102.85 359.75 82.15 356.65 69.35 353.6 L54.45 350.1 Q45.55 348.1 42.1 347.8 L32.95 346.85 18.35 345.6 Q12.9 345.15 9.0 343.7 L8.4 343.5 Q7.15 348.75 6.5 353.85 L4.45 367.25 Q3.15 374.55 1.35 380.1 L0.5 380.3 Q0.0 379.35 0.0 377.8 0.0 377.2 0.45 375.75 L0.85 373.65 Q0.85 372.2 1.55 370.3 L2.85 366.8 Q3.25 365.4 3.3 363.45 L3.25 360.05 4.15 353.65 5.25 346.85 6.3 342.65 3.25 341.35 Q3.1 341.9 3.1 340.65 3.1 339.35 5.35 339.35 L7.1 339.5 8.7 333.75 Q11.1 325.95 14.5 320.3 31.7 291.5 66.85 267.85 70.8 265.15 75.7 262.5 79.05 260.65 86.15 257.1 95.1 252.7 107.1 244.55 119.6 235.95 125.45 232.35 135.9 225.95 144.85 222.55 153.45 219.2 167.4 217.0 182.55 214.6 185.85 213.55 L198.55 209.3 Q204.65 206.95 208.35 204.55 210.2 203.35 216.25 200.7 223.1 197.7 226.4 195.85 L234.9 191.35 Q236.1 190.8 244.25 189.55 L249.55 188.85 251.4 188.65 247.45 179.45 245.35 174.75 243.75 171.55 241.1 167.3 Q238.25 163.05 235.15 155.6 231.6 147.05 231.6 142.65 L232.1 139.55 232.6 136.45 Q232.6 127.35 226.3 107.4 L217.4 81.05 212.85 67.3 Q209.95 59.25 207.1 53.3 205.45 49.7 202.4 40.7 198.65 29.55 198.65 25.85 L198.7 23.65 199.1 21.65 197.85 21.35 Q197.65 21.05 197.65 19.85 L205.65 19.15 208.95 17.95 Q211.35 17.1 220.9 20.3 L225.95 20.75 228.85 21.6 243.7 24.6 245.55 25.05 248.4 20.65 Q254.85 11.05 259.85 11.05 262.8 11.05 266.45 12.7 270.05 14.35 273.95 14.35 L301.85 12.8 317.35 10.8 Q328.0 9.2 344.0 8.15 L364.85 7.1 414.0 4.45 424.9 3.45 449.85 0.05 Q458.8 -0.1 461.5 0.3 L465.15 1.3 468.75 2.35 471.85 3.1 478.75 3.4 Q479.25 3.45 479.9 4.6 480.2 5.2 480.6 9.2 480.95 12.35 483.4 14.35 485.55 16.1 491.45 18.75 497.2 21.35 498.4 22.35 L502.65 26.5 504.45 28.55 Q505.25 26.45 506.75 25.05 L507.35 24.85 Q507.85 24.8 507.9 25.45 L507.1 28.65 506.15 31.45 505.9 32.8 505.9 33.25 505.4 34.9 504.15 39.1 503.65 40.8 503.6 40.8 503.5 38.3 502.95 40.75 501.35 47.35 501.3 47.7 500.8 49.7 500.3 51.8 Q498.6 59.2 498.35 63.85 498.0 70.1 489.8 80.6 L483.0 89.0 Q479.15 93.85 477.35 96.85 L475.85 96.8 475.65 93.55 Q475.65 91.55 477.4 80.25 479.15 68.95 479.15 61.1 479.15 50.4 476.5 42.65 472.95 32.2 464.5 26.3 463.05 26.2 462.95 25.55 462.75 24.4 461.35 23.8 457.5 21.85 457.35 21.85 439.1 21.85 431.65 25.35 429.9 26.15 427.95 27.7 426.85 28.6 425.95 28.8 L422.95 31.25 Q417.45 35.75 415.6 37.6 L414.0 39.4 410.75 42.95 Q406.75 47.3 405.85 47.3 405.25 47.3 402.65 45.9 399.95 44.45 398.9 44.35 L391.35 43.0 382.6 41.85 Q371.15 41.85 361.05 49.1 354.55 53.75 352.9 56.8 350.7 60.25 349.45 65.3 348.35 69.75 348.35 73.95 348.35 91.15 362.85 96.8 365.5 97.85 372.8 99.5 377.35 100.55 377.35 101.9 377.35 102.5 373.65 106.3 369.35 110.65 367.35 117.05 L366.05 120.95 Q365.3 123.3 365.35 124.85 L365.0 128.9 364.65 132.15 365.15 138.05 Q365.2 139.2 366.05 140.4 L368.35 142.65 369.1 143.05 Q370.75 144.05 373.75 144.05 377.3 144.05 386.8 140.7 L396.65 137.05 Q398.8 136.6 399.7 135.2 402.05 134.3 413.35 135.3 L414.0 135.6 417.75 137.1 Q420.15 138.15 421.35 139.1 420.6 140.5 416.55 142.2 L414.0 143.2 411.85 143.8 407.8 145.2 409.95 146.35 Q412.8 147.95 414.0 149.2 414.85 150.1 414.85 150.8 414.85 151.4 414.0 152.8 L409.9 158.2 405.05 163.8 Q406.2 165.85 408.55 171.55 L409.0 172.6 409.05 172.75 409.1 172.85 409.35 173.4 410.65 175.7 411.25 176.6 411.3 176.75 411.45 176.95 412.45 178.25 413.85 179.65 415.45 181.05 415.6 181.2 417.2 182.7 416.6 182.95 Q414.55 182.95 411.65 181.45 407.55 180.15 402.1 174.75 L401.85 174.45 400.5 172.85 400.2 172.5 399.0 170.9 398.75 170.35 398.65 170.2 398.3 169.05 398.0 167.75 398.2 165.65 Q398.3 164.5 398.65 163.85 L399.2 162.75 398.9 163.05 396.3 164.35 395.3 164.75 394.3 164.9 393.7 165.05 393.4 165.1 393.3 165.1 388.95 165.8 386.2 165.45 384.6 165.05 383.45 164.55 382.7 164.25 382.15 163.95 380.75 162.95 Q378.9 161.8 378.25 159.95 L377.95 159.65 377.7 159.35 377.65 159.5 377.7 159.6 377.65 159.75 377.5 160.85 377.2 161.75 376.55 162.55 Q375.65 163.3 374.4 163.3 L373.6 163.2 372.85 163.2 Q371.0 162.65 368.95 161.45 366.8 160.2 366.1 159.35 362.0 154.05 360.85 151.4 L357.4 156.5 Q352.9 163.4 352.9 167.05 L354.5 178.75 355.4 185.0 356.4 193.1 357.3 205.4 Q357.9 214.65 357.9 218.95 L357.7 229.4 357.6 231.55 357.55 232.85 357.45 233.25 357.5 234.3 357.5 234.6 357.55 234.6 357.7 237.15 356.85 237.35 Q352.3 237.35 344.55 234.35 337.6 231.35 337.15 231.3 L336.2 231.15 334.95 230.85 334.9 230.85 334.55 230.75 329.4 228.65 328.35 228.05 Q325.2 226.15 322.35 226.3 321.05 226.95 320.65 227.8 319.85 229.5 319.85 230.9 319.85 237.65 332.1 245.75 335.15 247.75 342.5 252.05 348.85 255.75 351.35 257.6 360.9 264.7 367.8 271.65 375.8 279.7 379.15 286.55 380.2 288.7 383.65 294.05 386.9 299.1 388.1 301.85 L395.1 317.3 401.85 332.65 403.75 336.95 403.8 337.1 404.05 337.65 404.55 338.8 404.75 339.25 407.6 339.1 Q413.35 339.1 435.45 343.0 L459.1 347.3 Q458.05 343.1 459.6 337.75 455.05 332.75 446.65 320.3 L441.65 313.6 439.2 310.35 Q436.45 306.7 434.85 303.75 L434.15 302.4 434.05 302.25 433.85 301.8 433.8 301.8 433.15 300.7 432.65 299.65 437.95 291.95 Q444.5 282.25 447.9 275.05 450.25 269.95 452.65 263.1 455.85 253.85 455.85 249.85 L455.3 249.55 Q453.25 253.85 450.3 258.95 446.85 264.9 443.65 269.3 439.15 275.35 434.1 280.75 429.75 285.35 426.95 287.35 L427.0 287.45 426.5 287.65 425.35 288.25 425.15 287.95 421.75 284.25 420.9 283.1 Q418.75 280.2 417.8 278.1 L417.75 278.05 417.6 277.75 417.35 277.15 417.35 277.1 418.65 275.2 421.1 272.1 421.3 271.85 Q426.35 265.8 427.9 263.3 429.8 260.15 431.15 256.25 432.45 252.35 432.65 249.35 432.9 245.85 434.3 242.5 436.0 238.45 438.9 235.8 443.4 231.65 449.35 221.85 453.1 215.75 456.8 207.75 L462.85 193.8 Q463.9 191.3 466.45 186.7 L470.15 179.85 Q470.75 178.7 471.8 172.9 472.1 171.05 472.7 169.7 L472.65 169.15 473.1 165.7 473.2 165.05 473.45 165.1 473.2 165.0 473.35 164.35 473.25 164.95 473.45 165.1 475.6 166.5 Q480.85 169.7 488.65 172.3 L494.45 174.4 495.0 174.6 497.3 175.4 500.9 176.35 502.4 176.7 Q505.5 178.6 507.85 179.6 L514.25 182.35 Q518.95 184.3 521.85 185.1 535.1 188.75 540.6 190.95 L540.85 191.05 542.4 191.75 543.25 192.15 Q548.8 194.8 551.65 198.1 553.5 200.25 555.7 206.0 557.9 211.85 557.9 214.8 557.9 222.3 553.7 228.35 549.65 234.15 541.45 239.15 L548.85 239.55 556.6 240.4 556.9 240.6 556.95 240.45 M682.1 345.05 L681.75 345.05 682.1 345.05 M678.6 349.1 Q679.6 352.8 680.2 354.0 L679.7 348.65 678.45 348.6 678.6 349.1 M513.45 179.15 L514.8 179.4 514.9 179.55 513.45 179.15 M378.0 160.55 L377.95 160.55 377.95 160.5 378.0 160.55 M404.05 189.95 L404.3 190.3 405.6 192.6 Q406.65 195.05 407.7 200.05 408.85 205.4 408.85 208.35 408.85 211.75 408.25 213.7 L408.3 213.95 408.05 214.35 408.1 214.8 407.75 216.7 Q407.45 217.9 407.75 218.6 407.7 218.75 407.45 218.75 L406.8 218.1 406.4 217.25 404.95 215.75 Q404.05 215.0 400.7 213.45 L399.35 212.75 396.35 211.85 Q394.35 211.1 393.9 209.35 L393.65 207.1 Q391.5 200.5 391.0 198.1 394.0 196.85 398.9 193.6 L404.05 189.95 M407.6 253.25 L408.45 254.25 409.3 255.65 410.65 259.1 411.55 261.8 411.45 261.8 Q408.75 261.8 404.7 257.7 L400.65 253.1 395.85 248.5 Q394.35 247.0 393.7 245.7 L393.4 245.4 Q392.45 244.3 392.45 244.0 L392.5 243.85 395.15 244.95 Q399.95 246.75 400.75 247.2 L402.85 248.35 404.6 249.7 405.35 250.4 407.6 253.25 M376.25 234.55 L378.65 233.85 380.2 234.2 380.85 234.55 384.25 237.2 386.6 240.0 387.1 240.85 382.65 239.8 379.9 239.45 371.5 239.1 369.05 239.2 367.55 239.35 368.9 238.3 Q370.75 237.1 373.6 235.6 374.7 235.0 376.25 234.55 M332.35 255.35 L332.15 255.05 330.45 255.2 326.9 254.55 318.45 255.15 314.35 255.6 Q313.9 256.6 313.9 257.1 L313.45 260.3 313.4 260.55 313.1 263.55 313.0 264.9 312.9 267.3 312.9 267.5 312.9 268.3 Q312.95 272.1 313.25 272.7 313.6 273.35 319.9 280.05 323.7 284.15 325.05 286.55 326.4 289.05 326.4 292.15 326.4 295.95 323.45 299.55 321.8 301.6 317.05 305.6 312.5 309.45 310.7 311.85 307.8 315.65 307.9 319.8 L307.5 326.7 307.1 333.6 307.1 337.3 308.35 337.15 310.6 337.05 310.9 337.05 317.8 337.65 321.15 338.8 326.65 339.6 330.35 339.85 Q337.9 340.0 340.75 341.4 L342.25 342.35 Q342.85 342.8 343.6 342.8 L344.5 342.65 Q346.0 342.15 346.6 339.6 L346.6 339.5 Q347.05 337.55 347.7 336.25 L347.7 335.5 347.85 333.4 Q347.85 324.35 345.75 315.75 L345.65 315.4 344.25 310.65 344.1 310.2 344.1 310.15 343.65 308.4 344.05 307.7 Q344.9 306.6 347.7 304.4 350.9 302.0 352.35 301.1 353.05 302.1 353.75 305.1 354.55 308.2 355.15 309.3 357.0 312.5 357.95 313.4 360.45 315.85 364.7 315.85 367.05 315.85 368.65 311.6 369.85 308.55 369.85 307.15 369.85 304.25 364.7 292.1 L359.35 279.8 Q357.2 273.6 348.65 266.55 342.8 261.75 332.35 255.35 M622.75 318.0 L622.6 317.8 622.6 318.05 622.75 318.0 M639.1 343.55 L637.75 343.3 637.6 343.5 639.1 343.55 M631.95 343.4 L636.55 343.5 636.45 343.4 636.25 343.0 631.9 342.35 Q631.8 343.1 631.95 343.4 M317.15 227.3 L316.95 227.7 317.25 227.35 317.15 227.3 M286.8 235.85 L286.45 235.5 286.65 235.95 286.8 235.85 M269.95 351.25 L270.15 351.2 270.0 351.2 270.1 350.4 269.95 351.25" fill="#000000" fill-rule="evenodd" stroke="none"/>
    <path d="M658.3 282.7 L658.5 283.55 657.3 283.8 658.3 282.7 M660.0 311.1 L660.1 311.25 659.9 311.35 660.0 311.1 M505.9 35.15 L505.4 34.9 505.9 33.25 505.9 35.15 M682.5 350.6 L682.4 349.8 682.45 349.25 682.5 349.45 682.5 349.65 682.5 350.6 M507.9 25.45 L507.9 25.6 Q507.9 26.5 507.1 28.65 L507.9 25.45" fill="#ffffff" fill-rule="evenodd" stroke="none"/>
    <path d="M658.3 282.7 L660.5 279.9 661.5 278.6 Q662.7 277.4 666.4 274.9 669.3 272.85 669.9 271.6 665.75 269.05 660.25 269.05 L650.65 269.4 Q646.9 268.7 635.35 261.6 627.75 257.35 623.4 255.3 L621.05 254.25 620.8 254.15 623.05 251.85 623.15 251.75 623.75 250.95 Q625.6 248.25 625.6 245.95 L625.5 243.9 Q625.2 242.95 623.85 242.05 L623.05 241.15 Q622.1 240.55 619.35 240.55 L576.35 240.05 570.05 240.7 563.7 241.3 556.95 240.45 556.6 240.4 548.85 239.55 541.45 239.15 Q549.65 234.15 553.7 228.35 557.9 222.3 557.9 214.8 557.9 211.85 555.7 206.0 553.5 200.25 551.65 198.1 548.8 194.8 543.25 192.15 L542.4 191.75 540.85 191.05 540.6 190.95 Q535.1 188.75 521.85 185.1 518.95 184.3 514.25 182.35 L507.85 179.6 Q505.5 178.6 502.4 176.7 L500.9 176.35 497.3 175.4 495.0 174.6 494.45 174.4 488.65 172.3 Q480.85 169.7 475.6 166.5 L473.45 165.1 473.25 164.95 473.35 164.35 473.2 165.0 473.1 165.7 472.65 169.15 472.7 169.7 Q472.1 171.05 471.8 172.9 470.75 178.7 470.15 179.85 L466.45 186.7 Q463.9 191.3 462.85 193.8 L456.8 207.75 Q453.1 215.75 449.35 221.85 443.4 231.65 438.9 235.8 436.0 238.45 434.3 242.5 432.9 245.85 432.65 249.35 432.45 252.35 431.15 256.25 429.8 260.15 427.9 263.3 426.35 265.8 421.3 271.85 L421.1 272.1 418.65 275.2 417.35 277.1 417.35 277.15 417.6 277.75 417.75 278.05 417.8 278.1 Q418.75 280.2 420.9 283.1 L421.75 284.25 425.15 287.95 425.2 288.35 425.35 288.25 426.5 287.65 427.0 287.45 426.95 287.35 Q429.75 285.35 434.1 280.75 439.15 275.35 443.65 269.3 446.85 264.9 450.3 258.95 453.25 253.85 455.3 249.55 L455.85 249.85 Q455.85 253.85 452.65 263.1 450.25 269.95 447.9 275.05 444.5 282.25 437.95 291.95 L432.65 299.65 433.15 300.7 433.8 301.8 433.85 301.8 434.05 302.25 434.15 302.4 434.85 303.75 Q436.45 306.7 439.2 310.35 L441.65 313.6 446.65 320.3 Q455.05 332.75 459.6 337.75 458.05 343.1 459.1 347.3 L435.45 343.0 Q413.35 339.1 407.6 339.1 L404.75 339.25 404.55 338.8 404.05 337.65 403.8 337.1 403.75 336.95 401.85 332.65 395.1 317.3 388.1 301.85 Q386.9 299.1 383.65 294.05 380.2 288.7 379.15 286.55 375.8 279.7 367.8 271.65 360.9 264.7 351.35 257.6 348.85 255.75 342.5 252.05 335.15 247.75 332.1 245.75 319.85 237.65 319.85 230.9 319.85 229.5 320.65 227.8 321.05 226.95 322.35 226.3 325.2 226.15 328.35 228.05 L329.4 228.65 334.55 230.75 334.9 230.85 334.95 230.85 336.2 231.15 337.15 231.3 Q337.6 231.35 344.55 234.35 352.3 237.35 356.85 237.35 L357.7 237.15 357.55 234.6 357.5 234.6 357.5 234.3 357.45 233.25 357.55 232.85 357.6 231.55 357.7 229.4 357.9 218.95 Q357.9 214.65 357.3 205.4 L356.4 193.1 355.4 185.0 354.5 178.75 352.9 167.05 Q352.9 163.4 357.4 156.5 L360.85 151.4 Q362.0 154.05 366.1 159.35 366.8 160.2 368.95 161.45 371.0 162.65 372.85 163.2 L373.6 163.2 374.4 163.3 Q375.65 163.3 376.55 162.55 L377.2 161.75 377.5 160.85 377.65 159.75 377.7 159.6 377.65 159.5 377.7 159.35 377.95 159.65 378.25 159.95 Q378.9 161.8 380.75 162.95 L382.15 163.95 382.7 164.25 383.45 164.55 384.6 165.05 386.2 165.45 388.95 165.8 393.3 165.1 393.4 165.1 393.7 165.05 394.3 164.9 395.3 164.75 396.3 164.35 398.9 163.05 399.2 162.75 398.65 163.85 Q398.3 164.5 398.2 165.65 L398.0 167.75 398.3 169.05 398.65 170.2 398.75 170.35 399.0 170.9 400.2 172.5 400.5 172.85 401.85 174.45 402.1 174.75 Q407.55 180.15 411.65 181.45 414.55 182.95 416.6 182.95 L417.2 182.7 415.6 181.2 415.45 181.05 413.85 179.65 412.45 178.25 411.45 176.95 411.3 176.75 411.25 176.6 410.65 175.7 409.35 173.4 409.1 172.85 409.05 172.75 409.0 172.6 408.55 171.55 Q406.2 165.85 405.05 163.8 L409.9 158.2 414.0 152.8 Q414.85 151.4 414.85 150.8 414.85 150.1 414.0 149.2 412.8 147.95 409.95 146.35 L407.8 145.2 411.85 143.8 414.0 143.2 416.55 142.2 Q420.6 140.5 421.35 139.1 420.15 138.15 417.75 137.1 L414.0 135.6 413.35 135.3 Q402.05 134.3 399.7 135.2 398.8 136.6 396.65 137.05 L386.8 140.7 Q377.3 144.05 373.75 144.05 370.75 144.05 369.1 143.05 L368.35 142.65 366.05 140.4 Q365.2 139.2 365.15 138.05 L364.65 132.15 365.0 128.9 365.35 124.85 Q365.3 123.3 366.05 120.95 L367.35 117.05 Q369.35 110.65 373.65 106.3 377.35 102.5 377.35 101.9 377.35 100.55 372.8 99.5 365.5 97.85 362.85 96.8 348.35 91.15 348.35 73.95 348.35 69.75 349.45 65.3 350.7 60.25 352.9 56.8 354.55 53.75 361.05 49.1 371.15 41.85 382.6 41.85 L391.35 43.0 398.9 44.35 Q399.95 44.45 402.65 45.9 405.25 47.3 405.85 47.3 406.75 47.3 410.75 42.95 L414.0 39.4 415.6 37.6 Q417.45 35.75 422.95 31.25 L425.95 28.8 Q426.85 28.6 427.95 27.7 429.9 26.15 431.65 25.35 439.1 21.85 457.35 21.85 457.5 21.85 461.35 23.8 462.75 24.4 462.95 25.55 463.05 26.2 464.5 26.3 472.95 32.2 476.5 42.65 479.15 50.4 479.15 61.1 479.15 68.95 477.4 80.25 475.65 91.55 475.65 93.55 L475.85 96.8 477.35 96.85 Q479.15 93.85 483.0 89.0 L489.8 80.6 Q498.0 70.1 498.35 63.85 498.6 59.2 500.3 51.8 L500.8 49.7 501.3 47.7 501.35 47.35 502.95 40.75 503.5 38.3 503.6 40.8 503.6 41.05 503.65 40.8 504.15 39.1 505.4 34.9 505.9 35.15 506.0 37.8 506.3 44.9 506.8 53.2 506.85 53.5 507.0 55.6 507.4 62.1 507.5 66.05 507.65 73.2 Q507.65 83.85 502.0 98.5 495.75 114.65 487.1 122.35 482.0 126.9 480.75 134.2 480.0 138.35 479.65 146.8 L479.35 149.25 478.95 152.95 478.75 154.5 Q478.3 157.2 477.65 159.1 L476.8 162.7 476.6 163.7 Q482.95 164.45 488.65 167.7 L491.65 169.55 Q496.0 171.15 498.35 172.1 L513.45 176.35 514.5 176.65 515.75 177.0 523.7 179.1 524.1 179.2 533.4 181.35 Q548.3 184.6 559.05 190.55 L576.4 200.85 617.85 222.75 Q642.9 236.25 647.25 239.3 656.25 245.6 663.35 249.75 672.7 255.3 682.4 259.35 686.75 261.15 690.65 264.8 694.8 268.65 695.15 271.55 695.45 273.85 698.7 278.4 702.6 283.85 703.25 285.35 703.95 286.85 711.2 299.1 716.35 307.8 717.0 313.1 717.25 315.2 719.6 326.6 721.5 335.85 721.5 340.85 721.5 345.55 721.05 346.9 719.35 351.55 712.75 351.55 L700.25 350.5 694.25 349.3 688.45 349.0 683.45 348.8 682.6 348.75 Q683.0 347.7 684.15 346.35 L684.7 345.8 682.15 345.65 682.1 345.05 681.8 339.3 Q681.9 334.95 685.9 324.35 695.5 299.9 695.5 298.9 L695.4 298.0 695.25 297.8 693.25 297.55 Q688.35 297.55 674.25 304.1 665.75 308.1 660.1 311.25 L660.0 311.1 Q661.75 308.35 665.8 304.3 L672.5 297.6 Q673.95 296.1 681.15 291.0 688.25 285.95 689.5 284.55 687.55 282.95 684.75 282.6 L680.25 282.55 660.95 283.3 658.5 283.55 658.3 282.7 M513.45 179.15 L514.9 179.55 514.8 179.4 513.45 179.15 M404.05 189.95 L398.9 193.6 Q394.0 196.85 391.0 198.1 391.5 200.5 393.65 207.1 L393.9 209.35 Q394.35 211.1 396.35 211.85 L399.35 212.75 400.7 213.45 Q404.05 215.0 404.95 215.75 L406.4 217.25 406.8 218.1 407.45 218.75 Q407.7 218.75 407.75 218.6 407.45 217.9 407.75 216.7 L408.1 214.8 408.05 214.35 408.3 213.95 408.25 213.7 Q408.85 211.75 408.85 208.35 408.85 205.4 407.7 200.05 406.65 195.05 405.6 192.6 L404.3 190.3 404.05 189.95 M378.0 160.55 L377.95 160.5 377.95 160.55 378.0 160.55 M407.6 253.25 L405.35 250.4 404.6 249.7 402.85 248.35 400.75 247.2 Q399.95 246.75 395.15 244.95 L392.5 243.85 392.45 244.0 Q392.45 244.3 393.4 245.4 L393.7 245.7 Q394.35 247.0 395.85 248.5 L400.65 253.1 404.7 257.7 Q408.75 261.8 411.45 261.8 L411.55 261.8 410.65 259.1 409.3 255.65 408.45 254.25 407.6 253.25 M376.25 234.55 Q374.7 235.0 373.6 235.6 370.75 237.1 368.9 238.3 L367.55 239.35 369.05 239.2 371.5 239.1 379.9 239.45 382.65 239.8 387.1 240.85 386.6 240.0 384.25 237.2 380.85 234.55 380.2 234.2 378.65 233.85 376.25 234.55 M332.15 255.05 Q332.15 255.95 332.35 255.35 342.8 261.75 348.65 266.55 357.2 273.6 359.35 279.8 L364.7 292.1 Q369.85 304.25 369.85 307.15 369.85 308.55 368.65 311.6 367.05 315.85 364.7 315.85 360.45 315.85 357.95 313.4 357.0 312.5 355.15 309.3 354.55 308.2 353.75 305.1 353.05 302.1 352.35 301.1 350.9 302.0 347.7 304.4 344.9 306.6 344.05 307.7 L343.65 308.4 344.1 310.15 344.1 310.2 344.25 310.65 345.65 315.4 345.75 315.75 Q347.85 324.35 347.85 333.4 L347.7 335.5 347.7 336.25 Q347.05 337.55 346.6 339.5 L346.6 339.6 Q346.0 342.15 344.5 342.65 L343.6 342.8 Q342.85 342.8 342.25 342.35 L340.75 341.4 Q337.9 340.0 330.35 339.85 L326.65 339.6 321.15 338.8 317.8 337.65 310.9 337.05 310.6 337.05 308.35 337.15 307.1 337.3 307.1 333.6 307.5 326.7 307.9 319.8 Q307.8 315.65 310.7 311.85 312.5 309.45 317.05 305.6 321.8 301.6 323.45 299.55 326.4 295.95 326.4 292.15 326.4 289.05 325.05 286.55 323.7 284.15 319.9 280.05 313.6 273.35 313.25 272.7 312.95 272.1 312.9 268.3 L312.9 267.5 312.9 267.3 313.0 264.9 313.1 263.55 313.4 260.55 313.45 260.3 313.9 257.1 Q313.9 256.6 314.35 255.6 L318.45 255.15 326.9 254.55 330.45 255.2 332.15 255.05 M269.95 351.25 L270.1 350.4 270.0 351.2 269.95 351.25" fill="url(#gradient0)" fill-rule="evenodd" stroke="none"/>
    <path d="M503.65 40.8 L503.6 41.05 503.6 40.8 503.65 40.8 M425.35 288.25 L425.2 288.35 425.15 287.95 425.35 288.25 M556.6 240.4 L556.95 240.45 556.9 240.6 556.6 240.4 M682.1 345.05 L681.75 345.05 682.1 345.05 M307.1 347.55 L307.1 347.85 306.95 347.8 307.1 347.55 M473.2 165.05 L473.2 165.0 473.45 165.1 473.2 165.05 M332.15 255.05 L332.35 255.35 Q332.15 255.95 332.15 255.05 M622.75 318.0 L622.6 318.05 622.6 317.8 622.75 318.0 M317.15 227.3 L317.25 227.35 316.95 227.7 317.15 227.3 M286.8 235.85 L286.65 235.95 286.45 235.5 286.8 235.85 M270.0 351.2 L270.15 351.2 269.95 351.25 270.0 351.2" fill="#000000" fill-opacity="0.101960786" fill-rule="evenodd" stroke="none"/>
    <path d="M661.85 270.75 Q661.85 272.2 661.35 272.7 659.85 274.25 654.25 274.25 653.65 274.25 652.4 273.65 L651.75 273.35 650.6 273.4 649.65 273.35 649.5 273.45 Q649.15 273.9 648.5 273.9 647.7 273.9 646.55 273.35 L645.25 272.65 643.8 272.4 643.35 272.65 Q640.35 272.65 639.25 271.0 L638.75 269.5 Q638.75 268.4 639.85 267.6 638.4 266.35 637.9 264.4 L637.55 263.3 633.75 261.7 628.3 259.9 623.5 265.2 Q614.85 273.9 612.6 273.9 610.85 273.9 610.15 272.5 L609.75 271.05 Q609.75 269.25 613.05 265.25 612.75 264.7 612.75 264.05 612.75 261.45 617.55 256.4 615.85 255.4 615.85 253.55 615.85 251.75 617.05 250.75 L621.75 247.75 Q618.3 245.85 616.05 245.0 612.0 243.4 602.6 243.4 L600.4 243.8 600.35 243.9 Q600.8 244.25 599.55 244.25 L598.8 244.1 594.6 244.65 Q585.7 245.75 577.0 244.9 L564.45 244.5 555.0 245.0 552.95 245.9 Q550.95 246.7 547.35 246.75 547.15 246.85 547.0 246.9 545.65 247.45 543.05 249.3 541.1 250.7 539.0 250.9 L537.0 250.9 535.1 250.75 532.0 251.3 528.75 251.9 Q527.15 251.9 526.1 250.25 525.35 249.0 525.35 248.0 525.35 246.0 529.95 243.1 L534.85 240.1 534.85 240.05 Q534.85 237.9 538.25 234.25 539.35 233.0 545.7 227.1 552.1 221.05 554.7 216.6 L554.75 215.15 Q554.75 212.0 552.8 209.5 550.85 206.95 550.85 205.25 550.85 204.3 551.1 203.7 551.35 203.1 552.0 202.25 550.35 200.9 544.2 197.7 540.55 195.8 540.35 193.6 534.3 190.7 525.25 186.85 L511.2 181.15 Q505.25 179.05 498.0 177.75 488.4 176.0 482.65 173.75 475.8 171.15 475.8 168.4 475.8 165.95 479.05 166.35 480.2 166.5 487.25 168.6 L497.75 170.7 Q503.45 171.65 506.75 172.85 L520.75 177.8 Q530.3 181.25 536.6 184.0 553.8 191.45 559.5 198.05 561.8 200.7 562.85 204.35 564.5 207.15 565.2 210.75 565.75 213.75 565.75 219.35 565.75 223.75 563.45 228.4 562.3 230.7 560.2 233.8 L563.6 233.75 569.95 234.15 576.6 234.5 588.4 234.05 603.6 233.0 Q606.2 232.75 609.2 233.05 L611.15 233.35 Q614.55 233.05 618.15 233.3 635.0 234.55 635.0 246.1 635.0 248.9 633.6 250.75 L641.65 256.15 643.25 256.55 Q655.3 259.45 659.25 261.15 L672.75 266.45 Q680.35 269.8 680.35 272.85 680.35 275.1 677.9 276.25 L673.0 278.55 689.6 279.0 691.9 279.4 Q693.1 279.75 693.35 280.15 694.0 281.1 694.0 282.55 694.0 284.45 682.7 293.3 L669.75 303.0 667.8 304.5 Q672.25 302.45 677.5 300.5 681.65 298.9 693.2 293.75 702.75 290.45 702.75 295.9 702.75 297.15 698.9 305.25 L694.5 314.9 691.5 324.5 Q689.75 330.1 689.35 333.65 L688.45 342.85 687.35 352.4 Q687.0 354.75 687.0 362.85 686.2 369.8 681.6 369.8 677.95 369.8 676.75 361.7 L676.25 353.5 Q676.25 341.15 681.05 326.8 684.85 315.5 692.6 300.5 L692.75 300.4 Q689.05 301.05 682.75 303.95 674.0 308.0 671.25 309.0 L665.3 310.95 Q662.4 312.0 660.75 313.5 657.75 315.1 657.0 315.9 655.5 317.65 654.6 317.65 L653.7 317.45 647.75 323.15 Q646.2 323.15 645.4 321.95 644.85 321.15 644.85 320.55 644.85 315.5 662.25 301.45 671.25 294.15 683.25 285.15 L661.75 284.05 660.9 284.45 Q654.5 287.4 653.5 287.4 649.55 287.4 648.25 286.15 647.6 285.55 647.6 284.4 647.6 283.4 650.2 281.65 L650.1 280.55 Q650.1 278.45 652.65 277.95 L657.15 277.7 667.25 272.65 662.45 270.4 661.8 270.1 661.85 270.75 M504.8 36.25 Q504.0 37.35 502.55 37.35 500.65 37.35 500.0 35.85 L499.75 34.35 Q499.75 30.8 502.65 31.2 505.5 31.65 505.5 34.15 505.5 35.35 504.8 36.25 M461.7 15.05 Q469.75 15.15 469.75 18.0 469.75 20.75 465.4 21.8 471.1 26.9 475.25 36.6 479.0 44.95 480.25 50.55 481.5 55.95 481.5 63.6 L481.0 80.9 Q479.6 97.5 475.05 97.5 472.75 97.5 472.05 95.1 L471.8 92.55 Q473.75 66.5 473.75 63.5 473.75 58.45 472.8 53.9 471.8 49.15 469.5 43.6 464.4 31.65 460.65 28.05 457.3 24.9 450.95 24.65 447.0 25.85 442.3 28.2 436.65 30.95 434.3 33.25 431.95 35.5 424.5 44.25 L417.5 52.35 Q416.55 52.35 412.1 50.45 L411.75 50.3 Q406.3 54.2 395.95 56.7 383.7 59.0 380.65 60.0 378.6 60.7 376.55 66.05 374.8 70.6 374.8 72.55 374.8 78.4 377.15 82.25 378.6 84.6 382.35 87.75 386.15 90.95 387.55 93.15 389.9 96.85 389.9 102.55 389.9 110.6 385.4 117.9 382.9 121.95 382.3 123.3 380.9 126.45 380.9 129.9 380.9 131.65 382.55 135.2 L387.0 133.3 397.65 128.25 Q409.1 125.5 416.7 130.1 419.45 131.75 421.1 134.0 422.5 135.9 422.5 137.05 422.5 138.3 421.8 139.1 420.85 140.25 418.8 140.25 L417.0 139.85 415.75 139.35 410.25 139.05 404.3 138.85 Q403.4 138.85 397.35 141.35 L390.8 143.85 Q388.1 143.85 387.05 143.15 L387.4 143.6 Q393.65 151.35 395.8 156.6 L395.8 156.75 393.25 153.6 Q391.3 151.2 389.65 149.85 389.15 149.45 383.75 147.4 379.05 145.6 378.3 144.0 L378.1 146.4 377.9 149.25 Q377.9 150.7 377.05 151.85 375.95 153.35 373.8 153.35 371.15 153.35 370.25 152.0 369.7 150.5 369.15 150.1 L367.0 148.95 365.6 148.0 Q366.15 148.7 366.15 150.55 L362.55 158.55 Q358.9 167.4 358.9 171.75 358.9 181.55 363.4 196.95 367.9 212.4 367.9 217.65 L367.65 221.0 Q367.25 224.85 366.45 228.0 363.9 238.0 358.55 238.0 355.0 238.0 354.6 235.1 L354.9 231.75 354.8 225.4 355.15 212.8 Q355.15 207.45 353.4 201.4 351.65 196.3 351.65 195.4 351.65 194.9 352.75 193.25 L353.8 191.55 353.45 189.1 352.9 186.15 352.35 183.5 351.9 181.05 Q351.9 168.9 353.8 162.5 355.25 157.2 357.55 153.5 359.05 150.95 362.15 148.65 364.4 147.0 365.4 147.85 L365.15 147.5 Q363.85 145.35 362.3 141.1 L360.05 134.35 Q358.3 128.95 358.3 128.55 358.3 126.25 359.3 123.25 L361.05 118.25 Q361.95 115.4 363.95 113.0 366.05 110.55 366.65 108.75 L365.75 108.9 364.05 109.25 Q361.1 109.25 358.7 105.5 L356.15 100.6 353.25 96.6 349.9 92.0 Q348.7 90.15 341.85 82.75 336.65 77.05 336.65 74.9 336.65 73.85 337.65 73.0 338.85 71.95 339.15 71.0 L339.15 67.6 Q339.45 65.2 340.4 64.1 342.2 61.9 346.55 63.0 L349.0 55.0 Q350.6 49.8 352.3 47.0 L354.45 42.95 Q355.95 40.65 358.65 39.1 L361.0 37.9 363.65 35.85 Q366.4 33.35 368.0 33.65 L371.15 34.5 373.05 33.9 Q374.35 33.3 375.05 33.25 375.65 33.25 377.15 34.0 L379.05 34.75 Q380.15 35.05 384.55 34.65 388.25 34.8 387.9 37.75 L391.9 36.55 Q394.6 35.6 396.3 35.6 398.75 35.6 399.95 36.6 L401.3 37.6 403.2 37.1 405.05 36.6 Q407.7 36.6 408.55 38.75 409.0 39.85 408.9 41.0 L408.9 41.3 409.1 41.4 409.25 41.45 Q412.9 38.45 416.05 34.55 420.15 29.4 422.0 27.6 425.95 23.75 431.25 21.1 443.1 15.2 452.3 16.05 456.65 15.0 461.7 15.05 M368.05 104.85 L369.15 103.25 Q369.6 102.15 370.4 101.6 L369.45 100.9 Q368.65 100.35 367.9 100.25 L367.9 104.75 368.05 104.85 M385.75 141.2 L386.65 142.6 386.15 141.1 385.75 141.2 M402.8 160.85 Q401.4 155.1 401.4 154.0 401.4 151.25 403.5 150.75 405.7 150.2 407.25 154.5 L408.5 162.75 Q409.05 166.0 412.95 172.55 L416.75 179.05 416.75 179.25 Q417.5 180.65 417.5 181.75 L417.4 182.25 417.1 182.6 Q416.35 182.6 415.45 181.35 L415.2 181.0 415.05 181.0 Q412.75 181.0 408.95 175.4 406.0 171.05 404.55 167.5 404.1 166.25 402.8 160.85 M400.95 191.2 Q411.05 185.95 414.0 192.75 416.4 196.85 417.2 201.1 417.75 203.95 417.75 208.85 417.75 210.5 416.05 212.7 L415.3 213.55 413.75 215.1 411.3 216.95 409.6 217.8 Q408.35 218.6 407.7 218.6 407.35 218.6 407.25 218.4 L407.2 218.2 Q407.2 217.75 407.75 217.65 407.3 217.3 407.3 216.95 L407.8 215.45 Q404.7 214.7 404.35 211.35 404.25 210.4 405.05 206.25 405.45 204.65 404.55 201.6 403.35 197.55 403.25 196.65 399.0 198.65 398.15 199.2 396.65 200.2 396.65 201.65 L397.3 204.85 397.9 208.05 Q397.9 209.1 396.15 210.15 393.95 210.15 392.4 204.75 L391.3 199.55 Q391.3 198.45 394.2 195.85 397.3 193.1 400.95 191.2 M464.5 237.35 Q464.5 238.4 463.35 242.65 L463.75 242.5 Q466.15 241.75 467.65 243.2 468.8 244.4 468.8 246.0 468.8 246.95 463.15 254.25 L457.55 261.65 455.5 267.4 Q454.2 270.7 452.0 274.8 449.7 278.95 447.25 282.4 444.95 285.65 441.35 291.5 L439.4 294.75 441.55 299.45 445.3 307.5 Q445.3 308.65 444.55 309.75 443.55 311.25 441.6 311.25 L440.2 310.75 440.2 310.7 437.15 307.05 434.65 303.4 432.65 299.7 430.35 296.05 Q428.25 291.85 425.85 288.7 L423.5 285.0 422.3 283.45 422.5 282.45 Q423.9 279.65 427.75 281.4 427.35 279.2 427.6 277.5 428.05 274.25 431.55 274.25 433.15 274.25 434.65 275.7 L434.75 275.8 435.15 275.0 Q439.0 267.05 440.55 265.15 L444.55 259.9 448.55 254.25 452.5 249.8 454.55 243.5 455.8 238.75 Q456.6 236.0 457.8 234.5 461.15 230.25 463.1 232.75 464.5 234.55 464.5 237.35 M410.75 262.65 Q409.05 262.65 406.75 258.15 L403.7 252.25 398.75 247.0 Q397.35 245.4 394.25 245.25 392.0 245.15 392.0 243.05 392.0 240.1 395.45 239.5 398.75 238.95 403.0 240.85 407.6 242.85 410.55 246.65 414.0 251.1 414.0 256.65 L413.95 260.0 Q413.4 262.65 410.75 262.65 M426.7 293.7 L427.1 294.4 426.65 293.75 426.7 293.7 M384.0 230.95 Q387.1 232.65 387.1 236.75 387.1 237.95 386.35 238.9 385.5 239.95 384.25 239.95 382.75 239.95 381.5 238.3 380.25 236.6 377.95 236.6 L370.35 239.6 Q368.25 239.6 367.6 238.5 367.35 238.05 367.35 237.25 367.35 234.9 370.45 232.8 373.35 230.8 377.25 230.15 381.35 229.5 384.0 230.95 M327.9 219.5 L326.55 228.1 Q326.55 231.05 330.65 236.7 335.1 242.85 339.55 244.65 341.15 245.35 344.9 248.4 L350.4 252.9 Q353.05 254.85 359.8 260.75 L379.45 276.8 Q390.4 286.35 394.65 293.0 396.4 295.75 401.8 301.25 L404.65 305.05 407.3 309.15 Q409.75 312.45 412.5 317.25 L416.8 325.25 Q419.55 330.35 425.15 342.85 431.0 355.95 431.0 357.35 431.0 358.6 430.25 359.75 429.15 361.4 427.05 361.4 423.9 361.4 420.95 357.1 L418.25 352.3 Q415.5 348.6 415.05 347.4 413.7 344.05 413.25 344.25 L412.4 344.85 410.6 345.3 Q408.8 345.3 407.65 343.75 L406.55 341.9 Q405.55 341.7 403.6 340.55 401.85 339.5 401.65 339.15 L399.75 335.6 397.9 331.65 Q396.6 329.1 395.2 324.15 393.85 319.3 392.65 317.0 388.4 308.6 384.4 302.25 379.45 294.3 373.65 287.4 372.8 286.4 373.3 283.65 373.7 281.35 371.4 279.9 L366.45 276.45 Q362.85 273.8 361.4 272.4 L352.9 264.65 352.05 263.95 353.65 266.0 Q356.05 269.35 359.65 276.25 362.0 280.0 364.05 286.45 L365.95 293.25 Q367.95 292.1 369.65 293.8 371.1 295.3 371.15 296.9 L372.4 307.9 Q372.4 314.55 371.95 318.65 371.15 325.35 369.3 327.35 L369.3 327.65 Q368.45 337.65 364.55 337.65 360.65 337.65 360.65 332.3 L361.65 317.15 361.5 305.8 Q360.95 302.35 356.8 290.15 353.3 279.85 348.1 272.2 342.2 263.5 337.3 263.5 331.6 263.5 327.2 267.0 322.9 270.4 322.9 274.55 322.9 276.15 327.4 286.85 331.9 297.55 331.9 300.75 331.9 304.9 327.9 310.7 323.5 317.1 317.3 320.65 314.3 322.4 312.6 325.4 311.0 328.2 311.3 330.75 311.65 333.75 311.15 340.35 311.15 343.25 312.35 347.85 L313.55 352.55 Q313.55 353.5 312.7 354.45 311.65 355.55 310.05 355.55 305.1 355.55 303.95 343.85 L303.55 343.55 301.9 342.05 300.65 340.6 Q300.0 339.7 300.0 339.4 L299.9 334.15 Q299.9 325.4 301.75 323.65 302.1 323.3 303.85 322.65 304.85 322.3 306.15 319.4 L307.25 317.05 Q308.05 315.2 307.9 314.15 307.7 312.2 309.75 308.75 L312.9 303.65 315.0 301.4 Q316.65 299.7 317.15 298.4 317.9 296.4 317.9 293.3 317.9 291.6 315.55 286.3 L312.9 280.75 312.05 282.0 Q310.95 283.15 309.55 283.15 306.1 283.15 305.4 277.35 L305.4 271.4 Q305.4 267.15 305.9 261.5 306.0 260.65 306.6 259.1 L307.55 256.65 Q308.45 253.75 310.25 253.85 L313.65 254.5 Q314.35 254.5 315.55 253.3 316.8 252.05 320.55 251.75 L325.1 251.25 328.8 250.9 Q333.9 250.9 335.4 252.25 336.15 252.9 336.15 254.65 L336.05 256.0 Q338.55 255.9 341.35 256.1 330.6 248.65 325.5 242.55 319.55 235.45 319.55 228.1 319.55 226.55 320.0 225.0 L320.9 220.6 Q321.4 217.7 324.65 216.9 327.9 216.1 327.9 219.5" fill="#000000" fill-opacity="0.101960786" fill-rule="evenodd" stroke="none"/>
  </g>
  <defs>
    <linearGradient gradientTransform="matrix(-0.1741, -0.0796, 0.0137, -0.0298, 600.1, -27.8)" gradientUnits="userSpaceOnUse" id="gradient0" spreadMethod="pad" x1="-819.2" x2="819.2">
      <stop offset="0.0" stop-color="#dd9a00"/>
      <stop offset="1.0" stop-color="#aa3300"/>
    </linearGradient>
  </defs>
</svg>
