<?xml version="1.0" encoding="UTF-8" standalone="no"?>
<svg xmlns:xlink="http://www.w3.org/1999/xlink" height="32.0px" width="32.0px" xmlns="http://www.w3.org/2000/svg">
  <g transform="matrix(1.0, 0.0, 0.0, 1.0, 16.0, 16.0)">
    <path d="M15.0 0.0 Q14.95 6.2 10.6 10.6 6.2 14.95 0.0 15.0 -6.25 14.95 -10.6 10.6 -15.0 6.2 -15.0 0.0 -15.0 -6.25 -10.6 -10.6 -6.25 -15.0 0.0 -15.0 6.2 -15.0 10.6 -10.6 14.95 -6.25 15.0 0.0 Z" fill="none" stroke="#000000" stroke-linecap="round" stroke-linejoin="round" stroke-width="2.0"/>
    <path d="M9.25 -3.85 Q9.25 -0.25 6.45 2.3 3.65 4.85 -0.3 4.9 -4.3 4.85 -7.1 2.3 -9.9 -0.25 -9.9 -3.85 -9.9 -7.5 -7.1 -10.05 -4.3 -12.65 -0.3 -12.6 3.65 -12.65 6.45 -10.05 9.25 -7.5 9.25 -3.85" fill="url(#gradient0)" fill-rule="evenodd" stroke="none"/>
  </g>
  <defs>
    <linearGradient gradientTransform="matrix(6.0E-4, 0.0107, -0.0117, 5.0E-4, -0.3, -3.9)" gradientUnits="userSpaceOnUse" id="gradient0" spreadMethod="pad" x1="-819.2" x2="819.2">
      <stop offset="0.0" stop-color="#ffffff" stop-opacity="0.7019608"/>
      <stop offset="1.0" stop-color="#ffffff" stop-opacity="0.0"/>
    </linearGradient>
  </defs>
</svg>
