<?xml version="1.0" encoding="UTF-8" standalone="no"?>
<svg xmlns:xlink="http://www.w3.org/1999/xlink" height="15.5px" width="11.0px" xmlns="http://www.w3.org/2000/svg">
  <g transform="matrix(1.0, 0.0, 0.0, 1.0, -3.15, 18.9)">
    <path d="M13.0 -8.05 L13.1 -7.85 13.0 -7.85 13.0 -8.05" fill="#ffffff" fill-rule="evenodd" stroke="none"/>
    <path d="M13.9 -5.0 L13.55 -3.55 Q10.0 -3.0 7.3 -4.3 L6.6 -5.7 Q10.5 -4.45 13.9 -5.0" fill="url(#gradient0)" fill-rule="evenodd" stroke="none"/>
    <path d="M4.95 -9.0 L3.15 -12.5 3.15 -12.55 4.8 -17.55 6.4 -18.9 Q9.3 -15.05 12.35 -13.1 13.55 -10.4 13.0 -8.05 L13.0 -7.85 Q9.15 -7.8 4.95 -9.0" fill="url(#gradient1)" fill-rule="evenodd" stroke="none"/>
    <path d="M13.1 -7.85 L14.15 -6.3 14.15 -6.15 Q10.05 -5.9 5.85 -7.2 L4.95 -9.0 Q9.15 -7.8 13.0 -7.85 L13.1 -7.85" fill="url(#gradient2)" fill-rule="evenodd" stroke="none"/>
    <path d="M14.15 -6.15 L13.9 -5.0 Q10.5 -4.45 6.6 -5.7 L5.85 -7.2 Q10.05 -5.9 14.15 -6.15" fill="url(#gradient3)" fill-rule="evenodd" stroke="none"/>
    <path d="M4.95 -9.0 L3.15 -12.5 3.15 -12.55 4.8 -17.55 6.4 -18.9 Q9.3 -15.05 12.35 -13.1 13.55 -10.4 13.0 -8.05 L13.1 -7.85 14.15 -6.3 14.15 -6.15 13.9 -5.0 13.55 -3.55 Q10.0 -3.0 7.3 -4.3 L6.6 -5.7 5.85 -7.2 4.95 -9.0 Z" fill="none" stroke="#000000" stroke-linecap="round" stroke-linejoin="round" stroke-width="0.05"/>
  </g>
  <defs>
    <radialGradient cx="0" cy="0" gradientTransform="matrix(0.008, 0.0, 0.0, 0.008, 13.0, -4.4)" gradientUnits="userSpaceOnUse" id="gradient0" r="819.2" spreadMethod="pad">
      <stop offset="0.0" stop-color="#3e2828"/>
      <stop offset="0.5098039215686274" stop-color="#221111"/>
      <stop offset="0.9176470588235294" stop-color="#5f4b4b"/>
    </radialGradient>
    <radialGradient cx="0" cy="0" gradientTransform="matrix(0.0133, 0.0, 0.0, 0.0133, 6.95, -16.6)" gradientUnits="userSpaceOnUse" id="gradient1" r="819.2" spreadMethod="pad">
      <stop offset="0.0" stop-color="#333333"/>
      <stop offset="0.5333333333333333" stop-color="#0d0d0d"/>
      <stop offset="1.0" stop-color="#333333"/>
    </radialGradient>
    <radialGradient cx="0" cy="0" gradientTransform="matrix(0.0065, 0.0, 0.0, 0.0065, 9.0, -7.5)" gradientUnits="userSpaceOnUse" id="gradient2" r="819.2" spreadMethod="pad">
      <stop offset="0.0" stop-color="#333333"/>
      <stop offset="0.5333333333333333" stop-color="#0d0d0d"/>
      <stop offset="1.0" stop-color="#333333"/>
    </radialGradient>
    <radialGradient cx="0" cy="0" gradientTransform="matrix(0.0056, 0.0, 0.0, 0.0056, 9.6, -6.25)" gradientUnits="userSpaceOnUse" id="gradient3" r="819.2" spreadMethod="pad">
      <stop offset="0.0" stop-color="#333333"/>
      <stop offset="0.5333333333333333" stop-color="#0d0d0d"/>
      <stop offset="1.0" stop-color="#333333"/>
    </radialGradient>
  </defs>
</svg>
