<?xml version="1.0" encoding="UTF-8" standalone="no"?>
<svg xmlns:xlink="http://www.w3.org/1999/xlink" height="12.35px" width="11.2px" xmlns="http://www.w3.org/2000/svg">
  <g transform="matrix(1.0, 0.0, 0.0, 1.0, 7.25, 5.3)">
    <path d="M2.4 -5.3 Q3.9 -4.25 3.95 -3.2 L3.95 -2.5 Q3.95 -0.2 3.4 1.6 2.1 5.35 -1.75 7.05 L-1.8 6.95 -1.95 6.95 -7.25 4.15 Q-7.3 2.4 -6.85 0.85 L-6.2 -0.7 Q-5.1 -2.85 -2.95 -4.6 L-2.35 -5.1 2.4 -5.3" fill="url(#gradient0)" fill-rule="evenodd" stroke="none"/>
    <path d="M2.4 -5.3 L-2.35 -5.1 -2.95 -4.6 Q-5.1 -2.85 -6.2 -0.7 L-6.85 0.85 Q-7.3 2.4 -7.25 4.15 L-1.95 6.95 -1.8 6.95 -1.75 7.05 Q2.1 5.35 3.4 1.6 3.95 -0.2 3.95 -2.5 L3.95 -3.2 Q3.9 -4.25 2.4 -5.3 Z" fill="none" stroke="#000000" stroke-linecap="round" stroke-linejoin="round" stroke-width="0.05"/>
  </g>
  <defs>
    <radialGradient cx="0" cy="0" gradientTransform="matrix(0.0119, 0.0, 0.0, 0.0119, -4.1, -2.4)" gradientUnits="userSpaceOnUse" id="gradient0" r="819.2" spreadMethod="pad">
      <stop offset="0.0" stop-color="#47324e"/>
      <stop offset="1.0" stop-color="#1c161d"/>
    </radialGradient>
  </defs>
</svg>
