<?xml version="1.0" encoding="UTF-8" standalone="no"?>
<svg xmlns:xlink="http://www.w3.org/1999/xlink" height="30.4px" width="9.25px" xmlns="http://www.w3.org/2000/svg">
  <g transform="matrix(1.0, 0.0, 0.0, 1.0, 4.6, 15.2)">
    <path d="M2.85 4.95 L1.6 13.4 -0.1 15.2 -3.55 13.15 -3.6 4.8 Q-0.95 6.8 2.85 4.95" fill="url(#gradient0)" fill-rule="evenodd" stroke="none"/>
    <path d="M3.85 -11.35 L4.55 -6.3 Q-1.05 -6.6 -4.15 -8.7 L-3.9 -10.65 -1.0 -9.25 3.85 -11.35" fill="url(#gradient1)" fill-rule="evenodd" stroke="none"/>
    <path d="M3.9 -4.15 L3.25 -1.35 Q1.1 0.65 -3.8 -0.15 L-4.55 -4.4 3.9 -4.15" fill="url(#gradient2)" fill-rule="evenodd" stroke="none"/>
    <path d="M2.95 2.2 L2.85 4.95 Q-0.95 6.8 -3.6 4.8 L-3.65 2.35 Q-0.35 3.55 2.95 2.2" fill="url(#gradient3)" fill-rule="evenodd" stroke="none"/>
    <path d="M3.25 -1.35 L3.0 -0.15 2.95 2.2 Q-0.35 3.55 -3.65 2.35 L-3.7 0.5 -3.8 -0.15 Q1.1 0.65 3.25 -1.35" fill="url(#gradient4)" fill-rule="evenodd" stroke="none"/>
    <path d="M4.55 -6.3 L4.65 -5.5 4.05 -4.65 3.9 -4.15 -4.55 -4.4 -4.6 -4.9 -4.15 -8.7 Q-1.05 -6.6 4.55 -6.3" fill="url(#gradient5)" fill-rule="evenodd" stroke="none"/>
    <path d="M2.3 -15.2 L3.85 -11.35 -1.0 -9.25 -3.9 -10.65 -3.1 -14.5 -3.1 -14.55 -2.75 -14.8 Q-0.05 -13.75 2.3 -15.2" fill="url(#gradient6)" fill-rule="evenodd" stroke="none"/>
    <path d="M2.3 -15.2 L3.85 -11.35 4.55 -6.3 4.65 -5.5 4.05 -4.65 3.9 -4.15 3.25 -1.35 3.0 -0.15 2.95 2.2 2.85 4.95 1.6 13.4 M-3.55 13.15 L-3.6 4.8 -3.65 2.35 -3.7 0.5 -3.8 -0.15 -4.55 -4.4 -4.6 -4.9 -4.15 -8.7 -3.9 -10.65 -3.1 -14.5 -3.1 -14.55 -2.75 -14.8 M3.85 -11.35 L-1.0 -9.25 -3.9 -10.65 M-3.6 4.8 Q-0.95 6.8 2.85 4.95 M-4.15 -8.7 Q-1.05 -6.6 4.55 -6.3 M3.9 -4.15 L-4.55 -4.4 M-3.8 -0.15 Q1.1 0.65 3.25 -1.35 M2.95 2.2 Q-0.35 3.55 -3.65 2.35" fill="none" stroke="#000000" stroke-linecap="round" stroke-linejoin="round" stroke-width="0.05"/>
  </g>
  <defs>
    <radialGradient cx="0" cy="0" gradientTransform="matrix(0.0109, 0.0, 0.0, 0.0109, -1.6, 12.7)" gradientUnits="userSpaceOnUse" id="gradient0" r="819.2" spreadMethod="pad">
      <stop offset="0.0" stop-color="#523e36"/>
      <stop offset="1.0" stop-color="#14100e"/>
    </radialGradient>
    <radialGradient cx="0" cy="0" gradientTransform="matrix(0.0063, 0.0, 0.0, 0.0063, -0.2, -8.4)" gradientUnits="userSpaceOnUse" id="gradient1" r="819.2" spreadMethod="pad">
      <stop offset="0.0" stop-color="#9f8660"/>
      <stop offset="1.0" stop-color="#514554"/>
    </radialGradient>
    <radialGradient cx="0" cy="0" gradientTransform="matrix(0.0078, 0.0, 0.0, 0.0078, -2.3, -2.8)" gradientUnits="userSpaceOnUse" id="gradient2" r="819.2" spreadMethod="pad">
      <stop offset="0.0" stop-color="#9f8660"/>
      <stop offset="1.0" stop-color="#514554"/>
    </radialGradient>
    <radialGradient cx="0" cy="0" gradientTransform="matrix(0.0071, 0.0, 0.0, 0.0071, 2.0, 3.6)" gradientUnits="userSpaceOnUse" id="gradient3" r="819.2" spreadMethod="pad">
      <stop offset="0.0" stop-color="#9f8660"/>
      <stop offset="1.0" stop-color="#514554"/>
    </radialGradient>
    <radialGradient cx="0" cy="0" gradientTransform="matrix(0.0068, 0.0, 0.0, 0.0068, -1.7, 1.2)" gradientUnits="userSpaceOnUse" id="gradient4" r="819.2" spreadMethod="pad">
      <stop offset="0.0" stop-color="#726152"/>
      <stop offset="1.0" stop-color="#454f54"/>
    </radialGradient>
    <radialGradient cx="0" cy="0" gradientTransform="matrix(0.0068, 0.0, 0.0, 0.0068, 0.6, -5.8)" gradientUnits="userSpaceOnUse" id="gradient5" r="819.2" spreadMethod="pad">
      <stop offset="0.0" stop-color="#726152"/>
      <stop offset="1.0" stop-color="#454f54"/>
    </radialGradient>
    <radialGradient cx="0" cy="0" gradientTransform="matrix(0.0077, -2.0E-4, -2.0E-4, 0.0071, -2.05, -13.2)" gradientUnits="userSpaceOnUse" id="gradient6" r="819.2" spreadMethod="pad">
      <stop offset="0.0" stop-color="#47324e"/>
      <stop offset="1.0" stop-color="#1c161d"/>
    </radialGradient>
  </defs>
</svg>
