<?xml version="1.0" encoding="UTF-8" standalone="no"?>
<svg xmlns:xlink="http://www.w3.org/1999/xlink" height="18.35px" width="7.05px" xmlns="http://www.w3.org/2000/svg">
  <g transform="matrix(1.0, 0.0, 0.0, 1.0, 3.55, 9.15)">
    <path d="M1.9 4.85 L2.0 4.9 2.0 4.95 1.9 4.85" fill="url(#gradient0)" fill-rule="evenodd" stroke="none"/>
    <path d="M1.95 5.05 L0.9 6.85 1.3 8.4 0.15 9.2 -3.55 6.1 -2.95 4.05 Q-0.9 6.25 1.95 5.05" fill="url(#gradient1)" fill-rule="evenodd" stroke="none"/>
    <path d="M3.45 -2.15 L3.45 -2.1 2.55 0.35 -2.8 0.2 -3.15 -1.05 -3.05 -4.15 Q-0.75 -2.2 3.45 -2.15" fill="url(#gradient2)" fill-rule="evenodd" stroke="none"/>
    <path d="M-2.3 -6.45 L-0.75 -9.15 3.0 -6.9 3.15 -6.45 Q0.1 -5.2 -2.3 -6.45" fill="url(#gradient3)" fill-rule="evenodd" stroke="none"/>
    <path d="M1.55 3.7 L1.9 4.85 2.0 4.95 2.0 5.0 1.95 5.05 Q-0.9 6.25 -2.95 4.05 L-2.95 4.0 -2.65 2.3 Q-1.0 3.85 1.55 3.7" fill="url(#gradient4)" fill-rule="evenodd" stroke="none"/>
    <path d="M2.55 0.35 L2.4 0.8 Q1.35 2.4 1.55 3.7 -1.0 3.85 -2.65 2.3 -2.6 1.25 -2.8 0.2 L2.55 0.35" fill="url(#gradient5)" fill-rule="evenodd" stroke="none"/>
    <path d="M-3.05 -4.15 L-3.0 -4.55 -2.3 -6.45 Q0.1 -5.2 3.15 -6.45 3.65 -4.1 3.45 -2.15 -0.75 -2.2 -3.05 -4.15" fill="url(#gradient6)" fill-rule="evenodd" stroke="none"/>
    <path d="M3.45 -2.15 L3.45 -2.1 2.55 0.35 2.4 0.8 Q1.35 2.4 1.55 3.7 L1.9 4.85 2.0 4.95 2.0 5.0 1.95 5.05 0.9 6.85 1.3 8.4 0.15 9.2 -3.55 6.1 -2.95 4.05 -2.95 4.0 -2.65 2.3 Q-2.6 1.25 -2.8 0.2 L-3.15 -1.05 -3.05 -4.15 -3.0 -4.55 -2.3 -6.45 -0.75 -9.15 M2.0 4.9 L2.0 4.95 M3.0 -6.9 L3.15 -6.45 Q3.65 -4.1 3.45 -2.15 -0.75 -2.2 -3.05 -4.15 M-2.65 2.3 Q-1.0 3.85 1.55 3.7 M1.95 5.05 Q-0.9 6.25 -2.95 4.05 M2.55 0.35 L-2.8 0.2 M-2.3 -6.45 Q0.1 -5.2 3.15 -6.45" fill="none" stroke="#000000" stroke-linecap="round" stroke-linejoin="round" stroke-width="0.05"/>
  </g>
  <defs>
    <radialGradient cx="0" cy="0" gradientTransform="matrix(0.0038, 7.0E-4, -5.0E-4, 0.0041, -0.45, 6.05)" gradientUnits="userSpaceOnUse" id="gradient0" r="819.2" spreadMethod="pad">
      <stop offset="0.0" stop-color="#929292"/>
      <stop offset="1.0" stop-color="#525252"/>
    </radialGradient>
    <radialGradient cx="0" cy="0" gradientTransform="matrix(0.0038, 7.0E-4, -5.0E-4, 0.0041, -0.45, 6.05)" gradientUnits="userSpaceOnUse" id="gradient1" r="819.2" spreadMethod="pad">
      <stop offset="0.0" stop-color="#523e36"/>
      <stop offset="1.0" stop-color="#14100e"/>
    </radialGradient>
    <radialGradient cx="0" cy="0" gradientTransform="matrix(0.0059, 0.0, 0.0, 0.0059, -1.4, -1.9)" gradientUnits="userSpaceOnUse" id="gradient2" r="819.2" spreadMethod="pad">
      <stop offset="0.0" stop-color="#9f8660"/>
      <stop offset="1.0" stop-color="#514554"/>
    </radialGradient>
    <radialGradient cx="0" cy="0" gradientTransform="matrix(0.0048, 0.0, 0.0, 0.0048, -0.7, -7.1)" gradientUnits="userSpaceOnUse" id="gradient3" r="819.2" spreadMethod="pad">
      <stop offset="0.0" stop-color="#9f8660"/>
      <stop offset="1.0" stop-color="#514554"/>
    </radialGradient>
    <radialGradient cx="0" cy="0" gradientTransform="matrix(0.0038, 0.0, 0.0, 0.0038, -1.0, 4.2)" gradientUnits="userSpaceOnUse" id="gradient4" r="819.2" spreadMethod="pad">
      <stop offset="0.0" stop-color="#9f8660"/>
      <stop offset="1.0" stop-color="#514554"/>
    </radialGradient>
    <radialGradient cx="0" cy="0" gradientTransform="matrix(0.005, 0.0, 0.0, 0.005, -0.7, 2.1)" gradientUnits="userSpaceOnUse" id="gradient5" r="819.2" spreadMethod="pad">
      <stop offset="0.0" stop-color="#726152"/>
      <stop offset="1.0" stop-color="#454f54"/>
    </radialGradient>
    <radialGradient cx="0" cy="0" gradientTransform="matrix(0.0073, 0.0, 0.0, 0.0073, -0.6, -5.4)" gradientUnits="userSpaceOnUse" id="gradient6" r="819.2" spreadMethod="pad">
      <stop offset="0.0" stop-color="#726152"/>
      <stop offset="1.0" stop-color="#454f54"/>
    </radialGradient>
  </defs>
</svg>
