<?xml version="1.0" encoding="UTF-8" standalone="no"?>
<svg xmlns:xlink="http://www.w3.org/1999/xlink" height="50.15px" width="24.6px" xmlns="http://www.w3.org/2000/svg">
  <g transform="matrix(1.0, 0.0, 0.0, 1.0, 12.85, 33.7)">
    <path d="M-8.05 -11.1 L-12.85 -19.45 -12.5 -21.25 -4.6 -11.1 -8.05 -11.1" fill="url(#gradient0)" fill-rule="evenodd" stroke="none"/>
    <path d="M-4.55 -11.1 L-6.75 -33.45 -6.05 -33.7 -1.55 -11.1 -4.55 -11.1" fill="url(#gradient1)" fill-rule="evenodd" stroke="none"/>
    <path d="M4.65 -11.1 L1.2 -10.9 9.05 -31.45 9.95 -30.7 4.65 -11.1" fill="url(#gradient2)" fill-rule="evenodd" stroke="none"/>
    <path d="M5.65 -11.1 L11.05 -19.7 11.75 -18.5 8.65 -11.1 5.65 -11.1" fill="url(#gradient3)" fill-rule="evenodd" stroke="none"/>
    <path d="M1.2 -10.9 L9.05 -31.45 9.95 -30.7 4.65 -11.1 M8.65 -11.1 L11.75 -18.5 11.05 -19.7 5.65 -11.1 M-1.55 -11.1 L-6.05 -33.7 -6.75 -33.45 -4.55 -11.1 M-4.6 -11.1 L-12.5 -21.25 -12.85 -19.45 -8.05 -11.1" fill="none" stroke="#000000" stroke-linecap="round" stroke-linejoin="round" stroke-width="0.05"/>
    <path d="M7.85 -7.65 L7.5 -6.95 7.4 -7.8 7.85 -7.65" fill="#836201" fill-rule="evenodd" stroke="none"/>
    <path d="M-5.1 4.45 L-5.1 4.4 -4.95 4.45 -5.1 4.45" fill="url(#gradient4)" fill-rule="evenodd" stroke="none"/>
    <path d="M-5.85 -4.35 L-6.1 -4.85 -6.4 -5.55 -6.15 -5.6 -6.0 -4.9 -5.85 -4.35 M-6.0 -4.9 L-6.1 -4.85 -6.0 -4.9" fill="#333333" fill-rule="evenodd" stroke="none"/>
    <path d="M-6.2 -5.7 L-6.25 -5.7 -6.3 -5.7 -6.2 -5.7" fill="url(#gradient5)" fill-rule="evenodd" stroke="none"/>
    <path d="M5.7 10.05 L5.8 10.05 5.95 13.05 2.15 16.45 -5.0 12.6 -4.7 8.75 5.7 10.05" fill="url(#gradient6)" fill-rule="evenodd" stroke="none"/>
    <path d="M-1.95 -14.05 L-1.75 -14.1 3.35 -12.35 5.4 -11.5 6.45 -9.5 5.1 -4.55 Q1.85 -5.15 -0.1 -8.05 L-0.1 -8.1 Q-1.25 -9.75 -1.9 -12.15 L-1.9 -12.65 -1.95 -14.05" fill="url(#gradient7)" fill-rule="evenodd" stroke="none"/>
    <path d="M-1.75 -14.1 L-0.05 -16.4 4.4 -13.1 3.35 -12.35 -1.75 -14.1" fill="url(#gradient8)" fill-rule="evenodd" stroke="none"/>
    <path d="M-6.15 -5.6 L-6.2 -5.7 -6.3 -5.7 -9.9 -7.8 Q-9.9 -10.3 -7.85 -12.05 L-5.2 -13.65 -5.15 -13.65 -1.95 -14.05 -1.9 -12.65 -1.9 -12.15 Q-1.95 -10.55 -2.4 -9.3 -3.4 -6.7 -6.15 -5.6" fill="url(#gradient9)" fill-rule="evenodd" stroke="none"/>
    <path d="M4.4 -13.1 L4.65 -13.1 Q9.15 -11.95 9.95 -9.1 L7.85 -7.65 7.4 -7.8 6.45 -9.5 5.4 -11.5 3.35 -12.35 4.4 -13.1" fill="url(#gradient10)" fill-rule="evenodd" stroke="none"/>
    <path d="M4.95 5.05 L5.0 5.05 Q5.75 7.0 5.8 8.8 L5.7 10.05 -4.7 8.75 -5.1 4.45 -4.95 4.45 4.95 5.05" fill="url(#gradient11)" fill-rule="evenodd" stroke="none"/>
    <path d="M7.5 -6.95 L7.75 -4.2 7.3 -3.3 7.1 -2.95 6.75 -2.1 6.55 -1.65 4.95 5.05 -4.95 4.45 Q-4.55 -0.75 -5.85 -4.35 L-6.0 -4.9 -6.15 -5.6 Q-3.4 -6.7 -2.4 -9.3 -1.95 -10.55 -1.9 -12.15 -1.25 -9.75 -0.1 -8.1 L-0.1 -8.05 Q1.85 -5.15 5.1 -4.55 L6.45 -9.5 7.4 -7.8 7.5 -6.95" fill="url(#gradient12)" fill-rule="evenodd" stroke="none"/>
    <path d="M4.65 -13.1 Q9.15 -11.95 9.95 -9.1 L7.85 -7.65 7.5 -6.95 7.75 -4.2 7.3 -3.3 7.1 -2.95 6.75 -2.1 6.55 -1.65 4.95 5.05 5.0 5.05 Q5.75 7.0 5.8 8.8 L5.7 10.05 5.8 10.05 5.95 13.05 M-5.0 12.6 L-4.7 8.75 -5.1 4.45 -5.1 4.4 -4.95 4.45 Q-4.55 -0.75 -5.85 -4.35 L-6.0 -4.9 -6.15 -5.6 -6.2 -5.7 -6.25 -5.7 -6.3 -5.7 -9.9 -7.8 Q-9.9 -10.3 -7.85 -12.05 L-5.2 -13.65 -5.15 -13.65 -1.95 -14.05 -1.75 -14.1 -0.05 -16.4 4.4 -13.1 3.35 -12.35 5.4 -11.5 6.45 -9.5 7.4 -7.8 7.5 -6.95 M6.45 -9.5 L5.1 -4.55 Q1.85 -5.15 -0.1 -8.05 L-0.1 -8.1 Q-1.25 -9.75 -1.9 -12.15 -1.95 -10.55 -2.4 -9.3 -3.4 -6.7 -6.15 -5.6 M-1.9 -12.15 L-1.9 -12.65 -1.95 -14.05 M-6.1 -4.85 L-6.0 -4.9 M3.35 -12.35 L-1.75 -14.1 M-4.7 8.75 L5.7 10.05 M4.95 5.05 L-4.95 4.45" fill="none" stroke="#000000" stroke-linecap="round" stroke-linejoin="round" stroke-width="0.05"/>
    <path d="M5.35 -5.65 Q6.25 -7.55 6.3 -9.85 L6.3 -10.55 6.1 -12.55 6.1 -12.8 6.05 -13.0 8.05 -12.0 8.1 -11.6 8.1 -10.55 8.05 -9.85 Q7.8 -7.05 6.35 -4.6 L6.05 -5.0 5.35 -5.65" fill="url(#gradient13)" fill-rule="evenodd" stroke="none"/>
    <path d="M1.65 -4.1 Q-1.6 -5.7 -3.65 -13.35 L-3.5 -13.4 -4.05 -14.35 -2.0 -14.7 -3.5 -13.4 -2.0 -14.7 -1.85 -13.7 Q-0.15 -9.35 0.7 -8.15 1.5 -6.95 2.85 -5.6 L2.6 -5.4 2.15 -5.0 1.65 -4.1" fill="url(#gradient14)" fill-rule="evenodd" stroke="none"/>
    <path d="M6.15 -0.1 L6.75 2.1 6.05 2.8 5.25 0.65 5.95 0.05 6.05 -0.1 6.15 -0.1" fill="url(#gradient15)" fill-rule="evenodd" stroke="none"/>
    <path d="M3.4 0.8 L-5.05 9.6 -5.05 7.1 2.15 -0.1 2.95 0.6 3.4 0.8" fill="url(#gradient16)" fill-rule="evenodd" stroke="none"/>
    <path d="M-2.0 -14.7 L-1.8 -13.85 -1.85 -13.7 -2.0 -14.7" fill="url(#gradient17)" fill-rule="evenodd" stroke="none"/>
    <path d="M6.35 -4.6 Q6.85 -3.75 6.85 -2.55 6.85 -1.15 6.15 -0.2 L6.05 -0.1 5.95 0.05 5.25 0.65 4.1 0.9 3.4 0.8 2.95 0.6 2.15 -0.1 1.75 -0.75 Q1.35 -1.55 1.35 -2.55 1.35 -3.4 1.65 -4.1 L2.15 -5.0 2.6 -5.4 2.85 -5.6 Q3.4 -6.0 4.1 -6.0 L5.35 -5.65 6.05 -5.0 6.35 -4.6 M4.3 -4.6 Q3.65 -4.6 3.2 -4.05 2.75 -3.45 2.75 -2.6 2.75 -1.75 3.2 -1.2 3.65 -0.6 4.3 -0.6 4.95 -0.6 5.4 -1.2 5.85 -1.75 5.85 -2.6 5.85 -3.45 5.4 -4.05 4.95 -4.6 4.3 -4.6" fill="url(#gradient18)" fill-rule="evenodd" stroke="none"/>
    <path d="M5.35 -5.65 Q6.25 -7.55 6.3 -9.85 L6.3 -10.55 6.1 -12.55 6.1 -12.8 6.05 -13.0 8.05 -12.0 8.1 -11.6 8.1 -10.55 8.05 -9.85 Q7.8 -7.05 6.35 -4.6 6.85 -3.75 6.85 -2.55 6.85 -1.15 6.15 -0.2 L6.15 -0.1 6.75 2.1 6.05 2.8 5.25 0.65 4.1 0.9 3.4 0.8 -5.05 9.6 -5.05 7.1 2.15 -0.1 1.75 -0.75 Q1.35 -1.55 1.35 -2.55 1.35 -3.4 1.65 -4.1 -1.6 -5.7 -3.65 -13.35 L-3.5 -13.4 -2.0 -14.7 -1.85 -13.7 Q-0.15 -9.35 0.7 -8.15 1.5 -6.95 2.85 -5.6 3.4 -6.0 4.1 -6.0 L5.35 -5.65 M4.3 -4.6 Q4.95 -4.6 5.4 -4.05 5.85 -3.45 5.85 -2.6 5.85 -1.75 5.4 -1.2 4.95 -0.6 4.3 -0.6 3.65 -0.6 3.2 -1.2 2.75 -1.75 2.75 -2.6 2.75 -3.45 3.2 -4.05 3.65 -4.6 4.3 -4.6 M6.15 -0.2 L6.05 -0.1" fill="none" stroke="#000000" stroke-linecap="round" stroke-linejoin="round" stroke-width="0.05"/>
  </g>
  <defs>
    <radialGradient cx="0" cy="0" gradientTransform="matrix(0.0137, 0.0, 0.0, 0.0137, -12.6, -20.0)" gradientUnits="userSpaceOnUse" id="gradient0" r="819.2" spreadMethod="pad">
      <stop offset="0.0" stop-color="#f9c4ff"/>
      <stop offset="0.14901960784313725" stop-color="#d500aa"/>
      <stop offset="0.3843137254901961" stop-color="#442648"/>
      <stop offset="1.0" stop-color="#0e0e14"/>
    </radialGradient>
    <radialGradient cx="0" cy="0" gradientTransform="matrix(0.0266, 0.0, 0.0, 0.0266, -6.4, -32.5)" gradientUnits="userSpaceOnUse" id="gradient1" r="819.2" spreadMethod="pad">
      <stop offset="0.0" stop-color="#f9c4ff"/>
      <stop offset="0.14901960784313725" stop-color="#d500aa"/>
      <stop offset="0.3843137254901961" stop-color="#442648"/>
      <stop offset="1.0" stop-color="#0e0e14"/>
    </radialGradient>
    <radialGradient cx="0" cy="0" gradientTransform="matrix(0.0253, 0.0, 0.0, 0.0253, 9.5, -30.8)" gradientUnits="userSpaceOnUse" id="gradient2" r="819.2" spreadMethod="pad">
      <stop offset="0.0" stop-color="#f9c4ff"/>
      <stop offset="0.14901960784313725" stop-color="#d500aa"/>
      <stop offset="0.3843137254901961" stop-color="#442648"/>
      <stop offset="1.0" stop-color="#0e0e14"/>
    </radialGradient>
    <radialGradient cx="0" cy="0" gradientTransform="matrix(0.0109, 0.0, 0.0, 0.0109, 11.2, -19.0)" gradientUnits="userSpaceOnUse" id="gradient3" r="819.2" spreadMethod="pad">
      <stop offset="0.0" stop-color="#f9c4ff"/>
      <stop offset="0.14901960784313725" stop-color="#d500aa"/>
      <stop offset="0.3843137254901961" stop-color="#442648"/>
      <stop offset="1.0" stop-color="#0e0e14"/>
    </radialGradient>
    <radialGradient cx="0" cy="0" gradientTransform="matrix(0.0103, 4.0E-4, -5.0E-4, 0.0101, 3.05, 6.65)" gradientUnits="userSpaceOnUse" id="gradient4" r="819.2" spreadMethod="pad">
      <stop offset="0.0" stop-color="#a89786"/>
      <stop offset="1.0" stop-color="#484037"/>
    </radialGradient>
    <radialGradient cx="0" cy="0" gradientTransform="matrix(0.0077, 0.0, 0.0, 0.0077, -4.5, -11.0)" gradientUnits="userSpaceOnUse" id="gradient5" r="819.2" spreadMethod="pad">
      <stop offset="0.0" stop-color="#454545"/>
      <stop offset="1.0" stop-color="#1b1b1b"/>
    </radialGradient>
    <radialGradient cx="0" cy="0" gradientTransform="matrix(0.0075, 3.0E-4, -4.0E-4, 0.0073, 0.45, 12.0)" gradientUnits="userSpaceOnUse" id="gradient6" r="819.2" spreadMethod="pad">
      <stop offset="0.0" stop-color="#523e36"/>
      <stop offset="1.0" stop-color="#14100e"/>
    </radialGradient>
    <radialGradient cx="0" cy="0" gradientTransform="matrix(0.0146, 5.0E-4, -8.0E-4, 0.0142, 1.15, -5.65)" gradientUnits="userSpaceOnUse" id="gradient7" r="819.2" spreadMethod="pad">
      <stop offset="0.0" stop-color="#523e36"/>
      <stop offset="1.0" stop-color="#14100e"/>
    </radialGradient>
    <radialGradient cx="0" cy="0" gradientTransform="matrix(0.0059, 2.0E-4, -3.0E-4, 0.0057, -0.3, -13.9)" gradientUnits="userSpaceOnUse" id="gradient8" r="819.2" spreadMethod="pad">
      <stop offset="0.0" stop-color="#523e36"/>
      <stop offset="1.0" stop-color="#14100e"/>
    </radialGradient>
    <radialGradient cx="0" cy="0" gradientTransform="matrix(0.0077, 0.0, 0.0, 0.0077, -4.5, -11.0)" gradientUnits="userSpaceOnUse" id="gradient9" r="819.2" spreadMethod="pad">
      <stop offset="0.0" stop-color="#523e36"/>
      <stop offset="1.0" stop-color="#14100e"/>
    </radialGradient>
    <radialGradient cx="0" cy="0" gradientTransform="matrix(0.0062, 2.0E-4, -3.0E-4, 0.0061, 8.1, -10.65)" gradientUnits="userSpaceOnUse" id="gradient10" r="819.2" spreadMethod="pad">
      <stop offset="0.0" stop-color="#523e36"/>
      <stop offset="1.0" stop-color="#14100e"/>
    </radialGradient>
    <radialGradient cx="0" cy="0" gradientTransform="matrix(0.0103, 4.0E-4, -5.0E-4, 0.0101, 3.05, 6.65)" gradientUnits="userSpaceOnUse" id="gradient11" r="819.2" spreadMethod="pad">
      <stop offset="0.0" stop-color="#9a8476"/>
      <stop offset="1.0" stop-color="#454f54"/>
    </radialGradient>
    <radialGradient cx="0" cy="0" gradientTransform="matrix(0.0154, 0.0, 0.0, 0.0154, 1.0, 3.0)" gradientUnits="userSpaceOnUse" id="gradient12" r="819.2" spreadMethod="pad">
      <stop offset="0.0" stop-color="#47324e"/>
      <stop offset="1.0" stop-color="#1c161d"/>
    </radialGradient>
    <radialGradient cx="0" cy="0" gradientTransform="matrix(0.0094, 0.0, 0.0, 0.0094, 7.35, -11.85)" gradientUnits="userSpaceOnUse" id="gradient13" r="819.2" spreadMethod="pad">
      <stop offset="0.2784313725490196" stop-color="#1c1817"/>
      <stop offset="1.0" stop-color="#462b28"/>
    </radialGradient>
    <radialGradient cx="0" cy="0" gradientTransform="matrix(0.0112, 0.0, 0.0, 0.0112, -2.25, -12.35)" gradientUnits="userSpaceOnUse" id="gradient14" r="819.2" spreadMethod="pad">
      <stop offset="0.2784313725490196" stop-color="#1c1817"/>
      <stop offset="1.0" stop-color="#462b28"/>
    </radialGradient>
    <radialGradient cx="0" cy="0" gradientTransform="matrix(0.003, 0.0, 0.0, 0.003, 6.5, 2.3)" gradientUnits="userSpaceOnUse" id="gradient15" r="819.2" spreadMethod="pad">
      <stop offset="0.2784313725490196" stop-color="#1c1817"/>
      <stop offset="1.0" stop-color="#462b28"/>
    </radialGradient>
    <radialGradient cx="0" cy="0" gradientTransform="matrix(0.0092, 0.0, 0.0, 0.0092, -2.25, 5.8)" gradientUnits="userSpaceOnUse" id="gradient16" r="819.2" spreadMethod="pad">
      <stop offset="0.2784313725490196" stop-color="#1c1817"/>
      <stop offset="1.0" stop-color="#462b28"/>
    </radialGradient>
    <radialGradient cx="0" cy="0" gradientTransform="matrix(0.007, 0.0, 0.0, 0.007, -1.45, -8.15)" gradientUnits="userSpaceOnUse" id="gradient17" r="819.2" spreadMethod="pad">
      <stop offset="0.3843137254901961" stop-color="#1c1a17"/>
      <stop offset="1.0" stop-color="#5a5a50"/>
    </radialGradient>
    <radialGradient cx="0" cy="0" gradientTransform="matrix(0.008, 0.0, 0.0, 0.008, 4.4, 0.15)" gradientUnits="userSpaceOnUse" id="gradient18" r="819.2" spreadMethod="pad">
      <stop offset="0.0" stop-color="#ffffff"/>
      <stop offset="0.42745098039215684" stop-color="#7c9aad"/>
      <stop offset="0.44313725490196076" stop-color="#58607c"/>
      <stop offset="0.6470588235294118" stop-color="#7e8aa3"/>
      <stop offset="1.0" stop-color="#c2cde7"/>
    </radialGradient>
  </defs>
</svg>
