<?xml version="1.0" encoding="UTF-8" standalone="no"?>
<svg xmlns:xlink="http://www.w3.org/1999/xlink" height="10.15px" width="7.85px" xmlns="http://www.w3.org/2000/svg">
  <g transform="matrix(1.0, 0.0, 0.0, 1.0, 1.45, 9.0)">
    <path d="M5.9 -9.0 Q5.5 -8.55 4.55 -8.4 L4.1 -8.3 2.5 -8.25 Q1.9 -8.3 1.45 -8.65 L5.1 -8.85 5.6 -8.95 5.75 -9.0 5.9 -9.0 M5.65 -8.5 L5.8 -8.55 5.6 -8.35 5.45 -8.25 5.35 -8.15 5.2 -8.15 5.35 -8.3 5.5 -8.4 5.65 -8.5 M1.3 -6.7 L0.2 -6.95 Q-0.3 -7.1 -0.7 -7.4 L-0.8 -7.65 -0.75 -8.0 -0.55 -8.4 -0.45 -8.45 -0.45 -8.3 -0.5 -8.2 -0.6 -8.1 -0.7 -7.9 -0.7 -7.8 -0.7 -7.7 -0.65 -7.65 -0.65 -7.55 Q-0.2 -7.1 0.55 -7.0 L1.3 -6.7 M4.85 -5.65 L5.15 -5.3 5.0 -4.95 Q4.8 -4.8 4.55 -4.95 L4.5 -5.05 4.5 -5.2 4.55 -5.4 4.7 -5.6 4.85 -5.65 M2.95 -5.25 L2.0 -5.2 0.1 -5.45 -0.3 -5.4 0.25 -4.85 1.25 -4.2 2.8 -3.4 Q4.15 -2.85 5.55 -3.0 6.3 -3.1 6.4 -2.6 L6.2 -2.25 4.85 -1.85 1.75 -1.9 1.6 -1.9 2.1 -1.7 Q2.55 -1.45 3.1 -1.45 L4.75 -1.25 4.8 -1.2 4.65 -0.85 4.45 -0.7 3.7 -0.45 3.4 -0.35 Q3.2 -0.2 2.9 -0.15 L2.35 -0.1 Q1.3 -0.05 1.55 0.2 L1.9 0.4 3.9 0.35 4.35 0.2 4.75 0.35 4.8 0.45 4.35 0.9 Q2.9 1.4 1.45 0.9 L0.4 0.35 -0.5 -0.3 Q-1.15 -0.75 -1.0 -1.45 L-0.65 -1.55 -0.25 -1.2 0.25 -0.8 1.1 -0.65 3.0 -0.8 3.35 -0.9 2.55 -1.15 1.3 -1.55 0.35 -1.9 -0.5 -2.2 -1.3 -2.65 -1.45 -2.9 Q-1.35 -3.3 -0.9 -3.05 L0.1 -2.65 1.75 -2.3 5.8 -2.45 3.3 -2.95 1.4 -3.85 0.15 -4.65 -0.9 -5.5 Q-1.2 -5.75 -0.9 -5.9 L0.3 -5.7 2.0 -5.3 3.0 -5.25 2.95 -5.25 M3.5 -6.15 L3.6 -6.2 Q3.9 -6.3 3.9 -6.0 L3.6 -5.8 Q3.25 -5.9 3.5 -6.15" fill="#ffffff" fill-rule="evenodd" stroke="none"/>
  </g>
</svg>
