<?xml version="1.0" encoding="UTF-8" standalone="no"?>
<svg xmlns:xlink="http://www.w3.org/1999/xlink" height="6.45px" width="8.3px" xmlns="http://www.w3.org/2000/svg">
  <g transform="matrix(1.0, 0.0, 0.0, 1.0, 3.75, 7.6)">
    <path d="M4.45 -5.2 L4.15 -4.25 4.05 -3.6 3.6 -2.65 3.5 -2.65 3.35 -2.65 2.5 -1.75 Q1.35 -0.7 -0.1 -1.5 -1.4 -2.2 -2.45 -2.15 -2.3 -2.6 -1.75 -2.6 -0.9 -2.55 -0.1 -2.1 L0.4 -1.7 Q1.5 -1.5 2.25 -2.3 L2.95 -3.05 0.45 -3.45 -1.5 -4.65 Q-2.3 -5.25 -3.3 -5.25 L-3.4 -5.2 -3.45 -5.1 -3.55 -5.0 -3.6 -4.95 -3.6 -4.85 -3.6 -4.75 -3.7 -4.7 -3.75 -4.8 -3.75 -5.0 -3.7 -5.15 -3.6 -5.45 -3.25 -5.7 Q-1.9 -5.6 -0.85 -4.75 0.2 -3.85 1.5 -3.85 L3.1 -3.55 3.05 -3.65 2.9 -4.15 2.8 -4.45 2.0 -4.85 0.45 -6.25 Q-0.95 -7.6 -2.7 -7.3 L-2.7 -7.4 -2.65 -7.45 -2.4 -7.55 -2.3 -7.55 -2.25 -7.6 -0.7 -7.35 Q0.25 -7.1 1.0 -6.4 L2.55 -5.2 2.8 -5.1 2.7 -5.7 4.55 -5.7 4.45 -5.2" fill="#ffffff" fill-rule="evenodd" stroke="none"/>
  </g>
</svg>
