<?xml version="1.0" encoding="UTF-8" standalone="no"?>
<svg xmlns:xlink="http://www.w3.org/1999/xlink" height="27.3px" width="27.7px" xmlns="http://www.w3.org/2000/svg">
  <g transform="matrix(1.0, 0.0, 0.0, 1.0, 15.8, 22.7)">
    <path d="M11.6 -13.35 Q12.25 -12.85 11.55 -12.1 L10.6 -10.95 9.6 -9.8 10.05 -9.95 10.8 -10.05 10.85 -9.4 10.35 -8.7 9.75 -8.25 9.85 -8.15 10.15 -7.85 10.2 -7.75 Q9.6 -7.1 8.6 -6.95 7.75 -6.8 7.5 -7.4 L7.5 -7.5 7.65 -7.7 7.75 -7.9 7.7 -7.95 7.6 -8.05 7.45 -8.25 Q7.3 -8.35 7.3 -8.55 L7.3 -8.7 7.35 -8.8 7.6 -8.95 7.9 -9.0 9.1 -10.6 10.3 -12.1 11.45 -13.25 11.6 -13.35 M6.55 -19.4 L6.3 -18.1 6.2 -16.9 6.55 -17.65 6.95 -18.7 Q7.1 -19.35 7.7 -19.3 7.8 -17.95 7.1 -16.55 L6.0 -13.8 Q5.6 -12.65 5.35 -11.5 L6.9 -13.8 8.3 -16.6 Q8.7 -17.55 9.55 -17.35 9.4 -16.15 8.7 -15.05 L7.2 -12.55 6.55 -10.8 6.65 -10.65 6.8 -10.5 6.8 -10.3 6.8 -10.2 5.85 -9.85 4.35 -10.15 Q3.7 -11.85 4.25 -13.8 L5.05 -17.25 Q5.35 -19.2 6.25 -20.6 6.75 -20.2 6.55 -19.4 M6.6 -8.45 Q6.35 -8.2 6.1 -8.45 L6.05 -8.55 6.0 -8.65 5.95 -8.7 5.95 -8.8 6.0 -8.9 6.1 -9.0 6.25 -9.1 6.4 -9.15 6.5 -9.15 6.5 -9.2 6.8 -8.85 6.6 -8.45 M6.5 -7.4 L6.5 -7.3 6.5 -7.2 6.5 -7.15 6.4 -7.05 4.15 -5.5 3.95 -4.85 Q3.6 -4.35 3.55 -3.75 L3.5 -3.5 3.65 -3.6 3.7 -3.65 3.85 -3.7 5.0 -3.65 5.15 -3.65 5.2 -3.55 5.3 -3.45 5.4 -3.25 5.45 -3.15 5.45 -3.05 5.4 -3.0 4.8 -3.0 3.7 -2.85 3.65 -2.75 3.65 -2.4 3.65 -2.15 4.2 -1.85 4.6 -1.25 4.65 -1.15 4.75 -1.0 4.95 -0.25 4.95 -0.15 4.85 -0.1 4.7 0.05 4.55 0.2 4.45 0.3 4.3 0.45 4.2 0.55 4.05 0.05 4.0 -0.5 3.75 -0.75 3.35 -0.95 3.3 -0.8 3.25 -0.55 3.25 -0.15 3.2 0.15 3.1 0.2 Q2.65 0.2 2.45 -0.35 L2.15 -0.9 1.75 -1.7 1.75 -1.75 -0.2 -1.45 Q-1.45 -1.05 -2.3 -0.1 -3.15 0.85 -3.05 2.2 L-2.85 2.65 -2.75 2.75 -2.35 2.95 -2.2 3.1 Q-3.7 3.55 -3.6 1.7 -3.55 0.7 -2.95 -0.1 -1.45 -2.0 1.0 -2.35 L1.25 -2.4 1.75 -2.4 2.3 -2.3 2.5 -2.15 2.6 -2.2 2.6 -2.3 1.45 -3.0 Q-0.25 -3.95 -2.0 -3.75 -3.3 -3.6 -3.5 -2.3 -3.6 -1.85 -3.75 -1.95 L-4.0 -2.35 -3.85 -3.2 -3.4 -3.9 -2.25 -4.65 -2.0 -4.7 0.15 -4.35 2.0 -3.5 1.15 -4.6 0.75 -5.2 0.45 -5.3 Q-1.1 -5.95 -2.35 -7.05 -3.7 -8.25 -4.8 -7.85 L-4.75 -7.75 -4.75 -7.65 -4.75 -7.55 -4.9 -7.45 -5.15 -7.4 -5.35 -7.45 -5.4 -7.55 -5.5 -7.85 -5.55 -8.2 -5.55 -8.35 -5.45 -8.65 -5.15 -8.8 Q-2.85 -8.65 -1.1 -7.05 0.3 -5.85 2.0 -5.85 L1.3 -6.25 Q0.75 -6.5 0.6 -7.05 L0.65 -7.2 Q0.9 -7.6 1.3 -7.35 L2.2 -6.75 Q2.45 -6.6 2.75 -6.6 L3.05 -6.95 3.2 -7.4 3.6 -7.75 3.6 -7.8 Q4.1 -7.4 3.7 -6.75 L3.3 -6.05 Q4.8 -6.45 6.05 -7.6 6.3 -7.8 6.45 -7.5 L6.5 -7.4 M8.65 -8.45 L8.5 -8.15 8.65 -8.25 8.75 -8.45 8.65 -8.45 M-7.45 -22.6 L-6.75 -19.35 -5.95 -15.4 -5.0 -11.45 -5.05 -11.3 -5.1 -11.25 -6.25 -11.25 Q-6.8 -11.05 -7.15 -11.4 L-7.2 -11.45 -7.15 -11.7 -7.05 -12.05 -7.1 -12.2 -7.15 -12.3 -7.35 -12.4 -7.7 -12.4 -8.65 -13.9 -10.1 -16.05 Q-10.85 -17.0 -11.15 -17.9 L-10.5 -17.8 -9.3 -16.45 -8.55 -15.35 -9.0 -16.45 -9.9 -18.25 -10.8 -20.05 -10.8 -20.2 Q-9.85 -20.35 -9.15 -18.95 L-7.9 -16.35 -6.9 -14.3 -6.85 -14.3 -7.05 -14.9 -7.25 -15.55 -7.3 -16.2 -7.3 -16.3 -7.25 -16.4 -7.2 -16.5 -7.0 -16.6 -6.95 -16.65 -7.15 -18.0 -7.6 -20.0 -8.15 -22.1 -8.25 -22.55 -8.25 -22.6 -7.65 -22.7 -7.45 -22.65 -7.45 -22.6 M-12.05 -12.55 L-11.1 -9.6 Q-10.6 -8.25 -10.95 -6.95 L-11.05 -6.9 -11.15 -6.9 -11.3 -6.9 -11.4 -6.9 -11.55 -6.95 -11.65 -6.85 -11.7 -6.75 -11.75 -6.7 -11.9 -6.65 -13.0 -7.25 -14.0 -8.0 Q-14.3 -8.15 -14.25 -8.5 -14.2 -8.95 -13.75 -8.75 L-12.9 -8.2 -12.6 -8.05 -12.6 -8.1 -12.6 -8.2 -12.6 -8.3 -12.6 -8.35 -12.45 -8.55 -13.7 -10.4 -15.2 -12.25 Q-15.75 -12.85 -15.8 -13.55 -14.9 -13.7 -14.2 -12.65 L-13.0 -10.8 -12.25 -10.0 -12.9 -11.55 -13.55 -13.35 Q-14.05 -14.5 -13.5 -15.05 L-13.5 -15.1 Q-12.45 -14.15 -12.05 -12.55 M-7.05 -7.5 L-7.0 -7.2 -7.0 -7.15 Q-7.05 -6.95 -7.25 -6.9 -7.75 -6.9 -7.75 -7.35 L-7.55 -7.65 -7.4 -7.75 -7.25 -7.65 -7.05 -7.5 M-5.55 -0.65 L-5.65 -1.1 -5.4 -1.4 -5.1 -1.3 -4.8 -1.15 -4.55 -0.9 -4.45 -0.75 -4.5 -0.5 -4.55 -0.3 -4.85 -0.05 -5.4 -0.05 -5.5 -0.35 -5.55 -0.65 M-0.15 3.8 L-0.25 4.3 -0.3 4.35 -0.75 4.6 Q-1.3 4.7 -1.6 4.25 L-1.65 4.15 -1.6 3.95 -1.5 3.7 -1.45 3.4 -1.35 3.2 -1.3 3.15 -1.15 3.15 -0.65 3.1 -0.25 3.35 -0.15 3.8 M-0.75 3.65 L-1.0 3.6 -0.95 3.95 Q-0.7 4.1 -0.7 3.85 L-0.75 3.65" fill="#ffffff" fill-rule="evenodd" stroke="none"/>
  </g>
</svg>
