<?xml version="1.0" encoding="UTF-8" standalone="no"?>
<svg xmlns:xlink="http://www.w3.org/1999/xlink" height="21.8px" width="13.9px" xmlns="http://www.w3.org/2000/svg">
  <g transform="matrix(1.0, 0.0, 0.0, 1.0, 8.4, 15.85)">
    <path d="M-5.05 -14.3 L-3.9 -14.7 -1.3 -8.05 -3.6 -7.1 -5.05 -14.3" fill="url(#gradient0)" fill-rule="evenodd" stroke="none"/>
    <path d="M3.1 -7.8 L0.45 -8.45 -0.05 -15.65 1.2 -15.85 3.1 -7.8" fill="url(#gradient1)" fill-rule="evenodd" stroke="none"/>
    <path d="M3.1 -7.8 L0.45 -8.45 -0.05 -15.65 1.2 -15.85 3.1 -7.8 M-5.05 -14.3 L-3.9 -14.7 -1.3 -8.05 -3.6 -7.1 -5.05 -14.3 Z" fill="none" stroke="#000000" stroke-linecap="round" stroke-linejoin="round" stroke-width="0.05"/>
    <path d="M2.95 -8.65 L2.1 -6.55 2.6 -4.2 Q-0.7 -5.1 -3.9 -7.55 -1.45 -7.65 -1.05 -8.95 0.95 -9.45 2.95 -8.65" fill="url(#gradient2)" fill-rule="evenodd" stroke="none"/>
    <path d="M-5.5 -5.95 Q-1.85 -2.3 2.7 -1.3 2.3 1.0 -0.05 1.7 L-7.05 -1.6 -7.05 -1.7 Q-6.75 -4.3 -5.55 -5.95 L-5.5 -5.95" fill="url(#gradient3)" fill-rule="evenodd" stroke="none"/>
    <path d="M2.95 -8.65 L3.35 -9.55 5.5 -8.95 Q4.15 -7.0 4.2 -4.45 L4.95 -0.55 Q3.25 4.6 -0.35 5.95 -3.1 2.55 -8.2 0.8 L-8.4 -1.05 -7.15 -1.65 -7.05 -1.6 -0.05 1.7 Q2.3 1.0 2.7 -1.3 -1.85 -2.3 -5.5 -5.95 L-5.6 -6.0 -6.4 -7.05 -4.9 -8.7 -3.9 -7.55 Q-0.7 -5.1 2.6 -4.2 L2.1 -6.55 2.95 -8.65" fill="url(#gradient4)" fill-rule="evenodd" stroke="none"/>
    <path d="M-7.05 -1.6 L-7.15 -1.65 -8.4 -1.05 -8.2 0.8 Q-3.1 2.55 -0.35 5.95 3.25 4.6 4.95 -0.55 L4.2 -4.45 Q4.15 -7.0 5.5 -8.95 L3.35 -9.55 2.95 -8.65 2.1 -6.55 2.6 -4.2 Q-0.7 -5.1 -3.9 -7.55 L-4.9 -8.7 -6.4 -7.05 -5.6 -6.0 -5.5 -5.95 Q-1.85 -2.3 2.7 -1.3 2.3 1.0 -0.05 1.7 L-7.05 -1.6 M-7.05 -1.7 L-7.15 -1.65 M2.95 -8.65 Q0.95 -9.45 -1.05 -8.95 -1.45 -7.65 -3.9 -7.55 M-5.55 -5.95 Q-6.75 -4.3 -7.05 -1.7 M-5.6 -6.0 L-5.55 -5.95" fill="none" stroke="#000000" stroke-linecap="round" stroke-linejoin="round" stroke-width="0.05"/>
  </g>
  <defs>
    <radialGradient cx="0" cy="0" gradientTransform="matrix(0.0078, 0.0, 0.0, 0.0078, -4.0, -13.5)" gradientUnits="userSpaceOnUse" id="gradient0" r="819.2" spreadMethod="pad">
      <stop offset="0.0" stop-color="#c88a2f"/>
      <stop offset="1.0" stop-color="#643e35"/>
    </radialGradient>
    <radialGradient cx="0" cy="0" gradientTransform="matrix(0.0092, 0.0, 0.0, 0.0092, 0.25, -14.75)" gradientUnits="userSpaceOnUse" id="gradient1" r="819.2" spreadMethod="pad">
      <stop offset="0.0" stop-color="#c88a2f"/>
      <stop offset="1.0" stop-color="#643e35"/>
    </radialGradient>
    <radialGradient cx="0" cy="0" gradientTransform="matrix(0.0057, 0.0, 0.0, 0.0057, -0.65, -7.5)" gradientUnits="userSpaceOnUse" id="gradient2" r="819.2" spreadMethod="pad">
      <stop offset="0.0" stop-color="#5b6568"/>
      <stop offset="0.30980392156862746" stop-color="#2c2f34"/>
      <stop offset="1.0" stop-color="#18161d"/>
    </radialGradient>
    <radialGradient cx="0" cy="0" gradientTransform="matrix(0.0095, 0.0, 0.0, 0.0095, -4.5, -2.75)" gradientUnits="userSpaceOnUse" id="gradient3" r="819.2" spreadMethod="pad">
      <stop offset="0.0" stop-color="#5b6568"/>
      <stop offset="0.30980392156862746" stop-color="#2c2f34"/>
      <stop offset="1.0" stop-color="#18161d"/>
    </radialGradient>
    <radialGradient cx="0" cy="0" gradientTransform="matrix(0.0159, 0.0, 0.0, 0.0159, -0.4, 2.65)" gradientUnits="userSpaceOnUse" id="gradient4" r="819.2" spreadMethod="pad">
      <stop offset="0.0" stop-color="#ffffff"/>
      <stop offset="0.42745098039215684" stop-color="#dcb04e"/>
      <stop offset="0.44313725490196076" stop-color="#a7762e"/>
      <stop offset="0.6470588235294118" stop-color="#deaf43"/>
      <stop offset="1.0" stop-color="#ecdebd"/>
    </radialGradient>
  </defs>
</svg>
