<?xml version="1.0" encoding="UTF-8" standalone="no"?>
<svg xmlns:xlink="http://www.w3.org/1999/xlink" height="64.0px" width="24.5px" xmlns="http://www.w3.org/2000/svg">
  <g transform="matrix(1.0, 0.0, 0.0, 1.0, 9.9, 25.35)">
    <path d="M6.0 -18.15 L7.3 -25.35 8.25 -25.15 7.9 -18.65 Q6.95 -18.65 6.0 -18.15" fill="url(#gradient0)" fill-rule="evenodd" stroke="none"/>
    <path d="M9.3 -17.8 L11.15 -24.2 12.05 -23.8 11.05 -17.05 Q9.8 -17.15 9.3 -17.8" fill="url(#gradient1)" fill-rule="evenodd" stroke="none"/>
    <path d="M11.15 -17.05 L11.95 -18.2 13.1 -16.55 12.45 -15.5 12.4 -15.45 Q9.6 -11.8 6.15 -10.8 6.45 -8.5 8.25 -7.8 L13.6 -11.1 13.65 -11.15 14.6 -10.55 14.45 -8.7 Q10.55 -6.95 8.45 -3.55 5.7 -4.9 4.45 -10.05 L5.0 -13.95 Q5.05 -16.5 4.0 -18.45 L5.65 -19.05 5.95 -18.15 6.6 -16.05 6.2 -13.7 Q8.55 -14.55 10.8 -16.7 L11.0 -16.9 11.15 -17.05" fill="url(#gradient2)" fill-rule="evenodd" stroke="none"/>
    <path d="M12.45 -15.45 Q13.35 -13.8 13.6 -11.2 L13.6 -11.1 8.25 -7.8 Q6.45 -8.5 6.15 -10.8 9.6 -11.8 12.4 -15.45 L12.45 -15.45" fill="url(#gradient3)" fill-rule="evenodd" stroke="none"/>
    <path d="M6.0 -18.15 Q6.95 -18.65 7.9 -18.65 L9.0 -18.45 9.3 -17.8 Q9.8 -17.15 11.05 -17.05 L11.15 -17.05 11.0 -16.9 10.8 -16.7 Q8.55 -14.55 6.2 -13.7 L6.6 -16.05 5.95 -18.15 6.0 -18.15" fill="url(#gradient4)" fill-rule="evenodd" stroke="none"/>
    <path d="M7.9 -18.65 L8.25 -25.15 7.3 -25.35 6.0 -18.15 Q6.95 -18.65 7.9 -18.65 L9.0 -18.45 9.3 -17.8 11.15 -24.2 12.05 -23.8 11.05 -17.05 11.15 -17.05 11.95 -18.2 13.1 -16.55 12.45 -15.5 12.45 -15.45 Q13.35 -13.8 13.6 -11.2 L13.65 -11.15 14.6 -10.55 14.45 -8.7 Q10.55 -6.95 8.45 -3.55 5.7 -4.9 4.45 -10.05 L5.0 -13.95 Q5.05 -16.5 4.0 -18.45 L5.65 -19.05 5.95 -18.15 6.0 -18.15 M11.15 -17.05 L11.0 -16.9 10.8 -16.7 Q8.55 -14.55 6.2 -13.7 L6.6 -16.05 5.95 -18.15 M12.4 -15.45 L12.45 -15.5 M13.6 -11.1 L8.25 -7.8 Q6.45 -8.5 6.15 -10.8 9.6 -11.8 12.4 -15.45 M13.65 -11.15 L13.6 -11.1 M11.05 -17.05 Q9.8 -17.15 9.3 -17.8" fill="none" stroke="#000000" stroke-linecap="round" stroke-linejoin="round" stroke-width="0.05"/>
    <path d="M-5.1 4.45 L-5.1 4.4 -4.95 4.45 -5.1 4.45" fill="url(#gradient5)" fill-rule="evenodd" stroke="none"/>
    <path d="M-5.85 -4.35 L-6.4 -5.55 -6.15 -5.6 -5.85 -4.35" fill="#333333" fill-rule="evenodd" stroke="none"/>
    <path d="M-6.2 -5.7 L-6.25 -5.7 -6.3 -5.7 -6.2 -5.7" fill="url(#gradient6)" fill-rule="evenodd" stroke="none"/>
    <path d="M5.8 8.8 L5.7 10.05 5.65 10.05 5.8 8.8" fill="url(#gradient7)" fill-rule="evenodd" stroke="none"/>
    <path d="M5.45 -3.2 L5.45 -3.3 5.55 -3.25 5.45 -3.2" fill="#5e5e5e" fill-rule="evenodd" stroke="none"/>
    <path d="M-1.95 -14.05 L-1.9 -12.65 -1.9 -12.15 Q-1.95 -10.55 -2.4 -9.3 -3.4 -6.7 -6.15 -5.6 L-6.2 -5.7 -6.3 -5.7 -9.9 -7.8 Q-9.9 -11.6 -5.2 -13.65 L-1.95 -14.05" fill="url(#gradient8)" fill-rule="evenodd" stroke="none"/>
    <path d="M3.35 -12.35 L5.4 -11.5 6.45 -9.5 5.2 -6.05 -1.15 -11.5 -1.9 -12.15 -1.9 -12.65 -1.95 -14.05 -1.75 -14.1 3.35 -12.35" fill="url(#gradient9)" fill-rule="evenodd" stroke="none"/>
    <path d="M3.35 -12.35 L-1.75 -14.1 -0.05 -16.4 4.4 -13.1 3.35 -12.35" fill="url(#gradient10)" fill-rule="evenodd" stroke="none"/>
    <path d="M-4.7 8.75 L-5.1 4.45 -4.95 4.45 -1.8 4.65 -1.8 9.1 -4.7 8.75" fill="url(#gradient11)" fill-rule="evenodd" stroke="none"/>
    <path d="M1.75 4.85 L3.3 4.95 3.6 9.8 -1.8 9.1 -1.8 4.65 -1.35 4.65 1.75 4.85" fill="url(#gradient12)" fill-rule="evenodd" stroke="none"/>
    <path d="M4.95 5.05 L5.0 5.05 Q5.75 7.0 5.8 8.8 L5.65 10.05 3.6 9.8 3.3 4.95 4.05 5.0 4.95 5.05" fill="url(#gradient13)" fill-rule="evenodd" stroke="none"/>
    <path d="M5.7 10.05 L5.8 10.05 5.95 13.05 2.15 16.45 -5.0 12.6 -4.7 8.75 -1.8 9.1 3.6 9.8 5.65 10.05 5.7 10.05" fill="url(#gradient14)" fill-rule="evenodd" stroke="none"/>
    <path d="M-4.95 4.45 L-4.85 3.15 -3.3 2.05 -3.3 0.3 -0.4 -1.45 Q-1.5 0.4 -1.5 2.85 L-1.35 4.65 -1.8 4.65 -4.95 4.45" fill="url(#gradient15)" fill-rule="evenodd" stroke="none"/>
    <path d="M-1.9 -12.15 L-1.15 -11.5 0.95 -7.2 -3.85 -2.75 -4.05 -3.45 -5.6 -3.5 -5.85 -4.35 -6.15 -5.6 Q-3.4 -6.7 -2.4 -9.3 -1.95 -10.55 -1.9 -12.15" fill="url(#gradient16)" fill-rule="evenodd" stroke="none"/>
    <path d="M2.25 -3.05 L2.35 -2.5 Q2.8 0.45 1.75 4.85 L-1.35 4.65 -1.5 2.85 Q-1.5 0.4 -0.4 -1.45 L2.25 -3.05" fill="url(#gradient17)" fill-rule="evenodd" stroke="none"/>
    <path d="M-1.15 -11.5 L5.2 -6.05 6.45 -9.5 7.4 -7.8 7.75 -4.2 7.3 -3.3 7.1 -2.95 6.75 -2.1 5.55 -3.25 5.45 -3.3 Q4.5 -3.9 3.4 -3.9 L2.1 -3.65 0.95 -7.2 -1.15 -11.5 M-4.85 3.15 L-5.45 3.55 Q-5.3 0.15 -6.35 -3.55 L-5.6 -3.5 -4.05 -3.45 -3.85 -2.75 -3.3 0.3 -3.3 2.05 -4.85 3.15 M5.2 -6.05 L5.45 -3.3 5.2 -6.05" fill="#ada585" fill-rule="evenodd" stroke="none"/>
    <path d="M2.1 -3.65 L2.25 -3.05 -0.4 -1.45 -3.3 0.3 -3.85 -2.75 0.95 -7.2 2.1 -3.65" fill="#91956a" fill-rule="evenodd" stroke="none"/>
    <path d="M6.75 -2.1 L6.55 -1.65 4.95 5.05 4.05 5.0 3.3 4.95 1.75 4.85 Q2.8 0.45 2.35 -2.5 L2.25 -3.05 2.1 -3.65 3.4 -3.9 Q4.5 -3.9 5.45 -3.3 L5.45 -3.2 5.55 -3.25 6.75 -2.1 M5.45 -3.2 L4.05 5.0 5.45 -3.2" fill="#71684a" fill-rule="evenodd" stroke="none"/>
    <path d="M6.45 -9.5 L5.4 -11.5 3.35 -12.35 -1.75 -14.1 -1.95 -14.05 -1.9 -12.65 -1.9 -12.15 -1.15 -11.5 5.2 -6.05 6.45 -9.5 7.4 -7.8 7.75 -4.2 7.3 -3.3 7.1 -2.95 6.75 -2.1 6.55 -1.65 4.95 5.05 5.0 5.05 Q5.75 7.0 5.8 8.8 L5.7 10.05 5.8 10.05 5.95 13.05 M-5.0 12.6 L-4.7 8.75 -5.1 4.45 -5.1 4.4 -4.95 4.45 -4.85 3.15 -5.45 3.55 Q-5.3 0.15 -6.35 -3.55 L-5.6 -3.5 -5.85 -4.35 -6.15 -5.6 -6.2 -5.7 -6.25 -5.7 -6.3 -5.7 -9.9 -7.8 Q-9.9 -11.6 -5.2 -13.65 L-1.95 -14.05 M2.25 -3.05 L2.35 -2.5 Q2.8 0.45 1.75 4.85 L3.3 4.95 4.05 5.0 5.45 -3.2 5.45 -3.3 5.2 -6.05 M2.1 -3.65 L2.25 -3.05 -0.4 -1.45 -3.3 0.3 -3.3 2.05 -4.85 3.15 M-1.35 4.65 L1.75 4.85 M0.95 -7.2 L2.1 -3.65 M3.35 -12.35 L4.4 -13.1 -0.05 -16.4 -1.75 -14.1 M4.05 5.0 L4.95 5.05 M5.65 10.05 L5.7 10.05 M5.65 10.05 L3.6 9.8 -1.8 9.1 -4.7 8.75 M3.3 4.95 L3.6 9.8 M-1.9 -12.15 Q-1.95 -10.55 -2.4 -9.3 -3.4 -6.7 -6.15 -5.6 M-3.85 -2.75 L-4.05 -3.45 -5.6 -3.5 M-1.35 4.65 L-1.8 4.65 -1.8 9.1 M-1.8 4.65 L-4.95 4.45 M-3.85 -2.75 L-3.3 0.3 M0.95 -7.2 L-3.85 -2.75 M-1.15 -11.5 L0.95 -7.2" fill="none" stroke="#000000" stroke-linecap="round" stroke-linejoin="round" stroke-width="0.05"/>
    <path d="M6.2 12.3 L4.8 12.3 4.15 9.9 5.55 10.05 6.2 12.3 M5.5 15.9 L6.9 15.6 Q7.55 19.2 8.6 22.6 L7.0 23.05 Q6.05 19.5 5.5 15.9 M1.05 16.55 Q1.45 20.35 2.4 23.95 L-1.25 24.55 -2.3 17.0 1.05 16.55 M4.8 30.2 Q6.4 33.5 7.8 36.95 L3.6 38.65 Q2.6 34.75 0.95 31.05 L4.8 30.2 M12.7 34.9 Q10.9 31.8 9.45 28.9 L11.15 28.4 14.6 34.1 Q13.55 34.4 12.7 34.9 M0.5 12.3 L-2.7 12.3 Q-2.85 10.5 -3.35 8.9 L-0.1 9.3 0.5 12.3" fill="#ada585" fill-rule="evenodd" stroke="none"/>
    <path d="M4.8 12.3 L6.2 12.3 6.9 15.6 5.5 15.9 4.8 12.3 M2.4 23.95 Q3.2 27.0 4.8 30.2 L0.95 31.05 Q-0.35 27.8 -1.25 24.55 L2.4 23.95 M9.45 28.9 Q7.75 26.0 7.0 23.05 L8.6 22.6 Q9.4 25.4 11.15 28.4 L9.45 28.9 M0.5 12.3 L1.05 16.55 -2.3 17.0 -2.7 12.3 0.5 12.3" fill="#91956a" fill-rule="evenodd" stroke="none"/>
    <path d="M4.15 9.9 L4.8 12.3 5.5 15.9 Q6.05 19.5 7.0 23.05 7.75 26.0 9.45 28.9 10.9 31.8 12.7 34.9 L7.8 36.95 Q6.4 33.5 4.8 30.2 3.2 27.0 2.4 23.95 1.45 20.35 1.05 16.55 L0.5 12.3 -0.1 9.3 4.15 9.9" fill="url(#gradient18)" fill-rule="evenodd" stroke="none"/>
    <path d="M4.8 12.3 L6.2 12.3 5.55 10.05 4.15 9.9 4.8 12.3 5.5 15.9 6.9 15.6 6.2 12.3 M1.05 16.55 Q1.45 20.35 2.4 23.95 3.2 27.0 4.8 30.2 6.4 33.5 7.8 36.95 L12.7 34.9 Q10.9 31.8 9.45 28.9 7.75 26.0 7.0 23.05 6.05 19.5 5.5 15.9 M8.6 22.6 L7.0 23.05 M6.9 15.6 Q7.55 19.2 8.6 22.6 9.4 25.4 11.15 28.4 L14.6 34.1 Q13.55 34.4 12.7 34.9 M1.05 16.55 L0.5 12.3 -2.7 12.3 -2.3 17.0 1.05 16.55 M0.95 31.05 L4.8 30.2 M7.8 36.95 L3.6 38.65 Q2.6 34.75 0.95 31.05 -0.35 27.8 -1.25 24.55 L-2.3 17.0 M9.45 28.9 L11.15 28.4 M-0.1 9.3 L-3.35 8.9 Q-2.85 10.5 -2.7 12.3 M4.15 9.9 L-0.1 9.3 0.5 12.3 M2.4 23.95 L-1.25 24.55" fill="none" stroke="#000000" stroke-linecap="round" stroke-linejoin="round" stroke-width="0.05"/>
  </g>
  <defs>
    <radialGradient cx="0" cy="0" gradientTransform="matrix(-0.007, 0.0, 0.0, 0.0092, 8.0, -24.25)" gradientUnits="userSpaceOnUse" id="gradient0" r="819.2" spreadMethod="pad">
      <stop offset="0.0" stop-color="#c88a2f"/>
      <stop offset="1.0" stop-color="#643e35"/>
    </radialGradient>
    <radialGradient cx="0" cy="0" gradientTransform="matrix(-0.006, 0.0, 0.0, 0.0078, 11.25, -23.0)" gradientUnits="userSpaceOnUse" id="gradient1" r="819.2" spreadMethod="pad">
      <stop offset="0.0" stop-color="#c88a2f"/>
      <stop offset="1.0" stop-color="#643e35"/>
    </radialGradient>
    <radialGradient cx="0" cy="0" gradientTransform="matrix(-0.0121, 0.0, 0.0, 0.0159, 8.5, -6.85)" gradientUnits="userSpaceOnUse" id="gradient2" r="819.2" spreadMethod="pad">
      <stop offset="0.0" stop-color="#ffffff"/>
      <stop offset="0.42745098039215684" stop-color="#dcb04e"/>
      <stop offset="0.44313725490196076" stop-color="#a7762e"/>
      <stop offset="0.6470588235294118" stop-color="#deaf43"/>
      <stop offset="1.0" stop-color="#ecdebd"/>
    </radialGradient>
    <radialGradient cx="0" cy="0" gradientTransform="matrix(-0.0072, 0.0, 0.0, 0.0095, 11.65, -12.25)" gradientUnits="userSpaceOnUse" id="gradient3" r="819.2" spreadMethod="pad">
      <stop offset="0.0" stop-color="#5b6568"/>
      <stop offset="0.30980392156862746" stop-color="#2c2f34"/>
      <stop offset="1.0" stop-color="#18161d"/>
    </radialGradient>
    <radialGradient cx="0" cy="0" gradientTransform="matrix(-0.0043, 0.0, 0.0, 0.0057, 8.7, -17.0)" gradientUnits="userSpaceOnUse" id="gradient4" r="819.2" spreadMethod="pad">
      <stop offset="0.0" stop-color="#5b6568"/>
      <stop offset="0.30980392156862746" stop-color="#2c2f34"/>
      <stop offset="1.0" stop-color="#18161d"/>
    </radialGradient>
    <radialGradient cx="0" cy="0" gradientTransform="matrix(0.0103, 4.0E-4, -5.0E-4, 0.0101, 3.05, 6.65)" gradientUnits="userSpaceOnUse" id="gradient5" r="819.2" spreadMethod="pad">
      <stop offset="0.0" stop-color="#a89786"/>
      <stop offset="1.0" stop-color="#484037"/>
    </radialGradient>
    <radialGradient cx="0" cy="0" gradientTransform="matrix(0.0077, 0.0, 0.0, 0.0077, -4.5, -11.0)" gradientUnits="userSpaceOnUse" id="gradient6" r="819.2" spreadMethod="pad">
      <stop offset="0.0" stop-color="#454545"/>
      <stop offset="1.0" stop-color="#1b1b1b"/>
    </radialGradient>
    <radialGradient cx="0" cy="0" gradientTransform="matrix(0.0103, 4.0E-4, -5.0E-4, 0.0101, 3.05, 6.65)" gradientUnits="userSpaceOnUse" id="gradient7" r="819.2" spreadMethod="pad">
      <stop offset="0.0" stop-color="#a2a2a2"/>
      <stop offset="1.0" stop-color="#6a6a6a"/>
    </radialGradient>
    <radialGradient cx="0" cy="0" gradientTransform="matrix(0.0082, 0.0, 0.0, 0.0082, -7.85, -10.9)" gradientUnits="userSpaceOnUse" id="gradient8" r="819.2" spreadMethod="pad">
      <stop offset="0.0" stop-color="#554444"/>
      <stop offset="1.0" stop-color="#252730"/>
    </radialGradient>
    <radialGradient cx="0" cy="0" gradientTransform="matrix(0.0079, 0.0, 0.0, 0.0079, 2.9, -9.75)" gradientUnits="userSpaceOnUse" id="gradient9" r="819.2" spreadMethod="pad">
      <stop offset="0.0" stop-color="#554444"/>
      <stop offset="1.0" stop-color="#252730"/>
    </radialGradient>
    <radialGradient cx="0" cy="0" gradientTransform="matrix(0.0042, 0.0, 0.0, 0.0042, 1.15, -14.15)" gradientUnits="userSpaceOnUse" id="gradient10" r="819.2" spreadMethod="pad">
      <stop offset="0.0" stop-color="#554444"/>
      <stop offset="1.0" stop-color="#252730"/>
    </radialGradient>
    <radialGradient cx="0" cy="0" gradientTransform="matrix(0.0043, 0.0, 0.0, 0.0043, -3.5, 7.6)" gradientUnits="userSpaceOnUse" id="gradient11" r="819.2" spreadMethod="pad">
      <stop offset="0.0" stop-color="#554444"/>
      <stop offset="1.0" stop-color="#252730"/>
    </radialGradient>
    <radialGradient cx="0" cy="0" gradientTransform="matrix(0.0054, 0.0, 0.0, 0.0054, -0.25, 7.6)" gradientUnits="userSpaceOnUse" id="gradient12" r="819.2" spreadMethod="pad">
      <stop offset="0.0" stop-color="#554444"/>
      <stop offset="1.0" stop-color="#252730"/>
    </radialGradient>
    <radialGradient cx="0" cy="0" gradientTransform="matrix(0.004, 0.0, 0.0, 0.004, 4.9, 7.85)" gradientUnits="userSpaceOnUse" id="gradient13" r="819.2" spreadMethod="pad">
      <stop offset="0.0" stop-color="#554444"/>
      <stop offset="1.0" stop-color="#252730"/>
    </radialGradient>
    <radialGradient cx="0" cy="0" gradientTransform="matrix(0.0123, 0.0, 0.0, 0.0123, -4.0, 11.75)" gradientUnits="userSpaceOnUse" id="gradient14" r="819.2" spreadMethod="pad">
      <stop offset="0.0" stop-color="#554444"/>
      <stop offset="1.0" stop-color="#252730"/>
    </radialGradient>
    <radialGradient cx="0" cy="0" gradientTransform="matrix(0.0083, 0.0, 0.0, 0.0083, -1.0, -0.65)" gradientUnits="userSpaceOnUse" id="gradient15" r="819.2" spreadMethod="pad">
      <stop offset="0.0" stop-color="#5b6568"/>
      <stop offset="0.30980392156862746" stop-color="#2c2f34"/>
      <stop offset="1.0" stop-color="#18161d"/>
    </radialGradient>
    <radialGradient cx="0" cy="0" gradientTransform="matrix(0.0124, 0.0, 0.0, 0.0124, -0.6, -5.25)" gradientUnits="userSpaceOnUse" id="gradient16" r="819.2" spreadMethod="pad">
      <stop offset="0.0" stop-color="#5b6568"/>
      <stop offset="0.30980392156862746" stop-color="#2c2f34"/>
      <stop offset="1.0" stop-color="#18161d"/>
    </radialGradient>
    <radialGradient cx="0" cy="0" gradientTransform="matrix(0.0084, 0.0, 0.0, 0.0084, 5.4, 5.25)" gradientUnits="userSpaceOnUse" id="gradient17" r="819.2" spreadMethod="pad">
      <stop offset="0.0" stop-color="#5b6568"/>
      <stop offset="0.30980392156862746" stop-color="#2c2f34"/>
      <stop offset="1.0" stop-color="#18161d"/>
    </radialGradient>
    <linearGradient gradientTransform="matrix(0.0018, 0.0172, -0.0061, 6.0E-4, 6.45, 22.85)" gradientUnits="userSpaceOnUse" id="gradient18" spreadMethod="pad" x1="-819.2" x2="819.2">
      <stop offset="0.0" stop-color="#7c4d47"/>
      <stop offset="1.0" stop-color="#655845"/>
    </linearGradient>
  </defs>
</svg>
