<?xml version="1.0" encoding="UTF-8" standalone="no"?>
<svg xmlns:xlink="http://www.w3.org/1999/xlink" height="18.35px" width="6.6px" xmlns="http://www.w3.org/2000/svg">
  <g transform="matrix(1.0, 0.0, 0.0, 1.0, 3.1, 9.15)">
    <path d="M2.3 -6.9 Q2.8 -4.25 2.65 -2.1 L1.85 0.8 Q0.7 3.15 1.45 4.85 L1.55 4.9 1.55 4.95 1.55 5.0 1.5 5.05 0.7 6.85 1.0 8.4 0.1 9.2 -2.7 6.1 -2.25 4.05 -2.25 4.0 Q-1.7 1.55 -2.4 -1.05 L-2.3 -4.55 Q-2.15 -6.1 -0.6 -9.15 L2.3 -6.9 M1.55 4.95 L1.45 4.85 1.55 4.95" fill="#4d6277" fill-rule="evenodd" stroke="none"/>
    <path d="M2.3 -6.9 Q2.8 -4.25 2.65 -2.1 L1.85 0.8 Q0.7 3.15 1.45 4.85 L1.55 4.95 1.55 5.0 1.5 5.05 0.7 6.85 1.0 8.4 0.1 9.2 -2.7 6.1 -2.25 4.05 -2.25 4.0 Q-1.7 1.55 -2.4 -1.05 L-2.3 -4.55 Q-2.15 -6.1 -0.6 -9.15 M1.55 4.9 L1.55 4.95" fill="none" stroke="#000000" stroke-linecap="round" stroke-linejoin="round" stroke-width="0.05"/>
    <path d="M1.45 4.85 L1.55 4.9 1.55 4.95 1.55 5.0 1.5 5.05 1.55 4.95 1.45 4.85" fill="#4d6277" fill-rule="evenodd" stroke="none"/>
    <path d="M1.45 4.85 L1.55 4.95 1.5 5.05 1.45 4.85" fill="url(#gradient0)" fill-rule="evenodd" stroke="none"/>
    <path d="M2.55 -5.5 L2.7 -2.55 2.65 -2.1 1.85 0.8 1.75 0.95 Q1.2 2.2 1.15 3.25 L1.15 3.65 Q-0.5 4.25 -2.15 3.3 L-2.0 1.9 Q-2.0 0.7 -2.3 -0.5 L-2.4 -1.05 -2.3 -4.55 -2.25 -4.85 -1.15 -8.0 Q0.4 -6.15 2.55 -5.5" fill="url(#gradient1)" fill-rule="evenodd" stroke="none"/>
    <path d="M1.15 3.65 L1.45 4.85 1.5 5.05 0.7 6.85 1.0 8.4 0.1 9.2 -2.7 6.1 -2.25 4.05 -2.25 4.0 -2.15 3.3 Q-0.5 4.25 1.15 3.65" fill="url(#gradient2)" fill-rule="evenodd" stroke="none"/>
    <path d="M2.3 -6.9 L2.55 -5.5 Q0.4 -6.15 -1.15 -8.0 L-0.6 -9.15 2.3 -6.9" fill="url(#gradient3)" fill-rule="evenodd" stroke="none"/>
    <path d="M2.3 -6.9 L2.55 -5.5 2.7 -2.55 2.65 -2.1 1.85 0.8 1.75 0.95 Q1.2 2.2 1.15 3.25 L1.15 3.65 1.45 4.85 1.55 4.95 1.55 5.0 1.5 5.05 0.7 6.85 1.0 8.4 0.1 9.2 -2.7 6.1 -2.25 4.05 -2.25 4.0 -2.15 3.3 -2.0 1.9 Q-2.0 0.7 -2.3 -0.5 L-2.4 -1.05 -2.3 -4.55 -2.25 -4.85 -1.15 -8.0 -0.6 -9.15 M1.55 4.9 L1.55 4.95 M-1.15 -8.0 Q0.4 -6.15 2.55 -5.5 M1.15 3.65 Q-0.5 4.25 -2.15 3.3" fill="none" stroke="#000000" stroke-linecap="round" stroke-linejoin="round" stroke-width="0.05"/>
    <path d="M-0.9 -2.25 L-3.1 -4.3 -2.85 -6.7 3.5 -1.3 2.65 1.05 1.35 -0.15 -0.9 -2.25" fill="url(#gradient4)" fill-rule="evenodd" stroke="none"/>
    <path d="M-0.9 -2.25 L1.35 -0.15 -2.5 1.8 -3.1 -0.2 -0.9 -2.25" fill="url(#gradient5)" fill-rule="evenodd" stroke="none"/>
    <path d="M1.35 -0.15 L2.65 1.05 3.5 -1.3 -2.85 -6.7 -3.1 -4.3 -0.9 -2.25 1.35 -0.15 -2.5 1.8 -3.1 -0.2 -0.9 -2.25" fill="none" stroke="#000000" stroke-linecap="round" stroke-linejoin="round" stroke-width="0.05"/>
  </g>
  <defs>
    <radialGradient cx="0" cy="0" gradientTransform="matrix(0.0058, 0.0, 0.0, 0.0058, -0.25, 7.65)" gradientUnits="userSpaceOnUse" id="gradient0" r="819.2" spreadMethod="pad">
      <stop offset="0.0" stop-color="#957951"/>
      <stop offset="1.0" stop-color="#4e403a"/>
    </radialGradient>
    <radialGradient cx="0" cy="0" gradientTransform="matrix(0.0136, 0.0, 0.0, 0.0136, 0.75, 3.0)" gradientUnits="userSpaceOnUse" id="gradient1" r="819.2" spreadMethod="pad">
      <stop offset="0.0" stop-color="#586248"/>
      <stop offset="1.0" stop-color="#232923"/>
    </radialGradient>
    <radialGradient cx="0" cy="0" gradientTransform="matrix(0.0058, 0.0, 0.0, 0.0058, -0.25, 7.65)" gradientUnits="userSpaceOnUse" id="gradient2" r="819.2" spreadMethod="pad">
      <stop offset="0.0" stop-color="#586248"/>
      <stop offset="1.0" stop-color="#232923"/>
    </radialGradient>
    <radialGradient cx="0" cy="0" gradientTransform="matrix(0.0035, 0.0, 0.0, 0.0035, 1.4, -7.1)" gradientUnits="userSpaceOnUse" id="gradient3" r="819.2" spreadMethod="pad">
      <stop offset="0.0" stop-color="#8d8758"/>
      <stop offset="1.0" stop-color="#475137"/>
    </radialGradient>
    <radialGradient cx="0" cy="0" gradientTransform="matrix(0.0092, 0.0, 0.0, 0.0092, 2.15, -1.1)" gradientUnits="userSpaceOnUse" id="gradient4" r="819.2" spreadMethod="pad">
      <stop offset="0.0" stop-color="#586248"/>
      <stop offset="1.0" stop-color="#232923"/>
    </radialGradient>
    <radialGradient cx="0" cy="0" gradientTransform="matrix(0.0038, 0.0, 0.0, 0.0038, -1.75, 0.0)" gradientUnits="userSpaceOnUse" id="gradient5" r="819.2" spreadMethod="pad">
      <stop offset="0.0" stop-color="#8d8758"/>
      <stop offset="1.0" stop-color="#475137"/>
    </radialGradient>
  </defs>
</svg>
