<?xml version="1.0" encoding="UTF-8" standalone="no"?>
<svg xmlns:xlink="http://www.w3.org/1999/xlink" height="19.65px" width="7.35px" xmlns="http://www.w3.org/2000/svg">
  <g transform="matrix(1.0, 0.0, 0.0, 1.0, 3.55, 9.8)">
    <path d="M3.8 0.75 Q3.2 1.9 2.95 3.4 L2.6 5.2 2.3 6.5 2.2 6.95 Q1.6 8.65 0.45 9.85 L0.4 9.85 -0.5 9.5 Q-1.55 9.05 -1.9 8.15 -2.5 6.85 -2.6 5.5 L-2.95 2.25 Q-3.0 1.45 -3.55 0.75 0.15 2.05 3.8 0.75" fill="url(#gradient0)" fill-rule="evenodd" stroke="none"/>
    <path d="M-3.4 -5.2 L-3.35 -5.7 Q-3.2 -7.1 -2.6 -7.9 L-2.2 -8.65 -1.8 -9.05 -1.35 -9.3 -0.5 -9.65 Q1.35 -10.15 3.3 -8.95 L3.45 -6.75 3.55 -4.95 3.55 -2.95 3.5 -0.95 Q3.4 -0.05 3.8 0.75 0.15 2.05 -3.55 0.75 -3.2 -0.45 -3.4 -1.6 L-3.5 -2.25 Q-3.65 -3.6 -3.4 -5.2" fill="url(#gradient1)" fill-rule="evenodd" stroke="none"/>
    <path d="M3.55 -4.95 L3.55 -2.95 3.5 -0.95 Q3.4 -0.05 3.8 0.75 3.2 1.9 2.95 3.4 L2.6 5.2 2.3 6.5 2.2 6.95 Q1.6 8.65 0.45 9.85 L0.4 9.85 -0.5 9.5 Q-1.55 9.05 -1.9 8.15 -2.5 6.85 -2.6 5.5 L-2.95 2.25 Q-3.0 1.45 -3.55 0.75 -3.2 -0.45 -3.4 -1.6 L-3.5 -2.25 Q-3.65 -3.6 -3.4 -5.2 M3.8 0.75 Q0.15 2.05 -3.55 0.75" fill="none" stroke="#000000" stroke-linecap="round" stroke-linejoin="round" stroke-width="0.05"/>
  </g>
  <defs>
    <radialGradient cx="0" cy="0" gradientTransform="matrix(0.0084, 0.0, 0.0, 0.0084, 0.3, 3.5)" gradientUnits="userSpaceOnUse" id="gradient0" r="819.2" spreadMethod="pad">
      <stop offset="0.0" stop-color="#353a34"/>
      <stop offset="1.0" stop-color="#0f1113"/>
    </radialGradient>
    <radialGradient cx="0" cy="0" gradientTransform="matrix(0.0113, 0.0, 0.0, 0.0113, 2.4, -6.3)" gradientUnits="userSpaceOnUse" id="gradient1" r="819.2" spreadMethod="pad">
      <stop offset="0.0" stop-color="#ffffff"/>
      <stop offset="0.42745098039215684" stop-color="#b7a273"/>
      <stop offset="0.44313725490196076" stop-color="#877b4e"/>
      <stop offset="0.6470588235294118" stop-color="#ae9c73"/>
      <stop offset="1.0" stop-color="#e3dfc6"/>
    </radialGradient>
  </defs>
</svg>
