<?xml version="1.0" encoding="UTF-8" standalone="no"?>
<svg xmlns:xlink="http://www.w3.org/1999/xlink" height="30.4px" width="9.3px" xmlns="http://www.w3.org/2000/svg">
  <g transform="matrix(1.0, 0.0, 0.0, 1.0, 4.6, 15.2)">
    <path d="M-0.05 3.4 L-1.25 3.55 -1.25 3.25 -0.05 3.4" fill="url(#gradient0)" fill-rule="evenodd" stroke="none"/>
    <path d="M-3.1 -14.5 L-3.1 -14.55 -2.75 -14.8 -2.0 -14.55 -2.0 -14.5 -3.1 -14.5" fill="url(#gradient1)" fill-rule="evenodd" stroke="none"/>
    <path d="M4.25 -8.25 L4.65 -5.5 4.05 -4.65 3.0 -0.15 2.9 2.65 2.85 4.95 1.6 13.4 0.15 14.95 Q-0.75 9.4 -1.25 3.55 L-0.05 3.4 -1.25 3.25 Q-1.75 -2.05 -1.9 -7.6 1.85 -6.5 4.25 -8.25 M-0.05 3.4 L1.75 3.1 2.9 2.65 1.75 3.1 -0.05 3.4" fill="url(#gradient2)" fill-rule="evenodd" stroke="none"/>
    <path d="M0.15 14.95 L-0.1 15.2 -3.55 13.15 -3.65 2.25 -3.7 0.5 -4.6 -4.9 -4.05 -8.35 -3.1 -14.5 -2.0 -14.5 -1.9 -7.6 -4.05 -8.35 -1.9 -7.6 Q-1.75 -2.05 -1.25 3.25 L-1.25 3.55 Q-0.75 9.4 0.15 14.95 M-3.65 2.25 L-2.7 2.75 -1.25 3.25 -2.7 2.75 -3.65 2.25" fill="url(#gradient3)" fill-rule="evenodd" stroke="none"/>
    <path d="M2.3 -15.2 L3.85 -11.35 4.25 -8.25 Q1.85 -6.5 -1.9 -7.6 L-2.0 -14.5 -2.0 -14.55 Q0.3 -13.95 2.3 -15.2" fill="url(#gradient4)" fill-rule="evenodd" stroke="none"/>
    <path d="M2.3 -15.2 L3.85 -11.35 4.25 -8.25 4.65 -5.5 4.05 -4.65 3.0 -0.15 2.9 2.65 2.85 4.95 1.6 13.4 M-3.55 13.15 L-3.65 2.25 -3.7 0.5 -4.6 -4.9 -4.05 -8.35 -3.1 -14.5 -3.1 -14.55 -2.75 -14.8 M2.9 2.65 L1.75 3.1 -0.05 3.4 -1.25 3.25 -2.7 2.75 -3.65 2.25 M-4.05 -8.35 L-1.9 -7.6 Q1.85 -6.5 4.25 -8.25" fill="none" stroke="#000000" stroke-linecap="round" stroke-linejoin="round" stroke-width="0.05"/>
    <path d="M1.1 -7.2 L2.7 -6.75 2.85 -6.75 3.65 -7.55 3.8 -7.45 3.9 -8.3 4.2 -8.4 4.45 -7.75 4.65 -7.5 4.55 -6.8 4.55 -6.1 4.7 -5.7 Q3.15 -2.0 3.15 0.2 3.25 0.35 2.85 0.35 L2.85 0.3 2.85 0.9 2.85 1.4 2.9 2.9 2.75 5.55 2.6 5.55 2.35 1.85 2.25 0.75 Q1.45 -1.25 0.6 -4.3 L-0.3 -8.15 -0.3 -8.2 -0.3 -8.25 -0.05 -8.85 0.05 -8.65 1.1 -7.15 1.1 -7.2 M3.75 -7.05 L3.75 -7.1 3.55 -6.85 3.75 -6.95 3.75 -7.05" fill="#000000" fill-opacity="0.3019608" fill-rule="evenodd" stroke="none"/>
  </g>
  <defs>
    <radialGradient cx="0" cy="0" gradientTransform="matrix(0.006, 0.0, 0.0, 0.0248, 1.6, -8.65)" gradientUnits="userSpaceOnUse" id="gradient0" r="819.2" spreadMethod="pad">
      <stop offset="0.0" stop-color="#c7c5b8"/>
      <stop offset="0.24705882352941178" stop-color="#312736"/>
      <stop offset="0.6666666666666666" stop-color="#362d27"/>
      <stop offset="1.0" stop-color="#6f4a33"/>
    </radialGradient>
    <radialGradient cx="0" cy="0" gradientTransform="matrix(0.008, 0.0, 0.0, 0.0211, -5.75, -1.05)" gradientUnits="userSpaceOnUse" id="gradient1" r="819.2" spreadMethod="pad">
      <stop offset="0.0" stop-color="#c7c5b8"/>
      <stop offset="0.24705882352941178" stop-color="#312736"/>
      <stop offset="0.6666666666666666" stop-color="#362d27"/>
      <stop offset="1.0" stop-color="#6f4a33"/>
    </radialGradient>
    <radialGradient cx="0" cy="0" gradientTransform="matrix(0.006, 0.0, 0.0, 0.0248, 1.6, -8.65)" gradientUnits="userSpaceOnUse" id="gradient2" r="819.2" spreadMethod="pad">
      <stop offset="0.0" stop-color="#c7c5b8"/>
      <stop offset="0.24705882352941178" stop-color="#2b2d33"/>
      <stop offset="0.6666666666666666" stop-color="#292736"/>
      <stop offset="1.0" stop-color="#395668"/>
    </radialGradient>
    <radialGradient cx="0" cy="0" gradientTransform="matrix(0.008, 0.0, 0.0, 0.0211, -5.75, -1.05)" gradientUnits="userSpaceOnUse" id="gradient3" r="819.2" spreadMethod="pad">
      <stop offset="0.0" stop-color="#c7c5b8"/>
      <stop offset="0.24705882352941178" stop-color="#2b2d33"/>
      <stop offset="0.6666666666666666" stop-color="#292736"/>
      <stop offset="1.0" stop-color="#395668"/>
    </radialGradient>
    <radialGradient cx="0" cy="0" gradientTransform="matrix(0.0078, 0.0, 0.0, 0.0078, -0.75, -12.25)" gradientUnits="userSpaceOnUse" id="gradient4" r="819.2" spreadMethod="pad">
      <stop offset="0.0" stop-color="#c7c5b8"/>
      <stop offset="0.24705882352941178" stop-color="#2b2d33"/>
      <stop offset="0.6666666666666666" stop-color="#292736"/>
      <stop offset="1.0" stop-color="#395668"/>
    </radialGradient>
  </defs>
</svg>
