<?xml version="1.0" encoding="UTF-8" standalone="no"?>
<svg xmlns:xlink="http://www.w3.org/1999/xlink" height="29.8px" width="18.3px" xmlns="http://www.w3.org/2000/svg">
  <g transform="matrix(1.0, 0.0, 0.0, 1.0, 13.05, 6.05)">
    <path d="M4.0 -2.85 L4.0 -2.35 Q3.95 -0.75 3.5 0.5 2.5 3.1 -0.25 4.2 L-0.3 4.1 -0.35 4.1 -4.0 2.0 Q-4.0 -1.8 0.7 -3.85 L3.95 -4.25 4.0 -2.85" fill="url(#gradient0)" fill-rule="evenodd" stroke="none"/>
    <path d="M4.0 -2.85 L3.95 -4.25 0.7 -3.85 Q-4.0 -1.8 -4.0 2.0 L-0.35 4.1 -0.3 4.1 -0.25 4.2 Q2.5 3.1 3.5 0.5 3.95 -0.75 4.0 -2.35 L4.0 -2.85 Z" fill="none" stroke="#000000" stroke-linecap="round" stroke-linejoin="round" stroke-width="0.05"/>
    <path d="M-2.95 3.3 L-13.05 17.6 -4.85 2.45 -2.95 3.3" fill="url(#gradient1)" fill-rule="evenodd" stroke="none"/>
    <path d="M-1.3 4.05 L0.5 4.85 -1.7 23.75 -1.3 4.05" fill="url(#gradient2)" fill-rule="evenodd" stroke="none"/>
    <path d="M-2.95 3.3 L-1.3 4.05" fill="none" stroke="#000000" stroke-linecap="round" stroke-linejoin="round" stroke-width="0.05"/>
    <path d="M-1.3 4.05 L0.5 4.85 -1.7 23.75 -1.3 4.05" fill="none" stroke="url(#gradient3)" stroke-linecap="round" stroke-linejoin="round" stroke-width="0.05"/>
    <path d="M-2.95 3.3 L-13.05 17.6 -4.85 2.45 -2.95 3.3 Z" fill="none" stroke="url(#gradient4)" stroke-linecap="round" stroke-linejoin="round" stroke-width="0.05"/>
    <path d="M0.8 4.95 L-5.3 2.55 Q-4.25 -4.85 3.85 -6.05 L5.25 1.7 Q1.55 2.95 0.8 4.95" fill="url(#gradient5)" fill-rule="evenodd" stroke="none"/>
    <path d="M0.8 4.95 L-5.3 2.55 Q-4.25 -4.85 3.85 -6.05 L5.25 1.7 Q1.55 2.95 0.8 4.95 Z" fill="none" stroke="#000000" stroke-linecap="round" stroke-linejoin="round" stroke-width="0.05"/>
    <path d="M2.35 -2.7 Q2.35 -1.1 1.3 0.0 0.25 1.15 -1.25 1.15 -2.75 1.15 -3.8 0.0 -4.85 -1.1 -4.3 -2.5 -3.75 -3.95 -2.85 -4.9 -2.0 -5.85 -1.05 -5.85 -0.1 -5.9 1.15 -5.1 2.35 -4.3 2.35 -2.7" fill="url(#gradient6)" fill-rule="evenodd" stroke="none"/>
    <path d="M2.35 -2.7 Q2.35 -1.1 1.3 0.0 0.25 1.15 -1.25 1.15 -2.75 1.15 -3.8 0.0 -4.85 -1.1 -4.3 -2.5 -3.75 -3.95 -2.85 -4.9 -2.0 -5.85 -1.05 -5.85 -0.1 -5.9 1.15 -5.1 2.35 -4.3 2.35 -2.7 Z" fill="none" stroke="#000000" stroke-linecap="round" stroke-linejoin="round" stroke-width="0.05"/>
  </g>
  <defs>
    <radialGradient cx="0" cy="0" gradientTransform="matrix(0.0073, 2.0E-4, -4.0E-4, 0.0072, -0.45, -0.2)" gradientUnits="userSpaceOnUse" id="gradient0" r="819.2" spreadMethod="pad">
      <stop offset="0.0" stop-color="#403726"/>
      <stop offset="1.0" stop-color="#10100a"/>
    </radialGradient>
    <linearGradient gradientTransform="matrix(0.0062, 0.0, 0.0, 0.0092, -8.0, 10.0)" gradientUnits="userSpaceOnUse" id="gradient1" spreadMethod="pad" x1="-819.2" x2="819.2">
      <stop offset="0.0" stop-color="#ffffff"/>
      <stop offset="0.24705882352941178" stop-color="#fbc77b"/>
      <stop offset="0.6470588235294118" stop-color="#a78a61"/>
      <stop offset="1.0" stop-color="#493a2e"/>
    </linearGradient>
    <linearGradient gradientTransform="matrix(0.0013, 0.0, 0.0, 0.012, -0.6, 13.9)" gradientUnits="userSpaceOnUse" id="gradient2" spreadMethod="pad" x1="-819.2" x2="819.2">
      <stop offset="0.0" stop-color="#ffffff"/>
      <stop offset="0.24705882352941178" stop-color="#fbc77b"/>
      <stop offset="0.6470588235294118" stop-color="#a78a61"/>
      <stop offset="1.0" stop-color="#493a2e"/>
    </linearGradient>
    <linearGradient gradientTransform="matrix(0.0058, -0.0119, 0.0117, 0.0057, -5.35, 11.1)" gradientUnits="userSpaceOnUse" id="gradient3" spreadMethod="pad" x1="-819.2" x2="819.2">
      <stop offset="0.0" stop-color="#ffffff"/>
      <stop offset="0.1803921568627451" stop-color="#ffc744"/>
      <stop offset="0.47058823529411764" stop-color="#000000"/>
    </linearGradient>
    <linearGradient gradientTransform="matrix(0.0058, -0.0119, 0.0117, 0.0057, -5.35, 11.1)" gradientUnits="userSpaceOnUse" id="gradient4" spreadMethod="pad" x1="-819.2" x2="819.2">
      <stop offset="0.0" stop-color="#ffffff"/>
      <stop offset="0.1803921568627451" stop-color="#ffd944"/>
      <stop offset="0.47058823529411764" stop-color="#000000"/>
    </linearGradient>
    <radialGradient cx="0" cy="0" gradientTransform="matrix(0.0126, 0.0, 0.0, 0.0126, 3.7, -2.55)" gradientUnits="userSpaceOnUse" id="gradient5" r="819.2" spreadMethod="pad">
      <stop offset="0.0" stop-color="#ffffff"/>
      <stop offset="0.42745098039215684" stop-color="#836549"/>
      <stop offset="0.44313725490196076" stop-color="#392d24"/>
      <stop offset="0.6980392156862745" stop-color="#7a615a"/>
      <stop offset="1.0" stop-color="#a27a77"/>
    </radialGradient>
    <radialGradient cx="0" cy="0" gradientTransform="matrix(0.0082, -0.0028, 0.0028, 0.0082, -1.6, -5.55)" gradientUnits="userSpaceOnUse" id="gradient6" r="819.2" spreadMethod="pad">
      <stop offset="0.0" stop-color="#ffffff"/>
      <stop offset="0.5843137254901961" stop-color="#ffae5e"/>
      <stop offset="0.611764705882353" stop-color="#925a07"/>
      <stop offset="1.0" stop-color="#fa8a41"/>
    </radialGradient>
  </defs>
</svg>
