<?xml version="1.0" encoding="UTF-8" standalone="no"?>
<svg xmlns:xlink="http://www.w3.org/1999/xlink" height="5.3px" width="11.75px" xmlns="http://www.w3.org/2000/svg">
  <g transform="matrix(1.0, 0.0, 0.0, 1.0, 5.85, 2.65)">
    <path d="M-5.7 1.2 L-5.85 1.15 -5.85 0.65 -5.7 1.2" fill="url(#gradient0)" fill-rule="evenodd" stroke="none"/>
    <path d="M5.85 2.0 L5.9 2.2 4.25 2.45 5.85 2.0" fill="url(#gradient1)" fill-rule="evenodd" stroke="none"/>
    <path d="M4.25 2.45 L2.65 2.65 3.35 2.5 4.25 2.45" fill="url(#gradient2)" fill-rule="evenodd" stroke="none"/>
    <path d="M-1.35 -2.65 L3.0 -2.4 5.05 -1.5 5.85 2.0 4.25 2.45 3.35 2.5 2.65 2.65 -5.7 1.2 -5.85 0.65 -5.6 -2.2 -1.35 -2.65" fill="url(#gradient3)" fill-rule="evenodd" stroke="none"/>
    <path d="M-1.35 -2.65 L3.0 -2.4 5.05 -1.5 5.85 2.0 4.25 2.45 3.35 2.5 2.65 2.65 -5.7 1.2 -5.85 0.65 -5.6 -2.2" fill="none" stroke="#000000" stroke-linecap="round" stroke-linejoin="round" stroke-width="0.05"/>
  </g>
  <defs>
    <radialGradient cx="0" cy="0" gradientTransform="matrix(4.0E-4, 0.0, 0.0, 4.0E-4, -5.8, 0.9)" gradientUnits="userSpaceOnUse" id="gradient0" r="819.2" spreadMethod="pad">
      <stop offset="0.0" stop-color="#5b3f2d"/>
      <stop offset="1.0" stop-color="#252016"/>
    </radialGradient>
    <radialGradient cx="0" cy="0" gradientTransform="matrix(0.001, 0.0, 0.0, 0.001, 5.05, 2.2)" gradientUnits="userSpaceOnUse" id="gradient1" r="819.2" spreadMethod="pad">
      <stop offset="0.0" stop-color="#5b3f2d"/>
      <stop offset="1.0" stop-color="#252016"/>
    </radialGradient>
    <radialGradient cx="0" cy="0" gradientTransform="matrix(0.001, 0.0, 0.0, 0.001, 3.45, 2.55)" gradientUnits="userSpaceOnUse" id="gradient2" r="819.2" spreadMethod="pad">
      <stop offset="0.0" stop-color="#5b3f2d"/>
      <stop offset="1.0" stop-color="#252016"/>
    </radialGradient>
    <radialGradient cx="0" cy="0" gradientTransform="matrix(0.0124, 0.0, 0.0, 0.0124, 4.3, 0.0)" gradientUnits="userSpaceOnUse" id="gradient3" r="819.2" spreadMethod="pad">
      <stop offset="0.0" stop-color="#ffffff"/>
      <stop offset="0.42745098039215684" stop-color="#836549"/>
      <stop offset="0.44313725490196076" stop-color="#392d24"/>
      <stop offset="0.6980392156862745" stop-color="#7a615a"/>
      <stop offset="1.0" stop-color="#a27a77"/>
    </radialGradient>
  </defs>
</svg>
