<?xml version="1.0" encoding="UTF-8" standalone="no"?>
<svg xmlns:xlink="http://www.w3.org/1999/xlink" height="93.05px" width="19.8px" xmlns="http://www.w3.org/2000/svg">
  <g transform="matrix(1.0, 0.0, 0.0, 1.0, 9.95, 53.8)">
    <path d="M-0.85 -21.05 Q-4.65 -29.1 -9.95 -29.8 -8.95 -42.3 -3.9 -53.8 -6.7 -43.7 -6.6 -32.35 -3.1 -32.15 -1.05 -28.9 L-0.85 -21.05" fill="url(#gradient0)" fill-rule="evenodd" stroke="none"/>
    <path d="M0.75 -21.05 L0.95 -28.9 Q3.0 -32.15 6.55 -32.35 6.6 -43.7 3.8 -53.8 8.85 -42.3 9.85 -29.8 4.55 -29.1 0.75 -21.05" fill="url(#gradient1)" fill-rule="evenodd" stroke="none"/>
    <path d="M0.75 -21.05 Q4.55 -29.1 9.85 -29.8 8.85 -42.3 3.8 -53.8 6.6 -43.7 6.55 -32.35 3.0 -32.15 0.95 -28.9 L0.75 -21.05 M-0.85 -21.05 Q-4.65 -29.1 -9.95 -29.8 -8.95 -42.3 -3.9 -53.8 -6.7 -43.7 -6.6 -32.35 -3.1 -32.15 -1.05 -28.9 L-0.85 -21.05 Z" fill="none" stroke="#000000" stroke-linecap="round" stroke-linejoin="round" stroke-width="0.05"/>
    <path d="M1.35 -19.7 L1.35 -18.75 -1.35 -6.0 -1.35 -19.7 0.0 -19.45 1.35 -19.7" fill="url(#gradient2)" fill-rule="evenodd" stroke="none"/>
    <path d="M1.35 -18.75 L1.35 10.55 Q0.0 11.5 -1.35 10.55 L-1.35 -6.0 1.35 -18.75" fill="url(#gradient3)" fill-rule="evenodd" stroke="none"/>
    <path d="M-1.35 -32.3 L-0.85 -45.45 0.05 -48.45 0.8 -45.55 1.35 -32.3 0.0 -32.55 -1.35 -32.3" fill="url(#gradient4)" fill-rule="evenodd" stroke="none"/>
    <path d="M1.35 -32.3 Q2.45 -31.85 3.3 -30.65 4.65 -28.7 4.65 -26.0 4.65 -23.3 3.3 -21.4 2.45 -20.15 1.35 -19.7 L0.0 -19.45 -1.35 -19.7 Q-2.45 -20.15 -3.3 -21.4 -4.65 -23.3 -4.65 -26.0 -4.65 -28.7 -3.3 -30.65 -2.45 -31.85 -1.35 -32.3 L0.0 -32.55 1.35 -32.3" fill="url(#gradient5)" fill-rule="evenodd" stroke="none"/>
    <path d="M1.35 32.55 L1.35 38.7 Q0.0 39.85 -1.35 38.7 L-1.35 32.55 Q0.0 33.5 1.35 32.55" fill="url(#gradient6)" fill-rule="evenodd" stroke="none"/>
    <path d="M1.35 10.55 L1.65 10.55 Q1.2 20.4 2.5 30.2 L1.35 32.55 Q0.0 33.5 -1.35 32.55 L-2.6 30.2 Q-1.0 21.45 -1.6 10.55 L-1.35 10.55 Q0.0 11.5 1.35 10.55" fill="url(#gradient7)" fill-rule="evenodd" stroke="none"/>
    <path d="M1.35 -32.3 Q2.45 -31.85 3.3 -30.65 4.65 -28.7 4.65 -26.0 4.65 -23.3 3.3 -21.4 2.45 -20.15 1.35 -19.7 L1.35 -18.75 1.35 10.55 1.65 10.55 Q1.2 20.4 2.5 30.2 L1.35 32.55 1.35 38.7 Q0.0 39.85 -1.35 38.7 L-1.35 32.55 -2.6 30.2 Q-1.0 21.45 -1.6 10.55 L-1.35 10.55 -1.35 -6.0 -1.35 -19.7 Q-2.45 -20.15 -3.3 -21.4 -4.65 -23.3 -4.65 -26.0 -4.65 -28.7 -3.3 -30.65 -2.45 -31.85 -1.35 -32.3 L-0.85 -45.45 0.05 -48.45 0.8 -45.55 1.35 -32.3 0.0 -32.55 -1.35 -32.3 M1.35 -19.7 L0.0 -19.45 -1.35 -19.7 M1.35 10.55 Q0.0 11.5 -1.35 10.55 M-1.35 32.55 Q0.0 33.5 1.35 32.55" fill="none" stroke="#000000" stroke-linecap="round" stroke-linejoin="round" stroke-width="0.05"/>
  </g>
  <defs>
    <linearGradient gradientTransform="matrix(0.0051, 0.0, 0.0, 0.0155, -5.25, -36.3)" gradientUnits="userSpaceOnUse" id="gradient0" spreadMethod="pad" x1="-819.2" x2="819.2">
      <stop offset="0.0" stop-color="#efece4"/>
      <stop offset="0.41568627450980394" stop-color="#755e46"/>
      <stop offset="0.4392156862745098" stop-color="#2f251e"/>
      <stop offset="0.7294117647058823" stop-color="#947a63"/>
      <stop offset="1.0" stop-color="#9f9171"/>
    </linearGradient>
    <linearGradient gradientTransform="matrix(-0.0051, 0.0, 0.0, 0.0155, 5.15, -36.3)" gradientUnits="userSpaceOnUse" id="gradient1" spreadMethod="pad" x1="-819.2" x2="819.2">
      <stop offset="0.0" stop-color="#efece4"/>
      <stop offset="0.41568627450980394" stop-color="#755e46"/>
      <stop offset="0.4392156862745098" stop-color="#2f251e"/>
      <stop offset="0.7294117647058823" stop-color="#947a63"/>
      <stop offset="1.0" stop-color="#9f9171"/>
    </linearGradient>
    <linearGradient gradientTransform="matrix(0.0016, 0.0, 0.0, 0.0363, 0.0, -14.0)" gradientUnits="userSpaceOnUse" id="gradient2" spreadMethod="pad" x1="-819.2" x2="819.2">
      <stop offset="0.0" stop-color="#efece4"/>
      <stop offset="0.4549019607843137" stop-color="#8d662e"/>
      <stop offset="0.4666666666666667" stop-color="#422c0b"/>
      <stop offset="0.7294117647058823" stop-color="#bf8837"/>
      <stop offset="1.0" stop-color="#cba670"/>
    </linearGradient>
    <linearGradient gradientTransform="matrix(0.0016, 0.0, 0.0, 0.0363, 0.0, -18.75)" gradientUnits="userSpaceOnUse" id="gradient3" spreadMethod="pad" x1="-819.2" x2="819.2">
      <stop offset="0.0" stop-color="#efece4"/>
      <stop offset="0.41568627450980394" stop-color="#755e46"/>
      <stop offset="0.4392156862745098" stop-color="#2f251e"/>
      <stop offset="0.7294117647058823" stop-color="#947a63"/>
      <stop offset="1.0" stop-color="#9f9171"/>
    </linearGradient>
    <linearGradient gradientTransform="matrix(0.0016, 0.0, 0.0, 0.0363, 0.0, -14.0)" gradientUnits="userSpaceOnUse" id="gradient4" spreadMethod="pad" x1="-819.2" x2="819.2">
      <stop offset="0.0" stop-color="#efece4"/>
      <stop offset="0.41568627450980394" stop-color="#755e46"/>
      <stop offset="0.4392156862745098" stop-color="#2f251e"/>
      <stop offset="0.7294117647058823" stop-color="#947a63"/>
      <stop offset="1.0" stop-color="#9f9171"/>
    </linearGradient>
    <radialGradient cx="0" cy="0" gradientTransform="matrix(0.0145, 0.0, 0.0, 0.0145, 2.55, -30.65)" gradientUnits="userSpaceOnUse" id="gradient5" r="819.2" spreadMethod="pad">
      <stop offset="0.0" stop-color="#efece4"/>
      <stop offset="0.41568627450980394" stop-color="#755e46"/>
      <stop offset="0.4392156862745098" stop-color="#2f251e"/>
      <stop offset="0.7294117647058823" stop-color="#947a63"/>
      <stop offset="1.0" stop-color="#9f9171"/>
    </radialGradient>
    <linearGradient gradientTransform="matrix(0.0016, 0.0, 0.0, 0.0661, 0.0, -15.45)" gradientUnits="userSpaceOnUse" id="gradient6" spreadMethod="pad" x1="-819.2" x2="819.2">
      <stop offset="0.0" stop-color="#efece4"/>
      <stop offset="0.41568627450980394" stop-color="#755e46"/>
      <stop offset="0.4392156862745098" stop-color="#2f251e"/>
      <stop offset="0.7294117647058823" stop-color="#947a63"/>
      <stop offset="1.0" stop-color="#9f9171"/>
    </linearGradient>
    <radialGradient cx="0" cy="0" gradientTransform="matrix(0.0034, 0.0, 0.0, 0.0136, -0.05, 21.55)" gradientUnits="userSpaceOnUse" id="gradient7" r="819.2" spreadMethod="pad">
      <stop offset="0.0" stop-color="#2f4833"/>
      <stop offset="1.0" stop-color="#1a1e15"/>
    </radialGradient>
  </defs>
</svg>
