<?xml version="1.0" encoding="UTF-8" standalone="no"?>
<svg xmlns:xlink="http://www.w3.org/1999/xlink" height="19.65px" width="17.8px" xmlns="http://www.w3.org/2000/svg">
  <g transform="matrix(1.0, 0.0, 0.0, 1.0, 12.85, 12.0)">
    <path d="M-1.85 -9.15 L0.75 -7.95 2.4 -4.45 1.7 -1.85 -2.85 -5.7 -0.85 -2.6 -2.5 0.3 -5.5 -0.95 -6.1 -4.2 -6.3 -4.3 Q-4.5 -6.95 -1.85 -9.15" fill="url(#gradient0)" fill-rule="evenodd" stroke="none"/>
    <path d="M1.7 -1.85 L0.9 1.05 -0.8 3.75 -8.85 0.55 Q-7.9 -2.05 -6.3 -4.3 L-6.1 -4.2 -5.5 -0.95 -2.5 0.3 -0.85 -2.6 -2.85 -5.7 1.7 -1.85" fill="url(#gradient1)" fill-rule="evenodd" stroke="none"/>
    <path d="M1.7 -1.85 L2.4 -4.45 0.75 -7.95 -1.85 -9.15 -1.75 -12.0 3.9 -10.2 4.55 -4.85 3.25 2.4 0.55 7.65 Q-4.85 4.55 -12.85 3.9 L-8.85 0.55 -0.8 3.75 0.9 1.05 1.7 -1.85" fill="url(#gradient2)" fill-rule="evenodd" stroke="none"/>
    <path d="M-1.85 -9.15 L0.75 -7.95 2.4 -4.45 1.7 -1.85 0.9 1.05 -0.8 3.75 -8.85 0.55 -12.85 3.9 Q-4.85 4.55 0.55 7.65 L3.25 2.4 4.55 -4.85 3.9 -10.2 -1.75 -12.0 -1.85 -9.15 Q-4.5 -6.95 -6.3 -4.3 -7.9 -2.05 -8.85 0.55" fill="none" stroke="#000000" stroke-linecap="round" stroke-linejoin="round" stroke-width="0.05"/>
    <path d="M-0.25 -4.85 L-1.65 -3.9 Q-2.6 -2.8 -2.7 -1.3 L-7.0 -5.1 -4.85 -7.35 -0.25 -4.85" fill="url(#gradient3)" fill-rule="evenodd" stroke="none"/>
    <path d="M1.0 1.15 L-0.1 0.55 Q-0.6 0.0 -0.6 -0.85 -0.6 -1.7 -0.1 -2.3 0.4 -2.85 1.1 -2.85 1.8 -2.85 2.3 -2.3 L2.65 -1.75 2.15 -1.85 0.5 0.4 1.0 1.15" fill="url(#gradient4)" fill-rule="evenodd" stroke="none"/>
    <path d="M2.65 -1.75 L4.95 -1.1 4.95 -0.9 Q4.95 0.85 3.8 2.05 3.15 2.8 2.3 3.1 L1.0 1.15 0.5 0.4 2.15 -1.85 2.65 -1.75" fill="#253321" fill-rule="evenodd" stroke="none"/>
    <path d="M4.95 -1.1 L2.65 -1.75 2.3 -2.3 Q1.8 -2.85 1.1 -2.85 0.4 -2.85 -0.1 -2.3 -0.6 -1.7 -0.6 -0.85 -0.6 0.0 -0.1 0.55 L1.0 1.15 2.3 3.1 1.1 3.3 Q-0.5 3.3 -1.65 2.05 -2.75 0.85 -2.75 -0.9 L-2.7 -1.3 Q-2.6 -2.8 -1.65 -3.9 L-0.25 -4.85 1.1 -5.1 Q2.7 -5.1 3.8 -3.9 4.9 -2.7 4.95 -1.1" fill="url(#gradient5)" fill-rule="evenodd" stroke="none"/>
    <path d="M2.65 -1.75 L4.95 -1.1 Q4.9 -2.7 3.8 -3.9 2.7 -5.1 1.1 -5.1 L-0.25 -4.85 -1.65 -3.9 Q-2.6 -2.8 -2.7 -1.3 L-2.75 -0.9 Q-2.75 0.85 -1.65 2.05 -0.5 3.3 1.1 3.3 L2.3 3.1 1.0 1.15 -0.1 0.55 Q-0.6 0.0 -0.6 -0.85 -0.6 -1.7 -0.1 -2.3 0.4 -2.85 1.1 -2.85 1.8 -2.85 2.3 -2.3 L2.65 -1.75 2.15 -1.85 0.5 0.4 1.0 1.15 M-0.25 -4.85 L-4.85 -7.35 -7.0 -5.1 -2.7 -1.3" fill="none" stroke="#000000" stroke-linecap="round" stroke-linejoin="round" stroke-width="0.05"/>
  </g>
  <defs>
    <radialGradient cx="0" cy="0" gradientTransform="matrix(0.0157, 0.0, 0.0, 0.0157, -2.35, -5.5)" gradientUnits="userSpaceOnUse" id="gradient0" r="819.2" spreadMethod="pad">
      <stop offset="0.0" stop-color="#891818"/>
      <stop offset="0.5372549019607843" stop-color="#3e0f0f"/>
      <stop offset="1.0" stop-color="#453e4a"/>
    </radialGradient>
    <radialGradient cx="0" cy="0" gradientTransform="matrix(0.0103, 0.0, 0.0, 0.0103, -1.85, 2.1)" gradientUnits="userSpaceOnUse" id="gradient1" r="819.2" spreadMethod="pad">
      <stop offset="0.0" stop-color="#5e1111"/>
      <stop offset="1.0" stop-color="#1c0606"/>
    </radialGradient>
    <radialGradient cx="0" cy="0" gradientTransform="matrix(0.0183, 0.0, 0.0, 0.0206, -2.75, 1.0)" gradientUnits="userSpaceOnUse" id="gradient2" r="819.2" spreadMethod="pad">
      <stop offset="0.0" stop-color="#efece4"/>
      <stop offset="0.43529411764705883" stop-color="#8d662e"/>
      <stop offset="0.4666666666666667" stop-color="#422c0b"/>
      <stop offset="0.7294117647058823" stop-color="#bf8837"/>
      <stop offset="1.0" stop-color="#cba670"/>
    </radialGradient>
    <radialGradient cx="0" cy="0" gradientTransform="matrix(0.0059, 0.0, 0.0, 0.0059, -4.6, -5.75)" gradientUnits="userSpaceOnUse" id="gradient3" r="819.2" spreadMethod="pad">
      <stop offset="0.0" stop-color="#523e36"/>
      <stop offset="1.0" stop-color="#14100e"/>
    </radialGradient>
    <radialGradient cx="0" cy="0" gradientTransform="matrix(0.0038, 0.0, 0.0, 0.0038, 1.15, -0.25)" gradientUnits="userSpaceOnUse" id="gradient4" r="819.2" spreadMethod="pad">
      <stop offset="0.0" stop-color="#523e36"/>
      <stop offset="1.0" stop-color="#14100e"/>
    </radialGradient>
    <radialGradient cx="0" cy="0" gradientTransform="matrix(0.0082, 0.0, 0.0, 0.0082, 1.5, -3.4)" gradientUnits="userSpaceOnUse" id="gradient5" r="819.2" spreadMethod="pad">
      <stop offset="0.0" stop-color="#efece4"/>
      <stop offset="0.4392156862745098" stop-color="#686053"/>
      <stop offset="0.4666666666666667" stop-color="#2b2622"/>
      <stop offset="0.7019607843137254" stop-color="#5a5350"/>
      <stop offset="1.0" stop-color="#5a9254"/>
    </radialGradient>
  </defs>
</svg>
