<?xml version="1.0" encoding="UTF-8" standalone="no"?>
<svg xmlns:xlink="http://www.w3.org/1999/xlink" height="26.0px" width="10.8px" xmlns="http://www.w3.org/2000/svg">
  <g transform="matrix(1.0, 0.0, 0.0, 1.0, 4.4, 18.35)">
    <path d="M-1.15 -2.75 L-2.65 -3.55 -3.9 -4.2 -4.4 -4.6 Q-0.35 -12.7 -0.7 -16.75 L6.4 -18.35 5.65 0.15 Q3.05 -0.7 -1.2 -2.65 L-0.4 -2.35 -1.15 -2.75" fill="url(#gradient0)" fill-rule="evenodd" stroke="none"/>
    <path d="M-1.15 -2.75 L-0.4 -2.35 -1.2 -2.65 -1.15 -2.75" fill="url(#gradient1)" fill-rule="evenodd" stroke="none"/>
    <path d="M-3.9 -4.2 L-2.65 -3.55 -1.15 -2.75 -1.2 -2.65 -1.05 0.65 -0.3 3.0 3.8 4.65 2.85 7.65 -2.05 4.75 -3.45 1.15 -3.9 -4.2" fill="url(#gradient2)" fill-rule="evenodd" stroke="none"/>
    <path d="M-3.9 -4.2 L-2.65 -3.55 -1.15 -2.75 -0.4 -2.35 -1.2 -2.65 Q3.05 -0.7 5.65 0.15 L6.4 -18.35 -0.7 -16.75 Q-0.35 -12.7 -4.4 -4.6 L-3.9 -4.2 -3.45 1.15 -2.05 4.75 2.85 7.65 3.8 4.65 -0.3 3.0 -1.05 0.65 -1.2 -2.65" fill="none" stroke="#000000" stroke-linecap="round" stroke-linejoin="round" stroke-width="0.05"/>
  </g>
  <defs>
    <radialGradient cx="0" cy="0" gradientTransform="matrix(0.0148, 0.0, 0.0, 0.0148, 5.25, -12.0)" gradientUnits="userSpaceOnUse" id="gradient0" r="819.2" spreadMethod="pad">
      <stop offset="0.0" stop-color="#332d2b"/>
      <stop offset="1.0" stop-color="#0d0d0d"/>
    </radialGradient>
    <radialGradient cx="0" cy="0" gradientTransform="matrix(0.0121, 0.0, 0.0, 0.0121, 0.15, 4.9)" gradientUnits="userSpaceOnUse" id="gradient1" r="819.2" spreadMethod="pad">
      <stop offset="0.0" stop-color="#efece4"/>
      <stop offset="0.41568627450980394" stop-color="#8d662e"/>
      <stop offset="0.4666666666666667" stop-color="#422c0b"/>
      <stop offset="0.7294117647058823" stop-color="#bf8837"/>
      <stop offset="1.0" stop-color="#cba670"/>
    </radialGradient>
    <radialGradient cx="0" cy="0" gradientTransform="matrix(0.0121, 0.0, 0.0, 0.0121, 0.15, 4.9)" gradientUnits="userSpaceOnUse" id="gradient2" r="819.2" spreadMethod="pad">
      <stop offset="0.0" stop-color="#efece4"/>
      <stop offset="0.43529411764705883" stop-color="#8d662e"/>
      <stop offset="0.4666666666666667" stop-color="#422c0b"/>
      <stop offset="0.7294117647058823" stop-color="#bf8837"/>
      <stop offset="1.0" stop-color="#cba670"/>
    </radialGradient>
  </defs>
</svg>
