<?xml version="1.0" encoding="UTF-8" standalone="no"?>
<svg xmlns:xlink="http://www.w3.org/1999/xlink" height="36.6px" width="24.55px" xmlns="http://www.w3.org/2000/svg">
  <g transform="matrix(1.0, 0.0, 0.0, 1.0, 9.65, 20.1)">
    <path d="M4.5 -18.05 L4.75 -18.0 7.85 -16.6 10.75 -10.25 10.85 -8.5 8.75 -6.75 8.25 -7.0 6.85 -4.05 5.6 -3.6 2.75 -12.25 4.5 -18.05" fill="url(#gradient0)" fill-rule="evenodd" stroke="none"/>
    <path d="M4.75 -18.0 L4.5 -18.05 5.1 -20.1 8.35 -20.0 Q11.1 -14.75 12.65 -9.65 13.15 -8.15 14.9 -7.2 L6.85 -4.05 8.25 -7.0 8.75 -6.75 10.85 -8.5 10.75 -10.25 7.85 -16.6 4.75 -18.0" fill="url(#gradient1)" fill-rule="evenodd" stroke="none"/>
    <path d="M4.75 -18.0 L7.85 -16.6 10.75 -10.25 10.85 -8.5 8.75 -6.75 M8.25 -7.0 L6.85 -4.05 14.9 -7.2 Q13.15 -8.15 12.65 -9.65 11.1 -14.75 8.35 -20.0 L5.1 -20.1 4.5 -18.05 2.75 -12.25 5.6 -3.6 6.85 -4.05" fill="none" stroke="#000000" stroke-linecap="round" stroke-linejoin="round" stroke-width="0.05"/>
    <path d="M5.15 -11.55 L3.5 -12.9 5.15 -11.75 5.15 -11.55" fill="#ffffff" fill-rule="evenodd" stroke="none"/>
    <path d="M0.5 -1.0 L0.45 -1.05 -5.6 -8.45 -4.1 -13.5 2.9 -4.35 3.05 -4.15 0.5 -1.0" fill="url(#gradient2)" fill-rule="evenodd" stroke="none"/>
    <path d="M-3.0 -13.8 L-2.3 -13.85 2.95 -6.75 4.2 -6.75 2.9 -4.35 -4.1 -13.5 -4.25 -13.65 -3.0 -13.8" fill="url(#gradient3)" fill-rule="evenodd" stroke="none"/>
    <path d="M4.2 -6.75 L4.85 -6.75 5.15 -11.55 5.15 -11.75 5.15 -12.1 Q6.85 -10.0 7.25 -6.7 L7.3 -6.45 4.6 -2.15 3.05 -4.15 2.9 -4.35 4.2 -6.75" fill="url(#gradient4)" fill-rule="evenodd" stroke="none"/>
    <path d="M-4.65 4.75 L-4.65 4.65 -4.4 4.75 -4.65 4.75" fill="url(#gradient5)" fill-rule="evenodd" stroke="none"/>
    <path d="M5.85 10.0 L5.85 12.4 2.35 16.5 -5.15 12.5 -4.65 8.9 -4.65 8.75 Q1.4 10.55 5.85 10.0" fill="url(#gradient6)" fill-rule="evenodd" stroke="none"/>
    <path d="M3.55 -13.75 L3.35 -13.0 3.4 -12.95 3.5 -12.9 5.15 -11.55 4.85 -6.75 4.2 -6.75 2.95 -6.75 -2.3 -13.85 -3.0 -13.8 -0.8 -16.6 3.65 -14.15 3.6 -14.1 3.55 -13.75 M7.3 -6.45 L7.7 -5.6 7.85 -4.0 Q6.8 -2.1 6.15 -0.1 L4.8 -1.85 4.6 -2.15 7.3 -6.45 M5.2 4.25 L5.1 4.9 5.15 5.15 -0.6 5.4 2.4 1.45 2.55 1.2 5.2 4.25 M-4.65 4.65 Q-4.95 -0.25 -6.1 -5.85 L-9.65 -8.1 Q-9.3 -12.9 -4.25 -13.65 L-4.1 -13.5 -5.6 -8.45 0.45 -1.05 -4.4 4.75 -4.65 4.65" fill="#1d0e0e" fill-rule="evenodd" stroke="none"/>
    <path d="M0.45 -1.05 L0.5 -1.0 2.55 1.15 2.4 1.45 -0.6 5.4 -4.4 4.75 0.45 -1.05" fill="url(#gradient7)" fill-rule="evenodd" stroke="none"/>
    <path d="M6.15 -0.1 L6.1 0.05 Q5.4 2.1 5.2 4.25 L2.55 1.2 2.55 1.15 4.8 -1.85 6.15 -0.1" fill="url(#gradient8)" fill-rule="evenodd" stroke="none"/>
    <path d="M0.5 -1.0 L3.05 -4.15 4.6 -2.15 4.8 -1.85 2.55 1.15 0.5 -1.0" fill="url(#gradient9)" fill-rule="evenodd" stroke="none"/>
    <path d="M5.15 5.15 L5.85 9.75 5.85 10.0 Q1.4 10.55 -4.65 8.75 L-4.65 4.75 -4.4 4.75 -0.6 5.4 5.15 5.15" fill="url(#gradient10)" fill-rule="evenodd" stroke="none"/>
    <path d="M3.55 -13.75 L3.6 -14.1 M3.65 -14.15 L-0.8 -16.6 -3.0 -13.8 -2.3 -13.85 2.95 -6.75 4.2 -6.75 4.85 -6.75 5.15 -11.55 3.5 -12.9 M5.15 -11.75 L5.15 -12.1 Q6.85 -10.0 7.25 -6.7 L7.3 -6.45 7.7 -5.6 7.85 -4.0 Q6.8 -2.1 6.15 -0.1 L6.1 0.05 Q5.4 2.1 5.2 4.25 L5.1 4.9 5.15 5.15 5.85 9.75 5.85 10.0 5.85 12.4 2.35 16.5 -5.15 12.5 -4.65 8.9 -4.65 8.75 -4.65 4.75 -4.65 4.65 Q-4.95 -0.25 -6.1 -5.85 L-9.65 -8.1 Q-9.3 -12.9 -4.25 -13.65 L-3.0 -13.8 M3.4 -12.95 L3.55 -13.75 M5.15 -11.55 L5.15 -11.75 M0.45 -1.05 L0.5 -1.0 3.05 -4.15 2.9 -4.35 -4.1 -13.5 -5.6 -8.45 0.45 -1.05 -4.4 4.75 -0.6 5.4 2.4 1.45 2.55 1.15 0.5 -1.0 M4.6 -2.15 L4.8 -1.85 6.15 -0.1 M3.05 -4.15 L4.6 -2.15 7.3 -6.45 M4.2 -6.75 L2.9 -4.35 M2.55 1.15 L2.55 1.2 5.2 4.25 M2.55 1.2 L2.4 1.45 M4.8 -1.85 L2.55 1.15 M-4.1 -13.5 L-4.25 -13.65 M-4.65 4.65 L-4.4 4.75 M-4.65 8.75 Q1.4 10.55 5.85 10.0 M-0.6 5.4 L5.15 5.15" fill="none" stroke="#000000" stroke-linecap="round" stroke-linejoin="round" stroke-width="0.05"/>
    <path d="M8.85 -7.6 L7.85 -4.25 6.1 -1.35 3.6 0.5 -2.4 -3.1 -3.6 -5.65 -7.4 -11.6 -7.4 -13.25 -7.35 -13.25 -3.5 -14.1 0.5 -9.7 5.1 -8.6 7.25 -10.85 8.85 -7.6" fill="url(#gradient11)" fill-rule="evenodd" stroke="none"/>
    <path d="M7.25 -10.85 L5.1 -8.6 0.5 -9.7 -3.5 -14.1 -7.35 -13.25 -7.4 -13.25 -7.4 -11.6 -3.6 -5.65 -2.4 -3.1 3.6 0.5 6.1 -1.35 7.85 -4.25 8.85 -7.6" fill="none" stroke="#000000" stroke-linecap="round" stroke-linejoin="round" stroke-width="0.05"/>
    <path d="M1.0 -6.25 L7.0 -5.85 7.25 -5.5 4.85 -3.25 5.35 -2.0 3.75 -1.25 3.5 -1.25 0.4 -2.6 3.35 -2.35 2.1 -4.1 0.5 -5.25 0.1 -5.35 -1.9 -7.75 -1.55 -8.15 0.75 -6.35 1.0 -6.25" fill="url(#gradient12)" fill-rule="evenodd" stroke="none"/>
    <path d="M11.1 -15.5 L12.8 -16.4 13.8 -13.0 12.65 -11.9 Q12.6 -13.4 12.0 -14.5 L11.1 -15.5" fill="url(#gradient13)" fill-rule="evenodd" stroke="none"/>
    <path d="M9.2 -11.1 L9.15 -11.55 Q9.15 -12.4 9.5 -13.0 9.8 -13.55 10.25 -13.5 10.7 -13.5 11.0 -12.95 11.35 -12.35 11.35 -11.5 11.35 -10.65 11.0 -10.1 L10.45 -9.5 10.25 -9.5 10.1 -9.5 10.25 -9.75 9.2 -11.1 M10.45 -9.5 L10.25 -9.75 10.45 -9.5" fill="url(#gradient14)" fill-rule="evenodd" stroke="none"/>
    <path d="M9.0 -8.0 L8.55 -8.65 Q7.95 -9.6 7.85 -10.85 L8.85 -11.5 9.2 -11.1 10.25 -9.75 10.1 -9.5 9.0 -8.0" fill="#253321" fill-rule="evenodd" stroke="none"/>
    <path d="M11.1 -15.5 L12.0 -14.5 Q12.6 -13.4 12.65 -11.9 L12.7 -11.5 Q12.7 -9.75 12.0 -8.55 11.25 -7.35 10.25 -7.35 9.55 -7.4 9.0 -8.0 L10.1 -9.5 10.25 -9.5 10.45 -9.5 11.0 -10.1 Q11.35 -10.65 11.35 -11.5 11.35 -12.35 11.0 -12.95 10.7 -13.5 10.25 -13.5 9.8 -13.55 9.5 -13.0 9.15 -12.4 9.15 -11.55 L9.2 -11.1 8.85 -11.5 7.85 -10.85 7.8 -11.65 Q7.8 -13.4 8.55 -14.6 9.25 -15.8 10.25 -15.75 L11.1 -15.5" fill="url(#gradient15)" fill-rule="evenodd" stroke="none"/>
    <path d="M12.65 -11.9 L13.8 -13.0 12.8 -16.4 11.1 -15.5 12.0 -14.5 Q12.6 -13.4 12.65 -11.9 L12.7 -11.5 Q12.7 -9.75 12.0 -8.55 11.25 -7.35 10.25 -7.35 9.55 -7.4 9.0 -8.0 L10.1 -9.5 10.25 -9.75 10.45 -9.5 10.25 -9.5 10.1 -9.5 M7.85 -10.85 L7.25 -10.5 M9.2 -11.1 L9.15 -11.55 Q9.15 -12.4 9.5 -13.0 9.8 -13.55 10.25 -13.5 10.7 -13.5 11.0 -12.95 11.35 -12.35 11.35 -11.5 11.35 -10.65 11.0 -10.1 L10.45 -9.5 M11.1 -15.5 L10.25 -15.75 Q9.25 -15.8 8.55 -14.6 7.8 -13.4 7.8 -11.65 L7.85 -10.85 8.85 -11.5 9.2 -11.1 10.25 -9.75" fill="none" stroke="#000000" stroke-linecap="round" stroke-linejoin="round" stroke-width="0.05"/>
  </g>
  <defs>
    <radialGradient cx="0" cy="0" gradientTransform="matrix(0.0135, 0.0, 0.0, 0.0135, 4.1, -9.25)" gradientUnits="userSpaceOnUse" id="gradient0" r="819.2" spreadMethod="pad">
      <stop offset="0.0" stop-color="#332d2b"/>
      <stop offset="1.0" stop-color="#0d0d0d"/>
    </radialGradient>
    <radialGradient cx="0" cy="0" gradientTransform="matrix(0.0169, 0.0, 0.0, 0.0169, 8.25, -17.85)" gradientUnits="userSpaceOnUse" id="gradient1" r="819.2" spreadMethod="pad">
      <stop offset="0.0" stop-color="#efece4"/>
      <stop offset="0.43529411764705883" stop-color="#8d662e"/>
      <stop offset="0.4666666666666667" stop-color="#422c0b"/>
      <stop offset="0.7294117647058823" stop-color="#bf8837"/>
      <stop offset="1.0" stop-color="#cba670"/>
    </radialGradient>
    <radialGradient cx="0" cy="0" gradientTransform="matrix(0.0109, 0.0, 0.0, 0.0109, -5.0, -8.0)" gradientUnits="userSpaceOnUse" id="gradient2" r="819.2" spreadMethod="pad">
      <stop offset="0.0" stop-color="#332d2b"/>
      <stop offset="1.0" stop-color="#0d0d0d"/>
    </radialGradient>
    <radialGradient cx="0" cy="0" gradientTransform="matrix(0.0117, 0.0, 0.0, 0.0117, -2.0, -12.6)" gradientUnits="userSpaceOnUse" id="gradient3" r="819.2" spreadMethod="pad">
      <stop offset="0.0" stop-color="#332d2b"/>
      <stop offset="1.0" stop-color="#0d0d0d"/>
    </radialGradient>
    <radialGradient cx="0" cy="0" gradientTransform="matrix(0.0098, 0.0, 0.0, 0.0098, 5.85, -10.1)" gradientUnits="userSpaceOnUse" id="gradient4" r="819.2" spreadMethod="pad">
      <stop offset="0.0" stop-color="#332d2b"/>
      <stop offset="1.0" stop-color="#0d0d0d"/>
    </radialGradient>
    <radialGradient cx="0" cy="0" gradientTransform="matrix(0.0098, 0.0, 0.0, 0.0098, 2.75, 7.75)" gradientUnits="userSpaceOnUse" id="gradient5" r="819.2" spreadMethod="pad">
      <stop offset="0.0" stop-color="#efece4"/>
      <stop offset="0.44313725490196076" stop-color="#8d662e"/>
      <stop offset="0.4666666666666667" stop-color="#422c0b"/>
      <stop offset="0.7294117647058823" stop-color="#bf8837"/>
      <stop offset="1.0" stop-color="#cba670"/>
    </radialGradient>
    <radialGradient cx="0" cy="0" gradientTransform="matrix(0.0101, 0.0, 0.0, 0.0101, 2.0, 13.75)" gradientUnits="userSpaceOnUse" id="gradient6" r="819.2" spreadMethod="pad">
      <stop offset="0.0" stop-color="#332d2b"/>
      <stop offset="1.0" stop-color="#0d0d0d"/>
    </radialGradient>
    <radialGradient cx="0" cy="0" gradientTransform="matrix(0.0055, 0.0, 0.0, 0.0055, -0.75, 2.15)" gradientUnits="userSpaceOnUse" id="gradient7" r="819.2" spreadMethod="pad">
      <stop offset="0.0" stop-color="#523e36"/>
      <stop offset="1.0" stop-color="#14100e"/>
    </radialGradient>
    <radialGradient cx="0" cy="0" gradientTransform="matrix(0.0043, 0.0, 0.0, 0.0043, 4.85, 1.65)" gradientUnits="userSpaceOnUse" id="gradient8" r="819.2" spreadMethod="pad">
      <stop offset="0.0" stop-color="#523e36"/>
      <stop offset="1.0" stop-color="#14100e"/>
    </radialGradient>
    <radialGradient cx="0" cy="0" gradientTransform="matrix(0.0055, 0.0, 0.0, 0.0055, 2.0, 0.25)" gradientUnits="userSpaceOnUse" id="gradient9" r="819.2" spreadMethod="pad">
      <stop offset="0.0" stop-color="#523e36"/>
      <stop offset="1.0" stop-color="#14100e"/>
    </radialGradient>
    <radialGradient cx="0" cy="0" gradientTransform="matrix(0.0098, 0.0, 0.0, 0.0098, 2.75, 7.75)" gradientUnits="userSpaceOnUse" id="gradient10" r="819.2" spreadMethod="pad">
      <stop offset="0.0" stop-color="#efece4"/>
      <stop offset="0.43529411764705883" stop-color="#8d662e"/>
      <stop offset="0.4666666666666667" stop-color="#422c0b"/>
      <stop offset="0.7294117647058823" stop-color="#bf8837"/>
      <stop offset="1.0" stop-color="#cba670"/>
    </radialGradient>
    <radialGradient cx="0" cy="0" gradientTransform="matrix(0.014, 0.0, 0.0, 0.014, 2.6, -7.6)" gradientUnits="userSpaceOnUse" id="gradient11" r="819.2" spreadMethod="pad">
      <stop offset="0.0" stop-color="#32522e"/>
      <stop offset="0.615686274509804" stop-color="#1e221a"/>
    </radialGradient>
    <linearGradient gradientTransform="matrix(-6.0E-4, 0.0036, -0.0057, -9.0E-4, 2.35, -4.55)" gradientUnits="userSpaceOnUse" id="gradient12" spreadMethod="pad" x1="-819.2" x2="819.2">
      <stop offset="0.0" stop-color="#151812"/>
      <stop offset="1.0" stop-color="#1e221a"/>
    </linearGradient>
    <radialGradient cx="0" cy="0" gradientTransform="matrix(-0.0038, -1.0E-4, 0.0, 0.0059, 13.9, -16.35)" gradientUnits="userSpaceOnUse" id="gradient13" r="819.2" spreadMethod="pad">
      <stop offset="0.0" stop-color="#523e36"/>
      <stop offset="1.0" stop-color="#14100e"/>
    </radialGradient>
    <radialGradient cx="0" cy="0" gradientTransform="matrix(-0.0025, -1.0E-4, 0.0, 0.0038, 10.2, -10.9)" gradientUnits="userSpaceOnUse" id="gradient14" r="819.2" spreadMethod="pad">
      <stop offset="0.0" stop-color="#523e36"/>
      <stop offset="1.0" stop-color="#14100e"/>
    </radialGradient>
    <radialGradient cx="0" cy="0" gradientTransform="matrix(-0.0052, -1.0E-4, 0.0, 0.0082, 10.0, -14.05)" gradientUnits="userSpaceOnUse" id="gradient15" r="819.2" spreadMethod="pad">
      <stop offset="0.0" stop-color="#efece4"/>
      <stop offset="0.4392156862745098" stop-color="#686053"/>
      <stop offset="0.4666666666666667" stop-color="#2b2622"/>
      <stop offset="0.7019607843137254" stop-color="#5a5350"/>
      <stop offset="1.0" stop-color="#5a9254"/>
    </radialGradient>
  </defs>
</svg>
