<?xml version="1.0" encoding="UTF-8" standalone="no"?>
<svg xmlns:xlink="http://www.w3.org/1999/xlink" height="15.15px" width="15.8px" xmlns="http://www.w3.org/2000/svg">
  <g transform="matrix(1.0, 0.0, 0.0, 1.0, 10.35, 5.95)">
    <path d="M-0.85 -5.75 L-0.5 -5.95 5.45 -2.0 0.95 6.45 Q-3.3 5.1 -8.5 9.2 L-10.35 7.55 -10.3 7.1 Q-5.65 2.65 -0.05 3.45 L1.55 -1.55 Q0.95 -3.8 -0.85 -5.75" fill="url(#gradient0)" fill-rule="evenodd" stroke="none"/>
    <path d="M-10.3 7.1 Q-9.7 2.05 -7.25 -2.2 -7.1 -3.1 -0.85 -5.75 0.95 -3.8 1.55 -1.55 L-0.05 3.45 Q-5.65 2.65 -10.3 7.1" fill="url(#gradient1)" fill-rule="evenodd" stroke="none"/>
    <path d="M-10.3 7.1 Q-9.7 2.05 -7.25 -2.2 -7.1 -3.1 -0.85 -5.75 L-0.5 -5.95 5.45 -2.0 0.95 6.45 Q-3.3 5.1 -8.5 9.2 L-10.35 7.55 -10.3 7.1 Q-5.65 2.65 -0.05 3.45 L1.55 -1.55 Q0.95 -3.8 -0.85 -5.75" fill="none" stroke="#000000" stroke-linecap="round" stroke-linejoin="round" stroke-width="0.05"/>
  </g>
  <defs>
    <radialGradient cx="0" cy="0" gradientTransform="matrix(0.0159, 0.0, 0.0, 0.0159, 1.4, 1.9)" gradientUnits="userSpaceOnUse" id="gradient0" r="819.2" spreadMethod="pad">
      <stop offset="0.0" stop-color="#ffffff"/>
      <stop offset="0.42745098039215684" stop-color="#7c9aad"/>
      <stop offset="0.44313725490196076" stop-color="#58607c"/>
      <stop offset="0.6470588235294118" stop-color="#7e8aa3"/>
      <stop offset="1.0" stop-color="#c2cde7"/>
    </radialGradient>
    <radialGradient cx="0" cy="0" gradientTransform="matrix(0.0116, 0.0, 0.0, 0.0116, -6.7, -1.7)" gradientUnits="userSpaceOnUse" id="gradient1" r="819.2" spreadMethod="pad">
      <stop offset="0.0" stop-color="#5a828b"/>
      <stop offset="0.5529411764705883" stop-color="#243d53"/>
      <stop offset="1.0" stop-color="#31402f"/>
    </radialGradient>
  </defs>
</svg>
