<?xml version="1.0" encoding="UTF-8" standalone="no"?>
<svg xmlns:xlink="http://www.w3.org/1999/xlink" height="30.4px" width="10.2px" xmlns="http://www.w3.org/2000/svg">
  <g transform="matrix(1.0, 0.0, 0.0, 1.0, 5.0, 15.2)">
    <path d="M-3.1 -14.5 L-3.1 -14.55 -2.75 -14.8 -3.1 -14.5" fill="url(#gradient0)" fill-rule="evenodd" stroke="none"/>
    <path d="M-2.75 -14.8 Q-0.05 -13.75 2.3 -15.2 L3.85 -11.35 4.65 -5.5 4.05 -4.65 3.0 -0.15 2.85 4.95 1.6 13.4 -0.1 15.2 -3.55 13.15 -3.7 0.5 -4.6 -4.9 -3.1 -14.5 -2.75 -14.8" fill="url(#gradient1)" fill-rule="evenodd" stroke="none"/>
    <path d="M-2.75 -14.8 Q-0.05 -13.75 2.3 -15.2 L3.85 -11.35 4.65 -5.5 4.05 -4.65 3.0 -0.15 2.85 4.95 1.6 13.4 -0.1 15.2 -3.55 13.15 -3.7 0.5 -4.6 -4.9 -3.1 -14.5 -3.1 -14.55 -2.75 -14.8 Z" fill="none" stroke="#000000" stroke-linecap="round" stroke-linejoin="round" stroke-width="0.05"/>
    <path d="M-1.7 -11.9 L-1.6 -12.7 3.4 -13.8 5.2 -3.7 4.2 -1.65 Q2.75 1.1 -1.0 0.8 L-1.25 0.85 -2.9 -4.0 -2.85 -4.7 -1.7 -11.9" fill="url(#gradient2)" fill-rule="evenodd" stroke="none"/>
    <path d="M-1.0 0.8 Q2.75 1.1 4.2 -1.65 L3.0 7.2 Q2.05 8.85 0.4 8.8 L0.2 7.5 -0.7 2.2 -1.0 0.8" fill="url(#gradient3)" fill-rule="evenodd" stroke="none"/>
    <path d="M0.2 7.5 L-3.95 11.3 -4.6 8.4 -0.7 2.2 0.2 7.5" fill="url(#gradient4)" fill-rule="evenodd" stroke="none"/>
    <path d="M-1.7 -11.9 L-2.85 -4.7 -5.0 -8.2 -4.6 -12.8 -1.7 -11.9" fill="url(#gradient5)" fill-rule="evenodd" stroke="none"/>
    <path d="M4.2 -1.65 L5.2 -3.7 3.4 -13.8 -1.6 -12.7 -1.7 -11.9 -2.85 -4.7 -2.9 -4.0 -1.25 0.85 -1.2 1.0 -1.0 0.8 Q2.75 1.1 4.2 -1.65 L3.0 7.2 Q2.05 8.85 0.4 8.8 L0.2 7.5 -3.95 11.3 -4.6 8.4 -0.7 2.2 -1.0 0.8 M-1.7 -11.9 L-4.6 -12.8 -5.0 -8.2 -2.85 -4.7 M0.2 7.5 L-0.7 2.2" fill="none" stroke="#000000" stroke-linecap="round" stroke-linejoin="round" stroke-width="0.05"/>
  </g>
  <defs>
    <radialGradient cx="0" cy="0" gradientTransform="matrix(0.0077, -2.0E-4, -2.0E-4, 0.0071, -2.05, -13.2)" gradientUnits="userSpaceOnUse" id="gradient0" r="819.2" spreadMethod="pad">
      <stop offset="0.0" stop-color="#403726"/>
      <stop offset="1.0" stop-color="#10100a"/>
    </radialGradient>
    <radialGradient cx="0" cy="0" gradientTransform="matrix(0.0236, 0.0, 0.0, 0.0236, -3.7, -3.8)" gradientUnits="userSpaceOnUse" id="gradient1" r="819.2" spreadMethod="pad">
      <stop offset="0.0" stop-color="#353a34"/>
      <stop offset="1.0" stop-color="#0f1113"/>
    </radialGradient>
    <radialGradient cx="0" cy="0" gradientTransform="matrix(0.0137, 0.0, 0.0, 0.0137, 1.0, -10.1)" gradientUnits="userSpaceOnUse" id="gradient2" r="819.2" spreadMethod="pad">
      <stop offset="0.0" stop-color="#ffffff"/>
      <stop offset="0.42745098039215684" stop-color="#7c9aad"/>
      <stop offset="0.44313725490196076" stop-color="#58607c"/>
      <stop offset="0.6470588235294118" stop-color="#7e8aa3"/>
      <stop offset="1.0" stop-color="#c2cde7"/>
    </radialGradient>
    <radialGradient cx="0" cy="0" gradientTransform="matrix(0.0101, 0.0, 0.0, 0.0101, 2.7, 0.9)" gradientUnits="userSpaceOnUse" id="gradient3" r="819.2" spreadMethod="pad">
      <stop offset="0.0" stop-color="#5a828b"/>
      <stop offset="0.5529411764705883" stop-color="#243d53"/>
      <stop offset="1.0" stop-color="#31402f"/>
    </radialGradient>
    <radialGradient cx="0" cy="0" gradientTransform="matrix(0.0071, 0.0, 0.0, 0.0071, -2.8, 8.9)" gradientUnits="userSpaceOnUse" id="gradient4" r="819.2" spreadMethod="pad">
      <stop offset="0.0" stop-color="#ffffff"/>
      <stop offset="0.42745098039215684" stop-color="#9b9f8a"/>
      <stop offset="0.44313725490196076" stop-color="#7c7c58"/>
      <stop offset="0.6470588235294118" stop-color="#9d9a84"/>
      <stop offset="1.0" stop-color="#d9d8d0"/>
    </radialGradient>
    <radialGradient cx="0" cy="0" gradientTransform="matrix(0.007, 0.0, 0.0, 0.007, -3.5, -11.2)" gradientUnits="userSpaceOnUse" id="gradient5" r="819.2" spreadMethod="pad">
      <stop offset="0.0" stop-color="#ffffff"/>
      <stop offset="0.42745098039215684" stop-color="#9b9f8a"/>
      <stop offset="0.44313725490196076" stop-color="#7c7c58"/>
      <stop offset="0.6470588235294118" stop-color="#9d9a84"/>
      <stop offset="1.0" stop-color="#d9d8d0"/>
    </radialGradient>
  </defs>
</svg>
