<?xml version="1.0" encoding="UTF-8" standalone="no"?>
<svg xmlns:xlink="http://www.w3.org/1999/xlink" height="5.3px" width="11.75px" xmlns="http://www.w3.org/2000/svg">
  <g transform="matrix(1.0, 0.0, 0.0, 1.0, 5.85, 2.65)">
    <path d="M-1.35 -2.65 L3.0 -2.4 5.05 -1.5 5.85 2.0 5.9 2.2 4.25 2.45 2.65 2.65 -5.7 1.2 -5.85 1.15 -5.85 0.65 -5.6 -2.2 -1.35 -2.65 M4.25 2.45 L5.85 2.0 4.25 2.45 3.35 2.5 2.65 2.65 3.35 2.5 4.25 2.45 M-5.85 0.65 L-5.7 1.2 -5.85 0.65" fill="url(#gradient0)" fill-rule="evenodd" stroke="none"/>
    <path d="M-1.35 -2.65 L3.0 -2.4 5.05 -1.5 5.85 2.0 4.25 2.45 3.35 2.5 2.65 2.65 -5.7 1.2 -5.85 0.65 -5.6 -2.2" fill="none" stroke="#000000" stroke-linecap="round" stroke-linejoin="round" stroke-width="0.05"/>
  </g>
  <defs>
    <radialGradient cx="0" cy="0" gradientTransform="matrix(0.0114, 0.0, 0.0, 0.0114, 3.2, -1.1)" gradientUnits="userSpaceOnUse" id="gradient0" r="819.2" spreadMethod="pad">
      <stop offset="0.0" stop-color="#ffffff"/>
      <stop offset="0.42745098039215684" stop-color="#7c9aad"/>
      <stop offset="0.44313725490196076" stop-color="#58607c"/>
      <stop offset="0.6470588235294118" stop-color="#7e8aa3"/>
      <stop offset="1.0" stop-color="#c2cde7"/>
    </radialGradient>
  </defs>
</svg>
