<?xml version="1.0" encoding="UTF-8" standalone="no"?>
<svg xmlns:xlink="http://www.w3.org/1999/xlink" height="32.85px" width="21.2px" xmlns="http://www.w3.org/2000/svg">
  <g transform="matrix(1.0, 0.0, 0.0, 1.0, 9.9, 16.4)">
    <path d="M7.85 -7.65 L7.5 -6.95 7.4 -7.8 7.85 -7.65 M-5.85 -4.35 L-6.4 -5.55 -6.15 -5.6 -5.85 -4.35" fill="url(#gradient0)" fill-rule="evenodd" stroke="none"/>
    <path d="M5.7 10.05 L5.8 10.05 5.95 13.05 2.15 16.45 -5.0 12.6 -4.7 8.75 -2.3 9.05 5.7 10.05" fill="url(#gradient1)" fill-rule="evenodd" stroke="none"/>
    <path d="M6.55 -1.7 L6.55 -1.65 4.95 5.05 5.0 5.05 5.55 6.75 Q5.9 8.45 5.7 10.05 L-2.3 9.05 -2.5 6.7 Q-2.5 2.85 -0.65 0.1 0.5 -1.6 2.0 -2.25 L3.8 -2.6 4.65 -2.5 Q5.65 -2.35 6.55 -1.7" fill="url(#gradient2)" fill-rule="evenodd" stroke="none"/>
    <path d="M4.4 -13.1 L4.65 -13.1 Q9.15 -11.95 9.95 -9.1 L7.85 -7.65 7.4 -7.8 7.5 -6.95 7.75 -4.2 7.3 -3.3 7.1 -2.95 6.55 -1.7 Q5.65 -2.35 4.65 -2.5 L3.8 -2.6 2.0 -2.25 Q0.5 -1.6 -0.65 0.1 -2.5 2.85 -2.5 6.7 L-2.3 9.05 -4.7 8.75 -5.1 4.45 -4.95 4.45 -4.95 4.4 Q-4.6 -0.75 -5.85 -4.35 L-6.15 -5.6 -6.2 -5.7 -6.25 -5.7 -9.9 -7.8 Q-9.9 -11.6 -5.2 -13.65 L-1.95 -14.05 -1.75 -14.1 -0.05 -16.4 4.4 -13.1 3.35 -12.35 4.4 -13.1" fill="url(#gradient3)" fill-rule="evenodd" stroke="none"/>
    <path d="M4.65 -13.1 Q9.15 -11.95 9.95 -9.1 M7.85 -7.65 L7.5 -6.95 7.75 -4.2 7.3 -3.3 7.1 -2.95 6.55 -1.7 6.55 -1.65 4.95 5.05 5.0 5.05 5.55 6.75 Q5.9 8.45 5.7 10.05 L5.8 10.05 5.95 13.05 M-5.0 12.6 L-4.7 8.75 -5.1 4.45 -5.1 4.4 -4.95 4.45 -4.95 4.4 Q-4.6 -0.75 -5.85 -4.35 L-6.15 -5.6 -6.2 -5.7 -6.25 -5.7 M-9.9 -7.8 Q-9.9 -11.6 -5.2 -13.65 L-1.95 -14.05 -1.75 -14.1 -0.05 -16.4 4.4 -13.1 3.35 -12.35 M7.4 -7.8 L7.5 -6.95 M-2.3 9.05 L5.7 10.05 M-2.3 9.05 L-4.7 8.75" fill="none" stroke="#000000" stroke-linecap="round" stroke-linejoin="round" stroke-width="0.05"/>
    <path d="M-2.9 -14.3 L5.75 -6.9 Q4.55 -1.95 4.65 3.0 L4.35 3.4 -5.2 -1.4 -5.9 -1.75 Q-5.55 -7.1 -6.9 -12.75 L-3.0 -14.4 -2.9 -14.3" fill="url(#gradient4)" fill-rule="evenodd" stroke="none"/>
    <path d="M5.75 -6.9 L8.75 -9.5 Q7.7 -5.25 8.0 -1.0 L6.0 1.4 4.65 3.0 Q4.55 -1.95 5.75 -6.9" fill="url(#gradient5)" fill-rule="evenodd" stroke="none"/>
    <path d="M8.75 -9.5 L5.75 -6.9 -2.9 -14.3 0.35 -13.9 5.0 -9.4 7.0 -12.15 8.75 -9.5" fill="url(#gradient6)" fill-rule="evenodd" stroke="none"/>
    <path d="M4.5 8.0 L-5.2 4.05 Q-4.6 1.75 -5.2 -1.4 L4.35 3.4 4.5 3.45 4.6 7.75 4.5 8.0" fill="url(#gradient7)" fill-rule="evenodd" stroke="none"/>
    <path d="M4.65 3.0 L6.0 1.4 Q5.65 3.0 6.0 5.35 L4.6 7.75 4.5 3.45 4.6 3.5 4.65 3.0" fill="url(#gradient8)" fill-rule="evenodd" stroke="none"/>
    <path d="M5.75 -6.9 L8.75 -9.5 7.0 -12.15 5.0 -9.4 0.35 -13.9 -2.9 -14.3 5.75 -6.9 Q4.55 -1.95 4.65 3.0 L6.0 1.4 8.0 -1.0 Q7.7 -5.25 8.75 -9.5 M-5.2 -1.4 L-5.9 -1.75 Q-5.55 -7.1 -6.9 -12.75 L-3.0 -14.4 -2.9 -14.3 M6.0 1.4 Q5.65 3.0 6.0 5.35 L4.6 7.75 4.6 8.0 4.55 8.0 4.5 8.0 -5.2 4.05 Q-4.6 1.75 -5.2 -1.4 L4.35 3.4 4.65 3.0 4.6 3.5 4.5 3.45 4.6 7.75 M4.35 3.4 L4.5 3.45" fill="none" stroke="#000000" stroke-linecap="round" stroke-linejoin="round" stroke-width="0.05"/>
    <path d="M11.3 -4.4 L11.3 -4.0 10.45 -2.6 Q7.95 -6.1 5.95 -4.95 L3.8 -12.15 6.65 -15.55 6.8 -15.35 Q5.95 -13.7 5.65 -11.75 L6.4 -7.5 Q9.1 -8.2 11.3 -4.4" fill="url(#gradient9)" fill-rule="evenodd" stroke="none"/>
    <path d="M11.3 -4.4 Q9.1 -8.2 6.4 -7.5 L5.65 -11.75 Q5.95 -13.7 6.8 -15.35 9.75 -13.1 10.4 -11.05 L11.3 -4.4" fill="url(#gradient10)" fill-rule="evenodd" stroke="none"/>
    <path d="M6.8 -15.35 L6.65 -15.55 3.8 -12.15 5.95 -4.95 Q7.95 -6.1 10.45 -2.6 L11.3 -4.0 11.3 -4.4 Q9.1 -8.2 6.4 -7.5 L5.65 -11.75 Q5.95 -13.7 6.8 -15.35 9.75 -13.1 10.4 -11.05 L11.3 -4.4" fill="none" stroke="#000000" stroke-linecap="round" stroke-linejoin="round" stroke-width="0.05"/>
    <path d="M6.15 -0.5 Q5.55 0.25 4.7 0.25 3.85 0.25 3.2 -0.5 2.6 -1.25 2.6 -2.35 2.6 -3.45 3.2 -4.2 3.85 -4.95 4.7 -4.95 5.55 -4.95 6.15 -4.2 6.8 -3.45 6.8 -2.35 6.8 -1.25 6.15 -0.5" fill="#ffffff" fill-rule="evenodd" stroke="none"/>
    <path d="M6.15 -0.5 Q5.55 0.25 4.7 0.25 3.85 0.25 3.2 -0.5 2.6 -1.25 2.6 -2.35 2.6 -3.45 3.2 -4.2 3.85 -4.95 4.7 -4.95 5.55 -4.95 6.15 -4.2 6.8 -3.45 6.8 -2.35 6.8 -1.25 6.15 -0.5 Z" fill="none" stroke="#000000" stroke-linecap="round" stroke-linejoin="round" stroke-width="0.05"/>
  </g>
  <defs>
    <radialGradient cx="0" cy="0" gradientTransform="matrix(0.0222, 0.0, 0.0, 0.0222, 2.85, -1.75)" gradientUnits="userSpaceOnUse" id="gradient0" r="819.2" spreadMethod="pad">
      <stop offset="0.0" stop-color="#6a7249"/>
      <stop offset="1.0" stop-color="#393a2c"/>
    </radialGradient>
    <radialGradient cx="0" cy="0" gradientTransform="matrix(0.0115, 0.0, 0.0, 0.0115, 3.7, 13.1)" gradientUnits="userSpaceOnUse" id="gradient1" r="819.2" spreadMethod="pad">
      <stop offset="0.0" stop-color="#ffffff"/>
      <stop offset="0.42745098039215684" stop-color="#7c9aad"/>
      <stop offset="0.44313725490196076" stop-color="#58607c"/>
      <stop offset="0.6470588235294118" stop-color="#7e8aa3"/>
      <stop offset="1.0" stop-color="#c2cde7"/>
    </radialGradient>
    <radialGradient cx="0" cy="0" gradientTransform="matrix(0.0148, 0.0, 0.0, 0.0148, 2.6, 8.9)" gradientUnits="userSpaceOnUse" id="gradient2" r="819.2" spreadMethod="pad">
      <stop offset="0.0" stop-color="#353a34"/>
      <stop offset="1.0" stop-color="#0f1113"/>
    </radialGradient>
    <radialGradient cx="0" cy="0" gradientTransform="matrix(0.0284, 0.0, 0.0, 0.0284, 2.2, -13.5)" gradientUnits="userSpaceOnUse" id="gradient3" r="819.2" spreadMethod="pad">
      <stop offset="0.0" stop-color="#353a34"/>
      <stop offset="1.0" stop-color="#0f1113"/>
    </radialGradient>
    <radialGradient cx="0" cy="0" gradientTransform="matrix(0.0182, 0.0, 0.0, 0.0182, 1.5, -0.4)" gradientUnits="userSpaceOnUse" id="gradient4" r="819.2" spreadMethod="pad">
      <stop offset="0.0" stop-color="#ffffff"/>
      <stop offset="0.42745098039215684" stop-color="#7c9aad"/>
      <stop offset="0.44313725490196076" stop-color="#58607c"/>
      <stop offset="0.6470588235294118" stop-color="#7e8aa3"/>
      <stop offset="1.0" stop-color="#c2cde7"/>
    </radialGradient>
    <radialGradient cx="0" cy="0" gradientTransform="matrix(0.0135, 0.0, 0.0, 0.0135, 5.6, 1.1)" gradientUnits="userSpaceOnUse" id="gradient5" r="819.2" spreadMethod="pad">
      <stop offset="0.0" stop-color="#ffffff"/>
      <stop offset="0.42745098039215684" stop-color="#7c9aad"/>
      <stop offset="0.44313725490196076" stop-color="#58607c"/>
      <stop offset="0.6470588235294118" stop-color="#7e8aa3"/>
      <stop offset="1.0" stop-color="#c2cde7"/>
    </radialGradient>
    <radialGradient cx="0" cy="0" gradientTransform="matrix(0.0087, 0.0, 0.0, 0.0087, 3.1, -10.4)" gradientUnits="userSpaceOnUse" id="gradient6" r="819.2" spreadMethod="pad">
      <stop offset="0.0" stop-color="#ffffff"/>
      <stop offset="0.42745098039215684" stop-color="#7c9aad"/>
      <stop offset="0.44313725490196076" stop-color="#58607c"/>
      <stop offset="0.6470588235294118" stop-color="#7e8aa3"/>
      <stop offset="1.0" stop-color="#c2cde7"/>
    </radialGradient>
    <radialGradient cx="0" cy="0" gradientTransform="matrix(0.0137, 0.0, 0.0, 0.0137, 2.3, 5.9)" gradientUnits="userSpaceOnUse" id="gradient7" r="819.2" spreadMethod="pad">
      <stop offset="0.0" stop-color="#ffffff"/>
      <stop offset="0.42745098039215684" stop-color="#9b9f8a"/>
      <stop offset="0.44313725490196076" stop-color="#7c7c58"/>
      <stop offset="0.6470588235294118" stop-color="#9d9a84"/>
      <stop offset="1.0" stop-color="#d9d8d0"/>
    </radialGradient>
    <radialGradient cx="0" cy="0" gradientTransform="matrix(0.0055, 0.0, 0.0, 0.0055, 5.1, 5.8)" gradientUnits="userSpaceOnUse" id="gradient8" r="819.2" spreadMethod="pad">
      <stop offset="0.0" stop-color="#ffffff"/>
      <stop offset="0.42745098039215684" stop-color="#9b9f8a"/>
      <stop offset="0.44313725490196076" stop-color="#7c7c58"/>
      <stop offset="0.6470588235294118" stop-color="#9d9a84"/>
      <stop offset="1.0" stop-color="#d9d8d0"/>
    </radialGradient>
    <radialGradient cx="0" cy="0" gradientTransform="matrix(0.012, 0.0, 0.0, 0.012, 4.8, -10.6)" gradientUnits="userSpaceOnUse" id="gradient9" r="819.2" spreadMethod="pad">
      <stop offset="0.0" stop-color="#ffffff"/>
      <stop offset="0.42745098039215684" stop-color="#7c9aad"/>
      <stop offset="0.44313725490196076" stop-color="#58607c"/>
      <stop offset="0.6470588235294118" stop-color="#7e8aa3"/>
      <stop offset="1.0" stop-color="#c2cde7"/>
    </radialGradient>
    <radialGradient cx="0" cy="0" gradientTransform="matrix(0.0085, 0.0, 0.0, 0.0085, 9.8, -11.2)" gradientUnits="userSpaceOnUse" id="gradient10" r="819.2" spreadMethod="pad">
      <stop offset="0.0" stop-color="#5a828b"/>
      <stop offset="0.5529411764705883" stop-color="#243d53"/>
      <stop offset="1.0" stop-color="#31402f"/>
    </radialGradient>
  </defs>
</svg>
