<?xml version="1.0" encoding="UTF-8" standalone="no"?>
<svg xmlns:xlink="http://www.w3.org/1999/xlink" height="51.7px" width="43.75px" xmlns="http://www.w3.org/2000/svg">
  <g transform="matrix(1.0, 0.0, 0.0, 1.0, 17.0, 20.1)">
    <path d="M17.0 -17.0 L15.1 -14.9 13.85 -19.1 14.85 -20.1 17.0 -17.0" fill="url(#gradient0)" fill-rule="evenodd" stroke="none"/>
    <path d="M17.0 -17.0 L18.2 -18.25 19.65 -16.55 14.2 -9.8 11.95 -11.55 15.1 -14.9 17.0 -17.0" fill="url(#gradient1)" fill-rule="evenodd" stroke="none"/>
    <path d="M18.85 0.15 Q22.05 3.0 23.55 2.95 L21.85 7.8 Q19.35 8.05 15.9 5.05 L18.85 0.15" fill="url(#gradient2)" fill-rule="evenodd" stroke="none"/>
    <path d="M6.35 5.3 L0.1 11.8 1.6 13.4 -0.1 16.05 -1.75 14.4 -1.9 14.55 -4.0 12.6 -6.05 10.75 -5.25 7.1 -5.05 6.85 -2.65 8.35 0.05 6.0 2.8 3.55 4.65 1.9 6.35 5.3" fill="url(#gradient3)" fill-rule="evenodd" stroke="none"/>
    <path d="M-5.05 6.85 L-2.25 3.85 0.05 6.0 -2.65 8.35 -5.05 6.85 M1.1 0.2 L2.7 -1.5 2.8 -1.65 2.95 -1.35 4.65 1.9 2.8 3.55 1.1 0.2 M2.95 -1.35 L2.7 -1.5 2.95 -1.35" fill="url(#gradient4)" fill-rule="evenodd" stroke="none"/>
    <path d="M-2.25 3.85 L1.1 0.2 2.8 3.55 0.05 6.0 -2.25 3.85" fill="url(#gradient5)" fill-rule="evenodd" stroke="none"/>
    <path d="M1.6 13.4 L7.1 19.25 5.3 21.35 -0.1 16.05 1.6 13.4" fill="url(#gradient6)" fill-rule="evenodd" stroke="none"/>
    <path d="M16.95 -1.65 L18.85 0.15 15.9 5.05 13.6 2.75 16.95 -1.65" fill="url(#gradient7)" fill-rule="evenodd" stroke="none"/>
    <path d="M-4.3 20.6 L-5.15 22.65 -7.5 18.9 -6.7 17.45 -4.3 20.6" fill="url(#gradient8)" fill-rule="evenodd" stroke="none"/>
    <path d="M-9.85 15.15 L-9.1 14.3 -6.7 17.45 -7.5 18.9 -9.85 15.15" fill="url(#gradient9)" fill-rule="evenodd" stroke="none"/>
    <path d="M16.3 -8.1 L26.75 -19.4 26.65 -14.65 21.55 -7.65 20.7 -8.0 19.75 -7.0 20.1 -6.15 19.05 -5.0 18.95 -4.9 17.05 -6.7 15.95 -7.75 16.3 -8.1" fill="url(#gradient10)" fill-rule="evenodd" stroke="none"/>
    <path d="M11.95 -11.55 L14.2 -9.8 15.2 -9.3 15.95 -8.5 15.05 -7.5 11.05 -10.5 11.95 -11.55 M19.05 -5.0 L19.25 -4.75 16.95 -1.65 13.6 2.75 11.35 5.75 9.8 5.7 9.4 2.25 17.05 -6.7 18.95 -4.9 19.05 -5.0" fill="url(#gradient11)" fill-rule="evenodd" stroke="none"/>
    <path d="M2.8 -1.65 L8.7 -8.0 12.85 -4.9 7.7 0.95 2.95 -1.35 2.8 -1.65" fill="url(#gradient12)" fill-rule="evenodd" stroke="none"/>
    <path d="M-9.1 14.3 L-6.15 11.05 -6.05 10.75 -4.0 12.6 -6.7 17.45 -9.1 14.3" fill="url(#gradient13)" fill-rule="evenodd" stroke="none"/>
    <path d="M-12.4 27.8 L-17.0 23.0 -9.85 15.15 -7.5 18.9 -12.4 27.8" fill="url(#gradient14)" fill-rule="evenodd" stroke="none"/>
    <path d="M15.95 -8.5 L16.3 -8.1 15.95 -7.75 17.05 -6.7 9.4 2.25 9.8 5.7 6.4 5.5 6.35 5.3 4.65 1.9 2.95 -1.35 7.7 0.95 12.85 -4.9 15.05 -7.5 15.95 -8.5 M-1.9 14.55 L-4.3 20.6 -6.7 17.45 -4.0 12.6 -1.9 14.55 M-5.15 22.65 L-8.75 31.6 -12.4 27.8 -7.5 18.9 -5.15 22.65" fill="#2f271e" fill-rule="evenodd" stroke="none"/>
    <path d="M14.2 -9.8 L19.65 -16.55 18.2 -18.25 17.0 -17.0 15.1 -14.9 11.95 -11.55 14.2 -9.8 15.2 -9.3 15.95 -8.5 16.3 -8.1 26.75 -19.4 26.65 -14.65 21.55 -7.65 20.7 -8.0 19.75 -7.0 20.1 -6.15 19.05 -5.0 19.25 -4.75 16.95 -1.65 18.85 0.15 Q22.05 3.0 23.55 2.95 L21.85 7.8 Q19.35 8.05 15.9 5.05 L13.6 2.75 11.35 5.75 9.8 5.7 6.4 5.5 6.35 5.3 0.1 11.8 1.6 13.4 7.1 19.25 5.3 21.35 -0.1 16.05 -1.75 14.4 -1.9 14.55 -4.3 20.6 -5.15 22.65 -8.75 31.6 -12.4 27.8 -17.0 23.0 -9.85 15.15 -9.1 14.3 -6.15 11.05 -6.05 10.75 -5.25 7.1 -5.05 6.85 -2.25 3.85 1.1 0.2 2.7 -1.5 2.8 -1.65 8.7 -8.0 11.05 -10.5 11.95 -11.55 M17.0 -17.0 L14.85 -20.1 13.85 -19.1 15.1 -14.9 M2.7 -1.5 L2.95 -1.35 2.8 -1.65 M17.05 -6.7 L15.95 -7.75 16.3 -8.1 M11.05 -10.5 L15.05 -7.5 15.95 -8.5 M19.05 -5.0 L18.95 -4.9 17.05 -6.7 9.4 2.25 9.8 5.7 M15.05 -7.5 L12.85 -4.9 7.7 0.95 2.95 -1.35 4.65 1.9 6.35 5.3 M12.85 -4.9 L8.7 -8.0 M15.9 5.05 L18.85 0.15 M2.8 3.55 L1.1 0.2 M2.8 3.55 L0.05 6.0 -2.65 8.35 -5.05 6.85 M4.65 1.9 L2.8 3.55 M16.95 -1.65 L13.6 2.75 M-1.9 14.55 L-4.0 12.6 -6.05 10.75 M-6.7 17.45 L-4.3 20.6 M-9.1 14.3 L-6.7 17.45 M-7.5 18.9 L-5.15 22.65 M-9.85 15.15 L-7.5 18.9 M-0.1 16.05 L1.6 13.4 M0.05 6.0 L-2.25 3.85" fill="none" stroke="#000000" stroke-linecap="round" stroke-linejoin="round" stroke-width="0.05"/>
  </g>
  <defs>
    <linearGradient gradientTransform="matrix(-0.0014, -0.0025, 0.0014, -8.0E-4, 15.1, -17.55)" gradientUnits="userSpaceOnUse" id="gradient0" spreadMethod="pad" x1="-819.2" x2="819.2">
      <stop offset="0.0" stop-color="#151515"/>
      <stop offset="0.5019607843137255" stop-color="#444444"/>
      <stop offset="1.0" stop-color="#111111"/>
    </linearGradient>
    <linearGradient gradientTransform="matrix(0.0034, -0.0043, 0.002, 0.0016, 16.4, -13.85)" gradientUnits="userSpaceOnUse" id="gradient1" spreadMethod="pad" x1="-819.2" x2="819.2">
      <stop offset="0.0" stop-color="#151515"/>
      <stop offset="0.5019607843137255" stop-color="#444444"/>
      <stop offset="1.0" stop-color="#111111"/>
    </linearGradient>
    <linearGradient gradientTransform="matrix(-0.0063, -0.0043, 0.0028, -0.0042, 20.55, 3.7)" gradientUnits="userSpaceOnUse" id="gradient2" spreadMethod="pad" x1="-819.2" x2="819.2">
      <stop offset="0.0" stop-color="#151515"/>
      <stop offset="0.5019607843137255" stop-color="#444444"/>
      <stop offset="1.0" stop-color="#111111"/>
    </linearGradient>
    <linearGradient gradientTransform="matrix(0.0083, 0.0064, -0.0052, 0.0068, 3.45, 9.8)" gradientUnits="userSpaceOnUse" id="gradient3" spreadMethod="pad" x1="-819.2" x2="819.2">
      <stop offset="0.0" stop-color="#151515"/>
      <stop offset="0.5019607843137255" stop-color="#444444"/>
      <stop offset="1.0" stop-color="#111111"/>
    </linearGradient>
    <linearGradient gradientTransform="matrix(-0.0016, -0.0017, 0.0051, -0.0048, -0.05, 3.7)" gradientUnits="userSpaceOnUse" id="gradient4" spreadMethod="pad" x1="-819.2" x2="819.2">
      <stop offset="0.0" stop-color="#151515"/>
      <stop offset="0.5019607843137255" stop-color="#444444"/>
      <stop offset="1.0" stop-color="#111111"/>
    </linearGradient>
    <linearGradient gradientTransform="matrix(-0.0016, -0.0017, 0.0051, -0.0048, -0.05, 3.7)" gradientUnits="userSpaceOnUse" id="gradient5" spreadMethod="pad" x1="-819.2" x2="819.2">
      <stop offset="0.0" stop-color="#040404"/>
      <stop offset="1.0" stop-color="#1a1a1a"/>
    </linearGradient>
    <linearGradient gradientTransform="matrix(0.0083, 0.0064, -0.0052, 0.0068, 3.45, 9.8)" gradientUnits="userSpaceOnUse" id="gradient6" spreadMethod="pad" x1="-819.2" x2="819.2">
      <stop offset="0.0" stop-color="#040404"/>
      <stop offset="1.0" stop-color="#1a1a1a"/>
    </linearGradient>
    <linearGradient gradientTransform="matrix(0.0032, 0.0, 0.0, 0.0041, 16.2, 1.7)" gradientUnits="userSpaceOnUse" id="gradient7" spreadMethod="pad" x1="-819.2" x2="819.2">
      <stop offset="0.0" stop-color="#040404"/>
      <stop offset="1.0" stop-color="#1a1a1a"/>
    </linearGradient>
    <linearGradient gradientTransform="matrix(-0.0041, -0.0035, 0.007, -0.0081, -6.4, 22.1)" gradientUnits="userSpaceOnUse" id="gradient8" spreadMethod="pad" x1="-819.2" x2="819.2">
      <stop offset="0.0" stop-color="#040404"/>
      <stop offset="1.0" stop-color="#1a1a1a"/>
    </linearGradient>
    <linearGradient gradientTransform="matrix(0.0019, 0.0, 0.0, 0.0028, -8.3, 16.6)" gradientUnits="userSpaceOnUse" id="gradient9" spreadMethod="pad" x1="-819.2" x2="819.2">
      <stop offset="0.0" stop-color="#040404"/>
      <stop offset="1.0" stop-color="#1a1a1a"/>
    </linearGradient>
    <linearGradient gradientTransform="matrix(-0.0021, -0.0018, 0.0059, -0.0079, 22.4, -12.55)" gradientUnits="userSpaceOnUse" id="gradient10" spreadMethod="pad" x1="-819.2" x2="819.2">
      <stop offset="0.0" stop-color="#bbbbbb"/>
      <stop offset="0.5686274509803921" stop-color="#6a6a6a"/>
      <stop offset="0.6" stop-color="#ffffff"/>
      <stop offset="0.7372549019607844" stop-color="#959595"/>
      <stop offset="1.0" stop-color="#1a1a1a"/>
    </linearGradient>
    <linearGradient gradientTransform="matrix(-0.0051, -0.0054, 0.0074, -0.007, 10.75, -2.05)" gradientUnits="userSpaceOnUse" id="gradient11" spreadMethod="pad" x1="-819.2" x2="819.2">
      <stop offset="0.0" stop-color="#ffffff"/>
      <stop offset="0.42745098039215684" stop-color="#7c9aad"/>
      <stop offset="0.44313725490196076" stop-color="#58607c"/>
      <stop offset="0.6470588235294118" stop-color="#7e8aa3"/>
      <stop offset="1.0" stop-color="#c2cde7"/>
    </linearGradient>
    <linearGradient gradientTransform="matrix(0.0061, 0.0, 0.0, 0.0055, 7.8, -3.55)" gradientUnits="userSpaceOnUse" id="gradient12" spreadMethod="pad" x1="-819.2" x2="819.2">
      <stop offset="0.0" stop-color="#ffffff"/>
      <stop offset="0.42745098039215684" stop-color="#7c9aad"/>
      <stop offset="0.44313725490196076" stop-color="#58607c"/>
      <stop offset="0.6470588235294118" stop-color="#7e8aa3"/>
      <stop offset="1.0" stop-color="#c2cde7"/>
    </linearGradient>
    <linearGradient gradientTransform="matrix(-0.0056, -0.0059, 0.0074, -0.0071, -7.25, 21.05)" gradientUnits="userSpaceOnUse" id="gradient13" spreadMethod="pad" x1="-819.2" x2="819.2">
      <stop offset="0.0" stop-color="#ffffff"/>
      <stop offset="0.42745098039215684" stop-color="#7c9aad"/>
      <stop offset="0.44313725490196076" stop-color="#58607c"/>
      <stop offset="0.6470588235294118" stop-color="#7e8aa3"/>
      <stop offset="1.0" stop-color="#c2cde7"/>
    </linearGradient>
    <linearGradient gradientTransform="matrix(0.0058, 0.0, 0.0, 0.0077, -12.25, 21.45)" gradientUnits="userSpaceOnUse" id="gradient14" spreadMethod="pad" x1="-819.2" x2="819.2">
      <stop offset="0.0" stop-color="#ffffff"/>
      <stop offset="0.42745098039215684" stop-color="#7c9aad"/>
      <stop offset="0.44313725490196076" stop-color="#58607c"/>
      <stop offset="0.6470588235294118" stop-color="#7e8aa3"/>
      <stop offset="1.0" stop-color="#c2cde7"/>
    </linearGradient>
  </defs>
</svg>
