<?xml version="1.0" encoding="UTF-8" standalone="no"?>
<svg xmlns:xlink="http://www.w3.org/1999/xlink" height="12.95px" width="11.55px" xmlns="http://www.w3.org/2000/svg">
  <g transform="matrix(1.0, 0.0, 0.0, 1.0, 4.0, 7.4)">
    <path d="M1.55 -1.1 L1.5 -0.45 1.5 0.8 1.0 5.55 -1.0 4.05 -1.4 1.25 -2.25 1.0 -2.85 -0.15 1.55 -1.1" fill="url(#gradient0)" fill-rule="evenodd" stroke="none"/>
    <path d="M1.5 -0.45 L1.55 -1.1 5.15 -1.9 5.0 -0.5 3.7 0.15 1.5 -0.45 3.7 0.15 5.0 -0.5 5.3 0.1 1.5 0.8 1.5 -0.45" fill="#000000" fill-rule="evenodd" stroke="none"/>
    <path d="M5.15 -1.9 L1.55 -1.1 -2.85 -0.15 -2.95 -0.15 -3.15 -0.1 -3.95 0.15 -4.0 -0.35 -3.55 -0.95 -3.8 -3.75 -2.35 -6.6 3.25 -7.4 5.8 -3.1 7.05 -3.1 7.55 -2.4 5.15 -1.9" fill="url(#gradient1)" fill-rule="evenodd" stroke="none"/>
    <path d="M1.55 -1.1 L1.5 -0.45 3.7 0.15 5.0 -0.5 5.15 -1.9 1.55 -1.1 -2.85 -0.15 -2.25 1.0 -1.4 1.25 -1.0 4.05 1.0 5.55 1.5 0.8 1.5 -0.45 M5.15 -1.9 L7.55 -2.4 7.05 -3.1 5.8 -3.1 3.25 -7.4 -2.35 -6.6 -3.8 -3.75 -3.55 -0.95 -4.0 -0.35 -3.95 0.15 -3.15 -0.1 -2.95 -0.15 -2.85 -0.15 M1.5 0.8 L5.3 0.1 5.0 -0.5" fill="none" stroke="#000000" stroke-linecap="round" stroke-linejoin="round" stroke-width="0.05"/>
  </g>
  <defs>
    <radialGradient cx="0" cy="0" gradientTransform="matrix(0.0068, 0.0, 0.0, 0.0068, -0.3, 4.15)" gradientUnits="userSpaceOnUse" id="gradient0" r="819.2" spreadMethod="pad">
      <stop offset="0.0" stop-color="#302925"/>
      <stop offset="1.0" stop-color="#0d0e0c"/>
    </radialGradient>
    <radialGradient cx="0" cy="0" gradientTransform="matrix(0.008, 0.0, 0.0, 0.008, 1.0, -2.5)" gradientUnits="userSpaceOnUse" id="gradient1" r="819.2" spreadMethod="pad">
      <stop offset="0.0" stop-color="#3a3946"/>
      <stop offset="0.6196078431372549" stop-color="#17171c"/>
      <stop offset="1.0" stop-color="#322323"/>
    </radialGradient>
  </defs>
</svg>
