<?xml version="1.0" encoding="UTF-8" standalone="no"?>
<svg xmlns:xlink="http://www.w3.org/1999/xlink" height="15.85px" width="13.6px" xmlns="http://www.w3.org/2000/svg">
  <g transform="matrix(1.0, 0.0, 0.0, 1.0, 8.3, 11.75)">
    <path d="M1.2 -9.7 L1.25 -9.6 1.15 -9.6 1.2 -9.7" fill="url(#gradient0)" fill-rule="evenodd" stroke="none"/>
    <path d="M1.25 -9.6 Q3.1 -5.15 1.7 -0.65 -3.1 1.3 -6.05 -1.65 -4.45 -7.4 1.15 -9.6 L1.25 -9.6" fill="url(#gradient1)" fill-rule="evenodd" stroke="none"/>
    <path d="M1.25 -9.6 L1.2 -9.7 2.2 -11.65 5.3 -11.75 4.2 0.35 -1.65 4.1 -8.3 1.2 -7.55 -1.65 -6.05 -1.65 Q-3.1 1.3 1.7 -0.65 3.1 -5.15 1.25 -9.6" fill="url(#gradient2)" fill-rule="evenodd" stroke="none"/>
    <path d="M1.2 -9.7 L1.25 -9.6 Q3.1 -5.15 1.7 -0.65 -3.1 1.3 -6.05 -1.65 L-7.55 -1.65 -8.3 1.2 -1.65 4.1 4.2 0.35 5.3 -11.75 2.2 -11.65 1.2 -9.7 1.15 -9.6 Q-4.45 -7.4 -6.05 -1.65" fill="none" stroke="#000000" stroke-linecap="round" stroke-linejoin="round" stroke-width="0.05"/>
  </g>
  <defs>
    <radialGradient cx="0" cy="0" gradientTransform="matrix(0.0136, 0.0, 0.0, 0.0136, -4.75, -3.1)" gradientUnits="userSpaceOnUse" id="gradient0" r="819.2" spreadMethod="pad">
      <stop offset="0.0" stop-color="#c7c5b8"/>
      <stop offset="0.24705882352941178" stop-color="#bf7748"/>
      <stop offset="0.6666666666666666" stop-color="#683f17"/>
      <stop offset="0.7137254901960784" stop-color="#ba6934"/>
      <stop offset="1.0" stop-color="#523625"/>
    </radialGradient>
    <radialGradient cx="0" cy="0" gradientTransform="matrix(0.0089, 0.0, 0.0, 0.0089, -2.0, -6.85)" gradientUnits="userSpaceOnUse" id="gradient1" r="819.2" spreadMethod="pad">
      <stop offset="0.0" stop-color="#b1c0cd"/>
      <stop offset="0.24705882352941178" stop-color="#515151"/>
      <stop offset="0.6666666666666666" stop-color="#1e1e1e"/>
      <stop offset="0.7137254901960784" stop-color="#564f32"/>
      <stop offset="1.0" stop-color="#111111"/>
    </radialGradient>
    <radialGradient cx="0" cy="0" gradientTransform="matrix(0.0136, 0.0, 0.0, 0.0136, -4.75, -3.1)" gradientUnits="userSpaceOnUse" id="gradient2" r="819.2" spreadMethod="pad">
      <stop offset="0.0" stop-color="#b6cfaf"/>
      <stop offset="0.24705882352941178" stop-color="#809c6b"/>
      <stop offset="0.6666666666666666" stop-color="#434b34"/>
      <stop offset="0.7137254901960784" stop-color="#808b63"/>
      <stop offset="1.0" stop-color="#3d4334"/>
    </radialGradient>
  </defs>
</svg>
