<?xml version="1.0" encoding="UTF-8" standalone="no"?>
<svg xmlns:xlink="http://www.w3.org/1999/xlink" height="40.1px" width="15.8px" xmlns="http://www.w3.org/2000/svg">
  <g transform="matrix(1.0, 0.0, 0.0, 1.0, 4.85, 7.5)">
    <path d="M3.4 32.6 L-4.85 17.4 -2.1 -0.65 0.95 2.5 -1.4 17.35 3.4 32.6" fill="url(#gradient0)" fill-rule="evenodd" stroke="none"/>
    <path d="M5.8 16.25 L10.95 28.2 3.4 17.2 2.65 3.9 4.9 1.65 5.8 16.25" fill="url(#gradient1)" fill-rule="evenodd" stroke="none"/>
    <path d="M3.4 32.6 L-1.4 17.35 0.95 2.5 -2.1 -0.65 -4.85 17.4 3.4 32.6" fill="none" stroke="url(#gradient2)" stroke-linecap="round" stroke-linejoin="round" stroke-width="0.05"/>
    <path d="M5.8 16.25 L4.9 1.65 2.65 3.9 3.4 17.2 10.95 28.2 5.8 16.25 Z" fill="none" stroke="url(#gradient3)" stroke-linecap="round" stroke-linejoin="round" stroke-width="0.05"/>
    <path d="M5.55 -2.1 L5.45 -2.5 5.6 -2.5 5.55 -2.1" fill="#ffffff" fill-rule="evenodd" stroke="none"/>
    <path d="M5.45 -2.5 L5.55 -2.1 5.25 0.3 5.6 2.5 3.15 4.45 0.85 4.0 -3.9 -1.6 -3.45 -2.25 Q1.8 -12.65 5.45 -2.5" fill="url(#gradient4)" fill-rule="evenodd" stroke="none"/>
    <path d="M5.45 -2.5 L5.55 -2.1 5.25 0.3 5.6 2.5 3.15 4.45 0.85 4.0 -3.9 -1.6 -3.45 -2.25 Q1.8 -12.65 5.45 -2.5 Z" fill="none" stroke="#000000" stroke-linecap="round" stroke-linejoin="round" stroke-width="0.05"/>
  </g>
  <defs>
    <radialGradient cx="0" cy="0" gradientTransform="matrix(0.0371, 0.0, 0.0, 0.0371, 2.1, 29.45)" gradientUnits="userSpaceOnUse" id="gradient0" r="819.2" spreadMethod="pad">
      <stop offset="0.0" stop-color="#ffffff"/>
      <stop offset="0.24705882352941178" stop-color="#81dff5"/>
      <stop offset="0.6470588235294118" stop-color="#a78a61"/>
      <stop offset="1.0" stop-color="#493a2e"/>
    </radialGradient>
    <radialGradient cx="0" cy="0" gradientTransform="matrix(0.0275, 0.0, 0.0, 0.0275, 8.55, 23.9)" gradientUnits="userSpaceOnUse" id="gradient1" r="819.2" spreadMethod="pad">
      <stop offset="0.0" stop-color="#ffffff"/>
      <stop offset="0.24705882352941178" stop-color="#81dff5"/>
      <stop offset="0.6470588235294118" stop-color="#a78a61"/>
      <stop offset="1.0" stop-color="#493a2e"/>
    </radialGradient>
    <linearGradient gradientTransform="matrix(0.0015, -0.0184, 0.0202, 0.0017, -0.55, 15.95)" gradientUnits="userSpaceOnUse" id="gradient2" spreadMethod="pad" x1="-819.2" x2="819.2">
      <stop offset="0.0" stop-color="#ffffff"/>
      <stop offset="0.1803921568627451" stop-color="#6cc1d7"/>
      <stop offset="0.47058823529411764" stop-color="#000000"/>
    </linearGradient>
    <linearGradient gradientTransform="matrix(9.0E-4, -0.0149, 0.0162, 0.001, 5.85, 14.7)" gradientUnits="userSpaceOnUse" id="gradient3" spreadMethod="pad" x1="-819.2" x2="819.2">
      <stop offset="0.0" stop-color="#ffffff"/>
      <stop offset="0.1803921568627451" stop-color="#6cc1d7"/>
      <stop offset="0.47058823529411764" stop-color="#000000"/>
    </linearGradient>
    <radialGradient cx="0" cy="0" gradientTransform="matrix(0.0132, 0.0, 0.0, 0.0132, 1.6, -6.25)" gradientUnits="userSpaceOnUse" id="gradient4" r="819.2" spreadMethod="pad">
      <stop offset="0.0" stop-color="#ffffff"/>
      <stop offset="0.42745098039215684" stop-color="#836549"/>
      <stop offset="0.44313725490196076" stop-color="#392d24"/>
      <stop offset="0.6980392156862745" stop-color="#7a615a"/>
      <stop offset="1.0" stop-color="#a27a77"/>
    </radialGradient>
  </defs>
</svg>
