<?xml version="1.0" encoding="UTF-8" standalone="no"?>
<svg xmlns:xlink="http://www.w3.org/1999/xlink" height="71.2px" width="27.95px" xmlns="http://www.w3.org/2000/svg">
  <g transform="matrix(1.0, 0.0, 0.0, 1.0, 14.0, 29.7)">
    <path d="M-2.3 -27.0 Q-5.25 -26.25 -8.2 -27.45 -10.85 -24.85 -10.75 -21.95 -6.35 -20.3 -3.25 -16.9 L-2.2 -12.4 -5.95 -11.4 -6.4 -15.7 Q-9.05 -18.9 -14.0 -20.65 -12.85 -25.7 -8.9 -29.7 -5.8 -27.65 -2.3 -27.0" fill="url(#gradient0)" fill-rule="evenodd" stroke="none"/>
    <path d="M2.8 -12.4 L3.45 -16.9 Q5.5 -20.3 8.4 -21.95 8.45 -24.85 6.7 -27.45 4.8 -26.25 2.85 -27.0 5.15 -27.65 7.15 -29.7 9.75 -25.7 10.5 -20.65 7.25 -18.9 5.55 -15.7 L5.25 -11.4 2.8 -12.4" fill="url(#gradient1)" fill-rule="evenodd" stroke="none"/>
    <path d="M5.25 -11.4 L6.5 -10.9 M5.2 -10.8 L5.25 -11.4 2.8 -12.4 2.0 -12.75" fill="none" stroke="#000000" stroke-linecap="round" stroke-linejoin="round" stroke-width="0.05"/>
    <path d="M-2.3 -27.0 Q-5.8 -27.65 -8.9 -29.7 -12.85 -25.7 -14.0 -20.65 -9.05 -18.9 -6.4 -15.7 L-5.95 -11.4 -2.2 -12.4 -3.25 -16.9 Q-6.35 -20.3 -10.75 -21.95 -10.85 -24.85 -8.2 -27.45 -5.25 -26.25 -2.3 -27.0 M-2.2 -12.4 L-1.0 -12.75 M-5.9 -10.8 L-5.95 -11.4 -7.85 -10.9" fill="none" stroke="url(#gradient2)" stroke-linecap="round" stroke-linejoin="round" stroke-width="0.05"/>
    <path d="M2.8 -12.4 L3.45 -16.9 Q5.5 -20.3 8.4 -21.95 8.45 -24.85 6.7 -27.45 4.8 -26.25 2.85 -27.0 5.15 -27.65 7.15 -29.7 9.75 -25.7 10.5 -20.65 7.25 -18.9 5.55 -15.7 L5.25 -11.4" fill="none" stroke="url(#gradient3)" stroke-linecap="round" stroke-linejoin="round" stroke-width="0.05"/>
    <path d="M6.75 -11.3 L13.95 -3.65 6.2 -9.55 11.85 3.85 4.0 -8.3 6.75 -11.3" fill="url(#gradient4)" fill-rule="evenodd" stroke="none"/>
    <path d="M6.75 -11.3 L13.95 -3.65 6.2 -9.55 11.85 3.85 4.0 -8.3 6.75 -11.3 6.2 -11.9" fill="none" stroke="#000000" stroke-linecap="round" stroke-linejoin="round" stroke-width="0.05"/>
    <path d="M7.4 -7.8 L7.85 -7.65 7.5 -6.95 7.4 -7.8" fill="#836201" fill-rule="evenodd" stroke="none"/>
    <path d="M-5.1 4.45 L-5.1 4.4 -4.95 4.45 -5.1 4.45" fill="url(#gradient5)" fill-rule="evenodd" stroke="none"/>
    <path d="M-5.85 -4.35 L-6.4 -5.55 -6.15 -5.6 -5.85 -4.35" fill="#333333" fill-rule="evenodd" stroke="none"/>
    <path d="M-6.2 -5.7 L-6.25 -5.7 -6.3 -5.7 -6.2 -5.7" fill="url(#gradient6)" fill-rule="evenodd" stroke="none"/>
    <path d="M4.95 5.05 L5.0 5.05 Q5.75 7.0 5.8 8.8 L5.7 10.05 -4.7 8.75 -5.1 4.45 -4.95 4.45 -1.35 4.65 4.95 5.05" fill="url(#gradient7)" fill-rule="evenodd" stroke="none"/>
    <path d="M3.35 -12.35 L4.4 -13.1 4.1 -13.35 Q7.35 -16.1 9.95 -9.1 L7.85 -7.65 7.4 -7.8 6.45 -9.5 5.4 -11.5 3.35 -12.35" fill="url(#gradient8)" fill-rule="evenodd" stroke="none"/>
    <path d="M6.45 -9.5 L7.4 -7.8 7.5 -6.95 7.75 -4.2 7.3 -3.3 7.1 -2.95 6.75 -2.1 Q5.35 -3.9 3.4 -3.9 1.35 -3.9 -0.1 -1.95 -1.5 0.05 -1.5 2.85 L-1.35 4.65 -4.95 4.45 Q-4.55 -0.75 -5.85 -4.35 L-6.15 -5.6 Q-3.4 -6.7 -2.4 -9.3 -1.95 -10.55 -1.9 -12.15 L5.2 -6.05 6.45 -9.5" fill="url(#gradient9)" fill-rule="evenodd" stroke="none"/>
    <path d="M3.35 -12.35 L5.4 -11.5 6.45 -9.5 5.2 -6.05 -1.9 -12.15 -1.9 -12.65 -1.95 -14.05 -1.75 -14.1 3.35 -12.35" fill="url(#gradient10)" fill-rule="evenodd" stroke="none"/>
    <path d="M4.1 -13.35 L4.4 -13.1 3.35 -12.35 -1.75 -14.1 -0.05 -16.4 4.1 -13.35" fill="url(#gradient11)" fill-rule="evenodd" stroke="none"/>
    <path d="M-6.15 -5.6 L-6.2 -5.7 -6.3 -5.7 -9.9 -7.8 Q-9.9 -11.6 -5.2 -13.65 L-1.95 -14.05 -1.9 -12.65 -1.9 -12.15 Q-1.95 -10.55 -2.4 -9.3 -3.4 -6.7 -6.15 -5.6" fill="url(#gradient12)" fill-rule="evenodd" stroke="none"/>
    <path d="M5.7 10.05 L5.8 10.05 5.95 13.05 2.15 16.45 -5.0 12.6 -4.7 8.75 5.7 10.05" fill="url(#gradient13)" fill-rule="evenodd" stroke="none"/>
    <path d="M6.75 -2.1 L6.55 -1.65 4.95 5.05 -1.35 4.65 -1.5 2.85 Q-1.5 0.05 -0.1 -1.95 1.35 -3.9 3.4 -3.9 5.35 -3.9 6.75 -2.1" fill="url(#gradient14)" fill-rule="evenodd" stroke="none"/>
    <path d="M4.1 -13.35 L4.4 -13.1 3.35 -12.35 5.4 -11.5 6.45 -9.5 7.4 -7.8 7.5 -6.95 7.75 -4.2 7.3 -3.3 7.1 -2.95 6.75 -2.1 6.55 -1.65 4.95 5.05 5.0 5.05 Q5.75 7.0 5.8 8.8 L5.7 10.05 5.8 10.05 5.95 13.05 M7.85 -7.65 L9.95 -9.1 Q7.35 -16.1 4.1 -13.35 L-0.05 -16.4 -1.75 -14.1 3.35 -12.35 M7.5 -6.95 L7.85 -7.65 M-5.0 12.6 L-4.7 8.75 -5.1 4.45 -5.1 4.4 -4.95 4.45 Q-4.55 -0.75 -5.85 -4.35 L-6.15 -5.6 -6.2 -5.7 -6.25 -5.7 -6.3 -5.7 -9.9 -7.8 Q-9.9 -11.6 -5.2 -13.65 L-1.95 -14.05 -1.75 -14.1 M6.45 -9.5 L5.2 -6.05 -1.9 -12.15 Q-1.95 -10.55 -2.4 -9.3 -3.4 -6.7 -6.15 -5.6 M-1.35 4.65 L4.95 5.05 M-1.9 -12.15 L-1.9 -12.65 -1.95 -14.05 M-1.35 4.65 L-4.95 4.45 M-4.7 8.75 L5.7 10.05" fill="none" stroke="#000000" stroke-linecap="round" stroke-linejoin="round" stroke-width="0.05"/>
    <path d="M7.55 18.0 L4.9 18.9 6.85 20.4 Q8.2 29.4 10.7 38.5 L8.8 38.75 8.05 35.15 7.45 35.15 7.8 37.2 5.4 36.9 4.1 32.15 3.15 32.15 2.7 40.2 -0.25 41.5 0.85 32.6 -0.25 31.55 Q-0.6 28.9 -1.3 26.1 L0.4 24.95 0.05 21.15 -1.8 19.95 Q-1.2 17.6 -1.2 14.95 L0.4 14.2 -1.2 13.0 -1.1 9.45 5.6 10.0 Q5.95 14.4 7.55 18.0 M2.8 22.1 L3.4 16.5 0.85 16.65 0.05 19.05 2.8 22.1 M4.0 29.7 L6.2 29.45 6.65 26.55 3.9 25.8 4.0 29.7" fill="url(#gradient15)" fill-rule="evenodd" stroke="none"/>
    <path d="M7.55 18.0 Q5.95 14.4 5.6 10.0 L-1.1 9.45 -1.2 13.0 0.4 14.2 -1.2 14.95 Q-1.2 17.6 -1.8 19.95 L0.05 21.15 0.4 24.95 -1.3 26.1 Q-0.6 28.9 -0.25 31.55 L0.85 32.6 -0.25 41.5 2.7 40.2 3.15 32.15 4.1 32.15 5.4 36.9 7.8 37.2 7.45 35.15 8.05 35.15 8.8 38.75 10.7 38.5 Q8.2 29.4 6.85 20.4 L4.9 18.9 7.55 18.0 M2.8 22.1 L3.4 16.5 0.85 16.65 0.05 19.05 2.8 22.1 M4.0 29.7 L6.2 29.45 6.65 26.55 3.9 25.8 4.0 29.7 Z" fill="none" stroke="#000000" stroke-linecap="round" stroke-linejoin="round" stroke-width="0.05"/>
    <path d="M9.45 -11.5 Q9.35 -10.75 8.85 -10.5 L7.65 -10.6 Q7.05 -10.9 6.65 -11.65 6.3 -12.4 6.4 -13.15 6.55 -13.85 7.1 -14.1 L8.2 -14.05 Q8.9 -13.7 9.25 -12.95 9.65 -12.2 9.45 -11.5" fill="url(#gradient16)" fill-rule="evenodd" stroke="none"/>
    <path d="M9.45 -11.5 Q9.35 -10.75 8.85 -10.5 L7.65 -10.6 Q7.05 -10.9 6.65 -11.65 6.3 -12.4 6.4 -13.15 6.55 -13.85 7.1 -14.1 L8.2 -14.05 Q8.9 -13.7 9.25 -12.95 9.65 -12.2 9.45 -11.5 Z" fill="none" stroke="#000000" stroke-linecap="round" stroke-linejoin="round" stroke-width="0.05"/>
    <path d="M-3.8 -7.1 L-5.15 -9.6 -2.45 -12.85 3.2 -7.75 5.8 -7.3 7.15 -10.25 8.55 -4.75 7.65 -0.4 7.65 -0.35 6.35 -0.1 4.05 0.25 -0.15 -3.65 -3.8 -7.1 M6.5 -5.1 L4.4 -5.35 -1.25 -8.55 3.55 -3.7 7.05 -3.65 7.5 -7.6 6.5 -5.1" fill="url(#gradient17)" fill-rule="evenodd" stroke="none"/>
    <path d="M-0.15 -3.65 L4.05 0.25 6.35 -0.1 5.25 2.85 1.6 2.35 -0.15 -3.65" fill="url(#gradient18)" fill-rule="evenodd" stroke="none"/>
    <path d="M6.5 -5.1 L7.5 -7.6 7.05 -3.65 3.55 -3.7 -1.25 -8.55 4.4 -5.35 6.5 -5.1" fill="url(#gradient19)" fill-rule="evenodd" stroke="none"/>
    <path d="M-3.8 -7.1 L-0.15 -3.65 1.6 2.35 0.1 2.15 -4.25 -4.3 -3.8 -7.1" fill="url(#gradient20)" fill-rule="evenodd" stroke="none"/>
    <path d="M6.35 -0.1 L7.65 -0.35 7.65 -0.4 8.55 -4.75 7.15 -10.25 5.8 -7.3 3.2 -7.75 -2.45 -12.85 -5.15 -9.6 -3.8 -7.1 -0.15 -3.65 4.05 0.25 6.35 -0.1 5.25 2.85 1.6 2.35 0.1 2.15 -4.25 -4.3 -3.8 -7.1" fill="none" stroke="#000000" stroke-linecap="round" stroke-linejoin="round" stroke-width="0.05"/>
  </g>
  <defs>
    <radialGradient cx="0" cy="0" gradientTransform="matrix(0.02, 0.0, 0.0, 0.02, -6.3, -27.8)" gradientUnits="userSpaceOnUse" id="gradient0" r="819.2" spreadMethod="pad">
      <stop offset="0.0" stop-color="#ffffff"/>
      <stop offset="0.24705882352941178" stop-color="#81dff5"/>
      <stop offset="0.6470588235294118" stop-color="#a78a61"/>
      <stop offset="1.0" stop-color="#493a2e"/>
    </radialGradient>
    <radialGradient cx="0" cy="0" gradientTransform="matrix(0.0199, 0.0, 0.0, 0.0199, 5.2, -27.7)" gradientUnits="userSpaceOnUse" id="gradient1" r="819.2" spreadMethod="pad">
      <stop offset="0.0" stop-color="#ffffff"/>
      <stop offset="0.24705882352941178" stop-color="#81dff5"/>
      <stop offset="0.6470588235294118" stop-color="#a78a61"/>
      <stop offset="1.0" stop-color="#493a2e"/>
    </radialGradient>
    <linearGradient gradientTransform="matrix(-6.0E-4, 0.011, -0.0115, -7.0E-4, -12.7, -21.0)" gradientUnits="userSpaceOnUse" id="gradient2" spreadMethod="pad" x1="-819.2" x2="819.2">
      <stop offset="0.0" stop-color="#ffffff"/>
      <stop offset="0.1803921568627451" stop-color="#6cc1d7"/>
      <stop offset="0.47058823529411764" stop-color="#000000"/>
    </linearGradient>
    <linearGradient gradientTransform="matrix(-1.0E-4, 0.0115, -0.0115, -1.0E-4, 5.95, -20.55)" gradientUnits="userSpaceOnUse" id="gradient3" spreadMethod="pad" x1="-819.2" x2="819.2">
      <stop offset="0.0" stop-color="#ffffff"/>
      <stop offset="0.1803921568627451" stop-color="#6cc1d7"/>
      <stop offset="0.47058823529411764" stop-color="#000000"/>
    </linearGradient>
    <radialGradient cx="0" cy="0" gradientTransform="matrix(0.0121, 0.0, 0.0, 0.0121, 10.85, -6.05)" gradientUnits="userSpaceOnUse" id="gradient4" r="819.2" spreadMethod="pad">
      <stop offset="0.0" stop-color="#ffffff"/>
      <stop offset="0.24705882352941178" stop-color="#81dff5"/>
      <stop offset="0.6470588235294118" stop-color="#a78a61"/>
      <stop offset="1.0" stop-color="#493a2e"/>
    </radialGradient>
    <radialGradient cx="0" cy="0" gradientTransform="matrix(0.0103, 4.0E-4, -5.0E-4, 0.0101, 3.05, 6.65)" gradientUnits="userSpaceOnUse" id="gradient5" r="819.2" spreadMethod="pad">
      <stop offset="0.0" stop-color="#a89786"/>
      <stop offset="1.0" stop-color="#484037"/>
    </radialGradient>
    <radialGradient cx="0" cy="0" gradientTransform="matrix(0.0077, 0.0, 0.0, 0.0077, -4.5, -11.0)" gradientUnits="userSpaceOnUse" id="gradient6" r="819.2" spreadMethod="pad">
      <stop offset="0.0" stop-color="#454545"/>
      <stop offset="1.0" stop-color="#1b1b1b"/>
    </radialGradient>
    <radialGradient cx="0" cy="0" gradientTransform="matrix(0.012, 0.0, 0.0, 0.012, 4.5, 6.75)" gradientUnits="userSpaceOnUse" id="gradient7" r="819.2" spreadMethod="pad">
      <stop offset="0.0" stop-color="#ffffff"/>
      <stop offset="0.42745098039215684" stop-color="#836549"/>
      <stop offset="0.44313725490196076" stop-color="#392d24"/>
      <stop offset="0.6980392156862745" stop-color="#7a615a"/>
      <stop offset="1.0" stop-color="#a27a77"/>
    </radialGradient>
    <radialGradient cx="0" cy="0" gradientTransform="matrix(0.0075, 0.0, 0.0, 0.0075, 5.4, -12.85)" gradientUnits="userSpaceOnUse" id="gradient8" r="819.2" spreadMethod="pad">
      <stop offset="0.0" stop-color="#ffffff"/>
      <stop offset="0.42745098039215684" stop-color="#836549"/>
      <stop offset="0.44313725490196076" stop-color="#392d24"/>
      <stop offset="0.6980392156862745" stop-color="#7a615a"/>
      <stop offset="1.0" stop-color="#a27a77"/>
    </radialGradient>
    <radialGradient cx="0" cy="0" gradientTransform="matrix(0.0189, 0.0, 0.0, 0.0189, -2.55, 3.15)" gradientUnits="userSpaceOnUse" id="gradient9" r="819.2" spreadMethod="pad">
      <stop offset="0.0" stop-color="#313627"/>
      <stop offset="1.0" stop-color="#151515"/>
    </radialGradient>
    <radialGradient cx="0" cy="0" gradientTransform="matrix(0.0107, 0.0, 0.0, 0.0107, 5.1, -8.9)" gradientUnits="userSpaceOnUse" id="gradient10" r="819.2" spreadMethod="pad">
      <stop offset="0.0" stop-color="#313627"/>
      <stop offset="1.0" stop-color="#151515"/>
    </radialGradient>
    <radialGradient cx="0" cy="0" gradientTransform="matrix(0.0045, 0.0, 0.0, 0.0045, 1.95, -13.75)" gradientUnits="userSpaceOnUse" id="gradient11" r="819.2" spreadMethod="pad">
      <stop offset="0.0" stop-color="#313627"/>
      <stop offset="1.0" stop-color="#151515"/>
    </radialGradient>
    <radialGradient cx="0" cy="0" gradientTransform="matrix(0.0079, 0.0, 0.0, 0.0079, -6.4, -9.35)" gradientUnits="userSpaceOnUse" id="gradient12" r="819.2" spreadMethod="pad">
      <stop offset="0.0" stop-color="#313627"/>
      <stop offset="1.0" stop-color="#151515"/>
    </radialGradient>
    <radialGradient cx="0" cy="0" gradientTransform="matrix(0.0112, 0.0, 0.0, 0.0112, -2.9, 12.9)" gradientUnits="userSpaceOnUse" id="gradient13" r="819.2" spreadMethod="pad">
      <stop offset="0.0" stop-color="#313627"/>
      <stop offset="1.0" stop-color="#151515"/>
    </radialGradient>
    <radialGradient cx="0" cy="0" gradientTransform="matrix(0.0108, 0.0, 0.0, 0.0108, 4.95, 4.4)" gradientUnits="userSpaceOnUse" id="gradient14" r="819.2" spreadMethod="pad">
      <stop offset="0.0" stop-color="#313627"/>
      <stop offset="1.0" stop-color="#151515"/>
    </radialGradient>
    <radialGradient cx="0" cy="0" gradientTransform="matrix(0.0366, 0.0, 0.0, 0.0366, 3.8, 11.8)" gradientUnits="userSpaceOnUse" id="gradient15" r="819.2" spreadMethod="pad">
      <stop offset="0.0" stop-color="#4878bf"/>
      <stop offset="1.0" stop-color="#22304d"/>
    </radialGradient>
    <radialGradient cx="0" cy="0" gradientTransform="matrix(0.0038, 0.0, 0.0, 0.0038, 8.2, -13.8)" gradientUnits="userSpaceOnUse" id="gradient16" r="819.2" spreadMethod="pad">
      <stop offset="0.0" stop-color="#ffffff"/>
      <stop offset="0.5725490196078431" stop-color="#69d9f3"/>
      <stop offset="0.611764705882353" stop-color="#345765"/>
      <stop offset="1.0" stop-color="#56e4d6"/>
    </radialGradient>
    <radialGradient cx="0" cy="0" gradientTransform="matrix(0.0104, 0.0, 0.0, 0.0104, 2.9, -6.95)" gradientUnits="userSpaceOnUse" id="gradient17" r="819.2" spreadMethod="pad">
      <stop offset="0.0" stop-color="#63e9cd"/>
      <stop offset="1.0" stop-color="#364685"/>
    </radialGradient>
    <radialGradient cx="0" cy="0" gradientTransform="matrix(0.0076, 0.0, 0.0, 0.0076, 3.0, 1.75)" gradientUnits="userSpaceOnUse" id="gradient18" r="819.2" spreadMethod="pad">
      <stop offset="0.0" stop-color="#314960"/>
      <stop offset="1.0" stop-color="#0c0c16"/>
    </radialGradient>
    <radialGradient cx="0" cy="0" gradientTransform="matrix(0.0068, 0.0, 0.0, 0.0068, 3.25, -5.2)" gradientUnits="userSpaceOnUse" id="gradient19" r="819.2" spreadMethod="pad">
      <stop offset="0.0" stop-color="#4878bf"/>
      <stop offset="1.0" stop-color="#22304d"/>
    </radialGradient>
    <radialGradient cx="0" cy="0" gradientTransform="matrix(0.0092, 0.0, 0.0, 0.0092, -3.0, -3.6)" gradientUnits="userSpaceOnUse" id="gradient20" r="819.2" spreadMethod="pad">
      <stop offset="0.0" stop-color="#4878bf"/>
      <stop offset="1.0" stop-color="#22304d"/>
    </radialGradient>
  </defs>
</svg>
