<?xml version="1.0" encoding="UTF-8" standalone="no"?>
<svg xmlns:xlink="http://www.w3.org/1999/xlink" height="12.7px" width="12.75px" xmlns="http://www.w3.org/2000/svg">
  <g transform="matrix(1.0, 0.0, 0.0, 1.0, 8.95, 6.95)">
    <path d="M-6.4 5.1 Q-7.1 3.6 -8.0 2.9 L-8.35 1.4 Q-7.15 1.9 -6.75 3.15 L-6.7 3.15 -6.4 5.1" fill="url(#gradient0)" fill-rule="evenodd" stroke="none"/>
    <path d="M1.0 3.65 Q0.1 4.3 -0.35 5.75 -2.85 4.65 -6.3 5.45 L-6.4 5.1 -6.7 3.15 Q-3.65 2.3 -0.65 3.25 L-0.6 3.2 1.0 3.65" fill="url(#gradient1)" fill-rule="evenodd" stroke="none"/>
    <path d="M-8.35 1.4 L-8.95 0.75 Q-5.85 -9.4 2.95 -6.15 -0.2 -2.55 -0.65 3.2 L-0.65 3.25 Q-3.65 2.3 -6.7 3.15 L-6.75 3.15 Q-7.15 1.9 -8.35 1.4" fill="url(#gradient2)" fill-rule="evenodd" stroke="none"/>
    <path d="M2.95 -6.15 L3.8 -4.05 1.0 3.65 Q0.1 4.3 -0.35 5.75 -2.85 4.65 -6.3 5.45 L-6.4 5.1 Q-7.1 3.6 -8.0 2.9 L-8.35 1.4 -8.95 0.75 Q-5.85 -9.4 2.95 -6.15 -0.2 -2.55 -0.65 3.2 L-0.6 3.2 1.0 3.65 M-0.65 3.25 L-0.65 3.2 M-0.65 3.25 Q-3.65 2.3 -6.7 3.15 L-6.4 5.1 M-8.35 1.4 Q-7.15 1.9 -6.75 3.15 L-6.7 3.15" fill="none" stroke="#000000" stroke-linecap="round" stroke-linejoin="round" stroke-width="0.05"/>
  </g>
  <defs>
    <radialGradient cx="0" cy="0" gradientTransform="matrix(0.0031, 0.0, 0.0, 0.0031, -6.95, 3.55)" gradientUnits="userSpaceOnUse" id="gradient0" r="819.2" spreadMethod="pad">
      <stop offset="0.0" stop-color="#0e131d"/>
      <stop offset="1.0" stop-color="#06060b"/>
    </radialGradient>
    <radialGradient cx="0" cy="0" gradientTransform="matrix(0.0066, 0.0, 0.0, 0.0066, -4.35, 3.8)" gradientUnits="userSpaceOnUse" id="gradient1" r="819.2" spreadMethod="pad">
      <stop offset="0.0" stop-color="#0e131d"/>
      <stop offset="1.0" stop-color="#06060b"/>
    </radialGradient>
    <radialGradient cx="0" cy="0" gradientTransform="matrix(0.0143, 0.0, 0.0, 0.0143, -4.85, 2.1)" gradientUnits="userSpaceOnUse" id="gradient2" r="819.2" spreadMethod="pad">
      <stop offset="0.0" stop-color="#efece4"/>
      <stop offset="0.41568627450980394" stop-color="#8d662e"/>
      <stop offset="0.4666666666666667" stop-color="#422c0b"/>
      <stop offset="0.7294117647058823" stop-color="#bf8837"/>
      <stop offset="1.0" stop-color="#cba670"/>
    </radialGradient>
  </defs>
</svg>
