<?xml version="1.0" encoding="UTF-8" standalone="no"?>
<svg xmlns:xlink="http://www.w3.org/1999/xlink" height="14.15px" width="27.15px" xmlns="http://www.w3.org/2000/svg">
  <g transform="matrix(1.0, 0.0, 0.0, 1.0, 13.6, 7.1)">
    <path d="M8.25 -6.3 L7.7 -2.65 6.8 -2.65 5.4 -4.25 7.05 -6.65 8.25 -6.3 M5.65 -1.45 L5.65 -2.3 5.85 -2.35 6.45 -1.7 Q8.8 1.15 10.05 5.05 L10.4 6.2 9.7 7.05 8.1 6.75 Q7.45 2.65 5.7 -1.4 L5.65 -1.45 M13.55 -2.35 L11.75 0.7 Q10.95 -0.75 10.0 -1.6 L12.3 -3.85 13.55 -2.35 M-9.45 -1.2 Q-10.5 -0.1 -11.0 1.55 L-13.6 -0.85 -12.6 -2.95 -9.45 -1.2 M-7.55 -7.1 L-5.05 -4.15 -6.2 -2.95 -7.55 -2.45 -8.85 -6.55 -7.55 -7.1" fill="#ffffff" fill-rule="evenodd" stroke="none"/>
  </g>
</svg>
