<?xml version="1.0" encoding="UTF-8" standalone="no"?>
<svg xmlns:xlink="http://www.w3.org/1999/xlink" height="30.4px" width="11.45px" xmlns="http://www.w3.org/2000/svg">
  <g transform="matrix(1.0, 0.0, 0.0, 1.0, 5.7, 15.2)">
    <path d="M2.3 -15.2 L3.85 -11.35 4.65 -5.5 4.05 -4.65 3.0 -0.15 2.85 4.95 1.6 13.4 0.15 14.95 Q-2.05 1.1 -2.0 -14.55 0.3 -13.95 2.3 -15.2" fill="url(#gradient0)" fill-rule="evenodd" stroke="none"/>
    <path d="M0.15 14.95 L-0.1 15.2 -3.55 13.15 -3.7 0.5 -4.6 -4.9 -3.1 -14.5 -3.1 -14.55 -2.75 -14.8 -2.0 -14.55 Q-2.05 1.1 0.15 14.95" fill="url(#gradient1)" fill-rule="evenodd" stroke="none"/>
    <path d="M2.3 -15.2 L3.85 -11.35 4.65 -5.5 4.05 -4.65 3.0 -0.15 2.85 4.95 1.6 13.4 M-3.55 13.15 L-3.7 0.5 -4.6 -4.9 -3.1 -14.5 -3.1 -14.55 -2.75 -14.8" fill="none" stroke="#000000" stroke-linecap="round" stroke-linejoin="round" stroke-width="0.05"/>
    <path d="M5.45 -7.95 L5.75 -5.2 4.8 -3.75 4.35 -1.7 Q2.4 -2.6 0.7 -4.15 -1.0 -5.7 -4.8 -7.45 L-5.65 -10.05 Q-0.9 -8.25 3.85 -5.2 4.55 -7.0 5.45 -7.95" fill="#595959" fill-rule="evenodd" stroke="none"/>
    <path d="M-5.65 -10.05 L-5.7 -10.25 -3.4 -13.35 Q4.4 -10.25 3.0 -13.5 L5.05 -11.5 5.45 -7.95 Q4.55 -7.0 3.85 -5.2 -0.9 -8.25 -5.65 -10.05" fill="url(#gradient2)" fill-rule="evenodd" stroke="none"/>
    <path d="M-4.3 2.2 Q-0.25 1.15 3.5 3.65 2.5 5.55 2.5 10.9 -0.25 13.55 -4.15 10.4 -3.7 4.0 -4.3 2.2" fill="url(#gradient3)" fill-rule="evenodd" stroke="none"/>
    <path d="M-5.65 -10.05 L-5.7 -10.25 -3.4 -13.35 Q4.4 -10.25 3.0 -13.5 L5.05 -11.5 5.45 -7.95 5.75 -5.2 4.8 -3.75 4.35 -1.7 Q2.4 -2.6 0.7 -4.15 -1.0 -5.7 -4.8 -7.45 L-5.65 -10.05 M-4.3 2.2 Q-0.25 1.15 3.5 3.65 2.5 5.55 2.5 10.9 -0.25 13.55 -4.15 10.4 -3.7 4.0 -4.3 2.2 Z" fill="none" stroke="#000000" stroke-linecap="round" stroke-linejoin="round" stroke-width="0.05"/>
  </g>
  <defs>
    <radialGradient cx="0" cy="0" gradientTransform="matrix(0.0186, 0.0, 0.0, 0.0186, 1.25, 0.0)" gradientUnits="userSpaceOnUse" id="gradient0" r="819.2" spreadMethod="pad">
      <stop offset="0.0" stop-color="#372f26"/>
      <stop offset="1.0" stop-color="#160d0c"/>
    </radialGradient>
    <radialGradient cx="0" cy="0" gradientTransform="matrix(0.0197, 0.0, 0.0, 0.0197, -2.75, -0.75)" gradientUnits="userSpaceOnUse" id="gradient1" r="819.2" spreadMethod="pad">
      <stop offset="0.0" stop-color="#231e18"/>
      <stop offset="1.0" stop-color="#0b0606"/>
    </radialGradient>
    <radialGradient cx="0" cy="0" gradientTransform="matrix(0.0112, 0.0, 0.0, 0.0112, 3.35, -8.75)" gradientUnits="userSpaceOnUse" id="gradient2" r="819.2" spreadMethod="pad">
      <stop offset="0.0" stop-color="#5a5e72"/>
      <stop offset="0.4117647058823529" stop-color="#1e2026"/>
      <stop offset="0.6901960784313725" stop-color="#090b11"/>
      <stop offset="1.0" stop-color="#141b27"/>
    </radialGradient>
    <radialGradient cx="0" cy="0" gradientTransform="matrix(0.0095, 0.0, 0.0, 0.0095, 1.5, 6.85)" gradientUnits="userSpaceOnUse" id="gradient3" r="819.2" spreadMethod="pad">
      <stop offset="0.0" stop-color="#5a5e72"/>
      <stop offset="0.4117647058823529" stop-color="#1e2026"/>
      <stop offset="0.6901960784313725" stop-color="#090b11"/>
      <stop offset="1.0" stop-color="#141b27"/>
    </radialGradient>
  </defs>
</svg>
