<?xml version="1.0" encoding="UTF-8" standalone="no"?>
<svg xmlns:xlink="http://www.w3.org/1999/xlink" height="65.75px" width="27.75px" xmlns="http://www.w3.org/2000/svg">
  <g transform="matrix(1.0, 0.0, 0.0, 1.0, 14.1, 20.4)">
    <path d="M4.7 -14.5 L3.35 -13.85 1.95 -14.8 -0.25 -16.25 -0.2 -16.4 3.3 -14.0 4.7 -14.5 M3.5 -5.35 L3.55 -5.35 3.5 -5.15 3.5 -5.35 3.5 -5.2 3.55 -5.35 3.5 -5.2 3.5 -5.35 M-2.2 -15.6 L-2.15 -15.65 -0.95 -15.25 -2.2 -15.6 M-0.25 -16.25 L-0.95 -15.25 -0.3 -16.3 -0.25 -16.25" fill="#8776cd" fill-rule="evenodd" stroke="none"/>
    <path d="M-4.6 8.6 L-5.2 5.4 Q-4.9 0.25 -6.2 -5.4 L-9.2 -7.25 Q-3.8 -8.05 -0.05 -4.3 L0.15 -4.25 0.6 -1.75 0.55 -1.7 Q-2.9 1.2 -2.4 9.0 L-4.6 8.6" fill="url(#gradient0)" fill-rule="evenodd" stroke="none"/>
    <path d="M7.55 -5.35 L7.8 -3.75 6.05 0.1 6.35 -1.65 6.9 -4.05 7.15 -4.15 7.55 -5.35" fill="url(#gradient1)" fill-rule="evenodd" stroke="none"/>
    <path d="M-5.55 -17.45 L-3.5 -19.75 Q0.35 -20.6 3.5 -19.1 L4.9 -17.55 6.3 -15.95 5.35 -15.65 5.15 -15.6 5.15 -14.75 5.2 -14.7 4.7 -14.5 3.3 -14.0 -0.2 -16.4 -0.25 -16.25 -0.3 -16.3 -0.95 -15.25 -2.15 -15.65 -4.45 -16.4 -6.7 -16.25 -5.55 -17.45" fill="url(#gradient2)" fill-rule="evenodd" stroke="none"/>
    <path d="M4.9 5.0 Q5.7 6.55 5.55 8.1 L0.7 7.65 0.4 9.5 -2.4 9.0 Q-2.9 1.2 0.55 -1.7 L0.65 -1.65 Q1.1 1.7 1.0 4.6 L4.9 5.0" fill="url(#gradient3)" fill-rule="evenodd" stroke="none"/>
    <path d="M5.55 8.1 L5.55 9.1 6.15 9.75 6.3 13.1 5.85 13.55 Q8.05 26.7 13.65 38.55 L1.85 45.35 Q-1.05 34.0 -1.45 22.2 L-1.5 14.7 -5.35 12.25 -4.65 8.6 -4.6 8.6 -2.4 9.0 0.4 9.5 0.7 7.65 5.55 8.1 M8.9 28.1 L3.5 43.6 8.9 28.1 M0.75 16.35 L-3.35 11.95 -2.55 10.15 4.5 10.7 5.5 19.1 6.0 18.6 5.5 19.1 -0.55 24.95 0.5 28.1 7.15 32.35 0.5 28.1 -0.55 24.95 5.5 19.1 4.5 10.7 -2.55 10.15 -3.35 11.95 0.75 16.35 M4.9 10.7 L4.5 10.7 4.25 8.85 4.5 10.7 4.9 10.7 M-1.1 16.85 L4.9 16.7 -1.1 16.85 M-0.5 27.45 L0.5 28.1 -0.5 27.45 M-1.45 22.2 L-0.55 24.95 -1.45 22.2 M-2.35 9.7 L-2.55 10.15 -3.1 10.1 -2.55 10.15 -2.35 9.7 M-3.35 11.95 L-4.6 10.6 -3.35 11.95" fill="url(#gradient4)" fill-rule="evenodd" stroke="none"/>
    <path d="M8.1 -6.45 L7.55 -5.35 7.15 -4.15 6.9 -4.05 6.35 -1.65 Q3.8 -3.4 0.65 -1.65 L0.6 -1.75 0.15 -4.25 -0.05 -4.3 Q-3.8 -8.05 -9.2 -7.25 L-10.35 -7.05 -10.3 -7.9 -11.85 -10.0 -11.55 -11.6 -11.5 -11.75 Q-11.0 -13.4 -9.95 -14.5 L-9.7 -14.75 -8.05 -15.75 -6.7 -16.25 -4.45 -16.4 -2.15 -15.65 -2.2 -15.6 0.3 -5.95 3.5 -5.15 3.55 -5.35 6.15 -6.4 4.7 -14.5 5.2 -14.7 Q6.95 -10.65 7.6 -6.55 L8.1 -6.45" fill="url(#gradient5)" fill-rule="evenodd" stroke="none"/>
    <path d="M11.25 -12.6 L12.15 -10.7 9.9 -7.1 9.55 -8.25 Q8.3 -12.15 5.95 -15.0 L5.35 -15.65 6.3 -15.95 7.2 -15.95 Q8.45 -15.85 9.5 -14.9 10.45 -14.05 11.25 -12.6" fill="url(#gradient6)" fill-rule="evenodd" stroke="none"/>
    <path d="M6.05 0.1 L5.6 5.05 4.9 5.0 1.0 4.6 Q1.1 1.7 0.65 -1.65 3.8 -3.4 6.35 -1.65 L6.05 0.1" fill="#1b2029" fill-rule="evenodd" stroke="none"/>
    <path d="M-0.25 -16.25 L1.95 -14.8 3.5 -5.35 3.5 -5.15 0.3 -5.95 -2.2 -15.6 -0.95 -15.25 -0.25 -16.25" fill="url(#gradient7)" fill-rule="evenodd" stroke="none"/>
    <path d="M1.95 -14.8 L3.35 -13.85 4.7 -14.5 6.15 -6.4 3.55 -5.35 3.5 -5.35 1.95 -14.8" fill="url(#gradient8)" fill-rule="evenodd" stroke="none"/>
    <path d="M9.5 -14.9 L11.8 -17.15 13.05 -15.65 11.25 -12.6 12.15 -10.7 9.9 -7.1 9.2 -6.25 8.1 -6.45 7.55 -5.35 7.8 -3.75 6.05 0.1 5.6 5.05 4.9 5.0 Q5.7 6.55 5.55 8.1 L5.55 9.1 6.15 9.75 6.3 13.1 5.85 13.55 Q8.05 26.7 13.65 38.55 L1.85 45.35 Q-1.05 34.0 -1.45 22.2 L-1.5 14.7 -5.35 12.25 -4.65 8.6 -4.6 8.6 -5.2 5.4 Q-4.9 0.25 -6.2 -5.4 L-9.2 -7.25 -10.35 -7.05 -10.3 -7.9 -11.85 -10.0 -11.55 -11.6 -11.5 -11.75 -14.1 -14.15 -13.1 -16.25 -9.95 -14.5 -9.7 -14.75 -8.05 -15.75 -9.35 -19.85 -8.05 -20.4 -5.55 -17.45 -3.5 -19.75 Q0.35 -20.6 3.5 -19.1 L4.9 -17.55 6.55 -19.95 7.75 -19.6 7.2 -15.95 Q8.45 -15.85 9.5 -14.9 10.45 -14.05 11.25 -12.6 M1.95 -14.8 L3.35 -13.85 4.7 -14.5 3.3 -14.0 -0.2 -16.4 -0.25 -16.25 1.95 -14.8 3.5 -5.35 3.55 -5.35 6.15 -6.4 4.7 -14.5 5.2 -14.7 5.15 -14.75 5.15 -15.6 5.35 -15.65 6.3 -15.95 4.9 -17.55 M5.35 -15.65 L5.95 -15.0 Q8.3 -12.15 9.55 -8.25 L9.9 -7.1 M6.3 -15.95 L7.2 -15.95 M8.1 -6.45 L7.6 -6.55 Q6.95 -10.65 5.2 -14.7 M3.5 -5.35 L3.5 -5.15 3.55 -5.35 3.5 -5.2 3.5 -5.35 M0.6 -1.75 L0.55 -1.7 M0.65 -1.65 L0.6 -1.75 0.15 -4.25 -0.05 -4.3 Q-3.8 -8.05 -9.2 -7.25 M3.5 -5.15 L0.3 -5.95 -2.2 -15.6 -0.95 -15.25 -0.3 -16.3 -0.25 -16.25 -0.95 -15.25 -2.15 -15.65 -4.45 -16.4 -6.7 -16.25 -8.05 -15.75 M6.35 -1.65 L6.9 -4.05 7.15 -4.15 7.55 -5.35 M6.35 -1.65 L6.05 0.1 M0.65 -1.65 Q1.1 1.7 1.0 4.6 L4.9 5.0 M5.55 8.1 L0.7 7.65 0.4 9.5 -2.4 9.0 -4.6 8.6 M-6.7 -16.25 L-5.55 -17.45 M-11.5 -11.75 Q-11.0 -13.4 -9.95 -14.5" fill="none" stroke="#000000" stroke-linecap="round" stroke-linejoin="round" stroke-width="0.05"/>
    <path d="M4.25 8.85 L4.5 10.7 4.9 10.7 M6.0 18.6 L5.5 19.1 -0.55 24.95 0.5 28.1 7.15 32.35 M5.5 19.1 L4.5 10.7 -2.55 10.15 -3.35 11.95 0.75 16.35 M3.5 43.6 L8.9 28.1 M-4.6 10.6 L-3.35 11.95 M-2.55 10.15 L-3.1 10.1 M-2.55 10.15 L-2.35 9.7 M-0.55 24.95 L-1.45 22.2 M0.5 28.1 L-0.5 27.45 M4.9 16.7 L-1.1 16.85" fill="none" stroke="#11131a" stroke-linecap="round" stroke-linejoin="round" stroke-width="0.05"/>
  </g>
  <defs>
    <radialGradient cx="0" cy="0" gradientTransform="matrix(0.0165, 0.0, 0.0, 0.0165, -3.75, 5.15)" gradientUnits="userSpaceOnUse" id="gradient0" r="819.2" spreadMethod="pad">
      <stop offset="0.0" stop-color="#372f26"/>
      <stop offset="1.0" stop-color="#160d0c"/>
    </radialGradient>
    <radialGradient cx="0" cy="0" gradientTransform="matrix(0.0046, 0.0, 0.0, 0.0046, 6.4, -1.85)" gradientUnits="userSpaceOnUse" id="gradient1" r="819.2" spreadMethod="pad">
      <stop offset="0.0" stop-color="#372f26"/>
      <stop offset="1.0" stop-color="#160d0c"/>
    </radialGradient>
    <radialGradient cx="0" cy="0" gradientTransform="matrix(0.0102, 0.0, 0.0, 0.0102, 1.5, -17.85)" gradientUnits="userSpaceOnUse" id="gradient2" r="819.2" spreadMethod="pad">
      <stop offset="0.0" stop-color="#372f26"/>
      <stop offset="1.0" stop-color="#160d0c"/>
    </radialGradient>
    <radialGradient cx="0" cy="0" gradientTransform="matrix(0.0304, 0.0, 0.0, 0.0109, 3.0, 6.9)" gradientUnits="userSpaceOnUse" id="gradient3" r="819.2" spreadMethod="pad">
      <stop offset="0.0" stop-color="#231e18"/>
      <stop offset="1.0" stop-color="#0b0606"/>
    </radialGradient>
    <radialGradient cx="0" cy="0" gradientTransform="matrix(0.0314, 0.0, 0.0, 0.0314, 2.25, 19.65)" gradientUnits="userSpaceOnUse" id="gradient4" r="819.2" spreadMethod="pad">
      <stop offset="0.0" stop-color="#303561"/>
      <stop offset="1.0" stop-color="#202224"/>
    </radialGradient>
    <radialGradient cx="0" cy="0" gradientTransform="matrix(0.024, 0.0, 0.0, 0.024, 4.9, -2.85)" gradientUnits="userSpaceOnUse" id="gradient5" r="819.2" spreadMethod="pad">
      <stop offset="0.0" stop-color="#5a5e72"/>
      <stop offset="0.4117647058823529" stop-color="#1e2026"/>
      <stop offset="0.6901960784313725" stop-color="#090b11"/>
      <stop offset="1.0" stop-color="#141b27"/>
    </radialGradient>
    <radialGradient cx="0" cy="0" gradientTransform="matrix(0.0086, 0.0, 0.0, 0.0086, 10.4, -10.75)" gradientUnits="userSpaceOnUse" id="gradient6" r="819.2" spreadMethod="pad">
      <stop offset="0.0" stop-color="#5a5e72"/>
      <stop offset="0.4117647058823529" stop-color="#1e2026"/>
      <stop offset="0.6901960784313725" stop-color="#090b11"/>
      <stop offset="1.0" stop-color="#141b27"/>
    </radialGradient>
    <linearGradient gradientTransform="matrix(-5.0E-4, -0.0069, 0.003, -2.0E-4, 0.65, -10.6)" gradientUnits="userSpaceOnUse" id="gradient7" spreadMethod="pad" x1="-819.2" x2="819.2">
      <stop offset="0.0" stop-color="#4e7c87"/>
      <stop offset="0.4980392156862745" stop-color="#171c1c"/>
      <stop offset="1.0" stop-color="#140f0e"/>
    </linearGradient>
    <linearGradient gradientTransform="matrix(-5.0E-4, -0.0058, 0.0021, -2.0E-4, 4.1, -10.15)" gradientUnits="userSpaceOnUse" id="gradient8" spreadMethod="pad" x1="-819.2" x2="819.2">
      <stop offset="0.0" stop-color="#4e7c87"/>
      <stop offset="0.4980392156862745" stop-color="#171c1c"/>
      <stop offset="1.0" stop-color="#140f0e"/>
    </linearGradient>
  </defs>
</svg>
