<?xml version="1.0" encoding="UTF-8" standalone="no"?>
<svg xmlns:xlink="http://www.w3.org/1999/xlink" height="17.1px" width="16.35px" xmlns="http://www.w3.org/2000/svg">
  <g transform="matrix(1.0, 0.0, 0.0, 1.0, 8.15, 8.55)">
    <path d="M4.2 -8.55 Q6.05 -8.55 6.6 -6.95 6.9 -5.15 7.2 -4.65 L7.95 -5.65 8.2 -5.65 7.8 -4.15 Q6.1 -4.55 5.95 -5.8 L5.7 -7.65 5.55 -7.4 5.45 -7.2 4.2 -7.2 3.95 -8.4 4.2 -8.55 M-0.15 -2.5 L-0.05 5.2 0.7 4.8 Q1.75 4.8 2.1 5.8 L1.05 5.2 Q0.1 5.2 -0.1 6.0 L-0.35 6.0 -0.4 5.55 -0.35 -2.5 -0.15 -2.5 M-4.0 8.5 L-4.2 7.95 Q-4.2 6.2 -1.7 6.2 L-1.45 6.2 Q-1.65 5.6 -2.5 5.6 L-3.2 5.75 -3.2 6.15 -3.55 6.15 -3.7 5.8 Q-3.7 5.1 -2.7 5.1 -1.9 5.1 -1.7 5.4 -1.4 3.25 -1.4 0.5 L-1.6 -2.8 -1.45 -2.85 Q-1.0 -1.85 -1.0 0.65 -1.0 4.4 -1.3 6.25 -0.1 6.45 0.5 7.95 L0.45 8.05 -0.35 7.0 Q-0.7 6.65 -1.35 6.6 L-1.45 6.6 -1.85 6.55 Q-2.95 6.55 -3.6 7.35 -4.2 8.05 -3.9 8.45 L-4.0 8.5 M0.4 -3.0 L0.55 -3.75 Q0.75 -4.2 1.55 -4.2 L1.75 -4.2 2.05 -4.35 Q2.85 -4.35 3.15 -2.95 L2.8 -2.0 Q2.5 -2.1 2.25 -3.15 L2.0 -3.2 Q1.2 -3.2 1.0 -2.7 L0.85 -2.15 0.8 -2.15 0.75 -2.05 0.4 -2.05 0.4 -3.0 M2.7 -2.8 L2.75 -3.0 2.05 -3.75 1.6 -3.8 Q0.3 -3.8 0.65 -2.55 0.75 -3.55 1.7 -3.55 2.5 -3.55 2.65 -2.8 L2.7 -2.8 M-5.75 -1.9 Q-6.3 -1.95 -6.2 -2.45 -6.2 -3.45 -4.95 -3.45 L-3.75 -3.15 Q-4.05 -3.9 -5.05 -3.9 -6.85 -3.9 -6.85 -2.55 -6.85 -1.8 -5.8 -1.2 -4.75 -0.55 -4.75 -0.15 -4.75 0.8 -5.9 1.0 L-6.0 0.85 -5.65 0.15 Q-5.65 -0.8 -6.3 -0.8 -7.7 -0.8 -7.75 0.7 -7.75 1.85 -6.7 2.3 -5.45 2.35 -5.5 3.4 -5.5 4.25 -6.7 5.2 L-7.1 5.1 Q-5.9 3.9 -5.9 3.5 -5.9 2.7 -6.75 2.7 L-7.35 3.15 -7.6 3.1 -7.65 2.9 Q-7.65 2.45 -7.2 2.35 L-7.7 1.7 -8.15 0.65 Q-8.15 -0.95 -6.7 -1.25 -7.25 -1.5 -7.25 -2.6 -7.25 -4.35 -5.2 -4.35 -3.25 -4.35 -3.25 -2.6 L-3.35 -1.55 -3.7 -1.45 -3.75 -1.45 -3.9 -1.45 -3.9 -1.5 -3.95 -1.5 -3.95 -1.55 -4.0 -1.65 -3.85 -2.15 Q-3.9 -3.05 -5.2 -3.05 -5.95 -3.05 -5.95 -2.35 -5.95 -2.2 -5.7 -2.2 L-5.7 -2.0 -5.75 -1.9 M-2.8 0.75 Q-3.6 0.75 -3.6 0.1 -3.6 -0.6 -2.95 -0.6 -2.15 -0.6 -2.15 0.0 -2.15 0.75 -2.8 0.75 M-2.5 0.0 Q-2.5 -0.3 -3.05 -0.15 L-3.15 0.3 -2.95 0.4 -2.5 0.0 M-5.4 -0.35 L-5.25 0.1 -5.25 0.15 -5.2 -0.2 -5.4 -0.4 -5.4 -0.35 M2.2 0.2 L2.25 0.15 2.4 0.3 2.0 0.45 1.55 -0.5 Q1.55 -1.3 2.15 -1.3 2.95 -1.3 2.95 0.2 2.95 0.7 2.2 1.25 1.45 1.85 1.45 2.15 L2.2 3.0 2.05 3.3 Q1.35 3.3 1.15 2.9 L1.1 2.5 Q1.1 1.75 1.9 1.1 L2.65 0.15 Q2.65 -0.4 2.25 -0.95 L1.8 -0.4 2.05 0.2 2.2 0.2 M5.45 -7.9 Q4.35 -8.55 4.35 -8.05 4.6 -7.65 5.2 -7.65 L5.45 -7.9" fill="#f5dd81" fill-rule="evenodd" stroke="none"/>
    <path d="M-1.35 6.6 L-1.45 6.7 -1.45 6.6 -1.35 6.6 M-3.9 8.45 L-3.95 8.55 -4.0 8.5 -3.9 8.45 M2.25 0.15 L2.2 0.2 1.95 -0.15 2.25 0.15" fill="#00ffff" fill-rule="evenodd" stroke="none"/>
  </g>
</svg>
