<?xml version="1.0" encoding="UTF-8" standalone="no"?>
<svg xmlns:xlink="http://www.w3.org/1999/xlink" height="22.35px" width="20.7px" xmlns="http://www.w3.org/2000/svg">
  <g transform="matrix(1.0, 0.0, 0.0, 1.0, 10.35, 11.2)">
    <path d="M8.0 -11.2 Q8.15 -10.95 7.95 -10.6 L7.8 -10.05 7.75 -9.4 8.45 -8.75 9.25 -8.0 9.35 -7.8 10.3 -8.4 Q10.65 -7.7 9.15 -7.1 L6.4 -6.2 Q4.95 -5.85 4.1 -4.9 L5.5 -4.75 Q3.0 -4.15 1.05 -5.5 L0.85 -5.65 0.8 -5.6 1.95 -4.8 2.8 -3.9 3.15 -3.2 5.55 -3.45 5.55 -3.65 Q5.5 -3.95 5.75 -3.9 L5.85 -3.65 6.9 -4.7 7.4 -4.95 Q8.7 -5.15 9.7 -4.6 9.65 -4.1 9.05 -4.3 L8.05 -4.6 7.8 -4.75 7.35 -4.55 Q7.45 -4.0 7.15 -3.35 L6.6 -2.15 6.5 -1.9 7.05 -1.1 7.75 -0.1 Q8.15 0.25 8.15 0.7 7.55 0.95 7.0 0.15 L6.1 -0.9 5.55 -1.5 5.55 -2.25 5.55 -2.95 Q4.6 -1.9 2.8 -2.6 L2.6 -1.7 2.35 -0.6 0.9 0.45 0.55 0.65 0.25 3.45 0.1 4.4 0.1 4.6 0.3 5.0 0.3 5.05 Q1.75 5.6 2.65 6.9 L3.75 9.05 Q4.1 10.1 4.75 11.15 L4.15 10.75 3.85 10.25 3.4 9.8 Q3.25 8.75 2.75 7.8 2.1 6.55 0.9 5.95 L-0.05 5.05 -0.6 6.55 -2.1 9.05 Q-1.65 7.35 -0.8 5.75 -0.05 4.35 -0.05 2.7 0.0 1.6 0.3 0.75 L-0.7 1.3 -0.75 1.25 Q-0.55 0.45 0.35 0.05 L1.7 -0.7 1.75 -0.75 1.55 -2.05 1.25 -3.45 1.15 -4.3 0.1 -5.35 -0.95 -4.9 Q-1.85 -4.65 -2.4 -4.05 L-3.6 -2.8 -7.55 -3.1 -8.45 -2.35 -9.2 -1.85 -9.9 -1.3 Q-10.2 -1.0 -10.35 -1.1 L-9.0 -2.6 -8.55 -2.9 -8.55 -3.0 -8.45 -2.95 Q-7.3 -3.65 -5.9 -3.5 L-6.25 -4.25 -5.85 -3.8 -5.5 -3.45 -5.15 -3.4 -3.8 -3.2 -2.8 -4.35 -1.65 -5.15 -0.1 -5.6 -0.15 -5.65 Q-0.8 -6.4 -1.7 -6.7 L-1.75 -7.45 Q-1.8 -8.0 -2.15 -8.45 -2.45 -8.85 -2.2 -9.3 L-2.05 -9.45 -1.65 -9.15 -1.55 -8.95 -1.45 -8.8 -1.1 -7.95 -1.0 -7.15 -0.3 -6.9 -0.2 -7.05 0.15 -6.7 0.45 -6.5 0.8 -6.1 1.35 -5.65 Q2.2 -5.05 3.25 -5.0 L3.85 -4.95 Q4.6 -6.0 6.0 -6.5 L8.7 -7.5 8.95 -7.6 Q8.55 -7.65 8.2 -8.05 L8.05 -8.3 7.95 -7.9 7.85 -7.35 7.8 -7.25 7.7 -7.9 7.8 -8.45 7.85 -8.55 7.25 -9.05 7.35 -9.8 7.55 -10.55 7.9 -11.15 8.0 -11.2 M2.2 -3.0 L2.25 -3.25 1.35 -4.15 1.55 -3.3 1.85 -1.95 Q2.0 -1.25 1.8 -0.75 L2.0 -0.85 2.1 -1.85 2.2 -3.0 M7.25 -4.5 L5.95 -3.4 5.95 -3.35 6.15 -2.75 6.25 -2.2 6.35 -2.1 6.45 -2.35 6.8 -3.5 Q6.85 -4.15 7.25 -4.5 M6.05 -4.25 Q5.75 -4.4 5.8 -4.6 L6.2 -4.25 Q6.4 -4.05 6.05 -4.25 M-7.15 -7.65 L-6.95 -7.25 -6.65 -6.95 -6.6 -6.9 -6.45 -6.15 -6.35 -5.4 -6.35 -4.75 Q-6.5 -5.8 -7.05 -6.6 -7.6 -7.4 -7.25 -8.0 L-7.15 -7.65" fill="#ffffff" fill-rule="evenodd" stroke="none"/>
  </g>
</svg>
