<?xml version="1.0" encoding="UTF-8" standalone="no"?>
<svg xmlns:xlink="http://www.w3.org/1999/xlink" height="95.95px" width="53.6px" xmlns="http://www.w3.org/2000/svg">
  <g transform="matrix(1.0, 0.0, 0.0, 1.0, 22.45, 47.15)">
    <path d="M-2.65 -39.2 L-3.65 -37.3 -3.7 -37.25 -4.7 -37.7 -4.85 -37.8 -4.9 -37.8 -5.55 -38.15 -5.8 -38.8 -6.0 -39.45 -3.95 -39.25 -4.15 -40.4 -2.9 -40.4 -2.7 -39.25 -2.65 -39.2" fill="url(#gradient0)" fill-rule="evenodd" stroke="none"/>
    <path d="M-4.9 -37.8 L-4.9 -37.75 -7.15 -21.65 Q-8.3 -23.3 -10.45 -23.65 -6.9 -29.95 -5.85 -38.2 L-5.55 -38.15 -4.9 -37.8" fill="url(#gradient1)" fill-rule="evenodd" stroke="none"/>
    <path d="M-4.55 -42.75 L-3.3 -42.85 -2.9 -40.4 -4.15 -40.4 -4.55 -42.75" fill="url(#gradient2)" fill-rule="evenodd" stroke="none"/>
    <path d="M-3.65 -37.25 Q-4.2 -31.5 -2.3 -25.75 L-4.2 -25.4 Q-5.3 -31.7 -4.7 -37.7 L-3.7 -37.25 -3.65 -37.25" fill="url(#gradient3)" fill-rule="evenodd" stroke="none"/>
    <path d="M1.25 -4.9 L1.1 48.8 -1.25 48.8 -1.35 -5.1 1.25 -4.9" fill="url(#gradient4)" fill-rule="evenodd" stroke="none"/>
    <path d="M-1.35 -10.45 L-1.4 -38.9 1.35 -38.3 1.25 -10.6 -1.35 -10.45" fill="url(#gradient5)" fill-rule="evenodd" stroke="none"/>
    <path d="M-1.4 -44.25 L-1.4 -46.7 1.35 -46.7 1.35 -44.15 -1.4 -44.25" fill="url(#gradient6)" fill-rule="evenodd" stroke="none"/>
    <path d="M1.35 -44.15 Q7.15 -44.05 12.85 -44.45 L10.8 -41.15 14.45 -44.55 22.05 -45.45 23.8 -43.4 22.9 -45.55 31.15 -47.15 Q29.6 -40.15 27.6 -33.5 L24.55 -31.4 26.65 -30.4 Q24.9 -25.0 22.8 -19.75 L20.8 -18.65 22.35 -18.65 19.0 -11.15 16.2 -10.75 18.45 -10.0 15.55 -4.3 14.8 -4.9 15.3 -3.9 13.8 -1.25 Q11.2 -2.7 8.1 -3.6 L5.95 -7.15 6.3 -4.1 1.25 -4.9 -1.35 -5.1 -2.55 -5.15 -2.9 -10.35 -1.35 -10.45 1.25 -10.6 Q8.3 -10.95 11.2 -9.8 18.3 -23.1 20.15 -37.0 11.6 -36.2 1.35 -38.3 L-1.4 -38.9 -2.65 -39.2 -2.7 -39.25 -2.9 -40.4 -3.3 -42.85 -3.6 -44.4 -1.4 -44.25 1.35 -44.15 M-6.0 -39.45 Q-14.25 -40.0 -22.45 -37.0 -14.3 -43.7 -4.75 -44.05 L-4.55 -42.75 -4.15 -40.4 -3.95 -39.25 -6.0 -39.45" fill="url(#gradient7)" fill-rule="evenodd" stroke="none"/>
    <path d="M1.35 -44.15 Q7.15 -44.05 12.85 -44.45 L10.8 -41.15 14.45 -44.55 22.05 -45.45 23.8 -43.4 22.9 -45.55 31.15 -47.15 Q29.6 -40.15 27.6 -33.5 L24.55 -31.4 26.65 -30.4 Q24.9 -25.0 22.8 -19.75 L20.8 -18.65 22.35 -18.65 19.0 -11.15 16.2 -10.75 18.45 -10.0 15.55 -4.3 14.8 -4.9 15.3 -3.9 13.8 -1.25 Q11.2 -2.7 8.1 -3.6 L5.95 -7.15 6.3 -4.1 1.25 -4.9 1.1 48.8 -1.25 48.8 -1.35 -5.1 -2.55 -5.15 -2.9 -10.35 -1.35 -10.45 -1.4 -38.9 -2.65 -39.2 -3.65 -37.3 -3.65 -37.25 Q-4.2 -31.5 -2.3 -25.75 L-4.2 -25.4 Q-5.3 -31.7 -4.7 -37.7 L-4.85 -37.8 -4.9 -37.8 -4.9 -37.75 -7.15 -21.65 Q-8.3 -23.3 -10.45 -23.65 -6.9 -29.95 -5.85 -38.2 L-5.8 -38.8 -6.0 -39.45 Q-14.25 -40.0 -22.45 -37.0 -14.3 -43.7 -4.75 -44.05 L-4.55 -42.75 -3.3 -42.85 -3.6 -44.4 -1.4 -44.25 -1.4 -46.7 1.35 -46.7 1.35 -44.15 -1.4 -44.25 M1.35 -38.3 Q11.6 -36.2 20.15 -37.0 18.3 -23.1 11.2 -9.8 8.3 -10.95 1.25 -10.6 L-1.35 -10.45 M1.25 -10.6 L1.35 -38.3 -1.4 -38.9 M-5.55 -38.15 L-5.8 -38.8 M-4.15 -40.4 L-2.9 -40.4 -3.3 -42.85 M-4.55 -42.75 L-4.15 -40.4 -3.95 -39.25 -6.0 -39.45 M-2.9 -40.4 L-2.7 -39.25 -2.65 -39.2 M-3.65 -37.3 L-3.7 -37.25 -4.7 -37.7 M-4.9 -37.8 L-5.55 -38.15 M1.25 -4.9 L-1.35 -5.1" fill="none" stroke="#000000" stroke-linecap="round" stroke-linejoin="round" stroke-width="0.05"/>
  </g>
  <defs>
    <linearGradient gradientTransform="matrix(-2.0E-4, -0.0019, 0.002, -2.0E-4, -4.25, -38.75)" gradientUnits="userSpaceOnUse" id="gradient0" spreadMethod="pad" x1="-819.2" x2="819.2">
      <stop offset="0.0" stop-color="#5e2222"/>
      <stop offset="1.0" stop-color="#340707"/>
    </linearGradient>
    <linearGradient gradientTransform="matrix(4.0E-4, -0.0101, 0.0031, 1.0E-4, -7.75, -30.0)" gradientUnits="userSpaceOnUse" id="gradient1" spreadMethod="pad" x1="-819.2" x2="819.2">
      <stop offset="0.0" stop-color="#5e2222"/>
      <stop offset="1.0" stop-color="#941616"/>
    </linearGradient>
    <linearGradient gradientTransform="matrix(0.001, 0.0, 0.0, 0.0015, -3.75, -41.65)" gradientUnits="userSpaceOnUse" id="gradient2" spreadMethod="pad" x1="-819.2" x2="819.2">
      <stop offset="0.0" stop-color="#5e2222"/>
      <stop offset="1.0" stop-color="#340707"/>
    </linearGradient>
    <linearGradient gradientTransform="matrix(-9.0E-4, -0.0075, 0.0013, -2.0E-4, -3.95, -31.6)" gradientUnits="userSpaceOnUse" id="gradient3" spreadMethod="pad" x1="-819.2" x2="819.2">
      <stop offset="0.0" stop-color="#5e2222"/>
      <stop offset="1.0" stop-color="#340707"/>
    </linearGradient>
    <radialGradient cx="0" cy="0" gradientTransform="matrix(0.0349, 0.0, 0.0, 0.0349, 0.1, 20.25)" gradientUnits="userSpaceOnUse" id="gradient4" r="819.2" spreadMethod="pad">
      <stop offset="0.0" stop-color="#473327"/>
      <stop offset="0.6823529411764706" stop-color="#2f221e"/>
      <stop offset="0.9725490196078431" stop-color="#171513"/>
    </radialGradient>
    <radialGradient cx="0" cy="0" gradientTransform="matrix(0.0175, 0.0, 0.0, 0.0175, -0.05, -24.7)" gradientUnits="userSpaceOnUse" id="gradient5" r="819.2" spreadMethod="pad">
      <stop offset="0.0" stop-color="#473327"/>
      <stop offset="0.6823529411764706" stop-color="#2f221e"/>
      <stop offset="0.9725490196078431" stop-color="#171513"/>
    </radialGradient>
    <radialGradient cx="0" cy="0" gradientTransform="matrix(0.0035, 0.0, 0.0, 0.0035, 0.25, -47.15)" gradientUnits="userSpaceOnUse" id="gradient6" r="819.2" spreadMethod="pad">
      <stop offset="0.0" stop-color="#473327"/>
      <stop offset="0.6823529411764706" stop-color="#2f221e"/>
      <stop offset="0.9725490196078431" stop-color="#171513"/>
    </radialGradient>
    <radialGradient cx="0" cy="0" gradientTransform="matrix(0.0628, 0.0, 0.0, 0.0628, 25.0, -41.5)" gradientUnits="userSpaceOnUse" id="gradient7" r="819.2" spreadMethod="pad">
      <stop offset="0.0" stop-color="#256574"/>
      <stop offset="0.6745098039215687" stop-color="#444444"/>
      <stop offset="1.0" stop-color="#242120"/>
    </radialGradient>
  </defs>
</svg>
