<?xml version="1.0" encoding="UTF-8" standalone="no"?>
<svg xmlns:xlink="http://www.w3.org/1999/xlink" height="24.9px" width="10.65px" xmlns="http://www.w3.org/2000/svg">
  <g transform="matrix(1.0, 0.0, 0.0, 1.0, 5.35, 28.8)">
    <path d="M4.85 -28.4 Q5.3 -28.0 5.3 -27.35 5.3 -26.75 4.85 -26.35 4.45 -25.9 3.8 -25.9 3.2 -25.9 2.8 -26.35 2.35 -26.75 2.35 -27.35 2.35 -28.0 2.8 -28.4 3.2 -28.8 3.8 -28.8 4.45 -28.8 4.85 -28.4 M1.6 -25.35 Q1.6 -24.75 1.15 -24.35 0.75 -23.9 0.15 -23.9 -0.5 -23.9 -0.9 -24.35 -1.35 -24.75 -1.35 -25.35 -1.35 -26.0 -0.9 -26.4 -0.5 -26.8 0.15 -26.8 0.75 -26.8 1.15 -26.4 L1.6 -25.35 M4.3 -22.3 Q4.7 -21.85 4.7 -21.25 4.7 -20.65 4.3 -20.2 3.85 -19.8 3.25 -19.8 2.65 -19.8 2.2 -20.2 1.8 -20.65 1.8 -21.25 1.8 -21.85 2.2 -22.3 2.65 -22.7 3.25 -22.7 L4.3 -22.3 M1.15 -19.4 L1.6 -18.35 Q1.6 -17.75 1.15 -17.35 0.75 -16.9 0.15 -16.9 -0.5 -16.9 -0.9 -17.35 -1.35 -17.75 -1.35 -18.35 -1.35 -19.0 -0.9 -19.4 -0.5 -19.8 0.15 -19.8 0.75 -19.8 1.15 -19.4 M4.0 -15.9 L4.45 -14.85 4.0 -13.85 Q3.6 -13.4 3.0 -13.4 2.35 -13.4 1.95 -13.85 1.55 -14.25 1.55 -14.85 1.55 -15.5 1.95 -15.9 2.35 -16.3 3.0 -16.3 3.6 -16.3 4.0 -15.9 M1.15 -12.4 L1.6 -11.35 Q1.6 -10.75 1.15 -10.35 0.75 -9.9 0.15 -9.9 -0.5 -9.9 -0.9 -10.35 -1.35 -10.75 -1.35 -11.35 -1.35 -12.0 -0.9 -12.4 -0.5 -12.8 0.15 -12.8 0.75 -12.8 1.15 -12.4 M4.0 -9.65 L4.45 -8.65 Q4.45 -8.0 4.0 -7.6 3.6 -7.15 3.0 -7.15 2.35 -7.15 1.95 -7.6 1.55 -8.0 1.55 -8.65 1.55 -9.25 1.95 -9.65 2.35 -10.1 3.0 -10.1 3.6 -10.1 4.0 -9.65 M1.15 -6.4 L1.6 -5.35 Q1.6 -4.75 1.15 -4.35 0.75 -3.9 0.15 -3.9 -0.5 -3.9 -0.9 -4.35 -1.35 -4.75 -1.35 -5.35 -1.35 -6.0 -0.9 -6.4 -0.5 -6.8 0.15 -6.8 0.75 -6.8 1.15 -6.4 M-3.85 -28.8 Q-3.25 -28.8 -2.85 -28.4 -2.4 -28.0 -2.4 -27.35 -2.4 -26.75 -2.85 -26.35 -3.25 -25.9 -3.85 -25.9 -4.5 -25.9 -4.9 -26.35 L-5.35 -27.35 -4.9 -28.4 Q-4.5 -28.8 -3.85 -28.8 M-3.55 -22.7 Q-2.95 -22.7 -2.55 -22.3 -2.1 -21.85 -2.1 -21.25 -2.1 -20.65 -2.55 -20.2 -2.95 -19.8 -3.55 -19.8 -4.2 -19.8 -4.6 -20.2 -5.0 -20.65 -5.0 -21.25 -5.0 -21.85 -4.6 -22.3 -4.2 -22.7 -3.55 -22.7 M-2.8 -16.3 Q-2.2 -16.3 -1.75 -15.9 -1.35 -15.5 -1.35 -14.85 -1.35 -14.25 -1.75 -13.85 -2.2 -13.4 -2.8 -13.4 -3.4 -13.4 -3.85 -13.85 -4.25 -14.25 -4.25 -14.85 -4.25 -15.5 -3.85 -15.9 -3.4 -16.3 -2.8 -16.3 M-1.45 -9.65 Q-1.0 -9.25 -1.0 -8.65 -1.0 -8.0 -1.45 -7.6 -1.85 -7.15 -2.45 -7.15 -3.05 -7.15 -3.5 -7.6 -3.9 -8.0 -3.9 -8.65 -3.9 -9.25 -3.5 -9.65 -3.05 -10.1 -2.45 -10.1 -1.85 -10.1 -1.45 -9.65" fill="url(#gradient0)" fill-rule="evenodd" stroke="none"/>
    <path d="M4.85 -28.4 Q5.3 -28.0 5.3 -27.35 5.3 -26.75 4.85 -26.35 4.45 -25.9 3.8 -25.9 3.2 -25.9 2.8 -26.35 2.35 -26.75 2.35 -27.35 2.35 -28.0 2.8 -28.4 3.2 -28.8 3.8 -28.8 4.45 -28.8 4.85 -28.4 M1.6 -25.35 Q1.6 -24.75 1.15 -24.35 0.75 -23.9 0.15 -23.9 -0.5 -23.9 -0.9 -24.35 -1.35 -24.75 -1.35 -25.35 -1.35 -26.0 -0.9 -26.4 -0.5 -26.8 0.15 -26.8 0.75 -26.8 1.15 -26.4 L1.6 -25.35 M4.3 -22.3 Q4.7 -21.85 4.7 -21.25 4.7 -20.65 4.3 -20.2 3.85 -19.8 3.25 -19.8 2.65 -19.8 2.2 -20.2 1.8 -20.65 1.8 -21.25 1.8 -21.85 2.2 -22.3 2.65 -22.7 3.25 -22.7 L4.3 -22.3 M1.15 -19.4 L1.6 -18.35 Q1.6 -17.75 1.15 -17.35 0.75 -16.9 0.15 -16.9 -0.5 -16.9 -0.9 -17.35 -1.35 -17.75 -1.35 -18.35 -1.35 -19.0 -0.9 -19.4 -0.5 -19.8 0.15 -19.8 0.75 -19.8 1.15 -19.4 M4.0 -15.9 L4.45 -14.85 4.0 -13.85 Q3.6 -13.4 3.0 -13.4 2.35 -13.4 1.95 -13.85 1.55 -14.25 1.55 -14.85 1.55 -15.5 1.95 -15.9 2.35 -16.3 3.0 -16.3 3.6 -16.3 4.0 -15.9 M1.15 -12.4 L1.6 -11.35 Q1.6 -10.75 1.15 -10.35 0.75 -9.9 0.15 -9.9 -0.5 -9.9 -0.9 -10.35 -1.35 -10.75 -1.35 -11.35 -1.35 -12.0 -0.9 -12.4 -0.5 -12.8 0.15 -12.8 0.75 -12.8 1.15 -12.4 M4.0 -9.65 L4.45 -8.65 Q4.45 -8.0 4.0 -7.6 3.6 -7.15 3.0 -7.15 2.35 -7.15 1.95 -7.6 1.55 -8.0 1.55 -8.65 1.55 -9.25 1.95 -9.65 2.35 -10.1 3.0 -10.1 3.6 -10.1 4.0 -9.65 M1.15 -6.4 L1.6 -5.35 Q1.6 -4.75 1.15 -4.35 0.75 -3.9 0.15 -3.9 -0.5 -3.9 -0.9 -4.35 -1.35 -4.75 -1.35 -5.35 -1.35 -6.0 -0.9 -6.4 -0.5 -6.8 0.15 -6.8 0.75 -6.8 1.15 -6.4 M-3.85 -28.8 Q-3.25 -28.8 -2.85 -28.4 -2.4 -28.0 -2.4 -27.35 -2.4 -26.75 -2.85 -26.35 -3.25 -25.9 -3.85 -25.9 -4.5 -25.9 -4.9 -26.35 L-5.35 -27.35 -4.9 -28.4 Q-4.5 -28.8 -3.85 -28.8 M-3.55 -22.7 Q-2.95 -22.7 -2.55 -22.3 -2.1 -21.85 -2.1 -21.25 -2.1 -20.65 -2.55 -20.2 -2.95 -19.8 -3.55 -19.8 -4.2 -19.8 -4.6 -20.2 -5.0 -20.65 -5.0 -21.25 -5.0 -21.85 -4.6 -22.3 -4.2 -22.7 -3.55 -22.7 M-2.8 -16.3 Q-2.2 -16.3 -1.75 -15.9 -1.35 -15.5 -1.35 -14.85 -1.35 -14.25 -1.75 -13.85 -2.2 -13.4 -2.8 -13.4 -3.4 -13.4 -3.85 -13.85 -4.25 -14.25 -4.25 -14.85 -4.25 -15.5 -3.85 -15.9 -3.4 -16.3 -2.8 -16.3 M-1.45 -9.65 Q-1.0 -9.25 -1.0 -8.65 -1.0 -8.0 -1.45 -7.6 -1.85 -7.15 -2.45 -7.15 -3.05 -7.15 -3.5 -7.6 -3.9 -8.0 -3.9 -8.65 -3.9 -9.25 -3.5 -9.65 -3.05 -10.1 -2.45 -10.1 -1.85 -10.1 -1.45 -9.65 Z" fill="none" stroke="#000000" stroke-linecap="round" stroke-linejoin="round" stroke-width="0.05"/>
  </g>
  <defs>
    <linearGradient gradientTransform="matrix(0.0, -0.0152, 0.0065, 0.0, -0.05, -16.35)" gradientUnits="userSpaceOnUse" id="gradient0" spreadMethod="pad" x1="-819.2" x2="819.2">
      <stop offset="0.0" stop-color="#c4c4c4"/>
      <stop offset="0.9058823529411765" stop-color="#e78421"/>
    </linearGradient>
  </defs>
</svg>
