<?xml version="1.0" encoding="UTF-8" standalone="no"?>
<svg xmlns:xlink="http://www.w3.org/1999/xlink" height="11.35px" width="7.9px" xmlns="http://www.w3.org/2000/svg">
  <g transform="matrix(1.0, 0.0, 0.0, 1.0, 2.55, 6.7)">
    <path d="M5.0 -1.3 L5.35 1.4 4.5 1.5 4.5 1.6 3.7 4.65 -0.6 3.7 -1.05 0.7 -1.3 0.5 -1.45 0.35 Q-2.55 -0.85 -2.55 -2.55 -2.55 -4.25 -1.45 -5.5 -0.3 -6.7 1.3 -6.7 2.9 -6.7 4.0 -5.5 5.15 -4.25 5.15 -2.55 L5.1 -1.85 5.0 -1.3" fill="url(#gradient0)" fill-rule="evenodd" stroke="none"/>
    <path d="M5.1 -1.85 L5.05 -1.6 5.0 -1.3 5.35 1.4 4.5 1.5 4.5 1.6 3.7 4.65 -0.6 3.7 -1.05 0.7 -1.3 0.5 -1.45 0.35 Q-2.55 -0.85 -2.55 -2.55 -2.55 -4.25 -1.45 -5.5 -0.3 -6.7 1.3 -6.7 2.9 -6.7 4.0 -5.5 5.15 -4.25 5.15 -2.55 L5.1 -1.85 5.0 -1.3" fill="none" stroke="#000000" stroke-linecap="round" stroke-linejoin="round" stroke-width="0.05"/>
  </g>
  <defs>
    <radialGradient cx="0" cy="0" gradientTransform="matrix(0.0101, 0.0, 0.0, 0.0101, 4.7, -2.65)" gradientUnits="userSpaceOnUse" id="gradient0" r="819.2" spreadMethod="pad">
      <stop offset="0.0" stop-color="#303950"/>
      <stop offset="0.4980392156862745" stop-color="#0f1424"/>
      <stop offset="1.0" stop-color="#2c3a5c"/>
    </radialGradient>
  </defs>
</svg>
