<?xml version="1.0" encoding="UTF-8" standalone="no"?>
<svg xmlns:xlink="http://www.w3.org/1999/xlink" height="34.2px" width="19.85px" xmlns="http://www.w3.org/2000/svg">
  <g transform="matrix(1.0, 0.0, 0.0, 1.0, 9.9, 17.75)">
    <path d="M7.85 -7.65 L7.5 -6.95 7.4 -7.8 7.85 -7.65 M-5.85 -4.35 L-6.4 -5.55 -6.15 -5.6 -5.85 -4.35" fill="url(#gradient0)" fill-rule="evenodd" stroke="none"/>
    <path d="M5.7 10.05 L5.8 10.05 5.95 13.05 2.15 16.45 -5.0 12.6 -4.7 8.75 -2.3 9.05 5.7 10.05" fill="url(#gradient1)" fill-rule="evenodd" stroke="none"/>
    <path d="M-6.15 -5.6 L-6.2 -5.7 -6.25 -5.7 -9.9 -7.8 Q-9.9 -11.6 -5.2 -13.65 L-2.3 -14.05 Q-1.9 -13.3 -2.75 -13.4 L-4.4 -13.05 Q-5.25 -12.65 -4.3 -9.65 -3.4 -6.7 -6.15 -5.6" fill="url(#gradient2)" fill-rule="evenodd" stroke="none"/>
    <path d="M4.4 -13.1 L4.65 -13.1 Q9.15 -11.95 9.95 -9.1 L7.85 -7.65 7.4 -7.8 5.4 -11.5 3.35 -12.35 4.4 -13.1" fill="url(#gradient3)" fill-rule="evenodd" stroke="none"/>
    <path d="M7.5 -6.95 L7.75 -4.2 7.3 -3.3 7.1 -2.95 6.55 -1.7 Q5.65 -2.35 4.65 -2.5 L3.8 -2.6 Q1.2 -2.6 -0.65 0.1 -2.5 2.85 -2.5 6.7 L-2.3 9.05 -4.7 8.75 -5.1 4.45 -4.95 4.45 -4.95 4.4 Q-4.6 -0.75 -5.85 -4.35 L-6.15 -5.6 Q-3.4 -6.7 -4.3 -9.65 -5.25 -12.65 -4.4 -13.05 L-2.75 -13.4 Q-1.9 -13.3 -2.3 -14.05 L-1.75 -14.1 -0.05 -16.4 4.4 -13.1 3.35 -12.35 5.4 -11.5 7.4 -7.8 7.5 -6.95" fill="url(#gradient4)" fill-rule="evenodd" stroke="none"/>
    <path d="M6.55 -1.7 L6.55 -1.65 4.95 5.05 5.0 5.05 Q6.0 7.7 5.7 10.05 L-2.3 9.05 -2.5 6.7 Q-2.5 2.85 -0.65 0.1 1.2 -2.6 3.8 -2.6 L4.65 -2.5 Q5.65 -2.35 6.55 -1.7" fill="url(#gradient5)" fill-rule="evenodd" stroke="none"/>
    <path d="M4.65 -13.1 Q9.15 -11.95 9.95 -9.1 M7.85 -7.65 L7.5 -6.95 7.75 -4.2 7.3 -3.3 7.1 -2.95 6.55 -1.7 6.55 -1.65 4.95 5.05 5.0 5.05 Q6.0 7.7 5.7 10.05 L5.8 10.05 5.95 13.05 M-5.0 12.6 L-4.7 8.75 -5.1 4.45 -5.1 4.4 -4.95 4.45 -4.95 4.4 Q-4.6 -0.75 -5.85 -4.35 L-6.15 -5.6 -6.2 -5.7 -6.25 -5.7 M-9.9 -7.8 Q-9.9 -11.6 -5.2 -13.65 L-2.3 -14.05 -1.75 -14.1 -0.05 -16.4 4.4 -13.1 3.35 -12.35 M7.4 -7.8 L7.5 -6.95 M-2.3 9.05 L5.7 10.05 M-2.3 9.05 L-4.7 8.75" fill="none" stroke="#000000" stroke-linecap="round" stroke-linejoin="round" stroke-width="0.05"/>
    <path d="M0.9 -13.6 Q0.7 -15.15 1.4 -15.15 2.4 -15.15 3.05 -13.75 L3.55 -12.35 4.6 -12.35 Q5.25 -12.35 5.25 -11.75 L4.8 -11.1 4.7 -11.15 4.7 -11.1 4.2 -10.7 4.95 -11.15 5.6 -11.0 5.7 -10.95 Q3.85 -9.9 3.65 -9.9 2.2 -9.9 -2.0 -11.9 L-2.0 -12.0 -3.0 -12.2 -3.8 -11.85 -4.5 -11.85 -4.55 -12.05 Q-4.55 -12.45 -2.1 -12.95 L-1.85 -12.85 -0.65 -12.5 1.2 -12.4 0.9 -13.6 M4.35 -9.35 Q4.95 -7.85 4.95 -4.5 L4.65 -2.8 5.1 -2.5 Q5.65 -2.15 6.5 -2.1 L6.6 -1.8 Q6.6 -1.5 5.9 -1.5 L4.35 -2.2 4.25 -2.0 4.25 -1.95 4.25 -1.3 5.0 -0.75 4.2 -0.65 3.65 4.1 4.6 4.25 4.95 4.55 4.95 4.65 3.6 4.65 3.3 6.65 3.2 6.75 2.7 5.6 2.7 4.7 1.15 5.1 Q0.6 5.4 0.35 5.85 L0.3 5.55 Q0.3 4.2 2.75 4.1 2.8 1.2 3.3 -0.5 0.9 -0.1 0.8 0.75 L0.75 0.8 Q0.3 0.8 0.3 0.45 0.3 -1.25 3.55 -1.35 L4.0 -2.15 3.9 -2.3 Q3.9 -3.0 4.4 -4.65 L4.4 -4.75 3.95 -8.85 Q3.95 -9.3 4.35 -9.35" fill="#000000" fill-opacity="0.3019608" fill-rule="evenodd" stroke="none"/>
    <path d="M-2.4 -11.2 L-1.95 -9.2 -0.1 -7.95 0.45 -3.55 -5.75 -3.8 -6.1 -5.05 Q-8.8 -7.5 -9.4 -11.7 L-7.1 -14.45 -6.4 -15.7 -5.6 -12.2 -2.4 -11.2" fill="url(#gradient6)" fill-rule="evenodd" stroke="none"/>
    <path d="M5.35 -13.6 L8.6 -12.05 Q9.05 -8.3 8.45 -6.05 L7.7 -3.9 3.1 -3.7 3.2 -7.45 4.65 -9.05 4.65 -10.95 5.3 -11.7 5.35 -13.6" fill="url(#gradient7)" fill-rule="evenodd" stroke="none"/>
    <path d="M0.85 4.8 L0.65 10.45 Q-3.1 10.5 -5.2 9.05 -5.65 6.55 -5.4 4.05 -2.55 5.55 0.85 4.8" fill="url(#gradient8)" fill-rule="evenodd" stroke="none"/>
    <path d="M6.7 3.6 L6.65 4.7 Q8.0 6.85 7.65 8.45 5.5 10.55 3.3 9.8 L3.15 4.55 6.7 3.6" fill="url(#gradient9)" fill-rule="evenodd" stroke="none"/>
    <path d="M0.45 -3.55 L0.85 4.8 Q-2.55 5.55 -5.4 4.05 -6.3 0.1 -5.75 -3.8 L0.45 -3.55" fill="url(#gradient10)" fill-rule="evenodd" stroke="none"/>
    <path d="M7.7 -3.9 Q7.6 0.1 6.7 3.6 L3.15 4.55 3.1 -3.7 7.7 -3.9" fill="url(#gradient11)" fill-rule="evenodd" stroke="none"/>
    <path d="M-6.4 -15.7 L-6.2 -16.15 Q-1.9 -18.5 1.3 -17.45 L4.3 -15.45 4.5 -13.85 5.35 -13.6 5.3 -11.7 4.65 -10.95 4.65 -11.3 3.6 -12.05 3.65 -12.55 1.4 -15.55 Q0.8 -15.85 0.15 -16.2 L-1.45 -14.05 -2.95 -13.55 -2.4 -11.2 -5.6 -12.2 -6.4 -15.7" fill="url(#gradient12)" fill-rule="evenodd" stroke="none"/>
    <path d="M-6.4 -15.7 L-6.2 -16.15 Q-1.9 -18.5 1.3 -17.45 L4.3 -15.45 4.5 -13.85 5.35 -13.6 8.6 -12.05 Q9.05 -8.3 8.45 -6.05 L7.7 -3.9 Q7.6 0.1 6.7 3.6 L6.65 4.7 Q8.0 6.85 7.65 8.45 5.5 10.55 3.3 9.8 L3.15 4.55 3.1 -3.7 3.2 -7.45 4.65 -9.05 4.65 -10.95 4.65 -11.3 3.6 -12.05 3.65 -12.55 1.4 -15.55 Q0.8 -15.85 0.15 -16.2 L-1.45 -14.05 -2.95 -13.55 -2.4 -11.2 -1.95 -9.2 -0.1 -7.95 0.45 -3.55 0.85 4.8 0.65 10.45 Q-3.1 10.5 -5.2 9.05 -5.65 6.55 -5.4 4.05 -6.3 0.1 -5.75 -3.8 L-6.1 -5.05 Q-8.8 -7.5 -9.4 -11.7 L-7.1 -14.45 -6.4 -15.7 -5.6 -12.2 -2.4 -11.2 M5.35 -13.6 L5.3 -11.7 4.65 -10.95 M7.7 -3.9 L3.1 -3.7 M3.15 4.55 L6.7 3.6 M-5.75 -3.8 L0.45 -3.55 M-5.4 4.05 Q-2.55 5.55 0.85 4.8" fill="none" stroke="#000000" stroke-linecap="round" stroke-linejoin="round" stroke-width="0.05"/>
  </g>
  <defs>
    <radialGradient cx="0" cy="0" gradientTransform="matrix(0.0222, 0.0, 0.0, 0.0222, 2.85, -1.75)" gradientUnits="userSpaceOnUse" id="gradient0" r="819.2" spreadMethod="pad">
      <stop offset="0.0" stop-color="#6a7249"/>
      <stop offset="1.0" stop-color="#393a2c"/>
    </radialGradient>
    <radialGradient cx="0" cy="0" gradientTransform="matrix(0.0076, 0.0, 0.0, 0.0076, 0.4, 10.45)" gradientUnits="userSpaceOnUse" id="gradient1" r="819.2" spreadMethod="pad">
      <stop offset="0.0" stop-color="#404040"/>
      <stop offset="1.0" stop-color="#000000"/>
    </radialGradient>
    <radialGradient cx="0" cy="0" gradientTransform="matrix(0.0076, 0.0, 0.0, 0.0076, -6.55, -9.95)" gradientUnits="userSpaceOnUse" id="gradient2" r="819.2" spreadMethod="pad">
      <stop offset="0.0" stop-color="#30477a"/>
      <stop offset="0.6196078431372549" stop-color="#1d2038"/>
      <stop offset="1.0" stop-color="#313257"/>
    </radialGradient>
    <radialGradient cx="0" cy="0" gradientTransform="matrix(0.0065, 0.0, 0.0, 0.0065, 7.6, -9.15)" gradientUnits="userSpaceOnUse" id="gradient3" r="819.2" spreadMethod="pad">
      <stop offset="0.0" stop-color="#30477a"/>
      <stop offset="0.6196078431372549" stop-color="#1d2038"/>
      <stop offset="1.0" stop-color="#313257"/>
    </radialGradient>
    <radialGradient cx="0" cy="0" gradientTransform="matrix(0.0098, 0.0011, -0.0018, 0.0157, 0.8, -3.65)" gradientUnits="userSpaceOnUse" id="gradient4" r="819.2" spreadMethod="pad">
      <stop offset="0.0" stop-color="#e0cee3"/>
      <stop offset="0.6196078431372549" stop-color="#877aa7"/>
      <stop offset="1.0" stop-color="#5b63a4"/>
    </radialGradient>
    <radialGradient cx="0" cy="0" gradientTransform="matrix(0.0148, 0.0, 0.0, 0.0148, 3.45, 9.45)" gradientUnits="userSpaceOnUse" id="gradient5" r="819.2" spreadMethod="pad">
      <stop offset="0.0" stop-color="#b794c0"/>
      <stop offset="0.6196078431372549" stop-color="#655885"/>
      <stop offset="1.0" stop-color="#393f68"/>
    </radialGradient>
    <radialGradient cx="0" cy="0" gradientTransform="matrix(0.0098, 0.0, 0.0, 0.0098, -4.5, -9.4)" gradientUnits="userSpaceOnUse" id="gradient6" r="819.2" spreadMethod="pad">
      <stop offset="0.0" stop-color="#d7a228"/>
      <stop offset="1.0" stop-color="#82470f"/>
    </radialGradient>
    <radialGradient cx="0" cy="0" gradientTransform="matrix(0.0076, 0.0, 0.0, 0.0076, 5.75, -7.35)" gradientUnits="userSpaceOnUse" id="gradient7" r="819.2" spreadMethod="pad">
      <stop offset="0.0" stop-color="#d7a228"/>
      <stop offset="1.0" stop-color="#82470f"/>
    </radialGradient>
    <radialGradient cx="0" cy="0" gradientTransform="matrix(0.0084, 0.0, 0.0, 0.0084, -4.75, 8.75)" gradientUnits="userSpaceOnUse" id="gradient8" r="819.2" spreadMethod="pad">
      <stop offset="0.0" stop-color="#d7a228"/>
      <stop offset="1.0" stop-color="#82470f"/>
    </radialGradient>
    <radialGradient cx="0" cy="0" gradientTransform="matrix(0.0049, 0.0, 0.0, 0.0049, 5.1, 6.25)" gradientUnits="userSpaceOnUse" id="gradient9" r="819.2" spreadMethod="pad">
      <stop offset="0.0" stop-color="#d7a228"/>
      <stop offset="1.0" stop-color="#82470f"/>
    </radialGradient>
    <radialGradient cx="0" cy="0" gradientTransform="matrix(0.0087, 0.0, 0.0, 0.0087, -2.4, -1.1)" gradientUnits="userSpaceOnUse" id="gradient10" r="819.2" spreadMethod="pad">
      <stop offset="0.0" stop-color="#f4680b"/>
      <stop offset="1.0" stop-color="#803211"/>
    </radialGradient>
    <radialGradient cx="0" cy="0" gradientTransform="matrix(0.0083, 0.0, 0.0, 0.0083, 4.25, -1.85)" gradientUnits="userSpaceOnUse" id="gradient11" r="819.2" spreadMethod="pad">
      <stop offset="0.0" stop-color="#f4680b"/>
      <stop offset="1.0" stop-color="#803211"/>
    </radialGradient>
    <radialGradient cx="0" cy="0" gradientTransform="matrix(0.0093, 0.0, 0.0, 0.0093, -0.5, -16.6)" gradientUnits="userSpaceOnUse" id="gradient12" r="819.2" spreadMethod="pad">
      <stop offset="0.0" stop-color="#8b718e"/>
      <stop offset="1.0" stop-color="#803211"/>
    </radialGradient>
  </defs>
</svg>
