<?xml version="1.0" encoding="UTF-8" standalone="no"?>
<svg xmlns:xlink="http://www.w3.org/1999/xlink" height="30.5px" width="19.85px" xmlns="http://www.w3.org/2000/svg">
  <g transform="matrix(1.0, 0.0, 0.0, 1.0, 9.9, 14.05)">
    <path d="M7.85 -7.65 L7.5 -6.95 7.4 -7.8 7.85 -7.65 M-5.85 -4.35 L-6.4 -5.55 -6.15 -5.6 -5.85 -4.35" fill="url(#gradient0)" fill-rule="evenodd" stroke="none"/>
    <path d="M5.7 10.05 L5.8 10.05 5.95 13.05 2.15 16.45 -5.0 12.6 -4.7 8.75 -2.3 9.05 5.7 10.05" fill="url(#gradient1)" fill-rule="evenodd" stroke="none"/>
    <path d="M-6.15 -5.6 L-6.2 -5.7 -6.25 -5.7 -9.9 -7.8 Q-9.9 -8.85 -9.55 -9.75 -8.6 -12.15 -5.2 -13.65 L-1.95 -14.05 -1.9 -12.65 -1.9 -12.15 Q-1.95 -10.55 -2.4 -9.3 -3.4 -6.7 -6.15 -5.6" fill="url(#gradient2)" fill-rule="evenodd" stroke="none"/>
    <path d="M4.4 -13.1 L4.65 -13.1 Q9.15 -11.95 9.95 -9.1 L7.85 -7.65 7.4 -7.8 5.4 -11.5 3.35 -12.35 4.4 -13.1" fill="url(#gradient3)" fill-rule="evenodd" stroke="none"/>
    <path d="M6.55 -1.7 L6.55 -1.65 4.95 5.05 5.0 5.05 Q6.0 7.7 5.7 10.05 L-2.3 9.05 -2.5 6.7 Q-2.5 2.85 -0.65 0.1 1.2 -2.6 3.8 -2.6 L4.65 -2.5 Q5.65 -2.35 6.55 -1.7" fill="#ffffff" fill-rule="evenodd" stroke="none"/>
    <path d="M4.65 -13.1 Q9.15 -11.95 9.95 -9.1 M7.85 -7.65 L7.5 -6.95 7.75 -4.2 7.3 -3.3 7.1 -2.95 6.55 -1.7 6.55 -1.65 4.95 5.05 5.0 5.05 Q6.0 7.7 5.7 10.05 L5.8 10.05 5.95 13.05 M-5.0 12.6 L-4.7 8.75 -5.1 4.45 -5.1 4.4 -4.95 4.45 -4.95 4.4 Q-4.6 -0.75 -5.85 -4.35 L-6.15 -5.6 -6.2 -5.7 -6.25 -5.7 M-9.9 -7.8 Q-9.9 -8.85 -9.55 -9.75 -8.6 -12.15 -5.2 -13.65 L-1.95 -14.05 M7.4 -7.8 L7.5 -6.95 M3.35 -12.35 L4.4 -13.1 M-2.3 9.05 L5.7 10.05 M-2.3 9.05 L-4.7 8.75" fill="none" stroke="#000000" stroke-linecap="round" stroke-linejoin="round" stroke-width="0.05"/>
    <path d="M4.35 -9.35 Q4.95 -7.85 4.95 -4.5 L4.65 -2.8 5.1 -2.5 Q5.65 -2.15 6.5 -2.1 L6.6 -1.8 Q6.6 -1.5 5.9 -1.5 L4.35 -2.2 4.25 -2.0 4.25 -1.95 4.25 -1.3 5.0 -0.75 4.2 -0.65 3.65 4.1 4.6 4.25 4.95 4.55 4.95 4.65 3.6 4.65 3.3 6.65 3.2 6.75 2.7 5.6 2.7 4.7 1.15 5.1 Q0.6 5.4 0.35 5.85 L0.3 5.55 Q0.3 4.2 2.75 4.1 2.8 1.2 3.3 -0.5 0.9 -0.1 0.8 0.75 L0.75 0.8 Q0.3 0.8 0.3 0.45 0.3 -1.25 3.55 -1.35 L4.0 -2.15 3.9 -2.3 Q3.9 -3.0 4.4 -4.65 L4.4 -4.75 3.95 -8.85 Q3.95 -9.3 4.35 -9.35" fill="#000000" fill-opacity="0.3019608" fill-rule="evenodd" stroke="none"/>
    <path d="M5.25 -11.55 L5.4 -11.5 5.5 -11.3 5.25 -11.55 M3.6 -5.7 L3.65 -5.65 3.7 -5.6 3.55 -5.65 3.6 -5.7" fill="url(#gradient4)" fill-rule="evenodd" stroke="none"/>
    <path d="M-5.85 -4.35 L-6.4 -5.55 -6.15 -5.6 -5.85 -4.35" fill="url(#gradient5)" fill-rule="evenodd" stroke="none"/>
    <path d="M2.55 9.1 L2.5 9.05 2.55 9.05 2.55 9.1" fill="url(#gradient6)" fill-rule="evenodd" stroke="none"/>
    <path d="M4.85 -12.05 L4.65 -11.85 4.7 -12.2 4.85 -12.05" fill="#993333" fill-rule="evenodd" stroke="none"/>
    <path d="M2.5 9.05 L-0.3 9.3 -1.6 9.65 -4.0 10.25 -4.75 10.4 -6.15 10.1 -4.85 6.9 -5.1 4.45 -4.95 4.45 -4.95 4.4 Q-4.6 -0.75 -5.85 -4.35 L-6.15 -5.6 -6.2 -5.7 -6.25 -5.7 -9.9 -7.8 Q-9.9 -10.7 -7.1 -12.6 L-5.3 -13.6 -5.2 -13.65 -1.95 -14.05 -1.9 -12.65 -1.9 -12.15 -1.9 -12.05 -3.25 -13.6 -4.7 -11.7 -2.0 -10.8 -0.8 -10.45 -1.35 -9.1 -1.8 -8.1 -0.45 -7.5 3.55 -5.65 3.8 -1.85 2.8 2.65 2.55 9.05 2.5 9.05 M0.6 8.95 L0.5 0.95 0.95 -3.3 -0.45 -7.5 0.95 -3.3 0.5 0.95 0.6 8.95 M-1.35 -9.1 L-2.0 -10.8 -1.35 -9.1 M-3.05 -7.4 L-1.15 -2.45 -1.6 9.65 -1.15 -2.45 -3.05 -7.4 M-4.3 -5.55 L-3.15 3.6 -4.0 10.25 -3.15 3.6 -4.3 -5.55" fill="url(#gradient7)" fill-rule="evenodd" stroke="none"/>
    <path d="M4.4 -13.1 L4.65 -13.1 Q9.15 -11.95 9.95 -9.1 L7.85 -7.65 7.5 -6.95 7.75 -4.2 7.3 -3.3 7.1 -2.95 6.55 -1.7 6.55 -1.65 4.95 5.05 5.0 5.05 Q5.7 6.9 5.75 8.55 L6.2 10.4 5.8 10.25 5.8 10.05 5.7 10.05 4.95 9.95 3.85 9.55 2.55 9.1 2.55 9.05 2.8 2.65 3.8 -1.85 3.55 -5.65 3.7 -5.6 3.65 -5.65 5.1 -7.2 6.5 -8.75 4.95 -9.6 6.55 -10.1 5.5 -11.3 5.4 -11.5 5.25 -11.55 4.85 -12.05 4.7 -12.2 4.65 -11.85 3.35 -12.35 4.4 -13.1 M3.85 9.55 L3.9 2.75 5.2 -3.2 5.1 -7.2 5.2 -3.2 3.9 2.75 3.85 9.55" fill="url(#gradient8)" fill-rule="evenodd" stroke="none"/>
    <path d="M-1.9 -12.05 L-0.95 -11.0 3.35 -6.0 4.4 -10.85 4.65 -11.85 4.85 -12.05 5.25 -11.55 5.5 -11.3 6.55 -10.1 4.95 -9.6 6.5 -8.75 5.1 -7.2 3.65 -5.65 3.6 -5.7 3.55 -5.65 -0.45 -7.5 -1.8 -8.1 -1.35 -9.1 -0.8 -10.45 -2.0 -10.8 -4.7 -11.7 -3.25 -13.6 -1.9 -12.05 M3.35 -6.0 L3.6 -5.7 3.35 -6.0" fill="#e4a3de" fill-rule="evenodd" stroke="none"/>
    <path d="M-0.95 -11.0 L4.4 -10.85 3.35 -6.0 -0.95 -11.0" fill="#ffffff" fill-rule="evenodd" stroke="none"/>
    <path d="M4.65 -13.1 Q9.15 -11.95 9.95 -9.1 M7.85 -7.65 L7.5 -6.95 7.75 -4.2 7.3 -3.3 7.1 -2.95 6.55 -1.7 6.55 -1.65 4.95 5.05 5.0 5.05 Q5.7 6.9 5.75 8.55 L6.2 10.4 5.8 10.25 4.95 9.95 3.85 9.55 2.55 9.1 2.5 9.05 -0.3 9.3 -1.6 9.65 -4.0 10.25 -4.75 10.4 -6.15 10.1 -4.85 6.9 -5.1 4.45 -5.1 4.4 -4.95 4.45 -4.95 4.4 Q-4.6 -0.75 -5.85 -4.35 L-6.15 -5.6 -6.2 -5.7 -6.25 -5.7 M-9.9 -7.8 Q-9.9 -10.7 -7.1 -12.6 L-5.3 -13.6 -5.2 -13.65 -1.95 -14.05 M-1.9 -12.05 L-0.95 -11.0 4.4 -10.85 4.65 -11.85 4.7 -12.2 4.85 -12.05 5.25 -11.55 5.5 -11.3 6.55 -10.1 4.95 -9.6 6.5 -8.75 5.1 -7.2 3.65 -5.65 3.6 -5.7 3.35 -6.0 -0.95 -11.0 M3.35 -12.35 L4.4 -13.1 M3.55 -5.65 L3.7 -5.6 3.65 -5.65 M3.55 -5.65 L3.8 -1.85 2.8 2.65 2.55 9.05 2.5 9.05 M3.35 -6.0 L4.4 -10.85 M-1.9 -12.05 L-3.25 -13.6 -4.7 -11.7 -2.0 -10.8 -0.8 -10.45 -1.35 -9.1 -1.8 -8.1 -0.45 -7.5 3.55 -5.65" fill="none" stroke="#000000" stroke-linecap="round" stroke-linejoin="round" stroke-width="0.05"/>
    <path d="M5.1 -7.2 L5.2 -3.2 3.9 2.75 3.85 9.55 M-0.45 -7.5 L0.95 -3.3 0.5 0.95 0.6 8.95 M-2.0 -10.8 L-1.35 -9.1 M-1.6 9.65 L-1.15 -2.45 -3.05 -7.4 M-4.0 10.25 L-3.15 3.6 -4.3 -5.55" fill="none" stroke="#ffffff" stroke-linecap="round" stroke-linejoin="round" stroke-width="0.05"/>
  </g>
  <defs>
    <radialGradient cx="0" cy="0" gradientTransform="matrix(0.0222, 0.0, 0.0, 0.0222, 2.85, -1.75)" gradientUnits="userSpaceOnUse" id="gradient0" r="819.2" spreadMethod="pad">
      <stop offset="0.0" stop-color="#6a7249"/>
      <stop offset="1.0" stop-color="#393a2c"/>
    </radialGradient>
    <radialGradient cx="0" cy="0" gradientTransform="matrix(0.0076, 0.0, 0.0, 0.0076, 0.4, 10.45)" gradientUnits="userSpaceOnUse" id="gradient1" r="819.2" spreadMethod="pad">
      <stop offset="0.0" stop-color="#404040"/>
      <stop offset="1.0" stop-color="#000000"/>
    </radialGradient>
    <radialGradient cx="0" cy="0" gradientTransform="matrix(0.0076, 0.0, 0.0, 0.0076, -6.55, -9.95)" gradientUnits="userSpaceOnUse" id="gradient2" r="819.2" spreadMethod="pad">
      <stop offset="0.0" stop-color="#886b9c"/>
      <stop offset="0.6196078431372549" stop-color="#86348f"/>
      <stop offset="1.0" stop-color="#a563a5"/>
    </radialGradient>
    <radialGradient cx="0" cy="0" gradientTransform="matrix(0.0063, 0.0, 0.0, 0.0063, 5.7, -10.95)" gradientUnits="userSpaceOnUse" id="gradient3" r="819.2" spreadMethod="pad">
      <stop offset="0.0" stop-color="#886b9c"/>
      <stop offset="0.6196078431372549" stop-color="#86348f"/>
      <stop offset="1.0" stop-color="#a563a5"/>
    </radialGradient>
    <radialGradient cx="0" cy="0" gradientTransform="matrix(0.0098, 0.0011, -0.0018, 0.0157, 0.8, -3.65)" gradientUnits="userSpaceOnUse" id="gradient4" r="819.2" spreadMethod="pad">
      <stop offset="0.0" stop-color="#886b9c"/>
      <stop offset="0.6196078431372549" stop-color="#86348f"/>
      <stop offset="1.0" stop-color="#a563a5"/>
    </radialGradient>
    <radialGradient cx="0" cy="0" gradientTransform="matrix(0.0222, 0.0, 0.0, 0.0222, 2.85, -1.75)" gradientUnits="userSpaceOnUse" id="gradient5" r="819.2" spreadMethod="pad">
      <stop offset="0.0" stop-color="#6a7249"/>
      <stop offset="1.0" stop-color="#393a2c"/>
    </radialGradient>
    <radialGradient cx="0" cy="0" gradientTransform="matrix(0.0148, 0.0, 0.0, 0.0148, 3.45, 9.45)" gradientUnits="userSpaceOnUse" id="gradient6" r="819.2" spreadMethod="pad">
      <stop offset="0.0" stop-color="#886b9c"/>
      <stop offset="0.6196078431372549" stop-color="#86348f"/>
      <stop offset="1.0" stop-color="#a563a5"/>
    </radialGradient>
    <radialGradient cx="0" cy="0" gradientTransform="matrix(0.0235, 0.0, 0.0, 0.0235, -2.25, 5.15)" gradientUnits="userSpaceOnUse" id="gradient7" r="819.2" spreadMethod="pad">
      <stop offset="0.0" stop-color="#f578f5"/>
      <stop offset="1.0" stop-color="#e445a6"/>
    </radialGradient>
    <radialGradient cx="0" cy="0" gradientTransform="matrix(0.0178, 0.0, 0.0, 0.0178, 4.35, 1.5)" gradientUnits="userSpaceOnUse" id="gradient8" r="819.2" spreadMethod="pad">
      <stop offset="0.0" stop-color="#f578f5"/>
      <stop offset="1.0" stop-color="#e445a6"/>
    </radialGradient>
  </defs>
</svg>
