<?xml version="1.0" encoding="UTF-8" standalone="no"?>
<svg xmlns:xlink="http://www.w3.org/1999/xlink" height="107.8px" width="107.65px" xmlns="http://www.w3.org/2000/svg">
  <g transform="matrix(1.0, 0.0, 0.0, 1.0, 56.25, 55.1)">
    <path d="M17.85 -3.4 L17.0 -5.9 Q35.1 -5.0 51.4 -22.75 L46.55 7.55 Q32.4 11.55 18.25 3.65 L18.4 1.2 18.35 0.1 Q18.3 -1.7 17.85 -3.4 M0.65 -16.55 L0.15 -16.55 -0.4 -16.5 -1.85 -16.35 Q5.15 -34.2 -7.6 -54.0 L-8.55 -54.95 -8.45 -55.1 21.95 -39.6 Q19.5 -25.05 9.3 -14.4 5.4 -16.55 0.65 -16.55 M41.0 42.3 L7.9 47.5 Q2.2 33.1 3.5 18.75 L4.95 18.45 5.5 18.35 Q8.7 17.45 11.4 15.4 L13.15 13.85 Q12.95 30.6 40.4 41.5 L41.1 41.65 41.0 42.3 M-55.6 -6.2 L-56.25 -7.45 -31.85 -31.75 Q-18.3 -26.95 -11.85 -11.45 L-11.95 -11.4 -13.35 -9.75 Q-16.35 -5.95 -16.9 -1.2 -31.4 -12.2 -55.1 -6.5 L-55.6 -6.2 M-11.1 14.5 Q-9.05 16.35 -6.7 17.45 -24.5 26.0 -24.35 52.5 L-25.65 52.7 -41.0 22.5 Q-32.35 11.8 -15.0 9.75 L-13.55 11.95 -11.95 13.75 -11.1 14.5" fill="url(#gradient0)" fill-rule="evenodd" stroke="none"/>
  </g>
  <defs>
    <radialGradient cx="0" cy="0" gradientTransform="matrix(0.0687, 0.0, 0.0, 0.0687, 0.6, 0.0)" gradientUnits="userSpaceOnUse" id="gradient0" r="819.2" spreadMethod="pad">
      <stop offset="0.3215686274509804" stop-color="#ffffff" stop-opacity="0.0"/>
      <stop offset="1.0" stop-color="#ffffff"/>
    </radialGradient>
  </defs>
</svg>
