<?xml version="1.0" encoding="UTF-8" standalone="no"?>
<svg xmlns:xlink="http://www.w3.org/1999/xlink" height="98.4px" width="32.55px" xmlns="http://www.w3.org/2000/svg">
  <g transform="matrix(1.0, 0.0, 0.0, 1.0, 21.0, 38.65)">
    <path d="M0.15 -34.65 L0.0 -34.4 Q-0.45 -34.75 -0.35 -35.4 -0.25 -36.2 -0.8 -36.85 -1.6 -37.65 -0.5 -38.35 L0.0 -38.65 Q1.3 -38.5 0.95 -37.55 L0.45 -36.05 0.15 -34.65 M5.5 -6.8 L6.0 -7.0 Q7.3 -6.75 7.1 -5.6 6.95 -4.6 6.25 -4.0 5.55 -3.4 4.95 -4.25 L4.6 -4.65 4.65 -5.0 4.85 -5.75 5.15 -6.45 5.5 -6.8 M2.25 11.35 Q3.2 12.15 2.1 12.85 1.1 13.5 1.05 12.5 1.05 11.45 2.0 11.4 L2.25 11.35 M4.2 21.85 Q4.1 21.1 4.25 20.4 4.4 19.6 4.95 18.95 L5.5 18.6 Q6.5 18.9 6.15 19.95 5.9 20.9 5.9 21.85 5.95 23.15 4.6 23.0 4.25 22.5 4.2 21.85 M1.75 24.1 Q2.55 24.45 1.8 24.95 L1.25 24.8 Q0.75 24.15 1.5 24.1 L1.75 24.1 M11.55 27.85 L11.5 28.25 Q10.95 28.8 10.0 28.85 8.45 28.9 8.15 27.5 7.95 26.3 9.0 26.1 9.55 26.25 9.9 26.6 10.3 27.0 10.75 27.0 11.5 27.0 11.55 27.85 M4.7 31.9 Q5.1 32.05 5.45 32.3 L6.05 33.05 6.1 33.75 5.85 34.1 5.45 34.5 4.95 34.7 3.85 34.6 3.75 34.25 3.7 33.85 3.45 33.25 Q2.85 32.65 3.55 32.05 L4.0 31.75 4.7 31.9 M2.4 37.0 Q2.45 37.8 2.15 38.6 1.85 39.45 1.9 40.3 L2.0 40.25 2.6 39.5 Q2.9 39.05 3.5 39.05 4.35 39.15 4.5 40.0 3.9 43.45 2.45 46.65 1.25 49.4 0.7 52.45 0.25 54.7 -0.85 56.4 L-0.6 56.9 -0.5 57.25 -0.55 57.6 -0.75 58.0 -0.95 58.4 -1.2 59.1 -1.5 59.75 Q-4.45 57.75 -5.5 53.3 -6.55 48.9 -9.4 45.5 -12.7 41.55 -11.65 38.7 L-12.6 38.0 Q-14.55 36.15 -16.1 33.85 -17.55 31.75 -17.3 30.2 L-17.35 30.0 Q-17.5 29.35 -17.0 29.0 L-16.25 28.85 -15.65 29.65 -15.6 29.7 Q-14.4 30.25 -13.55 31.4 L-10.8 35.0 Q-9.2 36.9 -9.4 39.0 L-10.3 39.1 -10.0 39.35 -9.65 39.75 -9.4 39.7 -9.0 39.55 -8.55 39.45 -9.1 37.5 Q-9.75 35.25 -11.0 33.35 L-11.1 31.85 -11.05 30.35 -11.0 28.85 Q-11.0 28.15 -10.5 27.75 -9.4 27.5 -8.95 28.7 L-8.3 30.1 Q-7.9 30.75 -7.65 31.5 -6.8 30.5 -7.6 27.85 L-8.75 23.9 Q-9.25 22.0 -8.45 20.4 L-8.4 20.35 Q-7.4 22.7 -6.8 25.25 L-5.65 28.7 Q-5.3 24.65 -6.1 20.8 -7.2 15.25 -5.5 11.0 -4.5 11.85 -4.5 11.0 L-4.5 9.1 -4.45 7.25 -4.4 6.5 -4.0 6.1 -3.6 5.8 -3.05 5.55 -3.15 3.1 -3.4 -1.4 -3.45 -5.5 -3.5 -6.25 -3.6 -6.45 -4.1 -6.8 -4.5 -7.15 -4.6 -9.35 -4.7 -11.65 -4.65 -14.25 -4.65 -15.4 -3.55 -16.65 -2.75 -17.35 Q-2.2 -18.0 -2.15 -18.75 L-2.8 -20.05 Q-3.25 -20.6 -3.2 -21.4 L-3.15 -22.5 -3.15 -23.25 -2.95 -23.6 -2.5 -24.0 -2.0 -24.35 -1.5 -24.5 -0.75 -23.8 Q-0.35 -23.3 -0.65 -22.75 L-0.9 -21.65 Q0.85 -17.15 -0.3 -12.0 -1.35 -7.5 -1.25 -2.5 -1.15 2.05 -2.6 5.8 -1.55 6.7 -2.15 8.35 -2.7 10.0 -2.55 11.75 -2.35 13.5 -2.85 15.1 L-3.0 15.35 -3.0 15.45 -2.45 15.8 -2.15 16.15 -2.0 16.5 Q-1.3 21.65 -1.35 27.0 L-1.4 30.4 0.0 29.25 Q0.7 30.05 -0.4 32.45 -1.15 34.15 -1.45 36.05 L-2.0 38.55 -2.6 44.75 -1.5 40.0 -1.2 39.7 -0.75 39.55 -0.5 39.55 0.1 39.5 0.3 38.05 0.55 36.5 Q0.6 35.5 1.5 35.5 L1.75 35.5 Q2.3 36.1 2.4 37.0 M-1.95 -31.3 Q-1.9 -30.45 -2.6 -29.85 -2.75 -29.7 -3.0 -29.65 -4.2 -30.05 -4.05 -31.35 -3.95 -32.25 -4.0 -33.25 -4.0 -34.45 -3.0 -34.6 L-2.75 -34.65 Q-2.1 -34.05 -2.05 -33.15 L-1.95 -31.3 M-3.4 -23.9 L-3.3 -23.5 -3.25 -23.15 -3.25 -22.75 -3.6 -22.05 -4.25 -21.45 -5.25 -21.25 Q-5.45 -21.8 -5.0 -22.35 -4.65 -22.85 -4.7 -23.5 L-4.55 -24.2 -4.25 -24.55 -3.9 -24.65 -3.55 -24.25 -3.4 -23.9 M-19.5 -0.5 Q-18.3 -0.3 -18.15 0.9 -18.05 1.85 -18.95 2.25 -20.0 2.75 -20.7 1.8 L-21.0 1.1 -21.0 0.75 -20.85 0.4 -20.3 -0.1 -19.55 -0.45 -19.5 -0.5 M-12.9 -0.25 Q-12.25 0.1 -12.3 0.85 -12.4 1.75 -11.65 2.2 -11.0 2.65 -11.8 3.0 L-12.4 3.1 -13.55 2.45 Q-14.05 2.15 -14.0 1.5 L-13.75 0.35 Q-13.55 -0.25 -13.0 -0.25 L-12.9 -0.25 M-4.1 3.15 Q-6.0 3.75 -5.7 2.05 -5.5 0.7 -3.75 1.1 -2.5 2.65 -4.1 3.15 M-11.75 5.35 Q-11.15 5.95 -11.2 6.85 -11.25 7.75 -10.8 8.45 -10.3 9.35 -10.3 10.25 L-10.4 10.6 Q-12.05 11.05 -12.7 9.25 -13.1 8.15 -13.0 6.85 -12.9 5.95 -12.3 5.5 L-11.75 5.35 M-16.85 8.6 Q-16.95 9.35 -16.35 9.65 -15.55 10.1 -16.05 10.75 L-16.5 11.1 Q-18.05 11.05 -18.2 9.75 L-18.3 8.6 Q-18.3 8.1 -17.95 7.7 L-17.5 7.5 -17.25 7.5 Q-16.8 7.9 -16.85 8.6 M-19.5 18.4 L-19.4 18.35 Q-18.85 18.8 -18.9 19.5 -18.95 20.2 -18.55 20.75 -18.4 21.0 -18.55 21.25 L-19.0 21.6 Q-19.9 21.4 -20.1 20.55 L-20.3 19.5 Q-20.35 18.85 -19.85 18.55 L-19.5 18.4 M-16.45 22.1 L-16.4 20.6 Q-16.35 19.7 -15.5 19.6 L-14.8 20.25 -14.4 20.6 -13.9 21.0 -13.25 21.75 -13.55 22.4 -14.1 23.1 -14.3 23.75 Q-14.35 24.6 -14.9 24.0 L-16.0 23.45 Q-16.55 22.95 -16.45 22.1 M-8.6 17.35 Q-8.25 18.55 -8.4 19.85 L-8.5 20.1 -9.25 17.35 Q-9.55 15.9 -10.25 14.95 -11.3 13.5 -9.5 12.6 -8.35 13.05 -8.7 14.65 -8.95 16.05 -8.6 17.35" fill="#ffffff" fill-rule="evenodd" stroke="none"/>
  </g>
</svg>
