<?xml version="1.0" encoding="UTF-8" standalone="no"?>
<svg xmlns:xlink="http://www.w3.org/1999/xlink" height="92.9px" width="61.85px" xmlns="http://www.w3.org/2000/svg">
  <g transform="matrix(1.0, 0.0, 0.0, 1.0, 35.75, 9.2)">
    <path d="M-2.0 -9.15 Q-0.5 -9.45 -0.15 -8.05 0.1 -7.0 -0.25 -6.05 -0.75 -4.8 -0.25 -3.6 L-0.25 -3.25 Q-1.0 -2.3 -2.55 -2.85 -4.4 -3.5 -4.65 -5.4 L-4.75 -6.9 -4.5 -7.2 -3.65 -8.1 -2.5 -8.95 -2.0 -9.15 M-2.1 10.25 Q-2.25 9.35 -1.6 8.8 L-1.0 8.5 Q0.1 8.75 0.0 9.85 -0.1 10.85 0.2 11.7 0.55 12.75 -0.4 13.2 L-1.0 13.5 Q-2.2 13.25 -2.1 12.1 L-2.1 10.25 M-10.0 18.0 Q-9.85 17.6 -9.55 17.5 L-7.6 16.45 -7.0 16.1 Q-6.2 16.25 -6.15 17.1 -6.1 18.05 -6.75 18.75 L-7.75 19.9 -8.0 20.1 -9.1 19.55 -9.4 19.1 Q-9.5 18.7 -9.9 18.25 L-10.0 18.0 M-4.5 34.85 Q-1.65 38.6 -1.6 44.85 L-1.55 46.1 -0.35 42.6 Q0.5 40.25 2.0 38.25 L2.5 38.1 3.0 38.05 4.0 38.0 Q4.15 37.2 4.6 36.5 L4.95 35.35 Q4.95 34.55 5.25 33.75 L5.5 32.75 Q5.15 31.8 3.9 31.5 3.3 31.35 3.3 30.6 3.3 29.8 3.95 29.35 L4.5 29.0 Q7.65 30.5 7.25 33.95 6.9 37.0 5.95 39.85 4.8 43.15 2.35 43.75 L2.1 43.35 1.9 42.65 Q1.85 42.55 1.8 42.6 L1.5 42.85 0.8 45.1 -0.05 47.6 Q-0.55 49.25 0.0 50.8 L0.0 51.5 -1.45 50.75 -1.3 55.75 Q-1.1 60.65 -1.75 65.35 L-2.5 65.45 Q-3.45 65.4 -3.85 64.55 -4.2 63.7 -4.35 64.35 L-4.4 64.75 -4.45 65.5 Q-4.55 66.1 -5.05 66.4 L-5.45 66.55 -5.75 67.0 -6.05 67.3 -6.55 67.6 -7.5 67.85 Q-9.3 67.15 -10.9 65.65 L-11.95 64.75 -12.1 64.85 -13.0 65.05 -13.4 65.0 -13.25 65.25 -13.35 65.55 Q-15.1 68.15 -18.45 69.05 L-24.05 70.55 Q-27.0 71.3 -27.15 71.5 L-27.0 71.5 Q-24.2 71.1 -21.5 70.2 -19.6 69.5 -19.15 71.1 L-19.25 71.5 Q-19.25 72.3 -19.85 72.05 -21.0 71.6 -22.0 72.7 L-21.75 72.85 -21.45 73.25 -21.25 73.6 -21.2 74.0 -21.45 74.7 -21.65 75.1 -18.55 75.5 -15.9 76.1 -15.65 76.5 -15.45 76.9 -15.3 77.2 -15.0 77.5 -14.5 77.6 -9.0 78.4 Q-8.3 78.45 -7.95 78.85 L-7.3 78.7 -6.75 78.55 -6.0 78.35 -5.5 78.45 -4.55 78.5 -3.4 78.75 -3.35 79.3 -3.0 79.85 -2.2 80.55 -1.65 81.25 -1.5 81.6 Q-1.75 82.4 -2.5 82.35 L-6.65 81.7 Q-8.0 81.35 -8.9 80.35 -12.3 82.0 -16.6 80.85 -23.45 79.05 -29.5 76.05 L-34.2 73.45 Q-35.55 72.7 -35.75 71.35 L-35.7 71.05 Q-33.45 67.7 -29.3 66.8 -26.55 66.2 -23.85 65.25 L-20.5 64.25 -18.75 64.3 -18.8 64.2 -20.8 62.15 Q-22.05 61.05 -21.1 59.6 L-20.5 59.1 -19.95 59.45 -19.75 59.75 -19.5 60.1 Q-18.1 59.95 -16.95 60.8 -17.7 59.6 -16.55 58.6 L-16.5 58.5 -12.6 61.1 -12.15 61.4 -12.0 60.85 -11.65 60.65 Q-12.0 60.25 -12.5 60.25 L-13.15 60.1 Q-13.55 57.85 -15.15 56.05 L-18.45 52.3 Q-20.2 50.4 -20.45 48.05 -20.5 47.65 -20.0 47.5 -17.85 47.6 -16.65 49.65 -15.65 51.35 -13.95 52.55 -12.25 53.75 -11.5 55.35 L-11.85 56.6 Q-12.15 57.35 -11.55 58.0 L-9.9 59.95 Q-9.35 60.6 -9.65 61.35 L-9.65 61.4 Q-9.0 61.95 -8.15 61.6 -7.1 58.0 -6.8 54.1 -6.5 50.15 -7.05 46.35 -7.55 42.9 -8.4 39.5 L-8.0 39.2 Q-7.1 38.8 -6.5 39.6 L-5.8 40.7 -5.65 40.75 -5.65 39.25 -5.75 37.0 Q-5.8 35.95 -5.15 35.25 -4.9 35.0 -4.5 34.85 M-1.5 27.1 L-1.5 26.75 -1.35 26.4 -0.8 25.9 -0.05 25.55 0.0 25.5 Q1.2 25.7 1.35 26.9 1.45 27.85 0.55 28.25 -0.5 28.75 -1.2 27.8 L-1.5 27.1 M-14.65 33.05 L-14.25 31.9 Q-14.2 31.55 -13.95 31.35 L-13.5 31.1 Q-12.5 31.4 -12.55 32.5 -12.6 33.4 -13.2 34.05 -13.85 34.7 -14.6 34.05 L-14.9 33.75 -14.65 33.05 M-11.5 36.75 Q-10.95 37.0 -10.55 37.4 -10.2 37.8 -10.35 38.35 L-10.4 39.5 -10.4 39.85 -10.15 40.25 -9.85 40.6 -9.55 41.0 -9.45 41.35 -9.5 41.6 -11.0 40.5 -12.5 38.35 Q-13.05 37.15 -11.55 36.8 L-11.5 36.75 M-16.45 63.4 Q-15.25 63.75 -16.45 62.85 -17.2 62.25 -17.75 62.6 L-16.45 63.4 M-24.55 55.15 L-23.9 55.85 Q-23.6 56.25 -23.6 56.6 L-24.0 57.25 -25.6 57.2 -26.45 56.1 Q-26.65 55.25 -26.15 54.6 -25.8 54.2 -25.25 54.35 L-24.55 55.15 M-3.4 78.85 L-2.95 78.35 -1.75 77.8 -1.0 77.65 -0.75 77.6 -0.8 79.1 Q-0.85 79.8 -1.5 79.75 -2.35 79.75 -3.0 79.35 L-3.4 78.85 M19.75 38.35 L20.5 38.65 Q21.4 38.7 21.8 39.5 L22.1 40.25 Q22.0 41.55 20.65 41.9 L18.8 42.65 Q17.8 43.15 18.1 42.1 15.45 43.45 13.55 47.6 L11.15 53.3 Q9.7 57.0 8.9 60.85 8.5 62.65 7.1 63.0 L6.8 62.15 5.5 63.85 Q7.2 63.6 9.35 61.9 12.0 59.9 13.0 62.35 L13.1 62.5 13.5 62.3 14.45 62.2 Q14.9 62.3 15.3 62.7 L15.5 63.0 Q14.6 65.05 12.55 66.5 L14.4 66.9 Q15.75 67.25 16.85 68.1 17.95 68.05 18.85 68.55 L20.6 69.2 23.0 70.0 23.5 70.5 23.55 70.85 23.5 71.25 23.35 71.6 23.2 71.85 23.0 72.0 22.6 72.25 22.85 72.65 22.95 73.0 23.0 73.35 23.0 73.65 23.65 73.1 24.25 73.0 Q25.1 73.65 24.65 74.5 24.25 75.3 24.85 75.8 L25.85 77.0 26.1 77.35 Q24.0 80.2 20.35 81.5 14.55 83.5 11.85 80.1 12.7 79.0 13.95 78.45 L13.35 78.2 12.95 78.0 12.4 77.7 12.05 77.35 12.0 77.0 Q12.0 76.15 12.9 75.7 L13.8 75.15 14.75 74.2 Q15.75 72.85 17.1 71.75 L16.95 71.55 Q16.65 71.35 16.35 71.3 L14.0 70.9 13.4 70.7 13.05 70.35 13.0 70.0 13.05 69.65 13.4 69.3 Q13.65 69.1 14.0 69.05 11.95 68.6 10.2 67.75 L6.45 68.65 Q6.0 68.7 5.5 68.35 5.3 67.15 6.45 66.55 L8.4 65.25 9.0 64.6 Q7.95 65.0 6.3 66.35 5.2 67.25 3.9 67.65 L2.85 67.75 Q2.05 65.95 3.25 64.05 L5.1 60.7 Q3.75 57.5 6.2 53.65 8.9 49.4 11.75 45.3 15.65 39.6 20.5 35.1 21.3 35.25 21.4 36.1 21.45 36.85 20.9 37.25 L20.0 38.0 19.75 38.35 M20.4 73.25 Q20.25 73.1 20.0 73.1 19.55 73.25 19.15 73.45 L18.35 74.1 18.25 74.25 19.1 74.25 20.0 74.0 20.5 73.6 20.4 73.25 M16.35 55.55 Q16.15 56.9 14.65 56.1 13.1 55.3 14.95 54.7 L15.0 54.6 Q16.55 54.2 16.35 55.55 M8.25 55.85 L8.5 55.1 Q7.6 55.45 7.25 56.55 L7.05 57.3 7.9 56.8 8.25 55.85 M18.8 77.8 Q20.4 77.95 22.0 77.1 22.5 76.45 22.45 75.6 L22.45 75.4 21.75 75.7 20.95 75.9 Q19.25 76.2 17.7 77.05 L16.15 77.85 18.8 77.8 M3.25 83.25 L3.3 82.95 4.05 82.05 Q4.6 81.35 5.45 81.2 L5.5 81.1 7.45 81.35 8.25 81.75 8.25 82.05 Q7.7 83.1 6.5 83.5 5.0 83.95 3.65 83.5 L3.25 83.25" fill="#ffffff" fill-rule="evenodd" stroke="none"/>
  </g>
</svg>
