<?xml version="1.0" encoding="UTF-8" standalone="no"?>
<svg xmlns:xlink="http://www.w3.org/1999/xlink" height="116.55px" width="127.85px" xmlns="http://www.w3.org/2000/svg">
  <g transform="matrix(1.0, 0.0, 0.0, 1.0, 70.0, 30.5)">
    <path d="M-2.5 -30.5 Q-1.65 -30.35 -1.3 -29.6 -1.0 -28.85 -1.0 -28.0 -0.95 -27.2 -1.6 -26.7 -1.75 -26.55 -2.0 -26.5 L-2.5 -26.55 Q-3.1 -26.7 -3.5 -27.05 L-3.9 -27.65 -3.85 -28.4 -3.7 -29.55 Q-3.55 -30.4 -2.5 -30.45 L-2.5 -30.5 M-2.25 -14.85 Q-1.95 -14.15 -2.0 -13.4 L-2.0 -11.9 -2.3 -11.35 Q-3.4 -10.6 -2.95 -10.1 L-2.4 -9.4 -2.6 -9.15 -3.55 -10.15 -5.0 -11.15 -5.0 -11.9 -5.0 -12.65 -5.0 -13.75 -4.9 -14.5 -4.5 -14.9 -4.1 -15.2 -3.55 -15.45 -3.5 -15.5 Q-2.6 -15.65 -2.25 -14.85 M-28.4 36.9 Q-27.7 37.25 -27.75 38.1 L-27.9 38.5 -28.2 39.2 -28.6 39.65 -29.95 39.8 -31.0 39.35 Q-31.6 38.95 -31.5 38.25 -31.4 37.6 -31.8 37.15 -32.25 36.6 -31.85 36.05 -31.45 35.5 -31.0 35.5 -30.1 35.35 -29.5 36.1 L-28.4 36.9 M-35.6 44.95 L-35.05 44.7 -35.0 44.6 Q-33.85 44.55 -33.35 45.65 -32.8 46.9 -34.0 46.95 -35.05 46.95 -35.75 46.0 L-35.85 45.6 -35.85 45.25 -35.6 44.95 M-6.0 46.05 Q-6.3 45.0 -5.55 44.35 L-5.0 44.0 -4.4 44.3 -4.05 44.65 -3.75 45.0 -3.6 45.75 -3.6 46.85 -3.9 48.05 -3.9 48.35 Q-3.25 47.3 -3.3 47.95 -3.3 48.7 -3.75 49.5 -4.3 50.4 -5.4 50.1 -6.05 49.35 -5.9 48.25 -5.75 47.0 -6.0 46.05 M-45.35 60.5 L-45.65 59.85 -45.45 59.55 -44.45 59.0 Q-42.2 58.2 -40.0 58.25 L-35.55 58.05 Q-33.95 57.95 -33.25 59.05 L-33.0 59.75 -33.15 60.1 -33.3 60.3 -33.7 60.55 -32.55 61.9 -32.3 62.2 -32.0 62.1 -31.15 61.85 -30.5 61.6 Q-28.25 62.0 -30.15 63.55 -30.75 64.05 -31.55 64.2 L-32.35 64.4 Q-32.65 65.2 -33.55 65.35 L-34.15 65.25 -34.35 65.05 Q-36.05 65.6 -36.4 63.85 L-36.35 63.4 -41.9 65.05 -41.9 65.25 -41.95 65.6 -42.15 66.0 -42.45 66.3 -43.0 66.6 -44.5 67.1 -42.25 67.4 -41.75 67.5 -37.75 67.5 -37.7 67.15 -37.5 66.75 -37.05 66.3 -36.8 66.05 -36.4 65.85 -36.4 66.25 -36.55 66.6 -36.8 66.95 -37.2 67.4 -37.25 67.75 Q-38.2 69.3 -40.2 68.2 L-41.2 68.1 Q-43.35 68.8 -44.9 70.35 -46.0 71.4 -46.05 72.85 L-45.85 74.7 -45.65 75.1 Q-45.45 76.3 -44.0 76.05 L-43.2 75.9 Q-38.65 74.8 -38.0 77.75 L-38.3 78.35 -38.5 78.45 -39.0 78.6 -39.75 78.75 -39.4 78.75 -35.7 78.5 Q-34.1 78.2 -32.9 79.35 -33.25 80.4 -34.6 80.95 L-39.6 81.2 -41.1 80.75 -41.0 80.85 -40.5 81.5 Q-42.95 83.75 -46.1 81.2 -48.75 79.05 -51.8 78.15 -56.45 76.75 -59.95 73.3 -61.6 71.7 -61.65 69.5 L-62.3 69.75 Q-63.85 70.2 -63.0 69.4 -62.35 68.8 -61.4 68.75 L-60.45 68.15 -60.0 67.9 Q-58.05 66.65 -55.75 66.1 L-51.5 64.9 -50.4 64.6 -50.7 64.2 -50.7 63.9 -50.45 63.55 -50.0 63.3 -49.65 63.25 Q-49.2 62.6 -48.55 62.3 L-47.15 62.25 -47.4 62.6 -47.7 63.05 -47.8 63.35 -47.35 63.4 -45.55 63.7 -45.5 63.65 -44.0 63.1 -44.7 62.8 -44.95 62.45 -45.05 61.75 Q-44.95 61.05 -45.35 60.5 M-52.65 72.35 Q-52.05 73.35 -51.0 73.85 L-48.15 75.0 Q-47.9 74.55 -48.0 74.0 L-48.0 73.25 -48.05 71.75 Q-48.05 70.55 -47.25 69.65 L-45.1 67.65 -45.0 67.5 -47.05 67.95 -50.0 68.5 Q-51.55 68.65 -53.0 69.2 L-54.15 69.75 Q-54.05 70.45 -53.55 70.9 L-53.3 71.25 -52.65 72.35 M-68.55 70.05 L-68.5 70.0 Q-67.3 70.2 -67.15 71.4 -67.05 72.35 -67.95 72.75 -69.0 73.25 -69.65 72.3 L-70.0 71.6 -70.0 71.25 -69.85 70.9 -69.3 70.35 -68.55 70.05 M-22.45 79.35 L-22.65 79.6 -23.0 79.7 -26.05 79.9 -26.65 79.95 -26.85 79.85 -30.25 79.35 -30.5 79.0 -30.6 78.6 -30.6 78.25 -30.5 77.85 -32.0 77.65 Q-33.0 77.55 -33.15 76.6 -33.25 75.8 -32.5 75.5 L-32.0 75.35 -20.5 75.55 Q-19.7 75.55 -19.4 76.35 L-19.5 76.75 Q-19.55 77.3 -20.0 77.5 -21.15 78.0 -22.1 78.8 L-22.45 79.35 M-13.5 80.15 Q-13.0 80.3 -13.05 81.05 -13.15 82.15 -14.4 81.65 -15.95 81.0 -15.0 80.45 L-14.8 79.55 -14.5 79.25 Q-13.45 79.45 -13.5 80.15 M28.0 29.0 Q29.05 29.25 29.1 30.35 29.1 31.4 28.5 32.25 28.0 32.95 27.0 32.9 L26.5 32.85 25.9 32.55 25.7 32.2 25.6 31.5 25.6 31.1 25.95 30.45 Q26.35 29.85 26.9 29.4 27.35 29.0 28.0 29.05 L28.0 29.0 M29.05 58.3 L29.45 58.65 29.75 59.0 29.85 59.35 29.8 60.1 29.7 60.8 29.25 61.6 Q28.2 62.25 27.85 61.15 L27.25 59.3 Q27.05 58.8 27.3 58.25 27.6 57.7 28.25 57.85 L29.05 58.3 M31.3 62.25 L31.5 62.1 Q38.2 63.05 43.4 67.45 50.05 73.1 43.35 76.85 L42.35 77.85 Q42.1 78.65 46.05 79.05 46.7 79.15 46.5 79.75 41.25 83.45 34.5 84.75 25.65 86.5 18.25 85.9 L17.75 85.5 17.75 85.1 17.75 84.75 17.9 84.4 18.25 84.0 22.7 82.2 24.3 80.95 23.95 81.15 Q22.9 81.65 22.0 80.95 L21.75 80.4 22.05 79.85 22.5 79.6 23.45 79.7 24.15 79.95 24.6 80.4 24.75 80.0 Q28.75 79.5 32.6 78.3 L31.35 77.75 Q32.5 77.05 33.95 76.9 L37.4 76.4 39.9 75.15 42.15 73.4 Q43.05 72.55 44.1 72.25 L44.9 73.05 45.0 72.85 Q44.45 71.25 43.4 69.9 41.5 67.45 38.45 66.75 32.9 65.45 31.3 62.25 M44.0 65.5 L47.3 66.05 51.75 67.15 55.75 68.6 57.1 69.25 57.25 69.6 57.35 70.0 57.2 70.35 57.0 70.6 57.55 70.95 57.75 71.25 57.8 71.6 57.85 72.0 Q57.9 72.9 57.25 73.5 L56.1 74.6 53.8 76.55 51.6 78.1 Q50.5 78.75 49.35 78.1 L49.3 77.4 49.65 76.65 50.0 76.25 50.35 75.85 50.75 75.5 51.1 75.1 51.8 74.35 52.35 73.6 52.1 73.15 51.5 72.85 49.75 72.5 49.4 72.2 49.35 71.9 49.5 71.6 49.6 71.35 49.75 71.0 Q49.85 70.85 50.0 70.8 L50.5 70.6 51.75 70.35 48.25 68.75 46.7 68.4 Q44.55 68.2 43.45 66.55 42.85 65.65 44.0 65.5 M54.15 71.45 L54.25 71.5 55.15 72.3 Q55.9 73.05 55.25 72.15 54.85 71.6 54.15 71.45" fill="#ffffff" fill-rule="evenodd" stroke="none"/>
  </g>
</svg>
