<?xml version="1.0" encoding="UTF-8" standalone="no"?>
<svg xmlns:xlink="http://www.w3.org/1999/xlink" height="26.45px" width="8.2px" xmlns="http://www.w3.org/2000/svg">
  <g transform="matrix(1.0, 0.0, 0.0, 1.0, 3.95, -5.3)">
    <path d="M-0.65 12.7 L-1.35 10.85 -0.25 10.1 -0.55 12.0 -0.65 12.7" fill="url(#gradient0)" fill-rule="evenodd" stroke="none"/>
    <path d="M-0.25 10.1 L-1.35 10.85 Q-2.35 9.05 -3.75 9.7 L-3.6 8.4 -3.35 6.9 Q-0.85 2.55 -0.25 10.1" fill="url(#gradient1)" fill-rule="evenodd" stroke="none"/>
    <path d="M-1.35 10.85 L-0.65 12.7 Q-1.8 21.4 0.25 31.75 -4.85 20.75 -3.75 9.7 -2.35 9.05 -1.35 10.85" fill="url(#gradient2)" fill-rule="evenodd" stroke="none"/>
    <path d="M-1.35 10.85 L-0.65 12.7 -0.55 12.0 -0.25 10.1 M-1.35 10.85 Q-2.35 9.05 -3.75 9.7 -4.85 20.75 0.25 31.75 -1.8 21.4 -0.65 12.7 M-3.35 6.9 L-3.6 8.4 -3.75 9.7" fill="none" stroke="#000000" stroke-linecap="round" stroke-linejoin="round" stroke-width="0.05"/>
    <path d="M1.9 12.6 L1.05 10.9 2.1 10.0 1.95 11.95 1.9 12.6" fill="url(#gradient3)" fill-rule="evenodd" stroke="none"/>
    <path d="M2.1 10.0 L1.05 10.9 Q-0.1 9.15 -1.45 10.0 L-1.35 8.7 -1.25 7.15 Q0.95 2.65 2.1 10.0" fill="url(#gradient4)" fill-rule="evenodd" stroke="none"/>
    <path d="M1.05 10.9 L1.9 12.6 Q1.4 21.4 4.25 31.5 -1.7 21.1 -1.45 10.0 -0.1 9.15 1.05 10.9" fill="url(#gradient5)" fill-rule="evenodd" stroke="none"/>
    <path d="M1.05 10.9 L1.9 12.6 1.95 11.95 2.1 10.0 M1.05 10.9 Q-0.1 9.15 -1.45 10.0 -1.7 21.1 4.25 31.5 1.4 21.4 1.9 12.6 M-1.45 10.0 L-1.35 8.7 -1.25 7.15" fill="none" stroke="#000000" stroke-linecap="round" stroke-linejoin="round" stroke-width="0.05"/>
  </g>
  <defs>
    <radialGradient cx="0" cy="0" gradientTransform="matrix(0.007, 0.0, 0.0, 0.0086, -2.0, 5.85)" gradientUnits="userSpaceOnUse" id="gradient0" r="819.2" spreadMethod="pad">
      <stop offset="0.0" stop-color="#514e37"/>
      <stop offset="1.0" stop-color="#1b1d21"/>
    </radialGradient>
    <radialGradient cx="0" cy="0" gradientTransform="matrix(0.007, 0.0, 0.0, 0.0086, -2.0, 5.85)" gradientUnits="userSpaceOnUse" id="gradient1" r="819.2" spreadMethod="pad">
      <stop offset="0.0" stop-color="#315057"/>
      <stop offset="1.0" stop-color="#0c1030"/>
    </radialGradient>
    <radialGradient cx="0" cy="0" gradientTransform="matrix(0.0167, 0.0, 0.0, 0.0204, -1.25, 25.95)" gradientUnits="userSpaceOnUse" id="gradient2" r="819.2" spreadMethod="pad">
      <stop offset="0.0" stop-color="#4eaeed"/>
      <stop offset="0.5686274509803921" stop-color="#d8cec0"/>
      <stop offset="1.0" stop-color="#532d2d"/>
    </radialGradient>
    <radialGradient cx="0" cy="0" gradientTransform="matrix(0.007, -8.0E-4, 7.0E-4, 0.0085, 0.05, 6.0)" gradientUnits="userSpaceOnUse" id="gradient3" r="819.2" spreadMethod="pad">
      <stop offset="0.0" stop-color="#514e37"/>
      <stop offset="1.0" stop-color="#1b1d21"/>
    </radialGradient>
    <radialGradient cx="0" cy="0" gradientTransform="matrix(0.007, -8.0E-4, 7.0E-4, 0.0085, 0.05, 6.0)" gradientUnits="userSpaceOnUse" id="gradient4" r="819.2" spreadMethod="pad">
      <stop offset="0.0" stop-color="#315057"/>
      <stop offset="1.0" stop-color="#0c1030"/>
    </radialGradient>
    <radialGradient cx="0" cy="0" gradientTransform="matrix(0.0166, -0.0019, 0.0015, 0.0203, 2.3, 25.9)" gradientUnits="userSpaceOnUse" id="gradient5" r="819.2" spreadMethod="pad">
      <stop offset="0.0" stop-color="#4eaeed"/>
      <stop offset="0.5686274509803921" stop-color="#d8cec0"/>
      <stop offset="1.0" stop-color="#532d2d"/>
    </radialGradient>
  </defs>
</svg>
