<?xml version="1.0" encoding="UTF-8" standalone="no"?>
<svg xmlns:xlink="http://www.w3.org/1999/xlink" height="48.9px" width="44.9px" xmlns="http://www.w3.org/2000/svg">
  <g transform="matrix(1.0, 0.0, 0.0, 1.0, 19.35, 22.5)">
    <path d="M10.85 -15.6 Q9.3 -15.9 8.7 -17.1 7.3 -16.8 5.35 -17.95 4.05 -18.7 3.0 -19.85 L2.15 -19.65 1.75 -19.4 1.3 -18.6 1.2 -17.9 0.85 -17.15 0.6 -16.85 Q2.15 -16.35 2.5 -17.45 L2.65 -17.2 2.75 -16.9 Q2.35 -14.6 -0.4 -14.6 L-2.85 -14.85 -6.5 -13.3 Q-8.75 -12.2 -11.1 -12.9 L-11.5 -13.15 Q-10.6 -14.95 -8.75 -15.8 L-7.6 -16.35 -6.25 -17.05 -1.55 -20.1 Q1.15 -22.1 4.25 -22.5 4.85 -21.9 4.85 -21.0 L4.85 -20.95 5.1 -20.85 5.5 -20.65 5.9 -20.85 6.4 -21.15 Q5.9 -22.15 7.0 -22.4 8.35 -22.25 9.45 -21.3 10.4 -20.5 11.45 -19.8 12.6 -18.95 13.35 -17.6 L13.75 -16.9 13.95 -16.9 Q14.8 -17.15 15.55 -16.6 16.0 -16.25 16.5 -16.1 L18.1 -15.75 18.8 -14.65 19.25 -13.85 19.45 -13.15 19.6 -12.4 19.85 -11.6 19.85 -11.25 19.4 -10.8 Q18.5 -10.4 17.45 -10.3 L16.85 -10.4 16.65 -10.75 16.45 -11.1 16.15 -11.9 16.1 -12.25 16.15 -12.65 16.25 -13.4 13.3 -14.85 10.85 -15.6 M0.35 -3.9 L-0.1 -3.45 Q-2.4 -2.4 -3.1 -4.2 L-2.95 -4.4 -2.0 -4.9 -0.55 -4.8 Q-0.2 -4.75 0.0 -4.55 L0.35 -3.9 M23.35 4.75 L23.6 4.0 23.85 2.85 24.0 2.15 24.3 1.85 24.75 1.75 Q25.75 1.9 25.5 2.85 L24.85 4.2 Q24.55 4.7 23.95 4.8 L23.35 4.75 M23.1 8.85 Q23.4 11.35 22.1 13.45 L19.7 17.2 Q18.05 19.75 16.1 18.75 L16.25 17.65 16.55 16.85 17.35 15.75 17.15 15.35 17.1 15.0 17.1 14.6 17.1 14.25 18.95 11.85 Q20.0 10.45 21.45 9.6 22.25 9.1 23.1 8.85 M6.3 5.45 Q5.55 6.1 4.65 5.85 L4.35 5.6 4.4 5.25 4.45 4.9 4.3 4.1 Q4.25 3.75 4.45 3.45 4.65 3.25 5.0 3.1 6.0 3.0 6.5 3.8 7.05 4.75 6.3 5.45 M0.5 21.85 Q0.6 21.2 1.25 20.95 L4.1 20.35 2.85 21.05 1.35 21.75 8.6 21.6 8.9 21.45 10.0 21.5 14.85 20.85 15.55 20.05 16.05 19.45 16.5 19.15 16.75 19.1 Q17.95 22.95 12.95 23.2 L9.7 23.4 9.55 23.55 9.15 24.0 9.0 24.25 Q5.55 24.1 3.2 25.95 L2.0 26.35 Q-0.05 26.6 -1.5 25.25 L-3.15 23.2 -4.2 22.65 Q-7.9 20.6 -9.9 22.25 -11.1 22.75 -11.85 21.5 L-13.65 18.9 -13.95 18.35 -14.0 18.35 Q-16.0 16.95 -16.4 14.45 -16.7 12.5 -17.45 10.65 L-18.3 7.25 Q-18.4 6.2 -17.5 6.1 -16.6 6.65 -16.15 7.85 L-15.25 10.1 -14.4 12.35 -14.25 12.75 -8.8 15.1 Q-5.35 16.5 -2.35 17.85 L-2.15 18.1 Q-3.25 19.0 -4.75 19.0 L-2.7 19.85 -1.9 19.55 -1.5 19.55 -0.4 19.45 -0.25 19.4 0.1 19.35 Q0.1 20.0 -0.55 20.3 L-1.3 20.7 -1.25 20.75 Q-1.25 21.55 -0.8 21.9 -0.1 22.5 0.7 22.75 L0.5 21.85 M-15.45 -12.95 L-15.3 -13.25 Q-15.3 -13.95 -14.65 -14.4 L-14.4 -14.65 -13.5 -14.7 -12.4 -14.75 -12.0 -14.85 -11.5 -15.1 -11.4 -15.15 Q-11.6 -14.35 -12.4 -14.0 -13.45 -13.55 -13.75 -12.5 -14.0 -11.75 -14.8 -11.55 L-15.5 -11.4 Q-15.8 -10.7 -16.6 -10.3 -17.4 -9.95 -17.6 -9.1 -17.8 -8.3 -18.55 -8.3 L-19.15 -8.4 Q-19.95 -9.8 -17.9 -10.6 -17.2 -10.85 -16.5 -11.25 L-16.0 -11.45 Q-16.6 -11.9 -15.95 -12.45 L-15.45 -12.95 M-6.05 -4.3 L-6.0 -4.4 -5.45 -4.05 -5.25 -3.75 -5.2 -3.4 -5.15 -2.75 -5.0 -2.75 Q-4.25 -2.5 -3.65 -2.05 L-3.75 -1.9 Q-5.0 -2.45 -5.15 -1.05 -5.25 -0.25 -5.65 0.55 -6.15 1.65 -7.4 1.1 L-7.75 0.7 -8.2 -0.05 -8.4 -1.15 -7.85 -2.25 -6.9 -3.65 -6.05 -4.3 M-1.5 9.25 Q-2.15 10.55 -3.15 9.4 -4.2 8.15 -2.55 7.7 L-2.5 7.6 Q-0.7 7.75 -1.5 9.25" fill="#ffffff" fill-rule="evenodd" stroke="none"/>
    <path d="M-0.25 -2.65 L-0.25 -2.7 Q0.95 -2.75 1.9 -1.9 2.7 -1.05 2.8 0.05 L2.9 2.3 Q0.95 4.65 -1.7 2.75 -3.55 1.4 -2.7 -0.75 -2.05 -2.4 -0.25 -2.65" fill="#ffffff" fill-rule="evenodd" stroke="none"/>
  </g>
</svg>
