<?xml version="1.0" encoding="UTF-8" standalone="no"?>
<svg xmlns:xlink="http://www.w3.org/1999/xlink" height="79.6px" width="77.85px" xmlns="http://www.w3.org/2000/svg">
  <g transform="matrix(1.0, 0.0, 0.0, 1.0, 38.5, 37.5)">
    <path d="M24.0 -27.4 L25.45 -25.9 25.95 -26.3 26.0 -26.4 26.95 -25.95 28.05 -25.75 29.1 -25.75 Q29.45 -23.9 30.25 -22.3 L31.8 -18.7 32.15 -17.8 Q35.8 -15.9 37.05 -11.0 L39.2 -0.6 Q40.1 5.25 36.0 9.25 34.1 4.75 34.9 -1.6 35.85 -9.0 30.65 -12.75 L22.7 -17.9 Q21.25 -18.8 21.35 -20.5 21.6 -22.05 23.05 -21.25 L25.55 -19.75 Q26.7 -18.95 28.0 -18.25 L27.4 -19.15 26.6 -20.55 Q26.3 -21.0 26.4 -21.5 25.5 -23.15 24.15 -24.45 L23.4 -25.4 Q21.85 -25.0 20.6 -25.8 L19.85 -26.4 Q18.35 -25.5 17.0 -27.0 16.1 -27.95 15.5 -29.05 15.15 -29.7 15.25 -30.5 L15.75 -30.9 Q16.6 -30.55 17.2 -29.85 L18.5 -28.5 18.65 -28.3 18.5 -29.05 Q18.45 -29.7 19.0 -29.75 20.2 -29.75 20.8 -28.75 L21.75 -27.3 Q22.3 -26.45 23.1 -25.9 L23.2 -25.85 Q22.95 -26.7 23.95 -27.3 L24.0 -27.4 M5.1 -32.25 L4.5 -32.15 3.85 -32.25 Q3.1 -32.5 2.4 -32.85 2.15 -32.95 2.0 -33.15 L2.0 -33.5 2.05 -33.85 2.45 -34.7 2.6 -35.4 2.8 -36.0 Q2.9 -36.25 3.25 -36.4 L3.75 -36.15 4.6 -35.8 5.5 -35.7 6.5 -35.75 7.1 -35.65 6.85 -35.3 6.4 -34.85 6.0 -34.1 5.7 -33.4 5.35 -32.65 5.1 -32.25 M15.5 -32.0 Q14.75 -31.1 13.5 -31.1 12.4 -31.05 12.05 -31.95 11.9 -32.25 12.05 -32.6 12.15 -33.05 12.75 -32.9 L13.5 -32.75 14.45 -32.6 15.2 -32.3 15.5 -32.0 M4.65 -18.6 Q5.5 -18.1 6.5 -17.7 L7.25 -17.5 7.45 -17.65 7.65 -18.0 7.85 -18.25 8.0 -18.35 8.95 -18.3 9.6 -18.15 9.9 -17.7 10.0 -17.1 9.7 -16.55 9.25 -15.95 8.6 -15.15 8.0 -15.0 Q6.95 -14.95 6.0 -15.45 L4.75 -15.55 Q4.8 -15.0 4.35 -14.4 L4.2 -14.2 Q0.0 -12.6 -4.25 -14.15 L-4.45 -14.5 -4.8 -15.1 -5.6 -15.85 -6.2 -16.55 -6.4 -16.9 -6.3 -17.15 Q-5.3 -18.2 -3.65 -18.3 -1.95 -18.4 -0.65 -19.25 L0.0 -19.65 2.45 -19.4 Q3.6 -19.2 4.65 -18.6 M18.0 -10.25 L18.7 -10.05 19.5 -9.75 20.2 -9.35 20.75 -9.0 19.35 -9.0 18.5 -8.95 Q17.85 -9.0 17.55 -9.45 17.15 -10.1 17.95 -10.2 L18.0 -10.25 M22.55 -3.35 Q22.6 -2.65 22.9 -2.0 23.2 -1.4 23.85 -0.9 24.05 1.35 23.65 3.55 23.15 6.55 21.6 9.25 20.4 11.35 18.5 12.0 L17.95 11.65 17.45 11.0 17.05 10.2 17.0 9.85 Q18.8 7.9 19.55 5.4 20.4 2.6 20.35 0.1 20.3 -2.45 21.45 -4.15 L21.5 -4.25 Q22.5 -4.35 22.55 -3.35 M4.5 23.75 Q3.85 23.5 3.5 23.05 3.35 22.85 3.55 22.55 L3.85 22.1 4.35 21.75 5.1 21.4 5.5 21.25 5.6 21.25 5.55 22.0 5.45 22.7 4.95 23.45 4.5 23.75 M13.5 18.1 Q14.5 18.1 14.45 19.0 14.4 20.0 13.45 20.15 L11.9 20.0 11.6 19.75 11.65 19.35 11.8 19.05 Q12.15 18.75 12.65 18.55 L13.45 18.2 13.5 18.1 M11.1 35.75 L11.15 36.1 11.25 36.5 11.3 36.85 11.25 37.25 Q10.0 38.7 7.95 37.45 7.45 37.15 7.6 36.5 7.5 36.0 8.0 35.8 8.85 35.4 9.65 35.8 L9.95 35.8 10.4 35.55 11.1 35.35 11.1 35.75 M0.1 38.35 L0.0 39.1 0.35 39.7 1.55 40.5 1.75 40.75 1.85 41.1 Q-6.75 43.65 -15.2 39.75 -16.75 39.05 -17.55 38.2 L-18.85 37.25 -23.35 33.2 -24.55 31.55 -24.85 31.75 -25.1 32.25 Q-25.15 32.8 -25.6 33.15 L-26.0 33.35 Q-28.05 32.15 -29.25 29.4 L-31.0 25.3 -31.2 24.75 Q-32.2 24.95 -32.8 23.9 -33.5 24.05 -34.05 23.65 -34.75 23.1 -34.75 22.25 -34.8 21.45 -35.4 21.5 -37.25 21.3 -37.9 19.0 L-38.5 18.25 -38.25 15.25 -38.0 12.15 -37.75 11.1 -37.6 10.0 Q-36.85 5.6 -35.6 1.5 -34.05 -3.55 -32.4 -6.85 L-32.25 -6.9 -31.9 -6.65 -30.8 -7.85 -30.8 -7.9 Q-30.9 -9.1 -29.75 -9.0 -29.0 -8.2 -29.75 -7.5 -29.25 -6.9 -29.45 -5.85 L-30.25 -3.3 -30.45 -2.9 Q-30.65 -1.35 -31.55 0.7 L-31.55 0.8 Q-30.75 3.6 -31.5 7.15 -32.3 11.0 -31.35 14.75 L-31.3 14.95 -30.75 14.85 Q-29.65 15.55 -28.85 16.6 L-27.05 18.25 Q-25.8 18.95 -26.0 20.25 -27.55 21.4 -29.0 19.85 L-30.45 18.2 -29.9 20.4 Q-28.7 20.6 -28.0 21.5 L-26.0 23.95 Q-24.8 25.45 -24.7 27.25 L-24.75 27.6 Q-26.65 27.6 -28.4 26.45 L-27.5 28.6 Q-27.0 29.35 -26.05 29.4 -25.65 29.45 -25.3 29.75 L-24.95 30.1 -24.95 28.8 -24.5 28.25 Q-24.15 28.35 -23.85 28.6 L-23.25 29.25 -22.7 30.05 -22.5 30.6 Q-22.5 31.1 -20.0 33.45 L-18.05 35.0 -18.0 35.0 Q-17.1 34.85 -16.4 35.45 -15.75 36.0 -14.95 36.2 L-13.5 36.35 Q-12.9 34.95 -11.3 35.55 L-7.65 37.05 Q-6.25 37.65 -5.15 38.75 L-4.75 38.85 -4.15 38.8 -4.0 38.75 -3.55 38.7 -2.0 39.0 -1.75 38.4 -1.5 38.0 -1.0 37.8 Q-0.4 37.8 0.15 38.15 L0.1 38.35 M-4.25 -37.5 Q-3.6 -37.0 -4.25 -36.35 -5.05 -35.5 -5.4 -36.45 -5.6 -37.05 -4.85 -37.4 L-4.25 -37.5 M-7.7 -14.1 L-7.45 -14.45 -6.4 -15.0 -5.9 -15.15 Q-4.75 -14.95 -4.9 -14.15 -5.05 -13.25 -6.0 -13.3 L-7.35 -13.5 -7.75 -13.75 -7.7 -14.1 M-11.1 -13.3 L-10.25 -13.5 Q-9.4 -12.45 -10.85 -11.55 L-11.7 -10.95 Q-11.55 -9.0 -12.75 -6.7 -14.25 -3.85 -16.25 -1.0 -18.35 1.95 -20.9 1.75 -22.2 -0.15 -20.75 -2.2 -19.6 -3.8 -18.85 -5.7 -17.9 -7.9 -16.15 -7.0 -14.9 -7.45 -14.4 -8.85 L-14.1 -9.85 -14.75 -10.5 -13.95 -11.7 -13.85 -11.75 Q-13.6 -12.95 -12.55 -13.3 L-12.5 -13.4 -12.15 -12.75 -11.1 -13.3 M-16.15 15.85 Q-17.4 17.1 -17.7 15.35 -17.95 13.95 -16.5 13.85 L-16.25 13.85 Q-15.15 14.85 -16.15 15.85 M-12.65 21.1 L-11.25 22.0 Q-10.35 22.55 -10.1 23.5 L-10.15 23.85 Q-11.85 25.35 -13.6 23.7 -14.7 22.6 -14.85 21.2 -14.95 20.45 -14.35 19.9 L-13.75 19.6 Q-13.4 20.55 -12.65 21.1 M-35.65 13.4 L-36.0 14.3 -36.05 14.55 -36.0 14.55 -35.55 14.6 -35.65 13.5 -35.65 13.4" fill="#ffffff" fill-rule="evenodd" stroke="none"/>
    <path d="M0.75 -1.35 L1.05 -1.25 1.3 -1.05 Q1.7 -0.7 1.7 -0.1 1.7 0.85 1.05 1.55 0.55 2.2 -0.25 2.2 L-0.8 2.05 -0.85 1.7 Q-0.85 1.3 -1.0 1.05 -1.4 0.6 -1.35 0.0 L-1.25 -0.75 -1.1 -0.9 -0.75 -1.05 0.0 -1.3 0.25 -1.35 0.75 -1.35" fill="#ffffff" fill-rule="evenodd" stroke="none"/>
  </g>
</svg>
