<?xml version="1.0" encoding="UTF-8" standalone="no"?>
<svg xmlns:xlink="http://www.w3.org/1999/xlink" height="80.3px" width="80.95px" xmlns="http://www.w3.org/2000/svg">
  <g transform="matrix(1.0, 0.0, 0.0, 1.0, 39.75, 36.05)">
    <path d="M17.2 -27.3 Q13.35 -28.3 9.15 -29.8 -1.6 -33.7 -11.95 -28.45 -18.6 -25.0 -23.4 -18.7 -28.15 -12.5 -32.0 -5.75 L-31.75 -5.4 -31.55 -5.0 -31.45 -4.65 -31.55 -4.25 -31.65 -3.85 -31.7 -3.5 -31.75 -3.15 -31.9 -2.9 -32.05 -2.8 -32.5 -2.6 -32.9 -2.4 -33.0 1.25 -32.95 1.4 -32.45 1.8 -32.15 2.15 -32.0 2.5 -31.9 8.85 Q-31.7 12.45 -30.95 16.05 L-29.05 23.15 -28.9 23.75 Q-25.5 24.15 -23.45 27.75 L-21.3 30.65 Q-20.4 30.7 -19.75 31.1 L-20.0 31.2 -20.55 31.35 Q-18.6 33.05 -15.95 33.9 -14.75 34.3 -14.15 35.1 L-14.95 35.5 Q-11.5 37.15 -7.7 38.45 -1.95 40.45 4.1 39.25 L5.0 38.3 6.95 36.75 7.75 36.0 Q14.4 37.35 18.5 32.75 18.95 32.2 18.5 32.5 L18.0 32.55 17.05 32.45 Q16.5 32.3 16.05 31.9 L15.85 31.6 Q16.15 29.2 18.0 27.55 L22.05 23.45 24.25 21.1 Q24.25 19.85 24.5 18.55 24.75 17.0 25.35 15.55 L25.55 14.55 Q25.9 13.4 27.0 13.35 L27.55 12.95 Q27.75 12.8 28.0 12.75 28.9 12.6 29.4 13.4 L30.05 14.85 30.25 16.35 30.25 16.7 30.45 16.25 Q30.6 15.55 31.25 15.15 31.6 14.95 31.9 14.9 L33.7 7.7 Q34.45 4.75 33.75 1.8 33.4 1.8 33.25 1.5 32.95 0.9 33.45 0.7 32.05 -3.4 34.4 -6.05 33.55 -6.7 32.9 -7.75 31.9 -9.5 30.35 -11.0 L27.0 -14.4 26.35 -15.15 Q22.9 -14.65 19.9 -16.55 18.35 -17.55 17.95 -19.15 L17.85 -19.9 18.55 -20.35 19.6 -20.95 19.95 -21.35 20.5 -22.0 Q20.5 -22.75 19.15 -24.45 L17.6 -26.5 17.2 -27.3 M19.65 -28.2 L23.05 -24.95 28.2 -20.1 Q31.05 -17.5 32.85 -16.5 32.8 -17.1 33.1 -17.55 33.7 -18.45 34.65 -17.9 L35.5 -17.55 37.1 -16.5 37.5 -15.4 Q37.5 -14.6 37.75 -13.9 L38.25 -12.85 Q38.7 -12.05 38.25 -11.25 L38.1 -10.9 Q36.65 -10.25 37.35 -7.85 L38.1 -4.85 38.5 -1.5 Q38.6 0.65 36.75 1.1 L36.75 1.75 37.3 2.15 37.6 2.5 37.75 2.85 37.75 3.25 37.7 3.6 37.6 4.0 37.25 4.75 37.1 5.1 Q38.2 6.95 38.35 9.0 L38.6 8.55 39.6 7.35 Q39.9 7.05 40.3 6.85 40.4 6.75 40.6 6.75 41.5 7.4 41.0 8.4 L39.8 9.55 Q38.9 10.0 38.35 9.35 38.35 11.05 37.7 12.85 36.3 16.5 33.95 19.8 L33.1 20.9 32.9 21.15 31.95 22.1 32.55 21.8 Q35.3 20.4 37.0 18.0 39.25 21.25 34.9 24.4 32.0 26.55 28.75 28.05 L27.9 28.5 27.0 29.35 23.75 31.75 23.5 32.15 23.6 32.5 23.7 32.85 23.75 33.6 23.75 34.0 Q23.35 35.4 21.95 36.05 19.5 37.15 16.75 37.5 15.8 39.15 13.85 39.8 L7.6 41.5 7.7 41.85 7.7 42.2 7.45 42.6 7.1 43.0 Q3.65 42.25 1.55 43.9 L1.0 44.25 Q-6.75 41.9 -14.0 39.1 -19.7 36.9 -23.05 32.55 L-23.15 32.45 -23.75 32.0 -23.55 32.75 -23.4 33.5 -23.4 34.25 -23.5 34.95 -23.75 35.75 Q-27.15 35.0 -29.3 31.4 L-33.4 24.1 -35.25 19.75 -35.7 20.45 -36.15 21.6 -36.5 22.35 Q-36.8 23.05 -37.5 23.1 -38.5 23.05 -38.6 22.1 L-38.65 21.0 -38.85 20.0 -39.65 19.1 Q-39.9 17.55 -39.35 16.1 L-38.15 12.8 Q-37.6 11.05 -37.4 9.0 L-37.0 8.35 -35.95 8.6 -35.5 8.8 -34.8 8.9 -34.65 8.75 Q-35.3 5.2 -35.25 1.25 L-35.05 -2.1 -35.25 -2.15 -35.65 -2.4 -35.75 -3.15 -35.75 -3.5 -35.45 -4.85 -35.0 -6.1 -34.5 -7.6 Q-34.3 -8.15 -34.25 -8.75 L-33.75 -9.9 -33.8 -10.1 -34.0 -10.25 -34.75 -10.55 -35.15 -10.9 -35.5 -11.25 -35.7 -12.0 -35.8 -12.75 Q-35.95 -15.1 -35.1 -17.1 -33.4 -21.05 -29.45 -22.85 -25.75 -24.5 -23.45 -27.7 L-23.0 -28.5 -21.9 -29.25 -21.3 -29.65 Q-18.9 -31.5 -16.1 -32.55 -10.65 -34.6 -4.75 -34.5 L-4.3 -34.9 -4.0 -35.25 -3.75 -35.5 -3.5 -35.6 -3.05 -35.7 -3.0 -35.75 -0.3 -35.8 Q4.8 -36.55 8.9 -35.05 13.15 -33.5 17.25 -31.4 19.5 -30.25 19.65 -28.2 M3.0 -16.15 L5.15 -15.1 Q6.35 -14.45 7.05 -13.4 L7.35 -13.0 Q6.25 -11.95 4.65 -12.7 2.7 -13.6 0.45 -13.5 -1.05 -13.45 -2.35 -14.6 L-2.5 -14.9 -2.45 -15.25 -2.25 -15.6 -2.0 -15.8 -0.4 -16.25 0.45 -16.55 0.5 -16.65 3.0 -16.15 M31.7 5.75 L32.0 6.0 31.7 6.3 31.15 6.75 30.75 7.1 30.35 7.5 30.1 7.85 Q28.7 8.2 27.3 7.25 26.8 6.9 26.8 6.25 26.8 5.6 27.3 5.2 L28.0 4.85 29.0 5.0 30.1 5.25 30.5 5.35 31.7 5.75 M17.5 2.1 Q18.7 1.95 18.85 3.1 18.95 4.15 18.55 5.0 18.0 6.1 16.95 5.9 L16.5 5.85 Q15.55 5.75 15.55 4.85 15.55 4.05 15.85 3.25 16.2 2.45 17.0 2.25 L17.5 2.1 M0.45 24.15 L-0.5 24.15 -2.15 23.6 -2.05 23.3 -1.65 22.9 -1.0 22.5 -0.5 22.25 -0.4 22.25 Q0.45 22.65 0.95 23.35 1.4 24.0 0.45 24.15 M-24.0 -22.15 Q-25.5 -21.95 -26.6 -20.95 L-28.55 -19.35 Q-29.15 -18.85 -30.0 -18.8 L-31.4 -18.75 -32.2 -17.65 -33.0 -16.55 Q-33.35 -16.0 -33.3 -15.4 L-33.25 -13.9 -33.25 -13.5 Q-31.4 -14.3 -30.25 -16.2 -29.05 -18.1 -27.15 -19.3 -24.65 -20.85 -24.0 -22.15 M-13.4 -6.15 Q-12.95 -5.4 -13.25 -4.65 -13.6 -3.7 -14.5 -3.55 -15.45 -3.4 -15.95 -4.2 L-16.0 -4.5 Q-16.05 -5.2 -15.35 -5.6 L-14.5 -5.95 -13.5 -6.1 -13.4 -6.15 M-17.25 15.5 L-16.3 15.8 Q-16.0 15.85 -15.85 16.05 L-15.35 16.75 -15.25 17.1 Q-15.65 17.45 -16.05 17.5 -17.3 17.7 -17.85 16.45 L-17.95 15.8 Q-17.8 15.35 -17.25 15.5 M-34.9 11.5 Q-35.15 12.05 -34.75 12.45 -34.0 13.15 -34.3 12.25 -34.45 11.65 -34.9 11.45 L-34.9 11.5" fill="#ffffff" fill-rule="evenodd" stroke="none"/>
  </g>
</svg>
