<?xml version="1.0" encoding="UTF-8" standalone="no"?>
<svg xmlns:xlink="http://www.w3.org/1999/xlink" height="75.55px" width="79.2px" xmlns="http://www.w3.org/2000/svg">
  <g transform="matrix(1.0, 0.0, 0.0, 1.0, 40.2, 33.75)">
    <path d="M7.25 -33.3 L9.45 -32.35 Q10.55 -31.95 11.0 -30.95 L11.0 -30.65 10.4 -30.25 Q10.7 -29.4 11.65 -28.7 12.25 -28.25 12.0 -27.65 10.25 -25.95 7.95 -27.5 6.6 -28.45 4.9 -28.85 3.35 -29.2 2.1 -30.15 L2.3 -30.75 3.4 -32.25 4.35 -33.4 Q4.6 -33.65 5.0 -33.75 L7.25 -33.3 M20.1 -25.15 L21.65 -24.15 23.1 -22.4 23.25 -22.15 23.5 -22.15 23.95 -22.15 24.6 -22.0 27.1 -18.2 30.35 -13.65 33.6 -9.15 33.75 -8.65 34.15 -10.2 34.25 -12.15 Q34.05 -13.55 34.3 -14.8 34.55 -16.35 36.0 -16.75 37.75 -15.95 37.6 -13.85 L37.15 -10.8 Q36.8 -9.15 36.8 -7.5 36.8 -6.2 35.85 -5.25 L34.9 -5.15 34.4 -4.05 33.95 -2.95 Q33.55 -2.0 32.5 -1.9 30.75 -3.6 30.45 -6.6 30.15 -9.65 28.5 -12.35 26.45 -15.55 23.8 -17.55 L23.0 -18.25 22.8 -18.2 22.45 -17.9 22.05 -17.55 21.5 -17.25 Q20.55 -17.45 19.8 -18.0 L18.05 -19.6 Q17.3 -20.5 16.7 -21.5 L16.25 -22.25 Q16.05 -22.95 16.55 -23.45 16.95 -23.85 16.8 -24.5 16.65 -25.1 16.95 -25.55 17.4 -26.15 18.0 -26.25 L20.1 -25.15 M33.0 11.05 L34.0 10.9 34.25 10.85 Q35.05 11.5 34.6 12.5 34.2 13.45 33.0 13.35 31.8 13.25 32.0 12.1 32.1 11.75 32.35 11.45 32.6 11.2 33.0 11.05 M39.0 2.4 Q39.1 3.8 37.65 3.3 35.8 2.6 36.95 1.35 L37.5 1.0 Q38.9 0.95 39.0 2.4 M29.0 19.35 Q29.9 19.2 30.4 19.95 30.8 20.5 30.25 21.0 29.45 21.8 30.55 22.1 L31.0 22.35 Q31.75 22.4 32.4 21.8 L33.4 20.75 Q33.8 20.3 34.45 20.4 L35.1 20.6 35.5 21.4 35.55 22.1 35.4 22.8 34.85 23.6 35.1 24.0 35.2 24.35 35.25 24.75 35.25 25.1 Q34.15 26.9 32.15 27.8 30.65 28.5 29.2 29.45 L26.5 31.1 Q25.5 31.5 24.65 30.9 24.25 30.6 23.5 30.65 22.45 30.65 22.25 29.75 L22.25 29.35 22.3 29.05 22.55 28.6 22.6 28.0 22.25 28.0 Q21.65 28.2 21.2 28.5 L19.75 29.0 18.25 28.6 22.6 25.2 Q24.75 23.6 26.35 21.4 27.45 19.9 29.0 19.35 M10.25 35.6 Q10.5 36.75 9.55 37.4 7.9 38.45 6.0 39.1 L4.8 39.25 Q3.2 40.1 1.35 40.45 L-3.7 41.45 Q-8.2 42.5 -12.15 40.5 L-12.55 39.7 -12.8 39.0 -12.85 38.6 -12.85 38.25 -12.75 37.9 -12.45 37.6 -11.75 37.35 Q-9.6 39.85 -5.95 38.95 L-0.3 37.95 Q1.65 37.75 3.3 38.0 L3.4 37.6 4.0 36.9 4.7 36.15 5.05 35.5 5.25 35.1 11.25 33.05 Q13.0 32.35 14.55 31.15 15.25 30.55 16.1 30.35 L14.4 32.45 12.45 33.85 Q11.35 34.5 10.3 35.35 L10.25 35.6 M-12.05 -29.9 Q-12.95 -28.85 -14.2 -28.25 -15.85 -27.45 -16.4 -29.15 L-16.35 -30.25 Q-16.25 -30.95 -15.5 -30.95 -14.0 -30.95 -13.0 -31.5 -10.75 -31.35 -12.05 -29.9 M-22.0 -26.15 Q-19.1 -25.15 -22.1 -23.0 L-25.9 -20.05 Q-27.95 -18.35 -28.95 -16.4 L-28.9 -16.15 -29.5 -16.2 -30.55 -16.45 Q-31.5 -16.65 -31.5 -17.5 -31.0 -19.6 -29.25 -21.15 L-25.85 -23.8 Q-24.0 -25.1 -22.05 -26.05 L-22.0 -26.15 M-31.0 -12.0 Q-28.6 -11.55 -30.15 -9.55 -31.45 -7.9 -32.15 -6.0 -33.05 -3.5 -35.15 -4.25 L-35.45 -4.65 -35.45 -5.0 -35.1 -5.75 -34.5 -6.5 -34.6 -6.9 -34.65 -7.25 -34.6 -7.65 -34.5 -8.0 -33.65 -9.25 -32.65 -10.65 -31.6 -11.7 -31.0 -12.0 M-34.15 5.2 Q-34.65 5.6 -34.8 6.25 -35.05 7.05 -36.0 6.8 L-36.65 6.6 -36.75 5.9 -36.55 5.1 -36.2 4.4 Q-35.8 3.7 -35.0 3.75 L-34.75 3.75 -34.15 4.0 Q-33.75 4.1 -33.45 4.35 L-33.25 4.6 Q-33.75 4.85 -34.15 5.2 M-35.45 9.65 L-34.0 8.25 -33.9 8.25 Q-33.6 8.85 -34.1 9.4 L-34.6 10.45 -34.95 11.65 -35.15 12.35 -34.9 12.2 -34.2 11.7 -33.5 11.45 -32.5 11.35 Q-31.7 11.55 -31.3 12.35 L-30.45 13.55 -30.25 13.85 -30.1 16.45 -29.45 19.4 Q-29.1 20.35 -29.05 21.35 L-28.9 22.5 Q-27.25 23.55 -26.45 25.4 L-25.05 28.3 Q-24.5 29.45 -24.3 30.6 -24.15 31.2 -24.5 31.75 -25.05 32.9 -25.85 31.9 L-26.8 30.2 Q-27.25 29.1 -27.5 29.85 L-28.1 30.25 -29.2 30.2 -30.0 29.6 -30.45 27.4 -31.15 24.8 -31.55 22.85 -31.65 22.1 -32.0 21.7 -33.25 21.35 -33.65 21.1 Q-34.5 20.4 -34.4 19.25 L-34.0 17.4 Q-33.6 16.35 -33.75 15.1 L-34.6 16.9 -35.75 19.55 Q-36.2 20.5 -37.05 21.05 L-37.5 21.25 Q-38.55 21.15 -38.7 20.25 L-38.7 18.75 Q-38.55 17.95 -38.75 17.25 -40.65 16.8 -40.05 15.0 -39.55 13.35 -38.0 12.9 L-37.0 12.6 Q-36.95 11.8 -36.5 11.1 L-35.45 9.65" fill="#ffffff" fill-rule="evenodd" stroke="none"/>
  </g>
</svg>
