<?xml version="1.0" encoding="UTF-8" standalone="no"?>
<svg xmlns:xlink="http://www.w3.org/1999/xlink" height="19.85px" width="18.7px" xmlns="http://www.w3.org/2000/svg">
  <g transform="matrix(1.0, 0.0, 0.0, 1.0, 10.85, 9.75)">
    <path d="M4.0 -7.25 Q5.15 -6.05 5.8 -4.5 L6.1 -4.25 6.4 -3.1 6.45 -3.0 6.5 -3.25 Q6.65 -3.65 7.0 -3.65 L7.1 -3.65 Q7.7 -2.95 7.3 -2.25 L7.05 -1.5 Q7.5 -0.8 7.2 0.0 L7.85 0.5 7.5 0.7 6.85 0.65 6.6 1.0 6.45 1.2 6.05 1.25 5.3 0.65 5.05 0.0 4.85 -0.4 3.0 -1.7 Q1.8 -2.65 1.15 -3.95 0.8 -4.7 1.45 -5.15 L2.0 -5.5 3.05 -5.1 3.9 -4.55 4.6 -3.55 4.7 -3.7 Q3.5 -5.4 1.95 -6.7 -1.7 -9.7 -4.75 -6.4 L-7.35 -6.55 -7.7 -6.8 -7.75 -7.15 -7.5 -7.45 -6.5 -8.25 -4.5 -9.2 -3.05 -9.7 -3.0 -9.75 0.55 -9.2 Q2.5 -8.8 4.0 -7.25 M-8.4 -5.3 Q-8.25 -5.0 -8.4 -4.95 -9.0 -4.65 -9.55 -4.95 -10.2 -5.4 -9.5 -5.75 -8.65 -5.9 -8.4 -5.3 M-8.0 -1.9 L-7.25 -2.15 -6.05 0.25 Q-5.35 1.6 -5.55 3.15 -5.7 4.45 -5.4 5.75 -3.6 6.4 -2.25 7.55 L1.6 10.1 Q-1.2 10.2 -3.4 8.8 -4.7 8.0 -6.15 7.25 -6.75 6.85 -6.75 6.1 L-6.95 4.95 Q-7.2 4.1 -7.2 4.5 L-7.25 5.25 Q-7.5 6.7 -8.75 5.7 L-9.75 4.7 Q-10.0 4.35 -10.65 4.35 L-10.85 3.25 -10.55 2.2 Q-10.2 1.65 -10.25 1.0 L-10.25 0.25 Q-9.45 -0.25 -9.05 -1.05 L-8.0 -1.9" fill="#ffffff" fill-rule="evenodd" stroke="none"/>
    <path d="M0.4 2.85 Q-1.05 3.15 -2.05 1.8 -4.35 -1.55 -1.0 -3.7 3.15 -3.1 2.15 1.0 1.8 2.5 0.4 2.85" fill="#ffffff" fill-rule="evenodd" stroke="none"/>
  </g>
</svg>
