<?xml version="1.0" encoding="UTF-8" standalone="no"?>
<svg xmlns:xlink="http://www.w3.org/1999/xlink" height="16.1px" width="16.8px" xmlns="http://www.w3.org/2000/svg">
  <g transform="matrix(1.0, 0.0, 0.0, 1.0, 10.6, 9.65)">
    <path d="M-10.6 3.7 L-10.6 3.65 -10.55 3.65 -10.6 3.7" fill="url(#gradient0)" fill-rule="evenodd" stroke="none"/>
    <path d="M4.25 -4.25 L4.2 -3.55 4.15 -3.55 Q-1.85 1.4 -10.25 0.9 L-10.5 0.9 -8.45 -0.6 Q-1.75 -0.65 4.25 -4.25" fill="url(#gradient1)" fill-rule="evenodd" stroke="none"/>
    <path d="M4.2 -3.55 L5.15 -2.05 5.15 -2.0 Q0.7 3.65 -10.55 3.65 L-10.25 0.9 Q-1.85 1.4 4.15 -3.55 L4.2 -3.55" fill="url(#gradient2)" fill-rule="evenodd" stroke="none"/>
    <path d="M5.15 -2.0 L5.2 -2.1 6.2 -1.2 Q5.55 3.05 2.35 4.75 -4.5 6.8 -9.3 6.35 L-10.6 3.7 -10.55 3.65 Q0.7 3.65 5.15 -2.0" fill="url(#gradient3)" fill-rule="evenodd" stroke="none"/>
    <path d="M-8.45 -0.6 Q-7.65 -3.9 -3.85 -7.55 -0.25 -7.6 3.2 -9.65 L4.5 -7.8 4.1 -4.75 4.25 -4.25 Q-1.75 -0.65 -8.45 -0.6" fill="url(#gradient4)" fill-rule="evenodd" stroke="none"/>
    <path d="M-8.45 -0.6 Q-7.65 -3.9 -3.85 -7.55 -0.25 -7.6 3.2 -9.65 L4.5 -7.8 4.1 -4.75 4.25 -4.25 4.2 -3.55 5.15 -2.05 5.15 -2.0 M5.2 -2.1 L6.2 -1.2 Q5.55 3.05 2.35 4.75 -4.5 6.8 -9.3 6.35 L-10.6 3.7 -10.6 3.65 M-10.55 3.65 L-10.25 0.9 M-10.5 0.9 L-8.45 -0.6 M4.2 -3.55 L4.15 -3.55" fill="none" stroke="#000000" stroke-linecap="round" stroke-linejoin="round" stroke-width="0.05"/>
  </g>
  <defs>
    <radialGradient cx="0" cy="0" gradientTransform="matrix(0.0189, 0.0, 0.0, 0.0189, -7.7, 4.8)" gradientUnits="userSpaceOnUse" id="gradient0" r="819.2" spreadMethod="pad">
      <stop offset="0.0" stop-color="#c4cbd5"/>
      <stop offset="0.40784313725490196" stop-color="#58647c"/>
      <stop offset="0.4588235294117647" stop-color="#4a5468"/>
      <stop offset="0.48627450980392156" stop-color="#6c7893"/>
      <stop offset="1.0" stop-color="#2d2637"/>
    </radialGradient>
    <radialGradient cx="0" cy="0" gradientTransform="matrix(0.0117, 0.0, 0.0, 0.0117, -4.1, -0.6)" gradientUnits="userSpaceOnUse" id="gradient1" r="819.2" spreadMethod="pad">
      <stop offset="0.0" stop-color="#78d0f5"/>
      <stop offset="0.5333333333333333" stop-color="#405bc8"/>
      <stop offset="0.9176470588235294" stop-color="#7eacef"/>
    </radialGradient>
    <radialGradient cx="0" cy="0" gradientTransform="matrix(0.0151, 0.0, 0.0, 0.0151, 1.2, -0.2)" gradientUnits="userSpaceOnUse" id="gradient2" r="819.2" spreadMethod="pad">
      <stop offset="0.0" stop-color="#78d0f5"/>
      <stop offset="0.5333333333333333" stop-color="#405bc8"/>
      <stop offset="0.9176470588235294" stop-color="#7eacef"/>
    </radialGradient>
    <radialGradient cx="0" cy="0" gradientTransform="matrix(0.0189, 0.0, 0.0, 0.0189, -7.7, 4.8)" gradientUnits="userSpaceOnUse" id="gradient3" r="819.2" spreadMethod="pad">
      <stop offset="0.0" stop-color="#8395a7"/>
      <stop offset="0.40784313725490196" stop-color="#323a45"/>
      <stop offset="0.4588235294117647" stop-color="#272e36"/>
      <stop offset="0.5019607843137255" stop-color="#3e4453"/>
      <stop offset="1.0" stop-color="#1f1c28"/>
    </radialGradient>
    <radialGradient cx="0" cy="0" gradientTransform="matrix(0.0146, 0.0, 0.0, 0.0117, -3.95, -7.3)" gradientUnits="userSpaceOnUse" id="gradient4" r="819.2" spreadMethod="pad">
      <stop offset="0.0" stop-color="#ffffff"/>
      <stop offset="1.0" stop-color="#8e9ab5"/>
    </radialGradient>
  </defs>
</svg>
