<?xml version="1.0" encoding="UTF-8" standalone="no"?>
<svg xmlns:xlink="http://www.w3.org/1999/xlink" height="31.35px" width="14.35px" xmlns="http://www.w3.org/2000/svg">
  <g transform="matrix(1.0, 0.0, 0.0, 1.0, 7.05, 15.6)">
    <path d="M2.3 -15.2 L3.85 -11.35 4.65 -5.5 4.05 -4.65 3.0 -0.15 2.85 4.95 1.6 13.4 -0.05 13.65 Q-2.05 0.4 -2.0 -14.55 0.3 -13.95 2.3 -15.2" fill="url(#gradient0)" fill-rule="evenodd" stroke="none"/>
    <path d="M1.6 13.4 L0.15 14.95 -0.05 13.65 1.6 13.4" fill="url(#gradient1)" fill-rule="evenodd" stroke="none"/>
    <path d="M0.15 14.95 L-0.1 15.2 -3.55 13.15 -3.7 0.5 -4.6 -4.9 -3.1 -14.5 -3.1 -14.55 -2.75 -14.8 -2.0 -14.55 Q-2.05 0.4 -0.05 13.65 L0.15 14.95" fill="url(#gradient2)" fill-rule="evenodd" stroke="none"/>
    <path d="M2.3 -15.2 L3.85 -11.35 4.65 -5.5 4.05 -4.65 3.0 -0.15 2.85 4.95 1.6 13.4 M-3.55 13.15 L-3.7 0.5 -4.6 -4.9 -3.1 -14.5 -3.1 -14.55 -2.75 -14.8" fill="none" stroke="#000000" stroke-linecap="round" stroke-linejoin="round" stroke-width="0.05"/>
    <path d="M-6.0 6.7 L-6.05 6.6 -5.9 6.65 -6.0 6.7 M-6.95 -6.15 L-6.9 -6.15 -6.95 -6.05 -6.95 -6.15 -7.0 -6.15 -6.95 -6.15" fill="#ffffff" fill-rule="evenodd" stroke="none"/>
    <path d="M-7.0 -6.15 L-6.9 -6.15 -6.95 -6.15 -7.0 -6.15" fill="url(#gradient3)" fill-rule="evenodd" stroke="none"/>
    <path d="M-7.0 -6.15 Q-4.65 -10.25 -3.5 -15.6 0.45 -14.75 3.9 -15.6 4.6 -10.8 7.2 -5.3 -0.4 -4.8 -6.9 -6.15 L-7.0 -6.15" fill="url(#gradient4)" fill-rule="evenodd" stroke="none"/>
    <path d="M5.2 7.15 Q2.95 10.05 3.0 13.2 L-0.05 15.75 -4.35 12.5 Q-4.55 10.0 -6.0 6.7 L-5.9 6.65 Q0.15 8.85 5.2 7.15" fill="url(#gradient5)" fill-rule="evenodd" stroke="none"/>
    <path d="M7.2 -5.3 L7.3 -5.2 Q4.75 -3.85 4.3 -2.55 L2.8 2.6 5.2 7.1 5.2 7.15 Q0.15 8.85 -5.9 6.65 L-3.8 1.9 -5.25 -3.55 -6.95 -6.05 -6.9 -6.15 Q-0.4 -4.8 7.2 -5.3" fill="url(#gradient6)" fill-rule="evenodd" stroke="none"/>
    <path d="M-7.0 -6.15 Q-4.65 -10.25 -3.5 -15.6 0.45 -14.75 3.9 -15.6 4.6 -10.8 7.2 -5.3 L7.3 -5.2 Q4.75 -3.85 4.3 -2.55 L2.8 2.6 5.2 7.1 5.2 7.15 Q0.15 8.85 -5.9 6.65 L-3.8 1.9 -5.25 -3.55 -6.95 -6.05 Q-7.15 -6.05 -7.0 -6.15 L-6.95 -6.15 -6.9 -6.15 Q-0.4 -4.8 7.2 -5.3 M-4.35 12.5 Q-4.55 10.0 -6.0 6.7 L-6.05 6.6 -5.9 6.65" fill="none" stroke="#000000" stroke-linecap="round" stroke-linejoin="round" stroke-width="0.05"/>
  </g>
  <defs>
    <radialGradient cx="0" cy="0" gradientTransform="matrix(0.006, 0.0, 0.0, 0.0248, 1.6, -8.65)" gradientUnits="userSpaceOnUse" id="gradient0" r="819.2" spreadMethod="pad">
      <stop offset="0.0" stop-color="#605368"/>
      <stop offset="0.6" stop-color="#3e282d"/>
      <stop offset="1.0" stop-color="#222944"/>
    </radialGradient>
    <radialGradient cx="0" cy="0" gradientTransform="matrix(0.006, 0.0, 0.0, 0.0248, 1.6, -8.65)" gradientUnits="userSpaceOnUse" id="gradient1" r="819.2" spreadMethod="pad">
      <stop offset="0.0" stop-color="#63407b"/>
      <stop offset="0.6196078431372549" stop-color="#3e283c"/>
      <stop offset="0.9803921568627451" stop-color="#3f2728"/>
    </radialGradient>
    <radialGradient cx="0" cy="0" gradientTransform="matrix(0.008, 0.0, 0.0, 0.0211, -5.75, -1.05)" gradientUnits="userSpaceOnUse" id="gradient2" r="819.2" spreadMethod="pad">
      <stop offset="0.0" stop-color="#372648"/>
      <stop offset="0.6196078431372549" stop-color="#140e14"/>
      <stop offset="1.0" stop-color="#282244"/>
    </radialGradient>
    <radialGradient cx="0" cy="0" gradientTransform="matrix(0.0109, 0.0, 0.0, 0.0109, 0.35, -7.95)" gradientUnits="userSpaceOnUse" id="gradient3" r="819.2" spreadMethod="pad">
      <stop offset="0.0" stop-color="#ffffff"/>
      <stop offset="1.0" stop-color="#bca287"/>
    </radialGradient>
    <radialGradient cx="0" cy="0" gradientTransform="matrix(0.0139, 0.0, 0.0, 0.0139, 0.95, -14.25)" gradientUnits="userSpaceOnUse" id="gradient4" r="819.2" spreadMethod="pad">
      <stop offset="0.0" stop-color="#5f564b"/>
      <stop offset="1.0" stop-color="#4d372b"/>
    </radialGradient>
    <radialGradient cx="0" cy="0" gradientTransform="matrix(0.0082, 0.0, 0.0, 0.0082, -0.65, 10.5)" gradientUnits="userSpaceOnUse" id="gradient5" r="819.2" spreadMethod="pad">
      <stop offset="0.0" stop-color="#a83e3e"/>
      <stop offset="1.0" stop-color="#442222"/>
    </radialGradient>
    <radialGradient cx="0" cy="0" gradientTransform="matrix(0.019, 0.0, 0.0, 0.019, -1.5, 7.6)" gradientUnits="userSpaceOnUse" id="gradient6" r="819.2" spreadMethod="pad">
      <stop offset="0.0" stop-color="#f5cb23"/>
      <stop offset="1.0" stop-color="#c73916"/>
    </radialGradient>
  </defs>
</svg>
