<?xml version="1.0" encoding="UTF-8" standalone="no"?>
<svg xmlns:xlink="http://www.w3.org/1999/xlink" height="33.65px" width="18.55px" xmlns="http://www.w3.org/2000/svg">
  <g transform="matrix(1.0, 0.0, 0.0, 1.0, 9.9, 16.4)">
    <path d="M-5.1 4.45 L-5.1 4.4 -4.95 4.45 -5.1 4.45" fill="url(#gradient0)" fill-rule="evenodd" stroke="none"/>
    <path d="M-5.85 -4.35 L-6.4 -5.55 -6.15 -5.6 -5.85 -4.35" fill="#333333" fill-rule="evenodd" stroke="none"/>
    <path d="M-6.2 -5.7 L-6.25 -5.7 -6.3 -5.7 -6.2 -5.7" fill="url(#gradient1)" fill-rule="evenodd" stroke="none"/>
    <path d="M3.35 -12.35 L-1.75 -14.1 -0.05 -16.4 4.4 -13.1 3.35 -12.35" fill="url(#gradient2)" fill-rule="evenodd" stroke="none"/>
    <path d="M3.35 -12.35 L5.4 -11.5 6.45 -9.5 5.2 -6.05 -1.9 -12.15 -1.9 -12.65 -1.95 -14.05 -1.75 -14.1 3.35 -12.35" fill="url(#gradient3)" fill-rule="evenodd" stroke="none"/>
    <path d="M-1.95 -14.05 L-1.9 -12.65 -1.9 -12.15 5.2 -6.05 6.45 -9.5 7.4 -7.8 7.75 -4.2 7.3 -3.3 7.1 -2.95 6.75 -2.1 6.55 -1.65 4.95 5.05 -4.95 4.45 -4.95 4.4 Q-4.6 -0.75 -5.85 -4.35 L-6.15 -5.6 -6.2 -5.7 -6.3 -5.7 -9.9 -7.8 Q-9.9 -11.6 -5.2 -13.65 L-1.95 -14.05 M5.7 10.05 L5.8 10.05 5.95 13.05 2.15 16.45 -5.0 12.6 -4.7 8.75 5.7 10.05" fill="#0f0e14" fill-rule="evenodd" stroke="none"/>
    <path d="M4.95 5.05 L5.0 5.05 Q5.75 7.0 5.8 8.8 L5.7 10.05 -4.7 8.75 -5.1 4.45 -4.95 4.45 4.95 5.05" fill="url(#gradient4)" fill-rule="evenodd" stroke="none"/>
    <path d="M6.45 -9.5 L5.4 -11.5 3.35 -12.35 -1.75 -14.1 -1.95 -14.05 -1.9 -12.65 -1.9 -12.15 5.2 -6.05 6.45 -9.5 7.4 -7.8 7.75 -4.2 7.3 -3.3 7.1 -2.95 6.75 -2.1 6.55 -1.65 4.95 5.05 5.0 5.05 Q5.75 7.0 5.8 8.8 L5.7 10.05 5.8 10.05 5.95 13.05 M-5.0 12.6 L-4.7 8.75 -5.1 4.45 -5.1 4.4 -4.95 4.45 -4.95 4.4 Q-4.6 -0.75 -5.85 -4.35 L-6.15 -5.6 -6.2 -5.7 -6.25 -5.7 -6.3 -5.7 -9.9 -7.8 Q-9.9 -11.6 -5.2 -13.65 L-1.95 -14.05 M3.35 -12.35 L4.4 -13.1 -0.05 -16.4 -1.75 -14.1 M4.95 5.05 L-4.95 4.45 M5.7 10.05 L-4.7 8.75" fill="none" stroke="#000000" stroke-linecap="round" stroke-linejoin="round" stroke-width="0.05"/>
    <path d="M-4.4 -8.25 L-4.3 -8.5 -4.25 -8.45 -4.4 -8.25" fill="#686564" fill-rule="evenodd" stroke="none"/>
    <path d="M0.6 1.3 Q-2.15 0.95 -4.95 2.35 L-5.1 2.35 Q-4.7 -0.8 -5.9 -4.1 L-4.0 -6.7 -3.75 -5.75 -0.1 -2.85 0.6 1.3" fill="url(#gradient5)" fill-rule="evenodd" stroke="none"/>
    <path d="M1.15 3.25 L0.9 3.1 0.6 1.3 -0.1 -2.85 -3.75 -5.75 -4.0 -6.7 -4.4 -8.25 -4.25 -8.45 5.1 -1.85 5.15 -1.8 4.8 4.65 4.55 5.0 1.15 3.25" fill="url(#gradient6)" fill-rule="evenodd" stroke="none"/>
    <path d="M-4.3 -8.5 L-3.55 -11.8 1.7 -7.15 5.25 -4.75 6.6 -6.85 7.55 -9.2 8.5 -5.55 5.1 -1.85 -4.25 -8.45 -4.3 -8.5" fill="#a7aebe" fill-rule="evenodd" stroke="none"/>
    <path d="M8.5 -5.55 L8.65 -4.95 8.65 -3.6 7.05 -1.35 5.8 3.35 5.3 4.0 4.8 4.65 5.15 -1.8 5.1 -1.85 8.5 -5.55" fill="#22222b" fill-rule="evenodd" stroke="none"/>
    <path d="M5.3 4.0 Q6.45 8.75 6.45 13.0 L2.5 17.25 -0.1 15.1 -0.1 7.4 1.15 3.25 4.55 5.0 4.8 4.65 5.3 4.0" fill="url(#gradient7)" fill-rule="evenodd" stroke="none"/>
    <path d="M-4.3 -8.5 L-3.55 -11.8 1.7 -7.15 5.25 -4.75 6.6 -6.85 7.55 -9.2 8.5 -5.55 8.65 -4.95 8.65 -3.6 7.05 -1.35 5.8 3.35 5.3 4.0 Q6.45 8.75 6.45 13.0 L2.5 17.25 -0.1 15.1 -0.1 7.4 1.15 3.25 0.9 3.1 0.6 1.3 Q-2.15 0.95 -4.95 2.35 L-5.1 2.35 Q-4.7 -0.8 -5.9 -4.1 L-4.0 -6.7 -4.4 -8.25 -4.3 -8.5 M4.8 4.65 L5.3 4.0 M0.6 1.3 L-0.1 -2.85 -3.75 -5.75 -4.0 -6.7 M4.8 4.65 L4.55 5.0 1.15 3.25" fill="none" stroke="#000000" stroke-linecap="round" stroke-linejoin="round" stroke-width="0.05"/>
  </g>
  <defs>
    <radialGradient cx="0" cy="0" gradientTransform="matrix(0.0103, 4.0E-4, -5.0E-4, 0.0101, 3.05, 6.65)" gradientUnits="userSpaceOnUse" id="gradient0" r="819.2" spreadMethod="pad">
      <stop offset="0.0" stop-color="#a89786"/>
      <stop offset="1.0" stop-color="#484037"/>
    </radialGradient>
    <radialGradient cx="0" cy="0" gradientTransform="matrix(0.0077, 0.0, 0.0, 0.0077, -4.5, -11.0)" gradientUnits="userSpaceOnUse" id="gradient1" r="819.2" spreadMethod="pad">
      <stop offset="0.0" stop-color="#454545"/>
      <stop offset="1.0" stop-color="#1b1b1b"/>
    </radialGradient>
    <radialGradient cx="0" cy="0" gradientTransform="matrix(0.005, 0.0, 0.0, 0.005, 0.95, -15.3)" gradientUnits="userSpaceOnUse" id="gradient2" r="819.2" spreadMethod="pad">
      <stop offset="0.0" stop-color="#39273f"/>
      <stop offset="0.5333333333333333" stop-color="#100a0f"/>
      <stop offset="0.9176470588235294" stop-color="#413d6d"/>
    </radialGradient>
    <radialGradient cx="0" cy="0" gradientTransform="matrix(0.0087, 0.0, 0.0, 0.0087, 3.75, -13.05)" gradientUnits="userSpaceOnUse" id="gradient3" r="819.2" spreadMethod="pad">
      <stop offset="0.0" stop-color="#39273f"/>
      <stop offset="0.5333333333333333" stop-color="#100a0f"/>
      <stop offset="0.9176470588235294" stop-color="#413d6d"/>
    </radialGradient>
    <radialGradient cx="0" cy="0" gradientTransform="matrix(0.0095, 0.0, 0.0, 0.0095, -0.55, 5.7)" gradientUnits="userSpaceOnUse" id="gradient4" r="819.2" spreadMethod="pad">
      <stop offset="0.0" stop-color="#c4cbd5"/>
      <stop offset="0.40784313725490196" stop-color="#58647c"/>
      <stop offset="0.4588235294117647" stop-color="#4a5468"/>
      <stop offset="0.48627450980392156" stop-color="#6c7893"/>
      <stop offset="1.0" stop-color="#2d2637"/>
    </radialGradient>
    <radialGradient cx="0" cy="0" gradientTransform="matrix(0.0078, 0.0, 0.0, 0.0078, -0.65, -1.4)" gradientUnits="userSpaceOnUse" id="gradient5" r="819.2" spreadMethod="pad">
      <stop offset="0.0" stop-color="#39273f"/>
      <stop offset="0.5333333333333333" stop-color="#100a0f"/>
      <stop offset="0.9176470588235294" stop-color="#413d6d"/>
    </radialGradient>
    <radialGradient cx="0" cy="0" gradientTransform="matrix(0.0162, 0.0, 0.0, 0.0162, -2.65, -6.1)" gradientUnits="userSpaceOnUse" id="gradient6" r="819.2" spreadMethod="pad">
      <stop offset="0.0" stop-color="#c4cbd5"/>
      <stop offset="0.40784313725490196" stop-color="#58647c"/>
      <stop offset="0.4588235294117647" stop-color="#4a5468"/>
      <stop offset="0.48627450980392156" stop-color="#6c7893"/>
      <stop offset="1.0" stop-color="#2d2637"/>
    </radialGradient>
    <radialGradient cx="0" cy="0" gradientTransform="matrix(0.0133, 0.0, 0.0, 0.0133, 3.25, 6.4)" gradientUnits="userSpaceOnUse" id="gradient7" r="819.2" spreadMethod="pad">
      <stop offset="0.0" stop-color="#203346"/>
      <stop offset="0.5333333333333333" stop-color="#141427"/>
      <stop offset="0.9176470588235294" stop-color="#324178"/>
    </radialGradient>
  </defs>
</svg>
