<?xml version="1.0" encoding="UTF-8" standalone="no"?>
<svg xmlns:xlink="http://www.w3.org/1999/xlink" height="30.4px" width="9.3px" xmlns="http://www.w3.org/2000/svg">
  <g transform="matrix(1.0, 0.0, 0.0, 1.0, 4.6, 15.2)">
    <path d="M2.3 -15.2 L3.85 -11.35 4.65 -5.5 4.05 -4.65 3.0 -0.15 2.85 4.95 1.6 13.4 0.15 14.95 Q-2.05 1.1 -2.0 -14.55 0.3 -13.95 2.3 -15.2" fill="url(#gradient0)" fill-rule="evenodd" stroke="none"/>
    <path d="M0.15 14.95 L-0.1 15.2 -3.55 13.15 -3.7 0.5 -4.6 -4.9 -3.1 -14.5 -3.1 -14.55 -2.75 -14.8 -2.0 -14.55 Q-2.05 1.1 0.15 14.95" fill="url(#gradient1)" fill-rule="evenodd" stroke="none"/>
    <path d="M2.3 -15.2 L3.85 -11.35 4.65 -5.5 4.05 -4.65 3.0 -0.15 2.85 4.95 1.6 13.4 M-3.55 13.15 L-3.7 0.5 -4.6 -4.9 -3.1 -14.5 -3.1 -14.55 -2.75 -14.8" fill="none" stroke="#000000" stroke-linecap="round" stroke-linejoin="round" stroke-width="0.05"/>
    <path d="M1.1 -7.2 L2.7 -6.75 2.85 -6.75 3.65 -7.55 3.8 -7.45 3.9 -8.3 4.2 -8.4 4.45 -7.75 4.65 -7.5 4.55 -6.8 4.55 -6.1 4.7 -5.7 Q3.15 -2.0 3.15 0.2 3.25 0.35 2.85 0.35 L2.85 0.3 2.85 0.9 2.85 1.4 2.9 2.9 2.75 5.55 2.6 5.55 2.35 1.85 2.25 0.75 Q1.45 -1.25 0.6 -4.3 L-0.3 -8.15 -0.3 -8.2 -0.3 -8.25 -0.05 -8.85 0.05 -8.65 1.1 -7.15 1.1 -7.2 M3.75 -7.05 L3.75 -7.1 3.55 -6.85 3.75 -6.95 3.75 -7.05" fill="#000000" fill-opacity="0.3019608" fill-rule="evenodd" stroke="none"/>
    <path d="M2.1 -10.25 L2.0 -10.25 1.7 -10.0 1.75 -9.5 1.95 -9.35 1.9 -9.35 1.45 -9.6 1.45 -9.7 1.4 -9.8 1.4 -9.9 1.4 -9.95 1.5 -10.15 1.6 -10.25 1.7 -10.3 1.9 -10.35 2.1 -10.25 M2.4 -9.8 L2.4 -9.9 2.4 -9.8" fill="#000000" fill-opacity="0.5019608" fill-rule="evenodd" stroke="none"/>
    <path d="M1.0 -10.95 L1.0 -10.2 0.8 -10.05 0.5 -9.9 0.0 -9.8 -0.55 -10.05 -0.65 -10.15 -0.65 -10.25 Q-1.45 -11.0 -0.5 -11.65 L-0.1 -11.65 0.55 -11.5 1.0 -10.95 M2.1 -10.25 L2.35 -10.1 2.4 -9.9 2.4 -9.8 2.4 -9.75 2.25 -9.4 2.15 -9.35 1.95 -9.35 1.75 -9.5 1.7 -10.0 2.0 -10.25 2.1 -10.25 M2.75 -6.75 L3.05 -6.0 4.25 -6.65 Q5.15 -6.0 3.2 -5.1 L3.2 -5.05 3.25 -4.6 3.15 -3.65 Q2.55 -3.8 2.65 -4.65 L2.7 -4.8 Q1.9 -4.4 1.2 -3.8 L1.3 -3.4 1.45 -2.65 1.4 -2.6 Q0.85 -2.65 0.7 -3.3 L0.7 -3.35 -1.1 -1.2 -1.0 -1.0 -0.85 -0.1 Q-1.3 -0.15 -1.5 -0.55 L-1.95 0.3 -2.4 1.35 -2.25 1.65 Q-1.95 2.2 -2.1 2.7 -2.65 2.7 -2.8 2.2 L-3.6 3.9 Q-3.7 2.5 -3.15 1.15 L-3.3 1.0 Q-3.65 0.45 -3.35 0.0 L-3.25 -0.05 -2.9 0.45 -1.75 -1.5 -1.9 -1.85 -1.9 -2.6 -1.8 -2.65 -1.4 -2.0 -0.7 -2.85 0.5 -4.05 0.4 -4.35 Q0.2 -4.95 0.55 -5.15 L0.65 -5.1 0.75 -5.05 0.9 -5.0 0.95 -4.9 0.95 -4.5 2.6 -5.7 2.55 -5.85 Q2.4 -6.45 2.75 -6.7 L2.75 -6.75 M0.4 4.25 Q1.95 4.5 1.35 6.0 0.85 7.2 0.0 6.25 -0.95 5.1 0.25 4.35 L0.4 4.25 M-1.65 8.45 L-1.85 8.75 Q-2.3 8.95 -2.65 8.55 -3.0 8.2 -2.85 7.7 L-2.35 7.2 -2.0 7.2 -1.85 7.25 -1.7 7.45 -1.5 7.9 -1.65 8.45" fill="#000000" fill-opacity="0.6117647" fill-rule="evenodd" stroke="none"/>
  </g>
  <defs>
    <radialGradient cx="0" cy="0" gradientTransform="matrix(0.006, 0.0, 0.0, 0.0248, 1.65, -10.75)" gradientUnits="userSpaceOnUse" id="gradient0" r="819.2" spreadMethod="pad">
      <stop offset="0.11764705882352941" stop-color="#74a59a"/>
      <stop offset="0.6470588235294118" stop-color="#2d2d53"/>
      <stop offset="1.0" stop-color="#6dafef"/>
    </radialGradient>
    <radialGradient cx="0" cy="0" gradientTransform="matrix(0.0062, 0.0, 0.0, 0.0211, -5.45, -1.75)" gradientUnits="userSpaceOnUse" id="gradient1" r="819.2" spreadMethod="pad">
      <stop offset="0.11764705882352941" stop-color="#74a59a"/>
      <stop offset="0.6470588235294118" stop-color="#2d2d53"/>
      <stop offset="1.0" stop-color="#6dafef"/>
    </radialGradient>
  </defs>
</svg>
