<?xml version="1.0" encoding="UTF-8" standalone="no"?>
<svg xmlns:xlink="http://www.w3.org/1999/xlink" height="32.85px" width="19.85px" xmlns="http://www.w3.org/2000/svg">
  <g transform="matrix(1.0, 0.0, 0.0, 1.0, 9.9, 16.4)">
    <path d="M7.85 -7.65 L7.5 -6.95 7.4 -7.8 7.85 -7.65 M-5.85 -4.35 L-6.4 -5.55 -6.15 -5.6 -5.85 -4.35" fill="url(#gradient0)" fill-rule="evenodd" stroke="none"/>
    <path d="M5.7 10.05 L5.8 10.05 5.95 13.05 2.15 16.45 -5.0 12.6 -4.7 8.75 -2.3 9.05 5.7 10.05" fill="url(#gradient1)" fill-rule="evenodd" stroke="none"/>
    <path d="M-6.15 -5.6 L-6.2 -5.7 -6.25 -5.7 -9.9 -7.8 Q-9.9 -11.6 -5.2 -13.65 L-1.95 -14.05 -1.9 -12.65 -1.9 -12.15 Q-1.95 -10.55 -2.4 -9.3 -3.4 -6.7 -6.15 -5.6" fill="url(#gradient2)" fill-rule="evenodd" stroke="none"/>
    <path d="M4.4 -13.1 L4.65 -13.1 Q9.15 -11.95 9.95 -9.1 L7.85 -7.65 7.4 -7.8 5.4 -11.5 3.35 -12.35 4.4 -13.1" fill="url(#gradient3)" fill-rule="evenodd" stroke="none"/>
    <path d="M7.5 -6.95 L7.75 -4.2 7.3 -3.3 7.1 -2.95 6.55 -1.7 Q5.65 -2.35 4.65 -2.5 L3.8 -2.6 Q1.2 -2.6 -0.65 0.1 -2.5 2.85 -2.5 6.7 L-2.3 9.05 -4.7 8.75 -5.1 4.45 -4.95 4.45 -4.95 4.4 Q-4.6 -0.75 -5.85 -4.35 L-6.15 -5.6 Q-3.4 -6.7 -2.4 -9.3 -1.95 -10.55 -1.9 -12.15 L-1.9 -12.65 -1.95 -14.05 -1.75 -14.1 -0.05 -16.4 4.4 -13.1 3.35 -12.35 5.4 -11.5 7.4 -7.8 7.5 -6.95" fill="url(#gradient4)" fill-rule="evenodd" stroke="none"/>
    <path d="M6.55 -1.7 L6.55 -1.65 4.95 5.05 5.0 5.05 Q6.0 7.7 5.7 10.05 L-2.3 9.05 -2.5 6.7 Q-2.5 2.85 -0.65 0.1 1.2 -2.6 3.8 -2.6 L4.65 -2.5 Q5.65 -2.35 6.55 -1.7" fill="url(#gradient5)" fill-rule="evenodd" stroke="none"/>
    <path d="M4.65 -13.1 Q9.15 -11.95 9.95 -9.1 M7.85 -7.65 L7.5 -6.95 7.75 -4.2 7.3 -3.3 7.1 -2.95 6.55 -1.7 6.55 -1.65 4.95 5.05 5.0 5.05 Q6.0 7.7 5.7 10.05 L5.8 10.05 5.95 13.05 M-5.0 12.6 L-4.7 8.75 -5.1 4.45 -5.1 4.4 -4.95 4.45 -4.95 4.4 Q-4.6 -0.75 -5.85 -4.35 L-6.15 -5.6 -6.2 -5.7 -6.25 -5.7 M-9.9 -7.8 Q-9.9 -11.6 -5.2 -13.65 L-1.95 -14.05 -1.75 -14.1 -0.05 -16.4 4.4 -13.1 3.35 -12.35 M7.4 -7.8 L7.5 -6.95 M-2.3 9.05 L5.7 10.05 M-2.3 9.05 L-4.7 8.75" fill="none" stroke="#000000" stroke-linecap="round" stroke-linejoin="round" stroke-width="0.05"/>
    <path d="M0.9 -13.6 Q0.7 -15.15 1.4 -15.15 2.4 -15.15 3.05 -13.75 L3.55 -12.35 4.6 -12.35 Q5.25 -12.35 5.25 -11.75 L4.8 -11.1 4.7 -11.15 4.7 -11.1 4.2 -10.7 4.95 -11.15 5.6 -11.0 5.7 -10.95 Q3.85 -9.9 3.65 -9.9 2.2 -9.9 -2.0 -11.9 L-2.0 -12.0 -3.0 -12.2 -3.8 -11.85 -4.5 -11.85 -4.55 -12.05 Q-4.55 -12.45 -2.1 -12.95 L-1.85 -12.85 -0.65 -12.5 1.2 -12.4 0.9 -13.6 M4.35 -9.35 Q4.95 -7.85 4.95 -4.5 L4.65 -2.8 5.1 -2.5 Q5.65 -2.15 6.5 -2.1 L6.6 -1.8 Q6.6 -1.5 5.9 -1.5 L4.35 -2.2 4.25 -2.0 4.25 -1.95 4.25 -1.3 5.0 -0.75 4.2 -0.65 3.65 4.1 4.6 4.25 4.95 4.55 4.95 4.65 3.6 4.65 3.3 6.65 3.2 6.75 2.7 5.6 2.7 4.7 1.15 5.1 Q0.6 5.4 0.35 5.85 L0.3 5.55 Q0.3 4.2 2.75 4.1 2.8 1.2 3.3 -0.5 0.9 -0.1 0.8 0.75 L0.75 0.8 Q0.3 0.8 0.3 0.45 0.3 -1.25 3.55 -1.35 L4.0 -2.15 3.9 -2.3 Q3.9 -3.0 4.4 -4.65 L4.4 -4.75 3.95 -8.85 Q3.95 -9.3 4.35 -9.35" fill="#000000" fill-opacity="0.3019608" fill-rule="evenodd" stroke="none"/>
    <path d="M8.05 -10.1 L8.15 -9.9 8.15 -9.8 8.05 -9.65 Q7.95 -9.35 7.65 -9.35 7.4 -9.35 7.3 -9.5 L7.5 -9.45 7.85 -9.5 7.95 -9.5 8.0 -9.65 8.05 -9.95 8.05 -10.1" fill="#000000" fill-opacity="0.5019608" fill-rule="evenodd" stroke="none"/>
    <path d="M4.8 -13.0 L4.15 -11.25 4.55 -11.1 5.05 -10.75 4.25 -10.7 4.05 -10.8 Q3.9 -10.3 3.9 -9.65 L4.7 -9.7 Q5.0 -9.75 5.0 -9.45 L4.75 -9.2 4.65 -9.2 3.85 -9.2 Q3.8 -8.25 4.1 -7.4 L4.55 -7.65 Q4.85 -7.85 5.25 -7.9 L4.7 -7.3 4.3 -7.0 4.95 -6.05 5.1 -5.85 5.15 -5.9 5.5 -6.15 5.75 -6.15 5.55 -5.6 5.45 -5.5 6.4 -4.8 6.8 -5.3 7.4 -5.8 7.45 -5.8 7.05 -5.1 6.6 -4.65 7.4 -4.2 6.35 -4.25 6.1 -4.0 6.1 -4.3 Q5.4 -4.5 4.9 -4.95 L4.55 -4.9 4.45 -4.95 4.55 -5.3 Q4.05 -5.85 3.7 -6.65 L3.1 -6.65 3.5 -7.1 Q3.1 -8.15 3.15 -9.25 L2.35 -9.3 2.25 -9.35 2.35 -9.4 2.75 -9.6 2.9 -9.7 3.15 -9.75 3.3 -10.75 3.45 -11.15 3.3 -11.2 Q2.85 -11.4 3.1 -11.7 L3.2 -11.75 3.55 -11.45 Q3.95 -12.3 4.7 -12.95 L4.8 -13.0 M7.3 -9.5 L7.25 -9.5 6.95 -9.65 6.9 -9.75 6.8 -9.95 6.8 -10.15 6.85 -10.4 6.9 -10.5 7.0 -10.6 7.1 -10.65 7.25 -10.7 7.5 -10.65 7.75 -10.55 7.9 -10.5 8.0 -10.4 8.05 -10.3 8.05 -10.15 8.05 -10.1 8.05 -9.95 8.0 -9.65 7.95 -9.5 7.85 -9.5 7.5 -9.45 7.3 -9.5 M1.05 -7.55 L1.2 -7.4 1.4 -7.2 1.5 -7.05 1.45 -6.65 1.05 -6.25 Q0.45 -6.0 0.15 -6.5 L0.15 -6.8 0.25 -7.2 0.55 -7.55 0.75 -7.65 1.05 -7.55 M2.05 -0.75 L2.3 0.0 2.3 0.05 3.65 -0.25 4.4 -0.3 4.65 -0.2 4.65 -0.5 4.85 -1.1 4.95 -1.15 5.15 -0.3 5.15 -0.05 6.05 0.2 6.35 0.35 5.2 0.4 5.2 0.55 Q5.25 1.1 4.9 1.35 4.5 1.05 4.6 0.45 L2.4 0.65 2.4 0.85 2.3 1.55 2.25 1.6 Q1.8 1.5 1.9 0.9 L1.9 0.75 Q0.8 1.0 -0.2 1.55 L-0.05 2.0 Q0.1 2.55 -0.1 2.85 -0.65 2.65 -0.65 1.95 L-0.65 1.8 -2.4 3.15 Q-2.1 3.45 -2.25 3.8 -2.6 3.85 -2.75 3.45 L-3.7 4.4 -4.3 4.95 Q-4.05 4.05 -3.45 3.45 L-2.95 3.0 -3.15 2.75 -3.3 2.1 -3.2 2.05 -2.75 2.6 -2.7 2.75 -2.25 2.35 -0.7 1.35 -0.8 0.95 -0.9 0.2 -0.8 0.15 -0.35 1.0 -0.3 1.15 0.6 0.7 1.85 0.2 1.8 0.0 Q1.6 -0.5 2.0 -0.75 L2.05 -0.75 M-1.15 -9.3 L-1.0 -9.35 -0.6 -9.35 -0.6 -9.4 -0.1 -9.15 0.05 -8.65 -0.05 -8.2 -0.05 -8.1 Q-0.15 -8.0 -0.3 -7.95 L-0.85 -7.9 -1.3 -8.1 -1.4 -8.3 -1.4 -8.55 -1.4 -8.95 -1.3 -9.25 -1.2 -9.3 -1.15 -9.3 M-2.35 -7.15 Q-0.65 -6.6 -1.2 -4.8 -1.7 -3.25 -2.75 -4.45 -3.85 -5.85 -2.55 -7.05 L-2.35 -7.15 M-6.9 -10.5 L-6.65 -10.0 -6.75 -9.4 -7.1 -9.15 Q-7.6 -9.0 -7.95 -9.35 L-8.15 -9.65 -8.15 -9.95 -8.0 -10.45 -7.35 -10.85 -7.35 -10.9 Q-7.05 -10.8 -6.9 -10.5" fill="#000000" fill-opacity="0.6117647" fill-rule="evenodd" stroke="none"/>
  </g>
  <defs>
    <radialGradient cx="0" cy="0" gradientTransform="matrix(0.0222, 0.0, 0.0, 0.0222, 2.85, -1.75)" gradientUnits="userSpaceOnUse" id="gradient0" r="819.2" spreadMethod="pad">
      <stop offset="0.0" stop-color="#6a7249"/>
      <stop offset="1.0" stop-color="#393a2c"/>
    </radialGradient>
    <radialGradient cx="0" cy="0" gradientTransform="matrix(0.0076, 0.0, 0.0, 0.0076, 0.4, 10.45)" gradientUnits="userSpaceOnUse" id="gradient1" r="819.2" spreadMethod="pad">
      <stop offset="0.0" stop-color="#404040"/>
      <stop offset="1.0" stop-color="#000000"/>
    </radialGradient>
    <radialGradient cx="0" cy="0" gradientTransform="matrix(0.0076, 0.0, 0.0, 0.0076, -6.55, -9.95)" gradientUnits="userSpaceOnUse" id="gradient2" r="819.2" spreadMethod="pad">
      <stop offset="0.11764705882352941" stop-color="#7b869d"/>
      <stop offset="0.7450980392156863" stop-color="#363849"/>
      <stop offset="1.0" stop-color="#575e75"/>
    </radialGradient>
    <radialGradient cx="0" cy="0" gradientTransform="matrix(0.0065, 0.0, 0.0, 0.0065, 7.6, -9.15)" gradientUnits="userSpaceOnUse" id="gradient3" r="819.2" spreadMethod="pad">
      <stop offset="0.11764705882352941" stop-color="#7b869d"/>
      <stop offset="0.7450980392156863" stop-color="#363849"/>
      <stop offset="1.0" stop-color="#575e75"/>
    </radialGradient>
    <radialGradient cx="0" cy="0" gradientTransform="matrix(0.0098, 0.0011, -0.0018, 0.0157, 0.8, -3.65)" gradientUnits="userSpaceOnUse" id="gradient4" r="819.2" spreadMethod="pad">
      <stop offset="0.11764705882352941" stop-color="#74a59a"/>
      <stop offset="0.7450980392156863" stop-color="#2d2d53"/>
      <stop offset="1.0" stop-color="#54507c"/>
    </radialGradient>
    <radialGradient cx="0" cy="0" gradientTransform="matrix(0.0134, 0.0, 0.0, 0.0134, 2.05, 7.6)" gradientUnits="userSpaceOnUse" id="gradient5" r="819.2" spreadMethod="pad">
      <stop offset="0.0" stop-color="#5692cb"/>
      <stop offset="1.0" stop-color="#2d2d53"/>
    </radialGradient>
  </defs>
</svg>
