<?xml version="1.0" encoding="UTF-8" standalone="no"?>
<svg xmlns:xlink="http://www.w3.org/1999/xlink" height="66.8px" width="10.65px" xmlns="http://www.w3.org/2000/svg">
  <g transform="matrix(1.0, 0.0, 0.0, 1.0, 5.35, 38.75)">
    <path d="M-1.85 21.0 Q-1.25 15.55 -1.7 9.95 L-1.0 9.35 -1.0 0.9 0.95 0.9 0.95 9.35 1.6 10.0 Q1.2 15.2 1.85 21.0 -0.2 21.9 -1.85 21.0" fill="url(#gradient0)" fill-rule="evenodd" stroke="none"/>
    <path d="M1.85 21.0 Q2.75 24.6 1.85 27.7 0.1 28.45 -1.85 27.7 -2.65 24.15 -1.85 21.0 -0.2 21.9 1.85 21.0" fill="url(#gradient1)" fill-rule="evenodd" stroke="none"/>
    <path d="M1.85 21.0 Q2.75 24.6 1.85 27.7 0.1 28.45 -1.85 27.7 -2.65 24.15 -1.85 21.0 -1.25 15.55 -1.7 9.95 L-1.0 9.35 -1.0 0.9 M0.95 0.9 L0.95 9.35 1.6 10.0 Q1.2 15.2 1.85 21.0 -0.2 21.9 -1.85 21.0" fill="none" stroke="#000000" stroke-linecap="round" stroke-linejoin="round" stroke-width="0.05"/>
    <path d="M4.75 -34.1 Q2.9 -17.6 3.25 -1.1 0.1 -0.15 -3.0 -1.1 -2.3 -17.25 -4.65 -34.1 0.05 -34.95 4.75 -34.1" fill="url(#gradient2)" fill-rule="evenodd" stroke="none"/>
    <path d="M-4.65 -34.1 L-5.1 -37.35 Q0.0 -40.1 5.1 -37.45 L4.75 -34.1 Q0.05 -34.95 -4.65 -34.1" fill="url(#gradient3)" fill-rule="evenodd" stroke="none"/>
    <path d="M3.25 -1.1 L3.3 2.25 Q-0.3 3.55 -3.2 2.25 L-3.0 -1.1 Q0.1 -0.15 3.25 -1.1" fill="url(#gradient4)" fill-rule="evenodd" stroke="none"/>
    <path d="M-4.65 -34.1 L-5.1 -37.35 Q0.0 -40.1 5.1 -37.45 L4.75 -34.1 Q2.9 -17.6 3.25 -1.1 L3.3 2.25 Q-0.3 3.55 -3.2 2.25 L-3.0 -1.1 Q-2.3 -17.25 -4.65 -34.1 0.05 -34.95 4.75 -34.1 M3.25 -1.1 Q0.1 -0.15 -3.0 -1.1" fill="none" stroke="#000000" stroke-linecap="round" stroke-linejoin="round" stroke-width="0.05"/>
    <path d="M3.8 -28.8 Q4.45 -28.8 4.85 -28.4 5.3 -28.0 5.3 -27.35 5.3 -26.75 4.85 -26.35 4.45 -25.9 3.8 -25.9 3.2 -25.9 2.8 -26.35 2.35 -26.75 2.35 -27.35 2.35 -28.0 2.8 -28.4 3.2 -28.8 3.8 -28.8" fill="url(#gradient5)" fill-rule="evenodd" stroke="none"/>
    <path d="M4.3 -22.3 Q4.7 -21.85 4.7 -21.25 4.7 -20.65 4.3 -20.2 3.85 -19.8 3.25 -19.8 2.65 -19.8 2.2 -20.2 1.8 -20.65 1.8 -21.25 1.8 -21.85 2.2 -22.3 2.65 -22.7 3.25 -22.7 L4.3 -22.3" fill="url(#gradient6)" fill-rule="evenodd" stroke="none"/>
    <path d="M4.0 -15.9 L4.45 -14.85 4.0 -13.85 Q3.6 -13.4 3.0 -13.4 2.35 -13.4 1.95 -13.85 1.55 -14.25 1.55 -14.85 1.55 -15.5 1.95 -15.9 2.35 -16.3 3.0 -16.3 3.6 -16.3 4.0 -15.9" fill="url(#gradient7)" fill-rule="evenodd" stroke="none"/>
    <path d="M4.0 -9.65 L4.45 -8.65 Q4.45 -8.0 4.0 -7.6 3.6 -7.15 3.0 -7.15 2.35 -7.15 1.95 -7.6 1.55 -8.0 1.55 -8.65 1.55 -9.25 1.95 -9.65 2.35 -10.1 3.0 -10.1 3.6 -10.1 4.0 -9.65" fill="url(#gradient8)" fill-rule="evenodd" stroke="none"/>
    <path d="M-3.85 -28.8 Q-3.25 -28.8 -2.85 -28.4 -2.4 -28.0 -2.4 -27.35 -2.4 -26.75 -2.85 -26.35 -3.25 -25.9 -3.85 -25.9 -4.5 -25.9 -4.9 -26.35 L-5.35 -27.35 -4.9 -28.4 Q-4.5 -28.8 -3.85 -28.8" fill="url(#gradient9)" fill-rule="evenodd" stroke="none"/>
    <path d="M-3.55 -22.7 Q-2.95 -22.7 -2.55 -22.3 -2.1 -21.85 -2.1 -21.25 -2.1 -20.65 -2.55 -20.2 -2.95 -19.8 -3.55 -19.8 -4.2 -19.8 -4.6 -20.2 -5.0 -20.65 -5.0 -21.25 -5.0 -21.85 -4.6 -22.3 -4.2 -22.7 -3.55 -22.7" fill="url(#gradient10)" fill-rule="evenodd" stroke="none"/>
    <path d="M-2.8 -16.3 Q-2.2 -16.3 -1.75 -15.9 -1.35 -15.5 -1.35 -14.85 -1.35 -14.25 -1.75 -13.85 -2.2 -13.4 -2.8 -13.4 -3.4 -13.4 -3.85 -13.85 -4.25 -14.25 -4.25 -14.85 -4.25 -15.5 -3.85 -15.9 -3.4 -16.3 -2.8 -16.3" fill="url(#gradient11)" fill-rule="evenodd" stroke="none"/>
    <path d="M-1.45 -9.65 Q-1.0 -9.25 -1.0 -8.65 -1.0 -8.0 -1.45 -7.6 -1.85 -7.15 -2.45 -7.15 -3.05 -7.15 -3.5 -7.6 -3.9 -8.0 -3.9 -8.65 -3.9 -9.25 -3.5 -9.65 -3.05 -10.1 -2.45 -10.1 -1.85 -10.1 -1.45 -9.65" fill="url(#gradient12)" fill-rule="evenodd" stroke="none"/>
    <path d="M1.15 -19.4 L1.6 -18.35 Q1.6 -17.75 1.15 -17.35 0.75 -16.9 0.15 -16.9 -0.5 -16.9 -0.9 -17.35 -1.35 -17.75 -1.35 -18.35 -1.35 -19.0 -0.9 -19.4 -0.5 -19.8 0.15 -19.8 0.75 -19.8 1.15 -19.4" fill="url(#gradient13)" fill-rule="evenodd" stroke="none"/>
    <path d="M1.15 -26.4 L1.6 -25.35 Q1.6 -24.75 1.15 -24.35 0.75 -23.9 0.15 -23.9 -0.5 -23.9 -0.9 -24.35 -1.35 -24.75 -1.35 -25.35 -1.35 -26.0 -0.9 -26.4 -0.5 -26.8 0.15 -26.8 0.75 -26.8 1.15 -26.4" fill="url(#gradient14)" fill-rule="evenodd" stroke="none"/>
    <path d="M1.15 -12.4 L1.6 -11.35 Q1.6 -10.75 1.15 -10.35 0.75 -9.9 0.15 -9.9 -0.5 -9.9 -0.9 -10.35 -1.35 -10.75 -1.35 -11.35 -1.35 -12.0 -0.9 -12.4 -0.5 -12.8 0.15 -12.8 0.75 -12.8 1.15 -12.4" fill="url(#gradient15)" fill-rule="evenodd" stroke="none"/>
    <path d="M1.15 -6.4 L1.6 -5.35 Q1.6 -4.75 1.15 -4.35 0.75 -3.9 0.15 -3.9 -0.5 -3.9 -0.9 -4.35 -1.35 -4.75 -1.35 -5.35 -1.35 -6.0 -0.9 -6.4 -0.5 -6.8 0.15 -6.8 0.75 -6.8 1.15 -6.4" fill="url(#gradient16)" fill-rule="evenodd" stroke="none"/>
    <path d="M3.8 -28.8 Q4.45 -28.8 4.85 -28.4 5.3 -28.0 5.3 -27.35 5.3 -26.75 4.85 -26.35 4.45 -25.9 3.8 -25.9 3.2 -25.9 2.8 -26.35 2.35 -26.75 2.35 -27.35 2.35 -28.0 2.8 -28.4 3.2 -28.8 3.8 -28.8 M1.15 -26.4 L1.6 -25.35 Q1.6 -24.75 1.15 -24.35 0.75 -23.9 0.15 -23.9 -0.5 -23.9 -0.9 -24.35 -1.35 -24.75 -1.35 -25.35 -1.35 -26.0 -0.9 -26.4 -0.5 -26.8 0.15 -26.8 0.75 -26.8 1.15 -26.4 M4.3 -22.3 Q4.7 -21.85 4.7 -21.25 4.7 -20.65 4.3 -20.2 3.85 -19.8 3.25 -19.8 2.65 -19.8 2.2 -20.2 1.8 -20.65 1.8 -21.25 1.8 -21.85 2.2 -22.3 2.65 -22.7 3.25 -22.7 L4.3 -22.3 M1.15 -19.4 L1.6 -18.35 Q1.6 -17.75 1.15 -17.35 0.75 -16.9 0.15 -16.9 -0.5 -16.9 -0.9 -17.35 -1.35 -17.75 -1.35 -18.35 -1.35 -19.0 -0.9 -19.4 -0.5 -19.8 0.15 -19.8 0.75 -19.8 1.15 -19.4 M4.0 -15.9 L4.45 -14.85 4.0 -13.85 Q3.6 -13.4 3.0 -13.4 2.35 -13.4 1.95 -13.85 1.55 -14.25 1.55 -14.85 1.55 -15.5 1.95 -15.9 2.35 -16.3 3.0 -16.3 3.6 -16.3 4.0 -15.9 M1.15 -12.4 L1.6 -11.35 Q1.6 -10.75 1.15 -10.35 0.75 -9.9 0.15 -9.9 -0.5 -9.9 -0.9 -10.35 -1.35 -10.75 -1.35 -11.35 -1.35 -12.0 -0.9 -12.4 -0.5 -12.8 0.15 -12.8 0.75 -12.8 1.15 -12.4 M4.0 -9.65 L4.45 -8.65 Q4.45 -8.0 4.0 -7.6 3.6 -7.15 3.0 -7.15 2.35 -7.15 1.95 -7.6 1.55 -8.0 1.55 -8.65 1.55 -9.25 1.95 -9.65 2.35 -10.1 3.0 -10.1 3.6 -10.1 4.0 -9.65 M1.15 -6.4 L1.6 -5.35 Q1.6 -4.75 1.15 -4.35 0.75 -3.9 0.15 -3.9 -0.5 -3.9 -0.9 -4.35 -1.35 -4.75 -1.35 -5.35 -1.35 -6.0 -0.9 -6.4 -0.5 -6.8 0.15 -6.8 0.75 -6.8 1.15 -6.4 M-3.85 -28.8 Q-3.25 -28.8 -2.85 -28.4 -2.4 -28.0 -2.4 -27.35 -2.4 -26.75 -2.85 -26.35 -3.25 -25.9 -3.85 -25.9 -4.5 -25.9 -4.9 -26.35 L-5.35 -27.35 -4.9 -28.4 Q-4.5 -28.8 -3.85 -28.8 M-3.55 -22.7 Q-2.95 -22.7 -2.55 -22.3 -2.1 -21.85 -2.1 -21.25 -2.1 -20.65 -2.55 -20.2 -2.95 -19.8 -3.55 -19.8 -4.2 -19.8 -4.6 -20.2 -5.0 -20.65 -5.0 -21.25 -5.0 -21.85 -4.6 -22.3 -4.2 -22.7 -3.55 -22.7 M-2.8 -16.3 Q-2.2 -16.3 -1.75 -15.9 -1.35 -15.5 -1.35 -14.85 -1.35 -14.25 -1.75 -13.85 -2.2 -13.4 -2.8 -13.4 -3.4 -13.4 -3.85 -13.85 -4.25 -14.25 -4.25 -14.85 -4.25 -15.5 -3.85 -15.9 -3.4 -16.3 -2.8 -16.3 M-1.45 -9.65 Q-1.0 -9.25 -1.0 -8.65 -1.0 -8.0 -1.45 -7.6 -1.85 -7.15 -2.45 -7.15 -3.05 -7.15 -3.5 -7.6 -3.9 -8.0 -3.9 -8.65 -3.9 -9.25 -3.5 -9.65 -3.05 -10.1 -2.45 -10.1 -1.85 -10.1 -1.45 -9.65 Z" fill="none" stroke="#000000" stroke-linecap="round" stroke-linejoin="round" stroke-width="0.05"/>
  </g>
  <defs>
    <linearGradient gradientTransform="matrix(0.0, -0.0125, 0.0023, 0.0, 0.0, 11.2)" gradientUnits="userSpaceOnUse" id="gradient0" spreadMethod="pad" x1="-819.2" x2="819.2">
      <stop offset="0.0" stop-color="#20202d"/>
      <stop offset="0.1843137254901961" stop-color="#3e3e53"/>
      <stop offset="0.5529411764705883" stop-color="#534d3e"/>
      <stop offset="1.0" stop-color="#1b1f21"/>
    </linearGradient>
    <radialGradient cx="0" cy="0" gradientTransform="matrix(0.0079, 0.0, 0.0, 0.0079, -1.75, 23.05)" gradientUnits="userSpaceOnUse" id="gradient1" r="819.2" spreadMethod="pad">
      <stop offset="0.03137254901960784" stop-color="#e3e8e8"/>
      <stop offset="0.5137254901960784" stop-color="#4f5864"/>
      <stop offset="1.0" stop-color="#d2d2df"/>
    </radialGradient>
    <linearGradient gradientTransform="matrix(2.0E-4, -0.0207, 0.0057, 0.0, -0.1, -17.55)" gradientUnits="userSpaceOnUse" id="gradient2" spreadMethod="pad" x1="-819.2" x2="819.2">
      <stop offset="0.0" stop-color="#171c1c"/>
      <stop offset="0.4588235294117647" stop-color="#474863"/>
      <stop offset="1.0" stop-color="#171c1c"/>
    </linearGradient>
    <radialGradient cx="0" cy="0" gradientTransform="matrix(0.009, 0.0, 0.0, 0.0063, -1.7, -36.6)" gradientUnits="userSpaceOnUse" id="gradient3" r="819.2" spreadMethod="pad">
      <stop offset="0.01568627450980392" stop-color="#e3e8e8"/>
      <stop offset="0.5137254901960784" stop-color="#4f5864"/>
      <stop offset="1.0" stop-color="#d2d2df"/>
    </radialGradient>
    <radialGradient cx="0" cy="0" gradientTransform="matrix(0.0069, 0.0, 0.0, 0.0049, -1.5, 0.15)" gradientUnits="userSpaceOnUse" id="gradient4" r="819.2" spreadMethod="pad">
      <stop offset="0.01568627450980392" stop-color="#e3e8e8"/>
      <stop offset="0.5137254901960784" stop-color="#4f5864"/>
      <stop offset="1.0" stop-color="#d2d2df"/>
    </radialGradient>
    <radialGradient cx="0" cy="0" gradientTransform="matrix(0.0023, 0.0, 0.0, 0.0023, 3.8, -27.35)" gradientUnits="userSpaceOnUse" id="gradient5" r="819.2" spreadMethod="pad">
      <stop offset="0.0" stop-color="#ffffff"/>
      <stop offset="1.0" stop-color="#848484"/>
    </radialGradient>
    <radialGradient cx="0" cy="0" gradientTransform="matrix(0.0023, 0.0, 0.0, 0.0023, 3.25, -21.25)" gradientUnits="userSpaceOnUse" id="gradient6" r="819.2" spreadMethod="pad">
      <stop offset="0.0" stop-color="#ffffff"/>
      <stop offset="1.0" stop-color="#848484"/>
    </radialGradient>
    <radialGradient cx="0" cy="0" gradientTransform="matrix(0.0023, 0.0, 0.0, 0.0023, 3.0, -14.85)" gradientUnits="userSpaceOnUse" id="gradient7" r="819.2" spreadMethod="pad">
      <stop offset="0.0" stop-color="#ffffff"/>
      <stop offset="1.0" stop-color="#848484"/>
    </radialGradient>
    <radialGradient cx="0" cy="0" gradientTransform="matrix(0.0023, 0.0, 0.0, 0.0023, 3.0, -8.65)" gradientUnits="userSpaceOnUse" id="gradient8" r="819.2" spreadMethod="pad">
      <stop offset="0.0" stop-color="#ffffff"/>
      <stop offset="1.0" stop-color="#848484"/>
    </radialGradient>
    <radialGradient cx="0" cy="0" gradientTransform="matrix(0.0023, 0.0, 0.0, 0.0023, -3.85, -27.35)" gradientUnits="userSpaceOnUse" id="gradient9" r="819.2" spreadMethod="pad">
      <stop offset="0.0" stop-color="#ffffff"/>
      <stop offset="1.0" stop-color="#848484"/>
    </radialGradient>
    <radialGradient cx="0" cy="0" gradientTransform="matrix(0.0023, 0.0, 0.0, 0.0023, -3.55, -21.25)" gradientUnits="userSpaceOnUse" id="gradient10" r="819.2" spreadMethod="pad">
      <stop offset="0.0" stop-color="#ffffff"/>
      <stop offset="1.0" stop-color="#848484"/>
    </radialGradient>
    <radialGradient cx="0" cy="0" gradientTransform="matrix(0.0023, 0.0, 0.0, 0.0023, -2.8, -14.85)" gradientUnits="userSpaceOnUse" id="gradient11" r="819.2" spreadMethod="pad">
      <stop offset="0.0" stop-color="#ffffff"/>
      <stop offset="1.0" stop-color="#848484"/>
    </radialGradient>
    <radialGradient cx="0" cy="0" gradientTransform="matrix(0.0023, 0.0, 0.0, 0.0023, -2.45, -8.65)" gradientUnits="userSpaceOnUse" id="gradient12" r="819.2" spreadMethod="pad">
      <stop offset="0.0" stop-color="#ffffff"/>
      <stop offset="1.0" stop-color="#848484"/>
    </radialGradient>
    <radialGradient cx="0" cy="0" gradientTransform="matrix(0.0023, 0.0, 0.0, 0.0023, 0.15, -18.35)" gradientUnits="userSpaceOnUse" id="gradient13" r="819.2" spreadMethod="pad">
      <stop offset="0.0" stop-color="#ffffff"/>
      <stop offset="1.0" stop-color="#848484"/>
    </radialGradient>
    <radialGradient cx="0" cy="0" gradientTransform="matrix(0.0023, 0.0, 0.0, 0.0023, 0.15, -25.35)" gradientUnits="userSpaceOnUse" id="gradient14" r="819.2" spreadMethod="pad">
      <stop offset="0.0" stop-color="#ffffff"/>
      <stop offset="1.0" stop-color="#848484"/>
    </radialGradient>
    <radialGradient cx="0" cy="0" gradientTransform="matrix(0.0023, 0.0, 0.0, 0.0023, 0.15, -11.35)" gradientUnits="userSpaceOnUse" id="gradient15" r="819.2" spreadMethod="pad">
      <stop offset="0.0" stop-color="#ffffff"/>
      <stop offset="1.0" stop-color="#848484"/>
    </radialGradient>
    <radialGradient cx="0" cy="0" gradientTransform="matrix(0.0023, 0.0, 0.0, 0.0023, 0.15, -5.35)" gradientUnits="userSpaceOnUse" id="gradient16" r="819.2" spreadMethod="pad">
      <stop offset="0.0" stop-color="#ffffff"/>
      <stop offset="1.0" stop-color="#848484"/>
    </radialGradient>
  </defs>
</svg>
