<?xml version="1.0" encoding="UTF-8" standalone="no"?>
<svg xmlns:xlink="http://www.w3.org/1999/xlink" height="30.5px" width="19.85px" xmlns="http://www.w3.org/2000/svg">
  <g transform="matrix(1.0, 0.0, 0.0, 1.0, 9.9, 14.05)">
    <path d="M5.25 -11.6 L5.4 -11.5 5.85 -10.65 5.25 -11.6" fill="url(#gradient0)" fill-rule="evenodd" stroke="none"/>
    <path d="M6.55 -1.7 L6.55 -1.65 4.95 5.05 5.0 5.05 Q6.0 7.7 5.7 10.05 L-2.3 9.05 -2.5 6.7 Q-2.5 2.85 -0.65 0.1 1.2 -2.6 3.8 -2.6 L4.65 -2.5 Q5.65 -2.35 6.55 -1.7" fill="url(#gradient1)" fill-rule="evenodd" stroke="none"/>
    <path d="M5.05 -11.9 L4.25 -13.0 4.4 -13.1 4.65 -13.1 Q9.15 -11.95 9.95 -9.1 L7.85 -7.65 7.4 -7.8 5.85 -10.65 5.4 -11.5 5.25 -11.6 5.05 -11.9" fill="url(#gradient2)" fill-rule="evenodd" stroke="none"/>
    <path d="M-6.15 -5.6 L-6.2 -5.7 -6.25 -5.7 -9.9 -7.8 Q-9.9 -11.6 -5.2 -13.65 L-1.95 -14.05 -1.95 -13.8 -1.9 -13.2 -1.9 -12.65 -1.9 -12.15 Q-1.95 -10.55 -2.4 -9.3 -3.4 -6.7 -6.15 -5.6" fill="url(#gradient3)" fill-rule="evenodd" stroke="none"/>
    <path d="M7.4 -7.8 L7.75 -4.2 7.3 -3.3 7.1 -2.95 6.55 -1.7 Q5.65 -2.35 4.65 -2.5 L3.8 -2.6 Q1.2 -2.6 -0.65 0.1 -2.5 2.85 -2.5 6.7 L-2.3 9.05 -4.7 8.75 -5.1 4.45 -4.95 4.45 -4.95 4.4 Q-4.6 -0.75 -5.85 -4.35 L-6.15 -5.6 Q-3.4 -6.7 -2.4 -9.3 -1.95 -10.55 -1.9 -12.15 L-1.9 -12.65 -1.9 -13.2 -1.55 -12.3 -0.95 -10.85 Q1.15 -8.25 4.45 -7.1 5.5 -8.0 5.85 -10.65 L7.4 -7.8" fill="url(#gradient4)" fill-rule="evenodd" stroke="none"/>
    <path d="M5.7 10.05 L5.8 10.05 5.95 13.05 2.15 16.45 -5.0 12.6 -4.7 8.75 -2.3 9.05 5.7 10.05" fill="url(#gradient5)" fill-rule="evenodd" stroke="none"/>
    <path d="M-1.55 -12.3 Q2.65 -10.4 5.05 -11.9 L5.25 -11.6 5.85 -10.65 Q5.5 -8.0 4.45 -7.1 1.15 -8.25 -0.95 -10.85 L-1.55 -12.3" fill="url(#gradient6)" fill-rule="evenodd" stroke="none"/>
    <path d="M5.05 -11.9 L4.25 -13.0 4.4 -13.1 M4.65 -13.1 Q9.15 -11.95 9.95 -9.1 M7.4 -7.8 L7.75 -4.2 7.3 -3.3 7.1 -2.95 6.55 -1.7 6.55 -1.65 4.95 5.05 5.0 5.05 Q6.0 7.7 5.7 10.05 L5.8 10.05 5.95 13.05 M-5.0 12.6 L-4.7 8.75 -5.1 4.45 -5.1 4.4 -4.95 4.45 -4.95 4.4 Q-4.6 -0.75 -5.85 -4.35 L-6.15 -5.6 -6.2 -5.7 -6.25 -5.7 M-9.9 -7.8 Q-9.9 -11.6 -5.2 -13.65 L-1.95 -14.05 M-1.95 -13.8 L-1.9 -13.2 -1.55 -12.3 Q2.65 -10.4 5.05 -11.9 L5.25 -11.6 5.85 -10.65 Q5.5 -8.0 4.45 -7.1 1.15 -8.25 -0.95 -10.85 L-1.55 -12.3" fill="none" stroke="#000000" stroke-linecap="round" stroke-linejoin="round" stroke-width="0.05"/>
    <path d="M4.0 -2.95 L4.7 -2.95 4.65 -2.8 5.1 -2.5 Q5.65 -2.15 6.5 -2.1 L6.6 -1.8 Q6.6 -1.5 5.9 -1.5 L4.35 -2.2 4.25 -2.0 4.25 -1.95 4.25 -1.3 5.0 -0.75 4.2 -0.65 3.65 4.1 4.6 4.25 4.95 4.55 4.95 4.65 3.6 4.65 3.3 6.65 3.2 6.75 2.7 5.6 2.7 4.7 1.15 5.1 Q0.6 5.4 0.35 5.85 L0.3 5.55 Q0.3 4.2 2.75 4.1 2.8 1.2 3.3 -0.5 0.9 -0.1 0.8 0.75 L0.75 0.8 Q0.3 0.8 0.3 0.45 0.3 -1.25 3.55 -1.35 L4.0 -2.15 3.9 -2.3 4.0 -2.95" fill="#000000" fill-opacity="0.3019608" fill-rule="evenodd" stroke="none"/>
    <path d="M6.15 -0.85 Q2.95 -0.25 -1.75 -0.85 L-1.75 -3.85 Q3.0 -2.95 6.6 -3.75 L6.15 -0.85" fill="#ffffff" fill-rule="evenodd" stroke="none"/>
    <path d="M6.15 -0.85 Q2.95 -0.25 -1.75 -0.85 L-1.75 -3.85 Q3.0 -2.95 6.6 -3.75 L6.15 -0.85 Z" fill="none" stroke="#000000" stroke-linecap="round" stroke-linejoin="round" stroke-width="0.05"/>
  </g>
  <defs>
    <radialGradient cx="0" cy="0" gradientTransform="matrix(0.0098, 0.0011, -0.0018, 0.0157, 0.8, -3.65)" gradientUnits="userSpaceOnUse" id="gradient0" r="819.2" spreadMethod="pad">
      <stop offset="0.0" stop-color="#b85e03"/>
      <stop offset="0.6196078431372549" stop-color="#612905"/>
      <stop offset="1.0" stop-color="#522203"/>
    </radialGradient>
    <radialGradient cx="0" cy="0" gradientTransform="matrix(0.0148, 0.0, 0.0, 0.0148, 3.45, 9.45)" gradientUnits="userSpaceOnUse" id="gradient1" r="819.2" spreadMethod="pad">
      <stop offset="0.0" stop-color="#b85e03"/>
      <stop offset="0.6196078431372549" stop-color="#612905"/>
      <stop offset="1.0" stop-color="#522203"/>
    </radialGradient>
    <radialGradient cx="0" cy="0" gradientTransform="matrix(0.0065, 0.0, 0.0, 0.0065, 7.6, -9.15)" gradientUnits="userSpaceOnUse" id="gradient2" r="819.2" spreadMethod="pad">
      <stop offset="0.0" stop-color="#ff6600"/>
      <stop offset="0.6196078431372549" stop-color="#c44e00"/>
      <stop offset="1.0" stop-color="#522203"/>
    </radialGradient>
    <radialGradient cx="0" cy="0" gradientTransform="matrix(0.0076, 0.0, 0.0, 0.0076, -6.55, -9.95)" gradientUnits="userSpaceOnUse" id="gradient3" r="819.2" spreadMethod="pad">
      <stop offset="0.0" stop-color="#ff6600"/>
      <stop offset="0.6196078431372549" stop-color="#c44e00"/>
      <stop offset="1.0" stop-color="#522203"/>
    </radialGradient>
    <radialGradient cx="0" cy="0" gradientTransform="matrix(0.0098, 0.0011, -0.0018, 0.0157, 0.8, -3.65)" gradientUnits="userSpaceOnUse" id="gradient4" r="819.2" spreadMethod="pad">
      <stop offset="0.0" stop-color="#ff6600"/>
      <stop offset="0.6196078431372549" stop-color="#c44e00"/>
      <stop offset="1.0" stop-color="#522203"/>
    </radialGradient>
    <radialGradient cx="0" cy="0" gradientTransform="matrix(0.0076, 0.0, 0.0, 0.0076, 0.4, 10.45)" gradientUnits="userSpaceOnUse" id="gradient5" r="819.2" spreadMethod="pad">
      <stop offset="0.0" stop-color="#ff6600"/>
      <stop offset="0.6196078431372549" stop-color="#c44e00"/>
      <stop offset="1.0" stop-color="#522203"/>
    </radialGradient>
    <radialGradient cx="0" cy="0" gradientTransform="matrix(0.0067, 0.0, 0.0, 0.0067, 3.1, -9.4)" gradientUnits="userSpaceOnUse" id="gradient6" r="819.2" spreadMethod="pad">
      <stop offset="0.0" stop-color="#ffffff"/>
      <stop offset="0.9019607843137255" stop-color="#6a6a6a"/>
    </radialGradient>
  </defs>
</svg>
