<?xml version="1.0" encoding="UTF-8" standalone="no"?>
<svg xmlns:xlink="http://www.w3.org/1999/xlink" height="13.15px" width="6.95px" xmlns="http://www.w3.org/2000/svg">
  <g transform="matrix(1.0, 0.0, 0.0, 1.0, 3.45, 9.15)">
    <path d="M3.0 -6.9 Q3.7 -4.25 3.45 -2.1 2.75 -0.55 2.4 0.8 1.5 2.25 2.15 3.85 -0.15 4.35 -3.45 3.35 -3.5 1.35 -3.15 -1.05 L-3.0 -4.55 Q-2.8 -6.1 -0.75 -9.15 L3.0 -6.9" fill="url(#gradient0)" fill-rule="evenodd" stroke="none"/>
    <path d="M3.0 -6.9 Q3.7 -4.25 3.45 -2.1 2.75 -0.55 2.4 0.8 1.5 2.25 2.15 3.85 -0.15 4.35 -3.45 3.35 -3.5 1.35 -3.15 -1.05 L-3.0 -4.55 Q-2.8 -6.1 -0.75 -9.15" fill="none" stroke="#000000" stroke-linecap="round" stroke-linejoin="round" stroke-width="0.05"/>
    <path d="M3.45 -2.1 Q2.75 -0.55 2.4 0.8 1.5 2.25 2.15 3.85 -0.15 4.35 -3.45 3.35 -3.5 1.35 -3.15 -1.05 L-3.0 -4.55 Q-2.8 -6.1 -0.75 -9.15 L3.0 -6.9 Q3.7 -4.25 3.45 -2.1" fill="url(#gradient1)" fill-rule="evenodd" stroke="none"/>
  </g>
  <defs>
    <radialGradient cx="0" cy="0" gradientTransform="matrix(0.0104, 0.0, 0.0, 0.0104, 0.0, -2.6)" gradientUnits="userSpaceOnUse" id="gradient0" r="819.2" spreadMethod="pad">
      <stop offset="0.0" stop-color="#ffffff"/>
      <stop offset="0.6196078431372549" stop-color="#aeaeae"/>
      <stop offset="1.0" stop-color="#a6a6a6"/>
    </radialGradient>
    <radialGradient cx="0" cy="0" gradientTransform="matrix(0.0238, 0.0, 0.0, 0.015, -1.05, 4.15)" gradientUnits="userSpaceOnUse" id="gradient1" r="819.2" spreadMethod="pad">
      <stop offset="0.0" stop-color="#800000"/>
      <stop offset="1.0" stop-color="#550000" stop-opacity="0.0"/>
    </radialGradient>
  </defs>
</svg>
