<?xml version="1.0" encoding="UTF-8" standalone="no"?>
<svg xmlns:xlink="http://www.w3.org/1999/xlink" height="38.35px" width="25.5px" xmlns="http://www.w3.org/2000/svg">
  <g transform="matrix(1.0, 0.0, 0.0, 1.0, 17.4, 28.75)">
    <path d="M5.35 -5.65 Q6.25 -7.55 6.3 -9.85 L6.3 -10.55 6.1 -12.55 6.1 -12.8 6.05 -13.0 8.05 -12.0 8.1 -11.6 8.1 -10.55 8.05 -9.85 Q7.8 -7.05 6.35 -4.6 L6.05 -5.0 5.35 -5.65" fill="url(#gradient0)" fill-rule="evenodd" stroke="none"/>
    <path d="M6.35 -4.6 Q6.85 -3.75 6.85 -2.55 6.85 -1.15 6.15 -0.2 L6.05 -0.1 5.95 0.05 5.25 0.65 4.1 0.9 3.4 0.8 2.95 0.6 2.15 -0.1 1.75 -0.75 Q1.35 -1.55 1.35 -2.55 1.35 -3.4 1.65 -4.1 L2.15 -5.0 2.6 -5.4 2.85 -5.6 Q3.4 -6.0 4.1 -6.0 L5.35 -5.65 6.05 -5.0 6.35 -4.6 M4.3 -4.6 Q3.65 -4.6 3.2 -4.05 2.75 -3.45 2.75 -2.6 2.75 -1.75 3.2 -1.2 3.65 -0.6 4.3 -0.6 4.95 -0.6 5.4 -1.2 5.85 -1.75 5.85 -2.6 5.85 -3.45 5.4 -4.05 4.95 -4.6 4.3 -4.6" fill="url(#gradient1)" fill-rule="evenodd" stroke="none"/>
    <path d="M1.65 -4.1 Q-1.6 -5.7 -3.65 -13.35 L-3.5 -13.4 -3.05 -13.35 -1.9 -13.7 -1.85 -13.7 Q-0.15 -9.35 0.7 -8.15 1.5 -6.95 2.85 -5.6 L2.6 -5.4 2.15 -5.0 1.65 -4.1" fill="url(#gradient2)" fill-rule="evenodd" stroke="none"/>
    <path d="M6.15 -0.1 L6.75 2.1 6.05 2.8 5.25 0.65 5.95 0.05 6.05 -0.1 6.15 -0.1" fill="url(#gradient3)" fill-rule="evenodd" stroke="none"/>
    <path d="M3.4 0.8 L-5.05 9.6 -5.05 7.1 2.15 -0.1 2.95 0.6 3.4 0.8" fill="url(#gradient4)" fill-rule="evenodd" stroke="none"/>
    <path d="M-16.5 -23.1 L-17.4 -25.9 Q-15.2 -29.65 -11.0 -28.5 L-10.0 -25.8 Q-13.85 -25.75 -16.5 -23.1" fill="url(#gradient5)" fill-rule="evenodd" stroke="none"/>
    <path d="M-6.2 -24.1 L-6.45 -26.75 Q-4.3 -28.65 -1.6 -27.8 L-1.25 -25.25 Q-4.0 -25.95 -6.2 -24.1" fill="url(#gradient6)" fill-rule="evenodd" stroke="none"/>
    <path d="M-6.05 -23.05 L-6.05 -23.1 Q-3.6 -24.3 -1.1 -23.55 L-1.1 -23.4 Q-3.6 -22.1 -6.05 -23.05 M-9.4 -23.5 L-9.35 -23.4 Q-12.05 -20.4 -15.65 -20.95 -13.5 -23.7 -9.4 -23.5" fill="#6c8701" fill-rule="evenodd" stroke="none"/>
    <path d="M-6.05 -23.1 L-6.2 -24.1 Q-4.0 -25.95 -1.25 -25.25 L-1.1 -23.55 Q-3.6 -24.3 -6.05 -23.1 M-10.0 -25.8 L-9.4 -23.5 Q-13.5 -23.7 -15.65 -20.95 L-16.5 -23.1 Q-13.85 -25.75 -10.0 -25.8" fill="#161d18" fill-rule="evenodd" stroke="none"/>
    <path d="M-8.2 -16.6 L-8.25 -16.55 -8.25 -16.65 -8.2 -16.6" fill="#99cc00" fill-rule="evenodd" stroke="none"/>
    <path d="M-8.6 -18.05 L-8.5 -18.1 -8.5 -17.9 -8.3 -16.2 Q-8.05 -14.75 -6.2 -13.75 L-11.1 -11.05 Q-10.4 -12.9 -12.95 -16.1 -11.4 -15.75 -10.35 -16.4 -9.3 -17.1 -8.6 -18.05" fill="url(#gradient7)" fill-rule="evenodd" stroke="none"/>
    <path d="M-3.65 -13.35 L-4.65 -13.2 Q-3.75 -15.2 -4.55 -17.35 -2.2 -16.2 -1.2 -18.3 -1.75 -15.75 -0.1 -14.05 L-1.85 -13.7 -1.8 -13.85 -1.9 -13.7 -3.05 -13.35 -3.5 -13.4 -1.9 -13.7 -3.5 -13.4 -3.65 -13.35" fill="url(#gradient8)" fill-rule="evenodd" stroke="none"/>
    <path d="M-1.9 -13.7 L-1.8 -13.85 -1.85 -13.7 -1.9 -13.7" fill="url(#gradient9)" fill-rule="evenodd" stroke="none"/>
    <path d="M5.35 -5.65 Q6.25 -7.55 6.3 -9.85 L6.3 -10.55 6.1 -12.55 6.1 -12.8 6.05 -13.0 8.05 -12.0 8.1 -11.6 8.1 -10.55 8.05 -9.85 Q7.8 -7.05 6.35 -4.6 6.85 -3.75 6.85 -2.55 6.85 -1.15 6.15 -0.2 L6.15 -0.1 6.75 2.1 6.05 2.8 5.25 0.65 4.1 0.9 3.4 0.8 -5.05 9.6 -5.05 7.1 2.15 -0.1 1.75 -0.75 Q1.35 -1.55 1.35 -2.55 1.35 -3.4 1.65 -4.1 -1.6 -5.7 -3.65 -13.35 M-1.85 -13.7 Q-0.15 -9.35 0.7 -8.15 1.5 -6.95 2.85 -5.6 3.4 -6.0 4.1 -6.0 L5.35 -5.65 M6.15 -0.2 L6.05 -0.1" fill="none" stroke="#110d09" stroke-linecap="round" stroke-linejoin="round" stroke-width="0.05"/>
    <path d="M4.3 -4.6 Q4.95 -4.6 5.4 -4.05 5.85 -3.45 5.85 -2.6 5.85 -1.75 5.4 -1.2 4.95 -0.6 4.3 -0.6 3.65 -0.6 3.2 -1.2 2.75 -1.75 2.75 -2.6 2.75 -3.45 3.2 -4.05 3.65 -4.6 4.3 -4.6" fill="none" stroke="#130d09" stroke-linecap="round" stroke-linejoin="round" stroke-width="0.05"/>
    <path d="M-3.65 -13.35 L-4.65 -13.2 Q-3.75 -15.2 -4.55 -17.35 -5.55 -20.1 -6.05 -23.05 L-6.05 -23.1 -6.2 -24.1 -6.45 -26.75 Q-4.3 -28.65 -1.6 -27.8 L-1.25 -25.25 -1.1 -23.55 -1.1 -23.4 Q-1.0 -20.95 -1.2 -18.3 -1.75 -15.75 -0.1 -14.05 L-1.85 -13.7 -1.9 -13.7 -3.5 -13.4 -3.65 -13.35 M-16.5 -23.1 L-17.4 -25.9 Q-15.2 -29.65 -11.0 -28.5 L-10.0 -25.8 -9.4 -23.5 -9.35 -23.4 Q-8.8 -20.95 -8.6 -18.2 L-8.6 -18.05 Q-9.3 -17.1 -10.35 -16.4 -11.4 -15.75 -12.95 -16.1 -14.6 -18.35 -15.65 -20.95 L-16.5 -23.1 Q-13.85 -25.75 -10.0 -25.8 M-8.5 -18.1 L-8.5 -17.9 -8.3 -16.2 Q-8.05 -14.75 -6.2 -13.75 L-11.1 -11.05 Q-10.4 -12.9 -12.95 -16.1 M-4.55 -17.35 Q-2.2 -16.2 -1.2 -18.3 M-6.2 -24.1 Q-4.0 -25.95 -1.25 -25.25" fill="none" stroke="#181412" stroke-linecap="round" stroke-linejoin="round" stroke-width="0.05"/>
    <path d="M-8.2 -16.6 L-8.25 -16.65" fill="none" stroke="#000000" stroke-linecap="round" stroke-linejoin="round" stroke-width="0.05"/>
  </g>
  <defs>
    <radialGradient cx="0" cy="0" gradientTransform="matrix(0.0094, 0.0, 0.0, 0.0094, 7.35, -11.85)" gradientUnits="userSpaceOnUse" id="gradient0" r="819.2" spreadMethod="pad">
      <stop offset="0.2784313725490196" stop-color="#1c1817"/>
      <stop offset="1.0" stop-color="#462b28"/>
    </radialGradient>
    <radialGradient cx="0" cy="0" gradientTransform="matrix(0.008, 0.0, 0.0, 0.008, 4.4, 0.15)" gradientUnits="userSpaceOnUse" id="gradient1" r="819.2" spreadMethod="pad">
      <stop offset="0.2823529411764706" stop-color="#867471"/>
      <stop offset="1.0" stop-color="#ffffff"/>
    </radialGradient>
    <radialGradient cx="0" cy="0" gradientTransform="matrix(0.0112, 0.0, 0.0, 0.0112, -2.25, -12.35)" gradientUnits="userSpaceOnUse" id="gradient2" r="819.2" spreadMethod="pad">
      <stop offset="0.2784313725490196" stop-color="#1c1817"/>
      <stop offset="1.0" stop-color="#462b28"/>
    </radialGradient>
    <radialGradient cx="0" cy="0" gradientTransform="matrix(0.003, 0.0, 0.0, 0.003, 6.5, 2.3)" gradientUnits="userSpaceOnUse" id="gradient3" r="819.2" spreadMethod="pad">
      <stop offset="0.2784313725490196" stop-color="#1c1817"/>
      <stop offset="1.0" stop-color="#462b28"/>
    </radialGradient>
    <radialGradient cx="0" cy="0" gradientTransform="matrix(0.0092, 0.0, 0.0, 0.0092, -2.25, 5.8)" gradientUnits="userSpaceOnUse" id="gradient4" r="819.2" spreadMethod="pad">
      <stop offset="0.2784313725490196" stop-color="#1c1817"/>
      <stop offset="1.0" stop-color="#462b28"/>
    </radialGradient>
    <radialGradient cx="0" cy="0" gradientTransform="matrix(0.0073, 0.0, 0.0, 0.0081, -15.25, -27.95)" gradientUnits="userSpaceOnUse" id="gradient5" r="819.2" spreadMethod="pad">
      <stop offset="0.00784313725490196" stop-color="#b58b64"/>
      <stop offset="1.0" stop-color="#492c25"/>
    </radialGradient>
    <radialGradient cx="0" cy="0" gradientTransform="matrix(0.0044, 0.0, 0.0, 0.006, -4.2, -28.0)" gradientUnits="userSpaceOnUse" id="gradient6" r="819.2" spreadMethod="pad">
      <stop offset="0.00784313725490196" stop-color="#735437"/>
      <stop offset="1.0" stop-color="#221211"/>
    </radialGradient>
    <radialGradient cx="0" cy="0" gradientTransform="matrix(0.0063, 0.0, 0.0, 0.007, -10.55, -16.1)" gradientUnits="userSpaceOnUse" id="gradient7" r="819.2" spreadMethod="pad">
      <stop offset="0.00784313725490196" stop-color="#b58b64"/>
      <stop offset="1.0" stop-color="#492c25"/>
    </radialGradient>
    <radialGradient cx="0" cy="0" gradientTransform="matrix(0.0043, 0.0, 0.0, 0.0058, -3.0, -16.7)" gradientUnits="userSpaceOnUse" id="gradient8" r="819.2" spreadMethod="pad">
      <stop offset="0.00784313725490196" stop-color="#735437"/>
      <stop offset="1.0" stop-color="#221211"/>
    </radialGradient>
    <radialGradient cx="0" cy="0" gradientTransform="matrix(0.007, 0.0, 0.0, 0.007, -1.45, -8.15)" gradientUnits="userSpaceOnUse" id="gradient9" r="819.2" spreadMethod="pad">
      <stop offset="0.3843137254901961" stop-color="#1c1a17"/>
      <stop offset="1.0" stop-color="#5a5a50"/>
    </radialGradient>
  </defs>
</svg>
