<?xml version="1.0" encoding="UTF-8" standalone="no"?>
<svg xmlns:xlink="http://www.w3.org/1999/xlink" height="62.2px" width="12.95px" xmlns="http://www.w3.org/2000/svg">
  <g transform="matrix(1.0, 0.0, 0.0, 1.0, 6.65, 33.65)">
    <path d="M3.4 -31.45 L4.8 16.45 -5.15 8.05 -3.65 -33.65 3.4 -31.45" fill="url(#gradient0)" fill-rule="evenodd" stroke="none"/>
    <path d="M3.4 -31.45 L4.8 16.45 -5.15 8.05 -3.65 -33.65 3.4 -31.45 Z" fill="none" stroke="#000000" stroke-linecap="round" stroke-linejoin="round" stroke-width="0.05"/>
    <path d="M3.95 -3.35 L-4.6 -6.0 -4.45 -8.75 4.55 -6.1 3.95 -3.35" fill="url(#gradient1)" fill-rule="evenodd" stroke="none"/>
    <path d="M-4.15 5.15 L0.5 3.75 4.5 2.6 5.15 2.4 5.95 5.15 0.5 7.7 -4.15 5.15" fill="url(#gradient2)" fill-rule="evenodd" stroke="none"/>
    <path d="M0.5 3.75 L-5.3 1.55 -4.95 -0.15 4.2 -0.75 4.5 2.6 0.5 3.75" fill="url(#gradient3)" fill-rule="evenodd" stroke="none"/>
    <path d="M-3.7 10.4 L-6.65 8.15 -6.2 4.0 -4.15 5.15 0.5 7.7 6.3 10.85 5.0 17.0 1.6 14.4 -3.7 10.4" fill="url(#gradient4)" fill-rule="evenodd" stroke="none"/>
    <path d="M1.6 14.4 Q-0.45 20.6 1.3 28.55 L-1.8 27.95 -3.7 10.4 1.6 14.4" fill="url(#gradient5)" fill-rule="evenodd" stroke="none"/>
    <path d="M3.95 -3.35 L-4.6 -6.0 -4.45 -8.75 4.55 -6.1 3.95 -3.35 M1.6 14.4 Q-0.45 20.6 1.3 28.55 L-1.8 27.95 -3.7 10.4 -6.65 8.15 -6.2 4.0 -4.15 5.15 0.5 3.75 -5.3 1.55 -4.95 -0.15 4.2 -0.75 4.5 2.6 5.15 2.4 5.95 5.15 0.5 7.7 6.3 10.85 5.0 17.0 1.6 14.4 -3.7 10.4 M0.5 3.75 L4.5 2.6 M-4.15 5.15 L0.5 7.7" fill="none" stroke="#000000" stroke-linecap="round" stroke-linejoin="round" stroke-width="0.05"/>
  </g>
  <defs>
    <radialGradient cx="0" cy="0" gradientTransform="matrix(0.0145, 0.0, 0.0, 0.0499, -0.8, 5.45)" gradientUnits="userSpaceOnUse" id="gradient0" r="819.2" spreadMethod="pad">
      <stop offset="0.0" stop-color="#ff6600"/>
      <stop offset="0.396078431372549" stop-color="#523625"/>
      <stop offset="0.7176470588235294" stop-color="#33302b"/>
      <stop offset="1.0" stop-color="#1a1e22"/>
    </radialGradient>
    <linearGradient gradientTransform="matrix(0.0056, 0.0, 0.0, 0.0033, -0.05, -6.05)" gradientUnits="userSpaceOnUse" id="gradient1" spreadMethod="pad" x1="-819.2" x2="819.2">
      <stop offset="0.0" stop-color="#6a5940"/>
      <stop offset="1.0" stop-color="#454432"/>
    </linearGradient>
    <linearGradient gradientTransform="matrix(0.0062, 0.0, 0.0, 0.0032, 0.9, 5.05)" gradientUnits="userSpaceOnUse" id="gradient2" spreadMethod="pad" x1="-819.2" x2="819.2">
      <stop offset="0.0" stop-color="#6a5940"/>
      <stop offset="1.0" stop-color="#454432"/>
    </linearGradient>
    <linearGradient gradientTransform="matrix(0.006, 0.0, 0.0, 0.0027, -0.4, 1.5)" gradientUnits="userSpaceOnUse" id="gradient3" spreadMethod="pad" x1="-819.2" x2="819.2">
      <stop offset="0.0" stop-color="#8f7d56"/>
      <stop offset="1.0" stop-color="#394f48"/>
    </linearGradient>
    <linearGradient gradientTransform="matrix(0.0079, 0.0, 0.0, 0.0079, -0.2, 10.5)" gradientUnits="userSpaceOnUse" id="gradient4" spreadMethod="pad" x1="-819.2" x2="819.2">
      <stop offset="0.0" stop-color="#8f7d56"/>
      <stop offset="1.0" stop-color="#394f48"/>
    </linearGradient>
    <linearGradient gradientTransform="matrix(5.0E-4, -0.0109, 0.0036, 2.0E-4, -1.2, 19.55)" gradientUnits="userSpaceOnUse" id="gradient5" spreadMethod="pad" x1="-819.2" x2="819.2">
      <stop offset="0.0" stop-color="#6a5940"/>
      <stop offset="1.0" stop-color="#222b26"/>
    </linearGradient>
  </defs>
</svg>
