<?xml version="1.0" encoding="UTF-8" standalone="no"?>
<svg xmlns:xlink="http://www.w3.org/1999/xlink" height="84.35px" width="72.55px" xmlns="http://www.w3.org/2000/svg">
  <g transform="matrix(1.0, 0.0, 0.0, 1.0, 15.6, 56.2)">
    <path d="M56.55 -56.2 L56.95 -55.8 53.35 -51.9 52.6 -51.9 56.55 -56.2" fill="url(#gradient0)" fill-rule="evenodd" stroke="none"/>
    <path d="M10.35 -9.75 L10.85 -10.3 10.35 -9.7 10.35 -9.75" fill="url(#gradient1)" fill-rule="evenodd" stroke="none"/>
    <path d="M14.15 -8.9 L14.35 -8.8 14.45 -8.7 14.4 -8.7 14.35 -8.65 14.35 -8.7 14.2 -8.85 14.15 -8.9 M14.35 -8.8 L14.2 -8.85 14.35 -8.8" fill="url(#gradient2)" fill-rule="evenodd" stroke="none"/>
    <path d="M13.55 -2.25 L20.4 4.3 17.85 6.1 17.2 5.95 11.2 0.25 12.65 -1.3 13.55 -2.25" fill="url(#gradient3)" fill-rule="evenodd" stroke="none"/>
    <path d="M11.45 7.5 L10.6 8.45 6.85 4.85 7.7 3.9 11.45 7.5" fill="url(#gradient4)" fill-rule="evenodd" stroke="none"/>
    <path d="M-3.45 15.6 L-3.6 15.75 -3.5 15.6 -3.45 15.6" fill="url(#gradient5)" fill-rule="evenodd" stroke="none"/>
    <path d="M-4.15 16.35 L-4.4 16.55 -4.65 16.45 -3.5 15.6 -3.6 15.75 -4.15 16.35" fill="#0d0d0d" fill-rule="evenodd" stroke="none"/>
    <path d="M15.55 -8.0 L51.6 -47.5 52.35 -47.5 15.95 -7.65 15.55 -8.0" fill="url(#gradient6)" fill-rule="evenodd" stroke="none"/>
    <path d="M-5.45 18.6 L-10.95 28.15 -15.6 21.95 -14.1 17.4 -10.75 15.05 -10.05 14.25 -8.6 15.65 -5.45 18.6" fill="url(#gradient7)" fill-rule="evenodd" stroke="none"/>
    <path d="M-9.2 13.35 L-10.55 9.95 -7.25 6.4 -3.65 2.5 -0.05 -1.4 3.65 -0.5 3.35 -0.2 2.65 0.55 0.4 0.2 -8.75 10.1 -8.0 12.05 -9.2 13.35" fill="url(#gradient8)" fill-rule="evenodd" stroke="none"/>
    <path d="M-8.3 4.95 L-9.65 6.25 -11.15 4.4 -5.15 -2.0 -3.75 0.45 -4.6 1.3 -8.3 4.95" fill="url(#gradient9)" fill-rule="evenodd" stroke="none"/>
    <path d="M17.2 5.95 L13.6 5.3 11.45 7.5 7.7 3.9 11.2 0.25 17.2 5.95" fill="url(#gradient10)" fill-rule="evenodd" stroke="none"/>
    <path d="M10.6 8.45 L10.25 8.85 10.4 11.5 8.45 12.85 2.1 10.55 1.7 10.2 6.85 4.85 10.6 8.45" fill="url(#gradient11)" fill-rule="evenodd" stroke="none"/>
    <path d="M1.7 10.2 L-3.45 15.6 -3.5 15.6 -4.65 16.45 -5.4 18.55 -5.45 18.6 -8.6 15.65 4.15 2.3 6.85 4.85 1.7 10.2" fill="url(#gradient12)" fill-rule="evenodd" stroke="none"/>
    <path d="M5.35 -5.35 L7.05 -6.7 12.65 -1.3 11.2 0.25 5.35 -5.35" fill="url(#gradient13)" fill-rule="evenodd" stroke="none"/>
    <path d="M15.75 -4.55 L14.3 -3.05 8.8 -8.2 9.25 -8.55 10.35 -9.75 10.35 -9.7 15.75 -4.55" fill="url(#gradient14)" fill-rule="evenodd" stroke="none"/>
    <path d="M3.65 -0.5 L3.85 -0.75 4.65 -4.75 5.35 -5.35 11.2 0.25 7.7 3.9 3.35 -0.2 3.65 -0.5" fill="url(#gradient15)" fill-rule="evenodd" stroke="none"/>
    <path d="M-10.05 14.25 L-9.2 13.35 -8.0 12.05 2.5 0.75 4.15 2.3 -8.6 15.65 -10.05 14.25" fill="url(#gradient16)" fill-rule="evenodd" stroke="none"/>
    <path d="M15.55 -7.65 L17.2 -6.05 15.75 -4.55 10.35 -9.7 10.9 -10.25 10.9 -10.3 11.8 -9.9 14.15 -8.85 14.2 -8.85 14.35 -8.7 14.35 -8.65 14.4 -8.7 15.55 -7.65 M14.3 -3.05 L13.55 -2.25 12.65 -1.3 7.05 -6.7 8.8 -8.2 14.3 -3.05" fill="url(#gradient17)" fill-rule="evenodd" stroke="none"/>
    <path d="M-7.25 6.4 L-8.3 4.95 -4.6 1.3 -3.65 2.5 -7.25 6.4" fill="url(#gradient18)" fill-rule="evenodd" stroke="none"/>
    <path d="M-3.6 15.75 L4.25 23.75 3.15 25.25 -5.45 18.75 -5.4 18.55 -4.15 16.35 -3.6 15.75" fill="url(#gradient19)" fill-rule="evenodd" stroke="none"/>
    <path d="M3.35 -0.2 L7.7 3.9 6.85 4.85 4.15 2.3 2.5 0.75 2.65 0.55 3.35 -0.2" fill="url(#gradient20)" fill-rule="evenodd" stroke="none"/>
    <path d="M27.5 -27.7 L31.95 -32.7 32.85 -33.75 34.4 -31.85 14.15 -8.9 14.15 -8.85 11.8 -9.9 27.5 -27.7" fill="url(#gradient21)" fill-rule="evenodd" stroke="none"/>
    <path d="M27.5 -27.7 L26.85 -29.5 30.35 -34.55 31.95 -32.7 27.5 -27.7" fill="url(#gradient22)" fill-rule="evenodd" stroke="none"/>
    <path d="M31.95 -32.7 L30.35 -34.55 26.85 -29.5 27.5 -27.7 31.95 -32.7 32.85 -33.75 34.4 -31.85 14.15 -8.9 14.15 -8.85 11.8 -9.9 27.5 -27.7 M14.45 -8.7 L15.55 -7.65 17.2 -6.05 15.75 -4.55 14.3 -3.05 13.55 -2.25 20.4 4.3 17.85 6.1 17.2 5.95 13.6 5.3 11.45 7.5 10.6 8.45 10.25 8.85 10.4 11.5 8.45 12.85 2.1 10.55 M1.7 10.2 L-3.45 15.6 -3.6 15.75 4.25 23.75 3.15 25.25 -5.45 18.75 -5.4 18.55 -5.45 18.6 -10.95 28.15 -15.6 21.95 -14.1 17.4 -10.75 15.05 -10.05 14.25 -9.2 13.35 -10.55 9.95 -7.25 6.4 -8.3 4.95 -9.65 6.25 -11.15 4.4 -5.15 -2.0 -3.75 0.45 -4.6 1.3 -3.65 2.5 -0.05 -1.4 3.65 -0.5 3.85 -0.75 4.65 -4.75 5.35 -5.35 7.05 -6.7 8.8 -8.2 9.25 -8.55 10.35 -9.75 10.85 -10.3 M10.9 -10.3 L11.8 -9.9 M3.65 -0.5 L3.35 -0.2 2.65 0.55 0.4 0.2 -8.75 10.1 -8.0 12.05 2.5 0.75 2.65 0.55 M7.7 3.9 L11.2 0.25 12.65 -1.3 13.55 -2.25 M10.35 -9.7 L15.75 -4.55 M14.2 -8.85 L14.15 -8.85 M14.4 -8.7 L14.35 -8.65 14.35 -8.7 14.2 -8.85 14.15 -8.9 M14.45 -8.7 L14.4 -8.7 M14.2 -8.85 L14.35 -8.8 M7.05 -6.7 L12.65 -1.3 M8.8 -8.2 L14.3 -3.05 M1.7 10.2 L6.85 4.85 M-4.6 1.3 L-8.3 4.95 M-7.25 6.4 L-3.65 2.5 M-4.65 16.45 L-5.4 18.55 M-3.6 15.75 L-3.5 15.6 -4.65 16.45 M-10.05 14.25 L-8.6 15.65 -5.45 18.6 M-8.0 12.05 L-9.2 13.35" fill="none" stroke="#000000" stroke-linecap="round" stroke-linejoin="round" stroke-width="0.05"/>
  </g>
  <defs>
    <linearGradient gradientTransform="matrix(0.0244, -0.0267, 2.0E-4, 2.0E-4, 36.65, -34.1)" gradientUnits="userSpaceOnUse" id="gradient0" spreadMethod="pad" x1="-819.2" x2="819.2">
      <stop offset="0.0" stop-color="#ff0000" stop-opacity="0.7411765"/>
      <stop offset="0.803921568627451" stop-color="#ff0000" stop-opacity="0.0"/>
    </linearGradient>
    <linearGradient gradientTransform="matrix(-0.0027, -0.0039, 0.0019, -0.0013, 12.3, -6.35)" gradientUnits="userSpaceOnUse" id="gradient1" spreadMethod="pad" x1="-819.2" x2="819.2">
      <stop offset="0.0" stop-color="#888888"/>
      <stop offset="0.5019607843137255" stop-color="#404040"/>
      <stop offset="1.0" stop-color="#7b7b7b"/>
    </linearGradient>
    <linearGradient gradientTransform="matrix(-0.0014, -0.0019, 0.0046, -0.0051, 16.0, -13.3)" gradientUnits="userSpaceOnUse" id="gradient2" spreadMethod="pad" x1="-819.2" x2="819.2">
      <stop offset="0.0" stop-color="#2b2b2b"/>
      <stop offset="0.5019607843137255" stop-color="#0d0d0d"/>
      <stop offset="1.0" stop-color="#404040"/>
    </linearGradient>
    <linearGradient gradientTransform="matrix(-0.0044, -0.0039, 0.0015, -0.0018, 15.85, 2.25)" gradientUnits="userSpaceOnUse" id="gradient3" spreadMethod="pad" x1="-819.2" x2="819.2">
      <stop offset="0.0" stop-color="#111111"/>
      <stop offset="0.5882352941176471" stop-color="#484848"/>
      <stop offset="1.0" stop-color="#111111"/>
    </linearGradient>
    <linearGradient gradientTransform="matrix(0.0028, 0.0018, -6.0E-4, 0.0012, 9.15, 6.1)" gradientUnits="userSpaceOnUse" id="gradient4" spreadMethod="pad" x1="-819.2" x2="819.2">
      <stop offset="0.0" stop-color="#111111"/>
      <stop offset="0.5882352941176471" stop-color="#484848"/>
      <stop offset="1.0" stop-color="#111111"/>
    </linearGradient>
    <linearGradient gradientTransform="matrix(-0.0019, -0.0018, 0.0078, -0.0082, -0.7, 10.45)" gradientUnits="userSpaceOnUse" id="gradient5" spreadMethod="pad" x1="-819.2" x2="819.2">
      <stop offset="0.0" stop-color="#595959"/>
      <stop offset="0.5019607843137255" stop-color="#aeaeae"/>
      <stop offset="1.0" stop-color="#484848"/>
    </linearGradient>
    <linearGradient gradientTransform="matrix(0.0244, -0.0267, 2.0E-4, 2.0E-4, 35.65, -29.7)" gradientUnits="userSpaceOnUse" id="gradient6" spreadMethod="pad" x1="-819.2" x2="819.2">
      <stop offset="0.0" stop-color="#33ff00"/>
      <stop offset="1.0" stop-color="#00ff1a" stop-opacity="0.0"/>
    </linearGradient>
    <linearGradient gradientTransform="matrix(0.0062, 0.0, 0.0, 0.0085, -10.55, 21.2)" gradientUnits="userSpaceOnUse" id="gradient7" spreadMethod="pad" x1="-819.2" x2="819.2">
      <stop offset="0.0" stop-color="#efece4"/>
      <stop offset="0.45098039215686275" stop-color="#8d662e"/>
      <stop offset="0.4666666666666667" stop-color="#422c0b"/>
      <stop offset="0.7294117647058823" stop-color="#bf8837"/>
      <stop offset="1.0" stop-color="#cba670"/>
    </linearGradient>
    <linearGradient gradientTransform="matrix(0.0087, 0.0, 0.0, 0.009, -3.45, 5.95)" gradientUnits="userSpaceOnUse" id="gradient8" spreadMethod="pad" x1="-819.2" x2="819.2">
      <stop offset="0.0" stop-color="#efece4"/>
      <stop offset="0.45098039215686275" stop-color="#8d662e"/>
      <stop offset="0.4666666666666667" stop-color="#422c0b"/>
      <stop offset="0.7294117647058823" stop-color="#bf8837"/>
      <stop offset="1.0" stop-color="#cba670"/>
    </linearGradient>
    <linearGradient gradientTransform="matrix(0.0045, 0.0, 0.0, 0.005, -7.45, 2.1)" gradientUnits="userSpaceOnUse" id="gradient9" spreadMethod="pad" x1="-819.2" x2="819.2">
      <stop offset="0.0" stop-color="#efece4"/>
      <stop offset="0.45098039215686275" stop-color="#8d662e"/>
      <stop offset="0.4666666666666667" stop-color="#422c0b"/>
      <stop offset="0.7294117647058823" stop-color="#bf8837"/>
      <stop offset="1.0" stop-color="#cba670"/>
    </linearGradient>
    <linearGradient gradientTransform="matrix(0.0058, 0.0, 0.0, 0.0044, 12.45, 3.85)" gradientUnits="userSpaceOnUse" id="gradient10" spreadMethod="pad" x1="-819.2" x2="819.2">
      <stop offset="0.0" stop-color="#efece4"/>
      <stop offset="0.45098039215686275" stop-color="#8d662e"/>
      <stop offset="0.4666666666666667" stop-color="#422c0b"/>
      <stop offset="0.7294117647058823" stop-color="#bf8837"/>
      <stop offset="1.0" stop-color="#cba670"/>
    </linearGradient>
    <linearGradient gradientTransform="matrix(0.0054, 0.0, 0.0, 0.0049, 6.15, 8.85)" gradientUnits="userSpaceOnUse" id="gradient11" spreadMethod="pad" x1="-819.2" x2="819.2">
      <stop offset="0.0" stop-color="#efece4"/>
      <stop offset="0.45098039215686275" stop-color="#8d662e"/>
      <stop offset="0.4666666666666667" stop-color="#422c0b"/>
      <stop offset="0.7294117647058823" stop-color="#bf8837"/>
      <stop offset="1.0" stop-color="#cba670"/>
    </linearGradient>
    <linearGradient gradientTransform="matrix(0.0094, 0.0, 0.0, 0.0099, -0.9, 10.45)" gradientUnits="userSpaceOnUse" id="gradient12" spreadMethod="pad" x1="-819.2" x2="819.2">
      <stop offset="0.0" stop-color="#efece4"/>
      <stop offset="0.45098039215686275" stop-color="#8d662e"/>
      <stop offset="0.4666666666666667" stop-color="#422c0b"/>
      <stop offset="0.7294117647058823" stop-color="#bf8837"/>
      <stop offset="1.0" stop-color="#cba670"/>
    </linearGradient>
    <linearGradient gradientTransform="matrix(0.0045, 0.0, 0.0, 0.0042, 9.0, -3.25)" gradientUnits="userSpaceOnUse" id="gradient13" spreadMethod="pad" x1="-819.2" x2="819.2">
      <stop offset="0.0" stop-color="#efece4"/>
      <stop offset="0.45098039215686275" stop-color="#8d662e"/>
      <stop offset="0.4666666666666667" stop-color="#422c0b"/>
      <stop offset="0.7294117647058823" stop-color="#bf8837"/>
      <stop offset="1.0" stop-color="#cba670"/>
    </linearGradient>
    <linearGradient gradientTransform="matrix(0.0042, 0.0, 0.0, 0.0041, 12.25, -6.4)" gradientUnits="userSpaceOnUse" id="gradient14" spreadMethod="pad" x1="-819.2" x2="819.2">
      <stop offset="0.0" stop-color="#efece4"/>
      <stop offset="0.45098039215686275" stop-color="#8d662e"/>
      <stop offset="0.4666666666666667" stop-color="#422c0b"/>
      <stop offset="0.7294117647058823" stop-color="#bf8837"/>
      <stop offset="1.0" stop-color="#cba670"/>
    </linearGradient>
    <linearGradient gradientTransform="matrix(-0.0036, -0.0035, 0.0021, -0.0023, 6.5, -0.75)" gradientUnits="userSpaceOnUse" id="gradient15" spreadMethod="pad" x1="-819.2" x2="819.2">
      <stop offset="0.0" stop-color="#3f3227"/>
      <stop offset="0.5019607843137255" stop-color="#6b5247"/>
      <stop offset="1.0" stop-color="#26201e"/>
    </linearGradient>
    <linearGradient gradientTransform="matrix(-0.001, -9.0E-4, 0.0078, -0.0082, -3.0, 8.2)" gradientUnits="userSpaceOnUse" id="gradient16" spreadMethod="pad" x1="-819.2" x2="819.2">
      <stop offset="0.0" stop-color="#3f3227"/>
      <stop offset="0.5019607843137255" stop-color="#6b5247"/>
      <stop offset="1.0" stop-color="#26201e"/>
    </linearGradient>
    <linearGradient gradientTransform="matrix(-0.0036, -0.0034, 0.0036, -0.0038, 11.25, -5.65)" gradientUnits="userSpaceOnUse" id="gradient17" spreadMethod="pad" x1="-819.2" x2="819.2">
      <stop offset="0.0" stop-color="#3f3227"/>
      <stop offset="0.5019607843137255" stop-color="#6b5247"/>
      <stop offset="1.0" stop-color="#26201e"/>
    </linearGradient>
    <linearGradient gradientTransform="matrix(-8.0E-4, -7.0E-4, 0.0023, -0.0025, -6.0, 3.8)" gradientUnits="userSpaceOnUse" id="gradient18" spreadMethod="pad" x1="-819.2" x2="819.2">
      <stop offset="0.0" stop-color="#3f3227"/>
      <stop offset="0.5019607843137255" stop-color="#6b5247"/>
      <stop offset="1.0" stop-color="#26201e"/>
    </linearGradient>
    <linearGradient gradientTransform="matrix(-0.005, -0.0042, 0.0015, -0.0019, -0.15, 20.7)" gradientUnits="userSpaceOnUse" id="gradient19" spreadMethod="pad" x1="-819.2" x2="819.2">
      <stop offset="0.0" stop-color="#3f3227"/>
      <stop offset="0.5019607843137255" stop-color="#6b5247"/>
      <stop offset="1.0" stop-color="#26201e"/>
    </linearGradient>
    <linearGradient gradientTransform="matrix(0.0027, 0.0025, -5.0E-4, 6.0E-4, 5.1, 2.3)" gradientUnits="userSpaceOnUse" id="gradient20" spreadMethod="pad" x1="-819.2" x2="819.2">
      <stop offset="0.0" stop-color="#3f3227"/>
      <stop offset="0.5019607843137255" stop-color="#6b5247"/>
      <stop offset="1.0" stop-color="#26201e"/>
    </linearGradient>
    <linearGradient gradientTransform="matrix(-0.0016, -0.0015, 0.0133, -0.0141, 23.2, -20.95)" gradientUnits="userSpaceOnUse" id="gradient21" spreadMethod="pad" x1="-819.2" x2="819.2">
      <stop offset="0.0" stop-color="#111111"/>
      <stop offset="0.5882352941176471" stop-color="#484848"/>
      <stop offset="1.0" stop-color="#111111"/>
    </linearGradient>
    <linearGradient gradientTransform="matrix(-0.0012, -0.0011, 0.0029, -0.0031, 28.95, -31.1)" gradientUnits="userSpaceOnUse" id="gradient22" spreadMethod="pad" x1="-819.2" x2="819.2">
      <stop offset="0.0" stop-color="#111111"/>
      <stop offset="0.5882352941176471" stop-color="#484848"/>
      <stop offset="1.0" stop-color="#111111"/>
    </linearGradient>
  </defs>
</svg>
