<?xml version="1.0" encoding="UTF-8" standalone="no"?>
<svg xmlns:xlink="http://www.w3.org/1999/xlink" height="20.85px" width="12.6px" xmlns="http://www.w3.org/2000/svg">
  <g transform="matrix(1.0, 0.0, 0.0, 1.0, 6.85, 5.4)">
    <path d="M-4.95 -2.7 Q2.3 -9.25 5.75 0.05 L4.7 -0.1 Q1.05 3.95 1.05 8.1 L1.05 15.45 Q0.2 14.75 0.1 12.0 L0.2 6.0 Q-0.3 6.75 -0.15 10.2 -0.1 10.45 -0.7 10.75 -1.3 11.0 -2.4 10.3 -3.55 9.6 -2.85 4.95 -3.5 5.65 -3.85 8.65 -5.0 7.6 -5.05 6.7 -5.2 5.75 -3.65 0.25 L-3.65 0.2 Q-3.85 0.3 -6.25 4.95 -7.05 4.8 -6.8 3.4 -6.6 2.0 -4.95 -1.2 -4.7 -1.75 -4.95 -2.7" fill="url(#gradient0)" fill-rule="evenodd" stroke="none"/>
  </g>
  <defs>
    <radialGradient cx="0" cy="0" gradientTransform="matrix(0.0179, 0.0, 0.0, 0.0179, -1.35, 0.95)" gradientUnits="userSpaceOnUse" id="gradient0" r="819.2" spreadMethod="pad">
      <stop offset="0.0" stop-color="#95651e"/>
      <stop offset="1.0" stop-color="#000000"/>
    </radialGradient>
  </defs>
</svg>
