<?xml version="1.0" encoding="UTF-8" standalone="no"?>
<svg xmlns:xlink="http://www.w3.org/1999/xlink" height="33.75px" width="19.85px" xmlns="http://www.w3.org/2000/svg">
  <g transform="matrix(1.0, 0.0, 0.0, 1.0, 9.9, 17.3)">
    <path d="M7.85 -7.65 L7.5 -6.95 7.4 -7.8 7.85 -7.65 M-5.85 -4.35 L-6.4 -5.55 -6.15 -5.6 -5.85 -4.35" fill="url(#gradient0)" fill-rule="evenodd" stroke="none"/>
    <path d="M5.9 12.0 L5.95 13.05 2.15 16.45 -5.0 12.6 -4.85 10.4 Q1.65 12.5 5.9 12.0" fill="url(#gradient1)" fill-rule="evenodd" stroke="none"/>
    <path d="M5.7 10.05 L5.8 10.05 5.9 12.0 Q1.65 12.5 -4.85 10.4 L-4.7 8.75 -2.3 9.05 5.7 10.05" fill="url(#gradient2)" fill-rule="evenodd" stroke="none"/>
    <path d="M6.55 -1.7 L6.55 -1.65 4.95 5.05 5.0 5.05 Q6.0 7.7 5.7 10.05 L-2.3 9.05 -2.5 6.7 Q-2.5 2.85 -0.65 0.1 1.2 -2.6 3.8 -2.6 L4.65 -2.5 Q5.65 -2.35 6.55 -1.7" fill="url(#gradient3)" fill-rule="evenodd" stroke="none"/>
    <path d="M-6.15 -5.6 L-6.2 -5.7 -6.25 -5.7 -9.9 -7.8 Q-9.9 -11.6 -5.2 -13.65 L-1.95 -14.05 -1.9 -12.65 -1.9 -12.15 Q-1.95 -10.55 -2.4 -9.3 -3.4 -6.7 -6.15 -5.6" fill="url(#gradient4)" fill-rule="evenodd" stroke="none"/>
    <path d="M-1.95 -14.05 L-1.75 -14.1 0.8 -17.0 Q4.6 -18.35 4.4 -13.1 L3.35 -12.35 5.4 -11.5 7.4 -7.8 7.5 -6.95 7.75 -4.2 7.3 -3.3 7.1 -2.95 6.55 -1.7 Q5.65 -2.35 4.65 -2.5 L3.8 -2.6 Q1.2 -2.6 -0.65 0.1 -2.5 2.85 -2.5 6.7 L-2.3 9.05 -4.7 8.75 -5.1 4.45 -4.95 4.45 -4.95 4.4 Q-4.6 -0.75 -5.85 -4.35 L-6.15 -5.6 Q-3.4 -6.7 -2.4 -9.3 -1.95 -10.55 -1.9 -12.15 L-1.9 -12.65 -1.95 -14.05" fill="url(#gradient5)" fill-rule="evenodd" stroke="none"/>
    <path d="M4.4 -13.1 L4.65 -13.1 Q9.15 -11.95 9.95 -9.1 L7.85 -7.65 7.4 -7.8 5.4 -11.5 3.35 -12.35 4.4 -13.1" fill="url(#gradient6)" fill-rule="evenodd" stroke="none"/>
    <path d="M-1.95 -14.05 L-1.75 -14.1 0.8 -17.0 Q4.6 -18.35 4.4 -13.1 L3.35 -12.35 M4.65 -13.1 Q9.15 -11.95 9.95 -9.1 M7.85 -7.65 L7.5 -6.95 7.75 -4.2 7.3 -3.3 7.1 -2.95 6.55 -1.7 6.55 -1.65 4.95 5.05 5.0 5.05 Q6.0 7.7 5.7 10.05 L5.8 10.05 5.9 12.0 5.95 13.05 M-5.0 12.6 L-4.85 10.4 -4.7 8.75 -5.1 4.45 -5.1 4.4 -4.95 4.45 -4.95 4.4 Q-4.6 -0.75 -5.85 -4.35 L-6.15 -5.6 -6.2 -5.7 -6.25 -5.7 M-9.9 -7.8 Q-9.9 -11.6 -5.2 -13.65 L-1.95 -14.05 M7.4 -7.8 L7.5 -6.95 M-2.3 9.05 L5.7 10.05 M-2.3 9.05 L-4.7 8.75 M-4.85 10.4 Q1.65 12.5 5.9 12.0" fill="none" stroke="#000000" stroke-linecap="round" stroke-linejoin="round" stroke-width="0.05"/>
    <path d="M0.9 -13.6 Q0.7 -15.15 1.4 -15.15 2.4 -15.15 3.05 -13.75 L3.55 -12.35 4.6 -12.35 Q5.25 -12.35 5.25 -11.75 L4.8 -11.1 4.7 -11.15 4.7 -11.1 4.2 -10.7 4.95 -11.15 5.6 -11.0 5.7 -10.95 Q3.85 -9.9 3.65 -9.9 2.2 -9.9 -2.0 -11.9 L-2.0 -12.0 -3.0 -12.2 -3.8 -11.85 -4.5 -11.85 -4.55 -12.05 Q-4.55 -12.45 -2.1 -12.95 L-1.85 -12.85 -0.65 -12.5 1.2 -12.4 0.9 -13.6 M4.35 -9.35 Q4.95 -7.85 4.95 -4.5 L4.65 -2.8 5.1 -2.5 Q5.65 -2.15 6.5 -2.1 L6.6 -1.8 Q6.6 -1.5 5.9 -1.5 L4.35 -2.2 4.25 -2.0 4.25 -1.95 4.25 -1.3 5.0 -0.75 4.2 -0.65 3.65 4.1 4.6 4.25 4.95 4.55 4.95 4.65 3.6 4.65 3.3 6.65 3.2 6.75 2.7 5.6 2.7 4.7 1.15 5.1 Q0.6 5.4 0.35 5.85 L0.3 5.55 Q0.3 4.2 2.75 4.1 2.8 1.2 3.3 -0.5 0.9 -0.1 0.8 0.75 L0.75 0.8 Q0.3 0.8 0.3 0.45 0.3 -1.25 3.55 -1.35 L4.0 -2.15 3.9 -2.3 Q3.9 -3.0 4.4 -4.65 L4.4 -4.75 3.95 -8.85 Q3.95 -9.3 4.35 -9.35" fill="#000000" fill-opacity="0.3019608" fill-rule="evenodd" stroke="none"/>
    <path d="M7.35 -9.7 L7.6 -9.4 7.6 -8.9 7.55 -8.75 7.45 -8.65 7.35 -8.6 7.0 -8.5 6.7 -8.55 6.55 -8.7 6.4 -8.8 6.25 -9.05 6.2 -9.3 6.2 -9.4 6.25 -9.55 6.35 -9.65 6.55 -9.8 6.85 -9.95 7.35 -9.7 M6.95 -6.25 L7.2 -6.0 7.35 -5.8 7.35 -5.65 7.25 -5.45 Q7.1 -5.05 6.7 -5.05 L6.1 -5.4 6.1 -5.5 6.05 -5.65 6.05 -5.75 6.05 -5.85 6.15 -6.1 6.3 -6.2 6.45 -6.3 6.7 -6.35 6.95 -6.25 M-3.9 -8.8 Q-3.45 -8.85 -3.2 -8.5 -2.9 -8.1 -2.95 -7.65 -3.05 -7.15 -3.45 -6.95 L-3.5 -6.9 -3.75 -6.85 -3.9 -6.85 -4.25 -6.95 -4.65 -7.4 -4.7 -8.15 -4.25 -8.7 -3.9 -8.8 M-1.65 -6.4 L-1.65 -6.5 -1.55 -6.75 -1.4 -6.9 -1.25 -6.95 -1.0 -7.0 -0.75 -6.9 -0.5 -6.65 -0.4 -6.45 -0.35 -6.3 -0.45 -6.1 Q-0.65 -5.7 -1.0 -5.7 L-1.6 -6.05 -1.65 -6.15 -1.65 -6.3 -1.65 -6.4 M-2.15 -4.5 L-1.75 -4.0 Q-1.5 -3.45 -1.75 -2.9 -2.05 -2.1 -2.95 -2.3 L-3.25 -2.35 -3.6 -2.7 -3.8 -3.6 Q-3.8 -4.1 -3.35 -4.4 L-2.95 -4.55 -2.45 -4.55 -2.15 -4.5 M-2.2 1.1 L-1.95 1.35 -1.8 1.55 -1.8 1.7 -1.9 1.9 Q-2.05 2.3 -2.45 2.3 L-3.0 1.95 -3.05 1.85 -3.1 1.7 -3.1 1.6 -3.1 1.5 -3.0 1.25 -2.85 1.1 -2.7 1.05 -2.45 1.0 -2.2 1.1 M-3.85 4.7 L-3.6 4.6 -3.45 4.65 -3.2 4.7 -3.05 4.85 -2.85 5.05 -2.85 5.2 -2.85 5.3 -2.9 5.55 -3.2 5.95 -3.35 6.0 -3.75 6.0 -4.2 5.8 -4.4 5.5 -4.4 5.25 -4.25 5.0 -3.85 4.7" fill="#000000" fill-opacity="0.34117648" fill-rule="evenodd" stroke="none"/>
  </g>
  <defs>
    <radialGradient cx="0" cy="0" gradientTransform="matrix(0.0222, 0.0, 0.0, 0.0222, 2.85, -1.75)" gradientUnits="userSpaceOnUse" id="gradient0" r="819.2" spreadMethod="pad">
      <stop offset="0.0" stop-color="#6a7249"/>
      <stop offset="1.0" stop-color="#393a2c"/>
    </radialGradient>
    <radialGradient cx="0" cy="0" gradientTransform="matrix(0.0076, 0.0, 0.0, 0.0076, 0.4, 10.45)" gradientUnits="userSpaceOnUse" id="gradient1" r="819.2" spreadMethod="pad">
      <stop offset="0.0" stop-color="#462b28"/>
      <stop offset="0.8509803921568627" stop-color="#1c1817"/>
    </radialGradient>
    <radialGradient cx="0" cy="0" gradientTransform="matrix(0.0076, 0.0, 0.0, 0.0076, 0.4, 10.45)" gradientUnits="userSpaceOnUse" id="gradient2" r="819.2" spreadMethod="pad">
      <stop offset="0.0" stop-color="#cda9a9"/>
      <stop offset="0.8509803921568627" stop-color="#706699"/>
    </radialGradient>
    <radialGradient cx="0" cy="0" gradientTransform="matrix(0.0135, 0.0, 0.0, 0.0135, -0.65, 6.15)" gradientUnits="userSpaceOnUse" id="gradient3" r="819.2" spreadMethod="pad">
      <stop offset="0.0" stop-color="#a79b72"/>
      <stop offset="1.0" stop-color="#25241f"/>
    </radialGradient>
    <radialGradient cx="0" cy="0" gradientTransform="matrix(0.0076, 0.0, 0.0, 0.0076, -6.55, -9.95)" gradientUnits="userSpaceOnUse" id="gradient4" r="819.2" spreadMethod="pad">
      <stop offset="0.0" stop-color="#b6dfb0"/>
      <stop offset="0.5294117647058824" stop-color="#bca287"/>
      <stop offset="1.0" stop-color="#4d6f77"/>
    </radialGradient>
    <radialGradient cx="0" cy="0" gradientTransform="matrix(0.0098, 0.0011, -0.0018, 0.0157, 0.8, -3.65)" gradientUnits="userSpaceOnUse" id="gradient5" r="819.2" spreadMethod="pad">
      <stop offset="0.0" stop-color="#b6dfb0"/>
      <stop offset="0.5294117647058824" stop-color="#bca287"/>
      <stop offset="1.0" stop-color="#4d6f77"/>
    </radialGradient>
    <radialGradient cx="0" cy="0" gradientTransform="matrix(0.0065, 0.0, 0.0, 0.0065, 7.6, -9.15)" gradientUnits="userSpaceOnUse" id="gradient6" r="819.2" spreadMethod="pad">
      <stop offset="0.0" stop-color="#b6dfb0"/>
      <stop offset="0.5294117647058824" stop-color="#bca287"/>
      <stop offset="1.0" stop-color="#4d6f77"/>
    </radialGradient>
  </defs>
</svg>
