<?xml version="1.0" encoding="UTF-8" standalone="no"?>
<svg xmlns:xlink="http://www.w3.org/1999/xlink" height="30.5px" width="31.25px" xmlns="http://www.w3.org/2000/svg">
  <g transform="matrix(1.0, 0.0, 0.0, 1.0, 15.95, 15.4)">
    <path d="M-6.45 -7.65 L-5.75 -3.0 -8.95 -4.9 -8.15 -6.05 -6.95 -7.9 -6.45 -7.65 M-5.65 -2.05 L-4.45 6.35 -8.95 2.1 -5.65 -2.05 M4.8 4.7 L4.65 4.9 4.7 4.35 5.7 -6.3 6.2 -6.25 8.05 -4.4 6.3 -2.15 7.8 -0.4 4.8 4.7 4.7 4.35 4.8 4.7" fill="#c8c8c8" fill-rule="evenodd" stroke="none"/>
    <path d="M-4.45 6.35 L-3.25 14.6 -15.45 14.6 -15.45 1.1 -14.7 1.85 -12.7 -3.4 -8.15 -6.05 -8.95 -4.9 -5.75 -3.0 -5.65 -2.05 -8.95 2.1 -4.45 6.35 M3.8 14.6 L4.8 4.7 7.8 -0.4 6.3 -2.15 8.05 -4.4 6.2 -6.25 12.3 -4.4 14.8 0.6 14.8 14.6 3.8 14.6" fill="url(#gradient0)" fill-rule="evenodd" stroke="none"/>
    <path d="M5.3 -7.15 L5.7 -6.3 4.7 4.35 4.65 4.9 4.8 4.7 3.8 14.6 -3.25 14.6 -4.45 6.35 -5.65 -2.05 -5.2 -2.65 -5.75 -3.0 -6.45 -7.65 5.3 -7.15" fill="url(#gradient1)" fill-rule="evenodd" stroke="none"/>
    <path d="M5.7 -6.3 L5.75 -6.7 5.3 -7.15 -6.45 -7.65 -5.75 -3.0 -5.65 -2.05 -8.95 2.1 -4.45 6.35 -3.25 14.6 3.8 14.6 4.8 4.7 4.65 4.9 4.7 4.35 5.7 -6.3 M-5.65 -2.05 L-4.45 6.35 M6.2 -6.25 L5.75 -6.7 5.75 -7.1 5.3 -7.15 M6.2 -6.25 L8.05 -4.4 6.3 -2.15 7.8 -0.4 4.8 4.7 4.7 4.35 M3.8 14.6 L14.8 14.6 14.8 0.6 12.3 -4.4 6.2 -6.25 M-15.45 1.1 L-15.45 -14.9 14.8 -14.9 14.8 0.6 M-6.95 -7.9 L-8.15 -6.05 -8.95 -4.9 -5.75 -3.0 M-8.15 -6.05 L-12.7 -3.4 -14.7 1.85 M-15.45 1.1 L-15.45 14.6 -3.25 14.6" fill="none" stroke="#000000" stroke-linecap="round" stroke-linejoin="round" stroke-width="1.0"/>
  </g>
  <defs>
    <linearGradient gradientTransform="matrix(0.0, 0.0127, -0.0185, 0.0, -0.3, 4.15)" gradientUnits="userSpaceOnUse" id="gradient0" spreadMethod="pad" x1="-819.2" x2="819.2">
      <stop offset="0.3686274509803922" stop-color="#ecebe8"/>
      <stop offset="0.7254901960784313" stop-color="#adab9e"/>
      <stop offset="1.0" stop-color="#c48080"/>
    </linearGradient>
    <linearGradient gradientTransform="matrix(-0.0039, 0.0137, -0.0094, -0.0027, -1.2, 3.05)" gradientUnits="userSpaceOnUse" id="gradient1" spreadMethod="pad" x1="-819.2" x2="819.2">
      <stop offset="0.0" stop-color="#a7a094"/>
      <stop offset="1.0" stop-color="#5c594e"/>
    </linearGradient>
  </defs>
</svg>
