<?xml version="1.0" encoding="UTF-8" standalone="no"?>
<svg xmlns:xlink="http://www.w3.org/1999/xlink" height="31.25px" width="31.75px" xmlns="http://www.w3.org/2000/svg">
  <g transform="matrix(1.0, 0.0, 0.0, 1.0, 16.45, 15.9)">
    <path d="M8.25 -2.05 Q-3.15 0.25 -3.2 11.85 L-3.7 12.45 -9.45 7.85 -15.2 0.8 -15.2 -15.4 -5.2 -15.4 8.75 -2.6 8.25 -2.05" fill="url(#gradient0)" fill-rule="evenodd" stroke="none"/>
    <path d="M-3.2 11.85 L-3.05 12.6 -3.1 12.6 -3.2 11.85" fill="#515151" fill-rule="evenodd" stroke="none"/>
    <path d="M8.25 -2.05 L9.15 -2.25 Q7.45 11.55 -3.05 12.6 L-3.2 11.85 Q-3.15 0.25 8.25 -2.05" fill="url(#gradient1)" fill-rule="evenodd" stroke="none"/>
    <path d="M-3.05 12.6 Q7.45 11.55 9.15 -2.25 L8.25 -2.05 Q-3.15 0.25 -3.2 11.85 L-3.2 12.6 -3.2 12.85 -3.7 12.45 -9.45 7.85 -15.2 0.8 -15.2 14.85 14.8 14.85 14.8 -15.4 -5.2 -15.4 8.75 -2.6 9.15 -2.25 M-3.05 12.6 L-3.1 12.6 -3.2 12.6 M-5.2 -15.4 L-15.2 -15.4 -15.2 0.8 -15.95 -0.15" fill="none" stroke="#000000" stroke-linecap="round" stroke-linejoin="round" stroke-width="1.0"/>
  </g>
  <defs>
    <linearGradient gradientTransform="matrix(0.0124, 0.0109, -0.0082, 0.0093, -7.35, -3.85)" gradientUnits="userSpaceOnUse" id="gradient0" spreadMethod="pad" x1="-819.2" x2="819.2">
      <stop offset="0.44313725490196076" stop-color="#d5d1cc"/>
      <stop offset="0.9019607843137255" stop-color="#812929"/>
    </linearGradient>
    <radialGradient cx="0" cy="0" gradientTransform="matrix(-0.0106, 0.0165, -0.0103, -0.0067, -1.75, 1.0)" gradientUnits="userSpaceOnUse" id="gradient1" r="819.2" spreadMethod="pad">
      <stop offset="0.27058823529411763" stop-color="#2b2b2b"/>
      <stop offset="1.0" stop-color="#626262"/>
    </radialGradient>
  </defs>
</svg>
