<?xml version="1.0" encoding="UTF-8" standalone="no"?>
<svg xmlns:xlink="http://www.w3.org/1999/xlink" height="21.35px" width="20.15px" xmlns="http://www.w3.org/2000/svg">
  <g transform="matrix(1.0, 0.0, 0.0, 1.0, 17.9, 7.0)">
    <path d="M-0.7 -1.35 L2.25 -0.4 Q-3.45 5.65 -5.55 14.35 L-15.35 11.3 Q-14.15 10.25 -13.85 8.95 L-6.6 11.2 Q-4.9 4.05 -0.7 -1.35" fill="url(#gradient0)" fill-rule="evenodd" stroke="none"/>
    <path d="M-14.9 5.8 L-17.9 4.85 Q-11.5 0.4 -8.3 -7.0 L0.15 -6.7 -1.75 -4.45 Q-5.95 0.9 -7.65 8.05 L-14.9 5.8" fill="url(#gradient1)" fill-rule="evenodd" stroke="none"/>
    <path d="M-13.85 8.95 L-16.5 8.15 Q-15.25 7.1 -14.9 5.8 L-7.65 8.05 Q-5.95 0.9 -1.75 -4.45 L1.2 -3.55 -0.7 -1.35 Q-4.9 4.05 -6.6 11.2 L-13.85 8.95" fill="url(#gradient2)" fill-rule="evenodd" stroke="none"/>
    <path d="M-0.7 -1.35 L2.25 -0.4 Q-3.45 5.65 -5.55 14.35 L-15.35 11.3 Q-14.15 10.25 -13.85 8.95 L-16.5 8.15 Q-15.25 7.1 -14.9 5.8 L-17.9 4.85 Q-11.5 0.4 -8.3 -7.0 L0.15 -6.7 -1.75 -4.45 1.2 -3.55 -0.7 -1.35 Z" fill="none" stroke="#000000" stroke-linecap="round" stroke-linejoin="round" stroke-width="0.05"/>
  </g>
  <defs>
    <radialGradient cx="0" cy="0" gradientTransform="matrix(0.0231, -0.0044, 0.0044, 0.0231, 3.05, 19.85)" gradientUnits="userSpaceOnUse" id="gradient0" r="819.2" spreadMethod="pad">
      <stop offset="0.0" stop-color="#404040"/>
      <stop offset="1.0" stop-color="#000000"/>
    </radialGradient>
    <radialGradient cx="0" cy="0" gradientTransform="matrix(0.0156, -0.003, 0.003, 0.0156, -12.3, -2.95)" gradientUnits="userSpaceOnUse" id="gradient1" r="819.2" spreadMethod="pad">
      <stop offset="0.0" stop-color="#382d39"/>
      <stop offset="0.6941176470588235" stop-color="#111012"/>
      <stop offset="0.9803921568627451" stop-color="#120e14"/>
    </radialGradient>
    <radialGradient cx="0" cy="0" gradientTransform="matrix(0.0187, -0.0036, 0.0036, 0.0187, -15.0, -3.45)" gradientUnits="userSpaceOnUse" id="gradient2" r="819.2" spreadMethod="pad">
      <stop offset="0.0" stop-color="#9b8c53"/>
      <stop offset="0.6588235294117647" stop-color="#51352f"/>
      <stop offset="1.0" stop-color="#202835"/>
    </radialGradient>
  </defs>
</svg>
