<?xml version="1.0" encoding="UTF-8" standalone="no"?>
<svg xmlns:xlink="http://www.w3.org/1999/xlink" height="26.9px" width="34.6px" xmlns="http://www.w3.org/2000/svg">
  <g transform="matrix(1.0, 0.0, 0.0, 1.0, 14.1, 13.2)">
    <path d="M10.4 -9.45 L6.6 -7.35 1.55 -4.75 Q3.2 -5.15 4.75 -5.95 L9.9 -8.8 10.65 -9.2 11.0 -8.85 10.9 -8.8 6.2 -5.65 Q3.9 -4.05 1.45 -3.0 3.8 -3.25 6.5 -4.05 L12.35 -5.75 13.1 -5.95 13.4 -5.4 9.0 -3.9 Q6.15 -2.95 3.65 -1.85 L6.0 -1.8 12.05 -2.8 14.25 -3.1 14.35 -2.7 13.45 -2.45 Q10.7 -1.6 7.8 -1.1 L1.65 0.3 Q8.3 0.95 14.65 0.6 L14.65 0.65 13.45 0.8 2.15 1.75 4.35 2.9 8.85 4.5 13.2 6.15 10.0 5.4 5.4 3.95 Q2.5 2.9 -0.15 2.35 L1.0 3.0 Q2.55 3.85 3.9 5.05 L6.7 7.25 9.05 9.3 5.75 7.35 2.65 5.2 Q1.3 4.15 0.0 3.55 L0.65 4.6 Q1.35 5.4 1.85 6.3 L2.9 7.95 3.95 9.65 4.7 11.3 4.3 10.95 3.05 9.2 1.7 7.5 0.25 5.6 -1.0 4.15 -0.95 4.6 -0.65 6.0 -0.55 7.45 -0.45 8.9 -0.35 10.4 -0.05 11.65 -0.05 11.2 -0.2 10.0 -0.3 8.75 -0.35 7.45 -0.45 6.2 -0.6 5.05 -0.4 5.25 1.15 7.3 2.7 9.15 4.15 11.15 Q5.0 12.35 5.95 12.7 L5.25 11.65 4.25 9.8 3.2 8.05 2.15 6.3 1.1 4.5 Q2.3 5.45 3.65 6.3 L6.7 8.3 Q8.3 9.4 9.85 9.8 L9.05 8.95 6.9 7.05 4.5 5.15 2.2 3.3 Q4.2 3.9 6.2 4.6 L10.1 5.8 13.4 6.4 Q12.5 8.25 11.0 9.8 7.3 13.7 2.1 13.7 -3.15 13.7 -6.85 9.8 -10.5 6.0 -10.5 0.5 -10.5 -5.0 -6.85 -8.85 -3.15 -12.65 2.1 -12.65 6.85 -12.65 10.4 -9.45 M13.0 -6.2 L9.35 -5.15 3.75 -3.75 7.75 -6.3 11.3 -8.5 13.0 -6.2 M14.15 -3.45 L10.85 -2.9 4.9 -2.1 6.2 -2.6 13.45 -5.05 13.55 -5.05 14.15 -3.45 M14.65 0.35 L2.8 0.3 6.5 -0.45 12.7 -1.8 14.4 -2.3 14.65 0.35 M14.65 1.0 Q14.55 3.65 13.65 5.9 13.15 5.6 12.65 5.45 10.0 4.6 7.4 3.55 L2.65 1.8 10.8 1.5 14.65 1.0" fill="url(#gradient0)" fill-rule="evenodd" stroke="none"/>
    <path d="M10.65 -9.2 L9.9 -8.8 4.75 -5.95 Q3.2 -5.15 1.55 -4.75 L6.6 -7.35 10.4 -9.45 11.75 -10.25 Q13.45 -11.3 15.3 -11.95 L15.8 -11.95 15.95 -11.85 Q14.15 -10.35 12.05 -9.0 L11.3 -8.5 7.75 -6.3 3.75 -3.75 9.35 -5.15 13.0 -6.2 15.4 -7.0 Q17.95 -7.9 20.45 -8.05 L20.5 -8.0 Q17.15 -6.35 13.55 -5.05 L13.45 -5.05 6.2 -2.6 4.9 -2.1 10.85 -2.9 14.15 -3.45 16.15 -3.9 18.15 -3.95 14.4 -2.3 12.7 -1.8 6.5 -0.45 2.8 0.3 14.65 0.35 16.35 0.35 16.4 0.45 14.65 1.0 10.8 1.5 2.65 1.8 7.4 3.55 Q10.0 4.6 12.65 5.45 13.15 5.6 13.65 5.9 14.05 6.1 14.4 6.45 L13.4 6.4 10.1 5.8 6.2 4.6 Q4.2 3.9 2.2 3.3 L4.5 5.15 6.9 7.05 9.05 8.95 9.85 9.8 Q8.3 9.4 6.7 8.3 L3.65 6.3 Q2.3 5.45 1.1 4.5 L2.15 6.3 3.2 8.05 4.25 9.8 5.25 11.65 5.95 12.7 Q5.0 12.35 4.15 11.15 L2.7 9.15 1.15 7.3 -0.4 5.25 -0.6 5.05 -0.45 6.2 -0.35 7.45 -0.3 8.75 -0.2 10.0 -0.05 11.2 -0.05 11.65 -0.35 10.4 -0.45 8.9 -0.55 7.45 -0.65 6.0 -0.95 4.6 -1.0 4.15 0.25 5.6 1.7 7.5 3.05 9.2 4.3 10.95 4.7 11.3 3.95 9.65 2.9 7.95 1.85 6.3 Q1.35 5.4 0.65 4.6 L0.0 3.55 Q1.3 4.15 2.65 5.2 L5.75 7.35 9.05 9.3 6.7 7.25 3.9 5.05 Q2.55 3.85 1.0 3.0 L-0.15 2.35 Q2.5 2.9 5.4 3.95 L10.0 5.4 13.2 6.15 8.85 4.5 4.35 2.9 2.15 1.75 13.45 0.8 14.65 0.65 15.4 0.55 14.65 0.6 Q8.3 0.95 1.65 0.3 L7.8 -1.1 Q10.7 -1.6 13.45 -2.45 L14.35 -2.7 16.25 -3.4 14.25 -3.1 12.05 -2.8 6.0 -1.8 3.65 -1.85 Q6.15 -2.95 9.0 -3.9 L13.4 -5.4 Q15.5 -6.15 17.55 -7.0 L19.05 -7.65 13.1 -5.95 12.35 -5.75 6.5 -4.05 Q3.8 -3.25 1.45 -3.0 3.9 -4.05 6.2 -5.65 L10.9 -8.8 11.0 -8.85 14.85 -11.35 Q12.85 -10.55 10.65 -9.2" fill="#2b0000" fill-rule="evenodd" stroke="none"/>
    <path d="M2.7 -12.55 L2.9 -11.85 3.25 -11.5 4.9 -11.2 6.55 -10.55 6.6 -10.45 6.65 -10.35 6.65 -10.25 6.65 -10.15 6.65 -10.1 7.2 -9.75 7.45 -9.55 7.95 -9.3 8.45 -9.05 9.0 -8.55 9.0 -8.2 8.85 -7.9 9.1 -7.5 9.7 -6.9 10.15 -6.1 10.55 -5.1 10.55 -4.4 Q10.2 -4.25 9.95 -4.7 L9.7 -5.45 9.7 -5.55 Q9.45 -6.35 8.6 -6.6 L6.45 -7.15 Q6.2 -7.15 6.0 -7.3 L5.8 -7.5 5.75 -7.55 5.65 -7.7 5.55 -7.75 5.45 -7.9 5.35 -7.95 5.2 -8.2 5.0 -8.35 5.0 -8.25 5.1 -8.15 5.25 -7.95 5.3 -7.9 5.35 -7.8 5.55 -7.65 5.8 -7.35 6.1 -7.05 6.2 -6.9 6.4 -6.65 6.45 -6.35 Q6.35 -6.15 6.1 -6.25 L5.8 -6.45 5.35 -6.85 5.0 -7.15 4.8 -7.35 4.4 -7.65 4.4 -7.55 Q4.45 -5.5 3.95 -3.5 3.5 -1.75 2.65 -0.2 L2.85 1.05 3.05 2.4 3.05 3.85 3.05 4.05 Q-0.25 4.65 -1.55 7.6 -2.45 9.6 -3.95 10.2 L-3.8 10.4 Q-4.05 10.85 -4.65 10.6 L-4.75 10.55 -4.7 11.0 -4.75 11.25 -5.4 10.85 -5.8 11.1 Q-6.6 11.05 -6.05 11.55 L-5.95 11.65 -5.85 11.75 -5.85 11.8 -5.85 11.95 -5.95 12.0 -6.0 12.1 -7.5 11.8 -8.05 11.75 Q-8.15 12.35 -8.8 12.0 L-9.9 11.15 -10.0 11.25 Q-10.85 11.75 -11.35 10.4 -11.8 9.45 -12.6 8.65 L-13.0 7.75 -12.9 7.7 -12.85 7.6 -12.55 7.55 -12.4 7.6 -13.1 5.8 -13.9 3.85 Q-14.25 2.9 -13.95 2.15 -13.5 2.15 -13.35 2.65 L-13.05 3.4 -12.8 4.0 -13.1 2.2 -13.3 0.25 -13.3 -1.7 -13.3 -1.8 -13.05 -2.15 -12.65 -4.35 Q-12.3 -6.3 -9.1 -10.0 -5.9 -13.7 -1.8 -13.15 L2.35 -12.65 2.55 -12.6 2.7 -12.55 M0.05 -3.75 L-0.2 -4.0 -0.75 -4.45 -2.05 -5.0 -2.25 -4.7 -2.1 -4.25 -1.95 -3.7 -1.35 -3.05 Q-1.1 -2.8 -0.85 -2.8 L-0.5 -2.6 -0.1 -2.45 -0.1 -2.25 0.0 -2.15 0.25 -2.15 0.4 -2.15 0.45 -2.4 0.9 -2.45 0.05 -3.75 M-12.15 4.15 L-12.2 4.0 -12.2 4.15 -12.15 4.15 M-11.35 8.8 Q-10.9 9.7 -10.35 9.35 -10.05 8.85 -10.85 8.15 L-11.55 6.85 Q-11.6 6.25 -11.95 6.0 -11.7 6.7 -11.7 7.35 L-11.35 8.8 M-10.2 7.7 L-9.5 8.2 -11.1 6.15 -10.2 7.7" fill="#000000" fill-rule="evenodd" stroke="none"/>
    <path d="M0.05 -3.75 L0.9 -2.45 0.45 -2.4 0.4 -2.15 0.25 -2.15 0.0 -2.15 -0.1 -2.25 -0.1 -2.45 -0.5 -2.6 -0.85 -2.8 Q-1.1 -2.8 -1.35 -3.05 L-1.95 -3.7 -2.1 -4.25 -2.25 -4.7 -2.05 -5.0 -0.75 -4.45 -0.2 -4.0 0.05 -3.75" fill="#ffffff" fill-rule="evenodd" stroke="none"/>
  </g>
  <defs>
    <radialGradient cx="0" cy="0" gradientTransform="matrix(0.0267, 0.0, 0.0, 0.0267, 7.0, -6.3)" gradientUnits="userSpaceOnUse" id="gradient0" r="819.2" spreadMethod="pad">
      <stop offset="0.00392156862745098" stop-color="#ab1010"/>
      <stop offset="0.9803921568627451" stop-color="#2b0909"/>
    </radialGradient>
  </defs>
</svg>
