<?xml version="1.0" encoding="UTF-8" standalone="no"?>
<svg xmlns:xlink="http://www.w3.org/1999/xlink" height="27.4px" width="23.9px" xmlns="http://www.w3.org/2000/svg">
  <g transform="matrix(1.0, 0.0, 0.0, 1.0, 11.95, 15.1)">
    <path d="M11.95 -0.1 Q11.95 4.95 8.45 8.5 4.95 12.05 0.0 12.05 -4.95 12.05 -8.45 8.5 -11.95 4.95 -11.95 -0.1 -11.95 -5.15 -8.45 -8.7 -4.95 -12.25 0.0 -12.25 4.95 -12.25 8.45 -8.7 11.95 -5.15 11.95 -0.1" fill="url(#gradient0)" fill-rule="evenodd" stroke="none"/>
    <path d="M1.3 -10.3 L1.3 -10.2 1.55 -7.95 1.85 -5.9 2.85 -6.3 Q3.5 -6.6 4.15 -6.3 4.1 -4.65 4.6 -2.9 L5.7 0.5 6.55 3.05 6.5 3.65 5.6 4.2 5.0 4.7 5.4 5.05 6.0 5.45 6.25 5.6 6.65 4.55 Q6.85 3.9 7.2 3.35 L7.7 2.4 7.15 1.05 6.6 -0.4 Q6.35 -1.05 6.45 -1.65 7.3 -1.35 7.75 -0.25 L8.75 1.65 9.4 2.75 9.6 2.2 9.65 1.55 Q9.65 1.05 10.1 0.95 L10.7 2.3 Q10.8 3.15 11.25 3.95 L11.55 4.65 11.6 4.7 11.7 4.85 11.75 4.9 11.6 5.0 11.55 5.25 11.5 5.25 11.3 5.25 11.25 5.25 Q10.05 6.1 9.9 7.85 9.7 10.05 7.15 10.85 L5.45 11.35 Q4.65 11.55 4.8 12.15 L4.75 12.2 4.75 12.25 4.7 12.3 4.6 12.3 4.45 12.3 3.7 11.4 3.1 10.7 2.45 9.8 Q1.2 8.9 -0.3 8.1 -2.0 7.2 -3.85 6.8 L-5.35 6.55 -3.8 5.8 0.9 6.0 1.95 6.3 -0.75 4.05 -1.85 3.25 -2.95 2.7 Q-4.0 2.1 -5.2 1.6 -6.65 1.0 -7.05 0.0 L-7.0 0.0 Q-5.9 0.3 -4.85 0.9 L-3.55 1.6 -1.1 2.7 Q0.55 3.5 2.35 3.75 L2.35 3.45 2.35 3.2 2.4 2.9 2.5 2.6 Q3.4 2.15 4.4 2.35 L3.35 0.55 2.2 -1.45 1.25 -3.15 0.4 -2.5 -0.2 -1.55 -0.5 -0.8 Q-1.6 -2.15 -2.5 -3.95 L-4.35 -7.5 -5.2 -9.25 -5.3 -9.35 -6.3 -10.7 -7.3 -11.45 -7.3 -11.55 -7.3 -11.6 -7.3 -11.7 -7.3 -11.75 -7.3 -11.85 -7.3 -11.9 -7.3 -12.0 -6.5 -12.65 -3.45 -14.4 -1.5 -15.05 Q-0.1 -15.35 0.7 -14.3 1.4 -13.4 1.35 -12.1 L1.3 -10.45 1.3 -10.3 M-3.8 6.4 L-3.7 6.4 -3.7 6.35 -3.8 6.4" fill="url(#gradient1)" fill-rule="evenodd" stroke="none"/>
    <path d="M9.5 -2.7 L9.6 -2.35 9.55 -2.0 9.55 -1.9 9.2 -1.8 8.75 -1.9 8.7 -1.95 8.65 -2.15 8.65 -2.25 8.65 -2.45 8.8 -2.65 8.9 -2.7 9.0 -2.75 9.2 -2.8 9.5 -2.7" fill="url(#gradient2)" fill-rule="evenodd" stroke="none"/>
  </g>
  <defs>
    <radialGradient cx="0" cy="0" gradientTransform="matrix(0.0154, 0.0, 0.0, 0.0154, 2.3, 3.7)" gradientUnits="userSpaceOnUse" id="gradient0" r="819.2" spreadMethod="pad">
      <stop offset="0.0" stop-color="#e47070"/>
      <stop offset="0.396078431372549" stop-color="#9f3535"/>
      <stop offset="0.5215686274509804" stop-color="#7e1b1b"/>
      <stop offset="0.7529411764705882" stop-color="#460606"/>
      <stop offset="1.0" stop-color="#000000"/>
    </radialGradient>
    <radialGradient cx="0" cy="0" gradientTransform="matrix(0.0327, 0.0, 0.0, 0.0327, 7.0, 9.7)" gradientUnits="userSpaceOnUse" id="gradient1" r="819.2" spreadMethod="pad">
      <stop offset="0.01568627450980392" stop-color="#ffffff"/>
      <stop offset="1.0" stop-color="#de0707"/>
    </radialGradient>
    <radialGradient cx="0" cy="0" gradientTransform="matrix(0.0327, 0.0, 0.0, 0.0327, 7.0, 9.7)" gradientUnits="userSpaceOnUse" id="gradient2" r="819.2" spreadMethod="pad">
      <stop offset="0.01568627450980392" stop-color="#ffffff"/>
      <stop offset="0.7254901960784313" stop-color="#5a0303"/>
    </radialGradient>
  </defs>
</svg>
