<?xml version="1.0" encoding="UTF-8" standalone="no"?>
<svg xmlns:xlink="http://www.w3.org/1999/xlink" height="19.65px" width="20.15px" xmlns="http://www.w3.org/2000/svg">
  <g transform="matrix(1.0, 0.0, 0.0, 1.0, 10.1, 9.8)">
    <path d="M6.25 -6.7 L6.4 -7.0 Q6.9 -7.05 7.05 -6.5 L7.15 -5.95 7.3 -5.35 7.5 -4.6 7.8 -3.6 7.85 -3.45 7.85 -3.8 7.75 -4.15 7.7 -4.5 7.7 -4.7 7.65 -5.1 7.55 -5.45 7.7 -5.9 Q8.4 -5.75 8.4 -4.85 L8.5 -3.75 8.85 -1.75 8.9 0.55 8.9 1.0 9.1 0.2 9.25 -0.4 9.4 -1.15 9.45 -2.3 Q9.45 -3.05 9.7 -3.6 L9.75 -3.65 Q10.15 -3.15 10.0 -2.4 L9.85 -1.15 9.9 0.9 9.7 2.35 9.8 2.45 9.3 4.65 Q8.95 5.9 7.7 6.15 7.2 6.25 6.85 6.6 L6.25 7.3 4.8 7.5 Q4.25 7.65 4.0 8.05 L3.95 8.35 3.55 8.7 3.2 9.05 3.25 9.1 3.3 9.1 3.45 9.05 3.8 9.15 3.8 9.2 3.8 9.3 3.75 9.45 3.7 9.65 3.65 9.8 Q3.0 9.95 2.7 9.35 L2.0 8.65 Q1.75 8.55 1.8 8.25 L1.8 8.15 1.8 8.1 1.95 8.0 2.25 7.9 2.8 7.35 3.35 6.9 3.25 6.9 3.15 6.8 3.1 6.75 3.1 6.7 3.1 6.6 3.15 6.55 4.3 5.9 2.15 6.8 Q0.7 7.45 -0.6 6.8 -4.15 5.15 -4.65 1.5 L-4.7 0.45 -4.85 0.55 -5.05 0.8 -5.2 0.95 -5.15 1.75 -5.0 2.85 Q-4.85 3.5 -5.2 4.0 L-5.2 4.1 -5.15 4.3 -5.0 4.75 -4.85 5.2 -4.9 5.4 Q-6.35 4.85 -6.85 3.15 -7.3 1.65 -8.15 0.35 -8.7 -0.45 -9.6 -0.6 L-9.6 0.0 -9.4 0.9 -8.9 1.6 Q-8.85 1.1 -8.3 1.3 -7.7 1.55 -7.9 2.15 L-8.15 2.75 Q-9.05 2.85 -9.6 1.9 -10.05 1.1 -10.05 0.2 L-10.1 -0.95 Q-9.75 -1.4 -9.2 -1.15 -8.6 -0.9 -8.2 -0.45 L-8.2 -1.5 -8.1 -2.8 -7.45 -3.95 -7.25 -3.95 -7.15 -3.9 -7.0 -3.8 Q-6.8 -2.95 -6.95 -2.0 L-7.15 0.1 Q-7.15 1.15 -6.5 1.95 L-6.35 0.1 -5.65 -2.1 Q-5.25 -3.2 -4.4 -3.6 L-4.35 -3.5 -4.3 -3.45 -4.3 -3.35 -4.3 -3.2 -4.3 -3.05 -4.25 -3.05 -4.15 -3.05 -3.95 -2.95 -3.8 -2.85 -4.15 -1.95 -4.95 -0.8 -5.3 0.25 -5.1 0.0 -4.8 -0.65 Q-4.65 -1.05 -4.2 -1.0 -4.6 1.85 -2.8 4.2 0.15 8.1 4.25 5.3 4.8 4.9 5.35 4.9 L5.9 4.1 5.8 2.5 Q5.5 -0.5 2.5 -0.15 1.05 0.0 0.9 1.35 0.55 4.1 2.95 3.75 L3.4 3.3 Q3.55 2.6 3.05 2.2 L2.8 2.1 Q2.05 1.75 1.95 2.25 L2.0 2.35 2.15 2.35 2.45 2.55 2.5 2.7 2.55 2.8 Q2.5 3.1 2.15 3.05 1.85 3.0 1.65 2.8 L1.45 2.5 1.4 2.3 1.5 1.95 1.8 1.65 Q4.85 1.6 3.2 4.1 2.65 5.0 1.7 4.35 -0.25 2.95 0.75 0.6 1.6 -1.45 3.95 -0.65 6.0 0.05 6.4 2.0 L6.8 1.1 6.8 0.9 Q6.9 -2.15 5.55 -4.75 3.25 -9.25 -1.65 -9.2 L-1.6 -9.05 -1.6 -8.95 -1.65 -8.9 -1.7 -8.95 -1.7 -9.0 -1.8 -9.1 -1.8 -9.2 -1.8 -9.3 -1.8 -9.35 -1.75 -9.5 -1.75 -9.6 -1.7 -9.65 -1.5 -9.75 -1.4 -9.8 -1.35 -9.8 1.75 -9.05 Q3.25 -8.4 4.35 -7.1 L6.1 -4.55 5.8 -5.35 5.55 -5.9 5.2 -6.55 4.55 -7.4 Q4.15 -7.8 4.05 -8.3 4.6 -8.45 4.95 -7.9 L5.3 -7.35 5.75 -6.7 6.3 -5.7 6.7 -4.95 6.7 -5.25 6.55 -5.6 6.45 -5.9 6.45 -6.1 6.35 -6.35 6.25 -6.7 M6.8 -4.75 L6.85 -4.5 6.95 -4.3 7.05 -4.05 7.05 -4.15 6.95 -4.4 6.85 -4.7 6.8 -4.75 M8.2 -1.0 L8.2 0.0 8.2 0.45 8.35 0.5 8.3 -0.1 8.2 -1.0 M6.2 5.95 L6.25 5.7 6.25 5.75 6.2 5.95 M5.65 5.45 L5.7 5.45 5.75 5.4 5.65 5.45 M-7.75 -1.25 L-7.65 -0.35 -7.55 -1.15 -7.45 -2.1 -7.4 -3.0 -7.45 -3.0 -7.65 -2.15 -7.75 -1.25 M-6.0 1.85 L-5.95 1.9 -5.95 1.75 -6.0 1.7 -6.0 1.85 M-8.65 2.05 L-8.45 2.15 -8.4 2.1 -8.4 1.95 -8.5 1.9 -8.75 1.85 -8.8 1.85 -8.7 2.0 -8.65 2.05 M-6.05 3.75 L-5.95 3.9 -5.85 4.05 -5.7 4.2 -5.8 4.0 -5.95 3.8 -6.15 3.6 -6.05 3.75" fill="url(#gradient0)" fill-rule="evenodd" stroke="none"/>
  </g>
  <defs>
    <radialGradient cx="0" cy="0" gradientTransform="matrix(0.0134, 0.0, 0.0, 0.0134, -0.05, 0.0)" gradientUnits="userSpaceOnUse" id="gradient0" r="819.2" spreadMethod="pad">
      <stop offset="0.0" stop-color="#ffffff"/>
      <stop offset="1.0" stop-color="#ffe8b3"/>
    </radialGradient>
  </defs>
</svg>
