<?xml version="1.0" encoding="UTF-8" standalone="no"?>
<svg xmlns:xlink="http://www.w3.org/1999/xlink" height="25.6px" width="26.2px" xmlns="http://www.w3.org/2000/svg">
  <g transform="matrix(1.0, 0.0, 0.0, 1.0, 12.85, 12.2)">
    <path d="M-0.35 -12.2 Q4.85 -12.2 8.5 -8.55 12.15 -4.9 12.15 0.3 12.15 5.5 8.5 9.15 4.85 12.8 -0.35 12.8 -5.55 12.8 -9.2 9.15 -12.85 5.5 -12.85 0.3 -12.85 -4.9 -9.2 -8.55 -5.55 -12.2 -0.35 -12.2" fill="url(#gradient0)" fill-rule="evenodd" stroke="none"/>
    <path d="M3.15 -3.5 Q2.15 -3.5 2.2 -4.8 2.2 -5.35 2.5 -5.65 2.65 -5.95 3.25 -5.95 L3.35 -5.95 3.5 -5.95 Q4.8 -5.95 4.7 -4.9 4.7 -3.55 3.15 -3.5 M6.05 -0.5 L5.95 -0.75 Q5.95 -1.3 6.45 -1.3 6.95 -1.3 6.9 -0.8 6.9 -0.35 6.45 -0.35 L6.05 -0.5 M7.7 -2.55 Q7.55 -2.8 7.55 -3.15 7.55 -4.45 9.05 -4.45 10.2 -4.45 10.15 -3.35 10.15 -2.0 8.75 -2.0 8.0 -2.0 7.7 -2.55 M13.35 4.8 Q13.35 6.3 11.5 6.3 10.7 6.3 10.3 5.95 L10.45 6.7 Q10.45 8.05 8.45 8.1 7.1 8.05 7.1 6.75 7.1 5.1 8.85 5.1 9.65 5.1 10.05 5.5 L10.05 4.95 10.1 4.05 9.1 4.25 Q8.05 4.25 7.4 3.55 6.8 2.95 6.85 2.4 6.8 1.6 7.3 0.6 8.0 -0.85 9.3 -0.8 11.5 -0.85 11.3 1.9 L11.1 3.0 11.7 2.9 Q13.3 2.9 13.35 4.8 M6.3 6.05 L5.95 5.9 Q5.85 5.2 6.3 5.25 6.7 5.2 6.7 5.65 L6.6 5.9 6.3 6.05 M2.05 3.0 Q1.4 3.0 1.45 2.4 1.45 1.9 2.15 1.9 2.85 1.9 2.7 2.4 2.7 3.0 2.05 3.0 M3.45 4.25 Q5.85 4.25 5.9 7.4 L5.9 7.6 6.2 7.55 Q8.45 7.55 8.75 10.25 8.75 11.05 7.85 12.1 6.8 13.35 5.35 13.4 2.75 13.35 2.45 11.15 2.45 10.1 3.3 9.0 L3.6 8.65 3.1 8.65 Q1.4 8.65 1.4 6.8 L1.2 7.15 0.35 7.9 0.35 7.95 Q0.3 9.0 -0.9 9.0 L-1.5 8.9 -1.25 9.7 Q-1.25 12.5 -4.5 12.5 -7.0 12.5 -7.0 9.65 -7.0 9.0 -6.2 8.25 -5.15 7.3 -3.55 7.3 L-3.35 7.35 Q-3.8 6.75 -3.9 5.85 -3.95 6.45 -4.5 6.45 -5.45 6.45 -5.25 5.75 -5.25 5.1 -4.5 5.1 L-3.95 5.7 -3.95 5.5 Q-3.95 2.45 -0.25 2.5 1.25 2.45 1.75 5.0 2.25 4.25 3.45 4.25 M3.5 0.35 Q3.6 -0.35 4.2 -0.35 4.85 -0.4 4.85 0.35 4.85 0.95 4.15 0.95 3.35 0.95 3.5 0.35 M1.25 10.8 Q1.25 11.65 0.45 11.65 -0.35 11.65 -0.35 10.8 -0.35 10.0 0.45 10.0 1.2 10.0 1.25 10.8 M-1.45 -0.7 Q-1.45 0.15 -2.3 0.15 -3.25 0.15 -3.1 -0.7 -3.1 -1.5 -2.3 -1.5 -1.4 -1.5 -1.45 -0.7 M-6.75 0.85 Q-6.0 0.85 -5.5 1.75 -5.15 2.3 -5.15 2.6 -5.15 3.0 -5.55 3.6 -6.05 4.45 -7.0 4.45 -8.35 4.45 -8.35 2.6 -8.35 0.85 -6.75 0.85" fill="#5ca354" fill-rule="evenodd" stroke="none"/>
  </g>
  <defs>
    <radialGradient cx="0" cy="0" gradientTransform="matrix(0.0289, 0.0, 0.0, 0.0289, 7.0, 8.2)" gradientUnits="userSpaceOnUse" id="gradient0" r="819.2" spreadMethod="pad">
      <stop offset="0.0" stop-color="#277a2f"/>
      <stop offset="0.42745098039215684" stop-color="#1b291d"/>
      <stop offset="0.8509803921568627" stop-color="#000000"/>
    </radialGradient>
  </defs>
</svg>
