<?xml version="1.0" encoding="UTF-8" standalone="no"?>
<svg xmlns:xlink="http://www.w3.org/1999/xlink" height="28.1px" width="46.25px" xmlns="http://www.w3.org/2000/svg">
  <g transform="matrix(1.0, 0.0, 0.0, 1.0, 23.1, 14.05)">
    <path d="M-10.95 -5.5 Q-4.8 -5.5 -2.1 -0.85 -0.75 1.45 -0.6 4.05 -0.6 7.6 -2.95 10.45 -6.75 15.1 -15.2 13.3 L-15.25 13.3 -14.75 13.55 -14.85 14.05 Q-20.9 14.05 -22.5 10.0 -23.35 7.95 -22.95 5.75 -22.95 2.65 -20.95 -0.45 -18.45 -4.4 -13.75 -5.25 -15.35 -7.95 -17.6 -9.8 L-17.45 -10.0 Q-14.35 -10.0 -12.25 -5.45 L-10.95 -5.5 M-11.75 -4.2 L-11.45 -3.25 Q-10.5 -0.4 -10.05 2.5 -8.6 2.95 -7.6 4.05 -6.35 5.45 -6.35 6.95 -6.35 11.6 -10.55 12.3 -5.55 12.05 -3.25 8.3 -1.85 6.1 -1.85 4.0 -1.85 1.55 -3.5 -0.65 -6.1 -4.2 -11.75 -4.2 M-13.05 -3.95 Q-19.0 -2.2 -20.9 1.3 -21.95 3.25 -21.95 7.65 -21.95 10.0 -20.2 10.95 -18.4 12.0 -14.0 12.25 -17.15 11.6 -17.2 8.6 -17.1 2.2 -12.2 2.2 L-11.15 2.25 Q-11.45 -0.4 -12.8 -3.4 L-13.05 -3.95 M-8.85 4.75 L-9.95 4.05 -10.35 6.3 Q-10.2 6.6 -10.2 7.05 -10.2 9.3 -11.45 9.3 L-11.95 9.3 -12.2 9.3 -12.6 9.15 -12.7 9.05 Q-13.3 8.75 -13.3 7.95 -13.3 5.75 -11.5 5.7 L-11.1 3.7 -12.55 3.55 Q-15.85 3.55 -16.2 8.6 -16.2 11.05 -12.15 11.05 -7.6 11.05 -7.6 7.05 -7.6 5.75 -8.85 4.75" fill="url(#gradient0)" fill-rule="evenodd" stroke="none"/>
    <path d="M23.15 -13.75 L22.8 -13.85 23.0 -14.05 23.15 -13.75" fill="#000000" fill-rule="evenodd" stroke="none"/>
  </g>
  <defs>
    <radialGradient cx="0" cy="0" gradientTransform="matrix(0.0221, 0.0, 0.0, 0.0221, -11.85, 7.2)" gradientUnits="userSpaceOnUse" id="gradient0" r="819.2" spreadMethod="pad">
      <stop offset="0.0" stop-color="#ffffff"/>
      <stop offset="0.9137254901960784" stop-color="#76f141"/>
    </radialGradient>
  </defs>
</svg>
