<?xml version="1.0" encoding="UTF-8" standalone="no"?>
<svg xmlns:xlink="http://www.w3.org/1999/xlink" height="19.7px" width="19.75px" xmlns="http://www.w3.org/2000/svg">
  <g transform="matrix(1.0, 0.0, 0.0, 1.0, 0.0, 0.0)">
    <path d="M12.4 4.7 L12.2 5.3 Q12.1 5.65 11.4 5.65 10.8 5.65 10.5 5.25 L10.3 4.65 Q10.3 3.9 11.3 3.85 12.25 3.85 12.4 4.7 M9.15 5.65 L6.75 5.2 Q5.0 5.0 4.4 4.55 L4.35 4.2 6.45 4.35 7.9 4.4 Q9.4 4.4 9.7 4.9 L10.0 5.55 10.0 7.05 9.4 7.3 Q8.85 6.9 8.85 6.5 L9.15 5.65 M17.75 6.2 L16.8 3.45 16.15 1.45 Q16.15 -0.4 17.95 2.35 19.75 5.1 19.75 7.55 L19.65 9.45 Q19.3 10.95 18.0 10.95 16.65 10.95 16.8 9.8 L17.25 8.6 Q17.25 8.2 16.3 7.4 L14.3 5.7 14.6 5.1 15.15 4.9 Q15.95 4.9 17.75 6.2 M15.0 12.5 L15.2 12.05 15.8 11.35 16.05 11.3 Q15.55 10.55 14.2 10.75 12.8 10.9 12.5 10.45 L12.4 9.55 12.5 8.55 Q12.65 8.15 13.4 7.65 L13.9 7.95 Q13.4 9.15 13.4 10.05 15.65 9.65 17.05 10.9 18.15 11.8 18.15 12.7 18.15 13.25 17.4 13.7 16.75 14.1 16.15 14.1 15.45 14.1 15.15 13.35 L15.0 12.5 M8.9 10.2 L8.1 9.8 Q7.8 9.8 7.05 10.35 6.3 10.85 5.65 10.85 4.7 10.85 4.5 10.45 L4.5 10.0 4.65 9.05 5.1 8.95 5.4 9.95 Q8.55 8.0 10.15 9.15 11.25 9.9 11.25 11.6 L10.65 12.95 10.05 14.2 Q10.05 14.65 10.75 15.3 11.6 16.1 12.65 16.1 14.25 16.1 14.5 15.65 14.75 15.2 15.15 15.2 15.8 15.2 16.0 16.35 16.0 18.05 12.9 18.2 L12.15 18.8 Q10.7 19.7 8.5 19.7 5.2 19.7 3.75 18.7 2.85 18.1 2.85 17.4 2.85 16.2 4.95 16.7 L8.2 17.45 9.8 17.4 8.7 16.2 Q8.05 15.2 7.9 14.15 7.9 13.6 8.75 12.5 L9.55 11.0 Q9.55 10.65 8.9 10.2 M13.25 12.2 Q14.55 12.2 14.55 13.75 14.55 15.1 13.4 15.1 11.9 15.1 11.9 13.65 11.9 12.2 13.25 12.2 M1.25 4.65 Q0.9 5.25 0.9 5.4 L1.15 6.2 1.85 6.7 2.65 6.45 3.4 6.15 4.45 6.3 5.15 6.55 5.35 6.7 3.15 7.45 1.8 7.7 Q0.65 7.7 0.25 6.6 L0.0 5.4 Q0.0 4.8 0.3 4.3 0.7 3.6 1.35 3.45 L1.55 3.5 1.6 3.9 1.25 4.65 M5.75 2.9 L5.65 3.05 5.15 3.15 Q4.35 3.15 3.5 2.25 2.75 1.45 2.75 1.1 2.75 -0.75 4.3 0.55 5.85 1.85 5.85 2.3 L5.75 2.9 M4.7 12.05 Q5.15 12.0 5.5 12.6 L5.4 13.1 4.35 13.2 Q4.15 13.25 4.15 12.6 L4.15 12.2 Q4.45 12.05 4.7 12.05" fill="#ffffff" fill-rule="evenodd" stroke="none"/>
  </g>
</svg>
