<?xml version="1.0" encoding="UTF-8" standalone="no"?>
<svg xmlns:xlink="http://www.w3.org/1999/xlink" height="22.15px" width="22.85px" xmlns="http://www.w3.org/2000/svg">
  <g transform="matrix(1.0, 0.0, 0.0, 1.0, 0.0, 0.0)">
    <path d="M22.75 11.4 L19.65 13.5 Q17.95 14.6 17.85 15.9 L17.6 15.9 Q17.6 15.5 18.2 14.65 L18.75 13.65 18.5 13.15 18.25 12.65 Q18.25 11.65 19.35 11.5 L22.5 10.9 22.75 11.4 M15.1 0.55 L15.25 1.25 14.7 3.25 Q16.15 0.5 17.9 0.6 17.15 1.65 14.8 7.4 12.65 12.65 12.35 12.65 11.25 12.65 8.2 10.15 7.7 11.55 7.45 13.85 L7.75 15.2 7.75 15.3 8.5 16.2 Q13.2 12.6 22.85 7.75 L14.35 12.8 8.65 16.45 9.25 17.55 11.6 17.85 11.85 16.8 Q11.85 16.25 12.65 15.75 13.4 15.3 14.0 15.3 L17.0 17.3 16.7 18.35 19.5 18.55 19.65 18.9 19.6 19.2 19.25 19.3 11.25 18.95 10.25 19.2 10.25 19.95 Q10.25 20.75 9.6 21.4 8.85 22.15 7.75 22.15 3.9 22.15 1.8 18.25 1.1 16.95 0.75 15.7 L0.5 15.65 0.0 14.95 0.55 14.0 Q0.65 13.2 1.2 12.95 L2.0 11.7 2.0 11.55 2.35 10.9 2.7 10.1 2.2 2.4 2.7 2.4 4.25 10.8 Q4.35 10.6 4.55 10.7 L4.5 10.15 Q4.45 8.55 4.85 7.15 5.6 4.4 8.0 4.4 L9.1 4.65 Q10.15 8.5 11.25 9.85 14.2 5.4 14.5 0.0 L14.85 0.0 15.1 0.55 M12.6 9.1 L11.7 10.5 12.1 10.65 12.6 9.1 M12.75 17.95 L14.45 18.15 14.4 18.05 13.85 17.05 12.75 17.95" fill="url(#gradient0)" fill-rule="evenodd" stroke="none"/>
  </g>
  <defs>
    <radialGradient cx="0" cy="0" gradientTransform="matrix(0.0275, 0.0, 0.0, 0.0275, 5.25, 19.25)" gradientUnits="userSpaceOnUse" id="gradient0" r="819.2" spreadMethod="pad">
      <stop offset="0.0" stop-color="#ffffff"/>
      <stop offset="1.0" stop-color="#40bfa6"/>
    </radialGradient>
  </defs>
</svg>
