<?xml version="1.0" encoding="UTF-8" standalone="no"?>
<svg xmlns:xlink="http://www.w3.org/1999/xlink" height="24.3px" width="20.9px" xmlns="http://www.w3.org/2000/svg">
  <g transform="matrix(1.0, 0.0, 0.0, 1.0, 0.0, 0.0)">
    <path d="M18.9 10.2 L18.65 15.2 19.0 16.65 Q18.85 17.45 16.15 17.3 13.1 17.1 10.65 18.0 L8.55 18.95 Q7.6 18.95 7.4 18.55 L7.4 18.05 7.8 17.2 8.15 16.35 7.8 14.45 7.4 12.9 Q7.4 12.0 8.9 11.2 10.75 10.2 13.65 10.2 14.55 10.2 14.45 11.4 L14.5 11.35 Q15.15 12.25 15.15 12.85 15.15 13.4 14.4 13.55 L11.75 13.95 Q11.55 14.0 11.55 13.35 11.55 12.7 12.95 12.6 L12.8 12.05 Q10.0 12.7 9.15 13.3 L9.65 16.3 9.65 16.45 Q10.8 16.45 10.95 15.8 11.1 15.25 13.9 15.45 L17.0 15.45 17.15 14.75 Q17.15 12.7 15.65 5.95 4.15 8.7 4.15 9.7 L4.55 12.6 5.0 15.45 5.4 21.2 Q5.4 21.85 5.15 21.7 L5.15 21.8 4.65 21.85 Q4.05 21.85 2.75 9.65 2.75 7.75 5.7 6.6 8.75 5.45 16.4 4.45 18.7 4.15 19.0 6.95 19.2 8.4 18.9 10.2 M15.4 0.45 Q15.4 1.05 9.9 2.95 4.1 4.95 1.3 4.95 L0.15 4.8 0.1 4.7 0.0 4.2 Q0.0 2.6 4.2 2.1 11.45 1.2 15.15 0.05 15.4 -0.2 15.4 0.45 M6.1 23.6 Q6.1 22.55 10.3 21.35 L13.9 20.35 14.55 20.25 15.2 20.1 17.5 19.7 18.65 19.45 18.8 19.5 20.65 19.3 20.8 19.45 20.9 19.95 Q20.9 20.5 15.15 22.35 9.25 24.3 7.05 24.3 6.45 24.3 6.15 23.95 L6.1 23.6" fill="#a5ebfc" fill-rule="evenodd" stroke="none"/>
  </g>
</svg>
