<?xml version="1.0" encoding="UTF-8" standalone="no"?>
<svg xmlns:xlink="http://www.w3.org/1999/xlink" height="21.0px" width="22.4px" xmlns="http://www.w3.org/2000/svg">
  <g transform="matrix(1.0, 0.0, 0.0, 1.0, 0.0, 0.0)">
    <path d="M14.0 0.0 L16.25 0.25 Q18.4 0.25 20.55 4.25 L22.3 8.25 Q22.3 9.9 21.75 10.5 L21.1 10.95 21.2 11.1 Q22.4 10.55 22.4 11.9 22.4 12.5 22.0 13.2 L21.6 13.75 21.2 14.4 Q20.65 14.95 19.9 15.0 L16.2 18.1 Q12.55 21.0 11.25 21.0 L10.6 20.85 10.5 20.75 10.4 20.3 Q10.4 19.75 12.45 18.5 13.55 17.8 15.4 16.75 L17.55 15.1 Q18.2 14.7 18.7 14.55 L18.7 14.5 17.15 14.6 16.3 14.55 16.55 15.25 16.25 15.9 15.65 16.15 Q14.65 16.15 14.65 15.3 14.65 14.65 15.1 14.45 L14.75 14.4 Q14.55 14.3 14.55 13.65 14.55 12.6 17.15 12.95 17.2 12.15 17.65 11.35 17.15 11.15 16.95 10.55 16.8 9.9 17.05 9.5 15.1 9.25 15.05 7.95 L14.9 5.5 Q14.25 6.1 13.6 10.1 13.1 13.15 10.3 13.15 7.45 13.15 6.5 12.35 6.0 11.95 6.0 11.05 6.0 9.4 6.6 7.5 L4.75 7.75 Q3.75 7.75 3.15 7.35 L2.45 6.95 1.45 7.6 0.0 8.25 Q1.6 6.35 2.65 6.35 3.0 6.35 3.25 6.8 3.55 7.25 4.75 7.25 L5.7 7.0 6.6 6.75 Q7.55 6.75 7.55 8.3 L7.4 10.75 7.4 10.85 10.5 11.15 Q11.05 11.15 12.5 8.65 14.1 5.85 15.15 5.2 16.0 6.4 15.9 8.85 L17.5 9.0 Q17.9 9.0 17.9 9.4 L17.9 10.0 19.25 9.3 20.3 8.45 20.3 8.2 Q20.3 7.1 16.25 4.35 12.15 1.65 12.15 1.25 12.15 -0.05 14.0 0.0 M11.55 1.5 L11.4 1.9 Q11.15 2.25 10.75 2.25 L10.25 2.1 10.1 2.0 10.0 1.5 10.0 1.15 10.15 1.0 Q10.65 0.85 11.4 1.0 L11.55 1.5" fill="#ffffff" fill-rule="evenodd" stroke="none"/>
  </g>
</svg>
