<?xml version="1.0" encoding="UTF-8" standalone="no"?>
<svg xmlns:xlink="http://www.w3.org/1999/xlink" height="25.85px" width="16.05px" xmlns="http://www.w3.org/2000/svg">
  <g transform="matrix(1.0, 0.0, 0.0, 1.0, 0.0, 0.0)">
    <path d="M7.65 1.85 Q8.35 2.4 8.35 3.2 L8.25 4.5 9.0 3.75 9.9 3.95 Q7.3 8.35 5.85 14.9 L3.55 25.7 Q3.9 25.85 3.15 25.85 1.5 25.85 0.6 21.35 0.0 18.35 0.0 16.4 L0.15 16.1 0.3 15.9 0.9 15.8 1.45 16.0 1.4 13.65 Q1.35 10.35 2.55 8.6 3.15 9.35 3.35 11.1 3.75 9.65 4.3 8.65 L4.95 4.7 Q5.75 0.3 6.2 0.0 L6.35 0.95 5.8 5.9 5.65 7.1 5.85 6.95 6.75 4.3 Q7.3 2.3 7.65 1.85 M13.8 11.8 L13.85 12.35 11.75 16.4 10.25 19.4 11.1 18.7 Q10.95 19.9 9.6 21.85 L7.65 24.8 7.25 24.8 7.2 24.95 7.05 25.3 6.85 24.4 6.6 25.55 6.3 25.7 6.15 23.8 Q6.15 22.9 7.4 18.75 8.05 15.7 9.3 11.75 11.85 3.75 14.1 1.55 13.95 3.55 12.05 7.45 9.95 11.85 9.6 13.3 L9.4 14.25 11.75 10.25 Q14.75 5.55 15.75 4.85 16.05 4.55 16.05 5.3 16.05 6.0 13.6 10.05 L11.55 13.3 11.6 13.6 Q12.6 12.2 13.55 11.6 L13.8 11.8" fill="#ffffff" fill-rule="evenodd" stroke="none"/>
  </g>
</svg>
