<?xml version="1.0" encoding="UTF-8" standalone="no"?>
<svg xmlns:xlink="http://www.w3.org/1999/xlink" height="6.3px" width="12.5px" xmlns="http://www.w3.org/2000/svg">
  <g transform="matrix(1.0, 0.0, 0.0, 1.0, 0.0, 0.0)">
    <path d="M11.25 2.1 L10.5 1.95 10.75 3.8 Q11.5 3.2 11.5 2.8 L11.25 2.1 M9.75 3.55 Q9.75 2.45 8.85 2.2 7.25 1.7 2.45 3.05 L2.0 3.3 Q2.6 3.85 4.85 4.7 L9.25 4.45 9.5 4.05 Q9.75 4.15 9.75 3.55 M12.5 2.75 Q11.0 6.3 9.25 6.3 L4.65 5.95 3.5 6.05 Q0.9 6.05 0.3 5.3 0.05 4.9 0.25 4.5 L0.45 3.8 Q0.0 2.95 0.0 1.7 0.0 -0.5 6.25 0.15 12.5 0.75 12.5 2.75 M1.0 1.8 L1.2 2.05 3.75 1.3 4.6 1.15 1.85 1.25 Q1.35 1.35 1.0 1.8" fill="#ffffff" fill-rule="evenodd" stroke="none"/>
  </g>
</svg>
