<?xml version="1.0" encoding="UTF-8" standalone="no"?>
<svg xmlns:xlink="http://www.w3.org/1999/xlink" height="17.15px" width="17.9px" xmlns="http://www.w3.org/2000/svg">
  <g transform="matrix(1.0, 0.0, 0.0, 1.0, 2.0, 0.75)">
    <path d="M15.9 8.9 Q15.9 11.1 14.8 13.1 13.05 16.4 9.05 16.4 4.8 16.4 1.05 13.25 -2.0 10.8 -2.0 9.65 -2.0 6.5 0.8 3.45 3.5 0.55 7.0 -0.4 10.75 -1.45 13.1 0.6 15.9 3.0 15.9 8.9 M13.05 7.3 Q13.3 9.55 12.2 11.6 L12.15 11.75 Q13.15 10.9 13.3 9.4 13.45 8.2 13.05 7.3 M13.85 3.15 Q11.45 -1.0 5.7 1.1 L5.0 1.25 Q9.6 1.25 12.4 4.0 14.55 6.15 14.55 8.15 14.55 10.75 13.85 11.55 13.1 12.55 8.75 15.4 L8.2 15.7 Q12.45 15.95 14.2 12.95 15.25 11.2 15.25 8.9 15.25 5.5 13.85 3.15 M7.55 4.0 Q3.8 3.9 3.8 9.95 L4.0 11.75 Q4.3 13.1 4.9 13.1 8.25 13.1 10.0 10.95 11.25 9.45 11.25 8.25 11.25 6.5 10.05 5.25 8.95 4.1 7.55 4.0 M0.9 5.8 L0.5 7.1 0.2 8.3 Q0.2 9.3 0.8 10.4 1.5 11.65 2.4 12.15 1.4 10.85 1.15 8.75 L0.9 5.65 0.9 5.8 M2.25 5.95 L2.25 8.15 2.75 6.3 3.35 4.5 2.25 5.95 M-1.3 9.25 Q-1.55 10.85 -0.35 11.6 L-1.3 9.25" fill="#ffffff" fill-rule="evenodd" stroke="none"/>
  </g>
</svg>
