<?xml version="1.0" encoding="UTF-8" standalone="no"?>
<svg xmlns:xlink="http://www.w3.org/1999/xlink" height="25.0px" width="25.0px" xmlns="http://www.w3.org/2000/svg">
  <g transform="matrix(1.0, 0.0, 0.0, 1.0, 12.55, 12.5)">
    <path d="M9.65 -7.9 Q11.9 -5.2 12.35 -1.65 L2.3 9.9 9.65 -7.9 M1.25 12.45 L0.1 12.5 0.05 12.5 -0.05 12.5 0.05 12.45 0.1 12.5 0.75 11.75 -5.5 -11.3 Q-3.05 -12.5 -0.05 -12.5 L3.2 -12.1 1.05 11.4 2.3 9.9 1.25 12.45 M-12.4 1.95 L-12.55 0.0 Q-12.55 -1.65 -10.7 -7.1 L-10.65 -7.05 -0.3 12.15 -12.4 1.95" fill="url(#gradient0)" fill-rule="evenodd" stroke="none"/>
    <path d="M12.35 -1.65 L12.45 0.0 Q12.45 5.2 8.8 8.85 5.6 12.05 1.25 12.45 L2.3 9.9 1.05 11.4 3.2 -12.1 Q6.35 -11.3 8.8 -8.85 L9.65 -7.9 2.3 9.9 12.35 -1.65 M-0.05 12.5 Q-5.25 12.5 -8.9 8.85 -11.85 5.9 -12.4 1.95 L-0.3 12.15 -10.65 -7.05 -8.9 -8.85 Q-7.35 -10.4 -5.5 -11.3 L0.75 11.75 0.1 12.5 0.05 12.45 -0.05 12.5" fill="url(#gradient1)" fill-rule="evenodd" stroke="none"/>
  </g>
  <defs>
    <radialGradient cx="0" cy="0" gradientTransform="matrix(0.0252, 0.0, 0.0, 0.0252, 4.0, 6.8)" gradientUnits="userSpaceOnUse" id="gradient0" r="819.2" spreadMethod="pad">
      <stop offset="0.0" stop-color="#418a9c"/>
      <stop offset="0.41568627450980394" stop-color="#1a2233"/>
      <stop offset="0.8196078431372549" stop-color="#000000"/>
    </radialGradient>
    <radialGradient cx="0" cy="0" gradientTransform="matrix(0.0252, 0.0, 0.0, 0.0252, 4.0, 6.8)" gradientUnits="userSpaceOnUse" id="gradient1" r="819.2" spreadMethod="pad">
      <stop offset="0.0" stop-color="#80d1e6"/>
      <stop offset="0.4549019607843137" stop-color="#1d4163"/>
      <stop offset="0.8196078431372549" stop-color="#262d62"/>
    </radialGradient>
  </defs>
</svg>
