<?xml version="1.0" encoding="UTF-8" standalone="no"?>
<svg xmlns:xlink="http://www.w3.org/1999/xlink" height="26.15px" width="23.0px" xmlns="http://www.w3.org/2000/svg">
  <g transform="matrix(1.0, 0.0, 0.0, 1.0, 3.75, -1.35)">
    <path d="M1.5 3.15 L2.25 4.4 2.85 5.6 2.9 5.65 3.0 5.4 2.45 4.25 Q1.9 3.3 1.5 3.1 L1.5 3.15 M4.9 5.75 Q8.5 5.55 8.5 11.0 L8.5 11.15 9.65 11.2 Q11.35 11.45 12.65 12.75 14.0 14.15 14.0 15.95 L13.95 16.6 14.6 16.6 Q17.3 18.35 18.3 19.75 19.25 21.0 19.25 22.65 19.25 23.9 18.3 25.4 16.9 27.5 14.35 27.5 12.2 27.5 10.85 24.55 L10.0 21.8 10.0 21.4 8.75 21.5 Q6.45 21.5 5.6 18.8 L5.25 16.05 5.25 15.75 Q2.3 15.75 1.5 13.25 L1.35 11.6 0.6 11.75 Q-1.75 11.75 -3.0 8.25 -3.6 6.5 -3.75 4.65 -3.75 0.75 0.15 1.45 4.0 2.1 4.0 5.9 L4.9 5.75 M3.5 8.6 L3.25 9.15 2.5 10.6 Q2.5 11.8 3.3 12.6 4.1 13.45 4.1 13.85 L4.2 14.35 4.75 14.4 5.4 14.3 Q5.8 11.95 7.4 11.35 L7.5 11.0 Q7.5 8.6 5.0 8.35 4.05 8.25 3.5 8.6 M3.9 7.0 L3.8 7.5 4.75 7.35 6.25 7.4 Q5.8 6.85 4.95 6.8 L3.9 7.0 M2.25 7.0 Q2.15 5.75 1.2 4.35 -0.25 2.2 -2.25 4.65 -1.8 5.25 -1.85 5.5 L-2.0 5.95 -1.7 7.5 Q-1.25 8.5 -0.25 8.5 L0.05 8.75 Q0.05 9.0 0.35 9.0 1.0 9.0 1.5 8.65 1.7 7.65 2.25 7.0 M0.55 10.05 L-0.4 10.1 -0.25 10.45 Q-0.1 10.65 0.25 10.65 L1.25 10.45 1.3 9.8 0.55 10.05 M9.0 17.95 Q9.0 17.75 10.4 17.25 L11.75 16.4 Q11.75 14.85 9.65 14.65 7.5 14.5 7.5 16.05 7.5 17.15 7.9 18.2 8.45 19.9 9.75 19.9 L10.2 19.9 Q10.45 19.15 11.15 18.75 L11.4 18.55 11.4 18.35 9.15 18.5 Q9.0 18.55 9.0 17.95 M8.0 20.4 L8.5 20.35 Q7.9 19.85 7.5 20.0 L8.0 20.4 M12.25 21.9 L12.5 24.85 12.35 24.9 12.65 24.9 Q15.45 24.9 16.25 23.95 L16.5 22.95 Q16.5 20.2 14.4 19.15 L13.1 19.05 12.5 19.9 Q12.25 20.6 12.25 21.9 M17.75 24.05 Q17.25 24.6 14.25 26.0 L13.6 26.1 13.6 26.25 Q13.65 26.4 14.0 26.4 17.5 26.4 18.15 24.0 18.65 22.2 17.85 20.9 L17.85 21.0 18.0 22.5 17.75 24.05 M11.0 12.75 Q9.5 11.65 8.45 12.1 L8.2 13.2 Q9.2 12.65 11.0 12.75 M-2.5 3.35 L-2.5 3.5 -1.25 2.5 Q-2.3 2.8 -2.5 3.35" fill="#ffffff" fill-rule="evenodd" stroke="none"/>
  </g>
</svg>
