<?xml version="1.0" encoding="UTF-8" standalone="no"?>
<svg xmlns:xlink="http://www.w3.org/1999/xlink" height="33.65px" width="34.9px" xmlns="http://www.w3.org/2000/svg">
  <g transform="matrix(1.0, 0.0, 0.0, 1.0, 8.25, 4.7)">
    <path d="M23.1 17.25 L22.65 17.45 Q22.7 20.4 19.9 23.3 17.85 25.4 14.65 27.1 L14.8 27.2 14.5 27.15 10.75 28.7 Q10.6 29.3 10.6 28.35 L13.35 26.65 11.5 25.25 Q9.7 23.7 8.8 22.35 L4.7 22.55 1.05 22.25 0.9 22.25 2.45 26.85 1.75 27.2 Q0.85 25.25 0.05 22.2 L-2.55 21.9 -2.7 21.7 -0.2 21.45 -0.8 19.0 -2.5 18.3 Q-3.15 18.65 -3.3 17.75 -5.6 16.3 -8.25 13.55 L-8.25 13.2 -3.3 15.7 -2.8 13.5 -3.1 12.5 -2.85 11.05 -3.1 10.25 -2.95 10.0 -2.65 10.45 Q-2.05 8.55 -0.5 5.4 L-3.9 6.7 Q-3.45 6.0 -1.75 5.35 L-0.2 4.85 2.45 -0.85 Q1.6 -0.85 0.6 -1.6 L0.7 -1.9 -0.85 -2.35 -0.85 -2.8 0.9 -2.5 1.35 -2.95 9.7 -2.95 Q13.85 -5.95 15.25 -3.8 L15.25 -3.5 14.95 -3.5 14.15 -3.65 Q12.65 -3.65 11.1 -2.8 L17.3 2.7 Q22.4 7.55 22.4 8.4 22.4 9.35 21.45 11.25 23.15 13.65 23.45 15.7 L26.5 14.45 26.55 14.35 26.65 14.9 23.55 16.95 23.4 17.4 23.15 17.6 23.1 17.25 M9.25 -1.5 L7.8 -0.1 Q11.85 1.9 15.85 5.35 L17.25 6.6 Q18.0 6.25 18.7 6.15 L19.1 6.75 18.45 7.7 20.7 10.25 Q21.55 8.8 21.55 8.15 L19.1 5.7 15.55 2.4 12.8 -1.25 9.25 -1.5 M7.7 -1.3 L5.85 -1.0 6.9 -0.55 7.7 -1.3 M15.4 6.7 Q11.5 3.15 6.95 0.75 5.2 2.7 3.45 5.4 L2.4 7.05 3.05 9.65 Q4.0 13.7 9.2 14.9 L11.35 12.5 14.65 8.45 16.05 7.25 15.4 6.7 M17.55 8.75 L12.9 14.0 Q8.3 18.35 4.25 19.6 5.8 20.35 7.65 20.35 L8.3 20.35 15.4 18.75 16.35 17.75 Q17.55 16.35 17.75 14.15 L19.9 11.4 17.55 8.75 M5.95 0.25 L4.3 -0.5 4.3 0.05 1.8 4.45 5.5 0.7 5.95 0.25 M1.05 9.2 Q-0.35 11.55 -1.15 13.55 L0.6 16.5 2.6 18.6 3.95 18.05 7.4 16.2 Q3.2 15.55 1.65 11.8 L1.05 9.2 M0.25 19.9 L0.6 21.4 3.3 21.1 1.6 20.05 1.0 20.05 0.25 19.9 M-2.05 16.35 L-1.4 16.75 -1.55 16.3 -1.9 15.6 -2.05 16.35 M17.9 17.85 L22.65 16.05 Q21.95 14.3 20.7 12.5 L18.7 15.55 Q18.5 16.8 17.9 17.85 M20.35 19.45 L21.0 18.35 Q15.25 21.4 9.4 22.25 L12.0 24.55 13.9 26.25 18.5 22.4 20.35 19.45" fill="#ffffff" fill-rule="evenodd" stroke="none"/>
  </g>
</svg>
