<?xml version="1.0" encoding="UTF-8" standalone="no"?>
<svg xmlns:xlink="http://www.w3.org/1999/xlink" height="28.65px" width="28.8px" xmlns="http://www.w3.org/2000/svg">
  <g transform="matrix(1.0, 0.0, 0.0, 1.0, 14.1, 13.2)">
    <path d="M-1.25 12.45 L-0.65 12.5 -0.15 13.5 -0.5 12.5 -0.35 12.5 -1.65 9.25 Q-2.8 5.55 -3.9 3.95 L-3.9 3.8 Q-3.2 4.15 -2.85 4.8 L-2.3 6.05 -2.25 6.05 -3.9 1.2 -3.85 1.1 -3.6 1.05 -1.2 3.6 0.65 4.2 3.75 4.65 3.8 4.65 0.75 3.05 Q-1.55 1.75 -1.55 1.35 L-1.5 0.95 -0.9 0.9 Q-0.25 0.9 0.9 1.55 L-0.75 0.2 Q-1.55 -0.4 -1.55 -0.85 L-1.5 -1.2 -1.1 -1.35 -0.05 -1.05 1.65 -1.4 6.3 -1.5 3.8 -1.8 0.9 -2.0 Q0.7 -2.1 0.9 -2.4 L1.2 -2.7 2.85 -2.85 3.15 -2.9 1.25 -3.05 Q1.15 -3.15 1.35 -3.45 2.8 -4.45 5.95 -5.95 8.5 -7.15 9.95 -7.55 L11.1 -7.7 11.15 -7.4 11.1 -7.05 10.4 -6.95 Q9.3 -6.75 7.35 -5.9 5.15 -4.95 3.6 -4.05 L3.3 -3.75 8.35 -4.3 11.6 -4.65 13.2 -4.8 14.25 -4.6 14.3 -4.4 14.25 -4.05 12.25 -3.8 12.6 -3.45 12.6 -3.15 12.1 -3.2 11.9 -3.75 5.25 -2.45 10.5 -1.1 12.45 -0.6 14.7 0.15 14.6 0.4 Q14.5 0.6 14.05 0.6 L13.7 0.6 13.2 0.75 12.45 0.75 12.45 0.35 11.35 0.0 4.65 -0.65 1.35 -0.45 7.95 2.45 11.7 4.4 13.2 5.55 13.0 5.8 12.5 5.9 11.25 5.5 6.75 3.3 Q1.05 0.4 0.05 0.0 L5.7 3.8 Q7.3 4.9 10.25 5.8 L10.95 6.05 12.75 6.6 12.75 6.95 12.65 6.95 13.1 7.2 13.05 7.5 12.6 7.65 11.6 7.6 Q11.55 7.95 11.1 7.95 L9.95 7.6 8.6 6.9 Q6.5 5.8 5.85 5.7 L0.0 4.65 Q1.5 5.75 3.6 7.65 L6.75 10.55 6.9 10.65 6.45 10.95 6.25 10.85 3.25 8.55 Q-0.15 5.75 -0.95 5.25 L1.2 9.0 3.0 12.2 3.45 13.05 3.4 13.2 3.15 13.25 Q2.8 13.25 2.15 12.35 L0.7 10.05 -2.1 4.95 Q-0.85 8.15 0.55 12.5 L1.1 14.3 0.9 14.55 0.7 14.25 0.8 14.6 0.8 15.3 0.75 15.45 Q-0.25 14.35 -1.25 12.45 M10.85 -6.25 L11.9 -6.1 11.15 -5.6 10.85 -6.25 M12.15 2.8 L12.6 3.2 12.6 3.6 12.0 3.65 11.95 3.65 12.15 2.8 M8.25 9.4 L9.9 10.5 9.5 10.65 Q9.05 10.65 7.7 9.85 L8.25 9.4 M4.55 11.7 L5.1 12.9 5.1 13.1 4.8 13.2 3.15 12.15 4.55 11.7 M-1.35 8.75 L-1.25 8.7 -1.7 7.5 -1.35 8.75 M-0.75 10.65 L-0.6 10.65 -0.9 10.2 -0.75 10.65" fill="#1b0e00" fill-rule="evenodd" stroke="none"/>
    <path d="M-1.25 12.45 Q-5.7 12.05 -8.9 8.85 -12.55 5.2 -12.55 0.0 -12.55 -5.2 -8.9 -8.85 -5.25 -12.5 -0.05 -12.5 5.15 -12.5 8.8 -8.85 L9.95 -7.55 Q8.5 -7.15 5.95 -5.95 2.8 -4.45 1.35 -3.45 1.15 -3.15 1.25 -3.05 L3.15 -2.9 2.85 -2.85 1.2 -2.7 0.9 -2.4 Q0.7 -2.1 0.9 -2.0 L3.8 -1.8 6.3 -1.5 1.65 -1.4 -0.05 -1.05 -1.1 -1.35 -1.5 -1.2 -1.55 -0.85 Q-1.55 -0.4 -0.75 0.2 L0.9 1.55 Q-0.25 0.9 -0.9 0.9 L-1.5 0.95 -1.55 1.35 Q-1.55 1.75 0.75 3.05 L3.8 4.65 3.75 4.65 0.65 4.2 -1.2 3.6 -3.6 1.05 -3.85 1.1 -3.9 1.2 -2.25 6.05 -2.3 6.05 -2.85 4.8 Q-3.2 4.15 -3.9 3.8 L-3.9 3.95 Q-2.8 5.55 -1.65 9.25 L-0.35 12.5 -0.5 12.5 -0.65 12.5 -1.25 12.45 M10.4 -6.95 L10.85 -6.25 11.15 -5.6 11.6 -4.65 8.35 -4.3 3.3 -3.75 3.6 -4.05 Q5.15 -4.95 7.35 -5.9 9.3 -6.75 10.4 -6.95 M12.1 -3.2 L12.45 -0.6 10.5 -1.1 5.25 -2.45 11.9 -3.75 12.1 -3.2 M12.45 0.75 L12.15 2.8 11.95 3.65 11.7 4.4 7.95 2.45 1.35 -0.45 4.65 -0.65 11.35 0.0 12.45 0.35 12.45 0.75 M11.25 5.5 L10.95 6.05 10.25 5.8 Q7.3 4.9 5.7 3.8 L0.05 0.0 Q1.05 0.4 6.75 3.3 L11.25 5.5 M9.95 7.6 L8.8 8.85 8.25 9.4 7.7 9.85 6.75 10.55 3.6 7.65 Q1.5 5.75 0.0 4.65 L5.85 5.7 Q6.5 5.8 8.6 6.9 L9.95 7.6 M6.25 10.85 L4.55 11.7 3.15 12.15 3.0 12.2 1.2 9.0 -0.95 5.25 Q-0.15 5.75 3.25 8.55 L6.25 10.85 M2.15 12.35 L0.55 12.5 Q-0.85 8.15 -2.1 4.95 L0.7 10.05 2.15 12.35 M-0.75 10.65 L-0.9 10.2 -0.6 10.65 -0.75 10.65 M-1.35 8.75 L-1.7 7.5 -1.25 8.7 -1.35 8.75" fill="url(#gradient0)" fill-rule="evenodd" stroke="none"/>
    <path d="M2.55 -12.6 L2.7 -12.55 2.9 -11.85 3.25 -11.5 4.9 -11.2 6.55 -10.55 6.6 -10.45 6.65 -10.35 6.65 -10.25 6.65 -10.15 6.65 -10.1 7.2 -9.75 7.45 -9.55 7.95 -9.3 8.45 -9.05 9.0 -8.55 9.0 -8.2 8.85 -7.9 9.1 -7.5 9.7 -6.9 10.15 -6.1 10.55 -5.1 10.55 -4.4 Q10.2 -4.25 9.95 -4.7 L9.7 -5.45 9.7 -5.55 Q9.45 -6.35 8.6 -6.6 L6.45 -7.15 Q6.2 -7.15 6.0 -7.3 L5.8 -7.5 5.75 -7.55 5.65 -7.7 5.55 -7.75 5.45 -7.9 5.35 -7.95 5.2 -8.2 5.0 -8.35 5.0 -8.25 5.1 -8.15 5.25 -7.95 5.3 -7.9 5.35 -7.8 5.55 -7.65 5.8 -7.35 6.1 -7.05 6.2 -6.9 6.4 -6.65 6.45 -6.35 Q6.35 -6.15 6.1 -6.25 L5.8 -6.45 5.35 -6.85 5.0 -7.15 4.8 -7.35 4.4 -7.65 4.4 -7.55 Q4.45 -5.5 3.95 -3.5 3.5 -1.75 2.65 -0.2 L2.85 1.05 3.05 2.4 3.05 3.85 3.05 4.05 Q-0.25 4.65 -1.55 7.6 -2.45 9.6 -3.95 10.2 L-3.8 10.4 Q-4.05 10.85 -4.65 10.6 L-4.75 10.55 -4.7 11.0 -4.75 11.25 -5.4 10.85 -5.8 11.1 Q-6.6 11.05 -6.05 11.55 L-5.95 11.65 -5.85 11.75 -5.85 11.8 -5.85 11.95 -5.95 12.0 -6.0 12.1 -7.5 11.8 -8.05 11.75 Q-8.15 12.35 -8.8 12.0 L-9.9 11.15 -10.0 11.25 Q-10.85 11.75 -11.35 10.4 -11.8 9.45 -12.6 8.65 L-13.0 7.75 -12.9 7.7 -12.85 7.6 -12.55 7.55 -12.4 7.6 -13.1 5.8 -13.9 3.85 Q-14.25 2.9 -13.95 2.15 -13.5 2.15 -13.35 2.65 L-13.05 3.4 -12.8 4.0 -13.1 2.2 -13.3 0.25 -13.3 -1.7 -13.3 -1.8 -13.05 -2.15 -12.65 -4.35 Q-12.3 -6.3 -9.1 -10.0 -5.9 -13.7 -1.8 -13.15 L2.35 -12.65 2.55 -12.6 M0.25 -2.15 L0.4 -2.15 0.45 -2.4 0.9 -2.45 0.05 -3.75 -0.2 -4.0 -0.75 -4.45 -2.05 -5.0 -2.25 -4.7 -2.1 -4.25 -1.95 -3.7 -1.35 -3.05 Q-1.1 -2.8 -0.85 -2.8 L-0.5 -2.6 -0.1 -2.45 -0.1 -2.25 0.0 -2.15 0.25 -2.15 M-12.2 4.15 L-12.15 4.15 -12.2 4.0 -12.2 4.15 M-11.35 8.8 Q-10.9 9.7 -10.35 9.35 -10.05 8.85 -10.85 8.15 L-11.55 6.85 Q-11.6 6.25 -11.95 6.0 -11.7 6.7 -11.7 7.35 L-11.35 8.8 M-10.2 7.7 L-9.5 8.2 -11.1 6.15 -10.2 7.7" fill="#000000" fill-rule="evenodd" stroke="none"/>
    <path d="M0.25 -2.15 L0.0 -2.15 -0.1 -2.25 -0.1 -2.45 -0.5 -2.6 -0.85 -2.8 Q-1.1 -2.8 -1.35 -3.05 L-1.95 -3.7 -2.1 -4.25 -2.25 -4.7 -2.05 -5.0 -0.75 -4.45 -0.2 -4.0 0.05 -3.75 0.9 -2.45 0.45 -2.4 0.4 -2.15 0.25 -2.15" fill="#ffffff" fill-rule="evenodd" stroke="none"/>
  </g>
  <defs>
    <radialGradient cx="0" cy="0" gradientTransform="matrix(0.0252, 0.0, 0.0, 0.0252, 4.0, 6.8)" gradientUnits="userSpaceOnUse" id="gradient0" r="819.2" spreadMethod="pad">
      <stop offset="0.0" stop-color="#d3590a"/>
      <stop offset="0.41568627450980394" stop-color="#492603"/>
      <stop offset="0.8196078431372549" stop-color="#000000"/>
    </radialGradient>
  </defs>
</svg>
