<?xml version="1.0" encoding="UTF-8" standalone="no"?>
<svg xmlns:xlink="http://www.w3.org/1999/xlink" height="45.2px" width="70.45px" xmlns="http://www.w3.org/2000/svg">
  <g transform="matrix(1.0, 0.0, 0.0, 1.0, 56.8, 37.75)">
    <path d="M-43.25 -6.1 L-45.75 -7.1 -38.15 -14.6 -32.25 -18.0 -28.95 -17.8 -18.1 -6.2 -20.95 2.0 -29.15 5.6 -29.8 4.55 -34.2 -2.45 -43.25 -6.1" fill="url(#gradient0)" fill-rule="evenodd" stroke="none"/>
    <path d="M-43.35 -5.85 L-43.25 -6.1 -34.2 -2.45 -29.8 4.55 -30.05 4.65 -34.4 7.45 -36.4 3.5 -46.9 0.0 -43.35 -5.85" fill="url(#gradient1)" fill-rule="evenodd" stroke="none"/>
    <path d="M-43.25 -6.1 L-45.75 -7.1 -38.15 -14.6 -32.25 -18.0 -31.05 -18.7 M-32.25 -18.0 L-28.95 -17.8 -18.1 -6.2 -20.95 2.0 -29.15 5.6 -29.8 4.55 -34.2 -2.45 -43.25 -6.1 M-30.05 4.65 L-34.4 7.45 -36.4 3.5 -46.9 0.0 -43.35 -5.85" fill="none" stroke="#000000" stroke-linecap="round" stroke-linejoin="round" stroke-width="0.05"/>
    <path d="M13.65 -12.95 Q6.0 -8.5 4.1 -1.0 L-1.1 -2.65 Q-7.5 -0.6 -10.65 2.6 L-13.0 0.0 Q-16.9 0.95 -21.45 5.2 -20.5 1.4 -21.7 -1.85 -22.5 -6.8 -26.85 -12.4 -29.15 -16.15 -36.85 -20.95 -25.15 -25.05 -17.2 -23.0 -14.2 -25.15 -17.7 -29.9 8.55 -21.95 13.65 -12.95" fill="url(#gradient2)" fill-rule="evenodd" stroke="none"/>
    <path d="M13.65 -12.95 Q8.55 -21.95 -17.7 -29.9 -14.2 -25.15 -17.2 -23.0 -25.15 -25.05 -36.85 -20.95 -29.15 -16.15 -26.85 -12.4 -22.5 -6.8 -21.7 -1.85 -20.5 1.4 -21.45 5.2 -16.9 0.95 -13.0 0.0 L-10.65 2.6 Q-7.5 -0.6 -1.1 -2.65 L4.1 -1.0 Q6.0 -8.5 13.65 -12.95 Z" fill="none" stroke="#000000" stroke-linecap="round" stroke-linejoin="round" stroke-width="0.05"/>
    <path d="M-56.8 -16.45 Q-41.1 -24.75 -25.45 -27.5 -27.45 -33.8 -34.05 -37.75 -16.15 -36.05 -10.5 -29.4 -9.7 -32.65 -13.65 -35.9 0.35 -31.6 8.0 -18.2 -0.6 -17.35 -3.95 -10.9 -10.8 -15.95 -20.3 -13.7 -25.3 -13.25 -23.95 -8.65 -34.0 -8.95 -34.6 -2.45 L-42.6 -0.6 Q-48.2 -1.3 -53.85 3.9 -50.6 -5.5 -42.6 -12.95 -47.3 -17.0 -56.8 -16.45" fill="url(#gradient3)" fill-rule="evenodd" stroke="none"/>
    <path d="M-56.8 -16.45 Q-41.1 -24.75 -25.45 -27.5 -27.45 -33.8 -34.05 -37.75 -16.15 -36.05 -10.5 -29.4 -9.7 -32.65 -13.65 -35.9 0.35 -31.6 8.0 -18.2 -0.6 -17.35 -3.95 -10.9 -10.8 -15.95 -20.3 -13.7 -25.3 -13.25 -23.95 -8.65 -34.0 -8.95 -34.6 -2.45 L-42.6 -0.6 Q-48.2 -1.3 -53.85 3.9 -50.6 -5.5 -42.6 -12.95 -47.3 -17.0 -56.8 -16.45 Z" fill="none" stroke="#000000" stroke-linecap="round" stroke-linejoin="round" stroke-width="0.05"/>
  </g>
  <defs>
    <radialGradient cx="0" cy="0" gradientTransform="matrix(0.0198, 0.0, 0.0, 0.0198, -29.55, -5.65)" gradientUnits="userSpaceOnUse" id="gradient0" r="819.2" spreadMethod="pad">
      <stop offset="0.0" stop-color="#5b4b35"/>
      <stop offset="1.0" stop-color="#343943"/>
    </radialGradient>
    <radialGradient cx="0" cy="0" gradientTransform="matrix(0.0135, 0.0, 0.0, 0.0135, -35.9, -1.15)" gradientUnits="userSpaceOnUse" id="gradient1" r="819.2" spreadMethod="pad">
      <stop offset="0.0" stop-color="#5b4b35"/>
      <stop offset="1.0" stop-color="#343943"/>
    </radialGradient>
    <radialGradient cx="0" cy="0" gradientTransform="matrix(0.0402, 0.0, 0.0, 0.0402, -5.25, -11.6)" gradientUnits="userSpaceOnUse" id="gradient2" r="819.2" spreadMethod="pad">
      <stop offset="0.0" stop-color="#5b4b35"/>
      <stop offset="1.0" stop-color="#343943"/>
    </radialGradient>
    <radialGradient cx="0" cy="0" gradientTransform="matrix(0.0431, -0.0179, 0.0218, 0.0525, -26.55, -27.65)" gradientUnits="userSpaceOnUse" id="gradient3" r="819.2" spreadMethod="pad">
      <stop offset="0.0" stop-color="#597546"/>
      <stop offset="0.2549019607843137" stop-color="#263124"/>
      <stop offset="0.6235294117647059" stop-color="#0c1116"/>
      <stop offset="1.0" stop-color="#000000"/>
    </radialGradient>
  </defs>
</svg>
