<?xml version="1.0" encoding="UTF-8" standalone="no"?>
<svg xmlns:xlink="http://www.w3.org/1999/xlink" height="47.15px" width="37.45px" xmlns="http://www.w3.org/2000/svg">
  <g transform="matrix(1.0, 0.0, 0.0, 1.0, 17.35, 16.5)">
    <path d="M0.35 14.1 L6.3 7.85 12.65 19.7 9.35 21.95 0.45 14.5 0.35 14.1" fill="#141614" fill-rule="evenodd" stroke="none"/>
    <path d="M0.45 14.5 L9.35 21.95 12.65 19.7 6.3 7.85 0.35 14.1" fill="none" stroke="#000000" stroke-linecap="round" stroke-linejoin="round" stroke-width="0.05"/>
    <path d="M19.2 26.85 Q17.75 29.85 14.95 30.5 12.15 31.15 9.55 29.1 7.0 27.05 6.15 23.5 5.35 20.0 6.75 17.0 8.2 14.0 11.0 13.35 13.8 12.7 16.4 14.75 19.0 16.8 19.8 20.3 20.65 23.85 19.2 26.85" fill="url(#gradient0)" fill-rule="evenodd" stroke="none"/>
    <path d="M19.2 26.85 Q17.75 29.85 14.95 30.5 12.15 31.15 9.55 29.1 7.0 27.05 6.15 23.5 5.35 20.0 6.75 17.0 8.2 14.0 11.0 13.35 13.8 12.7 16.4 14.75 19.0 16.8 19.8 20.3 20.65 23.85 19.2 26.85 Z" fill="none" stroke="#000000" stroke-linecap="round" stroke-linejoin="round" stroke-width="0.05"/>
    <path d="M-17.35 -10.35 Q-10.15 -17.9 -0.95 -16.2 1.8 -2.7 9.6 11.15 5.1 13.4 3.5 18.7 L-3.05 13.2 Q-10.65 4.65 -16.35 -2.5 -13.3 -4.5 -17.35 -10.35" fill="url(#gradient1)" fill-rule="evenodd" stroke="none"/>
    <path d="M-17.35 -10.35 Q-13.3 -4.5 -16.35 -2.5 -10.65 4.65 -3.05 13.2 L3.5 18.7 Q5.1 13.4 9.6 11.15 1.8 -2.7 -0.95 -16.2 -10.15 -17.9 -17.35 -10.35 Z" fill="none" stroke="#000000" stroke-linecap="round" stroke-linejoin="round" stroke-width="0.05"/>
    <path d="M1.75 -8.15 L10.15 8.4 5.05 9.8 -8.7 -0.25 -10.4 -11.1 -2.15 -15.1 4.2 -13.8 Q9.95 -4.6 11.65 3.25 8.9 -1.95 3.5 -7.9 L1.75 -8.15" fill="url(#gradient2)" fill-rule="evenodd" stroke="none"/>
    <path d="M1.75 -8.15 L10.15 8.4 5.05 9.8 -8.7 -0.25 -10.4 -11.1 -2.15 -15.1 4.2 -13.8 Q9.95 -4.6 11.65 3.25 8.9 -1.95 3.5 -7.9 L1.75 -8.15 Z" fill="none" stroke="#000000" stroke-linecap="round" stroke-linejoin="round" stroke-width="0.05"/>
  </g>
  <defs>
    <radialGradient cx="0" cy="0" gradientTransform="matrix(0.0192, 0.0, 0.0, 0.0192, 11.3, 15.95)" gradientUnits="userSpaceOnUse" id="gradient0" r="819.2" spreadMethod="pad">
      <stop offset="0.0" stop-color="#ffffff"/>
      <stop offset="0.16862745098039217" stop-color="#606364"/>
      <stop offset="0.6392156862745098" stop-color="#111111"/>
      <stop offset="1.0" stop-color="#000000"/>
    </radialGradient>
    <radialGradient cx="0" cy="0" gradientTransform="matrix(0.0285, 0.0, 0.0, 0.0285, -7.2, 6.05)" gradientUnits="userSpaceOnUse" id="gradient1" r="819.2" spreadMethod="pad">
      <stop offset="0.0" stop-color="#597546"/>
      <stop offset="0.2549019607843137" stop-color="#263124"/>
      <stop offset="0.6235294117647059" stop-color="#0c1116"/>
      <stop offset="1.0" stop-color="#000000"/>
    </radialGradient>
    <radialGradient cx="0" cy="0" gradientTransform="matrix(0.0214, 0.0, 0.0, 0.0214, -2.95, -2.9)" gradientUnits="userSpaceOnUse" id="gradient2" r="819.2" spreadMethod="pad">
      <stop offset="0.0" stop-color="#5b4b35"/>
      <stop offset="1.0" stop-color="#343943"/>
    </radialGradient>
  </defs>
</svg>
