<?xml version="1.0" encoding="UTF-8" standalone="no"?>
<svg xmlns:xlink="http://www.w3.org/1999/xlink" height="26.25px" width="11.75px" xmlns="http://www.w3.org/2000/svg">
  <g transform="matrix(1.0, 0.0, 0.0, 1.0, 2.0, 17.75)">
    <path d="M1.7 -8.15 Q2.35 -12.95 6.75 -17.75 6.25 -12.8 7.8 -8.1 L1.7 -8.15" fill="url(#gradient0)" fill-rule="evenodd" stroke="none"/>
    <path d="M1.7 -8.15 Q2.35 -12.95 6.75 -17.75 6.25 -12.8 7.8 -8.1" fill="none" stroke="#000000" stroke-linecap="round" stroke-linejoin="round" stroke-width="0.05"/>
    <path d="M2.65 -3.8 L2.7 -3.65 2.7 -3.45 2.7 -3.15 2.65 -2.95 2.6 -2.85 Q2.75 -2.5 2.15 -2.05 1.6 -1.7 1.4 -1.1 L1.25 -0.75 1.75 -0.75 2.4 -0.7 2.95 -0.4 2.95 -0.15 2.85 0.2 2.6 1.0 2.45 1.75 2.45 2.0 2.7 2.3 3.45 2.45 5.2 2.75 5.3 3.15 5.45 3.7 Q5.6 4.25 6.1 4.7 L6.75 5.25 6.95 5.3 8.05 5.35 8.25 5.35 8.5 5.4 8.65 5.45 8.8 5.4 9.15 5.4 9.25 5.45 9.3 5.5 9.4 5.55 9.5 5.65 9.7 5.75 9.7 5.8 9.75 5.9 9.75 6.0 9.75 6.1 9.75 6.2 9.75 6.25 9.7 6.3 9.65 6.45 9.3 6.6 9.05 6.9 8.75 7.2 8.2 7.7 8.15 7.75 8.1 7.8 7.5 8.5 Q7.35 8.05 7.65 7.65 L7.95 7.35 8.05 7.1 8.1 6.6 5.0 6.45 4.9 6.4 3.85 6.0 2.55 5.65 0.1 5.8 Q0.4 4.95 1.2 4.1 2.0 3.2 0.6 2.25 L-1.75 0.5 -2.0 -0.1 -0.95 -1.15 0.6 -2.3 1.1 -2.6 1.6 -3.55 1.8 -4.0 1.7 -4.1 1.65 -4.25 1.65 -4.3 1.6 -4.4 1.4 -4.45 1.2 -4.55 1.15 -4.65 1.15 -4.75 1.2 -4.75 1.25 -4.8 1.3 -4.8 1.4 -4.85 Q1.75 -4.8 1.95 -4.55 2.55 -4.4 2.65 -3.85 L2.65 -3.8 M5.85 5.5 L5.75 5.35 5.65 5.45 5.85 5.5 M6.25 6.15 L6.1 6.2 6.35 6.15 6.25 6.15" fill="#000000" fill-opacity="0.15294118" fill-rule="evenodd" stroke="none"/>
  </g>
  <defs>
    <radialGradient cx="0" cy="0" gradientTransform="matrix(0.0114, 0.0, 0.0, 0.0114, 5.75, -16.5)" gradientUnits="userSpaceOnUse" id="gradient0" r="819.2" spreadMethod="pad">
      <stop offset="0.0" stop-color="#96c4e1"/>
      <stop offset="0.43529411764705883" stop-color="#363f52"/>
      <stop offset="1.0" stop-color="#1a1a1a"/>
    </radialGradient>
  </defs>
</svg>
