<?xml version="1.0" encoding="UTF-8" standalone="no"?>
<svg xmlns:xlink="http://www.w3.org/1999/xlink" height="17.85px" width="20.55px" xmlns="http://www.w3.org/2000/svg">
  <g transform="matrix(1.0, 0.0, 0.0, 1.0, 15.3, 15.0)">
    <path d="M-0.6 2.55 Q-2.05 -1.05 -6.65 -5.6 -10.55 -9.3 -14.05 -10.1 L-14.2 -10.55 -15.3 -13.95 Q-7.0 -9.95 -1.1 -3.15 L1.7 2.85 -0.6 2.55" fill="url(#gradient0)" fill-rule="evenodd" stroke="none"/>
    <path d="M4.55 0.8 L2.15 1.45 Q-2.35 -5.6 -2.3 -15.0 3.7 -7.8 5.25 -0.5 L4.55 0.8" fill="url(#gradient1)" fill-rule="evenodd" stroke="none"/>
    <path d="M-14.05 -10.1 Q-10.55 -9.3 -6.65 -5.6 -2.05 -1.05 -0.6 2.55 L-4.25 2.0 -6.25 0.9 Q-10.95 -1.6 -14.05 -10.1" fill="url(#gradient2)" fill-rule="evenodd" stroke="none"/>
    <path d="M1.7 2.85 L-1.1 -3.15 Q-7.0 -9.95 -15.3 -13.95 L-14.2 -10.55 -14.05 -10.1 Q-10.95 -1.6 -6.25 0.9 L-4.25 2.0 M2.15 1.45 Q-2.35 -5.6 -2.3 -15.0 3.7 -7.8 5.25 -0.5 L4.55 0.8" fill="none" stroke="#000000" stroke-linecap="round" stroke-linejoin="round" stroke-width="0.05"/>
  </g>
  <defs>
    <radialGradient cx="0" cy="0" gradientTransform="matrix(0.0248, 0.0, 0.0, 0.0248, -13.3, -10.9)" gradientUnits="userSpaceOnUse" id="gradient0" r="819.2" spreadMethod="pad">
      <stop offset="0.0" stop-color="#ee99d5"/>
      <stop offset="1.0" stop-color="#a91b8d"/>
    </radialGradient>
    <radialGradient cx="0" cy="0" gradientTransform="matrix(0.0156, 0.0, 0.0, 0.0156, -1.15, -10.6)" gradientUnits="userSpaceOnUse" id="gradient1" r="819.2" spreadMethod="pad">
      <stop offset="0.0" stop-color="#ee99d5"/>
      <stop offset="1.0" stop-color="#a91b8d"/>
    </radialGradient>
    <radialGradient cx="0" cy="0" gradientTransform="matrix(0.0248, 0.0, 0.0, 0.0248, -13.3, -10.9)" gradientUnits="userSpaceOnUse" id="gradient2" r="819.2" spreadMethod="pad">
      <stop offset="0.0" stop-color="#fae2f3"/>
      <stop offset="1.0" stop-color="#ebc469"/>
    </radialGradient>
  </defs>
</svg>
