<?xml version="1.0" encoding="UTF-8" standalone="no"?>
<svg xmlns:xlink="http://www.w3.org/1999/xlink" height="38.8px" width="40.5px" xmlns="http://www.w3.org/2000/svg">
  <g transform="matrix(1.0, 0.0, 0.0, 1.0, 20.25, 19.4)">
    <path d="M20.0 -0.1 L20.25 4.4 15.35 3.7 9.0 -18.1 20.0 -0.1" fill="url(#gradient0)" fill-rule="evenodd" stroke="none"/>
    <path d="M-4.75 19.4 L-5.5 19.4 -20.25 2.4 -2.25 15.65 -2.7 18.65 -4.75 19.4" fill="url(#gradient1)" fill-rule="evenodd" stroke="none"/>
    <path d="M6.25 4.35 L5.25 4.8 4.5 5.15 -0.05 4.45 -4.4 -19.4 6.25 4.35" fill="url(#gradient2)" fill-rule="evenodd" stroke="none"/>
    <path d="M5.25 4.8 L6.25 4.35 6.25 4.4 5.25 4.8" fill="url(#gradient3)" fill-rule="evenodd" stroke="none"/>
    <path d="M5.25 4.8 L6.25 4.4 5.25 4.8" fill="url(#gradient4)" fill-rule="evenodd" stroke="none"/>
    <path d="M-0.75 6.15 L-1.25 7.9 -3.25 8.9 -8.25 2.15 -0.75 6.15" fill="url(#gradient5)" fill-rule="evenodd" stroke="none"/>
  </g>
  <defs>
    <linearGradient gradientTransform="matrix(-0.005, -0.0144, 0.0033, -0.0011, 14.65, -6.85)" gradientUnits="userSpaceOnUse" id="gradient0" spreadMethod="pad" x1="-819.2" x2="819.2">
      <stop offset="0.0" stop-color="#eb6bfa"/>
      <stop offset="1.0" stop-color="#ffffff"/>
    </linearGradient>
    <linearGradient gradientTransform="matrix(-0.0106, -0.01, 0.0021, -0.0022, -11.4, 10.45)" gradientUnits="userSpaceOnUse" id="gradient1" spreadMethod="pad" x1="-819.2" x2="819.2">
      <stop offset="0.0" stop-color="#eb6bfa"/>
      <stop offset="1.0" stop-color="#ffffff"/>
    </linearGradient>
    <linearGradient gradientTransform="matrix(-0.0039, -0.0154, 0.0036, -9.0E-4, 0.15, -7.15)" gradientUnits="userSpaceOnUse" id="gradient2" spreadMethod="pad" x1="-819.2" x2="819.2">
      <stop offset="0.0" stop-color="#eb6bfa"/>
      <stop offset="1.0" stop-color="#ffffff"/>
    </linearGradient>
    <linearGradient gradientTransform="matrix(-0.0021, -0.0084, 0.0036, -9.0E-4, 0.85, -4.45)" gradientUnits="userSpaceOnUse" id="gradient3" spreadMethod="pad" x1="-819.2" x2="819.2">
      <stop offset="0.0" stop-color="#eb6bfa"/>
      <stop offset="1.0" stop-color="#ffffff"/>
    </linearGradient>
    <linearGradient gradientTransform="matrix(-0.0116, -0.0169, 0.0179, -0.0124, -1.1, -1.25)" gradientUnits="userSpaceOnUse" id="gradient4" spreadMethod="pad" x1="-819.2" x2="819.2">
      <stop offset="0.0" stop-color="#eb6bfa"/>
      <stop offset="1.0" stop-color="#ffffff"/>
    </linearGradient>
    <linearGradient gradientTransform="matrix(-0.0039, -0.0039, 0.0016, -0.0016, -4.6, 4.9)" gradientUnits="userSpaceOnUse" id="gradient5" spreadMethod="pad" x1="-819.2" x2="819.2">
      <stop offset="0.0" stop-color="#eb6bfa"/>
      <stop offset="1.0" stop-color="#ffffff"/>
    </linearGradient>
  </defs>
</svg>
