<?xml version="1.0" encoding="UTF-8" standalone="no"?>
<svg xmlns:xlink="http://www.w3.org/1999/xlink" height="15.7px" width="14.55px" xmlns="http://www.w3.org/2000/svg">
  <g transform="matrix(1.0, 0.0, 0.0, 1.0, 8.5, 5.75)">
    <path d="M-6.15 -5.75 L-3.35 -3.95 -5.45 0.1 -2.15 9.45 -5.2 8.45 -8.5 -2.2 -6.15 -5.75" fill="url(#gradient0)" fill-rule="evenodd" stroke="none"/>
    <path d="M2.15 1.45 L6.05 9.8 2.85 9.95 -1.25 0.3 -0.45 -3.4 Q1.55 -2.45 3.5 -1.45 L2.15 1.45" fill="url(#gradient1)" fill-rule="evenodd" stroke="none"/>
    <path d="M-6.15 -5.75 L-8.5 -2.2 -5.2 8.45 -2.15 9.45 -5.45 0.1 -3.35 -3.95 -6.15 -5.75 M2.15 1.45 L3.5 -1.45 Q1.55 -2.45 -0.45 -3.4 L-1.25 0.3 2.85 9.95 6.05 9.8 2.15 1.45 Z" fill="none" stroke="#000000" stroke-linecap="round" stroke-linejoin="round" stroke-width="0.05"/>
  </g>
  <defs>
    <radialGradient cx="0" cy="0" gradientTransform="matrix(0.0155, 0.0, 0.0, 0.0155, -5.9, -2.7)" gradientUnits="userSpaceOnUse" id="gradient0" r="819.2" spreadMethod="pad">
      <stop offset="0.0" stop-color="#5b4b35"/>
      <stop offset="1.0" stop-color="#343943"/>
    </radialGradient>
    <radialGradient cx="0" cy="0" gradientTransform="matrix(0.0162, 0.0, 0.0, 0.0162, -0.25, -1.85)" gradientUnits="userSpaceOnUse" id="gradient1" r="819.2" spreadMethod="pad">
      <stop offset="0.0" stop-color="#5b4b35"/>
      <stop offset="1.0" stop-color="#343943"/>
    </radialGradient>
  </defs>
</svg>
