<?xml version="1.0" encoding="UTF-8" standalone="no"?>
<svg xmlns:xlink="http://www.w3.org/1999/xlink" height="67.45px" width="90.0px" xmlns="http://www.w3.org/2000/svg">
  <g transform="matrix(1.0, 0.0, 0.0, 1.0, 44.2, 32.85)">
    <path d="M2.6 -28.1 L2.4 -27.75 1.85 -27.6 Q1.5 -27.55 1.4 -27.85 L1.35 -27.95 1.35 -28.15 1.4 -28.2 1.5 -28.3 1.6 -28.35 1.75 -28.4 2.0 -28.4 2.15 -28.35 2.35 -28.3 2.55 -28.2 2.6 -28.1 M15.35 -22.15 Q15.05 -21.5 14.25 -21.5 13.7 -21.5 13.55 -22.0 L13.55 -22.05 13.6 -22.35 14.05 -22.8 14.75 -23.05 14.85 -23.05 15.1 -23.0 15.2 -22.9 Q15.55 -22.55 15.35 -22.15 M10.8 -15.7 L10.95 -15.85 11.25 -16.0 11.25 -16.05 11.5 -16.0 11.7 -15.95 11.85 -15.8 11.95 -15.6 11.85 -15.4 Q11.65 -15.1 11.25 -15.15 10.9 -15.2 10.8 -15.5 L10.8 -15.6 10.8 -15.7 M19.4 -12.85 Q19.3 -13.05 19.35 -13.2 L19.5 -13.55 Q19.75 -13.9 20.1 -13.95 L20.1 -14.0 20.4 -13.75 20.55 -13.45 20.7 -13.15 20.7 -13.05 20.7 -13.0 20.7 -12.9 20.65 -12.8 20.6 -12.6 20.5 -12.5 20.0 -12.4 19.4 -12.85 M1.9 -24.5 L2.25 -24.25 2.4 -23.8 2.4 -23.7 Q2.15 -23.1 1.5 -23.25 0.9 -23.4 0.85 -24.0 L1.05 -24.45 1.5 -24.7 1.9 -24.5 M0.75 -19.55 L1.0 -19.5 1.1 -19.4 1.3 -19.15 Q1.45 -18.65 1.05 -18.3 0.75 -17.95 0.25 -17.85 L-0.15 -17.85 -0.35 -18.05 -0.45 -18.7 -0.1 -19.35 0.35 -19.55 0.75 -19.55 M0.5 -12.45 L0.45 -12.35 0.15 -12.2 -0.4 -12.25 -0.65 -12.4 -0.8 -12.8 -0.65 -13.25 Q-0.4 -13.6 0.0 -13.6 L0.0 -13.65 0.25 -13.45 0.45 -13.2 0.55 -12.9 0.6 -12.75 0.55 -12.65 0.55 -12.55 0.5 -12.45 M7.5 -12.45 L7.7 -12.35 7.8 -12.3 7.85 -12.2 7.95 -11.9 8.0 -11.65 7.9 -11.35 7.6 -11.25 7.15 -11.4 6.95 -11.55 6.9 -11.75 7.0 -12.15 7.35 -12.4 7.5 -12.45 M8.5 -10.65 L8.8 -10.5 9.1 -10.35 9.35 -10.25 9.4 -10.15 9.3 -9.8 9.1 -9.5 8.35 -9.4 8.15 -9.6 8.0 -9.85 8.0 -10.15 8.1 -10.4 8.2 -10.5 8.3 -10.6 8.5 -10.65 M16.85 -7.95 L16.85 -8.25 16.9 -8.3 16.95 -8.4 17.05 -8.5 17.3 -8.6 17.5 -8.65 17.85 -8.6 18.25 -8.45 18.45 -8.2 18.55 -8.0 18.4 -7.75 Q17.9 -7.15 17.2 -7.55 L16.85 -7.95 M17.15 -4.75 Q17.0 -4.55 16.75 -4.55 16.4 -4.6 16.3 -4.9 L16.3 -5.0 16.3 -5.1 16.4 -5.3 16.75 -5.45 16.75 -5.5 16.95 -5.4 17.15 -5.3 17.25 -5.15 17.3 -4.95 17.15 -4.75 M22.0 -11.75 L22.2 -11.65 22.45 -11.5 22.65 -11.3 22.75 -11.15 22.7 -10.95 22.5 -10.8 22.2 -10.55 22.0 -10.45 21.7 -10.6 21.5 -10.9 21.5 -11.25 21.6 -11.55 21.65 -11.6 21.75 -11.7 21.8 -11.7 22.0 -11.75 M45.6 4.35 L44.95 4.25 44.75 3.7 44.85 3.2 44.95 3.15 45.1 3.05 45.25 3.05 45.25 3.0 45.45 3.05 45.5 3.1 45.65 3.15 45.75 3.25 45.75 3.45 45.8 3.7 45.8 4.1 45.6 4.35 M43.55 7.35 Q43.25 7.7 42.75 7.6 L42.1 7.6 41.7 7.5 41.65 7.4 41.55 7.25 41.55 7.15 41.55 7.05 41.55 6.95 41.6 6.75 41.75 6.6 42.05 6.4 42.25 6.25 42.6 6.15 42.9 6.3 43.1 6.35 43.35 6.4 43.45 6.5 43.55 6.6 43.6 6.75 43.65 6.85 43.65 6.95 43.65 7.15 43.55 7.35 M39.1 5.35 L39.0 5.55 38.6 5.65 Q38.25 5.6 38.2 5.25 L38.2 5.2 38.2 5.1 38.3 4.95 38.6 4.75 38.8 4.85 39.05 5.0 39.15 5.25 39.1 5.35 M30.9 5.7 L31.0 5.65 31.05 5.65 31.25 5.6 Q31.75 5.5 32.1 5.85 32.45 6.2 32.45 6.7 32.45 7.15 32.1 7.4 L31.6 7.4 30.85 6.8 Q30.6 6.45 30.7 6.0 L30.7 5.9 30.8 5.8 30.9 5.7 M26.95 5.8 L27.0 5.7 27.15 5.55 27.5 5.4 27.5 5.35 27.6 5.4 27.8 5.45 28.0 5.65 28.1 5.8 28.15 5.9 28.15 6.0 28.1 6.1 28.1 6.2 28.0 6.25 27.95 6.35 27.8 6.4 27.25 6.35 26.95 6.0 26.95 5.9 26.95 5.8 M16.8 10.5 L17.1 10.8 17.4 10.95 17.45 11.35 17.35 11.45 17.1 11.55 16.85 11.55 16.65 11.5 16.55 11.4 16.55 11.1 16.6 11.0 16.6 10.95 16.6 10.75 Q16.55 10.55 16.75 10.5 L16.8 10.5 M3.05 3.4 L3.15 3.5 Q3.5 4.0 3.05 4.45 2.4 5.05 2.05 4.25 1.65 3.4 2.6 3.25 L2.85 3.3 3.05 3.4 M7.0 7.4 Q8.4 8.55 7.05 10.1 5.45 11.9 5.5 9.65 L5.75 8.65 Q6.25 7.8 7.0 7.4 M6.0 12.7 Q6.45 12.7 6.6 13.15 L6.8 13.85 6.8 14.7 7.15 14.9 7.5 15.35 7.6 15.9 7.7 15.95 Q8.15 16.0 8.55 15.6 L10.05 15.65 10.1 15.75 10.1 15.95 9.85 16.4 9.15 16.95 Q9.95 18.8 7.35 19.05 5.1 19.3 3.75 18.1 3.3 17.7 3.6 17.05 4.45 15.45 4.95 13.65 5.15 12.95 5.8 12.75 L6.0 12.7 M2.15 12.55 L2.35 12.75 2.35 12.85 2.4 12.95 2.4 13.0 2.4 13.1 2.4 13.3 2.4 13.4 2.15 13.7 1.35 14.0 Q1.05 13.95 0.85 13.75 L0.7 13.45 0.85 12.9 Q1.05 12.65 1.35 12.5 L1.6 12.4 1.75 12.4 2.0 12.45 2.15 12.55 M1.65 16.6 L1.75 16.35 Q1.8 16.05 2.1 15.85 L2.35 15.75 2.6 16.0 2.85 16.1 3.1 16.15 3.3 16.3 3.4 16.85 2.85 17.3 Q2.2 17.5 1.75 17.1 L1.65 16.6 M0.25 21.65 Q0.65 22.0 0.7 22.65 L0.55 24.2 Q0.4 24.95 -0.4 25.15 -1.15 24.9 -1.2 24.05 L-1.1 22.55 -0.6 21.7 -1.1 20.65 Q-1.4 19.45 -0.6 18.5 -0.2 18.05 0.35 17.95 2.4 18.65 0.95 20.8 L0.25 21.65 M13.45 13.5 L13.65 13.65 13.75 13.85 13.8 13.95 13.65 14.4 Q13.2 14.9 12.6 14.6 12.3 14.5 12.3 14.2 L12.3 14.0 12.55 13.65 Q12.75 13.45 13.05 13.4 L13.25 13.4 13.45 13.5 M-43.45 -18.0 L-43.25 -17.7 -43.1 -17.5 -43.05 -17.25 -43.05 -17.15 Q-43.15 -16.8 -43.5 -16.8 -43.95 -16.75 -44.15 -17.15 L-44.2 -17.3 -44.15 -17.6 -43.7 -17.95 -43.45 -18.0 M-40.85 -14.75 L-40.75 -14.45 -40.65 -14.15 -40.6 -13.8 -40.65 -13.7 Q-40.85 -13.35 -41.25 -13.45 -41.6 -13.5 -41.65 -13.8 L-41.5 -14.15 -41.15 -14.55 -40.9 -14.75 -40.85 -14.75 M-41.35 -11.95 Q-41.1 -11.7 -41.0 -11.3 -40.95 -10.9 -41.3 -10.7 L-41.85 -10.8 -42.2 -11.3 Q-42.4 -11.7 -42.15 -12.0 L-42.0 -12.15 -41.35 -11.95 M-18.3 -32.8 L-18.15 -32.7 -17.95 -32.5 -17.95 -32.25 -18.1 -32.1 Q-18.65 -31.95 -18.8 -32.45 L-18.7 -32.75 -18.5 -32.85 -18.3 -32.8 M-15.3 -28.15 L-15.2 -28.2 -15.0 -28.25 -14.8 -28.2 -14.65 -28.1 -14.45 -27.75 -14.45 -27.15 -14.5 -26.6 -14.5 -26.4 -14.75 -26.5 -15.0 -26.55 Q-15.3 -26.55 -15.5 -26.75 L-15.55 -26.95 -15.6 -27.3 -15.55 -27.7 -15.4 -28.05 -15.3 -28.15 M-17.5 -28.8 L-17.3 -28.5 -17.15 -28.15 -17.25 -27.85 -17.3 -27.75 -17.45 -27.7 -17.75 -27.6 -18.0 -27.65 -18.2 -27.85 -18.4 -28.1 -18.5 -28.4 -18.55 -28.55 -18.5 -28.65 -18.45 -28.75 -18.3 -28.9 -18.0 -29.0 -18.0 -29.05 -17.9 -29.05 -17.65 -29.0 -17.5 -28.8 M-1.3 -28.9 L-1.15 -28.95 -0.9 -29.05 -0.5 -28.85 -0.25 -28.6 -0.2 -28.2 -0.25 -28.15 -0.3 -28.05 -0.45 -27.95 -0.75 -27.9 -0.95 -27.95 -1.1 -28.05 -1.2 -28.15 -1.35 -28.35 -1.4 -28.5 -1.4 -28.7 -1.35 -28.8 -1.3 -28.9 M-28.0 -19.85 L-28.0 -19.95 -27.95 -20.05 -27.9 -20.1 -27.65 -20.3 -27.4 -20.4 -27.0 -20.35 -26.65 -20.2 -26.35 -19.85 -26.35 -19.75 -26.35 -19.65 -26.4 -19.55 -26.45 -19.5 -26.5 -19.4 -26.65 -19.3 -26.7 -19.25 -27.0 -19.2 -27.4 -19.25 -27.95 -19.65 -28.0 -19.85 M-23.35 -13.95 L-23.25 -13.9 -23.15 -13.7 -23.15 -13.4 -23.3 -13.05 -23.5 -12.85 Q-24.0 -12.7 -24.35 -13.1 -24.65 -13.4 -24.45 -13.8 L-24.1 -14.1 -23.9 -14.15 -23.75 -14.1 -23.5 -14.05 -23.35 -13.95 M-37.4 -9.8 L-37.45 -9.7 -37.7 -9.45 -38.25 -9.4 -38.9 -9.65 -38.95 -9.75 -38.95 -9.85 -39.0 -9.95 -39.0 -10.05 -39.0 -10.15 -38.95 -10.3 -38.9 -10.4 -38.8 -10.5 -38.7 -10.55 -38.5 -10.6 -38.0 -10.5 -37.55 -10.25 -37.4 -9.8 M-32.8 -3.1 L-33.2 -2.9 -33.7 -2.9 Q-34.05 -3.0 -34.3 -3.25 L-34.35 -3.35 -34.4 -3.45 -34.4 -3.55 -34.4 -3.65 -34.4 -3.7 -34.4 -3.8 -34.3 -3.9 -34.05 -4.1 -33.9 -4.2 -33.65 -4.25 -33.45 -4.2 -33.2 -4.1 -33.0 -4.0 -32.8 -3.85 -32.75 -3.75 -32.65 -3.55 -32.65 -3.5 -32.7 -3.4 -32.75 -3.2 -32.8 -3.1 M-25.15 -11.35 L-25.1 -11.25 -25.05 -11.05 -25.05 -10.7 -25.35 -10.3 -25.4 -10.25 -25.5 -10.3 -26.0 -10.7 -26.1 -11.05 -26.05 -11.15 -26.0 -11.25 -25.95 -11.35 -25.8 -11.4 -25.5 -11.5 -25.3 -11.45 -25.15 -11.35 M-23.05 -7.9 L-23.1 -8.0 -23.1 -8.1 -23.1 -8.3 -23.1 -8.45 -22.95 -8.75 -22.8 -8.85 -22.65 -8.9 -22.4 -9.0 -22.0 -8.9 -21.55 -8.65 -21.3 -8.15 -21.3 -8.05 -21.4 -7.8 Q-21.55 -7.5 -21.9 -7.45 -22.6 -7.3 -23.05 -7.8 L-23.05 -7.9 M-12.65 -22.1 L-13.75 -22.0 Q-14.35 -22.2 -14.35 -22.8 L-14.3 -23.1 -14.25 -23.2 -14.15 -23.3 -14.0 -23.35 -13.75 -23.45 -13.0 -23.4 -12.75 -23.35 -12.6 -23.3 -12.55 -23.2 -12.5 -23.1 -12.45 -22.8 -12.45 -22.45 -12.55 -22.15 -12.65 -22.1 M-12.85 -7.55 L-12.95 -7.75 -12.95 -7.9 -12.95 -8.3 -12.95 -8.5 -12.85 -8.55 -12.7 -8.65 -12.5 -8.7 -12.5 -8.75 -12.3 -8.65 -12.05 -8.5 -11.8 -8.25 -11.7 -8.0 -11.75 -7.8 -12.0 -7.5 -12.7 -7.45 -12.85 -7.55 M-3.75 -0.25 L-3.55 -0.2 -3.4 -0.1 -3.3 0.1 -3.3 0.25 -3.45 0.65 -4.0 0.9 -4.25 0.85 -4.35 0.75 -4.45 0.65 -4.45 0.55 -4.5 0.45 -4.5 0.35 -4.5 0.25 -4.45 0.2 -4.4 0.1 -4.35 0.0 -4.3 -0.1 -4.15 -0.15 -3.9 -0.25 -3.75 -0.25 M-0.25 2.7 L-0.15 2.8 -0.05 2.95 0.05 3.05 -0.05 3.45 Q-0.25 3.85 -0.75 3.9 L-1.25 3.7 -1.35 3.6 -1.35 3.35 -1.05 2.85 -0.5 2.6 -0.25 2.7 M-7.75 2.25 Q-7.6 2.85 -7.6 3.5 -7.6 4.15 -7.95 4.7 L-8.1 4.8 Q-8.95 4.7 -9.15 3.75 L-9.25 2.15 Q-9.25 1.35 -8.5 1.2 L-8.25 1.25 -8.15 1.35 -7.75 2.25 M-0.3 7.7 Q-0.5 8.05 -0.9 8.0 L-1.4 7.65 -1.4 7.55 -1.4 7.45 -1.4 7.35 -1.3 7.2 -0.9 7.0 -0.75 7.0 -0.55 7.1 -0.35 7.25 -0.2 7.45 -0.3 7.7 M-1.5 11.25 Q-0.5 11.35 -0.55 12.35 -0.55 13.2 -1.05 13.85 -1.6 14.6 -2.3 14.1 L-2.5 13.35 -2.35 12.2 Q-2.25 11.55 -1.7 11.3 L-1.5 11.25 M-16.4 0.0 L-16.2 0.1 -16.05 0.2 -15.95 0.4 -15.9 0.55 -15.95 0.75 -16.15 1.05 -16.75 0.95 -16.85 0.85 -16.85 0.75 -16.9 0.6 -16.85 0.4 -16.85 0.3 -16.8 0.2 -16.7 0.15 -16.55 0.05 -16.4 0.05 -16.4 0.0 M-15.65 6.8 L-15.55 6.7 -15.4 6.65 -15.15 6.55 Q-13.4 7.25 -13.3 9.25 -13.1 11.8 -14.8 9.8 -15.85 8.55 -15.7 6.9 L-15.65 6.8 M-12.95 15.7 L-12.5 16.4 Q-12.15 16.9 -12.55 17.35 L-13.9 17.4 -15.2 16.65 -15.7 15.95 -16.1 15.45 -17.1 15.3 -18.15 14.65 -18.7 13.85 -18.7 13.2 -18.65 13.1 -18.55 13.05 -18.45 12.95 -18.15 12.9 -18.15 12.85 Q-17.6 12.85 -17.15 13.15 L-16.25 13.75 -15.35 14.45 -15.25 14.5 Q-14.55 14.4 -13.9 14.8 -13.3 15.1 -12.95 15.7 M-12.5 23.95 Q-12.85 22.9 -11.95 22.25 L-10.6 21.2 -8.95 20.35 -8.5 20.3 -8.4 20.35 -8.35 20.35 -8.65 20.05 Q-9.0 19.6 -8.9 18.9 -8.85 18.35 -8.35 18.0 L-8.7 17.7 -9.0 17.3 -9.2 16.85 -9.1 16.4 Q-8.9 16.05 -8.5 16.0 L-7.25 16.25 Q-6.65 16.5 -6.1 16.85 L-4.9 17.3 -4.75 17.3 -4.7 16.9 -4.4 16.5 Q-3.8 16.0 -2.95 16.1 -2.4 16.15 -1.95 16.5 -1.7 16.85 -1.85 17.2 L-2.15 18.2 -2.6 19.6 Q-2.9 20.35 -3.65 20.1 L-4.75 19.85 Q-5.4 20.4 -6.2 20.75 -7.1 21.1 -7.85 20.75 -7.7 21.8 -8.85 22.4 L-10.6 23.6 Q-11.55 24.4 -12.5 23.95 M-25.6 31.55 Q-25.25 31.8 -25.15 32.2 -25.1 32.6 -25.45 32.85 L-26.55 32.65 Q-27.0 32.3 -26.8 31.75 -26.7 31.3 -26.25 31.35 L-26.25 31.3 Q-25.9 31.35 -25.6 31.55 M-26.8 33.55 Q-26.7 33.85 -26.95 34.1 -27.5 34.7 -28.25 34.55 L-28.65 34.2 -28.6 33.9 -27.95 33.3 -27.4 33.15 -27.15 33.2 -27.0 33.3 -26.85 33.5 -26.8 33.55 M-20.9 33.2 L-20.75 33.2 Q-20.65 33.2 -20.6 33.3 L-20.4 33.45 -20.35 33.65 -20.45 33.8 Q-20.6 34.05 -20.9 34.0 L-21.3 33.65 -21.3 33.55 -21.3 33.5 -21.25 33.4 -21.05 33.25 -20.9 33.2" fill="#400d0d" fill-rule="evenodd" stroke="none"/>
    <path d="M13.85 -23.3 L14.0 -23.35 14.25 -23.0 14.0 -22.5 Q13.8 -22.3 13.55 -22.5 L13.45 -22.55 13.4 -22.65 13.4 -22.75 13.45 -22.95 13.55 -23.15 13.7 -23.2 13.8 -23.3 13.85 -23.3 M0.0 -18.7 L-0.7 -18.65 -0.8 -18.75 -0.85 -18.85 -0.9 -19.05 -0.9 -19.2 -0.9 -19.3 -0.7 -19.5 -0.15 -19.85 0.25 -19.95 0.45 -19.9 0.55 -19.8 0.7 -19.6 0.7 -19.55 0.65 -19.15 0.0 -18.7 M6.3 8.0 L6.4 7.9 6.5 7.85 7.0 7.65 7.3 7.75 7.5 8.0 7.55 8.3 7.55 8.35 7.5 8.55 7.2 8.85 6.85 9.0 Q6.55 9.0 6.4 8.75 L6.25 8.35 6.3 8.0 M6.0 17.2 L6.1 16.8 6.45 16.55 6.75 16.25 7.1 16.0 7.45 16.2 7.7 16.65 8.0 16.9 8.1 16.95 Q8.35 17.3 8.2 17.7 L7.25 18.55 Q6.7 18.7 6.3 18.3 L6.2 18.05 6.1 17.65 6.0 17.2 M-28.55 -20.4 L-28.55 -20.5 -28.5 -20.6 -28.25 -20.75 -28.0 -20.85 -28.0 -20.9 -27.75 -20.85 -27.55 -20.8 -27.5 -20.7 -27.4 -20.65 -27.4 -20.55 -27.4 -20.45 -27.5 -20.25 -27.75 -20.0 -27.85 -19.9 -28.0 -19.9 -28.3 -20.05 -28.5 -20.3 -28.55 -20.4 M-22.35 -9.0 Q-22.25 -8.75 -22.45 -8.55 L-22.95 -8.45 -23.05 -8.65 -23.1 -8.95 -22.95 -9.2 -22.75 -9.3 -22.35 -9.0 M-0.15 -13.45 L-0.2 -13.05 -0.5 -12.85 -0.8 -13.15 -0.8 -13.2 -0.65 -13.35 -0.5 -13.4 -0.25 -13.45 -0.15 -13.45 M-13.6 -23.3 L-13.4 -23.15 -13.35 -23.05 -13.35 -22.9 Q-13.35 -22.7 -13.5 -22.6 L-13.8 -22.3 -14.0 -22.3 -14.3 -22.35 -14.65 -22.7 -14.65 -22.8 -14.65 -22.9 -14.65 -23.0 -14.55 -23.2 Q-14.45 -23.3 -14.3 -23.35 L-14.15 -23.4 -13.75 -23.4 -13.6 -23.3 M-9.15 1.65 Q-8.9 1.7 -8.7 1.9 -8.5 2.1 -8.55 2.35 L-8.6 2.95 -8.65 3.05 -8.9 3.05 -9.2 3.0 -9.55 2.75 -9.55 2.65 -9.6 2.45 -9.6 2.3 -9.6 2.0 -9.55 1.9 -9.5 1.8 -9.35 1.75 -9.15 1.65 M-15.75 7.3 L-15.45 7.4 -15.2 7.6 -15.05 7.85 -15.05 8.05 -15.05 8.1 -15.15 8.2 -15.2 8.3 -15.25 8.4 -15.45 8.55 -15.65 8.55 -15.95 8.45 -16.3 8.2 -16.3 8.1 -16.3 8.0 -16.3 7.9 -16.3 7.8 -16.3 7.65 -16.25 7.55 -16.15 7.45 -16.05 7.4 -15.9 7.35 -15.75 7.35 -15.75 7.3 M-17.25 13.7 L-16.65 14.3 Q-16.4 14.7 -16.6 15.1 L-16.7 15.2 -17.65 15.15 -18.35 14.1 Q-18.6 13.65 -18.15 13.4 L-18.0 13.35 Q-17.6 13.45 -17.25 13.7" fill="#ffffff" fill-rule="evenodd" stroke="none"/>
  </g>
</svg>
