<?xml version="1.0" encoding="UTF-8" standalone="no"?>
<svg xmlns:xlink="http://www.w3.org/1999/xlink" height="371.85px" width="113.3px" xmlns="http://www.w3.org/2000/svg">
  <g transform="matrix(1.0, 0.0, 0.0, 1.0, 205.75, -191.3)">
    <path d="M-157.9 191.4 L-157.85 191.3 -157.45 191.4 -157.9 191.4 M-92.9 191.4 L-92.85 191.3 -92.45 191.4 -92.9 191.4 M-205.3 241.6 L-205.75 241.6 -205.7 241.5 -205.3 241.6 M-100.15 305.55 L-99.75 305.65 -100.2 305.65 -100.15 305.55 M-100.15 365.55 L-99.75 365.65 -100.2 365.65 -100.15 365.55 M-100.15 495.55 L-99.75 495.65 -100.2 495.65 -100.15 495.55 M-100.15 563.05 L-99.75 563.15 -100.2 563.15 -100.15 563.05" fill="#feeb45" fill-rule="evenodd" stroke="none"/>
  </g>
</svg>
