<?xml version="1.0" encoding="UTF-8" standalone="no"?>
<svg xmlns:xlink="http://www.w3.org/1999/xlink" height="253.05px" width="208.15px" xmlns="http://www.w3.org/2000/svg">
  <g transform="matrix(1.0, 0.0, 0.0, 1.0, 104.1, 126.55)">
    <path d="M0.2 -117.1 L-0.2 -116.8 -2.25 -116.9 Q-3.35 -117.15 -4.4 -117.7 L-4.6 -117.95 Q-1.15 -117.8 1.9 -119.6 3.85 -120.75 4.7 -122.85 5.15 -124.05 6.3 -124.3 8.7 -123.35 6.65 -121.0 5.4 -119.55 3.65 -118.85 1.85 -118.1 0.2 -117.1 M51.15 -123.95 L52.15 -123.55 53.0 -123.15 53.55 -122.8 53.05 -122.8 52.15 -123.05 50.65 -123.85 50.8 -123.9 51.15 -123.95 M58.55 -122.7 L54.55 -122.95 54.8 -123.0 56.4 -123.35 56.75 -123.45 56.8 -123.55 57.8 -123.5 59.3 -123.3 60.0 -123.1 61.05 -122.7 60.05 -122.75 58.55 -122.7 M56.7 -110.1 Q56.3 -115.55 58.4 -119.55 L57.5 -108.75 Q57.1 -103.45 55.1 -98.1 53.3 -93.25 52.3 -88.2 52.45 -93.8 54.8 -99.25 57.15 -104.7 56.7 -110.1 M52.4 -72.95 Q51.3 -70.2 49.35 -67.85 47.4 -65.5 46.05 -62.8 44.9 -60.45 43.55 -58.7 44.2 -61.3 45.7 -63.6 L48.9 -68.15 52.15 -72.85 52.4 -72.95 M52.3 -51.2 L53.25 -51.5 53.55 -51.65 53.8 -51.75 54.25 -51.85 54.3 -51.95 Q61.4 -48.8 69.0 -47.7 77.35 -46.4 85.8 -48.0 94.7 -49.65 103.2 -47.4 L104.05 -46.95 Q101.4 -39.7 91.05 -37.15 82.85 -35.15 75.45 -30.85 64.45 -24.5 53.55 -17.8 41.7 -10.55 28.55 -6.05 35.3 -10.1 43.25 -13.6 L47.9 -15.75 Q50.5 -17.05 52.95 -18.55 L69.1 -28.15 72.4 -29.95 Q73.1 -33.6 77.0 -34.85 79.85 -35.75 82.55 -37.05 L85.65 -38.6 88.7 -40.2 89.55 -40.8 Q90.4 -41.6 91.5 -42.05 L95.65 -43.7 Q79.4 -40.5 63.0 -44.3 60.9 -44.8 58.95 -46.1 L55.45 -48.4 51.55 -50.95 51.8 -51.05 52.3 -51.2 M6.6 -74.35 Q7.25 -73.5 6.85 -72.5 6.45 -71.65 5.5 -71.55 L5.0 -71.5 Q3.8 -71.45 3.6 -72.5 L3.65 -73.95 Q3.9 -75.0 5.0 -74.95 L5.0 -75.0 Q6.0 -75.15 6.6 -74.35 M-60.2 -125.45 Q-63.8 -105.05 -67.0 -84.4 L-56.9 -92.9 Q-48.1 -100.45 -40.2 -108.3 L-39.8 -108.5 -39.2 -108.6 -37.45 -108.45 -37.1 -108.0 -36.95 -107.65 -36.75 -107.0 -36.2 -106.2 Q-33.05 -104.75 -29.95 -107.3 -28.25 -108.7 -26.2 -108.95 -23.8 -107.5 -26.75 -103.5 -28.45 -101.2 -31.2 -101.25 L-37.75 -100.8 Q-38.8 -100.65 -39.35 -101.55 L-39.4 -101.95 -39.45 -102.3 -39.3 -103.05 -39.05 -103.8 -38.85 -104.2 Q-48.6 -97.55 -57.9 -89.05 L-67.65 -80.1 -68.9 -72.0 Q-69.35 -68.95 -68.15 -65.95 -61.5 -49.15 -51.45 -34.1 -48.5 -29.6 -48.9 -24.15 -50.05 -9.85 -48.9 3.65 -48.7 6.3 -49.0 9.2 -49.8 17.35 -51.1 25.3 L-47.0 30.6 Q-38.3 26.1 -29.2 22.95 -36.2 27.95 -45.05 32.75 -39.85 38.2 -33.35 42.55 -34.3 40.4 -33.65 38.1 L-33.6 38.05 Q-33.55 40.7 -32.55 43.1 -27.55 46.3 -21.8 48.85 -11.95 53.15 -2.9 59.1 1.55 62.0 6.3 63.8 8.1 60.05 10.8 56.7 15.35 50.95 19.0 44.65 L26.05 32.2 Q28.2 28.3 32.3 27.7 L32.8 27.7 33.4 27.85 34.05 28.05 Q35.85 32.25 39.35 35.15 L45.85 40.35 Q50.1 43.7 49.55 46.8 L41.85 40.9 Q38.4 38.45 35.45 35.5 33.5 33.6 32.4 31.2 27.3 36.05 23.4 42.7 L16.1 54.45 Q12.65 59.55 9.9 64.95 16.45 66.8 23.55 66.6 L32.35 66.05 Q47.4 64.4 59.4 73.65 60.8 74.7 62.8 74.85 65.6 75.05 67.8 76.55 68.6 80.85 71.35 84.1 73.75 86.85 77.75 87.45 83.05 88.2 84.45 92.2 L84.8 92.15 85.05 92.2 86.15 93.15 86.85 94.5 Q87.1 95.35 86.3 95.8 L85.9 95.85 84.5 95.6 83.9 95.05 83.9 94.7 83.9 94.15 Q82.55 94.8 81.4 93.85 80.65 93.2 80.55 92.3 72.95 91.85 66.9 88.3 64.15 86.7 63.05 83.45 62.6 81.95 63.05 80.45 52.95 77.25 42.95 72.35 37.15 69.5 30.5 70.8 8.3 75.05 -11.0 61.6 -17.3 57.2 -24.25 53.95 L-26.15 53.05 -25.8 53.65 Q-23.75 57.25 -22.85 60.95 -35.3 67.75 -50.45 64.4 L-56.7 64.2 Q-56.65 73.8 -65.75 72.9 -76.35 71.85 -82.15 80.95 L-82.6 82.2 Q-82.75 82.9 -82.4 83.45 L-81.85 84.5 -81.6 85.55 Q-82.45 86.7 -82.9 85.35 L-83.65 83.7 -84.35 82.7 Q-81.6 78.0 -77.0 74.5 -70.75 69.75 -62.85 69.2 -62.1 67.8 -61.9 66.2 L-61.5 63.6 -61.15 60.95 Q-61.15 60.3 -60.7 59.8 -43.55 61.1 -25.7 59.5 L-24.1 59.3 Q-25.05 56.05 -26.65 52.8 -40.4 45.85 -49.85 35.25 L-53.15 36.85 Q-66.5 43.35 -80.35 48.85 -93.0 53.85 -104.1 57.95 -91.3 48.6 -74.55 42.9 -62.7 38.9 -51.7 33.05 L-53.5 30.75 -53.45 29.7 Q-55.15 25.0 -54.1 20.1 -53.0 15.2 -52.55 10.15 -52.1 5.4 -50.2 0.8 -53.0 -15.95 -54.85 -33.2 -55.35 -37.9 -59.15 -41.2 -74.85 -55.1 -74.55 -73.75 L-75.1 -73.3 Q-82.95 -66.1 -90.85 -60.7 -85.15 -70.0 -75.35 -77.7 L-74.25 -78.55 -73.25 -84.2 Q-68.4 -104.95 -63.85 -125.55 L-63.55 -125.9 -63.05 -126.2 -62.2 -126.5 -62.2 -126.55 -61.6 -126.4 -60.95 -126.15 -60.5 -125.75 -60.2 -125.45 M-19.95 -112.2 L-19.9 -112.55 Q-19.75 -113.5 -19.1 -114.15 L-17.85 -115.45 -17.7 -115.55 -16.7 -115.9 -14.2 -116.7 -11.75 -116.5 -10.25 -116.1 -9.45 -115.7 -10.2 -115.45 Q-13.6 -114.75 -16.85 -113.55 -17.6 -113.3 -18.1 -112.7 -18.9 -111.7 -19.95 -112.2 M-3.85 -74.3 L-3.75 -73.9 -3.7 -73.55 -3.75 -72.8 -3.95 -72.05 -4.25 -71.7 Q-4.4 -71.55 -4.6 -71.5 L-6.2 -71.4 -7.1 -71.55 -7.45 -71.95 -7.7 -72.3 -7.9 -72.7 -8.15 -73.45 -8.2 -73.8 -8.15 -74.15 -7.8 -74.5 -6.8 -75.1 -6.2 -75.3 -5.2 -75.25 -4.5 -75.0 -4.1 -74.7 -3.85 -74.3 M-4.2 4.2 L-4.35 4.55 -4.6 4.95 -4.85 5.3 -5.3 5.7 -5.6 5.95 -7.85 6.05 Q-11.75 4.8 -14.7 7.8 -15.95 9.1 -17.2 7.95 -17.65 7.45 -17.45 6.85 L-16.25 3.55 Q-15.45 1.85 -13.75 1.2 L-11.1 0.45 -9.7 0.2 -7.7 0.3 Q-6.4 0.4 -5.35 1.2 -4.3 2.05 -4.2 3.45 L-4.2 4.2 M-1.2 10.55 L-0.7 10.6 0.25 10.9 0.8 11.2 1.3 12.35 Q1.6 13.35 1.1 14.25 0.55 15.3 -0.6 15.85 L-1.2 16.05 -2.5 15.3 Q-3.2 14.85 -3.3 13.95 L-3.2 12.1 -2.85 11.3 -2.45 11.0 -1.95 10.75 -1.2 10.65 -1.2 10.55 M-11.7 10.7 L-10.75 11.0 -9.35 11.7 Q-8.6 12.05 -8.45 12.8 L-8.2 13.55 -8.45 14.7 Q-9.05 15.85 -10.2 16.2 -9.95 16.85 -10.35 17.55 L-10.6 17.95 Q-12.7 19.7 -15.65 18.4 -16.95 17.85 -17.25 16.75 L-20.65 18.75 -25.2 21.3 -22.65 18.9 -18.9 16.1 -16.65 14.75 -16.05 14.45 -14.95 13.95 -14.7 13.8 -14.3 14.0 -14.3 13.05 Q-14.1 11.9 -13.15 11.25 -12.4 10.7 -11.7 10.7 M-24.45 35.55 Q-18.75 34.9 -13.3 33.25 -11.5 32.7 -10.0 31.9 -8.75 31.25 -7.45 30.8 -7.9 33.15 -11.15 34.05 L-17.45 35.6 -22.7 35.9 -24.45 35.55 M-79.2 89.8 L-79.1 90.2 Q-79.2 90.8 -79.7 91.15 L-81.95 92.95 Q-83.15 94.05 -84.75 94.5 L-84.7 94.7 -77.95 103.6 Q-74.05 108.75 -70.7 114.1 -66.9 120.15 -61.95 125.05 -68.0 129.45 -73.4 120.35 -78.15 112.3 -84.55 105.2 -90.85 98.25 -90.2 90.4 -90.1 89.55 -88.95 89.3 L-87.2 88.95 -87.1 88.7 -87.05 88.3 -86.95 87.95 -86.55 87.2 -86.2 86.8 -85.7 86.55 -85.45 86.5 -84.7 86.4 -84.7 86.3 Q-83.5 86.5 -82.5 87.2 L-80.7 88.3 Q-79.6 88.8 -79.2 89.8 M83.3 25.05 L83.8 25.1 84.4 25.35 84.8 25.7 Q85.8 27.5 86.45 29.45 L88.25 34.0 Q89.25 36.05 89.5 38.1 L89.4 38.45 87.75 38.35 Q87.05 37.85 87.05 36.95 L86.85 35.45 86.8 34.7 Q86.05 34.3 85.6 33.55 L84.65 31.85 Q84.1 30.9 84.05 29.85 L83.9 29.45 Q83.1 30.1 82.75 31.4 82.4 32.75 81.65 34.05 L80.45 36.55 80.15 36.95 79.55 37.3 79.3 37.4 78.8 37.4 77.55 37.05 Q79.1 35.85 79.4 33.7 79.65 31.35 80.9 29.1 L82.95 25.3 Q83.05 25.15 83.3 25.05 M53.05 46.55 Q53.6 46.95 54.2 47.15 55.4 47.45 54.75 47.6 L53.45 47.4 Q52.15 46.75 53.05 46.55 M59.0 47.55 L58.05 47.45 Q58.2 46.25 59.35 45.45 L60.55 44.45 61.3 43.4 61.75 42.55 62.2 41.95 62.3 41.8 64.85 41.9 Q66.7 42.05 68.55 41.35 L70.8 40.9 70.8 40.8 Q73.1 41.75 70.25 43.5 L66.8 45.1 62.45 45.2 62.15 44.95 61.0 45.9 59.9 47.05 59.0 47.55 M3.8 9.2 L4.2 8.5 Q4.5 8.15 4.85 7.9 L5.4 7.7 5.8 7.7 6.05 7.7 Q6.7 8.35 6.15 9.25 5.65 10.0 4.8 10.0 3.8 10.05 3.8 9.2 M3.55 18.05 L3.55 17.7 3.6 17.35 4.1 16.8 4.75 16.5 4.8 16.45 Q5.95 16.7 6.05 17.8 6.15 18.85 5.25 19.2 4.0 19.7 3.6 18.4 L3.55 18.05" fill="#ff99ff" fill-rule="evenodd" stroke="none"/>
  </g>
</svg>
