<?xml version="1.0" encoding="UTF-8" standalone="no"?>
<svg xmlns:xlink="http://www.w3.org/1999/xlink" height="6.05px" width="17.35px" xmlns="http://www.w3.org/2000/svg">
  <g transform="matrix(1.0, 0.0, 0.0, 1.0, 8.7, 3.05)">
    <path d="M6.65 -0.3 L7.25 0.0 7.65 0.2 8.2 0.55 8.65 1.25 8.65 1.6 8.1 2.3 Q7.35 3.25 6.15 2.95 5.2 2.75 4.65 1.95 L4.6 1.25 5.0 0.55 Q5.7 -0.1 6.6 -0.25 L6.65 -0.3 M-6.15 -2.75 L-5.4 -2.4 -4.45 -1.65 -4.25 -1.05 Q-3.9 0.0 -5.0 0.4 -7.35 1.15 -8.5 -0.95 -8.85 -1.55 -8.5 -2.25 -8.1 -3.05 -7.4 -3.05 L-6.15 -2.75" fill="#a4fe67" fill-rule="evenodd" stroke="none"/>
  </g>
</svg>
