<?xml version="1.0" encoding="UTF-8" standalone="no"?>
<svg xmlns:xlink="http://www.w3.org/1999/xlink" height="37.3px" width="28.1px" xmlns="http://www.w3.org/2000/svg">
  <g transform="matrix(1.0, 0.0, 0.0, 1.0, 0.0, 0.0)">
    <path d="M2.85 0.0 L3.3 0.4 2.8 0.55 2.7 0.0 2.85 0.0 M0.05 0.85 L0.0 0.9 0.0 0.0 0.45 0.0 0.05 0.85 M0.3 2.8 L0.5 2.95 0.45 3.05 0.3 2.8 M1.1 36.8 L0.0 36.8 0.0 36.4 1.1 36.6 1.1 36.8 M0.1 29.05 L0.0 29.1 0.0 29.05 0.1 29.05 M0.1 29.55 L0.0 30.4 0.0 29.65 0.1 29.55" fill="url(#gradient0)" fill-rule="evenodd" stroke="none"/>
    <path d="M1.1 36.8 L1.1 36.6 1.1 0.85 28.1 0.85 28.1 37.3 1.1 37.3 1.1 36.8" fill="url(#gradient1)" fill-rule="evenodd" stroke="none"/>
  </g>
  <defs>
    <radialGradient cx="0" cy="0" gradientTransform="matrix(0.018, 0.0, 0.0, 0.0279, 13.25, 19.2)" gradientUnits="userSpaceOnUse" id="gradient0" r="819.2" spreadMethod="pad">
      <stop offset="0.16470588235294117" stop-color="#eccd57"/>
      <stop offset="0.8470588235294118" stop-color="#5f8a53"/>
    </radialGradient>
    <linearGradient gradientTransform="matrix(0.0078, 0.0013, -0.0037, 0.0219, 15.6, 21.8)" gradientUnits="userSpaceOnUse" id="gradient1" spreadMethod="pad" x1="-819.2" x2="819.2">
      <stop offset="0.0" stop-color="#f4e13e" stop-opacity="0.0"/>
      <stop offset="1.0" stop-color="#abd20b"/>
    </linearGradient>
  </defs>
</svg>
