<?xml version="1.0" encoding="UTF-8" standalone="no"?>
<svg xmlns:xlink="http://www.w3.org/1999/xlink" height="36.45px" width="27.95px" xmlns="http://www.w3.org/2000/svg">
  <g transform="matrix(1.0, 0.0, 0.0, 1.0, 14.15, 18.6)">
    <path d="M13.4 17.85 L-13.25 17.85 -13.25 -18.6 13.4 -18.6 13.4 17.85" fill="#000000" fill-rule="evenodd" stroke="none"/>
    <path d="M-6.35 -4.1 L-5.6 -3.75 Q-6.15 -3.4 -6.25 -3.4 L-7.85 -3.2 -8.25 -3.3 -8.3 -3.35 -8.4 -3.65 -8.25 -4.15 -7.75 -4.45 -6.35 -4.1 M4.5 -3.7 L4.45 -3.2 4.2 -3.0 1.85 -3.0 1.65 -3.05 0.85 -3.3 1.5 -3.8 1.55 -3.85 1.8 -3.9 3.1 -4.15 3.45 -4.1 4.35 -3.8 4.5 -3.7" fill="#ffffff" fill-rule="evenodd" stroke="none"/>
    <path d="M-3.25 -8.35 Q-2.5 -8.15 -2.5 -7.45 L-2.5 -7.25 Q-2.15 -7.25 -2.15 -6.25 -2.4 -3.9 -2.85 -3.3 -3.0 -3.15 -3.15 -3.15 L-3.4 -3.15 -4.0 -0.6 -4.4 0.6 -4.8 -1.7 -4.85 -1.8 -4.95 -1.7 -5.0 -1.8 -5.2 -2.1 -4.85 -2.6 Q-4.55 -2.9 -4.55 -3.25 -4.35 -4.6 -3.9 -5.15 L-3.75 -6.1 -3.7 -6.25 -4.45 -6.8 -4.9 -7.3 -6.45 -6.2 -5.45 -5.65 -5.95 -5.15 -5.85 -4.95 -5.75 -4.55 -6.3 -4.15 -6.35 -4.1 -7.75 -4.45 -8.25 -4.15 -9.1 -4.55 Q-9.95 -5.1 -9.95 -5.5 -9.95 -6.15 -8.7 -6.35 L-7.85 -6.4 -7.5 -6.4 -7.1 -6.65 -4.95 -8.25 Q-2.95 -9.7 -2.1 -9.8 L-4.2 -7.85 -3.25 -8.35 M-0.5 -1.65 L-1.2 -2.25 -0.25 -1.75 Q1.45 -0.75 2.85 0.75 L2.9 0.75 3.0 0.75 3.0 0.95 4.3 2.55 4.4 2.5 4.85 2.45 4.5 2.85 5.3 4.25 Q5.7 3.95 6.05 3.75 L6.0 3.95 6.45 3.45 7.25 2.8 5.5 5.9 4.9 8.2 4.65 8.35 4.35 7.85 4.0 8.4 3.75 8.7 4.0 8.8 3.85 9.35 3.7 9.55 4.1 9.6 4.15 9.55 4.15 9.6 4.2 9.7 4.05 9.75 2.65 11.1 1.7 11.8 Q1.45 11.9 1.8 12.7 2.4 13.95 4.55 17.0 L-0.95 12.45 Q-1.4 11.9 -2.1 11.9 L-2.25 11.9 -2.3 11.9 -3.35 11.95 -3.75 12.3 -3.8 12.3 -4.4 12.25 -4.4 12.1 -4.65 12.0 -4.55 11.9 -4.7 11.9 -5.45 11.0 -6.0 9.85 -6.0 9.8 -6.05 9.75 -6.2 9.5 -6.3 9.25 -5.2 11.9 -5.6 11.5 -6.55 10.45 -6.8 10.2 -6.85 10.2 -7.0 10.15 -7.1 10.1 -7.15 9.85 -7.15 9.8 -7.7 8.75 -7.7 8.6 -8.15 7.6 Q-8.0 7.55 -7.65 7.85 L-8.6 6.2 -8.6 6.0 -8.5 5.95 -10.9 2.35 Q-10.9 0.45 -9.6 1.45 L-9.15 1.95 -10.35 -0.4 -9.65 0.65 Q-8.55 3.25 -7.25 4.45 -6.0 5.65 -5.3 7.5 L-5.3 7.65 -4.9 8.3 -4.85 8.25 -4.3 8.0 -4.35 7.95 -4.35 7.7 -1.75 8.15 0.0 8.25 -0.2 7.9 0.25 8.25 0.6 8.25 1.2 8.4 1.25 8.45 0.8 8.65 0.85 8.65 0.8 8.65 -0.9 8.9 -2.7 8.75 -2.95 8.65 -3.45 8.5 -3.65 8.45 -3.75 8.4 -3.75 8.45 -4.1 8.45 -4.4 8.9 -4.0 9.4 -4.1 9.6 -4.25 9.85 -3.6 10.95 -2.0 11.35 0.3 11.15 1.15 10.95 1.25 11.0 1.65 10.8 3.85 9.75 3.1 9.7 3.15 9.9 2.55 10.2 2.5 10.35 2.4 10.3 2.35 10.3 2.25 10.3 2.2 10.3 2.0 10.2 1.6 10.05 0.85 9.8 0.6 9.75 0.5 9.75 1.15 9.2 1.2 9.2 2.1 9.3 1.6 9.15 1.3 9.1 1.5 8.95 2.15 9.1 2.25 9.1 2.3 9.05 2.45 8.9 2.7 8.5 2.4 8.85 4.3 5.45 4.85 4.7 4.9 4.95 Q5.2 5.8 5.45 6.05 L5.45 5.4 5.1 4.4 5.2 4.3 4.65 3.45 4.25 2.85 4.05 2.7 4.1 2.65 3.0 1.45 1.15 -0.2 1.05 0.3 0.9 0.3 0.8 -0.05 1.05 -0.3 -0.5 -1.65 M0.8 -2.1 L-0.3 -2.55 0.0 -2.95 Q0.05 -3.55 1.05 -4.25 L1.15 -4.3 1.15 -4.45 1.6 -5.05 0.85 -4.55 0.85 -4.85 Q0.85 -5.6 3.05 -6.45 5.25 -7.3 5.25 -5.8 L5.45 -5.7 6.35 -5.55 Q6.85 -5.3 6.85 -4.75 L6.8 -4.55 7.0 -4.0 6.85 -3.7 6.9 -3.7 7.0 -3.4 6.55 -2.95 Q5.95 -2.6 5.2 -2.6 L4.95 -2.6 Q4.85 -2.3 4.35 -2.15 L4.95 -2.4 5.0 -2.4 4.7 -1.75 3.5 -1.55 2.95 -1.6 1.35 -1.95 0.8 -2.1 M8.8 0.05 L9.0 -0.65 9.15 -1.75 9.25 -2.8 Q9.35 -4.3 9.6 -5.3 L9.65 -5.55 9.85 -7.0 9.8 -7.5 9.85 -7.95 9.85 -8.25 Q10.0 -9.7 11.25 -9.85 11.95 -9.95 12.15 -8.05 L11.25 -9.75 11.1 -9.75 12.15 -7.15 12.15 -5.55 12.15 -5.2 12.15 -4.4 12.1 -4.45 11.55 -5.55 10.85 -6.85 10.5 -8.25 10.3 -8.25 10.25 -8.0 10.25 -7.8 10.95 -5.55 11.0 -5.35 11.65 -2.55 11.7 -2.25 11.6 -2.15 10.6 -4.5 11.1 -2.15 11.2 -1.75 11.95 0.35 Q11.6 4.9 11.05 4.9 L10.75 4.9 10.7 6.1 Q10.55 6.9 9.75 7.45 L9.55 7.5 9.45 7.2 9.55 6.9 Q8.65 6.1 8.85 4.35 8.4 4.85 7.95 4.9 7.6 4.85 7.6 4.25 L8.25 1.75 8.35 1.45 8.8 0.05 M12.1 -2.95 L12.05 -1.75 12.05 -1.55 12.0 -1.75 11.75 -2.65 11.15 -5.55 11.05 -5.95 11.2 -5.55 11.6 -4.45 12.1 -2.95 M-8.4 -9.3 L-9.15 -8.85 -9.2 -9.0 -8.85 -9.3 -7.25 -10.65 -5.15 -12.15 Q-6.85 -10.4 -8.3 -9.35 L-8.4 -9.3 M7.4 -10.75 Q5.55 -9.1 3.15 -8.1 L2.75 -8.25 3.65 -8.85 5.8 -10.4 Q7.5 -11.65 8.55 -12.0 L7.4 -10.75 M8.9 -9.8 L9.15 -9.9 9.05 -9.65 8.1 -8.1 7.5 -7.5 7.15 -7.2 5.85 -6.6 5.85 -6.8 6.75 -8.3 Q7.65 -9.45 8.9 -9.8 M4.5 -3.7 L4.35 -3.8 3.45 -4.1 3.1 -4.15 2.65 -4.2 1.85 -4.0 1.8 -3.9 1.55 -3.85 1.5 -3.8 0.85 -3.3 0.55 -3.0 1.85 -3.0 4.2 -3.0 4.45 -3.2 4.6 -3.25 6.25 -3.45 6.65 -3.75 6.5 -3.9 Q6.3 -3.65 5.4 -3.45 L5.45 -3.45 5.15 -3.45 Q5.0 -3.45 4.5 -3.7 M-2.4 3.15 L-1.55 3.0 -0.9 3.2 Q-0.5 3.2 -0.2 2.65 L0.35 2.8 0.65 1.6 Q0.75 3.05 1.0 3.85 L-0.7 6.25 -1.15 6.4 Q-1.75 6.95 -2.15 6.95 L-2.9 6.5 -3.2 6.3 -4.85 3.55 -4.75 3.1 Q-4.15 3.5 -3.35 3.5 L-2.4 3.15 M-0.4 3.75 L-0.7 3.6 -2.3 4.15 -3.5 4.15 -2.05 6.4 -2.0 6.4 -1.85 5.2 Q-1.55 4.2 -0.95 4.2 L-0.4 3.75 M-3.45 6.8 L-3.0 7.15 -2.1 7.6 -1.4 7.1 Q-0.95 6.7 -0.4 6.65 L-0.35 6.7 -0.7 7.2 -1.15 7.35 -2.15 7.95 -2.9 7.5 -3.2 7.25 -3.45 6.8 M-4.95 12.15 L-4.7 12.1 -4.85 12.25 -4.95 12.15 M-3.65 11.5 L-3.7 11.6 -3.3 11.7 -3.65 11.4 -3.65 11.5 M4.6 3.4 L4.65 3.65 4.65 3.9 4.2 4.1 4.05 4.05 4.55 3.45 4.6 3.4 M11.4 14.65 L11.6 14.75 12.0 15.45 12.15 15.85 12.4 16.6 12.45 16.65 12.45 16.7 12.45 16.8 12.4 16.8 12.3 16.95 12.05 16.85 10.35 15.6 Q10.65 15.15 11.1 15.35 L11.2 15.45 11.55 15.7 11.9 16.0 11.1 14.55 11.4 14.65 M11.95 16.9 L12.0 16.95 11.8 16.9 Q9.7 16.2 8.65 15.3 L8.1 14.7 9.1 15.25 11.9 16.8 11.95 16.9" fill="#000000" fill-rule="evenodd" stroke="none"/>
    <path d="M-9.75 0.1 L-9.8 -0.05 -9.75 -0.05 -9.75 0.1 M-4.8 -1.7 L-4.95 -1.7 -4.85 -1.8 -4.8 -1.7 M2.45 7.8 L2.4 7.75 2.6 7.5 2.65 7.45 2.7 7.45 2.5 7.8 2.45 7.8" fill="#65a39c" fill-rule="evenodd" stroke="none"/>
    <path d="M12.15 -8.05 L12.9 -6.65 13.55 -5.55 13.8 -5.1 13.8 -4.5 13.05 -5.55 12.5 -6.5 12.15 -7.15 11.1 -9.75 11.25 -9.75 12.15 -8.05 M12.15 -4.4 L12.95 -2.45 12.9 -2.25 Q13.05 -2.1 12.65 -2.1 L12.3 -2.15 12.1 -2.95 11.6 -4.45 11.2 -5.55 11.05 -5.95 11.15 -5.55 11.75 -2.65 11.65 -2.55 11.0 -5.35 10.95 -5.55 10.25 -7.8 10.25 -8.0 10.3 -8.25 10.5 -8.25 10.85 -6.85 11.55 -5.55 12.1 -4.45 12.15 -4.4 M-8.25 -9.3 L-8.4 -9.3 -8.3 -9.35 -8.25 -9.3 M-8.85 -9.3 L-8.9 -9.3 -8.85 -9.3 M3.65 -8.85 L3.6 -8.9 6.45 -11.15 8.7 -13.1 8.9 -13.05 8.95 -12.8 Q8.95 -12.05 7.4 -10.75 L8.55 -12.0 Q7.5 -11.65 5.8 -10.4 L3.65 -8.85 M10.05 -14.55 Q12.3 -12.55 13.8 -10.55 L13.8 -7.5 13.75 -7.55 13.8 -7.45 13.8 -6.15 13.1 -7.75 11.7 -10.85 11.25 -11.55 11.45 -11.35 10.55 -13.1 12.35 -10.4 12.9 -9.75 11.1 -12.9 11.75 -12.3 10.05 -14.4 10.05 -14.55 M8.9 -9.8 Q7.65 -9.45 6.75 -8.3 L7.9 -9.95 9.35 -11.6 9.6 -11.35 8.9 -9.8 M7.15 -7.2 L7.5 -7.5 7.55 -7.45 7.15 -7.2 M0.25 -8.05 L-0.65 -7.4 6.1 -15.85 Q4.3 -11.1 0.25 -8.05 M-11.9 -7.7 L-13.25 -5.05 -13.15 -4.85 -12.95 -5.0 -13.7 -4.4 -14.05 -4.4 -14.15 -4.75 Q-13.25 -7.7 -11.9 -8.0 L-11.9 -7.7 M-10.95 -4.8 Q-11.05 -3.3 -11.3 -2.6 -11.8 -1.3 -13.2 -0.45 -13.25 -0.2 -13.25 -0.6 L-12.5 -2.05 -11.0 -4.8 -10.95 -4.8" fill="#806f55" fill-rule="evenodd" stroke="none"/>
    <path d="M-8.9 -9.3 Q-8.3 -11.05 -6.5 -11.8 -4.65 -12.55 -2.9 -13.55 -7.35 -12.4 -11.15 -10.2 -8.2 -13.35 -3.6 -14.5 L4.6 -16.65 4.6 -16.4 4.55 -16.1 4.55 -16.05 4.3 -16.05 4.2 -16.2 1.8 -15.25 2.05 -15.0 2.2 -14.9 Q1.6 -14.55 0.85 -14.25 L-1.4 -10.9 0.75 -12.35 Q-0.05 -11.4 -1.0 -10.6 L-3.25 -8.35 -4.2 -7.85 -2.1 -9.8 Q-2.95 -9.7 -4.95 -8.25 L-7.1 -6.65 -7.85 -6.4 -8.7 -6.35 Q-4.2 -8.75 -1.3 -12.7 L-0.65 -13.75 Q-3.1 -12.85 -5.3 -11.2 -6.7 -10.05 -8.25 -9.3 L-8.3 -9.35 Q-6.85 -10.4 -5.15 -12.15 L-7.25 -10.65 -8.85 -9.3 -8.9 -9.3 M12.05 -1.55 Q12.75 1.0 13.8 2.75 L13.8 3.1 13.7 3.15 Q12.7 2.15 11.95 0.35 L11.2 -1.75 11.1 -2.15 10.6 -4.5 11.6 -2.15 11.7 -2.25 11.65 -2.55 11.75 -2.65 12.0 -1.75 12.05 -1.55 M7.5 -7.5 L8.1 -8.1 9.05 -9.65 10.6 -11.35 Q10.2 -8.8 7.55 -7.45 L7.5 -7.5 M-5.0 -17.5 L-7.7 -15.1 Q-10.75 -12.5 -12.05 -10.3 L-12.2 -10.3 -12.2 -10.45 Q-12.2 -12.1 -9.85 -14.5 -7.5 -16.9 -5.05 -17.75 L-5.0 -17.5" fill="#9c886b" fill-rule="evenodd" stroke="none"/>
    <path d="M13.2 12.35 L13.05 13.2 12.75 13.2 12.45 12.4 12.15 11.7 Q12.55 11.3 12.9 11.7 L13.2 12.35 M9.1 15.25 L9.35 15.05 10.35 15.85 9.85 15.0 9.85 14.6 9.3 13.7 Q10.2 13.4 10.9 14.05 L11.25 14.45 11.35 14.55 11.4 14.65 11.1 14.55 11.9 16.0 11.55 15.7 11.2 15.45 11.2 15.35 11.05 15.35 11.1 15.35 Q10.65 15.15 10.35 15.6 L12.05 16.85 12.05 16.9 11.95 16.9 11.9 16.8 9.1 15.25 M11.6 14.75 L11.55 13.2 10.85 12.9 10.8 12.45 11.35 12.45 11.4 12.0 12.9 14.5 12.2 15.3 12.15 15.85 12.0 15.45 11.6 14.75 M11.8 16.9 L11.3 16.85 10.7 17.15 Q9.05 16.8 7.8 15.3 L8.65 15.3 Q9.7 16.2 11.8 16.9 M6.85 17.1 L8.15 17.1 7.95 16.8 Q8.35 16.7 9.2 17.2 L9.35 17.3 9.4 17.35 9.95 17.75 Q10.15 17.85 9.75 17.85 L8.95 17.65 6.75 17.4 6.85 17.1" fill="#d2cdbd" fill-rule="evenodd" stroke="none"/>
    <path d="M-2.85 -3.3 L-2.9 -0.8 -0.5 -1.65 1.05 -0.3 0.8 -0.05 0.9 0.3 1.05 0.3 1.15 -0.2 3.0 1.45 4.1 2.65 4.05 2.7 4.25 2.85 4.65 3.45 5.2 4.3 5.1 4.4 5.45 5.4 5.45 6.05 Q5.2 5.8 4.9 4.95 L4.85 4.7 4.3 5.45 2.65 7.45 2.6 7.5 2.5 7.65 2.4 7.75 2.45 7.8 2.3 7.95 2.25 8.0 2.15 8.0 2.1 8.0 1.95 8.1 Q1.85 8.3 1.85 8.0 L0.55 7.4 -0.2 6.9 -0.35 6.7 -0.4 6.65 Q-0.95 6.7 -1.4 7.1 L-2.1 7.6 -3.0 7.15 -3.45 6.8 -3.55 6.75 -4.0 6.85 -4.85 7.2 -5.3 7.5 Q-6.0 5.65 -7.25 4.45 -8.55 3.25 -9.65 0.65 L-9.75 0.1 -9.75 -0.05 -9.7 -1.35 -9.45 -1.85 Q-7.75 -1.3 -6.35 -0.2 L-4.95 -1.7 -4.8 -1.7 -4.4 0.6 -4.0 -0.6 -3.4 -3.15 -3.15 -3.15 Q-3.0 -3.15 -2.85 -3.3 M-0.25 -1.75 L0.8 -2.1 1.35 -1.95 2.95 -1.6 2.6 -0.8 5.3 -1.75 6.6 -2.25 7.15 -2.6 7.85 -1.9 7.8 -2.0 Q8.3 -2.2 8.45 -1.85 L8.45 -1.8 8.55 -2.0 Q8.75 -2.25 8.8 -1.75 L8.85 -0.9 8.8 0.05 8.35 1.45 8.05 1.9 7.25 2.8 6.45 3.45 6.05 3.75 Q5.7 3.95 5.3 4.25 L4.5 2.85 4.85 2.45 4.4 2.5 4.3 2.55 3.0 0.95 3.0 0.75 2.9 0.75 2.85 0.75 Q1.45 -0.75 -0.25 -1.75 M-2.25 11.9 Q-1.6 11.9 -1.15 12.45 L0.1 13.45 Q-1.75 14.15 -3.4 13.4 L-3.8 12.3 -3.75 12.3 -3.35 11.95 -2.3 11.9 -2.25 11.9 M-1.55 3.0 L-1.65 2.9 -1.65 2.85 -2.4 3.15 -3.35 3.5 Q-4.15 3.5 -4.75 3.1 L-4.85 3.05 -4.9 3.0 -5.0 3.3 -4.85 3.55 -3.2 6.3 -2.9 6.5 -2.15 6.95 Q-1.75 6.95 -1.15 6.4 L-0.7 6.25 1.0 3.85 Q0.75 3.05 0.65 1.6 L0.45 1.75 0.35 2.15 0.05 2.1 -0.2 2.65 Q-0.5 3.2 -0.9 3.2 L-1.55 3.0 M-5.15 6.9 L-5.2 6.8 -5.25 7.0 -5.15 6.9 M4.6 3.4 L4.55 3.45 4.05 4.05 4.2 4.1 4.65 3.9 4.65 3.65 4.6 3.4" fill="#5aa6ad" fill-rule="evenodd" stroke="none"/>
    <path d="M1.5 8.95 L1.3 9.1 1.2 9.2 1.15 9.2 0.5 9.75 0.3 9.9 -2.0 10.1 -3.75 9.65 -4.0 9.4 -4.4 8.9 -4.1 8.45 -3.75 8.45 -3.65 8.45 -3.45 8.5 -2.95 8.65 -2.7 8.75 -0.9 8.9 0.8 8.65 0.85 8.65 0.9 8.7 1.6 8.9 1.5 8.95" fill="#b39577" fill-rule="evenodd" stroke="none"/>
  </g>
</svg>
