<?xml version="1.0" encoding="UTF-8" standalone="no"?>
<svg xmlns:xlink="http://www.w3.org/1999/xlink" height="14.0px" width="27.05px" xmlns="http://www.w3.org/2000/svg">
  <g transform="matrix(1.0, 0.0, 0.0, 1.0, 14.65, 23.75)">
    <path d="M9.7 -19.95 L9.95 -20.0 10.4 -20.05 10.05 -19.9 9.7 -19.95 M-8.65 -15.55 Q-8.9 -15.3 -9.05 -15.3 L-8.95 -15.35 -8.65 -15.55 M-6.6 -17.4 Q-7.15 -17.05 -7.85 -16.8 L-9.0 -16.2 -8.5 -17.15 -2.65 -20.15 Q-5.0 -18.7 -5.8 -18.05 L-6.35 -17.65 -6.6 -17.4 M-10.6 -16.5 L-11.55 -16.2 -14.15 -9.75 -14.65 -19.35 -13.4 -20.35 Q-13.2 -19.95 -12.15 -19.6 L-12.05 -19.55 Q-12.65 -19.5 -12.85 -19.15 -13.45 -18.95 -13.35 -18.25 L-10.9 -18.8 -14.0 -14.1 -13.3 -14.85 -13.6 -14.4 -11.75 -16.35 -10.6 -16.5 M7.25 -21.65 L7.6 -21.85 8.05 -21.55 7.25 -21.65 M-9.3 -22.05 L-6.8 -23.0 -1.65 -21.75 -12.3 -21.25 -8.8 -23.75 -9.3 -22.05 M-10.9 -14.8 L-11.0 -14.7 Q-10.6 -15.3 -10.9 -14.8 M-13.0 -10.25 Q-13.05 -10.1 -13.3 -10.0 -12.3 -12.05 -13.0 -10.25" fill="#ffd944" fill-rule="evenodd" stroke="none"/>
    <path d="M9.7 -19.95 Q8.55 -19.7 9.65 -19.6 L10.25 -19.85 10.7 -20.1 10.4 -20.05 9.95 -20.0 9.7 -19.95 M6.75 -21.35 L6.85 -21.35 7.65 -21.25 8.2 -21.2 9.3 -21.0 12.2 -19.95 11.1 -17.3 10.75 -14.3 10.65 -13.4 10.6 -13.1 10.4 -13.75 9.1 -18.4 6.5 -18.2 6.35 -18.5 6.4 -18.8 5.8 -18.95 5.55 -18.9 4.9 -18.05 4.6 -17.6 4.3 -17.25 Q3.85 -17.6 4.25 -18.1 L0.85 -16.1 0.85 -16.2 0.75 -16.9 6.45 -21.15 -6.6 -14.95 -5.45 -15.65 2.35 -20.35 2.05 -20.2 -7.15 -16.45 -7.45 -16.35 -8.65 -15.55 -8.95 -15.35 -9.05 -15.3 Q-9.4 -15.3 -9.6 -15.55 L-9.7 -15.65 -9.4 -15.9 -8.25 -16.5 Q-7.3 -16.85 -6.6 -17.4 L-6.35 -17.65 -5.8 -18.05 -2.2 -20.4 -2.65 -20.15 -8.5 -17.15 -8.85 -17.0 -9.8 -16.6 -10.6 -16.5 -11.75 -16.35 -11.9 -16.35 -13.3 -14.85 -14.0 -14.1 -10.9 -18.8 -13.35 -18.25 Q-13.45 -18.95 -12.85 -19.15 L-12.45 -19.25 Q-11.9 -19.4 -12.05 -19.55 L-12.15 -19.6 Q-13.2 -19.95 -13.4 -20.35 L-13.4 -20.4 -12.7 -20.95 -2.05 -21.45 6.65 -21.35 6.75 -21.35 M4.1 -19.3 L4.0 -19.25 Q5.2 -19.45 4.1 -19.3" fill="#000000" fill-rule="evenodd" stroke="none"/>
    <path d="M-6.6 -14.95 L-6.45 -15.15 -6.45 -15.2 -6.75 -15.0 -9.1 -13.15 -7.15 -16.45 2.05 -20.2 -6.25 -15.25 -5.45 -15.65 -6.6 -14.95 M6.65 -21.35 L6.85 -21.45 6.75 -21.35 6.65 -21.35" fill="url(#gradient0)" fill-rule="evenodd" stroke="none"/>
    <path d="M0.8 -16.15 L0.85 -16.2 0.85 -16.1 0.8 -16.15" fill="url(#gradient1)" fill-rule="evenodd" stroke="none"/>
    <path d="M0.85 -16.2 L-7.4 -12.25 -7.25 -12.55 Q-6.8 -12.95 -6.7 -13.25 L-7.1 -13.05 -7.5 -13.1 -8.0 -13.05 -6.6 -14.95 6.45 -21.15 0.75 -16.9 0.85 -16.2" fill="url(#gradient2)" fill-rule="evenodd" stroke="none"/>
    <path d="M10.75 -14.3 L11.0 -13.4 11.5 -17.6 12.4 -15.2 11.85 -14.1 11.75 -11.65 10.65 -13.4 10.75 -14.3" fill="url(#gradient3)" fill-rule="evenodd" stroke="none"/>
    <path d="M10.4 -13.75 L9.05 -15.9 7.4 -15.65 0.25 -10.15 4.7 -16.65 -5.0 -10.65 1.25 -15.4 -1.05 -14.2 0.8 -16.15 0.85 -16.1 4.25 -18.1 Q3.85 -17.6 4.3 -17.25 L4.6 -17.6 4.7 -17.55 5.3 -18.35 5.8 -18.95 6.4 -18.8 6.35 -18.5 6.5 -18.2 9.1 -18.4 10.4 -13.75" fill="url(#gradient4)" fill-rule="evenodd" stroke="none"/>
  </g>
  <defs>
    <linearGradient gradientTransform="matrix(0.0131, 0.0, 0.0, 0.0069, 1.65, -15.8)" gradientUnits="userSpaceOnUse" id="gradient0" spreadMethod="pad" x1="-819.2" x2="819.2">
      <stop offset="0.0" stop-color="#ffd944"/>
      <stop offset="1.0" stop-color="#47a7a7"/>
    </linearGradient>
    <linearGradient gradientTransform="matrix(0.0131, 0.0, 0.0, 0.0069, 1.65, -15.8)" gradientUnits="userSpaceOnUse" id="gradient1" spreadMethod="pad" x1="-819.2" x2="819.2">
      <stop offset="0.0" stop-color="#ffd944"/>
      <stop offset="1.0" stop-color="#788965"/>
    </linearGradient>
    <linearGradient gradientTransform="matrix(0.0043, -0.0021, 6.0E-4, 0.0012, -2.8, -15.6)" gradientUnits="userSpaceOnUse" id="gradient2" spreadMethod="pad" x1="-819.2" x2="819.2">
      <stop offset="0.0" stop-color="#ffd944"/>
      <stop offset="1.0" stop-color="#788965"/>
    </linearGradient>
    <linearGradient gradientTransform="matrix(3.0E-4, -0.0023, 9.0E-4, 1.0E-4, 11.55, -14.7)" gradientUnits="userSpaceOnUse" id="gradient3" spreadMethod="pad" x1="-819.2" x2="819.2">
      <stop offset="0.0" stop-color="#ffd944"/>
      <stop offset="1.0" stop-color="#788965"/>
    </linearGradient>
    <linearGradient gradientTransform="matrix(0.0031, -0.0035, 0.0044, 0.0038, 5.1, -14.85)" gradientUnits="userSpaceOnUse" id="gradient4" spreadMethod="pad" x1="-819.2" x2="819.2">
      <stop offset="0.0" stop-color="#ffd944"/>
      <stop offset="1.0" stop-color="#788965"/>
    </linearGradient>
  </defs>
</svg>
