<?xml version="1.0" encoding="UTF-8" standalone="no"?>
<svg xmlns:xlink="http://www.w3.org/1999/xlink" height="14.1px" width="10.2px" xmlns="http://www.w3.org/2000/svg">
  <g transform="matrix(1.0, 0.0, 0.0, 1.0, 6.3, 4.6)">
    <path d="M-2.8 -0.85 L-3.7 -1.4 -4.1 -2.75 0.95 -2.55 -0.8 -0.8 -2.8 -0.85" fill="#ffffff" fill-rule="evenodd" stroke="none"/>
    <path d="M-5.65 7.2 L-3.7 7.2 -5.85 9.5 -6.0 8.95 -6.15 8.75 -6.3 8.55 -5.95 7.6 -5.65 7.2 M3.9 7.75 L3.65 8.2 3.2 8.5 2.1 7.55 1.8 7.2 3.8 7.2 3.9 7.75" fill="#000000" fill-rule="evenodd" stroke="none"/>
    <path d="M0.65 -0.15 Q0.25 0.9 -1.35 0.9 -3.15 0.9 -3.75 -0.15 -4.1 -0.7 -4.05 -1.25 L-4.05 -1.4 -4.2 -2.05 Q-4.2 -3.9 -1.55 -4.5 1.1 -5.1 1.1 -2.2 L0.8 -0.9 0.65 -0.15 M-2.45 -1.35 Q-2.45 -0.75 -1.5 -0.75 -1.1 -0.75 -0.7 -1.05 -0.35 -1.4 -0.35 -1.8 -0.35 -2.75 -1.4 -2.4 -2.45 -2.0 -2.45 -1.35" fill="#ff3300" fill-rule="evenodd" stroke="none"/>
    <path d="M-0.8 -2.0 L-0.75 -1.8 Q-0.75 -1.25 -1.4 -1.25 L-1.8 -1.35 -1.8 -1.65 -1.6 -2.05 -0.9 -2.0 -0.8 -2.0" fill="#ffffff" fill-rule="evenodd" stroke="none"/>
    <path d="M-0.8 -2.0 L-0.9 -2.0 -1.6 -2.05 -1.8 -1.65 -1.8 -1.35 -1.4 -1.25 Q-0.75 -1.25 -0.75 -1.8 L-0.8 -2.0 M-2.45 -1.35 Q-2.45 -2.0 -1.4 -2.4 -0.35 -2.75 -0.35 -1.8 -0.35 -1.4 -0.7 -1.05 -1.1 -0.75 -1.5 -0.75 -2.45 -0.75 -2.45 -1.35" fill="#ffe711" fill-rule="evenodd" stroke="none"/>
  </g>
</svg>
