<?xml version="1.0" encoding="UTF-8" standalone="no"?>
<svg xmlns:xlink="http://www.w3.org/1999/xlink" height="36.8px" width="27.55px" xmlns="http://www.w3.org/2000/svg">
  <g transform="matrix(1.0, 0.0, 0.0, 1.0, 13.45, 18.65)">
    <path d="M13.15 -18.65 L13.15 18.15 -13.45 18.15 -13.45 -18.65 13.15 -18.65" fill="#000000" fill-rule="evenodd" stroke="none"/>
    <path d="M11.25 -8.25 L11.6 -8.0 11.3 -7.8 Q9.65 -7.8 8.55 -8.9 L6.65 -10.2 Q6.0 -11.1 6.35 -11.2 L6.5 -11.15 8.1 -10.45 11.05 -8.35 11.1 -8.25 11.25 -8.25 M6.9 -5.1 L6.3 -3.9 Q5.25 -3.9 5.05 -4.6 L5.05 -4.7 5.05 -4.55 4.95 -3.75 4.8 -3.6 Q4.65 -3.65 4.65 -3.95 L4.7 -4.3 4.8 -6.3 5.15 -6.35 5.4 -5.5 5.55 -4.7 Q6.45 -5.15 6.45 -5.9 L6.45 -7.35 6.75 -7.35 7.2 -5.85 6.9 -5.1 M3.15 -3.25 L4.05 -0.65 4.05 -0.6 4.35 0.85 4.3 1.55 3.9 1.55 3.75 1.5 3.6 1.55 3.6 1.65 3.7 1.8 3.7 1.9 2.65 2.05 1.3 1.55 -0.15 1.35 0.5 2.45 0.65 4.35 1.4 2.95 2.15 4.35 2.4 5.85 2.9 3.5 2.9 3.45 2.55 3.15 2.75 3.0 3.15 3.3 3.45 3.15 3.45 2.85 3.65 2.85 3.7 3.0 4.15 2.8 4.1 3.3 4.05 3.6 4.05 3.65 4.4 4.05 4.4 5.9 4.4 7.65 4.35 7.7 4.05 8.15 3.6 8.7 3.45 8.6 3.75 7.95 3.75 7.8 3.0 7.85 2.9 7.55 Q2.9 7.35 3.35 6.7 L3.8 6.2 3.75 5.5 3.75 5.45 3.65 4.8 3.5 4.35 3.4 4.2 3.35 4.3 2.5 6.4 1.85 6.3 1.85 5.25 1.55 3.55 0.8 6.05 0.15 3.55 -0.6 1.6 -0.75 1.6 -1.6 3.4 -1.75 4.3 -2.0 3.4 -2.15 1.35 Q-2.3 0.9 -2.5 1.05 L-2.6 1.3 -3.25 4.25 -4.85 4.15 -4.95 4.45 Q-5.25 5.2 -5.9 4.85 L-6.5 4.7 -6.6 1.9 -6.25 1.6 -6.1 4.05 -5.9 4.35 -5.4 4.15 -5.5 1.35 Q-5.2 0.45 -4.25 0.4 L-3.7 0.3 -3.4 0.9 Q-2.6 0.3 -2.0 0.9 -1.75 0.95 -1.7 1.35 L-1.4 1.4 -1.55 0.5 -0.4 0.7 -0.6 -0.75 -0.4 -1.1 -0.25 -1.35 0.05 -1.4 0.45 -1.45 2.45 -0.65 Q1.85 -2.55 1.85 -3.35 1.85 -3.9 2.1 -4.15 L1.05 -5.6 0.35 -6.2 -0.7 -6.65 -0.9 -6.1 -1.35 -6.85 -1.15 -7.5 -1.6 -9.35 -2.3 -8.7 Q-2.3 -9.7 -1.55 -10.45 L-0.25 -11.65 0.15 -11.05 0.1 -10.45 -1.1 -9.35 -0.7 -7.75 -0.7 -7.05 0.25 -6.8 0.3 -6.8 0.2 -7.0 -0.35 -7.75 Q0.95 -7.05 1.9 -5.3 L2.45 -4.3 Q1.85 -7.65 -0.85 -9.05 1.75 -8.25 2.65 -5.2 L3.15 -3.25 M-5.85 -5.25 L-5.9 -1.85 -6.15 -0.75 -6.3 -2.65 -6.6 -1.1 -7.1 -2.8 -7.15 -1.3 -7.65 -1.1 -8.1 -1.3 -7.6 -2.5 Q-7.4 -5.0 -6.7 -6.55 L-6.2 -7.65 -6.75 -9.6 -6.8 -9.45 Q-7.4 -7.95 -8.35 -7.95 L-9.05 -8.05 Q-9.45 -8.15 -9.45 -8.25 L-9.45 -8.55 Q-7.9 -8.25 -7.05 -9.8 L-6.8 -10.3 -6.6 -11.1 -6.55 -11.25 -6.65 -12.3 -6.45 -12.3 -6.35 -11.25 -6.35 -11.15 -6.1 -10.95 -5.55 -9.4 -6.45 -10.5 -6.65 -9.75 -6.25 -9.55 -5.05 -7.1 -5.7 -7.0 -5.85 -5.25 M-9.2 -4.55 Q-9.1 -3.45 -8.6 -2.75 L-8.85 -2.55 -9.3 -2.95 -9.15 -2.9 -9.45 -3.8 -9.8 -4.95 -9.8 -5.35 -9.8 -6.2 Q-9.7 -7.0 -9.2 -7.05 L-9.2 -4.9 -9.2 -4.55 M-10.8 -12.05 L-12.8 -10.15 -13.4 -10.4 -13.1 -12.1 -10.65 -12.9 -10.8 -12.05 M-5.8 -11.35 L-5.85 -11.4 -6.45 -12.45 -6.45 -13.4 -6.0 -14.3 -5.85 -13.95 -5.7 -13.95 -5.7 -14.4 -5.7 -14.7 -5.45 -14.7 -5.4 -14.2 -5.15 -12.4 -5.0 -11.15 -5.0 -11.0 -4.65 -9.75 -4.85 -9.5 -5.25 -10.6 -5.8 -11.35 M-7.25 -17.05 L-7.8 -17.4 -7.65 -17.55 -6.9 -17.15 -6.75 -17.05 Q-6.25 -16.7 -5.25 -16.7 L-4.3 -16.85 -4.2 -17.0 -1.95 -16.95 Q-1.8 -17.15 -1.8 -16.75 L-1.85 -16.35 -2.15 -16.35 -3.3 -16.65 -4.7 -16.35 -6.85 -16.8 -7.25 -17.05 M0.8 -17.45 L1.95 -18.2 2.3 -18.2 2.4 -17.9 2.25 -17.55 1.55 -17.05 -1.05 -15.9 -1.5 -16.05 0.55 -17.35 0.8 -17.45 M6.25 -15.25 Q7.25 -15.15 7.7 -14.3 L7.9 -13.85 6.7 -14.25 5.8 -14.3 4.25 -14.8 5.45 -14.95 6.25 -15.25 M6.95 -13.65 Q7.8 -13.2 8.6 -12.8 L7.3 -12.65 7.25 -12.65 7.4 -12.55 8.05 -12.25 7.8 -11.65 8.6 -10.9 7.95 -10.95 7.15 -11.65 6.35 -11.65 4.7 -12.25 5.4 -12.75 4.95 -12.95 4.7 -13.4 5.9 -13.85 6.95 -13.65 M0.3 -12.3 L0.15 -12.95 0.45 -13.1 0.65 -11.7 0.9 -10.15 Q1.3 -8.25 4.65 -7.7 L4.15 -7.65 Q1.85 -7.65 1.1 -9.15 0.7 -10.0 0.3 -12.3 M-3.05 -12.6 L-2.55 -13.85 Q-2.3 -13.65 -2.3 -12.9 L-1.85 -13.4 -1.55 -13.4 -1.5 -13.2 -1.65 -12.9 0.0 -13.6 -0.65 -13.0 Q-1.4 -12.55 -2.1 -12.05 L-2.65 -10.95 -2.3 -11.4 0.0 -12.25 -3.45 -9.95 -2.9 -10.65 -3.2 -10.65 -3.3 -11.35 -3.05 -12.6 M10.05 -8.8 L9.0 -9.35 9.55 -8.8 10.05 -8.8 M3.4 -0.05 L3.3 -0.5 3.3 -0.15 3.4 -0.05 M6.15 -4.65 L5.9 -4.4 5.95 -4.3 6.15 -4.25 6.3 -4.7 6.15 -4.65 M3.85 3.2 L3.8 3.4 3.9 3.9 3.9 3.75 3.95 3.65 3.85 3.2 M3.85 7.15 L3.75 7.35 3.9 7.35 3.85 7.15 M1.05 11.1 L0.8 8.9 0.3 8.9 0.15 10.7 -0.2 11.15 -0.2 10.95 -0.55 8.7 -1.2 9.0 Q-1.7 8.65 -0.9 8.6 L0.85 8.35 1.4 10.7 1.15 12.75 1.05 11.1 M5.35 7.45 L4.7 6.65 4.85 5.45 5.4 7.4 5.35 7.45 M0.0 15.95 L-0.2 15.95 0.3 16.05 0.0 15.95 M0.8 16.8 L1.35 16.8 0.75 16.7 0.8 16.8 M-3.85 15.2 L-4.35 14.9 -4.35 14.75 -3.15 14.9 Q-3.0 14.7 -3.0 14.3 L1.4 14.6 Q3.15 15.05 4.2 15.65 L4.1 15.9 1.25 16.05 2.25 17.0 2.1 17.25 1.65 17.25 2.4 17.7 1.7 17.75 Q0.9 17.75 -1.4 16.55 L-1.5 16.5 -3.85 15.2 M-12.65 -13.4 L-11.45 -14.0 -12.35 -14.35 Q-12.25 -15.0 -11.5 -14.6 L-11.25 -14.45 -11.1 -13.55 -12.65 -13.4 M-6.7 -4.4 L-6.75 -3.2 -6.5 -3.9 -6.7 -4.4 M-4.6 1.8 L-4.6 3.1 -4.4 3.8 -3.9 3.7 -3.7 1.3 -4.6 1.8 M-4.95 9.6 L-4.6 7.9 -4.25 7.25 Q-3.5 7.7 -3.0 8.6 L-2.85 9.0 -1.8 9.25 Q-1.4 9.25 -1.15 9.9 -0.85 10.5 -0.85 11.4 -0.85 12.1 -1.2 11.5 L-1.3 11.05 Q-1.3 10.2 -2.1 9.6 L-2.5 9.5 -2.6 9.45 -2.55 9.6 -2.15 10.6 -2.1 11.4 -2.1 11.45 -2.1 11.8 -2.05 12.45 -2.15 12.2 -2.25 12.6 -2.6 12.45 -2.85 12.2 -2.85 11.55 -2.85 9.8 -2.9 9.55 -2.9 11.55 -3.25 12.7 -3.25 9.55 -4.4 9.6 -4.25 11.6 -4.45 12.25 -4.6 11.1 -4.95 9.6" fill="#000000" fill-rule="evenodd" stroke="none"/>
    <path d="M11.05 -8.35 L10.85 -9.15 11.2 -11.0 11.45 -12.25 11.4 -12.5 11.55 -13.1 11.55 -13.25 11.65 -13.25 11.7 -13.35 Q11.95 -13.65 12.3 -13.65 L13.35 -13.7 14.1 -13.5 Q14.1 -13.25 13.35 -13.2 L12.5 -13.1 12.35 -12.75 12.0 -12.45 11.8 -12.3 11.55 -10.85 11.5 -10.2 Q11.5 -9.9 11.7 -9.9 12.4 -9.9 12.2 -9.2 L12.05 -8.7 11.85 -8.25 11.25 -8.25 11.1 -8.25 11.05 -8.35 M8.55 -8.9 L8.8 -7.95 Q8.2 -6.05 6.9 -5.1 L7.2 -5.85 6.75 -7.35 6.45 -7.35 6.45 -5.9 Q6.45 -5.15 5.55 -4.7 L5.4 -5.5 5.15 -6.35 4.8 -6.3 4.7 -4.3 3.15 -3.25 2.65 -5.2 Q1.75 -8.25 -0.85 -9.05 1.85 -7.65 2.45 -4.3 L1.9 -5.3 Q0.95 -7.05 -0.35 -7.75 L-0.7 -7.75 -1.1 -9.35 0.1 -10.45 0.15 -11.05 -0.25 -11.65 -1.55 -10.45 Q-2.3 -9.7 -2.3 -8.7 L-1.6 -9.35 -1.15 -7.5 -4.1 -3.95 -5.85 -5.25 -5.7 -7.0 -5.05 -7.1 -6.25 -9.55 -6.65 -9.75 -6.45 -10.5 -5.55 -9.4 -6.1 -10.95 -5.8 -11.35 -5.25 -10.6 -4.85 -9.5 -4.65 -9.75 -5.0 -11.0 -5.0 -11.15 -5.15 -12.4 -5.1 -12.5 -3.05 -12.6 -3.3 -11.35 -3.2 -10.65 -2.9 -10.65 -3.45 -9.95 0.0 -12.25 -2.3 -11.4 -2.65 -10.95 -2.1 -12.05 Q-1.4 -12.55 -0.65 -13.0 L0.0 -12.75 0.3 -12.3 Q0.7 -10.0 1.1 -9.15 1.85 -7.65 4.15 -7.65 L4.65 -7.7 Q1.3 -8.25 0.9 -10.15 L0.65 -11.7 1.4 -10.6 Q4.2 -6.2 6.75 -9.4 L6.65 -10.2 8.55 -8.9 M5.05 -4.6 L5.05 -4.55 5.05 -4.7 5.05 -4.6 M4.35 0.85 L4.4 -0.9 4.65 -0.9 4.8 1.4 4.75 4.05 4.4 5.9 4.4 4.05 4.05 3.65 4.05 3.6 4.1 3.3 4.15 2.8 4.3 1.55 4.35 0.85 M0.45 -1.45 L0.35 -6.2 1.05 -5.6 2.1 -4.15 Q1.85 -3.9 1.85 -3.35 1.85 -2.55 2.45 -0.65 L0.45 -1.45 M-5.9 -1.85 L-5.2 -0.45 -7.5 2.2 -7.15 -1.3 -7.1 -2.8 -6.6 -1.1 -6.3 -2.65 -6.15 -0.75 -5.9 -1.85 M-7.6 -2.5 L-9.2 -4.55 -9.2 -4.9 -9.2 -7.05 Q-9.7 -7.0 -9.8 -6.2 L-9.8 -5.35 -10.0 -5.6 Q-12.0 -8.35 -10.8 -12.05 L-10.65 -12.9 -10.6 -10.65 -10.35 -10.2 -9.35 -9.75 Q-7.95 -9.45 -6.8 -10.3 L-7.05 -9.8 Q-7.9 -8.25 -9.45 -8.55 L-9.45 -8.25 Q-9.45 -8.15 -9.05 -8.05 L-8.35 -7.95 Q-7.4 -7.95 -6.8 -9.45 L-6.75 -9.6 -6.2 -7.65 -6.7 -6.55 Q-7.4 -5.0 -7.6 -2.5 M-5.7 -14.4 Q-8.0 -15.6 -10.15 -14.45 L-10.55 -15.65 -7.25 -17.05 -6.85 -16.8 -4.7 -16.35 -3.3 -16.65 -2.15 -16.35 -1.85 -16.35 -1.8 -16.75 Q-1.8 -17.15 -1.95 -16.95 L-4.2 -17.0 -4.3 -16.85 -5.25 -16.7 Q-6.25 -16.7 -6.75 -17.05 L-6.9 -17.15 Q-3.75 -17.95 -0.35 -17.05 L-0.1 -17.05 -0.1 -17.2 0.0 -17.45 0.8 -17.45 0.55 -17.35 -1.5 -16.05 -1.05 -15.9 1.55 -17.05 2.25 -17.55 4.85 -17.65 5.55 -16.45 Q7.7 -16.5 9.3 -15.15 L9.3 -15.1 9.45 -15.05 9.2 -14.9 8.9 -15.0 7.85 -15.0 7.7 -15.1 7.8 -15.3 6.2 -15.35 6.25 -15.25 5.45 -14.95 4.65 -15.45 Q2.55 -16.55 0.8 -15.25 L-2.4 -15.6 Q-3.15 -15.7 -3.85 -15.2 L-5.05 -15.7 -5.25 -14.15 -5.4 -14.2 -5.45 -14.7 -5.7 -14.7 -5.7 -14.4 M6.7 -14.25 L6.95 -13.65 5.9 -13.85 5.8 -14.3 6.7 -14.25 M7.3 -12.65 L7.4 -12.55 7.25 -12.65 7.3 -12.65 M7.95 -10.95 L8.1 -10.45 6.5 -11.15 6.35 -11.65 7.15 -11.65 7.95 -10.95 M5.9 -15.85 L6.0 -15.65 6.0 -15.7 6.1 -15.8 5.9 -15.85 M6.45 -16.1 L6.25 -16.1 6.4 -16.05 6.45 -16.1 M0.2 -7.0 L0.3 -6.8 0.25 -6.8 0.2 -7.0 M13.15 -4.2 Q12.75 -3.2 12.45 -3.2 L10.85 -3.35 10.7 -4.25 10.7 -5.0 11.1 -5.0 11.25 -3.75 12.05 -3.65 12.6 -4.6 Q13.05 -5.5 13.8 -5.55 L13.15 -4.2 M6.3 4.5 L6.3 5.75 5.85 7.5 5.7 7.5 5.6 7.25 6.0 3.15 6.2 3.15 6.3 4.5 M2.65 2.05 L2.0 2.2 1.3 1.55 2.65 2.05 M2.4 5.85 L2.55 4.35 Q2.65 3.85 2.9 3.45 L2.9 3.5 2.4 5.85 M3.5 4.35 L3.35 4.3 3.4 4.2 3.5 4.35 M3.85 7.15 L3.9 7.35 3.75 7.35 3.85 7.15 M-1.5 16.5 Q-2.9 17.4 -4.4 17.0 L-5.4 15.45 -3.85 15.2 -1.5 16.5 M-6.7 -4.4 L-6.5 -3.9 -6.75 -3.2 -6.7 -4.4 M-2.9 11.55 L-2.9 9.55 -2.85 9.8 -2.85 11.55 -2.9 11.55 M-2.55 9.6 L-2.6 9.45 -2.5 9.5 -2.55 9.6" fill="#ccdbbd" fill-rule="evenodd" stroke="none"/>
    <path d="M3.5 4.35 L3.6 6.2 2.85 6.6 2.5 6.4 3.35 4.3 3.5 4.35 M1.85 5.25 L1.1 5.6 0.8 6.05 1.55 3.55 1.85 5.25 M0.15 3.55 L0.05 4.75 -1.6 3.4 -0.75 1.6 -0.6 1.6 0.15 3.55 M-2.0 3.4 L-3.25 4.25 -2.6 1.3 -2.15 1.35 -2.0 3.4 M-6.5 4.7 L-6.95 5.7 -7.1 4.75 Q-7.2 3.15 -6.6 1.9 L-6.5 4.7 M-6.25 1.6 L-5.5 1.35 -5.4 4.15 -6.1 4.05 -6.25 1.6 M0.15 10.7 L0.3 8.9 0.8 8.9 1.05 11.1 0.15 10.7 M1.4 10.7 L0.85 8.35 1.4 8.45 1.7 9.35 1.4 10.7 M-1.2 9.0 L-0.55 8.7 -0.2 10.95 -0.85 11.4 Q-0.85 10.5 -1.15 9.9 -1.4 9.25 -1.8 9.25 L-1.2 9.0 M-4.6 1.8 L-3.7 1.3 -3.9 3.7 -4.4 3.8 -4.6 3.1 -4.6 1.8 M-4.6 11.1 L-5.8 11.35 -6.1 10.45 -5.9 9.95 -4.95 9.6 -4.6 11.1 M-2.1 11.4 L-2.15 10.6 -2.55 9.6 -2.5 9.5 -2.1 9.6 Q-1.3 10.2 -1.3 11.05 L-1.7 11.55 -2.1 11.4 M-4.25 11.6 L-4.4 9.6 -3.25 9.55 -3.25 12.7 -4.1 12.75 -4.25 11.6" fill="#f1de96" fill-rule="evenodd" stroke="none"/>
    <path d="M0.5 2.45 L1.3 2.3 1.65 2.9 2.15 3.15 2.15 4.35 1.4 2.95 0.65 4.35 0.5 2.45" fill="#997d55" fill-rule="evenodd" stroke="none"/>
  </g>
</svg>
