<?xml version="1.0" encoding="UTF-8" standalone="no"?>
<svg xmlns:xlink="http://www.w3.org/1999/xlink" height="36.8px" width="27.15px" xmlns="http://www.w3.org/2000/svg">
  <g transform="matrix(1.0, 0.0, 0.0, 1.0, 13.45, 18.65)">
    <path d="M13.15 18.15 L-13.45 18.15 -13.45 -18.65 13.15 -18.65 13.15 18.15" fill="#000000" fill-rule="evenodd" stroke="none"/>
    <path d="M-6.5 17.1 L-6.75 17.8 -8.35 18.1 -10.05 18.1 -11.65 17.85 -13.3 17.25 -13.4 15.7 -13.35 14.25 -13.2 12.3 -13.2 10.35 -13.45 6.9 -13.45 -18.65 12.3 -18.65 13.5 -18.3 13.5 -0.3 12.5 -2.7 Q10.6 -6.5 8.3 -10.35 L8.25 -10.4 8.2 -10.3 13.5 2.15 13.5 17.95 12.15 18.05 8.85 17.95 8.4 17.55 7.95 16.8 Q7.7 16.2 7.95 15.35 L9.25 14.75 Q11.85 13.35 12.25 10.45 L12.25 10.4 12.2 10.45 11.05 11.75 Q13.55 4.95 10.05 -1.25 5.5 -9.3 -0.45 -16.15 L0.85 -15.55 3.35 -13.65 2.85 -15.05 5.75 -13.05 3.6 -15.65 2.95 -16.7 7.9 -14.8 Q4.2 -17.35 -0.25 -18.1 L-3.0 -17.05 Q-9.45 -14.45 -11.6 -7.95 L-11.1 -7.75 Q-9.05 -12.65 -4.3 -14.85 L-5.85 -13.35 -4.55 -13.35 -3.7 -14.15 -3.35 -14.3 -3.1 -14.35 -2.9 -13.85 -7.65 -7.85 Q-11.7 -2.15 -12.5 4.55 L-12.5 5.0 -12.35 4.5 -11.05 1.25 -11.8 4.95 Q-12.9 12.45 -6.5 17.1 M6.1 4.35 L6.8 3.6 6.9 3.9 6.15 6.05 Q5.35 8.35 5.1 10.05 L4.95 10.1 Q4.8 9.5 4.8 8.1 L4.8 7.95 5.0 5.8 Q5.25 5.2 6.1 4.35 M5.45 4.5 Q4.95 4.5 5.45 4.2 L5.45 4.5 M1.05 5.85 L1.05 5.9 0.8 7.05 0.6 7.2 0.35 6.65 0.2 6.15 0.45 4.95 1.05 5.05 1.05 5.55 1.05 5.85 M3.65 8.5 Q4.65 10.75 4.65 12.15 L4.1 12.8 Q3.7 12.25 3.15 10.45 2.6 8.8 2.6 8.4 2.6 6.25 3.65 8.5 M0.8 7.85 L0.15 8.75 Q-0.5 9.3 -1.0 9.3 -1.4 9.3 -2.05 8.55 L-2.45 8.0 -2.7 7.5 -2.9 7.2 -3.0 6.8 -3.0 6.75 -3.45 6.9 -3.65 6.35 -3.65 6.3 -3.7 6.2 -3.75 5.9 -3.9 6.3 -4.2 5.6 Q-4.2 3.35 -2.25 6.35 L-2.25 7.25 -2.1 7.4 -1.85 7.65 -1.8 7.35 -1.6 7.2 -1.25 7.4 -1.05 7.7 -0.5 7.3 0.2 6.9 0.8 7.85 M-0.25 12.75 L-1.65 12.15 -1.65 12.0 -1.35 11.9 0.35 12.3 0.85 12.2 1.35 12.2 1.4 11.95 1.4 11.6 2.75 11.8 Q3.45 12.1 3.45 12.45 L3.45 13.25 2.3 13.55 1.85 13.4 -0.25 12.75 M-5.0 10.7 L-4.95 11.55 -5.0 12.75 -5.25 12.9 -7.0 8.6 Q-8.4 4.9 -8.4 4.2 -8.4 3.75 -8.0 3.75 L-8.1 4.05 Q-8.1 4.45 -7.1 6.05 L-6.5 7.0 Q-5.25 8.95 -5.0 10.7 M-8.05 17.65 L-6.9 17.6 -12.4 14.7 Q-10.8 16.35 -8.6 17.3 L-8.05 17.65" fill="#000000" fill-rule="evenodd" stroke="none"/>
    <path d="M-12.35 4.5 L-12.5 5.0 -12.5 4.55 -12.35 4.5 M8.4 17.55 L8.85 17.95 8.0 18.05 8.4 17.55 M11.05 11.75 L11.0 11.75 11.05 11.75 M-7.35 -0.05 L-7.25 -0.05 -7.3 0.0 -7.35 -0.05" fill="#ffffff" fill-rule="evenodd" stroke="none"/>
    <path d="M12.2 10.45 L12.25 10.4 12.25 10.45 12.2 10.45 M8.2 -10.3 L8.25 -10.4 8.3 -10.35 8.2 -10.3 M7.2 4.0 L7.15 4.0 7.15 3.95 7.2 4.0 M4.8 8.1 L4.4 8.85 3.6 6.6 4.0 7.2 3.3 4.8 2.65 4.35 1.2 2.9 1.25 2.8 Q2.9 3.7 5.5 3.7 L6.15 3.85 6.1 4.35 Q5.25 5.2 5.0 5.8 L4.8 7.95 4.8 8.1 M5.45 4.5 L5.45 4.2 Q4.95 4.5 5.45 4.5 M1.05 5.9 L1.05 5.85 1.1 5.85 1.05 5.9 M-2.45 8.0 L-2.05 8.55 Q-1.4 9.3 -1.0 9.3 -0.5 9.3 0.15 8.75 L0.8 7.85 1.1 7.8 1.85 10.0 Q-0.25 8.85 -0.8 9.5 L-1.55 9.25 Q-1.55 9.1 -2.15 9.45 L-3.4 10.3 -3.6 9.9 -2.5 8.0 -2.45 8.0 M-3.7 6.2 L-3.65 6.3 -3.75 6.2 -3.7 6.2 M0.15 10.25 L1.1 10.65 1.85 10.7 0.65 11.25 -3.3 10.7 0.15 10.25 M1.85 13.4 L0.85 14.2 -1.85 14.2 -2.25 13.3 -0.25 12.75 1.85 13.4 M-7.1 6.05 L-7.4 4.85 -7.45 4.5 -5.9 3.6 -5.3 3.6 -4.4 3.3 -4.75 3.55 -5.5 5.85 -5.75 6.35 -5.15 8.55 -4.5 7.45 -4.55 9.3 Q-4.45 10.3 -4.5 11.4 L-5.0 10.7 Q-5.25 8.95 -6.5 7.0 L-7.1 6.05 M-1.4 3.25 L-1.1 2.65 Q-0.2 4.15 -0.2 6.0 L-0.25 6.9 -1.65 6.95 -1.9 6.75 -2.05 6.45 -2.2 5.7 -1.4 3.25 M-6.95 2.0 L-7.0 2.1 -7.0 1.9 -6.95 2.0" fill="#e8ca86" fill-rule="evenodd" stroke="none"/>
    <path d="M-6.5 17.1 Q-12.9 12.45 -11.8 4.95 L-11.05 1.25 -12.35 4.5 -12.5 4.55 Q-11.7 -2.15 -7.65 -7.85 L-2.9 -13.85 -3.1 -14.35 -3.35 -14.3 -3.7 -14.15 -4.55 -13.35 -5.85 -13.35 -4.3 -14.85 Q-9.05 -12.65 -11.1 -7.75 L-11.6 -7.95 Q-9.45 -14.45 -3.0 -17.05 L-0.25 -18.1 Q4.2 -17.35 7.9 -14.8 L2.95 -16.7 3.6 -15.65 5.75 -13.05 2.85 -15.05 3.35 -13.65 0.85 -15.55 -0.45 -16.15 Q5.5 -9.3 10.05 -1.25 13.55 4.95 11.05 11.75 L12.2 10.45 12.25 10.45 Q11.85 13.35 9.25 14.75 L7.95 15.35 6.65 15.8 6.6 15.7 6.8 15.5 11.0 11.75 11.05 11.75 11.0 11.75 Q11.95 8.0 10.55 4.25 8.7 -0.85 5.75 -5.45 L-1.3 -15.7 -2.85 -13.2 Q-6.8 -7.05 -9.75 -0.25 L-11.55 9.5 -6.45 16.5 -6.5 17.1 M13.5 2.15 L8.2 -10.3 8.3 -10.35 Q10.6 -6.5 12.5 -2.7 L13.5 -0.3 13.7 2.65 13.5 2.15 M10.0 9.65 L9.55 10.55 Q8.4 13.0 6.15 14.9 L4.15 15.3 6.7 13.7 10.0 9.65 M-8.05 17.65 L-8.6 17.3 Q-10.8 16.35 -12.4 14.7 L-6.9 17.6 -8.05 17.65" fill="#557780" fill-rule="evenodd" stroke="none"/>
  </g>
</svg>
