<?xml version="1.0" encoding="UTF-8" standalone="no"?>
<svg xmlns:xlink="http://www.w3.org/1999/xlink" height="25.35px" width="26.9px" xmlns="http://www.w3.org/2000/svg">
  <g transform="matrix(1.0, 0.0, 0.0, 1.0, 13.9, 8.25)">
    <path d="M0.2 5.5 L0.2 6.25 0.0 6.4 -0.1 6.25 0.0 5.4 0.1 5.4 0.2 5.5 M1.0 5.6 L1.15 5.95 1.15 5.9 1.2 5.9 Q2.25 6.95 2.6 7.85 L2.55 7.9 1.75 7.15 1.35 6.65 1.4 6.95 Q1.15 6.8 1.05 6.3 L0.8 5.65 1.0 5.6 M1.7 5.9 Q2.45 6.6 2.6 7.3 L2.55 7.4 Q2.1 7.0 1.6 5.9 L1.7 5.9 M2.55 5.6 L4.1 8.15 4.05 8.25 3.5 7.65 3.45 7.6 3.0 6.9 2.45 5.6 2.55 5.6 M3.4 7.6 L3.45 7.7 5.5 10.65 5.0 10.25 3.6 8.45 3.4 7.6 M-6.15 13.9 L-7.85 16.25 Q-7.3 14.75 -6.3 13.7 L-6.15 13.9 M5.95 7.5 Q7.1 8.95 7.25 11.05 L6.3 9.5 6.65 11.0 6.05 10.25 Q5.15 9.0 4.85 7.3 L6.2 9.25 5.45 7.2 5.95 7.6 5.95 7.5 M6.45 7.3 L6.65 7.75 5.3 5.95 6.45 7.3 M-3.85 5.5 Q-4.55 6.1 -4.8 6.1 L-4.9 6.1 -6.75 7.15 Q-7.2 7.5 -7.8 7.7 L-8.3 7.55 Q-7.3 6.35 -6.05 6.0 L-6.25 6.5 -6.25 6.55 -6.35 6.65 -6.2 6.55 -4.85 5.55 Q-3.35 4.45 -2.3 4.45 L-3.15 4.95 -3.85 5.5 M-3.95 4.35 L-4.5 5.1 -4.9 5.45 -5.85 5.8 -4.95 5.0 Q-4.25 4.35 -3.95 4.35 M-1.85 5.4 L-2.75 5.95 Q-1.8 4.85 -1.55 4.85 L-1.85 5.4 M-6.95 4.65 L-7.15 5.55 -7.85 6.2 Q-8.9 7.45 -10.0 7.05 L-6.95 4.65" fill="#463731" fill-rule="evenodd" stroke="none"/>
    <path d="M5.95 -7.6 L6.75 -7.8 Q9.65 -8.4 9.75 -5.9 L10.15 -5.5 10.1 -5.2 9.7 -5.1 9.65 -5.1 9.5 -4.8 9.65 -3.95 9.4 -3.7 9.15 -3.8 9.1 -3.6 8.85 -3.5 9.5 -2.8 11.2 -0.45 Q11.2 0.05 10.85 0.05 L9.25 -1.6 7.9 -3.1 7.85 -3.1 6.05 -2.95 5.65 -3.05 5.0 -3.1 4.85 -3.05 Q4.65 -3.15 4.35 -3.4 L4.1 -3.6 3.8 -4.0 3.75 -4.1 3.15 -4.75 Q3.35 -3.1 3.1 -1.85 4.1 -1.95 5.05 0.35 5.05 2.45 3.9 4.4 L3.4 3.3 3.4 3.25 3.4 3.3 2.65 3.55 Q1.9 3.55 1.9 2.7 L2.05 1.95 3.0 1.85 3.35 2.0 3.6 1.3 3.9 0.2 3.35 0.05 Q2.8 0.05 2.65 0.4 L2.25 0.9 Q1.8 0.55 1.8 -0.25 L1.85 -0.65 1.1 -0.65 -0.25 -0.7 -0.5 -0.9 -0.4 -1.25 1.85 -1.55 1.95 -1.55 1.95 -1.75 Q0.45 -1.9 0.1 -3.0 L0.5 -3.1 Q0.35 -3.2 0.3 -3.25 0.15 -3.45 0.15 -3.75 L0.2 -4.1 1.05 -4.0 1.05 -5.1 1.9 -5.15 2.4 -5.55 2.6 -5.35 Q2.95 -5.75 3.15 -5.0 3.2 -5.35 3.75 -5.95 L3.7 -5.95 3.6 -6.2 Q3.6 -6.6 4.65 -7.0 L5.7 -8.0 5.95 -7.6 M11.25 -5.1 L11.75 -5.7 12.05 -6.75 Q13.3 -7.0 12.9 -5.2 12.9 -3.55 12.5 -3.55 L12.45 -3.55 12.45 -3.45 Q12.45 -3.0 11.9 -3.0 L11.25 -3.15 12.8 -1.1 12.75 -0.75 12.45 -0.65 11.05 -1.9 9.7 -3.35 Q10.0 -4.4 11.2 -3.15 L11.25 -3.15 11.1 -3.6 11.1 -4.15 12.05 -3.95 12.1 -3.95 12.05 -4.1 11.85 -4.65 11.5 -4.4 Q11.2 -4.4 11.1 -4.6 L10.9 -5.0 10.9 -5.2 Q11.15 -5.35 11.25 -5.1 M6.45 2.35 L6.85 4.65 6.8 5.05 6.5 5.2 Q5.95 5.2 5.55 3.2 L5.3 1.2 Q5.3 0.65 5.95 0.15 L6.45 2.35 M2.9 2.65 L2.45 2.9 Q2.6 3.1 3.15 2.75 L2.9 2.65 M0.5 8.35 L0.75 9.25 0.55 9.35 0.4 8.35 0.5 8.35 M-3.35 11.45 L-3.6 11.4 -5.75 10.25 Q-5.75 9.85 -4.85 9.7 L-3.6 9.55 -2.35 9.75 Q-1.25 9.9 -0.35 10.3 L0.75 11.05 1.6 11.8 Q1.6 12.2 0.75 12.2 L0.2 12.2 -1.85 12.0 -3.35 11.45 M-12.6 -6.7 L-12.6 -7.35 -12.45 -7.3 -11.85 -7.4 -10.75 -7.75 -10.9 -8.05 -10.85 -8.25 -9.6 -8.05 -9.85 -7.65 -10.1 -7.3 -10.25 -7.15 Q-9.95 -6.95 -9.65 -6.05 L-9.35 -5.9 -9.25 -5.85 -7.6 -6.2 -8.25 -5.75 -7.25 -5.75 -7.2 -5.4 -5.9 -5.65 Q-6.0 -5.1 -7.1 -4.65 L-7.45 -4.5 -6.9 -4.25 Q-6.75 -4.55 -6.15 -4.5 -5.45 -4.4 -5.35 -3.8 L-3.65 -4.8 -3.55 -4.4 -3.65 -4.15 Q-3.3 -4.5 -2.9 -4.5 L-2.6 -4.75 -2.25 -5.1 Q-1.85 -5.1 -1.85 -4.55 L-0.75 -6.2 Q-0.25 -6.85 -0.25 -5.65 -0.25 -5.1 -0.95 -3.8 -1.7 -2.4 -1.7 -0.75 -1.7 -0.3 -2.05 -0.3 -2.5 -0.3 -2.75 -0.6 L-3.4 -1.2 -3.8 -0.85 -3.7 -0.25 -3.7 -0.2 -3.7 -0.05 -3.85 0.3 -4.0 0.45 -4.05 0.5 -3.75 1.05 -4.45 2.45 -5.3 3.9 -5.7 3.25 -5.6 2.65 -6.6 3.85 Q-6.9 4.2 -7.7 4.2 -8.5 4.2 -8.4 3.45 -8.4 2.7 -6.05 0.35 -4.85 -0.8 -4.3 -1.0 L-4.15 -1.4 -4.15 -2.55 -3.9 -3.7 -3.85 -3.75 -3.9 -3.75 -3.9 -3.7 -4.8 -2.95 Q-6.8 -1.4 -9.0 2.8 L-9.25 2.8 -9.25 2.9 -9.3 2.8 -9.4 2.8 -9.5 2.5 -9.5 2.4 -9.55 2.1 -9.6 2.05 -9.7 1.6 -10.1 2.0 -10.7 1.7 Q-10.85 2.25 -11.1 2.25 -11.6 2.25 -13.9 -1.8 L-13.9 -2.0 -13.6 -2.4 -13.9 -3.1 -13.9 -3.6 -13.6 -3.8 -13.65 -3.85 -13.65 -4.0 -13.15 -4.2 -13.15 -4.25 -12.6 -4.8 Q-12.35 -5.05 -12.25 -5.4 L-12.3 -5.45 -12.4 -5.8 -12.15 -6.1 -12.15 -6.2 -12.05 -6.15 -11.85 -6.3 Q-12.1 -6.6 -12.6 -6.7 M-10.4 -4.3 L-10.4 -4.2 -10.25 -4.25 -10.4 -4.3 M-12.9 -3.55 L-12.85 -3.75 -13.15 -3.7 -13.25 -3.7 -13.05 -3.55 -12.9 -3.55 M-11.0 -2.3 L-9.65 -0.3 Q-9.6 -1.4 -9.2 -1.65 L-9.5 -1.75 -9.3 -1.9 -8.8 -1.9 -8.75 -1.45 -9.05 0.95 -9.05 1.05 -7.4 -1.6 -6.3 -2.85 -6.6 -3.15 -6.65 -3.15 -9.05 -3.9 -10.75 -3.15 -10.85 -2.8 -11.0 -2.3 M-1.25 7.7 Q-1.95 9.35 -2.35 9.55 L-2.5 9.3 -2.05 8.45 Q-1.65 7.8 -1.25 7.7 M-0.4 9.0 L-0.65 9.5 -0.95 9.35 Q-0.95 7.95 -0.35 7.8 -0.2 7.95 -0.2 8.3 L-0.4 9.0 M-2.3 8.25 L-3.05 8.95 -3.25 8.6 Q-3.25 8.35 -2.65 7.85 -2.0 7.4 -1.7 7.45 L-2.3 8.25 M-4.4 8.5 L-4.6 8.35 Q-4.45 8.1 -3.75 7.75 L-2.95 7.3 -2.85 7.5 -3.45 8.1 -4.4 8.5" fill="#000000" fill-rule="evenodd" stroke="none"/>
    <path d="M0.2 12.2 Q1.65 13.2 2.55 14.75 L3.1 15.75 0.85 13.25 Q1.75 14.5 1.85 16.05 L1.8 17.1 0.9 15.65 0.9 15.85 0.9 15.95 0.1 15.4 -0.1 16.0 -1.25 12.65 -1.15 15.3 -1.8 13.8 -2.25 14.5 -2.35 13.9 -3.0 15.4 -3.3 14.2 -3.95 14.8 -5.35 16.3 -4.45 13.95 -5.5 14.05 -6.5 14.85 -6.15 13.9 -6.3 13.7 -4.6 12.25 Q-4.1 11.85 -3.5 11.6 L-3.35 11.45 -1.85 12.0 0.2 12.2" fill="url(#gradient0)" fill-rule="evenodd" stroke="none"/>
  </g>
  <defs>
    <linearGradient gradientTransform="matrix(-2.0E-4, 0.0037, -0.0059, -5.0E-4, -1.7, 15.35)" gradientUnits="userSpaceOnUse" id="gradient0" spreadMethod="pad" x1="-819.2" x2="819.2">
      <stop offset="0.0" stop-color="#453729"/>
      <stop offset="0.9137254901960784" stop-color="#000000"/>
    </linearGradient>
  </defs>
</svg>
