<?xml version="1.0" encoding="UTF-8" standalone="no"?>
<svg xmlns:xlink="http://www.w3.org/1999/xlink" height="36.85px" width="27.0px" xmlns="http://www.w3.org/2000/svg">
  <g transform="matrix(1.0, 0.0, 0.0, 1.0, 13.55, 18.85)">
    <path d="M13.45 -16.8 L13.1 -16.8 13.1 17.9 -13.55 17.9 -13.55 -18.85 -12.7 -18.85 -12.7 -18.7 13.45 -18.7 13.45 -16.8" fill="#000000" fill-rule="evenodd" stroke="none"/>
    <path d="M-10.5 -12.1 L-10.8 -12.95 Q-10.8 -14.05 -9.35 -14.35 L-4.55 -14.55 Q-3.1 -14.55 -2.9 -15.4 -2.8 -15.8 -3.0 -16.25 -3.0 -16.8 -2.55 -16.95 L2.0 -17.25 Q6.25 -17.25 8.9 -13.85 10.85 -11.45 10.85 -9.75 L10.65 -9.0 11.35 -8.1 11.1 -7.75 9.6 -8.9 Q9.0 -9.05 8.4 -9.45 L8.05 -9.7 5.9 -9.85 3.6 -9.2 2.35 -8.85 1.8 -8.95 2.1 -9.35 1.55 -9.35 -4.95 -9.8 Q-5.65 -10.25 -6.95 -10.25 -9.05 -10.25 -10.1 -11.5 L-10.45 -12.0 -10.5 -12.1 M8.85 -11.45 L8.9 -11.55 8.25 -12.35 8.25 -12.3 8.85 -11.45 M2.3 1.9 L2.0 0.65 Q2.0 0.1 2.75 0.15 3.55 0.15 3.8 0.8 L4.05 2.55 3.9 4.2 Q3.55 5.4 2.35 5.4 L1.95 5.25 1.85 5.3 1.15 4.8 1.0 5.1 Q0.55 5.55 -0.3 5.55 -1.65 5.55 -1.7 3.7 L-1.7 3.6 Q-1.7 2.9 -1.1 2.9 -0.45 2.9 -0.25 3.5 L0.0 4.4 Q0.7 4.35 0.7 3.9 L0.65 3.15 1.25 3.0 Q2.0 3.0 2.25 3.55 L2.3 3.65 2.85 3.5 2.95 3.45 2.35 2.15 2.3 1.9 M-0.9 7.6 L-0.8 7.8 -0.6 8.3 -0.95 8.55 -0.8 8.55 Q-0.05 8.55 0.6 8.0 L0.7 7.7 2.5 7.85 Q2.1 8.3 0.95 8.45 L0.85 8.45 0.8 8.6 1.5 8.55 1.6 8.5 1.65 8.75 1.4 9.2 1.15 9.35 0.3 9.75 -1.5 9.45 -1.55 9.25 -1.8 8.6 -0.95 8.55 -2.1 7.55 -0.9 7.6 M0.75 7.55 L1.1 7.15 1.3 7.0 2.2 6.3 2.5 6.55 2.8 7.2 2.8 7.45 0.75 7.55 M-2.95 6.75 L-3.05 6.55 -3.2 6.25 -3.2 5.7 Q-2.1 5.7 -1.5 6.65 L-1.15 7.2 -2.95 6.75" fill="#000000" fill-rule="evenodd" stroke="none"/>
    <path d="M-10.05 -6.55 L-10.0 -6.6 -9.9 -6.5 -10.05 -6.55 M-3.2 4.25 L-3.2 4.3 -3.25 4.35 -3.2 4.25" fill="#ffffff" fill-rule="evenodd" stroke="none"/>
    <path d="M-10.45 -12.0 L-10.65 -12.0 -10.5 -12.1 -10.45 -12.0 M-1.7 3.7 L-1.9 3.5 -2.4 3.05 Q-1.4 1.2 -1.4 0.45 L-1.45 0.1 Q-0.8 0.1 0.05 0.6 L1.2 1.2 Q0.9 1.65 0.95 1.85 L1.65 2.4 2.3 1.9 2.35 2.15 2.95 3.45 2.85 3.5 2.3 3.65 2.25 3.55 Q2.0 3.0 1.25 3.0 L0.65 3.15 0.7 3.9 Q0.7 4.35 0.0 4.4 L-0.25 3.5 Q-0.45 2.9 -1.1 2.9 -1.7 2.9 -1.7 3.6 L-1.7 3.7 M-6.85 1.3 L-6.9 1.3 -7.0 1.2 -6.85 1.3 M-1.15 7.2 L-0.95 7.3 -0.9 7.6 -2.1 7.55 -2.25 7.6 -2.4 7.55 -3.65 7.35 -3.8 7.45 -3.5 6.7 -3.25 6.7 -2.95 6.75 -1.15 7.2 M0.7 7.7 L0.4 7.6 0.75 7.55 2.8 7.45 3.4 7.35 4.65 7.35 4.95 8.0 5.35 8.8 4.95 8.65 Q4.15 8.15 2.5 7.85 L0.7 7.7 M-4.65 9.3 L-4.6 9.35 -3.1 10.8 -2.95 11.0 -3.7 11.05 -4.0 11.05 -4.65 10.3 -4.65 9.3 M0.9 13.65 L1.1 13.65 0.9 13.7 0.9 13.65 M5.55 12.05 L5.95 11.85 5.95 11.75 5.55 12.05" fill="#cfb75a" fill-rule="evenodd" stroke="none"/>
    <path d="M0.9 13.7 L2.9 14.55 Q1.55 15.85 -0.2 15.7 L-1.7 15.0 -1.75 14.7 -1.7 14.3 -1.55 14.0 0.9 13.65 0.9 13.7" fill="url(#gradient0)" fill-rule="evenodd" stroke="none"/>
    <path d="M1.4 9.2 L3.25 9.15 Q4.55 9.1 4.75 9.55 L3.4 9.8 1.05 10.35 Q-1.25 10.8 -2.95 9.75 L-3.9 9.1 -4.0 9.0 -3.25 9.1 -2.8 9.15 -2.6 9.15 -2.1 9.25 -1.7 9.25 -1.55 9.25 -1.5 9.45 0.3 9.75 1.15 9.35 1.4 9.2" fill="#794028" fill-rule="evenodd" stroke="none"/>
    <path d="M5.4 -13.95 Q3.45 -12.0 0.45 -12.0 -1.5 -12.0 -3.5 -16.05 L-3.2 -18.7 5.65 -18.7 6.9 -16.95 Q6.9 -15.5 5.4 -13.95 M8.2 -18.7 L9.45 -18.7 9.45 -18.5 Q9.45 -15.6 8.25 -13.3 6.15 -9.3 0.95 -9.3 -3.7 -9.3 -5.45 -13.1 -6.3 -15.05 -6.3 -17.65 L-6.4 -18.7 -5.55 -18.7 Q-5.5 -16.5 -4.5 -14.3 -2.8 -10.55 0.95 -10.55 5.35 -10.55 7.2 -14.2 8.25 -16.3 8.25 -18.5 L8.2 -18.7" fill="url(#gradient1)" fill-rule="evenodd" stroke="none"/>
    <path d="M-2.0 1.45 L-1.9 1.35 -1.95 1.5 -2.0 1.45 M1.65 -1.6 L1.6 -1.6 1.6 -1.65 1.65 -1.6 M7.9 1.0 L8.05 1.0 8.05 1.1 7.9 1.0 M-10.2 0.1 L-9.6 0.3 -10.2 0.3 -10.2 0.1" fill="#cfb75a" fill-rule="evenodd" stroke="none"/>
    <path d="M-1.9 1.35 L-1.9 1.25 -1.95 0.95 Q-1.95 -1.15 -1.45 -1.95 L-1.3 -2.85 Q-0.85 -4.8 0.2 -5.45 L0.5 -5.4 0.6 -5.1 0.3 -2.95 0.2 -2.7 0.2 -2.45 0.15 -1.5 -0.05 -1.5 -0.1 -1.85 -0.35 -1.25 -0.35 -1.2 -0.4 -1.2 -0.7 -0.6 -0.65 -0.6 -0.4 -0.8 -0.4 -0.65 -1.35 0.55 Q-1.35 1.8 -1.0 2.45 -0.65 2.5 -0.45 3.0 L-0.2 3.0 Q0.45 3.0 0.9 2.6 L0.9 2.4 1.15 2.3 Q1.7 1.5 1.7 -0.3 L1.65 -1.6 1.65 -1.75 1.6 -1.65 1.6 -1.6 1.25 -0.75 1.2 -0.75 Q1.05 -0.95 1.05 -1.35 1.05 -2.05 1.3 -2.5 L1.4 -2.6 1.5 -2.8 1.4 -3.65 Q1.4 -4.0 1.7 -3.95 L1.95 -3.65 2.25 -4.35 Q2.85 -5.65 2.85 -4.1 L2.45 -0.7 2.8 0.7 Q3.5 0.8 3.75 1.3 L3.9 2.25 3.85 2.7 4.2 2.4 4.4 3.0 4.35 3.6 3.75 3.75 Q3.6 4.0 3.6 3.6 L3.7 3.05 3.65 3.1 3.5 3.3 3.15 3.6 Q2.35 4.2 1.3 4.2 L1.0 4.15 Q0.4 5.1 -0.4 5.1 -1.15 5.1 -1.25 4.2 -2.65 3.95 -3.45 2.45 L-2.85 2.55 -2.65 2.65 -1.95 3.15 -1.85 2.7 -1.95 1.5 -1.9 1.35 M0.65 -3.05 L0.75 -3.6 0.95 -3.6 1.05 -3.2 1.0 -2.85 0.8 -1.7 0.6 -1.65 0.5 -2.25 0.65 -3.05 M11.1 1.75 L11.75 1.85 11.85 1.95 11.9 2.25 11.05 3.0 11.55 3.75 11.45 3.9 10.7 3.3 9.2 4.6 9.2 4.65 9.05 5.4 9.45 6.15 9.5 7.45 9.6 8.05 9.5 8.55 9.5 8.7 9.3 9.6 9.2 9.5 9.2 9.65 9.0 10.15 8.55 10.4 8.25 10.05 8.55 9.4 8.15 8.45 7.95 8.55 8.1 9.05 7.95 10.05 7.65 10.25 Q6.65 9.1 6.4 6.25 L6.05 5.9 Q5.3 5.8 5.1 5.4 L5.4 5.15 4.4 4.2 4.4 4.1 Q5.05 4.05 5.95 4.85 L6.0 4.8 6.6 4.55 6.85 4.5 7.1 4.6 7.35 4.95 7.5 4.9 7.6 4.7 7.5 4.25 7.9 4.7 8.15 4.5 7.4 3.65 7.35 3.0 7.85 2.9 8.2 3.1 8.4 3.45 Q8.9 2.95 9.4 2.6 L8.9 2.4 6.05 1.35 5.7 1.2 5.7 1.0 Q5.7 0.05 7.9 1.0 L8.05 1.1 8.3 1.2 9.8 2.0 9.2 3.45 9.6 3.5 10.95 2.35 11.1 1.75 M2.2 2.8 L2.4 3.05 3.0 2.7 3.3 2.25 3.15 1.7 2.9 1.4 2.65 1.25 2.35 2.2 2.1 2.65 2.1 2.7 2.2 2.8 M1.75 6.75 Q6.45 7.0 6.45 8.55 L6.3 9.0 6.05 9.05 5.4 8.95 5.05 9.85 4.75 10.35 5.85 10.05 6.3 10.55 6.2 10.95 6.6 10.95 6.65 11.5 6.3 12.5 Q5.75 13.2 4.7 13.2 L4.5 13.2 4.65 12.8 Q4.65 12.25 2.75 12.05 L2.6 11.95 2.75 11.55 1.8 11.8 0.9 11.95 0.2 11.95 -1.15 12.0 Q-3.0 11.8 -4.35 11.1 -5.75 10.4 -5.75 9.8 -5.75 8.25 -3.65 9.45 L-3.2 9.7 -2.45 9.15 -1.8 8.85 -2.15 9.5 -3.05 9.8 -1.5 10.95 -0.2 10.95 -1.95 10.55 -2.15 10.1 -0.95 10.05 1.75 10.5 2.4 10.8 3.75 10.6 3.75 10.25 Q3.75 9.65 4.0 9.35 L4.65 8.8 3.9 8.65 1.4 8.25 -2.25 8.6 -3.0 8.6 -3.15 8.2 -2.9 7.85 -2.85 7.8 -3.45 7.85 -3.45 8.05 Q-3.45 8.55 -3.75 8.85 L-4.0 8.85 Q-4.5 8.85 -4.5 8.05 L-4.45 7.85 -5.7 7.8 -5.85 7.35 Q-5.85 6.75 -2.05 6.7 L-0.9 6.7 0.3 6.7 0.6 6.7 1.75 6.75 M2.7 8.85 L2.85 8.85 Q3.3 9.05 3.3 9.6 L3.15 9.8 2.6 9.05 2.7 8.85 M0.65 8.7 Q1.3 9.05 1.4 9.3 L1.35 9.65 1.2 9.75 0.85 9.5 0.45 8.9 0.65 8.7 M2.15 9.65 L1.85 9.6 1.55 9.3 1.7 9.0 2.25 9.3 2.15 9.65 M-10.1 -0.55 L-9.9 -0.5 -9.05 0.0 -9.0 0.0 -9.55 0.3 -9.05 0.3 -9.0 0.6 -9.6 0.95 -10.15 0.95 -10.85 0.95 -10.95 0.35 -10.65 0.3 -10.2 0.3 -9.6 0.3 -10.2 0.1 -10.8 -0.75 -10.1 -0.55 M-9.85 1.4 L-9.6 1.4 -8.4 1.1 Q-8.3 0.9 -8.3 1.3 -8.3 1.55 -8.95 2.0 L-9.15 2.1 -8.75 2.15 -8.55 2.25 -8.55 2.3 -9.2 2.45 -9.3 2.25 -9.15 2.1 -10.05 2.1 -10.1 1.75 -10.05 1.35 -9.85 1.4 M-8.35 2.4 L-7.2 1.15 -6.65 0.65 -7.05 0.65 Q-8.3 0.65 -9.15 -0.65 L-9.9 -2.15 -9.3 -3.35 -9.3 -2.95 Q-9.3 -1.95 -8.4 -1.1 L-7.85 -0.7 -6.95 -0.25 -5.85 0.0 -4.85 -0.5 Q-4.65 -0.5 -4.65 -0.15 L-4.7 0.0 -4.65 0.25 -5.35 1.15 -5.95 1.7 -7.15 2.85 -8.0 3.6 Q-8.25 3.75 -8.25 3.45 L-8.3 3.45 -8.6 3.3 -8.7 3.1 -8.35 2.4 M-6.0 3.5 L-6.0 3.45 -5.45 3.9 Q-5.85 4.8 -6.6 4.8 -7.55 4.8 -7.55 4.15 -7.55 3.65 -7.2 3.3 L-6.6 2.85 Q-6.35 3.35 -6.6 3.75 L-6.6 3.9 -6.0 3.5 M-0.7 9.0 L-0.75 8.85 -0.6 8.85 -0.2 9.75 -0.35 9.8 -0.65 9.25 -0.65 9.6 -0.95 9.8 -1.1 9.65 -0.95 9.0 -0.7 9.0 M-1.7 9.35 Q-1.7 8.9 -1.25 8.7 L-1.65 9.65 -1.7 9.35" fill="#000000" fill-rule="evenodd" stroke="none"/>
    <path d="M-13.55 17.9 L-13.55 3.05 Q-6.7 13.0 -2.45 17.9 L-13.55 17.9" fill="url(#gradient2)" fill-rule="evenodd" stroke="none"/>
    <path d="M0.3 -2.95 L0.3 -3.0 0.65 -3.05 0.5 -2.25 0.6 -1.65 0.8 -1.7 1.0 -2.85 1.4 -2.6 1.3 -2.5 Q1.05 -2.05 1.05 -1.35 1.05 -0.95 1.2 -0.75 L1.25 -0.75 1.6 -1.6 1.65 -1.6 1.7 -0.3 Q1.7 1.5 1.15 2.3 L0.9 2.4 0.9 2.6 Q0.45 3.0 -0.2 3.0 L-0.45 3.0 Q-0.65 2.5 -1.0 2.45 -1.35 1.8 -1.35 0.55 L-0.4 -0.65 -0.4 -0.8 -0.65 -0.6 -0.7 -0.6 -0.4 -1.2 -0.35 -1.2 -0.35 -1.25 -0.1 -1.85 -0.05 -1.5 0.15 -1.5 0.2 -2.45 0.2 -2.7 0.3 -2.95 M-2.85 2.55 L-2.9 2.4 -2.0 1.45 -1.95 1.5 -1.85 2.7 -1.95 3.15 -2.65 2.65 -2.85 2.55 M8.05 1.0 L9.2 1.0 9.25 0.95 Q9.6 0.8 9.8 1.1 L9.95 1.1 10.05 0.0 Q10.45 0.0 10.8 0.4 L11.1 1.1 11.1 1.75 10.95 2.35 9.6 3.5 9.2 3.45 9.8 2.0 8.3 1.2 8.05 1.1 8.05 1.0 M6.6 4.55 L6.5 3.8 6.5 3.7 6.15 3.0 5.7 1.8 Q5.7 1.55 6.05 1.35 L8.9 2.4 9.4 2.6 Q8.9 2.95 8.4 3.45 L8.2 3.1 7.85 2.9 7.35 3.0 7.4 3.65 8.15 4.5 7.9 4.7 7.5 4.25 7.6 4.7 7.5 4.9 7.35 4.95 7.1 4.6 6.85 4.5 6.6 4.55 M2.35 2.2 L2.65 1.25 2.9 1.4 3.15 1.7 3.3 2.25 3.0 2.7 2.4 3.05 2.2 2.8 Q2.25 2.45 2.45 2.25 L2.35 2.2 M0.55 2.0 L0.45 1.5 -0.2 1.5 -0.25 1.7 0.0 2.1 0.55 2.0 M-2.05 6.7 L-2.1 6.55 Q-2.1 5.35 -1.5 5.45 -0.9 5.5 -0.9 6.7 L-2.05 6.7 M0.6 6.7 L0.6 6.6 Q0.6 5.25 1.2 5.85 L1.75 6.75 0.6 6.7 M-10.15 0.95 L-9.6 0.95 -9.0 0.6 -9.05 0.3 -9.55 0.3 -9.0 0.0 -9.05 0.0 -9.9 -0.5 -10.1 -0.55 -10.1 -0.6 -9.15 -0.65 Q-8.3 0.65 -7.05 0.65 L-6.65 0.65 -7.2 1.15 -8.35 2.4 -8.55 2.3 -8.55 2.25 -8.75 2.15 -8.95 2.0 Q-8.3 1.55 -8.3 1.3 -8.3 0.9 -8.4 1.1 L-9.6 1.4 -9.85 1.4 -10.05 1.2 -10.15 0.95 M-5.35 1.15 L-5.3 1.5 -5.55 2.0 -6.0 3.4 -6.0 3.5 -6.6 3.9 -6.6 3.75 Q-6.35 3.35 -6.6 2.85 L-7.2 3.3 -7.15 2.85 -5.95 1.7 -5.35 1.15 M-8.65 0.55 L-8.9 0.4 -8.8 0.6 -8.65 0.55" fill="url(#gradient3)" fill-rule="evenodd" stroke="none"/>
    <path d="M13.1 17.9 L3.5 18.0 Q11.5 9.1 13.1 6.25 L13.1 17.9" fill="url(#gradient4)" fill-rule="evenodd" stroke="none"/>
  </g>
  <defs>
    <radialGradient cx="0" cy="0" gradientTransform="matrix(0.0042, 0.0, 0.0, 0.0042, 0.25, 12.5)" gradientUnits="userSpaceOnUse" id="gradient0" r="819.2" spreadMethod="pad">
      <stop offset="0.1607843137254902" stop-color="#c0a072"/>
      <stop offset="0.8313725490196079" stop-color="#000000"/>
    </radialGradient>
    <radialGradient cx="0" cy="0" gradientTransform="matrix(0.0273, 0.0, 0.0, 0.0273, 2.25, 2.1)" gradientUnits="userSpaceOnUse" id="gradient1" r="819.2" spreadMethod="pad">
      <stop offset="0.2823529411764706" stop-color="#24879f"/>
      <stop offset="0.8313725490196079" stop-color="#000000"/>
    </radialGradient>
    <radialGradient cx="0" cy="0" gradientTransform="matrix(0.0303, 0.0, 0.0, 0.0303, 3.4, -0.25)" gradientUnits="userSpaceOnUse" id="gradient2" r="819.2" spreadMethod="pad">
      <stop offset="0.23529411764705882" stop-color="#25afd1"/>
      <stop offset="0.7529411764705882" stop-color="#000000"/>
    </radialGradient>
    <radialGradient cx="0" cy="0" gradientTransform="matrix(0.0143, 0.0, 0.0, 0.0143, 0.15, 2.05)" gradientUnits="userSpaceOnUse" id="gradient3" r="819.2" spreadMethod="pad">
      <stop offset="0.1607843137254902" stop-color="#c0a072"/>
      <stop offset="0.8313725490196079" stop-color="#000000"/>
    </radialGradient>
    <radialGradient cx="0" cy="0" gradientTransform="matrix(0.0206, 0.0, 0.0, 0.0206, 0.25, 6.0)" gradientUnits="userSpaceOnUse" id="gradient4" r="819.2" spreadMethod="pad">
      <stop offset="0.23529411764705882" stop-color="#25afd1"/>
      <stop offset="0.7529411764705882" stop-color="#000000"/>
    </radialGradient>
  </defs>
</svg>
