<?xml version="1.0" encoding="UTF-8" standalone="no"?>
<svg xmlns:xlink="http://www.w3.org/1999/xlink" height="37.15px" width="27.0px" xmlns="http://www.w3.org/2000/svg">
  <g transform="matrix(1.0, 0.0, 0.0, 1.0, 13.55, 18.85)">
    <path d="M13.45 -16.8 L13.1 -16.8 13.1 17.9 -13.55 17.9 -13.55 -18.85 -12.7 -18.85 -12.7 -18.7 13.45 -18.7 13.45 -16.8 M4.65 6.0 L4.75 5.65 4.5 5.0 Q2.75 5.9 2.75 6.3 L3.05 6.4 Q2.45 6.5 2.45 6.95 L6.0 8.1 6.2 8.25 6.3 8.15 6.25 8.1 6.3 7.95 5.8 7.45 5.75 7.4 6.0 7.3 6.05 7.05 Q6.05 6.75 5.05 6.55 L4.65 6.0 M-2.85 11.05 Q-3.4 11.45 -3.45 12.0 L-3.0 12.05 3.3 11.85 3.4 11.8 1.3 11.85 -2.35 11.2 -2.75 11.05 -3.4 10.8 -3.45 11.0 -3.0 11.05 -2.85 11.05 M4.75 9.7 Q3.6 8.75 0.6 9.1 -1.2 9.3 -2.2 9.7 L-1.0 10.0 0.1 10.35 4.75 9.7 M-1.65 -7.0 L-2.35 -7.15 Q-3.55 -6.75 -5.0 -4.95 L-4.95 -4.65 Q-4.5 -4.6 -3.05 -5.55 -1.65 -6.55 -1.65 -6.85 L-1.65 -7.0 M-5.1 -0.6 Q-5.1 -0.95 -5.25 -0.75 -6.65 0.4 -6.95 5.15 L-6.9 5.45 -6.75 5.45 -6.3 5.4 -5.1 -0.6" fill="#000000" fill-rule="evenodd" stroke="none"/>
    <path d="M4.65 6.0 L5.05 6.55 Q6.05 6.75 6.05 7.05 L6.0 7.3 5.75 7.4 5.8 7.45 6.3 7.95 6.25 8.1 6.3 8.15 6.2 8.25 6.0 8.1 2.45 6.95 Q2.45 6.5 3.05 6.4 L2.75 6.3 Q2.75 5.9 4.5 5.0 L4.75 5.65 4.65 6.0 M-2.85 11.05 L-3.0 11.05 -3.45 11.0 -3.4 10.8 -2.75 11.05 -2.85 11.05 M-1.65 -7.0 L-1.65 -6.85 Q-1.65 -6.55 -3.05 -5.55 -4.5 -4.6 -4.95 -4.65 L-5.0 -4.95 Q-3.55 -6.75 -2.35 -7.15 L-1.65 -7.0 M4.75 9.7 L0.1 10.35 -1.0 10.0 -2.2 9.7 Q-1.2 9.3 0.6 9.1 3.6 8.75 4.75 9.7 M-5.1 -0.6 L-6.3 5.4 -6.75 5.45 -6.9 5.45 -6.95 5.15 Q-6.65 0.4 -5.25 -0.75 -5.1 -0.95 -5.1 -0.6" fill="#ac9664" fill-rule="evenodd" stroke="none"/>
    <path d="M-8.45 -5.75 L-5.5 -5.6 Q-5.35 -6.3 -4.75 -6.65 -3.7 -7.2 -2.65 -7.25 -0.65 -9.1 1.85 -8.15 L3.0 -7.55 2.85 -6.35 1.35 -6.5 -0.1 -6.7 -1.0 -6.9 -1.15 -6.45 -0.55 -4.15 -0.4 -3.55 0.0 -1.35 -0.15 -0.55 -0.2 -0.35 -0.3 -0.2 -0.65 0.0 -1.05 1.75 -1.05 1.95 Q-0.95 2.55 -0.45 2.7 L0.65 2.75 0.65 2.7 0.5 1.8 Q1.25 1.5 1.5 2.3 L1.55 2.45 1.6 2.75 1.65 2.75 2.15 2.85 1.9 2.35 1.35 1.1 1.45 0.8 1.65 0.65 1.85 1.05 2.35 1.9 2.7 3.0 2.65 3.3 2.4 3.3 2.35 3.2 1.7 3.55 1.7 3.65 1.7 3.75 1.5 3.8 1.15 3.7 0.65 3.75 -1.1 3.3 -1.8 2.75 -1.75 1.65 -1.35 -0.55 -1.35 -0.65 -1.35 -1.0 -1.5 -0.9 -1.65 -0.9 -1.35 -1.45 -1.2 -2.75 -1.35 -4.9 -1.45 -5.9 Q-2.25 -4.65 -3.55 -3.75 L-4.85 -3.6 -5.05 -4.0 -5.25 -4.65 -5.25 -4.85 -5.1 -4.9 -5.4 -5.2 -6.2 -4.45 Q-7.55 -3.3 -8.3 -3.7 L-9.6 -4.25 -10.1 -3.85 -11.2 -2.8 -9.75 -2.1 -9.15 -3.3 -8.5 -1.85 -7.7 -2.7 -8.0 -1.45 -8.55 -1.65 Q-9.2 -1.55 -9.2 -1.0 L-9.2 -0.35 -8.0 0.15 -7.45 0.45 Q-6.15 1.25 -6.1 1.95 L-5.95 2.7 -5.85 2.8 Q-4.7 3.85 -4.7 4.5 -4.7 5.05 -5.4 5.35 L-5.35 5.55 -5.1 5.8 -5.1 5.9 -4.2 4.6 -4.8 3.05 -4.7 2.7 Q-4.4 2.75 -4.1 3.1 L-3.7 3.8 Q-4.0 3.9 -3.5 3.9 L-3.25 3.85 -4.35 2.7 Q-0.5 2.85 1.45 6.95 L2.4 8.65 2.1 9.15 1.95 9.2 -0.2 7.15 -0.65 7.9 -1.25 7.45 -1.65 6.8 -2.2 7.25 -2.85 6.55 -3.2 5.95 -3.3 5.85 -3.35 5.8 -4.0 6.0 -4.1 6.65 -3.85 7.75 -3.15 9.75 0.65 10.65 Q4.5 11.6 4.5 11.85 L3.5 12.6 1.55 13.2 1.4 13.2 1.05 13.35 1.45 13.95 1.5 14.05 1.8 14.7 1.8 15.05 1.35 15.2 1.0 15.2 Q-3.2 14.95 -7.1 9.95 -9.95 6.35 -10.25 4.1 L-10.25 2.7 -10.2 2.7 -10.65 1.95 -10.45 1.7 -10.25 1.45 -10.75 0.7 -11.25 -0.2 -11.15 -0.75 -10.4 -0.65 -9.4 -0.4 -9.6 -0.8 -10.0 -1.25 -10.2 -1.15 -11.3 -2.7 -11.55 -2.55 -11.6 -2.55 -11.3 -3.1 -10.05 -4.4 -11.6 -4.6 -12.35 -4.55 -12.4 -4.5 -12.45 -4.8 -11.65 -5.2 -10.8 -5.5 -8.45 -5.75 M0.25 16.85 L3.3 17.85 Q2.75 18.3 2.2 18.3 L-0.3 17.95 -3.45 17.6 -4.0 17.55 -4.2 18.05 -13.0 10.75 Q-12.9 7.1 -12.2 9.1 -11.55 11.05 -9.7 12.5 L-9.9 12.15 -9.6 12.25 -9.65 12.15 Q-10.05 10.8 -10.1 9.15 L-9.5 9.4 Q-13.3 -0.75 -11.05 3.7 -10.55 7.65 -7.85 12.4 L-6.9 12.95 -5.5 14.05 -4.05 14.9 0.25 16.85 M-11.65 -5.85 L-11.75 -5.85 -12.3 -6.0 -11.65 -6.35 -10.7 -6.6 -11.4 -6.65 -11.4 -7.1 -10.3 -7.0 -8.75 -6.75 -6.6 -6.3 -6.35 -6.05 -6.95 -6.05 -7.2 -6.0 -7.6 -6.05 -8.9 -6.15 -9.1 -6.15 -11.65 -5.85 M-11.45 -7.6 L-12.15 -7.65 -11.85 -8.2 -12.15 -8.45 Q-10.25 -10.05 -7.7 -9.2 L-7.5 -9.0 -9.0 -8.45 -7.2 -7.4 -9.6 -7.45 -11.45 -7.6 M-5.4 9.65 L-4.2 10.05 -4.3 9.85 -5.0 8.7 -5.7 9.4 -5.4 9.65 M-6.35 8.75 Q-6.7 8.75 -9.95 3.15 -8.75 6.85 -5.7 9.4 L-6.1 8.65 -6.35 8.75 M-13.05 13.05 Q-6.65 16.4 -4.8 17.9 L-4.85 18.1 -5.1 18.2 Q-5.75 18.2 -7.2 17.15 L-9.35 15.75 -11.4 14.5 -13.05 13.05 M-11.3 16.0 L-11.25 15.5 -10.05 16.1 -8.15 16.95 -8.0 17.25 -9.0 17.55 Q-10.2 17.55 -10.8 17.0 -11.3 16.6 -11.3 16.0 M-4.9 18.3 L-4.95 18.3 -5.0 18.3 -4.9 18.3 M4.7 6.95 L4.1 6.3 5.3 6.7 5.4 6.15 6.0 5.65 Q7.55 7.1 6.55 8.9 L5.85 10.25 Q4.95 9.25 5.05 7.9 L5.85 7.8 5.9 7.5 5.2 7.15 5.2 7.05 5.25 6.95 5.1 7.1 4.7 6.95" fill="#000000" fill-rule="evenodd" stroke="none"/>
    <path d="M1.35 -6.5 L1.85 1.05 1.65 0.65 1.45 0.8 1.35 1.1 1.9 2.35 1.55 2.45 1.5 2.3 Q1.25 1.5 0.5 1.8 L0.65 2.7 0.55 2.7 -1.05 1.95 -1.05 1.75 -0.65 0.0 -0.3 -0.2 -0.2 -0.2 -0.2 -0.35 -0.15 -0.55 0.0 -1.35 -0.4 -3.55 -0.3 -4.25 -0.1 -6.7 1.35 -6.5 M-1.75 1.65 L-3.3 0.9 -2.55 -0.9 -1.35 -0.55 -1.75 1.65 M-6.2 -4.45 L-5.9 -4.25 -6.15 -3.3 Q-6.45 -2.15 -7.1 -1.2 L-7.05 -1.0 -7.45 0.45 -8.0 0.15 -9.2 -0.35 -9.2 -1.0 Q-9.2 -1.55 -8.55 -1.65 L-8.0 -1.45 -7.7 -2.7 -8.5 -1.85 -9.15 -3.3 -9.75 -2.1 -11.2 -2.8 -10.1 -3.85 -9.6 -4.25 -8.3 -3.7 Q-7.55 -3.3 -6.2 -4.45 M-1.25 7.45 L-3.85 7.75 -4.1 6.65 -4.0 6.0 -3.35 5.8 -3.3 5.85 -3.4 5.9 -3.2 5.95 -2.85 6.55 -2.2 7.25 -1.65 6.8 -1.25 7.45 M-10.4 -0.65 L-10.2 -1.15 -10.0 -1.25 -9.6 -0.8 -9.4 -0.4 -10.4 -0.65 M-11.3 -3.1 L-11.45 -3.75 -11.6 -4.6 -10.05 -4.4 -11.3 -3.1 M-11.65 -5.2 L-11.65 -5.85 -9.1 -6.15 -8.45 -5.75 -10.8 -5.5 -11.65 -5.2 M-11.65 -6.35 L-11.45 -7.6 -9.6 -7.45 -10.3 -7.0 -11.4 -7.1 -11.4 -6.65 -10.7 -6.6 -11.65 -6.35 M9.55 -1.35 L8.6 -0.85 7.55 -3.1 10.65 -2.95 11.0 -3.2 11.4 -3.0 9.55 -1.35 M5.05 7.9 L5.0 7.9 Q3.65 7.9 2.9 6.8 L2.95 6.55 4.7 6.95 5.1 7.1 5.2 7.15 5.9 7.5 5.85 7.8 5.05 7.9" fill="#ac9664" fill-rule="evenodd" stroke="none"/>
    <path d="M1.45 13.95 L1.55 13.9 1.5 14.05 1.45 13.95 M11.6 4.7 Q11.3 11.05 7.6 15.75 7.0 16.55 6.0 16.95 5.05 17.5 4.05 17.25 9.25 15.95 9.7 10.35 9.9 7.8 10.4 5.2 L11.55 -0.9 11.8 0.9 11.6 4.7" fill="#917d33" fill-rule="evenodd" stroke="none"/>
    <path d="M-3.2 -18.75 L-3.2 -18.85 1.0 -18.85 1.05 -18.65 0.9 -18.2 0.4 -18.15 -1.8 -18.4 -3.15 -18.75 -3.2 -18.75" fill="#938675" fill-rule="evenodd" stroke="none"/>
    <path d="M-3.2 -18.75 L-1.4 -18.0 Q-0.65 -17.8 -0.65 -17.45 -0.65 -17.0 -0.95 -16.95 L-1.65 -17.0 Q-1.65 -16.2 -2.25 -16.2 L-7.55 -17.55 -7.65 -17.55 -7.4 -17.45 Q-5.15 -16.95 -3.0 -16.05 L-5.0 -16.45 -3.85 -15.95 Q-2.0 -15.2 -2.0 -14.55 -2.0 -14.25 -2.25 -14.1 L-2.3 -14.05 -1.4 -13.8 -2.65 -13.85 -2.45 -13.45 -4.5 -13.95 -3.5 -13.15 -0.75 -12.75 -2.6 -12.6 Q4.35 -10.25 11.15 -13.25 L11.5 -13.0 11.55 -12.8 10.35 -12.0 Q0.65 -8.3 -9.6 -12.1 L-9.25 -12.35 Q-10.4 -12.3 -11.1 -13.05 -12.95 -15.25 -12.25 -18.15 L-10.65 -18.0 Q-11.0 -18.35 -11.0 -18.8 L-10.95 -18.85 -3.2 -18.85 -3.2 -18.75 M-8.25 -16.05 L-7.05 -15.4 -4.05 -14.55 -8.0 -16.1 -8.25 -16.05" fill="url(#gradient0)" fill-rule="evenodd" stroke="none"/>
    <path d="M1.0 15.2 L0.25 16.85 -4.05 14.9 -5.5 14.05 -6.9 12.95 -7.85 12.4 Q-10.55 7.65 -11.05 3.7 L-11.55 1.8 -11.2 1.45 -10.25 4.1 Q-9.95 6.35 -7.1 9.95 -3.2 14.95 1.0 15.2" fill="#322b12" fill-rule="evenodd" stroke="none"/>
  </g>
  <defs>
    <linearGradient gradientTransform="matrix(0.0145, -0.013, 0.0034, 0.0038, -5.75, -15.0)" gradientUnits="userSpaceOnUse" id="gradient0" spreadMethod="pad" x1="-819.2" x2="819.2">
      <stop offset="0.34509803921568627" stop-color="#856869"/>
      <stop offset="0.8313725490196079" stop-color="#000000"/>
    </linearGradient>
  </defs>
</svg>
