<?xml version="1.0" encoding="UTF-8" standalone="no"?>
<svg xmlns:xlink="http://www.w3.org/1999/xlink" height="18.7px" width="24.05px" xmlns="http://www.w3.org/2000/svg">
  <g transform="matrix(1.0, 0.0, 0.0, 1.0, 0.0, 0.0)">
    <path d="M22.25 1.5 L22.15 1.1 Q22.15 0.4 23.1 0.5 24.05 0.6 24.05 1.25 24.05 1.9 23.2 1.9 22.5 1.9 22.25 1.5 M12.4 2.95 Q11.75 2.95 11.6 2.6 L11.5 2.2 Q11.5 1.35 12.5 1.35 13.5 1.4 13.5 2.0 13.5 2.45 13.0 2.75 L12.4 2.95 M1.45 6.25 Q0.0 3.25 0.0 1.9 0.0 -3.5 4.35 6.3 8.7 16.05 8.7 17.3 L8.4 18.05 7.5 18.7 Q7.0 18.7 5.6 15.4 L3.45 10.25 1.45 6.25" fill="#ffffff" fill-rule="evenodd" stroke="none"/>
  </g>
</svg>
