<?xml version="1.0" encoding="UTF-8" standalone="no"?>
<svg xmlns:xlink="http://www.w3.org/1999/xlink" height="70.9px" width="123.55px" xmlns="http://www.w3.org/2000/svg">
  <g transform="matrix(1.0, 0.0, 0.0, 1.0, 61.75, 35.95)">
    <path d="M61.8 -7.05 L6.3 -7.05 6.3 -35.95 10.0 -35.95 10.0 -15.25 46.35 -35.95 51.5 -35.95 12.8 -12.4 22.05 -12.4 61.15 -35.95 61.8 -35.95 61.8 -26.7 36.05 -12.4 61.8 -12.4 61.8 -7.05 M-6.45 -35.95 L-6.45 -7.05 -61.75 -7.05 -61.75 -12.4 -35.95 -12.4 -61.75 -27.0 -61.75 -30.15 -31.5 -12.4 -21.6 -12.4 -61.05 -35.95 -45.45 -35.95 -10.15 -15.25 -10.15 -35.95 -6.45 -35.95 M-61.75 6.8 L-6.45 6.8 -6.45 34.95 -10.15 34.95 -10.15 14.5 -45.1 34.95 -50.45 34.95 -11.9 11.75 -21.5 11.75 -60.45 34.95 -61.75 34.95 -61.75 25.35 -37.35 11.75 -61.75 11.75 -61.75 6.8 M6.3 34.95 L6.3 6.8 61.8 6.8 61.8 11.75 37.55 11.75 61.8 25.7 61.8 28.5 33.35 11.75 22.8 11.75 61.7 34.9 61.8 34.9 61.8 34.95 46.35 34.95 10.85 14.05 10.0 14.05 10.0 34.95 6.3 34.95" fill="#ffffff" fill-rule="evenodd" stroke="none"/>
    <path d="M6.3 -35.95 L6.3 -7.05 61.8 -7.05 61.8 6.8 6.3 6.8 6.3 34.95 -6.45 34.95 -6.45 6.8 -61.75 6.8 -61.75 -7.05 -6.45 -7.05 -6.45 -35.95 6.3 -35.95 M61.15 -35.95 L22.05 -12.4 12.8 -12.4 51.5 -35.95 61.15 -35.95 M61.8 28.5 L61.8 34.9 61.7 34.9 22.8 11.75 33.35 11.75 61.8 28.5 M-61.75 -30.15 L-61.75 -35.95 -61.05 -35.95 -21.6 -12.4 -31.5 -12.4 -61.75 -30.15 M-60.45 34.95 L-21.5 11.75 -11.9 11.75 -50.45 34.95 -60.45 34.95" fill="#990000" fill-rule="evenodd" stroke="none"/>
    <path d="M61.8 -12.4 L36.05 -12.4 61.8 -26.7 61.8 -12.4 M46.35 -35.95 L10.0 -15.25 10.0 -35.95 46.35 -35.95 M46.35 34.95 L10.0 34.95 10.0 14.05 10.85 14.05 46.35 34.95 M61.8 25.7 L37.55 11.75 61.8 11.75 61.8 25.7 M-61.75 -12.4 L-61.75 -27.0 -35.95 -12.4 -61.75 -12.4 M-45.45 -35.95 L-10.15 -35.95 -10.15 -15.25 -45.45 -35.95 M-45.1 34.95 L-10.15 14.5 -10.15 34.95 -45.1 34.95 M-61.75 25.35 L-61.75 11.75 -37.35 11.75 -61.75 25.35" fill="#003399" fill-rule="evenodd" stroke="none"/>
  </g>
</svg>
