<?xml version="1.0" encoding="UTF-8" standalone="no"?>
<svg xmlns:xlink="http://www.w3.org/1999/xlink" height="70.45px" width="44.1px" xmlns="http://www.w3.org/2000/svg">
  <g transform="matrix(1.0, 0.0, 0.0, 1.0, 22.05, 35.2)">
    <path d="M21.55 -19.25 L-21.55 -19.25 -21.55 -34.7 21.55 -34.7 21.55 -19.25 M21.55 -1.25 L-21.55 -1.25 -21.55 -16.7 21.55 -16.7 21.55 -1.25 M-21.55 19.3 L21.55 19.3 21.55 34.75 -21.55 34.75 -21.55 19.3 M-21.55 1.75 L21.55 1.75 21.55 17.2 -21.55 17.2 -21.55 1.75" fill="#666666" fill-rule="evenodd" stroke="none"/>
    <path d="M21.55 -19.25 L-21.55 -19.25 -21.55 -34.7 21.55 -34.7 21.55 -19.25 M21.55 -1.25 L-21.55 -1.25 -21.55 -16.7 21.55 -16.7 21.55 -1.25 M-21.55 19.3 L21.55 19.3 21.55 34.75 -21.55 34.75 -21.55 19.3 M-21.55 1.75 L21.55 1.75 21.55 17.2 -21.55 17.2 -21.55 1.75 Z" fill="none" stroke="#000000" stroke-linecap="round" stroke-linejoin="round" stroke-width="1.0"/>
  </g>
</svg>
