<?xml version="1.0" encoding="UTF-8" standalone="no"?>
<svg xmlns:xlink="http://www.w3.org/1999/xlink" height="31.0px" width="150.95px" xmlns="http://www.w3.org/2000/svg">
  <g transform="matrix(1.0, 0.0, 0.0, 1.0, 75.45, 15.45)">
    <path d="M-63.7 15.55 L-75.45 15.55 -75.45 -15.45 -66.4 -15.45 -67.4 -13.85 Q-71.7 -5.4 -69.35 4.35 -67.75 10.95 -63.7 15.55 M-58.4 -15.45 L-39.45 -15.45 Q-33.95 -11.5 -32.3 -4.6 -30.55 2.55 -34.0 8.85 -36.5 13.45 -40.75 15.55 L-54.7 15.55 Q-55.75 15.05 -56.75 14.35 -62.7 10.35 -64.45 3.2 -66.15 -4.0 -62.7 -10.3 -60.95 -13.5 -58.4 -15.45 M-31.45 -15.45 L75.5 -15.45 75.5 15.55 -31.35 15.55 -29.4 12.25 Q-24.65 3.9 -27.0 -5.85 -28.3 -11.35 -31.45 -15.45 M-45.85 -5.6 L-51.75 -14.45 -52.5 -14.9 -52.55 -14.5 -52.95 -3.5 -63.15 -0.45 -53.15 3.0 -53.25 13.95 -53.1 14.05 -46.35 5.65 -35.95 8.95 -42.1 0.1 -35.05 -8.6 -35.1 -8.75 -45.85 -5.6" fill="url(#gradient0)" fill-rule="evenodd" stroke="none"/>
    <path d="M-63.7 15.55 Q-67.75 10.95 -69.35 4.35 -71.7 -5.4 -67.4 -13.85 L-66.4 -15.45 -58.4 -15.45 Q-60.95 -13.5 -62.7 -10.3 -66.15 -4.0 -64.45 3.2 -62.7 10.35 -56.75 14.35 -55.75 15.05 -54.7 15.55 L-63.7 15.55 M-39.45 -15.45 L-31.45 -15.45 Q-28.3 -11.35 -27.0 -5.85 -24.65 3.9 -29.4 12.25 L-31.35 15.55 -40.75 15.55 Q-36.5 13.45 -34.0 8.85 -30.55 2.55 -32.3 -4.6 -33.95 -11.5 -39.45 -15.45 M-45.85 -5.6 L-35.1 -8.75 -35.05 -8.6 -42.1 0.1 -35.95 8.95 -46.35 5.65 -53.1 14.05 -53.25 13.95 -53.15 3.0 -63.15 -0.45 -52.95 -3.5 -52.55 -14.5 -52.5 -14.9 -51.75 -14.45 -45.85 -5.6" fill="#253a6b" fill-rule="evenodd" stroke="none"/>
  </g>
  <defs>
    <radialGradient cx="0" cy="0" gradientTransform="matrix(4.0E-4, -0.0255, 0.0999, 0.0014, 0.05, 0.0)" gradientUnits="userSpaceOnUse" id="gradient0" r="819.2" spreadMethod="pad">
      <stop offset="0.0" stop-color="#55a3ee"/>
      <stop offset="1.0" stop-color="#2e4085"/>
    </radialGradient>
  </defs>
</svg>
