<?xml version="1.0" encoding="UTF-8" standalone="no"?>
<svg xmlns:xlink="http://www.w3.org/1999/xlink" height="37.55px" width="30.95px" xmlns="http://www.w3.org/2000/svg">
  <g transform="matrix(1.0, 0.0, 0.0, 1.0, 16.3, 18.3)">
    <path d="M1.8 -12.65 L4.95 -12.8 9.45 -13.75 10.15 -12.25 9.7 -10.55 Q7.4 -9.4 4.7 -8.45 L8.85 -9.25 7.35 -7.75 5.5 -6.65 5.8 -8.1 5.6 -8.05 5.25 -7.7 4.5 -6.2 Q2.9 -6.25 2.45 -7.95 L1.9 -9.4 1.7 -9.75 Q1.0 -6.75 3.1 -4.25 L3.1 -3.4 1.95 -4.8 1.9 -4.25 3.0 -1.05 2.8 0.6 Q4.2 2.85 6.75 3.5 L7.15 3.4 7.4 3.25 9.6 7.0 8.95 11.2 8.65 10.0 8.25 13.1 7.2 13.75 Q6.65 13.55 6.25 13.25 L3.0 11.85 4.55 9.65 Q4.35 7.7 5.15 6.0 L5.5 5.25 4.6 5.45 Q3.45 5.85 2.35 6.4 L1.05 7.15 0.65 6.85 Q0.5 6.65 0.5 6.45 L-2.85 5.15 Q-2.7 9.05 -0.35 12.2 L-3.85 13.9 -5.0 14.25 -5.0 14.6 -5.45 14.95 -4.9 11.05 -5.7 10.35 -6.2 11.3 -5.75 9.8 -5.75 9.45 -4.9 7.85 Q-4.55 7.2 -4.75 6.3 L-5.35 6.65 -6.25 7.35 -6.95 8.35 -7.25 8.85 -9.05 6.45 -10.05 8.65 -10.5 8.8 -10.0 6.45 -9.25 5.35 -8.75 4.6 Q-7.7 3.25 -7.2 1.45 L-7.05 0.85 -2.95 -0.65 Q-3.05 1.9 -5.65 2.75 L-6.4 3.1 Q-6.85 3.4 -6.45 3.85 -4.2 4.5 -2.4 3.1 L-0.35 1.15 -0.25 1.2 -0.3 -1.6 0.3 -3.05 Q0.65 -3.65 0.45 -4.35 L0.3 -4.7 0.1 -4.6 -0.25 -3.85 -0.5 -2.9 -0.85 -4.0 Q-0.3 -4.95 0.1 -6.05 0.4 -6.65 0.1 -7.5 L-1.2 -5.7 Q-1.55 -6.65 -2.75 -6.85 L-5.15 -7.3 -4.6 -9.6 -4.15 -10.2 -5.0 -10.85 Q-5.3 -12.75 -5.95 -14.6 L-6.1 -15.0 -6.2 -18.3 -4.2 -18.3 -2.85 -15.5 -3.2 -18.3 -2.75 -18.3 -2.5 -17.8 -0.15 -13.5 Q-0.3 -15.95 -1.45 -18.3 L-0.2 -18.3 Q2.85 -15.85 6.75 -14.8 5.7 -13.75 4.3 -13.65 L1.8 -12.65 M9.8 -0.05 L10.3 0.4 Q10.35 0.3 10.5 0.3 L10.65 0.3 11.85 1.45 12.6 3.95 11.75 4.6 Q10.15 3.6 9.7 1.6 9.4 0.5 8.7 -0.45 L9.25 -0.65 9.7 -0.65 10.1 -0.25 9.8 -0.05 M7.3 -0.85 L7.3 -0.7 Q6.0 -1.8 7.3 -0.85 M14.65 -2.55 L14.4 -2.0 Q14.95 -0.6 14.2 1.05 L13.9 1.6 13.25 0.85 13.3 -2.3 Q13.35 -1.6 14.1 -2.55 14.4 -2.95 14.65 -2.55 M14.1 10.4 L13.65 11.2 12.75 12.9 12.6 9.2 13.1 8.5 Q13.85 9.45 14.1 10.4 M10.5 5.05 L10.85 5.45 Q11.45 7.4 11.6 9.35 L11.25 10.95 10.75 7.4 10.55 6.65 Q9.75 4.7 10.5 5.05 M9.7 17.4 L9.35 19.25 8.5 19.25 9.05 18.35 9.7 17.4 M12.2 14.05 L11.45 15.95 12.15 13.35 12.2 14.05 M11.25 16.8 L11.2 17.25 11.25 17.55 10.75 18.5 11.25 16.8 M-7.9 -18.3 L-7.65 -18.3 -7.6 -18.0 -7.05 -14.95 -7.9 -14.2 -6.25 -10.75 -6.85 -7.35 -7.95 -8.25 Q-8.0 -9.1 -8.45 -10.35 L-8.45 -10.3 Q-8.85 -12.8 -9.8 -14.8 L-7.95 -17.45 -7.9 -18.3 M-16.1 -1.25 L-16.3 -2.35 Q-15.0 -2.2 -15.35 -0.9 L-15.4 -0.5 -16.1 -1.25 M-16.2 -3.8 L-15.55 -5.7 Q-14.8 -6.2 -14.45 -5.15 -14.1 -4.05 -14.1 -2.9 L-15.0 -3.5 -15.75 -4.45 -16.2 -3.8 M-10.8 -0.65 L-8.5 0.8 -8.35 1.6 -8.25 2.45 -8.65 3.25 -8.7 3.0 -8.35 1.6 Q-9.3 2.3 -10.35 4.4 L-10.55 4.8 -11.8 3.2 -11.7 3.0 Q-10.8 1.45 -12.05 3.25 L-12.6 2.45 Q-11.6 1.35 -10.95 -0.25 L-10.8 -0.65 M-12.8 1.35 L-12.85 1.05 -12.1 0.45 -12.8 1.35 M-2.9 16.25 L6.45 15.8 Q3.4 17.25 -0.3 16.9 L-2.9 16.25" fill="#ffffff" fill-rule="evenodd" stroke="none"/>
  </g>
</svg>
