<?xml version="1.0" encoding="UTF-8" standalone="no"?>
<svg xmlns:xlink="http://www.w3.org/1999/xlink" height="97.7px" width="549.55px" xmlns="http://www.w3.org/2000/svg">
  <g transform="matrix(1.0, 0.0, 0.0, 1.0, 280.3, 60.4)">
    <path d="M-186.4 -21.0 Q-176.65 -30.95 -159.55 -30.95 L-153.65 -30.6 -161.4 -20.35 Q-168.45 -19.75 -173.4 -14.2 L-173.35 -14.2 -175.25 -11.85 Q-176.6 -9.85 -177.45 -7.35 -179.0 -2.9 -179.1 3.1 L-191.8 19.95 Q-196.1 12.3 -196.1 3.1 -196.1 -2.45 -194.6 -7.35 L-192.85 -11.85 Q-190.5 -16.8 -186.4 -21.0 M-157.7 -20.35 L-151.3 -30.3 Q-140.05 -28.4 -132.75 -21.0 -128.65 -16.8 -126.3 -11.85 -125.25 -9.65 -124.55 -7.35 -123.05 -2.45 -123.05 3.1 -123.05 17.35 -132.8 27.3 -142.6 37.1 -159.55 37.1 -177.15 37.1 -186.65 26.95 L-187.6 25.9 -178.2 11.35 Q-176.85 16.6 -173.5 20.35 L-173.5 20.3 Q-167.95 26.65 -159.55 26.65 -151.55 26.65 -145.75 20.45 -140.1 14.3 -140.1 2.8 -140.1 -2.85 -141.7 -7.35 -142.6 -9.75 -143.9 -11.85 L-145.45 -13.95 Q-150.35 -19.75 -157.7 -20.35" fill="url(#gradient0)" fill-rule="evenodd" stroke="none"/>
    <path d="M-81.85 -19.45 Q-81.85 -19.85 -82.15 -20.15 -82.45 -20.45 -82.85 -20.45 L-90.8 -20.45 -90.8 -29.75 -66.55 -29.75 -81.85 -3.55 -81.85 -19.45 M-63.65 -29.75 L-39.35 11.9 -38.85 12.35 -38.25 12.4 Q-37.9 12.3 -37.7 12.0 L-37.5 11.4 -37.5 -19.45 Q-37.5 -19.85 -37.8 -20.15 -38.1 -20.45 -38.5 -20.45 L-46.45 -20.45 -46.45 -29.75 -35.85 -29.75 -27.45 33.9 -27.45 36.3 -40.95 36.3 -69.9 -13.35 -70.4 -13.75 -71.05 -13.8 -71.6 -13.45 -71.8 -12.85 -71.8 25.65 -71.5 26.35 -70.8 26.65 -63.2 26.65 -63.2 35.95 -90.8 35.95 -90.8 26.65 -82.85 26.65 Q-82.45 26.65 -82.15 26.35 -81.85 26.05 -81.85 25.65 L-81.85 0.05 -65.4 -29.75 -63.65 -29.75 M-27.15 -20.15 L-27.45 -19.45 -27.45 10.95 -34.5 -29.75 -18.15 -29.75 -18.15 -20.45 -26.45 -20.45 -27.15 -20.15" fill="url(#gradient1)" fill-rule="evenodd" stroke="none"/>
    <path d="M37.85 -29.75 L41.9 -22.75 25.35 -29.75 37.85 -29.75 M10.7 -20.45 L10.7 -29.75 23.4 -29.75 43.6 -19.9 62.15 11.9 62.65 12.35 63.25 12.4 63.8 12.0 64.0 11.4 64.0 -9.95 74.05 -5.05 74.05 26.9 52.9 23.25 31.6 -13.35 31.1 -13.75 30.45 -13.8 Q30.1 -13.75 29.9 -13.45 L29.7 -12.85 29.7 19.2 19.65 17.45 19.65 -19.45 19.35 -20.15 18.65 -20.45 10.7 -20.45 M74.35 -20.15 Q74.05 -19.85 74.05 -19.45 L74.05 -9.2 64.0 -13.45 64.0 -19.45 63.7 -20.15 63.0 -20.45 55.05 -20.45 55.05 -29.75 83.35 -29.75 83.35 -20.45 75.05 -20.45 Q74.65 -20.45 74.35 -20.15 M74.05 36.3 L60.55 36.3 53.65 24.5 74.05 27.4 74.05 36.3 M10.7 26.65 L18.65 26.65 19.35 26.35 19.65 25.65 19.65 19.7 29.7 21.1 29.7 25.65 Q29.7 26.05 30.0 26.35 L30.7 26.65 38.3 26.65 38.3 35.95 10.7 35.95 10.7 26.65" fill="url(#gradient2)" fill-rule="evenodd" stroke="none"/>
    <path d="M239.2 -60.4 Q245.6 -60.4 250.75 -58.7 L245.15 -3.3 Q239.3 1.0 235.45 4.55 L235.75 -15.4 Q241.55 -21.1 243.9 -24.3 247.7 -29.3 247.7 -35.8 247.7 -40.8 244.75 -43.85 L244.7 -43.9 Q241.9 -47.2 237.6 -47.2 L236.3 -47.1 236.5 -60.3 239.2 -60.4 M233.2 -59.95 L233.05 -46.3 Q230.2 -45.0 228.5 -41.85 225.9 -37.25 225.4 -27.0 L208.75 -27.65 Q208.9 -40.7 212.8 -47.4 L212.75 -47.4 Q216.85 -54.25 223.8 -57.35 228.25 -59.3 233.2 -59.95 M232.7 -12.45 L232.5 7.4 Q230.25 9.7 229.1 11.65 225.35 17.7 224.75 22.35 L224.85 22.9 225.2 23.3 225.75 23.45 232.35 23.45 232.2 37.3 207.55 37.3 Q207.65 25.35 209.7 18.8 L209.75 18.8 Q211.65 11.8 216.25 5.25 L216.2 5.25 Q220.3 -0.45 227.35 -7.35 L229.15 -9.05 232.1 -11.85 232.7 -12.45 M260.55 -52.85 Q268.15 -45.55 268.15 -34.4 268.15 -28.5 265.8 -23.45 263.45 -18.15 260.0 -14.85 L259.95 -14.85 256.5 -11.85 Q254.1 -9.85 250.7 -7.35 249.25 -6.25 247.6 -5.1 L253.55 -57.6 Q257.5 -55.85 260.55 -52.85 M254.4 23.45 L255.1 23.15 255.4 22.45 255.4 10.55 269.25 10.55 268.45 37.3 242.85 37.3 244.4 23.45 254.4 23.45 M242.5 23.45 L241.1 37.3 234.9 37.3 235.15 23.45 242.5 23.45" fill="url(#gradient3)" fill-rule="evenodd" stroke="none"/>
    <path d="M109.1 -20.45 L109.1 -29.75 140.95 -29.75 140.95 -20.45 135.25 -20.45 134.6 -20.2 134.25 -19.6 134.4 -18.9 141.55 -7.3 132.85 2.55 117.2 -20.0 116.85 -20.3 116.35 -20.45 109.1 -20.45 M161.35 -29.75 L153.15 -20.45 149.6 -20.45 149.6 -29.75 161.35 -29.75 M156.35 -20.05 L164.35 -29.75 177.45 -29.75 177.45 -20.45 170.1 -20.45 169.65 -20.3 169.3 -20.0 151.65 6.7 151.45 7.25 151.45 25.65 Q151.45 26.05 151.75 26.35 152.05 26.65 152.45 26.65 L160.8 26.65 160.8 35.95 126.6 35.95 126.6 26.65 134.9 26.65 135.6 26.35 135.9 25.65 135.9 7.25 135.75 6.7 135.0 5.65 143.35 -4.35 144.4 -2.6 144.95 -2.2 145.6 -2.2 146.1 -2.6 156.4 -18.9 156.55 -19.6 156.35 -20.05" fill="url(#gradient4)" fill-rule="evenodd" stroke="none"/>
    <path d="M-256.8 -55.7 Q-246.45 -55.7 -240.7 -47.3 L-240.2 -46.95 -239.6 -46.95 Q-239.3 -47.05 -239.1 -47.3 L-238.9 -47.9 -238.9 -54.65 -225.55 -54.65 -225.55 -28.5 -239.0 -28.5 Q-240.0 -34.8 -243.6 -38.4 -247.6 -42.35 -252.75 -42.35 L-256.0 -41.9 -256.9 -41.6 Q-258.45 -41.05 -259.75 -39.95 L-259.8 -39.9 Q-262.65 -37.7 -262.65 -33.75 -262.65 -30.45 -260.3 -27.6 -258.55 -25.3 -250.75 -21.45 L-242.6 5.4 -243.05 4.9 -243.05 4.85 Q-245.9 1.85 -253.5 -2.0 -269.1 -9.65 -274.9 -15.6 L-274.95 -15.6 -269.75 -30.5 -277.05 -18.35 Q-280.3 -23.45 -280.3 -31.0 -280.3 -42.7 -273.1 -49.25 -267.7 -54.15 -261.05 -55.3 L-260.45 -55.4 -256.8 -55.7 M-247.45 -19.9 Q-237.65 -15.2 -232.2 -11.45 -226.9 -7.9 -223.8 -2.3 -220.75 3.3 -220.75 10.8 -220.75 24.0 -228.25 30.65 -229.75 31.95 -231.35 33.05 L-249.0 -20.6 -247.45 -19.9 M-240.05 13.8 L-233.8 34.5 Q-239.35 37.3 -246.0 37.3 -257.35 37.3 -263.55 28.8 L-264.05 28.45 -264.65 28.45 -265.15 28.85 -265.35 29.4 -265.35 35.7 -279.25 35.7 -279.25 6.4 -265.3 6.4 Q-264.75 15.15 -260.75 19.35 -256.4 23.95 -250.65 23.95 -246.15 23.95 -243.05 20.65 -240.35 17.65 -240.05 13.8" fill="url(#gradient5)" fill-rule="evenodd" stroke="none"/>
  </g>
  <defs>
    <linearGradient gradientTransform="matrix(-0.0074, 0.0769, -0.3207, -0.0309, -8.15, -1.45)" gradientUnits="userSpaceOnUse" id="gradient0" spreadMethod="pad" x1="-819.2" x2="819.2">
      <stop offset="0.0" stop-color="#68d9f4"/>
      <stop offset="1.0" stop-color="#ffffff"/>
    </linearGradient>
    <linearGradient gradientTransform="matrix(-0.0074, 0.0769, -0.3207, -0.0309, 1.85, -1.45)" gradientUnits="userSpaceOnUse" id="gradient1" spreadMethod="pad" x1="-819.2" x2="819.2">
      <stop offset="0.0" stop-color="#68d9f4"/>
      <stop offset="1.0" stop-color="#ffffff"/>
    </linearGradient>
    <linearGradient gradientTransform="matrix(-0.0074, 0.0769, -0.3207, -0.0309, 11.85, -1.45)" gradientUnits="userSpaceOnUse" id="gradient2" spreadMethod="pad" x1="-819.2" x2="819.2">
      <stop offset="0.0" stop-color="#68d9f4"/>
      <stop offset="1.0" stop-color="#ffffff"/>
    </linearGradient>
    <linearGradient gradientTransform="matrix(-0.0093, 0.0972, -0.4055, -0.0391, -61.1, -10.35)" gradientUnits="userSpaceOnUse" id="gradient3" spreadMethod="pad" x1="-819.2" x2="819.2">
      <stop offset="0.0" stop-color="#68d9f4"/>
      <stop offset="1.0" stop-color="#ffffff"/>
    </linearGradient>
    <linearGradient gradientTransform="matrix(-0.0074, 0.0769, -0.3207, -0.0309, 21.85, -1.45)" gradientUnits="userSpaceOnUse" id="gradient4" spreadMethod="pad" x1="-819.2" x2="819.2">
      <stop offset="0.0" stop-color="#68d9f4"/>
      <stop offset="1.0" stop-color="#ffffff"/>
    </linearGradient>
    <linearGradient gradientTransform="matrix(-0.0087, 0.0902, -0.3761, -0.0363, 27.3, -8.3)" gradientUnits="userSpaceOnUse" id="gradient5" spreadMethod="pad" x1="-819.2" x2="819.2">
      <stop offset="0.0" stop-color="#68d9f4"/>
      <stop offset="1.0" stop-color="#ffffff"/>
    </linearGradient>
  </defs>
</svg>
