<?xml version="1.0" encoding="UTF-8" standalone="no"?>
<svg xmlns:xlink="http://www.w3.org/1999/xlink" height="62.15px" width="155.75px" xmlns="http://www.w3.org/2000/svg">
  <g transform="matrix(1.0, 0.0, 0.0, 1.0, 77.85, 31.05)">
    <path d="M27.55 -27.2 L27.55 -27.55 27.7 -27.9 28.35 -28.6 29.15 -29.0 30.65 -29.55 31.65 -29.5 32.4 -29.25 33.7 -28.75 Q34.5 -28.5 34.9 -27.7 L34.9 -27.3 34.9 -26.95 34.9 -26.55 34.85 -26.2 34.65 -25.8 34.05 -25.05 Q32.3 -24.05 30.2 -24.75 28.7 -25.25 27.8 -26.55 27.6 -26.8 27.55 -27.2 M69.65 -27.8 L69.3 -29.0 Q69.1 -29.3 69.2 -29.65 69.45 -30.85 70.65 -31.0 L70.65 -31.05 73.3 -30.75 Q74.7 -30.55 75.95 -29.8 77.2 -29.0 77.8 -27.65 L77.9 -26.95 77.55 -26.3 76.15 -25.4 Q73.35 -24.55 70.95 -26.0 L70.05 -26.7 Q69.85 -26.85 69.8 -27.1 L69.65 -27.8 M-39.85 18.85 L-36.4 19.05 -35.35 19.45 -35.15 19.85 -35.1 20.2 -35.1 20.6 -35.15 21.35 -35.25 22.1 -35.5 22.4 Q-37.05 23.6 -38.9 24.05 -41.55 24.65 -43.45 22.95 -44.05 22.4 -44.1 21.7 L-44.05 21.35 Q-43.85 20.65 -43.2 20.3 L-40.35 19.0 -39.85 18.85 M-73.3 27.55 L-73.05 28.0 -72.85 28.35 -73.1 29.0 -74.1 30.25 -74.9 30.9 -75.35 31.1 -76.5 30.75 -77.1 30.35 Q-77.85 29.85 -77.85 29.1 L-77.45 27.85 Q-77.1 27.2 -76.35 26.85 L-74.35 26.65 -74.35 26.6 -73.85 26.95 -73.3 27.55" fill="#66e1ff" fill-rule="evenodd" stroke="none"/>
  </g>
</svg>
