<?xml version="1.0" encoding="UTF-8" standalone="no"?>
<svg xmlns:xlink="http://www.w3.org/1999/xlink" height="425.95px" width="772.95px" xmlns="http://www.w3.org/2000/svg">
  <g transform="matrix(1.0, 0.0, 0.0, 1.0, 388.0, 209.9)">
    <path d="M78.0 -147.0 L76.25 -148.25 Q75.1 -148.5 75.95 -147.75 76.9 -147.0 78.05 -146.9 L78.0 -147.0 M8.65 -194.25 Q8.25 -194.9 7.5 -195.25 6.7 -195.45 6.85 -195.25 7.5 -194.4 8.6 -194.15 L8.65 -194.25 M16.0 -157.0 L14.25 -158.25 Q13.05 -158.35 14.1 -157.3 14.75 -156.65 15.95 -156.85 L16.0 -157.0 M80.25 -179.25 Q78.7 -179.15 80.65 -178.05 82.65 -176.9 81.85 -177.95 81.25 -178.75 80.25 -179.25 M204.85 -200.7 Q204.75 -201.5 204.25 -202.25 203.2 -202.3 203.65 -201.3 204.0 -200.5 204.65 -200.3 204.9 -200.25 204.85 -200.7 M384.95 216.05 L-388.0 216.05 -388.0 -209.9 384.95 -209.9 384.95 216.05 M-126.9 -163.9 Q-127.85 -164.4 -129.0 -164.5 -129.4 -164.35 -129.2 -164.2 -128.25 -163.65 -127.05 -163.85 L-126.9 -163.9 M-52.0 -142.0 Q-52.75 -142.75 -53.75 -143.25 -54.9 -143.5 -54.05 -142.75 -53.1 -142.0 -51.95 -141.9 L-52.0 -142.0 M-307.75 -121.3 Q-307.95 -122.0 -308.95 -122.5 -309.9 -122.0 -308.25 -121.35 L-307.75 -121.3 M-251.9 -185.25 Q-251.2 -185.5 -250.7 -186.25 L-251.7 -185.95 Q-252.6 -185.65 -252.6 -185.25 -252.6 -185.0 -251.9 -185.25 M-214.1 -162.95 Q-214.7 -163.75 -215.7 -164.25 -217.3 -164.15 -215.3 -163.05 -213.3 -161.9 -214.1 -162.95 M-324.95 -196.5 L-325.2 -196.2 Q-324.2 -195.65 -323.05 -195.85 L-322.9 -195.9 Q-323.85 -196.4 -324.95 -196.5" fill="url(#gradient0)" fill-rule="evenodd" stroke="none"/>
    <path d="M204.85 -200.7 Q204.9 -200.25 204.65 -200.3 204.0 -200.5 203.65 -201.3 203.2 -202.3 204.25 -202.25 204.75 -201.5 204.85 -200.7 M80.25 -179.25 Q81.25 -178.75 81.85 -177.95 82.65 -176.9 80.65 -178.05 78.7 -179.15 80.25 -179.25 M16.0 -157.0 L15.95 -156.85 Q14.75 -156.65 14.1 -157.3 13.05 -158.35 14.25 -158.25 L16.0 -157.0 M8.65 -194.25 L8.6 -194.15 Q7.5 -194.4 6.85 -195.25 6.7 -195.45 7.5 -195.25 8.25 -194.9 8.65 -194.25 M78.0 -147.0 L78.05 -146.9 Q76.9 -147.0 75.95 -147.75 75.1 -148.5 76.25 -148.25 L78.0 -147.0 M-324.95 -196.5 Q-323.85 -196.4 -322.9 -195.9 L-323.05 -195.85 Q-324.2 -195.65 -325.2 -196.2 L-324.95 -196.5 M-214.1 -162.95 Q-213.3 -161.9 -215.3 -163.05 -217.3 -164.15 -215.7 -164.25 -214.7 -163.75 -214.1 -162.95 M-251.9 -185.25 Q-252.6 -185.0 -252.6 -185.25 -252.6 -185.65 -251.7 -185.95 L-250.7 -186.25 Q-251.2 -185.5 -251.9 -185.25 M-307.75 -121.3 L-308.25 -121.35 Q-309.9 -122.0 -308.95 -122.5 -307.95 -122.0 -307.75 -121.3 M-52.0 -142.0 L-51.95 -141.9 Q-53.1 -142.0 -54.05 -142.75 -54.9 -143.5 -53.75 -143.25 -52.75 -142.75 -52.0 -142.0 M-126.9 -163.9 L-127.05 -163.85 Q-128.25 -163.65 -129.2 -164.2 -129.4 -164.35 -129.0 -164.5 -127.85 -164.4 -126.9 -163.9" fill="#ffffff" fill-rule="evenodd" stroke="none"/>
  </g>
  <defs>
    <linearGradient gradientTransform="matrix(0.0, 0.26, -0.4718, 0.0, -1.5, 3.05)" gradientUnits="userSpaceOnUse" id="gradient0" spreadMethod="pad" x1="-819.2" x2="819.2">
      <stop offset="0.0" stop-color="#242431"/>
      <stop offset="0.27058823529411763" stop-color="#3d2121"/>
      <stop offset="1.0" stop-color="#925518"/>
    </linearGradient>
  </defs>
</svg>
