<?xml version="1.0" encoding="UTF-8" standalone="no"?>
<svg xmlns:xlink="http://www.w3.org/1999/xlink" height="334.6px" width="766.2px" xmlns="http://www.w3.org/2000/svg">
  <g transform="matrix(1.0, 0.0, 0.0, 1.0, 386.0, 125.4)">
    <path d="M65.65 -3.6 L82.1 -27.9 97.1 -1.5 88.5 -0.75 88.5 4.95 101.35 4.95 104.95 -35.7 96.35 -35.05 114.25 -66.45 129.95 -32.9 119.95 -32.9 121.05 -8.25 131.35 -9.35 132.8 -24.35 139.95 -25.05 143.5 -15.75 147.8 -19.35 154.2 -53.6 168.5 -57.2 172.8 -49.35 178.5 -52.2 179.2 -75.05 170.05 -74.45 184.95 -94.3 201.35 -73.6 194.2 -73.6 194.2 -55.75 209.2 -56.45 209.2 -65.05 199.95 -64.35 213.55 -78.65 229.95 -62.9 220.65 -62.9 221.35 -58.6 229.95 -58.6 230.7 -57.35 233.0 -61.05 236.4 -67.45 241.15 -69.5 238.45 -72.0 Q245.55 -89.2 244.6 -108.25 250.3 -93.65 253.3 -80.65 L253.3 -80.6 Q254.7 -74.35 255.5 -68.45 L257.8 -75.4 255.3 -81.15 257.65 -90.25 259.95 -91.5 258.35 -93.35 Q261.45 -108.65 261.75 -125.4 265.95 -115.25 268.45 -105.85 L267.5 -103.75 267.55 -103.75 269.25 -102.85 Q270.75 -96.45 271.55 -90.35 L277.05 -98.65 287.05 -80.8 280.65 -79.35 281.05 -65.8 292.45 -76.8 292.8 -76.45 297.8 -77.7 299.2 -95.05 291.35 -95.05 306.35 -116.5 319.9 -95.05 313.5 -94.35 314.9 -87.2 324.2 -87.2 328.5 -106.5 336.35 -106.5 338.5 -89.35 349.9 -89.35 351.35 -94.35 358.5 -93.65 365.6 -75.8 372.05 -75.8 372.75 -96.5 364.9 -98.65 378.3 -114.15 380.2 -112.45 380.2 209.2 -386.0 209.2 -386.0 -65.8 -385.0 -65.8 -380.35 -70.05 -382.5 -72.55 -372.5 -79.0 -374.9 -80.9 -365.0 -95.05 -363.6 -76.5 -367.15 -77.2 -362.9 -62.2 -367.85 -62.9 -363.6 -45.75 -371.45 -48.65 -364.35 -31.6 -358.6 -34.65 Q-349.8 -54.0 -337.75 -75.0 L-341.2 -75.35 -340.0 -80.05 -335.1 -79.6 Q-327.9 -91.9 -319.6 -104.8 L-324.55 -111.75 -300.8 -122.25 -282.15 -120.75 -270.6 -92.1 -284.2 -84.0 -284.95 -80.95 Q-287.35 -71.05 -289.25 -60.15 L-286.45 -57.2 -287.85 -52.25 -290.2 -54.45 -290.5 -52.65 Q-294.9 -24.65 -296.45 9.4 L-283.95 18.55 Q-280.25 9.35 -276.9 2.05 L-279.9 2.05 -277.9 -3.65 -274.25 -3.45 Q-268.0 -16.1 -262.9 -21.65 L-267.6 -25.75 -253.0 -33.95 -252.2 -33.7 -240.0 -35.1 -233.15 -11.85 -239.5 -9.55 Q-241.2 -0.35 -241.6 8.05 L-238.55 9.9 -240.0 15.65 -241.7 14.65 Q-241.55 26.8 -238.55 37.1 L-214.65 38.7 -212.9 32.8 -212.9 32.05 -219.3 30.65 -205.0 22.05 -192.9 32.8 -199.3 32.8 -199.3 39.75 -195.75 39.95 -190.8 68.5 -182.85 72.8 -180.0 62.8 -172.0 65.45 -168.6 60.65 -180.05 57.05 -156.45 54.2 -142.85 69.2 -152.15 65.65 -152.85 71.85 -150.0 72.8 -148.45 90.65 -144.3 85.65 -139.9 87.15 -137.5 78.4 -134.1 79.95 -132.15 76.7 -135.0 76.0 -127.85 69.55 -131.1 67.75 Q-123.25 60.95 -121.8 56.0 L-119.3 71.7 -122.15 71.35 -121.1 79.2 -123.6 78.85 -122.9 85.0 -121.45 85.65 -116.1 79.55 -119.3 77.75 -111.8 71.7 -114.3 68.85 Q-107.1 63.2 -102.15 55.25 -106.6 65.25 -103.2 76.7 L-105.7 73.85 Q-107.6 79.4 -105.75 87.05 L-108.95 83.15 Q-112.15 91.15 -111.0 98.8 L-109.4 101.05 Q-108.75 119.1 -106.85 137.2 L-105.6 148.0 -97.9 138.5 -96.8 148.5 -99.3 148.5 -94.3 159.6 -98.6 159.2 -92.2 169.95 -85.75 163.15 -83.95 172.8 -75.05 172.8 -71.45 157.8 -66.1 157.8 -63.25 147.45 -29.35 147.8 -28.6 162.1 -18.6 162.45 -18.6 156.35 -23.6 156.35 -18.25 151.7 -23.95 151.35 -15.75 143.5 -19.7 142.8 -12.55 135.3 -6.1 144.95 -10.05 144.6 -4.7 152.45 -9.35 152.45 -4.7 156.35 -10.4 156.35 -8.95 163.5 -2.55 167.8 2.1 167.8 5.25 155.3 20.65 155.65 21.7 159.95 25.65 159.95 28.85 149.6 35.45 150.05 37.8 146.7 34.25 146.35 40.3 138.5 37.1 138.5 38.45 137.2 Q45.4 129.95 46.4 120.25 47.5 130.5 50.9 137.2 L51.4 138.15 48.2 138.15 52.1 144.9 49.6 145.25 52.6 151.45 52.8 151.35 65.65 24.95 72.25 21.65 73.5 -2.9 65.65 -3.6 M-316.45 -77.9 L-316.55 -77.95 -316.55 -77.9 -316.45 -77.9 M-334.95 -36.7 L-335.45 -35.65 -332.85 -35.75 -334.95 -36.7 M85.95 190.6 L85.45 190.6 85.95 190.9 85.95 190.6 M351.8 -83.05 L352.1 -79.75 352.1 -83.1 351.8 -83.05 M273.9 -51.5 L274.7 -51.35 274.85 -52.25 274.25 -51.45 273.9 -51.5 M163.4 -38.65 L162.8 -38.6 163.4 -38.55 163.4 -38.65 M-119.85 184.7 L-120.0 184.1 -120.0 184.75 -119.85 184.7 M-262.75 191.05 L-262.8 191.05 -262.75 191.05 M-254.15 127.1 L-254.3 124.25 -255.15 124.6 -254.15 127.1 M-100.45 181.0 L-101.0 181.1 -100.4 181.35 -100.45 181.0" fill="url(#gradient0)" fill-rule="evenodd" stroke="none"/>
  </g>
  <defs>
    <radialGradient cx="0" cy="0" gradientTransform="matrix(0.5543, 0.0, 0.0, 0.4014, -26.0, 80.0)" gradientUnits="userSpaceOnUse" id="gradient0" r="819.2" spreadMethod="pad">
      <stop offset="0.0" stop-color="#28393e" stop-opacity="0.0"/>
      <stop offset="1.0" stop-color="#314633" stop-opacity="0.6431373"/>
    </radialGradient>
  </defs>
</svg>
