<?xml version="1.0" encoding="UTF-8" standalone="no"?>
<svg xmlns:xlink="http://www.w3.org/1999/xlink" height="419.85px" width="884.35px" xmlns="http://www.w3.org/2000/svg">
  <g transform="matrix(1.0, 0.0, 0.0, 1.0, 445.3, 207.9)">
    <path d="M251.75 -75.05 L251.75 -207.4 282.0 -207.4 282.0 -77.15 251.75 -75.05" fill="url(#gradient0)" fill-rule="evenodd" stroke="none"/>
    <path d="M69.75 -67.15 L69.75 -207.4 100.0 -207.4 100.0 -67.9 69.75 -67.15" fill="url(#gradient1)" fill-rule="evenodd" stroke="none"/>
    <path d="M282.0 -77.15 Q359.15 -82.8 436.55 -91.3 L438.55 202.45 -438.55 202.45 -439.55 -88.3 Q-367.0 -80.65 -294.25 -75.65 L-264.0 -73.7 Q-188.25 -69.1 -112.25 -67.3 L-82.0 -66.7 Q-6.25 -65.5 69.75 -67.15 L100.0 -67.9 Q175.75 -70.1 251.75 -75.05 L282.0 -77.15" fill="url(#gradient2)" fill-rule="evenodd" stroke="none"/>
    <path d="M-112.25 -67.3 L-112.25 -207.4 -82.0 -207.4 -82.0 -66.7 -112.25 -67.3" fill="url(#gradient3)" fill-rule="evenodd" stroke="none"/>
    <path d="M-294.25 -75.65 L-294.25 -207.4 -264.0 -207.4 -264.0 -73.7 -294.25 -75.65" fill="url(#gradient4)" fill-rule="evenodd" stroke="none"/>
    <path d="M251.75 -75.05 L251.75 -207.4 282.0 -207.4 282.0 -77.15 Q359.15 -82.8 436.55 -91.3 L438.55 202.45 -438.55 202.45 -439.55 -88.3 Q-367.0 -80.65 -294.25 -75.65 L-294.25 -207.4 -264.0 -207.4 -264.0 -73.7 Q-188.25 -69.1 -112.25 -67.3 L-112.25 -207.4 -82.0 -207.4 -82.0 -66.7 Q-6.25 -65.5 69.75 -67.15 L69.75 -207.4 100.0 -207.4 100.0 -67.9 Q175.75 -70.1 251.75 -75.05 L282.0 -77.15" fill="none" stroke="#000000" stroke-linecap="round" stroke-linejoin="round" stroke-width="1.0"/>
    <path d="M99.9 -67.95 L202.5 201.45 75.3 201.45 69.7 -67.35 99.9 -67.95" fill="url(#gradient5)" fill-rule="evenodd" stroke="none"/>
    <path d="M250.95 -75.5 L252.15 -75.0 282.0 -76.9 437.1 -14.0 437.65 69.25 250.95 -75.5" fill="url(#gradient6)" fill-rule="evenodd" stroke="none"/>
    <path d="M-263.8 -73.7 L-438.9 89.15 -439.2 1.0 -293.95 -75.6 -263.8 -73.7" fill="url(#gradient7)" fill-rule="evenodd" stroke="none"/>
    <path d="M-82.05 -66.75 L-92.35 201.45 -215.2 201.45 -112.2 -67.4 -82.05 -66.75" fill="url(#gradient8)" fill-rule="evenodd" stroke="none"/>
    <path d="M-238.0 105.3 L-295.0 134.0 -423.0 117.8 -423.5 116.35 -443.75 127.4 -445.3 111.25 -309.0 54.15 -400.5 103.9 -400.0 105.3 -298.0 127.8 -238.0 105.3 M-372.75 -81.95 L-372.0 -82.5 -360.0 -80.0 -348.0 -42.55 -303.0 2.35 -354.0 -37.6 -372.75 -81.95 M-292.25 204.35 L-121.05 125.7 -256.75 211.95 -292.25 204.35 M437.8 57.25 L435.25 85.65 370.95 50.4 346.95 21.7 373.95 37.9 437.8 57.25 M328.95 158.95 L213.95 155.25 184.95 119.05 221.45 145.25 318.95 144.0 320.9 142.25 277.95 70.35 373.65 203.85 358.5 205.2 330.2 157.85 328.95 158.95" fill="#000000" fill-opacity="0.101960786" fill-rule="evenodd" stroke="none"/>
    <path d="M52.35 35.65 L43.4 35.8 43.4 35.65 43.3 35.75 30.65 31.8 24.95 31.2 15.65 26.1 15.6 26.05 15.55 25.8 15.45 25.9 15.35 26.05 15.55 26.1 15.7 26.55 Q15.95 26.55 15.4 26.95 L14.15 27.25 11.95 29.8 11.4 30.4 11.15 31.15 10.35 31.4 9.6 33.75 12.4 34.5 15.45 35.75 17.3 36.55 18.6 37.2 19.0 37.55 19.75 38.1 20.75 37.55 23.9 36.85 24.45 36.55 Q24.6 36.2 24.75 36.2 L25.45 36.4 25.85 36.4 26.25 36.25 26.55 36.15 26.75 36.15 26.8 36.15 26.95 36.25 Q30.35 38.05 32.45 38.1 32.7 37.6 33.1 37.6 33.65 37.6 34.0 38.3 L36.65 38.3 36.2 37.75 Q36.55 37.0 36.95 37.0 38.2 36.95 38.2 38.4 L38.2 38.45 46.35 39.85 48.2 42.15 48.15 42.35 48.25 42.35 52.7 43.7 54.6 45.45 54.8 50.45 54.85 50.7 51.45 50.6 44.3 47.1 33.2 47.65 27.6 49.1 17.65 47.3 17.6 47.3 17.4 46.75 17.6 45.7 17.8 43.85 16.85 43.85 14.0 43.65 13.85 43.75 13.95 43.95 13.85 44.3 Q14.0 44.55 13.45 44.4 L12.35 43.5 9.4 43.45 8.75 43.5 8.15 43.85 7.5 43.35 5.75 42.85 5.25 42.7 Q3.85 42.15 3.15 41.25 L2.45 40.5 2.15 40.0 -0.65 40.65 -0.65 40.5 -0.7 40.5 Q-4.8 40.6 -7.95 41.85 L-5.0 43.3 -2.05 45.2 -0.45 46.45 0.6 47.3 1.2 46.15 6.15 45.8 Q7.75 46.95 9.1 47.5 11.45 49.8 13.3 48.5 L13.35 48.35 13.45 48.35 13.5 48.45 15.3 50.0 16.9 49.6 17.65 51.3 14.3 56.2 12.2 55.2 12.15 55.2 Q9.65 54.05 6.9 55.2 L3.3 54.75 1.3 53.5 1.1 53.6 -1.85 53.4 -4.5 52.7 -4.7 52.75 -4.6 52.9 -4.7 53.35 -5.2 53.3 -6.1 52.2 -8.95 51.55 -9.65 51.4 -10.3 51.55 -10.85 50.9 Q-11.7 50.6 -12.5 50.0 L-13.0 49.8 -14.35 48.65 Q-15.8 48.2 -16.95 46.8 L-17.0 47.0 -17.45 47.15 -17.65 46.75 -17.65 45.95 -19.2 43.0 -20.0 38.2 -22.55 36.0 -21.05 32.8 -22.45 34.35 -22.45 34.7 -22.55 35.0 Q-23.05 37.15 -24.55 38.4 -26.05 39.6 -27.75 39.1 -29.4 38.55 -30.25 36.6 -31.1 34.65 -30.55 32.5 -30.0 30.3 -28.5 29.15 L-27.85 28.6 -27.65 28.5 -27.3 28.45 -25.35 26.45 -25.35 26.4 -25.3 26.4 -25.1 26.15 -24.75 26.7 -24.45 27.0 -21.35 25.85 -20.15 30.9 -19.5 29.55 -19.55 29.15 Q-18.75 22.8 -15.8 21.4 L-14.3 23.85 -14.3 23.4 -14.25 23.0 -14.15 22.8 -14.0 22.8 -13.75 23.0 -13.4 24.05 -12.7 24.3 -10.65 23.8 -9.65 24.35 -9.35 24.55 -8.15 25.1 -8.1 25.1 -7.9 25.2 -1.3 26.55 Q-1.0 26.2 -0.55 26.35 0.45 25.75 1.45 25.45 L4.2 25.05 4.15 24.9 4.55 24.85 5.2 24.25 6.75 22.8 9.8 20.4 12.7 18.65 14.45 17.65 Q15.1 17.45 15.75 17.05 L16.2 16.8 19.7 16.65 19.75 16.7 19.9 17.85 20.5 17.7 23.75 18.15 24.3 18.05 24.6 17.85 25.25 18.2 25.75 18.35 26.0 18.35 26.4 18.35 26.5 18.4 26.6 18.55 26.85 18.75 29.35 20.95 30.4 21.65 31.8 22.35 Q32.05 21.85 32.45 22.05 33.05 22.25 33.25 23.1 L35.75 24.0 Q35.7 23.5 35.4 23.35 35.9 22.65 36.35 22.75 37.55 23.2 37.25 24.7 L44.8 28.85 45.45 30.2 47.25 29.5 51.75 28.7 54.0 29.45 55.55 34.3 54.8 34.5 53.95 35.0 52.35 35.65" fill="url(#gradient9)" fill-rule="evenodd" stroke="none"/>
  </g>
  <defs>
    <linearGradient gradientTransform="matrix(0.0185, 0.0, 0.0, 0.0808, 266.85, -141.25)" gradientUnits="userSpaceOnUse" id="gradient0" spreadMethod="pad" x1="-819.2" x2="819.2">
      <stop offset="0.0" stop-color="#5c2c2c"/>
      <stop offset="0.43529411764705883" stop-color="#221a1e"/>
      <stop offset="0.8156862745098039" stop-color="#261e22"/>
      <stop offset="0.9921568627450981" stop-color="#5c2c2c"/>
    </linearGradient>
    <linearGradient gradientTransform="matrix(0.0185, 0.0, 0.0, 0.0856, 84.85, -137.3)" gradientUnits="userSpaceOnUse" id="gradient1" spreadMethod="pad" x1="-819.2" x2="819.2">
      <stop offset="0.0" stop-color="#5c2c2c"/>
      <stop offset="0.3137254901960784" stop-color="#221a1e"/>
      <stop offset="0.7176470588235294" stop-color="#261e22"/>
      <stop offset="0.9921568627450981" stop-color="#5c2c2c"/>
    </linearGradient>
    <radialGradient cx="0" cy="0" gradientTransform="matrix(-1.0E-4, -0.2941, 0.7901, -2.0E-4, 8.0, 24.0)" gradientUnits="userSpaceOnUse" id="gradient2" r="819.2" spreadMethod="pad">
      <stop offset="0.23529411764705882" stop-color="#562a2a"/>
      <stop offset="0.5254901960784314" stop-color="#3a2c35"/>
      <stop offset="1.0" stop-color="#2e1f1f"/>
    </radialGradient>
    <linearGradient gradientTransform="matrix(0.0185, 0.0, 0.0, 0.0859, -97.15, -137.05)" gradientUnits="userSpaceOnUse" id="gradient3" spreadMethod="pad" x1="-819.2" x2="819.2">
      <stop offset="0.0" stop-color="#5c2c2c"/>
      <stop offset="0.3137254901960784" stop-color="#221a1e"/>
      <stop offset="0.7176470588235294" stop-color="#261e22"/>
      <stop offset="0.9921568627450981" stop-color="#5c2c2c"/>
    </linearGradient>
    <linearGradient gradientTransform="matrix(0.0185, 0.0, 0.0, 0.0816, -279.15, -140.55)" gradientUnits="userSpaceOnUse" id="gradient4" spreadMethod="pad" x1="-819.2" x2="819.2">
      <stop offset="0.0" stop-color="#5c2c2c"/>
      <stop offset="0.17647058823529413" stop-color="#221a1e"/>
      <stop offset="0.6" stop-color="#261e22"/>
      <stop offset="0.9921568627450981" stop-color="#5c2c2c"/>
    </linearGradient>
    <linearGradient gradientTransform="matrix(-0.0287, 0.1628, -0.1072, -0.0189, 134.4, 74.4)" gradientUnits="userSpaceOnUse" id="gradient5" spreadMethod="pad" x1="-819.2" x2="819.2">
      <stop offset="0.0" stop-color="#14161f" stop-opacity="0.42352942"/>
      <stop offset="0.7725490196078432" stop-color="#333c4d" stop-opacity="0.0"/>
    </linearGradient>
    <linearGradient gradientTransform="matrix(0.1129, 0.0901, -0.0259, 0.0325, 364.35, -28.55)" gradientUnits="userSpaceOnUse" id="gradient6" spreadMethod="pad" x1="-819.2" x2="819.2">
      <stop offset="0.0" stop-color="#000000" stop-opacity="0.42352942"/>
      <stop offset="0.7725490196078432" stop-color="#000000" stop-opacity="0.0"/>
    </linearGradient>
    <linearGradient gradientTransform="matrix(-0.104, 0.1018, -0.0287, -0.0293, -374.4, -15.4)" gradientUnits="userSpaceOnUse" id="gradient7" spreadMethod="pad" x1="-819.2" x2="819.2">
      <stop offset="0.0" stop-color="#000000" stop-opacity="0.42352942"/>
      <stop offset="0.7725490196078432" stop-color="#000000" stop-opacity="0.0"/>
    </linearGradient>
    <linearGradient gradientTransform="matrix(-0.0306, 0.1734, -0.0727, -0.0128, -130.5, 69.95)" gradientUnits="userSpaceOnUse" id="gradient8" spreadMethod="pad" x1="-819.2" x2="819.2">
      <stop offset="0.0" stop-color="#14161f" stop-opacity="0.42352942"/>
      <stop offset="0.7725490196078432" stop-color="#333c4d" stop-opacity="0.0"/>
    </linearGradient>
    <linearGradient gradientTransform="matrix(0.0, -0.0242, 0.0527, 0.0, 12.4, 36.4)" gradientUnits="userSpaceOnUse" id="gradient9" spreadMethod="pad" x1="-819.2" x2="819.2">
      <stop offset="0.0" stop-color="#1f2025" stop-opacity="0.2"/>
      <stop offset="0.4117647058823529" stop-color="#1c1d20"/>
    </linearGradient>
  </defs>
</svg>
