<?xml version="1.0" encoding="UTF-8" standalone="no"?>
<svg xmlns:xlink="http://www.w3.org/1999/xlink" height="349.05px" width="844.1px" xmlns="http://www.w3.org/2000/svg">
  <g transform="matrix(1.0, 0.0, 0.0, 1.0, 422.05, 140.15)">
    <path d="M70.15 -74.85 L95.1 -81.95 115.3 -65.35 141.4 -66.55 148.5 -79.6 219.75 -85.55 224.5 -106.9 275.55 -116.4 286.25 -105.7 306.45 -104.5 320.65 -134.2 358.65 -140.15 422.05 -95.05 422.05 208.9 -422.05 208.9 -422.05 -101.5 -380.95 -127.05 -357.2 -120.0 -344.2 -100.95 -308.55 -98.6 -289.55 -112.85 -270.6 -112.85 -245.65 -85.55 -229.0 -83.15 -226.65 -65.35 -214.8 -62.95 -207.65 -74.85 -150.65 -76.05 -141.15 -64.15 -112.65 -64.15 -99.6 -77.2 -56.85 -86.7 -41.45 -72.45 -28.4 -79.6 27.6 -85.35 70.15 -74.85" fill="url(#gradient0)" fill-rule="evenodd" stroke="none"/>
    <path d="M141.3 -66.0 L141.4 -66.55 148.5 -79.6 161.1 -80.65 218.55 -58.25 218.55 -49.9 217.4 -48.75 141.3 -66.0 M227.45 -107.45 L267.25 -83.15 261.3 -60.6 220.2 -87.6 224.5 -106.9 227.45 -107.45 M231.65 -44.0 L283.85 -44.0 283.85 -36.85 318.3 -4.8 294.6 5.85 232.8 -34.5 231.65 -42.8 231.65 -44.0 M352.4 -115.25 L353.55 -116.4 388.0 -117.6 367.8 -44.0 336.95 -80.8 318.3 -126.9 352.4 -115.25 M350.35 -30.25 L375.25 -20.75 382.4 23.2 342.05 -1.75 338.45 -1.75 337.3 -13.6 337.3 -14.8 350.35 -30.25 M-366.65 -114.5 L-370.95 -116.95 -367.95 -122.35 -367.7 -123.1 -357.2 -120.0 -344.2 -100.95 -358.45 -80.75 -361.1 -80.3 -361.4 -80.25 -385.75 -97.4 -371.35 -109.0 -366.65 -114.5 M-378.6 -33.3 L-402.3 -74.85 -319.25 -54.65 -308.8 -71.4 -308.55 -71.25 -306.2 -46.35 -280.05 -22.6 -324.0 10.65 -352.5 2.35 -408.3 33.2 -378.6 -33.3 M-253.95 -77.2 L-267.0 -72.45 -287.25 -68.35 -299.05 -76.0 -275.35 -111.65 -257.5 -95.0 -255.15 -80.75 -253.95 -77.2 M-277.65 -44.1 L-293.15 -52.3 -251.6 -60.6 -251.6 -48.7 -280.05 -33.3 -277.65 -44.1" fill="#000000" fill-opacity="0.14117648" fill-rule="evenodd" stroke="none"/>
    <path d="M355.1 97.3 L357.5 97.3 422.05 87.05 422.05 208.9 -422.05 208.9 -422.05 92.1 -379.8 98.5 -348.95 115.1 -267.0 147.15 -265.85 148.35 -116.25 165.0 24.5 153.05 89.15 138.85 237.55 131.7 355.1 97.3" fill="url(#gradient1)" fill-rule="evenodd" stroke="none"/>
    <path d="M355.25 97.5 L355.1 97.3 357.5 97.3 369.6 95.4 353.95 115.7 333.75 152.5 322.6 170.3 348.6 172.65 357.3 176.6 375.9 167.05 381.55 162.2 382.4 163.2 412.05 142.4 412.65 141.2 422.05 115.8 422.05 169.25 408.5 177.4 407.9 178.0 377.15 181.95 377.65 185.75 398.45 202.95 398.45 208.9 371.4 208.9 357.5 198.8 356.3 197.6 333.15 186.9 308.7 186.1 281.5 201.15 236.4 202.35 234.1 205.15 238.6 208.9 221.65 208.9 176.4 188.1 175.8 188.1 136.65 172.65 136.5 172.35 102.8 188.7 91.35 208.9 18.1 208.9 -8.25 194.05 -38.05 196.3 -37.9 198.2 -44.6 208.9 -71.45 208.9 -63.4 195.2 -126.7 173.7 -134.65 190.45 -135.25 190.45 -153.95 199.3 -153.65 199.95 -138.35 208.9 -229.4 208.9 -275.95 189.9 -307.4 154.85 -340.2 139.3 -388.75 165.55 -405.2 208.9 -422.05 208.9 -422.05 162.55 -386.95 139.4 -331.95 121.75 -309.25 130.65 -312.35 131.45 -286.65 153.65 -269.4 175.65 -268.85 176.25 -207.65 196.1 -172.05 186.9 -138.4 162.55 -122.25 164.35 -123.25 168.8 -76.5 179.2 -14.75 183.35 22.05 181.0 50.05 195.1 50.55 194.05 93.3 179.8 140.8 139.45 140.65 136.4 174.1 134.75 167.5 142.4 166.3 143.0 154.55 158.15 155.65 159.0 185.9 172.1 196.25 178.8 253.6 182.75 256.0 182.75 293.4 171.5 311.8 144.2 312.35 143.0 337.9 109.75 338.5 109.15 355.25 97.5" fill="url(#gradient2)" fill-rule="evenodd" stroke="none"/>
    <path d="M365.8 147.15 L330.35 143.2 Q351.95 144.75 371.7 138.85 L391.9 116.3 382.4 143.6 365.8 147.15 M355.1 175.05 L382.4 162.6 374.1 173.3 356.3 182.8 334.9 182.8 312.0 172.75 326.6 173.3 Q341.15 177.6 355.1 175.05 M269.6 156.65 L253.0 179.2 181.75 190.5 134.95 186.8 Q191.0 182.65 247.05 169.7 L269.6 156.65 M-287.2 169.7 L-313.35 166.7 -290.95 182.6 Q-322.75 173.4 -334.7 160.2 L-364.35 135.3 -363.25 133.3 Q-341.8 150.05 -312.85 159.2 -272.5 170.5 -230.2 167.35 -263.9 174.95 -287.2 169.7 M-383.45 161.5 L-366.75 173.3 -333.5 182.8 -333.5 183.95 -364.35 182.75 -375.05 177.4 -383.45 161.5" fill="#c0fa85" fill-opacity="0.101960786" fill-rule="evenodd" stroke="none"/>
    <path d="M55.7 -13.0 Q54.55 -11.35 53.75 -12.85 52.75 -14.3 54.7 -14.5 L55.2 -14.55 Q56.45 -13.8 55.7 -13.0 M111.0 -29.95 L110.75 -28.8 110.35 -28.15 Q108.25 -26.55 106.9 -28.3 106.1 -29.35 106.65 -30.6 107.2 -31.8 108.7 -32.15 L109.2 -32.25 Q109.8 -31.6 110.4 -31.1 L111.0 -29.95 M91.25 -13.85 Q94.35 -7.25 97.65 -1.05 L93.6 1.25 Q93.45 1.2 93.45 0.95 68.05 15.4 42.45 27.4 L-36.8 24.15 -36.8 23.2 Q-3.25 24.7 29.95 24.2 61.25 12.6 92.35 -1.6 L91.25 -13.85 M135.45 -18.05 L136.0 -18.2 Q150.0 -3.3 163.95 10.35 L216.65 23.45 164.95 17.5 147.35 28.75 121.75 44.6 139.05 28.75 155.15 13.4 Q145.4 -1.4 135.45 -18.05 M188.55 -21.7 L189.25 -21.85 189.75 -21.95 190.45 -21.35 191.45 -20.3 Q191.75 -19.75 191.65 -19.2 L191.4 -18.55 189.2 -17.55 Q187.1 -16.75 186.15 -18.1 185.7 -18.4 185.65 -19.1 L185.85 -19.6 187.4 -21.05 188.55 -21.7 M229.45 -18.65 Q232.75 -18.35 231.65 -16.05 230.6 -13.75 228.1 -15.2 225.95 -16.2 228.35 -18.15 L229.45 -18.65 M213.65 1.05 Q212.85 -0.4 215.05 -0.45 217.3 -0.05 215.95 1.15 214.3 2.4 213.65 1.05 M217.6 41.4 Q218.45 41.55 219.05 42.1 219.7 42.65 218.75 43.4 L216.75 43.5 Q215.6 43.3 215.0 42.9 214.1 42.25 214.8 41.6 L215.6 41.1 217.6 41.4 M69.85 19.8 L70.75 19.55 71.2 19.45 Q73.55 18.95 72.85 20.2 71.95 21.6 70.6 20.95 68.85 20.2 69.85 19.8 M222.8 62.8 Q111.25 74.0 -0.35 77.0 -72.9 59.8 -135.15 28.75 -147.35 22.7 -159.1 16.1 L-270.95 24.0 -165.35 9.15 Q-156.0 -2.9 -146.8 -15.95 -150.75 -2.75 -154.9 9.45 -138.7 19.4 -121.5 27.35 L-121.45 27.35 -118.45 28.75 Q-60.05 55.85 11.0 70.0 117.0 69.7 222.8 62.8 M-178.85 -25.5 L-179.0 -26.0 -178.05 -26.8 -176.3 -27.65 -175.05 -27.95 -174.55 -27.9 Q-172.65 -26.65 -173.7 -25.2 -174.4 -23.95 -176.1 -24.1 -178.0 -24.0 -178.85 -25.5 M-106.95 -3.9 Q-104.4 -3.0 -105.65 -1.3 -106.9 0.35 -108.75 -1.6 -110.5 -3.35 -108.0 -3.75 L-106.95 -3.9 M-115.7 25.45 Q-116.45 26.85 -119.35 26.45 L-120.7 26.1 Q-122.45 25.45 -122.4 23.95 -122.25 23.05 -121.25 22.7 L-119.35 22.2 -117.35 23.1 Q-116.35 23.55 -115.9 23.95 -115.1 24.8 -115.7 25.45 M-160.1 37.5 L-160.15 37.95 Q-160.15 38.35 -160.5 38.9 -160.85 39.75 -162.15 40.15 L-165.35 40.9 -168.55 39.7 Q-170.1 38.8 -170.45 37.65 -170.65 36.5 -170.0 35.7 L-169.5 35.2 Q-169.1 34.95 -168.7 34.85 -168.15 34.5 -167.6 34.5 L-165.35 34.3 -165.35 34.25 -163.3 34.8 Q-162.5 35.05 -162.05 35.45 -161.4 35.8 -160.95 36.5 -160.45 36.9 -160.1 37.5 M-137.15 53.5 Q-137.15 54.0 -137.5 54.5 -137.95 55.25 -139.2 55.75 L-142.4 56.5 -145.65 55.3 Q-147.2 54.45 -147.55 53.35 -147.8 52.2 -147.0 51.45 L-146.55 50.95 -145.75 50.55 Q-145.2 50.2 -144.65 50.25 L-142.4 50.0 -142.35 49.9 Q-141.25 50.0 -140.3 50.45 -139.6 50.65 -139.1 51.05 L-137.95 52.05 -137.15 53.05 -137.15 53.5 M-87.0 61.9 Q-84.05 61.55 -84.1 63.15 -84.1 63.55 -85.05 63.7 -88.25 64.2 -88.05 62.7 -87.85 62.0 -87.0 61.9 M-186.8 57.9 L-186.7 57.45 -186.05 56.45 -185.2 56.05 -184.15 55.9 Q-181.7 56.1 -181.4 57.7 -180.95 58.85 -182.65 59.55 -184.75 60.4 -186.45 58.85 L-186.85 58.35 -186.8 57.9 M-321.65 51.15 Q-319.6 52.55 -321.55 53.35 -323.5 54.2 -324.25 52.65 -324.9 50.8 -322.15 51.15 L-321.65 51.15 M-292.5 60.0 Q-236.75 78.15 -172.75 84.65 L-245.9 80.8 Q-269.2 70.5 -292.5 60.0" fill="#000000" fill-opacity="0.15294118" fill-rule="evenodd" stroke="none"/>
  </g>
  <defs>
    <radialGradient cx="0" cy="0" gradientTransform="matrix(1.0E-4, -0.3304, 0.8539, 4.0E-4, -23.75, 112.8)" gradientUnits="userSpaceOnUse" id="gradient0" r="819.2" spreadMethod="pad">
      <stop offset="0.0" stop-color="#3a4334"/>
      <stop offset="0.45098039215686275" stop-color="#25211f"/>
      <stop offset="1.0" stop-color="#141812"/>
    </radialGradient>
    <radialGradient cx="0" cy="0" gradientTransform="matrix(1.0E-4, -0.2663, 0.666, 2.0E-4, -24.9, 89.05)" gradientUnits="userSpaceOnUse" id="gradient1" r="819.2" spreadMethod="pad">
      <stop offset="0.3686274509803922" stop-color="#52742e" stop-opacity="0.0"/>
      <stop offset="1.0" stop-color="#0e170b"/>
    </radialGradient>
    <linearGradient gradientTransform="matrix(9.0E-4, 0.0695, -0.5159, 0.0068, -0.05, 157.3)" gradientUnits="userSpaceOnUse" id="gradient2" spreadMethod="pad" x1="-819.2" x2="819.2">
      <stop offset="0.0" stop-color="#7a9c54" stop-opacity="0.18039216"/>
      <stop offset="1.0" stop-color="#7a9c54" stop-opacity="0.0"/>
    </linearGradient>
  </defs>
</svg>
