<?xml version="1.0" encoding="UTF-8" standalone="no"?>
<svg xmlns:xlink="http://www.w3.org/1999/xlink" height="419.85px" width="884.35px" xmlns="http://www.w3.org/2000/svg">
  <g transform="matrix(1.0, 0.0, 0.0, 1.0, 445.3, 207.9)">
    <path d="M282.0 -77.15 Q359.15 -82.8 436.55 -91.3 L438.55 202.45 -438.55 202.45 -439.55 -88.3 Q-367.0 -80.65 -294.25 -75.65 L-264.0 -73.7 Q-188.25 -69.1 -112.25 -67.3 L-82.0 -66.7 Q-6.25 -65.5 69.75 -67.15 L100.0 -67.9 Q175.75 -70.1 251.75 -75.05 L282.0 -77.15" fill="url(#gradient0)" fill-rule="evenodd" stroke="none"/>
    <path d="M-112.25 -67.3 L-112.25 -207.4 -82.0 -207.4 -82.0 -66.7 -112.25 -67.3" fill="url(#gradient1)" fill-rule="evenodd" stroke="none"/>
    <path d="M69.75 -67.15 L69.75 -207.4 100.0 -207.4 100.0 -67.9 69.75 -67.15" fill="url(#gradient2)" fill-rule="evenodd" stroke="none"/>
    <path d="M251.75 -75.05 L251.75 -207.4 282.0 -207.4 282.0 -77.15 251.75 -75.05" fill="url(#gradient3)" fill-rule="evenodd" stroke="none"/>
    <path d="M-294.25 -75.65 L-294.25 -207.4 -264.0 -207.4 -264.0 -73.7 -294.25 -75.65" fill="url(#gradient4)" fill-rule="evenodd" stroke="none"/>
    <path d="M251.75 -75.05 L251.75 -207.4 282.0 -207.4 282.0 -77.15 Q359.15 -82.8 436.55 -91.3 L438.55 202.45 -438.55 202.45 -439.55 -88.3 Q-367.0 -80.65 -294.25 -75.65 L-294.25 -207.4 -264.0 -207.4 -264.0 -73.7 Q-188.25 -69.1 -112.25 -67.3 L-112.25 -207.4 -82.0 -207.4 -82.0 -66.7 Q-6.25 -65.5 69.75 -67.15 L69.75 -207.4 100.0 -207.4 100.0 -67.9 Q175.75 -70.1 251.75 -75.05 L282.0 -77.15" fill="none" stroke="#000000" stroke-linecap="round" stroke-linejoin="round" stroke-width="1.0"/>
    <path d="M252.15 -75.0 L282.0 -76.9 437.1 -14.0 437.65 69.25 250.95 -75.5 252.15 -75.0" fill="url(#gradient5)" fill-rule="evenodd" stroke="none"/>
    <path d="M-263.8 -73.7 L-438.9 89.15 -439.2 1.0 -293.95 -75.6 -263.8 -73.7" fill="url(#gradient6)" fill-rule="evenodd" stroke="none"/>
    <path d="M99.9 -67.95 L202.5 201.45 75.3 201.45 69.7 -67.35 99.9 -67.95" fill="url(#gradient7)" fill-rule="evenodd" stroke="none"/>
    <path d="M-82.05 -66.75 L-92.35 201.45 -215.2 201.45 -112.2 -67.4 -82.05 -66.75" fill="url(#gradient8)" fill-rule="evenodd" stroke="none"/>
    <path d="M-298.0 127.8 L-238.0 105.3 -295.0 134.0 -423.0 117.8 -423.5 116.35 -443.75 127.4 -445.3 111.25 -309.0 54.15 -400.5 103.9 -400.0 105.3 -298.0 127.8 M-372.75 -81.95 L-372.0 -82.5 -360.0 -80.0 -348.0 -42.55 -303.0 2.35 -354.0 -37.6 -372.75 -81.95 M-292.25 204.35 L-121.05 125.7 -256.75 211.95 -292.25 204.35 M437.8 57.25 L435.25 85.65 370.95 50.4 346.95 21.7 373.95 37.9 437.8 57.25 M328.95 158.95 L213.95 155.25 184.95 119.05 221.45 145.25 318.95 144.0 320.9 142.25 277.95 70.35 373.65 203.85 358.5 205.2 330.2 157.85 328.95 158.95" fill="#000000" fill-opacity="0.101960786" fill-rule="evenodd" stroke="none"/>
  </g>
  <defs>
    <radialGradient cx="0" cy="0" gradientTransform="matrix(-1.0E-4, -0.2941, 0.7901, -2.0E-4, 8.0, 24.0)" gradientUnits="userSpaceOnUse" id="gradient0" r="819.2" spreadMethod="pad">
      <stop offset="0.0" stop-color="#656245"/>
      <stop offset="0.4588235294117647" stop-color="#34392d"/>
      <stop offset="0.9803921568627451" stop-color="#242b42"/>
    </radialGradient>
    <linearGradient gradientTransform="matrix(0.0185, 0.0, 0.0, 0.0859, -97.15, -137.05)" gradientUnits="userSpaceOnUse" id="gradient1" spreadMethod="pad" x1="-819.2" x2="819.2">
      <stop offset="0.0" stop-color="#4d4e39"/>
      <stop offset="0.3137254901960784" stop-color="#2f3532"/>
      <stop offset="0.7176470588235294" stop-color="#2c3236"/>
      <stop offset="0.9921568627450981" stop-color="#4c4d38"/>
    </linearGradient>
    <linearGradient gradientTransform="matrix(0.0185, 0.0, 0.0, 0.0856, 84.85, -137.3)" gradientUnits="userSpaceOnUse" id="gradient2" spreadMethod="pad" x1="-819.2" x2="819.2">
      <stop offset="0.0" stop-color="#4d4e39"/>
      <stop offset="0.3137254901960784" stop-color="#2f3532"/>
      <stop offset="0.7176470588235294" stop-color="#2c3236"/>
      <stop offset="0.9921568627450981" stop-color="#4c4d38"/>
    </linearGradient>
    <linearGradient gradientTransform="matrix(0.0185, 0.0, 0.0, 0.0808, 266.85, -141.25)" gradientUnits="userSpaceOnUse" id="gradient3" spreadMethod="pad" x1="-819.2" x2="819.2">
      <stop offset="0.0" stop-color="#4d4e39"/>
      <stop offset="0.41568627450980394" stop-color="#2f3532"/>
      <stop offset="0.8352941176470589" stop-color="#2c3236"/>
      <stop offset="0.9921568627450981" stop-color="#4c4d38"/>
    </linearGradient>
    <linearGradient gradientTransform="matrix(0.0185, 0.0, 0.0, 0.0816, -279.15, -140.55)" gradientUnits="userSpaceOnUse" id="gradient4" spreadMethod="pad" x1="-819.2" x2="819.2">
      <stop offset="0.0" stop-color="#4d4e39"/>
      <stop offset="0.13725490196078433" stop-color="#2f3532"/>
      <stop offset="0.6666666666666666" stop-color="#2c3236"/>
      <stop offset="0.9921568627450981" stop-color="#4c4d38"/>
    </linearGradient>
    <linearGradient gradientTransform="matrix(0.1129, 0.0901, -0.0259, 0.0325, 364.35, -28.55)" gradientUnits="userSpaceOnUse" id="gradient5" spreadMethod="pad" x1="-819.2" x2="819.2">
      <stop offset="0.0" stop-color="#000000" stop-opacity="0.42352942"/>
      <stop offset="0.7725490196078432" stop-color="#000000" stop-opacity="0.0"/>
    </linearGradient>
    <linearGradient gradientTransform="matrix(-0.104, 0.1018, -0.0287, -0.0293, -374.4, -15.4)" gradientUnits="userSpaceOnUse" id="gradient6" spreadMethod="pad" x1="-819.2" x2="819.2">
      <stop offset="0.0" stop-color="#000000" stop-opacity="0.42352942"/>
      <stop offset="0.7725490196078432" stop-color="#000000" stop-opacity="0.0"/>
    </linearGradient>
    <linearGradient gradientTransform="matrix(-0.0287, 0.1628, -0.1072, -0.0189, 134.4, 74.4)" gradientUnits="userSpaceOnUse" id="gradient7" spreadMethod="pad" x1="-819.2" x2="819.2">
      <stop offset="0.0" stop-color="#14161f" stop-opacity="0.42352942"/>
      <stop offset="0.7725490196078432" stop-color="#333c4d" stop-opacity="0.0"/>
    </linearGradient>
    <linearGradient gradientTransform="matrix(-0.0306, 0.1734, -0.0727, -0.0128, -130.5, 69.95)" gradientUnits="userSpaceOnUse" id="gradient8" spreadMethod="pad" x1="-819.2" x2="819.2">
      <stop offset="0.0" stop-color="#14161f" stop-opacity="0.42352942"/>
      <stop offset="0.7725490196078432" stop-color="#333c4d" stop-opacity="0.0"/>
    </linearGradient>
  </defs>
</svg>
