<?xml version="1.0" encoding="UTF-8" standalone="no"?>
<svg xmlns:xlink="http://www.w3.org/1999/xlink" height="371.55px" width="540.35px" xmlns="http://www.w3.org/2000/svg">
  <g transform="matrix(1.0, 0.0, 0.0, 1.0, 266.0, 193.15)">
    <path d="M51.8 -79.65 Q41.15 -79.95 30.35 -79.1 L13.45 -77.4 -8.45 -76.4 Q-12.75 -76.45 -15.75 -79.8 -19.15 -83.7 -23.8 -85.6 -32.05 -88.85 -40.1 -92.35 -50.45 -96.7 -57.6 -105.05 -64.05 -112.6 -67.05 -121.95 -69.05 -128.2 -70.05 -134.8 -71.65 -144.95 -76.6 -154.1 -81.2 -162.45 -88.7 -168.55 L-97.3 -175.6 Q-102.9 -180.2 -106.1 -186.85 L-105.75 -187.1 Q-100.9 -187.5 -96.4 -185.85 -91.95 -184.45 -88.4 -181.25 -77.95 -171.95 -71.4 -160.1 L-70.95 -159.9 -66.6 -146.0 -66.1 -145.95 Q-65.55 -141.3 -65.35 -136.6 -64.4 -117.1 -49.55 -104.95 -45.4 -101.6 -40.2 -100.15 -22.55 -95.05 -3.85 -94.9 26.9 -93.1 57.3 -88.5 84.65 -84.4 112.2 -82.7 117.3 -82.4 122.25 -80.8 124.5 -80.0 125.45 -77.65 127.5 -72.8 127.45 -67.45 127.25 -51.0 118.6 -36.65 L117.65 -41.65 Q116.5 -46.95 114.1 -51.55 L111.4 -48.9 Q105.35 -43.0 102.7 -38.6 L104.15 -38.75 104.25 -38.65 101.3 -35.8 101.25 -35.75 98.65 -30.2 Q97.0 -26.7 97.0 -24.5 L96.5 -18.6 Q96.0 -14.75 96.0 -13.65 96.0 -6.6 104.4 -3.25 110.55 -0.85 123.4 0.05 L127.75 0.35 Q123.8 -1.45 120.05 -3.95 L150.6 -1.3 Q159.25 -0.5 163.4 7.25 L164.25 8.8 Q161.55 10.8 158.95 10.25 L159.15 10.7 160.5 14.0 156.45 14.0 156.45 31.05 156.35 30.9 Q155.3 29.3 154.65 26.9 L153.75 23.75 Q150.35 17.5 150.0 16.25 148.3 10.25 144.75 8.3 141.9 6.75 136.95 7.55 L127.65 9.7 Q121.7 11.05 117.75 10.5 108.0 9.2 102.45 7.25 100.1 6.45 96.75 4.5 L92.15 2.4 Q89.3 1.05 88.5 -0.75 87.25 -3.6 86.55 -8.0 86.0 -11.35 86.0 -13.9 86.0 -16.45 86.65 -20.4 L79.25 -19.55 68.65 -32.2 68.6 -40.2 69.0 -40.55 Q70.1 -38.85 71.95 -36.65 77.25 -30.4 83.0 -30.4 85.45 -30.4 89.25 -32.25 91.0 -39.3 92.25 -42.0 94.25 -46.45 98.75 -51.35 103.05 -56.0 107.7 -58.95 L108.6 -59.5 107.7 -60.45 Q100.35 -68.2 90.6 -72.25 80.5 -76.55 69.5 -78.0 L51.8 -79.65" fill="url(#gradient0)" fill-rule="evenodd" stroke="none"/>
    <path d="M202.75 39.95 L201.75 42.9 200.5 46.1 Q199.75 47.5 198.75 47.5 L198.05 47.4 197.95 47.85 197.95 47.35 Q197.2 47.1 196.95 46.35 L196.75 45.1 Q196.75 44.05 197.25 43.05 L197.25 43.0 196.75 43.05 195.85 43.25 194.75 42.85 192.05 46.05 Q186.05 53.65 185.15 60.7 184.55 65.35 185.6 70.95 186.75 77.0 189.2 80.5 197.1 91.95 200.25 95.0 201.0 94.05 202.3 93.3 202.45 92.05 204.4 90.7 L208.4 87.5 210.85 84.15 Q212.8 82.35 215.15 84.85 L219.55 87.55 223.75 90.5 Q224.35 91.0 224.75 92.25 L224.8 92.35 225.15 92.5 226.8 92.7 Q228.15 92.85 229.15 93.6 230.55 94.6 231.55 94.95 L233.85 95.75 240.1 98.05 Q243.7 99.3 245.85 100.75 248.15 102.3 252.0 104.3 253.9 105.4 254.5 106.55 L256.0 107.2 258.85 108.0 260.35 108.25 Q261.15 108.4 262.25 109.0 L263.35 109.9 264.25 110.75 266.1 112.35 267.85 114.25 270.1 116.15 271.75 117.85 Q272.85 119.9 273.0 121.5 L273.0 124.95 272.9 128.95 271.25 133.6 270.75 135.7 Q270.45 137.2 270.0 137.9 268.65 139.9 267.75 142.0 L265.7 146.9 260.55 162.35 260.2 162.3 260.15 162.65 Q260.0 163.6 260.1 166.5 259.9 169.0 258.0 169.0 256.2 169.0 255.95 167.45 L256.0 165.6 255.75 162.0 255.15 158.05 Q255.0 157.1 255.0 155.05 L255.0 153.4 Q255.15 152.55 255.6 152.3 L256.0 151.9 254.9 149.2 253.75 146.5 253.8 145.95 Q252.35 145.7 251.7 143.6 L251.1 140.35 Q250.9 139.3 249.65 137.4 L247.6 134.5 244.35 128.75 Q243.75 127.55 241.6 125.3 239.55 123.2 238.9 123.0 L236.35 121.95 235.85 120.35 233.75 117.5 231.1 114.55 Q229.4 112.8 227.25 111.75 220.4 107.55 217.7 106.25 216.05 105.45 213.65 105.0 213.1 106.75 212.2 107.4 210.2 108.85 204.3 108.1 189.3 106.2 180.75 85.7 177.6 78.3 176.1 70.1 174.8 63.05 175.25 59.65 175.45 57.85 176.5 54.5 177.55 51.2 178.6 48.65 172.9 47.05 169.7 44.4 L170.65 43.4 171.85 41.4 Q172.7 40.6 175.0 39.4 176.95 38.4 177.6 37.4 L178.0 36.6 Q179.2 37.85 180.5 38.05 184.05 38.5 187.0 35.95 L186.8 35.7 Q185.5 34.25 185.5 33.25 184.35 33.35 183.7 32.8 L183.1 32.75 183.4 32.5 183.35 32.4 Q183.0 31.9 183.0 31.25 183.0 30.15 183.95 29.7 L188.0 28.1 191.65 27.8 Q194.1 28.0 195.35 28.75 L196.8 29.35 Q197.6 29.65 197.9 30.15 L200.0 32.1 202.0 34.1 Q202.55 35.15 202.7 35.95 L202.75 37.85 202.75 39.95 M238.25 138.4 L235.45 136.65 Q234.5 135.75 234.5 134.75 234.5 133.0 236.5 132.75 237.55 132.8 238.55 133.65 L240.25 135.0 Q245.5 137.65 245.5 140.05 L245.05 141.2 Q244.4 142.0 243.5 142.0 242.55 142.0 240.75 140.45 L238.25 138.4" fill="url(#gradient1)" fill-rule="evenodd" stroke="none"/>
    <path d="M-106.1 -186.85 Q-102.9 -180.2 -97.3 -175.6 L-88.7 -168.55 Q-81.2 -162.45 -76.6 -154.1 -71.65 -144.95 -70.05 -134.8 -69.05 -128.2 -67.05 -121.95 -64.05 -112.6 -57.6 -105.05 -50.45 -96.7 -40.1 -92.35 -32.05 -88.85 -23.8 -85.6 -19.15 -83.7 -15.75 -79.8 -12.75 -76.45 -8.45 -76.4 L13.45 -77.4 30.35 -79.1 Q41.15 -79.95 51.8 -79.65 L69.5 -78.0 Q80.5 -76.55 90.6 -72.25 100.35 -68.2 107.7 -60.45 115.3 -52.55 117.65 -41.65 L118.6 -36.65 Q127.25 -51.0 127.45 -67.45 127.5 -72.8 125.45 -77.65 124.5 -80.0 122.25 -80.8 117.3 -82.4 112.2 -82.7 84.65 -84.4 57.3 -88.5 26.9 -93.1 -3.85 -94.9 -22.55 -95.05 -40.2 -100.15 -45.4 -101.6 -49.55 -104.95 -64.4 -117.1 -65.35 -136.6 -65.55 -141.3 -66.1 -145.95 L-66.1 -146.0 -66.6 -146.0 -70.95 -159.9 -71.4 -160.1 Q-77.95 -171.95 -88.4 -181.25 -91.95 -184.45 -96.4 -185.85 -100.9 -187.5 -105.75 -187.1 L-106.3 -187.1 -106.15 -186.85 -106.1 -186.85 M67.75 -89.65 L121.0 -85.4 Q125.5 -85.15 128.0 -79.4 L129.3 -73.65 130.4 -67.0 Q130.4 -56.35 124.65 -42.85 L114.9 -23.05 114.65 -22.6 115.0 -22.75 115.3 -22.85 Q115.4 -22.35 114.5 -18.9 L113.55 -15.2 114.35 -14.55 114.65 -13.1 115.15 -11.75 118.55 -8.85 118.35 -8.45 119.3 -7.45 124.55 -6.35 128.7 -6.0 147.75 -5.1 Q154.15 -4.8 158.25 -2.4 160.25 -1.2 163.25 1.9 166.55 5.35 168.5 9.85 170.0 13.4 170.45 16.95 167.65 28.8 162.3 39.75 160.6 44.3 160.25 46.9 L159.65 51.25 166.25 45.95 174.0 39.5 176.95 36.3 179.25 33.85 Q179.25 33.35 179.55 33.0 L180.6 31.75 181.4 30.7 Q181.7 30.4 182.1 30.4 L182.85 28.45 182.8 29.9 182.6 30.4 182.75 30.4 Q186.55 26.8 191.3 26.35 196.85 25.9 200.4 29.85 204.15 34.05 203.25 41.0 202.65 45.25 200.55 48.7 200.1 52.2 200.4 55.0 201.0 60.8 204.7 65.75 207.2 69.0 210.9 76.05 214.8 82.6 221.1 87.05 225.8 90.4 237.4 96.15 L261.65 107.7 Q269.8 111.55 272.8 118.75 274.9 123.75 274.2 129.0 273.6 133.35 270.15 141.45 L270.0 141.9 269.65 143.65 269.25 145.7 Q268.6 150.5 269.2 153.25 L271.3 157.25 Q273.25 160.65 273.2 161.0 L266.15 151.05 265.15 153.55 262.15 162.85 262.9 163.05 263.1 162.9 263.1 163.65 262.75 164.55 262.2 164.7 261.55 164.6 261.25 165.6 Q259.1 172.8 258.2 178.4 L257.7 178.35 257.9 175.65 258.0 173.2 258.35 171.15 257.95 172.35 Q257.1 174.45 254.85 174.15 L253.45 173.85 250.6 175.6 137.25 160.6 135.55 154.0 -263.0 154.0 -265.45 151.9 -266.0 151.25 Q-266.0 149.45 -263.0 148.0 L-262.8 148.0 -262.95 146.55 -263.0 146.25 -262.95 145.65 -263.0 142.9 Q-264.5 142.3 -264.55 139.4 L-265.25 139.05 Q-265.35 139.75 -265.35 138.5 -265.35 137.85 -264.4 137.55 L-264.35 134.05 -264.4 129.55 -264.25 125.05 -264.2 120.55 Q-264.15 117.85 -264.25 116.05 -264.3 114.6 -264.95 111.55 L-265.35 109.3 -265.85 109.3 -265.85 -186.65 Q-264.9 -187.6 -259.1 -187.5 -250.55 -187.15 -244.65 -187.15 L-213.7 -188.65 -199.5 -190.65 -188.4 -192.4 -168.75 -193.0 Q-146.1 -192.6 -140.3 -191.15 L-110.8 -190.25 -110.9 -190.6 -110.75 -192.65 -110.4 -192.65 -108.5 -190.25 Q-98.5 -190.35 -96.6 -189.95 -93.95 -189.5 -89.75 -186.25 L-86.65 -184.35 Q-84.95 -183.3 -84.25 -182.15 L-84.65 -181.45 -80.1 -175.4 -76.0 -170.8 Q-75.7 -171.65 -73.7 -171.35 -71.3 -171.05 -68.35 -169.4 -62.95 -166.4 -61.3 -162.5 L-61.0 -162.25 Q-59.65 -161.25 -59.35 -159.25 L-59.25 -155.9 Q-59.25 -153.15 -59.95 -151.2 -60.95 -148.45 -63.6 -146.45 L-63.5 -143.9 -62.3 -135.35 -58.65 -137.15 -53.5 -139.15 -52.7 -138.75 Q-52.35 -138.45 -52.35 -137.6 -52.35 -136.55 -54.45 -131.25 -56.05 -127.1 -57.35 -125.15 -58.2 -122.15 -58.9 -120.45 L-58.05 -118.5 Q-54.4 -111.05 -48.0 -106.75 -43.3 -103.6 -38.45 -101.9 -30.15 -99.05 -17.25 -98.15 L2.3 -97.2 12.0 -96.9 14.4 -96.45 18.5 -95.9 38.5 -93.9 52.35 -91.85 67.75 -89.65 M68.6 -40.2 L68.65 -32.2 79.25 -19.55 93.8 -21.25 Q96.05 -31.75 104.25 -38.65 L104.4 -38.75 104.15 -38.75 Q99.95 -38.75 93.3 -34.55 86.65 -30.4 83.0 -30.4 77.25 -30.4 71.95 -36.65 70.1 -38.85 69.0 -40.55 L68.65 -41.15 68.6 -40.2 M150.6 -1.3 L120.05 -3.95 Q133.25 4.9 149.4 4.85 152.65 5.5 154.95 7.8 159.5 12.35 164.25 8.8 L163.4 7.25 Q159.25 -0.5 150.6 -1.3 M165.65 11.15 L165.6 11.2 165.75 11.4 165.65 11.15 M167.3 24.3 L167.25 24.3 167.25 24.4 167.3 24.3 M183.95 32.6 Q197.55 33.6 198.2 47.65 L198.65 45.6 199.1 45.7 200.3 42.85 Q203.1 34.55 195.35 30.8 190.2 28.35 185.7 30.9 L183.95 32.6 M222.95 91.3 Q217.9 88.4 212.85 85.7 204.45 90.4 199.55 99.25 L197.65 102.55 Q211.65 100.15 224.6 105.9 233.75 110.2 241.0 117.1 246.55 122.4 250.05 128.8 254.75 137.45 256.4 147.15 257.55 154.25 257.35 161.45 L257.7 162.1 260.3 162.5 Q266.95 143.95 271.75 125.15 272.1 123.75 271.65 122.35 269.8 116.5 264.45 113.25 252.9 105.95 240.55 100.25 231.65 96.25 222.95 91.3 M258.5 164.6 Q258.85 166.75 258.7 168.95 L258.65 169.3 259.8 164.35 258.45 164.2 258.5 164.6 M119.65 140.8 L119.75 140.4 119.65 140.4 119.65 140.8 M-175.0 -84.75 L-174.75 -84.65 -174.7 -84.7 -174.45 -86.0 -175.0 -84.75 M-55.4 -135.6 L-55.35 -135.5 -55.1 -135.75 -55.4 -135.6 M-65.2 -147.5 L-64.75 -148.25 -65.1 -148.35 -65.2 -147.5 M-60.0 -123.45 L-59.9 -123.05 -59.7 -123.55 -60.0 -123.45 M-113.5 -187.1 L-114.45 -187.1 -113.5 -186.8 -113.5 -187.1 M-104.35 -178.3 L-104.35 -177.5 -104.05 -177.75 -104.35 -178.3 M-107.5 -183.9 L-107.95 -184.7 -108.0 -184.75 -108.5 -184.5 -107.5 -183.9" fill="#000000" fill-rule="evenodd" stroke="none"/>
    <path d="M-106.15 -186.85 L-106.3 -187.1 -105.75 -187.1 -106.15 -186.85 M69.0 -40.55 L68.6 -40.2 68.65 -41.15 69.0 -40.55 M-107.5 -183.9 L-108.5 -184.5 -108.0 -184.75 -107.95 -184.7 -107.5 -183.9 M-104.35 -178.3 L-104.05 -177.75 -104.35 -177.5 -104.35 -178.3" fill="#ffffff" fill-rule="evenodd" stroke="none"/>
    <path d="M-106.1 -186.85 L-106.15 -186.85 -105.75 -187.1 -106.1 -186.85" fill="#454c27" fill-rule="evenodd" stroke="none"/>
    <path d="M-103.1 -102.05 Q-92.75 -98.95 -84.3 -92.2 L-80.85 -88.5 Q-62.75 -68.6 -69.15 -41.65 L-69.25 -41.1 -69.65 -39.75 Q-70.8 -35.95 -72.65 -32.7 L-72.65 -33.15 -72.85 -32.9 -73.3 -32.45 -73.25 -32.25 -73.45 -32.4 -73.5 -32.4 Q-74.0 -32.5 -74.15 -32.9 L-77.5 -35.2 -78.65 -36.1 Q-82.95 -39.2 -89.5 -42.1 -106.15 -49.55 -124.8 -50.65 L-121.25 -50.55 -132.5 -51.7 -133.85 -51.4 -135.9 -52.1 -136.0 -53.9 Q-122.35 -68.85 -115.25 -87.85 -112.75 -94.45 -111.0 -101.05 L-110.9 -102.2 Q-107.25 -103.4 -103.1 -102.05" fill="url(#gradient2)" fill-rule="evenodd" stroke="none"/>
    <path d="M58.1 -2.55 L59.1 -2.05 Q57.55 9.4 56.6 20.85 55.35 36.25 59.75 50.8 62.35 59.5 65.5 68.05 73.5 89.4 82.75 110.1 86.65 118.85 91.55 127.05 94.9 132.8 99.1 137.95 L104.4 144.25 Q109.1 149.5 112.2 156.0 L113.2 158.1 Q110.7 157.0 108.9 154.7 L78.05 115.05 Q72.05 107.35 66.7 99.15 60.7 89.85 55.6 80.2 51.35 71.95 50.35 62.85 49.4 54.05 50.45 45.1 L52.75 26.2 Q53.85 17.95 55.5 9.85 L58.1 -2.55" fill="url(#gradient3)" fill-rule="evenodd" stroke="none"/>
    <path d="M-188.75 -164.75 Q-187.45 -163.8 -184.65 -160.4 -184.2 -159.85 -182.25 -158.35 L-179.65 -156.1 Q-178.9 -155.1 -177.05 -153.95 L-173.5 -151.85 -171.2 -149.8 -169.35 -147.5 Q-167.85 -145.85 -163.95 -143.05 L-158.65 -138.9 Q-155.85 -136.2 -153.55 -134.5 -150.15 -132.0 -146.4 -130.5 L-138.75 -127.65 Q-133.5 -125.65 -131.1 -124.1 -125.35 -120.3 -122.55 -115.65 -120.0 -111.45 -120.0 -106.85 -120.0 -103.4 -121.0 -99.8 L-122.0 -95.75 -121.35 -91.8 Q-120.75 -87.6 -120.75 -85.0 L-120.95 -80.6 Q-121.05 -79.4 -121.9 -78.5 L-122.3 -77.45 -122.45 -76.45 -121.75 -73.85 -121.75 -72.9 -122.2 -72.9 Q-122.2 -74.1 -123.05 -76.7 L-123.95 -79.45 Q-123.2 -82.0 -123.2 -82.25 L-123.2 -85.1 -123.7 -90.5 Q-123.8 -92.15 -124.15 -93.45 L-124.45 -95.85 Q-124.45 -97.55 -123.45 -101.1 -122.45 -104.65 -122.45 -106.85 -122.45 -110.8 -125.6 -115.45 -129.25 -120.75 -134.9 -123.35 L-141.6 -125.95 -142.2 -126.15 Q-144.35 -126.85 -146.4 -127.8 -149.5 -129.0 -150.45 -129.5 -152.55 -130.6 -155.65 -133.15 L-160.45 -137.35 -165.85 -141.6 -170.95 -145.75 Q-171.8 -146.65 -176.1 -149.55 -179.95 -152.15 -180.95 -153.65 L-183.1 -155.7 -185.65 -157.75 -189.6 -161.9 -192.6 -163.75 -195.6 -165.65 -198.05 -167.65 Q-199.9 -169.15 -199.9 -169.8 -199.9 -171.55 -197.65 -170.55 -195.75 -169.7 -194.7 -168.4 -194.15 -167.4 -192.15 -166.5 L-188.75 -164.75" fill="url(#gradient4)" fill-rule="evenodd" stroke="none"/>
    <path d="M-64.25 -34.5 L-64.45 -34.5 Q-65.15 -34.55 -65.7 -35.05 L-65.75 -35.15 -64.25 -34.5 M-55.1 -31.7 L-55.5 -31.65 Q-56.05 -31.65 -57.75 -32.35 L-59.35 -32.95 -55.1 -31.7" fill="#1f2211" fill-rule="evenodd" stroke="none"/>
  </g>
  <defs>
    <linearGradient gradientTransform="matrix(0.0224, 0.1591, -0.1975, 0.0278, 60.6, -73.3)" gradientUnits="userSpaceOnUse" id="gradient0" spreadMethod="pad" x1="-819.2" x2="819.2">
      <stop offset="0.0" stop-color="#f79400"/>
      <stop offset="1.0" stop-color="#39603d"/>
    </linearGradient>
    <linearGradient gradientTransform="matrix(0.002, 0.1606, -0.1993, 0.0025, 85.1, -74.75)" gradientUnits="userSpaceOnUse" id="gradient1" spreadMethod="pad" x1="-819.2" x2="819.2">
      <stop offset="0.0" stop-color="#f79400"/>
      <stop offset="1.0" stop-color="#39603d"/>
    </linearGradient>
    <linearGradient gradientTransform="matrix(0.0166, 0.0307, -0.0353, 0.019, -94.55, -46.0)" gradientUnits="userSpaceOnUse" id="gradient2" spreadMethod="pad" x1="-819.2" x2="819.2">
      <stop offset="0.0" stop-color="#000000"/>
      <stop offset="1.0" stop-color="#5b6434"/>
    </linearGradient>
    <linearGradient gradientTransform="matrix(0.0444, 0.0041, -0.0087, 0.0941, 84.05, 77.6)" gradientUnits="userSpaceOnUse" id="gradient3" spreadMethod="pad" x1="-819.2" x2="819.2">
      <stop offset="0.0" stop-color="#454c27"/>
      <stop offset="1.0" stop-color="#000000"/>
    </linearGradient>
    <linearGradient gradientTransform="matrix(-0.0346, -0.0333, 0.0388, -0.0403, -173.75, -144.55)" gradientUnits="userSpaceOnUse" id="gradient4" spreadMethod="pad" x1="-819.2" x2="819.2">
      <stop offset="0.0" stop-color="#1f2211"/>
      <stop offset="1.0" stop-color="#000000"/>
    </linearGradient>
  </defs>
</svg>
