<?xml version="1.0" encoding="UTF-8" standalone="no"?>
<svg xmlns:xlink="http://www.w3.org/1999/xlink" height="478.4px" width="779.7px" xmlns="http://www.w3.org/2000/svg">
  <g transform="matrix(1.0, 0.0, 0.0, 1.0, 0.0, 0.0)">
    <path d="M526.95 145.0 L526.75 144.9 Q518.2 137.3 506.75 133.7 477.7 124.7 447.5 118.15 L442.2 117.45 442.35 117.25 441.75 117.25 439.75 117.15 Q439.6 117.2 439.6 116.6 439.6 115.7 442.9 114.35 L445.0 113.55 445.1 113.4 445.05 113.4 Q431.25 109.0 429.05 123.55 427.75 132.3 423.5 140.45 421.4 144.5 417.15 145.1 414.75 137.9 414.9 130.25 414.5 128.8 414.45 127.95 414.2 126.0 414.2 123.05 L414.2 122.95 414.1 121.65 414.05 121.5 413.85 123.0 413.45 125.35 Q412.5 139.85 403.6 150.6 401.8 152.75 399.35 151.15 393.95 147.7 389.65 142.6 L389.45 142.45 387.2 141.35 386.6 141.1 386.0 141.2 Q393.95 148.7 391.1 158.2 390.5 160.3 389.0 161.8 L387.1 163.75 387.2 164.7 387.7 165.15 Q398.8 166.1 409.45 163.55 L411.7 163.05 Q444.9 158.45 476.1 168.75 L479.5 169.85 510.1 171.15 Q526.1 171.6 542.05 175.0 555.8 178.1 568.0 182.45 573.2 183.05 577.1 186.8 578.3 188.0 578.75 189.45 L579.7 189.8 580.05 192.05 580.25 191.5 584.1 198.3 577.65 199.25 Q577.3 195.2 575.5 191.45 574.7 189.75 572.7 190.0 574.4 195.6 573.85 201.6 573.6 204.6 571.85 207.1 551.3 207.85 531.5 201.8 527.5 190.0 534.2 178.5 L534.2 177.95 534.0 177.65 533.65 178.0 Q527.6 184.35 523.4 192.35 523.05 192.95 522.15 192.95 488.95 193.55 455.9 189.8 L439.05 188.6 Q404.4 186.25 370.0 190.45 360.6 191.8 351.5 195.15 322.65 205.8 297.3 223.45 264.6 246.3 229.2 264.9 203.0 278.6 175.05 287.65 135.35 300.3 96.4 315.15 74.5 323.6 53.25 333.4 L53.1 333.15 50.6 331.75 46.1 333.2 Q61.75 316.9 63.35 293.8 63.55 290.75 64.9 287.85 67.0 283.3 70.05 280.05 75.1 274.65 82.7 272.85 87.1 271.7 91.3 273.2 94.55 274.4 97.95 274.05 L98.2 273.2 Q104.85 267.05 112.7 263.0 120.55 258.95 129.65 257.0 134.35 255.95 138.85 254.5 186.0 239.25 231.8 219.85 255.55 209.85 270.4 187.6 L281.55 170.8 Q304.55 136.35 329.8 103.35 331.2 101.5 332.75 99.8 L333.95 98.3 337.95 93.9 Q341.0 90.4 347.75 86.7 L348.4 86.4 Q360.95 80.65 375.15 81.7 L384.1 80.9 391.35 80.4 Q416.7 81.35 441.7 85.7 463.25 90.65 482.75 100.25 502.45 109.9 521.0 121.55 526.8 125.1 532.85 127.95 L526.95 145.0" fill="url(#gradient0)" fill-rule="evenodd" stroke="none"/>
    <path d="M526.95 145.0 L526.6 145.95 526.75 144.9 526.95 145.0 M53.25 333.4 L52.8 333.6 53.1 333.15 53.25 333.4 M347.75 86.7 L348.3 86.4 348.4 86.4 347.75 86.7" fill="#ffffff" fill-rule="evenodd" stroke="none"/>
    <path d="M772.45 0.0 L772.65 0.6 770.45 2.4 768.65 1.6 772.45 0.0 M667.35 236.7 L666.75 236.7 665.25 232.6 Q661.5 224.3 659.45 215.9 L659.9 215.5 680.5 162.7 Q699.4 159.25 718.6 158.1 L727.0 135.25 720.3 133.55 Q700.1 128.1 680.45 121.65 L614.9 100.35 Q584.05 90.45 552.45 84.2 L544.0 106.8 Q532.35 137.95 519.4 168.75 544.8 171.9 569.05 179.4 L592.45 125.75 592.45 125.7 593.15 124.5 593.4 124.5 594.45 123.45 Q609.85 129.5 625.6 134.6 642.45 140.05 658.0 148.4 L659.25 149.1 659.4 148.95 659.9 149.2 659.85 149.3 Q654.95 164.0 649.25 178.25 640.6 199.95 631.25 221.35 618.05 251.5 606.25 282.3 600.2 297.95 593.35 313.15 583.65 334.75 575.45 356.65 572.2 355.55 569.05 354.2 538.05 340.6 508.35 324.55 L508.75 323.65 508.7 323.6 509.45 322.15 518.55 303.7 Q532.8 273.45 543.1 241.75 518.1 244.55 493.1 240.35 488.55 254.2 483.45 268.0 472.6 297.45 460.4 326.5 L477.35 335.5 Q495.15 345.2 512.7 355.5 539.6 371.2 567.4 385.6 588.8 396.75 610.1 407.45 L611.75 402.85 Q614.35 395.8 618.55 389.45 L602.8 356.45 603.5 354.45 603.25 354.4 603.9 352.85 603.95 352.35 603.95 352.3 604.8 349.65 Q608.7 338.05 614.25 327.3 L615.2 324.7 Q617.6 317.75 621.2 309.7 621.4 309.0 622.35 308.15 623.7 306.95 625.75 306.45 L629.15 305.95 633.5 305.2 Q634.65 305.05 637.5 303.95 L642.2 301.35 Q644.15 298.15 645.45 294.5 656.05 265.5 667.35 236.95 L667.45 236.7 667.35 236.7 M727.55 150.0 L727.8 150.65 729.8 151.45 732.55 151.65 Q733.3 151.65 734.55 149.65 735.8 147.65 735.8 146.25 L735.55 144.3 735.3 143.65 Q731.4 142.4 729.1 144.25 727.3 145.7 727.3 148.0 727.3 149.45 727.55 150.0 M649.65 171.8 Q654.25 161.65 658.05 151.1 639.55 141.2 619.5 135.15 612.75 133.05 606.0 130.55 602.25 138.55 598.65 146.65 591.35 163.1 584.85 180.0 L581.65 188.05 Q584.25 191.1 585.55 195.0 587.5 201.05 585.95 207.25 585.25 210.0 584.05 212.65 582.4 216.2 579.85 219.15 589.85 217.65 598.55 222.65 606.45 227.35 608.4 236.25 610.4 245.6 605.3 253.5 599.1 262.95 587.85 262.6 583.15 262.1 578.75 260.15 L578.55 259.55 Q575.3 258.95 572.6 257.15 566.5 253.3 564.65 246.15 563.5 241.85 564.1 237.3 564.5 234.55 565.45 231.95 L563.85 233.0 Q555.6 258.9 544.15 283.6 533.6 306.45 524.4 329.95 549.05 340.75 572.7 353.65 581.2 337.85 588.0 321.3 L608.55 271.05 634.5 207.05 Q641.7 189.25 649.65 171.8 M682.6 185.9 Q681.45 188.5 680.05 193.65 678.95 195.85 677.35 199.7 674.8 205.7 674.8 207.5 674.8 209.15 675.1 209.45 L676.55 209.9 Q678.85 208.35 683.9 197.95 688.8 187.8 688.8 185.25 L688.7 183.3 688.55 182.65 Q684.65 181.15 682.6 185.9 M47.6 467.5 L33.55 471.25 Q15.55 457.95 7.95 436.3 0.8 415.9 0.3 394.15 -0.1 378.3 0.05 362.65 0.1 360.05 1.65 357.95 L2.6 358.75 Q21.15 344.6 41.1 333.8 43.6 332.45 45.7 330.35 55.9 320.45 57.5 306.65 59.4 290.4 69.45 279.55 73.3 275.35 78.35 272.0 83.95 268.3 90.55 269.9 93.3 270.4 95.9 271.6 104.05 266.85 112.5 262.55 137.15 250.05 164.0 241.9 199.45 231.15 232.95 215.25 257.95 203.35 272.75 179.4 L284.85 160.1 Q307.75 123.85 336.9 92.85 348.5 80.45 365.6 78.75 404.55 75.25 442.85 83.3 454.7 85.85 466.1 90.55 L466.3 90.05 Q502.4 103.3 533.7 126.4 540.1 103.3 552.1 82.6 597.75 89.85 641.5 106.25 655.0 111.3 668.95 115.65 698.4 124.8 728.1 133.55 L729.2 132.4 728.95 133.8 746.55 138.2 746.9 137.35 748.3 137.4 748.15 137.95 760.95 146.15 760.95 148.35 Q770.7 151.85 779.15 158.15 L779.7 157.65 779.6 158.25 779.15 160.15 Q773.15 186.45 762.7 211.75 753.0 235.15 744.15 258.9 725.9 308.0 707.25 356.75 692.15 396.2 674.45 434.45 661.7 431.65 650.55 424.55 L649.1 426.7 631.7 421.3 631.45 421.9 631.4 421.9 Q592.95 401.75 554.8 380.8 526.0 365.0 496.95 349.55 478.35 339.55 460.3 328.4 L459.65 327.8 458.25 326.75 Q462.25 314.3 468.25 302.35 447.75 288.25 423.45 285.25 410.5 283.55 404.1 295.35 400.8 301.45 396.4 306.9 374.75 333.75 345.8 352.75 320.25 369.55 289.85 371.6 280.8 371.85 272.15 374.5 264.0 376.9 256.25 380.5 215.7 399.05 181.05 427.25 156.65 447.1 127.4 458.4 95.3 470.95 61.45 474.3 L61.1 473.2 Q74.8 470.6 88.05 465.7 108.15 458.2 127.55 449.2 146.1 440.75 164.5 432.0 172.4 428.15 179.1 422.6 195.05 409.35 212.8 398.6 231.2 387.45 249.9 377.15 269.35 366.5 291.6 368.15 310.2 368.65 326.8 360.3 342.4 352.45 355.35 341.0 362.95 334.25 371.35 328.05 375.65 324.85 379.55 321.1 395.1 306.1 406.9 288.0 408.95 284.9 412.7 283.85 L413.85 283.45 415.75 282.95 424.3 281.25 Q437.65 282.05 450.4 287.3 460.1 291.35 468.75 297.7 L470.25 297.05 Q458.95 285.5 442.85 282.15 436.65 280.75 430.6 278.65 415.6 273.05 403.1 284.4 395.65 291.15 388.95 298.6 L377.5 311.1 Q352.6 337.5 319.0 351.8 302.85 358.6 285.3 360.85 236.55 367.55 196.75 397.8 186.15 405.85 175.0 413.3 L174.0 413.5 173.8 414.0 Q143.9 433.65 110.55 446.55 96.7 451.95 82.55 456.75 68.5 461.5 54.35 465.6 50.5 462.6 46.95 462.9 L46.5 463.65 46.45 465.15 Q46.45 465.7 47.6 467.5 M53.15 474.95 L46.95 475.3 52.8 474.6 53.15 474.95 M672.95 360.3 L676.05 353.65 Q677.95 349.45 678.7 346.8 L680.2 343.1 Q684.65 339.05 691.4 337.95 693.65 343.8 693.95 350.2 L693.45 350.35 Q685.6 375.2 672.8 398.0 L672.1 397.95 668.25 390.3 662.2 392.2 660.3 391.55 662.25 385.65 666.7 375.4 672.95 360.3 M705.95 300.0 Q708.9 307.45 703.3 312.9 701.2 314.95 698.55 313.55 691.5 309.75 697.25 301.75 702.0 295.05 705.95 300.0 M715.65 280.2 Q713.6 282.65 711.75 280.65 703.4 271.55 714.25 266.0 723.25 271.1 715.65 280.2 M666.55 274.6 Q665.3 276.05 665.3 278.0 665.3 279.45 665.55 280.0 L665.8 280.65 668.95 281.4 Q670.5 281.4 671.2 280.65 L671.8 279.9 Q672.85 273.2 669.1 273.25 667.65 273.3 666.55 274.6 M744.05 179.45 L747.9 187.1 753.95 185.2 755.85 185.85 755.35 187.45 Q753.05 192.25 750.3 199.1 L743.95 214.9 737.2 230.65 734.9 235.2 Q730.7 238.5 724.75 239.45 722.5 233.6 722.2 227.2 L722.7 227.05 Q730.55 202.2 743.35 179.4 L744.05 179.45 M748.1 140.4 L747.25 140.4 Q745.1 146.0 742.6 151.3 L734.0 169.75 Q726.0 187.0 718.3 204.45 698.55 249.05 680.45 294.25 658.2 349.95 637.35 406.2 634.6 413.55 635.8 420.15 L648.55 424.15 Q652.9 417.05 659.95 412.2 L660.4 414.25 Q661.05 420.9 660.85 427.55 L662.95 427.8 Q668.6 429.4 674.2 431.45 676.45 423.95 679.65 416.8 L683.95 406.55 Q690.5 389.55 697.4 372.4 705.65 351.95 714.15 331.6 735.35 281.15 752.75 229.25 757.2 215.9 762.95 203.1 772.3 182.2 778.35 159.95 L767.45 153.0 766.6 153.55 Q763.15 156.7 759.95 160.4 L758.45 160.4 757.8 146.7 748.1 140.4 M526.75 144.9 L526.6 145.95 526.95 145.0 532.85 127.95 Q526.8 125.1 521.0 121.55 502.45 109.9 482.75 100.25 463.25 90.65 441.7 85.7 416.7 81.35 391.35 80.4 L384.1 80.9 375.15 81.7 Q360.95 80.65 348.4 86.4 L348.3 86.4 347.75 86.7 Q341.0 90.4 337.95 93.9 L333.95 98.3 332.75 99.8 Q331.2 101.5 329.8 103.35 304.55 136.35 281.55 170.8 L270.4 187.6 Q255.55 209.85 231.8 219.85 186.0 239.25 138.85 254.5 134.35 255.95 129.65 257.0 120.55 258.95 112.7 263.0 104.85 267.05 98.2 273.2 L97.95 274.05 Q94.55 274.4 91.3 273.2 87.1 271.7 82.7 272.85 75.1 274.65 70.05 280.05 67.0 283.3 64.9 287.85 63.55 290.75 63.35 293.8 61.75 316.9 46.1 333.2 L50.6 331.75 53.1 333.15 52.8 333.6 53.25 333.4 Q74.5 323.6 96.4 315.15 135.35 300.3 175.05 287.65 203.0 278.6 229.2 264.9 264.6 246.3 297.3 223.45 322.65 205.8 351.5 195.15 360.6 191.8 370.0 190.45 404.4 186.25 439.05 188.6 L455.9 189.8 Q488.95 193.55 522.15 192.95 523.05 192.95 523.4 192.35 527.6 184.35 533.65 178.0 L534.0 177.65 534.2 177.95 534.2 178.5 Q527.5 190.0 531.5 201.8 551.3 207.85 571.85 207.1 573.6 204.6 573.85 201.6 574.4 195.6 572.7 190.0 574.7 189.75 575.5 191.45 577.3 195.2 577.65 199.25 L584.1 198.3 580.25 191.5 580.05 192.05 579.7 189.8 578.75 189.45 Q578.3 188.0 577.1 186.8 573.2 183.05 568.0 182.45 555.8 178.1 542.05 175.0 526.1 171.6 510.1 171.15 L479.5 169.85 476.1 168.75 Q444.9 158.45 411.7 163.05 L409.45 163.55 Q398.8 166.1 387.7 165.15 L387.2 164.7 387.1 163.75 389.0 161.8 Q390.5 160.3 391.1 158.2 393.95 148.7 386.0 141.2 L386.6 141.1 387.2 141.35 389.45 142.45 389.65 142.6 Q393.95 147.7 399.35 151.15 401.8 152.75 403.6 150.6 412.5 139.85 413.45 125.35 L413.85 123.0 414.05 121.5 414.1 121.65 414.2 122.95 414.2 123.05 Q414.2 126.0 414.45 127.95 414.5 128.8 414.9 130.25 414.75 137.9 417.15 145.1 421.4 144.5 423.5 140.45 427.75 132.3 429.05 123.55 431.25 109.0 445.05 113.4 L445.1 113.4 445.0 113.55 442.9 114.35 Q439.6 115.7 439.6 116.6 439.6 117.2 439.75 117.15 L441.75 117.25 442.35 117.25 442.2 117.45 447.5 118.15 Q477.7 124.7 506.75 133.7 518.2 137.3 526.75 144.9 M607.9 142.9 Q606.0 143.65 604.05 144.75 601.5 147.7 600.1 150.8 L602.3 151.35 Q604.7 152.1 604.7 152.8 L604.6 153.7 Q604.45 153.95 604.45 154.15 L604.35 154.3 603.5 154.4 Q602.2 154.4 600.5 153.1 L599.5 152.25 Q597.4 157.9 599.15 164.05 L600.15 163.55 Q602.2 162.7 603.2 162.65 L603.5 162.55 Q603.75 162.6 603.75 163.4 603.75 164.5 602.6 164.85 L599.7 165.8 600.95 168.7 Q603.05 173.0 607.4 174.5 607.6 173.85 608.1 173.05 609.25 171.15 610.7 170.8 L610.85 170.6 610.95 171.3 Q610.95 171.95 609.7 174.05 L609.15 174.95 Q616.15 176.7 621.25 174.8 L620.65 173.9 Q619.5 171.95 619.5 170.25 619.5 168.7 620.5 168.4 620.95 169.7 622.35 172.25 L623.25 173.9 Q627.75 171.35 630.6 165.5 L628.6 164.75 625.25 163.15 Q625.0 162.8 625.0 161.65 L630.0 161.95 Q630.9 162.2 631.7 162.85 L632.2 161.4 Q633.7 156.95 631.75 152.85 L630.65 150.75 629.25 151.65 627.7 152.95 626.7 154.05 625.8 153.2 Q625.45 152.75 625.45 151.95 625.45 150.85 628.15 149.55 L629.55 148.95 Q625.75 143.3 620.6 141.7 L619.8 142.9 Q619.45 143.7 619.45 145.9 619.25 145.9 619.1 146.05 L618.95 146.3 617.9 145.35 617.7 144.7 Q617.7 143.3 618.6 141.2 614.55 140.6 609.85 142.2 L610.25 143.2 611.0 145.65 610.45 146.4 Q609.7 145.95 608.55 144.0 L607.9 142.9 M610.8 179.5 L610.6 178.9 Q607.35 178.2 604.95 176.15 590.6 163.95 599.05 146.8 609.3 133.85 625.7 140.05 645.05 147.45 640.15 167.7 639.3 171.3 637.15 173.9 626.6 186.45 610.8 179.5 M598.75 232.45 L594.5 233.95 593.5 233.3 Q594.25 231.65 596.25 230.8 596.9 230.5 598.3 230.15 595.6 224.45 590.1 222.65 L588.0 225.8 587.25 225.5 Q587.0 225.25 587.0 224.45 587.0 223.1 587.95 222.1 L577.95 222.5 578.25 223.6 Q578.8 225.85 579.1 226.45 L579.0 227.15 Q578.8 227.55 578.0 227.55 577.1 227.55 576.4 225.85 575.85 224.55 575.85 223.9 L575.85 223.65 575.75 223.75 Q571.35 226.7 569.1 230.35 569.7 230.6 570.5 231.0 573.6 232.55 573.75 233.45 L573.55 234.2 Q573.3 234.7 572.5 234.7 571.1 234.7 568.6 232.85 L568.0 232.4 Q565.85 237.0 566.85 242.6 L566.9 242.75 Q567.15 242.6 567.45 242.5 569.55 241.7 570.6 242.2 L571.0 242.95 Q570.25 243.55 568.25 244.3 567.7 244.5 567.35 244.65 567.9 246.9 569.0 249.3 570.75 253.15 574.6 254.65 L575.0 254.8 575.6 253.45 Q576.8 251.2 578.6 251.2 L578.8 251.1 Q579.0 251.15 579.0 251.95 L577.2 254.4 576.45 255.35 Q582.75 257.5 587.7 256.15 L588.05 256.05 588.0 255.95 587.45 255.15 Q586.35 253.45 586.35 252.7 586.35 251.85 586.65 251.45 586.85 251.15 587.5 250.95 588.5 252.05 589.15 253.5 L589.9 255.35 Q594.45 253.2 597.7 247.7 596.4 247.5 594.5 245.95 L592.75 244.3 Q592.75 241.95 595.3 243.55 L598.7 245.9 599.2 244.8 Q600.95 241.05 600.35 237.25 599.95 234.55 599.2 232.35 L599.15 232.25 598.75 232.45 M566.85 326.2 L566.75 326.2 Q565.6 326.2 563.15 324.35 560.85 322.6 560.85 322.25 L560.85 321.45 561.0 321.05 Q562.55 320.95 565.15 322.3 567.35 323.45 567.95 324.6 571.5 318.45 569.25 311.1 568.0 311.95 565.0 313.05 564.0 313.05 562.35 311.7 562.9 310.8 564.0 309.95 565.3 308.95 566.5 308.8 L568.45 308.8 566.75 305.4 Q563.8 302.5 560.35 301.2 560.3 302.4 559.6 303.55 L558.0 306.45 556.6 306.3 556.5 304.8 Q556.5 303.8 557.35 302.35 558.0 301.25 558.8 300.7 554.55 299.6 549.65 300.7 L547.2 301.4 547.35 301.95 548.0 305.8 547.0 306.45 Q545.4 305.45 545.35 303.75 L545.25 302.2 Q541.65 303.85 539.5 306.8 540.7 307.35 543.1 309.3 L542.25 310.3 Q541.7 310.7 540.75 310.7 538.8 310.7 537.85 309.6 536.35 312.95 536.25 317.5 L536.35 320.65 537.65 319.7 Q539.65 318.7 542.1 320.05 L542.35 319.95 Q542.6 320.0 542.6 320.8 542.6 322.7 537.25 322.7 L536.75 322.6 536.7 322.6 536.65 322.6 536.7 322.9 Q537.9 329.1 542.8 332.3 543.1 331.7 543.9 330.8 545.65 328.7 547.5 328.65 L547.6 329.75 Q547.6 330.6 546.25 332.4 L545.25 333.65 549.6 334.95 Q552.75 335.55 555.5 334.9 L554.9 333.1 553.85 329.4 554.0 328.65 Q555.95 327.85 556.55 329.95 L557.6 333.45 557.6 334.15 559.3 333.15 Q564.15 329.95 566.85 326.3 L566.9 326.2 566.85 326.2 M533.75 317.9 Q533.9 312.2 536.85 307.3 545.7 292.5 563.15 299.15 583.35 306.95 577.35 328.0 576.65 330.4 575.25 332.25 564.8 345.65 548.3 338.5 L548.1 337.9 Q533.25 333.65 533.75 317.9 M623.8 314.05 L623.0 314.0 623.0 314.05 623.8 314.05 M630.45 324.15 Q630.45 322.5 629.9 322.05 629.85 321.95 628.45 321.4 624.75 325.05 620.7 337.65 617.2 348.55 617.2 351.75 617.2 353.2 617.35 353.75 L617.45 354.4 620.45 354.65 Q622.05 352.15 626.3 338.95 630.45 326.05 630.45 324.15 M271.7 365.1 L271.7 365.05 271.75 365.1 271.7 365.1 M621.25 399.95 L621.2 402.0 621.4 404.45 622.2 406.15 626.45 406.15 Q627.2 405.4 627.45 405.4 627.45 404.8 627.6 404.3 L627.7 402.4 Q627.7 400.4 626.5 399.05 624.75 397.05 621.45 398.65 L621.25 399.95" fill="#000000" fill-rule="evenodd" stroke="none"/>
    <path d="M667.35 236.95 Q656.05 265.5 645.45 294.5 644.15 298.15 642.2 301.35 L637.5 303.95 Q634.65 305.05 633.5 305.2 L629.15 305.95 625.75 306.45 Q623.7 306.95 622.35 308.15 621.4 309.0 621.2 309.7 617.6 317.75 615.2 324.7 L614.25 327.3 Q608.7 338.05 604.8 349.65 L603.95 352.3 603.95 352.35 603.9 352.85 603.25 354.4 603.5 354.45 602.8 356.45 618.55 389.45 Q614.35 395.8 611.75 402.85 L610.1 407.45 Q588.8 396.75 567.4 385.6 539.6 371.2 512.7 355.5 495.15 345.2 477.35 335.5 L460.4 326.5 Q472.6 297.45 483.45 268.0 488.55 254.2 493.1 240.35 518.1 244.55 543.1 241.75 532.8 273.45 518.55 303.7 L509.45 322.15 508.7 323.6 508.75 323.65 508.35 324.55 Q538.05 340.6 569.05 354.2 572.2 355.55 575.45 356.65 583.65 334.75 593.35 313.15 600.2 297.95 606.25 282.3 618.05 251.5 631.25 221.35 640.6 199.95 649.25 178.25 654.95 164.0 659.85 149.3 L659.9 149.2 659.4 148.95 659.25 149.1 658.0 148.4 Q642.45 140.05 625.6 134.6 609.85 129.5 594.45 123.45 L593.4 124.5 593.15 124.5 592.45 125.7 592.45 125.75 569.05 179.4 Q544.8 171.9 519.4 168.75 532.35 137.95 544.0 106.8 L552.45 84.2 Q584.05 90.45 614.9 100.35 L680.45 121.65 Q700.1 128.1 720.3 133.55 L727.0 135.25 718.6 158.1 Q699.4 159.25 680.5 162.7 L659.9 215.5 659.45 215.9 Q661.5 224.3 665.25 232.6 L666.75 236.7 667.35 236.7 667.35 236.95" fill="url(#gradient1)" fill-rule="evenodd" stroke="none"/>
    <path d="M682.6 185.9 Q684.65 181.15 688.55 182.65 L688.7 183.3 688.8 185.25 Q688.8 187.8 683.9 197.95 678.85 208.35 676.55 209.9 L675.1 209.45 Q674.8 209.15 674.8 207.5 674.8 205.7 677.35 199.7 678.95 195.85 680.05 193.65 681.45 188.5 682.6 185.9 M649.65 171.8 Q641.7 189.25 634.5 207.05 L608.55 271.05 588.0 321.3 Q581.2 337.85 572.7 353.65 549.05 340.75 524.4 329.95 533.6 306.45 544.15 283.6 555.6 258.9 563.85 233.0 L565.45 231.95 Q564.5 234.55 564.1 237.3 563.5 241.85 564.65 246.15 566.5 253.3 572.6 257.15 575.3 258.95 578.55 259.55 L578.75 260.15 Q583.15 262.1 587.85 262.6 599.1 262.95 605.3 253.5 610.4 245.6 608.4 236.25 606.45 227.35 598.55 222.65 589.85 217.65 579.85 219.15 582.4 216.2 584.05 212.65 585.25 210.0 585.95 207.25 587.5 201.05 585.55 195.0 584.25 191.1 581.65 188.05 L584.85 180.0 Q591.35 163.1 598.65 146.65 602.25 138.55 606.0 130.55 612.75 133.05 619.5 135.15 639.55 141.2 658.05 151.1 654.25 161.65 649.65 171.8 M727.55 150.0 Q727.3 149.45 727.3 148.0 727.3 145.7 729.1 144.25 731.4 142.4 735.3 143.65 L735.55 144.3 735.8 146.25 Q735.8 147.65 734.55 149.65 733.3 151.65 732.55 151.65 L729.8 151.45 727.8 150.65 727.55 150.0 M748.1 140.4 L757.8 146.7 758.45 160.4 759.95 160.4 Q763.15 156.7 766.6 153.55 L767.45 153.0 778.35 159.95 Q772.3 182.2 762.95 203.1 757.2 215.9 752.75 229.25 735.35 281.15 714.15 331.6 705.65 351.95 697.4 372.4 690.5 389.55 683.95 406.55 L679.65 416.8 Q676.45 423.95 674.2 431.45 668.6 429.4 662.95 427.8 L660.85 427.55 Q661.05 420.9 660.4 414.25 L659.95 412.2 Q652.9 417.05 648.55 424.15 L635.8 420.15 Q634.6 413.55 637.35 406.2 658.2 349.95 680.45 294.25 698.55 249.05 718.3 204.45 726.0 187.0 734.0 169.75 L742.6 151.3 Q745.1 146.0 747.25 140.4 L748.1 140.4 M744.05 179.45 L743.35 179.4 Q730.55 202.2 722.7 227.05 L722.2 227.2 Q722.5 233.6 724.75 239.45 730.7 238.5 734.9 235.2 L737.2 230.65 743.95 214.9 750.3 199.1 Q753.05 192.25 755.35 187.45 L755.85 185.85 753.95 185.2 747.9 187.1 744.05 179.45 M666.55 274.6 Q667.65 273.3 669.1 273.25 672.85 273.2 671.8 279.9 L671.2 280.65 Q670.5 281.4 668.95 281.4 L665.8 280.65 665.55 280.0 Q665.3 279.45 665.3 278.0 665.3 276.05 666.55 274.6 M715.65 280.2 Q723.25 271.1 714.25 266.0 703.4 271.55 711.75 280.65 713.6 282.65 715.65 280.2 M705.95 300.0 Q702.0 295.05 697.25 301.75 691.5 309.75 698.55 313.55 701.2 314.95 703.3 312.9 708.9 307.45 705.95 300.0 M672.95 360.3 L666.7 375.4 662.25 385.65 660.3 391.55 662.2 392.2 668.25 390.3 672.1 397.95 672.8 398.0 Q685.6 375.2 693.45 350.35 L693.95 350.2 Q693.65 343.8 691.4 337.95 684.65 339.05 680.2 343.1 L678.7 346.8 Q677.95 349.45 676.05 353.65 L672.95 360.3 M607.9 142.9 L608.55 144.0 Q609.7 145.95 610.45 146.4 L611.0 145.65 610.25 143.2 609.85 142.2 Q614.55 140.6 618.6 141.2 617.7 143.3 617.7 144.7 L617.9 145.35 618.95 146.3 619.1 146.05 Q619.25 145.9 619.45 145.9 619.45 143.7 619.8 142.9 L620.6 141.7 Q625.75 143.3 629.55 148.95 L628.15 149.55 Q625.45 150.85 625.45 151.95 625.45 152.75 625.8 153.2 L626.7 154.05 627.7 152.95 629.25 151.65 630.65 150.75 631.75 152.85 Q633.7 156.95 632.2 161.4 L631.7 162.85 Q630.9 162.2 630.0 161.95 L625.0 161.65 Q625.0 162.8 625.25 163.15 L628.6 164.75 630.6 165.5 Q627.75 171.35 623.25 173.9 L622.35 172.25 Q620.95 169.7 620.5 168.4 619.5 168.7 619.5 170.25 619.5 171.95 620.65 173.9 L621.25 174.8 Q616.15 176.7 609.15 174.95 L609.7 174.05 Q610.95 171.95 610.95 171.3 L610.85 170.6 610.7 170.8 Q609.25 171.15 608.1 173.05 607.6 173.85 607.4 174.5 603.05 173.0 600.95 168.7 L599.7 165.8 602.6 164.85 Q603.75 164.5 603.75 163.4 603.75 162.6 603.5 162.55 L603.2 162.65 Q602.2 162.7 600.15 163.55 L599.15 164.05 Q597.4 157.9 599.5 152.25 L600.5 153.1 Q602.2 154.4 603.5 154.4 L604.35 154.3 604.45 154.15 Q604.45 153.95 604.6 153.7 L604.7 152.8 Q604.7 152.1 602.3 151.35 L600.1 150.8 Q601.5 147.7 604.05 144.75 606.0 143.65 607.9 142.9 M610.8 179.5 Q626.6 186.45 637.15 173.9 639.3 171.3 640.15 167.7 645.05 147.45 625.7 140.05 609.3 133.85 599.05 146.8 590.6 163.95 604.95 176.15 607.35 178.2 610.6 178.9 L610.8 179.5 M575.85 223.9 Q575.85 224.55 576.4 225.85 577.1 227.55 578.0 227.55 578.8 227.55 579.0 227.15 L579.1 226.45 Q578.8 225.85 578.25 223.6 L577.95 222.5 587.95 222.1 Q587.0 223.1 587.0 224.45 587.0 225.25 587.25 225.5 L588.0 225.8 590.1 222.65 Q595.6 224.45 598.3 230.15 596.9 230.5 596.25 230.8 594.25 231.65 593.5 233.3 L594.5 233.95 598.75 232.45 599.2 232.35 Q599.95 234.55 600.35 237.25 600.95 241.05 599.2 244.8 L598.7 245.9 595.3 243.55 Q592.75 241.95 592.75 244.3 L594.5 245.95 Q596.4 247.5 597.7 247.7 594.45 253.2 589.9 255.35 L589.15 253.5 Q588.5 252.05 587.5 250.95 586.85 251.15 586.65 251.45 586.35 251.85 586.35 252.7 586.35 253.45 587.45 255.15 L588.0 255.95 587.7 256.15 Q582.75 257.5 576.45 255.35 L577.2 254.4 579.0 251.95 Q579.0 251.15 578.8 251.1 L578.6 251.2 Q576.8 251.2 575.6 253.45 L575.0 254.8 574.6 254.65 Q570.75 253.15 569.0 249.3 567.9 246.9 567.35 244.65 567.7 244.5 568.25 244.3 570.25 243.55 571.0 242.95 L570.6 242.2 Q569.55 241.7 567.45 242.5 567.15 242.6 566.9 242.75 L566.85 242.6 Q565.85 237.0 568.0 232.4 L568.6 232.85 Q571.1 234.7 572.5 234.7 573.3 234.7 573.55 234.2 L573.75 233.45 Q573.6 232.55 570.5 231.0 569.7 230.6 569.1 230.35 571.35 226.7 575.75 223.75 L575.85 223.9 M537.25 322.7 Q542.6 322.7 542.6 320.8 542.6 320.0 542.35 319.95 L542.1 320.05 Q539.65 318.7 537.65 319.7 L536.35 320.65 536.25 317.5 Q536.35 312.95 537.85 309.6 538.8 310.7 540.75 310.7 541.7 310.7 542.25 310.3 L543.1 309.3 Q540.7 307.35 539.5 306.8 541.65 303.85 545.25 302.2 L545.35 303.75 Q545.4 305.45 547.0 306.45 L548.0 305.8 547.35 301.95 547.2 301.4 549.65 300.7 Q554.55 299.6 558.8 300.7 558.0 301.25 557.35 302.35 556.5 303.8 556.5 304.8 L556.6 306.3 558.0 306.45 559.6 303.55 Q560.3 302.4 560.35 301.2 563.8 302.5 566.75 305.4 L568.45 308.8 566.5 308.8 Q565.3 308.95 564.0 309.95 562.9 310.8 562.35 311.7 564.0 313.05 565.0 313.05 568.0 311.95 569.25 311.1 571.5 318.45 567.95 324.6 567.35 323.45 565.15 322.3 562.55 320.95 561.0 321.05 L560.85 321.45 560.85 322.25 Q560.85 322.6 563.15 324.35 565.6 326.2 566.75 326.2 L566.85 326.2 566.85 326.3 Q564.15 329.95 559.3 333.15 L557.6 334.15 557.6 333.45 556.55 329.95 Q555.95 327.85 554.0 328.65 L553.85 329.4 554.9 333.1 555.5 334.9 Q552.75 335.55 549.6 334.95 L545.25 333.65 546.25 332.4 Q547.6 330.6 547.6 329.75 L547.5 328.65 Q545.65 328.7 543.9 330.8 543.1 331.7 542.8 332.3 537.9 329.1 536.7 322.9 L537.25 322.7 M533.75 317.9 Q533.25 333.65 548.1 337.9 L548.3 338.5 Q564.8 345.65 575.25 332.25 576.65 330.4 577.35 328.0 583.35 306.95 563.15 299.15 545.7 292.5 536.85 307.3 533.9 312.2 533.75 317.9 M630.45 324.15 Q630.45 326.05 626.3 338.95 622.05 352.15 620.45 354.65 L617.45 354.4 617.35 353.75 Q617.2 353.2 617.2 351.75 617.2 348.55 620.7 337.65 624.75 325.05 628.45 321.4 629.85 321.95 629.9 322.05 630.45 322.5 630.45 324.15 M621.25 399.95 L621.45 398.65 Q624.75 397.05 626.5 399.05 627.7 400.4 627.7 402.4 L627.6 404.3 Q627.45 404.8 627.45 405.4 627.2 405.4 626.45 406.15 L622.2 406.15 621.4 404.45 621.2 402.0 621.25 399.95" fill="#262626" fill-rule="evenodd" stroke="none"/>
    <path d="M47.6 467.5 Q46.45 465.7 46.45 465.15 L46.5 463.65 46.95 462.9 Q50.5 462.6 54.35 465.6 68.5 461.5 82.55 456.75 96.7 451.95 110.55 446.55 143.9 433.65 173.8 414.0 L174.0 413.5 175.0 413.3 Q186.15 405.85 196.75 397.8 236.55 367.55 285.3 360.85 302.85 358.6 319.0 351.8 352.6 337.5 377.5 311.1 L388.95 298.6 Q395.65 291.15 403.1 284.4 415.6 273.05 430.6 278.65 436.65 280.75 442.85 282.15 458.95 285.5 470.25 297.05 L468.75 297.7 Q460.1 291.35 450.4 287.3 437.65 282.05 424.3 281.25 L415.75 282.95 413.85 283.45 412.7 283.85 Q408.95 284.9 406.9 288.0 395.1 306.1 379.55 321.1 375.65 324.85 371.35 328.05 362.95 334.25 355.35 341.0 342.4 352.45 326.8 360.3 310.2 368.65 291.6 368.15 269.35 366.5 249.9 377.15 231.2 387.45 212.8 398.6 195.05 409.35 179.1 422.6 172.4 428.15 164.5 432.0 146.1 440.75 127.55 449.2 108.15 458.2 88.05 465.7 74.8 470.6 61.1 473.2 L61.45 474.3 61.45 474.4 Q61.45 478.4 58.45 478.4 56.25 478.4 53.15 474.95 L52.8 474.6 50.65 471.9 47.6 467.5 M271.7 365.1 L271.75 365.1 271.7 365.05 271.7 365.1" fill="#916500" fill-rule="evenodd" stroke="none"/>
    <path d="M536.75 322.6 L537.25 322.7 536.7 322.9 536.75 322.6" fill="#4a301c" fill-rule="evenodd" stroke="none"/>
    <path d="M536.7 322.6 L536.75 322.6 536.7 322.9 536.7 322.6" fill="#1c1625" fill-rule="evenodd" stroke="none"/>
  </g>
  <defs>
    <linearGradient gradientTransform="matrix(-0.2683, -0.1143, 0.0605, -0.1419, 315.05, 206.95)" gradientUnits="userSpaceOnUse" id="gradient0" spreadMethod="pad" x1="-819.2" x2="819.2">
      <stop offset="0.0" stop-color="#366031"/>
      <stop offset="1.0" stop-color="#000000"/>
    </linearGradient>
    <linearGradient gradientTransform="matrix(-0.0315, -0.2036, 0.1949, -0.0302, 593.7, 245.8)" gradientUnits="userSpaceOnUse" id="gradient1" spreadMethod="pad" x1="-819.2" x2="819.2">
      <stop offset="0.0" stop-color="#6f6f6f"/>
      <stop offset="1.0" stop-color="#1e1e1e"/>
    </linearGradient>
  </defs>
</svg>
