<?xml version="1.0" encoding="UTF-8" standalone="no"?>
<svg xmlns:xlink="http://www.w3.org/1999/xlink" height="200.5px" width="138.05px" xmlns="http://www.w3.org/2000/svg">
  <g transform="matrix(1.0, 0.0, 0.0, 1.0, -2.05, -16.95)">
    <path d="M104.45 22.45 Q104.95 22.8 105.6 23.0 L107.65 23.45 107.8 23.5 108.05 24.45 108.8 27.45 107.2 28.2 Q106.25 28.75 105.6 29.6 104.85 30.5 104.95 30.9 L105.05 31.1 105.05 31.15 105.1 31.3 105.1 31.35 105.35 32.25 105.6 32.8 105.9 33.35 106.95 34.45 107.6 35.0 Q107.25 35.5 107.35 35.7 L107.35 35.75 Q107.2 36.15 107.35 36.65 L107.85 37.95 108.25 39.45 108.6 40.75 108.7 41.75 108.15 42.75 107.65 43.1 107.85 42.0 107.7 41.0 Q107.5 39.5 105.9 36.1 104.15 32.7 103.95 31.25 103.85 31.0 103.9 30.15 L103.9 29.45 103.85 28.85 Q103.7 28.1 102.75 27.15 L102.55 26.9 101.05 25.95 99.65 24.9 98.45 24.05 97.3 23.35 95.1 21.65 94.45 21.25 94.9 21.05 95.35 20.9 95.95 20.6 96.65 20.3 98.1 19.85 98.2 19.65 97.35 19.35 95.85 19.25 93.9 19.05 94.3 18.25 95.35 18.1 97.4 17.45 Q98.15 17.15 98.8 16.95 L98.85 17.05 99.7 18.25 Q100.15 19.05 102.05 20.65 L103.6 21.8 104.45 22.45 M97.55 26.75 L98.15 27.35 97.5 27.2 96.45 27.0 96.0 26.9 95.2 26.75 94.75 26.55 94.65 26.55 95.45 26.3 Q97.05 26.2 97.55 26.75 M91.7 33.6 Q92.6 33.55 93.1 33.1 L93.6 32.4 94.6 30.85 96.75 31.0 98.15 31.4 97.3 31.75 96.65 31.95 96.65 32.0 Q96.7 32.25 97.35 32.55 L98.05 33.15 97.95 34.0 97.65 34.75 Q96.85 36.1 96.9 36.45 L97.1 38.05 Q97.25 39.0 96.95 39.6 L95.05 43.05 94.75 43.9 Q94.45 41.7 93.6 40.35 L91.05 36.15 90.9 35.75 Q90.5 35.2 90.5 34.1 L90.55 33.6 91.7 33.6 M108.55 30.75 L108.4 30.55 108.75 30.4 109.2 30.35 109.3 30.6 109.3 30.75 108.55 30.75 M104.9 29.75 L104.75 30.25 105.15 29.35 Q104.95 29.45 104.9 29.75 M104.25 28.65 L104.2 29.1 104.15 29.5 104.2 29.5 104.5 28.65 Q104.5 28.55 104.35 28.55 L104.25 28.65 M106.1 44.45 L106.1 44.5 Q105.65 45.25 105.95 46.95 L105.6 46.65 Q104.85 46.1 103.75 45.7 L103.8 45.55 105.05 45.0 Q105.65 44.55 105.95 44.5 L106.1 44.45 M104.4 48.5 L105.85 48.8 106.3 49.3 106.55 49.55 106.3 51.35 105.75 54.15 105.4 55.8 Q105.0 56.3 104.8 57.35 L104.5 59.1 104.1 62.65 103.8 65.45 103.4 65.8 102.25 66.1 Q101.85 66.2 100.95 65.5 99.85 64.8 99.75 64.1 L99.75 63.45 98.35 63.05 97.15 62.65 96.25 62.05 94.65 59.9 94.4 59.75 94.35 59.55 95.4 59.1 Q97.45 58.25 98.05 58.15 L100.4 57.5 100.7 57.45 101.5 57.35 102.8 57.0 102.9 56.95 102.55 56.75 102.55 56.65 Q102.55 56.2 102.1 56.2 L101.6 55.65 100.75 54.95 100.9 54.8 102.05 54.8 103.3 54.8 Q104.05 54.7 104.65 53.3 105.3 52.0 105.1 50.9 L104.8 50.0 104.8 49.55 104.3 48.7 104.4 48.5 M82.65 73.7 L83.85 73.9 85.7 74.45 Q88.2 75.15 93.2 77.85 L93.4 77.95 93.8 78.0 Q94.45 78.55 95.05 78.8 L97.8 80.2 Q99.6 81.3 100.75 82.55 L102.1 83.85 Q104.95 103.65 117.95 117.8 L107.5 151.15 107.35 151.6 103.6 163.55 104.5 163.65 104.65 163.5 Q105.25 163.5 105.65 162.65 L106.0 161.55 110.05 155.4 114.75 147.0 118.55 138.75 120.6 134.7 122.05 131.45 122.2 131.55 122.1 133.35 122.2 135.1 122.25 136.8 122.05 140.35 121.7 143.85 121.7 144.05 121.65 144.05 121.6 144.6 Q121.0 147.95 119.25 153.05 L116.6 159.0 114.85 162.45 114.9 162.75 112.95 165.65 Q107.25 173.55 98.05 174.3 94.3 172.25 90.4 171.05 L90.0 170.95 89.85 170.9 Q86.7 169.85 83.7 169.6 L77.05 169.35 72.15 169.15 71.75 169.8 71.7 169.9 66.35 171.0 Q55.35 162.0 47.2 150.2 46.45 149.2 46.65 147.9 48.75 137.0 49.4 126.25 L49.9 123.8 49.55 123.05 Q50.1 110.75 48.7 98.65 L48.8 98.45 Q48.9 97.85 48.6 97.65 L48.35 95.5 46.6 99.3 45.5 101.1 44.25 103.3 42.6 105.65 39.25 109.85 37.35 112.7 31.75 114.1 25.1 113.9 23.8 114.55 19.1 113.55 18.65 112.7 Q23.0 101.05 29.6 90.3 L35.25 82.0 Q41.95 73.85 51.95 73.9 L51.7 75.45 51.2 79.8 50.3 84.95 Q49.85 87.9 50.6 88.3 L49.9 91.7 59.65 70.2 61.65 69.75 62.4 71.2 Q64.45 71.6 65.9 72.6 L66.2 72.85 68.1 74.9 Q69.25 76.1 69.75 76.35 L69.75 76.3 70.3 76.3 70.95 74.35 Q75.8 73.15 80.75 73.45 L82.65 73.65 82.65 73.7 M94.75 52.85 L95.3 52.35 Q95.25 52.65 95.35 52.75 L94.95 53.55 94.45 54.3 93.8 55.9 93.3 57.4 93.4 55.8 93.9 54.0 Q94.25 53.3 94.75 52.85 M62.1 122.0 L66.95 122.95 73.55 124.55 76.1 126.0 Q78.05 127.15 79.65 127.15 L80.1 127.05 76.85 124.45 Q74.65 123.15 71.35 122.55 L61.15 121.1 Q55.7 120.75 54.05 122.55 L62.1 122.0 M44.6 122.4 L42.0 132.0 40.35 136.8 39.95 137.75 37.95 140.95 37.4 141.6 35.55 144.1 Q34.35 145.6 32.65 146.3 32.1 146.55 31.85 146.85 L31.2 147.45 29.2 148.4 28.05 148.85 26.5 149.25 22.7 149.6 27.2 129.15 27.75 127.0 30.6 117.45 38.3 118.45 Q42.2 119.1 44.75 121.9 L44.6 122.4 M32.7 168.85 Q40.2 172.15 37.8 180.3 L37.35 180.2 37.15 178.4 36.75 174.2 Q36.7 173.5 35.7 173.05 L34.35 172.2 33.0 170.0 32.65 168.95 32.7 168.85 M4.65 159.05 Q10.75 156.2 14.9 158.6 18.25 162.8 19.35 164.9 20.45 167.0 21.6 170.85 L23.55 177.0 Q25.25 181.7 26.4 188.85 L26.95 194.35 27.3 200.95 27.35 203.35 26.6 206.1 Q25.95 208.15 24.2 208.65 L22.95 209.1 21.95 209.4 17.45 210.1 Q16.85 210.15 16.85 210.6 L16.95 210.95 15.95 210.95 15.55 210.25 14.9 209.1 13.65 206.75 Q4.0 188.15 2.1 166.8 1.7 162.5 4.65 159.05 M40.0 171.75 L38.85 171.15 36.3 167.85 36.15 167.55 36.6 166.9 Q44.05 170.85 41.9 180.05 L41.2 180.05 40.95 177.7 41.1 172.8 Q41.05 172.35 40.0 171.75 M77.2 182.15 Q78.35 183.55 78.75 184.75 L78.9 186.3 78.45 188.05 77.7 190.35 76.35 192.65 74.75 195.05 Q73.55 197.55 71.25 199.85 68.7 202.35 65.55 203.85 62.95 205.05 58.5 207.6 L52.35 211.25 45.0 215.6 42.95 216.55 40.2 217.05 37.1 217.35 34.5 217.3 33.75 217.25 33.35 217.45 Q35.2 212.35 37.05 208.45 L36.75 208.5 Q44.75 190.95 61.55 179.95 66.3 176.9 71.8 177.55 73.9 177.95 75.5 179.1 75.65 180.3 77.2 182.15 M41.85 166.5 L42.0 166.15 42.85 166.6 Q47.9 170.75 46.45 177.45 L45.55 177.4 45.45 176.3 Q45.05 174.7 45.05 172.2 L44.85 171.2 45.0 170.75 44.6 170.65 44.2 170.1 42.5 168.15 41.85 166.5 M105.05 139.55 L105.2 139.0 105.15 139.0 105.05 139.55" fill="url(#gradient0)" fill-rule="evenodd" stroke="none"/>
    <path d="M97.65 25.8 L97.65 25.7 97.8 25.8 97.65 25.8 M98.85 25.95 L98.8 25.9 98.85 25.85 98.85 25.95 M108.85 32.5 L109.0 32.55 108.9 32.7 108.85 32.5 M103.8 45.55 L103.75 45.7 103.7 45.55 103.8 45.55" fill="url(#gradient1)" fill-rule="evenodd" stroke="none"/>
    <path d="M94.15 26.75 L94.05 26.7 94.15 26.7 94.15 26.75 M108.55 30.75 L107.95 30.85 Q108.1 30.65 108.4 30.55 L108.55 30.75 M106.1 44.5 L106.1 44.45 106.1 44.5 M104.3 48.7 L104.1 48.45 104.4 48.5 104.3 48.7 M100.75 54.95 L100.65 54.85 100.9 54.8 100.75 54.95" fill="url(#gradient2)" fill-rule="evenodd" stroke="none"/>
    <path d="M82.65 73.7 L82.65 73.65 82.7 73.65 82.65 73.7 M122.2 131.55 L122.05 131.45 122.1 131.2 122.2 131.55 M104.65 163.5 L104.5 163.65 104.55 163.5 104.65 163.5" fill="url(#gradient3)" fill-rule="evenodd" stroke="none"/>
    <path d="M72.85 43.5 L72.85 43.35 72.9 43.5 72.85 43.5 M70.0 62.8 L70.15 62.65 70.2 62.7 70.0 62.8" fill="url(#gradient4)" fill-rule="evenodd" stroke="none"/>
    <path d="M107.35 151.6 L107.5 151.15 107.7 150.75 107.85 150.75 107.35 151.6 M64.45 36.25 L64.45 36.3 64.4 36.25 64.45 36.25 M38.5 73.95 L38.6 73.95 38.55 75.35 38.5 73.95 M70.95 61.1 L71.0 61.05 71.0 61.1 70.95 61.1 M69.15 59.8 L68.9 58.9 69.25 59.3 69.15 59.8 M53.25 59.2 L53.2 58.85 Q53.65 58.95 53.25 59.2 M9.65 114.0 L9.85 114.2 9.65 114.15 9.65 114.05 9.65 114.0 M26.45 150.95 L26.4 150.95 26.45 150.9 26.45 150.95 M32.65 168.95 L32.65 168.85 32.7 168.85 32.65 168.95 M39.6 173.55 L39.65 173.5 39.65 173.55 39.6 173.55 M128.95 116.2 L129.0 116.9 128.9 116.15 128.95 116.2" fill="url(#gradient5)" fill-rule="evenodd" stroke="none"/>
    <path d="M120.95 79.65 Q122.05 80.3 123.35 80.75 L125.65 81.8 Q127.45 82.8 128.0 83.55 L132.15 90.0 Q133.6 92.45 134.9 96.6 L136.3 99.85 137.85 103.2 Q139.0 106.45 139.55 109.8 L139.85 111.7 139.95 113.6 139.8 115.85 139.65 116.25 Q139.0 119.25 139.3 122.85 139.5 124.35 139.1 127.45 137.7 126.55 136.85 126.15 134.8 125.1 132.25 122.8 L132.2 122.75 132.15 122.7 128.3 119.25 Q124.55 116.35 122.0 112.25 119.45 107.55 117.9 105.15 116.0 102.2 114.55 98.1 L112.35 90.95 Q111.85 89.45 111.65 87.3 L111.4 84.5 120.35 79.45 120.7 79.5 120.95 79.65 M112.5 97.85 Q119.55 121.1 140.1 132.15 L139.85 133.15 139.0 133.5 Q130.65 131.05 124.5 124.6 L124.65 125.7 Q117.65 117.7 112.25 108.35 106.45 98.1 109.3 85.95 110.75 91.95 112.5 97.85" fill="url(#gradient6)" fill-rule="evenodd" stroke="none"/>
  </g>
  <defs>
    <linearGradient gradientTransform="matrix(0.0232, -0.1045, 0.1268, 0.0281, 59.5, 111.6)" gradientUnits="userSpaceOnUse" id="gradient0" spreadMethod="pad" x1="-819.2" x2="819.2">
      <stop offset="0.0" stop-color="#dede00" stop-opacity="0.5019608"/>
      <stop offset="1.0" stop-color="#8f4602" stop-opacity="0.5019608"/>
    </linearGradient>
    <linearGradient gradientTransform="matrix(0.0075, 0.0461, -0.0168, 0.0027, 93.0, 44.45)" gradientUnits="userSpaceOnUse" id="gradient1" spreadMethod="pad" x1="-819.2" x2="819.2">
      <stop offset="0.0" stop-color="#765282"/>
      <stop offset="1.0" stop-color="#37283e"/>
    </linearGradient>
    <linearGradient gradientTransform="matrix(0.0019, -0.0322, 0.039, 0.0023, -104.75, 64.35)" gradientUnits="userSpaceOnUse" id="gradient2" spreadMethod="pad" x1="-819.2" x2="819.2">
      <stop offset="0.0" stop-color="#dddd00"/>
      <stop offset="1.0" stop-color="#8e4702"/>
    </linearGradient>
    <linearGradient gradientTransform="matrix(0.0387, -0.1045, 0.1226, 0.0281, 68.8, 111.6)" gradientUnits="userSpaceOnUse" id="gradient3" spreadMethod="pad" x1="-819.2" x2="819.2">
      <stop offset="0.0" stop-color="#dddd00"/>
      <stop offset="1.0" stop-color="#8e4702"/>
    </linearGradient>
    <linearGradient gradientTransform="matrix(0.0059, 0.0365, -0.0133, 0.0022, 93.75, 44.85)" gradientUnits="userSpaceOnUse" id="gradient4" spreadMethod="pad" x1="-819.2" x2="819.2">
      <stop offset="0.0" stop-color="#765282"/>
      <stop offset="1.0" stop-color="#37283e"/>
    </linearGradient>
    <linearGradient gradientTransform="matrix(0.0232, -0.1045, 0.1268, 0.0281, 59.5, 111.6)" gradientUnits="userSpaceOnUse" id="gradient5" spreadMethod="pad" x1="-819.2" x2="819.2">
      <stop offset="0.0" stop-color="#dddd00"/>
      <stop offset="1.0" stop-color="#8e4702"/>
    </linearGradient>
    <linearGradient gradientTransform="matrix(0.0232, -0.1045, 0.1268, 0.0281, 62.8, 118.2)" gradientUnits="userSpaceOnUse" id="gradient6" spreadMethod="pad" x1="-819.2" x2="819.2">
      <stop offset="0.0" stop-color="#dede00" stop-opacity="0.5019608"/>
      <stop offset="1.0" stop-color="#8f4602" stop-opacity="0.5019608"/>
    </linearGradient>
  </defs>
</svg>
