<?xml version="1.0" encoding="UTF-8" standalone="no"?>
<svg xmlns:xlink="http://www.w3.org/1999/xlink" height="122.15px" width="110.45px" xmlns="http://www.w3.org/2000/svg">
  <g transform="matrix(1.0, 0.0, 0.0, 1.0, 0.0, 0.0)">
    <path d="M106.1 34.4 L106.2 34.35 107.0 35.45 Q108.4 37.65 108.75 39.1 L109.4 44.1 Q109.15 45.5 109.2 47.4 109.25 52.0 108.95 53.4 107.25 61.65 106.05 65.25 104.35 70.15 101.0 77.1 L98.2 81.95 98.0 81.9 Q97.25 81.9 97.0 82.95 L96.7 84.35 95.6 86.15 95.0 86.9 Q93.95 88.15 93.85 88.65 93.4 90.35 89.35 92.5 85.25 94.65 82.2 94.65 79.5 94.65 77.85 93.55 L77.95 93.35 80.1 93.15 81.6 92.45 83.7 92.7 84.8 91.7 86.1 90.95 86.3 90.6 86.65 90.15 87.95 89.35 89.1 88.6 89.8 86.8 Q90.0 86.3 91.15 85.1 92.15 84.05 92.2 83.45 92.2 82.75 93.4 81.95 94.6 81.15 94.6 79.9 L94.45 78.85 Q94.45 78.55 94.9 78.2 L95.65 77.6 Q96.45 76.5 96.45 75.1 96.45 74.4 97.4 73.9 98.45 73.35 98.55 73.0 L98.65 71.7 Q98.6 70.9 98.85 70.5 99.3 69.75 100.1 69.7 100.55 69.65 100.55 68.2 100.55 67.0 101.0 65.7 101.15 65.25 101.75 64.5 102.25 63.95 102.2 63.4 102.1 62.55 102.35 61.9 L102.65 60.9 102.6 59.1 Q102.6 58.75 103.1 58.1 L103.55 57.15 Q103.55 55.6 103.7 55.2 L103.9 54.0 103.9 53.25 104.45 49.45 104.6 47.5 104.8 46.55 105.0 45.7 104.75 44.9 104.45 44.15 Q104.45 43.9 104.95 43.35 L105.45 42.7 105.0 41.7 104.55 40.9 Q104.55 40.6 105.0 40.3 L105.45 39.65 Q105.45 38.9 104.7 37.95 L103.95 36.8 104.3 36.35 103.25 35.25 102.55 34.4 102.15 33.75 101.05 32.2 103.55 32.65 104.3 32.95 104.5 33.1 104.7 33.2 104.9 33.4 Q105.45 33.4 106.1 34.4 M75.3 27.0 Q75.9 26.45 76.25 26.45 79.0 26.45 81.75 28.85 L84.15 31.05 83.9 31.35 Q80.2 36.0 80.2 37.2 L80.25 37.45 80.6 37.5 Q82.8 34.0 85.8 30.5 87.45 28.5 89.25 26.85 92.3 24.0 94.05 24.0 95.8 24.0 97.45 25.55 98.95 26.95 98.95 27.85 98.95 28.5 97.25 30.15 95.7 31.7 95.6 32.3 94.65 32.7 93.8 33.25 89.85 35.85 85.9 42.5 84.35 45.05 82.5 48.9 L82.05 49.85 81.8 48.35 81.15 45.8 80.45 43.2 Q79.95 40.55 79.3 39.05 L79.35 38.85 79.3 38.55 79.25 38.65 79.1 38.6 78.8 38.1 78.4 38.5 Q76.85 38.35 75.95 39.4 L75.35 40.45 74.9 40.45 Q75.55 44.8 77.1 51.25 L78.6 57.35 Q77.5 59.8 76.55 62.8 75.3 63.5 73.65 65.65 L70.95 69.35 65.55 76.45 60.5 83.55 56.7 89.05 55.45 89.5 54.2 90.2 52.45 91.25 49.25 93.8 46.45 92.25 44.7 91.35 44.65 91.0 44.25 91.1 44.05 91.05 43.65 91.15 43.6 91.3 Q41.8 91.9 39.75 93.2 L36.05 95.95 31.4 99.05 29.05 100.7 30.45 96.95 31.6 93.6 32.0 93.75 Q35.55 92.0 35.55 91.45 35.55 90.85 34.35 90.05 33.15 89.3 32.6 89.45 L32.85 87.85 32.6 87.8 32.8 84.7 32.8 84.5 33.2 84.5 32.95 83.8 32.6 82.9 33.4 82.15 33.8 82.2 34.7 81.5 34.8 81.5 35.3 81.1 38.1 78.95 41.95 75.9 42.05 75.9 Q44.55 71.4 49.7 64.85 L58.5 53.8 66.85 42.65 74.6 31.4 74.55 31.15 74.45 31.25 73.45 31.95 Q73.05 32.1 72.4 32.4 L71.25 33.05 69.1 34.2 Q69.9 33.0 72.4 30.65 L74.3 28.15 75.0 27.3 75.3 27.0 M86.05 44.25 L88.85 46.7 91.4 43.5 Q94.3 40.6 97.1 40.6 97.75 40.6 98.25 40.95 L98.75 41.2 Q92.45 42.05 86.5 54.55 L84.6 58.85 84.15 58.75 84.15 58.65 82.4 51.45 82.65 50.9 85.95 44.35 86.05 44.25 M88.05 60.35 Q88.7 60.65 88.7 61.45 L88.45 62.65 Q87.9 63.2 85.65 63.2 L84.4 63.05 84.1 63.2 Q83.3 63.2 82.85 62.75 L82.7 62.6 Q81.3 62.05 80.8 61.3 L83.65 59.6 84.3 59.65 84.2 59.9 85.2 59.8 85.2 59.75 88.05 60.35 M83.55 58.55 L83.4 58.6 Q82.8 58.55 81.15 59.75 L80.2 60.5 80.15 60.25 Q80.6 59.2 81.0 55.65 L81.4 51.25 81.8 52.2 Q82.15 52.8 82.15 54.0 L82.65 56.3 83.55 58.55 M64.2 60.45 Q65.9 62.45 71.9 64.5 72.4 64.5 72.55 64.1 72.0 63.75 68.35 62.05 65.45 60.7 64.85 59.9 63.75 58.4 62.1 57.3 61.45 56.9 60.65 55.7 60.1 54.9 59.6 55.1 59.3 55.85 61.1 57.55 L64.2 60.45 M65.9 89.15 Q65.9 90.05 64.55 91.4 62.95 93.05 61.0 93.05 59.75 93.05 58.2 92.15 59.35 92.15 60.3 90.65 61.2 89.2 61.2 87.5 L60.95 86.15 60.65 85.0 Q61.85 84.65 63.8 86.0 65.9 87.45 65.9 89.15 M79.65 61.9 L79.8 61.95 Q80.35 63.0 82.85 63.6 80.25 71.65 80.25 79.15 80.25 80.7 81.0 83.25 L81.9 85.45 80.45 85.1 79.35 85.2 79.35 85.6 79.4 85.65 78.6 85.7 Q78.05 86.25 77.55 86.25 L74.5 86.2 Q74.25 81.6 73.8 79.05 74.85 69.6 79.0 59.0 L79.65 61.9 M19.05 91.45 L19.05 91.4 23.35 88.05 24.75 87.05 Q25.0 86.4 26.55 85.5 L27.95 84.6 Q28.25 84.3 28.5 84.25 L29.4 83.55 29.9 83.15 Q30.1 82.6 31.1 82.0 L31.6 81.7 32.35 81.0 33.15 81.3 32.3 82.0 32.3 82.05 30.3 83.8 30.15 83.8 29.05 84.65 27.45 86.25 26.0 87.15 25.5 87.6 25.15 87.8 19.15 92.65 19.15 92.6 17.65 93.95 17.55 93.95 13.35 97.35 13.25 97.55 12.75 97.95 12.65 97.95 12.55 98.0 12.55 97.9 12.35 97.65 12.25 97.3 12.3 97.05 12.3 96.55 12.75 96.5 12.55 96.75 12.85 96.6 13.15 96.55 13.3 96.2 16.9 93.25 18.35 91.95 19.05 91.45 M35.25 75.7 Q35.0 73.7 33.1 71.3 30.4 67.85 26.55 68.0 L26.95 67.75 30.05 65.25 Q33.0 62.85 35.35 59.85 37.9 56.65 39.15 53.6 L40.4 50.45 Q41.25 48.65 42.4 47.15 L44.35 44.3 Q46.65 41.55 48.85 41.55 52.15 41.55 52.15 45.1 L51.75 46.75 46.65 53.05 44.9 55.2 44.5 55.35 43.8 56.25 43.9 56.3 43.95 56.35 43.05 57.35 Q40.85 59.9 39.9 61.45 39.4 62.25 38.4 65.8 L37.05 68.6 36.85 68.95 35.8 67.55 Q34.3 66.15 31.85 65.8 L31.4 66.95 33.0 67.2 35.1 68.4 Q35.45 68.55 36.0 69.95 36.55 71.3 36.55 72.0 L36.15 74.25 35.35 75.65 35.25 75.7 M41.15 79.45 L40.95 79.5 43.3 81.9 46.1 84.0 Q52.9 88.3 53.5 88.3 L53.85 88.25 53.9 88.05 Q53.1 87.25 50.65 85.85 L46.85 83.7 Q45.6 82.95 43.8 81.45 42.05 80.0 41.15 79.45 M33.95 80.45 L33.55 80.2 Q32.55 80.05 32.4 79.45 L30.45 78.1 Q27.65 76.15 26.5 75.85 L27.5 74.3 30.6 75.8 30.8 75.85 31.35 76.15 Q35.25 78.25 35.25 79.1 L35.15 79.35 35.1 79.3 34.9 79.7 34.9 79.8 Q34.9 80.2 34.4 80.25 L34.2 80.45 33.95 80.45 M31.1 84.15 L31.65 83.7 31.85 84.15 31.85 84.35 31.95 85.85 31.7 88.75 31.75 89.1 Q31.3 91.7 29.95 95.5 28.1 100.8 25.6 105.1 22.05 111.1 18.9 114.15 L16.95 116.1 Q15.65 117.3 14.4 117.9 L11.1 119.85 Q9.0 121.05 6.95 121.05 L5.2 120.7 3.9 120.35 3.7 120.4 3.1 119.8 Q3.55 119.8 4.05 119.15 4.55 118.45 4.8 118.45 L6.2 118.45 Q7.5 117.9 8.55 117.95 L10.25 117.0 11.4 116.2 12.95 114.4 Q14.3 112.7 15.5 112.15 16.5 111.7 17.45 110.3 L19.0 108.1 Q19.8 107.2 20.4 105.9 L21.5 103.7 21.95 103.15 22.25 102.95 22.35 102.4 22.65 102.1 22.9 101.8 24.2 99.6 26.75 95.15 27.0 94.1 27.15 92.9 27.55 90.8 27.9 86.8 31.1 84.15 M36.45 85.8 L35.0 85.75 Q34.2 86.15 34.2 86.8 34.2 87.2 35.6 88.2 L36.4 89.2 Q36.65 89.6 37.6 89.6 38.3 89.6 38.75 88.95 L39.1 88.1 Q39.1 87.55 38.15 86.95 L36.45 85.8 M55.55 92.8 L56.5 93.2 Q57.5 93.6 57.5 94.0 57.1 95.8 56.65 95.8 56.2 95.8 54.25 94.7 L55.05 93.6 55.55 92.8" fill="#f77b00" fill-rule="evenodd" stroke="none"/>
    <path d="M106.2 34.35 L106.15 34.35 106.1 34.4 Q105.45 33.4 104.9 33.4 L104.7 33.2 104.5 33.1 104.3 32.95 103.55 32.65 101.05 32.2 102.15 33.75 102.55 34.4 103.25 35.25 104.3 36.35 103.95 36.8 104.7 37.95 Q105.45 38.9 105.45 39.65 L105.0 40.3 Q104.55 40.6 104.55 40.9 L105.0 41.7 105.45 42.7 104.95 43.35 Q104.45 43.9 104.45 44.15 L104.75 44.9 105.0 45.7 104.8 46.55 104.6 47.5 104.45 49.45 103.9 53.25 103.9 54.0 103.7 55.2 Q103.55 55.6 103.55 57.15 L103.1 58.1 Q102.6 58.75 102.6 59.1 L102.65 60.9 102.35 61.9 Q102.1 62.55 102.2 63.4 102.25 63.95 101.75 64.5 101.15 65.25 101.0 65.7 100.55 67.0 100.55 68.2 100.55 69.65 100.1 69.7 99.3 69.75 98.85 70.5 98.6 70.9 98.65 71.7 L98.55 73.0 Q98.45 73.35 97.4 73.9 96.45 74.4 96.45 75.1 96.45 76.5 95.65 77.6 L94.9 78.2 Q94.45 78.55 94.45 78.85 L94.6 79.9 Q94.6 81.15 93.4 81.95 92.2 82.75 92.2 83.45 92.15 84.05 91.15 85.1 90.0 86.3 89.8 86.8 L89.1 88.6 87.95 89.35 86.65 90.15 86.3 90.6 86.1 90.95 84.8 91.7 83.7 92.7 81.6 92.45 80.1 93.15 77.95 93.35 77.55 93.35 77.85 93.55 Q79.5 94.65 82.2 94.65 85.25 94.65 89.35 92.5 93.4 90.35 93.85 88.65 93.95 88.15 95.0 86.9 L95.6 86.15 96.7 84.35 97.0 82.95 Q97.25 81.9 98.0 81.9 L98.2 81.95 101.0 77.1 Q104.35 70.15 106.05 65.25 107.25 61.65 108.95 53.4 109.25 52.0 109.2 47.4 109.15 45.5 109.4 44.1 L108.75 39.1 Q108.4 37.65 107.0 35.45 L106.2 34.35 M110.45 43.2 Q110.45 49.7 109.75 54.05 108.95 58.9 106.6 66.2 L104.35 72.0 101.65 77.75 Q100.55 80.1 97.8 84.25 L97.1 85.9 95.75 87.6 Q94.75 88.85 94.5 89.5 93.3 92.65 84.15 95.55 79.25 95.55 77.8 94.85 75.6 93.8 74.05 89.45 L73.45 86.35 Q73.15 84.1 73.15 82.8 L73.15 82.45 73.05 81.1 Q73.05 75.8 75.1 67.85 L76.1 64.3 74.65 66.15 71.55 70.05 66.4 76.85 61.45 83.75 Q62.2 83.85 63.65 84.7 66.8 86.55 66.8 89.05 66.8 90.35 65.55 92.0 63.9 94.15 61.25 94.15 L58.35 93.6 58.45 93.9 58.1 95.65 Q57.65 96.9 56.75 96.9 L54.2 95.85 51.65 94.5 Q51.25 94.45 50.95 94.15 L50.8 94.0 49.15 95.1 44.0 92.0 41.45 93.6 36.3 96.75 Q30.6 100.25 28.6 102.05 L28.5 102.05 26.65 105.5 Q22.65 111.6 19.75 114.7 L17.8 116.85 Q16.65 118.0 15.0 118.7 L12.05 120.5 Q9.05 122.15 7.3 122.15 L5.1 121.85 Q3.65 121.85 2.1 119.9 L0.7 117.8 Q0.0 116.6 0.0 113.3 0.0 108.65 1.85 104.15 2.85 101.7 5.1 97.75 L5.15 97.85 5.15 97.9 6.45 95.65 8.75 92.1 Q11.9 87.75 15.05 84.95 L19.35 81.5 Q22.25 79.6 25.15 78.95 26.55 78.05 29.05 79.65 L29.2 79.5 29.8 79.1 29.65 79.0 27.95 77.65 Q27.7 77.4 26.85 77.1 L25.6 76.45 Q24.2 76.4 23.65 76.0 L22.15 76.25 Q21.25 76.0 21.25 75.55 L21.4 74.65 21.2 73.2 Q21.2 72.8 21.75 72.45 L22.7 71.75 23.5 71.2 Q23.2 70.85 23.05 70.3 L22.85 68.85 Q22.85 66.05 29.05 60.7 L30.55 59.3 Q29.4 59.0 27.25 56.65 25.15 54.35 23.65 52.0 21.5 48.6 21.5 44.6 21.5 43.25 22.0 41.1 22.55 38.8 23.2 37.65 L24.5 35.95 Q25.45 34.75 25.4 34.2 25.1 33.55 25.65 32.4 L26.6 30.7 27.65 29.05 28.55 27.2 Q28.85 25.3 29.55 23.75 30.4 21.6 32.7 19.35 34.1 18.0 35.0 17.55 L34.8 16.45 34.05 15.6 33.05 14.5 Q31.4 12.35 31.4 10.55 L31.65 8.8 Q31.9 7.75 32.25 7.4 32.7 6.25 34.75 4.95 37.7 3.05 40.65 3.55 44.05 4.15 46.75 5.7 L50.25 8.1 52.5 10.15 52.6 10.1 52.6 9.7 Q52.6 7.65 55.4 4.2 58.65 0.15 62.2 0.25 66.15 -1.0 72.45 3.45 78.25 7.6 78.25 9.75 L78.45 11.1 Q78.45 12.95 76.7 13.1 74.3 13.3 72.85 15.75 L69.65 20.3 69.3 20.3 70.5 20.95 73.85 23.7 75.8 25.7 Q77.5 25.3 81.3 27.3 82.0 27.9 83.6 28.9 84.5 29.5 84.8 30.2 L87.65 26.9 90.05 24.55 Q91.75 23.0 94.4 23.0 96.4 22.95 98.25 25.0 99.85 26.75 99.85 27.9 99.85 28.9 98.15 30.65 L97.05 31.75 Q98.85 31.2 100.95 31.2 103.5 31.2 105.1 32.55 107.5 33.6 108.9 36.65 110.15 39.3 110.25 42.2 L110.45 43.2 M71.8 4.5 L72.45 4.7 70.35 3.25 Q67.1 1.2 64.85 1.2 59.4 1.2 56.9 3.85 55.35 5.45 53.3 10.7 L53.3 10.8 53.25 10.95 53.45 11.2 53.6 10.95 53.6 11.3 53.9 11.7 54.3 12.2 Q54.4 11.7 55.45 10.0 L56.9 7.65 Q58.4 5.5 60.85 4.3 63.1 3.25 65.05 3.45 68.7 3.6 71.8 4.5 M73.8 25.35 L72.7 24.4 70.35 22.2 Q68.65 21.0 64.75 19.4 L63.4 19.05 62.3 18.75 62.3 19.0 62.3 20.15 Q63.55 19.9 65.65 20.65 66.85 21.1 69.4 22.45 71.9 23.95 73.65 25.45 L74.75 26.4 74.9 26.2 74.95 26.15 73.8 25.35 M75.3 27.0 L75.0 27.3 74.3 28.15 72.4 30.65 Q69.9 33.0 69.1 34.2 L71.25 33.05 72.4 32.4 Q73.05 32.1 73.45 31.95 L74.45 31.25 74.55 31.15 74.6 31.4 66.85 42.65 58.5 53.8 49.7 64.85 Q44.55 71.4 42.05 75.9 L41.95 75.9 38.1 78.95 35.3 81.1 34.8 81.5 34.7 81.5 33.8 82.2 33.4 82.15 32.6 82.9 32.95 83.8 33.2 84.5 32.8 84.5 32.8 84.7 32.6 87.8 32.85 87.85 32.6 89.45 Q33.15 89.3 34.35 90.05 35.55 90.85 35.55 91.45 35.55 92.0 32.0 93.75 L31.6 93.6 30.45 96.95 29.05 100.7 31.4 99.05 36.05 95.95 39.75 93.2 Q41.8 91.9 43.6 91.3 L43.65 91.15 44.05 91.05 44.25 91.1 44.65 91.0 44.7 91.35 46.45 92.25 49.25 93.8 52.45 91.25 54.2 90.2 55.45 89.5 56.7 89.05 60.5 83.55 65.55 76.45 70.95 69.35 73.65 65.65 Q75.3 63.5 76.55 62.8 77.5 59.8 78.6 57.35 L77.1 51.25 Q75.55 44.8 74.9 40.45 L75.35 40.45 75.95 39.4 Q76.85 38.35 78.4 38.5 L78.8 38.1 79.1 38.6 79.25 38.65 79.3 38.55 79.35 38.85 79.3 39.05 Q79.95 40.55 80.45 43.2 L81.15 45.8 81.8 48.35 82.05 49.85 82.5 48.9 Q84.35 45.05 85.9 42.5 89.85 35.85 93.8 33.25 94.65 32.7 95.6 32.3 95.7 31.7 97.25 30.15 98.95 28.5 98.95 27.85 98.95 26.95 97.45 25.55 95.8 24.0 94.05 24.0 92.3 24.0 89.25 26.85 87.45 28.5 85.8 30.5 82.8 34.0 80.6 37.5 L80.25 37.45 80.2 37.2 Q80.2 36.0 83.9 31.35 L84.15 31.05 81.75 28.85 Q79.0 26.45 76.25 26.45 75.9 26.45 75.3 27.0 M68.9 20.05 L68.95 20.1 68.95 19.95 68.9 20.05 M66.85 24.0 L65.9 25.55 66.3 25.85 68.2 27.55 70.15 29.3 71.2 30.65 73.1 28.4 71.65 27.15 69.15 25.05 66.85 23.95 66.85 24.0 M99.55 41.75 Q94.35 43.0 89.75 50.3 87.4 54.0 85.45 59.1 L88.65 59.35 89.15 59.7 Q89.7 60.0 89.7 61.45 89.7 63.4 88.45 64.25 L87.15 64.25 83.8 63.8 82.3 69.35 Q81.05 74.8 81.05 79.05 81.05 80.4 81.7 82.65 82.35 84.8 83.05 85.75 L83.3 85.75 Q85.1 85.75 87.15 83.95 L89.2 81.55 92.05 77.0 94.3 72.2 96.4 67.4 Q98.45 63.35 99.75 58.05 101.0 52.8 101.0 48.3 101.0 45.25 99.55 41.8 L99.55 41.75 M84.15 58.75 L84.6 58.85 86.5 54.55 Q92.45 42.05 98.75 41.2 L98.25 40.95 Q97.75 40.6 97.1 40.6 94.3 40.6 91.4 43.5 L88.85 46.7 86.05 44.25 86.0 44.25 85.95 44.35 82.65 50.9 82.4 51.45 84.15 58.65 84.1 58.75 84.15 58.75 M88.05 60.35 L85.2 59.75 85.2 59.8 84.2 59.9 84.3 59.65 83.65 59.6 80.8 61.3 Q81.3 62.05 82.7 62.6 L82.85 62.75 Q83.3 63.2 84.1 63.2 L84.4 63.05 85.65 63.2 Q87.9 63.2 88.45 62.65 L88.7 61.45 Q88.7 60.65 88.05 60.35 M83.4 58.6 L83.6 58.65 83.55 58.55 82.65 56.3 82.15 54.0 Q82.15 52.8 81.8 52.2 L81.4 51.25 81.0 55.65 Q80.6 59.2 80.15 60.25 L80.2 60.5 81.15 59.75 Q82.8 58.55 83.4 58.6 M81.45 51.1 L81.45 50.95 81.4 51.25 81.45 51.1 M64.2 60.45 L61.1 57.55 Q59.3 55.85 59.6 55.1 60.1 54.9 60.65 55.7 61.45 56.9 62.1 57.3 63.75 58.4 64.85 59.9 65.45 60.7 68.35 62.05 72.0 63.75 72.55 64.1 72.4 64.5 71.9 64.5 65.9 62.45 64.2 60.45 M79.75 58.5 L79.8 58.6 79.8 58.5 79.75 58.5 M79.65 61.9 L79.0 59.0 Q74.85 69.6 73.8 79.05 74.25 81.6 74.5 86.2 L77.55 86.25 Q78.05 86.25 78.6 85.7 L79.4 85.65 79.35 85.6 79.35 85.2 80.45 85.1 81.9 85.45 81.0 83.25 Q80.25 80.7 80.25 79.15 80.25 71.65 82.85 63.6 80.35 63.0 79.8 61.95 L79.65 61.9 M65.9 89.15 Q65.9 87.45 63.8 86.0 61.85 84.65 60.65 85.0 L60.95 86.15 61.2 87.5 Q61.2 89.2 60.3 90.65 59.35 92.15 58.2 92.15 59.75 93.05 61.0 93.05 62.95 93.05 64.55 91.4 65.9 90.05 65.9 89.15 M53.75 13.1 L52.1 11.2 Q45.9 4.5 39.9 4.5 36.3 4.5 34.15 6.45 32.95 7.55 32.7 8.55 L32.7 8.95 32.55 9.65 32.35 10.45 Q32.35 11.9 33.85 13.75 33.4 12.4 33.4 11.25 33.4 10.25 34.0 8.95 34.65 7.5 35.6 7.05 L37.15 6.0 Q38.05 5.35 39.25 5.05 L43.55 5.55 45.25 6.55 47.85 8.55 50.1 10.55 52.45 12.65 Q52.8 12.95 53.7 13.2 L53.9 13.25 53.75 13.1 M53.25 17.1 Q52.75 17.05 52.35 17.85 52.0 18.45 52.0 18.85 L52.5 19.45 52.7 19.6 52.9 18.7 53.45 17.3 53.25 17.1 M37.25 37.95 L42.25 33.0 Q45.75 29.85 48.75 29.0 L48.9 29.05 48.95 29.35 48.15 30.8 50.1 30.1 Q51.9 29.45 53.0 29.4 50.85 27.85 49.2 27.85 46.9 27.85 37.8 33.2 31.95 36.65 28.75 38.85 L28.1 39.65 28.1 39.8 27.55 40.15 27.5 40.15 26.85 40.55 23.1 42.8 22.9 42.75 22.8 42.35 24.15 39.1 Q24.35 38.2 25.7 37.15 L27.25 35.9 27.85 32.75 Q28.15 30.7 29.8 29.5 31.35 28.35 31.35 26.3 31.25 25.3 31.95 23.1 32.4 21.65 32.95 20.55 L32.5 20.95 30.5 24.3 Q29.95 25.2 29.55 27.8 L28.75 29.45 27.65 31.1 Q26.55 33.25 26.4 34.6 26.35 35.25 25.6 36.35 L24.3 37.95 Q23.4 39.0 22.9 41.25 L22.7 42.35 22.7 42.4 22.5 44.7 Q22.5 49.3 25.85 53.4 L25.9 53.45 25.9 53.5 26.5 54.1 26.05 53.4 25.85 52.25 26.05 49.95 25.5 46.2 Q25.5 44.4 25.7 43.95 L25.5 44.15 26.05 43.15 26.55 42.7 27.5 41.35 27.6 41.4 27.6 41.5 27.65 41.4 27.95 40.8 28.35 40.4 Q30.0 38.8 32.0 37.75 L32.2 37.8 32.25 38.15 31.15 39.8 Q30.0 41.45 29.8 42.3 L34.4 37.6 Q37.3 34.3 39.55 32.7 L39.75 32.75 39.8 33.05 38.8 35.15 37.15 37.85 37.15 37.95 37.15 38.0 37.25 37.95 M24.0 41.25 L24.05 41.25 24.0 41.15 24.0 41.25 M12.75 92.9 Q7.25 99.75 7.25 104.6 7.25 105.5 8.7 105.5 9.85 105.5 11.35 104.0 L12.65 102.45 Q13.95 100.35 15.15 99.0 L17.1 95.7 17.45 94.9 Q13.4 98.1 12.9 98.55 L12.3 98.45 12.15 98.5 Q11.95 98.3 11.8 97.15 L11.65 95.9 Q11.65 93.9 14.4 91.8 L17.25 89.65 16.5 89.65 Q15.0 90.05 12.75 92.9 M17.2 88.7 L18.05 89.05 20.35 87.25 23.6 84.3 23.4 84.3 Q22.0 84.3 20.45 85.55 L18.25 87.35 16.7 88.7 17.2 88.7 M19.05 91.45 L18.35 91.95 16.9 93.25 13.3 96.2 13.15 96.55 12.85 96.6 12.55 96.75 12.75 96.5 12.3 96.55 12.3 97.05 12.25 97.3 12.35 97.65 12.55 97.9 12.55 98.0 12.65 97.95 12.75 97.95 13.25 97.55 13.35 97.35 17.55 93.95 17.65 93.95 19.15 92.6 19.15 92.65 25.15 87.8 25.5 87.6 26.0 87.15 27.45 86.25 29.05 84.65 30.15 83.8 30.3 83.8 32.3 82.05 32.3 82.0 33.15 81.3 32.35 81.0 31.6 81.7 31.1 82.0 Q30.1 82.6 29.9 83.15 L29.4 83.55 28.5 84.25 Q28.25 84.3 27.95 84.6 L26.55 85.5 Q25.0 86.4 24.75 87.05 L23.35 88.05 19.05 91.4 19.05 91.45 M35.35 75.65 L36.15 74.25 36.55 72.0 Q36.55 71.3 36.0 69.95 35.45 68.55 35.1 68.4 L33.0 67.2 31.4 66.95 31.85 65.8 Q34.3 66.15 35.8 67.55 L36.85 68.95 37.05 68.6 38.4 65.8 Q39.4 62.25 39.9 61.45 40.85 59.9 43.05 57.35 L43.95 56.35 43.9 56.3 43.8 56.25 44.5 55.35 44.9 55.2 46.65 53.05 51.75 46.75 52.15 45.1 Q52.15 41.55 48.85 41.55 46.65 41.55 44.35 44.3 L42.4 47.15 Q41.25 48.65 40.4 50.45 L39.15 53.6 Q37.9 56.65 35.35 59.85 33.0 62.85 30.05 65.25 L26.95 67.75 26.55 68.0 Q30.4 67.85 33.1 71.3 35.0 73.7 35.25 75.7 L35.25 75.8 35.35 75.65 M45.15 56.15 Q42.2 59.55 40.65 62.25 40.2 63.0 39.25 66.45 L38.65 68.15 39.85 66.95 41.6 65.05 Q41.75 64.85 42.85 64.35 L44.25 63.45 Q45.4 61.95 46.6 59.45 L48.45 55.4 45.15 56.15 M26.7 54.35 L26.75 54.3 26.7 54.3 26.7 54.35 M33.95 80.45 L34.2 80.45 34.4 80.25 Q34.9 80.2 34.9 79.8 L34.9 79.7 35.1 79.3 35.15 79.35 35.25 79.1 Q35.25 78.25 31.35 76.15 L30.8 75.85 30.6 75.8 27.5 74.3 26.5 75.85 Q27.65 76.15 30.45 78.1 L32.4 79.45 Q32.55 80.05 33.55 80.2 L33.95 80.45 M41.15 79.45 Q42.05 80.0 43.8 81.45 45.6 82.95 46.85 83.7 L50.65 85.85 Q53.1 87.25 53.9 88.05 L53.85 88.25 53.5 88.3 Q52.9 88.3 46.1 84.0 L43.3 81.9 40.95 79.5 41.15 79.45 M28.15 80.3 L28.1 80.45 28.25 80.35 28.15 80.3 M30.6 79.6 L30.4 79.5 30.35 79.55 30.55 79.65 30.6 79.6 M31.1 84.15 L27.9 86.8 27.55 90.8 27.15 92.9 27.0 94.1 26.75 95.15 24.2 99.6 22.9 101.8 22.65 102.1 22.35 102.4 22.25 102.95 21.95 103.15 21.5 103.7 20.4 105.9 Q19.8 107.2 19.0 108.1 L17.45 110.3 Q16.5 111.7 15.5 112.15 14.3 112.7 12.95 114.4 L11.4 116.2 10.25 117.0 8.55 117.95 Q7.5 117.9 6.2 118.45 L4.8 118.45 Q4.55 118.45 4.05 119.15 3.55 119.8 3.1 119.8 L3.7 120.4 3.9 120.35 5.2 120.7 6.95 121.05 Q9.0 121.05 11.1 119.85 L14.4 117.9 Q15.65 117.3 16.95 116.1 L18.9 114.15 Q22.05 111.1 25.6 105.1 28.1 100.8 29.95 95.5 31.3 91.7 31.75 89.1 L31.7 88.75 31.95 85.85 31.85 84.35 31.85 84.15 31.65 83.7 31.1 84.15 M26.95 82.6 L26.9 82.6 26.95 82.7 26.95 82.6 M24.55 89.35 Q22.65 90.7 19.15 93.6 L17.9 96.75 15.75 100.15 13.4 103.6 Q11.0 106.6 9.2 106.6 7.1 106.6 6.65 105.15 L6.6 103.65 6.6 103.5 Q5.35 107.15 5.35 110.4 L5.35 112.6 Q5.55 114.4 6.55 114.4 9.1 114.4 12.6 111.45 L15.7 108.4 Q18.1 106.05 20.95 101.45 22.2 99.4 23.85 95.0 25.55 90.65 25.8 88.45 25.1 88.95 24.55 89.35 M36.45 85.8 L38.15 86.95 Q39.1 87.55 39.1 88.1 L38.75 88.95 Q38.3 89.6 37.6 89.6 36.65 89.6 36.4 89.2 L35.6 88.2 Q34.2 87.2 34.2 86.8 34.2 86.15 35.0 85.75 L36.45 85.8 M35.2 86.75 L36.25 87.65 37.25 88.65 38.15 88.15 35.7 86.3 35.2 86.75 M32.6 89.55 L31.6 93.5 32.85 92.45 Q33.9 91.7 34.3 91.55 L34.45 91.3 33.45 90.4 32.6 89.55 M55.55 92.8 L55.05 93.6 54.25 94.7 Q56.2 95.8 56.65 95.8 57.1 95.8 57.5 94.0 57.5 93.6 56.5 93.2 L55.55 92.8 M55.3 91.0 L55.35 91.05 55.35 91.0 55.3 91.0 M55.45 90.95 L55.7 90.85 55.65 90.8 55.45 90.95 M12.3 95.75 L12.3 96.0 12.4 95.95 12.3 95.75 M23.25 99.45 L23.2 99.45 23.1 99.6 23.25 99.45 M21.6 102.35 L21.65 102.25 21.5 102.4 21.2 102.95 21.6 102.35" fill="#000000" fill-rule="evenodd" stroke="none"/>
    <path d="M73.65 25.45 Q71.9 23.95 69.4 22.45 66.85 21.1 65.65 20.65 63.55 19.9 62.3 20.15 L62.3 19.0 62.3 18.75 63.4 19.05 64.75 19.4 Q68.65 21.0 70.35 22.2 L72.7 24.4 73.8 25.35 73.65 25.45 M71.8 4.5 Q68.7 3.6 65.05 3.45 63.1 3.25 60.85 4.3 58.4 5.5 56.9 7.65 L55.45 10.0 Q54.4 11.7 54.3 12.2 L53.9 11.7 53.6 11.3 53.6 10.95 53.45 11.2 53.25 10.95 53.3 10.8 53.3 10.7 Q55.35 5.45 56.9 3.85 59.4 1.2 64.85 1.2 67.1 1.2 70.35 3.25 L72.45 4.7 71.8 4.5 M53.7 13.2 Q52.8 12.95 52.45 12.65 L50.1 10.55 47.85 8.55 45.25 6.55 43.55 5.55 39.25 5.05 Q38.05 5.35 37.15 6.0 L35.6 7.05 Q34.65 7.5 34.0 8.95 33.4 10.25 33.4 11.25 33.4 12.4 33.85 13.75 32.35 11.9 32.35 10.45 L32.55 9.65 32.7 8.95 32.7 8.55 Q32.95 7.55 34.15 6.45 36.3 4.5 39.9 4.5 45.9 4.5 52.1 11.2 L53.75 13.1 53.7 13.2 M25.9 53.5 L25.9 53.45 25.85 53.4 Q22.5 49.3 22.5 44.7 L22.7 42.4 22.7 42.35 22.9 41.25 Q23.4 39.0 24.3 37.95 L25.6 36.35 Q26.35 35.25 26.4 34.6 26.55 33.25 27.65 31.1 L28.75 29.45 29.55 27.8 Q29.95 25.2 30.5 24.3 L32.5 20.95 32.95 20.55 Q32.4 21.65 31.95 23.1 31.25 25.3 31.35 26.3 31.35 28.35 29.8 29.5 28.15 30.7 27.85 32.75 L27.25 35.9 25.7 37.15 Q24.35 38.2 24.15 39.1 L22.8 42.35 22.9 42.75 23.1 42.8 26.85 40.55 27.5 40.15 27.55 40.15 28.1 39.8 28.1 39.65 28.75 38.85 Q31.95 36.65 37.8 33.2 46.9 27.85 49.2 27.85 50.85 27.85 53.0 29.4 51.9 29.45 50.1 30.1 L48.15 30.8 48.95 29.35 48.9 29.05 48.75 29.0 Q45.75 29.85 42.25 33.0 L37.25 37.95 37.15 37.95 37.15 37.85 38.8 35.15 39.8 33.05 39.75 32.75 39.55 32.7 Q37.3 34.3 34.4 37.6 L29.8 42.3 Q30.0 41.45 31.15 39.8 L32.25 38.15 32.2 37.8 32.0 37.75 Q30.0 38.8 28.35 40.4 L27.95 40.8 27.65 41.4 27.5 41.35 26.55 42.7 26.05 43.15 25.5 44.15 25.7 43.95 Q25.5 44.4 25.5 46.2 L26.05 49.95 25.85 52.25 26.05 53.4 25.9 53.5 M53.25 17.1 L53.45 17.3 52.9 18.7 52.7 19.6 52.5 19.45 52.0 18.85 Q52.0 18.45 52.35 17.85 52.75 17.05 53.25 17.1 M12.75 92.9 Q15.0 90.05 16.5 89.65 L17.25 89.65 14.4 91.8 Q11.65 93.9 11.65 95.9 L11.8 97.15 Q11.95 98.3 12.15 98.5 L12.3 98.45 12.9 98.55 Q13.4 98.1 17.45 94.9 L17.1 95.7 15.15 99.0 Q13.95 100.35 12.65 102.45 L11.35 104.0 Q9.85 105.5 8.7 105.5 7.25 105.5 7.25 104.6 7.25 99.75 12.75 92.9" fill="#9f97c6" fill-rule="evenodd" stroke="none"/>
  </g>
</svg>
