<?xml version="1.0" encoding="UTF-8" standalone="no"?>
<svg xmlns:xlink="http://www.w3.org/1999/xlink" height="210.45px" width="310.5px" xmlns="http://www.w3.org/2000/svg">
  <g transform="matrix(1.0, 0.0, 0.0, 1.0, 0.0, 0.0)">
    <path d="M18.0 75.85 Q18.0 74.4 20.2 72.35 22.9 69.85 26.0 71.25 27.75 72.6 29.2 74.8 30.65 77.0 31.0 78.75 32.15 84.35 37.3 93.75 L37.9 93.35 38.5 92.7 38.55 92.75 38.45 92.1 38.5 88.0 37.75 80.5 35.7 73.5 Q33.8 67.45 33.8 65.7 33.8 63.15 37.25 61.5 40.95 59.7 43.05 63.7 44.2 65.0 45.4 68.15 L47.0 73.0 Q48.0 76.15 49.4 82.55 50.6 87.2 52.4 90.4 52.25 89.4 52.25 88.2 52.45 83.6 52.25 81.75 L51.0 69.0 Q51.0 67.65 52.7 65.9 54.85 63.65 57.5 66.2 58.3 67.2 58.75 68.85 L59.5 71.7 Q60.15 73.5 60.65 76.85 L61.5 82.5 62.95 92.9 64.25 103.0 Q65.25 100.55 67.75 97.45 72.95 90.95 79.5 90.95 83.05 90.95 84.0 91.95 L84.25 93.2 Q84.25 95.4 81.5 99.65 79.25 103.15 77.0 105.45 74.5 107.95 73.95 111.4 L73.25 117.45 Q72.75 119.55 68.95 123.45 64.8 127.65 64.0 129.45 L61.15 135.75 Q60.3 138.0 60.3 140.8 L60.25 141.45 60.4 141.9 Q60.7 143.15 60.8 145.75 L62.15 149.25 Q63.2 151.8 65.3 153.25 69.25 156.0 72.45 160.2 74.65 163.1 75.4 165.4 L76.5 164.25 81.45 158.35 Q84.2 155.35 87.75 153.0 91.4 150.55 97.05 148.85 104.3 146.65 106.75 145.5 111.3 143.4 114.05 141.45 117.1 139.3 119.55 136.25 L124.05 130.55 Q126.55 127.7 130.05 125.75 136.35 122.1 138.5 121.0 L140.7 120.5 145.25 119.2 Q154.6 115.85 157.8 117.25 L159.05 117.75 169.35 118.2 Q176.5 118.2 183.6 113.85 187.2 111.6 190.3 108.5 192.05 106.75 193.65 102.55 194.5 100.3 195.4 99.0 195.1 98.75 194.8 98.6 L193.95 98.3 192.8 97.25 Q187.75 93.05 187.75 88.45 187.75 85.45 193.05 78.05 L199.55 68.75 Q201.7 62.45 203.15 59.05 205.7 53.1 209.9 50.45 211.6 47.2 212.9 45.3 L210.3 44.75 Q210.05 45.45 210.05 44.2 210.05 42.7 215.3 39.8 221.65 36.3 222.5 35.45 L223.25 35.2 219.6 35.8 213.05 35.5 Q214.0 34.3 222.75 30.7 227.3 28.1 231.55 26.25 L231.95 26.05 231.05 25.45 230.2 24.75 226.55 24.0 Q229.05 22.3 236.95 19.25 240.75 17.8 243.9 16.85 L243.75 16.4 243.3 15.25 243.3 11.95 243.2 11.75 Q243.2 11.5 244.0 11.5 245.25 11.5 245.3 11.85 245.4 12.65 246.05 13.25 246.35 11.1 247.5 6.95 L249.3 0.0 250.75 0.0 Q251.2 3.15 254.25 6.95 257.4 10.9 262.3 14.2 263.1 8.65 265.3 2.0 L265.3 1.9 266.25 1.75 267.3 2.0 Q267.3 4.15 268.65 6.7 L268.75 6.7 Q272.3 12.2 280.3 19.2 L294.4 31.7 Q299.7 35.25 303.45 44.05 306.8 51.85 306.8 57.85 306.8 60.65 306.2 65.35 L305.55 69.95 306.5 74.25 309.4 83.25 309.4 86.25 Q309.2 86.25 309.05 86.4 L308.9 86.7 Q307.95 86.4 306.7 84.95 L305.05 82.75 302.9 80.6 Q302.25 83.75 303.15 89.25 L302.8 89.95 Q301.0 89.6 300.15 87.85 L299.6 86.5 297.6 89.3 297.55 89.45 297.45 89.55 Q294.85 93.2 293.55 96.0 L291.55 100.65 Q290.05 103.8 288.4 105.7 286.55 104.1 287.9 99.45 L287.8 99.2 Q286.05 101.15 282.6 105.7 L277.5 112.2 Q275.2 110.8 275.5 109.45 271.3 110.95 267.3 114.85 L261.8 120.5 Q259.85 120.4 259.9 119.45 L260.55 117.75 257.5 117.75 255.75 119.25 Q254.6 120.0 254.0 120.0 253.75 120.0 251.55 118.45 L250.15 117.6 249.4 118.1 248.1 118.95 Q243.3 122.8 240.55 126.75 237.8 130.7 237.45 134.4 241.2 136.45 244.05 140.8 247.2 145.55 247.5 149.95 247.8 151.3 247.55 154.4 247.95 157.05 251.8 158.0 255.2 158.85 257.7 160.5 259.2 161.5 262.5 164.0 273.4 171.25 279.6 181.8 281.65 185.25 283.25 189.15 L284.7 190.8 Q287.15 193.75 287.3 194.75 288.3 199.65 288.3 201.7 288.3 202.35 285.6 203.8 L282.4 205.45 Q280.3 206.5 252.5 207.5 L207.0 205.2 Q187.25 205.2 172.6 207.85 157.9 210.45 154.25 210.45 147.55 210.45 141.0 207.4 135.25 204.15 134.0 203.75 L127.4 202.0 Q122.4 200.25 122.25 198.0 L114.1 197.5 Q93.5 197.5 75.1 201.0 56.7 204.45 50.0 204.45 31.1 204.45 25.8 196.0 24.15 193.3 24.05 189.95 L24.15 188.85 Q23.8 187.3 23.8 185.25 23.8 179.8 24.4 177.25 25.6 173.05 26.8 167.25 27.55 163.55 27.7 158.2 L27.9 151.5 Q27.6 150.45 27.6 149.0 27.6 147.3 28.25 143.2 28.5 141.3 27.9 137.9 L26.75 132.7 Q26.4 131.1 24.85 127.4 23.2 123.5 22.75 121.75 L21.85 116.5 Q21.1 113.1 19.05 111.25 L19.45 110.85 16.65 109.6 11.05 106.75 Q8.55 105.25 3.2 103.55 0.0 102.5 0.0 100.85 0.0 99.1 0.85 97.95 2.1 96.2 5.0 96.2 7.0 96.2 12.95 98.6 18.85 101.05 22.55 101.0 L25.0 101.0 25.0 100.7 25.05 100.7 24.8 98.75 24.55 96.95 Q23.75 95.55 23.4 93.45 23.05 89.15 22.5 87.5 L20.0 82.0 Q18.0 77.55 18.0 75.85 M25.35 74.1 L25.85 74.1 25.6 73.8 Q24.7 72.75 24.05 72.75 22.65 72.75 21.3 74.55 20.25 75.95 20.25 76.45 20.25 77.3 22.3 81.9 L24.3 86.45 25.05 91.15 25.4 92.8 25.4 92.9 25.55 92.75 26.45 96.8 26.8 100.05 26.8 100.85 27.75 101.25 27.85 101.3 27.75 100.6 27.4 97.1 25.85 90.35 23.9 83.45 Q23.35 81.95 22.0 79.8 21.15 78.4 21.15 76.7 21.15 75.8 22.35 74.95 23.65 74.1 25.35 74.1 M40.75 64.0 L38.5 64.0 Q38.25 64.55 37.1 64.85 36.05 65.1 36.05 65.8 36.05 66.95 38.05 72.45 40.0 77.95 40.0 83.55 40.0 88.7 41.0 93.05 L44.25 93.2 42.85 86.8 41.35 80.6 Q40.85 77.5 39.6 73.5 38.6 70.4 38.6 68.25 38.6 67.15 38.9 66.9 39.5 66.4 41.55 66.25 40.8 64.85 40.75 64.0 M53.4 68.5 Q53.3 68.4 53.3 69.2 L54.5 86.8 54.25 91.9 55.5 92.1 55.6 84.65 Q55.8 80.2 55.6 77.95 54.85 73.45 54.85 71.2 54.85 70.2 55.45 69.5 55.75 69.1 56.15 69.15 L55.05 67.75 53.25 68.0 53.4 68.5 M56.8 70.3 L56.6 70.5 56.85 70.4 56.8 70.3 M231.5 23.2 L231.0 23.45 231.2 23.6 233.6 25.15 233.7 25.2 240.4 21.85 Q246.45 18.8 248.75 18.25 L236.85 25.2 234.7 26.45 234.8 26.95 234.85 27.25 234.0 27.5 233.15 27.35 223.3 32.5 222.05 33.2 226.55 33.25 226.7 33.3 226.8 34.05 Q226.8 34.55 221.35 38.35 216.1 42.05 214.6 42.75 L214.5 42.75 Q214.0 43.0 213.8 43.2 L214.55 43.25 214.75 43.0 215.1 43.2 215.2 43.25 215.3 43.25 217.5 43.5 217.8 44.7 217.8 45.5 216.85 45.75 214.55 45.55 212.65 49.05 210.05 54.2 209.3 55.95 213.25 53.55 Q215.7 52.0 217.3 51.5 218.0 50.75 219.7 49.8 220.05 49.55 225.0 47.05 L222.8 46.8 221.0 46.7 220.9 46.05 220.9 46.0 Q220.9 45.6 224.7 42.8 L225.7 42.1 225.85 42.0 225.85 41.95 229.0 39.7 Q231.25 38.2 233.9 37.1 L238.9 35.45 240.0 35.1 240.25 34.95 240.1 34.9 237.25 34.1 237.1 34.1 236.0 33.85 234.45 33.5 233.15 33.2 233.15 33.15 233.35 32.65 234.25 31.85 234.6 31.65 238.05 30.0 238.85 29.65 Q244.55 27.4 249.15 26.75 L249.25 26.7 249.15 26.6 249.0 26.45 247.7 25.45 247.15 25.1 Q246.55 24.75 246.4 24.2 L246.35 23.75 Q246.35 22.3 252.35 22.3 L252.55 22.3 252.75 22.3 252.95 22.3 253.1 22.3 257.15 22.55 260.1 22.95 267.35 24.2 265.8 22.05 265.65 21.9 265.15 21.0 265.0 20.7 265.05 20.7 264.9 20.0 264.85 19.75 Q264.85 18.05 273.75 19.65 L278.5 20.65 274.95 16.95 273.25 15.1 271.85 13.5 271.7 13.7 Q268.05 9.65 266.0 5.95 264.8 7.75 264.55 11.05 L264.3 16.75 264.15 16.9 264.0 17.2 Q259.25 15.0 255.15 10.7 251.55 6.95 250.3 3.75 L250.25 3.75 249.0 9.05 Q248.15 12.5 248.25 14.7 L248.25 15.2 248.1 15.4 247.5 15.45 246.0 15.15 244.55 14.45 245.1 16.5 247.65 15.85 248.15 15.75 251.5 15.2 Q243.65 18.15 231.5 23.2 M223.15 45.55 L223.35 45.6 223.35 45.35 223.15 45.55 M214.55 57.95 Q213.75 59.6 213.55 61.15 L213.5 61.7 Q213.4 62.95 212.2 65.45 211.0 67.8 211.0 68.75 L211.95 69.9 212.45 70.5 213.9 67.25 Q216.75 61.3 217.2 55.45 L216.5 56.0 215.3 57.1 214.55 57.95 M203.25 102.2 Q202.5 101.35 201.15 100.45 200.2 99.8 198.35 96.7 196.45 93.7 196.05 92.75 195.35 91.2 195.35 89.05 195.35 83.3 203.6 75.7 205.7 73.75 207.85 68.7 208.95 66.1 210.5 64.3 211.45 61.9 211.5 60.7 211.5 58.85 211.65 58.35 L211.7 58.3 211.8 57.95 212.0 57.55 211.95 57.6 212.1 57.35 Q207.7 60.15 207.0 60.95 L206.85 60.95 205.85 60.95 Q203.4 66.25 202.25 69.7 201.5 71.95 195.65 79.35 190.25 86.2 190.25 88.05 190.25 91.5 196.35 97.25 L196.7 97.55 196.75 97.5 197.55 98.35 198.7 99.35 200.05 100.45 203.15 102.55 203.95 102.95 203.25 102.2 M213.3 76.95 L213.3 76.7 213.15 76.9 213.3 76.95 M213.3 73.5 L213.3 73.75 213.4 73.75 213.3 73.5 M298.55 39.5 L295.95 36.3 295.55 35.9 296.45 38.5 Q297.5 42.15 297.5 45.25 297.5 48.05 296.5 52.6 L296.5 52.65 296.25 53.75 295.55 56.7 295.15 58.4 294.85 59.6 296.05 58.3 296.3 58.0 296.45 57.85 297.75 56.85 298.2 57.25 298.25 57.85 298.15 60.7 298.15 60.95 297.4 65.25 297.05 66.5 296.55 67.9 295.25 70.7 293.0 75.05 292.55 75.8 290.75 79.1 292.0 78.4 292.1 78.35 292.5 78.2 293.55 77.85 293.6 77.85 294.25 77.95 294.25 78.7 293.25 78.8 293.5 80.85 293.7 80.8 292.6 83.75 291.0 87.75 290.0 89.8 289.7 90.5 289.55 90.75 289.5 90.85 289.0 91.85 288.95 92.0 288.9 92.1 288.6 92.7 288.55 92.75 287.8 94.15 287.7 94.3 287.2 95.15 Q285.3 98.25 282.25 100.45 L282.15 100.6 282.25 100.6 282.3 100.55 283.6 100.0 284.6 99.6 284.65 99.6 Q287.7 96.2 288.65 96.2 L288.85 96.25 289.8 96.45 289.9 98.25 290.05 98.75 290.2 98.45 290.25 98.45 293.4 91.35 Q294.8 88.6 296.5 86.75 L296.75 86.0 Q297.65 83.45 298.4 83.45 300.15 83.45 300.6 83.95 L301.15 85.0 301.05 81.45 Q301.0 80.0 301.5 79.1 L301.4 78.95 301.6 78.05 Q301.85 77.7 302.65 77.7 303.4 77.7 304.5 78.8 L305.8 80.2 305.9 80.2 304.6 73.7 Q303.55 67.95 303.55 65.7 L303.65 63.0 305.3 63.15 Q305.2 56.0 303.1 49.25 301.35 43.6 298.55 39.5 M235.9 32.55 L236.0 32.3 235.75 32.45 235.9 32.55 M308.8 55.55 L310.5 57.0 Q309.45 56.35 308.5 55.3 L308.8 55.55 M296.85 59.1 L296.8 59.2 296.9 59.3 296.85 59.1 M292.9 79.6 L292.9 79.45 292.85 79.5 292.9 79.6 M305.2 66.8 L305.3 64.5 Q305.15 64.85 305.15 65.25 L305.2 66.8 M283.6 100.85 L283.5 100.5 283.35 100.6 Q282.35 100.5 281.6 101.7 280.9 102.8 280.9 103.8 L281.1 104.3 Q281.4 104.7 282.0 104.7 282.6 104.7 282.15 104.55 L283.6 100.85 M233.1 111.95 L233.05 111.5 233.0 111.95 233.1 111.95 M243.25 113.0 L243.3 112.7 243.0 113.0 243.25 113.0 M239.15 138.95 L239.2 139.0 Q240.65 140.4 241.35 143.7 242.6 149.45 242.6 153.1 L242.15 157.65 241.85 159.85 Q241.85 161.0 243.65 162.4 L244.4 162.95 246.15 164.2 251.0 168.95 Q253.45 171.9 257.65 178.45 261.1 183.9 262.85 188.05 264.2 191.25 264.75 194.25 L264.95 195.5 265.15 195.5 Q265.65 196.7 265.65 199.45 L265.6 203.85 265.6 203.9 265.85 203.85 281.65 202.5 Q283.05 202.45 284.05 201.8 285.05 201.1 285.05 200.05 285.05 198.5 283.2 195.3 281.1 192.05 280.65 191.0 L280.65 189.65 Q278.45 185.1 276.8 182.7 272.9 177.0 270.3 174.0 266.2 169.3 261.25 166.0 L255.9 162.15 Q253.55 160.55 249.8 159.5 246.35 158.5 245.7 155.9 L245.5 151.5 Q245.2 146.85 242.6 142.65 L242.6 142.6 242.5 142.5 239.6 138.75 238.5 137.55 239.15 138.95 M222.3 98.25 L222.3 98.45 222.5 98.25 222.3 98.25 M215.5 96.0 L215.3 96.2 215.55 96.2 215.5 96.0 M190.6 112.3 L190.55 112.3 190.05 112.85 188.25 114.6 188.05 114.8 187.65 115.25 187.5 115.4 187.7 115.3 Q192.1 113.75 196.65 110.8 200.6 108.2 201.75 107.7 L203.8 105.7 204.05 105.45 203.95 105.4 Q202.7 105.1 201.0 104.1 L197.55 101.6 Q197.05 103.4 195.75 105.65 194.0 108.6 191.05 111.75 L190.6 112.3 M152.9 121.6 L153.6 121.3 152.95 121.3 147.0 121.45 145.15 121.95 140.55 123.2 Q138.5 123.65 135.9 125.4 L132.25 127.7 Q127.5 129.75 122.05 137.75 118.25 143.3 109.4 147.2 L106.2 148.45 Q109.5 150.05 114.9 154.2 L115.55 154.7 117.15 156.1 Q119.6 154.6 120.65 153.35 L125.8 147.1 Q128.5 143.7 130.35 140.6 132.5 137.0 135.0 134.2 135.85 133.15 138.25 131.15 L142.1 127.85 Q143.6 126.45 146.4 124.9 148.8 123.55 151.1 122.6 L152.9 121.6 M69.25 100.7 Q71.9 98.5 75.35 97.4 77.95 96.55 79.4 97.05 L81.25 93.5 81.25 93.45 Q75.35 92.2 70.15 98.8 L68.95 100.5 68.05 101.85 69.25 100.7 M113.6 155.9 Q111.1 153.35 108.5 152.2 L104.75 150.95 Q103.9 150.55 103.35 149.55 95.75 152.55 90.5 155.0 86.6 156.75 83.75 160.05 L79.05 165.95 Q77.2 168.3 74.75 170.45 72.0 172.9 69.55 173.95 L70.75 174.45 74.55 175.6 Q76.45 176.15 77.0 176.45 78.8 177.55 80.75 179.4 L81.05 179.7 81.4 180.05 83.3 182.3 83.6 182.75 83.55 182.1 83.55 182.05 83.6 181.95 85.35 179.4 85.85 178.85 85.85 178.8 87.95 176.4 92.75 171.25 Q95.05 168.05 98.7 165.15 100.9 163.4 102.8 162.55 L103.2 162.35 105.05 161.8 105.35 161.75 112.5 158.45 114.75 157.35 114.9 157.3 114.55 156.95 113.65 155.95 113.6 155.9 M35.05 138.45 Q35.1 137.85 36.2 137.7 L37.0 137.2 37.3 137.25 37.4 137.6 37.7 137.6 47.1 136.95 Q39.4 135.9 36.25 134.8 L35.75 134.6 35.45 134.9 34.5 134.4 32.6 132.95 Q31.85 132.0 31.25 129.6 L29.25 122.85 26.85 116.05 Q25.6 113.05 24.05 110.75 L23.8 110.4 23.9 110.85 22.2 109.65 22.15 109.7 21.85 109.4 17.1 106.2 12.35 103.15 Q9.15 101.6 2.3 100.45 L2.0 101.25 Q9.25 102.8 14.2 105.45 17.1 107.0 22.55 111.25 L22.75 111.7 Q23.2 111.75 22.6 111.75 23.75 113.6 24.25 116.25 L25.7 120.6 Q26.55 123.6 27.25 125.25 30.75 133.9 30.75 142.85 L30.25 150.35 30.2 151.2 30.0 153.45 30.0 157.3 Q30.0 163.9 28.15 173.0 26.3 182.05 26.3 190.7 L26.3 191.35 Q26.7 193.3 27.5 194.5 28.85 196.6 34.15 199.05 40.5 201.95 46.5 201.95 L48.65 201.95 47.3 198.9 46.05 195.95 Q44.35 191.85 44.3 188.75 L44.75 188.75 44.7 188.65 41.75 181.15 Q39.0 174.3 38.6 170.1 38.0 164.35 36.5 159.05 33.85 150.5 33.85 148.25 33.85 141.85 35.2 139.1 L35.15 139.1 Q35.0 139.05 35.0 138.6 L35.05 138.45 M26.75 102.55 L26.75 102.75 27.15 102.75 26.75 102.55 M49.5 201.75 L49.4 201.9 49.5 201.9 49.5 201.75" fill="#000000" fill-rule="evenodd" stroke="none"/>
    <path d="M25.35 74.1 Q23.65 74.1 22.35 74.95 21.15 75.8 21.15 76.7 21.15 78.4 22.0 79.8 23.35 81.95 23.9 83.45 L25.85 90.35 27.4 97.1 27.75 100.6 27.85 101.3 27.75 101.25 26.8 100.85 26.8 100.05 26.45 96.8 25.55 92.75 25.4 92.8 25.05 91.15 24.3 86.45 22.3 81.9 Q20.25 77.3 20.25 76.45 20.25 75.95 21.3 74.55 22.65 72.75 24.05 72.75 24.7 72.75 25.6 73.8 L25.35 74.1 M53.4 68.5 L53.25 68.0 55.05 67.75 56.15 69.15 Q55.75 69.1 55.45 69.5 54.85 70.2 54.85 71.2 54.85 73.45 55.6 77.95 55.8 80.2 55.6 84.65 L55.5 92.1 54.25 91.9 54.5 86.8 53.3 69.2 Q53.3 68.4 53.4 68.5 M40.75 64.0 Q40.8 64.85 41.55 66.25 39.5 66.4 38.9 66.9 38.6 67.15 38.6 68.25 38.6 70.4 39.6 73.5 40.85 77.5 41.35 80.6 L42.85 86.8 44.25 93.2 41.0 93.05 Q40.0 88.7 40.0 83.55 40.0 77.95 38.05 72.45 36.05 66.95 36.05 65.8 36.05 65.1 37.1 64.85 38.25 64.55 38.5 64.0 L40.75 64.0 M231.2 23.6 L231.5 23.2 Q243.65 18.15 251.5 15.2 L248.15 15.75 248.1 15.4 248.25 15.2 248.25 14.7 Q248.15 12.5 249.0 9.05 L250.25 3.75 250.3 3.75 Q251.55 6.95 255.15 10.7 259.25 15.0 264.0 17.2 L264.15 16.9 264.3 16.75 264.55 11.05 Q264.8 7.75 266.0 5.95 268.05 9.65 271.7 13.7 L271.85 13.5 273.25 15.1 274.95 16.95 Q272.8 16.5 269.25 17.0 263.1 17.9 263.1 19.65 L263.2 20.1 261.25 19.85 Q254.55 19.4 249.5 20.65 246.95 21.25 245.85 21.95 L245.55 21.95 Q243.25 22.1 243.25 22.65 L245.05 24.0 246.7 25.3 243.5 26.2 240.7 27.05 238.0 27.95 Q236.35 28.55 234.1 30.15 L233.7 30.5 Q231.25 31.5 231.25 32.3 L231.65 33.05 231.75 33.55 Q232.1 34.2 233.0 34.2 L233.25 34.15 234.4 34.65 Q232.5 35.65 230.25 37.2 L223.55 41.6 Q222.2 42.6 221.35 43.55 L221.3 43.65 Q218.75 45.5 218.25 46.7 L219.1 47.15 219.0 47.2 212.6 51.3 Q211.95 51.7 210.5 53.6 L210.05 54.2 212.65 49.05 214.55 45.55 216.85 45.75 217.8 45.5 217.8 44.7 217.5 43.5 215.3 43.25 215.2 43.25 215.1 43.2 214.75 43.0 214.6 42.75 Q216.1 42.05 221.35 38.35 226.8 34.55 226.8 34.05 L226.7 33.3 226.55 33.25 222.05 33.2 223.3 32.5 233.15 27.35 234.0 27.5 234.85 27.25 234.8 26.95 234.7 26.45 236.85 25.2 248.75 18.25 Q246.45 18.8 240.4 21.85 L233.7 25.2 233.6 25.15 231.2 23.6 M247.65 15.85 L245.1 16.5 244.55 14.45 246.0 15.15 247.5 15.45 247.65 15.85 M198.7 99.35 L197.55 98.35 196.75 97.5 196.7 97.55 196.35 97.25 Q190.25 91.5 190.25 88.05 190.25 86.2 195.65 79.35 201.5 71.95 202.25 69.7 203.4 66.25 205.85 60.95 L206.85 60.95 206.75 61.2 205.25 65.65 203.75 69.95 Q203.15 71.2 199.65 75.7 L198.4 77.25 197.25 78.7 Q192.5 84.55 192.5 87.6 192.5 88.15 193.25 91.7 193.45 92.55 194.45 93.9 L196.15 96.05 198.7 99.35 M201.0 104.1 L200.75 104.2 198.45 106.05 196.0 108.2 191.15 111.95 190.6 112.3 191.05 111.75 Q194.0 108.6 195.75 105.65 197.05 103.4 197.55 101.6 L201.0 104.1 M114.9 154.2 Q109.5 150.05 106.2 148.45 L109.4 147.2 Q118.25 143.3 122.05 137.75 127.5 129.75 132.25 127.7 L135.9 125.4 Q138.5 123.65 140.55 123.2 L145.15 121.95 144.55 122.15 142.25 123.6 139.6 126.05 134.25 130.9 Q130.95 133.95 129.65 135.8 L123.1 145.35 121.1 147.95 119.15 150.2 Q118.05 151.55 115.95 153.0 115.2 153.55 114.9 154.2 M68.95 100.5 L70.15 98.8 Q75.35 92.2 81.25 93.45 L81.25 93.5 79.4 97.05 Q77.95 96.55 75.35 97.4 71.9 98.5 69.25 100.7 L68.95 100.5 M81.05 179.7 L80.75 179.4 Q78.8 177.55 77.0 176.45 76.45 176.15 74.55 175.6 L70.75 174.45 69.55 173.95 Q72.0 172.9 74.75 170.45 77.2 168.3 79.05 165.95 L83.75 160.05 Q86.6 156.75 90.5 155.0 95.75 152.55 103.35 149.55 103.9 150.55 104.75 150.95 L108.5 152.2 Q111.1 153.35 113.6 155.9 L109.7 156.4 Q106.65 157.05 100.0 159.3 96.1 160.65 93.05 163.15 91.5 164.4 89.0 167.2 87.4 168.95 84.2 174.55 L82.5 177.75 81.05 179.7 M24.05 110.75 Q25.6 113.05 26.85 116.05 L29.25 122.85 31.25 129.6 Q31.85 132.0 32.6 132.95 L34.5 134.4 35.45 134.9 35.75 134.6 36.25 134.8 Q39.4 135.9 47.1 136.95 L37.7 137.6 37.4 137.6 37.3 137.25 37.0 137.2 36.2 137.7 Q35.1 137.85 35.05 138.45 L34.85 138.55 Q33.8 139.25 33.25 140.6 32.8 141.65 32.75 142.7 32.25 148.2 32.25 151.0 32.25 155.45 35.0 175.1 L36.15 181.3 37.4 187.3 38.2 190.4 38.65 193.3 38.65 194.85 Q38.75 195.8 39.1 196.3 39.6 197.05 42.45 198.0 45.15 198.95 46.25 198.95 L47.3 198.9 48.65 201.95 46.5 201.95 Q40.5 201.95 34.15 199.05 28.85 196.6 27.5 194.5 26.7 193.3 26.3 191.35 L26.3 190.7 Q26.3 182.05 28.15 173.0 30.0 163.9 30.0 157.3 L30.0 153.45 30.2 151.2 30.25 150.35 30.75 142.85 Q30.75 133.9 27.25 125.25 26.55 123.6 25.7 120.6 L24.25 116.25 Q23.75 113.6 22.6 111.75 23.2 111.75 22.75 111.7 L22.55 111.25 Q17.1 107.0 14.2 105.45 9.25 102.8 2.0 101.25 L2.3 100.45 Q9.15 101.6 12.35 103.15 L17.1 106.2 21.85 109.4 22.15 109.7 22.2 109.65 23.9 110.85 24.05 110.75" fill="#f77b00" fill-rule="evenodd" stroke="none"/>
    <path d="M274.95 16.95 L278.5 20.65 273.75 19.65 Q264.85 18.05 264.85 19.75 L264.9 20.0 265.05 20.7 265.0 20.7 265.15 21.0 265.65 21.9 265.8 22.05 267.35 24.2 260.1 22.95 257.15 22.55 253.1 22.3 252.95 22.3 252.75 22.3 252.55 22.3 252.35 22.3 Q246.35 22.3 246.35 23.75 L246.4 24.2 Q246.55 24.75 247.15 25.1 L247.7 25.45 249.0 26.45 249.15 26.6 249.25 26.7 249.15 26.75 Q244.55 27.4 238.85 29.65 L238.05 30.0 234.6 31.65 234.25 31.85 233.35 32.65 233.15 33.15 233.15 33.2 234.45 33.5 236.0 33.85 237.1 34.1 237.25 34.1 240.1 34.9 240.0 35.1 238.9 35.45 233.9 37.1 Q231.25 38.2 229.0 39.7 L225.85 41.95 225.85 42.0 225.7 42.1 224.7 42.8 Q220.9 45.6 220.9 46.0 L220.9 46.05 221.0 46.7 222.8 46.8 225.0 47.05 Q220.05 49.55 219.7 49.8 218.0 50.75 217.3 51.5 215.7 52.0 213.25 53.55 L209.3 55.95 210.05 54.2 210.5 53.6 Q211.95 51.7 212.6 51.3 L219.0 47.2 219.1 47.15 218.25 46.7 Q218.75 45.5 221.3 43.65 L221.35 43.55 Q222.2 42.6 223.55 41.6 L230.25 37.2 Q232.5 35.65 234.4 34.65 L233.25 34.15 233.0 34.2 Q232.1 34.2 231.75 33.55 L231.65 33.05 231.25 32.3 Q231.25 31.5 233.7 30.5 L234.1 30.15 Q236.35 28.55 238.0 27.95 L240.7 27.05 243.5 26.2 246.7 25.3 245.05 24.0 243.25 22.65 Q243.25 22.1 245.55 21.95 L245.85 21.95 Q246.95 21.25 249.5 20.65 254.55 19.4 261.25 19.85 L263.2 20.1 263.1 19.65 Q263.1 17.9 269.25 17.0 272.8 16.5 274.95 16.95 M282.25 100.45 Q285.3 98.25 287.2 95.15 L287.7 94.3 287.8 94.15 288.55 92.75 288.6 92.7 288.9 92.1 288.95 92.0 289.0 91.85 289.5 90.85 289.55 90.75 289.7 90.5 290.0 89.8 291.0 87.75 292.6 83.75 293.7 80.8 293.5 80.85 293.25 78.8 294.25 78.7 294.25 77.95 293.6 77.85 293.55 77.85 292.5 78.2 292.1 78.35 292.0 78.4 290.75 79.1 292.55 75.8 293.0 75.05 295.25 70.7 296.55 67.9 297.05 66.5 297.4 65.25 298.15 60.95 298.15 60.7 298.25 57.85 298.2 57.25 297.75 56.85 296.45 57.85 296.3 58.0 296.05 58.3 294.85 59.6 295.15 58.4 295.55 56.7 296.25 53.75 296.5 52.65 296.5 52.6 Q297.5 48.05 297.5 45.25 297.5 42.15 296.45 38.5 L295.55 35.9 295.95 36.3 298.55 39.5 299.3 40.7 299.6 46.6 Q299.6 49.85 299.1 53.1 L299.35 53.65 300.25 53.45 300.35 55.15 Q300.35 57.4 299.65 60.4 L299.65 60.65 Q299.65 63.0 296.35 72.7 L295.9 74.1 295.75 76.3 296.5 76.2 297.15 76.3 297.25 76.95 Q297.25 78.75 294.65 83.6 293.95 86.1 292.5 89.2 L288.85 96.25 288.65 96.2 Q287.7 96.2 284.65 99.6 L284.6 99.6 283.6 100.0 282.3 100.55 282.25 100.45 M283.6 100.85 L282.15 104.55 Q282.6 104.7 282.0 104.7 281.4 104.7 281.1 104.3 L280.9 103.8 Q280.9 102.8 281.6 101.7 282.35 100.5 283.35 100.6 L283.5 100.5 283.6 100.85" fill="#3f311f" fill-rule="evenodd" stroke="none"/>
    <path d="M214.55 57.95 L215.3 57.1 216.5 56.0 217.2 55.45 Q216.75 61.3 213.9 67.25 L212.45 70.5 211.95 69.9 211.0 68.75 Q211.0 67.8 212.2 65.45 213.4 62.95 213.5 61.7 L213.55 61.15 Q213.75 59.6 214.55 57.95 M206.85 60.95 L207.0 60.95 Q207.7 60.15 212.1 57.35 L211.95 57.6 212.0 57.55 211.8 57.95 211.7 58.3 211.65 58.35 Q211.5 58.85 211.5 60.7 211.45 61.9 210.5 64.3 208.95 66.1 207.85 68.7 205.7 73.75 203.6 75.7 195.35 83.3 195.35 89.05 195.35 91.2 196.05 92.75 196.45 93.7 198.35 96.7 200.2 99.8 201.15 100.45 202.5 101.35 203.25 102.2 L203.15 102.55 200.05 100.45 198.7 99.35 196.15 96.05 194.45 93.9 Q193.45 92.55 193.25 91.7 192.5 88.15 192.5 87.6 192.5 84.55 197.25 78.7 L198.4 77.25 199.65 75.7 Q203.15 71.2 203.75 69.95 L205.25 65.65 206.75 61.2 206.85 60.95 M190.6 112.3 L191.15 111.95 196.0 108.2 198.45 106.05 200.75 104.2 201.0 104.1 Q202.7 105.1 203.95 105.4 L203.8 105.7 201.75 107.7 Q200.6 108.2 196.65 110.8 192.1 113.75 187.7 115.3 L187.65 115.25 188.05 114.8 188.25 114.6 190.05 112.85 190.55 112.3 190.6 112.3 M81.05 179.7 L82.5 177.75 84.2 174.55 Q87.4 168.95 89.0 167.2 91.5 164.4 93.05 163.15 96.1 160.65 100.0 159.3 106.65 157.05 109.7 156.4 L113.6 155.9 113.65 155.95 114.55 156.95 114.75 157.35 112.5 158.45 105.35 161.75 105.05 161.8 103.2 162.35 102.8 162.55 Q100.9 163.4 98.7 165.15 95.05 168.05 92.75 171.25 L87.95 176.4 85.85 178.8 85.85 178.85 85.35 179.4 83.6 181.95 83.55 182.05 83.55 182.1 83.3 182.3 81.4 180.05 81.05 179.7 M47.3 198.9 L46.25 198.95 Q45.15 198.95 42.45 198.0 39.6 197.05 39.1 196.3 38.75 195.8 38.65 194.85 L38.65 193.3 38.2 190.4 37.4 187.3 36.15 181.3 35.0 175.1 Q32.25 155.45 32.25 151.0 32.25 148.2 32.75 142.7 32.8 141.65 33.25 140.6 33.8 139.25 34.85 138.55 L35.05 138.45 35.0 138.6 Q35.0 139.05 35.15 139.1 L35.2 139.1 Q33.85 141.85 33.85 148.25 33.85 150.5 36.5 159.05 38.0 164.35 38.6 170.1 39.0 174.3 41.75 181.15 L44.7 188.65 44.3 188.75 Q44.35 191.85 46.05 195.95 L47.3 198.9" fill="#344b23" fill-rule="evenodd" stroke="none"/>
    <path d="M288.85 96.25 L292.5 89.2 Q293.95 86.1 294.65 83.6 297.25 78.75 297.25 76.95 L297.15 76.3 296.5 76.2 295.75 76.3 295.9 74.1 296.35 72.7 Q299.65 63.0 299.65 60.65 L299.65 60.4 Q300.35 57.4 300.35 55.15 L300.25 53.45 299.35 53.65 299.1 53.1 Q299.6 49.85 299.6 46.6 L299.3 40.7 298.55 39.5 Q301.35 43.6 303.1 49.25 305.2 56.0 305.3 63.15 L303.65 63.0 303.55 65.7 Q303.55 67.95 304.6 73.7 L305.9 80.2 305.8 80.2 304.5 78.8 Q303.4 77.7 302.65 77.7 301.85 77.7 301.6 78.05 L301.4 78.95 301.5 79.1 Q301.0 80.0 301.05 81.45 L301.15 85.0 300.6 83.95 Q300.15 83.45 298.4 83.45 297.65 83.45 296.75 86.0 L296.5 86.75 Q294.8 88.6 293.4 91.35 L290.25 98.45 289.9 98.25 289.8 96.45 288.85 96.25 M264.75 194.25 L265.0 194.6 266.45 197.1 Q267.95 199.3 269.25 199.3 270.15 199.3 270.65 198.6 L271.1 197.3 Q271.1 195.15 267.2 187.3 263.15 179.15 260.25 175.95 L256.0 170.75 Q253.2 167.35 250.75 165.2 L244.9 159.8 244.65 159.5 244.65 158.0 Q244.65 155.6 244.05 151.45 L243.1 145.3 242.6 142.65 Q245.2 146.85 245.5 151.5 L245.7 155.9 Q246.35 158.5 249.8 159.5 253.55 160.55 255.9 162.15 L261.25 166.0 Q266.2 169.3 270.3 174.0 272.9 177.0 276.8 182.7 278.45 185.1 280.65 189.65 L280.65 191.0 Q281.1 192.05 283.2 195.3 285.05 198.5 285.05 200.05 285.05 201.1 284.05 201.8 283.05 202.45 281.65 202.5 L265.85 203.85 265.6 203.85 265.65 199.45 Q265.65 196.7 265.15 195.5 L264.95 195.5 264.75 194.25" fill="#9f97c6" fill-rule="evenodd" stroke="none"/>
    <path d="M282.25 100.45 L282.3 100.55 282.25 100.6 282.25 100.45 M290.25 98.45 L290.2 98.45 289.9 98.25 290.25 98.45 M239.6 138.75 L239.2 139.0 239.15 138.95 239.6 138.75" fill="#8e59a6" fill-rule="evenodd" stroke="none"/>
    <path d="M239.2 139.0 L239.6 138.75 242.5 142.5 242.6 142.6 242.6 142.65 243.1 145.3 244.05 151.45 Q244.65 155.6 244.65 158.0 L244.65 159.5 244.9 159.8 250.75 165.2 Q253.2 167.35 256.0 170.75 L260.25 175.95 Q263.15 179.15 267.2 187.3 271.1 195.15 271.1 197.3 L270.65 198.6 Q270.15 199.3 269.25 199.3 267.95 199.3 266.45 197.1 L265.0 194.6 264.75 194.25 Q264.2 191.25 262.85 188.05 261.1 183.9 257.65 178.45 253.45 171.9 251.0 168.95 L246.15 164.2 244.4 162.95 243.65 162.4 Q241.85 161.0 241.85 159.85 L242.15 157.65 242.6 153.1 Q242.6 149.45 241.35 143.7 240.65 140.4 239.2 139.0 M152.95 121.3 L152.9 121.6 151.1 122.6 Q148.8 123.55 146.4 124.9 143.6 126.45 142.1 127.85 L138.25 131.15 Q135.85 133.15 135.0 134.2 132.5 137.0 130.35 140.6 128.5 143.7 125.8 147.1 L120.65 153.35 Q119.6 154.6 117.15 156.1 L115.55 154.7 114.9 154.2 Q115.2 153.55 115.95 153.0 118.05 151.55 119.15 150.2 L121.1 147.95 123.1 145.35 129.65 135.8 Q130.95 133.95 134.25 130.9 L139.6 126.05 142.25 123.6 144.55 122.15 145.15 121.95 147.0 121.45 152.95 121.3" fill="#333333" fill-rule="evenodd" stroke="none"/>
  </g>
</svg>
