<?xml version="1.0" encoding="UTF-8" standalone="no"?>
<svg xmlns:xlink="http://www.w3.org/1999/xlink" height="402.4px" width="655.4px" xmlns="http://www.w3.org/2000/svg">
  <g transform="matrix(1.0, 0.0, 0.0, 1.0, 0.0, 0.0)">
    <path d="M655.4 352.95 Q655.4 363.9 636.7 373.4 620.45 381.7 591.2 388.4 L574.95 392.15 Q566.45 393.75 549.05 395.55 L458.4 400.05 383.65 402.4 Q367.7 402.4 360.25 398.65 356.3 396.65 355.65 394.45 354.25 393.7 352.65 393.05 L346.0 391.05 Q344.95 390.55 339.3 388.9 L333.4 387.3 Q330.65 386.05 325.05 384.85 313.95 382.55 297.8 382.55 L276.75 383.5 253.9 384.4 Q188.7 383.7 171.55 383.15 L159.4 382.05 Q135.05 380.05 132.6 379.15 L130.3 381.8 Q129.35 383.0 128.35 385.75 126.65 388.05 120.9 388.4 L104.3 389.3 92.05 390.8 85.9 391.9 53.4 392.9 25.5 392.3 Q20.4 392.25 12.55 393.7 6.2 394.4 2.0 391.05 0.5 389.9 0.15 389.15 0.0 388.8 0.0 387.65 0.0 386.05 3.25 371.6 L7.15 354.3 Q9.2 344.15 9.0 337.4 L10.25 330.05 9.3 331.35 Q5.25 337.4 5.65 341.15 L5.15 341.15 4.95 339.95 4.75 338.35 Q4.75 334.45 8.85 328.45 L11.35 325.2 Q12.1 322.7 13.15 321.4 L13.6 321.55 13.65 322.35 13.6 322.9 14.55 322.2 14.55 321.85 16.35 318.45 Q18.4 314.85 19.05 312.65 L20.35 308.05 Q21.15 305.35 22.05 303.65 24.55 297.3 26.3 294.0 28.4 290.1 31.05 288.65 L30.95 283.85 Q30.85 279.3 31.15 276.55 L30.85 268.5 30.55 263.85 30.55 263.65 30.5 263.8 30.4 263.9 29.65 263.1 29.55 261.8 Q30.55 250.55 30.55 244.55 L30.55 244.4 31.4 244.25 Q31.9 244.25 32.1 244.6 L32.3 246.0 Q39.6 243.15 43.95 241.8 L43.9 241.4 43.8 238.0 43.8 237.55 43.55 237.55 42.05 217.0 42.05 214.45 41.8 211.75 Q41.55 210.8 38.05 206.45 37.6 205.85 36.8 201.45 36.05 197.35 36.05 196.3 36.05 188.7 42.0 181.65 49.55 172.7 62.85 172.0 64.3 169.75 74.3 163.1 L86.65 155.2 Q88.1 154.3 98.15 146.6 103.0 142.85 106.45 141.25 L107.0 140.75 Q106.2 139.1 105.5 135.65 L104.3 129.7 Q102.05 121.55 101.55 118.05 101.0 113.9 101.3 106.6 101.7 97.85 101.55 94.8 101.35 91.25 101.65 83.5 101.55 76.5 99.05 71.55 L96.15 65.85 92.55 59.95 Q91.3 58.25 90.0 53.95 89.05 51.7 87.25 50.45 L86.55 50.65 86.05 50.5 85.4 50.05 86.15 49.75 84.65 49.2 Q87.1 47.8 88.65 48.6 L98.15 42.95 Q106.45 37.7 113.55 35.3 119.05 33.5 134.9 30.15 L145.45 28.05 Q151.65 26.8 157.05 25.0 166.35 22.0 173.45 26.1 179.3 29.5 179.3 33.3 179.3 35.45 175.5 39.65 172.3 43.25 170.15 44.1 L170.2 44.25 Q178.05 42.9 185.8 40.75 191.4 39.15 197.85 39.15 L197.9 38.95 199.5 38.95 199.35 39.25 Q200.8 39.45 201.8 40.15 L203.9 41.55 203.55 42.05 202.4 42.3 Q201.8 42.3 201.05 41.7 200.3 41.05 199.65 41.05 L199.2 41.05 199.3 41.25 199.35 41.3 Q200.05 42.3 202.15 43.8 204.95 45.95 206.35 45.4 L210.5 45.55 212.15 46.35 212.15 45.95 212.5 45.95 212.7 46.6 212.9 46.7 213.05 46.85 213.15 47.1 Q216.15 45.75 219.9 44.65 229.6 41.8 236.55 42.85 L236.85 41.65 237.15 40.45 238.55 43.2 238.9 43.3 239.0 43.7 238.85 43.8 Q239.3 44.45 239.5 44.35 241.7 43.15 247.4 43.7 L252.2 43.8 257.9 44.2 261.9 44.2 267.55 44.0 Q267.8 44.15 267.15 44.45 L276.85 44.15 276.65 41.95 Q277.75 42.65 278.4 43.95 283.85 42.85 289.35 43.05 L302.75 43.45 318.9 43.2 321.05 43.4 322.9 42.3 324.1 41.2 324.05 39.0 324.15 35.75 Q324.4 33.7 325.15 33.45 L325.7 39.65 326.55 38.75 Q328.65 37.0 331.5 36.95 334.1 38.2 340.75 40.25 346.95 42.15 348.8 43.2 L351.55 45.3 353.5 46.65 358.7 45.6 358.65 44.8 Q358.65 44.05 358.8 43.45 L359.65 43.45 360.1 45.35 370.55 43.45 383.0 42.2 Q380.9 33.35 380.9 31.95 380.9 30.75 378.65 23.4 L379.05 23.4 384.8 42.05 391.8 41.55 416.3 40.45 416.3 40.05 427.55 40.7 435.45 40.4 443.9 39.95 458.05 39.5 472.4 39.2 Q524.35 38.45 541.95 37.8 L581.15 39.5 Q592.25 40.65 595.2 42.3 L606.3 51.3 Q613.6 57.6 620.45 69.7 626.0 79.45 628.1 88.2 629.9 95.75 629.9 106.25 629.9 114.55 627.4 134.9 624.9 155.25 624.9 174.7 624.9 193.75 627.65 208.45 629.45 218.1 633.65 230.7 638.3 244.55 639.65 250.75 642.4 262.95 642.4 277.8 642.4 281.85 641.65 290.7 640.9 299.6 640.9 307.2 640.9 314.85 641.4 318.75 642.25 325.35 644.9 330.3 648.35 336.7 652.7 342.85 655.4 347.2 655.4 352.95 M344.45 280.65 Q346.1 285.15 348.4 288.8 355.6 300.4 366.7 300.4 376.5 300.4 384.2 294.5 389.05 290.8 390.55 287.65 391.9 285.05 393.95 279.05 395.95 273.45 397.05 271.45 399.25 260.85 400.35 248.7 401.55 235.3 401.55 217.55 401.55 201.2 396.05 124.55 395.2 116.9 392.55 101.25 389.9 85.4 389.05 78.05 L387.8 66.65 386.05 54.8 383.35 43.6 383.3 43.35 370.8 44.2 Q367.85 44.4 362.35 45.55 L360.25 46.0 362.9 55.4 Q365.2 63.25 365.8 67.45 368.05 83.3 369.65 91.05 370.55 95.45 372.6 102.8 L375.8 114.7 Q376.9 119.15 376.9 126.5 376.9 135.15 377.3 138.3 L381.0 161.95 Q383.4 176.6 384.3 185.55 386.35 204.5 387.05 209.2 388.1 215.6 388.45 221.25 388.8 226.1 388.8 232.65 L388.85 245.35 Q388.6 251.25 386.8 260.15 385.6 266.3 382.3 273.65 L380.95 277.15 379.3 280.4 378.85 281.8 379.15 281.55 379.55 281.9 Q379.15 283.0 377.65 284.7 L377.5 284.9 Q376.7 286.3 375.5 286.8 L374.5 287.7 Q369.1 292.4 364.8 292.4 357.2 292.4 350.25 286.7 346.85 283.9 344.55 280.6 L344.35 280.35 344.45 280.65 M355.05 47.45 Q357.25 48.25 358.15 48.8 L359.45 50.0 Q358.95 47.7 358.8 46.3 L354.5 47.2 355.05 47.45 M324.6 89.15 Q323.8 91.4 323.8 92.3 L324.95 97.0 326.3 102.8 327.3 107.9 328.4 112.95 Q329.1 116.8 330.55 123.25 L332.8 133.55 334.75 143.85 Q336.0 150.85 336.8 154.2 338.0 162.3 339.0 166.3 340.75 173.5 344.9 173.95 341.85 157.35 335.5 130.05 327.75 96.45 325.65 86.55 L324.6 89.15 M325.35 112.25 L325.3 112.2 325.3 112.25 325.35 112.25 M375.8 351.3 L375.25 351.0 375.6 351.7 375.8 351.3 M267.15 46.45 L260.1 46.2 Q261.7 48.05 263.15 50.8 L265.9 56.45 267.8 61.65 269.9 67.3 Q271.75 71.4 273.75 78.2 L277.0 89.45 Q278.45 94.15 283.1 111.4 286.8 125.0 289.65 132.7 284.7 111.85 281.35 87.1 278.95 69.15 276.95 45.75 L276.0 45.85 267.15 46.45 M313.15 224.9 Q311.3 220.25 307.15 207.5 303.6 196.55 300.65 190.05 299.25 186.95 297.85 181.5 L295.65 172.45 290.75 155.2 Q288.2 145.9 279.15 120.45 273.75 105.35 270.7 94.4 270.35 94.1 269.9 93.95 L269.3 94.5 269.15 94.6 270.1 98.2 271.25 102.7 272.85 111.35 Q273.85 116.85 274.9 120.3 L285.4 155.2 Q287.25 161.45 291.3 172.55 L297.5 190.05 300.25 198.8 Q302.0 204.05 304.0 207.7 309.5 217.8 312.9 224.95 L313.15 224.95 313.15 224.9 M309.6 73.05 Q313.25 81.05 317.65 81.05 318.9 81.05 320.05 80.45 319.3 74.7 315.9 65.0 L310.65 49.7 Q308.7 51.1 307.45 54.25 306.3 57.15 306.3 59.95 306.3 65.95 309.6 73.05 M299.4 68.7 Q302.9 68.25 303.45 67.5 303.75 67.1 303.55 66.2 L300.35 67.4 Q296.9 68.7 292.15 69.2 L292.3 70.3 292.3 70.55 295.85 69.55 299.4 68.7 M312.4 91.3 Q309.15 96.5 306.45 103.25 303.3 111.2 303.3 115.9 L303.55 118.4 303.9 121.3 304.4 121.3 308.4 106.55 Q310.9 97.45 313.05 91.3 L312.4 91.3 M213.35 49.0 L213.5 50.45 212.85 56.3 Q212.15 61.6 212.15 64.3 212.15 78.6 215.9 109.35 219.25 137.0 221.75 148.7 227.15 173.35 233.15 190.75 L235.1 196.15 234.65 193.8 Q234.3 191.8 233.0 188.2 L231.15 182.55 Q227.2 166.75 226.4 159.7 L223.2 133.65 Q222.5 126.85 222.5 114.5 222.5 98.3 224.5 78.3 L225.5 69.3 226.5 60.3 Q227.1 57.55 227.75 51.0 228.35 46.85 229.75 44.4 224.2 44.9 218.5 46.85 L213.35 49.0 M171.8 49.05 L175.65 58.45 181.0 68.5 184.4 75.0 186.55 68.65 Q188.75 61.9 189.9 59.05 191.2 55.9 193.05 49.35 194.95 43.95 197.95 41.25 L197.9 41.1 Q190.7 41.35 181.3 43.75 L170.7 46.2 Q171.25 48.2 171.8 49.05 M164.05 164.05 L158.2 173.8 Q154.3 179.6 149.9 183.95 L140.0 193.65 Q133.8 199.85 131.3 203.45 121.65 216.95 117.8 222.95 L110.6 234.45 107.55 238.8 106.35 240.75 106.65 241.95 106.55 242.7 106.15 243.05 105.5 242.15 105.4 242.3 106.65 247.75 106.85 247.5 Q109.8 244.3 111.8 244.05 L117.7 236.85 Q122.7 230.75 125.65 226.2 127.45 223.45 130.75 215.95 133.6 209.35 136.65 205.55 L145.7 195.5 Q151.45 189.15 154.15 184.95 157.25 180.25 159.9 174.8 162.8 168.85 164.05 164.3 L164.05 164.05 M290.65 135.7 L289.65 133.55 289.65 133.7 290.05 134.95 290.65 135.7 M37.8 196.3 Q37.8 198.05 39.25 202.75 40.25 206.2 40.8 207.55 L41.05 207.55 Q40.75 198.1 44.4 190.3 45.1 188.9 47.6 186.2 50.15 183.5 51.9 182.3 52.8 181.75 58.55 179.2 63.05 177.25 63.05 176.45 63.05 174.3 60.9 174.4 59.2 174.5 52.9 176.45 50.0 177.75 47.15 179.5 43.9 181.45 42.9 182.8 41.8 184.3 39.85 189.15 37.8 194.35 37.8 196.3 M64.95 172.75 L67.4 172.7 Q76.0 172.7 82.8 176.5 L90.05 181.7 Q89.55 178.35 86.4 174.2 83.1 169.85 78.55 166.95 78.4 166.15 78.55 165.95 L81.4 165.7 Q84.85 165.7 87.35 166.5 90.2 167.4 92.55 167.55 92.0 166.1 89.95 163.65 L88.05 161.15 88.15 160.35 88.4 160.3 90.65 160.2 98.05 161.45 96.05 157.7 Q94.55 155.25 94.55 154.8 L94.65 153.8 104.05 154.3 101.8 150.55 100.2 147.4 98.9 148.3 93.9 152.2 87.9 156.7 Q83.6 159.75 74.15 165.65 67.8 169.8 64.95 172.75 M62.55 180.05 L62.5 180.1 62.55 180.3 62.55 180.05 M123.0 128.25 Q110.45 133.7 109.8 133.7 L107.25 133.6 Q107.65 135.7 107.65 137.05 L107.55 140.3 Q109.15 139.05 111.7 137.85 L122.3 133.3 Q128.05 130.8 133.2 127.2 L141.55 121.3 Q136.3 122.4 123.0 128.25 M132.95 180.25 Q130.9 179.95 128.4 181.45 L124.4 183.95 115.3 190.8 Q105.2 197.8 95.4 203.8 91.7 206.1 91.65 210.15 L92.3 217.05 92.4 224.05 Q92.4 228.4 91.8 230.95 L91.8 233.05 Q97.5 233.3 102.35 236.7 L105.4 239.25 111.5 228.5 Q119.55 214.45 121.65 209.8 L128.55 193.7 132.15 185.55 Q133.85 181.9 135.1 180.0 L132.95 180.25 M43.45 209.75 L43.3 209.55 43.4 209.75 43.45 209.75 M109.05 247.15 L109.15 247.25 110.25 245.95 109.05 247.15 M119.4 218.75 L119.2 218.6 119.2 218.65 117.85 221.15 119.4 218.75 M45.5 242.75 L45.4 244.5 45.3 244.75 Q44.6 244.25 44.25 243.05 39.25 244.35 33.9 247.3 32.05 248.35 31.85 250.1 31.7 251.15 31.8 253.55 31.7 254.65 31.75 256.6 L31.8 259.9 31.65 260.15 Q36.05 256.0 50.2 248.9 L71.65 238.05 61.15 239.95 50.9 242.0 45.5 242.75 M31.65 291.15 L31.1 291.15 30.55 291.65 31.7 291.65 31.65 291.15 M30.55 293.4 Q29.3 293.65 28.15 295.65 L25.8 299.95 Q24.3 302.6 23.9 303.9 L21.0 312.3 Q19.2 317.1 17.05 320.8 L16.9 321.15 Q28.6 324.15 37.8 327.4 47.65 330.8 59.9 336.3 L43.55 324.4 Q44.2 323.0 47.45 322.45 L53.4 321.65 61.5 319.85 64.8 319.05 65.05 318.65 Q59.75 316.3 49.25 314.3 42.15 312.95 41.05 310.15 41.4 309.8 46.45 308.15 50.1 306.9 52.15 306.3 L56.4 304.6 Q60.1 303.3 62.55 303.4 63.65 303.05 64.15 302.65 L53.25 301.85 Q48.4 301.25 47.05 299.9 48.5 297.75 53.3 296.3 L59.8 294.65 61.4 294.05 Q60.45 293.9 51.15 294.05 41.5 294.2 36.05 293.65 L30.55 293.4 M137.3 378.65 L135.1 376.15 133.55 378.0 132.7 379.0 137.3 378.9 137.3 378.65 M238.65 205.25 L238.75 205.2 238.5 204.95 238.65 205.25" fill="#000000" fill-rule="evenodd" stroke="none"/>
    <path d="M344.55 280.6 Q346.85 283.9 350.25 286.7 357.2 292.4 364.8 292.4 369.1 292.4 374.5 287.7 L375.5 286.8 Q376.7 286.3 377.5 284.9 L377.65 284.7 Q379.15 283.0 379.55 281.9 L379.15 281.55 378.85 281.8 379.3 280.4 380.95 277.15 382.3 273.65 Q385.6 266.3 386.8 260.15 388.6 251.25 388.85 245.35 L388.8 232.65 Q388.8 226.1 388.45 221.25 388.1 215.6 387.05 209.2 386.35 204.5 384.3 185.55 383.4 176.6 381.0 161.95 L377.3 138.3 Q376.9 135.15 376.9 126.5 376.9 119.15 375.8 114.7 L372.6 102.8 Q370.55 95.45 369.65 91.05 368.05 83.3 365.8 67.45 365.2 63.25 362.9 55.4 L360.25 46.0 362.35 45.55 Q367.85 44.4 370.8 44.2 L383.3 43.35 383.35 43.6 386.05 54.8 387.8 66.65 389.05 78.05 Q389.9 85.4 392.55 101.25 395.2 116.9 396.05 124.55 401.55 201.2 401.55 217.55 401.55 235.3 400.35 248.7 399.25 260.85 397.05 271.45 395.95 273.45 393.95 279.05 391.9 285.05 390.55 287.65 389.05 290.8 384.2 294.5 376.5 300.4 366.7 300.4 355.6 300.4 348.4 288.8 346.1 285.15 344.45 280.65 L344.55 280.6 M312.9 224.95 Q309.5 217.8 304.0 207.7 302.0 204.05 300.25 198.8 L297.5 190.05 291.3 172.55 Q287.25 161.45 285.4 155.2 L274.9 120.3 Q273.85 116.85 272.85 111.35 L271.25 102.7 270.1 98.2 269.15 94.6 269.3 94.5 269.9 93.95 Q270.35 94.1 270.7 94.4 273.75 105.35 279.15 120.45 288.2 145.9 290.75 155.2 L295.65 172.45 297.85 181.5 Q299.25 186.95 300.65 190.05 303.6 196.55 307.15 207.5 311.3 220.25 313.15 224.9 L312.9 224.95 M267.15 46.45 L276.0 45.85 276.95 45.75 Q278.95 69.15 281.35 87.1 284.7 111.85 289.65 132.7 286.8 125.0 283.1 111.4 278.45 94.15 277.0 89.45 L273.75 78.2 Q271.75 71.4 269.9 67.3 L267.8 61.65 265.9 56.45 263.15 50.8 Q261.7 48.05 260.1 46.2 L267.15 46.45" fill="#5e5e5e" fill-rule="evenodd" stroke="none"/>
    <path d="M324.6 89.15 L325.65 86.55 Q327.75 96.45 335.5 130.05 341.85 157.35 344.9 173.95 340.75 173.5 339.0 166.3 338.0 162.3 336.8 154.2 336.0 150.85 334.75 143.85 L332.8 133.55 330.55 123.25 Q329.1 116.8 328.4 112.95 L327.3 107.9 326.3 102.8 324.95 97.0 323.8 92.3 Q323.8 91.4 324.6 89.15 M304.1 0.35 L304.15 0.0 304.3 0.0 304.75 6.05 Q305.4 13.0 306.05 17.05 L307.45 28.9 307.5 29.35 307.1 29.45 307.1 29.4 304.8 18.45 303.4 12.85 302.05 7.55 Q301.75 6.05 301.9 1.95 L301.65 0.5 304.1 0.35 M312.4 91.3 L313.05 91.3 Q310.9 97.45 308.4 106.55 L304.4 121.3 303.9 121.3 303.55 118.4 303.3 115.9 Q303.3 111.2 306.45 103.25 309.15 96.5 312.4 91.3 M299.4 68.7 L295.85 69.55 292.3 70.55 292.3 70.3 292.15 69.2 Q296.9 68.7 300.35 67.4 L303.55 66.2 Q303.75 67.1 303.45 67.5 302.9 68.25 299.4 68.7 M309.6 73.05 Q306.3 65.95 306.3 59.95 306.3 57.15 307.45 54.25 308.7 51.1 310.65 49.7 L315.9 65.0 Q319.3 74.7 320.05 80.45 318.9 81.05 317.65 81.05 313.25 81.05 309.6 73.05" fill="#bbbbbb" fill-rule="evenodd" stroke="none"/>
    <path d="M213.35 49.0 L218.5 46.85 Q224.2 44.9 229.75 44.4 228.35 46.85 227.75 51.0 227.1 57.55 226.5 60.3 L225.5 69.3 224.5 78.3 Q222.5 98.3 222.5 114.5 222.5 126.85 223.2 133.65 L226.4 159.7 Q227.2 166.75 231.15 182.55 L233.0 188.2 Q234.3 191.8 234.65 193.8 L235.1 196.15 233.15 190.75 Q227.15 173.35 221.75 148.7 219.25 137.0 215.9 109.35 212.15 78.6 212.15 64.3 212.15 61.6 212.85 56.3 L213.5 50.45 213.35 49.0 M164.05 164.05 L164.05 164.3 Q162.8 168.85 159.9 174.8 157.25 180.25 154.15 184.95 151.45 189.15 145.7 195.5 L136.65 205.55 Q133.6 209.35 130.75 215.95 127.45 223.45 125.65 226.2 122.7 230.75 117.7 236.85 L111.8 244.05 Q109.8 244.3 106.85 247.5 L106.65 247.75 105.4 242.3 105.5 242.15 106.15 243.05 106.55 242.7 106.65 241.95 106.35 240.75 107.55 238.8 110.6 234.45 117.8 222.95 Q121.65 216.95 131.3 203.45 133.8 199.85 140.0 193.65 L149.9 183.95 Q154.3 179.6 158.2 173.8 L164.05 164.05" fill="#d0d0d0" fill-rule="evenodd" stroke="none"/>
    <path d="M64.95 172.75 Q67.8 169.8 74.15 165.65 83.6 159.75 87.9 156.7 L93.9 152.2 98.9 148.3 100.2 147.4 101.8 150.55 104.05 154.3 94.65 153.8 94.55 154.8 Q94.55 155.25 96.05 157.7 L98.05 161.45 90.65 160.2 88.4 160.3 88.15 160.35 88.05 161.15 89.95 163.65 Q92.0 166.1 92.55 167.55 90.2 167.4 87.35 166.5 84.85 165.7 81.4 165.7 L78.55 165.95 Q78.4 166.15 78.55 166.95 83.1 169.85 86.4 174.2 89.55 178.35 90.05 181.7 L82.8 176.5 Q76.0 172.7 67.4 172.7 L64.95 172.75 M37.8 196.3 Q37.8 194.35 39.85 189.15 41.8 184.3 42.9 182.8 43.9 181.45 47.15 179.5 50.0 177.75 52.9 176.45 59.2 174.5 60.9 174.4 63.05 174.3 63.05 176.45 63.05 177.25 58.55 179.2 52.8 181.75 51.9 182.3 50.15 183.5 47.6 186.2 45.1 188.9 44.4 190.3 40.75 198.1 41.05 207.55 L40.8 207.55 Q40.25 206.2 39.25 202.75 37.8 198.05 37.8 196.3 M123.0 128.25 Q136.3 122.4 141.55 121.3 L133.2 127.2 Q128.05 130.8 122.3 133.3 L111.7 137.85 Q109.15 139.05 107.55 140.3 L107.65 137.05 Q107.65 135.7 107.25 133.6 L109.8 133.7 Q110.45 133.7 123.0 128.25" fill="#4f507d" fill-rule="evenodd" stroke="none"/>
    <path d="M45.5 242.75 L50.9 242.0 61.15 239.95 71.65 238.05 50.2 248.9 Q36.05 256.0 31.65 260.15 L31.8 259.9 31.75 256.6 Q31.7 254.65 31.8 253.55 31.7 251.15 31.85 250.1 32.05 248.35 33.9 247.3 39.25 244.35 44.25 243.05 44.6 244.25 45.3 244.75 L45.4 244.5 45.5 242.75 M30.55 293.4 L36.05 293.65 Q41.5 294.2 51.15 294.05 60.45 293.9 61.4 294.05 L59.8 294.65 53.3 296.3 Q48.5 297.75 47.05 299.9 48.4 301.25 53.25 301.85 L64.15 302.65 Q63.65 303.05 62.55 303.4 60.1 303.3 56.4 304.6 L52.15 306.3 Q50.1 306.9 46.45 308.15 41.4 309.8 41.05 310.15 42.15 312.95 49.25 314.3 59.75 316.3 65.05 318.65 L64.8 319.05 61.5 319.85 53.4 321.65 47.45 322.45 Q44.2 323.0 43.55 324.4 L59.9 336.3 Q47.65 330.8 37.8 327.4 28.6 324.15 16.9 321.15 L17.05 320.8 Q19.2 317.1 21.0 312.3 L23.9 303.9 Q24.3 302.6 25.8 299.95 L28.15 295.65 Q29.3 293.65 30.55 293.4" fill="#463d28" fill-rule="evenodd" stroke="none"/>
  </g>
</svg>
