<?xml version="1.0" encoding="UTF-8" standalone="no"?>
<svg xmlns:xlink="http://www.w3.org/1999/xlink" height="303.7px" width="159.55px" xmlns="http://www.w3.org/2000/svg">
  <g transform="matrix(1.0, 0.0, 0.0, 1.0, -157.75, 175.7)">
    <path d="M286.95 -171.0 Q289.75 -165.85 295.3 -165.25 L296.35 -165.4 Q296.7 -156.75 295.8 -148.0 294.6 -136.35 296.0 -125.0 296.2 -123.5 296.8 -122.05 300.35 -113.15 304.65 -104.55 306.75 -100.4 308.1 -96.15 309.85 -90.6 310.25 -84.75 311.4 -67.7 314.55 -50.9 315.35 -46.65 315.0 -42.4 314.6 -37.65 313.3 -33.2 308.45 -16.65 306.05 0.35 304.35 12.65 303.75 25.05 303.5 30.35 302.15 35.55 301.45 38.15 299.95 40.35 L299.4 41.0 Q294.35 46.25 287.25 43.85 297.2 43.1 299.95 33.45 301.95 26.5 301.95 19.3 301.9 7.8 303.9 -3.75 304.6 -7.95 305.9 -12.1 308.1 -19.4 309.95 -26.95 L311.75 -34.7 311.0 -35.5 Q308.9 -32.3 306.05 -29.8 L305.15 -29.15 307.95 -35.25 Q308.75 -36.9 309.0 -38.8 310.4 -48.95 309.7 -59.05 308.95 -69.75 305.75 -79.75 303.4 -87.15 297.1 -91.7 294.2 -93.8 290.4 -93.45 L289.75 -93.35 Q288.0 -86.5 282.25 -83.0 279.7 -81.45 279.2 -76.7 278.65 -71.45 277.0 -69.75 L271.5 -63.1 Q267.9 -58.9 264.5 -57.25 256.25 -53.3 247.0 -45.6 L231.75 -33.0 Q228.55 -30.7 225.5 -26.6 222.75 -22.95 221.35 -19.5 L217.65 -13.2 Q215.6 -9.85 215.6 -6.75 L217.05 4.4 218.6 17.25 218.85 18.0 221.05 17.15 Q223.15 16.25 224.6 16.25 229.65 16.25 231.85 20.2 233.0 22.2 233.25 24.6 L233.75 24.6 Q234.5 22.45 234.05 17.1 L233.4 7.7 Q233.35 -3.75 242.25 -3.75 248.7 -3.75 250.35 1.05 250.7 2.1 250.75 6.05 L252.95 3.0 Q252.6 8.25 252.8 13.55 253.75 16.3 253.75 18.0 L253.6 24.35 Q254.85 34.15 257.4 43.55 260.05 53.55 263.95 62.95 267.45 71.35 272.1 79.1 274.9 83.7 275.7 88.95 276.15 92.05 275.15 94.95 274.5 90.5 272.0 86.95 L269.65 83.75 269.75 85.6 Q269.75 88.25 267.9 90.35 265.55 92.95 260.75 93.75 261.85 95.4 264.25 101.6 266.5 107.45 266.75 109.5 269.35 114.2 270.05 119.5 270.25 120.85 269.5 122.05 268.75 123.25 267.4 124.25 266.8 119.8 264.45 116.15 262.2 118.5 258.25 118.5 253.6 118.5 248.4 111.65 245.1 107.4 243.0 102.75 L239.55 94.65 Q238.65 92.95 237.4 91.35 L233.0 86.85 Q215.05 72.2 206.6 55.35 205.3 52.65 205.1 47.7 204.85 40.9 204.6 39.6 204.15 36.95 204.05 31.75 L203.6 23.85 Q203.35 22.25 201.7 15.8 200.45 11.05 200.6 8.0 200.75 4.95 200.2 -0.75 L199.6 -7.4 Q199.6 -13.15 199.85 -14.15 200.45 -16.65 203.85 -21.25 205.4 -23.4 206.95 -28.2 208.3 -32.55 210.35 -34.75 214.2 -38.85 225.4 -48.25 237.75 -58.6 241.0 -61.75 242.55 -63.25 249.75 -67.85 256.35 -72.0 259.0 -75.25 262.25 -79.2 263.75 -82.25 L266.25 -88.9 Q270.75 -101.35 270.7 -105.55 269.75 -110.05 269.75 -115.9 269.75 -123.5 277.95 -125.55 L281.05 -126.05 Q281.2 -138.7 282.65 -151.3 283.15 -155.75 284.25 -160.15 L286.5 -168.2 287.0 -167.75 286.95 -171.0 M222.35 48.45 L223.45 51.6 224.8 48.3 225.5 46.35 Q223.05 41.0 220.6 36.6 L220.6 36.85 222.35 48.45 M230.5 59.6 Q229.55 56.1 227.75 51.55 L226.0 52.15 224.1 53.0 Q226.35 57.2 230.5 59.6" fill="url(#gradient0)" fill-rule="evenodd" stroke="none"/>
    <path d="M264.75 106.35 L264.65 108.1 Q264.4 111.5 263.1 114.5 L263.85 115.3 Q266.75 119.25 267.4 124.25 268.75 123.25 269.5 122.05 270.25 120.85 270.05 119.5 269.1 112.4 264.75 106.35 M250.3 94.75 Q254.25 95.3 256.85 98.35 261.75 104.05 261.65 111.45 264.6 103.1 258.85 96.8 L257.1 95.25 Q244.1 87.05 232.05 77.5 L231.85 77.45 231.55 77.05 230.5 75.65 Q229.45 74.6 228.55 73.0 219.45 63.2 212.3 51.95 211.75 51.05 211.6 50.0 L209.55 36.1 Q209.65 44.5 210.35 53.0 210.45 54.4 211.05 55.75 213.15 60.4 216.25 64.5 219.55 68.9 222.4 73.7 L226.85 79.85 Q232.05 86.2 238.05 91.95 238.75 92.65 239.7 93.0 244.9 94.45 250.3 94.75 M255.9 91.6 Q252.35 87.3 249.3 82.55 245.75 77.0 243.7 70.75 242.35 66.7 239.6 63.35 233.05 55.3 232.55 44.85 232.1 35.95 229.75 27.5 229.6 34.05 227.5 41.0 L226.15 44.65 224.8 48.3 223.05 52.3 222.3 53.6 223.9 52.9 223.75 53.15 226.0 52.15 Q228.55 50.95 231.05 51.7 L231.1 51.95 232.25 53.6 233.05 55.85 233.55 56.95 Q239.7 68.55 240.9 81.85 L255.9 91.6 M246.9 11.4 L248.45 16.5 Q249.85 21.55 250.1 26.85 250.3 30.4 250.0 34.0 249.7 37.35 247.8 38.8 L247.8 39.7 Q249.7 46.75 252.3 53.45 255.15 60.65 258.7 67.4 262.9 75.5 268.6 82.45 L272.0 86.95 Q274.5 90.5 275.15 94.95 276.15 92.05 275.7 88.95 274.9 83.7 272.1 79.1 267.45 71.35 263.95 62.95 260.05 53.55 257.4 43.55 254.75 33.7 253.5 23.45 252.3 13.2 252.95 3.0 L246.9 11.4 M236.75 -48.0 Q230.2 -42.95 224.4 -37.35 213.35 -26.7 207.55 -12.2 L209.1 -14.6 212.4 -19.25 Q218.8 -27.3 226.15 -34.25 232.1 -39.85 238.6 -44.85 246.1 -50.75 252.2 -57.95 259.0 -65.95 263.75 -75.25 257.05 -67.25 249.85 -59.65 243.75 -53.35 236.75 -48.0 M296.35 -165.4 L295.3 -165.25 Q289.75 -165.85 286.95 -171.0 L287.0 -167.75 286.5 -168.2 284.25 -160.15 Q283.15 -155.75 282.65 -151.3 279.8 -126.1 281.9 -100.8 L284.1 -97.0 Q284.95 -95.7 285.95 -94.7 287.75 -93.05 290.4 -93.45 294.2 -93.8 297.1 -91.7 303.4 -87.15 305.75 -79.75 308.95 -69.75 309.7 -59.05 310.4 -48.95 309.0 -38.8 308.75 -36.9 307.95 -35.25 L305.15 -29.15 306.05 -29.8 Q308.9 -32.3 311.0 -35.5 L311.75 -34.7 309.95 -26.95 Q308.1 -19.4 305.9 -12.1 304.6 -7.95 303.9 -3.75 301.9 7.8 301.95 19.3 301.95 26.5 299.95 33.45 297.2 43.1 287.25 43.85 294.35 46.25 299.4 41.0 L299.95 40.35 Q301.45 38.15 302.15 35.55 303.5 30.35 303.75 25.05 304.35 12.65 306.05 0.35 308.45 -16.65 313.3 -33.2 314.6 -37.65 315.0 -42.4 315.35 -46.65 314.55 -50.9 311.4 -67.7 310.25 -84.75 309.85 -90.6 308.1 -96.15 306.75 -100.4 304.65 -104.55 300.35 -113.15 296.8 -122.05 296.2 -123.5 296.0 -125.0 294.6 -136.35 295.8 -148.0 296.7 -156.75 296.35 -165.4 M158.0 -9.45 Q156.8 -22.2 161.3 -34.35 164.25 -42.25 166.75 -50.35 176.95 -83.1 183.05 -116.9 184.35 -124.15 186.25 -131.25 188.95 -141.25 189.65 -151.3 190.25 -160.4 193.85 -168.7 L194.45 -168.2 Q194.95 -170.45 196.8 -171.75 200.4 -174.3 204.85 -173.75 L226.15 -175.25 Q237.0 -176.35 247.9 -174.9 L255.85 -173.85 261.15 -173.35 Q271.95 -171.25 282.9 -173.85 L285.85 -173.8 Q289.9 -172.75 292.1 -169.25 L297.55 -167.7 298.2 -169.15 298.55 -168.5 300.55 -174.95 302.0 -174.75 302.45 -174.05 Q302.25 -168.8 300.15 -164.05 298.15 -159.4 297.8 -154.4 296.9 -141.1 297.85 -127.9 298.3 -121.95 301.5 -116.9 310.45 -102.85 312.3 -86.4 313.25 -77.95 314.35 -69.55 315.2 -63.15 316.35 -56.85 318.35 -45.8 316.05 -34.8 314.75 -28.5 313.0 -22.3 306.05 2.3 305.8 27.85 305.75 33.6 303.7 38.85 302.0 43.1 298.1 45.4 295.75 46.8 293.05 46.95 286.95 47.55 282.2 43.4 278.5 40.3 276.05 36.25 274.05 33.0 272.75 29.45 270.5 23.35 270.3 16.65 269.95 6.4 273.05 -3.45 L276.45 -13.75 273.1 -14.5 261.55 -15.55 257.0 -1.25 Q256.0 2.05 255.55 5.5 254.45 14.6 255.05 23.6 255.25 27.05 256.1 30.45 258.2 39.15 260.45 47.6 262.55 55.5 266.85 62.6 274.8 75.6 277.45 90.55 277.8 92.45 277.3 94.3 275.8 99.85 270.7 102.3 268.2 103.55 265.5 103.5 268.85 108.45 271.25 114.05 273.45 119.15 270.6 124.2 270.0 125.35 269.0 125.95 262.3 130.1 255.5 125.85 253.95 124.8 252.75 123.4 L249.0 118.85 Q244.55 112.95 237.55 109.25 L224.25 102.1 Q218.55 98.95 213.65 94.6 214.1 98.15 213.0 101.35 211.15 106.75 205.4 107.5 199.6 108.2 195.2 104.4 191.95 101.6 189.2 98.1 182.25 89.3 176.4 79.75 174.95 77.35 174.0 74.7 170.95 66.3 166.65 58.45 L163.1 51.4 Q161.75 48.5 161.3 45.25 160.5 39.55 161.6 34.0 L162.1 31.7 161.8 31.45 Q162.1 21.35 160.55 11.2 159.0 0.85 158.0 -9.45" fill="#000000" fill-rule="evenodd" stroke="none"/>
  </g>
  <defs>
    <linearGradient gradientTransform="matrix(0.0, 0.1839, -0.1802, 0.0, 257.4, -23.35)" gradientUnits="userSpaceOnUse" id="gradient0" spreadMethod="pad" x1="-819.2" x2="819.2">
      <stop offset="0.0" stop-color="#000000"/>
      <stop offset="1.0" stop-color="#ff9900"/>
    </linearGradient>
  </defs>
</svg>
