<?xml version="1.0" encoding="UTF-8" standalone="no"?>
<svg xmlns:xlink="http://www.w3.org/1999/xlink" height="314.1px" width="101.55px" xmlns="http://www.w3.org/2000/svg">
  <g transform="matrix(1.0, 0.0, 0.0, 1.0, -13.0, 97.95)">
    <path d="M24.95 174.6 L28.3 175.1 29.05 175.2 48.0 177.55 60.65 178.85 62.95 179.05 62.95 216.15 24.95 216.15 24.95 174.6" fill="#ffffff" fill-rule="evenodd" stroke="none"/>
    <path d="M24.95 174.6 L18.25 173.2 Q15.0 172.2 13.9 170.75 13.0 169.6 13.0 167.15 13.0 162.85 15.35 161.05 17.6 159.35 22.85 159.3 L24.95 159.35 24.95 -74.95 62.95 -97.95 Q64.35 -86.7 67.95 -75.95 77.2 -48.65 100.95 -24.95 L100.95 165.8 102.35 165.9 112.0 166.4 104.7 173.25 114.55 182.4 101.85 181.75 100.95 181.7 100.95 216.15 95.95 216.15 95.95 181.4 67.95 179.45 67.95 216.15 62.95 216.15 62.95 179.05 60.65 178.85 48.0 177.55 29.05 175.2 28.3 175.1 24.95 174.6" fill="url(#gradient0)" fill-rule="evenodd" stroke="none"/>
    <path d="M100.95 -28.75 L100.95 162.0 24.95 155.55 24.95 -78.75 100.95 -28.75" fill="url(#gradient1)" fill-rule="evenodd" stroke="none"/>
    <path d="M62.95 -73.7 L62.95 163.55 55.5 162.8 36.05 160.4 33.05 160.05 29.05 159.65 29.05 -71.6 59.55 -89.15 Q60.35 -80.1 62.95 -73.7" fill="url(#gradient2)" fill-rule="evenodd" stroke="none"/>
  </g>
  <defs>
    <linearGradient gradientTransform="matrix(0.0, 0.1496, -0.1917, 0.0, 83.5, 37.9)" gradientUnits="userSpaceOnUse" id="gradient0" spreadMethod="pad" x1="-819.2" x2="819.2">
      <stop offset="0.0" stop-color="#cccccc"/>
      <stop offset="1.0" stop-color="#888888"/>
    </linearGradient>
    <radialGradient cx="0" cy="0" gradientTransform="matrix(0.1108, 0.0, 0.0, 0.1108, 100.95, 66.6)" gradientUnits="userSpaceOnUse" id="gradient1" r="819.2" spreadMethod="pad">
      <stop offset="0.0" stop-color="#ffffff"/>
      <stop offset="1.0" stop-color="#ffffff" stop-opacity="0.0"/>
    </radialGradient>
    <linearGradient gradientTransform="matrix(0.0207, 0.0, 0.0, 0.1542, 46.0, 37.2)" gradientUnits="userSpaceOnUse" id="gradient2" spreadMethod="pad" x1="-819.2" x2="819.2">
      <stop offset="0.0" stop-color="#000000" stop-opacity="0.0"/>
      <stop offset="1.0" stop-color="#000000" stop-opacity="0.5019608"/>
    </linearGradient>
  </defs>
</svg>
