<?xml version="1.0" encoding="UTF-8" standalone="no"?>
<svg xmlns:xlink="http://www.w3.org/1999/xlink" height="243.2px" width="408.05px" xmlns="http://www.w3.org/2000/svg">
  <g transform="matrix(1.0, 0.0, 0.0, 1.0, -10.4, 72.15)">
    <path d="M90.4 38.7 L90.45 38.7 90.4 38.75 90.4 38.7 M87.95 31.2 L87.9 31.35 Q87.9 31.9 88.5 32.2 L88.1 32.7 87.75 32.9 87.25 32.15 87.95 31.2 M94.35 35.0 L94.45 35.05 94.3 35.15 94.35 35.0" fill="#ffffff" fill-rule="evenodd" stroke="none"/>
    <path d="M414.7 -67.1 L414.15 -65.25 413.6 -63.6 Q413.1 -54.05 413.45 -44.45 414.1 -24.65 414.15 -4.85 414.25 22.9 413.5 50.6 411.85 110.9 418.45 171.05 L385.25 168.9 345.65 167.7 297.05 167.7 264.7 167.3 225.15 166.6 Q199.95 166.15 174.95 163.45 L69.85 152.25 69.2 152.55 13.35 144.8 13.35 144.65 Q12.9 144.1 10.4 143.95 11.2 140.65 14.25 135.6 L16.4 131.35 Q17.75 128.6 18.85 127.1 L21.5 122.75 24.05 118.55 24.9 117.25 25.75 116.05 26.7 114.1 28.9 110.55 Q32.25 105.75 33.45 103.45 L35.45 99.95 37.65 96.4 38.65 94.95 38.95 94.95 Q39.55 94.95 39.85 94.2 40.4 93.0 41.35 92.05 L43.75 88.85 Q44.5 87.6 46.2 85.65 L49.0 82.45 51.3 79.25 53.5 76.1 55.85 73.35 56.0 73.35 Q56.4 73.35 57.65 72.55 L59.65 71.6 62.95 69.45 Q64.6 68.45 65.55 67.15 L66.8 65.05 67.9 62.9 68.45 61.85 68.95 61.25 69.35 60.7 Q69.55 59.95 70.3 58.95 L70.7 58.35 72.5 56.3 74.55 53.4 79.1 49.3 80.15 48.7 80.7 48.3 81.25 48.0 82.85 47.45 83.5 47.25 84.85 46.3 89.5 42.45 94.15 38.6 96.95 36.7 97.2 36.45 97.6 36.1 101.4 32.95 101.35 32.9 101.85 32.55 101.9 32.5 Q102.65 31.75 103.85 31.2 L109.4 29.0 109.35 28.95 109.75 28.85 109.8 28.85 Q111.8 28.5 112.95 26.9 L114.5 24.65 115.6 22.5 Q119.15 17.85 124.2 14.9 L127.55 12.25 Q135.3 4.5 145.15 0.2 L150.3 -1.9 Q160.7 -5.95 170.65 -12.05 L173.75 -13.45 174.25 -13.65 175.6 -13.55 177.5 -14.65 178.0 -14.95 181.15 -16.05 181.1 -16.25 181.25 -16.3 181.25 -16.1 182.05 -16.55 182.15 -16.65 185.05 -17.8 Q185.7 -18.05 187.05 -18.8 187.4 -18.85 188.15 -19.2 188.9 -19.5 189.05 -19.65 L195.3 -23.8 Q196.55 -24.55 198.2 -25.85 L200.85 -27.9 203.4 -29.8 206.4 -31.7 Q209.45 -33.15 213.15 -35.65 L220.3 -39.5 Q221.45 -40.05 225.9 -40.8 L228.35 -41.25 233.4 -41.7 241.5 -41.7 243.45 -42.15 247.4 -42.85 Q251.55 -43.5 255.2 -45.0 257.3 -45.85 260.8 -47.95 264.55 -50.1 266.55 -50.65 L272.7 -52.55 280.9 -55.1 291.3 -57.15 299.4 -58.2 310.6 -58.7 317.25 -58.15 319.4 -57.6 322.2 -56.8 325.1 -56.1 331.05 -54.9 334.05 -54.3 336.7 -54.3 339.8 -54.0 Q340.25 -53.65 340.9 -53.65 L341.7 -53.85 347.45 -54.05 350.2 -54.45 Q351.8 -54.65 352.65 -55.0 L354.45 -55.7 357.6 -56.85 361.05 -57.95 363.3 -58.3 370.1 -58.5 371.85 -58.7 374.4 -58.75 377.55 -59.1 379.7 -59.5 385.7 -62.1 Q388.05 -63.15 391.85 -65.15 L398.05 -68.3 Q401.25 -69.8 405.7 -70.85 L411.85 -71.85 414.2 -72.15 414.15 -71.4 415.05 -71.6 415.3 -69.9 415.3 -69.6 414.85 -67.65 414.7 -67.1 M176.35 -11.6 L174.55 -10.8 Q168.85 -8.25 163.6 -5.0 160.55 -3.05 157.25 -2.05 140.1 3.2 126.75 15.75 118.55 23.45 109.8 29.9 L99.15 37.1 93.3 40.95 90.75 43.05 85.9 46.75 Q76.8 54.65 69.8 64.8 L69.4 65.0 66.15 70.45 66.3 71.35 55.9 76.8 56.3 77.2 55.75 77.0 Q48.55 88.8 39.6 99.15 L42.15 100.5 37.9 101.3 14.25 142.1 69.9 149.4 Q80.1 134.2 89.65 118.45 91.65 115.1 92.75 111.35 95.55 101.8 96.9 91.8 97.15 89.85 98.6 88.55 111.8 77.15 127.4 67.85 129.8 60.7 133.0 53.85 134.75 50.05 138.25 47.95 148.4 41.85 149.75 30.35 150.3 25.5 153.15 21.5 162.5 8.25 172.35 -4.75 L172.8 -5.2 Q175.15 -6.5 181.15 -10.4 184.45 -12.85 191.65 -16.8 L192.95 -17.45 Q194.9 -18.2 196.75 -19.25 L198.5 -20.05 204.75 -22.55 211.5 -25.1 Q215.9 -26.8 217.5 -27.95 L219.75 -29.35 222.5 -30.95 225.05 -32.35 228.45 -33.45 238.5 -33.95 249.4 -34.55 252.55 -35.15 254.8 -35.7 Q258.1 -36.2 263.65 -38.65 L270.45 -41.8 278.05 -45.4 Q282.7 -47.35 289.9 -48.95 L297.2 -50.25 296.65 -49.85 296.8 -49.9 297.25 -50.0 297.6 -50.1 298.05 -50.35 301.45 -50.6 304.3 -50.25 309.95 -49.4 316.5 -48.05 324.2 -46.15 330.45 -44.75 Q336.8 -43.55 341.4 -43.55 344.55 -43.55 351.8 -46.8 355.45 -48.45 358.95 -50.25 360.4 -50.55 363.1 -51.4 L375.4 -52.25 Q381.05 -52.3 383.8 -53.3 385.4 -53.85 387.45 -55.15 L392.65 -58.2 399.05 -62.5 Q400.0 -63.15 402.05 -63.95 L405.95 -65.25 410.8 -66.3 411.25 -68.1 411.9 -69.3 410.1 -69.2 409.6 -69.15 407.9 -69.05 404.45 -68.5 401.95 -67.55 Q398.7 -66.45 394.95 -64.6 L388.95 -61.4 386.1 -59.65 Q384.5 -58.7 383.15 -58.25 L381.55 -57.5 378.55 -57.0 Q370.8 -57.3 362.95 -57.0 L361.2 -56.6 360.4 -56.3 Q358.85 -56.3 356.75 -55.15 L354.4 -53.65 351.8 -52.75 350.75 -52.3 348.8 -51.75 Q346.85 -51.05 342.15 -51.05 330.05 -51.05 323.75 -52.75 L320.15 -53.75 316.2 -54.55 309.1 -55.75 307.6 -55.85 Q303.85 -56.15 300.3 -55.75 294.9 -55.2 294.0 -54.2 L287.95 -53.5 282.55 -52.3 276.0 -50.7 276.05 -50.8 276.0 -50.75 275.95 -50.75 275.8 -50.65 274.95 -50.4 273.35 -49.9 270.8 -49.3 Q269.55 -48.9 266.9 -47.4 L259.65 -43.55 Q258.5 -42.95 254.6 -42.05 L247.25 -40.45 242.15 -39.15 240.1 -38.75 239.65 -39.05 Q238.9 -39.35 232.65 -39.05 L230.65 -39.3 229.4 -39.4 226.95 -38.8 223.2 -37.45 Q220.8 -36.4 220.2 -35.95 L214.15 -33.1 210.65 -31.35 208.95 -30.3 204.95 -27.85 203.45 -26.8 Q202.7 -26.3 201.8 -26.0 L199.35 -23.55 Q196.5 -21.2 193.05 -19.8 180.4 -14.55 177.9 -12.55 L176.35 -11.6 M58.45 31.6 L58.55 31.45 58.55 31.55 58.45 31.6" fill="#000000" fill-rule="evenodd" stroke="none"/>
    <path d="M414.7 -67.1 L414.85 -67.65 415.3 -69.6 416.1 -69.7 Q418.15 -69.75 418.15 -68.55 L417.8 -68.1 416.9 -67.35 416.8 -67.25 416.75 -67.25 416.65 -67.15 416.55 -67.25 415.9 -67.25 414.7 -67.1 M176.35 -11.6 L177.9 -12.55 Q180.4 -14.55 193.05 -19.8 196.5 -21.2 199.35 -23.55 L201.8 -26.0 Q202.7 -26.3 203.45 -26.8 L204.95 -27.85 208.95 -30.3 210.65 -31.35 214.15 -33.1 220.2 -35.95 Q220.8 -36.4 223.2 -37.45 L226.95 -38.8 229.4 -39.4 230.65 -39.3 232.65 -39.05 Q238.9 -39.35 239.65 -39.05 L240.1 -38.75 242.15 -39.15 247.25 -40.45 254.6 -42.05 Q258.5 -42.95 259.65 -43.55 L266.9 -47.4 Q269.55 -48.9 270.8 -49.3 L273.35 -49.9 274.95 -50.4 275.8 -50.65 275.95 -50.75 276.0 -50.75 276.05 -50.8 276.0 -50.7 282.55 -52.3 287.95 -53.5 294.0 -54.2 Q294.9 -55.2 300.3 -55.75 303.85 -56.15 307.6 -55.85 L309.1 -55.75 316.2 -54.55 320.15 -53.75 323.75 -52.75 Q330.05 -51.05 342.15 -51.05 346.85 -51.05 348.8 -51.75 L350.75 -52.3 351.8 -52.75 354.4 -53.65 356.75 -55.15 Q358.85 -56.3 360.4 -56.3 L361.2 -56.6 362.95 -57.0 Q370.8 -57.3 378.55 -57.0 L381.55 -57.5 383.15 -58.25 Q384.5 -58.7 386.1 -59.65 L388.95 -61.4 394.95 -64.6 Q398.7 -66.45 401.95 -67.55 L404.45 -68.5 407.9 -69.05 409.6 -69.15 410.1 -69.2 411.9 -69.3 411.25 -68.1 410.8 -66.3 405.95 -65.25 402.05 -63.95 Q400.0 -63.15 399.05 -62.5 L392.65 -58.2 387.45 -55.15 Q385.4 -53.85 383.8 -53.3 381.05 -52.3 375.4 -52.25 L363.1 -51.4 Q360.4 -50.55 358.95 -50.25 355.45 -48.45 351.8 -46.8 344.55 -43.55 341.4 -43.55 336.8 -43.55 330.45 -44.75 L324.2 -46.15 316.5 -48.05 309.95 -49.4 304.3 -50.25 301.45 -50.6 298.05 -50.35 297.6 -50.1 297.25 -50.0 296.8 -49.9 296.65 -49.85 297.2 -50.25 289.9 -48.95 Q282.7 -47.35 278.05 -45.4 L270.45 -41.8 263.65 -38.65 Q258.1 -36.2 254.8 -35.7 L252.55 -35.15 249.4 -34.55 238.5 -33.95 228.45 -33.45 225.05 -32.35 222.5 -30.95 219.75 -29.35 217.5 -27.95 Q215.9 -26.8 211.5 -25.1 L204.75 -22.55 198.5 -20.05 196.75 -19.25 Q194.9 -18.2 192.95 -17.45 L191.65 -16.8 Q184.45 -12.85 181.15 -10.4 175.15 -6.5 172.8 -5.2 L172.35 -4.75 Q162.5 8.25 153.15 21.5 150.3 25.5 149.75 30.35 148.4 41.85 138.25 47.95 134.75 50.05 133.0 53.85 129.8 60.7 127.4 67.85 111.8 77.15 98.6 88.55 97.15 89.85 96.9 91.8 95.55 101.8 92.75 111.35 91.65 115.1 89.65 118.45 80.1 134.2 69.9 149.4 L14.25 142.1 37.9 101.3 42.15 100.5 39.6 99.15 Q48.55 88.8 55.75 77.0 L56.3 77.2 55.9 76.8 66.3 71.35 66.15 70.45 69.4 65.0 69.8 64.8 Q76.8 54.65 85.9 46.75 L90.75 43.05 93.3 40.95 99.15 37.1 109.8 29.9 Q118.55 23.45 126.75 15.75 140.1 3.2 157.25 -2.05 160.55 -3.05 163.6 -5.0 168.85 -8.25 174.55 -10.8 L174.65 -10.55 176.35 -11.6" fill="#ffffff" fill-rule="evenodd" stroke="none"/>
  </g>
</svg>
