<?xml version="1.0" encoding="UTF-8" standalone="no"?>
<svg xmlns:xlink="http://www.w3.org/1999/xlink" height="299.35px" width="311.0px" xmlns="http://www.w3.org/2000/svg">
  <g transform="matrix(1.0, 0.0, 0.0, 1.0, 140.55, 146.3)">
    <path d="M32.95 -136.3 L34.05 -135.5 34.05 -135.45 34.1 -135.45 Q34.8 -135.0 35.7 -134.65 L35.55 -134.45 35.5 -134.45 34.35 -134.25 33.9 -134.35 32.85 -134.6 32.65 -134.35 Q30.55 -134.75 28.15 -135.75 L29.1 -134.95 35.75 -131.5 36.55 -131.0 Q37.5 -130.25 38.25 -129.1 L39.65 -127.25 40.25 -126.5 40.4 -126.3 41.2 -125.3 43.25 -123.1 42.5 -123.1 41.35 -123.35 40.55 -123.6 39.9 -123.8 39.8 -123.75 37.9 -124.65 37.9 -124.6 38.25 -123.8 46.75 -118.85 47.35 -118.5 Q43.45 -119.95 38.85 -122.45 L39.5 -121.15 Q40.05 -119.85 42.4 -117.75 L45.95 -114.65 45.9 -114.55 45.95 -114.55 47.65 -113.2 47.95 -112.75 47.5 -112.4 Q43.3 -114.2 39.2 -116.8 L39.1 -116.7 39.0 -116.65 41.65 -114.5 46.85 -111.75 46.9 -111.55 46.7 -111.65 45.55 -111.85 44.7 -112.0 43.95 -112.15 43.6 -112.2 43.4 -112.3 43.1 -112.45 43.15 -112.25 42.65 -112.4 42.15 -112.6 41.25 -112.7 41.0 -112.3 41.2 -112.05 43.45 -110.3 Q46.8 -108.05 49.5 -106.9 L49.55 -106.75 49.35 -106.55 49.0 -106.45 48.2 -106.6 47.35 -107.0 45.95 -107.35 44.5 -108.0 43.65 -108.35 43.05 -108.55 42.25 -109.1 Q43.1 -107.4 43.9 -106.5 L44.95 -105.2 46.2 -103.85 48.0 -102.55 Q48.55 -102.15 49.0 -101.9 L49.95 -101.1 53.15 -99.1 51.5 -99.0 47.25 -99.3 46.0 -99.8 44.95 -99.8 44.5 -99.95 43.95 -100.15 43.7 -100.25 43.75 -99.95 Q43.6 -99.75 43.6 -99.45 L43.7 -98.7 43.75 -98.6 43.7 -98.25 Q43.7 -96.95 45.2 -93.95 L46.65 -91.8 47.15 -91.1 47.45 -91.0 47.45 -90.9 47.35 -90.8 47.9 -89.95 47.7 -90.05 Q46.85 -90.45 46.45 -90.8 L46.4 -90.8 46.35 -90.85 46.15 -91.05 45.95 -91.25 44.9 -91.9 42.65 -93.45 41.35 -94.85 41.3 -94.85 41.2 -94.7 41.85 -93.1 41.9 -93.0 42.3 -92.5 43.4 -91.5 43.95 -91.1 44.25 -90.95 44.25 -90.9 44.0 -90.9 43.85 -90.8 43.5 -90.7 42.65 -90.75 41.05 -91.35 39.45 -92.7 38.05 -94.3 38.3 -93.35 Q38.85 -91.45 39.55 -90.65 L40.65 -89.45 Q41.95 -88.6 41.95 -88.15 41.95 -87.8 41.55 -87.8 L40.05 -88.2 39.75 -88.3 Q38.5 -88.75 38.2 -88.95 L37.95 -89.2 38.6 -87.85 Q38.65 -87.35 39.2 -86.25 L39.9 -84.35 40.45 -83.45 41.1 -82.65 41.15 -82.55 41.2 -82.55 Q41.4 -82.15 41.75 -81.85 L41.75 -81.8 43.25 -80.0 Q41.1 -81.15 39.65 -82.6 L39.4 -82.7 39.4 -82.45 Q39.4 -81.85 39.0 -81.4 L38.95 -81.3 Q39.55 -78.7 39.85 -75.5 L39.85 -75.45 39.85 -75.1 39.75 -75.0 39.65 -75.45 38.85 -75.55 38.6 -75.4 38.25 -75.8 37.9 -76.05 37.85 -76.0 Q37.5 -75.5 37.0 -75.5 36.05 -76.45 35.2 -77.75 36.4 -75.25 37.6 -74.0 L37.6 -73.9 36.95 -74.3 37.5 -73.65 37.6 -73.5 Q35.2 -74.65 33.55 -78.25 34.05 -75.8 34.85 -73.75 L35.5 -74.9 35.6 -74.1 Q35.6 -73.0 35.2 -72.55 L35.15 -72.45 35.1 -72.4 37.0 -70.5 Q37.25 -70.35 36.65 -70.35 35.6 -70.35 34.65 -71.0 L34.0 -70.85 Q33.35 -70.85 31.35 -72.5 L29.25 -74.45 29.25 -74.25 29.45 -73.05 31.0 -71.55 Q33.45 -69.45 36.35 -68.0 36.35 -67.6 35.7 -67.6 33.55 -67.6 29.95 -70.75 31.1 -67.1 33.5 -64.35 33.4 -64.15 33.0 -64.1 29.9 -67.35 28.8 -71.2 L28.6 -72.0 28.45 -72.15 27.95 -72.65 27.45 -72.6 27.15 -72.6 27.15 -72.55 Q27.5 -70.35 28.5 -67.6 28.4 -67.4 28.0 -67.35 L27.95 -67.45 27.65 -66.75 27.0 -67.2 26.35 -67.75 25.9 -68.3 25.45 -68.9 25.15 -69.4 24.5 -70.2 24.3 -70.5 Q23.75 -71.7 23.75 -72.7 L23.65 -73.25 23.55 -73.65 24.25 -77.3 24.2 -77.55 23.05 -73.95 22.5 -72.0 22.35 -72.0 22.75 -74.9 21.8 -73.15 21.45 -71.8 21.35 -71.55 20.9 -70.95 21.05 -70.75 20.9 -70.6 20.7 -70.3 20.65 -70.6 20.65 -70.65 Q18.7 -68.1 16.15 -66.0 L15.55 -65.75 15.35 -65.6 15.25 -65.45 Q15.0 -65.15 15.0 -64.5 L15.0 -64.45 Q12.25 -52.8 14.9 -41.25 22.8 -33.75 31.8 -27.6 35.15 -25.25 38.7 -23.1 44.8 -19.5 51.95 -18.6 73.8 -16.65 95.65 -18.75 L130.4 -21.15 Q139.4 -20.8 148.4 -18.8 L157.2 -16.25 162.9 -13.95 Q162.25 -11.65 160.05 -10.35 158.3 -9.3 156.35 -9.5 154.45 -9.8 152.85 -11.05 159.05 -4.45 165.7 1.65 L169.45 5.5 170.3 7.0 170.45 7.8 Q170.55 9.15 169.6 10.25 L169.25 10.65 Q163.85 9.85 160.4 5.75 158.15 6.9 155.45 6.85 153.0 6.8 151.15 5.15 149.05 6.55 146.2 6.45 L141.3 5.7 Q139.4 5.4 137.65 4.75 L131.7 2.1 129.8 1.25 Q123.8 -2.1 117.05 -2.1 107.3 -2.05 97.9 -0.05 89.15 1.9 80.35 4.45 71.95 6.8 63.1 7.85 L56.4 8.9 Q52.4 8.6 48.8 7.35 41.1 4.65 33.8 0.9 L16.05 -8.2 Q14.1 -5.05 11.05 -2.95 10.05 -2.35 8.7 -2.25 L6.45 -2.1 4.7 -1.85 3.5 -2.0 Q0.15 1.35 -1.9 5.65 -4.2 10.35 -5.75 15.15 L-6.7 18.45 Q-8.95 27.85 -8.5 37.55 L-8.1 46.5 -7.85 53.9 Q-7.45 66.15 -9.75 78.25 L-9.0 79.25 -9.25 79.8 Q-1.8 104.2 3.7 129.15 6.05 139.95 8.0 151.0 L5.8 144.45 5.4 145.0 4.85 144.3 Q-0.1 144.5 -4.5 146.9 L-3.95 149.25 -4.75 147.0 -19.6 147.5 -19.25 147.9 -21.55 147.15 -21.0 148.5 -23.45 145.6 -25.4 146.5 -28.45 147.65 -35.45 147.4 -37.2 147.15 -39.3 144.2 -39.6 145.65 -39.0 146.1 -40.3 152.75 -42.8 152.95 -48.7 151.3 -57.95 148.05 -63.55 146.05 -65.75 145.8 -66.95 145.9 -67.0 145.25 -69.45 150.55 Q-68.2 145.05 -65.3 140.1 -62.85 135.8 -60.9 131.5 L-58.4 125.6 Q-56.65 121.2 -55.5 116.35 L-51.95 102.7 -65.05 87.95 -71.45 80.55 Q-75.7 75.35 -78.35 69.25 -80.9 63.35 -81.55 56.75 -81.95 52.65 -81.6 48.45 -80.85 39.5 -77.15 31.45 -75.05 26.9 -72.1 22.75 L-68.0 17.45 -59.6 7.1 Q-57.2 4.2 -55.75 0.55 L-54.15 -3.3 Q-51.65 -9.5 -49.8 -15.65 -47.45 -23.55 -45.8 -31.5 -43.8 -41.2 -43.1 -51.15 -42.55 -59.45 -40.2 -67.4 L-40.95 -66.75 -46.15 -65.85 -53.15 -63.65 -58.65 -61.35 Q-64.2 -58.8 -69.4 -55.4 -81.55 -47.45 -94.0 -40.1 -99.5 -36.75 -103.9 -32.25 L-110.15 -25.15 Q-111.2 -23.85 -112.5 -22.8 L-115.1 -20.55 -117.7 -17.95 -119.15 -16.2 Q-121.65 -16.6 -122.05 -19.2 L-122.35 -21.1 Q-126.3 -18.95 -130.3 -17.0 -132.9 -15.8 -135.6 -15.7 L-137.0 -16.75 -136.55 -18.7 Q-134.0 -19.85 -131.5 -21.2 -130.4 -21.85 -129.45 -22.8 L-128.5 -23.85 Q-131.55 -22.55 -134.75 -21.8 L-140.55 -21.65 Q-140.4 -23.1 -139.9 -24.4 L-138.75 -25.7 -136.0 -27.25 -138.5 -27.4 -139.05 -28.25 -138.6 -31.1 -128.45 -34.4 -133.35 -33.85 -135.85 -33.7 -137.4 -34.15 Q-136.85 -36.5 -134.7 -37.2 L-125.45 -40.05 Q-120.0 -41.65 -114.55 -42.45 -112.6 -42.7 -111.05 -43.5 -101.55 -48.25 -94.3 -56.2 L-93.9 -55.8 Q-87.45 -61.05 -81.6 -67.05 L-77.25 -71.3 Q-70.5 -77.9 -61.45 -80.75 L-51.25 -83.85 -44.3 -86.15 Q-41.45 -87.25 -38.7 -88.55 L-34.5 -90.3 -32.4 -91.2 -30.35 -92.3 -25.9 -93.9 -18.0 -96.05 -18.0 -96.35 Q-18.55 -96.15 -19.55 -95.9 L-19.75 -95.75 -19.95 -95.85 -20.5 -95.75 -21.1 -95.8 -21.25 -96.2 -20.95 -96.8 Q-22.6 -95.3 -24.35 -94.5 -24.75 -94.05 -24.75 -94.7 -24.75 -95.1 -20.5 -98.9 L-17.85 -102.05 Q-21.35 -98.5 -23.0 -98.5 L-23.25 -98.5 Q-26.4 -94.75 -28.0 -94.75 L-28.65 -94.8 -28.45 -95.1 -27.8 -95.75 -27.05 -96.4 -24.35 -99.05 -23.2 -100.35 -22.1 -101.65 -21.25 -102.95 -20.55 -104.3 -19.65 -105.5 Q-20.65 -104.85 -21.25 -104.85 L-21.65 -104.85 Q-23.4 -103.35 -25.5 -102.6 L-26.0 -102.6 -26.15 -103.0 -24.4 -104.2 Q-22.4 -105.45 -21.6 -106.35 L-21.45 -106.45 -21.35 -106.6 -20.7 -107.25 -20.15 -107.85 -19.35 -108.7 -19.8 -108.35 -19.7 -108.55 Q-19.7 -109.0 -20.05 -109.0 L-22.7 -106.85 Q-23.75 -106.1 -24.3 -105.9 -25.85 -105.1 -27.05 -105.1 L-27.25 -105.1 -27.95 -105.15 -28.0 -105.15 -27.05 -106.05 -25.8 -106.95 -24.85 -107.85 Q-24.2 -108.35 -24.2 -108.8 L-24.2 -108.95 Q-24.2 -109.4 -24.6 -109.4 L-24.85 -109.3 -25.3 -109.25 -26.05 -109.05 -26.9 -108.9 -28.45 -109.25 -29.25 -109.5 -29.65 -109.9 -30.15 -110.25 -30.25 -110.35 -30.15 -110.4 -29.75 -110.4 -27.3 -110.7 -26.0 -111.45 -23.7 -112.95 Q-20.7 -115.5 -20.7 -116.0 L-20.75 -116.2 -19.8 -117.1 -19.9 -117.1 -20.35 -116.9 -20.5 -117.0 -20.95 -117.1 -21.4 -116.9 Q-21.6 -116.7 -21.9 -116.6 L-22.65 -116.15 -25.25 -115.9 Q-27.45 -115.9 -27.9 -116.5 L-28.0 -116.85 -27.6 -116.85 -26.75 -116.95 -26.35 -117.05 -23.35 -117.55 -23.05 -117.55 -22.5 -117.85 -22.05 -118.2 -21.45 -118.9 -20.95 -119.65 -21.05 -119.9 -20.95 -120.2 Q-20.95 -120.65 -21.4 -120.65 L-22.4 -120.55 -23.6 -120.7 -24.15 -120.95 -25.15 -121.35 -26.3 -121.85 -27.25 -122.8 -26.9 -122.8 -25.7 -122.95 -25.35 -122.9 -25.35 -123.0 -24.0 -123.35 -23.0 -123.85 -21.9 -124.35 Q-21.15 -124.55 -20.05 -125.25 L-19.35 -125.75 -19.1 -125.9 Q-18.75 -126.05 -16.3 -127.35 L-18.6 -127.35 -18.8 -127.4 -19.1 -127.55 -21.1 -127.65 -21.2 -127.65 Q-24.85 -127.55 -25.25 -127.7 L-26.1 -127.95 -25.9 -128.25 -25.95 -128.3 Q-25.4 -128.4 -24.9 -128.65 L-23.2 -129.1 -22.35 -129.5 -21.5 -129.8 -20.6 -130.25 -19.9 -130.4 -19.4 -130.65 -17.95 -131.35 -16.4 -131.95 -16.1 -132.1 Q-13.35 -133.2 -10.3 -134.85 L-10.0 -135.1 -12.5 -135.0 -17.6 -135.1 Q-17.75 -134.85 -17.75 -135.45 -17.75 -136.5 -15.05 -136.4 L-14.1 -136.35 -11.3 -136.7 -10.75 -136.85 -6.95 -137.6 -7.0 -137.7 -6.95 -137.95 -7.8 -137.85 -8.7 -138.0 -13.15 -138.25 -14.6 -138.85 -14.65 -139.0 -9.3 -139.35 Q-9.0 -139.9 -6.75 -140.35 L-4.2 -140.75 -8.4 -141.5 -9.3 -141.3 -9.75 -141.0 -10.35 -141.05 -10.5 -141.45 Q-10.5 -143.2 -5.95 -142.0 L-3.65 -141.35 -3.65 -141.55 -3.65 -141.8 -4.75 -142.6 -4.35 -143.3 -3.5 -143.9 Q-2.5 -143.9 -1.05 -143.2 L0.0 -143.75 0.45 -143.95 Q0.9 -144.85 1.4 -144.65 L1.45 -144.45 2.1 -144.75 Q3.85 -145.5 4.6 -145.5 L4.9 -145.25 Q4.9 -145.0 5.2 -145.0 L6.5 -145.6 8.25 -146.25 9.1 -146.3 9.25 -146.2 10.65 -146.15 10.9 -146.05 11.3 -145.95 12.1 -145.8 12.8 -145.55 13.6 -145.4 14.25 -145.3 15.4 -145.2 17.65 -145.1 17.95 -145.05 19.6 -144.95 22.75 -145.35 23.75 -145.8 24.0 -145.95 23.95 -145.7 24.2 -145.65 24.25 -145.65 23.5 -144.75 22.85 -144.15 21.9 -143.5 20.55 -142.9 20.2 -142.45 22.6 -142.45 25.05 -141.65 26.8 -140.8 28.5 -139.95 30.15 -138.55 31.75 -137.35 Q32.4 -136.75 32.95 -136.3 M19.75 -142.35 L20.0 -142.3 20.1 -142.4 19.75 -142.35 M17.7 -142.7 L17.8 -142.75 17.65 -142.75 17.7 -142.7 M19.0 -112.05 L18.75 -111.95 18.75 -111.9 19.0 -112.05 M46.3 -133.6 L46.2 -133.55 46.25 -133.65 46.3 -133.6 M17.9 -100.6 Q18.1 -100.35 18.35 -100.75 L18.15 -100.95 Q17.35 -101.1 17.9 -100.6 M49.95 -110.25 L49.9 -110.25 49.85 -110.3 49.95 -110.25 M41.65 -108.65 L41.3 -108.9 41.35 -108.85 41.65 -108.65 M34.3 -95.9 L34.4 -95.65 34.35 -95.9 34.3 -95.9 M38.8 -90.25 L38.85 -90.25 38.8 -90.3 38.8 -90.25 M29.3 -80.2 L29.0 -78.85 29.0 -78.6 29.05 -76.55 Q30.55 -74.4 33.3 -72.35 L32.55 -73.6 Q31.95 -74.3 31.4 -75.35 L29.9 -78.9 29.65 -79.4 Q29.45 -79.5 29.4 -79.75 L29.4 -80.0 29.3 -80.2 M36.75 -82.55 L36.0 -82.35 36.45 -81.05 37.35 -78.55 37.6 -78.05 37.6 -78.35 37.75 -78.35 37.95 -77.55 38.05 -77.3 Q38.8 -76.1 39.6 -75.65 L37.8 -81.15 Q37.3 -81.55 36.75 -82.55 M19.4 -95.35 L19.5 -95.35 19.5 -95.4 19.4 -95.35 M13.25 142.05 L14.75 147.3 Q13.35 145.15 12.2 142.3 L13.25 142.05 M-12.2 75.05 L-12.45 74.45 -12.45 75.15 -12.2 75.05 M-61.55 145.45 L-61.4 144.65 -61.8 145.3 Q-61.7 145.35 -61.55 145.45" fill="#000000" fill-opacity="0.15294118" fill-rule="evenodd" stroke="none"/>
  </g>
</svg>
