<?xml version="1.0" encoding="UTF-8" standalone="no"?>
<svg xmlns:xlink="http://www.w3.org/1999/xlink" height="149.6px" width="80.1px" xmlns="http://www.w3.org/2000/svg">
  <g transform="matrix(1.0, 0.0, 0.0, 1.0, 0.0, 0.0)">
    <path d="M58.9 11.8 Q69.05 4.55 80.1 0.0 68.5 5.65 59.8 11.65 54.1 15.55 44.4 23.6 39.1 28.05 34.35 33.05 L36.45 30.65 Q40.0 26.6 42.9 24.35 L58.9 11.8 M22.5 47.4 Q13.65 59.85 8.45 70.7 1.55 84.95 1.55 95.05 1.55 103.1 2.5 106.8 3.85 112.05 9.0 120.2 13.4 127.1 22.35 132.8 L26.25 135.3 26.4 135.35 Q29.35 136.8 31.2 137.5 L33.85 138.4 36.35 139.05 31.8 136.85 27.7 134.35 24.15 131.35 Q19.3 127.1 14.7 119.75 7.7 108.4 7.7 96.5 7.7 91.05 8.65 85.85 9.75 79.8 11.85 75.8 L11.85 75.95 10.15 82.05 Q8.45 88.55 8.45 92.4 8.45 99.6 9.55 104.55 10.95 110.75 14.7 117.2 18.9 124.5 24.2 129.55 26.55 131.75 27.7 132.6 29.95 134.4 32.55 135.65 L38.25 138.4 41.05 139.35 Q42.05 139.65 42.65 140.05 L43.45 140.1 45.75 140.65 Q45.3 141.2 44.85 141.2 L43.7 141.15 43.8 141.55 43.25 142.8 42.6 143.95 42.4 145.2 Q42.25 145.9 41.9 146.05 L41.35 147.65 41.4 147.8 41.15 148.7 40.75 148.85 40.65 148.95 40.7 149.1 40.65 149.45 40.55 149.6 40.4 149.6 37.85 148.2 36.65 147.5 35.7 146.95 35.15 146.6 Q32.7 145.25 31.2 144.2 L27.9 142.1 24.5 139.4 Q17.6 134.0 12.6 128.6 8.3 124.05 4.8 117.65 3.2 114.85 2.25 112.15 L1.7 110.05 Q0.0 105.2 0.0 98.9 0.0 86.25 5.2 74.35 9.8 63.95 20.75 49.1 L25.15 43.25 Q28.1 39.5 30.9 36.75 26.4 41.85 22.5 47.4 M34.35 139.55 L34.6 139.65 34.35 139.55" fill="#ff0000" fill-rule="evenodd" stroke="none"/>
  </g>
</svg>
