<?xml version="1.0" encoding="UTF-8" standalone="no"?>
<svg xmlns:xlink="http://www.w3.org/1999/xlink" height="47.7px" width="83.45px" xmlns="http://www.w3.org/2000/svg">
  <g transform="matrix(1.0, 0.0, 0.0, 1.0, 38.85, 24.7)">
    <path d="M25.05 3.85 L17.05 4.7 16.05 4.35 Q17.0 4.4 18.0 3.45 L24.0 3.65 25.05 3.85 M6.5 4.65 L1.6 4.65 Q-3.0 4.35 -5.35 2.7 L3.4 2.35 6.5 2.75 11.55 3.85 7.15 4.6 6.5 4.65" fill="#ffffff" fill-rule="evenodd" stroke="none"/>
    <path d="M12.2 -0.7 L11.65 -0.8 11.0 -0.8 6.5 -0.9 -1.5 -1.65 -11.95 -2.9 -12.05 -2.9 -12.55 -2.9 -15.35 -2.25 Q-16.35 -2.65 -16.5 -3.45 L-18.0 -3.55 Q-16.7 -5.0 -14.5 -5.75 -13.2 -7.25 -8.95 -9.75 -4.85 -12.15 -2.05 -12.65 -1.35 -12.25 -0.35 -11.8 2.4 -10.65 6.5 -10.1 L12.2 -9.65 14.3 -9.65 Q17.7 -9.65 21.1 -10.6 L23.3 -9.95 24.0 -9.55 Q26.0 -8.4 26.45 -5.95 27.25 -5.1 27.25 -4.35 27.25 -3.8 26.6 -3.15 L26.55 -1.9 Q26.3 -0.8 25.3 -0.8 L24.0 -0.8 18.7 -1.0 14.05 -0.6 12.2 -0.7" fill="#ffffff" fill-rule="evenodd" stroke="none"/>
    <path d="M18.7 -18.95 L24.0 -18.9 26.05 -19.0 28.2 -19.25 Q34.0 -17.85 37.45 -11.8 40.85 -5.75 41.95 -2.05 38.7 2.8 35.4 6.45 28.8 17.75 25.3 17.75 24.5 17.75 24.0 17.4 L23.5 16.9 Q20.4 18.05 16.2 18.35 L12.2 19.6 10.7 19.85 6.5 19.75 Q-1.6 19.4 -5.95 17.45 -13.8 12.95 -22.25 8.6 L-23.05 8.05 -23.5 8.1 Q-25.9 8.1 -29.6 4.65 -31.7 2.65 -32.45 1.35 L-34.2 0.45 Q-36.85 -1.35 -36.85 -3.05 -36.85 -6.85 -32.35 -5.6 L-23.85 -10.85 Q-13.7 -16.7 -11.1 -17.5 -8.95 -18.15 -6.35 -20.95 -5.1 -22.35 -0.35 -21.75 L-0.15 -21.85 Q2.95 -23.05 5.4 -21.25 L5.95 -20.9 6.5 -20.8 9.0 -20.25 Q9.3 -20.0 12.2 -19.6 L13.55 -19.45 18.7 -18.95 M12.2 -0.7 L14.05 -0.6 18.7 -1.0 24.0 -0.8 25.3 -0.8 Q26.3 -0.8 26.55 -1.9 L26.6 -3.15 Q27.25 -3.8 27.25 -4.35 27.25 -5.1 26.45 -5.95 26.0 -8.4 24.0 -9.55 L23.3 -9.95 21.1 -10.6 Q17.7 -9.65 14.3 -9.65 L12.2 -9.65 6.5 -10.1 Q2.4 -10.65 -0.35 -11.8 -1.35 -12.25 -2.05 -12.65 -4.85 -12.15 -8.95 -9.75 -13.2 -7.25 -14.5 -5.75 -16.7 -5.0 -18.0 -3.55 L-16.5 -3.45 Q-16.35 -2.65 -15.35 -2.25 L-12.55 -2.9 -12.05 -2.9 -11.95 -2.9 -1.5 -1.65 6.5 -0.9 11.0 -0.8 11.65 -0.8 12.2 -0.7" fill="url(#gradient0)" fill-rule="evenodd" stroke="none"/>
    <path d="M6.5 -11.75 L10.2 -11.15 Q11.5 -10.55 12.2 -10.45 L12.25 -10.45 17.85 -10.3 19.2 -10.45 21.05 -10.6 Q22.3 -10.6 24.0 -9.35 L25.8 -7.8 Q28.55 -5.0 28.55 -2.95 L28.55 -2.55 29.55 -2.75 Q30.15 -2.75 30.85 -2.05 L31.8 -1.0 Q30.25 1.5 25.6 2.35 L24.0 2.6 22.25 2.8 23.6 3.25 Q22.2 4.1 20.5 4.1 L12.2 3.75 Q8.8 3.35 6.75 2.6 L6.7 2.6 6.5 2.6 0.75 1.95 -0.4 1.85 -2.55 1.95 -3.3 1.5 -12.6 0.2 Q-16.7 -0.6 -19.05 -1.45 -20.4 -2.0 -21.85 -2.0 L-23.15 -2.1 -23.35 -2.65 Q-21.5 -4.1 -15.95 -3.5 L-16.2 -3.75 Q-14.35 -5.0 -10.6 -8.5 -6.75 -11.7 -2.4 -12.6 L2.95 -12.3 6.5 -11.75 M6.5 -8.2 L-2.25 -8.35 Q-3.1 -8.35 -7.85 -5.5 L-12.3 -2.9 -11.15 -2.7 Q-1.2 -0.65 6.5 -0.05 L12.2 0.2 12.45 0.2 Q15.3 0.2 22.3 -1.2 L24.0 -1.55 26.15 -2.05 Q25.7 -2.5 25.55 -3.2 25.05 -4.75 24.0 -5.5 L23.9 -5.6 Q21.2 -7.25 12.2 -7.9 L6.5 -8.2" fill="#000000" fill-opacity="0.23137255" fill-rule="evenodd" stroke="none"/>
    <path d="M12.2 -18.25 Q10.15 -18.8 8.25 -19.6 7.3 -20.0 6.5 -20.35 L2.25 -21.95 Q1.3 -21.95 -1.05 -20.95 L-6.0 -18.7 -7.7 -17.85 Q-15.75 -13.6 -16.9 -13.1 -18.1 -12.4 -26.05 -8.1 -34.45 -3.75 -35.65 -3.35 L-35.9 -2.65 Q-35.9 -1.8 -35.15 -1.2 L-35.15 -1.15 -32.75 0.75 Q-32.0 1.0 -30.65 2.0 L-26.65 5.1 -26.3 5.5 -19.6 10.05 Q-10.75 15.3 -4.25 17.65 1.25 19.5 6.25 19.65 L6.5 19.65 6.6 19.65 6.85 19.65 9.35 19.55 12.2 19.2 15.8 18.55 18.45 18.25 24.0 16.5 Q27.95 15.0 30.5 13.25 L30.6 13.4 31.35 12.7 Q32.25 11.55 32.55 10.5 33.15 8.9 34.75 6.45 L37.8 2.8 Q39.1 0.8 40.55 -0.7 L40.9 -2.7 Q40.9 -3.65 40.3 -4.15 L40.5 -4.35 Q38.75 -9.35 35.35 -13.8 31.3 -19.1 27.8 -19.1 L24.55 -18.2 24.0 -18.05 Q21.4 -17.3 20.05 -17.3 15.9 -17.3 12.2 -18.25 M16.7 -20.6 L22.8 -21.4 24.0 -21.65 27.25 -22.1 Q31.3 -22.1 37.45 -15.05 43.05 -8.6 43.05 -6.3 L43.05 -6.0 43.95 -4.35 44.4 -3.8 44.5 -3.15 44.6 -2.95 44.5 -1.8 44.5 -1.65 44.6 -1.2 44.6 -0.9 44.6 -0.15 Q44.4 0.6 43.55 0.75 L43.0 1.35 Q40.65 3.8 39.35 5.55 L38.35 7.75 36.5 10.4 34.8 11.85 33.05 14.55 Q31.2 17.3 30.25 17.3 L29.9 17.45 29.95 17.65 28.1 18.7 25.7 19.65 24.0 20.1 16.75 21.55 12.2 21.95 7.45 22.5 6.5 22.6 0.05 22.9 Q0.1 22.7 0.8 22.6 -2.95 22.3 -5.65 20.85 L-7.05 20.05 -7.6 19.8 Q-13.3 15.95 -21.15 11.75 L-23.9 9.8 -27.2 7.9 Q-28.95 6.8 -30.9 5.2 L-33.95 2.65 -35.05 1.85 -37.6 -0.3 -38.35 -1.0 -38.5 -1.65 -38.85 -2.7 -38.65 -3.55 Q-38.55 -5.5 -37.2 -5.9 L-36.4 -6.0 -35.65 -6.55 -35.0 -6.3 -34.4 -6.4 -34.3 -6.5 -29.65 -9.65 -21.2 -14.75 -11.1 -19.9 -2.9 -23.9 -2.75 -23.85 -2.3 -24.4 1.35 -24.7 Q3.85 -24.85 6.5 -23.45 L7.65 -22.8 Q9.6 -21.55 12.2 -21.0 L16.7 -20.6 M7.95 -11.05 L12.2 -10.9 20.8 -11.1 24.0 -10.75 24.9 -10.35 25.7 -8.75 Q26.8 -6.4 29.35 -2.1 L29.25 -1.8 29.4 -1.75 29.55 -1.65 28.95 -0.25 27.3 -0.25 27.05 -0.25 24.35 0.0 24.0 0.05 12.7 1.2 12.2 1.15 6.5 0.5 -18.9 -1.9 -19.0 -1.9 -20.25 -1.65 -20.75 -2.3 -21.1 -2.7 -20.45 -2.9 Q-7.1 -11.35 -3.85 -12.75 L3.75 -12.05 5.35 -11.4 6.5 -11.15 7.95 -11.05 M2.3 -10.45 L-3.1 -11.4 -15.95 -4.35 -15.55 -4.25 -15.2 -3.55 -15.95 -2.95 -4.45 -2.55 3.25 -1.45 6.5 -1.0 11.55 -0.45 12.2 -0.45 19.85 -1.2 24.0 -1.7 25.9 -1.9 Q26.15 -3.75 26.0 -4.8 L25.55 -5.85 24.05 -8.3 24.0 -8.5 23.9 -8.8 22.9 -9.5 13.8 -9.4 12.2 -9.4 6.5 -9.7 2.3 -10.45 M27.05 -2.4 L27.3 -2.4 27.05 -2.7 27.05 -2.4 M-18.15 -3.0 L-18.15 -3.05 -18.2 -3.0 -18.15 -3.0" fill="#26231e" fill-rule="evenodd" stroke="none"/>
    <path d="M12.2 -18.25 Q10.15 -18.8 8.25 -19.6 7.3 -20.0 6.5 -20.35 L2.25 -21.95 Q1.3 -21.95 -1.05 -20.95 L-6.0 -18.7 -7.7 -17.85 Q-15.75 -13.6 -16.9 -13.1 -18.1 -12.4 -26.05 -8.1 -34.45 -3.75 -35.65 -3.35 L-35.9 -2.65 Q-35.9 -1.8 -35.15 -1.2 L-35.15 -1.15 -32.75 0.75 Q-32.0 1.0 -30.65 2.0 L-26.65 5.1 -26.3 5.5 -19.6 10.05 Q-10.75 15.3 -4.25 17.65 1.25 19.5 6.25 19.65 L6.5 19.65 6.6 19.65 6.85 19.65 9.35 19.55 12.2 19.2 15.8 18.55 18.45 18.25 24.0 16.5 Q27.95 15.0 30.5 13.25 L30.6 13.4 31.35 12.7 Q32.25 11.55 32.55 10.5 33.15 8.9 34.75 6.45 L37.8 2.8 Q39.1 0.8 40.55 -0.7 L40.9 -2.7 Q40.9 -3.65 40.3 -4.15 L41.3 -6.35 Q42.1 -8.5 37.05 -13.7 31.95 -18.95 29.75 -19.0 27.55 -19.1 24.55 -18.2 L24.0 -18.05 Q21.4 -17.3 20.05 -17.3 15.9 -17.3 12.2 -18.25 M16.7 -20.6 L22.8 -21.4 24.0 -21.65 27.25 -22.1 Q31.3 -22.1 37.45 -15.05 43.05 -8.6 43.05 -6.3 L43.05 -6.0 43.95 -4.35 44.4 -3.8 44.5 -3.15 44.6 -2.95 44.5 -1.8 44.5 -1.65 44.6 -1.2 44.6 -0.9 44.6 -0.15 Q44.4 0.6 43.55 0.75 L43.0 1.35 Q40.65 3.8 39.35 5.55 L38.35 7.75 36.5 10.4 34.8 11.85 33.05 14.55 Q31.2 17.3 30.25 17.3 L29.9 17.45 29.95 17.65 28.1 18.7 25.7 19.65 24.0 20.1 16.75 21.55 12.2 21.95 7.45 22.5 6.5 22.6 0.05 22.9 Q0.1 22.7 0.8 22.6 -2.95 22.3 -5.65 20.85 L-7.05 20.05 -7.6 19.8 Q-13.3 15.95 -21.15 11.75 L-23.9 9.8 -27.2 7.9 Q-28.95 6.8 -30.9 5.2 L-33.95 2.65 -35.05 1.85 -37.6 -0.3 -38.35 -1.0 -38.5 -1.65 -38.85 -2.7 -38.65 -3.55 Q-38.55 -5.5 -37.2 -5.9 L-36.4 -6.0 -35.65 -6.55 -35.0 -6.3 -34.4 -6.4 -34.3 -6.5 -29.65 -9.65 -21.2 -14.75 -11.1 -19.9 -2.9 -23.9 -2.75 -23.85 -2.3 -24.4 1.35 -24.7 Q3.85 -24.85 6.5 -23.45 L7.65 -22.8 Q9.6 -21.55 12.2 -21.0 L16.7 -20.6 M7.95 -11.05 L12.2 -10.9 20.8 -11.1 24.0 -10.75 24.9 -10.35 25.7 -8.75 Q26.8 -6.4 29.35 -2.1 L29.25 -1.8 29.4 -1.75 29.55 -1.65 28.95 -0.25 27.3 -0.25 27.05 -0.25 24.35 0.0 24.0 0.05 12.7 1.2 12.2 1.15 6.5 0.5 -18.9 -1.9 -19.0 -1.9 -20.25 -1.65 -20.75 -2.3 -21.1 -2.7 -20.45 -2.9 Q-7.1 -11.35 -3.85 -12.75 L3.75 -12.05 5.35 -11.4 6.5 -11.15 7.95 -11.05 M2.3 -10.45 L-3.1 -11.4 -15.95 -4.35 -15.55 -4.25 -15.2 -3.55 -15.95 -2.95 -4.45 -2.55 3.25 -1.45 6.5 -1.0 11.55 -0.45 12.2 -0.45 19.85 -1.2 24.0 -1.7 25.9 -1.9 Q26.15 -3.75 26.0 -4.8 L25.55 -5.85 24.05 -8.3 24.0 -8.5 23.9 -8.8 22.9 -9.5 13.8 -9.4 12.2 -9.4 6.5 -9.7 2.3 -10.45 M27.05 -2.4 L27.3 -2.4 27.05 -2.7 27.05 -2.4 M-18.15 -3.0 L-18.15 -3.05 -18.2 -3.0 -18.15 -3.0" fill="#000000" fill-opacity="0.4" fill-rule="evenodd" stroke="none"/>
    <path d="M21.5 3.65 L22.55 3.95 22.75 4.1 22.5 4.2 Q21.15 4.25 19.95 4.8 L19.1 5.0 17.75 4.85 18.0 4.75 18.6 4.45 19.0 4.2 20.1 3.85 20.45 3.7 20.5 3.6 21.5 3.65 M12.25 4.6 L12.2 4.6 10.35 4.6 4.65 4.2 1.35 4.05 Q-5.15 3.85 -4.55 2.0 L-4.5 1.85 1.35 2.55 4.85 3.1 10.75 3.9 Q11.65 4.0 12.2 4.55 L12.25 4.6" fill="#ffffff" fill-rule="evenodd" stroke="none"/>
  </g>
  <defs>
    <radialGradient cx="0" cy="0" gradientTransform="matrix(0.0489, 0.0, 0.0, 0.0489, 2.55, -1.2)" gradientUnits="userSpaceOnUse" id="gradient0" r="819.2" spreadMethod="pad">
      <stop offset="0.0" stop-color="#eea2a2"/>
      <stop offset="1.0" stop-color="#602e28"/>
    </radialGradient>
  </defs>
</svg>
