<?xml version="1.0" encoding="UTF-8" standalone="no"?>
<svg xmlns:xlink="http://www.w3.org/1999/xlink" height="330.95px" width="655.95px" xmlns="http://www.w3.org/2000/svg">
  <g transform="matrix(1.0, 0.0, 0.0, 1.0, 208.0, 173.2)">
    <path d="M276.5 -162.2 L276.5 -173.2 292.5 -162.5 292.5 -162.2 445.45 -162.2 447.45 153.75 292.5 153.3 292.5 157.75 275.5 157.75 275.55 153.25 276.5 -162.2 292.5 -162.2 276.5 -162.2 M-32.5 152.3 L-32.5 157.75 -49.5 157.75 -49.45 152.25 -206.5 151.75 -204.5 -162.2 -48.5 -162.2 -48.5 -173.2 -32.5 -162.5 -32.5 -162.2 -48.5 -162.2 -32.5 -162.2 -32.5 152.3 -49.45 152.25 -32.5 152.3 M292.5 153.3 L275.55 153.25 292.5 153.3" fill="#000000" fill-rule="evenodd" stroke="none"/>
    <path d="M292.5 -162.2 L445.45 -162.2 447.45 153.75 292.5 153.3 275.55 153.25 -32.5 152.3 -49.45 152.25 -206.5 151.75 -204.5 -162.2 -207.5 -162.2 M292.5 -162.2 L276.5 -162.2 -32.5 -162.2 -48.5 -162.2 -204.5 -162.2 -204.5 -167.2" fill="none" stroke="#990000" stroke-linecap="round" stroke-linejoin="round" stroke-width="1.0"/>
  </g>
</svg>
