<?xml version="1.0" encoding="UTF-8" standalone="no"?>
<svg xmlns:xlink="http://www.w3.org/1999/xlink" height="509.1px" width="658.25px" xmlns="http://www.w3.org/2000/svg">
  <g transform="matrix(1.0, 0.0, 0.0, 1.0, 6.7, 84.5)">
    <path d="M41.35 90.75 L41.25 90.75 41.35 90.5 41.35 90.75" fill="#000000" fill-rule="evenodd" stroke="none"/>
    <path d="M593.35 -78.45 L596.85 -79.1 598.35 -78.4 Q599.8 -77.75 600.1 -77.75 601.8 -77.75 602.05 -77.35 602.25 -77.1 603.35 -77.0 L604.6 -75.75 Q605.55 -74.7 608.5 -73.1 611.1 -71.75 619.25 -70.75 621.15 -70.45 622.25 -69.35 623.0 -68.6 628.5 -68.6 L644.6 -67.75 Q645.95 -61.2 646.85 -53.8 643.3 -54.25 638.4 -55.5 631.5 -57.25 630.25 -58.1 L625.4 -61.85 Q621.45 -64.85 620.1 -64.85 618.85 -64.85 616.55 -63.15 614.2 -61.5 611.35 -61.5 L603.35 -66.0 Q601.9 -66.7 599.0 -69.55 597.2 -71.35 593.6 -71.35 592.15 -71.35 586.4 -67.6 580.7 -63.85 579.35 -63.85 L577.0 -64.45 573.25 -65.0 570.25 -65.35 565.85 -65.75 568.35 -69.0 Q570.45 -70.9 575.85 -72.0 577.55 -72.3 583.95 -74.2 591.0 -76.25 592.5 -77.1 L596.25 -78.7 593.35 -78.45 M42.95 -59.1 L45.85 -56.8 Q48.4 -54.8 50.15 -51.7 L52.5 -47.05 53.5 -44.65 Q54.35 -42.95 55.5 -42.25 58.9 -40.0 61.75 -40.35 63.15 -40.55 65.95 -42.05 68.15 -43.3 69.55 -42.9 71.6 -42.25 74.1 -38.3 75.15 -36.6 76.1 -33.35 L77.5 -28.55 Q77.9 -27.2 81.05 -23.95 84.0 -20.85 84.25 -19.05 84.8 -15.55 87.9 -13.5 89.7 -12.3 93.6 -10.75 L102.4 -9.4 Q111.25 -8.15 114.0 -7.3 L120.45 -4.95 130.0 -4.3 Q130.7 -4.3 132.95 -5.2 135.35 -6.15 135.9 -6.75 L136.0 -6.5 Q135.2 -5.95 135.1 -5.05 L134.7 -3.6 Q133.45 -1.9 124.5 -1.0 L115.7 -0.55 107.5 0.0 104.25 1.2 Q101.15 2.25 97.5 2.25 95.3 2.25 91.25 -1.15 L86.0 -5.5 Q82.05 -7.4 79.8 -9.9 77.6 -12.25 77.5 -14.5 77.4 -16.55 76.6 -19.0 75.7 -21.7 74.35 -23.8 L70.85 -28.25 Q68.2 -31.4 67.5 -33.0 65.4 -37.8 59.0 -37.55 L53.8 -37.4 Q50.85 -37.5 49.0 -38.8 47.1 -40.15 45.85 -43.3 44.65 -46.45 42.6 -47.75 40.85 -48.8 37.6 -48.9 L32.25 -49.25 30.15 -49.75 28.75 -50.75 23.75 -55.55 Q21.4 -57.75 15.8 -59.25 9.95 -60.85 7.6 -62.75 L9.0 -63.0 12.6 -64.3 14.0 -64.55 20.3 -64.85 Q21.65 -64.2 26.25 -66.25 L30.3 -66.1 32.75 -63.55 37.25 -61.95 40.6 -60.8 42.95 -59.1 M454.25 -52.0 L455.05 -52.25 Q455.3 -52.3 456.95 -53.05 458.95 -53.75 461.0 -53.75 461.85 -53.75 462.75 -55.3 463.7 -56.85 465.25 -56.85 468.5 -56.85 473.35 -55.25 477.8 -53.8 483.05 -54.1 488.0 -54.4 489.45 -53.05 491.0 -51.6 494.5 -51.6 495.65 -51.6 509.6 -57.1 511.5 -57.55 513.05 -60.35 514.7 -63.35 516.5 -64.1 514.7 -59.55 513.55 -57.5 511.45 -53.75 508.1 -50.75 506.9 -49.65 502.2 -48.35 L491.6 -45.85 Q486.2 -44.7 483.1 -45.3 480.15 -45.9 475.05 -44.75 L472.45 -43.35 Q470.0 -42.1 468.25 -42.1 466.05 -42.1 465.5 -44.9 L465.0 -48.25 Q462.7 -51.0 461.45 -51.7 458.65 -53.25 454.25 -52.0 M399.0 -0.85 L400.75 -5.55 Q401.75 -8.3 402.8 -10.25 405.25 -14.75 406.2 -15.8 408.55 -18.35 412.75 -18.75 L417.15 -17.85 423.0 -16.25 427.3 -14.5 Q428.9 -13.75 428.95 -13.1 L438.55 -12.75 440.15 -13.1 441.55 -13.5 441.05 -13.1 437.15 -10.4 Q435.05 -9.05 433.25 -8.5 L424.55 -5.9 Q422.05 -5.2 421.05 -4.25 416.4 0.3 410.0 5.3 404.85 9.2 403.3 15.85 L402.25 21.3 Q401.65 24.5 400.75 26.5 399.75 28.6 399.05 31.8 L398.05 37.0 Q397.65 38.85 394.2 42.6 390.5 46.6 390.05 47.8 387.15 55.2 383.4 58.3 L376.75 59.3 369.65 60.25 Q368.65 61.05 367.9 61.3 L365.1 61.8 362.4 62.3 Q361.25 62.85 360.45 63.7 L359.1 65.15 Q356.95 66.75 349.15 67.5 350.35 66.5 355.8 58.8 361.95 51.55 368.15 51.55 374.85 51.55 375.75 50.1 L376.25 48.45 Q376.6 47.25 377.65 46.3 L380.3 43.15 Q382.15 40.65 383.3 39.5 386.85 35.85 388.3 32.3 389.5 29.3 389.5 25.6 L389.0 22.2 388.5 18.8 Q388.5 16.45 391.05 14.25 393.55 12.05 393.55 11.3 L392.55 9.55 Q391.55 8.05 391.55 6.6 391.55 4.5 394.45 3.25 397.9 1.8 399.0 -0.85 M563.55 -37.15 Q563.65 -44.9 563.0 -48.0 L563.0 -48.1 Q563.65 -47.45 565.4 -44.4 567.35 -40.95 567.35 -39.85 567.35 -35.45 573.35 -30.9 581.25 -24.95 583.0 -22.35 L584.95 -17.85 Q586.35 -14.6 588.35 -13.35 589.4 -12.7 596.25 -10.0 L606.0 -5.85 584.35 -7.1 582.0 -7.95 Q580.2 -8.65 579.85 -9.0 L577.0 -11.75 Q575.35 -13.4 574.5 -14.6 L573.65 -15.9 572.85 -17.25 Q572.45 -18.3 570.7 -18.8 568.75 -19.35 568.1 -20.25 L566.0 -23.0 Q564.75 -24.7 564.5 -25.85 563.45 -29.8 563.55 -37.15 M505.95 182.8 Q506.65 182.1 507.1 182.1 L509.95 182.4 Q512.15 182.4 515.25 181.5 516.75 181.05 519.05 177.95 521.5 174.6 523.6 173.6 L524.3 173.65 Q524.5 173.65 524.5 174.4 524.5 176.0 522.9 178.1 L520.5 181.35 Q520.15 182.1 519.55 184.3 L518.5 187.75 Q516.3 192.9 510.0 195.7 504.7 198.0 498.6 198.0 492.6 198.0 489.0 196.45 484.4 194.1 479.5 192.35 L475.85 188.8 Q472.6 185.6 470.75 185.6 467.85 185.6 465.05 187.05 L461.8 188.5 Q459.4 188.5 456.4 186.05 453.4 183.6 452.75 183.6 451.05 183.6 445.4 186.05 L438.55 189.25 Q437.1 189.9 435.95 191.45 L434.25 193.65 Q432.65 196.05 432.05 196.5 L425.25 196.9 Q424.05 196.9 421.5 198.1 419.0 199.25 417.55 199.25 414.9 199.25 410.35 195.55 406.25 191.85 405.85 191.85 404.85 191.85 402.4 192.75 399.9 193.65 397.55 193.65 393.15 193.65 391.55 188.65 390.6 182.85 389.75 181.25 388.0 181.2 387.15 182.15 386.3 183.1 383.05 183.1 379.2 183.1 377.25 180.6 375.35 177.15 373.75 175.25 370.95 171.9 371.55 171.55 372.0 171.25 368.5 167.6 L367.5 165.7 Q366.85 164.5 365.0 164.25 363.25 164.0 361.3 162.8 L358.9 161.1 355.9 159.25 Q354.45 158.25 354.05 157.5 L352.9 155.6 347.45 154.9 341.25 154.6 Q340.1 154.6 335.05 158.0 L330.05 161.35 Q326.5 161.35 324.75 160.35 L321.9 158.75 316.1 159.2 Q310.5 159.8 303.4 158.1 300.7 157.45 297.4 155.0 294.1 152.55 293.65 150.85 L297.85 150.4 302.3 150.1 Q305.4 150.1 308.8 151.7 312.2 153.25 315.05 153.25 319.05 153.25 323.1 150.7 L328.4 146.75 Q329.1 146.25 333.75 143.75 337.25 141.85 338.05 140.6 339.4 138.35 344.95 137.0 351.55 135.35 356.3 138.5 L360.95 142.6 Q364.55 145.1 369.5 145.1 371.35 145.1 373.7 143.7 376.1 142.25 379.8 142.25 384.7 142.25 389.35 145.3 391.95 147.05 396.55 150.85 L399.3 152.75 402.5 155.35 Q403.0 155.85 403.65 157.75 404.3 159.75 405.05 160.6 406.2 161.9 408.1 163.15 410.4 164.6 412.25 164.85 420.95 166.15 423.45 167.15 424.85 167.65 425.5 169.1 427.75 173.8 440.1 176.85 441.7 176.85 446.1 174.0 450.55 171.1 455.8 171.1 460.0 171.1 465.25 174.7 468.75 177.1 470.35 179.0 476.5 186.0 480.35 186.45 L488.35 185.6 Q490.65 185.6 493.0 186.8 495.3 188.0 496.35 188.0 502.2 188.0 503.55 186.55 504.3 185.75 504.85 184.0 L505.95 182.8 M246.55 73.75 L246.3 73.85 Q245.3 72.35 241.35 69.4 L236.9 65.85 235.4 63.6 233.65 61.35 Q231.95 59.6 227.2 59.5 221.65 59.4 220.0 58.6 L213.0 55.2 206.0 51.5 Q203.35 50.05 199.75 49.7 195.2 49.2 193.0 48.5 191.35 47.95 189.6 46.25 L187.65 44.25 Q185.55 42.5 183.55 39.4 L180.75 34.85 Q179.65 33.35 179.05 30.05 L178.0 25.5 Q177.25 23.7 170.4 15.75 165.45 10.05 167.4 6.75 L167.4 6.6 Q169.15 6.65 169.3 8.6 L169.4 11.85 Q170.2 14.55 171.35 15.5 L175.75 17.85 Q177.2 18.6 179.0 20.1 180.8 21.65 181.9 23.1 L184.35 26.5 Q185.85 28.65 186.65 29.25 189.15 31.15 192.35 34.9 195.7 38.95 196.5 41.25 197.05 43.0 199.25 44.35 200.65 45.2 204.0 46.5 204.5 46.7 207.05 46.5 208.75 46.35 210.65 48.6 L212.1 50.25 221.5 51.0 225.75 48.55 Q229.7 46.1 234.65 46.1 236.15 46.1 239.55 52.35 240.05 53.45 240.1 55.9 L240.05 59.5 Q240.1 62.25 242.8 66.85 246.15 72.5 246.55 73.75 M41.35 90.5 Q41.55 90.3 41.55 89.6 L41.05 89.0 40.05 88.1 Q50.2 87.0 55.1 91.25 L58.7 95.1 Q60.85 97.4 63.05 98.5 L64.9 100.2 66.55 101.85 67.1 103.55 Q67.2 104.8 67.5 105.25 68.2 106.45 72.2 108.8 76.6 111.35 79.1 111.35 84.85 110.75 85.75 110.0 L87.7 109.5 90.0 109.1 100.9 107.95 108.0 107.1 Q110.85 107.1 112.85 108.05 114.2 108.7 114.85 109.6 L116.85 112.25 120.05 115.25 122.6 117.85 Q123.25 118.65 124.1 120.4 125.85 122.05 132.25 123.25 133.2 123.4 137.25 125.95 L141.25 128.5 Q142.6 128.5 148.1 126.3 L154.0 124.1 161.8 124.75 Q163.1 125.35 164.0 125.35 L167.9 123.5 Q171.7 121.6 172.5 121.6 L190.25 121.0 196.65 116.65 Q202.6 112.25 206.0 112.25 210.15 112.25 210.9 113.2 211.6 114.1 212.25 114.1 L218.3 113.6 Q223.6 112.95 225.6 111.85 226.3 111.5 228.35 110.95 L232.0 109.75 238.2 107.85 246.5 105.25 247.4 105.25 Q247.75 105.3 247.75 106.1 241.05 114.8 237.25 116.6 L233.1 117.75 Q230.65 118.3 227.75 120.25 225.55 121.7 219.65 122.9 L211.0 124.0 Q204.0 124.1 202.75 124.75 202.45 125.65 201.25 126.1 200.7 126.3 199.85 126.9 L198.5 128.0 196.2 130.55 Q195.05 131.75 193.25 132.6 L185.85 134.35 176.6 136.25 171.95 137.9 Q167.15 139.5 165.0 139.5 L162.55 139.0 160.1 138.5 Q156.75 138.5 154.25 140.1 152.95 140.95 150.4 143.7 145.5 148.85 139.0 148.85 134.8 148.85 132.35 145.55 129.25 141.3 127.75 140.6 122.85 138.7 121.2 137.85 118.55 136.45 117.1 133.25 L116.35 128.9 Q115.45 126.05 110.5 123.85 L94.75 117.0 Q92.7 117.0 90.45 118.45 L88.5 119.85 80.8 119.25 80.0 118.9 79.25 118.5 74.75 118.65 71.75 118.85 Q66.9 118.85 62.5 116.3 58.7 114.15 58.05 112.1 L56.8 108.25 Q55.8 105.05 55.8 103.65 55.8 102.3 54.85 99.55 53.85 96.75 53.05 96.0 51.1 93.55 49.7 92.7 47.5 91.35 41.35 90.75 L41.35 90.5 M86.7 268.95 Q87.85 274.6 87.85 277.6 87.85 278.4 84.1 283.75 80.3 289.1 80.3 290.9 L82.55 296.25 Q84.8 301.2 84.8 304.05 84.8 307.15 83.65 308.8 81.95 311.2 80.8 316.05 80.25 318.4 76.65 322.1 72.5 326.3 69.15 326.3 L67.05 326.05 66.25 324.9 Q66.4 324.6 67.55 323.8 L68.5 322.65 68.15 320.9 67.75 319.3 68.05 317.95 68.25 316.3 67.7 314.9 67.05 313.3 66.75 311.95 66.55 310.3 Q66.55 306.8 68.3 303.1 70.0 299.45 70.0 296.8 L69.5 293.9 Q69.0 291.65 69.0 291.0 69.0 290.0 71.85 285.35 74.6 280.95 75.3 280.4 77.2 279.1 77.3 275.65 77.4 272.4 80.55 270.65 L78.05 266.3 Q76.55 263.75 76.55 261.65 L76.5 257.15 Q76.25 254.7 70.25 253.8 61.85 252.55 58.6 246.9 56.3 240.4 54.5 238.25 L52.65 236.55 50.75 234.75 Q49.0 232.55 48.55 232.7 47.95 232.95 46.3 231.4 45.0 230.15 45.15 227.0 45.3 223.95 43.75 222.75 42.15 221.5 40.95 219.05 39.85 216.8 39.55 214.65 39.3 212.95 36.9 210.2 34.4 207.25 32.75 207.25 32.0 207.25 31.9 207.8 L31.75 208.5 30.9 208.5 Q30.55 208.45 30.55 207.65 30.55 204.9 34.8 205.35 39.1 205.75 41.25 209.0 41.8 211.5 45.45 213.15 L50.55 215.15 52.0 217.0 Q52.75 218.1 55.0 218.75 L60.85 219.85 Q63.8 220.4 65.3 221.65 L68.25 225.0 Q71.0 228.3 71.0 228.75 L71.65 231.25 72.3 233.6 71.8 235.85 Q71.3 237.5 71.3 238.1 71.3 239.4 71.95 240.4 L74.25 243.4 77.05 246.05 Q78.25 247.55 80.0 247.5 82.25 247.45 83.5 248.15 86.2 249.7 86.25 252.7 86.3 254.45 85.8 257.9 85.65 263.6 86.7 268.95 M38.25 381.5 Q42.25 381.5 44.45 382.85 L47.3 384.8 Q48.8 385.35 51.9 387.25 55.3 388.8 60.25 388.25 67.95 387.35 71.2 389.8 73.05 391.15 74.8 394.25 L77.7 396.65 Q80.0 398.5 80.3 399.05 L81.2 401.45 Q81.8 403.25 81.8 404.0 81.8 404.8 82.5 406.4 L83.5 408.8 Q84.3 412.25 84.3 413.3 L84.25 416.0 Q84.6 416.3 83.35 416.3 L81.4 414.65 79.5 412.75 Q78.95 412.2 78.5 410.8 L77.75 408.55 75.85 407.1 Q74.1 405.95 73.55 405.0 71.5 401.5 69.75 401.5 66.95 401.5 61.6 402.8 55.5 404.25 47.55 404.75 46.25 404.8 43.75 406.7 41.25 408.55 39.5 408.55 34.35 408.55 30.1 401.75 26.9 396.65 26.5 393.05 26.05 389.35 22.25 383.9 L16.75 376.55 Q20.3 375.15 25.5 378.95 28.1 380.85 30.5 383.05 33.15 383.05 33.95 382.3 34.75 381.5 38.25 381.5 M104.1 350.45 L97.5 347.5 Q102.5 345.85 109.2 351.3 112.7 354.15 117.1 358.75 118.85 359.5 121.9 362.1 125.45 364.4 131.1 364.8 134.85 365.05 138.7 366.5 142.65 367.95 143.6 369.55 L146.3 376.9 Q147.85 381.3 152.35 384.25 154.3 385.55 155.05 387.65 L156.25 391.75 156.45 393.55 Q156.5 394.85 156.85 395.5 L157.65 396.25 Q158.8 396.95 160.75 397.05 L166.45 396.75 168.5 396.25 175.2 396.8 Q176.2 397.9 177.5 398.25 L182.75 398.7 189.0 398.55 Q191.05 398.55 196.3 400.35 201.35 402.05 203.35 403.3 L203.2 404.0 202.4 404.0 193.35 404.5 Q192.8 404.55 190.2 405.55 187.65 406.5 186.85 406.5 182.65 406.5 179.0 405.3 175.4 404.05 173.1 404.05 171.6 404.05 162.05 407.8 152.55 411.55 145.25 411.55 142.85 411.55 141.95 410.0 L140.85 407.25 Q140.2 406.25 138.7 405.15 L136.5 403.55 Q134.8 402.25 133.8 399.55 L132.6 395.05 131.55 386.4 Q130.9 381.0 128.35 377.8 L126.3 373.4 Q124.8 370.65 121.0 370.0 115.85 369.1 113.9 367.0 L111.1 362.5 Q109.3 359.8 107.6 353.8 107.05 351.75 104.1 350.45" fill="#1a3113" fill-rule="evenodd" stroke="none"/>
    <path d="M122.4 256.15 L122.75 256.35 123.3 256.7 123.65 257.05 124.05 258.15 Q124.2 259.2 123.9 260.1 L123.5 261.15 124.35 261.95 Q124.7 262.8 124.3 264.75 124.5 267.2 127.0 269.4 129.9 271.9 134.55 272.75 138.7 273.5 138.7 276.55 L138.3 281.25 Q139.0 283.7 145.3 286.1 150.75 288.25 153.5 288.25 L157.3 287.8 161.05 287.3 Q163.25 287.3 164.75 294.65 165.45 298.35 165.75 302.15 165.75 307.25 163.15 313.15 160.55 319.05 160.55 322.6 160.55 326.65 163.65 330.65 166.75 334.65 166.75 336.5 L165.75 340.4 Q164.75 344.45 164.75 345.5 L165.8 359.15 165.3 362.25 Q165.4 365.05 168.25 365.05 170.75 365.05 174.45 361.8 178.15 358.5 180.75 358.5 181.75 358.5 182.5 359.25 183.25 359.95 183.25 360.75 L182.6 363.35 Q182.1 365.55 182.75 367.05 184.85 371.75 198.5 371.75 L201.05 371.3 203.55 370.8 209.2 370.5 214.0 368.3 219.85 366.75 Q225.05 365.5 226.0 365.5 227.85 365.5 229.45 366.95 L231.3 368.75 233.55 369.8 Q235.15 370.5 240.0 371.8 242.5 372.5 244.85 373.8 246.15 374.5 247.75 375.55 L249.4 377.35 Q251.15 378.8 254.5 378.8 L259.2 376.2 Q264.25 373.55 266.6 373.55 L269.7 374.05 280.55 375.0 Q280.85 375.0 281.75 375.9 L283.3 377.25 287.15 379.2 290.75 381.0 Q291.55 381.5 296.2 382.35 300.65 383.15 302.25 384.5 305.7 387.35 309.0 389.3 312.05 391.1 315.45 394.15 318.4 396.75 320.25 399.0 322.1 401.25 326.2 404.1 L332.75 408.55 332.55 408.25 332.0 407.6 Q334.35 408.75 338.55 409.6 346.65 411.2 347.0 411.5 L354.35 419.35 Q357.65 422.65 360.1 424.4 L336.8 424.3 240.75 424.5 Q222.6 424.15 124.0 424.15 9.1 424.3 -5.25 424.6 L-5.25 424.4 Q-5.45 373.9 -5.95 343.4 -5.55 326.55 -5.35 294.95 L-5.25 263.8 -5.25 210.75 -5.25 177.35 -5.35 170.6 -5.2 163.85 Q-5.25 160.85 -6.1 158.65 -5.75 131.1 -5.75 121.75 -6.0 -2.7 -6.7 -66.75 L-2.5 -66.55 Q-1.15 -66.55 2.7 -69.15 6.5 -71.8 10.0 -71.8 L13.85 -71.25 Q18.6 -70.7 19.75 -71.3 20.4 -71.65 20.85 -72.5 L23.15 -74.1 Q24.75 -75.0 27.5 -75.0 L37.45 -74.5 37.8 -73.75 Q37.85 -73.05 38.5 -72.5 L41.5 -69.55 Q42.35 -68.55 44.9 -67.6 49.55 -65.9 52.0 -64.75 54.05 -63.8 55.2 -61.35 56.1 -59.5 56.1 -57.8 56.1 -54.35 57.05 -53.1 58.0 -51.9 58.0 -50.75 L57.75 -49.6 Q57.65 -48.55 58.15 -47.75 59.65 -45.3 67.0 -45.3 69.6 -45.3 72.6 -47.0 75.6 -48.75 75.85 -48.75 77.1 -48.75 79.05 -45.25 L81.35 -40.55 Q82.2 -39.05 85.15 -36.35 87.6 -34.1 87.85 -32.5 87.85 -31.95 88.4 -30.0 89.2 -27.15 90.55 -24.8 94.8 -17.25 102.85 -17.25 L105.35 -17.3 107.35 -16.05 110.7 -15.55 113.6 -15.25 Q113.7 -14.95 114.3 -14.55 L115.1 -14.0 Q116.35 -12.65 118.75 -11.45 121.75 -10.0 124.5 -10.0 128.45 -10.0 130.45 -11.95 L133.25 -16.25 Q137.0 -22.55 148.65 -22.55 L151.2 -21.9 153.75 -21.3 156.35 -22.0 159.6 -22.75 Q164.1 -17.6 164.85 -13.5 165.2 -11.6 167.8 -8.95 170.5 -6.15 171.1 -4.05 L171.8 0.55 Q172.2 3.6 173.15 5.25 L174.95 7.1 177.0 8.75 177.6 11.05 Q177.95 13.05 178.4 13.6 179.25 14.7 182.2 15.6 L186.25 17.1 Q187.05 17.6 187.95 19.5 L189.0 22.0 189.9 24.35 Q190.5 25.7 191.4 26.5 L192.85 27.5 Q193.65 27.9 194.9 28.0 L199.35 28.35 Q200.2 28.5 200.4 28.85 L200.5 29.6 200.4 30.35 Q200.4 33.7 202.35 35.85 L206.5 39.1 Q208.55 40.65 212.0 42.35 216.95 44.85 219.9 44.85 221.45 44.85 223.0 43.05 224.95 40.85 225.9 40.35 L226.95 39.4 Q228.3 38.55 230.5 38.85 L234.45 38.8 237.5 38.5 Q238.25 38.5 238.55 38.95 L239.0 39.5 242.6 40.45 242.65 40.6 Q243.25 41.85 245.65 43.6 246.4 44.15 248.05 46.6 249.75 49.15 249.75 50.05 249.75 51.15 248.75 53.8 247.75 56.45 247.75 57.75 L248.35 60.2 Q249.0 62.7 249.65 63.35 L251.65 65.8 Q252.2 66.85 252.25 69.1 252.3 70.4 254.2 71.9 256.45 73.65 256.75 74.25 L258.2 76.95 Q260.4 79.6 264.0 79.6 265.9 79.6 274.0 76.0 L274.65 76.9 275.8 78.0 278.35 78.3 281.15 78.35 Q286.4 79.25 287.8 80.6 288.85 81.6 291.55 81.6 292.75 81.6 293.8 80.75 294.0 80.55 297.8 82.85 L301.85 85.35 308.4 86.0 Q313.7 86.0 315.45 84.4 317.25 82.75 319.65 82.75 L321.6 83.15 322.65 83.35 324.3 81.1 Q325.2 79.3 328.55 77.6 329.95 76.85 333.25 76.5 336.1 75.5 337.15 71.0 337.45 69.75 339.5 66.8 L342.3 62.75 344.9 59.05 Q346.9 56.3 346.9 55.0 L347.1 53.55 Q347.35 52.9 348.3 51.6 349.35 50.15 351.9 49.95 354.15 49.75 354.8 48.1 L355.8 43.85 Q356.5 41.0 357.8 41.0 359.15 41.0 362.9 43.4 366.7 45.75 368.55 45.75 369.6 45.75 372.95 40.6 376.4 35.3 376.4 32.9 L375.85 29.5 374.8 26.35 Q379.35 25.8 381.35 23.8 382.8 22.35 382.8 20.35 382.8 19.2 381.05 15.0 379.25 10.85 379.25 8.9 379.25 6.3 380.05 4.8 381.45 2.0 382.3 -1.0 383.2 -4.25 384.5 -5.8 385.45 -6.95 386.45 -6.8 L388.75 -6.75 Q389.7 -6.95 390.95 -8.05 L392.3 -9.3 Q396.3 -11.5 397.05 -14.5 398.2 -19.0 398.55 -19.5 399.6 -21.05 401.65 -20.85 403.95 -20.6 404.75 -21.3 L406.05 -24.0 407.55 -26.65 Q409.75 -29.0 414.25 -29.0 415.8 -29.0 419.1 -27.2 L419.8 -26.85 419.8 -26.8 423.5 -24.8 Q425.75 -23.7 428.1 -21.2 431.1 -19.25 439.05 -19.25 442.4 -19.25 444.75 -21.8 446.75 -24.0 446.75 -26.15 L446.15 -29.15 445.55 -32.15 Q445.55 -35.45 447.95 -39.95 450.3 -44.4 450.3 -44.8 L450.25 -45.55 450.05 -45.75 Q449.55 -44.15 447.95 -42.25 L445.55 -39.25 Q444.25 -37.0 443.85 -35.35 443.55 -34.15 443.55 -31.9 443.55 -31.25 444.05 -28.95 L444.5 -26.05 Q444.5 -25.0 443.25 -23.8 441.3 -22.0 437.5 -22.0 431.4 -22.0 428.7 -24.1 L426.85 -25.85 Q425.75 -26.85 424.55 -27.25 L423.8 -27.5 Q425.55 -28.8 426.9 -31.05 L429.5 -36.25 435.6 -40.05 Q440.65 -42.9 441.25 -46.35 441.95 -50.75 442.4 -51.5 444.2 -54.65 450.25 -56.1 452.5 -56.65 453.65 -58.45 L455.25 -61.1 Q456.95 -62.95 461.75 -64.1 466.55 -65.25 472.25 -65.25 L473.95 -64.55 Q475.45 -63.85 477.3 -63.85 L481.9 -64.4 Q484.65 -64.6 486.8 -62.6 L488.8 -60.25 Q490.85 -58.85 496.05 -58.85 496.8 -58.85 497.5 -59.3 L498.25 -59.75 501.65 -59.15 503.55 -58.6 Q504.45 -58.6 505.9 -60.4 L508.9 -64.4 Q513.55 -70.25 519.0 -70.25 L525.1 -69.65 Q531.1 -68.75 532.75 -67.25 L534.4 -64.7 535.6 -62.35 Q536.6 -60.7 538.1 -60.25 L548.75 -59.6 Q549.4 -59.6 552.15 -58.1 L555.6 -55.85 Q556.3 -55.15 560.6 -54.35 L565.5 -53.95 Q568.15 -53.85 569.25 -53.25 L571.05 -51.15 Q572.4 -49.25 573.35 -48.6 575.6 -46.9 575.8 -43.6 576.0 -40.05 576.85 -39.1 580.2 -35.45 588.1 -30.85 590.85 -29.25 591.15 -26.05 590.95 -22.45 591.1 -21.1 591.0 -19.9 591.2 -19.1 591.6 -17.55 593.75 -16.85 595.25 -16.3 597.15 -15.05 599.1 -13.75 599.5 -13.6 L604.35 -13.1 Q608.3 -12.8 610.85 -11.0 L613.65 -8.9 Q614.9 -8.15 617.85 -7.75 L617.85 -7.85 613.1 -11.2 Q609.8 -13.4 606.1 -14.1 601.85 -14.9 599.1 -16.6 596.05 -18.45 593.35 -19.1 592.6 -21.35 592.95 -27.05 592.3 -32.15 586.1 -34.6 583.8 -35.5 581.15 -37.85 578.45 -40.3 578.25 -41.75 578.1 -42.8 578.05 -45.95 577.7 -48.75 575.75 -50.0 574.15 -51.0 573.35 -52.5 L572.25 -54.75 Q570.75 -56.9 563.35 -56.35 L560.2 -56.95 Q557.4 -57.8 556.1 -59.1 L554.65 -59.95 555.5 -61.95 556.85 -65.0 Q557.6 -66.25 560.1 -67.9 562.5 -69.5 563.25 -71.0 563.75 -72.0 563.7 -73.15 L563.6 -74.85 Q563.7 -76.4 567.6 -77.35 568.75 -77.6 569.0 -77.95 L569.3 -78.45 Q570.2 -79.05 578.1 -79.75 579.05 -79.8 580.0 -80.95 580.95 -82.0 583.05 -82.0 L585.6 -81.8 590.1 -82.25 Q590.75 -82.4 592.95 -83.5 595.2 -84.5 596.8 -84.5 L600.1 -83.85 603.35 -83.25 Q607.3 -83.25 608.6 -84.0 L613.25 -80.1 616.2 -77.25 Q619.65 -75.35 627.6 -75.35 L635.75 -75.9 Q638.0 -76.05 640.1 -74.5 642.15 -73.0 643.6 -72.2 L644.25 -69.4 Q633.55 -71.35 630.1 -71.35 L626.95 -70.95 624.35 -70.75 619.85 -72.5 614.3 -73.45 Q610.15 -74.25 607.1 -75.85 606.5 -76.15 605.75 -76.95 L604.35 -78.5 603.0 -78.6 601.35 -78.7 603.35 -77.0 Q602.25 -77.1 602.05 -77.35 601.8 -77.75 600.1 -77.75 599.8 -77.75 598.35 -78.4 L596.85 -79.1 593.35 -78.45 593.2 -78.45 591.1 -78.05 588.7 -77.5 588.25 -77.4 587.6 -77.25 582.7 -76.2 Q579.55 -75.5 578.6 -75.0 L575.6 -73.35 572.75 -73.15 Q570.75 -73.0 569.5 -71.75 564.1 -66.35 564.1 -64.25 564.1 -63.7 565.1 -62.6 566.5 -64.0 568.35 -64.0 569.6 -64.0 570.1 -63.3 570.65 -62.6 573.5 -62.6 L575.2 -62.95 576.1 -63.25 578.0 -62.1 Q578.85 -61.6 580.1 -61.6 580.5 -61.6 583.5 -63.15 L587.35 -65.35 590.15 -67.6 Q592.55 -69.5 593.5 -69.5 595.95 -69.5 598.5 -67.25 L601.25 -64.75 606.9 -61.95 Q611.6 -59.6 613.5 -59.6 614.45 -59.6 617.5 -61.3 620.5 -63.0 621.35 -63.0 622.1 -63.0 629.25 -56.6 630.25 -55.8 632.65 -55.2 L636.5 -54.25 Q638.35 -53.6 643.9 -52.7 L647.05 -52.2 647.65 -46.0 Q648.4 -36.75 648.85 -18.85 648.8 -0.85 649.05 8.25 649.35 20.3 651.05 29.85 650.65 31.7 650.65 34.15 L650.85 42.25 Q650.75 45.6 650.8 50.65 L650.85 58.75 650.85 91.75 651.0 152.85 651.0 267.25 Q651.15 283.35 651.55 291.25 L644.1 287.2 Q639.7 284.8 638.9 283.3 637.6 280.75 636.0 275.65 634.3 270.25 633.05 267.55 631.6 264.35 627.25 259.55 622.15 254.0 617.9 252.25 610.45 249.15 606.2 243.9 602.4 239.2 596.05 237.25 594.35 236.7 592.75 235.75 L590.8 234.25 589.65 232.25 588.8 230.5 586.85 226.6 Q585.5 224.2 585.3 222.55 L585.05 218.6 Q584.75 216.15 583.0 214.75 581.6 213.55 577.05 210.75 573.5 208.55 572.5 207.05 571.1 204.95 571.0 199.35 570.95 194.25 568.0 191.3 L562.55 185.75 560.75 185.2 Q558.45 184.9 555.8 184.05 554.75 182.35 553.25 180.8 550.35 177.75 545.5 177.75 541.35 177.75 537.55 179.05 L534.05 179.75 Q531.5 180.2 531.0 180.55 529.25 181.8 526.4 184.45 L522.8 187.8 Q520.4 189.95 518.85 192.9 L516.75 197.45 Q514.4 202.0 507.25 202.0 L501.9 201.4 496.5 200.75 492.45 201.2 488.05 201.5 Q487.6 201.4 486.9 200.85 486.25 200.25 486.0 200.25 483.0 199.65 481.5 198.5 L480.25 197.0 477.45 192.4 Q474.95 189.25 472.0 189.25 469.95 189.25 464.75 190.65 459.55 192.0 455.75 192.0 454.1 192.0 453.5 191.15 452.85 190.25 450.25 190.25 443.95 190.25 437.95 197.15 433.05 204.0 432.1 204.0 L428.45 203.4 424.75 202.75 Q422.1 202.75 420.8 203.9 419.55 205.0 416.55 205.0 410.4 205.0 406.0 200.9 L403.25 198.05 Q401.95 196.75 401.0 196.75 399.35 196.75 397.65 197.65 396.0 198.5 393.85 198.5 389.35 198.5 387.55 193.9 L386.4 190.7 Q385.75 189.25 384.75 189.25 L382.6 189.65 Q381.05 189.8 378.8 188.55 L375.65 187.15 371.55 185.5 Q368.95 184.3 368.3 181.55 L367.75 177.55 Q366.65 173.8 363.0 173.25 356.4 172.25 353.05 170.5 L349.35 166.6 Q345.85 163.0 344.0 163.0 341.35 163.0 335.4 164.9 L330.0 166.8 325.25 167.6 321.0 167.75 313.65 168.35 Q310.1 169.3 306.6 169.3 303.45 169.3 296.55 165.9 L289.5 162.05 Q287.4 161.05 285.4 159.3 283.9 158.1 283.05 157.0 L281.25 158.2 281.4 158.45 Q279.05 159.95 277.2 163.2 276.6 164.15 274.4 168.85 272.6 172.75 270.5 174.35 269.5 175.1 266.5 175.9 262.95 176.9 260.75 178.0 258.95 178.9 258.85 180.4 258.65 182.75 258.25 183.5 L257.6 185.1 Q257.25 185.9 256.15 186.3 253.5 187.3 240.5 188.25 238.6 188.35 237.0 190.05 L234.0 192.85 Q233.2 193.25 231.25 195.0 230.3 195.9 226.3 196.55 L220.4 197.1 219.25 196.45 Q218.25 195.75 217.25 195.75 214.25 195.75 213.85 197.45 213.0 200.65 211.25 202.5 L207.45 206.2 Q203.6 209.0 198.4 209.0 193.35 209.0 192.35 207.5 191.95 205.65 190.65 204.85 189.55 204.15 186.65 204.5 L183.6 205.0 180.6 204.15 Q178.55 203.25 176.5 203.25 173.5 203.25 167.8 206.15 162.15 209.0 160.6 209.0 L145.85 208.7 144.75 208.9 145.4 209.55 145.55 209.9 Q145.15 211.8 143.05 212.05 L135.3 213.15 133.7 213.3 133.3 212.9 133.05 212.5 132.75 211.75 132.55 211.05 132.55 210.65 132.5 210.7 Q133.5 207.4 135.65 201.55 L140.1 189.5 Q140.35 185.4 141.05 183.15 142.3 179.05 148.0 177.6 160.0 174.15 161.5 173.1 L164.95 170.3 168.5 167.6 Q171.75 165.55 178.1 162.6 184.25 159.75 185.0 159.25 188.2 156.9 191.1 153.15 L195.65 147.0 Q196.7 145.75 198.75 144.45 199.9 143.7 202.5 142.1 207.8 138.6 209.25 136.85 L211.85 133.95 214.4 130.75 215.95 127.4 216.3 126.95 214.65 127.35 Q209.35 128.9 206.4 130.85 197.75 136.25 195.5 138.25 193.8 139.7 188.85 141.9 L181.1 145.1 Q179.8 145.65 173.55 146.9 L167.0 148.1 Q165.15 148.4 163.7 149.4 L161.5 151.1 158.85 153.4 156.35 155.85 Q155.45 157.0 153.95 157.85 L150.6 159.85 Q149.6 160.6 147.3 161.6 L144.0 163.0 Q141.5 164.05 139.5 164.35 137.7 164.65 136.0 165.5 L135.4 165.45 Q135.25 165.4 135.25 164.65 L135.3 164.35 Q131.15 164.1 126.8 161.4 L124.1 167.35 120.1 175.25 115.9 182.25 Q113.6 186.4 113.25 189.1 112.45 194.55 109.0 203.2 L104.15 215.55 107.5 217.05 Q113.75 219.75 113.75 225.85 113.75 226.8 114.4 228.55 L115.5 231.3 115.95 233.75 Q116.1 235.5 116.5 236.25 117.6 238.3 120.5 240.95 122.5 242.8 122.5 245.25 122.5 247.1 119.85 250.5 116.6 254.65 116.05 256.0 116.7 256.6 120.4 257.65 120.5 256.25 122.05 256.1 L122.05 256.05 122.25 256.15 122.3 256.15 122.4 256.15 M404.5 -17.5 Q403.3 -14.05 402.05 -12.6 400.7 -11.05 399.65 -7.85 398.4 -4.2 397.55 -2.85 395.5 0.35 391.95 2.45 389.55 3.9 389.55 6.35 L389.65 9.05 Q389.95 10.8 391.05 11.5 388.8 13.4 387.85 14.85 386.75 16.55 386.75 18.55 L387.25 21.95 387.75 25.35 Q387.75 29.85 386.5 32.3 385.25 34.8 380.4 39.8 377.05 43.3 374.15 47.3 372.35 49.7 369.45 49.8 L366.55 49.5 362.95 50.65 Q360.6 51.55 360.15 51.8 356.35 54.0 353.35 58.95 349.85 64.75 348.4 66.05 344.95 69.15 341.85 74.1 L337.8 80.6 339.3 80.85 Q340.85 76.4 344.3 74.85 345.05 74.5 347.4 71.85 349.8 69.4 352.0 69.3 L356.3 68.75 Q358.9 67.65 361.05 65.75 362.3 64.55 365.05 63.85 L368.55 63.05 377.5 61.45 Q383.65 60.6 385.8 58.5 387.85 56.5 389.8 52.0 391.75 47.45 393.5 45.75 399.9 39.15 400.5 33.5 400.75 31.05 402.15 26.9 L404.5 20.75 405.9 14.35 Q406.8 10.35 409.8 8.0 L423.25 -3.35 Q424.9 -4.8 429.0 -5.65 433.7 -6.6 436.5 -8.25 L441.7 -11.35 Q444.8 -13.45 444.8 -14.65 L444.7 -15.45 Q444.55 -15.4 444.3 -15.6 L431.8 -14.35 424.5 -17.85 Q416.95 -21.25 412.55 -20.85 406.4 -20.3 404.5 -17.5 M52.85 -50.8 Q51.2 -54.1 44.6 -60.25 42.95 -61.8 38.4 -63.95 32.9 -66.55 31.75 -67.3 L30.85 -68.65 Q29.55 -69.7 26.5 -69.0 25.45 -68.75 25.75 -68.55 L26.15 -68.3 15.0 -67.55 11.05 -66.0 Q7.35 -64.5 5.35 -64.5 L-0.7 -64.8 -3.75 -62.8 Q-3.25 -62.3 -3.05 -61.65 L-2.8 -60.55 -2.25 -60.55 Q-1.7 -61.8 1.5 -62.0 L4.75 -62.0 Q5.5 -62.0 6.9 -61.0 L9.35 -59.05 14.45 -57.35 19.6 -55.8 Q21.55 -55.0 25.1 -51.2 28.25 -47.75 31.75 -47.05 L37.65 -46.35 Q42.55 -45.5 43.75 -43.3 45.15 -39.8 46.1 -38.5 47.75 -36.2 50.55 -35.6 L55.9 -35.3 Q63.1 -35.5 65.5 -31.75 66.25 -30.55 69.1 -27.3 71.75 -24.3 72.5 -22.8 L74.55 -17.85 Q75.25 -15.6 75.5 -13.05 75.7 -10.75 78.35 -7.9 80.8 -5.25 83.5 -4.0 L90.35 1.15 Q94.55 4.5 99.0 4.5 L102.45 4.1 104.35 3.2 Q107.9 1.9 122.5 2.0 L129.5 1.9 Q132.05 1.4 135.0 -1.55 136.4 -2.95 138.55 -7.3 140.5 -11.25 140.5 -12.0 L140.25 -12.85 139.5 -13.0 137.45 -11.75 135.6 -10.25 Q135.0 -9.3 133.65 -8.45 131.0 -6.8 126.4 -6.8 121.55 -6.8 117.7 -8.2 L114.1 -9.8 110.15 -10.8 106.0 -11.55 Q102.05 -12.55 99.4 -12.25 97.15 -12.0 93.1 -13.3 88.8 -14.7 87.45 -17.1 86.5 -20.2 85.6 -22.0 84.7 -23.8 81.25 -26.8 79.9 -27.95 79.45 -29.65 79.15 -30.55 79.0 -32.05 77.2 -39.15 73.5 -41.75 70.5 -43.8 63.85 -42.85 58.0 -42.0 55.1 -45.55 54.35 -46.5 53.75 -48.2 L52.85 -50.8 M561.65 -45.85 L561.75 -42.85 561.85 -32.0 562.55 -26.5 Q563.25 -23.35 565.25 -21.1 567.3 -18.7 569.25 -17.65 L571.25 -16.35 572.7 -13.55 Q573.55 -11.8 575.25 -10.75 576.15 -10.2 577.85 -8.0 578.9 -6.65 582.6 -5.85 592.2 -3.8 593.75 -5.65 594.95 -7.15 604.85 -4.1 606.15 -3.7 608.75 -2.5 610.55 -1.65 611.5 -1.75 L611.85 -2.5 Q611.8 -3.8 608.95 -5.9 L604.85 -8.85 Q602.4 -10.9 599.6 -11.35 L594.5 -12.3 Q593.1 -12.65 591.25 -13.6 586.95 -15.75 585.5 -19.95 583.7 -25.25 581.75 -27.1 L574.0 -33.2 Q568.95 -37.25 568.85 -39.85 565.8 -53.05 559.75 -48.75 561.25 -47.95 561.65 -45.85 M453.9 -54.1 Q452.3 -53.45 452.3 -52.0 452.3 -50.5 453.45 -50.2 L456.3 -50.2 Q461.15 -50.4 463.25 -47.1 463.4 -45.1 464.05 -43.4 465.3 -40.1 468.55 -40.1 470.25 -40.1 472.5 -41.55 474.7 -43.0 475.8 -43.0 L494.3 -44.0 Q497.25 -44.6 503.25 -46.35 506.7 -47.05 508.35 -48.2 L511.85 -51.6 Q514.7 -54.6 516.6 -58.25 518.5 -62.0 518.5 -64.75 518.5 -68.95 514.8 -65.25 L510.6 -60.25 Q510.0 -59.65 506.8 -58.4 L503.25 -57.0 Q502.0 -56.35 497.85 -54.95 493.4 -53.5 492.35 -53.5 491.05 -53.5 489.05 -55.05 487.3 -56.4 483.05 -55.85 474.05 -54.7 472.4 -56.3 L471.55 -57.6 Q471.05 -58.25 469.55 -58.25 L463.25 -58.05 Q463.8 -57.55 463.25 -57.0 462.85 -56.6 462.0 -56.35 L459.8 -55.75 453.9 -54.1 M505.95 182.8 L504.85 184.0 Q504.3 185.75 503.55 186.55 502.2 188.0 496.35 188.0 495.3 188.0 493.0 186.8 490.65 185.6 488.35 185.6 L480.35 186.45 Q476.5 186.0 470.35 179.0 468.75 177.1 465.25 174.7 460.0 171.1 455.8 171.1 450.55 171.1 446.1 174.0 441.7 176.85 440.1 176.85 427.75 173.8 425.5 169.1 424.85 167.65 423.45 167.15 420.95 166.15 412.25 164.85 410.4 164.6 408.1 163.15 406.2 161.9 405.05 160.6 404.3 159.75 403.65 157.75 403.0 155.85 402.5 155.35 L399.3 152.75 396.55 150.85 Q391.95 147.05 389.35 145.3 384.7 142.25 379.8 142.25 376.1 142.25 373.7 143.7 371.35 145.1 369.5 145.1 364.55 145.1 360.95 142.6 L356.3 138.5 Q351.55 135.35 344.95 137.0 339.4 138.35 338.05 140.6 337.25 141.85 333.75 143.75 329.1 146.25 328.4 146.75 L323.1 150.7 Q319.05 153.25 315.05 153.25 312.2 153.25 308.8 151.7 305.4 150.1 302.3 150.1 L297.85 150.4 293.65 150.85 Q294.1 152.55 297.4 155.0 300.7 157.45 303.4 158.1 310.5 159.8 316.1 159.2 L321.9 158.75 324.75 160.35 Q326.5 161.35 330.05 161.35 L335.05 158.0 Q340.1 154.6 341.25 154.6 L347.45 154.9 352.9 155.6 354.05 157.5 Q354.45 158.25 355.9 159.25 L358.9 161.1 361.3 162.8 Q363.25 164.0 365.0 164.25 366.85 164.5 367.5 165.7 L368.5 167.6 Q372.0 171.25 371.55 171.55 370.95 171.9 373.75 175.25 375.35 177.15 377.25 180.6 379.2 183.1 383.05 183.1 386.3 183.1 387.15 182.15 388.0 181.2 389.75 181.25 390.6 182.85 391.55 188.65 393.15 193.65 397.55 193.65 399.9 193.65 402.4 192.75 404.85 191.85 405.85 191.85 406.25 191.85 410.35 195.55 414.9 199.25 417.55 199.25 419.0 199.25 421.5 198.1 424.05 196.9 425.25 196.9 L432.05 196.5 Q432.65 196.05 434.25 193.65 L435.95 191.45 Q437.1 189.9 438.55 189.25 L445.4 186.05 Q451.05 183.6 452.75 183.6 453.4 183.6 456.4 186.05 459.4 188.5 461.8 188.5 L465.05 187.05 Q467.85 185.6 470.75 185.6 472.6 185.6 475.85 188.8 L479.5 192.35 Q484.4 194.1 489.0 196.45 492.6 198.0 498.6 198.0 504.7 198.0 510.0 195.7 516.3 192.9 518.5 187.75 L519.55 184.3 Q520.15 182.1 520.5 181.35 L522.9 178.1 Q524.5 176.0 524.5 174.4 524.5 173.65 524.3 173.65 L523.6 173.6 Q521.5 174.6 519.05 177.95 516.75 181.05 515.25 181.5 512.15 182.4 509.95 182.4 L507.1 182.1 Q506.65 182.1 505.95 182.8 M245.05 75.25 Q245.8 75.85 247.35 77.95 248.25 79.15 250.55 79.85 251.4 79.0 251.4 77.8 251.4 76.55 247.45 70.75 243.25 64.55 242.55 60.85 242.25 59.25 242.35 56.35 L242.3 51.85 Q242.2 50.35 240.0 47.65 236.95 44.0 233.0 44.0 229.8 44.0 225.6 46.4 221.4 48.75 218.4 48.75 L212.8 48.3 Q212.95 47.5 212.25 46.85 210.7 45.35 208.3 45.25 205.6 45.2 204.15 44.25 L200.35 41.8 Q198.65 40.6 198.25 39.35 197.25 36.45 193.8 32.8 191.1 30.0 187.9 27.6 L182.25 21.75 Q178.1 17.2 173.75 14.85 171.8 13.8 170.95 11.6 L170.15 8.5 Q170.0 6.0 168.45 5.5 165.45 4.4 164.75 3.85 L164.65 3.7 Q164.5 3.65 164.5 4.4 L165.1 6.85 165.65 9.5 Q165.65 13.4 166.4 14.75 167.55 16.9 170.55 20.35 L174.4 24.85 Q175.4 26.05 176.3 29.65 177.3 33.65 178.0 34.85 L181.7 40.45 Q183.55 42.95 186.25 45.75 L188.45 48.6 Q190.05 50.3 192.65 50.6 199.65 51.35 203.2 52.6 205.05 53.25 206.0 54.0 209.65 55.85 213.0 57.75 L217.15 60.1 Q219.75 60.95 228.5 61.35 230.8 61.45 234.0 64.8 L239.9 70.75 Q241.55 71.95 242.85 73.2 L245.05 75.25 M41.35 90.75 Q47.5 91.35 49.7 92.7 51.1 93.55 53.05 96.0 53.85 96.75 54.85 99.55 55.8 102.3 55.8 103.65 55.8 105.05 56.8 108.25 L58.05 112.1 Q58.7 114.15 62.5 116.3 66.9 118.85 71.75 118.85 L74.75 118.65 79.25 118.5 80.0 118.9 80.8 119.25 88.5 119.85 90.45 118.45 Q92.7 117.0 94.75 117.0 L110.5 123.85 Q115.45 126.05 116.35 128.9 L117.1 133.25 Q118.55 136.45 121.2 137.85 122.85 138.7 127.75 140.6 129.25 141.3 132.35 145.55 134.8 148.85 139.0 148.85 145.5 148.85 150.4 143.7 152.95 140.95 154.25 140.1 156.75 138.5 160.1 138.5 L162.55 139.0 165.0 139.5 Q167.15 139.5 171.95 137.9 L176.6 136.25 185.85 134.35 193.25 132.6 Q195.05 131.75 196.2 130.55 L198.5 128.0 199.85 126.9 Q200.7 126.3 201.25 126.1 202.45 125.65 202.75 124.75 204.0 124.1 211.0 124.0 L219.65 122.9 Q225.55 121.7 227.75 120.25 230.65 118.3 233.1 117.75 L237.25 116.6 Q241.05 114.8 247.75 106.1 247.75 105.3 247.4 105.25 L246.5 105.25 238.2 107.85 232.0 109.75 228.35 110.95 Q226.3 111.5 225.6 111.85 223.6 112.95 218.3 113.6 L212.25 114.1 Q211.6 114.1 210.9 113.2 210.15 112.25 206.0 112.25 202.6 112.25 196.65 116.65 L190.25 121.0 172.5 121.6 Q171.7 121.6 167.9 123.5 L164.0 125.35 Q163.1 125.35 161.8 124.75 L154.0 124.1 148.1 126.3 Q142.6 128.5 141.25 128.5 L137.25 125.95 Q133.2 123.4 132.25 123.25 125.85 122.05 124.1 120.4 123.25 118.65 122.6 117.85 L120.05 115.25 116.85 112.25 114.85 109.6 Q114.2 108.7 112.85 108.05 110.85 107.1 108.0 107.1 L100.9 107.95 90.0 109.1 87.7 109.5 85.75 110.0 Q84.85 110.75 79.1 111.35 76.6 111.35 72.2 108.8 68.2 106.45 67.5 105.25 67.2 104.8 67.1 103.55 L66.55 101.85 64.9 100.2 63.05 98.5 Q60.85 97.4 58.7 95.1 L55.1 91.25 Q50.2 87.0 40.05 88.1 L41.05 89.0 41.55 89.6 Q41.55 90.3 41.35 90.5 L41.25 90.75 41.35 90.75 M86.7 268.95 Q85.65 263.6 85.8 257.9 86.3 254.45 86.25 252.7 86.2 249.7 83.5 248.15 82.25 247.45 80.0 247.5 78.25 247.55 77.05 246.05 L74.25 243.4 71.95 240.4 Q71.3 239.4 71.3 238.1 71.3 237.5 71.8 235.85 L72.3 233.6 71.65 231.25 71.0 228.75 Q71.0 228.3 68.25 225.0 L65.3 221.65 Q63.8 220.4 60.85 219.85 L55.0 218.75 Q52.75 218.1 52.0 217.0 L50.55 215.15 45.45 213.15 Q41.8 211.5 41.25 209.0 39.1 205.75 34.8 205.35 30.55 204.9 30.55 207.65 30.55 208.45 30.9 208.5 L31.75 208.5 31.9 207.8 Q32.0 207.25 32.75 207.25 34.4 207.25 36.9 210.2 39.3 212.95 39.55 214.65 39.85 216.8 40.95 219.05 42.15 221.5 43.75 222.75 45.3 223.95 45.15 227.0 45.0 230.15 46.3 231.4 47.95 232.95 48.55 232.7 49.0 232.55 50.75 234.75 L52.65 236.55 54.5 238.25 Q56.3 240.4 58.6 246.9 61.85 252.55 70.25 253.8 76.25 254.7 76.5 257.15 L76.55 261.65 Q76.55 263.75 78.05 266.3 L80.55 270.65 Q77.4 272.4 77.3 275.65 77.2 279.1 75.3 280.4 74.6 280.95 71.85 285.35 69.0 290.0 69.0 291.0 69.0 291.65 69.5 293.9 L70.0 296.8 Q70.0 299.45 68.3 303.1 66.55 306.8 66.55 310.3 L66.75 311.95 67.05 313.3 67.7 314.9 68.25 316.3 68.05 317.95 67.75 319.3 68.15 320.9 68.5 322.65 67.55 323.8 Q66.4 324.6 66.25 324.9 L67.05 326.05 69.15 326.3 Q72.5 326.3 76.65 322.1 80.25 318.4 80.8 316.05 81.95 311.2 83.65 308.8 84.8 307.15 84.8 304.05 84.8 301.2 82.55 296.25 L80.3 290.9 Q80.3 289.1 84.1 283.75 87.85 278.4 87.85 277.6 87.85 274.6 86.7 268.95 M104.1 350.45 Q107.05 351.75 107.6 353.8 109.3 359.8 111.1 362.5 L113.9 367.0 Q115.85 369.1 121.0 370.0 124.8 370.65 126.3 373.4 L128.35 377.8 Q130.9 381.0 131.55 386.4 L132.6 395.05 133.8 399.55 Q134.8 402.25 136.5 403.55 L138.7 405.15 Q140.2 406.25 140.85 407.25 L141.95 410.0 Q142.85 411.55 145.25 411.55 152.55 411.55 162.05 407.8 171.6 404.05 173.1 404.05 175.4 404.05 179.0 405.3 182.65 406.5 186.85 406.5 187.65 406.5 190.2 405.55 192.8 404.55 193.35 404.5 L202.4 404.0 203.2 404.0 203.35 403.3 Q201.35 402.05 196.3 400.35 191.05 398.55 189.0 398.55 L182.75 398.7 177.5 398.25 Q176.2 397.9 175.2 396.8 L168.5 396.25 166.45 396.75 160.75 397.05 Q158.8 396.95 157.65 396.25 L156.85 395.5 Q156.5 394.85 156.45 393.55 L156.25 391.75 155.05 387.65 Q154.3 385.55 152.35 384.25 147.85 381.3 146.3 376.9 L143.6 369.55 Q142.65 367.95 138.7 366.5 134.85 365.05 131.1 364.8 125.45 364.4 121.9 362.1 118.85 359.5 117.1 358.75 112.7 354.15 109.2 351.3 102.5 345.85 97.5 347.5 L104.1 350.45 M38.25 381.5 Q34.75 381.5 33.95 382.3 33.15 383.05 30.5 383.05 28.1 380.85 25.5 378.95 20.3 375.15 16.75 376.55 L22.25 383.9 Q26.05 389.35 26.5 393.05 26.9 396.65 30.1 401.75 34.35 408.55 39.5 408.55 41.25 408.55 43.75 406.7 46.25 404.8 47.55 404.75 55.5 404.25 61.6 402.8 66.95 401.5 69.75 401.5 71.5 401.5 73.55 405.0 74.1 405.95 75.85 407.1 L77.75 408.55 78.5 410.8 Q78.95 412.2 79.5 412.75 L81.4 414.65 83.35 416.3 Q84.6 416.3 84.25 416.0 L84.3 413.3 Q84.3 412.25 83.5 408.8 L82.5 406.4 Q81.8 404.8 81.8 404.0 81.8 403.25 81.2 401.45 L80.3 399.05 Q80.0 398.5 77.7 396.65 L74.8 394.25 Q73.05 391.15 71.2 389.8 67.95 387.35 60.25 388.25 55.3 388.8 51.9 387.25 48.8 385.35 47.3 384.8 L44.45 382.85 Q42.25 381.5 38.25 381.5" fill="url(#gradient0)" fill-rule="evenodd" stroke="none"/>
    <path d="M122.4 256.15 L122.3 256.15 122.35 255.85 122.4 256.15" fill="url(#gradient1)" fill-rule="evenodd" stroke="none"/>
    <path d="M122.3 256.15 L122.25 256.15 122.35 255.85 122.3 256.15" fill="url(#gradient2)" fill-rule="evenodd" stroke="none"/>
    <path d="M122.25 256.15 L122.05 256.05 122.05 256.1 Q120.5 256.25 120.4 257.65 116.7 256.6 116.05 256.0 116.6 254.65 119.85 250.5 122.5 247.1 122.5 245.25 122.5 242.8 120.5 240.95 117.6 238.3 116.5 236.25 116.1 235.5 115.95 233.75 L115.5 231.3 114.4 228.55 Q113.75 226.8 113.75 225.85 113.75 219.75 107.5 217.05 L104.15 215.55 109.0 203.2 Q112.45 194.55 113.25 189.1 113.6 186.4 115.9 182.25 L120.1 175.25 124.1 167.35 126.8 161.4 Q131.15 164.1 135.3 164.35 L135.25 164.65 Q135.25 165.4 135.4 165.45 L136.0 165.5 Q137.7 164.65 139.5 164.35 141.5 164.05 144.0 163.0 L147.3 161.6 Q149.6 160.6 150.6 159.85 L153.95 157.85 Q155.45 157.0 156.35 155.85 L158.85 153.4 161.5 151.1 163.7 149.4 Q165.15 148.4 167.0 148.1 L173.55 146.9 Q179.8 145.65 181.1 145.1 L188.85 141.9 Q193.8 139.7 195.5 138.25 197.75 136.25 206.4 130.85 209.35 128.9 214.65 127.35 L216.3 126.95 215.95 127.4 214.4 130.75 211.85 133.95 209.25 136.85 Q207.8 138.6 202.5 142.1 199.9 143.7 198.75 144.45 196.7 145.75 195.65 147.0 L191.1 153.15 Q188.2 156.9 185.0 159.25 184.25 159.75 178.1 162.6 171.75 165.55 168.5 167.6 L164.95 170.3 161.5 173.1 Q160.0 174.15 148.0 177.6 142.3 179.05 141.05 183.15 140.35 185.4 140.1 189.5 L135.65 201.55 Q133.5 207.4 132.5 210.7 131.6 213.65 131.6 214.6 L130.7 219.3 Q129.75 223.6 129.75 224.75 L129.7 230.0 Q129.5 233.05 128.85 235.25 L127.55 240.25 126.0 245.35 Q122.35 255.0 122.35 255.85 L122.25 256.15" fill="url(#gradient3)" fill-rule="evenodd" stroke="none"/>
  </g>
  <defs>
    <radialGradient cx="0" cy="0" gradientTransform="matrix(0.8695, 0.0, 0.0, 0.8695, 272.1, 216.05)" gradientUnits="userSpaceOnUse" id="gradient0" r="819.2" spreadMethod="pad">
      <stop offset="0.0" stop-color="#121a07"/>
      <stop offset="1.0" stop-color="#1a1e2b"/>
    </radialGradient>
    <linearGradient gradientTransform="matrix(0.0685, 0.0, 0.0, 0.0798, 160.2, 192.3)" gradientUnits="userSpaceOnUse" id="gradient1" spreadMethod="pad" x1="-819.2" x2="819.2">
      <stop offset="0.0" stop-color="#181512"/>
      <stop offset="1.0" stop-color="#433f3d"/>
    </linearGradient>
    <linearGradient gradientTransform="matrix(-0.0085, -0.0159, 0.0803, -0.0433, 155.95, 172.45)" gradientUnits="userSpaceOnUse" id="gradient2" spreadMethod="pad" x1="-819.2" x2="819.2">
      <stop offset="0.0" stop-color="#181512"/>
      <stop offset="1.0" stop-color="#433f3d"/>
    </linearGradient>
    <linearGradient gradientTransform="matrix(-0.0347, 0.0892, -0.0419, -0.0163, 153.5, 186.55)" gradientUnits="userSpaceOnUse" id="gradient3" spreadMethod="pad" x1="-819.2" x2="819.2">
      <stop offset="0.0" stop-color="#2f221e"/>
      <stop offset="1.0" stop-color="#3e3e31"/>
    </linearGradient>
  </defs>
</svg>
