<?xml version="1.0" encoding="UTF-8" standalone="no"?>
<svg xmlns:xlink="http://www.w3.org/1999/xlink" height="274.55px" width="686.45px" xmlns="http://www.w3.org/2000/svg">
  <g transform="matrix(1.0, 0.0, 0.0, 1.0, 28.0, 166.55)">
    <path d="M653.35 108.0 L-28.0 108.0 -28.0 -163.95 653.35 -163.95 653.35 108.0" fill="url(#gradient0)" fill-rule="evenodd" stroke="none"/>
    <path d="M620.9 -109.4 L620.9 -109.65 621.15 -109.8 622.8 -109.65 623.15 -109.3 623.4 -108.9 624.05 -108.55 624.4 -108.15 624.8 -107.8 625.15 -107.4 625.4 -107.05 626.8 -106.65 627.15 -106.4 629.8 -106.15 630.15 -105.9 637.15 -105.9 638.3 -105.8 638.55 -105.55 640.3 -105.65 640.7 -105.9 641.3 -106.15 641.7 -106.55 642.05 -106.9 642.45 -107.3 642.7 -107.65 642.8 -108.05 643.05 -108.4 643.3 -108.8 643.3 -109.15 643.55 -109.55 643.7 -109.9 643.8 -110.3 644.2 -110.65 644.55 -111.05 644.7 -111.4 644.8 -111.8 645.2 -112.15 645.55 -112.55 645.95 -112.9 646.2 -113.3 646.7 -113.55 647.45 -113.8 648.05 -114.15 648.7 -114.55 649.3 -114.9 650.05 -115.3 650.8 -115.65 651.45 -116.05 651.8 -116.3 652.2 -116.4 653.55 -116.65 654.2 -116.8 654.2 -116.9 656.45 -116.8 656.95 -116.4 657.95 -116.05 658.45 -115.65 658.45 -115.3 658.05 -115.05 657.7 -114.9 657.2 -114.8 656.3 -114.9 654.2 -114.9 654.05 -114.65 651.95 -114.4 651.2 -114.05 651.05 -113.8 650.2 -113.55 650.05 -113.3 649.3 -113.05 649.05 -112.8 648.05 -112.55 646.95 -112.15 646.2 -111.8 646.05 -111.4 645.7 -111.05 645.45 -110.65 645.05 -110.3 644.7 -109.9 644.7 -109.55 644.45 -109.15 644.05 -108.8 643.95 -108.4 643.7 -108.05 643.55 -107.65 643.45 -107.3 643.05 -106.9 642.8 -106.55 642.45 -106.15 642.05 -105.8 641.55 -105.4 641.05 -105.05 640.95 -104.8 640.7 -104.65 637.9 -104.8 637.8 -105.05 637.15 -105.15 629.8 -105.4 629.55 -105.65 626.9 -105.9 626.65 -106.15 624.9 -106.4 624.9 -106.8 624.55 -107.15 624.15 -107.55 623.8 -107.9 623.55 -108.15 622.9 -108.4 622.65 -108.8 622.4 -109.05 622.4 -109.15 620.9 -109.4" fill="url(#gradient1)" fill-rule="evenodd" stroke="none"/>
    <path d="M116.3 -141.4 L116.65 -141.55 117.05 -141.65 118.55 -141.9 119.05 -142.15 120.95 -142.4 121.55 -142.65 127.45 -142.9 128.05 -143.15 129.7 -143.4 129.7 -143.8 129.05 -144.15 128.8 -144.55 129.05 -144.65 129.3 -144.65 130.05 -144.3 130.45 -144.05 130.55 -143.9 131.05 -143.9 131.8 -143.9 132.05 -143.55 131.95 -143.15 131.7 -142.8 131.45 -142.55 130.2 -142.3 129.95 -142.05 129.55 -141.9 127.7 -141.65 127.05 -141.4 121.2 -141.15 120.55 -140.9 119.05 -140.65 118.95 -140.4 117.15 -140.15 116.9 -139.9 116.4 -139.8 115.65 -139.55 115.4 -139.3 114.15 -139.4 113.8 -139.65 111.9 -139.65 105.55 -139.4 105.4 -139.15 101.55 -139.15 100.15 -139.3 99.55 -139.4 98.3 -139.65 98.05 -140.05 97.8 -140.4 97.8 -140.8 97.8 -141.15 98.15 -141.15 98.55 -140.9 98.9 -140.65 99.55 -140.65 100.55 -140.8 101.55 -140.9 104.9 -141.15 105.55 -141.4 111.55 -141.4 114.3 -141.15 114.9 -141.05 115.15 -141.15 115.55 -141.3 116.3 -141.4" fill="url(#gradient2)" fill-rule="evenodd" stroke="none"/>
    <path d="M87.9 -144.3 L87.8 -144.15 86.3 -144.3 86.05 -144.55 82.9 -144.4 82.55 -144.15 81.05 -143.9 80.55 -143.65 78.8 -143.9 78.8 -144.15 79.05 -144.3 80.8 -144.55 81.3 -144.8 81.55 -144.9 82.65 -145.15 83.05 -145.3 83.05 -145.4 86.15 -145.3 86.55 -145.05 87.65 -145.15 88.15 -145.3 88.55 -144.9 88.8 -144.55 88.8 -144.3 88.15 -144.4 87.9 -144.3" fill="url(#gradient3)" fill-rule="evenodd" stroke="none"/>
    <path d="M90.55 -135.15 L90.8 -135.25 91.05 -135.4 91.65 -135.65 92.05 -135.9 92.55 -135.9 92.55 -136.0 95.15 -135.9 95.55 -135.65 95.55 -135.5 96.15 -135.25 96.65 -134.9 97.3 -134.5 97.05 -134.25 96.8 -134.15 96.15 -134.25 95.9 -134.5 95.15 -134.75 92.4 -135.0 92.3 -134.75 92.3 -134.65 91.3 -134.4 91.3 -134.15 90.4 -133.9 90.3 -133.65 90.05 -133.5 88.8 -133.25 88.3 -132.9 88.05 -132.5 87.55 -132.15 87.15 -131.75 86.3 -131.75 85.9 -132.15 85.4 -132.5 85.05 -132.9 84.65 -133.25 84.65 -133.65 84.8 -134.0 85.15 -134.15 85.3 -133.75 85.65 -133.4 86.05 -133.0 86.4 -132.65 86.65 -132.65 87.05 -132.9 87.55 -133.15 87.65 -133.5 87.9 -133.9 88.15 -134.25 88.55 -134.5 89.65 -134.75 90.05 -135.0 90.55 -135.15" fill="url(#gradient4)" fill-rule="evenodd" stroke="none"/>
    <path d="M153.0 -137.75 L153.5 -137.9 154.5 -138.0 156.5 -138.15 158.25 -138.4 159.0 -138.75 159.25 -139.0 159.5 -139.15 160.15 -139.4 160.5 -139.65 161.0 -139.75 164.25 -140.0 165.15 -140.4 165.5 -140.65 166.0 -140.75 166.5 -140.75 167.15 -140.5 167.65 -140.15 167.9 -139.9 168.5 -139.75 169.15 -139.5 169.65 -139.15 170.15 -138.9 170.5 -138.9 171.0 -139.0 172.25 -139.25 173.0 -139.5 173.75 -139.75 174.5 -140.0 175.0 -140.0 175.65 -139.75 176.0 -139.4 176.25 -139.0 176.5 -138.75 176.5 -138.65 177.4 -138.75 178.05 -139.0 180.15 -139.15 180.55 -139.25 181.15 -139.5 181.55 -139.75 182.05 -139.9 183.4 -140.15 184.05 -140.4 189.8 -140.25 190.3 -140.0 190.3 -139.9 193.8 -139.65 194.3 -139.5 194.8 -139.75 195.15 -140.15 195.55 -140.5 196.05 -140.75 197.05 -141.0 197.8 -141.4 198.15 -141.65 198.55 -141.75 200.3 -141.65 200.65 -141.4 202.3 -141.15 202.8 -140.75 203.05 -140.5 203.15 -140.4 204.4 -140.5 204.8 -140.9 205.15 -141.25 205.65 -141.65 206.9 -142.0 207.55 -142.25 208.55 -142.4 211.55 -142.5 212.55 -142.5 213.15 -142.25 213.65 -142.25 214.05 -142.5 214.55 -142.65 215.3 -142.9 216.05 -143.15 217.55 -143.15 218.15 -142.9 218.55 -142.65 219.15 -142.4 219.55 -142.15 220.15 -141.9 220.55 -141.65 221.15 -141.4 222.05 -141.15 222.65 -140.9 223.05 -140.5 223.4 -140.25 223.55 -140.15 224.15 -139.9 226.05 -139.65 226.65 -139.4 229.55 -139.15 230.15 -138.9 230.55 -138.65 231.15 -138.4 231.55 -138.15 232.55 -138.15 236.3 -138.4 236.65 -138.75 237.05 -139.15 237.4 -139.4 237.55 -139.5 238.05 -139.65 238.8 -139.9 239.15 -140.25 239.65 -140.65 240.05 -140.9 240.65 -141.15 241.05 -141.4 241.55 -141.5 243.05 -141.5 243.8 -141.65 244.05 -141.9 244.55 -142.0 245.4 -142.15 245.9 -142.5 246.55 -142.75 247.4 -143.0 248.05 -143.15 248.05 -143.25 248.55 -143.25 249.3 -143.0 250.05 -142.65 250.55 -142.25 251.05 -141.9 251.55 -141.65 255.05 -141.5 256.15 -141.25 256.4 -140.9 256.55 -140.5 256.8 -140.15 257.15 -139.75 257.55 -139.4 257.9 -139.0 257.8 -138.75 257.55 -138.65 256.8 -138.75 256.4 -139.15 256.15 -139.5 256.05 -139.9 255.65 -140.25 255.65 -140.5 255.3 -140.5 251.55 -140.4 250.65 -140.5 250.05 -140.9 249.4 -141.25 249.15 -141.5 249.05 -141.65 248.05 -141.5 247.9 -141.25 247.05 -141.0 246.9 -140.75 246.3 -140.5 245.9 -140.25 245.9 -140.15 245.05 -139.9 244.8 -139.5 244.55 -139.15 242.4 -139.15 241.9 -139.4 241.4 -139.0 241.15 -138.65 241.05 -138.4 240.3 -138.15 239.8 -137.75 239.55 -137.5 239.55 -137.4 238.65 -137.15 238.15 -136.75 237.9 -136.4 237.55 -136.0 233.15 -135.65 233.05 -135.4 230.9 -135.5 230.65 -135.75 229.9 -136.0 229.65 -136.25 229.55 -136.4 228.8 -136.65 226.05 -136.9 225.3 -137.15 224.05 -137.4 223.3 -137.65 222.55 -137.9 221.8 -138.15 221.4 -138.5 221.15 -138.75 220.4 -139.0 220.15 -139.25 219.4 -139.5 219.15 -139.75 218.4 -140.0 218.15 -140.25 217.4 -140.5 217.15 -140.75 216.15 -140.65 216.05 -140.4 214.55 -140.15 212.55 -140.0 211.8 -140.25 211.55 -140.5 207.9 -140.4 206.55 -140.0 206.3 -139.65 205.8 -139.25 205.4 -138.9 202.15 -138.9 201.8 -139.25 201.55 -139.5 201.4 -139.65 199.65 -139.9 199.4 -140.15 198.55 -140.0 197.65 -139.65 197.4 -139.4 197.4 -139.25 196.15 -139.0 195.65 -138.65 195.3 -138.25 195.05 -137.9 193.05 -137.9 192.9 -138.15 190.05 -138.15 189.15 -138.25 188.8 -138.5 184.05 -138.4 183.55 -138.15 182.15 -137.9 181.3 -137.5 181.05 -137.25 180.55 -137.15 180.05 -137.0 178.65 -136.75 178.05 -136.5 176.0 -136.5 175.4 -136.75 175.0 -137.15 174.75 -137.4 173.65 -137.25 173.5 -137.0 171.65 -136.75 171.5 -136.5 169.5 -136.5 168.75 -136.75 168.0 -137.0 167.75 -137.15 167.0 -137.25 166.25 -137.5 165.15 -137.5 165.0 -137.25 161.65 -137.0 160.9 -136.65 160.5 -136.4 159.9 -136.25 159.5 -136.0 159.5 -135.9 156.5 -135.9 154.5 -136.0 153.5 -135.9 153.4 -135.65 152.15 -135.65 151.0 -135.75 150.0 -135.65 149.65 -135.25 149.25 -134.9 149.0 -134.5 147.75 -134.15 146.15 -134.15 146.0 -134.5 145.65 -134.9 145.75 -135.25 146.0 -135.65 145.75 -136.0 146.15 -136.15 146.65 -135.75 146.75 -135.4 147.15 -135.4 148.25 -135.75 148.4 -136.15 148.65 -136.5 149.0 -136.9 149.5 -137.15 151.0 -137.25 152.65 -137.5 153.0 -137.75" fill="url(#gradient5)" fill-rule="evenodd" stroke="none"/>
    <path d="M6.75 -148.8 L7.0 -148.9 8.5 -149.15 9.0 -149.4 12.0 -149.55 12.5 -149.65 13.0 -149.8 13.5 -149.9 17.8 -150.15 18.55 -150.3 18.55 -150.4 23.65 -150.3 23.8 -149.9 23.55 -149.65 17.8 -149.4 17.05 -149.15 13.0 -149.05 12.5 -148.9 12.0 -148.8 11.5 -148.65 8.5 -148.4 8.0 -148.15 6.75 -148.15 6.25 -147.9 6.0 -147.8 4.75 -147.9 4.75 -148.15 5.0 -148.3 6.4 -148.55 6.75 -148.8" fill="url(#gradient6)" fill-rule="evenodd" stroke="none"/>
    <path d="M26.55 -143.05 L27.05 -143.15 27.15 -143.15 27.05 -142.8 26.3 -142.4 25.05 -142.05 24.55 -141.8 23.9 -141.55 23.55 -141.3 16.55 -141.05 16.05 -140.8 14.0 -140.55 13.5 -140.3 12.25 -140.4 12.25 -140.65 12.5 -140.8 14.0 -141.05 14.5 -141.3 16.55 -141.55 17.05 -141.8 23.65 -142.05 24.05 -142.3 25.05 -142.55 25.55 -142.8 26.55 -143.05" fill="url(#gradient7)" fill-rule="evenodd" stroke="none"/>
    <path d="M1.0 -136.25 L-0.25 -136.0 -0.5 -135.75 -3.1 -135.5 -3.5 -135.25 -8.25 -135.4 -8.5 -135.65 -11.75 -135.9 -11.75 -136.15 -11.5 -136.25 -8.35 -136.15 -8.0 -135.9 -3.35 -136.0 -3.0 -136.25 -0.75 -136.5 -0.5 -136.75 0.75 -137.0 1.0 -137.25 3.15 -137.5 3.5 -137.65 3.5 -137.75 6.65 -137.65 6.75 -137.4 6.5 -137.25 3.4 -137.0 3.0 -136.75 1.25 -136.5 1.0 -136.25" fill="url(#gradient8)" fill-rule="evenodd" stroke="none"/>
    <path d="M67.8 -146.4 L67.55 -146.3 64.05 -146.15 63.3 -146.3 63.05 -146.55 60.8 -146.8 60.55 -147.05 58.9 -146.9 58.55 -146.65 57.55 -146.4 57.05 -146.15 47.8 -146.3 47.55 -146.55 47.3 -146.65 44.3 -146.9 44.3 -147.15 44.55 -147.3 47.3 -147.15 47.8 -146.9 48.05 -146.9 57.55 -147.15 58.05 -147.4 58.65 -147.65 59.05 -147.8 59.05 -147.9 60.65 -147.8 61.05 -147.55 63.15 -147.3 63.55 -147.05 64.05 -146.9 67.65 -146.65 67.8 -146.4" fill="url(#gradient9)" fill-rule="evenodd" stroke="none"/>
    <path d="M69.55 -134.75 L72.15 -135.0 72.55 -135.25 76.15 -135.15 76.65 -134.75 76.65 -134.4 76.3 -134.4 76.05 -134.65 72.4 -134.5 72.05 -134.25 69.4 -134.0 69.05 -133.75 67.8 -133.9 67.55 -134.15 63.65 -134.0 63.4 -133.75 63.25 -133.65 60.75 -133.4 60.75 -133.15 56.65 -133.25 56.0 -133.5 55.75 -133.25 55.75 -133.15 52.65 -133.25 52.65 -133.5 51.75 -133.75 51.4 -134.15 51.0 -134.5 50.65 -134.9 50.25 -135.25 50.15 -135.5 49.25 -135.5 48.15 -135.65 48.0 -135.9 47.25 -135.75 44.65 -135.65 44.4 -135.4 44.25 -135.25 42.25 -135.4 42.25 -135.65 42.5 -135.75 44.15 -136.0 44.5 -136.25 45.0 -136.4 47.0 -136.65 47.25 -136.9 47.5 -136.9 47.5 -137.0 48.65 -136.9 49.0 -136.65 49.0 -136.5 50.65 -136.25 51.0 -135.9 51.4 -135.5 51.75 -135.15 52.15 -134.75 52.4 -134.5 53.15 -134.25 53.4 -134.0 55.65 -134.15 56.0 -134.4 56.65 -134.25 57.0 -134.0 60.15 -134.15 60.5 -134.4 63.15 -134.65 63.5 -134.9 67.65 -134.65 68.05 -134.4 69.15 -134.5 69.55 -134.75" fill="url(#gradient10)" fill-rule="evenodd" stroke="none"/>
    <path d="M273.8 -144.4 L273.2 -144.8 272.95 -145.15 272.3 -145.55 272.05 -145.8 271.95 -145.9 267.05 -146.15 266.8 -146.4 264.05 -146.3 263.8 -146.05 262.3 -145.8 261.8 -145.55 256.15 -145.3 256.05 -145.15 254.3 -145.4 254.3 -145.65 254.55 -145.8 255.9 -146.05 256.3 -146.4 262.05 -146.8 262.55 -147.05 263.65 -147.3 264.05 -147.4 264.05 -147.55 267.3 -147.4 267.7 -147.15 272.2 -146.9 272.55 -146.65 273.2 -146.4 273.55 -146.05 273.8 -145.65 274.05 -145.3 274.3 -144.9 274.8 -144.55 274.8 -144.3 273.8 -144.4" fill="url(#gradient11)" fill-rule="evenodd" stroke="none"/>
    <path d="M276.55 -140.0 L278.05 -140.0 278.65 -139.75 279.3 -139.75 280.05 -140.0 282.55 -140.0 283.2 -139.75 283.55 -139.5 284.2 -139.25 284.8 -139.25 285.55 -139.5 286.05 -139.5 286.7 -139.25 288.55 -139.0 291.95 -139.15 292.3 -139.5 293.05 -139.9 293.55 -139.75 294.3 -139.65 294.7 -139.25 295.05 -138.9 295.3 -138.5 295.7 -138.25 296.55 -138.15 297.05 -138.0 297.55 -137.9 298.2 -137.65 298.7 -137.25 299.2 -136.9 299.45 -136.5 299.8 -136.15 299.95 -135.9 300.7 -135.65 301.05 -135.4 303.2 -135.15 303.3 -134.9 304.2 -134.65 304.3 -134.4 307.7 -134.15 309.2 -133.75 309.45 -133.5 309.55 -133.5 310.3 -133.75 310.7 -133.75 310.8 -133.4 310.55 -133.0 310.2 -132.65 309.55 -132.5 308.8 -132.75 308.7 -133.0 307.7 -133.25 307.55 -133.5 307.45 -133.65 303.8 -133.9 303.8 -134.15 302.8 -134.4 302.8 -134.65 300.7 -134.9 300.45 -135.15 299.3 -135.25 298.95 -135.65 298.7 -136.0 298.55 -136.4 298.3 -136.75 297.8 -137.15 297.05 -137.0 296.95 -136.9 295.05 -137.0 294.45 -137.4 294.05 -137.65 292.8 -137.5 292.55 -137.25 292.45 -137.15 289.05 -137.0 283.55 -137.0 282.8 -137.25 282.55 -137.5 281.8 -137.75 280.7 -137.75 280.05 -137.5 278.55 -137.5 277.9 -137.75 276.55 -138.0 275.4 -137.9 275.05 -137.5 274.3 -137.25 273.9 -136.9 273.55 -136.5 273.05 -136.15 272.65 -135.75 272.4 -135.5 272.05 -135.4 271.05 -135.15 270.55 -134.9 270.05 -134.9 269.05 -134.75 268.8 -134.5 268.3 -134.5 266.55 -134.65 264.3 -134.9 264.15 -135.25 263.15 -135.65 262.8 -136.0 263.4 -136.15 264.4 -135.75 264.8 -135.5 264.8 -135.4 266.55 -135.4 268.4 -135.65 268.65 -135.9 269.05 -136.0 270.3 -136.25 270.65 -136.5 271.05 -136.65 271.9 -136.9 271.9 -137.25 272.55 -137.65 273.15 -138.0 273.55 -138.4 273.8 -138.75 274.05 -139.15 274.3 -139.5 274.55 -139.75 275.05 -139.9 276.55 -139.9 276.55 -140.0" fill="url(#gradient12)" fill-rule="evenodd" stroke="none"/>
    <path d="M320.2 -136.65 L323.45 -137.0 323.8 -137.4 324.2 -137.65 324.55 -137.65 324.55 -137.75 325.8 -137.65 326.45 -137.25 326.7 -136.9 326.95 -136.5 327.2 -136.15 327.3 -135.9 327.3 -135.75 326.7 -135.9 326.2 -136.25 325.95 -136.4 325.95 -136.25 325.05 -136.0 324.95 -135.75 324.05 -135.5 323.55 -135.25 320.55 -135.0 319.8 -134.65 319.3 -134.25 318.7 -133.9 317.05 -133.5 316.55 -133.25 315.2 -133.4 314.55 -133.65 314.45 -134.0 314.2 -134.4 314.2 -134.75 313.95 -135.15 313.7 -135.5 314.05 -135.9 314.55 -135.5 314.8 -135.15 314.95 -134.75 315.55 -134.65 316.45 -134.9 316.7 -135.15 317.05 -135.25 318.3 -135.5 318.8 -135.9 319.45 -136.25 320.2 -136.65" fill="url(#gradient13)" fill-rule="evenodd" stroke="none"/>
    <path d="M347.65 -109.15 L347.7 -109.15 347.85 -108.9 347.6 -108.8 347.65 -109.15" fill="url(#gradient14)" fill-rule="evenodd" stroke="none"/>
    <path d="M232.65 -124.05 L233.05 -124.3 234.65 -124.55 235.05 -124.8 236.55 -125.05 237.05 -125.15 237.15 -125.15 237.05 -124.8 236.3 -124.4 234.9 -124.05 234.55 -123.8 232.9 -123.55 232.55 -123.3 231.05 -123.05 230.55 -122.8 226.9 -122.55 226.55 -122.3 222.9 -122.05 222.55 -121.8 220.9 -121.55 220.3 -121.15 219.55 -120.9 219.3 -121.15 220.05 -121.55 220.55 -121.9 220.8 -122.15 221.05 -122.3 222.65 -122.55 223.05 -122.8 226.65 -123.05 227.05 -123.3 231.05 -123.55 231.55 -123.8 232.65 -124.05" fill="url(#gradient15)" fill-rule="evenodd" stroke="none"/>
    <path d="M422.45 -148.9 L423.1 -149.15 424.45 -149.4 425.1 -149.55 425.1 -149.65 427.35 -149.55 427.95 -149.3 428.85 -149.05 429.45 -148.8 431.35 -148.55 431.7 -148.3 433.35 -148.05 433.95 -147.8 440.6 -147.9 441.1 -148.15 446.6 -148.15 447.6 -148.05 448.6 -147.9 449.2 -147.65 449.1 -147.3 447.85 -147.05 446.95 -146.9 441.1 -146.65 440.6 -146.4 433.45 -146.55 432.95 -146.8 431.1 -147.05 430.85 -147.3 428.95 -147.55 428.45 -147.8 427.45 -148.05 426.95 -148.3 424.95 -148.15 424.45 -147.9 422.95 -147.65 422.2 -147.3 421.35 -146.9 420.95 -146.65 420.6 -146.55 419.6 -146.3 419.1 -146.05 417.85 -146.05 416.85 -146.3 416.7 -146.65 416.85 -147.05 416.85 -147.4 417.1 -147.8 417.35 -147.4 417.35 -147.15 417.35 -147.05 418.1 -147.05 419.1 -147.3 419.6 -147.55 420.45 -147.8 420.95 -148.15 421.7 -148.55 422.45 -148.9" fill="url(#gradient16)" fill-rule="evenodd" stroke="none"/>
    <path d="M428.85 -133.15 L429.1 -133.3 438.1 -133.55 438.35 -133.8 438.6 -133.9 440.6 -134.15 441.1 -134.55 441.35 -134.8 441.6 -134.8 441.6 -134.9 443.7 -134.8 443.85 -134.4 443.85 -134.15 441.6 -133.9 441.1 -133.55 440.6 -133.3 440.35 -133.15 438.2 -132.9 428.85 -132.9 428.85 -133.15" fill="url(#gradient17)" fill-rule="evenodd" stroke="none"/>
    <path d="M407.35 -136.9 L407.1 -136.8 401.85 -136.65 395.85 -136.8 395.6 -137.05 394.2 -137.3 393.95 -137.55 392.85 -137.8 392.6 -138.05 391.85 -138.3 391.6 -138.55 389.35 -138.8 388.85 -139.05 387.35 -138.9 386.85 -138.65 385.35 -138.4 384.85 -138.15 383.1 -137.9 382.6 -137.55 382.05 -137.3 381.8 -137.15 379.7 -136.9 378.05 -136.55 377.3 -136.4 377.55 -136.8 378.3 -137.15 379.55 -137.55 379.8 -137.8 380.05 -137.9 382.05 -138.15 382.85 -138.55 383.35 -138.8 383.6 -138.9 385.1 -139.15 385.6 -139.4 387.1 -139.65 387.6 -139.8 387.6 -139.9 388.85 -139.8 389.35 -139.55 391.7 -139.3 392.1 -139.05 392.7 -138.8 393.1 -138.55 394.2 -138.3 394.6 -138.05 395.7 -137.8 396.1 -137.55 401.6 -137.4 407.2 -137.15 407.35 -136.9" fill="url(#gradient18)" fill-rule="evenodd" stroke="none"/>
    <path d="M349.1 -108.85 L348.85 -108.9 348.85 -109.15 349.1 -109.3 349.1 -108.85" fill="url(#gradient19)" fill-rule="evenodd" stroke="none"/>
    <path d="M483.1 -142.4 L484.2 -142.15 484.6 -141.9 485.6 -141.9 489.25 -141.8 489.5 -141.55 489.6 -141.55 492.35 -141.8 492.85 -142.15 493.0 -142.55 493.1 -142.9 493.6 -143.15 494.6 -143.4 495.1 -143.65 500.1 -143.9 500.6 -144.05 500.6 -144.15 503.35 -144.05 503.75 -143.8 505.35 -143.55 505.75 -143.3 506.85 -143.05 507.25 -142.8 508.85 -142.55 509.25 -142.3 509.25 -142.15 510.35 -141.9 510.85 -141.65 511.1 -141.55 512.25 -141.3 512.35 -140.9 512.1 -140.65 511.35 -140.55 510.6 -140.65 510.1 -140.9 508.6 -141.15 506.6 -141.55 506.35 -141.8 505.25 -142.05 505.0 -142.3 503.25 -142.55 503.0 -142.8 500.75 -142.65 500.5 -142.4 495.25 -142.15 495.0 -141.9 494.1 -141.65 493.85 -141.3 493.35 -140.9 493.0 -140.55 491.75 -140.4 489.1 -140.65 488.75 -140.9 488.75 -141.05 485.35 -141.15 484.35 -141.4 484.1 -141.65 482.7 -141.9 482.45 -142.15 480.35 -142.05 480.35 -141.8 479.35 -141.55 479.35 -141.3 477.85 -141.4 477.85 -141.65 478.1 -141.8 478.85 -142.05 479.1 -142.3 479.85 -142.55 480.1 -142.8 482.7 -142.65 483.1 -142.4" fill="url(#gradient20)" fill-rule="evenodd" stroke="none"/>
    <path d="M347.3 -134.0 L347.05 -133.75 346.8 -133.65 346.2 -133.75 346.2 -134.0 344.7 -134.25 344.7 -134.5 341.05 -134.5 339.55 -134.5 338.8 -134.75 338.45 -134.5 338.3 -134.25 338.3 -134.15 337.7 -134.25 337.7 -134.65 337.8 -135.0 338.05 -135.4 338.2 -135.65 338.3 -135.75 338.55 -135.75 338.7 -135.75 339.05 -135.5 339.55 -135.5 341.05 -135.5 345.2 -135.25 345.45 -135.0 346.7 -134.75 346.95 -134.4 347.3 -134.0" fill="url(#gradient21)" fill-rule="evenodd" stroke="none"/>
    <path d="M613.25 -149.55 L613.65 -149.55 614.15 -149.65 617.0 -149.65 617.15 -149.8 617.65 -149.8 617.65 -149.9 619.4 -149.8 619.9 -149.4 620.25 -149.05 620.65 -148.65 620.9 -148.3 621.25 -147.9 621.4 -147.55 621.4 -147.15 621.75 -146.8 622.15 -146.4 622.25 -146.05 622.25 -145.65 622.65 -145.3 623.4 -144.9 623.75 -144.65 625.15 -144.55 625.75 -144.65 626.15 -144.9 627.75 -145.15 628.15 -145.4 630.25 -145.65 630.65 -145.9 631.75 -146.15 632.15 -146.4 633.75 -146.65 634.4 -147.05 634.9 -147.3 635.15 -147.4 636.15 -147.65 636.65 -147.9 638.65 -148.05 639.15 -148.3 641.15 -148.4 643.25 -148.3 643.65 -148.05 645.25 -147.8 645.75 -147.4 646.0 -147.05 645.9 -146.8 645.9 -146.65 645.25 -146.8 645.0 -147.05 643.25 -147.3 643.0 -147.55 641.15 -147.65 638.65 -147.55 638.15 -147.3 636.4 -147.05 635.9 -146.8 635.65 -146.65 634.65 -146.4 634.25 -146.05 634.0 -145.8 633.9 -145.65 632.15 -145.4 631.9 -145.15 630.65 -144.9 630.4 -144.65 628.0 -144.4 627.65 -144.15 626.15 -143.9 625.9 -143.65 625.15 -143.55 623.15 -143.65 622.9 -143.9 622.15 -144.15 621.75 -144.55 621.25 -144.9 621.0 -145.3 620.9 -145.65 620.65 -146.05 620.4 -146.4 620.0 -146.8 619.9 -147.15 619.5 -147.55 619.15 -147.9 617.9 -147.9 617.65 -147.65 617.15 -147.55 614.4 -147.3 614.15 -147.05 614.15 -146.9 612.0 -147.05 611.75 -147.3 605.65 -147.4 605.0 -147.55 603.9 -147.15 603.9 -146.9 603.65 -146.8 603.0 -146.55 602.4 -146.4 602.5 -146.8 602.9 -147.15 603.4 -147.55 603.65 -147.9 603.65 -148.3 603.9 -148.65 604.15 -149.05 604.65 -149.3 605.15 -149.4 605.65 -149.55 606.15 -149.65 612.65 -149.65 613.25 -149.55" fill="url(#gradient22)" fill-rule="evenodd" stroke="none"/>
    <path d="M600.9 -145.9 L600.9 -145.8 599.4 -145.9 599.4 -146.15 599.65 -146.15 599.65 -146.3 600.75 -146.15 600.9 -145.9" fill="url(#gradient23)" fill-rule="evenodd" stroke="none"/>
    <path d="M547.6 -129.55 L549.1 -129.8 549.6 -130.05 552.85 -129.9 553.35 -129.65 555.1 -129.55 556.6 -129.4 557.75 -129.15 557.85 -128.9 557.6 -128.8 556.6 -128.65 555.35 -128.55 553.1 -128.65 552.6 -128.9 549.35 -128.8 548.85 -128.55 547.35 -128.55 546.6 -128.8 546.1 -129.05 544.75 -129.3 544.5 -129.65 544.1 -129.9 543.85 -130.05 539.5 -129.9 539.1 -129.65 535.1 -129.65 532.0 -129.55 531.6 -129.3 529.85 -129.05 529.35 -128.8 528.85 -128.9 529.1 -129.3 529.85 -129.65 531.75 -130.05 532.1 -130.3 535.1 -130.4 539.25 -130.65 539.6 -130.8 539.6 -130.9 543.85 -130.8 544.6 -130.4 545.0 -130.15 545.1 -130.05 546.35 -129.8 546.85 -129.55 547.6 -129.55" fill="url(#gradient24)" fill-rule="evenodd" stroke="none"/>
    <path d="M-4.75 -143.4 L-5.0 -143.3 -5.6 -143.4 -6.35 -143.55 -7.0 -143.65 -7.75 -143.8 -8.35 -143.9 -9.1 -144.05 -9.75 -144.15 -11.5 -144.05 -12.0 -143.8 -13.6 -143.55 -14.0 -143.3 -15.5 -143.05 -16.0 -142.8 -17.5 -142.55 -18.25 -142.15 -18.75 -141.9 -19.0 -141.8 -20.5 -141.55 -21.25 -141.15 -22.0 -140.8 -22.75 -140.4 -24.5 -140.05 -25.25 -139.9 -25.0 -140.3 -24.25 -140.65 -22.5 -141.05 -21.75 -141.4 -21.0 -141.8 -20.25 -142.15 -18.5 -142.55 Q-18.1 -142.75 -17.75 -142.9 L-17.25 -143.15 -17.0 -143.3 -15.5 -143.55 -15.0 -143.8 -13.85 -144.05 -13.5 -144.3 -11.5 -144.55 -11.0 -144.65 -11.0 -144.8 -10.5 -144.8 -9.75 -144.65 -9.1 -144.55 -8.35 -144.4 -7.75 -144.3 -7.0 -144.15 -6.35 -144.05 -5.6 -143.9 -4.85 -143.65 -4.75 -143.4" fill="url(#gradient25)" fill-rule="evenodd" stroke="none"/>
    <path d="M620.9 -109.4 L620.65 -109.3 619.05 -109.05 618.9 -108.8 616.3 -108.9 616.05 -109.15 613.9 -109.15 613.15 -108.9 612.9 -108.65 611.9 -108.4 611.9 -108.15 610.15 -107.9 609.9 -107.65 608.4 -107.55 605.3 -107.65 605.15 -107.9 604.65 -107.9 603.05 -107.8 601.55 -107.65 598.65 -107.55 597.05 -107.65 596.9 -107.9 593.55 -108.15 593.3 -108.4 592.55 -108.65 592.15 -109.05 591.8 -109.4 591.55 -109.8 591.15 -110.15 591.15 -110.55 590.9 -110.9 590.65 -111.3 590.05 -111.65 589.8 -112.05 589.65 -112.3 589.65 -112.4 587.05 -112.65 586.8 -112.9 585.55 -113.15 585.3 -113.55 585.05 -113.8 584.9 -113.9 582.3 -113.8 581.65 -113.55 580.8 -113.3 579.9 -112.9 579.65 -112.65 579.15 -112.55 577.8 -112.3 577.15 -112.05 575.8 -111.8 575.65 -111.55 574.4 -111.3 574.15 -111.05 570.9 -110.8 570.55 -110.4 570.15 -110.05 569.8 -109.65 569.65 -109.3 569.4 -108.9 569.05 -108.55 568.8 -108.15 568.4 -107.8 568.05 -107.4 567.8 -107.15 567.65 -107.05 566.9 -106.8 566.55 -106.4 566.3 -106.15 566.15 -106.05 563.55 -106.15 563.15 -106.55 563.05 -106.8 562.9 -106.9 561.65 -107.05 561.05 -107.3 556.15 -107.55 555.55 -107.8 555.15 -108.15 554.8 -108.55 554.3 -108.9 554.05 -109.3 553.8 -109.55 553.05 -109.8 552.9 -110.05 552.05 -110.3 551.8 -110.55 550.15 -110.4 549.8 -110.05 549.15 -109.65 548.55 -109.3 547.65 -108.9 547.3 -108.55 547.05 -108.3 545.65 -108.05 545.15 -107.8 542.55 -107.55 542.05 -107.3 541.15 -107.05 540.55 -106.65 539.9 -106.3 539.4 -105.9 538.3 -105.55 537.25 -105.15 537.0 -104.9 536.65 -104.8 535.65 -104.8 530.25 -104.65 530.0 -104.4 528.75 -104.15 528.5 -103.9 526.65 -103.9 525.75 -104.15 525.4 -104.4 525.15 -104.15 525.0 -104.05 523.15 -103.8 522.65 -103.55 521.65 -103.3 521.25 -102.9 521.0 -102.65 520.65 -102.55 519.65 -102.3 519.15 -102.05 515.25 -102.15 515.0 -102.4 514.15 -102.3 513.9 -102.05 512.65 -101.8 512.4 -101.55 511.4 -101.55 510.4 -101.65 509.4 -101.9 509.4 -102.15 509.65 -102.3 510.65 -102.4 511.65 -102.55 512.25 -102.8 512.65 -103.05 513.75 -103.3 514.15 -103.55 515.4 -103.4 515.75 -103.15 519.15 -103.3 519.65 -103.55 520.65 -103.8 521.0 -104.15 521.25 -104.4 521.65 -104.55 522.65 -104.8 523.15 -105.05 524.65 -105.3 525.15 -105.55 525.9 -105.4 526.25 -105.15 526.65 -105.15 528.15 -105.4 528.65 -105.65 529.65 -105.9 530.15 -106.15 535.65 -106.3 536.65 -106.55 537.15 -106.8 538.0 -107.05 538.9 -107.4 539.55 -107.8 540.15 -108.15 540.65 -108.55 541.15 -108.8 542.05 -109.05 542.65 -109.3 545.05 -109.55 545.65 -109.8 546.4 -110.05 546.8 -110.4 547.15 -110.8 547.55 -111.15 548.3 -111.55 548.8 -111.9 549.3 -112.3 552.15 -112.4 552.8 -112.15 553.65 -111.9 554.3 -111.65 554.65 -111.55 555.3 -111.3 555.65 -110.9 556.05 -110.55 556.4 -110.15 556.55 -109.8 561.65 -109.55 562.3 -109.3 563.65 -109.05 564.3 -108.8 564.65 -108.4 564.9 -108.15 565.55 -108.3 565.9 -108.65 566.15 -108.9 566.8 -109.15 567.3 -109.55 567.65 -109.9 567.9 -110.3 568.05 -110.65 568.3 -111.05 568.65 -111.4 569.05 -111.8 569.4 -112.15 569.8 -112.55 570.05 -112.8 570.15 -112.9 570.8 -113.15 571.15 -113.4 571.65 -113.55 572.15 -113.55 572.8 -113.3 573.55 -113.3 574.15 -113.55 575.05 -113.8 575.65 -114.05 577.05 -114.3 577.65 -114.55 579.05 -114.8 579.8 -115.15 580.15 -115.4 580.65 -115.55 581.55 -115.8 582.15 -115.9 582.15 -116.05 585.15 -116.05 585.8 -115.8 586.15 -115.55 586.8 -115.3 587.15 -115.05 587.8 -114.8 590.15 -114.55 590.8 -114.3 591.15 -113.9 591.55 -113.55 591.9 -113.15 592.3 -112.8 592.55 -112.4 592.65 -112.05 592.9 -111.65 593.05 -111.3 593.15 -110.9 593.4 -110.65 593.65 -110.55 594.3 -110.3 597.65 -110.05 598.3 -109.8 598.65 -109.55 601.15 -109.4 602.65 -109.3 604.65 -109.15 605.9 -108.9 606.15 -108.65 608.15 -108.55 609.8 -108.65 610.15 -108.9 611.3 -109.15 611.65 -109.4 612.8 -109.65 613.15 -109.9 613.65 -109.9 616.3 -109.65 616.65 -109.4 618.8 -109.55 619.15 -109.8 620.8 -109.65 620.9 -109.4 M8.0 -109.0 L8.5 -108.9 9.15 -108.65 10.0 -108.4 12.0 -108.25 14.25 -108.0 14.65 -107.75 16.25 -107.75 16.65 -107.9 17.0 -108.0 20.5 -108.0 21.15 -107.75 21.5 -107.4 21.9 -107.0 21.9 -106.65 22.25 -106.25 22.65 -105.9 22.9 -105.5 23.4 -105.15 26.15 -104.75 26.4 -104.5 26.5 -104.4 27.65 -104.15 28.0 -103.75 28.4 -103.5 28.5 -103.4 29.0 -103.4 30.15 -103.25 30.75 -102.9 31.0 -102.5 31.15 -102.15 31.5 -101.75 32.15 -101.4 32.5 -101.0 33.0 -100.65 35.4 -100.65 36.0 -100.9 39.0 -100.9 39.65 -100.65 40.0 -100.4 40.65 -100.25 41.0 -100.25 41.5 -100.4 44.9 -100.65 45.5 -100.9 46.4 -101.15 47.15 -101.5 47.5 -101.75 48.15 -102.0 48.5 -102.25 49.15 -102.5 49.5 -102.75 50.15 -103.0 50.5 -103.25 51.0 -103.4 52.9 -103.65 53.5 -103.9 55.0 -103.75 56.0 -103.9 56.5 -104.15 59.0 -104.4 59.75 -104.75 60.4 -105.0 61.15 -105.4 64.75 -105.4 65.15 -105.0 65.5 -104.65 65.9 -104.25 66.0 -103.9 66.15 -103.5 66.5 -103.15 66.9 -102.75 67.05 -102.4 67.05 -102.0 67.3 -101.65 67.55 -101.25 68.05 -100.9 68.3 -100.5 69.05 -100.15 69.65 -99.75 70.05 -99.4 70.4 -99.0 70.8 -98.65 71.05 -98.4 71.15 -98.25 72.3 -98.0 73.55 -98.0 74.05 -98.25 75.3 -98.15 75.65 -97.9 76.8 -97.65 77.3 -97.25 77.65 -96.9 78.55 -96.5 78.9 -96.15 79.4 -96.15 80.05 -96.4 82.05 -96.5 85.05 -96.5 85.65 -96.25 87.55 -96.0 88.15 -95.75 88.55 -95.5 89.15 -95.25 89.4 -94.9 89.55 -94.5 89.8 -94.15 90.15 -93.75 92.05 -93.5 92.65 -93.25 95.4 -93.25 96.05 -93.5 96.9 -93.75 97.65 -94.15 98.05 -94.4 98.55 -94.5 99.9 -94.75 100.55 -95.0 101.4 -95.25 102.15 -95.65 102.55 -95.9 103.15 -96.15 103.55 -96.4 104.05 -96.5 107.05 -96.5 107.55 -96.4 108.15 -96.15 108.55 -95.75 108.8 -95.5 109.05 -95.4 109.65 -95.15 110.05 -94.75 110.4 -94.4 110.8 -94.0 111.15 -93.65 111.55 -93.4 112.15 -93.15 114.05 -92.9 114.65 -92.65 115.05 -92.25 115.4 -91.9 115.8 -91.5 115.9 -91.15 116.05 -90.75 116.4 -90.4 116.8 -90.0 116.9 -89.65 117.05 -89.25 117.3 -88.9 117.4 -88.5 117.65 -88.15 117.9 -87.75 118.3 -87.4 118.4 -87.0 118.55 -86.65 118.8 -86.25 118.9 -85.9 119.05 -85.5 119.55 -85.15 119.8 -84.9 120.4 -85.0 121.05 -85.25 122.3 -85.15 122.8 -84.75 123.3 -84.5 126.05 -84.4 126.65 -84.15 127.05 -84.0 127.65 -83.75 128.05 -83.5 128.65 -83.25 129.05 -82.9 129.3 -82.65 129.55 -82.5 130.15 -82.25 130.55 -81.9 130.8 -81.65 135.9 -81.75 136.55 -82.0 137.4 -82.25 138.05 -82.5 140.4 -82.75 141.05 -83.0 143.55 -83.0 144.15 -82.75 144.55 -82.4 144.9 -82.0 145.3 -81.65 146.15 -81.25 146.55 -80.9 146.9 -80.5 147.3 -80.15 147.65 -79.75 147.9 -79.4 148.05 -79.15 148.05 -79.0 148.65 -78.75 149.4 -78.75 150.05 -79.0 153.05 -79.0 153.65 -78.75 156.55 -78.5 157.15 -78.25 157.55 -78.0 158.15 -77.75 158.55 -77.5 159.15 -77.25 159.4 -77.0 160.05 -76.85 160.65 -76.6 162.3 -76.25 162.8 -76.0 163.55 -75.85 164.8 -75.6 165.3 -75.35 165.3 -75.25 167.4 -75.35 168.05 -75.6 171.2 -75.35 171.55 -75.0 171.95 -74.75 172.05 -74.6 173.2 -74.35 173.55 -74.1 178.7 -73.85 179.05 -73.6 180.7 -73.35 181.2 -73.0 181.45 -72.75 181.55 -72.6 182.2 -72.35 182.55 -72.0 182.95 -71.75 183.05 -71.6 185.7 -71.75 186.05 -72.0 187.7 -71.85 188.05 -71.5 188.45 -71.1 188.55 -70.75 188.8 -70.35 189.05 -70.0 189.05 -69.75 189.2 -69.6 190.3 -69.35 190.55 -69.0 190.55 -68.6 190.55 -68.25 190.95 -67.85 191.05 -67.5 191.05 -67.1 191.05 -66.75 191.2 -66.35 191.55 -66.0 191.55 -65.6 191.7 -65.25 191.7 -64.85 191.3 -64.85 190.8 -65.1 190.3 -65.5 190.05 -65.85 190.05 -66.25 190.05 -66.6 190.05 -67.0 189.95 -67.35 189.55 -67.75 189.55 -68.1 189.55 -68.35 188.7 -68.6 188.3 -69.0 188.05 -69.35 187.55 -69.75 187.55 -70.1 187.3 -70.5 187.2 -70.75 187.05 -70.85 186.05 -70.75 185.8 -70.5 182.7 -70.6 182.45 -70.85 181.7 -71.1 181.3 -71.5 181.05 -71.85 180.7 -72.25 178.8 -72.6 178.55 -72.85 172.7 -73.1 172.55 -73.35 171.7 -73.6 171.45 -73.85 170.7 -74.1 170.55 -74.35 167.9 -74.25 167.4 -74.0 167.05 -73.85 165.4 -73.75 164.55 -73.85 164.3 -74.1 163.55 -74.1 162.05 -74.25 161.8 -74.5 160.55 -74.6 159.9 -74.85 159.05 -75.1 158.55 -75.25 158.4 -75.35 157.55 -75.5 156.9 -75.75 156.55 -76.0 155.9 -76.25 153.55 -76.5 152.9 -76.75 150.3 -76.75 150.05 -76.5 147.9 -76.6 147.65 -76.85 146.9 -77.15 146.55 -77.5 146.15 -77.9 145.9 -78.25 145.4 -78.65 145.05 -79.0 144.65 -79.4 144.4 -79.75 144.05 -80.15 143.65 -80.5 143.4 -80.75 143.3 -80.9 141.65 -80.75 141.05 -80.5 138.3 -80.25 138.05 -80.0 136.65 -79.75 136.05 -79.5 130.05 -79.5 129.4 -79.75 129.05 -80.15 128.8 -80.4 128.55 -80.5 127.9 -80.75 127.55 -81.15 127.15 -81.5 126.8 -81.9 126.05 -82.15 125.4 -82.4 123.15 -82.65 122.15 -82.9 121.65 -83.25 121.15 -83.5 120.55 -83.25 119.05 -83.4 118.65 -83.75 118.15 -84.15 117.4 -84.5 117.3 -84.9 117.05 -85.25 116.65 -85.65 116.65 -86.0 116.4 -86.4 116.15 -86.75 116.05 -87.15 115.8 -87.5 115.65 -87.9 115.55 -88.25 115.15 -88.65 114.8 -89.0 114.65 -89.4 114.55 -89.75 114.15 -90.15 113.8 -90.5 113.4 -90.9 112.05 -91.15 111.4 -91.4 111.05 -91.65 110.4 -91.9 109.4 -92.25 109.15 -92.65 109.15 -92.9 109.15 -93.0 108.4 -93.25 108.05 -93.65 107.65 -94.0 107.55 -94.25 107.4 -94.4 104.3 -94.25 104.05 -94.0 103.3 -93.75 103.05 -93.5 102.3 -93.25 102.05 -93.0 100.8 -92.75 100.55 -92.5 98.8 -92.25 98.55 -92.0 97.65 -91.75 97.05 -91.5 96.15 -91.25 95.55 -91.0 92.55 -91.0 91.9 -91.25 88.9 -91.65 88.55 -92.0 88.3 -92.4 87.9 -92.75 87.55 -93.15 87.55 -93.4 86.9 -93.65 86.8 -93.9 85.55 -94.0 84.9 -94.25 81.55 -94.5 79.9 -94.4 78.55 -94.4 77.9 -94.75 77.3 -95.15 76.55 -95.5 76.15 -95.9 75.55 -96.25 75.05 -96.5 74.9 -96.65 74.05 -96.5 73.55 -96.25 72.55 -96.25 71.55 -96.5 71.4 -96.75 70.55 -97.0 70.15 -97.4 69.8 -97.75 69.4 -98.15 69.05 -98.5 68.8 -98.75 68.05 -99.0 67.8 -99.25 67.05 -99.5 66.65 -99.9 66.4 -100.25 66.4 -100.65 66.15 -101.0 65.9 -101.4 65.9 -101.75 65.5 -102.15 65.25 -102.5 65.0 -102.9 65.0 -103.25 64.5 -103.65 64.25 -104.0 64.0 -104.25 64.0 -104.4 61.4 -104.25 60.75 -103.9 60.5 -103.65 60.4 -103.5 59.65 -103.25 59.4 -103.0 59.0 -102.9 56.5 -102.65 56.4 -102.4 55.0 -102.25 54.15 -102.0 53.9 -101.75 53.5 -101.65 51.65 -101.4 51.5 -101.15 50.65 -100.9 50.5 -100.65 49.65 -100.4 49.5 -100.15 48.15 -99.9 47.25 -99.5 47.0 -99.25 46.5 -99.15 45.65 -98.9 45.0 -98.65 41.65 -98.4 41.0 -98.15 40.0 -98.15 39.4 -98.4 39.0 -98.75 38.75 -99.0 36.65 -98.9 36.0 -98.65 32.0 -98.75 31.65 -99.15 31.25 -99.5 31.0 -99.9 30.65 -100.25 30.4 -100.65 30.0 -101.0 29.75 -101.4 29.75 -101.75 29.65 -102.15 29.5 -102.4 29.5 -102.5 28.75 -102.65 28.15 -102.9 27.9 -103.15 27.25 -103.4 27.25 -103.65 26.75 -103.65 25.65 -103.75 25.65 -104.0 23.25 -104.25 23.0 -104.5 22.15 -104.75 22.15 -105.15 21.9 -105.5 21.5 -105.9 21.15 -106.25 20.9 -106.65 20.5 -107.0 17.0 -106.75 16.5 -106.5 16.0 -106.4 14.15 -106.5 13.9 -106.75 12.0 -106.75 10.0 -106.65 7.9 -106.75 7.0 -107.0 6.25 -107.25 5.65 -107.25 5.25 -106.9 5.0 -106.65 4.5 -106.5 3.0 -106.5 2.25 -106.75 2.0 -107.0 1.25 -107.25 -2.0 -107.5 -2.75 -107.75 -4.0 -107.9 -4.5 -107.9 -5.25 -108.15 -5.85 -108.15 -6.75 -107.75 -7.0 -107.5 -7.6 -107.25 -8.0 -106.9 -8.5 -106.5 -9.35 -106.15 -10.25 -105.75 -10.5 -105.5 -10.5 -105.4 -11.25 -105.15 -11.75 -104.75 -12.0 -104.5 -12.5 -104.4 -17.6 -104.5 -18.0 -104.9 -18.35 -105.25 -19.1 -105.65 -19.35 -105.9 -20.1 -106.15 -20.35 -106.4 -21.6 -106.65 -21.85 -106.9 -25.0 -107.0 -26.0 -107.15 -27.0 -107.4 -27.25 -107.75 -27.25 -108.15 -27.25 -108.5 -27.1 -108.9 -26.5 -109.25 -26.0 -109.0 -25.0 -109.0 -21.5 -109.0 -20.85 -108.75 -20.0 -108.5 -19.35 -108.25 -18.5 -108.0 -17.85 -107.75 -17.35 -107.4 -17.0 -107.15 -16.35 -106.9 -12.75 -106.9 -12.35 -107.25 -12.0 -107.5 -11.35 -107.75 -11.0 -108.0 -10.35 -108.25 -10.0 -108.5 -9.35 -108.75 -9.0 -109.15 -8.6 -109.4 -8.5 -109.5 -7.85 -109.75 -7.5 -110.0 -6.85 -110.25 -6.5 -110.5 -6.0 -110.5 -6.0 -110.65 -4.5 -110.65 -3.85 -110.4 -3.6 -110.15 -2.5 -110.0 -1.85 -109.75 2.0 -109.5 2.65 -109.25 3.0 -108.9 3.65 -108.75 4.0 -108.9 4.65 -109.15 5.0 -109.4 5.5 -109.5 7.0 -109.5 7.65 -109.25 8.0 -109.0 M78.3 -50.85 L78.65 -51.25 79.05 -51.6 79.4 -52.0 79.8 -52.35 80.55 -52.6 81.3 -52.85 82.05 -53.1 82.8 -53.35 83.55 -53.6 85.55 -53.6 86.15 -53.35 87.3 -53.35 88.05 -53.6 94.8 -53.85 95.55 -54.0 95.55 -54.1 97.05 -54.1 97.65 -53.85 100.55 -53.6 101.15 -53.35 101.65 -53.0 101.9 -52.75 103.3 -52.85 104.05 -53.1 105.05 -53.1 105.65 -52.85 106.05 -52.5 106.4 -52.1 106.55 -51.75 106.65 -51.35 107.05 -51.0 107.4 -50.6 107.8 -50.25 108.05 -49.85 109.8 -49.85 110.55 -50.1 111.55 -50.1 112.15 -49.85 112.55 -49.5 113.05 -49.1 113.4 -48.75 114.15 -48.35 114.55 -48.1 115.15 -47.85 115.55 -47.5 115.9 -47.25 116.8 -47.35 117.65 -47.75 118.05 -48.1 118.4 -48.35 118.55 -48.5 119.15 -48.75 119.55 -49.0 120.05 -49.1 121.8 -49.35 122.65 -49.75 123.05 -50.0 123.55 -50.1 125.55 -50.1 126.15 -49.85 126.4 -49.5 126.65 -49.1 126.9 -48.75 127.4 -48.35 127.9 -48.1 128.05 -48.0 128.55 -47.85 129.15 -47.6 130.3 -47.25 130.8 -46.85 130.9 -46.5 131.05 -46.1 131.3 -45.75 131.65 -45.35 132.05 -45.0 132.3 -44.6 132.3 -44.25 132.55 -43.85 132.8 -43.5 133.15 -43.1 133.55 -42.85 133.65 -42.75 136.05 -42.6 136.55 -42.75 137.05 -43.0 140.3 -42.85 140.65 -42.5 141.05 -42.1 141.05 -41.75 141.4 -41.35 141.65 -41.0 142.05 -40.75 142.15 -40.6 143.9 -40.75 144.15 -41.0 144.55 -41.1 145.9 -41.35 146.3 -41.75 146.65 -42.1 147.4 -42.5 148.15 -42.85 148.65 -43.1 149.05 -43.25 149.55 -43.35 150.55 -43.35 151.15 -43.1 151.55 -42.75 151.9 -42.35 152.3 -42.1 152.55 -42.0 153.15 -41.75 153.55 -41.5 154.15 -41.25 154.55 -40.85 154.9 -40.5 155.15 -40.25 155.4 -40.1 158.8 -40.25 159.55 -40.5 160.8 -40.75 161.65 -41.1 162.05 -41.35 162.55 -41.5 163.55 -41.6 164.55 -41.6 165.15 -41.35 166.05 -41.1 166.65 -40.85 167.05 -40.6 170.55 -40.5 171.2 -40.25 171.7 -39.85 172.05 -39.5 172.45 -39.1 Q172.8 -38.95 173.2 -38.75 L175.45 -38.75 176.05 -39.0 179.05 -39.0 180.05 -38.85 180.7 -38.6 181.05 -38.35 181.7 -38.1 182.3 -37.75 182.8 -37.35 183.2 -37.0 184.3 -36.6 184.8 -36.25 185.55 -35.85 185.95 -35.5 186.55 -35.1 187.05 -34.75 187.45 -34.35 187.7 -34.0 188.2 -33.6 188.7 -33.25 189.05 -32.85 189.3 -32.5 188.8 -32.35 188.45 -32.75 187.95 -33.1 187.8 -33.0 187.2 -33.1 186.7 -33.5 186.45 -33.75 185.55 -34.0 185.2 -34.35 184.95 -34.6 184.05 -34.85 183.8 -35.1 182.95 -35.35 182.2 -35.75 181.95 -36.0 181.05 -36.25 180.8 -36.5 180.55 -36.6 179.95 -36.85 179.55 -37.0 176.3 -36.75 176.05 -36.5 173.05 -36.5 172.3 -36.75 171.45 -37.1 171.05 -37.5 170.7 -37.85 170.3 -38.25 167.05 -38.35 166.55 -38.35 165.8 -38.6 165.05 -38.85 164.3 -39.1 163.3 -39.35 163.05 -39.1 162.55 -39.0 161.65 -38.75 161.55 -38.5 159.65 -38.25 159.55 -38.0 155.05 -38.0 154.3 -38.25 154.05 -38.5 153.3 -38.75 153.05 -39.1 152.55 -39.5 152.4 -39.75 152.3 -39.85 151.55 -40.0 150.9 -40.25 150.55 -40.6 150.15 -41.0 149.9 -41.35 148.9 -41.35 148.15 -41.0 147.9 -40.75 147.15 -40.5 146.65 -40.1 146.4 -39.85 145.05 -39.6 144.9 -39.35 144.15 -39.35 141.55 -39.6 141.3 -39.85 140.65 -40.1 140.55 -40.5 140.3 -40.85 140.05 -41.25 139.55 -41.6 139.55 -41.85 137.4 -41.75 137.05 -41.5 136.4 -41.35 132.65 -41.5 132.3 -41.85 131.9 -42.25 131.55 -42.6 131.4 -43.0 131.3 -43.35 130.9 -43.75 130.8 -44.1 130.55 -44.5 130.05 -44.85 129.55 -45.25 129.3 -45.5 129.05 -45.6 128.55 -45.75 128.4 -45.85 126.4 -46.1 125.9 -46.5 125.55 -46.85 125.15 -47.25 124.8 -47.6 124.15 -47.6 123.3 -47.25 123.05 -47.0 122.55 -46.85 120.15 -46.6 119.4 -46.25 119.05 -45.85 118.55 -45.5 118.15 -45.1 118.05 -44.85 114.9 -45.0 114.65 -45.25 113.9 -45.5 113.65 -45.75 112.9 -46.0 112.55 -46.35 112.15 -46.75 111.8 -47.1 110.9 -47.5 110.55 -47.5 107.05 -47.35 106.3 -47.6 106.05 -48.0 105.9 -48.35 105.65 -48.75 105.3 -49.1 105.05 -49.5 104.55 -49.85 104.4 -50.25 104.05 -50.35 101.55 -50.35 100.8 -50.6 100.4 -51.0 100.15 -51.25 96.9 -51.5 96.4 -51.75 96.05 -51.5 96.05 -51.35 88.65 -51.1 88.55 -50.85 84.9 -51.0 84.4 -51.25 84.05 -51.0 84.05 -50.85 82.15 -50.6 81.55 -50.35 80.8 -50.1 80.55 -49.75 80.4 -49.35 80.05 -49.0 79.8 -48.6 79.55 -48.25 79.4 -47.85 79.05 -47.5 78.55 -47.1 77.4 -47.1 77.05 -47.5 77.05 -47.85 77.05 -48.25 77.05 -48.6 77.05 -49.0 77.4 -49.35 77.65 -49.75 77.9 -50.1 78.05 -50.5 78.3 -50.85 M347.6 -108.8 L345.35 -108.9 345.1 -109.15 343.45 -109.05 343.1 -108.8 340.85 -108.55 340.6 -108.3 338.6 -108.15 337.2 -108.15 337.1 -108.4 336.95 -108.4 336.2 -108.15 335.6 -107.8 334.95 -107.4 334.6 -107.05 333.7 -106.65 333.35 -106.3 332.95 -105.9 332.7 -105.55 332.35 -105.15 331.6 -104.8 330.95 -104.4 329.6 -104.05 329.45 -103.8 328.35 -103.55 328.1 -103.3 327.35 -103.05 327.1 -102.8 326.6 -102.65 326.1 -102.55 325.2 -102.3 324.6 -102.05 323.7 -101.8 323.1 -101.55 319.6 -101.55 317.1 -101.65 313.7 -101.9 313.45 -102.15 313.35 -102.3 312.1 -102.55 311.6 -102.55 311.1 -102.15 310.35 -101.8 309.85 -101.4 309.45 -101.15 309.1 -101.05 308.1 -100.8 307.85 -100.55 306.95 -100.3 306.2 -100.05 305.85 -99.65 305.45 -99.3 303.7 -99.3 303.6 -99.55 301.95 -99.4 301.6 -99.05 301.35 -98.8 301.1 -98.65 300.45 -98.4 300.1 -98.15 297.6 -97.9 297.35 -97.65 295.35 -97.4 295.35 -97.15 293.85 -97.15 293.35 -97.4 293.35 -97.8 293.35 -98.15 293.35 -98.55 293.7 -98.65 293.85 -98.3 293.85 -98.05 294.7 -98.15 295.1 -98.4 297.2 -98.65 297.6 -98.9 300.2 -99.15 300.6 -99.4 301.2 -99.65 301.6 -100.05 301.85 -100.3 302.1 -100.4 303.7 -100.3 304.1 -100.05 305.2 -100.15 305.6 -100.55 306.1 -100.9 306.7 -101.3 307.35 -101.65 308.1 -102.05 308.6 -102.4 309.35 -102.8 310.1 -103.15 310.7 -103.55 311.1 -103.9 311.6 -104.15 312.35 -104.05 312.7 -103.8 313.85 -103.55 317.1 -103.4 319.6 -103.55 322.95 -103.8 323.6 -104.05 324.45 -104.3 325.1 -104.55 325.95 -104.65 326.1 -104.8 326.6 -104.9 327.45 -105.15 328.35 -105.55 329.1 -105.8 330.45 -106.05 331.2 -106.4 331.85 -106.8 332.2 -107.15 332.6 -107.55 332.95 -107.9 333.6 -108.3 334.2 -108.65 334.6 -109.05 335.1 -109.3 335.7 -109.55 336.6 -109.9 337.1 -110.05 337.35 -110.05 337.7 -109.65 337.95 -109.3 338.1 -109.05 338.6 -108.9 340.35 -109.05 340.6 -109.3 343.2 -109.55 343.6 -109.8 345.2 -109.65 345.6 -109.4 347.65 -109.15 347.6 -108.8 M195.3 -25.1 L195.55 -25.35 196.05 -25.5 197.3 -25.75 197.7 -26.1 198.05 -26.35 198.7 -26.6 199.05 -26.85 199.55 -27.0 200.3 -27.25 201.05 -27.5 202.3 -27.75 203.2 -28.1 203.55 -28.35 204.2 -28.6 204.55 -29.0 204.95 -29.25 205.05 -29.35 205.7 -29.6 206.05 -30.0 206.45 -30.25 206.55 -30.35 207.2 -30.6 207.55 -30.85 208.2 -31.1 208.55 -31.35 209.2 -31.6 209.55 -32.0 209.95 -32.35 210.05 -32.75 210.2 -33.1 210.55 -33.5 210.8 -33.85 211.2 -34.25 211.45 -34.6 211.55 -35.0 211.8 -35.35 212.45 -35.75 212.55 -36.1 212.95 -36.5 213.3 -36.85 213.7 -37.25 214.05 -37.6 214.55 -38.0 214.95 -38.35 215.2 -38.75 215.55 -39.0 216.2 -39.25 216.55 -39.5 217.05 -39.6 218.8 -39.85 219.55 -40.1 221.05 -40.1 221.7 -39.85 224.3 -39.85 225.05 -40.1 225.8 -40.35 226.55 -40.6 227.3 -40.85 227.7 -41.25 228.05 -41.5 228.55 -41.6 229.8 -41.85 230.55 -42.1 232.3 -42.35 233.05 -42.6 237.8 -42.85 238.2 -43.25 238.55 -43.5 239.05 -43.6 239.8 -43.85 240.7 -44.25 241.05 -44.5 241.55 -44.6 242.3 -44.85 243.05 -45.0 243.05 -45.1 245.55 -45.1 246.2 -44.85 246.7 -44.5 246.95 -44.1 247.45 -43.75 247.8 -43.35 248.05 -43.0 248.2 -42.75 248.55 -42.6 249.2 -42.35 249.55 -42.1 250.2 -41.85 252.55 -41.6 253.2 -41.35 254.05 -41.1 254.7 -40.85 255.55 -40.6 256.2 -40.35 256.55 -40.1 257.2 -39.85 257.55 -39.6 258.2 -39.35 258.55 -39.1 259.2 -38.85 262.3 -38.85 263.05 -39.1 264.05 -39.1 264.7 -38.85 265.55 -38.6 266.2 -38.35 267.3 -38.35 268.05 -38.6 274.1 -38.6 274.7 -38.35 275.6 -38.1 276.2 -37.85 277.1 -37.6 277.7 -37.35 278.1 -37.1 278.7 -36.85 279.1 -36.5 279.2 -36.1 279.45 -35.75 279.85 -35.35 280.2 -35.0 280.45 -34.6 280.95 -34.25 281.1 -33.85 281.2 -33.5 281.2 -33.1 281.45 -32.75 281.6 -32.35 281.7 -32.0 281.95 -31.6 282.45 -31.25 282.7 -30.85 283.6 -30.6 284.2 -30.35 284.6 -30.1 285.2 -29.85 285.6 -29.5 285.95 -29.1 286.1 -28.75 286.2 -28.35 286.45 -28.0 286.6 -27.6 286.6 -27.25 286.6 -26.85 286.6 -26.5 286.6 -26.1 286.7 -25.75 286.95 -25.35 287.1 -25.0 286.95 -24.6 286.95 -24.25 286.95 -23.85 286.95 -23.5 286.95 -23.1 286.95 -22.75 287.2 -22.35 287.45 -22.0 287.85 -21.6 288.45 -21.25 288.6 -20.85 288.85 -20.5 289.1 -20.1 289.1 -19.75 289.35 -19.35 289.7 -19.0 289.95 -18.6 290.1 -18.25 304.1 -18.1 304.7 -17.85 305.1 -17.6 305.7 -17.35 306.1 -17.1 306.7 -16.85 309.1 -16.6 309.7 -16.35 310.2 -16.0 310.45 -15.6 311.2 -15.25 311.6 -14.85 312.2 -14.5 312.45 -14.1 312.45 -13.75 312.6 -13.5 312.7 -13.35 314.35 -13.1 315.1 -12.75 315.7 -12.35 316.1 -12.0 316.85 -11.6 317.2 -11.35 318.35 -11.1 318.7 -10.85 318.7 -11.0 319.1 -11.35 319.45 -11.0 319.7 -10.85 320.2 -11.1 320.95 -11.5 321.35 -11.85 321.7 -12.25 322.2 -12.6 322.85 -13.0 323.2 -13.35 323.6 -13.75 323.95 -14.1 324.35 -14.5 324.7 -14.75 325.1 -14.85 329.1 -15.0 331.35 -15.25 331.7 -15.6 332.1 -16.0 332.35 -16.35 332.95 -16.75 333.1 -17.1 333.45 -17.5 333.85 -17.85 333.95 -18.25 334.1 -18.6 334.35 -19.0 334.45 -19.35 334.7 -19.75 334.95 -20.1 334.95 -20.5 334.95 -20.85 334.95 -21.25 335.1 -21.6 335.35 -22.0 335.45 -22.35 335.45 -22.75 335.45 -23.1 335.6 -23.5 335.85 -23.85 336.2 -24.25 336.45 -24.6 336.6 -25.0 336.85 -25.35 337.2 -25.75 337.6 -26.1 337.95 -26.5 338.35 -26.85 338.7 -27.25 339.35 -27.6 339.95 -28.0 340.35 -28.35 340.7 -28.75 341.1 -29.0 341.6 -29.1 344.35 -29.35 345.1 -29.6 346.85 -29.85 347.6 -30.1 348.35 -30.35 348.95 -30.75 349.1 -31.1 349.45 -31.5 349.85 -31.85 350.45 -32.25 350.6 -32.6 350.95 -33.0 351.35 -33.35 351.7 -33.75 352.1 -34.1 352.45 -34.5 352.85 -34.85 353.2 -35.25 353.6 -35.6 353.85 -35.85 354.1 -36.0 354.7 -36.25 355.1 -36.5 355.6 -36.6 357.6 -36.6 359.1 -36.5 359.6 -36.35 360.2 -36.1 361.1 -35.85 361.7 -35.75 362.45 -35.85 363.2 -36.25 363.6 -36.35 364.45 -36.5 364.95 -36.85 365.45 -37.25 366.2 -37.5 367.2 -37.85 368.2 -38.25 368.7 -38.6 369.2 -39.0 369.35 -39.35 369.35 -39.75 369.35 -40.1 369.35 -40.5 369.7 -40.85 369.85 -41.25 369.85 -41.6 370.7 -42.0 371.1 -42.25 371.7 -42.5 372.2 -42.85 372.35 -43.1 372.6 -43.25 373.2 -43.5 373.2 -43.85 373.2 -44.25 373.2 -44.6 373.2 -45.0 373.2 -45.35 373.2 -45.75 373.2 -46.1 373.2 -46.5 373.2 -46.85 373.1 -47.25 373.1 -47.6 373.1 -48.0 373.1 -48.35 373.2 -48.75 373.45 -49.1 373.6 -49.5 373.85 -49.85 374.1 -50.25 374.1 -50.6 374.35 -51.0 374.75 -51.35 375.0 -51.75 375.1 -52.1 375.35 -52.5 375.75 -52.85 377.6 -53.25 378.1 -53.5 379.1 -53.6 380.1 -53.85 380.6 -54.1 382.0 -54.35 382.25 -54.6 382.6 -54.75 384.6 -54.85 386.85 -55.1 387.1 -55.35 387.6 -55.5 389.1 -55.5 389.75 -55.25 390.1 -55.0 390.75 -54.75 391.1 -54.35 391.5 -54.25 391.6 -54.35 392.1 -54.5 392.85 -54.75 393.6 -55.0 395.35 -55.25 396.25 -55.6 396.6 -55.85 397.25 -56.1 397.5 -56.5 397.6 -56.85 397.85 -57.25 398.75 -57.6 399.25 -58.0 399.6 -58.35 400.0 -58.75 400.75 -59.1 401.1 -59.35 401.6 -59.35 401.6 -59.5 402.1 -59.5 402.75 -59.25 403.0 -58.85 403.35 -58.5 404.1 -58.1 404.5 -57.75 405.1 -57.35 405.85 -57.0 406.6 -56.6 407.25 -56.25 408.1 -56.0 408.85 -56.1 409.25 -56.1 409.25 -55.75 409.0 -55.35 408.6 -55.1 408.1 -55.0 407.6 -54.85 406.25 -55.0 405.85 -55.35 405.35 -55.75 404.75 -56.0 404.6 -56.1 403.1 -56.35 402.0 -56.75 401.85 -57.0 400.85 -56.85 400.5 -56.5 400.1 -56.1 399.75 -55.75 399.5 -55.35 399.1 -55.0 398.6 -54.6 398.35 -54.25 398.1 -54.0 397.25 -53.75 397.1 -53.5 396.25 -53.25 396.1 -53.0 393.75 -52.75 393.6 -52.5 392.75 -52.25 392.6 -52.0 390.5 -52.1 390.25 -52.35 389.5 -52.6 389.1 -53.0 389.0 -53.25 388.75 -53.35 387.75 -53.35 387.6 -53.25 387.1 -53.1 384.6 -53.1 382.6 -53.0 380.75 -52.6 380.5 -52.35 378.75 -52.35 378.1 -52.25 377.6 -52.0 376.1 -51.75 376.1 -51.35 375.85 -51.0 375.5 -50.6 375.1 -50.25 375.1 -49.85 374.75 -49.5 374.6 -49.1 374.5 -48.75 374.1 -48.35 374.1 -48.0 374.1 -47.6 373.95 -47.25 373.95 -46.85 373.95 -46.5 373.95 -46.1 373.95 -45.75 373.95 -45.35 373.95 -45.0 373.95 -44.6 373.95 -44.25 373.85 -43.85 373.85 -43.5 373.7 -43.1 373.45 -42.85 373.35 -42.75 372.85 -42.5 372.6 -42.25 371.95 -42.0 371.6 -41.75 370.95 -41.5 370.35 -41.1 370.35 -40.75 370.2 -40.35 369.85 -40.0 369.85 -39.6 369.85 -39.25 369.7 -38.85 369.65 -38.7 369.45 -38.5 369.45 -38.1 369.45 -37.75 369.1 -37.35 368.85 -37.1 368.85 -37.0 367.6 -36.75 367.45 -36.5 367.45 -36.35 366.2 -36.1 365.85 -35.75 365.35 -35.35 364.7 -35.0 364.45 -34.75 363.7 -34.5 362.95 -34.1 362.6 -33.75 360.95 -33.75 360.7 -34.0 359.45 -34.25 357.6 -34.35 355.7 -34.1 355.6 -33.85 354.85 -33.6 354.45 -33.25 354.1 -32.85 353.7 -32.5 353.35 -32.1 352.95 -31.75 352.7 -31.35 352.6 -31.0 352.35 -30.6 351.95 -30.25 351.35 -29.85 350.95 -29.5 350.85 -29.1 350.35 -28.75 350.1 -28.5 349.6 -28.35 348.85 -28.1 348.1 -27.85 347.35 -27.6 347.1 -27.35 345.2 -27.1 345.1 -26.85 341.85 -26.6 341.35 -26.25 340.85 -25.85 340.2 -25.5 339.85 -25.1 339.45 -24.75 339.1 -24.35 338.7 -24.0 338.6 -23.6 338.35 -23.25 338.1 -22.85 337.7 -22.5 337.7 -22.1 337.7 -21.75 337.7 -21.35 337.45 -21.0 337.35 -20.6 337.2 -20.25 337.2 -19.85 337.2 -19.5 337.1 -19.1 336.85 -18.75 336.6 -18.35 336.35 -18.0 336.2 -17.6 336.1 -17.25 335.95 -16.85 335.7 -16.5 335.35 -16.1 335.1 -15.75 334.95 -15.35 334.7 -15.0 334.2 -14.6 333.7 -14.25 333.35 -13.85 332.95 -13.5 332.7 -13.25 332.6 -13.1 332.1 -13.0 328.6 -13.0 325.2 -12.85 324.85 -12.5 324.45 -12.1 323.95 -11.75 323.2 -11.35 322.7 -11.0 322.35 -10.6 321.95 -10.25 321.45 -9.85 320.6 -9.5 320.35 -9.35 320.6 -9.25 321.2 -8.85 321.85 -8.5 322.35 -8.1 322.7 -7.75 323.1 -7.35 323.45 -7.0 323.7 -6.6 323.95 -6.25 324.35 -5.85 324.6 -5.6 326.6 -5.75 327.1 -6.0 329.85 -5.85 330.1 -5.5 330.1 -5.1 330.1 -4.75 330.1 -4.35 331.6 -4.35 332.35 -4.75 332.7 -5.0 333.1 -5.1 334.6 -5.35 335.1 -5.6 341.85 -5.5 342.6 -5.1 343.1 -4.75 343.6 -4.35 343.85 -4.0 344.6 -3.6 345.1 -3.25 345.6 -2.85 345.7 -2.5 346.1 -2.1 346.6 -1.75 346.7 -1.35 346.95 -1.0 347.2 -0.6 347.6 -0.25 347.7 0.15 348.35 0.5 348.85 0.9 349.45 1.25 350.1 1.65 350.35 2.0 350.6 2.4 351.1 2.65 352.2 2.9 352.35 3.15 352.35 3.25 350.85 3.25 349.6 2.9 349.1 2.5 348.45 2.15 347.85 1.75 347.1 1.4 346.7 1.0 346.2 0.65 345.95 0.25 345.85 -0.1 345.6 -0.5 345.2 -0.85 344.85 -1.25 344.6 -1.6 344.1 -2.0 343.7 -2.35 343.45 -2.6 343.35 -2.75 342.6 -3.0 342.2 -3.35 342.1 -3.6 341.95 -3.75 341.1 -4.0 340.95 -4.25 335.1 -4.1 334.6 -3.85 333.1 -3.6 332.2 -3.25 331.95 -3.0 331.6 -2.85 329.2 -3.0 328.95 -3.35 328.95 -3.75 328.95 -4.1 329.1 -4.5 329.1 -4.75 329.1 -4.85 327.1 -4.75 326.6 -4.5 323.6 -4.6 323.45 -5.0 323.1 -5.35 322.95 -5.75 322.45 -6.1 322.1 -6.5 321.7 -6.85 321.35 -7.25 320.2 -7.35 319.6 -7.75 318.95 -8.1 318.6 -8.5 318.35 -8.85 318.2 -9.25 318.1 -9.5 317.95 -9.6 316.6 -9.85 316.35 -10.1 315.2 -10.35 314.85 -10.75 314.35 -11.1 313.6 -11.5 311.6 -11.85 311.2 -12.25 310.95 -12.6 310.85 -12.85 309.95 -13.1 309.6 -13.5 309.2 -13.85 308.95 -14.1 308.7 -14.25 305.95 -14.5 305.7 -14.75 304.45 -15.0 304.1 -15.35 303.95 -15.6 303.7 -15.75 292.1 -15.8 292.2 -15.6 292.35 -15.35 292.35 -15.25 291.7 -15.35 291.35 -15.75 291.2 -15.8 289.1 -15.85 288.35 -16.1 288.1 -16.5 287.95 -16.75 286.7 -16.6 286.1 -16.35 284.1 -16.35 283.35 -16.6 282.2 -16.6 281.35 -16.25 281.1 -16.0 280.6 -15.85 278.2 -15.6 277.95 -15.25 277.6 -14.85 277.1 -14.5 276.6 -14.1 276.35 -13.75 275.85 -13.35 275.45 -13.0 275.35 -12.6 274.95 -12.25 274.6 -11.85 274.2 -11.5 273.85 -11.1 273.45 -10.75 273.1 -10.35 272.7 -10.0 272.6 -9.6 272.35 -9.25 272.1 -8.85 271.55 -8.5 271.2 -8.1 270.3 -7.75 270.05 -7.35 269.95 -7.0 269.55 -6.6 269.2 -6.25 268.95 -5.85 268.55 -5.5 268.05 -5.1 267.95 -4.75 267.8 -4.35 267.45 -4.0 267.05 -3.6 266.8 -3.25 266.55 -2.85 266.3 -2.5 266.05 -2.1 265.7 -1.75 265.2 -1.35 264.55 -1.1 263.05 -0.85 262.7 -0.5 262.3 -0.1 261.95 0.25 261.8 0.65 261.55 1.0 261.3 1.4 261.2 1.75 260.95 2.15 260.8 2.5 260.7 2.9 260.2 3.25 259.8 3.65 259.45 4.0 259.05 4.4 258.55 4.65 256.55 4.9 255.7 5.25 255.2 5.65 254.95 6.0 254.2 6.4 254.05 6.75 253.8 7.15 253.7 7.5 253.55 7.9 253.3 8.25 252.8 8.65 252.55 9.0 252.3 9.4 251.95 9.75 251.8 10.15 251.8 10.5 251.55 10.75 250.95 11.0 250.3 11.15 250.45 10.75 250.8 10.4 251.2 10.0 251.2 9.65 251.05 9.25 251.05 8.9 251.45 8.5 251.7 8.15 251.95 7.75 252.3 7.4 252.45 7.0 252.55 6.65 252.8 6.25 252.95 5.9 253.2 5.5 253.55 5.15 253.95 4.75 254.55 4.4 255.2 4.0 256.05 3.65 256.55 3.4 258.55 3.15 258.8 2.75 258.95 2.4 259.2 2.0 259.3 1.65 259.3 1.25 259.7 0.9 260.05 0.5 260.3 0.15 260.3 -0.25 260.55 -0.6 260.95 -1.0 261.2 -1.35 261.3 -1.75 261.7 -2.1 262.3 -2.5 262.7 -2.75 263.05 -2.85 263.95 -3.1 264.2 -3.5 264.55 -3.85 264.95 -4.25 265.3 -4.6 265.55 -5.0 265.55 -5.35 265.95 -5.75 266.3 -6.1 266.55 -6.5 266.95 -6.85 267.05 -7.25 267.2 -7.6 267.55 -8.0 268.05 -8.35 268.3 -8.75 268.7 -9.1 269.05 -9.5 269.3 -9.85 269.7 -10.25 270.3 -10.6 270.55 -11.0 270.8 -11.35 271.2 -11.75 271.55 -12.1 271.95 -12.5 272.35 -12.85 272.7 -13.25 273.1 -13.6 273.35 -14.0 273.45 -14.35 273.7 -14.75 274.1 -15.1 274.6 -15.5 274.85 -15.85 275.2 -16.25 275.85 -16.6 276.1 -17.0 276.35 -17.35 277.2 -17.75 277.6 -18.0 278.1 -18.1 280.35 -18.35 281.2 -18.75 281.6 -19.0 282.1 -19.0 282.1 -19.1 283.6 -19.1 284.2 -18.85 285.85 -18.85 286.6 -19.1 288.1 -19.1 288.1 -19.5 287.85 -19.85 287.6 -20.25 287.1 -20.6 286.7 -21.0 285.6 -21.35 285.35 -21.75 285.35 -22.1 285.35 -22.5 285.2 -22.85 285.2 -23.25 285.2 -23.6 285.2 -24.0 285.1 -24.35 284.95 -24.75 284.6 -25.1 284.6 -25.5 284.6 -25.85 284.6 -26.25 284.6 -26.6 284.45 -27.0 284.2 -27.35 283.7 -27.75 282.85 -28.1 282.6 -28.35 281.85 -28.6 281.6 -28.85 280.85 -29.1 280.45 -29.5 280.1 -29.85 279.95 -30.25 279.85 -30.6 279.45 -31.0 279.45 -31.35 279.2 -31.75 278.95 -32.1 278.85 -32.5 278.6 -32.85 278.45 -33.25 278.35 -33.6 277.95 -34.0 277.6 -34.35 277.2 -34.75 276.35 -35.1 276.1 -35.35 275.35 -35.6 274.6 -35.85 273.85 -36.1 268.2 -36.1 267.55 -35.85 264.95 -36.0 264.7 -36.25 263.55 -36.35 263.55 -36.5 263.05 -36.5 263.05 -36.35 258.55 -36.35 257.8 -36.6 257.45 -37.0 257.2 -37.25 256.55 -37.35 255.8 -37.6 255.55 -37.85 254.8 -38.1 253.95 -38.5 253.7 -38.75 252.45 -39.0 252.2 -39.25 249.45 -39.5 249.2 -39.75 248.45 -40.0 248.2 -40.25 246.95 -40.5 246.55 -40.85 246.2 -41.25 245.95 -41.6 245.55 -42.0 245.05 -42.35 244.95 -42.6 244.95 -42.75 243.2 -42.6 243.05 -42.35 241.7 -42.1 241.55 -41.85 240.55 -41.6 240.05 -41.35 239.3 -41.1 238.95 -40.75 238.55 -40.5 238.55 -40.35 233.2 -40.1 232.55 -39.85 230.7 -39.6 230.55 -39.35 228.8 -39.1 228.45 -38.75 228.05 -38.5 228.05 -38.35 226.7 -38.1 226.05 -37.85 225.2 -37.6 224.55 -37.35 221.55 -37.35 220.8 -37.6 219.7 -37.6 219.55 -37.35 217.2 -37.1 216.95 -36.75 216.55 -36.35 216.05 -36.0 215.7 -35.6 214.95 -35.25 214.7 -34.85 214.45 -34.5 214.3 -34.1 213.8 -33.75 213.45 -33.35 213.2 -33.0 212.8 -32.6 212.55 -32.25 212.45 -31.85 212.05 -31.5 211.7 -31.1 211.55 -30.75 211.3 -30.35 211.05 -30.1 211.05 -30.0 210.2 -29.75 210.05 -29.5 209.2 -29.25 209.05 -29.0 208.2 -28.75 208.05 -28.5 207.3 -28.25 206.8 -27.85 206.55 -27.6 205.95 -27.35 205.55 -27.0 205.05 -26.6 204.2 -26.25 204.05 -26.0 203.2 -25.75 203.05 -25.5 201.2 -25.25 201.05 -25.0 200.2 -24.75 200.05 -24.5 199.2 -24.25 199.05 -24.0 198.2 -23.75 198.05 -23.5 196.7 -23.25 196.05 -23.0 195.55 -23.0 194.3 -23.1 193.95 -22.75 193.45 -22.35 192.55 -22.0 192.3 -21.6 191.95 -21.25 191.45 -20.85 191.05 -20.5 190.7 -20.1 190.45 -19.85 190.05 -19.75 189.3 -19.5 187.7 -19.1 187.45 -18.85 186.45 -19.0 186.05 -19.25 186.05 -19.35 182.8 -19.5 182.05 -19.35 181.95 -19.0 181.8 -18.75 181.8 -18.6 181.05 -18.35 180.7 -18.0 180.45 -17.6 180.3 -17.25 180.2 -16.85 179.8 -16.85 179.45 -17.25 179.3 -17.6 179.55 -17.85 179.7 -18.1 180.05 -18.5 180.45 -18.85 180.8 -19.25 181.2 -19.6 181.55 -20.0 181.8 -20.25 182.05 -20.35 183.05 -20.5 186.8 -20.5 187.2 -20.5 187.55 -20.6 188.95 -20.85 189.45 -21.25 189.8 -21.6 190.05 -22.0 190.7 -22.35 190.8 -22.75 191.2 -23.1 191.95 -23.5 192.2 -23.85 192.7 -24.25 193.45 -24.5 193.55 -24.6 194.05 -24.75 194.55 -24.85 195.3 -25.1 M349.1 -109.3 L352.6 -109.4 353.7 -109.3 354.2 -109.15 356.35 -109.05 356.95 -109.05 357.6 -109.3 361.85 -109.15 362.35 -108.9 363.85 -108.65 Q364.25 -108.5 364.6 -108.3 L365.25 -108.05 365.5 -107.9 366.85 -107.65 367.6 -107.3 368.35 -106.9 369.1 -106.55 369.85 -106.15 370.6 -105.8 371.25 -105.55 374.0 -105.65 374.35 -106.05 374.75 -106.3 375.1 -106.4 376.5 -106.65 377.1 -106.9 378.0 -107.15 378.6 -107.4 379.5 -107.65 380.1 -107.9 381.0 -108.15 381.75 -108.55 382.1 -108.8 382.75 -109.05 383.1 -109.3 383.75 -109.55 384.1 -109.8 384.75 -110.05 385.25 -110.4 385.6 -110.8 386.0 -111.15 386.6 -111.4 388.5 -111.65 388.85 -112.05 389.25 -112.4 389.5 -112.65 389.6 -112.8 390.25 -113.05 390.75 -113.4 391.0 -113.65 391.1 -113.8 391.6 -113.8 391.6 -113.9 394.85 -113.8 395.6 -113.4 396.35 -113.05 397.1 -112.65 397.85 -112.3 398.35 -112.05 399.85 -111.8 400.35 -111.55 401.35 -111.3 402.1 -110.9 402.85 -110.55 403.6 -110.15 404.35 -109.8 404.85 -109.55 407.85 -109.3 408.35 -109.05 411.1 -108.9 412.85 -108.65 413.6 -108.3 414.25 -107.9 414.75 -107.65 415.6 -107.8 416.35 -107.4 416.75 -107.05 417.0 -106.65 417.25 -106.3 417.35 -105.9 418.1 -105.55 418.35 -105.15 418.35 -104.8 418.6 -104.55 418.75 -104.4 420.85 -104.15 421.25 -103.9 421.6 -103.8 422.35 -103.55 423.1 -103.15 423.75 -102.8 424.85 -102.4 425.25 -102.05 426.75 -101.65 427.25 -101.3 427.35 -100.9 426.75 -100.9 426.5 -101.15 425.35 -101.15 425.35 -101.05 424.75 -101.15 423.1 -101.55 422.6 -101.9 421.85 -102.3 420.75 -102.4 420.5 -102.65 418.25 -102.9 417.85 -103.3 417.5 -103.65 417.1 -104.05 416.75 -104.4 416.35 -104.8 416.0 -105.15 415.85 -105.55 415.6 -105.9 415.5 -105.8 414.1 -105.9 413.85 -106.15 413.1 -106.4 412.85 -106.65 412.1 -106.9 411.85 -107.15 411.1 -107.15 407.75 -107.3 407.35 -107.55 404.25 -107.8 403.85 -108.05 402.75 -108.3 402.25 -108.65 401.75 -109.05 Q401.35 -109.25 401.0 -109.4 L399.75 -109.8 399.35 -110.05 397.75 -110.3 397.0 -110.65 396.5 -110.9 396.35 -111.05 395.25 -111.3 394.75 -111.65 394.5 -111.9 394.35 -112.05 391.75 -111.9 391.35 -111.55 391.1 -111.3 390.35 -111.05 390.0 -110.65 389.6 -110.3 389.25 -109.9 388.6 -109.65 387.25 -109.4 386.35 -109.05 386.0 -108.65 385.75 -108.4 385.6 -108.3 384.85 -108.05 384.6 -107.8 383.85 -107.55 383.6 -107.3 382.85 -107.05 382.6 -106.8 381.85 -106.55 381.6 -106.3 381.1 -106.15 380.1 -105.9 379.6 -105.65 378.6 -105.4 378.1 -105.15 377.1 -104.9 376.6 -104.65 375.6 -104.4 374.85 -104.05 374.5 -103.8 374.1 -103.65 371.1 -103.65 370.1 -103.9 369.5 -104.3 368.85 -104.65 368.5 -105.05 367.6 -105.4 367.35 -105.65 366.6 -105.9 366.35 -106.15 365.0 -106.4 364.5 -106.65 363.6 -106.9 363.35 -107.15 361.6 -107.4 361.35 -107.65 358.1 -107.55 357.95 -107.3 355.7 -107.4 355.45 -107.65 355.35 -107.8 354.1 -108.05 353.7 -108.4 352.35 -108.65 349.1 -108.85 349.1 -109.3 M423.85 -62.5 L424.0 -62.85 424.25 -63.1 424.6 -63.1 424.6 -63.25 428.85 -63.1 429.35 -62.85 430.1 -62.85 431.35 -62.75 431.85 -62.5 433.35 -62.25 433.85 -62.0 434.6 -61.85 435.25 -61.6 436.1 -61.35 436.75 -61.1 437.1 -61.0 437.75 -60.75 Q437.95 -60.6 438.1 -60.5 L438.75 -60.25 439.0 -59.85 439.1 -59.6 439.1 -59.5 439.75 -59.25 440.1 -59.0 440.75 -58.75 441.6 -58.5 442.25 -58.25 442.6 -58.0 443.25 -57.75 443.6 -57.35 444.0 -57.0 444.35 -56.6 444.5 -56.25 444.6 -55.85 444.85 -55.5 445.1 -55.1 445.0 -54.75 444.85 -54.35 444.6 -54.1 444.6 -54.0 443.0 -54.1 442.75 -54.5 442.6 -54.85 442.6 -55.25 442.0 -55.6 441.85 -55.85 441.6 -56.0 441.0 -56.25 440.6 -56.5 440.0 -56.75 439.1 -57.0 438.5 -57.25 438.1 -57.6 437.75 -58.0 437.35 -58.35 437.0 -58.75 436.75 -59.0 436.0 -59.25 435.75 -59.5 435.1 -59.6 434.5 -59.85 433.6 -60.1 433.0 -60.35 431.25 -60.75 430.85 -61.0 430.1 -61.1 428.6 -61.35 428.35 -61.6 425.1 -61.5 424.85 -61.1 424.75 -60.75 424.5 -60.35 424.1 -60.0 424.0 -59.75 423.25 -59.75 422.6 -59.6 422.1 -59.35 421.1 -59.1 420.6 -58.85 419.75 -58.6 419.1 -58.25 418.35 -57.85 417.6 -57.5 417.25 -57.1 416.85 -56.75 416.35 -56.35 416.0 -56.0 415.6 -55.6 415.5 -55.35 414.6 -55.5 412.75 -55.85 412.5 -56.1 411.85 -56.35 411.85 -56.6 412.1 -56.75 412.75 -56.6 413.1 -56.35 414.5 -56.5 414.6 -56.85 415.0 -57.25 415.6 -57.6 416.25 -58.0 416.6 -58.35 416.85 -58.75 417.25 -59.1 418.1 -59.5 418.85 -59.85 419.6 -60.1 420.5 -60.35 421.35 -60.75 421.75 -61.0 422.1 -61.1 423.0 -61.35 423.35 -61.75 423.75 -62.1 423.85 -62.5" fill="#131a06" fill-rule="evenodd" stroke="none"/>
    <path d="M500.85 -165.2 L501.35 -164.95 503.1 -165.05 503.6 -165.3 505.45 -165.55 504.95 -165.4 503.4 -165.15 503.15 -164.95 501.35 -164.85 500.8 -165.15 500.45 -165.25 500.85 -165.2 M521.35 -166.55 L521.1 -166.5 521.1 -166.55 521.35 -166.55 M520.6 -166.45 L520.9 -166.45 520.2 -166.15 519.75 -165.9 520.25 -166.2 520.6 -166.45 M522.85 -165.7 L522.3 -166.1 521.4 -166.55 521.6 -166.55 522.25 -166.3 522.6 -165.95 522.85 -165.7 M519.35 -165.8 L519.0 -165.75 518.35 -165.85 517.55 -166.0 516.65 -165.85 516.45 -165.75 516.6 -165.95 517.1 -166.05 518.1 -166.05 518.75 -165.8 519.35 -165.8 M511.1 -165.95 L511.6 -165.95 510.75 -165.75 509.8 -165.55 509.5 -165.55 510.5 -165.7 511.1 -165.95 M509.3 -165.6 L509.1 -165.65 509.0 -165.7 509.3 -165.6 M508.0 -165.9 L507.55 -165.9 508.1 -165.95 508.85 -165.8 508.0 -165.9 M514.25 -165.45 L513.65 -165.2 513.55 -165.25 513.6 -165.3 514.1 -165.45 514.25 -165.45 M512.8 -165.6 L512.55 -165.75 512.75 -165.7 512.8 -165.6 M512.3 -165.85 L511.7 -165.95 512.1 -165.95 512.3 -165.85" fill="#2c5421" fill-rule="evenodd" stroke="none"/>
  </g>
  <defs>
    <linearGradient gradientTransform="matrix(0.0, -0.1478, 0.1361, 0.0, 315.05, -43.0)" gradientUnits="userSpaceOnUse" id="gradient0" spreadMethod="pad" x1="-819.2" x2="819.2">
      <stop offset="0.0" stop-color="#0d180a"/>
      <stop offset="1.0" stop-color="#153722"/>
    </linearGradient>
    <linearGradient gradientTransform="matrix(0.0229, 0.0, 0.0, 0.0075, 639.65, -110.8)" gradientUnits="userSpaceOnUse" id="gradient1" spreadMethod="pad" x1="-819.2" x2="819.2">
      <stop offset="0.0" stop-color="#111f0a"/>
      <stop offset="1.0" stop-color="#000000"/>
    </linearGradient>
    <linearGradient gradientTransform="matrix(0.0209, 0.0, 0.0, 0.0034, 114.9, -141.9)" gradientUnits="userSpaceOnUse" id="gradient2" spreadMethod="pad" x1="-819.2" x2="819.2">
      <stop offset="0.0" stop-color="#111f0a"/>
      <stop offset="1.0" stop-color="#000000"/>
    </linearGradient>
    <linearGradient gradientTransform="matrix(0.0061, 0.0, 0.0, 0.0011, 83.8, -144.55)" gradientUnits="userSpaceOnUse" id="gradient3" spreadMethod="pad" x1="-819.2" x2="819.2">
      <stop offset="0.0" stop-color="#111f0a"/>
      <stop offset="1.0" stop-color="#000000"/>
    </linearGradient>
    <linearGradient gradientTransform="matrix(0.0077, 0.0, 0.0, 0.0026, 90.95, -133.9)" gradientUnits="userSpaceOnUse" id="gradient4" spreadMethod="pad" x1="-819.2" x2="819.2">
      <stop offset="0.0" stop-color="#111f0a"/>
      <stop offset="1.0" stop-color="#000000"/>
    </linearGradient>
    <linearGradient gradientTransform="matrix(0.0685, 0.0, 0.0, 0.0056, 201.75, -138.7)" gradientUnits="userSpaceOnUse" id="gradient5" spreadMethod="pad" x1="-819.2" x2="819.2">
      <stop offset="0.0" stop-color="#111f0a"/>
      <stop offset="1.0" stop-color="#000000"/>
    </linearGradient>
    <linearGradient gradientTransform="matrix(0.0116, 0.0, 0.0, 0.0016, 14.25, -149.1)" gradientUnits="userSpaceOnUse" id="gradient6" spreadMethod="pad" x1="-819.2" x2="819.2">
      <stop offset="0.0" stop-color="#111f0a"/>
      <stop offset="1.0" stop-color="#000000"/>
    </linearGradient>
    <linearGradient gradientTransform="matrix(0.0091, 0.0, 0.0, 0.0017, 19.7, -141.75)" gradientUnits="userSpaceOnUse" id="gradient7" spreadMethod="pad" x1="-819.2" x2="819.2">
      <stop offset="0.0" stop-color="#111f0a"/>
      <stop offset="1.0" stop-color="#000000"/>
    </linearGradient>
    <linearGradient gradientTransform="matrix(0.0113, 0.0, 0.0, 0.0015, -2.5, -136.5)" gradientUnits="userSpaceOnUse" id="gradient8" spreadMethod="pad" x1="-819.2" x2="819.2">
      <stop offset="0.0" stop-color="#111f0a"/>
      <stop offset="1.0" stop-color="#000000"/>
    </linearGradient>
    <linearGradient gradientTransform="matrix(0.0143, 0.0, 0.0, 0.0011, 56.05, -147.05)" gradientUnits="userSpaceOnUse" id="gradient9" spreadMethod="pad" x1="-819.2" x2="819.2">
      <stop offset="0.0" stop-color="#111f0a"/>
      <stop offset="1.0" stop-color="#000000"/>
    </linearGradient>
    <linearGradient gradientTransform="matrix(0.021, 0.0, 0.0, 0.0023, 59.45, -135.1)" gradientUnits="userSpaceOnUse" id="gradient10" spreadMethod="pad" x1="-819.2" x2="819.2">
      <stop offset="0.0" stop-color="#111f0a"/>
      <stop offset="1.0" stop-color="#000000"/>
    </linearGradient>
    <linearGradient gradientTransform="matrix(0.0125, 0.0, 0.0, 0.002, 264.55, -145.95)" gradientUnits="userSpaceOnUse" id="gradient11" spreadMethod="pad" x1="-819.2" x2="819.2">
      <stop offset="0.0" stop-color="#111f0a"/>
      <stop offset="1.0" stop-color="#000000"/>
    </linearGradient>
    <linearGradient gradientTransform="matrix(0.0293, 0.0, 0.0, 0.0046, 286.8, -136.25)" gradientUnits="userSpaceOnUse" id="gradient12" spreadMethod="pad" x1="-819.2" x2="819.2">
      <stop offset="0.0" stop-color="#111f0a"/>
      <stop offset="1.0" stop-color="#000000"/>
    </linearGradient>
    <linearGradient gradientTransform="matrix(0.0083, 0.0, 0.0, 0.0027, 320.5, -135.5)" gradientUnits="userSpaceOnUse" id="gradient13" spreadMethod="pad" x1="-819.2" x2="819.2">
      <stop offset="0.0" stop-color="#111f0a"/>
      <stop offset="1.0" stop-color="#000000"/>
    </linearGradient>
    <linearGradient gradientTransform="matrix(0.0333, 0.0, 0.0, 0.0079, 320.6, -103.6)" gradientUnits="userSpaceOnUse" id="gradient14" spreadMethod="pad" x1="-819.2" x2="819.2">
      <stop offset="0.0" stop-color="#111f0a"/>
      <stop offset="1.0" stop-color="#000000"/>
    </linearGradient>
    <linearGradient gradientTransform="matrix(0.0109, 0.0, 0.0, 0.0026, 228.2, -123.05)" gradientUnits="userSpaceOnUse" id="gradient15" spreadMethod="pad" x1="-819.2" x2="819.2">
      <stop offset="0.0" stop-color="#111f0a"/>
      <stop offset="1.0" stop-color="#000000"/>
    </linearGradient>
    <linearGradient gradientTransform="matrix(0.0198, 0.0, 0.0, 0.0022, 432.95, -147.85)" gradientUnits="userSpaceOnUse" id="gradient16" spreadMethod="pad" x1="-819.2" x2="819.2">
      <stop offset="0.0" stop-color="#111f0a"/>
      <stop offset="1.0" stop-color="#000000"/>
    </linearGradient>
    <linearGradient gradientTransform="matrix(0.0092, 0.0, 0.0, 0.0012, 436.35, -133.9)" gradientUnits="userSpaceOnUse" id="gradient17" spreadMethod="pad" x1="-819.2" x2="819.2">
      <stop offset="0.0" stop-color="#111f0a"/>
      <stop offset="1.0" stop-color="#000000"/>
    </linearGradient>
    <linearGradient gradientTransform="matrix(0.0183, 0.0, 0.0, 0.0021, 392.3, -138.15)" gradientUnits="userSpaceOnUse" id="gradient18" spreadMethod="pad" x1="-819.2" x2="819.2">
      <stop offset="0.0" stop-color="#111f0a"/>
      <stop offset="1.0" stop-color="#000000"/>
    </linearGradient>
    <linearGradient gradientTransform="matrix(0.0479, 0.0, 0.0, 0.0079, 388.1, -107.4)" gradientUnits="userSpaceOnUse" id="gradient19" spreadMethod="pad" x1="-819.2" x2="819.2">
      <stop offset="0.0" stop-color="#111f0a"/>
      <stop offset="1.0" stop-color="#000000"/>
    </linearGradient>
    <linearGradient gradientTransform="matrix(0.0211, 0.0, 0.0, 0.0023, 495.1, -142.3)" gradientUnits="userSpaceOnUse" id="gradient20" spreadMethod="pad" x1="-819.2" x2="819.2">
      <stop offset="0.0" stop-color="#111f0a"/>
      <stop offset="1.0" stop-color="#000000"/>
    </linearGradient>
    <linearGradient gradientTransform="matrix(0.0059, 0.0, 0.0, 0.0013, 342.5, -134.7)" gradientUnits="userSpaceOnUse" id="gradient21" spreadMethod="pad" x1="-819.2" x2="819.2">
      <stop offset="0.0" stop-color="#111f0a"/>
      <stop offset="1.0" stop-color="#000000"/>
    </linearGradient>
    <linearGradient gradientTransform="matrix(0.0266, 0.0, 0.0, 0.0039, 624.2, -146.75)" gradientUnits="userSpaceOnUse" id="gradient22" spreadMethod="pad" x1="-819.2" x2="819.2">
      <stop offset="0.0" stop-color="#111f0a"/>
      <stop offset="1.0" stop-color="#000000"/>
    </linearGradient>
    <linearGradient gradientTransform="matrix(9.0E-4, 0.0, 0.0, 3.0E-4, 600.15, -146.05)" gradientUnits="userSpaceOnUse" id="gradient23" spreadMethod="pad" x1="-819.2" x2="819.2">
      <stop offset="0.0" stop-color="#111f0a"/>
      <stop offset="1.0" stop-color="#000000"/>
    </linearGradient>
    <linearGradient gradientTransform="matrix(0.0177, 0.0, 0.0, 0.0014, 543.35, -129.75)" gradientUnits="userSpaceOnUse" id="gradient24" spreadMethod="pad" x1="-819.2" x2="819.2">
      <stop offset="0.0" stop-color="#111f0a"/>
      <stop offset="1.0" stop-color="#000000"/>
    </linearGradient>
    <linearGradient gradientTransform="matrix(0.0125, 0.0, 0.0, 0.003, -15.0, -142.35)" gradientUnits="userSpaceOnUse" id="gradient25" spreadMethod="pad" x1="-819.2" x2="819.2">
      <stop offset="0.0" stop-color="#111f0a"/>
      <stop offset="1.0" stop-color="#000000"/>
    </linearGradient>
  </defs>
</svg>
