<?xml version="1.0" encoding="UTF-8" standalone="no"?>
<svg xmlns:xlink="http://www.w3.org/1999/xlink" height="17.25px" width="57.8px" xmlns="http://www.w3.org/2000/svg">
  <g transform="matrix(1.0, 0.0, 0.0, 1.0, 0.0, 0.0)">
    <path d="M55.45 6.05 L55.45 6.15 53.85 7.4 52.75 8.3 52.4 8.4 52.15 8.35 50.35 9.25 Q47.95 10.35 46.4 10.35 L43.2 9.75 41.05 9.15 41.0 9.3 40.25 8.95 39.65 8.8 39.6 8.65 38.85 7.95 37.9 6.75 37.9 6.65 41.25 3.05 41.25 3.15 41.7 2.8 44.35 1.2 Q44.9 0.85 45.6 0.7 L47.5 0.3 48.75 0.2 49.1 0.15 Q53.7 -0.5 57.8 1.65 L55.05 5.85 Q55.35 5.8 55.45 6.05 M17.3 9.85 L17.75 10.45 17.85 10.8 17.9 10.8 17.95 11.05 17.9 11.2 17.5 11.65 16.9 12.2 16.75 12.2 16.6 12.1 16.45 12.05 14.05 13.95 12.55 15.45 12.55 15.5 12.3 15.95 11.25 16.35 9.75 16.9 9.25 16.95 9.05 17.05 8.8 17.15 8.05 17.25 7.0 17.1 2.5 16.2 Q1.3 15.85 0.55 14.6 L0.0 13.6 0.2 13.2 0.1 12.9 Q0.1 10.9 5.3 8.2 8.95 6.3 10.05 6.6 10.75 6.2 11.8 6.2 L11.9 6.2 12.0 6.15 12.8 6.35 14.55 7.1 16.05 8.4 17.3 9.85" fill="#fef078" fill-rule="evenodd" stroke="none"/>
  </g>
</svg>
