<?xml version="1.0" encoding="UTF-8" standalone="no"?>
<svg xmlns:xlink="http://www.w3.org/1999/xlink" height="6.2px" width="22.65px" xmlns="http://www.w3.org/2000/svg">
  <g transform="matrix(1.0, 0.0, 0.0, 1.0, -1.05, 28.05)">
    <path d="M23.7 -27.75 Q23.15 -27.25 22.3 -27.2 L20.85 -27.15 19.05 -27.2 18.05 -26.9 14.65 -25.7 11.25 -25.7 Q7.0 -24.6 5.4 -23.75 2.15 -22.55 1.5 -21.9 L1.1 -21.9 1.1 -21.85 1.05 -22.1 Q1.05 -22.45 1.2 -22.55 L1.35 -22.35 3.0 -23.3 5.3 -24.45 7.7 -25.25 10.1 -26.1 Q11.2 -26.6 12.4 -26.5 L14.7 -26.55 16.0 -26.85 17.45 -27.35 20.1 -27.8 21.95 -28.0 23.7 -27.75" fill="#26d9d9" fill-rule="evenodd" stroke="none"/>
  </g>
</svg>
