<?xml version="1.0" encoding="UTF-8" standalone="no"?>
<svg xmlns:xlink="http://www.w3.org/1999/xlink" height="13.85px" width="22.35px" xmlns="http://www.w3.org/2000/svg">
  <g transform="matrix(1.0, 0.0, 0.0, 1.0, -43.2, 44.15)">
    <path d="M62.25 -32.3 L55.95 -31.65 55.35 -31.7 52.95 -31.55 52.35 -31.35 50.6 -31.05 47.9 -30.9 47.65 -30.55 45.6 -30.3 45.6 -30.55 45.5 -30.65 45.6 -30.7 45.6 -30.8 45.8 -30.8 47.3 -31.4 47.4 -32.1 46.95 -34.8 Q47.1 -35.65 45.6 -37.4 44.65 -38.5 43.95 -39.95 43.2 -41.55 43.2 -42.6 43.2 -44.05 43.65 -44.15 L43.85 -42.7 Q43.85 -41.6 44.15 -41.1 L44.95 -39.6 45.8 -38.1 Q47.75 -36.05 47.55 -35.1 L48.0 -32.15 48.0 -31.55 48.15 -31.55 54.35 -32.25 55.5 -32.3 55.9 -32.25 58.6 -32.55 62.4 -32.75 62.75 -33.0 65.4 -33.15 65.55 -32.85 64.05 -32.3 62.55 -31.95 Q62.25 -31.95 62.25 -32.3" fill="#26d9d9" fill-rule="evenodd" stroke="none"/>
  </g>
</svg>
