<?xml version="1.0" encoding="UTF-8" standalone="no"?>
<svg xmlns:xlink="http://www.w3.org/1999/xlink" height="4.5px" width="31.15px" xmlns="http://www.w3.org/2000/svg">
  <g transform="matrix(1.0, 0.0, 0.0, 1.0, 58.8, 11.85)">
    <path d="M-53.0 -10.65 Q-52.4 -10.65 -51.75 -10.95 L-49.2 -11.25 -46.8 -11.2 -46.35 -10.8 -45.2 -10.5 -43.4 -10.25 -42.45 -9.65 -40.9 -9.75 -40.25 -9.45 -39.9 -9.15 -38.85 -9.05 -37.95 -9.0 Q-35.25 -8.1 -32.15 -8.1 L-30.65 -8.45 -30.05 -8.2 -28.65 -8.0 -27.95 -7.9 -27.65 -7.65 -27.65 -7.5 -28.7 -7.35 -30.4 -7.55 -30.65 -7.8 -31.25 -7.65 -31.85 -7.5 -36.8 -7.95 -39.15 -8.4 Q-40.15 -8.4 -40.35 -8.7 L-40.5 -9.05 -41.9 -9.0 -42.95 -9.1 -43.1 -9.5 -43.5 -9.8 -45.35 -9.95 -46.85 -10.45 -49.2 -10.65 -51.95 -10.35 -52.95 -10.05 -53.7 -10.3 -54.65 -10.55 Q-56.1 -10.55 -56.7 -10.9 L-58.8 -11.3 Q-58.25 -12.1 -57.1 -11.7 L-55.55 -11.1 -54.5 -11.15 -53.6 -11.1 -53.0 -10.65" fill="#26d9d9" fill-rule="evenodd" stroke="none"/>
  </g>
</svg>
