<?xml version="1.0" encoding="UTF-8" standalone="no"?>
<svg xmlns:xlink="http://www.w3.org/1999/xlink" height="4.5px" width="32.55px" xmlns="http://www.w3.org/2000/svg">
  <g transform="matrix(1.0, 0.0, 0.0, 1.0, 34.55, 8.55)">
    <path d="M-33.6 -8.1 Q-34.55 -8.1 -33.95 -7.35 L-34.35 -7.05 -34.55 -7.65 Q-34.55 -8.1 -33.6 -8.55 L-31.65 -8.4 -30.4 -8.25 -29.25 -8.1 Q-28.65 -7.4 -27.65 -7.1 L-25.4 -7.05 Q-24.9 -6.75 -24.55 -6.75 L-23.45 -6.95 -22.6 -7.2 -22.15 -7.05 -21.75 -6.9 Q-21.55 -6.9 -21.3 -7.05 L-20.9 -7.2 Q-20.35 -7.2 -20.05 -6.75 -19.75 -6.35 -19.25 -6.35 L-18.4 -6.6 -17.85 -6.9 -17.25 -6.6 -16.55 -6.0 Q-16.0 -5.6 -14.65 -5.5 L-13.05 -5.4 Q-13.05 -5.25 -12.65 -5.2 L-7.85 -5.1 -6.6 -5.3 Q-6.3 -5.3 -6.05 -4.95 L-5.6 -4.65 -4.7 -4.9 Q-3.85 -5.15 -3.75 -5.3 L-3.45 -6.05 -2.4 -7.4 -2.25 -7.5 -2.0 -6.8 -2.5 -6.05 -3.15 -5.25 Q-3.6 -4.25 -5.7 -4.05 -6.2 -4.05 -6.3 -4.3 L-6.45 -4.55 -7.8 -4.5 -12.7 -4.7 -16.25 -5.25 -16.95 -5.75 -17.8 -6.3 -18.45 -6.05 -19.25 -5.85 Q-19.95 -5.85 -20.7 -6.6 L-21.4 -6.4 -21.6 -6.2 -22.25 -6.6 -23.5 -6.4 -24.6 -6.2 Q-25.4 -6.2 -25.65 -6.45 L-26.85 -6.5 Q-27.9 -6.4 -28.8 -7.1 L-29.1 -7.45 -30.0 -7.65 -31.55 -7.8 -33.6 -8.1" fill="#26d9d9" fill-rule="evenodd" stroke="none"/>
  </g>
</svg>
