<?xml version="1.0" encoding="UTF-8" standalone="no"?>
<svg xmlns:xlink="http://www.w3.org/1999/xlink" height="17.0px" width="25.95px" xmlns="http://www.w3.org/2000/svg">
  <g transform="matrix(1.0, 0.0, 0.0, 1.0, 58.95, 28.9)">
    <path d="M-58.95 -28.4 L-58.95 -28.55 -58.65 -28.65 -58.0 -28.45 -57.35 -28.25 Q-55.05 -28.25 -54.9 -28.7 L-52.4 -28.85 -51.95 -28.7 -50.55 -28.55 -49.6 -27.85 Q-48.5 -27.2 -47.15 -27.2 L-46.0 -27.4 -45.5 -27.6 -44.85 -27.45 -44.7 -27.0 -42.65 -27.3 -41.2 -27.0 Q-40.85 -26.8 -39.75 -27.0 -38.5 -27.2 -38.2 -26.75 -37.9 -26.25 -37.4 -26.25 L-35.95 -26.5 -34.5 -26.75 -33.0 -26.55 -33.0 -26.45 -34.9 -26.1 -37.4 -25.8 -38.2 -26.0 -38.55 -26.3 -40.5 -26.25 -41.25 -26.4 -42.2 -26.6 -43.8 -26.4 Q-45.0 -26.4 -45.3 -26.7 L-45.6 -27.0 -46.1 -26.75 -47.05 -26.55 -48.4 -26.85 Q-49.7 -27.25 -50.4 -27.65 L-51.85 -28.1 -53.4 -28.35 -54.8 -28.05 -57.15 -27.8 -58.95 -28.4" fill="#26d9d9" fill-rule="evenodd" stroke="none"/>
    <path d="M-48.6 -13.85 L-48.5 -14.1 -44.9 -13.85 Q-43.45 -13.2 -42.2 -13.2 L-39.9 -13.55 Q-39.55 -13.55 -39.3 -13.2 -39.0 -12.85 -38.6 -12.75 L-37.45 -12.65 Q-36.6 -12.6 -36.3 -12.3 -36.55 -11.9 -37.1 -11.9 L-38.4 -12.0 -39.65 -12.05 -39.75 -12.35 Q-40.05 -13.05 -41.05 -12.85 L-42.2 -12.5 -43.2 -12.65 Q-44.3 -12.85 -45.0 -13.2 L-48.45 -13.5 -48.5 -13.55 -48.6 -13.85" fill="#26d9d9" fill-rule="evenodd" stroke="none"/>
  </g>
</svg>
