<?xml version="1.0" encoding="UTF-8" standalone="no"?>
<svg xmlns:xlink="http://www.w3.org/1999/xlink" height="27.85px" width="71.1px" xmlns="http://www.w3.org/2000/svg">
  <g transform="matrix(1.0, 0.0, 0.0, 1.0, 8.4, 55.2)">
    <path d="M1.4 -54.45 Q0.6 -54.3 0.05 -53.75 L-1.1 -52.85 -2.1 -51.75 Q-2.15 -50.95 -2.3 -50.7 L-2.8 -50.25 -3.15 -49.85 -3.1 -49.35 Q-3.15 -48.95 -3.35 -48.8 L-3.9 -48.6 -3.9 -48.35 -4.05 -48.0 -4.55 -45.95 -5.25 -43.8 -5.75 -41.85 Q-6.5 -40.2 -7.95 -40.2 L-8.4 -40.35 -7.2 -41.1 Q-6.15 -41.75 -6.15 -42.3 L-5.6 -44.45 Q-5.3 -45.75 -4.65 -46.65 L-4.4 -48.75 -3.65 -49.55 Q-3.65 -50.45 -3.45 -50.6 -2.95 -51.05 -2.8 -51.5 L-2.25 -52.5 -1.55 -53.55 -1.0 -53.85 -0.3 -54.35 Q0.4 -55.35 2.85 -55.2 2.2 -54.6 1.4 -54.45" fill="#26d9d9" fill-rule="evenodd" stroke="none"/>
    <path d="M62.55 -31.05 L62.7 -30.75 62.55 -30.35 61.65 -30.3 Q61.6 -29.65 61.3 -29.45 L60.6 -28.8 59.7 -27.35 59.4 -27.35 59.25 -27.9 59.4 -28.45 59.7 -28.95 60.15 -29.75 61.3 -30.85 62.55 -31.05" fill="#26d9d9" fill-rule="evenodd" stroke="none"/>
  </g>
</svg>
