<?xml version="1.0" encoding="UTF-8" standalone="no"?>
<svg xmlns:xlink="http://www.w3.org/1999/xlink" height="71.3px" width="134.7px" xmlns="http://www.w3.org/2000/svg">
  <g transform="matrix(1.0, 0.0, 0.0, 1.0, 0.0, 0.0)">
    <path d="M4.3 20.9 L4.25 20.85 Q4.4 20.45 6.4 19.85 L8.7 19.35 33.65 19.0 53.1 17.8 57.4 17.4 61.3 16.75 61.8 16.1 62.7 14.8 63.45 12.3 65.1 7.45 65.65 6.0 65.55 6.1 65.3 6.0 65.95 5.2 66.05 4.95 Q66.7 3.5 67.65 2.4 68.35 1.65 71.7 0.9 L73.05 0.4 82.2 0.15 89.6 0.4 89.6 0.35 89.7 0.3 90.5 0.1 99.35 0.0 104.9 0.15 Q108.15 0.15 111.3 0.9 L113.75 1.65 Q114.0 1.05 115.05 1.75 116.0 2.35 116.55 3.0 L117.45 4.9 118.25 5.15 Q119.45 5.7 119.45 6.9 L119.45 7.6 118.8 8.2 120.05 11.25 121.15 14.0 122.4 16.35 122.7 15.65 Q123.25 14.65 123.6 14.55 124.5 14.3 125.05 15.0 125.45 15.55 125.45 16.3 125.45 17.05 125.05 17.75 L126.75 18.6 127.6 19.05 Q128.25 19.45 128.3 19.8 L128.45 20.5 129.1 20.7 132.0 21.1 133.75 21.6 Q134.7 22.0 134.7 22.4 L134.6 23.55 134.7 23.85 134.65 24.05 134.55 24.15 134.5 24.15 134.3 26.4 134.3 30.4 134.3 34.4 Q134.05 36.65 132.45 38.4 L132.3 38.4 132.2 38.65 132.15 38.85 132.1 38.85 131.6 40.4 131.1 43.45 130.35 46.45 Q130.25 47.65 129.55 48.5 128.8 49.55 127.8 49.35 L127.8 49.5 124.15 49.1 123.0 48.35 Q122.25 47.85 122.25 46.85 L121.8 44.1 121.8 43.45 119.55 44.25 115.8 45.45 108.75 48.0 Q103.55 49.5 100.8 50.55 L99.4 51.0 Q98.95 51.2 98.8 51.6 L98.45 53.85 98.1 56.4 97.05 61.65 Q96.7 63.65 94.7 66.9 L93.3 69.45 92.05 70.45 Q90.3 71.3 87.45 71.3 83.6 71.3 82.3 70.6 80.8 69.75 79.5 66.5 L79.3 65.9 79.4 65.85 79.15 65.05 78.75 63.2 78.25 61.5 77.9 59.7 77.9 59.6 Q77.0 59.55 75.9 60.15 L74.6 60.8 72.5 61.1 68.85 61.4 66.15 61.65 65.95 61.95 65.4 61.95 58.95 61.45 53.85 60.9 50.4 60.3 47.3 59.75 45.65 59.55 45.35 60.7 Q45.3 61.35 43.65 61.35 L41.9 61.0 39.9 60.6 35.55 59.85 27.15 58.4 17.75 57.05 Q14.8 56.85 13.75 56.3 13.1 55.95 13.1 55.25 L13.5 54.5 8.3 53.75 5.1 53.1 Q1.9 52.7 1.15 51.7 L1.1 51.75 0.65 51.75 0.0 46.3 Q0.0 44.9 1.05 43.75 L2.1 42.6 1.7 41.55 1.7 40.55 1.95 33.5 1.9 33.45 1.8 33.15 1.95 33.1 2.1 30.45 2.25 28.05 Q2.4 26.55 2.9 25.5 L3.8 23.05 3.95 21.75 Q4.0 21.2 4.3 20.9 M4.85 20.95 Q4.85 22.6 3.75 25.9 2.65 29.15 2.75 30.85 L2.8 32.65 2.95 32.55 Q4.15 32.2 4.25 33.3 L4.35 35.4 4.65 39.55 4.5 43.0 3.95 43.05 2.7 43.0 1.75 44.2 Q0.75 45.3 0.75 46.3 L1.35 50.7 1.65 51.15 2.4 51.8 6.5 52.65 10.65 53.55 13.75 53.95 Q14.25 54.0 14.25 54.35 L14.05 54.85 Q13.8 55.2 13.7 55.5 L14.45 55.85 15.75 56.25 18.5 56.5 21.75 56.9 25.1 57.6 29.85 58.25 37.2 59.55 43.65 60.75 Q44.8 60.75 44.7 59.85 44.65 58.95 45.75 58.95 L50.05 59.6 54.15 60.35 61.15 61.05 65.2 61.3 Q65.95 60.85 69.55 60.6 L69.95 60.6 Q69.7 60.0 69.7 59.1 L69.75 56.75 69.75 52.35 69.75 43.55 69.75 38.55 69.7 35.95 69.8 34.5 69.6 34.5 69.55 34.55 69.45 34.3 Q69.45 34.05 70.0 33.75 L70.05 33.6 70.1 33.7 Q71.95 32.7 78.9 31.05 L80.55 30.5 83.75 29.85 86.65 29.4 91.95 28.6 103.3 27.35 112.95 26.1 116.05 25.6 115.95 24.2 115.65 21.75 115.5 20.55 114.95 20.1 114.2 19.5 113.05 18.55 Q112.15 17.85 112.1 17.4 111.45 10.05 111.45 7.9 111.45 5.0 111.75 4.3 L112.3 6.65 112.5 9.0 112.95 13.8 Q113.05 16.4 115.95 18.6 117.0 19.45 117.25 20.85 L117.3 23.25 117.55 25.4 122.7 24.75 133.05 23.65 133.95 23.55 134.0 22.45 130.75 21.65 128.55 21.1 Q128.55 21.3 128.15 21.3 L127.75 20.65 127.65 19.95 126.95 19.45 126.05 19.15 124.45 18.45 124.25 18.45 124.25 18.4 123.95 18.25 122.1 17.25 121.2 15.9 120.75 14.55 119.6 12.0 118.55 9.4 117.3 6.7 116.2 4.1 Q115.55 3.1 114.7 2.4 L114.6 2.7 114.15 2.5 Q110.9 1.15 107.2 1.15 L104.1 0.95 99.3 0.75 91.2 0.95 91.25 1.05 90.9 1.05 Q88.55 0.9 83.85 0.9 L83.6 0.9 76.65 0.95 Q72.65 1.15 70.1 2.1 69.4 2.35 68.85 2.65 L70.2 2.4 72.7 1.8 76.95 1.45 78.75 1.35 80.1 1.2 Q80.25 1.05 84.6 1.15 L90.15 1.45 Q91.55 1.3 98.7 1.3 L101.75 1.5 105.05 1.65 Q105.65 1.65 105.9 2.05 L105.9 2.15 107.3 2.8 Q108.4 3.25 109.05 5.05 110.35 8.0 110.7 9.7 111.1 11.55 111.1 14.3 L111.05 18.9 111.05 19.05 111.2 19.0 111.3 19.3 110.9 20.05 Q110.6 20.4 110.1 20.35 L110.1 20.1 110.15 20.05 105.7 20.0 102.35 20.1 95.1 21.15 95.1 21.3 Q86.25 22.95 80.2 22.95 L74.85 22.8 74.25 22.65 70.0 23.3 70.05 23.8 69.85 25.5 Q69.6 26.55 69.5 27.9 69.55 28.05 69.2 28.05 L66.4 27.75 66.4 28.5 66.55 28.55 66.3 28.65 65.5 29.0 55.85 28.5 51.55 28.25 50.4 28.05 39.9 27.3 13.35 25.5 7.0 24.95 6.0 24.7 5.6 24.85 5.4 24.4 5.25 24.3 5.25 24.0 5.3 24.0 5.25 22.9 Q5.25 21.4 5.6 21.3 L5.65 21.4 9.05 21.3 18.6 21.8 28.65 22.5 45.05 23.65 57.9 23.85 64.65 23.85 64.65 23.9 64.95 23.75 65.25 23.7 64.8 23.55 61.65 22.9 57.35 22.3 46.55 21.85 35.3 21.25 22.7 20.55 19.3 20.45 18.0 20.1 16.8 19.95 9.45 20.1 7.15 20.4 4.85 20.95 M19.4 28.65 L30.8 29.25 45.85 29.85 51.95 30.6 59.85 31.1 66.1 31.65 67.1 32.0 66.85 32.15 67.05 33.45 67.05 34.9 66.9 37.65 69.1 38.1 69.35 38.65 69.05 44.5 69.0 47.4 68.75 48.9 Q68.75 50.25 66.3 49.65 65.55 49.75 65.55 50.4 L65.55 51.05 65.75 51.05 65.55 51.35 65.55 51.6 65.25 51.6 65.25 51.5 64.55 51.6 62.85 51.6 60.15 51.3 59.1 51.0 56.85 50.85 56.05 50.75 55.35 50.6 47.7 49.8 36.65 48.05 22.05 46.2 12.5 45.3 5.1 44.25 Q5.1 43.25 5.25 42.9 5.05 42.2 5.0 41.3 L5.0 38.85 5.0 30.7 4.95 28.85 5.05 28.0 5.4 28.05 6.45 27.7 7.8 28.0 11.05 28.1 13.2 28.15 19.4 28.65 M19.3 36.45 L14.9 36.1 14.15 35.95 11.85 35.65 11.95 36.65 11.9 38.1 12.0 41.0 12.0 41.5 12.05 41.85 19.05 42.2 23.25 42.85 34.85 44.1 47.7 45.4 55.8 46.35 55.65 39.45 54.9 39.45 52.35 39.25 50.55 39.0 46.95 38.7 36.3 37.95 36.3 37.9 20.55 36.75 19.3 36.45 M86.5 3.75 L81.0 3.85 73.2 3.85 Q70.1 4.45 69.6 5.1 L68.6 6.95 67.8 8.7 Q66.85 10.1 66.0 12.3 L64.8 15.25 67.7 15.3 70.35 15.6 73.3 15.85 81.4 15.55 91.35 15.25 97.95 15.45 104.6 15.75 107.15 15.95 107.05 15.2 107.25 13.45 Q107.25 11.05 106.65 9.3 L106.3 6.85 Q106.15 5.55 105.8 5.55 L105.6 5.4 104.9 5.2 104.15 4.95 100.8 4.5 91.55 3.6 91.55 3.45 86.5 3.75 M93.8 35.85 Q95.8 34.45 98.3 33.7 96.35 32.9 93.8 35.0 92.15 36.4 90.8 38.4 L90.8 38.55 93.8 35.85 M103.5 39.9 L103.75 39.9 108.05 38.7 114.45 37.0 121.95 35.5 124.45 34.8 127.15 34.25 128.45 30.3 Q129.55 27.45 131.55 25.5 129.3 26.75 128.35 29.05 L127.3 32.85 127.35 33.1 Q127.35 33.7 122.4 34.85 L114.95 36.4 109.45 37.9 103.95 39.55 103.5 39.55 103.5 39.9 M131.45 38.6 L131.55 38.4 131.25 36.7 Q130.15 38.1 129.85 39.55 L129.75 42.35 130.05 45.45 130.35 44.65 130.5 43.15 131.15 40.15 131.45 38.6 M94.95 57.7 Q94.05 59.4 93.0 59.4 92.25 59.4 91.3 57.85 L90.3 56.1 Q90.15 58.6 90.65 60.85 91.3 64.25 93.05 64.25 93.65 64.25 94.35 63.2 L94.95 61.95 95.6 59.7 96.0 55.2 94.95 57.7 M31.1 56.6 L30.45 56.7 28.35 56.55 Q28.05 53.85 27.75 53.25 L28.15 52.95 28.65 53.25 30.6 53.55 30.8 54.15 31.1 56.2 31.1 56.6" fill="#000000" fill-rule="evenodd" stroke="none"/>
    <path d="M31.1 56.6 L31.1 56.2 30.8 54.15 30.6 53.55 28.65 53.25 28.15 52.95 27.75 53.25 Q28.05 53.85 28.35 56.55 L30.45 56.7 31.1 56.6 M94.95 57.7 L96.0 55.2 95.6 59.7 94.95 61.95 94.35 63.2 Q93.65 64.25 93.05 64.25 91.3 64.25 90.65 60.85 90.15 58.6 90.3 56.1 L91.3 57.85 Q92.25 59.4 93.0 59.4 94.05 59.4 94.95 57.7 M131.45 38.6 L131.15 40.15 130.5 43.15 130.35 44.65 130.05 45.45 129.75 42.35 129.85 39.55 Q130.15 38.1 131.25 36.7 L131.55 38.4 131.45 38.6 M103.5 39.9 L103.5 39.55 103.95 39.55 109.45 37.9 114.95 36.4 122.4 34.85 Q127.35 33.7 127.35 33.1 L127.3 32.85 128.35 29.05 Q129.3 26.75 131.55 25.5 129.55 27.45 128.45 30.3 L127.15 34.25 124.45 34.8 121.95 35.5 114.45 37.0 108.05 38.7 103.75 39.9 103.5 39.9 M93.8 35.85 L90.8 38.55 90.8 38.4 Q92.15 36.4 93.8 35.0 96.35 32.9 98.3 33.7 95.8 34.45 93.8 35.85 M86.5 3.75 L91.55 3.45 91.55 3.6 100.8 4.5 104.15 4.95 104.9 5.2 105.6 5.4 105.8 5.55 Q106.15 5.55 106.3 6.85 L106.65 9.3 Q107.25 11.05 107.25 13.45 L107.05 15.2 107.15 15.95 104.6 15.75 97.95 15.45 91.35 15.25 81.4 15.55 73.3 15.85 70.35 15.6 67.7 15.3 64.8 15.25 66.0 12.3 Q66.85 10.1 67.8 8.7 L68.6 6.95 69.6 5.1 Q70.1 4.45 73.2 3.85 L81.0 3.85 86.5 3.75 M19.3 36.45 L20.55 36.75 36.3 37.9 36.3 37.95 46.95 38.7 50.55 39.0 52.35 39.25 54.9 39.45 55.65 39.45 55.8 46.35 47.7 45.4 34.85 44.1 23.25 42.85 19.05 42.2 12.05 41.85 12.0 41.5 12.0 41.0 11.9 38.1 11.95 36.65 11.85 35.65 14.15 35.95 14.9 36.1 19.3 36.45 M19.4 28.65 L13.2 28.15 11.05 28.1 7.8 28.0 6.45 27.7 5.4 28.05 5.05 28.0 4.95 28.85 5.0 30.7 5.0 38.85 5.0 41.3 Q5.05 42.2 5.25 42.9 5.1 43.25 5.1 44.25 L12.5 45.3 22.05 46.2 36.65 48.05 47.7 49.8 55.35 50.6 56.05 50.75 56.85 50.85 59.1 51.0 60.15 51.3 62.85 51.6 64.55 51.6 65.25 51.5 65.25 51.6 65.55 51.6 65.55 51.35 65.75 51.05 65.55 51.05 65.55 50.4 Q65.55 49.75 66.3 49.65 68.75 50.25 68.75 48.9 L69.0 47.4 69.05 44.5 69.35 38.65 69.1 38.1 66.9 37.65 67.05 34.9 67.05 33.45 66.85 32.15 67.1 32.0 66.1 31.65 59.85 31.1 51.95 30.6 45.85 29.85 30.8 29.25 19.4 28.65 M4.85 20.95 L7.15 20.4 9.45 20.1 16.8 19.95 18.0 20.1 19.3 20.45 22.7 20.55 35.3 21.25 46.55 21.85 57.35 22.3 61.65 22.9 64.8 23.55 65.25 23.7 64.95 23.75 64.65 23.9 64.65 23.85 57.9 23.85 45.05 23.65 28.65 22.5 18.6 21.8 9.05 21.3 5.65 21.4 5.6 21.3 Q5.25 21.4 5.25 22.9 L5.3 24.0 5.25 24.0 5.25 24.3 5.4 24.4 5.6 24.85 6.0 24.7 7.0 24.95 13.35 25.5 39.9 27.3 50.4 28.05 51.55 28.25 55.85 28.5 65.5 29.0 66.3 28.65 66.55 28.55 66.4 28.5 66.4 27.75 69.2 28.05 Q69.55 28.05 69.5 27.9 69.6 26.55 69.85 25.5 L70.05 23.8 70.0 23.3 74.25 22.65 74.85 22.8 80.2 22.95 Q86.25 22.95 95.1 21.3 L95.1 21.15 102.35 20.1 105.7 20.0 110.15 20.05 110.1 20.1 110.1 20.35 Q110.6 20.4 110.9 20.05 L111.3 19.3 111.2 19.0 111.05 19.05 111.05 18.9 111.1 14.3 Q111.1 11.55 110.7 9.7 110.35 8.0 109.05 5.05 108.4 3.25 107.3 2.8 L105.9 2.15 105.9 2.05 Q105.65 1.65 105.05 1.65 L101.75 1.5 98.7 1.3 Q91.55 1.3 90.15 1.45 L84.6 1.15 Q80.25 1.05 80.1 1.2 L78.75 1.35 76.95 1.45 72.7 1.8 70.2 2.4 68.85 2.65 Q69.4 2.35 70.1 2.1 72.65 1.15 76.65 0.95 L83.6 0.9 83.85 0.9 Q88.55 0.9 90.9 1.05 L91.25 1.05 91.2 0.95 99.3 0.75 104.1 0.95 107.2 1.15 Q110.9 1.15 114.15 2.5 L114.6 2.7 114.7 2.4 Q115.55 3.1 116.2 4.1 L117.3 6.7 118.55 9.4 119.6 12.0 120.75 14.55 121.2 15.9 122.1 17.25 123.95 18.25 124.25 18.4 124.25 18.45 124.45 18.45 126.05 19.15 126.95 19.45 127.65 19.95 127.75 20.65 128.15 21.3 Q128.55 21.3 128.55 21.1 L130.75 21.65 134.0 22.45 133.95 23.55 133.05 23.65 122.7 24.75 117.55 25.4 117.3 23.25 117.25 20.85 Q117.0 19.45 115.95 18.6 113.05 16.4 112.95 13.8 L112.5 9.0 112.3 6.65 111.75 4.3 Q111.45 5.0 111.45 7.9 111.45 10.05 112.1 17.4 112.15 17.85 113.05 18.55 L114.2 19.5 114.95 20.1 115.5 20.55 115.65 21.75 115.95 24.2 116.05 25.6 112.95 26.1 103.3 27.35 91.95 28.6 86.65 29.4 83.75 29.85 80.55 30.5 78.9 31.05 Q71.95 32.7 70.1 33.7 L70.05 33.6 70.0 33.75 Q69.45 34.05 69.45 34.3 L69.55 34.55 69.6 34.5 69.8 34.5 69.7 35.95 69.75 38.55 69.75 43.55 69.75 52.35 69.75 56.75 69.7 59.1 Q69.7 60.0 69.95 60.6 L69.55 60.6 Q65.95 60.85 65.2 61.3 L61.15 61.05 54.15 60.35 50.05 59.6 45.75 58.95 Q44.65 58.95 44.7 59.85 44.8 60.75 43.65 60.75 L37.2 59.55 29.85 58.25 25.1 57.6 21.75 56.9 18.5 56.5 15.75 56.25 14.45 55.85 13.7 55.5 Q13.8 55.2 14.05 54.85 L14.25 54.35 Q14.25 54.0 13.75 53.95 L10.65 53.55 6.5 52.65 2.4 51.8 1.65 51.15 1.35 50.7 0.75 46.3 Q0.75 45.3 1.75 44.2 L2.7 43.0 3.95 43.05 4.5 43.0 4.65 39.55 4.35 35.4 4.25 33.3 Q4.15 32.2 2.95 32.55 L2.8 32.65 2.75 30.85 Q2.65 29.15 3.75 25.9 4.85 22.6 4.85 20.95" fill="#3c3c3c" fill-rule="evenodd" stroke="none"/>
  </g>
</svg>
