<?xml version="1.0" encoding="UTF-8" standalone="no"?>
<svg xmlns:xlink="http://www.w3.org/1999/xlink" height="179.2px" width="46.15px" xmlns="http://www.w3.org/2000/svg">
  <g transform="matrix(1.0, 0.0, 0.0, 1.0, -3.9, -4.6)">
    <path d="M49.85 6.2 Q50.95 22.7 46.45 38.45 L46.25 39.1 Q41.9 54.15 41.6 69.8 L41.55 70.8 Q41.35 84.8 40.3 98.4 L39.65 105.4 Q38.6 115.05 34.95 124.4 L34.85 124.7 Q29.75 137.65 33.9 150.65 34.75 153.5 35.95 156.25 40.1 165.8 43.3 174.8 L28.5 183.8 Q19.95 173.6 19.0 160.4 L18.95 159.7 Q18.1 146.7 19.65 133.45 L20.05 129.85 Q21.4 113.9 18.9 98.3 L18.35 95.5 Q15.85 83.15 12.05 70.7 L10.5 65.4 Q5.5 47.15 4.25 28.3 3.9 23.65 3.95 19.0 3.85 11.55 4.15 4.6 L49.55 4.6 49.85 6.2" fill="#000000" fill-opacity="0.101960786" fill-rule="evenodd" stroke="none"/>
  </g>
</svg>
