<?xml version="1.0" encoding="UTF-8" standalone="no"?>
<svg xmlns:xlink="http://www.w3.org/1999/xlink" height="179.2px" width="46.0px" xmlns="http://www.w3.org/2000/svg">
  <g transform="matrix(1.0, 0.0, 0.0, 1.0, -4.2, -4.6)">
    <path d="M49.85 6.2 L49.85 6.25 Q51.15 22.8 47.3 38.75 L47.15 39.4 Q43.4 54.7 42.35 70.3 L42.3 71.35 Q41.35 85.6 39.75 98.95 L38.75 105.95 Q37.15 115.55 33.1 124.8 L33.0 125.1 Q27.4 137.85 32.95 150.95 L35.35 156.4 Q40.2 166.15 43.3 174.8 L28.5 183.8 Q19.95 173.65 18.55 160.5 L18.55 159.8 Q17.25 147.05 17.9 133.55 L18.05 129.95 Q18.45 113.85 17.5 98.35 L17.25 95.5 Q16.0 83.25 13.45 70.45 L12.4 65.0 Q8.95 46.55 6.1 27.9 5.35 23.3 5.05 18.8 4.2 11.15 4.2 4.6 L49.55 4.6 49.85 6.2" fill="#000000" fill-opacity="0.101960786" fill-rule="evenodd" stroke="none"/>
  </g>
</svg>
