<?xml version="1.0" encoding="UTF-8" standalone="no"?>
<svg xmlns:xlink="http://www.w3.org/1999/xlink" height="179.2px" width="45.95px" xmlns="http://www.w3.org/2000/svg">
  <g transform="matrix(1.0, 0.0, 0.0, 1.0, -4.25, -4.6)">
    <path d="M49.85 6.2 L49.85 6.25 Q51.2 22.85 47.45 38.8 L47.3 39.45 Q43.65 54.8 42.5 70.4 L42.4 71.45 Q41.35 85.75 39.65 99.05 L38.6 106.05 Q36.9 115.65 32.8 124.85 L32.65 125.15 Q27.0 137.85 32.8 151.0 L35.25 156.4 Q40.25 166.25 43.3 174.8 L28.5 183.8 Q20.0 173.65 18.5 160.5 L18.45 159.8 Q17.1 147.1 17.6 133.6 L17.7 129.95 Q17.95 113.85 17.25 98.35 L17.05 95.5 Q16.05 83.25 13.65 70.4 L12.7 64.95 6.4 27.85 Q5.6 23.2 5.25 18.8 4.25 11.1 4.25 4.6 L49.55 4.6 49.85 6.2" fill="#000000" fill-opacity="0.101960786" fill-rule="evenodd" stroke="none"/>
  </g>
</svg>
