<?xml version="1.0" encoding="UTF-8" standalone="no"?>
<svg xmlns:xlink="http://www.w3.org/1999/xlink" height="179.2px" width="46.05px" xmlns="http://www.w3.org/2000/svg">
  <g transform="matrix(1.0, 0.0, 0.0, 1.0, -4.3, -4.6)">
    <path d="M49.85 6.2 L49.85 6.25 Q51.4 22.95 48.2 39.05 L48.05 39.7 Q44.9 55.25 43.15 70.85 L43.05 71.9 Q41.35 86.4 39.2 99.5 L37.85 106.55 Q35.75 116.05 31.25 125.15 L31.1 125.45 Q25.05 138.0 32.0 151.25 L34.8 156.55 Q40.35 166.55 43.3 174.8 L28.5 183.8 Q20.0 173.7 18.15 160.6 L18.1 159.9 Q16.45 147.4 16.15 133.65 L16.05 130.0 Q15.5 113.8 16.05 98.35 L16.1 95.45 Q16.15 83.35 14.85 70.15 L14.25 64.65 Q12.35 45.9 7.95 27.5 L6.15 18.65 Q4.55 10.75 4.3 4.6 L49.55 4.6 49.85 6.2" fill="#000000" fill-opacity="0.101960786" fill-rule="evenodd" stroke="none"/>
  </g>
</svg>
