<?xml version="1.0" encoding="UTF-8" standalone="no"?>
<svg xmlns:xlink="http://www.w3.org/1999/xlink" height="179.2px" width="46.05px" xmlns="http://www.w3.org/2000/svg">
  <g transform="matrix(1.0, 0.0, 0.0, 1.0, -4.3, -4.6)">
    <path d="M49.85 6.2 L49.85 6.25 Q51.4 22.95 48.3 39.1 L48.2 39.75 Q45.15 55.35 43.3 70.9 L43.15 71.95 Q41.35 86.55 39.15 99.6 L37.7 106.65 Q35.5 116.1 30.95 125.25 L30.8 125.55 Q24.65 138.0 31.85 151.3 L34.7 156.55 Q40.35 166.6 43.3 174.8 L28.5 183.8 Q20.0 173.7 18.1 160.6 L18.0 159.9 Q16.3 147.45 15.85 133.65 L15.7 130.05 Q15.0 113.8 15.85 98.35 L15.95 95.45 Q16.2 83.4 15.05 70.15 L14.6 64.6 Q12.95 45.8 8.25 27.45 7.05 22.85 6.35 18.65 4.6 10.7 4.3 4.6 L49.55 4.6 49.85 6.2" fill="#000000" fill-opacity="0.101960786" fill-rule="evenodd" stroke="none"/>
  </g>
</svg>
