<?xml version="1.0" encoding="UTF-8" standalone="no"?>
<svg xmlns:xlink="http://www.w3.org/1999/xlink" height="179.2px" width="46.15px" xmlns="http://www.w3.org/2000/svg">
  <g transform="matrix(1.0, 0.0, 0.0, 1.0, -4.35, -4.6)">
    <path d="M49.85 6.2 L49.85 6.25 Q51.55 23.05 48.9 39.3 L48.75 40.0 43.8 71.25 43.65 72.35 Q41.35 87.1 38.75 100.0 L37.1 107.05 Q34.55 116.45 29.7 125.5 L29.55 125.8 Q23.1 138.15 31.2 151.5 L34.3 156.65 Q40.45 166.85 43.3 174.8 L28.5 183.8 Q20.05 173.75 17.8 160.65 L17.75 159.95 Q15.75 147.7 14.65 133.75 L14.35 130.1 Q13.0 113.8 14.9 98.35 L15.2 95.45 Q16.3 83.45 16.0 69.95 L15.85 64.35 Q15.25 45.4 9.5 27.2 8.05 22.6 7.1 18.5 4.85 10.45 4.35 4.6 L49.55 4.6 49.85 6.2" fill="#000000" fill-opacity="0.101960786" fill-rule="evenodd" stroke="none"/>
  </g>
</svg>
