<?xml version="1.0" encoding="UTF-8" standalone="no"?>
<svg xmlns:xlink="http://www.w3.org/1999/xlink" height="179.2px" width="46.2px" xmlns="http://www.w3.org/2000/svg">
  <g transform="matrix(1.0, 0.0, 0.0, 1.0, -4.35, -4.6)">
    <path d="M49.85 6.2 L49.85 6.3 Q51.6 23.05 49.05 39.35 L48.9 40.05 43.95 71.35 43.8 72.4 Q41.35 87.2 38.7 100.1 L36.95 107.1 Q34.3 116.55 29.4 125.55 L29.25 125.85 Q22.7 138.15 31.05 151.55 L34.2 156.7 Q40.45 166.9 43.3 174.8 L28.5 183.8 Q20.05 173.75 17.75 160.7 L17.65 160.0 Q15.6 147.75 14.35 133.75 L14.05 130.1 Q12.5 113.8 14.65 98.4 L15.0 95.45 Q16.3 83.45 16.2 69.9 L16.15 64.3 Q15.8 45.3 9.8 27.1 8.3 22.55 7.25 18.5 4.9 10.35 4.35 4.6 L49.55 4.6 49.85 6.2" fill="#000000" fill-opacity="0.101960786" fill-rule="evenodd" stroke="none"/>
  </g>
</svg>
