<?xml version="1.0" encoding="UTF-8" standalone="no"?>
<svg xmlns:xlink="http://www.w3.org/1999/xlink" height="414.8px" width="568.25px" xmlns="http://www.w3.org/2000/svg">
  <g transform="matrix(1.0, 0.0, 0.0, 1.0, 231.0, 176.55)">
    <path d="M126.55 -170.5 Q127.85 -171.15 129.25 -171.9 L129.65 -171.55 129.65 -171.45 Q132.0 -172.85 136.0 -174.0 151.5 -178.35 151.5 -175.3 L149.45 -173.15 Q147.1 -170.65 146.0 -167.75 L146.0 -166.3 147.9 -165.8 152.65 -169.15 Q158.1 -172.5 162.0 -172.5 L167.0 -171.85 Q168.4 -171.4 169.0 -170.8 L167.35 -169.65 165.4 -168.5 162.9 -166.0 Q161.0 -163.7 159.65 -161.15 L162.4 -160.35 164.75 -159.75 165.75 -159.0 Q166.45 -158.5 166.75 -158.5 L167.25 -167.55 167.45 -167.7 Q167.6 -167.9 168.0 -167.9 L168.65 -167.25 Q169.75 -166.65 170.75 -166.55 L172.6 -165.25 174.75 -162.5 Q177.7 -158.8 178.65 -156.8 L181.05 -151.05 Q182.85 -146.5 182.85 -145.9 L182.65 -144.05 182.9 -142.95 183.15 -142.45 183.65 -140.75 185.35 -137.15 186.6 -133.75 188.25 -130.25 Q193.7 -121.05 196.9 -116.4 L196.85 -116.0 196.85 -115.85 196.5 -115.75 Q195.7 -115.75 192.35 -118.35 L189.1 -120.9 189.7 -119.25 191.0 -115.65 192.9 -112.2 194.75 -108.5 196.45 -105.0 198.25 -101.4 199.2 -98.0 200.15 -94.25 199.95 -93.9 199.35 -93.75 Q198.45 -93.75 192.6 -98.25 195.15 -91.55 195.65 -86.05 L195.75 -83.15 195.65 -80.05 Q195.65 -79.3 196.15 -77.2 L196.65 -74.05 196.6 -71.8 Q196.6 -71.55 196.0 -71.55 L194.5 -73.75 192.65 -76.4 192.6 -76.1 Q192.6 -75.25 193.25 -73.55 193.85 -71.9 193.85 -71.05 L193.15 -67.25 193.05 -65.3 193.1 -63.7 192.1 -57.75 Q191.35 -53.75 189.75 -52.05 188.85 -52.5 188.6 -53.4 L188.0 -55.25 187.6 -55.9 Q187.05 -54.1 186.05 -52.5 184.85 -50.55 178.0 -42.25 177.6 -41.75 177.3 -40.75 L177.5 -40.5 Q177.5 -39.95 177.1 -39.9 L176.4 -37.4 175.7 -35.05 175.15 -32.75 174.35 -28.1 Q173.9 -25.3 173.1 -23.7 L173.15 -21.4 172.9 -15.05 Q172.65 -13.55 171.95 -12.4 171.25 -11.15 169.35 -9.3 L164.25 -3.45 164.15 -3.3 166.25 -1.5 168.65 -0.05 Q169.8 0.55 172.1 1.25 173.3 1.65 174.95 2.6 176.55 3.6 177.85 4.0 L181.05 5.3 184.0 6.65 Q189.1 9.0 194.65 12.15 L205.1 18.1 210.05 21.1 Q213.85 23.4 216.0 24.25 219.3 25.55 226.35 29.6 231.2 32.4 235.9 35.85 242.55 40.75 244.5 44.0 L250.1 52.2 Q253.45 57.05 254.75 60.1 L257.95 68.0 Q260.1 72.85 262.75 76.25 L265.35 80.2 268.25 84.25 271.95 88.4 Q274.0 90.75 274.9 92.35 L277.25 96.35 280.25 100.4 Q283.6 104.2 284.65 106.6 284.95 106.55 285.35 107.1 L285.7 108.4 286.6 110.1 289.05 113.05 291.15 116.25 295.6 121.95 Q299.25 126.75 299.25 128.55 L298.4 130.2 Q304.75 139.65 312.55 152.4 321.0 166.1 323.25 170.85 L328.2 181.25 Q330.8 187.2 331.65 191.65 332.45 195.95 333.1 202.15 333.25 203.9 334.65 207.35 L336.15 211.15 337.0 210.85 337.15 210.8 337.25 211.25 Q337.25 212.3 334.7 214.65 332.35 216.8 330.9 217.5 323.15 221.3 319.35 223.9 L310.35 230.95 Q306.8 233.4 301.85 233.8 302.3 235.9 303.65 237.35 303.55 237.5 303.6 237.9 303.5 238.25 302.75 238.25 301.55 238.25 300.9 236.4 300.5 235.2 300.5 234.0 L300.5 233.85 300.05 233.85 Q297.95 233.85 296.15 233.15 L292.85 232.1 290.4 231.7 284.75 231.15 Q281.2 230.9 278.8 229.8 L279.0 231.1 278.5 231.6 Q277.5 230.9 277.3 229.95 L277.2 228.95 Q276.15 228.25 275.4 227.35 L275.5 227.05 Q275.6 226.9 276.0 226.9 L276.8 227.1 276.25 224.9 Q275.5 221.9 274.85 218.15 L273.85 211.35 Q273.3 207.25 272.6 204.65 L270.7 197.95 Q269.3 194.15 267.0 191.15 L260.85 183.65 Q257.7 179.75 257.0 178.5 L256.45 178.6 252.1 179.0 Q248.15 179.0 247.25 178.2 L240.75 167.75 236.6 161.9 233.75 158.7 232.8 157.65 Q231.7 158.3 228.1 158.6 L204.6 160.15 Q199.0 160.55 195.1 161.65 192.3 162.4 191.5 163.1 190.1 164.4 189.3 167.15 L188.25 171.5 Q186.5 177.05 183.25 188.75 177.3 209.5 175.95 219.6 L179.1 219.5 179.35 219.85 Q179.0 220.35 177.85 220.55 L176.5 220.75 175.8 220.95 175.6 223.25 174.75 223.5 174.7 221.3 174.15 221.4 170.75 222.5 166.75 223.8 163.5 224.5 Q157.85 225.95 148.25 227.65 138.7 229.45 104.6 230.65 L76.35 232.5 55.5 233.5 Q36.65 233.5 23.35 230.75 L16.5 229.5 16.4 229.5 16.25 229.8 15.75 229.9 Q15.2 229.9 14.55 229.15 L7.25 227.9 -11.15 225.1 -14.8 224.3 -20.25 223.65 -26.2 223.3 -27.4 222.85 -29.5 222.1 -32.35 221.6 -32.6 221.55 -32.5 221.75 -32.85 222.1 -33.25 222.4 Q-34.45 222.4 -34.85 220.55 L-35.0 218.6 Q-35.0 216.75 -34.25 211.6 L-33.5 206.45 -34.0 191.9 -33.9 187.8 -33.0 182.0 -32.5 176.45 -32.0 172.05 -32.5 167.75 -32.4 165.35 -32.25 163.5 Q-32.25 161.75 -32.75 159.15 -33.25 156.55 -33.25 154.0 L-33.5 148.5 -33.75 144.75 Q-33.25 132.0 -32.1 126.25 L-32.25 124.7 -38.75 123.4 Q-41.25 122.7 -42.75 122.0 L-46.5 120.5 -50.75 118.9 Q-53.45 118.05 -65.0 115.9 -70.55 114.9 -75.75 113.3 -76.45 113.1 -86.95 113.1 -99.6 113.1 -106.95 114.9 L-114.5 116.65 -117.7 116.4 -119.15 113.75 -120.4 110.5 -121.85 106.2 Q-123.0 107.1 -126.55 107.5 L-133.05 108.1 -143.55 110.1 -162.55 113.75 -177.3 114.0 -192.9 113.45 Q-196.1 112.8 -206.9 107.85 -209.45 106.7 -212.75 104.1 L-216.75 101.0 -217.0 101.0 Q-218.9 101.0 -221.15 98.45 L-223.75 95.0 Q-224.6 93.75 -224.65 91.95 L-224.5 88.85 Q-224.4 86.65 -225.55 82.8 L-227.25 76.65 -229.5 64.9 Q-231.0 56.45 -231.0 52.1 -231.0 47.2 -229.45 39.5 -227.95 32.05 -226.25 27.9 L-221.35 15.85 Q-218.7 8.85 -218.0 3.75 -217.55 0.5 -215.35 -8.3 -213.4 -15.9 -213.15 -20.4 -213.05 -23.35 -211.15 -26.3 -209.0 -29.75 -205.0 -32.0 -203.85 -32.65 -202.15 -34.7 L-199.0 -38.0 Q-197.65 -39.1 -194.7 -40.6 L-194.2 -40.85 Q-193.95 -41.65 -193.0 -41.65 L-192.75 -41.6 -191.75 -42.15 Q-191.45 -43.85 -189.75 -46.6 -187.55 -50.1 -185.75 -50.5 L-185.0 -50.6 -184.6 -50.8 Q-182.25 -51.85 -180.45 -51.85 L-179.45 -53.65 -178.05 -55.65 Q-176.75 -57.25 -174.25 -58.75 L-172.45 -59.0 -172.25 -59.15 -171.05 -60.6 Q-170.35 -61.25 -168.1 -61.25 -165.05 -61.25 -163.4 -59.35 -161.8 -57.5 -161.3 -57.5 -160.55 -57.5 -158.65 -58.8 L-156.3 -60.55 Q-153.3 -62.7 -150.8 -60.75 -146.9 -59.0 -140.75 -54.05 -137.0 -51.15 -134.15 -46.45 L-129.65 -38.25 Q-126.6 -32.7 -122.45 -23.65 -116.25 -10.15 -116.25 -6.05 L-116.3 -3.3 Q-116.4 -2.85 -117.3 -1.95 -118.2 -1.05 -118.75 -1.05 L-119.65 -1.1 -120.85 -1.05 Q-126.05 -1.05 -128.65 -3.7 -130.25 -5.35 -133.75 -10.3 -137.25 -14.4 -139.15 -18.85 L-140.65 -16.65 -142.8 -14.15 Q-143.85 -13.2 -147.6 -11.85 -151.1 -10.55 -151.5 -10.0 L-153.4 -6.85 Q-154.45 -5.1 -155.5 -4.15 L-158.05 -2.65 -161.5 -2.4 -166.5 -1.75 Q-172.2 0.0 -174.75 0.0 L-175.1 0.0 -175.05 0.75 -175.25 2.85 -175.25 7.0 Q-175.25 11.85 -174.25 26.5 -173.85 32.2 -172.05 36.25 L-169.5 40.5 Q-167.75 43.4 -167.25 44.8 -166.4 44.35 -164.35 43.95 L-155.8 42.5 -151.7 41.3 -151.5 41.25 -151.5 40.85 -150.85 41.1 Q-147.2 40.15 -143.95 39.75 L-143.9 39.7 -144.05 39.05 Q-144.05 37.35 -143.15 37.0 L-136.15 35.4 -126.8 33.85 -118.15 32.35 -115.35 31.6 -115.0 31.25 -114.6 31.3 -114.55 31.35 -108.2 29.1 -102.9 27.1 -103.1 26.85 Q-95.7 23.5 -91.5 20.75 -86.55 17.45 -79.7 14.0 -72.2 10.2 -65.55 7.75 L-58.5 5.4 Q-54.6 4.25 -49.05 3.25 L-42.75 2.15 -35.85 2.1 Q-30.3 2.05 -27.55 1.0 L-24.4 -0.05 Q-22.25 -0.8 -17.5 -0.8 L-12.7 -0.65 Q-5.05 -0.65 0.4 -1.8 2.85 -2.3 5.75 -3.4 10.15 -5.05 15.35 -6.15 L29.75 -9.15 41.75 -11.75 48.9 -13.3 54.6 -14.5 Q56.4 -14.95 58.45 -15.9 60.65 -17.0 61.75 -17.3 L71.95 -20.0 81.75 -22.65 Q81.05 -25.35 80.65 -28.55 L79.75 -37.25 79.75 -41.55 Q79.75 -42.7 78.9 -43.75 L77.25 -45.65 Q75.25 -48.75 74.5 -50.3 73.4 -52.5 73.4 -54.0 L73.5 -55.1 73.15 -55.8 72.75 -57.3 72.15 -58.8 71.75 -60.3 71.35 -63.25 70.75 -66.15 Q70.05 -65.25 69.6 -63.7 69.1 -62.1 69.25 -60.9 69.35 -60.65 68.75 -60.65 67.4 -60.65 66.25 -66.4 L64.9 -75.0 Q64.0 -81.35 64.75 -89.25 L64.85 -89.5 Q64.05 -88.9 62.65 -86.7 61.55 -84.9 60.85 -84.9 60.0 -84.9 59.85 -87.25 L59.85 -89.75 Q59.85 -99.15 63.0 -108.8 L63.1 -109.0 Q61.3 -108.05 59.85 -106.25 L57.75 -103.65 57.3 -103.7 Q57.15 -103.75 57.15 -104.15 57.15 -105.2 60.75 -114.8 61.75 -117.65 64.8 -121.25 L67.0 -123.6 Q66.55 -125.0 66.25 -127.6 L65.85 -133.25 Q65.85 -136.15 66.35 -137.9 67.25 -141.2 67.75 -144.25 68.5 -148.75 70.35 -142.25 70.3 -140.95 71.0 -139.4 L71.3 -138.8 71.35 -139.95 Q71.35 -152.3 79.5 -157.3 L80.1 -156.45 79.1 -152.9 Q79.1 -151.8 79.85 -149.0 80.45 -146.6 80.75 -145.9 L86.85 -153.0 Q90.9 -157.4 94.25 -159.8 L98.55 -163.4 Q101.5 -165.6 106.0 -166.75 L108.85 -167.25 116.6 -167.75 119.45 -168.15 121.75 -168.75 Q124.0 -169.2 126.55 -170.5 M111.65 -105.3 L111.25 -106.05 111.0 -104.95 111.7 -100.4 Q112.45 -96.15 112.75 -95.0 113.35 -92.8 115.7 -88.9 L117.85 -85.1 117.75 -84.5 Q118.1 -84.3 117.5 -84.3 116.9 -84.3 113.35 -86.55 L110.7 -88.3 111.25 -83.55 111.0 -82.3 110.75 -81.1 Q110.75 -80.0 111.2 -78.0 L111.6 -75.0 111.15 -71.25 114.75 -69.9 124.85 -66.15 Q127.9 -64.6 127.9 -61.65 L127.45 -59.05 Q127.05 -57.65 127.15 -55.8 L127.15 -50.0 127.2 -47.15 Q127.15 -45.25 126.6 -44.25 L124.95 -41.3 Q123.9 -39.4 123.9 -38.5 123.9 -38.1 125.0 -36.85 L126.5 -35.4 128.0 -33.95 128.85 -32.5 128.75 -32.3 128.75 -32.25 Q128.75 -31.85 124.25 -28.3 119.75 -24.75 119.75 -23.5 119.75 -22.85 121.25 -22.35 L121.55 -22.25 123.25 -22.75 126.0 -22.25 135.5 -21.8 Q144.0 -21.8 146.75 -20.0 148.1 -19.15 148.1 -17.4 148.1 -16.55 146.4 -15.1 L143.9 -13.25 142.9 -12.5 Q142.25 -12.0 141.5 -11.8 L138.75 -11.05 137.25 -10.75 134.45 -10.95 131.65 -10.65 134.1 -10.55 Q122.25 -9.55 112.65 -16.15 L107.1 -19.9 Q102.75 -22.75 102.4 -22.75 100.6 -22.75 100.6 -17.8 100.6 -11.7 103.8 -8.0 L106.0 -5.9 Q107.0 -5.0 107.0 -4.5 L106.1 -0.7 104.9 3.4 106.85 2.35 Q108.55 1.5 110.0 1.5 111.15 1.5 111.3 3.4 L111.4 6.15 Q111.55 6.9 112.25 8.35 L113.1 10.65 Q113.8 13.45 117.25 14.75 L120.75 16.5 125.45 17.4 130.05 17.9 Q133.7 17.9 139.75 14.85 L147.2 10.95 149.75 8.0 153.75 3.0 158.55 -1.95 162.9 -6.75 165.05 -9.3 167.25 -11.75 Q168.6 -13.15 169.2 -14.45 169.65 -15.4 169.9 -16.8 L170.9 -22.05 Q171.5 -24.75 172.45 -26.2 L173.15 -29.85 174.25 -34.65 175.45 -39.7 175.65 -40.35 Q174.8 -40.75 173.5 -41.5 L172.05 -42.6 171.25 -43.55 169.2 -44.55 167.4 -45.25 Q165.9 -45.8 164.4 -46.75 162.75 -47.65 160.45 -49.75 L157.65 -48.15 Q155.6 -47.35 155.25 -46.5 154.7 -45.1 154.0 -44.65 153.1 -44.0 151.75 -44.15 150.7 -44.3 150.1 -43.5 L149.3 -42.5 151.0 -39.4 Q151.8 -37.75 152.4 -34.95 153.0 -32.2 153.0 -30.25 L153.0 -29.5 Q153.1 -29.25 152.5 -29.25 151.85 -29.25 150.45 -32.7 149.35 -35.35 148.5 -38.15 148.0 -39.75 146.15 -42.6 144.05 -45.9 143.5 -47.15 144.65 -47.65 148.25 -44.05 L148.55 -43.65 149.0 -44.65 151.15 -45.55 152.9 -46.0 153.65 -47.75 Q154.15 -48.9 155.25 -49.25 157.6 -49.9 159.2 -50.95 L157.1 -52.75 156.85 -52.75 Q155.6 -52.75 152.8 -54.35 151.75 -54.65 150.15 -56.0 L147.6 -57.75 Q142.1 -61.7 141.05 -63.3 L140.5 -63.65 Q140.25 -63.9 140.25 -64.6 L140.3 -65.15 140.25 -65.5 140.45 -65.95 140.95 -66.4 Q143.1 -68.0 151.8 -70.75 161.75 -73.85 165.75 -74.5 L165.85 -73.9 Q165.85 -73.45 161.85 -70.9 L156.5 -67.5 156.4 -67.3 156.45 -67.3 160.55 -66.0 Q162.35 -65.3 162.75 -64.4 L163.0 -64.4 163.25 -64.0 163.15 -63.5 156.35 -63.3 154.85 -63.15 154.2 -61.9 Q153.35 -60.75 151.85 -60.75 148.8 -60.75 147.2 -61.8 L148.6 -60.0 Q149.5 -58.85 152.5 -56.8 L154.35 -55.5 156.1 -55.15 Q157.95 -54.35 159.5 -53.0 L160.5 -51.95 160.8 -52.3 Q161.4 -52.9 163.0 -55.75 163.55 -56.65 166.5 -58.65 169.3 -60.55 169.75 -61.65 L171.55 -63.35 173.55 -64.85 Q171.3 -62.4 170.75 -61.4 169.85 -59.6 167.4 -57.75 L164.35 -55.3 162.3 -51.7 161.6 -50.8 161.75 -50.6 Q163.1 -49.2 164.6 -48.4 165.4 -47.95 167.8 -46.95 170.2 -45.9 171.85 -45.05 L172.85 -43.75 Q173.2 -42.95 174.5 -42.65 L176.15 -41.7 Q176.9 -43.45 178.1 -44.75 L182.95 -49.85 Q185.4 -52.7 186.0 -54.9 L186.7 -57.85 186.4 -58.55 186.5 -58.65 186.85 -58.75 187.0 -60.0 186.85 -62.5 Q186.85 -64.0 188.1 -64.55 L188.4 -61.3 188.15 -58.15 188.85 -56.75 189.85 -54.75 Q190.4 -55.65 190.75 -57.3 L191.35 -60.15 191.6 -65.4 Q191.6 -66.65 192.1 -68.3 L192.6 -70.95 190.35 -79.25 190.5 -79.4 191.1 -79.55 Q191.75 -79.55 193.1 -78.05 L194.75 -76.15 194.75 -76.3 194.5 -78.8 194.25 -82.4 193.75 -88.4 Q193.45 -90.7 192.35 -94.25 L190.5 -100.4 190.75 -100.5 191.25 -100.65 194.7 -98.55 198.25 -96.15 Q196.75 -101.25 191.8 -111.1 187.85 -118.85 187.75 -122.0 L187.75 -122.15 Q187.75 -122.5 188.0 -122.65 L188.25 -122.75 188.3 -122.7 188.75 -122.9 Q189.75 -122.9 192.75 -119.9 L186.25 -131.25 Q185.5 -132.75 183.75 -137.2 L182.25 -141.25 Q181.3 -141.25 180.0 -142.15 178.35 -143.35 176.0 -144.0 L172.25 -145.35 169.85 -146.4 Q169.15 -146.2 169.15 -145.7 L169.25 -144.8 169.15 -143.15 169.15 -141.3 Q169.1 -140.0 168.25 -140.0 167.85 -140.0 160.0 -146.5 159.45 -146.5 157.8 -143.7 L155.75 -140.0 Q154.25 -137.1 153.85 -133.25 153.8 -133.05 153.2 -133.05 152.1 -133.05 151.05 -135.85 L149.65 -140.4 148.45 -144.05 147.8 -146.15 145.5 -146.25 139.4 -145.9 Q144.15 -140.45 144.15 -139.55 L144.1 -138.75 Q144.1 -138.5 143.5 -138.5 L140.4 -139.05 Q138.05 -139.6 137.35 -139.9 L135.1 -139.9 Q142.15 -133.55 142.15 -132.2 L142.2 -131.5 Q142.15 -131.25 141.75 -131.25 L140.4 -131.5 139.0 -131.75 133.25 -131.65 Q136.55 -128.5 137.85 -124.9 L138.7 -121.7 139.25 -118.25 139.2 -118.1 Q139.85 -115.25 140.75 -113.25 141.9 -110.75 146.75 -104.4 148.0 -102.8 151.35 -100.0 L156.4 -95.55 156.35 -95.2 Q156.35 -95.0 156.0 -95.0 154.95 -95.0 151.3 -96.3 148.0 -97.5 145.75 -98.55 L138.0 -102.55 Q135.4 -103.85 131.5 -106.75 128.15 -109.25 127.25 -110.6 L126.85 -106.55 Q126.85 -98.4 128.55 -92.1 130.7 -84.1 135.85 -77.65 L135.75 -77.3 Q135.6 -77.05 135.25 -77.05 134.3 -77.05 131.45 -79.7 L126.75 -84.3 123.35 -87.95 120.15 -91.65 Q117.75 -94.35 115.25 -98.7 L111.65 -105.3 M101.35 -94.05 Q101.35 -92.75 102.25 -90.7 L103.15 -88.15 103.15 -88.1 Q104.15 -86.25 104.15 -84.95 104.15 -83.3 103.15 -81.25 102.15 -79.15 102.15 -78.6 102.15 -77.9 103.5 -76.0 104.9 -74.0 106.0 -73.4 106.75 -73.0 109.6 -71.85 109.45 -72.95 109.85 -74.5 109.85 -76.15 109.5 -77.25 109.1 -78.3 109.1 -79.25 L109.75 -84.4 109.5 -85.85 109.25 -87.3 109.3 -89.4 Q108.65 -89.9 108.25 -90.3 L102.25 -96.65 Q101.35 -94.7 101.35 -94.05 M100.8 -35.75 Q103.95 -36.55 106.5 -37.95 L106.35 -39.75 105.8 -43.5 Q105.35 -45.4 105.35 -46.75 105.35 -48.9 106.15 -50.25 106.9 -51.65 106.9 -53.75 L106.4 -57.9 Q106.4 -59.3 106.55 -60.3 L103.75 -59.8 Q103.9 -55.7 100.8 -53.8 97.6 -51.9 97.6 -50.05 97.6 -48.65 98.7 -46.6 L100.4 -42.8 Q100.8 -41.5 100.8 -39.35 L100.75 -35.9 100.75 -35.75 100.8 -35.75 M108.0 -57.95 L108.6 -52.05 Q108.6 -51.0 107.85 -49.5 107.1 -48.05 107.1 -46.7 107.1 -45.75 107.6 -43.9 L108.1 -40.9 108.2 -39.05 Q110.4 -40.7 112.0 -42.95 114.05 -45.9 116.5 -51.55 113.1 -52.25 112.25 -53.05 L113.55 -54.35 114.65 -55.55 115.05 -56.65 115.4 -58.25 Q115.4 -59.75 113.4 -60.35 L108.45 -60.55 Q108.0 -59.15 108.0 -57.95 M114.35 -13.05 L114.6 -12.9 114.65 -12.5 114.9 -12.15 Q116.05 -10.25 116.35 -10.05 L118.3 -8.1 120.35 -6.0 Q122.15 -4.5 126.6 -2.5 L131.75 -0.3 131.85 -0.15 130.55 0.0 130.25 0.0 130.1 0.0 129.5 0.0 128.7 -0.1 123.4 -0.5 116.85 0.0 Q113.9 0.0 112.1 -2.55 110.9 -4.25 110.9 -5.25 110.9 -7.1 111.95 -9.4 112.65 -10.95 113.6 -12.15 L113.25 -12.9 Q113.75 -13.15 114.2 -12.9 L114.35 -13.05 M124.5 -15.8 Q124.65 -15.4 126.6 -15.3 129.1 -15.15 138.85 -15.15 140.55 -15.15 143.25 -18.75 L124.35 -19.65 124.35 -17.15 Q124.35 -16.1 124.5 -15.8 M176.0 -68.5 Q175.8 -67.45 174.15 -65.5 L174.9 -66.9 176.0 -68.5 M163.05 -1.95 L161.1 0.4 161.1 1.2 160.8 7.15 Q160.35 11.3 160.25 13.65 160.1 16.05 158.2 19.75 L156.4 23.3 155.7 25.1 153.35 27.6 151.4 29.1 Q148.15 30.65 143.8 32.15 L139.8 33.2 Q134.75 34.2 128.9 34.2 119.15 34.2 113.35 31.85 111.4 31.05 109.05 29.4 L104.85 29.15 Q101.25 28.25 98.9 30.0 99.45 31.0 99.85 33.45 100.2 35.6 100.75 36.8 L102.0 37.9 106.25 40.0 Q107.25 40.5 112.95 42.05 116.6 43.05 116.6 44.5 116.6 44.95 116.15 45.0 L114.0 45.6 113.5 45.75 Q116.9 48.25 128.35 52.6 128.35 53.35 127.75 53.35 L114.45 52.6 Q110.7 51.95 101.65 49.0 100.25 48.5 96.2 46.4 92.3 44.35 90.0 43.65 93.25 47.3 100.95 51.15 108.05 54.7 116.65 57.25 L116.7 57.15 116.75 57.5 Q116.75 58.5 113.5 58.5 104.55 58.5 102.45 58.3 97.45 57.75 92.9 55.4 L85.75 51.5 Q83.25 49.85 79.65 46.85 L74.1 42.4 74.0 42.8 74.1 43.0 74.1 43.1 74.05 43.1 Q75.35 47.8 76.35 53.85 L77.15 60.0 77.75 63.3 78.15 66.25 78.1 67.0 78.1 67.1 77.75 67.15 Q76.75 67.15 74.85 65.05 73.4 63.5 72.5 62.0 L68.85 57.0 65.15 51.8 Q62.75 48.55 60.15 46.75 60.15 50.7 59.35 58.15 L58.75 58.4 Q58.4 58.4 55.55 54.3 L54.25 52.45 54.35 53.35 54.85 68.7 54.75 73.4 Q55.1 73.6 54.5 73.6 53.85 73.6 53.55 73.1 L53.25 72.4 52.8 71.8 52.35 71.25 51.55 70.25 50.4 69.25 45.85 64.75 45.65 72.75 Q45.65 73.75 44.8 74.2 L41.35 75.0 37.4 76.0 33.2 76.85 Q31.7 76.85 31.05 76.25 L29.25 74.25 26.75 71.6 Q24.75 69.2 20.4 66.6 L20.35 67.0 20.85 72.8 Q20.85 76.55 20.25 78.35 19.3 81.0 19.6 83.75 L19.6 83.95 19.25 84.1 Q18.85 84.1 16.1 81.05 L12.35 76.75 9.1 73.1 8.05 71.6 Q6.45 71.65 4.9 72.3 3.45 72.9 3.0 73.5 2.65 73.95 2.25 76.1 L0.85 81.5 Q-0.65 87.15 -5.0 92.35 -5.95 91.25 -6.3 89.55 L-6.55 86.6 Q-6.55 85.7 -7.45 83.7 L-8.4 80.75 -10.15 86.25 Q-11.1 89.65 -11.3 92.4 L-11.5 92.55 -12.0 92.65 Q-13.0 92.65 -16.25 83.9 L-17.45 79.55 -17.8 81.6 -18.7 85.1 Q-19.3 87.3 -19.9 88.5 -23.6 96.0 -24.3 102.4 L-24.3 104.85 -24.0 105.1 -19.6 101.4 -16.0 98.6 -15.15 98.75 -15.05 99.5 -16.65 105.65 Q-18.3 111.9 -18.5 114.25 L-16.65 112.25 Q-15.3 110.85 -14.5 110.85 -13.75 110.85 -13.55 111.3 L-13.55 111.8 -14.05 116.0 -14.55 121.1 -14.55 121.15 -13.75 120.1 Q-13.05 119.35 -12.25 119.35 -10.9 119.35 -10.8 122.15 -10.75 124.35 -11.3 126.6 L-11.3 126.65 Q-8.15 118.95 -7.9 108.35 L-7.7 97.25 Q-7.4 90.25 -6.5 90.25 -5.3 90.25 -4.75 101.1 -4.5 106.55 -4.5 111.95 -4.5 117.85 -5.35 123.25 L-6.25 129.25 Q-6.25 132.0 -2.55 136.75 L1.15 141.55 1.1 142.15 0.3 142.35 -1.65 141.9 -3.3 141.25 -3.9 141.25 2.25 146.9 Q9.35 150.85 9.35 151.4 L9.25 151.85 7.55 152.0 1.85 151.15 -2.3 150.25 1.65 156.6 Q10.85 162.2 10.85 162.75 L10.75 163.25 8.5 163.25 0.65 161.0 3.55 166.25 Q5.35 169.3 7.5 171.65 L10.45 174.25 Q12.85 176.25 13.65 177.1 L18.6 182.3 18.5 182.9 Q18.85 183.1 18.25 183.1 L13.9 182.45 10.0 181.75 2.75 181.1 2.4 181.05 2.75 182.0 Q3.5 184.25 4.0 185.15 L5.55 188.35 Q6.45 190.15 7.5 191.35 9.3 193.45 14.0 197.75 L21.0 203.65 20.85 204.35 Q21.15 204.5 20.5 204.5 19.15 204.5 17.75 203.55 16.1 202.4 15.25 202.25 L12.55 201.45 Q10.85 200.85 9.15 200.75 L13.05 204.75 16.85 208.85 20.65 213.45 Q23.25 216.6 23.25 216.9 L23.25 217.3 23.1 217.5 22.45 217.65 18.4 216.5 13.1 214.85 9.0 213.2 Q6.4 211.9 5.0 211.5 5.35 214.65 10.15 220.35 L13.85 225.15 15.75 227.8 24.0 229.15 39.15 231.25 55.4 231.85 81.45 230.6 107.5 229.0 135.25 227.6 148.65 226.0 157.15 224.6 163.4 223.15 170.4 221.25 174.65 219.95 174.6 219.15 Q174.6 217.3 177.85 203.65 181.0 190.4 182.4 186.0 185.05 177.6 186.9 169.25 L188.1 165.15 Q188.4 164.1 189.15 163.1 190.1 161.8 191.5 161.0 193.9 159.7 195.9 159.2 199.95 158.25 208.0 158.0 L222.6 157.3 222.6 157.25 Q222.6 156.65 217.75 146.0 217.1 144.75 215.95 140.9 214.65 136.6 214.65 135.05 214.65 132.05 222.45 129.7 225.45 128.8 227.3 128.8 229.3 128.85 228.5 130.1 228.8 131.6 229.85 134.65 L231.35 139.5 Q232.6 144.95 234.0 149.0 L234.8 151.4 Q235.4 152.95 236.1 153.75 L238.0 156.15 Q239.1 157.2 242.75 158.1 245.3 158.1 246.5 157.45 L247.85 156.75 Q249.05 156.75 248.75 160.3 L248.6 163.45 246.75 167.5 251.45 167.15 Q253.4 167.35 253.6 170.5 253.65 171.8 254.15 174.3 L254.1 175.95 253.65 177.05 255.5 177.0 257.55 177.05 258.3 176.75 260.75 175.75 263.5 173.4 265.85 170.7 Q266.4 170.2 266.9 170.05 L269.2 167.65 271.45 164.85 272.65 163.55 273.85 162.1 277.55 156.6 Q279.85 153.15 281.45 151.05 L283.6 148.25 285.3 145.55 287.5 142.7 289.55 140.0 290.85 138.6 291.3 137.9 291.9 137.2 294.2 134.45 295.95 131.75 296.45 130.65 296.4 130.3 296.95 129.35 297.5 128.5 Q297.5 127.2 294.3 123.05 L290.65 118.5 289.05 115.8 287.35 113.4 Q284.0 110.05 284.0 108.5 L284.05 107.8 Q275.6 97.1 273.65 93.5 272.25 90.9 267.85 85.6 263.25 80.1 261.9 77.75 L259.25 73.75 Q257.6 71.4 256.9 69.9 L255.3 65.95 253.85 62.0 Q252.6 58.95 249.45 54.1 L244.5 46.25 Q242.6 42.85 236.8 38.3 232.0 34.55 227.0 31.75 219.25 27.35 216.1 26.15 L212.2 24.35 209.5 23.0 207.15 21.55 204.85 19.9 194.1 13.9 192.25 12.75 Q190.8 11.8 188.85 11.0 L183.75 8.35 Q182.0 7.4 180.65 6.9 L177.4 5.75 174.55 4.4 172.0 3.1 169.9 2.35 168.1 1.75 165.9 0.25 163.5 -1.6 163.05 -1.95 M333.2 213.2 Q334.35 212.05 335.45 211.45 332.45 208.25 331.3 202.1 330.5 194.4 330.0 192.25 327.8 182.85 321.9 171.6 L316.2 161.45 309.9 151.0 302.35 139.1 297.55 131.55 296.8 133.15 295.2 135.7 292.65 138.5 292.3 139.25 291.6 139.9 290.5 141.2 Q287.4 144.75 286.35 146.75 L284.5 149.45 282.45 152.2 278.65 157.75 274.8 163.25 270.1 168.8 268.4 170.7 Q269.1 172.3 272.75 175.0 276.1 177.5 279.85 177.8 L288.0 178.75 Q289.45 179.1 290.35 180.8 L291.75 183.5 Q293.35 185.6 294.25 188.4 294.85 190.35 296.2 193.35 L298.35 198.15 Q300.25 202.45 300.9 208.0 L301.5 217.85 301.75 227.6 301.7 231.95 Q306.6 231.65 309.9 229.25 L318.4 222.4 Q324.95 218.15 329.25 216.25 330.95 215.5 333.2 213.2 M110.55 29.5 Q112.9 30.9 114.55 31.3 L119.0 32.4 121.85 32.8 128.9 33.25 135.2 32.8 139.25 32.35 Q140.65 32.2 143.8 31.15 149.75 28.95 151.15 28.15 152.9 27.05 154.1 25.6 L155.85 17.85 Q156.85 12.85 156.85 9.55 L156.5 6.0 156.5 5.85 154.3 8.5 Q151.25 12.3 148.35 14.65 136.35 24.4 130.0 24.4 L128.7 24.15 128.55 24.15 122.15 23.6 Q120.85 23.0 120.25 23.0 L115.8 23.3 Q115.35 24.65 113.15 26.75 L111.0 28.6 109.95 29.15 110.05 29.2 110.55 29.5 M-179.55 -50.8 L-181.05 -50.25 -183.75 -49.45 -183.65 -48.8 -183.1 -47.65 -182.25 -46.4 -180.05 -44.25 -177.9 -41.75 Q-175.15 -37.9 -173.05 -32.0 L-171.25 -26.4 Q-169.9 -22.65 -169.0 -22.65 -167.4 -22.65 -167.05 -23.75 -166.9 -24.3 -167.05 -24.9 -167.05 -26.65 -168.5 -31.3 -170.0 -35.95 -170.0 -39.9 L-170.0 -41.45 -171.45 -42.95 Q-173.2 -44.95 -173.9 -46.5 L-174.55 -47.95 -175.3 -49.25 -176.1 -49.9 -177.3 -50.5 -179.55 -50.8 M-137.95 -29.1 L-135.9 -26.15 -132.5 -21.4 -129.4 -16.75 -128.15 -14.3 -125.0 -13.95 Q-122.0 -13.65 -122.0 -12.9 -122.0 -12.45 -123.6 -11.7 L-125.25 -10.65 Q-125.25 -10.05 -122.15 -5.95 L-119.35 -2.25 -118.75 -2.75 Q-117.55 -3.85 -117.55 -4.4 -117.55 -8.85 -122.25 -19.85 -126.0 -28.6 -128.75 -33.15 L-132.5 -40.25 Q-133.75 -42.8 -136.75 -47.4 -137.6 -48.95 -139.75 -51.05 L-143.5 -54.5 Q-144.15 -55.1 -148.55 -57.7 -153.0 -60.3 -153.5 -60.3 L-157.75 -57.9 -161.6 -55.5 Q-162.15 -55.5 -164.05 -57.75 -164.75 -58.55 -167.5 -59.65 -169.65 -59.65 -170.55 -58.8 L-171.3 -58.0 -170.25 -56.25 -167.75 -52.5 -165.15 -48.05 Q-163.55 -45.1 -162.9 -44.8 -158.85 -42.9 -157.6 -41.75 -156.15 -40.4 -156.15 -38.15 L-156.65 -33.85 -156.4 -32.0 Q-155.75 -30.95 -154.85 -30.65 L-153.25 -30.25 Q-152.85 -30.1 -152.0 -28.6 L-151.15 -26.8 Q-151.15 -26.6 -152.7 -25.9 -154.3 -25.2 -154.3 -24.5 L-153.8 -23.45 -153.25 -22.9 Q-152.55 -22.9 -151.85 -23.45 -151.15 -24.0 -150.25 -24.0 -148.4 -24.0 -147.25 -22.95 L-146.6 -22.1 -146.5 -22.85 -146.5 -22.95 Q-146.55 -24.55 -147.45 -28.3 -148.3 -31.9 -148.8 -33.0 L-150.5 -37.15 Q-152.25 -41.6 -152.25 -42.9 -152.25 -44.1 -150.45 -44.25 -148.35 -44.4 -144.75 -42.8 -143.9 -42.35 -143.0 -40.9 L-141.8 -38.9 -138.2 -34.9 Q-136.25 -32.95 -136.25 -31.0 L-136.25 -29.55 -137.0 -29.5 Q-137.5 -29.5 -138.0 -30.05 L-138.75 -30.75 -137.95 -29.1 M-188.3 -40.5 L-191.25 -40.8 -191.35 -40.8 -192.5 -39.8 -193.0 -38.9 Q-193.0 -38.2 -191.45 -33.35 L-189.05 -26.5 Q-187.95 -24.1 -184.8 -19.85 -181.25 -15.0 -179.9 -15.0 -179.05 -15.0 -178.9 -15.85 L-178.9 -16.75 -179.9 -23.05 Q-179.85 -24.45 -180.95 -26.35 L-182.9 -29.5 Q-183.9 -31.1 -185.5 -35.8 L-186.65 -39.0 -187.4 -39.75 -188.3 -40.5 M-17.6 0.6 L-18.2 0.6 -18.1 0.65 -17.6 0.6 M-61.75 84.1 L-64.8 87.9 Q-66.85 90.3 -68.5 91.6 L-74.0 95.45 Q-78.2 98.25 -78.35 98.25 -78.9 98.25 -81.05 97.0 L-82.85 95.95 -85.0 98.35 -88.25 101.75 -91.15 105.15 -93.35 106.85 -95.5 108.25 -96.25 108.15 -96.45 108.1 -96.5 107.65 -94.25 103.2 Q-92.0 99.15 -91.9 98.0 L-94.05 97.45 -97.0 96.85 -96.0 98.45 Q-95.5 99.3 -95.5 100.05 L-95.55 100.85 -96.15 101.6 -98.5 102.25 -99.15 102.6 -99.75 102.75 -101.35 100.95 -103.55 98.25 -102.55 101.95 Q-101.75 104.4 -101.75 106.1 L-102.0 106.4 -103.95 104.75 -106.0 103.1 -106.0 103.4 -104.85 107.55 -103.5 111.85 Q-103.75 111.85 -103.75 112.15 L-104.65 112.1 Q-104.45 111.25 -105.55 109.5 L-107.25 106.65 -109.65 101.25 -112.4 95.9 -115.15 90.5 -115.25 90.4 Q-111.25 102.15 -111.25 103.0 -111.25 104.55 -115.95 105.6 L-120.0 106.3 Q-119.95 106.65 -120.05 106.85 L-120.2 107.0 -120.0 107.5 -119.0 110.25 Q-117.75 115.15 -115.65 115.15 L-110.65 114.45 Q-108.1 113.85 -106.5 113.1 L-104.35 112.6 -102.25 112.25 -87.0 111.5 -80.95 111.7 -75.0 112.0 -73.8 112.35 -70.3 113.1 Q-65.55 113.85 -62.5 114.75 L-59.55 115.45 -58.9 114.1 Q-58.3 112.9 -58.3 111.75 L-58.5 109.9 Q-58.45 108.35 -57.35 108.35 -56.05 108.35 -54.5 109.35 -52.75 110.4 -52.15 110.5 L-51.45 108.45 Q-50.65 106.85 -50.1 106.85 -49.6 106.85 -49.15 108.85 -48.5 111.55 -46.9 113.4 -47.1 111.55 -45.85 108.65 L-43.55 103.5 -40.3 93.75 -40.3 89.85 -40.25 89.75 -40.55 89.65 Q-41.8 89.65 -42.75 91.75 L-43.35 93.15 -43.25 94.5 -43.75 94.75 -43.95 94.55 -44.0 94.6 -45.15 94.4 -44.6 93.2 -45.35 91.05 Q-46.2 88.4 -48.55 88.4 -49.55 88.4 -52.15 92.3 L-51.3 96.3 -50.5 100.95 -50.55 101.4 -50.75 101.6 Q-51.75 101.15 -52.25 99.8 -53.0 98.1 -53.5 97.5 -56.1 94.4 -56.5 93.5 L-59.85 97.2 -63.25 101.1 -67.8 105.45 Q-71.2 108.5 -71.85 108.5 L-72.3 108.4 -72.45 108.35 -72.5 107.9 -71.05 105.95 Q-69.5 103.65 -69.0 101.85 -68.05 98.4 -66.9 96.0 L-64.55 90.2 Q-63.1 86.6 -61.75 84.25 L-61.75 84.1 M-34.9 79.0 L-34.4 89.45 Q-34.1 95.65 -34.25 99.85 L-34.25 99.9 -32.85 95.5 Q-31.75 91.5 -31.75 90.25 -31.75 87.5 -32.75 84.8 L-34.9 79.0 M-156.65 43.9 L-161.05 44.75 -166.75 46.1 -167.0 46.1 -167.0 46.5 -167.5 46.85 -173.0 37.0 Q-175.65 31.25 -175.65 26.85 -175.65 25.25 -176.0 21.95 L-176.4 16.9 -176.65 7.0 -176.7 5.15 -176.65 2.85 -176.8 0.75 -176.8 0.55 -179.3 1.25 Q-182.4 2.45 -183.25 4.5 L-185.05 8.25 Q-186.4 10.65 -188.05 11.75 L-189.2 12.3 -191.0 13.25 Q-192.05 13.85 -192.75 15.0 -193.25 16.0 -193.8 18.75 -194.05 20.05 -195.0 22.5 L-195.25 26.15 Q-195.25 32.3 -193.75 37.65 -192.25 43.05 -192.25 49.3 -192.25 54.6 -195.5 62.7 -198.75 70.75 -198.75 78.05 -198.75 81.7 -198.15 84.1 -197.3 87.25 -195.15 90.0 -192.95 92.9 -189.15 95.75 -187.95 96.7 -183.15 98.25 L-178.75 99.85 -178.8 99.75 -178.8 99.4 -177.6 99.6 Q-175.35 99.6 -173.0 97.2 L-170.4 94.0 -168.45 91.15 -166.8 88.25 Q-166.0 86.8 -164.55 85.25 -162.75 83.25 -161.25 82.6 L-158.65 81.25 -156.5 80.25 -151.4 79.25 -148.2 78.75 -147.6 78.2 Q-146.6 77.55 -144.75 77.35 -143.35 77.25 -143.2 76.5 L-143.15 75.25 -142.55 70.6 Q-142.05 64.6 -142.05 61.4 L-142.3 54.25 -142.3 54.0 -143.0 52.5 -145.05 48.75 Q-146.05 47.4 -149.0 44.3 L-150.95 42.2 -153.8 43.15 -156.65 43.9 M-30.0 131.5 L-31.1 129.1 -31.4 133.6 -28.9 138.0 -27.7 140.7 -26.55 143.25 Q-25.35 145.3 -24.35 148.5 L-22.65 153.9 -22.55 154.0 -22.5 153.15 Q-22.5 151.25 -24.0 145.5 L-25.75 138.65 Q-25.95 137.5 -27.65 135.15 L-30.0 131.5" fill="#000000" fill-rule="evenodd" stroke="none"/>
    <path d="M100.75 -35.9 L100.8 -35.75 100.75 -35.75 100.75 -35.9" fill="#78da36" fill-rule="evenodd" stroke="none"/>
    <path d="M163.05 -1.95 L163.5 -1.6 165.9 0.25 168.1 1.75 169.9 2.35 172.0 3.1 174.55 4.4 177.4 5.75 180.65 6.9 Q182.0 7.4 183.75 8.35 L188.85 11.0 Q190.8 11.8 192.25 12.75 L194.1 13.9 204.85 19.9 207.15 21.55 209.5 23.0 212.2 24.35 216.1 26.15 Q219.25 27.35 227.0 31.75 232.0 34.55 236.8 38.3 242.6 42.85 244.5 46.25 L249.45 54.1 Q252.6 58.95 253.85 62.0 L255.3 65.95 256.9 69.9 Q257.6 71.4 259.25 73.75 L261.9 77.75 Q263.25 80.1 267.85 85.6 272.25 90.9 273.65 93.5 275.6 97.1 284.05 107.8 L284.0 108.5 Q284.0 110.05 287.35 113.4 L289.05 115.8 290.65 118.5 294.3 123.05 Q297.5 127.2 297.5 128.5 L296.95 129.35 296.4 130.3 296.45 130.65 295.95 131.75 294.2 134.45 291.9 137.2 291.3 137.9 290.85 138.6 289.55 140.0 287.5 142.7 285.3 145.55 283.6 148.25 281.45 151.05 Q279.85 153.15 277.55 156.6 L273.85 162.1 272.65 163.55 271.45 164.85 269.2 167.65 266.9 170.05 Q266.4 170.2 265.85 170.7 L263.5 173.4 260.75 175.75 258.3 176.75 257.55 177.05 255.5 177.0 253.65 177.05 254.1 175.95 254.15 174.3 Q253.65 171.8 253.6 170.5 253.4 167.35 251.45 167.15 L246.75 167.5 248.6 163.45 248.75 160.3 Q249.05 156.75 247.85 156.75 L246.5 157.45 Q245.3 158.1 242.75 158.1 239.1 157.2 238.0 156.15 L236.1 153.75 Q235.4 152.95 234.8 151.4 L234.0 149.0 Q232.6 144.95 231.35 139.5 L229.85 134.65 Q228.8 131.6 228.5 130.1 229.3 128.85 227.3 128.8 225.45 128.8 222.45 129.7 214.65 132.05 214.65 135.05 214.65 136.6 215.95 140.9 217.1 144.75 217.75 146.0 222.6 156.65 222.6 157.25 L222.6 157.3 208.0 158.0 Q199.95 158.25 195.9 159.2 193.9 159.7 191.5 161.0 190.1 161.8 189.15 163.1 188.4 164.1 188.1 165.15 L186.9 169.25 Q185.05 177.6 182.4 186.0 181.0 190.4 177.85 203.65 174.6 217.3 174.6 219.15 L174.65 219.95 170.4 221.25 163.4 223.15 157.15 224.6 148.65 226.0 135.25 227.6 107.5 229.0 81.45 230.6 55.4 231.85 39.15 231.25 24.0 229.15 15.75 227.8 13.85 225.15 10.15 220.35 Q5.35 214.65 5.0 211.5 6.4 211.9 9.0 213.2 L13.1 214.85 18.4 216.5 22.45 217.65 23.1 217.5 23.25 217.3 23.25 216.9 Q23.25 216.6 20.65 213.45 L16.85 208.85 13.05 204.75 9.15 200.75 Q10.85 200.85 12.55 201.45 L15.25 202.25 Q16.1 202.4 17.75 203.55 19.15 204.5 20.5 204.5 21.15 204.5 20.85 204.35 L21.0 203.65 14.0 197.75 Q9.3 193.45 7.5 191.35 6.45 190.15 5.55 188.35 L4.0 185.15 Q3.5 184.25 2.75 182.0 L2.4 181.05 2.75 181.1 10.0 181.75 13.9 182.45 18.25 183.1 Q18.85 183.1 18.5 182.9 L18.6 182.3 13.65 177.1 Q12.85 176.25 10.45 174.25 L7.5 171.65 Q5.35 169.3 3.55 166.25 L0.65 161.0 8.5 163.25 10.75 163.25 10.85 162.75 Q10.85 162.2 1.65 156.6 L-2.3 150.25 1.85 151.15 7.55 152.0 9.25 151.85 9.35 151.4 Q9.35 150.85 2.25 146.9 L-3.9 141.25 -3.3 141.25 -1.65 141.9 0.3 142.35 1.1 142.15 1.15 141.55 -2.55 136.75 Q-6.25 132.0 -6.25 129.25 L-5.35 123.25 Q-4.5 117.85 -4.5 111.95 -4.5 106.55 -4.75 101.1 -5.3 90.25 -6.5 90.25 -7.4 90.25 -7.7 97.25 L-7.9 108.35 Q-8.15 118.95 -11.3 126.65 L-11.3 126.6 Q-10.75 124.35 -10.8 122.15 -10.9 119.35 -12.25 119.35 -13.05 119.35 -13.75 120.1 L-14.55 121.15 -14.55 121.1 -14.05 116.0 -13.55 111.8 -13.55 111.3 Q-13.75 110.85 -14.5 110.85 -15.3 110.85 -16.65 112.25 L-18.5 114.25 Q-18.3 111.9 -16.65 105.65 L-15.05 99.5 -15.15 98.75 -16.0 98.6 -19.6 101.4 -24.0 105.1 -24.3 104.85 -24.3 102.4 Q-23.6 96.0 -19.9 88.5 -19.3 87.3 -18.7 85.1 L-17.8 81.6 -17.45 79.55 -16.25 83.9 Q-13.0 92.65 -12.0 92.65 L-11.5 92.55 -11.3 92.4 Q-11.1 89.65 -10.15 86.25 L-8.4 80.75 -7.45 83.7 Q-6.55 85.7 -6.55 86.6 L-6.3 89.55 Q-5.95 91.25 -5.0 92.35 -0.65 87.15 0.85 81.5 L2.25 76.1 Q2.65 73.95 3.0 73.5 3.45 72.9 4.9 72.3 6.45 71.65 8.05 71.6 L9.1 73.1 12.35 76.75 16.1 81.05 Q18.85 84.1 19.25 84.1 L19.6 83.95 19.6 83.75 Q19.3 81.0 20.25 78.35 20.85 76.55 20.85 72.8 L20.35 67.0 20.4 66.6 Q24.75 69.2 26.75 71.6 L29.25 74.25 31.05 76.25 Q31.7 76.85 33.2 76.85 L37.4 76.0 41.35 75.0 44.8 74.2 Q45.65 73.75 45.65 72.75 L45.85 64.75 50.4 69.25 51.55 70.25 52.35 71.25 52.8 71.8 53.25 72.4 53.55 73.1 Q53.85 73.6 54.5 73.6 55.1 73.6 54.75 73.4 L54.85 68.7 54.35 53.35 54.25 52.45 55.55 54.3 Q58.4 58.4 58.75 58.4 L59.35 58.15 Q60.15 50.7 60.15 46.75 62.75 48.55 65.15 51.8 L68.85 57.0 72.5 62.0 Q73.4 63.5 74.85 65.05 76.75 67.15 77.75 67.15 L78.1 67.1 78.1 67.0 78.15 66.25 77.75 63.3 77.15 60.0 76.35 53.85 Q75.35 47.8 74.05 43.1 L74.1 43.1 74.1 43.0 74.0 42.8 74.1 42.4 79.65 46.85 Q83.25 49.85 85.75 51.5 L92.9 55.4 Q97.45 57.75 102.45 58.3 104.55 58.5 113.5 58.5 116.75 58.5 116.75 57.5 L116.7 57.15 116.65 57.25 Q108.05 54.7 100.95 51.15 93.25 47.3 90.0 43.65 92.3 44.35 96.2 46.4 100.25 48.5 101.65 49.0 110.7 51.95 114.45 52.6 L127.75 53.35 Q128.35 53.35 128.35 52.6 116.9 48.25 113.5 45.75 L114.0 45.6 116.15 45.0 Q116.6 44.95 116.6 44.5 116.6 43.05 112.95 42.05 107.25 40.5 106.25 40.0 L102.0 37.9 100.75 36.8 Q100.2 35.6 99.85 33.45 99.45 31.0 98.9 30.0 101.25 28.25 104.85 29.15 L109.05 29.4 Q111.4 31.05 113.35 31.85 119.15 34.2 128.9 34.2 134.75 34.2 139.8 33.2 L143.8 32.15 Q148.15 30.65 151.4 29.1 L153.35 27.6 155.7 25.1 156.4 23.3 158.2 19.75 Q160.1 16.05 160.25 13.65 160.35 11.3 160.8 7.15 L161.1 1.2 161.1 0.4 163.05 -1.95 M-34.9 79.0 L-32.75 84.8 Q-31.75 87.5 -31.75 90.25 -31.75 91.5 -32.85 95.5 L-34.25 99.9 -34.25 99.85 Q-34.1 95.65 -34.4 89.45 L-34.9 79.0 M-61.75 84.1 L-61.75 84.25 Q-63.1 86.6 -64.55 90.2 L-66.9 96.0 Q-68.05 98.4 -69.0 101.85 -69.5 103.65 -71.05 105.95 L-72.5 107.9 -72.45 108.35 -72.3 108.4 -71.85 108.5 Q-71.2 108.5 -67.8 105.45 L-63.25 101.1 -59.85 97.2 -56.5 93.5 Q-56.1 94.4 -53.5 97.5 -53.0 98.1 -52.25 99.8 -51.75 101.15 -50.75 101.6 L-50.55 101.4 -50.5 100.95 -51.3 96.3 -52.15 92.3 Q-49.55 88.4 -48.55 88.4 -46.2 88.4 -45.35 91.05 L-44.6 93.2 -45.15 94.4 -44.0 94.6 -43.95 94.55 -43.75 94.75 -43.25 94.5 -43.35 93.15 -42.75 91.75 Q-41.8 89.65 -40.55 89.65 L-40.25 89.75 -40.3 89.85 -40.3 93.75 -43.55 103.5 -45.85 108.65 Q-47.1 111.55 -46.9 113.4 -48.5 111.55 -49.15 108.85 -49.6 106.85 -50.1 106.85 -50.65 106.85 -51.45 108.45 L-52.15 110.5 Q-52.75 110.4 -54.5 109.35 -56.05 108.35 -57.35 108.35 -58.45 108.35 -58.5 109.9 L-58.3 111.75 Q-58.3 112.9 -58.9 114.1 L-59.55 115.45 -62.5 114.75 Q-65.55 113.85 -70.3 113.1 L-73.8 112.35 -75.0 112.0 -80.95 111.7 -87.0 111.5 -102.25 112.25 -104.35 112.6 -106.5 113.1 Q-108.1 113.85 -110.65 114.45 L-115.65 115.15 Q-117.75 115.15 -119.0 110.25 L-120.0 107.5 -120.2 107.0 -120.05 106.85 Q-119.95 106.65 -120.0 106.3 L-115.95 105.6 Q-111.25 104.55 -111.25 103.0 -111.25 102.15 -115.25 90.4 L-115.15 90.5 -112.4 95.9 -109.65 101.25 -107.25 106.65 -105.55 109.5 Q-104.45 111.25 -104.65 112.1 L-103.75 112.15 Q-103.75 111.85 -103.5 111.85 L-104.85 107.55 -106.0 103.4 -106.0 103.1 -103.95 104.75 -102.0 106.4 -101.75 106.1 Q-101.75 104.4 -102.55 101.95 L-103.55 98.25 -101.35 100.95 -99.75 102.75 -99.15 102.6 -98.5 102.25 -96.15 101.6 -95.55 100.85 -95.5 100.05 Q-95.5 99.3 -96.0 98.45 L-97.0 96.85 -94.05 97.45 -91.9 98.0 Q-92.0 99.15 -94.25 103.2 L-96.5 107.65 -96.45 108.1 -96.25 108.15 -95.5 108.25 -93.35 106.85 -91.15 105.15 -88.25 101.75 -85.0 98.35 -82.85 95.95 -81.05 97.0 Q-78.9 98.25 -78.35 98.25 -78.2 98.25 -74.0 95.45 L-68.5 91.6 Q-66.85 90.3 -64.8 87.9 L-61.75 84.1 M-30.0 131.5 L-27.65 135.15 Q-25.95 137.5 -25.75 138.65 L-24.0 145.5 Q-22.5 151.25 -22.5 153.15 L-22.55 154.0 -22.65 153.9 -24.35 148.5 Q-25.35 145.3 -26.55 143.25 L-27.7 140.7 -28.9 138.0 -31.4 133.6 -31.1 129.1 -30.0 131.5" fill="url(#gradient0)" fill-rule="evenodd" stroke="none"/>
    <path d="M111.65 -105.3 L111.0 -104.95 111.25 -106.05 111.65 -105.3 M134.45 -10.95 L134.1 -10.55 131.65 -10.65 134.45 -10.95 M148.25 -44.05 L149.0 -44.65 148.55 -43.65 148.25 -44.05 M156.5 -67.5 L156.45 -67.3 156.4 -67.3 156.5 -67.5 M111.0 28.6 L110.55 29.5 110.05 29.2 109.95 29.15 111.0 28.6 M-147.25 -22.95 L-146.5 -22.95 -146.5 -22.85 -146.6 -22.1 -147.25 -22.95 M-137.0 -29.5 L-137.95 -29.1 -138.75 -30.75 -138.0 -30.05 Q-137.5 -29.5 -137.0 -29.5" fill="url(#gradient1)" fill-rule="evenodd" stroke="none"/>
    <path d="M124.5 -15.8 Q124.35 -16.1 124.35 -17.15 L124.35 -19.65 143.25 -18.75 Q140.55 -15.15 138.85 -15.15 129.1 -15.15 126.6 -15.3 124.65 -15.4 124.5 -15.8" fill="#3a3a3a" fill-rule="evenodd" stroke="none"/>
    <path d="M111.0 -104.95 L111.65 -105.3 115.25 -98.7 Q117.75 -94.35 120.15 -91.65 L123.35 -87.95 126.75 -84.3 131.45 -79.7 Q134.3 -77.05 135.25 -77.05 135.6 -77.05 135.75 -77.3 L135.85 -77.65 Q130.7 -84.1 128.55 -92.1 126.85 -98.4 126.85 -106.55 L127.25 -110.6 Q128.15 -109.25 131.5 -106.75 135.4 -103.85 138.0 -102.55 L145.75 -98.55 Q148.0 -97.5 151.3 -96.3 154.95 -95.0 156.0 -95.0 156.35 -95.0 156.35 -95.2 L156.4 -95.55 151.35 -100.0 Q148.0 -102.8 146.75 -104.4 141.9 -110.75 140.75 -113.25 139.85 -115.25 139.2 -118.1 L139.25 -118.25 138.7 -121.7 137.85 -124.9 Q136.55 -128.5 133.25 -131.65 L139.0 -131.75 140.4 -131.5 141.75 -131.25 Q142.15 -131.25 142.2 -131.5 L142.15 -132.2 Q142.15 -133.55 135.1 -139.9 L137.35 -139.9 Q138.05 -139.6 140.4 -139.05 L143.5 -138.5 Q144.1 -138.5 144.1 -138.75 L144.15 -139.55 Q144.15 -140.45 139.4 -145.9 L145.5 -146.25 147.8 -146.15 148.45 -144.05 149.65 -140.4 151.05 -135.85 Q152.1 -133.05 153.2 -133.05 153.8 -133.05 153.85 -133.25 154.25 -137.1 155.75 -140.0 L157.8 -143.7 Q159.45 -146.5 160.0 -146.5 167.85 -140.0 168.25 -140.0 169.1 -140.0 169.15 -141.3 L169.15 -143.15 169.25 -144.8 169.15 -145.7 Q169.15 -146.2 169.85 -146.4 L172.25 -145.35 176.0 -144.0 Q178.35 -143.35 180.0 -142.15 181.3 -141.25 182.25 -141.25 L183.75 -137.2 Q185.5 -132.75 186.25 -131.25 L192.75 -119.9 Q189.75 -122.9 188.75 -122.9 L188.3 -122.7 188.25 -122.75 188.0 -122.65 Q187.75 -122.5 187.75 -122.15 L187.75 -122.0 Q187.85 -118.85 191.8 -111.1 196.75 -101.25 198.25 -96.15 L194.7 -98.55 191.25 -100.65 190.75 -100.5 190.5 -100.4 192.35 -94.25 Q193.45 -90.7 193.75 -88.4 L194.25 -82.4 194.5 -78.8 194.75 -76.3 194.75 -76.15 193.1 -78.05 Q191.75 -79.55 191.1 -79.55 L190.5 -79.4 190.35 -79.25 192.6 -70.95 192.1 -68.3 Q191.6 -66.65 191.6 -65.4 L191.35 -60.15 190.75 -57.3 Q190.4 -55.65 189.85 -54.75 L188.85 -56.75 188.15 -58.15 188.4 -61.3 188.1 -64.55 Q186.85 -64.0 186.85 -62.5 L187.0 -60.0 186.85 -58.75 186.5 -58.65 186.4 -58.55 186.7 -57.85 186.0 -54.9 Q185.4 -52.7 182.95 -49.85 L178.1 -44.75 Q176.9 -43.45 176.15 -41.7 L174.5 -42.65 Q173.2 -42.95 172.85 -43.75 L171.85 -45.05 Q170.2 -45.9 167.8 -46.95 165.4 -47.95 164.6 -48.4 163.1 -49.2 161.75 -50.6 L161.6 -50.8 162.3 -51.7 164.35 -55.3 167.4 -57.75 Q169.85 -59.6 170.75 -61.4 171.3 -62.4 173.55 -64.85 L171.55 -63.35 169.75 -61.65 Q169.3 -60.55 166.5 -58.65 163.55 -56.65 163.0 -55.75 161.4 -52.9 160.8 -52.3 L160.5 -51.95 159.5 -53.0 Q157.95 -54.35 156.1 -55.15 L154.35 -55.5 152.5 -56.8 Q149.5 -58.85 148.6 -60.0 L147.2 -61.8 Q148.8 -60.75 151.85 -60.75 153.35 -60.75 154.2 -61.9 L154.85 -63.15 156.35 -63.3 163.15 -63.5 163.25 -64.0 163.0 -64.4 162.75 -64.4 Q162.35 -65.3 160.55 -66.0 L156.45 -67.3 156.5 -67.5 161.85 -70.9 Q165.85 -73.45 165.85 -73.9 L165.75 -74.5 Q161.75 -73.85 151.8 -70.75 143.1 -68.0 140.95 -66.4 L140.45 -65.95 140.25 -65.5 140.3 -65.15 140.25 -64.6 Q140.25 -63.9 140.5 -63.65 L141.05 -63.3 Q142.1 -61.7 147.6 -57.75 L150.15 -56.0 Q151.75 -54.65 152.8 -54.35 155.6 -52.75 156.85 -52.75 L157.1 -52.75 159.2 -50.95 Q157.6 -49.9 155.25 -49.25 154.15 -48.9 153.65 -47.75 L152.9 -46.0 151.15 -45.55 149.0 -44.65 148.25 -44.05 Q144.65 -47.65 143.5 -47.15 144.05 -45.9 146.15 -42.6 148.0 -39.75 148.5 -38.15 149.35 -35.35 150.45 -32.7 151.85 -29.25 152.5 -29.25 153.1 -29.25 153.0 -29.5 L153.0 -30.25 Q153.0 -32.2 152.4 -34.95 151.8 -37.75 151.0 -39.4 L149.3 -42.5 150.1 -43.5 Q150.7 -44.3 151.75 -44.15 153.1 -44.0 154.0 -44.65 154.7 -45.1 155.25 -46.5 155.6 -47.35 157.65 -48.15 L160.45 -49.75 Q162.75 -47.65 164.4 -46.75 165.9 -45.8 167.4 -45.25 L169.2 -44.55 171.25 -43.55 172.05 -42.6 173.5 -41.5 Q174.8 -40.75 175.65 -40.35 L175.45 -39.7 174.25 -34.65 173.15 -29.85 172.45 -26.2 Q171.5 -24.75 170.9 -22.05 L169.9 -16.8 Q169.65 -15.4 169.2 -14.45 168.6 -13.15 167.25 -11.75 L165.05 -9.3 162.9 -6.75 158.55 -1.95 153.75 3.0 149.75 8.0 147.2 10.95 139.75 14.85 Q133.7 17.9 130.05 17.9 L125.45 17.4 120.75 16.5 117.25 14.75 Q113.8 13.45 113.1 10.65 L112.25 8.35 Q111.55 6.9 111.4 6.15 L111.3 3.4 Q111.15 1.5 110.0 1.5 108.55 1.5 106.85 2.35 L104.9 3.4 106.1 -0.7 107.0 -4.5 Q107.0 -5.0 106.0 -5.9 L103.8 -8.0 Q100.6 -11.7 100.6 -17.8 100.6 -22.75 102.4 -22.75 102.75 -22.75 107.1 -19.9 L112.65 -16.15 Q122.25 -9.55 134.1 -10.55 L134.45 -10.95 137.25 -10.75 138.75 -11.05 141.5 -11.8 Q142.25 -12.0 142.9 -12.5 L143.9 -13.25 146.4 -15.1 Q148.1 -16.55 148.1 -17.4 148.1 -19.15 146.75 -20.0 144.0 -21.8 135.5 -21.8 L126.0 -22.25 123.25 -22.75 121.55 -22.25 121.25 -22.35 Q119.75 -22.85 119.75 -23.5 119.75 -24.75 124.25 -28.3 128.75 -31.85 128.75 -32.25 L128.75 -32.3 128.85 -32.5 128.0 -33.95 126.5 -35.4 125.0 -36.85 Q123.9 -38.1 123.9 -38.5 123.9 -39.4 124.95 -41.3 L126.6 -44.25 Q127.15 -45.25 127.2 -47.15 L127.15 -50.0 127.15 -55.8 Q127.05 -57.65 127.45 -59.05 L127.9 -61.65 Q127.9 -64.6 124.85 -66.15 L114.75 -69.9 111.15 -71.25 111.6 -75.0 111.2 -78.0 Q110.75 -80.0 110.75 -81.1 L111.0 -82.3 111.25 -83.55 110.7 -88.3 113.35 -86.55 Q116.9 -84.3 117.5 -84.3 118.1 -84.3 117.75 -84.5 L117.85 -85.1 115.7 -88.9 Q113.35 -92.8 112.75 -95.0 112.45 -96.15 111.7 -100.4 L111.0 -104.95 M114.35 -13.05 L114.2 -12.9 Q113.75 -13.15 113.25 -12.9 L113.6 -12.15 Q112.65 -10.95 111.95 -9.4 110.9 -7.1 110.9 -5.25 110.9 -4.25 112.1 -2.55 113.9 0.0 116.85 0.0 L123.4 -0.5 128.7 -0.1 129.5 0.0 130.1 0.0 130.25 0.0 130.55 0.0 131.85 -0.15 131.75 -0.3 126.6 -2.5 Q122.15 -4.5 120.35 -6.0 L118.3 -8.1 116.35 -10.05 Q116.05 -10.25 114.9 -12.15 L114.65 -12.5 114.6 -12.9 114.35 -13.05 M176.0 -68.5 L174.9 -66.9 174.15 -65.5 Q175.8 -67.45 176.0 -68.5 M111.0 28.6 L113.15 26.75 Q115.35 24.65 115.8 23.3 L120.25 23.0 Q120.85 23.0 122.15 23.6 L128.55 24.15 128.7 24.15 130.0 24.4 Q136.35 24.4 148.35 14.65 151.25 12.3 154.3 8.5 L156.5 5.85 156.5 6.0 156.85 9.55 Q156.85 12.85 155.85 17.85 L154.1 25.6 Q152.9 27.05 151.15 28.15 149.75 28.95 143.8 31.15 140.65 32.2 139.25 32.35 L135.2 32.8 128.9 33.25 121.85 32.8 119.0 32.4 114.55 31.3 Q112.9 30.9 110.55 29.5 L111.0 28.6 M333.2 213.2 Q330.95 215.5 329.25 216.25 324.95 218.15 318.4 222.4 L309.9 229.25 Q306.6 231.65 301.7 231.95 L301.75 227.6 301.5 217.85 300.9 208.0 Q300.25 202.45 298.35 198.15 L296.2 193.35 Q294.85 190.35 294.25 188.4 293.35 185.6 291.75 183.5 L290.35 180.8 Q289.45 179.1 288.0 178.75 L279.85 177.8 Q276.1 177.5 272.75 175.0 269.1 172.3 268.4 170.7 L270.1 168.8 274.8 163.25 278.65 157.75 282.45 152.2 284.5 149.45 286.35 146.75 Q287.4 144.75 290.5 141.2 L291.6 139.9 292.3 139.25 292.65 138.5 295.2 135.7 296.8 133.15 297.55 131.55 302.35 139.1 309.9 151.0 316.2 161.45 321.9 171.6 Q327.8 182.85 330.0 192.25 330.5 194.4 331.3 202.1 332.45 208.25 335.45 211.45 334.35 212.05 333.2 213.2 M-147.25 -22.95 Q-148.4 -24.0 -150.25 -24.0 -151.15 -24.0 -151.85 -23.45 -152.55 -22.9 -153.25 -22.9 L-153.8 -23.45 -154.3 -24.5 Q-154.3 -25.2 -152.7 -25.9 -151.15 -26.6 -151.15 -26.8 L-152.0 -28.6 Q-152.85 -30.1 -153.25 -30.25 L-154.85 -30.65 Q-155.75 -30.95 -156.4 -32.0 L-156.65 -33.85 -156.15 -38.15 Q-156.15 -40.4 -157.6 -41.75 -158.85 -42.9 -162.9 -44.8 -163.55 -45.1 -165.15 -48.05 L-167.75 -52.5 -170.25 -56.25 -171.3 -58.0 -170.55 -58.8 Q-169.65 -59.65 -167.5 -59.65 -164.75 -58.55 -164.05 -57.75 -162.15 -55.5 -161.6 -55.5 L-157.75 -57.9 -153.5 -60.3 Q-153.0 -60.3 -148.55 -57.7 -144.15 -55.1 -143.5 -54.5 L-139.75 -51.05 Q-137.6 -48.95 -136.75 -47.4 -133.75 -42.8 -132.5 -40.25 L-128.75 -33.15 Q-126.0 -28.6 -122.25 -19.85 -117.55 -8.85 -117.55 -4.4 -117.55 -3.85 -118.75 -2.75 L-119.35 -2.25 -122.15 -5.95 Q-125.25 -10.05 -125.25 -10.65 L-123.6 -11.7 Q-122.0 -12.45 -122.0 -12.9 -122.0 -13.65 -125.0 -13.95 L-128.15 -14.3 -129.4 -16.75 -132.5 -21.4 -135.9 -26.15 -137.95 -29.1 -137.0 -29.5 -136.25 -29.55 -136.25 -31.0 Q-136.25 -32.95 -138.2 -34.9 L-141.8 -38.9 -143.0 -40.9 Q-143.9 -42.35 -144.75 -42.8 -148.35 -44.4 -150.45 -44.25 -152.25 -44.1 -152.25 -42.9 -152.25 -41.6 -150.5 -37.15 L-148.8 -33.0 Q-148.3 -31.9 -147.45 -28.3 -146.55 -24.55 -146.5 -22.95 L-147.25 -22.95 M-179.55 -50.8 L-177.3 -50.5 -176.1 -49.9 -175.3 -49.25 -174.55 -47.95 -173.9 -46.5 Q-173.2 -44.95 -171.45 -42.95 L-170.0 -41.45 -170.0 -39.9 Q-170.0 -35.95 -168.5 -31.3 -167.05 -26.65 -167.05 -24.9 -166.9 -24.3 -167.05 -23.75 -167.4 -22.65 -169.0 -22.65 -169.9 -22.65 -171.25 -26.4 L-173.05 -32.0 Q-175.15 -37.9 -177.9 -41.75 L-180.05 -44.25 -182.25 -46.4 -183.1 -47.65 -183.65 -48.8 -183.75 -49.45 -181.05 -50.25 -179.55 -50.8 M-188.3 -40.5 L-187.4 -39.75 -186.65 -39.0 -185.5 -35.8 Q-183.9 -31.1 -182.9 -29.5 L-180.95 -26.35 Q-179.85 -24.45 -179.9 -23.05 L-178.9 -16.75 -178.9 -15.85 Q-179.05 -15.0 -179.9 -15.0 -181.25 -15.0 -184.8 -19.85 -187.95 -24.1 -189.05 -26.5 L-191.45 -33.35 Q-193.0 -38.2 -193.0 -38.9 L-192.5 -39.8 -191.35 -40.8 -191.25 -40.8 -188.3 -40.5 M-156.65 43.9 L-153.8 43.15 -150.95 42.2 -149.0 44.3 Q-146.05 47.4 -145.05 48.75 L-143.0 52.5 -142.3 54.0 -142.3 54.25 -142.05 61.4 Q-142.05 64.6 -142.55 70.6 L-143.15 75.25 -143.2 76.5 Q-143.35 77.25 -144.75 77.35 -146.6 77.55 -147.6 78.2 L-148.2 78.75 -151.4 79.25 -156.5 80.25 -158.65 81.25 -161.25 82.6 Q-162.75 83.25 -164.55 85.25 -166.0 86.8 -166.8 88.25 L-168.45 91.15 -170.4 94.0 -173.0 97.2 Q-175.35 99.6 -177.6 99.6 L-178.8 99.4 -178.8 99.75 -178.75 99.85 -183.15 98.25 Q-187.95 96.7 -189.15 95.75 -192.95 92.9 -195.15 90.0 -197.3 87.25 -198.15 84.1 -198.75 81.7 -198.75 78.05 -198.75 70.75 -195.5 62.7 -192.25 54.6 -192.25 49.3 -192.25 43.05 -193.75 37.65 -195.25 32.3 -195.25 26.15 L-195.0 22.5 Q-194.05 20.05 -193.8 18.75 -193.25 16.0 -192.75 15.0 -192.05 13.85 -191.0 13.25 L-189.2 12.3 -188.05 11.75 Q-186.4 10.65 -185.05 8.25 L-183.25 4.5 Q-182.4 2.45 -179.3 1.25 L-176.8 0.55 -176.8 0.75 -176.65 2.85 -176.7 5.15 -176.65 7.0 -176.4 16.9 -176.0 21.95 Q-175.65 25.25 -175.65 26.85 -175.65 31.25 -173.0 37.0 L-167.5 46.85 -167.0 46.5 -167.0 46.1 -166.75 46.1 -161.05 44.75 -156.65 43.9" fill="url(#gradient2)" fill-rule="evenodd" stroke="none"/>
    <path d="M101.35 -94.05 Q101.35 -94.7 102.25 -96.65 L108.25 -90.3 Q108.65 -89.9 109.3 -89.4 L109.25 -87.3 109.5 -85.85 109.75 -84.4 109.1 -79.25 Q109.1 -78.3 109.5 -77.25 109.85 -76.15 109.85 -74.5 109.45 -72.95 109.6 -71.85 106.75 -73.0 106.0 -73.4 104.9 -74.0 103.5 -76.0 102.15 -77.9 102.15 -78.6 102.15 -79.15 103.15 -81.25 104.15 -83.3 104.15 -84.95 104.15 -86.25 103.15 -88.1 L103.15 -88.15 102.25 -90.7 Q101.35 -92.75 101.35 -94.05" fill="url(#gradient3)" fill-rule="evenodd" stroke="none"/>
    <path d="M100.75 -35.9 L100.8 -39.35 Q100.8 -41.5 100.4 -42.8 L98.7 -46.6 Q97.6 -48.65 97.6 -50.05 97.6 -51.9 100.8 -53.8 103.9 -55.7 103.75 -59.8 L106.55 -60.3 Q106.4 -59.3 106.4 -57.9 L106.9 -53.75 Q106.9 -51.65 106.15 -50.25 105.35 -48.9 105.35 -46.75 105.35 -45.4 105.8 -43.5 L106.35 -39.75 106.5 -37.95 Q103.95 -36.55 100.8 -35.75 L100.75 -35.9" fill="url(#gradient4)" fill-rule="evenodd" stroke="none"/>
    <path d="M108.0 -57.95 Q108.0 -59.15 108.45 -60.55 L113.4 -60.35 Q115.4 -59.75 115.4 -58.25 L115.05 -56.65 114.65 -55.55 113.55 -54.35 112.25 -53.05 Q113.1 -52.25 116.5 -51.55 114.05 -45.9 112.0 -42.95 110.4 -40.7 108.2 -39.05 L108.1 -40.9 107.6 -43.9 Q107.1 -45.75 107.1 -46.7 107.1 -48.05 107.85 -49.5 108.6 -51.0 108.6 -52.05 L108.0 -57.95" fill="url(#gradient5)" fill-rule="evenodd" stroke="none"/>
    <path d="M141.25 -153.15 L153.35 -154.35 Q159.25 -154.75 166.35 -153.4 173.5 -152.1 176.95 -149.95 180.4 -147.45 181.5 -145.35 L182.5 -143.2 183.05 -142.4 183.65 -140.7 184.4 -137.8 Q185.25 -133.95 186.35 -131.9 L189.95 -125.95 Q192.95 -120.75 192.95 -120.15 192.95 -119.4 192.55 -119.4 191.95 -119.4 191.5 -120.1 L191.1 -120.95 190.85 -121.3 189.9 -121.3 189.45 -121.7 188.7 -121.8 Q188.05 -122.35 187.55 -123.3 L186.8 -124.9 Q186.05 -126.25 182.55 -128.4 L180.5 -129.75 Q181.75 -122.85 181.75 -116.95 181.85 -115.2 181.4 -115.2 180.8 -115.2 180.65 -115.55 L180.55 -116.1 180.0 -116.95 178.1 -118.7 175.0 -120.35 173.05 -120.8 173.0 -120.8 173.25 -118.4 173.25 -116.95 173.6 -114.5 173.45 -114.15 173.25 -114.0 Q173.1 -113.3 172.55 -113.3 171.9 -113.3 171.45 -114.15 L171.1 -115.15 Q170.5 -115.95 170.15 -116.9 L168.45 -119.65 167.55 -120.45 166.15 -122.25 165.55 -122.65 Q162.85 -124.25 160.7 -125.0 L161.45 -121.45 Q161.9 -119.35 162.45 -117.95 164.7 -112.4 164.7 -110.95 L164.65 -110.4 164.2 -110.3 Q163.5 -110.3 162.6 -111.4 L161.0 -112.55 158.85 -113.35 156.65 -114.0 158.95 -108.75 Q161.0 -104.15 161.0 -103.35 161.0 -102.65 160.45 -102.65 160.2 -102.65 159.35 -103.75 L158.25 -105.15 156.45 -106.4 156.6 -105.65 156.8 -104.85 Q157.1 -103.0 157.95 -101.45 L159.2 -99.5 160.15 -98.1 Q160.6 -97.15 161.85 -96.2 L162.45 -95.7 162.6 -95.75 163.05 -95.65 163.1 -95.35 162.95 -94.9 162.9 -94.75 162.75 -94.65 162.4 -94.4 Q161.8 -93.8 160.7 -93.55 157.8 -92.6 155.15 -92.6 L149.2 -92.8 146.85 -93.05 143.7 -93.75 Q142.8 -93.85 141.95 -94.25 140.85 -94.55 139.85 -95.05 136.0 -96.9 133.45 -98.5 L133.45 -97.5 133.65 -94.65 135.6 -86.7 137.6 -80.9 Q138.2 -78.8 138.75 -78.0 L139.55 -76.55 140.2 -75.05 Q140.2 -74.4 139.15 -74.4 138.05 -74.4 136.3 -75.3 L136.05 -75.4 134.95 -76.1 133.3 -77.4 132.2 -78.9 Q131.3 -80.3 131.3 -80.8 L131.5 -81.35 133.45 -78.7 134.1 -78.7 Q132.65 -81.25 132.1 -82.55 131.95 -82.85 132.05 -83.5 L131.65 -83.9 131.35 -84.4 130.1 -86.3 129.2 -87.3 Q128.85 -87.75 128.85 -88.25 L128.3 -90.15 127.6 -93.9 Q127.15 -96.25 126.65 -101.4 126.2 -106.4 126.2 -108.9 L126.25 -110.4 Q126.45 -111.65 127.35 -111.65 L128.05 -111.4 128.45 -110.95 128.45 -111.75 Q128.45 -112.25 128.8 -112.65 L129.8 -112.75 130.35 -111.85 130.45 -110.15 130.45 -109.3 131.1 -108.5 131.15 -108.45 Q131.4 -110.65 132.35 -110.65 133.6 -110.65 133.2 -108.4 L133.2 -106.6 133.9 -106.25 135.2 -105.35 139.95 -101.95 140.35 -102.2 141.0 -102.45 Q141.8 -102.45 143.8 -101.2 L146.3 -99.55 147.25 -98.85 147.45 -99.05 145.95 -102.2 144.6 -105.3 144.1 -105.5 Q143.8 -105.65 143.55 -106.15 L143.15 -106.9 142.55 -108.45 141.3 -111.65 140.75 -111.45 Q139.95 -111.45 139.3 -112.7 L138.7 -114.3 137.5 -117.05 137.05 -116.95 Q136.0 -116.95 135.8 -118.5 135.65 -119.55 135.8 -120.2 135.9 -121.9 135.25 -123.45 L135.05 -122.65 Q134.75 -122.05 134.05 -122.05 133.1 -122.05 132.55 -123.3 L132.1 -124.85 131.35 -127.55 Q130.55 -130.25 130.55 -132.95 L130.65 -134.15 Q130.9 -135.1 131.85 -135.1 L132.0 -135.1 Q132.05 -137.95 134.8 -143.5 137.5 -148.95 138.6 -148.95 139.45 -148.95 139.55 -148.0 L138.5 -145.15 136.75 -141.45 136.8 -141.4 139.6 -146.95 Q140.9 -149.2 142.2 -149.2 143.15 -149.2 143.15 -147.95 L144.85 -150.2 145.35 -150.7 146.4 -150.9 146.95 -150.25 Q147.1 -149.75 147.45 -149.75 L148.15 -149.95 Q149.25 -149.95 149.2 -149.0 L148.95 -148.25 148.5 -147.55 148.55 -147.3 148.85 -147.6 Q149.1 -147.85 149.7 -147.9 L150.4 -147.95 150.7 -148.2 151.35 -148.85 Q152.05 -149.4 152.45 -149.4 153.5 -149.4 153.45 -148.35 153.45 -147.8 152.85 -146.95 L151.8 -145.6 153.25 -147.45 Q154.55 -148.95 155.3 -148.95 156.35 -148.95 156.4 -148.15 L156.3 -147.4 156.5 -147.3 156.85 -147.7 Q157.15 -148.1 157.9 -147.9 L159.0 -148.15 159.85 -147.8 160.25 -148.55 Q160.45 -148.85 161.65 -148.85 L162.25 -149.25 Q162.6 -149.7 163.1 -149.7 164.1 -149.7 164.05 -148.7 L163.8 -147.9 164.05 -147.65 164.3 -147.15 164.2 -146.35 164.4 -145.85 165.2 -147.45 165.95 -148.55 166.55 -149.15 167.4 -149.0 167.9 -149.4 Q168.4 -149.8 168.7 -149.8 L169.4 -149.35 169.65 -148.85 169.4 -147.75 169.5 -147.7 169.65 -147.4 Q170.1 -148.15 170.95 -148.6 L172.3 -148.55 172.5 -147.35 172.5 -146.2 172.95 -146.8 Q173.35 -147.2 173.85 -147.2 L174.55 -147.0 175.5 -147.45 176.95 -147.95 177.65 -147.85 177.1 -148.4 175.2 -149.45 173.55 -150.2 169.4 -151.5 Q163.65 -153.1 156.2 -153.1 139.45 -153.1 124.5 -147.0 110.9 -141.45 100.95 -131.9 94.65 -125.85 88.65 -117.15 L84.1 -109.85 81.95 -106.2 81.4 -104.2 Q81.05 -102.7 80.7 -102.7 80.3 -102.7 80.2 -103.4 L80.15 -104.15 Q80.15 -104.65 80.7 -106.2 L81.4 -107.9 83.6 -111.55 Q86.6 -116.8 88.2 -118.9 L93.8 -126.15 Q97.2 -130.3 100.7 -133.5 105.2 -137.6 109.9 -140.75 115.85 -144.7 123.55 -148.15 126.05 -149.3 130.55 -150.6 L135.9 -152.0 141.25 -153.15 M110.35 -109.25 Q111.25 -109.95 111.75 -108.85 L112.1 -107.55 Q112.15 -107.25 112.5 -106.9 L112.9 -106.35 Q113.0 -105.75 113.25 -105.25 L113.85 -103.0 113.85 -105.5 Q113.8 -106.7 113.9 -107.15 114.1 -107.9 114.85 -107.9 115.65 -107.9 115.75 -107.05 L115.7 -105.95 115.6 -104.05 115.9 -99.6 116.25 -96.6 116.05 -99.7 116.1 -101.05 116.0 -101.65 Q116.1 -102.15 116.8 -102.1 117.2 -94.85 117.95 -90.4 L119.35 -84.55 120.45 -81.65 121.3 -80.15 121.8 -78.75 Q121.8 -78.15 121.3 -78.15 120.8 -78.15 120.05 -79.25 L119.05 -80.8 116.7 -83.3 116.25 -83.9 115.65 -84.65 114.5 -85.95 112.35 -88.5 107.35 -93.55 106.9 -94.1 106.55 -93.45 Q106.1 -92.65 106.1 -91.85 L105.85 -90.3 Q105.85 -88.95 106.75 -87.2 107.65 -85.5 107.65 -83.65 107.65 -82.05 107.0 -80.35 106.3 -78.65 106.3 -77.0 L106.35 -76.15 106.4 -75.5 107.2 -73.75 108.65 -70.7 Q107.3 -71.0 106.4 -72.65 106.15 -70.6 105.45 -70.6 104.9 -70.6 104.1 -71.2 L103.4 -71.85 Q103.05 -72.45 102.95 -73.15 L102.5 -75.8 101.9 -78.05 Q101.35 -80.35 101.35 -81.05 L101.55 -82.9 102.2 -83.6 102.5 -83.8 102.5 -84.7 Q102.5 -85.35 102.8 -85.65 L103.15 -85.8 103.3 -86.0 103.3 -86.2 103.4 -86.6 103.35 -87.75 Q103.0 -87.85 102.8 -88.3 L102.0 -87.8 101.35 -88.05 100.6 -88.25 99.75 -88.45 Q99.4 -88.75 99.4 -89.25 L100.1 -92.2 100.6 -95.1 100.8 -96.55 Q100.95 -97.45 101.35 -98.0 L101.75 -98.75 Q102.0 -99.1 102.85 -99.15 103.65 -98.65 103.35 -97.65 103.9 -97.45 104.05 -97.25 L104.15 -96.85 104.5 -96.1 104.65 -94.6 105.2 -94.8 105.8 -94.65 106.1 -95.1 Q104.55 -97.15 103.95 -98.8 L104.0 -98.9 105.7 -96.85 106.55 -95.8 107.05 -96.6 Q107.3 -97.35 108.05 -97.1 L108.15 -96.75 107.3 -94.95 107.55 -94.75 109.5 -92.65 111.55 -90.55 113.6 -88.4 115.4 -86.3 116.4 -85.15 116.3 -85.95 Q116.3 -86.5 115.45 -87.15 114.5 -87.85 114.3 -88.6 L113.35 -91.25 Q112.3 -92.9 111.7 -96.5 L110.55 -101.95 Q109.95 -104.55 109.95 -106.95 109.95 -108.9 110.35 -109.25 M150.05 -143.2 L151.25 -144.75 150.05 -143.25 150.05 -143.2 M159.3 -125.75 L159.45 -125.0 159.6 -124.65 159.35 -125.75 159.3 -125.75 M135.55 -135.15 L135.15 -134.55 135.35 -134.45 135.55 -135.15 M133.4 -133.45 L133.55 -132.7 133.6 -132.65 133.9 -133.55 133.4 -133.45 M161.4 -94.9 L161.6 -94.95 161.5 -95.05 161.4 -94.9 M152.2 -97.65 L152.1 -97.3 151.65 -96.9 Q153.65 -96.15 154.4 -96.3 L153.8 -96.45 Q153.45 -96.5 152.85 -96.95 L152.2 -97.65 M155.05 -67.15 L155.3 -67.5 156.2 -68.35 159.05 -70.1 162.45 -71.7 162.85 -72.15 163.25 -72.35 163.6 -72.55 163.9 -73.0 164.15 -73.4 165.2 -73.55 165.0 -74.45 Q165.0 -74.95 165.5 -74.9 166.05 -74.9 166.35 -74.2 L167.05 -72.7 167.3 -71.1 167.5 -69.65 Q167.5 -65.45 165.65 -60.3 164.75 -57.75 163.5 -55.65 L162.05 -53.3 Q160.65 -51.05 160.3 -51.05 159.3 -51.05 159.3 -51.85 L160.0 -53.05 159.9 -53.15 159.2 -53.45 158.5 -53.15 Q158.1 -53.15 157.6 -53.65 L156.95 -53.65 156.2 -53.8 156.0 -54.25 155.35 -54.15 Q154.45 -54.15 153.9 -54.95 L153.3 -55.9 152.95 -55.45 Q152.65 -55.15 152.35 -55.15 151.45 -55.15 151.15 -55.9 L151.05 -56.7 150.9 -57.4 150.5 -57.55 150.0 -57.95 149.5 -57.9 Q149.1 -57.9 148.2 -58.75 L147.1 -59.9 146.35 -60.8 145.75 -61.85 145.85 -62.3 Q146.05 -62.7 146.6 -62.7 147.45 -62.7 148.5 -61.55 L148.25 -62.4 Q148.25 -63.35 149.0 -63.35 149.5 -63.35 149.8 -62.75 L150.1 -61.9 150.8 -62.8 151.0 -63.3 Q151.25 -63.7 151.75 -63.7 152.5 -63.7 152.7 -62.7 L153.7 -63.5 153.45 -64.35 153.35 -65.1 153.4 -66.0 Q153.55 -66.45 154.2 -66.9 L154.6 -66.95 155.05 -67.15 M106.35 -82.15 L106.35 -82.05 106.4 -82.2 106.35 -82.15 M98.45 -58.0 Q98.95 -59.4 100.15 -59.4 101.3 -59.4 101.25 -57.55 101.15 -55.1 101.55 -54.55 L102.7 -57.9 104.0 -61.3 104.3 -62.15 104.65 -62.95 105.55 -63.8 106.15 -64.15 106.15 -64.3 Q106.15 -64.85 106.55 -65.15 106.95 -65.5 107.05 -64.55 L107.2 -63.8 Q107.65 -63.15 107.7 -60.95 L107.9 -59.6 107.5 -56.6 107.15 -55.1 106.55 -53.7 Q104.9 -51.65 104.35 -50.25 104.0 -49.3 104.0 -47.85 104.0 -45.45 105.7 -41.5 L106.25 -40.15 Q107.2 -40.7 107.6 -41.25 L108.45 -42.4 110.6 -44.7 112.6 -47.15 Q113.65 -48.6 115.1 -51.95 L115.6 -53.15 Q115.9 -54.05 116.8 -54.0 L117.05 -54.55 Q117.4 -55.05 117.85 -55.0 118.8 -54.85 118.8 -53.8 118.8 -52.65 117.1 -49.15 115.55 -46.0 114.85 -45.15 112.2 -41.9 111.0 -40.85 L108.7 -38.7 107.2 -37.8 108.15 -35.2 107.85 -34.95 106.6 -36.85 107.0 -35.4 106.7 -34.95 106.35 -34.65 106.65 -33.85 106.9 -33.15 Q106.9 -32.75 106.45 -32.75 106.05 -32.75 105.25 -34.2 L104.7 -35.3 103.8 -35.05 103.7 -33.8 Q103.45 -33.05 102.7 -33.05 101.7 -33.05 101.2 -33.8 100.9 -34.25 100.9 -34.6 L100.55 -35.45 100.25 -35.75 100.0 -36.2 99.8 -37.7 99.55 -39.3 99.3 -40.9 99.2 -41.7 99.05 -41.9 98.5 -42.35 Q97.5 -43.35 97.5 -43.95 L97.5 -45.45 97.45 -45.5 96.6 -45.2 Q95.8 -45.2 95.65 -46.0 L95.65 -46.8 96.25 -50.2 96.95 -53.2 97.55 -54.7 98.15 -56.4 Q98.15 -57.25 98.45 -58.0 M103.1 -25.8 L104.05 -25.65 Q104.4 -25.2 104.35 -24.5 L104.35 -23.4 104.7 -23.4 Q105.5 -23.4 105.6 -22.5 L106.15 -22.4 Q106.7 -23.3 107.35 -23.3 108.25 -23.3 108.25 -22.4 L108.0 -21.6 109.9 -20.2 112.4 -17.7 116.3 -14.95 Q117.1 -14.4 119.15 -13.95 120.6 -13.65 120.6 -12.9 120.6 -12.35 119.8 -12.2 L120.35 -12.05 Q124.95 -10.8 128.05 -10.8 L134.95 -11.3 137.5 -11.75 140.2 -12.35 141.85 -13.3 144.15 -15.45 145.15 -16.7 146.0 -17.4 146.6 -17.15 146.8 -16.65 Q146.8 -15.9 145.4 -14.3 L143.1 -12.2 141.15 -11.0 Q139.8 -10.35 138.45 -10.2 L134.65 -9.55 128.9 -9.2 Q123.4 -9.2 115.15 -12.0 L114.5 -12.2 114.2 -11.85 114.25 -11.5 113.2 -10.3 112.55 -9.65 Q111.4 -8.1 111.4 -7.6 L111.7 -7.15 111.95 -6.5 112.05 -5.45 Q112.0 -4.95 112.25 -4.3 112.6 -4.3 113.0 -3.9 L113.15 -3.65 113.4 -3.75 114.7 -3.35 115.95 -2.95 119.05 -2.55 121.55 -2.05 122.65 -1.5 Q123.0 -1.2 123.35 -1.2 L123.85 -1.35 124.65 -1.5 Q127.6 -1.5 127.6 -0.25 127.3 0.4 126.85 0.4 L126.6 0.4 125.05 0.7 120.05 1.35 Q118.05 1.9 116.4 3.45 115.75 4.0 115.1 5.7 114.55 7.15 114.55 7.8 L114.85 9.1 115.4 10.3 116.7 12.75 117.2 13.1 117.4 13.4 117.9 13.95 119.15 15.2 121.1 16.45 Q122.05 17.05 122.05 17.55 L121.9 18.1 121.45 18.45 Q120.8 18.45 119.4 17.6 118.0 16.8 117.45 16.15 L115.2 13.75 115.3 14.6 Q115.3 15.6 114.45 15.6 113.95 15.6 113.7 15.25 L113.5 14.7 113.5 13.95 112.9 13.8 Q112.45 13.55 112.4 12.95 L112.35 11.95 112.2 10.0 112.0 8.3 Q110.8 5.0 110.8 1.0 L110.85 0.05 110.4 -0.25 110.2 0.4 110.55 1.75 Q110.0 3.4 109.3 3.4 L108.45 3.2 108.05 3.0 107.3 3.3 106.8 3.2 106.7 3.0 Q106.0 3.9 105.4 6.0 104.95 7.45 104.2 7.45 L103.45 7.0 103.4 6.5 103.7 4.75 104.1 2.7 104.4 0.7 Q104.5 -0.1 104.95 -0.55 L105.3 -1.1 Q105.3 -2.05 104.45 -3.6 104.2 -4.0 103.7 -4.05 103.3 -4.1 103.1 -4.5 L102.65 -5.7 102.1 -6.3 Q101.75 -6.6 101.7 -6.8 L101.65 -8.05 101.35 -8.65 101.1 -9.25 100.5 -15.35 100.1 -17.6 Q99.75 -19.45 99.75 -20.15 99.75 -20.7 99.9 -20.95 L100.5 -22.3 101.0 -23.4 101.4 -23.8 101.85 -24.3 102.4 -25.35 103.1 -25.8 M104.8 -12.95 L105.05 -11.05 Q105.15 -10.05 105.65 -9.15 L105.9 -8.25 106.3 -7.3 107.45 -5.65 107.9 -6.4 110.45 -9.8 111.7 -11.1 112.2 -11.8 112.95 -12.75 106.0 -14.8 105.1 -14.6 104.95 -13.85 104.8 -12.95 M106.45 -3.5 Q106.5 -4.2 105.8 -4.95 105.75 -4.5 106.4 -3.25 L106.45 -3.5 M115.55 -0.75 L116.35 -0.95 116.55 -1.1 115.4 -1.3 115.55 -0.75 M150.65 -44.4 L152.0 -42.8 Q154.45 -39.85 154.45 -36.3 L154.25 -34.55 153.95 -32.8 153.45 -30.5 Q153.25 -29.55 152.4 -29.55 151.65 -29.55 151.45 -30.1 L151.4 -30.7 151.6 -32.45 151.4 -36.8 150.95 -38.3 149.45 -41.3 147.8 -43.1 146.65 -44.4 146.5 -45.15 145.15 -45.9 143.95 -46.6 Q143.6 -47.0 143.6 -47.35 143.6 -47.85 144.05 -47.95 L145.8 -47.55 147.05 -46.75 148.35 -46.1 150.65 -44.4 M179.0 -146.6 L179.4 -145.45 179.7 -144.25 180.75 -143.05 181.05 -143.35 181.1 -143.4 181.0 -143.8 Q180.9 -144.65 179.5 -146.1 L179.0 -146.6 M175.5 -121.15 L176.05 -120.95 175.65 -121.25 175.5 -121.15 M163.45 -112.1 L163.45 -112.15 163.4 -112.15 163.45 -112.1 M167.75 97.4 L168.7 98.8 169.75 100.25 171.25 101.85 171.6 102.1 171.55 102.25 171.75 103.0 171.65 103.35 171.5 103.25 170.95 102.9 170.6 103.0 Q168.95 103.0 167.45 101.55 L166.5 100.4 163.7 98.1 Q159.85 94.7 156.1 93.25 L152.15 91.1 147.5 88.4 Q146.0 87.65 143.75 86.0 L141.85 83.75 142.0 83.6 143.15 84.25 153.15 87.7 Q159.15 89.95 161.5 92.25 L164.8 94.85 167.75 97.4 M234.65 130.8 L235.0 132.5 Q235.3 133.85 237.15 139.25 239.15 144.95 242.0 148.45 245.05 152.25 248.15 152.25 249.8 152.25 251.6 151.4 253.4 151.4 254.0 157.15 254.25 160.15 253.85 162.75 258.55 162.7 260.25 163.75 261.2 164.3 261.75 165.5 262.45 166.35 263.25 168.5 L264.4 171.85 265.25 174.7 Q265.25 176.1 263.0 175.75 L262.75 175.9 263.0 176.75 Q263.0 178.05 262.15 178.15 L257.5 178.75 256.9 178.9 256.25 179.0 Q253.15 179.0 251.95 178.1 251.25 177.6 251.25 177.0 251.25 176.35 252.1 175.4 252.9 174.45 252.9 173.75 L252.1 172.6 Q251.35 171.65 251.5 170.75 L251.8 169.6 250.0 168.0 249.55 169.05 Q249.15 169.9 248.1 169.9 246.95 169.9 246.6 169.1 L246.5 168.2 247.2 164.15 248.15 159.25 Q248.5 159.1 247.85 159.1 246.4 159.1 245.3 160.1 244.2 161.1 243.6 161.1 L240.9 159.25 238.15 157.0 Q234.9 155.2 234.8 154.6 235.25 153.9 235.25 152.9 L233.25 147.5 231.0 142.25 Q229.2 138.6 228.9 131.75 226.8 131.7 225.85 131.0 225.25 130.55 225.25 129.95 225.25 128.4 229.25 128.5 232.9 128.6 233.5 129.1 234.4 129.8 234.65 130.8 M272.75 164.9 Q273.9 163.65 274.8 163.7 L274.75 163.35 Q274.75 159.5 276.85 162.55 277.95 164.05 279.25 166.65 281.55 169.35 283.05 170.65 285.85 173.0 289.85 174.5 L294.6 175.9 Q296.9 176.55 298.15 177.6 299.5 178.7 301.85 181.5 304.15 184.4 305.65 189.4 308.05 197.0 310.25 205.35 L311.15 209.3 Q311.7 211.6 312.35 213.25 L313.15 215.2 313.75 217.15 314.25 221.1 Q314.25 222.25 313.7 224.45 313.1 226.85 312.5 227.65 L310.65 229.1 307.9 230.65 305.9 232.2 Q304.2 233.4 302.2 233.4 299.85 233.4 298.6 232.1 L297.85 230.7 Q297.85 229.85 298.7 229.35 L300.85 227.75 Q299.65 225.25 298.25 220.75 296.5 215.25 296.5 212.75 296.5 212.15 296.95 211.6 297.45 211.0 298.25 211.0 299.3 211.0 300.0 211.8 L300.65 212.75 Q296.85 203.4 295.15 197.5 L294.45 193.7 Q294.1 191.25 293.4 189.75 L293.05 187.95 Q292.85 186.6 292.5 186.0 L291.7 185.05 291.25 185.25 Q289.45 185.25 288.7 184.55 L287.85 183.5 Q284.75 184.05 282.0 181.45 279.0 178.6 277.6 178.6 277.3 178.6 276.95 178.9 L276.3 179.15 273.15 178.5 272.5 177.95 271.75 177.25 Q271.2 178.5 270.1 178.5 269.0 178.5 268.7 177.7 L268.65 176.75 Q268.65 175.75 269.15 174.2 L269.65 172.4 268.65 171.4 Q267.65 170.65 267.65 169.8 L267.75 169.2 Q267.9 168.6 268.4 168.5 270.2 168.2 270.4 167.9 L271.0 167.35 272.1 165.9 272.75 164.9 M276.05 167.0 L276.05 166.95 276.0 167.0 276.05 167.0 M157.75 5.95 Q157.95 6.15 157.95 6.5 L157.5 7.5 157.35 8.55 157.35 9.2 Q158.05 9.35 158.2 9.6 L158.25 10.1 158.0 13.55 157.35 18.25 156.6 20.35 Q156.35 20.8 156.05 22.4 L155.25 24.95 Q154.75 26.4 154.25 26.4 153.55 26.4 153.35 25.8 L153.3 25.2 153.55 23.55 153.75 21.85 153.85 21.05 153.95 20.2 154.0 16.5 150.9 20.1 Q148.95 22.25 146.15 23.85 141.5 26.45 140.15 26.95 134.9 28.85 127.35 28.85 L116.8 28.6 Q114.1 28.6 112.4 29.25 111.15 29.85 110.75 29.85 110.3 29.85 110.15 29.5 L110.05 29.2 109.85 31.1 Q109.85 32.3 110.7 34.65 111.55 37.15 112.25 37.6 L112.55 38.0 112.85 38.45 113.95 39.2 116.2 40.8 Q117.35 41.55 119.9 42.35 121.6 42.9 121.6 43.7 L121.25 44.45 120.15 44.85 Q122.35 46.9 126.0 48.7 L129.3 50.45 130.7 51.25 131.3 51.75 131.4 51.85 131.4 51.95 131.45 52.2 Q131.45 53.3 128.95 52.85 128.4 52.9 128.15 53.1 L127.45 53.2 126.5 53.05 126.3 53.1 122.5 53.9 120.15 54.35 126.0 61.85 130.8 66.15 Q134.25 69.1 134.25 69.4 134.25 70.25 133.3 70.25 L122.75 67.25 116.35 65.85 Q112.1 64.75 111.15 63.5 111.15 65.2 111.6 67.85 L112.4 72.15 Q112.55 73.05 114.05 76.25 115.4 79.15 115.4 80.6 L115.45 81.5 Q115.4 81.9 115.0 81.9 L107.5 79.25 102.25 77.65 Q96.65 75.8 92.15 71.75 L85.9 65.9 Q82.25 62.15 81.75 59.75 82.05 62.4 85.75 70.85 89.35 79.05 89.35 79.55 89.35 80.6 88.5 80.6 85.6 80.6 81.95 77.65 79.8 75.85 78.35 74.0 L75.35 70.7 72.65 67.5 67.8 60.55 65.2 56.45 66.25 61.05 67.35 67.25 67.25 67.75 66.25 67.85 Q65.2 67.85 61.45 65.85 57.4 63.65 56.85 63.5 L56.5 66.1 56.1 68.9 55.6 74.35 Q55.8 74.5 55.2 74.5 54.7 74.5 54.6 73.25 L54.6 73.2 53.4 72.65 Q52.4 72.1 52.0 71.6 51.65 71.15 48.85 69.65 L46.65 68.6 Q46.65 71.15 47.15 74.0 L47.95 80.4 49.15 82.25 52.0 85.65 54.5 89.1 Q54.9 87.2 55.1 83.75 L55.1 81.1 Q55.2 79.4 56.0 78.75 56.65 79.8 56.75 81.8 L57.0 85.25 Q57.3 87.5 58.4 91.75 59.05 94.1 61.05 98.3 L64.1 104.9 Q66.1 110.05 72.65 117.9 L84.1 131.0 83.9 131.3 83.3 131.5 Q82.25 131.5 79.4 129.15 L75.75 126.0 Q71.15 122.9 68.75 120.6 63.35 115.6 59.4 109.75 50.4 96.05 47.25 88.0 47.0 88.85 47.0 90.9 47.0 93.1 47.35 96.25 L48.0 102.0 Q48.2 104.0 50.15 108.45 L52.1 112.75 52.0 113.4 Q52.35 113.5 51.75 113.5 49.65 113.5 46.5 107.35 L42.75 98.9 39.65 91.5 36.75 84.35 35.55 82.85 Q34.4 79.6 33.75 78.8 L33.1 78.0 33.5 79.25 Q35.45 85.35 35.0 94.5 34.65 101.85 36.5 109.65 37.3 113.15 40.35 118.6 41.9 121.45 44.0 124.75 L43.9 125.25 Q43.85 125.5 43.25 125.5 42.55 125.5 39.25 122.55 L35.25 119.0 Q32.25 116.8 29.65 112.5 L27.35 109.35 25.0 105.9 Q24.4 104.8 22.65 99.5 L22.5 99.4 22.2 105.7 Q21.85 108.6 21.85 110.75 21.85 117.0 24.0 121.3 L29.1 130.9 28.95 131.15 28.45 131.25 25.15 128.15 Q21.3 124.4 18.25 122.1 15.65 120.15 13.55 117.5 L10.35 112.9 4.55 103.85 Q1.2 98.4 -0.4 94.5 -0.5 98.0 0.15 105.0 L0.85 115.0 0.75 119.95 0.35 127.5 -0.2 133.7 -0.5 134.75 0.25 135.4 -0.4 136.2 2.05 138.05 4.4 140.05 7.25 141.75 8.65 142.5 10.6 143.5 12.45 144.15 Q13.25 144.5 13.25 145.05 L13.3 145.65 12.85 145.75 7.4 145.6 Q7.8 145.4 6.9 145.25 L6.3 145.3 10.15 148.7 14.0 152.3 18.25 155.25 Q22.15 158.0 22.15 158.3 L22.25 158.8 21.9 158.8 14.4 158.25 7.8 156.25 Q10.05 157.6 13.45 160.75 16.85 163.85 19.15 165.25 21.8 166.8 27.95 169.6 31.95 171.45 34.25 172.65 L35.05 172.75 Q35.65 172.9 35.65 173.35 L35.65 173.4 36.05 173.65 36.0 174.25 34.8 174.25 33.8 174.1 30.8 174.25 28.45 174.6 Q33.4 176.95 37.0 179.8 39.25 181.55 41.6 184.15 L41.2 181.3 40.7 178.45 40.7 177.85 40.05 173.7 Q39.65 170.35 39.65 167.4 L39.8 164.35 39.75 163.05 Q39.75 162.75 39.9 162.65 L39.9 162.6 39.75 162.25 Q39.9 162.05 40.75 162.25 41.35 164.45 43.3 167.85 L46.75 173.85 Q48.2 176.6 50.35 179.55 52.7 182.85 55.1 185.25 L73.1 203.05 77.3 203.7 Q84.0 204.65 86.25 205.65 86.05 206.5 84.75 206.5 L75.7 205.5 78.5 208.15 78.15 208.65 73.45 205.05 73.25 205.0 66.1 203.15 59.0 201.75 58.9 201.7 58.45 201.85 57.6 202.15 58.25 203.45 57.9 204.0 57.55 204.5 57.65 205.25 57.3 206.15 58.5 207.75 58.25 208.0 56.7 206.6 55.75 206.8 Q55.05 206.8 54.45 206.15 L53.8 205.3 53.0 204.3 Q52.8 204.75 52.3 204.75 51.35 204.75 50.7 203.45 L50.25 203.5 39.5 205.55 31.3 207.65 Q23.65 209.25 15.15 209.25 -2.15 209.25 -7.7 203.1 -12.4 197.95 -12.4 182.7 -12.4 179.85 -11.2 167.3 L-10.2 156.25 -12.35 159.15 Q-15.75 163.35 -17.9 163.35 L-22.05 162.95 -24.9 159.5 Q-26.55 157.45 -27.0 155.75 -27.75 152.8 -29.25 148.1 L-29.8 145.85 -30.5 144.9 Q-31.4 143.65 -32.05 139.65 -32.5 137.65 -32.55 135.25 L-33.05 132.7 -31.4 127.65 Q-29.8 122.3 -29.8 119.7 -29.8 114.6 -32.3 113.25 -33.65 112.5 -38.25 112.5 -41.3 112.5 -42.1 113.2 L-42.75 114.25 -43.95 114.6 -53.25 114.9 -60.4 115.4 -64.25 115.0 -66.4 114.1 Q-70.3 112.75 -84.4 112.75 L-86.7 112.95 -88.9 113.0 -94.0 112.75 Q-98.75 112.6 -100.2 112.75 L-102.9 113.15 -107.15 114.15 -110.2 115.1 Q-113.25 115.9 -116.0 115.9 -118.45 115.9 -119.2 114.45 L-120.3 110.9 -121.4 106.0 Q-122.65 99.5 -122.65 96.3 -122.65 92.45 -120.05 86.45 -117.1 79.6 -113.5 77.5 L-107.45 73.1 Q-103.4 70.05 -98.9 68.15 -88.05 63.6 -81.0 62.5 -70.5 60.8 -47.5 59.55 -26.75 58.35 -17.0 56.25 L-9.1 53.3 3.25 48.65 8.0 47.15 15.75 46.75 Q17.1 47.15 18.3 47.85 L18.65 48.1 Q18.85 46.2 19.45 43.75 20.7 38.5 23.1 38.5 24.9 38.5 25.65 40.8 26.05 42.0 26.25 43.9 27.1 47.65 28.25 49.0 29.25 48.4 29.55 47.45 L29.9 45.75 30.25 44.0 30.6 42.35 30.95 38.5 Q31.25 36.0 32.75 36.0 33.95 36.0 35.9 39.25 37.8 42.5 39.8 42.5 41.5 42.5 43.3 41.6 L45.5 40.35 49.9 37.9 58.75 33.0 Q61.7 31.35 68.6 28.4 L77.85 24.35 87.55 19.4 Q93.95 16.2 96.25 16.35 98.9 16.5 99.95 18.05 100.55 18.9 101.1 20.75 L103.4 23.5 103.65 25.5 103.55 26.3 103.75 27.0 104.45 26.7 Q105.1 26.7 106.55 27.25 L107.25 27.0 Q107.9 27.0 108.1 27.45 L108.2 28.05 108.5 29.1 108.55 29.1 109.0 27.3 109.65 26.35 109.95 25.8 Q110.2 25.55 110.75 25.55 111.4 25.55 111.35 26.15 L111.25 26.55 112.2 26.0 113.0 25.3 113.0 24.85 Q113.0 23.05 120.55 22.25 L121.1 22.1 122.75 22.35 124.35 22.55 130.0 22.7 131.0 22.85 131.8 23.1 132.3 23.4 Q133.1 22.7 134.65 21.75 137.4 20.0 138.3 19.65 L142.65 16.95 143.7 16.4 145.3 15.1 148.25 12.95 154.35 7.1 Q155.15 6.85 155.25 6.65 L155.6 5.35 Q155.75 4.7 156.25 4.6 156.9 4.4 157.35 5.35 L157.75 5.95 M112.9 27.45 L112.9 27.25 112.8 27.0 112.65 26.85 111.15 27.85 Q110.85 27.85 110.75 27.7 L110.3 28.5 Q110.75 28.0 112.05 27.7 L112.9 27.45 M113.3 43.1 L113.95 43.3 114.3 43.6 114.75 43.8 Q113.85 42.7 113.3 42.85 L113.3 43.1 M100.45 87.95 L104.0 90.5 Q108.0 93.45 109.85 95.5 111.55 97.3 115.5 100.2 L122.0 105.0 134.5 114.6 Q139.85 118.8 142.9 122.0 L144.15 123.3 144.9 124.25 144.1 123.8 144.05 123.8 143.55 123.9 Q142.9 123.9 142.05 123.3 134.05 120.05 126.55 115.35 120.9 111.75 113.5 105.9 108.45 101.95 104.1 96.75 100.9 92.9 97.25 87.35 L97.65 87.25 97.5 87.15 Q98.15 86.4 100.45 87.95 M22.85 40.5 Q21.25 43.4 20.85 45.7 L20.65 48.85 23.15 48.75 25.65 48.7 25.55 48.55 24.65 45.75 23.9 43.05 22.85 40.5 M34.9 69.25 L34.1 69.4 33.9 69.75 33.65 70.5 33.6 70.8 34.15 71.4 Q34.65 70.8 35.1 70.7 L34.9 69.25 M39.4 69.5 Q40.1 69.8 40.35 70.7 L40.55 71.2 40.45 69.8 Q40.45 69.4 40.6 69.05 L39.2 69.05 39.4 69.5 M43.6 92.35 L43.6 91.9 43.4 91.95 43.5 92.25 43.6 92.35 M60.6 134.85 Q62.0 136.25 63.65 139.15 65.4 142.15 66.9 143.75 L70.1 148.0 73.5 152.6 81.55 161.45 Q85.9 165.85 91.5 170.4 L104.95 180.55 115.65 188.25 Q121.6 192.65 133.55 198.5 L138.25 197.05 Q142.85 195.95 142.85 198.05 142.85 198.7 142.25 198.8 L140.6 198.75 Q138.8 198.75 135.75 199.6 L147.4 205.1 Q147.85 205.25 147.25 205.25 145.5 205.25 134.0 200.1 L129.4 201.4 Q126.15 202.1 123.55 203.0 128.55 205.85 134.1 208.35 L134.1 208.5 Q134.55 208.85 133.9 208.85 130.95 208.85 123.75 204.85 L121.75 203.75 119.85 204.45 117.25 205.25 115.35 204.85 Q116.6 203.7 119.7 202.5 L116.25 200.25 103.75 191.1 Q91.55 181.4 83.35 172.9 79.6 169.0 75.85 163.7 L69.6 154.5 Q63.95 146.3 60.75 136.4 L61.0 136.35 60.25 134.9 60.6 134.85 M20.35 171.4 L20.75 171.55 20.8 171.5 20.35 171.4 M44.15 180.45 L44.3 181.25 44.65 181.75 44.55 181.5 44.15 180.45 M56.9 200.95 L57.1 200.9 56.8 200.75 56.9 200.95 M-171.75 -58.5 Q-171.75 -60.65 -170.6 -60.9 -169.3 -61.2 -168.4 -57.9 L-167.25 -55.05 -166.0 -52.25 Q-164.9 -49.85 -160.4 -46.5 -155.4 -42.65 -154.5 -41.0 L-154.4 -41.0 Q-154.4 -44.9 -150.75 -44.9 -149.15 -44.9 -146.1 -42.55 L-142.55 -39.75 Q-141.05 -38.9 -139.6 -37.05 L-137.4 -34.5 Q-135.15 -32.6 -133.75 -29.25 -132.1 -25.4 -131.05 -24.15 -129.6 -22.4 -127.5 -19.05 L-124.0 -13.65 -122.8 -12.45 -121.5 -11.0 -120.05 -8.4 Q-117.55 -4.55 -117.55 -3.35 -117.55 -2.75 -117.9 -2.2 -118.4 -1.55 -119.25 -1.55 -120.1 -1.55 -122.5 -5.35 L-126.55 -11.5 -130.05 -16.35 -133.5 -21.25 -137.2 -26.1 Q-139.5 -29.15 -141.25 -31.0 -141.9 -31.7 -142.25 -33.45 -142.5 -35.0 -143.75 -35.8 L-147.2 -38.3 Q-149.1 -39.7 -150.05 -40.15 L-148.75 -35.85 -147.5 -31.3 Q-144.25 -23.4 -144.25 -22.65 -144.25 -22.05 -144.6 -21.4 -145.05 -20.5 -146.0 -20.5 -147.3 -20.5 -148.3 -20.95 L-150.5 -21.5 Q-151.95 -21.55 -153.25 -22.5 -154.35 -23.2 -154.55 -23.8 L-154.65 -24.9 -154.55 -26.25 Q-154.3 -27.0 -153.15 -28.05 L-155.15 -29.35 Q-156.75 -30.15 -157.15 -30.65 L-158.2 -32.15 Q-158.4 -32.55 -158.4 -33.5 L-158.15 -35.9 -157.9 -37.15 -157.65 -38.25 Q-157.65 -39.35 -159.4 -40.8 L-162.75 -43.4 -167.75 -48.5 Q-168.55 -49.25 -170.1 -53.1 -171.75 -57.05 -171.75 -58.5 M-177.5 -44.05 Q-173.7 -40.55 -171.3 -35.8 -169.05 -31.3 -167.8 -27.55 L-166.55 -23.15 -165.65 -19.55 -165.9 -18.4 Q-166.25 -17.65 -166.75 -17.65 -169.05 -17.65 -170.4 -21.3 -171.1 -23.15 -171.4 -25.4 -172.15 -28.55 -174.5 -33.25 -175.55 -35.45 -180.75 -42.1 -185.5 -48.2 -185.5 -48.75 -185.5 -50.5 -183.55 -49.95 -181.9 -49.45 -180.8 -48.25 L-179.1 -46.15 -177.5 -44.05 M-187.0 -28.5 Q-185.8 -26.4 -180.5 -19.0 -175.75 -12.35 -175.75 -12.0 L-176.0 -11.25 Q-176.25 -10.75 -176.55 -10.75 -179.85 -10.75 -184.25 -17.55 -187.9 -23.3 -188.9 -24.5 -190.35 -26.15 -192.15 -31.85 -193.75 -36.95 -193.75 -38.4 -192.9 -43.75 -191.05 -40.8 -190.8 -40.25 -190.65 -38.75 L-190.25 -36.75 -188.85 -32.65 Q-187.95 -30.05 -187.0 -28.5 M-175.65 -0.85 L-177.5 1.35 Q-179.55 3.7 -180.2 5.15 L-180.5 6.65 -181.05 8.15 -181.75 9.55 -182.8 11.05 Q-184.95 13.45 -186.05 16.8 -187.05 19.8 -187.05 22.95 L-186.6 28.9 -185.85 34.95 -185.4 37.95 Q-185.05 39.55 -185.1 40.95 L-184.95 43.9 -184.8 46.85 -184.85 50.05 -184.9 50.45 -184.85 51.85 -185.8 60.95 -186.3 65.5 -186.6 70.0 Q-186.6 74.05 -185.9 76.8 L-184.7 80.2 Q-184.2 81.25 -183.25 82.1 -181.9 83.4 -180.3 83.4 -174.85 83.4 -171.35 81.65 -168.25 80.05 -167.3 78.9 -165.85 77.15 -162.65 75.5 -160.25 74.25 -158.75 73.9 -149.2 71.35 -149.2 63.25 -149.2 59.35 -150.95 53.05 L-151.35 50.45 Q-151.6 48.8 -152.15 47.85 L-153.25 45.35 -154.9 42.8 Q-154.9 42.4 -154.35 42.35 -153.7 42.3 -153.05 42.95 L-152.9 43.15 -152.75 42.35 Q-152.45 41.9 -151.3 41.55 L-149.3 41.15 Q-148.75 41.1 -148.55 41.5 L-148.4 41.95 Q-148.4 42.5 -148.9 42.8 -146.15 46.0 -145.65 46.95 L-144.55 49.0 -143.7 49.95 Q-143.2 50.5 -143.3 50.85 L-143.0 50.8 -142.9 50.4 Q-142.65 49.85 -142.0 49.9 -140.45 49.95 -140.45 52.1 L-140.5 55.3 Q-140.05 60.8 -140.05 66.55 L-140.1 66.8 -139.65 66.85 Q-139.05 67.15 -139.05 68.05 L-139.45 69.7 -139.5 69.85 Q-139.05 69.9 -138.9 70.25 L-138.8 70.75 -139.0 71.35 -139.3 72.1 Q-138.55 72.15 -138.15 72.55 L-137.6 72.55 Q-136.8 72.55 -136.6 73.0 L-136.5 73.5 Q-136.5 74.2 -138.3 75.0 -140.4 75.9 -140.75 76.35 L-142.1 78.35 -142.4 78.65 -142.95 79.7 Q-143.8 81.2 -144.15 81.2 -145.0 81.2 -145.2 80.75 L-145.3 80.1 -145.8 80.2 Q-146.6 80.2 -146.75 79.55 -153.7 83.45 -154.15 83.45 -155.0 83.45 -155.2 83.0 L-155.3 82.35 -155.3 82.2 -159.8 84.75 -162.05 86.05 -162.65 86.7 -162.85 87.2 -164.3 89.75 -165.9 92.3 -169.0 97.35 -170.05 98.8 -171.0 99.85 -171.65 100.1 -172.3 100.3 -172.8 100.85 Q-173.5 101.55 -174.65 101.85 L-174.55 102.5 -174.75 103.05 Q-175.05 103.5 -175.55 103.5 -176.2 103.5 -177.3 102.55 L-178.45 101.6 Q-178.8 101.6 -179.2 101.95 L-179.95 101.7 -180.55 101.95 Q-181.1 101.95 -181.55 101.3 L-182.0 100.55 -182.3 100.8 -182.75 101.0 Q-183.8 101.0 -184.4 99.85 L-184.9 100.15 -186.05 99.9 -186.8 98.8 Q-186.9 99.55 -187.7 99.55 -188.55 99.55 -189.3 98.1 L-190.0 96.45 -191.05 96.2 -191.85 96.15 Q-192.1 96.2 -192.4 95.85 L-192.85 95.2 -193.5 95.05 -194.5 94.7 -195.45 94.65 -195.9 93.9 -196.25 92.4 -197.0 89.4 -197.1 88.6 Q-197.25 88.05 -197.65 87.8 L-198.0 87.05 -198.05 86.3 Q-198.1 86.05 -198.5 85.85 L-199.0 85.55 -199.05 84.8 -198.9 83.3 -198.9 83.2 -199.65 83.75 -200.75 83.95 Q-201.6 83.95 -201.6 82.85 L-201.35 81.7 Q-202.25 81.45 -202.45 81.05 L-202.5 80.6 -201.6 77.8 -200.65 75.45 -198.9 71.95 Q-198.85 70.05 -198.0 66.3 L-197.15 63.35 -196.65 61.95 -196.2 61.5 -195.9 61.2 -196.05 60.55 Q-196.05 59.35 -194.4 53.15 L-193.1 47.55 -192.95 47.15 -193.05 46.1 -194.0 41.7 -194.75 37.2 -195.2 35.3 Q-195.65 34.35 -195.65 32.25 L-196.05 32.45 Q-197.0 32.45 -197.2 31.6 L-197.2 30.7 -196.85 28.1 -196.25 25.45 -195.55 22.85 Q-194.65 20.8 -194.65 20.35 L-194.85 19.65 -193.75 16.55 -192.05 13.45 -189.8 10.35 -188.75 8.9 Q-187.85 7.85 -186.75 7.85 -186.5 7.85 -185.0 5.85 L-182.9 2.9 Q-181.45 1.3 -180.95 0.35 -180.3 -0.8 -179.4 -0.85 -178.55 -0.9 -178.55 0.0 L-178.6 0.45 -177.3 -0.85 Q-175.65 -2.15 -175.65 -0.85 M-152.25 -32.6 L-152.25 -32.55 -152.2 -32.45 -152.15 -32.7 -152.25 -32.6 M-150.75 47.0 Q-150.4 47.65 -150.15 48.6 L-150.15 48.5 Q-150.15 47.65 -150.65 47.1 L-150.75 47.0 M-141.65 76.7 L-141.9 77.2 -141.5 76.9 -141.05 76.35 -141.65 76.65 -141.65 76.7 M-8.0 145.9 L-9.7 148.55 -9.65 148.6 -9.1 149.95 -8.75 148.9 Q-8.0 146.8 -5.85 142.75 L-8.0 145.9 M-10.85 150.1 Q-12.7 152.5 -14.35 153.65 -16.85 155.35 -20.85 155.35 -22.95 155.35 -24.5 153.55 L-26.65 150.15 -26.45 150.85 -25.4 154.5 Q-24.8 156.45 -23.9 158.0 L-22.4 159.9 -20.65 161.5 Q-15.95 161.5 -12.6 156.85 -11.35 155.15 -10.15 152.45 -10.35 151.35 -10.85 150.1 M-187.6 16.8 L-187.3 16.0 Q-187.75 16.85 -187.8 17.45 L-187.6 16.8 M-188.4 24.3 L-188.45 22.95 -188.4 21.85 -188.55 23.3 -188.4 24.3 M-164.0 78.15 L-165.1 78.9 -165.55 79.35 -164.3 78.35 -164.0 78.15" fill="#000000" fill-opacity="0.101960786" fill-rule="evenodd" stroke="none"/>
  </g>
  <defs>
    <linearGradient gradientTransform="matrix(0.0649, 0.1852, -0.1345, 0.0471, 136.6, 114.95)" gradientUnits="userSpaceOnUse" id="gradient0" spreadMethod="pad" x1="-819.2" x2="819.2">
      <stop offset="0.0" stop-color="#8c8c8c"/>
      <stop offset="1.0" stop-color="#2b2b2b"/>
    </linearGradient>
    <linearGradient gradientTransform="matrix(0.1242, 0.2212, -0.0534, 0.03, 181.5, 59.45)" gradientUnits="userSpaceOnUse" id="gradient1" spreadMethod="pad" x1="-819.2" x2="819.2">
      <stop offset="0.0" stop-color="#6bc330"/>
      <stop offset="1.0" stop-color="#447a1f"/>
    </linearGradient>
    <linearGradient gradientTransform="matrix(0.1242, 0.2212, -0.0534, 0.03, 181.5, 59.45)" gradientUnits="userSpaceOnUse" id="gradient2" spreadMethod="pad" x1="-819.2" x2="819.2">
      <stop offset="0.0" stop-color="#72824a"/>
      <stop offset="1.0" stop-color="#37483a"/>
    </linearGradient>
    <linearGradient gradientTransform="matrix(0.0052, 0.0, 0.0, 0.0151, 105.6, -84.25)" gradientUnits="userSpaceOnUse" id="gradient3" spreadMethod="pad" x1="-819.2" x2="819.2">
      <stop offset="0.0" stop-color="#72824a"/>
      <stop offset="1.0" stop-color="#37483a"/>
    </linearGradient>
    <linearGradient gradientTransform="matrix(0.0057, 0.0, 0.0, 0.015, 102.25, -48.05)" gradientUnits="userSpaceOnUse" id="gradient4" spreadMethod="pad" x1="-819.2" x2="819.2">
      <stop offset="0.0" stop-color="#72824a"/>
      <stop offset="1.0" stop-color="#37483a"/>
    </linearGradient>
    <linearGradient gradientTransform="matrix(0.0057, 0.0, 0.0, 0.0132, 111.8, -49.9)" gradientUnits="userSpaceOnUse" id="gradient5" spreadMethod="pad" x1="-819.2" x2="819.2">
      <stop offset="0.0" stop-color="#72824a"/>
      <stop offset="1.0" stop-color="#37483a"/>
    </linearGradient>
  </defs>
</svg>
