<?xml version="1.0" encoding="UTF-8" standalone="no"?>
<svg xmlns:xlink="http://www.w3.org/1999/xlink" height="392.85px" width="305.25px" xmlns="http://www.w3.org/2000/svg">
  <g transform="matrix(1.0, 0.0, 0.0, 1.0, 0.0, 0.0)">
    <path d="M131.95 39.7 Q134.0 38.65 134.0 37.25 L133.85 36.3 133.65 36.05 Q115.9 36.05 107.55 46.8 101.95 54.0 101.95 62.45 101.95 64.25 106.55 72.65 L107.4 72.3 107.8 71.75 Q106.8 68.4 109.75 63.1 L115.4 54.45 Q117.05 51.9 118.8 49.9 120.05 48.35 122.95 45.45 L125.45 43.05 Q126.6 42.15 128.9 40.95 L131.95 39.7 M166.8 19.5 L166.55 19.75 Q162.2 20.9 156.2 25.3 149.15 30.55 147.5 34.55 145.85 38.7 144.55 42.95 142.65 49.15 142.65 52.0 L142.75 53.4 143.5 54.3 Q145.35 51.65 148.3 46.05 151.25 40.45 153.0 37.95 155.0 35.15 161.65 28.4 L167.65 22.05 Q167.65 21.25 167.4 21.2 L167.25 21.3 167.15 20.65 167.05 20.25 168.15 19.4 166.85 19.65 166.8 19.5 M183.5 16.05 L183.45 16.55 189.75 26.15 Q196.05 36.85 196.05 43.45 L196.0 44.75 195.45 45.45 Q194.7 44.85 190.4 43.35 L185.7 41.8 Q181.35 40.05 170.05 38.7 L161.9 38.7 161.7 39.05 161.65 39.9 164.0 42.4 167.05 45.8 Q168.4 47.8 170.55 52.2 173.7 57.65 176.65 65.2 174.2 63.7 171.5 62.7 168.2 61.45 166.3 60.45 L164.25 60.45 164.25 61.95 167.1 66.15 Q168.5 68.3 169.8 69.6 L169.85 69.85 Q167.7 68.1 166.8 68.65 168.85 72.9 175.95 76.7 180.2 79.0 190.4 82.85 200.55 86.7 204.5 88.85 211.2 92.45 212.65 96.4 L204.15 94.15 200.75 93.4 197.7 92.9 195.85 92.05 194.15 91.65 193.05 91.8 192.55 92.15 Q193.25 94.7 200.15 102.0 L211.75 114.45 209.95 114.55 Q209.35 113.55 204.9 111.95 199.8 110.1 199.2 109.7 193.65 106.0 191.8 103.65 L186.7 97.65 Q183.55 94.0 182.3 91.65 180.9 88.95 178.05 85.55 175.3 82.4 172.15 79.65 170.15 77.95 162.4 74.45 152.9 70.15 147.75 70.15 L146.9 70.2 146.9 70.15 Q145.95 66.9 143.9 64.85 141.65 62.65 136.65 60.4 129.75 58.5 126.5 63.0 124.45 65.75 124.45 69.15 124.45 72.85 129.9 80.45 134.25 86.5 138.75 90.9 135.7 90.65 133.0 88.75 L129.9 85.9 126.05 82.8 121.9 79.4 Q118.6 75.95 117.55 70.45 116.7 65.95 116.2 65.95 112.0 65.95 106.3 75.9 101.3 84.65 101.3 87.3 101.3 93.65 104.35 99.65 107.95 106.9 115.45 112.3 112.8 112.45 106.75 108.75 100.05 104.6 97.65 100.15 93.55 92.5 93.55 86.65 93.55 84.4 95.1 79.85 L96.6 75.1 96.8 75.15 Q98.05 75.15 97.55 74.75 96.85 73.55 93.05 71.75 89.05 69.85 87.4 70.2 L81.9 71.75 Q77.25 73.15 76.55 74.1 77.35 69.65 79.05 65.75 81.2 60.85 86.15 54.6 91.7 47.6 93.25 44.7 96.5 38.8 96.5 31.75 96.5 29.1 95.75 25.55 L94.9 25.65 Q94.6 42.95 85.4 52.2 82.1 55.5 78.05 64.75 74.0 74.0 73.95 78.4 72.4 81.85 72.4 85.55 72.4 90.7 75.6 96.45 76.8 98.6 78.35 100.6 78.55 101.65 79.9 103.25 L82.15 106.35 Q69.3 100.9 66.6 92.75 65.8 90.45 65.2 84.85 L64.7 81.25 65.15 80.25 Q65.15 79.45 64.8 79.4 L64.3 79.45 63.4 77.0 Q62.75 77.4 62.5 77.75 L62.4 81.1 Q60.3 83.9 59.1 88.05 57.9 92.35 57.9 97.05 57.9 100.65 58.45 101.8 59.75 104.75 60.9 109.3 L60.5 109.4 Q53.65 106.05 50.9 99.9 48.9 95.55 48.9 89.3 48.9 84.7 56.65 71.5 L64.4 59.15 Q64.4 58.4 64.2 58.3 L64.0 58.15 Q60.5 57.35 53.6 64.8 L42.65 78.0 Q39.6 81.65 35.15 88.9 L33.75 91.8 32.55 94.15 Q30.85 96.2 27.15 96.85 L27.65 94.05 27.65 93.65 Q29.3 89.85 30.35 88.25 L35.05 82.9 Q37.5 80.2 37.4 77.25 36.85 65.0 43.25 53.65 49.0 43.4 50.65 41.4 56.45 34.35 66.4 31.55 L68.1 31.0 64.55 37.35 Q61.05 43.8 61.05 44.7 L61.1 45.6 61.3 45.9 62.45 45.95 Q65.4 40.55 73.55 34.05 81.65 27.65 92.4 22.05 88.95 20.7 79.45 27.25 71.5 32.7 65.2 39.2 L65.2 38.95 Q67.25 34.45 72.0 28.7 L74.3 26.15 80.05 20.9 Q84.2 16.85 89.95 14.3 96.55 11.4 103.65 11.4 L108.6 11.9 110.95 12.2 Q108.8 14.3 106.9 17.0 103.95 21.2 100.5 28.95 L101.5 29.55 Q107.6 23.3 112.5 19.65 115.35 17.5 122.2 14.65 127.9 12.2 128.25 11.3 L127.75 10.9 Q124.6 9.85 116.4 14.55 110.25 18.05 106.5 21.3 L109.0 17.8 Q110.8 15.4 112.25 14.15 L116.7 11.0 117.0 10.75 117.65 10.25 Q120.0 8.35 122.0 7.9 L128.25 5.85 Q133.45 4.15 136.0 4.15 139.3 4.15 141.5 5.4 143.3 6.4 144.95 6.6 L140.35 11.15 Q134.15 17.35 134.15 18.0 134.15 18.8 134.5 18.9 L135.9 18.9 Q140.05 14.7 149.3 10.9 159.35 6.75 167.45 6.75 L169.65 7.0 169.7 6.4 Q169.0 5.2 168.6 5.05 L165.15 5.0 Q159.65 5.0 151.7 8.0 143.8 11.4 141.4 12.15 L141.65 11.8 Q143.25 9.25 147.1 6.25 L147.3 6.1 149.55 5.15 154.8 4.4 164.25 3.75 172.2 3.4 Q180.8 3.4 181.55 3.6 182.95 3.9 191.9 8.4 193.25 9.05 196.45 11.4 L197.9 12.45 197.55 12.4 186.3 13.4 Q185.3 14.45 183.3 15.4 L183.5 16.05 M252.05 36.8 Q255.95 39.5 263.45 46.8 272.25 55.4 274.7 67.15 275.0 68.65 275.7 77.3 276.05 81.45 276.95 84.45 L276.9 84.7 Q276.9 84.95 277.25 85.4 L277.9 87.0 278.25 86.5 281.55 89.4 286.75 93.75 Q288.25 95.85 288.6 98.75 288.85 100.5 288.9 103.9 L289.55 104.0 290.95 106.35 Q292.8 109.7 294.35 113.45 299.25 125.7 299.25 138.65 L298.5 144.0 Q297.75 148.9 297.75 150.2 297.75 151.2 300.5 156.75 303.25 163.5 303.25 170.25 303.25 177.5 299.1 187.05 297.0 191.85 294.9 195.75 L294.95 196.5 Q290.6 203.0 287.65 214.2 286.65 217.95 286.55 225.85 286.5 233.6 285.25 237.9 283.25 244.85 275.95 249.15 L275.65 249.35 Q280.15 243.5 281.8 236.15 282.6 232.6 283.45 224.2 284.2 216.55 285.4 212.45 287.4 205.4 290.3 198.25 L294.8 187.5 Q299.4 176.2 299.4 165.15 298.55 161.35 297.15 157.65 294.35 150.25 291.45 150.25 290.75 150.25 290.2 151.15 289.7 152.05 289.7 153.2 L290.7 159.15 Q291.7 165.15 291.7 166.3 291.7 171.45 289.9 177.8 287.8 185.15 284.65 188.3 287.2 184.7 288.6 176.7 289.7 170.25 289.7 164.05 289.7 160.7 289.05 157.25 L287.2 148.9 Q286.55 146.05 286.7 141.1 L286.75 137.65 287.2 136.0 Q287.2 132.05 283.9 129.95 280.1 127.5 269.55 125.65 270.7 125.4 270.8 125.15 273.6 125.7 277.45 119.7 280.8 114.4 280.9 112.35 L282.15 109.05 Q283.4 105.8 283.4 99.8 283.4 94.75 277.25 88.8 274.85 86.55 273.0 85.65 272.15 85.25 271.7 85.3 270.75 77.95 267.65 73.0 L261.85 65.9 Q257.6 61.1 256.2 58.4 255.15 55.6 254.3 50.95 L252.95 44.15 252.15 44.2 251.95 47.75 Q251.95 55.05 255.15 60.15 257.45 63.75 266.4 75.0 268.35 77.7 269.25 81.6 L270.25 88.5 270.45 93.9 269.7 98.8 Q268.55 97.15 265.25 94.0 L260.9 89.65 Q256.15 83.75 254.1 82.45 L251.2 77.9 Q245.65 69.05 242.45 60.2 L241.7 60.2 241.45 61.5 Q241.3 62.25 241.3 63.0 241.3 63.95 244.95 70.75 L249.7 79.5 251.1 81.55 243.4 81.15 Q238.4 81.15 233.95 82.8 229.55 84.4 221.05 84.4 207.4 84.4 201.55 81.35 199.65 80.35 198.55 79.0 L197.4 77.5 193.15 73.85 193.3 73.5 Q192.25 71.45 189.65 67.75 L185.95 62.25 197.3 63.05 208.15 64.0 Q211.6 64.0 216.75 62.25 221.5 60.65 221.5 60.05 L221.4 59.3 221.25 59.5 Q216.35 57.9 212.3 55.2 L207.4 51.65 208.45 51.7 Q210.25 52.35 210.75 53.3 L218.4 54.0 223.65 53.75 223.4 53.4 Q223.2 53.15 223.5 52.9 L219.65 50.75 Q217.75 49.6 216.65 49.2 L214.95 47.6 214.8 47.5 214.6 47.25 Q213.55 45.95 213.5 44.65 L213.25 41.35 213.0 38.55 Q213.0 34.75 214.0 32.55 214.7 31.2 217.9 29.35 219.45 28.45 220.7 28.0 L234.05 29.8 Q243.65 30.95 252.05 36.8" fill="#3c3122" fill-rule="evenodd" stroke="none"/>
    <path d="M263.45 43.8 Q268.9 49.95 271.65 54.05 275.3 59.55 276.2 64.15 L277.25 69.2 Q277.75 72.1 277.7 74.25 277.6 76.25 278.15 80.15 L278.7 84.4 278.7 84.8 Q281.35 86.3 287.4 91.4 289.7 94.25 290.35 96.15 290.75 97.45 290.75 100.2 L290.65 103.4 290.6 103.5 Q293.7 105.45 296.05 111.3 L298.9 119.8 300.1 128.1 Q301.25 136.45 301.25 138.65 301.25 140.35 300.5 144.45 299.75 148.5 299.75 150.0 L301.6 153.4 Q303.6 157.2 304.25 160.4 L305.0 166.1 305.25 170.3 Q305.25 179.7 303.0 184.2 L300.1 189.4 298.9 191.8 299.5 191.25 299.9 191.5 300.0 192.4 296.55 197.15 296.0 198.55 295.7 198.3 295.6 198.4 Q290.85 206.25 289.25 215.8 288.7 219.2 288.5 227.65 288.3 235.0 287.25 239.15 285.75 245.0 278.55 251.0 L276.35 252.75 277.6 259.35 Q278.4 264.9 278.4 266.65 278.4 271.4 276.3 279.8 273.8 289.65 271.2 289.95 271.05 290.65 271.05 289.4 271.05 288.75 272.45 284.6 L273.55 281.25 271.8 282.15 270.45 283.65 268.55 285.4 265.65 289.15 Q262.05 292.55 256.15 292.55 L252.7 292.1 249.4 291.45 249.25 291.7 249.25 292.65 Q249.25 293.7 250.1 296.25 250.9 298.85 250.9 301.65 L249.85 307.1 248.4 312.4 Q247.5 314.3 244.4 317.25 240.85 320.55 237.9 321.65 225.3 326.15 219.25 337.95 213.2 349.75 212.3 375.8 211.35 401.85 146.4 385.05 81.4 368.2 58.55 386.2 35.7 404.15 24.95 373.5 14.15 342.8 5.85 334.85 -2.5 326.85 20.05 294.3 L16.1 289.4 Q13.65 286.4 12.9 284.55 L11.15 279.75 Q10.25 276.85 9.9 275.15 L7.85 265.6 Q6.65 259.8 6.4 256.0 L3.65 238.65 3.3 236.35 Q2.2 241.9 0.9 246.25 L0.25 245.5 Q0.0 245.1 0.0 244.3 0.0 238.2 1.7 225.45 0.9 219.7 0.9 217.9 0.65 215.9 0.75 214.3 0.95 211.35 2.65 210.7 2.6 213.65 2.85 217.1 3.8 210.65 5.1 202.9 8.9 179.85 11.4 168.25 17.45 141.4 19.55 130.3 L20.7 121.1 21.9 111.55 Q22.7 104.85 23.35 101.7 L23.95 99.3 23.65 99.25 23.6 98.75 Q23.3 97.8 23.3 97.15 L23.65 97.15 Q24.05 95.3 26.1 91.45 28.15 87.55 29.15 86.15 31.0 83.45 33.9 80.65 34.9 79.7 35.0 77.55 L34.9 75.2 Q34.9 67.05 40.0 55.75 45.05 44.5 51.65 37.8 54.1 35.25 57.1 33.25 60.7 30.85 64.05 29.9 68.55 28.65 70.7 26.5 L74.9 22.65 Q76.4 20.5 77.45 19.4 78.85 17.9 80.25 18.05 83.05 15.4 86.2 13.75 88.15 12.55 89.45 11.85 91.8 10.55 94.35 9.85 101.6 7.85 113.35 10.05 115.65 8.15 118.25 6.9 L118.5 6.7 Q118.7 6.65 118.75 7.3 L122.05 5.65 Q130.35 1.9 136.5 1.9 139.65 1.9 141.7 2.9 143.7 3.9 145.05 3.9 L148.75 3.05 149.05 2.75 149.4 2.9 151.1 2.45 Q158.35 1.05 165.05 1.15 173.9 -1.9 186.2 3.1 194.0 6.25 198.3 10.15 199.35 10.25 200.6 10.85 202.65 10.75 205.4 13.15 L205.65 13.4 206.75 13.75 Q208.5 14.5 208.4 15.75 L211.4 18.4 Q217.4 25.1 219.45 26.15 L224.4 25.95 224.85 27.0 232.8 27.3 Q240.55 27.9 251.4 34.6 259.9 39.85 263.45 43.8 M252.05 36.8 Q243.65 30.95 234.05 29.8 L220.7 28.0 Q219.45 28.45 217.9 29.35 214.7 31.2 214.0 32.55 213.0 34.75 213.0 38.55 L213.25 41.35 213.5 44.65 Q213.55 45.95 214.6 47.25 L214.8 47.5 214.95 47.6 216.65 49.2 Q217.75 49.6 219.65 50.75 L223.5 52.9 Q223.2 53.15 223.4 53.4 L223.65 53.75 218.4 54.0 210.75 53.3 Q210.25 52.35 208.45 51.7 L207.4 51.65 212.3 55.2 Q216.35 57.9 221.25 59.5 L221.4 59.3 221.5 60.05 Q221.5 60.65 216.75 62.25 211.6 64.0 208.15 64.0 L197.3 63.05 185.95 62.25 189.65 67.75 Q192.25 71.45 193.3 73.5 L193.15 73.85 197.4 77.5 198.55 79.0 Q199.65 80.35 201.55 81.35 207.4 84.4 221.05 84.4 229.55 84.4 233.95 82.8 238.4 81.15 243.4 81.15 L251.1 81.55 249.7 79.5 244.95 70.75 Q241.3 63.95 241.3 63.0 241.3 62.25 241.45 61.5 L241.7 60.2 242.45 60.2 Q245.65 69.05 251.2 77.9 L254.1 82.45 Q256.15 83.75 260.9 89.65 L265.25 94.0 Q268.55 97.15 269.7 98.8 L270.45 93.9 270.25 88.5 269.25 81.6 Q268.35 77.7 266.4 75.0 257.45 63.75 255.15 60.15 251.95 55.05 251.95 47.75 L252.15 44.2 252.95 44.15 254.3 50.95 Q255.15 55.6 256.2 58.4 257.6 61.1 261.85 65.9 L267.65 73.0 Q270.75 77.95 271.7 85.3 272.15 85.25 273.0 85.65 274.85 86.55 277.25 88.8 283.4 94.75 283.4 99.8 283.4 105.8 282.15 109.05 L280.9 112.35 Q280.8 114.4 277.45 119.7 273.6 125.7 270.8 125.15 270.7 125.4 269.55 125.65 280.1 127.5 283.9 129.95 287.2 132.05 287.2 136.0 L286.75 137.65 286.7 141.1 Q286.55 146.05 287.2 148.9 L289.05 157.25 Q289.7 160.7 289.7 164.05 289.7 170.25 288.6 176.7 287.2 184.7 284.65 188.3 287.8 185.15 289.9 177.8 291.7 171.45 291.7 166.3 291.7 165.15 290.7 159.15 L289.7 153.2 Q289.7 152.05 290.2 151.15 290.75 150.25 291.45 150.25 294.35 150.25 297.15 157.65 298.55 161.35 299.4 165.15 299.4 176.2 294.8 187.5 L290.3 198.25 Q287.4 205.4 285.4 212.45 284.2 216.55 283.45 224.2 282.6 232.6 281.8 236.15 280.15 243.5 275.65 249.35 L275.95 249.15 Q283.25 244.85 285.25 237.9 286.5 233.6 286.55 225.85 286.65 217.95 287.65 214.2 290.6 203.0 294.95 196.5 L294.9 195.75 Q297.0 191.85 299.1 187.05 303.25 177.5 303.25 170.25 303.25 163.5 300.5 156.75 297.75 151.2 297.75 150.2 297.75 148.9 298.5 144.0 L299.25 138.65 Q299.25 125.7 294.35 113.45 292.8 109.7 290.95 106.35 L289.55 104.0 288.9 103.9 Q288.85 100.5 288.6 98.75 288.25 95.85 286.75 93.75 L281.55 89.4 278.25 86.5 277.9 87.0 277.25 85.4 Q276.9 84.95 276.9 84.7 L276.95 84.45 Q276.05 81.45 275.7 77.3 275.0 68.65 274.7 67.15 272.25 55.4 263.45 46.8 255.95 39.5 252.05 36.8 M183.5 16.05 L183.3 15.4 Q185.3 14.45 186.3 13.4 L197.55 12.4 197.9 12.45 196.45 11.4 Q193.25 9.05 191.9 8.4 182.95 3.9 181.55 3.6 180.8 3.4 172.2 3.4 L164.25 3.75 154.8 4.4 149.55 5.15 147.3 6.1 147.1 6.25 Q143.25 9.25 141.65 11.8 L141.4 12.15 Q143.8 11.4 151.7 8.0 159.65 5.0 165.15 5.0 L168.6 5.05 Q169.0 5.2 169.7 6.4 L169.65 7.0 167.45 6.75 Q159.35 6.75 149.3 10.9 140.05 14.7 135.9 18.9 L134.5 18.9 Q134.15 18.8 134.15 18.0 134.15 17.35 140.35 11.15 L144.95 6.6 Q143.3 6.4 141.5 5.4 139.3 4.15 136.0 4.15 133.45 4.15 128.25 5.85 L122.0 7.9 Q120.0 8.35 117.65 10.25 L117.0 10.75 116.7 11.0 112.25 14.15 Q110.8 15.4 109.0 17.8 L106.5 21.3 Q110.25 18.05 116.4 14.55 124.6 9.85 127.75 10.9 L128.25 11.3 Q127.9 12.2 122.2 14.65 115.35 17.5 112.5 19.65 107.6 23.3 101.5 29.55 L100.5 28.95 Q103.95 21.2 106.9 17.0 108.8 14.3 110.95 12.2 L108.6 11.9 103.65 11.4 Q96.55 11.4 89.95 14.3 84.2 16.85 80.05 20.9 L74.3 26.15 72.0 28.7 Q67.25 34.45 65.2 38.95 L65.2 39.2 Q71.5 32.7 79.45 27.25 88.95 20.7 92.4 22.05 81.65 27.65 73.55 34.05 65.4 40.55 62.45 45.95 L61.3 45.9 61.1 45.6 61.05 44.7 Q61.05 43.8 64.55 37.35 L68.1 31.0 66.4 31.55 Q56.45 34.35 50.65 41.4 49.0 43.4 43.25 53.65 36.85 65.0 37.4 77.25 37.5 80.2 35.05 82.9 L30.35 88.25 Q29.3 89.85 27.65 93.65 L27.65 94.05 27.15 96.85 Q30.85 96.2 32.55 94.15 L33.75 91.8 35.15 88.9 Q39.6 81.65 42.65 78.0 L53.6 64.8 Q60.5 57.35 64.0 58.15 L64.2 58.3 Q64.4 58.4 64.4 59.15 L56.65 71.5 Q48.9 84.7 48.9 89.3 48.9 95.55 50.9 99.9 53.65 106.05 60.5 109.4 L60.9 109.3 Q59.75 104.75 58.45 101.8 57.9 100.65 57.9 97.05 57.9 92.35 59.1 88.05 60.3 83.9 62.4 81.1 L62.5 77.75 Q62.75 77.4 63.4 77.0 L64.3 79.45 64.8 79.4 Q65.15 79.45 65.15 80.25 L64.7 81.25 65.2 84.85 Q65.8 90.45 66.6 92.75 69.3 100.9 82.15 106.35 L79.9 103.25 Q78.55 101.65 78.35 100.6 76.8 98.6 75.6 96.45 72.4 90.7 72.4 85.55 72.4 81.85 73.95 78.4 74.0 74.0 78.05 64.75 82.1 55.5 85.4 52.2 94.6 42.95 94.9 25.65 L95.75 25.55 Q96.5 29.1 96.5 31.75 96.5 38.8 93.25 44.7 91.7 47.6 86.15 54.6 81.2 60.85 79.05 65.75 77.35 69.65 76.55 74.1 77.25 73.15 81.9 71.75 L87.4 70.2 Q89.05 69.85 93.05 71.75 96.85 73.55 97.55 74.75 98.05 75.15 96.8 75.15 L96.6 75.1 95.1 79.85 Q93.55 84.4 93.55 86.65 93.55 92.5 97.65 100.15 100.05 104.6 106.75 108.75 112.8 112.45 115.45 112.3 107.95 106.9 104.35 99.65 101.3 93.65 101.3 87.3 101.3 84.65 106.3 75.9 112.0 65.95 116.2 65.95 116.7 65.95 117.55 70.45 118.6 75.95 121.9 79.4 L126.05 82.8 129.9 85.9 133.0 88.75 Q135.7 90.65 138.75 90.9 134.25 86.5 129.9 80.45 124.45 72.85 124.45 69.15 124.45 65.75 126.5 63.0 129.75 58.5 136.65 60.4 141.65 62.65 143.9 64.85 145.95 66.9 146.9 70.15 L146.9 70.2 147.75 70.15 Q152.9 70.15 162.4 74.45 170.15 77.95 172.15 79.65 175.3 82.4 178.05 85.55 180.9 88.95 182.3 91.65 183.55 94.0 186.7 97.65 L191.8 103.65 Q193.65 106.0 199.2 109.7 199.8 110.1 204.9 111.95 209.35 113.55 209.95 114.55 L211.75 114.45 200.15 102.0 Q193.25 94.7 192.55 92.15 L193.05 91.8 194.15 91.65 195.85 92.05 197.7 92.9 200.75 93.4 204.15 94.15 212.65 96.4 Q211.2 92.45 204.5 88.85 200.55 86.7 190.4 82.85 180.2 79.0 175.95 76.7 168.85 72.9 166.8 68.65 167.7 68.1 169.85 69.85 L169.8 69.6 Q168.5 68.3 167.1 66.15 L164.25 61.95 164.25 60.45 166.3 60.45 Q168.2 61.45 171.5 62.7 174.2 63.7 176.65 65.2 173.7 57.65 170.55 52.2 168.4 47.8 167.05 45.8 L164.0 42.4 161.65 39.9 161.7 39.05 161.9 38.7 170.05 38.7 Q181.35 40.05 185.7 41.8 L190.4 43.35 Q194.7 44.85 195.45 45.45 L196.0 44.75 196.05 43.45 Q196.05 36.85 189.75 26.15 L183.45 16.55 183.5 16.05 M166.8 19.5 L166.85 19.65 168.15 19.4 167.05 20.25 167.15 20.65 167.25 21.3 167.4 21.2 Q167.65 21.25 167.65 22.05 L161.65 28.4 Q155.0 35.15 153.0 37.95 151.25 40.45 148.3 46.05 145.35 51.65 143.5 54.3 L142.75 53.4 142.65 52.0 Q142.65 49.15 144.55 42.95 145.85 38.7 147.5 34.55 149.15 30.55 156.2 25.3 162.2 20.9 166.55 19.75 L166.8 19.5 M131.95 39.7 L128.9 40.95 Q126.6 42.15 125.45 43.05 L122.95 45.45 Q120.05 48.35 118.8 49.9 117.05 51.9 115.4 54.45 L109.75 63.1 Q106.8 68.4 107.8 71.75 L107.4 72.3 106.55 72.65 Q101.95 64.25 101.95 62.45 101.95 54.0 107.55 46.8 115.9 36.05 133.65 36.05 L133.85 36.3 134.0 37.25 Q134.0 38.65 131.95 39.7" fill="#000000" fill-rule="evenodd" stroke="none"/>
  </g>
</svg>
