<?xml version="1.0" encoding="UTF-8" standalone="no"?>
<svg xmlns:xlink="http://www.w3.org/1999/xlink" height="416.5px" width="734.25px" xmlns="http://www.w3.org/2000/svg">
  <g transform="matrix(1.0, 0.0, 0.0, 1.0, 38.05, -61.1)">
    <path d="M679.0 405.6 L-38.05 405.6 -38.05 61.1 679.0 61.1 679.0 405.6" fill="url(#gradient0)" fill-rule="evenodd" stroke="none"/>
    <path d="M354.8 149.35 L351.8 149.3 347.6 149.75 346.85 150.0 346.25 150.2 345.6 150.6 345.0 150.85 342.8 152.3 340.05 154.75 Q338.95 156.5 338.55 157.55 L338.0 159.4 337.5 161.1 337.45 161.85 336.2 165.2 335.75 167.65 335.55 169.65 336.0 171.6 Q336.45 172.85 337.2 173.75 L337.8 173.1 Q338.5 172.45 339.45 172.25 L343.2 172.1 345.35 172.8 Q347.05 173.3 348.95 174.2 L350.7 175.25 351.0 175.2 351.4 175.35 352.55 175.95 353.2 176.25 354.25 176.55 354.55 176.5 355.9 176.4 356.1 176.35 Q356.6 176.0 357.15 175.75 L358.05 175.15 358.45 174.95 Q359.1 174.45 360.5 173.9 363.9 172.45 368.5 172.45 369.85 172.45 370.9 173.4 L371.8 174.4 Q372.45 173.5 372.9 172.05 L373.45 170.3 373.4 167.9 373.35 166.9 373.25 166.0 372.95 165.65 372.65 164.55 371.2 164.05 Q368.7 163.25 367.05 163.3 L367.0 163.15 369.05 162.95 369.8 163.1 371.05 162.95 Q372.75 162.85 372.9 162.35 L372.9 160.75 372.95 160.75 371.75 157.8 Q370.55 154.9 369.2 152.9 L368.3 152.4 367.6 151.95 366.8 151.5 365.15 150.9 362.85 150.1 Q358.9 149.1 354.8 149.35 M349.9 149.0 L353.95 148.85 Q357.2 148.55 360.3 149.35 L364.65 150.4 Q365.85 150.8 366.95 151.35 L369.0 152.4 369.05 152.4 369.85 152.9 370.1 153.55 369.9 153.45 370.55 154.45 371.3 155.8 371.95 157.15 373.15 159.95 374.0 162.55 373.9 162.8 373.9 162.85 373.95 162.9 373.85 166.2 373.8 170.95 373.8 175.7 373.9 179.55 374.0 180.15 373.85 181.2 373.35 190.4 373.35 190.0 373.2 190.45 374.4 191.35 375.9 192.65 Q376.6 193.25 378.4 193.9 L380.6 194.75 383.4 195.65 386.2 196.25 388.65 196.65 392.9 197.55 Q396.5 198.3 397.35 198.75 402.6 201.45 405.0 204.1 L407.2 206.9 Q408.75 209.2 408.75 210.0 L408.75 210.45 409.45 212.9 411.55 218.45 Q413.45 224.1 414.7 229.55 L419.55 251.85 421.8 262.8 Q422.2 264.75 422.2 268.35 422.2 272.2 422.45 273.95 423.8 281.85 424.6 285.1 425.4 288.35 426.25 290.6 L426.55 291.5 Q428.7 295.45 430.6 301.45 L433.55 310.65 434.05 309.9 Q435.2 310.15 435.5 310.85 L435.55 311.8 Q435.55 313.05 434.05 314.5 432.55 316.0 431.05 316.0 L426.2 314.65 Q421.85 313.7 414.9 314.5 L415.75 316.65 Q414.65 316.2 413.9 314.65 L413.0 314.75 411.9 314.75 Q411.65 314.65 411.65 313.85 411.65 312.95 413.1 312.5 L412.5 309.5 Q412.1 307.4 410.35 302.0 L408.95 298.25 407.9 295.5 407.75 295.6 Q407.05 295.15 406.85 294.4 L406.6 293.1 406.1 291.8 405.5 290.5 405.1 289.15 404.7 287.9 Q403.6 286.25 403.2 285.3 402.9 284.55 402.55 282.75 L401.8 280.15 400.5 277.4 399.55 274.8 398.15 269.55 396.8 264.4 394.9 258.25 393.75 254.75 393.6 254.65 393.35 254.65 Q393.55 256.4 393.4 260.05 L393.05 267.8 392.8 274.8 392.95 280.2 393.3 276.25 393.55 276.25 393.85 276.35 394.0 276.8 393.7 278.45 393.4 280.55 393.4 284.1 393.25 291.25 Q393.25 294.0 393.95 299.5 L394.9 306.6 395.1 306.5 Q396.2 311.65 392.0 312.15 390.1 312.4 389.6 313.65 389.15 314.7 386.5 314.65 L383.95 315.3 381.0 315.9 369.5 316.4 Q356.4 316.4 345.55 315.75 L331.4 314.4 Q329.4 313.65 326.8 313.0 321.85 311.8 314.15 311.75 L314.15 311.85 314.0 312.15 Q313.15 311.4 313.15 308.6 313.15 303.9 313.7 298.35 L314.75 287.75 315.15 284.75 315.45 275.15 315.4 272.6 315.15 267.8 Q314.8 263.05 314.8 260.05 314.65 256.4 314.9 254.65 L314.6 254.65 314.5 254.75 313.35 258.25 Q311.8 262.8 311.4 264.4 L310.05 269.55 308.65 274.8 307.7 277.4 306.4 280.15 305.65 282.75 305.0 285.3 303.5 287.9 303.1 289.15 302.7 290.5 302.25 291.5 302.5 291.65 297.1 307.55 295.3 313.2 Q296.85 313.55 297.5 313.9 L296.7 314.45 295.1 314.75 294.8 314.75 294.8 314.8 294.55 314.75 Q288.9 314.65 282.15 313.1 L275.2 311.35 275.1 311.65 273.85 311.9 274.05 311.15 273.3 311.0 Q273.75 310.6 274.3 310.4 L274.5 309.6 279.05 293.0 280.95 285.75 Q282.15 281.25 282.6 278.35 L284.3 271.05 285.2 266.95 Q285.55 265.4 286.15 264.75 L286.4 262.8 288.65 251.85 Q289.6 247.05 293.5 229.55 294.75 224.1 296.7 218.45 L298.75 212.9 299.45 210.45 299.45 210.0 Q299.45 209.2 301.0 206.9 L303.2 204.1 Q305.6 201.45 310.85 198.75 311.7 198.3 315.3 197.55 L319.55 196.65 322.0 196.25 324.8 195.65 327.6 194.75 329.8 193.9 Q331.6 193.25 332.3 192.65 L333.8 191.35 335.05 190.45 334.9 189.95 334.75 189.0 334.7 187.05 334.7 184.65 334.7 182.25 334.7 174.55 334.8 164.55 334.7 163.8 334.85 162.95 334.85 162.6 334.9 162.5 334.9 162.3 Q334.9 161.85 335.4 160.55 L335.4 160.1 Q335.4 159.85 335.7 159.7 L335.9 159.15 337.0 156.65 Q337.85 154.85 338.95 153.2 340.3 151.25 340.9 151.2 L340.95 151.3 340.95 151.4 Q342.9 150.35 345.05 149.8 L346.1 149.6 346.55 149.5 349.9 149.0 M351.65 170.8 L346.35 169.95 Q343.8 169.45 341.35 170.35 L338.85 170.8 339.55 169.95 Q340.7 169.2 342.0 168.9 L347.3 168.45 350.7 168.9 354.85 168.8 359.1 168.1 Q362.65 167.45 366.05 168.7 368.7 169.6 370.45 171.85 L368.5 170.65 Q366.3 169.35 363.85 169.45 361.7 169.75 359.65 170.55 L355.9 171.15 351.65 170.8 M348.45 164.55 L355.75 164.8 Q358.75 164.8 360.7 164.05 L362.55 163.6 360.75 164.6 358.7 165.1 352.6 164.85 348.45 164.55 M338.75 182.8 L340.05 184.25 341.0 185.75 Q341.55 186.75 342.25 187.35 L344.1 184.1 345.2 182.8 345.0 182.65 Q344.75 182.4 343.85 182.15 L341.8 181.95 Q340.2 181.95 338.8 182.75 L338.75 182.8 M354.85 180.05 L354.7 179.95 354.3 179.75 354.2 179.8 354.1 179.85 354.1 179.8 353.05 180.15 352.55 180.4 352.15 180.8 351.4 182.25 350.5 184.65 350.55 184.65 Q350.8 185.05 350.4 185.65 349.55 186.95 350.15 187.55 L350.1 187.65 350.1 187.85 350.3 187.85 350.55 187.85 Q352.3 188.6 354.15 189.0 L354.95 188.9 Q356.85 187.8 358.7 187.9 L358.7 186.3 Q356.7 181.05 354.85 180.05 M362.55 182.7 L361.8 182.9 361.7 183.0 362.25 183.85 362.8 185.55 363.45 187.3 363.95 189.0 Q367.4 187.6 368.0 184.9 L368.55 183.1 368.3 182.95 366.7 182.55 364.6 182.5 363.0 182.6 362.55 182.7 M348.25 195.3 L348.45 196.05 349.4 196.65 349.9 196.85 350.6 197.15 352.4 197.3 353.2 197.45 355.7 197.55 356.05 197.5 357.3 197.45 357.55 197.45 357.6 197.4 358.15 197.3 358.8 197.05 359.5 196.65 359.9 196.2 360.25 195.4 348.3 195.0 348.25 195.3 M348.75 194.5 L349.05 194.5 350.35 194.25 351.5 194.1 353.45 194.1 354.3 194.2 354.65 194.3 355.05 194.3 355.05 194.15 356.1 193.85 356.45 193.7 350.8 193.5 349.15 194.3 348.75 194.5 M357.75 202.15 L349.55 201.5 349.0 202.0 Q348.15 202.85 348.0 204.45 L348.45 204.8 348.8 205.0 349.55 205.25 352.95 205.9 357.25 205.45 356.5 205.45 358.4 205.0 358.35 204.7 358.5 204.3 358.7 203.85 Q358.7 203.05 357.95 202.35 L357.75 202.15 M359.75 204.45 L359.95 204.35 359.95 204.3 359.75 204.45 M346.65 202.75 L346.65 202.85 346.7 202.75 346.65 202.75 M271.1 323.75 L271.35 323.8 271.15 324.3 271.1 323.75" fill="#000000" fill-rule="evenodd" stroke="none"/>
    <path d="M354.8 149.35 Q358.9 149.1 362.85 150.1 L365.15 150.9 366.8 151.5 367.6 151.95 368.3 152.4 369.2 152.9 Q370.55 154.9 371.75 157.8 L372.95 160.75 372.9 160.75 372.9 162.35 Q372.75 162.85 371.05 162.95 L369.8 163.1 369.05 162.95 367.0 163.15 367.05 163.3 Q368.7 163.25 371.2 164.05 L372.65 164.55 372.95 165.65 373.25 166.0 373.35 166.9 373.4 167.9 373.45 170.3 372.9 172.05 Q372.45 173.5 371.8 174.4 L370.9 173.4 Q369.85 172.45 368.5 172.45 363.9 172.45 360.5 173.9 359.1 174.45 358.45 174.95 L358.05 175.15 357.15 175.75 Q356.6 176.0 356.1 176.35 L355.9 176.4 354.55 176.5 354.25 176.55 353.2 176.25 352.55 175.95 351.4 175.35 351.0 175.2 350.7 175.25 348.95 174.2 Q347.05 173.3 345.35 172.8 L343.2 172.1 339.45 172.25 Q338.5 172.45 337.8 173.1 L337.2 173.75 Q336.45 172.85 336.0 171.6 L335.55 169.65 335.75 167.65 336.2 165.2 337.45 161.85 337.5 161.1 338.0 159.4 338.55 157.55 Q338.95 156.5 340.05 154.75 L342.8 152.3 345.0 150.85 345.6 150.6 346.25 150.2 346.85 150.0 347.6 149.75 351.8 149.3 354.8 149.35 M351.65 170.8 L355.9 171.15 359.65 170.55 Q361.7 169.75 363.85 169.45 366.3 169.35 368.5 170.65 L370.45 171.85 Q368.7 169.6 366.05 168.7 362.65 167.45 359.1 168.1 L354.85 168.8 350.7 168.9 347.3 168.45 342.0 168.9 Q340.7 169.2 339.55 169.95 L338.85 170.8 341.35 170.35 Q343.8 169.45 346.35 169.95 L351.65 170.8 M348.45 164.55 L352.6 164.85 358.7 165.1 360.75 164.6 362.55 163.6 360.7 164.05 Q358.75 164.8 355.75 164.8 L348.45 164.55" fill="#786829" fill-rule="evenodd" stroke="none"/>
    <path d="M357.75 202.15 L357.95 202.35 Q358.7 203.05 358.7 203.85 L358.5 204.3 358.35 204.7 358.4 205.0 356.5 205.45 357.25 205.45 352.95 205.9 349.55 205.25 348.8 205.0 348.45 204.8 348.0 204.45 Q348.15 202.85 349.0 202.0 L349.55 201.5 357.75 202.15" fill="#4b411b" fill-rule="evenodd" stroke="none"/>
    <path d="M338.75 182.8 L338.8 182.75 Q340.2 181.95 341.8 181.95 L343.85 182.15 Q344.75 182.4 345.0 182.65 L345.2 182.8 344.1 184.1 342.25 187.35 Q341.55 186.75 341.0 185.75 L340.05 184.25 338.75 182.8 M348.25 195.3 L348.3 195.0 360.25 195.4 359.9 196.2 359.5 196.65 358.8 197.05 358.15 197.3 357.6 197.4 357.55 197.45 357.3 197.45 356.05 197.5 355.7 197.55 353.2 197.45 352.4 197.3 350.6 197.15 349.9 196.85 349.4 196.65 348.45 196.05 348.25 195.3 M362.55 182.7 L363.0 182.6 364.6 182.5 366.7 182.55 368.3 182.95 368.55 183.1 368.0 184.9 Q367.4 187.6 363.95 189.0 L363.45 187.3 362.8 185.55 362.25 183.85 361.7 183.0 361.8 182.9 362.55 182.7" fill="#5f5221" fill-rule="evenodd" stroke="none"/>
    <path d="M354.85 180.05 Q356.7 181.05 358.7 186.3 L358.7 187.9 Q356.85 187.8 354.95 188.9 L354.15 189.0 Q352.3 188.6 350.55 187.85 L350.3 187.85 350.1 187.85 350.1 187.65 350.15 187.55 Q349.55 186.95 350.4 185.65 350.8 185.05 350.55 184.65 L350.5 184.65 351.4 182.25 352.15 180.8 352.55 180.4 353.05 180.15 354.1 179.8 354.1 179.85 354.2 179.8 354.3 179.75 354.7 179.95 354.85 180.05 M348.75 194.5 L349.15 194.3 350.8 193.5 356.45 193.7 356.1 193.85 355.05 194.15 355.05 194.3 354.65 194.3 354.3 194.2 353.45 194.1 351.5 194.1 350.35 194.25 349.05 194.5 348.75 194.5" fill="#726227" fill-rule="evenodd" stroke="none"/>
    <path d="M661.55 385.05 Q666.6 391.3 666.6 397.35 666.6 400.6 665.05 403.0 663.0 406.25 658.85 406.25 652.85 406.25 646.05 395.3 L638.35 380.25 636.75 381.25 Q635.3 382.25 633.85 382.25 624.15 382.25 615.75 373.05 613.1 370.2 606.75 360.25 603.7 355.6 598.85 349.15 L590.0 337.75 Q590.75 341.35 590.1 349.1 589.4 357.15 587.55 365.0 582.85 385.25 575.75 385.25 564.35 385.25 564.5 372.9 L565.4 363.05 Q565.95 357.6 565.0 355.75 L564.75 355.25 Q563.7 357.5 562.3 363.55 560.9 369.7 560.0 371.75 L558.9 375.75 Q558.0 378.7 556.25 380.0 L553.65 382.05 548.0 383.5 546.5 385.0 Q544.45 386.5 541.75 386.5 536.4 386.5 535.05 382.75 534.5 381.25 534.5 375.6 534.5 365.65 535.15 359.55 L537.5 341.5 Q538.3 327.3 539.65 320.85 541.95 309.6 549.75 309.6 553.8 309.6 555.5 312.9 556.5 314.8 556.5 316.85 L556.75 317.1 559.65 313.9 Q561.95 311.85 564.75 311.85 566.4 311.85 568.15 312.75 L570.75 314.35 Q570.75 309.8 571.65 307.25 573.35 302.6 579.75 302.6 585.4 302.6 596.6 318.05 L605.1 330.35 Q609.8 337.25 611.75 339.5 606.7 331.3 603.05 324.65 596.0 311.9 596.0 307.35 596.0 303.05 599.05 300.9 603.15 298.05 610.75 302.35 616.4 310.85 620.1 315.85 623.85 320.9 628.1 329.0 L635.6 343.0 Q644.7 358.8 651.1 370.75 653.3 374.7 661.55 385.05 M467.25 236.8 Q471.2 230.05 484.6 233.25 494.05 239.9 493.45 244.35 493.3 245.4 492.0 248.0 490.85 250.35 490.85 252.1 490.85 253.75 501.0 267.8 512.8 284.15 517.5 294.85 L521.9 305.4 Q524.15 311.4 525.5 316.6 L526.3 321.75 Q526.8 325.25 527.5 327.25 527.95 328.5 531.15 330.4 L534.75 332.5 536.0 334.5 Q536.5 335.65 536.5 337.35 536.5 340.75 534.15 343.15 529.9 347.55 519.75 344.0 L518.9 347.15 Q518.4 349.1 518.25 350.5 L517.25 350.75 Q517.25 347.0 518.0 344.75 490.6 333.8 487.7 332.75 461.9 323.25 451.85 323.25 449.0 323.25 447.3 324.55 446.55 325.1 444.8 327.4 441.65 331.5 434.75 331.5 431.65 331.5 426.85 329.15 421.5 326.5 418.0 326.0 L416.25 325.25 Q418.85 329.65 422.9 332.5 425.75 334.55 425.75 336.6 425.75 337.8 424.55 340.0 423.05 342.75 421.25 342.75 415.7 342.75 406.9 336.25 398.8 329.5 397.75 329.0 403.5 337.8 405.5 342.5 L404.5 344.5 Q399.8 341.7 396.05 335.95 393.85 332.6 391.0 326.25 L388.1 320.95 Q386.05 323.0 383.5 323.0 377.45 323.0 374.95 315.2 L373.1 309.8 Q371.85 307.35 369.75 307.35 365.75 307.35 357.1 311.25 348.5 315.1 340.35 315.1 330.6 315.1 323.2 311.85 L318.45 309.6 Q316.05 308.6 314.1 308.6 312.8 308.6 310.75 309.75 308.55 311.0 307.35 311.1 L304.4 310.8 301.1 310.35 Q298.15 310.35 296.15 313.15 286.6 339.25 283.35 339.25 L277.35 338.6 Q271.35 341.0 263.25 341.0 257.85 341.0 252.55 337.15 L248.0 333.25 239.6 335.05 Q230.9 336.9 228.25 337.0 219.85 337.3 218.85 340.6 218.3 342.3 217.6 342.8 216.25 343.75 212.25 343.75 204.0 343.75 204.0 335.75 204.0 335.25 204.15 334.8 L197.75 335.75 199.0 336.75 Q199.5 337.45 199.5 339.1 199.5 342.35 197.5 344.75 194.55 348.25 188.25 348.25 184.25 348.25 181.75 344.0 180.0 341.1 180.0 339.5 180.0 334.3 187.5 323.85 195.4 312.8 202.75 309.35 L213.9 302.65 Q222.4 297.5 229.5 295.6 234.5 294.25 244.25 293.25 251.5 291.95 251.5 287.6 L250.0 278.15 Q248.5 268.35 248.5 265.5 248.5 258.15 250.3 255.75 252.35 253.05 264.25 245.25 263.3 244.1 262.9 243.0 262.5 241.85 262.5 240.0 262.5 236.25 264.55 231.75 267.8 224.5 274.35 224.5 276.85 224.5 283.1 226.75 284.75 221.35 287.55 219.25 290.1 217.35 292.85 218.55 295.5 219.7 297.25 223.15 299.1 226.8 299.1 231.5 308.8 230.65 315.4 232.9 319.25 230.25 325.35 233.75 329.3 236.95 330.2 241.55 L331.6 249.5 Q332.55 252.25 333.1 257.25 334.3 261.65 339.5 265.35 L350.25 274.0 Q358.7 280.6 361.25 280.6 361.65 280.6 363.25 278.8 L364.75 276.75 363.75 267.7 362.75 258.6 362.5 255.1 Q362.35 252.15 362.8 250.0 364.1 243.5 371.0 243.5 377.6 243.5 379.85 249.25 380.55 251.05 380.8 253.5 L381.0 256.1 Q391.45 250.4 394.35 266.45 394.95 269.8 395.15 277.45 L396.85 278.2 409.4 284.0 Q428.8 292.35 443.1 292.35 447.5 292.35 452.45 287.15 456.6 282.8 458.1 278.6 460.25 272.9 464.2 268.4 L467.6 264.35 466.6 255.7 465.6 247.0 Q465.6 239.5 467.25 236.8 M477.35 285.1 Q471.85 292.55 471.85 293.6 471.85 295.5 474.8 297.4 477.6 299.15 480.35 299.35 478.85 296.2 477.9 292.25 476.75 287.6 477.35 285.1 M330.1 291.45 Q338.6 294.45 340.25 299.35 L347.5 298.05 Q350.7 297.5 354.25 295.6 339.85 287.25 330.55 278.7 321.0 269.9 318.6 262.6 317.8 263.55 316.5 266.35 315.1 269.3 315.1 270.35 315.1 272.85 317.65 278.7 L320.85 286.1 Q321.4 287.95 324.2 289.3 L330.1 291.45 M274.35 274.1 L268.85 273.15 265.0 272.35 Q265.75 273.7 265.2 276.05 264.5 279.0 264.6 279.75 264.95 283.8 277.1 284.85 278.6 279.25 279.35 273.6 L274.35 274.1 M235.65 321.65 L244.05 320.35 246.7 319.55 Q247.1 316.8 248.0 312.6 245.15 314.1 240.25 318.05 L235.65 321.65" fill="#000000" fill-opacity="0.101960786" fill-rule="evenodd" stroke="none"/>
    <path d="M683.85 394.1 L683.9 385.3 Q684.75 378.5 688.85 378.5 694.8 378.5 695.9 390.55 696.5 396.6 695.85 402.85 L695.8 417.35 Q695.45 424.0 693.65 429.05 689.8 440.0 671.85 458.85 671.4 459.4 668.7 460.65 665.0 462.35 664.6 462.6 L663.0 463.65 Q660.95 464.6 656.75 465.1 643.8 466.6 613.5 463.35 581.95 460.0 574.15 459.95 559.85 459.8 536.0 464.35 L487.1 468.85 452.0 473.35 437.5 475.6 427.5 476.85 Q425.5 477.1 277.75 477.6 L193.75 477.2 Q110.6 476.75 105.25 476.35 L102.0 475.9 98.75 475.35 90.9 474.1 80.75 473.1 57.9 471.0 Q54.55 469.7 49.75 468.6 30.15 464.1 8.05 462.35 4.1 462.05 3.45 460.8 3.0 460.0 3.0 454.6 3.0 452.4 3.65 443.0 4.3 432.7 5.0 426.0 L5.0 414.75 4.25 415.65 Q3.5 416.5 2.0 416.5 -1.0 416.5 -2.25 411.15 -3.15 404.95 -4.0 403.25 L-4.0 386.75 -3.0 386.15 Q-2.0 385.5 -0.5 385.5 L2.25 386.0 Q3.0 388.25 2.0 391.25 L2.0 397.25 Q4.45 391.9 5.35 389.05 6.9 383.75 6.0 380.0 6.55 379.4 6.9 377.85 L7.5 375.3 Q8.5 372.5 12.5 374.0 14.0 377.0 14.0 383.75 14.0 387.1 13.25 393.7 L262.35 307.45 433.6 307.45 683.85 394.1" fill="#000000" fill-rule="evenodd" stroke="none"/>
    <path d="M13.25 393.7 L262.35 307.45 433.6 307.45 683.85 394.1" fill="none" stroke="#000000" stroke-linecap="round" stroke-linejoin="round" stroke-width="1.0"/>
    <path d="M345.9 147.65 L345.4 148.4 345.65 148.35 345.95 148.55 347.65 147.55 348.25 147.6 348.3 147.5 348.3 147.9 348.25 148.2 348.3 148.15 Q349.75 147.4 350.4 147.35 L349.85 147.95 Q351.35 147.1 352.15 147.1 L353.0 147.25 Q353.65 147.25 354.75 146.75 L355.3 147.0 Q354.7 147.15 353.65 147.7 L354.3 147.65 356.1 147.4 358.15 147.05 Q358.45 147.1 357.85 147.65 L359.25 147.55 361.95 147.9 Q363.5 148.25 363.75 148.5 L365.8 148.65 365.9 148.7 366.0 148.85 365.9 149.15 366.6 149.25 366.65 149.25 366.9 149.55 367.15 150.6 Q367.25 151.15 368.25 151.15 L368.85 151.0 369.1 150.65 Q370.0 151.6 370.65 153.15 L371.75 155.5 373.0 158.0 373.7 159.45 374.35 159.95 374.25 160.05 374.0 160.7 Q374.0 161.55 374.5 162.7 L373.85 165.8 373.6 168.1 373.25 166.15 373.5 165.75 373.75 165.3 373.4 161.0 Q373.4 160.05 372.65 158.9 L373.4 162.4 373.4 163.2 372.75 163.35 Q372.75 164.15 373.1 165.0 372.1 164.15 371.8 162.75 L371.35 160.1 371.25 160.0 371.25 162.05 371.0 162.25 Q370.0 160.7 370.0 157.45 L370.05 157.05 369.5 156.35 369.5 156.75 369.25 156.9 Q368.75 156.75 368.7 156.3 L368.3 155.9 Q367.8 155.9 367.25 154.65 L366.5 153.1 366.4 153.85 365.0 152.75 Q365.3 152.1 364.75 152.2 L364.5 152.25 363.05 152.4 Q362.45 152.4 362.05 151.9 361.6 151.4 360.0 151.4 359.65 151.4 359.6 151.65 L359.25 151.9 Q358.4 151.9 358.05 154.55 L357.75 154.55 357.75 153.4 357.6 153.75 357.35 154.3 357.25 154.45 357.2 154.55 355.25 158.35 354.8 158.3 354.75 157.15 354.65 157.5 Q354.6 157.75 354.25 157.75 L353.15 157.35 352.0 156.6 351.75 158.0 350.9 158.1 Q350.4 155.95 349.55 154.75 L349.5 155.8 348.5 154.1 Q347.9 153.2 347.15 152.6 L346.55 153.15 345.85 153.4 345.45 152.95 345.35 152.6 344.8 153.25 Q344.3 153.7 343.65 153.25 343.3 153.65 343.1 154.15 342.4 154.1 342.4 153.75 L341.85 154.5 341.35 155.4 340.6 154.95 339.45 157.5 338.3 159.75 337.4 162.2 335.95 164.15 335.9 164.4 335.65 160.15 335.7 159.75 335.75 159.55 335.75 159.4 336.15 158.35 Q336.65 157.65 336.65 156.8 L336.55 155.6 336.75 155.4 337.35 154.4 337.15 153.9 338.75 152.8 337.9 152.65 337.85 152.4 Q337.85 152.0 338.75 151.2 L340.25 150.25 340.95 150.1 342.2 149.2 345.15 147.4 345.9 147.65 M351.3 148.3 L351.3 148.25 351.2 148.3 351.3 148.3 M362.75 151.75 L363.6 151.6 362.75 151.0 362.6 151.0 362.75 151.75 M358.75 151.95 Q359.35 151.4 360.1 151.0 L359.2 151.1 358.85 151.75 358.75 151.95 M355.25 157.6 Q355.7 156.15 356.3 154.95 L355.75 154.6 355.35 155.65 Q355.0 156.3 354.1 156.5 L354.25 157.1 354.4 156.7 355.0 156.25 355.1 157.55 355.25 157.6 M350.95 154.6 Q351.3 155.0 351.35 155.75 L351.4 157.25 Q351.5 155.8 351.8 155.25 L352.25 155.65 352.25 155.5 351.15 154.5 350.95 154.6 M352.85 152.25 L352.85 153.15 353.0 153.15 353.05 152.25 352.85 152.25 M344.3 150.25 L343.75 150.85 344.85 150.25 344.3 150.25 M346.25 148.8 L346.6 148.8 347.5 148.5 347.9 147.9 Q347.15 148.1 346.15 148.8 L346.25 148.8 M349.15 154.25 L349.25 154.1 348.85 153.45 349.05 154.6 349.15 154.25 M353.5 155.6 L353.1 156.5 353.55 156.0 353.5 155.6 M341.15 154.4 L341.75 153.65 340.95 154.0 341.15 154.4 M339.25 154.25 L339.0 154.8 338.75 155.15 Q338.55 155.75 338.9 155.9 L337.65 158.4 Q336.8 160.05 336.45 161.3 L337.2 159.6 Q339.15 155.4 340.45 154.05 L339.55 153.9 339.4 153.55 339.25 154.25 M366.35 151.0 L366.75 151.65 366.5 151.2 366.4 151.0 366.35 151.0 M366.5 152.45 Q365.95 151.65 365.15 151.65 L364.95 151.75 365.25 151.9 365.75 152.85 366.1 152.6 366.25 152.25 366.5 152.45 M368.25 154.3 L368.85 154.95 368.25 154.05 367.85 153.9 368.25 154.3 M371.0 156.75 L371.15 157.0 371.7 158.1 371.95 157.8 371.7 157.2 371.25 156.65 371.0 156.5 371.0 156.75" fill="#000000" fill-rule="evenodd" stroke="none"/>
    <path d="M650.05 295.1 Q650.35 293.25 651.55 291.65 652.8 290.05 655.35 288.25 658.45 286.05 659.35 287.15 653.4 289.65 651.75 293.4 651.2 294.7 650.8 299.75 L650.15 306.05 Q649.75 309.6 649.75 312.0 649.75 320.0 652.5 325.5 656.2 332.8 657.5 339.75 658.0 342.55 658.1 346.55 L658.05 353.4 658.3 360.35 659.1 364.0 659.8 367.15 Q659.8 368.55 659.25 369.45 L657.75 371.55 658.85 372.75 Q661.85 375.6 662.15 379.1 L662.35 385.5 Q665.5 403.6 668.1 411.35 673.0 425.75 683.25 437.35 L683.0 437.85 Q676.8 432.15 671.9 424.2 667.25 416.7 665.1 409.5 L663.65 410.55 Q662.45 411.25 660.85 411.25 659.65 411.25 657.65 409.95 655.15 408.3 654.35 408.0 L653.15 411.45 Q651.95 414.0 647.85 414.0 643.1 414.0 641.7 410.85 L640.85 406.5 631.6 406.5 629.3 408.95 Q628.0 410.25 624.85 410.25 618.45 410.25 615.15 385.95 L614.4 379.6 607.45 378.0 600.35 375.75 Q597.95 374.95 594.55 373.35 590.8 371.5 588.85 370.8 585.2 369.5 578.9 366.75 576.8 365.8 574.9 365.25 L570.55 364.0 Q569.25 363.6 565.95 361.7 563.75 360.45 560.0 360.35 L559.25 360.3 559.15 359.65 559.2 359.3 558.75 359.3 556.85 359.45 Q556.4 359.5 556.15 359.15 555.75 358.7 555.75 357.3 L554.75 353.55 Q554.25 352.0 553.9 349.95 L553.25 346.25 550.75 331.4 550.65 331.4 Q549.8 340.05 547.35 346.6 L546.95 347.85 545.05 354.3 543.4 358.45 542.95 359.6 543.35 359.45 544.0 359.1 544.2 359.1 544.35 359.5 543.6 360.25 542.7 360.8 542.6 361.7 Q542.6 362.2 541.9 362.6 540.6 363.35 540.25 363.6 L539.6 362.9 Q539.6 362.5 540.35 361.9 L541.25 360.65 541.05 360.6 539.55 360.15 536.75 359.35 531.75 358.6 527.2 357.75 Q523.75 357.1 522.15 356.4 519.45 355.35 517.55 354.2 515.55 352.9 514.25 352.15 L511.55 350.45 Q510.8 349.75 510.8 348.55 510.8 347.75 512.3 340.25 L514.25 332.15 Q515.9 325.45 517.1 316.0 518.3 305.0 519.15 299.65 L520.1 291.4 520.6 288.65 520.55 288.6 522.45 278.4 524.15 268.15 526.4 258.05 528.85 247.85 Q529.75 244.05 530.35 237.7 L531.5 227.6 Q532.4 221.95 533.85 217.5 535.1 213.8 536.5 211.35 538.1 208.6 539.65 208.0 L539.5 207.55 Q539.05 206.0 538.0 205.0 536.75 203.85 536.2 202.5 535.85 201.55 535.65 200.0 535.35 196.75 535.65 195.05 L534.2 194.4 534.0 194.3 531.5 193.05 Q530.75 192.45 530.75 190.9 530.75 189.5 533.1 186.15 535.4 182.8 535.4 181.3 L534.95 177.15 534.9 177.0 534.9 176.9 534.9 176.75 Q534.9 174.4 535.45 172.9 L537.15 169.25 Q536.95 167.4 537.35 165.4 537.75 163.3 538.65 162.3 L539.05 161.55 539.0 161.35 Q539.0 161.0 539.85 159.9 L540.7 158.9 Q539.55 159.35 538.3 160.15 L535.35 162.15 534.75 162.1 Q536.25 155.75 543.25 149.9 544.3 148.05 546.55 145.75 549.5 142.75 552.45 141.6 L551.85 141.4 552.25 141.4 Q552.9 141.4 552.5 141.05 553.05 141.5 553.5 141.4 L555.5 140.9 558.0 140.1 559.15 140.0 562.15 140.05 561.5 139.8 560.95 139.6 560.25 139.35 557.25 138.8 557.05 138.75 557.0 138.35 Q557.0 138.0 557.6 137.7 L557.5 137.65 Q558.7 136.6 563.75 135.25 569.05 133.8 572.45 133.8 575.65 133.8 579.5 135.9 L585.85 139.25 590.7 140.75 595.05 141.9 Q596.85 142.3 598.4 143.15 L600.65 144.5 Q601.3 144.95 602.55 146.15 L604.15 148.0 Q605.95 150.2 606.65 151.9 607.85 154.75 609.15 159.8 L609.15 161.1 609.2 161.25 608.85 161.4 Q608.2 161.4 607.95 161.1 L607.4 160.65 606.6 160.4 606.9 161.75 608.05 166.85 Q608.85 170.7 608.85 173.5 608.85 176.7 606.05 181.8 603.65 186.1 604.45 190.95 L610.3 193.05 Q613.45 194.15 616.45 195.85 L621.05 198.65 Q621.85 199.1 622.85 200.5 L624.5 202.6 Q626.0 204.05 629.1 206.15 L634.9 210.05 Q638.2 212.45 639.25 214.15 L639.25 214.25 641.4 216.35 Q642.6 217.65 643.5 220.65 L643.6 220.95 644.4 219.85 644.75 219.9 644.85 220.25 643.95 223.1 643.85 223.35 643.9 223.95 644.05 224.05 643.95 224.25 643.95 224.95 Q644.1 227.9 644.75 229.2 L644.65 229.5 644.75 229.65 644.35 229.75 Q643.45 229.75 643.05 228.9 643.2 231.7 644.25 235.85 L646.95 246.2 Q650.85 262.05 650.85 278.3 650.85 285.7 649.65 295.05 L650.05 295.1 M545.4 148.15 Q546.8 147.1 548.1 146.4 550.8 144.6 554.4 143.1 557.3 141.9 560.35 141.0 L559.15 141.0 556.1 141.2 556.1 141.25 Q556.1 141.75 555.45 141.95 L553.25 142.5 Q551.9 142.85 550.6 143.75 L548.35 145.3 Q547.05 146.2 546.4 146.85 L545.4 148.15 M565.5 136.1 Q574.6 135.1 579.05 137.55 580.7 138.65 582.3 140.65 584.55 142.3 591.4 143.25 593.6 143.55 596.7 145.5 599.55 147.3 600.25 148.5 601.1 149.9 604.0 152.3 606.4 154.25 606.4 155.15 606.4 155.45 605.75 155.55 L602.4 156.35 603.6 160.4 604.4 163.25 604.65 164.4 605.0 168.4 Q605.1 171.05 605.35 172.3 L605.1 172.75 Q604.2 172.2 603.5 170.75 L602.75 169.0 Q603.35 171.55 603.35 173.8 L603.15 177.3 603.15 177.6 602.8 181.3 602.4 185.35 Q602.4 186.35 603.0 188.4 L603.1 188.8 603.1 188.35 Q603.1 185.1 605.5 180.65 607.4 177.05 607.8 174.5 L607.85 173.3 Q607.85 170.1 606.9 165.7 L606.05 162.3 605.9 161.55 606.0 160.2 605.85 160.1 605.85 159.55 Q606.35 159.25 607.75 159.55 L607.75 159.3 606.65 155.7 606.45 155.15 606.45 155.1 605.35 151.9 Q604.85 150.4 602.75 148.15 600.85 146.15 599.25 145.1 L597.05 143.8 Q595.7 143.2 592.0 142.3 L587.3 140.95 584.35 140.0 580.15 137.35 579.35 136.95 Q575.15 134.8 571.8 134.8 L567.3 135.5 564.4 136.25 565.5 136.1 M539.45 162.75 L539.8 162.0 539.75 162.0 539.45 162.65 539.4 162.7 539.05 163.6 538.8 164.65 Q538.45 165.8 538.4 166.5 L538.35 168.2 538.15 169.85 Q537.8 171.4 536.7 173.5 536.35 174.25 536.15 174.95 L536.25 174.8 536.2 175.0 536.2 175.1 536.1 175.3 536.25 175.55 537.15 175.7 537.1 175.75 537.15 175.75 537.35 175.75 Q539.0 175.8 540.65 176.5 L542.5 177.5 Q542.2 176.75 540.5 175.7 L538.25 174.3 538.2 174.4 538.05 174.3 537.95 174.25 537.5 173.85 537.45 173.85 537.2 173.65 Q539.35 171.3 539.75 169.75 540.1 167.25 540.4 165.9 540.55 165.1 540.85 164.5 L540.15 164.75 539.25 164.4 539.2 164.3 539.15 163.8 Q539.15 163.4 539.45 162.75 M536.1 183.2 L535.8 183.7 Q535.2 184.4 534.95 185.1 L533.55 187.65 Q531.75 190.35 531.75 190.9 531.75 191.85 533.4 192.75 L533.35 192.5 533.5 192.65 533.8 192.9 533.75 192.0 Q533.75 189.55 534.85 188.0 L535.9 186.0 536.1 185.45 536.25 183.95 536.1 183.2 M546.2 190.65 L549.25 189.25 549.5 189.15 547.3 188.5 542.1 188.25 542.9 190.15 Q543.6 191.5 543.85 191.5 L546.2 190.65 M613.8 195.8 L611.6 194.8 610.75 194.45 611.2 194.8 613.35 196.75 620.55 205.65 621.05 206.25 Q623.9 209.6 630.95 214.7 L642.5 222.95 642.35 221.4 Q642.1 219.4 639.8 216.45 L637.35 213.5 636.5 212.85 634.3 210.85 Q631.1 208.4 628.75 207.25 626.05 205.95 624.1 203.65 L621.15 200.15 Q619.3 198.45 616.95 197.25 L613.8 195.8 M598.25 202.75 Q598.25 207.9 603.7 207.75 L606.65 207.65 604.0 206.15 600.6 203.5 Q599.3 201.95 598.75 200.15 L598.25 202.75 M541.65 359.6 L541.75 359.35 542.35 358.15 541.6 359.6 541.65 359.6" fill="#000000" fill-rule="evenodd" stroke="none"/>
    <path d="M565.5 136.1 L564.4 136.25 567.3 135.5 571.8 134.8 Q575.15 134.8 579.35 136.95 L580.15 137.35 584.35 140.0 587.3 140.95 592.0 142.3 Q595.7 143.2 597.05 143.8 L599.25 145.1 Q600.85 146.15 602.75 148.15 604.85 150.4 605.35 151.9 L606.45 155.1 606.45 155.15 606.65 155.7 607.75 159.3 607.75 159.55 Q606.35 159.25 605.85 159.55 L605.85 160.1 606.0 160.2 605.9 161.55 606.05 162.3 606.9 165.7 Q607.85 170.1 607.85 173.3 L607.8 174.5 Q607.4 177.05 605.5 180.65 603.1 185.1 603.1 188.35 L603.1 188.8 603.0 188.4 Q602.4 186.35 602.4 185.35 L602.8 181.3 603.15 177.6 603.15 177.3 603.35 173.8 Q603.35 171.55 602.75 169.0 L603.5 170.75 Q604.2 172.2 605.1 172.75 L605.35 172.3 Q605.1 171.05 605.0 168.4 L604.65 164.4 604.4 163.25 603.6 160.4 602.4 156.35 605.75 155.55 Q606.4 155.45 606.4 155.15 606.4 154.25 604.0 152.3 601.1 149.9 600.25 148.5 599.55 147.3 596.7 145.5 593.6 143.55 591.4 143.25 584.55 142.3 582.3 140.65 580.7 138.65 579.05 137.55 574.6 135.1 565.5 136.1 M545.4 148.15 L546.4 146.85 Q547.05 146.2 548.35 145.3 L550.6 143.75 Q551.9 142.85 553.25 142.5 L555.45 141.95 Q556.1 141.75 556.1 141.25 L556.1 141.2 559.15 141.0 560.35 141.0 Q557.3 141.9 554.4 143.1 550.8 144.6 548.1 146.4 546.8 147.1 545.4 148.15 M539.4 162.7 L539.45 162.75 Q539.15 163.4 539.15 163.8 L539.2 164.3 539.25 164.4 540.15 164.75 540.85 164.5 Q540.55 165.1 540.4 165.9 540.1 167.25 539.75 169.75 539.35 171.3 537.2 173.65 L537.45 173.85 537.5 173.85 537.95 174.25 538.05 174.3 538.2 174.4 538.25 174.3 540.5 175.7 Q542.2 176.75 542.5 177.5 L540.65 176.5 Q539.0 175.8 537.35 175.75 L537.15 175.75 537.1 175.75 537.15 175.7 536.25 175.55 536.1 175.3 536.2 175.1 536.2 175.0 536.25 174.8 536.15 174.95 Q536.35 174.25 536.7 173.5 537.8 171.4 538.15 169.85 L538.35 168.2 538.4 166.5 Q538.45 165.8 538.8 164.65 L539.05 163.6 539.4 162.7 M598.25 202.75 L598.75 200.15 Q599.3 201.95 600.6 203.5 L604.0 206.15 606.65 207.65 603.7 207.75 Q598.25 207.9 598.25 202.75 M613.8 195.8 L616.95 197.25 Q619.3 198.45 621.15 200.15 L624.1 203.65 Q626.05 205.95 628.75 207.25 631.1 208.4 634.3 210.85 L636.5 212.85 637.35 213.5 639.8 216.45 Q642.1 219.4 642.35 221.4 L642.5 222.95 630.95 214.7 Q623.9 209.6 621.05 206.25 L620.55 205.65 613.35 196.75 611.2 194.8 610.75 194.45 611.6 194.8 613.8 195.8 M546.2 190.65 L543.85 191.5 Q543.6 191.5 542.9 190.15 L542.1 188.25 547.3 188.5 549.5 189.15 549.25 189.25 546.2 190.65 M536.1 183.2 L536.25 183.95 536.1 185.45 535.9 186.0 534.85 188.0 Q533.75 189.55 533.75 192.0 L533.8 192.9 533.5 192.65 533.35 192.5 533.4 192.75 Q531.75 191.85 531.75 190.9 531.75 190.35 533.55 187.65 L534.95 185.1 Q535.2 184.4 535.8 183.7 L536.1 183.2" fill="url(#gradient1)" fill-rule="evenodd" stroke="none"/>
  </g>
  <defs>
    <linearGradient gradientTransform="matrix(0.0, 0.2606, -0.2102, 0.0, 312.3, 232.35)" gradientUnits="userSpaceOnUse" id="gradient0" spreadMethod="pad" x1="-819.2" x2="819.2">
      <stop offset="0.0" stop-color="#000000"/>
      <stop offset="1.0" stop-color="#333333"/>
    </linearGradient>
    <linearGradient gradientTransform="matrix(-0.0318, -0.0763, 0.0153, -0.0064, 579.9, 201.5)" gradientUnits="userSpaceOnUse" id="gradient1" spreadMethod="pad" x1="-819.2" x2="819.2">
      <stop offset="0.0" stop-color="#000000"/>
      <stop offset="1.0" stop-color="#685015"/>
    </linearGradient>
  </defs>
</svg>
