<?xml version="1.0" encoding="UTF-8" standalone="no"?>
<svg xmlns:xlink="http://www.w3.org/1999/xlink" height="267.6px" width="322.1px" xmlns="http://www.w3.org/2000/svg">
  <g transform="matrix(1.0, 0.0, 0.0, 1.0, -154.25, -102.85)">
    <path d="M401.65 110.9 L397.1 127.1 387.4 106.5 437.05 104.45 414.8 139.7 408.75 111.95 403.7 120.0 401.65 110.9 M453.55 103.8 L476.35 102.85 473.35 132.45 465.3 136.15 470.35 124.55 443.55 144.75 460.75 108.9 449.15 112.95 453.55 103.8 M469.15 173.8 L458.7 175.05 469.75 167.75 469.15 173.8 M331.45 364.45 L338.55 357.85 341.05 362.4 347.1 351.8 348.15 369.4 165.3 367.45 164.2 341.75 174.9 343.2 168.85 349.8 195.6 335.15 189.55 345.75 206.75 336.65 208.25 340.7 228.95 323.5 228.45 334.15 233.0 347.25 237.55 336.65 241.05 342.7 252.2 337.65 263.8 353.8 268.85 350.3 273.4 359.9 288.55 337.15 295.1 358.35 298.15 354.35 300.65 359.9 311.25 350.8 315.3 344.75 328.45 355.85 331.45 364.45 M395.6 366.95 L404.7 354.85 410.25 361.9 408.2 343.2 416.8 357.85 421.35 346.25 412.25 339.2 437.0 348.25 429.95 328.55 440.55 341.2 441.55 325.55 449.15 323.0 444.6 310.9 454.5 317.4 449.1 370.45 366.45 369.6 372.85 360.4 376.4 364.45 392.55 345.25 389.55 359.9 395.6 366.95 M229.95 135.15 L223.3 113.15 313.85 109.45 307.75 129.6 302.7 117.5 295.1 123.55 266.3 117.5 254.2 127.1 248.15 141.2 245.1 117.5 230.95 125.05 229.95 135.15 M197.25 120.2 L205.7 139.7 191.6 130.1 192.6 144.25 175.9 128.6 178.95 142.25 168.85 141.2 196.65 159.9 177.95 159.4 183.0 163.45 162.3 170.0 171.9 172.55 157.0 177.95 154.25 115.9 201.4 114.0 203.2 124.55 197.65 120.0 197.25 120.2 M157.2 182.15 L164.3 183.65 157.4 186.55 157.2 182.15 M158.8 219.1 L157.9 198.15 170.35 207.35 160.25 208.4 174.9 214.95 158.8 219.1 M159.25 228.6 L159.0 222.9 171.4 224.55 159.25 228.6 M168.35 240.2 L188.05 248.3 170.85 254.35 178.45 269.5 172.9 278.6 182.5 286.65 170.7 293.25 179.95 299.3 163.3 303.3 169.85 308.35 162.95 313.05 159.4 232.0 181.5 234.65 168.35 240.2" fill="#000000" fill-opacity="0.5019608" fill-rule="evenodd" stroke="none"/>
  </g>
</svg>
