<?xml version="1.0" encoding="UTF-8" standalone="no"?>
<svg xmlns:xlink="http://www.w3.org/1999/xlink" height="264.35px" width="138.7px" xmlns="http://www.w3.org/2000/svg">
  <g transform="matrix(1.0, 0.0, 0.0, 1.0, 0.0, 0.0)">
    <path d="M98.1 14.3 Q103.45 15.55 108.05 18.5 112.25 21.15 114.8 25.15 L115.2 26.75 Q116.4 32.2 114.45 37.55 111.3 46.2 105.55 53.3 103.0 56.5 99.55 58.6 99.5 64.1 100.7 69.35 L101.65 72.8 Q103.4 78.25 102.9 84.15 L102.55 89.2 Q102.05 96.6 101.2 103.9 100.85 106.6 99.9 109.3 99.05 111.8 97.7 114.2 95.05 118.9 93.6 124.2 90.85 134.45 92.5 145.3 L94.25 157.15 96.05 169.5 100.25 198.05 Q101.25 205.1 102.55 212.1 105.45 227.5 107.55 243.05 108.1 247.2 109.45 251.2 118.85 249.35 127.9 251.95 133.65 253.45 138.7 256.5 L133.85 255.3 Q129.15 253.7 124.4 252.85 L109.5 252.35 109.3 253.2 108.05 252.4 84.1 255.7 92.55 264.35 82.15 255.8 68.2 255.5 68.7 260.35 66.75 255.35 32.1 249.9 31.4 250.35 24.85 249.15 31.3 248.3 31.2 244.6 31.3 236.9 Q31.6 230.85 32.15 224.85 L33.3 212.9 33.55 209.15 33.6 206.0 33.5 202.8 33.25 199.6 Q31.95 189.8 31.3 179.9 31.0 175.55 31.05 171.15 L31.2 162.9 31.1 154.6 30.6 146.95 29.9 140.05 29.2 133.1 27.7 114.65 Q27.35 110.15 26.0 105.9 23.45 97.75 19.65 90.25 L14.85 79.9 Q9.95 68.65 6.9 56.7 L2.1 39.1 Q0.65 34.2 0.2 29.25 -0.1 25.9 0.1 22.65 0.5 16.85 4.1 12.2 6.45 9.1 10.0 7.55 12.2 6.5 14.5 6.45 L24.7 6.9 Q27.2 6.95 29.55 5.9 34.7 3.4 40.25 4.25 L46.65 4.95 61.8 4.45 65.8 3.1 Q70.85 0.8 76.55 0.15 81.2 -0.4 85.4 1.45 91.15 4.0 92.2 10.4 93.9 10.8 95.05 12.15 96.3 13.75 98.1 14.3 M66.25 16.0 Q64.8 14.35 65.2 14.15 L70.45 17.4 73.6 16.1 79.35 12.3 Q84.3 8.4 84.8 3.0 81.65 0.45 77.5 1.25 L64.5 10.85 71.65 2.45 Q67.65 3.95 64.25 6.2 56.6 11.3 49.25 16.65 L45.1 19.85 Q41.7 22.7 40.0 26.8 37.3 33.45 35.8 39.4 L22.7 67.0 Q22.55 66.3 22.75 65.65 24.95 58.6 28.1 51.9 23.85 49.05 22.8 43.9 20.1 42.85 17.65 41.2 13.3 38.4 12.2 35.6 L12.75 35.9 Q16.8 39.0 21.4 41.3 27.3 44.2 31.95 39.6 L32.0 38.65 Q31.55 37.7 30.4 36.7 24.9 32.05 23.9 25.25 25.8 27.15 27.45 30.35 30.0 35.25 34.55 36.45 36.6 33.25 37.95 29.35 39.25 25.55 40.85 21.7 41.15 21.0 41.7 20.6 51.9 13.6 61.85 5.9 L51.25 6.0 50.65 6.55 50.25 6.65 Q46.15 7.1 42.45 5.95 L41.15 5.7 Q35.3 4.6 29.7 6.85 L27.85 7.6 Q20.0 8.6 12.15 7.65 L11.55 8.25 6.7 11.65 5.0 13.55 Q-0.05 19.0 0.65 26.6 1.35 34.05 4.0 40.9 6.5 47.25 7.65 53.85 8.75 60.5 11.15 66.95 L13.65 73.8 Q14.7 76.8 16.05 79.65 21.0 90.05 25.85 101.45 28.4 107.45 28.8 114.1 L30.0 129.5 Q30.3 132.95 31.1 136.45 L31.75 140.85 32.35 150.55 Q32.75 157.9 32.55 165.35 L32.45 174.35 Q32.5 185.9 34.05 197.4 35.75 209.75 33.75 222.2 31.65 235.35 32.4 248.55 L66.6 254.0 65.95 248.15 61.7 247.45 65.9 247.15 Q65.7 239.95 64.95 232.8 64.05 223.7 64.55 214.6 L65.25 199.65 Q65.45 192.6 66.3 185.45 L67.75 171.8 Q68.05 168.7 69.45 167.15 68.65 175.1 71.45 182.55 73.3 187.45 75.85 190.1 L72.7 144.1 Q64.7 165.25 63.05 187.6 61.7 186.7 61.45 184.95 L58.95 167.6 Q57.95 160.5 58.1 153.15 L58.4 143.6 55.4 140.2 60.45 136.7 53.35 132.65 62.85 129.55 57.05 124.95 Q64.95 125.2 72.85 123.75 76.95 122.9 78.05 120.0 78.1 115.05 75.35 112.4 L69.75 113.65 73.2 110.65 Q72.15 102.05 65.2 96.25 62.45 93.9 60.1 94.25 L58.05 97.3 Q54.9 101.2 50.05 100.65 47.9 100.4 46.7 98.75 45.0 96.35 43.7 93.7 L43.0 91.5 Q41.65 85.75 42.9 79.85 43.45 77.05 42.35 74.55 40.55 70.55 42.2 66.65 43.8 62.85 46.1 59.35 49.05 54.95 51.3 50.05 52.7 46.95 55.8 45.05 58.9 43.15 59.6 40.15 60.35 37.0 58.05 34.75 56.2 33.1 56.4 31.4 L60.5 34.75 Q62.25 35.2 63.2 33.8 66.05 29.4 62.55 24.75 60.75 22.4 60.8 20.15 L69.95 25.45 70.1 25.15 Q69.8 20.15 66.25 16.0 M72.4 18.3 L72.6 18.55 72.85 18.3 72.4 18.3 M28.6 49.55 L28.85 50.3 32.8 42.25 Q27.15 44.15 28.6 49.55 M67.1 248.35 L67.95 254.1 80.5 254.35 67.1 248.35" fill="#000000" fill-rule="evenodd" stroke="none"/>
    <path d="M66.25 16.0 Q69.8 20.15 70.1 25.15 L69.95 25.45 60.8 20.15 Q60.75 22.4 62.55 24.75 66.05 29.4 63.2 33.8 62.25 35.2 60.5 34.75 L56.4 31.4 Q56.2 33.1 58.05 34.75 60.35 37.0 59.6 40.15 58.9 43.15 55.8 45.05 52.7 46.95 51.3 50.05 49.05 54.95 46.1 59.35 43.8 62.85 42.2 66.65 40.55 70.55 42.35 74.55 43.45 77.05 42.9 79.85 41.65 85.75 43.0 91.5 L43.7 93.7 Q45.0 96.35 46.7 98.75 47.9 100.4 50.05 100.65 54.9 101.2 58.05 97.3 L60.1 94.25 Q62.45 93.9 65.2 96.25 72.15 102.05 73.2 110.65 L69.75 113.65 75.35 112.4 Q78.1 115.05 78.05 120.0 76.95 122.9 72.85 123.75 64.95 125.2 57.05 124.95 L62.85 129.55 53.35 132.65 60.45 136.7 55.4 140.2 58.4 143.6 58.1 153.15 Q57.95 160.5 58.95 167.6 L61.45 184.95 Q61.7 186.7 63.05 187.6 64.7 165.25 72.7 144.1 L75.85 190.1 Q73.3 187.45 71.45 182.55 68.65 175.1 69.45 167.15 68.05 168.7 67.75 171.8 L66.3 185.45 Q65.45 192.6 65.25 199.65 L64.55 214.6 Q64.05 223.7 64.95 232.8 65.7 239.95 65.9 247.15 L61.7 247.45 65.95 248.15 66.6 254.0 32.4 248.55 Q31.65 235.35 33.75 222.2 35.75 209.75 34.05 197.4 32.5 185.9 32.45 174.35 L32.55 165.35 Q32.75 157.9 32.35 150.55 L31.75 140.85 31.1 136.45 Q30.3 132.95 30.0 129.5 L28.8 114.1 Q28.4 107.45 25.85 101.45 21.0 90.05 16.05 79.65 14.7 76.8 13.65 73.8 L11.15 66.95 Q8.75 60.5 7.65 53.85 6.5 47.25 4.0 40.9 1.35 34.05 0.65 26.6 -0.05 19.0 5.0 13.55 L6.7 11.65 11.55 8.25 12.15 7.65 Q20.0 8.6 27.85 7.6 L29.7 6.85 Q35.3 4.6 41.15 5.7 L42.45 5.95 Q46.15 7.1 50.25 6.65 L50.65 6.55 51.25 6.0 61.85 5.9 Q51.9 13.6 41.7 20.6 41.15 21.0 40.85 21.7 39.25 25.55 37.95 29.35 36.6 33.25 34.55 36.45 30.0 35.25 27.45 30.35 25.8 27.15 23.9 25.25 24.9 32.05 30.4 36.7 31.55 37.7 32.0 38.65 L31.95 39.6 Q27.3 44.2 21.4 41.3 16.8 39.0 12.75 35.9 L12.2 35.6 Q13.3 38.4 17.65 41.2 20.1 42.85 22.8 43.9 23.85 49.05 28.1 51.9 24.95 58.6 22.75 65.65 22.55 66.3 22.7 67.0 L35.8 39.4 Q37.3 33.45 40.0 26.8 41.7 22.7 45.1 19.85 L49.25 16.65 Q56.6 11.3 64.25 6.2 67.65 3.95 71.65 2.45 L64.5 10.85 77.5 1.25 Q81.65 0.45 84.8 3.0 84.3 8.4 79.35 12.3 L73.6 16.1 70.45 17.4 65.2 14.15 Q64.8 14.35 66.25 16.0" fill="url(#gradient0)" fill-rule="evenodd" stroke="none"/>
    <path d="M28.6 49.55 Q27.15 44.15 32.8 42.25 L28.85 50.3 28.6 49.55" fill="#d7c1b9" fill-rule="evenodd" stroke="none"/>
    <path d="M38.85 240.25 L39.6 242.05 42.7 243.35 Q42.05 239.8 38.85 240.25 M38.0 240.15 Q38.0 240.55 38.95 241.55 38.75 240.3 38.0 240.15 M33.25 246.1 L35.3 246.0 34.25 243.3 35.15 239.85 Q31.25 242.2 33.25 246.1 M35.35 241.75 L34.75 243.3 36.1 244.8 35.35 241.75 M35.55 240.1 Q36.65 240.85 37.3 239.55 L35.45 239.8 35.55 240.1 M37.45 240.3 Q37.1 240.3 36.05 240.9 36.55 241.9 36.7 243.25 36.85 244.7 36.45 245.6 38.0 246.15 38.65 244.6 39.0 243.8 39.0 242.8 L38.25 241.55 37.45 240.3 M32.5 231.6 L33.2 233.85 Q34.85 236.65 38.15 236.1 L37.55 231.6 Q34.8 233.45 32.5 231.6 M31.0 217.3 L28.9 221.9 29.75 223.9 31.55 224.0 Q33.45 219.85 31.0 217.3 M30.15 216.4 L29.05 216.3 Q28.15 216.4 27.65 217.05 27.8 217.55 28.55 217.55 L29.75 217.25 30.15 216.4 M28.05 205.25 L28.55 205.55 Q32.1 205.55 32.3 201.7 L27.75 203.8 28.05 205.25 M39.4 205.6 Q39.55 206.25 40.2 206.85 L43.0 202.55 Q41.25 203.6 39.4 205.6 M39.7 207.5 L38.85 206.15 34.05 211.8 39.7 207.5 M32.6 204.15 L33.7 203.15 33.05 201.95 28.5 212.5 33.25 211.75 33.75 203.25 32.6 204.15 M33.4 198.8 L33.8 202.1 36.9 200.3 33.4 198.8 M59.9 243.9 L60.2 243.9 60.3 243.45 59.75 241.85 Q58.9 240.5 57.65 241.55 57.65 242.05 58.2 242.8 58.9 243.7 59.9 243.9 M49.3 243.5 L49.7 243.3 49.9 242.35 47.8 242.35 47.45 242.9 48.05 243.25 48.75 243.55 49.3 243.5 M43.8 236.7 Q43.8 236.25 43.25 235.7 42.65 235.0 41.75 234.7 L40.6 235.5 39.05 236.4 40.5 237.75 Q41.4 238.55 42.25 238.55 43.95 238.55 43.8 236.7 M48.9 239.55 L46.75 241.3 49.8 241.9 48.9 239.55 M42.15 227.3 L41.5 227.65 Q36.1 231.35 39.35 235.4 44.35 233.35 43.15 227.75 L42.15 227.3 M41.7 227.0 L40.9 226.2 40.45 227.45 41.7 227.0 M51.55 228.9 L52.4 225.8 50.0 228.05 51.55 228.9 M54.6 221.65 Q55.9 219.15 55.4 216.3 51.2 217.3 48.9 220.95 L47.8 223.05 48.55 226.65 49.6 225.75 48.85 226.95 Q52.75 225.3 54.6 221.65 M53.25 214.6 L53.7 214.9 Q56.45 215.05 58.15 212.55 L53.25 214.6 M40.7 222.45 Q40.65 221.65 41.25 220.8 L40.45 219.1 Q31.8 222.65 33.15 232.0 41.35 231.0 40.7 222.45 M57.15 202.85 L54.35 203.25 55.45 206.05 57.15 202.85 M58.25 209.05 L56.8 208.85 58.95 210.45 58.25 209.05 M55.45 208.2 L54.95 207.45 50.35 209.7 55.45 208.2 M46.5 169.95 L45.05 171.2 Q46.55 179.1 52.5 184.45 45.7 178.95 44.8 170.9 L46.5 169.95 M45.7 150.05 L42.95 153.3 Q43.8 158.75 47.4 163.05 L50.65 167.05 48.9 168.8 50.4 166.8 Q46.1 163.2 43.65 158.15 42.45 155.65 42.65 152.95 L45.35 150.2 40.95 144.1 45.7 150.05 M27.55 187.95 L32.95 188.75 43.3 183.3 33.4 176.35 Q33.0 183.0 27.55 187.95 M33.0 197.85 L33.0 193.9 31.45 195.65 33.0 197.85 M32.65 192.35 L30.65 192.35 31.65 195.15 32.65 192.35 M32.75 189.8 L31.5 191.6 32.95 192.1 32.75 189.8 M28.75 195.35 L29.75 195.6 30.6 195.45 Q29.9 194.2 29.9 193.2 L29.95 192.8 Q28.15 193.55 28.15 194.5 28.15 195.05 28.75 195.35 M31.75 175.15 Q32.6 175.4 31.8 174.6 L31.0 175.15 31.75 175.15 M30.55 158.5 L32.95 159.5 Q33.05 160.85 32.75 162.25 32.1 165.15 30.4 167.8 L33.3 167.95 Q33.85 169.4 36.5 168.2 39.9 166.55 41.35 163.7 L32.55 155.5 30.55 158.5 M23.25 128.05 L25.1 128.0 25.45 124.65 23.25 128.05 M22.95 123.3 Q23.65 119.85 27.05 118.65 L23.0 123.4 22.95 123.3 M26.25 123.35 Q27.4 122.25 29.65 122.45 25.15 123.45 25.7 127.85 L30.15 124.45 25.85 128.4 27.95 132.15 30.15 128.7 28.35 133.05 37.05 142.0 33.45 145.25 Q31.15 147.1 32.1 149.8 35.05 158.05 42.05 163.7 38.95 167.7 33.55 169.65 L32.0 173.35 33.15 174.65 43.6 183.5 33.6 189.85 33.45 198.3 Q36.75 201.05 40.25 198.15 L39.0 199.5 42.0 197.15 41.85 197.2 Q41.85 197.1 42.1 197.0 L42.3 196.95 Q42.3 197.75 41.8 198.0 37.9 200.05 34.3 202.75 35.85 207.05 34.1 211.25 L38.75 205.55 Q41.0 198.55 48.9 196.9 42.7 196.8 40.9 191.7 L47.05 187.6 41.3 192.2 Q45.1 197.0 50.35 196.45 43.5 199.05 39.3 204.9 L43.25 202.3 40.75 207.35 Q48.3 211.4 54.5 206.8 L53.6 203.35 55.05 202.0 57.8 202.5 55.65 207.7 59.05 208.85 59.55 211.1 62.15 211.9 Q60.7 212.0 59.85 213.0 56.05 217.1 52.2 214.05 L58.8 211.55 55.9 208.8 Q55.25 208.9 54.7 209.15 50.45 211.4 47.15 214.3 L47.1 214.35 46.3 215.05 49.7 209.8 Q44.55 210.55 40.05 207.85 L33.35 213.2 31.7 216.9 31.85 217.15 Q33.65 220.3 32.3 223.75 L34.4 222.25 Q40.2 217.05 44.65 210.75 L40.25 218.7 41.5 220.0 45.15 219.55 41.75 221.0 41.1 225.45 Q44.2 228.9 48.2 227.1 L47.9 225.95 Q46.45 216.8 55.75 216.1 56.35 216.8 56.35 217.85 56.25 221.1 54.15 223.7 55.95 222.55 58.0 221.9 59.65 221.4 60.35 222.35 L56.8 222.7 Q52.6 224.85 52.2 229.4 L52.35 229.65 Q61.0 231.55 60.9 224.65 61.3 232.4 52.5 230.65 L56.15 235.45 56.5 234.7 Q58.2 231.15 61.45 233.05 L61.5 233.55 Q61.0 232.25 59.3 232.85 56.9 233.65 56.9 235.7 56.9 236.2 58.4 236.55 60.6 236.55 61.35 235.65 L61.6 235.0 61.65 235.9 57.1 237.45 60.8 241.3 60.45 244.5 Q59.15 244.65 58.1 243.8 57.05 242.9 57.0 241.35 L58.65 240.4 Q55.35 236.9 53.05 238.5 54.25 239.0 54.75 240.15 55.25 241.4 54.7 242.35 L53.85 242.45 Q54.65 242.15 54.5 241.2 54.5 238.8 51.95 238.9 49.4 239.0 49.4 240.3 49.4 241.05 50.6 241.8 L52.5 242.55 50.15 242.7 49.55 243.85 47.15 243.35 45.8 244.3 Q44.15 245.3 42.5 244.35 L44.95 243.05 43.35 242.5 46.0 241.9 Q49.5 236.25 56.75 237.9 L49.55 228.3 43.75 227.9 43.7 229.4 Q43.25 232.2 41.8 234.4 L44.1 236.05 43.65 238.6 Q42.85 239.3 41.8 239.0 39.85 238.3 38.45 236.8 L38.0 239.25 38.5 239.45 Q43.55 240.4 42.6 243.95 L39.5 243.05 38.35 246.15 36.65 246.55 Q33.95 247.6 32.25 245.55 L32.25 244.2 Q32.6 240.85 34.55 239.05 L33.75 238.4 29.45 239.05 Q30.4 238.2 31.75 237.85 34.0 237.75 35.4 239.35 L37.25 239.15 37.65 237.05 Q28.05 233.8 33.8 223.65 L32.0 224.55 29.15 228.05 29.9 228.9 Q34.35 235.65 26.4 239.6 L27.9 240.3 29.1 239.4 28.6 240.55 31.5 244.3 31.35 244.55 30.75 244.05 Q27.9 241.65 24.65 239.6 28.1 239.25 29.55 236.4 33.45 228.8 25.9 228.4 29.5 227.9 31.2 224.75 L29.35 224.5 29.1 224.05 Q28.05 219.95 28.5 218.3 L26.9 217.0 27.2 216.5 Q28.6 215.2 30.5 215.8 L31.9 213.55 27.6 212.45 29.85 206.25 27.6 205.75 27.0 203.65 Q28.9 200.5 32.65 201.05 L32.95 198.4 30.3 196.25 28.65 196.15 Q27.55 195.7 27.4 194.45 L30.15 191.9 32.2 189.35 26.7 188.7 Q32.2 183.15 32.8 175.95 L32.45 175.8 Q29.2 176.45 26.9 179.05 L25.55 179.05 25.4 178.75 31.15 173.35 30.9 172.0 32.75 168.3 31.15 168.35 Q28.6 169.6 26.4 171.0 25.95 170.5 26.35 170.25 33.55 165.55 31.45 159.0 L23.7 163.15 25.55 161.5 32.35 155.15 30.7 149.25 25.75 157.9 29.7 155.4 24.8 159.0 31.05 147.15 24.4 153.65 32.55 140.1 26.4 150.95 31.15 146.9 36.2 141.65 27.9 133.5 26.0 136.2 26.95 134.25 23.65 137.7 27.5 133.0 25.15 128.3 22.25 128.1 28.5 119.8 26.25 123.35" fill="#000000" fill-rule="evenodd" stroke="none"/>
    <path d="M83.4 10.2 L83.45 10.85 Q83.45 12.0 80.45 15.45 L79.0 16.45 77.8 17.25 77.15 18.6 77.15 18.75 76.95 19.0 74.45 23.45 72.2 28.3 Q70.5 31.55 68.85 31.55 67.7 31.55 67.25 30.9 L66.7 34.1 Q66.1 35.55 65.95 36.55 L65.4 37.85 64.45 38.8 Q64.3 39.1 64.5 41.3 64.35 43.3 62.35 43.3 60.85 43.3 60.3 42.25 L59.35 44.1 58.25 45.2 57.1 46.25 Q56.35 47.3 55.9 48.65 L54.75 51.2 51.75 55.8 Q50.8 57.55 49.6 60.65 L47.55 65.45 45.8 69.8 Q44.25 73.9 44.25 74.7 44.25 76.0 44.65 77.65 L45.7 77.6 45.8 78.35 45.75 78.95 Q45.95 79.2 45.3 79.2 L45.1 79.2 45.25 79.7 Q45.5 80.4 45.55 82.1 45.65 82.7 46.25 83.45 L46.8 84.55 46.45 85.3 45.7 85.85 Q43.95 85.85 43.25 83.6 L43.05 82.5 42.6 85.4 Q42.6 86.55 42.95 88.05 L43.6 88.55 Q44.1 89.05 44.2 90.2 L44.55 91.95 Q46.15 95.35 47.45 96.75 L47.95 97.25 48.6 97.75 Q49.45 98.25 50.35 98.25 52.35 98.25 54.05 97.1 L55.5 95.85 54.9 94.65 54.6 94.0 Q54.6 93.25 55.2 92.75 L55.0 91.95 Q55.0 91.15 55.55 90.7 56.1 90.25 57.15 90.5 L56.05 88.25 Q56.05 86.85 57.6 86.4 59.3 85.95 60.5 87.95 62.05 89.1 64.45 91.7 L65.0 91.25 Q65.55 90.8 66.1 90.8 67.15 90.8 67.9 91.65 L68.6 92.55 70.8 93.15 Q71.4 93.35 71.7 94.45 L71.95 96.4 72.3 98.35 73.45 100.05 Q74.5 101.4 74.8 102.25 L75.7 106.45 75.85 106.7 Q76.85 106.1 77.35 106.1 79.4 106.1 79.65 107.8 79.8 108.75 79.55 110.55 L79.55 115.05 79.8 123.95 Q79.8 125.7 78.95 126.7 L77.9 127.15 76.7 127.45 76.35 127.75 Q76.6 129.0 76.45 130.3 76.4 130.95 76.75 131.75 L77.3 132.95 77.55 135.35 76.8 141.1 Q76.05 145.5 76.05 146.85 76.05 155.6 77.8 171.35 79.55 187.1 79.55 193.85 L79.35 196.55 Q79.3 198.05 78.6 198.6 L77.95 199.2 Q77.95 200.0 79.2 205.6 L79.1 205.7 77.45 199.45 72.25 199.1 69.6 198.7 68.45 197.5 69.25 207.55 Q69.25 209.2 69.05 209.65 68.4 211.2 65.8 210.2 L64.7 216.75 65.65 217.45 Q66.65 218.4 66.75 220.05 L66.95 223.05 67.35 226.0 67.7 229.05 68.25 241.1 68.15 245.8 Q67.7 250.2 65.8 250.2 L64.85 249.85 64.2 249.45 62.55 250.2 Q61.9 250.2 61.05 249.55 60.6 252.2 59.3 252.2 58.05 252.2 57.5 251.65 L57.0 250.95 56.85 250.45 56.65 250.5 55.75 250.35 Q54.7 250.05 54.4 249.3 L54.25 248.2 Q53.2 248.95 52.3 248.95 L51.2 248.45 50.5 247.95 49.8 248.4 Q49.3 248.85 48.7 248.85 47.2 248.85 46.75 247.5 46.6 247.0 46.6 246.0 46.6 244.7 47.45 243.9 48.7 242.65 49.5 240.6 51.15 237.05 51.5 235.2 52.7 229.45 54.8 224.25 56.25 220.75 57.45 213.0 58.45 206.25 58.45 202.45 58.3 192.9 57.85 188.2 57.75 187.05 57.05 184.75 L56.1 181.05 55.8 177.6 55.5 173.95 Q54.05 162.2 53.8 158.5 L53.75 157.1 52.2 151.45 Q51.15 148.3 50.8 143.1 L50.6 134.25 Q50.6 132.45 50.95 129.95 L51.6 125.35 Q52.15 121.85 57.0 119.5 62.0 117.7 62.45 117.2 63.8 115.85 64.25 113.75 64.2 110.5 62.15 106.85 59.35 102.3 57.8 99.1 54.4 102.2 50.6 102.2 48.15 102.2 45.8 100.4 43.6 98.75 43.05 96.85 L42.3 94.9 42.25 94.8 41.85 93.8 41.65 93.25 40.35 90.2 Q39.65 87.6 39.75 85.0 L39.95 80.25 Q39.95 78.4 39.25 76.5 38.55 74.55 38.55 71.25 38.55 67.65 40.5 62.4 42.5 56.8 45.1 54.2 56.2 40.25 56.2 37.05 56.2 35.45 54.9 33.3 53.75 31.35 51.95 29.55 L49.9 27.75 Q48.3 26.5 47.1 25.95 L42.5 24.2 Q41.3 23.8 41.3 22.85 41.3 21.0 43.75 21.45 L44.15 20.35 Q44.75 19.1 45.45 18.75 L47.25 17.85 47.7 17.65 45.8 16.5 Q43.95 16.2 42.85 15.6 L42.65 15.45 41.05 14.9 Q36.7 13.4 32.45 12.45 L29.7 11.5 Q28.2 10.8 26.95 10.55 L21.35 9.7 14.75 9.2 9.0 9.7 8.5 9.6 8.25 9.45 8.05 8.6 8.05 8.25 8.2 8.05 14.1 7.45 25.05 8.0 Q25.9 8.15 27.75 8.8 L27.7 8.35 Q27.7 7.25 28.5 6.9 L30.2 6.2 31.75 6.15 Q32.65 6.5 33.85 5.55 L34.35 5.2 Q34.85 4.9 35.8 4.8 38.9 4.5 48.55 6.7 L49.55 6.4 54.55 6.05 58.75 5.9 59.6 5.75 Q61.35 5.75 62.35 6.35 64.05 5.35 66.35 4.25 67.6 3.65 71.95 1.85 72.55 1.6 74.85 2.6 L75.05 2.8 75.35 2.45 Q77.3 0.6 80.85 1.6 82.85 1.95 85.0 3.7 86.95 5.3 86.95 6.1 86.95 6.8 85.8 7.7 L85.35 8.3 84.6 9.2 83.4 10.2 M55.1 28.75 L54.95 28.1 54.6 28.05 54.7 28.2 55.1 28.75 M56.75 31.05 L57.4 32.0 57.35 31.85 56.75 31.05 M39.45 24.45 L39.45 23.95 39.95 24.05 39.45 24.45 M13.65 36.7 L17.55 38.55 Q21.2 40.35 25.4 40.35 26.9 40.35 27.55 39.45 L27.95 38.5 25.6 34.55 Q23.2 30.35 23.2 27.6 L23.4 26.05 Q23.85 24.9 25.35 25.7 26.0 26.45 26.55 28.7 27.3 30.4 29.05 32.35 L31.35 34.4 31.65 34.55 32.55 34.75 Q34.15 34.75 36.35 30.3 L37.65 28.25 38.6 26.2 38.8 26.05 38.9 25.95 38.95 26.3 38.45 27.75 Q38.0 29.0 38.1 29.45 38.25 30.1 37.45 32.45 36.65 35.75 35.8 37.05 34.55 38.9 32.5 38.35 L32.55 39.2 32.15 42.05 Q33.0 42.2 33.0 43.35 33.0 44.25 31.1 47.95 30.15 51.5 29.0 51.9 28.8 53.0 28.1 53.35 L27.75 53.55 27.35 55.8 26.8 57.7 26.05 59.6 24.15 63.4 22.25 67.05 21.5 66.95 21.45 66.35 22.1 64.8 22.2 64.6 Q21.7 64.1 21.7 63.7 L22.7 60.15 Q23.7 56.35 23.7 53.95 23.7 51.75 22.85 49.8 L22.25 47.9 Q21.85 46.8 20.7 45.85 L18.55 43.85 16.25 41.75 13.65 39.9 Q12.25 38.8 12.25 37.9 12.25 37.4 12.65 37.05 13.1 36.7 13.65 36.7 M23.1 43.7 Q24.3 44.25 25.2 46.1 L26.45 48.4 26.45 48.25 26.45 48.1 Q26.45 46.3 26.9 45.45 L28.05 43.3 Q24.9 44.75 23.6 43.6 L23.1 43.7 M45.4 60.95 L45.3 60.8 44.65 62.2 Q42.25 67.65 42.1 70.8 42.6 69.0 43.55 66.8 L45.7 61.7 45.4 60.95 M72.8 126.4 L72.7 124.55 Q72.4 125.15 71.8 127.45 70.95 129.5 69.35 129.5 L68.65 129.25 Q68.3 129.0 67.95 129.0 L66.9 129.65 65.7 130.55 64.9 131.55 64.1 132.25 Q62.95 132.25 62.25 131.75 L61.7 131.2 61.0 131.4 60.45 131.7 Q61.2 133.05 62.25 136.8 L63.25 141.15 64.5 147.55 64.8 149.05 65.2 147.05 Q66.05 142.9 66.85 140.1 68.4 134.85 70.1 134.85 70.45 134.85 71.45 135.35 72.15 134.85 72.1 133.1 L72.1 130.45 Q72.05 128.85 72.15 127.95 72.25 127.0 72.8 126.4 M62.2 147.45 L61.65 145.15 61.15 145.55 62.05 147.45 62.2 147.45 M60.85 149.6 L61.2 154.05 61.3 156.95 Q61.4 158.6 62.2 159.6 62.45 157.2 62.75 156.45 L63.75 155.15 64.25 154.05 Q63.65 153.9 63.55 153.2 63.35 152.0 62.05 151.2 61.35 150.75 60.95 149.85 L60.85 149.6" fill="#000000" fill-opacity="0.101960786" fill-rule="evenodd" stroke="none"/>
  </g>
  <defs>
    <linearGradient gradientTransform="matrix(0.0514, 0.0, 0.0, 0.1544, 42.65, 127.5)" gradientUnits="userSpaceOnUse" id="gradient0" spreadMethod="pad" x1="-819.2" x2="819.2">
      <stop offset="0.0" stop-color="#d7c1b9"/>
      <stop offset="1.0" stop-color="#926654"/>
    </linearGradient>
  </defs>
</svg>
