<?xml version="1.0" encoding="UTF-8" standalone="no"?>
<svg xmlns:xlink="http://www.w3.org/1999/xlink" height="310.0px" width="310.0px" xmlns="http://www.w3.org/2000/svg">
  <g transform="matrix(1.0, 0.0, 0.0, 1.0, 0.0, 0.0)">
    <path d="M246.45 69.3 Q245.35 66.5 243.7 64.75 243.65 64.3 242.85 63.45 242.4 62.5 241.6 62.05 L238.1 60.85 235.65 60.3 233.85 60.2 233.65 60.2 232.35 60.2 225.9 60.75 Q224.25 61.0 224.25 61.35 L224.25 61.5 Q223.7 62.0 223.2 63.45 L222.35 65.0 221.3 66.45 219.9 69.45 Q219.2 71.2 219.2 72.45 L219.45 75.1 219.8 77.85 Q219.9 78.8 220.55 80.65 L221.3 83.3 221.95 86.2 222.5 88.85 223.05 91.55 223.2 93.05 223.3 93.25 Q222.45 93.7 221.55 94.3 L215.7 97.45 Q214.0 98.15 213.55 99.0 L213.35 99.85 Q210.9 101.85 202.9 106.55 201.7 107.25 201.35 108.55 L201.2 109.45 Q198.85 111.55 196.95 114.55 L195.85 116.6 195.6 117.0 194.9 116.65 194.8 116.6 194.05 116.35 Q191.4 105.55 184.85 95.2 L185.2 93.2 Q185.2 92.5 184.6 92.1 L182.8 91.0 180.4 88.75 Q179.8 87.85 177.55 86.5 L174.7 84.95 174.7 84.0 174.65 83.1 174.85 83.2 174.9 83.1 174.9 82.9 174.85 83.0 174.6 82.6 174.25 82.0 173.75 81.7 Q172.25 80.25 169.4 78.3 L164.55 74.75 165.65 73.8 167.35 72.5 Q168.45 71.9 168.75 71.15 L168.9 69.8 169.05 66.45 169.0 65.95 169.1 65.25 169.1 64.7 169.35 64.65 169.95 64.1 170.2 57.55 Q170.2 54.35 169.65 48.4 169.5 46.0 169.0 43.85 L168.55 41.6 168.1 40.45 167.85 40.15 167.35 40.1 165.95 39.3 166.05 38.45 165.75 37.35 Q165.25 36.7 163.75 36.35 L161.9 35.85 Q160.3 34.55 155.25 35.05 151.25 35.45 149.45 36.15 148.45 36.0 147.1 36.7 144.85 37.8 144.85 38.8 L145.0 40.5 144.8 40.6 Q141.5 42.4 141.3 44.85 140.85 45.6 140.85 46.5 L140.65 53.95 Q140.65 58.95 141.45 64.1 L141.5 64.2 141.55 64.7 Q141.85 64.7 141.85 64.55 L141.85 64.5 142.45 64.9 142.6 66.25 142.65 68.15 142.9 70.1 Q142.9 70.75 144.0 71.7 L142.3 73.3 139.95 75.6 134.95 76.55 Q133.45 76.85 133.1 77.6 L133.1 77.65 133.05 77.65 131.95 77.75 129.55 77.6 Q127.45 78.5 124.1 78.5 L118.9 78.2 Q117.45 78.2 116.65 79.05 L116.1 79.95 108.6 80.95 107.2 80.95 103.9 80.75 102.75 80.35 Q102.2 80.0 101.45 79.85 L100.0 79.55 96.85 78.95 90.9 78.6 91.15 78.2 92.65 75.75 92.5 75.65 Q92.3 73.0 91.0 68.0 89.65 62.8 89.55 60.1 L89.1 52.25 88.85 50.2 88.6 48.25 88.55 46.25 88.2 44.7 Q88.25 43.6 90.05 42.65 91.3 42.05 94.15 40.75 L98.75 38.45 Q100.15 37.6 100.15 36.2 L100.15 35.4 99.4 34.75 Q98.65 34.35 98.15 34.5 L96.4 34.3 96.35 34.3 96.65 33.05 97.6 33.1 97.95 33.0 97.95 32.6 Q97.9 31.45 97.0 31.45 L98.5 24.7 99.55 19.75 100.45 16.7 100.9 16.7 Q101.8 16.7 101.8 16.15 101.8 15.6 101.35 15.2 L100.9 14.95 100.9 14.7 100.85 14.55 100.9 14.45 Q100.4 13.45 98.25 12.95 L94.75 12.2 92.05 12.35 91.8 13.55 Q91.5 13.7 91.5 14.2 L91.2 15.05 90.75 16.85 90.4 18.65 90.25 19.75 89.65 20.45 87.4 20.05 Q86.45 20.05 86.2 21.2 L85.75 23.45 Q85.35 24.6 85.3 26.95 85.0 27.05 84.75 27.3 L83.95 28.25 Q83.65 28.5 83.65 29.0 L83.3 29.55 82.6 29.6 Q81.8 30.2 81.8 31.25 L81.75 32.9 80.15 36.0 Q79.3 37.6 79.1 38.7 78.05 40.3 77.55 42.4 L76.65 47.65 Q75.35 53.8 74.95 57.95 L74.45 66.9 74.05 78.65 Q74.05 81.75 74.2 84.85 73.9 84.9 73.9 85.05 L73.9 85.25 73.95 85.3 74.25 85.4 74.4 85.35 75.35 85.5 75.3 86.25 Q75.3 88.0 76.15 89.0 77.1 90.15 79.25 90.9 81.85 93.05 86.55 95.6 88.3 96.5 89.5 96.9 L93.3 98.0 97.75 99.2 99.45 99.75 103.4 100.15 103.7 100.15 104.75 100.55 Q105.6 101.1 106.3 101.3 L109.9 102.25 Q111.25 102.55 112.95 103.45 L115.6 104.6 Q118.7 105.6 121.3 107.55 L120.9 111.35 Q120.3 120.75 120.3 126.4 120.3 128.95 120.85 130.45 121.45 131.95 123.25 134.45 L123.25 134.75 123.15 138.25 122.5 145.3 122.35 152.3 122.4 155.75 122.3 158.75 121.45 159.45 120.75 160.2 120.7 159.95 Q120.3 159.95 120.3 160.5 L120.55 165.5 120.6 166.35 120.3 166.3 120.4 166.9 120.0 167.35 119.8 167.6 117.8 167.3 117.0 166.25 112.9 160.6 108.3 153.5 Q104.9 148.55 102.75 146.45 L98.95 143.0 98.25 142.5 Q94.55 138.6 93.3 136.7 L91.25 133.2 Q90.75 130.8 88.15 125.65 L87.3 123.55 86.65 121.45 86.45 120.35 85.95 119.7 85.9 119.55 84.85 117.15 Q84.2 116.05 82.6 115.1 L82.35 115.0 81.75 114.6 79.6 113.6 Q77.7 112.2 75.65 111.45 L72.35 109.95 70.6 108.9 69.6 108.4 68.7 107.35 65.95 104.05 64.9 102.4 65.35 100.7 67.5 93.8 67.6 93.5 67.65 93.5 67.95 93.4 68.05 93.2 67.9 93.05 68.3 90.5 68.85 87.15 Q68.85 86.2 68.0 86.1 L67.9 86.1 Q67.9 84.0 67.5 82.45 L66.1 78.1 Q65.35 75.85 63.7 74.2 L62.15 73.25 Q61.05 72.65 60.7 72.55 L58.05 71.9 55.35 71.6 54.4 71.6 Q49.2 71.95 46.25 73.65 44.7 74.5 42.55 76.9 40.05 79.9 40.05 83.95 L40.05 86.45 Q38.95 87.05 38.95 87.75 L39.4 90.45 39.85 92.55 Q39.85 94.9 40.75 96.65 L41.4 98.7 41.8 100.7 41.9 101.35 38.05 105.55 35.5 108.55 34.85 109.4 Q33.8 109.3 31.55 110.1 L26.55 112.15 22.45 113.6 20.35 114.5 Q18.3 115.2 17.5 116.05 L14.85 118.85 Q13.6 120.1 13.1 121.25 11.8 122.7 9.15 126.4 L7.25 128.95 6.25 129.95 3.6 132.35 0.0 136.25 0.0 0.0 310.0 0.0 310.0 310.0 0.0 310.0 0.0 195.05 0.7 192.95 0.85 192.95 0.0 189.1 0.0 174.35 0.45 172.8 1.05 171.7 1.45 170.05 1.95 168.4 2.55 166.75 Q3.0 165.5 4.4 162.75 L5.7 160.2 Q5.7 159.65 4.8 159.05 L4.4 158.85 4.4 158.8 5.0 157.8 5.2 157.05 5.85 155.2 6.6 152.9 Q7.0 151.15 9.55 150.05 L11.85 148.55 13.15 147.45 13.95 147.95 17.95 144.5 21.8 141.85 24.0 143.45 Q25.05 148.6 25.65 150.45 L26.35 152.65 26.15 155.6 25.95 158.7 Q25.45 160.1 25.4 161.85 L25.35 167.9 25.35 168.8 25.15 168.9 25.15 168.95 24.9 171.8 24.6 175.4 Q24.6 176.15 24.8 176.3 L24.95 176.35 25.2 177.25 25.9 179.2 26.45 180.85 26.6 181.1 Q26.1 184.25 25.7 189.3 25.25 195.05 25.1 200.1 L25.0 205.95 25.5 213.85 25.7 215.95 26.15 216.95 26.45 220.45 Q26.7 222.1 28.0 226.85 28.25 227.85 29.2 229.95 L30.35 232.85 30.55 233.65 30.55 233.8 30.6 235.7 Q30.7 236.5 31.3 238.15 L31.6 239.3 Q31.8 239.95 32.35 240.4 L33.0 241.1 33.4 250.7 33.65 254.75 33.9 258.75 33.9 259.7 33.4 260.75 32.7 261.7 32.25 262.7 32.5 266.8 32.55 267.85 Q32.65 268.5 33.45 268.9 L34.05 269.35 34.75 276.35 Q34.8 278.3 35.2 280.7 L35.85 285.3 34.65 288.2 Q33.4 291.45 33.4 293.45 33.4 294.1 33.55 294.35 33.85 294.95 34.9 295.25 L37.45 296.0 41.7 296.35 Q42.6 296.75 43.8 296.85 L46.55 296.9 49.8 296.75 50.5 296.35 Q51.6 296.05 51.6 295.4 L51.85 293.1 51.3 290.55 50.5 288.35 50.4 288.15 50.4 287.8 50.2 280.85 49.95 271.7 Q49.95 271.25 50.4 270.5 L50.95 269.5 50.95 269.35 51.1 265.15 51.05 263.5 50.55 261.65 50.45 261.55 50.55 256.75 50.5 250.15 50.15 246.45 49.8 243.5 50.35 241.65 Q50.85 239.85 50.85 238.4 50.85 236.3 50.2 233.4 L49.4 230.65 49.65 225.7 Q50.2 224.2 50.5 223.75 L51.5 221.95 51.6 221.85 52.0 221.45 52.2 220.6 52.35 220.2 52.3 219.95 52.45 218.6 52.45 218.5 53.9 223.3 Q54.75 225.9 55.6 230.75 56.05 232.25 56.8 233.5 L56.8 234.35 Q56.8 236.3 57.15 237.55 L58.05 239.55 59.05 240.85 59.35 240.8 59.35 240.7 60.4 244.4 60.1 245.55 59.8 246.6 Q59.8 247.15 60.5 248.0 L61.45 249.5 61.9 252.5 62.25 255.55 62.5 258.5 61.75 262.35 Q61.0 265.6 61.0 266.9 61.0 267.8 61.15 268.05 61.45 268.65 62.65 269.15 L63.25 269.35 Q67.7 270.8 69.05 270.8 69.95 270.8 70.1 270.4 L70.75 268.7 71.25 267.6 71.65 266.45 Q73.3 262.75 73.3 261.75 L72.85 258.05 Q72.55 256.25 72.55 254.25 72.55 252.5 72.85 250.7 L73.5 248.95 74.1 246.9 73.55 244.85 73.0 243.2 73.8 239.6 74.2 238.1 75.15 235.5 75.25 232.7 Q75.25 228.05 73.75 220.55 L73.45 217.45 73.45 217.25 73.3 216.2 72.95 214.2 72.8 213.55 72.6 212.55 72.6 211.9 72.45 200.1 72.4 196.55 72.3 194.15 72.85 193.1 74.65 190.45 Q74.65 189.45 73.45 188.8 L72.1 188.1 72.1 182.95 72.1 182.0 72.0 181.4 72.25 181.25 73.9 181.0 73.65 174.95 73.65 173.9 73.8 172.5 73.2 168.1 72.55 164.05 72.55 163.55 72.5 163.2 72.35 161.75 72.3 161.15 72.45 157.45 74.5 149.45 77.25 143.0 77.65 142.6 78.3 143.15 78.95 144.05 Q79.5 144.7 79.9 144.7 L79.95 144.65 Q80.25 144.9 80.85 145.0 L82.15 145.4 82.45 146.05 Q83.0 146.9 84.4 148.0 L86.35 149.15 87.4 150.45 87.55 151.4 87.6 152.45 87.75 152.9 87.7 153.05 Q87.7 153.7 90.45 155.5 90.75 155.8 92.4 156.7 L94.45 157.85 97.75 160.1 100.9 162.2 103.7 164.35 106.6 166.7 109.05 169.45 Q110.8 171.35 111.5 171.5 L112.75 172.5 115.45 173.8 118.85 175.05 Q120.45 175.75 120.45 176.75 L119.85 179.1 119.95 179.65 Q120.15 179.9 121.15 180.2 L122.15 180.55 122.35 181.55 122.7 184.6 Q122.85 185.75 123.65 187.7 L124.8 190.85 127.8 200.1 128.8 203.15 Q129.6 205.65 130.2 209.2 L130.7 212.3 130.9 213.15 130.0 215.45 Q130.0 216.7 131.25 223.05 L132.75 230.0 Q133.8 232.85 134.25 237.25 L134.85 243.25 134.7 243.5 133.95 245.35 133.9 246.7 Q133.9 250.5 135.25 256.55 136.05 260.3 136.75 266.5 L137.1 269.35 137.4 271.5 138.1 276.35 138.85 281.35 139.05 283.85 139.05 285.05 139.05 285.1 139.0 285.7 139.3 287.55 139.75 289.4 139.9 292.15 Q139.6 293.4 139.6 295.0 L139.85 297.35 140.2 300.2 140.8 300.55 141.05 300.75 141.2 300.55 141.3 299.9 141.3 300.55 170.65 300.55 171.0 300.05 Q171.3 299.3 171.3 297.2 L170.95 294.4 Q170.6 292.55 169.8 291.5 L169.8 291.55 168.1 289.05 165.85 285.55 163.6 279.25 Q162.85 277.1 162.45 273.65 L163.4 273.9 166.8 274.3 172.7 273.65 Q172.9 273.55 172.9 272.75 L173.05 270.65 172.9 269.35 172.65 268.65 171.4 266.2 170.05 264.05 169.7 263.2 Q169.55 261.9 169.8 259.9 L170.25 256.3 170.95 249.2 172.45 234.8 Q172.45 234.0 172.05 233.35 L171.1 231.95 171.15 231.35 171.4 229.1 Q171.8 226.2 172.15 224.75 L174.1 215.9 Q174.1 215.05 173.35 213.5 L173.9 210.0 174.3 207.25 174.2 205.75 174.4 202.75 174.7 197.45 174.55 192.7 Q174.25 189.6 174.25 187.8 174.45 180.85 174.15 177.4 L173.75 172.1 Q173.45 169.05 172.6 166.9 L172.15 161.6 171.9 158.05 172.05 157.2 Q172.05 156.6 171.25 156.35 L169.9 155.9 169.75 152.15 Q169.7 151.35 169.95 150.0 L170.2 147.95 170.75 142.1 171.85 141.05 172.2 139.85 172.3 138.5 Q173.25 133.0 174.55 128.45 176.0 122.0 177.05 118.8 177.95 120.85 178.75 121.85 L182.2 125.25 182.05 125.9 181.9 127.2 181.95 127.55 182.0 127.55 181.9 128.55 Q181.9 130.5 182.95 132.25 L185.4 135.5 184.6 137.65 Q182.85 142.9 182.85 144.7 182.85 149.6 188.1 167.2 L191.7 178.5 191.9 179.1 187.45 180.15 Q183.9 181.0 183.9 181.95 183.9 182.95 186.35 187.85 L188.1 191.45 Q189.2 193.75 189.9 193.75 191.6 193.75 192.8 192.75 L194.35 191.15 Q196.25 189.55 196.45 188.65 L199.4 189.05 202.2 188.65 203.15 187.8 204.35 186.8 204.45 186.8 204.65 187.15 204.65 187.7 Q204.85 188.2 205.9 188.2 L206.45 187.6 206.75 186.6 206.8 185.6 206.95 184.8 206.8 184.1 206.8 184.05 207.8 183.6 Q207.6 185.4 206.8 187.5 205.75 190.3 205.75 191.5 L205.95 194.85 205.4 196.55 Q204.85 198.05 204.85 198.45 L205.35 200.75 205.25 202.85 Q205.15 204.2 205.2 205.45 L205.3 207.95 205.4 208.75 Q204.65 208.95 204.45 210.0 L204.35 210.5 204.2 214.4 Q204.2 218.0 203.85 220.35 L203.8 232.45 203.85 233.75 203.05 233.65 202.45 234.2 Q202.2 234.4 202.05 235.6 L201.85 238.4 201.75 244.05 202.05 248.3 Q202.25 251.05 202.05 252.6 201.9 253.8 202.25 256.75 L202.6 261.3 202.2 262.5 201.5 263.8 Q201.35 264.65 199.95 266.4 L198.2 269.35 Q197.5 270.2 197.5 271.55 197.5 273.4 197.65 275.05 L197.95 275.5 198.4 275.65 202.75 275.65 205.55 275.65 211.65 276.35 215.7 276.7 Q217.4 276.7 218.8 274.8 L219.95 272.7 221.45 270.65 222.1 269.35 222.25 268.4 222.35 268.3 222.4 266.9 222.4 260.45 222.85 253.95 Q224.1 243.8 224.1 240.7 L223.45 237.05 222.6 236.0 Q224.25 226.55 225.05 224.0 L228.7 211.7 Q228.7 210.95 228.05 210.2 L228.0 210.15 228.1 210.0 231.15 203.2 Q231.65 204.25 232.35 207.9 L232.75 210.2 232.9 211.4 233.1 211.9 231.65 212.7 Q232.5 213.95 232.75 215.85 L233.05 218.85 Q233.45 220.7 233.45 225.05 L233.45 231.2 233.4 234.25 233.45 235.1 232.4 236.1 Q232.05 236.55 232.0 237.45 L232.0 238.9 Q232.0 242.1 231.45 244.5 230.95 249.95 230.6 255.7 L229.6 266.9 Q229.35 267.85 229.25 269.35 229.15 270.7 229.2 272.5 L228.7 275.1 228.55 276.45 Q228.25 276.8 228.05 277.6 L227.65 279.95 Q227.35 281.7 225.9 284.25 L224.75 286.35 Q224.2 287.5 224.5 288.5 224.25 290.4 224.25 292.85 L224.35 294.05 224.45 294.05 224.35 294.5 224.45 294.95 224.75 294.85 224.6 295.3 225.65 295.45 247.2 295.35 248.65 295.3 248.65 294.8 249.55 291.2 249.7 287.65 249.2 281.5 250.55 272.6 250.95 269.35 251.1 267.95 251.45 263.3 251.9 258.65 252.45 253.95 252.8 249.4 253.1 246.95 253.35 244.7 Q253.35 243.8 252.25 241.7 253.35 236.7 254.1 228.4 L255.25 221.5 Q256.3 215.45 256.3 213.25 256.3 212.55 255.5 211.1 L255.6 210.0 255.65 206.35 255.5 202.15 Q255.3 201.15 255.65 200.0 L256.15 197.8 Q255.9 195.65 255.95 194.65 L256.3 191.45 256.7 184.85 256.15 181.3 255.45 178.15 Q254.75 175.95 254.6 174.95 L254.55 174.1 254.45 162.65 254.75 159.85 254.8 159.65 255.4 159.15 258.8 156.5 260.05 155.75 260.4 156.3 261.0 156.8 261.85 156.3 262.5 155.55 261.85 154.7 261.75 154.65 266.1 151.35 265.75 150.65 267.75 149.3 Q269.95 152.25 274.5 152.25 L274.75 151.3 274.75 151.2 274.85 151.3 275.3 152.0 275.85 151.7 276.35 151.7 Q278.7 151.7 280.95 148.95 283.1 146.25 283.8 142.5 283.9 141.9 284.9 141.85 L286.6 141.45 287.3 140.85 287.5 140.5 288.7 140.15 Q289.6 139.85 289.8 138.95 L290.15 137.6 Q291.5 136.0 291.5 135.1 291.45 134.1 291.8 133.7 292.2 133.25 292.2 132.45 L291.85 130.8 293.1 130.1 293.3 130.75 293.7 131.3 295.0 130.0 295.1 129.95 294.65 129.2 295.55 128.25 294.35 126.5 294.4 126.25 294.5 126.35 294.55 126.35 Q294.65 125.85 295.8 125.05 L297.65 123.7 299.4 122.35 299.6 122.25 Q298.85 120.8 298.15 120.2 L295.55 121.6 292.25 123.8 291.0 124.75 287.0 127.55 284.5 127.2 Q282.4 127.25 281.35 128.65 L279.95 131.25 278.6 133.95 277.3 135.7 277.05 135.9 276.8 135.95 276.55 135.9 275.4 131.75 Q275.05 130.1 274.35 129.3 273.65 128.9 272.9 129.05 L271.9 124.95 270.75 120.9 269.25 116.6 268.0 113.15 268.9 109.75 268.15 108.55 Q267.35 107.65 266.35 107.05 L262.5 104.25 258.3 101.65 256.45 100.25 256.1 100.0 255.9 99.2 Q255.15 97.55 252.0 96.8 249.3 96.45 245.7 94.35 L242.85 92.75 243.1 91.1 243.75 87.1 244.1 87.1 Q245.6 87.1 245.7 85.9 245.6 84.05 245.8 82.8 L246.05 78.05 246.05 77.85 247.2 77.85 Q247.75 77.85 247.8 76.85 L247.8 75.6 Q247.8 72.65 246.45 69.3" fill="#ebaf25" fill-rule="evenodd" stroke="none"/>
  </g>
</svg>
