<?xml version="1.0" encoding="UTF-8" standalone="no"?>
<svg xmlns:xlink="http://www.w3.org/1999/xlink" height="144.05px" width="830.7px" xmlns="http://www.w3.org/2000/svg">
  <g transform="matrix(1.0, 0.0, 0.0, 1.0, 0.0, 0.0)">
    <path d="M830.45 7.1 L828.75 10.0 827.0 12.75 826.8 13.1 828.0 14.0 829.05 14.95 829.15 15.25 829.35 15.5 828.4 16.3 Q826.05 17.5 822.95 19.45 L818.05 22.4 811.8 25.85 809.8 26.7 809.25 26.85 809.1 26.9 801.95 28.85 795.0 30.6 788.5 32.35 784.25 33.45 773.75 38.6 763.45 43.1 758.75 45.05 Q753.15 47.6 744.9 50.6 L728.1 56.9 724.05 58.4 720.9 59.3 720.85 59.35 721.05 59.35 720.65 59.5 720.15 59.75 Q719.7 59.95 719.2 60.25 L716.3 61.9 711.1 65.1 Q710.75 65.3 710.25 65.65 L710.2 65.65 Q709.75 66.25 710.0 66.8 L710.1 66.85 710.2 67.0 713.9 66.65 717.55 66.4 720.5 66.4 720.7 66.55 724.95 66.9 729.0 67.55 731.75 68.05 737.0 69.1 737.3 69.25 741.15 69.5 Q742.9 69.75 743.6 70.3 L744.3 71.0 747.6 71.55 750.6 71.9 Q756.35 69.6 763.7 68.45 L777.85 67.75 Q784.1 68.35 784.35 70.55 784.55 71.5 783.5 72.6 L784.3 72.8 786.2 73.35 Q787.2 73.6 787.6 73.9 L788.45 74.6 Q789.15 75.2 792.6 76.0 L796.55 76.85 Q798.5 77.3 800.3 78.05 L801.85 78.75 801.95 78.7 802.3 78.95 803.05 79.6 802.9 79.7 Q803.65 81.55 798.65 84.6 L797.2 85.75 799.65 85.05 799.65 85.1 799.35 85.3 796.25 86.5 Q794.1 88.4 792.45 90.7 L791.65 90.8 Q791.3 89.55 793.2 87.8 L793.65 87.5 790.5 88.95 782.55 92.85 775.05 96.7 Q768.7 100.05 759.1 104.4 L741.9 112.15 725.6 119.85 Q713.2 125.55 701.15 129.6 685.9 134.75 679.85 136.4 671.25 138.7 665.2 138.7 L658.8 138.55 644.15 138.4 636.8 138.1 628.65 137.45 621.5 136.05 609.7 135.3 599.0 135.6 590.7 135.95 580.35 135.3 569.65 134.7 559.45 135.15 553.6 135.75 538.55 136.65 538.0 136.6 534.7 136.95 532.7 137.1 518.0 137.25 510.15 137.2 500.6 138.4 492.4 139.8 485.75 140.4 Q478.95 140.4 483.65 137.0 L482.6 137.4 481.45 137.7 481.25 137.6 484.1 136.55 478.0 136.5 Q465.15 136.5 442.7 137.1 420.35 137.7 407.7 137.7 397.05 137.7 392.3 137.4 L387.45 137.1 376.0 136.55 Q375.15 136.35 376.5 135.75 L379.9 134.5 378.85 134.5 371.65 134.35 368.1 134.35 363.95 135.4 359.55 136.1 355.35 136.3 349.0 137.1 345.3 137.4 Q343.25 137.4 344.5 136.35 L346.3 135.3 348.5 134.75 346.45 134.35 Q345.75 134.0 346.7 133.5 L345.05 134.1 344.0 134.1 344.4 133.9 345.15 133.65 345.85 133.45 345.95 133.35 346.3 133.1 346.65 132.95 346.45 132.95 346.6 132.8 340.6 132.25 340.2 132.25 337.35 133.4 337.05 133.45 338.7 132.5 338.35 132.6 336.55 132.95 336.05 132.85 336.3 132.7 323.25 134.95 306.55 136.05 293.2 135.75 274.55 135.5 263.35 135.65 250.0 135.85 236.45 135.35 233.55 134.55 228.05 133.25 227.45 133.5 227.75 133.25 227.9 133.2 223.3 132.6 220.05 133.25 214.9 133.95 212.3 133.7 206.5 133.55 203.85 133.2 199.55 132.9 195.45 132.9 192.6 133.95 192.55 133.95 Q192.8 133.6 194.55 132.8 L194.35 132.55 Q194.3 132.45 195.25 132.05 L197.3 131.3 197.5 131.25 198.3 130.85 Q199.4 130.3 200.75 130.1 L200.9 130.05 201.5 129.8 204.5 128.65 209.95 126.25 Q216.5 123.4 220.2 121.55 221.85 120.75 225.9 119.2 L232.0 116.85 234.75 115.7 237.75 114.5 244.0 112.05 244.25 112.0 248.95 109.95 255.35 107.3 256.25 106.8 257.1 106.3 Q258.4 105.7 260.8 105.0 L263.6 104.1 264.6 103.3 Q265.15 102.7 265.6 102.5 L271.55 100.2 278.7 97.35 282.5 95.9 287.2 94.2 292.2 92.65 297.55 91.05 299.7 90.3 Q301.15 89.75 302.15 89.45 L305.05 88.75 308.1 87.95 Q311.15 86.8 313.75 86.3 L315.4 86.1 317.2 85.8 319.25 85.4 320.4 85.1 323.7 84.4 327.0 83.75 334.3 82.45 337.7 81.95 341.0 80.3 343.4 79.6 347.4 79.1 349.55 78.85 350.05 78.8 350.95 78.7 352.1 78.65 Q354.3 78.65 354.35 79.1 L354.3 79.2 354.5 79.1 356.9 78.15 357.45 77.85 360.55 77.25 362.9 76.9 363.65 76.8 367.75 76.1 368.95 75.9 372.1 75.4 373.65 75.2 375.8 74.3 Q380.95 71.95 383.4 69.35 L388.85 63.85 389.2 63.7 389.8 63.1 389.7 63.1 390.05 62.9 390.35 62.65 390.45 62.55 Q392.45 60.9 395.5 59.0 L395.3 59.0 394.8 58.9 394.75 58.85 394.25 58.75 393.45 58.45 Q392.75 58.4 393.1 58.1 L393.45 57.95 393.75 57.7 394.75 57.0 395.8 56.35 396.85 55.75 399.0 55.0 400.25 54.7 400.75 54.45 408.05 51.2 411.25 49.9 Q413.65 48.95 418.6 47.3 422.2 46.1 428.25 44.7 L434.3 43.4 437.55 42.85 439.35 42.35 441.25 41.85 446.5 41.2 448.15 41.05 449.75 40.9 453.45 40.75 455.2 40.7 456.25 40.75 458.25 40.85 458.6 41.65 462.45 41.9 463.5 42.0 464.8 42.3 Q466.7 42.6 466.9 43.3 L467.4 43.8 467.7 44.45 Q467.4 45.9 466.5 47.0 L464.85 48.3 463.7 49.3 463.8 49.3 463.3 49.65 462.9 49.75 462.7 49.85 462.7 49.9 462.75 49.9 463.4 50.2 463.5 50.25 463.5 50.3 463.45 50.4 463.3 50.4 462.35 51.0 461.0 51.7 459.95 52.4 458.45 53.2 457.0 53.8 456.0 54.1 454.7 54.35 450.7 55.2 444.65 58.05 444.0 58.35 443.15 58.8 442.7 59.0 Q434.3 62.85 425.9 65.7 421.35 67.8 419.2 69.2 L417.05 71.05 420.7 71.55 423.45 71.9 425.9 72.2 Q426.7 72.25 426.65 72.4 L426.15 72.75 425.5 73.35 425.35 73.55 427.0 73.65 Q428.25 73.1 431.15 72.7 L436.85 72.45 Q439.25 72.6 439.25 73.1 L438.6 73.65 437.85 74.05 449.75 74.8 Q452.15 75.25 452.6 75.75 454.2 77.6 451.4 81.45 L449.0 84.4 Q447.8 86.2 448.45 87.2 448.8 87.75 447.65 88.65 L446.0 90.1 Q445.25 92.15 444.0 92.9 435.0 98.55 422.95 104.5 420.95 105.5 418.2 107.35 L413.7 110.3 407.9 113.15 405.7 114.4 Q403.75 115.5 398.05 119.3 L395.7 120.95 399.85 119.55 406.05 117.0 Q408.5 116.05 413.9 114.5 L422.1 112.05 428.05 109.5 431.4 108.25 432.4 107.85 433.7 107.2 434.45 106.75 437.35 104.85 442.4 101.05 Q444.95 99.3 449.2 97.35 L453.8 95.15 456.85 93.6 459.6 92.4 Q461.2 91.8 464.45 90.95 L467.25 90.3 470.85 89.85 473.95 89.6 Q474.15 89.6 474.5 89.95 L475.0 90.15 475.3 90.5 Q476.35 92.4 472.65 95.9 470.2 98.2 465.65 101.35 L457.5 106.65 457.15 107.0 455.7 108.2 454.9 108.85 460.9 107.2 468.55 105.75 471.7 105.05 474.85 104.2 481.35 102.75 488.2 101.35 492.45 100.2 496.8 97.9 Q500.9 96.05 506.1 94.7 510.8 93.45 520.5 91.55 535.0 88.7 540.9 90.3 542.45 90.7 543.15 91.3 L552.0 89.85 556.35 89.1 556.65 89.0 Q559.1 88.15 560.8 87.85 L563.0 87.35 568.25 86.2 573.3 85.05 583.05 82.8 593.55 80.35 595.55 79.95 596.95 80.2 599.35 80.6 600.95 80.85 604.35 80.1 605.4 79.55 Q607.5 78.6 607.9 78.2 608.35 77.75 609.95 76.9 L612.5 75.5 614.0 74.55 614.4 74.55 616.55 73.25 Q622.3 69.6 628.55 64.25 628.95 63.4 629.95 62.6 L630.0 62.55 628.8 60.6 Q627.95 59.75 629.55 58.45 631.65 57.1 632.35 56.35 L635.05 54.25 638.05 52.15 637.75 52.25 Q634.35 51.45 637.3 49.65 L643.25 46.55 Q647.75 43.85 650.65 42.3 L650.4 42.3 Q650.05 42.3 647.4 37.75 L647.2 37.75 647.35 37.65 647.2 37.5 647.55 37.45 Q647.3 37.0 648.5 36.3 L651.25 34.85 Q654.5 33.0 656.45 32.15 L661.05 29.6 Q665.45 27.2 666.9 26.55 L667.7 26.25 667.75 26.2 674.5 24.3 679.5 23.05 701.2 15.25 717.2 9.85 Q724.2 7.6 730.75 5.85 732.3 5.2 738.15 3.9 L738.65 3.85 739.65 3.25 Q741.75 2.3 743.95 1.95 746.25 1.55 746.0 2.35 L745.95 2.4 750.45 1.65 755.15 1.2 764.75 0.85 769.7 0.5 778.5 0.85 Q783.3 -0.25 784.25 0.1 784.95 0.4 782.65 1.2 L782.7 1.2 791.0 2.2 808.55 2.7 824.5 3.0 Q827.95 3.0 829.45 3.75 830.4 4.2 830.7 5.05 L830.2 5.2 830.1 5.25 830.0 5.3 Q830.75 5.95 830.45 7.1 M710.95 67.45 L710.9 67.45 710.95 67.5 710.95 67.45 M711.6 67.95 L711.8 67.95 712.0 67.9 711.55 67.9 711.6 67.95 M483.6 138.2 Q482.1 139.95 485.05 139.95 L491.55 139.6 499.05 138.35 504.15 137.55 506.65 137.2 497.05 136.9 484.9 136.55 483.6 138.2 M528.8 136.4 Q523.15 136.4 517.9 136.65 L533.0 136.7 536.4 136.55 528.8 136.4 M423.05 16.1 L425.65 16.45 426.55 16.25 428.9 15.9 431.65 15.85 432.95 16.1 435.55 16.7 436.2 17.45 Q438.45 18.65 438.6 19.0 438.8 19.7 436.5 20.75 L436.0 20.95 436.4 21.5 Q435.5 26.4 426.7 30.45 421.25 32.95 410.7 36.2 L401.5 39.1 400.5 39.9 400.05 40.0 386.45 43.9 373.4 47.7 368.45 49.05 367.1 49.1 354.45 49.85 352.2 50.4 341.45 53.15 330.65 55.65 324.3 57.05 317.7 58.4 309.75 59.75 304.8 60.55 303.5 60.7 302.1 60.85 302.3 60.7 301.65 60.8 296.75 61.25 295.0 61.25 294.0 61.3 288.8 61.9 279.85 63.3 271.85 64.75 271.6 64.85 Q271.45 64.9 271.25 65.05 L270.2 65.65 267.1 66.85 264.9 67.6 261.85 68.75 Q259.4 69.9 259.05 71.05 L258.85 71.65 263.2 71.35 Q268.25 72.9 261.3 76.1 259.2 77.05 255.15 78.45 256.2 79.4 254.35 80.65 L249.95 83.1 Q245.2 85.6 240.45 87.75 L232.1 91.25 Q226.7 93.4 221.5 95.8 L205.75 103.25 200.95 105.65 199.1 106.4 199.15 106.35 184.55 111.7 Q173.85 115.15 168.8 117.5 166.1 118.7 161.55 121.05 L157.9 122.75 154.1 124.45 Q152.65 125.1 151.4 126.15 L149.15 127.85 Q147.15 129.15 143.45 130.9 L143.75 130.85 Q144.8 130.85 142.3 131.85 140.15 132.85 139.85 133.2 139.55 133.5 137.55 134.4 L133.8 135.85 127.8 137.35 122.25 138.85 115.45 140.3 111.05 141.05 106.9 141.85 103.05 142.5 99.2 142.95 71.45 143.85 59.15 143.55 Q50.1 143.25 40.65 143.25 29.8 143.25 18.65 143.7 L7.0 144.05 Q-0.95 144.05 0.15 142.7 0.5 142.25 2.0 141.55 L4.05 140.6 8.25 138.65 Q11.0 137.4 11.9 136.65 13.5 135.4 12.75 134.6 L11.65 133.65 Q11.05 133.0 11.05 132.6 11.05 131.2 16.55 128.7 21.25 126.55 33.75 121.95 46.25 117.35 50.55 115.35 54.95 113.35 54.3 112.0 53.7 110.7 56.2 109.55 62.25 106.8 81.05 102.15 L94.0 98.9 Q100.05 97.35 101.65 96.65 104.6 95.25 101.3 94.3 L100.55 94.05 99.7 94.35 93.05 96.7 85.5 99.0 99.4 94.0 99.7 93.9 91.8 93.05 Q91.65 93.05 92.25 92.8 L93.25 92.55 94.55 92.4 93.6 92.7 100.9 93.45 Q106.05 91.5 110.4 89.55 L117.35 86.2 Q121.2 84.25 123.9 83.0 L131.45 79.7 129.65 79.75 Q123.15 79.75 127.25 76.65 128.5 75.65 130.65 74.45 132.0 73.75 132.95 73.35 L133.3 73.15 133.5 73.1 133.85 73.1 Q128.55 75.9 127.55 77.55 126.6 79.25 130.55 79.25 L132.8 79.1 Q139.3 76.4 147.35 73.3 L173.65 63.6 Q179.05 61.6 187.45 58.75 L201.45 53.9 207.85 51.65 209.55 50.8 212.25 49.35 211.3 49.5 211.25 49.5 212.6 49.2 218.4 46.25 223.15 44.25 Q226.7 42.8 224.5 44.3 L217.45 47.95 216.55 48.4 218.4 48.05 224.25 46.05 Q229.55 44.25 231.15 44.45 228.65 44.9 226.35 45.65 L222.8 46.9 220.35 47.75 231.65 46.3 237.2 45.75 237.75 45.75 244.5 44.1 Q251.15 42.75 256.2 42.6 261.45 42.3 263.1 43.55 264.55 44.7 262.35 46.15 L261.85 46.5 262.55 46.55 265.25 47.1 267.8 47.1 273.1 47.2 273.5 47.4 274.2 47.5 277.3 47.4 278.55 47.25 278.85 47.25 281.4 47.0 285.1 46.65 288.2 46.15 290.95 45.6 296.45 44.4 301.9 42.95 311.95 40.3 321.45 37.6 322.4 36.9 324.25 35.9 325.45 35.35 325.65 35.3 328.5 33.95 Q331.65 32.3 338.15 31.0 L339.65 30.65 341.4 29.75 342.7 29.0 342.75 28.9 347.0 27.9 361.8 24.05 373.95 20.75 376.55 20.05 381.1 19.8 382.6 19.4 390.35 17.9 399.5 16.4 414.45 15.25 418.4 15.4 420.6 15.8 423.05 16.1 M438.9 42.65 L438.85 42.65 438.65 42.7 438.9 42.65 M437.4 73.95 L437.15 74.05 437.2 74.05 437.4 73.95 M341.95 130.9 L346.5 129.05 348.7 128.0 350.2 127.25 356.15 124.75 Q362.8 121.7 365.85 119.9 368.75 118.25 373.8 114.65 L375.6 113.4 376.7 112.15 377.65 111.55 379.2 110.85 381.3 109.6 Q383.15 108.75 385.1 107.2 L388.35 104.7 Q381.1 107.3 377.35 109.05 L366.95 114.5 358.8 117.75 351.75 120.55 Q351.05 120.9 348.1 123.35 L347.2 124.0 346.45 124.7 346.65 125.05 346.85 125.35 345.95 126.0 Q344.4 126.8 342.75 128.7 L340.1 130.85 Q340.95 130.95 337.6 132.5 L339.85 131.9 Q340.95 131.35 341.95 130.9 M351.65 134.2 L350.5 133.95 349.45 133.35 348.85 133.15 348.35 133.35 Q346.3 134.3 350.05 134.3 L351.65 134.2 M205.7 52.8 L201.8 54.15 188.15 58.9 174.55 63.7 Q155.15 70.8 148.5 73.35 L134.45 78.9 144.35 76.65 155.45 73.35 Q163.4 70.85 173.0 67.1 L187.7 61.05 202.25 54.6 205.7 52.8 M216.65 48.7 L215.6 48.85 214.15 49.55 215.7 49.0 216.65 48.7 M214.8 48.75 L216.95 47.65 219.5 46.25 214.5 48.8 214.8 48.75 M196.9 132.3 L197.0 132.3 197.1 132.2 196.9 132.3 M253.6 119.65 L252.05 120.15 250.7 120.6 248.65 121.5 246.75 122.4 Q244.95 123.2 242.95 124.25 L238.5 126.05 233.15 128.85 230.4 129.8 228.3 130.4 Q227.95 130.55 227.4 131.0 L227.35 131.1 227.1 131.45 226.35 132.1 226.2 132.1 226.55 132.15 229.3 131.6 231.65 131.1 Q231.95 130.9 232.15 130.8 L236.1 129.3 239.55 128.0 243.35 126.35 246.1 125.2 261.9 117.75 267.8 115.25 271.85 113.65 Q274.85 112.15 276.5 111.4 L276.35 111.4 266.55 115.1 Q259.3 117.65 256.65 118.75 L255.1 119.2 253.6 119.65 M227.55 132.35 L228.95 132.6 230.4 131.8 228.05 132.3 227.55 132.35" fill="#000000" fill-opacity="0.101960786" fill-rule="evenodd" stroke="none"/>
  </g>
</svg>
