<?xml version="1.0" encoding="UTF-8" standalone="no"?>
<svg xmlns:xlink="http://www.w3.org/1999/xlink" height="32.4px" width="42.75px" xmlns="http://www.w3.org/2000/svg">
  <g transform="matrix(1.0, 0.0, 0.0, 1.0, -25.75, -95.1)">
    <path d="M25.75 96.7 Q25.75 93.6 29.4 96.5 33.0 99.45 33.0 102.3 33.0 104.4 30.9 104.4 29.8 104.4 28.6 102.55 27.7 101.15 27.6 100.5 27.45 99.8 26.55 98.6 25.75 97.45 25.75 96.7 M68.5 123.7 Q68.5 125.25 67.1 125.25 65.05 125.25 61.45 122.55 58.4 120.25 57.1 118.5 55.9 116.85 55.15 115.05 54.25 112.95 54.25 111.4 54.25 107.2 56.8 108.65 L63.0 114.0 65.95 118.3 Q68.5 122.3 68.5 123.7 M50.6 123.55 Q51.75 125.3 51.75 126.15 51.75 127.5 49.75 127.5 47.3 127.5 45.0 123.65 L43.25 119.8 Q43.25 119.1 43.85 118.55 L46.0 118.5 Q47.7 119.0 48.85 120.9 L50.6 123.55" fill="#000000" fill-opacity="0.4509804" fill-rule="evenodd" stroke="none"/>
  </g>
</svg>
