<?xml version="1.0" encoding="UTF-8" standalone="no"?>
<svg xmlns:xlink="http://www.w3.org/1999/xlink" height="319.5px" width="363.8px" xmlns="http://www.w3.org/2000/svg">
  <g transform="matrix(1.0, 0.0, 0.0, 1.0, 0.0, 0.0)">
    <path d="M327.95 159.7 L329.9 162.35 331.95 164.8 Q333.55 166.45 333.75 167.35 L334.35 169.85 Q334.7 171.15 335.55 172.45 L338.0 175.0 Q339.9 176.7 340.4 177.5 341.55 179.45 342.45 182.5 L344.0 187.6 345.85 192.55 347.55 197.6 Q348.2 199.7 349.8 202.55 L352.9 207.7 354.45 210.1 355.9 212.75 Q356.2 213.55 357.25 215.2 L358.75 217.85 360.9 223.45 362.3 227.95 362.55 233.0 Q362.55 233.5 363.55 235.45 L363.8 237.75 Q363.8 242.85 360.1 250.5 357.95 254.8 353.05 262.6 349.4 268.55 348.55 275.0 348.25 277.5 346.6 281.0 L345.25 283.65 345.3 284.0 343.3 287.5 Q341.1 291.25 340.25 293.5 L338.55 297.2 338.9 297.6 336.65 301.4 336.25 302.85 335.75 303.1 335.7 303.0 335.2 303.75 Q332.9 307.5 330.5 309.85 L327.65 312.95 Q325.6 314.8 321.65 315.85 L317.0 317.0 310.25 317.75 Q306.95 317.75 301.95 316.15 297.25 314.65 295.15 313.2 293.65 312.15 292.4 310.65 290.95 309.0 290.65 307.75 287.7 310.5 280.1 313.05 273.3 315.25 268.65 315.6 L259.35 317.55 Q247.65 319.5 232.15 319.5 L200.45 317.6 Q184.65 316.0 171.9 313.85 170.05 313.55 167.05 312.3 L163.65 310.7 Q162.1 309.9 160.5 308.65 158.7 307.25 158.4 306.6 158.0 305.75 157.5 302.7 L157.25 302.95 157.05 299.65 157.05 299.2 157.05 299.05 157.05 298.95 157.05 298.85 157.05 298.75 157.05 298.6 157.0 298.4 156.05 292.05 155.85 290.85 153.65 290.0 149.9 288.6 146.15 288.45 143.4 287.85 141.25 287.2 138.15 287.1 Q136.6 287.15 134.8 286.1 L131.55 284.35 129.0 282.85 127.05 281.6 124.5 280.45 121.55 279.8 118.75 279.25 115.8 277.8 Q113.6 276.55 112.25 276.35 109.45 275.95 108.9 275.1 L108.5 273.45 Q108.15 272.6 106.95 272.05 L105.65 271.5 105.3 272.5 Q104.9 273.75 104.35 273.75 103.65 273.75 102.05 272.7 L100.3 271.6 Q100.1 271.6 99.6 272.3 L99.15 273.1 Q97.8 272.85 97.5 270.55 97.2 268.6 97.65 267.2 97.1 267.55 96.45 268.75 L95.4 270.75 94.4 270.75 94.15 266.6 Q94.4 266.35 93.75 266.35 92.85 266.35 92.0 267.0 L90.9 267.85 Q90.4 267.2 90.4 266.65 90.4 265.75 91.4 260.8 L91.75 259.15 Q91.35 259.05 90.95 258.6 L90.5 257.95 89.45 256.7 87.55 254.3 85.5 251.85 84.05 250.7 82.7 249.4 82.7 249.35 81.9 248.7 80.45 247.4 77.2 244.8 69.55 239.75 67.7 238.7 Q66.65 238.15 64.95 237.75 L60.85 236.95 57.6 236.45 52.2 235.25 48.45 234.4 43.95 233.85 43.95 233.75 39.2 233.15 34.7 232.75 24.25 232.55 22.35 232.3 20.95 232.0 20.2 231.75 19.4 231.5 17.25 231.25 14.8 230.8 12.5 229.9 11.05 229.05 10.2 228.7 9.5 228.45 Q7.05 227.6 5.9 227.45 L2.65 226.95 2.05 226.7 1.3 226.35 0.55 225.85 0.05 225.0 0.0 224.45 Q0.0 223.55 1.15 222.15 2.75 220.2 5.15 220.8 L6.5 221.1 7.15 220.25 Q8.6 218.55 11.25 218.65 12.65 218.4 14.6 219.8 L15.25 220.25 15.4 220.2 16.15 220.0 16.95 220.15 18.3 219.95 19.7 220.2 22.05 220.45 28.25 219.45 30.05 219.1 31.15 218.55 30.7 217.7 Q30.45 217.25 30.45 215.95 30.45 214.45 31.15 213.45 32.35 211.8 35.25 211.8 L44.65 211.45 46.8 210.8 47.8 210.45 49.0 210.35 50.0 210.3 50.0 210.15 54.5 210.45 58.4 211.35 Q62.15 211.8 63.95 213.0 L66.65 215.45 68.8 217.4 Q70.05 218.35 72.4 219.35 L78.35 222.55 84.9 226.35 90.65 229.55 Q93.75 231.25 97.05 232.45 L97.15 232.25 Q98.25 230.55 101.65 232.05 103.4 232.8 105.65 234.2 108.95 235.1 111.4 236.1 112.3 236.5 112.45 237.45 L112.7 238.2 Q112.95 238.05 113.3 238.2 L115.9 239.1 121.9 240.7 122.55 240.2 122.9 239.5 123.75 239.5 123.95 239.75 124.2 239.85 Q124.65 240.25 125.15 240.45 L126.9 240.45 Q126.4 239.25 126.4 238.65 126.4 237.8 127.05 237.1 127.95 236.0 129.9 236.0 L132.25 236.15 132.65 236.75 Q133.35 236.6 133.7 235.9 134.0 235.35 134.65 235.35 135.65 235.35 136.8 236.3 L137.9 237.35 137.9 237.0 136.9 235.15 Q135.9 233.5 135.9 231.9 135.9 230.35 136.1 230.05 136.65 229.45 138.6 230.8 138.3 230.05 138.3 229.4 L139.05 224.25 138.35 221.3 137.5 218.6 136.6 215.55 136.55 213.25 Q136.55 210.8 137.05 209.1 L138.3 203.95 Q138.75 201.25 138.65 194.75 138.55 191.0 140.35 185.4 L143.3 176.35 Q143.75 174.65 145.15 171.7 L145.75 170.55 144.65 168.35 144.7 168.35 143.8 166.35 Q143.8 165.8 145.5 162.6 147.25 159.35 148.15 158.2 L150.8 154.25 Q151.5 153.15 153.2 152.5 154.8 151.9 156.9 152.0 157.5 151.3 158.15 151.85 159.25 150.5 160.9 149.45 L164.25 147.2 Q164.35 146.05 165.65 141.55 L167.15 136.5 168.4 131.1 Q168.95 129.1 169.9 128.4 171.1 127.4 174.05 127.2 L174.05 127.0 174.45 126.5 170.95 118.45 170.4 118.6 169.3 118.6 169.2 118.45 168.55 118.45 165.15 118.75 160.8 120.45 159.15 121.15 158.9 121.1 157.4 121.85 Q153.95 121.85 150.2 120.2 148.65 119.5 146.8 118.35 146.05 117.75 145.5 115.9 L145.4 115.5 145.15 115.45 144.4 112.25 143.65 108.45 143.8 108.35 143.15 107.5 140.9 105.35 139.35 104.75 137.8 103.75 Q137.05 102.75 137.05 101.5 137.05 100.4 134.9 99.5 132.65 98.55 132.4 97.6 132.15 96.7 132.25 95.1 L132.4 93.25 132.05 92.25 131.8 91.65 130.65 92.1 Q124.05 92.1 124.05 85.6 124.05 83.35 125.2 81.7 126.3 80.05 126.3 78.35 L126.2 77.8 123.15 74.85 120.85 73.5 Q119.35 72.7 119.05 71.75 118.8 71.0 118.3 67.8 L117.8 64.25 117.9 62.15 Q118.15 61.15 119.4 59.8 118.85 58.95 118.55 57.45 L118.5 57.45 116.05 57.1 109.3 56.6 107.45 56.4 107.4 56.45 106.9 56.6 Q106.15 56.6 105.85 55.85 L105.85 55.8 105.65 55.6 Q105.55 55.9 105.55 55.25 L105.65 55.05 105.65 55.0 Q105.65 52.4 109.0 47.5 112.3 42.65 114.9 41.4 114.95 39.95 115.6 37.65 L116.1 37.75 115.75 36.5 Q115.5 35.6 115.5 32.9 L115.7 30.15 116.5 26.2 117.2 22.95 Q117.55 21.85 118.0 21.2 L117.9 20.75 Q117.9 20.15 118.65 19.6 119.35 19.0 120.15 19.0 L121.35 19.3 122.55 19.6 Q123.2 19.6 124.2 18.05 124.95 16.9 125.65 16.5 L127.3 14.05 Q129.8 10.7 132.65 8.5 138.2 4.3 140.4 3.6 L145.2 1.8 Q149.4 0.65 157.9 0.0 168.75 -0.2 176.3 1.65 184.65 3.65 190.65 8.5 193.7 11.65 196.0 14.85 198.8 18.65 199.55 21.35 L201.7 28.05 Q203.0 32.0 203.55 34.7 L204.7 40.75 205.7 46.6 206.55 47.95 207.65 54.1 208.25 58.15 208.65 62.2 208.65 64.3 207.85 64.6 207.7 64.6 205.0 66.3 204.85 66.4 204.6 68.35 203.4 72.75 Q202.4 76.85 201.5 78.95 L203.9 83.55 Q205.7 86.65 208.15 88.85 L212.6 91.9 Q221.65 89.05 232.2 91.2 L236.8 92.3 Q236.9 91.7 237.15 91.35 L240.0 90.95 243.25 90.85 249.65 90.6 Q255.45 91.05 257.0 91.65 258.05 92.1 258.05 93.25 L258.05 93.8 258.95 93.55 260.0 93.1 263.4 92.6 Q266.25 92.45 267.15 93.2 L272.95 95.05 277.65 96.35 Q280.5 97.5 283.45 99.9 287.25 103.05 289.4 104.35 295.75 108.25 298.65 113.95 L301.45 118.5 304.4 123.35 307.25 128.2 309.8 132.85 312.3 137.45 Q314.1 140.55 314.75 142.25 315.05 143.05 316.25 144.55 L318.3 147.1 321.5 151.85 322.95 154.1 Q324.0 155.75 324.75 156.5 L326.4 158.35 Q327.15 158.6 327.95 159.7 M256.9 95.2 L256.8 94.65 256.15 94.9 Q253.3 96.05 249.65 99.0 246.55 101.55 245.15 104.35 240.9 112.3 239.8 115.6 238.35 120.1 236.7 126.9 L234.0 138.1 Q231.85 146.8 230.0 160.6 L228.6 172.0 Q228.1 177.3 228.05 182.05 229.3 180.4 232.5 176.65 235.75 172.7 236.0 170.2 236.1 168.95 237.55 163.95 L237.7 163.4 Q237.4 162.95 237.4 162.5 237.4 161.9 238.85 158.15 L238.9 157.35 239.0 156.85 239.45 156.7 240.75 153.25 Q241.4 150.75 243.7 148.4 245.65 146.35 245.65 144.25 245.65 141.0 244.65 139.0 L244.65 136.95 244.9 136.8 Q245.15 136.6 245.5 136.6 246.25 136.6 247.35 138.65 L249.15 142.0 Q249.75 142.9 251.6 144.65 L254.15 147.1 Q251.05 142.5 249.45 136.7 248.0 131.45 248.0 126.15 248.0 120.9 249.25 116.25 251.0 109.9 254.65 106.95 255.25 107.3 255.25 107.85 L254.75 111.05 Q254.25 114.45 254.25 116.85 254.25 122.95 255.4 127.75 256.15 130.95 258.9 139.85 L258.65 136.45 Q258.65 133.5 259.3 129.85 259.9 126.2 259.9 123.35 259.9 120.05 259.5 118.35 259.0 116.25 259.0 113.5 259.0 109.5 259.75 106.35 260.2 104.6 261.7 102.2 263.25 99.7 264.0 99.7 L264.65 99.85 264.75 100.95 Q264.75 103.25 263.75 108.25 L263.8 108.35 Q264.95 104.35 268.65 100.15 271.5 96.9 273.6 96.2 L273.25 96.1 270.0 95.25 266.55 94.35 Q265.55 93.75 264.9 93.75 L261.25 94.05 258.65 94.95 256.9 95.2 M232.8 111.35 L235.0 101.35 235.55 98.9 230.3 104.2 219.9 113.35 214.6 117.85 Q211.25 120.55 207.9 122.5 L207.75 122.6 207.35 123.15 Q206.2 124.8 204.2 128.45 L202.3 132.05 Q200.25 136.05 198.5 140.95 L196.8 145.35 Q195.8 148.0 195.65 149.9 L195.5 150.05 195.25 149.85 195.25 150.35 195.05 150.45 Q194.75 150.45 194.25 149.35 L193.45 147.5 192.0 144.6 190.35 141.7 189.45 140.2 188.75 138.8 185.5 132.95 184.4 130.9 183.75 128.95 182.8 126.9 180.7 126.85 176.75 127.3 175.7 127.55 174.0 128.6 173.3 128.75 170.8 129.5 Q169.8 130.9 169.5 132.1 L168.85 134.75 168.15 137.35 165.5 146.2 165.75 145.95 165.7 146.75 166.15 146.9 Q168.0 146.9 169.65 147.45 L172.5 148.6 Q178.4 150.6 180.4 153.1 L183.4 156.7 Q185.85 158.55 186.25 160.55 L186.4 160.95 Q186.9 160.1 188.0 159.0 L190.7 156.75 191.05 156.85 191.15 157.25 Q191.15 158.2 186.7 162.4 L186.7 162.45 186.55 162.6 186.45 162.65 186.4 162.65 186.2 162.7 184.75 160.45 184.3 159.85 184.2 159.6 182.85 157.75 181.85 157.05 Q180.7 156.3 180.25 156.1 179.1 155.2 176.8 154.35 172.3 152.75 165.85 152.75 L160.4 153.35 157.75 153.9 157.45 153.8 154.6 158.9 Q153.9 160.55 153.9 164.45 153.9 173.7 158.05 184.0 L160.65 193.7 163.65 203.65 166.5 213.6 167.65 218.45 168.2 221.0 168.65 223.5 Q169.55 227.15 170.4 233.45 L171.15 238.5 171.9 243.35 172.05 248.8 172.2 249.85 171.9 249.85 171.25 245.95 Q170.4 244.5 170.2 242.2 169.8 238.15 169.4 237.2 168.55 235.25 168.0 232.25 L166.9 227.45 163.65 217.65 160.5 207.75 Q157.75 198.2 153.8 188.3 153.5 189.75 153.5 191.15 153.5 195.1 154.25 200.75 L154.7 205.55 Q155.05 208.05 156.4 210.0 L158.9 212.25 Q159.95 213.3 160.2 214.5 L160.25 216.75 Q160.2 217.95 160.75 219.45 161.35 221.0 162.05 221.35 163.75 222.2 164.25 223.35 L164.9 225.7 Q165.65 228.8 165.5 230.35 165.35 231.85 165.9 232.85 166.5 233.95 166.5 234.9 166.5 236.5 165.65 237.55 164.75 238.6 164.75 239.65 164.75 241.05 167.15 244.85 169.5 248.65 169.5 249.65 L168.9 252.65 167.9 256.2 Q167.25 256.15 167.05 255.8 L167.0 255.3 167.1 254.95 166.65 255.35 Q164.55 257.25 164.05 258.45 L163.55 260.75 163.15 263.5 164.4 269.0 164.35 269.45 164.25 269.5 Q164.45 269.7 163.85 269.7 162.65 269.7 162.6 268.35 L160.7 271.25 Q159.4 273.75 159.15 275.85 159.05 276.65 158.05 278.1 L157.15 280.35 156.25 283.0 156.15 284.8 Q156.15 286.35 156.9 290.45 L157.15 290.7 157.25 290.85 157.05 291.1 157.15 291.7 Q157.9 295.45 158.1 297.95 L158.5 299.05 158.8 301.1 158.9 303.2 Q158.95 304.55 159.4 305.35 161.0 308.35 165.75 310.35 L172.15 312.5 181.35 314.05 192.9 315.35 215.35 317.5 232.15 318.1 254.75 316.8 278.4 312.1 Q282.55 311.25 286.25 309.1 290.3 306.7 289.9 304.85 289.6 304.15 290.55 302.75 288.25 302.7 287.15 302.05 285.95 301.35 285.4 301.35 L280.55 301.75 278.15 302.25 272.15 302.75 266.65 303.7 255.5 304.6 247.8 304.8 231.65 305.6 225.35 306.55 220.65 307.5 Q215.6 308.15 210.4 310.5 L209.65 309.8 214.65 303.65 Q220.35 296.4 223.65 290.35 227.4 283.5 233.3 270.85 L233.3 270.7 227.7 278.15 Q224.15 282.6 220.8 285.5 L211.8 293.0 201.9 300.25 Q201.05 300.25 200.4 299.85 210.3 279.9 215.9 265.35 L218.9 256.75 221.75 248.1 Q222.8 245.1 224.05 239.35 225.2 234.0 226.0 231.45 L224.3 233.75 Q223.45 235.9 216.4 241.65 212.2 245.1 207.55 248.45 L202.35 251.8 Q197.85 254.5 196.4 255.45 194.15 257.0 182.65 262.5 L181.4 262.25 181.4 261.1 Q186.75 251.05 197.7 235.15 L215.4 209.2 Q217.0 206.65 218.65 202.65 L221.15 196.1 Q222.85 191.95 223.4 189.5 223.65 188.4 225.1 186.3 L226.7 184.0 226.15 171.35 Q226.15 167.35 226.95 162.05 227.8 156.3 227.9 151.25 228.1 145.7 228.6 140.55 225.85 141.35 224.8 141.85 L220.75 144.15 216.8 146.45 Q215.35 147.2 213.3 148.8 L209.8 151.1 Q204.05 154.2 203.3 155.85 L202.75 155.85 202.65 155.85 201.25 154.4 Q199.8 152.9 199.8 152.45 200.35 152.2 201.35 153.0 L202.9 153.9 Q204.05 151.65 209.2 145.85 L216.3 138.1 Q219.0 135.45 224.1 129.6 227.5 125.95 230.8 123.55 L231.05 121.45 Q231.85 115.25 232.8 111.35 M203.75 109.75 L207.7 104.95 Q205.4 105.2 203.6 106.45 201.2 108.0 198.65 108.0 L193.15 107.45 188.75 106.85 Q185.5 106.85 182.55 109.75 L179.8 113.0 176.65 115.9 Q174.8 117.25 172.05 118.15 172.75 119.15 173.65 121.25 L175.5 126.05 178.5 125.55 179.4 125.6 180.55 125.4 182.3 125.5 183.4 126.0 184.65 126.35 184.8 126.35 186.3 126.55 190.1 127.65 195.1 128.8 195.0 128.25 195.75 122.1 196.0 119.1 196.25 116.4 198.5 114.55 203.75 109.75 M196.85 166.05 Q195.7 163.3 195.7 162.05 L195.8 161.45 Q197.25 161.45 198.55 163.5 L200.55 166.85 Q201.9 168.2 202.9 170.0 203.95 171.85 203.95 173.1 203.95 174.85 201.95 178.35 199.9 181.9 199.9 183.6 199.9 184.9 201.9 192.95 L201.7 194.0 201.15 194.0 Q200.45 190.95 199.95 189.85 L199.0 188.05 Q198.35 186.9 198.2 185.95 L197.2 181.95 Q196.45 179.25 196.45 177.9 196.45 177.15 197.2 175.3 197.95 173.4 197.95 172.4 197.95 168.75 196.85 166.05 M199.5 187.1 L199.2 185.6 199.4 187.1 199.5 187.1 M290.6 193.75 L290.55 196.0 291.0 199.2 Q291.15 201.5 291.4 202.6 293.0 209.0 293.0 215.5 L292.5 225.6 Q292.0 232.35 292.0 236.15 292.0 240.7 292.25 244.0 L292.9 251.85 293.3 259.75 293.55 267.6 Q293.7 270.3 294.45 275.5 L295.4 283.35 296.05 291.25 296.05 295.2 296.25 296.3 297.4 292.95 298.25 288.6 299.25 284.1 Q299.7 282.7 301.1 279.8 L303.0 275.35 303.85 271.0 304.4 266.5 Q305.95 258.15 312.8 248.7 314.05 247.05 314.6 244.4 L315.25 239.85 316.0 235.35 Q316.1 234.7 316.75 233.15 L317.25 231.05 Q317.25 230.65 314.95 227.55 L311.55 223.2 Q308.7 219.75 307.5 215.35 307.1 213.85 304.6 211.35 L300.65 207.45 Q299.95 206.6 298.7 203.7 297.55 201.0 296.15 199.75 291.95 196.2 290.6 193.75 M120.75 24.05 Q120.55 22.25 119.65 21.35 118.8 23.5 117.9 27.85 116.9 32.55 116.9 35.1 L117.3 36.9 Q117.8 38.1 118.3 38.1 120.0 38.1 120.55 32.8 L120.8 27.15 120.75 24.05 M119.85 60.35 L119.65 61.45 119.1 63.3 Q118.8 64.65 119.0 66.25 L119.7 69.8 120.4 71.45 Q120.8 72.2 121.65 72.65 L122.75 73.45 Q124.6 74.55 125.9 75.85 L125.5 73.75 126.7 74.95 Q127.1 75.45 127.3 76.3 L127.4 77.45 127.2 79.65 126.6 81.7 125.6 84.1 Q124.95 85.65 125.6 87.45 L126.6 88.0 128.1 87.6 Q129.7 87.4 130.7 86.35 L131.85 85.0 134.1 82.05 Q134.95 81.1 136.0 80.85 L137.75 81.2 Q138.5 81.35 139.05 81.95 140.25 83.5 140.15 85.4 L140.05 87.0 Q140.0 88.1 139.25 88.9 L138.05 89.5 137.5 90.35 137.55 93.6 133.25 94.8 Q133.15 95.8 133.2 96.75 133.2 97.65 133.95 98.05 L134.65 98.3 135.1 97.15 Q135.45 96.6 136.05 96.3 137.85 95.2 139.85 95.0 L142.15 94.9 Q143.7 94.8 144.7 95.8 L145.0 97.1 140.6 98.05 139.85 98.7 139.05 99.9 138.6 100.8 Q138.3 101.4 138.4 102.2 L140.85 104.2 146.4 103.5 145.0 109.6 144.95 109.65 Q145.35 111.55 146.1 113.4 L146.6 113.95 147.55 113.7 149.3 112.1 Q150.7 110.9 150.9 109.0 L151.35 106.2 151.55 104.15 151.45 100.75 151.1 96.85 Q150.95 94.75 151.15 92.75 L151.65 89.65 152.45 86.85 153.6 83.45 Q154.25 81.4 154.5 79.25 L154.9 75.3 155.2 72.05 155.45 68.65 155.3 65.2 154.95 62.3 154.55 59.25 Q154.35 57.15 153.65 55.15 L152.5 52.35 143.55 52.1 131.7 52.8 119.45 54.4 119.85 58.05 119.85 60.35 M135.75 50.85 L136.5 50.8 136.35 50.8 135.75 50.85 M138.95 59.45 L139.25 59.95 139.25 60.0 138.7 60.1 137.65 59.95 132.2 59.8 Q128.8 61.0 127.2 64.35 L129.8 64.15 Q130.6 63.15 132.15 63.2 L138.45 62.75 Q140.0 62.75 141.0 63.75 L137.8 66.8 138.15 65.8 135.75 64.9 134.1 65.45 134.25 68.6 133.4 69.0 133.0 68.9 131.65 71.65 Q130.95 73.0 129.6 73.45 128.3 73.6 127.45 72.75 L125.7 70.65 Q124.5 69.1 124.25 67.4 124.15 66.75 124.35 66.05 124.8 64.6 125.8 63.4 L127.05 61.9 128.1 60.9 130.45 58.9 Q131.5 57.9 132.8 57.65 135.3 57.75 137.7 58.65 L138.95 59.45 M99.55 232.35 L98.35 232.9 97.0 236.35 100.35 237.75 102.5 239.15 104.25 240.85 Q106.4 243.1 107.6 245.9 108.4 247.75 108.85 249.75 L109.2 251.7 111.05 237.2 99.55 232.35 M146.4 171.85 L146.15 172.3 Q144.85 175.0 144.4 176.85 L141.45 185.9 Q139.65 191.45 139.75 195.0 L139.9 199.6 Q139.9 202.3 139.5 204.2 L138.2 209.0 Q137.65 210.95 137.65 213.2 137.65 215.4 138.9 219.35 140.15 223.35 140.15 224.25 L139.8 226.8 139.4 229.5 139.6 230.3 139.65 230.25 139.7 230.5 140.2 231.4 139.95 231.5 140.8 233.6 140.55 233.95 Q139.9 233.65 139.0 232.35 138.2 231.3 136.8 231.0 136.55 232.2 138.05 235.1 L140.15 239.15 139.9 239.85 Q138.7 239.7 137.35 238.35 135.9 236.8 134.65 236.45 133.7 237.4 133.9 239.25 133.65 239.25 133.65 239.6 L132.9 239.5 132.6 238.2 Q132.2 237.2 131.55 237.2 128.3 237.2 127.65 237.95 127.35 238.3 127.65 238.75 L128.05 240.15 128.4 241.6 128.4 241.95 128.15 242.35 Q127.55 242.25 127.15 241.85 L125.8 241.65 124.5 241.45 123.55 240.75 123.3 241.15 Q122.85 241.75 122.1 241.75 L119.3 241.15 116.05 244.5 Q114.5 246.35 113.25 248.6 112.25 250.4 111.45 252.85 L110.8 255.2 113.3 258.75 118.7 265.85 119.25 266.2 Q120.8 267.25 121.45 267.25 126.6 267.25 126.9 258.1 127.05 252.95 127.3 251.8 127.9 248.95 130.0 248.95 131.65 248.95 133.2 251.3 L134.9 254.35 Q137.05 257.35 141.15 259.95 L141.25 259.3 Q141.25 258.25 140.3 255.2 139.3 252.15 139.3 251.25 L138.95 249.9 Q138.55 248.6 138.55 247.6 L138.6 246.2 138.55 245.75 138.65 245.35 139.25 245.25 Q139.75 245.25 143.25 247.35 143.05 246.25 141.85 243.25 140.75 240.5 140.75 239.85 L140.8 239.1 141.0 239.05 141.5 238.95 Q141.85 238.95 143.25 239.65 L145.8 239.85 Q145.75 239.2 144.6 237.35 143.5 235.55 143.5 235.1 143.5 234.5 143.75 234.35 L144.5 234.2 146.8 235.15 Q149.3 236.0 151.15 235.6 L152.75 235.6 153.05 235.35 Q150.1 233.2 147.95 229.95 L144.9 224.5 Q144.3 223.25 143.35 218.7 L142.5 213.8 142.5 213.45 142.65 213.35 142.8 213.25 143.4 213.1 Q144.0 213.1 145.25 216.1 146.65 219.55 147.55 220.35 L151.15 224.05 Q153.2 226.3 155.15 227.6 153.75 224.3 152.6 220.1 L150.65 212.45 149.15 208.7 Q148.05 206.15 147.9 204.75 L147.45 200.7 147.25 197.35 Q147.25 195.85 147.8 192.75 148.35 189.45 148.9 188.45 150.2 186.05 151.95 183.85 L146.4 171.85 M3.4 222.05 L2.35 222.45 1.0 224.5 2.85 225.85 3.4 222.05 M9.1 220.45 Q8.3 220.95 7.7 221.75 L6.9 223.05 8.45 223.55 Q8.85 221.15 11.1 220.4 L13.8 220.65 Q11.5 219.1 9.1 220.45 M59.45 220.6 L56.5 221.8 52.55 223.5 50.65 223.65 43.95 224.2 43.4 223.95 41.85 224.65 41.55 225.35 38.6 224.75 35.2 223.95 33.1 223.45 30.95 222.65 Q29.25 221.95 27.55 222.7 26.65 223.05 26.05 223.75 L25.55 224.85 25.5 225.45 26.95 225.75 27.35 223.85 28.55 223.0 29.85 223.2 32.75 224.05 34.85 224.75 35.75 225.1 Q39.0 226.0 42.3 225.25 L45.45 224.9 47.8 224.95 49.75 225.25 50.65 225.35 53.75 224.2 Q56.2 223.2 58.75 222.6 L64.2 221.8 59.45 220.6 M84.1 232.1 Q85.95 233.1 87.95 233.9 L92.95 235.6 94.95 236.2 96.1 236.2 96.65 233.6 82.15 226.8 67.65 219.9 Q66.5 219.35 65.45 218.65 L64.85 218.15 60.35 213.0 48.3 211.6 46.85 212.15 43.95 213.0 36.9 213.15 34.5 213.4 33.65 213.6 32.8 213.85 31.95 217.35 33.1 217.1 35.1 216.35 36.75 215.1 38.15 213.75 38.35 213.65 38.65 213.7 39.45 216.45 44.1 214.8 44.75 215.2 44.35 219.8 41.4 217.35 37.35 218.0 36.25 218.25 31.0 219.8 25.1 220.7 18.75 221.15 17.9 221.1 16.3 221.0 24.4 224.95 25.6 222.1 28.7 221.7 32.15 222.05 37.9 223.55 40.6 224.1 41.85 223.65 43.1 223.2 47.1 222.9 48.55 223.15 49.8 223.0 51.5 222.7 Q53.35 221.75 55.35 221.05 L58.7 220.35 62.65 220.4 66.15 221.6 Q68.45 222.4 70.65 223.55 L74.2 225.6 77.0 227.6 80.55 230.1 Q82.25 231.15 84.1 232.1 M202.9 202.1 Q205.15 201.95 205.15 208.0 205.15 212.65 203.15 218.8 201.25 224.55 198.4 229.35 196.05 233.2 189.45 239.75 L178.9 250.35 178.15 250.25 178.15 248.6 Q186.5 240.05 194.75 223.2 201.9 208.7 202.9 202.1" fill="#000000" fill-rule="evenodd" stroke="none"/>
    <path d="M256.9 95.2 L258.65 94.95 261.25 94.05 264.9 93.75 Q265.55 93.75 266.55 94.35 L270.0 95.25 273.25 96.1 273.6 96.2 Q271.5 96.9 268.65 100.15 264.95 104.35 263.8 108.35 L263.75 108.25 Q264.75 103.25 264.75 100.95 L264.65 99.85 264.0 99.7 Q263.25 99.7 261.7 102.2 260.2 104.6 259.75 106.35 259.0 109.5 259.0 113.5 259.0 116.25 259.5 118.35 259.9 120.05 259.9 123.35 259.9 126.2 259.3 129.85 258.65 133.5 258.65 136.45 L258.9 139.85 Q256.15 130.95 255.4 127.75 254.25 122.95 254.25 116.85 254.25 114.45 254.75 111.05 L255.25 107.85 Q255.25 107.3 254.65 106.95 251.0 109.9 249.25 116.25 248.0 120.9 248.0 126.15 248.0 131.45 249.45 136.7 251.05 142.5 254.15 147.1 L251.6 144.65 Q249.75 142.9 249.15 142.0 L247.35 138.65 Q246.25 136.6 245.5 136.6 245.15 136.6 244.9 136.8 L244.65 136.95 244.65 139.0 Q245.65 141.0 245.65 144.25 245.65 146.35 243.7 148.4 241.4 150.75 240.75 153.25 L239.45 156.7 239.0 156.85 238.9 157.35 238.85 158.15 Q237.4 161.9 237.4 162.5 237.4 162.95 237.7 163.4 L237.55 163.95 Q236.1 168.95 236.0 170.2 235.75 172.7 232.5 176.65 229.3 180.4 228.05 182.05 228.1 177.3 228.6 172.0 L230.0 160.6 Q231.85 146.8 234.0 138.1 L236.7 126.9 Q238.35 120.1 239.8 115.6 240.9 112.3 245.15 104.35 246.55 101.55 249.65 99.0 253.3 96.05 256.15 94.9 L256.8 94.65 256.9 95.2" fill="url(#gradient0)" fill-rule="evenodd" stroke="none"/>
    <path d="M232.8 111.35 Q231.85 115.25 231.05 121.45 L230.8 123.55 Q227.5 125.95 224.1 129.6 219.0 135.45 216.3 138.1 L209.2 145.85 Q204.05 151.65 202.9 153.9 L201.35 153.0 Q200.35 152.2 199.8 152.45 199.8 152.9 201.25 154.4 L202.65 155.85 202.75 155.85 203.3 155.85 Q204.05 154.2 209.8 151.1 L213.3 148.8 Q215.35 147.2 216.8 146.45 L220.75 144.15 224.8 141.85 Q225.85 141.35 228.6 140.55 228.1 145.7 227.9 151.25 227.8 156.3 226.95 162.05 226.15 167.35 226.15 171.35 L226.7 184.0 225.1 186.3 Q223.65 188.4 223.4 189.5 222.85 191.95 221.15 196.1 L218.65 202.65 Q217.0 206.65 215.4 209.2 L197.7 235.15 Q186.75 251.05 181.4 261.1 L181.4 262.25 182.65 262.5 Q194.15 257.0 196.4 255.45 197.85 254.5 202.35 251.8 L207.55 248.45 Q212.2 245.1 216.4 241.65 223.45 235.9 224.3 233.75 L226.0 231.45 Q225.2 234.0 224.05 239.35 222.8 245.1 221.75 248.1 L218.9 256.75 215.9 265.35 Q210.3 279.9 200.4 299.85 201.05 300.25 201.9 300.25 L211.8 293.0 220.8 285.5 Q224.15 282.6 227.7 278.15 L233.3 270.7 233.3 270.85 Q227.4 283.5 223.65 290.35 220.35 296.4 214.65 303.65 L209.65 309.8 210.4 310.5 Q215.6 308.15 220.65 307.5 L225.35 306.55 231.65 305.6 247.8 304.8 255.5 304.6 266.65 303.7 272.15 302.75 278.15 302.25 280.55 301.75 285.4 301.35 Q285.95 301.35 287.15 302.05 288.25 302.7 290.55 302.75 289.6 304.15 289.9 304.85 290.3 306.7 286.25 309.1 282.55 311.25 278.4 312.1 L254.75 316.8 232.15 318.1 215.35 317.5 192.9 315.35 181.35 314.05 172.15 312.5 165.75 310.35 Q161.0 308.35 159.4 305.35 158.95 304.55 158.9 303.2 L158.8 301.1 158.5 299.05 158.1 297.95 Q157.9 295.45 157.15 291.7 L157.05 291.1 157.25 290.85 157.15 290.7 156.9 290.45 Q156.15 286.35 156.15 284.8 L156.25 283.0 157.15 280.35 158.05 278.1 Q159.05 276.65 159.15 275.85 159.4 273.75 160.7 271.25 L162.6 268.35 Q162.65 269.7 163.85 269.7 164.45 269.7 164.25 269.5 L164.35 269.45 164.4 269.0 163.15 263.5 163.55 260.75 164.05 258.45 Q164.55 257.25 166.65 255.35 L167.1 254.95 167.0 255.3 167.05 255.8 Q167.25 256.15 167.9 256.2 L168.9 252.65 169.5 249.65 Q169.5 248.65 167.15 244.85 164.75 241.05 164.75 239.65 164.75 238.6 165.65 237.55 166.5 236.5 166.5 234.9 166.5 233.95 165.9 232.85 165.35 231.85 165.5 230.35 165.65 228.8 164.9 225.7 L164.25 223.35 Q163.75 222.2 162.05 221.35 161.35 221.0 160.75 219.45 160.2 217.95 160.25 216.75 L160.2 214.5 Q159.95 213.3 158.9 212.25 L156.4 210.0 Q155.05 208.05 154.7 205.55 L154.25 200.75 Q153.5 195.1 153.5 191.15 153.5 189.75 153.8 188.3 157.75 198.2 160.5 207.75 L163.65 217.65 166.9 227.45 168.0 232.25 Q168.55 235.25 169.4 237.2 169.8 238.15 170.2 242.2 170.4 244.5 171.25 245.95 L171.9 249.85 172.2 249.85 172.05 248.8 171.9 243.35 171.15 238.5 170.4 233.45 Q169.55 227.15 168.65 223.5 L168.2 221.0 167.65 218.45 166.5 213.6 163.65 203.65 160.65 193.7 158.05 184.0 Q153.9 173.7 153.9 164.45 153.9 160.55 154.6 158.9 L157.45 153.8 157.75 153.9 160.4 153.35 165.85 152.75 Q172.3 152.75 176.8 154.35 179.1 155.2 180.25 156.1 180.7 156.3 181.85 157.05 L182.85 157.75 184.2 159.6 184.3 159.85 184.75 160.45 186.2 162.7 186.4 162.65 186.45 162.65 186.55 162.6 186.7 162.45 186.7 162.4 Q191.15 158.2 191.15 157.25 L191.05 156.85 190.7 156.75 188.0 159.0 Q186.9 160.1 186.4 160.95 L186.25 160.55 Q185.85 158.55 183.4 156.7 L180.4 153.1 Q178.4 150.6 172.5 148.6 L169.65 147.45 Q168.0 146.9 166.15 146.9 L165.7 146.75 165.75 145.95 165.5 146.2 168.15 137.35 168.85 134.75 169.5 132.1 Q169.8 130.9 170.8 129.5 L173.3 128.75 174.0 128.6 175.7 127.55 176.75 127.3 180.7 126.85 182.8 126.9 183.75 128.95 184.4 130.9 185.5 132.95 188.75 138.8 189.45 140.2 190.35 141.7 192.0 144.6 193.45 147.5 194.25 149.35 Q194.75 150.45 195.05 150.45 L195.25 150.35 195.25 149.85 195.5 150.05 195.65 149.9 Q195.8 148.0 196.8 145.35 L198.5 140.95 Q200.25 136.05 202.3 132.05 L204.2 128.45 Q206.2 124.8 207.35 123.15 L207.75 122.6 207.9 122.5 Q211.25 120.55 214.6 117.85 L219.9 113.35 230.3 104.2 235.55 98.9 235.0 101.35 232.8 111.35 M196.85 166.05 Q197.95 168.75 197.95 172.4 197.95 173.4 197.2 175.3 196.45 177.15 196.45 177.9 196.45 179.25 197.2 181.95 L198.2 185.95 Q198.35 186.9 199.0 188.05 L199.95 189.85 Q200.45 190.95 201.15 194.0 L201.7 194.0 201.9 192.95 Q199.9 184.9 199.9 183.6 199.9 181.9 201.95 178.35 203.95 174.85 203.95 173.1 203.95 171.85 202.9 170.0 201.9 168.2 200.55 166.85 L198.55 163.5 Q197.25 161.45 195.8 161.45 L195.7 162.05 Q195.7 163.3 196.85 166.05 M146.4 171.85 L151.95 183.85 Q150.2 186.05 148.9 188.45 148.35 189.45 147.8 192.75 147.25 195.85 147.25 197.35 L147.45 200.7 147.9 204.75 Q148.05 206.15 149.15 208.7 L150.65 212.45 152.6 220.1 Q153.75 224.3 155.15 227.6 153.2 226.3 151.15 224.05 L147.55 220.35 Q146.65 219.55 145.25 216.1 144.0 213.1 143.4 213.1 L142.8 213.25 142.65 213.35 142.5 213.45 142.5 213.8 143.35 218.7 Q144.3 223.25 144.9 224.5 L147.95 229.95 Q150.1 233.2 153.05 235.35 L152.75 235.6 151.15 235.6 Q149.3 236.0 146.8 235.15 L144.5 234.2 143.75 234.35 Q143.5 234.5 143.5 235.1 143.5 235.55 144.6 237.35 145.75 239.2 145.8 239.85 L143.25 239.65 Q141.85 238.95 141.5 238.95 L141.0 239.05 140.8 239.1 140.75 239.85 Q140.75 240.5 141.85 243.25 143.05 246.25 143.25 247.35 139.75 245.25 139.25 245.25 L138.65 245.35 138.55 245.75 138.6 246.2 138.55 247.6 Q138.55 248.6 138.95 249.9 L139.3 251.25 Q139.3 252.15 140.3 255.2 141.25 258.25 141.25 259.3 L141.15 259.95 Q137.05 257.35 134.9 254.35 L133.2 251.3 Q131.65 248.95 130.0 248.95 127.9 248.95 127.3 251.8 127.05 252.95 126.9 258.1 126.6 267.25 121.45 267.25 120.8 267.25 119.25 266.2 L118.7 265.85 113.3 258.75 110.8 255.2 111.45 252.85 Q112.25 250.4 113.25 248.6 114.5 246.35 116.05 244.5 L119.3 241.15 122.1 241.75 Q122.85 241.75 123.3 241.15 L123.55 240.75 124.5 241.45 125.8 241.65 127.15 241.85 Q127.55 242.25 128.15 242.35 L128.4 241.95 128.4 241.6 128.05 240.15 127.65 238.75 Q127.35 238.3 127.65 237.95 128.3 237.2 131.55 237.2 132.2 237.2 132.6 238.2 L132.9 239.5 133.65 239.6 Q133.65 239.25 133.9 239.25 133.7 237.4 134.65 236.45 135.9 236.8 137.35 238.35 138.7 239.7 139.9 239.85 L140.15 239.15 138.05 235.1 Q136.55 232.2 136.8 231.0 138.2 231.3 139.0 232.35 139.9 233.65 140.55 233.95 L140.8 233.6 139.95 231.5 140.2 231.4 139.7 230.5 139.65 230.25 139.6 230.3 139.4 229.5 139.8 226.8 140.15 224.25 Q140.15 223.35 138.9 219.35 137.65 215.4 137.65 213.2 137.65 210.95 138.2 209.0 L139.5 204.2 Q139.9 202.3 139.9 199.6 L139.75 195.0 Q139.65 191.45 141.45 185.9 L144.4 176.85 Q144.85 175.0 146.15 172.3 L146.4 171.85 M99.55 232.35 L111.05 237.2 109.2 251.7 108.85 249.75 Q108.4 247.75 107.6 245.9 106.4 243.1 104.25 240.85 L102.5 239.15 100.35 237.75 97.0 236.35 98.35 232.9 99.55 232.35 M202.9 202.1 Q201.9 208.7 194.75 223.2 186.5 240.05 178.15 248.6 L178.15 250.25 178.9 250.35 189.45 239.75 Q196.05 233.2 198.4 229.35 201.25 224.55 203.15 218.8 205.15 212.65 205.15 208.0 205.15 201.95 202.9 202.1" fill="url(#gradient1)" fill-rule="evenodd" stroke="none"/>
    <path d="M203.75 109.75 L198.5 114.55 196.25 116.4 196.0 119.1 195.75 122.1 195.0 128.25 195.1 128.8 190.1 127.65 186.3 126.55 184.8 126.35 184.65 126.35 183.4 126.0 182.3 125.5 180.55 125.4 179.4 125.6 178.5 125.55 175.5 126.05 173.65 121.25 Q172.75 119.15 172.05 118.15 174.8 117.25 176.65 115.9 L179.8 113.0 182.55 109.75 Q185.5 106.85 188.75 106.85 L193.15 107.45 198.65 108.0 Q201.2 108.0 203.6 106.45 205.4 105.2 207.7 104.95 L203.75 109.75 M119.85 60.35 L119.85 58.05 119.45 54.4 131.7 52.8 143.55 52.1 152.5 52.35 153.65 55.15 Q154.35 57.15 154.55 59.25 L154.95 62.3 155.3 65.2 155.45 68.65 155.2 72.05 154.9 75.3 154.5 79.25 Q154.25 81.4 153.6 83.45 L152.45 86.85 151.65 89.65 151.15 92.75 Q150.95 94.75 151.1 96.85 L151.45 100.75 151.55 104.15 151.35 106.2 150.9 109.0 Q150.7 110.9 149.3 112.1 L147.55 113.7 146.6 113.95 146.1 113.4 Q145.35 111.55 144.95 109.65 L145.0 109.6 146.4 103.5 140.85 104.2 138.4 102.2 Q138.3 101.4 138.6 100.8 L139.05 99.9 139.85 98.7 140.6 98.05 145.0 97.1 144.7 95.8 Q143.7 94.8 142.15 94.9 L139.85 95.0 Q137.85 95.2 136.05 96.3 135.45 96.6 135.1 97.15 L134.65 98.3 133.95 98.05 Q133.2 97.65 133.2 96.75 133.15 95.8 133.25 94.8 L137.55 93.6 137.5 90.35 138.05 89.5 139.25 88.9 Q140.0 88.1 140.05 87.0 L140.15 85.4 Q140.25 83.5 139.05 81.95 138.5 81.35 137.75 81.2 L136.0 80.85 Q134.95 81.1 134.1 82.05 L131.85 85.0 130.7 86.35 Q129.7 87.4 128.1 87.6 L126.6 88.0 125.6 87.45 Q124.95 85.65 125.6 84.1 L126.6 81.7 127.2 79.65 127.4 77.45 127.3 76.3 Q127.1 75.45 126.7 74.95 L125.5 73.75 125.9 75.85 Q124.6 74.55 122.75 73.45 L121.65 72.65 Q120.8 72.2 120.4 71.45 L119.7 69.8 119.0 66.25 Q118.8 64.65 119.1 63.3 L119.65 61.45 119.85 60.35 M138.95 59.45 L137.7 58.65 Q135.3 57.75 132.8 57.65 131.5 57.9 130.45 58.9 L128.1 60.9 127.05 61.9 125.8 63.4 Q124.8 64.6 124.35 66.05 124.15 66.75 124.25 67.4 124.5 69.1 125.7 70.65 L127.45 72.75 Q128.3 73.6 129.6 73.45 130.95 73.0 131.65 71.65 L133.0 68.9 133.4 69.0 134.25 68.6 134.1 65.45 135.75 64.9 138.15 65.8 137.8 66.8 141.0 63.75 Q140.0 62.75 138.45 62.75 L132.15 63.2 Q130.6 63.15 129.8 64.15 L127.2 64.35 Q128.8 61.0 132.2 59.8 L137.65 59.95 138.7 60.1 139.25 60.0 139.25 59.95 138.95 59.45 M84.1 232.1 Q82.25 231.15 80.55 230.1 L77.0 227.6 74.2 225.6 70.65 223.55 Q68.45 222.4 66.15 221.6 L62.65 220.4 58.7 220.35 55.35 221.05 Q53.35 221.75 51.5 222.7 L49.8 223.0 48.55 223.15 47.1 222.9 43.1 223.2 41.85 223.65 40.6 224.1 37.9 223.55 32.15 222.05 28.7 221.7 25.6 222.1 24.4 224.95 16.3 221.0 17.9 221.1 18.75 221.15 25.1 220.7 31.0 219.8 36.25 218.25 37.35 218.0 41.4 217.35 44.35 219.8 44.75 215.2 44.1 214.8 39.45 216.45 38.65 213.7 38.35 213.65 38.15 213.75 36.75 215.1 35.1 216.35 33.1 217.1 31.95 217.35 32.8 213.85 33.65 213.6 34.5 213.4 36.9 213.15 43.95 213.0 46.85 212.15 48.3 211.6 60.35 213.0 64.85 218.15 65.45 218.65 Q66.5 219.35 67.65 219.9 L82.15 226.8 96.65 233.6 96.1 236.2 94.95 236.2 92.95 235.6 87.95 233.9 Q85.95 233.1 84.1 232.1 M59.45 220.6 L64.2 221.8 58.75 222.6 Q56.2 223.2 53.75 224.2 L50.65 225.35 49.75 225.25 47.8 224.95 45.45 224.9 42.3 225.25 Q39.0 226.0 35.75 225.1 L34.85 224.75 32.75 224.05 29.85 223.2 28.55 223.0 27.35 223.85 26.95 225.75 25.5 225.45 25.55 224.85 26.05 223.75 Q26.65 223.05 27.55 222.7 29.25 221.95 30.95 222.65 L33.1 223.45 35.2 223.95 38.6 224.75 41.55 225.35 41.85 224.65 43.4 223.95 43.95 224.2 50.65 223.65 52.55 223.5 56.5 221.8 59.45 220.6 M9.1 220.45 Q11.5 219.1 13.8 220.65 L11.1 220.4 Q8.85 221.15 8.45 223.55 L6.9 223.05 7.7 221.75 Q8.3 220.95 9.1 220.45 M3.4 222.05 L2.85 225.85 1.0 224.5 2.35 222.45 3.4 222.05" fill="url(#gradient2)" fill-rule="evenodd" stroke="none"/>
    <path d="M199.5 187.1 L199.4 187.1 199.2 185.6 199.5 187.1" fill="#515151" fill-rule="evenodd" stroke="none"/>
    <path d="M120.75 24.05 L120.8 27.15 120.55 32.8 Q120.0 38.1 118.3 38.1 117.8 38.1 117.3 36.9 L116.9 35.1 Q116.9 32.55 117.9 27.85 118.8 23.5 119.65 21.35 120.55 22.25 120.75 24.05" fill="#ffa244" fill-rule="evenodd" stroke="none"/>
    <path d="M206.05 100.85 Q206.65 100.35 207.25 100.35 208.85 100.35 210.7 103.0 211.8 104.0 211.8 105.3 L211.7 105.8 Q213.05 106.3 213.05 106.95 213.05 108.05 209.5 109.35 L208.0 110.1 206.7 110.3 202.5 113.1 Q199.25 114.95 198.3 117.05 197.8 118.05 197.55 121.05 L196.6 130.75 Q195.9 136.3 194.75 136.3 192.45 136.3 191.75 133.7 L191.55 130.9 Q191.55 128.6 192.75 119.6 L192.85 116.75 Q192.85 115.0 193.25 114.05 193.85 112.65 196.5 110.95 L197.4 110.35 197.0 110.35 Q196.55 110.35 195.95 109.95 195.4 109.55 194.75 109.55 188.0 109.55 182.45 114.2 L178.5 117.35 Q176.3 118.8 174.0 118.8 169.55 118.8 169.55 115.35 169.55 114.55 170.05 113.55 170.75 112.05 172.0 112.05 L172.75 113.2 172.95 113.5 Q175.15 112.8 176.0 112.05 L181.5 107.1 183.4 105.75 185.25 104.55 186.5 103.3 Q187.45 103.05 195.5 103.35 L200.4 103.35 200.3 102.55 Q200.3 100.3 201.75 100.55 L204.8 101.3 206.05 100.85 M146.5 43.8 Q147.75 43.8 149.3 42.3 150.65 41.8 152.75 46.6 L155.25 53.05 157.65 59.45 Q158.8 62.6 158.8 65.15 L158.8 66.85 158.5 68.35 156.95 69.15 Q155.65 69.9 155.8 71.1 L156.3 76.7 156.25 82.5 Q156.0 84.8 154.3 89.85 153.3 92.9 153.8 102.8 153.8 106.75 153.6 107.35 L150.25 113.85 152.2 115.6 Q153.0 116.4 153.0 117.4 153.0 118.65 151.8 119.3 150.85 119.8 149.5 119.8 146.85 119.8 146.05 117.1 L145.75 114.2 Q145.75 112.2 146.8 110.0 148.4 106.75 149.05 104.55 L148.8 99.05 148.55 94.9 Q148.55 90.6 150.05 85.95 151.55 81.3 151.55 76.7 151.55 65.5 145.05 58.15 138.55 52.7 138.55 51.05 138.55 50.1 139.25 49.35 140.0 48.6 141.0 48.6 141.8 48.6 144.75 50.1 L143.45 48.2 Q143.05 47.3 143.05 46.3 143.05 45.1 143.5 44.6 144.2 43.8 146.5 43.8 M139.4 60.5 Q141.75 62.8 141.75 66.45 141.75 68.25 137.75 71.05 133.7 73.85 130.75 73.85 127.95 73.85 127.0 72.0 L126.55 70.05 Q126.55 64.45 128.95 61.35 131.0 58.6 134.15 58.5 137.15 58.35 139.4 60.5 M135.5 80.3 Q139.35 78.35 141.4 82.25 142.75 84.8 142.75 87.15 142.75 88.45 141.25 90.35 139.4 92.6 137.1 92.6 134.3 92.6 133.75 90.8 L133.75 88.85 Q133.75 84.95 133.9 83.85 134.2 80.95 135.5 80.3" fill="#000000" fill-opacity="0.101960786" fill-rule="evenodd" stroke="none"/>
  </g>
  <defs>
    <linearGradient gradientTransform="matrix(0.0836, 0.0, 0.0, 0.1338, 181.7, 218.35)" gradientUnits="userSpaceOnUse" id="gradient0" spreadMethod="pad" x1="-819.2" x2="819.2">
      <stop offset="0.0" stop-color="#f79400"/>
      <stop offset="1.0" stop-color="#39603d"/>
    </linearGradient>
    <linearGradient gradientTransform="matrix(0.0836, 0.0, 0.0, 0.1338, 181.7, 218.35)" gradientUnits="userSpaceOnUse" id="gradient1" spreadMethod="pad" x1="-819.2" x2="819.2">
      <stop offset="0.0" stop-color="#764701"/>
      <stop offset="1.0" stop-color="#39603d"/>
    </linearGradient>
    <linearGradient gradientTransform="matrix(0.1587, 0.0, 0.0, 1.0, 156.75, -12.6)" gradientUnits="userSpaceOnUse" id="gradient2" spreadMethod="pad" x1="-819.2" x2="819.2">
      <stop offset="0.0" stop-color="#5f3f21"/>
      <stop offset="0.9882352941176471" stop-color="#26160d"/>
    </linearGradient>
  </defs>
</svg>
