<?xml version="1.0" encoding="UTF-8" standalone="no"?>
<svg xmlns:xlink="http://www.w3.org/1999/xlink" height="383.55px" width="297.4px" xmlns="http://www.w3.org/2000/svg">
  <g transform="matrix(1.0, 0.0, 0.0, 1.0, 0.0, 0.0)">
    <path d="M294.15 8.7 L295.05 24.0 296.5 27.25 293.65 339.1 294.35 341.6 295.1 344.0 Q304.25 371.05 277.0 374.45 L227.75 380.3 Q188.9 384.5 150.0 383.25 L125.25 383.0 121.6 382.75 117.9 382.4 Q50.65 379.7 9.2 329.6 6.4 326.2 5.45 321.35 -0.95 288.1 0.2 254.45 1.8 206.2 4.4 157.9 7.6 98.35 23.55 41.8 35.45 -0.35 80.2 0.0 132.1 0.4 184.1 2.8 227.2 4.0 269.2 9.6 276.65 10.6 281.95 16.3 L294.15 8.7" fill="#000000" fill-rule="evenodd" stroke="none"/>
  </g>
</svg>
