<?xml version="1.0" encoding="UTF-8" standalone="no"?>
<svg xmlns:xlink="http://www.w3.org/1999/xlink" height="137.9px" width="28.6px" xmlns="http://www.w3.org/2000/svg">
  <g transform="matrix(1.0, 0.0, 0.0, 1.0, 95.4, 256.0)">
    <path d="M-66.8 -175.95 L-66.8 -118.1 -69.95 -118.1 Q-71.7 -123.25 -74.45 -127.35 -75.15 -129.45 -76.1 -131.4 -76.7 -130.85 -77.35 -130.85 -79.3 -130.05 -80.2 -128.3 L-80.2 -121.75 -80.7 -119.95 -81.4 -118.1 -81.5 -118.1 -83.1 -121.15 -86.6 -118.1 -95.4 -118.1 -95.4 -198.15 -95.35 -198.15 -95.2 -197.75 Q-85.05 -187.75 -73.1 -177.7 L-71.35 -175.95 -66.8 -175.95" fill="url(#gradient0)" fill-rule="evenodd" stroke="none"/>
    <path d="M-66.8 -225.85 L-66.8 -175.95 -71.35 -175.95 -73.1 -177.7 Q-85.05 -187.75 -95.2 -197.75 L-95.35 -198.15 -95.4 -198.15 -95.4 -218.65 Q-92.55 -217.1 -88.3 -216.85 L-86.0 -216.8 Q-80.35 -216.9 -76.6 -219.15 L-74.95 -220.4 Q-71.05 -223.65 -66.8 -225.85" fill="url(#gradient1)" fill-rule="evenodd" stroke="none"/>
    <path d="M-95.4 -218.65 L-95.4 -256.0 -66.8 -256.0 -66.8 -225.85 Q-71.05 -223.65 -74.95 -220.4 L-76.6 -219.15 Q-80.35 -216.9 -86.0 -216.8 L-88.3 -216.85 Q-92.55 -217.1 -95.4 -218.65" fill="url(#gradient2)" fill-rule="evenodd" stroke="none"/>
  </g>
  <defs>
    <linearGradient gradientTransform="matrix(0.0175, 0.0, 0.0, 0.0842, -81.1, -187.05)" gradientUnits="userSpaceOnUse" id="gradient0" spreadMethod="pad" x1="-819.2" x2="819.2">
      <stop offset="0.0" stop-color="#ffffff" stop-opacity="0.0"/>
      <stop offset="0.3058823529411765" stop-color="#ffffff"/>
      <stop offset="0.7254901960784313" stop-color="#ffffff"/>
      <stop offset="1.0" stop-color="#ffffff" stop-opacity="0.0"/>
    </linearGradient>
    <linearGradient gradientTransform="matrix(0.0175, 0.0, 0.0, 0.0842, -81.1, -187.05)" gradientUnits="userSpaceOnUse" id="gradient1" spreadMethod="pad" x1="-819.2" x2="819.2">
      <stop offset="0.0" stop-color="#ffffff" stop-opacity="0.0"/>
      <stop offset="0.3058823529411765" stop-color="#ffffff" stop-opacity="0.5019608"/>
      <stop offset="0.7254901960784313" stop-color="#ffffff"/>
      <stop offset="1.0" stop-color="#ffffff" stop-opacity="0.0"/>
    </linearGradient>
    <linearGradient gradientTransform="matrix(0.0175, 0.0, 0.0, 0.0842, -81.1, -187.05)" gradientUnits="userSpaceOnUse" id="gradient2" spreadMethod="pad" x1="-819.2" x2="819.2">
      <stop offset="0.0" stop-color="#ffffff" stop-opacity="0.0"/>
      <stop offset="0.3058823529411765" stop-color="#ffffff" stop-opacity="0.2509804"/>
      <stop offset="0.7137254901960784" stop-color="#ffffff" stop-opacity="0.2509804"/>
      <stop offset="1.0" stop-color="#ffffff" stop-opacity="0.0"/>
    </linearGradient>
  </defs>
</svg>
