<?xml version="1.0" encoding="UTF-8" standalone="no"?>
<svg xmlns:xlink="http://www.w3.org/1999/xlink" height="549.7px" width="945.55px" xmlns="http://www.w3.org/2000/svg">
  <g transform="matrix(1.0, 0.0, 0.0, 1.0, 589.45, 325.15)">
    <path d="M206.8 -138.25 L-393.7 -165.9 -552.95 -137.15 -566.2 -253.25 -440.15 -290.85 94.0 -287.55 341.75 -248.8 301.95 -167.0 206.8 -138.25" fill="#ccbc99" fill-rule="evenodd" stroke="none"/>
    <path d="M256.6 -199.05 L227.85 -212.35 222.3 -191.3 168.1 -196.85 164.8 -223.4 139.35 -232.25 108.4 -217.85 90.7 -244.4 82.95 -236.65 47.55 -218.95 36.5 -236.65 29.6 -241.35 Q21.85 -245.75 17.7 -244.4 13.55 -243.0 2.5 -248.0 -3.0 -250.5 -7.7 -253.25 L-17.65 -263.9 Q-28.15 -274.65 -30.95 -275.35 L-62.45 -277.45 -90.65 -278.7 -126.05 -273.15 -165.85 -269.85 -183.55 -242.2 -243.3 -234.45 -255.45 -258.8 Q-256.8 -261.6 -273.95 -269.3 -282.55 -273.15 -290.85 -276.45 L-307.4 -240.0 -379.3 -240.0 -435.7 -207.9 Q-439.15 -205.85 -454.9 -211.65 -462.8 -214.55 -470.0 -217.85 L-509.8 -237.75 -558.45 -274.25 -547.4 -325.15 274.3 -319.6 356.1 -267.65 321.85 -157.05 226.75 -168.1 256.6 -199.05" fill="#e6decc" fill-rule="evenodd" stroke="none"/>
    <path d="M293.1 -110.6 L223.6 44.7 -301.9 99.5 -589.45 15.45 -538.55 -147.1 -500.95 -200.2 -409.15 -197.95 -341.7 -217.85 -286.4 -209.0 -239.4 -213.6 -189.1 -219.0 -84.05 -223.4 2.25 -216.75 249.95 -171.4 293.1 -110.6" fill="#78653a" fill-rule="evenodd" stroke="none"/>
    <path d="M106.2 -181.35 L107.3 -161.45 109.5 -145.95 115.05 -155.9 125.0 -143.75 136.05 -159.25 140.45 -143.75 157.05 -141.55 167.0 -149.3 171.45 -128.25 190.25 -133.8 196.85 -121.65 217.9 -109.45 200.7 -64.25 Q197.6 -65.15 194.55 -65.15 186.0 -65.15 176.15 -57.7 172.4 -54.9 158.1 -41.35 153.7 -37.15 149.7 -33.85 L117.3 -18.0 111.1 -17.6 Q109.7 -17.6 100.8 -19.8 91.85 -22.0 88.4 -22.0 85.4 -22.0 79.05 -17.55 L66.45 -7.7 Q48.6 6.6 41.9 6.6 36.6 6.6 33.15 1.05 29.8 -4.4 29.8 -12.65 29.8 -16.1 32.0 -19.25 34.2 -22.4 34.2 -25.3 30.25 -28.1 23.3 -30.6 L10.7 -34.65 Q-5.25 -40.0 -11.0 -48.5 -14.4 -53.5 -25.3 -60.75 -36.9 -68.4 -43.0 -76.15 -49.1 -83.75 -62.95 -96.75 L-39.8 -136.0 -14.35 -130.5 -16.55 -157.05 18.8 -165.85 15.5 -183.55 40.95 -181.35 44.25 -165.85 54.2 -194.65 73.0 -193.5 75.2 -205.7 81.85 -188.0 79.65 -170.3 90.7 -190.2 106.2 -181.35" fill="#78653a" fill-rule="evenodd" stroke="none"/>
    <path d="M111.7 -54.15 L140.45 -54.15 169.2 -84.0 214.55 -78.5 272.05 -12.15 310.8 128.3 267.65 215.7 -87.35 224.55 -108.2 201.25 -137.1 101.75 -127.15 47.2 -50.85 14.4 -7.7 47.6 27.5 89.55 34.3 14.4 75.2 -37.55 111.7 -38.7 111.7 -54.15 M55.3 121.7 L97.35 100.65 153.75 58.65 49.8 116.15 27.5 89.55 26.55 99.55 55.3 121.7" fill="#ac9153" fill-rule="evenodd" stroke="none"/>
    <path d="M-303.0 -57.5 L-262.1 -110.6 -82.9 -81.85 -14.35 -19.9 -6.75 12.15 -7.7 12.6 -5.7 16.7 3.35 55.3 -1.55 60.2 -5.5 53.1 -25.4 57.5 -32.05 37.6 -36.75 45.9 Q-41.7 53.7 -43.1 50.9 -44.45 48.1 -52.2 37.6 L-59.7 27.65 -63.45 41.75 Q-67.6 55.05 -69.65 50.9 -71.7 46.75 -81.95 44.55 -87.05 43.45 -91.75 43.15 L-94.25 53.1 Q-97.0 62.55 -98.4 59.75 -99.75 56.95 -112.95 61.1 -119.55 63.15 -125.85 65.75 L-116.55 77.4 Q-107.75 88.8 -110.55 87.4 -113.35 86.0 -125.5 93.75 -131.55 97.6 -137.1 101.75 L-112.8 113.9 -123.85 133.8 -99.5 136.05 -90.6 153.15 -81.8 176.95 -158.1 182.5 -237.75 113.9 -301.9 -19.9 -303.0 -57.5" fill="#e0d6c0" fill-rule="evenodd" stroke="none"/>
    <path d="M44.25 -1.15 L69.7 32.05 73.15 38.3 Q76.15 45.2 74.1 48.65 72.05 52.1 59.05 57.35 52.55 59.95 46.45 61.9 L71.9 63.0 40.95 88.45 52.0 89.7 Q62.55 91.05 59.75 91.75 56.95 92.45 44.25 104.9 37.9 111.15 32.1 117.25 L8.85 80.7 -14.35 72.95 -16.55 32.05 -43.1 23.2 -46.45 -2.25 -26.5 -6.65 -48.65 -31.0 -121.65 -59.75 -189.1 -80.75 -263.35 -81.25 -305.2 24.3 -340.8 30.85 -478.85 11.05 -527.75 41.35 -535.25 3.3 -512.0 -15.5 -450.1 -69.7 -377.1 -90.7 -359.4 -107.3 -326.2 -104.0 -312.95 -132.75 -295.25 -120.55 -246.6 -155.95 -228.9 -141.6 -185.75 -158.15 -139.3 -109.5 -111.7 -131.6 -102.85 -175.85 -58.6 -102.85 -27.65 -67.5 52.0 -27.65 44.25 -1.15" fill="#c2ae81" fill-rule="evenodd" stroke="none"/>
    <path d="M258.8 26.55 L272.05 63.05 230.55 62.4 246.0 86.15 233.95 92.25 Q226.35 96.15 218.6 99.55 203.1 106.35 202.45 103.95 201.8 101.55 192.4 109.5 L183.1 117.9 159.2 129.5 139.45 131.75 116.55 134.55 Q113.9 135.0 104.75 147.45 L96.1 159.8 82.95 210.15 0.0 203.5 24.85 145.05 32.1 117.25 57.45 106.15 82.75 75.95 118.9 75.65 142.0 46.7 143.1 0.0 190.95 2.45 206.55 26.1 223.6 44.7 258.8 26.55" fill="#ac9153" fill-rule="evenodd" stroke="none"/>
    <path d="M-496.55 -37.6 L-487.7 -24.35 -479.95 -37.6 -482.15 -24.35 -460.05 -40.95 -468.9 -54.2 -484.35 -54.2 -463.35 -61.95 -466.65 -82.95 -441.25 -89.6 -398.1 -89.6 -399.2 -50.9 -371.55 -25.45 -357.2 -38.7 -335.05 -14.4 -311.85 18.8 -303.0 87.35 -308.55 111.7 Q-351.1 89.05 -393.7 66.35 L-483.25 70.75 -519.75 66.35 -515.35 48.65 -521.95 -21.05 -510.9 -25.45 -503.15 -11.1 -496.55 -37.6 M-416.9 -75.2 L-439.0 -69.7 -453.4 -56.4 -437.9 -40.95 -425.75 -44.25 -416.9 -60.85 -416.9 -75.2" fill="#342c18" fill-rule="evenodd" stroke="none"/>
    <path d="M-416.9 -75.2 L-416.9 -60.85 -425.75 -44.25 -437.9 -40.95 -453.4 -56.4 -439.0 -69.7 -416.9 -75.2 Z" fill="none" stroke="#000000" stroke-linecap="round" stroke-linejoin="round" stroke-width="1.0"/>
    <path d="M-306.3 128.25 L-357.2 170.3 -454.5 174.7 -515.35 161.45 -499.85 155.9 -506.5 157.0 -537.45 78.5 -525.3 32.05 -505.4 9.95 -474.4 33.15 -470.0 8.85 Q-458.9 16.6 -447.85 24.3 L-423.55 32.05 -402.55 15.45 -379.3 22.1 -369.35 0.0 -357.2 27.65 -335.05 32.05 -332.85 68.55 -301.9 99.5 -306.3 128.25" fill="#6d5b34" fill-rule="evenodd" stroke="none"/>
    <path d="M-260.95 -87.4 L-277.55 -45.35 -269.8 -25.45 -260.95 -7.75 -254.35 22.1 -232.2 2.2 -230.0 38.7 -215.65 19.9 -206.8 45.3 -191.3 30.95 -186.85 46.45 Q-182.45 61.4 -182.45 58.6 -182.45 55.8 -175.25 46.45 L-168.1 37.6 -159.25 64.15 -139.3 40.9 -133.8 61.9 -112.8 15.45 -115.0 53.05 -161.45 107.25 -131.6 109.45 -150.4 134.9 -115.0 145.95 -77.4 157.0 -77.4 200.15 -486.6 218.95 -523.05 194.6 -524.2 120.55 Q-524.2 118.45 -502.05 137.5 L-479.95 157.0 -474.4 127.15 -443.45 152.6 -434.6 131.6 -411.4 155.9 -402.55 127.15 -387.05 148.15 -386.25 131.45 Q-385.15 114.6 -383.75 113.9 -382.35 113.2 -366.85 124.55 L-351.65 136.0 -338.4 113.9 -322.9 129.35 -306.3 97.3 -317.4 19.9 -322.9 -36.5 -322.9 -59.75 -303.0 -81.85 -295.25 -65.25 -288.6 -88.5 -275.35 -70.8 -260.95 -87.4" fill="#d0c09d" fill-rule="evenodd" stroke="none"/>
    <path d="M183.6 99.5 L225.6 89.55 259.9 82.95 258.8 175.8 240.0 212.3 74.1 221.15 104.75 147.45 136.35 132.15 171.15 123.7 183.6 99.5" fill="#957648" fill-rule="evenodd" stroke="none"/>
    <path d="M188.5 -41.5 L207.3 -3.85 193.2 8.35 210.15 33.75 229.9 46.0 243.05 37.55 269.4 53.5 276.95 209.7 242.1 103.4 152.75 148.55 94.4 215.35 17.25 205.0 25.75 141.0 41.75 132.55 43.6 106.2 69.0 101.5 90.65 73.3 115.1 78.0 144.3 26.25 137.7 8.35 143.35 -4.8 178.15 -2.0 165.0 -14.2 165.0 -38.7 188.5 -41.5" fill="#392d1c" fill-rule="evenodd" stroke="none"/>
    <path d="M-39.15 170.4 L-59.7 122.75 -30.7 120.3 6.1 203.75 -12.7 207.7 -10.95 217.2 -58.0 210.65 -39.15 170.4" fill="#836841" fill-rule="evenodd" stroke="none"/>
    <path d="M193.55 -3.35 L179.2 34.25 234.45 95.1 237.8 121.65 192.45 163.65 73.0 180.25 -19.9 152.6 -59.7 122.75 -34.25 112.8 63.05 153.7 138.25 157.0 185.8 143.75 207.95 115.0 196.85 75.2 168.1 48.65 169.2 6.6 179.2 -11.1 Q186.4 -7.2 193.55 -3.35" fill="#453921" fill-rule="evenodd" stroke="none"/>
    <path d="M225.3 84.75 L234.1 103.7 229.35 113.85 232.05 124.0 212.45 144.3 203.65 144.95 198.2 152.4 167.1 165.9 123.15 174.05 87.3 172.7 83.9 153.05 117.05 155.8 120.45 165.25 123.8 148.35 157.65 143.6 163.05 154.4 163.05 139.55 192.15 126.7 201.6 131.4 201.6 116.55 210.4 103.7 219.85 104.35 203.65 90.15 208.35 80.7 217.15 86.8 225.3 84.75" fill="#1d140e" fill-rule="evenodd" stroke="none"/>
    <path d="M-351.35 -166.5 L-326.25 -140.2 -309.3 -134.9 -301.1 -120.3 -302.7 -112.65 Q-310.25 -120.9 -318.5 -128.0 L-318.95 -127.35 Q-323.5 -116.0 -327.1 -105.95 L-330.9 -106.3 -332.65 -117.4 -355.45 -133.75 -369.5 -165.9 -353.1 -186.95 -342.6 -182.85 -351.35 -166.5" fill="#342c18" fill-rule="evenodd" stroke="none"/>
    <path d="M-335.3 -163.9 L-342.3 -171.1 -359.45 -177.0 -377.1 -177.1 -363.7 -190.85 -330.5 -183.55 -318.7 -171.35 -335.3 -163.9" fill="#c2ae81" fill-rule="evenodd" stroke="none"/>
    <path d="M204.55 -297.4 L195.1 -275.75 178.2 -274.8 223.35 -261.65 234.65 -281.4 228.05 -300.2 255.35 -279.5 257.2 -237.2 222.4 -246.6 206.4 -237.2 185.7 -259.75 150.9 -269.2 92.55 -271.05 76.6 -259.75 32.35 -284.25 41.75 -301.15 60.6 -280.45 97.3 -295.5 137.75 -278.6 189.45 -288.0 181.95 -300.2 204.55 -297.4 M174.4 -211.8 L204.5 -224.95 215.8 -210.85 202.6 -188.25 160.25 -216.5 161.2 -231.55 118.9 -229.65 84.05 -223.1 84.05 -240.95 104.75 -264.45 109.45 -251.3 137.7 -247.55 126.4 -235.3 180.95 -243.75 174.4 -211.8 M39.85 -256.0 L32.3 -244.7 57.75 -254.1 65.25 -242.85 65.25 -224.0 42.65 -220.25 12.55 -241.9 22.0 -261.65 -8.15 -270.1 15.4 -280.45 39.85 -256.0 M101.1 -161.45 L101.65 -160.15 100.9 -158.9 99.75 -157.9 98.3 -158.4 Q97.85 -158.75 97.85 -160.3 97.85 -161.85 98.45 -162.3 L99.75 -162.65 Q100.5 -162.35 101.1 -161.45 M97.85 -170.25 Q97.4 -169.0 95.95 -168.35 L95.25 -168.7 94.05 -169.55 Q94.05 -170.15 94.55 -170.9 L95.95 -172.15 Q97.5 -171.35 97.85 -170.25 M95.0 -160.75 Q96.45 -160.2 96.9 -158.85 L95.75 -157.75 Q94.75 -157.1 94.05 -157.1 L93.35 -157.4 92.15 -158.25 93.8 -160.15 Q94.55 -160.75 95.0 -160.75 M93.45 -150.65 Q93.1 -150.9 93.1 -152.35 93.1 -153.2 93.7 -153.55 95.45 -154.55 101.75 -154.25 L102.0 -153.35 102.45 -152.35 Q102.0 -151.0 100.7 -150.45 L93.8 -150.45 Q93.8 -150.65 93.45 -150.65 M111.05 -130.1 L110.05 -130.95 Q111.6 -133.05 112.45 -133.45 115.8 -134.9 125.4 -134.5 L125.7 -134.3 125.95 -132.6 125.8 -131.2 125.4 -130.7 113.25 -129.75 111.05 -130.1 M94.65 -144.6 Q95.0 -144.4 95.0 -142.95 95.0 -141.6 94.8 -141.55 L94.25 -141.05 66.7 -141.05 Q61.8 -142.1 60.2 -143.05 L60.2 -145.35 94.25 -144.75 94.65 -144.6 M81.8 -130.25 Q81.8 -125.95 77.5 -125.95 75.25 -125.95 74.55 -127.3 74.3 -127.85 74.3 -128.95 74.3 -130.6 76.0 -132.15 77.6 -133.55 78.95 -133.55 L80.5 -133.5 81.55 -133.1 81.8 -130.25 M104.6 -101.5 L78.0 -101.5 Q73.85 -102.05 72.8 -103.95 72.4 -104.7 72.4 -107.2 72.4 -114.95 75.25 -116.6 76.5 -114.85 76.7 -112.7 76.9 -110.65 76.1 -109.7 L76.1 -105.8 104.6 -105.3 104.95 -105.1 Q105.3 -104.85 105.3 -103.4 105.3 -102.05 105.1 -102.0 L104.6 -101.5 M154.2 -111.75 L154.0 -110.75 153.5 -110.4 151.4 -110.05 Q148.45 -110.05 147.8 -111.85 L147.7 -114.1 Q147.7 -117.05 151.0 -117.35 154.25 -117.65 154.25 -113.5 L154.2 -111.75 M149.35 -101.05 L149.95 -99.0 Q150.45 -97.55 150.45 -96.15 150.45 -94.6 147.75 -93.3 145.25 -92.15 142.95 -92.15 L139.15 -92.6 139.15 -99.0 Q141.0 -100.25 143.9 -100.95 147.25 -101.75 149.35 -101.05 M60.2 -171.0 Q61.75 -172.2 64.2 -171.55 L64.8 -170.25 64.2 -168.85 Q62.9 -168.35 60.9 -168.35 L60.55 -169.6 Q60.2 -170.6 60.2 -171.0 M58.3 -163.85 Q59.15 -165.1 59.95 -165.55 L61.35 -166.0 Q61.85 -165.3 61.95 -164.55 61.8 -163.35 60.2 -162.65 L59.5 -163.0 Q58.75 -163.4 58.3 -163.85 M75.55 -165.85 L74.3 -166.7 Q75.85 -169.3 77.05 -169.3 78.5 -168.75 78.95 -167.4 L77.8 -166.2 Q76.85 -165.5 76.2 -165.5 L75.55 -165.85 M19.7 -161.25 L19.75 -162.75 20.15 -163.4 21.6 -163.6 23.0 -163.25 Q23.5 -163.0 23.5 -161.5 L23.35 -159.9 23.0 -159.6 Q22.55 -159.2 21.6 -158.85 L20.2 -159.35 Q19.7 -159.7 19.7 -161.25 M35.35 -139.8 Q35.7 -139.7 35.7 -138.2 35.7 -135.75 31.3 -135.0 L15.9 -132.05 18.75 -127.5 Q18.75 -126.1 8.85 -123.6 -0.55 -121.2 -4.15 -121.2 L-6.4 -121.55 -7.45 -122.4 Q-5.3 -125.5 0.8 -126.55 L12.9 -128.35 11.8 -131.15 Q11.25 -132.8 11.25 -134.3 22.3 -142.35 35.0 -139.65 35.2 -139.9 35.35 -139.8 M26.6 -126.2 Q26.2 -126.45 26.2 -127.85 26.2 -129.25 29.0 -130.35 31.3 -131.2 33.1 -131.2 L33.65 -130.95 33.8 -129.4 Q33.8 -128.0 32.9 -127.0 32.05 -126.05 30.95 -125.95 L26.95 -125.95 26.6 -126.2 M67.65 -125.95 L66.25 -126.4 Q65.75 -126.7 65.75 -128.25 65.75 -129.75 66.9 -130.75 68.25 -131.85 71.45 -132.6 73.0 -132.0 73.35 -130.7 L70.45 -128.0 67.65 -125.95 M44.9 -77.05 Q43.9 -76.1 42.75 -76.1 L40.45 -76.55 40.45 -83.0 Q42.1 -85.45 44.15 -83.85 46.05 -82.35 46.05 -79.9 46.05 -78.2 44.9 -77.05 M59.25 -53.55 Q60.65 -51.25 60.55 -50.6 60.2 -50.15 60.2 -49.5 60.2 -48.3 61.1 -47.75 61.95 -47.25 61.95 -46.05 61.95 -42.65 54.65 -39.6 45.2 -35.65 44.15 -34.75 43.15 -35.1 42.75 -35.6 42.25 -36.35 42.25 -38.0 42.25 -40.6 44.0 -42.25 46.35 -44.55 50.7 -42.5 L50.9 -45.6 53.7 -45.85 57.35 -45.6 56.9 -47.35 Q56.4 -48.55 56.4 -49.85 56.4 -51.85 59.25 -53.55 M72.8 -65.1 Q72.4 -65.25 72.4 -66.7 72.4 -68.2 73.45 -68.45 L75.25 -68.6 Q76.9 -67.95 77.05 -66.7 L76.75 -65.5 Q76.3 -64.8 74.8 -64.8 L73.15 -65.3 72.8 -65.1 M62.45 -53.0 Q61.95 -53.3 61.95 -54.85 61.95 -56.8 66.35 -58.45 71.8 -60.55 80.15 -59.7 L80.5 -59.8 Q80.85 -59.65 80.85 -58.15 80.85 -57.3 75.85 -56.1 68.35 -54.35 63.85 -52.6 L62.45 -53.0 M14.95 -68.75 Q14.95 -70.3 15.55 -70.9 15.9 -71.25 16.85 -71.45 19.15 -69.5 19.45 -65.0 L19.45 -62.65 Q23.45 -62.75 28.5 -62.45 L28.9 -62.25 29.05 -60.8 28.9 -59.2 28.6 -58.5 Q21.1 -57.8 19.7 -57.2 L19.7 -49.75 Q19.45 -49.75 18.9 -49.35 18.3 -48.9 17.8 -48.8 16.8 -53.35 16.15 -57.2 L6.25 -57.2 5.9 -57.55 Q5.55 -57.8 5.55 -59.25 5.55 -60.9 10.2 -61.85 L15.35 -62.5 Q14.95 -66.0 14.95 -68.75 M156.15 -94.15 Q156.15 -96.8 157.75 -99.25 159.7 -102.25 162.9 -102.0 L163.25 -102.25 Q163.6 -102.15 163.6 -100.7 163.6 -99.55 162.15 -97.0 L159.2 -91.65 158.05 -91.2 Q156.15 -93.25 156.15 -94.15 M141.05 -71.0 Q141.05 -72.6 144.0 -74.15 146.9 -75.7 149.35 -75.6 L149.5 -73.25 Q149.5 -71.35 146.85 -69.35 L144.65 -67.85 144.85 -67.65 144.25 -66.45 Q143.55 -65.75 142.0 -65.75 L139.85 -66.25 139.25 -66.7 139.15 -68.4 139.2 -70.15 139.4 -71.0 141.05 -70.65 141.05 -71.0 M102.45 -86.45 Q101.25 -87.0 100.7 -87.6 102.3 -90.6 104.25 -91.55 107.35 -93.1 111.95 -90.25 109.05 -88.1 106.7 -87.2 104.65 -86.45 102.45 -86.45 M97.5 -93.6 Q97.85 -93.2 97.85 -91.75 L97.6 -90.0 Q95.25 -90.0 91.0 -88.65 L83.7 -86.45 82.3 -86.9 Q81.8 -87.2 81.8 -88.7 81.8 -91.5 85.6 -92.5 L97.1 -94.05 97.5 -93.6 M98.15 -68.85 Q97.85 -69.1 97.85 -70.5 97.85 -72.15 102.15 -73.1 L115.65 -75.15 Q117.1 -74.55 117.55 -73.25 116.25 -72.0 113.7 -71.2 L105.3 -68.6 98.4 -68.6 98.15 -68.85 M-391.05 -300.2 L-373.15 -320.0 -352.45 -300.2 -322.35 -315.25 -304.5 -288.95 -248.05 -314.35 -229.2 -288.95 -208.5 -289.85 -205.7 -305.85 -193.45 -288.95 -222.65 -272.0 -267.8 -294.6 -283.8 -285.15 -317.65 -275.75 -331.75 -292.7 -400.45 -281.4 -463.5 -278.6 -499.25 -247.55 -528.4 -259.75 -528.4 -293.65 -493.6 -276.7 -466.3 -299.3 -391.05 -300.2 M-471.95 -234.35 L-452.2 -259.75 -445.6 -225.9 -412.65 -234.35 -413.6 -258.85 -379.75 -248.5 -369.4 -272.0 -336.45 -260.7 -320.45 -253.2 -309.2 -273.9 -299.8 -265.4 -317.65 -245.65 -352.45 -256.95 -369.4 -240.0 -398.55 -241.9 -414.55 -208.0 -460.65 -214.6 -471.95 -234.35 M-496.25 -15.45 Q-495.75 -15.15 -495.75 -13.65 L-495.9 -12.55 Q-496.25 -11.5 -497.55 -11.25 L-498.25 -11.5 Q-499.0 -11.9 -499.45 -12.35 -499.45 -13.4 -498.85 -14.55 -498.25 -15.7 -497.55 -15.9 L-496.25 -15.45 M-450.5 -13.05 Q-451.0 -11.7 -452.4 -11.25 L-453.8 -11.4 Q-454.3 -11.55 -454.3 -13.05 -454.3 -14.55 -453.2 -14.7 L-451.25 -14.45 -450.5 -13.05 M-455.75 -1.5 L-454.3 -1.75 -452.9 -1.45 Q-452.4 -1.25 -452.4 0.2 -452.4 1.65 -452.55 1.8 L-452.9 2.1 -454.3 2.85 -455.7 2.4 Q-456.2 2.05 -456.2 0.55 L-456.15 -0.9 -455.75 -1.5 M-436.4 -8.4 Q-436.75 -7.15 -438.3 -6.5 L-438.95 -6.85 -440.2 -7.7 -439.7 -9.05 -438.3 -10.3 Q-436.7 -9.5 -436.4 -8.4 M-428.9 -8.4 Q-429.1 -7.85 -430.05 -7.2 -431.05 -6.5 -431.75 -6.5 L-432.45 -6.85 Q-433.2 -7.25 -433.65 -7.7 L-431.95 -9.75 Q-431.25 -10.3 -430.8 -10.3 -429.3 -9.55 -428.9 -8.4 M-386.65 -14.0 Q-386.85 -13.3 -387.2 -12.55 L-388.1 -12.3 -390.55 -12.1 -390.9 -13.3 -391.25 -14.7 Q-389.9 -16.05 -387.2 -15.4 L-386.65 -14.0 M-397.9 -5.55 Q-398.1 -5.0 -399.0 -4.35 -399.95 -3.65 -400.65 -3.65 L-401.35 -4.0 -402.55 -4.85 -400.85 -6.9 Q-400.15 -7.45 -399.7 -7.45 -398.4 -6.9 -397.9 -5.55 M-386.65 -1.75 L-387.3 -2.1 Q-388.1 -2.5 -388.55 -2.95 L-386.85 -5.0 Q-386.15 -5.55 -385.7 -5.55 -384.2 -5.0 -383.8 -3.65 -383.95 -3.1 -384.95 -2.45 -385.95 -1.75 -386.65 -1.75 M-266.8 -202.45 Q-264.6 -203.85 -263.1 -200.25 -262.75 -199.6 -262.8 -196.8 -262.9 -194.2 -261.6 -192.8 L-261.75 -192.0 Q-262.0 -191.55 -262.95 -191.55 -265.6 -191.55 -267.45 -195.15 -268.8 -197.8 -268.8 -199.1 -268.8 -201.25 -266.8 -202.45 M-245.4 -214.5 Q-245.4 -218.85 -243.55 -216.25 L-240.0 -209.9 -240.45 -209.85 -240.9 -210.35 Q-241.35 -209.55 -242.45 -208.5 -243.45 -209.5 -244.45 -211.45 -245.4 -213.4 -245.4 -214.5 M-254.6 -202.5 L-254.75 -200.7 -254.85 -200.45 -255.9 -200.25 Q-257.2 -200.25 -259.05 -203.2 L-260.6 -205.8 Q-260.6 -209.1 -257.6 -207.55 -254.6 -206.0 -254.6 -202.5 M-244.6 -202.4 L-244.8 -201.9 -245.25 -201.6 Q-245.7 -201.3 -246.6 -201.3 -248.35 -201.3 -249.2 -203.75 -249.75 -205.3 -249.75 -206.4 -249.75 -209.05 -247.1 -208.0 -244.5 -207.0 -244.5 -203.4 L-244.6 -202.4 M-175.6 -262.6 L-172.75 -284.25 -159.6 -282.35 -165.25 -269.2 -155.85 -263.55 -169.0 -252.25 -184.05 -255.05 -184.05 -237.2 -214.9 -234.55 -203.5 -230.55 -196.7 -231.75 -195.8 -191.05 -201.3 -200.35 -204.05 -194.9 -201.85 -186.1 -207.35 -183.35 -210.65 -176.2 -216.7 -183.9 -220.5 -172.9 -225.45 -175.65 -228.75 -172.35 -230.4 -178.4 -233.7 -177.85 Q-234.1 -220.0 -234.8 -247.9 L-228.75 -242.75 -229.2 -251.3 -239.55 -256.0 -215.1 -264.45 -212.3 -241.9 -191.6 -274.8 -175.6 -262.6 M-188.4 -201.2 Q-188.4 -198.7 -188.55 -197.95 -189.1 -195.6 -191.1 -195.6 -191.5 -195.6 -192.5 -199.0 L-193.4 -202.05 Q-193.4 -207.0 -190.9 -206.55 -188.4 -206.1 -188.4 -201.2 M-182.25 -198.5 Q-182.25 -197.45 -183.0 -196.35 -183.85 -195.15 -184.95 -195.15 -186.65 -195.15 -186.95 -196.35 L-186.95 -197.7 Q-186.95 -200.3 -184.6 -200.8 -182.25 -201.25 -182.25 -198.5 M-173.85 -194.6 Q-173.85 -193.65 -174.2 -192.95 L-174.8 -191.9 -174.75 -191.8 -175.85 -191.7 Q-176.6 -191.7 -178.8 -195.0 -178.8 -198.05 -176.3 -197.6 -173.85 -197.15 -173.85 -194.6 M-178.1 -192.6 Q-177.0 -191.6 -177.0 -188.6 -177.0 -186.75 -177.75 -184.65 -178.85 -181.4 -181.1 -181.4 -183.0 -181.4 -184.05 -185.25 -184.05 -190.45 -180.5 -192.6 -179.05 -193.5 -178.1 -192.6 M-175.85 -173.55 Q-175.85 -172.2 -177.6 -169.55 -179.65 -166.5 -181.7 -166.5 -183.6 -166.5 -184.35 -167.7 L-184.8 -169.05 -184.1 -170.5 Q-183.45 -171.8 -183.45 -172.5 -183.45 -175.45 -179.65 -176.4 -175.85 -177.3 -175.85 -173.55 M-175.55 -180.8 Q-175.55 -183.4 -172.55 -186.2 -169.55 -189.0 -169.55 -184.5 -169.5 -182.9 -170.0 -181.45 -170.95 -178.5 -173.55 -178.5 -175.0 -178.5 -175.4 -179.55 L-175.55 -180.8 M-196.85 -191.5 Q-193.65 -189.9 -193.65 -186.35 -193.65 -183.3 -195.75 -183.3 -196.75 -183.3 -198.55 -186.65 L-200.1 -189.75 Q-200.1 -193.15 -196.85 -191.5 M-199.3 -177.35 Q-200.9 -174.7 -202.2 -174.0 L-203.1 -174.2 Q-203.45 -174.4 -203.45 -175.35 -203.45 -178.65 -200.65 -182.0 -197.9 -185.35 -197.9 -180.6 -197.9 -179.75 -199.3 -177.35 M-199.35 -165.4 Q-201.15 -162.75 -202.8 -162.75 -204.1 -162.75 -204.75 -163.6 -205.2 -164.15 -205.2 -164.9 -205.2 -166.5 -201.45 -169.9 -197.75 -173.3 -197.75 -168.9 -197.75 -167.7 -199.35 -165.4 M-238.7 -174.6 Q-236.1 -172.55 -236.1 -169.35 -236.1 -169.1 -236.65 -168.05 -237.25 -166.95 -237.8 -166.35 -239.35 -167.55 -240.35 -169.75 -241.35 -171.85 -241.35 -173.7 -241.35 -176.7 -238.7 -174.6 M-212.55 -164.05 Q-212.85 -162.3 -214.7 -162.3 -217.0 -162.3 -217.5 -165.95 -217.7 -167.8 -217.5 -169.8 L-217.2 -174.45 Q-213.75 -175.55 -212.85 -172.1 -212.55 -170.95 -212.55 -167.1 -212.35 -165.0 -212.55 -164.05 M-247.8 -191.75 L-250.65 -196.65 Q-250.65 -201.8 -246.6 -197.8 -242.6 -193.85 -242.6 -190.2 -242.6 -187.1 -244.8 -187.1 L-247.8 -191.75 M-256.1 -191.9 L-257.7 -190.8 Q-258.85 -191.1 -260.05 -192.75 -261.15 -194.25 -261.15 -195.0 -261.15 -197.8 -258.45 -196.7 -255.75 -195.6 -255.75 -193.5 -255.75 -192.4 -256.1 -191.9 M-254.0 -175.9 Q-249.9 -172.65 -249.9 -169.55 -249.9 -169.35 -251.8 -168.45 -253.65 -167.55 -253.85 -167.55 -254.95 -167.55 -256.65 -171.75 L-258.15 -175.7 Q-258.15 -179.2 -254.0 -175.9 M-250.0 -182.8 Q-248.45 -184.25 -246.75 -181.25 -246.75 -179.5 -245.7 -176.45 L-245.7 -173.85 -245.65 -173.55 Q-245.7 -173.25 -246.6 -173.25 -247.05 -173.25 -249.2 -176.85 L-251.25 -180.45 Q-251.25 -181.65 -250.0 -182.8 M-270.05 -186.2 L-270.3 -185.85 -270.45 -185.55 Q-270.75 -185.25 -271.7 -185.25 -274.9 -185.25 -275.95 -189.0 -276.35 -190.55 -276.35 -193.65 -276.35 -195.8 -275.35 -195.85 -274.5 -195.95 -273.15 -194.5 -270.0 -190.95 -270.0 -187.1 L-270.05 -186.2 M-272.5 -46.25 L-261.65 -59.85 -231.55 -72.1 -192.5 -77.75 -191.1 -58.45 -198.15 -55.15 -199.55 -72.1 -212.75 -47.65 -228.25 -49.5 -245.65 -33.55 -251.8 -51.4 -259.75 -39.15 -272.5 -46.25 M-112.55 -25.05 L-105.0 -4.85 -126.65 12.1 -137.0 -7.65 -147.35 7.4 -151.6 3.65 -133.7 -18.0 -112.55 -25.05 M-182.15 -50.95 L-181.2 -66.0 -168.05 -68.8 -156.75 -59.4 -164.25 -45.3 -182.15 -50.95 M-14.0 -91.2 Q-14.0 -89.95 -22.1 -80.6 -30.05 -71.45 -30.5 -71.45 L-32.85 -71.95 -32.85 -77.5 Q-29.65 -79.9 -24.05 -85.5 -18.55 -91.15 -15.9 -93.1 L-14.5 -92.85 Q-14.0 -92.65 -14.0 -91.2 M-11.15 -86.45 L-9.85 -86.1 Q-9.35 -85.8 -9.35 -84.3 -9.35 -82.9 -10.15 -81.8 -10.7 -80.95 -12.1 -79.9 L-13.9 -80.15 Q-14.95 -80.65 -14.95 -82.15 -14.95 -82.9 -13.85 -84.15 L-11.15 -86.45 M-29.15 -89.5 L-29.05 -87.95 Q-29.05 -85.8 -30.7 -84.2 -32.2 -82.75 -33.8 -82.75 L-35.4 -82.8 -36.55 -83.2 Q-36.55 -85.35 -34.65 -87.35 -32.5 -89.75 -29.3 -89.75 L-29.15 -89.5 M-217.9 81.7 L-202.85 54.45 -189.65 89.25 -203.8 70.45 -217.9 81.7 M-227.3 133.45 L-222.6 110.9 -204.75 136.3 -227.3 133.45 M-373.8 82.35 L-379.0 82.35 Q-379.35 82.0 -381.0 81.4 -382.9 80.65 -384.15 80.55 -384.5 80.9 -384.5 79.8 -384.5 76.3 -379.1 77.85 -373.7 79.35 -373.7 81.3 L-373.8 82.35 M-405.4 5.55 Q-405.9 6.9 -407.3 7.45 L-408.0 7.15 -409.2 6.25 -409.2 4.15 -407.85 4.0 -406.1 4.15 -405.4 5.55" fill="#ffffff" fill-rule="evenodd" stroke="none"/>
    <path d="M-344.45 27.65 L-343.5 32.35 -463.9 88.35 -477.1 38.95 -424.95 34.55 -435.25 17.3 -374.1 -1.05 -370.3 3.2 -399.75 32.4 -344.45 27.65 M-451.2 32.35 L-485.1 3.2 -484.15 -1.5 -440.85 18.7 -451.2 32.35" fill="#c8c8c8" fill-rule="evenodd" stroke="none"/>
    <path d="M-331.75 -101.7 L-315.75 -130.9 -300.7 -117.7 -245.2 -153.45 -240.5 -117.7 -256.45 -110.2 -250.85 -99.85 -287.5 -76.3 -297.85 -99.85 -298.8 -83.85 -319.5 -100.75 -322.35 -78.2 -341.15 -81.0 -360.9 -72.55 -351.5 -103.6 -331.75 -101.7 M-194.4 -105.45 L-205.65 -110.2 -210.35 -97.95 -222.6 -137.45 -205.65 -154.4 -198.15 -145.0 -185.9 -151.55 -177.45 -122.4 -189.65 -122.4 -194.4 -105.45 M-228.25 80.8 L-256.45 73.25 -270.6 87.35 -271.5 76.05 -277.15 73.25 -260.25 51.6 -248.95 68.55 -230.15 40.3 -220.7 63.85 -230.15 63.85 -228.25 80.8 M-282.8 123.1 L-264.95 89.25 -251.75 128.75 -264.95 112.75 -264.0 140.05 -272.45 121.25 -282.8 123.1 M-304.45 120.3 L-310.1 150.4 -314.8 124.05 -331.75 128.75 -298.8 100.55 -296.9 134.4 -304.45 120.3 M-190.6 112.75 L-173.7 86.4 -157.7 117.45 -173.7 112.75 -190.6 112.75" fill="#eeeeee" fill-rule="evenodd" stroke="none"/>
    <path d="M211.1 86.4 L224.3 88.3 229.9 101.5 214.85 96.75 211.1 86.4 M214.85 103.35 L228.05 112.75 213.95 128.75 200.75 123.1 214.85 103.35 M187.6 129.7 L202.65 134.4 172.55 152.3 165.0 142.85 187.6 129.7 M90.7 153.2 L114.2 152.3 115.15 162.65 87.85 162.65 90.7 153.2 M159.35 145.7 L164.05 156.05 124.55 162.65 118.9 151.35 159.35 145.7" fill="#b3b3b3" fill-rule="evenodd" stroke="none"/>
  </g>
</svg>
