<?xml version="1.0" encoding="UTF-8" standalone="no"?>
<svg xmlns:xlink="http://www.w3.org/1999/xlink" height="67.95px" width="12.95px" xmlns="http://www.w3.org/2000/svg">
  <g transform="matrix(1.0, 0.0, 0.0, 1.0, 6.65, 39.4)">
    <path d="M-0.2 -35.8 L3.4 -31.45 4.8 16.45 -5.15 8.05 -4.25 -12.85 -0.95 -15.6 -0.2 -35.8" fill="url(#gradient0)" fill-rule="evenodd" stroke="none"/>
    <path d="M-4.25 -12.85 L-3.15 -39.4 -0.2 -35.8 -0.95 -15.6 -4.25 -12.85" fill="url(#gradient1)" fill-rule="evenodd" stroke="none"/>
    <path d="M-4.25 -12.85 L-3.15 -39.4 -0.2 -35.8 3.4 -31.45 4.8 16.45 -5.15 8.05 -4.25 -12.85 -0.95 -15.6 -0.2 -35.8" fill="none" stroke="#000000" stroke-linecap="round" stroke-linejoin="round" stroke-width="0.05"/>
    <path d="M-3.7 10.4 L-6.65 8.15 -6.2 4.0 -4.15 5.15 0.5 7.7 6.3 10.85 5.0 17.0 1.6 14.4 -3.7 10.4" fill="url(#gradient2)" fill-rule="evenodd" stroke="none"/>
    <path d="M0.5 3.75 L-5.3 1.55 -4.95 -0.15 4.2 -0.75 4.5 2.6 0.5 3.75" fill="url(#gradient3)" fill-rule="evenodd" stroke="none"/>
    <path d="M3.95 -3.35 L-4.6 -6.0 -4.45 -8.75 4.55 -6.1 3.95 -3.35" fill="url(#gradient4)" fill-rule="evenodd" stroke="none"/>
    <path d="M-4.15 5.15 L0.5 3.75 4.5 2.6 5.15 2.4 5.95 5.15 0.5 7.7 -4.15 5.15" fill="url(#gradient5)" fill-rule="evenodd" stroke="none"/>
    <path d="M1.6 14.4 Q-0.45 20.6 1.3 28.55 L-1.8 27.95 -3.7 10.4 1.6 14.4" fill="url(#gradient6)" fill-rule="evenodd" stroke="none"/>
    <path d="M3.95 -3.35 L-4.6 -6.0 -4.45 -8.75 4.55 -6.1 3.95 -3.35 M-3.7 10.4 L-6.65 8.15 -6.2 4.0 -4.15 5.15 0.5 3.75 -5.3 1.55 -4.95 -0.15 4.2 -0.75 4.5 2.6 5.15 2.4 5.95 5.15 0.5 7.7 6.3 10.85 5.0 17.0 1.6 14.4 Q-0.45 20.6 1.3 28.55 L-1.8 27.95 -3.7 10.4 1.6 14.4 M0.5 3.75 L4.5 2.6 M-4.15 5.15 L0.5 7.7" fill="none" stroke="#000000" stroke-linecap="round" stroke-linejoin="round" stroke-width="0.05"/>
  </g>
  <defs>
    <radialGradient cx="0" cy="0" gradientTransform="matrix(0.036, 0.0, 0.0, 0.036, 5.25, -13.25)" gradientUnits="userSpaceOnUse" id="gradient0" r="819.2" spreadMethod="pad">
      <stop offset="0.0" stop-color="#ffffff"/>
      <stop offset="0.42745098039215684" stop-color="#7c9aad"/>
      <stop offset="0.44313725490196076" stop-color="#58607c"/>
      <stop offset="0.6470588235294118" stop-color="#7e8aa3"/>
      <stop offset="1.0" stop-color="#c2cde7"/>
    </radialGradient>
    <linearGradient gradientTransform="matrix(4.0E-4, -0.0162, 0.0021, 1.0E-4, -2.2, -26.1)" gradientUnits="userSpaceOnUse" id="gradient1" spreadMethod="pad" x1="-819.2" x2="819.2">
      <stop offset="0.0" stop-color="#0d0d0d"/>
      <stop offset="1.0" stop-color="#272e36"/>
    </linearGradient>
    <linearGradient gradientTransform="matrix(0.0079, 0.0, 0.0, 0.0079, -0.2, 10.5)" gradientUnits="userSpaceOnUse" id="gradient2" spreadMethod="pad" x1="-819.2" x2="819.2">
      <stop offset="0.0" stop-color="#6b7a77"/>
      <stop offset="1.0" stop-color="#404548"/>
    </linearGradient>
    <linearGradient gradientTransform="matrix(0.006, 0.0, 0.0, 0.0027, -0.4, 1.5)" gradientUnits="userSpaceOnUse" id="gradient3" spreadMethod="pad" x1="-819.2" x2="819.2">
      <stop offset="0.0" stop-color="#6b7a77"/>
      <stop offset="1.0" stop-color="#404548"/>
    </linearGradient>
    <linearGradient gradientTransform="matrix(0.0056, 0.0, 0.0, 0.0033, -0.05, -6.05)" gradientUnits="userSpaceOnUse" id="gradient4" spreadMethod="pad" x1="-819.2" x2="819.2">
      <stop offset="0.0" stop-color="#657181"/>
      <stop offset="1.0" stop-color="#463f49"/>
    </linearGradient>
    <linearGradient gradientTransform="matrix(0.0062, 0.0, 0.0, 0.0032, 0.9, 5.05)" gradientUnits="userSpaceOnUse" id="gradient5" spreadMethod="pad" x1="-819.2" x2="819.2">
      <stop offset="0.0" stop-color="#657181"/>
      <stop offset="1.0" stop-color="#463f49"/>
    </linearGradient>
    <linearGradient gradientTransform="matrix(5.0E-4, -0.0109, 0.0036, 2.0E-4, -1.2, 19.55)" gradientUnits="userSpaceOnUse" id="gradient6" spreadMethod="pad" x1="-819.2" x2="819.2">
      <stop offset="0.0" stop-color="#657181"/>
      <stop offset="1.0" stop-color="#463f49"/>
    </linearGradient>
  </defs>
</svg>
