<?xml version="1.0" encoding="UTF-8" standalone="no"?>
<svg xmlns:xlink="http://www.w3.org/1999/xlink" height="30.25px" width="20.1px" xmlns="http://www.w3.org/2000/svg">
  <g transform="matrix(1.0, 0.0, 0.0, 1.0, 15.05, 26.0)">
    <path d="M-1.55 -2.35 L-3.4 -1.35 -5.1 -4.1 -7.4 -3.55 -15.05 -16.35 -9.7 -21.2 -1.55 -2.35" fill="url(#gradient0)" fill-rule="evenodd" stroke="none"/>
    <path d="M0.2 -3.25 L-0.35 -7.5 -2.15 -7.15 -6.85 -22.05 -2.55 -26.0 1.8 -4.05 0.2 -3.25" fill="url(#gradient1)" fill-rule="evenodd" stroke="none"/>
    <path d="M0.2 -3.25 L-0.35 -7.5 -2.15 -7.15 -6.85 -22.05 -2.55 -26.0 1.8 -4.05 0.2 -3.25 0.45 -1.45 M-1.55 -2.35 L-3.4 -1.35 -3.3 -1.2 -1.35 -1.9 -1.55 -2.35 -9.7 -21.2 -15.05 -16.35 -7.4 -3.55 -5.1 -4.1 -3.4 -1.35 M-1.55 -2.35 L0.2 -3.25" fill="none" stroke="#000000" stroke-linecap="round" stroke-linejoin="round" stroke-width="0.05"/>
    <path d="M1.3 -4.75 L1.4 -4.75 1.5 -4.75 2.5 -4.65 Q4.7 -1.55 5.05 1.75 2.7 4.9 -1.75 4.05 -2.45 1.35 -4.35 -0.4 L-3.3 -1.8 -2.6 -2.65 -2.45 -2.75 -1.7 -3.45 -0.7 -4.1 -0.5 -4.2 1.3 -4.75" fill="url(#gradient2)" fill-rule="evenodd" stroke="none"/>
    <path d="M1.3 -4.75 L1.4 -4.75 1.5 -4.75 2.5 -4.65 Q4.7 -1.55 5.05 1.75 2.7 4.9 -1.75 4.05 -2.45 1.35 -4.35 -0.4 L-3.3 -1.8 -2.6 -2.65 -2.45 -2.75 -1.7 -3.45" fill="none" stroke="#000000" stroke-linecap="round" stroke-linejoin="round" stroke-width="0.05"/>
  </g>
  <defs>
    <linearGradient gradientTransform="matrix(0.0065, 0.0105, -0.0038, 0.0024, -7.5, -10.65)" gradientUnits="userSpaceOnUse" id="gradient0" spreadMethod="pad" x1="-819.2" x2="819.2">
      <stop offset="0.0" stop-color="#973e8e"/>
      <stop offset="0.4549019607843137" stop-color="#302332"/>
      <stop offset="1.0" stop-color="#1e1f26"/>
    </linearGradient>
    <linearGradient gradientTransform="matrix(0.0067, 0.0109, -0.0051, 0.0031, -1.1, -14.6)" gradientUnits="userSpaceOnUse" id="gradient1" spreadMethod="pad" x1="-819.2" x2="819.2">
      <stop offset="0.0" stop-color="#973e8e"/>
      <stop offset="0.4549019607843137" stop-color="#302332"/>
      <stop offset="1.0" stop-color="#1e1f26"/>
    </linearGradient>
    <radialGradient cx="0" cy="0" gradientTransform="matrix(0.0108, 0.0, 0.0, 0.0108, 1.75, -3.4)" gradientUnits="userSpaceOnUse" id="gradient2" r="819.2" spreadMethod="pad">
      <stop offset="0.01568627450980392" stop-color="#47324e"/>
      <stop offset="1.0" stop-color="#1c161d"/>
    </radialGradient>
  </defs>
</svg>
