<?xml version="1.0" encoding="UTF-8" standalone="no"?>
<svg xmlns:xlink="http://www.w3.org/1999/xlink" height="53.95px" width="24.75px" xmlns="http://www.w3.org/2000/svg">
  <g transform="matrix(1.0, 0.0, 0.0, 1.0, 8.85, 35.0)">
    <path d="M6.25 -8.75 L-6.9 -10.1 -7.1 -13.1 Q-2.15 -21.6 7.7 -12.3 L6.25 -8.75" fill="url(#gradient0)" fill-rule="evenodd" stroke="none"/>
    <path d="M6.25 -8.75 L-6.9 -10.1 -7.1 -13.1 Q-2.15 -21.6 7.7 -12.3 L6.25 -8.75 Z" fill="none" stroke="#000000" stroke-linecap="round" stroke-linejoin="round" stroke-width="0.05"/>
    <path d="M7.2 -35.0 L10.2 -31.05 6.95 -16.15 5.7 -16.5 5.3 -12.25 4.2 -13.05 7.2 -35.0" fill="url(#gradient1)" fill-rule="evenodd" stroke="none"/>
    <path d="M12.2 -30.2 L15.9 -25.35 10.6 -12.55 9.0 -13.1 7.8 -10.35 6.55 -11.35 12.2 -30.2" fill="url(#gradient2)" fill-rule="evenodd" stroke="none"/>
    <path d="M12.2 -30.2 L6.55 -11.35 7.8 -10.35 9.0 -13.1 10.6 -12.55 15.9 -25.35 12.2 -30.2 M7.2 -35.0 L4.2 -13.05 5.3 -12.25 5.7 -16.5 6.95 -16.15 10.2 -31.05 7.2 -35.0 M5.3 -12.25 L6.55 -11.35 6.4 -10.9 7.75 -10.2 7.8 -10.35 M5.3 -12.25 L5.15 -10.45" fill="none" stroke="#000000" stroke-linecap="round" stroke-linejoin="round" stroke-width="0.05"/>
    <path d="M-5.75 -3.05 L-5.7 -3.0 -5.5 -2.3 -5.75 -3.05" fill="#4d6277" fill-rule="evenodd" stroke="none"/>
    <path d="M4.25 5.05 L4.2 4.95 4.55 3.25 4.25 5.05" fill="url(#gradient3)" fill-rule="evenodd" stroke="none"/>
    <path d="M3.8 -14.85 Q1.85 -14.1 -0.5 -14.85 L-0.4 -16.25 -0.05 -16.25 0.05 -16.4 0.15 -16.35 Q2.65 -19.65 3.8 -14.85" fill="url(#gradient4)" fill-rule="evenodd" stroke="none"/>
    <path d="M3.8 -14.85 L4.05 -13.5 4.1 -12.05 6.55 -9.8 7.15 -7.7 7.2 -7.7 7.25 -7.55 7.55 -5.4 7.55 -5.3 7.6 -4.5 7.6 -5.4 Q10.4 0.25 6.6 0.85 L6.0 0.9 5.9 0.9 5.75 0.9 5.6 0.9 5.55 0.95 5.35 1.25 5.35 1.15 5.15 1.55 4.9 2.05 4.65 2.7 Q4.2 3.8 4.2 4.95 L4.25 5.05 4.2 5.3 4.2 5.35 4.45 7.95 4.55 8.2 5.15 9.6 5.2 9.7 5.6 10.3 6.45 11.2 5.95 13.0 5.75 13.3 5.7 13.4 5.75 13.9 Q3.2 15.8 1.55 18.8 L0.0 18.75 Q-1.2 15.6 -8.2 11.1 L-6.8 11.3 -8.2 11.1 -8.3 11.05 -6.6 8.9 -5.55 7.55 -5.2 6.95 -5.15 6.9 -4.75 5.45 -4.75 5.35 -4.65 4.55 -4.65 4.45 -4.6 3.2 -4.6 2.95 -4.7 1.25 -4.8 0.55 -4.9 -0.1 -5.0 -0.4 -5.5 -2.3 -5.7 -3.0 -5.75 -3.05 -6.65 -5.45 -6.8 -6.3 -6.85 -6.4 -6.9 -6.4 -8.65 -8.0 Q-8.1 -10.95 -4.35 -11.3 L-2.05 -12.45 Q-0.8 -13.2 -0.5 -14.85 1.85 -14.1 3.8 -14.85 M3.2 -0.4 L3.7 0.05 Q4.4 0.65 5.55 0.95 4.4 0.65 3.7 0.05 L3.2 -0.4 M0.05 2.05 Q1.3 1.85 2.3 0.95 L2.75 0.45 2.3 0.95 Q1.3 1.85 0.05 2.05" fill="#262626" fill-rule="evenodd" stroke="none"/>
    <path d="M4.05 -13.5 L3.8 -14.85 Q1.85 -14.1 -0.5 -14.85 -0.8 -13.2 -2.05 -12.45 L-4.35 -11.3 Q-8.1 -10.95 -8.65 -8.0 M-6.9 -6.4 L-6.85 -6.4 -6.8 -6.3 -6.65 -5.45 -5.75 -3.05 -5.7 -3.0 -5.5 -2.3 -5.0 -0.4 -4.9 -0.1 -4.8 0.55 -4.7 1.25 -4.6 2.95 -4.6 3.2 -4.65 4.45 -4.65 4.55 -4.75 5.35 -4.75 5.45 -5.15 6.9 -5.2 6.95 -5.55 7.55 -6.6 8.9 -8.3 11.05 M-8.2 11.1 Q-1.2 15.6 0.0 18.75 L1.55 18.8 Q3.2 15.8 5.75 13.9 M6.45 11.2 L5.6 10.3 5.2 9.7 5.15 9.6 4.55 8.2 4.45 7.95 4.2 5.35 4.2 5.3 4.25 5.05 4.55 3.25 4.2 4.95 M4.65 2.7 L4.9 2.05 5.15 1.55 5.35 1.15 M5.35 1.25 L5.55 0.95 Q4.4 0.65 3.7 0.05 L3.2 -0.4 M0.05 -16.4 L-0.05 -16.25 M-0.4 -16.25 L-0.5 -14.85 M3.8 -14.85 Q2.65 -19.65 0.15 -16.35 M7.2 -7.7 L7.15 -7.7 M6.55 -9.8 L4.1 -12.05 M7.55 -5.3 L7.55 -5.4 7.25 -7.55 M5.55 0.95 L5.6 0.9 5.75 0.9 5.9 0.9 6.0 0.9 6.6 0.85 Q10.4 0.25 7.6 -5.4 M5.15 1.55 L5.35 1.25 M2.75 0.45 L2.3 0.95 Q1.3 1.85 0.05 2.05 M4.55 3.25 L4.65 2.7 M-5.75 -3.05 L-5.5 -2.3" fill="none" stroke="#000000" stroke-linecap="round" stroke-linejoin="round" stroke-width="0.05"/>
    <path d="M6.35 -8.3 Q6.35 -7.6 4.45 -7.45 L4.5 -7.3 3.5 -6.35 Q2.9 -6.35 2.7 -6.8 L2.6 -6.75 -3.1 -7.35 Q-2.85 -8.8 -2.45 -8.7 L1.05 -8.5 Q0.6 -9.35 0.45 -10.8 L0.7 -10.95 Q1.4 -10.95 2.65 -7.95 L3.2 -7.85 Q3.3 -8.1 3.65 -8.05 L4.3 -7.85 Q4.65 -7.6 4.8 -8.1 L4.95 -8.65 5.4 -8.7 Q6.45 -8.7 6.35 -8.3" fill="#000000" fill-opacity="0.23137255" fill-rule="evenodd" stroke="none"/>
    <path d="M6.3 9.85 L6.4 10.0 6.65 11.6 6.4 13.45 6.25 13.5 6.65 11.6 6.3 9.85" fill="#2c992b" fill-rule="evenodd" stroke="none"/>
    <path d="M3.45 10.55 L3.75 10.5 3.45 10.55" fill="url(#gradient5)" fill-rule="evenodd" stroke="none"/>
    <path d="M6.25 13.5 L5.9 13.75 5.9 13.55 6.25 13.5" fill="url(#gradient6)" fill-rule="evenodd" stroke="none"/>
    <path d="M0.2 -6.55 L0.35 -6.15 0.4 -6.05 0.0 -5.75 -0.25 -6.05 0.2 -6.55 M3.25 -3.05 L4.4 0.75 4.45 0.8 Q3.25 3.05 3.0 5.5 L2.45 5.45 Q2.7 2.9 3.65 0.4 L2.65 -3.05 3.25 -3.05" fill="#333333" fill-rule="evenodd" stroke="none"/>
    <path d="M0.4 -6.05 Q2.85 -5.05 4.4 -5.4 L4.9 -6.25 5.4 -4.55 3.25 -3.05 2.65 -3.05 2.0 -3.05 0.0 -5.75 0.4 -6.05 M3.0 5.5 Q2.75 7.95 3.45 10.55 L2.55 10.8 Q2.1 8.1 2.45 5.45 L3.0 5.5" fill="#262626" fill-rule="evenodd" stroke="none"/>
    <path d="M-6.6 8.85 Q-3.7 2.3 -7.1 -6.4 L-8.85 -8.15 Q-9.05 -9.25 -7.15 -10.5 -5.3 -11.8 -2.95 -12.15 L-2.5 -11.8 Q-0.75 -9.2 0.2 -6.55 L-0.25 -6.05 0.0 -5.75 2.0 -3.05 2.65 -3.05 3.65 0.4 Q2.7 2.9 2.45 5.45 2.1 8.1 2.55 10.8 -0.8 10.85 -4.45 9.65 L-6.6 8.85" fill="url(#gradient7)" fill-rule="evenodd" stroke="none"/>
    <path d="M4.9 -6.25 Q5.8 -8.1 6.25 -10.2 L7.55 -8.95 7.75 -8.4 7.25 -7.15 9.0 -1.45 Q8.2 1.5 5.9 1.1 3.6 4.85 5.5 9.6 L3.75 10.5 3.45 10.55 Q2.75 7.95 3.0 5.5 3.25 3.05 4.45 0.8 L4.4 0.75 3.25 -3.05 5.4 -4.55 4.9 -6.25" fill="url(#gradient8)" fill-rule="evenodd" stroke="none"/>
    <path d="M5.9 13.75 Q2.95 16.1 1.75 18.95 L0.15 18.7 Q-1.7 15.05 -8.25 11.35 L-8.0 10.75 -5.3 12.05 Q-0.5 14.05 4.15 13.75 L5.9 13.55 5.9 13.75" fill="url(#gradient9)" fill-rule="evenodd" stroke="none"/>
    <path d="M2.55 10.8 L3.45 10.55 3.75 10.5 4.15 13.75 Q-0.5 14.05 -5.3 12.05 L-4.45 9.65 Q-0.8 10.85 2.55 10.8" fill="url(#gradient10)" fill-rule="evenodd" stroke="none"/>
    <path d="M5.5 9.6 L5.9 9.45 6.3 9.85 6.65 11.6 6.25 13.5 5.9 13.55 4.15 13.75 3.75 10.5 5.5 9.6" fill="url(#gradient11)" fill-rule="evenodd" stroke="none"/>
    <path d="M-8.0 10.75 L-8.25 10.6 -7.5 8.95 -6.6 8.85 -4.45 9.65 -5.3 12.05 -8.0 10.75" fill="url(#gradient12)" fill-rule="evenodd" stroke="none"/>
    <path d="M4.9 -6.25 Q5.8 -8.1 6.25 -10.2 L7.55 -8.95 7.75 -8.4 7.25 -7.15 9.0 -1.45 Q8.2 1.5 5.9 1.1 3.6 4.85 5.5 9.6 L5.9 9.45 6.3 9.85 6.4 10.0 M6.4 13.45 L6.25 13.5 5.9 13.75 Q2.95 16.1 1.75 18.95 L0.15 18.7 Q-1.7 15.05 -8.25 11.35 L-8.0 10.75 -8.25 10.6 -7.5 8.95 -6.6 8.85 Q-3.7 2.3 -7.1 -6.4 L-8.85 -8.15 Q-9.05 -9.25 -7.15 -10.5 -5.3 -11.8 -2.95 -12.15 L-2.5 -11.8 Q-0.75 -9.2 0.2 -6.55 L0.35 -6.15 0.4 -6.05 Q2.85 -5.05 4.4 -5.4 L4.9 -6.25 5.4 -4.55 3.25 -3.05 4.4 0.75 4.45 0.8 Q3.25 3.05 3.0 5.5 2.75 7.95 3.45 10.55 L2.55 10.8 Q-0.8 10.85 -4.45 9.65 L-5.3 12.05 Q-0.5 14.05 4.15 13.75 L3.75 10.5 3.45 10.55 M3.75 10.5 L5.5 9.6 M2.65 -3.05 L2.0 -3.05 0.0 -5.75 -0.25 -6.05 0.2 -6.55 M2.65 -3.05 L3.25 -3.05 M2.45 5.45 Q2.7 2.9 3.65 0.4 L2.65 -3.05 M6.3 9.85 L6.65 11.6 6.25 13.5 5.9 13.55 4.15 13.75 M2.55 10.8 Q2.1 8.1 2.45 5.45 M-8.0 10.75 L-5.3 12.05 M-4.45 9.65 L-6.6 8.85" fill="none" stroke="#000000" stroke-linecap="round" stroke-linejoin="round" stroke-width="0.05"/>
    <path d="M3.7 -3.55 L5.9 -1.2 2.6 3.1 0.25 0.85 3.7 -3.55" fill="url(#gradient13)" fill-rule="evenodd" stroke="none"/>
    <path d="M2.6 3.1 Q-0.45 6.8 -3.9 9.9 L-6.8 8.55 Q-3.1 4.85 0.25 0.85 L2.6 3.1" fill="url(#gradient14)" fill-rule="evenodd" stroke="none"/>
    <path d="M3.7 -3.55 Q5.75 -6.25 7.6 -9.1 L8.35 -4.85 5.9 -1.2 3.7 -3.55" fill="url(#gradient15)" fill-rule="evenodd" stroke="none"/>
    <path d="M5.9 -1.2 L8.35 -4.85 7.6 -9.1 Q5.75 -6.25 3.7 -3.55 L5.9 -1.2 2.6 3.1 Q-0.45 6.8 -3.9 9.9 L-6.8 8.55 Q-3.1 4.85 0.25 0.85 L-0.15 0.5 M0.25 0.85 L2.6 3.1 M3.7 -3.55 L0.25 0.85" fill="none" stroke="#000000" stroke-linecap="round" stroke-linejoin="round" stroke-width="0.05"/>
    <path d="M5.5 0.9 L5.55 1.0 5.6 1.1 5.6 1.2 5.6 1.3 5.6 1.35 5.55 1.45 5.5 1.55 5.4 1.65 5.25 1.7 5.3 1.8 5.35 1.9 5.35 2.0 5.35 2.1 5.3 2.2 5.1 2.4 5.0 2.6 4.95 3.5 4.5 4.7 4.5 5.05 4.7 6.2 Q4.85 7.2 4.4 7.9 L4.5 8.05 Q3.9 8.75 3.0 8.95 L1.4 9.15 1.3 9.2 1.15 9.2 0.85 9.05 0.75 9.0 0.7 9.05 0.65 9.1 0.5 9.1 0.4 9.1 0.15 8.9 -0.1 8.8 -0.55 8.8 Q-1.05 8.0 -0.8 7.15 L-0.3 5.25 0.05 4.5 -1.1 3.6 -1.55 2.9 Q-2.2 2.4 -2.5 1.6 L-2.7 0.85 -2.6 0.0 -2.55 0.1 -2.5 0.2 -2.5 0.3 -2.45 0.35 -2.25 0.4 -2.05 0.45 -1.5 0.9 1.7 1.05 2.1 0.9 2.1 0.8 2.3 0.55 2.7 0.25 Q2.95 0.0 3.25 0.0 L3.25 -0.05 3.95 0.05 4.75 0.45 5.4 0.85 5.5 0.9 M0.8 5.35 L0.75 5.5 0.75 5.7 0.9 5.45 0.8 5.35" fill="#000000" fill-opacity="0.2901961" fill-rule="evenodd" stroke="none"/>
  </g>
  <defs>
    <radialGradient cx="0" cy="0" gradientTransform="matrix(0.0111, 0.0, 0.0, 0.0111, 0.35, -10.5)" gradientUnits="userSpaceOnUse" id="gradient0" r="819.2" spreadMethod="pad">
      <stop offset="0.0" stop-color="#6a6a6a"/>
      <stop offset="0.40784313725490196" stop-color="#393a34"/>
      <stop offset="1.0" stop-color="#1b161d"/>
    </radialGradient>
    <linearGradient gradientTransform="matrix(-0.0047, 0.0109, 0.0035, 0.0031, 6.2, -23.6)" gradientUnits="userSpaceOnUse" id="gradient1" spreadMethod="pad" x1="-819.2" x2="819.2">
      <stop offset="0.0" stop-color="#973e8e"/>
      <stop offset="0.4549019607843137" stop-color="#302332"/>
      <stop offset="1.0" stop-color="#1e1f26"/>
    </linearGradient>
    <linearGradient gradientTransform="matrix(-0.0045, 0.0105, 0.0027, 0.0024, 10.65, -19.65)" gradientUnits="userSpaceOnUse" id="gradient2" spreadMethod="pad" x1="-819.2" x2="819.2">
      <stop offset="0.0" stop-color="#973e8e"/>
      <stop offset="0.4549019607843137" stop-color="#302332"/>
      <stop offset="1.0" stop-color="#1e1f26"/>
    </linearGradient>
    <radialGradient cx="0" cy="0" gradientTransform="matrix(0.023, 0.0, 0.0, 0.023, 0.05, 0.55)" gradientUnits="userSpaceOnUse" id="gradient3" r="819.2" spreadMethod="pad">
      <stop offset="0.0" stop-color="#7b89bf"/>
      <stop offset="0.6705882352941176" stop-color="#4b6192"/>
      <stop offset="1.0" stop-color="#65516a"/>
    </radialGradient>
    <radialGradient cx="0" cy="0" gradientTransform="matrix(0.023, 0.0, 0.0, 0.023, 0.05, 0.55)" gradientUnits="userSpaceOnUse" id="gradient4" r="819.2" spreadMethod="pad">
      <stop offset="0.20392156862745098" stop-color="#e2c2a5"/>
      <stop offset="0.5607843137254902" stop-color="#e1b87b"/>
      <stop offset="1.0" stop-color="#cca277"/>
    </radialGradient>
    <radialGradient cx="0" cy="0" gradientTransform="matrix(0.0173, 0.0, 0.0, 0.0173, 6.25, -3.25)" gradientUnits="userSpaceOnUse" id="gradient5" r="819.2" spreadMethod="pad">
      <stop offset="0.0" stop-color="#aaa6ae"/>
      <stop offset="0.36470588235294116" stop-color="#333333"/>
      <stop offset="0.9058823529411765" stop-color="#121010"/>
    </radialGradient>
    <radialGradient cx="0" cy="0" gradientTransform="matrix(0.0137, 0.0, 0.0, 0.0137, 1.0, 17.4)" gradientUnits="userSpaceOnUse" id="gradient6" r="819.2" spreadMethod="pad">
      <stop offset="0.0" stop-color="#aaa6ae"/>
      <stop offset="0.36470588235294116" stop-color="#333333"/>
      <stop offset="0.9058823529411765" stop-color="#121010"/>
    </radialGradient>
    <radialGradient cx="0" cy="0" gradientTransform="matrix(0.0148, 0.0, 0.0, 0.0148, 0.0, -1.1)" gradientUnits="userSpaceOnUse" id="gradient7" r="819.2" spreadMethod="pad">
      <stop offset="0.0" stop-color="#6a6a6a"/>
      <stop offset="0.40784313725490196" stop-color="#393a34"/>
      <stop offset="1.0" stop-color="#1b161d"/>
    </radialGradient>
    <radialGradient cx="0" cy="0" gradientTransform="matrix(0.0149, 0.0, 0.0, 0.0149, 7.0, -1.1)" gradientUnits="userSpaceOnUse" id="gradient8" r="819.2" spreadMethod="pad">
      <stop offset="0.0" stop-color="#6a6a6a"/>
      <stop offset="0.40784313725490196" stop-color="#393a34"/>
      <stop offset="1.0" stop-color="#1b161d"/>
    </radialGradient>
    <radialGradient cx="0" cy="0" gradientTransform="matrix(0.0123, 0.0, 0.0, 0.0123, 1.1, 15.15)" gradientUnits="userSpaceOnUse" id="gradient9" r="819.2" spreadMethod="pad">
      <stop offset="0.0" stop-color="#47324e"/>
      <stop offset="1.0" stop-color="#1c161d"/>
    </radialGradient>
    <radialGradient cx="0" cy="0" gradientTransform="matrix(0.0071, 0.0, 0.0, 0.0071, 0.5, 12.5)" gradientUnits="userSpaceOnUse" id="gradient10" r="819.2" spreadMethod="pad">
      <stop offset="0.0" stop-color="#586248"/>
      <stop offset="1.0" stop-color="#232923"/>
    </radialGradient>
    <radialGradient cx="0" cy="0" gradientTransform="matrix(0.0039, 0.0, 0.0, 0.0039, 5.75, 11.0)" gradientUnits="userSpaceOnUse" id="gradient11" r="819.2" spreadMethod="pad">
      <stop offset="0.0" stop-color="#8d8758"/>
      <stop offset="1.0" stop-color="#475137"/>
    </radialGradient>
    <radialGradient cx="0" cy="0" gradientTransform="matrix(0.0032, 0.0, 0.0, 0.0032, -7.0, 10.4)" gradientUnits="userSpaceOnUse" id="gradient12" r="819.2" spreadMethod="pad">
      <stop offset="0.0" stop-color="#8d8758"/>
      <stop offset="1.0" stop-color="#475137"/>
    </radialGradient>
    <radialGradient cx="0" cy="0" gradientTransform="matrix(0.0059, 0.0, 0.0, 0.0059, 3.6, -1.5)" gradientUnits="userSpaceOnUse" id="gradient13" r="819.2" spreadMethod="pad">
      <stop offset="0.0" stop-color="#ffffff"/>
      <stop offset="0.48627450980392156" stop-color="#484848"/>
      <stop offset="0.5137254901960784" stop-color="#737373"/>
      <stop offset="1.0" stop-color="#484848"/>
    </radialGradient>
    <radialGradient cx="0" cy="0" gradientTransform="matrix(0.0112, 0.0, 0.0, 0.0112, -5.0, 8.25)" gradientUnits="userSpaceOnUse" id="gradient14" r="819.2" spreadMethod="pad">
      <stop offset="0.0" stop-color="#586248"/>
      <stop offset="1.0" stop-color="#232923"/>
    </radialGradient>
    <radialGradient cx="0" cy="0" gradientTransform="matrix(0.0063, 0.0, 0.0, 0.0063, 6.5, -6.25)" gradientUnits="userSpaceOnUse" id="gradient15" r="819.2" spreadMethod="pad">
      <stop offset="0.0" stop-color="#586248"/>
      <stop offset="1.0" stop-color="#232923"/>
    </radialGradient>
  </defs>
</svg>
