<?xml version="1.0" encoding="UTF-8" standalone="no"?>
<svg xmlns:xlink="http://www.w3.org/1999/xlink" height="30.65px" width="9.1px" xmlns="http://www.w3.org/2000/svg">
  <g transform="matrix(1.0, 0.0, 0.0, 1.0, 5.1, 15.45)">
    <path d="M-1.85 -12.75 Q-2.85 -9.3 -2.45 -10.75 L-2.4 -10.95 -1.9 -12.8 -1.85 -12.75" fill="#4d6277" fill-rule="evenodd" stroke="none"/>
    <path d="M-4.2 1.35 L-4.2 1.3 -4.15 1.35 -4.2 1.35" fill="url(#gradient0)" fill-rule="evenodd" stroke="none"/>
    <path d="M-2.75 8.05 L-2.85 7.75 -2.65 7.85 -2.75 8.05 M-4.25 -3.95 L-4.25 -4.05 -3.85 -3.9 -4.25 -3.95" fill="#333333" fill-rule="evenodd" stroke="none"/>
    <path d="M-3.85 -3.9 L-3.3 -6.65 -3.1 -7.65 -1.85 -12.75 -1.9 -12.8 -0.95 -14.7 Q-0.1 -15.8 3.25 -15.3 L4.0 -10.75 3.5 -5.2 2.6 -1.55 Q-0.65 -1.85 -3.85 -3.9" fill="url(#gradient1)" fill-rule="evenodd" stroke="none"/>
    <path d="M2.6 -1.55 L2.35 2.45 1.75 3.95 1.7 3.95 Q-1.2 3.55 -4.15 1.35 L-4.2 1.3 -5.1 0.45 Q-4.6 -1.65 -4.25 -3.95 L-3.85 -3.9 Q-0.65 -1.85 2.6 -1.55" fill="url(#gradient2)" fill-rule="evenodd" stroke="none"/>
    <path d="M1.6 5.5 L1.55 6.2 Q1.45 7.95 1.5 9.75 L-2.65 7.85 -2.85 7.75 -3.35 5.55 1.6 5.5" fill="url(#gradient3)" fill-rule="evenodd" stroke="none"/>
    <path d="M1.55 10.9 L1.6 11.75 1.6 11.9 Q1.4 14.2 -0.25 15.2 -2.15 14.6 -2.85 12.8 L-3.0 12.7 -3.0 12.55 -2.85 11.9 -2.75 11.5 1.55 10.9" fill="url(#gradient4)" fill-rule="evenodd" stroke="none"/>
    <path d="M1.7 3.95 L1.6 5.5 -3.35 5.55 -4.15 2.25 -4.2 1.35 -4.15 1.35 Q-1.2 3.55 1.7 3.95" fill="url(#gradient5)" fill-rule="evenodd" stroke="none"/>
    <path d="M1.5 9.75 L1.5 9.9 1.55 10.9 -2.75 11.5 Q-2.6 10.25 -2.7 8.85 L-2.75 8.05 -2.65 7.85 1.5 9.75" fill="url(#gradient6)" fill-rule="evenodd" stroke="none"/>
    <path d="M2.6 -1.55 L2.35 2.45 1.75 3.95 1.7 3.95 1.6 5.5 1.55 6.2 Q1.45 7.95 1.5 9.75 L1.5 9.9 1.55 10.9 1.6 11.75 1.6 11.9 Q1.4 14.2 -0.25 15.2 -2.15 14.6 -2.85 12.8 L-3.0 12.7 M-3.0 12.55 L-2.85 11.9 -2.75 11.5 Q-2.6 10.25 -2.7 8.85 L-2.75 8.05 -2.85 7.75 -3.35 5.55 -4.15 2.25 -4.2 1.35 -4.2 1.3 -5.1 0.45 Q-4.6 -1.65 -4.25 -3.95 L-4.25 -4.05 -3.85 -3.9 -3.3 -6.65 -3.1 -7.65 -1.85 -12.75 Q-2.85 -9.3 -2.45 -10.75 M3.25 -15.3 L4.0 -10.75 3.5 -5.2 2.6 -1.55 Q-0.65 -1.85 -3.85 -3.9 M-4.15 1.35 L-4.2 1.3 M-4.15 1.35 Q-1.2 3.55 1.7 3.95 M-2.65 7.85 L-2.85 7.75" fill="none" stroke="#000000" stroke-linecap="round" stroke-linejoin="round" stroke-width="0.05"/>
    <path d="M0.15 -10.55 Q-0.2 -10.95 0.0 -11.3 L0.1 -11.35 1.2 -10.3 Q1.75 -9.75 2.5 -9.6 L3.8 -9.1 2.95 -8.95 2.2 -6.9 1.8 -4.25 Q1.65 -2.95 1.1 -1.9 1.0 -3.25 1.3 -4.8 1.55 -6.25 1.25 -7.65 L1.3 -7.95 1.15 -7.9 1.1 -8.1 0.3 -10.4 0.15 -10.55" fill="#000000" fill-opacity="0.3019608" fill-rule="evenodd" stroke="none"/>
  </g>
  <defs>
    <radialGradient cx="0" cy="0" gradientTransform="matrix(0.0342, 0.0, 0.0, 0.0342, 2.25, -12.75)" gradientUnits="userSpaceOnUse" id="gradient0" r="819.2" spreadMethod="pad">
      <stop offset="0.20392156862745098" stop-color="#7c95a5"/>
      <stop offset="0.5529411764705883" stop-color="#626c84"/>
      <stop offset="1.0" stop-color="#73718e"/>
    </radialGradient>
    <radialGradient cx="0" cy="0" gradientTransform="matrix(0.0112, 0.0, 0.0, 0.0112, 2.5, -10.5)" gradientUnits="userSpaceOnUse" id="gradient1" r="819.2" spreadMethod="pad">
      <stop offset="0.01568627450980392" stop-color="#303950"/>
      <stop offset="1.0" stop-color="#1b161d"/>
    </radialGradient>
    <radialGradient cx="0" cy="0" gradientTransform="matrix(0.0071, 0.0, 0.0, 0.0071, -0.75, 0.65)" gradientUnits="userSpaceOnUse" id="gradient2" r="819.2" spreadMethod="pad">
      <stop offset="0.0" stop-color="#675443"/>
      <stop offset="1.0" stop-color="#31251c"/>
    </radialGradient>
    <radialGradient cx="0" cy="0" gradientTransform="matrix(0.0054, 0.0, 0.0, 0.0054, 0.5, 7.65)" gradientUnits="userSpaceOnUse" id="gradient3" r="819.2" spreadMethod="pad">
      <stop offset="0.0" stop-color="#675443"/>
      <stop offset="1.0" stop-color="#31251c"/>
    </radialGradient>
    <radialGradient cx="0" cy="0" gradientTransform="matrix(0.0042, 0.0, 0.0, 0.0042, 0.0, 13.5)" gradientUnits="userSpaceOnUse" id="gradient4" r="819.2" spreadMethod="pad">
      <stop offset="0.0" stop-color="#675443"/>
      <stop offset="1.0" stop-color="#31251c"/>
    </radialGradient>
    <radialGradient cx="0" cy="0" gradientTransform="matrix(0.0058, 0.0, 0.0, 0.0058, -0.85, 4.65)" gradientUnits="userSpaceOnUse" id="gradient5" r="819.2" spreadMethod="pad">
      <stop offset="0.0" stop-color="#957951"/>
      <stop offset="1.0" stop-color="#4e403a"/>
    </radialGradient>
    <radialGradient cx="0" cy="0" gradientTransform="matrix(0.0036, 0.0, 0.0, 0.0036, -1.1, 9.65)" gradientUnits="userSpaceOnUse" id="gradient6" r="819.2" spreadMethod="pad">
      <stop offset="0.0" stop-color="#957951"/>
      <stop offset="1.0" stop-color="#4e403a"/>
    </radialGradient>
  </defs>
</svg>
