<?xml version="1.0" encoding="UTF-8" standalone="no"?>
<svg xmlns:xlink="http://www.w3.org/1999/xlink" height="19.45px" width="12.05px" xmlns="http://www.w3.org/2000/svg">
  <g transform="matrix(1.0, 0.0, 0.0, 1.0, 6.1, 14.6)">
    <path d="M-0.4 3.0 Q-0.3 -3.2 5.6 -3.85 3.85 0.55 4.25 4.45 L-0.4 3.0" fill="#333333" fill-rule="evenodd" stroke="none"/>
    <path d="M-0.4 3.0 Q-0.3 -3.2 5.6 -3.85 3.85 0.55 4.25 4.45 L-0.4 3.0 Z" fill="none" stroke="#000000" stroke-linecap="round" stroke-linejoin="round" stroke-width="0.25"/>
    <path d="M4.35 -2.4 L4.25 -1.85 4.2 0.6 3.7 1.15 3.7 1.25 2.7 4.8 -1.4 1.7 -2.15 0.3 -2.4 0.1 -2.55 -0.1 Q-3.75 -1.35 -3.75 -3.15 -3.75 -4.95 -2.55 -6.25 -1.35 -7.55 0.35 -7.55 2.0 -7.55 3.2 -6.25 4.4 -4.95 4.4 -3.15 L4.35 -2.4" fill="url(#gradient0)" fill-rule="evenodd" stroke="none"/>
    <path d="M4.35 -2.4 L4.25 -1.85 4.2 0.6 3.7 1.15 3.7 1.25 2.7 4.8 -1.4 1.7 -2.15 0.3 -2.4 0.1 -2.55 -0.1 Q-3.75 -1.35 -3.75 -3.15 -3.75 -4.95 -2.55 -6.25 -1.35 -7.55 0.35 -7.55 2.0 -7.55 3.2 -6.25 4.4 -4.95 4.4 -3.15 L4.35 -2.4 Z" fill="none" stroke="#000000" stroke-linecap="round" stroke-linejoin="round" stroke-width="0.05"/>
    <path d="M2.4 -1.25 L1.55 -1.4 Q1.8 -2.2 2.8 -2.2 3.4 -2.2 3.4 -1.7 3.4 -1.25 2.4 -1.25" fill="#000000" fill-rule="evenodd" stroke="none"/>
    <path d="M3.4 1.15 Q3.4 2.1 2.65 2.1 2.1 2.1 1.95 1.75 1.85 2.05 1.85 1.6 L3.15 0.95 Q3.4 0.95 3.4 1.15" fill="#e75c5c" fill-rule="evenodd" stroke="none"/>
    <path d="M-6.0 -4.25 Q-2.2 -8.05 -0.9 -14.5 5.15 -7.45 5.85 -3.1 1.2 -2.95 -0.5 1.85 -0.5 2.9 0.85 4.75 -2.25 4.1 -4.35 2.1 -4.45 -1.85 -6.0 -4.25" fill="url(#gradient1)" fill-rule="evenodd" stroke="none"/>
    <path d="M-6.0 -4.25 Q-4.45 -1.85 -4.35 2.1 -2.25 4.1 0.85 4.75 -0.5 2.9 -0.5 1.85 1.2 -2.95 5.85 -3.1 5.15 -7.45 -0.9 -14.5 -2.2 -8.05 -6.0 -4.25 Z" fill="none" stroke="#000000" stroke-linecap="round" stroke-linejoin="round" stroke-width="0.25"/>
  </g>
  <defs>
    <radialGradient cx="0" cy="0" gradientTransform="matrix(0.0085, 0.0, 0.0, 0.0085, 0.5, -0.55)" gradientUnits="userSpaceOnUse" id="gradient0" r="819.2" spreadMethod="pad">
      <stop offset="0.20392156862745098" stop-color="#e2c2a5"/>
      <stop offset="0.5607843137254902" stop-color="#e1b87b"/>
      <stop offset="1.0" stop-color="#cca277"/>
    </radialGradient>
    <radialGradient cx="0" cy="0" gradientTransform="matrix(0.0123, 0.0, 0.0, 0.0123, -0.05, -4.85)" gradientUnits="userSpaceOnUse" id="gradient1" r="819.2" spreadMethod="pad">
      <stop offset="0.01568627450980392" stop-color="#303950"/>
      <stop offset="1.0" stop-color="#1b161d"/>
    </radialGradient>
  </defs>
</svg>
