<?xml version="1.0" encoding="UTF-8" standalone="no"?>
<svg xmlns:xlink="http://www.w3.org/1999/xlink" height="30.4px" width="13.95px" xmlns="http://www.w3.org/2000/svg">
  <g transform="matrix(1.0, 0.0, 0.0, 1.0, 9.3, 15.2)">
    <path d="M-4.05 -8.5 L-3.1 -14.5 -3.1 -14.55 -2.75 -14.8 Q-0.05 -13.75 2.3 -15.2 L3.85 -11.35 4.65 -5.5 4.05 -4.65 3.0 -0.15 2.85 4.95 1.6 13.4 0.1 15.0 Q1.6 6.3 1.35 -2.9 L-0.75 -7.6 -4.05 -8.5" fill="url(#gradient0)" fill-rule="evenodd" stroke="none"/>
    <path d="M0.1 15.0 L-0.1 15.2 -3.55 13.15 -3.7 0.5 -4.6 -4.9 -4.05 -8.5 -0.75 -7.6 1.35 -2.9 Q1.6 6.3 0.1 15.0" fill="url(#gradient1)" fill-rule="evenodd" stroke="none"/>
    <path d="M-4.05 -8.5 L-3.1 -14.5 -3.1 -14.55 -2.75 -14.8 Q-0.05 -13.75 2.3 -15.2 L3.85 -11.35 4.65 -5.5 4.05 -4.65 3.0 -0.15 2.85 4.95 1.6 13.4 0.1 15.0 -0.1 15.2 -3.55 13.15 -3.7 0.5 -4.6 -4.9 -4.05 -8.5 -0.75 -7.6 1.35 -2.9 Q1.6 6.3 0.1 15.0" fill="none" stroke="#000000" stroke-linecap="round" stroke-linejoin="round" stroke-width="0.05"/>
    <path d="M-2.5 -1.4 L-8.0 -6.15 -8.85 -12.15 -6.65 -7.25 -2.35 -5.8 Q-1.5 -3.0 -2.5 -1.4" fill="url(#gradient2)" fill-rule="evenodd" stroke="none"/>
    <path d="M-2.95 9.35 L-8.45 4.6 -9.3 -1.4 -7.1 3.5 -2.8 4.95 Q-1.95 7.5 -2.95 9.35" fill="url(#gradient3)" fill-rule="evenodd" stroke="none"/>
    <path d="M-2.5 -1.4 L-8.0 -6.15 -8.85 -12.15 -6.65 -7.25 -2.35 -5.8 Q-1.5 -3.0 -2.5 -1.4" fill="none" stroke="url(#gradient4)" stroke-linecap="round" stroke-linejoin="round" stroke-width="0.05"/>
    <path d="M-2.95 9.35 L-8.45 4.6 -9.3 -1.4 -7.1 3.5 -2.8 4.95 Q-1.95 7.5 -2.95 9.35 Z" fill="none" stroke="url(#gradient5)" stroke-linecap="round" stroke-linejoin="round" stroke-width="0.05"/>
  </g>
  <defs>
    <radialGradient cx="0" cy="0" gradientTransform="matrix(0.0297, 0.0, 0.0, 0.0297, 2.2, -8.8)" gradientUnits="userSpaceOnUse" id="gradient0" r="819.2" spreadMethod="pad">
      <stop offset="0.0" stop-color="#ffffff"/>
      <stop offset="0.42745098039215684" stop-color="#836549"/>
      <stop offset="0.44313725490196076" stop-color="#392d24"/>
      <stop offset="0.6980392156862745" stop-color="#7a615a"/>
      <stop offset="1.0" stop-color="#a27a77"/>
    </radialGradient>
    <radialGradient cx="0" cy="0" gradientTransform="matrix(0.008, 1.0E-4, -1.0E-4, 0.0182, -4.15, 4.05)" gradientUnits="userSpaceOnUse" id="gradient1" r="819.2" spreadMethod="pad">
      <stop offset="0.0" stop-color="#451818"/>
      <stop offset="1.0" stop-color="#220909"/>
    </radialGradient>
    <linearGradient gradientTransform="matrix(0.0042, 0.0, 0.0, 0.0066, -5.4, -6.8)" gradientUnits="userSpaceOnUse" id="gradient2" spreadMethod="pad" x1="-819.2" x2="819.2">
      <stop offset="0.0" stop-color="#ffffff"/>
      <stop offset="0.24705882352941178" stop-color="#fbc77b"/>
      <stop offset="0.6470588235294118" stop-color="#a78a61"/>
      <stop offset="1.0" stop-color="#493a2e"/>
    </linearGradient>
    <linearGradient gradientTransform="matrix(0.0042, 0.0, 0.0, 0.0066, -5.85, 3.95)" gradientUnits="userSpaceOnUse" id="gradient3" spreadMethod="pad" x1="-819.2" x2="819.2">
      <stop offset="0.0" stop-color="#ffffff"/>
      <stop offset="0.24705882352941178" stop-color="#fbc77b"/>
      <stop offset="0.6470588235294118" stop-color="#a78a61"/>
      <stop offset="1.0" stop-color="#493a2e"/>
    </linearGradient>
    <linearGradient gradientTransform="matrix(0.0042, 0.0, 0.0, 0.0066, -5.4, -6.8)" gradientUnits="userSpaceOnUse" id="gradient4" spreadMethod="pad" x1="-819.2" x2="819.2">
      <stop offset="0.0" stop-color="#ffffff"/>
      <stop offset="0.1803921568627451" stop-color="#ffc744"/>
      <stop offset="0.47058823529411764" stop-color="#000000"/>
    </linearGradient>
    <linearGradient gradientTransform="matrix(0.0042, 0.0, 0.0, 0.0066, -5.85, 3.95)" gradientUnits="userSpaceOnUse" id="gradient5" spreadMethod="pad" x1="-819.2" x2="819.2">
      <stop offset="0.0" stop-color="#ffffff"/>
      <stop offset="0.1803921568627451" stop-color="#ffc744"/>
      <stop offset="0.47058823529411764" stop-color="#000000"/>
    </linearGradient>
  </defs>
</svg>
