<?xml version="1.0" encoding="UTF-8" standalone="no"?>
<svg xmlns:xlink="http://www.w3.org/1999/xlink" height="99.75px" width="22.7px" xmlns="http://www.w3.org/2000/svg">
  <g transform="matrix(1.0, 0.0, 0.0, 1.0, 11.25, 71.7)">
    <path d="M-4.8 6.0 L-5.05 0.05 -3.45 -0.05 -2.1 4.65 -4.8 6.0" fill="url(#gradient0)" fill-rule="evenodd" stroke="none"/>
    <path d="M2.8 3.4 L3.7 -0.55 5.3 0.05 4.85 6.2 2.8 3.4" fill="url(#gradient1)" fill-rule="evenodd" stroke="none"/>
    <path d="M2.8 3.4 L2.55 4.55 M4.85 6.2 L4.8 6.95 M2.8 3.4 L3.7 -0.55 5.3 0.05 4.85 6.2 2.8 3.4 M-4.8 6.8 L-4.8 6.0 -5.05 0.05 -3.45 -0.05 -2.1 4.65 -1.55 6.55 M-4.8 6.0 L-2.1 4.65" fill="none" stroke="#000000" stroke-linecap="round" stroke-linejoin="round" stroke-width="0.05"/>
    <path d="M-0.05 -71.45 L-0.05 -71.6 -0.05 -71.7 0.0 -71.45 0.0 -70.65 -0.05 -71.35 -0.05 -71.45 M5.75 5.85 L5.85 5.95 5.65 6.05 5.75 5.85 M-5.8 6.05 L-5.9 5.95 -5.85 5.85 -5.8 6.05" fill="#0033ff" fill-rule="evenodd" stroke="none"/>
    <path d="M0.0 -70.65 L0.05 -70.3 0.05 -70.0 -0.05 -70.0 -0.05 -70.3 -0.05 -70.7 -0.05 -71.35 0.0 -70.65" fill="url(#gradient2)" fill-rule="evenodd" stroke="none"/>
    <path d="M4.65 -8.4 L4.65 -8.15 Q1.95 -4.75 2.95 -0.15 3.9 4.25 5.75 5.85 L5.65 6.05 2.65 5.15 -0.1 4.9 -0.05 -9.5 Q2.3 -9.6 4.65 -8.4" fill="url(#gradient3)" fill-rule="evenodd" stroke="none"/>
    <path d="M5.65 6.05 Q3.8 6.9 2.65 9.35 L2.0 11.1 -2.05 11.1 Q-3.3 7.2 -5.8 6.05 -2.9 4.9 -0.1 4.9 L2.65 5.15 5.65 6.05" fill="url(#gradient4)" fill-rule="evenodd" stroke="none"/>
    <path d="M-0.25 -65.95 L-0.1 -69.5 -0.05 -70.0 -0.05 -65.95 -0.25 -65.95" fill="url(#gradient5)" fill-rule="evenodd" stroke="none"/>
    <path d="M-5.85 5.85 Q-4.0 4.35 -3.05 -0.15 -2.45 -2.85 -3.1 -5.1 -3.6 -6.7 -4.75 -8.15 L-4.75 -8.4 Q-2.4 -9.5 -0.05 -9.5 L-0.1 4.9 Q-2.9 4.9 -5.8 6.05 L-5.85 5.85" fill="url(#gradient6)" fill-rule="evenodd" stroke="none"/>
    <path d="M-4.75 -8.4 Q-1.7 -27.2 -0.3 -63.95 L-0.25 -65.95 -0.05 -65.95 -0.05 -9.5 Q-2.4 -9.5 -4.75 -8.4" fill="url(#gradient7)" fill-rule="evenodd" stroke="none"/>
    <path d="M0.05 -70.0 L0.2 -66.05 0.25 -63.95 Q1.65 -27.2 4.65 -8.4 2.3 -9.6 -0.05 -9.5 L-0.05 -65.95 -0.05 -70.0 0.05 -70.0" fill="url(#gradient8)" fill-rule="evenodd" stroke="none"/>
    <path d="M-0.05 -71.45 L-0.05 -71.6 -0.05 -71.7 0.0 -71.45 0.0 -70.65 0.05 -70.3 0.05 -70.0 0.2 -66.05 0.25 -63.95 Q1.65 -27.2 4.65 -8.4 L4.65 -8.15 Q1.95 -4.75 2.95 -0.15 3.9 4.25 5.75 5.85 L5.85 5.95 5.65 6.05 Q3.8 6.9 2.65 9.35 L2.0 11.1 M-2.05 11.1 Q-3.3 7.2 -5.8 6.05 L-5.9 5.95 -5.85 5.85 Q-4.0 4.35 -3.05 -0.15 -2.45 -2.85 -3.1 -5.1 -3.6 -6.7 -4.75 -8.15 L-4.75 -8.4 Q-1.7 -27.2 -0.3 -63.95 L-0.25 -65.95 -0.1 -69.5 -0.05 -70.0 -0.05 -70.3 -0.05 -70.7 -0.05 -71.35" fill="none" stroke="#000000" stroke-linecap="round" stroke-linejoin="round" stroke-width="0.05"/>
    <path d="M-0.05 -70.0 L-0.05 -70.3 -0.05 -70.7 -0.05 -71.6 -0.05 -71.7 0.0 -71.45 0.0 -70.65 0.05 -70.3 0.2 -66.05 0.25 -63.95 Q1.65 -27.2 4.65 -8.4 L4.65 -8.15 Q1.95 -4.75 2.95 -0.15 3.9 4.25 5.75 5.85 L5.85 5.95 5.65 6.05 Q3.8 6.9 2.65 9.35 L2.0 11.1 -2.05 11.1 Q-3.3 7.2 -5.8 6.05 L-5.9 5.95 -5.85 5.85 Q-4.0 4.35 -3.05 -0.15 -2.45 -2.85 -3.1 -5.1 -3.6 -6.7 -4.75 -8.15 L-4.75 -8.4 Q-1.7 -27.2 -0.3 -63.95 L-0.25 -65.95 -0.1 -69.5 -0.05 -70.0" fill="url(#gradient9)" fill-rule="evenodd" stroke="none"/>
    <path d="M0.0 -70.65 L0.05 -70.3 0.2 -66.05 0.25 -63.95 Q1.65 -27.2 4.65 -8.4 L4.65 -8.15 Q1.95 -4.75 2.95 -0.15 3.9 4.25 5.75 5.85 M-5.85 5.85 Q-4.0 4.35 -3.05 -0.15 -2.45 -2.85 -3.1 -5.1 -3.6 -6.7 -4.75 -8.15 L-4.75 -8.4 Q-1.7 -27.2 -0.3 -63.95 L-0.25 -65.95 -0.1 -69.5 -0.05 -70.0" fill="none" stroke="#000000" stroke-linecap="round" stroke-linejoin="round" stroke-width="0.05"/>
    <path d="M1.55 14.45 L1.5 14.45 1.5 14.4 1.55 14.45" fill="url(#gradient10)" fill-rule="evenodd" stroke="none"/>
    <path d="M1.5 14.45 L2.25 26.55 -0.05 28.05 -2.25 26.55 -1.6 14.4 Q-5.95 12.05 -11.25 12.5 L-9.35 9.65 -7.95 9.35 -6.45 1.55 -5.05 3.45 -4.45 6.6 -2.45 7.2 -1.55 -1.85 -0.45 -0.3 0.7 7.2 2.05 7.2 1.7 3.2 2.9 1.8 3.7 6.8 4.8 6.5 5.05 5.2 6.05 2.9 7.0 9.2 7.1 9.2 9.4 9.65 11.45 12.5 Q6.05 12.05 1.55 14.45 L1.5 14.4 1.5 14.45" fill="url(#gradient11)" fill-rule="evenodd" stroke="none"/>
    <path d="M1.5 14.45 L2.25 26.55 -0.05 28.05 -2.25 26.55 -1.6 14.4 Q-5.95 12.05 -11.25 12.5 L-9.35 9.65 -7.95 9.35 -6.45 1.55 -5.05 3.45 -4.45 6.6 -2.45 7.2 -1.55 -1.85 -0.45 -0.3 0.7 7.2 2.05 7.2 1.7 3.2 2.9 1.8 3.7 6.8 4.8 6.5 5.05 5.2 6.05 2.9 7.0 9.2 7.1 9.2 9.4 9.65 11.45 12.5 Q6.05 12.05 1.55 14.45 L1.5 14.45 1.5 14.4" fill="none" stroke="#000000" stroke-linecap="round" stroke-linejoin="round" stroke-width="0.05"/>
  </g>
  <defs>
    <radialGradient cx="0" cy="0" gradientTransform="matrix(0.0065, 0.0, 0.0, 0.0065, -4.85, 0.7)" gradientUnits="userSpaceOnUse" id="gradient0" r="819.2" spreadMethod="pad">
      <stop offset="0.0" stop-color="#2b2722"/>
      <stop offset="1.0" stop-color="#000000"/>
    </radialGradient>
    <radialGradient cx="0" cy="0" gradientTransform="matrix(0.007, 0.0, 0.0, 0.007, 4.9, 0.45)" gradientUnits="userSpaceOnUse" id="gradient1" r="819.2" spreadMethod="pad">
      <stop offset="0.0" stop-color="#2b2722"/>
      <stop offset="1.0" stop-color="#000000"/>
    </radialGradient>
    <radialGradient cx="0" cy="0" gradientTransform="matrix(0.0332, 0.0, 0.0, 0.0648, 0.4, -18.25)" gradientUnits="userSpaceOnUse" id="gradient2" r="819.2" spreadMethod="pad">
      <stop offset="0.0" stop-color="#8f8681"/>
      <stop offset="1.0" stop-color="#4b4745"/>
    </radialGradient>
    <radialGradient cx="0" cy="0" gradientTransform="matrix(0.0084, 0.0, 0.0, 0.0164, 1.0, -2.35)" gradientUnits="userSpaceOnUse" id="gradient3" r="819.2" spreadMethod="pad">
      <stop offset="0.0" stop-color="#645e57"/>
      <stop offset="1.0" stop-color="#282424"/>
    </radialGradient>
    <linearGradient gradientTransform="matrix(-4.0E-4, 0.0183, -0.007, -5.0E-4, -0.35, 19.8)" gradientUnits="userSpaceOnUse" id="gradient4" spreadMethod="pad" x1="-819.2" x2="819.2">
      <stop offset="0.0" stop-color="#443f3c"/>
      <stop offset="1.0" stop-color="#725327"/>
    </linearGradient>
    <radialGradient cx="0" cy="0" gradientTransform="matrix(0.0209, 0.0, 0.0, 0.0409, -0.15, -37.8)" gradientUnits="userSpaceOnUse" id="gradient5" r="819.2" spreadMethod="pad">
      <stop offset="0.0" stop-color="#a8a39b"/>
      <stop offset="1.0" stop-color="#dbd9d7"/>
    </radialGradient>
    <radialGradient cx="0" cy="0" gradientTransform="matrix(0.0086, 0.0, 0.0, 0.0168, -2.0, 0.7)" gradientUnits="userSpaceOnUse" id="gradient6" r="819.2" spreadMethod="pad">
      <stop offset="0.0" stop-color="#a8a39b"/>
      <stop offset="1.0" stop-color="#242220"/>
    </radialGradient>
    <radialGradient cx="0" cy="0" gradientTransform="matrix(0.0209, 0.0, 0.0, 0.0409, -0.15, -37.8)" gradientUnits="userSpaceOnUse" id="gradient7" r="819.2" spreadMethod="pad">
      <stop offset="0.0" stop-color="#ffffff"/>
      <stop offset="0.42745098039215684" stop-color="#7c9aad"/>
      <stop offset="0.44313725490196076" stop-color="#58607c"/>
      <stop offset="0.6470588235294118" stop-color="#7e8aa3"/>
      <stop offset="1.0" stop-color="#c2cde7"/>
    </radialGradient>
    <radialGradient cx="0" cy="0" gradientTransform="matrix(0.074, 0.0, 0.0, 0.074, 3.7, -9.5)" gradientUnits="userSpaceOnUse" id="gradient8" r="819.2" spreadMethod="pad">
      <stop offset="0.0" stop-color="#848484"/>
      <stop offset="0.42745098039215684" stop-color="#7c9aad"/>
      <stop offset="0.44313725490196076" stop-color="#58607c"/>
      <stop offset="0.6470588235294118" stop-color="#7e8aa3"/>
      <stop offset="1.0" stop-color="#4a6bb5"/>
    </radialGradient>
    <linearGradient gradientTransform="matrix(-0.0029, -0.0504, 0.0072, -4.0E-4, -2.1, -30.15)" gradientUnits="userSpaceOnUse" id="gradient9" spreadMethod="pad" x1="-819.2" x2="819.2">
      <stop offset="0.0" stop-color="#b589ba"/>
      <stop offset="0.43529411764705883" stop-color="#543e64" stop-opacity="0.0"/>
    </linearGradient>
    <radialGradient cx="0" cy="0" gradientTransform="matrix(0.0166, 0.0, 0.0, 0.0209, -2.2, 11.85)" gradientUnits="userSpaceOnUse" id="gradient10" r="819.2" spreadMethod="pad">
      <stop offset="0.0" stop-color="#393740"/>
      <stop offset="1.0" stop-color="#0f1013"/>
    </radialGradient>
    <radialGradient cx="0" cy="0" gradientTransform="matrix(0.0229, 0.0, 0.0, 0.0229, -0.7, 9.25)" gradientUnits="userSpaceOnUse" id="gradient11" r="819.2" spreadMethod="pad">
      <stop offset="0.0" stop-color="#443751"/>
      <stop offset="0.4117647058823529" stop-color="#222123"/>
      <stop offset="1.0" stop-color="#1f2125"/>
    </radialGradient>
  </defs>
</svg>
