<?xml version="1.0" encoding="UTF-8" standalone="no"?>
<svg xmlns:xlink="http://www.w3.org/1999/xlink" height="19.6px" width="15.25px" xmlns="http://www.w3.org/2000/svg">
  <g transform="matrix(1.0, 0.0, 0.0, 1.0, 8.85, 7.7)">
    <path d="M0.4 5.8 L0.2 6.1 -8.85 -0.45 -3.25 -3.45 -3.1 -3.2 0.4 5.8" fill="url(#gradient0)" fill-rule="evenodd" stroke="none"/>
    <path d="M2.15 0.45 L2.15 -0.35 4.25 -0.1 2.15 0.45 M2.1 1.7 L2.95 6.2 2.0 4.05 2.1 1.7" fill="url(#gradient1)" fill-rule="evenodd" stroke="none"/>
    <path d="M2.15 0.45 L2.15 -0.35 4.25 -0.1 2.15 0.45 2.1 1.7 2.95 6.2 2.0 4.05 2.1 1.7 1.85 0.5 2.15 0.45 M0.2 6.1 L-8.85 -0.45 -3.25 -3.45 M-3.1 -3.2 L0.4 5.8" fill="none" stroke="#000000" stroke-linecap="round" stroke-linejoin="round" stroke-width="0.05"/>
    <path d="M-1.2 -6.4 L-0.1 -7.7 4.75 -6.35 5.4 -3.95 -1.2 -6.4" fill="url(#gradient2)" fill-rule="evenodd" stroke="none"/>
    <path d="M5.4 -3.95 L6.4 -3.6 6.0 -0.7 2.9 0.3 -3.4 -4.75 -2.25 -6.7 -2.0 -6.7 -1.2 -6.4 5.4 -3.95" fill="url(#gradient3)" fill-rule="evenodd" stroke="none"/>
    <path d="M2.9 0.3 L2.5 4.45 4.25 11.9 1.25 9.65 -1.75 0.65 -4.1 -3.6 -3.4 -4.75 2.9 0.3" fill="url(#gradient4)" fill-rule="evenodd" stroke="none"/>
    <path d="M-1.2 -6.4 L-0.1 -7.7 4.75 -6.35 5.4 -3.95 6.4 -3.6 6.0 -0.7 2.9 0.3 2.5 4.45 4.25 11.9 1.25 9.65 -1.75 0.65 -4.1 -3.6 -3.4 -4.75 -2.25 -6.7 M-2.0 -6.7 L-1.2 -6.4 5.4 -3.95 M2.9 0.3 L-3.4 -4.75" fill="none" stroke="#000000" stroke-linecap="round" stroke-linejoin="round" stroke-width="0.05"/>
  </g>
  <defs>
    <radialGradient cx="0" cy="0" gradientTransform="matrix(0.0074, 0.0, 0.0, 0.0074, -3.1, 1.0)" gradientUnits="userSpaceOnUse" id="gradient0" r="819.2" spreadMethod="pad">
      <stop offset="0.0" stop-color="#ffffff"/>
      <stop offset="0.42745098039215684" stop-color="#7c9aad"/>
      <stop offset="0.44313725490196076" stop-color="#58607c"/>
      <stop offset="0.6470588235294118" stop-color="#7e8aa3"/>
      <stop offset="1.0" stop-color="#c2cde7"/>
    </radialGradient>
    <radialGradient cx="0" cy="0" gradientTransform="matrix(0.0101, 0.0, 0.0, 0.0101, 4.8, 7.5)" gradientUnits="userSpaceOnUse" id="gradient1" r="819.2" spreadMethod="pad">
      <stop offset="0.0" stop-color="#ffffff"/>
      <stop offset="0.42745098039215684" stop-color="#7c9aad"/>
      <stop offset="0.44313725490196076" stop-color="#58607c"/>
      <stop offset="0.6470588235294118" stop-color="#7e8aa3"/>
      <stop offset="1.0" stop-color="#c2cde7"/>
    </radialGradient>
    <radialGradient cx="0" cy="0" gradientTransform="matrix(0.0057, 0.0, 0.0, 0.0057, 3.4, -5.9)" gradientUnits="userSpaceOnUse" id="gradient2" r="819.2" spreadMethod="pad">
      <stop offset="0.0" stop-color="#ffffff"/>
      <stop offset="0.42745098039215684" stop-color="#7c9aad"/>
      <stop offset="0.44313725490196076" stop-color="#58607c"/>
      <stop offset="0.6470588235294118" stop-color="#7e8aa3"/>
      <stop offset="1.0" stop-color="#c2cde7"/>
    </radialGradient>
    <radialGradient cx="0" cy="0" gradientTransform="matrix(0.0071, 0.0, 0.0, 0.0071, 2.1, -2.8)" gradientUnits="userSpaceOnUse" id="gradient3" r="819.2" spreadMethod="pad">
      <stop offset="0.0" stop-color="#5a828b"/>
      <stop offset="0.5529411764705883" stop-color="#243d53"/>
      <stop offset="1.0" stop-color="#31402f"/>
    </radialGradient>
    <radialGradient cx="0" cy="0" gradientTransform="matrix(0.0188, 0.0, 0.0, 0.0188, 0.4, -3.0)" gradientUnits="userSpaceOnUse" id="gradient4" r="819.2" spreadMethod="pad">
      <stop offset="0.0" stop-color="#ffffff"/>
      <stop offset="0.42745098039215684" stop-color="#9b9f8a"/>
      <stop offset="0.44313725490196076" stop-color="#7c7c58"/>
      <stop offset="0.6470588235294118" stop-color="#9d9a84"/>
      <stop offset="1.0" stop-color="#d9d8d0"/>
    </radialGradient>
  </defs>
</svg>
