<?xml version="1.0" encoding="UTF-8" standalone="no"?>
<svg xmlns:xlink="http://www.w3.org/1999/xlink" height="9.0px" width="7.1px" xmlns="http://www.w3.org/2000/svg">
  <g transform="matrix(1.0, 0.0, 0.0, 1.0, 3.55, 9.8)">
    <path d="M3.55 -4.95 L3.55 -3.1 3.5 -0.85 Q-0.3 -0.4 -3.55 -3.05 L-3.4 -5.2 -3.35 -5.7 Q-3.2 -7.1 -2.6 -7.9 L-2.2 -8.65 -1.8 -9.05 -1.35 -9.3 -0.5 -9.65 Q1.35 -10.15 3.3 -8.95 L3.45 -6.75 3.55 -4.95" fill="url(#gradient0)" fill-rule="evenodd" stroke="none"/>
    <path d="M3.55 -4.95 L3.55 -3.1 3.5 -0.85 Q-0.3 -0.4 -3.55 -3.05 L-3.4 -5.2" fill="none" stroke="#000000" stroke-linecap="round" stroke-linejoin="round" stroke-width="0.05"/>
    <path d="M2.5 -6.3 L2.3 -4.6 2.25 -4.4 Q2.1 -3.7 1.6 -3.15 L1.85 -2.85 2.15 -2.45 2.1 -2.05 1.2 -2.15 Q0.25 -2.4 -0.6 -3.05 -1.45 -3.7 -1.45 -4.75 L-1.45 -4.9 0.25 -6.1 1.7 -7.7 1.9 -7.8 Q2.55 -7.25 2.5 -6.3" fill="#000000" fill-opacity="0.5019608" fill-rule="evenodd" stroke="none"/>
  </g>
  <defs>
    <radialGradient cx="0" cy="0" gradientTransform="matrix(0.0062, -8.0E-4, 0.0016, 0.0128, 0.3, -7.9)" gradientUnits="userSpaceOnUse" id="gradient0" r="819.2" spreadMethod="pad">
      <stop offset="0.0" stop-color="#666666"/>
      <stop offset="0.6196078431372549" stop-color="#232123"/>
      <stop offset="1.0" stop-color="#777777"/>
    </radialGradient>
  </defs>
</svg>
