<?xml version="1.0" encoding="UTF-8" standalone="no"?>
<svg xmlns:xlink="http://www.w3.org/1999/xlink" height="30.4px" width="12.9px" xmlns="http://www.w3.org/2000/svg">
  <g transform="matrix(1.0, 0.0, 0.0, 1.0, 6.2, 15.2)">
    <path d="M2.3 -15.2 L3.85 -11.35 4.65 -5.5 4.05 -4.65 3.0 -0.15 2.85 4.95 1.6 13.4 0.15 14.95 Q-2.05 1.1 -2.0 -14.55 0.3 -13.95 2.3 -15.2" fill="url(#gradient0)" fill-rule="evenodd" stroke="none"/>
    <path d="M0.15 14.95 L-0.1 15.2 -3.55 13.15 -3.7 0.5 -4.6 -4.9 -3.1 -14.5 -3.1 -14.55 -2.75 -14.8 -2.0 -14.55 Q-2.05 1.1 0.15 14.95" fill="url(#gradient1)" fill-rule="evenodd" stroke="none"/>
    <path d="M2.3 -15.2 L3.85 -11.35 4.65 -5.5 4.05 -4.65 3.0 -0.15 2.85 4.95 1.6 13.4 M-3.55 13.15 L-3.7 0.5 -4.6 -4.9 -3.1 -14.5 -3.1 -14.55 -2.75 -14.8" fill="none" stroke="#000000" stroke-linecap="round" stroke-linejoin="round" stroke-width="0.05"/>
    <path d="M3.95 7.45 L3.65 13.2 Q-0.6 15.85 -4.75 13.45 -4.45 10.6 -4.45 7.45 -0.25 9.45 3.95 7.45" fill="url(#gradient2)" fill-rule="evenodd" stroke="none"/>
    <path d="M-4.45 7.45 Q-4.5 0.15 -6.2 -8.6 -2.1 -6.3 6.7 -8.65 4.6 -0.65 3.95 7.45 -0.25 9.45 -4.45 7.45" fill="url(#gradient3)" fill-rule="evenodd" stroke="none"/>
    <path d="M-4.45 7.45 Q-4.5 0.15 -6.2 -8.6 -2.1 -6.3 6.7 -8.65 4.6 -0.65 3.95 7.45 L3.65 13.2 Q-0.6 15.85 -4.75 13.45 -4.45 10.6 -4.45 7.45" fill="none" stroke="#000000" stroke-linecap="round" stroke-linejoin="round" stroke-width="0.05"/>
    <path d="M-4.45 7.45 Q-0.25 9.45 3.95 7.45" fill="none" stroke="#000000" stroke-linecap="round" stroke-linejoin="round" stroke-width="0.05"/>
  </g>
  <defs>
    <linearGradient gradientTransform="matrix(0.0046, -7.0E-4, 0.0027, 0.0178, 1.7, -0.2)" gradientUnits="userSpaceOnUse" id="gradient0" spreadMethod="pad" x1="-819.2" x2="819.2">
      <stop offset="0.0" stop-color="#efece4"/>
      <stop offset="0.41568627450980394" stop-color="#755e46"/>
      <stop offset="0.4392156862745098" stop-color="#2f251e"/>
      <stop offset="0.7294117647058823" stop-color="#947a63"/>
      <stop offset="1.0" stop-color="#9f9171"/>
    </linearGradient>
    <linearGradient gradientTransform="matrix(0.0034, -5.0E-4, 0.0028, 0.0181, -2.6, 0.4)" gradientUnits="userSpaceOnUse" id="gradient1" spreadMethod="pad" x1="-819.2" x2="819.2">
      <stop offset="0.0" stop-color="#efece4"/>
      <stop offset="0.41568627450980394" stop-color="#755e46"/>
      <stop offset="0.4392156862745098" stop-color="#2f251e"/>
      <stop offset="0.7294117647058823" stop-color="#947a63"/>
      <stop offset="1.0" stop-color="#9f9171"/>
    </linearGradient>
    <radialGradient cx="0" cy="0" gradientTransform="matrix(0.0082, 0.0, 0.0, 0.0082, 0.0, 9.25)" gradientUnits="userSpaceOnUse" id="gradient2" r="819.2" spreadMethod="pad">
      <stop offset="0.0" stop-color="#817d8a"/>
      <stop offset="0.3803921568627451" stop-color="#413e4a"/>
      <stop offset="0.6823529411764706" stop-color="#221f25"/>
      <stop offset="0.9725490196078431" stop-color="#413f49"/>
    </radialGradient>
    <radialGradient cx="0" cy="0" gradientTransform="matrix(0.0254, 0.0, 0.0, 0.0254, 0.65, -5.95)" gradientUnits="userSpaceOnUse" id="gradient3" r="819.2" spreadMethod="pad">
      <stop offset="0.0" stop-color="#816d5c"/>
      <stop offset="1.0" stop-color="#21232c"/>
    </radialGradient>
  </defs>
</svg>
