<?xml version="1.0" encoding="UTF-8" standalone="no"?>
<svg xmlns:xlink="http://www.w3.org/1999/xlink" height="46.15px" width="5.25px" xmlns="http://www.w3.org/2000/svg">
  <g transform="matrix(1.0, 0.0, 0.0, 1.0, 3.8, 17.85)">
    <path d="M0.6 17.7 Q-0.2 22.7 -0.1 27.6 -2.35 29.15 -3.8 27.3 L-2.35 17.2 Q-0.6 18.4 0.6 17.7" fill="#373737" fill-rule="evenodd" stroke="none"/>
    <path d="M1.2 14.45 L0.6 17.7 Q-0.6 18.4 -2.35 17.2 L-1.95 14.45 Q-0.4 15.4 1.2 14.45" fill="#524636" fill-rule="evenodd" stroke="none"/>
    <path d="M-1.95 14.45 L-1.95 14.2 Q-0.4 -1.5 -2.1 -17.85 L0.7 -12.7 Q1.9 1.2 1.2 14.45 -0.4 15.4 -1.95 14.45" fill="url(#gradient0)" fill-rule="evenodd" stroke="none"/>
    <path d="M-1.95 14.45 L-1.95 14.2 Q-0.4 -1.5 -2.1 -17.85 L0.7 -12.7 Q1.9 1.2 1.2 14.45 L0.6 17.7 Q-0.2 22.7 -0.1 27.6 -2.35 29.15 -3.8 27.3 L-2.35 17.2 -1.95 14.45 Q-0.4 15.4 1.2 14.45 M-2.35 17.2 Q-0.6 18.4 0.6 17.7" fill="none" stroke="#000000" stroke-linecap="round" stroke-linejoin="round" stroke-width="0.05"/>
  </g>
  <defs>
    <linearGradient gradientTransform="matrix(0.0088, -0.0142, 0.0103, 0.0064, -0.9, -1.0)" gradientUnits="userSpaceOnUse" id="gradient0" spreadMethod="pad" x1="-819.2" x2="819.2">
      <stop offset="0.0" stop-color="#3e2020"/>
      <stop offset="1.0" stop-color="#e73a3a"/>
    </linearGradient>
  </defs>
</svg>
