<?xml version="1.0" encoding="UTF-8" standalone="no"?>
<svg xmlns:xlink="http://www.w3.org/1999/xlink" height="10.45px" width="14.9px" xmlns="http://www.w3.org/2000/svg">
  <g transform="matrix(1.0, 0.0, 0.0, 1.0, 5.8, 10.65)">
    <path d="M5.25 -1.25 L0.4 -2.0 -2.6 -2.65 -5.7 -3.5 -5.8 -4.25 -2.55 -4.15 -2.45 -4.4 5.55 -2.95 5.5 -2.6 9.1 -1.5 9.0 -0.9 5.25 -1.25 M-1.95 -6.2 L-0.7 -10.65 5.8 -9.6 5.6 -4.8 -1.95 -6.2" fill="url(#gradient0)" fill-rule="evenodd" stroke="none"/>
    <path d="M-2.45 -4.4 L-1.95 -6.2 5.6 -4.8 5.55 -2.95 -2.45 -4.4" fill="url(#gradient1)" fill-rule="evenodd" stroke="none"/>
    <path d="M5.25 -1.25 L4.2 -0.2 3.15 -0.25 0.4 -2.0 5.25 -1.25" fill="#000000" fill-rule="evenodd" stroke="none"/>
    <path d="M5.25 -1.25 L0.4 -2.0 -2.6 -2.65 -5.7 -3.5 -5.8 -4.25 -2.55 -4.15 -2.45 -4.4 -1.95 -6.2 -0.7 -10.65 5.8 -9.6 5.6 -4.8 5.55 -2.95 5.5 -2.6 9.1 -1.5 9.0 -0.9 5.25 -1.25 M5.55 -2.95 L-2.45 -4.4 M5.6 -4.8 L-1.95 -6.2" fill="none" stroke="#000000" stroke-linecap="round" stroke-linejoin="round" stroke-width="0.05"/>
  </g>
  <defs>
    <radialGradient cx="0" cy="0" gradientTransform="matrix(0.0126, 0.0, 0.0, 0.0126, 1.5, -7.75)" gradientUnits="userSpaceOnUse" id="gradient0" r="819.2" spreadMethod="pad">
      <stop offset="0.0" stop-color="#f3efe9"/>
      <stop offset="0.6196078431372549" stop-color="#c4b699"/>
      <stop offset="1.0" stop-color="#949bb8"/>
    </radialGradient>
    <radialGradient cx="0" cy="0" gradientTransform="matrix(0.0126, 0.0, 0.0, 0.0126, 1.5, -7.75)" gradientUnits="userSpaceOnUse" id="gradient1" r="819.2" spreadMethod="pad">
      <stop offset="0.0" stop-color="#32323d"/>
      <stop offset="1.0" stop-color="#1b1510"/>
    </radialGradient>
  </defs>
</svg>
