<?xml version="1.0" encoding="UTF-8" standalone="no"?>
<svg xmlns:xlink="http://www.w3.org/1999/xlink" height="26.45px" width="8.2px" xmlns="http://www.w3.org/2000/svg">
  <g transform="matrix(1.0, 0.0, 0.0, 1.0, 3.95, -5.3)">
    <path d="M-0.25 10.1 L-0.55 12.0 -0.65 12.7 Q-1.8 8.8 -3.75 9.7 L-3.6 8.4 -3.35 6.9 Q-0.85 2.55 -0.25 10.1" fill="url(#gradient0)" fill-rule="evenodd" stroke="none"/>
    <path d="M-3.75 9.7 Q-1.8 8.8 -0.65 12.7 -1.8 21.4 0.25 31.75 -4.85 20.75 -3.75 9.7" fill="url(#gradient1)" fill-rule="evenodd" stroke="none"/>
    <path d="M-0.65 12.7 L-0.55 12.0 -0.25 10.1 M-3.35 6.9 L-3.6 8.4 -3.75 9.7 Q-1.8 8.8 -0.65 12.7 -1.8 21.4 0.25 31.75 -4.85 20.75 -3.75 9.7" fill="none" stroke="#000000" stroke-linecap="round" stroke-linejoin="round" stroke-width="0.05"/>
    <path d="M-1.45 10.0 L-1.35 8.7 -1.25 7.15 Q0.95 2.65 2.1 10.0 L1.95 11.95 1.9 12.6 Q0.45 8.85 -1.45 10.0" fill="url(#gradient2)" fill-rule="evenodd" stroke="none"/>
    <path d="M1.9 12.6 Q1.4 21.4 4.25 31.5 -1.7 21.1 -1.45 10.0 0.45 8.85 1.9 12.6" fill="url(#gradient3)" fill-rule="evenodd" stroke="none"/>
    <path d="M1.9 12.6 Q1.4 21.4 4.25 31.5 -1.7 21.1 -1.45 10.0 L-1.35 8.7 -1.25 7.15 M2.1 10.0 L1.95 11.95 1.9 12.6 Q0.45 8.85 -1.45 10.0" fill="none" stroke="#000000" stroke-linecap="round" stroke-linejoin="round" stroke-width="0.05"/>
  </g>
  <defs>
    <radialGradient cx="0" cy="0" gradientTransform="matrix(0.007, 0.0, 0.0, 0.0086, -2.0, 5.85)" gradientUnits="userSpaceOnUse" id="gradient0" r="819.2" spreadMethod="pad">
      <stop offset="0.0" stop-color="#554a33"/>
      <stop offset="1.0" stop-color="#1f1f1d"/>
    </radialGradient>
    <radialGradient cx="0" cy="0" gradientTransform="matrix(0.0236, 0.0, 0.0, 0.0236, -0.75, 28.65)" gradientUnits="userSpaceOnUse" id="gradient1" r="819.2" spreadMethod="pad">
      <stop offset="0.0" stop-color="#fecb81"/>
      <stop offset="0.3411764705882353" stop-color="#ff9900"/>
      <stop offset="0.6549019607843137" stop-color="#746250"/>
      <stop offset="1.0" stop-color="#361f1f"/>
    </radialGradient>
    <radialGradient cx="0" cy="0" gradientTransform="matrix(0.007, -8.0E-4, 7.0E-4, 0.0085, 0.05, 6.0)" gradientUnits="userSpaceOnUse" id="gradient2" r="819.2" spreadMethod="pad">
      <stop offset="0.0" stop-color="#554a33"/>
      <stop offset="1.0" stop-color="#1f1f1d"/>
    </radialGradient>
    <radialGradient cx="0" cy="0" gradientTransform="matrix(0.0244, 0.0, 0.0, 0.0244, 3.15, 29.25)" gradientUnits="userSpaceOnUse" id="gradient3" r="819.2" spreadMethod="pad">
      <stop offset="0.0" stop-color="#fecb81"/>
      <stop offset="0.3411764705882353" stop-color="#ff9900"/>
      <stop offset="0.6549019607843137" stop-color="#746250"/>
      <stop offset="1.0" stop-color="#361f1f"/>
    </radialGradient>
  </defs>
</svg>
