<?xml version="1.0" encoding="UTF-8" standalone="no"?>
<svg xmlns:xlink="http://www.w3.org/1999/xlink" height="24.0px" width="18.25px" xmlns="http://www.w3.org/2000/svg">
  <g transform="matrix(1.0, 0.0, 0.0, 1.0, 6.5, 20.05)">
    <path d="M-6.45 -4.85 Q-2.55 -9.45 1.75 -8.85 -2.65 -7.05 -5.7 -1.3 -6.75 -2.7 -6.45 -4.85" fill="url(#gradient0)" fill-rule="evenodd" stroke="none"/>
    <path d="M-5.25 0.85 Q-2.6 -3.05 0.6 -3.35 -2.55 -1.45 -5.1 3.95 -5.85 2.75 -5.25 0.85" fill="url(#gradient1)" fill-rule="evenodd" stroke="none"/>
    <path d="M5.75 2.85 Q5.9 -0.85 4.7 -3.35 6.7 -2.45 6.75 0.75 L5.75 2.85" fill="url(#gradient2)" fill-rule="evenodd" stroke="none"/>
    <path d="M7.2 -3.35 Q6.75 -6.2 5.15 -9.1 7.1 -7.9 8.1 -4.8 7.8 -3.8 7.2 -3.35" fill="url(#gradient3)" fill-rule="evenodd" stroke="none"/>
    <path d="M7.2 -3.35 Q6.75 -6.2 5.15 -9.1 7.1 -7.9 8.1 -4.8 7.8 -3.8 7.2 -3.35 M5.75 2.85 Q5.9 -0.85 4.7 -3.35 6.7 -2.45 6.75 0.75 L5.75 2.85 M-6.45 -4.85 Q-2.55 -9.45 1.75 -8.85 -2.65 -7.05 -5.7 -1.3 -6.75 -2.7 -6.45 -4.85 M-5.25 0.85 Q-2.6 -3.05 0.6 -3.35 -2.55 -1.45 -5.1 3.95 -5.85 2.75 -5.25 0.85 Z" fill="none" stroke="#000000" stroke-linecap="round" stroke-linejoin="round" stroke-width="0.05"/>
    <path d="M4.8 -13.35 L5.1 -20.05 5.9 -12.75 Q6.85 -10.45 9.05 -8.5 11.35 -7.5 11.75 -4.4 10.6 -6.7 7.85 -6.55 5.4 -9.75 4.8 -13.35" fill="url(#gradient4)" fill-rule="evenodd" stroke="none"/>
    <path d="M4.8 -13.35 L5.1 -20.05 5.9 -12.75 Q6.85 -10.45 9.05 -8.5 11.35 -7.5 11.75 -4.4 10.6 -6.7 7.85 -6.55 5.4 -9.75 4.8 -13.35 Z" fill="none" stroke="#000000" stroke-linecap="round" stroke-linejoin="round" stroke-width="0.05"/>
  </g>
  <defs>
    <radialGradient cx="0" cy="0" gradientTransform="matrix(0.0096, 0.0, 0.0, 0.0096, -0.95, -7.6)" gradientUnits="userSpaceOnUse" id="gradient0" r="819.2" spreadMethod="pad">
      <stop offset="0.0" stop-color="#554a33"/>
      <stop offset="1.0" stop-color="#1f1f1d"/>
    </radialGradient>
    <radialGradient cx="0" cy="0" gradientTransform="matrix(0.0093, 0.0, 0.0, 0.0093, -1.2, -2.6)" gradientUnits="userSpaceOnUse" id="gradient1" r="819.2" spreadMethod="pad">
      <stop offset="0.0" stop-color="#554a33"/>
      <stop offset="1.0" stop-color="#1f1f1d"/>
    </radialGradient>
    <radialGradient cx="0" cy="0" gradientTransform="matrix(0.0066, 0.0, 0.0, 0.0066, 5.5, -2.55)" gradientUnits="userSpaceOnUse" id="gradient2" r="819.2" spreadMethod="pad">
      <stop offset="0.0" stop-color="#554a33"/>
      <stop offset="1.0" stop-color="#1f1f1d"/>
    </radialGradient>
    <radialGradient cx="0" cy="0" gradientTransform="matrix(0.0069, 0.0, 0.0, 0.0069, 5.9, -8.2)" gradientUnits="userSpaceOnUse" id="gradient3" r="819.2" spreadMethod="pad">
      <stop offset="0.0" stop-color="#554a33"/>
      <stop offset="1.0" stop-color="#1f1f1d"/>
    </radialGradient>
    <radialGradient cx="0" cy="0" gradientTransform="matrix(0.0149, 0.0, 0.0, 0.0149, 8.1, -8.2)" gradientUnits="userSpaceOnUse" id="gradient4" r="819.2" spreadMethod="pad">
      <stop offset="0.0" stop-color="#a59785"/>
      <stop offset="0.4588235294117647" stop-color="#797464"/>
      <stop offset="1.0" stop-color="#3f1616"/>
    </radialGradient>
  </defs>
</svg>
