<?xml version="1.0" encoding="UTF-8" standalone="no"?>
<svg xmlns:xlink="http://www.w3.org/1999/xlink" height="25.7px" width="21.25px" xmlns="http://www.w3.org/2000/svg">
  <g transform="matrix(1.0, 0.0, 0.0, 1.0, 15.0, 11.05)">
    <path d="M5.0 -1.3 L5.35 1.4 4.5 1.5 4.5 1.6 3.7 4.65 -0.6 3.7 -1.05 0.7 -1.3 0.5 -1.45 0.35 Q-2.55 -0.85 -2.55 -2.55 -2.55 -4.25 -1.45 -5.5 -0.3 -6.7 1.3 -6.7 2.9 -6.7 4.0 -5.5 5.15 -4.25 5.15 -2.55 L5.1 -1.85 5.0 -1.3" fill="url(#gradient0)" fill-rule="evenodd" stroke="none"/>
    <path d="M5.1 -1.85 L5.05 -1.6 5.0 -1.3 5.35 1.4 4.5 1.5 4.5 1.6 3.7 4.65 -0.6 3.7 -1.05 0.7 -1.3 0.5 -1.45 0.35 Q-2.55 -0.85 -2.55 -2.55 -2.55 -4.25 -1.45 -5.5 -0.3 -6.7 1.3 -6.7 2.9 -6.7 4.0 -5.5 5.15 -4.25 5.15 -2.55 L5.1 -1.85 5.0 -1.3" fill="none" stroke="#000000" stroke-linecap="round" stroke-linejoin="round" stroke-width="0.05"/>
    <path d="M3.35 -1.65 L4.2 -1.55 4.35 -1.35 3.3 -0.3 Q2.15 -0.7 2.15 -1.25 L2.25 -1.5 3.35 -1.65 M4.6 0.5 Q5.0 0.5 5.3 1.05 4.85 1.65 3.9 1.65 L3.75 1.25 Q3.75 0.8 4.6 0.5 M3.8 2.55 L3.8 2.85 3.3 2.9 2.85 2.85 3.35 2.45 3.8 2.55" fill="#000000" fill-rule="evenodd" stroke="none"/>
    <path d="M-3.25 -1.4 L-3.2 -1.4 -3.2 -1.35 -3.25 -1.4" fill="url(#gradient1)" fill-rule="evenodd" stroke="none"/>
    <path d="M-3.55 -3.25 Q-1.6 -3.3 -1.25 -4.5 -3.85 -9.25 -10.9 -7.15 L-15.0 -11.05 Q3.3 -10.05 5.2 -4.1 L4.8 2.85 2.65 1.5 1.95 -0.3 Q1.0 -1.65 -0.35 -1.65 L-0.75 -1.65 -2.15 -1.6 -3.2 -1.4 -3.25 -1.4 -3.55 -3.25" fill="url(#gradient2)" fill-rule="evenodd" stroke="none"/>
    <path d="M-3.2 -1.35 Q-6.8 0.5 -5.2 4.75 -0.65 6.3 -0.95 14.65 -2.1 8.15 -6.55 7.2 -9.75 -1.5 -3.55 -3.25 L-3.25 -1.4 -3.2 -1.35" fill="url(#gradient3)" fill-rule="evenodd" stroke="none"/>
    <path d="M-0.75 -1.65 L-0.75 2.25 Q1.9 3.6 3.4 5.85 4.5 6.35 5.0 5.55 L4.7 4.3 5.55 4.95 Q5.7 6.0 6.25 6.7 5.7 7.9 3.85 8.5 1.35 5.9 -2.4 4.2 -2.95 2.6 -1.95 0.95 -2.1 -0.2 -3.2 -1.35 L-3.2 -1.4 -2.15 -1.6 -0.75 -1.65" fill="url(#gradient4)" fill-rule="evenodd" stroke="none"/>
    <path d="M-3.55 -3.25 Q-1.6 -3.3 -1.25 -4.5 -3.85 -9.25 -10.9 -7.15 L-15.0 -11.05 Q3.3 -10.05 5.2 -4.1 L4.8 2.85 2.65 1.5 1.95 -0.3 Q1.0 -1.65 -0.35 -1.65 L-0.75 -1.65 -0.75 2.25 Q1.9 3.6 3.4 5.85 4.5 6.35 5.0 5.55 L4.7 4.3 5.55 4.95 Q5.7 6.0 6.25 6.7 5.7 7.9 3.85 8.5 1.35 5.9 -2.4 4.2 -2.95 2.6 -1.95 0.95 -2.1 -0.2 -3.2 -1.35 -6.8 0.5 -5.2 4.75 -0.65 6.3 -0.95 14.65 -2.1 8.15 -6.55 7.2 -9.75 -1.5 -3.55 -3.25 M-3.25 -1.4 L-3.2 -1.4 -2.15 -1.6 -0.75 -1.65 M-3.2 -1.35 L-3.25 -1.4" fill="none" stroke="#000000" stroke-linecap="round" stroke-linejoin="round" stroke-width="0.05"/>
    <path d="M2.1 -1.3 L2.15 -1.35 2.2 -1.4 2.3 -1.4 3.2 -1.15 4.25 -0.85 5.1 -0.25 5.1 -0.2 4.95 -0.05 4.6 -0.05 4.55 -0.05 4.45 -0.05 3.9 -0.25 3.85 -0.3 3.2 -0.25 2.9 -0.35 2.6 -0.4 2.45 -0.5 2.3 -0.7 2.2 -0.85 2.2 -0.9 2.05 -1.1 2.05 -1.25 2.1 -1.3" fill="#000000" fill-rule="evenodd" stroke="none"/>
  </g>
  <defs>
    <radialGradient cx="0" cy="0" gradientTransform="matrix(0.0101, 0.0, 0.0, 0.0101, 4.7, -2.65)" gradientUnits="userSpaceOnUse" id="gradient0" r="819.2" spreadMethod="pad">
      <stop offset="0.0" stop-color="#4f3652"/>
      <stop offset="0.792156862745098" stop-color="#161414"/>
      <stop offset="1.0" stop-color="#3e283e"/>
    </radialGradient>
    <radialGradient cx="0" cy="0" gradientTransform="matrix(0.014, 0.0, 0.0, 0.014, 5.35, 6.1)" gradientUnits="userSpaceOnUse" id="gradient1" r="819.2" spreadMethod="pad">
      <stop offset="0.0" stop-color="#ddd0c4"/>
      <stop offset="0.396078431372549" stop-color="#b39577"/>
      <stop offset="1.0" stop-color="#4b3834"/>
    </radialGradient>
    <radialGradient cx="0" cy="0" gradientTransform="matrix(0.0189, 0.0, 0.0, 0.0189, -0.4, -7.55)" gradientUnits="userSpaceOnUse" id="gradient2" r="819.2" spreadMethod="pad">
      <stop offset="0.0" stop-color="#cfd3a3"/>
      <stop offset="0.6901960784313725" stop-color="#5e5e4d"/>
      <stop offset="0.803921568627451" stop-color="#584838"/>
      <stop offset="1.0" stop-color="#634747"/>
    </radialGradient>
    <radialGradient cx="0" cy="0" gradientTransform="matrix(0.0172, 0.0, 0.0, 0.0172, -6.45, 1.65)" gradientUnits="userSpaceOnUse" id="gradient3" r="819.2" spreadMethod="pad">
      <stop offset="0.0" stop-color="#cfd3a3"/>
      <stop offset="0.6901960784313725" stop-color="#5e5e4d"/>
      <stop offset="0.803921568627451" stop-color="#584838"/>
      <stop offset="1.0" stop-color="#634747"/>
    </radialGradient>
    <radialGradient cx="0" cy="0" gradientTransform="matrix(0.014, 0.0, 0.0, 0.014, 5.35, 6.1)" gradientUnits="userSpaceOnUse" id="gradient4" r="819.2" spreadMethod="pad">
      <stop offset="0.0" stop-color="#642452"/>
      <stop offset="1.0" stop-color="#291e48"/>
    </radialGradient>
  </defs>
</svg>
