<?xml version="1.0" encoding="UTF-8" standalone="no"?>
<svg xmlns:xlink="http://www.w3.org/1999/xlink" height="78.75px" width="48.1px" xmlns="http://www.w3.org/2000/svg">
  <g transform="matrix(1.0, 0.0, 0.0, 1.0, 22.0, 36.4)">
    <path d="M2.45 -36.2 L3.25 -35.75 4.05 -34.95 Q4.5 -34.5 4.35 -33.9 4.15 -33.2 3.5 -33.15 1.85 -32.95 0.4 -33.8 -0.25 -34.2 -0.5 -34.9 L-0.45 -35.25 -0.2 -35.55 0.75 -36.05 1.45 -36.3 1.5 -36.4 2.45 -36.2 M14.8 -15.3 L17.6 -15.3 18.25 -15.25 18.45 -15.5 18.8 -15.8 19.5 -16.1 20.0 -16.15 Q21.05 -15.85 21.35 -14.8 L21.75 -12.9 22.25 -10.2 22.95 -7.65 Q23.6 -5.65 23.85 -6.65 L23.85 -7.0 23.85 -7.4 23.9 -7.75 24.0 -8.1 24.25 -8.35 25.0 -8.5 25.55 -8.3 25.85 -8.0 26.05 -7.25 26.1 -6.5 26.1 -5.0 26.1 -3.9 25.7 -2.35 Q25.2 -1.35 24.3 -0.8 L24.0 -0.5 24.0 -0.15 24.0 0.25 24.0 0.6 23.95 1.0 23.85 1.35 23.65 1.6 Q25.85 2.15 24.75 4.8 23.85 7.0 23.25 9.3 22.45 12.25 20.0 12.35 18.35 11.25 19.35 9.05 L20.9 4.95 Q21.35 3.35 22.4 1.95 L21.85 1.3 21.35 -0.3 20.75 -1.6 19.9 -3.45 18.85 -5.4 18.85 -5.75 18.9 -6.15 19.0 -6.5 19.1 -6.9 Q16.2 -10.05 12.5 -11.9 3.2 -16.5 -6.55 -11.25 -9.3 -9.7 -11.15 -11.9 L-11.05 -12.15 -11.95 -11.75 -15.85 -9.35 -17.15 -9.4 Q-17.25 -12.0 -14.6 -14.1 L-8.3 -18.8 Q-4.45 -21.4 0.0 -22.0 L3.15 -21.45 Q4.75 -20.9 5.85 -19.75 6.7 -18.85 6.65 -17.7 L8.45 -17.1 9.3 -16.75 Q11.4 -16.8 13.5 -15.95 L14.8 -15.3 M21.0 16.15 Q20.55 17.65 19.1 18.6 18.0 19.35 16.95 19.05 11.6 26.35 1.05 25.05 -2.3 24.65 -5.35 23.45 -9.15 23.5 -12.25 19.65 L-12.8 18.9 -13.85 17.85 -14.5 17.85 -14.8 18.25 -15.5 19.0 Q-17.75 17.9 -18.8 15.05 -19.75 12.3 -20.15 9.35 -20.55 6.7 -22.0 5.0 L-21.35 0.8 -20.75 -4.05 Q-20.45 -6.85 -19.05 -8.4 L-19.0 -8.5 -17.7 -7.75 Q-17.45 -7.4 -16.9 -7.3 L-15.8 -7.0 -15.4 -6.75 Q-16.0 -2.9 -16.2 1.1 -16.45 5.65 -15.0 9.95 L-13.85 13.45 -11.9 15.1 -10.9 16.05 -9.85 16.9 Q-7.85 18.7 -5.65 20.3 -3.05 22.2 -0.95 20.9 L-0.75 20.6 Q-0.3 16.75 5.7 18.85 10.95 20.75 16.5 18.9 L16.25 18.75 Q16.45 17.75 17.45 17.2 18.45 16.7 18.95 15.6 19.4 14.55 20.25 13.75 L20.5 13.6 Q21.6 14.4 21.0 16.15 M6.6 38.75 L6.6 39.5 6.3 40.2 Q5.75 41.45 4.45 42.05 L2.95 42.35 2.35 42.25 2.1 41.45 2.15 40.45 Q2.45 39.65 2.35 38.9 2.25 37.7 3.5 37.55 L3.5 37.5 4.45 37.6 5.5 37.85 Q6.45 38.0 6.6 38.75 M-4.0 -18.75 Q-3.1 -16.95 -4.95 -15.7 L-5.9 -15.05 -3.55 -15.75 2.4 -17.6 Q0.3 -17.1 -1.4 -18.3 -2.7 -19.2 -4.0 -18.75 M-17.75 11.65 L-17.2 13.15 -17.0 13.5 -16.9 13.2 Q-17.6 11.9 -17.45 10.55 L-17.45 10.35 Q-17.35 9.3 -17.6 8.25 -17.7 7.95 -17.9 8.25 -18.4 8.85 -18.15 9.8 L-17.75 11.65" fill="#ffffff" fill-rule="evenodd" stroke="none"/>
    <path d="M0.4 -0.7 Q0.75 -0.35 0.6 -0.9 L0.15 -1.25 Q0.2 -0.9 0.4 -0.7 M2.05 2.65 Q0.3 3.6 -1.2 2.2 -3.45 0.0 -1.95 -3.05 L-1.5 -3.25 -1.3 -3.35 -1.0 -3.4 -1.0 -3.45 Q3.0 -3.25 3.2 0.7 3.25 2.0 2.05 2.65" fill="#ffffff" fill-rule="evenodd" stroke="none"/>
  </g>
</svg>
