<?xml version="1.0" encoding="UTF-8" standalone="no"?>
<svg xmlns:xlink="http://www.w3.org/1999/xlink" height="79.5px" width="65.55px" xmlns="http://www.w3.org/2000/svg">
  <g transform="matrix(1.0, 0.0, 0.0, 1.0, 33.7, 37.5)">
    <path d="M23.25 -29.6 L25.85 -27.1 27.6 -25.25 27.4 -24.5 27.4 -24.15 27.5 -23.75 27.65 -23.4 28.05 -23.15 28.55 -22.5 28.85 -21.75 29.0 -21.0 Q29.95 -20.4 30.55 -19.05 L31.25 -16.85 31.85 -14.2 31.85 -13.65 Q29.35 -13.35 28.2 -16.0 27.25 -18.05 26.65 -20.15 L26.4 -21.45 Q26.05 -21.5 25.8 -21.7 25.35 -22.0 25.05 -22.45 L23.85 -23.5 Q20.1 -23.1 16.7 -26.65 L14.9 -28.3 Q9.8 -32.65 3.2 -34.05 0.75 -34.6 0.3 -35.5 L0.05 -35.4 Q-1.0 -34.85 -1.65 -35.85 L-1.75 -36.45 -1.5 -36.75 -1.25 -36.9 -0.3 -36.6 0.15 -36.45 0.25 -36.4 1.0 -37.5 2.0 -37.0 2.6 -36.8 3.95 -36.45 4.6 -36.25 5.3 -36.4 5.5 -36.6 5.75 -36.85 6.0 -37.0 6.5 -37.15 Q8.15 -36.9 9.65 -36.1 L15.1 -33.15 Q17.75 -31.6 18.25 -33.9 19.8 -34.65 20.6 -33.1 21.55 -31.15 23.25 -29.6 M12.0 -13.9 L13.65 -12.95 15.5 -12.1 Q16.6 -11.75 17.0 -10.6 L17.0 -10.25 16.85 -9.9 16.6 -9.5 16.45 -9.3 16.0 -9.15 15.25 -9.05 14.5 -8.9 Q13.55 -9.1 12.8 -9.55 11.75 -10.1 11.2 -11.2 10.7 -12.15 11.1 -13.1 11.4 -13.85 12.0 -13.9 M7.75 -20.0 L8.5 -19.15 Q8.75 -18.5 8.3 -17.9 L7.45 -17.2 7.0 -17.15 Q6.05 -17.25 6.05 -18.15 6.05 -18.7 6.35 -19.2 L7.0 -19.8 7.5 -20.0 7.75 -20.0 M2.45 -17.85 L3.15 -17.5 3.55 -16.85 3.5 -16.5 2.0 -16.0 Q1.05 -15.9 0.65 -16.7 0.3 -17.35 0.9 -17.7 L1.5 -18.0 2.45 -17.85 M20.0 -11.4 Q21.75 -11.5 21.2 -9.8 20.75 -8.5 19.6 -9.55 18.3 -10.7 19.95 -11.3 L20.0 -11.4 M24.75 -2.5 Q25.3 0.1 25.1 2.9 24.95 5.75 23.75 8.35 22.7 8.65 22.3 9.55 L21.7 11.1 Q21.45 11.9 21.35 12.85 L19.95 14.1 18.3 15.45 17.5 16.1 Q16.85 16.0 16.45 15.6 L15.25 14.55 14.85 14.0 Q16.05 11.9 17.85 10.0 19.4 8.4 19.5 6.15 L19.75 2.75 20.15 2.4 20.6 2.1 20.85 1.85 20.85 -0.75 20.8 -3.75 Q20.75 -5.3 21.4 -6.6 L22.0 -7.15 Q24.15 -5.4 24.75 -2.5 M11.55 22.75 L12.25 22.6 Q12.9 23.35 12.25 24.1 L11.05 24.05 Q10.7 23.2 11.55 22.75 M4.85 25.2 Q3.85 24.0 5.5 23.6 7.25 23.65 6.45 25.2 5.85 26.45 4.85 25.2 M5.3 41.1 L5.0 41.75 Q2.6 42.3 0.3 41.25 -0.3 40.95 -0.85 40.6 L-3.65 41.55 Q-3.85 41.6 -3.9 42.0 -9.35 41.1 -14.7 37.3 -19.15 34.15 -23.0 32.35 L-23.5 32.35 -23.95 32.9 -24.4 33.5 -25.05 33.85 -25.65 33.75 -25.9 32.95 -26.0 31.85 -26.0 30.75 -26.0 30.5 Q-28.05 29.45 -28.55 26.5 L-28.65 25.9 -29.8 24.25 -30.3 23.6 Q-31.75 23.45 -32.15 21.3 L-32.15 21.25 -32.4 20.95 Q-33.0 20.2 -33.0 19.25 L-32.75 18.85 -33.3 17.25 Q-34.2 14.8 -33.05 13.35 L-33.0 13.25 Q-31.3 14.15 -31.15 16.45 L-30.85 18.35 -30.35 18.1 -29.75 18.0 Q-29.55 19.15 -28.5 19.55 L-28.45 19.55 -27.75 19.35 -27.7 19.4 -27.65 19.1 -27.45 18.85 -27.0 18.65 -26.75 18.6 -26.05 19.4 -25.6 20.15 -25.8 20.45 -26.5 20.75 -26.55 20.75 Q-25.65 21.6 -25.15 23.0 L-25.0 23.35 Q-23.25 24.0 -21.7 25.3 -20.4 26.4 -18.85 27.1 -17.65 27.6 -16.9 28.6 -17.65 29.15 -18.5 29.3 L-19.15 29.4 -17.0 31.7 Q-14.4 34.7 -10.8 36.6 -6.15 39.1 -2.15 39.55 L-2.8 38.7 Q-3.6 37.55 -2.25 37.6 -1.6 38.5 -0.5 38.65 L1.7 39.0 Q2.8 39.25 3.85 39.85 L4.0 39.75 4.6 39.45 5.65 38.95 6.1 38.85 6.05 39.2 5.85 39.6 5.5 40.35 5.4 40.75 5.3 41.1 M14.25 39.5 Q13.9 40.5 13.2 39.65 12.35 38.65 13.5 38.5 L13.75 38.5 Q14.45 38.85 14.25 39.5 M-4.5 -36.15 L-4.4 -36.15 Q-4.1 -35.4 -4.55 -34.7 -4.7 -34.45 -5.0 -34.45 -5.65 -34.5 -6.0 -34.95 L-6.0 -35.5 -5.5 -35.7 -4.9 -35.9 -4.8 -36.0 -4.75 -36.1 -4.5 -36.15 M-20.45 -4.9 Q-20.1 -6.65 -19.15 -8.0 -16.85 -11.4 -13.9 -14.0 -12.95 -14.85 -11.65 -15.15 L-11.65 -15.5 Q-11.7 -16.2 -11.0 -16.45 L-8.25 -17.35 -7.5 -17.65 -3.05 -17.45 Q-1.95 -17.35 -1.9 -16.25 L-1.9 -15.9 Q-1.85 -15.25 -2.35 -14.95 -3.7 -14.3 -3.8 -13.7 L-4.25 -12.65 -4.4 -12.5 Q-7.1 -12.2 -9.95 -12.55 L-11.75 -12.4 -12.15 -12.0 -13.55 -10.35 -15.2 -8.85 -15.5 -8.5 -15.5 -7.0 Q-15.4 -4.5 -16.15 -1.8 L-16.65 0.5 Q-17.05 2.75 -17.0 5.0 -16.95 7.4 -18.5 8.5 L-19.05 8.15 -19.35 7.5 Q-19.45 6.55 -20.1 6.95 -20.5 7.25 -21.15 7.25 L-21.35 6.85 -21.55 5.35 -21.5 3.5 -21.6 3.15 Q-22.1 2.8 -22.65 2.6 -22.75 1.2 -22.0 -0.4 -21.0 -2.55 -20.45 -4.9 M-17.0 11.5 Q-16.05 11.85 -15.8 12.85 L-15.0 14.65 Q-14.35 15.65 -15.4 16.25 L-16.95 16.55 Q-18.2 16.4 -19.0 15.25 L-19.75 13.85 Q-19.5 13.5 -19.2 13.45 -18.05 13.25 -17.95 12.35 -17.9 11.9 -17.5 11.65 L-17.0 11.5 M-5.9 21.35 L-5.05 21.4 -4.4 21.6 Q-4.4 22.0 -4.55 22.3 L-4.85 22.8 -5.05 23.1 -5.25 23.5 -5.55 23.85 -6.0 24.5 Q-6.9 24.85 -7.6 24.25 -8.15 23.8 -8.7 23.45 L-9.65 22.75 -10.0 22.35 -9.9 21.65 -9.65 21.25 -9.3 20.85 -9.05 20.5 -8.85 20.3 -8.5 20.15 -8.25 20.1 -7.8 20.55 -7.6 20.8 -7.15 21.25 -5.9 21.35 M-8.9 33.25 Q-9.8 34.5 -10.45 33.05 -11.15 31.5 -9.75 31.35 -8.0 31.95 -8.9 33.25" fill="#ffffff" fill-rule="evenodd" stroke="none"/>
    <path d="M0.8 -1.7 L0.95 -1.5 1.25 -0.75 Q1.4 -0.25 1.15 0.2 L0.95 0.95 0.8 1.05 -0.75 1.25 -1.35 1.15 -1.35 0.95 -1.45 0.0 -1.45 -1.1 Q-1.3 -1.7 -0.75 -1.8 L0.5 -1.75 0.8 -1.7" fill="#ffffff" fill-rule="evenodd" stroke="none"/>
  </g>
</svg>
