<?xml version="1.0" encoding="UTF-8" standalone="no"?>
<svg xmlns:xlink="http://www.w3.org/1999/xlink" height="21.4px" width="22.55px" xmlns="http://www.w3.org/2000/svg">
  <g transform="matrix(1.0, 0.0, 0.0, 1.0, 13.4, 8.4)">
    <path d="M7.95 -2.75 Q9.5 -0.65 8.75 1.1 8.7 2.15 8.15 3.25 L5.5 7.3 5.05 7.8 2.8 10.05 2.0 10.6 4.8 10.05 Q5.0 10.0 5.25 10.25 1.05 15.8 -5.4 10.1 -8.3 7.55 -8.95 3.95 -9.4 1.45 -8.75 -1.15 -9.95 -1.85 -12.6 -2.2 -13.35 -2.3 -13.4 -3.0 -13.2 -5.0 -11.05 -5.5 -9.15 -6.0 -7.45 -7.15 -6.3 -7.95 -5.05 -8.3 L-5.0 -8.4 Q-3.8 -8.55 -3.35 -7.5 L-3.25 -7.2 2.65 -6.2 Q6.0 -5.4 7.95 -2.75 M6.1 -0.35 Q5.75 0.65 5.75 1.6 L5.75 1.65 Q6.0 1.65 6.05 1.1 6.1 0.3 6.5 -0.25 L6.25 -0.8 6.1 -0.35 M1.6 -4.4 L-2.55 -4.55 -2.3 -4.5 -1.9 -4.25 Q-3.1 -2.05 -6.1 -0.8 -7.55 -0.2 -7.6 1.35 -7.65 2.65 -8.25 3.6 L-7.45 5.05 Q-5.8 4.6 -5.4 6.55 -5.1 8.05 -3.85 8.6 L-1.25 9.35 Q0.4 8.85 2.05 7.95 L2.15 7.9 1.75 7.6 Q2.95 6.35 3.0 4.6 3.0 3.15 3.4 1.9 3.75 0.65 4.6 0.9 4.75 0.25 5.2 -0.3 L5.85 -1.5 4.35 -3.6 4.0 -4.0 2.5 -4.25 1.6 -4.4 M-9.25 -3.85 L-10.0 -3.65 -10.4 -3.55 -7.65 -4.05 -8.0 -4.15 -9.25 -3.85 M-9.8 4.25 L-11.85 4.0 Q-12.65 3.65 -11.95 3.1 L-11.55 2.8 -11.5 2.75 -9.85 3.1 Q-9.5 3.25 -9.45 3.65 L-9.5 4.0 -9.8 4.25 M9.05 8.45 Q8.55 9.9 8.0 8.45 7.55 7.35 8.1 6.85 9.45 7.2 9.05 8.45" fill="#ffffff" fill-rule="evenodd" stroke="none"/>
    <path d="M-0.25 -2.7 Q2.8 -1.6 2.05 1.85 1.6 3.75 -0.5 2.65 -3.7 1.05 -1.35 -2.0 L-0.25 -2.7" fill="#ffffff" fill-rule="evenodd" stroke="none"/>
  </g>
</svg>
