<?xml version="1.0" encoding="UTF-8" standalone="no"?>
<svg xmlns:xlink="http://www.w3.org/1999/xlink" height="16.6px" width="11.9px" xmlns="http://www.w3.org/2000/svg">
  <g transform="matrix(1.0, 0.0, 0.0, 1.0, 6.65, 8.05)">
    <path d="M1.5 -7.15 Q3.35 -6.15 4.65 -4.85 5.05 -2.45 4.75 -0.6 L5.25 2.25 4.25 2.65 3.6 4.85 -0.7 1.1 -1.3 -1.3 -2.75 -3.15 1.5 -7.15" fill="url(#gradient0)" fill-rule="evenodd" stroke="none"/>
    <path d="M3.6 4.85 L3.55 4.95 5.15 6.6 3.6 8.55 Q1.6 5.65 -4.25 2.45 L-4.95 -1.25 -6.65 -4.25 -0.55 -8.05 1.5 -7.15 -2.75 -3.15 -1.3 -1.3 -0.7 1.1 3.6 4.85" fill="url(#gradient1)" fill-rule="evenodd" stroke="none"/>
    <path d="M1.5 -7.15 Q3.35 -6.15 4.65 -4.85 5.05 -2.45 4.75 -0.6 L5.25 2.25 4.25 2.65 3.6 4.85 3.55 4.95 5.15 6.6 3.6 8.55 Q1.6 5.65 -4.25 2.45 L-4.95 -1.25 -6.65 -4.25 -0.55 -8.05 1.5 -7.15 Z" fill="none" stroke="#000000" stroke-linecap="round" stroke-linejoin="round" stroke-width="0.05"/>
  </g>
  <defs>
    <radialGradient cx="0" cy="0" gradientTransform="matrix(0.0129, 0.0, 0.0, 0.0129, 2.3, -5.6)" gradientUnits="userSpaceOnUse" id="gradient0" r="819.2" spreadMethod="pad">
      <stop offset="0.0" stop-color="#8395a7"/>
      <stop offset="0.40784313725490196" stop-color="#323a45"/>
      <stop offset="0.4588235294117647" stop-color="#272e36"/>
      <stop offset="0.5019607843137255" stop-color="#3e4453"/>
      <stop offset="1.0" stop-color="#1f1c28"/>
    </radialGradient>
    <radialGradient cx="0" cy="0" gradientTransform="matrix(0.0199, 0.0, 0.0, 0.0199, -6.0, -4.6)" gradientUnits="userSpaceOnUse" id="gradient1" r="819.2" spreadMethod="pad">
      <stop offset="0.0" stop-color="#ffffff"/>
      <stop offset="1.0" stop-color="#8e9ab5"/>
    </radialGradient>
  </defs>
</svg>
