<?xml version="1.0" encoding="UTF-8" standalone="no"?>
<svg xmlns:xlink="http://www.w3.org/1999/xlink" height="11.9px" width="9.1px" xmlns="http://www.w3.org/2000/svg">
  <g transform="matrix(1.0, 0.0, 0.0, 1.0, 2.55, 6.7)">
    <path d="M3.8 5.2 Q1.45 5.05 -0.6 3.65 L-1.05 0.7 -1.3 0.5 -1.45 0.35 Q-2.55 -0.85 -2.55 -2.55 -2.55 -4.25 -1.45 -5.5 -0.6 -6.4 0.5 -6.6 -1.25 -2.8 2.0 -1.2 L3.8 5.2" fill="url(#gradient0)" fill-rule="evenodd" stroke="none"/>
    <path d="M5.0 -1.3 Q4.6 -0.15 6.55 4.9 L3.8 5.2 2.0 -1.2 Q-1.25 -2.8 0.5 -6.6 L1.3 -6.7 Q2.9 -6.7 4.0 -5.5 5.15 -4.25 5.15 -2.55 L5.1 -1.85 5.0 -1.3" fill="url(#gradient1)" fill-rule="evenodd" stroke="none"/>
    <path d="M5.1 -1.85 L5.05 -1.6 5.0 -1.35 5.0 -1.3 Q4.6 -0.15 6.55 4.9 L3.8 5.2 Q1.45 5.05 -0.6 3.65 L-1.05 0.7 -1.3 0.5 -1.45 0.35 Q-2.55 -0.85 -2.55 -2.55 -2.55 -4.25 -1.45 -5.5 -0.6 -6.4 0.5 -6.6 L1.3 -6.7 Q2.9 -6.7 4.0 -5.5 5.15 -4.25 5.15 -2.55 L5.1 -1.85 5.0 -1.3 M3.8 5.2 L2.0 -1.2 Q-1.25 -2.8 0.5 -6.6" fill="none" stroke="#000000" stroke-linecap="round" stroke-linejoin="round" stroke-width="0.05"/>
  </g>
  <defs>
    <radialGradient cx="0" cy="0" gradientTransform="matrix(0.0116, 0.0, 0.0, 0.0116, -2.0, -2.35)" gradientUnits="userSpaceOnUse" id="gradient0" r="819.2" spreadMethod="pad">
      <stop offset="0.0" stop-color="#c7c5b8"/>
      <stop offset="0.24705882352941178" stop-color="#312736"/>
      <stop offset="0.6666666666666666" stop-color="#362d27"/>
      <stop offset="1.0" stop-color="#6f4a33"/>
    </radialGradient>
    <radialGradient cx="0" cy="0" gradientTransform="matrix(0.012, 0.0, 0.0, 0.012, 1.4, -3.5)" gradientUnits="userSpaceOnUse" id="gradient1" r="819.2" spreadMethod="pad">
      <stop offset="0.0" stop-color="#c7c5b8"/>
      <stop offset="0.24705882352941178" stop-color="#bf7748"/>
      <stop offset="0.6666666666666666" stop-color="#683f17"/>
      <stop offset="0.7137254901960784" stop-color="#ba6934"/>
      <stop offset="1.0" stop-color="#523625"/>
    </radialGradient>
  </defs>
</svg>
