<?xml version="1.0" encoding="UTF-8" standalone="no"?>
<svg xmlns:xlink="http://www.w3.org/1999/xlink" height="30.35px" width="12.4px" xmlns="http://www.w3.org/2000/svg">
  <g transform="matrix(1.0, 0.0, 0.0, 1.0, 6.1, 15.15)">
    <path d="M5.35 -4.6 Q4.3 -2.35 3.65 -0.1 L3.45 4.85 1.85 13.3 Q0.7 14.15 -0.05 15.2 -2.25 13.95 -4.4 13.1 -4.4 8.85 -4.55 4.75 L-4.65 0.45 -5.85 -4.1 -1.6 -2.3 Q1.0 -3.45 5.35 -4.6" fill="url(#gradient0)" fill-rule="evenodd" stroke="none"/>
    <path d="M-6.0 -7.5 L-5.9 -10.35 -4.95 -14.2 -4.95 -14.25 Q-4.55 -14.3 -4.35 -14.5 0.0 -13.55 3.7 -15.15 L6.2 -11.3 6.3 -8.4 Q-0.75 -5.65 -6.0 -7.5" fill="url(#gradient1)" fill-rule="evenodd" stroke="none"/>
    <path d="M5.35 -4.6 Q4.3 -2.35 3.65 -0.1 L3.45 4.85 1.85 13.3 Q0.7 14.15 -0.05 15.2 -2.25 13.95 -4.4 13.1 -4.4 8.85 -4.55 4.75 L-4.65 0.45 -5.85 -4.1 -6.1 -4.75 -6.05 -6.1 -6.0 -7.5 -5.9 -10.35 -4.95 -14.2 -4.95 -14.25 Q-4.55 -14.3 -4.35 -14.5 0.0 -13.55 3.7 -15.15 L6.2 -11.3 6.3 -8.4 6.3 -7.1 6.3 -5.45 5.35 -4.6 Q1.0 -3.45 -1.6 -2.3 L-5.85 -4.1 M6.3 -8.4 Q-0.75 -5.65 -6.0 -7.5" fill="none" stroke="#000000" stroke-linecap="round" stroke-linejoin="round" stroke-width="0.05"/>
  </g>
  <defs>
    <radialGradient cx="0" cy="0" gradientTransform="matrix(0.0151, 0.0, 0.0, 0.0151, 0.4, 2.85)" gradientUnits="userSpaceOnUse" id="gradient0" r="819.2" spreadMethod="pad">
      <stop offset="0.0" stop-color="#817d8a"/>
      <stop offset="0.3803921568627451" stop-color="#413e4a"/>
      <stop offset="0.6823529411764706" stop-color="#221f25"/>
      <stop offset="0.9725490196078431" stop-color="#8c879a"/>
    </radialGradient>
    <radialGradient cx="0" cy="0" gradientTransform="matrix(0.012, 0.0, 0.0, 0.012, 1.9, -13.4)" gradientUnits="userSpaceOnUse" id="gradient1" r="819.2" spreadMethod="pad">
      <stop offset="0.0" stop-color="#ffffff"/>
      <stop offset="0.42745098039215684" stop-color="#7c9aad"/>
      <stop offset="0.44313725490196076" stop-color="#58607c"/>
      <stop offset="0.6470588235294118" stop-color="#7e8aa3"/>
      <stop offset="1.0" stop-color="#c2cde7"/>
    </radialGradient>
  </defs>
</svg>
