<?xml version="1.0" encoding="UTF-8" standalone="no"?>
<svg xmlns:xlink="http://www.w3.org/1999/xlink" height="57.8px" width="21.85px" xmlns="http://www.w3.org/2000/svg">
  <g transform="matrix(1.0, 0.0, 0.0, 1.0, 11.9, 16.4)">
    <path d="M7.85 -7.65 L7.5 -6.95 7.4 -7.8 7.85 -7.65 M-5.85 -4.35 L-6.4 -5.55 -6.15 -5.6 -5.85 -4.35" fill="url(#gradient0)" fill-rule="evenodd" stroke="none"/>
    <path d="M5.7 10.05 L5.8 10.05 5.95 13.05 2.15 16.45 -5.0 12.6 -4.7 8.75 -2.3 9.05 5.7 10.05" fill="url(#gradient1)" fill-rule="evenodd" stroke="none"/>
    <path d="M4.4 -13.1 L4.65 -13.1 Q9.15 -11.95 9.95 -9.1 L7.85 -7.65 7.4 -7.8 5.4 -11.5 3.35 -12.35 4.4 -13.1" fill="url(#gradient2)" fill-rule="evenodd" stroke="none"/>
    <path d="M7.5 -6.95 L7.75 -4.2 7.3 -3.3 7.1 -2.95 6.55 -1.7 Q5.65 -2.35 4.65 -2.5 L3.8 -2.6 Q1.2 -2.6 -0.65 0.1 -2.5 2.85 -2.5 6.7 L-2.3 9.05 -4.7 8.75 -5.1 4.45 -4.95 4.45 -4.95 4.4 Q-4.6 -0.75 -5.85 -4.35 L-6.15 -5.6 Q-3.4 -6.7 -2.4 -9.3 -1.95 -10.55 -1.9 -12.15 L-1.9 -12.65 -1.95 -14.05 -1.75 -14.1 -0.05 -16.4 4.4 -13.1 3.35 -12.35 5.4 -11.5 7.4 -7.8 7.5 -6.95" fill="url(#gradient3)" fill-rule="evenodd" stroke="none"/>
    <path d="M6.55 -1.7 L6.55 -1.65 4.95 5.05 5.0 5.05 Q6.0 7.7 5.7 10.05 L-2.3 9.05 -2.5 6.7 Q-2.5 2.85 -0.65 0.1 1.2 -2.6 3.8 -2.6 L4.65 -2.5 Q5.65 -2.35 6.55 -1.7" fill="url(#gradient4)" fill-rule="evenodd" stroke="none"/>
    <path d="M-6.15 -5.6 L-6.2 -5.7 -6.25 -5.7 -9.9 -7.8 Q-9.9 -11.6 -5.2 -13.65 L-1.95 -14.05 -1.9 -12.65 -1.9 -12.15 Q-1.95 -10.55 -2.4 -9.3 -3.4 -6.7 -6.15 -5.6" fill="url(#gradient5)" fill-rule="evenodd" stroke="none"/>
    <path d="M4.65 -13.1 Q9.15 -11.95 9.95 -9.1 M7.85 -7.65 L7.5 -6.95 7.75 -4.2 7.3 -3.3 7.1 -2.95 6.55 -1.7 6.55 -1.65 4.95 5.05 5.0 5.05 Q6.0 7.7 5.7 10.05 L5.8 10.05 M-5.0 12.6 L-4.7 8.75 -5.1 4.45 -5.1 4.4 -4.95 4.45 -4.95 4.4 Q-4.6 -0.75 -5.85 -4.35 L-6.15 -5.6 -6.2 -5.7 -6.25 -5.7 M-9.9 -7.8 Q-9.9 -11.6 -5.2 -13.65 L-1.95 -14.05 -1.75 -14.1 -0.05 -16.4 4.4 -13.1 3.35 -12.35 M7.4 -7.8 L7.5 -6.95 M-2.3 9.05 L5.7 10.05 M-2.3 9.05 L-4.7 8.75" fill="none" stroke="#000000" stroke-linecap="round" stroke-linejoin="round" stroke-width="0.05"/>
    <path d="M4.4 -13.1 L4.65 -13.1 Q9.15 -11.95 9.95 -9.1 L7.85 -7.65 7.4 -7.8 6.1 -10.15 6.0 -10.35 5.95 -10.45 5.4 -11.5 3.8 -12.15 3.6 -12.25 3.35 -12.35 4.4 -13.1" fill="url(#gradient6)" fill-rule="evenodd" stroke="none"/>
    <path d="M7.85 -7.65 L7.5 -6.95 7.4 -7.8 7.85 -7.65 M-5.85 -4.35 L-6.4 -5.55 -6.15 -5.6 -5.85 -4.35" fill="url(#gradient7)" fill-rule="evenodd" stroke="none"/>
    <path d="M7.5 -6.95 L7.75 -4.2 7.3 -3.3 7.1 -2.95 6.55 -1.7 5.55 -2.25 5.65 -3.05 5.55 -8.45 6.1 -10.15 7.4 -7.8 7.5 -6.95 M5.95 -10.45 L3.8 -12.15 5.4 -11.5 5.95 -10.45 M-1.75 -14.1 L-1.95 -13.65 -1.95 -14.05 -1.75 -14.1 M-2.0 -11.2 L-1.9 -11.0 -2.0 -11.15 -2.0 -11.2" fill="url(#gradient8)" fill-rule="evenodd" stroke="none"/>
    <path d="M-0.35 -0.25 L-0.55 9.3 -0.75 9.25 -2.3 9.05 -2.5 6.7 Q-2.5 2.85 -0.65 0.1 L-0.35 -0.25" fill="url(#gradient9)" fill-rule="evenodd" stroke="none"/>
    <path d="M-1.95 -13.65 L-3.35 -12.3 -2.0 -11.2 -2.0 -11.15 -2.4 -9.3 Q-3.4 -6.7 -6.15 -5.6 L-6.2 -5.7 -6.25 -5.7 -9.9 -7.8 Q-9.9 -11.6 -5.2 -13.65 L-1.95 -14.05 -1.95 -13.65" fill="url(#gradient10)" fill-rule="evenodd" stroke="none"/>
    <path d="M-1.9 -11.0 L-0.25 -7.3 -0.35 -0.25 -0.65 0.1 Q-2.5 2.85 -2.5 6.7 L-2.3 9.05 -0.75 9.25 -0.55 9.3 -0.65 14.95 Q-1.5 28.2 -1.05 41.4 -4.1 34.9 -11.9 28.45 -7.15 22.5 -7.1 15.7 L-4.7 8.75 -5.1 4.45 -4.95 4.45 -4.95 4.4 Q-4.6 -0.75 -5.85 -4.35 L-6.15 -5.6 Q-3.4 -6.7 -2.4 -9.3 L-2.0 -11.15 -1.9 -11.0" fill="url(#gradient11)" fill-rule="evenodd" stroke="none"/>
    <path d="M6.55 -1.7 L6.55 -1.65 4.95 5.05 5.0 5.05 Q6.0 7.7 9.5 21.65 L6.85 36.85 Q4.4 20.85 4.3 3.85 L5.55 -2.25 6.55 -1.7" fill="url(#gradient12)" fill-rule="evenodd" stroke="none"/>
    <path d="M4.65 -13.1 Q9.15 -11.95 9.95 -9.1 M7.85 -7.65 L7.5 -6.95 7.75 -4.2 7.3 -3.3 7.1 -2.95 6.55 -1.7 6.55 -1.65 4.95 5.05 5.0 5.05 Q6.0 7.7 9.5 21.65 L6.85 36.85 Q4.4 20.85 4.3 3.85 L5.55 -2.25 5.65 -3.05 5.55 -8.45 6.1 -10.15 6.0 -10.35 M5.95 -10.45 L3.8 -12.15 3.6 -12.25 M3.35 -12.35 L4.4 -13.1 -0.05 -16.4 -1.75 -14.1 -1.95 -13.65 -3.35 -12.3 -2.0 -11.2 -1.9 -11.0 -0.25 -7.3 -0.35 -0.25 -0.55 9.3 -0.65 14.95 Q-1.5 28.2 -1.05 41.4 -4.1 34.9 -11.9 28.45 -7.15 22.5 -7.1 15.7 L-4.7 8.75 -5.1 4.45 -5.1 4.4 -4.95 4.45 -4.95 4.4 Q-4.6 -0.75 -5.85 -4.35 L-6.15 -5.6 -6.2 -5.7 -6.25 -5.7 M-9.9 -7.8 Q-9.9 -11.6 -5.2 -13.65 L-1.95 -14.05 -1.75 -14.1 M7.4 -7.8 L7.5 -6.95 M-1.9 -11.0 L-2.0 -11.15 M-0.75 9.25 L-0.55 9.3" fill="none" stroke="#000000" stroke-linecap="round" stroke-linejoin="round" stroke-width="0.05"/>
    <path d="M-5.5 21.45 L-4.25 21.05 Q-4.45 20.45 -3.75 20.3 -2.85 20.55 -3.4 21.25 L-3.65 21.5 Q-3.25 22.2 -4.7 22.85 L-6.3 23.05 Q-7.05 23.0 -6.65 22.4 -6.2 21.8 -5.5 21.45 M-4.95 24.45 L-5.0 24.4 Q-5.3 23.7 -4.5 23.6 L-4.45 23.6 -3.85 23.1 -2.95 22.75 Q-2.5 22.8 -2.4 23.2 -2.25 23.55 -2.5 23.9 L-2.85 24.35 Q-2.35 24.4 -2.35 24.95 -2.3 25.55 -2.85 25.8 L-3.7 26.25 Q-3.45 26.7 -3.85 27.05 L-4.75 27.85 Q-5.35 28.25 -5.9 27.85 L-7.25 28.4 -8.35 28.3 -9.1 28.35 -9.95 28.5 Q-10.45 29.2 -10.85 28.35 -11.15 27.65 -10.35 27.5 L-10.15 27.55 -10.15 27.45 -9.7 26.9 -8.15 26.1 -7.7 26.45 -5.0 25.15 -5.05 24.65 -4.95 24.45 M-2.55 29.2 Q-1.65 29.45 -2.1 30.25 L-3.0 30.2 -3.1 30.0 Q-3.55 30.4 -3.8 29.7 -4.05 29.1 -3.5 28.95 L-3.6 28.75 Q-3.9 28.0 -3.1 27.85 -2.1 28.05 -2.65 28.85 L-2.85 29.15 -2.8 29.3 -2.55 29.2 M-5.45 29.2 Q-4.55 29.45 -5.05 30.15 -5.6 30.8 -5.95 30.0 -6.2 29.3 -5.45 29.2 M-7.7 25.1 Q-7.95 24.4 -7.2 24.3 -6.3 24.55 -6.85 25.25 -7.35 25.9 -7.7 25.1 M-3.3 33.2 Q-3.8 33.85 -4.15 33.05 -4.4 32.35 -3.65 32.25 -2.75 32.45 -3.3 33.2" fill="#8e0b0b" fill-rule="evenodd" stroke="none"/>
    <path d="M0.9 -13.6 Q0.7 -15.15 1.4 -15.15 2.4 -15.15 3.05 -13.75 L3.55 -12.35 4.6 -12.35 Q5.25 -12.35 5.25 -11.75 L4.8 -11.1 4.7 -11.15 4.7 -11.1 4.2 -10.7 4.95 -11.15 5.6 -11.0 5.7 -10.95 Q3.85 -9.9 3.65 -9.9 2.2 -9.9 -2.0 -11.9 L-2.0 -12.0 -3.0 -12.2 -3.8 -11.85 -4.5 -11.85 -4.55 -12.05 Q-4.55 -12.45 -2.1 -12.95 L-1.85 -12.85 -0.65 -12.5 1.2 -12.4 0.9 -13.6 M4.35 -9.35 Q4.95 -7.85 4.95 -4.5 L4.65 -2.8 5.1 -2.5 Q5.65 -2.15 6.5 -2.1 L6.6 -1.8 Q6.6 -1.5 5.9 -1.5 L4.35 -2.2 4.25 -2.0 4.25 -1.95 4.25 -1.3 5.0 -0.75 4.2 -0.65 3.65 4.1 4.6 4.25 4.95 4.55 4.95 4.65 3.6 4.65 3.3 6.65 3.2 6.75 2.7 5.6 2.7 4.7 1.15 5.1 Q0.6 5.4 0.35 5.85 L0.3 5.55 Q0.3 4.2 2.75 4.1 2.8 1.2 3.3 -0.5 0.9 -0.1 0.8 0.75 L0.75 0.8 Q0.3 0.8 0.3 0.45 0.3 -1.25 3.55 -1.35 L4.0 -2.15 3.9 -2.3 Q3.9 -3.0 4.4 -4.65 L4.4 -4.75 3.95 -8.85 Q3.95 -9.3 4.35 -9.35" fill="#000000" fill-opacity="0.3019608" fill-rule="evenodd" stroke="none"/>
  </g>
  <defs>
    <radialGradient cx="0" cy="0" gradientTransform="matrix(0.0222, 0.0, 0.0, 0.0222, 2.85, -1.75)" gradientUnits="userSpaceOnUse" id="gradient0" r="819.2" spreadMethod="pad">
      <stop offset="0.0" stop-color="#6a7249"/>
      <stop offset="1.0" stop-color="#393a2c"/>
    </radialGradient>
    <radialGradient cx="0" cy="0" gradientTransform="matrix(0.0076, 0.0, 0.0, 0.0076, 0.4, 10.45)" gradientUnits="userSpaceOnUse" id="gradient1" r="819.2" spreadMethod="pad">
      <stop offset="0.0" stop-color="#404040"/>
      <stop offset="1.0" stop-color="#000000"/>
    </radialGradient>
    <radialGradient cx="0" cy="0" gradientTransform="matrix(0.0065, 0.0, 0.0, 0.0065, 7.6, -9.15)" gradientUnits="userSpaceOnUse" id="gradient2" r="819.2" spreadMethod="pad">
      <stop offset="0.0" stop-color="#ffffff"/>
      <stop offset="0.6196078431372549" stop-color="#aeaeae"/>
      <stop offset="1.0" stop-color="#a6a6a6"/>
    </radialGradient>
    <radialGradient cx="0" cy="0" gradientTransform="matrix(0.0098, 0.0011, -0.0018, 0.0157, 0.8, -3.65)" gradientUnits="userSpaceOnUse" id="gradient3" r="819.2" spreadMethod="pad">
      <stop offset="0.0" stop-color="#6f6f6f"/>
      <stop offset="0.6196078431372549" stop-color="#2f2f2f"/>
      <stop offset="1.0" stop-color="#515151"/>
    </radialGradient>
    <radialGradient cx="0" cy="0" gradientTransform="matrix(0.0148, 0.0, 0.0, 0.0148, 3.45, 9.45)" gradientUnits="userSpaceOnUse" id="gradient4" r="819.2" spreadMethod="pad">
      <stop offset="0.0" stop-color="#6f6f6f"/>
      <stop offset="0.6196078431372549" stop-color="#2f2f2f"/>
      <stop offset="1.0" stop-color="#515151"/>
    </radialGradient>
    <radialGradient cx="0" cy="0" gradientTransform="matrix(0.0076, 0.0, 0.0, 0.0076, -6.55, -9.95)" gradientUnits="userSpaceOnUse" id="gradient5" r="819.2" spreadMethod="pad">
      <stop offset="0.0" stop-color="#6f6f6f"/>
      <stop offset="0.6196078431372549" stop-color="#2f2f2f"/>
      <stop offset="1.0" stop-color="#515151"/>
    </radialGradient>
    <radialGradient cx="0" cy="0" gradientTransform="matrix(0.0065, 0.0, 0.0, 0.0065, 7.6, -9.15)" gradientUnits="userSpaceOnUse" id="gradient6" r="819.2" spreadMethod="pad">
      <stop offset="0.0" stop-color="#ffffff"/>
      <stop offset="0.6196078431372549" stop-color="#aeaeae"/>
      <stop offset="1.0" stop-color="#a6a6a6"/>
    </radialGradient>
    <radialGradient cx="0" cy="0" gradientTransform="matrix(0.0222, 0.0, 0.0, 0.0222, 2.85, -1.75)" gradientUnits="userSpaceOnUse" id="gradient7" r="819.2" spreadMethod="pad">
      <stop offset="0.0" stop-color="#6a7249"/>
      <stop offset="1.0" stop-color="#393a2c"/>
    </radialGradient>
    <radialGradient cx="0" cy="0" gradientTransform="matrix(0.0098, 0.0011, -0.0018, 0.0157, 0.8, -3.65)" gradientUnits="userSpaceOnUse" id="gradient8" r="819.2" spreadMethod="pad">
      <stop offset="0.0" stop-color="#ffffff"/>
      <stop offset="0.6196078431372549" stop-color="#aeaeae"/>
      <stop offset="1.0" stop-color="#a6a6a6"/>
    </radialGradient>
    <radialGradient cx="0" cy="0" gradientTransform="matrix(0.0148, 0.0, 0.0, 0.0148, 3.45, 9.45)" gradientUnits="userSpaceOnUse" id="gradient9" r="819.2" spreadMethod="pad">
      <stop offset="0.0" stop-color="#ffffff"/>
      <stop offset="0.6196078431372549" stop-color="#aeaeae"/>
      <stop offset="1.0" stop-color="#a6a6a6"/>
    </radialGradient>
    <radialGradient cx="0" cy="0" gradientTransform="matrix(0.0076, 0.0, 0.0, 0.0076, -6.55, -9.95)" gradientUnits="userSpaceOnUse" id="gradient10" r="819.2" spreadMethod="pad">
      <stop offset="0.0" stop-color="#ffffff"/>
      <stop offset="0.6196078431372549" stop-color="#aeaeae"/>
      <stop offset="1.0" stop-color="#a6a6a6"/>
    </radialGradient>
    <radialGradient cx="0" cy="0" gradientTransform="matrix(0.0372, 0.0, 0.0, 0.0372, -3.45, 11.1)" gradientUnits="userSpaceOnUse" id="gradient11" r="819.2" spreadMethod="pad">
      <stop offset="0.0" stop-color="#ffffff"/>
      <stop offset="0.6196078431372549" stop-color="#aeaeae"/>
      <stop offset="1.0" stop-color="#a6a6a6"/>
    </radialGradient>
    <radialGradient cx="0" cy="0" gradientTransform="matrix(0.012, 0.0, 0.0, 0.012, 5.2, 7.4)" gradientUnits="userSpaceOnUse" id="gradient12" r="819.2" spreadMethod="pad">
      <stop offset="0.0" stop-color="#ffffff"/>
      <stop offset="0.6196078431372549" stop-color="#aeaeae"/>
      <stop offset="1.0" stop-color="#a6a6a6"/>
    </radialGradient>
  </defs>
</svg>
