<?xml version="1.0" encoding="UTF-8" standalone="no"?>
<svg xmlns:xlink="http://www.w3.org/1999/xlink" height="10.95px" width="10.75px" xmlns="http://www.w3.org/2000/svg">
  <g transform="matrix(1.0, 0.0, 0.0, 1.0, 7.5, 5.0)">
    <path d="M1.8 -3.85 L2.95 -1.1 Q3.8 0.85 2.2 2.95 0.6 5.05 -0.65 5.55 L-2.95 5.95 Q-4.05 5.9 -6.75 3.35 L-7.5 2.15 Q-7.35 0.3 -2.55 -3.8 L1.15 -5.0 1.8 -3.85" fill="url(#gradient0)" fill-rule="evenodd" stroke="none"/>
    <path d="M1.8 -3.85 L1.15 -5.0 -2.55 -3.8 Q-7.35 0.3 -7.5 2.15 L-6.75 3.35 Q-4.05 5.9 -2.95 5.95 L-0.65 5.55 Q0.6 5.05 2.2 2.95 3.8 0.85 2.95 -1.1 L1.8 -3.85 Z" fill="none" stroke="#110d09" stroke-linecap="round" stroke-linejoin="round" stroke-width="0.05"/>
    <path d="M0.15 -4.7 Q1.5 -2.9 0.95 -1.45 1.2 -2.85 -0.6 -4.4 L0.15 -4.7 M-1.25 5.75 Q-3.1 3.1 -3.8 -0.2 -2.7 2.55 -0.4 5.45 L-1.25 5.75 M2.45 2.35 Q1.7 1.35 -0.2 0.35 L2.9 1.0 Q3.1 1.6 2.45 2.35" fill="#000000" fill-opacity="0.2901961" fill-rule="evenodd" stroke="none"/>
  </g>
  <defs>
    <radialGradient cx="0" cy="0" gradientTransform="matrix(0.0096, 0.0, 0.0, 0.0096, -3.3, -1.5)" gradientUnits="userSpaceOnUse" id="gradient0" r="819.2" spreadMethod="pad">
      <stop offset="0.0" stop-color="#653e34"/>
      <stop offset="1.0" stop-color="#211412"/>
    </radialGradient>
  </defs>
</svg>
