<?xml version="1.0" encoding="UTF-8" standalone="no"?>
<svg xmlns:xlink="http://www.w3.org/1999/xlink" height="18.9px" width="9.25px" xmlns="http://www.w3.org/2000/svg">
  <g transform="matrix(1.0, 0.0, 0.0, 1.0, 4.6, 15.2)">
    <path d="M-1.3 3.1 L-2.35 -1.75 -3.6 2.0 -3.7 0.5 -4.6 -4.9 -3.1 -14.5 -3.1 -14.55 -2.75 -14.8 -2.0 -14.55 Q-2.05 -9.2 -1.75 -4.05 L-1.65 -2.05 -1.3 3.1" fill="url(#gradient0)" fill-rule="evenodd" stroke="none"/>
    <path d="M2.3 -15.2 L3.85 -11.35 4.65 -5.5 4.05 -4.65 3.0 -0.15 2.9 3.55 1.85 -1.95 0.95 1.2 0.25 -2.85 -1.25 3.7 -1.3 3.1 -1.65 -2.05 -1.75 -4.05 Q-2.05 -9.2 -2.0 -14.55 0.3 -13.95 2.3 -15.2" fill="url(#gradient1)" fill-rule="evenodd" stroke="none"/>
    <path d="M2.3 -15.2 L3.85 -11.35 4.65 -5.5 4.05 -4.65 3.0 -0.15 2.9 3.55 1.85 -1.95 0.95 1.2 0.25 -2.85 -1.25 3.7 -1.3 3.1 -2.35 -1.75 -3.6 2.0 -3.7 0.5 -4.6 -4.9 -3.1 -14.5 -3.1 -14.55 -2.75 -14.8" fill="none" stroke="#0e0d0c" stroke-linecap="round" stroke-linejoin="round" stroke-width="0.05"/>
  </g>
  <defs>
    <radialGradient cx="0" cy="0" gradientTransform="matrix(0.008, 0.0, 0.0, 0.0211, -5.75, -1.05)" gradientUnits="userSpaceOnUse" id="gradient0" r="819.2" spreadMethod="pad">
      <stop offset="0.0" stop-color="#462b28"/>
      <stop offset="0.8509803921568627" stop-color="#1c1817"/>
    </radialGradient>
    <radialGradient cx="0" cy="0" gradientTransform="matrix(0.006, 0.0, 0.0, 0.0248, 1.6, -8.65)" gradientUnits="userSpaceOnUse" id="gradient1" r="819.2" spreadMethod="pad">
      <stop offset="0.0" stop-color="#462b28"/>
      <stop offset="0.8509803921568627" stop-color="#1c1817"/>
    </radialGradient>
  </defs>
</svg>
