<?xml version="1.0" encoding="UTF-8" standalone="no"?>
<svg xmlns:xlink="http://www.w3.org/1999/xlink" height="30.65px" width="8.25px" xmlns="http://www.w3.org/2000/svg">
  <g transform="matrix(1.0, 0.0, 0.0, 1.0, 4.25, 15.45)">
    <path d="M3.25 -15.3 L4.0 -10.75 3.5 -5.2 Q0.95 3.35 1.6 11.9 1.4 14.2 -0.25 15.2 -2.15 14.6 -2.85 12.8 L-3.0 12.7 -3.0 12.55 Q-2.5 10.6 -2.75 8.05 -2.35 4.6 -1.25 2.5 L-0.7 1.55 Q1.55 -1.75 -3.3 -6.65 L-3.1 -7.65 -1.85 -12.75 Q-2.85 -9.3 -2.45 -10.75 L-2.4 -10.95 Q-1.8 -13.6 -0.95 -14.7 -0.1 -15.8 3.25 -15.3" fill="url(#gradient0)" fill-rule="evenodd" stroke="none"/>
    <path d="M-2.75 8.05 L-4.15 2.25 Q-4.55 -1.55 -3.3 -6.65 1.55 -1.75 -0.7 1.55 L-1.25 2.5 Q-2.35 4.6 -2.75 8.05" fill="url(#gradient1)" fill-rule="evenodd" stroke="none"/>
    <path d="M3.25 -15.3 L4.0 -10.75 3.5 -5.2 Q0.95 3.35 1.6 11.9 1.4 14.2 -0.25 15.2 -2.15 14.6 -2.85 12.8 L-3.0 12.7 M-3.0 12.55 Q-2.5 10.6 -2.75 8.05 L-4.15 2.25 Q-4.55 -1.55 -3.3 -6.65 L-3.1 -7.65 -1.85 -12.75 Q-2.85 -9.3 -2.45 -10.75" fill="none" stroke="#000000" stroke-linecap="round" stroke-linejoin="round" stroke-width="0.05"/>
    <path d="M0.15 -10.55 Q-0.2 -10.95 0.0 -11.3 L0.1 -11.35 1.2 -10.3 Q1.75 -9.75 2.5 -9.6 L3.8 -9.1 2.95 -8.95 2.2 -6.9 1.8 -4.25 Q1.65 -2.95 1.1 -1.9 1.0 -3.25 1.3 -4.8 1.55 -6.25 1.25 -7.65 L1.3 -7.95 1.15 -7.9 1.1 -8.1 0.3 -10.4 0.15 -10.55" fill="#000000" fill-opacity="0.3019608" fill-rule="evenodd" stroke="none"/>
  </g>
  <defs>
    <radialGradient cx="0" cy="0" gradientTransform="matrix(0.0356, 0.0, 0.0, 0.0356, 1.65, -13.9)" gradientUnits="userSpaceOnUse" id="gradient0" r="819.2" spreadMethod="pad">
      <stop offset="0.0" stop-color="#f7c85e"/>
      <stop offset="0.6352941176470588" stop-color="#f79d44"/>
      <stop offset="1.0" stop-color="#f1ad6b"/>
    </radialGradient>
    <radialGradient cx="0" cy="0" gradientTransform="matrix(0.0125, 0.0, 0.0, 0.0125, -0.7, -1.65)" gradientUnits="userSpaceOnUse" id="gradient1" r="819.2" spreadMethod="pad">
      <stop offset="0.0" stop-color="#f7c85e"/>
      <stop offset="0.6352941176470588" stop-color="#f79d44"/>
      <stop offset="1.0" stop-color="#f1ad6b"/>
    </radialGradient>
  </defs>
</svg>
