<?xml version="1.0" encoding="UTF-8" standalone="no"?>
<svg xmlns:xlink="http://www.w3.org/1999/xlink" height="36.5px" width="17.45px" xmlns="http://www.w3.org/2000/svg">
  <g transform="matrix(1.0, 0.0, 0.0, 1.0, 8.65, 17.7)">
    <path d="M-6.8 11.3 L-6.45 11.35 -6.4 11.35 -6.45 11.35 -6.8 11.3 -7.1 11.25 -6.8 11.3" fill="#ffffff" fill-rule="evenodd" stroke="none"/>
    <path d="M-5.7 -3.0 Q-4.6 -4.05 -3.1 -4.4 L-2.4 -4.55 -0.15 -4.85 1.85 -5.0 4.5 -5.2 6.15 -5.3 7.55 -5.4 7.55 -5.3 7.6 -4.5 7.6 -5.4 Q10.4 0.25 6.6 0.85 L6.0 0.9 5.9 0.9 5.6 0.9 5.55 0.95 5.35 1.25 5.35 1.15 5.4 0.85 Q5.5 -1.4 2.95 -0.35 1.9 0.1 0.45 1.1 L0.05 2.05 -0.25 2.7 Q3.75 3.7 4.65 2.7 4.2 3.8 4.2 4.95 L4.55 3.25 4.2 5.3 4.45 7.95 4.55 8.2 5.15 9.6 5.2 9.7 5.6 10.3 6.45 11.2 5.95 13.0 5.75 13.3 5.55 13.55 5.85 12.9 Q5.0 12.2 3.05 12.5 0.85 12.75 -0.15 9.65 -1.15 6.45 -6.45 11.85 L-6.8 11.3 -6.5 11.8 -8.2 11.1 -7.1 11.25 -6.8 11.3 -6.45 11.35 -6.4 11.35 -6.45 11.35 -6.8 11.3 -8.3 11.05 -6.6 8.9 -5.55 7.55 -5.2 6.95 -5.15 6.9 -4.75 5.45 -4.65 4.55 -4.65 4.45 -4.6 3.2 -4.6 2.95 -4.7 1.25 -4.8 0.55 -4.9 -0.1 -5.0 -0.4 -5.5 -2.3 -5.7 -3.0" fill="url(#gradient0)" fill-rule="evenodd" stroke="none"/>
    <path d="M0.05 -16.4 L0.15 -16.35 Q3.0 -20.05 4.05 -13.5 L4.1 -12.05 6.55 -9.8 7.15 -7.7 7.2 -7.7 7.25 -7.55 7.55 -5.4 6.15 -5.3 5.65 -5.45 Q5.05 -5.6 4.5 -5.2 L1.85 -5.0 Q0.95 -5.65 -0.2 -5.6 -1.75 -5.6 -2.85 -4.65 L-3.0 -4.5 -3.1 -4.4 Q-4.6 -4.05 -5.7 -3.0 L-5.75 -3.05 -5.7 -3.0 -5.5 -2.3 -5.75 -3.05 -6.65 -5.45 -6.8 -6.3 -6.85 -6.4 -6.9 -6.4 -8.65 -8.0 Q-8.1 -10.95 -4.35 -11.3 L-2.05 -12.45 Q-0.35 -13.5 -0.4 -16.25 L-0.05 -16.25 0.05 -16.4 M2.95 0.0 L3.2 -0.4 3.7 0.05 Q4.4 0.65 5.4 0.85 L5.35 1.15 5.15 1.55 4.9 2.05 4.65 2.7 Q3.75 3.7 -0.25 2.7 L0.05 2.05 Q1.3 1.85 2.3 0.95 L2.75 0.45 2.95 0.1 2.95 0.0" fill="url(#gradient1)" fill-rule="evenodd" stroke="none"/>
    <path d="M-8.2 11.1 L-6.5 11.8 -6.8 11.3 -6.45 11.85 Q-1.15 6.45 -0.15 9.65 0.85 12.75 3.05 12.5 5.0 12.2 5.85 12.9 L5.55 13.55 5.75 13.3 5.7 13.4 5.75 13.9 Q3.2 15.8 1.55 18.8 L0.0 18.75 Q-1.2 15.6 -8.2 11.1" fill="url(#gradient2)" fill-rule="evenodd" stroke="none"/>
    <path d="M4.5 -5.2 Q5.05 -5.6 5.65 -5.45 L6.15 -5.3 4.5 -5.2 M3.2 -0.4 L2.95 0.0 2.95 -0.35 Q5.5 -1.4 5.4 0.85 4.4 0.65 3.7 0.05 L3.2 -0.4" fill="url(#gradient3)" fill-rule="evenodd" stroke="none"/>
    <path d="M-3.1 -4.4 L-3.0 -4.5 -2.85 -4.65 Q-1.75 -5.6 -0.2 -5.6 0.95 -5.65 1.85 -5.0 L-0.15 -4.85 -2.4 -4.55 -3.1 -4.4 M2.95 -0.35 L2.95 0.0 2.95 0.1 2.75 0.45 2.3 0.95 Q1.3 1.85 0.05 2.05 L0.45 1.1 Q1.9 0.1 2.95 -0.35" fill="url(#gradient4)" fill-rule="evenodd" stroke="none"/>
    <path d="M2.95 0.1 L2.95 0.0 2.95 0.1" fill="url(#gradient5)" fill-rule="evenodd" stroke="none"/>
    <path d="M2.95 0.1 L2.95 0.0 2.95 0.1" fill="url(#gradient6)" fill-rule="evenodd" stroke="none"/>
    <path d="M0.05 -16.4 L-0.05 -16.25 M-0.4 -16.25 Q-0.35 -13.5 -2.05 -12.45 L-4.35 -11.3 Q-8.1 -10.95 -8.65 -8.0 M-6.9 -6.4 L-6.85 -6.4 -6.8 -6.3 -6.65 -5.45 -5.75 -3.05 -5.7 -3.0 -5.5 -2.3 -5.0 -0.4 -4.9 -0.1 -4.8 0.55 -4.7 1.25 -4.6 2.95 -4.6 3.2 -4.65 4.45 -4.65 4.55 -4.75 5.45 -5.15 6.9 -5.2 6.95 -5.55 7.55 -6.6 8.9 -8.3 11.05 M7.55 -5.4 L7.25 -7.55 M7.2 -7.7 L7.15 -7.7 M6.55 -9.8 L4.1 -12.05 M4.05 -13.5 Q3.0 -20.05 0.15 -16.35 M3.2 -0.4 L3.7 0.05 Q4.4 0.65 5.4 0.85 M2.75 0.45 L2.3 0.95 Q1.3 1.85 0.05 2.05 M4.65 2.7 L4.9 2.05 5.15 1.55 5.35 1.15 M7.55 -5.4 L7.55 -5.3 M7.6 -5.4 Q10.4 0.25 6.6 0.85 L6.0 0.9 5.9 0.9 5.6 0.9 5.55 0.95 5.35 1.25 5.15 1.55 M6.45 11.2 L5.6 10.3 5.2 9.7 5.15 9.6 4.55 8.2 4.45 7.95 4.2 5.3 4.55 3.25 4.2 4.95 M4.65 2.7 L4.55 3.25 M-8.2 11.1 Q-1.2 15.6 0.0 18.75 L1.55 18.8 Q3.2 15.8 5.75 13.9 M-5.75 -3.05 L-5.5 -2.3" fill="none" stroke="#000000" stroke-linecap="round" stroke-linejoin="round" stroke-width="0.05"/>
    <path d="M6.35 -8.3 Q6.35 -7.6 4.45 -7.45 L4.5 -7.3 3.5 -6.35 Q2.9 -6.35 2.7 -6.8 L2.6 -6.75 -3.1 -7.35 Q-2.85 -8.8 -2.45 -8.7 L1.05 -8.5 Q0.6 -9.35 0.45 -10.8 L0.7 -10.95 Q1.4 -10.95 2.65 -7.95 L3.2 -7.85 Q3.3 -8.1 3.65 -8.05 L4.3 -7.85 Q4.65 -7.6 4.8 -8.1 L4.95 -8.65 5.4 -8.7 Q6.45 -8.7 6.35 -8.3" fill="#000000" fill-opacity="0.23137255" fill-rule="evenodd" stroke="none"/>
  </g>
  <defs>
    <radialGradient cx="0" cy="0" gradientTransform="matrix(0.0205, 0.0, 0.0, 0.0205, -2.25, -2.5)" gradientUnits="userSpaceOnUse" id="gradient0" r="819.2" spreadMethod="pad">
      <stop offset="0.0" stop-color="#f7c85e"/>
      <stop offset="0.6352941176470588" stop-color="#f79d44"/>
      <stop offset="1.0" stop-color="#f1ad6b"/>
    </radialGradient>
    <radialGradient cx="0" cy="0" gradientTransform="matrix(0.0238, 0.0, 0.0, 0.0246, 3.35, 3.55)" gradientUnits="userSpaceOnUse" id="gradient1" r="819.2" spreadMethod="pad">
      <stop offset="0.0" stop-color="#f7c85e"/>
      <stop offset="0.6352941176470588" stop-color="#f79d44"/>
      <stop offset="1.0" stop-color="#f1ad6b"/>
    </radialGradient>
    <radialGradient cx="0" cy="0" gradientTransform="matrix(0.0091, 0.0, 0.0, 0.0091, 0.75, 13.75)" gradientUnits="userSpaceOnUse" id="gradient2" r="819.2" spreadMethod="pad">
      <stop offset="0.0" stop-color="#f7c85e"/>
      <stop offset="0.6352941176470588" stop-color="#f79d44"/>
      <stop offset="1.0" stop-color="#f1ad6b"/>
    </radialGradient>
    <radialGradient cx="0" cy="0" gradientTransform="matrix(0.0054, 0.0, 0.0, 0.0065, 5.9, -2.5)" gradientUnits="userSpaceOnUse" id="gradient3" r="819.2" spreadMethod="pad">
      <stop offset="0.0" stop-color="#f7c85e"/>
      <stop offset="0.6352941176470588" stop-color="#f79d44"/>
      <stop offset="1.0" stop-color="#f1ad6b"/>
    </radialGradient>
    <radialGradient cx="0" cy="0" gradientTransform="matrix(0.0085, 0.0, 0.0, 0.0085, 0.55, -4.45)" gradientUnits="userSpaceOnUse" id="gradient4" r="819.2" spreadMethod="pad">
      <stop offset="0.0" stop-color="#f7c85e"/>
      <stop offset="0.6352941176470588" stop-color="#f79d44"/>
      <stop offset="1.0" stop-color="#f1ad6b"/>
    </radialGradient>
    <radialGradient cx="0" cy="0" gradientTransform="matrix(0.0054, 0.0, 0.0, 0.0065, 5.9, -2.5)" gradientUnits="userSpaceOnUse" id="gradient5" r="819.2" spreadMethod="pad">
      <stop offset="0.0" stop-color="#888888"/>
      <stop offset="0.6666666666666666" stop-color="#000000"/>
      <stop offset="1.0" stop-color="#3c3c3c"/>
    </radialGradient>
    <radialGradient cx="0" cy="0" gradientTransform="matrix(0.0076, 0.0, 0.0, 0.0079, 0.15, -2.75)" gradientUnits="userSpaceOnUse" id="gradient6" r="819.2" spreadMethod="pad">
      <stop offset="0.0" stop-color="#888888"/>
      <stop offset="0.6666666666666666" stop-color="#000000"/>
      <stop offset="1.0" stop-color="#3c3c3c"/>
    </radialGradient>
  </defs>
</svg>
