<?xml version="1.0" encoding="UTF-8" standalone="no"?>
<svg xmlns:xlink="http://www.w3.org/1999/xlink" height="11.0px" width="9.0px" xmlns="http://www.w3.org/2000/svg">
  <g transform="matrix(1.0, 0.0, 0.0, 1.0, 2.55, 6.7)">
    <path d="M0.4 3.55 L0.05 3.45 0.05 3.4 0.4 3.55" fill="url(#gradient0)" fill-rule="evenodd" stroke="none"/>
    <path d="M-1.0 0.2 L-1.25 0.0 -1.4 -0.1 Q-2.6 -1.25 -2.55 -2.85 -2.6 -4.45 -1.4 -5.6 -0.2 -6.7 1.45 -6.7 3.1 -6.7 4.3 -5.6 5.5 -4.45 5.5 -2.85 L5.45 -2.15 5.3 -1.7 6.45 0.1 5.75 0.95 5.6 0.9 6.1 2.25 6.4 4.3 0.4 3.55 0.05 3.4 -1.0 0.2" fill="url(#gradient1)" fill-rule="evenodd" stroke="none"/>
    <path d="M-1.0 0.2 L-1.25 0.0 -1.4 -0.1 Q-2.6 -1.25 -2.55 -2.85 -2.6 -4.45 -1.4 -5.6 -0.2 -6.7 1.45 -6.7 3.1 -6.7 4.3 -5.6 5.5 -4.45 5.5 -2.85 L5.45 -2.15 5.4 -1.95 5.3 -1.7 6.45 0.1 5.75 0.95 5.6 0.9 6.1 2.25 6.4 4.3 0.4 3.55 0.05 3.4 M5.45 -2.15 L5.3 -1.7" fill="none" stroke="#000000" stroke-linecap="round" stroke-linejoin="round" stroke-width="0.05"/>
    <path d="M4.45 -0.1 L3.25 -0.8 2.8 -1.65 2.8 -1.95 5.2 -1.65 4.45 -0.1" fill="#000000" fill-rule="evenodd" stroke="none"/>
    <path d="M0.25 -4.3 L0.5 -4.05 0.65 -3.85 0.65 -3.7 0.6 -3.6 0.55 -3.5 0.35 -3.25 0.25 -3.15 0.0 -3.15 -0.7 -3.25 -1.05 -3.7 -1.05 -3.8 -1.0 -3.9 -0.9 -4.15 Q-0.7 -4.45 -0.4 -4.4 L0.0 -4.4 0.25 -4.3 M-1.25 -2.2 L-1.65 -1.85 -1.8 -1.85 Q-2.2 -1.9 -2.1 -2.3 L-1.95 -2.8 -1.5 -3.15 Q-1.15 -3.05 -1.15 -2.7 L-1.25 -2.2 M-1.05 -1.95 L-0.7 -1.85 -0.45 -1.65 -0.35 -1.25 -0.65 -1.0 Q-1.2 -1.0 -1.35 -1.55 L-1.2 -1.85 -1.05 -1.95" fill="#000000" fill-opacity="0.34117648" fill-rule="evenodd" stroke="none"/>
  </g>
  <defs>
    <radialGradient cx="0" cy="0" gradientTransform="matrix(0.0105, 0.0, 0.0, 0.0094, 5.0, -2.95)" gradientUnits="userSpaceOnUse" id="gradient0" r="819.2" spreadMethod="pad">
      <stop offset="0.0" stop-color="#6578a3"/>
      <stop offset="0.6470588235294118" stop-color="#34466d"/>
      <stop offset="1.0" stop-color="#75ac9b"/>
    </radialGradient>
    <radialGradient cx="0" cy="0" gradientTransform="matrix(0.0105, 0.0, 0.0, 0.0094, 5.0, -2.95)" gradientUnits="userSpaceOnUse" id="gradient1" r="819.2" spreadMethod="pad">
      <stop offset="0.0" stop-color="#b6dfb0"/>
      <stop offset="0.5294117647058824" stop-color="#bca287"/>
      <stop offset="1.0" stop-color="#4d6f77"/>
    </radialGradient>
  </defs>
</svg>
