<?xml version="1.0" encoding="UTF-8" standalone="no"?>
<svg xmlns:xlink="http://www.w3.org/1999/xlink" height="85.5px" width="17.5px" xmlns="http://www.w3.org/2000/svg">
  <g transform="matrix(1.0, 0.0, 0.0, 1.0, 8.65, 57.9)">
    <path d="M0.75 2.35 L1.5 5.35 -1.5 5.35 -1.5 1.1 0.75 2.35 M1.5 11.85 L1.5 15.4 -1.5 13.45 -1.5 11.85 1.5 11.85 M1.5 18.85 L1.5 22.75 -1.5 20.2 -1.5 16.5 1.5 18.85 M1.5 26.0 L1.5 27.6 -1.5 27.6 -1.5 23.7 1.5 26.0" fill="url(#gradient0)" fill-rule="evenodd" stroke="none"/>
    <path d="M1.5 7.85 L1.5 9.35 -1.5 9.35 -1.5 7.85 1.5 7.85 M1.5 15.4 L1.5 18.85 -1.5 16.5 -1.5 13.45 1.5 15.4 M1.5 22.75 L1.5 26.0 -1.5 23.7 -1.5 20.2 1.5 22.75" fill="url(#gradient1)" fill-rule="evenodd" stroke="none"/>
    <path d="M-7.0 -47.05 L-8.65 -57.9 Q-6.0 -48.4 5.6 -36.9 L8.85 5.1 Q5.4 -15.8 2.6 -35.4 L-7.0 -47.05" fill="url(#gradient2)" fill-rule="evenodd" stroke="none"/>
    <path d="M1.5 5.35 L5.85 5.35 5.85 7.85 1.5 7.85 -1.5 7.85 -6.15 7.85 -6.15 5.35 -1.5 5.35 1.5 5.35" fill="url(#gradient3)" fill-rule="evenodd" stroke="none"/>
    <path d="M1.5 9.35 L3.1 9.35 3.1 11.85 1.5 11.85 -1.5 11.85 -3.4 11.85 -3.4 9.35 -1.5 9.35 1.5 9.35" fill="url(#gradient4)" fill-rule="evenodd" stroke="none"/>
    <path d="M8.85 5.1 Q3.85 0.25 0.5 1.85 L-1.75 0.6 -6.9 -4.15 Q-2.4 -23.2 -7.0 -47.05 L2.6 -35.4 Q5.4 -15.8 8.85 5.1" fill="url(#gradient5)" fill-rule="evenodd" stroke="none"/>
    <path d="M8.85 5.1 Q3.85 0.25 0.5 1.85 L-1.75 0.6 -6.9 -4.15 Q-2.4 -23.2 -7.0 -47.05 L-8.65 -57.9 Q-6.0 -48.4 5.6 -36.9 L8.85 5.1 Q5.4 -15.8 2.6 -35.4 L-7.0 -47.05 M0.75 2.35 L1.5 5.35 M1.5 7.85 L1.5 9.35 M1.5 11.85 L1.5 15.4 1.5 18.85 1.5 22.75 1.5 26.0 1.5 27.6 -1.5 27.6 -1.5 23.7 -1.5 20.2 -1.5 16.5 -1.5 13.45 -1.5 11.85 M-1.5 9.35 L-1.5 7.85 M-1.5 5.35 L-1.5 1.1" fill="none" stroke="#000000" stroke-linecap="round" stroke-linejoin="round" stroke-width="0.05"/>
    <path d="M1.5 5.35 L5.85 5.35 5.85 7.85 1.5 7.85 -1.5 7.85 -6.15 7.85 -6.15 5.35 -1.5 5.35 1.5 5.35 M1.5 9.35 L3.1 9.35 3.1 11.85 1.5 11.85 -1.5 11.85 -3.4 11.85 -3.4 9.35 -1.5 9.35 1.5 9.35 Z" fill="none" stroke="#000000" stroke-linecap="round" stroke-linejoin="round" stroke-width="0.05"/>
  </g>
  <defs>
    <linearGradient gradientTransform="matrix(0.0018, 0.0, 0.0, 0.0426, 0.0, -7.3)" gradientUnits="userSpaceOnUse" id="gradient0" spreadMethod="pad" x1="-819.2" x2="819.2">
      <stop offset="0.0" stop-color="#151515"/>
      <stop offset="1.0" stop-color="#3c3c3c"/>
    </linearGradient>
    <linearGradient gradientTransform="matrix(0.0018, 0.0, 0.0, 0.0426, 0.0, -7.3)" gradientUnits="userSpaceOnUse" id="gradient1" spreadMethod="pad" x1="-819.2" x2="819.2">
      <stop offset="0.0" stop-color="#333333"/>
      <stop offset="1.0" stop-color="#6a6a6a"/>
    </linearGradient>
    <radialGradient cx="0" cy="0" gradientTransform="matrix(0.0549, 0.0, 0.0, 0.0549, 2.75, -39.25)" gradientUnits="userSpaceOnUse" id="gradient2" r="819.2" spreadMethod="pad">
      <stop offset="0.0" stop-color="#efece4"/>
      <stop offset="0.41568627450980394" stop-color="#8d662e"/>
      <stop offset="0.4666666666666667" stop-color="#422c0b"/>
      <stop offset="0.7294117647058823" stop-color="#bf8837"/>
      <stop offset="1.0" stop-color="#cba670"/>
    </radialGradient>
    <radialGradient cx="0" cy="0" gradientTransform="matrix(0.0096, 0.0, 0.0, 0.0096, 1.5, 7.0)" gradientUnits="userSpaceOnUse" id="gradient3" r="819.2" spreadMethod="pad">
      <stop offset="0.0" stop-color="#efece4"/>
      <stop offset="0.41568627450980394" stop-color="#8d662e"/>
      <stop offset="0.4666666666666667" stop-color="#422c0b"/>
      <stop offset="0.7294117647058823" stop-color="#bf8837"/>
      <stop offset="1.0" stop-color="#cba670"/>
    </radialGradient>
    <radialGradient cx="0" cy="0" gradientTransform="matrix(0.0059, 0.0, 0.0, 0.0059, 1.25, 10.75)" gradientUnits="userSpaceOnUse" id="gradient4" r="819.2" spreadMethod="pad">
      <stop offset="0.0" stop-color="#efece4"/>
      <stop offset="0.41568627450980394" stop-color="#8d662e"/>
      <stop offset="0.4666666666666667" stop-color="#422c0b"/>
      <stop offset="0.7294117647058823" stop-color="#bf8837"/>
      <stop offset="1.0" stop-color="#cba670"/>
    </radialGradient>
    <linearGradient gradientTransform="matrix(-0.0034, 0.0284, -0.0092, -0.0011, -2.2, -22.9)" gradientUnits="userSpaceOnUse" id="gradient5" spreadMethod="pad" x1="-819.2" x2="819.2">
      <stop offset="0.0" stop-color="#0b0706"/>
      <stop offset="1.0" stop-color="#3e3128"/>
    </linearGradient>
  </defs>
</svg>
