<?xml version="1.0" encoding="UTF-8" standalone="no"?>
<svg xmlns:xlink="http://www.w3.org/1999/xlink" height="31.8px" width="32.0px" xmlns="http://www.w3.org/2000/svg">
  <g transform="matrix(1.0, 0.0, 0.0, 1.0, 16.25, 15.8)">
    <path d="M15.15 9.85 L15.15 15.2 11.55 15.2 11.45 15.2 10.15 11.4 15.15 9.85 M3.7 -3.05 L4.45 -5.6 6.15 -1.4 6.55 6.15 5.05 7.3 0.15 11.0 -0.3 10.75 0.15 9.15 3.7 -3.05" fill="#ffffff" fill-rule="evenodd" stroke="none"/>
    <path d="M8.35 -15.2 L8.6 -15.2 11.45 -12.15 6.0 -10.65 5.95 -10.8 5.9 -10.8 -5.05 -11.1 4.55 -11.8 8.35 -15.2" fill="#467d56" fill-rule="evenodd" stroke="none"/>
    <path d="M6.0 -10.65 L11.45 -12.15 11.55 -12.15 9.75 -4.75 6.15 -7.8 5.7 -9.9 5.9 -10.65 6.0 -10.65" fill="#0e140e" fill-rule="evenodd" stroke="none"/>
    <path d="M-5.05 -11.1 L5.9 -10.8 5.9 -10.65 5.7 -9.9 4.45 -5.6 3.7 -3.05 -1.05 -8.4 -7.45 -8.0 -11.45 -0.9 -8.9 -11.2 -5.05 -11.1" fill="#1f271d" fill-rule="evenodd" stroke="none"/>
    <path d="M9.75 -4.75 L8.25 1.4 7.2 5.65 6.55 6.15 6.15 -1.4 4.45 -5.6 5.7 -9.9 6.15 -7.8 9.75 -4.75" fill="url(#gradient0)" fill-rule="evenodd" stroke="none"/>
    <path d="M8.35 -15.2 L4.55 -11.8 -5.05 -11.1 -8.9 -11.2 -8.85 -11.4 -10.8 -15.2 8.35 -15.2" fill="url(#gradient1)" fill-rule="evenodd" stroke="none"/>
    <path d="M8.25 1.4 L15.15 6.45 15.15 7.3 7.2 5.65 8.25 1.4" fill="url(#gradient2)" fill-rule="evenodd" stroke="none"/>
    <path d="M15.15 7.3 L15.15 9.85 10.15 11.4 11.45 15.2 5.9 15.2 5.05 7.3 6.55 6.15 7.2 5.65 15.15 7.3" fill="url(#gradient3)" fill-rule="evenodd" stroke="none"/>
    <path d="M5.9 15.2 L2.95 15.2 3.35 15.0 0.15 11.0 5.05 7.3 5.9 15.2" fill="url(#gradient4)" fill-rule="evenodd" stroke="none"/>
    <path d="M2.95 15.2 L1.35 15.2 -7.4 10.75 -7.05 9.8 -4.05 8.8 -0.3 10.75 0.15 11.0 3.35 15.0 2.95 15.2" fill="url(#gradient5)" fill-rule="evenodd" stroke="none"/>
    <path d="M-9.05 15.2 L-14.65 15.2 -14.65 12.15 -11.75 0.3 -11.45 -0.9 -7.45 -8.0 -1.05 -8.4 3.7 -3.05 0.15 9.15 -0.25 0.8 -2.25 -2.6 -8.45 2.6 -6.45 2.6 -8.05 5.4 -8.15 12.85 -9.05 15.2" fill="url(#gradient6)" fill-rule="evenodd" stroke="none"/>
    <path d="M-13.15 -12.35 L-12.2 -15.2 -10.8 -15.2 -8.85 -11.4 -8.9 -11.2 -11.45 -0.9 -11.85 -0.1 -11.85 -9.6 -13.15 -12.35" fill="#1b3223" fill-rule="evenodd" stroke="none"/>
    <path d="M-11.85 -0.1 L-11.45 -0.9 -11.75 0.3 -11.85 -0.1" fill="url(#gradient7)" fill-rule="evenodd" stroke="none"/>
    <path d="M-14.65 12.15 L-14.65 -7.85 -13.15 -12.35 -11.85 -9.6 -11.85 -0.1 -11.75 0.3 -14.65 12.15" fill="#316043" fill-rule="evenodd" stroke="none"/>
    <path d="M0.15 9.15 L-0.3 10.75 -4.05 8.8 -7.05 9.8 -7.4 10.75 -8.15 12.85 -8.05 5.4 -6.45 2.6 -8.45 2.6 -2.25 -2.6 -0.25 0.8 0.15 9.15" fill="#2e4e29" fill-rule="evenodd" stroke="none"/>
    <path d="M1.35 15.2 L-9.05 15.2 -8.15 12.85 -7.4 10.75 1.35 15.2" fill="url(#gradient8)" fill-rule="evenodd" stroke="none"/>
    <path d="M15.15 15.2 L11.55 15.2 M-11.45 -0.9 L-11.85 -0.1 -11.75 0.3" fill="none" stroke="#2e4e29" stroke-linecap="round" stroke-linejoin="round" stroke-width="0.05"/>
    <path d="M15.75 -15.8 L15.75 16.0 -16.25 16.0 -16.25 -15.8 15.75 -15.8" fill="url(#gradient9)" fill-rule="evenodd" stroke="none"/>
  </g>
  <defs>
    <linearGradient gradientTransform="matrix(-0.0014, 0.0147, -0.0058, -6.0E-4, 5.6, -0.6)" gradientUnits="userSpaceOnUse" id="gradient0" spreadMethod="pad" x1="-819.2" x2="819.2">
      <stop offset="0.0" stop-color="#222b23"/>
      <stop offset="0.3843137254901961" stop-color="#3f7c3f"/>
      <stop offset="1.0" stop-color="#46df20"/>
    </linearGradient>
    <linearGradient gradientTransform="matrix(-0.0102, -0.0078, 0.0052, -0.0069, -0.6, -13.7)" gradientUnits="userSpaceOnUse" id="gradient1" spreadMethod="pad" x1="-819.2" x2="819.2">
      <stop offset="0.0" stop-color="#cbf8cf"/>
      <stop offset="1.0" stop-color="#b9f98e"/>
    </linearGradient>
    <linearGradient gradientTransform="matrix(0.005, 0.0, 0.0, 0.0036, 11.25, 4.35)" gradientUnits="userSpaceOnUse" id="gradient2" spreadMethod="pad" x1="-819.2" x2="819.2">
      <stop offset="0.0" stop-color="#cbf8cf"/>
      <stop offset="1.0" stop-color="#b9f98e"/>
    </linearGradient>
    <linearGradient gradientTransform="matrix(-0.0014, -0.0066, 0.0065, -0.0013, 10.45, 10.65)" gradientUnits="userSpaceOnUse" id="gradient3" spreadMethod="pad" x1="-819.2" x2="819.2">
      <stop offset="0.0" stop-color="#49c43c"/>
      <stop offset="1.0" stop-color="#327854"/>
    </linearGradient>
    <linearGradient gradientTransform="matrix(-0.0032, 0.0019, -0.0022, -0.0038, 4.25, 11.95)" gradientUnits="userSpaceOnUse" id="gradient4" spreadMethod="pad" x1="-819.2" x2="819.2">
      <stop offset="0.0" stop-color="#222b23"/>
      <stop offset="0.3843137254901961" stop-color="#3f7c3f"/>
      <stop offset="1.0" stop-color="#46df20"/>
    </linearGradient>
    <linearGradient gradientTransform="matrix(-0.0055, -0.0042, 0.0016, -0.0021, -1.75, 12.25)" gradientUnits="userSpaceOnUse" id="gradient5" spreadMethod="pad" x1="-819.2" x2="819.2">
      <stop offset="0.0" stop-color="#cbf8cf"/>
      <stop offset="1.0" stop-color="#b9f98e"/>
    </linearGradient>
    <linearGradient gradientTransform="matrix(-0.0048, 0.018, -0.0085, -0.0023, -4.95, 2.05)" gradientUnits="userSpaceOnUse" id="gradient6" spreadMethod="pad" x1="-819.2" x2="819.2">
      <stop offset="0.0" stop-color="#222b23"/>
      <stop offset="0.3843137254901961" stop-color="#3f7c3f"/>
      <stop offset="1.0" stop-color="#46df20"/>
    </linearGradient>
    <linearGradient gradientTransform="matrix(0.0031, -0.0174, 0.0031, 5.0E-4, -13.05, -2.25)" gradientUnits="userSpaceOnUse" id="gradient7" spreadMethod="pad" x1="-819.2" x2="819.2">
      <stop offset="0.0" stop-color="#49c43c"/>
      <stop offset="1.0" stop-color="#327854"/>
    </linearGradient>
    <linearGradient gradientTransform="matrix(5.0E-4, -0.0028, 0.0062, 0.0011, -3.65, 13.8)" gradientUnits="userSpaceOnUse" id="gradient8" spreadMethod="pad" x1="-819.2" x2="819.2">
      <stop offset="0.0" stop-color="#49c43c"/>
      <stop offset="1.0" stop-color="#327854"/>
    </linearGradient>
    <linearGradient gradientTransform="matrix(0.0, 0.0194, -0.0195, 0.0, -0.25, 0.1)" gradientUnits="userSpaceOnUse" id="gradient9" spreadMethod="pad" x1="-819.2" x2="819.2">
      <stop offset="0.44313725490196076" stop-color="#28f03c" stop-opacity="0.0"/>
      <stop offset="1.0" stop-color="#27dc12" stop-opacity="0.6"/>
    </linearGradient>
  </defs>
</svg>
