<?xml version="1.0" encoding="UTF-8" standalone="no"?>
<svg xmlns:xlink="http://www.w3.org/1999/xlink" height="49.95px" width="36.4px" xmlns="http://www.w3.org/2000/svg">
  <g transform="matrix(1.0, 0.0, 0.0, 1.0, 21.4, 21.05)">
    <path d="M3.25 -10.25 L3.55 -10.25 3.6 -8.5 1.85 -9.25 3.25 -10.25" fill="url(#gradient0)" fill-rule="evenodd" stroke="none"/>
    <path d="M7.6 0.5 L7.65 1.55 7.4 2.1 7.6 0.5 M-8.85 18.7 L-9.35 13.0 -9.15 13.0 -9.15 12.95 Q-8.9 9.25 -9.25 6.15 L-5.45 11.9 Q-5.9 13.8 -5.9 16.0 L-5.65 19.1 -8.85 18.7 M-3.55 -19.2 L3.25 -10.25 1.85 -9.25 3.6 -8.5 3.65 -6.9 4.3 -5.65 Q0.25 -4.1 -3.85 -6.0 L-4.0 -6.0 -4.7 -6.5 -3.55 -19.2" fill="url(#gradient1)" fill-rule="evenodd" stroke="none"/>
    <path d="M4.2 14.4 Q5.3 17.55 4.95 20.4 L-5.65 19.1 -5.9 16.0 Q-5.9 13.8 -5.45 11.9 L-3.85 14.3 -3.65 14.3 4.15 14.5 4.2 14.4" fill="url(#gradient2)" fill-rule="evenodd" stroke="none"/>
    <path d="M4.95 20.4 L5.1 20.4 5.3 24.4 0.25 28.9 -9.2 23.8 -8.85 18.7 -5.65 19.1 4.95 20.4" fill="url(#gradient3)" fill-rule="evenodd" stroke="none"/>
    <path d="M-11.3 -0.65 L-11.45 -0.75 -11.35 -0.85 -11.3 -0.65" fill="url(#gradient4)" fill-rule="evenodd" stroke="none"/>
    <path d="M3.55 -10.25 L3.3 -20.45 5.95 -20.25 5.95 -17.3 6.2 -17.0 Q5.35 -13.2 6.1 -9.4 L6.6 -7.4 Q8.25 -5.85 10.25 -5.85 11.4 -5.85 12.7 -6.35 L15.0 -6.2 14.9 -3.35 8.65 -2.15 6.65 -6.4 5.2 -6.2 5.0 -6.0 4.3 -5.65 3.65 -6.9 3.6 -8.5 3.55 -10.25" fill="url(#gradient5)" fill-rule="evenodd" stroke="none"/>
    <path d="M6.2 -17.0 Q10.6 -12.9 12.7 -6.35 11.4 -5.85 10.25 -5.85 8.25 -5.85 6.6 -7.4 L6.1 -9.4 Q5.35 -13.2 6.2 -17.0" fill="url(#gradient6)" fill-rule="evenodd" stroke="none"/>
    <path d="M8.65 -2.15 L8.95 -1.5 7.6 0.1 6.6 2.0 5.2 -6.2 6.65 -6.4 8.65 -2.15" fill="url(#gradient7)" fill-rule="evenodd" stroke="none"/>
    <path d="M4.3 -5.65 L5.0 -6.0 5.2 -6.2 6.6 2.0 6.5 2.2 6.2 2.2 Q1.1 3.85 -4.5 2.05 L-3.85 -6.0 Q0.25 -4.1 4.3 -5.65" fill="url(#gradient8)" fill-rule="evenodd" stroke="none"/>
    <path d="M-4.5 2.05 L-4.85 2.05 -7.05 -0.3 -8.9 -2.4 -4.85 -5.05 -4.7 -6.5 -4.0 -6.0 -3.85 -6.0 -4.5 2.05" fill="url(#gradient9)" fill-rule="evenodd" stroke="none"/>
    <path d="M7.6 0.1 L7.6 0.5 7.4 2.1 7.25 3.4 4.2 14.4 4.2 14.35 6.2 2.2 6.5 2.2 6.6 2.0 7.6 0.1 M-9.25 6.15 L-9.6 5.65 -11.3 -0.65 -11.35 -0.85 -8.9 -2.4 -7.05 -0.3 -3.65 14.3 -3.85 14.3 -5.45 11.9 -9.25 6.15" fill="#1f202e" fill-rule="evenodd" stroke="none"/>
    <path d="M4.2 14.35 L4.2 14.4 4.15 14.5 -3.65 14.3 -7.05 -0.3 -4.85 2.05 -4.5 2.05 Q1.1 3.85 6.2 2.2 L4.2 14.35" fill="url(#gradient10)" fill-rule="evenodd" stroke="none"/>
    <path d="M-11.45 -0.75 L-12.6 -0.05 -21.4 -3.9 -20.4 -7.7 -18.4 -7.7 Q-17.0 -6.3 -15.25 -5.7 L-11.6 -5.4 Q-10.0 -5.6 -8.15 -6.35 L-7.55 -8.95 -7.35 -11.2 Q-7.35 -12.95 -7.65 -14.65 -8.0 -16.45 -8.75 -18.2 L-8.8 -18.35 -7.5 -20.95 -3.4 -21.05 -3.55 -19.2 -4.7 -6.5 -4.85 -5.05 -8.9 -2.4 -11.35 -0.85 -11.45 -0.75" fill="url(#gradient11)" fill-rule="evenodd" stroke="none"/>
    <path d="M-8.9 -18.2 L-8.8 -18.35 -8.75 -18.2 -8.9 -18.2" fill="url(#gradient12)" fill-rule="evenodd" stroke="none"/>
    <path d="M-18.4 -7.7 Q-16.3 -15.3 -8.9 -18.2 L-8.75 -18.2 Q-8.0 -16.45 -7.65 -14.65 -7.35 -12.95 -7.35 -11.2 L-7.55 -8.95 -8.15 -6.35 Q-10.0 -5.6 -11.6 -5.4 L-15.25 -5.7 Q-17.0 -6.3 -18.4 -7.7" fill="url(#gradient13)" fill-rule="evenodd" stroke="none"/>
    <path d="M3.55 -10.25 L3.3 -20.45 5.95 -20.25 5.95 -17.3 6.2 -17.0 Q10.6 -12.9 12.7 -6.35 L15.0 -6.2 14.9 -3.35 8.65 -2.15 8.95 -1.5 7.6 0.1 7.6 0.5 7.65 1.55 7.4 2.1 7.25 3.4 4.2 14.4 Q5.3 17.55 4.95 20.4 L5.1 20.4 5.3 24.4 M-9.2 23.8 L-8.85 18.7 -9.35 13.0 -9.35 12.95 -9.15 13.0 -9.15 12.95 Q-8.9 9.25 -9.25 6.15 L-9.6 5.65 -11.3 -0.65 -11.35 -0.85 -8.9 -2.4 -4.85 -5.05 -4.7 -6.5 -3.55 -19.2 3.25 -10.25 1.85 -9.25 M-11.45 -0.75 L-12.6 -0.05 -21.4 -3.9 -20.4 -7.7 -18.4 -7.7 Q-16.3 -15.3 -8.9 -18.2 L-8.8 -18.35 -7.5 -20.95 -3.4 -21.05 -3.55 -19.2 M3.55 -10.25 L3.6 -8.5 3.65 -6.9 4.3 -5.65 5.0 -6.0 5.2 -6.2 6.65 -6.4 8.65 -2.15 M6.2 -17.0 Q5.35 -13.2 6.1 -9.4 L6.6 -7.4 Q8.25 -5.85 10.25 -5.85 11.4 -5.85 12.7 -6.35 M6.6 2.0 L7.6 0.1 M6.2 2.2 L6.5 2.2 6.6 2.0 5.2 -6.2 M7.6 0.5 L7.4 2.1 M4.2 14.35 L6.2 2.2 Q1.1 3.85 -4.5 2.05 L-4.85 2.05 -7.05 -0.3 -3.65 14.3 4.15 14.5 4.2 14.4 M-18.4 -7.7 Q-17.0 -6.3 -15.25 -5.7 L-11.6 -5.4 Q-10.0 -5.6 -8.15 -6.35 L-7.55 -8.95 -7.35 -11.2 Q-7.35 -12.95 -7.65 -14.65 -8.0 -16.45 -8.75 -18.2 L-8.8 -18.35 M-11.35 -0.85 L-11.45 -0.75 M-3.85 -6.0 L-4.0 -6.0 -4.7 -6.5 M-8.9 -2.4 L-7.05 -0.3 M-5.45 11.9 L-9.25 6.15 M-3.65 14.3 L-3.85 14.3 -5.45 11.9 M-5.65 19.1 L4.95 20.4 M-5.65 19.1 L-8.85 18.7 M-4.5 2.05 L-3.85 -6.0 Q0.25 -4.1 4.3 -5.65" fill="none" stroke="#000000" stroke-linecap="round" stroke-linejoin="round" stroke-width="0.05"/>
  </g>
  <defs>
    <radialGradient cx="0" cy="0" gradientTransform="matrix(0.0086, 0.0, 0.0, 0.0086, 7.45, -5.0)" gradientUnits="userSpaceOnUse" id="gradient0" r="819.2" spreadMethod="pad">
      <stop offset="0.0" stop-color="#333333"/>
      <stop offset="1.0" stop-color="#000000"/>
    </radialGradient>
    <radialGradient cx="0" cy="0" gradientTransform="matrix(0.0129, 0.0015, -0.0024, 0.0207, -1.55, 2.25)" gradientUnits="userSpaceOnUse" id="gradient1" r="819.2" spreadMethod="pad">
      <stop offset="0.0" stop-color="#333333"/>
      <stop offset="1.0" stop-color="#000000"/>
    </radialGradient>
    <radialGradient cx="0" cy="0" gradientTransform="matrix(0.0196, 0.0, 0.0, 0.0196, 1.95, 19.6)" gradientUnits="userSpaceOnUse" id="gradient2" r="819.2" spreadMethod="pad">
      <stop offset="0.0" stop-color="#111111"/>
      <stop offset="1.0" stop-color="#000000"/>
    </radialGradient>
    <radialGradient cx="0" cy="0" gradientTransform="matrix(0.0137, 0.0, 0.0, 0.0137, 1.7, 22.65)" gradientUnits="userSpaceOnUse" id="gradient3" r="819.2" spreadMethod="pad">
      <stop offset="0.0" stop-color="#b1c0cd"/>
      <stop offset="0.24705882352941178" stop-color="#515151"/>
      <stop offset="0.6666666666666666" stop-color="#1e1e1e"/>
      <stop offset="0.7137254901960784" stop-color="#564f32"/>
      <stop offset="1.0" stop-color="#111111"/>
    </radialGradient>
    <radialGradient cx="0" cy="0" gradientTransform="matrix(0.0091, 0.0, 0.0, 0.0091, -10.9, -6.8)" gradientUnits="userSpaceOnUse" id="gradient4" r="819.2" spreadMethod="pad">
      <stop offset="0.0" stop-color="#333333"/>
      <stop offset="1.0" stop-color="#000000"/>
    </radialGradient>
    <radialGradient cx="0" cy="0" gradientTransform="matrix(0.024, 0.0, 0.0, 0.024, 14.3, -0.85)" gradientUnits="userSpaceOnUse" id="gradient5" r="819.2" spreadMethod="pad">
      <stop offset="0.0" stop-color="#b6cfaf"/>
      <stop offset="0.24705882352941178" stop-color="#809c6b"/>
      <stop offset="0.6666666666666666" stop-color="#434b34"/>
      <stop offset="0.7137254901960784" stop-color="#808b63"/>
      <stop offset="1.0" stop-color="#3d4334"/>
    </radialGradient>
    <radialGradient cx="0" cy="0" gradientTransform="matrix(0.012, 0.0, 0.0, 0.012, 7.35, -14.55)" gradientUnits="userSpaceOnUse" id="gradient6" r="819.2" spreadMethod="pad">
      <stop offset="0.0" stop-color="#b1c0cd"/>
      <stop offset="0.24705882352941178" stop-color="#515151"/>
      <stop offset="0.6666666666666666" stop-color="#1e1e1e"/>
      <stop offset="0.7137254901960784" stop-color="#564f32"/>
      <stop offset="1.0" stop-color="#111111"/>
    </radialGradient>
    <radialGradient cx="0" cy="0" gradientTransform="matrix(0.0091, 0.0, 0.0, 0.0091, 6.35, -5.5)" gradientUnits="userSpaceOnUse" id="gradient7" r="819.2" spreadMethod="pad">
      <stop offset="0.0" stop-color="#c7c5b8"/>
      <stop offset="0.24705882352941178" stop-color="#312736"/>
      <stop offset="0.6666666666666666" stop-color="#2d3528"/>
      <stop offset="1.0" stop-color="#3e6445"/>
    </radialGradient>
    <radialGradient cx="0" cy="0" gradientTransform="matrix(0.0112, 0.0, 0.0, 0.0112, 0.4, -4.65)" gradientUnits="userSpaceOnUse" id="gradient8" r="819.2" spreadMethod="pad">
      <stop offset="0.0" stop-color="#c7c5b8"/>
      <stop offset="0.24705882352941178" stop-color="#312736"/>
      <stop offset="0.6666666666666666" stop-color="#2d3528"/>
      <stop offset="1.0" stop-color="#3e6445"/>
    </radialGradient>
    <radialGradient cx="0" cy="0" gradientTransform="matrix(0.0147, 0.0, 0.0, 0.0147, -9.7, -8.8)" gradientUnits="userSpaceOnUse" id="gradient9" r="819.2" spreadMethod="pad">
      <stop offset="0.0" stop-color="#c7c5b8"/>
      <stop offset="0.24705882352941178" stop-color="#312736"/>
      <stop offset="0.6666666666666666" stop-color="#2d3528"/>
      <stop offset="1.0" stop-color="#3e6445"/>
    </radialGradient>
    <radialGradient cx="0" cy="0" gradientTransform="matrix(0.0147, 0.0, 0.0, 0.0147, -1.15, 3.65)" gradientUnits="userSpaceOnUse" id="gradient10" r="819.2" spreadMethod="pad">
      <stop offset="0.0" stop-color="#b1c0cd"/>
      <stop offset="0.24705882352941178" stop-color="#515151"/>
      <stop offset="0.6666666666666666" stop-color="#1e1e1e"/>
      <stop offset="0.7137254901960784" stop-color="#564f32"/>
      <stop offset="1.0" stop-color="#111111"/>
    </radialGradient>
    <radialGradient cx="0" cy="0" gradientTransform="matrix(0.018, 0.0, 0.0, 0.018, -16.7, -9.6)" gradientUnits="userSpaceOnUse" id="gradient11" r="819.2" spreadMethod="pad">
      <stop offset="0.0" stop-color="#b6cfaf"/>
      <stop offset="0.24705882352941178" stop-color="#809c6b"/>
      <stop offset="0.6666666666666666" stop-color="#434b34"/>
      <stop offset="0.7137254901960784" stop-color="#808b63"/>
      <stop offset="1.0" stop-color="#3d4334"/>
    </radialGradient>
    <radialGradient cx="0" cy="0" gradientTransform="matrix(0.018, 0.0, 0.0, 0.018, -16.7, -9.6)" gradientUnits="userSpaceOnUse" id="gradient12" r="819.2" spreadMethod="pad">
      <stop offset="0.0" stop-color="#c7c5b8"/>
      <stop offset="0.24705882352941178" stop-color="#bf7748"/>
      <stop offset="0.6666666666666666" stop-color="#683f17"/>
      <stop offset="0.7137254901960784" stop-color="#ba6934"/>
      <stop offset="1.0" stop-color="#523625"/>
    </radialGradient>
    <radialGradient cx="0" cy="0" gradientTransform="matrix(0.0118, 0.0, 0.0, 0.0118, -13.05, -14.6)" gradientUnits="userSpaceOnUse" id="gradient13" r="819.2" spreadMethod="pad">
      <stop offset="0.0" stop-color="#b1c0cd"/>
      <stop offset="0.24705882352941178" stop-color="#515151"/>
      <stop offset="0.6666666666666666" stop-color="#1e1e1e"/>
      <stop offset="0.7137254901960784" stop-color="#564f32"/>
      <stop offset="1.0" stop-color="#111111"/>
    </radialGradient>
  </defs>
</svg>
