<?xml version="1.0" encoding="UTF-8" standalone="no"?>
<svg xmlns:xlink="http://www.w3.org/1999/xlink" height="40.5px" width="26.35px" xmlns="http://www.w3.org/2000/svg">
  <g transform="matrix(1.0, 0.0, 0.0, 1.0, 10.25, 19.8)">
    <path d="M-9.15 -3.95 L-8.4 -2.95 -7.35 0.5 -9.15 -3.95 M10.95 1.9 L11.45 1.9 11.05 2.85 10.3 3.65 Q10.95 2.9 10.95 1.9" fill="url(#gradient0)" fill-rule="evenodd" stroke="none"/>
    <path d="M11.45 1.9 L12.35 1.75 11.45 3.1 11.05 2.85 11.45 1.9" fill="url(#gradient1)" fill-rule="evenodd" stroke="none"/>
    <path d="M-8.4 -2.95 Q-7.1 -2.95 -5.85 -0.35 -4.6 2.25 -4.1 5.45 L-7.35 0.5 -8.4 -2.95 M3.1 7.5 Q3.1 5.2 5.4 3.55 7.7 1.9 10.95 1.9 10.95 2.9 10.3 3.65 L10.0 3.95 Q9.0 4.75 7.65 4.75 L3.1 7.5 M10.3 3.65 Q9.35 4.35 7.65 4.75 9.35 4.35 10.3 3.65" fill="#000000" fill-rule="evenodd" stroke="none"/>
    <path d="M-9.7 -4.7 L-9.15 -3.95 -7.35 0.5 -4.1 5.45 -5.7 17.9 -0.85 19.2 3.1 7.5 7.65 4.75 Q9.0 4.75 10.0 3.95 L10.3 3.65 11.05 2.85 11.45 3.1 1.85 17.75 -0.85 20.2 -6.3 19.05 -9.6 9.65 -9.7 -4.7" fill="url(#gradient2)" fill-rule="evenodd" stroke="none"/>
    <path d="M-9.7 -4.7 Q-10.1 -10.45 -5.85 -14.6 2.15 -22.55 11.95 -17.0 17.55 -9.05 14.5 -0.05 L12.35 1.75 11.45 1.9 10.95 1.9 Q7.7 1.9 5.4 3.55 3.1 5.2 3.1 7.5 L-0.85 19.2 -5.7 17.9 -4.1 5.45 Q-4.6 2.25 -5.85 -0.35 -7.1 -2.95 -8.4 -2.95 L-9.15 -3.95 -9.7 -4.7 M2.8 4.1 Q5.65 -0.6 0.75 -2.55 -0.6 -2.35 -1.5 -1.25 -3.5 1.15 -2.15 3.95 0.05 8.6 2.8 4.1" fill="url(#gradient3)" fill-rule="evenodd" stroke="none"/>
    <path d="M12.35 1.75 L14.5 -0.05 Q17.55 -9.05 11.95 -17.0 2.15 -22.55 -5.85 -14.6 -10.1 -10.45 -9.7 -4.7 L-9.6 9.65 -6.3 19.05 -0.85 20.2 1.85 17.75 11.45 3.1 12.35 1.75 M-8.4 -2.95 Q-7.1 -2.95 -5.85 -0.35 -4.6 2.25 -4.1 5.45 L-5.7 17.9 -0.85 19.2 3.1 7.5 M11.05 2.85 L11.45 1.9 M10.3 3.65 L11.05 2.85 M7.65 4.75 Q9.35 4.35 10.3 3.65 M-7.35 0.5 L-8.4 -2.95" fill="none" stroke="#000000" stroke-linecap="round" stroke-linejoin="round" stroke-width="1.0"/>
  </g>
  <defs>
    <radialGradient cx="0" cy="0" gradientTransform="matrix(0.0253, 0.0, 0.0, 0.0253, 2.95, 0.2)" gradientUnits="userSpaceOnUse" id="gradient0" r="819.2" spreadMethod="pad">
      <stop offset="0.09019607843137255" stop-color="#acac97"/>
      <stop offset="0.7333333333333333" stop-color="#4d4653"/>
      <stop offset="1.0" stop-color="#20263e"/>
    </radialGradient>
    <linearGradient gradientTransform="matrix(0.0031, -0.0139, 0.0137, 0.003, -1.0, 9.1)" gradientUnits="userSpaceOnUse" id="gradient1" spreadMethod="pad" x1="-819.2" x2="819.2">
      <stop offset="0.0" stop-color="#303561"/>
      <stop offset="0.4980392156862745" stop-color="#363a49"/>
      <stop offset="1.0" stop-color="#000000"/>
    </linearGradient>
    <radialGradient cx="0" cy="0" gradientTransform="matrix(0.0232, 0.0, 0.0, 0.0232, -7.5, 4.5)" gradientUnits="userSpaceOnUse" id="gradient2" r="819.2" spreadMethod="pad">
      <stop offset="0.0" stop-color="#ffffff"/>
      <stop offset="0.42745098039215684" stop-color="#7c9aad"/>
      <stop offset="0.44313725490196076" stop-color="#58607c"/>
      <stop offset="0.6470588235294118" stop-color="#7e8aa3"/>
      <stop offset="1.0" stop-color="#c2cde7"/>
    </radialGradient>
    <radialGradient cx="0" cy="0" gradientTransform="matrix(0.045, 0.0, 0.0, 0.045, 6.95, -16.7)" gradientUnits="userSpaceOnUse" id="gradient3" r="819.2" spreadMethod="pad">
      <stop offset="0.0" stop-color="#f4f3f0"/>
      <stop offset="0.42745098039215684" stop-color="#9c958d"/>
      <stop offset="0.44313725490196076" stop-color="#78695c"/>
      <stop offset="0.6470588235294118" stop-color="#7d6b60"/>
      <stop offset="1.0" stop-color="#454837"/>
    </radialGradient>
  </defs>
</svg>
