<?xml version="1.0" encoding="UTF-8" standalone="no"?>
<svg xmlns:xlink="http://www.w3.org/1999/xlink" height="29.7px" width="20.75px" xmlns="http://www.w3.org/2000/svg">
  <g transform="matrix(1.0, 0.0, 0.0, 1.0, 6.85, 17.25)">
    <path d="M12.55 -13.5 L11.1 -7.0 Q5.75 -5.95 0.95 -8.3 L0.55 -10.85 Q6.25 -10.55 12.55 -13.5" fill="url(#gradient0)" fill-rule="evenodd" stroke="none"/>
    <path d="M10.3 -2.2 Q9.75 1.35 9.45 4.95 L9.4 5.05 Q5.6 1.8 1.25 1.1 L2.3 0.25 2.0 -1.8 Q6.15 -0.5 10.3 -2.2" fill="url(#gradient1)" fill-rule="evenodd" stroke="none"/>
    <path d="M6.95 9.2 L4.5 11.65 Q-1.5 12.8 -6.35 9.65 -5.3 7.35 -2.8 4.75 3.0 5.2 6.65 8.95 L6.95 9.2" fill="url(#gradient2)" fill-rule="evenodd" stroke="none"/>
    <path d="M9.4 5.05 Q8.45 7.25 6.95 9.15 L6.65 8.95 Q3.0 5.2 -2.8 4.75 L1.25 1.1 Q5.6 1.8 9.4 5.05" fill="url(#gradient3)" fill-rule="evenodd" stroke="none"/>
    <path d="M11.1 -7.0 L10.3 -2.2 Q6.15 -0.5 2.0 -1.8 L0.95 -8.3 Q5.75 -5.95 11.1 -7.0" fill="url(#gradient4)" fill-rule="evenodd" stroke="none"/>
    <path d="M13.15 -15.9 L12.55 -13.5 Q6.25 -10.55 0.55 -10.85 L-0.3 -15.9 13.15 -15.9" fill="url(#gradient5)" fill-rule="evenodd" stroke="none"/>
    <path d="M13.15 -15.9 L12.55 -13.5 11.1 -7.0 10.3 -2.2 Q9.75 1.35 9.45 4.95 L9.4 5.05 Q8.45 7.25 6.95 9.15 L6.95 9.2 4.5 11.65 Q-1.5 12.8 -6.35 9.65 -5.3 7.35 -2.8 4.75 L1.25 1.1 2.3 0.25 2.0 -1.8 0.95 -8.3 0.55 -10.85 -0.3 -15.9 -0.3 -15.95 -0.45 -16.6 M13.4 -16.75 L13.15 -15.9 -0.3 -15.9 M10.3 -2.2 Q6.15 -0.5 2.0 -1.8 M0.95 -8.3 Q5.75 -5.95 11.1 -7.0 M12.55 -13.5 Q6.25 -10.55 0.55 -10.85 M6.65 8.95 Q3.0 5.2 -2.8 4.75 M1.25 1.1 Q5.6 1.8 9.4 5.05" fill="none" stroke="#000000" stroke-linecap="round" stroke-linejoin="round" stroke-width="1.0"/>
  </g>
  <defs>
    <linearGradient gradientTransform="matrix(-2.0E-4, -0.004, 0.0074, -5.0E-4, 6.7, -9.9)" gradientUnits="userSpaceOnUse" id="gradient0" spreadMethod="pad" x1="-819.2" x2="819.2">
      <stop offset="0.0" stop-color="#777865"/>
      <stop offset="1.0" stop-color="#7c6a50"/>
    </linearGradient>
    <linearGradient gradientTransform="matrix(0.0, -0.0044, 0.0055, 0.0, 5.75, 1.45)" gradientUnits="userSpaceOnUse" id="gradient1" spreadMethod="pad" x1="-819.2" x2="819.2">
      <stop offset="0.0" stop-color="#777865"/>
      <stop offset="1.0" stop-color="#7c6a50"/>
    </linearGradient>
    <linearGradient gradientTransform="matrix(0.0, -0.0044, 0.0081, 0.0, 0.3, 8.35)" gradientUnits="userSpaceOnUse" id="gradient2" spreadMethod="pad" x1="-819.2" x2="819.2">
      <stop offset="0.0" stop-color="#777865"/>
      <stop offset="1.0" stop-color="#7c6a50"/>
    </linearGradient>
    <linearGradient gradientTransform="matrix(0.0074, 0.0, 0.0, 0.0049, 3.3, 5.1)" gradientUnits="userSpaceOnUse" id="gradient3" spreadMethod="pad" x1="-819.2" x2="819.2">
      <stop offset="0.0" stop-color="#616152"/>
      <stop offset="1.0" stop-color="#251816"/>
    </linearGradient>
    <linearGradient gradientTransform="matrix(0.0062, 0.0, 0.0, 0.0043, 6.0, -4.8)" gradientUnits="userSpaceOnUse" id="gradient4" spreadMethod="pad" x1="-819.2" x2="819.2">
      <stop offset="0.0" stop-color="#616152"/>
      <stop offset="1.0" stop-color="#251816"/>
    </linearGradient>
    <linearGradient gradientTransform="matrix(0.0082, 0.0, 0.0, 0.0031, 6.4, -13.35)" gradientUnits="userSpaceOnUse" id="gradient5" spreadMethod="pad" x1="-819.2" x2="819.2">
      <stop offset="0.0" stop-color="#616152"/>
      <stop offset="1.0" stop-color="#251816"/>
    </linearGradient>
  </defs>
</svg>
