<?xml version="1.0" encoding="UTF-8" standalone="no"?>
<svg xmlns:xlink="http://www.w3.org/1999/xlink" height="18.0px" width="13.55px" xmlns="http://www.w3.org/2000/svg">
  <g transform="matrix(1.0, 0.0, 0.0, 1.0, 6.8, 9.0)">
    <path d="M4.85 -7.8 L5.35 -8.6 5.8 -9.0 6.4 -8.95 6.65 -8.85 6.75 -8.75 6.75 -8.6 6.6 -8.4 5.85 -8.1 5.5 -7.3 5.45 -7.15 5.1 -6.8 4.25 -5.9 4.05 -5.65 4.1 -5.6 4.2 -5.45 3.9 -3.05 3.8 -0.35 Q3.8 1.1 3.0 2.0 2.35 0.95 2.7 -0.65 L3.05 -3.65 3.15 -4.6 3.0 -4.45 2.4 -3.85 2.4 -3.7 2.4 -3.55 2.4 -3.25 2.4 -2.95 2.4 -2.8 2.35 -2.65 1.4 -2.05 1.4 -1.25 1.15 0.5 0.8 2.15 Q-0.05 2.1 0.1 1.05 L0.2 -0.6 0.2 -1.3 0.15 -1.3 Q-1.0 -0.5 -1.75 0.75 -1.4 1.7 -1.6 3.0 L-1.9 6.0 Q-1.95 7.55 -2.6 8.6 -3.4 7.5 -3.0 5.65 -2.7 4.15 -2.7 2.65 L-2.7 2.45 -3.4 3.55 -3.55 3.55 -3.6 3.55 -3.55 4.1 -3.55 5.45 -3.7 6.8 -3.8 6.95 -3.95 7.1 -4.2 7.2 -4.35 7.3 -4.4 7.4 -4.4 7.7 -4.4 8.15 -4.5 8.7 -4.8 9.0 Q-5.45 8.25 -5.3 6.95 L-5.1 4.7 -5.05 4.3 -4.95 3.7 -5.1 3.55 Q-5.9 3.75 -6.8 3.55 L-5.6 2.6 -5.25 2.2 -4.4 1.45 Q-4.1 1.05 -4.2 0.55 L-4.0 0.25 -3.55 -0.15 -3.5 -0.15 Q-3.35 -1.4 -1.9 -2.65 L-0.35 -3.85 -0.8 -4.35 -0.8 -4.5 -0.7 -4.8 -0.45 -5.2 -0.2 -5.4 0.4 -5.35 0.65 -5.3 0.75 -5.15 0.8 -4.85 0.8 -4.65 2.05 -5.4 3.0 -6.0 3.85 -6.8 4.2 -7.05 4.8 -7.8 4.85 -7.8 M1.6 -7.6 Q2.1 -7.5 1.9 -7.05 1.75 -6.65 1.35 -6.95 1.0 -7.2 1.35 -7.45 L1.6 -7.6 M-3.4 -4.2 Q-2.95 -4.1 -3.0 -3.65 -3.05 -3.25 -3.4 -3.25 L-4.25 -3.35 -4.4 -3.45 -4.35 -3.7 -3.65 -4.15 -3.4 -4.2" fill="#ffffff" fill-rule="evenodd" stroke="none"/>
  </g>
</svg>
