<?xml version="1.0" encoding="UTF-8" standalone="no"?>
<svg xmlns:xlink="http://www.w3.org/1999/xlink" height="19.35px" width="16.25px" xmlns="http://www.w3.org/2000/svg">
  <g transform="matrix(1.0, 0.0, 0.0, 1.0, 7.6, 10.6)">
    <path d="M-4.6 -10.6 Q-2.05 -7.5 0.05 -3.85 2.1 -0.3 4.5 3.1 L8.65 8.75 Q7.2 8.4 6.05 7.1 L6.0 7.1 5.75 7.35 Q2.9 8.35 -0.15 7.85 L-0.4 7.45 -0.45 6.95 -0.4 6.45 -0.25 6.1 -0.1 6.0 0.15 5.9 0.65 5.7 0.75 5.35 Q1.1 5.0 1.55 5.15 L2.3 5.35 Q2.65 5.2 1.7 4.95 0.9 4.75 0.25 4.35 L0.15 4.0 0.3 3.8 0.45 3.7 -1.4 3.85 Q-2.1 3.95 -2.4 3.45 -2.45 2.95 -1.9 2.85 L-0.45 2.7 -0.9 2.15 -0.95 1.95 Q-0.85 1.5 -0.4 1.6 L0.95 2.1 1.0 2.1 1.2 2.1 0.3 1.4 -0.65 0.4 -1.25 -0.05 -1.3 -0.15 -1.3 -0.25 -1.3 -0.5 -1.2 -0.75 -1.15 -0.9 -2.15 -1.65 -2.3 -1.85 -2.55 -1.75 -2.65 -1.7 -3.45 -1.6 -3.7 -1.6 -4.0 -1.9 -4.2 -2.6 -4.15 -3.2 Q-4.15 -3.55 -3.75 -3.55 L-3.75 -3.6 -3.6 -3.6 -3.6 -3.7 -3.4 -3.9 -2.8 -4.1 -2.55 -4.1 -3.25 -4.75 -4.0 -5.45 Q-4.35 -5.8 -4.2 -6.25 L-4.15 -6.35 -4.05 -6.45 -3.8 -6.55 -3.75 -6.7 -3.8 -6.8 Q-4.1 -7.05 -4.2 -7.45 L-4.75 -8.25 -5.2 -8.9 -5.25 -9.15 -5.15 -9.25 -5.05 -9.35 -4.65 -9.45 Q-4.85 -10.1 -4.6 -10.6 M-6.9 -4.5 L-6.55 -4.45 -6.35 -4.4 -6.25 -4.25 -6.15 -4.05 -6.05 -3.65 -6.05 -3.2 -6.1 -3.05 -6.2 -2.95 -6.9 -2.85 -7.5 -3.15 -7.55 -3.25 -7.6 -3.4 -7.6 -3.65 -7.55 -3.85 -7.5 -4.1 -7.4 -4.25 -7.3 -4.35 -7.1 -4.45 -6.95 -4.45 -6.9 -4.5 M-4.55 0.95 L-4.55 1.4 -4.75 1.85 -4.9 1.9 -5.3 1.55 -5.35 0.95 Q-5.3 0.6 -4.9 0.6 -4.65 0.65 -4.55 0.95" fill="#fe9a9a" fill-rule="evenodd" stroke="none"/>
  </g>
</svg>
