<?xml version="1.0" encoding="UTF-8" standalone="no"?>
<svg xmlns:xlink="http://www.w3.org/1999/xlink" height="29.75px" width="27.8px" xmlns="http://www.w3.org/2000/svg">
  <g transform="matrix(1.0, 0.0, 0.0, 1.0, 13.8, 14.4)">
    <path d="M7.0 -10.4 L8.9 -8.8 9.05 -8.65 7.9 -7.95 7.15 -8.0 7.0 -10.4 M9.4 -8.25 L9.9 -7.65 9.7 -7.7 9.05 -7.8 9.4 -8.25 M10.1 -7.4 Q12.55 -4.05 12.55 0.3 12.55 5.6 8.9 9.35 L8.55 9.75 Q8.0 6.75 8.0 3.7 8.0 -0.8 7.45 -5.2 L9.9 -7.3 Q9.05 -7.35 8.1 -6.75 L7.3 -6.2 7.25 -6.65 8.4 -7.4 8.7 -7.55 10.1 -7.4 M7.95 10.3 L7.0 11.05 6.9 8.9 6.9 7.6 7.7 8.0 7.7 8.8 Q7.7 9.65 7.95 10.3 M6.95 11.05 Q5.5 12.05 3.85 12.6 5.35 15.4 3.4 12.75 L1.35 13.1 Q-0.9 10.25 -2.5 6.95 L-3.6 4.5 -2.85 3.7 -2.0 2.8 -1.8 2.65 -1.45 2.25 1.6 3.9 Q3.4 4.8 4.9 6.1 L6.45 7.3 6.95 11.05 M0.6 13.15 L0.05 13.15 Q-4.85 13.15 -8.35 9.8 L-8.2 9.55 -7.75 9.15 Q-7.15 8.75 -7.55 8.85 L-6.8 7.85 -4.95 5.9 -1.45 13.05 Q-1.55 11.75 -2.15 10.55 L-3.3 7.7 -3.95 4.95 -3.0 7.0 -0.6 11.35 0.6 13.15 M-9.15 9.0 Q-12.45 5.35 -12.45 0.3 L-12.45 0.15 Q-11.65 0.0 -10.75 -0.7 L-8.25 -2.4 -7.45 -1.8 Q-6.9 1.1 -5.75 3.95 L-6.3 4.6 -9.15 9.0 M-8.65 -8.95 L-8.3 -9.3 -8.3 -8.25 -8.3 -8.2 -8.55 -8.7 -8.65 -8.95 M-7.6 -9.85 Q-4.35 -12.55 0.05 -12.55 3.15 -12.55 5.7 -11.2 L5.75 -10.9 6.1 -7.95 4.7 -7.85 Q1.85 -7.65 -0.85 -6.65 -3.5 -5.65 -5.9 -4.25 L-6.35 -4.0 -6.7 -5.6 -7.6 -9.85 M6.6 -10.7 L6.6 -10.25 6.55 -10.7 6.6 -10.7 M7.0 3.7 L7.45 5.9 7.7 7.75 6.95 6.95 6.95 6.25 7.0 3.7 M0.65 -0.65 L5.3 -4.2 0.55 -0.25 -1.6 1.7 -1.7 1.6 0.65 -0.65 M6.6 -4.55 L6.6 -4.15 6.6 -2.05 6.45 -3.9 6.5 -4.45 6.6 -4.55 M6.35 -4.35 L6.4 -3.5 6.35 2.85 6.4 6.45 Q4.4 4.6 1.85 3.45 L-1.1 1.95 3.45 -2.05 6.35 -4.35 M7.0 -4.85 L7.05 -4.9 7.35 -2.15 7.55 1.45 7.6 5.0 7.15 1.95 6.95 -1.55 7.0 -4.85 M6.45 -6.05 L6.45 -6.1 6.65 -6.25 6.65 -5.7 6.5 -5.6 6.45 -6.05 M2.9 -3.15 L3.3 -3.55 5.8 -5.65 6.25 -6.0 6.3 -5.45 5.5 -4.9 2.9 -3.15 M6.55 -7.1 L6.45 -7.05 6.5 -7.6 6.6 -7.6 6.65 -7.15 6.55 -7.1 M7.2 -7.5 L7.2 -7.6 7.35 -7.6 7.2 -7.5 M6.1 -7.6 L6.2 -6.85 Q2.3 -4.2 -1.2 -0.95 L-2.95 0.75 -2.8 0.95 -5.5 -0.8 -6.25 -3.6 -6.25 -3.65 -5.75 -3.95 -3.85 -4.95 Q0.9 -7.35 6.1 -7.6 M6.55 -7.95 L6.5 -7.95 6.5 -8.25 6.55 -7.95 M8.35 9.95 L8.25 10.0 8.2 9.8 8.2 9.5 8.2 9.45 8.3 9.8 8.35 9.95 M-5.2 5.3 L-5.15 5.45 -6.95 7.3 -5.2 5.3 M-5.65 4.2 L-5.5 4.6 -5.45 4.75 -8.25 8.1 -5.65 4.2 M-2.35 1.25 L-2.8 0.95 -0.05 -1.6 5.4 -5.9 -0.1 -1.05 -2.35 1.25 M-4.55 5.5 L-4.25 5.2 -3.55 7.95 -4.55 5.5 M-4.45 4.45 L-4.4 4.65 -4.75 5.0 -4.8 4.85 -4.45 4.45 M-4.9 3.25 L-4.8 3.15 -4.65 3.8 -5.05 4.3 -5.2 3.9 -5.25 3.7 -4.9 3.25 M-4.05 1.95 L-4.45 2.4 -5.15 0.4 -5.35 -0.25 -2.65 1.55 -3.6 2.6 -4.15 3.2 -4.35 2.65 -3.9 2.15 -4.05 1.95 M-2.15 2.05 L-2.0 1.9 -1.9 2.0 -2.1 2.2 -3.15 3.25 -3.7 3.85 -3.8 4.0 -3.9 3.85 -3.6 3.5 -3.2 3.15 -2.15 2.05 M-6.85 -0.85 L-7.0 -1.45 -6.6 -1.15 -5.95 -0.65 -4.9 2.9 -5.35 3.45 -6.85 -0.85 M-7.25 -2.6 L-7.3 -3.05 -6.75 -3.35 -6.25 -1.7 -6.1 -1.25 -7.1 -2.05 -7.25 -2.6 M-7.6 -2.4 L-7.9 -2.65 -7.65 -2.8 -7.6 -2.4 M-6.9 -3.7 L-7.35 -3.4 -7.65 -5.8 -6.9 -3.7 M-7.9 -8.6 L-7.9 -8.65 -7.75 -7.7 -7.6 -7.1 -7.5 -6.65 -7.3 -5.7 -7.65 -6.55 -7.85 -7.5 -7.85 -7.55 -7.9 -8.6" fill="url(#gradient0)" fill-rule="evenodd" stroke="none"/>
    <path d="M5.7 -11.2 L5.5 -12.55 5.6 -12.8 5.9 -12.35 Q5.85 -12.05 5.95 -11.75 L6.2 -11.25 6.4 -12.3 6.6 -13.45 7.0 -14.35 7.0 -10.4 7.15 -8.0 7.9 -7.95 9.05 -8.65 9.5 -8.9 9.4 -8.25 9.05 -7.8 9.7 -7.7 9.9 -7.65 12.45 -7.1 Q14.2 -6.65 13.95 -5.2 12.45 -6.9 10.1 -7.4 L8.7 -7.55 8.4 -7.4 7.25 -6.65 7.3 -6.2 8.1 -6.75 Q9.05 -7.35 9.9 -7.3 L7.45 -5.2 Q8.0 -0.8 8.0 3.7 8.0 6.75 8.55 9.75 L8.85 11.35 Q8.25 10.95 7.95 10.3 7.7 9.65 7.7 8.8 L7.7 8.0 6.9 7.6 6.9 8.9 7.0 11.05 7.0 11.35 6.95 11.05 6.45 7.3 4.9 6.1 Q3.4 4.8 1.6 3.9 L-1.45 2.25 -1.8 2.65 -2.0 2.8 -2.85 3.7 -3.6 4.5 -2.5 6.95 Q-0.9 10.25 1.35 13.1 L2.8 14.8 2.85 14.9 2.85 15.0 2.9 15.2 2.85 15.35 Q1.6 14.45 0.6 13.15 L-0.6 11.35 -3.0 7.0 -3.95 4.95 -3.3 7.7 -2.15 10.55 Q-1.55 11.75 -1.45 13.05 L-4.95 5.9 -6.8 7.85 -7.55 8.85 Q-7.15 8.75 -7.75 9.15 L-8.2 9.55 -8.35 9.8 -8.55 10.0 -8.6 10.2 Q-8.0 9.95 -8.35 10.35 L-8.85 10.8 -9.3 10.85 -9.4 10.8 -9.45 10.65 -9.6 10.75 -9.9 10.85 -10.1 10.8 -9.15 9.0 -6.3 4.6 -5.75 3.95 Q-6.9 1.1 -7.45 -1.8 L-8.25 -2.4 -10.75 -0.7 Q-11.65 0.0 -12.45 0.15 L-12.85 0.15 -12.45 -0.05 Q-12.4 -2.75 -11.35 -5.0 L-12.2 -5.75 Q-12.7 -6.25 -12.4 -6.65 L-12.1 -6.6 -11.7 -6.6 -11.3 -6.5 -11.25 -6.45 -11.3 -6.45 -11.7 -6.4 -11.9 -6.4 -12.05 -6.35 -11.15 -5.45 Q-10.25 -7.25 -8.8 -8.8 L-8.7 -8.9 -8.75 -9.35 -8.65 -8.95 -8.55 -8.7 -8.3 -8.2 -8.3 -8.25 -8.3 -9.3 -8.35 -10.3 -8.65 -12.45 Q-8.8 -13.6 -8.5 -14.4 L-7.6 -9.85 -6.7 -5.6 -6.35 -4.0 -5.9 -4.25 Q-3.5 -5.65 -0.85 -6.65 1.85 -7.65 4.7 -7.85 L6.1 -7.95 5.75 -10.9 5.7 -11.2 M6.55 -10.7 L6.6 -10.25 6.6 -10.7 6.6 -10.8 6.6 -11.4 6.55 -10.8 6.55 -10.7 M6.55 -7.95 L6.5 -8.25 6.5 -7.95 6.55 -7.95 M6.1 -7.6 Q0.9 -7.35 -3.85 -4.95 L-5.75 -3.95 -6.25 -3.65 -6.25 -3.6 -5.5 -0.8 -2.8 0.95 -2.95 0.75 -1.2 -0.95 Q2.3 -4.2 6.2 -6.85 L6.1 -7.6 M7.2 -7.5 L7.35 -7.6 7.2 -7.6 7.2 -7.5 M6.55 -7.1 L6.65 -7.15 6.6 -7.6 6.5 -7.6 6.45 -7.05 6.55 -7.1 M2.9 -3.15 L5.5 -4.9 6.3 -5.45 6.25 -6.0 5.8 -5.65 3.3 -3.55 2.9 -3.15 M6.45 -6.05 L6.5 -5.6 6.65 -5.7 6.65 -6.25 6.45 -6.1 6.45 -6.05 M7.0 -4.85 L6.95 -1.55 7.15 1.95 7.6 5.0 7.55 1.45 7.35 -2.15 7.05 -4.9 7.0 -4.85 M6.35 -4.35 L3.45 -2.05 -1.1 1.95 1.85 3.45 Q4.4 4.6 6.4 6.45 L6.35 2.85 6.4 -3.5 6.35 -4.35 M6.6 -4.55 L6.5 -4.45 6.45 -3.9 6.6 -2.05 6.6 -4.15 6.6 -4.55 M0.65 -0.65 L-1.7 1.6 -1.6 1.7 0.55 -0.25 5.3 -4.2 0.65 -0.65 M7.0 3.7 L6.95 6.25 6.95 6.95 7.7 7.75 7.45 5.9 7.0 3.7 M8.35 9.95 L8.3 9.8 8.2 9.45 8.2 9.5 8.2 9.8 8.25 10.0 8.25 10.1 8.4 10.35 8.4 10.1 8.35 9.95 M-7.9 -8.6 L-7.85 -7.55 -7.85 -7.5 -7.65 -6.55 -7.3 -5.7 -7.5 -6.65 -7.6 -7.1 -7.75 -7.7 -7.9 -8.65 -7.9 -8.6 M-6.9 -3.7 L-7.65 -5.8 -7.35 -3.4 -6.9 -3.7 M-7.6 -2.4 L-7.65 -2.8 -7.9 -2.65 -7.6 -2.4 M-7.25 -2.6 L-7.1 -2.05 -6.1 -1.25 -6.25 -1.7 -6.75 -3.35 -7.3 -3.05 -7.25 -2.6 M-6.85 -0.85 L-5.35 3.45 -4.9 2.9 -5.95 -0.65 -6.6 -1.15 -7.0 -1.45 -6.85 -0.85 M-2.15 2.05 L-3.2 3.15 -3.6 3.5 -3.9 3.85 -3.8 4.0 -3.7 3.85 -3.15 3.25 -2.1 2.2 -1.9 2.0 -2.0 1.9 -2.15 2.05 M-4.05 1.95 L-3.9 2.15 -4.35 2.65 -4.15 3.2 -3.6 2.6 -2.65 1.55 -5.35 -0.25 -5.15 0.4 -4.45 2.4 -4.05 1.95 M-4.9 3.25 L-5.25 3.7 -5.2 3.9 -5.05 4.3 -4.65 3.8 -4.8 3.15 -4.9 3.25 M-4.45 4.45 L-4.8 4.85 -4.75 5.0 -4.4 4.65 -4.45 4.45 M-4.55 5.5 L-3.55 7.95 -4.25 5.2 -4.55 5.5 M-2.35 1.25 L-0.1 -1.05 5.4 -5.9 -0.05 -1.6 -2.8 0.95 -2.35 1.25 M-5.65 4.2 L-8.25 8.1 -5.45 4.75 -5.5 4.6 -5.65 4.2 M-5.2 5.3 L-6.95 7.3 -5.15 5.45 -5.2 5.3" fill="#211823" fill-rule="evenodd" stroke="none"/>
    <path d="M-0.35 -1.65 Q1.2 -7.8 -4.95 -12.75 L2.7 -13.35 Q5.4 -5.5 -0.35 -1.65 M-13.8 6.1 Q-9.6 -0.15 -2.45 1.35 -8.35 3.55 -7.9 10.95 L-13.8 6.1 M9.15 11.4 Q1.65 9.9 1.55 1.05 5.95 6.65 14.0 4.25 L9.15 11.4" fill="#efa9f8" fill-rule="evenodd" stroke="none"/>
  </g>
  <defs>
    <radialGradient cx="0" cy="0" gradientTransform="matrix(0.0165, 0.0, 0.0, 0.0165, 0.05, 0.3)" gradientUnits="userSpaceOnUse" id="gradient0" r="819.2" spreadMethod="pad">
      <stop offset="0.20392156862745098" stop-color="#4f3157"/>
      <stop offset="1.0" stop-color="#1b181b"/>
    </radialGradient>
  </defs>
</svg>
