<?xml version="1.0" encoding="UTF-8" standalone="no"?>
<svg xmlns:xlink="http://www.w3.org/1999/xlink" height="3.1px" width="19.0px" xmlns="http://www.w3.org/2000/svg">
  <g transform="matrix(1.0, 0.0, 0.0, 1.0, 9.5, 1.55)">
    <path d="M9.35 -1.3 L9.45 -1.2 9.45 -1.1 9.4 -1.05 9.3 -0.9 9.3 -0.85 9.4 -0.45 Q9.6 -0.1 9.4 0.3 L9.25 0.35 9.3 0.5 Q8.7 1.05 7.85 1.25 L5.45 1.5 4.9 1.45 4.3 1.2 4.2 1.0 Q4.8 0.1 5.9 -0.55 L7.15 -1.05 7.3 -1.1 8.05 -1.25 8.1 -1.3 8.65 -1.45 9.15 -1.45 9.35 -1.3 M-4.0 1.05 Q-4.05 1.35 -4.45 1.4 L-4.7 1.4 -6.0 1.3 -7.0 1.15 -8.15 0.6 -8.8 0.1 -8.8 0.05 -8.8 -0.05 -8.75 -0.1 -9.5 -0.75 -9.5 -0.8 -9.5 -0.9 -9.5 -0.95 -9.45 -1.05 -9.4 -1.15 -9.4 -1.25 -9.35 -1.35 -9.25 -1.4 -9.2 -1.5 -9.05 -1.55 -7.1 -1.05 Q-6.2 -0.6 -5.25 -0.25 -4.25 0.1 -4.15 0.9 L-4.0 1.05" fill="#ffffff" fill-rule="evenodd" stroke="none"/>
  </g>
</svg>
