<?xml version="1.0" encoding="UTF-8" standalone="no"?>
<svg xmlns:xlink="http://www.w3.org/1999/xlink" height="27.15px" width="23.1px" xmlns="http://www.w3.org/2000/svg">
  <g transform="matrix(1.0, 0.0, 0.0, 1.0, 11.55, 13.55)">
    <path d="M7.05 -12.75 L6.75 -11.55 7.8 -11.45 7.95 -10.8 Q7.95 -10.15 6.45 -9.8 6.35 -10.1 6.35 -9.45 6.35 -8.85 7.65 -8.25 9.35 -7.5 9.85 -7.05 L9.85 -7.0 10.55 -6.5 Q11.55 -5.65 11.55 -4.95 11.55 -4.1 10.95 -3.05 L10.7 -2.65 Q10.6 -2.0 9.4 -1.15 L9.35 -1.1 9.85 -0.55 5.45 0.15 Q2.35 0.85 1.8 2.2 L2.35 4.1 Q3.8 7.05 4.85 7.05 L6.45 6.35 Q8.15 6.35 8.2 8.2 8.15 9.95 6.45 9.95 4.65 9.95 2.5 6.7 1.3 13.6 -2.05 13.6 -3.75 13.6 -4.5 12.6 -5.0 11.45 -5.45 11.05 -1.95 10.55 -1.1 9.1 -0.3 7.75 -0.3 5.85 -1.45 -3.8 -8.7 -3.8 -10.2 -3.8 -10.2 -1.8 L-10.3 -1.55 Q-11.55 -1.65 -11.55 -2.9 -11.55 -3.8 -10.8 -4.9 -9.9 -6.2 -8.55 -6.2 -2.35 -6.2 0.75 -0.3 L1.2 0.6 1.55 0.2 Q2.7 -0.95 4.4 -1.45 3.35 -2.4 2.85 -4.15 L3.05 -4.65 3.2 -4.65 Q3.3 -4.45 3.0 -4.35 L3.7 -4.4 Q4.2 -3.8 5.7 -3.15 L7.3 -2.55 9.05 -2.85 9.9 -3.55 10.2 -4.85 Q10.2 -5.85 9.0 -6.15 L8.7 -6.05 7.25 -6.3 Q5.7 -6.2 5.2 -5.45 4.8 -5.15 4.8 -5.8 4.8 -6.8 5.65 -7.25 L5.55 -7.35 Q4.45 -8.45 4.45 -9.45 L4.6 -9.95 3.7 -9.85 Q0.2 -9.85 0.3 -11.8 0.3 -12.65 0.8 -13.2 L1.15 -13.2 Q0.75 -12.3 0.9 -11.85 1.15 -11.1 3.7 -11.1 5.2 -11.1 6.8 -13.55 L7.05 -12.75" fill="url(#gradient0)" fill-rule="evenodd" stroke="none"/>
  </g>
  <defs>
    <radialGradient cx="0" cy="0" gradientTransform="matrix(0.0192, 0.0, 0.0, 0.0192, 0.0, 0.05)" gradientUnits="userSpaceOnUse" id="gradient0" r="819.2" spreadMethod="pad">
      <stop offset="0.0" stop-color="#ffffff"/>
      <stop offset="0.9137254901960784" stop-color="#76f141"/>
    </radialGradient>
  </defs>
</svg>
