<?xml version="1.0" encoding="UTF-8" standalone="no"?>
<svg xmlns:xlink="http://www.w3.org/1999/xlink" height="19.45px" width="18.6px" xmlns="http://www.w3.org/2000/svg">
  <g transform="matrix(1.0, 0.0, 0.0, 1.0, 0.0, 0.0)">
    <path d="M15.1 0.95 Q15.0 1.4 14.7 1.45 L13.95 0.95 Q13.95 0.5 14.45 0.2 L15.1 0.95 M16.65 3.75 L16.55 3.95 15.3 4.05 15.2 3.95 15.1 3.45 Q15.1 2.45 16.6 2.9 L16.7 3.3 16.65 3.75 M16.2 6.0 Q16.2 4.6 17.4 4.45 18.6 4.25 18.6 5.8 L18.45 6.75 Q18.2 7.2 17.45 7.2 L17.1 7.2 Q18.05 7.7 18.05 8.95 18.05 9.6 17.65 10.2 17.15 10.85 16.45 10.85 14.45 10.85 14.45 8.8 14.45 6.55 16.25 6.9 L16.4 6.95 16.2 6.65 16.2 6.0 M15.05 13.15 Q14.6 13.75 13.45 13.85 L13.35 14.95 Q13.1 15.65 12.55 16.15 L12.8 16.5 12.8 16.55 13.0 16.5 14.45 16.2 14.95 16.3 15.2 17.3 Q15.2 18.1 14.3 18.75 13.3 19.45 11.45 19.45 8.35 19.45 5.1 17.8 2.2 16.35 2.2 15.4 2.2 13.45 3.3 14.3 L5.45 16.05 5.45 14.8 Q5.8 14.45 5.95 14.45 L6.2 14.6 Q5.7 13.5 5.7 12.35 L5.7 12.3 5.7 12.2 5.75 11.8 Q6.05 9.05 9.6 9.1 12.05 9.15 12.95 10.25 L13.55 10.1 Q15.35 9.85 15.35 11.85 15.35 12.75 15.05 13.15 M17.45 14.85 Q17.35 15.1 16.95 15.1 L16.35 15.0 15.95 15.2 15.85 15.1 15.8 14.95 15.55 14.95 15.45 14.4 Q15.45 13.95 15.95 13.65 L17.35 13.55 17.45 14.1 17.45 14.85 M6.9 0.7 L6.3 0.7 6.2 0.05 6.9 0.2 7.05 0.55 6.9 0.7 M1.9 5.7 L1.8 5.65 1.7 5.3 Q1.7 4.9 2.15 4.6 L3.2 4.45 3.3 4.6 3.4 5.05 Q3.4 5.9 2.6 5.9 L1.9 5.7 M6.4 6.55 Q6.4 8.6 4.95 8.6 3.8 8.6 3.45 7.75 L3.3 6.8 Q3.3 4.9 4.85 5.1 6.4 5.35 6.4 6.55 M5.9 3.15 L5.2 3.3 4.85 3.15 Q4.7 3.0 4.7 2.6 L4.7 2.05 5.8 2.05 Q6.05 1.8 6.05 2.45 L5.9 3.15 M4.7 13.6 L4.55 13.85 4.1 13.95 Q3.35 13.95 2.95 13.25 L2.7 12.2 2.95 12.15 Q3.0 11.45 3.85 11.6 4.75 11.75 5.2 12.45 L4.65 12.85 4.7 13.3 4.7 13.6 M1.6 7.75 Q3.15 8.2 3.15 9.7 3.15 10.6 1.2 10.6 0.25 10.6 0.05 9.9 L0.05 9.35 Q0.05 7.3 1.6 7.75" fill="#ffffff" fill-rule="evenodd" stroke="none"/>
  </g>
</svg>
