<?xml version="1.0" encoding="UTF-8" standalone="no"?>
<svg xmlns:xlink="http://www.w3.org/1999/xlink" height="26.7px" width="31.7px" xmlns="http://www.w3.org/2000/svg">
  <g transform="matrix(1.0, 0.0, 0.0, 1.0, 14.1, 13.2)">
    <path d="M7.5 -9.45 L8.05 -9.0 3.0 -5.6 Q-0.65 -3.1 -0.65 -2.65 L-0.55 -2.3 -0.5 -2.25 1.5 -2.25 10.15 -4.3 Q8.7 -3.7 3.65 -2.3 0.0 -1.3 0.0 -0.75 L0.0 -0.5 Q5.25 -0.65 7.25 -0.4 L11.75 0.0 11.5 0.1 6.05 0.6 0.0 0.25 0.0 0.6 11.35 4.85 11.25 5.15 7.1 4.3 1.35 2.75 Q1.0 2.75 0.9 3.0 2.85 4.05 6.55 5.25 L10.4 6.8 10.15 7.2 Q7.65 6.4 3.3 4.65 L-1.75 2.85 Q-2.1 2.85 -2.1 3.0 L-2.05 3.25 Q4.7 7.7 7.6 10.0 5.1 9.1 2.5 7.4 L-1.75 4.6 -2.05 5.35 Q1.2 8.45 2.9 11.35 1.25 10.25 -1.0 8.1 L-4.4 5.0 -4.5 5.15 -2.8 8.55 Q-1.75 10.6 -1.4 11.85 L-3.35 9.4 Q-4.5 7.95 -4.75 7.1 L-4.8 7.25 -4.9 7.3 -4.9 7.65 Q-4.9 8.1 -3.15 10.3 L-0.75 12.8 Q-5.7 12.65 -9.2 9.15 -12.85 5.5 -12.85 0.3 -12.85 -4.9 -9.2 -8.55 -5.55 -12.2 -0.35 -12.2 3.35 -12.2 6.25 -10.35 L5.25 -10.2 Q2.65 -9.7 2.65 -8.65 2.65 -8.25 2.85 -8.35 L3.0 -8.5 6.65 -9.3 7.5 -9.45 M10.75 -5.55 L7.0 -4.55 Q3.15 -3.45 1.35 -3.25 L6.45 -6.75 8.7 -8.35 10.75 -5.55 M12.15 -0.45 L4.1 -1.3 4.5 -1.5 Q7.05 -2.15 11.25 -3.9 L11.45 -3.95 Q12.05 -2.3 12.15 -0.45 M12.15 0.65 Q12.1 2.55 11.55 4.25 L4.0 1.35 4.5 1.25 11.75 0.7 12.15 0.65 M10.9 5.85 L10.65 6.35 Q10.05 6.0 9.25 5.6 L10.9 5.85 M9.85 7.65 L8.5 9.15 8.2 9.5 6.4 8.1 1.9 5.0 9.85 7.65 M6.7 10.7 Q5.65 11.4 4.5 11.9 L0.6 7.0 Q4.4 9.45 6.7 10.7 M2.75 12.45 L-0.35 12.8 -0.5 12.8 -0.5 12.75 Q-1.3 10.1 -2.25 8.0 L1.25 11.25 2.75 12.45 M-11.65 -2.65 Q-11.65 -2.05 -11.55 -2.4 -10.75 -1.9 -10.1 -1.9 L-9.55 -2.05 -9.4 -2.5 Q-9.95 -3.0 -10.7 -3.15 -11.65 -3.4 -11.65 -2.65" fill="url(#gradient0)" fill-rule="evenodd" stroke="none"/>
    <path d="M-11.65 -2.65 Q-11.65 -3.4 -10.7 -3.15 -9.95 -3.0 -9.4 -2.5 L-9.55 -2.05 -10.1 -1.9 Q-10.75 -1.9 -11.55 -2.4 -11.65 -2.05 -11.65 -2.65" fill="url(#gradient1)" fill-rule="evenodd" stroke="none"/>
    <path d="M8.05 -9.0 L8.75 -9.5 7.5 -9.45 6.65 -9.3 3.0 -8.5 2.85 -8.35 Q2.65 -8.25 2.65 -8.65 2.65 -9.7 5.25 -10.2 L6.25 -10.35 10.5 -10.75 10.65 -10.65 10.75 -10.25 Q10.75 -9.95 8.7 -8.35 L6.45 -6.75 1.35 -3.25 Q3.15 -3.45 7.0 -4.55 L10.75 -5.55 14.5 -6.4 15.15 -5.75 Q15.15 -5.55 11.45 -3.95 L11.25 -3.9 Q7.05 -2.15 4.5 -1.5 L4.1 -1.3 12.15 -0.45 15.75 -0.05 15.85 0.0 12.15 0.65 11.75 0.7 4.5 1.25 4.0 1.35 11.55 4.25 17.5 6.6 17.5 6.75 Q17.8 7.0 17.15 7.0 L10.9 5.85 9.25 5.6 Q10.05 6.0 10.65 6.35 L12.55 7.3 Q14.25 8.25 14.75 9.0 L14.25 9.25 9.85 7.65 1.9 5.0 6.4 8.1 8.2 9.5 10.25 11.6 10.35 11.75 Q10.4 12.0 9.75 12.0 9.1 12.0 6.7 10.7 4.4 9.45 0.6 7.0 L4.5 11.9 5.5 13.1 5.5 13.25 Q5.65 13.5 5.05 13.5 4.15 13.5 2.75 12.45 L1.25 11.25 -2.25 8.0 Q-1.3 10.1 -0.5 12.75 L-0.5 12.8 -0.55 12.9 -0.75 12.8 -3.15 10.3 Q-4.9 8.1 -4.9 7.65 L-4.9 7.3 -4.8 7.25 -4.75 7.1 Q-4.5 7.95 -3.35 9.4 L-1.4 11.85 Q-1.75 10.6 -2.8 8.55 L-4.5 5.15 -4.4 5.0 -1.0 8.1 Q1.25 10.25 2.9 11.35 1.2 8.45 -2.05 5.35 L-1.75 4.6 2.5 7.4 Q5.1 9.1 7.6 10.0 4.7 7.7 -2.05 3.25 L-2.1 3.0 Q-2.1 2.85 -1.75 2.85 L3.3 4.65 Q7.65 6.4 10.15 7.2 L11.25 7.5 11.6 7.5 10.4 6.8 6.55 5.25 Q2.85 4.05 0.9 3.0 1.0 2.75 1.35 2.75 L7.1 4.3 11.25 5.15 12.25 5.25 12.4 5.25 11.35 4.85 0.0 0.6 0.0 0.25 6.05 0.6 11.5 0.1 11.75 0.0 7.25 -0.4 Q5.25 -0.65 0.0 -0.5 L0.0 -0.75 Q0.0 -1.3 3.65 -2.3 8.7 -3.7 10.15 -4.3 L1.5 -2.25 -0.5 -2.25 -0.55 -2.3 -0.65 -2.65 Q-0.65 -3.1 3.0 -5.6 L8.05 -9.0" fill="#472505" fill-rule="evenodd" stroke="none"/>
    <path d="M2.7 -12.55 L2.9 -11.85 3.25 -11.5 4.9 -11.2 6.55 -10.55 6.6 -10.45 6.65 -10.35 6.65 -10.25 6.65 -10.15 6.65 -10.1 7.2 -9.75 7.45 -9.55 7.95 -9.3 8.45 -9.05 9.0 -8.55 9.0 -8.2 8.85 -7.9 9.1 -7.5 9.7 -6.9 10.15 -6.1 10.55 -5.1 10.55 -4.4 Q10.2 -4.25 9.95 -4.7 L9.7 -5.45 9.7 -5.55 Q9.45 -6.35 8.6 -6.6 L6.45 -7.15 Q6.2 -7.15 6.0 -7.3 L5.8 -7.5 5.75 -7.55 5.65 -7.7 5.55 -7.75 5.45 -7.9 5.35 -7.95 5.2 -8.2 5.0 -8.35 5.0 -8.25 5.1 -8.15 5.25 -7.95 5.3 -7.9 5.35 -7.8 5.55 -7.65 5.8 -7.35 6.1 -7.05 6.2 -6.9 6.4 -6.65 6.45 -6.35 Q6.35 -6.15 6.1 -6.25 L5.8 -6.45 5.35 -6.85 5.0 -7.15 4.8 -7.35 4.4 -7.65 4.4 -7.55 Q4.45 -5.5 3.95 -3.5 3.5 -1.75 2.65 -0.2 L2.85 1.05 3.05 2.4 3.05 3.85 3.05 4.05 Q-0.25 4.65 -1.55 7.6 -2.45 9.6 -3.95 10.2 L-3.8 10.4 Q-4.05 10.85 -4.65 10.6 L-4.75 10.55 -4.7 11.0 -4.75 11.25 -5.4 10.85 -5.8 11.1 Q-6.6 11.05 -6.05 11.55 L-5.95 11.65 -5.85 11.75 -5.85 11.8 -5.85 11.95 -5.95 12.0 -6.0 12.1 -7.5 11.8 -8.05 11.75 Q-8.15 12.35 -8.8 12.0 L-9.9 11.15 -10.0 11.25 Q-10.85 11.75 -11.35 10.4 -11.8 9.45 -12.6 8.65 L-13.0 7.75 -12.9 7.7 -12.85 7.6 -12.55 7.55 -12.4 7.6 -13.1 5.8 -13.9 3.85 Q-14.25 2.9 -13.95 2.15 -13.5 2.15 -13.35 2.65 L-13.05 3.4 -12.8 4.0 -13.1 2.2 -13.3 0.25 -13.3 -1.7 -13.3 -1.8 -13.05 -2.15 -12.65 -4.35 Q-12.3 -6.3 -9.1 -10.0 -5.9 -13.7 -1.8 -13.15 L2.35 -12.65 2.55 -12.6 2.7 -12.55 M0.05 -3.75 L-0.2 -4.0 -0.75 -4.45 -2.05 -5.0 -2.25 -4.7 -2.1 -4.25 -1.95 -3.7 -1.35 -3.05 Q-1.1 -2.8 -0.85 -2.8 L-0.5 -2.6 -0.1 -2.45 -0.1 -2.25 0.0 -2.15 0.25 -2.15 0.4 -2.15 0.45 -2.4 0.9 -2.45 0.05 -3.75 M-12.2 4.0 L-12.2 4.15 -12.15 4.15 -12.2 4.0 M-11.35 8.8 Q-10.9 9.7 -10.35 9.35 -10.05 8.85 -10.85 8.15 L-11.55 6.85 Q-11.6 6.25 -11.95 6.0 -11.7 6.7 -11.7 7.35 L-11.35 8.8 M-10.2 7.7 L-9.5 8.2 -11.1 6.15 -10.2 7.7" fill="#000000" fill-rule="evenodd" stroke="none"/>
    <path d="M0.05 -3.75 L0.9 -2.45 0.45 -2.4 0.4 -2.15 0.25 -2.15 0.0 -2.15 -0.1 -2.25 -0.1 -2.45 -0.5 -2.6 -0.85 -2.8 Q-1.1 -2.8 -1.35 -3.05 L-1.95 -3.7 -2.1 -4.25 -2.25 -4.7 -2.05 -5.0 -0.75 -4.45 -0.2 -4.0 0.05 -3.75" fill="#ffffff" fill-rule="evenodd" stroke="none"/>
  </g>
  <defs>
    <radialGradient cx="0" cy="0" gradientTransform="matrix(0.0289, 0.0, 0.0, 0.0289, 7.0, 8.2)" gradientUnits="userSpaceOnUse" id="gradient0" r="819.2" spreadMethod="pad">
      <stop offset="0.0" stop-color="#ffe600"/>
      <stop offset="0.42745098039215684" stop-color="#c16913"/>
      <stop offset="0.8509803921568627" stop-color="#000000"/>
    </radialGradient>
    <radialGradient cx="0" cy="0" gradientTransform="matrix(0.0018, 0.0, 0.0, 0.0018, -10.5, -2.55)" gradientUnits="userSpaceOnUse" id="gradient1" r="819.2" spreadMethod="pad">
      <stop offset="0.0" stop-color="#ffe600"/>
      <stop offset="0.42745098039215684" stop-color="#c16913"/>
      <stop offset="0.8509803921568627" stop-color="#000000"/>
    </radialGradient>
  </defs>
</svg>
