<?xml version="1.0" encoding="UTF-8" standalone="no"?>
<svg xmlns:xlink="http://www.w3.org/1999/xlink" height="24.4px" width="24.6px" xmlns="http://www.w3.org/2000/svg">
  <g transform="matrix(1.0, 0.0, 0.0, 1.0, 0.0, 0.0)">
    <path d="M13.5 2.75 L14.15 5.3 Q14.15 5.85 13.6 6.6 13.0 7.5 12.25 7.55 L13.65 9.75 Q14.0 9.35 14.65 9.05 17.3 7.95 18.0 7.3 L20.35 4.9 Q22.1 3.45 23.5 4.55 19.9 6.05 19.0 8.75 18.55 9.9 17.4 10.9 L15.95 11.9 17.0 12.65 18.8 14.5 Q20.05 15.65 20.1 16.4 L21.25 16.3 Q23.25 16.3 23.25 17.55 L23.05 18.05 Q22.75 18.45 22.5 18.45 18.95 18.45 18.85 16.55 L14.55 14.65 14.35 14.75 Q12.55 15.85 12.0 16.55 14.4 17.7 14.3 18.4 L13.7 19.85 13.6 19.55 13.4 19.05 Q13.4 18.4 12.2 17.75 11.0 17.15 11.0 16.25 11.0 15.05 12.0 13.8 L11.8 13.85 Q9.75 14.2 9.75 15.3 9.75 16.8 8.4 16.8 7.65 16.8 6.9 16.2 L5.65 15.55 3.65 16.8 Q1.6 18.05 0.9 18.05 L0.2 17.95 0.05 17.9 0.0 17.45 Q0.0 17.15 0.65 17.15 L2.75 16.9 Q3.3 14.95 8.5 12.2 L8.65 12.15 Q7.5 11.5 5.9 10.2 2.65 7.65 1.75 5.9 2.1 5.75 4.3 6.55 6.7 7.4 7.75 8.15 L11.2 10.6 11.35 9.9 11.05 8.75 10.75 7.65 Q10.75 7.0 11.75 5.65 12.65 4.45 12.5 3.8 12.3 3.05 12.6 1.7 12.85 0.4 13.25 0.0 L13.5 2.75 M22.5 12.65 Q22.5 11.6 23.55 11.8 24.6 12.0 24.6 12.7 24.6 13.7 23.5 13.7 22.8 13.7 22.6 13.2 L22.5 12.65 M13.75 20.15 L13.95 20.6 14.25 21.45 13.55 22.85 12.5 24.4 Q11.95 23.85 11.95 23.6 11.95 22.75 13.75 21.3 L13.75 20.15 M15.75 21.45 Q15.75 20.55 16.55 20.6 17.35 20.65 17.4 21.65 L17.2 22.0 16.6 22.2 15.9 22.05 Q15.75 22.05 15.75 21.45 M7.95 6.15 L7.6 6.3 7.25 5.9 Q7.25 5.5 7.95 5.65 L8.0 6.05 7.95 6.15 M7.1 18.4 L7.35 18.4 7.7 18.95 7.1 19.3 Q6.95 19.7 6.95 19.05 L7.05 18.55 7.1 18.4" fill="#ffffff" fill-rule="evenodd" stroke="none"/>
  </g>
</svg>
