<?xml version="1.0" encoding="UTF-8" standalone="no"?>
<svg xmlns:xlink="http://www.w3.org/1999/xlink" height="28.1px" width="25.6px" xmlns="http://www.w3.org/2000/svg">
  <g transform="matrix(1.0, 0.0, 0.0, 1.0, 0.0, 0.0)">
    <path d="M25.3 7.7 L25.55 8.3 16.0 15.9 25.6 26.4 25.55 27.05 24.85 27.35 Q24.4 25.6 21.75 22.95 L17.0 18.65 16.85 18.65 19.4 22.15 Q21.15 24.5 21.5 25.9 L21.3 26.35 20.6 26.6 Q17.75 26.6 12.05 19.1 3.05 26.35 3.05 27.5 3.05 27.95 3.35 27.95 L3.65 27.95 2.9 28.1 2.45 28.05 Q2.3 27.9 2.3 27.4 2.3 27.0 3.75 25.4 L5.3 23.75 5.45 23.5 Q5.0 23.65 4.1 24.55 L2.9 25.6 1.85 24.95 Q1.85 23.7 9.85 16.1 L0.0 2.0 0.2 1.8 2.5 4.2 4.7 6.45 2.85 3.75 Q1.2 1.2 1.2 0.4 1.2 -0.05 1.3 0.0 L1.4 0.05 13.25 12.9 Q19.9 6.7 21.95 5.4 L22.1 5.6 14.55 13.45 14.15 13.9 14.85 14.65 15.5 14.15 Q20.65 10.15 24.5 7.7 L25.3 7.7 M13.6 15.65 L13.05 14.95 12.65 15.35 13.2 16.0 13.6 15.65 M12.7 18.55 Q15.2 21.5 17.75 23.6 L13.25 18.1 12.7 18.55 M13.7 17.75 L15.4 19.45 13.8 17.65 13.7 17.75 M16.85 19.9 L14.65 17.0 14.35 17.25 16.7 19.9 16.85 19.9 M19.3 24.95 Q20.15 25.65 20.45 25.45 19.8 23.6 17.3 20.5 L17.3 20.6 18.7 22.75 Q19.65 24.25 19.3 24.95 M17.45 22.1 L15.8 20.05 16.45 21.1 17.45 22.1 M10.5 11.25 L6.25 5.6 Q3.5 2.15 1.8 0.8 2.45 2.55 5.55 5.9 L10.4 11.3 10.5 11.25 M10.6 13.0 L11.75 14.3 12.2 13.9 Q8.6 9.5 5.1 6.05 6.95 8.8 10.6 13.0 M10.7 17.25 L7.1 20.8 11.05 17.7 10.95 17.6 10.7 17.25 M11.2 16.75 L11.6 17.25 12.2 16.8 11.75 16.2 11.2 16.75 M10.35 15.6 L10.9 15.1 10.6 14.7 Q6.3 9.05 3.8 6.45 L10.1 15.25 10.35 15.6" fill="#ffffff" fill-rule="evenodd" stroke="none"/>
  </g>
</svg>
