<?xml version="1.0" encoding="UTF-8" standalone="no"?>
<svg xmlns:xlink="http://www.w3.org/1999/xlink" height="19.8px" width="23.7px" xmlns="http://www.w3.org/2000/svg">
  <g transform="matrix(1.0, 0.0, 0.0, 1.0, 0.0, 0.0)">
    <path d="M14.7 3.1 L15.2 6.05 15.2 8.9 14.8 9.2 Q14.1 8.5 13.9 6.8 L13.8 3.8 13.85 3.3 12.55 3.5 12.05 5.1 11.4 6.5 11.65 7.3 11.9 12.65 Q12.65 12.55 12.8 13.55 L11.9 14.1 11.8 16.4 11.8 19.45 11.8 19.7 11.3 19.8 Q10.5 19.8 9.6 6.45 L8.3 6.9 7.75 6.4 7.75 5.85 7.85 5.0 Q8.2 4.55 9.45 4.75 L9.4 4.05 9.4 3.75 6.0 3.85 6.0 4.3 5.85 7.9 Q6.15 7.9 6.4 8.2 L6.65 8.9 6.3 9.6 5.8 10.05 5.75 10.0 Q5.75 11.45 5.9 12.55 L5.75 12.7 5.2 12.8 Q4.55 12.8 4.45 12.3 L4.4 11.55 3.8 11.9 Q3.25 11.35 3.25 10.7 L3.5 5.05 Q3.5 4.4 3.65 3.9 L1.95 3.9 1.85 3.9 2.05 4.55 2.3 5.3 2.4 5.4 2.75 4.15 3.05 4.15 3.3 9.2 2.8 9.45 Q2.45 8.95 1.45 5.85 L0.8 3.7 0.75 3.7 0.0 3.4 0.6 2.95 0.4 1.9 Q0.4 1.2 1.55 1.2 L1.5 0.8 2.4 0.65 6.5 0.8 17.3 0.1 Q23.0 -0.3 23.7 1.05 23.1 1.95 21.8 2.25 L21.8 2.65 21.55 9.5 21.55 14.05 21.05 14.3 Q20.05 12.05 19.95 8.6 L20.0 7.0 19.9 6.95 19.8 6.5 Q19.8 6.15 20.05 6.05 L20.05 2.65 20.1 2.4 20.0 2.4 18.7 2.25 19.3 7.35 20.05 13.3 19.65 13.7 19.05 11.4 18.65 11.35 18.4 11.2 18.25 11.15 18.2 10.7 18.3 10.3 18.85 10.3 18.45 8.25 17.8 4.3 17.05 4.8 16.3 4.05 Q16.3 3.5 16.6 3.05 16.95 2.55 17.6 2.75 L17.55 2.15 16.05 2.05 Q16.35 2.5 15.05 3.0 L14.7 3.1 M16.05 12.1 L15.95 12.55 15.3 12.8 Q15.05 12.55 15.05 12.05 15.45 11.8 15.9 11.8 L16.0 11.75 16.05 12.1 M10.45 3.7 L10.75 4.55 10.9 3.85 11.0 3.65 10.45 3.7" fill="#ffffff" fill-rule="evenodd" stroke="none"/>
  </g>
</svg>
