<?xml version="1.0" encoding="UTF-8" standalone="no"?>
<svg xmlns:xlink="http://www.w3.org/1999/xlink" height="20.2px" width="20.25px" xmlns="http://www.w3.org/2000/svg">
  <g transform="matrix(1.0, 0.0, 0.0, 1.0, 0.0, 0.0)">
    <path d="M9.5 0.3 L8.45 1.05 8.7 2.1 8.95 3.15 Q8.95 4.65 7.5 4.65 L5.75 4.25 5.0 3.8 Q3.65 3.8 3.15 4.9 L2.95 6.05 3.25 9.8 3.9 11.05 4.3 11.85 4.45 11.55 Q5.15 10.45 5.5 10.45 6.7 10.45 8.05 12.05 L9.1 13.3 9.1 13.15 9.5 13.15 10.05 13.6 10.9 13.25 12.05 12.45 12.0 11.95 12.2 11.75 Q11.25 9.75 11.25 9.05 11.25 7.9 12.75 7.45 14.25 7.0 14.25 8.8 L14.2 9.1 14.0 9.05 13.5 8.7 13.1 8.3 12.5 8.4 Q12.15 8.5 12.15 8.85 12.15 9.35 12.65 10.5 L13.05 11.7 Q13.6 11.75 14.05 12.2 14.6 12.7 15.45 12.7 L16.5 12.55 Q16.5 11.4 18.4 10.6 20.25 9.85 20.25 11.35 L20.15 11.95 19.75 12.2 19.55 11.8 Q19.45 11.55 19.1 11.55 17.5 11.55 17.4 12.65 17.25 13.7 15.5 13.7 14.3 13.7 13.45 13.05 L12.8 12.55 12.1 13.25 Q11.05 14.3 10.5 14.3 L10.35 14.3 10.35 14.45 9.35 15.95 11.4 16.95 Q13.0 17.8 13.0 18.5 13.0 19.5 11.75 20.2 L11.35 20.0 11.25 19.5 11.45 18.95 11.85 18.55 9.75 17.4 Q8.7 16.85 8.7 16.15 8.7 14.95 9.5 14.2 8.45 13.9 7.6 13.05 6.8 12.2 6.5 11.15 5.4 11.45 4.95 12.15 L4.5 12.8 Q4.5 13.65 3.5 15.2 2.25 17.15 0.65 17.15 L0.1 17.05 Q0.0 17.35 0.0 16.7 L1.8 15.1 Q3.6 13.6 3.6 12.75 3.6 12.2 3.0 11.25 2.35 10.35 2.35 9.7 2.35 9.4 2.65 9.0 L2.95 8.3 2.6 7.2 2.2 6.05 Q2.2 5.2 2.7 4.3 3.4 3.0 4.75 3.0 L6.25 3.3 7.1 3.9 7.85 3.8 8.1 3.3 7.75 2.15 7.35 1.0 Q7.35 0.5 7.8 0.25 L9.35 0.05 9.5 0.3" fill="#ffffff" fill-rule="evenodd" stroke="none"/>
  </g>
</svg>
