<?xml version="1.0" encoding="UTF-8" standalone="no"?>
<svg xmlns:xlink="http://www.w3.org/1999/xlink" height="26.85px" width="28.5px" xmlns="http://www.w3.org/2000/svg">
  <g transform="matrix(1.0, 0.0, 0.0, 1.0, 14.1, 13.2)">
    <path d="M10.25 -6.35 L7.35 -7.25 5.0 -7.35 7.85 -6.45 0.7 -5.7 Q0.05 -5.6 0.05 -5.25 L0.1 -4.95 0.15 -5.0 5.4 -3.0 0.7 -2.6 Q-0.45 -2.45 -0.45 -1.85 -0.45 -1.45 0.8 -1.15 L2.7 -0.65 0.15 -0.4 -0.15 0.0 4.85 1.6 8.1 2.45 -1.8 1.35 Q-3.0 1.35 -3.35 1.8 L-3.85 1.55 Q-4.25 1.25 -4.4 1.25 -4.8 1.25 -4.65 1.35 L-4.65 1.55 -4.2 2.1 -0.75 6.85 3.45 12.3 2.75 12.45 -0.7 8.95 Q-4.1 5.25 -4.1 4.8 L-3.75 4.35 Q-4.05 4.35 -4.35 4.65 L-3.9 5.55 -6.05 3.45 -6.3 3.8 -2.5 8.65 Q-0.65 11.1 1.15 12.75 L-0.35 12.8 Q-5.55 12.8 -9.2 9.15 -12.85 5.5 -12.85 0.3 -12.85 -4.9 -9.2 -8.55 -5.55 -12.2 -0.35 -12.2 4.85 -12.2 8.5 -8.55 L10.25 -6.35 M12.15 -0.2 L10.6 -0.5 4.7 -0.9 2.75 -1.35 0.9 -1.85 6.85 -2.15 10.0 -1.9 11.9 -1.65 12.05 -1.65 12.15 -0.2 M11.9 -2.3 L10.95 -2.45 Q7.3 -2.9 1.85 -5.1 L10.35 -6.25 Q11.45 -4.45 11.9 -2.3 M11.9 3.05 L7.8 1.8 2.1 0.0 4.9 -0.15 6.95 0.15 10.95 0.45 12.15 0.4 11.9 3.05 M9.85 7.6 L5.25 5.75 Q0.0 3.6 -2.6 1.95 L-0.65 1.95 7.65 3.3 11.65 3.9 Q11.1 5.9 9.85 7.6 M3.95 12.1 L1.2 8.3 -2.1 4.35 -2.0 4.35 3.1 8.8 6.05 11.1 3.95 12.1 M6.75 10.65 L2.4 7.05 -3.05 2.55 Q0.8 4.75 9.45 8.15 L8.5 9.15 6.75 10.65 M1.55 12.7 L0.95 11.9 1.05 11.9 1.8 12.65 1.55 12.7" fill="url(#gradient0)" fill-rule="evenodd" stroke="none"/>
    <path d="M3.45 12.3 L-0.75 6.85 -4.2 2.1 -4.65 1.55 -4.65 1.35 Q-4.8 1.25 -4.4 1.25 -4.25 1.25 -3.85 1.55 L-3.35 1.8 Q-3.0 1.35 -1.8 1.35 L8.1 2.45 4.85 1.6 -0.15 0.0 0.15 -0.4 2.7 -0.65 0.8 -1.15 Q-0.45 -1.45 -0.45 -1.85 -0.45 -2.45 0.7 -2.6 L5.4 -3.0 0.15 -5.0 0.1 -4.95 0.05 -5.25 Q0.05 -5.6 0.7 -5.7 L7.85 -6.45 5.0 -7.35 7.35 -7.25 10.25 -6.35 10.5 -6.3 10.35 -6.25 1.85 -5.1 Q7.3 -2.9 10.95 -2.45 L11.9 -2.3 13.1 -2.1 12.95 -1.7 12.05 -1.65 11.9 -1.65 10.0 -1.9 6.85 -2.15 0.9 -1.85 2.75 -1.35 4.7 -0.9 10.6 -0.5 12.15 -0.2 12.45 0.05 12.35 0.35 12.15 0.4 10.95 0.45 6.95 0.15 4.9 -0.15 2.1 0.0 7.8 1.8 11.9 3.05 14.4 3.9 14.05 4.2 11.65 3.9 7.65 3.3 -0.65 1.95 -2.6 1.95 Q0.0 3.6 5.25 5.75 L9.85 7.6 13.1 9.05 12.45 9.3 9.45 8.15 Q0.8 4.75 -3.05 2.55 L2.4 7.05 6.75 10.65 7.8 11.55 7.8 11.7 Q7.95 11.85 7.55 11.85 7.1 11.85 6.05 11.1 L3.1 8.8 -2.0 4.35 -2.1 4.35 1.2 8.3 3.95 12.1 4.4 13.25 Q4.4 13.65 3.85 13.65 2.95 13.65 1.8 12.65 L1.05 11.9 0.95 11.9 1.55 12.7 1.8 12.95 1.65 13.2 1.15 12.75 Q-0.65 11.1 -2.5 8.65 L-6.3 3.8 -6.05 3.45 -3.9 5.55 -4.35 4.65 Q-4.05 4.35 -3.75 4.35 L-4.1 4.8 Q-4.1 5.25 -0.7 8.95 L2.75 12.45 3.75 13.25 4.05 13.2 3.45 12.3" fill="#080b11" fill-rule="evenodd" stroke="none"/>
    <path d="M2.7 -12.55 L2.9 -11.85 3.25 -11.5 4.9 -11.2 6.55 -10.55 6.6 -10.45 6.65 -10.35 6.65 -10.25 6.65 -10.15 6.65 -10.1 7.2 -9.75 7.45 -9.55 7.95 -9.3 8.45 -9.05 9.0 -8.55 9.0 -8.2 8.85 -7.9 9.1 -7.5 9.7 -6.9 10.15 -6.1 10.55 -5.1 10.55 -4.4 Q10.2 -4.25 9.95 -4.7 L9.7 -5.45 9.7 -5.55 Q9.45 -6.35 8.6 -6.6 L6.45 -7.15 Q6.2 -7.15 6.0 -7.3 L5.8 -7.5 5.75 -7.55 5.65 -7.7 5.55 -7.75 5.45 -7.9 5.35 -7.95 5.2 -8.2 5.0 -8.35 5.0 -8.25 5.1 -8.15 5.25 -7.95 5.3 -7.9 5.35 -7.8 5.55 -7.65 5.8 -7.35 6.1 -7.05 6.2 -6.9 6.4 -6.65 6.45 -6.35 Q6.35 -6.15 6.1 -6.25 L5.8 -6.45 5.35 -6.85 5.0 -7.15 4.8 -7.35 4.4 -7.65 4.4 -7.55 Q4.45 -5.5 3.95 -3.5 3.5 -1.75 2.65 -0.2 L2.85 1.05 3.05 2.4 3.05 3.85 3.05 4.05 Q-0.25 4.65 -1.55 7.6 -2.45 9.6 -3.95 10.2 L-3.8 10.4 Q-4.05 10.85 -4.65 10.6 L-4.75 10.55 -4.7 11.0 -4.75 11.25 -5.4 10.85 -5.8 11.1 Q-6.6 11.05 -6.05 11.55 L-5.95 11.65 -5.85 11.75 -5.85 11.8 -5.85 11.95 -5.95 12.0 -6.0 12.1 -7.5 11.8 -8.05 11.75 Q-8.15 12.35 -8.8 12.0 L-9.9 11.15 -10.0 11.25 Q-10.85 11.75 -11.35 10.4 -11.8 9.45 -12.6 8.65 L-13.0 7.75 -12.9 7.7 -12.85 7.6 -12.55 7.55 -12.4 7.6 -13.1 5.8 -13.9 3.85 Q-14.25 2.9 -13.95 2.15 -13.5 2.15 -13.35 2.65 L-13.05 3.4 -12.8 4.0 -13.1 2.2 -13.3 0.25 -13.3 -1.7 -13.3 -1.8 -13.05 -2.15 -12.65 -4.35 Q-12.3 -6.3 -9.1 -10.0 -5.9 -13.7 -1.8 -13.15 L2.35 -12.65 2.55 -12.6 2.7 -12.55 M0.05 -3.75 L-0.2 -4.0 -0.75 -4.45 -2.05 -5.0 -2.25 -4.7 -2.1 -4.25 -1.95 -3.7 -1.35 -3.05 Q-1.1 -2.8 -0.85 -2.8 L-0.5 -2.6 -0.1 -2.45 -0.1 -2.25 0.0 -2.15 0.25 -2.15 0.4 -2.15 0.45 -2.4 0.9 -2.45 0.05 -3.75 M-12.2 4.0 L-12.2 4.15 -12.15 4.15 -12.2 4.0 M-11.35 8.8 Q-10.9 9.7 -10.35 9.35 -10.05 8.85 -10.85 8.15 L-11.55 6.85 Q-11.6 6.25 -11.95 6.0 -11.7 6.7 -11.7 7.35 L-11.35 8.8 M-10.2 7.7 L-9.5 8.2 -11.1 6.15 -10.2 7.7" fill="#000000" fill-rule="evenodd" stroke="none"/>
    <path d="M0.05 -3.75 L0.9 -2.45 0.45 -2.4 0.4 -2.15 0.25 -2.15 0.0 -2.15 -0.1 -2.25 -0.1 -2.45 -0.5 -2.6 -0.85 -2.8 Q-1.1 -2.8 -1.35 -3.05 L-1.95 -3.7 -2.1 -4.25 -2.25 -4.7 -2.05 -5.0 -0.75 -4.45 -0.2 -4.0 0.05 -3.75" fill="#ffffff" fill-rule="evenodd" stroke="none"/>
  </g>
  <defs>
    <radialGradient cx="0" cy="0" gradientTransform="matrix(0.0252, 0.0, 0.0, 0.0252, 3.7, 7.1)" gradientUnits="userSpaceOnUse" id="gradient0" r="819.2" spreadMethod="pad">
      <stop offset="0.0" stop-color="#418a9c"/>
      <stop offset="0.41568627450980394" stop-color="#1a2233"/>
      <stop offset="0.8196078431372549" stop-color="#000000"/>
    </radialGradient>
  </defs>
</svg>
