<?xml version="1.0" encoding="UTF-8" standalone="no"?>
<svg xmlns:xlink="http://www.w3.org/1999/xlink" height="50.9px" width="43.5px" xmlns="http://www.w3.org/2000/svg">
  <g transform="matrix(1.0, 0.0, 0.0, 1.0, 21.85, 19.1)">
    <path d="M0.35 13.8 L-0.9 15.0 0.35 13.8" fill="#cccccc" fill-rule="evenodd" stroke="none"/>
    <path d="M-0.8 0.45 L-4.65 -5.4 -16.9 -1.3 -4.65 -5.4 -0.8 0.45 M-16.9 -1.3 L-21.25 -5.75 -21.35 -6.15 Q-14.3 -17.05 1.55 -18.6 L9.4 1.6 5.35 8.7 0.75 13.4 0.35 13.8 -0.9 15.0 -3.45 12.4 -16.9 -1.3 M-0.7 0.85 L-3.45 12.4 -0.7 0.85" fill="url(#gradient0)" fill-rule="evenodd" stroke="none"/>
    <path d="M17.8 15.35 Q20.1 17.35 20.85 20.7 21.7 24.35 20.15 27.4 18.65 30.5 15.7 31.15 12.75 31.85 10.0 29.75 7.3 27.7 6.45 24.0 L6.3 23.3 6.2 22.55 6.2 20.7 Q6.3 18.9 7.1 17.25 8.65 14.2 11.6 13.5 14.3 12.9 16.8 14.6 L17.8 15.35" fill="url(#gradient1)" fill-rule="evenodd" stroke="none"/>
    <path d="M9.4 1.6 L16.8 14.6 Q14.3 12.9 11.6 13.5 8.65 14.2 7.1 17.25 6.3 18.9 6.2 20.7 L0.75 13.4 5.35 8.7 9.4 1.6" fill="url(#gradient2)" fill-rule="evenodd" stroke="none"/>
    <path d="M-16.9 -1.3 L-4.65 -5.4 -0.8 0.45 M-16.9 -1.3 L-21.25 -5.75 M-21.35 -6.15 Q-14.3 -17.05 1.55 -18.6 L9.4 1.6 16.8 14.6 17.25 14.9 17.8 15.35 Q20.1 17.35 20.85 20.7 21.7 24.35 20.15 27.4 18.65 30.5 15.7 31.15 12.75 31.85 10.0 29.75 7.3 27.7 6.45 24.0 L6.3 23.3 6.2 22.55 6.2 20.7 0.75 13.4 0.35 13.8 -0.9 15.0 -3.45 12.4 -16.9 -1.3 -17.25 -1.2 M-3.45 12.4 L-0.7 0.85 M9.4 1.6 L5.35 8.7 0.75 13.4 M6.2 20.7 Q6.3 18.9 7.1 17.25 8.65 14.2 11.6 13.5 14.3 12.9 16.8 14.6 L17.8 15.35" fill="none" stroke="#000000" stroke-linecap="round" stroke-linejoin="round" stroke-width="1.0"/>
  </g>
  <defs>
    <radialGradient cx="0" cy="0" gradientTransform="matrix(0.0372, 0.0, 0.0, 0.0372, -8.85, -14.4)" gradientUnits="userSpaceOnUse" id="gradient0" r="819.2" spreadMethod="pad">
      <stop offset="0.0" stop-color="#ffffff"/>
      <stop offset="0.43529411764705883" stop-color="#7c9aad"/>
      <stop offset="0.44313725490196076" stop-color="#58607c"/>
      <stop offset="0.6470588235294118" stop-color="#7e8aa3"/>
      <stop offset="1.0" stop-color="#c2cde7"/>
    </radialGradient>
    <radialGradient cx="0" cy="0" gradientTransform="matrix(0.0192, 0.0, 0.0, 0.0192, 14.6, 15.6)" gradientUnits="userSpaceOnUse" id="gradient1" r="819.2" spreadMethod="pad">
      <stop offset="0.0" stop-color="#ffffff"/>
      <stop offset="0.42745098039215684" stop-color="#836549"/>
      <stop offset="0.44313725490196076" stop-color="#392d24"/>
      <stop offset="0.6980392156862745" stop-color="#7a615a"/>
      <stop offset="1.0" stop-color="#a27a77"/>
    </radialGradient>
    <radialGradient cx="0" cy="0" gradientTransform="matrix(0.019, 0.0, 0.0, 0.019, 10.2, 5.65)" gradientUnits="userSpaceOnUse" id="gradient2" r="819.2" spreadMethod="pad">
      <stop offset="0.0" stop-color="#313546"/>
      <stop offset="1.0" stop-color="#111111"/>
    </radialGradient>
  </defs>
</svg>
