<?xml version="1.0" encoding="UTF-8" standalone="no"?>
<svg xmlns:xlink="http://www.w3.org/1999/xlink" height="57.05px" width="25.65px" xmlns="http://www.w3.org/2000/svg">
  <g transform="matrix(1.0, 0.0, 0.0, 1.0, 13.1, 43.45)">
    <path d="M-4.65 -11.7 L-4.8 -11.9 -2.8 -22.35 Q-2.15 -30.65 -7.4 -43.45 12.1 -18.45 12.55 12.5 L7.8 12.05 Q2.85 0.35 -4.65 -11.7" fill="url(#gradient0)" fill-rule="evenodd" stroke="none"/>
    <path d="M-4.65 -11.7 L-4.8 -11.9 -2.8 -22.35 Q-2.15 -30.65 -7.4 -43.45 12.1 -18.45 12.55 12.5 L7.8 12.05 Q2.85 0.35 -4.65 -11.7 M11.35 13.1 L11.35 13.6" fill="none" stroke="#000000" stroke-linecap="round" stroke-linejoin="round" stroke-width="0.05"/>
    <path d="M-4.65 -11.7 L-7.7 -6.35 -6.95 5.5 M-7.7 -6.35 L-13.1 -10.9" fill="none" stroke="#ff3300" stroke-linecap="round" stroke-linejoin="round" stroke-width="0.05"/>
  </g>
  <defs>
    <radialGradient cx="0" cy="0" gradientTransform="matrix(0.0372, 0.0, 0.0, 0.0372, 5.6, -16.8)" gradientUnits="userSpaceOnUse" id="gradient0" r="819.2" spreadMethod="pad">
      <stop offset="0.0" stop-color="#806a3c"/>
      <stop offset="0.2549019607843137" stop-color="#39361c"/>
      <stop offset="0.6235294117647059" stop-color="#17130b"/>
      <stop offset="1.0" stop-color="#000000"/>
    </radialGradient>
  </defs>
</svg>
