<?xml version="1.0" encoding="UTF-8" standalone="no"?>
<svg xmlns:xlink="http://www.w3.org/1999/xlink" height="21.9px" width="74.65px" xmlns="http://www.w3.org/2000/svg">
  <g transform="matrix(1.0, 0.0, 0.0, 1.0, 37.3, 10.95)">
    <path d="M-8.8 -10.55 L-7.45 -5.7 1.7 -5.45 7.35 -8.2 8.4 -10.05 8.45 -10.15 12.05 -7.8 11.7 -5.05 15.55 -3.95 16.05 -1.45 25.8 -1.3 27.8 2.2 34.45 2.45 37.35 4.55 Q-2.0 17.8 -37.3 3.7 L-32.15 2.0 -30.2 -0.45 -22.95 -2.2 -21.4 -4.9 -15.7 -5.05 -12.9 -8.6 -8.95 -10.95 -8.8 -10.55" fill="url(#gradient0)" fill-rule="evenodd" stroke="none"/>
    <path d="M8.4 -10.05 L7.35 -8.2 1.7 -5.45 -7.45 -5.7 -8.8 -10.55 Q-0.2 -8.25 8.4 -10.05" fill="url(#gradient1)" fill-rule="evenodd" stroke="none"/>
    <path d="M-8.95 -10.95 L-12.9 -8.6 -15.7 -5.05 -21.4 -4.9 -22.95 -2.2 -30.2 -0.45 -32.15 2.0 -37.3 3.7 M37.35 4.55 L34.45 2.45 27.8 2.2 25.8 -1.3 16.05 -1.45 15.55 -3.95 11.7 -5.05 12.05 -7.8 8.45 -10.15" fill="none" stroke="url(#gradient2)" stroke-linecap="round" stroke-linejoin="round" stroke-width="0.05"/>
  </g>
  <defs>
    <radialGradient cx="0" cy="0" gradientTransform="matrix(0.0, 0.0215, -0.0482, 0.0, -0.1, -4.8)" gradientUnits="userSpaceOnUse" id="gradient0" r="819.2" spreadMethod="pad">
      <stop offset="0.0" stop-color="#565232"/>
      <stop offset="0.3411764705882353" stop-color="#434034"/>
      <stop offset="1.0" stop-color="#181812" stop-opacity="0.0"/>
    </radialGradient>
    <linearGradient gradientTransform="matrix(-2.0E-4, -0.0034, 0.0105, -5.0E-4, -0.1, -8.2)" gradientUnits="userSpaceOnUse" id="gradient1" spreadMethod="pad" x1="-819.2" x2="819.2">
      <stop offset="0.0" stop-color="#565232"/>
      <stop offset="1.0" stop-color="#53533e" stop-opacity="0.0"/>
    </linearGradient>
    <radialGradient cx="0" cy="0" gradientTransform="matrix(0.0468, 0.0, 0.0, 0.0468, 0.5, -5.2)" gradientUnits="userSpaceOnUse" id="gradient2" r="819.2" spreadMethod="pad">
      <stop offset="0.0" stop-color="#000000"/>
      <stop offset="1.0" stop-color="#000000" stop-opacity="0.0"/>
    </radialGradient>
  </defs>
</svg>
