<?xml version="1.0" encoding="UTF-8" standalone="no"?>
<svg xmlns:xlink="http://www.w3.org/1999/xlink" height="5.45px" width="9.75px" xmlns="http://www.w3.org/2000/svg">
  <g transform="matrix(1.0, 0.0, 0.0, 1.0, -2.7, 2.25)">
    <path d="M4.2 -2.2 Q5.15 -2.4 5.75 -1.75 6.45 -1.1 6.55 -0.2 L6.6 1.7 6.5 1.85 Q5.65 2.6 4.45 2.2 L4.0 2.05 3.85 1.9 3.65 1.7 3.25 1.3 2.9 0.95 2.75 0.75 2.75 0.4 2.75 -0.35 Q2.75 -1.05 3.1 -1.6 3.5 -2.2 4.2 -2.2 M4.4 -0.7 L4.3 -0.15 4.5 0.4 4.85 0.7 Q5.45 0.8 5.2 0.15 L4.8 -0.45 4.45 -0.7 4.4 -0.7 M8.95 -1.3 L9.25 -1.15 9.5 -0.95 9.7 -0.6 9.85 -0.3 12.05 0.0 12.45 0.45 12.45 0.65 12.1 1.05 10.4 1.4 10.4 1.5 10.4 1.9 10.35 2.45 10.25 2.8 10.15 3.0 10.0 3.1 9.7 3.2 Q8.8 2.95 8.95 1.95 L8.9 1.55 8.7 0.25 8.5 -0.5 Q8.2 -1.25 8.95 -1.3" fill="#56fefe" fill-rule="evenodd" stroke="none"/>
  </g>
</svg>
