<?xml version="1.0" encoding="UTF-8" standalone="no"?>
<svg xmlns:xlink="http://www.w3.org/1999/xlink" height="27.3px" width="31.45px" xmlns="http://www.w3.org/2000/svg">
  <g transform="matrix(1.0, 0.0, 0.0, 1.0, 20.05, 17.65)">
    <path d="M7.05 -8.7 L7.25 -8.45 Q11.35 -2.45 11.4 5.2 8.0 8.85 1.5 9.65 -3.5 7.05 -10.85 6.7 -13.95 4.2 -16.1 -2.05 -16.1 -8.55 -10.6 -12.3 -5.25 -15.35 7.05 -8.7" fill="url(#gradient0)" fill-rule="evenodd" stroke="none"/>
    <path d="M7.05 -8.7 Q-5.25 -15.35 -10.6 -12.3 -16.1 -8.55 -16.1 -2.05 -13.95 4.2 -10.85 6.7 -3.5 7.05 1.5 9.65 8.0 8.85 11.4 5.2 11.35 -2.45 7.25 -8.45 L7.05 -8.7 Z" fill="none" stroke="#000000" stroke-linecap="round" stroke-linejoin="round" stroke-width="0.05"/>
    <path d="M-13.0 -9.3 Q-14.2 -7.85 -15.9 -7.85 -17.6 -7.85 -18.85 -9.3 -20.05 -10.7 -20.05 -12.75 -20.05 -14.8 -18.85 -16.25 -17.6 -17.65 -15.9 -17.65 -14.2 -17.65 -13.0 -16.25 -11.75 -14.8 -11.75 -12.75 -11.75 -10.7 -13.0 -9.3" fill="url(#gradient1)" fill-rule="evenodd" stroke="none"/>
    <path d="M-13.0 -9.3 Q-14.2 -7.85 -15.9 -7.85 -17.6 -7.85 -18.85 -9.3 -20.05 -10.7 -20.05 -12.75 -20.05 -14.8 -18.85 -16.25 -17.6 -17.65 -15.9 -17.65 -14.2 -17.65 -13.0 -16.25 -11.75 -14.8 -11.75 -12.75 -11.75 -10.7 -13.0 -9.3 Z" fill="none" stroke="#000000" stroke-linecap="round" stroke-linejoin="round" stroke-width="0.05"/>
  </g>
  <defs>
    <radialGradient cx="0" cy="0" gradientTransform="matrix(0.0263, 0.0, 0.0, 0.0263, -3.35, -10.5)" gradientUnits="userSpaceOnUse" id="gradient0" r="819.2" spreadMethod="pad">
      <stop offset="0.0" stop-color="#ee99d5"/>
      <stop offset="1.0" stop-color="#a91b8d"/>
    </radialGradient>
    <radialGradient cx="0" cy="0" gradientTransform="matrix(0.0087, 0.0, 0.0, 0.0087, -15.9, -14.95)" gradientUnits="userSpaceOnUse" id="gradient1" r="819.2" spreadMethod="pad">
      <stop offset="0.0" stop-color="#fae2f3"/>
      <stop offset="1.0" stop-color="#ebc469"/>
    </radialGradient>
  </defs>
</svg>
