<?xml version="1.0" encoding="UTF-8" standalone="no"?>
<svg xmlns:xlink="http://www.w3.org/1999/xlink" height="26.5px" width="24.45px" xmlns="http://www.w3.org/2000/svg">
  <g transform="matrix(1.0, 0.0, 0.0, 1.0, 13.9, 13.2)">
    <path d="M-10.7 4.8 L-11.75 5.6 -13.9 3.35 -10.7 4.8" fill="#978468" fill-rule="evenodd" stroke="none"/>
    <path d="M-11.6 -3.15 Q-11.4 -6.95 -10.9 -7.95 L-10.35 -9.1 Q-6.7 -12.05 -2.65 -12.9 3.65 -14.2 9.65 -10.15 L9.95 -9.95 Q10.55 -7.7 10.55 -5.65 10.55 -1.45 8.0 2.05 5.8 5.8 4.8 10.9 -3.2 14.75 -7.0 12.4 -9.3 8.4 -11.75 5.6 L-10.7 4.8 -11.4 3.4 -11.55 3.15 Q-11.8 0.25 -11.6 -3.15" fill="url(#gradient0)" fill-rule="evenodd" stroke="none"/>
    <path d="M-11.6 -3.15 Q-11.8 0.25 -11.55 3.15 L-11.4 3.4 -10.7 4.8 -13.9 3.35 -11.75 5.6 Q-9.3 8.4 -7.0 12.4 M4.8 10.9 Q5.8 5.8 8.0 2.05 10.55 -1.45 10.55 -5.65 10.55 -7.7 9.95 -9.95" fill="none" stroke="#000000" stroke-linecap="round" stroke-linejoin="round" stroke-width="0.05"/>
    <path d="M10.55 -5.65 Q10.55 -1.45 8.0 2.05 5.8 5.8 4.8 10.9 -3.2 14.75 -7.0 12.4 -10.3 6.65 -13.9 3.35 L-10.7 4.8 -11.4 3.4 -11.55 3.15 Q-11.8 0.25 -11.6 -3.15 -11.4 -6.95 -10.9 -7.95 L-10.75 -7.95 Q-10.2 -2.4 -8.85 1.6 -5.95 5.15 -3.6 5.9 L-1.65 8.05 -5.15 8.25 -7.55 7.2 -5.5 9.35 -2.65 11.4 1.95 10.85 Q4.4 8.25 4.6 4.85 4.25 3.9 2.55 3.75 6.95 -0.1 9.85 -5.95 L10.45 -6.05 10.55 -5.65" fill="#000000" fill-opacity="0.4" fill-rule="evenodd" stroke="none"/>
  </g>
  <defs>
    <radialGradient cx="0" cy="0" gradientTransform="matrix(0.0231, 0.0, 0.0, 0.0231, -0.4, -2.7)" gradientUnits="userSpaceOnUse" id="gradient0" r="819.2" spreadMethod="pad">
      <stop offset="0.0" stop-color="#100f13"/>
      <stop offset="0.5411764705882353" stop-color="#0d0e0c"/>
      <stop offset="0.803921568627451" stop-color="#141812"/>
      <stop offset="1.0" stop-color="#1d301e"/>
    </radialGradient>
  </defs>
</svg>
