<?xml version="1.0" encoding="UTF-8" standalone="no"?>
<svg xmlns:xlink="http://www.w3.org/1999/xlink" height="30.85px" width="15.05px" xmlns="http://www.w3.org/2000/svg">
  <g transform="matrix(1.0, 0.0, 0.0, 1.0, 8.45, 16.95)">
    <path d="M-0.85 7.15 L-0.8 7.15 -0.85 7.15" fill="#978468" fill-rule="evenodd" stroke="none"/>
    <path d="M0.85 7.15 L1.95 7.1 1.35 7.15 0.85 7.15" fill="#5a4f3f" fill-rule="evenodd" stroke="none"/>
    <path d="M5.1 8.75 L5.2 8.65 5.15 8.85 5.1 8.75" fill="url(#gradient0)" fill-rule="evenodd" stroke="none"/>
    <path d="M-0.85 7.15 Q-3.15 -0.45 -8.45 -6.55 -8.05 -9.15 -5.55 -12.55 0.2 -16.35 6.1 -16.95 7.45 -3.1 5.2 8.65 L5.1 8.75 Q4.0 7.15 2.15 7.1 L1.95 7.1 0.85 7.15 -0.8 7.15 -0.85 7.15" fill="url(#gradient1)" fill-rule="evenodd" stroke="none"/>
    <path d="M1.95 7.1 L2.15 7.1 Q4.0 7.15 5.1 8.75 L5.15 8.85 5.3 8.8 5.4 9.0 6.3 10.55 6.4 12.8 -4.0 13.9 -5.2 9.7 -3.6 8.0 -2.8 8.55 -0.75 10.0 0.45 9.7 1.35 7.15 1.95 7.1" fill="url(#gradient2)" fill-rule="evenodd" stroke="none"/>
    <path d="M-0.8 7.15 L0.85 7.15 1.35 7.15 0.45 9.7 -0.75 10.0 -2.8 8.55 -0.8 7.15" fill="url(#gradient3)" fill-rule="evenodd" stroke="none"/>
    <path d="M-5.55 -12.55 Q-8.05 -9.15 -8.45 -6.55 -3.15 -0.45 -0.85 7.15 L-0.8 7.15 0.85 7.15 1.35 7.15 1.95 7.1 2.15 7.1 Q4.0 7.15 5.1 8.75 L5.15 8.85 5.2 8.65 5.3 8.8 M5.2 8.65 Q7.45 -3.1 6.1 -16.95 M-2.8 8.55 L-3.6 8.0 -5.2 9.7 -4.0 13.9 6.4 12.8 6.3 10.55 5.4 9.0 M-2.8 8.55 L-0.8 7.15 M1.35 7.15 L0.45 9.7 -0.75 10.0 -2.8 8.55" fill="none" stroke="#000000" stroke-linecap="round" stroke-linejoin="round" stroke-width="0.05"/>
    <path d="M-5.5 -12.15 Q-1.1 -12.8 2.95 -6.35 -1.6 -9.3 -4.6 -6.55 -3.1 -7.05 1.25 -1.7 -0.75 -3.25 -2.35 -1.0 L-0.15 7.15 -0.8 7.15 -0.85 7.15 Q-3.15 -0.45 -8.45 -6.55 -8.1 -8.95 -5.9 -12.05 L-5.5 -12.15" fill="#000000" fill-opacity="0.4" fill-rule="evenodd" stroke="none"/>
  </g>
  <defs>
    <radialGradient cx="0" cy="0" gradientTransform="matrix(0.0262, 0.0, 0.0, 0.0262, 2.45, -12.4)" gradientUnits="userSpaceOnUse" id="gradient0" r="819.2" spreadMethod="pad">
      <stop offset="0.0" stop-color="#3c332b"/>
      <stop offset="1.0" stop-color="#130a06"/>
    </radialGradient>
    <radialGradient cx="0" cy="0" gradientTransform="matrix(0.0262, 0.0, 0.0, 0.0262, 2.45, -12.4)" gradientUnits="userSpaceOnUse" id="gradient1" r="819.2" spreadMethod="pad">
      <stop offset="0.0" stop-color="#100f13"/>
      <stop offset="0.5411764705882353" stop-color="#0d0e0c"/>
      <stop offset="0.803921568627451" stop-color="#141812"/>
      <stop offset="1.0" stop-color="#1d301e"/>
    </radialGradient>
    <radialGradient cx="0" cy="0" gradientTransform="matrix(0.0082, 0.0, 0.0, 0.0082, 1.45, 9.95)" gradientUnits="userSpaceOnUse" id="gradient2" r="819.2" spreadMethod="pad">
      <stop offset="0.0" stop-color="#473041"/>
      <stop offset="1.0" stop-color="#201d27"/>
    </radialGradient>
    <radialGradient cx="0" cy="0" gradientTransform="matrix(0.0036, 0.0, 0.0, 0.0036, 0.15, 8.25)" gradientUnits="userSpaceOnUse" id="gradient3" r="819.2" spreadMethod="pad">
      <stop offset="0.0" stop-color="#473041"/>
      <stop offset="1.0" stop-color="#201d27"/>
    </radialGradient>
  </defs>
</svg>
