<?xml version="1.0" encoding="UTF-8" standalone="no"?>
<svg xmlns:xlink="http://www.w3.org/1999/xlink" height="38.3px" width="31.7px" xmlns="http://www.w3.org/2000/svg">
  <g transform="matrix(1.0, 0.0, 0.0, 1.0, 13.0, 19.5)">
    <path d="M-10.8 1.25 L-13.0 -0.55 Q-10.15 -2.05 -7.15 -2.05 L-10.25 -3.4 Q-7.2 -9.0 -0.9 -12.05 2.45 -14.75 3.8 -19.5 7.0 -17.9 10.05 -15.3 12.35 -12.2 13.0 -8.75 L14.4 -7.45 14.55 -6.35 12.95 -5.45 Q11.85 -4.7 9.1 -5.45 7.8 -4.5 7.75 -2.85 8.8 0.7 8.3 2.55 L6.85 5.1 Q10.7 6.45 12.65 8.35 L12.85 8.7 12.85 8.75 Q16.25 9.75 18.05 6.3 L18.7 5.95 18.3 8.2 18.45 10.45 18.3 10.6 Q16.1 12.65 13.7 13.9 12.55 14.5 11.4 14.9 L7.95 18.8 Q-10.05 18.95 -10.8 1.25 M13.7 13.9 L12.05 14.15 11.5 14.8 13.7 13.9" fill="url(#gradient0)" fill-rule="evenodd" stroke="none"/>
    <path d="M12.95 -5.45 L12.7 -4.65 Q12.45 -2.75 13.5 -1.0 16.25 2.3 18.05 6.2 L18.05 6.3 Q16.25 9.75 12.85 8.75 L12.85 8.7 12.65 8.35 Q10.7 6.45 6.85 5.1 L8.3 2.55 Q8.8 0.7 7.75 -2.85 7.8 -4.5 9.1 -5.45 11.85 -4.7 12.95 -5.45" fill="url(#gradient1)" fill-rule="evenodd" stroke="none"/>
    <path d="M-10.8 1.25 L-13.0 -0.55 Q-10.15 -2.05 -7.15 -2.05 L-10.25 -3.4 Q-7.2 -9.0 -0.9 -12.05 2.45 -14.75 3.8 -19.5 7.0 -17.9 10.05 -15.3 12.35 -12.2 13.0 -8.75 L14.4 -7.45 14.55 -6.35 12.95 -5.45 12.7 -4.65 Q12.45 -2.75 13.5 -1.0 16.25 2.3 18.05 6.2 L18.05 6.3 18.7 5.95 18.3 8.2 18.45 10.45 18.3 10.6 Q16.1 12.65 13.7 13.9 12.55 14.5 11.4 14.9 L7.95 18.8 M12.95 -5.45 Q11.85 -4.7 9.1 -5.45 7.8 -4.5 7.75 -2.85 8.8 0.7 8.3 2.55 L6.85 5.1 Q10.7 6.45 12.65 8.35 L12.85 8.7 12.85 8.75 Q16.25 9.75 18.05 6.3" fill="none" stroke="#000000" stroke-linecap="round" stroke-linejoin="round" stroke-width="0.05"/>
    <path d="M2.3 -13.15 L6.8 -14.35 Q2.0 -11.95 -0.5 -8.05 3.35 -10.0 7.4 -8.7 1.3 -7.0 -1.65 -1.75 3.45 2.6 3.25 9.2 1.35 4.45 -3.4 2.2 -5.9 5.6 -5.05 8.6 -7.25 5.7 -6.0 2.95 -8.5 3.8 -10.1 6.55 -10.7 4.1 -10.8 1.25 L-13.0 -0.55 Q-10.15 -2.05 -7.15 -2.05 L-10.25 -3.4 Q-7.2 -9.0 -0.9 -12.05 2.05 -14.45 3.5 -18.45 L2.3 -13.15 M7.75 -2.85 Q7.8 -4.5 9.1 -5.45 11.85 -4.7 12.95 -5.45 L12.7 -4.65 Q12.45 -2.85 13.4 -1.15 11.7 -1.9 8.45 1.0 8.4 -0.6 7.75 -2.85 M14.85 0.75 L16.65 3.45 18.05 6.2 18.05 6.3 17.45 7.25 15.5 3.5 14.55 3.55 14.3 2.5 14.85 0.75 M9.6 14.6 L7.1 13.95 17.7 11.15 Q15.75 12.8 13.7 13.9 12.55 14.5 11.4 14.9 L8.15 18.6 9.6 14.6" fill="#000000" fill-opacity="0.4" fill-rule="evenodd" stroke="none"/>
  </g>
  <defs>
    <radialGradient cx="0" cy="0" gradientTransform="matrix(0.0242, 0.0, 0.0, 0.0242, 2.85, -0.35)" gradientUnits="userSpaceOnUse" id="gradient0" r="819.2" spreadMethod="pad">
      <stop offset="0.0" stop-color="#3c332b"/>
      <stop offset="1.0" stop-color="#130a06"/>
    </radialGradient>
    <radialGradient cx="0" cy="0" gradientTransform="matrix(0.0169, 0.0, 0.0, 0.0169, 13.75, 7.6)" gradientUnits="userSpaceOnUse" id="gradient1" r="819.2" spreadMethod="pad">
      <stop offset="0.0" stop-color="#493e2e"/>
      <stop offset="1.0" stop-color="#1e2622"/>
    </radialGradient>
  </defs>
</svg>
