<?xml version="1.0" encoding="UTF-8" standalone="no"?>
<svg xmlns:xlink="http://www.w3.org/1999/xlink" height="33.1px" width="36.7px" xmlns="http://www.w3.org/2000/svg">
  <g transform="matrix(1.0, 0.0, 0.0, 1.0, 15.9, 18.65)">
    <path d="M9.2 -14.05 L8.85 -13.95 8.8 -13.95 8.3 -13.85 7.8 -13.65 8.8 -14.05 8.8 -13.95 9.2 -14.05" fill="#978468" fill-rule="evenodd" stroke="none"/>
    <path d="M9.2 -14.05 L9.3 -14.1 12.6 -15.1 Q19.75 -6.9 20.7 5.9 14.2 6.5 9.6 4.65 6.4 7.8 1.7 9.4 -0.8 11.95 -0.9 14.45 -6.7 14.2 -10.25 11.45 -9.15 6.9 -13.6 2.75 L-15.9 -0.35 Q-16.1 -6.4 -13.95 -9.95 -13.35 -11.75 -14.6 -13.05 -14.1 -14.2 -11.05 -13.9 -11.0 -15.1 -12.7 -16.6 L-6.3 -16.3 Q-6.15 -17.85 -7.3 -18.45 -4.3 -19.3 3.4 -16.15 5.65 -13.2 7.8 -13.65 L8.3 -13.85 8.8 -13.95 8.85 -13.95 9.2 -14.05" fill="url(#gradient0)" fill-rule="evenodd" stroke="none"/>
    <path d="M-0.9 14.45 Q-0.8 11.95 1.7 9.4 6.4 7.8 9.6 4.65 14.2 6.5 20.7 5.9 L20.8 7.75 20.8 12.4 20.05 12.4 Q14.05 14.25 8.55 14.0 L3.2 13.55 2.0 14.25 1.7 14.45 -0.9 14.45" fill="url(#gradient1)" fill-rule="evenodd" stroke="none"/>
    <path d="M12.6 -15.1 L9.3 -14.1 9.2 -14.05 8.85 -13.95 8.8 -13.95 8.3 -13.85 7.8 -13.65 Q5.65 -13.2 3.4 -16.15 -4.3 -19.3 -7.3 -18.45 -6.15 -17.85 -6.3 -16.3 L-12.7 -16.6 Q-11.0 -15.1 -11.05 -13.9 -14.1 -14.2 -14.6 -13.05 -13.35 -11.75 -13.95 -9.95 -16.1 -6.4 -15.9 -0.35 L-13.6 2.75 Q-9.15 6.9 -10.25 11.45 -6.7 14.2 -0.9 14.45 L1.7 14.45 2.0 14.25 3.2 13.55 8.55 14.0 Q14.05 14.25 20.05 12.4" fill="none" stroke="#000000" stroke-linecap="round" stroke-linejoin="round" stroke-width="0.05"/>
    <path d="M-10.05 -16.75 L-6.3 -16.3 Q-6.15 -17.85 -7.3 -18.45 -4.3 -19.3 3.4 -16.15 5.4 -13.5 7.35 -13.6 L8.9 -10.2 Q5.85 -12.7 1.95 -13.85 3.3 -11.7 2.2 -9.6 2.1 -11.0 -0.05 -12.45 -3.7 -8.65 -10.05 -9.5 -5.95 -10.2 -4.3 -12.95 -6.35 -15.15 -10.05 -16.75" fill="#000000" fill-opacity="0.4" fill-rule="evenodd" stroke="none"/>
    <path d="M7.35 -13.6 L7.8 -13.65 8.3 -13.85 8.8 -13.95 8.85 -13.95 12.6 -15.1 M-10.05 -16.75 L-6.3 -16.3 Q-6.15 -17.85 -7.3 -18.45 -4.3 -19.3 3.4 -16.15 5.4 -13.5 7.35 -13.6 M-10.05 -16.75 L-12.7 -16.6 Q-11.0 -15.1 -11.05 -13.9 -14.1 -14.2 -14.6 -13.05 -13.35 -11.75 -13.95 -9.95 -16.1 -6.4 -15.9 -0.35 L-13.6 2.75 Q-9.15 6.9 -10.25 11.45 -6.7 14.2 -0.9 14.45 L1.7 14.45 2.0 14.25 3.2 13.55 8.55 14.0 Q14.05 14.25 20.05 12.4" fill="none" stroke="#000000" stroke-linecap="round" stroke-linejoin="round" stroke-width="0.05"/>
  </g>
  <defs>
    <radialGradient cx="0" cy="0" gradientTransform="matrix(0.0345, 0.0, 0.0, 0.0345, -10.75, 0.25)" gradientUnits="userSpaceOnUse" id="gradient0" r="819.2" spreadMethod="pad">
      <stop offset="0.0" stop-color="#3c332b"/>
      <stop offset="1.0" stop-color="#130a06"/>
    </radialGradient>
    <radialGradient cx="0" cy="0" gradientTransform="matrix(7.0E-4, 0.0141, -0.0238, 0.0011, 16.25, 10.0)" gradientUnits="userSpaceOnUse" id="gradient1" r="819.2" spreadMethod="pad">
      <stop offset="0.0" stop-color="#493e2e"/>
      <stop offset="1.0" stop-color="#1e2622"/>
    </radialGradient>
  </defs>
</svg>
