<?xml version="1.0" encoding="UTF-8" standalone="no"?>
<svg xmlns:xlink="http://www.w3.org/1999/xlink" height="17.95px" width="13.3px" xmlns="http://www.w3.org/2000/svg">
  <g transform="matrix(1.0, 0.0, 0.0, 1.0, 12.5, 5.9)">
    <path d="M-9.75 -5.9 L-6.45 -4.65 -9.35 -0.7 -9.55 11.2 -11.45 10.5 -12.5 -1.5 -9.75 -5.9" fill="url(#gradient0)" fill-rule="evenodd" stroke="none"/>
    <path d="M-1.75 1.2 L-1.0 12.05 -2.95 11.55 -5.1 0.5 -2.95 -4.1 0.8 -3.95 -1.75 1.2" fill="url(#gradient1)" fill-rule="evenodd" stroke="none"/>
    <path d="M-9.75 -5.9 L-12.5 -1.5 -11.45 10.5 -9.55 11.2 -9.35 -0.7 -6.45 -4.65 -9.75 -5.9 M-1.75 1.2 L0.8 -3.95 -2.95 -4.1 -5.1 0.5 -2.95 11.55 -1.0 12.05 -1.75 1.2 Z" fill="none" stroke="#000000" stroke-linecap="round" stroke-linejoin="round" stroke-width="0.05"/>
  </g>
  <defs>
    <radialGradient cx="0" cy="0" gradientTransform="matrix(0.0189, 0.0, 0.0, 0.0189, -9.45, -4.25)" gradientUnits="userSpaceOnUse" id="gradient0" r="819.2" spreadMethod="pad">
      <stop offset="0.0" stop-color="#5b4b35"/>
      <stop offset="1.0" stop-color="#343943"/>
    </radialGradient>
    <radialGradient cx="0" cy="0" gradientTransform="matrix(0.0182, 0.0, 0.0, 0.0182, -1.5, -2.9)" gradientUnits="userSpaceOnUse" id="gradient1" r="819.2" spreadMethod="pad">
      <stop offset="0.0" stop-color="#5b4b35"/>
      <stop offset="1.0" stop-color="#343943"/>
    </radialGradient>
  </defs>
</svg>
