<?xml version="1.0" encoding="UTF-8" standalone="no"?>
<svg xmlns:xlink="http://www.w3.org/1999/xlink" height="58.25px" width="76.85px" xmlns="http://www.w3.org/2000/svg">
  <g transform="matrix(1.0, 0.0, 0.0, 1.0, 37.55, 23.5)">
    <path d="M12.1 -17.45 L12.4 -17.1 12.25 -16.7 11.8 -16.65 11.75 -16.75 11.7 -16.8 11.65 -16.9 11.65 -17.0 11.65 -17.1 11.7 -17.2 11.8 -17.3 11.9 -17.35 12.1 -17.45 M10.9 -14.05 L10.85 -13.8 10.75 -13.3 10.6 -12.85 10.45 -12.75 10.25 -12.75 10.0 -12.8 9.85 -12.9 9.8 -13.0 9.7 -13.35 9.8 -13.9 Q9.9 -14.35 10.35 -14.45 L10.5 -14.4 10.7 -14.35 10.8 -14.25 10.9 -14.05 M0.35 -21.2 L0.85 -20.75 1.0 -20.1 0.8 -19.55 Q0.4 -19.35 0.25 -19.75 L0.0 -20.25 Q-0.2 -20.6 -0.05 -20.95 L0.0 -21.05 0.15 -21.1 0.35 -21.2 M1.2 -14.3 L1.35 -13.8 1.3 -13.35 1.0 -13.25 Q0.65 -13.25 0.4 -13.45 L0.3 -13.55 0.3 -13.65 0.3 -13.8 0.35 -14.1 0.5 -14.4 0.65 -14.45 0.85 -14.5 0.85 -14.55 1.2 -14.3 M8.95 -9.75 L9.35 -9.85 9.65 -9.6 9.55 -9.1 9.3 -8.75 9.2 -8.7 9.0 -8.65 8.5 -8.8 8.35 -9.0 8.45 -9.35 Q8.6 -9.65 8.95 -9.75 M0.25 -10.8 L0.9 -10.25 1.1 -9.3 Q1.1 -8.85 0.7 -8.6 0.35 -8.5 0.15 -8.75 L-0.2 -9.1 -0.45 -9.5 -0.45 -9.55 -0.4 -9.75 -0.3 -9.95 -0.25 -10.25 -0.3 -10.4 -0.2 -10.5 -0.15 -10.6 0.05 -10.75 0.25 -10.75 0.25 -10.8 M0.05 -0.4 L-0.4 -0.15 -0.5 -0.15 -0.55 0.1 -0.25 0.55 -0.3 1.2 -0.45 1.9 -0.5 2.15 Q0.15 2.55 0.0 3.35 L-0.2 4.85 -0.35 6.15 -0.45 6.35 -0.65 6.4 -1.0 6.25 -1.15 6.1 Q-3.0 5.95 -2.5 3.85 -2.15 2.55 -2.2 1.25 -2.25 -0.3 -1.25 -1.0 L-0.8 -0.8 -0.7 -0.6 -0.6 -0.75 -0.4 -0.85 -0.25 -0.85 -0.1 -0.75 0.05 -0.6 0.05 -0.4 M6.1 -4.6 L6.25 -4.6 6.25 -4.65 Q6.5 -4.65 6.6 -4.45 6.8 -4.2 6.5 -4.0 L6.05 -4.05 6.0 -4.15 5.95 -4.25 5.95 -4.3 6.0 -4.4 6.05 -4.55 6.1 -4.6 M17.35 -7.1 L17.6 -7.0 17.75 -6.95 17.8 -6.75 17.9 -6.3 17.8 -5.85 17.6 -5.65 17.1 -5.6 16.5 -6.1 16.45 -6.35 16.5 -6.55 16.8 -6.9 17.35 -7.1 M14.05 -1.15 L14.05 -1.25 14.35 -1.5 14.65 -1.6 14.85 -1.65 15.0 -1.6 15.25 -1.55 15.35 -1.45 15.45 -1.4 15.5 -0.9 Q15.2 -0.4 14.6 -0.45 L14.05 -0.8 14.05 -1.05 14.05 -1.15 M37.85 5.6 L38.15 5.3 38.75 5.1 39.0 5.2 39.1 5.3 39.2 5.45 39.3 5.55 39.3 5.65 39.25 5.75 39.2 5.95 39.1 6.1 39.0 6.2 38.6 6.25 Q38.15 6.3 37.9 6.0 L37.85 5.8 37.85 5.6 M33.4 7.85 Q32.55 8.25 31.75 7.85 L31.55 7.6 31.55 7.45 31.6 7.25 Q31.75 6.95 32.1 6.95 L33.0 6.85 33.25 6.9 33.45 7.0 33.65 7.15 33.75 7.35 Q33.75 7.7 33.4 7.85 M25.2 8.1 Q25.6 7.85 26.1 7.75 L26.35 7.7 26.5 7.7 26.7 7.75 26.85 7.85 26.9 7.95 26.95 8.0 27.0 8.2 27.0 8.5 26.8 8.75 25.6 8.95 Q25.1 8.85 25.1 8.35 L25.2 8.1 M20.25 9.0 L20.15 8.85 20.15 8.75 20.25 8.45 Q20.45 8.25 20.75 8.2 L20.95 8.3 21.1 8.45 21.15 8.65 21.2 8.75 21.05 9.0 Q20.65 9.35 20.25 9.0 M20.65 10.95 L20.65 11.0 20.4 11.45 18.75 11.5 18.6 11.25 18.65 11.05 18.7 10.95 18.85 10.9 Q19.05 10.8 19.2 10.75 L19.2 10.65 19.25 10.55 19.3 10.45 19.35 10.35 19.6 10.3 19.7 10.3 19.75 10.3 19.85 10.25 19.9 10.25 20.05 10.45 20.2 10.55 20.45 10.65 20.65 10.95 M13.1 0.9 Q13.15 1.45 12.75 1.8 12.0 2.35 11.8 1.45 11.55 0.65 12.35 0.45 L12.55 0.45 12.75 0.55 12.95 0.7 13.1 0.9 M10.3 4.45 L10.5 4.4 10.75 4.35 11.0 4.5 11.05 4.85 10.9 5.05 10.75 5.1 10.5 5.1 10.2 4.95 10.1 4.7 10.15 4.6 10.3 4.45 M14.7 11.6 L14.7 11.5 14.75 11.35 14.8 11.25 15.1 11.1 15.4 11.05 15.55 11.0 15.65 11.2 15.8 11.4 15.9 11.7 15.85 11.75 15.65 12.0 14.9 11.95 14.8 11.9 14.7 11.7 14.7 11.6 M3.7 1.35 Q3.8 0.65 4.5 0.5 L4.5 0.45 Q5.65 0.85 5.25 2.0 L4.65 3.9 Q4.3 5.1 3.3 4.85 L3.2 4.45 3.3 3.9 3.55 3.25 3.7 2.85 3.55 2.3 3.7 1.35 M2.1 10.2 L2.15 10.15 2.35 10.15 2.35 10.1 2.6 10.2 2.7 10.25 Q3.25 11.7 2.65 13.05 2.1 14.5 1.2 15.75 1.65 15.8 2.1 16.1 L2.15 16.2 2.2 16.35 2.2 16.75 2.2 16.8 3.1 17.05 6.75 15.35 Q6.3 14.9 5.25 15.8 4.75 16.3 4.1 16.1 3.7 15.95 3.55 15.6 L3.55 15.5 Q3.6 14.95 4.1 14.65 L5.0 13.8 5.25 13.3 5.3 13.2 Q5.6 12.9 6.0 12.8 L6.5 12.6 6.65 12.6 Q6.9 12.85 6.5 13.15 6.3 13.3 6.25 13.6 L6.05 14.2 10.7 14.5 Q11.6 14.6 12.55 14.15 12.9 14.0 13.1 14.35 11.05 16.15 8.2 17.25 7.65 17.8 6.8 18.15 L5.4 18.6 6.25 19.75 Q6.45 20.15 6.0 20.2 4.1 20.35 2.9 18.7 L2.8 18.7 2.6 18.75 Q0.9 19.3 1.25 18.35 L0.9 18.15 -2.7 18.5 -3.0 18.55 -3.15 18.55 -3.3 18.6 -3.9 19.1 -4.5 19.35 -4.4 19.4 -4.0 19.5 -4.0 19.45 -3.95 19.45 -3.65 19.4 -3.5 19.4 -3.5 19.35 Q-3.25 19.4 -3.1 19.6 L-3.05 19.65 -2.9 19.55 -2.65 19.5 -0.2 19.9 0.45 20.2 0.6 20.3 Q1.25 20.65 1.75 21.3 2.45 22.25 2.35 23.45 1.55 23.55 1.45 22.75 1.3 21.8 0.3 21.4 L0.0 21.3 -0.65 21.5 Q0.35 22.8 1.7 23.9 L4.55 25.95 Q5.65 26.6 6.15 27.5 4.2 27.65 2.4 25.85 L0.1 23.5 Q-0.85 22.6 -1.25 21.5 L-2.45 21.25 -3.95 20.35 -5.25 20.6 -5.6 20.6 -7.35 21.6 -8.85 22.25 -8.9 22.4 -9.3 22.95 -9.55 23.45 -9.65 23.8 -9.7 23.8 -9.8 23.7 -9.8 23.6 -9.9 23.4 -9.95 23.25 -12.6 25.25 Q-13.9 26.15 -14.7 27.45 -15.3 28.45 -16.2 28.5 L-16.3 28.4 -16.35 28.3 -16.4 28.2 -16.4 28.1 -16.4 28.0 -16.35 27.95 -16.3 27.85 -16.25 27.75 -16.2 27.65 -16.2 27.45 -16.25 27.45 -16.6 27.65 Q-17.1 27.85 -17.45 27.45 L-17.45 27.25 -17.5 27.0 -17.35 26.5 -17.05 26.25 -16.9 26.2 Q-16.05 26.35 -15.4 25.35 -14.8 24.4 -13.85 23.85 L-12.55 23.35 -12.4 23.45 -12.35 23.55 -12.3 23.6 -12.3 23.8 -12.35 24.1 -11.3 23.4 Q-12.65 23.9 -12.05 22.5 L-11.35 21.55 -8.9 19.35 -9.05 19.05 -9.2 18.6 -9.1 18.25 -8.75 17.75 Q-9.4 17.3 -9.85 16.45 L-10.6 15.05 -11.3 13.95 Q-11.7 13.4 -11.15 13.2 -10.7 13.35 -10.4 13.7 L-9.8 14.45 -9.25 15.1 -8.9 15.05 Q-8.5 15.05 -8.2 15.35 L-7.95 15.7 -7.45 15.6 Q-7.05 15.4 -6.65 15.6 L-6.35 15.75 -6.25 15.95 -6.2 16.1 -6.15 16.4 -6.25 16.7 -6.3 16.85 -6.0 16.75 -5.6 16.05 -5.2 15.8 -5.85 14.7 -6.4 13.6 Q-6.75 13.0 -6.35 12.45 L-6.15 12.35 -5.25 13.7 -4.6 15.1 Q-4.2 15.8 -3.4 15.9 L-3.2 15.25 -3.05 14.5 -3.05 13.75 -2.9 13.35 Q-2.7 13.15 -2.4 13.1 -2.0 13.1 -1.75 13.35 -1.6 13.6 -1.6 13.85 L-1.65 14.4 -1.75 14.95 -1.8 15.35 -0.85 15.7 -0.4 15.2 Q0.7 14.05 1.1 12.55 L2.0 10.25 2.1 10.2 M7.9 7.95 Q7.5 8.6 7.4 9.3 L6.65 10.6 6.55 10.7 6.35 10.7 6.1 10.65 5.95 10.6 5.85 10.5 5.8 10.4 5.75 10.3 5.75 10.0 5.75 9.75 5.8 9.45 Q5.45 9.15 5.6 8.65 L6.2 7.5 7.25 6.7 7.5 6.75 7.75 6.8 7.85 6.85 Q8.2 7.4 7.9 7.95 M15.8 14.05 L15.3 14.5 14.55 14.7 14.5 14.6 Q14.4 14.25 14.8 14.1 15.25 14.0 15.5 13.65 15.65 13.5 15.85 13.45 16.25 13.7 15.8 14.05 M-26.65 -16.05 L-26.65 -16.15 -26.65 -16.25 -26.6 -16.35 -26.6 -16.45 -26.55 -16.55 -26.45 -16.6 -26.3 -16.7 -26.15 -16.7 -26.15 -16.75 -25.95 -16.65 -25.75 -16.55 -25.5 -16.45 -25.3 -16.25 -25.4 -15.95 -25.85 -15.65 Q-26.3 -15.55 -26.6 -15.9 L-26.6 -16.0 -26.65 -16.05 M-24.25 -13.8 L-23.8 -13.55 -23.7 -13.05 -23.85 -12.7 -24.0 -12.6 Q-24.4 -12.35 -24.6 -12.75 L-24.7 -13.4 -24.4 -13.75 -24.25 -13.8 M-36.8 -7.8 L-36.7 -7.7 -36.65 -7.65 -36.55 -7.45 -36.5 -7.25 -36.45 -7.05 Q-36.6 -6.75 -36.9 -6.85 L-37.5 -7.45 Q-37.6 -7.7 -37.3 -7.85 L-37.15 -7.9 -37.0 -7.85 -36.8 -7.8 M-32.2 -3.6 L-32.2 -3.5 Q-32.3 -3.1 -32.75 -3.1 -33.35 -3.15 -33.8 -3.55 L-34.2 -4.25 -34.2 -4.35 -34.15 -4.45 -34.1 -4.55 -34.05 -4.65 -33.9 -4.7 -33.65 -4.8 -33.1 -4.65 -32.55 -4.2 -32.2 -3.6 M-33.5 -1.45 L-33.5 -1.55 -33.5 -1.65 -33.45 -1.7 -33.4 -1.8 -33.2 -1.95 -33.0 -2.0 -32.75 -2.0 -32.55 -1.95 -32.4 -1.85 -32.3 -1.75 -32.3 -1.65 -32.25 -1.55 -32.2 -1.4 -32.2 -1.2 -32.25 -1.1 -32.45 -0.95 -33.1 -0.9 Q-33.45 -1.05 -33.5 -1.45 M-30.95 -0.9 L-30.95 -0.95 -30.95 -1.05 -30.9 -1.25 -30.85 -1.35 -30.8 -1.45 -30.65 -1.5 -30.4 -1.6 -29.9 -1.4 -29.5 -1.0 Q-29.3 -0.7 -29.45 -0.4 L-29.45 -0.3 Q-29.6 -0.05 -29.9 -0.1 L-30.6 -0.3 -30.95 -0.6 -30.95 -0.7 -30.95 -0.8 -30.95 -0.9 M-23.4 -10.55 L-23.15 -10.4 -23.1 -10.15 -23.2 -9.9 Q-23.75 -9.6 -24.05 -10.15 L-24.0 -10.5 -23.75 -10.6 -23.4 -10.55 M-21.75 -7.9 L-21.6 -7.6 -21.35 -7.3 -21.2 -7.05 Q-21.3 -6.8 -21.6 -6.9 L-22.4 -7.1 -22.65 -7.25 -22.65 -7.3 -22.7 -7.5 -22.65 -7.7 -22.6 -7.85 -22.55 -8.0 -22.4 -8.05 -22.15 -8.1 -22.15 -8.15 -21.9 -8.05 -21.8 -8.0 -21.75 -7.9 M-22.05 -4.25 L-22.0 -4.35 -21.8 -4.45 -21.5 -4.55 -21.15 -4.4 -20.7 -4.1 -20.4 -3.65 -20.3 -3.5 -20.95 -3.35 -21.8 -3.7 -22.1 -4.05 -22.1 -4.15 -22.05 -4.25 M-0.55 -17.25 L-0.9 -17.05 Q-1.15 -17.0 -1.2 -17.2 L-1.2 -17.3 -1.1 -17.4 -0.85 -17.55 -0.75 -17.6 -0.6 -17.65 Q-0.4 -17.45 -0.55 -17.25 M-16.95 -23.5 L-16.8 -23.25 -17.05 -22.9 Q-17.25 -22.8 -17.4 -23.0 L-17.4 -23.1 -17.4 -23.2 -17.2 -23.35 -17.0 -23.5 -16.95 -23.5 M-15.25 -17.65 L-14.65 -17.95 -14.65 -18.0 -14.3 -17.9 -14.05 -17.65 -14.0 -17.25 -14.0 -17.15 -14.25 -16.95 -15.0 -16.85 -15.45 -17.15 -15.45 -17.35 -15.25 -17.65 M-11.45 -12.8 L-11.3 -12.7 -11.2 -12.55 -11.15 -12.35 -11.2 -12.15 Q-11.3 -11.95 -11.65 -12.0 L-12.05 -12.3 -12.05 -12.4 -12.05 -12.5 -12.0 -12.6 -11.9 -12.75 -11.65 -12.85 -11.65 -12.9 -11.45 -12.8 M-12.55 -10.9 L-12.5 -10.75 -12.4 -10.45 -12.45 -10.15 -12.5 -10.05 -12.6 -10.0 -12.7 -9.9 -13.2 -9.85 -13.35 -10.0 -13.45 -10.15 -13.5 -10.45 -13.3 -10.8 -13.2 -11.0 -13.1 -11.1 -12.9 -11.15 -12.75 -11.1 -12.6 -11.0 -12.55 -10.9 M-10.9 -7.8 L-10.7 -7.7 -10.55 -7.65 -10.45 -7.55 -10.45 -7.35 -10.5 -7.0 -10.4 -6.6 -10.3 -6.25 -10.5 -6.3 -10.9 -6.6 -11.3 -7.0 -11.3 -7.05 -11.35 -7.15 -11.35 -7.25 -11.35 -7.45 -11.3 -7.55 -11.25 -7.6 -11.1 -7.7 -10.9 -7.75 -10.9 -7.8 M-18.55 -1.95 L-18.4 -1.95 -18.4 -2.0 -17.8 -1.45 -17.55 -0.7 Q-17.5 -0.25 -17.85 -0.05 -18.3 0.0 -18.55 -0.35 L-18.85 -1.05 -18.85 -1.7 -18.8 -1.8 -18.7 -1.85 -18.55 -1.95 M-10.15 -2.9 Q-8.8 -2.3 -8.2 -0.75 L-7.55 1.35 Q-7.2 2.8 -7.25 4.2 L-7.35 4.5 -7.85 4.05 -8.05 3.3 -8.15 2.5 -8.2 2.25 -8.25 2.2 -8.3 2.15 -8.4 2.15 -8.7 2.0 -9.35 0.55 -10.0 -1.15 -10.3 -2.8 -10.15 -2.9 M-0.95 -5.2 L-0.5 -5.4 -0.3 -5.35 -0.2 -5.25 -0.15 -5.15 -0.1 -5.05 -0.15 -4.9 -0.45 -4.5 -0.95 -4.6 -1.05 -4.8 -0.95 -5.2 M-7.5 5.95 Q-7.15 6.0 -7.0 6.4 L-6.9 7.15 Q-6.9 7.6 -7.25 7.8 -7.85 7.9 -7.9 7.3 L-7.95 6.45 Q-7.95 6.0 -7.5 6.0 L-7.5 5.95 M-1.05 7.05 L-0.95 7.1 -0.6 8.2 -0.65 9.6 -0.8 10.85 -0.8 10.95 Q-1.6 10.95 -1.85 10.0 L-1.85 8.55 -1.65 7.2 -1.6 7.15 -1.45 7.05 -1.25 7.0 -1.25 6.95 -1.05 7.05 M-16.1 1.3 L-16.1 1.5 Q-16.35 1.75 -16.6 1.4 L-16.9 0.9 -16.75 0.45 -16.7 0.45 -16.5 0.75 -16.3 0.95 -16.1 1.3 M-15.2 2.7 L-14.2 4.5 -12.85 6.4 Q-12.2 7.35 -11.8 8.45 L-11.8 8.5 -11.85 8.6 -11.95 8.8 -12.0 9.0 -12.0 9.1 Q-13.2 8.5 -14.05 7.05 L-15.5 4.45 Q-16.25 3.2 -15.65 2.45 L-15.45 2.55 -15.3 2.65 -15.2 2.7 M-15.8 5.9 L-15.35 6.05 -14.95 6.35 Q-15.0 6.75 -15.5 6.9 -16.15 7.1 -16.5 6.5 L-16.55 6.05 -16.25 5.75 -15.8 5.9 M-19.55 10.9 L-19.5 10.8 -19.35 10.75 -19.15 10.65 -16.55 12.6 -14.0 14.75 Q-12.75 15.9 -12.15 17.2 -13.45 17.1 -14.6 15.7 -15.7 14.35 -17.15 13.3 L-19.55 11.0 -19.55 10.9 M-27.95 3.4 Q-27.8 3.25 -27.6 3.2 L-27.5 3.15 -27.35 3.1 -27.15 3.6 -26.75 4.05 Q-26.5 4.3 -26.6 4.6 -26.85 5.15 -27.4 4.75 L-28.0 4.1 -28.1 3.55 -27.95 3.4 M-20.4 8.45 Q-20.2 8.45 -20.25 8.65 L-20.5 8.95 -20.9 8.9 -20.95 8.8 -20.9 8.65 -20.75 8.55 -20.65 8.5 -20.55 8.45 -20.4 8.45 M-22.5 30.55 L-22.35 30.5 Q-22.25 30.75 -22.45 31.1 L-22.9 31.65 -23.55 31.7 Q-23.7 31.4 -23.5 31.1 L-23.0 30.75 -22.5 30.55 M-27.2 33.6 Q-26.95 33.85 -27.2 34.05 L-27.6 34.4 Q-27.95 34.6 -28.1 34.25 L-28.1 34.15 -28.1 34.05 -28.1 33.95 -28.1 33.85 -28.05 33.8 -27.95 33.7 -27.75 33.65 -27.45 33.65 -27.35 33.6 -27.25 33.6 -27.2 33.6 M-25.65 33.2 L-26.05 33.4 -26.15 33.4 -26.45 33.35 -26.05 33.2 -26.0 33.2 -25.65 33.0 -25.5 32.95 -25.45 32.95 -25.65 33.2 M-21.7 34.0 L-21.65 34.1 -21.65 34.2 -21.7 34.25 -21.8 34.45 -21.9 34.55 -22.0 34.6 -22.5 34.7 -23.3 34.6 -23.35 34.5 -23.4 34.4 -23.4 34.3 -23.4 34.1 -23.4 33.95 -23.3 33.85 -23.2 33.75 -23.1 33.7 -22.9 33.65 -22.15 33.7 -21.8 33.85 -21.7 34.0 M-19.6 26.75 Q-19.15 26.45 -18.7 26.75 L-18.6 26.75 -18.5 26.65 -18.4 26.55 -18.35 26.5 -18.3 26.45 -18.2 26.45 -18.7 27.05 -19.25 27.65 -19.9 28.0 -20.1 28.0 Q-20.4 27.7 -20.2 27.35 L-19.6 26.75" fill="#400d0d" fill-rule="evenodd" stroke="none"/>
    <path d="M0.3 -10.1 L0.3 -9.7 -0.05 -9.65 -0.35 -10.0 -0.3 -10.15 0.0 -10.25 0.3 -10.1 M17.5 -7.05 L17.5 -6.6 17.1 -6.45 16.9 -6.5 16.8 -6.7 16.8 -6.95 17.1 -7.2 17.5 -7.05 M4.55 1.1 L4.65 1.4 4.55 1.75 4.4 1.9 4.25 2.0 3.9 1.9 3.75 1.75 3.75 1.55 3.95 1.3 4.3 1.1 4.55 1.1 M6.95 7.6 L6.75 8.1 6.3 8.0 6.2 7.8 6.2 7.55 Q6.3 7.25 6.6 7.3 L6.6 7.25 6.95 7.6 M7.35 15.75 L7.55 15.85 7.75 16.0 7.8 16.1 7.75 16.55 Q7.45 17.0 7.0 17.1 6.35 17.25 6.05 16.75 L6.05 16.6 6.35 16.15 Q6.7 15.9 7.1 15.75 L7.35 15.75 M-33.25 -4.35 L-33.1 -4.25 -32.95 -4.1 -32.9 -4.0 -32.95 -3.9 -33.25 -3.65 Q-33.65 -3.6 -33.9 -3.9 L-33.9 -4.0 -33.9 -4.1 -33.7 -4.25 -33.5 -4.35 -33.25 -4.35 M-9.65 -2.0 L-9.4 -1.95 -9.25 -1.9 -9.15 -1.8 -9.05 -1.7 -9.05 -1.65 -9.05 -1.45 -9.05 -1.25 -9.15 -1.05 -9.2 -1.0 -9.4 -0.95 -10.05 -1.05 -10.1 -1.15 -10.1 -1.25 -10.15 -1.45 -10.1 -1.65 -10.05 -1.75 -9.95 -1.8 -9.85 -1.9 -9.65 -1.95 -9.65 -2.0 M-0.65 0.2 L-0.45 0.3 -0.3 0.4 -0.2 0.45 -0.1 0.65 -0.05 1.0 -0.05 1.4 -0.15 1.7 -0.35 1.8 -0.9 1.85 -1.3 1.75 -1.45 1.35 -1.3 0.65 Q-1.15 0.4 -0.8 0.25 L-0.65 0.2 M-7.5 17.5 Q-6.95 17.6 -6.75 18.1 L-6.7 19.0 Q-6.85 19.5 -7.15 19.85 L-7.4 19.9 -8.0 19.7 -8.15 19.35 -8.15 19.25 -8.1 19.2 -8.05 19.1 -7.9 18.9 -8.2 18.7 -8.35 18.45 -8.4 18.1 -8.25 17.7 -8.1 17.65 -7.5 17.55 -7.5 17.5 M-23.25 33.6 L-23.15 33.6 -23.0 33.65 -22.85 33.75 -22.7 33.9 -22.7 34.1 -22.85 34.25 -23.05 34.55 -23.15 34.6 -23.5 34.4 -23.65 34.0 -23.4 33.65 -23.25 33.6 M-14.85 26.75 L-15.5 27.05 -15.85 26.95 -15.9 26.85 -15.95 26.7 -15.95 26.5 -15.9 26.3 -15.85 26.2 -15.7 26.15 -15.5 26.05 -15.25 26.0 -15.05 26.1 -14.95 26.2 -14.8 26.35 -14.8 26.45 -14.85 26.75" fill="#ffffff" fill-rule="evenodd" stroke="none"/>
  </g>
</svg>
