<?xml version="1.0" encoding="UTF-8" standalone="no"?>
<svg xmlns:xlink="http://www.w3.org/1999/xlink" height="74.35px" width="96.7px" xmlns="http://www.w3.org/2000/svg">
  <g transform="matrix(1.0, 0.0, 0.0, 1.0, 49.5, 36.4)">
    <path d="M1.8 -36.4 L1.95 -36.25 2.1 -36.05 2.1 -35.75 2.1 -35.65 1.55 -35.6 1.3 -35.85 1.25 -36.05 1.35 -36.2 1.65 -36.4 1.8 -36.4 M1.85 -32.25 L2.4 -31.9 2.55 -31.35 2.2 -30.8 Q1.85 -30.7 1.65 -30.95 L1.4 -31.4 1.4 -31.95 1.45 -32.05 1.5 -32.1 1.6 -32.2 1.65 -32.2 1.85 -32.25 M0.1 -27.8 L0.1 -27.75 0.05 -27.55 -0.35 -27.25 Q-0.65 -27.15 -0.85 -27.4 L-0.9 -27.5 -0.95 -27.55 -1.0 -27.65 -1.0 -27.75 -1.0 -27.85 -0.95 -27.95 -0.85 -28.1 -0.65 -28.25 -0.4 -28.35 -0.2 -28.25 0.0 -28.1 0.1 -27.8 M14.6 -24.9 L14.95 -24.85 15.25 -24.75 15.5 -24.5 15.55 -24.3 15.5 -24.0 15.3 -23.85 14.85 -23.6 14.6 -23.5 Q14.25 -23.5 14.05 -23.85 L14.0 -24.4 Q14.05 -24.75 14.4 -24.85 L14.6 -24.9 M16.85 -28.25 L17.0 -28.15 17.2 -28.0 17.25 -27.75 17.2 -27.65 17.1 -27.45 16.65 -27.4 16.45 -27.65 16.45 -27.75 16.45 -27.85 16.45 -27.95 16.55 -28.1 16.7 -28.2 16.85 -28.25 M10.3 -17.1 L10.15 -17.25 10.15 -17.35 10.15 -17.45 10.3 -17.6 10.5 -17.7 10.5 -17.75 10.9 -17.45 10.75 -17.1 Q10.55 -16.95 10.3 -17.1 M10.95 -15.5 L11.1 -15.4 11.2 -15.3 11.3 -15.25 11.3 -15.15 11.35 -15.05 11.35 -14.95 11.3 -14.75 11.2 -14.55 11.0 -14.45 10.15 -14.4 10.05 -14.45 9.95 -14.75 10.05 -15.25 10.55 -15.5 10.75 -15.55 10.95 -15.5 M0.25 -22.75 L-0.1 -22.8 -0.4 -23.0 -0.6 -23.4 -0.65 -23.5 -0.6 -23.6 -0.6 -23.7 -0.55 -23.8 -0.3 -23.95 -0.15 -24.0 0.3 -23.8 0.5 -23.25 0.35 -22.8 0.25 -22.75 M19.0 -8.85 L19.15 -8.8 19.35 -8.6 19.45 -8.45 19.15 -8.2 Q18.6 -8.0 18.5 -8.5 L18.65 -8.8 18.85 -8.9 19.0 -8.85 M23.05 -15.8 L23.25 -15.8 23.45 -15.7 23.7 -15.55 23.7 -15.45 23.75 -15.35 23.7 -15.25 23.6 -14.95 23.5 -14.7 23.4 -14.5 22.35 -14.55 Q21.95 -14.95 22.2 -15.45 22.3 -15.7 22.55 -15.75 L22.85 -15.85 23.05 -15.8 M22.35 -13.0 L22.7 -12.8 23.0 -12.65 23.2 -12.4 23.2 -12.3 22.9 -11.95 Q22.4 -11.75 22.05 -12.1 L21.85 -12.5 21.85 -12.6 21.9 -12.7 22.05 -12.85 22.2 -12.95 22.35 -13.0 M46.95 3.65 L47.05 3.75 Q47.4 4.25 46.95 4.7 46.3 5.3 45.95 4.5 45.55 3.65 46.5 3.5 L46.75 3.55 46.95 3.65 M45.55 6.2 L45.75 6.15 45.95 6.25 46.1 6.3 46.2 6.5 46.25 6.6 46.25 6.75 46.0 7.15 45.5 7.2 45.35 7.1 45.3 7.0 45.2 6.8 45.2 6.6 45.25 6.5 45.35 6.35 45.55 6.2 M38.25 5.75 L38.5 5.6 38.6 5.65 38.75 5.7 38.9 5.8 38.95 5.95 38.95 6.05 38.65 6.3 38.2 6.0 38.25 5.75 M33.05 6.9 L33.1 7.0 33.1 7.2 33.15 7.35 33.15 7.45 Q32.85 7.85 32.35 7.8 L32.0 7.55 31.95 7.35 Q31.95 7.15 32.2 7.1 L32.85 6.95 33.0 6.9 33.05 6.9 M18.6 10.6 L18.9 10.75 19.05 11.0 19.1 11.3 19.05 11.5 18.9 11.55 18.35 11.45 18.2 11.1 18.2 11.0 18.2 10.9 18.3 10.7 18.45 10.65 18.6 10.6 M2.35 3.55 L2.5 3.6 2.85 3.65 3.15 3.75 3.2 3.85 3.2 4.2 2.7 4.85 1.45 4.9 1.4 4.7 1.35 4.6 1.35 4.5 1.35 4.35 1.35 3.95 1.55 3.7 1.65 3.6 1.8 3.55 2.0 3.5 2.35 3.55 M0.2 4.75 L0.15 4.85 0.1 5.0 -0.2 5.35 -0.55 5.6 Q-1.15 5.75 -1.4 5.1 L-1.4 4.25 -0.9 3.75 -0.65 3.65 -0.4 3.75 -0.25 3.8 -0.2 3.9 -0.1 4.1 0.05 4.35 0.15 4.65 0.2 4.75 M5.5 9.1 L6.25 9.3 6.85 9.75 6.7 10.5 Q6.0 10.9 5.25 10.5 4.6 10.15 4.9 9.5 5.05 9.25 5.3 9.15 L5.5 9.1 M0.1 23.65 Q-0.2 24.35 -0.9 24.7 -1.5 24.45 -1.5 23.75 L-1.55 22.35 Q-1.65 21.6 -1.0 21.2 L-0.65 21.05 Q0.35 21.1 0.4 22.05 0.45 22.9 0.1 23.65 M6.8 15.75 Q7.25 16.4 7.35 17.15 7.45 17.9 7.15 18.5 5.7 19.45 4.7 18.1 4.05 17.2 4.35 16.1 4.6 15.25 5.5 15.15 6.35 15.1 6.8 15.75 M-49.15 -25.2 L-49.1 -25.2 -48.9 -25.25 -48.35 -24.8 Q-48.2 -24.5 -48.35 -24.15 L-48.9 -23.75 -49.35 -24.0 -49.5 -24.5 -49.4 -24.95 -49.4 -25.05 -49.3 -25.1 -49.15 -25.2 M-45.15 -22.25 L-44.65 -21.9 -44.45 -21.3 -44.6 -20.75 -44.7 -20.65 -45.0 -20.6 -45.8 -20.75 -45.95 -21.1 -45.8 -21.7 -45.3 -22.15 -45.15 -22.25 M-43.95 -15.5 L-44.45 -15.45 -44.6 -15.65 -44.6 -15.9 -44.4 -16.1 -44.25 -16.15 Q-43.95 -16.15 -43.85 -15.85 -43.75 -15.65 -43.95 -15.5 M-41.05 -13.15 L-41.0 -13.3 -40.8 -13.45 -40.5 -13.6 -40.3 -13.4 -40.15 -13.15 -40.1 -12.9 -40.15 -12.8 Q-40.3 -12.6 -40.5 -12.65 -40.85 -12.65 -41.0 -12.95 L-41.05 -13.15 M-17.45 -35.5 L-17.35 -35.45 -17.2 -35.25 -17.15 -35.15 -17.15 -35.0 Q-17.2 -34.75 -17.4 -34.6 L-17.9 -34.55 -18.0 -34.7 -18.1 -34.85 -18.15 -35.05 -18.15 -35.3 -18.05 -35.4 -17.95 -35.5 -17.85 -35.55 -17.65 -35.6 -17.45 -35.5 M-19.25 -31.0 L-19.3 -30.8 -19.4 -30.75 -19.65 -30.65 -20.15 -30.65 -20.45 -30.75 -20.55 -30.85 -20.6 -31.05 -20.6 -31.4 -20.3 -31.7 -20.15 -31.75 -19.65 -31.7 -19.45 -31.65 -19.3 -31.55 -19.25 -31.45 -19.25 -31.4 -19.2 -31.2 -19.25 -31.0 M-16.55 -29.45 L-16.45 -29.4 -16.4 -29.3 -16.35 -29.2 -16.35 -29.0 -16.45 -28.75 -16.55 -28.55 -16.75 -28.5 -17.0 -28.55 -17.3 -28.75 -17.35 -28.8 -17.35 -28.9 -17.4 -29.0 -17.35 -29.1 -17.35 -29.3 -17.3 -29.4 -17.2 -29.45 -17.05 -29.5 -16.9 -29.55 -16.75 -29.55 -16.55 -29.45 M-15.95 -25.65 L-15.7 -25.5 -15.6 -25.25 -15.65 -25.15 Q-15.7 -24.85 -16.0 -24.9 -16.5 -24.9 -16.55 -25.4 L-16.4 -25.65 -16.15 -25.75 -15.95 -25.65 M-28.7 -23.25 L-28.8 -22.95 Q-29.05 -22.6 -29.5 -22.8 L-29.6 -22.9 -29.75 -23.1 -29.8 -23.35 -29.7 -23.65 -29.6 -23.7 -29.5 -23.8 -29.25 -23.85 -29.25 -23.9 -29.0 -23.8 -28.9 -23.7 -28.7 -23.55 -28.65 -23.45 -28.7 -23.25 M-27.15 -16.05 L-28.05 -16.15 -28.2 -16.5 -27.9 -17.15 -27.25 -17.5 -27.05 -17.45 -26.9 -17.35 -26.8 -17.15 -26.7 -16.8 -26.8 -16.4 -26.9 -16.25 -27.15 -16.05 M-24.65 -15.65 L-24.4 -15.55 -24.3 -15.45 -24.2 -15.4 -24.15 -15.2 -24.15 -14.8 -24.4 -14.45 -24.65 -14.35 -25.0 -14.55 -25.2 -14.9 -25.1 -15.35 -25.05 -15.45 -24.95 -15.55 -24.85 -15.6 -24.65 -15.6 -24.65 -15.65 M-9.3 4.3 L-9.15 4.2 -8.9 4.15 -8.9 4.1 Q-8.55 4.2 -8.25 4.5 -7.95 4.8 -8.0 5.25 L-8.35 5.85 -8.5 5.95 -8.75 6.0 -9.05 5.95 -9.15 5.85 -9.25 5.75 -9.35 5.6 -9.4 5.3 -9.5 4.85 -9.4 4.35 -9.3 4.3 M-12.4 9.2 L-12.3 9.3 -12.2 9.35 Q-12.0 9.9 -12.4 10.4 L-13.3 11.25 -14.3 11.2 -14.55 10.3 Q-14.55 9.7 -14.0 9.45 L-12.75 9.1 -12.65 9.15 -12.4 9.2 M-14.7 15.8 L-15.1 16.15 Q-15.75 16.35 -16.35 15.95 L-17.05 15.0 -17.05 14.9 -17.05 14.8 -17.0 14.7 -16.9 14.6 -16.7 14.5 -16.5 14.45 Q-16.05 14.4 -15.7 14.7 L-15.2 15.1 Q-14.8 15.3 -14.75 15.7 L-14.7 15.8 M-10.7 21.3 L-9.25 20.0 -8.8 19.45 -8.75 19.35 -9.1 18.6 Q-9.2 17.75 -8.4 17.45 L-7.5 17.3 Q-7.1 17.35 -6.9 17.65 L-6.7 18.3 -6.7 18.95 Q-5.2 17.35 -4.8 19.35 -4.7 19.85 -5.25 20.15 -6.6 20.9 -8.1 21.25 L-9.0 22.35 -11.2 22.4 -11.3 22.25 Q-11.25 21.65 -10.7 21.3 M-2.15 12.45 L-1.75 12.25 -1.35 12.4 -0.95 12.75 -0.85 13.25 -0.85 13.35 -1.0 13.65 Q-1.4 14.05 -1.9 14.05 L-2.45 13.8 -2.55 13.5 -2.5 12.95 -2.15 12.45 M-25.6 33.55 L-25.45 33.65 -25.35 33.8 -25.3 34.0 -25.35 34.1 -25.4 34.2 -25.5 34.35 -25.6 34.45 -25.75 34.5 -25.95 34.45 -26.2 34.3 -26.45 34.05 -26.45 33.95 -26.45 33.85 -26.3 33.7 Q-26.1 33.45 -25.75 33.5 L-25.75 33.45 -25.6 33.55 M-32.05 36.75 L-31.95 36.7 -31.75 36.65 -31.65 36.65 -31.45 36.65 -31.25 36.75 -31.1 36.8 -31.0 37.0 -30.95 37.1 -30.85 37.3 -30.85 37.55 -30.95 37.75 -31.2 37.9 -31.5 37.95 -32.2 37.65 -32.3 37.55 -32.3 37.45 -32.3 37.4 -32.3 37.3 -32.3 37.1 -32.25 36.9 -32.15 36.8 -32.05 36.75 M-26.35 37.65 Q-26.35 37.95 -26.65 37.95 L-26.95 37.65 -26.95 37.55 -26.95 37.5 -26.75 37.35 -26.65 37.3 Q-26.35 37.35 -26.35 37.65" fill="#400d0d" fill-rule="evenodd" stroke="none"/>
    <path d="M23.05 -16.25 L23.15 -16.2 23.2 -16.1 23.25 -16.0 23.25 -15.9 23.25 -15.7 23.2 -15.55 23.15 -15.45 23.0 -15.35 Q22.65 -15.2 22.3 -15.35 L22.2 -15.4 22.15 -15.5 22.1 -15.6 22.1 -15.8 22.15 -15.95 22.2 -16.15 22.3 -16.25 22.45 -16.3 22.6 -16.35 22.85 -16.35 23.05 -16.25 M46.45 3.05 L46.6 3.0 46.85 3.2 46.95 3.45 46.9 3.7 46.85 3.8 46.75 3.9 46.2 3.9 46.05 3.7 46.05 3.6 46.0 3.5 46.05 3.4 46.1 3.3 46.2 3.2 46.3 3.15 46.35 3.05 46.45 3.05 M2.25 2.85 L2.4 2.8 2.5 2.75 2.85 3.2 2.75 3.75 2.35 4.05 2.1 3.85 2.0 3.6 2.0 3.25 2.0 3.15 2.05 3.05 2.25 2.85 M6.35 16.45 L6.2 16.75 5.75 17.1 4.5 17.05 Q4.2 16.85 4.2 16.45 L4.25 16.3 4.3 16.2 4.55 16.0 5.1 15.65 5.35 15.55 5.75 15.6 6.0 15.65 6.1 15.7 6.2 15.8 6.2 15.9 6.35 16.2 6.35 16.45 M-45.3 -22.15 L-45.15 -21.9 -45.15 -21.8 -45.15 -21.7 -45.2 -21.6 -45.25 -21.5 -45.35 -21.4 -45.5 -21.4 Q-45.75 -21.45 -45.95 -21.6 L-46.1 -22.0 -45.75 -22.3 -45.5 -22.3 -45.3 -22.15 M-29.45 -24.15 L-29.25 -23.95 -29.15 -23.75 -29.2 -23.6 -29.2 -23.55 -29.5 -23.5 Q-29.9 -23.55 -29.75 -23.9 L-29.55 -24.1 -29.45 -24.15 M-27.4 -17.25 L-27.4 -16.95 -27.45 -16.8 -27.55 -16.7 -27.75 -16.65 -28.1 -16.7 -28.2 -16.8 -28.3 -16.9 -28.35 -16.95 -28.4 -17.15 -28.35 -17.45 -28.3 -17.55 -28.2 -17.6 -28.1 -17.7 -27.9 -17.75 -27.9 -17.8 -27.75 -17.75 -27.55 -17.7 -27.45 -17.65 -27.4 -17.55 -27.4 -17.45 -27.4 -17.25 M-8.5 17.8 L-8.3 17.85 -8.15 17.95 -8.05 18.05 Q-7.9 18.25 -7.9 18.5 L-8.0 19.25 Q-8.05 19.65 -8.4 19.9 L-8.45 19.95 -8.65 20.0 -8.75 20.0 -9.0 19.9 -9.15 19.85 -9.2 19.45 -9.2 18.8 -9.1 18.15 -9.0 17.95 -8.85 17.9 -8.65 17.8 -8.5 17.8" fill="#ffffff" fill-rule="evenodd" stroke="none"/>
  </g>
</svg>
