<?xml version="1.0" encoding="UTF-8" standalone="no"?>
<svg xmlns:xlink="http://www.w3.org/1999/xlink" height="27.3px" width="244.0px" xmlns="http://www.w3.org/2000/svg">
  <g transform="matrix(1.0, 0.0, 0.0, 1.0, -7.55, -534.35)">
    <path d="M208.95 537.05 L208.45 538.5 207.7 538.2 Q207.35 538.2 207.1 538.4 206.85 538.6 206.75 539.1 206.6 539.6 206.6 541.2 L206.6 543.1 204.95 543.1 204.95 536.9 206.45 536.9 206.45 537.75 207.2 536.95 207.9 536.75 208.95 537.05 M202.8 542.3 Q201.9 543.25 200.5 543.25 L198.85 542.85 Q198.1 542.45 197.7 541.7 197.3 540.95 197.3 539.9 197.3 539.1 197.7 538.3 198.1 537.55 198.85 537.15 199.55 536.75 200.5 536.75 201.9 536.75 202.8 537.65 203.7 538.55 203.7 539.95 203.7 541.4 202.8 542.3 M220.65 536.9 L218.9 537.2 Q218.75 536.6 218.25 536.2 217.75 535.85 217.0 535.85 215.85 535.85 215.2 536.55 214.5 537.3 214.5 538.7 214.5 540.25 215.2 541.0 215.85 541.75 216.95 541.75 L218.05 541.55 219.0 541.05 219.0 539.95 217.0 539.95 217.0 538.5 220.75 538.5 220.75 541.9 219.2 542.85 217.1 543.25 Q215.75 543.25 214.75 542.7 213.75 542.1 213.25 541.05 212.7 540.0 212.7 538.8 212.7 537.45 213.3 536.4 213.85 535.35 214.95 534.8 215.75 534.35 217.0 534.35 218.6 534.35 219.5 535.05 220.4 535.7 220.65 536.9 M222.2 540.45 L222.9 539.85 224.2 539.45 225.8 539.05 225.8 538.9 225.55 538.2 224.7 538.0 224.0 538.15 223.6 538.8 222.1 538.5 Q222.35 537.6 222.95 537.15 L224.8 536.75 226.45 537.0 227.2 537.65 Q227.4 538.05 227.4 539.15 L227.4 541.05 227.5 542.25 227.75 543.1 226.15 543.1 226.0 542.6 225.9 542.4 225.0 543.05 224.0 543.25 Q223.05 543.25 222.5 542.7 221.95 542.2 221.95 541.4 221.95 540.85 222.2 540.45 M231.1 538.2 Q230.8 538.4 230.65 538.8 L230.55 540.1 230.55 543.1 228.9 543.1 228.9 536.9 230.4 536.9 230.4 537.75 Q231.2 536.75 232.35 536.75 L233.4 537.0 234.1 537.75 235.0 537.0 236.0 536.75 237.15 537.0 237.85 537.85 238.05 539.1 238.05 543.1 236.4 543.1 236.4 539.55 Q236.4 538.6 236.2 538.35 236.0 538.0 235.5 538.0 L234.85 538.2 234.45 538.85 Q234.3 539.25 234.3 540.1 L234.3 543.1 232.65 543.1 232.65 539.7 232.55 538.5 232.3 538.15 231.8 538.0 231.1 538.2 M225.8 540.1 L224.8 540.35 223.9 540.65 Q223.55 540.9 223.55 541.25 223.55 541.6 223.85 541.85 L224.5 542.1 225.35 541.8 225.75 541.25 225.8 540.45 225.8 540.1 M242.05 536.75 Q243.4 536.75 244.25 537.65 245.05 538.55 245.0 540.45 L240.85 540.45 Q240.9 541.2 241.25 541.6 241.65 542.0 242.2 542.0 L242.85 541.8 243.25 541.1 244.9 541.4 Q244.6 542.3 243.9 542.75 L242.2 543.25 Q240.6 543.25 239.8 542.2 239.2 541.35 239.2 540.05 239.2 538.5 240.0 537.6 240.8 536.75 242.05 536.75 M240.9 539.45 L243.35 539.45 Q243.35 538.75 243.0 538.35 242.65 538.0 242.15 538.0 241.6 538.0 241.25 538.4 240.9 538.8 240.9 539.45 M169.45 536.9 L166.85 543.95 166.45 544.8 166.0 545.25 165.35 545.55 164.5 545.65 163.6 545.55 163.45 544.25 164.15 544.3 165.0 544.0 165.4 543.1 163.05 536.9 164.8 536.9 166.25 541.3 167.75 536.9 169.45 536.9 M174.7 543.1 L172.85 543.1 176.2 534.5 178.05 534.5 181.45 543.1 179.6 543.1 178.85 541.15 175.4 541.15 174.7 543.1 M175.95 539.7 L178.3 539.7 177.1 536.5 175.95 539.7 M190.35 536.75 L191.4 537.0 192.1 537.75 193.0 537.0 194.0 536.75 195.15 537.0 195.85 537.85 196.05 539.1 196.05 543.1 194.4 543.1 194.4 539.55 Q194.4 538.6 194.2 538.35 194.0 538.0 193.5 538.0 L192.85 538.2 192.45 538.85 Q192.3 539.25 192.3 540.1 L192.3 543.1 190.65 543.1 190.65 539.7 190.55 538.5 190.3 538.15 189.8 538.0 189.1 538.2 Q188.8 538.4 188.65 538.8 L188.55 540.1 188.55 543.1 186.9 543.1 186.9 536.9 188.4 536.9 188.4 537.75 Q189.2 536.75 190.35 536.75 M185.25 536.75 L186.3 537.05 185.8 538.5 Q185.4 538.2 185.05 538.2 184.7 538.2 184.45 538.4 184.2 538.6 184.1 539.1 183.95 539.6 183.95 541.2 L183.95 543.1 182.3 543.1 182.3 536.9 183.8 536.9 183.8 537.75 184.55 536.95 185.25 536.75 M201.6 541.4 Q202.0 540.9 202.0 540.0 202.0 539.05 201.6 538.55 201.15 538.1 200.5 538.1 199.85 538.1 199.4 538.55 198.95 539.05 198.95 540.0 198.95 540.9 199.4 541.4 199.85 541.9 200.5 541.9 201.15 541.9 201.6 541.4 M195.9 554.4 Q195.55 554.8 195.55 555.45 L198.0 555.45 Q198.0 554.75 197.65 554.35 197.3 554.0 196.8 554.0 196.25 554.0 195.9 554.4 M194.65 553.6 Q195.45 552.75 196.7 552.75 198.05 552.75 198.9 553.65 199.7 554.55 199.65 556.45 L195.5 556.45 Q195.55 557.2 195.9 557.6 196.3 558.0 196.85 558.0 L197.5 557.8 197.9 557.1 199.55 557.4 Q199.25 558.3 198.55 558.75 197.85 559.25 196.85 559.25 195.25 559.25 194.45 558.2 193.85 557.35 193.85 556.05 193.85 554.5 194.65 553.6 M192.7 555.1 L192.7 559.1 191.05 559.1 191.05 555.55 Q191.05 554.6 190.85 554.35 190.65 554.0 190.15 554.0 L189.5 554.2 189.1 554.85 Q188.95 555.25 188.95 556.1 L188.95 559.1 187.3 559.1 187.3 555.7 187.2 554.5 186.95 554.15 186.45 554.0 185.75 554.2 185.3 554.8 185.2 556.1 185.2 559.1 183.55 559.1 183.55 552.9 185.05 552.9 185.05 553.75 Q185.85 552.75 187.0 552.75 187.6 552.75 188.05 553.0 L188.75 553.75 189.65 553.0 190.65 552.75 191.8 553.0 192.5 553.85 192.7 555.1 M200.6 554.65 Q200.6 553.85 201.25 553.3 201.9 552.75 203.25 552.75 204.5 552.75 205.15 553.15 205.75 553.55 206.0 554.4 L204.45 554.65 204.05 554.1 203.25 553.9 202.35 554.1 202.15 554.45 202.3 554.75 203.85 555.2 Q205.15 555.5 205.7 555.95 206.2 556.35 206.2 557.15 206.2 558.0 205.5 558.65 204.75 559.25 203.35 559.25 202.1 559.25 201.35 558.75 200.6 558.2 200.4 557.3 L202.05 557.05 202.45 557.8 203.35 558.05 204.3 557.8 204.55 557.4 204.4 557.05 203.85 556.85 Q201.9 556.4 201.35 556.05 200.6 555.55 200.6 554.65 M175.3 552.9 L173.55 553.2 172.9 552.2 Q172.4 551.85 171.65 551.85 170.5 551.85 169.85 552.55 169.15 553.3 169.15 554.7 169.15 556.25 169.85 557.0 170.5 557.75 171.6 557.75 L172.7 557.55 173.65 557.05 173.65 555.95 171.65 555.95 171.65 554.5 175.4 554.5 175.4 557.9 Q174.85 558.45 173.85 558.85 L171.75 559.25 Q170.4 559.25 169.4 558.7 168.4 558.1 167.9 557.05 167.35 556.0 167.35 554.8 167.35 553.45 167.95 552.4 168.5 551.35 169.6 550.8 170.4 550.35 171.65 550.35 173.25 550.35 174.15 551.05 175.05 551.7 175.3 552.9 M181.85 553.65 L182.05 555.15 182.05 557.05 182.15 558.25 182.4 559.1 180.8 559.1 180.65 558.6 180.55 558.4 179.65 559.05 178.65 559.25 Q177.7 559.25 177.15 558.7 176.6 558.2 176.6 557.4 176.6 556.85 176.85 556.45 L177.55 555.85 178.85 555.45 180.45 555.05 180.45 554.9 180.2 554.2 179.35 554.0 178.65 554.15 178.25 554.8 176.75 554.5 Q177.0 553.6 177.6 553.15 L179.45 552.75 181.1 553.0 181.85 553.65 M178.55 556.65 Q178.2 556.9 178.2 557.25 178.2 557.6 178.5 557.85 L179.15 558.1 180.0 557.8 180.4 557.25 180.45 556.45 180.45 556.1 179.45 556.35 178.55 556.65 M163.1 554.5 Q162.7 554.2 162.35 554.2 L161.75 554.4 Q161.5 554.6 161.4 555.1 161.25 555.6 161.25 557.2 L161.25 559.1 159.6 559.1 159.6 552.9 161.1 552.9 161.1 553.75 161.85 552.95 162.55 552.75 163.6 553.05 163.1 554.5 M226.15 553.25 Q226.8 553.7 227.1 554.7 L225.45 555.0 225.1 554.3 224.35 554.05 Q223.7 554.05 223.35 554.45 223.0 554.9 223.0 555.9 223.0 557.0 223.35 557.45 223.75 557.9 224.35 557.9 L225.15 557.65 225.55 556.7 227.15 557.0 Q226.9 558.1 226.2 558.65 225.5 559.25 224.3 559.25 222.9 559.25 222.1 558.4 221.3 557.5 221.3 556.0 221.3 554.45 222.1 553.6 222.95 552.75 224.3 552.75 225.45 552.75 226.15 553.25 M228.3 557.45 L229.95 557.45 229.95 559.1 228.3 559.1 228.3 557.45 M215.95 556.3 L215.95 559.1 214.3 559.1 214.3 552.9 215.85 552.9 215.85 553.8 Q216.65 552.75 217.9 552.75 L218.9 552.95 219.55 553.45 219.9 554.15 219.95 555.25 219.95 559.1 218.35 559.1 218.35 555.9 218.2 554.6 217.9 554.15 217.3 554.0 Q216.9 554.0 216.55 554.25 216.2 554.45 216.1 554.85 215.95 555.25 215.95 556.3 M210.9 559.1 L210.9 550.5 212.65 550.5 212.65 559.1 210.9 559.1 M250.5 537.15 Q251.1 537.55 251.35 538.4 L249.8 538.65 249.4 538.1 248.6 537.9 247.7 538.1 247.5 538.45 247.65 538.75 249.2 539.2 Q250.5 539.5 251.05 539.95 251.55 540.35 251.55 541.15 251.55 542.0 250.85 542.65 250.1 543.25 248.7 543.25 247.45 543.25 246.7 542.75 245.95 542.2 245.75 541.3 L247.4 541.05 247.8 541.8 248.7 542.05 249.65 541.8 249.9 541.4 249.75 541.05 249.2 540.85 246.7 540.05 Q245.95 539.55 245.95 538.65 245.95 537.85 246.6 537.3 247.25 536.75 248.6 536.75 L250.5 537.15 M49.25 537.05 Q49.75 536.75 50.4 536.75 51.45 536.75 52.25 537.6 53.0 538.45 53.0 539.95 53.0 541.5 52.2 542.4 51.45 543.25 50.4 543.25 L49.45 543.05 48.55 542.35 48.55 545.45 46.9 545.45 46.9 536.9 48.45 536.9 48.45 537.8 49.25 537.05 M44.75 537.65 Q45.65 538.55 45.65 539.95 45.65 541.4 44.75 542.3 43.85 543.25 42.45 543.25 41.6 543.25 40.8 542.85 40.05 542.45 39.65 541.7 39.25 540.95 39.25 539.9 39.25 539.1 39.65 538.3 40.05 537.55 40.8 537.15 41.5 536.75 42.45 536.75 43.85 536.75 44.75 537.65 M42.45 541.9 Q43.1 541.9 43.55 541.4 43.95 540.9 43.95 540.0 43.95 539.05 43.55 538.55 43.1 538.1 42.45 538.1 41.8 538.1 41.35 538.55 40.9 539.05 40.9 540.0 40.9 540.9 41.35 541.4 41.8 541.9 42.45 541.9 M49.95 541.95 Q50.55 541.95 50.95 541.5 51.3 541.0 51.3 539.95 51.3 539.0 50.9 538.5 50.5 538.05 49.95 538.05 49.35 538.05 48.95 538.5 48.55 538.95 48.55 539.9 48.55 540.95 48.95 541.45 49.4 541.95 49.95 541.95 M58.9 537.65 Q59.7 538.55 59.65 540.45 L55.5 540.45 Q55.55 541.2 55.9 541.6 56.3 542.0 56.85 542.0 L57.5 541.8 57.9 541.1 59.55 541.4 Q59.25 542.3 58.55 542.75 57.85 543.25 56.85 543.25 55.25 543.25 54.45 542.2 53.85 541.35 53.85 540.05 53.85 538.5 54.65 537.6 55.45 536.75 56.7 536.75 58.05 536.75 58.9 537.65 M57.65 538.35 Q57.3 538.0 56.8 538.0 56.25 538.0 55.9 538.4 55.55 538.8 55.55 539.45 L58.0 539.45 Q58.0 538.75 57.65 538.35 M65.0 534.5 L66.65 534.5 66.65 543.1 65.15 543.1 65.15 542.2 64.25 543.0 63.2 543.25 Q62.1 543.25 61.35 542.4 60.6 541.5 60.6 539.95 60.6 538.4 61.35 537.55 62.1 536.75 63.2 536.75 64.25 536.75 65.0 537.6 L65.0 534.5 M64.65 538.45 Q64.25 538.0 63.65 538.0 63.05 538.0 62.65 538.45 62.25 538.95 62.25 539.85 62.25 540.85 62.55 541.3 62.95 541.95 63.65 541.95 64.25 541.95 64.65 541.45 65.05 540.95 65.05 540.0 65.05 538.95 64.65 538.45 M79.85 536.9 L79.85 537.8 Q80.65 536.75 81.9 536.75 L82.9 536.95 Q83.35 537.15 83.55 537.45 L83.9 538.15 83.95 539.25 83.95 543.1 82.35 543.1 82.35 539.9 82.2 538.6 81.9 538.15 81.3 538.0 Q80.9 538.0 80.55 538.25 80.2 538.45 80.1 538.85 79.95 539.25 79.95 540.3 L79.95 543.1 78.3 543.1 78.3 536.9 79.85 536.9 M75.75 537.0 L76.5 537.65 Q76.7 538.05 76.7 539.15 L76.7 541.05 76.8 542.25 77.05 543.1 75.45 543.1 75.3 542.6 75.2 542.4 74.3 543.05 73.3 543.25 Q72.35 543.25 71.8 542.7 71.25 542.2 71.25 541.4 71.25 540.85 71.5 540.45 71.75 540.05 72.2 539.85 L73.5 539.45 75.1 539.05 75.1 538.9 74.85 538.2 74.0 538.0 73.3 538.15 72.9 538.8 71.4 538.5 Q71.65 537.6 72.25 537.15 L74.1 536.75 75.75 537.0 M75.1 540.1 L74.1 540.35 73.2 540.65 Q72.85 540.9 72.85 541.25 72.85 541.6 73.15 541.85 73.4 542.1 73.8 542.1 L74.65 541.8 75.05 541.25 75.1 540.45 75.1 540.1 M9.4 541.65 L10.7 541.65 11.75 541.55 12.45 541.2 12.9 540.4 13.1 538.8 12.9 537.3 12.4 536.45 Q12.1 536.15 11.6 536.05 L10.2 535.95 9.4 535.95 9.4 541.65 M7.65 534.5 L10.85 534.5 12.45 534.65 13.75 535.45 14.6 536.85 14.85 538.9 14.6 540.7 13.7 542.25 Q13.25 542.65 12.45 542.9 L10.95 543.1 7.65 543.1 7.65 534.5 M18.7 536.75 Q20.05 536.75 20.9 537.65 21.7 538.55 21.65 540.45 L17.5 540.45 Q17.55 541.2 17.9 541.6 18.3 542.0 18.85 542.0 L19.5 541.8 19.9 541.1 21.55 541.4 Q21.25 542.3 20.55 542.75 19.85 543.25 18.85 543.25 17.25 543.25 16.45 542.2 15.85 541.35 15.85 540.05 15.85 538.5 16.65 537.6 17.45 536.75 18.7 536.75 M19.65 538.35 Q19.3 538.0 18.8 538.0 18.25 538.0 17.9 538.4 17.55 538.8 17.55 539.45 L20.0 539.45 Q20.0 538.75 19.65 538.35 M28.65 536.9 L26.15 543.1 24.65 543.1 22.15 536.9 23.9 536.9 25.4 541.1 25.55 540.6 25.75 540.05 26.95 536.9 28.65 536.9 M29.15 540.05 Q29.15 538.5 29.95 537.6 30.75 536.75 32.0 536.75 33.35 536.75 34.2 537.65 35.0 538.55 34.95 540.45 L30.8 540.45 Q30.85 541.2 31.2 541.6 31.6 542.0 32.15 542.0 L32.8 541.8 33.2 541.1 34.85 541.4 Q34.55 542.3 33.85 542.75 33.15 543.25 32.15 543.25 30.55 543.25 29.75 542.2 29.15 541.35 29.15 540.05 M37.9 534.5 L37.9 543.1 36.25 543.1 36.25 534.5 37.9 534.5 M32.95 538.35 Q32.6 538.0 32.1 538.0 31.55 538.0 31.2 538.4 30.85 538.8 30.85 539.45 L33.3 539.45 Q33.3 538.75 32.95 538.35 M32.2 552.9 L33.65 557.3 35.15 552.9 36.85 552.9 34.25 559.95 33.85 560.8 33.4 561.25 32.75 561.55 31.9 561.65 31.0 561.55 30.85 560.25 31.55 560.3 32.4 560.0 32.8 559.1 30.45 552.9 32.2 552.9 M39.95 552.95 L40.65 552.75 41.7 553.05 41.2 554.5 40.45 554.2 Q40.1 554.2 39.85 554.4 39.6 554.6 39.5 555.1 39.35 555.6 39.35 557.2 L39.35 559.1 37.7 559.1 37.7 552.9 39.2 552.9 39.2 553.75 39.95 552.95 M20.45 554.55 Q20.0 554.1 19.35 554.1 18.7 554.1 18.25 554.55 17.8 555.05 17.8 556.0 17.8 556.9 18.25 557.4 18.7 557.9 19.35 557.9 20.0 557.9 20.45 557.4 20.85 556.9 20.85 556.0 20.85 555.05 20.45 554.55 M22.55 555.95 Q22.55 557.4 21.65 558.3 20.75 559.25 19.35 559.25 L17.7 558.85 Q16.95 558.45 16.55 557.7 16.15 556.95 16.15 555.9 16.15 555.1 16.55 554.3 16.95 553.55 17.7 553.15 18.4 552.75 19.35 552.75 20.75 552.75 21.65 553.65 22.55 554.55 22.55 555.95 M27.3 552.75 Q28.35 552.75 29.15 553.6 29.9 554.45 29.9 555.95 29.9 557.5 29.1 558.4 28.35 559.25 27.3 559.25 L26.35 559.05 25.45 558.35 25.45 561.45 23.8 561.45 23.8 552.9 25.35 552.9 25.35 553.8 26.15 553.05 27.3 552.75 M26.85 554.05 Q26.25 554.05 25.85 554.5 25.45 554.95 25.45 555.9 25.45 556.95 25.85 557.45 26.3 557.95 26.85 557.95 27.45 557.95 27.85 557.5 28.2 557.0 28.2 555.95 28.2 555.0 27.8 554.5 27.4 554.05 26.85 554.05 M12.7 552.25 Q12.2 551.85 11.5 551.85 10.55 551.85 9.95 552.55 9.35 553.2 9.35 554.75 9.35 556.4 9.95 557.05 10.55 557.75 11.45 557.75 12.15 557.75 12.65 557.3 13.15 556.9 13.35 555.95 L15.05 556.5 Q14.65 557.9 13.75 558.55 12.85 559.25 11.5 559.25 9.75 559.25 8.65 558.1 7.55 556.9 7.55 554.9 7.55 552.75 8.7 551.55 9.8 550.35 11.6 550.35 13.15 550.35 14.15 551.3 14.75 551.85 15.05 552.9 L13.3 553.3 Q13.15 552.6 12.7 552.25 M74.95 551.35 Q75.65 550.5 76.9 550.5 78.15 550.5 78.85 551.35 79.7 552.4 79.7 554.85 79.7 557.3 78.85 558.35 78.15 559.25 76.9 559.25 75.65 559.25 74.85 558.3 74.1 557.3 74.1 554.85 74.1 552.4 74.95 551.35 M71.35 553.0 L71.1 552.15 Q70.8 551.85 70.25 551.85 69.75 551.85 69.45 552.15 69.15 552.45 69.1 553.2 L67.45 553.0 Q67.6 551.65 68.35 551.05 69.15 550.5 70.3 550.5 71.55 550.5 72.3 551.15 73.0 551.85 73.0 552.85 L72.8 553.95 72.15 555.05 71.1 556.15 70.1 557.1 69.75 557.55 73.0 557.55 73.0 559.1 67.25 559.1 Q67.35 558.25 67.8 557.45 L69.65 555.4 71.05 554.0 71.35 553.0 M77.8 552.8 L77.45 552.05 76.9 551.85 76.35 552.05 76.0 552.7 Q75.85 553.35 75.85 554.85 75.85 556.4 76.0 556.95 L76.35 557.7 76.9 557.9 77.45 557.7 77.8 557.0 77.95 554.85 77.8 552.8 M63.3 554.2 L62.2 554.2 62.2 556.7 62.25 557.6 62.35 557.8 62.65 557.9 63.3 557.7 63.45 559.0 62.15 559.25 61.35 559.1 60.8 558.7 60.6 558.05 60.55 556.9 60.55 554.2 59.8 554.2 59.8 552.9 60.55 552.9 60.55 551.65 62.2 550.7 62.2 552.9 63.3 552.9 63.3 554.2 M54.75 550.5 L54.75 553.65 Q55.55 552.75 56.65 552.75 L57.7 552.95 58.35 553.5 58.7 554.2 58.75 555.45 58.75 559.1 57.15 559.1 57.15 555.8 57.05 554.55 56.7 554.15 56.1 554.0 55.35 554.2 Q55.05 554.4 54.9 554.8 54.75 555.2 54.75 556.0 L54.75 559.1 53.1 559.1 53.1 550.5 54.75 550.5 M44.05 550.5 L44.05 552.05 42.4 552.05 42.4 550.5 44.05 550.5 M44.05 552.9 L44.05 559.1 42.4 559.1 42.4 552.9 44.05 552.9 M48.0 552.75 Q49.15 552.75 49.9 553.75 L49.9 552.9 51.45 552.9 51.45 558.45 51.3 560.1 50.75 560.95 49.9 561.45 48.5 561.65 Q46.95 561.65 46.25 561.1 45.6 560.55 45.6 559.7 L45.6 559.5 47.5 559.75 47.7 560.2 48.45 560.35 49.4 560.15 49.75 559.75 49.8 559.0 49.8 558.1 Q49.1 559.1 47.95 559.1 46.7 559.1 45.95 558.05 45.4 557.2 45.4 555.95 45.4 554.4 46.15 553.55 46.9 552.75 48.0 552.75 M49.45 554.45 Q49.05 554.0 48.45 554.0 47.85 554.0 47.45 554.45 47.1 554.9 47.1 555.85 47.1 556.85 47.45 557.3 47.85 557.75 48.4 557.75 49.0 557.75 49.45 557.3 49.85 556.85 49.85 555.9 49.85 554.95 49.45 554.45 M127.4 537.9 L126.5 538.1 126.3 538.45 126.45 538.75 128.0 539.2 Q129.3 539.5 129.85 539.95 130.35 540.35 130.35 541.15 130.35 542.0 129.65 542.65 128.9 543.25 127.5 543.25 126.25 543.25 125.5 542.75 124.75 542.2 124.55 541.3 L126.2 541.05 126.6 541.8 127.5 542.05 128.45 541.8 128.7 541.4 128.55 541.05 128.0 540.85 125.5 540.05 Q124.75 539.55 124.75 538.65 124.75 537.85 125.4 537.3 126.05 536.75 127.4 536.75 128.65 536.75 129.3 537.15 129.9 537.55 130.15 538.4 L128.6 538.65 128.2 538.1 127.4 537.9 M123.4 536.9 L123.4 543.1 121.75 543.1 121.75 536.9 123.4 536.9 M123.4 536.05 L121.75 536.05 121.75 534.5 123.4 534.5 123.4 536.05 M137.35 538.2 L137.4 539.45 137.4 543.1 135.8 543.1 135.8 539.8 135.7 538.55 135.35 538.15 134.75 538.0 134.0 538.2 133.55 538.8 Q133.4 539.2 133.4 540.0 L133.4 543.1 131.75 543.1 131.75 534.5 133.4 534.5 133.4 537.65 Q134.2 536.75 135.3 536.75 L136.35 536.95 137.0 537.5 137.35 538.2 M141.5 536.75 Q142.85 536.75 143.7 537.65 144.5 538.55 144.45 540.45 L140.3 540.45 Q140.35 541.2 140.7 541.6 141.1 542.0 141.65 542.0 L142.3 541.8 142.7 541.1 144.35 541.4 Q144.05 542.3 143.35 542.75 142.65 543.25 141.65 543.25 140.05 543.25 139.25 542.2 138.65 541.35 138.65 540.05 138.65 538.5 139.45 537.6 140.25 536.75 141.5 536.75 M140.35 539.45 L142.8 539.45 Q142.8 538.75 142.45 538.35 142.1 538.0 141.6 538.0 141.05 538.0 140.7 538.4 140.35 538.8 140.35 539.45 M149.8 534.5 L151.45 534.5 151.45 543.1 149.95 543.1 149.95 542.2 149.05 543.0 148.0 543.25 Q146.9 543.25 146.15 542.4 145.4 541.5 145.4 539.95 145.4 538.4 146.15 537.55 146.9 536.75 148.0 536.75 149.05 536.75 149.8 537.6 L149.8 534.5 M149.45 538.45 Q149.05 538.0 148.45 538.0 147.85 538.0 147.45 538.45 147.05 538.95 147.05 539.85 147.05 540.85 147.35 541.3 147.75 541.95 148.45 541.95 149.05 541.95 149.45 541.45 149.85 540.95 149.85 540.0 149.85 538.95 149.45 538.45 M161.7 537.55 Q162.45 538.4 162.45 539.9 162.45 541.5 161.7 542.4 160.95 543.25 159.85 543.25 L158.8 543.0 157.9 542.2 157.9 543.1 156.4 543.1 156.4 534.5 158.05 534.5 158.05 537.6 Q158.8 536.75 159.85 536.75 161.0 536.75 161.7 537.55 M160.4 538.45 Q160.0 538.0 159.4 538.0 158.8 538.0 158.4 538.45 158.05 538.9 158.05 539.85 158.05 540.8 158.35 541.3 158.75 541.95 159.45 541.95 160.0 541.95 160.4 541.5 160.8 541.0 160.8 540.0 160.8 538.95 160.4 538.45 M89.7 534.5 L91.35 534.5 91.35 543.1 89.85 543.1 89.85 542.2 88.95 543.0 87.9 543.25 Q86.8 543.25 86.05 542.4 85.3 541.5 85.3 539.95 85.3 538.4 86.05 537.55 86.8 536.75 87.9 536.75 88.95 536.75 89.7 537.6 L89.7 534.5 M89.35 538.45 Q88.95 538.0 88.35 538.0 87.75 538.0 87.35 538.45 86.95 538.95 86.95 539.85 86.95 540.85 87.25 541.3 87.65 541.95 88.35 541.95 88.95 541.95 89.35 541.45 89.75 540.95 89.75 540.0 89.75 538.95 89.35 538.45 M97.85 536.9 L97.85 537.8 98.65 537.05 Q99.15 536.75 99.8 536.75 100.85 536.75 101.65 537.6 102.4 538.45 102.4 539.95 102.4 541.5 101.6 542.4 100.85 543.25 99.8 543.25 L98.85 543.05 Q98.4 542.85 97.95 542.35 L97.95 545.45 96.3 545.45 96.3 536.9 97.85 536.9 M99.35 541.95 Q99.95 541.95 100.35 541.5 100.7 541.0 100.7 539.95 100.7 539.0 100.3 538.5 99.9 538.05 99.35 538.05 98.75 538.05 98.35 538.5 97.95 538.95 97.95 539.9 97.95 540.95 98.35 541.45 98.8 541.95 99.35 541.95 M109.35 536.9 L109.35 543.1 107.8 543.1 107.8 542.15 106.9 542.95 105.75 543.25 104.6 542.95 103.9 542.2 103.7 540.8 103.7 536.9 105.3 536.9 105.3 539.75 105.4 541.35 105.75 541.8 106.35 542.0 107.1 541.75 107.55 541.2 107.7 539.5 107.7 536.9 109.35 536.9 M111.0 534.5 L112.65 534.5 112.65 537.6 Q113.4 536.75 114.45 536.75 115.6 536.75 116.3 537.55 117.05 538.4 117.05 539.9 117.05 541.5 116.3 542.4 115.55 543.25 114.45 543.25 L113.4 543.0 112.5 542.2 112.5 543.1 111.0 543.1 111.0 534.5 M120.05 534.5 L120.05 543.1 118.4 543.1 118.4 534.5 120.05 534.5 M115.0 538.45 Q114.6 538.0 114.0 538.0 113.4 538.0 113.0 538.45 112.65 538.9 112.65 539.85 112.65 540.8 112.95 541.3 113.35 541.95 114.05 541.95 114.6 541.95 115.0 541.5 115.4 541.0 115.4 540.0 115.4 538.95 115.0 538.45 M113.1 554.85 Q113.1 556.4 113.25 556.95 L113.6 557.7 114.15 557.9 114.7 557.7 115.05 557.0 115.2 554.85 115.05 552.8 114.7 552.05 114.15 551.85 113.6 552.05 113.25 552.7 Q113.1 553.35 113.1 554.85 M120.05 553.55 Q120.3 553.85 120.8 553.85 121.25 553.85 121.55 553.55 L121.8 552.8 121.55 552.05 Q121.25 551.8 120.8 551.8 120.3 551.8 120.05 552.05 119.75 552.35 119.75 552.8 119.75 553.3 120.05 553.55 M118.2 552.7 Q118.2 551.75 118.9 551.1 119.55 550.5 120.8 550.5 122.0 550.5 122.7 551.1 123.35 551.75 123.35 552.7 L123.05 553.75 122.2 554.45 123.25 555.3 Q123.65 555.85 123.65 556.55 123.65 557.75 122.9 558.5 122.1 559.25 120.85 559.25 119.7 559.25 118.9 558.65 118.0 557.9 118.0 556.65 118.0 555.95 118.35 555.35 118.7 554.8 119.4 554.45 L118.5 553.75 Q118.2 553.25 118.2 552.7 M119.9 555.6 Q119.6 556.0 119.6 556.5 119.6 557.15 119.95 557.55 120.3 557.95 120.85 557.95 121.35 557.95 121.65 557.55 122.0 557.2 122.0 556.5 122.0 555.9 121.65 555.55 121.35 555.15 120.8 555.15 120.2 555.15 119.9 555.6 M116.95 554.85 Q116.95 557.3 116.1 558.35 115.4 559.25 114.15 559.25 112.9 559.25 112.1 558.3 111.35 557.3 111.35 554.85 111.35 552.4 112.2 551.35 112.9 550.5 114.15 550.5 115.4 550.5 116.1 551.35 116.95 552.4 116.95 554.85 M105.55 551.35 Q106.25 550.5 107.5 550.5 108.75 550.5 109.45 551.35 110.3 552.4 110.3 554.85 110.3 557.3 109.45 558.35 108.75 559.25 107.5 559.25 106.25 559.25 105.45 558.3 104.7 557.3 104.7 554.85 104.7 552.4 105.55 551.35 M103.4 553.95 L102.75 555.05 101.7 556.15 100.7 557.1 100.35 557.55 103.6 557.55 103.6 559.1 97.85 559.1 Q97.95 558.25 98.4 557.45 98.9 556.7 100.25 555.4 L101.65 554.0 101.95 553.0 101.7 552.15 Q101.4 551.85 100.85 551.85 100.35 551.85 100.05 552.15 99.75 552.45 99.7 553.2 L98.05 553.0 Q98.2 551.65 98.95 551.05 99.75 550.5 100.9 550.5 102.15 550.5 102.9 551.15 103.6 551.85 103.6 552.85 L103.4 553.95 M108.4 552.8 L108.05 552.05 107.5 551.85 106.95 552.05 106.6 552.7 Q106.45 553.35 106.45 554.85 106.45 556.4 106.6 556.95 L106.95 557.7 107.5 557.9 108.05 557.7 108.4 557.0 108.55 554.85 108.4 552.8 M91.6 553.8 Q90.9 555.05 90.55 556.5 90.15 557.95 90.15 559.1 L88.55 559.1 Q88.6 557.3 89.3 555.45 90.0 553.6 91.15 552.15 L87.4 552.15 87.4 550.65 93.05 550.65 93.05 551.8 Q92.35 552.5 91.6 553.8 M94.2 555.15 L97.45 555.15 97.45 556.8 94.2 556.8 94.2 555.15 M84.45 552.8 L84.1 552.05 83.55 551.85 Q83.25 551.85 83.0 552.05 82.8 552.2 82.65 552.7 82.5 553.35 82.5 554.85 82.5 556.4 82.65 556.95 L83.0 557.7 Q83.25 557.9 83.55 557.9 L84.1 557.7 84.45 557.0 84.6 554.85 84.45 552.8 M83.55 550.5 Q84.8 550.5 85.5 551.35 86.35 552.4 86.35 554.85 86.35 557.3 85.5 558.35 84.8 559.25 83.55 559.25 82.3 559.25 81.5 558.3 80.75 557.3 80.75 554.85 80.75 552.4 81.6 551.35 82.3 550.5 83.55 550.5 M152.35 554.3 Q152.75 553.55 153.5 553.15 154.2 552.75 155.15 552.75 156.55 552.75 157.45 553.65 158.35 554.55 158.35 555.95 158.35 557.4 157.45 558.3 156.55 559.25 155.15 559.25 L153.5 558.85 Q152.75 558.45 152.35 557.7 151.95 556.95 151.95 555.9 151.95 555.1 152.35 554.3 M154.05 554.55 Q153.6 555.05 153.6 556.0 153.6 556.9 154.05 557.4 154.5 557.9 155.15 557.9 155.8 557.9 156.25 557.4 156.65 556.9 156.65 556.0 156.65 555.05 156.25 554.55 155.8 554.1 155.15 554.1 154.5 554.1 154.05 554.55 M146.75 553.75 L147.65 553.0 148.65 552.75 149.8 553.0 150.5 553.85 150.7 555.1 150.7 559.1 149.05 559.1 149.05 555.55 Q149.05 554.6 148.85 554.35 148.65 554.0 148.15 554.0 L147.5 554.2 147.1 554.85 Q146.95 555.25 146.95 556.1 L146.95 559.1 145.3 559.1 145.3 555.7 145.2 554.5 144.95 554.15 144.45 554.0 143.75 554.2 143.3 554.8 143.2 556.1 143.2 559.1 141.55 559.1 141.55 552.9 143.05 552.9 143.05 553.75 Q143.85 552.75 145.0 552.75 145.6 552.75 146.05 553.0 L146.75 553.75 M131.75 552.5 L130.6 555.7 132.95 555.7 131.75 552.5 M140.95 553.05 L140.45 554.5 139.7 554.2 139.1 554.4 Q138.85 554.6 138.75 555.1 138.6 555.6 138.6 557.2 L138.6 559.1 136.95 559.1 136.95 552.9 138.45 552.9 138.45 553.75 139.2 552.95 139.9 552.75 Q140.45 552.75 140.95 553.05 M129.35 559.1 L127.5 559.1 130.85 550.5 132.7 550.5 136.1 559.1 134.25 559.1 133.5 557.15 130.05 557.15 129.35 559.1" fill="#99ffff" fill-rule="evenodd" stroke="none"/>
  </g>
</svg>
