<?xml version="1.0" encoding="UTF-8" standalone="no"?>
<svg xmlns:xlink="http://www.w3.org/1999/xlink" height="39.25px" width="28.05px" xmlns="http://www.w3.org/2000/svg">
  <g transform="matrix(1.0, 0.0, 0.0, 1.0, 14.5, 21.4)">
    <path d="M12.9 -5.2 Q13.55 -10.15 12.9 3.55 L12.9 17.85 -13.6 17.85 -13.6 -18.8 12.9 -18.8 12.9 -5.2" fill="#000000" fill-rule="evenodd" stroke="none"/>
    <path d="M13.4 -14.55 L12.6 -14.55 Q12.95 -12.65 12.75 -10.7 12.65 -9.75 12.55 -10.45 12.7 -10.95 12.45 -11.3 L12.1 -12.1 11.85 -12.95 11.95 -13.1 12.15 -13.25 10.25 -14.55 Q9.85 -14.8 9.7 -15.15 L9.75 -15.15 10.1 -15.15 10.1 -15.2 9.75 -15.45 11.5 -15.6 Q9.7 -17.2 7.3 -16.4 L8.6 -17.85 5.85 -16.0 5.95 -15.55 5.7 -14.7 5.5 -14.35 4.9 -17.4 4.7 -16.7 4.65 -15.05 Q4.15 -15.75 4.0 -16.65 3.8 -17.75 3.0 -18.4 L3.5 -15.95 1.45 -17.05 Q0.4 -18.35 -1.15 -19.15 -0.1 -18.05 0.8 -16.55 L1.1 -15.85 1.4 -15.25 Q-1.1 -16.75 -3.85 -18.05 L-5.75 -18.5 -5.7 -18.3 -6.4 -18.6 -7.1 -18.65 Q-7.1 -16.95 -5.45 -15.9 L-4.9 -15.6 -5.3 -15.1 Q-5.25 -15.3 -5.55 -15.6 -7.35 -16.95 -9.6 -17.4 L-8.35 -16.4 -9.4 -14.0 Q-9.85 -12.5 -11.1 -11.65 -10.4 -13.0 -10.65 -14.45 L-10.9 -14.8 -11.2 -14.6 -11.1 -15.45 -10.9 -16.25 Q-13.25 -15.35 -14.35 -12.65 L-14.5 -13.4 -12.05 -16.1 Q-11.05 -16.9 -10.4 -17.95 -9.45 -19.45 -7.6 -20.2 -5.3 -21.05 -3.0 -21.15 1.05 -21.55 5.2 -21.25 L4.7 -20.7 6.6 -19.65 11.25 -16.9 Q12.65 -16.0 13.4 -14.55 M6.15 -8.9 L5.8 -7.65 Q4.15 -6.8 2.15 -6.1 L5.2 -6.7 4.1 -5.6 2.75 -4.8 2.95 -5.85 2.8 -5.8 2.55 -5.55 2.0 -4.45 Q0.85 -4.5 0.5 -5.75 L0.1 -6.8 -0.05 -7.05 Q-0.55 -4.85 1.0 -3.05 L1.0 -2.4 0.15 -3.45 0.1 -3.05 0.9 -0.7 0.75 0.5 Q1.8 2.15 3.65 2.65 L3.95 2.55 4.15 2.45 5.75 5.2 5.25 8.25 5.05 7.4 4.75 9.65 4.0 10.15 3.3 9.75 0.9 8.75 2.05 7.15 Q1.9 5.7 2.5 4.45 L2.75 3.9 2.1 4.05 Q1.25 4.35 0.45 4.75 L-0.5 5.3 -0.8 5.1 -0.9 4.8 -3.35 3.85 Q-3.25 6.7 -1.55 9.0 L-4.1 10.25 -4.95 10.5 -4.95 10.75 -5.25 11.0 -4.85 8.15 -5.45 7.65 -5.8 8.35 -5.5 7.25 -5.5 7.0 -4.85 5.8 Q-4.6 5.35 -4.75 4.7 L-5.2 4.95 -5.85 5.45 -6.35 6.2 -6.6 6.55 -7.9 4.8 -8.65 6.4 -8.95 6.5 -8.6 4.8 -8.05 4.0 -7.7 3.45 Q-6.9 2.45 -6.55 1.15 L-6.45 0.7 -3.45 -0.4 Q-3.5 1.45 -5.4 2.1 L-5.95 2.35 Q-6.3 2.55 -6.0 2.9 -4.35 3.35 -3.05 2.35 L-1.55 0.9 -1.45 0.95 -1.5 -1.1 -1.05 -2.15 Q-0.8 -2.6 -0.95 -3.1 L-1.05 -3.35 -1.2 -3.3 -1.45 -2.75 -1.65 -2.05 -1.9 -2.85 -1.2 -4.35 Q-1.0 -4.8 -1.2 -5.4 L-2.15 -4.1 Q-2.4 -4.8 -3.3 -4.95 L-5.05 -5.25 -4.65 -6.95 -4.3 -7.4 -4.95 -7.85 Q-5.15 -9.25 -5.65 -10.6 L-5.75 -10.9 -5.85 -13.7 -4.6 -13.85 -3.35 -11.25 -3.7 -13.95 -3.1 -12.95 -1.4 -9.8 Q-1.5 -11.7 -2.45 -13.55 L-2.85 -14.1 -2.4 -14.15 Q0.2 -11.7 3.65 -10.75 2.9 -10.0 1.85 -9.9 L0.05 -9.2 2.35 -9.3 5.65 -10.0 6.15 -8.9 M4.05 -0.45 Q3.1 -1.25 4.05 -0.55 L4.05 -0.45 M9.45 -1.8 L9.25 -1.4 Q9.65 -0.35 9.1 0.85 L8.9 1.25 8.4 0.7 8.45 -1.6 Q8.5 -1.1 9.05 -1.8 9.25 -2.1 9.45 -1.8 M5.8 -0.4 L6.1 -0.1 5.9 0.05 6.25 0.35 6.4 0.3 6.5 0.3 7.4 1.15 7.95 2.95 7.3 3.45 Q6.15 2.7 5.8 1.25 L5.1 -0.25 5.5 -0.4 5.8 -0.4 M13.55 -3.15 L13.55 -2.95 12.75 -1.5 12.8 -1.8 Q13.3 -2.8 12.9 -3.75 L12.65 -3.8 11.8 -3.75 11.9 -4.3 Q12.1 -4.85 12.7 -4.75 13.55 -4.25 13.55 -3.15 M12.35 -2.9 L12.25 -2.25 12.05 -2.35 12.35 -2.9 M7.6 9.85 L7.65 10.35 7.1 11.75 7.6 9.85 M8.3 6.3 L9.05 7.7 8.7 8.25 8.05 9.5 7.95 6.8 8.3 6.3 M6.6 5.5 L6.45 4.95 Q5.85 3.5 6.4 3.75 L6.65 4.05 Q7.1 5.5 7.2 6.9 L6.95 8.1 6.6 5.5 M5.1 15.25 Q4.35 15.65 3.1 16.4 L2.4 16.9 -1.0 17.55 -1.7 17.6 -2.7 16.05 -2.6 15.9 -2.1 15.4 Q-0.85 14.3 0.95 14.9 L1.6 15.0 Q2.5 15.25 3.25 16.05 L4.3 15.1 5.35 13.5 5.8 12.8 Q5.7 14.15 5.1 15.25 M6.9 12.7 L6.95 12.9 6.6 13.6 6.95 12.35 6.9 12.7 M-6.85 -13.1 L-6.45 -10.85 -7.05 -10.3 -5.85 -7.8 -6.3 -5.3 -7.1 -5.95 -7.45 -7.5 -7.45 -7.45 Q-7.75 -9.3 -8.45 -10.75 L-7.1 -12.7 -7.05 -13.7 -6.85 -13.1 M-11.85 -3.7 L-11.6 -2.05 -12.25 -2.5 -12.8 -3.2 -13.15 -2.7 -12.65 -4.1 Q-12.1 -4.45 -11.85 -3.7 M-13.2 -1.65 Q-12.25 -1.55 -12.5 -0.6 L-12.55 -0.3 -13.05 -0.85 -13.2 -1.65 M-9.2 -0.4 L-7.5 0.65 -7.4 1.25 -7.3 1.85 -7.6 2.45 -7.65 2.25 -7.4 1.25 Q-8.1 1.75 -8.85 3.3 L-9.0 3.6 -9.9 2.4 -9.85 2.25 Q-9.2 1.15 -10.1 2.45 L-10.5 1.85 Q-9.75 1.05 -9.3 -0.1 L-9.2 -0.4 M-10.15 0.4 L-10.65 1.05 -10.7 0.85 -10.15 0.4 M-3.4 11.95 L3.45 11.65 Q1.2 12.7 -1.5 12.45 L-3.4 11.95" fill="#67784b" fill-rule="evenodd" stroke="none"/>
  </g>
</svg>
