<?xml version="1.0" encoding="UTF-8" standalone="no"?>
<svg xmlns:xlink="http://www.w3.org/1999/xlink" height="8.95px" width="25.4px" xmlns="http://www.w3.org/2000/svg">
  <g transform="matrix(1.0, 0.0, 0.0, 1.0, 12.55, 18.3)">
    <path d="M12.65 -15.65 L11.9 -14.9 12.05 -14.95 11.65 -14.65 12.85 -13.2 12.7 -12.65 12.1 -12.95 11.6 -13.0 11.9 -12.05 11.75 -11.8 11.75 -11.55 11.95 -11.1 11.45 -9.35 11.25 -9.65 11.1 -9.75 10.85 -9.75 10.5 -9.8 10.15 -11.1 10.3 -12.8 10.9 -13.7 10.75 -13.75 10.55 -15.0 9.9 -16.15 9.95 -16.65 10.5 -16.9 Q12.1 -17.0 12.65 -15.65 M0.1 -15.9 Q0.55 -16.3 2.7 -16.9 L5.45 -17.3 5.5 -17.2 Q5.15 -16.7 4.3 -16.3 3.1 -15.75 1.35 -15.75 L0.1 -15.9 M0.0 -16.45 Q-1.3 -16.45 -3.25 -17.3 L-3.3 -17.9 -1.2 -17.6 -1.15 -17.7 Q-1.15 -18.0 -1.55 -17.95 L-2.0 -17.95 -2.0 -18.25 2.55 -18.3 1.4 -17.5 0.05 -17.1 0.2 -16.9 0.5 -16.75 Q0.4 -16.45 0.0 -16.45 M-8.1 -13.55 Q-8.1 -13.2 -9.75 -11.8 L-11.5 -10.45 -11.55 -10.35 -11.6 -10.65 Q-11.6 -11.1 -10.85 -12.05 -9.85 -13.3 -8.2 -13.8 -8.1 -14.05 -8.1 -13.55 M-9.55 -13.65 Q-10.05 -13.2 -10.5 -12.95 L-11.05 -12.35 -10.85 -12.35 -12.45 -10.25 -11.8 -11.5 -12.4 -12.15 -11.8 -13.1 -12.5 -13.85 -12.45 -14.35 -12.55 -14.4 -12.45 -14.45 -12.45 -14.75 -11.95 -14.7 Q-9.95 -15.9 -9.4 -15.8 -9.5 -15.4 -10.45 -14.95 L-10.95 -14.7 -10.6 -14.7 Q-10.45 -14.65 -10.6 -14.2 L-10.75 -14.0 -10.65 -13.6 Q-9.7 -14.7 -8.65 -14.85 L-9.55 -13.65 M-9.75 -16.55 L-10.4 -16.4 -9.6 -16.1 Q-10.15 -15.6 -11.5 -15.4 L-11.6 -15.45 -11.65 -15.75 -10.65 -16.5 -9.4 -16.95 -9.75 -16.55" fill="#995e22" fill-rule="evenodd" stroke="none"/>
  </g>
</svg>
