<?xml version="1.0" encoding="UTF-8" standalone="no"?>
<svg xmlns:xlink="http://www.w3.org/1999/xlink" height="37.45px" width="26.75px" xmlns="http://www.w3.org/2000/svg">
  <g transform="matrix(1.0, 0.0, 0.0, 1.0, 13.3, 19.0)">
    <path d="M13.45 18.15 L-12.9 18.15 -12.9 -18.6 13.45 -18.6 13.45 18.15" fill="#000000" fill-rule="evenodd" stroke="none"/>
    <path d="M-12.1 -8.7 L-12.9 -8.35 -13.3 -8.5 -12.45 -10.25 -10.85 -12.35 -10.25 -12.8 -10.75 -14.0 -10.6 -14.2 Q-10.45 -14.65 -10.6 -14.7 -9.5 -17.35 -7.0 -18.6 L-6.1 -19.0 Q-2.3 -18.15 1.7 -18.05 L1.85 -17.8 7.05 -17.3 8.4 -17.0 9.95 -16.65 9.9 -16.15 9.8 -16.1 10.3 -15.45 11.1 -14.05 10.3 -12.8 10.15 -11.1 10.5 -9.8 9.95 -9.65 9.3 -8.55 Q7.65 -11.05 7.4 -13.5 L6.9 -15.35 4.3 -14.45 5.3 -13.55 5.0 -13.5 3.7 -13.7 2.5 -14.25 1.7 -14.15 0.95 -14.65 -2.35 -14.6 -2.65 -14.15 -5.2 -14.9 -6.75 -14.6 Q-7.4 -10.8 -9.3 -7.35 L-10.4 -5.85 -10.8 -6.45 -10.4 -7.45 -11.1 -7.1 -11.7 -7.45 -12.7 -6.6 -12.05 -8.65 -11.1 -10.1 -12.1 -8.7 M9.9 -5.6 L11.15 -5.75 12.25 -3.25 11.85 -1.5 12.5 0.6 Q12.9 1.7 12.25 2.3 L11.0 2.7 10.1 4.45 10.5 6.1 11.25 5.2 Q11.0 10.4 7.5 14.45 L7.7 14.75 7.2 16.75 6.7 16.85 6.55 17.35 4.6 17.65 Q3.45 17.8 2.5 18.35 L2.55 17.45 2.1 17.05 -1.65 17.4 -3.35 18.45 -3.45 18.35 -3.5 18.1 -3.25 17.8 -4.35 17.5 -4.05 16.65 -6.5 14.25 -6.25 13.1 -6.65 12.2 -5.95 11.35 -4.85 6.4 -4.2 4.8 -3.1 3.8 -3.6 6.65 -3.65 7.2 -3.35 8.9 -3.4 10.6 -2.75 10.2 -0.65 10.7 -0.35 10.3 -0.15 10.25 -0.05 10.35 0.05 10.65 1.0 10.7 1.2 10.5 Q1.95 10.0 3.2 10.15 L6.25 10.4 6.7 10.75 6.35 8.6 5.65 9.95 5.25 8.1 5.65 6.15 4.6 4.2 3.8 2.4 4.7 2.75 6.2 5.05 7.5 9.5 8.7 5.8 8.65 5.55 8.15 4.9 7.5 6.7 7.15 4.45 7.25 3.55 8.0 1.15 8.3 2.65 8.8 2.85 9.25 3.15 9.65 1.5 9.95 -1.95 9.55 -2.3 7.9 -3.0 9.3 -5.0 8.95 -5.55 Q8.4 -7.25 7.25 -8.6 L6.45 -9.5 Q8.75 -8.7 9.5 -6.4 L9.9 -5.6 M-5.85 3.75 L-6.25 7.4 -6.9 5.8 Q-7.6 4.1 -7.15 2.5 L-6.7 1.45 -7.05 1.15 Q-5.1 0.3 -3.35 -0.7 L-2.55 -0.95 -0.3 -3.0 0.2 -3.3 0.4 -3.25 0.45 -3.05 0.45 -2.45 -1.05 0.35 -2.55 0.85 Q-3.75 1.8 -5.3 1.75 L-6.0 1.8 -5.85 3.75 M-8.75 1.15 Q-8.35 2.15 -9.0 2.95 L-9.25 3.25 -10.0 3.2 Q-12.75 0.05 -10.2 -3.55 L-9.7 -3.4 -8.9 -1.35 -8.75 1.15 M0.9 -2.2 Q1.45 -3.6 3.15 -1.7 L4.55 -0.85 6.2 0.2 8.75 -0.7 6.1 1.65 5.75 1.4 5.25 1.25 5.1 1.1 4.75 0.65 3.3 -0.15 3.2 0.5 1.85 -0.6 0.9 -2.2 M7.3 -6.3 L7.35 -4.65 6.65 -6.3 6.3 -7.0 7.3 -6.3 M5.25 -5.8 L6.8 -5.75 6.1 -5.15 Q5.35 -4.6 5.3 -5.25 L2.65 -4.6 3.75 -5.4 5.25 -5.8 M1.4 -5.35 L0.6 -3.55 0.15 -3.7 0.3 -5.35 Q0.85 -6.15 1.35 -5.55 L1.4 -5.35 M-1.3 -5.3 L-1.0 -4.15 -0.3 -3.55 -7.9 -3.85 -8.4 -4.3 -8.75 -4.65 -9.0 -5.15 -8.65 -5.55 -7.8 -7.6 -7.35 -8.1 -8.1 -5.75 -7.45 -5.7 -6.65 -6.35 -7.1 -5.55 -2.85 -5.2 -2.1 -5.25 -2.0 -6.5 -1.3 -5.3 M6.7 10.75 L5.75 13.95 Q7.15 11.85 7.3 9.55 L6.7 10.75 M-10.85 -8.1 L-9.25 -10.2 Q-9.8 -10.65 -10.5 -9.05 L-10.95 -8.1 -11.0 -8.0 -10.85 -8.1 M-4.35 -10.35 L3.6 -10.15 -2.5 -9.85 -5.4 -9.95 -5.45 -10.1 -4.9 -10.3 -4.35 -10.35 M-8.3 -8.25 L7.5 -10.0 -6.1 -8.2 -8.3 -8.25 M-1.15 12.6 Q-1.6 12.8 -1.3 12.95 1.15 13.5 3.75 12.95 L4.15 12.7 3.75 12.25 3.7 12.15 Q1.2 11.1 -1.6 12.2 L-1.15 12.6 M8.85 9.9 L8.65 9.9 8.4 10.7 8.8 10.25 8.85 9.9" fill="#000000" fill-rule="evenodd" stroke="none"/>
    <path d="M9.3 -8.55 L9.9 -5.6 9.5 -6.4 Q8.75 -8.7 6.45 -9.5 L7.25 -8.6 Q8.4 -7.25 8.95 -5.55 L7.3 -6.3 6.3 -7.0 6.65 -6.3 5.25 -5.8 3.75 -5.4 1.4 -5.35 1.35 -5.55 Q0.85 -6.15 0.3 -5.35 L-1.3 -5.3 -2.0 -6.5 -2.1 -5.25 -2.85 -5.2 -7.1 -5.55 -6.65 -6.35 -7.45 -5.7 -8.1 -5.75 -7.35 -8.1 -7.8 -7.6 -8.65 -5.55 -9.1 -5.35 -9.3 -7.35 Q-7.4 -10.8 -6.75 -14.6 L-5.2 -14.9 -2.65 -14.15 -2.35 -14.6 0.95 -14.65 1.7 -14.15 2.5 -14.25 3.7 -13.7 5.0 -13.5 5.3 -13.55 4.3 -14.45 6.9 -15.35 7.4 -13.5 Q7.65 -11.05 9.3 -8.55 M-4.85 6.4 L-4.8 5.9 Q-4.8 4.6 -5.85 3.75 L-6.0 1.8 -5.3 1.75 Q-3.75 1.8 -2.55 0.85 L-4.2 4.8 -4.85 6.4 M-7.15 2.5 L-8.75 1.15 -8.9 -1.35 Q-6.3 0.3 -3.45 -1.35 L-3.35 -0.7 Q-5.1 0.3 -7.05 1.15 L-6.7 1.45 -7.15 2.5 M0.45 -2.45 L0.9 -2.2 1.85 -0.6 2.3 4.65 0.0 5.45 -0.35 5.15 -0.8 3.2 -0.55 2.7 -1.05 0.35 0.45 -2.45 M4.55 -0.85 L4.45 -1.35 5.6 -1.2 Q7.55 -1.4 9.55 -2.3 L9.95 -1.95 9.65 1.5 8.3 2.65 8.0 1.15 7.25 3.55 6.9 3.85 7.15 4.45 7.5 6.7 7.35 7.5 6.45 4.3 6.2 5.05 4.7 2.75 4.75 0.65 5.1 1.1 5.25 1.25 5.75 1.4 6.1 1.65 8.75 -0.7 6.2 0.2 4.55 -0.85 M4.6 4.2 L5.65 6.15 5.25 8.1 3.55 7.5 4.6 4.2 M6.7 10.75 L7.3 9.55 Q7.15 11.85 5.75 13.95 L6.7 10.75 M1.2 10.5 L1.0 10.7 0.05 10.65 1.2 10.5 M-3.35 8.9 L-3.65 7.2 -3.6 6.65 -2.15 8.3 -3.35 8.9 M-8.3 -8.25 L-6.1 -8.2 7.5 -10.0 -8.3 -8.25 M-4.35 -10.35 L-4.9 -10.3 -5.45 -10.1 -5.4 -9.95 -2.5 -9.85 3.6 -10.15 -4.35 -10.35" fill="#e9deb8" fill-rule="evenodd" stroke="none"/>
    <path d="M-12.05 -8.65 L-12.1 -8.7 -11.1 -10.1 -12.05 -8.65 M-10.95 -8.1 L-10.5 -9.05 Q-9.8 -10.65 -9.25 -10.2 L-10.85 -8.1 -10.95 -8.1" fill="#c58f5c" fill-rule="evenodd" stroke="none"/>
    <path d="M-1.15 12.6 L-1.6 12.2 Q1.2 11.1 3.7 12.15 L3.75 12.25 -1.15 12.6" fill="#f7f1e6" fill-rule="evenodd" stroke="none"/>
  </g>
</svg>
