<?xml version="1.0" encoding="UTF-8" standalone="no"?>
<svg xmlns:xlink="http://www.w3.org/1999/xlink" height="36.9px" width="27.35px" xmlns="http://www.w3.org/2000/svg">
  <g transform="matrix(1.0, 0.0, 0.0, 1.0, 13.9, 18.7)">
    <path d="M13.2 -17.35 L12.9 -14.1 12.95 -14.05 Q13.4 -13.65 13.4 -12.9 L13.15 -10.65 13.2 -10.25 13.05 -8.75 13.05 -8.7 13.05 -8.55 12.95 -8.0 13.0 -8.0 Q13.3 -8.0 13.3 -7.45 L13.3 -4.75 13.3 -4.4 13.45 -1.15 13.35 0.8 13.0 1.85 12.95 3.1 13.2 3.7 13.15 3.95 13.2 4.6 12.8 8.3 Q13.1 8.7 13.2 9.7 L13.15 11.85 13.0 14.35 13.05 14.9 12.95 15.5 12.85 16.8 13.05 17.25 13.2 17.9 -13.9 17.9 -13.9 -18.1 -13.8 -18.15 -12.65 -18.6 -12.4 -18.7 -8.5 -18.25 -4.55 -18.45 1.05 -18.7 3.95 -18.45 Q4.35 -18.25 4.45 -18.25 L4.9 -18.45 5.8 -18.65 12.3 -18.3 Q13.2 -18.0 13.2 -17.35 M-7.85 -2.2 L-7.9 -2.25 Q-8.6 -2.5 -8.55 -3.05 L-8.3 -3.1 -6.4 -2.4 -5.9 -2.45 -7.4 -3.1 -10.45 -4.65 -11.15 -5.2 -11.55 -4.2 -12.45 -1.15 -11.6 -0.05 -10.95 -1.35 -10.55 -0.7 -11.05 0.55 -10.2 1.55 -9.95 1.8 Q-8.95 -0.65 -8.05 0.65 -7.7 1.1 -7.7 2.0 L-7.8 3.4 Q-6.55 2.8 -5.1 2.8 L-5.0 2.8 -4.75 1.1 Q-4.35 -0.9 -3.4 -0.9 L-3.35 -0.55 -3.75 2.3 -3.25 2.85 Q-3.2 0.55 -1.9 1.4 -1.2 1.9 -0.55 2.9 0.05 2.9 0.45 2.3 0.85 1.65 1.55 1.65 2.25 1.65 2.7 2.75 L2.65 3.0 2.95 2.95 Q2.95 2.2 3.7 2.4 3.8 2.0 4.1 2.0 4.8 2.0 4.8 2.9 L7.25 4.55 Q7.5 3.65 8.55 3.25 L8.65 2.8 Q8.95 1.65 9.25 1.35 9.55 1.55 9.55 2.2 L9.5 2.9 9.7 2.85 10.0 2.8 10.1 2.0 Q10.3 1.25 10.9 1.2 L11.0 1.55 10.9 2.45 Q11.8 1.9 12.15 0.85 L12.15 0.65 12.25 -0.95 12.05 -3.3 12.2 -3.8 12.3 -4.15 12.3 -4.8 12.2 -5.35 12.05 -4.7 12.05 -4.65 Q12.05 -2.25 9.7 -1.4 7.4 -0.55 7.4 0.35 L7.6 1.7 7.25 2.45 Q6.85 2.8 6.3 2.8 4.85 2.8 3.3 0.0 L1.65 -3.5 0.35 -3.95 Q-0.6 -3.95 -2.3 -3.0 L-3.2 -2.5 Q-3.3 -1.85 -3.9 -1.4 -4.65 -0.8 -5.75 -0.8 -7.45 -0.8 -8.05 -1.25 L-8.0 -1.35 -9.05 -1.7 -9.85 -2.1 -9.5 -2.7 -9.55 -2.4 -7.9 -2.1 -7.45 -2.1 -7.85 -2.2 M9.6 -8.75 L11.45 -9.05 11.65 -11.1 10.75 -11.1 8.8 -11.35 2.8 -11.1 0.85 -11.35 -1.1 -11.95 -6.2 -12.25 -8.15 -12.65 -13.2 -12.4 -12.25 -10.9 -11.55 -9.45 -11.2 -9.1 Q-11.05 -9.25 -11.0 -8.8 L-10.65 -8.3 -9.4 -7.9 -5.95 -7.45 -2.0 -7.7 5.3 -8.25 9.6 -8.75 M2.4 9.85 L1.3 9.4 0.2 8.95 -0.55 9.35 Q-1.75 9.35 -2.7 8.0 L-3.9 7.75 -5.15 8.0 -5.45 8.05 -5.4 8.25 Q-4.8 9.7 -2.6 10.3 L-0.1 10.6 2.05 9.95 2.4 9.85 M-10.45 8.1 L-10.4 8.1 -10.45 8.05 -10.45 8.1" fill="#000000" fill-rule="evenodd" stroke="none"/>
    <path d="M-7.9 -2.1 L-7.85 -2.2 -7.45 -2.1 -7.9 -2.1" fill="url(#gradient0)" fill-rule="evenodd" stroke="none"/>
    <path d="M-7.9 -2.1 L-9.55 -2.4 -9.5 -2.7 -9.85 -2.1 -9.05 -1.7 -8.0 -1.35 -8.05 -1.25 Q-7.45 -0.8 -5.75 -0.8 -4.65 -0.8 -3.9 -1.4 -3.3 -1.85 -3.2 -2.5 L-2.3 -3.0 Q-0.6 -3.95 0.35 -3.95 L1.65 -3.5 3.3 0.0 Q4.85 2.8 6.3 2.8 6.85 2.8 7.25 2.45 L7.6 1.7 7.4 0.35 Q7.4 -0.55 9.7 -1.4 12.05 -2.25 12.05 -4.65 L12.05 -4.7 12.2 -5.35 12.3 -4.8 12.3 -4.15 12.2 -3.8 12.05 -3.3 12.25 -0.95 12.15 0.65 12.15 0.85 Q11.8 1.9 10.9 2.45 L11.0 1.55 10.9 1.2 Q10.3 1.25 10.1 2.0 L10.0 2.8 9.7 2.85 9.5 2.9 9.55 2.2 Q9.55 1.55 9.25 1.35 8.95 1.65 8.65 2.8 L8.55 3.25 Q7.5 3.65 7.25 4.55 L4.8 2.9 Q4.8 2.0 4.1 2.0 3.8 2.0 3.7 2.4 2.95 2.2 2.95 2.95 L2.65 3.0 2.7 2.75 Q2.25 1.65 1.55 1.65 0.85 1.65 0.45 2.3 0.05 2.9 -0.55 2.9 -1.2 1.9 -1.9 1.4 -3.2 0.55 -3.25 2.85 L-3.75 2.3 -3.35 -0.55 -3.4 -0.9 Q-4.35 -0.9 -4.75 1.1 L-5.0 2.8 -5.1 2.8 Q-6.55 2.8 -7.8 3.4 L-7.7 2.0 Q-7.7 1.1 -8.05 0.65 -8.95 -0.65 -9.95 1.8 L-10.2 1.55 -11.05 0.55 -10.55 -0.7 -10.95 -1.35 -11.6 -0.05 -12.45 -1.15 -11.55 -4.2 -11.15 -5.2 -10.45 -4.65 -7.4 -3.1 -5.9 -2.45 -6.4 -2.4 -8.3 -3.1 -8.55 -3.05 Q-8.6 -2.5 -7.9 -2.25 L-7.85 -2.2 -7.9 -2.1 M2.4 9.85 L2.05 9.95 -0.1 10.6 -2.6 10.3 Q-4.8 9.7 -5.4 8.25 L-5.45 8.05 -5.15 8.0 -3.9 7.75 -2.7 8.0 Q-1.75 9.35 -0.55 9.35 L0.2 8.95 1.3 9.4 2.4 9.85" fill="url(#gradient1)" fill-rule="evenodd" stroke="none"/>
    <path d="M9.6 -8.75 L5.3 -8.25 -2.0 -7.7 -5.95 -7.45 -9.4 -7.9 -10.65 -8.3 -11.0 -8.8 Q-11.05 -9.25 -11.2 -9.1 L-11.55 -9.45 -12.25 -10.9 -13.2 -12.4 -8.15 -12.65 -6.2 -12.25 -1.1 -11.95 0.85 -11.35 2.8 -11.1 8.8 -11.35 10.75 -11.1 11.65 -11.1 11.45 -9.05 9.6 -8.75" fill="url(#gradient2)" fill-rule="evenodd" stroke="none"/>
    <path d="M9.75 17.35 L10.05 17.5 10.1 17.65 9.35 18.2 7.75 17.8 5.9 17.1 Q10.75 16.2 9.35 17.45 L9.75 17.35" fill="#000000" fill-rule="evenodd" stroke="none"/>
  </g>
  <defs>
    <linearGradient gradientTransform="matrix(6.0E-4, -0.0056, 0.0149, 0.002, 0.1, -2.8)" gradientUnits="userSpaceOnUse" id="gradient0" spreadMethod="pad" x1="-819.2" x2="819.2">
      <stop offset="0.0" stop-color="#b67544"/>
      <stop offset="0.6588235294117647" stop-color="#000000"/>
    </linearGradient>
    <radialGradient cx="0" cy="0" gradientTransform="matrix(0.0178, 0.0, 0.0, 0.0178, -0.5, 1.85)" gradientUnits="userSpaceOnUse" id="gradient1" r="819.2" spreadMethod="pad">
      <stop offset="0.0" stop-color="#e8d6ca"/>
      <stop offset="0.5215686274509804" stop-color="#dcc2ab"/>
      <stop offset="0.9137254901960784" stop-color="#715131"/>
    </radialGradient>
    <linearGradient gradientTransform="matrix(1.0E-4, -0.0036, 0.0152, 6.0E-4, -0.75, -12.25)" gradientUnits="userSpaceOnUse" id="gradient2" spreadMethod="pad" x1="-819.2" x2="819.2">
      <stop offset="0.047058823529411764" stop-color="#983d3d"/>
      <stop offset="0.6588235294117647" stop-color="#000000"/>
    </linearGradient>
  </defs>
</svg>
