<?xml version="1.0" encoding="UTF-8" standalone="no"?>
<svg xmlns:xlink="http://www.w3.org/1999/xlink" height="4.7px" width="13.6px" xmlns="http://www.w3.org/2000/svg">
  <g transform="matrix(1.0, 0.0, 0.0, 1.0, -0.1, 0.1)">
    <path d="M3.0 0.4 Q3.5 0.85 3.5 1.55 3.5 2.25 3.0 2.75 2.5 3.2 1.8 3.2 1.1 3.2 0.6 2.75 0.1 2.25 0.1 1.55 0.1 0.85 0.6 0.4 1.1 -0.1 1.8 -0.1 2.5 -0.1 3.0 0.4 M13.2 1.8 Q13.7 2.25 13.7 2.95 13.7 3.65 13.2 4.15 12.7 4.6 12.0 4.6 11.3 4.6 10.8 4.15 10.3 3.65 10.3 2.95 10.3 2.25 10.8 1.8 11.3 1.3 12.0 1.3 12.7 1.3 13.2 1.8" fill="#ffffff" fill-rule="evenodd" stroke="none"/>
  </g>
</svg>
