<?xml version="1.0" encoding="UTF-8" standalone="no"?>
<svg xmlns:xlink="http://www.w3.org/1999/xlink" height="31.15px" width="29.75px" xmlns="http://www.w3.org/2000/svg">
  <g transform="matrix(1.0, 0.0, 0.0, 1.0, 14.7, 13.5)">
    <path d="M15.05 -9.95 L15.05 1.7 7.8 1.7 7.8 6.15 2.2 6.15 2.2 13.4 9.1 13.4 9.1 17.65 -8.75 17.65 -8.75 13.4 -1.85 13.4 -1.85 6.15 -7.45 6.15 -7.45 1.7 -14.7 1.7 -14.7 -9.95 -7.45 -9.95 -7.45 -13.5 7.8 -13.5 7.8 -9.95 15.05 -9.95 M7.8 -0.7 L12.7 -0.7 12.7 -6.85 7.8 -6.85 7.8 -0.7 M-12.35 -6.85 L-12.35 -0.7 -7.45 -0.7 -7.45 -6.85 -12.35 -6.85" fill="#ffffff" fill-rule="evenodd" stroke="none"/>
  </g>
</svg>
