<?xml version="1.0" encoding="UTF-8" standalone="no"?>
<svg xmlns:xlink="http://www.w3.org/1999/xlink" height="35.85px" width="35.3px" xmlns="http://www.w3.org/2000/svg">
  <g transform="matrix(1.0, 0.0, 0.0, 1.0, 16.55, 17.25)">
    <path d="M1.8 -8.5 L4.7 -8.5 4.7 -4.75 1.85 -4.75 1.05 -2.7 3.25 -0.65 0.7 2.1 -1.45 0.05 -2.6 0.7 -4.3 1.3 -4.3 4.5 -8.05 4.5 -8.05 1.25 -8.85 1.0 -10.05 0.45 -12.2 2.7 -14.95 0.15 -12.75 -2.15 -13.15 -2.8 -13.85 -4.75 -16.55 -4.75 -16.55 -8.5 -13.8 -8.5 -12.9 -10.7 -14.75 -12.4 -12.2 -15.15 -10.25 -13.35 -9.0 -13.95 -8.05 -14.25 -8.05 -17.25 -4.3 -17.25 -4.3 -14.35 -3.2 -14.0 -2.15 -13.5 -0.1 -15.7 2.65 -13.15 0.65 -11.0 Q1.45 -9.85 1.8 -8.5 M8.7 -5.0 L11.65 -5.0 11.65 -2.7 12.5 -2.45 13.35 -2.05 14.95 -3.75 17.1 -1.75 15.55 -0.05 16.45 1.9 18.75 1.9 18.75 4.85 16.5 4.85 15.85 6.5 17.6 8.1 15.6 10.25 13.9 8.65 12.95 9.15 11.65 9.65 11.65 12.15 8.7 12.15 8.7 9.6 8.05 9.4 7.1 8.95 5.4 10.75 3.25 8.75 4.95 6.9 4.65 6.4 4.1 4.85 1.95 4.85 1.95 1.9 4.15 1.9 4.85 0.15 3.4 -1.15 5.4 -3.35 6.95 -1.9 7.95 -2.4 8.7 -2.65 8.7 -5.0 M0.9 8.95 L1.65 10.5 3.45 10.5 3.45 12.8 1.65 12.8 1.15 14.1 2.55 15.4 0.95 17.1 -0.4 15.8 -1.15 16.2 -2.15 16.6 -2.15 18.6 -4.5 18.6 -4.5 16.55 -5.0 16.4 -5.75 16.05 -7.1 17.5 -8.8 15.9 -7.45 14.45 -7.7 14.05 -8.15 12.8 -9.85 12.8 -9.85 10.5 -8.1 10.5 -7.55 9.1 -8.7 8.05 -7.1 6.3 -5.9 7.45 -5.1 7.05 -4.5 6.9 -4.5 5.0 -2.15 5.0 -2.15 6.85 -1.5 7.05 -0.8 7.35 0.45 6.0 2.15 7.6 0.9 8.95 M-0.8 11.85 Q-0.8 10.85 -1.55 10.1 -2.25 9.35 -3.3 9.35 -4.3 9.35 -5.05 10.1 -5.75 10.85 -5.75 11.85 -5.75 12.85 -5.05 13.6 -4.3 14.35 -3.3 14.35 -2.25 14.35 -1.55 13.6 -0.8 12.85 -0.8 11.85 M-6.05 -2.3 Q-4.4 -2.3 -3.25 -3.5 -2.05 -4.7 -2.05 -6.3 -2.05 -7.95 -3.25 -9.15 -4.4 -10.3 -6.05 -10.3 -7.7 -10.3 -8.9 -9.15 -10.05 -7.95 -10.05 -6.3 -10.05 -4.7 -8.9 -3.5 -7.7 -2.3 -6.05 -2.3" fill="#ffffff" fill-rule="evenodd" stroke="none"/>
  </g>
</svg>
