<?xml version="1.0" encoding="UTF-8" standalone="no"?>
<svg xmlns:xlink="http://www.w3.org/1999/xlink" height="24.45px" width="191.2px" xmlns="http://www.w3.org/2000/svg">
  <g transform="matrix(1.0, 0.0, 0.0, 1.0, -30.9, -118.0)">
    <path d="M208.65 137.0 L222.1 137.0 Q221.7 138.95 220.2 140.45 218.2 142.45 215.35 142.45 212.5 142.45 210.5 140.45 209.0 138.95 208.65 137.0 M50.6 120.5 Q46.95 124.2 41.75 124.2 36.55 124.2 32.85 120.5 31.7 119.35 30.9 118.0 L52.6 118.0 Q51.8 119.35 50.6 120.5" fill="#ffffff" fill-rule="evenodd" stroke="none"/>
    <path d="M136.05 133.1 Q133.8 130.95 133.45 128.0 L151.55 128.0 Q151.25 130.95 148.9 133.1 146.25 135.65 142.5 135.65 138.75 135.65 136.05 133.1" fill="#ffffff" fill-rule="evenodd" stroke="none"/>
  </g>
</svg>
