<?xml version="1.0" encoding="UTF-8" standalone="no"?>
<svg xmlns:xlink="http://www.w3.org/1999/xlink" height="416.95px" width="791.95px" xmlns="http://www.w3.org/2000/svg">
  <g transform="matrix(1.0, 0.0, 0.0, 1.0, 395.0, 188.9)">
    <path d="M-347.05 11.8 L-349.0 13.1 -357.0 16.1 -369.0 1.1 -365.0 -35.9 -373.0 -41.9 -375.0 -146.9 -374.0 -147.9 -393.0 -165.9 -395.0 -165.9 -395.0 -188.9 Q-380.0 -161.4 -365.0 -151.9 L-355.0 -14.9 Q-353.7 1.1 -347.05 11.8 M396.95 131.0 L373.95 141.1 368.95 169.1 350.95 170.1 336.95 197.05 322.95 189.05 322.15 185.35 327.95 184.05 336.95 161.05 352.95 157.05 360.95 129.1 Q382.35 110.4 396.95 112.0 L396.95 131.0 M201.5 146.8 L198.95 156.1 183.95 159.1 163.95 159.1 154.95 175.1 126.95 160.1 127.1 159.5 149.95 164.05 164.95 149.05 Q182.2 143.85 201.5 146.8 M77.1 138.85 L76.95 139.1 37.95 134.1 13.95 139.1 -10.05 147.1 -33.05 164.05 -67.0 162.1 -67.05 163.05 -77.05 183.05 -89.25 184.0 -101.05 190.05 -106.05 194.05 -117.05 196.05 -129.05 214.05 -136.05 184.1 -146.05 194.05 -151.05 176.05 -164.05 199.05 -159.05 169.05 -182.05 192.05 -163.05 166.1 -163.05 166.05 -175.05 166.05 -200.0 160.05 -221.0 152.1 -221.55 150.4 Q-192.05 142.45 -143.05 154.05 -136.8 173.15 -118.35 188.2 -96.3 189.35 -87.05 181.05 L-77.05 153.05 -27.05 133.05 Q10.95 127.95 38.25 128.95 50.7 129.4 60.95 131.1 L77.1 138.85 M-227.0 152.05 L-230.8 152.9 -220.0 203.05 -236.0 188.05 Q-246.2 155.45 -276.0 119.1 L-333.5 108.75 -328.0 95.1 -342.0 99.1 -328.1 88.2 -329.0 87.1 -327.75 87.5 Q-284.05 101.2 -251.0 117.1 -241.5 140.6 -229.5 150.2 L-227.0 152.05 M-300.0 197.05 L-278.0 208.05 -310.95 204.9 -307.0 179.2 -308.0 179.05 -340.0 171.05 -369.9 169.2 -373.0 169.85 -373.05 169.15 -372.0 169.05 -369.9 169.2 -341.8 163.45 -303.0 168.05 -300.0 197.05 M-33.05 211.05 L-30.05 197.05 6.95 182.05 11.95 162.05 44.95 154.05 15.95 170.05 6.95 196.05 -25.05 201.05 -25.05 215.05 -33.45 212.25 -33.05 211.05 M-368.0 76.1 L-367.0 76.1 -355.0 82.1 -337.0 68.1 -338.0 79.1 -354.0 90.1 -368.0 86.1 -368.0 76.1 M149.65 188.7 L149.95 193.05 143.95 209.05 86.65 210.0 87.95 206.05 141.95 202.15 144.95 189.05 149.65 188.7" fill="url(#gradient0)" fill-rule="evenodd" stroke="none"/>
    <path d="M149.65 188.7 L209.95 184.05 232.95 213.05 224.95 214.05 205.95 194.05 205.95 193.05 149.95 193.05 149.65 188.7" fill="url(#gradient1)" fill-rule="evenodd" stroke="none"/>
    <path d="M-395.0 -165.9 L-393.0 -165.9 -374.0 -147.9 -375.0 -146.9 -373.0 -41.9 -365.0 -35.9 -369.0 1.1 -357.0 16.1 -349.0 13.1 -347.05 11.8 Q-343.4 17.8 -338.0 22.1 -326.25 60.0 -329.0 87.1 L-328.1 88.2 -342.0 99.1 -328.0 95.1 -333.5 108.75 -276.0 119.1 Q-246.2 155.45 -236.0 188.05 L-220.0 203.05 -230.8 152.9 -227.0 152.05 Q-224.35 151.1 -221.55 150.4 L-221.0 152.1 -200.0 160.05 -175.05 166.05 -163.05 166.05 -163.05 166.1 -182.05 192.05 -159.05 169.05 -164.05 199.05 -151.05 176.05 -146.05 194.05 -136.05 184.1 -129.05 214.05 -117.05 196.05 -106.05 194.05 -101.05 190.05 -89.25 184.0 -77.05 183.05 -67.05 163.05 -67.0 162.1 -33.05 164.05 -10.05 147.1 13.95 139.1 37.95 134.1 76.95 139.1 77.1 138.85 114.95 157.05 127.1 159.5 126.95 160.1 154.95 175.1 163.95 159.1 183.95 159.1 198.95 156.1 201.5 146.8 Q208.6 147.85 215.95 150.05 L254.95 183.05 300.95 190.05 322.15 185.35 322.95 189.05 336.95 197.05 350.95 170.1 368.95 169.1 373.95 141.1 396.95 131.0 396.95 228.05 -395.0 228.05 -395.0 -165.9 M-300.0 197.05 L-303.0 168.05 -341.8 163.45 -369.9 169.2 -372.0 169.05 -373.05 169.15 -373.0 169.85 -369.9 169.2 -340.0 171.05 -308.0 179.05 -307.0 179.2 -310.95 204.9 -278.0 208.05 -300.0 197.05 M-368.0 76.1 L-368.0 86.1 -354.0 90.1 -338.0 79.1 -337.0 68.1 -355.0 82.1 -367.0 76.1 -368.0 76.1 M-33.05 211.05 L-33.45 212.25 -25.05 215.05 -25.05 201.05 6.95 196.05 15.95 170.05 44.95 154.05 11.95 162.05 6.95 182.05 -30.05 197.05 -33.05 211.05 M149.95 193.05 L205.95 193.05 205.95 194.05 224.95 214.05 232.95 213.05 209.95 184.05 149.65 188.7 144.95 189.05 141.95 202.15 87.95 206.05 86.65 210.0 143.95 209.05 149.95 193.05" fill="url(#gradient2)" fill-rule="evenodd" stroke="none"/>
  </g>
  <defs>
    <radialGradient cx="0" cy="0" gradientTransform="matrix(0.8409, 0.0, 0.0, 0.8409, 183.0, 185.95)" gradientUnits="userSpaceOnUse" id="gradient0" r="819.2" spreadMethod="pad">
      <stop offset="0.0" stop-color="#381d1d"/>
      <stop offset="0.36470588235294116" stop-color="#271414"/>
      <stop offset="1.0" stop-color="#13111a"/>
    </radialGradient>
    <radialGradient cx="0" cy="0" gradientTransform="matrix(0.8409, 0.0, 0.0, 0.8409, 183.0, 185.95)" gradientUnits="userSpaceOnUse" id="gradient1" r="819.2" spreadMethod="pad">
      <stop offset="0.0" stop-color="#331a1a"/>
      <stop offset="0.6392156862745098" stop-color="#150d0f"/>
      <stop offset="1.0" stop-color="#0b0b0f"/>
    </radialGradient>
    <radialGradient cx="0" cy="0" gradientTransform="matrix(0.8268, 0.0, 0.0, 0.8268, 161.0, 220.95)" gradientUnits="userSpaceOnUse" id="gradient2" r="819.2" spreadMethod="pad">
      <stop offset="0.0" stop-color="#271414"/>
      <stop offset="0.6392156862745098" stop-color="#150d0f"/>
      <stop offset="1.0" stop-color="#0b0b0f"/>
    </radialGradient>
  </defs>
</svg>
