<?xml version="1.0" encoding="UTF-8" standalone="no"?>
<svg xmlns:xlink="http://www.w3.org/1999/xlink" height="464.6px" width="828.9px" xmlns="http://www.w3.org/2000/svg">
  <g transform="matrix(1.0, 0.0, 0.0, 1.0, 419.0, 215.65)">
    <path d="M69.95 -54.6 Q112.1 -69.45 126.95 -88.95 L151.95 -73.6 180.95 -92.4 215.95 -98.35 232.8 -120.3 267.95 -124.3 290.6 -113.0 318.95 -94.1 333.95 -86.4 358.95 -88.95 362.95 -115.4 386.95 -124.45 386.95 76.1 -390.0 76.1 -390.0 -77.75 -367.0 -87.25 Q-356.1 -93.55 -338.0 -81.7 -331.25 -60.65 -317.0 -54.65 -303.85 -45.5 -292.0 -43.55 -277.9 -34.25 -273.0 -21.0 -248.4 -16.15 -224.0 -25.85 -197.15 -20.4 -186.05 -7.05 L-181.05 -1.0 Q-161.75 -7.2 -148.05 -24.55 -129.55 -36.15 -111.05 -29.05 -97.55 -14.7 -80.3 -11.65 -58.75 -11.05 -40.05 -19.0 -25.75 -44.05 4.95 -63.6 29.2 -73.25 69.95 -54.6" fill="url(#gradient0)" fill-rule="evenodd" stroke="none"/>
    <path d="M231.95 -178.9 L232.8 -178.65 M386.95 -188.9 L386.95 -183.5 396.95 -187.9 M-390.0 -131.9 L-390.0 -128.75 -398.0 -124.9" fill="none" stroke="#000000" stroke-linecap="round" stroke-linejoin="round" stroke-width="1.0"/>
    <path d="M-326.4 -76.65 L-330.0 -76.9 -329.7 -77.75 -326.4 -76.65" fill="url(#gradient1)" fill-rule="evenodd" stroke="none"/>
    <path d="M3.95 -32.9 L16.95 -31.9 24.95 21.1 21.5 23.5 34.95 43.1 18.95 42.1 1.65 18.4 1.8 18.25 15.95 16.1 3.95 -32.9 M-142.35 19.85 L-128.05 33.1 Q-108.45 45.35 -95.05 45.1 -77.2 33.3 -48.05 29.1 L-57.05 -39.9 18.95 -55.9 21.85 -45.85 -48.05 -34.9 -37.05 26.15 -4.05 60.1 57.95 57.15 41.45 21.2 Q66.2 26.0 90.95 21.1 L100.95 3.1 217.95 -8.9 259.95 4.1 345.95 -19.9 407.95 8.1 409.9 240.1 -403.8 242.0 -419.0 15.6 -358.25 -14.75 Q-344.25 -12.55 -334.0 -17.9 L-326.4 -76.65 -329.7 -77.75 -326.0 -88.9 -284.05 -78.95 -284.0 -78.95 -284.65 -74.85 -320.0 -79.9 -321.0 -79.9 -328.0 -14.0 -327.0 -13.9 -306.0 7.1 -304.85 6.9 -299.0 40.1 -259.0 40.1 -255.0 27.1 -291.0 28.1 -295.0 4.1 -308.0 -10.9 -302.3 -16.55 -299.0 -15.9 -298.0 -54.9 -290.0 -55.9 -288.85 -49.45 -296.0 -47.9 -293.0 -13.9 -279.0 -0.9 -279.0 15.1 -272.0 15.1 -271.0 -4.9 -282.15 -16.05 Q-267.6 -19.05 -253.0 -5.9 L-241.0 7.1 Q-229.5 16.55 -218.05 11.1 L-212.65 -37.4 -212.65 -37.5 -212.5 -38.55 -212.45 -39.35 -212.05 -42.9 -163.05 -51.9 -162.1 -44.95 -207.0 -36.9 -208.0 -36.9 -211.85 9.3 -190.0 35.1 -159.05 44.1 -132.05 31.1 -142.35 19.85 M-178.1 6.1 L-167.05 6.1 -171.85 -31.6 -171.9 -31.9 -170.15 -32.15 -168.0 -32.9 -162.05 9.1 -162.85 9.6 -155.05 23.1 -164.0 22.1 -178.1 6.1 M-191.05 -30.5 L-188.0 -29.9 -189.1 8.2 -178.0 26.1 -178.0 28.1 -184.0 28.1 -204.0 6.1 -192.05 6.1 -191.05 -30.5 M-24.5 -29.2 L-18.05 -27.9 -11.15 18.4 -17.5 19.95 -24.5 -29.2 M-17.35 21.0 L3.95 48.1 -6.05 48.1 -25.95 22.5 -17.3 21.2 -17.35 21.0" fill="url(#gradient2)" fill-rule="evenodd" stroke="none"/>
    <path d="M-284.65 -74.85 L-286.0 -66.9 -314.75 -70.1 -314.0 -18.9 -302.3 -16.55 -308.0 -10.9 -295.0 4.1 -291.0 28.1 -255.0 27.1 -259.0 40.1 -299.0 40.1 -304.85 6.9 -306.0 7.1 -327.0 -13.9 -328.0 -14.0 -321.0 -79.9 -320.0 -79.9 -284.65 -74.85" fill="url(#gradient3)" fill-rule="evenodd" stroke="none"/>
    <path d="M-288.85 -49.45 L-283.0 -15.9 -282.15 -16.05 -271.0 -4.9 -272.0 15.1 -279.0 15.1 -279.0 -0.9 -293.0 -13.9 -296.0 -47.9 -288.85 -49.45" fill="url(#gradient4)" fill-rule="evenodd" stroke="none"/>
    <path d="M-162.1 -44.95 L-155.05 8.1 -142.35 19.85 -132.05 31.1 -159.05 44.1 -190.0 35.1 -211.85 9.3 -208.0 -36.9 -207.0 -36.9 -162.1 -44.95 M-171.9 -31.9 L-182.05 -30.85 -179.1 6.1 -178.1 6.1 -164.0 22.1 -155.05 23.1 -162.85 9.6 -162.05 9.1 -168.0 -32.9 -170.15 -32.15 -171.9 -31.9 M-204.0 6.1 L-184.0 28.1 -178.0 28.1 -178.0 26.1 -189.1 8.2 -188.0 -29.9 -191.05 -30.5 -191.05 -30.9 -201.15 -27.5 -204.05 6.1 -204.0 6.1" fill="url(#gradient5)" fill-rule="evenodd" stroke="none"/>
    <path d="M1.8 18.25 L1.65 18.4 18.95 42.1 34.95 43.1 21.5 23.5 24.95 21.1 16.95 -31.9 3.95 -32.9 3.1 -36.35 -7.75 -34.4 1.8 18.25 M21.85 -45.85 L40.95 21.1 41.45 21.2 57.95 57.15 -4.05 60.1 -37.05 26.15 -48.05 -34.9 21.85 -45.85 M-17.5 19.95 L-11.15 18.4 -18.05 -27.9 -24.5 -29.2 -24.8 -31.3 -39.55 -27.15 -30.05 23.1 -25.95 22.5 -6.05 48.1 3.95 48.1 -17.35 21.0 -17.5 19.95" fill="url(#gradient6)" fill-rule="evenodd" stroke="none"/>
    <path d="M111.95 162.05 L111.95 161.05 92.3 105.9 146.95 76.1 157.95 -27.9 113.25 -64.05 113.95 -64.9 149.95 -90.9 364.4 -78.4 402.95 -33.9 398.95 119.05 358.95 192.05 111.95 162.05 M357.8 -4.3 L331.85 -7.75 323.95 90.1 351.95 95.9 357.8 -4.3 M249.95 -20.75 L235.75 -22.8 218.95 75.1 229.95 80.1 229.8 81.2 238.95 84.1 249.95 -20.75 M307.0 -14.05 L290.95 -16.9 276.95 -17.9 265.95 83.1 290.95 90.1 301.0 89.5 307.0 -14.05" fill="url(#gradient7)" fill-rule="evenodd" stroke="none"/>
    <path d="M113.95 -64.9 L149.95 -90.9 364.4 -78.4 389.95 -76.9 M364.4 -78.4 L402.95 -33.9 398.95 119.05 358.95 192.05 111.95 162.05" fill="none" stroke="#000000" stroke-linecap="round" stroke-linejoin="round" stroke-width="1.0"/>
    <path d="M202.5 -184.35 L266.95 -214.9 266.95 -215.65 297.25 -215.05 214.85 -174.1 202.5 -184.35 M78.95 -101.9 L79.45 -101.9 102.95 -154.9 139.95 -175.9 150.95 -159.9 173.35 -170.5 184.7 -159.15 148.5 -141.15 147.95 -140.9 133.25 -156.6 132.95 -156.9 117.15 -148.0 117.5 -147.4 116.85 -147.6 107.3 -120.8 116.75 -120.15 177.95 -115.95 205.3 -114.1 202.3 -92.5 78.95 -101.9 M244.8 -111.4 L295.0 -107.95 326.95 -105.75 321.35 -83.4 242.25 -89.45 244.8 -111.4 M284.4 -9.75 L283.35 -9.65 283.45 -10.9 284.4 -9.75 M334.0 4.75 L334.0 4.85 333.95 4.8 334.0 4.75" fill="#653834" fill-rule="evenodd" stroke="none"/>
    <path d="M332.8 4.05 L332.45 4.6 321.95 8.6 310.95 0.6 305.95 3.1 291.95 -0.9 284.4 -9.75 Q307.75 -12.15 332.8 4.05" fill="#2d1817" fill-rule="evenodd" stroke="none"/>
    <path d="M51.2 83.0 L88.95 -80.9 89.15 -82.8 Q115.85 -84.7 140.8 -77.75 L139.1 -64.15 136.95 -61.9 138.75 -61.65 118.9 92.3 110.0 88.6 102.5 104.1 Q88.75 104.75 75.0 98.6 L74.5 83.6 64.5 75.6 59.5 82.1 51.2 83.0" fill="url(#gradient8)" fill-rule="evenodd" stroke="none"/>
    <path d="M244.95 -67.7 L222.95 103.25 215.0 102.1 213.0 109.1 Q209.0 113.3 205.0 111.6 L196.5 104.6 188.0 99.6 183.5 113.1 Q177.95 115.6 170.5 110.6 L168.0 93.1 164.4 92.65 186.9 -73.3 Q211.0 -77.35 244.95 -67.7" fill="url(#gradient9)" fill-rule="evenodd" stroke="none"/>
    <path d="M284.4 -9.75 L283.45 -10.9 288.9 -63.45 Q313.8 -66.5 338.7 -58.6 L334.0 4.75 333.95 4.8 333.85 4.7 332.8 4.05 Q307.75 -12.15 284.4 -9.75 M269.05 127.85 L275.45 66.1 Q303.15 58.9 328.95 73.05 L326.35 108.4 318.95 109.6 314.45 127.1 305.95 127.1 305.95 127.6 301.45 141.1 288.45 141.1 277.95 134.1 277.95 128.6 269.05 127.85" fill="url(#gradient10)" fill-rule="evenodd" stroke="none"/>
    <path d="M390.2 -53.65 L391.9 -12.95 377.6 164.3 374.95 164.05 369.85 112.35 381.5 -54.5 390.2 -53.65" fill="url(#gradient11)" fill-rule="evenodd" stroke="none"/>
    <path d="M389.15 -78.25 L390.2 -53.65 381.5 -54.5 338.7 -58.6 Q313.8 -66.5 288.9 -63.45 L244.95 -67.7 Q211.0 -77.35 186.9 -73.3 L140.8 -77.75 Q115.85 -84.7 89.15 -82.8 L88.0 -82.9 78.95 -101.9 202.3 -92.5 242.25 -89.45 321.35 -83.4 389.15 -78.25" fill="url(#gradient12)" fill-rule="evenodd" stroke="none"/>
    <path d="M297.25 -215.05 L325.8 -214.45 272.95 -190.05 203.15 -157.7 169.0 -141.95 147.3 -131.9 147.35 -132.3 148.5 -141.15 184.7 -159.15 214.85 -174.1 297.25 -215.05" fill="url(#gradient13)" fill-rule="evenodd" stroke="none"/>
    <path d="M116.75 -120.15 L107.3 -120.8 116.85 -147.6 117.5 -147.4 117.15 -148.0 132.95 -156.9 133.25 -156.6 131.6 -145.15 123.45 -139.4 116.75 -120.15" fill="url(#gradient14)" fill-rule="evenodd" stroke="none"/>
    <path d="M325.8 -214.45 L334.1 -214.3 334.95 -179.9 386.05 -151.6 386.8 -133.95 321.95 -134.9 295.0 -107.95 244.8 -111.4 205.3 -114.1 177.95 -115.95 169.0 -141.95 203.15 -157.7 226.95 -133.9 285.95 -165.9 272.95 -190.05 325.8 -214.45" fill="#4f2c28" fill-rule="evenodd" stroke="none"/>
    <path d="M133.25 -156.6 L147.95 -140.9 148.5 -141.15 147.35 -132.3 146.85 -132.4 131.8 -145.25 131.6 -145.15 133.25 -156.6" fill="#482626" fill-rule="evenodd" stroke="none"/>
    <path d="M377.6 164.3 L370.8 248.95 16.9 245.15 10.15 139.0 24.95 113.1 37.1 111.3 43.0 88.1 51.2 83.0 59.5 82.1 64.5 75.6 74.5 83.6 75.0 98.6 Q88.75 104.75 102.5 104.1 L110.0 88.6 118.9 92.3 118.9 92.35 119.35 92.4 123.6 99.85 122.5 116.8 122.55 116.8 143.85 120.6 143.95 120.05 154.05 115.95 160.85 94.05 164.3 93.65 164.4 92.65 168.0 93.1 170.5 110.6 Q177.95 115.6 183.5 113.1 L188.0 99.6 196.5 104.6 205.0 111.6 Q209.0 113.3 213.0 109.1 L215.0 102.1 222.95 103.25 222.95 103.3 225.5 103.6 225.05 127.95 231.95 136.85 259.85 143.3 263.5 130.1 269.05 127.85 277.95 128.6 277.95 134.1 288.45 141.1 301.45 141.1 305.95 127.6 305.95 127.1 314.45 127.1 318.95 109.6 326.35 108.4 330.45 113.6 331.45 139.1 335.35 146.2 374.95 164.05 377.6 164.3" fill="url(#gradient15)" fill-rule="evenodd" stroke="none"/>
    <path d="M205.3 -114.1 L244.8 -111.4 242.25 -89.45 202.3 -92.5 205.3 -114.1" fill="#62332f" fill-rule="evenodd" stroke="none"/>
    <path d="M388.15 -101.55 L389.15 -78.25 321.35 -83.4 326.95 -105.75 388.15 -101.55" fill="#5b2f24" fill-rule="evenodd" stroke="none"/>
    <path d="M147.35 -132.3 L147.3 -131.9 169.0 -141.95 177.95 -115.95 116.75 -120.15 123.45 -139.4 131.6 -145.15 131.8 -145.25 146.85 -132.4 147.35 -132.3" fill="#452421" fill-rule="evenodd" stroke="none"/>
    <path d="M334.1 -214.3 L383.4 -213.35 386.05 -151.6 334.95 -179.9 334.1 -214.3" fill="#411d1d" fill-rule="evenodd" stroke="none"/>
    <path d="M386.8 -133.95 L388.15 -101.55 326.95 -105.75 295.0 -107.95 321.95 -134.9 386.8 -133.95" fill="#583030" fill-rule="evenodd" stroke="none"/>
    <path d="M203.15 -157.7 L272.95 -190.05 285.95 -165.9 226.95 -133.9 203.15 -157.7" fill="#4a2d2d" fill-rule="evenodd" stroke="none"/>
    <path d="M173.35 -170.5 L202.5 -184.35 214.85 -174.1 184.7 -159.15 173.35 -170.5" fill="#614038" fill-rule="evenodd" stroke="none"/>
    <path d="M238.95 -202.9 L243.5 -204.4 254.95 -193.9 252.95 -178.9 272.95 -147.9 313.95 -136.9 273.95 -141.9 230.85 -119.95 269.95 -143.9 247.95 -180.9 249.95 -193.9 238.3 -201.95 238.95 -202.9 M257.0 -205.9 Q258.45 -205.65 258.5 -204.25 258.5 -203.4 257.9 -203.05 256.45 -202.15 256.9 -203.4 L257.35 -203.65 257.45 -204.1 257.0 -204.65 Q256.45 -204.85 256.15 -204.2 L255.75 -203.75 255.65 -204.15 255.7 -204.45 256.25 -205.2 256.95 -205.8 257.0 -205.9 M151.1 -149.55 Q150.8 -148.45 150.1 -148.9 149.7 -149.1 149.8 -150.1 L150.0 -150.4 Q151.4 -150.7 151.1 -149.55 M105.65 -139.85 L103.9 -138.8 103.25 -138.75 Q102.1 -139.75 103.0 -141.1 L104.15 -143.2 Q104.55 -144.2 105.5 -144.35 L105.75 -144.4 Q106.55 -143.4 106.6 -142.15 106.65 -140.7 105.65 -139.85 M93.8 -118.75 L93.15 -118.85 Q92.65 -119.3 93.5 -119.4 94.35 -119.25 93.8 -118.75 M95.0 -114.75 L95.95 -115.3 96.0 -115.4 97.5 -115.0 97.8 -114.5 97.85 -113.75 97.4 -113.25 Q96.05 -112.4 94.9 -113.65 94.4 -114.2 95.0 -114.75 M138.6 -134.75 Q140.05 -134.4 139.4 -133.55 138.75 -132.75 138.2 -133.35 137.2 -134.3 138.5 -134.75 L138.6 -134.75 M158.2 -91.3 L158.95 -91.75 Q161.2 -91.6 160.25 -89.5 159.6 -88.05 157.9 -87.65 156.0 -87.2 155.2 -89.0 L155.4 -89.5 158.2 -91.3 M130.2 -71.5 Q130.8 -69.65 130.2 -68.25 129.3 -65.95 128.55 -68.35 127.85 -70.65 130.0 -71.45 L130.2 -71.5 M96.55 -71.85 Q95.65 -70.25 95.3 -71.45 94.9 -72.85 96.0 -73.4 97.3 -73.15 96.55 -71.85 M103.45 -72.35 Q102.0 -74.8 104.95 -75.5 107.45 -74.7 106.25 -71.7 105.25 -69.25 103.45 -72.35 M118.1 -12.8 Q117.85 -11.25 116.2 -12.55 114.4 -14.0 115.95 -14.65 L115.95 -14.75 Q118.45 -14.55 118.1 -12.8 M97.6 -29.5 Q97.25 -29.15 97.0 -29.25 L97.2 -29.65 98.1 -30.15 97.6 -29.5 M122.75 -17.65 Q122.25 -17.7 122.25 -18.1 122.3 -18.6 123.1 -18.65 123.6 -17.6 122.75 -17.65 M315.15 -168.25 L315.05 -167.5 Q315.0 -166.7 314.25 -166.9 L313.85 -167.15 Q313.55 -167.45 313.55 -167.7 313.6 -168.05 314.0 -168.3 L314.95 -168.8 314.95 -168.9 315.15 -168.25 M282.5 -185.85 Q282.55 -186.6 283.6 -186.65 284.0 -185.65 283.2 -185.2 282.4 -184.7 282.5 -185.85 M245.0 -152.5 L245.2 -152.0 245.0 -151.65 244.5 -151.4 Q243.5 -150.4 243.2 -151.55 L243.1 -152.25 Q243.1 -152.75 243.5 -152.9 L245.0 -152.5 M304.6 -124.65 L304.55 -123.1 Q304.45 -122.5 303.95 -122.2 L302.95 -121.75 302.25 -121.75 302.15 -122.15 302.1 -122.5 302.15 -122.85 302.25 -123.25 302.6 -123.65 303.3 -124.15 304.1 -124.5 304.5 -124.6 304.6 -124.65 M224.3 -190.1 Q224.4 -189.2 223.6 -188.65 222.25 -187.8 223.0 -189.0 L223.25 -189.25 222.4 -189.5 222.1 -190.0 Q222.0 -190.7 222.6 -191.15 L223.0 -191.4 Q224.2 -191.25 224.3 -190.1 M198.6 -171.35 Q198.3 -170.95 198.0 -171.15 197.35 -171.6 198.1 -172.15 L198.6 -172.25 Q199.0 -171.75 198.6 -171.35 M191.0 -172.6 L190.2 -172.55 Q189.75 -173.2 190.45 -173.65 L190.5 -173.75 Q191.45 -173.65 191.0 -172.6 M180.45 -101.4 Q181.7 -101.15 181.35 -99.75 181.05 -98.6 180.1 -99.6 179.6 -100.2 180.15 -101.1 L180.45 -101.4 M230.6 -104.25 Q230.4 -102.45 228.8 -103.3 227.35 -104.15 228.65 -105.6 L229.0 -105.9 Q230.75 -106.0 230.6 -104.25 M219.0 -99.4 Q219.95 -99.35 219.95 -98.5 219.95 -97.8 219.35 -98.0 218.3 -98.4 218.8 -99.2 L219.0 -99.4 M228.2 -57.25 Q228.6 -56.2 228.1 -55.25 227.35 -53.9 226.0 -53.2 223.85 -52.05 224.4 -54.3 L224.45 -55.0 225.5 -56.2 226.0 -56.45 227.2 -56.85 227.4 -57.05 227.5 -57.15 227.95 -57.25 228.2 -57.25 M194.45 -20.15 Q194.75 -18.45 193.8 -20.65 192.9 -22.85 194.2 -23.25 194.2 -21.5 194.45 -20.15 M227.4 -46.1 Q226.8 -45.55 226.05 -45.7 225.3 -45.85 226.5 -46.25 L227.6 -46.65 227.4 -46.1 M298.4 -76.2 Q296.15 -74.7 296.3 -77.25 296.35 -79.35 298.95 -79.5 L299.2 -79.5 Q300.5 -77.65 298.4 -76.2 M311.8 -50.5 L310.8 -49.8 Q309.55 -49.1 310.45 -50.3 L310.95 -50.9 Q312.4 -50.9 311.8 -50.5 M266.4 -76.6 Q264.5 -76.45 264.1 -74.5 L264.45 -76.75 Q264.55 -77.35 264.95 -77.5 268.25 -76.8 266.4 -76.6 M272.95 -74.75 Q275.1 -74.65 277.0 -73.95 278.0 -73.55 277.6 -72.3 L277.2 -71.5 276.5 -70.75 Q275.8 -69.85 274.9 -69.7 L271.55 -69.85 Q271.35 -69.9 271.2 -70.25 L271.25 -71.0 271.55 -72.5 272.2 -74.0 272.5 -74.45 272.95 -74.75 M323.6 -41.9 Q323.45 -42.8 324.0 -43.55 324.55 -44.4 325.6 -44.7 L325.95 -44.9 Q326.85 -44.9 327.25 -44.15 327.65 -43.25 327.2 -42.45 326.8 -41.8 326.7 -41.0 L326.45 -40.65 325.3 -40.6 323.7 -40.55 323.6 -40.75 323.6 -41.9 M308.2 -49.5 L307.15 -48.05 305.85 -46.65 Q305.2 -46.15 304.45 -46.15 304.35 -46.15 304.2 -46.5 L304.2 -47.25 304.4 -47.8 306.5 -49.1 307.95 -49.5 308.2 -49.5 M298.55 -36.8 L297.35 -36.85 Q296.85 -37.65 297.75 -38.15 L298.1 -38.25 Q299.25 -37.7 298.55 -36.8 M302.0 -14.9 L297.7 -8.6 297.6 -8.5 291.65 -9.85 298.0 -14.4 294.5 -21.9 302.0 -14.9 M312.3 -6.0 L324.5 -6.9 325.0 -24.4 327.9 -7.45 327.95 -7.15 332.9 4.95 324.7 -4.65 324.65 -4.65 317.5 -3.4 312.3 -6.0 M376.5 -191.2 L376.75 -190.5 376.9 -190.15 377.2 -189.75 Q377.15 -188.9 376.4 -188.8 L375.8 -188.3 Q375.4 -187.95 374.95 -187.9 374.55 -187.9 374.1 -188.15 L374.1 -188.5 374.1 -189.25 374.15 -190.0 374.2 -190.75 375.95 -190.95 375.85 -191.25 375.85 -191.55 376.1 -191.65 376.5 -191.2 M372.5 -181.95 Q372.7 -182.65 373.25 -183.25 L374.55 -184.4 374.95 -184.5 375.2 -184.5 Q376.3 -183.4 376.1 -182.1 375.95 -181.05 374.8 -180.7 L372.45 -180.5 372.5 -181.95 M331.65 -196.55 Q331.6 -197.15 332.1 -197.35 333.65 -198.0 335.2 -198.25 335.2 -197.0 334.0 -196.2 331.85 -194.9 331.65 -196.55 M363.95 -127.75 Q366.15 -127.3 367.0 -125.65 367.7 -124.2 365.45 -124.15 362.45 -124.05 363.65 -127.1 L363.95 -127.75 M369.15 -88.3 Q368.3 -87.5 367.3 -87.9 L367.1 -88.15 366.7 -88.9 Q366.45 -89.7 366.75 -90.4 L367.55 -91.25 368.45 -91.5 Q369.8 -91.5 369.95 -90.25 370.05 -89.1 369.15 -88.3 M369.9 -69.1 Q368.25 -67.25 367.75 -69.4 367.25 -71.4 369.2 -71.5 370.95 -70.25 369.9 -69.1 M334.35 -95.35 Q334.05 -96.25 334.7 -97.05 L335.1 -97.25 Q335.6 -96.55 335.3 -95.85 334.7 -94.55 334.35 -95.35 M341.9 -70.6 L341.95 -70.75 Q344.8 -71.4 344.65 -69.0 344.55 -67.3 342.8 -66.7 L339.55 -66.8 339.2 -67.25 Q339.2 -67.65 339.35 -67.95 L340.0 -68.75 341.1 -69.85 341.6 -70.4 341.9 -70.6 M380.85 17.35 L380.75 17.05 Q381.0 16.35 381.6 15.85 L382.65 14.9 382.95 14.7 382.95 14.6 Q384.6 14.4 384.65 15.85 384.75 17.5 383.2 17.95 381.8 18.35 380.85 17.35 M382.45 48.6 L383.95 49.0 384.35 49.5 384.2 49.7 Q382.65 50.6 382.15 49.35 L382.15 49.0 382.25 48.75 382.45 48.6 M382.6 72.0 Q382.15 74.75 381.45 72.2 380.95 70.5 380.95 69.75 L380.95 69.5 Q383.05 69.65 382.6 72.0 M286.0 64.1 L290.5 64.1 297.5 73.6 294.65 77.2 299.35 98.7 291.5 81.15 285.5 88.6 274.5 121.6 283.0 86.6 293.5 72.1 286.0 64.1 M313.95 85.5 L313.7 85.65 311.8 85.5 Q311.05 85.3 311.1 84.6 L311.15 84.25 311.4 83.45 Q311.55 82.8 312.15 82.45 L312.95 82.05 312.95 82.0 Q313.8 82.25 314.45 82.7 315.1 83.15 314.8 83.9 L313.95 85.5 M182.4 43.25 Q181.85 45.1 181.25 43.4 180.9 42.4 181.75 40.9 181.85 40.75 182.2 40.75 182.65 42.25 182.4 43.25 M198.6 62.35 L198.8 63.1 198.8 63.85 198.55 64.5 Q198.35 64.75 197.95 64.85 196.9 65.0 196.95 64.0 197.0 63.25 197.6 62.9 198.05 62.6 198.5 62.4 L198.6 62.35 M216.0 76.5 L216.25 76.25 216.45 76.1 Q217.45 76.3 217.45 77.35 217.45 78.1 216.5 78.2 216.2 78.25 215.75 78.65 L215.2 78.75 Q215.15 78.35 215.25 78.0 L215.55 77.2 216.0 76.5 M211.65 86.0 Q211.6 89.15 208.15 86.55 205.0 84.25 207.95 83.25 211.75 82.5 211.65 86.0 M206.0 126.5 Q205.7 128.0 204.75 127.6 202.85 126.8 203.9 125.65 L203.95 125.45 Q206.3 125.0 206.0 126.5 M222.75 146.3 Q222.4 147.2 221.8 146.55 221.25 145.95 222.15 145.4 L222.6 145.25 Q223.0 145.7 222.75 146.3 M176.95 119.75 L177.2 119.7 176.05 121.05 Q175.1 122.0 175.3 123.35 175.35 123.7 174.65 123.55 L174.45 122.7 174.45 121.95 174.45 121.2 174.6 120.9 176.2 120.0 176.95 119.75 M166.7 132.4 L166.9 131.95 167.2 131.25 167.45 130.7 167.5 130.6 168.55 130.9 169.35 131.5 Q169.8 132.0 169.45 132.65 L169.25 133.25 169.0 133.3 167.75 133.15 166.75 132.75 166.7 132.4 M290.35 119.15 Q288.8 121.45 287.5 120.3 285.5 118.55 287.95 117.2 292.05 116.55 290.35 119.15 M271.7 174.2 L271.75 174.95 Q271.85 176.15 271.4 177.2 270.85 178.35 269.9 179.1 268.85 179.95 267.45 180.45 L267.15 179.75 Q266.45 178.65 266.3 177.45 L266.2 175.2 Q266.2 174.45 266.5 173.85 L266.9 173.4 266.95 173.2 271.15 173.8 Q271.45 173.85 271.7 174.2 M303.6 154.95 L303.1 157.1 Q302.85 157.85 301.45 158.2 L301.3 157.45 301.2 155.95 301.4 154.55 301.9 153.45 301.95 153.2 Q303.9 153.15 303.6 154.95 M119.0 3.4 Q118.95 4.4 118.15 5.0 117.15 5.8 116.6 4.85 L116.7 4.15 Q116.85 3.55 117.15 3.05 L117.65 2.45 118.0 2.1 Q119.1 2.2 119.0 3.4 M117.8 23.65 L117.0 23.9 Q115.1 23.9 116.05 23.4 L117.0 23.1 Q118.65 22.9 117.8 23.65 M96.1 4.35 Q96.85 4.7 96.4 5.05 L95.55 4.95 Q95.05 4.4 96.1 4.35 M89.0 44.1 L81.15 51.5 88.3 57.95 101.5 55.1 87.5 61.6 87.0 61.6 73.5 50.1 57.5 59.6 57.05 59.5 58.45 53.0 59.0 53.1 73.0 44.1 79.55 50.0 86.5 42.6 87.5 32.1 89.0 44.1 M91.95 78.15 L91.4 79.35 Q91.15 79.85 91.65 80.35 L91.75 80.6 90.75 80.6 89.7 80.25 89.6 80.0 Q89.5 79.35 89.95 79.0 L90.75 78.05 91.1 76.9 Q91.15 76.45 91.75 76.6 92.2 77.3 91.95 78.15 M81.55 82.0 Q80.95 84.2 80.6 81.95 80.25 80.0 81.95 79.75 L82.2 79.75 81.55 82.0 M61.05 117.6 L57.45 117.85 57.45 117.45 57.4 116.75 Q57.35 116.35 57.45 116.1 57.85 115.2 58.55 114.55 L59.9 113.4 59.95 113.2 Q62.1 113.55 62.75 115.6 63.25 117.2 61.05 117.6 M92.95 118.2 Q94.9 118.15 94.85 120.0 94.8 121.55 93.5 122.6 L92.45 123.4 Q92.1 123.6 91.2 122.95 90.85 122.2 90.8 121.45 90.7 120.7 91.15 120.1 L92.3 118.8 92.9 118.4 92.95 118.2 M113.75 129.6 Q114.25 130.1 114.3 130.65 L114.35 130.45 Q114.65 129.45 115.5 129.0 116.55 128.9 116.9 129.85 117.25 130.7 116.75 131.35 116.3 132.0 117.15 132.4 L117.1 132.6 116.75 133.0 116.45 133.35 115.6 134.1 115.0 134.5 114.3 134.25 113.55 133.8 113.05 133.45 112.35 133.65 111.75 133.75 Q110.95 133.2 111.2 132.25 L111.7 130.75 Q112.0 130.05 112.55 129.8 L113.75 129.6 M115.3 131.35 Q115.5 131.85 115.8 131.2 116.1 130.65 115.75 130.25 L115.5 130.25 Q115.05 130.8 115.3 131.35" fill="#000000" fill-opacity="0.17254902" fill-rule="evenodd" stroke="none"/>
    <path d="M266.95 -215.65 L383.4 -213.35 391.9 -12.95 370.8 248.95 16.9 245.15 10.15 139.0 24.95 113.1 37.1 111.3 43.0 88.1 51.2 83.0 88.95 -80.9 89.15 -82.8 88.0 -82.9 78.95 -101.9 79.45 -101.9 102.95 -154.9 139.95 -175.9 150.95 -159.9 266.95 -214.9 266.95 -215.65 M291.95 -0.9 L284.4 -9.75 283.35 -9.65 288.9 -63.45 244.95 -67.7 222.95 103.25 222.95 103.3 225.5 103.6 225.05 127.95 231.95 136.85 259.85 143.3 263.5 130.1 269.05 127.85 275.45 66.1 Q303.15 58.9 328.95 73.05 L326.35 108.4 330.45 113.6 331.45 139.1 335.35 146.2 374.95 164.05 369.85 112.35 381.5 -54.5 338.7 -58.6 334.0 4.75 334.0 4.85 333.95 4.8 333.85 4.7 332.8 4.05 332.45 4.6 321.95 8.6 310.95 0.6 305.95 3.1 291.95 -0.9 M136.95 -61.9 L138.75 -61.65 118.9 92.3 118.9 92.35 119.35 92.4 123.6 99.85 122.5 116.8 122.55 116.8 143.85 120.6 143.95 120.05 154.05 115.95 160.85 94.05 164.3 93.65 186.9 -73.3 140.8 -77.75 139.1 -64.15 136.95 -61.9" fill="url(#gradient16)" fill-rule="evenodd" stroke="none"/>
  </g>
  <defs>
    <linearGradient gradientTransform="matrix(0.0, 0.1224, -0.4742, 0.0, -1.5, -24.2)" gradientUnits="userSpaceOnUse" id="gradient0" spreadMethod="pad" x1="-819.2" x2="819.2">
      <stop offset="0.25098039215686274" stop-color="#271414" stop-opacity="0.8627451"/>
      <stop offset="1.0" stop-color="#3c2222" stop-opacity="0.6627451"/>
    </linearGradient>
    <linearGradient gradientTransform="matrix(0.5059, 0.0, 0.0, 0.202, -4.55, 76.55)" gradientUnits="userSpaceOnUse" id="gradient1" spreadMethod="pad" x1="-819.2" x2="819.2">
      <stop offset="0.0" stop-color="#362125"/>
      <stop offset="1.0" stop-color="#4a3c2d" stop-opacity="0.6627451"/>
    </linearGradient>
    <radialGradient cx="0" cy="0" gradientTransform="matrix(0.033, -0.3548, 0.8119, 0.0754, -75.0, -56.0)" gradientUnits="userSpaceOnUse" id="gradient2" r="819.2" spreadMethod="pad">
      <stop offset="0.0" stop-color="#804d2b"/>
      <stop offset="0.33725490196078434" stop-color="#5f2618"/>
      <stop offset="0.6588235294117647" stop-color="#362125"/>
      <stop offset="1.0" stop-color="#23212c"/>
    </radialGradient>
    <linearGradient gradientTransform="matrix(0.006, 0.0757, -0.0423, 0.0033, -293.55, -19.6)" gradientUnits="userSpaceOnUse" id="gradient3" spreadMethod="pad" x1="-819.2" x2="819.2">
      <stop offset="0.0" stop-color="#362125"/>
      <stop offset="0.7176470588235294" stop-color="#23212c"/>
      <stop offset="1.0" stop-color="#56241a"/>
    </linearGradient>
    <linearGradient gradientTransform="matrix(0.0042, 0.04, -0.0127, 0.0013, -282.75, -17.0)" gradientUnits="userSpaceOnUse" id="gradient4" spreadMethod="pad" x1="-819.2" x2="819.2">
      <stop offset="0.0" stop-color="#362125"/>
      <stop offset="0.7176470588235294" stop-color="#23212c"/>
      <stop offset="1.0" stop-color="#56241a"/>
    </linearGradient>
    <linearGradient gradientTransform="matrix(0.0017, 0.0544, -0.0482, 0.0015, -172.55, -0.1)" gradientUnits="userSpaceOnUse" id="gradient5" spreadMethod="pad" x1="-819.2" x2="819.2">
      <stop offset="0.0" stop-color="#362125"/>
      <stop offset="0.7176470588235294" stop-color="#23212c"/>
      <stop offset="1.0" stop-color="#56241a"/>
    </linearGradient>
    <linearGradient gradientTransform="matrix(0.0088, 0.0647, -0.056, 0.0076, 4.85, 10.45)" gradientUnits="userSpaceOnUse" id="gradient6" spreadMethod="pad" x1="-819.2" x2="819.2">
      <stop offset="0.0" stop-color="#362125"/>
      <stop offset="0.7176470588235294" stop-color="#23212c"/>
      <stop offset="1.0" stop-color="#56241a"/>
    </linearGradient>
    <linearGradient gradientTransform="matrix(0.0289, -0.1683, 0.188, 0.0323, 253.2, 44.45)" gradientUnits="userSpaceOnUse" id="gradient7" spreadMethod="pad" x1="-819.2" x2="819.2">
      <stop offset="0.0" stop-color="#392624"/>
      <stop offset="1.0" stop-color="#0f0f13"/>
    </linearGradient>
    <radialGradient cx="0" cy="0" gradientTransform="matrix(0.0834, 0.0192, -0.0389, 0.1685, 88.0, 9.0)" gradientUnits="userSpaceOnUse" id="gradient8" r="819.2" spreadMethod="pad">
      <stop offset="0.0" stop-color="#997d55"/>
      <stop offset="0.44313725490196076" stop-color="#653834"/>
      <stop offset="1.0" stop-color="#211c31"/>
    </radialGradient>
    <radialGradient cx="0" cy="0" gradientTransform="matrix(0.0841, 0.0157, -0.0297, 0.1599, 197.0, 17.0)" gradientUnits="userSpaceOnUse" id="gradient9" r="819.2" spreadMethod="pad">
      <stop offset="0.0" stop-color="#997d55"/>
      <stop offset="0.44313725490196076" stop-color="#653834"/>
      <stop offset="1.0" stop-color="#211c31"/>
    </radialGradient>
    <radialGradient cx="0" cy="0" gradientTransform="matrix(0.0792, 0.0112, -0.0237, 0.1675, 296.0, 28.0)" gradientUnits="userSpaceOnUse" id="gradient10" r="819.2" spreadMethod="pad">
      <stop offset="0.0" stop-color="#997d55"/>
      <stop offset="0.44313725490196076" stop-color="#653834"/>
      <stop offset="1.0" stop-color="#211c31"/>
    </radialGradient>
    <radialGradient cx="0" cy="0" gradientTransform="matrix(0.1603, 0.0, 0.0, 0.1603, 400.0, 48.0)" gradientUnits="userSpaceOnUse" id="gradient11" r="819.2" spreadMethod="pad">
      <stop offset="0.0" stop-color="#997d55"/>
      <stop offset="0.44313725490196076" stop-color="#653834"/>
      <stop offset="1.0" stop-color="#211c31"/>
    </radialGradient>
    <linearGradient gradientTransform="matrix(0.19, 0.0, 0.0, 0.0294, 234.55, -77.8)" gradientUnits="userSpaceOnUse" id="gradient12" spreadMethod="pad" x1="-819.2" x2="819.2">
      <stop offset="0.0" stop-color="#3e2220"/>
      <stop offset="1.0" stop-color="#371515"/>
    </linearGradient>
    <linearGradient gradientTransform="matrix(0.1089, 0.0, 0.0, 0.0508, 236.55, -173.5)" gradientUnits="userSpaceOnUse" id="gradient13" spreadMethod="pad" x1="-819.2" x2="819.2">
      <stop offset="0.0" stop-color="#3e2220"/>
      <stop offset="1.0" stop-color="#371515"/>
    </linearGradient>
    <linearGradient gradientTransform="matrix(0.0158, 0.0, 0.0, 0.0224, 120.25, -138.55)" gradientUnits="userSpaceOnUse" id="gradient14" spreadMethod="pad" x1="-819.2" x2="819.2">
      <stop offset="0.0" stop-color="#3e2220"/>
      <stop offset="1.0" stop-color="#371515"/>
    </linearGradient>
    <radialGradient cx="0" cy="0" gradientTransform="matrix(-0.0365, 0.1642, -0.2897, -0.0644, 171.0, 185.0)" gradientUnits="userSpaceOnUse" id="gradient15" r="819.2" spreadMethod="pad">
      <stop offset="0.0" stop-color="#786243"/>
      <stop offset="0.44313725490196076" stop-color="#653834"/>
      <stop offset="1.0" stop-color="#211c31"/>
    </radialGradient>
    <radialGradient cx="0" cy="0" gradientTransform="matrix(0.3774, 0.0301, -0.0301, 0.3774, 175.0, -96.0)" gradientUnits="userSpaceOnUse" id="gradient16" r="819.2" spreadMethod="pad">
      <stop offset="0.3333333333333333" stop-color="#23212c" stop-opacity="0.0"/>
      <stop offset="1.0" stop-color="#1a1a22" stop-opacity="0.78039217"/>
    </radialGradient>
  </defs>
</svg>
