<?xml version="1.0" encoding="UTF-8" standalone="no"?>
<svg xmlns:xlink="http://www.w3.org/1999/xlink" height="18.1px" width="462.95px" xmlns="http://www.w3.org/2000/svg">
  <g transform="matrix(1.0, 0.0, 0.0, 1.0, 307.45, -189.75)">
    <path d="M13.15 191.95 Q14.65 191.6 16.2 191.95 L16.5 192.25 Q14.1 192.45 11.9 193.15 11.25 193.35 10.85 192.9 10.5 192.6 10.5 192.0 L10.55 191.85 11.25 191.75 13.15 191.95 M155.2 206.9 L155.5 207.25 Q153.6 207.95 151.5 207.85 150.75 207.85 150.1 207.35 149.75 207.1 149.75 206.75 L150.0 206.75 150.5 206.75 151.75 206.8 153.05 206.7 155.2 206.9 M98.9 203.8 Q97.9 204.75 96.65 204.5 96.5 204.5 96.9 204.0 97.75 202.85 99.25 202.75 99.25 203.5 98.9 203.8 M41.5 200.25 Q36.05 201.55 30.55 200.85 L30.65 200.5 Q30.9 199.75 31.4 199.1 L32.05 198.75 32.25 198.75 32.5 199.6 35.5 199.85 37.05 199.7 41.25 199.95 41.5 200.25 M-156.95 195.0 L-157.05 195.15 Q-158.2 195.35 -158.9 194.65 -159.95 193.65 -158.7 193.75 L-156.95 195.0 M-116.45 192.0 L-113.0 191.8 -111.95 191.7 -108.75 191.95 -108.45 192.25 -113.0 192.85 -118.1 192.6 -117.7 192.0 -117.45 191.8 -116.95 191.75 -116.7 191.75 -116.45 192.0 M-3.85 192.1 L-3.95 192.1 Q-5.25 192.0 -6.0 191.05 -6.95 189.95 -5.75 189.75 -5.8 191.75 -3.85 192.1 M-245.9 197.1 L-246.05 197.15 Q-247.2 197.35 -248.2 196.8 L-247.95 196.5 Q-246.85 196.6 -245.9 197.1 M-241.45 204.25 L-241.95 204.35 -252.4 203.75 Q-253.45 203.6 -254.4 202.9 L-254.45 202.85 -253.45 202.75 -252.45 203.0 -241.75 203.95 -241.45 204.25 M-226.05 199.15 Q-227.2 199.35 -227.9 198.65 -228.95 197.65 -227.7 197.75 L-225.95 199.0 -226.05 199.15 M-305.9 205.1 L-302.75 205.9 -302.45 206.25 -302.95 206.35 -306.3 205.8 -307.4 204.95 -307.4 204.85 -306.7 204.75 -305.9 205.1 M-53.45 205.1 L-50.8 205.9 -50.5 206.25 -50.95 206.3 -54.5 206.05 -56.75 205.6 -55.95 205.05 -54.5 204.75 -53.45 205.1" fill="#488bb7" fill-rule="evenodd" stroke="none"/>
  </g>
</svg>
