<?xml version="1.0" encoding="UTF-8" standalone="no"?>
<svg xmlns:xlink="http://www.w3.org/1999/xlink" height="61.75px" width="806.35px" xmlns="http://www.w3.org/2000/svg">
  <g transform="matrix(1.0, 0.0, 0.0, 1.0, 403.15, 30.9)">
    <path d="M50.95 -7.05 L50.95 -5.55 50.8 -2.55 50.6 -1.05 50.45 0.45 50.45 1.95 50.35 3.45 49.95 4.95 49.3 6.35 48.35 7.2 Q46.7 7.95 45.75 9.1 L41.2 14.65 Q39.3 17.0 36.65 17.9 23.1 22.6 8.65 18.8 6.45 18.2 4.45 16.95 3.7 16.2 3.25 15.3 2.95 14.7 2.95 13.95 L2.95 12.45 2.75 11.05 2.2 9.4 1.1 6.6 Q0.7 5.7 -0.05 4.95 L-1.5 3.9 -2.1 3.6 -6.95 2.15 -9.6 1.05 Q-12.8 -0.55 -16.1 -1.95 L-23.5 -5.15 -26.6 -6.0 Q-27.3 -6.05 -28.05 -5.55 L-28.55 -4.05 Q-28.8 -3.3 -29.2 -2.65 -29.55 -2.05 -30.1 -1.95 L-34.95 -2.1 Q-39.25 -3.05 -43.55 -5.0 -45.3 -5.8 -47.05 -5.75 -53.05 -5.55 -58.95 -4.15 -60.3 -3.8 -61.55 -3.05 L-64.9 -3.95 -66.55 -5.05 -68.05 -6.55 -69.5 -8.1 Q-70.05 -8.8 -70.25 -9.6 L-70.55 -12.55 -70.55 -14.05 -70.55 -15.55 Q-70.55 -16.3 -70.75 -16.35 L-72.6 -16.5 -85.05 -16.05 -86.55 -17.55 -88.05 -19.05 -89.55 -20.55 -91.0 -22.1 Q-91.55 -22.8 -91.55 -23.55 -91.5 -26.15 -93.15 -28.0 L-94.55 -29.55 -95.6 -30.9 403.2 -30.9 403.05 -30.55 402.45 -29.1 401.8 -27.5 401.55 -26.05 401.55 -24.55 401.55 -23.05 400.5 -21.6 398.9 -20.3 Q397.3 -19.3 395.55 -18.55 L395.35 -17.15 394.55 -15.55 Q394.05 -14.8 393.9 -14.0 393.8 -13.3 393.95 -12.55 L394.05 -11.05 393.95 -9.55 393.55 -8.05 392.5 -6.6 391.05 -5.05 Q390.3 -4.3 389.4 -3.9 L383.7 -1.2 Q380.15 0.45 376.5 0.6 368.8 0.95 361.2 -0.5 359.55 -0.8 358.05 -2.05 L358.1 -0.55 Q358.35 1.8 357.25 3.8 354.15 9.6 348.65 13.1 341.95 17.3 334.4 18.9 316.15 22.7 299.25 16.7 295.15 15.25 291.85 12.7 287.15 9.1 287.05 3.45 L283.75 4.05 280.3 5.2 Q267.5 8.8 256.0 2.55 L249.9 -0.8 Q244.35 -3.9 238.3 -5.85 235.75 -6.7 236.35 -9.6 L236.5 -11.05 236.5 -12.55 236.5 -14.05 236.5 -15.05 236.5 -15.3 Q230.5 -14.8 224.7 -13.3 214.9 -10.7 208.5 -16.55 L207.2 -18.15 Q206.75 -18.8 206.65 -19.6 L206.5 -21.05 206.5 -22.55 206.5 -24.05 206.5 -25.55 206.5 -27.05 206.5 -28.55 206.45 -29.05 Q201.5 -29.55 196.55 -29.25 L191.55 -28.45 188.45 -27.8 179.5 -26.55 178.6 -25.0 177.85 -23.65 176.5 -22.05 174.9 -20.75 Q172.75 -19.3 170.35 -18.85 L153.1 -15.85 153.0 -15.05 153.0 -13.55 153.0 -12.05 153.0 -10.55 153.0 -9.05 152.75 -7.65 151.45 -4.6 150.6 -3.0 149.8 -1.65 Q149.25 -0.8 148.5 -0.05 L147.0 1.45 144.45 2.15 Q142.5 2.45 140.55 2.15 L137.55 1.3 136.0 0.45 135.35 1.3 134.5 1.9 Q133.25 2.45 132.05 3.05 L130.4 3.8 128.45 4.3 124.5 4.45 Q123.0 3.95 121.7 3.15 121.0 2.7 120.6 1.9 L119.9 0.5 119.0 -1.05 117.9 -2.5 116.5 -4.05 114.95 -4.6 109.05 -4.3 106.45 -3.95 Q102.5 -3.55 98.5 -3.9 97.0 -4.05 95.5 -4.55 L94.0 -6.05 Q93.25 -6.8 92.65 -7.65 92.25 -8.3 92.1 -9.05 L91.85 -10.55 91.4 -12.0 90.05 -15.1 89.5 -16.55 87.1 -16.2 Q85.75 -15.8 84.5 -15.0 L82.5 -13.55 80.45 -12.1 Q76.75 -9.65 72.55 -10.2 69.45 -10.55 66.45 -11.45 60.95 -13.05 55.35 -13.65 53.95 -13.8 52.45 -13.05 L51.85 -11.6 51.2 -10.0 50.95 -8.55 50.95 -7.05 M-395.55 -12.3 L-400.65 -14.05 Q-405.35 -23.45 -401.3 -30.9 L-118.75 -30.9 Q-119.0 -29.15 -120.5 -27.95 -122.8 -26.1 -123.55 -23.7 L-124.75 -20.4 Q-125.8 -17.8 -128.05 -16.0 L-131.8 -13.5 -139.4 -9.7 Q-141.85 -8.55 -144.1 -7.05 L-144.1 -5.55 -144.1 -4.05 -144.1 -2.55 -143.95 -1.05 -143.75 0.45 Q-143.6 1.95 -143.6 3.45 L-143.6 4.95 -143.6 6.45 -143.7 7.95 -144.1 9.45 -145.25 10.65 -148.45 12.65 Q-149.35 13.2 -150.1 13.9 -152.55 16.1 -155.65 17.25 -164.1 20.3 -171.9 16.6 -174.7 15.25 -177.95 14.05 -180.85 12.95 -183.5 11.3 -185.35 10.2 -186.25 8.5 -186.85 7.45 -186.65 5.95 L-186.6 4.45 -188.55 2.9 -189.7 2.25 -193.55 1.8 Q-196.6 1.95 -199.15 3.3 -207.35 7.5 -216.35 4.25 L-219.35 2.9 -223.6 -0.05 -228.45 0.9 Q-229.35 1.2 -230.0 2.0 L-230.7 2.8 Q-231.1 3.2 -231.6 3.2 -234.1 3.2 -236.35 2.35 -239.2 1.3 -239.1 -1.55 L-239.1 -3.05 -239.1 -4.55 -239.1 -5.55 -239.1 -5.8 Q-240.6 -5.8 -241.95 -5.2 L-243.65 -4.1 Q-244.6 -3.3 -245.7 -2.7 L-252.05 0.55 -253.6 1.45 -258.45 0.45 Q-259.35 0.2 -260.1 -0.55 L-261.6 -2.05 -263.1 -3.55 -264.35 -5.2 -265.6 -8.05 Q-266.35 -7.55 -267.2 -7.4 L-270.4 -7.65 Q-270.85 -7.8 -271.1 -8.55 L-271.6 -10.05 -272.3 -11.45 -273.6 -13.05 -283.55 -12.4 Q-284.35 -12.3 -285.1 -11.55 L-285.7 -10.1 -286.75 -8.7 -288.15 -6.8 -289.35 -4.15 Q-290.25 -1.5 -291.65 0.75 -292.35 1.95 -292.85 3.4 L-293.65 6.55 -293.75 9.45 Q-293.6 10.95 -293.6 12.45 L-293.6 15.45 -293.45 18.45 -293.35 19.95 Q-293.35 21.45 -293.7 22.95 L-294.1 24.45 -295.3 25.7 Q-297.35 27.2 -299.75 28.2 -311.1 32.85 -321.9 29.35 -325.5 28.2 -327.7 26.15 -333.9 20.35 -344.1 19.75 -344.9 19.7 -345.65 18.95 L-346.85 17.3 -347.15 15.95 -347.15 14.45 -347.0 12.95 -346.9 11.45 Q-346.9 9.95 -347.5 8.6 L-348.35 6.8 -348.65 5.45 -348.75 3.95 -349.15 2.45 Q-350.4 1.7 -351.7 1.2 L-357.05 -0.8 -358.25 -1.25 Q-362.15 -2.55 -366.2 -3.05 -371.25 -3.7 -374.7 -7.5 L-377.8 -10.35 -381.65 -13.05 -382.15 -13.3 -388.05 -12.7 -389.7 -12.4 -393.65 -12.05 -395.55 -12.3" fill="#27212c" fill-rule="evenodd" stroke="none"/>
    <path d="M10.55 -6.3 Q30.2 -2.1 35.0 -19.75 45.35 -23.55 56.25 -24.9 L81.1 -27.35 Q85.35 -27.65 88.4 -28.7 93.35 -26.4 98.05 -23.45 116.55 -11.95 135.05 -15.25 L135.45 -16.05 135.75 -17.5 136.05 -18.95 136.65 -20.6 136.8 -21.25 136.8 -22.0 Q141.7 -24.6 146.85 -26.65 151.45 -28.5 155.75 -30.9 L217.5 -30.9 217.55 -30.75 Q219.25 -29.3 221.7 -29.8 240.5 -33.55 248.05 -20.55 249.5 -18.1 251.05 -16.55 266.05 -2.1 290.8 -11.9 297.15 -14.45 302.75 -10.5 322.25 3.15 340.0 -9.8 342.15 -11.4 343.9 -11.25 367.05 -9.0 381.1 -25.25 383.75 -25.45 386.05 -26.45 391.6 -28.85 396.75 -27.25 399.2 -26.5 401.6 -26.55 L401.55 -26.05 401.55 -24.55 401.55 -23.05 400.5 -21.6 398.9 -20.3 Q397.3 -19.3 395.55 -18.55 L395.35 -17.15 394.55 -15.55 Q394.05 -14.8 393.9 -14.0 393.8 -13.3 393.95 -12.55 L394.05 -11.05 393.95 -9.55 393.55 -8.05 392.5 -6.6 391.05 -5.05 Q390.3 -4.3 389.4 -3.9 L383.7 -1.2 Q380.15 0.45 376.5 0.6 368.8 0.95 361.2 -0.5 359.55 -0.8 358.05 -2.05 L358.1 -0.55 Q358.35 1.8 357.25 3.8 354.15 9.6 348.65 13.1 341.95 17.3 334.4 18.9 316.15 22.7 299.25 16.7 295.15 15.25 291.85 12.7 287.15 9.1 287.05 3.45 L283.75 4.05 280.3 5.2 Q267.5 8.8 256.0 2.55 L249.9 -0.8 Q244.35 -3.9 238.3 -5.85 235.75 -6.7 236.35 -9.6 L236.5 -11.05 236.5 -12.55 236.5 -14.05 236.5 -15.05 236.5 -15.3 Q230.5 -14.8 224.7 -13.3 214.9 -10.7 208.5 -16.55 L207.2 -18.15 Q206.75 -18.8 206.65 -19.6 L206.5 -21.05 206.5 -22.55 206.5 -24.05 206.5 -25.55 206.5 -27.05 206.5 -28.55 206.45 -29.05 Q201.5 -29.55 196.55 -29.25 L191.55 -28.45 188.45 -27.8 179.5 -26.55 178.6 -25.0 177.85 -23.65 176.5 -22.05 174.9 -20.75 Q172.75 -19.3 170.35 -18.85 L153.1 -15.85 153.0 -15.05 153.0 -13.55 153.0 -12.05 153.0 -10.55 153.0 -9.05 152.75 -7.65 151.45 -4.6 150.6 -3.0 149.8 -1.65 Q149.25 -0.8 148.5 -0.05 L147.0 1.45 144.45 2.15 Q142.5 2.45 140.55 2.15 L137.55 1.3 136.0 0.45 135.35 1.3 134.5 1.9 Q133.25 2.45 132.05 3.05 L130.4 3.8 128.45 4.3 124.5 4.45 Q123.0 3.95 121.7 3.15 121.0 2.7 120.6 1.9 L119.9 0.5 119.0 -1.05 117.9 -2.5 116.5 -4.05 114.95 -4.6 109.05 -4.3 106.45 -3.95 Q102.5 -3.55 98.5 -3.9 97.0 -4.05 95.5 -4.55 L94.0 -6.05 Q93.25 -6.8 92.65 -7.65 92.25 -8.3 92.1 -9.05 L91.85 -10.55 91.4 -12.0 90.05 -15.1 89.5 -16.55 87.1 -16.2 Q85.75 -15.8 84.5 -15.0 L82.5 -13.55 80.45 -12.1 Q76.75 -9.65 72.55 -10.2 69.45 -10.55 66.45 -11.45 60.95 -13.05 55.35 -13.65 53.95 -13.8 52.45 -13.05 L51.85 -11.6 51.2 -10.0 50.95 -8.55 50.95 -7.05 50.95 -5.55 50.8 -2.55 50.6 -1.05 50.45 0.45 50.45 1.95 50.35 3.45 49.95 4.95 49.3 6.35 48.35 7.2 Q46.7 7.95 45.75 9.1 L41.2 14.65 Q39.3 17.0 36.65 17.9 23.1 22.6 8.65 18.8 6.45 18.2 4.45 16.95 3.7 16.2 3.25 15.3 2.95 14.7 2.95 13.95 L2.95 12.45 2.75 11.05 2.2 9.4 1.1 6.6 Q0.7 5.7 -0.05 4.95 L-1.5 3.9 -2.1 3.6 -6.95 2.15 -9.6 1.05 Q-12.8 -0.55 -16.1 -1.95 L-23.5 -5.15 -26.6 -6.0 Q-27.3 -6.05 -28.05 -5.55 L-28.55 -4.05 Q-28.8 -3.3 -29.2 -2.65 -29.55 -2.05 -30.1 -1.95 L-34.95 -2.1 Q-39.25 -3.05 -43.55 -5.0 -45.3 -5.8 -47.05 -5.75 -53.05 -5.55 -58.95 -4.15 -60.3 -3.8 -61.55 -3.05 L-64.9 -3.95 -66.55 -5.05 -68.05 -6.55 -69.5 -8.1 Q-70.05 -8.8 -70.25 -9.6 L-70.55 -12.55 -70.55 -14.05 -70.55 -15.55 Q-70.55 -16.3 -70.75 -16.35 L-72.6 -16.5 -85.05 -16.05 -86.55 -17.55 -88.05 -19.05 -89.55 -20.55 -91.0 -22.1 Q-91.55 -22.8 -91.55 -23.55 -91.5 -26.15 -93.15 -28.0 L-94.55 -29.55 -95.6 -30.9 -68.8 -30.9 Q-65.5 -29.65 -63.85 -27.15 -59.75 -21.05 -54.55 -15.25 -43.4 -14.45 -32.7 -18.35 -23.25 -21.8 -13.65 -17.95 -8.05 -15.75 -2.85 -12.05 3.1 -7.9 10.55 -6.3 M-396.9 -30.9 Q-390.75 -28.4 -384.1 -27.1 -369.7 -24.35 -355.8 -24.95 -349.35 -25.2 -346.45 -20.1 -335.55 -0.85 -314.85 0.1 -310.35 0.3 -309.45 -3.45 -303.05 -31.2 -273.85 -27.0 L-270.65 -23.7 Q-268.3 -21.3 -265.45 -19.35 -261.55 -16.65 -257.1 -16.25 -253.8 -19.15 -249.2 -19.9 L-240.6 -21.75 Q-237.95 -19.25 -234.45 -18.15 -229.45 -16.55 -224.3 -15.5 L-224.05 -14.75 -223.75 -14.05 -223.05 -13.25 -222.3 -12.5 Q-215.35 -10.1 -210.0 -14.15 -207.25 -16.25 -204.55 -15.6 L-165.95 -6.0 Q-164.55 -5.65 -163.8 -6.45 -155.0 -15.95 -142.95 -19.95 -131.3 -23.85 -128.8 -30.9 L-118.75 -30.9 Q-119.0 -29.15 -120.5 -27.95 -122.8 -26.1 -123.55 -23.7 L-124.75 -20.4 Q-125.8 -17.8 -128.05 -16.0 L-131.8 -13.5 -139.4 -9.7 Q-141.85 -8.55 -144.1 -7.05 L-144.1 -5.55 -144.1 -4.05 -144.1 -2.55 -143.95 -1.05 -143.75 0.45 Q-143.6 1.95 -143.6 3.45 L-143.6 4.95 -143.6 6.45 -143.7 7.95 -144.1 9.45 -145.25 10.65 -148.45 12.65 Q-149.35 13.2 -150.1 13.9 -152.55 16.1 -155.65 17.25 -164.1 20.3 -171.9 16.6 -174.7 15.25 -177.95 14.05 -180.85 12.95 -183.5 11.3 -185.35 10.2 -186.25 8.5 -186.85 7.45 -186.65 5.95 L-186.6 4.45 -188.55 2.9 -189.7 2.25 -193.55 1.8 Q-196.6 1.95 -199.15 3.3 -207.35 7.5 -216.35 4.25 L-219.35 2.9 -223.6 -0.05 -228.45 0.9 Q-229.35 1.2 -230.0 2.0 L-230.7 2.8 Q-231.1 3.2 -231.6 3.2 -234.1 3.2 -236.35 2.35 -239.2 1.3 -239.1 -1.55 L-239.1 -3.05 -239.1 -4.55 -239.1 -5.55 -239.1 -5.8 Q-240.6 -5.8 -241.95 -5.2 L-243.65 -4.1 Q-244.6 -3.3 -245.7 -2.7 L-252.05 0.55 -253.6 1.45 -258.45 0.45 Q-259.35 0.2 -260.1 -0.55 L-261.6 -2.05 -263.1 -3.55 -264.35 -5.2 -265.6 -8.05 Q-266.35 -7.55 -267.2 -7.4 L-270.4 -7.65 Q-270.85 -7.8 -271.1 -8.55 L-271.6 -10.05 -272.3 -11.45 -273.6 -13.05 -283.55 -12.4 Q-284.35 -12.3 -285.1 -11.55 L-285.7 -10.1 -286.75 -8.7 -288.15 -6.8 -289.35 -4.15 Q-290.25 -1.5 -291.65 0.75 -292.35 1.95 -292.85 3.4 L-293.65 6.55 -293.75 9.45 Q-293.6 10.95 -293.6 12.45 L-293.6 15.45 -293.45 18.45 -293.35 19.95 Q-293.35 21.45 -293.7 22.95 L-294.1 24.45 -295.3 25.7 Q-297.35 27.2 -299.75 28.2 -311.1 32.85 -321.9 29.35 -325.5 28.2 -327.7 26.15 -333.9 20.35 -344.1 19.75 -344.9 19.7 -345.65 18.95 L-346.85 17.3 -347.15 15.95 -347.15 14.45 -347.0 12.95 -346.9 11.45 Q-346.9 9.95 -347.5 8.6 L-348.35 6.8 -348.65 5.45 -348.75 3.95 -349.15 2.45 Q-350.4 1.7 -351.7 1.2 L-357.05 -0.8 -358.25 -1.25 Q-362.15 -2.55 -366.2 -3.05 -371.25 -3.7 -374.7 -7.5 L-377.8 -10.35 -381.65 -13.05 -382.15 -13.3 -388.05 -12.7 -389.7 -12.4 -393.65 -12.05 -395.55 -12.3 -400.65 -14.05 Q-405.35 -23.45 -401.3 -30.9 L-396.9 -30.9" fill="#4e5b41" fill-rule="evenodd" stroke="none"/>
  </g>
</svg>
