<?xml version="1.0" encoding="UTF-8" standalone="no"?>
<svg xmlns:xlink="http://www.w3.org/1999/xlink" height="73.55px" width="118.1px" xmlns="http://www.w3.org/2000/svg">
  <g transform="matrix(1.0, 0.0, 0.0, 1.0, 78.55, 52.3)">
    <path d="M39.5 -50.0 L39.15 -48.55 38.5 -47.0 38.0 -45.75 Q37.15 -46.5 37.6 -47.7 L38.25 -50.05 38.5 -52.0 Q38.55 -52.45 39.25 -52.25 39.65 -51.15 39.5 -50.0 M33.25 -50.25 L33.7 -48.0 34.0 -45.85 Q34.25 -44.7 34.0 -43.75 33.4 -43.9 33.05 -44.25 33.45 -43.35 33.0 -42.1 32.2 -39.85 31.2 -42.0 30.55 -43.3 31.4 -44.45 31.75 -44.9 32.5 -45.0 L32.25 -45.75 Q32.1 -46.9 32.3 -48.05 L32.5 -50.0 Q32.55 -50.45 33.25 -50.25 M26.8 -31.0 L26.9 -30.6 27.3 -30.8 28.5 -31.0 Q30.0 -29.45 28.75 -27.6 26.95 -24.9 25.9 -27.45 25.45 -28.55 25.75 -29.3 L25.6 -30.5 25.4 -32.75 Q25.35 -33.5 26.25 -33.25 L26.8 -31.0 M8.55 -22.0 L8.3 -19.75 Q8.1 -18.3 9.05 -17.3 L9.25 -16.75 Q7.25 -16.85 7.4 -19.0 L7.5 -22.0 7.5 -24.0 Q7.55 -24.45 8.25 -24.25 8.65 -23.15 8.55 -22.0 M0.5 -13.25 Q1.85 -12.1 1.4 -10.3 L0.55 -7.4 Q0.25 -6.5 -0.7 -6.15 -1.65 -5.75 -2.8 -5.75 L-3.45 -6.55 Q-4.05 -7.25 -4.25 -8.1 L-4.3 -9.5 -3.5 -10.9 -3.5 -12.5 Q-3.5 -14.75 -3.15 -16.9 -2.75 -19.2 -1.3 -21.05 L-0.75 -21.25 Q-1.0 -19.2 -1.8 -17.3 -2.7 -15.3 -2.85 -13.0 L-2.85 -11.95 -1.65 -12.8 -1.1 -13.0 -0.95 -14.65 -0.5 -19.0 Q-0.5 -19.45 0.25 -19.25 0.8 -17.75 -0.05 -16.4 -1.15 -14.8 -0.25 -13.2 L0.0 -13.25 0.5 -13.25 M5.6 -14.45 Q4.05 -15.85 6.0 -16.25 8.45 -16.45 7.7 -14.6 7.1 -13.1 5.6 -14.45 M-25.75 -17.25 L-25.6 -15.6 -25.35 -13.25 -25.3 -11.7 Q-24.6 -11.35 -24.2 -10.55 L-23.9 -9.95 Q-23.9 -10.95 -23.25 -11.7 L-22.25 -13.05 -21.75 -13.25 Q-21.1 -12.0 -21.75 -10.8 -22.25 -9.85 -22.25 -8.75 -22.2 -7.9 -22.65 -7.4 L-22.6 -7.3 Q-21.9 -5.85 -21.9 -4.25 L-22.0 -3.75 Q-23.9 -4.55 -24.6 -4.3 -28.7 -2.6 -33.2 -5.6 -34.1 -3.45 -36.2 -6.05 -38.0 -8.35 -35.05 -9.5 -33.85 -9.25 -33.3 -8.6 -32.5 -9.2 -31.1 -9.35 -29.95 -9.45 -29.1 -10.3 L-27.7 -11.5 -28.05 -12.7 Q-28.15 -14.15 -27.1 -15.1 -26.25 -15.85 -26.4 -17.0 -26.5 -17.45 -25.75 -17.25 M-36.0 -1.15 L-35.55 -1.25 -34.55 -0.5 -33.9 0.3 -33.2 1.7 -32.8 2.5 Q-32.9 3.25 -33.35 3.65 -34.3 4.5 -35.55 4.95 L-37.55 5.75 Q-38.4 4.7 -38.65 3.75 -38.95 2.6 -38.25 1.25 L-37.35 -0.1 -36.0 -1.15 M-45.6 9.3 L-45.25 11.2 -44.75 12.6 -44.7 12.75 Q-42.95 13.0 -43.35 14.8 -43.85 17.1 -45.95 15.7 -48.0 14.35 -46.55 13.15 -46.85 12.7 -46.7 11.75 L-46.55 9.5 -46.25 8.15 -45.8 7.75 -45.6 9.3 M-51.2 10.1 L-50.8 9.75 -50.1 11.3 -49.45 12.75 -48.6 14.3 -48.05 15.55 Q-49.75 15.6 -50.3 13.85 L-51.15 11.45 -51.2 10.1 M-78.2 7.85 L-77.8 7.75 Q-77.35 9.25 -77.45 10.8 L-77.5 13.75 -76.95 15.65 -76.6 14.9 -75.2 11.65 Q-74.7 10.2 -73.75 9.05 -73.4 8.6 -72.8 8.75 -72.8 9.15 -72.95 9.45 L-73.4 10.35 -73.55 11.0 -73.55 11.75 -73.55 12.55 -73.75 12.8 -73.2 13.75 Q-72.9 14.3 -72.9 15.05 L-72.8 15.8 -73.15 16.25 -76.5 17.8 Q-77.05 18.05 -77.8 17.8 L-77.6 17.25 Q-78.0 16.6 -78.2 15.2 L-78.55 10.75 Q-78.55 9.25 -78.2 7.85 M-74.05 18.75 Q-71.1 18.75 -72.75 20.55 -73.85 21.75 -74.85 20.9 -76.6 19.45 -74.05 18.85 L-74.05 18.75" fill="#ffd83c" fill-rule="evenodd" stroke="none"/>
  </g>
</svg>
