<?xml version="1.0" encoding="UTF-8" standalone="no"?>
<svg xmlns:xlink="http://www.w3.org/1999/xlink" height="592.9px" width="903.35px" xmlns="http://www.w3.org/2000/svg">
  <g transform="matrix(1.0, 0.0, 0.0, 1.0, 451.65, 296.45)">
    <path d="M189.55 -296.2 L192.25 -295.5 194.3 -294.15 194.85 -292.9 Q155.25 -276.8 133.1 -238.35 111.5 -200.95 124.0 -162.1 125.5 -157.45 130.3 -155.85 165.6 -143.95 173.2 -176.35 174.1 -180.35 171.6 -184.0 170.05 -186.25 167.55 -186.45 L166.8 -185.7 166.05 -184.95 165.25 -184.2 164.55 -183.4 163.5 -181.9 163.3 -181.15 Q163.25 -180.8 163.45 -180.55 L164.45 -179.55 165.0 -178.85 165.65 -177.35 165.75 -176.6 Q165.05 -175.35 163.95 -174.45 162.65 -173.4 161.0 -173.2 157.55 -172.8 155.4 -175.35 157.75 -202.4 177.4 -185.95 182.15 -182.0 181.25 -175.85 179.8 -165.8 175.5 -159.1 181.65 -161.3 188.6 -162.85 222.9 -170.7 256.8 -180.45 L294.45 -191.3 Q299.0 -192.65 302.55 -194.55 347.15 -162.0 313.6 -114.95 307.8 -106.85 301.0 -100.6 299.1 -94.6 299.0 -88.1 298.8 -78.7 306.1 -72.45 316.45 -70.75 323.35 -78.4 326.75 -82.25 325.55 -84.55 323.55 -86.25 321.35 -84.7 L320.0 -83.6 317.5 -83.55 Q316.05 -87.0 320.75 -89.05 325.85 -91.35 329.75 -87.2 330.65 -86.25 330.9 -84.85 323.05 -61.25 302.0 -74.5 295.05 -78.9 295.05 -87.35 295.05 -92.0 295.95 -96.35 275.85 -80.9 247.7 -80.35 207.65 -79.5 210.85 -115.45 212.4 -132.85 226.05 -144.95 259.8 -174.75 288.65 -145.3 293.95 -139.9 291.2 -132.7 281.9 -108.4 257.3 -120.75 L257.1 -121.5 257.05 -122.25 257.1 -123.0 257.3 -123.75 257.6 -124.5 258.05 -125.3 258.65 -126.0 259.3 -126.55 Q285.6 -120.55 279.9 -142.85 278.05 -150.25 269.7 -150.3 230.5 -150.75 219.75 -114.2 214.2 -95.5 234.35 -91.95 284.2 -83.25 310.8 -125.2 334.4 -162.35 301.05 -188.25 272.4 -180.5 243.85 -172.2 L183.2 -154.65 163.2 -148.75 Q160.15 -147.45 156.6 -146.7 L149.6 -144.5 151.35 -145.95 Q145.95 -145.55 139.6 -146.2 110.4 -149.35 110.85 -177.85 111.55 -219.75 135.85 -254.5 156.25 -283.7 188.3 -296.45 L189.55 -296.2 M160.0 -123.2 L161.05 -123.85 162.95 -124.4 163.0 -124.5 Q164.4 -123.9 165.7 -123.1 167.4 -122.1 167.95 -120.25 168.6 -118.15 167.3 -116.4 L166.8 -115.65 Q164.7 -113.65 162.05 -115.05 159.8 -116.3 159.2 -118.75 158.75 -120.7 159.45 -122.5 L160.0 -123.2 M148.5 -37.7 L149.6 -37.05 150.3 -35.5 Q150.95 -34.0 150.85 -32.45 150.7 -30.15 148.7 -28.9 147.8 -28.3 146.8 -27.95 145.4 -28.55 144.25 -29.5 143.0 -30.55 142.9 -32.2 142.85 -33.7 143.1 -35.25 L143.25 -36.05 143.8 -36.75 144.6 -37.45 145.55 -38.0 146.8 -38.3 148.5 -37.7 M308.65 -17.95 L310.65 -17.95 312.1 -17.45 312.95 -16.8 313.2 -16.05 313.35 -15.3 313.5 -14.55 313.75 -13.0 314.05 -11.6 Q314.45 -10.35 315.2 -9.25 324.9 -32.15 299.7 -30.55 291.65 -30.0 290.85 -21.05 287.65 12.6 307.1 41.85 324.45 67.9 346.65 89.3 350.3 92.8 354.1 95.7 358.55 94.05 363.25 92.65 395.75 96.25 422.55 117.45 457.1 144.75 450.7 189.4 439.5 267.2 364.15 286.55 343.85 291.75 324.3 283.9 272.55 263.1 272.15 213.2 L267.0 210.85 Q242.05 199.3 218.55 190.05 200.65 228.15 156.95 222.7 143.9 221.1 140.2 208.6 133.4 185.85 154.8 188.75 162.15 189.75 159.05 196.15 154.3 206.2 147.8 198.6 L147.8 198.05 Q142.25 210.65 162.3 215.4 181.4 219.9 195.25 205.85 204.5 196.45 209.8 186.65 L200.65 183.2 Q206.4 181.6 212.4 181.2 222.6 156.95 208.8 130.45 184.8 111.0 158.2 117.95 L157.95 118.2 156.4 118.1 154.5 117.65 154.0 117.15 153.9 116.45 153.9 115.65 154.45 115.0 Q156.55 112.85 159.95 112.4 L165.5 111.6 167.05 111.4 Q186.1 111.85 202.35 120.65 197.6 115.75 190.65 113.8 136.35 98.15 85.35 122.25 35.8 145.6 2.25 189.35 -7.9 202.6 -15.5 211.75 L-13.45 208.5 Q-18.0 212.9 -23.55 216.65 -79.15 254.25 -146.5 253.7 L-152.95 253.55 -159.15 253.7 -159.45 253.1 Q-172.45 251.9 -183.9 248.6 -185.85 267.2 -210.65 272.05 -219.35 273.75 -224.5 266.8 -236.2 250.75 -223.35 239.8 -225.25 254.65 -213.1 264.35 -208.65 267.85 -203.65 264.05 -193.55 256.4 -191.45 246.15 -224.8 233.85 -243.95 201.55 -239.7 247.1 -282.05 281.1 -309.45 303.05 -344.2 293.65 -366.15 287.7 -384.9 274.95 -420.15 274.6 -439.85 244.2 -458.4 215.75 -447.75 182.6 -432.6 135.3 -392.1 114.7 -391.7 111.1 -392.1 107.7 -396.15 103.95 -399.9 97.9 L-400.8 99.0 -401.35 99.5 -401.85 99.7 -403.35 99.95 -404.35 99.85 -407.4 98.75 -408.1 97.2 Q-408.6 96.1 -408.4 94.95 -408.15 93.4 -407.4 92.05 -406.4 90.15 -404.4 90.25 L-404.4 90.15 -403.85 90.2 Q-408.6 78.5 -406.75 65.1 -403.75 43.3 -389.0 26.9 -382.75 19.95 -374.05 18.6 -350.45 18.7 -341.8 40.2 -333.05 61.95 -355.75 70.55 -364.55 73.9 -371.15 66.8 -379.85 57.55 -371.25 49.2 L-370.0 49.0 -369.0 49.0 -367.25 49.55 Q-366.6 49.8 -366.05 50.3 -365.7 50.55 -365.5 50.95 L-365.2 51.7 Q-365.05 52.1 -365.05 52.45 L-365.2 53.2 -365.5 53.95 -366.05 54.65 -367.15 55.55 -367.95 56.3 -368.5 57.0 Q-354.0 75.35 -345.6 50.7 -343.45 44.4 -347.8 38.8 -369.0 11.4 -388.95 37.75 -407.9 62.8 -396.25 90.95 -392.85 93.85 -390.75 97.85 -389.25 100.7 -388.15 103.7 -384.0 107.8 -378.8 108.95 -369.05 105.3 -358.1 103.0 L-355.85 102.55 -335.7 103.35 Q-317.3 75.1 -301.65 45.25 -289.55 22.15 -302.2 -1.45 L-324.3 -43.3 Q-328.0 -50.4 -336.9 -52.3 -346.2 -54.35 -354.55 -50.7 -355.15 -49.1 -355.9 -47.6 -357.9 -43.7 -359.3 -39.55 -361.2 -33.75 -358.9 -28.35 -354.05 -16.9 -348.25 -25.65 L-348.4 -26.35 -349.65 -27.75 -350.45 -27.95 -351.35 -27.65 -352.35 -27.7 Q-353.05 -28.2 -353.4 -29.0 L-353.55 -29.7 -353.55 -30.45 -353.4 -31.15 -352.8 -32.0 -352.0 -32.65 -350.8 -33.25 -349.8 -33.15 -348.55 -32.7 -347.7 -32.3 -346.5 -31.75 -346.25 -30.95 Q-345.2 -27.65 -345.9 -24.3 -347.55 -16.4 -355.7 -19.25 -361.6 -21.3 -365.45 -26.4 L-365.5 -28.7 Q-365.8 -32.7 -364.9 -36.25 -363.65 -41.15 -362.75 -46.15 -361.05 -55.85 -351.05 -58.25 L-349.75 -58.55 Q-311.5 -57.0 -302.2 -17.15 -298.55 -1.4 -293.1 14.05 -285.65 35.25 -298.55 56.25 -289.7 47.75 -279.6 40.5 -264.6 29.75 -247.8 24.1 L-247.4 22.45 -247.35 21.85 -247.35 22.2 Q-241.2 -3.65 -233.2 -29.1 -222.75 -62.35 -210.2 -94.65 -216.45 -97.15 -222.25 -100.15 -232.3 -84.85 -241.5 -69.1 L-256.7 -42.85 Q-251.15 -67.3 -240.2 -94.65 L-234.85 -107.65 Q-261.75 -125.9 -277.05 -157.35 L-282.9 -153.35 Q-291.8 -147.15 -300.3 -140.5 L-311.6 -129.55 Q-309.2 -127.3 -310.25 -122.9 -312.3 -114.35 -319.65 -119.45 L-320.9 -120.45 -358.55 -84.05 -365.95 -74.95 Q-399.15 -32.6 -426.4 11.0 -419.1 -18.25 -400.35 -45.05 -371.6 -86.15 -335.65 -121.3 -309.95 -146.45 -280.75 -165.6 -282.5 -169.8 -283.55 -174.0 -307.1 -160.05 -329.75 -144.5 -365.25 -120.05 -398.35 -92.8 -413.5 -80.3 -426.4 -65.6 L-425.45 -64.05 -425.0 -62.55 -424.95 -61.05 -425.1 -60.3 -425.35 -59.55 Q-427.3 -58.3 -428.25 -60.4 L-428.9 -61.65 -429.85 -62.65 -430.3 -63.35 -430.4 -64.1 Q-402.95 -97.5 -366.75 -123.95 -326.9 -153.1 -284.4 -178.05 -287.05 -193.05 -281.25 -208.25 -269.15 -240.0 -240.7 -235.7 -225.9 -242.9 -209.7 -246.7 -204.3 -247.95 -199.15 -249.8 L-192.45 -254.1 Q-186.0 -257.9 -179.15 -259.85 -178.55 -260.5 -178.1 -261.3 -179.25 -273.75 -190.6 -279.25 -202.45 -284.95 -216.05 -286.55 -256.15 -291.35 -293.1 -278.45 -298.05 -276.75 -302.6 -274.15 -304.25 -273.2 -305.25 -271.7 -288.2 -238.7 -325.6 -236.85 -353.05 -235.45 -375.75 -220.7 -407.6 -200.0 -424.55 -166.85 -436.25 -143.95 -438.15 -118.45 -439.1 -105.95 -438.4 -93.45 -438.25 -90.35 -438.5 -87.35 -444.55 -94.55 -444.15 -108.6 -443.85 -119.65 -442.2 -130.55 L-441.25 -136.55 Q-438.2 -153.95 -430.45 -170.15 -423.15 -185.35 -412.3 -198.15 -400.6 -212.05 -385.9 -223.15 L-384.9 -223.9 Q-394.9 -224.7 -398.7 -234.25 -402.85 -244.45 -401.7 -255.6 -401.05 -262.3 -396.75 -267.6 L-396.1 -268.45 Q-391.3 -275.0 -384.3 -279.15 -368.15 -288.65 -350.8 -293.65 L-334.65 -293.0 Q-325.95 -292.25 -319.6 -286.6 -313.9 -281.5 -308.55 -276.25 -250.05 -304.75 -186.6 -282.6 -179.75 -280.2 -177.15 -272.8 -174.75 -266.0 -175.75 -260.7 L-170.75 -261.55 Q-101.95 -258.85 -92.4 -191.1 -83.65 -129.35 -133.85 -95.0 -153.75 -81.4 -177.95 -85.65 -191.4 -88.0 -203.35 -92.1 -216.6 -54.85 -228.4 -16.9 -234.3 2.0 -237.8 21.2 L-231.45 19.85 Q-214.3 20.9 -212.2 36.75 -210.25 51.6 -219.45 63.5 -229.0 75.85 -236.0 63.55 -236.5 62.7 -236.5 61.55 -235.25 59.9 -233.7 58.55 -231.95 57.05 -229.4 57.05 -227.35 57.1 -225.9 58.55 -225.0 59.5 -225.1 60.8 L-225.35 61.55 -225.7 62.25 -226.4 63.05 -226.75 63.35 -224.1 63.35 Q-203.3 39.4 -227.35 25.05 -232.45 22.05 -238.2 23.45 -240.85 38.2 -242.05 53.1 -242.5 58.65 -242.3 63.6 L-244.45 62.85 Q-242.4 80.6 -238.85 98.45 L-238.4 100.7 Q-234.85 95.6 -230.65 90.9 -214.95 73.2 -193.25 63.65 -187.05 60.95 -180.85 60.3 -164.15 60.95 -157.95 76.7 -151.75 92.55 -163.35 102.35 -169.85 107.85 -178.85 106.85 -184.15 106.25 -187.7 102.55 L-188.05 98.75 -187.65 94.2 Q-187.1 90.0 -182.9 88.8 -178.55 87.55 -175.55 90.15 L-175.1 90.9 -174.85 91.65 -174.8 92.4 -174.8 93.15 -174.85 93.9 -175.05 94.7 -175.35 95.4 -175.8 96.2 -176.6 96.6 -177.85 96.9 -178.8 96.8 -181.45 95.9 -181.75 96.05 -181.9 96.7 Q-167.0 109.5 -161.3 91.25 -158.25 81.5 -164.55 73.4 -179.0 54.7 -201.9 69.35 -223.45 83.15 -237.7 104.15 -230.5 139.25 -220.9 174.05 -218.35 183.2 -214.8 191.8 -207.2 196.85 -201.35 203.45 -206.65 190.35 -211.1 177.05 -216.1 162.1 -213.75 150.55 -207.2 168.2 -201.6 187.05 -196.05 205.6 -185.4 221.5 -182.7 225.5 -179.65 229.0 -177.0 229.35 -174.2 232.75 L-168.35 239.4 Q-165.15 241.7 -161.65 243.6 L-164.75 243.15 -163.85 244.05 -162.7 245.15 -152.55 246.65 -151.7 244.8 Q-151.1 243.4 -151.2 241.85 L-151.45 238.05 -151.8 236.55 -152.0 236.3 -153.35 236.65 Q-155.9 237.5 -158.25 236.3 L-160.15 235.0 -160.85 233.45 -161.0 230.5 -160.5 226.75 Q-160.1 224.2 -157.6 224.25 L-157.6 224.15 Q-149.45 224.6 -146.55 232.75 -144.05 239.95 -147.0 247.2 -121.05 249.2 -94.9 242.3 -49.35 230.25 -14.95 198.9 12.65 173.75 -13.55 152.2 -20.75 146.25 -23.35 153.6 L-23.1 154.35 -22.75 155.05 -22.3 155.45 -22.2 155.35 -21.95 154.65 -21.5 154.0 Q-20.3 153.2 -19.0 152.95 L-17.55 153.1 -16.8 153.9 -16.3 154.65 -16.1 155.4 -16.0 156.15 -16.0 156.9 -16.0 157.65 -16.2 159.1 -16.8 160.7 Q-18.05 162.3 -20.1 162.5 -26.15 163.05 -29.25 157.55 -32.15 152.5 -29.1 147.5 -26.45 143.1 -22.1 141.7 16.7 148.5 2.35 184.65 L1.2 187.4 Q6.9 179.8 13.3 172.3 36.35 145.15 65.35 126.4 104.9 100.9 151.85 99.5 198.7 95.25 217.1 130.85 231.1 142.55 240.0 158.75 247.8 172.9 247.35 188.15 L273.05 198.7 Q276.25 172.95 289.35 150.6 287.05 150.1 284.95 149.2 L287.9 152.6 282.75 148.1 280.8 146.85 Q279.8 146.1 279.5 145.15 262.85 129.65 249.0 110.55 240.6 99.0 232.6 87.25 223.65 79.6 214.5 72.25 190.75 60.95 166.3 61.05 L167.05 61.8 167.3 62.2 Q166.65 62.3 165.95 61.85 L164.6 60.5 164.2 59.8 163.8 59.0 163.55 58.25 163.5 57.5 163.8 56.8 Q164.0 56.5 164.3 56.35 L165.0 56.1 168.05 55.9 168.05 55.75 Q186.2 57.45 203.5 63.5 171.3 38.35 136.95 16.55 160.75 28.0 183.6 42.15 156.65 24.25 127.6 11.5 L132.9 12.75 Q135.7 13.4 138.35 14.35 L143.8 14.15 Q144.3 13.9 144.8 13.8 180.8 31.75 212.35 56.2 204.5 43.3 198.65 31.75 211.05 46.95 222.55 64.35 232.85 72.9 242.7 82.2 271.2 109.2 297.8 137.9 L302.7 131.7 Q303.55 126.6 303.6 121.25 303.7 106.9 301.1 93.1 296.6 85.85 292.75 76.4 284.55 56.3 272.05 38.25 257.0 16.55 237.85 2.4 258.1 11.75 270.95 30.0 283.45 47.8 292.85 67.15 L296.5 74.85 Q295.0 70.35 293.3 66.2 281.95 45.15 269.45 24.65 260.05 12.2 250.15 0.1 235.35 -18.05 222.9 -34.75 237.8 -19.0 251.95 -2.65 213.25 -59.5 162.0 -99.75 220.25 -62.95 259.7 -3.5 273.95 17.95 286.85 40.05 L291.0 45.5 Q313.35 74.9 331.85 106.55 339.9 101.55 348.85 97.8 319.75 73.7 300.2 40.7 287.0 18.4 283.55 -6.95 280.3 -30.85 300.55 -39.3 310.8 -41.7 317.4 -34.25 323.95 -26.9 324.2 -16.8 324.45 -6.6 315.7 -2.4 L313.95 -2.95 Q311.95 -3.6 310.85 -5.4 L307.7 -9.85 Q305.55 -12.6 306.2 -16.0 306.35 -16.8 306.85 -17.55 L308.65 -17.95 M352.2 -152.55 L353.2 -153.15 355.1 -153.7 355.15 -153.85 356.85 -153.2 357.9 -152.55 358.7 -151.85 359.1 -150.3 Q359.2 -148.8 358.95 -147.3 358.65 -145.35 356.85 -144.4 L355.15 -143.75 Q353.65 -144.35 352.4 -145.35 351.05 -146.35 351.0 -148.05 350.95 -149.6 351.35 -151.05 L351.6 -151.85 352.2 -152.55 M342.0 -107.25 Q342.9 -107.1 343.65 -106.6 L345.25 -105.3 Q346.2 -104.35 346.05 -103.05 345.75 -101.8 344.9 -100.85 342.5 -98.2 339.05 -99.9 337.25 -100.8 336.95 -102.8 L336.95 -103.55 337.05 -104.25 337.8 -105.75 Q338.95 -107.45 341.0 -107.2 L341.0 -107.35 342.0 -107.25 M361.7 -31.9 Q362.1 -30.7 361.2 -29.7 L360.4 -29.1 Q358.4 -28.05 356.5 -29.15 355.25 -29.85 354.95 -31.25 L354.9 -32.0 355.1 -32.75 355.3 -33.4 356.55 -34.8 358.2 -35.5 360.25 -34.05 Q361.25 -33.1 361.7 -31.9 M343.8 24.65 Q344.6 26.0 344.6 27.7 344.55 29.75 343.4 31.4 L342.0 33.0 340.05 33.1 Q338.45 32.85 337.0 32.1 L336.2 31.5 335.95 30.7 335.15 28.45 Q334.8 27.35 334.85 26.15 334.95 24.45 336.2 23.15 L336.95 22.65 337.45 22.4 338.45 22.2 339.95 22.0 340.0 21.85 341.95 22.5 343.0 23.15 343.8 24.65 M360.2 14.2 Q357.75 -0.5 362.25 -10.25 369.65 5.1 370.0 24.4 370.35 42.5 370.25 60.8 L370.15 67.0 370.55 67.15 Q377.7 75.85 371.3 84.55 L368.65 87.8 368.05 92.4 Q367.15 92.65 366.5 92.4 L364.1 91.55 Q356.5 95.7 350.3 84.75 347.5 79.8 349.85 74.45 352.95 73.05 356.1 71.85 L353.05 68.7 342.15 58.7 Q340.05 56.75 339.45 55.0 345.05 56.7 349.95 61.2 355.3 66.2 362.1 68.85 L362.5 68.65 362.85 63.9 361.85 63.3 Q359.65 62.2 360.35 61.45 360.45 61.3 360.7 61.3 L362.9 62.4 Q363.45 52.25 363.05 42.1 362.5 28.05 360.2 14.2 M341.0 61.05 L343.0 62.6 343.0 63.1 Q340.65 65.35 337.4 64.6 334.0 63.8 334.9 60.7 335.35 59.15 336.95 59.15 L336.95 59.05 Q338.1 59.3 339.0 59.9 L341.0 61.05 M343.8 74.1 L341.4 74.15 Q340.0 72.35 342.0 72.0 L342.5 71.95 Q344.4 72.7 343.8 74.1 M355.3 79.45 L355.8 80.05 356.05 80.7 357.15 83.05 358.7 83.5 360.25 83.6 360.75 80.8 360.95 79.25 358.3 74.75 355.1 75.8 Q351.45 76.85 351.85 80.55 L351.85 80.65 352.4 80.3 Q352.75 80.0 353.15 79.8 353.75 79.5 354.4 79.35 L355.3 79.45 M352.4 86.6 Q353.15 87.5 354.2 88.0 L355.7 88.5 357.15 88.6 Q355.0 87.75 353.2 86.25 L352.6 85.6 352.2 84.8 352.0 84.35 351.95 84.4 351.85 84.55 Q351.7 85.75 352.4 86.6 M370.4 76.2 L369.85 73.95 369.45 79.85 369.65 79.5 Q370.6 78.0 370.4 76.2 M362.75 97.7 L359.0 99.2 Q367.3 104.65 376.35 107.45 384.25 105.6 392.8 104.55 390.0 102.85 387.1 101.25 383.55 99.25 379.55 97.9 371.4 95.15 362.75 97.7 M365.75 145.5 Q368.7 149.7 364.9 153.2 359.7 157.95 356.75 151.55 353.6 144.7 361.2 143.6 L361.2 143.5 363.45 144.15 364.75 144.8 365.75 145.5 M353.5 101.55 Q343.45 106.0 334.7 111.5 L340.55 122.0 Q352.6 114.5 366.9 110.05 360.85 107.2 354.75 102.5 L353.5 101.55 M325.65 110.6 L316.3 94.4 314.35 91.15 324.2 111.65 325.65 110.6 M327.15 118.15 L331.6 128.25 Q332.85 127.25 334.15 126.35 L328.45 115.7 326.65 117.0 327.15 118.15 M335.15 136.85 Q348.1 168.85 356.25 202.1 362.65 199.05 368.0 199.2 363.3 190.45 359.1 180.25 349.55 156.9 338.25 134.4 336.65 135.6 335.15 136.85 M347.35 134.85 Q364.0 167.25 374.85 200.9 381.7 204.3 386.3 214.65 395.25 234.75 378.1 247.65 375.8 249.4 373.3 250.5 373.75 254.35 371.85 258.0 365.8 255.6 360.0 252.25 L359.5 252.15 Q326.8 247.1 308.55 226.75 293.0 222.1 277.05 215.3 277.5 226.05 282.55 236.15 308.8 288.35 369.25 275.6 398.9 269.35 416.65 244.75 457.65 188.05 422.45 131.45 417.95 124.25 409.65 121.65 374.8 110.7 344.75 129.9 L347.35 134.85 M376.3 212.9 Q369.9 205.25 359.25 211.2 L358.5 211.65 360.35 220.35 363.85 227.25 Q366.1 227.65 368.4 227.25 371.25 226.8 372.85 229.15 L373.85 231.2 Q370.6 234.0 367.6 235.4 L369.75 240.35 376.4 239.8 Q378.95 235.2 380.35 230.1 382.0 224.1 379.55 218.4 L378.1 215.5 376.3 212.9 M347.3 224.2 Q344.7 219.3 344.85 215.25 336.75 206.15 329.5 194.95 320.55 181.1 310.7 168.1 305.65 179.2 303.85 192.05 302.1 204.65 308.25 214.25 319.9 219.6 331.5 225.2 344.05 231.25 354.9 239.6 L363.0 240.35 361.3 236.55 Q353.55 235.9 347.3 224.2 M349.35 201.15 Q340.8 171.2 329.15 142.2 321.5 149.6 316.1 158.15 L324.65 167.9 Q338.4 183.8 349.35 201.15 M262.6 65.9 L263.6 66.6 Q266.55 70.85 262.75 74.3 257.55 79.05 254.6 72.7 251.45 65.8 259.05 64.75 L259.05 64.6 261.3 65.25 Q262.0 65.5 262.6 65.9 M287.4 92.9 Q288.55 93.15 289.6 93.55 290.3 93.8 290.9 94.2 L291.95 94.95 Q294.9 99.15 291.1 102.6 285.85 107.35 282.95 101.0 279.75 94.15 287.35 93.05 L287.4 92.9 M304.05 92.55 L307.6 102.0 304.85 98.55 Q306.25 110.65 306.0 123.0 L305.7 128.25 Q311.55 121.85 318.1 116.4 310.4 99.5 302.05 82.95 303.15 86.9 303.8 91.05 L304.05 92.55 M170.6 17.3 L171.35 16.6 Q171.85 16.2 172.4 15.95 L174.1 15.45 174.1 15.3 175.1 15.4 176.85 15.95 Q177.4 16.2 177.8 16.65 L178.65 18.1 178.7 19.55 Q178.5 20.85 177.7 21.9 175.5 24.65 172.35 23.4 L171.35 22.6 170.75 21.8 170.4 20.35 170.4 18.1 170.6 17.3 M222.5 144.05 Q228.25 162.8 222.05 181.35 232.5 182.25 243.65 186.65 L239.3 173.6 Q233.4 157.2 222.5 144.05 M291.25 147.5 L292.5 145.5 Q275.0 125.25 255.1 107.1 L244.1 97.2 Q251.0 107.1 258.35 116.7 268.9 130.45 280.1 143.65 282.75 142.1 287.45 145.25 289.3 146.5 291.25 147.5 M303.85 138.85 L302.6 143.1 308.7 149.8 310.8 149.5 Q317.5 140.55 325.5 133.35 L320.55 121.8 Q311.2 129.55 303.85 138.85 M294.75 155.3 L294.2 154.85 Q294.6 153.55 294.4 152.7 282.25 173.7 278.15 200.9 L296.8 209.05 Q294.4 204.2 292.55 198.8 289.6 190.35 293.05 181.75 297.85 169.7 304.05 159.5 L298.9 153.1 298.75 153.1 298.6 153.75 Q298.15 154.6 297.35 154.95 L294.75 155.3 M102.3 73.95 L104.0 74.6 105.1 75.2 105.55 76.0 106.1 77.5 106.5 79.05 106.55 80.5 106.35 81.3 105.75 81.9 Q104.6 82.7 103.25 82.8 101.05 83.0 99.55 81.3 L98.85 80.45 Q98.65 80.15 98.6 79.75 L98.5 78.25 98.6 76.75 98.75 76.0 99.55 75.25 Q100.05 74.85 100.6 74.65 L102.3 74.1 102.3 73.95 M25.45 90.9 L25.55 90.2 26.3 88.7 Q27.3 87.25 29.0 86.4 30.4 85.65 31.5 85.6 34.4 85.9 35.85 88.35 37.25 90.8 36.5 93.6 35.7 96.5 33.05 98.0 L29.6 97.35 Q27.6 96.75 26.7 94.95 25.65 93.05 25.45 90.9 M36.0 109.6 Q35.05 109.85 34.4 109.35 33.1 108.4 34.55 108.1 35.55 108.6 36.25 109.4 L36.0 109.6 M87.85 158.25 L88.8 159.0 89.9 160.45 90.0 161.95 Q89.9 163.2 89.25 164.3 L87.4 167.05 Q86.55 168.2 85.1 168.25 83.75 167.65 82.65 166.65 81.45 165.65 81.1 164.0 80.75 162.45 81.35 160.95 L82.1 159.4 82.65 158.7 Q82.95 158.3 83.45 158.1 L85.1 157.55 85.1 157.4 86.35 157.7 Q87.15 157.9 87.85 158.25 M151.0 193.55 L150.6 193.3 149.6 194.8 151.0 193.55 M288.15 212.5 Q295.0 215.4 301.9 218.1 L301.35 217.25 Q294.8 214.7 288.15 212.5 M319.9 225.7 L320.2 225.9 321.5 226.75 Q328.1 231.0 334.9 233.9 326.65 228.3 317.6 224.05 L319.9 225.7 M249.65 220.15 Q250.75 219.6 251.95 219.2 L252.0 219.1 255.0 219.25 Q256.05 219.35 256.9 219.85 257.8 220.35 258.55 221.1 L258.85 221.85 259.15 222.65 259.35 224.15 Q259.45 225.45 258.6 226.45 L257.3 227.95 256.5 228.3 Q253.7 229.15 251.1 227.95 248.7 226.8 247.9 224.35 L247.7 222.9 247.8 222.15 248.25 221.4 Q248.85 220.6 249.65 220.15 M-350.8 -284.55 Q-384.15 -279.7 -390.15 -251.2 -395.7 -224.95 -368.8 -233.4 -350.7 -239.1 -335.6 -250.45 -324.15 -259.05 -315.9 -270.65 -317.95 -274.4 -321.3 -276.9 -324.4 -279.25 -327.55 -281.15 -338.2 -287.5 -350.8 -284.55 M-331.3 -244.35 Q-323.85 -242.55 -311.65 -245.85 -310.95 -246.0 -310.3 -246.4 -308.65 -249.25 -308.6 -252.45 -308.55 -255.1 -308.8 -257.75 -309.05 -260.55 -310.1 -263.25 -311.15 -265.9 -312.6 -266.35 -315.9 -262.9 -318.45 -258.95 -320.9 -255.2 -324.0 -252.0 L-330.4 -245.2 -331.3 -244.35 M-396.9 -134.55 L-400.9 -134.65 -402.1 -135.9 -402.1 -136.65 -401.95 -137.35 -400.9 -138.7 Q-400.2 -139.2 -399.3 -139.45 -396.65 -139.8 -395.8 -137.4 -395.2 -135.6 -396.9 -134.55 M-415.25 -52.9 L-413.5 -53.5 -411.75 -52.85 -410.7 -52.2 -410.25 -51.4 -409.7 -49.95 Q-409.3 -48.8 -409.25 -47.65 -409.2 -46.4 -409.95 -45.4 L-410.75 -44.65 Q-411.1 -44.35 -411.5 -44.2 L-413.5 -43.85 -415.5 -44.1 -416.5 -44.9 -417.2 -45.7 -418.1 -47.2 -418.55 -48.65 -418.45 -49.4 -417.75 -50.95 Q-416.9 -52.4 -415.25 -52.9 M-345.8 -66.25 Q-345.1 -67.35 -344.9 -68.6 -344.75 -69.7 -343.7 -70.1 L-342.7 -70.4 Q-340.95 -70.0 -340.6 -68.3 -340.2 -66.45 -340.25 -64.6 -340.3 -63.2 -341.5 -62.5 -342.05 -62.2 -342.7 -62.05 L-343.7 -62.15 Q-344.6 -62.35 -345.3 -62.85 L-346.35 -64.15 -346.5 -64.85 -345.8 -66.25 M-329.05 -28.15 L-328.0 -27.45 Q-325.05 -23.2 -328.9 -19.75 -334.1 -15.0 -337.0 -21.35 -340.2 -28.25 -332.6 -29.35 L-332.55 -29.45 -330.35 -28.8 -329.05 -28.15 M-156.6 -249.9 L-171.75 -250.2 Q-214.4 -235.2 -221.2 -196.95 -209.35 -201.85 -197.05 -205.9 -188.55 -213.2 -172.3 -216.4 -149.15 -221.0 -138.95 -199.9 -118.45 -157.5 -153.8 -125.15 -169.2 -111.1 -190.35 -115.3 L-194.05 -116.15 Q-197.65 -107.9 -200.75 -99.3 -179.4 -92.2 -157.15 -96.2 -113.85 -103.95 -104.1 -146.55 -91.0 -203.5 -133.7 -241.05 -143.5 -249.65 -156.6 -249.9 M-208.95 -242.15 Q-223.75 -239.0 -237.8 -235.2 L-236.9 -235.0 -238.2 -235.1 -249.15 -232.0 Q-245.7 -233.3 -242.35 -234.9 -254.1 -233.4 -265.0 -219.9 -278.7 -202.95 -276.15 -182.9 L-270.3 -186.25 Q-250.35 -197.55 -230.15 -207.55 -226.8 -218.0 -220.8 -228.2 -223.6 -230.25 -226.35 -231.65 -222.8 -230.3 -219.05 -230.7 L-216.35 -234.55 Q-212.95 -238.65 -208.95 -242.15 M-234.25 -204.95 L-235.5 -204.15 Q-234.35 -204.55 -233.3 -205.1 L-230.45 -206.5 -230.2 -207.4 -230.65 -207.15 -234.25 -204.95 M-182.65 -207.35 Q-180.45 -206.9 -179.95 -204.65 L-179.85 -203.9 Q-191.2 -200.5 -202.35 -196.25 -205.45 -187.7 -202.35 -175.6 -197.3 -192.0 -187.8 -193.5 L-186.45 -195.05 -187.35 -193.6 Q-178.5 -194.7 -165.85 -183.15 -162.3 -179.9 -160.65 -176.05 L-156.1 -179.15 -159.95 -174.25 Q-158.25 -168.6 -160.5 -161.8 -166.05 -144.75 -178.7 -146.5 -183.95 -137.55 -188.55 -128.1 L-181.05 -126.6 Q-168.55 -124.9 -159.55 -133.15 -126.4 -163.4 -147.3 -201.9 -156.9 -219.5 -177.35 -214.6 -188.45 -211.9 -194.9 -206.6 L-189.95 -208.2 -185.95 -207.9 -182.65 -207.35 M-169.0 -183.15 Q-176.6 -189.85 -186.2 -190.75 L-189.6 -189.85 -198.15 -175.55 Q-198.15 -173.3 -197.3 -171.05 L-196.9 -170.5 Q-195.55 -169.65 -193.95 -169.4 L-190.75 -169.3 -190.65 -169.55 -191.15 -170.0 -190.9 -170.4 Q-190.25 -170.9 -189.45 -171.2 L-188.8 -171.15 -188.2 -170.55 -187.95 -169.8 -187.8 -169.0 -188.05 -168.3 -188.65 -167.5 -189.2 -166.75 -189.7 -166.0 -189.95 -165.5 -194.0 -165.15 -197.45 -164.85 -197.3 -164.45 Q-196.65 -162.85 -195.6 -161.4 -194.2 -159.3 -192.3 -157.6 -190.0 -155.55 -188.15 -153.1 L-186.95 -151.6 -185.2 -151.2 -179.4 -158.25 Q-171.85 -167.4 -163.25 -174.05 -164.55 -179.3 -169.0 -183.15 M-193.4 -186.9 L-194.85 -184.85 -192.5 -187.85 -193.4 -186.9 M-190.8 -151.45 Q-198.9 -156.55 -202.4 -165.65 L-203.0 -167.2 -209.95 -155.0 -214.45 -146.6 Q-209.15 -137.85 -200.25 -132.75 L-186.85 -149.2 Q-188.75 -150.15 -190.8 -151.45 M-176.15 -150.75 Q-163.65 -152.3 -162.75 -168.25 L-162.75 -170.6 Q-169.85 -161.0 -176.15 -150.75 M-222.15 -173.3 Q-221.1 -159.5 -216.15 -149.7 L-216.15 -149.75 Q-210.8 -161.1 -204.3 -171.3 -208.5 -185.45 -204.65 -195.4 -213.5 -191.95 -222.25 -188.0 -222.75 -181.0 -222.15 -173.3 M-239.0 -140.95 Q-236.85 -139.55 -237.95 -137.55 -239.25 -135.25 -240.55 -137.9 -242.05 -140.95 -239.0 -140.95 M-232.0 -105.8 L-243.85 -73.95 Q-234.95 -88.1 -224.9 -101.55 -228.55 -103.6 -232.0 -105.8 M-208.6 -122.4 Q-215.7 -126.9 -220.75 -133.8 -225.45 -123.55 -229.4 -112.85 -225.05 -110.1 -220.35 -107.65 L-215.4 -113.95 -208.6 -122.4 M-207.4 -101.75 L-200.55 -118.25 Q-204.05 -119.65 -207.15 -121.5 L-218.0 -106.55 -218.05 -106.45 Q-212.95 -103.95 -207.4 -101.75 M-222.4 -136.2 Q-225.85 -141.55 -228.25 -148.15 -234.5 -165.55 -234.25 -182.3 -252.4 -173.25 -270.05 -161.9 -258.0 -132.2 -231.95 -114.55 L-222.4 -136.2 M-190.5 -140.7 L-198.55 -131.85 -195.25 -130.3 -190.5 -140.7 M-259.1 -178.7 Q-246.65 -185.65 -233.65 -191.55 -232.95 -197.35 -231.45 -203.0 L-247.4 -189.1 -259.1 -178.7 M-274.3 -174.05 L-273.15 -170.4 -272.2 -171.0 -249.65 -193.05 Q-262.7 -186.15 -275.45 -178.75 L-274.3 -174.05 M-250.2 -92.6 Q-250.0 -91.9 -250.15 -91.15 -250.55 -90.4 -251.1 -89.8 -252.5 -88.2 -254.65 -88.5 -256.2 -88.75 -257.75 -89.4 -258.5 -90.4 -258.5 -91.65 -258.55 -93.2 -258.9 -94.7 -259.35 -96.6 -257.7 -97.65 -256.55 -98.4 -255.7 -98.5 L-253.25 -97.8 Q-251.75 -97.25 -251.2 -95.75 L-250.2 -92.6 M-217.1 -0.85 Q-216.4 1.15 -218.35 2.0 -220.1 2.85 -221.75 1.8 L-222.6 1.15 -222.9 0.4 -223.2 -1.1 Q-223.1 -2.4 -221.75 -3.0 L-220.3 -3.65 Q-217.9 -3.05 -217.1 -0.85 M-63.05 77.5 L-63.0 76.75 -62.7 76.05 -61.45 74.85 -60.5 74.45 Q-58.2 75.15 -57.6 77.4 -56.9 79.85 -59.5 80.25 -62.2 80.6 -63.05 78.25 L-63.05 77.5 M-79.25 88.85 Q-77.8 89.6 -78.2 90.9 -78.85 92.9 -80.3 91.2 -82.0 89.25 -79.75 88.9 L-79.25 88.85 M-44.25 87.9 Q-44.2 89.25 -45.2 87.9 -45.8 87.05 -45.5 85.65 L-45.1 85.6 Q-44.35 86.75 -44.25 87.9 M-45.35 195.2 Q-45.8 194.05 -44.75 193.55 L-43.35 192.8 -42.35 192.9 Q-41.7 193.05 -41.1 193.35 L-40.15 194.15 Q-39.65 194.8 -39.3 195.6 L-39.05 196.35 Q-39.65 197.95 -41.3 197.9 -44.35 197.75 -45.35 195.2 M-204.0 91.55 Q-203.15 90.4 -201.9 89.75 -200.0 88.85 -199.3 86.95 -199.2 86.7 -198.8 86.6 L-198.3 88.75 -197.55 90.5 Q-196.95 91.5 -196.55 92.65 -196.4 93.95 -197.3 94.95 L-198.65 96.4 Q-199.65 97.4 -201.1 97.45 L-203.8 96.05 -204.35 95.4 -204.6 94.7 -204.65 93.95 Q-204.75 92.65 -204.0 91.55 M-248.45 26.95 Q-282.8 40.1 -306.35 68.5 -317.95 86.4 -329.9 104.1 -276.0 112.7 -253.0 167.25 -247.05 181.3 -244.85 194.5 -226.0 223.55 -191.05 237.15 -191.45 233.6 -192.6 229.8 -209.0 214.4 -219.05 193.8 -220.7 193.65 -222.1 194.8 L-222.35 194.05 -222.7 192.5 Q-222.85 191.8 -222.65 191.05 -222.45 190.4 -221.9 190.0 L-221.05 189.55 Q-227.7 174.65 -231.2 157.2 -236.1 132.85 -240.5 108.45 -242.6 111.95 -243.05 113.65 L-244.0 112.85 -244.45 112.1 -244.6 111.4 -244.6 110.6 -241.15 104.8 -245.35 80.5 Q-247.0 70.6 -247.8 60.9 -254.7 55.35 -251.7 41.4 L-248.45 26.95 M-300.7 110.35 L-304.35 109.5 Q-308.15 108.4 -306.75 104.9 -305.95 103.0 -304.25 103.05 -303.0 103.3 -301.9 103.85 -300.15 104.7 -300.7 106.4 -301.2 108.0 -300.8 109.65 L-300.7 110.35 M-315.35 146.25 Q-314.55 147.3 -314.1 148.55 L-313.85 149.3 Q-313.75 150.6 -314.4 151.7 -315.75 154.0 -318.45 154.2 -321.3 154.4 -323.45 152.35 L-323.95 151.55 -324.2 150.8 -324.4 149.3 -324.5 147.8 Q-324.5 146.6 -324.0 145.5 L-323.4 144.8 -322.4 144.2 -320.45 143.6 -320.45 143.5 Q-319.05 143.75 -317.8 144.3 -316.4 144.95 -315.35 146.25 M-185.8 232.45 Q-184.75 236.2 -184.2 239.65 L-178.0 241.55 -167.4 244.2 -170.2 241.7 Q-179.3 238.55 -186.25 230.95 L-185.8 232.45 M-196.1 221.15 Q-202.05 209.15 -211.4 199.45 -203.95 215.05 -192.95 228.75 -194.15 225.05 -196.1 221.15 M-293.9 211.75 L-292.2 212.15 Q-290.85 212.65 -289.75 213.45 -288.7 214.25 -288.85 215.55 L-289.55 216.9 Q-291.65 219.45 -295.2 218.75 -298.35 218.15 -298.45 215.05 L-298.35 214.3 -297.95 213.5 -297.45 212.75 Q-297.2 212.4 -296.8 212.2 -296.05 211.75 -295.15 211.5 L-293.9 211.75 M-315.5 220.7 Q-315.1 222.5 -315.2 224.4 L-315.25 228.2 Q-315.25 229.5 -316.15 230.45 -317.2 232.3 -319.45 232.35 -323.05 232.35 -326.2 230.65 L-327.25 229.95 Q-328.3 228.7 -328.5 227.05 -344.55 246.2 -368.5 244.1 -367.7 246.3 -367.85 248.65 L-367.95 251.7 -367.9 254.75 Q-367.85 256.8 -368.85 258.6 L-371.7 263.1 -375.0 267.65 -376.05 269.15 Q-313.6 306.75 -271.05 251.95 -248.45 222.8 -258.3 187.5 -276.1 123.35 -337.3 114.95 -349.55 132.7 -362.15 150.2 -358.55 151.25 -354.65 152.9 -323.9 165.9 -319.45 197.15 -317.85 208.45 -322.55 218.15 -321.05 217.35 -319.45 217.05 L-317.45 217.7 Q-316.9 217.95 -316.4 218.35 -315.75 219.5 -315.5 220.7 M-354.95 94.4 L-355.1 92.9 -354.15 91.5 -352.75 90.25 Q-350.9 89.15 -348.75 89.0 L-348.75 88.85 -347.75 88.95 Q-346.85 89.15 -346.05 89.5 -345.45 89.75 -345.05 90.2 L-344.45 90.9 Q-343.4 92.25 -343.75 93.9 -344.3 96.9 -346.85 98.65 -348.65 99.85 -350.75 99.4 L-352.55 99.0 -353.5 98.15 -354.0 97.45 -354.55 95.95 -354.95 94.4 M-410.65 153.6 Q-409.15 147.55 -406.1 142.0 -402.4 135.2 -397.05 129.7 -405.35 134.95 -412.85 141.65 -437.5 163.7 -443.3 195.8 -448.65 225.6 -429.9 247.9 -429.45 246.05 -429.55 243.85 -429.65 241.95 -429.4 240.1 -429.15 238.5 -428.35 237.05 -427.15 234.95 -426.5 232.6 -425.65 229.6 -423.45 227.3 L-417.8 221.1 Q-419.4 194.95 -407.3 171.1 -397.1 151.0 -380.05 148.55 -378.8 142.85 -376.95 137.3 -375.5 132.85 -372.8 129.05 L-381.9 137.4 Q-387.7 143.1 -392.8 149.25 -398.7 156.45 -405.15 163.2 -406.05 164.15 -407.4 163.95 -412.4 160.65 -410.65 153.6 M-406.15 157.15 Q-400.4 152.15 -395.45 146.25 L-381.75 129.85 Q-373.4 119.65 -363.15 118.45 -364.55 125.35 -368.6 131.9 -373.25 139.45 -375.65 148.1 L-375.65 148.2 -368.05 148.8 Q-355.0 131.85 -343.0 114.3 L-357.1 113.65 Q-367.9 115.9 -377.75 119.85 -382.65 123.0 -387.3 126.95 -394.0 132.65 -399.0 139.75 -404.45 147.4 -406.1 156.4 L-406.15 157.15 M-371.7 153.5 L-376.85 152.9 Q-378.0 157.7 -378.7 162.6 L-374.05 156.45 -371.7 153.5 M-380.9 152.65 L-382.15 152.6 Q-396.45 154.85 -403.2 167.85 -409.6 180.0 -411.35 193.75 -412.9 206.05 -411.2 218.05 -408.35 218.95 -404.35 218.65 L-403.15 218.6 Q-398.5 192.0 -382.1 167.5 -382.5 161.95 -381.6 156.45 L-380.9 152.65 M-374.4 166.9 L-379.0 173.45 Q-378.4 175.95 -377.05 178.15 -369.8 179.55 -368.15 186.35 L-365.65 195.5 Q-363.85 201.45 -362.9 207.8 -362.2 212.5 -361.9 216.55 -363.85 213.05 -364.6 208.6 -365.25 204.75 -366.05 200.95 -367.05 196.35 -368.35 191.75 -369.7 186.65 -371.75 181.9 -377.9 180.15 -380.3 175.5 -392.3 194.0 -397.75 213.55 L-397.05 213.8 -396.6 214.55 Q-396.4 214.9 -396.35 215.3 L-396.3 216.05 -396.3 216.8 -396.3 217.55 -396.2 218.3 -395.8 219.1 Q-391.7 221.35 -386.5 222.85 -379.65 224.8 -374.8 229.95 -371.9 233.05 -370.5 237.05 -330.55 242.6 -324.0 202.05 -320.6 181.0 -338.2 167.75 -350.8 158.25 -365.45 154.7 L-374.4 166.9 M-347.75 172.3 L-345.75 172.45 Q-344.85 172.55 -344.1 173.05 -343.3 173.55 -342.85 174.4 L-342.2 175.85 -342.8 177.3 Q-344.35 180.1 -347.75 179.55 -350.55 179.15 -351.3 176.6 L-351.3 175.85 -351.15 175.15 Q-350.9 174.35 -350.3 173.9 -349.15 173.05 -347.8 172.45 L-347.75 172.3 M-389.95 228.2 L-386.65 230.45 -383.15 232.75 -379.75 234.85 -378.6 235.25 -380.6 233.2 Q-381.75 231.95 -383.2 231.0 -385.3 229.6 -387.6 228.55 -389.6 227.65 -389.95 228.2 M-399.1 245.4 Q-398.9 243.25 -396.8 242.3 L-394.25 241.1 Q-388.4 242.15 -386.55 247.35 -385.3 250.95 -387.15 254.5 -388.4 256.9 -389.95 259.05 -388.1 260.45 -386.4 262.0 -384.5 263.7 -382.25 264.8 L-380.85 265.1 Q-377.6 261.15 -375.25 256.65 -373.45 253.25 -373.9 249.15 -374.3 245.3 -375.55 241.6 -386.05 237.7 -393.2 229.1 -396.15 225.55 -400.3 224.55 -402.05 233.9 -402.3 243.55 L-400.1 246.9 Q-399.2 246.8 -399.1 245.4 M-394.5 247.15 Q-395.3 248.15 -394.8 249.6 -394.45 250.65 -395.4 251.2 -397.1 252.15 -395.05 253.5 L-394.25 254.0 Q-392.9 253.75 -392.3 252.3 -391.8 250.95 -392.45 249.75 L-393.25 247.65 Q-393.45 246.8 -394.25 247.0 -394.4 247.0 -394.5 247.15 M-404.0 224.1 Q-406.55 224.1 -409.45 224.9 -409.85 228.6 -408.0 232.5 L-405.0 238.55 Q-404.95 231.25 -404.0 224.1 M-396.75 264.3 L-397.3 263.6 -397.8 262.85 Q-399.25 261.3 -401.05 260.65 L-401.35 261.3 Q-401.6 262.05 -402.1 262.5 -402.5 262.85 -403.1 262.85 L-403.5 260.15 Q-406.95 260.0 -411.35 262.2 L-411.2 262.3 Q-408.2 264.4 -404.65 265.45 L-398.8 267.6 Q-395.3 269.0 -391.75 268.9 L-393.5 267.35 -394.3 266.65 -395.25 265.85 -396.05 265.1 -396.75 264.3 M-422.25 236.5 Q-423.9 240.65 -423.85 245.15 -423.8 249.6 -421.55 253.45 -412.65 258.45 -404.65 254.5 -407.65 250.55 -410.0 246.3 -412.5 241.85 -414.15 237.0 L-416.55 229.45 Q-416.65 229.2 -416.85 229.1 L-417.0 229.2 Q-420.55 232.35 -422.25 236.5" fill="#000000" fill-opacity="0.3019608" fill-rule="evenodd" stroke="none"/>
  </g>
</svg>
