<?xml version="1.0" encoding="UTF-8" standalone="no"?>
<svg xmlns:xlink="http://www.w3.org/1999/xlink" height="149.4px" width="916.15px" xmlns="http://www.w3.org/2000/svg">
  <g transform="matrix(1.0, 0.0, 0.0, 1.0, 119.85, 72.75)">
    <path d="M642.75 33.15 L639.05 25.2 659.45 10.8 660.45 21.85 642.75 33.15 M792.85 -68.95 Q794.45 -59.85 796.3 -50.7 L784.8 -43.9 769.5 -34.7 764.15 -43.9 761.6 -48.25 792.85 -68.95 M570.7 73.4 L565.7 76.65 563.95 72.2 570.4 67.85 570.7 73.4 M110.45 63.75 L117.35 67.7 116.2 72.3 110.9 69.4 Q110.85 66.65 110.45 63.75 M20.85 10.2 L21.65 10.65 42.45 23.25 39.85 31.45 21.05 21.35 20.95 17.5 20.85 10.2 M-85.2 -54.2 L-91.65 -40.1 -119.85 -54.25 -118.25 -72.75 -85.2 -54.2" fill="#ffff66" fill-rule="evenodd" stroke="none"/>
  </g>
</svg>
