<?xml version="1.0" encoding="UTF-8" standalone="no"?>
<svg xmlns:xlink="http://www.w3.org/1999/xlink" height="413.5px" width="886.3px" xmlns="http://www.w3.org/2000/svg">
  <g transform="matrix(1.0, 0.0, 0.0, 1.0, 427.3, 199.5)">
    <path d="M97.7 -121.0 L97.55 -131.95 Q42.1 -129.85 -12.75 -129.95 L-12.55 -119.0 Q-50.95 -119.25 -89.3 -120.5 L-89.5 -132.35 -198.55 -137.25 -198.45 -125.35 -270.75 -129.05 -270.8 -140.05 -380.05 -144.0 -380.05 -133.0 -393.0 -133.2 -393.0 -191.15 Q-7.4 -162.25 391.85 -191.15 L391.85 -144.2 357.75 -143.45 357.75 -132.45 282.2 -129.65 282.15 -141.55 171.05 -136.05 171.2 -124.2 97.7 -121.0" fill="url(#gradient0)" fill-rule="evenodd" stroke="none"/>
    <path d="M-11.9 -80.15 L-11.6 -63.2 Q-50.05 -63.35 -88.45 -64.7 L-88.7 -81.65 Q-50.3 -80.4 -11.9 -80.15 M98.5 -65.15 L98.3 -82.15 171.6 -85.3 171.8 -68.3 98.5 -65.15 M282.45 -73.65 L282.35 -90.7 357.8 -93.45 357.8 -76.4 282.45 -73.65 M-393.0 -77.15 L-393.0 -94.2 -380.05 -94.0 -380.0 -76.95 -393.0 -77.15 M-270.45 -73.1 L-270.55 -90.1 -198.05 -86.45 -197.9 -69.45 -270.45 -73.1" fill="url(#gradient1)" fill-rule="evenodd" stroke="none"/>
    <path d="M357.75 -132.45 L357.75 -143.45 391.85 -144.2 410.9 -144.4 410.9 -77.35 Q384.35 -77.1 357.8 -76.4 L357.8 -93.45 357.75 -132.45" fill="url(#gradient2)" fill-rule="evenodd" stroke="none"/>
    <path d="M-11.6 -63.2 Q43.25 -63.0 98.5 -65.15 L171.8 -68.3 282.45 -73.65 357.8 -76.4 Q384.35 -77.1 410.9 -77.35 L425.95 -77.4 425.95 200.5 2.95 213.5 -425.95 200.5 -425.95 -77.4 -393.0 -77.15 -380.0 -76.95 -270.45 -73.1 -197.9 -69.45 -88.45 -64.7 Q-50.05 -63.35 -11.6 -63.2" fill="url(#gradient3)" fill-rule="evenodd" stroke="none"/>
    <path d="M-198.45 -125.35 L-198.55 -137.25 -89.5 -132.35 -89.3 -120.5 -88.7 -81.65 -88.45 -64.7 -197.9 -69.45 -198.05 -86.45 -198.45 -125.35" fill="url(#gradient4)" fill-rule="evenodd" stroke="none"/>
    <path d="M-380.05 -133.0 L-380.05 -144.0 -270.8 -140.05 -270.75 -129.05 -270.55 -90.1 -270.45 -73.1 -380.0 -76.95 -380.05 -94.0 -380.05 -133.0" fill="url(#gradient5)" fill-rule="evenodd" stroke="none"/>
    <path d="M-12.55 -119.0 L-12.75 -129.95 Q42.1 -129.85 97.55 -131.95 L97.7 -121.0 98.3 -82.15 98.5 -65.15 Q43.25 -63.0 -11.6 -63.2 L-11.9 -80.15 -12.55 -119.0" fill="url(#gradient6)" fill-rule="evenodd" stroke="none"/>
    <path d="M171.2 -124.2 L171.05 -136.05 282.15 -141.55 282.2 -129.65 Q282.2 -110.1 282.35 -90.7 L282.45 -73.65 171.8 -68.3 171.6 -85.3 171.2 -124.2" fill="url(#gradient7)" fill-rule="evenodd" stroke="none"/>
    <path d="M-12.55 -119.0 L-12.75 -129.95 Q42.1 -129.85 97.55 -131.95 L97.7 -121.0 171.2 -124.2 171.05 -136.05 282.15 -141.55 282.2 -129.65 357.75 -132.45 357.75 -143.45 391.85 -144.2 391.85 -191.15 Q-7.4 -162.25 -393.0 -191.15 L-393.0 -133.2 -380.05 -133.0 -380.05 -144.0 -270.8 -140.05 -270.75 -129.05 -198.45 -125.35 -198.55 -137.25 -89.5 -132.35 -89.3 -120.5 Q-50.95 -119.25 -12.55 -119.0 L-11.9 -80.15 Q-50.3 -80.4 -88.7 -81.65 L-89.3 -120.5 M-11.6 -63.2 Q43.25 -63.0 98.5 -65.15 L171.8 -68.3 282.45 -73.65 357.8 -76.4 Q384.35 -77.1 410.9 -77.35 L425.95 -77.4 425.95 200.5 2.95 213.5 -425.95 200.5 -425.95 -77.4 -393.0 -77.15 -380.0 -76.95 -380.05 -94.0 -380.05 -133.0 M98.3 -82.15 L97.7 -121.0 M282.35 -90.7 Q282.2 -110.1 282.2 -129.65 M171.2 -124.2 L171.6 -85.3 98.3 -82.15 M410.9 -144.4 L391.85 -144.2 M357.8 -93.45 L357.75 -132.45 M282.35 -90.7 L357.8 -93.45 M-380.05 -94.0 L-393.0 -94.2 -393.0 -77.15 M-270.55 -90.1 L-270.75 -129.05 M-197.9 -69.45 L-88.45 -64.7 Q-50.05 -63.35 -11.6 -63.2 M-197.9 -69.45 L-270.45 -73.1 -380.0 -76.95 M-270.55 -90.1 L-198.05 -86.45 -198.45 -125.35" fill="none" stroke="#000000" stroke-linecap="round" stroke-linejoin="round" stroke-width="1.0"/>
    <path d="M16.1 -100.4 L16.1 -85.55 13.05 -86.8 7.5 -90.65 5.45 -100.4 16.1 -100.4 M334.9 -23.8 L335.05 -25.0 283.85 -30.9 427.5 -38.15 427.5 -14.4 364.75 -21.6 364.6 -20.25 314.75 13.0 247.05 2.3 289.8 4.7 334.9 -23.8 M381.2 -114.65 L381.05 -115.6 399.6 -118.8 400.2 -118.8 402.55 -102.75 378.8 -96.8 374.65 -109.9 381.2 -114.65 M259.0 -140.6 L261.9 -105.15 232.2 -102.75 229.25 -119.95 259.0 -140.6 M70.15 -143.7 L70.15 -144.9 79.65 -144.9 83.75 -78.4 64.2 -78.4 63.9 -78.4 70.15 -143.7 M427.5 153.1 L206.7 94.95 125.95 104.45 79.85 57.85 133.1 91.35 198.7 82.9 198.4 80.7 173.25 33.8 234.0 84.25 233.2 87.85 427.5 131.85 427.5 153.1 M427.5 109.7 L293.05 38.75 427.5 84.1 427.5 109.7 M20.7 179.2 L-131.05 179.2 -134.45 195.85 -181.85 195.85 -342.7 107.1 -427.3 150.55 -427.3 139.45 -138.8 2.3 -330.35 100.75 -155.8 189.5 -115.05 100.85 -128.85 168.55 -80.65 168.15 -80.65 167.35 -15.45 116.15 -60.05 168.0 15.8 167.4 -10.6 103.55 46.85 195.85 27.55 195.85 20.7 179.2 M141.35 195.85 L97.45 121.05 171.15 195.85 141.35 195.85 M-370.9 -132.45 L-344.8 -127.7 -346.0 -102.75 -371.5 -105.7 -371.5 -131.25 -370.9 -132.45 M-325.2 -109.3 L-325.2 -90.3 -338.25 -90.85 -338.25 -107.5 -325.2 -109.3 M-427.3 -40.4 L-264.65 -40.4 -336.75 -33.55 -321.65 15.4 -267.0 16.55 -338.25 23.7 -356.7 -31.65 -427.3 -24.95 -427.3 -40.4 M-179.75 -130.05 L-172.65 -127.1 -175.6 -109.9 -183.35 -111.05 -181.05 -130.2 -179.75 -130.05 M-104.2 -111.45 L-120.4 -108.1 -134.05 -133.6 -111.5 -134.2 -104.4 -112.25 -104.2 -111.45" fill="#000000" fill-opacity="0.09019608" fill-rule="evenodd" stroke="none"/>
    <path d="M-353.55 -172.1 Q-341.1 -199.5 -323.5 -199.5 -305.9 -199.5 -293.45 -172.1 -281.0 -144.7 -281.0 -106.0 -281.0 -67.3 -293.45 -39.9 -305.9 -12.5 -323.5 -12.5 -341.1 -12.5 -353.55 -39.9 -366.0 -67.3 -366.0 -106.0 -366.0 -144.7 -353.55 -172.1" fill="url(#gradient8)" fill-rule="evenodd" stroke="none"/>
    <path d="M-172.6 -172.1 Q-160.15 -199.5 -142.55 -199.5 -124.95 -199.5 -112.5 -172.1 -100.05 -144.7 -100.05 -106.0 -100.05 -67.3 -112.5 -39.9 -124.95 -12.5 -142.55 -12.5 -160.15 -12.5 -172.6 -39.9 -185.05 -67.3 -185.05 -106.0 -185.05 -144.7 -172.6 -172.1" fill="url(#gradient9)" fill-rule="evenodd" stroke="none"/>
    <path d="M15.45 -172.1 Q27.9 -199.5 45.5 -199.5 63.1 -199.5 75.55 -172.1 88.0 -144.7 88.0 -106.0 88.0 -67.3 75.55 -39.9 63.1 -12.5 45.5 -12.5 27.9 -12.5 15.45 -39.9 3.0 -67.3 3.0 -106.0 3.0 -144.7 15.45 -172.1" fill="url(#gradient10)" fill-rule="evenodd" stroke="none"/>
    <path d="M272.0 -106.0 Q272.0 -67.3 259.55 -39.9 247.1 -12.5 229.5 -12.5 211.9 -12.5 199.45 -39.9 187.0 -67.3 187.0 -106.0 187.0 -144.7 199.45 -172.1 211.9 -199.5 229.5 -199.5 247.1 -199.5 259.55 -172.1 272.0 -144.7 272.0 -106.0" fill="url(#gradient11)" fill-rule="evenodd" stroke="none"/>
    <path d="M459.0 -106.0 Q459.0 -67.3 446.55 -39.9 434.1 -12.5 416.5 -12.5 398.9 -12.5 386.45 -39.9 374.0 -67.3 374.0 -106.0 374.0 -144.7 386.45 -172.1 398.9 -199.5 416.5 -199.5 434.1 -199.5 446.55 -172.1 459.0 -144.7 459.0 -106.0" fill="url(#gradient12)" fill-rule="evenodd" stroke="none"/>
  </g>
  <defs>
    <linearGradient gradientTransform="matrix(0.0, 0.0354, -0.4791, 0.0, -0.5, -162.5)" gradientUnits="userSpaceOnUse" id="gradient0" spreadMethod="pad" x1="-819.2" x2="819.2">
      <stop offset="0.0" stop-color="#261515"/>
      <stop offset="1.0" stop-color="#111210"/>
    </linearGradient>
    <linearGradient gradientTransform="matrix(0.0, -0.0183, 0.4791, 0.0, -0.55, -79.5)" gradientUnits="userSpaceOnUse" id="gradient1" spreadMethod="pad" x1="-819.2" x2="819.2">
      <stop offset="0.0" stop-color="#261515"/>
      <stop offset="1.0" stop-color="#111210"/>
    </linearGradient>
    <linearGradient gradientTransform="matrix(0.0, 0.0513, -0.0323, 0.0, 384.5, -102.5)" gradientUnits="userSpaceOnUse" id="gradient2" spreadMethod="pad" x1="-819.2" x2="819.2">
      <stop offset="0.0" stop-color="#1c201c"/>
      <stop offset="0.23921568627450981" stop-color="#2d2d28"/>
      <stop offset="0.4588235294117647" stop-color="#2f332b"/>
      <stop offset="0.6392156862745098" stop-color="#37392d"/>
      <stop offset="0.8705882352941177" stop-color="#1c201c"/>
    </linearGradient>
    <radialGradient cx="0" cy="0" gradientTransform="matrix(2.0E-4, 0.2685, -0.7621, 6.0E-4, -7.0, -16.0)" gradientUnits="userSpaceOnUse" id="gradient3" r="819.2" spreadMethod="pad">
      <stop offset="0.0" stop-color="#2b332f"/>
      <stop offset="0.6588235294117647" stop-color="#2c1818"/>
      <stop offset="1.0" stop-color="#0a0707"/>
    </radialGradient>
    <linearGradient gradientTransform="matrix(0.0, 0.0513, -0.0671, 0.0, -142.05, -103.4)" gradientUnits="userSpaceOnUse" id="gradient4" spreadMethod="pad" x1="-819.2" x2="819.2">
      <stop offset="0.0" stop-color="#1c201c"/>
      <stop offset="0.23921568627450981" stop-color="#2d2d28"/>
      <stop offset="0.4588235294117647" stop-color="#2f332b"/>
      <stop offset="0.7294117647058823" stop-color="#181311"/>
    </linearGradient>
    <linearGradient gradientTransform="matrix(0.0019, 0.0536, -0.0689, 0.0024, -325.0, -102.5)" gradientUnits="userSpaceOnUse" id="gradient5" spreadMethod="pad" x1="-819.2" x2="819.2">
      <stop offset="0.0" stop-color="#1c201c"/>
      <stop offset="0.23921568627450981" stop-color="#2d2d28"/>
      <stop offset="0.4588235294117647" stop-color="#2f332b"/>
      <stop offset="0.7294117647058823" stop-color="#181311"/>
    </linearGradient>
    <linearGradient gradientTransform="matrix(0.0, 0.0513, -0.0671, 0.0, 45.0, -102.5)" gradientUnits="userSpaceOnUse" id="gradient6" spreadMethod="pad" x1="-819.2" x2="819.2">
      <stop offset="0.0" stop-color="#1c201c"/>
      <stop offset="0.23921568627450981" stop-color="#2d2d28"/>
      <stop offset="0.4588235294117647" stop-color="#2f332b"/>
      <stop offset="0.7294117647058823" stop-color="#181311"/>
    </linearGradient>
    <linearGradient gradientTransform="matrix(0.0, 0.0513, -0.0671, 0.0, 227.95, -103.4)" gradientUnits="userSpaceOnUse" id="gradient7" spreadMethod="pad" x1="-819.2" x2="819.2">
      <stop offset="0.0" stop-color="#1c201c"/>
      <stop offset="0.23921568627450981" stop-color="#2d2d28"/>
      <stop offset="0.4588235294117647" stop-color="#2f332b"/>
      <stop offset="0.7294117647058823" stop-color="#181311"/>
    </linearGradient>
    <radialGradient cx="0" cy="0" gradientTransform="matrix(0.0732, 0.0, 0.0, 0.2236, -323.95, -194.15)" gradientUnits="userSpaceOnUse" id="gradient8" r="819.2" spreadMethod="pad">
      <stop offset="0.0" stop-color="#ffffff"/>
      <stop offset="0.11764705882352941" stop-color="#f7c277" stop-opacity="0.5411765"/>
      <stop offset="0.3803921568627451" stop-color="#f4bf71" stop-opacity="0.2627451"/>
      <stop offset="0.8" stop-color="#f88a5c" stop-opacity="0.0"/>
    </radialGradient>
    <radialGradient cx="0" cy="0" gradientTransform="matrix(0.0732, 0.0, 0.0, 0.2236, -143.0, -194.15)" gradientUnits="userSpaceOnUse" id="gradient9" r="819.2" spreadMethod="pad">
      <stop offset="0.0" stop-color="#ffffff"/>
      <stop offset="0.11764705882352941" stop-color="#f7c277" stop-opacity="0.5411765"/>
      <stop offset="0.3803921568627451" stop-color="#f4bf71" stop-opacity="0.2627451"/>
      <stop offset="0.8" stop-color="#f88a5c" stop-opacity="0.0"/>
    </radialGradient>
    <radialGradient cx="0" cy="0" gradientTransform="matrix(0.0732, 0.0, 0.0, 0.2236, 45.05, -194.15)" gradientUnits="userSpaceOnUse" id="gradient10" r="819.2" spreadMethod="pad">
      <stop offset="0.0" stop-color="#ffffff"/>
      <stop offset="0.11764705882352941" stop-color="#f7c277" stop-opacity="0.5411765"/>
      <stop offset="0.3803921568627451" stop-color="#f4bf71" stop-opacity="0.2627451"/>
      <stop offset="0.8" stop-color="#f88a5c" stop-opacity="0.0"/>
    </radialGradient>
    <radialGradient cx="0" cy="0" gradientTransform="matrix(0.0732, 0.0, 0.0, 0.2236, 229.05, -194.15)" gradientUnits="userSpaceOnUse" id="gradient11" r="819.2" spreadMethod="pad">
      <stop offset="0.0" stop-color="#ffffff"/>
      <stop offset="0.11764705882352941" stop-color="#f7c277" stop-opacity="0.5411765"/>
      <stop offset="0.3803921568627451" stop-color="#f4bf71" stop-opacity="0.2627451"/>
      <stop offset="0.8" stop-color="#f88a5c" stop-opacity="0.0"/>
    </radialGradient>
    <radialGradient cx="0" cy="0" gradientTransform="matrix(0.0732, 0.0, 0.0, 0.2236, 416.05, -194.15)" gradientUnits="userSpaceOnUse" id="gradient12" r="819.2" spreadMethod="pad">
      <stop offset="0.0" stop-color="#ffffff"/>
      <stop offset="0.11764705882352941" stop-color="#f7c277" stop-opacity="0.5411765"/>
      <stop offset="0.3803921568627451" stop-color="#f4bf71" stop-opacity="0.2627451"/>
      <stop offset="0.8" stop-color="#f88a5c" stop-opacity="0.0"/>
    </radialGradient>
  </defs>
</svg>
