<?xml version="1.0" encoding="UTF-8" standalone="no"?>
<svg xmlns:xlink="http://www.w3.org/1999/xlink" height="143.0px" width="830.55px" xmlns="http://www.w3.org/2000/svg">
  <g transform="matrix(1.0, 0.0, 0.0, 1.0, 437.1, 164.1)">
    <path d="M393.45 -21.1 L-392.5 -21.1 -392.5 -164.1 393.45 -164.1 393.45 -21.1" fill="url(#gradient0)" fill-rule="evenodd" stroke="none"/>
    <path d="M99.5 -118.3 L124.25 -85.9 124.9 -107.9 144.4 -106.85 154.15 -78.05 184.1 -78.05 195.8 -53.5 -155.5 -55.6 -155.5 -62.4 -147.05 -79.1 -107.35 -79.65 -98.25 -110.5 -81.3 -118.3 -80.65 -92.2 -45.55 -95.85 -37.75 -141.35 -15.65 -140.85 -5.9 -101.6 2.55 -101.1 5.15 -122.5 14.95 -123.1 13.65 -108.4 52.0 -108.4 60.45 -94.3 88.45 -94.3 81.95 -119.95 99.5 -118.3" fill="url(#gradient1)" fill-rule="evenodd" stroke="none"/>
    <path d="M39.1 -123.1 L50.1 -86.55 72.1 -85.05 71.6 -115.6 92.1 -114.6 95.6 -85.55 117.6 -81.55 120.6 -70.05 168.65 -66.05 173.65 -114.1 195.65 -112.1 192.15 -69.05 196.65 -68.05 209.65 -88.05 221.15 -82.55 212.15 -58.05 215.15 -47.05 -197.6 -50.05 -189.95 -66.55 -177.45 -66.55 -164.95 -96.05 -156.45 -96.05 -154.45 -70.05 -137.45 -69.05 -130.45 -126.55 -130.45 -126.65 -115.45 -128.6 -106.95 -99.55 -94.95 -98.55 -93.95 -76.05 25.1 -71.55 28.6 -125.1 39.1 -123.1 M9.55 -62.65 L9.5 -62.55 8.5 -61.9 7.95 -61.25 7.9 -60.9 8.05 -60.55 Q8.5 -59.7 9.5 -59.95 10.6 -60.2 10.6 -61.25 10.6 -62.35 9.55 -62.65 M39.3 -98.4 L38.65 -98.4 Q37.3 -98.25 37.9 -96.9 38.4 -95.7 39.3 -96.75 39.9 -97.45 39.3 -98.4 M78.4 -71.45 Q78.55 -72.3 77.55 -72.4 L77.5 -72.35 Q76.3 -71.85 77.3 -71.1 78.25 -70.45 78.4 -71.45 M-168.55 -69.1 Q-168.5 -69.4 -168.9 -69.8 L-169.2 -69.7 Q-169.65 -69.35 -169.0 -69.15 L-168.55 -69.1 M-164.25 -82.15 L-164.85 -82.05 -165.6 -81.5 -165.85 -81.15 -166.0 -80.8 Q-166.2 -79.85 -165.35 -79.35 L-163.25 -79.4 -162.75 -79.9 -162.6 -80.3 -162.75 -81.0 -163.35 -81.65 -164.25 -82.15 M182.25 -80.15 Q183.25 -81.6 181.55 -82.15 180.25 -81.9 180.65 -80.45 181.2 -78.7 182.25 -80.15 M209.55 -72.3 L209.55 -72.2 208.9 -71.9 208.4 -71.35 208.3 -71.05 208.3 -70.65 208.4 -70.3 Q208.75 -69.0 210.05 -69.5 210.9 -69.9 210.85 -70.9 210.75 -72.0 209.55 -72.3 M106.3 -62.55 Q106.7 -63.4 106.15 -64.25 L105.95 -64.2 Q105.35 -63.3 105.5 -62.5 105.75 -61.35 106.3 -62.55 M86.65 -83.95 L86.05 -84.3 86.05 -84.2 Q84.9 -84.25 84.9 -83.15 84.95 -82.05 86.0 -81.4 87.15 -80.65 87.8 -81.8 L87.85 -82.15 87.4 -83.2 86.65 -83.95 M-108.9 -70.3 Q-109.7 -70.15 -109.85 -69.1 -109.95 -68.1 -108.9 -68.85 -107.95 -69.55 -108.9 -70.3 M-49.55 -59.45 Q-49.4 -60.35 -50.35 -60.75 L-50.5 -60.75 Q-51.75 -60.2 -50.8 -59.2 -49.75 -58.15 -49.55 -59.45 M-71.6 -65.1 Q-71.95 -64.3 -71.5 -64.05 -71.1 -63.85 -71.05 -64.15 -70.95 -64.6 -71.35 -65.15 L-71.6 -65.1" fill="url(#gradient2)" fill-rule="evenodd" stroke="none"/>
    <path d="M78.4 -71.45 Q78.25 -70.45 77.3 -71.1 76.3 -71.85 77.5 -72.35 L77.55 -72.4 Q78.55 -72.3 78.4 -71.45 M39.3 -98.4 Q39.9 -97.45 39.3 -96.75 38.4 -95.7 37.9 -96.9 37.3 -98.25 38.65 -98.4 L39.3 -98.4 M9.55 -62.65 Q10.6 -62.35 10.6 -61.25 10.6 -60.2 9.5 -59.95 8.5 -59.7 8.05 -60.55 L7.9 -60.9 7.95 -61.25 8.5 -61.9 9.5 -62.55 9.55 -62.65 M139.9 -82.9 Q138.9 -82.2 138.45 -83.3 137.95 -84.65 139.55 -84.55 L139.8 -84.55 Q141.05 -83.7 139.9 -82.9 M105.8 -92.3 Q106.95 -92.1 106.7 -91.1 106.45 -90.15 105.55 -90.05 104.6 -89.9 104.15 -90.7 L104.05 -91.05 104.15 -91.3 105.2 -92.1 105.8 -92.3 M86.65 -83.95 L87.4 -83.2 87.85 -82.15 87.8 -81.8 Q87.15 -80.65 86.0 -81.4 84.95 -82.05 84.9 -83.15 84.9 -84.25 86.05 -84.2 L86.05 -84.3 86.65 -83.95 M106.3 -62.55 Q105.75 -61.35 105.5 -62.5 105.35 -63.3 105.95 -64.2 L106.15 -64.25 Q106.7 -63.4 106.3 -62.55 M209.55 -72.3 Q210.75 -72.0 210.85 -70.9 210.9 -69.9 210.05 -69.5 208.75 -69.0 208.4 -70.3 L208.3 -70.65 208.3 -71.05 208.4 -71.35 208.9 -71.9 209.55 -72.2 209.55 -72.3 M182.25 -80.15 Q181.2 -78.7 180.65 -80.45 180.25 -81.9 181.55 -82.15 183.25 -81.6 182.25 -80.15 M-164.25 -82.15 L-163.35 -81.65 -162.75 -81.0 -162.6 -80.3 -162.75 -79.9 -163.25 -79.4 -165.35 -79.35 Q-166.2 -79.85 -166.0 -80.8 L-165.85 -81.15 -165.6 -81.5 -164.85 -82.05 -164.25 -82.15 M-168.55 -69.1 L-169.0 -69.15 Q-169.65 -69.35 -169.2 -69.7 L-168.9 -69.8 Q-168.5 -69.4 -168.55 -69.1 M-21.7 -115.9 Q-21.65 -114.9 -22.5 -114.5 -23.45 -114.05 -24.0 -115.0 L-24.25 -115.65 -24.2 -116.05 -23.9 -116.75 -23.3 -117.3 -22.75 -117.4 Q-21.7 -116.95 -21.7 -115.9 M-32.4 -110.45 Q-32.8 -111.9 -31.5 -112.15 -29.85 -111.55 -30.8 -110.2 -31.9 -108.7 -32.4 -110.45 M-108.9 -70.3 Q-107.95 -69.55 -108.9 -68.85 -109.95 -68.1 -109.85 -69.1 -109.7 -70.15 -108.9 -70.3 M-13.2 -87.55 Q-13.25 -86.7 -14.05 -86.25 -14.9 -85.8 -15.4 -86.7 L-15.5 -87.05 -15.4 -87.35 -14.65 -88.05 -14.0 -88.45 -14.0 -88.55 Q-13.1 -88.4 -13.2 -87.55 M-63.9 -82.25 Q-64.5 -81.1 -65.1 -82.4 -65.65 -83.75 -64.5 -83.9 -63.2 -83.5 -63.9 -82.25 M-71.6 -65.1 L-71.35 -65.15 Q-70.95 -64.6 -71.05 -64.15 -71.1 -63.85 -71.5 -64.05 -71.95 -64.3 -71.6 -65.1 M-49.55 -59.45 Q-49.75 -58.15 -50.8 -59.2 -51.75 -60.2 -50.5 -60.75 L-50.35 -60.75 Q-49.4 -60.35 -49.55 -59.45" fill="#ffff66" fill-rule="evenodd" stroke="none"/>
    <path d="M-119.65 -110.4 L-119.8 -110.3 -120.55 -110.4 Q-121.2 -110.9 -120.5 -111.05 -120.0 -110.8 -119.65 -110.4 M-113.85 -87.15 L-113.45 -87.45 -113.05 -87.7 -113.0 -87.8 Q-111.8 -87.85 -111.35 -86.75 -110.9 -85.65 -111.85 -85.05 -112.8 -84.35 -113.9 -84.9 L-114.15 -85.3 -114.3 -85.65 -114.4 -86.05 -114.3 -86.4 -114.15 -86.8 -113.85 -87.15 M-125.3 -78.55 Q-125.55 -78.4 -125.8 -78.7 -126.25 -79.35 -125.5 -79.4 L-125.25 -79.4 Q-124.8 -78.9 -125.3 -78.55" fill="#ffff66" fill-rule="evenodd" stroke="none"/>
    <path d="M-432.1 -128.0 L-430.15 -127.4 Q-429.5 -127.15 -429.0 -126.65 L-427.9 -125.25 -427.1 -123.75 -427.15 -123.0 Q-427.25 -122.25 -427.5 -121.55 -427.95 -120.25 -429.05 -119.55 -430.5 -118.65 -432.1 -118.0 -433.75 -118.65 -435.2 -119.5 -436.75 -120.45 -437.05 -122.25 -437.25 -123.85 -436.55 -125.25 L-436.1 -126.0 -435.35 -126.75 -434.3 -127.3 -432.15 -127.9 -432.1 -128.0" fill="#ffff66" fill-rule="evenodd" stroke="none"/>
  </g>
  <defs>
    <radialGradient cx="0" cy="0" gradientTransform="matrix(6.0E-4, 0.1306, -0.3982, 0.0019, -3.0, -35.0)" gradientUnits="userSpaceOnUse" id="gradient0" r="819.2" spreadMethod="pad">
      <stop offset="0.0" stop-color="#556039"/>
      <stop offset="1.0" stop-color="#453129"/>
    </radialGradient>
    <linearGradient gradientTransform="matrix(-0.0022, 0.0402, -0.2143, -0.0075, 9.75, -76.05)" gradientUnits="userSpaceOnUse" id="gradient1" spreadMethod="pad" x1="-819.2" x2="819.2">
      <stop offset="0.01568627450980392" stop-color="#000000" stop-opacity="0.14117648"/>
      <stop offset="1.0" stop-color="#1e1a22" stop-opacity="0.6431373"/>
    </linearGradient>
    <linearGradient gradientTransform="matrix(1.0, 0.0, 0.0, 1.0, 0.0, 0.0)" gradientUnits="userSpaceOnUse" id="gradient2" spreadMethod="pad" x1="-819.2" x2="819.2">
      <stop offset="0.01568627450980392" stop-color="#2c2821"/>
      <stop offset="1.0" stop-color="#211e1b"/>
    </linearGradient>
  </defs>
</svg>
