<?xml version="1.0" encoding="UTF-8" standalone="no"?>
<svg xmlns:xlink="http://www.w3.org/1999/xlink" height="116.9px" width="774.6px" xmlns="http://www.w3.org/2000/svg">
  <g transform="matrix(1.0, 0.0, 0.0, 1.0, 391.25, 162.65)">
    <path d="M131.3 -102.3 Q130.2 -102.8 130.85 -103.65 L131.9 -102.55 Q132.3 -101.65 131.3 -102.3 M148.2 -100.55 L148.85 -101.3 148.85 -101.4 150.35 -100.65 Q151.55 -99.6 150.5 -98.9 L148.65 -99.0 148.25 -99.4 148.05 -99.8 148.05 -100.15 Q147.95 -100.35 148.2 -100.55 M63.9 -62.2 L64.75 -61.65 Q65.3 -60.8 64.25 -61.1 63.2 -61.3 63.7 -62.1 L63.9 -62.2 M56.05 -59.8 L56.45 -59.95 57.2 -59.3 56.85 -59.2 Q55.85 -59.1 56.05 -59.8 M28.5 -93.05 L28.45 -92.8 Q28.05 -92.9 28.0 -93.35 27.75 -93.85 28.3 -93.9 L28.5 -93.05 M1.2 -86.65 Q2.5 -86.85 2.55 -85.85 2.45 -85.05 1.7 -85.05 0.45 -85.05 0.75 -86.2 0.8 -86.55 1.2 -86.65 M19.2 -77.35 Q19.75 -77.55 20.1 -77.9 20.95 -77.75 20.55 -77.2 20.3 -76.95 19.85 -76.9 18.05 -76.75 19.2 -77.35 M31.5 -67.4 Q32.5 -67.3 32.05 -66.55 31.7 -65.95 31.3 -66.55 31.0 -66.85 31.45 -67.35 L31.5 -67.4 M67.8 -47.2 Q68.8 -46.65 68.4 -46.1 67.95 -45.35 67.3 -46.2 66.55 -47.0 67.8 -47.2 M142.15 -78.5 Q140.8 -79.05 142.05 -80.4 L142.35 -80.7 Q143.55 -80.45 143.35 -79.35 143.05 -78.05 142.15 -78.5 M131.15 -71.8 L130.55 -71.7 131.55 -72.7 131.85 -72.8 133.5 -73.35 133.95 -73.3 Q134.8 -73.0 134.2 -72.7 L132.85 -72.4 Q131.8 -72.2 131.15 -71.8 M152.0 -63.8 Q152.3 -64.2 152.75 -64.4 L153.75 -64.45 Q152.9 -63.8 153.0 -62.9 153.1 -61.55 152.0 -62.4 151.7 -62.3 151.6 -62.6 151.35 -62.8 151.45 -63.15 L151.6 -63.45 152.0 -63.8 M114.05 -91.15 Q115.0 -91.15 114.5 -90.35 114.05 -89.6 113.6 -90.0 112.9 -90.45 113.8 -91.05 L114.05 -91.15 M81.9 -78.05 Q81.0 -77.95 80.65 -78.45 L82.05 -78.65 Q82.6 -78.8 81.95 -79.5 81.6 -79.8 82.05 -80.05 82.1 -80.0 82.15 -80.1 83.15 -79.65 82.95 -78.95 82.65 -78.1 81.9 -78.05 M90.35 -62.4 Q89.85 -62.45 89.9 -62.7 L90.35 -62.9 91.45 -63.05 91.85 -63.1 91.9 -63.05 91.35 -62.65 Q90.85 -62.35 90.35 -62.4 M246.65 -101.5 L247.2 -100.9 247.1 -100.55 Q246.65 -100.45 246.55 -100.75 246.2 -101.35 246.65 -101.5 M308.1 -110.85 L307.9 -109.7 Q307.75 -109.4 307.6 -109.85 307.45 -110.2 307.7 -110.55 L308.1 -110.85 M185.45 -101.2 Q185.65 -100.45 185.0 -100.05 L184.55 -99.85 184.75 -100.75 185.45 -101.2 M181.1 -117.45 Q181.9 -117.2 182.3 -116.5 182.9 -115.05 181.5 -115.8 180.45 -116.1 180.95 -117.2 L181.1 -117.45 M226.5 -130.9 Q227.5 -130.2 226.7 -130.3 225.9 -130.15 225.25 -130.95 225.1 -131.05 225.35 -131.15 L226.5 -130.9 M219.4 -138.2 Q220.25 -137.35 219.65 -136.85 218.85 -136.2 218.65 -136.55 218.2 -137.05 219.1 -138.1 219.15 -138.25 219.4 -138.2 M215.3 -106.85 L215.65 -106.4 216.0 -106.0 216.35 -105.5 216.45 -104.65 Q216.1 -104.3 216.1 -104.5 L215.7 -104.85 Q215.1 -105.5 214.9 -106.35 214.75 -106.8 215.15 -106.85 L215.3 -106.85 M223.15 -92.2 Q221.45 -91.4 220.95 -92.8 L220.85 -93.55 220.9 -93.7 221.0 -93.85 221.2 -94.05 222.2 -93.75 Q222.85 -93.2 222.25 -92.8 L222.15 -92.75 Q222.65 -92.4 223.35 -92.45 L223.15 -92.2 M239.15 -81.5 L239.75 -80.95 Q239.9 -80.5 239.6 -80.0 239.25 -79.6 239.3 -79.2 L239.15 -79.05 Q238.75 -79.2 238.75 -79.55 238.6 -79.95 238.6 -80.5 238.5 -81.2 239.15 -81.5 M204.8 -83.8 L203.7 -83.75 Q203.8 -84.85 204.9 -85.1 205.75 -84.45 204.8 -83.8 M214.3 -59.95 L214.5 -60.6 214.9 -60.95 215.15 -61.0 215.25 -61.0 Q215.3 -60.3 215.75 -60.2 216.8 -60.1 215.65 -59.6 L214.4 -59.25 214.3 -59.95 M175.75 -81.2 L174.65 -81.25 Q174.25 -82.2 175.4 -82.55 L175.95 -82.6 Q176.35 -81.8 175.75 -81.2 M179.35 -56.4 Q177.65 -56.7 178.5 -57.8 178.7 -58.2 179.1 -58.2 L179.15 -58.25 179.65 -58.1 180.15 -57.7 Q180.35 -57.5 180.55 -57.45 L180.75 -57.0 Q180.25 -56.1 179.35 -56.4 M308.1 -85.25 L307.4 -84.4 306.8 -84.3 Q306.45 -84.25 306.25 -84.55 306.7 -84.55 307.1 -84.9 L307.35 -85.4 Q307.35 -85.75 307.7 -86.1 L308.0 -86.3 308.15 -86.3 Q308.65 -85.6 308.1 -85.25 M271.3 -96.3 Q270.9 -95.4 270.05 -95.9 268.25 -96.8 270.2 -97.65 L270.6 -97.95 Q271.75 -97.55 271.3 -96.3 M262.8 -74.5 Q263.05 -74.2 263.7 -74.25 L263.8 -74.05 Q261.65 -72.3 261.5 -74.55 261.35 -75.45 262.15 -75.9 262.5 -76.05 263.05 -76.35 L263.2 -76.4 Q263.75 -75.7 263.05 -75.35 262.25 -74.85 262.8 -74.5 M372.35 -161.75 L373.45 -162.0 373.85 -162.4 374.2 -162.65 374.35 -162.65 Q375.35 -161.75 374.7 -161.0 373.95 -160.25 373.2 -160.3 372.1 -160.2 371.95 -161.7 L372.35 -161.75 M382.75 -156.1 L383.35 -155.15 383.3 -154.8 Q382.9 -154.7 382.7 -155.35 382.55 -155.65 382.75 -156.1 M339.0 -141.55 L338.75 -140.7 Q338.0 -139.8 338.25 -141.45 L338.55 -142.35 339.0 -141.55 M327.95 -102.6 Q327.95 -101.6 328.7 -102.15 328.85 -102.0 329.0 -102.0 L329.0 -101.85 Q328.35 -101.35 327.7 -101.2 L327.7 -101.6 Q327.55 -102.55 326.8 -102.7 326.1 -102.7 325.75 -103.5 325.45 -103.9 325.95 -103.85 L325.95 -104.0 327.45 -103.6 Q327.9 -103.3 327.95 -102.6 M347.65 -109.1 L347.9 -109.7 348.75 -108.85 348.35 -108.4 Q347.3 -107.85 347.65 -109.1 M373.5 -116.9 Q373.05 -115.6 372.35 -116.5 371.6 -117.2 372.6 -118.05 L372.8 -118.25 Q373.95 -118.1 373.5 -116.9 M375.35 -98.7 Q376.8 -98.4 376.45 -97.25 376.15 -95.9 375.05 -96.95 374.0 -97.9 375.35 -98.6 L375.35 -98.7 M338.2 -86.95 Q336.05 -85.9 336.1 -87.6 L336.1 -88.7 Q336.05 -89.3 336.75 -89.65 L336.95 -89.75 336.95 -89.85 Q337.85 -89.75 337.9 -89.0 337.8 -88.25 337.25 -87.85 L337.05 -87.7 Q337.45 -87.15 338.2 -86.95 M-365.7 -125.45 Q-365.35 -126.45 -364.2 -125.65 -363.95 -125.35 -363.7 -125.4 L-363.4 -125.65 Q-363.25 -125.75 -363.25 -126.0 L-362.75 -126.2 Q-362.8 -125.05 -363.45 -124.65 -363.9 -124.05 -364.5 -124.25 -365.05 -124.25 -365.6 -125.0 L-365.7 -125.45 M-389.75 -146.3 Q-389.1 -145.6 -390.25 -146.1 -391.75 -146.7 -391.0 -147.3 -390.9 -147.25 -390.95 -147.35 L-389.75 -146.3 M-376.15 -119.15 Q-376.1 -118.25 -376.65 -119.15 -376.85 -119.6 -376.85 -120.6 L-376.65 -120.65 Q-376.1 -119.8 -376.15 -119.15 M-345.05 -93.9 Q-346.15 -94.55 -345.45 -95.55 L-345.25 -95.65 Q-344.05 -95.75 -344.05 -94.8 -344.05 -93.15 -345.05 -93.9 M-329.25 -82.35 Q-328.85 -81.7 -329.6 -81.45 -329.9 -81.3 -330.0 -81.55 L-329.8 -82.15 -329.25 -82.35 M-372.15 -86.75 Q-371.95 -86.0 -372.35 -85.6 L-372.55 -85.3 -372.85 -85.3 -372.75 -86.4 -372.65 -87.5 -372.55 -88.2 -372.4 -88.35 -372.15 -88.0 Q-372.35 -87.4 -372.15 -86.75 M-220.25 -131.2 Q-218.6 -131.3 -219.35 -130.75 L-220.15 -130.25 Q-220.6 -129.65 -220.4 -131.0 L-220.25 -131.2 M-300.75 -135.0 Q-299.8 -134.9 -299.25 -134.2 -298.75 -133.8 -300.2 -134.35 -301.8 -134.8 -300.75 -135.0 M-294.05 -116.95 Q-292.9 -116.8 -293.3 -115.6 -293.55 -114.35 -294.0 -115.1 -294.3 -115.95 -294.2 -116.8 L-294.05 -116.95 M-248.5 -119.0 Q-247.05 -118.4 -247.55 -116.75 -247.8 -114.75 -248.6 -116.5 -249.15 -117.95 -248.5 -119.0 M-254.85 -97.15 L-255.05 -96.7 Q-254.35 -96.2 -255.65 -95.85 L-256.4 -95.95 -256.5 -96.4 -256.5 -96.75 -256.3 -97.45 -255.7 -98.05 Q-255.6 -98.0 -255.65 -98.15 -254.35 -97.95 -254.85 -97.15 M-262.45 -91.6 L-263.2 -91.85 -263.7 -92.2 -264.05 -92.6 -264.05 -92.8 -263.95 -92.9 -263.75 -92.95 Q-263.65 -92.9 -263.7 -93.05 L-262.85 -92.5 -262.25 -91.7 Q-262.15 -91.55 -262.45 -91.6 M-258.05 -72.3 L-257.6 -72.4 -257.5 -71.7 -257.5 -71.0 -257.6 -70.3 Q-257.6 -69.95 -257.75 -69.75 L-257.95 -70.3 -258.1 -71.35 -258.05 -72.3 M-297.85 -90.5 Q-297.85 -91.1 -297.25 -91.05 L-297.15 -91.05 Q-296.55 -90.45 -297.1 -90.05 -297.45 -89.5 -297.2 -89.1 -296.7 -88.4 -297.35 -88.3 L-298.05 -88.35 -298.05 -89.05 -297.95 -89.75 -297.85 -90.5 M-305.1 -74.75 Q-305.25 -73.8 -304.8 -73.2 L-305.05 -73.15 Q-305.6 -73.5 -305.7 -74.2 -305.6 -74.95 -306.05 -75.5 -306.35 -75.95 -306.05 -76.75 L-305.8 -77.0 Q-304.9 -76.9 -304.95 -76.15 -304.85 -75.35 -305.1 -74.75 M-310.9 -94.05 L-311.2 -93.75 Q-311.8 -93.65 -312.0 -93.95 -312.1 -94.25 -311.8 -94.55 -310.75 -94.7 -310.9 -94.05 M-287.3 -68.45 Q-286.9 -67.8 -288.05 -68.3 -288.95 -68.7 -288.45 -69.5 -288.25 -69.55 -288.2 -69.6 L-287.3 -68.45 M-299.0 -64.15 Q-298.3 -63.75 -298.55 -63.1 L-298.45 -62.5 -297.6 -61.8 -297.85 -61.75 -298.9 -62.35 -299.1 -62.85 -299.1 -63.25 -299.4 -63.55 -299.85 -63.9 -300.05 -64.25 -300.0 -64.55 -299.8 -64.7 -299.0 -64.15 M-190.1 -97.55 Q-190.0 -97.5 -190.05 -97.65 -188.45 -97.0 -189.45 -95.7 -190.25 -94.2 -190.6 -95.65 -190.95 -96.8 -190.1 -97.55 M-193.1 -80.75 L-192.55 -80.5 -192.05 -79.9 -192.05 -79.4 -192.25 -78.75 -192.65 -78.8 -192.9 -79.35 Q-192.8 -79.65 -193.05 -79.95 L-193.2 -80.6 -193.15 -80.7 Q-193.05 -80.65 -193.1 -80.75 M-192.05 -56.95 L-191.65 -56.05 Q-191.45 -55.65 -191.6 -55.4 -191.6 -54.75 -191.2 -54.5 L-191.1 -54.25 Q-192.05 -53.4 -192.55 -53.7 -194.45 -54.55 -193.3 -56.35 -192.8 -56.85 -192.05 -56.95 M-204.3 -97.5 L-204.6 -96.9 Q-204.7 -96.65 -205.0 -96.75 -205.5 -96.9 -206.0 -97.2 L-205.45 -97.9 -205.05 -98.4 -204.5 -98.55 -204.1 -98.65 Q-204.05 -98.6 -204.0 -98.7 L-204.3 -97.5 M-221.15 -82.05 Q-220.15 -81.95 -220.75 -81.45 -221.1 -81.05 -221.4 -81.25 -221.7 -81.55 -221.2 -82.0 -221.1 -81.95 -221.15 -82.05 M-217.3 -59.55 L-216.55 -60.25 -216.2 -60.35 -216.1 -60.35 Q-215.35 -59.9 -215.15 -59.4 -214.9 -58.9 -215.65 -58.6 L-216.95 -58.4 -217.2 -58.55 -217.45 -59.25 -217.3 -59.55 M-69.3 -101.2 L-68.05 -101.05 -66.7 -100.7 -66.55 -100.55 Q-66.6 -100.3 -66.8 -100.4 -67.95 -100.5 -68.65 -99.75 -68.95 -99.4 -69.45 -99.25 -70.65 -98.7 -70.05 -100.15 L-69.3 -101.2 M-118.65 -97.0 L-118.25 -97.2 Q-117.55 -96.4 -118.4 -96.2 -119.0 -95.85 -119.0 -96.05 -119.15 -96.45 -118.65 -97.0 M-116.15 -82.85 L-116.15 -82.8 Q-116.2 -81.7 -116.8 -82.35 -117.4 -83.1 -117.0 -83.4 -117.2 -83.65 -116.75 -83.7 L-116.35 -83.35 -116.1 -83.05 -116.1 -82.95 -116.1 -82.85 -116.15 -82.85 M-118.15 -51.35 Q-116.65 -51.35 -117.5 -50.9 L-118.65 -50.15 Q-119.7 -49.65 -118.75 -50.95 L-118.15 -51.35 M-157.4 -90.2 Q-156.05 -89.7 -156.5 -88.95 -156.65 -88.45 -157.75 -89.35 -158.2 -89.8 -157.4 -90.2 M-145.5 -74.75 Q-144.6 -74.65 -145.1 -74.1 -145.2 -73.8 -145.45 -73.9 -145.9 -74.3 -145.55 -74.65 L-145.5 -74.75 M-142.45 -67.1 L-142.15 -67.4 -141.8 -67.7 Q-141.5 -67.75 -141.35 -67.95 -141.25 -67.9 -141.3 -68.0 L-141.1 -68.05 Q-141.0 -68.0 -141.05 -68.1 -140.05 -68.05 -140.6 -67.4 L-141.1 -66.65 Q-141.55 -66.0 -142.2 -66.75 L-142.45 -67.1 M-12.7 -89.8 L-13.75 -89.75 Q-14.85 -89.65 -14.55 -91.1 -14.5 -91.45 -14.05 -91.4 -14.0 -90.0 -12.7 -89.8 M-6.65 -67.05 Q-7.3 -67.0 -8.1 -67.5 -8.2 -67.45 -8.3 -67.75 L-8.2 -68.0 -7.6 -68.55 -6.4 -69.0 -6.3 -69.0 Q-5.25 -68.6 -5.55 -67.8 -5.7 -67.05 -6.65 -67.05 M-5.0 -60.05 L-4.9 -60.05 -5.1 -59.85 Q-5.35 -59.5 -5.75 -59.55 L-5.85 -59.65 Q-5.45 -60.05 -5.0 -60.05 M-73.4 -70.75 Q-71.95 -70.85 -72.05 -69.95 -72.05 -69.45 -72.45 -69.35 -73.9 -68.9 -73.9 -70.0 -73.85 -70.5 -73.4 -70.75 M-72.3 -55.85 L-71.9 -56.4 Q-71.65 -56.45 -71.55 -56.65 L-70.55 -56.35 Q-69.95 -56.0 -70.35 -55.65 L-70.85 -54.7 Q-70.9 -54.45 -71.1 -54.35 L-71.5 -54.15 -72.8 -54.2 -73.0 -54.4 -72.9 -54.7 -72.6 -55.35 -72.3 -55.85 M-41.75 -57.1 Q-42.4 -55.6 -42.8 -57.05 -42.95 -58.25 -41.9 -58.45 -41.25 -57.8 -41.75 -57.1 M-12.7 -48.75 Q-14.15 -49.3 -12.6 -50.25 -11.0 -49.85 -11.15 -48.6 -11.05 -48.1 -12.7 -48.75" fill="#ffd066" fill-rule="evenodd" stroke="none"/>
  </g>
</svg>
