<?xml version="1.0" encoding="UTF-8" standalone="no"?>
<svg xmlns:xlink="http://www.w3.org/1999/xlink" height="200.0px" width="127.5px" xmlns="http://www.w3.org/2000/svg">
  <g transform="matrix(1.0, 0.0, 0.0, 1.0, -2.05, -18.0)">
    <path d="M83.85 80.2 Q85.8 81.3 87.15 82.55 L88.7 83.85 Q94.45 103.65 109.55 117.8 L102.0 163.55 102.9 163.65 112.45 133.45 Q113.2 131.0 115.8 131.05 117.65 137.7 117.6 144.1 L117.55 144.1 117.15 144.05 117.4 148.0 Q116.5 157.1 111.65 165.65 107.15 173.55 98.05 174.3 94.0 172.25 89.9 171.05 L89.5 170.95 89.35 170.9 Q86.05 169.85 83.0 169.6 L76.3 169.35 71.4 169.15 71.05 169.8 71.05 169.9 Q68.45 170.3 65.85 171.0 53.5 162.0 43.6 150.2 42.7 149.2 42.75 147.9 43.2 137.0 42.25 126.25 L42.4 123.8 41.95 123.05 Q40.45 109.15 36.65 95.5 L31.45 112.05 Q27.05 112.8 22.8 114.1 L16.15 113.9 14.95 114.55 10.1 113.55 9.5 112.7 Q12.15 101.05 17.15 90.3 L21.55 82.0 Q27.45 73.25 38.6 73.95 L37.65 91.7 44.2 70.2 46.15 69.75 47.1 71.2 Q49.2 71.6 50.8 72.6 L51.15 72.85 53.35 74.9 Q54.7 76.1 55.2 76.35 L55.2 76.3 55.25 76.3 55.75 76.3 56.1 74.35 Q60.8 73.15 65.8 73.45 L67.75 73.65 67.75 73.7 68.95 73.9 70.9 74.45 Q73.5 75.15 78.9 77.85 L79.1 77.95 79.5 78.0 Q80.25 78.55 80.9 78.8 L83.85 80.2 M92.9 78.45 L102.0 72.85 Q108.95 73.05 113.9 78.95 124.75 91.9 127.9 108.95 129.25 116.45 129.45 124.15 102.25 108.45 92.9 78.45 M96.9 91.25 Q107.4 114.5 129.55 125.55 L129.45 126.55 128.65 126.9 Q119.95 124.45 112.85 118.0 L113.15 119.1 Q104.95 111.1 98.2 101.75 90.85 91.5 91.9 79.35 L96.9 91.25 M65.7 22.95 L65.6 26.05 Q64.5 26.45 63.95 27.4 60.1 33.8 60.2 42.05 60.25 45.9 56.5 46.0 57.4 47.0 58.75 47.0 60.9 46.85 62.8 45.95 66.85 49.75 68.3 54.95 L67.0 56.75 69.25 59.3 68.55 62.45 Q62.3 65.35 55.85 63.05 48.55 51.1 46.6 37.15 L48.6 39.05 45.65 31.05 46.1 30.2 46.85 30.55 47.9 29.15 Q50.15 28.8 51.9 30.15 53.5 31.45 54.2 30.4 L53.95 30.1 Q51.4 27.65 47.55 26.95 L46.1 22.55 51.45 27.65 51.85 27.1 Q49.25 23.1 50.6 18.45 L56.85 18.0 58.15 19.4 Q62.2 24.5 58.5 30.2 L59.9 30.35 59.3 29.2 64.8 22.4 65.7 22.95 M44.95 27.35 L44.6 23.7 46.65 27.0 44.95 27.35 M66.85 27.95 L69.6 27.55 66.35 28.65 64.9 29.15 65.7 28.55 66.35 28.65 66.85 27.95 M64.4 36.25 L64.45 36.25 64.45 36.3 64.4 36.25 M70.2 37.95 L72.05 38.15 70.0 41.4 66.7 38.65 70.2 37.95 M70.95 61.1 L71.0 61.05 71.0 61.1 70.95 61.1 M63.15 54.75 L61.85 54.4 60.55 54.3 59.35 54.35 59.35 54.65 61.9 55.1 63.15 54.75 M53.2 58.85 Q53.65 58.95 53.25 59.2 L53.2 58.85 M53.25 121.1 Q47.75 120.75 46.35 122.55 L54.35 122.0 59.35 122.95 66.15 124.55 68.95 126.0 Q71.05 127.15 72.65 127.15 L73.1 127.05 69.45 124.45 Q67.05 123.15 63.65 122.55 56.0 121.25 53.25 121.1 M30.0 118.45 Q34.2 119.15 37.25 122.2 L36.95 127.3 36.9 129.1 Q35.55 138.3 29.7 146.1 25.7 151.4 19.0 150.2 L20.5 129.15 20.75 127.0 22.15 117.45 30.0 118.45 M35.8 167.95 L36.6 166.9 Q44.05 170.85 41.9 180.05 L40.4 180.0 Q38.4 176.3 40.1 172.0 37.05 171.15 35.8 167.95 M9.65 114.15 L9.65 114.05 9.65 114.0 9.85 114.2 9.65 114.15 M26.4 150.95 L26.45 150.9 26.45 150.95 26.4 150.95 M32.35 169.75 L32.65 168.85 Q40.2 172.15 37.8 180.3 L36.55 180.05 36.1 173.7 35.65 173.5 Q33.25 172.25 32.35 169.75 M19.8 164.35 Q30.45 183.55 27.7 204.5 27.3 207.45 24.6 208.95 L21.95 210.15 15.95 210.95 15.55 210.25 14.9 209.1 13.65 206.75 Q4.0 188.15 2.1 166.8 1.7 162.5 4.65 159.05 15.0 154.2 19.8 164.5 L19.8 164.35 M42.0 166.15 L42.85 166.6 Q47.9 170.75 46.45 177.45 L44.9 177.35 Q43.8 174.25 45.0 170.75 40.35 169.7 42.0 166.15 M78.35 182.8 Q79.25 186.3 78.6 189.55 77.7 192.15 75.8 195.05 73.7 198.2 71.05 200.65 L69.7 201.85 69.35 202.15 67.05 203.8 Q65.3 204.95 60.75 207.25 55.75 209.8 54.1 210.8 L45.5 215.65 Q41.05 217.65 36.55 218.0 L33.3 217.55 Q35.2 212.4 37.05 208.45 L36.75 208.5 Q44.75 190.95 61.55 179.95 66.3 176.9 71.8 177.55 76.4 178.4 78.35 182.8 M99.9 139.0 L99.9 139.55 99.95 139.0 99.9 139.0" fill="url(#gradient0)" fill-rule="evenodd" stroke="none"/>
    <path d="M99.9 139.0 L99.95 139.0 99.9 139.55 99.9 139.0" fill="#000000" fill-rule="evenodd" stroke="none"/>
  </g>
  <defs>
    <linearGradient gradientTransform="matrix(0.0232, -0.1045, 0.1268, 0.0281, 59.5, 111.6)" gradientUnits="userSpaceOnUse" id="gradient0" spreadMethod="pad" x1="-819.2" x2="819.2">
      <stop offset="0.0" stop-color="#dddd00"/>
      <stop offset="1.0" stop-color="#8e4702"/>
    </linearGradient>
  </defs>
</svg>
