<?xml version="1.0" encoding="UTF-8" standalone="no"?>
<svg xmlns:xlink="http://www.w3.org/1999/xlink" height="199.45px" width="127.5px" xmlns="http://www.w3.org/2000/svg">
  <g transform="matrix(1.0, 0.0, 0.0, 1.0, -2.05, -18.0)">
    <path d="M102.35 72.9 L102.65 73.05 Q103.85 73.7 105.2 74.15 L107.65 75.2 Q109.6 76.2 110.25 76.95 L115.35 83.4 Q117.2 85.85 119.1 90.0 L120.95 93.25 123.0 96.6 Q124.65 99.85 125.7 103.2 L126.3 105.1 126.65 107.0 126.85 109.25 126.75 109.65 Q126.55 112.65 127.4 116.25 127.8 117.75 127.85 120.85 L125.4 119.55 Q123.15 118.5 120.2 116.1 L115.85 112.65 Q111.65 109.75 108.5 105.65 L103.35 98.55 Q101.0 95.6 98.95 91.5 97.85 89.35 95.7 84.35 95.0 82.85 94.45 80.7 L93.8 77.9 102.0 72.85 102.35 72.9 M96.9 91.25 Q107.4 114.5 129.55 125.55 L129.45 126.55 128.65 126.9 Q119.95 124.45 112.85 118.0 L113.15 119.1 Q104.95 111.1 98.2 101.75 90.85 91.5 91.9 79.35 L96.9 91.25 M51.3 23.55 L51.15 20.45 Q51.15 19.45 51.4 18.4 L56.85 18.0 58.15 19.4 Q62.2 24.5 58.5 30.2 L59.9 30.35 59.3 29.2 64.65 22.6 Q64.65 24.3 64.45 24.8 L62.85 27.95 Q61.75 29.9 60.65 33.9 L59.25 39.75 58.65 42.75 58.25 44.1 57.3 45.0 Q56.75 45.3 56.75 45.65 L56.8 46.0 56.5 46.0 Q57.4 47.0 58.75 47.0 L61.5 46.5 62.55 47.85 64.5 50.4 66.0 52.95 66.4 54.3 Q66.85 55.4 67.85 55.4 L67.9 55.4 Q67.2 56.15 67.0 56.75 L66.9 57.35 67.45 58.8 Q68.0 59.95 68.0 61.0 L67.55 62.9 Q61.8 65.15 55.85 63.05 48.55 51.1 46.6 37.15 L48.6 39.05 45.65 31.05 46.1 30.2 46.85 30.55 47.9 29.15 Q50.15 28.8 51.9 30.15 53.5 31.45 54.2 30.4 L53.95 30.1 Q51.4 27.65 47.55 26.95 L46.1 22.55 51.45 27.65 51.8 27.2 Q52.05 27.2 52.3 27.0 L52.5 26.55 51.95 25.1 Q51.35 24.0 51.3 23.55 M112.75 77.65 L114.15 79.45 114.0 79.25 112.75 77.65 M83.85 80.2 Q85.8 81.3 87.15 82.55 L88.7 83.85 Q94.45 103.65 109.55 117.8 L102.0 163.55 102.9 163.65 102.95 163.5 103.05 163.5 Q103.65 163.5 103.9 162.65 L104.1 161.55 107.25 155.4 110.7 147.0 113.25 138.75 114.7 134.7 115.7 131.2 115.85 131.55 116.0 133.35 116.4 135.1 116.7 136.8 117.0 140.35 117.2 143.85 117.2 144.05 117.15 144.05 117.2 144.6 Q117.1 147.95 116.1 153.05 115.6 155.4 114.3 159.0 L113.1 162.45 113.2 162.75 111.65 165.65 Q107.15 173.55 98.05 174.3 94.0 172.25 89.9 171.05 L89.5 170.95 89.35 170.9 Q86.05 169.85 83.0 169.6 L76.3 169.35 71.4 169.15 71.05 169.8 71.05 169.9 Q68.45 170.3 65.85 171.0 53.5 162.0 43.6 150.2 42.7 149.2 42.75 147.9 43.2 137.0 42.25 126.25 L42.4 123.8 41.95 123.05 Q40.65 110.75 37.5 98.65 L37.55 98.45 37.25 97.65 36.65 95.5 35.45 99.3 34.65 101.1 33.7 103.3 32.4 105.65 29.7 109.85 28.2 112.7 22.8 114.1 16.15 113.9 14.95 114.55 10.1 113.55 9.5 112.7 Q12.15 101.05 17.15 90.3 L21.55 82.0 Q27.05 73.85 37.05 73.9 L37.05 75.45 37.2 79.8 37.05 84.95 Q37.05 87.9 37.85 88.3 L37.65 91.7 44.2 70.2 46.15 69.75 47.1 71.2 Q49.2 71.6 50.8 72.6 L51.15 72.85 53.35 74.9 Q54.7 76.1 55.2 76.35 L55.2 76.3 55.25 76.3 55.75 76.3 56.1 74.35 Q60.8 73.15 65.8 73.45 L67.75 73.65 67.75 73.7 68.95 73.9 70.9 74.45 Q73.5 75.15 78.9 77.85 L79.1 77.95 79.5 78.0 Q80.25 78.55 80.9 78.8 L83.85 80.2 M44.95 27.35 L44.6 23.7 46.65 27.0 44.95 27.35 M64.45 36.25 L64.45 36.3 64.4 36.25 64.45 36.25 M38.5 73.95 L38.6 73.95 38.55 75.35 38.5 73.95 M70.35 40.85 L69.45 39.9 68.05 38.4 70.2 37.95 72.05 38.15 70.35 40.85 M71.0 61.05 L71.0 61.1 70.95 61.1 71.0 61.05 M61.9 55.1 L63.15 54.75 61.85 54.4 60.55 54.3 59.35 54.35 59.35 54.65 61.9 55.1 M69.15 59.8 L68.9 58.9 69.25 59.3 69.15 59.8 M53.25 59.2 L53.2 58.85 Q53.65 58.95 53.25 59.2 M53.25 121.1 Q47.75 120.75 46.35 122.55 L54.35 122.0 59.35 122.95 66.15 124.55 68.95 126.0 Q71.05 127.15 72.65 127.15 L73.1 127.05 69.45 124.45 Q67.05 123.15 63.65 122.55 56.0 121.25 53.25 121.1 M30.0 118.45 Q34.0 119.1 36.95 121.9 L36.9 122.4 35.7 132.0 34.8 136.8 34.5 137.75 33.0 140.95 32.55 141.6 31.05 144.1 Q30.1 145.6 28.5 146.3 L27.75 146.85 27.2 147.45 25.35 148.4 24.25 148.85 22.8 149.25 19.05 149.6 20.5 129.15 20.75 127.0 22.15 117.45 30.0 118.45 M9.65 114.15 L9.65 114.05 9.65 114.0 9.85 114.2 9.65 114.15 M26.45 150.9 L26.45 150.95 26.4 150.95 26.45 150.9 M128.85 115.75 L128.9 115.8 129.0 116.9 128.85 115.75 M77.2 182.15 Q78.35 183.55 78.75 184.75 L78.9 186.3 78.45 188.05 77.7 190.35 76.35 192.65 74.75 195.05 Q73.55 197.55 71.25 199.85 68.7 202.35 65.55 203.85 62.95 205.05 58.5 207.6 L52.35 211.25 45.0 215.6 42.95 216.55 40.2 217.05 37.1 217.35 34.5 217.3 33.75 217.25 33.35 217.45 Q35.2 212.35 37.05 208.45 L36.75 208.5 Q44.75 190.95 61.55 179.95 66.3 176.9 71.8 177.55 73.9 177.95 75.5 179.1 75.65 180.3 77.2 182.15 M42.0 166.15 L42.85 166.6 Q47.9 170.75 46.45 177.45 L45.55 177.4 45.45 176.3 Q45.05 174.7 45.05 172.2 L44.85 171.2 45.0 170.75 44.6 170.65 44.2 170.1 42.5 168.15 41.85 166.5 42.0 166.15 M39.65 173.5 L39.65 173.55 39.6 173.55 39.65 173.5 M14.9 158.6 Q18.25 162.8 19.35 164.9 20.45 167.0 21.6 170.85 L23.55 177.0 Q25.25 181.7 26.4 188.85 L26.95 194.35 27.3 200.95 27.35 203.35 26.6 206.1 Q25.95 208.15 24.2 208.65 L22.95 209.1 21.95 209.4 17.45 210.1 Q16.85 210.15 16.85 210.6 L16.95 210.95 15.95 210.95 15.55 210.25 14.9 209.1 13.65 206.75 Q4.0 188.15 2.1 166.8 1.7 162.5 4.65 159.05 10.75 156.2 14.9 158.6 M32.65 168.95 L32.65 168.85 Q40.2 172.15 37.8 180.3 L37.35 180.2 37.15 178.4 36.75 174.2 Q36.7 173.5 35.7 173.05 L34.35 172.2 33.0 170.0 32.65 168.95 M36.15 167.55 L36.6 166.9 Q44.05 170.85 41.9 180.05 L41.2 180.05 40.95 177.7 41.1 172.8 Q41.05 172.35 40.0 171.75 L38.85 171.15 36.3 167.85 36.15 167.55 M99.9 139.0 L99.9 139.55 99.95 139.0 99.9 139.0 M106.65 153.2 L106.35 153.8 106.35 153.75 106.65 153.2 M107.0 152.1 L107.0 152.35 106.8 152.7 107.0 152.1 M107.7 150.75 L107.85 150.75 107.25 151.8 107.45 151.2 107.7 150.75" fill="url(#gradient0)" fill-rule="evenodd" stroke="none"/>
    <path d="M99.9 139.0 L99.95 139.0 99.9 139.55 99.9 139.0" fill="#000000" fill-rule="evenodd" stroke="none"/>
  </g>
  <defs>
    <linearGradient gradientTransform="matrix(0.0232, -0.1045, 0.1268, 0.0281, 59.5, 111.6)" gradientUnits="userSpaceOnUse" id="gradient0" spreadMethod="pad" x1="-819.2" x2="819.2">
      <stop offset="0.0" stop-color="#dddd00"/>
      <stop offset="1.0" stop-color="#8e4702"/>
    </linearGradient>
  </defs>
</svg>
