<?xml version="1.0" encoding="UTF-8" standalone="no"?>
<svg xmlns:xlink="http://www.w3.org/1999/xlink" height="310.3px" width="522.45px" xmlns="http://www.w3.org/2000/svg">
  <g transform="matrix(1.0, 0.0, 0.0, 1.0, 0.0, 0.0)">
    <path d="M498.4 82.9 L502.6 82.8 502.65 95.7 506.9 95.6 503.7 113.5 500.35 113.75 500.55 112.25 500.55 111.9 493.1 112.05 493.55 113.9 455.8 114.9 455.65 114.7 455.7 133.15 430.45 133.0 430.45 146.25 522.45 144.95 502.0 163.45 452.35 169.95 450.3 165.0 442.35 165.0 440.2 170.05 430.35 170.15 430.35 178.4 415.7 175.5 404.4 158.15 381.05 158.2 372.35 167.5 361.2 165.15 357.6 156.9 356.3 156.5 352.45 155.8 Q343.5 156.9 334.9 160.05 330.2 161.75 325.25 162.7 317.7 163.85 310.25 165.45 L309.55 186.6 300.7 187.75 298.4 167.3 Q290.6 168.0 282.9 167.3 L282.1 165.65 281.8 164.75 281.65 163.7 281.65 162.75 277.05 162.95 272.65 162.4 Q244.35 164.4 216.45 159.75 L216.1 160.5 210.6 160.35 Q207.85 160.55 205.2 161.25 186.25 165.05 168.0 171.55 165.6 185.7 159.7 198.7 L159.25 197.75 156.4 198.45 Q156.15 203.1 154.75 207.25 151.9 215.65 149.65 223.95 146.8 234.55 141.0 243.8 L134.4 243.6 134.15 248.5 Q150.85 250.6 167.5 247.8 L169.4 245.85 Q171.4 244.0 173.9 243.55 190.25 243.3 206.0 247.9 214.25 245.2 222.15 248.7 225.6 250.3 228.15 252.9 236.8 261.85 236.35 274.55 237.9 275.3 239.4 276.2 241.55 277.45 242.85 279.6 247.65 287.55 245.3 296.5 L245.1 297.85 244.9 298.1 243.85 298.35 243.6 298.35 245.1 303.8 239.7 297.85 Q236.95 301.35 232.45 301.5 222.45 302.3 212.5 304.15 176.85 310.95 140.45 310.25 96.8 309.4 53.2 305.85 L43.7 306.45 35.85 306.15 Q22.2 305.95 8.7 302.9 7.85 302.6 7.45 301.95 L5.7 298.8 Q2.8 293.6 3.15 288.3 -0.55 277.35 0.1 265.65 0.35 261.05 1.65 256.8 6.3 241.4 15.75 228.1 L15.05 226.3 Q14.55 225.0 15.1 223.7 17.75 217.85 21.75 212.65 L18.75 209.95 24.0 199.3 Q33.45 178.4 45.7 159.15 L42.5 156.35 42.05 156.9 42.4 155.85 42.25 155.3 44.45 149.35 Q56.3 115.85 85.4 95.9 104.35 82.95 127.05 80.1 L127.4 79.3 127.4 80.05 Q131.35 79.45 135.05 77.55 L139.1 75.1 138.7 71.3 Q138.7 68.75 140.15 62.3 L139.9 53.35 139.95 51.3 139.85 48.85 Q139.85 39.8 153.85 22.8 L159.25 16.0 Q162.75 12.0 166.15 9.8 172.25 5.9 177.85 3.55 183.85 1.0 187.2 1.3 191.3 0.45 195.25 2.35 204.55 -1.7 214.35 1.2 216.05 1.75 217.5 2.7 226.0 8.25 233.9 14.8 235.9 16.65 236.75 19.25 237.9 22.8 236.85 26.4 241.25 30.4 241.2 36.3 241.2 38.6 241.8 40.75 243.4 46.85 242.75 53.2 L242.3 55.15 242.1 57.55 242.6 58.95 Q243.1 60.2 243.1 61.2 L242.5 64.7 242.7 66.7 Q242.7 68.05 241.65 68.05 240.55 68.05 240.1 67.4 239.75 66.9 239.75 65.7 L240.2 63.4 240.6 61.55 239.65 59.1 Q238.7 56.85 238.7 56.2 L238.9 54.9 238.95 53.85 238.7 52.9 238.35 52.15 238.3 52.05 238.1 53.15 Q238.1 54.35 238.9 58.45 L238.6 63.55 238.55 63.65 238.2 63.7 Q236.4 63.7 236.35 61.55 L236.75 58.55 Q236.95 57.6 236.55 55.95 L236.25 54.3 Q235.6 57.7 235.05 61.65 233.95 69.45 229.4 76.4 231.5 85.55 227.6 92.65 225.7 96.1 221.1 94.65 L219.8 99.0 214.55 100.05 Q215.5 101.15 215.05 102.45 214.65 103.6 213.55 104.55 L212.15 105.7 219.6 109.85 Q229.35 115.3 240.3 116.45 L249.35 117.3 250.25 111.8 271.0 102.0 290.2 105.85 301.25 105.6 308.55 89.7 382.6 88.7 391.7 104.45 393.2 104.3 409.75 93.9 438.1 97.35 449.45 97.1 445.7 97.35 449.45 97.4 449.65 97.25 455.2 97.25 455.2 96.9 471.95 96.45 471.6 97.8 479.75 97.35 479.45 96.3 492.0 95.95 498.4 82.9 M384.75 104.45 L378.5 95.5 313.95 96.45 309.7 105.5 383.55 104.6 384.75 104.45 M216.75 20.55 Q225.8 21.55 227.55 22.25 228.4 22.6 228.45 23.1 L228.4 24.3 233.1 26.95 Q234.95 28.05 235.0 28.65 L234.45 29.95 Q236.3 31.3 237.8 33.55 L238.9 35.5 239.1 35.45 239.25 35.6 238.65 33.3 238.6 33.25 237.05 30.05 235.9 27.8 Q235.25 26.15 235.5 24.1 235.75 22.2 234.85 20.65 230.05 12.1 221.4 7.3 L221.3 8.0 220.2 7.05 Q217.9 4.35 214.9 3.0 209.85 4.8 205.5 1.9 201.5 2.25 197.75 3.8 195.35 4.65 193.0 3.45 189.85 1.65 187.3 3.65 186.9 2.55 183.9 3.05 L183.3 3.55 180.1 4.2 Q178.25 4.75 176.85 5.55 L174.35 6.95 173.8 7.3 Q173.45 7.4 173.25 7.55 L173.25 7.6 169.15 9.9 Q165.4 12.05 164.25 13.1 161.55 15.7 158.35 19.7 L156.3 22.3 157.8 21.2 156.25 22.85 153.1 26.35 151.2 28.8 150.15 29.95 Q148.55 31.65 147.6 33.2 L145.8 36.65 144.1 39.95 Q142.35 42.8 141.55 46.6 L141.3 48.1 141.45 47.95 Q141.2 50.0 141.35 52.1 L141.6 61.65 141.05 65.45 140.85 66.6 140.2 70.5 141.5 66.85 141.9 65.65 146.4 53.4 146.55 53.0 147.65 48.55 Q147.8 47.9 148.55 47.4 149.35 46.9 149.6 47.95 L149.85 50.6 149.95 51.9 151.15 49.15 Q156.0 39.75 157.7 35.45 159.35 36.15 159.3 38.15 L158.7 41.6 158.7 41.85 158.8 41.7 Q160.95 38.1 165.0 30.1 169.15 22.6 173.7 17.7 L174.3 17.8 174.45 18.6 174.1 20.25 173.45 21.8 173.6 21.95 174.8 20.85 178.45 17.45 Q181.7 14.7 184.0 14.3 L184.25 14.25 Q184.5 14.3 184.5 15.1 L184.1 17.25 183.5 19.55 183.5 19.8 Q184.4 19.85 188.7 17.75 193.05 15.7 194.25 15.7 L198.5 16.05 198.75 16.1 Q199.0 16.1 199.0 16.85 199.0 17.6 198.55 18.05 L198.0 18.55 198.0 18.95 203.75 18.25 208.75 17.7 216.6 17.8 216.85 17.75 Q217.1 17.8 217.1 18.6 L216.8 19.7 216.1 20.45 216.75 20.55 M163.55 114.15 L168.95 110.0 Q172.9 107.3 177.2 105.95 L178.1 105.95 Q178.35 106.05 178.35 106.85 L175.95 111.95 172.45 118.45 172.6 118.6 Q178.35 113.45 180.75 112.15 183.3 110.8 187.25 110.8 191.8 110.8 196.95 112.5 L204.0 114.95 Q209.1 116.25 210.6 117.4 211.65 118.25 211.65 120.2 211.65 122.0 210.15 126.6 L210.25 126.7 213.15 123.8 213.2 123.65 Q214.65 121.1 216.4 119.75 L216.35 120.45 216.35 120.5 219.5 120.35 223.1 122.05 Q228.9 125.5 232.2 126.7 236.1 128.3 240.45 131.35 L244.1 134.3 Q243.05 132.55 242.85 130.3 L241.45 127.8 238.9 124.8 Q234.1 120.5 228.45 117.5 220.55 113.3 212.55 109.7 L211.55 108.55 Q209.9 107.25 206.6 107.1 L199.55 103.3 199.15 102.8 Q198.65 102.35 196.55 101.8 L190.7 99.15 190.55 99.05 Q189.15 98.2 188.1 98.1 180.45 95.05 172.4 93.05 L165.45 97.55 165.55 97.8 164.15 98.45 164.1 98.4 163.95 98.5 164.0 98.5 Q162.2 99.5 161.4 100.85 159.9 102.25 158.1 103.35 L157.25 103.9 Q152.5 109.7 146.7 118.1 L146.7 118.35 146.85 118.25 Q154.85 110.9 159.2 107.25 166.9 100.7 172.45 97.15 L172.65 97.05 Q172.85 97.1 172.85 97.9 L171.0 101.0 167.7 106.2 165.7 110.1 163.45 114.05 163.35 114.3 163.55 114.15 M125.45 82.95 Q112.3 86.5 99.35 90.8 95.8 91.95 92.45 94.0 84.2 99.15 77.15 105.75 70.15 112.3 63.75 119.3 59.4 124.05 56.7 129.65 L48.9 146.3 Q51.15 142.3 54.55 137.8 L70.6 118.35 Q73.45 114.65 82.1 108.9 L93.6 101.45 Q94.9 100.55 106.75 95.05 110.25 93.35 122.85 91.25 L139.65 88.9 Q148.1 87.25 157.45 91.7 160.9 93.4 163.35 95.4 L163.8 95.75 165.25 94.8 Q149.7 83.2 130.2 82.95 L126.35 83.3 126.45 83.5 126.45 83.6 126.15 83.65 125.65 83.65 126.0 82.8 125.45 82.95 M204.05 252.15 L204.05 251.9 Q204.05 251.55 203.15 251.3 201.7 250.85 200.6 250.2 L198.55 249.75 Q195.4 247.85 191.6 247.3 L185.75 246.1 174.25 246.45 Q173.9 245.9 172.55 246.75 L171.5 247.5 170.9 247.75 171.2 247.75 170.0 248.95 169.1 250.55 169.05 250.55 165.9 256.5 Q171.4 253.65 177.7 254.15 183.3 253.15 191.9 257.85 197.3 260.85 199.25 263.35 201.7 257.8 204.55 252.4 L204.65 252.2 204.05 252.15 M210.1 249.5 L209.8 249.5 Q208.45 249.5 207.5 250.6 L206.5 251.85 206.3 253.0 206.3 253.25 204.35 258.85 207.35 259.15 Q212.25 260.1 219.1 263.2 226.1 266.4 230.8 269.95 L233.8 272.5 Q233.05 261.25 224.4 253.65 218.1 248.1 210.1 249.5" fill="url(#gradient0)" fill-rule="evenodd" stroke="none"/>
    <path d="M238.6 33.25 L238.65 33.3 237.8 33.55 238.6 33.25" fill="url(#gradient1)" fill-rule="evenodd" stroke="none"/>
    <path d="M237.8 33.55 Q236.3 31.3 234.45 29.95 L235.0 28.65 Q234.95 28.05 233.1 26.95 L228.4 24.3 228.45 23.1 Q228.4 22.6 227.55 22.25 225.8 21.55 216.75 20.55 L216.8 19.7 217.1 18.6 Q217.1 17.8 216.85 17.75 L216.6 17.8 208.75 17.7 203.75 18.25 198.0 18.95 198.0 18.55 198.55 18.05 Q199.0 17.6 199.0 16.85 199.0 16.1 198.75 16.1 L198.5 16.05 194.25 15.7 Q193.05 15.7 188.7 17.75 184.4 19.85 183.5 19.8 L183.5 19.55 184.1 17.25 184.5 15.1 Q184.5 14.3 184.25 14.25 L184.0 14.3 Q181.7 14.7 178.45 17.45 L174.8 20.85 174.1 20.25 174.45 18.6 174.3 17.8 173.7 17.7 Q169.15 22.6 165.0 30.1 160.95 38.1 158.8 41.7 L158.7 41.6 159.3 38.15 Q159.35 36.15 157.7 35.45 156.0 39.75 151.15 49.15 L149.95 51.9 149.85 50.6 149.6 47.95 Q149.35 46.9 148.55 47.4 147.8 47.9 147.65 48.55 L146.55 53.0 146.4 53.4 141.9 65.65 141.05 65.45 141.6 61.65 141.35 52.1 Q141.2 50.0 141.45 47.95 L141.3 48.1 141.55 46.6 Q142.35 42.8 144.1 39.95 L145.8 36.65 147.6 33.2 Q148.55 31.65 150.15 29.95 L151.2 28.8 153.1 26.35 156.25 22.85 157.8 21.2 156.3 22.3 158.35 19.7 Q161.55 15.7 164.25 13.1 165.4 12.05 169.15 9.9 L173.25 7.6 173.25 7.55 Q173.45 7.4 173.8 7.3 L174.35 6.95 176.85 5.55 Q178.25 4.75 180.1 4.2 L183.3 3.55 183.9 3.05 Q186.9 2.55 187.3 3.65 189.85 1.65 193.0 3.45 195.35 4.65 197.75 3.8 201.5 2.25 205.5 1.9 209.85 4.8 214.9 3.0 217.9 4.35 220.2 7.05 L221.3 8.0 221.4 7.3 Q230.05 12.1 234.85 20.65 235.75 22.2 235.5 24.1 235.25 26.15 235.9 27.8 L237.05 30.05 238.6 33.25 237.8 33.55" fill="url(#gradient2)" fill-rule="evenodd" stroke="none"/>
    <path d="M125.65 83.65 L126.15 83.65 126.45 83.6 126.45 83.5 126.35 83.3 130.2 82.95 Q149.7 83.2 165.25 94.8 L163.8 95.75 163.35 95.4 Q160.9 93.4 157.45 91.7 148.1 87.25 139.65 88.9 L122.85 91.25 Q110.25 93.35 106.75 95.05 94.9 100.55 93.6 101.45 L82.1 108.9 Q73.45 114.65 70.6 118.35 L54.55 137.8 Q51.15 142.3 48.9 146.3 L56.7 129.65 Q59.4 124.05 63.75 119.3 70.15 112.3 77.15 105.75 84.2 99.15 92.45 94.0 95.8 91.95 99.35 90.8 112.3 86.5 125.45 82.95 L125.65 83.65" fill="url(#gradient3)" fill-rule="evenodd" stroke="none"/>
    <path d="M146.7 118.1 Q152.5 109.7 157.25 103.9 L158.1 103.35 Q159.9 102.25 161.4 100.85 162.2 99.5 164.0 98.5 L163.95 98.5 164.1 98.4 164.15 98.45 165.55 97.8 165.45 97.55 172.4 93.05 Q180.45 95.05 188.1 98.1 189.15 98.2 190.55 99.05 L190.7 99.15 196.55 101.8 Q198.65 102.35 199.15 102.8 L199.55 103.3 206.6 107.1 Q209.9 107.25 211.55 108.55 L212.55 109.7 Q220.55 113.3 228.45 117.5 234.1 120.5 238.9 124.8 L241.45 127.8 242.85 130.3 Q243.05 132.55 244.1 134.3 L240.45 131.35 Q236.1 128.3 232.2 126.7 228.9 125.5 223.1 122.05 L219.5 120.35 216.35 120.5 216.35 120.45 216.4 119.75 Q214.65 121.1 213.2 123.65 L213.15 123.8 210.25 126.7 210.15 126.6 Q211.65 122.0 211.65 120.2 211.65 118.25 210.6 117.4 209.1 116.25 204.0 114.95 L196.95 112.5 Q191.8 110.8 187.25 110.8 183.3 110.8 180.75 112.15 178.35 113.45 172.6 118.6 L172.45 118.45 175.95 111.95 178.35 106.85 Q178.35 106.05 178.1 105.95 L177.2 105.95 Q172.9 107.3 168.95 110.0 L163.55 114.15 163.45 114.05 165.7 110.1 167.7 106.2 171.0 101.0 172.85 97.9 Q172.85 97.1 172.65 97.05 L172.45 97.15 Q166.9 100.7 159.2 107.25 154.85 110.9 146.85 118.25 L146.7 118.1" fill="url(#gradient4)" fill-rule="evenodd" stroke="none"/>
    <path d="M210.1 249.5 Q218.1 248.1 224.4 253.65 233.05 261.25 233.8 272.5 L230.8 269.95 Q226.1 266.4 219.1 263.2 212.25 260.1 207.35 259.15 L204.35 258.85 206.3 253.25 206.3 253.0 206.5 251.85 207.5 250.6 Q208.45 249.5 209.8 249.5 L210.1 249.5" fill="url(#gradient5)" fill-rule="evenodd" stroke="none"/>
    <path d="M204.55 252.4 Q201.7 257.8 199.25 263.35 197.3 260.85 191.9 257.85 183.3 253.15 177.7 254.15 171.4 253.65 165.9 256.5 L169.05 250.55 169.1 250.55 170.0 248.95 171.2 247.75 170.9 247.75 171.5 247.5 172.55 246.75 Q173.9 245.9 174.25 246.45 L185.75 246.1 191.6 247.3 Q195.4 247.85 198.55 249.75 L200.6 250.2 Q201.7 250.85 203.15 251.3 204.05 251.55 204.05 251.9 L204.05 252.15 204.55 252.4" fill="url(#gradient6)" fill-rule="evenodd" stroke="none"/>
  </g>
  <defs>
    <linearGradient gradientTransform="matrix(-0.0555, 0.2033, -0.2785, -0.076, 264.05, 193.65)" gradientUnits="userSpaceOnUse" id="gradient0" spreadMethod="pad" x1="-819.2" x2="819.2">
      <stop offset="0.0" stop-color="#3f2705"/>
      <stop offset="1.0" stop-color="#283546"/>
    </linearGradient>
    <linearGradient gradientTransform="matrix(0.0596, 0.0, 0.0, 0.0389, 189.85, 33.75)" gradientUnits="userSpaceOnUse" id="gradient1" spreadMethod="pad" x1="-819.2" x2="819.2">
      <stop offset="0.0" stop-color="#d28513"/>
      <stop offset="1.0" stop-color="#283546"/>
    </linearGradient>
    <linearGradient gradientTransform="matrix(8.0E-4, 0.038, -0.0599, 0.0013, 189.5, 33.4)" gradientUnits="userSpaceOnUse" id="gradient2" spreadMethod="pad" x1="-819.2" x2="819.2">
      <stop offset="0.0" stop-color="#d28513"/>
      <stop offset="1.0" stop-color="#283546"/>
    </linearGradient>
    <linearGradient gradientTransform="matrix(-0.0164, 0.0511, -0.0553, -0.0177, 107.6, 118.95)" gradientUnits="userSpaceOnUse" id="gradient3" spreadMethod="pad" x1="-819.2" x2="819.2">
      <stop offset="0.0" stop-color="#d28513"/>
      <stop offset="1.0" stop-color="#283546"/>
    </linearGradient>
    <linearGradient gradientTransform="matrix(-0.006, 0.0186, -0.0568, -0.0182, 198.1, 117.85)" gradientUnits="userSpaceOnUse" id="gradient4" spreadMethod="pad" x1="-819.2" x2="819.2">
      <stop offset="0.0" stop-color="#d28513"/>
      <stop offset="1.0" stop-color="#283546"/>
    </linearGradient>
    <linearGradient gradientTransform="matrix(-0.0031, 0.0097, -0.0188, -0.006, 220.95, 259.65)" gradientUnits="userSpaceOnUse" id="gradient5" spreadMethod="pad" x1="-819.2" x2="819.2">
      <stop offset="0.0" stop-color="#d28513"/>
      <stop offset="1.0" stop-color="#283546"/>
    </linearGradient>
    <linearGradient gradientTransform="matrix(-0.0055, 0.0114, -0.0183, -0.0087, 185.35, 254.25)" gradientUnits="userSpaceOnUse" id="gradient6" spreadMethod="pad" x1="-819.2" x2="819.2">
      <stop offset="0.0" stop-color="#d28513"/>
      <stop offset="1.0" stop-color="#283546"/>
    </linearGradient>
  </defs>
</svg>
