<?xml version="1.0" encoding="UTF-8" standalone="no"?>
<svg xmlns:xlink="http://www.w3.org/1999/xlink" height="298.0px" width="341.7px" xmlns="http://www.w3.org/2000/svg">
  <g transform="matrix(1.0, 0.0, 0.0, 1.0, 247.05, 136.0)">
    <path d="M2.85 -118.85 Q4.2 -117.0 4.7 -113.95 L5.5 -109.1 5.25 -108.5 Q4.15 -108.75 4.1 -109.15 L3.75 -110.1 4.65 -106.3 5.5 -101.6 Q5.5 -99.5 4.15 -92.65 L2.75 -85.75 Q2.4 -82.85 -1.65 -78.15 L-8.0 -71.15 Q2.05 -67.5 12.65 -65.7 21.25 -64.45 27.9 -59.0 L43.95 -45.75 Q52.55 -38.55 62.3 -32.8 65.5 -30.9 65.75 -27.15 L68.85 -24.45 Q77.25 -16.75 83.65 -7.65 85.4 -5.25 87.55 -3.15 92.5 1.5 94.35 7.65 95.1 10.05 94.1 12.45 92.55 16.2 91.6 20.35 89.05 31.2 84.4 41.7 L82.6 44.8 Q79.75 48.85 77.15 53.05 L75.0 56.0 Q72.6 59.55 71.1 62.3 70.25 63.8 69.75 65.1 68.9 67.0 68.8 68.3 67.3 72.45 67.1 75.25 66.7 82.5 62.7 91.0 62.05 93.0 62.15 95.9 L62.5 101.9 62.0 107.15 62.15 110.1 Q62.05 112.25 60.75 112.25 55.75 112.25 55.25 110.5 L55.4 103.75 Q55.35 99.95 54.9 95.1 L53.35 94.9 52.35 97.5 Q50.2 103.0 49.5 105.9 48.25 111.4 47.25 114.1 45.4 119.0 43.25 119.0 42.15 119.0 41.15 118.5 L39.15 118.0 38.3 117.3 Q38.15 117.05 38.15 116.55 L39.75 110.0 40.35 108.3 40.9 106.6 41.4 103.4 41.8 101.1 39.6 106.25 Q39.05 107.75 37.25 113.75 35.5 119.0 34.5 119.0 L30.4 118.25 Q27.65 117.4 27.65 116.5 27.65 112.65 34.85 96.0 33.65 97.45 32.1 100.2 L29.75 104.5 27.5 109.3 Q25.85 112.75 24.7 112.75 20.7 112.75 19.65 111.25 L19.4 109.6 Q19.4 106.55 22.4 100.35 23.15 98.7 26.75 92.1 27.25 91.2 28.45 89.6 L27.75 90.1 Q23.25 93.35 22.1 93.35 20.0 93.35 19.2 92.1 L18.85 90.85 Q18.85 89.35 20.45 87.85 L23.75 84.35 25.9 81.0 Q27.25 78.95 28.35 77.75 L29.45 76.15 30.35 74.4 Q31.5 72.5 33.0 71.9 L37.15 70.15 42.0 66.2 Q45.0 63.55 47.0 60.1 49.35 56.05 51.1 51.6 52.65 47.5 53.4 43.3 56.5 26.15 56.75 8.55 L54.7 7.7 Q44.05 3.2 37.35 -6.1 L36.85 -5.75 35.25 -5.35 Q34.8 -5.6 34.85 -6.1 L35.0 -6.9 35.0 -6.95 34.35 -7.35 34.05 -7.0 34.15 -7.5 32.75 -8.5 Q29.55 -10.85 27.0 -10.85 23.6 -10.85 21.65 -11.5 L21.4 -11.3 Q16.55 -13.05 12.0 -11.1 2.45 -7.05 -3.75 1.5 -11.55 12.3 -16.15 24.5 L-17.6 29.6 -18.6 35.3 -19.5 41.25 -19.95 45.05 -20.0 45.5 -20.0 46.9 -20.0 48.2 -20.0 56.5 -19.95 60.75 Q-20.1 62.5 -20.6 63.35 L-20.75 63.65 Q-21.2 64.4 -22.1 64.4 -23.8 64.4 -24.9 62.4 L-28.15 79.5 Q-28.55 81.85 -29.6 84.05 -34.55 94.15 -36.45 105.1 -36.95 108.0 -37.8 110.8 -39.2 115.55 -41.25 119.95 -45.3 128.5 -46.7 137.95 -47.25 141.75 -46.75 145.4 -46.3 148.75 -47.15 152.0 L-51.95 151.75 -52.0 149.15 -53.85 146.5 -54.7 146.55 -54.8 145.4 -55.9 144.7 Q-60.9 142.1 -66.4 144.15 L-67.7 150.3 -69.45 148.25 Q-70.4 146.9 -70.5 145.25 -79.25 148.45 -88.45 149.25 -92.8 149.45 -96.95 150.5 L-97.0 150.6 -97.85 150.75 -100.95 151.75 Q-105.1 153.25 -109.4 153.1 -111.2 152.8 -112.8 152.1 -119.95 148.6 -127.3 145.85 L-130.0 155.75 -130.6 154.8 Q-131.95 149.85 -129.9 144.7 L-132.35 142.9 -131.75 141.0 -130.5 141.05 -129.95 142.25 -129.35 142.55 Q-126.8 134.4 -128.7 125.9 L-134.95 126.05 -145.35 127.45 Q-162.65 130.85 -178.95 124.65 -179.35 127.2 -180.35 129.55 -183.45 137.15 -181.85 145.25 -181.35 147.9 -182.55 149.95 -184.95 148.7 -187.45 147.7 -189.05 147.0 -190.65 147.3 -196.5 147.45 -202.3 148.45 -221.9 151.3 -241.65 147.6 -241.4 154.85 -242.75 162.0 -245.1 154.9 -244.0 147.4 L-245.1 147.55 -245.55 148.55 -247.05 148.0 -247.0 146.5 -243.9 145.55 Q-243.4 136.7 -242.4 128.05 -241.95 124.15 -240.85 120.45 -239.95 117.35 -239.4 114.25 -239.1 112.5 -239.25 110.75 L-239.2 107.75 Q-238.4 100.5 -238.2 93.3 L-237.7 93.25 -237.45 83.3 Q-237.3 80.2 -236.1 77.75 -235.75 76.9 -235.7 76.1 -235.1 65.95 -230.25 57.2 -229.45 55.8 -228.25 54.7 -222.75 49.95 -215.6 47.95 -209.65 46.4 -203.9 44.25 -193.05 40.2 -182.9 34.85 -179.05 32.75 -174.85 32.05 L-162.15 30.45 Q-147.3 29.45 -134.45 22.45 L-134.95 22.35 -133.25 21.25 -132.6 20.8 -130.1 19.95 -130.25 19.3 Q-128.3 18.75 -126.85 17.4 -125.15 15.8 -123.75 13.9 L-123.85 13.75 -123.15 13.1 Q-113.35 -0.75 -107.15 -16.45 L-106.85 -17.95 -106.15 -19.55 Q-105.95 -21.7 -104.75 -25.0 L-104.65 -25.45 -105.0 -24.7 -105.05 -24.5 Q-108.1 -24.85 -111.05 -25.95 -115.3 -27.45 -119.9 -28.1 L-129.1 -30.1 -142.15 -32.85 Q-149.2 -34.25 -154.85 -38.2 -161.5 -42.95 -165.75 -50.0 -166.65 -51.5 -166.2 -53.35 -165.85 -54.8 -164.95 -55.85 -158.95 -62.35 -151.35 -67.2 -147.25 -69.75 -142.7 -71.5 -138.25 -73.3 -133.65 -74.6 -121.0 -78.35 -110.85 -86.25 L-110.85 -86.3 -108.6 -88.35 Q-106.9 -89.8 -105.8 -90.45 L-105.8 -90.5 -105.2 -91.3 Q-104.55 -92.05 -104.45 -92.45 L-103.35 -94.3 -100.7 -98.05 -99.2 -99.95 Q-98.35 -101.1 -98.15 -101.75 -99.7 -102.2 -99.7 -104.5 L-99.55 -107.4 Q-99.55 -108.5 -99.05 -108.9 L-98.3 -109.55 Q-97.85 -110.0 -97.4 -110.0 L-96.75 -109.8 -94.95 -110.05 -93.9 -109.9 -93.8 -109.7 -92.7 -110.65 -92.2 -111.3 -91.7 -111.8 Q-91.25 -112.05 -89.85 -111.3 L-89.05 -110.75 -88.25 -110.25 Q-86.8 -109.8 -86.55 -109.3 L-85.25 -109.85 -84.15 -109.75 -83.4 -109.55 -82.85 -109.75 Q-82.1 -109.75 -81.2 -108.4 L-80.45 -107.15 -79.25 -107.5 Q-79.05 -107.5 -78.5 -107.15 L-77.95 -106.8 Q-77.7 -107.1 -77.4 -107.1 -76.7 -107.1 -75.55 -105.1 L-74.5 -103.15 Q-74.5 -103.0 -74.65 -102.8 L-74.95 -102.35 -75.05 -101.6 -75.35 -100.75 -75.7 -100.1 -76.65 -98.6 -76.7 -98.4 Q-74.5 -99.25 -72.75 -98.85 -70.8 -98.4 -70.8 -96.75 -70.8 -95.8 -71.3 -95.2 L-74.55 -91.9 -75.05 -91.15 -74.9 -90.7 -75.2 -90.35 Q-75.2 -89.95 -75.6 -89.95 -79.55 -85.85 -81.05 -85.0 L-84.1 -83.85 -86.3 -82.65 -89.05 -81.05 -89.85 -80.6 -89.8 -80.6 -89.85 -80.6 -89.9 -80.55 -90.5 -80.35 -93.8 -78.5 Q-94.6 -78.0 -95.25 -77.65 L-95.2 -77.6 Q-96.95 -76.55 -98.5 -75.2 -105.15 -69.3 -111.4 -62.8 L-89.45 -62.9 -87.8 -62.9 Q-83.15 -64.4 -78.15 -64.35 -74.95 -64.3 -71.95 -65.25 L-49.2 -72.75 Q-46.6 -75.95 -47.4 -80.2 -48.55 -86.55 -47.95 -92.85 L-47.5 -95.6 -47.75 -98.45 -47.25 -108.0 -47.35 -108.15 -48.5 -107.1 -49.35 -107.15 -49.5 -107.2 -49.5 -107.6 Q-49.5 -109.4 -47.75 -112.9 -45.95 -116.45 -44.5 -117.5 L-44.4 -117.75 -46.3 -117.55 -47.75 -117.35 -49.6 -117.4 -49.75 -117.45 -49.75 -117.85 Q-49.75 -119.55 -45.35 -122.95 L-39.25 -127.5 Q-39.4 -127.8 -40.9 -128.25 -42.5 -128.8 -43.0 -129.25 -42.4 -130.4 -36.8 -131.3 -31.55 -132.2 -29.45 -130.8 -27.7 -132.05 -23.3 -133.9 -18.05 -136.15 -16.65 -135.9 L-18.65 -134.35 -21.1 -132.4 -21.25 -132.25 -13.4 -133.0 Q-12.35 -133.0 -12.05 -132.7 L-12.0 -132.45 Q-12.0 -131.85 -12.45 -131.6 L-14.4 -130.6 Q-7.75 -130.9 -6.45 -130.45 -5.75 -130.2 -4.85 -129.5 L-4.8 -129.6 -4.75 -129.25 Q-4.75 -128.9 -5.35 -128.65 L-7.15 -127.9 -7.25 -127.75 -6.35 -127.5 Q-5.4 -127.55 -4.0 -126.35 L-3.15 -126.0 -3.55 -126.0 -1.35 -123.75 2.85 -118.85 M3.25 -110.9 L3.45 -110.55 Q3.65 -110.35 3.75 -110.4 L3.25 -111.0 3.25 -110.9 M8.3 -55.0 L9.25 -55.0 14.65 -45.4 15.35 -47.2 Q17.9 -53.5 22.95 -58.05 L19.25 -60.35 Q16.15 -62.15 12.5 -63.0 1.2 -65.4 -9.4 -69.75 L-10.35 -69.25 -9.4 -68.5 -9.4 -68.4 -9.45 -68.4 -10.6 -69.3 -10.5 -69.6 Q-22.8 -73.75 -25.75 -73.75 L-37.15 -73.4 -45.25 -71.6 -49.3 -70.85 Q-61.3 -63.5 -75.1 -61.65 L-77.95 -61.35 Q-78.15 -61.9 -79.0 -61.9 L-79.85 -61.75 -87.35 -61.45 -90.75 -61.8 -93.1 -61.6 -112.55 -61.55 -112.65 -61.5 -113.0 -61.15 -119.9 -60.3 -121.6 -60.0 -122.3 -57.65 -123.25 -53.45 Q-123.9 -49.95 -124.05 -46.5 L-122.75 -46.5 Q-119.55 -46.5 -107.8 -50.1 -95.3 -53.95 -92.75 -54.25 L-92.65 -54.2 -92.6 -54.15 -90.95 -54.7 Q-94.0 -52.0 -103.0 -46.45 L-107.3 -43.8 Q-109.35 -42.0 -113.05 -39.45 L-113.95 -38.8 -113.5 -38.85 -106.5 -39.45 -104.25 -40.25 Q-102.7 -40.65 -97.75 -43.5 L-97.15 -43.9 Q-94.6 -47.85 -90.5 -51.75 -86.05 -56.05 -77.95 -59.5 -70.4 -62.65 -67.15 -62.25 L-67.05 -62.05 -67.0 -61.6 Q-67.0 -60.95 -69.5 -60.25 L-73.35 -59.25 Q-77.85 -57.75 -80.5 -56.5 -84.15 -54.85 -89.5 -50.1 -95.5 -44.75 -98.35 -37.0 L-100.65 -30.45 Q-101.95 -26.5 -102.35 -23.85 -102.6 -22.1 -103.0 -20.3 L-102.6 -20.65 -100.3 -22.45 Q-98.9 -23.4 -97.7 -23.6 -92.35 -26.55 -85.75 -26.25 -90.55 -21.95 -94.3 -16.75 L-100.6 -8.1 -100.6 -7.9 -100.8 -7.75 -101.75 -6.45 -102.9 -4.65 Q-105.25 -1.0 -105.25 0.15 L-105.65 1.45 Q-102.15 -0.3 -98.25 -1.35 -89.65 -3.6 -77.2 2.85 L-81.7 -0.75 -81.65 -1.35 Q-75.35 -0.15 -69.5 2.15 -63.65 4.45 -58.4 7.75 -45.25 16.0 -33.75 26.55 -43.05 11.75 -55.7 -0.5 L-55.6 -1.6 -37.25 8.5 -38.55 5.1 Q-44.0 -9.0 -53.4 -20.8 -55.35 -23.25 -57.85 -25.1 -64.35 -29.8 -70.7 -35.0 L-66.8 -34.7 Q-56.55 -33.55 -48.6 -26.75 -36.6 -16.6 -32.0 -1.5 -34.35 -12.15 -34.45 -23.0 -27.25 -11.8 -25.0 1.55 -22.7 -10.25 -25.7 -21.75 L-25.0 -22.2 Q-18.45 -12.2 -15.75 -0.8 L-18.7 -22.25 -18.0 -22.7 Q-11.75 -15.05 -10.75 -5.25 -9.15 -8.45 -8.7 -12.05 -8.45 -14.3 -8.85 -16.55 -12.0 -33.3 -19.75 -48.7 L-18.75 -49.2 Q-7.8 -36.05 -4.25 -19.25 -4.05 -32.9 -8.55 -45.85 L-7.75 -46.2 Q-1.75 -35.5 1.1 -23.5 1.75 -35.7 -2.45 -47.25 5.45 -40.4 5.5 -30.0 9.2 -42.2 8.3 -55.0 M18.2 -49.85 Q27.6 -44.95 34.75 -36.85 37.55 -33.65 40.8 -30.75 44.55 -34.25 49.55 -35.7 L44.05 -30.5 44.1 -29.9 45.75 -28.75 46.2 -28.35 Q50.1 -31.5 54.85 -33.55 40.2 -46.7 23.85 -57.45 L18.2 -49.85 M35.1 -5.75 L35.75 -6.15 35.5 -6.5 35.25 -6.5 35.1 -6.0 35.1 -5.75 M59.65 -27.15 L56.75 -25.15 Q53.95 -23.3 51.4 -20.85 L51.4 -20.95 51.35 -20.6 Q51.35 -20.15 53.3 -19.6 56.2 -18.75 58.75 -17.1 L63.6 -13.35 67.25 -8.85 Q68.7 -6.6 68.9 -4.9 L69.1 -5.1 69.25 -5.15 69.35 -4.75 68.7 -3.5 68.65 -3.45 67.35 -1.2 Q65.2 2.85 64.5 6.15 L63.7 8.75 Q63.1 10.55 63.0 11.6 L62.55 14.2 62.1 17.0 Q61.9 19.2 60.95 22.6 59.8 26.7 59.6 27.9 L58.55 32.2 57.25 39.55 Q55.6 46.9 52.85 53.8 51.3 57.75 48.8 61.05 L45.6 65.5 Q43.55 68.35 40.8 69.7 38.75 71.0 33.9 72.9 31.9 73.7 30.95 75.45 L29.35 78.75 27.1 81.7 Q25.55 83.6 24.9 84.9 L22.15 88.1 Q20.1 90.1 20.1 90.85 20.1 91.3 20.5 91.6 20.95 92.0 21.8 92.0 23.2 92.0 27.5 88.6 L29.5 86.5 Q30.65 85.4 31.85 85.2 L32.9 83.5 Q33.25 82.75 33.25 81.45 L33.15 79.15 33.8 76.55 Q34.15 75.4 35.4 75.75 L35.1 76.15 35.0 76.75 34.7 78.75 Q34.3 80.2 34.25 81.0 L34.15 82.85 Q33.95 84.1 33.25 85.1 L30.3 89.05 Q28.3 91.65 27.5 93.35 L23.5 101.0 Q20.5 107.0 20.5 109.65 20.5 110.7 21.0 111.0 21.8 111.5 24.65 111.5 L27.25 106.5 Q30.05 101.1 31.25 99.35 L34.85 93.2 Q38.1 87.65 38.35 87.65 L38.9 87.75 39.0 88.45 33.95 101.05 Q28.9 113.2 28.9 116.25 28.9 116.9 34.25 117.75 L36.6 111.4 38.85 105.0 Q41.95 97.35 43.9 93.55 L43.9 93.4 Q44.5 91.4 45.6 90.65 L45.75 90.55 45.85 90.9 45.05 93.95 43.9 97.4 Q43.45 98.55 43.05 100.6 L42.5 103.75 41.1 110.15 40.1 113.1 Q39.4 115.2 39.4 116.35 39.4 116.65 42.6 117.75 45.1 117.75 46.85 112.55 47.6 110.3 48.65 104.75 49.55 99.95 52.1 94.55 L52.0 93.85 52.45 93.8 53.5 91.65 54.1 91.65 54.2 91.8 54.25 92.25 53.8 93.65 Q55.8 93.7 56.15 94.9 L56.25 98.0 56.5 102.5 Q56.8 106.4 56.45 109.6 56.7 110.85 60.6 110.85 61.7 110.85 61.15 94.25 61.1 93.25 61.5 91.7 61.05 90.1 61.2 89.3 L61.6 86.95 Q61.6 85.95 61.25 84.9 60.7 83.15 59.5 83.15 L58.55 83.4 57.4 83.75 Q57.1 83.4 57.1 82.45 57.1 80.95 57.7 79.15 L59.0 75.5 60.1 72.1 61.1 68.6 61.85 65.0 62.35 63.35 62.65 62.4 Q63.35 61.4 63.9 61.3 L64.35 60.2 Q65.3 58.0 65.75 58.0 66.25 58.0 66.75 58.65 67.25 59.25 67.8 59.25 L68.35 59.15 68.75 57.6 68.4 56.1 Q68.0 55.4 68.0 54.9 L68.85 51.8 70.0 47.5 Q71.3 43.6 71.75 40.15 72.15 37.3 73.85 33.05 L77.0 25.75 80.5 18.5 Q82.55 14.1 83.0 11.1 L83.8 7.45 84.35 3.75 Q84.9 2.5 84.75 0.35 84.4 -2.1 84.4 -3.25 L84.4 -3.45 Q73.65 -16.8 60.3 -27.4 L59.65 -27.15 M-76.45 -101.6 L-75.75 -103.1 -76.2 -103.95 -76.9 -104.8 Q-78.6 -106.3 -79.3 -106.3 -80.35 -106.3 -82.75 -105.0 L-84.85 -103.7 Q-85.6 -103.65 -86.05 -103.15 L-86.4 -102.2 Q-86.15 -100.5 -84.75 -100.5 -84.25 -100.5 -83.95 -100.75 -83.3 -100.85 -82.7 -101.25 L-81.35 -102.25 -80.15 -103.05 -79.8 -103.5 -79.15 -103.75 Q-78.65 -103.75 -78.65 -103.25 -78.65 -102.95 -79.65 -101.95 L-80.8 -100.8 -82.6 -98.55 -82.85 -98.55 Q-83.1 -98.35 -83.65 -98.25 L-85.55 -97.9 -88.15 -97.1 -87.55 -96.45 -87.4 -96.35 -86.65 -95.5 -86.75 -95.3 -86.65 -95.0 -86.7 -94.85 -86.65 -94.8 -86.65 -94.7 -87.2 -94.55 -87.45 -94.5 -87.9 -94.35 -88.65 -94.0 Q-90.1 -93.4 -91.8 -91.9 L-93.15 -90.4 -93.65 -89.0 Q-93.65 -88.3 -92.95 -87.7 -92.1 -87.0 -90.75 -87.0 L-89.4 -87.15 -88.65 -87.5 -87.2 -87.95 -84.25 -89.3 Q-81.4 -90.55 -79.95 -92.55 L-78.45 -94.25 -76.85 -95.9 -75.9 -96.75 -75.2 -97.55 -76.05 -97.3 -77.2 -96.6 -79.05 -95.5 -80.4 -94.2 -81.65 -93.25 Q-82.3 -93.25 -82.25 -93.9 -82.25 -94.75 -80.65 -96.05 L-78.3 -97.55 Q-77.85 -98.3 -77.15 -100.25 L-76.45 -101.6 M-41.9 -109.15 Q-40.85 -112.55 -38.15 -115.6 L-37.35 -116.85 -37.35 -117.15 -37.2 -117.2 -36.25 -117.85 Q-35.7 -119.6 -34.55 -121.6 L-33.05 -123.8 -34.0 -123.3 -37.25 -120.85 Q-42.05 -115.25 -43.0 -107.0 L-41.45 -109.5 -41.9 -109.15 M-45.15 -100.0 L-45.35 -99.35 -45.3 -98.55 -45.45 -95.45 -45.2 -91.85 -45.05 -89.8 -45.0 -89.45 -45.0 -89.25 Q-45.25 -86.55 -44.3 -86.55 -44.1 -86.55 -43.4 -88.0 L-42.5 -90.0 -41.7 -91.3 -40.95 -92.75 -40.25 -94.05 -40.35 -94.05 -40.4 -94.25 Q-40.45 -95.85 -40.65 -96.7 -40.85 -97.65 -40.85 -101.4 -40.85 -103.9 -40.45 -106.5 L-40.45 -106.55 -43.2 -106.15 Q-43.5 -104.6 -44.15 -103.25 -44.95 -101.65 -45.15 -100.0 M-18.6 -125.0 L-21.6 -124.2 -26.25 -122.15 -27.4 -122.9 Q-28.8 -123.75 -30.3 -124.2 L-31.25 -124.45 Q-33.15 -122.55 -33.95 -121.0 L-35.3 -117.9 -35.1 -117.85 -35.0 -117.8 -34.35 -118.0 -28.65 -118.95 -27.0 -118.95 -26.9 -118.8 -25.15 -118.75 -23.0 -118.55 -21.55 -118.45 -19.85 -118.1 -18.25 -117.45 -17.8 -117.3 -15.8 -116.4 -14.2 -115.6 Q-13.1 -114.95 -13.1 -114.6 -13.1 -114.15 -13.55 -114.15 L-14.0 -114.2 -14.25 -114.15 -14.85 -114.4 -15.45 -114.65 -15.9 -114.35 -15.6 -113.8 Q-11.6 -110.45 -10.7 -105.35 L-14.1 -104.9 -16.85 -102.25 -15.3 -100.15 -10.75 -94.65 -10.6 -94.5 -10.5 -94.45 -10.5 -94.25 -10.65 -93.7 Q-10.85 -93.2 -11.15 -93.2 L-12.3 -94.45 -12.9 -95.05 -12.7 -95.05 -15.35 -98.35 -17.8 -101.45 -18.15 -101.15 Q-21.55 -98.85 -25.05 -97.1 L-23.85 -95.6 Q-21.7 -92.55 -20.9 -88.8 L-20.75 -88.95 -20.3 -87.45 -19.6 -85.6 -19.5 -85.1 Q-19.15 -83.4 -18.6 -83.4 -18.25 -83.4 -17.0 -85.05 L-16.15 -86.05 -15.45 -87.0 -14.75 -87.7 -11.1 -91.25 Q-9.6 -92.45 -7.6 -94.95 L-7.0 -95.65 -6.35 -96.5 -6.35 -96.55 Q-5.4 -97.95 -5.4 -98.45 -5.4 -98.95 -5.65 -99.05 L-4.75 -101.25 -4.5 -101.8 -6.75 -113.55 -7.1 -114.25 Q-7.7 -115.55 -8.5 -116.25 -9.4 -117.05 -9.45 -118.4 -9.45 -119.45 -10.85 -120.1 -11.15 -120.2 -15.1 -122.65 -15.8 -123.85 -16.35 -124.3 L-18.5 -125.0 -18.6 -125.0 M-34.45 -99.6 L-32.65 -99.3 -29.85 -99.05 -27.4 -98.85 -26.95 -98.85 -25.7 -97.75 -23.25 -99.25 -18.8 -101.9 -18.4 -102.2 -19.25 -103.3 Q-21.3 -106.1 -21.75 -107.4 L-22.5 -108.1 Q-25.0 -110.95 -28.0 -113.4 L-33.65 -107.65 -39.7 -106.7 Q-40.1 -104.4 -40.1 -101.45 L-39.8 -96.6 -39.9 -96.35 -39.75 -96.1 -39.6 -95.1 -39.15 -95.75 -38.5 -97.05 -37.7 -97.65 -36.6 -98.7 Q-35.65 -99.6 -34.45 -99.6 M-36.95 -101.55 L-37.0 -101.55 -36.95 -101.6 -36.95 -101.55 M-34.65 -105.8 Q-33.45 -107.35 -31.75 -108.55 -31.05 -109.1 -30.2 -108.9 -26.45 -109.5 -24.85 -106.0 -22.9 -101.9 -26.4 -99.75 L-27.15 -99.95 -27.45 -99.95 -29.1 -100.25 -28.5 -99.9 -29.55 -99.9 -31.25 -100.15 Q-36.3 -100.8 -36.3 -102.5 -36.3 -103.05 -35.3 -104.7 L-34.65 -105.8 M-22.85 -126.7 L-22.85 -126.65 -22.75 -126.75 -22.85 -126.7 M-19.4 -105.25 L-17.5 -102.95 -15.4 -104.95 Q-17.8 -105.2 -20.1 -106.35 L-19.4 -105.25 M-92.9 -109.1 L-93.8 -108.0 -94.7 -105.75 -94.0 -105.3 -93.65 -105.15 -93.4 -105.0 -92.55 -104.5 -92.0 -105.0 -91.05 -105.8 -89.2 -107.6 -88.4 -108.05 Q-87.95 -108.15 -87.8 -108.3 L-87.35 -108.65 -89.7 -109.8 -91.05 -110.05 -91.35 -110.25 Q-91.9 -110.25 -92.9 -109.1 M-94.35 -109.25 L-97.05 -108.65 Q-98.45 -108.2 -98.45 -107.7 L-98.25 -106.45 -98.55 -103.85 -98.25 -103.25 Q-97.95 -102.9 -97.7 -102.85 L-97.65 -103.0 -97.5 -103.0 Q-96.7 -103.0 -96.5 -103.65 L-96.4 -104.6 -96.0 -106.3 -95.95 -106.3 -95.1 -108.35 -94.35 -109.2 -94.25 -109.25 -94.35 -109.25 M-97.3 -101.1 L-97.45 -100.5 -97.4 -100.1 -98.45 -98.65 -99.65 -97.4 -100.7 -96.1 -101.45 -94.75 -101.75 -93.95 -102.2 -93.35 -103.05 -92.05 -103.25 -91.7 -103.3 -91.7 -105.15 -90.0 -105.3 -89.15 -105.3 -88.9 -106.95 -87.6 Q-108.95 -85.75 -109.65 -85.5 -113.95 -80.75 -119.9 -78.15 -124.4 -76.1 -128.4 -73.6 -130.45 -72.4 -132.8 -71.85 -142.5 -69.85 -151.05 -64.95 -157.95 -61.05 -162.75 -55.0 -161.15 -55.8 -159.9 -55.5 L-159.05 -52.25 Q-158.6 -51.6 -155.7 -51.6 L-153.65 -51.9 -150.65 -52.25 -143.5 -51.6 -136.9 -50.5 Q-132.45 -49.45 -125.65 -48.65 L-125.35 -50.95 -124.7 -55.15 Q-124.4 -57.6 -123.6 -59.35 L-123.5 -59.75 -127.7 -59.35 -129.7 -59.15 -130.5 -59.05 -130.9 -59.0 -134.45 -58.55 Q-136.05 -58.4 -136.85 -57.85 L-138.65 -57.8 -139.55 -58.0 -140.0 -57.95 -140.0 -58.0 Q-140.0 -59.2 -137.95 -59.7 L-130.95 -60.95 -127.2 -61.5 -125.75 -61.7 -124.75 -62.4 -119.85 -66.35 -110.35 -73.6 -106.05 -76.85 Q-103.3 -79.0 -102.25 -80.5 -101.9 -81.0 -101.7 -81.6 L-101.75 -81.7 -101.8 -82.65 -102.0 -84.45 -101.75 -87.0 -101.7 -89.4 Q-101.7 -90.05 -101.2 -90.05 L-101.1 -90.15 -99.7 -90.55 Q-98.95 -90.7 -98.15 -91.4 L-96.4 -92.05 Q-95.9 -92.15 -94.9 -92.8 -94.15 -93.0 -93.25 -93.35 -92.75 -93.65 -92.2 -94.0 -90.7 -95.05 -90.7 -96.2 L-90.95 -97.3 -91.35 -98.15 -92.15 -99.05 Q-92.8 -99.5 -92.95 -99.7 L-94.45 -100.25 -94.45 -100.2 -94.5 -100.35 -94.45 -100.55 -95.3 -100.95 -96.6 -101.05 -97.3 -101.1 M-87.3 -102.3 L-87.45 -103.0 -87.4 -103.4 Q-87.25 -103.65 -86.65 -103.9 -85.95 -104.05 -85.6 -104.5 L-83.4 -106.05 -82.8 -106.45 -82.25 -106.65 -81.5 -106.7 -82.25 -107.5 Q-83.35 -108.75 -84.95 -108.75 -85.45 -108.75 -86.2 -108.2 L-87.0 -107.55 -88.9 -106.35 -91.65 -103.8 Q-91.0 -103.1 -88.9 -102.55 L-87.3 -102.25 -87.25 -102.25 -87.3 -102.3 M-16.05 -93.65 L-16.05 -93.6 -16.1 -93.6 -16.05 -93.65 M-30.05 -88.5 L-26.75 -87.3 Q-27.75 -89.4 -29.85 -90.5 -35.7 -93.55 -40.6 -89.25 L-39.6 -88.85 -30.05 -88.5 M-77.15 22.6 Q-77.15 21.5 -77.8 20.4 -78.6 19.05 -79.95 18.5 -81.55 17.8 -86.2 17.65 L-89.9 17.7 -90.8 17.9 -94.1 17.95 -94.2 18.0 -94.5 18.0 Q-96.4 18.0 -97.2 18.55 -97.9 18.8 -98.25 19.7 L-99.7 22.05 -101.5 24.55 Q-102.75 26.15 -102.75 26.6 L-102.7 27.05 Q-102.55 27.45 -101.95 27.45 L-101.2 27.4 -95.9 27.3 -97.15 27.55 -91.2 27.1 Q-86.45 26.45 -83.4 29.6 L-83.4 29.65 -82.75 30.3 -82.7 30.4 -82.65 30.35 -82.4 30.35 Q-81.2 30.35 -80.6 28.8 L-80.1 28.25 -79.75 27.4 -78.7 25.8 -77.6 24.1 Q-77.15 23.4 -77.15 22.6 M-76.15 20.75 Q-75.85 21.45 -75.85 22.4 -75.85 23.1 -76.0 23.65 L-75.55 23.45 -75.85 24.1 Q-61.25 27.4 -50.35 37.85 -35.4 52.3 -29.3 72.1 L-26.45 57.5 -27.8 54.2 Q-32.3 46.75 -37.8 40.1 -40.9 36.25 -44.35 32.75 L-45.2 32.15 -49.75 28.25 Q-51.35 26.7 -54.5 24.95 -55.5 24.4 -60.0 22.15 -62.3 21.05 -66.05 19.65 L-72.25 17.35 Q-76.0 15.55 -78.4 14.9 L-85.6 13.5 -91.0 12.65 -107.15 13.35 -116.5 14.0 -120.25 14.5 -120.6 14.55 -121.7 15.5 -123.35 17.5 -100.0 18.5 -99.45 18.9 -99.1 18.5 -98.95 18.3 Q-98.45 17.1 -97.0 16.75 L-95.6 16.4 -95.15 16.15 -92.4 16.0 -91.9 16.0 -90.75 16.0 -89.95 16.0 -88.65 16.05 -82.0 16.4 -81.55 16.45 Q-78.05 16.75 -76.8 18.75 -76.35 19.5 -76.15 20.75 M-44.8 67.35 Q-47.0 61.6 -50.9 56.85 -59.5 46.4 -70.4 38.65 -75.65 34.9 -81.55 32.55 L-82.05 33.3 -82.05 33.5 -82.1 34.45 -82.55 34.95 -83.6 36.0 -83.65 36.05 -86.4 35.75 -88.4 35.4 -89.8 35.1 -90.25 35.05 -93.5 35.05 -98.8 34.2 -99.3 34.05 -101.6 33.5 -103.4 33.25 Q-105.2 33.1 -105.65 32.75 L-105.95 31.9 -105.95 30.1 -106.0 28.7 -108.25 28.5 -110.0 28.0 -113.6 27.75 -113.8 27.65 -113.9 27.3 Q-124.1 25.5 -127.0 25.5 L-131.25 25.5 -135.0 25.65 -135.15 25.65 -136.1 26.15 Q-145.55 31.05 -156.15 31.85 -166.8 32.8 -177.7 34.75 -185.3 38.0 -192.25 42.25 -200.25 47.2 -209.4 49.0 -214.45 50.1 -219.45 51.6 -227.35 54.15 -230.2 61.9 -233.5 70.85 -234.75 80.4 -236.45 92.95 -234.8 105.4 -234.1 110.75 -231.25 115.15 -228.4 119.5 -223.45 120.6 -220.8 121.1 -218.55 119.8 -216.15 118.45 -215.4 115.9 -213.0 107.7 -214.35 99.1 -216.7 84.5 -221.0 70.5 -219.6 69.75 -218.25 70.25 -210.35 73.5 -204.5 79.75 L-196.6 87.25 -199.9 78.3 Q-201.3 74.1 -201.5 69.75 L-199.5 71.55 Q-195.1 71.95 -191.0 73.7 -187.1 75.35 -184.3 78.55 L-171.8 92.55 Q-166.45 98.5 -164.65 106.45 -163.7 110.75 -163.85 115.35 -162.55 105.95 -165.1 97.1 -166.65 91.75 -170.25 87.5 -175.55 81.3 -181.25 75.35 -187.85 68.4 -193.0 60.55 -191.15 60.4 -189.5 61.35 -185.25 63.85 -181.3 67.2 -173.15 74.0 -166.2 82.25 L-173.0 61.0 -172.4 60.55 Q-169.0 61.35 -166.9 64.3 -162.5 70.3 -157.2 75.5 -152.25 80.35 -149.15 86.5 L-155.95 68.1 Q-157.6 63.65 -157.6 59.6 L-156.65 60.0 Q-146.45 67.35 -140.65 78.45 -137.15 85.05 -133.0 91.25 L-135.85 74.9 Q-136.5 71.1 -137.6 67.4 L-143.0 49.25 -142.6 48.55 Q-141.65 48.3 -141.0 48.95 -132.75 56.9 -129.35 67.85 -127.6 73.55 -127.0 79.3 L-127.1 74.1 Q-127.2 62.45 -132.3 52.15 -134.9 46.95 -138.45 42.05 -136.95 42.45 -135.7 43.3 -128.85 48.15 -125.95 56.15 -123.05 64.15 -121.15 72.25 -117.9 56.2 -120.5 39.95 -120.95 37.1 -119.5 34.5 -116.85 39.5 -115.95 44.95 -114.3 54.85 -114.0 64.8 L-112.5 62.7 -112.25 63.1 -114.25 70.3 -115.1 70.75 -116.6 74.25 Q-105.4 73.4 -94.5 76.2 -89.6 77.6 -85.5 80.8 L-85.5 82.0 -86.35 82.4 -96.9 81.6 -103.5 82.05 Q-105.2 81.4 -106.9 81.6 L-118.9 82.4 -119.5 85.15 Q-113.1 86.2 -106.95 88.25 -100.8 90.35 -95.2 93.55 L-95.25 94.2 Q-99.5 94.35 -103.55 93.05 -109.6 91.2 -115.6 91.3 -117.7 91.7 -119.6 92.5 -121.25 93.25 -121.5 95.3 L-112.65 94.75 Q-110.05 94.7 -107.9 96.15 L-106.7 97.15 -107.55 99.1 -114.7 100.35 -114.65 101.3 Q-114.35 103.2 -113.0 104.5 -111.2 106.2 -108.9 106.95 L-105.95 107.75 Q-104.45 107.95 -104.15 109.35 -104.05 109.7 -104.1 110.1 -105.25 111.3 -107.05 112.05 L-109.35 112.7 -110.55 113.1 -111.8 113.05 -113.2 113.05 Q-113.0 117.4 -111.85 121.7 -109.25 131.2 -103.5 139.3 -101.1 142.6 -99.15 146.1 L-97.8 147.85 Q-92.85 146.55 -87.75 146.05 -86.65 141.5 -86.85 136.85 -87.4 122.6 -85.5 108.55 L-82.3 108.6 -76.05 109.65 Q-71.8 109.85 -71.2 113.8 L-70.5 119.35 Q-69.4 130.75 -68.75 142.1 L-67.75 141.8 -65.3 110.7 -64.3 110.65 Q-57.65 119.0 -51.7 127.7 -51.4 128.1 -51.35 128.65 -50.9 136.1 -53.0 143.1 L-50.85 145.6 -50.3 145.55 Q-48.7 129.65 -41.55 115.45 -39.55 111.5 -38.95 107.2 -38.0 100.0 -36.15 92.75 -39.95 79.95 -44.8 67.35 M-94.55 22.55 L-94.4 22.55 -94.5 22.65 -94.55 22.55" fill="#000000" fill-rule="evenodd" stroke="none"/>
    <path d="M-77.15 22.6 Q-77.15 23.4 -77.6 24.1 L-78.7 25.8 -79.75 27.4 -80.1 28.25 -80.6 28.8 Q-81.2 30.35 -82.4 30.35 L-82.65 30.35 -82.7 30.4 -82.75 30.3 -83.4 29.65 -83.4 29.6 Q-86.45 26.45 -91.2 27.1 L-97.15 27.55 -95.9 27.3 -101.2 27.4 -101.95 27.45 Q-102.55 27.45 -102.7 27.05 L-102.75 26.6 Q-102.75 26.15 -101.5 24.55 L-99.7 22.05 -98.25 19.7 Q-97.9 18.8 -97.2 18.55 -96.4 18.0 -94.5 18.0 L-94.2 18.0 -94.1 17.95 -90.8 17.9 -89.9 17.7 -86.2 17.65 Q-81.55 17.8 -79.95 18.5 -78.6 19.05 -77.8 20.4 -77.15 21.5 -77.15 22.6 M-94.55 22.55 L-94.5 22.65 -94.4 22.55 -94.55 22.55" fill="#a597c6" fill-rule="evenodd" stroke="none"/>
    <path d="M-41.9 -109.15 L-41.45 -109.5 -43.0 -107.0 Q-42.05 -115.25 -37.25 -120.85 L-34.0 -123.3 -33.05 -123.8 -34.55 -121.6 Q-35.7 -119.6 -36.25 -117.85 L-37.2 -117.2 -37.35 -117.15 -37.35 -116.85 -38.15 -115.6 Q-40.85 -112.55 -41.9 -109.15 M-76.45 -101.6 L-77.15 -100.25 Q-77.85 -98.3 -78.3 -97.55 L-80.65 -96.05 Q-82.25 -94.75 -82.25 -93.9 -82.3 -93.25 -81.65 -93.25 L-80.4 -94.2 -79.05 -95.5 -77.2 -96.6 -76.05 -97.3 -75.2 -97.55 -75.9 -96.75 -76.85 -95.9 -78.45 -94.25 -79.95 -92.55 Q-81.4 -90.55 -84.25 -89.3 L-87.2 -87.95 -88.65 -87.5 -89.4 -87.15 -90.75 -87.0 Q-92.1 -87.0 -92.95 -87.7 -93.65 -88.3 -93.65 -89.0 L-93.15 -90.4 -91.8 -91.9 Q-90.1 -93.4 -88.65 -94.0 L-87.9 -94.35 -87.45 -94.5 -87.2 -94.55 -86.65 -94.7 -86.65 -94.8 -86.7 -94.85 -86.65 -95.0 -86.75 -95.3 -86.65 -95.5 -87.4 -96.35 -87.55 -96.45 -88.15 -97.1 -85.55 -97.9 -83.65 -98.25 Q-83.1 -98.35 -82.85 -98.55 L-82.6 -98.55 -80.8 -100.8 -79.65 -101.95 Q-78.65 -102.95 -78.65 -103.25 -78.65 -103.75 -79.15 -103.75 L-79.8 -103.5 -80.15 -103.05 -81.35 -102.25 -82.7 -101.25 Q-83.3 -100.85 -83.95 -100.75 -84.25 -100.5 -84.75 -100.5 -86.15 -100.5 -86.4 -102.2 L-86.05 -103.15 Q-85.6 -103.65 -84.85 -103.7 L-82.75 -105.0 Q-80.35 -106.3 -79.3 -106.3 -78.6 -106.3 -76.9 -104.8 L-76.2 -103.95 -75.75 -103.1 -76.45 -101.6 M59.65 -27.15 L60.3 -27.4 Q73.65 -16.8 84.4 -3.45 L84.4 -3.25 Q84.4 -2.1 84.75 0.35 84.9 2.5 84.35 3.75 L83.8 7.45 83.0 11.1 Q82.55 14.1 80.5 18.5 L77.0 25.75 73.85 33.05 Q72.15 37.3 71.75 40.15 71.3 43.6 70.0 47.5 L68.85 51.8 68.0 54.9 Q68.0 55.4 68.4 56.1 L68.75 57.6 68.35 59.15 67.8 59.25 Q67.25 59.25 66.75 58.65 66.25 58.0 65.75 58.0 65.3 58.0 64.35 60.2 L63.9 61.3 Q63.35 61.4 62.65 62.4 L62.35 63.35 61.85 65.0 61.1 68.6 60.1 72.1 59.0 75.5 57.7 79.15 Q57.1 80.95 57.1 82.45 57.1 83.4 57.4 83.75 L58.55 83.4 59.5 83.15 Q60.7 83.15 61.25 84.9 61.6 85.95 61.6 86.95 L61.2 89.3 Q61.05 90.1 61.5 91.7 61.1 93.25 61.15 94.25 61.7 110.85 60.6 110.85 56.7 110.85 56.45 109.6 56.8 106.4 56.5 102.5 L56.25 98.0 56.15 94.9 Q55.8 93.7 53.8 93.65 L54.25 92.25 54.2 91.8 54.1 91.65 53.5 91.65 52.45 93.8 52.0 93.85 52.1 94.55 Q49.55 99.95 48.65 104.75 47.6 110.3 46.85 112.55 45.1 117.75 42.6 117.75 39.4 116.65 39.4 116.35 39.4 115.2 40.1 113.1 L41.1 110.15 42.5 103.75 43.05 100.6 Q43.45 98.55 43.9 97.4 L45.05 93.95 45.85 90.9 45.75 90.55 45.6 90.65 Q44.5 91.4 43.9 93.4 L43.9 93.55 Q41.95 97.35 38.85 105.0 L36.6 111.4 34.25 117.75 Q28.9 116.9 28.9 116.25 28.9 113.2 33.95 101.05 L39.0 88.45 38.9 87.75 38.35 87.65 Q38.1 87.65 34.85 93.2 L31.25 99.35 Q30.05 101.1 27.25 106.5 L24.65 111.5 Q21.8 111.5 21.0 111.0 20.5 110.7 20.5 109.65 20.5 107.0 23.5 101.0 L27.5 93.35 Q28.3 91.65 30.3 89.05 L33.25 85.1 Q33.95 84.1 34.15 82.85 L34.25 81.0 Q34.3 80.2 34.7 78.75 L35.0 76.75 35.1 76.15 35.4 75.75 Q34.15 75.4 33.8 76.55 L33.15 79.15 33.25 81.45 Q33.25 82.75 32.9 83.5 L31.85 85.2 Q30.65 85.4 29.5 86.5 L27.5 88.6 Q23.2 92.0 21.8 92.0 20.95 92.0 20.5 91.6 20.1 91.3 20.1 90.85 20.1 90.1 22.15 88.1 L24.9 84.9 Q25.55 83.6 27.1 81.7 L29.35 78.75 30.95 75.45 Q31.9 73.7 33.9 72.9 38.75 71.0 40.8 69.7 43.55 68.35 45.6 65.5 L48.8 61.05 Q51.3 57.75 52.85 53.8 55.6 46.9 57.25 39.55 L58.55 32.2 59.6 27.9 Q59.8 26.7 60.95 22.6 61.9 19.2 62.1 17.0 L62.55 14.2 63.0 11.6 Q63.1 10.55 63.7 8.75 L64.5 6.15 Q65.2 2.85 67.35 -1.2 L68.65 -3.45 68.7 -3.5 69.35 -4.75 69.25 -5.15 69.1 -5.1 68.9 -4.9 Q68.7 -6.6 67.25 -8.85 L63.6 -13.35 58.75 -17.1 Q56.2 -18.75 53.3 -19.6 51.35 -20.15 51.35 -20.6 L51.4 -20.95 51.4 -20.85 Q53.95 -23.3 56.75 -25.15 L59.65 -27.15 M-45.15 -100.0 Q-44.95 -101.65 -44.15 -103.25 -43.5 -104.6 -43.2 -106.15 L-40.45 -106.55 -40.45 -106.5 Q-40.85 -103.9 -40.85 -101.4 -40.85 -97.65 -40.65 -96.7 -40.45 -95.85 -40.4 -94.25 L-40.35 -94.05 -40.25 -94.05 -40.95 -92.75 -41.7 -91.3 -42.5 -90.0 -43.4 -88.0 Q-44.1 -86.55 -44.3 -86.55 -45.25 -86.55 -45.0 -89.25 L-45.0 -89.45 -45.05 -89.8 -45.2 -91.85 -45.45 -95.45 -45.3 -98.55 -45.35 -99.35 -45.15 -100.0 M-18.6 -125.0 L-18.5 -125.0 -16.35 -124.3 Q-15.8 -123.85 -15.1 -122.65 -11.15 -120.2 -10.85 -120.1 -9.45 -119.45 -9.45 -118.4 -9.4 -117.05 -8.5 -116.25 -7.7 -115.55 -7.1 -114.25 L-6.75 -113.55 -4.5 -101.8 -4.75 -101.25 -5.65 -99.05 Q-5.4 -98.95 -5.4 -98.45 -5.4 -97.95 -6.35 -96.55 L-6.35 -96.5 -7.0 -95.65 -7.6 -94.95 Q-9.6 -92.45 -11.1 -91.25 L-14.75 -87.7 -15.45 -87.0 -16.15 -86.05 -17.0 -85.05 Q-18.25 -83.4 -18.6 -83.4 -19.15 -83.4 -19.5 -85.1 L-19.6 -85.6 -20.3 -87.45 -20.75 -88.95 -20.9 -88.8 Q-21.7 -92.55 -23.85 -95.6 L-25.05 -97.1 Q-21.55 -98.85 -18.15 -101.15 L-17.8 -101.45 -15.35 -98.35 -12.7 -95.05 -12.9 -95.05 -12.3 -94.45 -11.15 -93.2 Q-10.85 -93.2 -10.65 -93.7 L-10.5 -94.25 -10.5 -94.45 -10.6 -94.5 -10.75 -94.65 -15.3 -100.15 -16.85 -102.25 -14.1 -104.9 -10.7 -105.35 Q-11.6 -110.45 -15.6 -113.8 L-15.9 -114.35 -15.45 -114.65 -14.85 -114.4 -14.25 -114.15 -14.0 -114.2 -13.55 -114.15 Q-13.1 -114.15 -13.1 -114.6 -13.1 -114.95 -14.2 -115.6 L-15.8 -116.4 -17.8 -117.3 -18.25 -117.45 -19.85 -118.1 -21.55 -118.45 -23.0 -118.55 -25.15 -118.75 -26.9 -118.8 -27.0 -118.95 -28.65 -118.95 -34.35 -118.0 -35.0 -117.8 -35.1 -117.85 -35.3 -117.9 -33.95 -121.0 Q-33.15 -122.55 -31.25 -124.45 L-30.3 -124.2 Q-28.8 -123.75 -27.4 -122.9 L-26.25 -122.15 -21.6 -124.2 -18.6 -125.0 M-22.85 -126.7 L-22.75 -126.75 -22.85 -126.65 -22.85 -126.7 M-34.65 -105.8 L-35.3 -104.7 Q-36.3 -103.05 -36.3 -102.5 -36.3 -100.8 -31.25 -100.15 L-29.55 -99.9 -28.5 -99.9 -29.1 -100.25 -27.45 -99.95 -27.15 -99.95 -26.4 -99.75 Q-22.9 -101.9 -24.85 -106.0 -26.45 -109.5 -30.2 -108.9 -31.05 -109.1 -31.75 -108.55 -33.45 -107.35 -34.65 -105.8 M-36.95 -101.55 L-36.95 -101.6 -37.0 -101.55 -36.95 -101.55 M-34.45 -99.6 Q-35.65 -99.6 -36.6 -98.7 L-37.7 -97.65 -38.5 -97.05 -39.15 -95.75 -39.6 -95.1 -39.75 -96.1 -39.9 -96.35 -39.8 -96.6 -40.1 -101.45 Q-40.1 -104.4 -39.7 -106.7 L-33.65 -107.65 -28.0 -113.4 Q-25.0 -110.95 -22.5 -108.1 L-21.75 -107.4 Q-21.3 -106.1 -19.25 -103.3 L-18.4 -102.2 -18.8 -101.9 -23.25 -99.25 -25.7 -97.75 -26.95 -98.85 -27.4 -98.85 -29.85 -99.05 -32.65 -99.3 -34.45 -99.6 M-94.35 -109.2 L-95.1 -108.35 -95.95 -106.3 -96.0 -106.3 -96.4 -104.6 -96.5 -103.65 Q-96.7 -103.0 -97.5 -103.0 L-97.65 -103.0 -97.7 -102.85 Q-97.95 -102.9 -98.25 -103.25 L-98.55 -103.85 -98.25 -106.45 -98.45 -107.7 Q-98.45 -108.2 -97.05 -108.65 L-94.35 -109.25 -94.35 -109.2 M-92.9 -109.1 Q-91.9 -110.25 -91.35 -110.25 L-91.05 -110.05 -89.7 -109.8 -87.35 -108.65 -87.8 -108.3 Q-87.95 -108.15 -88.4 -108.05 L-89.2 -107.6 -91.05 -105.8 -92.0 -105.0 -92.55 -104.5 -93.4 -105.0 -93.65 -105.15 -94.0 -105.3 -94.7 -105.75 -93.8 -108.0 -92.9 -109.1 M-19.4 -105.25 L-20.1 -106.35 Q-17.8 -105.2 -15.4 -104.95 L-17.5 -102.95 -19.4 -105.25 M-87.3 -102.25 L-88.9 -102.55 Q-91.0 -103.1 -91.65 -103.8 L-88.9 -106.35 -87.0 -107.55 -86.2 -108.2 Q-85.45 -108.75 -84.95 -108.75 -83.35 -108.75 -82.25 -107.5 L-81.5 -106.7 -82.25 -106.65 -82.8 -106.45 -83.4 -106.05 -85.6 -104.5 Q-85.95 -104.05 -86.65 -103.9 -87.25 -103.65 -87.4 -103.4 L-87.45 -103.0 -87.3 -102.3 -87.3 -102.25 M-97.3 -101.1 L-96.6 -101.05 -95.3 -100.95 -94.45 -100.55 -94.5 -100.35 -94.45 -100.2 -94.45 -100.25 -92.95 -99.7 Q-92.8 -99.5 -92.15 -99.05 L-91.35 -98.15 -90.95 -97.3 -90.7 -96.2 Q-90.7 -95.05 -92.2 -94.0 -92.75 -93.65 -93.25 -93.35 -94.15 -93.0 -94.9 -92.8 -95.9 -92.15 -96.4 -92.05 L-98.15 -91.4 Q-98.95 -90.7 -99.7 -90.55 L-101.1 -90.15 -101.2 -90.05 Q-101.7 -90.05 -101.7 -89.4 L-101.75 -87.0 -102.0 -84.45 -101.8 -82.65 -101.75 -81.7 -101.7 -81.6 Q-101.9 -81.0 -102.25 -80.5 -103.3 -79.0 -106.05 -76.85 L-110.35 -73.6 -119.85 -66.35 -124.75 -62.4 -125.75 -61.7 -127.2 -61.5 -130.95 -60.95 -137.95 -59.7 Q-140.0 -59.2 -140.0 -58.0 L-140.0 -57.95 -139.55 -58.0 -138.65 -57.8 -136.85 -57.85 Q-136.05 -58.4 -134.45 -58.55 L-130.9 -59.0 -130.5 -59.05 -129.7 -59.15 -127.7 -59.35 -123.5 -59.75 -123.6 -59.35 Q-124.4 -57.6 -124.7 -55.15 L-125.35 -50.95 -125.65 -48.65 Q-132.45 -49.45 -136.9 -50.5 L-143.5 -51.6 -150.65 -52.25 -153.65 -51.9 -155.7 -51.6 Q-158.6 -51.6 -159.05 -52.25 L-159.9 -55.5 Q-161.15 -55.8 -162.75 -55.0 -157.95 -61.05 -151.05 -64.95 -142.5 -69.85 -132.8 -71.85 -130.45 -72.4 -128.4 -73.6 -124.4 -76.1 -119.9 -78.15 -113.95 -80.75 -109.65 -85.5 -108.95 -85.75 -106.95 -87.6 L-105.3 -88.9 -105.3 -89.15 -105.15 -90.0 -103.3 -91.7 -103.25 -91.7 -103.05 -92.05 -102.2 -93.35 -101.75 -93.95 -101.45 -94.75 -100.7 -96.1 -99.65 -97.4 -98.45 -98.65 -97.4 -100.1 -97.45 -100.5 -97.3 -101.1 M-16.05 -93.65 L-16.1 -93.6 -16.05 -93.6 -16.05 -93.65 M-30.05 -88.5 L-39.6 -88.85 -40.6 -89.25 Q-35.7 -93.55 -29.85 -90.5 -27.75 -89.4 -26.75 -87.3 L-30.05 -88.5" fill="#31492e" fill-rule="evenodd" stroke="none"/>
    <path d="M-44.8 67.35 Q-39.95 79.95 -36.15 92.75 -38.0 100.0 -38.95 107.2 -39.55 111.5 -41.55 115.45 -48.7 129.65 -50.3 145.55 L-50.85 145.6 -53.0 143.1 Q-50.9 136.1 -51.35 128.65 -51.4 128.1 -51.7 127.7 -57.65 119.0 -64.3 110.65 L-65.3 110.7 -67.75 141.8 -68.75 142.1 Q-69.4 130.75 -70.5 119.35 L-71.2 113.8 Q-71.8 109.85 -76.05 109.65 L-82.3 108.6 -85.5 108.55 Q-87.4 122.6 -86.85 136.85 -86.65 141.5 -87.75 146.05 -92.85 146.55 -97.8 147.85 L-99.15 146.1 Q-101.1 142.6 -103.5 139.3 -109.25 131.2 -111.85 121.7 -113.0 117.4 -113.2 113.05 L-111.8 113.05 -110.55 113.1 -109.35 112.7 -107.05 112.05 Q-105.25 111.3 -104.1 110.1 -104.05 109.7 -104.15 109.35 -104.45 107.95 -105.95 107.75 L-108.9 106.95 Q-111.2 106.2 -113.0 104.5 -114.35 103.2 -114.65 101.3 L-114.7 100.35 -107.55 99.1 -106.7 97.15 -107.9 96.15 Q-110.05 94.7 -112.65 94.75 L-121.5 95.3 Q-121.25 93.25 -119.6 92.5 -117.7 91.7 -115.6 91.3 -109.6 91.2 -103.55 93.05 -99.5 94.35 -95.25 94.2 L-95.2 93.55 Q-100.8 90.35 -106.95 88.25 -113.1 86.2 -119.5 85.15 L-118.9 82.4 -106.9 81.6 Q-105.2 81.4 -103.5 82.05 L-96.9 81.6 -86.35 82.4 -85.5 82.0 -85.5 80.8 Q-89.6 77.6 -94.5 76.2 -105.4 73.4 -116.6 74.25 L-115.1 70.75 -114.25 70.3 -112.25 63.1 -112.5 62.7 -114.0 64.8 Q-114.3 54.85 -115.95 44.95 -116.85 39.5 -119.5 34.5 -120.95 37.1 -120.5 39.95 -117.9 56.2 -121.15 72.25 -123.05 64.15 -125.95 56.15 -128.85 48.15 -135.7 43.3 -136.95 42.45 -138.45 42.05 -134.9 46.95 -132.3 52.15 -127.2 62.45 -127.1 74.1 L-127.0 79.3 Q-127.6 73.55 -129.35 67.85 -132.75 56.9 -141.0 48.95 -141.65 48.3 -142.6 48.55 L-143.0 49.25 -137.6 67.4 Q-136.5 71.1 -135.85 74.9 L-133.0 91.25 Q-137.15 85.05 -140.65 78.45 -146.45 67.35 -156.65 60.0 L-157.6 59.6 Q-157.6 63.65 -155.95 68.1 L-149.15 86.5 Q-152.25 80.35 -157.2 75.5 -162.5 70.3 -166.9 64.3 -169.0 61.35 -172.4 60.55 L-173.0 61.0 -166.2 82.25 Q-173.15 74.0 -181.3 67.2 -185.25 63.85 -189.5 61.35 -191.15 60.4 -193.0 60.55 -187.85 68.4 -181.25 75.35 -175.55 81.3 -170.25 87.5 -166.65 91.75 -165.1 97.1 -162.55 105.95 -163.85 115.35 -163.7 110.75 -164.65 106.45 -166.45 98.5 -171.8 92.55 L-184.3 78.55 Q-187.1 75.35 -191.0 73.7 -195.1 71.95 -199.5 71.55 L-201.5 69.75 Q-201.3 74.1 -199.9 78.3 L-196.6 87.25 -204.5 79.75 Q-210.35 73.5 -218.25 70.25 -219.6 69.75 -221.0 70.5 -216.7 84.5 -214.35 99.1 -213.0 107.7 -215.4 115.9 -216.15 118.45 -218.55 119.8 -220.8 121.1 -223.45 120.6 -228.4 119.5 -231.25 115.15 -234.1 110.75 -234.8 105.4 -236.45 92.95 -234.75 80.4 -233.5 70.85 -230.2 61.9 -227.35 54.15 -219.45 51.6 -214.45 50.1 -209.4 49.0 -200.25 47.2 -192.25 42.25 -185.3 38.0 -177.7 34.75 -166.8 32.8 -156.15 31.85 -145.55 31.05 -136.1 26.15 L-135.15 25.65 -135.0 25.65 -131.25 25.5 -127.0 25.5 Q-124.1 25.5 -113.9 27.3 L-113.8 27.65 -113.6 27.75 -110.0 28.0 -108.25 28.5 -106.0 28.7 -105.95 30.1 -105.95 31.9 -105.65 32.75 Q-105.2 33.1 -103.4 33.25 L-101.6 33.5 -99.3 34.05 -98.8 34.2 -93.5 35.05 -90.25 35.05 -89.8 35.1 -88.4 35.4 -86.4 35.75 -83.65 36.05 -83.6 36.0 -82.55 34.95 -82.1 34.45 -82.05 33.5 -82.05 33.3 -81.55 32.55 Q-75.65 34.9 -70.4 38.65 -59.5 46.4 -50.9 56.85 -47.0 61.6 -44.8 67.35" fill="#382e52" fill-rule="evenodd" stroke="none"/>
    <path d="M18.2 -49.85 L23.85 -57.45 Q40.2 -46.7 54.85 -33.55 50.1 -31.5 46.2 -28.35 L45.75 -28.75 44.1 -29.9 44.05 -30.5 49.55 -35.7 Q44.55 -34.25 40.8 -30.75 37.55 -33.65 34.75 -36.85 27.6 -44.95 18.2 -49.85" fill="#7e6ea5" fill-rule="evenodd" stroke="none"/>
    <path d="M-76.15 20.75 Q-76.35 19.5 -76.8 18.75 -78.05 16.75 -81.55 16.45 L-82.0 16.4 -88.65 16.05 -89.95 16.0 -90.75 16.0 -91.9 16.0 -92.4 16.0 -95.15 16.15 -95.6 16.4 -97.0 16.75 Q-98.45 17.1 -98.95 18.3 L-99.1 18.5 -99.45 18.9 -100.0 18.5 -123.35 17.5 -121.7 15.5 -120.6 14.55 -120.25 14.5 -116.5 14.0 -107.15 13.35 -91.0 12.65 -85.6 13.5 -78.4 14.9 Q-76.0 15.55 -72.25 17.35 L-66.05 19.65 Q-62.3 21.05 -60.0 22.15 -55.5 24.4 -54.5 24.95 -51.35 26.7 -49.75 28.25 L-45.2 32.15 -44.35 32.75 Q-40.9 36.25 -37.8 40.1 -32.3 46.75 -27.8 54.2 L-26.45 57.5 -29.3 72.1 Q-35.4 52.3 -50.35 37.85 -61.25 27.4 -75.85 24.1 L-75.55 23.45 -76.0 23.65 Q-75.85 23.1 -75.85 22.4 -75.85 21.45 -76.15 20.75" fill="#283924" fill-rule="evenodd" stroke="none"/>
    <path d="M8.3 -55.0 Q9.2 -42.2 5.5 -30.0 5.45 -40.4 -2.45 -47.25 1.75 -35.7 1.1 -23.5 -1.75 -35.5 -7.75 -46.2 L-8.55 -45.85 Q-4.05 -32.9 -4.25 -19.25 -7.8 -36.05 -18.75 -49.2 L-19.75 -48.7 Q-12.0 -33.3 -8.85 -16.55 -8.45 -14.3 -8.7 -12.05 -9.15 -8.45 -10.75 -5.25 -11.75 -15.05 -18.0 -22.7 L-18.7 -22.25 -15.75 -0.8 Q-18.45 -12.2 -25.0 -22.2 L-25.7 -21.75 Q-22.7 -10.25 -25.0 1.55 -27.25 -11.8 -34.45 -23.0 -34.35 -12.15 -32.0 -1.5 -36.6 -16.6 -48.6 -26.75 -56.55 -33.55 -66.8 -34.7 L-70.7 -35.0 Q-64.35 -29.8 -57.85 -25.1 -55.35 -23.25 -53.4 -20.8 -44.0 -9.0 -38.55 5.1 L-37.25 8.5 -55.6 -1.6 -55.7 -0.5 Q-43.05 11.75 -33.75 26.55 -45.25 16.0 -58.4 7.75 -63.65 4.45 -69.5 2.15 -75.35 -0.15 -81.65 -1.35 L-81.7 -0.75 -77.2 2.85 Q-89.65 -3.6 -98.25 -1.35 -102.15 -0.3 -105.65 1.45 L-105.25 0.15 Q-105.25 -1.0 -102.9 -4.65 L-101.75 -6.45 -100.8 -7.75 -100.6 -7.9 -100.6 -8.1 -94.3 -16.75 Q-90.55 -21.95 -85.75 -26.25 -92.35 -26.55 -97.7 -23.6 -98.9 -23.4 -100.3 -22.45 L-102.6 -20.65 -103.0 -20.3 Q-102.6 -22.1 -102.35 -23.85 -101.95 -26.5 -100.65 -30.45 L-98.35 -37.0 Q-95.5 -44.75 -89.5 -50.1 -84.15 -54.85 -80.5 -56.5 -77.85 -57.75 -73.35 -59.25 L-69.5 -60.25 Q-67.0 -60.95 -67.0 -61.6 L-67.05 -62.05 -67.15 -62.25 Q-70.4 -62.65 -77.95 -59.5 -86.05 -56.05 -90.5 -51.75 -94.6 -47.85 -97.15 -43.9 L-97.75 -43.5 Q-102.7 -40.65 -104.25 -40.25 L-106.5 -39.45 -113.5 -38.85 -113.95 -38.8 -113.05 -39.45 Q-109.35 -42.0 -107.3 -43.8 L-103.0 -46.45 Q-94.0 -52.0 -90.95 -54.7 L-92.6 -54.15 -92.65 -54.2 -92.75 -54.25 Q-95.3 -53.95 -107.8 -50.1 -119.55 -46.5 -122.75 -46.5 L-124.05 -46.5 Q-123.9 -49.95 -123.25 -53.45 L-122.3 -57.65 -121.6 -60.0 -119.9 -60.3 -113.0 -61.15 -112.65 -61.5 -112.55 -61.55 -93.1 -61.6 -90.75 -61.8 -87.35 -61.45 -79.85 -61.75 -79.0 -61.9 Q-78.15 -61.9 -77.95 -61.35 L-75.1 -61.65 Q-61.3 -63.5 -49.3 -70.85 L-45.25 -71.6 -37.15 -73.4 -25.75 -73.75 Q-22.8 -73.75 -10.5 -69.6 L-10.6 -69.3 -9.45 -68.4 -9.4 -68.4 -9.4 -68.5 -10.35 -69.25 -9.4 -69.75 Q1.2 -65.4 12.5 -63.0 16.15 -62.15 19.25 -60.35 L22.95 -58.05 Q17.9 -53.5 15.35 -47.2 L14.65 -45.4 9.25 -55.0 8.3 -55.0" fill="url(#gradient0)" fill-rule="evenodd" stroke="none"/>
    <path d="M19.7 -56.1 L21.05 -58.65 Q21.9 -60.8 23.75 -60.8 25.5 -60.85 25.5 -59.2 25.5 -57.8 20.75 -51.1 L20.45 -50.7 24.0 -48.35 31.55 -42.95 38.45 -36.7 Q43.3 -32.25 44.0 -32.25 45.2 -32.25 48.75 -34.5 52.25 -36.75 53.9 -36.75 55.1 -36.75 55.6 -35.85 L55.85 -34.85 Q55.85 -33.85 54.95 -33.0 53.95 -32.15 51.25 -30.9 L48.05 -29.1 Q45.9 -27.95 43.75 -27.95 42.05 -27.95 38.85 -30.6 L35.75 -33.5 32.75 -36.35 29.9 -39.1 26.4 -41.65 22.35 -44.7 19.45 -47.3 18.35 -48.4 17.25 -47.1 16.5 -45.85 Q17.55 -42.95 17.55 -42.05 L17.3 -41.15 Q16.95 -40.45 16.0 -40.45 13.95 -40.45 13.35 -42.15 L13.05 -44.25 13.05 -44.35 13.0 -44.45 12.3 -46.5 11.5 -48.65 Q11.25 -47.35 10.95 -43.15 10.75 -39.55 10.1 -37.7 L8.3 -32.25 8.1 -31.6 Q8.5 -28.75 8.5 -26.55 L8.25 -24.75 Q7.85 -23.35 7.1 -23.35 5.15 -23.35 4.6 -26.55 L4.6 -27.0 Q4.15 -27.2 4.0 -27.65 L3.9 -28.4 4.35 -30.15 3.95 -33.35 Q3.7 -35.25 2.9 -36.65 L2.85 -36.65 3.3 -27.95 Q3.25 -20.7 1.0 -20.7 -1.2 -20.7 -1.5 -22.25 -1.45 -24.4 -1.85 -25.5 L-3.0 -30.5 -3.15 -30.7 -3.25 -22.5 -3.55 -17.25 Q-4.2 -14.0 -6.75 -14.85 -7.0 -11.7 -7.6 -8.4 -8.0 -6.1 -8.45 -5.0 L-8.35 -2.05 Q-8.35 -1.25 -8.65 -0.5 -9.15 0.55 -10.1 0.55 -12.0 0.55 -12.4 -3.45 L-12.45 -7.95 Q-12.5 -11.25 -15.25 -16.25 -15.25 -13.0 -14.65 -6.25 L-14.65 -1.45 Q-14.9 3.3 -16.0 3.3 -18.2 3.3 -18.9 -0.2 L-19.35 -4.5 Q-20.35 -9.75 -21.85 -12.35 L-21.9 -12.35 -22.3 -4.2 -22.7 3.5 Q-22.7 4.75 -23.05 5.85 -23.6 7.75 -24.95 7.75 -26.9 7.75 -26.9 5.95 L-26.5 4.05 Q-26.5 2.1 -27.05 -1.05 L-27.9 -6.15 Q-28.15 -8.15 -29.4 -11.05 L-31.95 -16.15 -32.1 -16.15 -32.1 -16.2 -32.15 -15.85 -31.8 -13.05 -31.45 -10.25 -31.45 -9.85 -30.45 -7.5 -28.9 -2.25 Q-27.5 2.65 -27.5 3.6 -27.5 4.7 -27.9 6.3 L-28.15 6.35 -28.65 5.4 -30.1 4.25 -31.15 3.05 -31.7 1.85 -32.55 -0.5 -32.6 -0.75 -32.95 -0.65 Q-34.3 -0.65 -34.55 -2.5 L-34.5 -4.4 -34.55 -6.3 Q-36.1 -9.8 -38.15 -12.5 L-41.35 -17.45 Q-43.35 -20.45 -45.5 -22.15 L-53.45 -27.75 Q-58.05 -30.6 -60.25 -30.95 L-60.85 -31.0 -57.65 -27.95 -55.1 -25.45 -53.1 -22.7 -51.0 -20.0 Q-46.95 -15.4 -43.25 -9.25 -41.25 -5.8 -37.05 2.8 -32.85 11.5 -32.85 12.25 -32.85 14.25 -34.7 14.25 -36.1 14.25 -38.65 11.95 L-41.85 8.75 Q-44.7 5.7 -47.85 3.35 -42.5 9.6 -39.45 14.75 L-37.15 19.1 -35.15 20.8 Q-31.0 24.5 -31.0 25.65 L-31.4 27.05 Q-31.95 28.15 -32.65 28.15 -33.1 28.15 -34.45 27.15 -34.9 28.0 -36.0 28.0 -37.15 28.0 -38.05 26.3 L-39.0 24.0 -39.4 23.15 -39.5 23.05 -49.35 14.5 Q-55.2 9.6 -58.45 7.75 -61.2 6.15 -65.05 4.65 -69.15 3.0 -70.95 3.0 -72.05 3.0 -72.6 3.5 -73.15 4.0 -74.2 4.0 -76.1 4.0 -78.45 2.45 -80.85 0.85 -82.25 0.85 -99.75 0.85 -103.4 2.0 -104.1 3.1 -106.8 3.1 -107.95 3.1 -108.3 2.3 L-108.5 1.5 Q-108.5 0.45 -107.6 -0.15 -107.05 -2.7 -99.2 -12.4 L-90.15 -23.15 -90.1 -23.35 -94.05 -22.1 -97.5 -21.15 -99.4 -20.55 -100.25 -20.15 Q-101.1 -17.35 -101.9 -17.35 -102.85 -17.35 -103.3 -18.25 -104.5 -18.35 -105.0 -19.15 L-105.25 -20.05 Q-105.25 -21.75 -103.45 -22.95 L-103.1 -25.25 -102.1 -30.5 Q-101.75 -32.6 -100.5 -35.55 L-98.35 -40.7 -97.6 -42.15 -101.65 -40.5 Q-102.6 -40.1 -107.9 -39.0 L-113.65 -37.9 Q-115.15 -37.9 -115.65 -38.9 L-115.85 -39.9 Q-115.85 -40.8 -115.3 -41.25 L-112.7 -42.9 -110.6 -44.4 -108.5 -45.9 Q-102.85 -49.5 -99.7 -51.15 L-99.75 -51.25 -106.25 -49.6 -111.45 -48.35 -113.9 -47.35 Q-115.55 -46.65 -117.5 -46.35 L-122.25 -45.4 -123.1 -45.2 -123.1 -45.1 -123.35 -45.15 -124.5 -45.0 Q-126.1 -45.0 -126.9 -45.85 -127.5 -46.45 -127.5 -47.15 -127.5 -47.95 -126.85 -48.55 L-132.25 -49.1 -137.4 -49.7 -140.25 -50.35 -143.55 -51.2 -146.9 -51.9 -150.35 -51.85 -150.35 -51.65 Q-153.4 -51.65 -153.95 -51.0 -154.45 -50.35 -155.35 -50.35 -157.1 -50.35 -158.25 -51.05 -158.7 -51.3 -160.85 -53.1 L-162.4 -54.65 Q-162.75 -55.1 -162.75 -55.6 -162.75 -57.2 -161.1 -57.25 -160.5 -57.3 -159.65 -56.65 -158.8 -56.0 -156.0 -56.1 L-149.05 -55.95 -144.5 -55.75 -140.5 -54.75 Q-136.7 -53.85 -126.5 -52.75 L-122.95 -51.95 -120.85 -51.75 -116.45 -51.5 -115.65 -51.45 -115.5 -51.5 -113.0 -52.25 -108.65 -53.5 Q-104.4 -54.35 -95.1 -56.9 -87.85 -58.45 -87.85 -55.25 -87.85 -53.7 -89.4 -52.7 L-94.75 -49.7 -102.5 -44.75 -102.5 -44.7 -100.3 -45.3 -98.25 -45.65 Q-96.35 -45.65 -95.95 -44.6 L-95.0 -45.85 Q-91.85 -49.5 -90.65 -51.1 L-88.95 -52.4 -87.45 -53.7 -86.1 -54.95 -84.25 -56.25 Q-81.25 -57.95 -78.7 -59.55 -77.3 -60.25 -75.05 -60.25 -73.05 -60.25 -72.0 -59.7 -71.25 -59.3 -71.25 -58.75 -71.25 -58.35 -72.45 -57.45 -73.7 -56.55 -74.45 -56.45 -75.8 -56.25 -77.4 -55.4 L-79.5 -54.25 Q-81.75 -53.1 -83.35 -51.8 L-86.5 -49.0 Q-89.15 -46.55 -91.25 -43.9 -93.75 -40.8 -94.65 -38.45 L-96.05 -35.75 -97.35 -33.0 -98.7 -27.65 -99.25 -24.8 -95.7 -26.0 Q-89.15 -28.15 -86.25 -28.35 -82.5 -28.6 -82.5 -26.0 -82.5 -24.55 -84.75 -22.55 L-88.35 -18.9 Q-89.15 -17.6 -91.15 -15.4 L-94.25 -11.9 -100.25 -4.4 -102.0 -2.25 -95.7 -2.85 -86.1 -3.0 -79.25 -2.7 -76.25 -2.0 -72.5 -1.15 Q-66.15 -0.25 -61.7 1.55 -58.0 2.95 -53.65 5.85 L-49.7 8.7 -54.75 3.4 Q-59.95 -1.95 -59.95 -3.95 -59.95 -5.0 -58.85 -6.25 -57.8 -7.45 -57.1 -7.45 -56.05 -7.45 -49.55 -2.6 -43.5 1.9 -40.5 4.65 L-40.35 4.65 -45.65 -5.45 Q-48.9 -11.45 -52.25 -15.5 L-56.3 -20.5 -60.7 -25.5 -63.6 -28.2 -66.25 -30.5 Q-68.15 -32.2 -70.95 -33.45 -72.65 -34.2 -72.65 -35.35 -72.65 -37.6 -69.4 -37.0 L-60.95 -35.25 Q-58.4 -34.75 -54.8 -32.9 L-49.85 -30.1 Q-41.15 -25.05 -37.25 -18.9 L-35.75 -16.65 -36.7 -23.25 -36.55 -24.7 Q-36.15 -25.7 -34.9 -25.7 -34.05 -25.7 -31.95 -22.95 L-29.45 -19.35 -25.95 -12.95 -25.85 -12.95 Q-25.9 -14.05 -26.9 -19.15 L-27.95 -24.75 Q-27.95 -26.75 -26.1 -26.75 -24.8 -26.75 -24.25 -25.45 L-23.9 -24.0 -22.35 -21.45 Q-20.9 -19.4 -19.25 -16.15 L-19.15 -17.25 -19.55 -21.9 -19.95 -26.4 Q-19.95 -28.05 -18.95 -28.55 -17.95 -29.05 -16.5 -27.75 L-14.9 -24.15 -13.15 -20.4 Q-12.0 -17.9 -11.25 -16.75 -10.6 -15.7 -10.1 -14.3 L-10.0 -16.65 Q-10.0 -20.25 -11.65 -25.95 -12.85 -30.2 -14.25 -33.5 -15.3 -36.0 -19.3 -43.2 -22.9 -49.6 -22.9 -50.0 -22.9 -52.3 -20.55 -51.5 -18.4 -50.8 -17.15 -48.9 L-14.9 -46.35 -13.25 -43.7 -7.25 -33.25 -7.25 -33.55 Q-7.25 -35.95 -9.1 -40.8 -10.95 -45.7 -10.95 -46.75 L-10.85 -47.95 Q-10.45 -48.95 -9.1 -48.95 -7.35 -48.95 -5.55 -45.75 L-3.75 -41.85 -0.85 -34.95 Q-0.75 -34.55 -0.75 -35.2 -0.75 -36.35 -1.35 -38.75 L-2.15 -42.1 -3.15 -45.95 -3.9 -48.9 Q-3.9 -50.7 -2.1 -50.7 -0.45 -50.7 0.95 -48.1 L2.5 -44.5 4.2 -41.4 Q5.3 -39.5 6.15 -38.5 L6.6 -37.85 6.9 -39.1 7.75 -49.7 Q7.75 -51.1 7.15 -53.95 L6.5 -56.75 Q6.5 -58.55 8.1 -58.65 9.8 -58.75 10.75 -56.35 L12.45 -53.9 14.05 -51.5 15.05 -49.45 15.05 -49.5 18.3 -54.0 19.7 -56.1 M59.6 -19.8 L63.35 -16.85 Q65.55 -14.75 67.9 -11.25 70.55 -7.25 70.55 -5.35 70.55 -3.95 70.35 -3.5 70.1 -2.85 68.75 -1.7 L67.75 -0.3 Q67.15 0.85 67.55 1.35 67.7 1.55 66.9 1.6 L66.55 1.25 66.5 0.6 66.75 -0.3 67.0 -1.25 66.65 -2.45 Q66.25 -3.2 66.25 -4.1 L66.25 -6.05 Q66.0 -6.2 65.5 -6.9 L61.5 -12.5 Q58.9 -15.4 53.2 -17.85 49.25 -19.6 49.25 -22.6 49.25 -24.6 51.75 -24.9 54.35 -25.25 56.0 -22.65 L59.6 -19.8 M85.95 -2.3 Q86.55 -1.7 86.55 -0.8 L86.25 2.3 85.15 6.35 Q86.9 6.05 87.6 7.1 88.0 7.65 88.0 8.3 88.0 9.45 81.9 20.7 75.9 31.8 73.15 35.8 74.05 36.3 74.3 37.05 L74.35 38.1 73.65 41.1 72.85 43.8 Q72.4 47.0 71.75 49.25 L70.7 51.95 69.75 54.6 69.1 57.45 Q68.75 58.8 68.05 60.0 L67.4 61.35 65.85 62.6 Q65.2 62.85 64.6 63.8 L63.85 65.15 Q62.65 67.1 61.75 70.55 L59.85 76.0 Q58.65 79.25 58.65 81.25 58.65 81.7 59.05 82.25 L59.95 80.75 Q61.45 78.75 62.1 82.4 61.5 85.0 61.9 89.4 L62.5 96.6 62.25 101.25 61.85 105.4 61.5 109.75 Q60.95 113.5 59.3 113.5 58.15 113.5 57.85 112.55 L57.75 111.55 58.35 101.35 57.9 91.45 57.95 90.3 57.3 88.8 Q56.9 86.2 55.6 84.55 54.5 83.2 54.5 81.3 54.5 74.3 61.85 59.6 L64.3 54.25 Q64.9 52.6 65.5 48.8 66.35 43.6 68.05 38.25 L68.65 35.45 Q68.95 33.9 69.9 32.8 71.7 30.75 72.5 27.4 73.95 21.05 75.85 16.6 L78.35 11.25 80.75 5.8 82.55 0.4 82.75 -0.85 Q82.9 -1.85 83.5 -2.2 L85.95 -2.3 M18.25 92.65 Q18.25 90.35 23.2 87.6 28.75 84.5 29.15 83.9 L32.0 79.5 Q32.1 77.75 32.65 77.3 33.5 76.65 34.3 76.95 35.05 77.2 35.05 77.95 L34.7 79.2 34.15 80.75 Q34.05 81.55 34.3 83.45 34.3 84.55 28.75 89.0 L26.15 91.55 Q23.7 93.75 22.35 93.75 L21.05 93.0 20.2 93.4 19.5 93.8 Q18.5 93.8 18.3 93.25 L18.25 92.65 M38.5 88.9 Q38.5 89.3 33.75 95.3 32.8 96.8 30.5 101.5 L28.55 104.75 28.05 106.1 27.3 107.75 25.35 110.9 Q24.85 112.05 24.1 112.4 L23.15 112.45 22.15 112.6 22.1 112.95 Q22.05 113.15 21.65 113.15 20.45 113.15 20.05 112.4 L19.9 111.6 Q19.9 110.85 21.2 110.05 22.8 109.05 23.3 108.25 L24.6 106.55 25.75 105.0 27.2 101.95 28.9 98.6 30.7 95.6 33.0 92.25 35.25 89.0 Q36.05 87.85 37.25 87.7 38.5 87.6 38.5 88.9 M50.5 93.8 Q51.35 91.9 52.4 92.15 53.3 92.4 53.3 93.4 53.3 94.0 51.65 97.25 51.15 98.4 50.75 100.8 L49.75 104.4 Q49.25 106.05 49.3 106.6 L49.5 108.0 48.5 110.55 47.3 113.6 Q46.95 115.05 45.85 116.45 44.6 118.0 43.3 118.0 L41.75 117.8 Q41.55 117.8 41.55 117.2 L43.45 114.8 Q45.45 112.3 45.75 110.4 46.3 107.35 47.5 103.8 L49.05 97.25 Q49.2 96.6 50.5 93.8 M45.35 92.25 L42.5 98.0 Q39.55 103.75 39.3 106.0 39.2 107.1 38.3 109.4 L37.1 112.75 Q36.45 115.1 35.15 117.05 33.75 119.15 32.6 119.15 31.55 119.15 31.1 118.35 L30.85 117.45 Q30.85 117.05 32.3 115.6 L34.0 113.75 35.05 110.15 Q35.6 108.3 37.65 103.0 38.8 100.15 41.05 95.75 L41.8 93.9 Q42.2 92.75 42.55 92.15 43.45 90.75 44.4 90.95 45.35 91.1 45.35 92.25 M-78.9 -102.6 Q-78.9 -101.25 -81.3 -98.2 -81.9 -97.3 -82.4 -97.05 L-83.1 -96.9 -83.9 -96.75 Q-84.15 -96.45 -84.7 -96.3 -85.75 -95.9 -86.15 -95.3 L-86.8 -94.15 -87.45 -92.95 -88.65 -89.3 -88.65 -89.25 Q-85.9 -89.6 -81.9 -93.35 L-79.25 -95.8 Q-76.95 -97.85 -75.75 -97.85 -75.3 -97.85 -75.2 -97.55 L-75.15 -97.2 Q-75.15 -96.8 -76.3 -95.65 L-77.65 -94.4 Q-79.3 -92.65 -80.7 -91.6 L-82.0 -90.25 -83.2 -88.8 -84.7 -87.4 Q-84.9 -87.1 -85.65 -86.65 L-86.95 -86.25 Q-87.5 -86.25 -87.65 -86.55 L-87.8 -86.95 -88.45 -86.45 Q-88.8 -86.15 -89.25 -86.15 L-89.9 -86.4 -91.15 -85.9 -91.25 -85.85 -91.65 -85.65 -92.45 -85.4 -92.55 -85.4 -92.95 -85.0 Q-93.85 -85.0 -93.75 -85.6 L-94.15 -85.75 Q-95.1 -86.1 -95.1 -86.5 -95.1 -87.4 -94.1 -88.9 -94.5 -88.95 -94.9 -89.35 L-95.4 -89.15 -96.35 -89.0 Q-97.2 -89.0 -97.7 -89.45 L-98.15 -89.9 Q-99.7 -89.9 -100.0 -89.35 L-100.4 -88.4 -100.6 -88.15 -97.85 -88.9 Q-95.85 -89.05 -94.75 -87.85 -95.55 -85.85 -96.15 -85.35 L-98.0 -84.65 Q-99.35 -84.2 -100.0 -83.1 L-100.7 -81.15 Q-101.0 -79.9 -103.95 -77.5 L-108.25 -73.75 Q-109.35 -72.45 -112.7 -69.9 -115.6 -67.75 -117.5 -66.65 L-122.05 -63.05 Q-126.6 -59.7 -128.7 -59.7 -130.6 -59.7 -131.0 -60.35 L-131.1 -61.0 Q-131.1 -63.1 -128.7 -64.35 -123.85 -66.8 -121.5 -68.65 -114.35 -73.95 -112.1 -76.0 L-107.8 -79.65 Q-105.1 -82.05 -104.5 -83.65 L-103.5 -85.55 -103.0 -86.3 Q-102.65 -86.95 -102.75 -87.9 L-102.6 -89.9 Q-102.55 -91.0 -102.05 -91.35 L-99.15 -92.65 -95.75 -93.85 Q-94.7 -94.1 -94.25 -94.75 -94.0 -95.05 -93.9 -95.6 L-93.1 -97.3 Q-93.1 -97.85 -93.65 -98.15 L-96.3 -99.25 -98.3 -100.4 Q-98.6 -100.55 -98.6 -101.35 L-98.5 -102.1 -96.9 -102.2 -96.0 -101.75 -95.55 -101.4 -94.75 -101.2 -94.4 -100.9 -93.8 -101.1 -92.9 -100.65 -92.3 -100.15 -92.35 -101.0 Q-92.3 -101.6 -91.65 -101.6 -90.95 -101.6 -90.95 -100.7 L-91.05 -99.55 -90.35 -98.5 Q-89.8 -98.0 -89.8 -97.6 L-90.6 -95.55 -90.5 -95.2 -90.15 -95.85 -89.7 -96.15 -89.3 -96.8 -89.05 -97.65 -88.7 -99.45 Q-88.35 -100.95 -87.75 -100.95 -87.25 -100.95 -87.15 -100.5 L-86.95 -99.9 Q-85.85 -99.7 -85.85 -99.05 L-86.1 -97.9 -85.65 -98.55 -84.9 -99.1 Q-84.5 -99.1 -84.35 -98.8 L-84.3 -98.5 Q-82.95 -98.85 -82.2 -99.95 -81.8 -100.5 -81.3 -101.55 -80.2 -102.65 -80.1 -103.05 -79.5 -104.6 -78.9 -102.6 M-46.7 -106.1 Q-47.1 -106.55 -47.1 -107.1 -47.1 -107.8 -46.2 -108.3 L-45.0 -108.9 -43.85 -110.7 -42.55 -112.2 -40.95 -114.1 -37.95 -117.5 Q-36.15 -119.25 -32.35 -118.5 L-26.5 -117.25 -19.45 -117.85 Q-15.35 -117.85 -10.25 -105.9 -10.25 -105.2 -10.65 -104.5 -11.2 -103.5 -12.25 -103.5 -16.35 -105.45 -17.0 -105.5 -19.6 -105.85 -20.8 -106.35 L-22.25 -107.25 -25.1 -109.65 Q-26.95 -111.1 -27.7 -111.1 L-30.0 -109.25 Q-28.2 -109.55 -26.0 -107.85 L-23.85 -104.8 Q-23.25 -103.7 -23.25 -102.25 -23.25 -101.6 -23.85 -100.4 L-24.5 -98.95 -22.95 -97.3 Q-21.2 -95.3 -20.25 -93.25 L-20.2 -93.15 -19.15 -94.25 -15.25 -97.4 -9.8 -97.7 Q-7.45 -97.7 -5.15 -103.15 -4.45 -105.65 -2.35 -106.35 -0.25 -107.0 -0.25 -104.65 -0.25 -101.9 -3.5 -97.3 -7.4 -91.85 -11.35 -93.7 -11.1 -93.85 -11.75 -93.85 -13.65 -93.85 -16.15 -91.95 -18.35 -89.95 -18.5 -89.85 L-17.5 -88.95 Q-17.5 -88.45 -18.0 -88.0 L-18.0 -87.75 Q-18.0 -87.1 -18.4 -86.4 -18.9 -85.65 -19.5 -85.65 -21.0 -85.65 -21.75 -86.65 -22.2 -87.2 -22.9 -89.25 -23.3 -90.55 -24.85 -93.1 -26.0 -95.2 -29.3 -97.25 -31.95 -98.95 -31.95 -100.5 -31.95 -101.3 -31.5 -101.9 -30.9 -102.75 -29.6 -102.75 L-28.35 -102.45 -27.25 -101.9 -27.05 -101.95 -26.95 -102.45 Q-28.75 -105.75 -29.15 -105.75 -30.2 -105.75 -30.95 -104.85 -31.65 -104.0 -32.0 -104.0 -32.7 -104.0 -33.1 -104.9 L-33.35 -105.95 -33.25 -106.5 Q-33.75 -106.1 -34.2 -105.9 -35.85 -105.15 -38.5 -105.35 L-42.25 -105.35 -44.25 -105.25 Q-45.95 -105.25 -46.7 -106.1 M-36.6 -113.4 L-37.85 -111.35 Q-38.65 -110.15 -39.7 -109.85 L-39.9 -109.7 -37.7 -109.35 Q-36.25 -109.35 -33.6 -111.35 L-30.75 -113.85 Q-34.9 -115.7 -36.6 -113.4 M-20.75 -111.3 Q-18.5 -109.7 -18.15 -109.7 L-16.7 -109.75 Q-17.4 -110.0 -17.8 -110.85 L-18.55 -112.35 Q-19.6 -114.1 -23.25 -113.25 L-20.75 -111.3 M-96.75 -90.25 L-95.7 -90.25 -95.75 -91.0 -96.55 -90.45 -96.75 -90.25 M-99.95 -89.55 Q-100.8 -89.4 -101.2 -89.8 L-101.3 -89.6 -101.3 -89.0 -100.1 -89.45 -99.95 -89.55 M-76.4 13.25 Q-71.6 14.2 -67.7 15.85 -65.2 16.9 -61.0 19.25 -49.55 25.55 -41.25 34.6 L-34.1 42.25 Q-30.05 46.85 -28.7 50.0 L-28.05 51.3 Q-25.55 51.25 -24.95 52.1 -24.7 52.45 -24.7 54.35 L-25.1 57.05 -25.0 57.25 Q-22.25 62.9 -22.25 65.1 -22.7 68.35 -24.0 68.35 -25.6 68.35 -26.2 66.9 L-26.7 64.85 -26.8 64.5 -26.85 64.55 -27.65 69.55 -28.4 70.7 -29.65 72.15 -29.65 73.4 Q-29.7 74.35 -31.0 74.35 -32.15 74.35 -32.55 73.25 L-32.75 72.05 -32.25 68.45 Q-32.25 68.2 -32.75 67.9 -33.25 67.6 -33.25 66.55 L-33.25 64.95 -32.8 60.5 -31.75 55.55 -31.45 54.35 -31.6 54.05 Q-34.1 48.15 -42.25 39.65 -51.55 30.05 -57.9 25.8 -73.35 15.55 -91.35 15.55 L-101.7 16.25 -109.6 16.35 -115.65 16.25 -119.45 16.75 -121.65 17.25 Q-124.5 17.25 -125.4 16.0 L-125.75 14.75 Q-125.75 13.65 -125.15 13.4 L-123.0 13.25 -121.3 12.95 -118.75 12.4 -109.1 12.35 -99.15 11.65 Q-92.95 11.1 -86.75 11.5 L-80.25 12.35 -76.4 13.25 M-76.0 32.75 L-75.2 32.5 -74.45 32.25 Q-73.05 32.25 -72.6 33.2 -72.35 33.7 -72.4 34.25 -72.4 35.1 -73.45 36.6 L-75.0 38.75 -76.55 41.8 Q-77.15 42.75 -78.3 42.75 -79.35 42.75 -79.95 42.1 L-80.75 41.25 Q-83.2 40.65 -84.2 40.05 L-87.4 38.5 Q-88.45 37.95 -92.0 37.75 L-95.85 37.2 -98.75 36.5 -105.35 36.1 -107.75 35.5 -109.15 33.95 -109.25 32.5 -108.95 29.75 -108.25 28.45 -107.25 26.9 -107.0 25.5 Q-106.8 24.55 -105.75 24.1 -104.4 23.55 -103.7 24.8 -103.25 25.6 -103.25 26.5 -103.25 27.15 -103.9 29.1 L-104.75 31.75 Q-103.4 32.4 -101.05 32.35 L-98.0 32.35 -96.75 32.8 -95.75 33.1 -91.75 33.6 -86.4 34.1 -85.85 32.15 Q-85.25 31.65 -81.8 31.65 -79.9 31.65 -78.45 32.2 -76.95 32.75 -76.0 32.75 M-116.85 36.25 L-115.45 40.2 -114.25 44.4 -112.4 53.7 Q-112.0 56.35 -112.0 61.0 -112.0 67.3 -112.9 70.4 L-113.25 71.45 -108.5 71.5 Q-104.45 71.9 -100.35 73.1 L-95.5 74.75 Q-89.35 76.85 -86.55 78.45 -83.1 80.4 -83.1 82.4 -83.1 83.25 -83.65 83.85 -84.25 84.5 -85.35 84.5 L-87.5 83.95 -90.5 83.0 Q-90.65 82.55 -91.6 82.35 L-103.25 82.0 Q-111.4 82.0 -113.2 82.2 L-115.0 82.8 -115.45 83.0 -101.8 87.75 Q-92.7 91.25 -92.7 94.2 -92.7 95.2 -93.35 95.75 -93.9 96.25 -94.8 96.25 L-97.3 95.5 -99.9 94.5 -103.7 93.65 -107.5 92.9 -109.25 92.9 Q-106.8 93.05 -105.4 94.6 -104.45 95.7 -104.45 96.7 -104.45 97.95 -105.55 98.65 -107.15 99.65 -111.65 100.35 L-112.25 100.55 -105.65 104.85 Q-102.85 106.75 -102.85 108.7 -102.85 110.0 -104.0 111.0 -105.15 112.05 -108.0 113.15 L-110.15 114.0 -111.0 114.4 Q-110.95 119.9 -104.35 132.55 -97.75 145.4 -97.75 145.75 -98.05 147.75 -98.75 147.75 -101.0 147.75 -105.0 140.95 -107.5 136.65 -109.75 131.5 L-113.3 123.15 Q-114.55 119.5 -114.7 116.05 L-116.0 116.4 Q-117.1 116.4 -117.55 115.75 L-117.75 115.05 Q-117.75 114.0 -117.15 113.4 -116.5 112.75 -114.3 111.7 L-113.85 110.3 -113.35 109.1 -112.45 107.9 Q-111.45 107.1 -110.6 107.35 -109.85 107.55 -109.85 108.35 L-110.05 109.4 Q-107.9 108.55 -107.65 108.3 -108.3 107.85 -115.3 103.75 -119.0 101.6 -119.0 99.9 -119.0 98.65 -117.7 97.9 -116.25 97.05 -112.25 96.15 -114.65 95.15 -117.1 95.15 L-121.7 95.35 Q-124.4 95.35 -125.15 94.45 L-125.35 93.5 Q-125.35 91.85 -122.75 90.4 -118.9 88.3 -110.95 88.75 -121.45 85.35 -122.55 83.2 -125.0 85.65 -126.25 87.25 L-131.85 95.8 -131.4 97.2 -131.0 99.0 Q-131.0 99.7 -131.25 100.25 -131.75 101.35 -133.1 101.35 -134.35 101.35 -135.75 99.2 -136.95 97.3 -136.95 96.6 -136.95 95.6 -137.45 94.15 L-138.1 92.0 Q-138.35 90.35 -139.9 87.35 L-142.25 82.8 Q-144.85 77.1 -147.9 72.0 -151.4 66.15 -153.5 64.5 -151.6 70.35 -151.0 74.3 L-150.95 75.45 Q-150.85 76.35 -150.35 76.9 L-149.1 78.05 Q-148.3 78.7 -147.85 79.3 -146.15 81.55 -146.0 82.0 L-145.95 84.1 -146.05 86.1 Q-146.55 87.75 -148.3 87.75 -149.9 87.75 -150.55 86.65 L-151.25 84.9 Q-151.75 84.15 -152.65 84.0 L-154.1 83.6 Q-154.8 83.05 -154.9 82.4 L-154.75 79.8 Q-154.6 78.7 -156.75 77.25 L-163.7 72.0 -166.05 69.5 -168.5 66.9 -165.95 74.6 Q-164.0 80.95 -164.0 83.5 -164.0 84.5 -164.15 84.9 -164.6 86.1 -166.1 86.1 -167.6 86.1 -168.6 84.3 L-169.5 82.1 Q-170.65 80.55 -172.75 78.3 L-176.75 74.5 -180.75 71.0 -179.05 73.5 Q-177.85 75.25 -177.65 76.0 -176.55 79.35 -175.0 81.0 L-170.45 85.95 Q-167.8 88.9 -166.65 90.8 -162.55 97.55 -161.5 101.1 -160.65 104.1 -160.65 110.4 L-160.65 114.25 Q-160.95 117.6 -162.35 117.6 -165.3 117.6 -165.8 114.4 -165.8 110.65 -166.15 109.55 L-166.8 105.65 Q-167.15 103.05 -167.9 101.55 -169.15 98.95 -170.35 97.35 L-173.5 93.35 Q-175.85 90.65 -176.45 89.35 L-177.1 87.5 Q-177.75 85.9 -178.35 85.9 -180.4 85.9 -181.6 84.4 -182.4 83.45 -182.5 82.6 L-182.65 80.8 Q-182.9 79.8 -183.75 79.3 -192.5 74.35 -197.95 73.4 L-198.25 73.5 -196.6 79.7 Q-195.0 85.95 -195.0 87.3 -195.1 89.6 -196.5 89.6 -198.85 89.6 -199.95 87.9 L-200.95 85.55 Q-201.9 84.05 -205.7 81.35 -209.5 78.4 -211.45 77.0 -214.8 74.65 -217.95 73.4 L-214.25 90.05 Q-212.35 98.65 -212.35 105.7 L-212.45 109.5 -213.25 114.0 Q-213.8 117.1 -217.3 119.65 -220.3 121.8 -222.25 121.8 -228.8 121.8 -233.85 115.1 -238.15 109.4 -238.15 104.7 -238.15 101.75 -236.5 101.75 -235.15 101.75 -234.65 103.6 L-234.35 105.9 Q-233.7 108.0 -232.65 109.9 -231.2 112.45 -229.05 114.6 -225.9 117.75 -223.25 117.75 -218.35 117.75 -216.95 111.85 L-216.5 105.6 Q-216.5 100.85 -217.2 97.35 L-219.25 87.4 Q-219.65 85.15 -221.35 78.25 L-223.95 69.2 Q-223.95 67.1 -221.5 67.1 -218.55 67.1 -210.55 72.55 L-201.25 79.15 -202.8 74.05 -203.95 70.25 Q-203.95 69.25 -203.65 68.75 -203.1 67.9 -201.5 67.9 L-196.65 69.2 Q-192.0 70.55 -191.0 71.0 L-183.9 74.35 -183.85 74.3 Q-184.45 73.05 -186.3 70.95 L-189.35 67.3 Q-189.55 67.05 -193.2 64.1 -196.15 61.75 -196.15 60.4 -196.15 58.3 -193.45 58.3 -188.85 58.3 -184.95 61.25 -182.75 62.9 -179.25 66.35 -178.05 67.3 -174.8 70.6 L-170.1 74.8 -173.1 67.25 -175.0 63.9 Q-176.95 60.5 -176.95 59.6 -176.95 57.5 -174.8 57.5 -174.0 57.5 -171.5 59.1 -170.15 59.9 -168.35 61.1 -167.25 61.75 -166.15 62.95 L-164.5 64.9 -161.0 68.6 Q-158.5 70.9 -155.7 72.3 L-158.1 64.5 Q-161.25 57.55 -161.25 56.7 -161.25 54.55 -159.25 54.55 -158.65 54.55 -155.15 57.45 L-150.5 61.5 Q-146.7 65.15 -145.0 68.5 L-141.05 75.45 Q-138.4 79.95 -137.65 82.5 L-137.5 82.5 -138.35 78.05 -139.25 73.5 -140.05 69.0 -141.0 64.5 Q-141.45 62.1 -143.55 54.15 L-145.5 46.5 -145.4 45.35 Q-145.05 44.15 -143.5 44.15 -142.2 44.15 -138.5 48.2 -135.05 52.0 -133.45 54.75 L-133.25 54.6 Q-134.9 50.1 -136.15 48.0 L-139.1 44.6 Q-140.75 42.85 -140.75 41.5 -140.75 40.85 -140.35 40.25 -139.75 39.35 -138.7 39.35 -137.15 39.35 -134.5 41.6 L-131.5 44.55 Q-129.35 46.85 -128.0 49.75 L-125.3 55.0 Q-123.55 58.4 -123.1 60.35 L-122.95 60.4 Q-122.5 57.95 -122.4 54.15 L-122.35 47.7 -122.35 41.1 -122.65 37.2 -122.9 34.5 Q-122.9 31.45 -120.7 31.7 -118.45 31.95 -116.85 36.25 M-127.25 60.8 L-126.9 63.5 -126.45 66.25 -126.25 68.9 -125.95 71.6 -125.95 71.75 -125.2 69.8 -124.75 67.55 Q-124.75 65.95 -125.6 64.0 L-127.25 60.75 -127.25 60.8 M-138.75 54.8 L-136.6 64.45 -134.5 74.4 Q-132.85 84.0 -131.9 94.25 L-131.75 94.5 Q-126.9 87.55 -121.65 76.75 L-121.5 76.6 -123.2 76.8 -124.8 76.6 -125.5 75.9 -125.3 80.0 Q-125.35 82.75 -127.7 82.75 -129.65 82.75 -130.15 80.0 L-130.5 75.55 -132.0 68.55 Q-134.25 59.65 -138.75 54.75 L-138.75 54.8 M-119.35 65.55 L-120.1 68.05 -119.65 72.2 -118.2 71.65 Q-116.65 68.6 -116.35 66.9 -116.15 65.95 -116.15 61.0 -116.15 54.6 -118.25 46.1 L-118.25 57.15 Q-118.35 60.2 -119.0 62.75 L-119.35 65.55 M-115.2 75.1 L-117.85 78.4 -119.6 80.25 -117.5 79.5 Q-110.4 77.25 -98.7 77.75 -103.6 75.0 -113.0 75.1 L-115.2 75.1" fill="#000000" fill-opacity="0.15294118" fill-rule="evenodd" stroke="none"/>
  </g>
  <defs>
    <linearGradient gradientTransform="matrix(0.0311, -0.084, 0.0573, 0.0212, -50.55, -23.6)" gradientUnits="userSpaceOnUse" id="gradient0" spreadMethod="pad" x1="-819.2" x2="819.2">
      <stop offset="0.0" stop-color="#372d52"/>
      <stop offset="1.0" stop-color="#8d7cb6"/>
    </linearGradient>
  </defs>
</svg>
