<?xml version="1.0" encoding="UTF-8" standalone="no"?>
<svg xmlns:xlink="http://www.w3.org/1999/xlink" height="273.4px" width="339.9px" xmlns="http://www.w3.org/2000/svg">
  <g transform="matrix(1.0, 0.0, 0.0, 1.0, -52.85, 161.85)">
    <path d="M293.85 -151.85 Q296.1 -152.5 297.25 -153.3 L300.15 -155.25 Q302.65 -156.8 303.75 -156.8 305.0 -156.8 306.2 -155.65 307.15 -154.7 307.25 -153.95 308.25 -154.35 312.4 -158.25 315.85 -161.5 319.35 -161.8 323.6 -162.15 323.3 -159.0 L322.7 -156.25 Q322.3 -154.55 322.5 -153.8 L326.15 -152.75 328.25 -152.55 Q330.75 -152.55 331.9 -150.8 332.5 -149.8 332.5 -148.9 332.5 -146.25 329.2 -145.0 L325.15 -143.35 325.2 -143.25 327.1 -138.8 Q327.55 -137.5 329.2 -134.3 330.65 -131.4 331.1 -129.7 332.1 -125.95 334.0 -120.9 L335.4 -124.7 336.25 -126.25 Q336.35 -127.95 337.1 -128.9 339.0 -128.95 340.1 -127.65 341.05 -127.05 341.4 -125.3 L341.35 -124.85 341.65 -120.7 Q341.65 -116.6 337.0 -96.75 332.15 -75.95 331.85 -72.3 333.65 -74.05 337.4 -79.1 339.55 -81.95 341.25 -81.95 L342.25 -81.8 342.75 -81.45 Q343.1 -84.0 345.35 -82.25 L346.5 -81.2 348.4 -82.1 Q349.25 -82.45 350.2 -81.85 L352.0 -80.7 354.15 -80.45 Q355.15 -80.25 355.15 -79.35 355.15 -77.65 350.45 -73.8 L351.15 -70.8 351.7 -63.5 Q352.0 -59.0 352.4 -56.15 L352.5 -56.05 Q353.4 -56.55 358.3 -60.1 L359.85 -61.15 Q361.65 -64.15 363.35 -64.1 364.25 -64.05 364.7 -63.4 L365.25 -63.25 365.8 -62.8 365.95 -62.55 366.05 -61.65 Q366.05 -61.3 364.5 -59.6 L361.0 -51.05 356.0 -38.95 352.0 -27.75 Q349.6 -21.05 348.65 -16.1 L348.65 -15.7 348.75 -15.7 354.7 -16.85 360.4 -18.6 364.0 -20.3 Q367.15 -21.85 367.8 -21.85 370.8 -21.85 370.8 -20.05 370.8 -17.3 363.45 -13.45 355.1 -9.1 345.75 -9.1 343.95 -9.1 343.0 -10.1 342.25 -10.9 342.25 -12.15 342.25 -16.7 345.8 -26.65 L351.0 -40.15 353.75 -47.05 355.4 -50.9 Q350.6 -46.65 349.8 -46.65 347.1 -46.65 346.75 -53.0 L346.65 -63.55 345.95 -70.4 342.0 -67.7 328.75 -59.4 328.45 -59.4 327.5 -58.55 Q324.9 -58.55 324.25 -60.15 324.1 -60.5 324.1 -62.05 324.1 -63.75 327.6 -79.4 L332.5 -100.35 333.5 -104.35 Q330.0 -104.55 328.9 -109.05 L328.0 -115.9 326.45 -121.55 324.75 -127.15 320.2 -137.8 319.1 -140.5 317.0 -139.4 309.5 -134.55 302.5 -129.95 Q297.4 -126.9 288.8 -120.2 L286.4 -117.35 286.05 -116.75 290.3 -110.1 Q297.8 -95.85 300.5 -89.0 305.05 -77.45 305.05 -67.9 305.05 -64.6 303.75 -63.65 301.8 -62.2 292.0 -59.4 290.45 -59.0 287.4 -57.25 L285.1 -56.0 286.4 -53.9 291.35 -46.3 Q294.65 -41.3 296.05 -38.45 299.6 -31.2 301.2 -23.2 302.55 -16.35 302.55 -8.1 302.55 15.7 295.5 32.85 L291.6 43.4 290.65 45.7 293.2 44.05 307.0 35.7 Q314.9 30.65 324.7 23.35 332.9 17.2 335.05 16.1 338.7 14.2 339.95 16.75 341.15 19.2 341.15 28.05 L341.05 38.05 Q340.85 49.55 340.1 59.05 337.8 89.3 331.5 89.3 328.7 89.3 328.0 87.55 L327.85 85.6 Q327.85 84.5 330.05 72.75 332.3 60.9 332.35 58.8 L332.4 56.9 331.25 57.05 Q330.35 57.05 329.25 56.45 L328.05 55.75 325.6 59.8 Q323.1 63.05 319.5 63.05 317.45 63.05 316.45 61.5 315.8 60.45 315.8 59.5 L315.75 59.25 315.65 59.35 312.95 62.15 Q309.95 64.8 307.75 64.8 305.0 64.8 304.25 63.2 L304.0 61.5 Q304.0 60.9 304.55 59.8 L305.05 58.05 305.0 57.05 303.85 56.55 302.5 56.25 293.4 62.9 Q284.25 69.5 283.3 69.5 280.15 69.5 279.25 67.65 L279.0 65.6 279.1 64.7 273.8 68.6 271.25 70.4 266.65 73.55 265.95 72.75 Q263.9 72.4 263.9 70.6 263.9 68.9 267.35 65.35 268.4 63.35 270.0 60.9 272.05 57.75 277.15 51.1 280.4 46.95 283.1 41.35 284.8 37.75 287.3 31.25 L282.8 31.3 Q282.0 31.3 281.95 31.85 L282.0 32.5 280.5 32.3 280.8 30.5 281.05 28.55 Q281.05 27.95 280.55 27.3 280.05 26.65 280.05 26.0 280.05 25.4 280.55 23.15 L281.0 20.3 280.25 19.05 Q279.45 18.05 279.25 16.55 L279.05 13.25 279.25 6.5 Q277.3 6.25 276.55 5.8 274.25 12.55 273.8 17.75 L273.65 20.7 Q273.5 22.55 273.0 23.75 268.05 29.3 267.0 29.3 261.95 29.3 257.85 22.45 255.65 18.7 254.05 13.5 255.25 22.15 255.25 23.4 255.25 24.8 254.5 25.75 253.55 27.05 251.5 27.05 250.8 27.05 248.6 24.55 246.4 22.05 246.05 20.8 245.35 18.3 244.75 14.8 L244.0 9.05 243.3 2.8 241.35 -9.9 Q239.8 -20.05 239.8 -21.3 L239.85 -22.4 Q237.85 -24.35 237.85 -24.6 237.85 -28.5 242.2 -25.9 L243.75 -26.1 Q246.15 -26.1 247.2 -24.15 247.7 -23.2 247.75 -22.1 L247.75 -21.65 249.25 -20.2 251.0 -18.5 Q253.45 -15.95 254.45 -14.2 L256.0 -10.6 258.15 -2.8 260.05 5.05 260.25 5.25 260.3 5.2 265.45 -3.9 269.55 -11.1 Q276.75 -22.25 281.55 -27.6 287.7 -34.45 291.8 -26.95 289.3 -34.75 284.75 -42.5 L277.9 -53.5 274.4 -52.3 Q272.15 -52.3 271.5 -53.4 271.25 -53.8 271.25 -54.65 271.25 -57.45 272.75 -59.15 273.5 -60.05 274.75 -60.75 L274.65 -61.55 Q274.65 -63.75 276.6 -64.6 278.5 -65.4 280.65 -62.8 L281.15 -62.9 Q282.45 -63.15 284.8 -64.4 L289.55 -66.95 Q290.8 -67.55 295.0 -68.8 296.8 -69.35 296.8 -70.7 296.8 -77.4 291.35 -89.35 L282.4 -107.45 280.05 -111.25 Q278.6 -111.5 278.05 -113.15 L277.95 -114.25 276.2 -116.6 Q271.5 -123.0 270.4 -125.9 L270.15 -126.5 270.0 -126.7 262.4 -138.35 262.55 -139.15 Q259.5 -143.9 259.5 -144.3 259.5 -145.6 260.6 -146.65 262.15 -148.1 265.0 -146.9 266.4 -146.15 267.8 -144.55 L269.1 -142.95 269.65 -142.8 269.8 -142.7 Q269.5 -143.6 269.5 -144.15 269.5 -146.05 271.35 -147.25 270.65 -149.5 270.65 -150.85 270.65 -152.15 271.2 -153.0 271.95 -154.3 273.65 -154.3 276.8 -154.3 278.45 -149.15 L280.55 -141.65 Q283.3 -143.05 286.1 -145.7 L290.75 -150.3 Q291.85 -151.3 293.85 -151.85 M196.45 -112.1 L197.05 -112.6 202.05 -109.45 206.55 -104.2 Q207.85 -102.75 209.1 -99.1 210.25 -95.6 210.25 -93.7 210.25 -92.6 209.6 -91.8 208.65 -90.7 206.8 -90.7 204.55 -90.7 203.55 -91.8 202.75 -93.15 202.05 -93.6 L200.65 -91.85 198.9 -90.2 195.2 -89.35 192.3 -88.85 Q189.45 -88.85 188.2 -93.1 187.4 -95.65 187.4 -98.55 187.4 -99.2 186.8 -100.35 186.15 -101.55 186.15 -102.1 L186.15 -104.9 186.45 -107.5 Q186.8 -109.5 187.15 -109.95 189.45 -112.8 191.25 -112.55 L194.1 -111.7 196.45 -112.1 M192.95 -104.8 Q192.15 -104.8 191.8 -104.45 L193.9 -104.7 192.95 -104.8 M242.25 -84.15 Q242.25 -86.95 248.55 -87.9 L262.45 -87.45 Q270.9 -86.05 276.35 -82.85 282.65 -79.1 282.65 -74.05 L282.3 -72.5 Q281.8 -71.2 280.9 -71.2 278.2 -71.2 276.55 -73.0 L274.8 -75.45 273.0 -77.3 Q271.25 -78.75 268.65 -79.2 L263.9 -80.4 259.25 -81.95 256.1 -82.2 250.6 -81.95 245.6 -81.7 Q243.65 -81.7 242.75 -82.8 242.25 -83.45 242.25 -84.15 M217.05 -90.15 L211.3 -78.7 Q205.5 -67.55 205.5 -63.3 205.5 -63.15 209.75 -61.7 215.2 -59.0 221.1 -53.05 222.3 -51.85 224.85 -42.7 L224.85 -42.05 Q225.5 -40.4 225.5 -39.05 225.5 -35.7 223.85 -35.7 220.0 -35.7 216.5 -42.65 214.65 -46.15 207.55 -49.05 L204.95 -49.35 201.4 -49.4 Q198.8 -49.1 197.65 -49.75 L196.3 -51.05 Q195.25 -51.75 194.7 -52.75 L193.8 -54.4 Q193.0 -55.7 191.55 -56.3 L188.9 -56.4 184.25 -56.55 Q182.5 -56.7 181.75 -57.9 181.25 -58.65 181.25 -59.6 181.25 -62.25 185.9 -62.9 191.1 -63.6 197.05 -60.4 L197.25 -60.25 197.3 -60.35 Q197.7 -63.0 198.8 -66.8 200.65 -73.05 203.35 -78.7 210.45 -93.5 216.8 -91.45 L216.95 -91.15 217.05 -90.15 M195.6 -39.0 Q199.25 -39.85 199.25 -36.15 199.25 -32.9 197.45 -25.15 L195.3 -15.7 Q194.4 -9.4 194.75 4.2 194.75 6.35 196.05 7.4 198.0 9.05 199.3 12.1 199.95 13.65 200.05 15.95 L200.05 19.95 Q200.05 22.85 200.55 28.9 L201.05 35.15 Q201.05 39.1 200.55 44.8 199.8 53.8 198.3 53.8 194.35 53.8 193.7 49.9 L193.8 44.6 194.15 40.1 Q194.4 37.35 194.05 35.6 193.2 31.95 193.15 26.55 L193.05 17.7 Q190.65 17.25 189.15 15.2 187.9 13.5 187.9 11.85 L187.7 9.0 187.4 6.2 187.3 -5.3 Q187.3 -12.55 187.45 -14.45 187.8 -19.35 189.3 -24.2 190.45 -28.2 191.3 -33.6 191.9 -38.1 195.6 -39.0 M392.15 -58.65 Q392.75 -57.65 392.75 -56.2 392.75 -49.85 383.75 -35.7 375.15 -22.2 372.65 -22.2 368.7 -22.2 368.55 -25.5 368.5 -27.25 368.15 -27.8 367.5 -28.85 365.35 -28.85 363.3 -28.85 362.65 -30.2 L362.4 -31.7 Q362.4 -32.6 365.95 -39.65 369.9 -47.6 373.85 -53.8 385.45 -72.1 386.55 -59.15 L386.55 -58.9 386.65 -58.9 386.7 -58.9 387.65 -59.55 389.3 -60.05 Q391.25 -60.05 392.15 -58.65 M343.0 -79.1 L342.9 -79.4 342.75 -78.95 343.0 -79.1 M350.9 26.05 Q350.9 16.55 355.55 3.15 360.8 -11.95 366.55 -12.35 360.8 -4.4 357.15 7.35 355.1 13.9 351.55 26.35 350.9 27.3 350.9 26.05 M267.05 10.05 L264.15 12.9 262.8 14.1 Q262.8 14.9 264.1 17.2 L265.8 19.8 Q266.15 15.95 267.05 10.3 L267.05 10.05 M225.75 11.2 L232.15 6.75 Q237.75 3.5 237.75 7.4 237.75 11.7 227.6 17.6 218.85 22.7 217.1 22.7 215.15 22.7 214.5 21.15 L214.25 19.45 Q214.25 18.1 219.85 14.6 L225.75 11.2 M192.5 43.9 Q192.5 45.7 188.0 48.7 182.35 52.1 180.15 53.85 L173.4 58.3 Q171.9 59.35 171.55 60.7 171.35 61.45 171.3 63.1 170.45 68.25 169.3 72.65 175.05 75.05 177.8 78.15 L179.95 81.15 182.0 84.55 Q182.6 85.5 184.2 85.95 185.8 86.4 186.3 87.3 L187.55 90.3 188.65 96.6 189.5 102.45 Q189.5 104.15 188.75 105.3 187.75 106.9 185.55 106.9 182.85 106.9 178.55 97.25 L172.4 83.8 Q170.75 81.3 167.1 79.0 165.7 81.9 164.3 81.9 161.6 81.9 160.75 80.05 L160.4 78.05 160.65 75.8 Q156.95 74.35 153.0 73.8 148.15 73.1 143.3 71.65 140.3 70.75 131.25 70.35 130.3 70.35 126.0 68.3 L122.25 67.95 120.0 68.3 Q119.6 68.3 119.1 67.7 L118.35 66.85 Q121.25 62.8 124.55 63.7 126.4 64.2 129.5 65.8 L140.5 66.55 143.75 67.2 148.0 68.05 Q155.55 68.65 161.7 70.15 L164.3 57.8 Q164.75 55.65 168.95 52.65 172.1 50.3 176.55 48.1 185.6 43.6 186.55 42.85 188.4 41.3 190.5 41.8 192.5 42.25 192.5 43.9 M166.55 107.05 L161.9 105.05 Q158.0 103.4 156.9 102.55 L152.1 98.95 151.0 98.15 151.6 99.25 151.7 99.45 Q153.4 102.7 153.4 103.15 L153.25 105.1 Q152.95 106.15 152.15 106.15 149.8 106.15 146.4 102.75 L142.5 98.55 136.45 94.65 Q132.85 92.3 131.5 90.65 128.7 86.1 125.25 82.8 L124.2 81.8 122.05 81.25 Q117.45 80.05 113.5 80.05 L96.6 81.0 Q91.75 81.6 84.55 83.05 80.6 83.8 77.45 85.45 L71.65 88.4 69.15 89.45 69.6 90.3 Q70.4 92.15 70.75 92.65 L72.25 94.05 Q73.15 94.75 73.15 95.55 73.15 96.45 72.15 97.4 70.9 98.65 68.9 98.65 66.8 98.65 65.35 96.35 64.25 94.05 63.9 93.9 61.9 94.3 60.6 93.95 60.2 94.65 59.5 96.65 58.3 98.9 55.85 98.9 53.8 98.9 53.1 97.6 52.85 97.05 52.85 96.1 52.85 91.95 55.45 89.1 58.7 85.55 67.0 82.3 L69.05 81.65 78.9 77.05 Q82.25 75.45 84.9 73.55 87.55 72.25 95.5 70.8 101.8 69.65 106.45 69.75 L116.5 70.8 121.45 72.2 Q124.25 73.25 125.25 73.85 L126.9 74.95 Q134.85 76.75 142.75 80.35 150.05 83.7 157.0 88.65 L167.2 97.35 Q177.15 106.2 177.15 108.15 177.15 109.1 176.55 110.05 175.55 111.55 173.3 111.55 170.6 111.55 169.0 109.7 L166.55 107.05 M152.4 57.05 L149.75 58.85 148.15 61.2 Q147.4 62.55 146.65 63.1 L146.35 63.75 Q145.85 64.65 145.0 65.05 143.1 62.6 139.55 62.65 L133.6 62.55 Q133.35 62.95 133.35 61.7 133.35 61.0 136.85 60.05 140.05 59.2 142.0 59.1 L144.35 58.05 Q146.1 57.15 148.15 57.55 L148.35 57.7 148.5 58.05 149.55 57.2 Q153.15 54.4 154.0 54.1 155.1 54.45 155.25 55.1 154.55 55.85 152.4 57.05 M139.95 87.65 Q139.35 86.8 138.05 86.2 L140.25 88.55 140.5 88.75 139.95 87.65" fill="#000000" fill-opacity="0.15294118" fill-rule="evenodd" stroke="none"/>
  </g>
</svg>
