<?xml version="1.0" encoding="UTF-8" standalone="no"?>
<svg xmlns:xlink="http://www.w3.org/1999/xlink" height="14.0px" width="78.45px" xmlns="http://www.w3.org/2000/svg">
  <g transform="matrix(1.0, 0.0, 0.0, 1.0, -0.05, 0.5)">
    <path d="M70.6 -0.15 Q73.85 0.05 76.1 2.2 78.15 4.15 78.5 6.9 78.3 8.35 76.95 9.05 66.9 14.35 56.8 9.7 55.0 8.85 53.65 7.55 L53.65 7.1 Q53.65 5.9 54.1 4.85 55.4 2.0 58.5 1.0 61.55 0.0 64.45 -0.5 L70.6 -0.15 M10.3 6.9 Q11.3 10.9 7.3 12.75 3.45 14.55 0.3 12.1 L0.1 11.1 Q0.0 9.9 0.2 8.75 0.6 6.8 1.9 5.4 3.0 4.25 4.5 4.1 L4.5 4.0 Q9.3 2.8 10.3 6.9" fill="#ffff66" fill-rule="evenodd" stroke="none"/>
  </g>
</svg>
