<?xml version="1.0" encoding="UTF-8" standalone="no"?>
<svg xmlns:xlink="http://www.w3.org/1999/xlink" height="128.0px" width="222.65px" xmlns="http://www.w3.org/2000/svg">
  <g transform="matrix(1.0, 0.0, 0.0, 1.0, 0.0, 0.0)">
    <path d="M50.35 127.3 L50.05 127.45 50.0 128.0 49.5 128.0 Q46.45 126.7 44.15 123.05 L39.65 115.8 Q36.25 110.35 33.25 104.65 L28.4 95.6 24.4 88.45 22.3 84.6 21.05 82.05 20.25 80.7 Q18.65 78.4 17.3 75.75 L11.15 63.45 Q6.55 54.05 2.7 44.35 1.3 40.75 0.25 36.9 L0.05 36.9 0.0 31.65 Q0.0 31.2 0.35 30.7 L0.7 29.75 0.7 26.0 0.65 22.05 Q0.65 20.1 1.1 19.15 L1.2 14.5 1.3 9.2 1.35 9.15 2.2 8.75 2.55 8.4 15.65 7.5 28.4 6.8 52.85 5.55 68.8 4.85 83.05 4.25 92.4 3.9 99.3 3.6 102.65 3.45 107.8 3.05 125.0 1.65 153.6 0.0 156.6 0.05 158.55 0.2 158.85 0.5 158.35 0.55 Q162.0 4.1 164.45 8.4 167.3 13.55 170.5 18.3 L175.05 25.3 180.85 33.95 Q183.35 37.45 186.1 40.6 L191.75 47.25 198.4 55.6 204.45 63.55 209.35 69.95 213.6 75.15 214.35 75.3 214.7 75.75 215.3 76.9 215.3 77.2 222.65 84.7 222.0 95.0 221.9 95.05 220.55 96.65 219.65 97.05 215.6 102.1 217.75 103.15 Q221.6 105.5 221.6 105.95 L221.6 106.05 221.6 106.1 221.75 107.7 221.95 110.55 222.25 112.2 222.15 113.15 222.15 113.2 222.1 113.35 221.85 113.8 219.8 114.0 214.45 114.15 211.3 114.55 204.75 114.7 193.7 115.4 190.05 116.3 166.55 117.9 140.45 119.9 101.8 123.55 84.35 125.3 63.75 126.75 60.75 126.6 54.5 127.3 52.7 127.15 50.4 127.25 50.35 127.3 M178.0 76.25 L164.95 76.9 155.65 78.45 155.8 79.7 178.75 78.55 178.0 76.25 M175.6 29.45 L169.2 19.3 157.1 0.75 140.45 2.6 131.45 3.3 102.45 5.3 46.65 8.4 18.95 9.3 4.45 9.5 2.45 9.3 2.5 9.8 8.7 20.05 Q12.75 26.65 15.0 31.5 L21.05 42.9 27.0 54.3 33.3 65.8 39.7 77.25 45.5 88.2 Q49.05 86.7 60.9 86.05 L63.7 85.9 65.7 83.15 Q67.9 80.2 68.2 80.0 69.05 79.15 70.35 76.45 L71.3 75.4 Q71.6 74.65 73.6 74.15 L83.2 73.0 93.55 71.7 99.45 70.8 Q102.0 70.8 105.5 73.8 L108.95 77.3 112.45 80.35 114.2 82.1 115.2 81.8 Q119.3 80.45 127.65 80.75 L135.8 81.3 143.25 81.15 143.25 80.75 143.25 80.5 143.25 80.1 143.45 79.45 143.7 78.7 144.3 77.85 145.5 75.7 148.25 71.25 Q149.5 68.85 156.5 68.55 168.25 68.05 175.95 66.3 179.0 65.6 181.55 67.8 L185.0 71.0 188.45 74.5 189.7 76.15 207.95 75.05 211.45 75.1 Q205.25 68.5 199.25 59.5 196.65 55.55 191.6 49.6 L183.0 39.55 Q179.35 35.15 175.6 29.45 M170.3 43.35 L172.7 47.0 175.0 50.65 175.85 52.5 Q173.3 53.55 170.65 53.8 L165.05 54.65 142.5 56.65 100.65 60.45 86.65 61.45 72.65 62.4 58.6 63.2 49.35 63.7 49.35 63.65 49.0 63.65 47.5 63.5 Q47.45 62.95 47.65 62.6 L46.9 61.95 Q44.65 59.35 43.15 56.15 39.45 48.2 35.25 40.6 L34.2 38.8 33.25 36.85 32.5 34.9 32.25 34.05 33.0 30.9 33.3 30.15 123.15 24.95 152.85 22.2 152.75 22.0 154.55 22.25 154.6 22.25 154.9 22.6 158.2 26.7 168.3 40.35 170.3 43.35 M218.65 105.15 L217.3 104.4 216.7 104.1 216.85 104.35 216.45 104.15 214.15 103.1 Q214.3 103.0 214.05 102.9 L213.65 102.7 213.0 101.75 218.2 96.3 Q220.75 93.75 220.7 89.85 220.7 88.25 221.05 86.7 L211.1 87.4 204.35 88.25 195.35 89.0 178.9 89.9 157.2 91.55 120.35 93.9 85.15 96.95 68.65 97.6 59.65 98.0 57.5 98.5 54.15 98.65 51.5 99.0 52.0 100.05 51.85 100.45 51.4 100.8 51.5 104.55 Q55.65 107.25 58.5 111.3 58.95 111.9 58.95 112.65 56.85 117.25 52.45 120.15 L50.35 121.7 50.25 122.95 50.3 125.85 50.4 125.8 59.1 125.3 68.3 124.95 79.6 124.3 119.05 120.4 166.3 116.4 180.3 115.4 185.05 115.15 191.3 114.4 220.0 112.6 Q220.15 112.8 220.45 112.8 221.15 112.8 221.15 112.05 L221.0 111.2 220.8 110.65 220.9 109.85 220.55 108.4 220.45 107.9 220.3 106.4 219.85 106.1 219.05 105.4 218.65 105.15 M206.1 81.7 L206.15 83.45 211.45 82.5 209.5 79.8 207.0 80.5 206.1 81.7 M122.5 36.8 L121.45 37.0 121.25 37.0 120.2 36.65 118.8 36.7 117.65 36.85 116.95 36.95 115.9 36.85 116.4 38.4 Q117.7 43.8 115.3 48.85 112.85 53.95 106.9 54.9 L101.45 55.25 Q95.8 55.5 91.65 51.65 87.55 47.8 87.25 42.05 87.15 40.35 87.6 39.0 L84.15 39.5 82.9 39.65 82.95 39.55 78.75 39.9 73.4 39.75 73.85 41.25 Q74.85 46.35 73.35 51.45 72.7 53.6 70.65 54.85 66.05 57.7 60.6 58.5 55.35 59.15 50.75 56.4 46.05 53.5 44.55 48.1 43.35 44.35 45.35 40.85 L45.5 40.6 44.25 40.75 41.9 41.2 40.0 41.5 38.5 41.35 38.1 41.3 48.35 61.9 48.45 61.85 49.55 61.7 173.35 51.45 160.2 33.1 159.55 33.15 158.7 32.95 159.05 33.65 Q161.4 38.45 159.95 43.75 158.6 48.9 153.55 50.45 148.3 52.15 142.95 51.95 137.45 51.4 133.65 47.45 130.05 43.75 129.95 38.6 130.05 37.1 130.65 35.75 L125.6 36.0 123.35 36.35 122.95 36.55 122.5 36.8 M132.45 40.5 Q133.2 43.25 135.85 43.95 140.95 45.3 146.0 44.05 L146.05 43.0 Q150.7 44.75 154.9 41.55 158.2 39.1 158.45 35.3 L155.85 35.1 155.7 34.1 157.6 33.25 Q152.75 29.0 146.1 30.1 L143.3 30.75 142.8 32.5 141.8 30.6 Q133.55 31.25 131.95 38.8 L134.55 38.6 132.45 40.5 M99.05 33.55 Q95.5 34.2 92.45 36.05 91.25 36.8 90.45 37.8 L90.45 37.95 90.0 38.4 Q89.05 39.7 88.75 41.4 L91.7 41.85 88.85 43.05 Q89.7 45.75 92.5 46.65 97.8 48.4 103.35 47.2 L102.9 45.45 104.0 44.95 104.85 46.95 Q109.5 46.25 113.3 43.2 115.5 41.4 115.15 38.9 L112.05 38.65 114.25 36.3 Q112.0 34.75 109.3 34.0 105.05 32.75 100.75 33.45 L101.2 35.35 99.5 35.25 99.05 33.55 M100.6 28.65 L100.35 28.75 101.3 28.75 100.6 28.65 M120.4 31.75 L120.6 32.8 120.7 32.75 120.4 31.75 M101.25 82.75 L101.3 80.4 77.7 83.05 77.05 84.0 80.25 85.1 Q91.0 85.75 101.25 82.75 M129.0 87.55 Q129.3 87.15 129.2 86.7 129.2 85.1 127.6 85.65 126.0 86.15 125.45 88.15 L125.7 88.35 126.1 88.4 Q128.35 88.4 129.0 87.55 M56.05 90.95 Q54.0 90.25 52.5 92.3 52.65 93.1 53.3 94.25 54.2 96.0 55.25 96.0 56.4 96.0 57.25 94.75 57.95 93.75 57.95 93.0 57.95 91.6 56.05 90.95 M46.75 44.55 L48.8 44.75 48.0 46.9 46.3 47.05 Q51.75 53.55 59.7 50.45 L59.8 48.65 61.55 49.8 65.0 49.25 Q72.05 47.95 72.3 41.2 L71.75 42.0 69.7 41.4 70.9 39.4 Q65.1 35.1 57.55 36.65 L57.0 39.15 55.2 37.4 Q48.3 38.05 46.75 44.55" fill="#000000" fill-rule="evenodd" stroke="none"/>
    <path d="M170.3 43.35 L168.3 40.35 158.2 26.7 154.9 22.6 154.6 22.25 154.55 22.25 152.75 22.0 152.85 22.2 123.15 24.95 33.3 30.15 33.0 30.9 32.25 34.05 32.5 34.9 33.25 36.85 34.2 38.8 35.25 40.6 Q39.45 48.2 43.15 56.15 44.65 59.35 46.9 61.95 L47.65 62.6 Q47.45 62.95 47.5 63.5 L49.0 63.65 49.35 63.65 49.35 63.7 58.6 63.2 72.65 62.4 86.65 61.45 100.65 60.45 142.5 56.65 165.05 54.65 170.65 53.8 Q173.3 53.55 175.85 52.5 L175.0 50.65 172.7 47.0 170.3 43.35 M175.6 29.45 Q179.35 35.15 183.0 39.55 L191.6 49.6 Q196.65 55.55 199.25 59.5 205.25 68.5 211.45 75.1 L207.95 75.05 189.7 76.15 188.45 74.5 185.0 71.0 181.55 67.8 Q179.0 65.6 175.95 66.3 168.25 68.05 156.5 68.55 149.5 68.85 148.25 71.25 L145.5 75.7 144.3 77.85 143.7 78.7 143.45 79.45 143.25 80.1 143.25 80.5 143.25 80.75 143.25 81.15 135.8 81.3 127.65 80.75 Q119.3 80.45 115.2 81.8 L114.2 82.1 112.45 80.35 108.95 77.3 105.5 73.8 Q102.0 70.8 99.45 70.8 L93.55 71.7 83.2 73.0 73.6 74.15 Q71.6 74.65 71.3 75.4 L70.35 76.45 Q69.05 79.15 68.2 80.0 67.9 80.2 65.7 83.15 L63.7 85.9 60.9 86.05 Q49.05 86.7 45.5 88.2 L39.7 77.25 33.3 65.8 27.0 54.3 21.05 42.9 15.0 31.5 Q12.75 26.65 8.7 20.05 L2.5 9.8 2.45 9.3 4.45 9.5 18.95 9.3 46.65 8.4 102.45 5.3 131.45 3.3 140.45 2.6 157.1 0.75 169.2 19.3 175.6 29.45 M178.0 76.25 L178.75 78.55 155.8 79.7 155.65 78.45 164.95 76.9 178.0 76.25 M206.1 81.7 L207.0 80.5 209.5 79.8 211.45 82.5 206.15 83.45 206.1 81.7 M132.45 40.5 L134.55 38.6 131.95 38.8 Q133.55 31.25 141.8 30.6 L142.8 32.5 143.3 30.75 146.1 30.1 Q152.75 29.0 157.6 33.25 L155.7 34.1 155.85 35.1 158.45 35.3 Q158.2 39.1 154.9 41.55 150.7 44.75 146.05 43.0 L146.0 44.05 Q140.95 45.3 135.85 43.95 133.2 43.25 132.45 40.5 M99.05 33.55 L99.5 35.25 101.2 35.35 100.75 33.45 Q105.05 32.75 109.3 34.0 112.0 34.75 114.25 36.3 L112.05 38.65 115.15 38.9 Q115.5 41.4 113.3 43.2 109.5 46.25 104.85 46.95 L104.0 44.95 102.9 45.45 103.35 47.2 Q97.8 48.4 92.5 46.65 89.7 45.75 88.85 43.05 L91.7 41.85 88.75 41.4 Q89.05 39.7 90.0 38.4 L90.45 37.95 90.45 37.8 Q91.25 36.8 92.45 36.05 95.5 34.2 99.05 33.55 M101.25 82.75 Q91.0 85.75 80.25 85.1 L77.05 84.0 77.7 83.05 101.3 80.4 101.25 82.75 M129.0 87.55 Q128.35 88.4 126.1 88.4 L125.7 88.35 125.45 88.15 Q126.0 86.15 127.6 85.65 129.2 85.1 129.2 86.7 129.3 87.15 129.0 87.55 M46.75 44.55 Q48.3 38.05 55.2 37.4 L57.0 39.15 57.55 36.65 Q65.1 35.1 70.9 39.4 L69.7 41.4 71.75 42.0 72.3 41.2 Q72.05 47.95 65.0 49.25 L61.55 49.8 59.8 48.65 59.7 50.45 Q51.75 53.55 46.3 47.05 L48.0 46.9 48.8 44.75 46.75 44.55 M56.05 90.95 Q57.95 91.6 57.95 93.0 57.95 93.75 57.25 94.75 56.4 96.0 55.25 96.0 54.2 96.0 53.3 94.25 52.65 93.1 52.5 92.3 54.0 90.25 56.05 90.95" fill="url(#gradient0)" fill-rule="evenodd" stroke="none"/>
    <path d="M50.35 127.3 L50.4 127.25 52.7 127.15 50.55 127.35 50.35 127.3 M218.65 105.15 L219.05 105.4 219.85 106.1 220.3 106.4 220.45 107.9 220.55 108.4 220.9 109.85 220.8 110.65 221.0 111.2 221.15 112.05 Q221.15 112.8 220.45 112.8 220.15 112.8 220.0 112.6 L191.3 114.4 185.05 115.15 180.3 115.4 166.3 116.4 119.05 120.4 79.6 124.3 68.3 124.95 59.1 125.3 50.4 125.8 50.3 125.85 50.25 122.95 50.35 121.7 52.45 120.15 Q56.85 117.25 58.95 112.65 58.95 111.9 58.5 111.3 55.65 107.25 51.5 104.55 L51.4 100.8 51.85 100.45 52.0 100.05 51.5 99.0 54.15 98.65 57.5 98.5 59.65 98.0 68.65 97.6 85.15 96.95 120.35 93.9 157.2 91.55 178.9 89.9 195.35 89.0 204.35 88.25 211.1 87.4 221.05 86.7 Q220.7 88.25 220.7 89.85 220.75 93.75 218.2 96.3 L213.0 101.75 213.65 102.7 214.05 102.9 Q214.3 103.0 214.15 103.1 L216.45 104.15 216.85 104.35 216.7 104.1 217.3 104.4 218.65 105.15 218.6 105.2 218.65 105.15 M122.5 36.8 L122.95 36.55 123.35 36.35 125.6 36.0 130.65 35.75 Q130.05 37.1 129.95 38.6 130.05 43.75 133.65 47.45 137.45 51.4 142.95 51.95 148.3 52.15 153.55 50.45 158.6 48.9 159.95 43.75 161.4 38.45 159.05 33.65 L158.7 32.95 159.55 33.15 160.2 33.1 173.35 51.45 49.55 61.7 48.45 61.85 48.35 61.9 38.1 41.3 38.5 41.35 40.0 41.5 41.9 41.2 44.25 40.75 45.5 40.6 45.35 40.85 Q43.35 44.35 44.55 48.1 46.05 53.5 50.75 56.4 55.35 59.15 60.6 58.5 66.05 57.7 70.65 54.85 72.7 53.6 73.35 51.45 74.85 46.35 73.85 41.25 L73.4 39.75 78.75 39.9 82.95 39.55 82.9 39.65 84.15 39.5 87.6 39.0 Q87.15 40.35 87.25 42.05 87.55 47.8 91.65 51.65 95.8 55.5 101.45 55.25 L106.9 54.9 Q112.85 53.95 115.3 48.85 117.7 43.8 116.4 38.4 L115.9 36.85 116.95 36.95 117.65 36.85 118.8 36.7 120.2 36.65 121.25 37.0 121.45 37.0 122.5 36.8" fill="#262626" fill-rule="evenodd" stroke="none"/>
  </g>
  <defs>
    <linearGradient gradientTransform="matrix(0.0895, -0.0567, 0.0894, 0.1412, 130.3, 108.0)" gradientUnits="userSpaceOnUse" id="gradient0" spreadMethod="pad" x1="-819.2" x2="819.2">
      <stop offset="0.0" stop-color="#1f2325"/>
      <stop offset="1.0" stop-color="#657181"/>
    </linearGradient>
  </defs>
</svg>
