<?xml version="1.0" encoding="UTF-8" standalone="no"?>
<svg xmlns:xlink="http://www.w3.org/1999/xlink" height="308.95px" width="478.65px" xmlns="http://www.w3.org/2000/svg">
  <g transform="matrix(1.0, 0.0, 0.0, 1.0, 358.0, 139.45)">
    <path d="M26.45 -1.7 L28.55 -1.8 Q39.15 1.9 45.7 11.1 53.6 10.95 60.45 7.35 61.05 7.0 61.15 6.45 62.45 -0.2 61.15 -7.2 L62.0 -7.95 Q67.05 -0.15 76.0 -2.8 77.15 -3.05 77.95 -3.8 86.05 -11.0 85.0 -22.25 L83.8 -23.25 Q82.9 -24.15 81.6 -24.0 68.85 -20.9 60.3 -10.95 L59.25 -11.0 59.05 -11.6 Q32.8 -7.2 6.25 -3.75 L7.85 11.6 Q10.2 13.9 13.5 14.25 15.8 2.7 26.45 -1.7 M-60.7 -49.45 L-56.75 -34.0 Q-56.9 -37.2 -54.75 -39.8 -53.45 -41.3 -51.45 -40.3 -45.3 -37.3 -43.1 -30.85 -43.75 -33.85 -40.8 -35.15 -30.65 -39.65 -22.6 -33.35 L-20.85 -31.8 Q-16.4 -27.35 -10.3 -30.25 -7.95 -31.45 -5.4 -32.05 -1.75 -31.6 1.6 -30.0 5.95 -28.0 10.35 -26.55 19.55 -23.7 28.25 -28.5 38.0 -33.9 48.25 -30.55 61.6 -26.1 75.65 -26.4 L75.7 -26.05 77.45 -25.8 Q83.3 -27.8 88.65 -23.1 91.6 -20.55 95.5 -19.65 99.2 -18.85 101.8 -21.35 108.25 -27.65 117.05 -25.6 114.9 -30.95 109.45 -33.2 L109.5 -33.7 Q93.85 -37.3 77.5 -36.8 L49.3 -36.2 13.45 -34.8 Q-7.7 -34.7 -28.7 -38.05 L-45.55 -41.3 Q-51.55 -42.35 -56.65 -45.8 -58.8 -47.25 -60.2 -49.65 L-60.9 -51.6 -60.7 -49.45 M33.5 -38.6 L54.45 -39.35 Q78.0 -39.95 101.45 -37.95 106.6 -37.5 111.15 -35.5 115.55 -33.55 118.15 -29.65 121.5 -22.4 118.7 -14.9 117.9 -12.85 116.2 -11.6 113.95 -9.9 111.1 -9.35 L91.4 -7.85 Q88.6 -0.95 85.45 5.9 84.6 7.65 82.95 8.75 69.15 18.5 53.85 25.2 54.6 41.3 45.65 54.65 44.2 56.75 42.0 58.2 39.0 60.05 35.5 60.5 L20.4 62.6 Q19.65 68.7 15.8 73.75 10.65 80.55 4.15 86.3 -3.05 92.7 -11.95 96.6 -20.8 100.5 -30.2 103.2 -44.45 107.4 -58.9 111.2 -79.85 116.8 -101.6 118.45 -113.25 119.3 -123.7 124.0 -134.25 128.7 -143.7 135.4 -152.55 141.75 -160.9 148.65 -159.75 151.0 -161.75 152.8 L-169.2 160.1 Q-170.6 161.45 -172.5 161.5 -183.7 161.8 -194.35 165.05 -200.95 167.1 -207.95 167.15 -243.65 167.45 -279.3 167.0 L-316.05 168.1 -344.3 169.5 Q-348.8 169.55 -349.25 165.7 -350.0 159.3 -350.05 152.85 L-350.0 139.8 Q-352.05 141.4 -354.55 141.0 L-356.0 140.5 -349.85 137.65 Q-347.5 105.8 -347.25 74.05 L-358.0 76.0 Q-353.0 73.25 -347.2 72.2 -347.05 66.25 -344.1 61.3 L-345.6 71.85 Q-327.3 68.4 -310.5 60.25 -301.75 55.9 -292.0 53.6 -275.45 49.65 -260.0 42.3 -252.0 38.5 -243.6 35.65 -224.1 29.35 -205.55 20.55 -200.25 18.1 -194.6 16.85 -184.6 14.3 -175.25 10.15 -165.1 5.6 -155.4 0.05 -142.8 -7.2 -136.0 -20.35 -130.15 -31.55 -124.75 -43.15 -118.05 -57.45 -110.55 -71.4 L-107.0 -76.85 Q-105.2 -79.25 -103.0 -81.25 -100.5 -83.45 -97.6 -85.15 -82.2 -94.35 -67.75 -105.05 L-62.55 -109.35 -57.9 -114.25 Q-54.4 -118.05 -52.1 -122.7 -50.05 -126.8 -48.75 -131.25 -47.5 -135.5 -44.65 -138.6 -44.1 -139.15 -43.3 -139.2 -37.5 -140.3 -33.15 -136.6 -30.45 -134.35 -29.25 -131.05 -24.25 -117.55 -27.55 -103.4 -32.2 -83.45 -49.05 -71.65 -52.85 -68.95 -55.35 -65.2 -58.45 -60.6 -58.95 -55.0 -59.15 -52.85 -57.85 -51.0 L-56.0 -48.85 -53.85 -47.35 Q-52.65 -46.75 -51.3 -46.45 L-49.9 -46.1 -50.1 -45.4 Q-28.1 -40.55 -5.7 -38.55 L-6.15 -38.2 Q13.65 -36.8 33.5 -38.6 M-41.95 -137.4 L-42.85 -137.2 -50.25 -119.75 Q-42.35 -126.9 -41.95 -137.4 M-132.6 55.65 Q-125.95 47.65 -118.4 40.5 -110.8 33.4 -102.45 27.45 -105.5 22.85 -107.4 17.9 -108.75 14.45 -108.7 10.75 -108.65 1.4 -102.75 -5.95 L-95.05 -15.25 Q-89.05 -22.05 -83.85 -29.5 -79.9 -35.2 -77.4 -41.7 -75.6 -46.2 -74.8 -50.9 -73.15 -60.7 -74.95 -70.45 L-76.75 -80.45 Q-75.95 -81.75 -74.45 -82.3 L-67.45 -83.85 Q-57.6 -86.05 -53.25 -95.3 -52.2 -97.55 -51.4 -99.9 -50.1 -103.65 -46.7 -105.65 -43.8 -107.45 -42.1 -110.35 -39.7 -114.35 -40.4 -119.1 -41.75 -128.75 -35.85 -136.45 L-39.45 -137.6 Q-39.55 -135.2 -40.25 -132.95 -41.35 -129.3 -42.95 -125.9 -46.25 -118.9 -52.55 -114.5 L-56.7 -111.3 Q-69.65 -99.9 -84.15 -90.15 -88.8 -87.1 -94.0 -85.2 -99.8 -83.0 -103.45 -78.0 -107.15 -72.95 -109.95 -67.2 L-123.1 -40.0 Q-129.65 -26.05 -137.75 -12.95 -143.6 -3.4 -153.35 2.35 -173.4 14.0 -195.9 20.15 -204.5 22.4 -212.8 26.15 -224.9 31.55 -237.2 36.0 -253.0 41.75 -268.6 48.0 -285.5 54.75 -303.05 59.65 -305.25 60.2 -307.35 61.25 -325.5 70.35 -345.75 74.0 -345.25 91.4 -346.05 108.8 -346.65 122.8 -347.7 136.65 -334.3 130.35 -320.95 123.55 -306.65 116.1 -291.85 109.7 -275.25 102.55 -258.9 94.95 -247.8 89.7 -236.25 85.15 -212.05 75.75 -187.05 69.65 -182.05 68.5 -177.6 64.95 -175.3 63.1 -173.55 60.9 -169.5 55.95 -166.8 50.15 -160.15 35.9 -146.25 28.8 -140.6 25.9 -134.35 24.85 -132.7 27.05 -132.2 29.55 -130.75 37.2 -131.65 44.75 L-132.75 55.65 -132.75 55.8 -132.6 55.65 M-27.15 16.2 L-27.1 16.2 -27.2 16.2 Q-34.7 14.35 -38.2 21.25 -40.0 24.75 -40.3 28.8 L-39.75 28.55 Q-36.8 31.85 -33.95 28.4 -29.5 22.95 -27.15 16.2 M-75.65 -80.0 L-75.25 -79.7 -75.0 -79.95 -75.65 -80.0 M-27.9 29.3 Q-25.4 30.95 -23.6 33.3 -20.25 37.8 -15.65 34.9 -15.25 34.65 -15.3 34.2 -15.95 24.25 -25.5 20.75 L-27.9 29.3 M-16.95 63.75 L-17.1 64.5 -16.65 64.25 -16.95 63.75 M-86.3 77.9 Q-86.65 70.6 -89.0 64.4 -90.8 59.7 -95.55 58.55 -102.55 56.9 -108.55 61.75 -110.95 63.75 -112.95 65.9 -122.05 75.6 -122.35 88.9 -103.6 85.8 -86.3 77.9 M30.05 0.25 Q18.9 2.1 15.9 13.3 13.5 22.4 20.25 29.0 20.15 24.25 23.05 20.4 29.95 11.35 30.05 0.25 M37.15 10.9 L36.25 10.25 36.45 11.65 Q36.55 18.15 34.2 23.85 37.1 26.2 40.35 24.7 42.15 23.95 42.25 22.05 42.7 15.0 37.15 10.9 M15.4 27.0 L5.9 28.95 1.25 35.4 11.7 47.2 23.0 46.5 22.1 44.8 Q20.0 39.55 22.35 34.8 L15.4 27.0" fill="#000000" fill-rule="evenodd" stroke="none"/>
    <path d="M36.45 11.65 L36.25 10.25 37.15 10.9 36.45 11.65" fill="#ff00aa" fill-rule="evenodd" stroke="none"/>
    <path d="M26.45 -1.7 Q15.8 2.7 13.5 14.25 10.2 13.9 7.85 11.6 L6.25 -3.75 Q32.8 -7.2 59.05 -11.6 L59.25 -11.0 60.3 -10.95 Q68.85 -20.9 81.6 -24.0 82.9 -24.15 83.8 -23.25 L85.0 -22.25 Q86.05 -11.0 77.95 -3.8 77.15 -3.05 76.0 -2.8 67.05 -0.15 62.0 -7.95 L61.15 -7.2 Q62.45 -0.2 61.15 6.45 61.05 7.0 60.45 7.35 53.6 10.95 45.7 11.1 39.15 1.9 28.55 -1.8 L26.45 -1.7 M-60.2 -49.65 Q-58.8 -47.25 -56.65 -45.8 -51.55 -42.35 -45.55 -41.3 L-28.7 -38.05 Q-7.7 -34.7 13.45 -34.8 L49.3 -36.2 77.5 -36.8 Q93.85 -37.3 109.5 -33.7 L109.45 -33.2 Q114.9 -30.95 117.05 -25.6 108.25 -27.65 101.8 -21.35 99.2 -18.85 95.5 -19.65 91.6 -20.55 88.65 -23.1 83.3 -27.8 77.45 -25.8 L75.7 -26.05 75.65 -26.4 Q61.6 -26.1 48.25 -30.55 38.0 -33.9 28.25 -28.5 19.55 -23.7 10.35 -26.55 5.95 -28.0 1.6 -30.0 -1.75 -31.6 -5.4 -32.05 -7.95 -31.45 -10.3 -30.25 -16.4 -27.35 -20.85 -31.8 L-22.6 -33.35 Q-30.65 -39.65 -40.8 -35.15 -43.75 -33.85 -43.1 -30.85 -45.3 -37.3 -51.45 -40.3 -53.45 -41.3 -54.75 -39.8 -56.9 -37.2 -56.75 -34.0 L-60.7 -49.45 -60.2 -49.65 M-132.75 55.65 L-131.65 44.75 Q-130.75 37.2 -132.2 29.55 -132.7 27.05 -134.35 24.85 -140.6 25.9 -146.25 28.8 -160.15 35.9 -166.8 50.15 -169.5 55.95 -173.55 60.9 -175.3 63.1 -177.6 64.95 -182.05 68.5 -187.05 69.65 -212.05 75.75 -236.25 85.15 -247.8 89.7 -258.9 94.95 -275.25 102.55 -291.85 109.7 -306.65 116.1 -320.95 123.55 -334.3 130.35 -347.7 136.65 -346.65 122.8 -346.05 108.8 -345.25 91.4 -345.75 74.0 -325.5 70.35 -307.35 61.25 -305.25 60.2 -303.05 59.65 -285.5 54.75 -268.6 48.0 -253.0 41.75 -237.2 36.0 -224.9 31.55 -212.8 26.15 -204.5 22.4 -195.9 20.15 -173.4 14.0 -153.35 2.35 -143.6 -3.4 -137.75 -12.95 -129.65 -26.05 -123.1 -40.0 L-109.95 -67.2 Q-107.15 -72.95 -103.45 -78.0 -99.8 -83.0 -94.0 -85.2 -88.8 -87.1 -84.15 -90.15 -69.65 -99.9 -56.7 -111.3 L-52.55 -114.5 Q-46.25 -118.9 -42.95 -125.9 -41.35 -129.3 -40.25 -132.95 -39.55 -135.2 -39.45 -137.6 L-35.85 -136.45 Q-41.75 -128.75 -40.4 -119.1 -39.7 -114.35 -42.1 -110.35 -43.8 -107.45 -46.7 -105.65 -50.1 -103.65 -51.4 -99.9 -52.2 -97.55 -53.25 -95.3 -57.6 -86.05 -67.45 -83.85 L-74.45 -82.3 Q-75.95 -81.75 -76.75 -80.45 L-74.95 -70.45 Q-73.15 -60.7 -74.8 -50.9 -75.6 -46.2 -77.4 -41.7 -79.9 -35.2 -83.85 -29.5 -89.05 -22.05 -95.05 -15.25 L-102.75 -5.95 Q-108.65 1.4 -108.7 10.75 -108.75 14.45 -107.4 17.9 -105.5 22.85 -102.45 27.45 -110.8 33.4 -118.4 40.5 -125.95 47.65 -132.6 55.65 L-132.75 55.65 M-27.15 16.2 Q-29.5 22.95 -33.95 28.4 -36.8 31.85 -39.75 28.55 L-40.3 28.8 Q-40.0 24.75 -38.2 21.25 -34.7 14.35 -27.2 16.2 L-27.15 16.2 M-86.3 77.9 Q-103.6 85.8 -122.35 88.9 -122.05 75.6 -112.95 65.9 -110.95 63.75 -108.55 61.75 -102.55 56.9 -95.55 58.55 -90.8 59.7 -89.0 64.4 -86.65 70.6 -86.3 77.9 M30.05 0.25 Q29.95 11.35 23.05 20.4 20.15 24.25 20.25 29.0 13.5 22.4 15.9 13.3 18.9 2.1 30.05 0.25 M15.4 27.0 L22.35 34.8 Q20.0 39.55 22.1 44.8 L23.0 46.5 11.7 47.2 1.25 35.4 5.9 28.95 15.4 27.0" fill="url(#gradient0)" fill-rule="evenodd" stroke="none"/>
    <path d="M-41.95 -137.4 Q-42.35 -126.9 -50.25 -119.75 L-42.85 -137.2 -41.95 -137.4 M-27.9 29.3 L-25.5 20.75 Q-15.95 24.25 -15.3 34.2 -15.25 34.65 -15.65 34.9 -20.25 37.8 -23.6 33.3 -25.4 30.95 -27.9 29.3 M37.15 10.9 Q42.7 15.0 42.25 22.05 42.15 23.95 40.35 24.7 37.1 26.2 34.2 23.85 36.55 18.15 36.45 11.65 L37.15 10.9" fill="#697785" fill-rule="evenodd" stroke="none"/>
    <path d="M-346.4 121.75 L-347.95 122.4 -348.6 124.8 -346.4 121.75 M-101.5 62.8 Q-106.1 64.1 -109.15 67.85 -114.75 74.7 -117.9 82.9 -104.8 80.55 -92.45 75.65 L-93.3 67.8 Q-94.2 60.95 -101.5 62.8 M-73.95 71.05 L-74.3 72.35 Q-77.95 78.65 -85.15 81.35 -85.9 86.4 -88.15 91.05 -90.15 95.15 -92.55 96.65 L-93.25 94.25 Q-94.7 89.55 -93.3 84.4 -107.2 90.15 -122.05 91.5 -123.2 93.55 -125.4 93.15 -126.8 92.75 -127.2 91.45 -132.6 91.85 -134.35 87.7 -134.6 87.05 -134.1 86.65 -130.85 83.6 -125.65 84.15 L-125.2 82.7 Q-123.0 74.85 -118.25 68.15 L-114.45 63.9 -110.45 59.6 Q-101.9 51.8 -91.0 56.05 -89.65 56.65 -89.0 57.95 -85.75 64.75 -84.85 72.3 -83.8 71.8 -82.85 71.15 -78.2 67.9 -73.95 71.05 M-32.4 23.75 Q-30.8 19.85 -29.65 15.6 -28.9 12.8 -26.75 10.5 -23.25 18.25 -27.95 26.15 -30.15 29.75 -33.6 32.2 -37.1 34.6 -40.8 32.35 -43.05 31.05 -42.6 28.65 L-35.7 26.85 Q-33.35 26.15 -32.4 23.75 M-46.0 -108.5 Q-44.6 -109.95 -43.85 -111.85 -40.45 -120.55 -38.5 -129.85 -38.2 -131.15 -37.0 -132.05 -33.5 -134.85 -32.55 -130.8 -32.65 -124.7 -34.65 -118.5 -36.15 -113.75 -38.8 -109.8 -43.15 -103.2 -46.85 -96.1 L-49.15 -92.15 Q-56.55 -80.05 -71.0 -79.45 -66.75 -61.5 -72.85 -44.4 -77.65 -30.9 -86.8 -20.15 L-98.95 -6.2 Q-101.3 -3.6 -102.7 -0.2 -108.15 12.85 -99.55 24.05 -96.0 20.7 -91.5 22.15 -90.85 23.35 -91.0 24.55 L-91.45 25.55 Q-109.85 42.6 -131.55 55.55 -132.25 58.6 -133.95 61.5 -135.55 64.1 -137.6 66.4 -141.1 70.35 -145.25 68.0 L-143.45 68.0 Q-143.6 63.2 -141.65 58.8 L-142.4 56.9 Q-139.8 54.5 -138.45 51.5 -132.8 39.1 -134.75 25.05 -137.9 26.6 -140.9 28.45 -155.75 37.5 -165.9 51.95 -165.05 52.25 -164.75 53.3 -164.05 55.5 -165.05 57.75 -169.35 67.2 -178.4 72.2 -179.95 73.1 -181.6 73.3 -189.3 74.55 -196.15 78.55 -201.6 81.65 -207.05 78.15 L-207.0 76.05 -207.45 76.05 Q-210.6 81.25 -216.4 82.5 L-219.3 83.1 Q-229.3 85.55 -238.45 91.2 L-240.35 92.4 Q-243.35 94.65 -246.65 96.3 -251.8 98.8 -257.1 100.95 -293.7 115.9 -329.2 133.0 -334.25 135.45 -339.6 137.0 -346.35 138.8 -351.25 143.55 -353.3 143.85 -354.75 142.3 L-353.25 123.95 Q-355.35 124.9 -356.55 123.1 L-356.7 122.55 Q-356.9 119.2 -353.95 117.65 -348.6 114.85 -343.15 112.3 -324.15 103.2 -304.6 95.35 -296.1 91.95 -288.4 87.1 -282.85 83.55 -276.85 80.75 -261.45 73.6 -245.7 67.25 -230.85 61.45 -215.45 57.5 -206.95 55.3 -198.1 56.75 -194.5 57.15 -191.1 58.45 -182.55 61.85 -176.95 54.85 -166.8 42.05 -155.05 30.65 -149.6 25.3 -142.7 21.85 L-135.55 18.35 Q-133.05 17.2 -130.5 18.05 -129.55 18.3 -129.35 19.05 -125.9 32.15 -128.6 45.75 L-104.75 27.45 Q-110.55 20.0 -111.2 10.55 -111.9 0.5 -106.15 -7.7 -100.4 -15.9 -93.4 -22.9 -91.35 -25.0 -89.5 -27.25 -83.0 -35.3 -79.15 -44.9 -75.45 -54.0 -76.0 -63.65 -76.55 -72.6 -77.65 -81.4 -77.75 -82.3 -77.3 -83.1 -76.75 -84.1 -75.8 -84.15 -66.6 -86.1 -59.35 -91.9 -57.95 -93.0 -57.05 -94.45 -52.2 -102.05 -46.0 -108.5 M11.15 40.8 L12.15 40.75 28.3 41.75 Q31.7 45.95 26.45 47.75 19.05 50.2 11.0 49.75 5.05 49.8 2.95 44.45 2.6 43.45 3.2 42.9 6.4 40.0 11.15 40.8 M2.9 -6.2 Q2.85 -6.5 3.3 -6.8 8.15 -9.35 9.9 -4.0 9.85 1.35 12.3 5.85 13.25 7.65 14.75 8.95 17.85 11.7 14.45 14.15 10.45 16.9 6.45 14.05 5.15 13.15 5.1 11.4 4.85 2.35 2.9 -6.2 M23.65 -28.65 Q30.15 -31.9 37.05 -33.3 39.7 -33.95 42.2 -33.35 L55.65 -30.4 Q65.5 -27.9 75.5 -30.05 86.7 -32.45 93.55 -23.7 96.15 -20.45 99.65 -23.3 103.6 -26.55 108.7 -27.65 117.3 -29.1 120.65 -21.6 120.3 -19.85 118.6 -19.5 L117.1 -19.65 Q109.75 -23.1 103.05 -18.7 L100.6 -17.4 Q92.95 -14.0 88.05 -21.05 88.85 -9.85 80.6 -2.55 73.4 3.85 64.9 -0.5 64.8 1.35 63.85 3.3 58.6 13.9 46.3 12.1 42.7 11.8 42.45 8.35 L43.65 7.5 Q47.3 5.15 51.5 4.15 52.85 3.95 53.9 3.35 54.8 2.95 55.0 2.1 56.55 -3.7 59.75 -8.1 60.65 -9.3 62.05 -9.05 66.7 -8.05 71.1 -6.15 72.75 -5.55 73.85 -6.45 82.15 -13.65 80.15 -24.7 66.9 -21.0 53.8 -25.2 L53.65 -25.25 53.65 -24.65 Q53.7 -23.75 53.15 -22.85 52.8 -22.25 52.05 -22.15 51.5 -22.3 51.1 -22.65 47.25 -25.55 42.65 -27.35 40.85 -28.0 39.0 -27.3 L26.05 -22.25 Q22.35 -20.9 18.65 -21.6 16.0 -21.85 13.6 -22.9 -0.4 -29.3 -15.9 -27.45 L-15.85 -26.55 Q-15.9 -24.05 -18.5 -24.0 -19.3 -24.0 -19.75 -24.4 -23.55 -27.9 -28.1 -30.2 -36.45 -34.4 -42.9 -27.45 -43.25 -27.1 -43.5 -27.25 -48.7 -30.5 -53.05 -35.3 L-54.9 -34.5 Q-56.6 -33.65 -57.2 -31.85 -60.3 -32.0 -61.55 -34.75 -66.85 -46.65 -65.3 -59.7 L-64.5 -59.55 Q-63.65 -59.15 -63.25 -58.45 -58.95 -50.6 -57.95 -41.25 -49.0 -42.75 -43.7 -35.7 -35.65 -39.55 -27.3 -36.65 -23.25 -35.35 -19.7 -33.5 -17.55 -32.3 -15.1 -32.75 -7.2 -33.8 0.6 -32.65 8.3 -31.6 15.25 -28.5 19.45 -26.6 23.65 -28.65" fill="#000000" fill-opacity="0.5019608" fill-rule="evenodd" stroke="none"/>
  </g>
  <defs>
    <linearGradient gradientTransform="matrix(0.2393, 0.0, 0.0, 0.1674, -64.95, -8.0)" gradientUnits="userSpaceOnUse" id="gradient0" spreadMethod="pad" x1="-819.2" x2="819.2">
      <stop offset="0.0" stop-color="#444d55"/>
      <stop offset="1.0" stop-color="#657181"/>
    </linearGradient>
  </defs>
</svg>
