<?xml version="1.0" encoding="UTF-8" standalone="no"?>
<svg xmlns:xlink="http://www.w3.org/1999/xlink" height="284.2px" width="161.65px" xmlns="http://www.w3.org/2000/svg">
  <g transform="matrix(1.0, 0.0, 0.0, 1.0, 0.0, 0.0)">
    <path d="M61.3 4.7 Q60.55 5.8 60.55 6.5 L60.65 7.6 Q61.45 7.5 61.45 7.05 61.45 6.1 61.8 5.45 L62.1 5.05 62.65 4.7 64.05 4.35 64.45 4.05 64.4 3.9 65.15 3.85 68.05 4.2 69.15 4.5 69.4 4.5 70.35 4.85 71.55 6.1 72.65 7.45 73.65 8.55 Q73.1 9.1 72.45 10.35 L71.75 11.85 Q71.75 12.45 72.95 12.9 L72.5 12.4 72.05 11.85 73.85 8.65 74.0 8.75 74.0 8.65 73.85 8.5 73.85 8.4 73.75 8.45 71.8 5.8 71.1 5.0 71.55 5.15 73.0 5.85 74.15 6.45 74.4 6.65 75.15 7.2 75.65 7.55 75.65 7.65 75.7 7.8 Q76.9 7.6 77.2 7.8 L78.8 8.75 80.4 10.1 80.3 10.3 Q79.8 10.8 79.8 11.15 L80.05 11.55 80.7 12.75 82.45 15.25 84.05 17.55 85.6 20.05 86.25 21.15 87.0 22.4 88.25 24.6 90.0 27.75 90.35 28.7 90.65 29.35 Q91.3 30.3 92.45 30.35 L93.5 30.45 93.3 33.0 90.05 35.4 88.8 31.3 88.6 33.05 88.5 36.4 88.25 36.5 88.15 36.6 86.25 37.45 85.85 37.6 85.8 37.5 85.6 33.9 85.45 32.05 85.1 30.25 84.05 24.7 Q82.6 19.8 81.75 17.85 L81.65 18.0 81.35 17.45 80.3 16.05 78.75 14.6 76.9 13.3 76.95 13.15 Q76.35 13.9 75.8 15.7 75.35 17.45 74.65 18.35 L72.85 20.95 72.7 21.2 72.35 21.55 Q71.6 22.2 70.75 22.2 69.95 22.2 69.55 21.3 69.25 20.55 69.25 19.65 69.25 18.9 69.5 18.35 L69.95 17.2 70.05 16.95 70.0 16.8 69.95 16.8 69.5 17.25 Q68.9 17.1 68.9 16.7 L69.0 16.1 69.25 15.4 69.35 14.95 69.3 14.95 69.3 14.85 69.25 14.7 69.2 14.75 69.1 14.75 69.0 15.4 Q68.7 15.8 68.3 15.8 67.85 15.8 67.85 15.4 L68.0 14.3 67.95 14.2 67.95 14.0 Q67.95 13.65 66.6 13.65 L66.45 13.65 65.65 13.45 Q64.1 13.45 63.85 13.95 L63.6 13.85 64.1 12.95 64.45 12.55 Q64.7 12.3 64.8 12.3 L65.65 12.1 66.25 11.85 Q64.5 11.25 63.4 13.5 L63.2 13.45 63.25 13.4 63.25 13.35 63.85 11.75 63.9 11.75 63.9 11.35 63.95 11.05 63.9 11.05 63.9 10.65 Q63.75 9.85 63.2 9.75 L62.0 9.6 60.25 9.95 Q59.0 10.1 59.0 11.45 L58.85 11.65 Q57.45 11.0 57.45 9.95 L57.65 9.05 57.7 8.65 57.5 8.05 Q57.1 8.2 56.6 8.5 L56.05 8.85 55.95 8.75 55.95 8.4 56.7 7.3 Q57.6 6.1 58.1 5.75 L59.1 5.05 59.75 4.7 59.8 4.7 60.45 4.4 60.5 4.35 61.25 4.25 61.3 4.7 M65.9 7.0 L65.85 6.9 65.1 7.4 64.35 7.9 63.5 8.35 62.8 8.8 62.8 8.75 62.8 8.6 62.85 8.4 62.8 8.4 62.9 7.5 Q63.1 6.9 64.05 6.6 L64.95 6.3 64.85 6.1 64.05 6.1 Q62.6 6.5 62.4 7.25 L62.15 8.65 62.25 9.2 62.45 9.05 62.5 8.65 62.5 8.7 62.5 8.8 Q62.5 9.2 62.75 9.2 L63.5 8.7 64.45 8.25 Q65.9 7.35 65.9 7.0 M92.45 38.95 Q93.05 36.15 93.8 33.4 L94.15 32.55 93.95 32.45 94.6 28.45 94.45 28.5 94.7 28.0 95.0 28.0 95.25 27.85 96.2 27.7 97.85 27.75 99.1 27.55 100.75 28.0 101.35 27.85 101.65 27.95 Q102.0 28.1 102.15 28.4 L102.5 28.8 Q103.45 29.6 104.0 30.8 L104.2 30.9 106.3 33.0 108.7 36.05 109.95 37.9 109.4 37.45 Q106.1 34.95 102.4 33.05 L100.15 32.0 100.15 32.2 99.05 33.0 Q95.5 35.7 92.55 39.1 L92.45 38.95 M118.95 28.45 L119.15 28.3 120.05 29.35 122.95 35.6 122.75 35.65 124.15 39.25 124.15 39.3 119.7 33.6 Q118.7 32.4 118.15 30.95 L117.85 30.95 116.9 29.7 114.7 27.3 114.85 27.0 118.95 28.45 M41.1 65.65 L41.75 63.65 Q42.25 61.7 43.25 59.6 L43.8 58.4 45.65 55.25 47.75 52.1 49.3 50.2 49.35 50.0 49.1 49.6 49.0 49.75 46.0 48.85 Q46.4 47.6 47.15 46.45 L48.6 44.6 50.1 43.3 50.95 42.7 52.55 43.25 Q53.6 43.65 54.45 44.25 L54.15 44.5 55.1 44.3 54.95 44.2 Q57.2 42.45 59.7 41.05 L63.05 39.15 67.3 41.5 Q65.4 42.0 63.65 43.1 L61.85 44.45 Q55.9 48.9 51.85 55.15 L49.7 58.4 48.35 60.65 48.35 60.7 Q46.4 64.0 44.9 67.85 42.7 73.55 41.45 80.45 L41.45 80.6 41.35 80.6 40.8 80.35 40.1 78.6 40.0 78.7 39.95 78.65 39.95 78.6 39.85 78.15 39.9 77.9 39.9 77.0 39.8 74.65 Q39.8 71.35 41.1 65.65 M36.45 87.45 L36.1 88.05 37.05 87.6 38.5 84.75 39.95 82.0 40.5 81.05 40.55 81.25 40.6 81.05 40.75 81.15 41.0 81.55 41.15 82.0 41.45 82.05 42.0 82.7 42.9 83.25 43.75 83.75 43.9 83.8 43.85 84.25 43.6 84.75 41.95 87.35 39.3 89.95 36.9 91.65 Q35.6 92.65 34.7 93.9 33.75 95.2 33.35 96.8 33.0 98.25 33.3 99.7 L33.2 99.75 32.9 98.9 33.0 98.7 32.8 98.2 32.65 98.45 31.85 97.15 34.7 90.7 34.05 91.85 Q34.1 90.0 34.95 88.4 L35.25 87.95 36.15 87.3 36.45 87.45 M19.6 130.3 L20.6 127.45 21.4 124.95 22.95 120.3 23.5 118.4 23.95 117.0 25.9 110.35 27.1 106.25 27.85 104.2 28.25 103.4 27.9 103.35 28.2 102.5 28.7 101.4 29.4 100.6 30.55 100.85 31.3 101.1 30.8 102.0 Q30.5 101.3 29.7 101.55 L30.2 102.55 30.3 103.1 30.25 103.2 30.5 103.55 30.6 103.95 Q30.8 104.7 31.55 105.75 L32.05 106.5 31.9 106.5 Q31.35 106.55 30.8 107.05 L30.25 107.75 29.75 108.45 29.15 109.95 28.45 112.8 Q28.0 113.75 27.7 114.85 L27.45 115.8 27.0 117.7 26.85 118.45 26.75 118.75 25.8 121.65 25.35 123.2 23.85 127.45 23.8 127.5 22.8 129.95 21.25 133.3 17.85 139.1 Q15.7 142.65 15.2 144.5 L14.95 144.45 19.7 130.3 19.6 130.3 M93.55 68.5 L97.8 67.3 100.1 66.8 102.4 66.45 106.5 66.2 110.4 66.25 110.4 66.35 112.65 66.5 112.65 66.6 114.7 66.7 115.55 68.0 116.2 68.75 116.2 68.85 116.45 69.2 116.2 69.1 115.9 69.05 115.65 69.1 115.35 68.9 114.55 68.7 113.3 68.5 108.4 68.35 105.25 68.65 102.0 69.2 99.0 70.05 93.8 71.5 88.6 73.25 Q85.3 74.3 84.5 74.75 L80.15 76.9 Q77.6 77.9 75.7 79.25 74.6 80.25 73.6 80.7 L72.45 81.1 72.2 81.2 72.0 81.4 71.2 80.05 70.75 79.3 71.1 79.05 71.85 78.4 72.7 77.7 74.35 76.85 76.35 75.85 78.15 74.95 79.9 74.0 81.8 73.1 85.7 71.55 Q88.1 70.45 89.65 70.0 L91.65 69.2 93.55 68.5 M68.65 38.15 L68.75 38.15 70.5 38.45 70.95 38.6 72.35 39.0 73.45 39.35 Q71.15 39.65 69.0 41.4 L68.95 41.25 68.7 41.05 69.0 41.4 68.6 41.7 68.15 41.45 63.9 39.1 65.5 38.05 66.2 37.75 68.15 37.9 Q68.5 37.95 68.65 38.15 M65.15 92.65 Q62.4 85.75 62.4 85.1 L62.5 84.35 62.75 84.05 62.9 84.1 Q63.1 83.95 63.5 84.1 L64.8 83.05 Q65.9 81.8 66.05 80.5 L66.4 76.6 66.1 73.3 66.05 73.1 66.0 73.3 65.75 72.3 Q65.2 70.45 64.7 70.1 L65.15 69.75 65.9 69.3 Q66.6 70.5 67.1 72.85 67.5 75.1 67.5 77.4 L67.2 80.4 66.3 84.55 65.9 86.4 65.65 88.15 65.35 91.85 65.4 92.55 65.15 92.65 M73.1 114.95 L74.05 115.25 83.6 115.95 93.25 116.3 93.5 116.45 93.45 116.35 93.4 116.3 93.45 116.3 95.2 116.3 101.55 115.9 Q106.05 115.3 108.9 114.4 109.75 114.05 113.75 113.35 L116.1 112.75 116.6 112.5 116.65 112.5 116.85 112.4 116.9 112.4 116.9 112.45 117.2 112.45 117.3 112.8 117.75 114.1 117.7 114.1 116.6 114.4 116.25 114.5 Q114.7 114.8 114.4 115.1 L113.9 115.35 112.95 115.75 111.6 116.2 111.2 116.3 109.45 116.85 106.8 117.3 96.05 118.15 91.5 118.2 87.05 118.1 82.65 117.7 79.1 117.3 78.45 117.25 76.2 117.2 74.45 116.95 72.55 117.15 72.45 117.15 70.55 116.6 69.6 116.05 69.5 116.0 68.1 115.45 68.0 115.4 66.7 115.0 66.9 113.8 Q67.0 112.9 67.45 112.9 L67.5 112.9 67.5 112.8 67.4 112.8 67.75 112.9 68.15 113.05 68.15 113.0 68.3 113.1 68.5 113.25 69.35 113.7 70.25 114.0 72.15 114.6 73.1 114.95 M83.95 102.0 L89.45 102.95 96.0 104.3 101.2 105.2 101.4 105.2 102.2 105.3 102.3 105.2 102.45 105.05 102.5 105.0 Q104.0 103.85 105.25 103.0 L105.15 103.35 104.8 105.05 103.75 108.4 101.7 115.05 101.75 115.35 96.3 115.8 93.05 115.8 85.15 104.6 83.6 102.7 83.95 102.0 M138.5 19.95 Q138.35 18.05 139.0 16.35 L139.55 14.7 Q139.9 13.75 140.85 13.55 L141.35 13.75 Q141.95 14.25 141.7 15.1 L141.5 15.3 141.35 15.3 141.05 15.05 140.55 15.05 140.3 15.3 138.65 19.95 138.5 19.95 M134.65 15.1 L134.5 15.5 132.1 15.95 Q130.75 18.6 130.85 21.6 129.85 19.9 130.45 18.05 L130.8 17.1 131.4 15.6 134.65 15.1 M137.4 12.25 L136.95 12.45 136.25 13.8 135.85 15.0 Q135.15 18.2 134.8 21.4 L134.15 17.35 Q135.1 16.4 135.15 15.0 L134.8 14.7 135.7 13.35 136.8 12.15 Q137.35 11.7 138.05 11.8 L138.2 11.9 138.25 12.9 137.4 12.25 M130.35 24.25 Q130.2 23.55 129.7 23.9 L129.35 24.15 Q128.55 26.8 129.45 29.35 127.65 27.75 128.6 25.4 129.1 24.3 128.8 22.95 L129.75 23.0 130.45 24.25 130.35 24.25 M133.3 63.85 L132.9 62.35 Q132.25 60.05 131.2 57.8 L129.85 55.05 128.35 52.35 132.35 47.7 132.5 47.45 133.3 46.3 133.9 45.25 135.05 43.05 136.15 40.8 137.25 37.85 137.5 37.0 137.55 36.55 139.35 38.3 139.45 39.35 Q139.5 40.65 139.1 41.8 L138.7 43.05 137.05 47.7 136.6 48.9 136.6 48.95 Q133.6 56.95 133.6 63.55 L133.6 63.9 133.3 63.85 M144.15 18.75 L144.55 18.3 145.5 19.6 144.8 21.5 144.0 22.0 144.6 20.75 144.15 18.75 M114.6 224.75 L114.65 225.7 114.75 223.35 115.05 220.5 115.15 218.7 115.3 214.75 115.1 211.35 116.35 211.05 118.65 210.6 119.05 210.5 119.5 210.4 121.7 209.75 129.25 207.95 130.2 207.95 Q130.1 208.5 130.25 208.8 L130.2 208.8 Q127.8 210.85 126.1 214.0 L125.85 214.45 124.65 217.1 123.6 219.75 123.35 220.45 Q122.75 221.95 122.3 223.75 L121.9 225.15 121.55 226.9 Q121.1 229.35 121.1 231.05 L121.15 232.35 118.3 232.4 115.5 232.35 115.45 232.35 115.2 232.25 115.2 232.05 115.05 232.15 114.85 232.15 114.8 232.15 114.65 232.1 114.6 232.1 114.45 232.0 114.4 231.9 114.35 232.0 113.75 231.55 113.85 231.5 114.15 229.4 Q114.55 226.4 114.45 224.75 L114.6 224.75 M45.05 203.65 L45.25 203.4 45.7 202.5 Q46.0 201.4 46.55 200.65 L46.6 200.7 47.3 200.9 48.9 201.5 Q49.85 201.8 50.35 202.25 50.9 202.75 51.9 203.1 52.4 203.2 53.1 203.7 L54.5 204.5 54.65 204.55 57.95 205.7 59.65 206.2 59.9 206.3 61.35 206.85 Q62.0 207.0 64.3 208.05 L64.55 208.15 64.55 208.2 66.95 209.15 66.9 209.45 62.25 209.55 57.1 210.45 Q55.6 210.6 53.6 211.5 L51.05 212.9 Q46.8 215.65 45.15 218.25 42.1 222.85 41.1 228.85 L41.2 228.85 41.2 229.05 Q39.05 228.2 38.1 227.6 L38.05 227.6 37.9 227.6 37.35 227.15 37.3 227.05 Q36.3 226.15 36.3 225.2 36.3 224.5 37.55 221.45 L38.95 218.35 40.45 214.85 41.85 211.3 Q42.25 209.85 43.2 207.75 L44.65 204.35 45.05 203.65 M142.4 259.65 L143.15 259.55 146.25 259.05 146.35 259.0 146.8 259.0 Q147.05 258.8 147.25 258.75 L147.7 259.05 150.05 260.45 151.0 261.25 152.15 261.95 154.9 263.25 155.85 263.85 157.15 264.75 158.1 265.45 157.2 265.45 157.25 265.65 156.0 265.5 148.05 264.65 147.35 264.7 146.75 264.8 146.65 264.8 146.3 264.8 Q146.1 264.85 146.05 264.95 L145.7 265.1 145.2 264.9 144.8 264.85 140.3 265.3 136.2 266.1 134.25 266.4 132.95 266.7 132.3 267.2 131.2 267.3 129.3 268.05 128.0 268.6 127.85 268.5 127.7 268.75 127.7 268.8 127.25 269.15 126.9 269.3 126.1 269.5 125.7 269.9 125.1 269.15 124.2 268.1 123.15 266.95 122.45 265.95 121.0 263.75 120.25 262.7 119.75 262.15 119.85 262.05 120.25 261.8 120.8 261.75 120.5 261.75 122.45 261.35 127.45 260.95 131.5 260.8 136.25 260.55 142.4 259.65 M124.5 238.0 L124.0 238.55 122.9 239.6 122.4 240.1 121.9 240.65 121.35 241.8 121.2 242.1 121.15 242.15 120.25 243.9 119.3 246.05 119.05 246.6 118.3 248.95 118.0 250.05 117.7 251.5 Q117.2 253.55 117.2 254.65 L117.25 256.05 117.45 256.1 117.4 256.15 117.35 256.15 114.45 256.05 114.45 255.9 114.15 255.95 Q113.9 255.95 113.8 255.7 L113.75 256.0 112.9 255.85 112.85 255.8 Q112.55 255.45 112.55 255.0 L112.8 252.3 113.05 249.65 113.55 244.3 114.1 239.5 114.15 238.85 114.2 237.55 117.7 237.05 119.65 236.9 124.05 236.6 126.65 236.7 Q126.0 236.85 125.15 237.5 L124.5 238.0 M23.65 143.55 L24.6 140.45 25.85 141.65 Q25.1 142.0 24.7 142.75 L23.8 144.15 23.65 143.55 M13.6 154.45 L14.6 155.45 7.0 165.0 6.6 165.6 3.1 170.1 3.05 170.15 1.3 172.75 Q2.85 167.1 5.1 163.95 5.7 163.0 7.15 161.5 L13.6 154.45 M39.8 222.35 L39.8 222.5 39.9 222.15 39.8 222.35 M30.85 256.85 Q29.15 256.65 27.95 255.9 L28.05 255.55 27.75 255.7 Q27.4 255.7 27.3 255.5 L27.25 255.45 Q26.1 254.5 26.1 253.55 26.1 252.3 28.8 246.45 L31.6 240.5 34.45 234.0 35.2 232.3 35.35 232.35 35.25 232.2 36.15 232.45 36.3 232.55 36.35 232.55 37.0 232.9 37.8 233.2 38.35 233.45 39.65 233.9 41.35 234.6 43.3 235.2 45.25 235.7 46.8 236.2 46.85 236.6 Q43.3 237.5 40.2 240.8 L40.2 240.85 Q37.1 243.95 35.7 246.15 L35.65 246.2 Q31.55 252.55 31.25 256.9 L30.85 256.85 M30.35 263.15 L30.4 263.15 30.9 263.15 37.45 263.95 42.9 264.45 50.55 264.7 56.15 264.55 Q56.4 264.2 57.0 264.1 L57.65 264.1 58.1 264.5 59.55 264.45 62.4 264.5 62.8 264.5 62.8 264.65 62.85 264.65 63.55 267.4 63.8 268.7 63.95 268.65 64.2 270.75 64.2 271.05 63.8 270.45 63.75 270.35 63.9 270.15 63.85 270.05 Q63.6 269.75 62.1 269.35 L60.25 268.9 58.85 268.65 56.55 268.5 44.0 268.75 43.75 268.6 33.5 268.7 31.55 268.95 29.25 269.0 29.25 268.9 28.1 268.95 25.3 269.5 24.15 269.9 23.6 269.9 23.2 269.85 23.1 269.85 22.95 269.85 23.45 267.7 24.5 265.7 24.95 264.7 25.35 263.8 26.5 263.55 29.8 263.1 30.35 263.15 M113.95 251.75 L114.1 250.95 114.05 250.7 113.95 251.75" fill="#ffffff" fill-rule="evenodd" stroke="none"/>
    <path d="M72.75 3.4 L73.25 3.7 73.9 4.3 74.3 5.0 75.15 5.55 75.15 5.45 Q75.7 5.6 76.15 5.9 L76.65 6.15 76.55 6.25 76.65 6.4 77.1 7.35 78.3 7.85 80.25 9.05 Q80.5 9.0 80.7 9.25 L80.95 9.8 80.55 10.7 80.55 10.75 80.5 10.8 80.35 11.0 80.3 11.2 80.45 11.6 80.6 11.9 80.65 11.95 81.0 12.4 82.7 14.8 85.15 18.45 85.9 19.6 86.5 20.8 88.25 23.8 89.3 25.6 90.8 28.7 Q91.15 29.45 91.9 29.6 L93.95 28.65 94.05 28.15 Q94.3 27.35 95.1 27.3 L98.1 27.05 99.15 27.1 98.85 27.05 101.55 27.1 107.75 26.4 108.2 26.3 109.0 26.15 109.95 26.0 112.6 26.05 113.05 26.1 113.5 26.0 113.7 26.1 118.65 27.6 Q119.85 27.95 120.4 29.0 L121.5 31.15 Q123.15 34.7 124.35 38.4 L124.85 40.0 125.3 41.5 126.25 46.05 126.55 47.7 127.35 53.55 127.9 51.95 128.0 52.05 Q128.9 50.85 130.1 49.85 L131.9 47.7 132.0 47.55 133.3 45.45 134.6 43.05 Q136.15 40.5 137.05 37.65 L137.15 37.0 Q137.2 36.55 136.85 36.25 L134.0 34.45 Q132.75 33.8 131.6 32.95 L130.6 31.95 128.55 29.0 Q128.05 28.3 127.9 27.4 127.7 26.1 128.05 24.75 L128.35 23.5 128.65 22.45 Q129.8 22.4 130.35 23.3 L130.85 24.4 Q131.35 25.65 131.45 27.05 L132.85 28.05 Q133.15 26.55 132.35 25.15 L131.2 23.05 130.4 21.5 Q129.7 20.0 129.95 18.4 130.15 17.0 130.95 15.8 L131.5 15.2 Q131.85 14.95 132.25 14.8 L134.15 14.65 134.5 14.5 136.15 12.4 136.95 11.4 138.05 11.3 138.75 11.8 Q139.05 12.4 138.75 12.95 137.55 15.25 137.5 17.8 137.5 19.15 137.9 20.35 L138.2 21.05 Q137.8 17.75 139.05 14.65 139.3 14.05 139.85 13.65 140.25 13.35 140.8 13.3 L141.8 13.45 Q142.4 14.5 142.1 15.65 141.5 17.75 141.35 19.85 141.25 20.8 141.6 21.7 L141.85 22.0 Q142.5 22.45 143.3 22.4 L144.2 20.7 143.6 19.4 144.1 18.05 144.3 18.0 Q145.55 18.25 146.05 19.45 146.4 20.2 146.4 21.05 146.35 22.1 145.75 22.9 145.7 26.45 146.4 30.0 L147.0 33.95 146.95 34.6 146.5 37.0 146.0 39.05 145.2 43.05 145.2 43.1 144.5 47.15 144.4 47.7 144.35 48.05 143.0 53.65 Q141.7 58.5 139.65 63.1 L137.3 68.0 136.0 70.5 134.6 72.45 134.15 72.25 Q133.3 71.8 132.95 70.9 L131.55 71.4 131.5 73.1 131.75 73.2 131.4 73.55 128.1 73.3 126.7 72.95 Q125.1 72.35 123.35 71.95 L120.7 71.35 118.65 71.1 118.0 70.9 117.3 70.8 117.25 70.75 117.2 73.45 117.25 78.2 117.15 83.05 117.2 85.05 117.35 85.8 117.35 86.5 117.45 87.15 117.55 87.15 117.45 87.45 117.55 88.0 117.45 88.0 117.7 89.4 117.55 91.65 117.65 91.65 117.7 91.85 116.15 93.45 115.95 93.55 116.9 107.8 117.25 111.75 117.35 111.75 117.75 112.1 117.75 112.5 118.1 114.05 118.4 115.55 118.7 117.1 118.65 117.5 118.1 117.85 119.15 123.1 119.2 123.25 119.25 123.15 119.35 123.05 119.45 123.05 119.55 123.05 119.75 123.55 119.45 123.55 119.3 123.6 119.55 124.6 119.55 124.7 119.45 124.55 119.0 123.6 118.95 123.6 118.95 123.8 119.2 124.65 119.4 125.55 Q119.35 126.3 119.85 127.4 L120.55 129.15 121.4 132.8 Q121.6 134.75 122.6 136.45 L124.4 140.0 125.4 141.85 126.15 143.6 127.3 147.25 127.8 148.95 128.3 150.55 128.65 151.3 129.25 153.1 129.5 154.05 129.6 154.95 129.9 156.7 130.7 160.25 131.1 163.85 131.3 165.7 131.45 167.55 131.95 171.15 132.1 172.0 132.2 172.9 132.4 174.7 132.5 176.5 132.75 178.25 132.65 178.7 132.95 181.75 Q133.1 184.15 133.5 185.5 135.05 190.5 135.25 192.45 L135.25 192.65 135.35 192.6 135.45 192.4 135.55 193.15 135.55 193.9 Q135.55 195.6 137.05 198.4 L138.5 201.55 138.15 202.75 Q137.65 203.7 136.95 203.75 L136.9 203.75 136.9 203.85 137.15 203.75 137.3 204.65 138.3 207.1 138.85 208.75 139.45 210.4 139.75 211.2 139.95 212.05 140.5 213.75 141.75 217.05 144.1 223.75 Q144.55 224.3 144.8 225.0 L145.0 226.2 Q145.0 228.1 144.3 228.1 L143.95 228.1 143.95 228.15 143.35 228.4 143.4 228.4 143.8 229.1 144.15 230.5 145.15 233.05 147.1 238.2 Q149.4 245.55 149.4 248.55 L149.35 249.25 149.5 249.25 149.55 249.45 Q149.55 249.95 147.5 250.8 L145.9 251.45 146.55 254.7 146.6 254.9 146.65 255.05 146.65 255.1 146.7 255.15 146.95 256.05 146.95 256.0 147.1 256.85 147.2 257.8 Q147.35 258.4 148.2 258.75 149.5 259.2 150.5 260.15 152.05 261.45 155.3 262.95 L156.0 263.5 156.9 264.05 156.5 263.7 157.2 264.1 159.0 265.3 159.25 265.6 159.3 265.65 160.35 267.0 160.35 267.05 160.45 267.35 160.8 268.2 Q161.65 269.85 161.65 271.85 L161.65 272.0 161.65 272.3 161.55 273.85 161.3 275.8 161.3 276.85 161.6 276.65 161.45 277.55 160.85 277.8 158.95 278.15 156.65 278.5 150.6 279.8 144.15 281.45 141.2 282.05 132.1 282.45 131.75 282.55 128.45 282.35 127.9 282.15 125.0 281.75 125.05 281.9 125.05 282.0 124.75 281.75 124.2 281.7 124.15 281.25 124.2 281.25 124.0 281.0 123.4 279.9 121.75 277.8 118.4 273.5 117.0 271.3 115.45 269.2 Q113.6 265.65 113.6 265.0 L113.85 262.9 113.85 258.0 Q113.7 257.75 113.7 257.35 L113.75 256.6 113.5 256.55 113.7 256.8 113.4 256.9 112.8 256.65 112.55 256.5 112.35 256.45 112.35 256.3 112.15 256.0 Q112.0 255.7 112.0 255.05 L112.2 252.2 112.6 249.15 112.8 246.2 113.1 243.4 113.65 237.5 113.55 237.4 113.55 237.2 113.65 237.3 Q113.7 236.35 114.1 234.55 L114.15 234.1 114.1 233.0 114.15 232.55 113.8 232.4 113.5 232.2 113.55 232.7 113.4 232.55 113.2 232.5 113.25 231.85 113.15 231.5 113.35 230.6 113.7 226.25 114.35 215.15 114.25 212.2 114.05 210.75 113.85 209.85 113.7 209.85 Q112.0 209.85 111.85 207.9 L112.0 205.15 111.8 203.85 111.55 202.85 111.7 202.65 111.15 201.0 110.15 198.25 109.05 195.4 108.9 195.05 108.7 194.75 107.85 192.65 106.95 191.3 106.7 190.55 106.35 190.1 105.95 189.3 105.25 187.9 104.25 186.4 103.45 185.0 102.8 183.55 102.35 182.85 101.9 182.15 101.4 181.4 100.2 179.4 99.25 178.1 98.9 177.4 98.45 176.65 96.85 173.9 96.15 172.4 95.85 171.7 95.4 171.0 95.0 170.25 94.55 169.5 94.55 169.45 94.0 170.25 93.0 171.65 92.1 173.1 91.65 173.9 Q91.45 174.1 91.3 174.65 L89.1 178.9 86.2 184.15 Q86.2 184.65 85.4 185.8 L82.55 190.55 78.8 196.9 77.25 199.6 Q76.85 201.1 76.65 203.35 L76.5 204.7 76.2 206.1 75.3 207.5 Q74.5 208.2 73.25 208.3 L73.15 208.55 73.15 208.75 73.1 209.75 73.55 209.75 73.2 210.05 73.05 210.05 72.25 215.7 Q71.8 217.8 71.4 222.55 70.95 224.9 70.85 229.55 L70.75 232.95 70.1 236.4 69.6 237.05 69.3 237.45 69.05 237.7 68.95 237.75 68.9 237.7 67.1 237.45 67.3 240.7 67.4 244.5 67.1 250.7 66.95 253.85 66.95 256.8 66.7 260.6 Q66.5 261.5 66.0 262.0 L64.45 262.4 64.05 262.55 63.85 262.75 63.75 262.75 63.75 262.95 63.7 263.25 63.7 263.3 63.55 264.5 63.8 265.2 64.1 266.75 64.4 267.4 64.65 269.1 64.9 270.55 65.1 272.1 65.0 274.7 64.9 274.8 64.9 281.7 64.8 281.35 64.45 280.9 63.8 281.3 Q63.1 281.55 62.7 281.9 62.3 282.25 61.65 282.4 L59.45 282.75 56.4 283.2 52.5 283.6 50.65 283.9 44.85 284.2 40.25 283.95 36.55 283.65 36.55 283.55 27.15 282.55 25.15 282.25 22.3 281.9 21.9 281.75 Q21.45 281.5 21.5 281.0 L21.5 280.9 21.75 280.8 21.8 280.8 21.75 279.55 Q21.4 278.0 21.4 277.2 L21.3 273.3 21.7 273.15 21.6 272.15 21.75 271.65 22.05 270.2 22.3 269.1 22.65 267.55 22.75 267.25 22.75 267.2 22.95 266.8 23.1 266.7 24.45 264.0 24.3 264.0 24.2 263.75 Q24.2 263.55 24.65 263.3 L25.35 261.25 25.7 259.8 25.8 259.6 27.0 256.35 27.05 256.15 Q26.45 255.75 26.1 255.25 25.5 254.35 25.5 253.5 25.5 253.05 26.55 250.15 L27.95 246.85 31.0 240.25 34.0 233.6 34.7 231.9 35.55 230.3 36.55 228.5 36.95 227.85 36.75 227.6 36.0 226.4 Q35.65 225.95 35.65 225.3 35.65 224.0 37.9 218.9 L41.2 211.2 44.1 204.0 45.75 200.45 Q46.2 199.4 46.75 198.75 L47.05 197.7 47.1 197.6 47.05 197.45 46.65 196.35 Q46.65 195.6 47.55 194.25 48.3 193.1 49.0 192.55 49.05 192.4 49.75 192.2 L50.0 191.7 50.4 190.7 50.9 189.75 51.45 189.3 51.7 188.4 52.1 187.55 52.3 187.35 52.3 187.2 52.1 185.65 Q51.7 184.55 51.7 183.5 L52.05 181.35 52.3 180.25 53.35 177.15 53.65 176.55 53.95 176.05 54.3 175.0 54.95 172.85 55.3 171.8 55.45 170.75 55.7 168.6 56.0 167.6 56.1 167.15 55.9 166.7 55.8 166.6 55.65 166.25 55.25 165.2 54.55 163.95 Q54.55 163.6 55.05 162.65 L55.55 161.4 55.65 160.85 55.9 160.55 55.95 160.25 56.1 160.1 56.1 159.95 56.4 159.0 56.7 157.8 57.0 156.55 57.6 154.05 57.9 149.1 Q57.85 148.55 58.3 146.6 L58.4 146.25 58.3 146.25 Q58.2 146.0 58.7 145.4 L58.95 145.0 59.25 144.15 59.55 144.1 59.7 143.65 59.9 143.2 60.2 141.95 Q60.2 141.45 60.35 141.05 60.55 139.65 60.7 139.35 61.55 136.6 62.1 135.8 L63.0 134.05 63.75 132.7 63.65 132.35 63.8 132.15 63.8 131.45 63.8 131.3 63.85 131.4 64.5 129.25 65.3 126.75 66.5 120.7 66.65 119.95 65.75 119.3 65.7 118.65 65.85 116.8 66.0 115.15 66.25 113.85 Q66.35 112.8 66.6 112.4 66.95 111.8 67.55 112.25 L68.3 105.35 67.55 101.0 66.55 96.25 66.2 96.0 66.25 96.05 66.15 96.05 66.2 96.3 66.15 96.55 65.9 95.95 65.65 95.85 64.8 93.15 63.35 89.4 Q62.05 86.2 62.0 85.15 L62.0 85.05 62.1 84.25 Q62.25 83.7 62.7 83.55 L62.45 82.95 62.05 81.5 61.45 79.9 61.4 79.95 60.7 80.7 60.4 80.9 60.3 81.25 57.75 87.45 56.35 89.75 55.8 90.6 55.1 91.5 54.8 92.05 50.85 97.05 Q49.75 98.3 49.05 99.8 L48.1 101.9 Q46.25 106.0 43.75 109.9 L43.7 110.0 44.2 109.8 45.05 110.95 45.2 111.35 Q45.3 111.9 45.0 112.35 L43.95 113.5 42.85 114.7 39.4 118.75 34.55 124.35 32.0 127.45 24.8 137.3 24.6 138.55 24.2 139.35 24.0 139.7 24.2 140.1 Q24.75 139.6 25.3 140.2 L26.55 141.65 26.9 142.2 26.9 142.6 Q26.4 144.4 25.05 145.8 L24.65 146.55 25.0 147.6 Q25.3 148.1 25.15 148.65 L24.45 149.5 24.5 150.45 23.95 151.25 23.2 151.9 23.2 153.2 22.5 153.8 22.1 154.0 21.35 154.15 21.2 155.1 Q21.1 156.45 20.4 157.65 19.9 158.55 18.9 158.6 18.2 158.6 17.65 158.15 L17.25 158.65 16.6 159.25 Q16.25 159.5 15.9 159.25 L15.6 159.4 14.85 158.75 12.95 161.65 10.25 166.0 8.9 168.35 Q7.9 169.75 6.55 170.75 L1.05 174.8 1.0 174.85 0.7 175.05 0.65 175.1 0.55 175.1 0.5 175.1 0.4 175.05 0.2 175.3 0.0 175.25 0.25 174.75 0.2 174.6 0.55 173.55 0.6 173.35 0.55 173.1 0.6 173.1 1.15 171.1 2.1 168.55 Q2.95 165.75 4.7 163.55 L7.15 160.7 11.85 155.75 11.3 155.05 11.2 155.0 11.1 155.0 Q10.5 153.85 11.45 152.95 L12.65 151.75 Q12.25 150.65 12.55 149.5 L12.75 148.9 13.05 148.35 17.55 134.7 17.4 134.45 17.6 134.05 Q17.85 133.15 18.25 132.35 L18.9 130.7 20.0 127.45 20.35 126.15 Q21.25 124.0 22.95 118.1 L23.5 116.15 24.05 114.4 25.55 109.05 Q26.5 105.8 27.6 102.7 28.0 101.55 28.55 100.5 28.8 100.0 29.4 100.0 L31.55 100.5 32.05 99.25 31.3 97.05 33.65 92.45 Q33.45 91.4 33.7 90.2 L34.2 88.5 Q34.45 87.8 35.05 87.2 36.05 86.25 37.35 85.75 L38.0 84.4 39.0 82.3 Q39.6 81.15 40.4 80.5 L40.3 80.4 39.95 79.75 39.7 78.95 39.6 78.6 39.6 78.05 39.6 77.9 39.35 76.3 39.3 73.15 39.5 71.65 39.35 71.15 Q39.35 69.85 40.15 67.25 L40.35 66.2 Q41.35 61.6 42.2 59.25 L42.5 58.3 43.2 55.8 Q44.05 52.45 45.45 49.25 L45.4 49.05 45.3 49.05 45.25 49.05 45.25 49.0 45.4 48.65 Q46.1 46.7 47.5 45.0 L48.3 44.1 48.5 43.75 50.4 42.35 50.5 42.25 51.4 41.75 53.9 40.5 Q54.45 40.2 55.05 40.0 L55.75 39.7 Q56.4 39.3 57.15 39.15 L58.0 38.95 Q58.85 38.6 59.8 38.6 L60.2 38.4 60.65 38.35 Q62.25 38.05 63.6 38.95 64.85 37.5 66.7 37.25 L66.95 37.35 68.15 37.35 68.3 37.2 68.45 36.85 69.0 36.15 69.35 35.65 70.1 35.65 69.35 34.55 69.15 34.65 68.45 34.4 67.95 33.95 Q67.5 33.35 66.7 33.35 66.2 33.35 65.65 34.4 L65.35 34.85 64.7 35.4 Q64.15 35.4 63.9 34.85 L63.75 34.4 63.65 33.35 64.15 32.1 62.6 31.15 Q62.05 31.15 61.7 31.5 L61.3 31.85 Q60.65 31.85 60.2 30.7 59.8 29.7 59.8 28.85 L58.95 28.75 Q58.65 28.75 58.4 29.5 L57.75 30.15 Q56.95 30.15 56.95 29.15 L57.6 27.4 57.0 26.5 56.45 25.65 Q55.4 24.4 55.4 23.95 55.15 23.85 54.5 24.2 L53.6 24.6 52.9 24.15 52.8 23.65 Q52.8 23.15 52.95 22.8 L53.1 21.75 53.2 19.95 52.95 19.15 52.3 18.85 Q51.75 18.75 51.65 18.45 L51.4 17.75 51.25 16.95 51.55 16.25 51.4 15.8 Q51.25 15.6 51.25 15.25 L51.1 14.35 52.15 13.0 52.5 11.6 52.1 10.9 Q51.75 10.5 51.75 10.15 L51.55 8.75 Q51.55 7.75 52.35 7.45 53.25 7.1 53.4 6.45 L53.75 5.2 Q54.0 4.35 54.55 4.15 L54.5 4.25 54.9 3.75 Q55.55 3.0 56.85 2.85 L57.75 1.8 Q58.0 1.45 60.1 1.45 L61.6 0.4 63.9 0.45 64.85 1.5 65.3 1.55 65.85 1.65 66.3 1.85 67.0 2.05 Q67.5 2.05 67.7 1.65 L68.4 1.2 69.05 1.5 70.55 1.8 Q70.55 2.2 71.6 3.1 L72.75 3.4 M85.85 37.6 L86.25 37.45 88.15 36.6 88.25 36.5 88.5 36.4 88.6 33.05 88.8 31.3 90.05 35.4 93.3 33.0 93.5 30.45 92.45 30.35 Q91.3 30.3 90.65 29.35 L90.35 28.7 90.0 27.75 88.25 24.6 87.0 22.4 86.25 21.15 85.6 20.05 84.05 17.55 82.45 15.25 80.7 12.75 80.05 11.55 79.8 11.15 Q79.8 10.8 80.3 10.3 L80.4 10.1 78.8 8.75 77.2 7.8 Q76.9 7.6 75.7 7.8 L75.65 7.65 75.65 7.55 75.15 7.2 74.4 6.65 74.15 6.45 73.0 5.85 71.55 5.15 71.1 5.0 71.8 5.8 73.75 8.45 73.85 8.4 73.85 8.5 74.0 8.65 74.0 8.75 73.85 8.65 72.05 11.85 72.5 12.4 72.95 12.9 Q71.75 12.45 71.75 11.85 L72.45 10.35 Q73.1 9.1 73.65 8.55 L72.65 7.45 71.55 6.1 70.35 4.85 69.4 4.5 69.15 4.5 68.05 4.2 65.15 3.85 64.4 3.9 64.45 4.05 64.05 4.35 62.65 4.7 62.1 5.05 61.8 5.45 Q61.45 6.1 61.45 7.05 61.45 7.5 60.65 7.6 L60.55 6.5 Q60.55 5.8 61.3 4.7 L61.95 4.2 61.85 4.2 61.25 4.25 60.5 4.35 60.45 4.4 59.8 4.7 59.75 4.7 59.1 5.05 58.1 5.75 Q57.6 6.1 56.7 7.3 L55.95 8.4 55.95 8.75 56.05 8.85 56.6 8.5 Q57.1 8.2 57.5 8.05 L57.7 8.65 57.65 9.05 57.45 9.95 Q57.45 11.0 58.85 11.65 L59.0 11.75 59.0 11.45 Q59.0 10.1 60.25 9.95 L62.0 9.6 63.2 9.75 Q63.75 9.85 63.9 10.65 L63.9 11.05 63.95 11.05 63.9 11.35 63.9 11.75 63.85 11.75 63.25 13.35 63.25 13.4 63.2 13.45 Q62.6 14.65 62.6 15.45 L62.7 15.85 62.75 15.5 Q62.85 14.55 63.4 13.5 64.5 11.25 66.25 11.85 L65.65 12.1 64.8 12.3 Q64.7 12.3 64.45 12.55 L64.1 12.95 63.6 13.85 63.5 14.25 63.85 13.95 Q64.1 13.45 65.65 13.45 L66.45 13.65 66.6 13.65 Q67.95 13.65 67.95 14.0 L67.95 14.2 68.0 14.3 67.85 15.4 Q67.85 15.8 68.3 15.8 68.7 15.8 69.0 15.4 L69.1 14.75 69.2 14.75 69.25 14.7 69.3 14.85 69.3 14.95 69.35 14.95 69.25 15.4 69.0 16.1 68.9 16.7 Q68.9 17.1 69.5 17.25 L69.95 16.8 70.0 16.8 70.05 16.95 69.95 17.2 69.5 18.35 Q69.25 18.9 69.25 19.65 69.25 20.55 69.55 21.3 69.95 22.2 70.75 22.2 71.6 22.2 72.35 21.55 L72.7 21.2 72.85 20.95 74.65 18.35 Q75.35 17.45 75.8 15.7 76.35 13.9 76.95 13.15 L76.9 13.3 78.75 14.6 80.3 16.05 81.35 17.45 81.65 18.0 81.75 17.85 Q82.6 19.8 84.05 24.7 L85.1 30.25 85.45 32.05 85.6 33.9 85.8 37.5 85.75 37.55 85.7 37.55 85.6 37.65 85.85 37.6 M65.9 7.0 Q65.9 7.35 64.45 8.25 L63.5 8.7 62.75 9.2 Q62.5 9.2 62.5 8.8 L62.5 8.7 62.5 8.65 62.45 9.05 62.25 9.2 62.15 8.65 62.4 7.25 Q62.6 6.5 64.05 6.1 L64.85 6.1 64.95 6.3 64.05 6.6 Q63.1 6.9 62.9 7.5 L62.8 8.4 62.85 8.4 62.8 8.6 62.8 8.75 62.8 8.8 63.5 8.35 64.35 7.9 65.1 7.4 65.85 6.9 65.9 7.0 M65.05 14.9 L65.2 14.9 66.15 15.5 Q66.4 15.1 67.0 14.65 L66.55 14.35 66.15 13.85 Q65.6 14.05 65.15 14.75 L65.05 14.9 M64.55 16.4 L65.65 16.95 65.65 16.85 65.95 15.8 66.0 15.7 65.5 15.4 64.95 15.05 Q64.6 15.8 64.55 16.4 M66.8 15.25 L66.85 15.2 66.7 15.3 66.8 15.25 M67.55 14.05 Q67.1 13.8 66.65 13.8 L66.45 13.85 67.2 14.4 67.55 14.05 M66.4 15.6 L66.3 15.7 66.3 15.75 66.4 15.6 M65.65 17.25 L64.9 16.9 64.55 16.65 Q64.55 17.05 64.7 17.25 L65.0 17.65 65.65 17.45 65.65 17.25 M92.55 39.1 Q95.5 35.7 99.05 33.0 L100.15 32.2 100.15 32.0 102.4 33.05 Q106.1 34.95 109.4 37.45 L109.95 37.9 108.7 36.05 106.3 33.0 104.2 30.9 104.0 30.8 Q103.45 29.6 102.5 28.8 L102.15 28.4 Q102.0 28.1 101.65 27.95 L101.35 27.85 100.75 28.0 99.1 27.55 97.85 27.75 96.2 27.7 95.25 27.85 95.0 28.0 94.7 28.0 94.45 28.5 94.6 28.45 93.95 32.45 94.15 32.55 93.8 33.4 Q93.05 36.15 92.45 38.95 L92.3 39.3 92.55 39.1 M119.15 28.3 L118.95 28.1 118.95 28.45 114.85 27.0 114.15 26.7 114.7 27.3 116.9 29.7 117.85 30.95 118.15 30.95 Q118.7 32.4 119.7 33.6 L124.15 39.3 124.25 39.45 124.15 39.25 122.75 35.65 122.95 35.6 120.05 29.35 119.15 28.3 M41.1 65.65 Q39.8 71.35 39.8 74.65 L39.9 77.0 39.9 77.9 39.85 78.15 39.95 78.6 39.95 78.65 40.0 78.7 40.1 78.6 40.8 80.35 41.35 80.6 41.45 80.6 41.45 80.45 Q42.7 73.55 44.9 67.85 46.4 64.0 48.35 60.7 L48.35 60.65 49.7 58.4 51.85 55.15 Q55.9 48.9 61.85 44.45 L63.65 43.1 Q65.4 42.0 67.3 41.5 L63.05 39.15 59.7 41.05 Q57.2 42.45 54.95 44.2 L55.1 44.3 54.15 44.5 54.45 44.25 Q53.6 43.65 52.55 43.25 L50.95 42.7 50.1 43.3 48.6 44.6 47.15 46.45 Q46.4 47.6 46.0 48.85 L49.0 49.75 49.1 49.6 49.35 50.0 49.3 50.2 47.75 52.1 45.65 55.25 43.8 58.4 43.25 59.6 Q42.25 61.7 41.75 63.65 L41.1 65.65 M33.3 99.7 Q33.0 98.25 33.35 96.8 33.75 95.2 34.7 93.9 35.6 92.65 36.9 91.65 L39.3 89.95 41.95 87.35 43.6 84.75 43.85 84.25 43.9 83.8 43.75 83.75 42.9 83.25 42.0 82.7 41.45 82.05 41.15 82.0 41.0 81.55 40.75 81.15 40.6 81.05 40.55 81.25 40.5 81.05 39.95 82.0 38.5 84.75 37.05 87.6 36.1 88.05 36.45 87.45 36.7 86.9 36.15 87.3 35.25 87.95 34.95 88.4 Q34.1 90.0 34.05 91.85 L34.7 90.7 31.85 97.15 32.65 98.45 32.8 98.2 33.0 98.7 32.9 98.9 33.2 99.75 33.5 100.55 33.3 99.7 M41.0 80.95 L41.15 81.0 41.2 80.95 41.0 80.85 41.0 80.95 M41.5 81.0 L41.45 81.0 41.45 81.2 41.5 81.0 M15.2 144.5 Q15.7 142.65 17.85 139.1 L21.25 133.3 22.8 129.95 23.8 127.5 23.85 127.45 25.35 123.2 25.8 121.65 26.75 118.75 26.85 118.45 27.0 117.7 27.45 115.8 27.7 114.85 Q28.0 113.75 28.45 112.8 L29.15 109.95 29.75 108.45 30.25 107.75 30.8 107.05 Q31.35 106.55 31.9 106.5 L32.05 106.5 31.55 105.75 Q30.8 104.7 30.6 103.95 L30.5 103.55 30.25 103.2 30.3 103.1 30.2 102.55 29.7 101.55 Q30.5 101.3 30.8 102.0 L31.3 101.1 30.55 100.85 29.4 100.6 28.7 101.4 28.2 102.5 27.9 103.35 28.25 103.4 27.85 104.2 27.1 106.25 25.9 110.35 23.95 117.0 23.5 118.4 22.95 120.3 21.4 124.95 20.6 127.45 19.6 130.3 18.85 132.05 19.7 130.3 14.95 144.45 12.8 150.6 13.05 151.3 12.95 150.8 15.2 144.5 M93.55 68.5 L91.65 69.2 89.65 70.0 Q88.1 70.45 85.7 71.55 L81.8 73.1 79.9 74.0 78.15 74.95 76.35 75.85 74.35 76.85 72.7 77.7 71.85 78.4 71.1 79.05 70.75 79.3 71.2 80.05 72.0 81.4 72.2 81.2 72.45 81.1 73.6 80.7 Q74.6 80.25 75.7 79.25 77.6 77.9 80.15 76.9 L84.5 74.75 Q85.3 74.3 88.6 73.25 L93.8 71.5 99.0 70.05 102.0 69.2 105.25 68.65 108.4 68.35 113.3 68.5 114.55 68.7 115.35 68.9 115.65 69.1 115.9 69.05 116.2 69.1 116.45 69.2 116.2 68.85 116.2 68.75 115.55 68.0 114.7 66.7 112.65 66.6 112.65 66.5 110.4 66.35 110.4 66.25 106.5 66.2 102.4 66.45 100.1 66.8 97.8 67.3 93.55 68.5 M116.05 64.9 L115.95 65.05 116.05 65.05 116.05 64.9 M117.55 61.75 L117.4 61.75 117.4 61.8 117.55 61.75 M115.75 67.25 L115.8 67.3 115.8 67.25 115.75 67.25 M109.9 62.45 L109.0 62.5 110.05 62.45 109.9 62.45 M68.65 38.15 Q68.5 37.95 68.15 37.9 L66.2 37.75 65.5 38.05 63.9 39.1 68.15 41.45 68.6 41.7 69.0 41.4 68.7 41.05 68.95 41.25 69.0 41.4 Q71.15 39.65 73.45 39.35 L72.35 39.0 70.95 38.6 70.5 38.45 68.75 38.15 68.65 38.15 M42.7 59.4 L42.45 60.4 42.85 59.45 42.7 59.4 M49.7 81.1 L49.7 81.15 49.75 81.15 49.7 81.1 M61.9 75.15 L61.95 75.1 61.9 75.1 61.9 75.15 M61.15 78.45 L61.1 78.3 61.1 78.45 61.15 78.45 M65.4 92.55 L65.35 91.85 65.65 88.15 65.9 86.4 66.3 84.55 67.2 80.4 67.5 77.4 Q67.5 75.1 67.1 72.85 66.6 70.5 65.9 69.3 L65.15 69.75 64.7 70.1 Q65.2 70.45 65.75 72.3 L66.0 73.3 66.05 73.1 66.1 73.3 66.4 76.6 66.05 80.5 Q65.9 81.8 64.8 83.05 L63.5 84.1 Q63.1 83.95 62.9 84.1 L62.75 84.05 62.5 84.35 62.4 85.1 Q62.4 85.75 65.15 92.65 L65.45 93.45 65.4 92.55 M70.6 78.8 L70.55 78.75 70.55 78.85 70.6 78.8 M71.7 81.95 L71.75 81.9 71.7 81.9 71.7 81.95 M68.85 105.05 L68.85 105.5 68.9 105.5 68.85 105.05 M68.9 108.0 L68.9 107.7 68.7 109.1 68.9 108.2 68.9 108.0 M73.1 114.95 L72.15 114.6 70.25 114.0 69.35 113.7 68.5 113.25 68.3 113.1 68.15 113.0 68.15 113.05 67.75 112.9 67.4 112.8 67.5 112.8 67.5 112.9 67.45 112.9 Q67.0 112.9 66.9 113.8 L66.7 115.0 68.0 115.4 68.1 115.45 69.5 116.0 69.6 116.05 70.55 116.6 72.45 117.15 72.55 117.15 74.45 116.95 76.2 117.2 78.45 117.25 79.1 117.3 82.65 117.7 87.05 118.1 91.5 118.2 96.05 118.15 106.8 117.3 109.45 116.85 111.2 116.3 111.6 116.2 112.95 115.75 113.9 115.35 114.4 115.1 Q114.7 114.8 116.25 114.5 L116.6 114.4 117.7 114.1 117.75 114.1 117.3 112.8 117.2 112.45 116.9 112.45 116.9 112.4 116.85 112.4 116.65 112.5 116.6 112.5 116.1 112.75 113.75 113.35 Q109.75 114.05 108.9 114.4 106.05 115.3 101.55 115.9 L95.2 116.3 93.45 116.3 93.4 116.3 93.45 116.35 93.5 116.45 93.25 116.3 83.6 115.95 74.05 115.25 73.1 114.95 M68.25 112.65 L68.2 112.65 68.2 112.7 68.25 112.65 M66.65 120.75 L66.55 121.25 66.65 120.95 66.65 120.75 M115.25 94.05 L115.15 94.15 115.25 94.15 115.25 94.05 M83.6 102.7 L85.15 104.6 93.05 115.8 96.3 115.8 101.75 115.35 101.7 115.05 103.75 108.4 104.8 105.05 105.15 103.35 105.25 103.0 Q104.0 103.85 102.5 105.0 L102.45 105.05 102.3 105.2 102.2 105.3 101.4 105.2 101.2 105.2 96.0 104.3 89.45 102.95 83.95 102.0 83.3 102.05 83.6 102.7 M138.65 19.95 L140.3 15.3 140.55 15.05 141.05 15.05 141.35 15.3 141.5 15.3 141.7 15.1 Q141.95 14.25 141.35 13.75 L140.85 13.55 Q139.9 13.75 139.55 14.7 L139.0 16.35 Q138.35 18.05 138.5 19.95 L138.5 20.05 138.65 19.95 M137.4 12.25 L138.25 12.9 138.2 11.9 138.05 11.8 Q137.35 11.7 136.8 12.15 L135.7 13.35 134.8 14.7 135.15 15.0 Q135.1 16.4 134.15 17.35 L134.8 21.4 Q135.15 18.2 135.85 15.0 L136.25 13.8 136.95 12.45 137.4 12.25 M134.65 15.1 L131.4 15.6 130.8 17.1 130.45 18.05 Q129.85 19.9 130.85 21.6 130.75 18.6 132.1 15.95 L134.5 15.5 134.65 15.1 M133.75 17.25 Q133.35 17.65 133.3 18.25 L133.2 18.95 134.35 21.1 Q133.8 19.3 133.75 17.25 M130.45 24.25 L129.75 23.0 128.8 22.95 Q129.1 24.3 128.6 25.4 127.65 27.75 129.45 29.35 128.55 26.8 129.35 24.15 L129.7 23.9 Q130.2 23.55 130.35 24.25 L130.6 24.7 130.45 24.25 M144.15 18.75 L144.6 20.75 144.0 22.0 144.8 21.5 145.5 19.6 144.55 18.3 144.15 18.75 M133.6 63.9 L133.6 63.55 Q133.6 56.95 136.6 48.95 L136.6 48.9 137.05 47.7 138.7 43.05 139.1 41.8 Q139.5 40.65 139.45 39.35 L139.35 38.3 137.55 36.55 137.5 37.0 137.25 37.85 136.15 40.8 135.05 43.05 133.9 45.25 133.3 46.3 132.5 47.45 132.35 47.7 128.35 52.35 129.85 55.05 131.2 57.8 Q132.25 60.05 132.9 62.35 L133.3 63.85 133.75 65.45 133.6 63.9 M114.45 224.75 Q114.55 226.4 114.15 229.4 L113.85 231.5 113.75 231.55 114.35 232.0 114.4 231.9 114.45 232.0 114.6 232.1 114.65 232.1 114.8 232.15 114.85 232.15 115.05 232.15 115.2 232.05 115.2 232.25 115.45 232.35 115.5 232.35 118.3 232.4 121.15 232.35 121.1 231.05 Q121.1 229.35 121.55 226.9 L121.9 225.15 122.3 223.75 Q122.75 221.95 123.35 220.45 L123.6 219.75 124.65 217.1 125.85 214.45 126.1 214.0 Q127.8 210.85 130.2 208.8 L130.25 208.8 Q130.1 208.5 130.2 207.95 L129.25 207.95 121.7 209.75 119.5 210.4 119.05 210.5 118.65 210.6 116.35 211.05 115.1 211.35 115.3 214.75 115.15 218.7 115.05 220.5 114.75 223.35 114.65 225.7 114.6 224.75 114.75 220.0 114.45 224.7 114.45 224.75 M143.05 228.65 L143.1 228.5 143.05 228.5 143.05 228.65 M145.5 232.7 L145.45 232.75 145.4 232.75 145.5 232.7 M124.5 238.0 L125.15 237.5 Q126.0 236.85 126.65 236.7 L124.05 236.6 119.65 236.9 117.7 237.05 114.2 237.55 114.15 238.85 114.1 239.5 113.55 244.3 113.05 249.65 112.8 252.3 112.55 255.0 Q112.55 255.45 112.85 255.8 L112.9 255.85 113.75 256.0 113.8 255.7 Q113.9 255.95 114.15 255.95 L114.45 255.9 114.45 256.05 117.35 256.15 117.4 256.15 117.45 256.1 117.25 256.05 117.2 254.65 Q117.2 253.55 117.7 251.5 L118.0 250.05 118.3 248.95 119.05 246.6 119.3 246.05 120.25 243.9 121.15 242.15 121.2 242.1 121.35 241.8 121.9 240.65 122.4 240.1 122.9 239.6 124.0 238.55 124.5 238.0 M142.4 259.65 L136.25 260.55 131.5 260.8 127.45 260.95 122.45 261.35 120.5 261.75 120.8 261.75 120.25 261.8 119.85 262.05 119.75 262.15 120.25 262.7 121.0 263.75 122.45 265.95 123.15 266.95 124.2 268.1 125.1 269.15 125.7 269.9 126.1 269.5 126.9 269.3 127.25 269.15 127.7 268.8 127.7 268.75 127.85 268.5 128.0 268.6 129.3 268.05 131.2 267.3 132.3 267.2 132.95 266.7 134.25 266.4 136.2 266.1 140.3 265.3 144.8 264.85 145.2 264.9 145.7 265.1 146.05 264.95 Q146.1 264.85 146.3 264.8 L146.65 264.8 146.75 264.8 147.35 264.7 148.05 264.65 156.0 265.5 157.25 265.65 157.2 265.45 158.1 265.45 157.15 264.75 155.85 263.85 154.9 263.25 152.15 261.95 151.0 261.25 150.05 260.45 147.7 259.05 147.25 258.75 Q147.05 258.8 146.8 259.0 L146.35 259.0 146.25 259.05 143.15 259.55 142.4 259.65 M66.95 209.15 L64.55 208.2 64.55 208.15 64.3 208.05 Q62.0 207.0 61.35 206.85 L59.9 206.3 59.65 206.2 57.95 205.7 54.65 204.55 54.5 204.5 53.1 203.7 Q52.4 203.2 51.9 203.1 50.9 202.75 50.35 202.25 49.85 201.8 48.9 201.5 L47.3 200.9 46.6 200.7 46.55 200.65 Q46.0 201.4 45.7 202.5 L45.25 203.4 45.05 203.65 45.4 202.7 Q44.75 203.95 44.65 204.35 L43.2 207.75 Q42.25 209.85 41.85 211.3 L40.45 214.85 38.95 218.35 37.55 221.45 Q36.3 224.5 36.3 225.2 36.3 226.15 37.3 227.05 L37.35 227.15 37.9 227.6 38.05 227.6 38.1 227.6 Q39.05 228.2 41.2 229.05 L41.2 228.85 41.1 228.85 Q42.1 222.85 45.15 218.25 46.8 215.65 51.05 212.9 L53.6 211.5 Q55.6 210.6 57.1 210.45 L62.25 209.55 66.9 209.45 67.85 209.45 66.95 209.15 M115.1 210.85 L114.95 210.75 115.05 210.9 115.1 210.85 M23.65 143.55 L23.8 144.15 24.7 142.75 Q25.1 142.0 25.85 141.65 L24.6 140.45 23.65 143.55 M13.6 154.45 L7.15 161.5 Q5.7 163.0 5.1 163.95 2.85 167.1 1.3 172.75 L3.05 170.15 3.1 170.1 6.6 165.6 7.0 165.0 14.6 155.45 13.6 154.45 M0.95 174.35 L0.9 174.25 0.85 174.4 0.95 174.35 M39.8 222.35 L39.9 222.15 39.8 222.5 39.8 222.35 M35.95 230.75 L36.05 230.85 36.3 230.1 35.95 230.75 M46.8 236.2 L45.25 235.7 43.3 235.2 41.35 234.6 39.65 233.9 38.35 233.45 37.8 233.2 37.0 232.9 36.35 232.55 36.3 232.55 36.15 232.45 35.25 232.2 35.35 232.35 35.2 232.3 34.45 234.0 31.6 240.5 28.8 246.45 Q26.1 252.3 26.1 253.55 26.1 254.5 27.25 255.45 L27.3 255.5 Q27.4 255.7 27.75 255.7 L28.05 255.55 27.95 255.9 Q29.15 256.65 30.85 256.85 L31.25 256.95 31.25 256.9 Q31.55 252.55 35.65 246.2 L35.7 246.15 Q37.1 243.95 40.2 240.85 L40.2 240.8 Q43.3 237.5 46.85 236.6 L47.55 236.45 46.85 236.2 46.8 236.2 M41.8 229.2 L41.75 229.2 41.85 229.25 41.8 229.2 M37.7 228.25 L37.7 228.2 37.55 228.6 37.7 228.25 M30.35 263.15 L29.8 263.1 26.5 263.55 25.35 263.8 24.95 264.7 24.5 265.7 23.45 267.7 22.95 269.85 23.1 269.85 23.2 269.85 23.6 269.9 24.15 269.9 25.3 269.5 28.1 268.95 29.25 268.9 29.25 269.0 31.55 268.95 33.5 268.7 43.75 268.6 44.0 268.75 56.55 268.5 58.85 268.65 60.25 268.9 62.1 269.35 Q63.6 269.75 63.85 270.05 L63.9 270.15 63.75 270.35 63.8 270.45 64.2 271.05 64.2 270.75 63.95 268.65 63.8 268.7 63.55 267.4 62.85 264.65 62.8 264.65 62.8 264.5 62.4 264.5 59.55 264.45 58.1 264.5 57.65 264.1 57.0 264.1 Q56.4 264.2 56.15 264.55 L50.55 264.7 42.9 264.45 37.45 263.95 30.9 263.15 30.4 263.15 30.35 263.15 M113.95 251.75 L114.05 250.7 114.1 250.95 113.95 251.75" fill="#000000" fill-rule="evenodd" stroke="none"/>
  </g>
</svg>
