<?xml version="1.0" encoding="UTF-8" standalone="no"?>
<svg xmlns:xlink="http://www.w3.org/1999/xlink" height="74.95px" width="76.1px" xmlns="http://www.w3.org/2000/svg">
  <g transform="matrix(1.0, 0.0, 0.0, 1.0, 0.0, 0.0)">
    <path d="M61.5 20.1 L61.45 20.3 Q61.15 20.85 61.1 20.1 L61.1 19.9 61.45 20.0 61.5 20.1 M50.9 25.7 Q51.65 25.8 50.9 25.8 L50.9 25.7 M51.65 35.55 L51.45 35.55 51.35 35.45 50.9 34.9 51.45 35.15 51.45 35.35 51.85 35.4 51.85 35.55 Q52.8 35.05 53.5 35.3 L53.7 35.35 54.1 35.35 54.3 35.35 54.3 35.15 54.3 34.9 54.2 34.9 54.1 34.3 54.3 34.3 54.3 34.1 54.65 34.2 54.65 34.3 54.65 34.5 Q55.0 34.5 54.8 34.85 L54.65 34.9 54.65 35.05 54.5 35.15 54.6 35.45 54.65 35.55 55.25 35.6 55.25 35.75 55.45 35.75 55.65 35.75 56.1 35.75 56.3 35.75 56.65 35.8 56.7 35.95 56.9 35.95 57.1 35.95 57.1 35.75 57.95 35.55 58.1 35.55 58.55 35.45 58.65 35.55 58.85 35.55 59.05 35.55 59.05 35.35 59.25 35.35 Q59.95 35.35 59.45 35.5 L59.25 35.55 59.25 35.65 59.05 35.75 58.85 35.75 58.65 35.75 58.65 35.85 58.3 35.95 58.15 35.95 57.3 36.1 57.3 36.3 57.3 36.5 57.5 36.5 57.7 36.5 57.7 36.3 Q58.1 36.2 58.1 36.5 L58.1 36.7 Q58.35 37.05 59.05 37.0 L59.05 37.1 59.25 37.35 59.25 37.5 Q59.45 38.15 60.05 38.4 L60.1 38.55 60.2 38.55 60.3 38.75 60.3 38.85 60.5 38.95 60.7 38.95 60.9 38.95 60.9 38.75 61.3 38.75 61.5 38.75 61.5 38.55 61.5 38.3 61.5 38.1 61.5 37.9 61.85 38.0 61.9 38.1 61.9 38.3 61.9 38.55 61.9 38.75 Q62.0 39.15 61.7 39.15 L61.65 39.25 61.5 39.35 Q61.4 40.0 61.9 40.1 L62.05 40.1 62.05 39.9 62.05 39.55 62.25 39.55 62.65 39.6 62.65 39.75 62.85 39.95 62.85 40.1 62.95 40.3 63.1 40.3 63.3 40.3 63.5 40.3 63.5 40.1 63.85 40.2 63.9 40.3 Q64.4 40.35 64.5 39.9 L64.5 39.75 64.5 39.55 64.5 38.95 64.7 38.95 64.7 38.75 Q65.35 38.35 65.2 38.9 L65.1 38.95 65.1 39.15 65.1 39.35 65.1 39.55 65.1 39.75 65.1 39.9 65.1 40.1 Q65.15 40.45 65.5 40.5 L65.7 40.5 66.25 40.5 66.5 40.5 66.7 40.5 66.7 40.4 Q66.25 40.45 66.25 40.1 L66.15 40.05 65.85 39.75 66.5 39.55 66.7 39.55 66.7 39.35 66.7 39.15 66.55 39.05 66.5 38.75 66.7 38.75 66.7 38.55 Q67.05 38.5 66.95 38.95 L66.9 39.15 66.9 39.55 66.9 39.75 66.9 39.9 66.9 40.1 66.9 40.3 66.9 40.5 67.1 40.5 67.5 40.5 67.7 40.5 68.05 40.6 68.1 40.7 68.3 40.7 68.3 40.5 68.65 40.6 68.7 40.7 68.75 40.9 68.9 40.9 69.1 40.9 69.3 40.9 69.45 40.9 69.45 40.7 69.45 40.5 69.45 40.3 69.65 40.3 69.65 40.1 Q70.15 39.7 70.0 40.3 L69.85 40.3 69.85 40.5 69.85 40.7 69.85 40.9 70.15 41.3 70.3 41.3 70.45 41.55 70.5 41.7 Q71.4 41.95 71.95 42.65 L72.1 42.75 Q72.4 42.7 72.2 43.1 L72.1 43.15 72.1 43.35 72.3 43.35 72.5 43.35 72.9 43.35 73.1 43.35 Q73.75 43.35 73.25 43.5 L73.1 43.5 72.9 43.55 72.5 43.7 72.3 43.7 72.4 44.3 72.5 44.3 72.9 44.3 73.1 44.3 73.1 44.1 73.25 44.1 Q73.95 44.1 73.45 44.3 L73.25 44.3 73.25 44.5 73.1 44.5 72.9 44.5 Q72.8 45.55 73.5 45.7 L73.7 45.75 Q74.05 45.7 73.85 46.05 L73.7 46.15 73.5 46.15 73.1 46.15 Q73.1 46.65 73.45 46.85 L73.5 46.95 73.65 47.15 73.7 47.3 73.9 47.3 74.1 47.3 Q75.9 46.95 74.25 47.5 L74.1 47.5 73.9 47.55 73.5 47.7 73.5 47.9 73.65 48.0 73.7 48.1 Q74.05 48.1 73.85 48.5 L73.7 48.5 73.7 48.7 73.75 48.9 73.9 48.9 Q74.6 48.95 74.05 49.45 L73.9 49.55 73.9 50.15 73.9 50.35 73.85 50.45 73.5 50.55 Q73.55 51.55 73.85 52.35 L73.9 52.55 Q74.25 52.5 74.05 52.85 L73.9 52.95 73.85 53.1 73.5 53.55 73.5 53.75 73.5 53.95 Q73.6 54.35 73.25 54.35 L73.25 54.45 70.9 56.55 70.9 56.75 71.0 56.75 Q71.15 57.05 70.7 56.95 L70.65 57.1 69.85 58.5 69.85 58.7 69.85 58.9 69.85 59.1 69.65 59.3 69.65 59.55 69.65 59.7 69.45 59.95 69.45 60.1 68.3 62.7 68.3 62.9 68.3 63.15 68.3 63.55 68.3 63.75 68.25 63.9 68.1 64.15 68.1 64.55 68.1 64.75 68.1 64.95 Q68.2 65.35 67.9 65.35 L67.9 65.55 67.85 65.7 67.7 65.9 67.7 66.1 67.1 67.75 67.1 67.95 67.1 68.15 67.1 68.35 Q67.25 69.1 66.9 69.3 L66.9 69.9 65.9 70.2 Q64.65 70.2 64.6 69.8 L64.7 69.1 64.5 68.9 64.5 68.75 64.7 68.75 64.7 68.55 64.7 68.35 65.05 67.9 65.1 67.75 65.1 67.55 65.1 67.35 65.3 67.35 65.3 67.15 Q65.6 67.2 65.5 66.75 L65.5 66.55 65.5 66.3 65.5 66.1 65.7 66.1 65.7 65.9 65.7 65.7 65.7 65.55 65.85 65.55 65.85 65.35 65.85 65.15 65.85 64.95 65.85 64.75 65.85 64.55 65.85 63.75 65.85 63.55 65.85 63.35 65.85 63.15 65.85 62.7 65.75 62.7 65.7 62.1 65.85 62.1 65.85 61.9 65.85 61.55 Q66.75 60.4 67.25 58.9 L67.3 58.7 67.3 58.5 67.3 58.3 67.5 58.3 67.5 58.15 67.5 57.95 67.5 57.75 67.7 57.75 67.7 57.55 67.7 57.15 67.7 56.95 67.7 56.15 67.65 56.05 Q67.35 55.95 67.5 55.5 L67.35 55.5 67.3 55.1 67.3 54.9 67.15 54.9 67.1 54.5 67.05 54.35 Q66.9 54.15 66.9 53.75 L66.75 53.7 66.7 53.35 66.7 53.15 66.7 52.95 66.7 52.75 66.7 52.55 66.9 52.55 66.9 52.3 66.9 52.1 66.9 51.9 66.9 51.7 67.1 51.7 67.1 51.5 Q68.1 50.65 68.2 48.9 L68.1 48.9 67.9 48.9 67.7 48.9 67.5 48.9 67.45 49.05 67.1 49.15 67.1 49.35 67.05 49.45 Q66.65 49.65 66.7 49.35 L66.9 49.35 66.9 49.15 66.7 49.15 66.5 49.15 66.45 49.25 66.05 49.35 65.85 49.35 65.7 49.35 65.65 49.45 Q65.3 49.65 65.3 49.35 L65.3 49.15 65.85 49.15 66.05 49.15 66.05 48.9 66.25 48.9 66.5 48.9 66.7 48.9 66.65 48.75 65.1 47.1 64.9 47.1 64.7 47.1 64.5 47.1 64.3 47.1 64.3 47.3 64.3 47.7 64.3 47.9 64.85 48.0 64.9 48.1 65.05 48.35 65.1 48.5 Q65.4 48.5 65.2 48.9 L65.1 48.9 64.9 48.9 64.85 49.05 Q64.45 49.25 64.5 48.9 L64.3 48.9 Q64.05 48.7 64.1 48.1 L64.1 47.9 64.05 47.8 63.7 47.7 63.55 47.8 Q62.6 48.35 61.9 49.15 L61.9 49.35 61.85 49.5 61.7 49.75 61.5 49.75 59.25 51.1 59.3 51.3 Q59.4 51.75 59.05 51.7 L58.85 51.7 58.85 51.9 58.9 52.1 Q59.0 52.55 58.65 52.55 L58.65 53.35 58.65 53.55 58.65 53.95 58.65 54.15 58.65 54.3 58.45 54.5 58.45 54.9 58.45 55.1 58.45 55.3 58.3 55.5 58.3 55.7 58.3 55.9 57.9 56.75 57.9 56.95 57.9 57.15 57.85 57.3 57.7 57.55 57.7 57.75 57.7 57.95 57.65 58.15 57.5 58.3 57.5 58.7 57.5 58.9 Q57.8 59.0 57.6 59.5 L57.5 59.55 57.5 60.15 57.5 60.35 57.5 60.75 57.5 60.95 57.5 61.55 57.5 61.75 57.5 62.7 57.5 62.9 57.5 63.3 57.25 63.55 Q56.55 64.25 56.1 64.25 L55.4 63.8 54.8 63.1 54.65 62.95 54.65 62.9 54.65 62.5 54.65 62.3 54.65 60.15 54.85 60.15 54.85 59.95 54.85 59.3 54.85 59.1 54.85 58.9 55.05 58.9 55.05 58.7 55.05 58.5 55.05 58.3 Q55.45 58.15 55.55 57.55 L55.65 57.55 55.65 57.35 55.65 56.95 55.85 56.95 55.85 56.75 55.85 56.55 56.05 56.3 56.1 56.15 56.1 55.9 56.1 55.5 56.1 55.3 56.1 54.5 56.3 54.5 56.3 54.35 56.3 53.75 56.3 53.55 56.3 53.35 56.3 53.15 56.3 52.95 56.15 52.85 56.1 52.55 56.1 52.3 56.1 52.1 56.0 52.1 55.85 51.3 56.1 51.3 56.1 51.1 56.1 50.9 56.1 50.75 56.1 50.55 56.3 50.55 56.3 50.35 56.85 49.15 56.9 48.9 56.9 48.7 56.9 48.5 56.9 48.3 56.9 47.7 56.75 47.7 56.7 47.3 56.65 47.15 55.45 44.7 55.35 44.7 55.25 44.1 55.05 44.1 55.05 44.2 Q54.75 44.25 54.85 43.7 L55.05 43.7 55.05 43.5 55.05 43.35 54.95 43.3 54.85 42.95 55.05 42.7 55.05 42.55 54.85 42.55 54.65 42.55 54.65 42.65 Q54.25 42.85 54.3 42.55 L54.1 42.5 53.7 42.35 53.65 42.5 53.1 43.35 53.1 44.1 53.1 44.3 53.1 45.1 53.1 45.3 53.1 45.55 53.2 45.55 53.3 45.75 Q53.6 45.7 53.4 46.05 L53.3 46.15 53.1 46.15 52.95 46.05 52.9 45.75 52.7 45.75 52.55 45.75 51.65 45.95 51.5 45.85 51.25 45.75 51.05 45.75 Q50.75 45.75 50.9 45.3 L50.8 45.3 50.7 44.7 50.7 44.5 50.7 44.1 50.85 44.1 50.9 43.9 50.9 43.7 50.9 43.15 50.9 42.95 50.75 42.9 50.7 42.55 50.7 42.35 50.5 42.25 50.3 42.15 50.3 42.35 50.3 42.55 Q50.4 43.25 50.1 43.5 L50.1 43.7 50.1 43.9 50.1 44.3 50.1 44.5 Q50.6 44.6 50.4 45.3 L50.3 45.3 50.25 45.45 Q49.75 45.65 49.7 45.3 L49.55 45.25 48.65 43.7 48.5 43.7 48.25 43.5 48.25 43.7 Q48.05 44.2 47.85 43.7 L47.7 43.7 47.45 43.5 47.35 43.45 47.3 43.35 47.1 43.35 46.9 43.35 46.8 43.5 45.9 44.1 45.8 44.3 45.05 44.9 45.05 45.1 44.85 45.1 44.85 45.3 44.65 45.55 44.65 45.7 44.45 45.95 44.45 46.15 44.45 46.35 44.45 47.1 44.45 47.3 44.45 47.7 44.45 47.9 44.45 48.3 44.45 48.5 44.5 48.7 Q44.6 49.15 44.25 49.15 L44.25 49.25 43.85 49.55 43.85 49.65 43.3 49.55 43.1 49.45 Q42.7 49.25 42.5 48.7 L42.35 48.7 42.3 48.3 42.3 48.1 42.1 48.1 41.85 47.9 41.85 47.7 Q42.3 47.85 42.3 47.5 L42.3 47.3 42.3 47.1 42.3 46.75 42.3 46.55 42.3 46.35 42.3 46.15 42.3 45.95 42.5 45.95 42.5 45.75 Q42.95 45.4 42.5 45.1 L42.3 45.1 42.1 45.1 42.05 45.3 Q41.9 45.8 41.85 45.1 L41.7 45.15 41.25 45.3 41.05 45.3 40.65 45.3 40.45 45.3 40.45 45.55 40.45 45.75 Q40.95 45.95 40.45 46.05 L40.45 45.95 40.25 45.95 40.05 45.95 39.95 45.95 39.5 46.55 Q39.4 47.2 39.9 47.3 L40.05 47.3 Q40.4 47.35 40.35 46.95 L40.45 46.95 40.45 46.75 40.85 46.8 40.85 46.95 41.0 47.5 40.85 47.5 40.85 47.6 40.25 47.7 40.35 47.9 40.45 47.9 40.6 48.0 Q41.0 48.7 40.25 48.3 L40.05 48.3 39.9 48.3 39.7 48.3 39.5 48.3 39.1 48.3 38.9 48.3 38.8 48.45 38.5 48.5 Q38.35 48.5 38.3 48.6 L37.05 49.55 37.05 49.75 37.1 49.95 Q37.2 50.35 36.85 50.35 L36.85 50.45 34.25 51.7 34.25 52.1 34.25 52.3 34.25 52.45 Q33.85 52.65 33.85 52.3 L33.7 52.3 33.45 52.1 33.25 52.1 32.85 52.1 32.65 52.2 Q32.3 52.3 31.9 52.55 L31.9 52.75 31.8 52.9 31.7 53.15 31.6 53.3 Q31.25 53.7 31.05 54.35 L30.9 54.3 Q30.05 53.05 28.5 54.15 L28.4 54.1 28.3 53.35 28.5 53.35 28.5 53.15 28.5 52.95 Q28.9 52.6 29.45 52.4 L29.65 52.3 29.65 52.1 30.05 52.2 30.05 52.3 Q31.2 52.25 31.1 51.9 L31.05 51.7 30.95 51.7 30.85 51.3 31.05 51.3 31.2 51.3 31.25 51.1 31.25 50.9 31.25 50.55 31.05 50.55 30.85 50.55 30.8 50.65 Q30.45 50.85 30.45 50.55 L30.35 50.5 30.25 49.95 30.65 49.95 30.85 49.95 30.85 49.75 30.85 49.55 31.1 49.7 31.25 49.75 31.25 49.55 32.3 48.6 32.5 48.5 32.5 48.3 33.05 48.3 33.25 48.3 33.65 48.1 33.65 47.9 33.65 47.7 33.65 47.5 33.5 47.5 33.25 47.3 33.05 47.3 32.85 47.3 32.65 47.35 32.3 47.1 32.2 46.95 31.7 46.75 31.55 46.7 31.5 46.35 31.7 46.35 32.1 46.15 32.3 46.15 32.65 46.2 32.65 46.35 33.35 46.65 33.45 46.75 33.65 46.75 33.85 46.75 34.25 46.65 34.25 46.55 34.25 46.35 34.25 45.75 34.25 45.55 34.25 45.3 34.45 45.3 34.45 45.1 Q35.25 44.9 34.7 44.3 L34.65 44.1 34.55 44.1 34.45 43.7 34.65 43.7 34.9 43.55 35.1 43.5 35.1 43.35 35.1 43.15 35.1 42.95 34.9 42.85 34.85 42.75 34.85 42.55 34.7 42.45 34.65 42.35 34.55 42.25 34.45 41.9 34.45 41.7 35.05 41.8 35.1 41.9 35.3 41.9 35.3 41.7 35.3 41.3 35.3 41.1 35.15 41.1 35.1 40.7 35.3 40.7 35.5 40.7 35.85 41.1 35.9 41.3 36.05 41.55 36.1 41.7 36.2 41.75 36.25 41.9 Q36.6 41.95 36.55 41.5 L36.65 41.5 36.85 41.6 36.85 41.7 37.05 41.95 37.05 42.15 37.7 42.45 37.85 42.55 38.5 42.55 38.7 42.55 38.7 42.35 38.55 42.25 38.5 41.9 39.05 41.8 39.1 41.9 39.3 42.05 39.5 42.15 39.5 41.9 38.9 40.7 Q39.5 40.6 39.75 40.9 L39.9 40.9 39.9 40.7 39.9 40.5 39.9 40.3 40.05 40.3 40.05 40.1 40.45 40.1 40.65 40.1 Q41.25 40.0 41.55 39.55 L41.65 39.55 42.1 39.55 42.3 39.55 42.2 39.4 41.85 38.95 41.7 38.85 41.45 38.75 41.45 38.55 41.45 38.4 Q41.15 38.35 41.25 37.9 L41.5 38.05 41.65 38.1 41.85 38.1 41.85 37.9 42.65 38.0 42.7 38.1 Q43.1 38.15 43.2 38.7 L43.3 38.75 43.3 38.55 43.3 38.3 43.5 38.3 43.45 38.15 Q43.3 37.9 43.3 37.5 44.25 37.75 43.95 38.15 L43.85 38.3 Q44.75 38.75 44.75 37.95 L44.85 37.9 44.85 37.7 45.25 37.8 45.25 37.9 45.8 37.7 45.9 37.5 45.7 37.5 45.5 37.5 45.25 37.3 45.05 37.3 Q44.75 37.35 44.85 36.9 45.3 36.8 45.35 37.1 L45.5 37.1 45.6 37.2 45.7 37.3 46.0 37.4 46.1 37.5 46.3 37.5 46.5 37.5 46.5 37.3 46.5 37.1 46.4 37.1 46.1 36.5 45.9 36.45 45.9 36.3 45.9 36.1 46.25 36.2 46.3 36.3 46.5 36.15 46.7 36.1 46.7 35.95 46.7 35.75 46.9 35.75 46.9 35.55 47.1 35.55 Q47.4 35.5 47.2 35.9 L47.1 35.95 47.0 36.05 46.7 36.3 46.7 36.5 46.7 36.9 46.7 37.1 46.85 37.35 46.9 37.5 46.9 37.7 47.45 38.15 47.45 38.3 47.85 38.3 48.05 38.3 48.05 38.1 Q48.5 38.25 48.55 37.95 L48.65 37.9 48.65 37.7 48.65 37.3 48.65 37.1 48.65 36.9 48.55 36.9 48.45 36.5 48.35 36.5 48.25 35.95 48.25 35.75 48.15 35.7 48.05 35.35 48.25 35.35 Q48.7 35.2 48.7 35.55 L48.65 35.75 48.65 35.95 48.65 36.1 Q49.0 36.1 48.9 36.5 L48.85 36.7 48.85 36.9 48.85 37.1 48.85 37.3 Q49.3 37.45 49.4 37.15 L49.5 37.1 49.5 36.9 49.6 36.9 49.7 36.7 49.65 36.55 49.5 36.3 49.35 36.3 49.3 35.95 49.5 35.95 Q50.2 36.15 50.5 35.95 L50.7 35.95 50.7 35.75 51.05 35.8 51.05 35.95 51.25 35.95 51.45 35.95 51.65 35.7 51.65 35.55 M50.9 34.5 L50.85 34.7 Q50.7 35.2 50.7 34.5 L50.7 34.3 50.5 34.25 50.5 34.1 51.05 34.0 51.05 34.1 51.05 34.3 50.9 34.5 M59.7 35.15 Q60.45 35.25 59.7 35.25 L59.7 35.15 M60.5 34.25 L60.5 34.1 60.9 34.1 61.1 34.1 Q61.6 34.0 61.4 34.45 L61.3 34.5 61.25 34.65 61.1 34.7 61.05 34.85 Q60.55 35.05 60.5 34.7 L60.7 34.7 60.7 34.5 60.7 34.3 60.5 34.25 M45.7 29.9 Q46.4 30.4 45.7 30.05 L45.7 29.9 M40.7 27.65 L40.65 27.5 Q41.45 27.95 40.7 27.65 M42.1 29.1 L41.95 29.1 41.85 28.7 42.1 28.7 Q42.4 28.7 42.2 29.1 L42.1 29.1 M41.85 30.1 L42.1 30.1 42.1 29.9 Q42.4 29.9 42.2 30.3 L42.1 30.3 42.05 30.45 Q41.75 30.55 41.85 30.1 M43.9 30.65 L43.85 30.5 Q44.5 30.85 43.9 30.65 M43.1 31.95 L43.45 32.0 43.5 32.15 43.45 32.25 Q43.05 32.4 43.1 32.15 L43.1 31.95 M44.45 33.5 L44.45 33.3 44.85 33.4 44.85 33.5 Q45.2 33.5 45.0 33.9 L44.85 33.9 44.75 34.0 Q44.25 34.35 44.25 33.7 L44.45 33.7 44.45 33.5 M42.75 36.7 L42.7 36.1 42.9 36.1 43.45 36.2 43.5 36.3 43.6 36.35 Q43.85 37.0 43.3 36.9 L43.1 36.9 42.9 36.7 42.75 36.7 M44.25 36.85 Q43.85 37.05 43.85 36.7 L43.85 36.5 44.25 36.6 44.25 36.7 44.25 36.85 M49.1 34.5 L49.2 34.5 Q49.15 35.25 48.65 34.7 L48.55 34.65 48.45 34.3 48.65 34.3 48.65 34.1 48.85 34.1 49.05 34.35 49.1 34.5 M42.7 30.9 Q43.3 31.45 42.7 31.05 L42.7 30.9 M40.65 39.35 L40.65 39.45 Q40.25 39.65 40.25 39.35 L40.1 39.25 39.9 38.75 Q40.2 38.75 40.15 38.3 L40.25 38.3 Q40.8 38.2 40.7 38.75 L40.65 38.95 Q41.0 38.9 40.8 39.3 L40.65 39.35 M54.45 44.4 L54.5 44.5 Q54.8 44.6 54.6 45.1 L54.5 45.1 54.35 45.1 54.3 44.7 54.2 44.7 54.1 44.1 54.45 44.4 M46.9 43.9 L46.9 43.7 Q47.3 43.6 47.3 43.9 L47.3 44.1 47.5 44.3 47.65 44.3 Q48.0 44.3 47.8 44.7 L47.65 44.7 47.65 44.9 47.45 44.9 47.45 45.05 Q47.05 45.25 47.1 44.9 L46.9 44.9 46.9 44.7 46.75 44.7 46.7 44.3 46.9 44.3 46.9 44.1 46.9 43.9 M41.65 45.75 L41.65 45.55 Q42.0 45.6 41.8 46.1 L41.65 46.15 41.55 46.05 41.45 45.75 41.65 45.75 M55.45 45.3 Q55.8 45.3 55.6 45.65 L55.45 45.75 55.35 45.65 55.25 45.3 55.45 45.3 M55.25 46.25 L55.25 46.15 Q56.05 46.25 55.25 46.25 M52.05 46.75 L52.25 46.75 52.25 46.95 52.45 46.95 52.5 47.1 Q53.05 47.3 52.65 47.5 L52.5 47.5 52.25 47.5 52.05 47.5 52.05 47.6 51.25 47.5 51.15 47.5 51.05 46.75 51.25 46.75 51.25 46.55 52.05 46.65 52.05 46.75 M51.05 48.5 Q51.85 48.95 51.1 48.65 L51.05 48.5 M51.65 47.9 Q52.45 48.4 51.75 48.05 L51.65 47.9 M55.2 47.1 L55.05 47.1 55.05 47.2 Q54.45 47.4 54.5 46.75 L54.65 46.75 54.65 46.55 55.05 46.6 55.05 46.75 Q55.4 46.7 55.2 47.1 M54.2 46.75 Q54.25 47.45 53.9 46.95 L53.9 46.75 53.9 46.55 54.0 46.55 54.1 46.75 54.2 46.75 M55.65 46.55 Q56.45 46.95 55.75 46.65 L55.65 46.55 M71.1 37.1 L70.95 37.1 70.9 36.7 71.1 36.7 Q71.4 36.7 71.25 37.1 L71.1 37.1 M69.85 26.25 Q69.45 26.45 69.45 26.1 L69.4 26.1 69.3 25.7 69.45 25.7 69.45 25.5 69.65 25.5 69.85 25.5 Q70.25 25.6 70.0 26.1 L69.85 26.1 69.85 26.25 M65.4 33.1 L65.3 32.7 65.5 32.7 65.5 32.5 65.85 32.6 65.85 32.7 Q66.2 32.7 66.0 33.1 L65.85 33.1 65.85 33.25 Q65.5 33.45 65.5 33.1 L65.4 33.1 M61.7 33.1 L61.9 33.1 61.9 32.9 62.25 33.0 62.25 33.1 Q62.6 33.1 62.4 33.5 L62.25 33.5 62.05 33.5 61.9 33.5 61.8 33.5 61.7 33.1 M61.8 36.9 L61.7 36.5 61.9 36.5 61.9 36.3 62.05 36.3 62.05 36.1 62.65 36.2 62.65 36.3 62.85 36.35 62.85 36.5 Q63.2 36.5 63.0 36.9 L62.85 36.9 62.85 37.05 Q62.2 37.6 61.9 36.9 L61.8 36.9 M65.1 34.3 Q65.85 34.75 65.1 34.45 L65.1 34.3 M63.65 36.2 L63.7 36.3 Q64.3 36.55 64.5 37.3 L64.5 37.5 64.45 37.65 Q63.95 37.9 63.9 37.5 L63.75 37.5 Q63.35 37.1 63.3 36.3 L63.3 36.1 63.65 36.2 M67.3 32.15 Q67.9 32.65 67.35 32.25 L67.3 32.15 M67.05 35.95 L67.1 36.1 67.05 36.3 Q66.75 36.85 66.7 36.1 L66.9 36.1 66.9 35.95 66.9 35.75 67.05 35.95 M66.5 37.1 L66.7 37.1 67.05 37.2 67.1 37.3 67.05 37.45 Q66.65 37.65 66.7 37.3 L66.5 37.3 66.25 37.1 66.5 37.1 M70.5 38.3 L70.7 38.3 70.7 38.1 71.05 38.2 71.1 38.3 Q71.4 38.3 71.25 38.65 L71.1 38.75 71.05 38.85 Q70.65 39.05 70.7 38.75 L70.55 38.65 70.5 38.3 M70.1 39.35 Q70.85 39.45 70.1 39.45 L70.1 39.35 M68.4 39.75 L68.3 39.55 Q70.35 39.75 68.65 40.1 L68.4 39.75 M65.85 37.5 Q66.2 37.5 66.0 37.9 L65.85 37.9 65.9 38.1 Q65.9 38.45 65.5 38.3 L65.5 38.4 Q65.15 38.45 65.3 37.9 L65.3 37.7 65.3 37.3 65.85 37.4 65.85 37.5 M70.7 40.3 Q71.45 40.4 70.7 40.4 L70.7 40.3 M70.5 41.1 Q71.25 41.2 70.5 41.2 L70.5 41.1 M63.1 48.5 L63.3 48.5 63.65 48.6 63.7 48.7 63.7 48.9 63.65 49.05 Q63.25 49.25 63.3 48.9 L63.15 48.9 63.1 48.5 M63.5 49.35 L63.85 49.4 63.9 49.55 63.9 49.75 Q63.9 50.05 63.5 49.95 L63.35 49.9 63.3 49.55 63.5 49.55 63.5 49.35 M72.1 39.35 L72.1 39.15 72.45 39.2 72.5 39.35 Q72.85 39.4 72.6 39.9 L72.5 39.9 72.45 40.05 72.3 40.1 72.3 40.3 72.25 40.5 72.1 40.5 72.1 40.7 Q72.2 41.15 71.9 41.1 L71.85 41.25 Q71.35 41.4 71.3 40.9 L71.7 40.75 71.9 40.7 71.9 40.5 71.9 40.3 72.1 40.3 72.1 40.1 72.1 39.9 72.1 39.75 72.1 39.35 M71.5 41.7 Q72.25 41.8 71.5 41.8 L71.5 41.7 M74.7 43.9 L74.5 43.9 74.45 44.05 74.1 44.1 73.9 44.1 73.7 43.9 73.9 43.9 74.1 43.9 74.1 43.7 74.1 43.5 74.3 43.5 74.3 43.35 74.65 43.4 74.7 43.5 Q75.0 43.5 74.85 43.9 L74.7 43.9 M75.7 45.55 Q76.5 45.3 75.7 45.65 L75.7 45.55 M75.7 46.95 Q76.35 46.95 75.9 47.1 L75.7 47.1 75.5 47.1 75.3 46.95 75.5 46.95 75.7 46.95 M75.3 46.55 Q76.1 46.65 75.3 46.65 L75.3 46.55 M31.4 8.4 Q32.45 8.45 31.4 8.5 L31.4 8.4 M30.6 8.8 Q31.45 8.7 30.95 9.15 L30.8 9.2 30.65 9.25 30.0 9.2 30.4 9.05 30.6 9.0 30.6 8.8 M22.6 3.6 Q23.35 4.05 22.65 3.75 L22.6 3.6 M25.0 6.8 L25.2 6.8 Q25.95 6.85 25.4 7.15 L25.2 7.2 25.1 7.15 25.0 6.8 M24.2 7.9 L24.2 7.8 Q25.0 7.6 24.2 7.9 M22.8 9.0 Q23.55 9.1 22.8 9.1 L22.8 9.0 M20.95 7.7 L21.0 7.8 21.35 7.9 21.4 8.0 21.5 8.05 Q21.75 8.55 21.2 8.4 L21.1 8.45 20.6 8.6 20.4 8.6 20.4 8.8 Q20.35 9.15 20.0 8.8 L19.95 8.95 19.4 9.4 19.4 9.6 19.4 9.8 19.4 10.0 19.4 10.2 19.75 10.3 19.8 10.4 19.8 10.6 Q19.95 11.15 19.6 11.2 L19.6 11.4 19.6 11.6 19.6 11.8 19.8 11.8 19.8 11.6 20.0 11.45 20.2 11.4 20.2 11.2 20.4 11.2 20.6 11.2 Q20.95 11.2 20.7 11.55 L20.6 11.6 20.4 11.6 20.35 11.75 20.2 11.8 20.35 12.05 20.4 12.2 Q20.75 12.2 20.5 12.55 L20.4 12.6 20.2 12.6 20.2 12.8 20.4 12.8 20.6 12.8 20.8 12.8 20.8 12.6 21.15 12.7 21.2 12.8 21.45 13.15 21.6 13.2 22.2 13.2 22.4 13.2 22.4 13.0 22.4 12.8 22.8 12.8 23.0 12.8 23.0 12.6 23.35 12.7 23.4 12.8 Q24.0 12.9 23.9 12.2 L24.0 12.2 24.0 12.0 24.2 12.0 24.2 11.8 24.55 11.9 24.6 12.0 24.8 12.0 25.0 12.0 25.0 11.8 25.4 11.65 25.6 11.6 25.6 11.4 25.8 11.4 25.8 11.2 26.0 11.2 26.2 11.2 27.05 10.65 27.2 10.6 27.4 10.6 27.4 10.4 27.4 10.0 27.55 10.25 27.6 10.4 27.8 10.25 28.0 10.2 28.2 10.2 28.4 10.2 28.4 10.0 28.6 10.0 28.8 10.0 28.8 9.8 29.45 9.45 29.6 9.4 Q30.05 9.3 29.9 9.6 L29.8 9.6 29.75 9.7 28.8 10.2 28.6 10.25 28.4 10.4 28.2 10.4 28.0 10.4 27.95 10.55 27.6 10.8 27.4 10.8 27.35 10.95 26.2 11.4 26.15 11.55 26.0 11.6 25.8 11.65 25.6 11.8 25.4 11.8 25.4 12.0 25.6 12.0 25.8 12.0 26.0 12.0 Q28.0 11.6 25.2 12.8 L25.2 13.0 Q25.15 13.75 24.8 13.2 L24.6 13.2 24.4 13.2 24.2 13.25 Q23.25 13.65 22.4 14.2 L22.4 14.4 Q22.35 14.75 22.0 14.4 L21.8 14.4 21.9 14.75 22.0 14.8 Q23.0 15.15 22.25 15.5 L22.2 15.6 22.4 15.6 22.75 15.7 22.8 15.8 23.0 15.8 Q23.75 15.25 23.9 16.0 L23.8 16.0 23.6 16.0 23.4 16.0 23.2 16.0 23.2 16.2 24.25 16.35 24.4 16.4 24.5 16.4 Q24.5 17.15 24.0 16.6 L23.8 16.6 23.2 16.6 23.0 16.65 Q22.45 16.75 22.4 16.4 L22.2 16.35 Q21.45 16.05 20.8 16.6 L20.9 17.0 20.8 17.0 20.8 17.2 Q20.85 17.55 20.4 17.4 L20.5 18.2 20.4 18.2 20.35 18.4 20.0 18.8 19.8 18.8 19.8 19.0 19.8 19.2 19.95 19.25 20.0 19.4 20.15 19.65 20.2 19.8 20.15 19.95 Q19.8 20.15 19.8 19.8 L19.6 19.8 Q18.65 19.5 17.8 19.8 L17.85 19.95 18.0 20.0 Q18.35 20.0 18.2 20.4 L18.2 20.6 18.2 20.8 18.2 21.0 18.4 21.15 18.6 21.2 Q19.35 21.25 18.8 21.55 L18.6 21.6 18.45 21.55 18.0 21.0 18.0 20.8 17.8 20.8 17.6 20.85 17.4 21.0 17.2 21.0 17.0 21.0 16.95 21.15 16.8 21.2 16.75 21.35 Q16.5 21.7 16.2 21.0 L16.2 20.8 16.1 20.85 Q16.05 21.15 15.6 21.0 L15.6 21.2 Q16.15 21.65 15.95 21.75 L15.8 21.8 15.75 22.0 15.6 22.2 15.6 22.3 15.4 22.2 15.3 22.2 15.2 21.4 15.0 21.4 14.8 21.4 14.6 21.4 14.55 21.55 14.0 21.6 13.9 21.55 13.8 21.2 14.0 21.2 14.05 21.05 Q14.6 20.2 13.6 20.0 L13.55 20.2 13.4 20.4 13.2 20.4 13.0 20.4 12.8 20.4 12.6 20.4 12.4 20.4 Q11.9 20.2 11.4 20.8 L11.35 20.95 11.0 21.2 11.0 21.4 10.6 21.8 10.55 21.95 10.0 22.4 9.95 22.6 9.8 22.8 9.75 22.95 9.4 23.2 9.4 23.4 9.35 23.55 Q8.85 23.75 9.0 23.2 L9.2 23.2 9.2 23.0 9.4 22.85 9.6 22.8 9.6 22.6 Q9.95 22.65 9.9 22.2 L10.0 22.2 10.0 22.0 10.2 21.85 10.4 21.8 10.4 21.6 10.75 21.35 10.8 21.2 10.8 21.0 10.95 20.95 11.0 20.8 10.8 20.8 10.6 20.85 Q9.95 20.95 9.8 20.6 L10.0 20.45 10.2 20.4 10.2 20.2 10.2 20.0 Q10.95 20.45 11.0 19.8 L11.0 19.6 11.0 19.4 11.0 19.2 11.2 19.2 11.2 19.0 11.2 18.4 11.2 18.2 11.2 18.0 11.4 18.0 11.4 17.8 11.75 17.55 11.8 17.4 11.75 17.25 11.6 17.0 11.5 16.95 11.4 16.6 11.2 16.6 11.15 16.75 11.0 16.8 10.95 16.95 10.6 17.0 10.4 17.0 10.35 17.15 Q9.95 17.35 10.0 17.0 L9.8 16.95 9.6 16.8 9.8 16.8 10.0 16.8 10.0 16.6 10.4 16.6 10.6 16.6 10.6 16.4 10.8 16.4 11.0 16.4 11.2 16.4 11.4 16.4 11.6 16.55 11.8 16.6 11.8 16.4 11.8 16.2 11.8 16.0 12.0 16.0 Q12.35 16.0 12.1 16.35 L12.0 16.4 12.0 16.6 12.0 16.8 12.2 16.8 12.2 16.6 12.35 16.55 12.4 16.4 12.4 16.2 12.4 16.0 12.6 16.0 12.6 15.8 12.6 15.6 12.6 15.2 12.4 15.25 Q11.95 15.35 12.0 15.0 L12.0 14.8 12.0 14.6 12.2 14.6 12.2 14.4 12.2 14.2 12.0 14.2 11.85 14.15 11.8 14.0 11.6 14.0 Q11.25 14.05 11.4 13.6 L11.6 13.6 11.6 13.4 11.55 13.25 10.6 13.2 10.4 13.15 10.2 13.0 10.15 12.9 Q9.75 12.75 9.6 12.4 L9.45 12.35 9.4 12.2 9.3 12.15 9.2 11.8 9.2 11.6 9.0 11.6 8.9 11.55 8.8 11.2 9.15 11.3 9.2 11.4 9.4 11.4 Q9.8 10.7 10.4 10.95 L10.6 11.0 10.6 10.8 10.8 10.8 11.0 10.8 11.0 10.6 11.0 10.2 11.2 10.2 11.2 10.0 11.0 9.4 10.9 9.35 10.8 9.0 10.7 8.95 10.6 8.6 10.45 8.55 9.8 8.4 9.75 8.55 9.6 8.6 9.55 8.75 Q9.15 9.25 9.2 8.6 L9.4 8.6 9.4 8.4 9.6 8.4 9.6 8.2 10.95 8.5 11.0 8.6 11.35 8.7 11.4 8.8 11.6 8.8 11.8 8.8 11.75 8.65 11.6 8.4 11.95 8.5 12.0 8.6 12.65 9.35 12.8 9.4 Q13.15 9.4 13.1 9.8 L13.2 9.8 13.2 9.6 13.95 9.65 14.0 9.8 14.05 9.95 Q14.45 10.25 13.6 10.2 L13.55 10.35 13.4 10.4 13.4 10.6 Q13.6 11.35 13.0 10.4 L12.8 10.4 12.6 10.45 12.4 10.6 12.35 10.7 11.8 10.8 11.8 11.0 Q12.15 11.0 12.0 11.4 L12.0 11.6 12.4 11.6 12.6 11.6 Q12.95 11.7 12.7 12.15 L12.6 12.2 Q13.1 12.5 14.15 11.35 L14.8 10.6 14.8 10.4 14.8 10.2 15.0 10.2 15.0 10.0 15.15 9.8 15.2 9.6 15.2 9.4 15.2 9.2 15.05 9.15 15.0 9.0 Q15.85 9.05 16.1 8.45 L16.2 8.4 16.2 8.2 16.55 8.3 16.6 8.4 16.6 8.6 16.6 8.8 16.6 9.0 16.6 9.6 16.6 9.8 16.6 10.0 16.6 10.2 Q17.4 10.1 17.8 9.7 L17.8 9.8 Q18.15 9.8 17.9 10.15 L17.8 10.2 Q18.4 11.05 18.95 10.0 L19.0 9.8 19.0 9.6 19.0 9.4 19.2 9.4 19.2 9.2 19.2 9.0 19.7 8.65 19.8 8.6 19.8 8.4 19.8 8.2 20.0 8.2 20.0 8.0 20.35 7.95 20.4 7.8 20.4 7.6 20.95 7.7 M21.6 9.1 L21.6 9.0 Q22.35 9.1 21.6 9.1 M21.4 9.6 L21.35 9.75 Q21.0 9.95 21.0 9.6 L21.0 9.4 21.35 9.5 21.4 9.6 M22.0 11.0 L22.2 11.0 22.2 10.8 Q22.55 10.8 22.3 11.15 L22.2 11.2 22.05 11.25 Q21.65 11.75 21.6 11.0 L22.0 11.0 M29.65 11.95 L29.6 11.8 Q30.25 12.35 29.65 11.95 M29.8 11.1 L29.8 11.0 Q30.6 10.8 29.8 11.1 M28.0 9.2 Q28.75 9.3 28.0 9.3 L28.0 9.2 M28.7 13.55 L28.6 13.6 28.4 13.55 28.2 13.4 28.4 13.25 28.6 13.2 Q28.95 13.2 28.7 13.55 M28.0 12.6 Q28.75 12.7 28.0 12.7 L28.0 12.6 M26.35 17.75 Q26.0 17.95 26.0 17.6 L26.0 17.4 26.35 17.5 26.4 17.6 26.35 17.75 M25.4 17.8 Q26.2 18.2 25.45 17.9 L25.4 17.8 M29.8 17.0 Q30.15 17.0 30.0 17.4 L30.0 17.6 Q30.45 17.5 30.5 17.8 L30.6 17.8 31.0 17.8 31.2 17.8 Q31.65 17.7 31.7 18.0 L31.8 18.0 32.0 18.0 32.2 18.0 33.4 18.4 33.6 18.4 33.7 18.4 Q33.75 19.15 33.4 18.6 L33.2 18.6 32.0 18.2 31.8 18.2 31.6 18.2 31.2 18.0 31.15 18.15 31.0 18.2 30.8 18.2 29.6 17.8 29.4 17.75 29.2 17.6 29.05 17.55 29.0 17.4 28.8 17.4 28.4 17.4 28.3 17.35 28.2 17.0 28.55 17.1 28.6 17.2 28.8 17.2 29.0 17.2 29.0 17.0 29.2 17.0 29.6 17.0 29.8 17.0 M28.0 17.7 L28.0 17.6 Q28.75 17.7 28.0 17.7 M23.95 14.75 Q23.6 14.95 23.6 14.6 L23.6 14.4 23.95 14.5 24.0 14.6 23.95 14.75 M25.0 14.4 Q25.75 14.5 25.0 14.5 L25.0 14.4 M24.6 15.15 L24.4 15.2 24.3 15.15 24.2 14.8 24.4 14.8 Q25.15 14.85 24.6 15.15 M24.4 14.5 L24.4 14.4 Q25.15 14.5 24.4 14.5 M21.6 12.6 Q22.25 12.95 21.65 12.7 L21.6 12.6 M21.2 18.4 L21.1 18.35 21.0 18.0 21.35 18.1 21.4 18.2 21.6 18.35 21.8 18.4 21.9 18.4 Q21.9 19.15 21.4 18.6 L21.35 18.45 21.2 18.4 M21.0 17.4 L21.2 17.25 21.4 17.2 21.4 17.0 Q22.4 17.05 21.65 17.3 L21.6 17.4 21.55 17.6 Q21.15 18.15 21.0 17.4 M21.8 17.8 L22.15 17.9 22.2 18.0 22.15 18.15 Q21.8 18.35 21.8 18.0 L21.8 17.8 M22.75 18.45 L22.8 18.6 Q23.35 18.95 23.0 19.15 L22.8 19.2 22.8 19.3 Q22.15 19.45 22.2 18.8 L22.4 18.95 22.6 19.0 22.75 18.95 22.8 18.8 22.7 18.75 22.6 18.4 22.75 18.45 M24.2 15.8 Q25.0 15.6 24.2 15.9 L24.2 15.8 M25.2 16.8 Q25.95 16.9 25.2 16.9 L25.2 16.8 M23.4 17.3 L23.4 17.2 Q24.15 17.3 23.4 17.3 M24.75 18.5 L24.8 18.6 24.75 18.75 Q24.4 18.95 24.4 18.6 L24.4 18.4 24.75 18.5 M24.4 17.5 L24.4 17.4 Q25.2 17.2 24.4 17.5 M24.0 20.0 L24.15 20.25 24.2 20.4 25.45 20.95 25.6 21.0 Q26.05 21.2 25.6 21.3 L25.6 21.2 25.4 21.2 Q24.55 20.95 24.0 20.4 L23.8 20.35 23.6 20.2 23.5 20.15 23.4 19.8 23.95 19.9 24.0 20.0 M23.4 18.6 Q24.15 18.7 23.4 18.7 L23.4 18.6 M21.2 19.8 L21.15 20.0 Q20.85 20.55 20.8 19.8 L20.8 19.6 21.0 19.6 21.0 19.4 Q22.15 19.0 21.35 19.75 L21.2 19.8 M22.95 20.3 L23.0 20.4 22.95 20.6 Q22.65 21.15 22.6 20.4 L22.6 20.2 22.95 20.3 M21.6 21.6 L21.6 21.8 21.55 21.95 Q21.2 22.15 21.2 21.8 L21.0 21.75 20.8 21.6 21.6 21.5 21.6 21.6 M22.2 21.3 L22.2 21.2 Q22.95 21.3 22.2 21.3 M20.6 22.0 L20.6 22.2 20.7 22.25 Q20.9 22.8 20.2 22.6 L20.15 22.8 20.0 23.0 20.0 23.2 20.05 23.35 20.2 23.4 20.55 23.65 20.6 23.8 20.7 23.8 Q20.75 24.55 20.4 24.0 L20.2 24.0 Q19.9 24.05 20.0 23.6 L19.8 23.6 19.0 23.2 18.85 23.15 18.8 23.0 18.6 23.0 18.6 23.2 Q18.55 23.55 18.0 23.4 L17.9 23.4 17.8 22.8 17.8 22.6 17.6 22.6 17.5 22.55 17.4 22.2 17.6 22.2 17.8 22.2 18.35 22.7 18.4 22.8 Q18.75 22.85 18.7 22.4 L18.8 22.4 18.8 22.2 18.8 22.0 19.2 22.0 19.4 22.0 19.4 21.8 19.4 21.4 19.6 21.4 19.8 21.4 20.15 21.5 20.2 21.6 Q20.75 21.5 20.6 22.0 M22.0 23.8 Q22.65 24.15 22.05 23.9 L22.0 23.8 M28.35 21.1 L28.4 21.2 28.5 21.25 Q28.65 21.55 28.2 21.4 L28.1 21.35 28.0 21.0 28.35 21.1 M29.85 20.75 L29.8 20.6 Q30.55 21.05 29.85 20.75 M25.5 19.55 L25.4 19.2 25.6 19.2 Q25.95 19.2 25.7 19.55 L25.6 19.6 25.5 19.55 M31.0 16.9 L31.0 16.8 Q31.75 16.9 31.0 16.9 M34.0 16.0 L33.8 16.0 Q33.25 16.05 33.2 15.6 33.75 15.5 33.9 15.75 L34.0 15.8 34.0 16.0 M32.8 19.3 L32.8 19.2 Q33.55 19.3 32.8 19.3 M17.6 2.4 Q18.25 2.75 17.65 2.5 L17.6 2.4 M16.25 2.75 L16.2 2.6 Q16.95 3.05 16.25 2.75 M16.6 3.2 L16.95 3.3 17.0 3.4 Q17.35 3.5 17.1 3.95 L17.0 4.0 16.95 4.15 Q16.6 4.35 16.6 4.0 L16.6 3.8 16.6 3.4 16.6 3.2 M15.8 5.2 L15.8 5.0 16.0 4.85 16.2 4.8 Q16.55 4.8 16.3 5.15 L16.2 5.2 16.15 5.35 Q15.8 5.55 15.8 5.2 M18.8 4.4 Q19.55 4.55 18.95 4.95 L18.8 5.0 18.75 5.2 18.6 5.4 18.5 5.35 18.4 5.0 18.6 5.0 18.6 4.8 18.6 4.4 18.8 4.4 M13.6 2.1 L13.6 2.0 Q14.35 2.1 13.6 2.1 M12.2 0.0 Q12.95 0.1 12.2 0.1 L12.2 0.0 M13.25 5.55 L13.2 5.4 13.6 5.4 13.8 5.4 14.15 5.5 14.2 5.6 Q15.0 5.8 14.65 6.25 L14.6 6.4 14.6 6.6 14.55 6.75 Q14.2 6.95 14.2 6.6 L14.2 6.4 14.2 6.2 14.0 6.25 13.6 6.4 13.55 6.55 Q13.05 6.75 13.0 6.4 L13.0 6.2 13.0 6.0 13.2 6.0 13.35 5.8 13.4 5.6 13.25 5.55 M14.4 5.1 L14.4 5.0 Q15.15 5.1 14.4 5.1 M14.2 7.0 L14.15 7.15 Q13.8 7.35 13.8 7.0 L13.8 6.8 14.15 6.9 14.2 7.0 M15.0 7.4 L15.0 7.2 Q15.45 7.1 15.4 7.4 L15.4 7.6 15.55 7.65 15.6 7.8 Q15.95 7.8 15.7 8.15 L15.6 8.2 15.4 8.15 15.2 8.0 15.0 7.95 14.8 7.8 14.8 8.0 Q14.85 8.35 14.4 8.2 L14.2 8.2 14.15 8.4 Q13.75 9.45 13.2 8.4 L13.05 8.45 Q12.55 8.85 12.6 8.2 L12.8 8.2 13.0 8.2 13.0 8.0 13.0 7.8 13.0 7.6 13.55 7.7 13.6 7.8 13.8 7.95 14.0 8.0 14.2 8.0 14.2 7.8 14.2 7.6 14.6 7.6 14.8 7.6 15.0 7.6 15.0 7.4 M11.4 7.0 L11.35 7.1 Q11.1 7.25 11.2 6.8 L11.4 6.8 Q11.95 6.75 12.15 7.05 L12.2 7.2 12.2 7.4 12.2 7.6 12.15 7.75 Q11.8 7.95 11.8 7.6 L11.7 7.55 11.6 7.2 11.55 7.05 11.4 7.0 M18.8 6.8 Q19.45 7.15 18.85 6.9 L18.8 6.8 M18.0 8.7 L18.0 8.6 Q18.75 8.7 18.0 8.7 M17.8 8.4 L17.6 8.4 17.6 8.6 17.55 8.75 17.2 8.8 17.15 8.95 Q16.7 9.5 16.8 8.4 L17.0 8.4 17.0 8.2 17.0 8.0 Q17.95 7.75 17.9 8.4 L17.8 8.4 M20.2 10.6 L20.1 10.55 20.0 10.2 20.2 10.2 Q20.55 10.2 20.3 10.55 L20.2 10.6 M17.8 9.2 Q18.55 9.3 17.8 9.3 L17.8 9.2 M6.0 2.0 L6.2 2.0 6.2 1.8 6.55 1.9 6.6 2.0 Q6.9 2.0 6.7 2.35 L6.6 2.4 6.55 2.55 Q6.15 2.75 6.2 2.4 L6.1 2.35 6.0 2.0 M7.4 2.8 Q8.15 3.25 7.45 2.95 L7.4 2.8 M5.2 6.0 Q5.95 6.45 5.25 6.15 L5.2 6.0 M6.4 5.5 L6.4 5.4 Q7.15 5.5 6.4 5.5 M4.8 8.4 L5.15 8.5 5.2 8.6 5.2 8.8 5.15 8.95 Q4.75 9.15 4.8 8.8 L4.65 8.75 4.6 8.6 4.8 8.6 4.8 8.4 M2.8 8.6 Q3.55 8.7 2.8 8.7 L2.8 8.6 M9.35 7.3 L9.4 7.4 9.35 7.6 Q8.95 8.15 8.8 7.4 L8.8 7.2 9.35 7.3 M1.0 9.8 L1.15 9.85 1.2 10.0 Q1.5 10.0 1.3 10.35 L1.2 10.4 1.2 10.6 1.15 10.7 0.4 10.6 0.3 10.6 Q0.3 10.2 0.0 10.2 L0.0 10.0 0.0 9.8 0.0 9.6 0.2 9.6 0.4 9.6 0.95 9.7 1.0 9.8 M8.15 9.25 L8.2 9.4 8.4 9.4 Q8.75 9.5 8.6 10.0 L8.6 10.2 8.75 10.25 8.8 10.4 8.75 10.55 8.6 10.6 8.55 10.75 8.4 10.8 8.35 10.95 8.0 11.2 7.95 11.35 7.6 11.4 7.55 11.6 7.4 11.8 7.4 12.0 7.35 12.1 Q6.75 12.35 6.6 12.0 L6.5 11.95 6.4 11.6 6.6 11.6 6.6 11.4 Q6.8 11.2 7.15 11.1 L7.2 11.0 7.2 10.8 8.05 10.65 8.2 10.6 8.2 10.4 8.2 10.2 8.0 10.2 7.95 10.35 Q7.55 10.55 7.6 10.2 L7.45 10.15 Q7.15 9.9 7.2 9.2 L7.2 9.0 7.4 9.0 7.6 9.0 Q8.0 9.0 8.15 9.25 M5.8 10.1 L5.8 10.0 Q6.55 10.1 5.8 10.1 M9.35 12.9 L9.4 13.0 Q9.7 13.0 9.5 13.35 L9.4 13.4 9.4 13.6 9.4 13.8 9.55 13.85 9.6 14.0 Q9.9 14.0 9.7 14.35 L9.6 14.4 9.45 14.35 9.2 14.0 9.2 13.8 9.0 13.8 8.95 13.95 Q8.45 14.15 8.4 13.8 L8.25 13.75 Q7.95 13.55 8.0 13.0 L8.0 12.8 8.0 12.4 8.4 12.6 8.6 12.6 8.95 12.7 9.0 12.8 9.35 12.9 M10.0 13.8 L9.9 13.75 9.8 13.4 10.0 13.4 10.2 13.4 10.4 13.4 Q10.75 13.4 10.5 13.75 L10.4 13.8 10.35 13.95 Q9.95 14.15 10.0 13.8 M8.4 14.2 Q9.15 14.3 8.4 14.3 L8.4 14.2 M5.8 15.4 L5.8 15.2 6.15 15.3 6.2 15.4 6.15 15.6 Q5.75 16.15 5.6 15.4 L5.8 15.4 M5.35 14.9 L5.4 15.0 5.35 15.15 Q4.95 15.35 5.0 15.0 L5.0 14.8 5.35 14.9 M5.3 13.35 L5.2 13.4 5.0 13.4 Q4.65 13.45 4.8 13.0 L4.8 12.8 5.15 12.9 5.2 13.0 Q5.5 13.0 5.3 13.35 M7.0 13.2 L7.0 13.0 7.35 13.1 7.4 13.2 7.4 13.4 7.35 13.55 Q6.95 13.75 7.0 13.4 L7.0 13.2 M7.4 14.8 Q8.15 15.25 7.45 14.95 L7.4 14.8 M6.4 16.6 L6.6 16.6 6.8 16.6 Q7.15 16.7 6.9 17.15 L6.8 17.2 6.6 17.15 6.4 17.0 6.3 16.95 6.2 16.6 6.4 16.6 M7.2 16.2 Q7.95 16.3 7.2 16.3 L7.2 16.2 M5.4 18.2 L5.75 18.3 5.8 18.4 5.75 18.55 Q5.4 18.75 5.4 18.4 L5.4 18.2 M7.2 18.4 L7.4 18.4 7.6 18.4 7.8 18.4 7.8 18.2 7.8 18.0 7.95 18.25 8.0 18.4 8.15 18.65 8.2 18.8 8.15 18.95 8.0 19.0 8.0 19.2 Q8.4 19.1 8.4 19.4 L8.4 19.6 8.4 19.8 8.4 20.0 Q8.7 20.0 8.5 20.35 L8.4 20.4 8.55 20.65 8.6 20.8 9.15 20.9 9.2 21.0 Q9.55 21.0 9.3 21.35 L9.2 21.4 9.15 21.55 Q8.75 21.75 8.8 21.4 L8.65 21.35 8.6 21.2 8.4 21.15 8.2 21.0 8.2 20.8 8.15 20.65 8.0 20.4 7.8 20.35 7.2 19.8 7.1 19.8 7.0 19.2 7.2 19.2 7.15 19.05 7.0 18.8 7.0 18.6 7.2 18.6 7.2 18.4 M7.0 17.2 Q7.8 17.0 7.0 17.3 L7.0 17.2 M6.65 18.35 L6.6 18.2 Q7.35 18.65 6.65 18.35 M10.0 15.8 L9.95 16.0 Q9.8 16.5 9.8 15.8 L9.65 15.75 9.6 15.6 Q9.95 15.3 10.0 15.6 L10.0 15.8 M8.05 16.75 L8.0 16.6 Q8.75 17.05 8.05 16.75 M7.85 17.5 L7.8 17.4 Q8.45 17.75 7.85 17.5 M10.0 17.4 Q10.75 17.5 10.0 17.5 L10.0 17.4 M4.4 12.4 Q5.15 12.5 4.4 12.5 L4.4 12.4 M2.6 13.0 Q3.4 13.4 2.65 13.1 L2.6 13.0 M3.2 14.0 Q3.95 14.1 3.2 14.1 L3.2 14.0 M2.75 14.1 L2.8 14.2 2.95 14.45 3.0 14.6 3.0 14.8 Q2.9 15.25 2.8 14.8 L2.6 14.8 2.2 14.8 2.1 14.8 2.0 14.2 2.2 14.2 2.2 14.0 2.75 14.1 M0.4 17.2 L0.75 17.3 0.8 17.4 0.75 17.55 Q0.35 17.75 0.4 17.4 L0.4 17.2 M4.8 15.6 L4.8 15.4 Q5.35 15.3 5.1 15.75 L5.0 15.8 4.8 15.75 4.6 15.6 4.8 15.6 M3.6 17.2 L3.8 17.2 3.8 17.0 4.15 17.1 4.2 17.2 Q4.5 17.2 4.3 17.55 L4.2 17.6 4.0 17.6 3.8 17.6 3.7 17.55 3.6 17.2 M3.8 18.6 Q4.55 19.05 3.85 18.75 L3.8 18.6 M2.45 23.7 L2.4 23.6 Q3.2 24.0 2.45 23.7 M9.4 19.8 L9.6 19.8 9.7 19.8 Q9.65 21.1 9.2 20.2 L9.4 20.2 9.4 20.0 9.4 19.8 M8.8 20.0 Q9.55 20.1 8.8 20.1 L8.8 20.0 M6.8 23.9 L6.8 23.8 Q7.55 23.9 6.8 23.9 M9.2 22.0 L9.3 22.0 Q9.1 23.25 8.8 22.0 L9.0 22.0 9.2 22.0 M10.0 23.8 L10.2 23.8 10.2 23.6 10.4 23.6 10.4 23.4 10.4 23.2 10.6 23.05 10.8 23.0 10.8 22.8 Q11.1 22.8 10.9 23.15 L10.8 23.2 10.75 23.35 10.6 23.4 10.6 23.6 10.55 23.75 10.4 23.8 10.35 23.95 10.2 24.0 10.2 24.2 9.8 24.6 9.75 24.7 Q9.45 24.85 9.6 24.4 L9.8 24.4 9.8 24.2 9.95 24.15 10.0 24.0 10.0 23.8 M10.8 14.6 L10.8 14.4 Q12.05 14.5 11.0 15.3 L11.0 15.2 10.8 15.2 10.6 15.2 10.4 15.15 10.2 15.0 10.4 15.0 10.6 15.0 10.6 14.8 10.8 14.8 10.8 14.6 M10.8 15.6 Q11.55 15.7 10.8 15.7 L10.8 15.6 M10.2 15.9 L10.2 15.8 Q10.95 15.9 10.2 15.9 M10.4 18.8 Q11.2 18.6 10.4 18.9 L10.4 18.8 M11.8 20.8 Q12.45 21.35 11.85 20.95 L11.8 20.8 M14.0 22.2 Q14.75 22.3 14.0 22.3 L14.0 22.2 M14.8 22.6 L15.35 22.7 15.4 22.8 Q15.9 22.35 15.7 23.2 L15.6 23.2 15.4 23.2 15.4 23.4 15.35 23.55 Q15.0 23.75 15.0 23.4 L14.85 23.35 14.6 22.8 14.8 22.8 14.8 22.6 M14.35 24.55 Q14.0 24.75 14.0 24.4 L14.0 24.2 14.35 24.3 14.4 24.4 14.35 24.55 M19.6 20.2 Q20.25 20.2 19.8 20.4 L19.6 20.4 19.55 20.6 19.4 20.8 19.4 20.9 19.2 20.8 19.0 20.85 Q18.45 20.95 18.6 20.4 18.75 20.05 19.2 20.1 L19.2 20.2 19.4 20.2 19.6 20.2 M16.9 22.35 L16.8 22.4 16.8 22.6 16.8 22.7 Q16.4 22.8 16.2 23.0 L16.1 22.95 16.0 22.6 16.2 22.6 16.2 22.4 16.1 22.35 16.0 22.0 16.2 22.0 16.2 21.8 16.55 21.9 16.6 22.0 16.8 22.0 Q17.15 22.0 16.9 22.35 M15.6 24.1 L15.6 24.0 Q16.35 24.1 15.6 24.1 M17.0 23.6 Q17.35 23.6 17.1 23.95 L17.0 24.0 16.8 24.0 16.7 23.95 16.6 23.6 16.8 23.6 17.0 23.6 M18.4 23.8 L18.55 23.85 Q18.9 24.5 18.0 24.0 L18.0 23.8 18.4 23.7 18.4 23.8 M19.55 24.3 Q19.25 24.15 19.2 23.8 19.75 23.7 19.8 24.0 L19.8 24.2 20.0 24.2 Q20.35 24.3 20.1 24.75 L20.0 24.8 19.85 24.75 19.6 24.4 19.55 24.3 M19.4 25.2 L19.3 25.15 19.2 24.8 19.4 24.8 Q20.0 25.0 19.6 25.2 L19.4 25.2 M17.8 26.2 L17.75 26.35 17.2 26.4 17.65 26.05 17.8 26.0 Q18.45 26.0 18.0 26.2 L17.8 26.2 M18.6 27.0 Q19.35 27.1 18.6 27.1 L18.6 27.0 M19.8 26.6 Q21.35 27.0 19.8 27.3 L19.8 27.2 19.7 27.2 19.6 26.6 19.8 26.6 M16.0 25.6 Q16.75 26.05 16.05 25.75 L16.0 25.6 M16.0 25.3 L16.0 25.2 Q16.8 25.0 16.0 25.3 M15.8 28.2 L16.15 28.3 16.2 28.4 16.2 28.6 Q16.25 28.95 15.8 28.8 L15.7 28.75 15.6 28.4 15.8 28.4 15.8 28.2 M17.2 30.4 Q17.95 30.5 17.2 30.5 L17.2 30.4 M11.0 25.2 L10.95 25.35 Q10.55 25.55 10.6 25.2 L10.6 25.0 10.6 24.8 10.95 24.9 11.0 25.0 11.0 25.2 M10.2 25.4 L10.55 25.5 10.6 25.6 10.55 25.75 Q10.2 25.95 10.2 25.6 L10.2 25.4 M13.4 29.7 L13.4 29.6 Q14.15 29.7 13.4 29.7 M9.8 26.2 L9.6 26.2 9.5 26.15 9.4 25.8 9.6 25.8 9.6 25.6 9.95 25.7 10.0 25.8 Q10.35 25.8 10.1 26.15 L10.0 26.2 9.8 26.2 M5.6 27.4 Q6.15 27.25 6.3 26.65 L6.4 26.6 6.4 26.4 Q7.7 25.45 6.55 26.75 L6.4 26.8 6.35 27.0 Q6.1 27.8 5.6 27.4 M2.8 25.6 Q3.55 25.7 2.8 25.7 L2.8 25.6 M4.25 25.35 L4.2 25.2 Q4.95 25.65 4.25 25.35 M15.45 42.75 Q16.2 42.85 15.45 42.85 L15.45 42.75 M10.95 47.9 Q10.95 48.7 10.45 48.1 L10.45 47.9 10.45 47.7 10.8 47.8 10.85 47.9 10.95 47.9 M14.45 47.5 Q15.25 47.9 14.5 47.6 L14.45 47.5 M19.05 44.9 L19.65 45.0 19.65 45.1 20.25 45.3 20.45 45.3 Q21.1 45.25 20.6 45.65 L20.45 45.75 20.25 45.75 20.05 45.75 19.9 45.75 Q19.45 45.85 19.45 45.55 L19.35 45.45 19.25 45.3 19.15 45.25 19.05 44.9 M20.15 48.9 L20.05 48.5 20.25 48.5 20.45 48.5 Q20.8 48.5 20.6 48.9 L20.45 48.9 20.25 48.9 20.15 48.9 M40.25 30.8 L40.25 30.9 Q40.6 30.95 40.55 31.3 L40.45 31.3 40.45 31.45 Q40.05 31.65 40.05 31.3 L39.9 31.25 39.7 30.9 39.9 30.9 39.9 30.7 40.25 30.8 M31.5 31.95 Q32.5 32.4 31.5 32.05 L31.5 31.95 M31.6 36.8 L31.7 36.9 31.8 37.15 31.9 37.3 Q32.2 37.3 32.0 37.7 L31.9 37.7 31.7 37.7 31.5 37.5 31.35 37.5 31.25 36.9 31.25 36.7 31.6 36.8 M34.45 36.7 Q35.15 36.55 35.1 37.1 L35.1 37.3 35.0 37.45 Q34.65 37.65 34.65 37.3 L34.55 37.3 34.45 36.7 M34.25 34.3 L34.25 34.1 34.6 34.2 34.65 34.3 34.75 34.3 Q34.55 34.8 34.25 34.3 M23.4 27.8 Q23.85 27.85 23.95 28.2 L24.0 28.4 Q24.35 28.4 24.1 28.75 L24.0 28.8 23.8 28.8 23.7 28.8 23.4 27.8 M23.45 35.15 Q24.25 35.25 23.45 35.25 L23.45 35.15 M28.5 36.7 Q29.15 37.5 28.5 36.9 L28.5 36.7 M29.45 35.2 L29.45 35.35 29.45 35.55 Q29.35 35.95 29.25 35.55 L29.15 35.45 29.05 35.15 29.45 35.2 M29.05 40.0 L29.05 39.9 Q29.85 40.0 29.05 40.0 M27.05 38.4 L27.05 38.3 Q27.85 38.1 27.05 38.4 M29.85 42.15 L29.85 42.25 Q29.45 42.45 29.45 42.15 L29.45 41.9 29.45 41.7 29.85 41.95 29.85 42.15 M24.4 40.2 L24.5 40.3 24.6 40.4 24.7 40.5 24.8 40.5 Q24.8 41.25 24.5 40.7 L24.3 40.7 24.25 40.5 24.15 40.5 24.05 40.1 24.4 40.2 M21.85 46.8 L21.85 46.95 21.95 46.95 Q22.2 47.35 21.5 46.95 L21.5 46.75 21.85 46.8 M23.65 41.5 L23.5 41.5 Q23.25 41.3 23.25 40.9 L23.6 41.0 23.65 41.1 Q24.0 41.1 23.8 41.5 L23.65 41.5 M29.65 46.75 L29.85 46.75 30.05 46.75 Q30.6 46.6 30.4 47.1 L30.25 47.1 30.15 47.15 29.25 47.1 29.5 46.95 29.65 46.95 29.65 46.75 M30.05 49.15 L30.05 48.9 30.45 49.0 30.45 49.15 30.45 49.25 Q30.05 49.45 30.05 49.15 M38.7 38.75 Q39.5 38.55 38.7 38.85 L38.7 38.75 M39.1 39.9 L39.1 39.75 39.1 39.55 39.45 39.6 39.5 39.75 Q39.8 39.7 39.6 40.1 L39.5 40.1 39.45 40.25 Q39.05 40.45 39.1 40.1 L39.1 39.9 M36.25 39.75 L36.45 39.75 Q36.8 39.7 36.6 40.1 L36.45 40.1 36.35 40.1 36.25 39.75 M35.1 38.3 Q35.8 39.15 35.1 38.45 L35.1 38.3 M35.1 39.9 Q35.85 40.0 35.1 40.0 L35.1 39.9 M31.5 38.55 L31.5 38.3 Q32.4 37.95 31.9 38.95 L31.9 39.15 31.8 39.25 Q31.45 39.45 31.5 39.15 L31.5 38.95 31.35 38.85 31.25 38.55 31.5 38.55 M32.65 40.9 L33.05 41.0 33.05 41.1 33.15 41.1 Q32.85 41.9 32.65 41.1 L32.65 40.9 M34.4 41.0 L34.45 41.1 34.45 41.3 34.4 41.45 Q34.05 41.65 34.05 41.3 L34.05 41.1 34.05 40.9 34.4 41.0 M32.5 43.5 L32.65 43.5 32.85 43.5 Q33.2 43.5 33.0 43.9 L32.85 43.9 32.75 43.95 Q32.7 44.25 32.3 44.1 L32.25 44.2 Q31.45 44.55 31.5 43.9 L31.9 43.75 32.1 43.7 32.1 43.5 32.3 43.5 32.5 43.5 M39.5 49.15 Q40.55 49.25 39.5 49.25 L39.5 49.15 M40.05 49.55 Q40.7 49.85 40.1 49.65 L40.05 49.55 M39.3 50.55 Q39.9 50.9 39.3 50.65 L39.3 50.55 M39.7 50.15 Q40.35 50.2 39.7 50.25 L39.7 50.15 M39.1 51.9 L39.1 52.1 39.1 52.3 39.0 52.5 38.9 52.75 38.8 52.85 38.5 52.95 38.45 53.05 37.65 52.95 37.55 52.85 Q37.15 52.5 37.25 51.7 37.95 51.3 38.9 51.15 L39.1 51.1 39.1 50.9 39.25 51.15 39.3 51.3 39.25 51.5 39.1 51.7 39.1 51.9 M40.05 51.3 L40.25 51.3 Q40.6 51.3 40.4 51.7 L40.25 51.7 40.25 51.85 39.7 51.9 39.55 51.9 39.5 51.5 39.7 51.5 39.7 51.3 40.05 51.3 M37.25 54.0 L37.25 54.15 37.25 54.35 Q37.6 54.3 37.5 54.7 L37.45 54.9 37.55 55.1 37.65 55.1 38.1 54.95 38.25 54.9 38.25 54.7 39.05 54.8 39.1 54.9 Q40.2 55.0 40.65 55.75 L40.65 55.9 Q41.0 55.9 40.8 56.3 L40.65 56.35 40.65 56.55 40.65 56.75 40.65 56.9 40.45 57.15 40.45 57.35 40.45 57.45 40.05 57.75 40.0 57.9 39.5 58.3 39.4 58.5 39.3 58.5 39.25 58.65 38.7 58.7 38.5 58.75 Q37.95 58.9 37.85 58.5 L37.7 58.5 Q37.5 58.3 37.45 57.95 L37.35 57.9 37.25 57.55 37.15 57.5 Q36.85 57.05 36.85 56.35 L36.85 56.15 36.85 55.9 37.05 55.9 37.05 55.7 37.05 55.55 36.85 55.3 36.75 55.3 36.65 55.1 36.55 55.1 36.45 54.35 36.65 54.35 36.65 54.15 36.85 54.15 36.85 53.95 37.25 54.0 M33.65 53.75 Q33.35 53.75 33.45 53.35 L33.45 53.15 33.85 53.2 33.85 53.35 Q34.2 53.3 34.0 53.7 L33.85 53.75 33.65 53.75 M34.85 53.15 L34.8 53.25 Q34.45 53.45 34.45 53.15 L34.45 52.95 34.8 53.0 34.85 53.15 M31.35 55.15 L31.5 55.1 31.7 54.95 31.9 54.9 31.9 54.7 32.25 54.8 32.3 54.9 32.25 55.1 Q32.1 55.5 31.5 55.3 L31.4 55.45 Q30.9 55.7 30.85 55.3 31.3 55.45 31.35 55.15 M31.9 53.35 L32.1 53.35 32.1 53.15 Q33.0 52.95 32.75 53.9 L32.65 53.95 32.65 54.05 Q32.25 54.25 32.3 53.95 L32.1 53.85 32.1 53.75 31.95 53.7 31.9 53.35 M34.05 55.3 Q34.85 55.4 34.05 55.4 L34.05 55.3 M33.65 57.15 Q34.4 57.25 33.65 57.25 L33.65 57.15 M34.65 57.95 L34.85 57.95 35.3 57.75 35.5 57.75 36.05 58.3 36.1 58.5 36.05 58.7 35.9 58.9 Q35.8 58.9 35.75 59.0 L35.1 59.1 34.9 59.1 34.85 58.9 34.75 58.9 34.65 58.5 34.65 58.3 34.65 57.95 M31.7 56.55 L32.0 56.6 32.1 56.75 32.1 56.95 Q33.15 57.05 32.25 57.3 L32.1 57.35 31.9 57.35 31.7 57.35 31.25 57.35 31.05 57.35 30.65 57.35 30.65 57.45 30.05 57.55 30.1 57.75 Q30.2 58.15 29.85 58.15 L29.65 58.15 29.6 58.3 29.05 58.9 29.05 59.1 Q29.65 59.3 29.25 59.5 L29.05 59.55 28.85 59.55 28.7 59.55 Q28.6 60.25 29.05 60.5 L29.25 60.55 29.25 60.35 29.45 60.35 29.65 60.35 29.65 60.15 29.65 59.95 29.85 59.95 30.05 59.95 Q30.4 59.9 30.2 60.3 L30.05 60.35 30.05 60.55 30.15 60.7 Q30.55 61.25 29.85 61.55 L29.85 61.65 29.45 61.75 29.45 61.9 29.6 62.0 29.65 62.1 29.65 62.3 Q29.45 62.8 29.45 62.1 L29.3 62.1 29.25 61.9 29.25 61.85 28.85 61.35 28.8 61.35 Q28.65 60.45 28.3 59.95 L28.1 59.95 27.85 59.95 27.65 59.95 27.65 60.05 27.05 60.35 27.3 60.65 27.45 60.75 27.6 60.95 27.65 61.15 28.0 61.2 28.1 61.35 28.1 61.55 28.0 61.75 27.85 61.9 27.85 62.1 27.85 62.3 27.8 62.5 27.65 62.7 27.65 62.85 27.05 62.9 Q26.95 63.75 27.65 63.85 L27.65 63.95 27.8 64.15 27.85 64.35 27.8 64.5 27.65 64.75 27.5 64.7 26.65 63.95 26.45 63.95 26.05 63.95 25.85 63.95 24.25 64.55 24.25 64.65 23.45 64.75 23.35 64.75 Q23.3 65.25 22.85 65.35 L22.85 65.55 22.85 65.7 22.85 65.9 22.85 66.1 22.65 66.3 22.65 66.55 22.65 66.75 22.65 67.15 22.65 67.35 22.65 67.5 22.45 67.75 22.45 67.95 22.45 68.15 22.45 68.75 22.45 68.95 Q22.8 68.95 22.6 69.3 L22.45 69.3 22.45 70.15 22.45 70.35 22.45 70.55 22.45 70.75 22.45 71.35 22.45 71.55 22.65 71.75 22.65 71.95 22.65 72.55 22.65 72.75 22.85 72.95 22.85 73.1 22.85 73.3 Q23.2 73.5 22.95 74.1 L22.85 74.15 22.85 74.3 22.05 74.75 22.05 74.85 Q21.65 75.05 21.65 74.75 L21.5 74.7 Q20.8 74.4 20.65 73.55 L20.55 73.5 20.45 72.9 20.45 72.75 20.45 72.55 20.35 72.5 20.25 72.15 20.25 71.95 20.25 71.75 20.25 71.55 20.15 71.5 20.05 71.15 20.05 70.95 20.05 70.55 19.95 70.5 19.85 69.9 19.85 69.7 19.85 69.5 20.05 69.5 20.05 69.3 20.05 69.15 20.05 68.95 20.05 68.75 20.05 68.55 20.25 68.55 20.25 68.35 20.25 68.15 20.25 67.95 20.25 67.35 20.25 67.15 20.25 66.95 20.15 66.9 20.05 65.9 20.05 65.7 20.05 65.55 20.25 65.55 20.25 65.35 20.25 65.15 20.25 64.95 20.45 64.95 20.5 64.75 Q20.7 63.85 20.05 62.7 L19.95 62.7 19.45 61.75 19.65 61.7 19.65 61.55 19.55 61.5 19.45 61.35 20.0 60.7 20.05 60.55 20.0 60.35 19.85 60.15 20.0 60.05 20.05 59.95 19.9 59.9 19.65 59.75 19.45 59.75 19.25 59.75 19.05 59.75 19.05 59.95 19.0 60.05 18.65 60.35 18.65 60.75 18.65 60.95 18.65 61.05 18.05 60.95 17.95 60.9 17.85 60.15 18.25 60.15 18.45 60.15 18.45 59.95 18.3 59.9 17.7 59.3 17.7 59.55 17.6 59.65 17.25 59.75 17.15 59.7 17.05 59.3 17.25 59.3 17.25 59.1 17.5 59.1 17.5 58.9 17.85 58.9 18.05 58.9 18.25 58.9 18.25 58.7 18.45 58.7 18.65 58.7 19.05 58.8 19.05 58.9 19.45 59.0 19.45 59.1 19.8 59.2 19.85 59.3 20.05 59.3 20.45 59.3 20.65 59.3 20.65 59.1 20.45 59.1 20.3 59.1 20.05 58.7 19.85 58.75 Q19.55 58.75 19.65 58.3 L19.8 58.3 19.85 58.15 19.85 57.95 20.2 58.0 20.25 58.15 20.45 58.15 20.65 58.15 20.65 57.95 20.8 57.9 20.85 57.75 20.65 57.75 20.5 57.7 20.25 57.55 20.05 57.55 19.85 57.55 19.7 57.45 19.65 57.35 19.45 57.35 19.25 57.35 19.05 57.35 18.85 57.35 18.65 57.35 18.55 57.3 18.45 56.95 18.65 56.95 18.65 56.75 18.85 56.75 18.85 56.55 18.85 56.35 18.85 56.15 Q19.3 56.0 19.25 56.35 L19.25 56.55 19.45 56.55 20.0 56.95 20.05 57.15 20.25 57.15 20.45 57.15 20.65 57.15 20.85 57.15 20.85 56.95 20.85 56.55 21.0 56.55 21.1 56.75 Q21.75 57.6 22.15 56.95 L22.25 56.95 22.25 56.75 22.05 56.55 22.05 56.35 22.05 56.15 22.2 56.1 22.25 55.9 22.25 55.7 22.45 55.7 22.65 55.7 22.85 55.7 22.85 55.5 22.85 55.3 22.65 55.35 Q22.25 55.45 22.25 55.1 L22.1 55.1 21.85 54.7 21.65 54.7 21.5 54.5 22.25 54.6 22.25 54.7 22.65 54.8 22.65 54.9 22.85 55.0 22.85 55.1 23.25 55.4 23.25 55.5 23.45 55.5 23.65 55.5 23.85 55.5 24.05 55.5 24.05 55.3 24.25 55.3 24.5 55.3 24.5 55.5 24.6 55.5 23.45 56.35 23.45 56.75 23.45 56.95 Q23.55 58.85 24.05 60.35 L24.05 60.55 Q25.05 60.65 24.75 58.5 L24.7 57.35 Q26.75 56.45 29.05 55.75 L29.25 55.7 29.9 55.6 Q29.95 55.5 30.05 55.5 L30.25 55.5 30.45 55.5 Q31.1 55.55 30.65 55.7 L30.45 55.7 30.45 55.9 30.25 55.9 30.1 56.0 29.85 56.15 29.85 56.3 29.65 56.35 Q29.55 57.05 29.9 57.3 L30.05 57.35 30.05 57.15 30.25 57.15 31.05 57.15 31.25 57.15 31.5 57.15 31.7 57.15 31.7 56.95 31.7 56.75 31.7 56.55 M31.65 60.05 L31.7 60.15 Q32.0 60.2 31.8 60.7 L31.7 60.75 31.6 60.85 31.5 60.95 31.4 61.05 30.85 60.95 30.75 60.9 30.65 60.15 31.65 60.05 M39.9 58.3 Q40.95 58.75 39.9 58.45 L39.9 58.3 M35.7 57.15 Q36.7 57.35 35.7 57.25 L35.7 57.15 M29.65 50.9 L29.85 50.9 30.05 50.9 Q30.4 50.9 30.2 51.3 L30.05 51.3 29.95 51.4 Q29.25 52.25 29.05 51.1 L29.25 51.1 29.25 50.9 29.65 50.9 M28.2 52.1 L28.1 52.1 27.85 52.15 Q27.55 52.15 27.65 51.7 L27.85 51.7 28.1 51.7 Q28.4 51.7 28.2 52.1 M28.95 55.5 L28.85 54.9 29.25 55.0 29.25 55.1 29.05 55.1 29.05 55.3 29.05 55.5 28.95 55.5 M28.5 54.35 L28.6 54.35 Q28.6 55.05 28.3 54.5 L28.4 54.5 28.5 54.35 M26.25 51.6 L26.25 51.7 26.25 51.85 Q25.85 52.05 25.85 51.7 L25.85 51.5 26.25 51.6 M25.4 49.95 L25.45 50.15 Q25.8 50.2 25.55 50.7 L25.45 50.75 25.45 50.9 25.45 51.1 Q25.8 51.1 25.65 51.55 L25.65 51.7 25.65 52.3 25.65 52.55 26.0 52.75 26.05 52.95 26.25 53.15 26.25 53.35 Q26.7 54.05 27.5 54.3 L27.65 54.35 27.6 54.45 Q26.8 54.95 26.25 54.7 L26.25 54.55 25.65 54.35 25.65 54.45 Q25.15 54.65 25.25 54.15 L25.1 54.15 Q24.65 54.25 24.7 53.95 L24.5 53.95 24.05 53.95 24.1 54.05 Q24.45 54.35 23.85 54.5 L23.8 54.6 23.05 54.5 23.3 54.35 23.45 54.35 23.45 54.15 23.25 54.15 23.05 54.15 22.85 54.15 Q22.35 54.25 22.45 53.75 L22.65 53.75 22.65 53.55 22.85 53.55 23.05 53.55 24.5 53.65 24.7 53.75 24.9 53.75 25.1 53.75 25.25 53.75 25.45 53.75 25.45 53.55 Q25.2 53.2 25.25 52.55 L25.45 52.55 25.45 52.3 25.45 52.1 25.35 52.1 25.25 51.7 25.25 51.5 25.25 51.3 25.25 51.15 Q25.0 50.75 24.9 50.15 L25.1 50.15 25.1 49.95 25.1 49.75 25.4 49.95 M20.25 50.65 L20.25 50.55 Q21.05 50.65 20.25 50.65 M22.65 52.1 L22.85 52.1 Q23.35 52.4 22.85 52.65 L22.85 52.55 22.75 52.5 22.45 52.1 22.65 52.1 M20.4 52.4 L20.45 52.55 20.65 52.55 Q21.4 52.85 20.65 52.85 L20.65 52.75 20.5 52.65 20.25 52.55 20.1 52.5 20.05 52.3 19.9 52.3 19.85 52.1 20.2 52.2 20.25 52.3 20.4 52.4 M21.65 53.35 Q22.7 53.8 21.7 53.45 L21.65 53.35 M21.1 52.95 Q22.1 53.4 21.1 53.05 L21.1 52.95 M20.45 55.5 L20.6 55.75 20.65 55.9 20.65 56.15 Q21.15 56.35 20.65 56.45 L20.65 56.35 20.55 56.3 20.45 55.9 20.35 55.9 20.05 55.3 20.4 55.4 20.45 55.5 M24.5 53.35 Q25.25 53.15 24.5 53.45 L24.5 53.35 M23.65 65.55 L23.6 65.65 Q23.25 65.85 23.25 65.55 L23.25 65.35 23.6 65.45 23.65 65.55 M29.65 62.9 L29.65 62.7 29.65 62.5 29.85 62.75 29.85 62.9 30.05 63.0 30.05 63.15 30.25 63.35 30.25 63.55 Q30.6 63.5 30.4 63.9 L30.25 63.95 30.25 64.05 Q29.85 64.25 29.85 63.95 L29.85 63.75 29.75 63.7 29.65 63.35 29.85 63.35 29.85 63.15 29.75 63.1 29.65 62.9 M37.05 62.7 Q37.85 62.8 37.05 62.8 L37.05 62.7 M31.7 65.55 L32.0 65.6 32.1 65.7 32.2 65.75 Q32.3 66.65 31.9 66.1 L31.75 66.1 31.7 65.7 31.7 65.55 M30.85 64.55 L31.45 64.65 31.5 64.75 Q31.8 64.7 31.6 65.1 L31.5 65.15 31.4 65.25 Q31.05 65.45 31.05 65.15 L30.95 65.1 30.85 64.55 M15.65 51.5 Q16.45 51.9 15.7 51.65 L15.65 51.5 M17.5 54.35 L17.7 54.35 Q18.1 54.2 17.95 54.5 L17.85 54.5 17.85 54.7 17.8 54.85 Q17.45 55.05 17.5 54.7 L17.35 54.7 17.25 54.35 17.5 54.35 M16.05 54.45 L16.05 54.35 Q16.8 54.45 16.05 54.45 M19.65 53.55 Q20.3 54.05 19.7 53.65 L19.65 53.55 M17.85 53.15 Q18.65 53.55 17.9 53.25 L17.85 53.15 M19.45 54.35 Q19.9 54.2 19.9 54.5 L19.85 54.7 19.95 54.7 Q19.85 55.2 19.65 54.7 L19.65 54.55 19.45 54.35 M11.25 51.9 L11.45 51.9 11.65 51.9 Q12.5 51.8 12.0 52.3 L11.85 52.3 11.7 52.4 10.65 52.3 11.05 52.15 11.25 52.1 11.25 51.9 M14.35 58.5 L14.15 58.5 14.1 58.15 14.25 58.15 Q14.6 58.15 14.35 58.5 M11.25 58.3 L11.45 58.3 11.65 58.3 12.05 58.4 12.05 58.5 12.15 58.55 Q12.2 58.9 11.65 58.7 L11.45 58.7 11.25 58.5 11.25 58.3 M12.45 57.95 L12.45 58.15 12.4 58.25 Q12.05 58.45 12.05 58.15 L11.95 58.1 11.85 57.75 12.05 57.75 Q12.5 57.6 12.45 57.95 M20.05 56.75 Q20.85 56.85 20.05 56.85 L20.05 56.75 M18.25 57.75 L18.45 57.75 Q18.8 57.7 18.55 58.1 L18.45 58.15 18.3 58.1 18.05 57.75 18.25 57.75 M16.45 58.3 Q17.25 58.7 16.5 58.45 L16.45 58.3 M16.25 57.75 L16.25 57.95 Q16.2 58.75 15.25 57.75 L15.5 57.55 15.65 57.55 16.2 57.65 16.25 57.75 M16.2 59.3 L16.05 59.55 16.0 59.65 Q15.65 59.9 15.65 59.55 L15.65 59.3 15.85 59.3 15.85 59.1 15.85 58.9 16.2 59.0 16.25 59.1 16.2 59.3 M16.85 58.7 Q17.6 59.2 16.9 58.85 L16.85 58.7 M9.85 54.9 Q10.65 55.0 9.85 55.0 L9.85 54.9 M9.25 54.15 L9.45 54.15 Q9.9 54.0 9.8 54.3 L9.65 54.35 9.6 54.45 Q9.1 54.65 9.25 54.15 M6.45 58.5 Q7.25 58.6 6.45 58.6 L6.45 58.5 M19.85 63.75 Q20.5 64.05 19.9 63.85 L19.85 63.75 M14.15 62.5 L14.1 62.5 14.0 62.65 Q13.65 62.85 13.65 62.5 L13.65 62.3 13.9 62.3 13.9 62.1 Q14.4 62.0 14.15 62.5 M19.25 64.75 L19.15 64.7 19.05 64.35 19.25 64.35 19.25 64.15 Q20.05 63.95 19.75 64.7 L19.65 64.75 19.65 64.85 Q19.25 65.05 19.25 64.75 M15.05 63.35 L14.95 63.3 14.85 62.9 14.85 62.7 Q15.45 62.65 15.15 63.3 L15.05 63.35 M13.65 63.35 Q14.0 63.3 13.8 63.7 L13.65 63.75 13.45 63.75 13.25 63.75 13.05 63.75 13.0 63.85 12.65 64.15 12.6 64.25 12.25 64.35 12.15 64.3 12.05 63.95 12.25 63.95 12.65 63.75 12.85 63.75 12.85 63.55 13.05 63.55 13.25 63.55 13.25 63.35 13.45 63.35 13.65 63.35 M17.7 69.15 Q18.45 69.2 17.7 69.2 L17.7 69.15 M15.45 70.75 Q16.2 70.85 15.45 70.85 L15.45 70.75 M72.1 56.55 Q72.7 57.25 72.15 56.65 L72.1 56.55 M72.25 59.8 L72.3 59.95 72.25 60.1 Q71.95 60.65 71.9 59.95 L71.9 59.75 72.25 59.8 M66.25 50.75 Q67.05 51.2 66.35 50.85 L66.25 50.75 M61.7 49.95 Q62.45 50.35 61.7 50.05 L61.7 49.95 M61.0 55.5 L60.9 55.5 60.85 55.65 Q60.45 55.85 60.5 55.5 L60.5 55.3 60.5 55.1 60.5 54.9 60.85 55.0 60.9 55.1 Q61.2 55.1 61.0 55.5 M65.3 54.7 Q65.6 54.8 65.4 55.3 L65.2 55.3 65.1 54.7 65.3 54.7 M64.7 53.95 Q65.3 54.3 64.7 54.05 L64.7 53.95 M63.75 57.1 L63.7 56.55 63.9 56.55 Q64.6 56.55 64.05 57.05 L63.9 57.15 63.75 57.1 M61.7 57.05 L61.7 56.95 Q62.45 57.35 61.7 57.05 M61.3 56.35 Q62.0 56.75 61.3 56.45 L61.3 56.35 M69.85 59.55 L70.1 59.4 70.3 59.3 Q70.65 59.3 70.45 59.7 L70.3 59.75 70.25 59.85 Q69.85 60.05 69.85 59.75 L69.85 59.55 M55.25 49.75 Q55.6 49.7 55.4 50.1 L55.25 50.15 55.25 50.25 54.85 50.35 54.75 50.3 54.65 49.95 54.85 49.95 54.85 49.75 54.85 49.55 55.25 49.6 55.25 49.75 M53.7 50.75 L53.9 50.75 Q54.2 50.7 54.0 51.1 L53.9 51.1 53.85 51.3 53.3 51.9 53.3 52.1 53.25 52.25 Q52.85 52.45 52.9 52.1 L52.9 51.9 52.75 51.9 52.7 51.3 52.9 51.3 52.9 51.1 53.0 51.1 53.1 50.9 53.1 50.75 53.3 50.75 53.5 50.75 53.7 50.75 M54.85 52.2 L54.85 52.1 Q55.65 51.9 54.85 52.2 M50.7 51.5 L51.05 51.6 51.05 51.7 51.05 51.85 Q50.65 52.05 50.7 51.7 L50.7 51.5 M50.7 53.15 L50.65 53.25 Q50.1 53.4 50.3 52.75 L50.7 52.65 50.7 52.75 Q51.0 52.7 50.8 53.05 L50.7 53.15 M51.55 55.3 L51.45 54.9 51.65 54.9 51.65 54.7 51.85 54.7 51.85 54.5 52.25 54.6 52.25 54.7 52.25 54.9 Q52.15 55.8 51.65 55.3 L51.55 55.3 M60.7 56.75 Q61.0 57.55 60.7 56.9 L60.7 56.75 M60.1 56.95 Q60.4 56.9 60.2 57.3 L60.1 57.35 59.95 57.3 59.9 56.95 60.1 56.95 M58.95 58.3 L58.85 57.95 59.05 57.95 59.25 57.95 59.25 57.75 Q59.7 57.6 59.7 57.95 L59.7 58.15 60.05 58.2 60.1 58.3 60.05 58.5 Q59.6 58.95 59.25 58.5 L59.25 58.3 59.05 58.3 58.95 58.3 M48.25 50.45 L48.25 50.35 Q49.05 50.45 48.25 50.45 M49.15 51.9 L49.1 51.5 49.3 51.5 49.5 51.5 Q49.8 51.5 49.6 51.9 L49.5 51.9 49.3 51.9 49.15 51.9 M47.3 52.1 L47.3 51.9 Q47.8 51.8 47.6 52.3 L47.45 52.3 47.45 52.5 47.3 52.55 47.25 52.65 Q46.6 52.9 46.7 52.3 L46.9 52.3 46.9 52.1 47.1 52.1 47.3 52.1 M44.25 51.7 L44.25 51.5 44.45 51.5 44.65 51.5 44.65 51.3 45.05 51.4 45.05 51.5 45.45 51.8 45.5 51.9 Q45.8 51.9 45.6 52.3 L45.5 52.3 45.45 52.5 45.05 52.75 45.05 52.85 Q44.65 53.05 44.65 52.75 L44.55 52.65 44.25 52.3 44.15 52.3 44.05 51.7 44.25 51.7 M42.9 53.75 L42.7 53.65 Q42.4 53.4 42.5 52.75 43.1 52.3 43.6 52.75 L43.65 52.95 Q44.0 53.0 43.8 53.5 L43.65 53.55 43.6 53.65 43.5 53.75 43.45 53.85 Q42.95 54.05 42.9 53.75 M42.7 54.9 L42.55 54.9 42.5 54.5 42.7 54.5 42.9 54.5 Q43.2 54.5 43.0 54.9 L42.9 54.9 42.7 54.9 M47.65 59.0 L47.65 58.9 Q48.45 59.1 47.65 59.0 M49.9 65.35 Q50.65 65.45 49.9 65.45 L49.9 65.35 M45.9 61.9 Q46.7 61.75 45.9 62.0 L45.9 61.9 M43.5 61.9 Q43.8 61.9 43.6 62.3 L43.5 62.3 43.3 62.3 43.25 62.45 Q42.75 62.65 42.9 62.1 L43.1 62.1 43.1 61.9 43.3 61.9 43.5 61.9 M43.1 64.45 L43.1 64.35 Q43.5 64.85 43.1 64.45 M60.1 63.75 L60.05 63.85 Q59.65 64.05 59.7 63.75 L59.7 63.55 59.7 63.35 60.05 63.4 60.1 63.55 60.1 63.75 M60.1 72.35 Q60.8 72.8 60.15 72.45 L60.1 72.35" fill="#ff0000" fill-rule="evenodd" stroke="none"/>
  </g>
</svg>
