<?xml version="1.0" encoding="UTF-8" standalone="no"?>
<svg xmlns:xlink="http://www.w3.org/1999/xlink" height="16.1px" width="30.8px" xmlns="http://www.w3.org/2000/svg">
  <g transform="matrix(1.0, 0.0, 0.0, 1.0, 0.0, 0.0)">
    <path d="M26.7 8.3 L28.95 8.3 24.8 2.1 20.65 8.3 22.9 8.3 22.9 13.95 26.7 13.95 26.7 8.3 M30.8 16.1 L19.0 16.1 19.0 0.05 30.8 0.05 30.8 16.1 M0.0 0.0 L11.8 0.0 11.8 16.05 0.0 16.05 0.0 0.0 M8.0 7.35 L8.0 1.7 4.2 1.7 4.2 7.35 1.95 7.35 6.1 13.55 10.25 7.35 8.0 7.35" fill="#f7fdb5" fill-rule="evenodd" stroke="none"/>
  </g>
</svg>
