<?xml version="1.0" encoding="UTF-8" standalone="no"?>
<svg xmlns:xlink="http://www.w3.org/1999/xlink" height="322.6px" width="149.75px" xmlns="http://www.w3.org/2000/svg">
  <g transform="matrix(1.0, 0.0, 0.0, 1.0, -118.7, 36.6)">
    <path d="M229.55 -32.15 Q228.7 -32.3 226.2 -33.55 224.05 -34.65 222.2 -34.65 220.75 -34.65 219.95 -33.95 206.9 -5.1 193.7 27.2 L197.5 29.0 Q203.05 31.75 204.8 32.05 210.35 33.15 214.85 35.5 L220.05 38.6 222.5 34.65 225.9 29.05 223.15 28.35 221.55 27.45 218.9 26.8 216.25 26.2 Q213.95 24.8 212.5 24.3 210.6 23.6 210.45 22.45 L210.25 21.85 Q210.25 21.15 214.85 9.75 L215.8 6.85 Q216.4 4.9 217.1 3.7 L218.55 0.95 219.95 -2.05 Q220.9 -4.05 222.25 -8.15 L224.45 -14.05 225.65 -17.05 226.95 -20.15 228.05 -23.15 Q228.5 -24.5 229.45 -24.65 230.2 -24.8 230.35 -24.1 L231.9 -23.7 Q233.45 -23.05 234.2 -22.2 236.6 -20.55 239.35 -19.55 240.55 -19.1 243.7 -18.2 246.45 -17.35 247.2 -16.55 L249.2 -14.7 250.45 -13.9 Q251.05 -13.55 251.05 -13.25 L251.0 -12.95 251.2 -12.75 Q251.2 -11.55 248.3 -4.5 L247.4 -0.45 Q246.8 2.1 246.05 3.6 245.3 5.05 244.45 7.6 L243.1 11.7 241.8 16.5 240.8 18.9 243.3 19.2 Q246.95 19.9 248.35 22.4 248.65 21.05 249.65 18.35 L251.0 14.75 250.65 13.9 250.3 12.85 249.95 11.0 Q248.7 7.9 248.7 7.25 248.7 6.75 251.0 0.85 251.5 -0.25 251.8 -2.3 251.8 -3.3 252.05 -3.8 252.45 -4.65 254.1 -5.0 254.8 -5.1 256.4 -6.05 258.0 -7.0 258.45 -7.55 L259.15 -9.0 259.6 -10.75 260.45 -14.5 Q260.75 -15.6 261.3 -16.05 L261.1 -16.1 Q256.9 -17.7 254.1 -19.0 L252.4 -19.9 Q252.0 -21.2 250.25 -21.25 L246.7 -23.4 244.5 -24.85 242.45 -26.65 240.15 -27.5 236.1 -29.0 233.85 -30.55 Q232.25 -31.65 229.55 -32.15 M234.5 -32.7 Q237.15 -31.6 242.1 -28.9 L248.0 -25.3 254.0 -21.4 Q255.35 -20.55 261.55 -18.4 L268.45 -16.0 268.15 -15.05 267.95 -14.75 267.95 -14.55 Q267.95 -12.45 264.15 -0.25 L259.85 13.45 Q258.85 17.45 254.6 27.3 252.85 32.45 251.5 34.45 L250.2 37.75 250.15 37.95 253.0 40.25 Q256.2 43.1 256.7 44.45 258.35 49.7 258.35 52.5 258.35 55.0 257.75 57.25 257.05 59.85 256.85 63.2 L256.8 67.4 256.85 67.2 256.9 67.2 256.8 68.0 256.6 70.55 256.1 74.4 255.1 77.25 255.15 77.4 254.85 78.2 254.65 78.8 254.55 78.7 Q252.4 84.25 248.65 91.9 243.1 103.2 237.45 112.7 224.4 134.25 221.95 157.35 219.65 178.05 215.95 202.05 L211.9 224.15 Q210.0 233.95 209.0 241.05 L209.05 241.0 209.2 241.3 209.3 242.2 208.9 244.95 Q208.45 246.9 208.45 248.1 L208.4 252.1 Q208.25 256.35 207.6 259.85 205.45 270.7 199.05 270.7 L188.8 269.35 177.55 267.55 175.75 271.45 Q174.25 271.45 174.1 271.05 174.9 270.8 175.5 269.5 176.0 268.4 176.0 267.3 L175.5 267.2 Q165.6 265.65 159.95 261.8 147.75 253.65 137.95 245.7 131.0 240.05 125.55 229.1 L121.85 221.0 Q118.7 213.95 118.7 213.0 118.7 210.35 121.55 206.0 L126.3 199.05 Q128.6 195.3 131.2 192.3 L132.95 189.25 Q134.05 187.75 135.35 187.45 L140.1 181.45 Q145.95 174.2 148.45 170.6 L156.05 160.05 Q160.75 153.55 163.05 149.6 L169.45 139.1 Q173.1 132.9 174.6 128.55 L178.0 117.85 Q179.75 112.4 181.45 109.0 L181.55 108.75 181.95 106.95 Q181.95 105.6 185.95 92.4 L189.4 81.4 Q184.65 81.05 182.85 78.75 181.85 77.5 181.85 75.2 L182.1 73.35 182.35 71.6 182.45 70.95 Q181.0 70.5 180.45 69.75 180.0 69.1 180.15 68.25 L180.35 67.25 Q180.35 65.9 181.65 62.35 L183.35 57.7 Q183.85 55.85 184.95 54.35 183.15 53.65 182.6 52.1 182.35 51.35 182.35 48.85 182.35 45.55 183.55 44.5 184.65 43.55 190.75 39.7 L194.7 36.4 194.35 36.2 Q189.5 33.55 189.5 32.0 189.5 31.4 192.3 24.6 L196.45 14.55 Q197.75 11.1 200.55 5.95 201.3 4.65 202.0 1.9 202.8 -1.0 203.45 -2.3 L210.55 -19.6 Q214.85 -30.25 219.05 -35.8 L219.95 -35.45 Q221.95 -37.9 225.8 -35.15 230.4 -34.35 234.5 -32.7 M238.6 -13.2 L237.8 -11.45 236.95 -11.95 236.85 -12.25 237.15 -13.25 237.65 -13.85 236.5 -14.1 Q234.05 -14.25 233.1 -12.25 234.1 -12.0 234.1 -11.05 L234.05 -10.4 234.05 -10.2 Q234.0 -10.05 233.6 -10.05 233.0 -10.05 232.55 -10.35 L232.45 -8.75 233.2 -6.9 Q233.45 -6.65 234.1 -6.4 234.1 -7.8 235.05 -7.85 236.0 -7.95 236.0 -7.15 L235.5 -6.05 235.4 -5.9 236.3 -5.65 Q239.0 -5.65 240.0 -7.0 239.55 -7.15 239.2 -7.8 L238.85 -8.4 Q238.85 -9.7 239.75 -9.05 L240.5 -8.25 240.5 -8.5 Q240.5 -11.0 239.25 -12.55 L238.6 -13.2 M232.95 -14.5 Q229.1 -16.1 227.7 -17.1 L225.45 -12.05 223.35 -6.35 Q222.0 -2.7 220.85 -0.4 219.0 3.4 216.0 11.25 L213.7 17.05 Q213.1 19.05 212.5 20.05 L212.15 21.5 212.1 21.7 214.0 22.3 218.7 24.35 Q220.95 24.55 222.2 25.05 L224.55 26.25 226.95 26.85 227.3 26.95 228.3 25.45 229.6 23.15 Q230.5 21.55 231.65 20.65 234.0 18.75 238.55 18.75 L238.6 18.5 238.95 18.6 Q239.1 16.75 241.75 9.9 L244.6 2.7 247.4 -6.25 247.95 -7.9 246.5 -8.65 Q244.85 -9.6 244.05 -9.75 L242.0 -10.15 242.1 -8.4 Q242.1 -7.2 241.5 -5.95 L241.15 -5.3 240.65 -4.0 239.4 -2.8 Q238.35 -2.1 237.7 -2.1 232.6 -2.1 231.1 -4.9 230.6 -5.9 230.55 -6.45 L230.6 -7.8 Q230.6 -9.15 230.9 -10.5 L231.0 -11.25 Q231.1 -11.7 231.35 -11.95 L231.4 -12.0 Q231.85 -13.3 232.8 -14.2 L233.15 -14.5 232.95 -14.5 M230.5 -0.35 Q228.05 -0.5 227.1 1.5 228.1 1.75 228.1 2.7 L228.05 3.35 228.05 3.55 227.6 3.7 226.55 3.4 226.45 5.0 227.2 6.85 228.1 7.35 Q228.1 5.95 229.05 5.9 230.0 5.8 230.0 6.6 L229.5 7.7 229.4 7.85 230.3 8.1 Q233.0 8.1 234.0 6.75 233.55 6.6 233.2 5.95 L232.85 5.35 Q232.85 4.05 233.75 4.7 L234.5 5.5 234.5 5.25 Q234.5 2.75 233.25 1.2 L232.6 0.55 231.8 2.3 230.95 1.8 230.85 1.5 Q230.85 1.05 231.15 0.5 L231.65 -0.1 230.5 -0.35 M230.6 -1.9 Q232.85 -1.8 234.35 -0.05 236.1 1.95 236.1 5.35 236.1 6.55 235.5 7.8 L235.4 8.0 234.4 9.7 234.25 9.9 233.7 10.35 232.6 11.25 230.65 11.75 228.2 10.8 Q226.05 9.75 225.35 8.9 224.7 8.15 224.5 7.2 224.35 6.65 224.35 5.55 224.35 4.55 224.7 3.3 L224.75 2.7 Q224.85 2.0 225.35 1.5 L225.65 1.1 Q226.1 0.25 226.8 -0.45 228.35 -2.0 230.6 -1.9 M263.2 -10.45 L264.05 -11.5 264.8 -13.0 Q264.8 -14.35 263.5 -14.05 262.2 -13.8 262.2 -12.4 262.2 -12.1 262.7 -11.35 L263.2 -10.45 M255.8 -1.35 L254.75 1.7 252.85 7.9 252.95 8.25 252.7 9.0 252.7 9.1 Q254.15 8.95 254.6 8.0 L255.1 6.35 256.2 3.35 257.1 0.3 Q258.25 -1.65 258.25 -2.15 L258.2 -2.5 257.95 -2.95 256.7 -3.0 255.8 -1.35 M257.25 -1.85 L257.45 -2.2 257.4 -1.95 257.25 -1.85 M253.0 22.0 Q254.0 22.0 254.45 21.3 L254.7 20.7 Q254.7 19.85 253.35 19.55 251.95 19.25 251.95 20.75 251.95 22.0 253.0 22.0 M251.05 42.8 L249.95 45.1 Q250.6 45.9 251.85 46.6 L252.75 47.5 Q252.75 48.35 250.1 48.45 L248.45 48.65 248.55 49.2 247.95 50.8 247.0 53.45 248.95 55.75 Q250.35 57.35 250.75 59.7 L251.2 63.6 251.6 67.55 Q251.8 69.9 252.55 71.5 L253.85 74.3 254.45 72.8 254.8 70.3 255.35 62.95 Q255.55 59.05 256.25 56.85 256.85 54.95 256.85 52.45 256.85 48.3 256.0 46.55 255.3 45.05 253.35 42.85 L251.75 41.2 251.05 42.8 M243.9 20.95 L241.9 20.35 241.85 20.35 241.7 20.35 241.5 20.3 241.05 20.25 240.75 20.25 240.4 20.6 239.0 22.2 Q238.35 23.2 238.15 24.9 L238.1 25.75 237.8 28.95 238.05 29.15 Q239.05 30.05 239.45 30.8 L239.0 30.9 237.6 29.7 237.5 29.75 Q237.25 29.75 237.05 29.15 L236.95 29.05 237.0 28.85 236.7 26.7 236.7 24.8 236.7 24.45 235.75 25.7 233.75 28.45 Q232.0 31.1 232.0 31.85 L234.7 34.5 Q237.6 37.35 238.35 39.5 239.25 41.95 239.45 43.65 L239.5 47.3 239.35 49.55 239.3 49.95 241.4 45.7 242.95 42.35 Q247.8 31.75 247.8 28.35 247.8 22.65 243.9 20.95 M243.55 86.95 L242.8 84.2 242.8 78.5 242.75 72.8 Q242.55 69.65 241.8 67.25 241.45 66.1 240.25 64.6 239.05 63.0 237.7 62.1 236.3 61.2 235.0 59.65 L232.95 57.0 Q231.75 54.0 230.45 51.65 228.0 47.0 225.5 47.0 217.55 47.0 213.9 54.4 211.0 63.3 209.0 66.25 L202.3 76.5 Q199.1 82.1 199.1 86.55 199.1 92.35 201.25 97.25 203.4 102.1 207.9 106.75 L208.4 107.3 209.2 108.05 208.45 107.7 207.7 109.0 208.1 108.8 201.3 119.1 Q197.2 125.4 195.1 129.45 193.05 133.5 190.65 139.7 L186.6 150.2 Q181.65 162.85 179.6 170.55 178.65 174.0 178.1 177.2 L177.75 189.35 Q177.75 190.6 180.25 204.5 182.75 218.45 182.75 221.1 182.75 235.65 181.35 248.4 180.15 259.1 178.25 265.55 L183.45 266.7 Q192.3 268.45 198.35 268.45 204.85 268.45 206.2 257.5 206.6 254.05 206.45 249.95 L206.2 246.45 Q206.2 245.75 207.15 243.75 L207.5 243.05 Q207.55 235.85 210.4 220.35 L214.2 199.05 Q215.45 191.6 217.3 176.85 L220.3 154.75 Q222.1 143.05 225.3 132.55 226.5 128.55 230.2 121.65 L234.8 113.15 Q235.85 109.85 238.2 104.65 L238.35 104.35 238.75 103.4 238.9 103.1 239.0 102.85 Q244.3 91.35 244.3 89.8 L243.55 86.95 M225.0 13.4 Q222.55 13.25 221.6 15.25 222.6 15.5 222.6 16.45 L222.55 17.1 222.55 17.3 222.1 17.45 221.05 17.15 220.95 18.75 221.7 20.6 222.6 21.1 Q222.6 19.7 223.55 19.65 224.5 19.55 224.5 20.35 L224.0 21.45 223.9 21.6 224.8 21.85 Q227.5 21.85 228.5 20.5 228.05 20.35 227.7 19.7 L227.35 19.1 Q227.35 17.8 228.25 18.45 L229.0 19.25 229.0 19.0 Q229.0 16.5 227.75 14.95 L227.1 14.3 226.3 16.05 225.45 15.55 225.35 15.25 Q225.35 14.8 225.65 14.25 L226.15 13.65 225.0 13.4 M228.5 23.7 Q227.55 25.1 225.9 25.1 224.25 25.1 222.2 24.05 L221.8 23.85 221.05 23.4 219.7 22.25 219.45 21.45 219.2 20.4 219.05 18.9 219.35 16.65 Q219.45 15.75 219.9 15.5 220.35 14.2 221.3 13.3 222.85 11.75 225.1 11.85 227.35 11.95 228.85 13.7 230.6 15.7 230.6 19.1 230.6 20.3 230.0 21.55 L228.95 23.0 228.5 23.7 M183.0 62.15 L182.65 62.9 Q182.0 64.55 181.75 65.95 L184.2 64.35 Q186.8 62.7 187.0 60.95 L187.35 60.6 Q184.25 60.95 183.35 61.85 L183.0 62.15" fill="#000000" fill-rule="evenodd" stroke="none"/>
    <path d="M243.55 86.95 L244.3 89.8 Q244.3 91.35 239.0 102.85 L238.9 103.1 238.75 103.4 238.35 104.35 238.2 104.65 Q235.85 109.85 234.8 113.15 L230.2 121.65 Q226.5 128.55 225.3 132.55 222.1 143.05 220.3 154.75 L217.3 176.85 Q215.45 191.6 214.2 199.05 L210.4 220.35 Q207.55 235.85 207.5 243.05 L207.15 243.75 Q206.2 245.75 206.2 246.45 L206.45 249.95 Q206.6 254.05 206.2 257.5 204.85 268.45 198.35 268.45 192.3 268.45 183.45 266.7 L178.25 265.55 Q180.15 259.1 181.35 248.4 182.75 235.65 182.75 221.1 182.75 218.45 180.25 204.5 177.75 190.6 177.75 189.35 L178.1 177.2 Q178.65 174.0 179.6 170.55 181.65 162.85 186.6 150.2 L190.65 139.7 Q193.05 133.5 195.1 129.45 197.2 125.4 201.3 119.1 L208.1 108.8 207.7 109.0 208.45 107.7 209.2 108.05 208.4 107.3 207.9 106.75 Q203.4 102.1 201.25 97.25 199.1 92.35 199.1 86.55 199.1 82.1 202.3 76.5 L209.0 66.25 Q211.0 63.3 213.9 54.4 217.55 47.0 225.5 47.0 228.0 47.0 230.45 51.65 231.75 54.0 232.95 57.0 L235.0 59.65 Q236.3 61.2 237.7 62.1 239.05 63.0 240.25 64.6 241.45 66.1 241.8 67.25 242.55 69.65 242.75 72.8 L242.8 78.5 242.8 84.2 243.55 86.95 M243.9 20.95 Q247.8 22.65 247.8 28.35 247.8 31.75 242.95 42.35 L241.4 45.7 239.3 49.95 239.35 49.55 239.5 47.3 239.45 43.65 Q239.25 41.95 238.35 39.5 237.6 37.35 234.7 34.5 L232.0 31.85 Q232.0 31.1 233.75 28.45 L235.75 25.7 236.7 24.45 236.7 24.8 236.7 26.7 237.0 28.85 236.95 29.05 237.05 29.15 Q237.25 29.75 237.5 29.75 L237.6 29.7 239.0 30.9 239.45 30.8 Q239.05 30.05 238.05 29.15 L237.8 28.95 238.1 25.75 238.15 24.9 Q238.35 23.2 239.0 22.2 L240.4 20.6 240.75 20.25 241.05 20.25 241.5 20.3 241.7 20.35 241.85 20.35 241.9 20.35 243.9 20.95 M251.05 42.8 L251.75 41.2 253.35 42.85 Q255.3 45.05 256.0 46.55 256.85 48.3 256.85 52.45 256.85 54.95 256.25 56.85 255.55 59.05 255.35 62.95 L254.8 70.3 254.45 72.8 253.85 74.3 252.55 71.5 Q251.8 69.9 251.6 67.55 L251.2 63.6 250.75 59.7 Q250.35 57.35 248.95 55.75 L247.0 53.45 247.95 50.8 248.55 49.2 248.45 48.65 250.1 48.45 Q252.75 48.35 252.75 47.5 L251.85 46.6 Q250.6 45.9 249.95 45.1 L251.05 42.8 M183.0 62.15 L183.35 61.85 Q184.25 60.95 187.35 60.6 L187.0 60.95 Q186.8 62.7 184.2 64.35 L181.75 65.95 Q182.0 64.55 182.65 62.9 L183.0 62.15" fill="#516f3c" fill-rule="evenodd" stroke="none"/>
    <path d="M229.55 -32.15 Q232.25 -31.65 233.85 -30.55 L236.1 -29.0 240.15 -27.5 242.45 -26.65 244.5 -24.85 246.7 -23.4 250.25 -21.25 Q252.0 -21.2 252.4 -19.9 L254.1 -19.0 Q256.9 -17.7 261.1 -16.1 L261.3 -16.05 Q260.75 -15.6 260.45 -14.5 L259.6 -10.75 259.15 -9.0 258.45 -7.55 Q258.0 -7.0 256.4 -6.05 254.8 -5.1 254.1 -5.0 252.45 -4.65 252.05 -3.8 251.8 -3.3 251.8 -2.3 251.5 -0.25 251.0 0.85 248.7 6.75 248.7 7.25 248.7 7.9 249.95 11.0 L250.3 12.85 250.65 13.9 251.0 14.75 249.65 18.35 Q248.65 21.05 248.35 22.4 246.95 19.9 243.3 19.2 L240.8 18.9 241.8 16.5 243.1 11.7 244.45 7.6 Q245.3 5.05 246.05 3.6 246.8 2.1 247.4 -0.45 L248.3 -4.5 Q251.2 -11.55 251.2 -12.75 L251.0 -12.95 251.05 -13.25 Q251.05 -13.55 250.45 -13.9 L249.2 -14.7 247.2 -16.55 Q246.45 -17.35 243.7 -18.2 240.55 -19.1 239.35 -19.55 236.6 -20.55 234.2 -22.2 233.45 -23.05 231.9 -23.7 L230.35 -24.1 Q230.2 -24.8 229.45 -24.65 228.5 -24.5 228.05 -23.15 L226.95 -20.15 225.65 -17.05 224.45 -14.05 222.25 -8.15 Q220.9 -4.05 219.95 -2.05 L218.55 0.95 217.1 3.7 Q216.4 4.9 215.8 6.85 L214.85 9.75 Q210.25 21.15 210.25 21.85 L210.45 22.45 Q210.6 23.6 212.5 24.3 213.95 24.8 216.25 26.2 L218.9 26.8 221.55 27.45 223.15 28.35 225.9 29.05 222.5 34.65 220.05 38.6 214.85 35.5 Q210.35 33.15 204.8 32.05 203.05 31.75 197.5 29.0 L193.7 27.2 Q206.9 -5.1 219.95 -33.95 220.75 -34.65 222.2 -34.65 224.05 -34.65 226.2 -33.55 228.7 -32.3 229.55 -32.15 M238.6 -13.2 L239.25 -12.55 Q240.5 -11.0 240.5 -8.5 L240.5 -8.25 239.75 -9.05 Q238.85 -9.7 238.85 -8.4 L239.2 -7.8 Q239.55 -7.15 240.0 -7.0 239.0 -5.65 236.3 -5.65 L235.4 -5.9 235.5 -6.05 236.0 -7.15 Q236.0 -7.95 235.05 -7.85 234.1 -7.8 234.1 -6.4 233.45 -6.65 233.2 -6.9 L232.45 -8.75 232.55 -10.35 Q233.0 -10.05 233.6 -10.05 234.0 -10.05 234.05 -10.2 L234.05 -10.4 234.1 -11.05 Q234.1 -12.0 233.1 -12.25 234.05 -14.25 236.5 -14.1 L237.65 -13.85 237.15 -13.25 236.85 -12.25 236.95 -11.95 237.8 -11.45 238.6 -13.2 M230.5 -0.35 L231.65 -0.1 231.15 0.5 Q230.85 1.05 230.85 1.5 L230.95 1.8 231.8 2.3 232.6 0.55 233.25 1.2 Q234.5 2.75 234.5 5.25 L234.5 5.5 233.75 4.7 Q232.85 4.05 232.85 5.35 L233.2 5.95 Q233.55 6.6 234.0 6.75 233.0 8.1 230.3 8.1 L229.4 7.85 229.5 7.7 230.0 6.6 Q230.0 5.8 229.05 5.9 228.1 5.95 228.1 7.35 L227.2 6.85 226.45 5.0 226.55 3.4 227.6 3.7 228.05 3.55 228.05 3.35 228.1 2.7 Q228.1 1.75 227.1 1.5 228.05 -0.5 230.5 -0.35 M253.0 22.0 Q251.95 22.0 251.95 20.75 251.95 19.25 253.35 19.55 254.7 19.85 254.7 20.7 L254.45 21.3 Q254.0 22.0 253.0 22.0 M257.25 -1.85 L257.4 -1.95 257.45 -2.2 257.25 -1.85 M255.8 -1.35 L256.7 -3.0 257.95 -2.95 258.2 -2.5 258.25 -2.15 Q258.25 -1.65 257.1 0.3 L256.2 3.35 255.1 6.35 254.6 8.0 Q254.15 8.95 252.7 9.1 L252.7 9.0 252.95 8.25 252.85 7.9 254.75 1.7 255.8 -1.35 M263.2 -10.45 L262.7 -11.35 Q262.2 -12.1 262.2 -12.4 262.2 -13.8 263.5 -14.05 264.8 -14.35 264.8 -13.0 L264.05 -11.5 263.2 -10.45 M225.0 13.4 L226.15 13.65 225.65 14.25 Q225.35 14.8 225.35 15.25 L225.45 15.55 226.3 16.05 227.1 14.3 227.75 14.95 Q229.0 16.5 229.0 19.0 L229.0 19.25 228.25 18.45 Q227.35 17.8 227.35 19.1 L227.7 19.7 Q228.05 20.35 228.5 20.5 227.5 21.85 224.8 21.85 L223.9 21.6 224.0 21.45 224.5 20.35 Q224.5 19.55 223.55 19.65 222.6 19.7 222.6 21.1 L221.7 20.6 220.95 18.75 221.05 17.15 222.1 17.45 222.55 17.3 222.55 17.1 222.6 16.45 Q222.6 15.5 221.6 15.25 222.55 13.25 225.0 13.4" fill="#4d4d4d" fill-rule="evenodd" stroke="none"/>
    <path d="M232.95 -14.5 L233.15 -14.5 232.8 -14.2 Q231.85 -13.3 231.4 -12.0 L231.35 -11.95 Q231.1 -11.7 231.0 -11.25 L230.9 -10.5 Q230.6 -9.15 230.6 -7.8 L230.55 -6.45 Q230.6 -5.9 231.1 -4.9 232.6 -2.1 237.7 -2.1 238.35 -2.1 239.4 -2.8 L240.65 -4.0 241.15 -5.3 241.5 -5.95 Q242.1 -7.2 242.1 -8.4 L242.0 -10.15 244.05 -9.75 Q244.85 -9.6 246.5 -8.65 L247.95 -7.9 247.4 -6.25 244.6 2.7 241.75 9.9 Q239.1 16.75 238.95 18.6 L238.6 18.5 238.55 18.75 Q234.0 18.75 231.65 20.65 230.5 21.55 229.6 23.15 L228.3 25.45 227.3 26.95 226.95 26.85 224.55 26.25 222.2 25.05 Q220.95 24.55 218.7 24.35 L214.0 22.3 212.1 21.7 212.15 21.5 212.5 20.05 Q213.1 19.05 213.7 17.05 L216.0 11.25 Q219.0 3.4 220.85 -0.4 222.0 -2.7 223.35 -6.35 L225.45 -12.05 227.7 -17.1 Q229.1 -16.1 232.95 -14.5 M230.6 -1.9 Q228.35 -2.0 226.8 -0.45 226.1 0.25 225.65 1.1 L225.35 1.5 Q224.85 2.0 224.75 2.7 L224.7 3.3 Q224.35 4.55 224.35 5.55 224.35 6.65 224.5 7.2 224.7 8.15 225.35 8.9 226.05 9.75 228.2 10.8 L230.65 11.75 232.6 11.25 233.7 10.35 234.25 9.9 234.4 9.7 235.4 8.0 235.5 7.8 Q236.1 6.55 236.1 5.35 236.1 1.95 234.35 -0.05 232.85 -1.8 230.6 -1.9 M228.5 23.7 L228.95 23.0 230.0 21.55 Q230.6 20.3 230.6 19.1 230.6 15.7 228.85 13.7 227.35 11.95 225.1 11.85 222.85 11.75 221.3 13.3 220.35 14.2 219.9 15.5 219.45 15.75 219.35 16.65 L219.05 18.9 219.2 20.4 219.45 21.45 219.7 22.25 221.05 23.4 221.8 23.85 222.2 24.05 Q224.25 25.1 225.9 25.1 227.55 25.1 228.5 23.7" fill="#2b2b2b" fill-rule="evenodd" stroke="none"/>
    <path d="M251.65 41.95 Q254.95 39.85 254.95 43.6 L253.35 48.3 251.75 53.0 Q251.75 53.55 253.15 56.75 254.65 60.15 254.95 62.35 L255.95 71.2 Q255.95 72.3 255.3 73.65 254.6 75.0 254.0 75.0 251.2 75.0 250.5 71.55 L250.25 67.1 Q249.0 60.3 248.95 58.85 L247.8 59.6 Q247.05 60.0 246.25 60.0 244.35 60.0 243.75 58.85 243.55 58.45 243.5 57.85 L243.45 57.85 Q238.75 57.85 237.65 51.85 L237.2 44.25 Q236.95 43.05 235.9 40.6 L234.2 37.1 Q232.7 34.6 229.85 33.65 227.75 32.95 227.75 31.0 227.75 28.5 230.35 27.45 L233.2 27.25 Q234.6 23.95 237.6 21.25 239.9 19.2 241.5 19.6 243.25 20.05 243.25 23.5 243.25 24.3 239.25 29.85 L238.55 30.85 240.7 33.4 243.2 37.25 Q243.65 38.0 244.95 44.95 L246.0 50.9 247.2 47.75 Q248.4 44.0 251.65 41.95 M246.85 69.75 L246.75 75.35 Q246.8 76.25 248.0 80.95 L249.25 86.05 Q249.25 89.25 248.95 90.75 248.15 94.75 245.5 94.75 242.75 94.75 240.65 85.9 238.65 77.65 239.25 72.0 239.55 69.15 237.2 66.5 L231.5 60.85 Q230.05 59.3 228.45 54.35 227.1 50.0 226.5 50.0 220.0 50.0 217.0 57.95 214.8 66.65 213.5 68.25 L205.85 77.85 Q202.95 82.25 202.95 86.45 202.95 92.75 209.2 98.4 L213.5 102.05 Q215.45 103.9 215.45 105.2 215.45 105.65 209.45 115.1 202.85 125.55 201.0 129.75 L198.65 135.55 196.0 141.75 195.5 143.75 194.85 148.35 Q194.15 152.35 194.0 154.05 193.75 157.5 194.0 164.55 L193.0 185.75 Q193.0 187.45 196.5 206.2 199.8 224.0 201.8 233.55 204.4 246.05 208.3 257.55 209.4 260.8 213.25 269.05 216.5 276.75 216.5 281.15 216.5 283.0 215.75 284.25 214.7 286.0 212.5 286.0 210.4 286.0 206.55 280.45 L202.05 274.3 Q200.45 275.0 199.05 274.1 197.65 275.0 195.5 275.0 193.9 275.0 191.9 273.25 L189.75 271.3 186.1 270.35 Q184.0 269.8 182.8 269.05 181.55 268.25 173.8 264.6 171.0 263.25 171.0 260.5 171.0 258.65 173.25 256.05 176.05 252.7 179.5 254.0 176.5 246.65 174.8 238.8 173.0 230.5 173.0 223.1 173.0 220.25 176.15 216.5 L179.25 212.5 Q177.65 203.75 177.35 201.2 L176.5 198.05 Q175.95 195.3 175.7 192.3 L175.0 188.4 Q175.0 186.95 175.5 185.95 175.5 178.9 175.7 176.8 175.95 173.5 177.5 162.8 L177.55 156.6 Q177.7 153.05 178.3 150.5 180.0 143.25 183.85 144.4 185.3 144.85 186.4 146.4 L186.55 146.6 186.7 145.55 186.6 144.3 Q186.6 140.75 193.95 126.55 199.2 116.4 205.2 106.25 198.8 101.1 196.7 95.95 195.2 92.4 195.2 86.2 195.2 79.3 199.25 73.55 201.55 70.3 206.75 63.85 207.8 62.25 208.85 58.4 210.05 54.3 210.95 52.6 213.55 47.9 214.4 46.9 217.2 43.65 222.5 42.1 L231.2 42.4 Q232.05 42.85 232.95 44.6 L234.15 46.05 234.95 47.25 235.4 50.05 235.95 52.85 Q236.55 54.7 240.6 58.5 244.95 62.6 245.7 64.1 246.85 66.4 246.85 69.75 M184.35 70.35 Q184.35 71.3 183.75 71.85 183.2 72.35 182.5 72.35 180.55 72.35 179.6 69.05 L179.1 65.55 Q179.1 63.15 180.75 60.8 183.15 57.35 184.1 54.85 186.8 48.15 189.7 48.75 192.2 49.3 192.2 52.3 192.2 53.65 190.55 57.45 L188.75 61.5 Q187.65 66.65 185.9 68.7 184.35 69.85 184.35 70.35" fill="#000000" fill-opacity="0.15294118" fill-rule="evenodd" stroke="none"/>
  </g>
</svg>
