<?xml version="1.0" encoding="UTF-8" standalone="no"?>
<svg xmlns:xlink="http://www.w3.org/1999/xlink" height="68.1px" width="232.95px" xmlns="http://www.w3.org/2000/svg">
  <g transform="matrix(1.0, 0.0, 0.0, 1.0, -4.1, 137.1)">
    <path d="M112.55 -136.25 L129.75 -137.05 142.35 -136.55 166.6 -136.55 171.35 -136.35 175.0 -136.35 199.75 -136.7 204.5 -135.7 Q204.45 -136.1 204.85 -136.05 L205.0 -136.05 221.2 -134.7 Q222.4 -134.8 223.5 -134.15 L225.65 -132.8 227.0 -126.6 227.15 -125.95 230.8 -109.9 231.7 -104.85 232.3 -101.85 Q234.7 -92.05 236.55 -82.25 237.25 -78.5 236.95 -74.75 236.65 -70.6 232.75 -70.35 L230.7 -70.15 230.15 -69.65 225.35 -69.75 223.65 -69.75 206.2 -69.65 193.75 -70.0 191.05 -70.65 177.45 -74.25 167.05 -76.8 Q159.65 -78.55 152.2 -78.55 L131.8 -78.5 129.25 -77.95 123.5 -77.35 115.0 -76.75 113.0 -76.7 108.75 -76.3 108.15 -70.95 97.1 -70.25 94.75 -70.05 89.1 -69.0 85.7 -70.2 84.1 -70.55 57.1 -77.2 Q52.9 -78.2 48.6 -78.25 44.3 -78.55 40.0 -78.35 29.85 -78.0 20.0 -76.1 17.1 -75.65 14.45 -74.35 11.55 -73.1 9.35 -70.7 L9.4 -70.25 Q7.7 -70.1 6.0 -70.3 L4.9 -70.55 4.15 -70.85 Q3.85 -73.25 4.85 -76.3 L5.45 -78.25 Q10.0 -92.95 14.0 -107.9 L16.9 -118.75 Q18.15 -123.55 18.8 -128.55 L19.65 -133.45 24.3 -133.95 25.5 -134.15 47.7 -135.25 55.7 -135.85 88.5 -136.0 112.55 -136.25" fill="#006699" fill-rule="evenodd" stroke="none"/>
  </g>
</svg>
