<?xml version="1.0" encoding="UTF-8" standalone="no"?>
<svg xmlns:xlink="http://www.w3.org/1999/xlink" height="432.35px" width="383.9px" xmlns="http://www.w3.org/2000/svg">
  <g transform="matrix(1.0, 0.0, 0.0, 1.0, 0.0, 0.0)">
    <path d="M54.7 312.45 L36.75 312.05 24.45 310.7 Q17.2 310.15 11.15 306.0 5.35 301.9 8.6 295.6 6.15 297.0 3.35 297.0 L0.0 296.35 3.1 294.9 2.25 295.6 Q9.7 292.75 16.35 288.15 20.4 285.3 23.95 281.7 31.45 274.2 39.95 267.85 46.05 263.2 51.35 257.55 L65.65 242.4 107.75 197.65 Q122.65 181.65 136.4 164.55 141.65 158.05 145.95 151.25 150.35 144.25 153.85 136.75 164.45 113.7 176.55 91.55 184.75 76.55 195.8 63.35 199.5 59.0 203.8 55.4 221.8 40.2 232.5 19.45 237.05 10.55 244.9 4.45 249.3 1.15 254.6 0.4 272.5 -0.55 287.45 9.25 289.3 8.05 291.2 6.9 295.1 4.7 298.8 2.25 302.35 -0.1 306.3 0.15 318.95 -0.9 330.1 4.85 L332.2 6.65 Q340.7 17.1 345.0 30.05 356.7 36.05 368.8 41.85 372.75 43.65 376.45 45.95 383.25 50.15 380.9 58.05 377.9 68.15 368.7 73.55 371.8 77.4 375.55 80.85 378.95 83.95 380.3 88.4 383.7 99.75 376.85 109.2 L381.75 117.05 Q382.95 118.9 383.4 121.3 385.4 132.35 379.1 141.65 L378.25 143.35 376.6 145.5 Q372.2 149.95 367.2 153.35 351.0 164.45 333.35 172.85 L329.6 174.3 307.0 180.35 Q303.1 181.4 299.7 183.3 294.05 186.55 296.35 192.85 302.95 194.4 309.5 193.9 315.95 193.3 322.05 191.5 338.45 186.65 353.5 178.75 356.5 177.2 358.05 174.45 L358.65 175.4 359.55 175.0 Q363.05 173.2 366.5 171.35 L368.8 170.55 368.2 172.35 365.0 174.7 Q362.2 176.55 358.95 177.75 358.9 185.0 353.85 190.15 348.2 195.85 341.0 199.4 328.2 205.7 314.15 206.75 301.4 208.1 288.95 205.8 279.95 231.4 263.2 252.7 258.4 258.8 252.75 264.25 240.6 275.95 224.75 282.0 L220.1 283.4 Q202.55 288.4 187.0 297.75 L187.55 298.1 185.95 297.85 185.9 297.05 173.4 305.2 Q166.75 309.5 164.8 316.35 L162.9 316.35 Q164.5 310.05 169.4 305.35 176.4 298.55 185.7 294.95 L188.3 294.1 Q190.5 293.35 192.55 292.25 200.6 287.95 209.25 284.7 215.95 282.25 222.35 280.15 231.55 277.05 239.8 271.95 248.9 266.25 255.9 258.0 262.65 250.05 268.45 241.25 273.65 233.3 278.15 224.95 282.0 217.9 284.85 210.35 L286.7 205.3 Q273.0 211.25 264.2 223.05 252.35 239.0 245.95 257.75 L245.9 257.8 Q245.25 257.35 245.55 256.45 253.3 231.8 268.1 210.8 L273.45 202.35 Q283.35 184.85 289.3 165.45 292.55 154.85 293.15 143.7 294.55 119.1 293.0 94.5 292.75 90.85 291.3 87.55 L293.2 85.95 Q299.8 88.45 304.15 82.75 308.55 76.85 310.1 69.6 311.4 63.65 312.05 57.7 312.75 51.6 312.6 45.45 315.9 61.5 310.35 77.05 321.25 66.6 324.45 51.85 325.2 48.4 326.65 45.2 327.55 43.3 328.6 41.5 327.4 55.7 319.55 67.5 340.35 73.55 361.8 72.8 364.8 72.2 367.75 70.8 L371.7 68.25 Q379.65 61.1 377.95 50.9 377.85 50.25 377.3 49.9 368.3 43.9 358.35 39.65 352.7 37.25 347.75 33.5 341.2 28.4 338.3 20.5 334.65 10.65 325.55 5.35 323.05 4.0 320.2 3.15 307.9 -0.6 296.8 6.55 279.2 17.9 260.35 26.8 L247.45 32.5 247.35 31.5 253.9 27.9 260.35 24.8 Q273.5 18.25 285.9 10.3 L282.8 8.7 Q271.9 2.95 259.45 2.8 254.5 2.75 249.85 4.7 245.8 6.45 242.6 9.7 241.25 11.1 240.2 12.75 230.15 28.9 218.25 43.6 216.0 46.45 213.3 48.8 202.9 57.65 194.8 68.4 181.05 86.7 171.3 107.5 L166.3 118.45 165.0 121.4 Q159.4 134.25 152.15 146.4 143.8 160.35 133.1 172.7 115.05 193.5 96.0 213.4 87.25 222.45 78.85 231.8 62.85 249.75 44.9 265.45 41.1 268.75 37.6 272.35 25.55 284.55 11.5 294.1 L14.2 294.5 14.45 296.0 12.15 296.2 Q10.65 296.45 9.85 297.9 8.8 299.9 9.75 301.85 11.55 305.4 15.55 306.3 23.9 308.4 32.6 308.65 L45.4 309.75 55.55 310.85 57.8 310.95 59.55 311.05 59.7 312.85 56.95 312.6 54.7 312.45 M82.8 383.35 Q73.25 382.1 61.4 379.55 49.25 376.9 70.7 344.05 L72.55 346.65 73.35 347.6 70.05 352.9 65.1 360.7 Q60.5 368.3 60.5 370.35 60.5 372.4 61.4 373.55 62.95 375.5 67.75 376.9 L72.7 377.55 Q77.2 378.1 78.05 378.65 79.55 379.65 82.7 380.3 L82.8 383.35 M326.25 77.2 Q337.45 79.65 347.55 85.05 L347.7 86.1 318.75 90.65 Q318.3 92.25 318.0 93.9 317.6 95.8 317.95 97.7 319.4 105.5 319.15 113.5 315.05 106.35 312.1 98.2 311.25 95.9 308.75 95.45 307.1 96.55 306.4 98.55 305.9 100.1 305.85 101.7 305.35 111.85 303.85 122.05 303.35 125.4 302.2 128.6 299.3 136.85 303.2 144.45 313.5 145.7 323.15 141.25 332.55 136.9 341.55 131.45 348.65 127.05 355.35 122.1 L371.35 109.95 Q377.4 105.3 379.25 97.55 379.55 93.6 378.05 89.4 374.75 80.35 366.15 76.25 365.2 75.8 365.1 74.65 L355.85 75.3 Q340.85 74.3 326.25 77.2 M376.55 141.45 L377.15 140.6 377.7 140.05 Q380.2 135.05 381.1 129.55 382.95 118.7 375.45 110.45 369.75 118.9 360.8 123.9 353.8 127.8 347.6 132.6 L331.3 144.95 Q323.35 151.05 314.65 156.45 311.25 158.5 308.1 160.95 306.1 162.5 304.7 164.8 302.55 168.3 302.7 172.35 302.75 173.65 303.85 174.3 304.9 175.05 306.1 175.15 L321.4 174.45 Q332.2 172.35 341.5 166.7 350.85 160.9 360.2 155.25 369.45 149.65 376.55 141.45 M348.8 192.1 Q353.85 188.85 355.65 183.2 L355.35 182.75 Q353.65 181.05 351.45 182.6 346.25 187.0 340.85 190.5 330.25 197.15 318.0 199.35 L313.8 199.4 Q306.1 198.7 302.7 205.0 L314.8 204.4 Q333.3 202.05 348.8 192.1" fill="url(#gradient0)" fill-rule="evenodd" stroke="none"/>
    <path d="M325.55 5.35 Q329.3 9.35 326.1 13.9 322.15 19.4 315.7 21.75 312.4 22.85 309.45 24.7 302.3 29.2 296.3 35.2 288.65 42.9 281.3 51.2 275.85 57.4 269.3 62.3 267.85 63.35 266.55 64.55 L265.7 52.35 Q253.9 60.55 246.0 72.75 L238.55 83.95 Q225.4 102.95 217.95 124.9 214.55 134.85 211.85 145.1 206.45 165.85 203.45 186.95 200.9 204.7 201.4 222.55 201.6 229.4 204.0 235.7 L205.0 238.25 182.6 228.0 Q180.05 226.8 177.9 225.05 175.4 223.0 172.55 221.4 L171.75 221.25 Q166.9 222.75 163.2 226.35 L156.55 232.1 Q147.8 239.1 140.1 247.4 130.35 257.9 120.2 268.05 118.25 258.6 111.45 252.2 102.35 255.25 95.0 261.75 78.1 276.7 62.6 293.0 61.3 292.95 60.6 293.9 59.95 294.75 60.4 295.75 L63.55 296.2 55.55 310.85 45.4 309.75 32.6 308.65 Q23.9 308.4 15.55 306.3 11.55 305.4 9.75 301.85 8.8 299.9 9.85 297.9 10.65 296.45 12.15 296.2 L14.45 296.0 14.2 294.5 11.5 294.1 Q25.55 284.55 37.6 272.35 41.1 268.75 44.9 265.45 62.85 249.75 78.85 231.8 87.25 222.45 96.0 213.4 115.05 193.5 133.1 172.7 143.8 160.35 152.15 146.4 159.4 134.25 165.0 121.4 L166.3 118.45 171.3 107.5 Q181.05 86.7 194.8 68.4 202.9 57.65 213.3 48.8 216.0 46.45 218.25 43.6 230.15 28.9 240.2 12.75 241.25 11.1 242.6 9.7 245.8 6.45 249.85 4.7 254.5 2.75 259.45 2.8 271.9 2.95 282.8 8.7 L285.9 10.3 Q273.5 18.25 260.35 24.8 257.15 21.05 252.15 20.25 L250.7 20.05 Q250.8 24.35 253.9 27.9 L247.35 31.5 247.45 32.5 260.35 26.8 Q279.2 17.9 296.8 6.55 307.9 -0.6 320.2 3.15 323.05 4.0 325.55 5.35" fill="url(#gradient1)" fill-rule="evenodd" stroke="none"/>
    <path d="M162.9 316.35 L162.0 316.35 86.35 300.95 72.9 366.8 79.15 368.7 84.35 369.95 83.85 372.35 82.75 378.5 Q82.65 379.35 82.7 380.3 79.55 379.65 78.05 378.65 77.2 378.1 72.7 377.55 L67.75 376.9 Q62.95 375.5 61.4 373.55 60.5 372.4 60.5 370.35 60.5 368.3 65.1 360.7 L70.05 352.9 73.35 347.6 72.55 346.65 70.7 344.05 68.75 341.05 Q67.55 339.3 66.2 335.85 L64.25 330.55 Q60.35 320.9 59.7 312.85 L59.55 311.05 57.8 310.95 55.55 310.85 63.55 296.2 60.4 295.75 Q59.95 294.75 60.6 293.9 61.3 292.95 62.6 293.0 78.1 276.7 95.0 261.75 102.35 255.25 111.45 252.2 118.25 258.6 120.2 268.05 130.35 257.9 140.1 247.4 147.8 239.1 156.55 232.1 L163.2 226.35 Q166.9 222.75 171.75 221.25 L172.55 221.4 Q175.4 223.0 177.9 225.05 180.05 226.8 182.6 228.0 L205.0 238.25 204.0 235.7 Q201.6 229.4 201.4 222.55 200.9 204.7 203.45 186.95 206.45 165.85 211.85 145.1 214.55 134.85 217.95 124.9 225.4 102.95 238.55 83.95 L246.0 72.75 Q253.9 60.55 265.7 52.35 L266.55 64.55 Q267.85 63.35 269.3 62.3 275.85 57.4 281.3 51.2 288.65 42.9 296.3 35.2 302.3 29.2 309.45 24.7 312.4 22.85 315.7 21.75 322.15 19.4 326.1 13.9 329.3 9.35 325.55 5.35 334.65 10.65 338.3 20.5 341.2 28.4 347.75 33.5 352.7 37.25 358.35 39.65 368.3 43.9 377.3 49.9 377.85 50.25 377.95 50.9 379.65 61.1 371.7 68.25 L367.75 70.8 Q364.8 72.2 361.8 72.8 340.35 73.55 319.55 67.5 327.4 55.7 328.6 41.5 327.55 43.3 326.65 45.2 325.2 48.4 324.45 51.85 321.25 66.6 310.35 77.05 315.9 61.5 312.6 45.45 312.75 51.6 312.05 57.7 311.4 63.65 310.1 69.6 308.55 76.85 304.15 82.75 299.8 88.45 293.2 85.95 L291.3 87.55 Q292.75 90.85 293.0 94.5 294.55 119.1 293.15 143.7 292.55 154.85 289.3 165.45 283.35 184.85 273.45 202.35 L268.1 210.8 Q253.3 231.8 245.55 256.45 245.25 257.35 245.9 257.8 L245.95 257.75 Q252.35 239.0 264.2 223.05 273.0 211.25 286.7 205.3 L284.85 210.35 Q282.0 217.9 278.15 224.95 273.65 233.3 268.45 241.25 262.65 250.05 255.9 258.0 248.9 266.25 239.8 271.95 231.55 277.05 222.35 280.15 215.95 282.25 209.25 284.7 200.6 287.95 192.55 292.25 190.5 293.35 188.3 294.1 L185.7 294.95 Q176.4 298.55 169.4 305.35 164.5 310.05 162.9 316.35 M326.25 77.2 Q340.85 74.3 355.85 75.3 L365.1 74.65 Q365.2 75.8 366.15 76.25 374.75 80.35 378.05 89.4 379.55 93.6 379.25 97.55 377.4 105.3 371.35 109.95 L355.35 122.1 Q348.65 127.05 341.55 131.45 332.55 136.9 323.15 141.25 313.5 145.7 303.2 144.45 299.3 136.85 302.2 128.6 303.35 125.4 303.85 122.05 305.35 111.85 305.85 101.7 305.9 100.1 306.4 98.55 307.1 96.55 308.75 95.45 311.25 95.9 312.1 98.2 315.05 106.35 319.15 113.5 319.4 105.5 317.95 97.7 317.6 95.8 318.0 93.9 318.3 92.25 318.75 90.65 L347.7 86.1 347.55 85.05 Q337.45 79.65 326.25 77.2 M376.6 145.5 Q377.8 149.35 377.55 153.45 376.85 165.65 366.05 171.15 L366.5 171.35 Q363.05 173.2 359.55 175.0 L358.65 175.4 358.05 174.45 Q356.5 177.2 353.5 178.75 338.45 186.65 322.05 191.5 315.95 193.3 309.5 193.9 302.95 194.4 296.35 192.85 294.05 186.55 299.7 183.3 303.1 181.4 307.0 180.35 L329.6 174.3 333.35 172.85 Q351.0 164.45 367.2 153.35 372.2 149.95 376.6 145.5 M377.15 140.6 L377.35 139.2 376.55 141.45 Q369.45 149.65 360.2 155.25 350.85 160.9 341.5 166.7 332.2 172.35 321.4 174.45 L306.1 175.15 Q304.9 175.05 303.85 174.3 302.75 173.65 302.7 172.35 302.55 168.3 304.7 164.8 306.1 162.5 308.1 160.95 311.25 158.5 314.65 156.45 323.35 151.05 331.3 144.95 L347.6 132.6 Q353.8 127.8 360.8 123.9 369.75 118.9 375.45 110.45 382.95 118.7 381.1 129.55 380.2 135.05 377.7 140.05 L377.15 140.6 M348.8 192.1 Q333.3 202.05 314.8 204.4 L302.7 205.0 Q306.1 198.7 313.8 199.4 L318.0 199.35 Q330.25 197.15 340.85 190.5 346.25 187.0 351.45 182.6 353.65 181.05 355.35 182.75 L355.65 183.2 Q353.85 188.85 348.8 192.1 M253.9 27.9 Q250.8 24.35 250.7 20.05 L252.15 20.25 Q257.15 21.05 260.35 24.8 L253.9 27.9" fill="url(#gradient2)" fill-rule="evenodd" stroke="none"/>
    <path d="M378.25 143.35 Q380.2 150.75 378.9 158.1 377.1 168.0 368.2 172.35 L368.8 170.55 366.5 171.35 366.05 171.15 Q376.85 165.65 377.55 153.45 377.8 149.35 376.6 145.5 L378.25 143.35 M376.55 141.45 L377.35 139.2 377.15 140.6 376.55 141.45" fill="#151515" fill-rule="evenodd" stroke="none"/>
    <path d="M56.95 312.6 Q54.5 317.4 52.85 322.5 52.15 324.55 50.6 325.7 L49.65 325.3 Q51.15 318.45 54.7 312.45 L56.95 312.6" fill="#374f31" fill-rule="evenodd" stroke="none"/>
    <path d="M162.95 316.55 L164.8 316.95 Q163.35 319.65 162.65 323.05 162.35 324.65 161.55 326.1 158.9 331.0 157.2 342.65 155.55 354.3 149.1 377.3 L147.8 381.35 Q146.6 386.1 142.9 394.05 L139.35 400.25 135.45 407.05 Q134.05 409.9 130.4 414.85 L126.4 420.2 121.5 429.3 Q119.6 432.9 116.55 432.25 114.2 431.75 113.5 429.95 115.45 429.9 116.85 428.25 118.35 425.45 119.1 424.6 L120.6 422.4 121.45 420.75 Q122.05 419.9 123.55 418.7 L125.0 417.35 Q129.4 408.85 133.8 402.65 L140.15 390.2 Q145.25 379.9 146.95 374.7 L147.0 374.8 Q148.1 372.45 148.75 369.25 L151.2 358.5 151.55 357.15 151.9 356.1 152.9 351.3 153.05 350.45 153.9 345.85 154.15 345.1 155.2 339.95 155.9 336.5 Q156.8 335.85 156.95 334.7 157.35 331.0 158.8 327.4 L161.75 319.4 162.95 316.55" fill="url(#gradient3)" fill-rule="evenodd" stroke="none"/>
    <path d="M162.0 316.35 L162.95 316.55 161.75 319.4 158.8 327.4 Q157.35 331.0 156.95 334.7 156.8 335.85 155.9 336.5 L155.2 339.95 154.15 345.1 153.9 345.85 153.05 350.45 152.9 351.3 151.9 356.1 151.55 357.15 151.2 358.5 148.75 369.25 Q148.1 372.45 147.0 374.8 L146.95 374.7 Q145.25 379.9 140.15 390.2 L133.8 402.65 Q129.4 408.85 125.0 417.35 L123.55 418.7 Q122.05 419.9 121.45 420.75 L120.6 422.4 119.1 424.6 Q118.35 425.45 116.85 428.25 115.45 429.9 113.5 429.95 L112.2 429.85 Q109.6 429.3 107.8 426.0 L106.35 422.25 104.8 418.7 Q103.55 416.35 101.85 414.75 L97.65 410.75 94.55 406.9 92.15 403.0 Q90.4 400.25 89.5 399.7 86.5 397.85 86.3 396.0 L85.95 392.6 84.2 389.1 Q83.15 386.7 83.0 385.4 L82.8 383.35 82.7 380.3 Q82.65 379.35 82.75 378.5 L83.85 372.35 84.35 369.95 79.15 368.7 72.9 366.8 86.35 300.95 162.0 316.35" fill="url(#gradient4)" fill-rule="evenodd" stroke="none"/>
  </g>
  <defs>
    <linearGradient gradientTransform="matrix(0.0, 0.1746, -0.2092, 0.0, 211.25, 147.4)" gradientUnits="userSpaceOnUse" id="gradient0" spreadMethod="pad" x1="-819.2" x2="819.2">
      <stop offset="0.0" stop-color="#2f3e28"/>
      <stop offset="1.0" stop-color="#000000"/>
    </linearGradient>
    <linearGradient gradientTransform="matrix(0.0, -0.1749, 0.1886, 0.0, 187.15, 147.8)" gradientUnits="userSpaceOnUse" id="gradient1" spreadMethod="pad" x1="-819.2" x2="819.2">
      <stop offset="0.0" stop-color="#283924"/>
      <stop offset="1.0" stop-color="#5c8253"/>
    </linearGradient>
    <linearGradient gradientTransform="matrix(0.0, 0.1589, -0.2045, 0.0, 216.9, 172.85)" gradientUnits="userSpaceOnUse" id="gradient2" spreadMethod="pad" x1="-819.2" x2="819.2">
      <stop offset="0.0" stop-color="#3f5335"/>
      <stop offset="1.0" stop-color="#253421"/>
    </linearGradient>
    <linearGradient gradientTransform="matrix(-0.0349, 0.1709, -0.2048, -0.0418, 244.0, 160.85)" gradientUnits="userSpaceOnUse" id="gradient3" spreadMethod="pad" x1="-819.2" x2="819.2">
      <stop offset="0.0" stop-color="#2f3e28"/>
      <stop offset="1.0" stop-color="#000000"/>
    </linearGradient>
    <linearGradient gradientTransform="matrix(-0.0317, 0.1556, -0.2002, -0.0408, 244.5, 186.85)" gradientUnits="userSpaceOnUse" id="gradient4" spreadMethod="pad" x1="-819.2" x2="819.2">
      <stop offset="0.0" stop-color="#3f5335"/>
      <stop offset="1.0" stop-color="#253421"/>
    </linearGradient>
  </defs>
</svg>
