<?xml version="1.0" encoding="UTF-8" standalone="no"?>
<svg xmlns:xlink="http://www.w3.org/1999/xlink" height="316.45px" width="652.85px" xmlns="http://www.w3.org/2000/svg">
  <g transform="matrix(1.0, 0.0, 0.0, 1.0, 221.85, 160.7)">
    <path d="M431.0 -160.7 L431.0 155.75 -221.85 155.75 -221.85 -160.7 431.0 -160.7" fill="url(#gradient0)" fill-rule="evenodd" stroke="none"/>
    <path d="M81.0 -146.4 L112.15 -147.1 Q127.05 -147.7 141.75 -147.45 L182.25 -145.95 186.15 -145.9 198.35 -145.5 204.1 -145.05 205.0 -144.95 Q210.4 -145.1 215.55 -143.8 220.75 -142.7 225.7 -140.9 L227.95 -139.9 Q230.3 -138.4 230.8 -135.75 231.1 -134.15 231.85 -132.9 L233.0 -130.2 Q233.55 -134.1 237.85 -135.2 241.7 -136.15 244.25 -133.05 247.75 -128.7 246.4 -123.35 244.95 -117.8 239.2 -118.35 237.8 -118.4 236.6 -119.0 238.45 -110.05 239.9 -101.35 241.15 -93.6 242.9 -85.75 244.75 -77.3 247.0 -69.1 L247.6 -69.35 250.7 -66.5 Q255.15 -67.25 256.75 -71.9 L254.6 -75.1 Q254.3 -75.55 254.5 -76.25 L256.5 -83.95 257.15 -84.6 258.2 -84.7 259.25 -85.55 267.1 -85.0 267.2 -84.05 Q269.85 -79.25 267.75 -73.85 L265.4 -68.9 Q262.25 -63.3 257.8 -58.35 256.0 -56.35 253.75 -54.6 255.8 -50.6 258.15 -46.95 259.8 -44.5 261.85 -42.55 L264.2 -39.7 Q270.1 -31.1 275.45 -22.05 279.35 -15.55 283.7 -9.35 287.3 -4.25 287.85 2.0 288.15 5.1 289.35 7.8 290.85 11.15 290.4 14.85 L290.4 16.55 290.35 16.7 290.15 16.4 288.75 21.4 Q287.75 24.4 287.85 27.65 288.5 45.25 288.3 62.85 290.55 66.15 294.6 65.6 299.15 65.55 299.05 69.85 298.9 75.35 296.5 80.2 295.7 81.85 294.5 83.25 292.4 85.6 291.45 88.6 289.05 96.2 283.4 101.95 283.85 111.85 282.6 121.55 281.45 130.25 277.45 138.0 275.95 140.85 273.35 142.7 L269.3 145.0 Q267.85 145.7 266.2 146.05 261.0 147.15 255.8 145.2 254.2 144.5 252.35 144.6 247.65 144.75 243.45 143.15 239.8 141.85 236.8 139.1 235.2 137.6 234.05 135.75 231.6 131.85 230.7 127.3 L229.55 121.3 227.95 111.6 227.75 110.15 Q217.2 108.8 206.65 109.55 L198.05 110.0 Q168.05 110.0 137.9 110.3 L137.5 115.95 Q127.65 115.75 117.8 115.9 L107.65 115.95 84.6 115.75 Q80.25 115.7 76.2 114.65 75.05 114.3 74.05 113.55 L69.4 110.25 Q66.0 111.0 62.4 110.15 L59.05 109.95 47.5 109.15 19.6 108.05 1.25 106.8 0.35 106.65 Q1.9 113.5 0.55 120.25 -0.25 124.4 -2.7 127.7 -6.3 132.65 -12.3 134.5 -15.4 135.5 -18.65 135.65 L-33.5 136.75 Q-37.45 136.8 -40.1 133.75 L-43.2 130.2 Q-47.6 125.05 -48.55 118.3 L-49.75 111.05 Q-50.4 107.8 -51.25 105.75 L-51.45 105.85 -51.15 105.2 Q-51.7 103.85 -54.05 103.5 -59.25 102.65 -64.25 101.0 -65.9 100.35 -66.45 98.75 L-68.75 92.4 Q-70.1 88.9 -71.05 85.1 -71.25 84.3 -70.85 83.65 -72.75 81.0 -75.7 79.2 -77.95 77.85 -78.3 75.2 -79.0 70.45 -77.0 66.15 -76.65 65.3 -75.8 64.75 -73.1 63.2 -69.9 63.35 -71.5 58.2 -71.9 52.7 L-72.3 46.75 -72.85 37.4 Q-73.55 26.2 -73.2 15.0 L-73.4 14.95 -73.55 14.85 -73.6 14.4 -73.1 12.45 -72.4 1.35 Q-72.1 -1.8 -70.4 -4.6 -64.3 -14.85 -54.3 -21.65 -50.9 -24.0 -48.1 -26.6 L-36.6 -36.9 Q-31.15 -41.55 -25.0 -45.3 -22.85 -46.7 -21.05 -48.55 L-21.1 -48.95 -20.65 -49.0 -17.15 -52.85 Q-14.9 -55.45 -11.7 -56.85 -15.8 -60.45 -19.0 -64.85 L-23.1 -70.85 -23.8 -71.55 Q-26.2 -73.1 -26.45 -76.0 -26.7 -78.65 -26.55 -81.35 -26.45 -83.0 -25.55 -84.15 L-15.6 -84.45 Q-13.45 -80.1 -13.75 -75.15 -13.8 -74.05 -14.9 -73.55 L-16.75 -72.8 Q-14.35 -66.4 -9.0 -62.15 -7.75 -65.5 -5.45 -68.5 -4.85 -69.3 -4.7 -70.45 L-4.5 -72.7 -4.65 -136.7 Q-2.95 -136.25 -3.1 -134.5 L-3.35 -131.55 -3.5 -75.4 8.85 -118.55 Q4.55 -116.85 0.95 -120.15 -0.75 -121.7 -0.5 -124.1 0.1 -130.7 6.65 -131.45 9.75 -131.45 11.0 -128.65 11.25 -134.6 13.75 -139.8 14.0 -140.3 14.6 -140.65 16.1 -142.2 18.45 -142.2 L33.2 -143.2 37.45 -143.5 67.5 -144.75 76.05 -145.85 81.0 -146.4 M9.35 -70.7 Q11.55 -73.1 14.45 -74.35 17.1 -75.65 20.0 -76.1 29.85 -78.0 40.0 -78.35 44.3 -78.55 48.6 -78.25 52.9 -78.2 57.1 -77.2 L84.1 -70.55 85.7 -70.2 89.1 -69.0 94.75 -70.05 97.1 -70.25 108.15 -70.95 108.75 -76.3 113.0 -76.7 115.0 -76.75 123.5 -77.35 129.25 -77.95 131.8 -78.5 152.2 -78.55 Q159.65 -78.55 167.05 -76.8 L177.45 -74.25 191.05 -70.65 193.75 -70.0 206.2 -69.65 223.65 -69.75 225.35 -69.75 230.15 -69.65 230.7 -70.15 232.75 -70.35 Q236.65 -70.6 236.95 -74.75 237.25 -78.5 236.55 -82.25 234.7 -92.05 232.3 -101.85 L231.7 -104.85 230.8 -109.9 227.15 -125.95 227.0 -126.6 225.65 -132.8 223.5 -134.15 Q222.4 -134.8 221.2 -134.7 L205.0 -136.05 204.85 -136.05 Q204.45 -136.1 204.5 -135.7 L199.75 -136.7 175.0 -136.35 171.35 -136.35 166.6 -136.55 142.35 -136.55 129.75 -137.05 112.55 -136.25 88.5 -136.0 55.7 -135.85 47.7 -135.25 25.5 -134.15 24.3 -133.95 19.65 -133.45 18.8 -128.55 Q18.15 -123.55 16.9 -118.75 L14.0 -107.9 Q10.0 -92.95 5.45 -78.25 L4.85 -76.3 Q3.85 -73.25 4.15 -70.85 L4.9 -70.55 6.0 -70.3 Q7.7 -70.1 9.4 -70.25 L9.75 -70.3 9.35 -70.7 M10.35 -70.25 L10.85 -70.25 10.7 -70.45 10.35 -70.25 M18.3 -40.9 Q15.8 -42.45 12.0 -45.95 L4.95 -52.4 Q1.4 -55.35 -0.75 -55.35 -2.6 -55.35 -7.6 -53.45 L-12.65 -51.3 Q-14.95 -49.15 -16.5 -48.7 L-18.1 -48.35 -19.65 -47.85 -20.15 -47.25 -20.2 -46.9 Q-20.4 -46.6 -21.05 -46.45 L-21.15 -46.4 Q-29.45 -40.9 -37.25 -34.8 L-39.0 -33.25 -49.15 -24.2 -54.4 -19.8 -59.65 -15.45 -62.45 -12.9 -67.0 -7.6 Q-68.2 -6.15 -69.0 -4.45 L-69.15 -4.1 -68.9 -4.25 Q-66.7 -6.1 -62.6 -8.3 -62.45 -8.35 -59.95 -9.75 -58.25 -10.65 -56.75 -11.2 L-53.35 -11.3 Q-49.8 -11.5 -46.75 -12.45 -44.5 -13.2 -41.7 -13.1 L-34.45 -12.85 Q-30.25 -12.85 -29.3 -15.7 -27.75 -20.4 -26.25 -21.85 L-26.15 -21.6 -26.05 -21.75 -25.75 -22.2 -24.5 -23.05 -2.7 -23.0 113.25 -23.1 117.7 -22.95 119.0 -23.05 226.45 -22.95 238.5 -22.8 241.4 -23.0 Q244.3 -22.75 245.5 -21.2 246.4 -20.3 248.25 -16.95 249.0 -15.55 250.2 -14.9 251.4 -14.25 254.5 -13.45 256.65 -12.9 258.45 -12.15 261.0 -11.45 270.0 -10.6 273.15 -10.3 277.55 -7.5 L282.25 -3.95 Q283.65 -2.65 285.15 -0.05 286.75 2.75 286.75 4.3 L287.25 4.2 286.5 0.45 286.05 -1.15 285.15 -3.65 284.05 -6.05 Q280.65 -12.55 276.35 -18.6 274.05 -21.85 271.85 -25.45 267.3 -33.0 262.2 -40.05 260.95 -40.25 259.9 -41.3 L257.6 -43.3 256.15 -44.15 254.6 -45.3 Q252.75 -46.4 252.15 -47.3 L249.4 -52.05 Q247.0 -55.85 245.75 -55.85 240.9 -55.85 237.5 -52.65 233.9 -48.45 231.25 -46.45 229.15 -44.85 226.0 -41.2 L222.1 -37.25 Q222.05 -35.95 221.5 -35.95 L213.0 -36.2 208.0 -36.5 199.5 -36.85 183.85 -37.0 172.0 -37.2 163.35 -37.85 146.75 -38.2 141.0 -37.7 130.45 -37.9 120.25 -38.2 117.3 -38.25 114.25 -38.45 113.8 -38.55 113.15 -37.6 Q112.1 -36.35 111.5 -35.2 L110.15 -33.3 109.0 -31.8 Q107.25 -31.8 107.25 -34.6 L107.75 -38.95 106.75 -39.2 105.15 -39.05 104.4 -38.9 104.55 -39.45 104.0 -39.45 103.9 -40.95 Q103.9 -42.55 104.9 -46.7 L106.25 -51.7 102.35 -44.25 Q99.75 -39.2 99.25 -39.2 L97.55 -39.5 97.5 -39.3 96.7 -39.25 Q94.05 -39.05 84.65 -39.05 L82.4 -38.85 80.25 -38.55 74.25 -38.2 64.7 -37.8 54.0 -37.35 50.25 -36.7 35.8 -36.1 32.5 -35.95 25.1 -36.45 Q24.8 -36.5 24.55 -37.0 24.35 -37.4 24.3 -37.9 20.3 -39.65 18.3 -40.9 M287.9 10.05 L285.35 7.55 Q282.1 4.05 274.65 4.05 L269.5 4.55 127.0 4.05 Q126.95 4.25 126.9 4.0 90.65 4.55 -50.0 3.95 L-57.15 4.05 -59.1 4.2 -63.4 5.3 Q-66.65 6.45 -68.0 7.8 -70.4 10.0 -71.5 11.95 L-71.5 12.4 -69.7 10.8 -67.0 9.05 -63.25 7.85 Q-60.1 6.95 -58.75 6.95 -57.85 6.95 -57.5 7.3 L117.25 7.4 118.85 7.2 119.85 7.4 277.5 7.4 281.4 8.15 285.0 8.7 Q286.0 8.9 287.4 10.15 L289.4 12.55 289.3 11.5 287.9 10.05 M271.75 24.2 L271.05 23.15 Q270.45 22.6 268.4 21.8 L223.0 21.7 211.6 21.8 211.25 22.05 Q210.55 22.4 209.25 23.4 206.2 25.85 205.85 28.8 205.35 32.35 205.75 39.7 L205.75 47.8 Q205.75 48.7 206.3 49.8 206.9 50.95 207.75 51.55 L211.45 54.35 215.75 54.65 Q268.6 54.45 269.25 54.2 L270.3 53.7 270.85 53.3 271.7 52.05 272.15 50.8 273.1 48.2 273.4 45.95 Q273.6 38.65 273.35 35.05 L273.5 29.65 Q273.45 26.3 271.75 24.2 M2.15 36.8 L2.0 33.45 Q1.65 31.5 0.65 29.9 -1.05 27.15 -3.05 25.4 -4.65 23.95 -5.9 23.7 L-6.25 23.9 -53.75 24.05 -55.55 24.4 -56.75 24.9 Q-59.7 25.85 -60.1 26.55 -60.8 27.7 -61.05 29.05 L-61.4 31.15 -61.4 31.2 -61.5 33.9 -61.5 40.25 -61.55 44.3 -61.6 46.75 Q-60.95 47.55 -60.85 49.15 -60.65 51.35 -59.9 52.3 L-57.4 55.3 Q-56.65 56.05 -54.45 56.3 -52.35 56.5 -51.55 57.05 L-48.4 56.85 -10.0 56.9 -7.1 56.95 Q-4.95 56.8 -3.25 55.9 -2.2 55.4 -0.35 53.55 0.85 52.4 1.55 50.45 L2.2 48.7 Q2.05 47.95 2.05 47.05 L2.15 43.55 2.15 36.8 M-61.95 27.65 L-61.9 27.6 -62.0 27.55 -61.95 27.65" fill="#000000" fill-rule="evenodd" stroke="none"/>
    <path d="M9.4 -70.25 Q7.7 -70.1 6.0 -70.3 L4.9 -70.55 4.15 -70.85 Q3.85 -73.25 4.85 -76.3 L5.45 -78.25 Q10.0 -92.95 14.0 -107.9 L16.9 -118.75 Q18.15 -123.55 18.8 -128.55 L19.65 -133.45 24.3 -133.95 25.5 -134.15 47.7 -135.25 55.7 -135.85 88.5 -136.0 112.55 -136.25 129.75 -137.05 142.35 -136.55 166.6 -136.55 171.35 -136.35 175.0 -136.35 199.75 -136.7 204.5 -135.7 Q204.45 -136.1 204.85 -136.05 L205.0 -136.05 221.2 -134.7 Q222.4 -134.8 223.5 -134.15 L225.65 -132.8 227.0 -126.6 227.15 -125.95 230.8 -109.9 231.7 -104.85 232.3 -101.85 Q234.7 -92.05 236.55 -82.25 237.25 -78.5 236.95 -74.75 236.65 -70.6 232.75 -70.35 L230.7 -70.15 230.15 -69.65 225.35 -69.75 223.65 -69.75 206.2 -69.65 193.75 -70.0 191.05 -70.65 177.45 -74.25 167.05 -76.8 Q159.65 -78.55 152.2 -78.55 L131.8 -78.5 129.25 -77.95 123.5 -77.35 115.0 -76.75 113.0 -76.7 108.75 -76.3 108.15 -70.95 97.1 -70.25 94.75 -70.05 89.1 -69.0 85.7 -70.2 84.1 -70.55 57.1 -77.2 Q52.9 -78.2 48.6 -78.25 44.3 -78.55 40.0 -78.35 29.85 -78.0 20.0 -76.1 17.1 -75.65 14.45 -74.35 11.55 -73.1 9.35 -70.7 L9.4 -70.25" fill="#0d0d0d" fill-rule="evenodd" stroke="none"/>
  </g>
  <defs>
    <linearGradient gradientTransform="matrix(0.0, -0.2523, 0.1931, 0.0, 104.5, -2.45)" gradientUnits="userSpaceOnUse" id="gradient0" spreadMethod="pad" x1="-819.2" x2="819.2">
      <stop offset="0.0" stop-color="#000000"/>
      <stop offset="1.0" stop-color="#3a293d"/>
    </linearGradient>
  </defs>
</svg>
