<?xml version="1.0" encoding="UTF-8" standalone="no"?>
<svg xmlns:xlink="http://www.w3.org/1999/xlink" height="5.35px" width="16.3px" xmlns="http://www.w3.org/2000/svg">
  <g transform="matrix(1.0, 0.0, 0.0, 1.0, -502.6, 170.25)">
    <path d="M503.95 -167.7 L504.0 -166.6 504.1 -166.75 504.6 -166.75 505.3 -166.45 506.0 -166.2 506.4 -166.2 506.4 -165.8 506.2 -165.8 506.1 -165.8 506.1 -165.75 505.8 -165.7 505.75 -165.65 505.35 -165.65 504.35 -165.85 504.0 -165.95 504.0 -165.3 503.6 -165.3 503.55 -167.7 503.95 -167.7 M503.0 -166.25 L503.05 -164.95 502.6 -164.9 502.6 -166.25 503.0 -166.25 M518.45 -167.05 L518.9 -167.1 518.9 -166.65 518.5 -166.0 518.1 -166.0 518.1 -166.5 518.3 -166.85 518.4 -167.0 518.45 -167.05 M516.55 -166.0 L516.35 -165.75 515.0 -165.6 514.6 -165.55 514.45 -168.2 515.0 -168.2 515.0 -168.85 515.4 -168.85 515.4 -168.25 516.0 -168.3 516.0 -167.9 515.9 -167.9 515.85 -167.65 515.9 -166.9 516.85 -166.9 516.85 -166.0 516.55 -166.0 M512.2 -169.2 L511.85 -168.2 511.85 -167.4 512.6 -167.4 512.6 -168.35 513.05 -168.35 Q513.3 -168.1 513.9 -168.1 L514.0 -166.4 514.0 -165.4 513.65 -165.2 513.05 -165.45 Q512.45 -165.95 511.65 -165.95 L510.9 -165.8 510.9 -165.85 510.8 -167.75 Q510.55 -168.45 510.6 -168.7 L510.55 -169.35 510.5 -169.35 510.5 -169.75 511.55 -169.75 512.2 -169.65 512.2 -169.2 M508.0 -170.25 L508.3 -168.0 508.7 -167.9 508.6 -168.5 509.0 -168.5 509.1 -167.8 510.25 -167.65 510.25 -167.25 509.8 -167.25 509.8 -167.2 509.9 -167.2 Q509.8 -166.45 510.1 -166.0 L510.1 -165.6 509.75 -165.6 509.75 -165.55 509.3 -165.6 509.25 -165.6 509.1 -165.65 508.95 -165.75 508.75 -167.35 508.65 -167.4 508.35 -167.5 508.4 -167.05 508.7 -167.05 508.7 -166.65 508.45 -166.65 508.45 -166.0 508.0 -166.0 507.95 -166.7 507.65 -166.75 507.75 -166.6 507.75 -165.9 507.35 -165.9 507.2 -166.85 506.85 -166.95 Q506.7 -166.95 506.7 -167.15 L506.7 -167.4 507.1 -167.4 507.05 -168.25 507.45 -168.25 507.55 -167.35 507.55 -167.2 507.9 -167.2 507.6 -170.25 508.0 -170.25" fill="#000000" fill-opacity="0.2509804" fill-rule="evenodd" stroke="none"/>
  </g>
</svg>
