<?xml version="1.0" encoding="UTF-8" standalone="no"?>
<svg xmlns:xlink="http://www.w3.org/1999/xlink" height="47.6px" width="40.3px" xmlns="http://www.w3.org/2000/svg">
  <g transform="matrix(1.0, 0.0, 0.0, 1.0, 0.0, 7.5)">
    <path d="M6.8 28.65 Q6.8 30.1 5.8 31.1 4.8 32.1 3.4 32.1 2.0 32.1 1.0 31.1 0.0 30.1 0.0 28.65 0.0 27.2 1.0 26.2 2.0 25.2 3.4 25.2 4.8 25.2 5.8 26.2 6.8 27.2 6.8 28.65 M3.0 34.2 Q4.0 33.2 5.4 33.2 6.8 33.2 7.8 34.2 8.8 35.2 8.8 36.65 8.8 38.1 7.8 39.1 6.8 40.1 5.4 40.1 4.0 40.1 3.0 39.1 2.0 38.1 2.0 36.65 2.0 35.2 3.0 34.2" fill="#ff0000" fill-rule="evenodd" stroke="none"/>
    <path d="M40.3 3.95 Q40.3 5.4 39.3 6.4 38.3 7.4 36.9 7.4 35.5 7.4 34.5 6.4 33.5 5.4 33.5 3.95 33.5 2.5 34.5 1.5 35.5 0.5 36.9 0.5 38.3 0.5 39.3 1.5 40.3 2.5 40.3 3.95 M37.3 -6.5 Q38.3 -5.5 38.3 -4.05 38.3 -2.6 37.3 -1.6 36.3 -0.6 34.9 -0.6 33.5 -0.6 32.5 -1.6 L32.15 -2.0 Q31.5 -2.9 31.5 -4.05 31.5 -5.2 32.15 -6.1 L32.5 -6.5 Q33.5 -7.5 34.9 -7.5 36.3 -7.5 37.3 -6.5" fill="#ff0000" fill-rule="evenodd" stroke="none"/>
  </g>
</svg>
