<?xml version="1.0" encoding="UTF-8" standalone="no"?>
<svg xmlns:xlink="http://www.w3.org/1999/xlink" height="382.85px" width="534.4px" xmlns="http://www.w3.org/2000/svg">
  <g transform="matrix(1.0, 0.0, 0.0, 1.0, 411.6, 133.65)">
    <path d="M-118.35 -83.4 Q-68.0 -33.05 -68.0 38.15 -68.0 109.3 -118.35 159.55 -168.65 209.95 -239.8 209.95 -310.95 209.95 -361.35 159.55 -411.6 109.3 -411.6 38.15 -411.6 -33.05 -361.35 -83.4 -310.95 -133.65 -239.8 -133.65 -168.65 -133.65 -118.35 -83.4" fill="url(#gradient0)" fill-rule="evenodd" stroke="none"/>
    <path d="M-49.0 -94.4 Q22.15 -94.4 72.45 -44.15 122.8 6.2 122.8 77.4 122.8 148.55 72.45 198.8 22.15 249.2 -49.0 249.2 -120.15 249.2 -170.55 198.8 -220.8 148.55 -220.8 77.4 -220.8 6.2 -170.55 -44.15 -120.15 -94.4 -49.0 -94.4" fill="url(#gradient1)" fill-rule="evenodd" stroke="none"/>
  </g>
  <defs>
    <radialGradient cx="0" cy="0" gradientTransform="matrix(0.2119, 0.0, 0.0, 0.2119, -239.8, 38.15)" gradientUnits="userSpaceOnUse" id="gradient0" r="819.2" spreadMethod="pad">
      <stop offset="0.0" stop-color="#ffffff"/>
      <stop offset="1.0" stop-color="#ffffff" stop-opacity="0.0"/>
    </radialGradient>
    <radialGradient cx="0" cy="0" gradientTransform="matrix(0.2119, 0.0, 0.0, 0.2119, -49.0, 77.4)" gradientUnits="userSpaceOnUse" id="gradient1" r="819.2" spreadMethod="pad">
      <stop offset="0.0" stop-color="#ffffff"/>
      <stop offset="1.0" stop-color="#ffffff" stop-opacity="0.0"/>
    </radialGradient>
  </defs>
</svg>
