<?xml version="1.0" encoding="UTF-8" standalone="no"?>
<svg xmlns:xlink="http://www.w3.org/1999/xlink" height="328.15px" width="272.55px" xmlns="http://www.w3.org/2000/svg">
  <g transform="matrix(1.0, 0.0, 0.0, 1.0, 52.0, 225.1)">
    <path d="M22.1 -219.7 Q30.6 -223.15 39.85 -223.0 L49.3 -222.3 Q52.85 -225.1 57.85 -225.05 L60.3 -225.1 Q61.25 -223.7 62.75 -223.4 75.05 -221.95 86.4 -216.85 L88.95 -215.55 97.1 -210.65 Q101.95 -207.8 107.05 -205.4 L110.15 -203.7 111.5 -202.75 112.5 -201.7 113.3 -199.7 105.3 -202.1 Q111.5 -195.45 118.8 -190.05 125.15 -185.35 130.1 -179.3 124.0 -179.45 118.65 -181.95 L117.35 -182.7 Q123.1 -175.25 129.9 -169.1 L141.5 -158.4 141.45 -158.2 127.0 -163.2 147.4 -129.45 Q141.85 -132.1 137.1 -136.45 L133.7 -139.15 Q131.55 -140.7 130.0 -142.85 134.9 -133.5 142.05 -125.8 148.05 -119.2 154.95 -113.5 146.65 -116.6 138.95 -121.1 L135.25 -123.45 141.25 -116.45 140.6 -116.75 161.35 -93.2 160.75 -92.95 Q155.7 -94.55 151.0 -97.1 145.25 -100.25 140.5 -104.8 145.7 -96.8 152.15 -90.0 161.5 -80.1 172.05 -71.6 L174.45 -69.45 Q171.4 -69.7 168.7 -71.0 166.65 -71.95 164.3 -72.5 160.45 -73.35 156.8 -75.4 152.9 -77.5 149.3 -80.0 144.4 -83.5 139.6 -87.35 143.0 -80.95 146.65 -75.1 151.8 -66.65 159.65 -60.8 L162.65 -58.5 Q167.8 -54.7 173.4 -51.5 175.25 -50.55 176.1 -48.7 167.8 -51.1 159.55 -53.9 155.4 -55.35 151.4 -57.25 L138.5 -63.7 135.65 -65.4 Q131.25 -68.25 127.35 -71.75 L125.6 -73.45 Q131.55 -61.2 140.8 -51.05 L149.0 -42.0 Q151.0 -39.8 153.45 -38.35 L154.1 -37.95 Q155.35 -37.45 155.9 -36.2 L156.15 -35.6 Q152.45 -35.95 149.15 -37.85 140.7 -42.5 132.15 -46.65 130.55 -47.4 129.1 -48.3 125.35 -50.7 122.2 -54.0 L120.1 -56.2 136.1 -31.55 136.6 -31.45 Q151.8 -27.2 162.8 -24.95 168.9 -23.7 173.95 -21.7 L182.05 -18.45 190.1 -15.35 Q193.95 -13.65 196.3 -11.7 204.35 -5.05 210.85 8.7 216.25 20.15 216.9 26.9 219.2 51.05 219.6 65.7 L219.6 68.35 219.65 68.3 219.25 77.8 219.55 77.6 220.3 77.9 220.55 78.95 Q220.55 80.95 219.1 83.0 L219.0 86.45 Q218.8 90.05 218.1 92.45 217.6 91.85 217.6 91.05 L217.9 84.35 Q214.5 87.8 206.8 91.2 199.5 94.6 196.4 95.5 185.65 98.55 169.55 98.55 L138.15 96.85 101.6 95.1 Q86.45 95.1 66.8 99.1 49.85 103.05 48.0 103.05 27.4 103.05 25.2 102.5 L21.2 101.3 Q17.1 100.25 9.0 99.05 L-1.2 97.15 -9.5 95.6 Q-14.9 95.0 -27.0 90.4 L-46.15 82.8 Q-46.5 86.45 -47.1 89.35 L-47.35 89.4 -47.4 85.1 -47.35 82.35 -49.0 81.7 Q-49.15 82.4 -49.15 81.15 L-49.0 80.2 -48.75 80.1 -47.75 79.95 -47.25 80.0 -46.9 72.35 -46.25 60.9 Q-45.3 51.1 -45.25 48.9 L-44.95 46.0 -44.5 42.9 -44.2 40.95 -44.35 40.05 Q-44.35 39.05 -42.95 31.25 -41.5 23.1 -40.75 20.3 L-38.05 10.65 Q-35.95 5.05 -32.0 0.8 L-29.8 -1.65 -27.4 -4.05 Q-24.05 -6.9 -20.75 -8.95 -15.65 -12.05 -12.1 -13.7 L-2.25 -18.55 Q6.0 -22.6 11.5 -28.3 L12.85 -29.8 Q12.35 -31.05 11.3 -31.8 L10.1 -32.5 Q9.0 -32.6 7.9 -31.85 L6.2 -30.6 Q0.0 -25.2 -5.25 -19.15 -6.45 -25.35 -4.5 -31.55 -2.7 -37.25 -3.9 -42.95 -11.85 -31.75 -22.0 -22.5 L-24.85 -20.15 Q-24.5 -25.2 -23.0 -30.8 -20.55 -39.7 -21.85 -49.1 L-22.5 -52.85 -23.35 -56.65 Q-28.1 -52.35 -30.75 -46.4 -31.7 -44.15 -33.15 -42.1 -33.85 -41.1 -34.7 -41.55 -35.25 -42.1 -35.15 -42.85 -33.05 -56.35 -32.05 -69.85 -31.75 -73.9 -31.85 -77.95 L-51.25 -62.35 -52.0 -63.15 Q-49.45 -68.9 -46.05 -74.3 -43.75 -78.0 -42.35 -81.95 L-37.6 -94.9 Q-36.35 -98.2 -35.45 -101.55 L-33.75 -108.35 Q-39.4 -102.15 -46.55 -98.2 -48.3 -97.15 -50.2 -97.15 L-50.65 -98.05 Q-46.6 -101.55 -43.95 -106.0 L-34.25 -122.65 -32.65 -125.75 Q-29.25 -133.15 -27.35 -141.15 -30.35 -137.65 -34.7 -135.85 -36.75 -135.0 -38.9 -135.05 -35.3 -143.9 -30.05 -151.95 -26.7 -157.1 -24.35 -162.75 -21.85 -168.85 -19.95 -175.35 -23.0 -173.95 -26.4 -173.45 L-28.65 -173.1 Q-24.15 -178.65 -18.7 -183.55 -16.65 -185.35 -15.05 -187.8 L-7.1 -200.1 -13.65 -199.45 Q-12.6 -200.55 -11.35 -201.45 4.45 -212.3 22.1 -219.7 M7.8 -94.05 L7.4 -93.65 5.2 -93.55 2.8 -93.55 0.2 -94.05 -0.05 -94.0 -0.55 -94.3 Q-1.35 -89.55 0.1 -84.9 3.4 -74.1 10.0 -65.0 L19.0 -52.8 27.9 -41.1 32.0 -36.15 Q36.8 -30.6 43.45 -28.5 L44.05 -28.75 45.35 -28.65 Q49.4 -28.6 53.35 -29.8 59.9 -31.7 65.05 -36.5 L70.85 -41.65 Q78.15 -48.0 82.4 -56.55 L87.7 -67.0 Q91.8 -75.1 93.75 -84.0 94.5 -87.55 95.4 -90.95 97.3 -98.25 95.75 -105.3 L94.3 -102.35 Q93.05 -99.95 91.05 -98.6 86.55 -95.55 83.65 -91.1 81.55 -87.95 80.05 -83.6 L79.3 -83.7 79.25 -87.05 Q79.25 -91.6 79.6 -93.7 80.15 -96.9 82.15 -100.95 L85.85 -108.4 Q86.8 -110.8 86.8 -114.55 L86.8 -118.35 86.45 -121.05 Q83.6 -121.75 79.75 -123.25 L71.25 -126.95 68.25 -128.95 65.4 -131.05 65.15 -131.2 67.55 -128.85 73.05 -123.7 72.8 -123.2 Q69.0 -124.3 64.55 -126.9 L57.05 -131.45 Q53.7 -133.4 51.4 -136.2 L47.8 -140.95 Q44.45 -145.2 42.25 -150.7 40.9 -154.1 39.75 -158.6 L38.75 -159.35 38.1 -159.8 37.55 -159.45 Q37.1 -159.1 36.7 -158.2 L36.1 -156.95 Q35.85 -156.5 35.35 -154.65 L34.3 -152.2 Q33.3 -152.45 33.0 -153.5 L32.8 -155.05 32.15 -158.05 30.25 -156.7 28.55 -155.45 27.8 -156.05 28.4 -157.55 29.05 -158.9 29.15 -159.05 Q23.9 -158.55 16.8 -155.0 10.8 -151.95 7.85 -149.2 6.1 -147.55 4.05 -142.9 2.0 -138.35 2.0 -136.2 2.0 -133.35 3.15 -130.35 L4.25 -126.7 Q4.25 -124.6 2.6 -122.85 L-1.35 -118.45 Q-2.15 -117.35 -3.55 -114.45 L-4.3 -112.95 Q2.85 -111.4 9.55 -108.35 L12.8 -106.9 Q14.35 -106.25 15.05 -105.35 L15.9 -104.95 17.15 -103.9 18.9 -101.4 Q20.1 -99.55 20.4 -96.6 21.35 -89.25 21.35 -86.9 21.35 -84.35 20.6 -80.2 19.85 -76.0 19.85 -74.55 19.85 -72.25 20.35 -70.6 20.85 -69.1 21.85 -67.8 L22.7 -67.05 Q25.45 -67.45 27.75 -65.75 L25.35 -65.7 Q25.3 -65.35 24.6 -65.35 L22.95 -65.65 22.35 -65.65 22.15 -66.05 20.7 -67.2 Q19.55 -68.45 19.2 -69.4 18.65 -70.8 18.65 -74.0 18.65 -75.95 19.45 -82.3 L20.25 -89.1 20.05 -92.15 19.7 -95.2 19.0 -98.6 18.7 -99.95 18.75 -100.1 18.7 -100.35 18.65 -100.35 18.55 -100.7 18.1 -101.3 16.85 -102.75 15.35 -104.05 13.6 -104.8 12.8 -105.0 12.7 -104.95 12.6 -104.95 Q11.55 -104.95 10.85 -104.55 9.75 -104.85 6.1 -102.95 0.9 -100.25 0.9 -98.25 L1.0 -97.95 0.8 -97.55 1.35 -96.55 Q2.1 -95.3 3.3 -94.95 L7.8 -94.05 M17.55 -98.95 L17.55 -98.85 15.75 -97.05 14.3 -95.8 13.1 -95.2 13.35 -95.65 13.35 -95.7 14.85 -97.2 17.25 -99.1 17.4 -99.05 17.55 -98.95 M86.5 -123.3 L85.55 -125.4 83.85 -126.0 76.6 -128.65 Q80.25 -126.3 84.3 -124.35 L86.5 -123.3 M31.4 -113.3 L30.75 -114.4 32.4 -113.15 Q39.75 -120.1 50.15 -121.05 L61.3 -120.35 Q56.0 -119.95 51.15 -117.95 L44.8 -115.35 Q40.4 -113.65 35.55 -112.35 32.35 -111.45 29.4 -112.7 L31.4 -113.3 M38.7 -104.5 L38.4 -104.2 Q38.9 -108.6 42.6 -111.2 46.55 -113.95 51.4 -113.9 54.8 -114.5 57.85 -113.05 60.2 -111.9 60.85 -109.55 L60.6 -109.35 59.4 -107.95 57.9 -106.5 56.4 -105.1 56.25 -105.1 55.85 -105.3 58.6 -109.5 Q54.5 -111.65 49.9 -111.0 L49.55 -110.95 48.3 -110.85 46.4 -110.45 45.15 -109.95 42.5 -108.35 42.05 -108.0 42.05 -108.1 38.7 -104.5 M53.55 -102.85 L52.8 -102.2 Q52.1 -101.8 50.9 -101.35 48.2 -100.35 47.2 -100.35 45.35 -100.35 43.2 -101.05 L42.7 -101.2 41.8 -101.85 41.85 -102.0 44.0 -101.4 47.2 -100.8 Q48.75 -100.8 51.15 -101.9 L52.95 -102.8 53.2 -102.75 53.55 -102.85 M55.8 -58.15 Q50.8 -51.9 44.3 -48.2 38.4 -44.85 33.75 -44.85 L30.35 -45.3 Q28.0 -45.35 26.75 -46.25 26.15 -46.65 25.4 -47.95 L24.65 -49.65 24.9 -51.15 23.4 -51.9 Q21.9 -52.55 21.9 -53.4 L22.15 -53.85 22.35 -54.0 22.2 -54.1 23.75 -55.25 Q25.2 -56.1 27.55 -56.1 L30.4 -55.6 31.7 -55.15 Q32.8 -55.15 33.95 -55.95 35.35 -57.0 35.85 -57.15 36.6 -57.4 36.4 -57.6 L40.2 -57.85 45.95 -58.15 48.45 -58.35 52.65 -57.9 54.3 -58.25 55.25 -58.35 54.85 -57.9 55.65 -58.35 55.8 -58.15 M35.7 -70.3 Q32.6 -68.45 32.15 -68.35 32.0 -68.4 32.0 -68.7 L31.75 -68.4 31.25 -68.25 30.9 -68.35 30.8 -68.35 30.8 -68.55 Q30.8 -69.2 32.65 -70.0 34.5 -70.8 35.6 -70.6 L35.7 -70.3 M-5.8 -107.7 L-3.9 -104.25 2.1 -106.4 -5.8 -107.7" fill="#000000" fill-rule="evenodd" stroke="none"/>
    <path d="M18.7 -99.95 L18.3 -99.5 17.7 -98.95 17.55 -98.95 17.4 -99.05 17.25 -99.1 14.85 -97.2 13.35 -95.7 13.35 -95.65 13.1 -95.2 12.05 -94.8 10.55 -94.25 10.05 -94.2 9.85 -94.1 9.6 -94.0 8.85 -93.9 7.8 -94.05 3.3 -94.95 Q2.1 -95.3 1.35 -96.55 L0.8 -97.55 1.0 -97.95 0.9 -98.25 Q0.9 -100.25 6.1 -102.95 9.75 -104.85 10.85 -104.55 11.55 -104.95 12.6 -104.95 L12.7 -104.95 12.8 -105.0 13.6 -104.8 15.35 -104.05 16.85 -102.75 18.1 -101.3 18.55 -100.7 18.65 -100.35 18.7 -100.35 18.75 -100.1 18.7 -99.95 M41.8 -101.85 L41.05 -102.2 40.45 -102.35 40.4 -102.5 39.65 -103.2 Q38.7 -104.2 38.7 -104.4 L38.7 -104.5 42.05 -108.1 42.05 -108.0 42.5 -108.35 45.15 -109.95 46.4 -110.45 48.3 -110.85 49.55 -110.95 49.9 -111.0 Q54.5 -111.65 58.6 -109.5 L55.85 -105.3 56.25 -105.1 56.25 -105.0 54.65 -103.75 53.55 -102.85 53.2 -102.75 52.95 -102.8 51.15 -101.9 Q48.75 -100.8 47.2 -100.8 L44.0 -101.4 41.85 -102.0 41.8 -101.85" fill="#ffe609" fill-rule="evenodd" stroke="none"/>
    <path d="M18.7 -99.95 L19.0 -98.6 19.7 -95.2 20.05 -92.15 20.25 -89.1 19.45 -82.3 Q18.65 -75.95 18.65 -74.0 18.65 -70.8 19.2 -69.4 19.55 -68.45 20.7 -67.2 L22.15 -66.05 22.35 -65.65 22.95 -65.65 24.6 -65.35 Q25.3 -65.35 25.35 -65.7 L27.75 -65.75 Q25.45 -67.45 22.7 -67.05 L21.85 -67.8 Q20.85 -69.1 20.35 -70.6 19.85 -72.25 19.85 -74.55 19.85 -76.0 20.6 -80.2 21.35 -84.35 21.35 -86.9 21.35 -89.25 20.4 -96.6 20.1 -99.55 18.9 -101.4 L17.15 -103.9 15.9 -104.95 15.05 -105.35 Q14.35 -106.25 12.8 -106.9 L9.55 -108.35 Q2.85 -111.4 -4.3 -112.95 L-3.55 -114.45 Q-2.15 -117.35 -1.35 -118.45 L2.6 -122.85 Q4.25 -124.6 4.25 -126.7 L3.15 -130.35 Q2.0 -133.35 2.0 -136.2 2.0 -138.35 4.05 -142.9 6.1 -147.55 7.85 -149.2 10.8 -151.95 16.8 -155.0 23.9 -158.55 29.15 -159.05 L29.05 -158.9 28.4 -157.55 27.8 -156.05 28.55 -155.45 30.25 -156.7 32.15 -158.05 32.8 -155.05 33.0 -153.5 Q33.3 -152.45 34.3 -152.2 L35.35 -154.65 Q35.85 -156.5 36.1 -156.95 L36.7 -158.2 Q37.1 -159.1 37.55 -159.45 L38.1 -159.8 38.75 -159.35 39.75 -158.6 Q40.9 -154.1 42.25 -150.7 44.45 -145.2 47.8 -140.95 L51.4 -136.2 Q53.7 -133.4 57.05 -131.45 L64.55 -126.9 Q69.0 -124.3 72.8 -123.2 L73.05 -123.7 67.55 -128.85 65.15 -131.2 65.4 -131.05 68.25 -128.95 71.25 -126.95 79.75 -123.25 Q83.6 -121.75 86.45 -121.05 L86.8 -118.35 86.8 -114.55 Q86.8 -110.8 85.85 -108.4 L82.15 -100.95 Q80.15 -96.9 79.6 -93.7 79.25 -91.6 79.25 -87.05 L79.3 -83.7 80.05 -83.6 Q81.55 -87.95 83.65 -91.1 86.55 -95.55 91.05 -98.6 93.05 -99.95 94.3 -102.35 L95.75 -105.3 Q97.3 -98.25 95.4 -90.95 94.5 -87.55 93.75 -84.0 91.8 -75.1 87.7 -67.0 L82.4 -56.55 Q78.15 -48.0 70.85 -41.65 L65.05 -36.5 Q59.9 -31.7 53.35 -29.8 49.4 -28.6 45.35 -28.65 L44.05 -28.75 43.45 -28.5 Q36.8 -30.6 32.0 -36.15 L27.9 -41.1 19.0 -52.8 10.0 -65.0 Q3.4 -74.1 0.1 -84.9 -1.35 -89.55 -0.55 -94.3 L-0.05 -94.0 0.2 -94.05 2.8 -93.55 5.2 -93.55 7.4 -93.65 7.8 -94.05 8.85 -93.9 9.6 -94.0 9.85 -94.1 10.05 -94.2 10.55 -94.25 12.05 -94.8 13.1 -95.2 14.3 -95.8 15.75 -97.05 17.55 -98.85 17.55 -98.95 17.7 -98.95 18.3 -99.5 18.7 -99.95 M86.5 -123.3 L84.3 -124.35 Q80.25 -126.3 76.6 -128.65 L83.85 -126.0 85.55 -125.4 86.5 -123.3 M31.4 -113.3 L29.4 -112.7 Q32.35 -111.45 35.55 -112.35 40.4 -113.65 44.8 -115.35 L51.15 -117.95 Q56.0 -119.95 61.3 -120.35 L50.15 -121.05 Q39.75 -120.1 32.4 -113.15 L30.75 -114.4 31.4 -113.3 M38.7 -104.5 L38.7 -104.4 Q38.7 -104.2 39.65 -103.2 L40.4 -102.5 40.45 -102.35 41.05 -102.2 41.8 -101.85 42.7 -101.2 43.2 -101.05 Q45.35 -100.35 47.2 -100.35 48.2 -100.35 50.9 -101.35 52.1 -101.8 52.8 -102.2 L53.55 -102.85 54.65 -103.75 56.25 -105.0 56.25 -105.1 56.4 -105.1 57.9 -106.5 59.4 -107.95 60.6 -109.35 60.85 -109.55 Q60.2 -111.9 57.85 -113.05 54.8 -114.5 51.4 -113.9 46.55 -113.95 42.6 -111.2 38.9 -108.6 38.4 -104.2 L38.7 -104.5 M35.7 -70.3 L35.6 -70.6 Q34.5 -70.8 32.65 -70.0 30.8 -69.2 30.8 -68.55 L30.8 -68.35 30.9 -68.35 31.25 -68.25 31.75 -68.4 32.0 -68.7 Q32.0 -68.4 32.15 -68.35 32.6 -68.45 35.7 -70.3 M55.8 -58.15 L55.65 -58.35 54.85 -57.9 55.25 -58.35 54.3 -58.25 52.65 -57.9 48.45 -58.35 45.95 -58.15 40.2 -57.85 36.4 -57.6 Q36.6 -57.4 35.85 -57.15 35.35 -57.0 33.95 -55.95 32.8 -55.15 31.7 -55.15 L30.4 -55.6 27.55 -56.1 Q25.2 -56.1 23.75 -55.25 L22.2 -54.1 22.35 -54.0 22.15 -53.85 21.9 -53.4 Q21.9 -52.55 23.4 -51.9 L24.9 -51.15 24.65 -49.65 25.4 -47.95 Q26.15 -46.65 26.75 -46.25 28.0 -45.35 30.35 -45.3 L33.75 -44.85 Q38.4 -44.85 44.3 -48.2 50.8 -51.9 55.8 -58.15 M-5.8 -107.7 L2.1 -106.4 -3.9 -104.25 -5.8 -107.7" fill="url(#gradient0)" fill-rule="evenodd" stroke="none"/>
    <path d="M121.05 -110.55 Q122.5 -102.55 122.5 -87.45 122.5 -77.35 118.5 -69.75 115.15 -63.45 104.0 -50.4 98.85 -44.25 97.0 -41.05 95.9 -39.05 91.5 -36.6 L84.9 -32.45 Q80.45 -29.55 77.45 -28.1 73.7 -26.25 68.9 -24.9 63.9 -22.8 60.95 -21.85 55.8 -20.2 46.8 -20.2 35.75 -20.2 23.35 -27.35 13.6 -32.9 6.9 -40.2 -2.25 -50.3 -8.5 -62.7 -15.05 -75.65 -18.25 -85.45 -22.15 -97.5 -22.15 -107.85 -22.15 -115.35 -20.25 -120.45 -19.3 -122.45 -18.9 -123.7 -18.7 -124.2 -18.85 -125.15 L-19.0 -126.7 Q-19.15 -129.6 -18.6 -132.9 -17.35 -140.15 -14.5 -145.2 L-10.5 -151.45 Q-5.6 -156.65 -5.6 -157.65 L-3.5 -159.1 Q-1.15 -160.65 0.25 -161.2 6.15 -163.65 9.4 -164.2 12.8 -164.8 15.7 -165.95 L19.0 -167.45 24.25 -167.9 25.85 -168.2 30.8 -168.8 Q42.95 -170.2 61.3 -165.5 73.6 -162.35 86.5 -157.15 96.75 -152.3 102.95 -145.55 104.7 -143.6 111.4 -133.9 118.7 -123.35 121.05 -110.55 M17.0 -153.7 L10.75 -149.7 9.25 -148.4 9.25 -148.2 Q9.25 -147.55 6.95 -143.65 4.65 -138.95 4.65 -134.3 4.65 -131.45 5.8 -129.75 6.9 -128.0 6.9 -126.15 6.9 -124.45 5.15 -123.15 L1.5 -120.9 Q0.85 -120.45 -0.3 -117.95 -1.4 -115.55 -1.4 -114.8 -1.4 -113.05 -0.25 -111.05 0.3 -110.0 1.05 -109.3 1.2 -109.85 2.0 -109.75 L2.05 -109.75 Q1.35 -110.05 0.9 -110.45 L9.5 -110.35 14.25 -109.1 Q17.6 -108.15 19.1 -105.7 L21.4 -101.6 Q22.0 -100.1 22.0 -97.85 L22.0 -93.35 22.0 -91.05 Q21.85 -89.8 21.15 -88.85 L20.65 -88.85 Q20.55 -96.3 18.0 -101.05 L16.15 -103.95 Q14.7 -105.6 12.25 -106.45 L7.0 -108.45 4.2 -109.05 3.0 -109.35 3.35 -108.95 3.85 -107.5 4.1 -106.15 Q4.1 -105.35 3.1 -103.85 2.1 -102.3 2.1 -101.7 2.1 -99.25 3.7 -97.55 5.95 -95.2 10.85 -94.95 L11.0 -94.9 11.1 -94.45 Q11.1 -91.95 5.75 -88.85 L1.65 -89.05 1.7 -88.75 2.25 -85.85 Q3.2 -82.65 4.85 -80.2 L8.65 -74.6 12.25 -68.95 15.8 -63.15 Q18.05 -59.5 19.65 -57.55 21.5 -55.3 25.0 -52.4 L28.15 -49.85 28.45 -49.9 31.15 -48.85 Q34.65 -47.8 38.9 -47.8 41.35 -47.8 44.15 -49.15 45.55 -49.85 46.85 -50.7 47.25 -50.9 48.9 -52.25 50.6 -53.5 51.8 -53.55 L51.85 -52.95 Q51.85 -51.45 44.8 -45.1 L40.8 -42.2 Q38.2 -40.55 35.8 -39.85 L35.65 -39.85 39.1 -34.7 Q42.9 -29.8 45.65 -29.8 46.5 -29.8 46.65 -30.05 44.5 -32.45 44.5 -33.2 L44.55 -33.6 44.65 -33.8 45.2 -33.9 Q45.6 -33.9 47.3 -33.0 49.55 -32.1 52.65 -32.1 58.55 -32.1 60.7 -33.7 61.55 -34.3 66.25 -40.3 66.95 -42.5 67.5 -46.65 L68.0 -53.05 67.95 -56.05 Q67.45 -56.95 67.35 -58.1 L67.15 -61.8 Q66.9 -63.8 66.9 -69.0 66.9 -75.2 68.1 -80.9 69.45 -87.2 72.15 -91.95 L78.65 -103.45 Q79.2 -104.4 79.55 -106.25 79.95 -108.35 80.25 -109.05 80.5 -110.95 80.35 -111.85 L80.25 -113.1 80.3 -113.4 79.55 -114.1 78.0 -115.35 76.9 -116.7 73.15 -118.45 69.0 -119.8 64.85 -120.3 56.15 -119.85 51.55 -119.45 50.25 -119.55 Q50.1 -119.3 50.1 -119.95 50.1 -120.35 51.8 -120.7 L58.25 -121.95 60.35 -122.5 62.35 -122.95 63.25 -123.05 62.1 -123.55 Q59.25 -124.75 58.3 -125.55 L53.6 -129.2 Q51.4 -130.75 49.4 -133.55 L46.35 -138.2 Q43.85 -142.15 42.25 -147.45 L40.5 -151.95 38.8 -156.45 39.05 -153.9 Q39.0 -151.95 37.65 -151.95 36.3 -151.95 35.45 -152.85 L34.5 -154.05 32.55 -151.95 Q31.4 -152.25 31.4 -152.9 L31.55 -154.05 Q31.55 -155.35 31.8 -156.3 L31.8 -156.45 Q31.4 -156.35 30.15 -155.4 29.0 -154.45 28.8 -154.45 L27.75 -154.45 27.55 -155.8 Q27.55 -157.25 28.15 -159.5 27.35 -159.0 25.85 -158.25 L22.5 -156.7 19.7 -155.1 17.0 -153.7 M40.05 -116.2 L42.05 -114.1 Q42.8 -112.9 42.8 -111.95 42.8 -111.35 41.35 -109.15 39.85 -106.9 39.85 -105.3 39.85 -103.3 43.85 -102.1 L48.0 -101.3 Q52.05 -101.3 55.8 -104.95 L59.9 -109.85 58.85 -110.7 57.3 -111.95 55.8 -112.15 Q54.8 -112.05 54.6 -113.1 L56.85 -113.65 59.05 -114.05 65.6 -114.2 65.7 -114.1 65.8 -113.7 63.65 -111.2 Q61.45 -108.65 61.3 -107.95 L61.05 -108.0 Q60.1 -105.7 57.25 -102.55 52.45 -97.2 47.8 -97.45 L46.55 -97.45 41.75 -98.7 39.95 -99.7 39.15 -100.45 37.7 -102.15 Q37.1 -102.95 37.1 -103.8 L38.5 -107.55 39.85 -111.3 39.85 -111.7 39.4 -111.7 32.9 -111.0 Q31.15 -110.6 30.55 -110.2 28.7 -108.7 27.55 -108.3 L26.85 -108.35 Q26.75 -108.4 26.75 -108.8 26.75 -110.35 29.0 -111.7 27.2 -112.55 27.0 -112.85 L27.0 -113.45 28.7 -113.25 30.35 -112.95 Q30.5 -112.45 30.5 -113.1 L30.1 -113.8 29.5 -114.7 29.5 -115.05 29.45 -115.1 29.8 -115.2 31.45 -114.55 32.85 -113.8 33.35 -113.85 33.15 -114.4 Q33.0 -114.8 33.0 -115.15 33.0 -116.3 34.45 -116.25 L40.05 -116.2 M-7.0 -153.15 Q-6.15 -153.7 -6.15 -154.15 L-7.0 -153.2 -7.0 -153.15" fill="#000000" fill-opacity="0.2509804" fill-rule="evenodd" stroke="none"/>
    <path d="M5.0 -102.75 L4.65 -102.45 3.8 -102.0 3.4 -101.45 3.35 -101.4 3.3 -101.3 Q2.05 -100.25 1.4 -100.05 L0.3 -99.35 Q-0.15 -98.9 -0.55 -98.85 L-0.6 -99.2 Q-0.6 -99.6 0.7 -100.75 L2.25 -102.0 4.35 -103.75 Q5.9 -104.95 6.25 -104.95 6.65 -104.95 6.65 -104.75 L6.6 -104.4 Q6.85 -104.45 7.7 -104.85 L8.7 -105.15 8.75 -104.75 8.65 -104.25 7.6 -103.85 5.65 -103.0 5.0 -102.75 M40.1 -107.7 L40.95 -108.45 41.4 -109.2 42.3 -109.95 42.9 -110.7 44.05 -111.4 45.2 -111.75 46.1 -111.6 47.5 -111.75 48.15 -111.7 48.15 -111.45 Q48.15 -111.1 46.3 -110.5 44.2 -109.8 43.7 -109.35 41.25 -107.4 40.5 -107.4 L40.25 -107.4 Q40.1 -107.35 40.1 -107.7" fill="#000000" fill-rule="evenodd" stroke="none"/>
  </g>
  <defs>
    <linearGradient gradientTransform="matrix(0.0268, 0.0662, -0.9259, 0.3748, 235.3, -170.0)" gradientUnits="userSpaceOnUse" id="gradient0" spreadMethod="pad" x1="-819.2" x2="819.2">
      <stop offset="0.0" stop-color="#283f71"/>
      <stop offset="1.0" stop-color="#182645"/>
    </linearGradient>
  </defs>
</svg>
