<?xml version="1.0" encoding="UTF-8" standalone="no"?>
<svg xmlns:xlink="http://www.w3.org/1999/xlink" height="28.8px" width="35.85px" xmlns="http://www.w3.org/2000/svg">
  <g transform="matrix(1.0, 0.0, 0.0, 1.0, 48.45, 38.4)">
    <path d="M-44.3 -37.8 L-44.5 -37.9 -45.45 -37.85 -46.8 -37.5 -48.2 -36.45 -48.35 -36.5 -48.4 -36.45 -48.45 -36.7 Q-48.45 -37.3 -46.95 -37.85 L-43.25 -38.4 -39.95 -38.1 -37.65 -37.55 Q-37.4 -37.55 -37.25 -37.75 L-37.05 -37.95 -35.85 -37.95 -33.1 -37.8 -27.8 -38.25 Q-27.1 -38.55 -26.45 -37.8 L-25.65 -38.15 Q-25.3 -38.15 -24.95 -37.65 L-26.3 -37.1 Q-26.75 -37.1 -27.0 -37.4 L-27.2 -37.8 -27.65 -37.5 -27.9 -37.25 -33.15 -37.1 -36.45 -37.4 -36.95 -37.2 Q-37.15 -37.05 -37.6 -37.05 L-40.35 -37.65 -42.8 -37.95 -44.3 -37.8" fill="#26d9d9" fill-rule="evenodd" stroke="none"/>
    <path d="M-21.5 -10.4 L-21.6 -10.8 -21.6 -10.95 -20.7 -10.85 -17.7 -10.65 -13.65 -10.35 Q-12.8 -10.25 -12.6 -9.95 -12.75 -9.6 -13.05 -9.6 -14.1 -9.6 -14.75 -9.95 L-16.8 -10.05 -18.75 -9.9 -20.4 -10.05 -21.5 -10.4" fill="#26d9d9" fill-rule="evenodd" stroke="none"/>
  </g>
</svg>
