<?xml version="1.0" encoding="UTF-8" standalone="no"?>
<svg xmlns:xlink="http://www.w3.org/1999/xlink" height="35.0px" width="62.1px" xmlns="http://www.w3.org/2000/svg">
  <g transform="matrix(1.0, 0.0, 0.0, 1.0, 1.2, 56.0)">
    <path d="M8.55 -55.4 L6.6 -55.35 2.7 -55.2 1.85 -55.2 Q1.15 -54.35 0.0 -54.0 L-0.55 -53.6 Q-0.8 -53.3 -0.65 -52.95 L-0.75 -52.7 -1.2 -53.45 Q-1.2 -53.8 -0.2 -54.35 L0.95 -54.95 1.95 -55.6 4.9 -56.0 Q8.2 -56.0 8.55 -55.4" fill="#26d9d9" fill-rule="evenodd" stroke="none"/>
    <path d="M59.1 -28.0 Q59.6 -29.2 60.9 -28.95 L60.0 -28.05 Q59.3 -27.4 59.4 -26.55 59.5 -25.85 58.65 -24.15 L58.4 -22.7 Q58.3 -21.95 57.9 -21.8 L55.8 -21.6 55.55 -21.35 54.15 -21.15 53.55 -21.0 53.4 -21.0 53.4 -21.2 54.05 -21.65 Q54.9 -21.8 55.25 -22.05 L56.0 -22.35 56.35 -22.25 57.45 -22.5 Q58.05 -22.5 58.05 -24.3 L58.8 -26.0 Q58.75 -27.2 59.1 -28.0" fill="#26d9d9" fill-rule="evenodd" stroke="none"/>
  </g>
</svg>
