<?xml version="1.0" encoding="UTF-8" standalone="no"?>
<svg xmlns:xlink="http://www.w3.org/1999/xlink" height="37.0px" width="50.55px" xmlns="http://www.w3.org/2000/svg">
  <g transform="matrix(1.0, 0.0, 0.0, 1.0, -5.55, 55.8)">
    <path d="M8.75 -55.65 Q8.35 -55.05 6.75 -55.05 5.55 -55.05 5.55 -55.8 L8.6 -55.8 8.75 -55.65" fill="#26d9d9" fill-rule="evenodd" stroke="none"/>
    <path d="M56.1 -21.6 Q56.1 -21.3 55.6 -21.15 L53.7 -21.0 Q52.85 -20.9 52.65 -20.5 L52.05 -20.1 51.55 -20.25 51.0 -20.4 50.3 -19.95 49.7 -20.1 49.25 -20.25 48.5 -19.65 47.6 -19.65 Q47.25 -19.65 47.0 -19.25 46.8 -18.9 45.65 -18.95 L43.8 -18.8 43.55 -18.8 43.5 -19.05 Q43.5 -19.45 44.2 -19.55 L46.1 -19.65 Q46.55 -19.65 46.75 -19.9 L47.1 -20.3 47.7 -20.35 48.15 -20.3 Q48.75 -20.3 48.75 -20.85 L50.0 -20.7 Q50.35 -20.7 50.55 -20.95 L50.85 -21.2 51.75 -20.85 52.3 -21.25 54.0 -21.6 55.15 -21.75 55.95 -21.8 Q56.1 -22.0 56.1 -21.6" fill="#26d9d9" fill-rule="evenodd" stroke="none"/>
  </g>
</svg>
