<?xml version="1.0" encoding="UTF-8" standalone="no"?>
<svg xmlns:xlink="http://www.w3.org/1999/xlink" height="32.45px" width="41.65px" xmlns="http://www.w3.org/2000/svg">
  <g transform="matrix(1.0, 0.0, 0.0, 1.0, -23.15, 24.8)">
    <path d="M59.85 -22.25 Q59.85 -23.05 60.8 -23.65 L61.95 -24.35 Q62.55 -25.1 63.7 -24.55 64.8 -24.0 64.8 -23.1 L64.5 -21.6 64.35 -21.6 64.0 -23.25 Q63.75 -24.15 63.35 -24.15 L62.3 -24.0 Q62.3 -23.7 62.1 -23.55 L61.2 -23.25 Q60.8 -23.1 60.6 -22.75 60.4 -22.4 60.5 -22.05 L60.15 -21.8 Q59.85 -22.0 59.85 -22.25 M24.6 6.8 L25.9 6.35 28.25 6.2 28.3 6.15 28.35 6.35 27.95 6.8 25.7 7.2 23.7 7.65 23.25 7.65 23.15 7.4 23.3 7.1 23.45 6.9 24.6 6.8" fill="#26d9d9" fill-rule="evenodd" stroke="none"/>
  </g>
</svg>
