<?xml version="1.0" encoding="UTF-8" standalone="no"?>
<svg xmlns:xlink="http://www.w3.org/1999/xlink" height="179.2px" width="46.75px" xmlns="http://www.w3.org/2000/svg">
  <g transform="matrix(1.0, 0.0, 0.0, 1.0, -3.25, -4.6)">
    <path d="M49.85 6.2 Q50.85 22.65 46.0 38.3 L45.8 38.95 Q41.15 53.85 41.2 69.55 L41.2 70.55 Q41.35 84.4 40.55 98.1 L40.1 105.1 Q39.3 114.8 35.9 124.2 L35.8 124.5 Q30.9 137.6 34.35 150.5 35.1 153.35 36.25 156.2 40.05 165.65 43.3 174.8 L28.5 183.8 Q19.9 173.55 19.2 160.35 L19.2 159.65 Q18.5 146.55 20.55 133.4 L21.05 129.8 Q22.9 113.9 19.6 98.3 L18.9 95.5 Q15.8 83.1 11.35 70.85 L9.55 65.55 Q3.8 47.45 3.3 28.5 3.15 23.8 3.4 19.05 L4.1 4.6 49.55 4.6 49.85 6.2" fill="#000000" fill-opacity="0.101960786" fill-rule="evenodd" stroke="none"/>
  </g>
</svg>
