<?xml version="1.0" encoding="UTF-8" standalone="no"?>
<svg xmlns:xlink="http://www.w3.org/1999/xlink" height="179.2px" width="46.55px" xmlns="http://www.w3.org/2000/svg">
  <g transform="matrix(1.0, 0.0, 0.0, 1.0, -3.5, -4.6)">
    <path d="M49.85 6.2 Q50.9 22.65 46.15 38.35 L45.95 39.0 Q41.4 53.95 41.35 69.6 L41.3 70.6 Q41.35 84.55 40.5 98.2 L39.95 105.2 Q39.05 114.9 35.6 124.25 L35.45 124.55 Q30.5 137.6 34.2 150.55 35.0 153.4 36.15 156.2 40.05 165.7 43.3 174.8 L28.5 183.8 Q19.9 173.55 19.15 160.35 L19.1 159.65 Q18.35 146.6 20.25 133.45 L20.7 129.85 Q22.4 113.9 19.35 98.3 L18.75 95.5 Q15.8 83.1 11.6 70.8 L9.9 65.5 Q4.4 47.35 3.6 28.45 3.4 23.75 3.6 19.05 3.75 11.7 4.15 4.6 L49.55 4.6 49.85 6.2" fill="#000000" fill-opacity="0.101960786" fill-rule="evenodd" stroke="none"/>
  </g>
</svg>
