<?xml version="1.0" encoding="UTF-8" standalone="no"?>
<svg xmlns:xlink="http://www.w3.org/1999/xlink" height="179.2px" width="46.1px" xmlns="http://www.w3.org/2000/svg">
  <g transform="matrix(1.0, 0.0, 0.0, 1.0, -4.0, -4.6)">
    <path d="M49.85 6.2 Q51.0 22.7 46.6 38.5 L46.4 39.15 Q42.15 54.2 41.7 69.9 L41.7 70.9 Q41.35 84.95 40.2 98.45 L39.5 105.5 Q38.35 115.15 34.65 124.45 L34.55 124.75 Q29.35 137.7 33.75 150.7 34.65 153.5 35.85 156.3 40.1 165.9 43.3 174.8 L28.5 183.8 Q19.95 173.6 18.9 160.4 L18.9 159.7 Q17.95 146.75 19.4 133.5 L19.7 129.85 Q20.95 113.85 18.65 98.3 L18.15 95.5 Q15.9 83.15 12.3 70.65 L10.8 65.3 Q6.1 47.05 4.55 28.25 4.15 23.55 4.15 18.95 3.9 11.5 4.15 4.6 L49.55 4.6 49.85 6.2" fill="#000000" fill-opacity="0.101960786" fill-rule="evenodd" stroke="none"/>
  </g>
</svg>
