<?xml version="1.0" encoding="UTF-8" standalone="no"?>
<svg xmlns:xlink="http://www.w3.org/1999/xlink" height="179.2px" width="45.95px" xmlns="http://www.w3.org/2000/svg">
  <g transform="matrix(1.0, 0.0, 0.0, 1.0, -4.2, -4.6)">
    <path d="M49.85 6.2 L49.85 6.25 Q51.1 22.75 47.0 38.65 L46.85 39.3 Q42.9 54.5 42.1 70.15 L42.05 71.15 Q41.35 85.35 39.95 98.75 L39.05 105.75 Q37.65 115.4 33.75 124.65 L33.6 124.95 Q28.15 137.8 33.25 150.85 L35.55 156.35 Q40.15 166.05 43.3 174.8 L28.5 183.8 Q19.95 173.6 18.7 160.45 L18.7 159.75 Q17.55 146.95 18.5 133.55 L18.7 129.9 Q19.45 113.85 17.95 98.35 L17.6 95.5 Q15.95 83.2 12.95 70.55 L11.75 65.15 Q7.8 46.75 5.45 28.05 4.85 23.4 4.7 18.85 4.1 11.3 4.2 4.6 L49.55 4.6 49.85 6.2" fill="#000000" fill-opacity="0.101960786" fill-rule="evenodd" stroke="none"/>
  </g>
</svg>
