<?xml version="1.0" encoding="UTF-8" standalone="no"?>
<svg xmlns:xlink="http://www.w3.org/1999/xlink" height="179.2px" width="46.3px" xmlns="http://www.w3.org/2000/svg">
  <g transform="matrix(1.0, 0.0, 0.0, 1.0, -4.4, -4.6)">
    <path d="M49.85 6.2 L49.85 6.3 Q51.7 23.1 49.45 39.5 L49.35 40.2 Q47.2 56.1 44.35 71.6 L44.15 72.7 Q41.35 87.6 38.4 100.35 L36.5 107.4 Q33.6 116.75 28.5 125.75 L28.3 126.05 Q21.5 138.25 30.6 151.7 L33.9 156.75 Q40.5 167.05 43.3 174.8 L28.5 183.8 Q20.05 173.75 17.55 160.75 L17.45 160.05 Q15.2 147.9 13.5 133.8 L13.05 130.15 Q11.05 113.75 13.95 98.4 L14.45 95.45 Q16.4 83.55 16.9 69.8 L17.1 64.1 Q17.5 45.0 10.7 26.9 9.0 22.4 7.8 18.4 5.05 10.15 4.4 4.6 L49.55 4.6 49.85 6.2" fill="#000000" fill-opacity="0.101960786" fill-rule="evenodd" stroke="none"/>
  </g>
</svg>
