<?xml version="1.0" encoding="UTF-8" standalone="no"?>
<svg xmlns:xlink="http://www.w3.org/1999/xlink" height="179.2px" width="46.4px" xmlns="http://www.w3.org/2000/svg">
  <g transform="matrix(1.0, 0.0, 0.0, 1.0, -4.45, -4.6)">
    <path d="M49.85 6.2 L49.85 6.3 Q51.8 23.2 49.9 39.65 L49.8 40.35 Q47.95 56.4 44.7 71.85 L44.55 72.95 Q41.35 88.0 38.15 100.65 L36.05 107.7 Q32.9 117.0 27.55 125.95 L27.35 126.25 Q20.35 138.3 30.1 151.85 L33.6 156.85 Q40.6 167.25 43.3 174.8 L28.5 183.8 Q20.1 173.8 17.3 160.8 L17.2 160.1 Q14.8 148.1 12.6 133.85 L12.05 130.2 Q9.55 113.75 13.25 98.4 L13.9 95.45 Q16.45 83.6 17.6 69.65 L18.05 63.9 Q19.25 44.7 11.65 26.7 9.75 22.2 8.35 18.35 5.25 9.95 4.45 4.6 L49.55 4.6 49.85 6.2" fill="#000000" fill-opacity="0.101960786" fill-rule="evenodd" stroke="none"/>
  </g>
</svg>
