<?xml version="1.0" encoding="UTF-8" standalone="no"?>
<svg xmlns:xlink="http://www.w3.org/1999/xlink" height="201.0px" width="918.0px" xmlns="http://www.w3.org/2000/svg">
  <g transform="matrix(1.0, 0.0, 0.0, 1.0, 0.0, 0.0)">
    <path d="M415.0 0.0 Q404.2 17.15 387.0 25.1 373.9 31.15 352.95 33.2 L316.9 35.95 Q296.2 38.25 283.0 45.0 267.6 52.5 250.85 57.95 234.1 63.4 209.0 69.0 207.85 69.25 202.2 72.8 196.15 76.6 185.55 79.25 150.45 88.0 56.0 88.0 L48.25 88.65 Q40.1 89.2 32.8 88.75 11.5 87.4 0.0 77.8 L0.0 73.7 Q5.3 68.25 13.05 67.55 L40.5 69.2 Q100.55 74.45 179.0 62.0 231.35 54.7 263.0 40.0 277.95 30.1 298.85 25.05 312.3 21.75 337.85 18.9 365.6 15.75 377.45 13.3 399.25 8.8 415.0 0.0 M420.2 177.05 Q425.9 175.45 441.55 169.75 475.95 157.25 509.0 152.0 L521.2 145.65 Q530.85 140.45 539.45 137.9 566.7 129.7 601.0 141.0 606.75 142.85 615.0 147.35 L629.95 155.65 Q649.65 166.25 666.0 168.0 742.0 177.35 767.55 178.55 781.65 179.2 804.6 179.2 L862.0 179.0 Q862.0 180.65 860.5 183.4 859.0 186.15 859.0 187.0 821.8 187.6 789.0 190.4 L758.0 193.0 Q753.0 193.0 745.5 188.5 738.0 184.0 733.0 184.0 L683.85 182.0 652.0 180.0 Q632.95 179.0 621.25 175.9 613.6 173.9 606.05 169.9 598.15 165.6 594.0 164.4 585.95 162.0 572.5 162.0 526.2 162.0 495.65 165.9 476.4 168.35 452.35 174.5 427.3 180.9 411.9 183.1 384.5 187.0 343.5 187.0 337.25 187.0 337.0 184.5 336.85 183.25 338.0 182.0 335.9 184.1 322.85 185.15 L295.0 186.0 Q271.0 185.45 227.95 179.65 186.25 174.0 180.0 174.0 172.25 174.0 155.25 180.5 138.25 187.0 132.0 187.0 118.35 187.0 104.95 189.2 99.35 190.1 81.3 194.0 48.95 201.0 16.0 201.0 7.95 201.0 0.0 199.0 L0.0 184.5 5.35 183.65 72.0 173.0 130.0 162.4 176.0 154.0 Q182.7 154.0 205.0 157.25 224.4 160.1 234.0 162.0 L274.3 167.9 312.0 173.0 356.0 176.5 400.0 180.0 Q409.5 180.0 420.2 177.05 M473.95 84.25 Q483.3 76.75 500.15 62.4 514.1 51.1 523.0 48.0 534.6 45.7 562.95 51.5 592.15 57.5 613.0 67.0 616.35 68.5 621.05 75.05 626.7 83.45 630.1 87.9 643.4 105.0 660.0 105.0 689.65 105.0 704.55 101.4 714.25 99.1 721.8 93.5 729.95 87.5 736.15 85.6 747.8 82.0 772.0 82.0 851.75 82.0 887.2 94.75 896.25 98.0 906.1 103.95 913.65 108.5 918.0 109.0 L902.0 110.0 Q896.65 110.0 892.5 106.15 L889.6 103.65 Q888.0 102.65 886.0 103.0 L867.35 107.4 Q851.2 111.0 845.0 111.0 782.2 111.0 753.25 114.9 733.45 117.55 723.55 123.5 L716.05 128.1 Q711.3 130.6 704.85 132.1 688.05 136.0 646.0 136.0 636.55 136.0 622.6 129.75 618.35 127.85 595.85 116.0 578.05 106.6 565.55 102.25 547.7 96.0 531.5 96.0 512.8 96.0 492.75 103.2 479.0 108.1 458.8 119.0 434.85 131.95 428.35 134.8 412.15 142.0 400.0 142.0 395.0 142.0 376.0 137.5 357.0 133.0 352.0 133.0 338.05 133.0 335.8 134.4 335.05 134.85 335.0 135.85 334.95 137.0 334.45 137.5 330.05 142.0 264.0 142.0 L208.0 137.5 152.0 133.0 Q121.25 133.0 62.0 156.0 32.35 167.5 8.0 179.0 L0.0 178.65 0.0 157.45 Q7.35 155.55 19.15 147.4 L34.5 136.5 Q44.85 129.3 53.95 124.0 112.05 90.0 194.0 90.0 L263.0 86.5 332.0 83.0 Q340.0 83.0 351.15 87.7 358.1 90.6 371.5 98.0 385.35 105.65 391.5 108.3 402.2 113.0 409.5 113.0 426.25 113.0 443.9 104.25 457.3 97.6 473.95 84.25" fill="#000000" fill-opacity="0.101960786" fill-rule="evenodd" stroke="none"/>
  </g>
</svg>
