<?xml version="1.0" encoding="UTF-8" standalone="no"?>
<svg xmlns:xlink="http://www.w3.org/1999/xlink" height="28.9px" width="20.25px" xmlns="http://www.w3.org/2000/svg">
  <g transform="matrix(1.0, 0.0, 0.0, 1.0, 0.0, 0.0)">
    <path d="M2.2 0.9 L3.2 2.0 3.3 2.2 3.5 2.3 3.65 2.6 3.8 2.9 4.0 3.15 4.6 4.3 5.45 6.65 5.85 9.1 5.85 9.15 5.85 9.25 5.8 9.4 5.7 9.45 Q5.2 9.1 4.9 9.05 L4.0 8.65 2.9 7.85 1.3 6.3 Q0.0 4.9 0.0 2.8 0.0 1.1 0.55 0.1 L0.55 0.05 0.6 0.05 0.6 0.0 0.7 0.05 0.75 0.05 1.55 0.5 2.2 0.9 M19.35 25.75 L19.85 26.75 20.25 28.75 20.1 28.8 20.1 28.85 19.85 28.9 Q19.15 28.9 18.15 28.3 L17.45 28.0 16.95 27.6 Q15.75 26.8 15.05 25.8 14.55 25.1 14.3 23.9 L14.0 22.0 14.0 21.25 14.1 21.25 14.1 21.3 14.35 21.35 14.5 21.6 15.05 21.95 16.1 22.85 18.45 24.75 19.35 25.75" fill="#fefdab" fill-rule="evenodd" stroke="none"/>
  </g>
</svg>
