<?xml version="1.0" encoding="UTF-8" standalone="no"?>
<svg xmlns:xlink="http://www.w3.org/1999/xlink" height="246.6px" width="177.25px" xmlns="http://www.w3.org/2000/svg">
  <g transform="matrix(1.0, 0.0, 0.0, 1.0, 0.0, 0.0)">
    <path d="M18.35 229.8 Q18.65 229.8 19.45 229.4 L15.55 228.7 8.3 226.8 6.6 226.4 8.9 228.4 Q11.25 229.5 18.35 229.8 M96.35 189.25 L96.45 189.05 96.25 189.1 96.35 189.25 M57.7 142.05 L56.15 141.55 56.15 141.7 56.75 143.4 59.1 142.75 57.7 142.05 M162.05 40.25 L162.05 40.4 Q162.05 42.0 160.55 42.15 L160.4 40.9 155.95 42.45 Q147.05 45.65 142.05 48.0 140.15 48.9 136.6 53.95 L130.55 62.5 Q128.0 65.5 125.3 70.0 L121.1 77.35 Q117.6 82.25 116.2 84.95 L114.8 88.9 113.8 91.1 115.25 91.05 Q117.35 89.95 120.95 89.0 L131.75 86.05 136.5 84.35 Q139.6 83.15 141.25 82.75 L143.25 82.0 149.5 81.55 154.8 80.9 161.1 80.45 161.15 80.25 161.8 80.05 162.25 80.45 Q164.15 84.45 164.25 90.8 163.95 97.8 164.15 101.05 164.35 103.8 165.55 111.55 166.65 118.15 166.75 121.95 166.9 135.95 167.2 142.55 L168.65 163.2 Q169.35 170.15 169.95 184.0 170.5 197.95 171.2 204.55 L171.85 214.85 Q172.15 221.45 172.6 225.2 173.65 232.95 173.7 235.5 L174.1 238.25 174.4 240.7 174.9 243.7 175.2 244.95 177.25 245.3 175.2 245.5 175.2 245.9 175.05 246.45 Q174.9 246.45 174.7 246.6 L173.7 245.45 Q168.75 245.5 162.45 243.85 153.4 241.45 146.35 236.95 L139.0 231.65 Q133.4 228.1 129.45 226.25 119.1 221.55 113.25 214.0 107.65 206.65 107.9 199.35 L108.5 192.5 108.65 188.85 105.3 187.55 103.4 186.3 99.9 187.7 97.9 188.5 Q96.7 190.95 93.3 194.7 L87.55 201.05 81.55 207.1 Q78.15 210.65 76.95 213.15 76.95 215.45 75.05 218.7 L71.05 224.45 Q69.9 226.1 68.05 227.45 66.0 229.2 63.75 229.75 63.55 229.75 60.95 230.9 L63.45 230.75 Q64.35 230.7 64.0 231.25 63.5 232.5 61.3 233.5 L57.65 234.5 Q55.7 235.6 53.7 236.05 L43.0 236.7 38.6 236.15 39.55 238.0 Q42.1 241.1 47.35 241.35 L50.1 241.3 50.15 241.9 Q48.5 243.35 44.15 243.4 35.55 242.15 32.2 239.45 30.05 236.25 28.75 235.1 27.65 234.1 25.2 230.45 L23.8 228.3 21.85 229.55 22.35 229.75 21.8 229.75 21.5 229.6 Q15.25 232.65 7.45 229.3 L4.15 226.25 2.9 225.0 1.45 224.1 Q1.05 223.4 0.8 222.45 L0.1 222.45 0.0 222.3 0.7 222.25 0.5 219.9 Q0.75 217.5 3.05 212.9 L3.35 211.2 3.35 210.25 3.55 206.25 3.6 205.8 3.5 203.15 3.5 198.65 Q3.6 196.25 4.8 191.25 5.8 186.85 6.6 184.45 7.55 181.75 10.0 177.35 L12.25 173.7 Q13.85 171.7 16.25 170.4 L16.3 170.9 Q16.3 171.55 15.5 172.85 14.85 174.0 14.8 174.7 L14.8 174.75 15.1 174.7 16.8 172.0 Q17.7 170.35 17.7 169.4 L17.15 167.55 17.2 164.95 Q17.35 162.5 17.75 161.1 L18.2 158.9 Q18.6 157.5 20.05 157.1 L20.3 157.6 Q19.85 164.2 20.05 165.9 22.65 161.8 25.25 161.7 L25.55 162.15 23.75 165.4 Q22.2 167.55 22.15 168.55 L22.2 168.55 Q25.25 167.05 26.25 164.4 26.85 162.95 26.95 159.7 L26.6 151.55 Q26.7 148.2 28.25 145.6 31.3 141.0 38.7 141.3 41.45 141.45 44.8 143.65 L49.45 146.9 50.95 146.4 Q51.8 146.0 51.85 145.05 51.8 143.8 50.85 142.0 49.55 140.2 49.65 139.3 L50.0 137.95 Q50.75 136.5 53.5 136.75 L57.9 137.6 Q62.1 138.1 62.45 136.5 L62.65 134.0 Q63.5 131.25 64.25 130.1 L63.75 123.85 Q63.35 119.4 63.4 116.55 63.5 113.7 65.75 108.5 L68.75 100.7 Q70.75 93.1 75.9 84.6 79.4 78.75 87.35 68.7 L99.3 52.75 104.7 44.65 Q107.55 40.15 108.55 36.85 111.65 27.3 116.15 20.85 122.55 11.85 133.25 5.75 L135.65 4.45 144.95 2.7 Q152.35 0.8 155.9 0.35 L158.35 0.0 158.95 0.0 159.0 0.6 159.25 6.3 159.7 11.85 Q160.1 15.55 159.85 17.5 159.65 19.95 160.9 28.1 161.9 35.25 162.0 38.8 L164.9 38.2 166.95 38.6 Q164.25 39.35 162.05 40.25" fill="#000000" fill-rule="evenodd" stroke="none"/>
  </g>
</svg>
