<?xml version="1.0" encoding="UTF-8" standalone="no"?>
<svg xmlns:xlink="http://www.w3.org/1999/xlink" height="196.6px" width="121.95px" xmlns="http://www.w3.org/2000/svg">
  <g transform="matrix(1.0, 0.0, 0.0, 1.0, 205.0, 51.4)">
    <path d="M-166.45 -39.75 L-166.3 -42.1 -165.7 -43.3 -164.6 -44.45 Q-163.6 -45.2 -162.45 -46.65 L-161.65 -47.8 -161.5 -47.95 -161.6 -48.2 Q-161.6 -48.65 -160.45 -49.0 L-158.45 -49.65 -157.75 -49.8 -157.15 -49.95 -156.65 -50.25 -155.0 -50.9 -153.8 -50.7 Q-153.1 -50.7 -152.6 -51.05 L-152.15 -51.4 -148.7 -51.15 -147.65 -50.9 -146.25 -50.6 -144.9 -50.2 -144.15 -50.1 -143.4 -49.95 -143.4 -50.0 -143.0 -50.1 -142.6 -49.9 -138.9 -50.0 Q-136.8 -50.0 -135.15 -48.0 -134.7 -47.3 -134.75 -46.65 L-134.85 -45.8 -134.35 -44.7 -134.05 -44.45 -132.8 -42.55 Q-132.3 -41.6 -132.15 -40.65 L-132.1 -39.95 -131.7 -39.2 -131.4 -38.4 -131.4 -37.85 -131.65 -36.7 -131.35 -35.8 -131.05 -34.9 -130.9 -33.1 -131.1 -31.45 -131.05 -31.35 -130.7 -30.1 -130.35 -29.05 -130.35 -29.1 -130.3 -28.35 -130.2 -27.6 Q-130.2 -26.3 -130.55 -25.45 L-130.8 -23.3 -130.75 -20.5 -131.4 -18.3 -134.35 -8.1 -134.65 -7.25 -134.6 -6.9 -135.0 -6.25 -134.8 -6.2 -134.8 -6.3 -134.2 -6.25 -133.65 -6.1 -133.4 -6.1 -130.5 -5.6 -126.3 -4.7 -125.55 -4.6 -125.5 -4.45 -125.4 -4.35 -125.35 -5.4 -125.35 -5.95 -124.9 -6.45 -123.5 -6.15 -122.4 -5.6 -120.35 -4.7 -118.75 -3.85 -116.95 -2.7 -116.3 -2.15 Q-115.85 -1.95 -115.35 -1.45 L-113.7 0.15 -111.1 3.25 Q-109.25 5.6 -108.9 6.35 L-107.1 9.45 -103.55 15.4 Q-100.55 20.75 -100.55 21.65 L-100.55 21.75 Q-100.2 22.4 -100.2 22.75 -100.2 23.5 -102.95 26.1 L-104.05 27.15 -103.9 27.55 -103.35 28.4 -102.7 30.15 -101.4 33.65 -99.4 40.6 -97.75 47.45 Q-96.9 51.6 -96.9 54.5 L-96.95 55.0 -96.9 55.35 Q-96.9 55.9 -97.25 57.45 L-97.7 59.25 -99.6 63.1 -99.75 63.5 -98.9 63.6 -96.3 63.75 -95.85 63.9 -94.9 64.1 Q-94.2 64.35 -92.4 65.25 -89.0 66.9 -86.85 68.4 -85.05 69.65 -83.95 72.45 -83.05 74.7 -83.05 76.25 -83.05 77.65 -84.2 82.5 L-85.1 85.6 -86.15 87.85 -86.85 89.1 -88.35 92.0 Q-89.6 93.95 -92.8 97.85 L-95.55 100.85 -98.35 103.75 -101.2 106.6 -104.1 109.55 -114.6 121.25 -117.15 124.1 -119.7 127.1 -122.4 129.9 Q-123.9 131.45 -124.3 132.55 L-123.45 133.45 -121.45 135.05 Q-120.2 136.35 -120.2 138.2 L-120.25 139.55 -120.95 140.95 -121.2 141.25 -121.9 141.7 -123.2 142.05 -126.45 142.55 -130.8 142.9 -136.65 142.8 -138.45 142.6 -139.4 142.55 -140.45 142.25 -143.15 141.5 -146.05 139.8 -152.5 135.1 -155.5 132.85 Q-157.3 131.55 -159.3 130.75 L-161.2 130.1 Q-162.55 129.55 -163.0 128.95 L-163.75 127.85 -163.75 126.7 -163.45 123.85 Q-163.15 122.7 -162.05 120.65 -161.35 119.3 -159.35 117.65 L-156.2 114.65 -152.7 111.65 -149.15 108.65 -147.85 107.15 -146.5 105.65 -143.85 102.85 -144.95 102.5 -145.6 102.0 -147.05 102.15 -147.05 102.25 -148.45 102.1 -149.4 102.3 -153.65 102.45 -154.9 102.55 -155.15 102.7 -157.55 102.85 -161.3 102.7 -161.3 102.6 -163.45 102.45 -164.95 102.35 -166.55 102.25 -168.7 102.45 -169.4 102.65 -170.9 106.8 Q-171.3 108.05 -171.35 109.25 L-171.35 111.65 -171.1 116.65 -170.0 122.35 -168.9 127.7 -168.85 129.0 -168.65 130.4 Q-168.2 131.6 -168.15 132.75 L-168.05 133.4 -167.3 134.6 -165.6 137.15 -164.35 139.25 Q-163.15 141.45 -163.15 142.1 L-163.45 143.2 -163.8 144.1 Q-164.75 145.2 -169.8 145.2 L-180.65 144.9 -183.2 144.4 -186.2 143.7 -187.75 142.9 -188.6 141.9 -188.7 140.9 -188.8 139.0 -188.45 136.2 -188.0 133.8 -187.75 128.95 Q-187.75 126.35 -188.45 123.65 -189.25 120.75 -190.7 118.6 -193.5 114.45 -194.4 113.4 L-196.2 110.9 -197.9 108.25 Q-199.1 106.5 -200.75 102.45 L-202.45 97.95 -203.1 95.35 -203.45 92.8 Q-204.8 88.75 -204.8 87.6 L-204.75 87.1 -205.0 84.75 -204.65 82.65 -204.0 81.1 -203.1 79.35 Q-202.55 78.15 -201.9 77.5 L-200.95 76.35 -201.15 75.3 -201.1 73.35 -201.1 71.35 -201.35 69.4 Q-201.35 65.2 -200.8 63.75 L-200.3 60.95 -200.0 59.55 -200.0 58.8 -199.75 58.3 -200.15 56.75 -200.75 54.8 -201.15 53.75 -201.4 52.0 Q-201.75 50.45 -201.75 48.5 L-201.9 41.65 Q-201.9 35.55 -201.5 31.85 -201.5 30.25 -200.7 26.95 L-200.2 24.5 -199.85 23.3 -199.85 23.2 Q-202.1 22.65 -203.1 22.05 -204.15 21.4 -204.15 20.45 -204.15 19.2 -202.65 15.75 -201.45 12.7 -200.15 11.1 L-196.85 6.4 -195.35 4.05 -193.55 1.7 -189.6 -3.0 -187.55 -5.25 -187.3 -5.45 -187.3 -5.35 -186.7 -5.85 Q-186.0 -6.4 -183.35 -7.25 L-178.95 -8.7 -176.55 -9.45 -175.45 -9.55 -175.2 -9.5 Q-174.9 -9.4 -174.9 -9.05 L-174.55 -8.2 Q-174.1 -8.55 -173.1 -8.5 L-172.95 -8.7 -171.9 -9.0 -169.2 -9.55 -167.2 -9.8 -163.9 -10.9 -162.85 -11.45 -162.25 -11.6 -162.05 -11.9 -161.3 -12.9 -162.15 -14.0 -162.9 -14.65 -163.2 -15.2 -163.8 -15.75 -164.45 -16.15 Q-165.0 -16.65 -165.0 -17.4 L-164.8 -18.1 -164.6 -18.9 -164.7 -19.35 Q-165.75 -19.05 -166.35 -19.9 -166.85 -20.5 -166.85 -21.15 L-166.3 -22.95 -167.3 -24.1 Q-168.35 -25.05 -168.35 -26.0 -168.35 -26.7 -167.8 -27.45 -167.25 -28.15 -167.25 -29.1 -167.25 -29.5 -167.4 -29.6 L-168.0 -30.25 -168.2 -31.05 Q-168.7 -30.5 -169.1 -30.5 -169.75 -30.5 -169.95 -30.9 L-170.05 -31.35 -170.05 -31.45 -170.05 -31.5 -170.05 -32.05 Q-170.05 -33.2 -169.7 -33.8 L-167.9 -35.9 Q-167.0 -36.85 -166.7 -37.9 L-166.4 -38.85 -166.45 -39.75 M-162.55 -26.55 L-163.05 -25.65 Q-163.45 -25.1 -163.45 -23.4 -163.45 -21.8 -162.4 -20.15 -161.5 -18.7 -160.2 -17.85 L-160.0 -17.9 -159.8 -17.6 -159.4 -17.4 -158.55 -16.75 -158.3 -17.95 Q-158.3 -19.15 -159.25 -20.15 L-160.65 -21.7 -161.3 -22.6 -162.05 -23.6 Q-162.65 -24.8 -162.65 -25.45 L-162.55 -26.55 M-140.15 -37.55 L-142.05 -37.15 -142.4 -37.15 -142.3 -35.95 Q-142.3 -34.85 -143.1 -33.75 -143.85 -32.75 -144.65 -32.45 L-145.3 -32.45 -145.35 -32.8 -144.65 -33.4 -143.65 -34.25 Q-143.25 -34.9 -143.25 -35.95 L-143.55 -37.15 -146.25 -37.5 -148.85 -37.9 Q-150.4 -37.9 -151.25 -35.7 L-151.85 -33.25 Q-152.45 -30.0 -152.45 -28.75 L-152.25 -27.0 -152.1 -25.5 Q-152.1 -24.6 -152.45 -23.35 L-152.85 -21.65 -152.7 -20.6 -152.2 -19.3 Q-151.7 -17.95 -149.35 -17.25 L-149.35 -17.4 -149.15 -17.5 -149.2 -17.35 -148.7 -15.2 -148.1 -13.3 -147.05 -11.2 Q-146.15 -9.75 -145.3 -9.45 L-145.2 -9.25 -143.55 -9.0 -142.25 -8.6 Q-141.75 -8.6 -140.75 -9.6 L-139.7 -10.85 -140.0 -11.1 -141.55 -11.15 -141.6 -11.45 Q-141.6 -11.6 -140.45 -11.95 -139.35 -12.25 -139.35 -12.6 -139.35 -13.0 -139.9 -13.25 L-142.4 -13.15 -142.5 -13.1 -142.8 -13.15 Q-143.5 -13.25 -143.6 -13.6 L-143.7 -14.3 -143.2 -14.95 -142.0 -16.4 Q-141.25 -17.15 -140.15 -17.5 L-139.95 -17.6 -141.75 -19.0 Q-142.6 -19.7 -142.6 -20.25 -142.6 -20.95 -141.4 -21.85 -140.05 -22.9 -138.5 -22.9 -137.05 -22.9 -137.2 -21.65 L-137.25 -21.15 -137.65 -20.55 -134.85 -20.55 Q-137.0 -23.6 -138.1 -28.1 L-138.95 -27.55 -139.8 -26.9 -140.35 -26.25 Q-140.85 -25.9 -142.05 -25.9 L-145.45 -26.15 -146.75 -26.4 -148.4 -26.6 -148.6 -26.9 Q-148.6 -27.7 -145.1 -28.8 -144.8 -28.9 -144.35 -29.15 L-143.15 -29.5 -142.2 -29.95 -138.45 -30.25 -136.05 -30.05 -135.5 -29.9 -135.45 -30.05 Q-135.45 -30.95 -136.3 -31.4 L-137.7 -31.85 Q-138.7 -32.25 -139.05 -32.6 L-139.3 -33.55 Q-139.3 -34.0 -138.7 -35.05 -138.15 -36.1 -138.15 -36.6 L-138.45 -37.25 -138.9 -36.65 Q-139.4 -35.45 -139.85 -35.45 L-140.3 -35.9 -140.45 -36.5 -140.05 -37.55 -140.15 -37.55 M-131.65 -32.6 L-131.6 -33.0 -131.9 -34.1 -132.15 -33.75 -132.1 -33.65 -131.65 -32.6 M-134.75 -25.65 L-135.5 -24.75 -135.65 -24.3 -135.1 -22.8 -134.5 -21.8 -134.1 -23.0 -133.8 -24.25 -134.05 -25.1 Q-134.35 -25.65 -134.75 -25.65 M-159.0 -12.4 Q-159.0 -10.1 -160.15 -6.55 L-160.95 -4.5 -159.6 -3.15 -158.45 -2.15 -157.2 -1.15 -155.1 0.8 -151.2 4.8 -149.95 6.3 -147.7 4.3 Q-145.4 1.75 -145.4 0.55 -145.4 0.25 -145.55 0.15 L-147.75 -0.25 -148.4 -0.4 -150.05 -0.9 Q-150.8 -1.15 -152.7 -2.1 L-153.45 -2.55 Q-154.35 -3.25 -154.45 -4.4 L-154.45 -6.5 Q-154.8 -8.35 -156.1 -10.55 L-156.95 -11.65 -157.5 -12.4 -159.1 -13.7 -159.0 -12.4 M-121.25 41.5 L-122.5 38.05 -123.45 36.25 -124.45 34.6 -126.5 29.95 -126.7 30.45 Q-126.95 31.55 -128.8 35.35 L-134.2 45.1 Q-137.85 50.75 -138.75 54.85 -139.85 59.95 -139.75 63.65 L-139.4 64.0 Q-138.05 63.5 -137.0 63.35 L-132.2 63.05 -125.2 62.55 -119.0 62.15 -118.95 62.3 -118.05 60.75 -116.05 57.1 Q-115.6 56.45 -115.45 55.2 L-115.3 54.5 -115.7 53.55 -116.5 51.85 -118.1 48.35 -119.85 44.9 -121.25 41.5" fill="#000000" fill-rule="evenodd" stroke="none"/>
    <path d="M-134.75 -25.65 Q-134.35 -25.65 -134.05 -25.1 L-133.8 -24.25 -134.1 -23.0 -134.5 -21.8 -135.1 -22.8 -135.65 -24.3 -135.5 -24.75 -134.75 -25.65" fill="#663f6b" fill-rule="evenodd" stroke="none"/>
    <path d="M-140.15 -37.55 L-140.05 -37.55 -140.45 -36.5 -140.3 -35.9 -139.85 -35.45 Q-139.4 -35.45 -138.9 -36.65 L-138.45 -37.25 -138.15 -36.6 Q-138.15 -36.1 -138.7 -35.05 -139.3 -34.0 -139.3 -33.55 L-139.05 -32.6 Q-138.7 -32.25 -137.7 -31.85 L-136.3 -31.4 Q-135.45 -30.95 -135.45 -30.05 L-135.5 -29.9 -136.05 -30.05 -138.45 -30.25 -142.2 -29.95 -143.15 -29.5 -144.35 -29.15 Q-144.8 -28.9 -145.1 -28.8 -148.6 -27.7 -148.6 -26.9 L-148.4 -26.6 -146.75 -26.4 -145.45 -26.15 -142.05 -25.9 Q-140.85 -25.9 -140.35 -26.25 L-139.8 -26.9 -138.95 -27.55 -138.1 -28.1 Q-137.0 -23.6 -134.85 -20.55 L-137.65 -20.55 -137.25 -21.15 -137.2 -21.65 Q-137.05 -22.9 -138.5 -22.9 -140.05 -22.9 -141.4 -21.85 -142.6 -20.95 -142.6 -20.25 -142.6 -19.7 -141.75 -19.0 L-139.95 -17.6 -140.15 -17.5 Q-141.25 -17.15 -142.0 -16.4 L-143.2 -14.95 -143.7 -14.3 -143.6 -13.6 Q-143.5 -13.25 -142.8 -13.15 L-142.5 -13.1 -142.4 -13.15 -139.9 -13.25 Q-139.35 -13.0 -139.35 -12.6 -139.35 -12.25 -140.45 -11.95 -141.6 -11.6 -141.6 -11.45 L-141.55 -11.15 -140.0 -11.1 -139.7 -10.85 -140.75 -9.6 Q-141.75 -8.6 -142.25 -8.6 L-143.55 -9.0 -145.2 -9.25 -145.3 -9.45 Q-146.15 -9.75 -147.05 -11.2 L-148.1 -13.3 -148.7 -15.2 -149.2 -17.35 -149.15 -17.5 -149.35 -17.4 -149.35 -17.25 Q-151.7 -17.95 -152.2 -19.3 L-152.7 -20.6 -152.85 -21.65 -152.45 -23.35 Q-152.1 -24.6 -152.1 -25.5 L-152.25 -27.0 -152.45 -28.75 Q-152.45 -30.0 -151.85 -33.25 L-151.25 -35.7 Q-150.4 -37.9 -148.85 -37.9 L-146.25 -37.5 -143.55 -37.15 -143.25 -35.95 Q-143.25 -34.9 -143.65 -34.25 L-144.65 -33.4 -145.35 -32.8 -145.3 -32.45 -144.65 -32.45 Q-143.85 -32.75 -143.1 -33.75 -142.3 -34.85 -142.3 -35.95 L-142.4 -37.15 -142.05 -37.15 -140.15 -37.55 M-162.55 -26.55 L-162.65 -25.45 Q-162.65 -24.8 -162.05 -23.6 L-161.3 -22.6 -160.65 -21.7 -159.25 -20.15 Q-158.3 -19.15 -158.3 -17.95 L-158.55 -16.75 -159.4 -17.4 -159.8 -17.6 -160.0 -17.9 -160.2 -17.85 Q-161.5 -18.7 -162.4 -20.15 -163.45 -21.8 -163.45 -23.4 -163.45 -25.1 -163.05 -25.65 L-162.55 -26.55 M-159.0 -12.4 L-159.1 -13.7 -157.5 -12.4 -156.95 -11.65 -156.1 -10.55 Q-154.8 -8.35 -154.45 -6.5 L-154.45 -4.4 Q-154.35 -3.25 -153.45 -2.55 L-152.7 -2.1 Q-150.8 -1.15 -150.05 -0.9 L-148.4 -0.4 -147.75 -0.25 -145.55 0.15 Q-145.4 0.25 -145.4 0.55 -145.4 1.75 -147.7 4.3 L-149.95 6.3 -151.2 4.8 -155.1 0.8 -157.2 -1.15 -158.45 -2.15 -159.6 -3.15 -160.95 -4.5 -160.15 -6.55 Q-159.0 -10.1 -159.0 -12.4" fill="url(#gradient0)" fill-rule="evenodd" stroke="none"/>
  </g>
  <defs>
    <linearGradient gradientTransform="matrix(0.0, -0.0281, 0.0179, 0.0, -147.15, -15.55)" gradientUnits="userSpaceOnUse" id="gradient0" spreadMethod="pad" x1="-819.2" x2="819.2">
      <stop offset="0.0" stop-color="#1d1320"/>
      <stop offset="0.9882352941176471" stop-color="#663f6b"/>
    </linearGradient>
  </defs>
</svg>
