<?xml version="1.0" encoding="UTF-8" standalone="no"?>
<svg xmlns:xlink="http://www.w3.org/1999/xlink" height="368.0px" width="255.25px" xmlns="http://www.w3.org/2000/svg">
  <g transform="matrix(1.0, 0.0, 0.0, 1.0, 28.75, 181.65)">
    <path d="M102.8 -129.55 L105.05 -126.1 107.0 -122.6 108.8 -119.2 Q111.4 -114.55 116.0 -105.3 L118.25 -101.8 120.55 -98.4 123.8 -91.45 123.75 -91.2 123.75 -91.1 Q123.75 -89.8 122.2 -88.1 L121.8 -87.7 119.4 -85.2 119.6 -84.85 120.25 -83.4 121.3 -80.6 Q121.55 -79.3 122.7 -77.3 L124.1 -75.05 124.35 -74.6 Q125.5 -72.55 126.65 -69.5 L128.75 -64.0 129.7 -61.3 130.95 -58.4 140.5 -41.85 143.4 -36.25 Q144.3 -34.4 146.8 -30.7 L153.55 -19.65 Q155.9 -15.9 158.9 -8.55 L160.1 -5.8 161.15 -2.95 161.8 -0.2 162.05 1.35 162.1 1.5 Q162.45 1.35 162.9 1.95 L163.65 3.2 Q163.85 4.05 164.6 5.45 L164.8 5.85 166.2 10.0 Q166.6 11.5 167.15 12.2 L167.7 13.35 168.1 14.5 168.65 16.65 Q169.05 18.1 170.1 19.0 172.0 20.65 172.4 23.5 172.9 27.45 173.2 28.2 173.9 29.8 175.95 32.65 L179.25 37.2 Q180.15 38.7 181.45 41.85 182.55 44.7 183.9 46.35 L186.85 50.9 187.2 52.05 187.5 53.15 189.0 55.45 Q192.15 62.35 193.25 64.45 L195.6 68.95 196.25 70.45 Q197.15 72.55 197.7 77.95 L197.8 78.8 Q198.2 83.4 198.2 88.25 L197.9 94.4 Q197.9 97.45 198.85 100.8 199.5 103.2 201.15 107.25 L203.1 113.35 Q204.25 117.8 204.25 120.1 L203.75 126.3 203.1 130.75 204.3 136.35 205.7 139.8 207.5 143.4 209.25 146.95 210.55 150.4 212.5 157.4 214.55 164.4 Q215.8 168.65 217.5 171.5 219.85 175.4 221.4 178.65 L222.5 181.05 224.15 180.6 225.7 180.9 226.5 181.5 225.95 181.95 224.45 181.5 222.9 181.95 224.05 185.5 Q223.55 185.65 223.3 185.0 L223.05 184.1 222.15 182.2 221.65 182.35 220.6 182.0 215.75 183.2 Q210.4 184.35 205.6 184.35 L193.4 183.35 188.3 182.35 180.2 180.35 179.1 180.25 177.65 180.35 Q178.7 183.65 180.0 186.15 L179.65 186.35 Q178.05 183.85 176.85 180.45 L176.15 180.5 175.05 180.45 174.95 180.05 175.0 179.8 176.6 179.65 175.95 177.45 173.85 168.7 Q173.4 167.15 171.55 164.3 L170.15 162.05 Q169.15 160.55 168.15 159.95 164.45 157.65 163.2 155.5 L162.2 153.55 162.1 153.4 Q161.4 152.45 160.55 150.35 159.45 148.0 157.85 146.55 L154.5 142.95 151.35 139.05 Q148.2 135.45 146.45 131.55 145.1 128.7 143.85 124.1 L142.95 120.3 Q142.4 118.05 141.7 116.6 L139.55 113.35 139.1 112.8 136.55 109.1 134.85 105.3 132.95 101.55 Q130.9 98.3 131.0 94.25 L129.7 93.9 129.25 93.55 128.0 93.1 127.1 93.1 126.7 94.65 126.45 95.3 Q125.75 96.75 125.65 97.45 125.2 99.2 125.2 101.55 L124.8 110.05 Q124.6 112.65 123.1 118.5 L122.6 120.6 122.15 122.75 121.75 124.6 121.75 124.65 122.1 124.2 121.25 126.95 Q120.55 128.65 120.55 128.95 120.45 129.75 120.5 131.4 L120.15 133.6 120.5 136.85 119.75 145.4 Q119.6 146.85 119.85 149.7 L119.75 151.8 Q119.6 152.45 119.85 153.8 119.85 159.35 119.3 162.8 L119.2 163.35 119.2 165.0 Q119.1 166.3 118.65 167.3 L118.15 169.25 117.7 171.6 Q117.7 172.75 118.95 174.8 L120.5 176.95 121.5 178.95 Q121.65 179.3 122.2 179.25 L122.85 179.3 123.6 180.6 124.25 181.4 124.45 181.75 124.35 182.15 122.9 182.4 121.0 182.8 109.05 183.05 100.2 182.6 96.45 182.1 92.55 181.65 84.4 181.75 82.8 181.65 80.05 181.45 79.95 180.8 82.15 180.8 81.8 179.85 Q81.65 179.5 81.65 178.15 L82.0 173.5 81.65 170.1 81.65 166.8 80.5 160.15 79.75 156.85 Q79.1 154.55 78.95 153.45 L78.35 149.7 78.15 149.8 78.05 148.05 77.7 146.95 77.7 145.45 77.65 144.9 76.9 139.9 75.7 134.85 74.7 130.05 73.15 120.15 72.75 117.7 72.6 116.6 72.5 116.45 72.15 115.25 71.65 112.45 71.5 112.65 71.2 112.65 Q70.75 108.55 68.95 103.7 67.05 98.9 66.35 94.9 L64.45 84.5 Q64.0 81.75 64.0 77.25 L64.25 72.55 64.85 68.05 64.6 64.8 64.2 61.45 Q63.7 59.35 63.7 55.05 63.7 52.85 64.15 47.75 L64.55 40.65 64.35 34.95 64.0 29.3 64.25 26.7 64.1 26.7 64.0 26.8 63.5 26.55 Q62.7 25.85 62.45 23.5 L62.35 20.1 62.55 18.25 62.35 16.6 62.7 13.25 62.7 11.35 Q59.4 12.1 56.3 13.75 L50.65 16.85 Q46.5 18.8 45.25 19.9 41.7 22.7 41.1 22.7 L40.6 22.6 38.25 24.4 36.4 26.0 34.6 27.9 Q32.85 29.75 30.05 31.2 L25.8 33.3 25.55 36.5 25.1 41.3 Q25.2 41.2 25.25 41.2 L25.2 42.3 23.35 58.9 22.7 63.55 22.1 69.95 21.9 73.2 21.45 76.3 20.6 82.6 20.3 88.85 20.45 89.05 20.5 89.65 20.5 90.2 20.35 91.4 20.6 93.9 20.95 98.7 20.95 98.9 21.25 99.55 Q22.0 100.95 22.0 103.8 L22.4 108.1 22.85 112.3 22.75 112.85 22.75 113.35 Q22.75 114.45 21.4 117.95 19.9 121.35 19.9 124.0 L20.3 126.3 20.7 129.05 20.5 130.3 20.6 130.45 Q20.15 131.0 19.85 131.0 L16.85 130.7 Q16.75 130.7 16.15 130.1 L15.4 129.05 14.5 126.75 13.7 124.55 Q13.4 123.25 13.4 122.3 13.4 121.1 14.15 119.05 L15.35 116.1 12.5 119.4 Q10.65 121.6 10.25 122.95 9.5 125.5 7.95 129.05 L7.4 130.0 Q7.1 130.6 7.1 131.7 L7.1 133.55 6.9 137.05 6.8 140.6 6.45 142.7 Q6.15 143.9 5.25 143.95 L5.05 143.8 4.95 143.9 3.6 143.95 3.55 144.0 Q1.45 144.0 0.95 143.25 0.8 143.05 0.8 142.05 0.8 140.4 1.15 136.7 L1.45 132.8 1.45 131.7 Q1.45 128.4 2.1 126.5 L2.7 124.2 1.7 126.3 1.25 127.05 0.2 128.9 -0.45 129.9 -1.7 132.7 -1.8 132.9 -2.85 138.7 Q-3.95 144.35 -4.4 144.35 -8.3 144.35 -9.2 143.4 L-9.35 142.15 -9.1 140.35 -8.95 139.8 -8.65 138.6 -9.65 138.7 Q-11.8 138.7 -12.2 138.05 L-12.2 136.9 -11.1 128.65 -10.3 124.55 -9.65 122.2 -9.2 121.15 -8.55 119.2 -8.15 117.7 -8.15 117.6 -8.95 119.15 -10.85 122.8 -11.95 125.75 Q-12.8 127.9 -13.65 127.9 -14.8 127.9 -15.5 127.25 L-15.95 126.7 -16.0 126.35 -14.75 121.65 -12.95 116.6 Q-10.35 110.7 -7.6 106.95 L-4.55 101.95 -1.85 97.25 -1.15 96.15 Q-0.2 94.35 0.75 91.8 L2.15 88.0 2.6 85.45 2.65 83.05 2.0 72.3 1.4 62.45 0.75 53.95 0.55 52.2 Q0.1 48.65 0.1 47.1 L0.0 43.45 -0.05 43.45 Q-1.9 44.7 -2.35 44.7 -3.5 44.7 -4.4 44.15 L-5.65 43.25 Q-6.35 42.95 -6.35 41.4 L-6.3 40.35 -5.7 39.2 -4.75 38.1 Q-6.35 38.05 -6.35 35.65 L-6.65 32.95 -6.6 31.85 Q-6.5 31.3 -5.7 30.45 L-4.45 29.15 -4.05 28.7 -5.2 27.3 Q-5.7 26.7 -5.7 25.85 L-5.85 23.05 Q-5.85 20.55 -5.35 19.85 L-3.1 18.05 -3.2 17.8 -2.15 17.05 -1.2 16.45 -1.25 15.65 -1.4 13.1 -1.45 12.35 -1.65 8.55 -1.7 7.6 -1.65 6.95 -1.6 6.3 -1.7 5.0 -1.9 2.2 -2.85 -3.25 -3.7 -8.85 -4.0 -11.6 -3.95 -14.3 -4.75 -25.4 -5.0 -27.7 -5.8 -31.7 -6.3 -34.4 Q-6.75 -35.3 -6.8 -38.25 L-6.65 -42.5 Q-6.65 -47.0 -7.5 -55.05 -8.4 -63.15 -8.4 -67.9 L-8.3 -70.0 Q-8.2 -72.95 -7.6 -76.15 -6.9 -80.5 -5.95 -83.2 L-4.25 -87.1 -2.25 -90.95 Q-1.85 -91.9 -0.9 -92.85 L0.35 -94.75 Q1.25 -95.65 1.6 -96.65 L2.0 -98.65 2.1 -98.65 Q1.9 -99.9 0.95 -101.35 L-1.4 -104.8 -3.0 -106.3 -5.1 -107.85 -5.9 -108.45 -7.3 -109.0 -8.05 -109.25 -9.4 -109.4 Q-10.05 -109.5 -10.6 -110.0 -12.55 -111.7 -13.35 -113.4 L-16.65 -120.1 -17.85 -121.75 Q-18.55 -122.75 -18.55 -123.25 L-18.8 -123.65 -20.05 -124.0 -20.5 -124.65 -21.05 -125.9 -21.45 -127.25 -22.3 -129.75 Q-22.85 -131.3 -23.85 -132.45 L-24.8 -133.8 -25.6 -135.1 Q-26.95 -137.3 -27.4 -137.7 -28.45 -138.75 -28.6 -140.25 L-28.75 -142.85 -28.5 -147.8 Q-28.25 -150.9 -28.3 -152.45 -28.45 -153.4 -27.6 -154.9 L-26.2 -157.2 Q-24.7 -160.2 -24.3 -161.85 -23.5 -165.45 -22.9 -166.6 -21.45 -169.4 -18.1 -171.35 -12.5 -174.65 -11.15 -176.05 L-8.75 -178.45 -7.45 -179.4 -7.05 -179.6 -4.65 -180.0 -1.85 -180.25 0.75 -180.0 Q2.1 -180.0 4.2 -181.05 6.0 -181.95 10.45 -181.5 13.5 -180.8 14.45 -179.6 15.5 -178.45 18.1 -177.4 L21.4 -176.7 23.65 -175.8 Q25.65 -174.7 26.15 -172.8 L26.25 -170.95 26.25 -168.45 Q26.15 -167.65 27.1 -165.95 27.9 -164.25 32.1 -160.8 33.3 -159.8 33.75 -158.4 L34.0 -155.8 34.2 -150.85 34.3 -148.3 Q34.3 -147.5 34.6 -146.4 L34.9 -146.05 34.9 -144.9 Q34.85 -144.5 35.55 -142.75 36.55 -140.05 36.55 -138.55 L36.5 -138.05 37.45 -138.6 38.25 -139.2 41.45 -139.75 Q43.7 -139.75 44.45 -139.25 45.25 -138.8 46.9 -138.8 L50.65 -139.25 52.65 -138.85 53.85 -138.55 56.4 -139.0 59.25 -139.75 60.9 -140.4 62.3 -140.65 63.25 -140.75 63.75 -141.35 63.95 -141.0 64.4 -140.9 Q64.85 -140.9 65.55 -141.4 L66.5 -141.95 70.05 -142.3 71.05 -142.6 73.1 -142.65 74.6 -142.85 78.35 -143.05 78.75 -143.05 78.7 -143.25 80.4 -143.1 82.5 -142.8 Q83.75 -142.9 86.4 -141.65 86.8 -141.4 88.5 -141.1 L90.35 -140.5 92.2 -139.1 Q95.3 -137.45 96.45 -136.15 L98.4 -134.35 98.6 -134.05 99.05 -133.55 99.85 -132.7 101.6 -131.05 102.8 -129.55 M30.45 -137.45 L32.5 -135.5 Q31.8 -132.85 29.5 -135.1 L29.2 -135.1 30.25 -134.05 31.2 -132.85 Q31.2 -132.5 29.9 -132.25 L27.6 -131.65 30.9 -127.05 32.8 -130.4 Q34.05 -133.15 34.05 -134.25 34.05 -136.0 33.3 -137.8 32.4 -140.05 30.75 -141.0 L33.0 -138.05 Q33.0 -137.4 30.45 -137.45 M20.7 -124.95 L20.0 -125.6 18.85 -127.3 18.4 -128.1 17.65 -128.95 16.8 -129.65 13.95 -130.15 Q12.5 -129.8 12.0 -129.45 L11.4 -129.2 Q10.65 -128.6 10.2 -128.6 9.65 -128.6 7.1 -130.15 4.65 -131.75 2.65 -131.75 -1.25 -131.75 -1.25 -130.35 -1.25 -129.85 -0.9 -129.4 L0.0 -128.25 1.05 -127.4 2.0 -126.25 Q2.0 -125.35 0.05 -124.85 -1.9 -124.25 -1.9 -123.25 L-1.35 -121.2 Q-0.85 -119.85 -0.85 -119.3 -0.85 -117.55 -2.25 -116.25 L-4.05 -114.8 -2.35 -115.0 5.75 -115.3 7.05 -115.7 10.2 -116.35 Q11.75 -116.6 12.55 -117.25 15.85 -119.9 17.15 -120.2 18.4 -120.65 18.4 -118.8 18.4 -117.9 17.65 -115.95 L16.5 -113.15 14.45 -107.65 Q16.95 -107.85 17.8 -106.95 18.25 -106.45 18.25 -105.5 18.25 -104.15 17.05 -102.95 L19.05 -102.9 22.6 -103.25 Q22.95 -103.45 22.95 -103.95 L22.5 -105.8 Q22.0 -107.15 22.0 -107.7 22.0 -108.65 23.85 -111.95 25.65 -115.25 25.65 -117.65 L25.45 -119.45 25.2 -121.15 25.3 -122.85 Q25.1 -123.95 23.85 -124.4 L21.1 -124.65 20.7 -124.95 M9.85 -104.1 L9.75 -104.3 4.55 -104.9 2.2 -105.55 3.1 -103.9 3.95 -102.1 4.9 -100.1 Q5.7 -98.7 6.1 -98.7 6.85 -98.7 7.4 -99.9 L8.1 -101.3 Q9.85 -103.45 9.85 -104.1 M40.1 -115.25 L40.1 -114.0 Q43.8 -119.5 44.75 -121.5 46.45 -124.95 46.45 -128.6 46.45 -131.45 44.8 -132.65 43.4 -133.65 40.55 -133.8 L40.6 -125.2 40.4 -120.2 40.1 -115.25 M26.6 -32.0 Q26.6 -27.1 26.9 -24.75 L27.45 -21.2 27.85 -17.65 28.15 -3.5 28.05 4.05 29.2 4.1 31.0 4.1 32.05 3.7 Q34.4 2.7 37.55 0.75 L44.55 -3.75 50.45 -8.1 52.3 -9.6 48.75 -14.35 43.65 -19.7 Q40.35 -22.85 36.25 -25.3 32.15 -27.65 26.7 -33.85 L26.6 -32.0 M36.15 -27.5 L35.95 -27.55 Q36.5 -27.25 37.0 -27.0 L37.75 -26.55 36.15 -27.5 M18.1 -32.4 L1.35 -32.45 0.95 -32.35 -1.35 -32.25 -1.6 -30.95 -0.6 -23.55 0.9 -16.2 Q2.45 -6.1 2.45 -1.5 L2.45 0.5 2.35 1.35 2.2 2.25 1.9 5.5 1.85 5.75 Q7.65 5.0 11.15 3.85 13.7 2.95 14.6 2.85 L16.5 2.65 18.65 2.55 18.6 2.4 19.2 0.5 19.55 -1.4 19.75 -5.15 19.4 -12.85 Q18.5 -18.6 18.5 -20.6 L18.2 -24.25 Q17.9 -26.3 17.9 -27.8 L18.1 -32.4 M79.25 -13.85 L81.3 -14.2 83.5 -14.95 88.3 -16.8 97.2 -21.1 104.3 -25.05 Q105.7 -25.75 107.25 -27.4 L108.45 -28.6 108.5 -28.95 109.0 -31.0 109.45 -32.9 109.65 -34.8 110.15 -38.65 110.7 -42.4 Q111.15 -49.45 111.15 -57.6 L111.15 -60.0 110.95 -63.15 110.7 -68.8 110.4 -79.85 110.55 -81.8 110.45 -82.5 108.05 -82.7 107.35 -82.95 106.65 -82.9 106.65 -82.75 105.0 -82.6 104.75 -82.45 104.65 -82.45 104.35 -82.4 103.8 -81.9 101.45 -81.2 99.75 -80.05 98.65 -79.3 98.6 -79.2 95.0 -76.7 89.9 -73.55 87.35 -71.9 85.8 -70.5 83.9 -69.2 83.8 -69.15 83.55 -68.8 83.1 -68.0 82.95 -67.5 82.6 -66.45 82.6 -66.25 Q82.55 -65.25 83.45 -62.85 L85.85 -55.95 88.05 -49.0 90.65 -42.8 90.65 -42.85 90.9 -42.4 90.85 -42.3 90.9 -42.15 90.65 -41.9 90.6 -41.8 86.8 -37.2 81.15 -30.4 76.5 -24.85 Q72.95 -20.4 72.95 -18.5 72.95 -18.05 73.4 -16.9 L74.1 -15.55 Q75.75 -13.9 76.9 -13.8 L78.85 -13.9 79.25 -13.85 M82.4 -68.45 L82.4 -68.35 82.5 -68.45 82.4 -68.45 M1.85 12.3 L1.25 13.4 1.25 15.4 2.6 14.8 3.8 14.2 Q4.45 13.8 5.6 13.55 L7.1 12.75 Q7.6 12.35 8.05 12.35 L6.15 12.4 2.1 11.9 1.85 12.3 M8.8 12.15 Q8.45 12.15 8.3 12.3 L8.3 12.35 8.75 12.2 8.8 12.15 M4.35 46.3 L4.25 47.3 4.25 49.35 4.45 53.55 5.85 61.7 6.3 68.75 6.65 78.2 Q6.65 85.15 6.35 87.9 L6.3 88.85 6.0 90.25 Q5.75 91.75 5.0 92.8 4.25 93.8 2.15 97.55 L2.0 97.9 0.3 100.95 -0.5 102.0 -4.0 106.0 -7.55 110.0 Q-11.7 115.6 -12.2 118.0 L-13.45 121.85 -14.35 124.0 -15.05 125.95 -14.9 126.3 -14.8 126.45 -14.8 126.5 -14.15 126.8 Q-13.6 126.8 -12.7 124.8 L-11.25 121.4 -9.85 118.55 -9.2 117.5 -9.15 117.95 -8.7 117.1 Q-7.5 114.7 -7.2 114.7 L-7.0 114.75 -6.05 113.45 -4.85 110.7 Q-4.45 109.55 -4.05 109.3 L-3.95 109.35 -4.2 110.25 -5.4 113.95 -6.9 117.7 -8.2 121.3 Q-8.95 124.1 -9.9 129.6 -10.9 135.05 -10.9 136.2 L-10.85 136.6 -10.5 136.95 -10.1 137.2 -8.7 137.4 Q-7.85 137.4 -7.85 135.5 L-7.55 133.6 -7.1 129.8 Q-6.9 128.45 -6.2 127.9 -5.95 127.7 -5.8 127.0 L-5.4 126.0 -4.5 123.95 Q-1.65 118.45 -1.25 115.45 L-1.0 115.35 -0.5 115.4 -0.5 117.1 -1.85 120.65 Q-2.75 123.25 -5.15 127.7 -5.9 128.95 -6.2 131.2 L-6.8 134.7 -7.45 138.15 -8.0 139.8 -8.5 141.8 Q-8.5 142.15 -7.95 142.55 -7.05 143.1 -5.2 143.1 -4.5 143.1 -4.4 142.5 L-4.3 141.65 -3.75 139.9 -3.5 138.05 -3.1 136.4 Q-2.85 135.7 -2.75 134.6 L-2.5 132.95 -2.1 131.5 -2.05 131.65 -0.95 129.35 -0.3 128.65 0.75 126.5 1.0 126.05 Q2.7 122.45 3.65 120.9 L3.95 121.05 4.35 120.2 4.55 120.6 Q4.55 121.5 3.8 123.6 L3.75 124.4 3.75 124.6 Q2.85 127.25 2.45 129.3 L2.15 134.55 1.95 140.75 2.0 142.25 2.8 142.8 4.3 143.1 Q5.65 143.1 5.65 142.3 5.5 140.9 5.75 139.75 6.1 138.15 6.1 135.95 L6.35 132.15 6.7 129.8 6.8 129.6 7.75 128.45 8.55 125.3 Q9.15 123.15 10.85 120.55 L14.45 115.75 14.95 115.2 15.75 114.55 16.05 114.05 17.2 113.0 18.4 111.6 18.9 113.25 19.1 114.65 Q19.1 115.5 18.7 116.65 L17.65 118.7 Q16.1 121.15 16.1 122.95 16.1 124.1 16.5 125.05 L16.7 126.3 Q16.8 127.15 17.2 127.95 17.9 129.35 18.85 129.35 19.35 129.35 19.45 128.95 L19.55 128.2 Q19.55 127.4 19.15 126.45 18.8 125.5 18.8 124.85 18.8 122.7 20.25 118.05 21.65 113.45 21.65 111.45 21.65 108.9 20.6 103.55 L20.15 99.45 20.1 98.95 20.1 98.75 19.55 95.8 19.1 92.8 17.8 86.85 Q17.4 84.1 17.3 76.35 L17.3 75.05 Q17.3 71.6 17.65 68.1 18.1 63.45 19.1 58.55 19.2 55.45 20.05 50.35 L20.95 46.5 Q21.7 43.3 21.7 42.1 L21.4 40.35 Q21.25 39.9 20.5 39.3 L19.55 38.75 Q17.5 38.75 15.65 39.5 14.4 39.95 13.85 40.45 L13.15 40.95 10.0 43.25 9.25 43.7 Q7.85 44.4 7.15 45.1 L5.15 46.3 4.35 46.3 M20.25 112.6 Q19.9 110.75 19.9 109.95 L19.8 107.45 19.85 107.2 20.35 111.45 20.25 113.1 20.25 112.85 20.25 112.6" fill="#000000" fill-rule="evenodd" stroke="none"/>
    <path d="M40.1 -115.25 L40.4 -120.2 40.6 -125.2 40.55 -133.8 Q43.4 -133.65 44.8 -132.65 46.45 -131.45 46.45 -128.6 46.45 -124.95 44.75 -121.5 43.8 -119.5 40.1 -114.0 L40.1 -115.25 M9.85 -104.1 Q9.85 -103.45 8.1 -101.3 L7.4 -99.9 Q6.85 -98.7 6.1 -98.7 5.7 -98.7 4.9 -100.1 L3.95 -102.1 3.1 -103.9 2.2 -105.55 4.55 -104.9 9.75 -104.3 9.85 -104.1 M20.7 -124.95 L21.1 -124.65 23.85 -124.4 Q25.1 -123.95 25.3 -122.85 L25.2 -121.15 25.45 -119.45 25.65 -117.65 Q25.65 -115.25 23.85 -111.95 22.0 -108.65 22.0 -107.7 22.0 -107.15 22.5 -105.8 L22.95 -103.95 Q22.95 -103.45 22.6 -103.25 L19.05 -102.9 17.05 -102.95 Q18.25 -104.15 18.25 -105.5 18.25 -106.45 17.8 -106.95 16.95 -107.85 14.45 -107.65 L16.5 -113.15 17.65 -115.95 Q18.4 -117.9 18.4 -118.8 18.4 -120.65 17.15 -120.2 15.85 -119.9 12.55 -117.25 11.75 -116.6 10.2 -116.35 L7.05 -115.7 5.75 -115.3 -2.35 -115.0 -4.05 -114.8 -2.25 -116.25 Q-0.85 -117.55 -0.85 -119.3 -0.85 -119.85 -1.35 -121.2 L-1.9 -123.25 Q-1.9 -124.25 0.05 -124.85 2.0 -125.35 2.0 -126.25 L1.05 -127.4 0.0 -128.25 -0.9 -129.4 Q-1.25 -129.85 -1.25 -130.35 -1.25 -131.75 2.65 -131.75 4.65 -131.75 7.1 -130.15 9.65 -128.6 10.2 -128.6 10.65 -128.6 11.4 -129.2 L12.0 -129.45 Q12.5 -129.8 13.95 -130.15 L16.8 -129.65 17.65 -128.95 18.4 -128.1 18.85 -127.3 20.0 -125.6 20.7 -124.95 M30.45 -137.45 Q33.0 -137.4 33.0 -138.05 L30.75 -141.0 Q32.4 -140.05 33.3 -137.8 34.05 -136.0 34.05 -134.25 34.05 -133.15 32.8 -130.4 L30.9 -127.05 27.6 -131.65 29.9 -132.25 Q31.2 -132.5 31.2 -132.85 L30.25 -134.05 29.2 -135.1 29.5 -135.1 Q31.8 -132.85 32.5 -135.5 L30.45 -137.45 M79.25 -13.85 L78.85 -13.9 76.9 -13.8 Q75.75 -13.9 74.1 -15.55 L73.4 -16.9 Q72.95 -18.05 72.95 -18.5 72.95 -20.4 76.5 -24.85 L81.15 -30.4 86.8 -37.2 90.6 -41.8 90.65 -41.9 90.9 -42.15 90.85 -42.3 90.9 -42.4 90.65 -42.85 90.65 -42.8 88.05 -49.0 85.85 -55.95 83.45 -62.85 Q82.55 -65.25 82.6 -66.25 L82.6 -66.45 82.95 -67.5 83.1 -68.0 83.55 -68.8 83.8 -69.15 83.9 -69.2 85.8 -70.5 87.35 -71.9 89.9 -73.55 95.0 -76.7 98.6 -79.2 98.65 -79.3 99.75 -80.05 101.45 -81.2 103.8 -81.9 104.35 -82.4 104.65 -82.45 104.75 -82.45 105.0 -82.6 106.65 -82.75 106.65 -82.9 107.35 -82.95 108.05 -82.7 110.45 -82.5 110.55 -81.8 110.4 -79.85 110.7 -68.8 110.95 -63.15 111.15 -60.0 111.15 -57.6 Q111.15 -49.45 110.7 -42.4 L110.15 -38.65 109.65 -34.8 109.45 -32.9 109.0 -31.0 108.5 -28.95 108.45 -28.6 107.25 -27.4 Q105.7 -25.75 104.3 -25.05 L97.2 -21.1 88.3 -16.8 83.5 -14.95 81.3 -14.2 79.25 -13.85 M18.1 -32.4 L17.9 -27.8 Q17.9 -26.3 18.2 -24.25 L18.5 -20.6 Q18.5 -18.6 19.4 -12.85 L19.75 -5.15 19.55 -1.4 19.2 0.5 18.6 2.4 18.65 2.55 16.5 2.65 14.6 2.85 Q13.7 2.95 11.15 3.85 7.65 5.0 1.85 5.75 L1.9 5.5 2.2 2.25 2.35 1.35 2.45 0.5 2.45 -1.5 Q2.45 -6.1 0.9 -16.2 L-0.6 -23.55 -1.6 -30.95 -1.35 -32.25 0.95 -32.35 1.35 -32.45 18.1 -32.4 M1.85 12.3 L2.1 11.9 6.15 12.4 8.05 12.35 Q7.6 12.35 7.1 12.75 L5.6 13.55 Q4.45 13.8 3.8 14.2 L2.6 14.8 1.25 15.4 1.25 13.4 1.85 12.3 M20.25 112.6 L20.25 112.85 20.25 113.1 20.35 111.45 19.85 107.2 19.8 107.45 19.9 109.95 Q19.9 110.75 20.25 112.6 M4.35 46.3 L5.15 46.3 7.15 45.1 Q7.85 44.4 9.25 43.7 L10.0 43.25 13.15 40.95 13.85 40.45 Q14.4 39.95 15.65 39.5 17.5 38.75 19.55 38.75 L20.5 39.3 Q21.25 39.9 21.4 40.35 L21.7 42.1 Q21.7 43.3 20.95 46.5 L20.05 50.35 Q19.2 55.45 19.1 58.55 18.1 63.45 17.65 68.1 17.3 71.6 17.3 75.05 L17.3 76.35 Q17.4 84.1 17.8 86.85 L19.1 92.8 19.55 95.8 20.1 98.75 20.1 98.95 20.15 99.45 20.6 103.55 Q21.65 108.9 21.65 111.45 21.65 113.45 20.25 118.05 18.8 122.7 18.8 124.85 18.8 125.5 19.15 126.45 19.55 127.4 19.55 128.2 L19.45 128.95 Q19.35 129.35 18.85 129.35 17.9 129.35 17.2 127.95 16.8 127.15 16.7 126.3 L16.5 125.05 Q16.1 124.1 16.1 122.95 16.1 121.15 17.65 118.7 L18.7 116.65 Q19.1 115.5 19.1 114.65 L18.9 113.25 18.4 111.6 17.2 113.0 16.05 114.05 15.75 114.55 14.95 115.2 14.45 115.75 10.85 120.55 Q9.15 123.15 8.55 125.3 L7.75 128.45 6.8 129.6 6.7 129.8 6.35 132.15 6.1 135.95 Q6.1 138.15 5.75 139.75 5.5 140.9 5.65 142.3 5.65 143.1 4.3 143.1 L2.8 142.8 2.0 142.25 1.95 140.75 2.15 134.55 2.45 129.3 Q2.85 127.25 3.75 124.6 L3.75 124.4 3.8 123.6 Q4.55 121.5 4.55 120.6 L4.35 120.2 3.95 121.05 3.65 120.9 Q2.7 122.45 1.0 126.05 L0.75 126.5 -0.3 128.65 -0.95 129.35 -2.05 131.65 -2.1 131.5 -2.5 132.95 -2.75 134.6 Q-2.85 135.7 -3.1 136.4 L-3.5 138.05 -3.75 139.9 -4.3 141.65 -4.4 142.5 Q-4.5 143.1 -5.2 143.1 -7.05 143.1 -7.95 142.55 -8.5 142.15 -8.5 141.8 L-8.0 139.8 -7.45 138.15 -6.8 134.7 -6.2 131.2 Q-5.9 128.95 -5.15 127.7 -2.75 123.25 -1.85 120.65 L-0.5 117.1 -0.5 115.4 -1.0 115.35 -1.25 115.45 Q-1.65 118.45 -4.5 123.95 L-5.4 126.0 -5.8 127.0 Q-5.95 127.7 -6.2 127.9 -6.9 128.45 -7.1 129.8 L-7.55 133.6 -7.85 135.5 Q-7.85 137.4 -8.7 137.4 L-10.1 137.2 -10.5 136.95 -10.85 136.6 -10.9 136.2 Q-10.9 135.05 -9.9 129.6 -8.95 124.1 -8.2 121.3 L-6.9 117.7 -5.4 113.95 -4.2 110.25 -3.95 109.35 -4.05 109.3 Q-4.45 109.55 -4.85 110.7 L-6.05 113.45 -7.0 114.75 -7.2 114.7 Q-7.5 114.7 -8.7 117.1 L-9.15 117.95 -9.2 117.5 -9.85 118.55 -11.25 121.4 -12.7 124.8 Q-13.6 126.8 -14.15 126.8 L-14.8 126.5 -14.8 126.45 -14.9 126.3 -15.05 125.95 -14.35 124.0 -13.45 121.85 -12.2 118.0 Q-11.7 115.6 -7.55 110.0 L-4.0 106.0 -0.5 102.0 0.3 100.95 2.0 97.9 2.15 97.55 Q4.25 93.8 5.0 92.8 5.75 91.75 6.0 90.25 L6.3 88.85 6.35 87.9 Q6.65 85.15 6.65 78.2 L6.3 68.75 5.85 61.7 4.45 53.55 4.25 49.35 4.25 47.3 4.35 46.3" fill="url(#gradient0)" fill-rule="evenodd" stroke="none"/>
    <path d="M32.75 -138.45 Q33.4 -130.45 34.25 -127.2 35.6 -121.9 38.9 -117.6 L38.5 -126.85 Q38.5 -135.45 43.4 -135.55 45.25 -135.6 46.75 -134.15 48.25 -132.75 48.25 -130.85 L47.6 -122.95 Q46.9 -115.65 46.75 -112.45 46.7 -109.95 47.9 -103.95 48.25 -98.65 44.0 -95.95 40.9 -99.2 39.9 -103.6 39.35 -106.1 39.25 -111.45 L39.1 -113.9 39.0 -113.7 Q36.65 -113.5 34.4 -115.65 L32.25 -118.2 Q32.25 -116.55 31.35 -113.3 30.25 -109.3 30.0 -107.7 29.7 -105.9 29.95 -102.45 L30.25 -97.6 Q30.25 -96.2 29.6 -93.55 L28.75 -89.7 Q24.45 -89.15 21.35 -94.45 19.05 -98.3 18.25 -103.2 17.8 -105.8 18.6 -111.4 L19.5 -118.2 Q19.5 -120.5 10.15 -121.95 L0.5 -122.95 Q-4.45 -122.95 -6.8 -125.95 -8.25 -127.85 -8.25 -129.7 -8.25 -132.4 -6.5 -134.3 -3.45 -137.6 4.75 -139.45 16.45 -142.25 21.6 -142.55 31.1 -143.2 32.75 -138.45 M25.25 -134.95 L21.3 -134.75 19.0 -134.2 16.75 -133.7 Q20.6 -132.7 26.25 -130.7 L25.55 -133.0 Q25.25 -134.35 25.25 -134.95 M12.45 -100.6 Q13.5 -97.8 13.5 -96.1 13.5 -94.25 12.75 -92.7 11.75 -90.7 10.0 -90.7 7.25 -90.7 3.75 -98.7 L0.75 -106.6 Q0.75 -110.1 3.45 -110.8 6.55 -111.6 10.25 -106.2 11.0 -104.05 12.45 -100.6 M74.25 -64.2 Q74.25 -69.8 81.05 -76.25 86.85 -81.75 95.8 -86.4 104.2 -90.7 110.25 -91.75 116.65 -92.9 116.0 -89.45 116.5 -87.7 117.85 -74.3 119.25 -60.4 119.25 -55.7 119.25 -50.6 118.25 -40.9 117.1 -30.45 116.0 -27.2 115.2 -24.75 110.8 -20.15 106.15 -15.25 102.75 -13.7 95.75 -10.15 89.6 -7.35 77.7 -1.95 73.6 -1.95 69.35 -1.95 68.65 -4.7 L68.75 -7.95 Q58.75 -6.5 58.75 -13.95 58.75 -16.5 62.05 -20.5 L69.25 -28.05 Q79.75 -38.6 79.75 -43.95 79.75 -46.9 77.0 -52.8 74.25 -58.75 74.25 -64.2 M21.0 -30.45 L22.25 -15.35 23.0 -4.6 Q23.0 4.8 20.75 12.35 16.95 25.05 8.0 25.05 -0.35 25.05 -1.2 14.55 -1.5 11.25 -1.05 6.3 L-0.5 0.3 Q-0.5 -4.55 -0.85 -14.6 L-1.25 -25.2 Q-1.25 -28.2 0.0 -31.2 1.65 -35.2 2.5 -40.2 6.4 -36.05 6.15 -33.05 L5.5 -30.25 Q5.0 -28.3 5.0 -26.7 5.0 -21.25 5.85 -6.55 6.85 11.3 8.0 15.8 11.8 14.0 13.7 6.25 15.0 0.85 15.0 -4.7 L13.75 -24.2 12.5 -43.7 Q12.5 -47.5 14.25 -48.95 16.6 -50.9 20.25 -43.2 20.7 -40.95 20.8 -37.1 L21.0 -30.45 M80.0 -18.2 L95.85 -26.65 Q104.15 -31.8 104.75 -36.45 106.75 -52.45 106.75 -55.95 L106.15 -64.1 104.75 -75.45 Q102.35 -74.8 95.65 -69.85 88.75 -64.75 88.75 -63.1 L91.25 -55.0 Q93.75 -46.5 93.75 -43.95 93.75 -36.7 91.2 -32.0 88.8 -27.5 80.25 -18.45 L80.0 -18.2 M1.7 39.0 Q2.35 33.45 5.0 31.8 7.65 33.25 8.25 38.6 L8.5 47.8 Q9.3 55.2 10.1 68.15 L10.55 76.4 11.1 74.6 Q13.55 66.8 13.25 63.3 13.9 59.05 14.0 51.0 L14.0 41.9 Q14.0 33.95 15.4 29.65 16.65 25.8 18.5 26.25 20.3 26.65 21.6 31.05 23.0 35.95 23.0 43.55 23.0 48.2 20.75 64.3 18.5 80.4 18.5 83.3 L20.65 90.75 Q22.75 98.45 22.75 99.8 L22.1 104.0 Q21.65 106.6 22.5 111.05 22.85 113.1 22.0 117.1 21.0 121.55 21.0 122.3 L20.9 125.0 20.75 127.55 Q20.4 127.55 19.75 128.8 L17.25 128.55 15.5 115.05 Q9.8 120.9 8.15 130.8 7.2 136.45 6.25 147.8 L6.4 148.2 Q6.5 148.55 5.0 148.55 1.15 148.55 0.8 139.25 L1.0 127.3 Q-0.65 130.1 -1.85 133.85 -3.25 138.4 -3.5 142.8 L-4.0 143.3 Q-4.5 143.8 -6.0 143.8 -7.5 143.8 -9.75 136.7 -12.1 129.05 -11.0 124.05 L-12.4 124.1 -14.75 124.55 Q-14.4 122.1 -12.5 118.85 L-9.85 114.95 -9.75 114.6 Q-8.65 111.85 -8.25 110.3 -7.8 108.6 -5.05 105.6 L-1.25 101.3 Q1.25 97.15 2.3 92.35 3.1 88.6 3.25 83.3 3.4 76.05 2.45 61.9 1.5 48.9 1.5 47.65 1.5 40.65 1.7 39.0" fill="#000000" fill-opacity="0.101960786" fill-rule="evenodd" stroke="none"/>
  </g>
  <defs>
    <linearGradient gradientTransform="matrix(0.0768, -6.0E-4, 4.0E-4, 0.0423, 47.95, -25.15)" gradientUnits="userSpaceOnUse" id="gradient0" spreadMethod="pad" x1="-819.2" x2="819.2">
      <stop offset="0.0" stop-color="#232c18"/>
      <stop offset="0.9882352941176471" stop-color="#496237"/>
    </linearGradient>
  </defs>
</svg>
