<?xml version="1.0" encoding="UTF-8" standalone="no"?>
<svg xmlns:xlink="http://www.w3.org/1999/xlink" height="29.65px" width="32.7px" xmlns="http://www.w3.org/2000/svg">
  <g transform="matrix(1.0, 0.0, 0.0, 1.0, -21.4, -86.5)">
    <path d="M22.0 91.75 L21.4 89.05 Q21.4 84.95 24.2 87.45 27.0 89.95 27.0 92.7 27.0 94.25 25.75 94.25 23.1 94.25 22.0 91.75 M41.75 91.65 Q42.85 90.55 45.25 92.25 L47.45 94.3 49.75 96.6 Q50.95 97.95 52.4 100.55 54.1 103.6 54.1 104.9 L53.25 105.95 52.1 106.5 Q49.7 106.5 47.15 103.5 L44.75 100.0 42.4 96.85 Q41.0 94.8 41.0 93.75 41.0 92.35 41.75 91.65 M43.6 116.15 Q40.35 116.15 38.65 112.9 L37.65 109.75 Q37.65 107.9 38.7 107.65 39.65 107.45 41.05 108.55 44.4 111.2 44.4 114.9 L44.25 115.65 Q44.0 116.15 43.6 116.15" fill="#000000" fill-opacity="0.4509804" fill-rule="evenodd" stroke="none"/>
  </g>
</svg>
