<?xml version="1.0" encoding="UTF-8" standalone="no"?>
<svg xmlns:xlink="http://www.w3.org/1999/xlink" height="196.6px" width="121.95px" xmlns="http://www.w3.org/2000/svg">
  <g transform="matrix(1.0, 0.0, 0.0, 1.0, 0.0, 0.0)">
    <path d="M38.7 9.3 L39.3 8.1 40.4 6.95 42.55 4.75 43.35 3.6 43.5 3.45 43.4 3.2 Q43.4 2.75 44.55 2.4 L46.55 1.75 47.25 1.6 47.85 1.45 48.35 1.15 50.0 0.5 51.2 0.7 Q51.9 0.7 52.4 0.35 L52.85 0.0 56.3 0.25 57.35 0.5 58.75 0.8 60.1 1.2 60.85 1.3 61.6 1.45 61.6 1.4 62.0 1.3 62.4 1.5 66.1 1.4 Q68.2 1.4 69.85 3.4 70.3 4.1 70.25 4.75 L70.15 5.6 Q70.15 5.95 70.65 6.7 L70.95 6.95 72.2 8.85 72.85 10.75 72.9 11.45 73.3 12.2 73.6 13.0 73.6 13.55 73.35 14.7 73.65 15.6 73.95 16.5 74.1 18.3 73.9 19.95 73.95 20.05 74.3 21.3 74.65 22.35 74.65 22.3 74.7 23.05 74.8 23.8 Q74.8 25.1 74.45 25.95 74.2 26.55 74.2 28.1 L74.25 30.9 73.6 33.1 70.65 43.3 70.35 44.15 70.4 44.5 70.0 45.15 70.2 45.2 70.2 45.1 70.8 45.15 71.35 45.3 71.6 45.3 74.5 45.8 78.7 46.7 79.45 46.8 79.5 46.95 79.6 47.05 79.65 46.0 79.65 45.45 Q79.7 45.0 80.1 44.95 80.7 44.85 81.5 45.25 L82.6 45.8 84.65 46.7 86.25 47.55 88.05 48.7 88.7 49.25 Q89.15 49.45 89.65 49.95 L91.3 51.55 93.9 54.65 96.1 57.75 97.9 60.85 101.45 66.8 Q104.45 72.15 104.45 73.05 L104.45 73.15 104.8 74.15 Q104.8 74.9 102.05 77.5 L100.95 78.55 101.1 78.95 101.65 79.8 102.3 81.55 103.6 85.05 105.6 92.0 107.25 98.85 Q108.1 103.0 108.1 105.9 L108.05 106.4 108.1 106.75 107.75 108.85 107.3 110.65 105.4 114.5 105.25 114.9 106.1 115.0 108.7 115.15 109.15 115.3 110.1 115.5 112.6 116.65 118.15 119.8 Q119.95 121.05 121.05 123.85 121.95 126.1 121.95 127.65 121.95 129.05 120.8 133.9 L119.9 137.0 118.85 139.25 118.15 140.5 116.65 143.4 112.2 149.25 109.45 152.25 106.65 155.15 103.8 158.0 100.9 160.95 90.4 172.65 87.85 175.5 85.3 178.5 82.6 181.3 Q81.1 182.85 80.7 183.95 L81.55 184.85 83.55 186.45 Q84.8 187.75 84.8 189.6 L84.75 190.95 84.05 192.35 83.8 192.65 83.1 193.1 81.8 193.45 78.55 193.95 74.2 194.3 68.35 194.2 66.55 194.0 65.6 193.95 64.55 193.65 61.85 192.9 58.95 191.2 Q57.3 189.85 52.5 186.5 L49.5 184.25 Q47.7 182.95 45.7 182.15 L43.8 181.5 Q42.45 180.95 42.0 180.35 L41.25 179.25 41.25 178.1 Q41.25 176.3 41.55 175.25 41.85 174.1 42.95 172.05 43.65 170.7 45.65 169.05 47.7 167.0 48.8 166.05 49.9 165.05 52.3 163.05 L55.85 160.05 57.15 158.55 58.5 157.05 61.15 154.25 60.05 153.9 59.4 153.4 57.95 153.55 57.95 153.65 56.55 153.5 55.6 153.7 51.35 153.85 50.1 153.95 49.85 154.1 47.45 154.25 43.7 154.1 43.7 154.0 41.55 153.85 40.05 153.75 38.45 153.65 36.3 153.85 35.6 154.05 34.1 158.2 Q33.7 159.45 33.65 160.65 L33.65 163.05 Q33.65 166.65 33.9 168.05 L35.0 173.75 36.1 179.1 36.15 180.4 36.35 181.8 Q36.8 183.0 36.85 184.15 L36.95 184.8 37.7 186.0 39.4 188.55 40.65 190.65 Q41.85 192.85 41.85 193.5 L41.55 194.6 41.2 195.5 Q40.25 196.6 35.2 196.6 L24.35 196.3 21.8 195.8 18.8 195.1 17.25 194.3 Q16.6 193.85 16.4 193.3 L16.3 192.3 16.2 190.4 Q16.2 189.2 16.55 187.6 L17.0 185.2 17.25 180.35 Q17.25 177.75 16.55 175.05 15.75 172.15 14.3 170.0 L10.6 164.8 8.8 162.3 7.1 159.65 Q5.9 157.9 4.25 153.85 L2.55 149.35 Q2.1 148.3 1.9 146.75 L1.55 144.2 Q0.2 140.15 0.2 139.0 L0.25 138.5 0.0 136.15 Q0.0 135.2 0.35 134.05 0.65 132.95 1.0 132.5 L1.9 130.75 Q2.45 129.55 3.1 128.9 L4.05 127.75 3.85 126.7 3.9 124.75 3.9 122.75 3.65 120.8 Q3.65 116.6 4.2 115.15 L4.7 112.35 5.0 110.95 5.0 110.2 5.25 109.7 4.85 108.15 4.25 106.2 3.85 105.15 3.6 103.4 Q3.25 101.85 3.25 99.9 L3.1 93.05 Q3.1 86.95 3.5 83.25 3.5 81.65 4.3 78.35 L4.8 75.9 5.15 74.7 5.15 74.6 1.9 73.45 Q0.85 72.8 0.85 71.85 0.85 70.6 2.35 67.15 3.55 64.1 4.85 62.5 L8.15 57.8 9.65 55.45 11.45 53.1 15.4 48.4 Q16.5 46.95 17.45 46.15 L17.7 45.95 17.7 46.05 18.3 45.55 Q19.0 45.0 21.65 44.15 L26.05 42.7 28.45 41.95 29.55 41.85 29.8 41.9 30.1 42.35 30.45 43.2 Q30.9 42.85 31.9 42.9 L32.05 42.7 33.1 42.4 35.8 41.85 37.8 41.6 41.1 40.5 Q41.2 40.45 42.15 39.95 L42.75 39.8 42.95 39.5 43.7 38.5 42.85 37.4 42.1 36.75 41.8 36.2 Q41.65 35.95 41.2 35.65 L40.55 35.25 Q40.0 34.75 40.0 34.0 L40.2 33.3 40.4 32.5 40.3 32.05 Q39.25 32.35 38.65 31.5 38.15 30.9 38.15 30.25 L38.7 28.45 37.7 27.3 Q36.65 26.35 36.65 25.4 36.65 24.7 37.2 23.95 37.75 23.25 37.75 22.3 L37.6 21.8 37.0 21.15 36.8 20.35 Q36.3 20.9 35.9 20.9 35.25 20.9 35.05 20.5 L34.95 20.05 34.95 19.95 34.95 19.9 34.95 19.35 Q34.95 18.2 35.3 17.6 L37.1 15.5 Q38.0 14.55 38.3 13.5 38.3 13.0 38.6 12.55 L38.55 11.65 38.7 9.3 M41.95 25.75 Q41.55 26.3 41.55 28.0 41.55 29.6 42.6 31.25 43.5 32.7 44.8 33.55 L45.0 33.5 45.2 33.8 45.6 34.0 46.45 34.65 46.7 33.45 Q46.7 32.25 45.75 31.25 L44.35 29.7 43.7 28.8 42.95 27.8 Q42.35 26.6 42.35 25.95 L42.45 24.85 41.95 25.75 M64.85 13.85 L62.95 14.25 62.6 14.25 62.7 15.45 Q62.7 16.55 61.9 17.65 L60.35 18.95 59.7 18.95 59.65 18.6 Q59.65 18.5 60.35 18.0 L61.35 17.15 Q61.75 16.5 61.75 15.45 L61.45 14.25 58.75 13.9 56.15 13.5 Q54.6 13.5 53.75 15.7 53.35 16.7 53.15 18.15 52.55 21.4 52.55 22.65 L52.75 24.4 52.9 25.9 52.55 28.05 52.15 29.75 Q52.15 30.35 52.3 30.8 L52.8 32.1 Q53.3 33.45 55.65 34.15 L55.65 34.0 55.85 33.9 55.8 34.05 56.3 36.2 56.9 38.1 Q57.1 38.85 57.95 40.2 58.85 41.65 59.7 41.95 L59.8 42.15 61.45 42.4 Q62.25 42.8 62.75 42.8 L64.25 41.8 65.3 40.55 65.0 40.3 63.45 40.25 63.4 39.95 Q63.4 39.8 64.55 39.45 65.65 39.15 65.65 38.8 65.65 38.4 65.1 38.15 L62.6 38.25 62.5 38.3 62.2 38.25 Q61.5 38.15 61.4 37.8 L61.3 37.1 61.8 36.45 63.0 35.0 Q63.75 34.25 64.85 33.9 L65.05 33.8 63.25 32.4 Q62.4 31.7 62.4 31.15 62.4 30.45 63.6 29.55 64.95 28.5 66.5 28.5 67.95 28.5 67.8 29.75 L67.75 30.25 67.35 30.85 70.15 30.85 Q68.0 27.8 66.9 23.3 L66.05 23.85 65.2 24.5 64.65 25.15 Q64.15 25.5 62.95 25.5 L59.55 25.25 58.25 25.0 56.6 24.8 56.4 24.5 Q56.4 23.7 59.9 22.6 L60.65 22.25 61.85 21.9 62.8 21.45 66.55 21.15 68.95 21.35 69.5 21.5 69.55 21.35 Q69.55 20.45 68.7 20.0 L67.3 19.55 Q66.3 19.15 65.95 18.8 L65.7 17.85 Q65.7 17.4 66.3 16.35 L66.85 14.8 66.55 14.15 66.1 14.75 Q65.6 15.95 65.15 15.95 L64.7 15.5 64.55 14.9 Q64.55 14.5 64.95 13.85 L64.85 13.85 M73.35 18.8 L73.4 18.4 73.1 17.3 72.85 17.65 72.9 17.75 73.35 18.8 M70.25 25.75 Q69.85 25.75 69.5 26.65 L69.35 27.1 69.9 28.6 70.5 29.6 70.9 28.4 71.2 27.15 70.95 26.3 Q70.65 25.75 70.25 25.75 M46.0 39.0 Q46.0 41.3 44.85 44.85 L44.05 46.9 45.4 48.25 Q45.65 48.6 46.55 49.25 L47.8 50.25 49.9 52.2 53.8 56.2 55.05 57.7 57.3 55.7 Q59.6 53.15 59.6 51.95 L59.45 51.55 57.25 51.15 56.6 51.0 54.95 50.5 52.3 49.3 51.55 48.85 Q50.65 48.15 50.55 47.0 L50.55 44.9 Q50.2 43.05 48.9 40.85 L48.05 39.75 47.5 39.0 45.9 37.7 46.0 39.0 M83.75 92.9 L82.5 89.45 81.55 87.65 80.55 86.0 78.5 81.35 78.3 81.85 Q78.05 82.95 76.2 86.75 L70.8 96.5 Q67.15 102.15 66.25 106.25 65.15 111.35 65.25 115.05 L65.6 115.4 Q66.95 114.9 68.0 114.75 L72.8 114.45 79.8 113.95 86.0 113.55 86.05 113.7 86.95 112.15 Q88.6 108.95 88.95 108.5 89.4 107.85 89.55 106.6 L89.7 105.9 89.3 104.95 88.5 103.25 86.9 99.75 85.15 96.3 83.75 92.9" fill="#000000" fill-rule="evenodd" stroke="none"/>
    <path d="M64.85 13.85 L64.95 13.85 Q64.55 14.5 64.55 14.9 L64.7 15.5 65.15 15.95 Q65.6 15.95 66.1 14.75 L66.55 14.15 66.85 14.8 66.3 16.35 Q65.7 17.4 65.7 17.85 L65.95 18.8 Q66.3 19.15 67.3 19.55 L68.7 20.0 Q69.55 20.45 69.55 21.35 L69.5 21.5 68.95 21.35 66.55 21.15 62.8 21.45 61.85 21.9 60.65 22.25 59.9 22.6 Q56.4 23.7 56.4 24.5 L56.6 24.8 58.25 25.0 59.55 25.25 62.95 25.5 Q64.15 25.5 64.65 25.15 L65.2 24.5 66.05 23.85 66.9 23.3 Q68.0 27.8 70.15 30.85 L67.35 30.85 67.75 30.25 67.8 29.75 Q67.95 28.5 66.5 28.5 64.95 28.5 63.6 29.55 62.4 30.45 62.4 31.15 62.4 31.7 63.25 32.4 L65.05 33.8 64.85 33.9 Q63.75 34.25 63.0 35.0 L61.8 36.45 61.3 37.1 61.4 37.8 Q61.5 38.15 62.2 38.25 L62.5 38.3 62.6 38.25 65.1 38.15 Q65.65 38.4 65.65 38.8 65.65 39.15 64.55 39.45 63.4 39.8 63.4 39.95 L63.45 40.25 65.0 40.3 65.3 40.55 64.25 41.8 62.75 42.8 Q62.25 42.8 61.45 42.4 L59.8 42.15 59.7 41.95 Q58.85 41.65 57.95 40.2 57.1 38.85 56.9 38.1 L56.3 36.2 55.8 34.05 55.85 33.9 55.65 34.0 55.65 34.15 Q53.3 33.45 52.8 32.1 L52.3 30.8 Q52.15 30.35 52.15 29.75 L52.55 28.05 52.9 25.9 52.75 24.4 52.55 22.65 Q52.55 21.4 53.15 18.15 53.35 16.7 53.75 15.7 54.6 13.5 56.15 13.5 L58.75 13.9 61.45 14.25 61.75 15.45 Q61.75 16.5 61.35 17.15 L60.35 18.0 Q59.65 18.5 59.65 18.6 L59.7 18.95 60.35 18.95 61.9 17.65 Q62.7 16.55 62.7 15.45 L62.6 14.25 62.95 14.25 64.85 13.85 M41.95 25.75 L42.45 24.85 42.35 25.95 Q42.35 26.6 42.95 27.8 L43.7 28.8 44.35 29.7 45.75 31.25 Q46.7 32.25 46.7 33.45 L46.45 34.65 45.6 34.0 45.2 33.8 45.0 33.5 44.8 33.55 Q43.5 32.7 42.6 31.25 41.55 29.6 41.55 28.0 41.55 26.3 41.95 25.75 M46.0 39.0 L45.9 37.7 47.5 39.0 48.05 39.75 48.9 40.85 Q50.2 43.05 50.55 44.9 L50.55 47.0 Q50.65 48.15 51.55 48.85 L52.3 49.3 54.95 50.5 56.6 51.0 57.25 51.15 59.45 51.55 59.6 51.95 Q59.6 53.15 57.3 55.7 L55.05 57.7 53.8 56.2 49.9 52.2 47.8 50.25 46.55 49.25 Q45.65 48.6 45.4 48.25 L44.05 46.9 44.85 44.85 Q46.0 41.3 46.0 39.0" fill="url(#gradient0)" fill-rule="evenodd" stroke="none"/>
    <path d="M70.25 25.75 Q70.65 25.75 70.95 26.3 L71.2 27.15 70.9 28.4 70.5 29.6 69.9 28.6 69.35 27.1 69.5 26.65 Q69.85 25.75 70.25 25.75" fill="#663f6b" fill-rule="evenodd" stroke="none"/>
  </g>
  <defs>
    <linearGradient gradientTransform="matrix(0.0, -0.0281, 0.0179, 0.0, 57.85, 35.85)" gradientUnits="userSpaceOnUse" id="gradient0" spreadMethod="pad" x1="-819.2" x2="819.2">
      <stop offset="0.0" stop-color="#1d1320"/>
      <stop offset="0.9882352941176471" stop-color="#663f6b"/>
    </linearGradient>
  </defs>
</svg>
