<?xml version="1.0" encoding="UTF-8" standalone="no"?>
<svg xmlns:xlink="http://www.w3.org/1999/xlink" height="485.2px" width="934.85px" xmlns="http://www.w3.org/2000/svg">
  <g transform="matrix(1.0, 0.0, 0.0, 1.0, 409.45, 259.6)">
    <path d="M524.9 -259.1 L524.9 225.1 -408.95 225.1 -408.95 -259.1 524.9 -259.1" fill="url(#gradient0)" fill-rule="evenodd" stroke="none"/>
    <path d="M524.9 -259.1 L524.9 225.1 -408.95 225.1 -408.95 -259.1 524.9 -259.1 Z" fill="none" stroke="#000000" stroke-linecap="round" stroke-linejoin="round" stroke-width="1.0"/>
    <path d="M148.3 -103.05 L151.2 -106.8 Q153.45 -109.0 156.85 -110.55 162.5 -113.15 164.05 -114.25 L166.9 -116.15 168.3 -116.9 168.7 -117.05 170.7 -117.35 173.0 -117.55 174.95 -117.35 Q176.0 -117.35 178.1 -118.2 L183.2 -118.55 Q185.35 -118.0 185.65 -117.05 186.0 -116.15 187.65 -115.3 L189.95 -114.75 191.45 -114.05 Q192.55 -113.2 192.25 -111.7 L191.65 -110.25 190.65 -108.25 Q190.3 -107.65 190.4 -106.3 190.35 -104.95 192.35 -102.25 192.95 -101.45 192.75 -100.35 L191.95 -98.3 190.2 -94.4 189.35 -92.4 188.85 -90.9 188.95 -90.6 188.5 -89.7 Q188.3 -89.4 188.2 -88.0 187.95 -85.9 187.4 -84.7 L187.15 -84.3 188.1 -84.75 188.95 -85.2 191.7 -85.65 Q193.5 -85.65 193.9 -85.25 194.35 -84.9 195.65 -84.9 L198.75 -85.25 200.2 -84.95 201.05 -84.7 203.2 -85.05 205.75 -85.65 207.3 -86.15 208.5 -86.35 209.3 -86.45 209.9 -86.9 209.9 -86.65 210.2 -86.55 211.3 -86.95 212.3 -87.4 215.2 -87.65 216.15 -87.9 217.75 -87.95 219.0 -88.1 222.05 -88.25 222.35 -88.25 222.35 -88.4 223.65 -88.3 225.2 -88.05 Q226.25 -88.15 227.85 -87.15 228.05 -86.95 229.3 -86.7 L230.55 -86.25 231.45 -85.15 Q233.25 -83.85 233.65 -82.8 L234.55 -81.4 234.55 -81.15 234.7 -80.75 235.05 -80.1 235.8 -78.8 236.15 -77.6 236.65 -74.9 236.8 -72.15 236.95 -69.45 237.3 -58.5 237.8 -55.75 238.25 -53.05 238.2 -47.6 238.05 -47.4 238.0 -47.3 Q237.5 -46.3 235.65 -44.95 L235.2 -44.65 232.35 -42.65 232.35 -42.4 232.3 -41.25 232.1 -39.05 Q231.8 -38.0 231.95 -36.45 L232.15 -34.65 232.2 -34.3 232.05 -30.3 231.6 -25.95 231.35 -23.85 Q231.15 -22.45 231.25 -21.55 L232.4 -8.5 232.6 -4.1 Q232.6 -2.65 233.15 0.3 L234.25 9.0 Q234.7 11.95 234.25 17.75 L234.15 19.9 233.9 22.15 233.35 24.3 232.95 25.55 232.95 25.65 Q233.25 25.55 233.4 26.0 L233.5 27.0 233.4 28.75 233.4 29.1 232.9 32.35 Q232.7 33.55 232.8 34.1 L232.85 35.0 232.7 35.9 232.3 37.6 Q232.05 38.75 232.6 39.45 233.45 40.75 232.65 43.0 231.55 46.1 231.5 46.7 231.45 47.95 232.0 50.2 L232.85 53.8 232.8 57.45 Q232.6 59.7 233.0 61.0 L233.6 64.6 233.45 65.5 233.25 66.35 233.6 68.15 Q233.4 73.6 233.5 75.25 L233.65 78.8 233.55 80.0 Q233.45 81.65 231.85 85.9 L231.6 86.55 228.35 94.0 225.75 98.85 Q224.6 101.25 224.05 103.9 223.65 105.8 223.4 109.0 L222.6 113.8 Q221.8 117.3 220.95 119.1 L218.2 124.0 216.0 127.5 214.8 131.9 214.6 134.65 214.65 137.45 214.65 140.25 214.35 143.0 213.25 148.5 212.15 154.0 Q211.55 157.35 211.8 159.6 L212.15 165.25 212.1 167.15 213.6 166.8 214.7 167.0 215.1 167.5 214.45 167.85 213.45 167.5 212.05 167.85 211.6 170.65 Q211.15 170.75 211.2 170.25 L211.35 169.55 211.4 168.05 210.95 168.15 210.25 167.9 205.95 168.85 197.5 169.75 188.3 168.95 184.7 168.15 Q180.65 166.9 179.05 166.6 L178.25 166.5 177.05 166.6 Q176.55 169.2 176.7 171.15 L176.3 171.3 Q176.0 169.35 176.35 166.65 L175.8 166.7 174.95 166.65 175.0 166.35 175.15 166.15 176.45 166.05 176.8 164.3 178.5 157.4 Q178.7 156.2 178.35 153.95 L178.1 152.15 Q177.85 151.0 177.3 150.5 175.3 148.7 175.1 147.0 L175.05 145.45 175.05 145.35 Q174.85 144.6 174.95 142.95 175.0 141.1 174.3 139.95 L173.05 137.1 172.0 134.05 Q170.95 131.2 171.05 128.15 171.05 125.9 171.85 122.25 L172.6 119.25 Q173.0 117.5 173.0 116.35 L172.5 113.8 172.4 113.35 Q171.85 111.35 171.8 110.45 L171.9 107.45 171.8 104.5 Q171.45 101.95 173.1 98.75 L172.2 98.45 171.95 98.2 171.15 97.85 170.45 97.85 169.55 99.05 169.1 99.55 167.65 101.25 Q166.6 102.65 165.7 104.5 L162.15 111.2 157.6 117.85 156.4 119.5 155.25 121.2 154.25 122.65 154.65 122.35 152.95 124.5 151.6 126.1 150.65 128.0 149.55 129.75 148.55 132.3 144.7 139.05 Q144.05 140.2 143.15 142.45 L142.25 144.1 Q141.9 144.6 141.6 145.65 L137.75 152.75 137.45 153.2 136.85 154.5 135.5 156.3 134.35 157.85 133.1 159.7 Q132.7 160.6 132.9 162.2 L133.3 163.9 133.3 165.5 Q133.3 165.75 133.75 165.7 L134.25 165.75 134.35 166.8 134.55 167.4 134.55 167.7 134.35 168.0 133.1 168.2 131.45 168.5 121.95 168.7 115.15 168.35 112.4 167.95 109.5 167.6 103.0 167.7 101.8 167.6 99.7 167.45 99.85 166.95 101.6 166.95 101.65 166.2 102.2 164.85 104.25 161.2 105.3 158.5 106.55 155.9 108.2 150.65 108.85 148.05 Q109.2 146.25 109.5 145.4 L110.45 142.45 110.3 142.5 110.85 141.15 111.0 140.25 111.6 139.1 111.75 138.65 113.05 134.7 114.0 130.75 115.05 126.95 117.65 119.15 118.25 117.2 118.55 116.35 118.55 116.25 118.7 115.3 119.35 113.1 119.2 113.25 118.95 113.25 Q120.15 110.0 120.6 106.2 120.95 102.4 121.9 99.25 L124.35 91.05 Q125.05 88.9 126.8 85.35 L128.75 81.65 130.95 78.1 131.95 75.55 132.95 72.9 Q133.35 71.25 135.0 67.85 L138.1 62.1 141.15 56.5 143.15 52.0 145.05 47.55 146.25 45.5 146.1 45.5 146.0 45.6 145.7 45.4 Q145.3 44.85 146.0 43.0 L147.25 40.3 148.1 38.85 148.6 37.55 150.15 34.9 150.85 33.4 Q147.95 34.0 144.9 35.3 L139.25 37.75 Q135.25 39.3 133.85 40.15 130.0 42.35 129.55 42.35 L129.15 42.3 129.2 42.25 126.6 43.7 Q125.6 44.25 124.55 44.95 L122.4 46.45 Q120.35 47.9 117.6 49.05 L113.45 50.7 112.0 53.25 109.85 57.0 109.95 56.95 109.5 57.8 101.7 70.9 99.45 74.55 96.5 79.6 95.15 82.15 93.6 84.6 90.55 89.55 87.9 94.5 87.95 94.65 87.75 95.1 87.55 95.55 87.0 96.5 Q86.65 97.15 86.25 98.45 L84.65 102.25 84.65 102.3 84.6 102.4 84.6 102.9 Q84.65 104.0 83.55 106.25 L82.2 109.65 81.0 112.95 80.7 113.4 80.5 113.8 77.7 117.4 Q75.2 120.1 74.2 122.2 L73.65 124.0 72.9 126.15 72.25 127.15 72.3 127.25 71.5 127.7 69.25 127.45 68.95 127.0 68.75 126.15 68.9 124.35 69.1 122.6 Q69.35 121.6 69.7 120.85 70.15 119.9 71.55 118.3 L73.65 115.95 70.1 118.55 Q67.8 120.3 67.0 121.35 L62.85 126.15 62.1 126.9 Q61.6 127.4 61.2 128.25 L60.5 129.7 59.0 132.45 57.55 135.25 56.5 136.9 Q55.8 137.85 55.05 137.9 L54.95 137.8 54.85 137.85 53.75 137.9 53.7 137.95 Q52.05 137.95 51.95 137.35 L52.3 136.4 54.55 132.2 56.3 129.1 56.75 128.25 Q58.0 125.65 59.2 124.15 L60.6 122.35 59.0 124.0 58.35 124.6 56.8 126.05 55.9 126.85 53.85 129.05 53.7 129.2 50.65 133.75 Q47.65 138.2 47.3 138.2 44.2 138.2 43.9 137.45 L44.25 136.5 45.15 135.05 45.45 134.65 46.15 133.7 45.3 133.75 Q43.6 133.75 43.55 133.25 L44.0 132.35 48.0 125.85 50.2 122.6 51.6 120.75 52.35 119.95 53.6 118.4 54.5 117.2 53.3 118.35 50.4 121.25 48.45 123.55 Q46.95 125.25 46.3 125.25 45.4 125.25 45.05 124.75 L44.95 124.3 45.0 124.05 47.8 120.35 51.15 116.35 Q55.45 111.7 59.0 108.75 L63.3 104.8 67.25 101.1 68.2 100.25 71.4 96.8 73.95 93.8 75.25 91.8 76.25 89.9 79.8 81.45 83.05 73.7 85.8 67.0 86.35 65.6 Q87.35 62.8 87.9 61.6 L89.2 58.7 89.15 58.7 Q87.25 59.7 86.9 59.7 86.0 59.7 85.5 59.25 L84.85 58.55 Q84.4 58.3 85.0 57.1 L85.45 56.25 86.35 55.35 87.5 54.5 Q86.25 54.45 87.2 52.55 L87.95 50.45 88.45 49.55 Q88.75 49.15 89.7 48.45 L91.15 47.45 91.65 47.1 Q91.3 46.8 91.25 46.0 91.1 45.5 91.4 44.85 L92.4 42.65 Q93.35 40.65 94.0 40.1 94.5 39.7 96.45 38.7 L96.5 38.5 Q96.55 38.35 97.6 37.9 98.1 37.6 98.55 37.45 L98.8 36.8 99.7 34.8 99.9 34.2 101.2 31.2 101.55 30.45 101.8 29.95 102.1 29.45 102.5 28.4 103.45 26.2 104.75 21.9 106.25 17.5 107.05 15.35 108.15 13.2 111.7 4.45 112.4 2.65 113.3 -0.5 113.95 -2.65 Q113.95 -3.35 115.0 -5.65 L116.7 -9.0 Q118.45 -12.55 120.85 -18.9 123.25 -25.3 125.05 -29.05 L125.9 -30.7 128.8 -35.55 132.8 -41.1 135.6 -44.15 138.7 -47.2 140.45 -48.7 142.2 -50.2 Q143.25 -50.9 143.85 -51.7 L144.95 -53.25 145.0 -53.25 Q145.35 -54.25 145.15 -55.4 L144.6 -58.1 143.95 -59.3 142.85 -60.5 142.45 -61.0 141.55 -61.4 141.05 -61.6 140.1 -61.75 Q139.6 -61.8 139.35 -62.2 138.45 -63.55 138.5 -64.9 L138.45 -70.15 138.1 -71.45 Q137.95 -72.25 138.15 -72.65 L138.1 -72.95 137.25 -73.25 137.15 -73.75 137.15 -74.75 137.35 -75.8 137.65 -77.75 Q137.8 -79.0 137.45 -79.9 L137.2 -80.95 137.1 -82.0 136.65 -84.05 Q136.25 -84.85 136.7 -86.05 L137.55 -88.1 139.65 -92.0 141.6 -95.65 Q141.85 -96.4 143.05 -97.6 L145.05 -99.4 148.3 -103.05 M138.9 -0.75 L136.4 4.95 135.5 7.75 134.45 10.55 129.3 21.7 126.35 27.65 127.2 27.7 128.65 27.7 129.6 27.4 135.1 25.05 142.3 21.5 148.6 18.1 150.65 16.9 Q150.25 14.4 149.65 13.15 L147.7 8.95 Q146.3 6.45 143.95 4.55 141.65 2.7 139.7 -2.2 L138.9 -0.75 M196.8 -29.4 L196.85 -29.45 196.8 -29.45 196.8 -29.4 M422.4 -102.6 Q422.25 -102.55 422.4 -102.8 L427.1 -105.6 432.9 -108.85 Q435.85 -110.4 440.25 -111.95 L444.5 -113.1 448.2 -113.45 449.45 -113.35 450.15 -113.35 451.15 -113.5 452.1 -113.35 452.3 -113.35 453.55 -112.95 454.25 -113.0 454.7 -112.6 454.8 -112.75 Q455.45 -112.65 456.15 -111.75 L456.35 -111.6 Q457.55 -111.1 458.4 -109.6 L458.6 -109.3 459.8 -107.95 463.05 -105.2 464.45 -103.9 464.8 -103.55 465.25 -103.25 465.8 -103.05 465.7 -102.75 Q465.3 -101.95 463.55 -101.95 L462.65 -101.95 462.6 -101.85 462.4 -100.25 462.6 -97.15 463.0 -93.95 463.6 -92.6 Q464.15 -91.25 464.0 -90.9 L463.75 -90.6 462.45 -90.45 Q461.3 -90.45 460.45 -91.05 L460.25 -90.1 Q459.7 -87.75 459.65 -86.25 L459.5 -82.45 Q459.4 -81.15 459.95 -78.75 459.75 -78.35 459.15 -78.35 458.1 -78.35 456.65 -79.75 L455.75 -76.25 Q455.4 -74.85 455.5 -72.6 L455.4 -70.4 454.85 -69.7 Q453.55 -69.7 452.4 -71.0 L451.7 -72.0 Q450.75 -69.9 450.35 -68.15 L449.85 -65.6 449.7 -63.2 449.35 -63.1 Q448.75 -63.1 447.55 -64.05 L446.3 -65.2 Q445.85 -65.65 445.55 -66.45 L445.5 -66.35 444.35 -64.25 443.75 -62.5 443.8 -61.7 443.7 -60.85 Q443.6 -60.75 443.35 -60.75 442.7 -60.75 441.4 -62.55 L440.75 -63.4 440.6 -63.6 440.0 -62.5 439.0 -60.2 438.65 -59.5 Q438.6 -59.35 438.35 -59.35 L437.0 -60.25 Q436.65 -60.4 436.25 -61.3 L436.0 -62.1 435.9 -61.85 435.05 -59.95 Q435.75 -59.45 436.7 -59.0 L437.45 -58.65 443.45 -57.6 445.4 -57.15 446.5 -56.25 Q448.5 -54.7 448.85 -52.75 450.5 -41.85 450.55 -35.55 L450.65 -27.0 450.8 -18.3 450.6 -9.7 Q450.15 -4.8 448.35 -1.15 L448.1 -0.85 448.1 -0.9 448.0 -0.75 Q447.1 1.2 440.9 7.75 L433.7 15.0 425.7 22.7 425.7 22.75 425.45 23.0 425.35 23.25 423.6 24.9 419.45 29.35 415.3 34.2 414.15 39.65 412.0 47.15 408.45 57.3 408.35 57.6 407.85 58.65 406.95 60.8 399.45 75.35 396.0 81.55 391.55 89.9 389.65 93.9 389.55 93.9 389.05 95.15 387.9 97.4 385.5 101.95 Q384.25 104.5 383.3 107.7 L381.75 113.1 379.8 118.65 378.05 124.25 376.75 129.8 374.9 135.45 Q372.3 142.0 370.1 146.5 L369.25 147.9 369.2 147.9 368.5 149.3 365.65 155.1 357.15 173.25 352.85 182.25 350.95 186.75 349.3 190.5 350.8 190.6 350.95 190.85 350.65 191.85 Q350.35 192.5 345.7 193.85 340.4 195.35 336.2 195.35 L334.9 195.25 334.2 196.5 334.8 195.2 333.85 195.1 333.85 194.85 334.15 193.95 Q334.45 193.3 335.9 192.7 L338.55 186.6 Q341.15 180.65 342.0 176.7 L342.8 174.3 343.55 171.75 344.25 166.85 344.95 161.95 Q345.4 159.05 345.95 157.05 346.95 153.5 349.75 147.1 352.75 140.3 353.7 137.3 355.7 131.2 355.75 127.5 L355.75 122.5 356.25 118.25 356.4 117.6 357.25 114.7 359.75 108.9 361.4 102.25 363.25 93.05 364.8 83.65 Q366.3 74.8 369.15 65.45 L371.35 58.95 370.1 59.35 367.45 60.3 359.6 71.25 345.8 88.25 Q341.2 93.7 333.35 105.45 L327.75 112.3 326.9 113.6 325.5 115.95 324.2 118.25 322.6 120.65 318.4 125.3 313.85 130.05 309.3 134.75 Q306.5 137.6 305.2 139.4 L298.2 148.8 Q292.3 157.0 283.65 166.1 L278.75 171.15 Q275.65 174.4 273.4 177.45 L268.6 183.8 Q266.15 187.2 264.8 190.0 264.05 191.55 262.15 196.75 L261.95 197.15 Q263.35 197.7 263.0 198.35 262.55 199.3 261.7 199.6 L259.05 199.85 Q256.4 199.85 252.7 197.65 249.4 195.7 249.2 194.85 248.85 193.25 249.4 191.6 249.55 191.05 250.6 188.85 L251.85 186.55 Q252.85 185.25 254.55 184.85 L255.05 185.05 260.65 176.45 268.2 164.6 Q272.8 156.4 275.2 152.9 277.5 148.9 278.95 147.0 L280.9 144.05 Q281.75 142.7 282.55 141.8 283.65 139.95 286.75 135.9 L291.05 130.35 301.05 118.2 Q306.0 111.75 309.15 105.75 L312.45 98.8 312.5 98.8 314.85 94.35 317.6 89.1 319.9 84.25 321.25 81.8 321.35 81.55 321.4 81.5 Q325.3 74.1 329.35 67.35 L338.6 52.05 340.2 49.55 340.65 46.85 341.75 41.15 342.2 38.25 342.9 35.4 343.05 31.4 342.9 30.05 342.85 29.4 Q342.75 26.2 343.1 20.4 L343.15 15.1 Q343.25 11.85 343.65 9.75 344.35 5.9 344.8 4.0 L345.3 1.6 Q345.25 0.75 345.5 0.0 L346.45 -2.0 Q349.6 -8.6 359.85 -23.8 L367.2 -34.65 370.95 -40.15 373.05 -43.7 Q374.05 -45.8 377.65 -50.65 L382.55 -56.8 Q386.8 -61.55 389.15 -63.1 394.45 -66.75 401.65 -67.0 L402.95 -67.05 403.6 -67.0 403.65 -67.05 403.9 -67.05 403.85 -67.0 405.25 -66.95 405.3 -67.05 407.1 -69.65 405.3 -68.8 Q404.3 -68.05 401.95 -67.3 L401.3 -67.3 403.55 -70.0 404.5 -71.15 405.4 -72.55 405.35 -72.6 403.15 -72.0 Q401.0 -71.3 400.25 -71.15 L400.0 -71.45 400.75 -71.95 402.1 -72.9 403.8 -74.3 405.4 -75.75 406.65 -77.1 409.15 -80.25 410.45 -81.95 408.75 -80.65 406.8 -79.2 402.15 -76.5 401.9 -76.5 401.95 -76.7 404.75 -79.5 408.5 -83.35 411.05 -86.6 411.9 -88.1 Q411.25 -87.7 409.55 -86.95 407.15 -85.85 405.9 -85.5 L405.9 -85.75 408.35 -87.65 Q411.1 -89.6 412.45 -90.85 L413.85 -92.3 412.9 -92.2 412.75 -92.3 Q412.6 -92.05 412.75 -92.4 L414.5 -93.2 414.8 -93.3 414.95 -93.5 417.0 -95.9 417.0 -96.05 414.6 -95.5 414.65 -95.75 Q414.9 -96.2 416.25 -96.85 L418.25 -97.75 421.75 -99.75 Q424.85 -102.0 426.8 -103.7 L426.9 -103.75 422.75 -102.55 422.4 -102.6 M402.75 -68.25 L402.75 -68.2 402.8 -68.2 402.75 -68.25 M401.15 -71.7 L401.1 -71.75 401.1 -71.7 401.15 -71.7 M403.45 -77.65 L403.4 -77.6 403.45 -77.6 403.45 -77.65 M424.2 -103.45 L424.3 -103.45 424.3 -103.5 424.2 -103.45 M357.7 -3.75 L357.55 -3.7 357.3 -3.3 Q356.2 -1.05 355.7 1.4 L354.95 5.7 353.55 14.55 352.0 23.5 351.7 25.2 351.8 25.2 351.75 25.45 351.9 26.7 352.45 27.6 352.9 26.95 352.9 26.9 353.15 26.45 353.2 26.4 353.5 25.95 353.9 24.9 Q355.55 21.5 362.35 13.3 L368.7 4.9 369.0 4.25 370.0 2.55 Q371.3 -0.15 372.05 -4.0 L373.1 -10.6 374.2 -17.1 374.9 -20.25 375.6 -23.2 Q376.45 -26.55 378.55 -30.85 L379.2 -32.2 378.1 -30.65 376.4 -28.5 376.3 -28.5 372.7 -23.8 367.55 -17.1 361.75 -9.75 Q358.25 -5.4 357.7 -3.75 M436.2 -87.8 L436.35 -87.8 436.35 -87.85 436.2 -87.8 M415.6 -96.1 L415.45 -96.0 415.55 -96.0 415.6 -96.1 M416.6 -93.5 L416.45 -93.4 416.55 -93.4 416.6 -93.5 M407.05 -86.3 L407.15 -86.3 407.15 -86.4 407.05 -86.3 M430.0 -25.3 L430.1 -25.3 430.0 -25.05 429.9 -24.85 429.85 -24.75 427.2 -20.75 424.5 -17.2 424.0 -16.6 423.15 -15.55 421.1 -13.15 419.3 -10.75 416.7 -5.9 Q415.1 -2.55 414.9 -0.85 L414.9 -0.35 415.0 -0.4 414.95 0.1 414.95 0.8 414.95 0.9 415.35 4.85 415.35 4.9 415.95 7.8 416.4 9.7 416.55 9.6 416.65 9.6 416.6 9.85 416.5 10.0 416.65 10.5 416.65 10.65 417.0 11.9 Q417.0 12.55 417.35 13.95 L417.65 16.0 417.65 20.1 417.65 20.25 419.0 19.9 419.8 19.7 420.95 18.45 422.3 17.05 422.35 17.1 427.05 11.7 432.7 4.4 435.45 0.9 437.2 -2.2 436.95 -4.6 436.6 -8.25 435.2 -15.45 434.05 -18.95 Q433.3 -21.35 433.15 -22.65 L432.6 -26.2 432.15 -29.25 430.0 -25.3 M145.2 3.2 L145.65 3.55 144.75 2.8 144.65 2.75 145.2 3.2 M108.0 34.1 L108.1 34.05 107.65 34.15 107.6 34.2 108.0 34.1 M-49.4 -25.65 L-48.6 -25.8 -47.95 -25.95 -47.3 -26.25 -45.35 -26.9 -44.2 -26.7 Q-43.5 -26.7 -42.85 -27.05 L-42.25 -27.4 -38.9 -27.15 -38.0 -26.9 -36.7 -26.6 -35.55 -26.2 -34.85 -26.1 -34.2 -25.95 -34.15 -26.0 -33.7 -26.1 -33.4 -25.9 -29.65 -26.0 Q-27.55 -26.0 -26.9 -24.0 -26.75 -23.3 -27.15 -22.65 L-27.65 -21.8 -27.7 -20.7 -27.5 -20.45 -27.15 -18.55 Q-27.15 -17.6 -27.45 -16.65 L-27.7 -15.95 -27.7 -15.2 -27.75 -14.4 -28.05 -13.85 -28.85 -12.7 -29.0 -11.8 -29.1 -10.9 -29.85 -9.1 -30.85 -7.45 -30.85 -7.35 -31.1 -6.1 -31.25 -5.05 -31.2 -5.1 -31.55 -4.35 -31.8 -3.6 Q-32.45 -2.3 -33.2 -1.45 L-34.5 0.7 -35.8 3.5 -37.5 5.7 -45.4 15.9 -46.1 16.75 -46.2 17.1 -46.9 17.75 -46.75 17.8 -46.7 17.7 -46.1 17.75 -45.65 17.9 -45.4 17.9 -42.75 18.4 -38.95 19.3 -38.25 19.4 -38.3 19.55 -38.25 19.65 -37.7 18.6 -37.4 18.05 Q-37.15 17.6 -36.75 17.55 -36.1 17.45 -35.45 17.85 L-34.65 18.4 Q-34.0 18.6 -33.0 19.3 L-31.85 20.15 -30.6 21.3 -30.2 21.85 Q-29.85 22.05 -29.6 22.55 L-28.7 24.15 -27.6 27.25 Q-26.9 29.6 -26.9 30.35 L-26.6 33.45 Q-26.3 35.1 -25.95 39.4 -25.55 44.75 -25.95 45.65 L-26.0 45.75 Q-26.0 46.4 -26.15 46.75 -26.5 47.5 -30.5 50.1 L-32.15 51.15 -32.15 51.55 -32.05 52.4 -32.25 54.15 -32.6 57.65 -34.0 64.6 -35.65 71.45 Q-36.8 75.6 -38.2 78.5 L-38.5 79.0 -38.6 79.35 -40.0 81.45 -41.3 83.25 -45.05 87.1 -45.4 87.5 -44.6 87.6 -42.1 87.75 -41.7 87.9 -40.85 88.1 Q-40.25 88.35 -38.9 89.25 -36.3 90.9 -34.9 92.4 -33.7 93.65 -33.95 96.45 -34.15 98.7 -34.9 100.25 -35.55 101.65 -39.05 106.5 L-41.45 109.6 -43.6 111.85 -44.9 113.1 -47.8 116.0 Q-50.0 117.95 -55.1 121.85 L-59.3 124.85 -63.5 127.75 -67.7 130.6 Q-70.65 132.5 -72.05 133.55 L-88.2 145.25 -92.1 148.1 -96.1 151.1 -100.2 153.9 Q-102.45 155.45 -103.35 156.55 L-102.95 157.45 -101.7 159.05 Q-101.1 160.35 -102.0 162.2 L-102.7 163.55 -104.05 164.95 -104.45 165.25 -105.4 165.7 -106.85 166.05 -110.35 166.55 -114.85 166.9 -120.65 166.8 -122.35 166.6 -123.3 166.55 -124.2 166.25 -126.55 165.5 -128.6 163.8 -132.8 159.1 -134.7 156.85 Q-135.9 155.55 -137.5 154.75 L-139.1 154.1 Q-140.15 153.55 -140.3 152.95 L-140.55 151.85 -140.0 150.7 -138.3 147.85 -135.35 144.65 Q-134.0 143.3 -131.2 141.65 L-126.6 138.65 -121.65 135.65 -116.65 132.65 -114.65 131.15 -112.55 129.65 -108.55 126.85 -109.5 126.5 -109.9 126.0 -111.4 126.15 -111.45 126.25 -112.8 126.1 -113.85 126.3 -118.15 126.45 -119.45 126.55 -119.75 126.7 -122.25 126.85 -125.9 126.7 -125.85 126.6 -127.95 126.45 -129.4 126.35 -130.95 126.25 -133.2 126.45 -134.0 126.65 -137.5 130.8 -139.15 133.25 -140.3 135.65 -142.45 140.65 -144.15 146.35 -145.6 151.7 -146.2 153.0 -146.65 154.4 Q-146.8 155.6 -147.3 156.75 L-147.5 157.4 -147.35 158.6 -146.9 161.15 -146.65 163.25 Q-146.5 165.45 -146.85 166.1 L-147.65 167.2 -148.45 168.1 Q-149.95 169.2 -155.0 169.2 L-165.7 168.9 -168.0 168.4 -170.65 167.7 -171.8 166.9 Q-172.25 166.45 -172.2 165.9 L-171.8 164.9 -171.0 163.0 -169.3 160.2 -167.65 157.8 -165.05 152.95 Q-163.8 150.35 -163.2 147.65 -162.6 144.75 -163.0 142.6 -163.8 138.45 -164.2 137.4 L-164.8 134.9 -165.2 132.25 Q-165.55 130.5 -165.25 126.45 L-164.8 121.95 -164.15 119.35 -163.3 116.8 Q-162.7 112.75 -162.1 111.6 L-161.85 111.1 -160.95 108.75 -159.55 106.65 -158.2 105.1 -156.45 103.35 -154.35 101.5 -152.85 100.35 -152.5 99.3 -151.55 97.35 -150.55 95.35 -149.85 93.4 Q-147.85 89.2 -146.6 87.75 L-144.75 84.95 -143.75 83.55 -143.4 82.8 -142.9 82.3 -142.55 80.75 -142.2 78.8 -142.1 77.75 -141.5 76.0 Q-141.1 74.45 -140.15 72.5 L-137.0 65.65 Q-134.05 59.55 -131.85 55.85 -131.1 54.25 -128.7 50.95 L-127.0 48.5 -126.05 47.3 -126.0 47.2 Q-128.0 46.65 -128.7 46.05 -129.45 45.4 -129.0 44.45 -128.4 43.2 -125.2 39.75 -122.55 36.7 -120.45 35.1 L-114.9 30.4 -112.25 28.05 -109.3 25.7 -103.1 21.0 -99.95 18.75 -99.6 18.55 -99.65 18.65 -98.8 18.15 Q-97.85 17.6 -94.8 16.75 L-89.7 15.3 -86.95 14.55 -85.8 14.45 -85.55 14.5 Q-85.3 14.6 -85.45 14.95 L-85.55 15.8 -83.95 15.5 -83.7 15.3 -82.5 15.0 -79.55 14.45 -77.4 14.2 -73.6 13.1 -72.25 12.55 -71.6 12.4 -71.25 12.1 -70.0 11.1 -70.35 10.0 -70.75 9.35 -70.8 8.8 Q-70.8 8.55 -71.15 8.25 L-71.6 7.85 Q-71.9 7.35 -71.55 6.6 L-71.0 5.9 -70.4 5.1 -70.3 4.65 Q-71.5 4.95 -71.65 4.1 -71.9 3.5 -71.55 2.85 L-70.15 1.05 Q-70.05 0.85 -70.6 -0.1 -71.2 -1.05 -70.7 -2.0 L-69.45 -3.45 Q-68.6 -4.15 -68.1 -5.1 L-68.05 -5.6 -68.3 -6.25 -68.15 -7.05 Q-68.9 -6.5 -69.3 -6.5 -69.95 -6.5 -69.95 -6.9 L-69.85 -7.35 -69.8 -7.45 -69.75 -7.5 -69.5 -8.05 -68.3 -9.8 -65.5 -11.9 Q-64.1 -12.85 -63.3 -13.9 L-62.55 -14.85 -60.9 -18.1 -59.7 -19.3 -58.05 -20.45 Q-56.7 -21.2 -54.85 -22.65 L-53.5 -23.8 -53.25 -23.95 -53.25 -24.2 Q-53.0 -24.65 -51.7 -25.0 L-49.4 -25.65 M-30.75 -9.65 L-30.85 -8.6 -30.6 -9.0 -30.35 -10.1 -30.75 -9.75 -30.75 -9.65 M-55.95 60.25 L-56.15 58.6 -55.95 53.95 -56.4 54.45 Q-57.15 55.55 -60.85 59.35 L-70.95 69.1 Q-77.35 74.75 -80.25 78.85 -83.8 83.95 -85.5 87.65 L-85.3 88.0 -82.6 87.35 -77.65 87.05 -70.4 86.55 -64.0 86.15 -64.05 86.3 -62.4 84.75 -58.6 81.1 -57.1 79.2 -56.6 78.5 -56.55 77.55 -56.55 75.85 Q-56.35 73.35 -56.45 72.35 L-56.5 68.9 -56.25 65.5 -55.85 62.05 -55.95 60.25" fill="#000000" fill-opacity="0.101960786" fill-rule="evenodd" stroke="none"/>
  </g>
  <defs>
    <linearGradient gradientTransform="matrix(1.0E-4, -0.3085, 0.2955, 1.0E-4, 57.95, -17.0)" gradientUnits="userSpaceOnUse" id="gradient0" spreadMethod="pad" x1="-819.2" x2="819.2">
      <stop offset="0.0" stop-color="#1a1a1a"/>
      <stop offset="0.9882352941176471" stop-color="#444444"/>
    </linearGradient>
  </defs>
</svg>
