<?xml version="1.0" encoding="UTF-8" standalone="no"?>
<svg xmlns:xlink="http://www.w3.org/1999/xlink" height="317.0px" width="349.85px" xmlns="http://www.w3.org/2000/svg">
  <g transform="matrix(1.0, 0.0, 0.0, 1.0, 17.55, 0.0)">
    <path d="M127.15 297.7 L125.55 297.2 115.8 296.5 115.4 296.5 Q113.6 296.8 112.85 297.25 L111.3 297.75 Q110.8 297.75 110.3 297.25 L111.55 296.6 104.95 297.2 96.05 298.25 92.85 298.75 Q92.7 298.9 92.7 299.2 91.45 299.65 71.2 299.65 L44.7 298.85 40.0 298.35 33.8 297.35 31.0 296.95 28.05 296.4 27.05 296.1 25.7 295.75 18.4 295.15 16.7 294.75 14.6 294.6 14.6 294.7 Q14.6 295.3 14.0 295.65 L13.1 295.9 11.7 295.65 9.85 295.4 3.5 295.1 Q3.1 294.75 2.5 294.75 L0.1 295.35 -4.3 295.9 -9.8 295.15 -14.8 294.9 -16.0 294.5 Q-17.55 293.4 -17.55 291.1 -17.55 289.2 -16.0 280.2 L-14.4 271.25 Q-11.75 259.1 -9.15 251.5 -7.75 247.3 -4.65 241.35 L0.35 231.65 2.65 226.8 Q4.1 223.85 5.6 221.75 L6.85 219.95 Q8.55 215.0 11.7 211.15 14.7 206.85 16.4 205.0 L19.65 201.85 22.8 198.75 28.0 192.5 32.7 186.25 Q35.1 182.7 40.0 179.2 43.8 176.5 49.05 173.85 L53.35 170.85 57.05 167.9 Q59.55 166.15 61.4 165.45 63.7 164.55 67.7 164.6 L67.85 164.55 70.55 164.0 73.85 163.6 76.55 163.5 87.1 164.65 94.55 165.65 100.25 165.8 Q103.95 166.1 106.55 167.85 108.15 168.95 111.05 170.35 113.8 171.7 114.9 172.5 116.85 173.95 119.55 175.45 L124.05 177.75 Q126.5 179.0 128.1 179.15 L134.8 180.25 136.9 180.9 138.05 181.35 140.45 181.45 142.3 181.25 142.7 181.3 Q143.95 180.7 146.0 180.65 149.45 180.55 152.8 182.1 L155.0 183.3 155.05 183.25 155.05 182.9 Q162.25 179.05 166.55 173.45 169.7 169.4 171.95 163.25 175.3 154.25 175.45 144.45 L175.3 144.5 Q174.55 144.5 174.55 144.25 L171.85 140.2 Q170.8 138.25 170.8 136.45 170.8 133.35 171.4 129.9 172.05 126.45 172.05 123.3 172.05 121.15 171.85 120.7 L169.45 117.0 167.3 113.85 Q166.5 112.95 164.3 112.35 162.55 111.85 162.55 111.05 162.55 110.45 164.1 109.5 L166.65 108.0 164.05 107.0 Q163.55 106.65 163.55 105.8 163.55 105.25 164.7 104.6 L166.7 103.5 Q169.15 101.8 169.3 100.75 169.3 98.9 169.55 98.0 L170.05 95.15 Q170.05 93.75 169.15 92.05 L168.85 91.5 168.65 91.5 168.55 91.35 168.4 90.2 168.3 89.4 168.05 88.35 167.2 89.55 Q166.55 90.4 165.55 90.65 L165.4 90.35 Q165.4 88.35 166.3 85.2 L167.95 80.0 Q168.55 78.05 170.1 74.8 L172.55 69.5 Q170.45 70.4 169.1 70.4 L168.55 70.25 168.55 69.1 172.65 62.75 176.8 56.9 174.35 56.5 Q174.05 56.3 174.05 55.8 174.05 55.45 174.7 54.85 175.35 54.25 176.2 53.85 L177.6 52.75 Q178.45 51.9 178.95 51.6 183.55 49.15 183.55 47.1 183.55 46.55 181.15 45.45 178.8 44.35 178.8 43.3 178.8 42.9 180.9 42.3 L183.95 41.25 185.35 40.2 184.9 39.75 Q186.5 39.15 188.5 37.8 190.7 36.25 191.15 35.25 190.65 35.75 190.0 35.75 189.05 35.75 189.05 34.0 189.05 30.45 194.6 27.35 200.0 24.4 207.2 23.65 208.15 22.25 208.5 22.0 L211.2 21.65 214.05 21.85 215.3 22.35 215.3 22.25 Q215.3 21.15 217.15 19.15 L220.3 16.15 Q220.0 15.55 218.2 14.9 216.55 14.3 216.55 13.75 L216.55 13.5 Q216.8 13.25 218.35 12.85 L220.3 12.25 222.7 11.55 225.3 11.15 232.25 11.2 Q232.15 11.0 233.65 10.55 234.85 7.65 237.7 5.8 241.15 3.55 245.05 4.5 249.7 4.95 251.55 5.6 L253.3 6.55 258.25 7.0 260.55 6.85 260.85 7.1 263.05 6.4 Q265.9 5.55 268.2 4.25 270.75 3.45 273.55 1.55 275.9 0.0 276.05 0.0 L276.15 0.9 275.65 2.9 275.05 4.3 275.05 4.4 Q275.05 5.55 272.5 8.8 L269.2 12.9 269.3 13.0 270.15 12.5 274.55 12.15 275.4 12.2 278.3 12.0 Q282.5 11.8 283.45 12.1 284.1 12.65 285.3 13.0 286.8 13.35 289.55 14.65 291.8 15.7 292.7 16.25 L296.15 19.65 Q299.15 22.8 299.15 23.3 L299.05 24.0 298.05 24.0 Q297.9 23.5 296.85 22.95 295.85 22.4 295.3 22.35 L295.4 22.5 298.95 26.45 299.0 26.3 299.05 26.45 299.05 26.55 299.05 26.6 Q299.65 27.45 299.65 27.9 L299.65 28.0 302.55 27.8 Q305.0 27.1 308.05 23.65 308.65 23.8 308.65 24.65 308.65 25.9 307.1 28.4 305.55 30.95 304.3 31.6 309.5 31.1 312.2 30.3 314.45 29.4 315.95 29.0 317.25 28.65 318.35 26.95 319.4 25.4 320.05 25.4 L320.55 25.5 320.65 25.75 Q319.45 28.15 318.0 32.8 316.05 36.95 310.9 39.85 L316.75 41.55 323.4 42.1 Q328.55 42.1 329.05 41.25 329.3 40.0 329.8 40.0 L330.3 40.15 330.3 41.4 Q330.4 42.65 328.4 44.45 L324.9 47.4 Q323.75 48.5 322.8 50.5 321.45 52.3 317.45 53.5 L317.55 53.65 321.15 55.9 Q324.75 57.85 328.4 57.85 L330.2 57.45 Q330.95 57.0 331.45 57.0 L332.3 57.15 332.3 57.5 Q330.5 59.85 328.15 64.85 325.35 69.2 318.8 71.25 319.45 73.7 322.3 80.45 L322.25 81.05 Q322.15 81.35 321.55 81.5 321.3 81.15 319.15 80.8 L317.1 80.4 317.4 87.9 Q317.8 90.05 317.8 92.5 L317.8 93.85 Q317.65 95.15 316.95 95.15 L316.55 95.1 314.85 91.7 Q313.75 89.4 312.55 88.0 L312.55 88.25 Q312.9 90.95 312.8 94.6 L312.85 97.75 Q312.85 99.8 312.3 100.9 L311.7 100.6 309.65 93.05 309.15 91.25 309.55 98.5 309.55 98.55 Q310.65 101.0 310.65 102.75 L310.45 103.65 Q310.25 104.25 309.9 104.45 L309.3 105.15 308.9 104.85 306.3 110.85 303.55 117.0 302.6 120.1 301.55 122.6 301.5 122.9 301.2 124.8 300.95 127.05 301.05 130.3 301.1 135.45 300.7 139.7 300.25 141.8 299.6 144.0 296.8 152.45 295.05 156.65 294.0 159.25 293.8 159.65 291.95 166.0 289.8 173.9 Q288.4 178.5 286.2 181.65 L283.35 185.6 279.45 189.55 277.85 190.9 276.8 191.75 272.85 195.55 Q270.8 197.4 269.65 197.8 L268.4 198.75 263.3 201.5 Q260.05 203.1 258.8 203.45 L253.35 208.6 Q243.9 217.5 240.05 222.6 236.1 227.9 233.05 233.85 232.45 235.05 229.95 241.2 228.95 243.75 228.15 244.45 L228.7 244.5 229.05 244.5 228.8 244.85 230.55 245.0 230.55 245.9 229.8 249.7 Q229.05 253.5 229.05 256.2 229.05 257.65 230.05 260.85 231.05 264.05 231.05 264.95 L231.05 266.05 230.75 266.8 231.5 268.15 234.15 271.85 236.95 275.9 239.65 279.75 244.1 287.85 245.25 290.65 245.55 290.65 245.7 291.0 247.15 295.35 Q248.65 299.7 248.65 302.75 248.65 306.85 243.3 306.85 L239.05 306.4 229.9 306.2 220.45 306.0 212.2 305.5 196.1 305.0 196.3 305.15 196.55 307.05 Q196.55 309.3 193.85 312.65 190.4 317.0 185.55 317.0 182.45 317.0 172.45 312.45 162.45 307.9 156.25 307.9 152.85 307.9 144.15 309.9 135.5 311.85 129.55 311.85 L125.45 311.6 125.65 311.25 126.15 310.35 129.9 310.5 Q136.45 310.5 144.55 308.55 L147.5 307.9 147.45 307.85 147.45 307.75 151.6 307.1 152.1 307.0 153.5 306.8 153.85 306.75 169.05 305.05 194.8 303.5 210.2 304.0 218.55 304.5 237.95 305.0 243.25 305.5 Q246.0 305.5 246.95 304.5 247.55 303.9 247.55 302.65 247.55 299.55 246.1 295.35 L246.05 295.25 246.05 295.35 246.05 295.65 245.7 295.65 Q244.5 290.1 239.15 281.25 L233.75 273.45 Q230.4 268.6 229.7 267.1 L229.55 267.0 229.4 266.75 229.55 266.5 Q229.55 265.2 229.85 264.3 L229.05 261.7 Q228.05 258.5 228.05 256.25 228.05 253.2 229.3 246.1 L227.35 245.6 227.1 245.35 Q222.1 243.55 217.7 240.15 L220.6 243.6 Q225.45 249.5 225.45 250.05 225.45 250.55 224.4 250.6 223.05 249.7 218.65 247.35 214.85 245.3 213.55 244.25 L205.8 238.0 Q206.8 240.9 210.3 245.55 L210.2 246.0 209.8 246.15 201.3 239.35 192.4 232.25 192.3 232.5 Q193.65 236.5 196.75 241.5 L199.55 245.95 199.4 246.5 198.8 246.5 Q189.6 239.0 185.05 232.5 L184.95 232.6 186.85 238.3 Q187.95 242.3 188.7 244.0 L191.95 250.6 194.3 255.45 194.2 256.25 193.95 256.25 194.4 257.4 194.3 257.75 193.9 257.75 Q189.3 249.35 177.45 236.6 170.3 228.9 158.3 215.0 155.25 211.65 149.95 204.25 144.95 197.35 141.4 193.65 136.25 188.4 127.7 183.0 L123.8 180.35 121.85 179.05 120.65 178.1 120.2 177.65 Q119.35 177.1 116.1 175.9 L114.55 175.5 113.45 175.15 Q119.6 178.55 124.0 183.1 L131.3 191.75 Q132.85 193.65 134.2 195.95 135.75 198.55 136.15 200.4 136.45 202.0 137.4 204.95 L138.7 209.25 Q140.0 214.8 140.3 218.55 L140.45 226.85 Q140.45 243.3 136.05 262.85 133.55 273.85 131.3 280.85 130.35 284.05 127.7 289.85 L126.7 292.05 126.45 292.55 137.85 292.55 138.9 290.25 140.45 287.45 141.8 284.85 142.6 281.95 Q143.1 280.4 143.8 279.5 144.95 280.8 145.1 283.55 145.3 287.2 145.45 287.75 L146.4 292.55 147.65 292.55 149.1 284.55 Q151.05 274.15 151.05 270.05 L151.05 267.5 150.8 266.0 Q150.8 265.25 151.3 264.75 152.55 266.9 152.9 270.35 L153.4 276.25 154.8 287.9 154.85 291.75 154.8 292.55 169.15 292.55 169.3 288.55 169.3 280.6 168.5 272.65 167.3 264.65 164.8 248.75 Q164.25 244.95 162.6 238.6 161.05 233.1 161.05 232.8 161.05 232.05 161.55 231.75 162.65 233.15 163.4 235.85 L164.45 240.15 166.55 248.75 168.7 257.55 170.8 266.0 Q175.1 280.35 176.45 292.55 L180.3 292.55 Q181.25 292.5 181.55 293.0 L181.8 294.1 Q181.8 295.35 181.55 294.8 L176.7 295.05 177.05 300.75 176.7 300.9 Q176.0 298.65 175.65 295.05 L169.75 295.15 169.3 296.85 Q169.15 296.75 169.15 296.5 L169.15 295.15 154.4 295.25 153.9 296.25 153.8 296.0 153.85 295.25 148.3 295.3 147.3 300.4 146.55 300.5 145.65 295.3 137.65 295.4 137.15 296.5 136.35 298.9 Q135.7 300.45 134.55 301.1 L134.45 301.0 Q134.9 298.9 136.4 295.65 L136.5 295.4 131.3 295.4 131.3 295.35 Q131.3 290.4 128.1 295.45 L124.6 295.45 124.55 295.5 124.5 295.65 125.55 295.85 127.45 296.45 127.3 296.75 127.15 297.7 M122.2 311.1 Q115.75 309.9 106.3 307.0 90.5 302.15 86.5 302.15 82.6 302.15 74.9 304.0 67.25 305.85 64.7 305.85 L55.65 305.05 Q52.9 304.45 52.3 303.65 L52.65 303.5 56.75 304.0 64.5 304.5 Q68.6 304.5 73.9 303.2 L78.8 301.85 Q82.85 300.45 89.45 301.2 94.5 301.8 97.7 303.0 103.35 305.2 110.25 307.15 117.2 309.1 122.7 309.95 L122.2 311.1 M286.85 42.95 L284.55 39.85 283.85 41.7 282.8 44.7 282.15 46.65 Q281.75 47.8 281.05 47.8 280.65 47.8 280.45 47.5 L280.2 47.05 279.25 46.25 277.15 44.45 274.15 41.8 273.55 42.7 271.95 44.4 269.95 46.05 269.25 46.95 Q268.65 47.7 268.05 47.7 L267.75 47.65 267.7 47.25 267.75 46.95 266.65 44.55 264.7 40.2 264.2 39.35 263.8 39.6 260.15 42.1 259.25 42.9 260.95 44.9 263.7 47.6 Q266.3 50.15 266.3 50.65 L266.3 51.05 266.15 51.1 258.3 51.5 256.45 51.9 254.8 52.25 251.65 52.75 246.8 53.65 253.05 56.5 Q258.55 59.25 258.55 60.05 L258.55 60.55 258.4 60.65 250.35 61.0 250.0 61.15 251.9 62.75 Q254.8 64.6 260.05 65.25 261.8 65.45 262.55 66.25 L264.05 68.0 264.8 68.9 265.3 69.75 266.3 70.6 Q267.9 71.35 271.2 71.25 L271.3 71.35 271.3 71.7 271.3 72.05 Q272.05 72.35 273.1 73.85 274.35 75.75 275.05 77.75 275.95 80.2 277.85 81.35 279.3 82.3 279.3 84.0 279.3 86.05 277.75 89.4 L275.65 93.35 276.7 95.4 277.9 98.05 278.35 99.4 278.35 100.7 278.0 103.1 277.65 104.45 277.5 105.5 Q277.5 106.9 279.4 109.9 281.3 112.85 281.3 115.15 L280.95 117.55 280.6 118.25 280.05 118.75 279.75 119.0 279.3 119.5 Q278.4 120.25 275.65 121.65 274.8 122.25 273.65 124.45 272.4 126.15 270.0 126.4 270.15 126.95 271.0 127.65 L273.2 129.35 274.8 131.3 276.3 133.55 276.25 134.05 Q276.1 134.4 275.55 134.5 L272.6 133.2 269.3 132.0 Q268.95 132.6 268.85 133.55 L268.6 134.05 Q271.8 135.45 274.25 138.1 276.85 140.85 277.8 144.0 L278.35 149.65 Q278.7 153.15 279.3 155.6 L279.3 157.65 278.55 157.75 Q278.15 157.05 277.3 154.75 276.15 152.6 273.8 152.0 L266.1 150.05 Q260.75 148.6 259.05 147.75 L259.15 147.85 260.15 150.6 Q260.7 152.3 261.15 153.0 261.85 154.2 263.8 155.4 L266.55 156.4 270.3 156.85 Q270.9 157.1 270.9 157.6 269.75 158.55 267.0 159.55 263.6 160.75 260.7 160.75 L259.75 160.4 259.25 160.15 258.8 162.75 Q257.75 165.5 254.95 165.5 253.55 165.5 252.4 164.45 L251.15 163.1 Q249.95 162.35 242.4 161.1 L242.4 161.15 Q242.7 168.25 250.55 175.15 258.0 181.8 261.1 183.45 266.3 186.25 274.5 186.25 L275.3 186.15 275.5 186.25 275.85 186.1 280.45 184.15 282.0 183.3 283.45 182.1 Q283.85 181.4 284.8 180.85 L285.2 180.65 Q287.4 177.35 288.45 173.25 L290.7 165.2 292.05 160.35 292.35 159.4 293.55 156.2 295.2 152.0 298.1 143.45 298.7 141.2 299.0 140.5 299.15 139.4 299.4 138.7 299.6 137.05 299.8 132.05 299.6 130.6 299.6 128.05 299.85 126.75 299.85 126.55 300.35 122.9 300.5 122.75 300.95 120.1 301.35 120.3 Q301.9 118.55 303.0 115.7 L305.2 110.5 308.0 103.9 307.65 103.5 307.05 101.25 306.85 101.3 305.2 101.65 299.1 100.35 299.3 100.6 Q302.05 104.0 302.05 108.05 L301.85 109.85 301.95 110.3 301.9 110.95 302.05 111.3 301.8 111.85 301.75 112.1 Q301.35 113.7 300.35 113.7 299.75 113.7 299.35 113.3 299.0 113.3 298.1 112.3 L297.3 111.65 296.45 111.1 294.4 109.85 Q293.25 109.1 293.25 108.55 293.25 107.0 297.65 109.7 L298.15 110.15 298.2 109.25 298.2 108.1 297.9 106.35 297.9 106.05 297.7 105.0 297.35 104.5 297.25 104.0 296.65 102.95 295.7 101.95 295.25 101.7 295.0 101.45 294.4 101.0 293.55 100.7 292.95 100.55 290.15 100.6 290.9 100.55 289.4 100.55 288.9 100.75 288.7 101.0 Q287.6 101.55 286.75 102.65 285.95 103.75 285.55 103.75 L285.55 103.9 284.8 104.0 283.85 101.0 283.8 98.3 Q283.8 96.35 284.2 95.4 284.6 94.7 284.95 94.35 L285.05 93.9 287.5 94.05 288.7 94.35 294.55 94.5 296.35 94.5 296.6 93.0 296.9 90.65 297.65 85.25 297.7 81.2 297.15 75.1 296.55 69.65 Q298.05 73.4 298.6 77.15 299.05 80.25 299.05 84.8 L298.55 88.65 Q298.05 91.15 298.05 92.65 L297.85 94.45 301.05 94.35 302.2 94.2 306.35 93.05 Q307.2 93.05 308.1 94.9 L308.5 95.8 308.0 86.75 307.9 85.85 307.95 85.45 307.8 83.35 Q307.65 79.95 306.9 75.85 L305.45 72.3 303.8 68.65 Q302.5 65.7 298.5 59.75 L298.45 59.7 298.05 61.5 297.8 63.45 Q297.7 64.7 297.4 65.4 L297.0 67.4 Q296.8 68.55 295.8 69.25 L295.55 69.0 295.55 68.25 Q295.55 63.5 295.15 61.35 294.4 58.6 293.05 55.35 L289.1 46.7 286.85 42.95 M274.35 2.65 L274.4 2.6 274.3 2.65 274.35 2.65 M253.35 85.15 L251.35 84.8 250.05 84.8 247.25 85.05 247.2 85.05 246.6 85.25 Q246.4 85.35 246.05 85.6 L245.75 85.9 245.6 86.2 245.0 87.4 244.55 88.65 244.35 89.85 Q244.35 90.6 244.9 90.6 L245.2 90.5 245.2 90.6 248.15 90.95 Q248.8 91.0 248.8 91.4 L248.8 91.85 248.65 91.9 245.45 92.0 242.45 91.5 240.9 91.5 Q238.65 92.25 236.2 94.65 L236.8 95.15 Q239.35 97.65 245.15 104.35 L248.8 103.0 Q250.7 102.3 254.9 99.9 L256.0 99.35 256.95 98.55 260.05 95.95 260.05 95.9 259.45 93.65 259.15 92.75 Q258.7 91.9 256.05 91.8 L253.4 91.9 252.45 91.9 252.45 91.35 252.7 91.0 256.45 91.2 258.1 91.45 257.85 91.1 257.95 90.7 Q257.95 89.75 257.15 89.05 L256.65 88.25 256.15 87.45 255.6 86.65 255.65 86.5 255.5 86.55 254.6 85.8 253.35 85.15 M253.05 102.55 Q249.5 104.5 247.15 105.1 L246.05 105.4 248.55 108.35 253.05 102.55 M282.15 121.2 L282.55 121.85 282.65 123.4 282.35 124.65 282.15 124.8 281.35 125.45 280.25 125.8 278.65 125.75 278.35 123.6 279.6 122.25 280.45 121.5 Q280.9 121.1 281.45 121.15 L282.15 121.2 M290.65 110.15 Q290.65 108.4 291.55 109.35 292.35 110.25 292.55 111.15 L292.8 114.5 Q292.8 117.6 292.3 119.45 291.5 122.45 291.05 125.75 290.2 132.25 289.15 137.0 L287.25 142.65 Q285.8 146.3 285.45 148.25 L284.5 153.95 Q283.85 157.6 282.8 159.5 L283.4 157.0 Q283.4 155.0 283.9 151.75 L284.65 146.6 Q284.85 144.7 286.2 141.25 L287.9 135.9 289.65 125.25 Q289.9 123.1 290.75 119.6 291.4 117.0 291.4 114.4 L291.4 112.5 291.0 111.35 290.65 110.15 M188.05 193.0 Q185.5 193.0 183.05 196.5 L181.7 198.55 180.75 199.7 180.25 200.5 179.45 201.6 Q182.0 203.3 185.05 206.2 L189.65 210.75 194.65 215.3 199.4 219.75 207.8 228.9 212.05 233.45 216.65 237.9 219.25 240.3 222.2 242.4 Q223.6 243.2 226.8 244.35 L227.3 244.55 227.3 244.5 Q229.95 233.65 239.55 221.25 L244.55 215.65 250.2 210.1 256.1 204.4 257.2 203.35 256.9 203.25 256.8 202.85 253.8 203.75 Q247.65 205.45 242.8 205.85 L229.3 205.85 229.3 205.75 220.7 203.9 212.55 201.4 207.95 199.9 202.95 198.1 197.35 195.35 Q192.0 193.0 188.05 193.0 M236.05 109.45 Q236.75 111.8 238.35 115.7 240.6 121.1 240.9 123.65 L240.95 123.65 Q244.6 114.4 247.7 109.6 L245.55 106.6 244.85 105.8 Q241.35 107.0 236.05 109.45 M235.3 95.65 Q234.7 96.6 234.5 98.05 L234.4 100.7 Q235.05 103.3 235.7 107.75 L235.75 108.05 241.05 105.85 Q242.65 105.25 243.95 104.8 L235.9 96.25 235.3 95.65 M302.35 95.9 L300.75 96.0 301.5 96.0 302.35 95.9 M80.8 187.5 L80.9 187.05 81.05 187.1 Q83.0 187.15 85.65 188.15 88.0 189.05 89.95 190.25 96.15 194.65 96.9 194.65 L98.1 194.9 99.15 196.75 100.05 198.65 100.15 200.25 99.9 205.25 Q99.9 207.0 99.45 207.65 99.05 208.3 97.15 208.9 L95.05 209.65 Q98.2 215.15 100.3 222.2 102.45 229.55 102.45 235.25 L102.35 236.2 Q102.2 236.75 101.55 237.1 100.45 234.55 100.2 232.65 L99.5 230.3 98.65 228.0 96.8 223.1 94.95 218.6 Q92.45 212.25 88.6 205.55 L85.3 200.05 85.3 199.5 86.05 199.4 Q87.4 199.4 89.7 200.6 92.2 202.05 93.2 202.5 L85.8 193.7 80.8 187.5 M69.7 187.9 Q69.7 188.9 77.7 197.2 85.7 205.5 85.7 206.4 L85.55 207.0 84.3 207.1 77.9 203.6 73.9 201.7 Q71.35 200.55 70.3 200.25 L70.45 200.5 Q73.9 204.4 79.35 212.55 86.45 223.2 86.45 227.0 L86.4 228.25 85.55 228.35 71.8 219.5 68.0 217.2 Q66.05 216.0 64.05 215.0 L53.8 210.4 54.05 210.6 60.0 215.45 Q63.65 218.4 65.05 220.0 L69.95 224.9 Q73.95 228.95 73.95 229.65 L73.8 230.25 72.55 230.25 Q68.95 227.05 60.65 222.95 52.85 219.1 44.9 216.4 L45.05 216.5 55.05 225.7 61.7 232.2 61.55 232.75 Q50.15 232.3 46.0 233.15 43.7 233.65 40.0 234.9 L39.7 235.0 39.8 235.25 40.0 235.35 Q56.4 241.4 66.45 248.95 74.1 254.7 80.05 263.1 87.85 274.2 89.6 277.8 92.3 283.45 92.3 291.2 L92.25 292.6 109.5 292.55 110.3 291.5 111.8 289.85 112.85 288.1 113.55 286.65 115.05 283.6 116.55 280.5 Q117.95 278.05 119.45 274.4 L122.05 268.1 Q124.4 262.55 126.65 255.75 L128.55 249.5 129.1 246.4 Q129.45 244.5 130.8 244.25 L130.9 244.65 129.2 256.6 Q128.45 261.3 126.05 268.75 L121.8 281.0 Q121.0 282.95 119.7 287.1 118.55 290.45 117.0 292.55 L119.7 292.55 Q121.6 289.75 123.0 285.9 L125.9 278.15 Q128.8 271.9 131.55 262.4 134.0 254.0 134.95 246.4 135.8 239.7 135.8 231.05 135.8 220.45 134.5 214.1 132.7 205.2 127.4 196.75 L124.75 192.6 122.2 190.0 Q118.6 186.6 117.2 184.75 L114.15 182.1 Q111.45 179.85 111.45 179.4 107.55 176.7 100.8 174.55 95.4 172.85 84.7 170.25 L90.25 176.75 Q94.65 182.3 94.65 184.05 L93.8 184.75 93.0 184.2 92.05 183.75 83.8 183.35 76.2 182.9 Q75.4 182.9 72.8 184.4 69.7 186.2 69.7 187.9 M10.85 292.95 L13.45 293.1 14.1 293.1 Q14.7 293.55 15.2 293.5 L17.05 293.4 18.65 293.85 25.55 294.25 26.55 294.5 27.55 294.85 30.75 295.45 33.8 295.9 35.8 296.4 40.0 296.8 44.8 297.15 51.3 297.9 60.7 298.2 75.8 298.25 73.9 298.1 Q73.9 297.5 88.05 298.0 L92.05 297.65 96.3 296.85 105.35 295.55 105.75 295.5 91.35 295.45 91.3 295.5 91.3 295.45 90.15 295.45 90.05 296.25 89.65 296.25 89.55 296.0 89.5 295.45 44.5 295.25 44.05 295.05 Q43.8 294.8 43.8 294.0 43.8 293.25 44.05 293.0 L44.55 292.75 Q45.0 292.6 89.2 292.6 88.55 288.3 86.45 282.2 83.05 272.5 78.45 266.15 L72.85 258.85 Q68.85 254.45 63.3 251.35 55.75 247.2 42.45 243.9 L40.0 243.35 Q27.15 240.35 16.8 240.35 11.4 240.35 6.6 241.65 L5.85 241.75 Q4.3 242.05 3.1 243.05 L2.75 243.35 -1.25 244.9 -1.8 244.9 -1.9 245.05 Q-4.75 250.8 -5.75 254.4 L-8.5 263.75 Q-10.15 269.5 -10.65 273.35 L-11.2 275.7 -11.9 278.0 -12.75 282.75 -14.4 292.0 -14.3 292.5 -9.25 292.5 -6.6 292.95 -5.0 293.4 -0.6 292.85 2.0 292.25 7.5 292.9 10.3 292.95 10.85 292.95 M147.2 295.3 L146.8 295.3 146.95 296.35 147.05 296.35 147.2 295.3 M195.5 305.0 L194.8 305.0 160.75 307.15 Q165.7 308.15 172.4 311.25 182.55 315.85 185.55 315.85 188.35 315.85 190.35 314.45 191.8 313.45 193.55 311.15 194.8 309.6 195.3 308.0 L195.3 306.1 Q195.2 305.4 195.5 305.0" fill="#000000" fill-rule="evenodd" stroke="none"/>
    <path d="M286.85 42.95 L289.1 46.7 293.05 55.35 Q294.4 58.6 295.15 61.35 295.55 63.5 295.55 68.25 L295.55 69.0 295.8 69.25 Q296.8 68.55 297.0 67.4 L297.4 65.4 Q297.7 64.7 297.8 63.45 L298.05 61.5 298.45 59.7 298.5 59.75 Q302.5 65.7 303.8 68.65 L305.45 72.3 306.9 75.85 Q307.65 79.95 307.8 83.35 L307.95 85.45 307.9 85.85 308.0 86.75 308.5 95.8 308.1 94.9 Q307.2 93.05 306.35 93.05 L302.2 94.2 301.05 94.35 297.85 94.45 298.05 92.65 Q298.05 91.15 298.55 88.65 L299.05 84.8 Q299.05 80.25 298.6 77.15 298.05 73.4 296.55 69.65 L297.15 75.1 297.7 81.2 297.65 85.25 296.9 90.65 296.6 93.0 296.35 94.5 294.55 94.5 288.7 94.35 287.5 94.05 285.05 93.9 284.95 94.35 Q284.6 94.7 284.2 95.4 283.8 96.35 283.8 98.3 L283.85 101.0 284.8 104.0 285.55 103.9 285.55 103.75 Q285.95 103.75 286.75 102.65 287.6 101.55 288.7 101.0 L288.9 100.75 289.4 100.55 290.9 100.55 290.15 100.6 292.95 100.55 293.55 100.7 294.4 101.0 295.0 101.45 295.25 101.7 295.7 101.95 296.65 102.95 297.25 104.0 297.35 104.5 297.7 105.0 297.9 106.05 297.9 106.35 298.2 108.1 298.2 109.25 298.15 110.15 297.65 109.7 Q293.25 107.0 293.25 108.55 293.25 109.1 294.4 109.85 L296.45 111.1 297.3 111.65 298.1 112.3 Q299.0 113.3 299.35 113.3 299.75 113.7 300.35 113.7 301.35 113.7 301.75 112.1 L301.8 111.85 302.05 111.3 301.9 110.95 301.95 110.3 301.85 109.85 302.05 108.05 Q302.05 104.0 299.3 100.6 L299.1 100.35 305.2 101.65 306.85 101.3 307.05 101.25 307.65 103.5 308.0 103.9 305.2 110.5 303.0 115.7 Q301.9 118.55 301.35 120.3 L300.95 120.1 300.5 122.75 300.35 122.9 299.85 126.55 299.85 126.75 299.6 128.05 299.6 130.6 299.8 132.05 299.6 137.05 299.4 138.7 299.15 139.4 299.0 140.5 298.7 141.2 298.1 143.45 295.2 152.0 293.55 156.2 292.35 159.4 292.05 160.35 290.7 165.2 288.45 173.25 Q287.4 177.35 285.2 180.65 L284.8 180.85 Q283.85 181.4 283.45 182.1 L282.0 183.3 280.45 184.15 275.85 186.1 275.5 186.25 275.3 186.15 274.5 186.25 Q266.3 186.25 261.1 183.45 258.0 181.8 250.55 175.15 242.7 168.25 242.4 161.15 L242.4 161.1 Q249.95 162.35 251.15 163.1 L252.4 164.45 Q253.55 165.5 254.95 165.5 257.75 165.5 258.8 162.75 L259.25 160.15 259.75 160.4 260.7 160.75 Q263.6 160.75 267.0 159.55 269.75 158.55 270.9 157.6 270.9 157.1 270.3 156.85 L266.55 156.4 263.8 155.4 Q261.85 154.2 261.15 153.0 260.7 152.3 260.15 150.6 L259.15 147.85 259.05 147.75 Q260.75 148.6 266.1 150.05 L273.8 152.0 Q276.15 152.6 277.3 154.75 278.15 157.05 278.55 157.75 L279.3 157.65 279.3 155.6 Q278.7 153.15 278.35 149.65 L277.8 144.0 Q276.85 140.85 274.25 138.1 271.8 135.45 268.6 134.05 L268.85 133.55 Q268.95 132.6 269.3 132.0 L272.6 133.2 275.55 134.5 Q276.1 134.4 276.25 134.05 L276.3 133.55 274.8 131.3 273.2 129.35 271.0 127.65 Q270.15 126.95 270.0 126.4 272.4 126.15 273.65 124.45 274.8 122.25 275.65 121.65 278.4 120.25 279.3 119.5 L279.75 119.0 280.05 118.75 280.6 118.25 280.95 117.55 281.3 115.15 Q281.3 112.85 279.4 109.9 277.5 106.9 277.5 105.5 L277.65 104.45 278.0 103.1 278.35 100.7 278.35 99.4 277.9 98.05 276.7 95.4 275.65 93.35 277.75 89.4 Q279.3 86.05 279.3 84.0 279.3 82.3 277.85 81.35 275.95 80.2 275.05 77.75 274.35 75.75 273.1 73.85 272.05 72.35 271.3 72.05 L271.3 71.7 271.3 71.35 271.2 71.25 Q267.9 71.35 266.3 70.6 L265.3 69.75 264.8 68.9 264.05 68.0 262.55 66.25 Q261.8 65.45 260.05 65.25 254.8 64.6 251.9 62.75 L250.0 61.15 250.35 61.0 258.4 60.65 258.55 60.55 258.55 60.05 Q258.55 59.25 253.05 56.5 L246.8 53.65 251.65 52.75 254.8 52.25 256.45 51.9 258.3 51.5 266.15 51.1 266.3 51.05 266.3 50.65 Q266.3 50.15 263.7 47.6 L260.95 44.9 259.25 42.9 260.15 42.1 263.8 39.6 264.2 39.35 264.7 40.2 266.65 44.55 267.75 46.95 267.7 47.25 267.75 47.65 268.05 47.7 Q268.65 47.7 269.25 46.95 L269.95 46.05 271.95 44.4 273.55 42.7 274.15 41.8 277.15 44.45 279.25 46.25 280.2 47.05 280.45 47.5 Q280.65 47.8 281.05 47.8 281.75 47.8 282.15 46.65 L282.8 44.7 283.85 41.7 284.55 39.85 286.85 42.95 M253.35 85.15 L254.6 85.8 255.5 86.55 255.65 86.5 255.6 86.65 256.15 87.45 256.65 88.25 257.15 89.05 Q257.95 89.75 257.95 90.7 L257.85 91.1 258.1 91.45 256.45 91.2 252.7 91.0 252.45 91.35 252.45 91.9 253.4 91.9 256.05 91.8 Q258.7 91.9 259.15 92.75 L259.45 93.65 260.05 95.9 260.05 95.95 256.95 98.55 256.0 99.35 254.9 99.9 Q250.7 102.3 248.8 103.0 L245.15 104.35 Q239.35 97.65 236.8 95.15 L236.2 94.65 Q238.65 92.25 240.9 91.5 L242.45 91.5 245.45 92.0 248.65 91.9 248.8 91.85 248.8 91.4 Q248.8 91.0 248.15 90.95 L245.2 90.6 245.2 90.5 244.9 90.6 Q244.35 90.6 244.35 89.85 L244.55 88.65 245.0 87.4 245.6 86.2 245.75 85.9 246.05 85.6 Q246.4 85.35 246.6 85.25 L247.2 85.05 247.25 85.05 250.05 84.8 251.35 84.8 253.35 85.15 M302.35 95.9 L301.5 96.0 300.75 96.0 302.35 95.9 M235.3 95.65 L235.9 96.25 243.95 104.8 Q242.65 105.25 241.05 105.85 L235.75 108.05 235.7 107.75 Q235.05 103.3 234.4 100.7 L234.5 98.05 Q234.7 96.6 235.3 95.65 M236.05 109.45 Q241.35 107.0 244.85 105.8 L245.55 106.6 247.7 109.6 Q244.6 114.4 240.95 123.65 L240.9 123.65 Q240.6 121.1 238.35 115.7 236.75 111.8 236.05 109.45 M188.05 193.0 Q192.0 193.0 197.35 195.35 L202.95 198.1 207.95 199.9 212.55 201.4 220.7 203.9 229.3 205.75 229.3 205.85 242.8 205.85 Q247.65 205.45 253.8 203.75 L256.8 202.85 256.9 203.25 257.2 203.35 256.1 204.4 250.2 210.1 244.55 215.65 239.55 221.25 Q229.95 233.65 227.3 244.5 L227.3 244.55 226.8 244.35 Q223.6 243.2 222.2 242.4 L219.25 240.3 216.65 237.9 212.05 233.45 207.8 228.9 199.4 219.75 194.65 215.3 189.65 210.75 185.05 206.2 Q182.0 203.3 179.45 201.6 L180.25 200.5 180.75 199.7 181.7 198.55 183.05 196.5 Q185.5 193.0 188.05 193.0 M290.65 110.15 L291.0 111.35 291.4 112.5 291.4 114.4 Q291.4 117.0 290.75 119.6 289.9 123.1 289.65 125.25 L287.9 135.9 286.2 141.25 Q284.85 144.7 284.65 146.6 L283.9 151.75 Q283.4 155.0 283.4 157.0 L282.8 159.5 Q283.85 157.6 284.5 153.95 L285.45 148.25 Q285.8 146.3 287.25 142.65 L289.15 137.0 Q290.2 132.25 291.05 125.75 291.5 122.45 292.3 119.45 292.8 117.6 292.8 114.5 L292.55 111.15 Q292.35 110.25 291.55 109.35 290.65 108.4 290.65 110.15 M282.15 121.2 L281.45 121.15 Q280.9 121.1 280.45 121.5 L279.6 122.25 278.35 123.6 278.65 125.75 280.25 125.8 281.35 125.45 282.15 124.8 282.35 124.65 282.65 123.4 282.55 121.85 282.15 121.2 M253.05 102.55 L248.55 108.35 246.05 105.4 247.15 105.1 Q249.5 104.5 253.05 102.55 M10.3 292.95 L7.5 292.9 2.0 292.25 -0.6 292.85 -5.0 293.4 -6.6 292.95 -9.25 292.5 -14.3 292.5 -14.4 292.0 -12.75 282.75 -11.9 278.0 -11.2 275.7 -10.65 273.35 Q-10.15 269.5 -8.5 263.75 L-5.75 254.4 Q-4.75 250.8 -1.9 245.05 L-1.8 244.9 -1.25 244.9 2.75 243.35 3.1 243.05 Q4.3 242.05 5.85 241.75 L6.6 241.65 Q11.4 240.35 16.8 240.35 27.15 240.35 40.0 243.35 L42.45 243.9 Q55.75 247.2 63.3 251.35 68.85 254.45 72.85 258.85 L78.45 266.15 Q83.05 272.5 86.45 282.2 88.55 288.3 89.2 292.6 45.0 292.6 44.55 292.75 L44.05 293.0 Q43.8 293.25 43.8 294.0 43.8 294.8 44.05 295.05 L44.5 295.25 89.5 295.45 89.55 296.0 89.65 296.25 90.05 296.25 90.15 295.45 91.3 295.45 91.3 295.5 91.35 295.45 105.75 295.5 105.35 295.55 96.3 296.85 92.05 297.65 88.05 298.0 Q73.9 297.5 73.9 298.1 L75.8 298.25 60.7 298.2 51.3 297.9 44.8 297.15 40.0 296.8 35.8 296.4 33.8 295.9 30.75 295.45 27.55 294.85 26.55 294.5 25.55 294.25 18.65 293.85 17.05 293.4 15.2 293.5 Q14.7 293.55 14.1 293.1 L13.45 293.1 10.85 292.95 10.3 292.85 10.3 292.95" fill="#50743f" fill-rule="evenodd" stroke="none"/>
    <path d="M127.15 297.7 L127.3 296.75 127.45 296.45 128.1 295.45 Q131.3 290.4 131.3 295.35 L131.3 295.4 136.5 295.4 136.4 295.65 Q134.9 298.9 134.45 301.0 L134.55 301.1 Q135.7 300.45 136.35 298.9 L137.15 296.5 137.65 295.4 145.65 295.3 146.55 300.5 147.3 300.4 148.3 295.3 153.85 295.25 153.8 296.0 153.9 296.25 154.4 295.25 169.15 295.15 169.15 296.5 Q169.15 296.75 169.3 296.85 L169.75 295.15 175.65 295.05 Q176.0 298.65 176.7 300.9 L177.05 300.75 176.7 295.05 181.55 294.8 Q181.8 295.35 181.8 294.1 L181.55 293.0 Q181.25 292.5 180.3 292.55 L176.45 292.55 Q175.1 280.35 170.8 266.0 L168.7 257.55 166.55 248.75 164.45 240.15 163.4 235.85 Q162.65 233.15 161.55 231.75 161.05 232.05 161.05 232.8 161.05 233.1 162.6 238.6 164.25 244.95 164.8 248.75 L167.3 264.65 168.5 272.65 169.3 280.6 169.3 288.55 169.15 292.55 154.8 292.55 154.85 291.75 154.8 287.9 153.4 276.25 152.9 270.35 Q152.55 266.9 151.3 264.75 150.8 265.25 150.8 266.0 L151.05 267.5 151.05 270.05 Q151.05 274.15 149.1 284.55 L147.65 292.55 146.4 292.55 145.45 287.75 Q145.3 287.2 145.1 283.55 144.95 280.8 143.8 279.5 143.1 280.4 142.6 281.95 L141.8 284.85 140.45 287.45 138.9 290.25 137.85 292.55 126.45 292.55 126.7 292.05 127.7 289.85 Q130.35 284.05 131.3 280.85 133.55 273.85 136.05 262.85 140.45 243.3 140.45 226.85 L140.3 218.55 Q140.0 214.8 138.7 209.25 L137.4 204.95 Q136.45 202.0 136.15 200.4 135.75 198.55 134.2 195.95 132.85 193.65 131.3 191.75 L124.0 183.1 Q119.6 178.55 113.45 175.15 L114.55 175.5 116.1 175.9 Q119.35 177.1 120.2 177.65 L120.65 178.1 121.85 179.05 123.8 180.35 127.7 183.0 Q136.25 188.4 141.4 193.65 144.95 197.35 149.95 204.25 155.25 211.65 158.3 215.0 170.3 228.9 177.45 236.6 189.3 249.35 193.9 257.75 L194.3 257.75 194.4 257.4 193.95 256.25 194.2 256.25 194.3 255.45 191.95 250.6 188.7 244.0 Q187.95 242.3 186.85 238.3 L184.95 232.6 185.05 232.5 Q189.6 239.0 198.8 246.5 L199.4 246.5 199.55 245.95 196.75 241.5 Q193.65 236.5 192.3 232.5 L192.4 232.25 201.3 239.35 209.8 246.15 210.2 246.0 210.3 245.55 Q206.8 240.9 205.8 238.0 L213.55 244.25 Q214.85 245.3 218.65 247.35 223.05 249.7 224.4 250.6 225.45 250.55 225.45 250.05 225.45 249.5 220.6 243.6 L217.7 240.15 Q222.1 243.55 227.1 245.35 L227.35 245.6 229.3 246.1 Q228.05 253.2 228.05 256.25 228.05 258.5 229.05 261.7 L229.85 264.3 Q229.55 265.2 229.55 266.5 L229.4 266.75 229.55 267.0 229.7 267.1 Q230.4 268.6 233.75 273.45 L239.15 281.25 Q244.5 290.1 245.7 295.65 L246.05 295.65 246.05 295.35 246.05 295.25 246.1 295.35 Q247.55 299.55 247.55 302.65 247.55 303.9 246.95 304.5 246.0 305.5 243.25 305.5 L237.95 305.0 218.55 304.5 210.2 304.0 194.8 303.5 169.05 305.05 153.85 306.75 153.5 306.8 152.1 307.0 151.6 307.1 147.45 307.75 147.45 307.85 147.5 307.9 144.55 308.55 Q136.45 310.5 129.9 310.5 L126.15 310.35 125.65 311.25 125.45 311.6 Q123.5 315.0 122.8 315.0 122.05 315.0 121.75 314.65 L121.5 314.3 121.3 313.35 122.2 311.1 122.7 309.95 123.6 307.9 125.75 302.3 127.15 297.7 M69.7 187.9 Q69.7 186.2 72.8 184.4 75.4 182.9 76.2 182.9 L83.8 183.35 92.05 183.75 93.0 184.2 93.8 184.75 94.65 184.05 Q94.65 182.3 90.25 176.75 L84.7 170.25 Q95.4 172.85 100.8 174.55 107.55 176.7 111.45 179.4 111.45 179.85 114.15 182.1 L117.2 184.75 Q118.6 186.6 122.2 190.0 L124.75 192.6 127.4 196.75 Q132.7 205.2 134.5 214.1 135.8 220.45 135.8 231.05 135.8 239.7 134.95 246.4 134.0 254.0 131.55 262.4 128.8 271.9 125.9 278.15 L123.0 285.9 Q121.6 289.75 119.7 292.55 L117.0 292.55 Q118.55 290.45 119.7 287.1 121.0 282.95 121.8 281.0 L126.05 268.75 Q128.45 261.3 129.2 256.6 L130.9 244.65 130.8 244.25 Q129.45 244.5 129.1 246.4 L128.55 249.5 126.65 255.75 Q124.4 262.55 122.05 268.1 L119.45 274.4 Q117.95 278.05 116.55 280.5 L115.05 283.6 113.55 286.65 112.85 288.1 111.8 289.85 110.3 291.5 109.5 292.55 92.25 292.6 92.3 291.2 Q92.3 283.45 89.6 277.8 87.85 274.2 80.05 263.1 74.1 254.7 66.45 248.95 56.4 241.4 40.0 235.35 L39.8 235.25 39.7 235.0 40.0 234.9 Q43.7 233.65 46.0 233.15 50.15 232.3 61.55 232.75 L61.7 232.2 55.05 225.7 45.05 216.5 44.9 216.4 Q52.85 219.1 60.65 222.95 68.95 227.05 72.55 230.25 L73.8 230.25 73.95 229.65 Q73.95 228.95 69.95 224.9 L65.05 220.0 Q63.65 218.4 60.0 215.45 L54.05 210.6 53.8 210.4 64.05 215.0 Q66.05 216.0 68.0 217.2 L71.8 219.5 85.55 228.35 86.4 228.25 86.45 227.0 Q86.45 223.2 79.35 212.55 73.9 204.4 70.45 200.5 L70.3 200.25 Q71.35 200.55 73.9 201.7 L77.9 203.6 84.3 207.1 85.55 207.0 85.7 206.4 Q85.7 205.5 77.7 197.2 69.7 188.9 69.7 187.9 M80.8 187.5 L85.8 193.7 93.2 202.5 Q92.2 202.05 89.7 200.6 87.4 199.4 86.05 199.4 L85.3 199.5 85.3 200.05 88.6 205.55 Q92.45 212.25 94.95 218.6 L96.8 223.1 98.65 228.0 99.5 230.3 100.2 232.65 Q100.45 234.55 101.55 237.1 102.2 236.75 102.35 236.2 L102.45 235.25 Q102.45 229.55 100.3 222.2 98.2 215.15 95.05 209.65 L97.15 208.9 Q99.05 208.3 99.45 207.65 99.9 207.0 99.9 205.25 L100.15 200.25 100.05 198.65 99.15 196.75 98.1 194.9 96.9 194.65 Q96.15 194.65 89.95 190.25 88.0 189.05 85.65 188.15 83.0 187.15 81.05 187.1 L80.9 187.05 80.8 187.5" fill="#737373" fill-rule="evenodd" stroke="none"/>
    <path d="M163.35 233.55 Q165.8 234.55 166.85 237.7 L168.35 241.55 169.85 245.5 174.9 260.95 Q176.05 264.3 178.7 274.75 182.1 287.9 182.1 291.8 L182.35 295.75 Q182.45 296.85 183.15 298.25 L183.85 299.85 Q183.85 301.1 183.6 300.7 180.85 301.95 178.9 301.95 177.75 301.95 176.9 300.45 176.75 300.15 175.5 299.9 174.2 299.65 173.85 299.2 173.3 298.4 173.3 297.1 L173.4 295.0 Q173.4 292.7 172.4 286.45 L170.7 277.9 168.9 269.5 Q168.0 264.5 164.3 249.6 L160.9 235.35 Q160.9 232.5 163.35 233.55 M140.85 293.95 Q140.85 293.5 141.6 292.95 142.35 292.35 142.35 290.5 L142.3 288.3 142.4 286.45 Q145.3 282.0 146.9 282.75 148.1 283.35 148.1 286.1 L147.9 291.75 147.25 292.85 Q146.45 293.6 145.15 293.95 L144.45 295.2 Q143.75 296.25 142.4 296.25 140.85 294.35 140.85 293.95 M153.85 265.95 Q154.75 266.45 155.1 268.45 L155.4 271.2 156.55 276.8 156.85 281.8 156.65 291.0 Q155.75 300.2 152.4 300.2 151.8 300.2 151.3 299.55 L150.4 298.45 151.6 297.05 Q152.15 296.5 152.15 295.8 152.15 290.6 151.1 279.35 L150.1 269.3 Q150.1 267.6 150.75 266.45 151.7 264.75 153.85 265.95 M85.2 199.9 L85.45 200.1 86.35 200.9 85.35 199.75 85.2 199.9 M94.9 199.55 Q95.5 199.65 96.65 200.25 L98.65 201.45 98.65 201.2 97.7 197.8 96.15 199.2 94.9 199.55 M91.6 205.25 L91.6 205.0 Q91.25 203.4 91.25 202.3 L89.1 202.5 87.85 202.15 91.6 205.25 M256.6 160.75 Q255.9 160.45 255.35 160.0 252.0 159.8 248.9 158.65 L249.7 160.15 Q253.4 161.55 256.6 160.75 M241.45 155.0 L241.8 154.7 242.2 154.4 Q239.35 151.85 239.35 149.95 239.35 148.3 240.65 147.65 242.3 146.85 244.85 149.0 L245.9 150.2 247.15 151.25 251.1 152.35 254.6 153.2 Q257.7 154.7 265.95 156.45 267.55 156.75 268.55 157.35 L269.9 157.2 Q271.15 157.45 271.15 159.0 L270.6 160.55 Q270.5 164.3 265.15 166.7 260.55 168.75 255.4 168.75 L254.85 168.75 257.65 171.75 262.9 176.45 265.8 178.95 Q267.65 180.5 268.85 180.95 L274.8 183.3 Q276.65 184.15 276.65 185.35 276.65 186.55 275.35 187.7 273.5 189.25 269.9 189.25 265.5 189.25 262.95 187.05 L258.35 182.95 253.5 178.35 Q249.55 174.45 248.9 174.45 L247.2 175.35 Q245.3 175.55 243.65 172.2 241.85 168.85 241.6 168.0 L239.75 163.5 Q234.4 159.45 234.4 156.45 234.4 155.5 234.85 154.5 235.6 152.7 237.4 152.7 238.35 152.7 240.5 154.25 L241.45 155.0 M175.85 195.6 L177.1 192.25 Q176.75 190.3 177.0 188.85 177.55 186.0 181.15 186.0 182.5 186.0 183.9 186.9 L185.9 188.2 187.55 186.3 Q189.45 184.5 191.4 184.5 193.55 184.5 195.0 186.05 L196.4 187.95 Q196.5 184.85 198.1 182.5 199.55 180.4 201.5 179.75 203.5 179.1 204.85 180.35 206.35 181.8 206.35 185.05 L205.85 187.75 205.4 190.45 205.45 191.25 205.9 191.25 206.65 191.45 208.45 190.25 Q210.2 189.0 211.4 189.0 L213.05 189.4 214.35 189.75 216.05 189.1 Q217.45 188.5 218.15 188.5 220.2 188.5 221.35 189.75 222.35 190.85 222.35 192.45 L221.85 194.2 Q221.2 195.65 220.1 196.2 218.45 197.0 217.4 198.2 216.45 199.3 216.35 200.2 L221.55 199.55 226.9 199.0 Q232.85 199.0 239.3 200.25 L248.65 201.45 Q252.05 201.45 255.05 199.85 257.5 198.25 257.9 198.25 259.0 198.25 259.65 199.75 260.15 200.85 260.15 201.8 260.15 203.3 256.15 205.7 251.6 208.45 247.0 208.45 L236.1 208.0 231.55 207.45 226.8 206.95 Q217.9 206.95 209.5 211.55 203.05 215.1 201.9 217.5 201.1 219.15 199.05 224.85 196.75 229.75 193.65 229.75 L193.3 229.75 196.65 232.5 Q201.8 236.95 202.65 236.95 203.7 236.95 204.15 234.7 204.6 232.45 205.9 232.45 207.55 232.45 211.35 235.8 215.8 239.65 217.9 240.5 218.5 240.7 221.6 244.65 224.85 248.75 224.85 249.8 224.85 251.05 224.15 250.25 221.7 249.05 218.1 246.1 215.0 243.55 213.1 241.5 L213.1 241.95 Q218.35 251.55 218.35 252.35 218.35 252.85 217.85 253.35 L216.9 254.2 Q214.45 253.05 208.4 247.65 L198.1 238.7 198.15 239.0 200.05 242.95 Q201.45 245.5 201.9 246.95 203.05 250.55 204.85 254.8 204.85 255.75 204.2 256.3 203.6 256.7 202.8 256.7 200.3 256.7 195.75 250.85 L190.85 244.0 195.85 256.2 Q199.35 264.5 199.35 265.55 L199.3 266.75 Q198.9 267.75 196.85 267.75 L184.2 251.55 Q170.25 233.8 163.85 226.95 L153.7 216.35 144.4 206.25 139.4 200.95 133.85 195.75 Q122.65 186.85 122.65 185.05 L122.75 184.1 122.85 183.75 Q120.25 183.0 117.65 181.6 L122.65 189.0 123.95 190.9 125.1 192.75 Q125.55 193.45 127.35 194.85 L129.35 196.7 131.0 200.75 132.4 204.95 134.9 213.6 Q136.85 220.75 136.85 221.55 L136.25 223.8 Q135.65 225.45 135.65 226.25 L135.85 231.5 135.95 236.6 135.85 241.7 135.1 251.75 Q134.45 257.5 132.65 261.95 131.25 265.4 130.05 271.85 128.7 278.9 127.6 282.2 L126.15 287.2 124.4 292.25 Q124.05 293.0 123.4 295.1 122.35 296.8 119.4 296.7 119.0 297.15 118.3 299.5 117.3 301.7 115.4 301.7 114.8 301.7 114.1 300.95 113.4 300.2 113.4 299.45 113.4 298.1 116.0 291.4 L121.65 276.05 Q129.9 251.55 129.9 231.1 129.9 224.35 127.45 217.05 124.0 207.9 121.9 201.5 119.25 193.45 108.8 184.15 99.55 175.9 90.8 173.85 L91.85 175.55 93.65 178.5 Q95.35 180.9 97.55 184.95 L100.9 191.25 Q102.65 194.5 105.15 205.4 107.35 215.0 107.35 216.35 L107.05 218.1 Q106.4 219.7 104.4 219.7 102.6 219.7 101.85 218.6 103.85 223.7 103.85 225.75 L104.65 238.85 104.6 240.75 Q104.1 242.5 101.9 242.5 99.75 242.5 97.9 235.75 L96.15 229.45 95.55 228.45 Q91.1 220.9 88.65 218.5 L85.05 214.75 87.3 220.15 Q91.35 230.05 91.35 231.55 91.35 233.45 90.5 234.35 L90.6 235.45 90.4 236.75 Q89.9 237.95 88.4 237.95 87.85 237.95 86.4 236.95 L84.65 235.5 80.75 234.4 80.65 234.4 80.9 235.6 82.1 242.1 81.9 243.7 Q81.45 245.0 79.9 245.0 78.0 245.0 77.1 243.35 L75.9 240.5 Q75.3 239.55 73.0 238.2 L72.3 237.85 Q71.35 237.55 70.05 236.8 L71.0 239.05 71.85 241.8 71.4 243.2 Q70.6 244.45 68.85 244.45 68.6 244.45 66.5 243.05 64.0 241.6 62.15 241.5 L56.35 241.55 49.1 240.95 43.1 239.95 41.4 239.95 40.0 239.65 40.1 239.75 Q40.55 240.55 42.35 240.9 L45.95 241.5 Q50.9 242.45 51.6 246.0 L53.2 245.0 Q54.05 244.45 54.4 244.45 55.65 244.45 56.15 245.45 L56.4 246.55 54.6 248.7 Q52.4 251.45 50.65 254.5 44.9 264.45 44.9 275.0 44.9 277.35 45.65 289.7 L46.85 297.55 47.85 304.3 47.65 306.35 Q46.95 308.2 44.65 308.2 43.55 308.2 42.5 304.55 L41.35 300.25 40.4 301.8 40.0 302.25 Q38.9 303.2 37.25 303.2 36.2 303.2 35.15 304.25 34.1 305.25 30.4 305.25 30.0 305.25 29.2 304.55 28.4 303.75 28.1 303.7 L25.0 303.1 23.85 302.25 Q23.2 301.5 23.05 300.2 L22.85 298.25 Q18.8 299.0 17.6 297.55 16.9 296.75 16.1 294.95 L16.1 295.0 15.45 297.15 Q14.55 298.7 12.0 298.7 9.4 298.7 8.5 296.55 L8.1 294.2 7.2 294.2 9.25 300.15 Q9.25 301.0 8.5 301.4 7.75 301.85 7.75 302.5 7.75 304.75 6.4 304.75 6.4 306.45 7.2 309.4 7.4 312.3 4.15 314.0 L4.35 313.7 5.4 312.6 Q5.9 311.95 5.9 311.2 L4.95 304.35 Q3.65 303.75 1.5 302.4 L-0.45 301.6 Q-1.45 301.15 -1.5 300.15 -1.55 302.2 -2.35 303.55 -3.15 304.85 -4.25 304.85 -6.2 304.85 -6.95 302.2 L-7.5 298.65 -7.55 298.5 -7.8 298.65 -8.5 298.75 Q-9.75 298.75 -10.1 297.55 L-10.25 296.15 -10.25 296.0 -10.65 296.2 -11.25 296.35 Q-12.4 296.35 -13.85 295.45 L-15.55 294.15 Q-16.05 293.8 -16.05 291.3 -16.05 283.2 -12.9 276.0 -10.55 270.5 -10.0 268.25 -7.9 261.2 -7.9 260.6 -7.9 260.25 -8.2 259.75 L-8.55 258.9 -6.8 252.95 -4.5 245.4 Q-3.15 240.9 -2.05 238.65 L-1.65 237.75 -0.75 237.0 0.5 237.1 1.5 237.6 2.25 237.9 Q3.55 236.5 6.4 236.5 L7.8 236.75 8.6 236.95 Q8.45 235.55 9.1 234.4 10.15 232.55 13.15 232.45 13.05 227.15 13.4 224.2 14.3 222.4 15.15 221.9 17.05 220.8 19.9 223.45 20.8 224.25 21.15 225.65 L21.4 227.25 22.6 226.55 Q23.6 226.0 24.4 226.0 27.8 226.0 28.75 228.35 L29.85 232.45 Q30.5 232.1 31.0 231.9 L32.65 231.5 Q35.0 231.5 36.15 233.0 L36.3 233.25 Q37.7 232.7 40.0 232.55 L42.4 232.45 42.5 232.45 42.65 232.4 Q48.25 230.55 57.35 231.25 L48.2 223.5 Q40.85 217.35 40.85 216.35 40.85 212.0 50.6 211.95 L49.95 211.05 Q49.65 210.6 49.65 209.8 49.65 209.1 50.1 208.45 50.85 207.2 52.65 207.2 54.8 207.2 58.35 209.75 63.25 213.25 65.9 214.45 69.0 215.75 73.35 218.25 L73.35 217.95 Q73.35 217.05 74.1 216.4 75.1 215.45 76.65 217.0 77.2 217.5 77.45 218.8 L77.85 220.75 77.85 220.8 81.1 222.7 80.55 221.5 Q78.9 218.05 78.9 216.95 L79.0 215.95 79.05 215.9 76.9 210.75 Q76.2 209.05 73.15 204.75 71.95 202.85 69.9 201.65 68.6 200.9 68.6 199.05 68.5 198.2 68.85 197.45 69.25 196.5 70.3 196.2 69.15 194.6 69.15 194.1 69.15 192.7 69.5 192.05 L69.25 191.8 Q68.1 190.55 68.1 189.3 68.1 188.65 68.4 188.05 68.7 187.6 68.6 187.25 68.1 185.45 68.35 184.7 68.2 183.05 68.5 181.8 68.95 179.5 71.65 179.5 73.55 179.5 75.05 181.05 L77.35 183.45 77.9 181.95 Q78.4 180.9 79.35 180.7 L82.45 179.4 Q84.5 178.35 85.9 178.2 87.05 178.15 88.1 178.95 L86.85 176.95 84.05 172.6 Q80.4 173.7 78.5 172.0 77.1 170.8 77.1 169.3 77.1 168.15 78.2 167.45 79.3 166.8 82.15 166.2 L88.3 166.0 Q92.4 166.5 94.35 167.7 95.95 168.65 98.4 169.15 L101.65 170.0 104.05 171.25 Q105.05 171.85 105.1 171.95 L106.8 172.45 Q108.25 172.65 108.85 173.0 L111.75 175.0 Q112.5 172.75 117.2 175.3 L124.9 180.0 Q128.8 181.75 132.8 184.3 L140.15 189.0 Q144.3 191.5 145.15 193.5 L145.4 195.45 Q145.45 196.35 147.6 198.0 L150.45 200.2 Q151.7 201.25 152.35 202.5 152.7 203.15 152.6 204.7 152.5 206.25 152.85 207.0 154.15 209.85 156.9 210.75 158.8 211.35 159.85 212.6 L161.65 214.95 170.35 223.95 Q173.35 227.1 177.8 232.8 L184.85 241.75 184.9 241.7 182.75 236.1 Q180.85 231.5 180.85 230.95 180.85 230.2 181.1 229.55 181.6 228.25 182.9 228.25 184.3 228.25 186.15 230.65 188.25 233.4 189.85 233.95 L188.45 231.5 Q188.1 230.75 188.1 229.8 188.1 228.0 190.15 228.0 L190.25 228.0 Q189.6 226.85 189.6 224.95 189.6 224.35 190.1 223.0 L190.6 221.0 189.6 219.3 Q188.6 217.8 188.6 216.5 188.6 215.0 189.1 212.0 L186.3 211.5 184.55 211.2 Q178.75 211.2 178.15 210.6 177.6 209.95 176.9 206.2 L175.3 201.8 Q175.1 201.0 175.1 198.45 175.1 197.3 175.85 195.6 M299.4 98.5 Q300.25 97.15 303.4 98.25 L305.1 98.3 Q306.8 98.55 307.35 99.5 308.4 101.2 308.4 102.85 L306.5 108.1 Q304.6 113.0 304.6 114.95 304.2 115.1 303.95 115.35 L302.9 115.5 Q302.45 115.5 298.1 112.55 293.75 109.55 292.35 108.25 291.05 107.05 286.9 104.95 284.35 103.65 284.35 101.55 284.35 100.55 284.9 99.95 285.5 99.25 286.65 99.25 L296.05 103.25 297.6 102.75 Q298.55 102.25 299.15 102.2 299.15 99.7 299.4 98.5 M260.2 79.55 L261.6 83.0 264.55 90.7 266.6 97.05 266.15 101.75 Q266.0 103.65 263.55 105.2 L261.15 106.8 Q261.15 107.9 261.95 110.7 262.3 113.2 260.1 114.2 257.95 115.2 257.7 116.1 257.55 116.6 257.85 117.7 257.95 118.65 257.2 119.7 256.1 121.25 253.9 121.25 L252.2 120.8 251.15 120.2 Q251.95 123.35 251.85 124.1 251.5 126.75 247.4 126.75 L245.75 126.4 244.85 126.2 244.85 126.5 244.6 128.85 Q243.7 130.75 239.9 130.75 237.5 130.75 236.45 126.25 L235.4 120.0 Q235.6 122.15 234.55 124.75 233.15 128.2 230.4 128.2 227.6 128.2 227.35 123.5 227.6 117.6 227.35 115.2 226.1 105.1 226.1 102.05 226.1 100.95 226.4 99.65 226.75 98.1 227.35 97.2 228.1 96.0 229.7 95.45 230.6 95.1 230.6 92.75 L230.65 90.3 Q230.9 88.65 231.9 87.95 232.05 87.85 235.45 86.3 238.55 84.9 239.9 83.75 239.55 82.0 240.05 80.35 240.85 77.5 243.9 77.5 245.3 77.5 246.55 78.5 L247.9 79.7 Q247.85 76.4 252.25 75.85 256.0 75.4 257.1 76.25 259.15 77.55 260.2 79.55 M277.2 61.35 Q274.7 60.7 273.6 59.45 276.85 58.55 281.15 60.3 285.65 62.1 289.15 66.0 L288.15 66.2 Q286.85 65.8 284.85 64.5 282.6 63.05 281.85 62.75 L277.2 61.35 M255.65 35.25 L258.05 34.55 260.15 33.7 261.1 32.7 Q261.75 31.85 262.35 31.45 265.55 27.5 269.05 26.9 272.65 26.25 272.65 30.05 272.65 31.95 272.0 32.5 268.55 35.5 268.4 35.7 L265.5 38.9 Q263.55 40.75 260.85 41.5 L261.1 41.7 Q265.6 44.95 267.6 46.55 271.1 49.45 271.1 51.7 271.1 53.85 270.0 54.75 267.3 57.05 258.65 55.5 L258.65 55.95 Q259.35 57.0 263.15 59.7 L266.9 60.7 Q270.1 61.55 272.1 63.05 L273.75 64.8 277.35 67.0 282.25 71.25 Q286.1 74.5 288.15 75.2 295.15 77.55 300.7 81.95 306.15 86.35 306.4 89.75 L304.9 89.95 301.8 86.45 Q299.65 84.35 297.1 83.5 293.25 82.15 288.3 81.1 284.55 80.3 282.4 79.2 L281.8 78.9 282.15 81.55 281.9 89.7 280.5 94.1 279.1 98.3 Q279.1 101.05 280.6 105.9 282.1 110.75 282.1 114.75 282.1 118.75 280.6 121.2 278.4 124.75 273.15 124.75 270.5 124.75 269.05 123.75 267.65 122.75 267.65 120.95 267.65 119.4 268.95 118.9 L271.75 118.55 Q275.85 118.3 275.85 114.95 275.85 113.0 273.85 108.2 271.85 103.35 271.85 97.7 271.85 95.8 273.35 91.25 274.85 86.7 274.85 85.05 274.85 82.2 273.2 78.95 271.25 75.05 267.6 72.5 L262.65 68.85 Q259.35 66.65 256.4 66.25 248.75 65.15 246.4 63.5 245.1 62.65 245.1 60.75 245.1 59.25 246.1 57.75 242.4 56.15 242.4 53.45 242.4 50.35 246.15 49.2 248.5 48.45 252.9 48.45 L255.45 48.55 257.85 48.45 257.4 48.0 250.25 43.05 Q247.85 41.45 247.85 39.45 247.85 36.95 250.2 36.2 L255.65 35.25" fill="#000000" fill-opacity="0.101960786" fill-rule="evenodd" stroke="none"/>
  </g>
</svg>
