<?xml version="1.0" encoding="UTF-8" standalone="no"?>
<svg xmlns:xlink="http://www.w3.org/1999/xlink" height="428.7px" width="205.15px" xmlns="http://www.w3.org/2000/svg">
  <g transform="matrix(1.0, 0.0, 0.0, 1.0, -604.2, 6.1)">
    <path d="M787.35 98.9 Q791.0 121.75 796.45 173.45 798.9 196.25 800.3 229.8 801.5 258.15 806.5 296.85 814.3 356.5 800.6 387.2 786.85 418.15 750.15 422.0 727.85 424.4 698.8 416.9 689.2 414.4 675.8 410.0 L655.95 403.6 Q631.4 396.1 620.05 384.1 615.8 379.5 612.35 373.2 L611.9 372.25 Q613.5 377.05 614.55 378.3 L614.2 379.3 613.25 379.95 Q609.75 379.3 608.55 376.2 607.75 372.35 606.95 370.7 606.15 368.7 605.35 365.45 604.55 362.35 604.35 360.45 603.65 353.7 605.9 348.4 L606.2 347.9 Q605.75 337.85 611.85 314.75 L613.4 306.35 Q614.25 300.4 614.85 297.85 616.3 292.0 621.85 288.5 L625.15 286.1 625.35 285.95 623.25 279.95 Q621.1 274.05 620.8 271.0 620.05 263.9 621.7 255.2 622.75 249.7 624.7 246.6 L626.0 234.6 Q625.85 231.5 626.3 224.05 624.5 218.15 624.15 215.05 623.85 212.1 625.35 207.15 L626.75 202.05 Q625.15 200.0 623.4 194.9 L620.85 186.15 Q620.25 180.4 632.15 146.2 L646.0 108.1 649.3 98.9 648.7 93.2 Q647.5 81.5 649.4 76.05 650.8 71.95 661.45 54.6 663.7 50.9 664.7 45.45 665.5 39.2 666.2 36.0 668.7 24.7 680.75 18.35 697.65 9.5 716.3 1.85 738.7 -7.25 744.0 -5.95 756.0 -0.65 762.35 10.05 764.65 13.7 769.95 27.75 780.5 55.4 787.35 98.9" fill="#000000" fill-rule="evenodd" stroke="none"/>
  </g>
</svg>
