<?xml version="1.0" encoding="UTF-8" standalone="no"?>
<svg xmlns:xlink="http://www.w3.org/1999/xlink" height="232.55px" width="206.15px" xmlns="http://www.w3.org/2000/svg">
  <g transform="matrix(1.0, 0.0, 0.0, 1.0, 0.0, 1.45)">
    <path d="M164.5 -0.15 L163.4 0.2 162.4 0.5 161.2 0.65 Q160.7 0.6 160.4 0.85 L158.7 1.85 156.85 2.9 157.6 3.4 158.5 4.2 159.1 4.7 161.1 6.75 161.85 8.45 162.35 10.25 161.85 12.5 161.1 14.55 160.15 16.5 159.5 18.1 158.9 19.1 157.85 21.1 159.95 23.0 Q162.0 25.2 162.0 26.45 162.0 27.15 161.45 27.7 L159.65 29.25 159.25 29.6 160.0 29.5 166.2 28.05 168.35 27.85 168.95 27.75 169.55 27.8 Q171.05 28.25 172.2 29.1 L172.8 29.2 173.6 29.05 174.0 28.8 175.7 30.05 177.9 30.35 179.6 30.25 Q180.25 30.25 180.75 31.0 L181.8 30.7 Q182.5 30.7 183.1 31.2 L183.9 31.9 186.0 33.45 188.4 34.55 Q190.25 35.45 190.6 36.05 L190.9 36.45 190.35 37.0 188.9 37.8 Q188.25 38.2 188.2 38.6 L188.15 38.55 188.15 38.65 188.0 39.6 187.8 40.25 Q187.15 40.95 185.65 40.95 L185.55 40.95 185.45 40.95 Q184.25 40.9 183.7 40.25 L183.45 39.85 183.5 39.65 183.5 39.6 183.3 38.25 183.35 37.85 182.9 37.95 182.4 38.15 181.9 38.4 181.05 38.9 Q180.7 39.1 180.7 39.35 L180.9 39.7 181.75 40.3 182.0 40.4 181.95 40.5 182.55 40.95 182.65 41.0 183.35 41.5 Q183.35 41.85 182.75 41.85 L182.45 41.8 182.0 41.65 181.8 41.55 181.15 41.2 180.35 40.9 180.2 40.7 179.65 40.5 178.15 39.9 Q177.25 39.15 176.85 39.15 175.0 39.15 174.2 40.35 L174.0 41.5 Q174.0 42.75 175.15 44.85 L176.0 46.75 176.2 47.85 175.9 49.25 176.25 49.7 176.8 50.15 177.75 51.15 Q178.4 52.2 178.4 53.3 L178.35 54.25 177.8 55.15 Q176.35 56.85 173.9 56.85 L173.5 59.0 173.5 59.65 Q175.65 59.95 177.75 61.0 179.95 62.05 180.7 63.2 L181.85 65.5 182.1 66.6 182.5 67.65 182.45 68.0 182.15 68.05 179.7 65.85 Q177.95 64.75 176.65 64.45 176.65 65.65 173.5 65.65 170.85 65.65 169.45 65.05 L169.4 65.05 167.75 65.3 167.75 65.15 166.7 65.1 166.65 65.0 166.4 65.0 166.35 65.45 Q166.35 66.35 167.45 67.3 L170.2 69.15 170.6 69.3 171.05 69.45 172.0 69.95 173.95 70.6 Q174.95 70.95 175.5 71.5 L175.6 71.75 175.15 71.95 175.1 72.0 174.95 72.05 174.85 72.15 173.1 72.25 171.95 72.15 170.9 72.0 169.6 71.7 167.75 71.15 166.65 71.0 166.55 71.05 Q165.45 71.45 164.65 72.6 L164.6 73.2 Q164.6 74.05 164.95 74.75 L165.75 75.85 167.1 76.8 169.0 78.0 Q171.1 79.55 173.95 80.25 174.25 80.55 174.8 80.7 L175.0 80.85 175.7 81.0 175.9 81.15 176.95 81.25 177.25 81.35 177.65 81.4 178.05 81.5 178.35 81.6 178.7 81.55 179.3 81.6 180.85 81.45 182.85 80.9 183.2 80.65 183.65 80.5 184.95 79.8 185.5 79.3 185.65 79.2 187.1 77.6 187.65 75.9 187.85 72.5 187.95 71.65 188.05 70.8 188.5 69.1 188.45 68.9 188.3 68.85 188.9 66.6 190.4 61.05 191.9 55.35 Q192.65 52.4 192.65 49.9 L192.55 39.35 192.8 38.25 193.4 36.6 Q194.05 35.55 194.05 33.4 194.05 31.7 193.85 31.4 L193.05 29.55 Q192.4 27.25 192.4 25.65 L192.2 23.75 192.15 21.5 192.1 21.25 192.05 21.2 192.0 20.45 191.4 18.5 190.0 16.0 189.8 15.6 189.5 14.7 Q189.05 13.1 187.4 11.0 L184.05 7.15 Q182.25 5.15 178.35 3.7 177.55 3.4 176.6 2.9 L174.8 2.0 171.05 0.45 168.95 -0.05 164.5 -0.15 M169.95 -1.2 L171.7 -1.05 174.6 0.3 176.2 1.2 177.75 1.9 Q179.65 2.4 181.05 3.05 183.8 4.25 185.65 6.1 L188.2 9.3 Q190.65 12.65 191.55 15.65 L193.3 20.95 193.4 22.35 193.3 22.35 193.3 22.45 193.4 23.6 193.6 23.9 193.55 24.6 193.65 25.8 194.05 28.35 195.0 30.8 Q195.55 32.0 195.55 33.35 L195.5 34.75 194.95 36.35 194.25 37.85 194.25 38.0 Q193.85 38.65 193.85 39.3 L193.75 39.35 193.75 41.05 193.75 42.7 193.9 43.9 Q193.9 45.15 194.05 46.25 L194.2 50.9 193.9 53.1 193.7 55.05 193.3 57.2 192.65 59.25 191.5 63.4 190.4 67.7 Q190.1 68.55 189.85 70.75 L189.8 71.35 189.7 71.85 189.45 73.9 189.4 74.2 189.4 74.6 189.4 74.7 189.4 74.8 189.35 74.9 189.35 75.05 189.35 75.15 189.35 75.45 189.05 77.7 Q188.85 78.55 187.55 79.9 L186.8 80.45 186.15 81.0 184.65 81.95 182.5 82.8 181.65 83.2 183.05 84.0 184.25 84.75 184.65 84.6 185.2 85.0 Q186.6 84.3 190.35 85.95 191.8 87.0 192.8 90.3 193.15 91.4 195.15 92.3 197.3 93.35 197.9 94.3 L198.55 96.75 198.85 99.0 198.85 99.3 Q200.7 102.0 200.7 102.6 200.7 104.65 197.45 107.9 L198.3 111.05 198.45 117.8 Q198.45 121.95 198.25 123.1 198.0 124.4 197.1 124.95 L195.0 125.95 194.65 135.75 Q194.15 144.7 193.1 147.95 L197.15 148.35 200.75 149.9 Q201.9 150.45 201.9 151.4 L201.8 152.15 201.75 152.8 Q203.55 152.75 204.25 154.05 204.65 154.75 204.65 156.35 L204.35 157.45 204.05 158.5 Q204.05 159.2 205.1 160.45 L206.15 162.25 Q206.15 163.9 205.05 165.3 L203.9 166.65 204.3 167.8 204.65 169.3 204.6 170.65 203.65 172.35 202.0 173.6 202.15 175.1 201.8 177.2 200.3 177.35 200.15 177.35 197.75 178.45 194.15 179.75 Q192.65 180.4 192.5 180.55 L192.45 180.7 193.1 182.55 Q193.65 184.6 193.65 186.35 L192.8 191.7 Q191.85 196.9 191.3 198.5 190.05 202.5 188.15 204.5 187.65 205.05 186.25 205.8 L183.9 206.85 179.85 207.3 175.2 207.4 175.15 207.5 174.65 207.4 174.4 207.45 174.4 207.4 172.65 207.35 166.9 207.55 163.25 208.0 153.9 209.75 Q149.7 209.5 148.3 210.5 146.7 211.6 139.4 211.6 L136.65 211.5 134.4 211.35 131.1 211.45 127.0 211.4 127.5 211.6 127.4 211.95 126.9 212.1 Q125.6 212.1 124.1 211.3 L122.75 210.5 121.0 209.8 119.9 209.2 116.45 208.0 113.0 206.6 112.9 206.2 113.15 206.15 112.55 205.35 112.3 204.25 112.7 202.9 113.05 201.65 110.75 200.05 Q108.4 198.4 108.4 196.3 108.4 194.3 109.05 193.85 L107.15 191.9 104.05 193.8 Q100.75 195.55 96.9 196.75 93.75 197.75 91.8 199.6 90.85 200.5 89.25 202.85 87.45 205.5 86.45 209.35 L85.15 216.1 Q84.75 218.25 83.75 219.55 82.25 221.45 78.9 222.7 L72.25 224.8 67.15 226.25 61.1 227.8 55.4 229.0 45.8 230.1 Q32.35 231.1 10.25 231.1 4.05 231.1 2.3 225.05 1.7 223.15 1.4 219.75 L0.9 214.85 Q0.2 211.35 0.05 206.35 L0.0 197.6 Q0.0 190.35 0.7 184.7 L3.05 170.6 Q4.2 164.1 6.25 157.1 L7.4 153.7 Q8.05 152.45 8.65 151.95 L9.9 150.45 Q10.35 149.65 11.3 148.95 L12.8 147.45 13.25 146.45 12.9 146.2 Q13.0 145.75 13.75 145.1 L14.15 144.45 14.35 144.6 15.85 143.6 Q17.3 142.7 19.65 141.35 L23.45 138.65 23.85 138.4 20.7 132.1 Q20.7 130.35 28.7 122.6 L43.1 108.55 Q48.4 102.9 53.45 96.35 54.6 94.8 58.9 90.3 L60.95 87.75 Q61.55 87.2 62.15 86.95 L61.75 86.5 Q58.9 83.55 58.9 82.6 58.9 82.3 63.95 76.3 L69.0 70.4 Q68.15 67.9 68.15 65.3 68.15 62.4 68.5 61.95 69.3 60.95 74.25 59.65 77.6 58.75 81.05 58.15 82.2 53.95 86.7 54.65 88.95 55.0 90.8 56.5 L91.15 56.8 107.7 55.45 Q108.5 53.2 112.2 52.8 115.85 52.4 118.8 54.85 L128.4 55.35 130.1 56.85 130.15 56.9 Q130.75 56.55 131.85 56.2 L132.0 56.3 132.55 56.05 Q132.8 55.9 133.4 55.7 L133.55 54.95 Q134.5 52.8 134.5 49.3 L134.2 47.0 134.0 45.3 133.8 44.65 132.75 41.85 132.3 41.35 Q130.65 39.6 130.65 36.85 L130.65 35.2 131.25 33.3 Q131.55 32.25 132.4 31.5 L132.75 31.25 132.9 28.15 Q132.95 26.35 133.3 24.2 L133.25 23.75 Q133.25 23.2 133.6 22.25 L134.1 18.85 Q134.65 16.2 135.55 14.25 136.35 12.35 139.45 9.6 140.85 8.3 146.3 5.1 147.05 4.6 148.15 4.1 148.4 3.9 149.2 3.55 150.05 3.15 150.25 3.1 L153.35 2.2 Q153.7 1.55 154.6 1.8 L154.7 1.8 155.2 1.55 157.6 0.7 159.95 0.05 162.2 -0.65 165.4 -1.45 169.95 -1.2 M182.3 15.45 L177.95 14.75 181.5 14.95 Q183.75 15.5 184.9 16.25 L182.3 15.45 M186.7 23.25 L188.9 23.95 188.45 24.25 188.2 24.35 185.5 23.8 183.95 23.15 Q182.95 22.9 182.3 22.4 L181.2 21.75 179.9 21.2 175.05 19.95 171.85 19.5 169.4 19.3 174.4 19.3 175.15 19.55 175.9 19.85 178.95 20.4 Q180.2 20.65 181.65 21.35 L184.65 22.7 186.7 23.25 M182.75 19.3 L180.1 18.9 178.75 18.45 176.9 18.0 173.35 17.35 167.05 17.1 167.0 17.0 Q167.0 16.75 167.75 16.75 L171.0 16.55 172.45 16.9 177.05 17.55 182.8 19.2 182.75 19.3 M166.1 21.7 L168.5 21.3 173.4 21.05 Q176.2 21.05 179.9 22.35 181.75 23.0 183.1 23.7 L186.15 25.75 187.65 26.5 Q188.6 27.0 188.8 27.55 L188.3 27.7 186.65 27.2 185.1 26.45 181.85 24.85 Q177.25 22.5 173.95 22.5 L166.35 23.05 165.2 23.45 164.35 23.7 Q163.85 23.7 163.85 23.2 163.85 22.5 166.1 21.7 M171.95 23.85 Q175.5 24.0 176.95 24.55 L179.3 25.4 181.5 26.3 183.55 27.2 183.55 27.3 180.9 26.5 178.6 25.5 176.4 24.7 173.65 24.15 171.3 23.95 171.95 23.85 M168.25 40.1 L168.45 39.2 Q168.45 38.65 167.8 37.75 L167.4 37.35 167.4 37.25 167.15 37.1 167.15 37.4 167.05 37.85 167.0 37.95 166.65 38.9 Q166.05 39.95 164.9 39.95 163.25 39.95 162.3 39.2 L161.95 38.85 161.95 38.75 161.7 38.2 161.6 37.45 161.5 37.3 161.55 37.25 161.75 36.6 162.0 36.25 160.3 36.95 Q159.55 37.3 158.85 37.85 L158.75 38.1 Q158.45 38.1 158.45 38.45 L158.55 38.7 158.7 38.8 159.0 38.95 160.15 39.4 160.75 39.6 161.4 39.95 161.7 40.1 161.7 40.4 161.65 40.95 161.55 41.2 Q160.45 41.8 158.4 41.8 L156.45 41.55 156.1 41.45 156.1 42.0 156.7 43.9 157.2 45.35 157.3 45.7 157.95 46.3 159.3 47.15 159.95 47.45 161.2 48.55 162.05 49.75 162.55 51.0 162.8 52.3 162.95 53.55 163.0 53.75 163.0 53.85 163.15 54.25 163.35 54.45 163.9 54.7 164.25 54.6 164.45 54.65 Q164.95 54.65 165.3 54.1 L165.5 53.5 165.75 52.15 165.95 51.35 166.4 50.1 166.9 47.35 Q167.25 45.35 168.6 43.5 L169.85 41.9 169.8 41.75 Q167.75 41.6 167.45 41.05 L167.5 40.85 168.25 40.1 M181.85 53.95 L181.85 54.4 Q181.7 54.45 181.7 54.8 L181.6 55.15 Q181.55 55.7 181.3 55.7 L181.1 55.65 180.95 54.35 180.85 53.9 181.1 53.4 Q181.4 53.05 181.9 53.2 L181.95 53.5 181.85 53.95 M179.5 83.65 L179.35 83.65 179.45 83.7 179.5 83.65 M167.95 88.5 L168.25 88.2 166.45 88.45 166.45 88.55 Q163.2 88.85 161.45 89.85 L159.0 91.7 Q156.45 93.6 155.55 94.7 L157.6 96.05 158.5 96.65 159.35 97.4 161.5 94.9 Q162.4 93.8 164.15 92.35 L166.45 89.8 167.95 88.5 M191.35 147.85 L191.75 147.9 191.7 147.55 191.35 147.85 M201.35 154.3 L201.55 155.15 201.7 156.25 Q201.7 157.2 201.45 157.2 L197.85 156.95 Q197.5 156.85 197.5 156.55 L198.1 155.85 199.05 155.15 200.4 153.85 200.3 153.75 200.25 153.55 195.2 153.15 194.45 152.9 194.05 152.6 193.3 152.0 Q192.95 151.8 192.95 151.5 192.95 151.15 193.1 151.15 L194.05 151.05 195.0 151.1 196.0 151.6 197.2 152.1 198.75 152.5 Q199.75 152.5 200.5 152.05 L200.75 151.9 200.9 151.35 197.75 150.2 197.15 149.6 192.05 149.25 189.9 148.85 186.6 149.0 189.3 150.1 Q191.45 151.65 191.45 152.3 191.45 153.5 189.45 157.15 188.35 159.25 184.6 161.8 L182.7 162.8 180.6 163.25 179.6 163.65 177.6 163.95 177.0 164.1 176.45 164.4 174.35 165.4 171.9 167.65 Q170.25 169.05 168.1 169.9 L168.0 169.95 Q172.05 173.5 173.35 176.6 L174.7 179.95 175.05 181.4 175.1 181.5 175.6 181.4 177.35 180.95 179.2 179.85 Q181.15 177.9 185.55 177.9 L186.65 178.15 187.55 178.4 189.45 178.3 189.7 178.05 191.4 177.2 Q191.5 177.05 192.3 176.75 L193.8 176.4 194.95 176.6 196.2 176.75 196.55 176.45 197.7 175.45 198.1 174.7 Q198.3 174.25 198.7 174.1 199.15 173.9 199.3 174.4 L199.55 175.25 199.95 176.25 200.9 175.65 201.0 175.2 200.9 173.8 Q200.9 172.85 202.3 171.85 203.65 170.85 203.65 169.25 L203.3 168.1 Q202.9 167.35 202.9 166.65 202.9 166.25 203.15 165.8 202.2 165.8 201.4 165.15 200.7 164.6 200.7 164.2 200.7 163.85 200.85 163.85 L201.55 163.9 203.1 163.85 204.55 163.75 204.15 163.2 203.7 162.65 203.45 161.5 203.55 160.7 203.65 160.4 Q202.9 159.3 202.9 158.45 L203.3 157.5 203.65 156.15 Q203.65 153.95 201.75 153.75 L201.35 154.3 M173.5 184.0 L167.95 182.95 Q164.35 182.05 163.0 181.35 161.95 180.8 160.4 179.55 L158.15 177.45 Q156.1 175.05 154.75 173.0 L153.75 171.85 152.65 170.75 151.65 169.7 Q151.3 169.8 151.2 170.0 151.05 170.2 151.05 171.4 151.05 172.95 152.5 174.35 L155.0 177.25 155.15 177.5 155.15 177.55 155.35 177.9 155.1 178.0 154.85 177.95 Q153.95 178.9 150.25 181.4 148.0 182.55 146.7 183.25 L143.45 184.6 Q146.1 185.85 146.1 188.6 L146.1 188.95 146.85 189.25 Q147.75 189.4 149.45 190.5 150.45 190.95 152.5 193.05 L155.05 195.8 Q156.7 197.55 158.65 198.1 L158.8 198.25 161.45 199.3 Q164.65 200.0 166.95 200.9 L172.45 202.65 174.0 203.35 175.2 203.85 175.55 204.0 175.85 202.95 176.25 199.65 176.55 195.75 175.95 190.0 175.15 187.1 173.45 184.3 173.5 184.0 M157.4 145.85 L153.0 151.2 Q152.05 152.45 149.95 153.95 L149.3 154.35 147.3 157.2 Q143.05 163.1 139.45 167.2 L139.4 167.45 143.65 167.75 151.65 167.25 Q152.3 167.25 152.7 168.25 L152.9 169.0 154.25 168.7 156.8 168.2 157.95 167.85 157.9 167.75 159.9 167.1 Q159.0 165.05 158.9 162.15 159.1 157.05 158.9 154.9 L157.8 148.15 157.4 145.85" fill="#000000" fill-rule="evenodd" stroke="none"/>
    <path d="M167.95 88.5 L166.45 89.8 164.15 92.35 Q162.4 93.8 161.5 94.9 L159.35 97.4 158.5 96.65 157.6 96.05 155.55 94.7 Q156.45 93.6 159.0 91.7 L161.45 89.85 Q163.2 88.85 166.45 88.55 L166.45 88.45 168.25 88.2 167.95 88.5 M173.5 184.0 L173.45 184.3 175.15 187.1 175.95 190.0 176.55 195.75 176.25 199.65 175.85 202.95 175.55 204.0 175.2 203.85 174.0 203.35 172.45 202.65 166.95 200.9 Q164.65 200.0 161.45 199.3 L158.8 198.25 158.65 198.1 Q156.7 197.55 155.05 195.8 L152.5 193.05 Q150.45 190.95 149.45 190.5 147.75 189.4 146.85 189.25 L146.1 188.95 146.1 188.6 Q146.1 185.85 143.45 184.6 L146.7 183.25 Q148.0 182.55 150.25 181.4 153.95 178.9 154.85 177.95 L155.1 178.0 155.35 177.9 155.15 177.55 155.15 177.5 155.0 177.25 152.5 174.35 Q151.05 172.95 151.05 171.4 151.05 170.2 151.2 170.0 151.3 169.8 151.65 169.7 L152.65 170.75 153.75 171.85 154.75 173.0 Q156.1 175.05 158.15 177.45 L160.4 179.55 Q161.95 180.8 163.0 181.35 164.35 182.05 167.95 182.95 L173.5 184.0 M201.35 154.3 L201.75 153.75 Q203.65 153.95 203.65 156.15 L203.3 157.5 202.9 158.45 Q202.9 159.3 203.65 160.4 L203.55 160.7 203.45 161.5 203.7 162.65 204.15 163.2 204.55 163.75 203.1 163.85 201.55 163.9 200.85 163.85 Q200.7 163.85 200.7 164.2 200.7 164.6 201.4 165.15 202.2 165.8 203.15 165.8 202.9 166.25 202.9 166.65 202.9 167.35 203.3 168.1 L203.65 169.25 Q203.65 170.85 202.3 171.85 200.9 172.85 200.9 173.8 L201.0 175.2 200.9 175.65 199.95 176.25 199.55 175.25 199.3 174.4 Q199.15 173.9 198.7 174.1 198.3 174.25 198.1 174.7 L197.7 175.45 196.55 176.45 196.2 176.75 194.95 176.6 193.8 176.4 192.3 176.75 Q191.5 177.05 191.4 177.2 L189.7 178.05 189.45 178.3 187.55 178.4 186.65 178.15 185.55 177.9 Q181.15 177.9 179.2 179.85 L177.35 180.95 175.6 181.4 175.1 181.5 175.05 181.4 174.7 179.95 173.35 176.6 Q172.05 173.5 168.0 169.95 L168.1 169.9 Q170.25 169.05 171.9 167.65 L174.35 165.4 176.45 164.4 177.0 164.1 177.6 163.95 179.6 163.65 180.6 163.25 182.7 162.8 184.6 161.8 Q188.35 159.25 189.45 157.15 191.45 153.5 191.45 152.3 191.45 151.65 189.3 150.1 L186.6 149.0 189.9 148.85 192.05 149.25 197.15 149.6 197.75 150.2 200.9 151.35 200.75 151.9 200.5 152.05 Q199.75 152.5 198.75 152.5 L197.2 152.1 196.0 151.6 195.0 151.1 194.05 151.05 193.1 151.15 Q192.95 151.15 192.95 151.5 192.95 151.8 193.3 152.0 L194.05 152.6 194.45 152.9 195.2 153.15 200.25 153.55 200.3 153.75 200.4 153.85 199.05 155.15 198.1 155.85 197.5 156.55 Q197.5 156.85 197.85 156.95 L201.45 157.2 Q201.7 157.2 201.7 156.25 L201.55 155.15 201.35 154.3" fill="url(#gradient0)" fill-rule="evenodd" stroke="none"/>
    <path d="M164.5 -0.15 L168.95 -0.05 171.05 0.45 174.8 2.0 176.6 2.9 Q177.55 3.4 178.35 3.7 182.25 5.15 184.05 7.15 L187.4 11.0 Q189.05 13.1 189.5 14.7 L189.8 15.6 190.0 16.0 191.4 18.5 192.0 20.45 192.05 21.2 192.1 21.25 192.15 21.5 192.2 23.75 192.4 25.65 Q192.4 27.25 193.05 29.55 L193.85 31.4 Q194.05 31.7 194.05 33.4 194.05 35.55 193.4 36.6 L192.8 38.25 192.55 39.35 192.65 49.9 Q192.65 52.4 191.9 55.35 L190.4 61.05 188.9 66.6 188.3 68.85 188.45 68.9 188.5 69.1 188.05 70.8 187.95 71.65 187.85 72.5 187.65 75.9 187.1 77.6 185.65 79.2 185.5 79.3 184.95 79.8 183.65 80.5 183.2 80.65 182.85 80.9 180.85 81.45 179.3 81.6 178.7 81.55 178.35 81.6 178.05 81.5 177.65 81.4 177.25 81.35 176.95 81.25 175.9 81.15 175.7 81.0 175.0 80.85 174.8 80.7 Q174.25 80.55 173.95 80.25 171.1 79.55 169.0 78.0 L167.1 76.8 165.75 75.85 164.95 74.75 Q164.6 74.05 164.6 73.2 L164.65 72.6 Q165.45 71.45 166.55 71.05 L166.65 71.0 167.75 71.15 169.6 71.7 170.9 72.0 171.95 72.15 173.1 72.25 174.85 72.15 174.95 72.05 175.1 72.0 175.15 71.95 175.6 71.75 175.5 71.5 Q174.95 70.95 173.95 70.6 L172.0 69.95 171.05 69.45 170.6 69.3 170.2 69.15 167.45 67.3 Q166.35 66.35 166.35 65.45 L166.4 65.0 166.65 65.0 166.7 65.1 167.75 65.15 167.75 65.3 169.4 65.05 169.45 65.05 Q170.85 65.65 173.5 65.65 176.65 65.65 176.65 64.45 177.95 64.75 179.7 65.85 L182.15 68.05 182.45 68.0 182.5 67.65 182.1 66.6 181.85 65.5 180.7 63.2 Q179.95 62.05 177.75 61.0 175.65 59.95 173.5 59.65 L173.5 59.0 173.9 56.85 Q176.35 56.85 177.8 55.15 L178.35 54.25 178.4 53.3 Q178.4 52.2 177.75 51.15 L176.8 50.15 176.25 49.7 175.9 49.25 176.2 47.85 176.0 46.75 175.15 44.85 Q174.0 42.75 174.0 41.5 L174.2 40.35 Q175.0 39.15 176.85 39.15 177.25 39.15 178.15 39.9 L179.65 40.5 180.2 40.7 180.35 40.9 181.15 41.2 181.8 41.55 182.0 41.65 182.45 41.8 182.75 41.85 Q183.35 41.85 183.35 41.5 L182.65 41.0 182.55 40.95 181.95 40.5 182.0 40.4 181.75 40.3 180.9 39.7 180.7 39.35 Q180.7 39.1 181.05 38.9 L181.9 38.4 182.4 38.15 182.9 37.95 183.35 37.85 183.3 38.25 183.5 39.6 183.5 39.65 183.45 39.85 183.7 40.25 Q184.25 40.9 185.45 40.95 L185.55 40.95 185.65 40.95 Q187.15 40.95 187.8 40.25 L188.0 39.6 188.15 38.65 188.15 38.55 188.2 38.6 Q188.25 38.2 188.9 37.8 L190.35 37.0 190.9 36.45 190.6 36.05 Q190.25 35.45 188.4 34.55 L186.0 33.45 183.9 31.9 183.1 31.2 Q182.5 30.7 181.8 30.7 L180.75 31.0 Q180.25 30.25 179.6 30.25 L177.9 30.35 175.7 30.05 174.0 28.8 173.6 29.05 172.8 29.2 172.2 29.1 Q171.05 28.25 169.55 27.8 L168.95 27.75 168.35 27.85 166.2 28.05 160.0 29.5 159.25 29.6 159.65 29.25 161.45 27.7 Q162.0 27.15 162.0 26.45 162.0 25.2 159.95 23.0 L157.85 21.1 158.9 19.1 159.5 18.1 160.15 16.5 161.1 14.55 161.85 12.5 162.35 10.25 161.85 8.45 161.1 6.75 159.1 4.7 158.5 4.2 157.6 3.4 156.85 2.9 158.7 1.85 160.4 0.85 Q160.7 0.6 161.2 0.65 L162.4 0.5 163.4 0.2 164.5 -0.15 M171.95 23.85 L171.3 23.95 173.65 24.15 176.4 24.7 178.6 25.5 180.9 26.5 183.55 27.3 183.55 27.2 181.5 26.3 179.3 25.4 176.95 24.55 Q175.5 24.0 171.95 23.85 M166.1 21.7 Q163.85 22.5 163.85 23.2 163.85 23.7 164.35 23.7 L165.2 23.45 166.35 23.05 173.95 22.5 Q177.25 22.5 181.85 24.85 L185.1 26.45 186.65 27.2 188.3 27.7 188.8 27.55 Q188.6 27.0 187.65 26.5 L186.15 25.75 183.1 23.7 Q181.75 23.0 179.9 22.35 176.2 21.05 173.4 21.05 L168.5 21.3 166.1 21.7 M182.75 19.3 L182.8 19.2 177.05 17.55 172.45 16.9 171.0 16.55 167.75 16.75 Q167.0 16.75 167.0 17.0 L167.05 17.1 173.35 17.35 176.9 18.0 178.75 18.45 180.1 18.9 182.75 19.3 M186.7 23.25 L184.65 22.7 181.65 21.35 Q180.2 20.65 178.95 20.4 L175.9 19.85 175.15 19.55 174.4 19.3 169.4 19.3 171.85 19.5 175.05 19.95 179.9 21.2 181.2 21.75 182.3 22.4 Q182.95 22.9 183.95 23.15 L185.5 23.8 188.2 24.35 188.45 24.25 188.9 23.95 186.7 23.25 M182.3 15.45 L184.9 16.25 Q183.75 15.5 181.5 14.95 L177.95 14.75 182.3 15.45 M168.25 40.1 L167.5 40.85 167.45 41.05 Q167.75 41.6 169.8 41.75 L169.85 41.9 168.6 43.5 Q167.25 45.35 166.9 47.35 L166.4 50.1 165.95 51.35 165.75 52.15 165.5 53.5 165.3 54.1 Q164.95 54.65 164.45 54.65 L164.25 54.6 163.9 54.7 163.35 54.45 163.15 54.25 163.0 53.85 163.0 53.75 162.95 53.55 162.8 52.3 162.55 51.0 162.05 49.75 161.2 48.55 159.95 47.45 159.3 47.15 157.95 46.3 157.3 45.7 157.2 45.35 156.7 43.9 156.1 42.0 156.1 41.45 156.45 41.55 158.4 41.8 Q160.45 41.8 161.55 41.2 L161.65 40.95 161.7 40.4 161.7 40.1 161.4 39.95 160.75 39.6 160.15 39.4 159.0 38.95 158.7 38.8 158.55 38.7 158.45 38.45 Q158.45 38.1 158.75 38.1 L158.85 37.85 Q159.55 37.3 160.3 36.95 L162.0 36.25 161.75 36.6 161.55 37.25 161.5 37.3 161.6 37.45 161.7 38.2 161.95 38.75 161.95 38.85 162.3 39.2 Q163.25 39.95 164.9 39.95 166.05 39.95 166.65 38.9 L167.0 37.95 167.05 37.85 167.15 37.4 167.15 37.1 167.4 37.25 167.4 37.35 167.8 37.75 Q168.45 38.65 168.45 39.2 L168.25 40.1 M181.85 53.95 L181.95 53.5 181.9 53.2 Q181.4 53.05 181.1 53.4 L180.85 53.9 180.95 54.35 181.1 55.65 181.3 55.7 Q181.55 55.7 181.6 55.15 L181.7 54.8 Q181.7 54.45 181.85 54.4 L181.85 53.95" fill="url(#gradient1)" fill-rule="evenodd" stroke="none"/>
    <path d="M159.8 30.95 L158.7 30.05 158.0 30.95 Q157.3 31.45 155.65 31.45 L153.65 31.3 151.65 31.05 151.45 30.8 150.0 30.6 Q149.7 30.4 149.3 30.35 L146.05 30.1 146.05 30.05 147.55 29.95 149.9 29.95 150.75 29.9 151.75 29.6 154.4 29.45 156.7 29.4 156.25 28.1 156.35 27.55 Q156.35 27.4 156.7 27.2 157.05 26.95 157.3 27.0 157.05 26.4 157.25 26.05 L157.8 25.6 157.75 25.1 Q157.75 24.4 158.55 24.25 L158.65 24.25 157.5 23.05 157.2 22.45 156.95 22.2 156.55 21.55 156.4 21.2 Q154.15 17.75 154.15 16.85 154.15 16.15 154.85 16.05 155.65 15.9 156.55 17.6 L157.4 19.15 157.75 18.8 158.3 18.35 158.25 16.95 158.65 16.25 159.05 15.5 158.95 15.25 158.8 15.0 160.8 12.9 161.45 12.35 161.65 11.65 Q161.65 11.45 161.3 11.4 L160.7 11.1 160.5 10.0 160.5 9.3 Q160.5 9.05 161.0 8.55 160.5 8.15 159.5 7.65 159.05 7.45 159.05 7.0 159.05 6.45 159.5 6.2 L159.75 6.1 159.5 6.0 155.85 5.6 154.4 5.8 153.1 5.95 Q152.0 5.95 152.0 4.9 L152.1 4.3 Q152.5 3.95 154.0 3.8 L156.8 3.55 Q156.9 2.65 158.2 1.35 159.8 -0.25 161.45 -0.25 L162.1 -0.1 164.1 -0.6 Q166.7 -1.0 166.7 -0.15 166.7 0.5 165.9 0.6 L162.45 1.2 161.8 1.6 161.35 2.05 Q160.0 2.5 160.0 2.85 160.0 3.45 161.65 4.45 L162.25 4.65 Q164.15 5.3 164.85 5.85 167.95 8.3 167.95 11.2 L167.7 12.95 Q167.5 14.35 166.85 14.75 162.6 17.15 162.6 18.45 L162.85 19.6 Q163.5 20.25 164.1 20.35 L166.15 20.4 170.95 19.9 174.8 19.4 178.3 19.9 181.1 20.6 Q182.6 21.05 183.1 21.5 L184.55 22.45 187.05 24.6 187.45 25.15 188.0 25.75 Q188.8 26.35 188.8 26.7 188.8 27.35 188.2 27.35 187.75 27.35 186.85 26.5 L185.95 25.5 185.6 25.1 184.25 24.5 183.0 23.9 180.7 22.85 179.2 22.35 175.95 22.1 Q174.3 22.05 173.55 21.6 173.15 21.35 173.1 21.1 L172.65 21.2 169.75 21.5 165.75 21.75 165.9 22.2 165.45 22.7 165.25 22.85 165.15 23.2 Q165.15 24.4 166.65 25.65 168.05 26.9 169.9 27.35 173.65 28.2 174.4 28.8 L175.45 29.9 Q176.05 30.7 176.05 31.15 L176.0 31.55 175.7 31.6 174.95 31.2 174.4 30.75 173.55 29.8 Q172.6 29.2 169.3 28.55 L168.1 28.2 168.0 28.25 169.15 29.25 170.45 30.2 172.05 31.05 172.95 31.4 173.8 31.8 174.3 32.75 Q174.3 33.25 173.75 33.25 L172.05 32.95 170.75 32.45 170.4 32.9 169.55 33.2 168.65 32.7 168.05 32.1 167.9 32.5 167.1 32.7 166.5 32.5 166.1 32.2 165.75 31.95 165.25 31.95 163.7 31.5 162.9 30.95 162.6 31.4 Q162.25 31.8 161.7 31.8 160.95 31.8 159.9 31.0 L159.8 30.95 M162.5 14.95 L162.3 15.35 162.75 14.95 162.5 14.95 M166.15 27.25 L167.15 28.0 166.4 27.4 166.15 27.25 M163.0 34.35 Q163.2 33.95 163.6 33.95 164.05 33.9 164.2 34.4 L164.2 35.15 164.2 35.2 164.95 34.45 Q165.45 34.0 165.95 34.0 166.4 34.0 166.55 34.35 L166.7 34.8 167.05 34.9 Q167.3 34.95 167.45 35.55 L167.85 35.5 Q168.7 35.5 168.6 36.5 L168.4 37.85 169.4 37.6 Q170.35 37.7 170.35 38.55 L170.3 38.9 170.0 39.4 170.05 39.65 170.15 39.6 Q171.05 39.6 171.05 40.55 L170.75 41.5 171.0 42.55 170.8 43.1 170.4 43.75 170.15 43.5 Q169.75 43.5 169.05 44.05 L168.35 44.8 168.6 45.55 167.55 48.35 166.6 51.3 165.95 53.05 166.3 54.45 Q166.4 55.5 165.15 55.5 L164.9 55.3 Q164.15 56.4 163.15 56.85 L163.25 56.75 163.35 55.8 163.55 54.75 Q163.0 54.0 163.0 53.55 L163.0 53.5 162.65 52.9 160.65 49.9 Q159.8 48.85 157.15 46.9 L155.25 45.95 155.05 45.95 Q153.25 45.95 153.25 44.95 153.25 44.55 153.75 44.3 L153.65 44.0 154.15 43.75 154.5 43.65 154.1 43.55 153.45 43.3 Q153.05 43.0 153.05 42.4 L153.25 41.85 Q153.25 41.7 153.6 41.6 L154.3 41.4 154.75 40.85 155.35 40.3 156.1 39.95 Q156.65 38.95 157.8 37.6 L159.35 35.55 Q159.75 35.0 160.65 34.8 L161.95 34.05 Q162.4 34.05 162.5 34.4 L162.5 34.85 163.0 34.35 M163.55 37.7 L162.75 38.6 162.8 38.6 163.05 38.6 163.5 37.8 163.55 37.7 M178.8 37.95 Q178.8 38.55 177.2 39.35 175.6 40.2 175.6 41.2 175.6 42.0 176.2 43.2 176.9 44.55 177.1 46.45 177.25 47.95 178.2 49.15 179.1 50.2 179.1 51.85 179.1 53.1 178.8 53.6 L178.05 54.6 Q177.4 55.25 176.7 55.25 175.3 55.25 175.3 54.1 L175.5 53.6 176.0 53.15 176.2 53.25 176.4 53.35 Q177.0 53.35 177.15 51.8 177.15 50.8 176.35 50.1 175.45 49.25 175.15 46.6 175.05 45.75 174.35 44.05 173.65 42.55 173.65 41.25 173.65 40.4 173.9 39.95 L175.0 38.45 Q175.7 37.6 177.2 37.25 178.8 36.9 178.8 37.95 M180.7 37.9 L181.1 38.0 Q181.4 37.4 182.0 36.95 182.3 36.7 182.75 36.65 L183.55 36.75 184.4 37.3 184.75 37.8 185.1 37.25 Q185.35 36.95 185.75 36.95 186.25 36.95 186.6 37.45 186.9 37.95 187.15 37.95 187.3 37.95 187.65 38.3 L187.7 38.3 Q187.05 37.6 187.05 37.2 187.05 36.6 187.6 36.6 188.1 36.6 189.05 37.45 L190.15 38.8 Q191.15 40.65 191.15 41.05 L191.05 41.45 190.75 41.6 190.6 41.65 Q190.1 42.35 186.9 42.35 L185.05 42.15 185.1 42.25 184.55 42.1 185.15 42.65 186.95 44.35 187.9 45.1 188.15 45.6 188.35 45.95 188.15 46.1 186.45 45.15 184.25 43.4 184.05 43.2 184.5 43.95 185.4 45.15 186.2 46.35 Q186.8 47.2 187.35 47.4 L187.45 47.5 186.5 47.0 Q187.65 48.1 188.95 49.05 L188.8 49.3 188.45 49.45 Q188.15 49.45 186.75 48.5 L185.2 47.35 183.95 46.2 182.95 45.05 Q179.85 40.85 179.85 40.25 L179.55 39.6 Q179.55 39.2 179.9 39.0 L179.8 38.75 Q179.8 37.85 180.7 37.9 M164.95 46.2 Q165.45 44.9 166.55 43.75 L166.35 43.85 166.35 43.65 Q166.35 42.9 165.35 43.15 L163.7 43.65 162.1 43.8 160.3 44.1 Q159.75 44.3 159.6 44.5 159.45 44.65 159.45 44.95 L159.6 45.25 159.25 45.3 159.2 45.3 159.4 45.35 159.95 45.5 160.65 45.85 161.45 46.4 162.1 47.1 Q162.75 47.7 163.15 48.8 163.45 49.6 164.15 49.6 164.7 49.6 164.8 48.4 L164.9 46.7 164.95 46.2 M185.8 38.8 L185.7 38.75 185.55 39.25 185.85 39.3 185.8 38.8 M186.75 43.3 L186.65 43.25 186.55 43.2 186.7 43.25 186.75 43.3 M184.45 59.4 L184.25 57.8 Q184.15 56.75 183.45 54.6 182.75 52.5 182.05 51.55 L182.15 51.35 Q182.6 51.5 183.6 52.6 L184.35 54.3 185.2 57.7 Q185.85 61.3 185.85 64.3 L185.8 66.2 185.2 69.0 Q184.7 68.95 184.55 68.5 L184.5 67.7 184.9 65.95 184.9 64.2 184.75 62.55 184.65 61.0 184.45 59.4 M168.15 64.15 L169.05 63.95 171.15 63.8 172.3 63.6 174.9 63.65 177.5 64.1 179.4 65.0 181.25 66.0 Q182.3 66.6 182.3 67.1 182.35 67.6 181.75 67.6 179.95 66.45 179.55 66.35 L177.65 65.75 173.7 65.55 168.85 66.1 172.75 68.95 Q173.45 69.4 175.7 70.3 177.15 70.85 177.15 71.5 177.15 72.6 174.85 72.6 L172.25 72.3 Q170.15 72.3 169.0 73.95 168.2 75.05 168.2 75.9 168.2 76.85 170.15 78.85 L171.45 80.25 Q171.5 79.95 171.95 79.6 L172.05 79.85 Q172.2 80.1 172.5 80.1 173.9 80.1 174.95 77.45 174.95 79.2 175.45 80.35 L176.0 81.4 175.5 81.6 174.9 81.35 174.25 81.1 Q173.45 82.2 172.75 82.2 172.15 82.2 172.1 81.6 172.05 82.3 171.0 82.3 170.1 82.3 168.65 80.9 L166.8 78.85 165.75 77.05 165.25 76.1 165.2 75.6 164.7 75.2 Q164.5 75.6 164.0 75.6 163.15 75.6 163.15 73.9 L163.4 71.7 Q163.9 69.55 165.0 69.55 L165.75 69.75 Q166.15 69.75 166.35 69.15 166.55 68.55 167.45 68.55 167.9 68.55 168.25 69.0 168.6 69.45 169.25 69.4 170.55 69.3 170.7 70.45 L171.8 70.35 171.5 70.2 167.3 67.55 167.0 68.0 Q166.8 68.3 166.1 68.3 165.0 68.3 165.0 67.05 L165.25 65.85 165.35 64.65 166.05 64.1 166.2 63.8 166.65 63.45 Q167.45 63.15 168.15 64.15 M165.6 83.35 Q164.2 83.35 163.35 82.6 L166.25 82.6 165.6 83.35 M170.0 83.1 L169.45 83.75 Q170.5 84.0 170.7 85.15 171.4 85.8 171.4 87.2 171.4 89.0 168.4 89.75 163.55 90.95 160.8 92.25 159.9 92.7 159.45 93.0 L158.75 93.5 154.5 97.25 151.15 100.25 Q148.95 100.25 148.95 98.35 148.95 96.5 152.35 93.2 155.5 90.1 159.85 87.4 164.3 84.55 167.3 83.85 L168.25 83.7 167.5 82.95 167.25 82.6 170.3 82.6 170.0 83.1 M171.65 80.5 L172.1 81.3 172.1 81.45 172.6 80.6 171.65 80.5 M181.45 144.05 Q183.5 144.25 187.7 146.6 191.9 147.65 193.95 149.6 195.7 151.2 195.7 153.0 195.7 155.5 192.4 159.1 188.5 163.3 183.2 164.6 175.2 166.55 172.05 169.1 L171.85 169.3 172.15 169.85 176.0 176.55 Q176.5 176.2 177.15 175.9 181.1 173.9 186.85 172.7 192.5 171.55 196.5 171.95 200.9 172.4 200.9 174.6 200.9 176.1 197.65 179.6 194.45 183.05 192.6 183.8 L192.4 181.9 192.95 180.3 193.65 178.7 Q190.2 179.3 183.9 182.3 L178.75 184.85 179.05 185.9 Q181.1 192.65 181.1 193.8 181.1 195.05 180.15 196.1 179.1 197.15 177.8 197.15 177.8 198.9 178.25 201.0 L178.65 204.1 Q178.65 205.25 177.8 205.95 177.05 206.55 176.0 206.55 172.7 206.55 166.55 204.0 160.95 201.45 160.7 201.4 156.75 200.2 154.75 198.25 L151.0 194.85 Q148.5 193.15 143.95 188.9 138.1 183.4 138.1 181.35 L138.4 180.15 Q138.95 178.9 140.35 178.9 143.3 178.9 153.6 190.35 156.05 193.1 161.45 195.9 166.85 198.7 172.75 200.35 L172.9 197.55 Q172.9 192.0 170.75 182.85 170.3 180.95 167.45 174.6 L167.2 174.05 166.0 175.05 Q164.7 175.05 164.2 173.65 L163.9 172.1 Q163.9 170.9 165.2 169.3 L164.8 168.1 Q164.8 164.9 168.1 166.35 172.15 162.9 175.9 161.85 182.3 160.05 185.6 158.45 190.4 156.0 190.3 153.2 L182.7 149.5 Q179.25 147.8 179.25 146.05 179.25 143.8 181.45 144.05" fill="#000000" fill-opacity="0.101960786" fill-rule="evenodd" stroke="none"/>
    <path d="M159.8 30.95 L159.9 31.0 Q160.95 31.8 161.7 31.8 162.25 31.8 162.6 31.4 L164.6 31.95 Q165.25 32.1 165.25 32.7 L164.95 33.25 Q164.6 33.55 164.1 33.55 163.2 33.55 161.7 32.9 L160.15 32.2 159.5 32.15 Q159.35 32.05 159.35 31.6 159.35 31.25 159.75 30.95 L159.8 30.95" fill="#000000" fill-rule="evenodd" stroke="none"/>
  </g>
  <defs>
    <linearGradient gradientTransform="matrix(0.0188, 0.1473, -0.9915, 0.1266, 338.65, 85.1)" gradientUnits="userSpaceOnUse" id="gradient0" spreadMethod="pad" x1="-819.2" x2="819.2">
      <stop offset="0.0" stop-color="#ceb19f"/>
      <stop offset="1.0" stop-color="#a37354"/>
    </linearGradient>
    <linearGradient gradientTransform="matrix(0.0188, 0.1489, -0.9915, 0.128, 338.65, 85.55)" gradientUnits="userSpaceOnUse" id="gradient1" spreadMethod="pad" x1="-819.2" x2="819.2">
      <stop offset="0.0" stop-color="#ceb19f"/>
      <stop offset="1.0" stop-color="#a37354"/>
    </linearGradient>
  </defs>
</svg>
