<?xml version="1.0" encoding="UTF-8" standalone="no"?>
<svg xmlns:xlink="http://www.w3.org/1999/xlink" height="387.4px" width="721.5px" xmlns="http://www.w3.org/2000/svg">
  <g transform="matrix(1.0, 0.0, 0.0, 1.0, 0.0, 0.0)">
    <path d="M508.2 39.85 L507.75 41.3 508.0 41.9 507.7 41.15 507.65 39.65 508.2 39.85 M556.6 247.5 L556.95 247.55 556.9 247.7 556.6 247.5 M348.15 352.85 L347.95 353.45 347.85 353.65 348.15 352.85 M342.9 360.85 L342.65 360.95 342.6 360.3 342.9 360.85 M307.1 354.65 L307.1 354.95 306.95 354.9 307.1 354.65 M244.3 189.95 L243.95 189.75 243.85 189.3 243.8 189.7 243.2 189.35 241.65 185.2 241.2 183.5 Q242.6 187.2 244.3 189.95 M332.35 262.45 Q332.15 263.05 332.15 262.15 L332.35 262.45 M620.75 273.9 L620.6 274.0 620.65 273.45 620.75 273.9 M622.6 325.15 L622.6 324.9 622.75 325.1 622.6 325.15 M232.5 32.0 L232.35 31.95 232.15 31.85 232.5 32.0 M233.95 119.05 L233.45 116.75 234.05 118.4 233.95 119.05 M249.35 191.5 L247.9 189.65 248.6 189.4 249.35 191.5" fill="#1e1e1e" fill-rule="evenodd" stroke="none"/>
    <path d="M658.5 290.65 L660.95 290.4 680.25 289.65 684.75 289.7 Q687.55 290.05 689.5 291.65 688.25 293.05 681.15 298.1 673.95 303.2 672.5 304.7 L665.8 311.4 Q661.75 315.45 660.0 318.2 L659.9 318.45 660.1 318.35 Q665.75 315.2 674.25 311.2 688.35 304.65 693.25 304.65 L695.25 304.9 695.4 305.1 695.5 306.0 Q695.5 307.0 685.9 331.45 681.9 342.05 681.8 346.4 L682.1 352.15 682.15 352.75 684.7 352.9 684.15 353.45 Q683.0 354.8 682.6 355.85 L682.4 355.85 682.5 356.55 682.45 356.35 682.4 356.9 682.5 357.7 681.9 365.95 681.55 366.2 681.0 366.45 680.95 366.2 680.95 366.15 680.25 361.65 680.0 361.9 Q678.8 361.2 677.25 358.95 L674.95 355.5 664.15 354.95 618.6 353.15 Q605.3 353.15 591.45 351.45 577.6 349.7 571.7 349.7 555.45 349.7 537.8 353.45 520.15 357.15 516.85 357.15 508.65 357.15 504.25 355.65 500.8 353.9 499.35 353.4 L490.0 351.9 480.85 350.65 475.25 350.05 470.1 349.4 468.85 348.65 Q466.4 346.9 465.85 346.65 L463.65 345.95 464.6 347.45 464.6 347.8 Q464.6 348.15 463.85 348.15 463.2 348.15 462.15 347.35 461.8 348.9 461.7 350.75 L461.4 357.2 461.5 357.4 461.5 357.45 Q461.6 357.65 460.85 357.65 458.85 357.65 449.45 355.55 L437.6 352.9 431.4 351.95 422.65 350.95 416.85 349.75 Q412.2 348.65 410.15 348.65 L405.8 348.8 408.6 355.15 408.35 355.75 Q408.1 356.15 407.35 356.15 405.3 356.15 402.7 350.05 L402.4 349.15 397.85 350.0 397.75 350.05 395.05 350.8 394.8 351.0 394.3 351.1 393.9 351.45 Q393.9 352.2 393.7 352.15 L392.85 351.9 392.15 351.4 392.0 351.15 350.45 350.75 348.95 350.55 348.15 352.85 347.85 353.65 347.8 353.75 Q345.45 359.65 342.9 360.85 L342.6 360.3 Q342.6 359.1 344.0 356.25 L345.9 352.15 345.85 351.95 344.7 352.4 343.1 352.7 Q341.5 352.7 340.5 351.8 L339.35 350.65 Q336.85 349.25 335.15 349.45 332.0 349.7 329.85 349.4 L317.2 347.45 309.8 346.7 307.85 346.65 307.05 346.75 307.05 347.7 Q307.0 351.95 307.1 354.65 L306.95 354.9 Q304.85 354.15 304.5 351.85 302.35 354.7 297.85 356.4 L294.85 357.35 294.8 357.4 290.7 358.2 276.3 360.2 276.1 360.2 275.9 360.25 275.2 360.3 269.7 360.95 258.35 362.2 208.15 367.55 Q170.15 371.2 152.1 371.2 132.05 371.2 102.85 366.85 82.15 363.75 69.35 360.7 L54.45 357.2 Q45.55 355.2 42.1 354.9 L32.95 353.95 18.35 352.7 Q12.9 352.25 9.0 350.8 L8.4 350.6 Q7.15 355.85 6.5 360.95 L4.45 374.35 Q3.15 381.65 1.35 387.2 L0.5 387.4 Q0.0 386.45 0.0 384.9 0.0 384.3 0.45 382.85 L0.85 380.75 Q0.85 379.3 1.55 377.4 L2.85 373.9 Q3.25 372.5 3.3 370.55 L3.25 367.15 4.15 360.75 5.25 353.95 6.3 349.75 3.25 348.45 Q3.1 349.0 3.1 347.75 3.1 346.45 5.35 346.45 L7.1 346.6 8.7 340.85 Q11.1 333.05 14.5 327.4 31.7 298.6 66.85 274.95 70.8 272.25 75.7 269.6 79.05 267.75 86.15 264.2 95.1 259.8 107.1 251.65 119.6 243.05 125.45 239.45 135.9 233.05 144.85 229.65 153.45 226.3 167.4 224.1 182.55 221.7 185.85 220.65 L198.55 216.4 Q204.65 214.05 208.35 211.65 210.2 210.45 216.25 207.8 223.1 204.8 226.4 202.95 L234.9 198.45 Q236.1 197.9 244.25 196.65 L248.05 196.1 244.9 190.95 244.3 189.95 Q242.6 187.2 241.2 183.5 L239.9 179.7 238.0 174.0 236.4 168.45 234.55 162.85 Q233.05 158.95 232.65 157.2 231.65 152.9 231.8 145.95 L231.85 134.7 Q231.4 127.65 229.9 123.45 L229.5 118.3 Q229.15 114.9 226.3 112.85 L226.1 112.7 226.45 112.7 Q229.0 114.5 230.7 116.7 228.8 111.95 225.95 106.05 L219.6 93.75 219.55 93.7 219.1 91.9 218.85 91.65 218.8 92.3 218.2 91.25 214.35 85.2 212.65 79.1 210.35 73.4 210.15 72.9 Q207.05 64.85 206.15 61.2 L204.45 54.7 204.25 53.85 204.15 53.1 204.1 53.0 204.0 52.55 204.0 52.35 203.95 52.25 203.8 51.35 203.75 50.9 203.65 49.85 203.65 49.65 Q203.5 46.9 202.3 43.4 201.15 40.1 201.15 37.95 201.15 35.8 201.65 34.0 L201.85 33.4 201.7 33.15 201.35 32.25 201.75 29.8 202.15 27.3 Q202.15 25.6 203.3 21.8 204.3 18.5 205.1 16.9 206.85 12.95 208.1 12.05 211.15 9.8 220.85 8.4 225.75 6.5 229.9 9.5 232.45 11.3 235.6 15.95 236.7 17.5 237.0 20.7 L237.1 22.3 237.4 21.65 Q238.3 19.2 240.0 17.25 241.35 15.8 244.65 13.15 250.2 8.6 257.85 4.65 259.9 3.55 262.2 3.05 L270.9 2.45 285.75 1.9 302.1 1.15 313.65 1.9 325.1 2.45 Q337.65 2.45 347.75 0.6 366.2 -0.8 426.35 1.15 L431.4 1.6 436.85 2.15 442.35 2.95 Q455.6 5.95 465.65 6.4 L483.85 7.45 503.9 8.4 Q505.9 8.45 506.65 8.85 507.25 9.15 507.9 10.2 508.65 11.35 509.6 15.45 510.05 17.65 510.35 21.6 L510.6 26.15 510.5 27.65 510.65 28.4 510.7 29.5 Q510.2 30.15 509.95 31.1 509.55 32.8 509.4 35.95 L508.2 39.85 507.65 39.65 507.6 38.45 507.35 39.6 Q506.2 43.7 503.7 49.25 L498.15 60.65 492.15 72.5 Q486.8 82.15 484.35 82.15 482.05 82.15 481.45 76.5 L481.1 67.7 Q480.85 64.8 479.35 60.35 L476.85 53.15 Q475.4 48.65 473.85 45.7 471.85 41.75 468.85 38.65 468.1 37.9 466.15 36.7 L463.9 35.2 462.1 33.7 460.6 32.4 Q459.9 31.5 458.4 30.65 456.55 29.6 454.6 29.4 448.1 28.6 446.9 27.7 L440.85 27.15 Q431.1 27.15 422.1 33.65 L422.05 33.65 417.15 36.75 417.35 37.55 Q414.3 40.4 411.6 43.85 L409.35 46.95 Q404.5 46.95 395.75 43.55 L387.05 39.9 Q385.2 40.3 383.9 40.8 379.7 42.35 377.35 42.9 372.15 44.1 366.85 47.5 362.55 50.3 360.65 52.7 352.9 62.65 351.85 64.6 349.6 68.6 349.6 75.0 349.6 80.1 351.55 85.75 353.75 92.1 356.9 93.9 357.85 94.45 363.85 96.7 369.5 99.1 370.1 100.9 370.65 102.75 370.9 105.5 L371.1 110.2 Q371.55 130.5 378.3 146.2 379.4 146.95 382.2 147.1 L383.55 146.85 Q391.35 145.55 394.95 144.15 398.85 142.6 404.85 140.95 410.65 139.4 412.2 139.4 414.0 139.4 417.5 140.3 L420.95 141.3 421.5 141.1 423.55 142.05 424.35 142.5 424.5 142.55 424.65 142.65 427.2 144.55 427.5 144.75 427.5 144.8 427.25 145.4 426.6 145.7 425.35 145.45 425.15 145.4 Q422.5 143.9 420.25 144.2 418.75 144.45 418.4 145.05 417.8 145.2 417.3 145.5 L416.35 146.0 412.15 148.25 Q406.45 151.1 405.4 152.65 406.9 154.7 410.55 158.3 L413.9 161.55 Q413.9 162.5 411.8 164.4 409.45 166.45 408.9 170.45 408.6 172.85 407.4 175.15 L405.85 177.5 410.35 177.4 Q414.4 179.0 415.85 179.2 418.6 179.6 420.2 181.6 421.4 183.15 421.4 184.75 421.4 186.55 419.15 189.55 L415.15 194.4 Q416.3 195.4 421.4 196.8 425.4 197.9 425.4 199.8 425.4 200.95 423.05 205.0 L420.65 207.8 Q419.3 209.55 418.75 211.75 L416.8 214.7 Q416.45 214.85 416.4 215.45 L416.4 215.6 Q416.4 217.1 424.0 221.05 L428.6 223.35 431.95 224.6 434.85 225.6 434.9 227.1 Q432.35 239.55 422.15 252.8 L415.0 261.35 Q411.85 264.95 411.85 265.65 L411.9 266.45 412.15 266.65 413.1 266.9 421.1 260.45 429.6 253.15 436.4 245.85 Q440.65 241.05 442.35 238.2 L447.35 230.3 Q450.3 225.55 450.9 222.9 451.05 222.2 454.15 215.05 L456.25 210.05 Q456.9 211.0 457.6 213.05 L458.5 216.0 460.25 223.4 463.35 219.1 Q469.25 210.3 472.35 202.95 476.95 192.0 478.35 183.8 L480.9 176.4 481.95 173.25 481.85 173.95 Q483.1 174.4 483.8 177.65 L488.65 179.4 494.45 181.5 495.0 181.7 497.3 182.5 500.9 183.45 502.4 183.8 Q505.5 185.7 507.85 186.7 L514.25 189.45 Q518.95 191.4 521.85 192.2 535.1 195.85 540.6 198.05 L540.85 198.15 542.4 198.85 543.2 199.2 Q548.8 201.9 551.65 205.2 553.5 207.35 555.7 213.1 557.9 218.95 557.9 221.9 557.9 229.4 553.7 235.45 549.65 241.25 541.45 246.25 L548.85 246.65 556.6 247.5 556.9 247.7 556.95 247.55 563.7 248.4 570.05 247.8 576.35 247.15 619.35 247.65 Q622.1 247.65 623.05 248.25 L623.85 249.15 Q625.2 250.05 625.5 251.0 L625.6 253.05 Q625.6 255.35 623.75 258.05 L623.15 258.85 623.05 258.95 620.8 261.25 621.05 261.35 623.4 262.4 Q627.75 264.45 635.35 268.7 646.9 275.8 650.65 276.5 L660.25 276.15 Q665.75 276.15 669.9 278.7 669.3 279.95 666.4 282.0 662.7 284.5 661.5 285.7 L660.5 287.0 658.3 289.8 657.3 290.9 658.5 290.65 M678.45 355.7 L678.6 356.2 Q679.6 359.9 680.2 361.1 L679.7 355.75 678.45 355.7 M514.8 186.5 L514.9 186.65 513.45 186.25 514.8 186.5 M457.0 256.35 L455.8 258.05 451.05 264.75 442.85 275.7 Q439.6 279.8 433.5 285.8 429.2 290.05 426.7 291.85 424.75 293.2 423.85 293.2 L423.4 293.2 423.35 293.25 422.85 293.9 421.8 292.95 421.6 292.85 421.4 292.7 421.5 292.65 Q419.7 290.7 418.0 287.65 415.8 283.1 414.65 281.4 413.1 279.0 411.25 275.05 L408.15 268.95 406.7 266.65 404.7 264.8 400.65 260.2 400.2 259.8 400.15 259.75 399.95 259.55 400.1 259.4 400.1 259.35 403.1 255.0 Q406.45 250.3 407.85 246.65 L409.2 243.45 410.5 240.6 Q409.45 241.1 408.45 241.9 L401.25 248.5 393.2 255.35 Q392.7 255.0 392.15 254.8 L391.15 254.6 Q384.55 252.1 382.6 251.65 380.45 251.15 378.1 249.95 L376.4 249.45 375.5 249.2 375.45 249.1 369.7 246.9 369.4 246.9 Q369.05 246.45 368.25 246.15 L373.2 242.7 Q376.8 240.05 377.55 238.85 L380.6 236.1 381.65 235.1 Q394.15 223.6 394.15 219.15 394.15 216.85 391.65 209.55 L389.15 202.65 392.65 197.55 Q396.15 191.95 396.15 188.75 396.15 184.9 391.75 180.8 387.5 176.85 381.6 174.7 L372.25 172.05 Q366.55 170.4 365.6 169.15 L362.15 165.95 Q361.05 164.95 360.5 164.0 L358.2 165.25 Q354.4 166.7 353.1 167.45 L352.9 173.9 Q352.9 177.75 355.15 193.1 L357.4 209.15 357.9 226.7 358.45 233.3 358.4 237.3 358.7 242.9 358.85 244.55 358.65 244.7 357.4 244.65 357.55 244.3 356.85 244.45 Q352.3 244.45 344.55 241.45 337.6 238.45 337.15 238.4 L336.2 238.25 334.95 237.95 334.9 237.95 334.55 237.85 329.4 235.75 328.35 235.15 Q325.2 233.25 322.35 233.4 321.05 234.05 320.65 234.9 319.85 236.6 319.85 238.0 319.85 244.75 332.1 252.85 335.15 254.85 342.5 259.15 348.85 262.85 351.35 264.7 360.9 271.8 367.8 278.75 375.8 286.8 379.15 293.65 380.2 295.8 383.65 301.15 386.9 306.2 388.1 308.95 L395.1 324.4 401.85 339.75 403.75 344.05 403.8 344.2 404.05 344.75 404.55 345.9 404.75 346.35 407.6 346.2 Q413.35 346.2 435.45 350.1 L459.1 354.4 Q458.05 350.2 459.6 344.85 455.05 339.85 446.65 327.4 L443.15 322.7 442.55 321.85 441.9 320.6 Q441.7 320.25 441.2 320.05 L439.2 317.45 Q436.2 313.45 434.55 310.35 L433.4 309.0 432.9 307.85 432.2 306.6 Q432.4 305.55 434.1 303.95 L434.6 303.5 435.7 302.4 437.15 300.7 438.4 298.4 438.7 297.8 440.65 294.4 446.45 285.1 448.4 281.65 Q451.4 276.25 453.85 269.1 456.0 262.7 457.15 256.45 L457.1 256.2 457.0 256.35 M389.3 241.2 Q393.45 240.3 400.4 234.95 L402.45 232.9 Q395.3 233.05 392.65 235.1 391.75 235.75 391.25 236.8 L390.6 238.15 389.25 240.95 389.1 241.25 389.3 241.2 M332.15 262.15 L330.45 262.3 326.9 261.65 318.45 262.25 314.35 262.7 Q313.9 263.7 313.9 264.2 L313.45 267.4 313.4 267.65 313.1 270.65 313.0 272.0 312.9 274.4 312.9 274.6 312.9 275.4 Q312.95 279.2 313.25 279.8 313.6 280.45 319.9 287.15 323.7 291.25 325.05 293.65 326.4 296.15 326.4 299.25 326.4 303.05 323.45 306.65 321.8 308.7 317.05 312.7 312.5 316.55 310.7 318.95 307.8 322.75 307.9 326.9 L307.5 333.8 307.1 340.7 307.1 344.4 308.35 344.25 310.6 344.15 310.9 344.15 317.8 344.75 321.15 345.9 326.65 346.7 330.35 346.95 Q337.9 347.1 340.75 348.5 L342.25 349.45 Q342.85 349.9 343.6 349.9 L344.5 349.75 Q346.0 349.25 346.6 346.7 L346.6 346.6 Q347.05 344.65 347.7 343.35 L347.7 342.6 347.85 340.5 Q347.85 331.45 345.75 322.85 L345.65 322.5 344.25 317.75 344.1 317.3 344.1 317.25 343.65 315.5 344.05 314.8 Q344.9 313.7 347.7 311.5 350.9 309.1 352.35 308.2 353.05 309.2 353.75 312.2 354.55 315.3 355.15 316.4 357.0 319.6 357.95 320.5 360.45 322.95 364.7 322.95 367.05 322.95 368.65 318.7 369.85 315.65 369.85 314.25 369.85 311.35 364.7 299.2 L359.35 286.9 Q357.2 280.7 348.65 273.65 342.8 268.85 332.35 262.45 L332.15 262.15 M620.75 273.9 L620.65 273.45 620.6 274.0 620.75 273.9 M622.6 325.15 L622.75 325.1 622.6 324.9 622.6 325.15 M637.6 350.6 L639.1 350.65 637.75 350.4 637.6 350.6 M631.95 350.5 L636.55 350.6 636.45 350.5 636.25 350.1 631.9 349.45 Q631.8 350.2 631.95 350.5 M232.5 32.0 L232.15 31.85 232.35 31.95 232.5 32.0 M249.35 191.5 L248.6 189.4 247.9 189.65 249.35 191.5 M233.95 119.05 L234.05 118.4 233.45 116.75 233.95 119.05 M276.05 234.2 L276.1 234.15 276.0 234.1 276.05 234.2" fill="#000000" fill-rule="evenodd" stroke="none"/>
    <path d="M658.3 289.8 L658.5 290.65 657.3 290.9 658.3 289.8 M660.0 318.2 L660.1 318.35 659.9 318.45 660.0 318.2 M510.6 31.05 L509.95 31.1 Q510.2 30.15 510.7 29.5 L510.6 30.25 510.6 31.05 M507.65 39.65 L507.35 39.6 507.6 38.45 507.65 39.65 M682.5 357.7 L682.4 356.9 682.45 356.35 682.5 356.55 682.5 356.75 682.5 357.7 M357.4 244.65 L356.85 244.45 357.55 244.3 357.4 244.65 M457.15 256.45 L457.0 256.35 457.1 256.2 457.15 256.45 M389.25 240.95 L389.3 241.2 389.1 241.25 389.25 240.95" fill="#ffffff" fill-rule="evenodd" stroke="none"/>
    <path d="M219.55 93.7 L218.8 92.3 218.85 91.65 219.1 91.9 219.55 93.7 M214.35 85.2 L214.15 84.9 Q212.85 83.05 211.85 79.2 L210.35 73.4 212.65 79.1 214.35 85.2" fill="#201f25" fill-rule="evenodd" stroke="none"/>
    <path d="M658.5 290.65 L658.3 289.8 660.5 287.0 661.5 285.7 Q662.7 284.5 666.4 282.0 669.3 279.95 669.9 278.7 665.75 276.15 660.25 276.15 L650.65 276.5 Q646.9 275.8 635.35 268.7 627.75 264.45 623.4 262.4 L621.05 261.35 620.8 261.25 623.05 258.95 623.15 258.85 623.75 258.05 Q625.6 255.35 625.6 253.05 L625.5 251.0 Q625.2 250.05 623.85 249.15 L623.05 248.25 Q622.1 247.65 619.35 247.65 L576.35 247.15 570.05 247.8 563.7 248.4 556.95 247.55 556.6 247.5 548.85 246.65 541.45 246.25 Q549.65 241.25 553.7 235.45 557.9 229.4 557.9 221.9 557.9 218.95 555.7 213.1 553.5 207.35 551.65 205.2 548.8 201.9 543.2 199.2 L542.4 198.85 540.85 198.15 540.6 198.05 Q535.1 195.85 521.85 192.2 518.95 191.4 514.25 189.45 L507.85 186.7 Q505.5 185.7 502.4 183.8 L500.9 183.45 497.3 182.5 495.0 181.7 494.45 181.5 488.65 179.4 483.8 177.65 Q483.1 174.4 481.85 173.95 L481.95 173.25 480.9 176.4 478.35 183.8 Q476.95 192.0 472.35 202.95 469.25 210.3 463.35 219.1 L460.25 223.4 458.5 216.0 457.6 213.05 Q456.9 211.0 456.25 210.05 L454.15 215.05 Q451.05 222.2 450.9 222.9 450.3 225.55 447.35 230.3 L442.35 238.2 Q440.65 241.05 436.4 245.85 L429.6 253.15 421.1 260.45 413.1 266.9 412.15 266.65 411.9 266.45 411.85 265.65 Q411.85 264.95 415.0 261.35 L422.15 252.8 Q432.35 239.55 434.9 227.1 L434.85 225.6 431.95 224.6 428.6 223.35 424.0 221.05 Q416.4 217.1 416.4 215.6 L416.4 215.45 Q416.45 214.85 416.8 214.7 L418.75 211.75 Q419.3 209.55 420.65 207.8 L423.05 205.0 Q425.4 200.95 425.4 199.8 425.4 197.9 421.4 196.8 416.3 195.4 415.15 194.4 L419.15 189.55 Q421.4 186.55 421.4 184.75 421.4 183.15 420.2 181.6 418.6 179.6 415.85 179.2 414.4 179.0 410.35 177.4 L405.85 177.5 407.4 175.15 Q408.6 172.85 408.9 170.45 409.45 166.45 411.8 164.4 413.9 162.5 413.9 161.55 L410.55 158.3 Q406.9 154.7 405.4 152.65 406.45 151.1 412.15 148.25 L416.35 146.0 417.3 145.5 Q417.8 145.2 418.4 145.05 418.75 144.45 420.25 144.2 422.5 143.9 425.15 145.4 L425.35 145.45 426.6 145.7 427.25 145.4 427.5 144.8 427.5 144.75 427.2 144.55 424.65 142.65 424.5 142.55 424.35 142.5 423.55 142.05 421.5 141.1 420.95 141.3 417.5 140.3 Q414.0 139.4 412.2 139.4 410.65 139.4 404.85 140.95 398.85 142.6 394.95 144.15 391.35 145.55 383.55 146.85 L382.2 147.1 Q379.4 146.95 378.3 146.2 371.55 130.5 371.1 110.2 L370.9 105.5 Q370.65 102.75 370.1 100.9 369.5 99.1 363.85 96.7 357.85 94.45 356.9 93.9 353.75 92.1 351.55 85.75 349.6 80.1 349.6 75.0 349.6 68.6 351.85 64.6 352.9 62.65 360.65 52.7 362.55 50.3 366.85 47.5 372.15 44.1 377.35 42.9 379.7 42.35 383.9 40.8 385.2 40.3 387.05 39.9 L395.75 43.55 Q404.5 46.95 409.35 46.95 L411.6 43.85 Q414.3 40.4 417.35 37.55 L417.15 36.75 422.05 33.65 422.1 33.65 Q431.1 27.15 440.85 27.15 L446.9 27.7 Q448.1 28.6 454.6 29.4 456.55 29.6 458.4 30.65 459.9 31.5 460.6 32.4 L462.1 33.7 463.9 35.2 466.15 36.7 Q468.1 37.9 468.85 38.65 471.85 41.75 473.85 45.7 475.4 48.65 476.85 53.15 L479.35 60.35 Q480.85 64.8 481.1 67.7 L481.45 76.5 Q482.05 82.15 484.35 82.15 486.8 82.15 492.15 72.5 L498.15 60.65 503.7 49.25 Q506.2 43.7 507.35 39.6 L507.65 39.65 507.7 41.15 508.0 41.9 507.75 41.3 508.2 39.85 509.4 35.95 Q509.55 32.8 509.95 31.1 L510.6 31.05 510.55 31.75 511.4 30.2 511.65 31.35 511.85 32.9 511.2 36.4 510.4 39.95 510.3 43.55 510.4 47.15 Q510.25 51.65 510.4 61.4 510.4 70.65 509.6 77.05 508.85 82.95 506.35 94.4 505.6 97.7 502.6 102.5 L497.1 110.65 Q495.95 112.35 490.15 118.65 486.75 122.35 485.15 125.0 L485.35 125.9 485.05 128.65 Q484.8 130.75 484.9 131.9 L484.9 137.25 Q484.9 143.45 483.05 162.1 L482.05 171.95 Q485.45 173.0 488.65 174.8 L491.65 176.65 Q496.0 178.25 498.35 179.2 L513.45 183.45 514.5 183.75 515.75 184.1 523.7 186.2 524.1 186.3 533.4 188.45 Q548.3 191.7 559.05 197.65 L576.4 207.95 617.85 229.85 Q642.9 243.35 647.25 246.4 656.25 252.7 663.35 256.85 672.7 262.4 682.4 266.45 686.75 268.25 690.65 271.9 694.8 275.75 695.15 278.65 695.45 280.95 698.7 285.5 702.6 290.95 703.25 292.45 703.95 293.95 711.2 306.2 716.35 314.9 717.0 320.2 717.25 322.3 719.6 333.7 721.5 342.95 721.5 347.95 721.5 352.65 721.05 354.0 719.35 358.65 712.75 358.65 L700.25 357.6 694.25 356.4 688.45 356.1 683.45 355.9 682.6 355.85 Q683.0 354.8 684.15 353.45 L684.7 352.9 682.15 352.75 682.1 352.15 681.8 346.4 Q681.9 342.05 685.9 331.45 695.5 307.0 695.5 306.0 L695.4 305.1 695.25 304.9 693.25 304.65 Q688.35 304.65 674.25 311.2 665.75 315.2 660.1 318.35 L660.0 318.2 Q661.75 315.45 665.8 311.4 L672.5 304.7 Q673.95 303.2 681.15 298.1 688.25 293.05 689.5 291.65 687.55 290.05 684.75 289.7 L680.25 289.65 660.95 290.4 658.5 290.65 M514.8 186.5 L513.45 186.25 514.9 186.65 514.8 186.5 M357.4 244.65 L358.65 244.7 358.85 244.55 358.7 242.9 358.4 237.3 358.45 233.3 357.9 226.7 357.4 209.15 355.15 193.1 Q352.9 177.75 352.9 173.9 L353.1 167.45 Q354.4 166.7 358.2 165.25 L360.5 164.0 Q361.05 164.95 362.15 165.95 L365.6 169.15 Q366.55 170.4 372.25 172.05 L381.6 174.7 Q387.5 176.85 391.75 180.8 396.15 184.9 396.15 188.75 396.15 191.95 392.65 197.55 L389.15 202.65 391.65 209.55 Q394.15 216.85 394.15 219.15 394.15 223.6 381.65 235.1 L380.6 236.1 377.55 238.85 Q376.8 240.05 373.2 242.7 L368.25 246.15 Q369.05 246.45 369.4 246.9 L369.7 246.9 375.45 249.1 375.5 249.2 376.4 249.45 378.1 249.95 Q380.45 251.15 382.6 251.65 384.55 252.1 391.15 254.6 L392.15 254.8 Q392.7 255.0 393.2 255.35 L401.25 248.5 408.45 241.9 Q409.45 241.1 410.5 240.6 L409.2 243.45 407.85 246.65 Q406.45 250.3 403.1 255.0 L400.1 259.35 400.1 259.4 399.95 259.55 400.15 259.75 400.2 259.8 400.65 260.2 404.7 264.8 406.7 266.65 408.15 268.95 411.25 275.05 Q413.1 279.0 414.65 281.4 415.8 283.1 418.0 287.65 419.7 290.7 421.5 292.65 L421.4 292.7 421.6 292.85 421.8 292.95 422.85 293.9 423.35 293.25 423.4 293.2 423.85 293.2 Q424.75 293.2 426.7 291.85 429.2 290.05 433.5 285.8 439.6 279.8 442.85 275.7 L451.05 264.75 455.8 258.05 457.0 256.35 457.15 256.45 Q456.0 262.7 453.85 269.1 451.4 276.25 448.4 281.65 L446.45 285.1 440.65 294.4 438.7 297.8 438.4 298.4 437.15 300.7 435.7 302.4 434.6 303.5 434.1 303.95 Q432.4 305.55 432.2 306.6 L432.9 307.85 433.4 309.0 434.55 310.35 Q436.2 313.45 439.2 317.45 L441.2 320.05 Q441.7 320.25 441.9 320.6 L442.55 321.85 443.15 322.7 446.65 327.4 Q455.05 339.85 459.6 344.85 458.05 350.2 459.1 354.4 L435.45 350.1 Q413.35 346.2 407.6 346.2 L404.75 346.35 404.55 345.9 404.05 344.75 403.8 344.2 403.75 344.05 401.85 339.75 395.1 324.4 388.1 308.95 Q386.9 306.2 383.65 301.15 380.2 295.8 379.15 293.65 375.8 286.8 367.8 278.75 360.9 271.8 351.35 264.7 348.85 262.85 342.5 259.15 335.15 254.85 332.1 252.85 319.85 244.75 319.85 238.0 319.85 236.6 320.65 234.9 321.05 234.05 322.35 233.4 325.2 233.25 328.35 235.15 L329.4 235.75 334.55 237.85 334.9 237.95 334.95 237.95 336.2 238.25 337.15 238.4 Q337.6 238.45 344.55 241.45 352.3 244.45 356.85 244.45 L357.4 244.65 M389.25 240.95 L390.6 238.15 391.25 236.8 Q391.75 235.75 392.65 235.1 395.3 233.05 402.45 232.9 L400.4 234.95 Q393.45 240.3 389.3 241.2 L389.25 240.95 M332.35 262.45 Q342.8 268.85 348.65 273.65 357.2 280.7 359.35 286.9 L364.7 299.2 Q369.85 311.35 369.85 314.25 369.85 315.65 368.65 318.7 367.05 322.95 364.7 322.95 360.45 322.95 357.95 320.5 357.0 319.6 355.15 316.4 354.55 315.3 353.75 312.2 353.05 309.2 352.35 308.2 350.9 309.1 347.7 311.5 344.9 313.7 344.05 314.8 L343.65 315.5 344.1 317.25 344.1 317.3 344.25 317.75 345.65 322.5 345.75 322.85 Q347.85 331.45 347.85 340.5 L347.7 342.6 347.7 343.35 Q347.05 344.65 346.6 346.6 L346.6 346.7 Q346.0 349.25 344.5 349.75 L343.6 349.9 Q342.85 349.9 342.25 349.45 L340.75 348.5 Q337.9 347.1 330.35 346.95 L326.65 346.7 321.15 345.9 317.8 344.75 310.9 344.15 310.6 344.15 308.35 344.25 307.1 344.4 307.1 340.7 307.5 333.8 307.9 326.9 Q307.8 322.75 310.7 318.95 312.5 316.55 317.05 312.7 321.8 308.7 323.45 306.65 326.4 303.05 326.4 299.25 326.4 296.15 325.05 293.65 323.7 291.25 319.9 287.15 313.6 280.45 313.25 279.8 312.95 279.2 312.9 275.4 L312.9 274.6 312.9 274.4 313.0 272.0 313.1 270.65 313.4 267.65 313.45 267.4 313.9 264.2 Q313.9 263.7 314.35 262.7 L318.45 262.25 326.9 261.65 330.45 262.3 332.15 262.15 Q332.15 263.05 332.35 262.45" fill="url(#gradient0)" fill-rule="evenodd" stroke="none"/>
    <path d="M666.15 269.5 Q673.65 269.5 676.2 273.0 676.9 273.95 677.15 275.0 L677.55 275.5 Q678.15 276.55 678.15 277.4 678.15 278.55 677.0 279.75 676.45 282.2 675.0 284.4 L673.25 286.6 Q688.75 286.7 693.65 288.1 697.15 289.05 697.15 292.0 697.15 294.4 690.35 296.8 681.65 299.9 678.3 303.05 L685.45 300.65 Q693.25 298.25 697.65 298.25 700.15 298.25 701.15 300.3 701.65 301.35 701.65 302.6 L696.65 316.25 Q690.95 331.25 688.55 342.0 685.95 353.3 686.15 361.5 686.35 366.05 685.6 371.8 684.4 380.55 681.3 380.55 677.75 380.55 676.7 378.8 L676.3 376.85 Q676.3 375.2 677.25 372.25 678.15 369.3 678.15 367.75 L678.65 363.5 Q678.85 360.9 678.65 359.05 678.3 355.85 679.3 350.45 L680.9 341.5 Q681.9 333.95 685.65 324.0 L692.65 306.55 692.9 306.25 Q688.2 307.25 682.35 309.6 677.15 311.65 672.3 314.25 L664.15 319.45 Q657.7 323.55 656.4 323.55 654.0 323.55 653.15 321.8 L652.8 320.0 Q652.8 315.45 664.0 305.8 674.05 297.1 678.9 295.3 L665.0 294.8 657.7 300.85 Q650.4 306.75 650.15 306.75 647.9 306.75 647.3 305.7 L647.15 304.5 Q647.15 302.25 651.35 297.85 653.0 296.15 654.8 294.55 651.4 294.2 650.05 293.55 648.9 293.0 648.9 291.0 648.9 288.45 651.8 287.1 657.25 284.45 660.65 281.55 L660.9 281.5 Q652.5 280.45 644.05 277.15 636.6 276.35 632.4 274.0 629.8 272.55 628.9 271.05 L626.65 273.25 Q624.7 275.2 621.4 277.2 616.1 280.4 615.15 281.05 613.2 282.35 609.4 284.3 605.75 286.1 604.4 287.05 L604.15 286.8 Q606.3 285.05 608.65 279.55 610.7 274.6 615.55 271.8 L620.3 268.5 620.05 268.1 619.85 266.95 Q614.05 272.1 609.4 274.05 L605.15 274.05 Q606.25 273.0 606.5 271.85 606.7 270.25 607.05 268.8 607.3 267.9 608.6 266.4 L611.4 263.55 612.75 262.3 612.65 261.5 Q612.65 259.05 615.4 258.3 L617.3 258.0 622.05 253.05 Q620.45 251.1 615.45 250.25 L603.3 249.5 588.55 250.15 573.9 250.8 556.3 249.5 550.35 248.55 550.05 248.8 537.55 260.8 534.0 263.55 530.65 266.0 528.55 268.75 Q527.3 270.65 526.65 270.8 529.35 263.5 531.0 259.6 534.0 252.65 539.4 248.0 L541.4 246.25 541.05 246.25 537.05 246.3 534.15 246.0 Q533.1 245.55 532.55 244.55 532.15 243.75 532.15 243.0 532.15 241.7 532.35 241.35 533.0 240.3 535.9 239.6 540.2 238.6 549.65 238.45 L552.1 235.45 Q554.55 231.75 554.55 225.25 554.55 213.2 548.15 207.0 544.1 203.05 532.4 198.3 530.0 197.3 519.65 194.15 510.1 191.25 505.8 189.25 504.7 188.7 499.45 187.15 L492.4 185.0 487.3 183.05 485.2 182.8 482.4 182.55 Q480.75 182.25 480.3 181.05 480.15 180.65 480.15 179.35 480.15 176.55 483.4 175.7 487.4 174.75 494.55 177.75 L510.3 182.55 Q526.15 187.5 542.05 194.25 554.55 199.55 559.25 209.3 562.3 215.65 562.3 225.25 562.3 227.9 561.8 230.65 L560.3 237.25 559.85 238.45 570.65 238.8 596.1 238.95 Q615.9 239.0 621.65 240.3 L624.55 241.4 Q626.85 242.4 628.05 243.25 633.2 246.95 634.95 250.3 636.3 252.95 636.3 257.5 636.3 261.45 635.2 263.85 638.6 265.65 640.8 267.0 644.25 269.1 647.15 270.25 L651.4 270.5 666.15 269.5 M458.8 39.95 Q448.6 31.8 443.55 31.8 430.0 31.8 422.9 38.25 L421.0 40.55 417.6 48.15 Q415.25 53.15 412.2 53.7 L410.25 54.0 Q406.9 54.0 400.05 52.0 393.2 50.0 391.25 50.0 378.3 50.0 368.55 55.75 357.8 62.05 357.8 72.0 357.8 76.65 363.4 82.5 366.7 85.95 375.05 93.55 378.65 97.15 378.8 103.65 L378.8 114.55 Q379.25 117.6 379.75 125.2 380.25 131.95 381.0 136.0 L382.0 140.2 383.25 140.3 Q388.3 140.3 394.25 136.55 400.25 132.8 408.25 132.8 417.15 132.8 423.5 136.6 428.8 139.75 428.8 142.6 428.8 143.75 428.05 144.5 427.0 145.55 424.75 145.55 422.45 145.55 420.3 144.6 418.25 143.55 417.3 143.3 L415.4 142.7 Q414.55 142.15 414.55 140.75 L410.75 140.25 Q403.8 140.25 396.95 144.25 390.4 148.1 384.5 148.25 387.0 156.05 387.0 156.9 387.0 157.85 386.05 158.8 385.15 159.75 384.3 159.75 378.8 159.75 375.6 149.3 L374.25 142.75 373.8 141.75 Q372.95 139.65 372.65 137.15 L372.55 134.75 372.65 133.8 Q372.3 130.95 372.1 126.9 371.8 119.2 371.05 115.75 370.65 113.8 370.75 110.4 370.9 106.6 370.7 105.0 370.5 103.4 369.9 101.95 L369.25 102.55 Q368.1 103.5 367.0 103.5 365.9 103.5 364.15 102.65 362.4 101.75 361.8 101.75 357.95 101.75 355.0 98.4 L351.05 93.3 346.9 89.35 Q344.8 87.0 344.8 84.65 344.8 83.9 345.8 81.55 346.75 79.25 346.75 78.3 L346.55 72.5 Q346.55 68.7 350.75 61.25 355.25 53.3 359.25 51.3 360.85 50.5 366.3 46.0 370.75 42.4 374.0 41.75 375.1 41.5 377.05 40.4 L379.05 39.3 Q380.45 38.7 383.45 38.3 L387.5 37.75 Q392.1 36.75 394.25 36.8 397.4 36.8 401.3 38.5 402.2 38.9 402.75 39.75 403.3 40.6 403.3 41.4 403.3 42.85 401.9 43.65 L400.8 44.15 407.8 45.8 407.9 45.85 Q408.6 42.7 410.75 39.65 412.75 36.8 418.8 29.75 426.7 19.6 440.4 19.35 451.2 19.2 459.3 24.25 466.7 27.55 472.0 33.4 476.25 38.0 478.4 43.25 L482.15 51.9 Q485.8 60.7 485.8 62.5 485.8 63.3 485.4 64.35 L484.65 66.0 480.55 64.55 Q481.4 66.75 482.95 73.05 L484.4 79.9 Q484.4 80.75 483.9 81.5 483.2 82.5 481.9 82.5 479.65 82.5 477.55 76.95 L474.8 68.75 471.7 62.0 Q469.8 57.9 469.05 55.25 467.5 49.9 460.95 41.65 L458.8 39.95 M360.95 174.85 Q360.8 175.75 360.8 179.25 360.8 184.95 364.8 198.4 368.8 211.85 368.8 220.35 L368.55 225.9 366.8 232.75 Q365.7 236.85 363.8 240.25 361.45 244.55 359.3 244.55 356.3 244.55 355.25 242.7 L354.8 240.75 Q354.8 238.5 355.55 234.0 356.3 229.45 356.3 227.35 356.3 216.4 352.55 199.05 348.75 181.7 348.75 177.75 348.75 175.45 351.0 167.55 353.75 157.8 356.5 157.8 357.8 157.8 358.5 158.7 L359.05 159.75 Q361.75 154.95 365.5 155.0 369.05 155.05 369.05 158.4 369.05 160.0 366.1 163.7 362.9 167.7 362.55 169.0 L360.95 174.85 M414.15 165.4 Q414.15 166.35 412.5 170.15 L410.55 174.3 410.4 174.5 Q417.45 174.15 421.85 178.35 425.3 181.65 425.3 184.85 425.3 187.2 422.25 191.3 429.05 193.9 429.05 201.5 429.05 205.5 424.0 212.35 L428.65 214.8 Q437.4 218.55 438.75 219.45 440.55 220.65 440.55 223.25 440.55 224.85 436.05 234.6 L430.4 246.3 Q427.1 252.75 415.65 268.5 413.15 268.5 412.15 266.8 L411.65 265.0 Q411.65 261.95 416.7 254.1 L422.9 244.75 427.5 235.0 Q430.55 228.1 432.3 224.8 423.7 220.4 421.05 218.8 L419.4 217.75 Q417.5 219.5 416.4 219.5 414.0 219.5 413.45 217.25 L413.3 214.85 Q413.3 213.9 414.4 212.2 414.45 209.7 416.4 209.55 L417.55 208.2 Q421.8 203.45 421.8 200.05 421.8 198.55 417.1 197.25 413.2 201.3 412.15 201.3 409.6 201.3 408.8 199.9 L408.55 198.35 Q408.55 197.25 411.5 193.6 L411.4 192.9 Q411.4 191.25 414.1 190.55 418.3 185.5 418.3 184.75 418.3 182.5 411.5 180.9 404.65 179.3 404.65 177.3 404.65 176.7 406.15 173.05 L407.9 169.05 Q409.9 164.9 411.95 163.4 414.15 161.8 414.15 165.4 M462.8 243.8 Q463.75 242.6 466.1 241.45 469.15 240.05 469.15 243.0 469.15 247.4 464.5 258.7 L458.55 272.55 455.7 279.95 452.8 287.55 Q452.2 289.2 450.1 290.15 448.05 290.8 447.8 291.0 446.4 294.05 445.8 294.75 L443.45 297.9 Q441.9 300.0 439.8 301.8 L441.8 304.65 Q442.8 306.2 442.8 307.5 442.8 309.0 441.8 310.05 440.65 311.3 438.65 311.3 436.2 311.3 431.7 306.1 428.9 302.9 426.15 298.75 L424.5 295.8 422.4 292.3 420.2 289.05 Q419.4 287.75 419.4 286.35 419.4 282.5 422.9 282.5 424.85 282.5 425.65 283.3 426.6 284.3 428.15 284.55 430.15 284.25 430.45 283.25 430.85 281.9 431.65 281.5 L434.25 279.9 434.8 278.75 Q435.65 275.0 437.3 272.0 438.05 270.65 439.95 268.7 L443.3 265.25 Q444.55 263.95 445.25 261.65 446.35 260.0 450.9 260.0 L453.45 255.4 Q456.2 250.35 457.55 248.8 457.9 248.4 459.45 247.75 L461.4 246.5 462.8 243.8 M413.3 239.3 Q413.8 240.35 413.65 241.5 413.65 244.0 411.3 247.8 408.85 251.8 406.15 253.25 L407.6 255.65 Q408.15 256.55 408.15 257.75 408.15 258.9 407.55 260.0 406.55 261.75 404.4 261.75 402.85 261.75 398.4 258.25 L393.5 254.3 Q389.8 252.3 388.6 250.55 387.75 249.3 387.75 247.35 387.75 245.6 388.75 244.55 L389.05 244.0 Q386.75 243.25 386.05 242.55 385.25 241.85 385.25 240.5 385.25 239.05 388.6 236.0 L393.8 231.5 Q398.7 226.85 402.75 228.8 406.05 230.4 406.05 233.0 406.05 234.65 403.95 235.75 400.9 237.3 399.05 239.8 396.9 242.7 396.45 243.5 395.3 245.4 395.3 247.0 395.3 247.3 396.85 248.3 398.45 249.35 399.15 249.3 L402.5 243.1 Q406.2 237.25 409.4 237.25 412.4 237.25 413.3 239.3 M327.5 220.7 L328.0 220.8 Q329.8 221.3 329.8 223.85 L327.8 228.55 327.2 230.05 327.15 230.3 Q326.25 235.7 326.25 236.75 326.25 238.85 327.6 241.35 L329.85 244.35 335.05 249.9 Q337.3 251.9 340.1 254.05 349.25 261.05 365.8 270.55 375.0 275.9 386.1 288.35 392.05 295.0 399.65 304.75 407.65 314.2 419.55 341.85 430.55 367.4 430.55 372.35 430.55 373.45 429.8 374.5 429.1 375.55 428.3 375.55 L427.0 375.5 Q426.15 376.8 424.4 376.8 420.6 376.8 419.1 373.65 417.9 369.65 416.65 368.05 414.05 364.6 410.8 359.05 L405.4 350.15 Q402.0 344.5 400.3 341.05 L389.15 322.1 Q380.55 307.7 380.55 305.5 380.55 302.85 383.3 301.3 380.6 298.6 375.75 292.75 371.6 287.7 368.0 284.5 364.45 281.35 356.55 276.55 L351.95 273.85 Q357.65 278.05 360.25 283.55 366.75 297.0 367.85 300.05 370.3 306.8 370.3 315.1 L369.05 323.75 Q367.1 332.0 363.4 332.0 360.8 332.0 360.25 329.5 L360.25 326.85 Q360.25 325.1 361.4 320.9 362.55 316.65 362.55 315.25 362.55 309.25 361.4 305.1 360.3 301.15 356.8 294.05 L351.3 283.55 Q349.75 280.65 343.05 277.2 336.9 274.05 334.5 274.05 329.75 274.05 326.0 276.55 323.05 278.45 323.05 279.35 323.05 280.45 323.35 281.6 L323.55 281.8 Q332.3 290.35 332.3 299.6 332.3 304.05 331.5 305.3 329.15 308.25 326.05 313.8 L320.9 320.6 Q317.05 325.65 317.05 328.05 L317.6 334.3 318.3 343.5 Q318.3 347.25 320.0 351.0 320.75 352.65 322.6 354.9 323.8 356.4 323.8 358.25 323.8 359.7 323.05 360.75 321.95 362.25 319.65 362.25 316.25 362.25 315.05 360.0 314.3 357.35 313.55 356.55 L310.3 353.15 308.5 353.3 Q304.55 353.3 303.8 350.65 303.6 350.0 303.55 344.25 L303.55 335.25 Q303.55 322.8 303.75 319.8 303.75 319.3 305.55 318.0 L307.55 316.25 308.5 312.5 Q309.1 308.85 309.95 307.25 311.15 305.05 313.5 305.05 L317.1 305.35 Q319.6 305.8 320.55 306.55 324.55 302.0 324.55 299.35 324.55 295.35 321.85 291.7 L321.25 290.9 Q319.45 289.9 318.2 287.65 L315.9 285.5 Q312.85 282.65 311.15 280.55 309.75 279.75 308.75 278.05 L307.55 274.85 307.7 274.05 Q307.25 272.3 307.25 270.5 307.25 260.75 313.75 255.15 316.3 252.9 318.2 253.15 320.25 253.4 320.25 256.4 320.25 256.95 317.85 260.8 322.9 260.1 332.0 260.55 L334.15 261.25 325.25 252.5 Q321.35 248.5 319.7 244.35 318.3 240.75 318.3 236.1 318.3 228.35 321.9 224.05 L322.0 223.5 Q321.95 221.5 322.4 220.35 323.2 218.1 326.0 218.75 327.0 219.15 327.5 220.7 M345.1 269.75 L345.5 269.95 345.15 269.7 345.1 269.75" fill="#000000" fill-opacity="0.101960786" fill-rule="evenodd" stroke="none"/>
  </g>
  <defs>
    <linearGradient gradientTransform="matrix(-0.1741, -0.0796, 0.0137, -0.0298, 600.1, -27.8)" gradientUnits="userSpaceOnUse" id="gradient0" spreadMethod="pad" x1="-819.2" x2="819.2">
      <stop offset="0.0" stop-color="#dd9a00"/>
      <stop offset="1.0" stop-color="#aa3300"/>
    </linearGradient>
  </defs>
</svg>
