<?xml version="1.0" encoding="UTF-8" standalone="no"?>
<svg xmlns:xlink="http://www.w3.org/1999/xlink" height="19.65px" width="7.1px" xmlns="http://www.w3.org/2000/svg">
  <g transform="matrix(1.0, 0.0, 0.0, 1.0, 3.55, 9.8)">
    <path d="M-3.1 0.75 L-3.4 -1.6 Q-3.7 -3.4 -3.35 -5.7 -3.2 -7.1 -2.6 -7.9 L-2.2 -8.65 -1.8 -9.05 -0.5 -9.65 Q1.35 -10.15 3.3 -8.95 L3.45 -6.75 3.55 -3.1 3.4 0.3 3.35 0.65 Q0.2 2.5 -3.1 0.75" fill="url(#gradient0)" fill-rule="evenodd" stroke="none"/>
    <path d="M3.35 0.65 L2.95 3.4 2.3 6.5 Q1.8 8.45 0.45 9.85 L-0.5 9.5 Q-1.55 9.05 -1.9 8.15 -2.5 6.85 -2.6 5.5 L-2.95 2.25 -3.1 0.75 Q0.2 2.5 3.35 0.65" fill="url(#gradient1)" fill-rule="evenodd" stroke="none"/>
    <path d="M-3.1 0.75 L-3.4 -1.6 Q-3.7 -3.4 -3.35 -5.7 -3.2 -7.1 -2.6 -7.9 L-2.2 -8.65 -1.8 -9.05 -0.5 -9.65 Q1.35 -10.15 3.3 -8.95 L3.45 -6.75 3.55 -3.1 3.4 0.3 3.35 0.65 2.95 3.4 2.3 6.5 Q1.8 8.45 0.45 9.85 L-0.5 9.5 Q-1.55 9.05 -1.9 8.15 -2.5 6.85 -2.6 5.5 L-2.95 2.25 -3.1 0.75 Q0.2 2.5 3.35 0.65" fill="none" stroke="#000000" stroke-linecap="round" stroke-linejoin="round" stroke-width="0.05"/>
  </g>
  <defs>
    <radialGradient cx="0" cy="0" gradientTransform="matrix(3.0E-4, 0.0119, -0.0092, 2.0E-4, -0.25, -5.45)" gradientUnits="userSpaceOnUse" id="gradient0" r="819.2" spreadMethod="pad">
      <stop offset="0.0" stop-color="#39352d"/>
      <stop offset="0.5333333333333333" stop-color="#0e0d0c"/>
      <stop offset="0.9176470588235294" stop-color="#5e594d"/>
    </radialGradient>
    <linearGradient gradientTransform="matrix(1.0E-4, 0.0056, -0.0039, 0.0, 0.2, 5.25)" gradientUnits="userSpaceOnUse" id="gradient1" spreadMethod="pad" x1="-819.2" x2="819.2">
      <stop offset="0.0" stop-color="#0f0e14"/>
      <stop offset="1.0" stop-color="#322d2c"/>
    </linearGradient>
  </defs>
</svg>
