<?xml version="1.0" encoding="UTF-8" standalone="no"?>
<svg xmlns:xlink="http://www.w3.org/1999/xlink" height="30.35px" width="12.4px" xmlns="http://www.w3.org/2000/svg">
  <g transform="matrix(1.0, 0.0, 0.0, 1.0, 6.1, 15.15)">
    <path d="M-1.5 -6.85 L-1.45 -6.75 -1.5 -6.75 -1.5 -6.85 M0.45 -3.1 L0.5 -3.1 0.55 -2.85 0.45 -3.1" fill="#737373" fill-rule="evenodd" stroke="none"/>
    <path d="M-5.85 -4.1 L-6.1 -4.75 -6.05 -6.1 -6.0 -7.5 Q-3.9 -6.75 -1.5 -6.75 L-1.45 -6.75 0.45 -3.1 -1.6 -2.3 -5.85 -4.1" fill="url(#gradient0)" fill-rule="evenodd" stroke="none"/>
    <path d="M-1.1 -14.15 Q1.4 -14.15 3.7 -15.15 L6.2 -11.3 6.3 -8.4 6.3 -7.1 6.3 -5.45 5.35 -4.6 Q4.3 -2.35 3.65 -0.1 L3.45 4.85 1.85 13.3 Q0.85 14.05 0.15 15.0 1.05 6.8 0.55 -2.85 L0.5 -3.1 0.45 -3.1 -1.45 -6.75 -1.5 -6.85 -1.1 -14.15" fill="url(#gradient1)" fill-rule="evenodd" stroke="none"/>
    <path d="M-6.0 -7.5 L-5.9 -10.35 -4.95 -14.2 -4.95 -14.25 Q-4.55 -14.3 -4.35 -14.5 L-1.1 -14.15 -1.5 -6.85 -1.5 -6.75 Q-3.9 -6.75 -6.0 -7.5" fill="url(#gradient2)" fill-rule="evenodd" stroke="none"/>
    <path d="M0.15 15.0 L-0.05 15.2 Q-2.25 13.95 -4.4 13.1 -4.4 8.85 -4.55 4.75 L-4.65 0.45 -5.85 -4.1 -1.6 -2.3 0.45 -3.1 0.55 -2.85 Q1.05 6.8 0.15 15.0" fill="url(#gradient3)" fill-rule="evenodd" stroke="none"/>
    <path d="M-1.1 -14.15 Q1.4 -14.15 3.7 -15.15 L6.2 -11.3 6.3 -8.4 6.3 -7.1 6.3 -5.45 5.35 -4.6 Q4.3 -2.35 3.65 -0.1 L3.45 4.85 1.85 13.3 Q0.85 14.05 0.15 15.0 L-0.05 15.2 Q-2.25 13.95 -4.4 13.1 -4.4 8.85 -4.55 4.75 L-4.65 0.45 -5.85 -4.1 -6.1 -4.75 -6.05 -6.1 -6.0 -7.5 -5.9 -10.35 -4.95 -14.2 -4.95 -14.25 Q-4.55 -14.3 -4.35 -14.5 L-1.1 -14.15 -1.5 -6.85 -1.45 -6.75 0.45 -3.1 0.5 -3.1 0.55 -2.85 Q1.05 6.8 0.15 15.0 M0.45 -3.1 L0.55 -2.85 M-1.5 -6.85 L-1.5 -6.75 -1.45 -6.75 M-5.85 -4.1 L-1.6 -2.3 0.45 -3.1 M-1.5 -6.75 Q-3.9 -6.75 -6.0 -7.5" fill="none" stroke="#000000" stroke-linecap="round" stroke-linejoin="round" stroke-width="0.05"/>
  </g>
  <defs>
    <radialGradient cx="0" cy="0" gradientTransform="matrix(0.0073, 0.0, 0.0, 0.0073, -5.25, -4.9)" gradientUnits="userSpaceOnUse" id="gradient0" r="819.2" spreadMethod="pad">
      <stop offset="0.0" stop-color="#c88a2f"/>
      <stop offset="1.0" stop-color="#643e35"/>
    </radialGradient>
    <radialGradient cx="0" cy="0" gradientTransform="matrix(0.0328, 0.0, 0.0, 0.0328, 3.15, -11.75)" gradientUnits="userSpaceOnUse" id="gradient1" r="819.2" spreadMethod="pad">
      <stop offset="0.0" stop-color="#c88a2f"/>
      <stop offset="1.0" stop-color="#643e35"/>
    </radialGradient>
    <radialGradient cx="0" cy="0" gradientTransform="matrix(0.0064, 0.0, 0.0, 0.0064, -4.35, -10.0)" gradientUnits="userSpaceOnUse" id="gradient2" r="819.2" spreadMethod="pad">
      <stop offset="0.0" stop-color="#5b6568"/>
      <stop offset="0.30980392156862746" stop-color="#2c2f34"/>
      <stop offset="1.0" stop-color="#18161d"/>
    </radialGradient>
    <radialGradient cx="0" cy="0" gradientTransform="matrix(0.0128, 0.0, 0.0, 0.0128, -3.0, 5.1)" gradientUnits="userSpaceOnUse" id="gradient3" r="819.2" spreadMethod="pad">
      <stop offset="0.0" stop-color="#5b6568"/>
      <stop offset="0.30980392156862746" stop-color="#2c2f34"/>
      <stop offset="1.0" stop-color="#18161d"/>
    </radialGradient>
  </defs>
</svg>
