<?xml version="1.0" encoding="UTF-8" standalone="no"?>
<svg xmlns:xlink="http://www.w3.org/1999/xlink" height="21.35px" width="8.25px" xmlns="http://www.w3.org/2000/svg">
  <g transform="matrix(1.0, 0.0, 0.0, 1.0, 4.1, 10.65)">
    <path d="M2.4 5.75 L2.4 5.8 2.3 5.9 2.25 5.65 2.4 5.75" fill="url(#gradient0)" fill-rule="evenodd" stroke="none"/>
    <path d="M2.4 5.75 L2.25 5.65 2.4 5.7 2.4 5.75" fill="url(#gradient1)" fill-rule="evenodd" stroke="none"/>
    <path d="M1.8 -9.05 L1.7 -8.9 -0.85 -10.55 -0.8 -10.65 -0.85 -10.55 1.8 -9.1 1.8 -9.05" fill="#999999" fill-rule="evenodd" stroke="none"/>
    <path d="M0.25 -5.4 L4.0 -5.75 4.05 -2.45 Q3.3 -0.75 2.9 0.8 L-0.8 -0.5 Q-0.55 -3.0 0.25 -5.4" fill="url(#gradient2)" fill-rule="evenodd" stroke="none"/>
    <path d="M1.95 2.85 Q1.55 4.4 2.25 5.65 L2.3 5.9 Q0.9 6.5 -0.35 6.35 L-0.85 2.85 1.95 2.85" fill="url(#gradient3)" fill-rule="evenodd" stroke="none"/>
    <path d="M1.7 -8.9 Q0.8 -7.2 0.25 -5.4 -0.55 -3.0 -0.8 -0.5 L-0.85 2.85 -0.35 6.35 Q-2.05 6.15 -3.4 4.7 L-3.4 4.65 Q-2.55 1.8 -3.6 -1.2 L-3.45 -5.3 Q-3.2 -7.05 -0.85 -10.55 L1.7 -8.9" fill="url(#gradient4)" fill-rule="evenodd" stroke="none"/>
    <path d="M-0.8 -0.5 L2.9 0.8 2.85 0.95 Q2.2 1.95 1.95 2.85 L-0.85 2.85 -0.8 -0.5" fill="url(#gradient5)" fill-rule="evenodd" stroke="none"/>
    <path d="M4.0 -5.75 L0.25 -5.4 Q0.8 -7.2 1.7 -8.9 L1.8 -9.05 3.6 -7.9 4.0 -5.75" fill="url(#gradient6)" fill-rule="evenodd" stroke="none"/>
    <path d="M2.3 5.9 L1.1 7.95 1.55 9.75 0.2 10.7 -4.1 7.1 -3.4 4.7 Q-2.05 6.15 -0.35 6.35 0.9 6.5 2.3 5.9" fill="url(#gradient7)" fill-rule="evenodd" stroke="none"/>
    <path d="M0.25 -5.4 L4.0 -5.75 3.6 -7.9 1.8 -9.05 1.7 -8.9 Q0.8 -7.2 0.25 -5.4 -0.55 -3.0 -0.8 -0.5 L2.9 0.8 Q3.3 -0.75 4.05 -2.45 L4.0 -5.75 M1.8 -9.1 L1.8 -9.05 M1.95 2.85 Q2.2 1.95 2.85 0.95 L2.9 0.8 M2.4 5.75 L2.4 5.8 2.3 5.9 1.1 7.95 1.55 9.75 0.2 10.7 -4.1 7.1 -3.4 4.7 -3.4 4.65 Q-2.55 1.8 -3.6 -1.2 L-3.45 -5.3 Q-3.2 -7.05 -0.85 -10.55 L-0.8 -10.65 M2.25 5.65 L2.4 5.75 2.4 5.7 M2.25 5.65 Q1.55 4.4 1.95 2.85 L-0.85 2.85 -0.35 6.35 Q0.9 6.5 2.3 5.9 M-0.35 6.35 Q-2.05 6.15 -3.4 4.7 M-0.8 -0.5 L-0.85 2.85 M-0.85 -10.55 L1.7 -8.9" fill="none" stroke="#000000" stroke-linecap="round" stroke-linejoin="round" stroke-width="0.05"/>
  </g>
  <defs>
    <radialGradient cx="0" cy="0" gradientTransform="matrix(0.0155, 0.003, -0.0021, 0.0167, 1.0, -8.15)" gradientUnits="userSpaceOnUse" id="gradient0" r="819.2" spreadMethod="pad">
      <stop offset="0.0" stop-color="#525252"/>
      <stop offset="1.0" stop-color="#272727"/>
    </radialGradient>
    <radialGradient cx="0" cy="0" gradientTransform="matrix(0.0044, 9.0E-4, -6.0E-4, 0.0048, -0.45, 7.05)" gradientUnits="userSpaceOnUse" id="gradient1" r="819.2" spreadMethod="pad">
      <stop offset="0.0" stop-color="#929292"/>
      <stop offset="1.0" stop-color="#525252"/>
    </radialGradient>
    <radialGradient cx="0" cy="0" gradientTransform="matrix(0.0048, 0.0, 0.0, 0.0048, 1.75, -2.75)" gradientUnits="userSpaceOnUse" id="gradient2" r="819.2" spreadMethod="pad">
      <stop offset="0.0" stop-color="#554444"/>
      <stop offset="1.0" stop-color="#252730"/>
    </radialGradient>
    <radialGradient cx="0" cy="0" gradientTransform="matrix(0.0033, 0.0, 0.0, 0.0033, 0.4, 4.6)" gradientUnits="userSpaceOnUse" id="gradient3" r="819.2" spreadMethod="pad">
      <stop offset="0.0" stop-color="#554444"/>
      <stop offset="1.0" stop-color="#252730"/>
    </radialGradient>
    <radialGradient cx="0" cy="0" gradientTransform="matrix(0.0172, 0.0, 0.0, 0.0172, 0.9, -7.65)" gradientUnits="userSpaceOnUse" id="gradient4" r="819.2" spreadMethod="pad">
      <stop offset="0.0" stop-color="#c88a2f"/>
      <stop offset="1.0" stop-color="#643e35"/>
    </radialGradient>
    <radialGradient cx="0" cy="0" gradientTransform="matrix(0.0034, 0.0, 0.0, 0.0034, 2.75, 2.0)" gradientUnits="userSpaceOnUse" id="gradient5" r="819.2" spreadMethod="pad">
      <stop offset="0.0" stop-color="#c88a2f"/>
      <stop offset="1.0" stop-color="#643e35"/>
    </radialGradient>
    <radialGradient cx="0" cy="0" gradientTransform="matrix(0.0045, 0.0, 0.0, 0.0045, 4.9, -5.75)" gradientUnits="userSpaceOnUse" id="gradient6" r="819.2" spreadMethod="pad">
      <stop offset="0.0" stop-color="#c88a2f"/>
      <stop offset="1.0" stop-color="#643e35"/>
    </radialGradient>
    <radialGradient cx="0" cy="0" gradientTransform="matrix(0.007, 0.0, 0.0, 0.007, 0.0, 9.25)" gradientUnits="userSpaceOnUse" id="gradient7" r="819.2" spreadMethod="pad">
      <stop offset="0.0" stop-color="#5b6568"/>
      <stop offset="0.30980392156862746" stop-color="#2c2f34"/>
      <stop offset="1.0" stop-color="#18161d"/>
    </radialGradient>
  </defs>
</svg>
