<?xml version="1.0" encoding="UTF-8" standalone="no"?>
<svg xmlns:xlink="http://www.w3.org/1999/xlink" height="91.5px" width="5.1px" xmlns="http://www.w3.org/2000/svg">
  <g transform="matrix(1.0, 0.0, 0.0, 1.0, 2.6, 52.25)">
    <path d="M1.35 10.55 L1.65 10.55 Q1.2 20.4 2.5 30.2 L1.35 32.55 Q0.0 33.5 -1.35 32.55 L-2.6 30.2 Q-1.0 21.45 -1.6 10.55 L-1.35 10.55 Q0.0 11.5 1.35 10.55" fill="url(#gradient0)" fill-rule="evenodd" stroke="none"/>
    <path d="M1.35 -27.15 L1.35 -12.7 -1.35 -12.7 -1.35 -27.15 1.35 -27.15 M-1.35 -41.65 L-1.35 -52.25 1.35 -52.25 1.35 -41.65 -1.35 -41.65" fill="url(#gradient1)" fill-rule="evenodd" stroke="none"/>
    <path d="M1.35 -12.7 L1.35 10.55 Q0.0 11.5 -1.35 10.55 L-1.35 -12.7 1.35 -12.7 M1.35 32.55 L1.35 38.7 Q0.0 39.85 -1.35 38.7 L-1.35 32.55 Q0.0 33.5 1.35 32.55" fill="url(#gradient2)" fill-rule="evenodd" stroke="none"/>
    <path d="M1.35 -41.65 L1.5 -41.65 1.5 -27.15 1.35 -27.15 -1.35 -27.15 -1.5 -27.15 -1.5 -41.65 -1.35 -41.65 1.35 -41.65" fill="url(#gradient3)" fill-rule="evenodd" stroke="none"/>
    <path d="M1.35 -41.65 L1.5 -41.65 1.5 -27.15 1.35 -27.15 1.35 -12.7 1.35 10.55 1.65 10.55 Q1.2 20.4 2.5 30.2 L1.35 32.55 1.35 38.7 Q0.0 39.85 -1.35 38.7 L-1.35 32.55 -2.6 30.2 Q-1.0 21.45 -1.6 10.55 L-1.35 10.55 -1.35 -12.7 -1.35 -27.15 -1.5 -27.15 -1.5 -41.65 -1.35 -41.65 -1.35 -52.25 1.35 -52.25 1.35 -41.65 -1.35 -41.65 M1.35 10.55 Q0.0 11.5 -1.35 10.55 M-1.35 32.55 Q0.0 33.5 1.35 32.55 M-1.35 -27.15 L1.35 -27.15" fill="none" stroke="#000000" stroke-linecap="round" stroke-linejoin="round" stroke-width="0.05"/>
  </g>
  <defs>
    <radialGradient cx="0" cy="0" gradientTransform="matrix(0.0034, 0.0, 0.0, 0.0136, -0.05, 21.55)" gradientUnits="userSpaceOnUse" id="gradient0" r="819.2" spreadMethod="pad">
      <stop offset="0.0" stop-color="#2f4833"/>
      <stop offset="1.0" stop-color="#1a1e15"/>
    </radialGradient>
    <linearGradient gradientTransform="matrix(0.0016, 0.0, 0.0, 0.0661, 0.0, 1.85)" gradientUnits="userSpaceOnUse" id="gradient1" spreadMethod="pad" x1="-819.2" x2="819.2">
      <stop offset="0.0" stop-color="#efece4"/>
      <stop offset="0.41568627450980394" stop-color="#755e46"/>
      <stop offset="0.4392156862745098" stop-color="#2f251e"/>
      <stop offset="0.7294117647058823" stop-color="#947a63"/>
      <stop offset="1.0" stop-color="#9f9171"/>
    </linearGradient>
    <linearGradient gradientTransform="matrix(0.0016, 0.0, 0.0, 0.0661, 0.0, -15.45)" gradientUnits="userSpaceOnUse" id="gradient2" spreadMethod="pad" x1="-819.2" x2="819.2">
      <stop offset="0.0" stop-color="#efece4"/>
      <stop offset="0.41568627450980394" stop-color="#755e46"/>
      <stop offset="0.4392156862745098" stop-color="#2f251e"/>
      <stop offset="0.7294117647058823" stop-color="#947a63"/>
      <stop offset="1.0" stop-color="#9f9171"/>
    </linearGradient>
    <linearGradient gradientTransform="matrix(0.0018, 0.0, 0.0, 0.0089, 0.0, -34.4)" gradientUnits="userSpaceOnUse" id="gradient3" spreadMethod="pad" x1="-819.2" x2="819.2">
      <stop offset="0.0" stop-color="#9763a5"/>
      <stop offset="0.42745098039215684" stop-color="#6f538a"/>
      <stop offset="0.4392156862745098" stop-color="#9d58af"/>
      <stop offset="0.7019607843137254" stop-color="#b66baf"/>
      <stop offset="1.0" stop-color="#a992a5"/>
    </linearGradient>
  </defs>
</svg>
