<?xml version="1.0" encoding="UTF-8" standalone="no"?>
<svg xmlns:xlink="http://www.w3.org/1999/xlink" height="14.85px" width="17.6px" xmlns="http://www.w3.org/2000/svg">
  <g transform="matrix(1.0, 0.0, 0.0, 1.0, 11.2, 9.0)">
    <path d="M1.75 -7.3 L1.3 -9.0 3.95 -8.7 Q5.05 -1.9 6.4 -0.55 L2.4 5.85 Q-3.75 4.6 -11.2 5.6 -10.6 4.25 -10.7 3.3 L-10.7 2.25 -9.7 2.2 -3.5 1.85 -2.65 3.0 -0.25 2.1 1.65 1.4 2.1 -0.3 Q2.65 -3.45 1.75 -7.3" fill="url(#gradient0)" fill-rule="evenodd" stroke="none"/>
    <path d="M2.1 -0.3 L1.65 1.4 -0.25 2.1 Q-2.8 -1.85 -7.6 -4.9 L-8.9 -5.4 -5.9 -8.3 -4.5 -7.6 Q-0.25 -5.2 2.1 -0.3" fill="url(#gradient1)" fill-rule="evenodd" stroke="none"/>
    <path d="M-0.25 2.1 L-2.65 3.0 -3.5 1.85 -9.7 2.2 -9.4 -0.35 Q-8.8 -3.1 -7.6 -4.9 -2.8 -1.85 -0.25 2.1" fill="url(#gradient2)" fill-rule="evenodd" stroke="none"/>
    <path d="M1.75 -7.3 Q2.65 -3.45 2.1 -0.3 -0.25 -5.2 -4.5 -7.6 -3.1 -8.3 -1.35 -8.4 L1.75 -7.3" fill="url(#gradient3)" fill-rule="evenodd" stroke="none"/>
    <path d="M-9.7 2.2 L-10.7 2.25 -10.7 3.3 Q-10.6 4.25 -11.2 5.6 -3.75 4.6 2.4 5.85 L6.4 -0.55 Q5.05 -1.9 3.95 -8.7 L1.3 -9.0 1.75 -7.3 Q2.65 -3.45 2.1 -0.3 L1.65 1.4 -0.25 2.1 -2.65 3.0 -3.5 1.85 -9.7 2.2 -9.4 -0.35 Q-8.8 -3.1 -7.6 -4.9 L-8.9 -5.4 -5.9 -8.3 -4.5 -7.6 Q-3.1 -8.3 -1.35 -8.4 L1.75 -7.3 M-7.6 -4.9 Q-2.8 -1.85 -0.25 2.1 M2.1 -0.3 Q-0.25 -5.2 -4.5 -7.6" fill="none" stroke="#000000" stroke-linecap="round" stroke-linejoin="round" stroke-width="0.05"/>
  </g>
  <defs>
    <radialGradient cx="0" cy="0" gradientTransform="matrix(0.0139, 0.0, 0.0, 0.0139, -2.4, -1.6)" gradientUnits="userSpaceOnUse" id="gradient0" r="819.2" spreadMethod="pad">
      <stop offset="0.0" stop-color="#423835"/>
      <stop offset="1.0" stop-color="#17151e"/>
    </radialGradient>
    <radialGradient cx="0" cy="0" gradientTransform="matrix(0.0129, 0.0, 0.0, 0.0129, -5.6, -6.15)" gradientUnits="userSpaceOnUse" id="gradient1" r="819.2" spreadMethod="pad">
      <stop offset="0.0" stop-color="#ec6d60"/>
      <stop offset="0.396078431372549" stop-color="#7a1f1f"/>
      <stop offset="1.0" stop-color="#362b3c"/>
    </radialGradient>
    <radialGradient cx="0" cy="0" gradientTransform="matrix(0.0069, 0.0, 0.0, 0.0069, -5.0, -0.95)" gradientUnits="userSpaceOnUse" id="gradient2" r="819.2" spreadMethod="pad">
      <stop offset="0.0" stop-color="#333924"/>
      <stop offset="1.0" stop-color="#0f0e14"/>
    </radialGradient>
    <radialGradient cx="0" cy="0" gradientTransform="matrix(0.0071, 0.0, 0.0, 0.0071, -1.1, -4.35)" gradientUnits="userSpaceOnUse" id="gradient3" r="819.2" spreadMethod="pad">
      <stop offset="0.0" stop-color="#333924"/>
      <stop offset="1.0" stop-color="#0f0e14"/>
    </radialGradient>
  </defs>
</svg>
