<?xml version="1.0" encoding="UTF-8" standalone="no"?>
<svg xmlns:xlink="http://www.w3.org/1999/xlink" height="33.5px" width="13.2px" xmlns="http://www.w3.org/2000/svg">
  <g transform="matrix(1.0, 0.0, 0.0, 1.0, 6.05, 17.95)">
    <path d="M4.25 1.25 L4.35 1.1 4.3 1.3 4.25 1.25 M-3.45 -16.9 L-3.55 -16.75 -3.55 -16.9 -3.45 -16.9" fill="#ffffff" fill-rule="evenodd" stroke="none"/>
    <path d="M-3.55 -16.75 Q-0.75 -13.45 -0.25 -8.95 L3.4 -5.35 3.45 -5.3 Q4.45 -3.1 4.35 1.1 L4.25 1.25 3.65 0.8 -2.65 -4.3 -2.7 -4.35 -2.9 -5.45 Q-3.45 -7.3 -4.65 -8.8 L-4.9 -9.1 -5.85 -10.0 Q-4.1 -13.1 -3.55 -16.75" fill="url(#gradient0)" fill-rule="evenodd" stroke="none"/>
    <path d="M-5.05 -4.1 Q-4.35 -3.05 -4.25 -1.6 L-0.7 1.6 -0.5 5.35 2.8 8.7 2.65 9.75 2.5 9.7 -3.9 4.35 -4.2 4.1 Q-4.25 2.15 -5.85 0.65 -4.85 -0.75 -5.05 -4.1" fill="url(#gradient1)" fill-rule="evenodd" stroke="none"/>
    <path d="M4.35 1.1 Q4.45 -3.1 3.45 -5.3 L5.55 -10.15 7.15 -5.85 Q5.3 -2.7 4.35 1.1 M-0.7 1.6 L3.4 5.25 3.45 5.3 2.8 8.7 -0.5 5.35 -0.7 1.6" fill="#211d1b" fill-rule="evenodd" stroke="none"/>
    <path d="M-3.9 4.35 L2.5 9.7 2.25 13.3 1.1 14.7 -0.15 15.55 -3.85 12.85 -3.9 4.35" fill="url(#gradient2)" fill-rule="evenodd" stroke="none"/>
    <path d="M3.45 -5.3 L3.4 -5.35 -0.25 -8.95 Q-0.75 -13.45 -3.55 -16.75 L-3.45 -16.9 Q0.4 -16.3 3.35 -17.95 4.2 -14.1 5.55 -10.15 L3.45 -5.3" fill="url(#gradient3)" fill-rule="evenodd" stroke="none"/>
    <path d="M-4.65 -8.8 Q-3.45 -7.3 -2.9 -5.45 L-2.7 -4.35 -2.65 -4.3 3.65 0.8 3.4 5.25 -0.7 1.6 -4.25 -1.6 Q-4.35 -3.05 -5.05 -4.1 L-6.05 -5.25 Q-4.95 -6.35 -4.65 -8.8" fill="url(#gradient4)" fill-rule="evenodd" stroke="none"/>
    <path d="M-3.55 -16.75 Q-4.1 -13.1 -5.85 -10.0 L-4.9 -9.1 -4.65 -8.8 Q-3.45 -7.3 -2.9 -5.45 L-2.7 -4.35 -2.65 -4.3 3.65 0.8 4.25 1.25 4.3 1.3 4.35 1.1 Q5.3 -2.7 7.15 -5.85 L5.55 -10.15 Q4.2 -14.1 3.35 -17.95 0.4 -16.3 -3.45 -16.9 L-3.55 -16.9 -3.55 -16.75 M-5.05 -4.1 Q-4.35 -3.05 -4.25 -1.6 L-0.7 1.6 3.4 5.25 3.65 0.8 M-4.65 -8.8 Q-4.95 -6.35 -6.05 -5.25 L-5.05 -4.1 Q-4.85 -0.75 -5.85 0.65 -4.25 2.15 -4.2 4.1 L-3.9 4.35 2.5 9.7 2.25 13.3 1.1 14.7 -0.15 15.55 -3.85 12.85 -3.9 4.35 M2.65 9.75 L2.8 8.7 3.45 5.3 3.4 5.25 M2.65 9.75 L2.6 9.8 2.5 9.7" fill="none" stroke="#000000" stroke-linecap="round" stroke-linejoin="round" stroke-width="0.05"/>
  </g>
  <defs>
    <radialGradient cx="0" cy="0" gradientTransform="matrix(0.0181, 0.0, 0.0, 0.0181, 1.6, -2.9)" gradientUnits="userSpaceOnUse" id="gradient0" r="819.2" spreadMethod="pad">
      <stop offset="0.0" stop-color="#423835"/>
      <stop offset="1.0" stop-color="#17151e"/>
    </radialGradient>
    <radialGradient cx="0" cy="0" gradientTransform="matrix(0.0111, 0.0, 0.0, 0.0111, -1.55, 4.3)" gradientUnits="userSpaceOnUse" id="gradient1" r="819.2" spreadMethod="pad">
      <stop offset="0.0" stop-color="#423835"/>
      <stop offset="1.0" stop-color="#17151e"/>
    </radialGradient>
    <radialGradient cx="0" cy="0" gradientTransform="matrix(0.0119, 0.0, 0.0, 0.0119, -0.75, 13.6)" gradientUnits="userSpaceOnUse" id="gradient2" r="819.2" spreadMethod="pad">
      <stop offset="0.0" stop-color="#9c8d6b"/>
      <stop offset="1.0" stop-color="#362d39"/>
    </radialGradient>
    <radialGradient cx="0" cy="0" gradientTransform="matrix(0.013, 0.0, 0.0, 0.013, 0.85, -15.65)" gradientUnits="userSpaceOnUse" id="gradient3" r="819.2" spreadMethod="pad">
      <stop offset="0.0" stop-color="#9c8d6b"/>
      <stop offset="1.0" stop-color="#362d39"/>
    </radialGradient>
    <radialGradient cx="0" cy="0" gradientTransform="matrix(0.0149, 0.0, 0.0, 0.0149, 2.65, 1.0)" gradientUnits="userSpaceOnUse" id="gradient4" r="819.2" spreadMethod="pad">
      <stop offset="0.0" stop-color="#ec6d60"/>
      <stop offset="0.396078431372549" stop-color="#7a1f1f"/>
      <stop offset="1.0" stop-color="#362b3c"/>
    </radialGradient>
  </defs>
</svg>
