<?xml version="1.0" encoding="UTF-8" standalone="no"?>
<svg xmlns:xlink="http://www.w3.org/1999/xlink" height="16.6px" width="14.6px" xmlns="http://www.w3.org/2000/svg">
  <g transform="matrix(1.0, 0.0, 0.0, 1.0, 7.35, 9.85)">
    <path d="M7.2 -2.85 L7.1 -3.1 7.25 -2.9 7.2 -2.85" fill="#ffffff" fill-rule="evenodd" stroke="none"/>
    <path d="M7.0 -2.8 Q5.9 -1.05 5.3 0.85 L5.0 -1.3 5.05 -1.6 5.1 -1.85 5.15 -2.15 7.0 -2.8 M0.45 3.95 L3.7 4.65 4.5 1.6 4.5 1.5 5.1 1.45 Q4.35 3.95 4.4 6.65 L4.1 6.55 0.45 3.95" fill="#1a1a1a" fill-rule="evenodd" stroke="none"/>
    <path d="M5.15 -2.15 L5.1 -1.85 5.0 -2.05 5.15 -2.15" fill="#000000" fill-rule="evenodd" stroke="none"/>
    <path d="M7.0 -2.8 L5.15 -2.15 5.0 -2.05 Q0.5 -0.2 -0.5 3.25 L0.45 3.95 4.1 6.55 Q-2.5 6.2 -7.0 -0.15 -8.9 -0.45 0.15 -9.85 4.65 -7.1 7.1 -3.1 L7.2 -2.85 7.0 -2.8" fill="url(#gradient0)" fill-rule="evenodd" stroke="none"/>
    <path d="M5.1 -1.85 L5.05 -1.6 5.0 -1.3 5.3 0.85 Q5.9 -1.05 7.0 -2.8 L5.15 -2.15 5.1 -1.85 5.0 -1.3 M5.0 -2.05 Q0.5 -0.2 -0.5 3.25 L0.45 3.95 3.7 4.65 4.5 1.6 4.5 1.5 5.1 1.45 5.15 1.35 5.3 0.85 M7.0 -2.8 L7.2 -2.85 7.25 -2.9 7.1 -3.1 Q4.65 -7.1 0.15 -9.85 -8.9 -0.45 -7.0 -0.15 -2.5 6.2 4.1 6.55 L0.45 3.95 M5.0 -2.05 L5.15 -2.15 M4.1 6.55 L4.4 6.65 Q4.35 3.95 5.1 1.45 M4.4 6.65 L4.4 6.75 4.1 6.55" fill="none" stroke="#000000" stroke-linecap="round" stroke-linejoin="round" stroke-width="0.05"/>
  </g>
  <defs>
    <radialGradient cx="0" cy="0" gradientTransform="matrix(0.0138, 0.0, 0.0, 0.0138, 3.3, -4.0)" gradientUnits="userSpaceOnUse" id="gradient0" r="819.2" spreadMethod="pad">
      <stop offset="0.0" stop-color="#8ea045"/>
      <stop offset="1.0" stop-color="#2b3c3c"/>
    </radialGradient>
  </defs>
</svg>
