<?xml version="1.0" encoding="UTF-8" standalone="no"?>
<svg xmlns:xlink="http://www.w3.org/1999/xlink" height="67.0px" width="14.3px" xmlns="http://www.w3.org/2000/svg">
  <g transform="matrix(1.0, 0.0, 0.0, 1.0, 7.15, 40.45)">
    <path d="M-1.35 26.55 L-1.4 26.55 -1.4 12.2 -1.35 12.2 -1.35 13.6 -1.35 26.55" fill="#0099cc" fill-rule="evenodd" stroke="none"/>
    <path d="M1.35 13.6 L1.35 26.55 -1.35 26.55 -1.35 13.6 1.35 13.6" fill="url(#gradient0)" fill-rule="evenodd" stroke="none"/>
    <path d="M4.1 6.45 L7.15 6.45 7.15 9.2 Q2.55 9.85 1.35 12.2 L1.35 13.6 -1.35 13.6 -1.35 12.2 Q-2.6 9.9 -7.0 9.25 L-7.15 9.2 -7.15 6.45 -7.1 6.45 -4.25 6.45 -4.1 6.45 -1.35 6.45 1.35 6.45 4.1 6.45" fill="url(#gradient1)" fill-rule="evenodd" stroke="none"/>
    <path d="M-1.35 -34.8 L-0.75 -31.95 Q0.0 -30.75 0.95 -31.7 L1.35 -34.8 2.65 -32.15 Q1.75 -15.45 3.5 1.1 L1.35 3.05 1.35 6.45 -1.35 6.45 -1.35 3.05 -3.5 0.2 Q-1.75 -14.85 -2.65 -32.15 L-1.35 -34.8" fill="url(#gradient2)" fill-rule="evenodd" stroke="none"/>
    <path d="M-4.1 6.45 Q-3.25 5.45 -3.7 3.55 L-6.6 0.8 Q-4.1 -16.9 -4.75 -34.05 L-1.35 -40.45 -1.35 -34.8 -2.65 -32.15 Q-1.75 -14.85 -3.5 0.2 L-1.35 3.05 -1.35 6.45 -4.1 6.45" fill="url(#gradient3)" fill-rule="evenodd" stroke="none"/>
    <path d="M1.35 -34.8 L1.35 -40.45 4.75 -34.05 Q4.1 -16.9 6.5 1.05 L3.7 3.55 Q2.9 5.0 4.1 6.45 L1.35 6.45 1.35 3.05 3.5 1.1 Q1.75 -15.45 2.65 -32.15 L1.35 -34.8" fill="url(#gradient4)" fill-rule="evenodd" stroke="none"/>
    <path d="M1.35 -34.8 L1.35 -40.45 4.75 -34.05 Q4.1 -16.9 6.5 1.05 L3.7 3.55 Q2.9 5.0 4.1 6.45 L7.15 6.45 7.15 9.2 Q2.55 9.85 1.35 12.2 L1.35 13.6 1.35 26.55 -1.35 26.55 -1.4 26.55 -1.4 12.2 -1.35 12.2 Q-2.6 9.9 -7.0 9.25 L-7.15 9.2 -7.15 6.45 -7.1 6.45 M-4.25 6.45 L-4.1 6.45 Q-3.25 5.45 -3.7 3.55 L-6.6 0.8 Q-4.1 -16.9 -4.75 -34.05 L-1.35 -40.45 -1.35 -34.8 -0.75 -31.95 Q0.0 -30.75 0.95 -31.7 L1.35 -34.8 2.65 -32.15 Q1.75 -15.45 3.5 1.1 L1.35 3.05 1.35 6.45 4.1 6.45 M-1.35 -34.8 L-2.65 -32.15 Q-1.75 -14.85 -3.5 0.2 L-1.35 3.05 -1.35 6.45 1.35 6.45 M-1.35 6.45 L-4.1 6.45 M-1.35 12.2 L-1.35 13.6 1.35 13.6 M-1.35 13.6 L-1.35 26.55" fill="none" stroke="#000000" stroke-linecap="round" stroke-linejoin="round" stroke-width="0.05"/>
  </g>
  <defs>
    <linearGradient gradientTransform="matrix(0.0016, 0.0, 0.0, 0.0079, 0.0, 20.05)" gradientUnits="userSpaceOnUse" id="gradient0" spreadMethod="pad" x1="-819.2" x2="819.2">
      <stop offset="0.0" stop-color="#7b7b7b"/>
      <stop offset="0.42745098039215684" stop-color="#444444"/>
      <stop offset="0.44313725490196076" stop-color="#2b2b2b"/>
      <stop offset="0.6470588235294118" stop-color="#404040"/>
      <stop offset="1.0" stop-color="#aeaeae"/>
    </linearGradient>
    <linearGradient gradientTransform="matrix(0.0, 0.0044, -0.0087, 0.0, 0.0, 10.0)" gradientUnits="userSpaceOnUse" id="gradient1" spreadMethod="pad" x1="-819.2" x2="819.2">
      <stop offset="0.0" stop-color="#34385c"/>
      <stop offset="1.0" stop-color="#1a1a1a"/>
    </linearGradient>
    <linearGradient gradientTransform="matrix(-0.0112, 0.0054, -0.0102, -0.021, 0.0, -14.15)" gradientUnits="userSpaceOnUse" id="gradient2" spreadMethod="pad" x1="-819.2" x2="819.2">
      <stop offset="0.0" stop-color="#67bfe4"/>
      <stop offset="0.4666666666666667" stop-color="#1f222e"/>
      <stop offset="0.49411764705882355" stop-color="#12111a"/>
      <stop offset="0.6823529411764706" stop-color="#242329"/>
      <stop offset="1.0" stop-color="#404048"/>
    </linearGradient>
    <linearGradient gradientTransform="matrix(0.0027, -0.0285, 0.0044, 4.0E-4, -2.8, -16.95)" gradientUnits="userSpaceOnUse" id="gradient3" spreadMethod="pad" x1="-819.2" x2="819.2">
      <stop offset="0.0" stop-color="#808080"/>
      <stop offset="0.2627450980392157" stop-color="#d3d5dd"/>
      <stop offset="0.29411764705882354" stop-color="#9b9fb0"/>
      <stop offset="0.44313725490196076" stop-color="#58607c"/>
      <stop offset="0.47843137254901963" stop-color="#7e8aa3"/>
      <stop offset="0.7568627450980392" stop-color="#84effb"/>
      <stop offset="1.0" stop-color="#ffffff"/>
    </linearGradient>
    <linearGradient gradientTransform="matrix(-0.0024, -0.0286, 0.0041, -4.0E-4, 2.8, -17.0)" gradientUnits="userSpaceOnUse" id="gradient4" spreadMethod="pad" x1="-819.2" x2="819.2">
      <stop offset="0.0" stop-color="#808080"/>
      <stop offset="0.2627450980392157" stop-color="#d3d5dd"/>
      <stop offset="0.29411764705882354" stop-color="#9b9fb0"/>
      <stop offset="0.44313725490196076" stop-color="#58607c"/>
      <stop offset="0.47843137254901963" stop-color="#7e8aa3"/>
      <stop offset="0.7568627450980392" stop-color="#84effb"/>
      <stop offset="1.0" stop-color="#ffffff"/>
    </linearGradient>
  </defs>
</svg>
