<?xml version="1.0" encoding="UTF-8" standalone="no"?>
<svg xmlns:xlink="http://www.w3.org/1999/xlink" height="32.85px" width="19.85px" xmlns="http://www.w3.org/2000/svg">
  <g transform="matrix(1.0, 0.0, 0.0, 1.0, 9.9, 16.4)">
    <path d="M7.85 -7.65 L7.5 -6.95 7.4 -7.8 7.85 -7.65 M-5.85 -4.35 L-6.4 -5.55 -6.15 -5.6 -5.85 -4.35" fill="url(#gradient0)" fill-rule="evenodd" stroke="none"/>
    <path d="M5.7 10.05 L5.8 10.05 5.95 13.05 2.15 16.45 -5.0 12.6 -4.7 8.75 -2.3 9.05 5.7 10.05" fill="url(#gradient1)" fill-rule="evenodd" stroke="none"/>
    <path d="M7.5 -6.95 L7.75 -4.2 7.3 -3.3 7.1 -2.95 6.55 -1.7 Q5.65 -2.35 4.65 -2.5 L3.8 -2.6 Q1.2 -2.6 -0.65 0.1 -2.5 2.85 -2.5 6.7 L-2.3 9.05 -4.7 8.75 -5.1 4.45 -4.95 4.45 -4.95 4.4 Q-4.6 -0.75 -5.85 -4.35 L-6.15 -5.6 Q-3.4 -6.7 -2.4 -9.3 -1.95 -10.55 -1.9 -12.15 L-1.9 -12.65 -1.95 -14.05 -1.75 -14.1 -0.05 -16.4 4.4 -13.1 3.35 -12.35 5.4 -11.5 7.4 -7.8 7.5 -6.95" fill="url(#gradient2)" fill-rule="evenodd" stroke="none"/>
    <path d="M-6.15 -5.6 L-6.2 -5.7 -6.25 -5.7 -9.9 -7.8 Q-9.9 -11.6 -5.2 -13.65 L-1.95 -14.05 -1.9 -12.65 -1.9 -12.15 Q-1.95 -10.55 -2.4 -9.3 -3.4 -6.7 -6.15 -5.6" fill="url(#gradient3)" fill-rule="evenodd" stroke="none"/>
    <path d="M6.55 -1.7 L6.55 -1.65 4.95 5.05 5.0 5.05 Q6.0 7.7 5.7 10.05 L-2.3 9.05 -2.5 6.7 Q-2.5 2.85 -0.65 0.1 1.2 -2.6 3.8 -2.6 L4.65 -2.5 Q5.65 -2.35 6.55 -1.7" fill="url(#gradient4)" fill-rule="evenodd" stroke="none"/>
    <path d="M4.4 -13.1 L4.65 -13.1 Q9.15 -11.95 9.95 -9.1 L7.85 -7.65 7.4 -7.8 5.4 -11.5 3.35 -12.35 4.4 -13.1" fill="url(#gradient5)" fill-rule="evenodd" stroke="none"/>
    <path d="M4.65 -13.1 Q9.15 -11.95 9.95 -9.1 M7.85 -7.65 L7.5 -6.95 7.75 -4.2 7.3 -3.3 7.1 -2.95 6.55 -1.7 6.55 -1.65 4.95 5.05 5.0 5.05 Q6.0 7.7 5.7 10.05 L5.8 10.05 5.95 13.05 M-5.0 12.6 L-4.7 8.75 -5.1 4.45 -5.1 4.4 -4.95 4.45 -4.95 4.4 Q-4.6 -0.75 -5.85 -4.35 L-6.15 -5.6 -6.2 -5.7 -6.25 -5.7 M-9.9 -7.8 Q-9.9 -11.6 -5.2 -13.65 L-1.95 -14.05 -1.75 -14.1 -0.05 -16.4 4.4 -13.1 3.35 -12.35 M7.4 -7.8 L7.5 -6.95 M-2.3 9.05 L5.7 10.05 M-2.3 9.05 L-4.7 8.75" fill="none" stroke="#000000" stroke-linecap="round" stroke-linejoin="round" stroke-width="0.05"/>
    <path d="M7.25 -9.4 L6.85 -8.45 Q5.9 -6.75 4.65 -7.9 L4.0 -8.9 2.55 -9.2 Q2.15 -9.35 2.05 -9.75 1.9 -10.7 2.8 -11.05 L3.45 -11.25 4.85 -11.1 6.05 -10.85 Q7.0 -10.9 7.35 -10.25 L7.45 -10.1 7.25 -9.4 M1.0 -3.35 L1.15 -2.4 0.7 -2.05 -1.4 -1.8 -1.65 -1.65 -1.7 -1.55 -1.75 -1.55 -1.85 -1.5 -2.0 -1.55 -2.15 -1.6 -2.6 -3.4 Q-2.75 -4.6 -1.95 -5.7 -1.6 -6.15 -1.45 -6.75 L-0.85 -8.1 Q-0.75 -8.3 -0.55 -8.3 0.85 -8.25 0.8 -6.75 L0.75 -4.4 Q0.75 -3.85 1.0 -3.35 M3.05 2.1 L3.15 2.15 Q3.75 2.7 3.9 3.5 L4.2 5.35 Q4.2 6.05 3.45 6.3 L2.7 6.3 2.6 6.2 2.6 6.15 2.55 6.1 Q1.2 5.9 0.85 4.75 0.4 3.5 1.5 2.7 2.05 2.3 2.7 2.1 L3.05 2.1 M-2.9 -9.5 Q-3.5 -8.35 -4.8 -8.1 -6.0 -7.9 -6.45 -8.9 -7.4 -8.85 -8.1 -9.5 L-8.4 -10.05 -8.35 -10.7 -8.3 -10.8 -7.7 -11.5 -6.9 -12.1 -5.65 -12.2 -3.2 -10.45 Q-2.65 -10.1 -2.9 -9.5 M-5.25 -1.6 L-5.15 -1.6 -5.1 -1.65 Q-2.65 -1.95 -2.05 0.15 -1.8 1.1 -2.45 1.55 L-4.3 1.45 Q-5.15 0.05 -5.3 -1.55 L-5.25 -1.6" fill="#000000" fill-opacity="0.5019608" fill-rule="evenodd" stroke="none"/>
    <path d="M0.9 -13.6 Q0.7 -15.15 1.4 -15.15 2.4 -15.15 3.05 -13.75 L3.55 -12.35 4.6 -12.35 Q5.25 -12.35 5.25 -11.75 L4.8 -11.1 4.7 -11.15 4.7 -11.1 4.2 -10.7 4.95 -11.15 5.6 -11.0 5.7 -10.95 Q3.85 -9.9 3.65 -9.9 2.2 -9.9 -2.0 -11.9 L-2.0 -12.0 -3.0 -12.2 -3.8 -11.85 -4.5 -11.85 -4.55 -12.05 Q-4.55 -12.45 -2.1 -12.95 L-1.85 -12.85 -0.65 -12.5 1.2 -12.4 0.9 -13.6 M4.35 -9.35 Q4.95 -7.85 4.95 -4.5 L4.65 -2.8 5.1 -2.5 Q5.65 -2.15 6.5 -2.1 L6.6 -1.8 Q6.6 -1.5 5.9 -1.5 L4.35 -2.2 4.25 -2.0 4.25 -1.95 4.25 -1.3 5.0 -0.75 4.2 -0.65 3.65 4.1 4.6 4.25 4.95 4.55 4.95 4.65 3.6 4.65 3.3 6.65 3.2 6.75 2.7 5.6 2.7 4.7 1.15 5.1 Q0.6 5.4 0.35 5.85 L0.3 5.55 Q0.3 4.2 2.75 4.1 2.8 1.2 3.3 -0.5 0.9 -0.1 0.8 0.75 L0.75 0.8 Q0.3 0.8 0.3 0.45 0.3 -1.25 3.55 -1.35 L4.0 -2.15 3.9 -2.3 Q3.9 -3.0 4.4 -4.65 L4.4 -4.75 3.95 -8.85 Q3.95 -9.3 4.35 -9.35" fill="#000000" fill-opacity="0.3019608" fill-rule="evenodd" stroke="none"/>
    <path d="M2.15 10.75 L2.15 11.3 2.1 11.3 2.15 10.75" fill="url(#gradient6)" fill-rule="evenodd" stroke="none"/>
    <path d="M0.0 -0.65 L-0.35 -2.7 -3.75 -13.75 -2.05 -14.0 1.3 -3.65 Q2.95 -2.8 4.25 -3.65 L4.3 -12.9 6.0 -12.65 Q6.35 -7.3 5.6 -2.4 2.9 -2.3 0.0 -0.65" fill="url(#gradient7)" fill-rule="evenodd" stroke="none"/>
    <path d="M-2.5 9.8 L-2.85 11.45 Q-4.1 11.75 -5.35 10.9 -4.85 8.75 -5.55 6.05 -3.8 4.9 -1.85 6.25 L-2.15 7.85 -2.5 9.8" fill="url(#gradient8)" fill-rule="evenodd" stroke="none"/>
    <path d="M2.1 11.3 L-1.2 10.8 -1.1 10.15 -0.8 8.1 -0.65 7.05 Q0.8 6.35 2.1 7.45 L2.15 8.6 2.15 10.75 2.1 11.3" fill="url(#gradient9)" fill-rule="evenodd" stroke="none"/>
    <path d="M0.0 -0.65 Q2.9 -2.3 5.6 -2.4 L4.85 1.05 Q5.05 2.65 6.0 2.9 L5.6 4.9 Q4.4 1.3 -5.2 5.05 L-5.1 2.5 Q-2.25 2.85 0.2 0.9 L0.0 -0.65" fill="url(#gradient10)" fill-rule="evenodd" stroke="none"/>
    <path d="M2.15 8.6 L5.7 8.5 5.9 9.15 6.2 10.8 2.15 10.75 2.15 8.6" fill="url(#gradient11)" fill-rule="evenodd" stroke="none"/>
    <path d="M-1.1 10.15 L-2.5 9.8 -2.15 7.85 -0.8 8.1 -1.1 10.15" fill="url(#gradient12)" fill-rule="evenodd" stroke="none"/>
    <path d="M5.6 -2.4 Q6.35 -7.3 6.0 -12.65 L4.3 -12.9 4.25 -3.65 Q2.95 -2.8 1.3 -3.65 L-2.05 -14.0 -3.75 -13.75 -0.35 -2.7 0.0 -0.65 0.2 0.9 Q-2.25 2.85 -5.1 2.5 L-5.2 5.05 Q4.4 1.3 5.6 4.9 L6.0 2.9 Q5.05 2.65 4.85 1.05 L5.6 -2.4 M2.15 10.75 L2.15 11.3 2.1 11.3 -1.2 10.8 -1.1 10.15 -2.5 9.8 -2.85 11.45 Q-4.1 11.75 -5.35 10.9 -4.85 8.75 -5.55 6.05 -3.8 4.9 -1.85 6.25 L-2.15 7.85 -0.8 8.1 -0.65 7.05 Q0.8 6.35 2.1 7.45 L2.15 8.6 5.7 8.5 M5.9 9.15 L6.2 10.8 2.15 10.75 2.15 8.6 M-0.8 8.1 L-1.1 10.15 M-2.15 7.85 L-2.5 9.8" fill="none" stroke="#000000" stroke-linecap="round" stroke-linejoin="round" stroke-width="0.05"/>
  </g>
  <defs>
    <radialGradient cx="0" cy="0" gradientTransform="matrix(0.0222, 0.0, 0.0, 0.0222, 2.85, -1.75)" gradientUnits="userSpaceOnUse" id="gradient0" r="819.2" spreadMethod="pad">
      <stop offset="0.0" stop-color="#6a7249"/>
      <stop offset="1.0" stop-color="#393a2c"/>
    </radialGradient>
    <radialGradient cx="0" cy="0" gradientTransform="matrix(0.0076, 0.0, 0.0, 0.0076, 0.4, 10.45)" gradientUnits="userSpaceOnUse" id="gradient1" r="819.2" spreadMethod="pad">
      <stop offset="0.0" stop-color="#404040"/>
      <stop offset="1.0" stop-color="#000000"/>
    </radialGradient>
    <radialGradient cx="0" cy="0" gradientTransform="matrix(0.0098, 0.0011, -0.0018, 0.0157, 0.8, -3.65)" gradientUnits="userSpaceOnUse" id="gradient2" r="819.2" spreadMethod="pad">
      <stop offset="0.0" stop-color="#666666"/>
      <stop offset="0.6196078431372549" stop-color="#232123"/>
      <stop offset="1.0" stop-color="#777777"/>
    </radialGradient>
    <radialGradient cx="0" cy="0" gradientTransform="matrix(0.0076, 0.0, 0.0, 0.0076, -6.55, -9.95)" gradientUnits="userSpaceOnUse" id="gradient3" r="819.2" spreadMethod="pad">
      <stop offset="0.0" stop-color="#666666"/>
      <stop offset="0.6196078431372549" stop-color="#232123"/>
      <stop offset="1.0" stop-color="#777777"/>
    </radialGradient>
    <radialGradient cx="0" cy="0" gradientTransform="matrix(0.0148, 0.0, 0.0, 0.0148, 3.45, 9.45)" gradientUnits="userSpaceOnUse" id="gradient4" r="819.2" spreadMethod="pad">
      <stop offset="0.0" stop-color="#666666"/>
      <stop offset="0.6196078431372549" stop-color="#232123"/>
      <stop offset="1.0" stop-color="#777777"/>
    </radialGradient>
    <radialGradient cx="0" cy="0" gradientTransform="matrix(0.0065, 0.0, 0.0, 0.0065, 7.6, -9.15)" gradientUnits="userSpaceOnUse" id="gradient5" r="819.2" spreadMethod="pad">
      <stop offset="0.0" stop-color="#666666"/>
      <stop offset="0.6196078431372549" stop-color="#232123"/>
      <stop offset="1.0" stop-color="#777777"/>
    </radialGradient>
    <radialGradient cx="0" cy="0" gradientTransform="matrix(0.0052, 0.0, 0.0, 0.0052, -0.45, 7.85)" gradientUnits="userSpaceOnUse" id="gradient6" r="819.2" spreadMethod="pad">
      <stop offset="0.0" stop-color="#78664b"/>
      <stop offset="1.0" stop-color="#43392c"/>
    </radialGradient>
    <radialGradient cx="0" cy="0" gradientTransform="matrix(0.0233, 0.0, 0.0, 0.0233, -2.3, -12.45)" gradientUnits="userSpaceOnUse" id="gradient7" r="819.2" spreadMethod="pad">
      <stop offset="0.0" stop-color="#575342"/>
      <stop offset="1.0" stop-color="#232629"/>
    </radialGradient>
    <radialGradient cx="0" cy="0" gradientTransform="matrix(0.0058, 0.0, 0.0, 0.0058, -5.1, 7.25)" gradientUnits="userSpaceOnUse" id="gradient8" r="819.2" spreadMethod="pad">
      <stop offset="0.0" stop-color="#575342"/>
      <stop offset="1.0" stop-color="#232629"/>
    </radialGradient>
    <radialGradient cx="0" cy="0" gradientTransform="matrix(0.0052, 0.0, 0.0, 0.0052, -0.45, 7.85)" gradientUnits="userSpaceOnUse" id="gradient9" r="819.2" spreadMethod="pad">
      <stop offset="0.0" stop-color="#575342"/>
      <stop offset="1.0" stop-color="#232629"/>
    </radialGradient>
    <radialGradient cx="0" cy="0" gradientTransform="matrix(0.011, 0.0, 0.0, 0.011, 1.05, 4.85)" gradientUnits="userSpaceOnUse" id="gradient10" r="819.2" spreadMethod="pad">
      <stop offset="0.0" stop-color="#39362d"/>
      <stop offset="1.0" stop-color="#0c0d0e"/>
    </radialGradient>
    <radialGradient cx="0" cy="0" gradientTransform="matrix(0.0044, 0.0, 0.0, 0.0044, 3.2, 8.85)" gradientUnits="userSpaceOnUse" id="gradient11" r="819.2" spreadMethod="pad">
      <stop offset="0.0" stop-color="#39362d"/>
      <stop offset="1.0" stop-color="#0c0d0e"/>
    </radialGradient>
    <radialGradient cx="0" cy="0" gradientTransform="matrix(0.0023, 0.0, 0.0, 0.0023, -1.75, 8.35)" gradientUnits="userSpaceOnUse" id="gradient12" r="819.2" spreadMethod="pad">
      <stop offset="0.0" stop-color="#39362d"/>
      <stop offset="1.0" stop-color="#0c0d0e"/>
    </radialGradient>
  </defs>
</svg>
