<?xml version="1.0" encoding="UTF-8" standalone="no"?>
<svg xmlns:xlink="http://www.w3.org/1999/xlink" height="22.1px" width="9.65px" xmlns="http://www.w3.org/2000/svg">
  <g transform="matrix(1.0, 0.0, 0.0, 1.0, 3.1, 11.55)">
    <path d="M4.5 1.6 L3.7 4.65 -0.6 3.7 -1.05 0.7 -1.3 0.5 -1.45 0.35 Q-2.55 -0.85 -2.55 -2.55 -2.55 -4.25 -1.45 -5.5 -0.3 -6.7 1.3 -6.7 2.9 -6.7 4.0 -5.5 5.15 -4.25 5.15 -2.55 L5.1 -1.85 5.1 -1.7 5.0 -1.3 5.35 1.4 4.8 1.5 4.5 1.6" fill="url(#gradient0)" fill-rule="evenodd" stroke="none"/>
    <path d="M4.5 1.6 L3.7 4.65 -0.6 3.7 -1.05 0.7 -1.3 0.5 -1.45 0.35 Q-2.55 -0.85 -2.55 -2.55 -2.55 -4.25 -1.45 -5.5 -0.3 -6.7 1.3 -6.7 2.9 -6.7 4.0 -5.5 5.15 -4.25 5.15 -2.55 L5.1 -1.85 5.1 -1.7 5.05 -1.6 5.0 -1.3 5.35 1.4 4.8 1.5 M5.1 -1.7 L5.0 -1.3" fill="none" stroke="#000000" stroke-linecap="round" stroke-linejoin="round" stroke-width="0.05"/>
    <path d="M0.65 -1.8 L2.0 -1.15 Q4.15 -5.3 3.4 -11.55 L5.4 -8.45 5.65 0.1 6.55 -0.05 Q5.4 2.95 3.3 10.55 L0.8 7.35 Q1.95 5.05 -1.35 1.0 L-1.85 0.7 -3.1 -1.85 -2.7 -3.4 -0.2 -2.15 0.65 -1.8" fill="url(#gradient1)" fill-rule="evenodd" stroke="none"/>
    <path d="M0.65 -1.8 L-0.2 -2.15 -2.7 -3.4 -3.1 -1.85 -1.85 0.7 -1.35 1.0 Q1.95 5.05 0.8 7.35 L3.3 10.55 Q5.4 2.95 6.55 -0.05 L5.65 0.1 5.4 -8.45 3.4 -11.55 Q4.15 -5.3 2.0 -1.15 L0.65 -1.8 Z" fill="none" stroke="#000000" stroke-linecap="round" stroke-linejoin="round" stroke-width="0.05"/>
    <path d="M6.05 1.05 L4.9 2.45 0.95 0.1 Q3.65 1.35 6.05 1.05" fill="#000000" fill-rule="evenodd" stroke="none"/>
    <path d="M6.05 1.05 L4.9 2.45 0.95 0.1 Q3.65 1.35 6.05 1.05 Z" fill="none" stroke="#000000" stroke-linecap="round" stroke-linejoin="round" stroke-width="0.05"/>
  </g>
  <defs>
    <radialGradient cx="0" cy="0" gradientTransform="matrix(0.0096, 0.0, 0.0, 0.0096, 1.85, -3.0)" gradientUnits="userSpaceOnUse" id="gradient0" r="819.2" spreadMethod="pad">
      <stop offset="0.0" stop-color="#1e2540"/>
      <stop offset="1.0" stop-color="#0c0c16"/>
    </radialGradient>
    <radialGradient cx="0" cy="0" gradientTransform="matrix(0.0191, 0.0, 0.0, 0.0191, 5.0, -5.0)" gradientUnits="userSpaceOnUse" id="gradient1" r="819.2" spreadMethod="pad">
      <stop offset="0.0" stop-color="#ffffff"/>
      <stop offset="0.42745098039215684" stop-color="#7c9aad"/>
      <stop offset="0.44313725490196076" stop-color="#58607c"/>
      <stop offset="0.6470588235294118" stop-color="#7e8aa3"/>
      <stop offset="1.0" stop-color="#c2cde7"/>
    </radialGradient>
  </defs>
</svg>
