<?xml version="1.0" encoding="UTF-8" standalone="no"?>
<svg xmlns:xlink="http://www.w3.org/1999/xlink" height="19.65px" width="7.1px" xmlns="http://www.w3.org/2000/svg">
  <g transform="matrix(1.0, 0.0, 0.0, 1.0, 3.55, 9.8)">
    <path d="M3.4 0.2 L3.4 0.3 3.4 0.2" fill="#8776cd" fill-rule="evenodd" stroke="none"/>
    <path d="M3.4 0.3 L2.95 3.4 2.3 6.5 Q1.8 8.45 0.45 9.85 L-0.5 9.5 Q-1.55 9.05 -1.9 8.15 -2.5 6.85 -2.6 5.5 L-2.95 2.25 -3.15 0.1 Q0.1 1.95 3.4 0.2 L3.4 0.3" fill="url(#gradient0)" fill-rule="evenodd" stroke="none"/>
    <path d="M-3.15 0.1 L-3.4 -1.6 Q-3.7 -3.4 -3.35 -5.7 -3.2 -7.1 -2.6 -7.9 L-2.2 -8.65 -1.8 -9.05 -0.5 -9.65 Q1.35 -10.15 3.3 -8.95 L3.45 -6.75 3.55 -3.1 3.4 0.2 Q0.1 1.95 -3.15 0.1" fill="url(#gradient1)" fill-rule="evenodd" stroke="none"/>
    <path d="M-3.15 0.1 L-3.4 -1.6 Q-3.7 -3.4 -3.35 -5.7 -3.2 -7.1 -2.6 -7.9 L-2.2 -8.65 -1.8 -9.05 -0.5 -9.65 Q1.35 -10.15 3.3 -8.95 L3.45 -6.75 3.55 -3.1 3.4 0.2 3.4 0.3 2.95 3.4 2.3 6.5 Q1.8 8.45 0.45 9.85 L-0.5 9.5 Q-1.55 9.05 -1.9 8.15 -2.5 6.85 -2.6 5.5 L-2.95 2.25 -3.15 0.1 Q0.1 1.95 3.4 0.2" fill="none" stroke="#000000" stroke-linecap="round" stroke-linejoin="round" stroke-width="0.05"/>
  </g>
  <defs>
    <radialGradient cx="0" cy="0" gradientTransform="matrix(0.0109, 0.0, 0.0, 0.0109, 0.4, 8.25)" gradientUnits="userSpaceOnUse" id="gradient0" r="819.2" spreadMethod="pad">
      <stop offset="0.0" stop-color="#372f26"/>
      <stop offset="1.0" stop-color="#160d0c"/>
    </radialGradient>
    <radialGradient cx="0" cy="0" gradientTransform="matrix(0.0092, 0.0, 0.0, 0.013, -2.35, -4.15)" gradientUnits="userSpaceOnUse" id="gradient1" r="819.2" spreadMethod="pad">
      <stop offset="0.0" stop-color="#5a5e72"/>
      <stop offset="0.4117647058823529" stop-color="#1e2026"/>
      <stop offset="0.6901960784313725" stop-color="#090b11"/>
      <stop offset="1.0" stop-color="#141b27"/>
    </radialGradient>
  </defs>
</svg>
