<?xml version="1.0" encoding="UTF-8" standalone="no"?>
<svg xmlns:xlink="http://www.w3.org/1999/xlink" height="14.25px" width="3.5px" xmlns="http://www.w3.org/2000/svg">
  <g transform="matrix(1.0, 0.0, 0.0, 1.0, 1.75, 7.1)">
    <path d="M0.4 -6.4 Q-1.1 -6.4 -1.1 -5.05 -1.1 -4.6 -0.25 -4.15 L-0.25 -4.05 1.05 -5.6 Q1.05 -6.25 0.4 -6.4 M0.6 -3.65 L-0.5 -2.0 0.15 -1.0 1.0 -1.25 0.05 -1.75 0.05 -2.1 0.65 -2.15 Q1.75 -2.15 1.75 -1.3 1.75 -0.35 0.45 -0.35 -1.1 -0.35 -1.25 -2.15 -1.25 -2.65 -0.45 -3.75 L-0.4 -3.85 -0.6 -3.85 Q-2.05 -3.85 -1.7 -5.1 -1.7 -7.1 -0.1 -7.1 2.0 -7.1 1.65 -5.6 1.65 -4.9 0.6 -3.65 M-1.0 2.0 Q-1.2 2.75 -0.75 3.4 -0.45 3.5 -1.05 3.5 -1.6 3.5 -1.6 2.65 -1.6 1.4 -0.85 1.4 0.95 1.4 1.15 2.9 L0.3 4.05 Q-0.6 4.8 -0.6 5.3 L-0.35 6.4 -0.35 6.5 Q0.45 6.4 0.55 6.05 -0.1 5.9 -0.2 5.65 L-0.2 5.5 0.15 5.3 Q1.15 5.85 1.15 5.95 1.15 7.15 0.65 7.15 -1.25 7.15 -1.2 5.25 -1.2 4.7 -0.4 3.95 0.4 3.2 0.4 2.7 L0.3 2.4 -0.2 1.9 -1.0 2.0" fill="#f5dd81" fill-rule="evenodd" stroke="none"/>
  </g>
</svg>
