<?xml version="1.0" encoding="UTF-8" standalone="no"?>
<svg xmlns:xlink="http://www.w3.org/1999/xlink" height="55.0px" width="10.55px" xmlns="http://www.w3.org/2000/svg">
  <g transform="matrix(1.0, 0.0, 0.0, 1.0, 5.3, 27.5)">
    <path d="M2.55 -6.8 L2.55 -6.6 2.35 -6.8 2.55 -6.8 M3.95 3.65 L3.95 4.0 3.5 4.0 3.95 3.65 M-0.5 4.2 L-0.5 4.0 -0.4 4.0 -0.5 4.2 M-4.0 16.15 L-3.85 16.2 -4.0 16.2 -4.0 16.15" fill="#ffffff" fill-rule="evenodd" stroke="none"/>
    <path d="M2.6 4.8 L2.55 4.85 2.55 4.8 2.6 4.8 M-0.95 13.8 L-0.35 14.3 -0.85 14.4 -0.95 13.8 M2.25 16.9 L2.4 17.55 2.0 17.15 2.25 16.9 2.15 16.7 2.15 16.65 2.25 16.9" fill="url(#gradient0)" fill-rule="evenodd" stroke="none"/>
    <path d="M0.7 -16.5 L0.7 -16.45 5.25 -16.45 5.25 -6.8 2.55 -6.8 2.35 -6.8 -0.5 -6.8 -3.2 -6.8 -3.2 -16.45 -1.7 -16.45 -1.7 -16.5 0.7 -16.5 M4.2 -8.7 L4.2 -11.25 2.0 -11.25 2.0 -8.7 4.2 -8.7" fill="url(#gradient1)" fill-rule="evenodd" stroke="none"/>
    <path d="M4.2 -8.7 L2.0 -8.7 2.0 -11.25 4.2 -11.25 4.2 -8.7" fill="url(#gradient2)" fill-rule="evenodd" stroke="none"/>
    <path d="M2.55 -6.6 L3.95 -4.85 3.95 -2.8 0.9 -3.05 0.9 -3.9 -0.5 -5.95 -0.5 -6.8 2.35 -6.8 2.55 -6.6" fill="url(#gradient3)" fill-rule="evenodd" stroke="none"/>
    <path d="M3.95 -2.8 L3.95 3.65 3.5 4.0 3.2 4.3 0.9 2.35 0.9 -3.05 3.95 -2.8" fill="url(#gradient4)" fill-rule="evenodd" stroke="none"/>
    <path d="M3.2 4.3 L2.6 4.8 2.55 4.8 -0.25 3.85 0.9 2.35 3.2 4.3" fill="url(#gradient5)" fill-rule="evenodd" stroke="none"/>
    <path d="M2.55 4.85 L2.55 9.1 -0.95 12.15 -0.95 13.8 -0.85 14.4 -4.0 14.95 -4.0 10.4 -0.5 7.8 -0.5 4.2 -0.4 4.0 -0.25 3.85 2.55 4.8 2.55 4.85" fill="url(#gradient6)" fill-rule="evenodd" stroke="none"/>
    <path d="M-0.35 14.3 L2.1 16.4 2.15 16.65 2.15 16.7 -0.9 18.15 -3.85 16.2 -4.0 16.15 -4.0 14.95 -0.85 14.4 -0.35 14.3" fill="url(#gradient7)" fill-rule="evenodd" stroke="none"/>
    <path d="M-0.5 19.9 L-0.5 18.4 -0.9 18.15 2.15 16.7 2.25 16.9 2.0 17.15 -0.5 19.9" fill="url(#gradient8)" fill-rule="evenodd" stroke="none"/>
    <path d="M2.4 17.55 L2.55 26.8 Q1.3 28.2 -0.5 26.8 L-0.5 19.9 2.0 17.15 2.4 17.55" fill="url(#gradient9)" fill-rule="evenodd" stroke="none"/>
    <path d="M-1.7 -16.5 L-1.7 -20.45 -5.3 -26.2 Q-4.65 -27.6 -2.95 -27.5 L0.7 -21.05 0.7 -16.5 -1.7 -16.5" fill="url(#gradient10)" fill-rule="evenodd" stroke="none"/>
    <path d="M0.7 -16.5 L0.7 -16.45 5.25 -16.45 5.25 -6.8 2.55 -6.8 2.55 -6.6 3.95 -4.85 3.95 -2.8 3.95 3.65 3.95 4.0 M3.5 4.0 L3.2 4.3 2.6 4.8 2.55 4.85 2.55 9.1 -0.95 12.15 -0.95 13.8 -0.35 14.3 2.1 16.4 M2.15 16.65 L2.6 16.45 2.25 16.9 2.0 17.15 -0.5 19.9 -0.5 18.4 -0.9 18.15 -1.55 18.45 M2.4 17.55 L2.55 26.8 Q1.3 28.2 -0.5 26.8 L-0.5 19.9 M-1.7 -16.5 L-1.7 -20.45 -5.3 -26.2 Q-4.65 -27.6 -2.95 -27.5 L0.7 -21.05 0.7 -16.5 -1.7 -16.5 -1.7 -16.45 -3.2 -16.45 -3.2 -6.8 -0.5 -6.8 2.35 -6.8 2.55 -6.8 M4.2 -8.7 L2.0 -8.7 2.0 -11.25 4.2 -11.25 4.2 -8.7 M2.35 -6.8 L2.55 -6.6 M3.95 -2.8 L0.9 -3.05 0.9 2.35 3.2 4.3 M0.9 -3.05 L0.9 -3.9 -0.5 -5.95 -0.5 -6.8 M-0.4 4.0 L-0.25 3.85 0.9 2.35 M-0.5 4.0 L-0.5 4.2 -0.4 4.0 M-4.0 14.95 L-4.0 10.4 -0.5 7.8 -0.5 4.2 M-0.85 14.4 L-0.35 14.3 M-0.85 14.4 L-4.0 14.95 -4.0 16.15 -3.85 16.2 -0.9 18.15 2.15 16.7 2.15 16.65 M-4.0 16.2 L-4.0 16.15 M3.5 4.0 L3.95 3.65 M2.6 4.8 L2.55 4.8 -0.25 3.85" fill="none" stroke="#000000" stroke-linecap="round" stroke-linejoin="round" stroke-width="0.05"/>
  </g>
  <defs>
    <radialGradient cx="0" cy="0" gradientTransform="matrix(-4.0E-4, 0.0229, -0.0364, -6.0E-4, -0.65, 12.2)" gradientUnits="userSpaceOnUse" id="gradient0" r="819.2" spreadMethod="pad">
      <stop offset="0.0" stop-color="#58677c"/>
      <stop offset="0.2196078431372549" stop-color="#384250"/>
      <stop offset="0.7607843137254902" stop-color="#3a3a1b"/>
      <stop offset="1.0" stop-color="#000000"/>
    </radialGradient>
    <linearGradient gradientTransform="matrix(0.0052, 0.0, 0.0, 0.0059, 1.0, -11.65)" gradientUnits="userSpaceOnUse" id="gradient1" spreadMethod="pad" x1="-819.2" x2="819.2">
      <stop offset="0.0" stop-color="#efece4"/>
      <stop offset="0.45098039215686275" stop-color="#8d662e"/>
      <stop offset="0.4666666666666667" stop-color="#422c0b"/>
      <stop offset="0.7294117647058823" stop-color="#bf8837"/>
      <stop offset="1.0" stop-color="#cba670"/>
    </linearGradient>
    <linearGradient gradientTransform="matrix(0.0013, 0.0, 0.0, 0.0016, 3.1, -10.0)" gradientUnits="userSpaceOnUse" id="gradient2" spreadMethod="pad" x1="-819.2" x2="819.2">
      <stop offset="0.0" stop-color="#efece4"/>
      <stop offset="0.45098039215686275" stop-color="#8d662e"/>
      <stop offset="0.4666666666666667" stop-color="#422c0b"/>
      <stop offset="0.7294117647058823" stop-color="#bf8837"/>
      <stop offset="1.0" stop-color="#cba670"/>
    </linearGradient>
    <linearGradient gradientTransform="matrix(0.0027, 0.0, 0.0, 0.0024, 1.7, -4.8)" gradientUnits="userSpaceOnUse" id="gradient3" spreadMethod="pad" x1="-819.2" x2="819.2">
      <stop offset="0.0" stop-color="#efece4"/>
      <stop offset="0.45098039215686275" stop-color="#8d662e"/>
      <stop offset="0.4666666666666667" stop-color="#422c0b"/>
      <stop offset="0.7294117647058823" stop-color="#bf8837"/>
      <stop offset="1.0" stop-color="#cba670"/>
    </linearGradient>
    <linearGradient gradientTransform="matrix(0.0019, 0.0, 0.0, 0.0045, 2.4, 0.6)" gradientUnits="userSpaceOnUse" id="gradient4" spreadMethod="pad" x1="-819.2" x2="819.2">
      <stop offset="0.0" stop-color="#efece4"/>
      <stop offset="0.45098039215686275" stop-color="#8d662e"/>
      <stop offset="0.4666666666666667" stop-color="#422c0b"/>
      <stop offset="0.7294117647058823" stop-color="#bf8837"/>
      <stop offset="1.0" stop-color="#cba670"/>
    </linearGradient>
    <linearGradient gradientTransform="matrix(0.0021, 0.0, 0.0, 0.0015, 1.45, 3.55)" gradientUnits="userSpaceOnUse" id="gradient5" spreadMethod="pad" x1="-819.2" x2="819.2">
      <stop offset="0.0" stop-color="#efece4"/>
      <stop offset="0.45098039215686275" stop-color="#8d662e"/>
      <stop offset="0.4666666666666667" stop-color="#422c0b"/>
      <stop offset="0.7294117647058823" stop-color="#bf8837"/>
      <stop offset="1.0" stop-color="#cba670"/>
    </linearGradient>
    <linearGradient gradientTransform="matrix(-0.0031, -0.0013, 0.0028, -0.0067, -0.75, 9.85)" gradientUnits="userSpaceOnUse" id="gradient6" spreadMethod="pad" x1="-819.2" x2="819.2">
      <stop offset="0.0" stop-color="#efece4"/>
      <stop offset="0.45098039215686275" stop-color="#8d662e"/>
      <stop offset="0.4666666666666667" stop-color="#422c0b"/>
      <stop offset="0.7294117647058823" stop-color="#bf8837"/>
      <stop offset="1.0" stop-color="#cba670"/>
    </linearGradient>
    <linearGradient gradientTransform="matrix(-0.0029, 0.0015, -0.0012, -0.0023, -1.1, 15.95)" gradientUnits="userSpaceOnUse" id="gradient7" spreadMethod="pad" x1="-819.2" x2="819.2">
      <stop offset="0.0" stop-color="#efece4"/>
      <stop offset="0.45098039215686275" stop-color="#8d662e"/>
      <stop offset="0.4666666666666667" stop-color="#422c0b"/>
      <stop offset="0.7294117647058823" stop-color="#bf8837"/>
      <stop offset="1.0" stop-color="#cba670"/>
    </linearGradient>
    <linearGradient gradientTransform="matrix(-0.002, 0.0016, -6.0E-4, -8.0E-4, 0.6, 18.05)" gradientUnits="userSpaceOnUse" id="gradient8" spreadMethod="pad" x1="-819.2" x2="819.2">
      <stop offset="0.0" stop-color="#efece4"/>
      <stop offset="0.45098039215686275" stop-color="#8d662e"/>
      <stop offset="0.4666666666666667" stop-color="#422c0b"/>
      <stop offset="0.7294117647058823" stop-color="#bf8837"/>
      <stop offset="1.0" stop-color="#cba670"/>
    </linearGradient>
    <linearGradient gradientTransform="matrix(-0.0021, -1.0E-4, 4.0E-4, -0.0063, 1.1, 22.35)" gradientUnits="userSpaceOnUse" id="gradient9" spreadMethod="pad" x1="-819.2" x2="819.2">
      <stop offset="0.0" stop-color="#efece4"/>
      <stop offset="0.45098039215686275" stop-color="#8d662e"/>
      <stop offset="0.4666666666666667" stop-color="#422c0b"/>
      <stop offset="0.7294117647058823" stop-color="#bf8837"/>
      <stop offset="1.0" stop-color="#cba670"/>
    </linearGradient>
    <linearGradient gradientTransform="matrix(-0.0022, 9.0E-4, -0.0027, -0.0067, -1.75, -21.9)" gradientUnits="userSpaceOnUse" id="gradient10" spreadMethod="pad" x1="-819.2" x2="819.2">
      <stop offset="0.0" stop-color="#efece4"/>
      <stop offset="0.45098039215686275" stop-color="#8d662e"/>
      <stop offset="0.4666666666666667" stop-color="#422c0b"/>
      <stop offset="0.7294117647058823" stop-color="#bf8837"/>
      <stop offset="1.0" stop-color="#cba670"/>
    </linearGradient>
  </defs>
</svg>
