<?xml version="1.0" encoding="UTF-8" standalone="no"?>
<svg xmlns:xlink="http://www.w3.org/1999/xlink" height="43.35px" width="7.55px" xmlns="http://www.w3.org/2000/svg">
  <g transform="matrix(1.0, 0.0, 0.0, 1.0, 1.35, 17.4)">
    <path d="M0.95 -8.15 L1.0 -8.15 1.0 -8.1 1.0 -7.55 0.95 -8.15" fill="#999999" fill-rule="evenodd" stroke="none"/>
    <path d="M5.15 -12.25 Q3.6 -16.05 1.65 -15.55 L1.6 -15.4 Q0.7 -13.1 0.95 -8.15 L1.0 -7.55 1.15 -5.45 -0.65 -5.45 -0.8 -7.55 Q-1.5 -18.65 3.15 -17.25 4.95 -16.75 6.2 -13.9 L5.15 -12.25" fill="url(#gradient0)" fill-rule="evenodd" stroke="none"/>
    <path d="M1.15 -5.45 L1.3 -5.45 1.3 25.25 Q-0.35 26.7 -1.35 25.25 L-1.35 -5.45 -0.65 -5.45 1.15 -5.45" fill="url(#gradient1)" fill-rule="evenodd" stroke="none"/>
    <path d="M5.15 -12.25 Q3.6 -16.05 1.65 -15.55 L1.6 -15.4 Q0.7 -13.1 0.95 -8.15 L1.0 -7.55 1.15 -5.45 1.3 -5.45 1.3 25.25 Q-0.35 26.7 -1.35 25.25 L-1.35 -5.45 -0.65 -5.45 -0.8 -7.55 Q-1.5 -18.65 3.15 -17.25 4.95 -16.75 6.2 -13.9 M1.0 -8.15 L1.0 -8.1 1.0 -7.55 M1.15 -5.45 L-0.65 -5.45" fill="none" stroke="#000000" stroke-linecap="round" stroke-linejoin="round" stroke-width="0.05"/>
    <path d="M6.2 -13.9 L5.15 -12.25" fill="none" stroke="#000000" stroke-linecap="round" stroke-linejoin="round" stroke-width="0.05"/>
  </g>
  <defs>
    <radialGradient cx="0" cy="0" gradientTransform="matrix(0.0148, 0.0, 0.0, 0.0148, 2.6, -17.15)" gradientUnits="userSpaceOnUse" id="gradient0" r="819.2" spreadMethod="pad">
      <stop offset="0.0" stop-color="#efece4"/>
      <stop offset="0.45098039215686275" stop-color="#8d662e"/>
      <stop offset="0.4666666666666667" stop-color="#422c0b"/>
      <stop offset="0.7294117647058823" stop-color="#bf8837"/>
      <stop offset="1.0" stop-color="#cba670"/>
    </radialGradient>
    <linearGradient gradientTransform="matrix(0.0016, 0.0, 0.0, 0.0192, -0.05, 10.25)" gradientUnits="userSpaceOnUse" id="gradient1" spreadMethod="pad" x1="-819.2" x2="819.2">
      <stop offset="0.0" stop-color="#efece4"/>
      <stop offset="0.45098039215686275" stop-color="#8d662e"/>
      <stop offset="0.4666666666666667" stop-color="#422c0b"/>
      <stop offset="0.7294117647058823" stop-color="#bf8837"/>
      <stop offset="1.0" stop-color="#cba670"/>
    </linearGradient>
  </defs>
</svg>
