<?xml version="1.0" encoding="UTF-8" standalone="no"?>
<svg xmlns:xlink="http://www.w3.org/1999/xlink" height="53.25px" width="5.9px" xmlns="http://www.w3.org/2000/svg">
  <g transform="matrix(1.0, 0.0, 0.0, 1.0, 2.65, 23.15)">
    <path d="M-0.95 -19.9 L-0.95 -19.6 -1.1 -19.8 -0.95 -19.9" fill="url(#gradient0)" fill-rule="evenodd" stroke="none"/>
    <path d="M-0.95 -19.6 L-0.95 -14.2 -0.9 -10.05 -0.9 -7.25 -0.9 -3.55 -0.85 -2.2 -0.85 6.5 0.05 8.65 -0.6 12.8 -0.85 14.25 0.15 30.1 -1.95 15.3 -1.4 10.15 -2.55 3.5 -2.65 -21.1 -2.35 -21.25 -1.1 -19.8 -0.95 -19.6" fill="url(#gradient1)" fill-rule="evenodd" stroke="none"/>
    <path d="M3.2 -20.9 L-0.95 -19.9 -1.1 -19.8 -2.35 -21.25 1.85 -23.15 3.2 -20.9" fill="#ffffff" fill-rule="evenodd" stroke="none"/>
    <path d="M3.2 -20.9 L3.15 -20.65 3.25 -17.9 2.8 -18.0 Q2.25 -18.05 1.85 -17.4 1.45 -16.7 1.45 -15.75 L1.45 -15.45 -0.95 -14.2 -0.95 -19.6 -0.95 -19.9 3.2 -20.9 M2.5 -6.2 L2.4 -5.15 -0.85 -2.2 -0.9 -3.55 2.5 -6.2 M1.35 11.7 L0.15 30.1 -0.85 14.25 -0.6 12.8 1.35 11.7 M-0.9 -10.05 Q-0.55 -10.1 -0.3 -9.7 L-0.1 -8.65 -0.3 -7.65 -0.9 -7.25 -0.9 -10.05 M0.45 1.55 Q0.45 1.2 0.6 0.95 0.75 0.7 1.0 0.7 L1.4 0.95 1.6 1.55 1.4 2.15 1.0 2.4 Q0.75 2.4 0.6 2.15 L0.45 1.55" fill="url(#gradient2)" fill-rule="evenodd" stroke="none"/>
    <path d="M-0.95 -14.2 L1.45 -15.45 1.45 -15.75 Q1.45 -16.7 1.85 -17.4 2.25 -18.05 2.8 -18.0 L3.25 -17.9 2.5 -6.2 -0.9 -3.55 -0.9 -7.25 -0.3 -7.65 -0.1 -8.65 -0.3 -9.7 Q-0.55 -10.1 -0.9 -10.05 L-0.95 -14.2 M2.4 -5.15 L1.35 11.7 -0.6 12.8 0.05 8.65 -0.85 6.5 -0.85 -2.2 2.4 -5.15 M0.45 1.55 L0.6 2.15 Q0.75 2.4 1.0 2.4 L1.4 2.15 1.6 1.55 1.4 0.95 1.0 0.7 Q0.75 0.7 0.6 0.95 0.45 1.2 0.45 1.55" fill="url(#gradient3)" fill-rule="evenodd" stroke="none"/>
    <path d="M3.25 -17.9 L3.15 -20.65 3.2 -20.9 1.85 -23.15 -2.35 -21.25 M3.25 -17.9 L2.5 -6.2 2.4 -5.15 1.35 11.7 0.15 30.1 -1.95 15.3 -1.4 10.15 -2.55 3.5 -2.65 -21.1" fill="none" stroke="#000000" stroke-linecap="round" stroke-linejoin="round" stroke-width="0.05"/>
  </g>
  <defs>
    <radialGradient cx="0" cy="0" gradientTransform="matrix(0.0056, 0.0, 0.0, 0.0085, 2.25, -21.1)" gradientUnits="userSpaceOnUse" id="gradient0" r="819.2" spreadMethod="pad">
      <stop offset="0.0" stop-color="#40446a"/>
      <stop offset="1.0" stop-color="#5f5643"/>
    </radialGradient>
    <radialGradient cx="0" cy="0" gradientTransform="matrix(0.0608, 0.0, 0.0, 0.0608, -1.85, -19.65)" gradientUnits="userSpaceOnUse" id="gradient1" r="819.2" spreadMethod="pad">
      <stop offset="0.0" stop-color="#5fdfed"/>
      <stop offset="0.4392156862745098" stop-color="#182434"/>
      <stop offset="1.0" stop-color="#030405"/>
    </radialGradient>
    <radialGradient cx="0" cy="0" gradientTransform="matrix(0.0605, 0.0, 0.0, 0.0605, 0.65, -19.5)" gradientUnits="userSpaceOnUse" id="gradient2" r="819.2" spreadMethod="pad">
      <stop offset="0.0" stop-color="#5ddbe9"/>
      <stop offset="0.5254901960784314" stop-color="#536282"/>
      <stop offset="1.0" stop-color="#131417"/>
    </radialGradient>
    <radialGradient cx="0" cy="0" gradientTransform="matrix(0.032, 0.0, 0.0, 0.0484, -0.85, -9.5)" gradientUnits="userSpaceOnUse" id="gradient3" r="819.2" spreadMethod="pad">
      <stop offset="0.0" stop-color="#386583"/>
      <stop offset="1.0" stop-color="#30373f"/>
    </radialGradient>
  </defs>
</svg>
