<?xml version="1.0" encoding="UTF-8" standalone="no"?>
<svg xmlns:xlink="http://www.w3.org/1999/xlink" height="8.75px" width="11.1px" xmlns="http://www.w3.org/2000/svg">
  <g transform="matrix(1.0, 0.0, 0.0, 1.0, 6.2, 5.45)">
    <path d="M4.1 -3.0 L4.9 -0.75 4.4 -0.25 Q2.2 2.0 0.95 2.9 -0.9 3.7 -5.15 2.85 -5.95 2.3 -6.0 1.6 L-6.2 0.25 -5.65 -1.0 Q-4.15 -3.6 -1.45 -5.45 L-0.9 -5.05 Q0.4 -4.55 2.55 -5.35 L4.1 -3.0" fill="url(#gradient0)" fill-rule="evenodd" stroke="none"/>
    <path d="M4.1 -3.0 L4.9 -0.75 4.4 -0.25 Q2.2 2.0 0.95 2.9 -0.9 3.7 -5.15 2.85 -5.95 2.3 -6.0 1.6 L-6.2 0.25 -5.65 -1.0 Q-4.15 -3.6 -1.45 -5.45 L-0.9 -5.05 Q0.4 -4.55 2.55 -5.35 L4.1 -3.0 Z" fill="none" stroke="#000000" stroke-linecap="round" stroke-linejoin="round" stroke-width="0.05"/>
  </g>
  <defs>
    <radialGradient cx="0" cy="0" gradientTransform="matrix(0.0038, 0.008, -0.0098, 0.0057, -1.8, -0.5)" gradientUnits="userSpaceOnUse" id="gradient0" r="819.2" spreadMethod="pad">
      <stop offset="0.0" stop-color="#979db5"/>
      <stop offset="0.24705882352941178" stop-color="#383c58"/>
      <stop offset="0.5568627450980392" stop-color="#2f2e38"/>
      <stop offset="1.0" stop-color="#4f4a57"/>
    </radialGradient>
  </defs>
</svg>
