<?xml version="1.0" encoding="UTF-8" standalone="no"?>
<svg xmlns:xlink="http://www.w3.org/1999/xlink" height="66.8px" width="10.2px" xmlns="http://www.w3.org/2000/svg">
  <g transform="matrix(1.0, 0.0, 0.0, 1.0, 5.1, 38.75)">
    <path d="M-1.85 21.0 Q-1.25 15.55 -1.7 9.95 L-1.0 9.35 -1.0 0.9 0.95 0.9 0.95 9.35 1.6 10.0 Q1.2 15.2 1.85 21.0 -0.2 21.9 -1.85 21.0" fill="url(#gradient0)" fill-rule="evenodd" stroke="none"/>
    <path d="M1.85 21.0 Q2.75 24.6 1.85 27.7 0.1 28.45 -1.85 27.7 -2.65 24.15 -1.85 21.0 -0.2 21.9 1.85 21.0" fill="url(#gradient1)" fill-rule="evenodd" stroke="none"/>
    <path d="M1.85 21.0 Q2.75 24.6 1.85 27.7 0.1 28.45 -1.85 27.7 -2.65 24.15 -1.85 21.0 -1.25 15.55 -1.7 9.95 L-1.0 9.35 -1.0 0.9 M0.95 0.9 L0.95 9.35 1.6 10.0 Q1.2 15.2 1.85 21.0 -0.2 21.9 -1.85 21.0" fill="none" stroke="#000000" stroke-linecap="round" stroke-linejoin="round" stroke-width="0.05"/>
    <path d="M3.25 -1.1 L3.3 2.25 Q-0.3 3.55 -3.2 2.25 L-3.0 -1.1 Q0.1 -0.15 3.25 -1.1" fill="url(#gradient2)" fill-rule="evenodd" stroke="none"/>
    <path d="M4.75 -34.1 Q2.9 -17.6 3.25 -1.1 0.1 -0.15 -3.0 -1.1 -2.3 -17.25 -4.65 -34.1 0.05 -34.95 4.75 -34.1" fill="url(#gradient3)" fill-rule="evenodd" stroke="none"/>
    <path d="M-4.65 -34.1 L-5.1 -37.35 Q0.0 -40.1 5.1 -37.45 L4.75 -34.1 Q2.9 -17.6 3.25 -1.1 L3.3 2.25 Q-0.3 3.55 -3.2 2.25 L-3.0 -1.1 Q-2.3 -17.25 -4.65 -34.1 0.05 -34.95 4.75 -34.1 M3.25 -1.1 Q0.1 -0.15 -3.0 -1.1" fill="none" stroke="#000000" stroke-linecap="round" stroke-linejoin="round" stroke-width="0.05"/>
  </g>
  <defs>
    <linearGradient gradientTransform="matrix(0.0, -0.0125, 0.0023, 0.0, 0.0, 11.2)" gradientUnits="userSpaceOnUse" id="gradient0" spreadMethod="pad" x1="-819.2" x2="819.2">
      <stop offset="0.0" stop-color="#20202d"/>
      <stop offset="0.1843137254901961" stop-color="#3e3e53"/>
      <stop offset="0.5529411764705883" stop-color="#534d3e"/>
      <stop offset="1.0" stop-color="#1b1f21"/>
    </linearGradient>
    <radialGradient cx="0" cy="0" gradientTransform="matrix(0.0079, 0.0, 0.0, 0.0079, -1.75, 23.05)" gradientUnits="userSpaceOnUse" id="gradient1" r="819.2" spreadMethod="pad">
      <stop offset="0.03137254901960784" stop-color="#e3e8e8"/>
      <stop offset="0.5137254901960784" stop-color="#4f5864"/>
      <stop offset="1.0" stop-color="#d2d2df"/>
    </radialGradient>
    <radialGradient cx="0" cy="0" gradientTransform="matrix(0.0069, 0.0, 0.0, 0.0049, -1.5, 0.15)" gradientUnits="userSpaceOnUse" id="gradient2" r="819.2" spreadMethod="pad">
      <stop offset="0.01568627450980392" stop-color="#e3e8e8"/>
      <stop offset="0.5137254901960784" stop-color="#4f5864"/>
      <stop offset="1.0" stop-color="#d2d2df"/>
    </radialGradient>
    <linearGradient gradientTransform="matrix(2.0E-4, -0.0207, 0.0057, 0.0, -0.1, -17.55)" gradientUnits="userSpaceOnUse" id="gradient3" spreadMethod="pad" x1="-819.2" x2="819.2">
      <stop offset="0.0" stop-color="#171c1c"/>
      <stop offset="0.23921568627450981" stop-color="#333544"/>
      <stop offset="1.0" stop-color="#7e380a"/>
    </linearGradient>
  </defs>
</svg>
